<svg xmlns="http://www.w3.org/2000/svg" width="24" height="24" viewBox="0 0 24 24">
  <defs/>
  <path fill="#292D32" d="M2.25,4.97 Q2.25,1.25 6,1.25 L18,1.25 Q21.75,1.25 21.75,4.97 L21.75,15.88 Q21.75,17.423 20.65,18.513 Q19.553,19.6 18,19.6 L17.24,19.6 Q16.301,19.6 15.65,20.25 L13.937,21.943 Q11.995,23.861 10.053,21.944 L8.343,20.253 Q7.689,19.6 6.75,19.6 L6,19.6 Q2.25,19.6 2.25,15.88 L2.25,9.07 Q2.25,8.759 2.47,8.54 Q2.689,8.32 3,8.32 Q3.311,8.32 3.53,8.54 Q3.75,8.759 3.75,9.07 L3.75,15.88 Q3.75,16.798 4.405,17.447 Q5.064,18.1 6,18.1 L6.75,18.1 Q8.311,18.1 9.397,19.187 L11.107,20.876 Q11.995,21.753 12.883,20.877 L14.59,19.19 Q15.679,18.1 17.24,18.1 L18,18.1 Q20.25,18.1 20.25,15.88 L20.25,4.97 Q20.25,2.75 18,2.75 L6,2.75 Q3.75,2.75 3.75,4.97 Q3.75,5.281 3.53,5.5 Q3.311,5.72 3,5.72 Q2.689,5.72 2.47,5.5 Q2.25,5.281 2.25,4.97 Z"/>
  <path fill="#292D32" d="M6.25,9.16 Q6.25,8.152 6.966,7.436 Q7.682,6.72 8.69,6.72 Q9.91,6.72 10.52,7.33 Q11.13,7.94 11.13,9.16 Q11.13,10.568 9.224,11.864 Q8.266,12.515 7.951,13.02 L10.38,13.02 Q10.691,13.02 10.91,13.24 Q11.13,13.459 11.13,13.77 Q11.13,14.081 10.91,14.3 Q10.691,14.52 10.38,14.52 L7.7,14.52 Q7.044,14.52 6.634,14.008 Q6.193,13.458 6.408,12.795 Q6.76,11.726 8.38,10.624 Q9.63,9.774 9.63,9.16 Q9.63,8.69 9.395,8.455 Q9.16,8.22 8.69,8.22 Q8.303,8.22 8.027,8.497 Q7.75,8.773 7.75,9.16 Q7.75,9.471 7.53,9.69 Q7.311,9.91 7,9.91 Q6.689,9.91 6.47,9.69 Q6.25,9.471 6.25,9.16 Z"/>
  <path fill="#292D32" d="M15.29,13.76 L15.29,13.07 L13.33,13.07 Q12.527,13.07 12.131,12.386 Q11.731,11.695 12.133,11.001 Q13.486,8.692 14.327,7.337 Q14.861,6.499 15.822,6.768 Q16.79,7.039 16.79,8.05 L16.79,11.57 L17,11.57 Q17.31,11.57 17.53,11.79 Q17.75,12.009 17.75,12.32 Q17.75,12.631 17.53,12.85 Q17.31,13.07 17,13.07 L16.79,13.07 L16.79,13.76 Q16.79,14.071 16.57,14.29 Q16.35,14.51 16.04,14.51 Q15.729,14.51 15.509,14.29 Q15.29,14.071 15.29,13.76 Z M15.29,11.57 L15.29,8.634 Q14.574,9.805 13.538,11.57 L15.29,11.57 Z"/>
</svg>

