<svg xmlns="http://www.w3.org/2000/svg" width="24" height="24" viewBox="0 0 24 24">
  <defs/>
  <path fill="#292D32" d="M18,19.61 L17.24,19.61 Q16.301,19.61 15.65,20.26 L13.937,21.953 Q11.995,23.871 10.053,21.954 L8.343,20.263 Q7.689,19.61 6.75,19.61 L6,19.61 Q2.25,19.61 2.25,15.89 L2.25,4.98 Q2.25,3.437 3.35,2.347 Q4.447,1.26 6,1.26 L18,1.26 Q19.553,1.26 20.65,2.347 Q21.75,3.437 21.75,4.98 L21.75,15.89 Q21.75,19.61 18,19.61 Z M18,18.11 Q20.25,18.11 20.25,15.89 L20.25,4.98 Q20.25,2.76 18,2.76 L6,2.76 Q5.064,2.76 4.405,3.413 Q3.75,4.062 3.75,4.98 L3.75,15.89 Q3.75,18.11 6,18.11 L6.75,18.11 Q8.311,18.11 9.397,19.197 L11.107,20.886 Q11.995,21.763 12.883,20.887 L14.59,19.2 Q15.679,18.11 17.24,18.11 Z"/>
  <path fill="#292D32" d="M6.25,9.16 Q6.25,8.152 6.966,7.436 Q7.682,6.72 8.69,6.72 Q9.91,6.72 10.52,7.33 Q11.13,7.94 11.13,9.16 Q11.13,10.568 9.224,11.864 Q8.266,12.515 7.951,13.02 L10.38,13.02 Q10.691,13.02 10.91,13.24 Q11.13,13.459 11.13,13.77 Q11.13,14.081 10.91,14.3 Q10.691,14.52 10.38,14.52 L7.7,14.52 Q7.044,14.52 6.634,14.008 Q6.193,13.458 6.408,12.795 Q6.76,11.726 8.38,10.624 Q9.63,9.774 9.63,9.16 Q9.63,8.69 9.395,8.455 Q9.16,8.22 8.69,8.22 Q8.303,8.22 8.027,8.497 Q7.75,8.773 7.75,9.16 Q7.75,9.471 7.53,9.69 Q7.311,9.91 7,9.91 Q6.689,9.91 6.47,9.69 Q6.25,9.471 6.25,9.16 Z"/>
  <path fill="#292D32" d="M15.29,13.76 L15.29,13.07 L13.33,13.07 Q12.527,13.07 12.131,12.386 Q11.731,11.695 12.133,11.001 Q13.486,8.692 14.327,7.337 Q14.861,6.499 15.822,6.768 Q16.79,7.039 16.79,8.05 L16.79,11.57 L17,11.57 Q17.311,11.57 17.53,11.79 Q17.75,12.009 17.75,12.32 Q17.75,12.631 17.53,12.85 Q17.311,13.07 17,13.07 L16.79,13.07 L16.79,13.76 Q16.79,14.071 16.57,14.29 Q16.351,14.51 16.04,14.51 Q15.729,14.51 15.51,14.29 Q15.29,14.071 15.29,13.76 Z M15.29,11.57 L15.29,8.634 Q14.574,9.805 13.538,11.57 L15.29,11.57 Z"/>
</svg>

