<svg xmlns="http://www.w3.org/2000/svg" width="24" height="24" viewBox="0 0 24 24">
  <defs/>
  <path fill="#292D32" opacity="0.4" d="M18,18.86 L17.24,18.86 C16.44,18.86 15.68,19.17 15.12,19.73 L13.41,21.42 C12.63,22.19 11.36,22.19 10.58,21.42 L8.87,19.73 C8.31,19.17 7.54,18.86 6.75,18.86 L6,18.86 C4.34,18.86 3,17.53 3,15.89 L3,4.98 C3,3.34 4.34,2.01 6,2.01 L18,2.01 C19.66,2.01 21,3.34 21,4.98 L21,15.89 C21,17.52 19.66,18.86 18,18.86 Z"/>
  <path fill="#292D32" d="M10.38,14.51 L7.7,14.51 C7.26,14.51 6.85,14.3 6.59,13.94 C6.34,13.6 6.28,13.18 6.4,12.78 C6.75,11.71 7.61,11.13 8.37,10.61 C9.17,10.07 9.62,9.73 9.62,9.15 C9.62,8.63 9.2,8.21 8.68,8.21 C8.16,8.21 7.74,8.63 7.74,9.15 C7.74,9.56 7.4,9.9 6.99,9.9 C6.58,9.9 6.24,9.56 6.24,9.15 C6.24,7.81 7.33,6.71 8.68,6.71 C10.03,6.71 11.12,7.8 11.12,9.15 C11.12,10.56 10.06,11.28 9.21,11.86 C8.68,12.22 8.18,12.56 7.93,13.01 L10.37,13.01 C10.78,13.01 11.12,13.35 11.12,13.76 C11.12,14.17 10.79,14.51 10.38,14.51 Z"/>
  <path fill="#292D32" d="M16.041,14.51 C15.631,14.51 15.291,14.17 15.291,13.76 L15.291,13.07 L13.331,13.07 C13.331,13.07 13.331,13.07 13.321,13.07 C12.831,13.07 12.381,12.81 12.131,12.39 C11.881,11.96 11.881,11.43 12.131,11.01 C12.811,9.84 13.601,8.51 14.321,7.35 C14.641,6.84 15.251,6.61 15.821,6.77 C16.391,6.94 16.791,7.46 16.781,8.06 L16.781,11.58 L17.001,11.58 C17.411,11.58 17.751,11.92 17.751,12.33 C17.751,12.74 17.411,13.08 17.001,13.08 L16.791,13.08 L16.791,13.77 C16.791,14.18 16.461,14.51 16.041,14.51 Z M15.291,8.64 C14.701,9.6 14.091,10.63 13.541,11.57 L15.291,11.57 L15.291,8.64 Z"/>
</svg>

