<svg xmlns="http://www.w3.org/2000/svg" width="24" height="24" viewBox="0 0 24 24">
  <defs/>
  <path fill="#292D32" d="M18,2 L6,2 C4.34,2 3,3.33 3,4.97 L3,15.88 C3,17.52 4.34,18.85 6,18.85 L6.76,18.85 C7.56,18.85 8.32,19.16 8.88,19.72 L10.59,21.41 C11.37,22.18 12.64,22.18 13.42,21.41 L15.13,19.72 C15.69,19.16 16.46,18.85 17.25,18.85 L18,18.85 C19.66,18.85 21,17.52 21,15.88 L21,4.97 C21,3.33 19.66,2 18,2 Z M10.38,13.01 C10.79,13.01 11.13,13.35 11.13,13.76 C11.13,14.17 10.79,14.51 10.38,14.51 L7.7,14.51 C7.26,14.51 6.85,14.3 6.59,13.94 C6.34,13.6 6.28,13.18 6.4,12.78 C6.75,11.71 7.61,11.13 8.37,10.61 C9.17,10.07 9.62,9.73 9.62,9.15 C9.62,8.63 9.2,8.21 8.68,8.21 C8.16,8.21 7.75,8.64 7.75,9.16 C7.75,9.57 7.41,9.91 7,9.91 C6.59,9.91 6.25,9.57 6.25,9.16 C6.25,7.82 7.34,6.72 8.69,6.72 C10.04,6.72 11.13,7.81 11.13,9.16 C11.13,10.57 10.07,11.29 9.22,11.87 C8.69,12.23 8.19,12.57 7.94,13.02 L10.38,13.02 L10.38,13.01 Z M17,13.08 L16.79,13.08 L16.79,13.77 C16.79,14.18 16.45,14.52 16.04,14.52 C15.63,14.52 15.29,14.18 15.29,13.77 L15.29,13.08 L13.33,13.08 C13.33,13.08 13.33,13.08 13.32,13.08 C12.83,13.08 12.38,12.82 12.13,12.4 C11.88,11.97 11.88,11.44 12.13,11.02 C12.81,9.85 13.6,8.52 14.32,7.36 C14.64,6.85 15.25,6.62 15.82,6.78 C16.39,6.95 16.79,7.47 16.78,8.07 L16.78,11.59 L17,11.59 C17.41,11.59 17.75,11.93 17.75,12.34 C17.75,12.75 17.41,13.08 17,13.08 Z"/>
  <path fill="#292D32" d="M15.289,11.581 L15.289,8.641 C14.699,9.601 14.089,10.631 13.539,11.571 L15.289,11.571 L15.289,11.581 Z"/>
</svg>

