<svg xmlns="http://www.w3.org/2000/svg" width="24" height="24" viewBox="0 0 24 24">
  <defs/>
  <path fill="#292D32" d="M12,22.75 C11.3,22.75 10.59,22.48 10.06,21.95 L8.35,20.26 C7.92,19.84 7.36,19.61 6.76,19.61 L6,19.61 C3.93,19.61 2.25,17.94 2.25,15.89 L2.25,4.98 C2.25,2.93 3.93,1.26 6,1.26 L18,1.26 C20.07,1.26 21.75,2.93 21.75,4.98 L21.75,15.89 C21.75,17.94 20.07,19.61 18,19.61 L17.24,19.61 C16.64,19.61 16.07,19.84 15.65,20.26 L13.94,21.95 C13.41,22.48 12.7,22.75 12,22.75 Z M6,2.75 C4.76,2.75 3.75,3.75 3.75,4.97 L3.75,15.88 C3.75,17.11 4.76,18.1 6,18.1 L6.76,18.1 C7.76,18.1 8.7,18.49 9.41,19.19 L11.12,20.88 C11.61,21.36 12.4,21.36 12.89,20.88 L14.6,19.19 C15.31,18.49 16.25,18.1 17.25,18.1 L18,18.1 C19.24,18.1 20.25,17.1 20.25,15.88 L20.25,4.97 C20.25,3.74 19.24,2.75 18,2.75 L6,2.75 Z"/>
  <path fill="#292D32" d="M10.38,14.51 L7.7,14.51 C7.26,14.51 6.85,14.3 6.59,13.94 C6.34,13.6 6.28,13.18 6.4,12.78 C6.75,11.71 7.61,11.13 8.37,10.61 C9.17,10.07 9.62,9.73 9.62,9.15 C9.62,8.63 9.2,8.21 8.68,8.21 C8.16,8.21 7.74,8.63 7.74,9.15 C7.74,9.56 7.4,9.9 6.99,9.9 C6.58,9.9 6.24,9.56 6.24,9.15 C6.24,7.81 7.33,6.71 8.68,6.71 C10.03,6.71 11.12,7.8 11.12,9.15 C11.12,10.56 10.06,11.28 9.21,11.86 C8.68,12.22 8.18,12.56 7.93,13.01 L10.37,13.01 C10.78,13.01 11.12,13.35 11.12,13.76 C11.12,14.17 10.79,14.51 10.38,14.51 Z"/>
  <path fill="#292D32" d="M16.039,14.51 C15.629,14.51 15.289,14.17 15.289,13.76 L15.289,13.07 L13.329,13.07 C13.329,13.07 13.329,13.07 13.319,13.07 C12.829,13.07 12.379,12.81 12.129,12.39 C11.879,11.96 11.879,11.43 12.129,11.01 C12.809,9.84 13.599,8.51 14.319,7.35 C14.639,6.84 15.249,6.61 15.819,6.77 C16.389,6.94 16.789,7.46 16.779,8.06 L16.779,11.58 L16.999,11.58 C17.409,11.58 17.749,11.92 17.749,12.33 C17.749,12.74 17.409,13.08 16.999,13.08 L16.789,13.08 L16.789,13.77 C16.789,14.18 16.459,14.51 16.039,14.51 Z M15.289,8.64 C14.699,9.6 14.089,10.63 13.539,11.57 L15.289,11.57 L15.289,8.64 Z"/>
</svg>

