<svg xmlns="http://www.w3.org/2000/svg" width="24" height="24" viewBox="0 0 24 24">
  <defs/>
  <path fill="#292D32" d="M22,9.75 C21.59,9.75 21.25,9.41 21.25,9 L21.25,7 C21.25,4.42 19.58,2.75 17,2.75 L7,2.75 C4.42,2.75 2.75,4.42 2.75,7 L2.75,9 C2.75,9.41 2.41,9.75 2,9.75 C1.59,9.75 1.25,9.41 1.25,9 L1.25,7 C1.25,3.56 3.56,1.25 7,1.25 L17,1.25 C20.44,1.25 22.75,3.56 22.75,7 L22.75,9 C22.75,9.41 22.41,9.75 22,9.75 Z"/>
  <path fill="#292D32" d="M17,22.75 L7,22.75 C3.56,22.75 1.25,20.44 1.25,17 L1.25,15 C1.25,14.59 1.59,14.25 2,14.25 C2.41,14.25 2.75,14.59 2.75,15 L2.75,17 C2.75,19.58 4.42,21.25 7,21.25 L17,21.25 C19.58,21.25 21.25,19.58 21.25,17 L21.25,15 C21.25,14.59 21.59,14.25 22,14.25 C22.41,14.25 22.75,14.59 22.75,15 L22.75,17 C22.75,20.44 20.44,22.75 17,22.75 Z"/>
  <path fill="#292D32" d="M12.001,13.08 C11.871,13.08 11.741,13.05 11.621,12.98 L6.321,9.92 C5.961,9.71 5.841,9.25 6.051,8.89 C6.261,8.53 6.721,8.41 7.071,8.62 L11.991,11.47 L16.881,8.64 C17.241,8.43 17.701,8.56 17.901,8.91 C18.111,9.27 17.981,9.73 17.631,9.94 L12.371,12.98 C12.261,13.04 12.131,13.08 12.001,13.08 Z"/>
  <path fill="#292D32" d="M12,18.52 C11.59,18.52 11.25,18.18 11.25,17.77 L11.25,12.33 C11.25,11.92 11.59,11.58 12,11.58 C12.41,11.58 12.75,11.92 12.75,12.33 L12.75,17.77 C12.75,18.18 12.41,18.52 12,18.52 Z"/>
  <path fill="#292D32" d="M12,18.75 C11.42,18.75 10.85,18.62 10.39,18.37 L7.19,16.59 C6.23,16.06 5.49,14.79 5.49,13.69 L5.49,10.3 C5.49,9.21 6.24,7.94 7.19,7.4 L10.39,5.62 C11.31,5.11 12.69,5.11 13.61,5.62 L16.81,7.4 C17.77,7.93 18.51,9.2 18.51,10.3 L18.51,13.69 C18.51,14.78 17.76,16.05 16.81,16.59 L13.61,18.37 C13.15,18.62 12.58,18.75 12,18.75 Z M11.12,6.94 L7.92,8.72 C7.43,8.99 6.99,9.75 6.99,10.3 L6.99,13.69 C6.99,14.25 7.43,15 7.92,15.27 L11.12,17.05 C11.58,17.3 12.42,17.3 12.88,17.05 L16.08,15.27 C16.57,15 17.01,14.24 17.01,13.69 L17.01,10.3 C17.01,9.74 16.57,8.99 16.08,8.72 L12.88,6.94 C12.42,6.69 11.58,6.69 11.12,6.94 Z"/>
</svg>

