<svg xmlns="http://www.w3.org/2000/svg" width="24" height="24" viewBox="0 0 24 24">
  <defs/>
  <path fill="#292D32" d="M1.25,9 L1.25,7 Q1.25,1.25 7,1.25 L17,1.25 Q22.75,1.25 22.75,7 L22.75,9 Q22.75,9.311 22.53,9.53 Q22.311,9.75 22,9.75 Q21.689,9.75 21.47,9.53 Q21.25,9.311 21.25,9 L21.25,7 Q21.25,2.75 17,2.75 L7,2.75 Q2.75,2.75 2.75,7 L2.75,9 Q2.75,9.311 2.53,9.53 Q2.311,9.75 2,9.75 Q1.689,9.75 1.47,9.53 Q1.25,9.311 1.25,9 Z"/>
  <path fill="#292D32" d="M2.75,15 L2.75,17 Q2.75,21.25 7,21.25 L17,21.25 Q21.25,21.25 21.25,17 L21.25,15 Q21.25,14.689 21.47,14.47 Q21.689,14.25 22,14.25 Q22.311,14.25 22.53,14.47 Q22.75,14.689 22.75,15 L22.75,17 Q22.75,22.75 17,22.75 L7,22.75 Q1.25,22.75 1.25,17 L1.25,15 Q1.25,14.689 1.47,14.47 Q1.689,14.25 2,14.25 Q2.311,14.25 2.53,14.47 Q2.75,14.689 2.75,15 Z"/>
  <path fill="#292D32" d="M7.076,8.611 L12,11.463 L16.884,8.631 Q17.152,8.475 17.453,8.555 Q17.753,8.635 17.909,8.904 Q18.065,9.173 17.985,9.473 Q17.905,9.773 17.636,9.929 L12.376,12.979 Q12,13.197 11.624,12.979 L6.324,9.909 Q6.055,9.753 5.975,9.453 Q5.895,9.153 6.051,8.884 Q6.207,8.615 6.507,8.535 Q6.807,8.455 7.076,8.611 Z"/>
  <path fill="#292D32" d="M11.25,17.77 L11.25,12.32 Q11.25,12.009 11.47,11.79 Q11.689,11.57 12,11.57 Q12.311,11.57 12.53,11.79 Q12.75,12.009 12.75,12.32 L12.75,17.77 Q12.75,18.081 12.53,18.3 Q12.311,18.52 12,18.52 Q11.689,18.52 11.47,18.3 Q11.25,18.081 11.25,17.77 Z"/>
  <path fill="#292D32" d="M10.391,5.637 Q11.995,4.719 13.615,5.635 L16.81,7.412 Q18.52,8.349 18.52,10.31 L18.52,13.7 Q18.52,15.648 16.815,16.596 L13.612,18.377 Q11.993,19.268 10.395,18.376 L7.2,16.598 Q5.49,15.661 5.49,13.7 L5.49,10.31 Q5.49,8.362 7.195,7.415 L10.391,5.637 Z M11.125,6.945 L7.925,8.726 Q6.99,9.245 6.99,10.31 L6.99,13.7 Q6.99,14.773 7.92,15.282 L11.125,17.065 Q11.999,17.553 12.888,17.063 L16.085,15.285 Q17.02,14.765 17.02,13.7 L17.02,10.31 Q17.02,9.238 16.09,8.728 L12.885,6.945 Q11.999,6.444 11.133,6.941 Z"/>
</svg>

