<svg xmlns="http://www.w3.org/2000/svg" width="24" height="24" viewBox="0 0 24 24">
  <defs/>
  <path fill="#292D32" d="M17,1.25 Q22.75,1.25 22.75,7 L22.75,9 Q22.75,9.311 22.53,9.53 Q22.311,9.75 22,9.75 Q21.689,9.75 21.47,9.53 Q21.25,9.311 21.25,9 L21.25,7 Q21.25,2.75 17,2.75 Q16.689,2.75 16.47,2.53 Q16.25,2.311 16.25,2 Q16.25,1.689 16.47,1.47 Q16.689,1.25 17,1.25 Z"/>
  <path fill="#292D32" d="M1.25,9 L1.25,7 Q1.25,1.25 7,1.25 L12.77,1.25 Q13.081,1.25 13.3,1.47 Q13.52,1.689 13.52,2 Q13.52,2.311 13.3,2.53 Q13.081,2.75 12.77,2.75 L7,2.75 Q2.75,2.75 2.75,7 L2.75,9 Q2.75,9.311 2.53,9.53 Q2.311,9.75 2,9.75 Q1.689,9.75 1.47,9.53 Q1.25,9.311 1.25,9 Z"/>
  <path fill="#292D32" d="M22.751,15 L22.751,17 Q22.751,19.561 21.156,21.155 Q19.561,22.75 17.001,22.75 L11.471,22.75 Q11.16,22.75 10.94,22.53 Q10.721,22.311 10.721,22 Q10.721,21.689 10.94,21.47 Q11.16,21.25 11.471,21.25 L17.001,21.25 Q18.94,21.25 20.095,20.095 Q21.251,18.939 21.251,17 L21.251,15 Q21.251,14.689 21.47,14.47 Q21.69,14.25 22.001,14.25 Q22.311,14.25 22.531,14.47 Q22.751,14.689 22.751,15 Z"/>
  <path fill="#292D32" d="M2.75,15 L2.75,17 Q2.75,21.25 7,21.25 Q7.311,21.25 7.53,21.47 Q7.75,21.689 7.75,22 Q7.75,22.311 7.53,22.53 Q7.311,22.75 7,22.75 Q1.25,22.75 1.25,17 L1.25,15 Q1.25,14.689 1.47,14.47 Q1.689,14.25 2,14.25 Q2.311,14.25 2.53,14.47 Q2.75,14.689 2.75,15 Z"/>
  <path fill="#292D32" d="M7.075,8.611 L11.999,11.463 L16.883,8.631 Q17.152,8.475 17.452,8.555 Q17.752,8.635 17.908,8.904 Q18.064,9.173 17.984,9.473 Q17.904,9.773 17.635,9.929 L12.375,12.979 Q11.999,13.197 11.623,12.979 L6.323,9.909 Q6.054,9.753 5.975,9.453 Q5.895,9.153 6.05,8.884 Q6.206,8.615 6.506,8.535 Q6.806,8.455 7.075,8.611 Z"/>
  <path fill="#292D32" d="M11.25,17.77 L11.25,12.32 Q11.25,12.009 11.47,11.79 Q11.689,11.57 12,11.57 Q12.311,11.57 12.53,11.79 Q12.75,12.009 12.75,12.32 L12.75,17.77 Q12.75,18.081 12.53,18.3 Q12.311,18.52 12,18.52 Q11.689,18.52 11.47,18.3 Q11.25,18.081 11.25,17.77 Z"/>
  <path fill="#292D32" d="M10.392,5.637 Q11.996,4.719 13.615,5.635 L16.811,7.412 Q18.52,8.349 18.52,10.31 L18.52,13.7 Q18.52,15.648 16.815,16.596 L13.612,18.377 Q11.993,19.268 10.396,18.376 L7.2,16.598 Q5.49,15.661 5.49,13.7 L5.49,10.31 Q5.49,8.362 7.196,7.415 L10.392,5.637 Z M11.125,6.945 L7.925,8.726 Q6.99,9.245 6.99,10.31 L6.99,13.7 Q6.99,14.773 7.921,15.282 L11.125,17.065 Q11.999,17.553 12.888,17.063 L16.086,15.285 Q17.02,14.765 17.02,13.7 L17.02,10.31 Q17.02,9.238 16.09,8.728 L12.886,6.945 Q11.999,6.444 11.133,6.941 Z"/>
</svg>

