<svg xmlns="http://www.w3.org/2000/svg" width="24" height="24" viewBox="0 0 24 24">
  <defs/>
  <path fill="#292D32" d="M7.578,2.912 C4.809,3.554 2.75,6.033 2.75,9 C2.75,9.414 2.414,9.75 2,9.75 C1.586,9.75 1.25,9.414 1.25,9 C1.25,4.716 4.716,1.25 9,1.25 C9.27,1.25 9.52,1.395 9.653,1.63 C9.786,1.866 9.782,2.154 9.643,2.386 L8.593,4.136 C8.38,4.491 7.919,4.606 7.564,4.393 C7.209,4.18 7.094,3.719 7.307,3.364 Z M22,14.25 C22.414,14.25 22.75,14.586 22.75,15 C22.75,19.284 19.284,22.75 15,22.75 C14.73,22.75 14.481,22.605 14.347,22.369 C14.214,22.134 14.218,21.846 14.357,21.614 L15.407,19.864 C15.62,19.509 16.081,19.394 16.436,19.607 C16.791,19.82 16.906,20.281 16.693,20.636 L16.422,21.088 C19.191,20.446 21.25,17.967 21.25,15 C21.25,14.586 21.586,14.25 22,14.25 Z"/>
  <path fill="#292D32" d="M16.4,8.21 L12.64,6.18 C12.24,5.97 11.77,5.97 11.37,6.18 L7.61,8.21 C7.34,8.36 7.17,8.65 7.17,8.98 C7.17,9.31 7.34,9.6 7.61,9.75 L11.37,11.78 C11.57,11.89 11.79,11.94 12.01,11.94 C12.23,11.94 12.45,11.89 12.65,11.78 L16.41,9.75 C16.68,9.6 16.85,9.31 16.85,8.98 C16.84,8.65 16.67,8.36 16.4,8.21 Z"/>
  <path fill="#292D32" opacity="0.4" d="M10.74,12.47 L7.24,10.72 C6.97,10.59 6.66,10.6 6.4,10.76 C6.14,10.92 5.99,11.19 5.99,11.49 L5.99,14.8 C5.99,15.37 6.31,15.89 6.82,16.14 L10.32,17.89 C10.44,17.95 10.57,17.98 10.71,17.98 C10.87,17.98 11.02,17.94 11.16,17.85 C11.42,17.69 11.57,17.42 11.57,17.12 L11.57,13.81 C11.57,13.24 11.26,12.73 10.74,12.47 Z"/>
  <path fill="#292D32" opacity="0.4" d="M17.59,10.76 C17.33,10.6 17.02,10.59 16.75,10.72 L13.25,12.47 C12.74,12.73 12.42,13.24 12.42,13.81 L12.42,17.12 C12.42,17.42 12.57,17.69 12.83,17.85 C12.97,17.94 13.12,17.98 13.28,17.98 C13.41,17.98 13.54,17.95 13.67,17.89 L17.17,16.14 C17.68,15.88 18,15.37 18,14.8 L18,11.49 C18,11.19 17.85,10.92 17.59,10.76 Z"/>
</svg>

