<svg xmlns="http://www.w3.org/2000/svg" width="24" height="24" viewBox="0 0 24 24">
  <defs/>
  <path fill="#292D32" d="M7.077,8.611 L12.001,11.463 L16.885,8.631 Q17.154,8.475 17.454,8.555 Q17.754,8.635 17.91,8.904 Q18.066,9.173 17.986,9.473 Q17.906,9.773 17.637,9.929 L12.377,12.979 Q12.001,13.197 11.625,12.979 L6.325,9.909 Q6.056,9.753 5.976,9.453 Q5.896,9.153 6.052,8.884 Q6.208,8.615 6.508,8.535 Q6.808,8.455 7.077,8.611 Z"/>
  <path fill="#292D32" d="M11.252,17.77 L11.252,12.32 Q11.252,12.009 11.472,11.79 Q11.691,11.57 12.002,11.57 Q12.313,11.57 12.532,11.79 Q12.752,12.009 12.752,12.32 L12.752,17.77 Q12.752,18.081 12.532,18.3 Q12.313,18.52 12.002,18.52 Q11.691,18.52 11.472,18.3 Q11.252,18.081 11.252,17.77 Z"/>
  <path fill="#292D32" d="M5.48,10.3 Q5.48,8.339 7.19,7.402 L10.386,5.625 Q11.984,4.732 13.602,5.623 L16.805,7.405 Q18.51,8.352 18.51,10.3 L18.51,13.69 Q18.51,15.651 16.801,16.588 L13.605,18.366 Q12.007,19.258 10.389,18.367 L7.186,16.586 Q6.461,16.183 5.973,15.349 Q5.816,15.081 5.895,14.78 Q5.973,14.48 6.242,14.323 Q6.51,14.166 6.81,14.245 Q7.111,14.323 7.268,14.591 Q7.549,15.071 7.915,15.275 L11.112,17.053 Q12.002,17.543 12.876,17.055 L16.08,15.272 Q17.01,14.763 17.01,13.69 L17.01,10.3 Q17.01,9.235 16.076,8.716 L12.879,6.937 Q11.989,6.447 11.115,6.936 L7.911,8.718 Q6.98,9.228 6.98,10.3 Q6.98,10.611 6.761,10.83 Q6.541,11.05 6.23,11.05 Q5.92,11.05 5.7,10.83 Q5.48,10.611 5.48,10.3 Z"/>
  <path fill="#292D32" d="M22.75,15 Q22.75,18.213 20.482,20.482 Q18.213,22.75 15,22.75 Q14.689,22.75 14.47,22.53 Q14.25,22.311 14.25,22 Q14.25,21.792 14.357,21.614 L15.407,19.864 Q15.567,19.598 15.868,19.522 Q16.169,19.447 16.436,19.607 Q16.702,19.767 16.778,20.068 Q16.853,20.369 16.693,20.636 L16.414,21.102 Q18.112,20.729 19.421,19.421 Q21.25,17.592 21.25,15 Q21.25,14.689 21.47,14.47 Q21.689,14.25 22,14.25 Q22.311,14.25 22.53,14.47 Q22.75,14.689 22.75,15 Z"/>
  <path fill="#292D32" d="M1.25,9 Q1.25,5.787 3.518,3.518 Q5.787,1.25 9,1.25 Q9.311,1.25 9.53,1.47 Q9.75,1.689 9.75,2 Q9.75,2.208 9.643,2.386 L8.593,4.136 Q8.433,4.402 8.132,4.478 Q7.831,4.553 7.564,4.393 Q7.298,4.233 7.222,3.932 Q7.147,3.631 7.307,3.364 L7.586,2.898 Q5.888,3.271 4.579,4.579 Q2.75,6.408 2.75,9 Q2.75,9.311 2.53,9.53 Q2.311,9.75 2,9.75 Q1.689,9.75 1.47,9.53 Q1.25,9.311 1.25,9 Z"/>
</svg>

