<svg xmlns="http://www.w3.org/2000/svg" width="24" height="24" viewBox="0 0 24 24">
  <defs/>
  <path fill="#292D32" d="M12.001,13.08 C11.871,13.08 11.741,13.05 11.621,12.98 L6.321,9.92 C5.961,9.71 5.841,9.25 6.051,8.9 C6.261,8.54 6.711,8.42 7.081,8.63 L12.001,11.48 L16.891,8.65 C17.251,8.44 17.711,8.57 17.921,8.92 C18.131,9.28 18.001,9.74 17.651,9.94 L12.391,12.98 C12.261,13.04 12.131,13.08 12.001,13.08 Z"/>
  <path fill="#292D32" d="M12,18.52 C11.59,18.52 11.25,18.18 11.25,17.77 L11.25,12.33 C11.25,11.92 11.59,11.58 12,11.58 C12.41,11.58 12.75,11.92 12.75,12.33 L12.75,17.77 C12.75,18.18 12.41,18.52 12,18.52 Z"/>
  <path fill="#292D32" d="M12,18.75 C11.42,18.75 10.85,18.62 10.39,18.37 L7.19,16.59 C6.23,16.06 5.49,14.79 5.49,13.69 L5.49,10.3 C5.49,9.21 6.24,7.93 7.19,7.4 L10.39,5.62 C11.31,5.11 12.69,5.11 13.61,5.62 L16.81,7.4 C17.77,7.93 18.51,9.2 18.51,10.3 L18.51,13.69 C18.51,14.78 17.76,16.06 16.81,16.59 L13.61,18.37 C13.15,18.62 12.58,18.75 12,18.75 Z M12,6.75 C11.67,6.75 11.35,6.81 11.12,6.94 L7.92,8.72 C7.43,8.99 6.99,9.75 6.99,10.3 L6.99,13.69 C6.99,14.25 7.43,15 7.92,15.27 L11.12,17.05 C11.58,17.31 12.42,17.31 12.88,17.05 L16.08,15.27 C16.57,15 17.01,14.24 17.01,13.69 L17.01,10.3 C17.01,9.74 16.57,8.99 16.08,8.72 L12.88,6.94 C12.65,6.81 12.33,6.75 12,6.75 Z"/>
  <path fill="#292D32" d="M15,22.75 C14.73,22.75 14.48,22.6 14.35,22.37 C14.22,22.13 14.22,21.85 14.36,21.61 L15.41,19.86 C15.62,19.51 16.08,19.39 16.44,19.6 C16.8,19.81 16.91,20.27 16.7,20.63 L16.43,21.08 C19.19,20.43 21.26,17.95 21.26,14.99 C21.26,14.58 21.6,14.24 22.01,14.24 C22.42,14.24 22.76,14.58 22.76,14.99 C22.75,19.27 19.27,22.75 15,22.75 Z"/>
  <path fill="#292D32" d="M2,9.75 C1.59,9.75 1.25,9.41 1.25,9 C1.25,4.73 4.73,1.25 9,1.25 C9.27,1.25 9.52,1.4 9.65,1.63 C9.78,1.87 9.78,2.15 9.64,2.39 L8.59,4.14 C8.38,4.49 7.92,4.61 7.56,4.4 C7.2,4.19 7.09,3.73 7.3,3.37 L7.57,2.92 C4.81,3.57 2.74,6.05 2.74,9.01 C2.75,9.41 2.41,9.75 2,9.75 Z"/>
</svg>

