<svg xmlns="http://www.w3.org/2000/svg" width="24" height="24" viewBox="0 0 24 24">
  <defs/>
  <path fill="#292D32" d="M15,22.748 C14.73,22.748 14.48,22.598 14.35,22.368 C14.22,22.128 14.22,21.848 14.36,21.608 L15.41,19.858 C15.62,19.508 16.08,19.388 16.44,19.598 C16.8,19.808 16.91,20.268 16.7,20.628 L16.43,21.078 C19.19,20.428 21.26,17.948 21.26,14.988 C21.26,14.578 21.6,14.238 22.01,14.238 C22.42,14.238 22.76,14.578 22.76,14.988 C22.75,19.268 19.27,22.748 15,22.748 Z"/>
  <path fill="#292D32" d="M2,9.75 C1.59,9.75 1.25,9.41 1.25,9 C1.25,4.73 4.73,1.25 9,1.25 C9.27,1.25 9.52,1.4 9.65,1.63 C9.78,1.87 9.78,2.15 9.64,2.39 L8.59,4.14 C8.38,4.49 7.92,4.61 7.56,4.39 C7.21,4.18 7.09,3.72 7.31,3.36 L7.58,2.91 C4.81,3.56 2.75,6.04 2.75,9 C2.75,9.41 2.41,9.75 2,9.75 Z"/>
  <path fill="#292D32" d="M16.4,8.211 L12.64,6.181 C12.24,5.971 11.77,5.971 11.37,6.181 L7.6,8.211 C7.33,8.361 7.16,8.651 7.16,8.971 C7.16,9.301 7.33,9.591 7.6,9.741 L11.36,11.771 C11.56,11.881 11.78,11.931 12,11.931 C12.22,11.931 12.44,11.881 12.64,11.771 L16.4,9.741 C16.67,9.591 16.84,9.301 16.84,8.971 C16.84,8.651 16.67,8.361 16.4,8.211 Z"/>
  <path fill="#292D32" d="M10.74,12.469 L7.24,10.719 C6.97,10.588 6.66,10.598 6.4,10.758 C6.15,10.918 6,11.188 6,11.489 L6,14.799 C6,15.368 6.32,15.889 6.83,16.139 L10.33,17.889 C10.45,17.948 10.58,17.979 10.72,17.979 C10.88,17.979 11.03,17.939 11.17,17.849 C11.43,17.689 11.58,17.419 11.58,17.119 L11.58,13.809 C11.57,13.239 11.26,12.729 10.74,12.469 Z"/>
  <path fill="#292D32" d="M17.592,10.758 C17.332,10.598 17.022,10.588 16.752,10.719 L13.252,12.469 C12.742,12.729 12.422,13.239 12.422,13.809 L12.422,17.119 C12.422,17.419 12.572,17.689 12.832,17.849 C12.972,17.939 13.122,17.979 13.282,17.979 C13.412,17.979 13.542,17.948 13.672,17.889 L17.172,16.139 C17.682,15.879 18.002,15.368 18.002,14.799 L18.002,11.489 C18.002,11.188 17.852,10.918 17.592,10.758 Z"/>
</svg>

