<svg xmlns="http://www.w3.org/2000/svg" width="24" height="24" viewBox="0 0 24 24">
  <defs/>
  <path fill="#292D32" opacity="0.4" d="M16.19,2.33 L7.82,2.33 C4.18,2.33 2.01,4.5 2.01,8.14 L2.01,16.51 C2.01,20.15 4.18,22.32 7.82,22.32 L16.19,22.32 C19.83,22.32 22,20.15 22,16.51 L22,8.15 C22,4.51 19.83,2.33 16.19,2.33 Z"/>
  <path fill="#292D32" d="M16.4,8.21 L12.64,6.18 C12.24,5.97 11.77,5.97 11.37,6.18 L7.61,8.21 C7.34,8.36 7.17,8.65 7.17,8.98 C7.17,9.31 7.34,9.6 7.61,9.75 L11.37,11.78 C11.57,11.89 11.79,11.94 12.01,11.94 C12.23,11.94 12.45,11.89 12.65,11.78 L16.41,9.75 C16.68,9.6 16.85,9.31 16.85,8.98 C16.84,8.65 16.67,8.36 16.4,8.21 Z"/>
  <path fill="#292D32" d="M10.74,12.47 L7.24,10.72 C6.97,10.59 6.66,10.6 6.4,10.76 C6.14,10.92 5.99,11.19 5.99,11.49 L5.99,14.8 C5.99,15.37 6.31,15.89 6.82,16.14 L10.32,17.89 C10.44,17.95 10.57,17.98 10.71,17.98 C10.87,17.98 11.02,17.94 11.16,17.85 C11.42,17.69 11.57,17.42 11.57,17.12 L11.57,13.81 C11.57,13.24 11.26,12.73 10.74,12.47 Z"/>
  <path fill="#292D32" d="M17.59,10.76 C17.33,10.6 17.02,10.59 16.75,10.72 L13.25,12.47 C12.74,12.73 12.42,13.24 12.42,13.81 L12.42,17.12 C12.42,17.42 12.57,17.69 12.83,17.85 C12.97,17.94 13.12,17.98 13.28,17.98 C13.41,17.98 13.54,17.95 13.67,17.89 L17.17,16.14 C17.68,15.88 18,15.37 18,14.8 L18,11.49 C18,11.19 17.85,10.92 17.59,10.76 Z"/>
</svg>

