<svg xmlns="http://www.w3.org/2000/svg" width="24" height="24" viewBox="0 0 24 24">
  <defs/>
  <path fill="#292D32" d="M2.75,14 L2.75,15 Q2.75,18.439 4.155,19.845 Q5.561,21.25 9,21.25 L15,21.25 Q18.439,21.25 19.845,19.845 Q21.25,18.439 21.25,15 L21.25,9 Q21.25,2.75 15,2.75 L9,2.75 Q2.75,2.75 2.75,9 Q2.75,9.311 2.53,9.53 Q2.311,9.75 2,9.75 Q1.689,9.75 1.47,9.53 Q1.25,9.311 1.25,9 Q1.25,1.25 9,1.25 L15,1.25 Q22.75,1.25 22.75,9 L22.75,15 Q22.75,22.75 15,22.75 L9,22.75 Q1.25,22.75 1.25,15 L1.25,14 Q1.25,13.689 1.47,13.47 Q1.689,13.25 2,13.25 Q2.311,13.25 2.53,13.47 Q2.75,13.689 2.75,14 Z"/>
  <path fill="#292D32" d="M7.077,8.611 L12.001,11.463 L16.885,8.631 Q17.154,8.475 17.454,8.555 Q17.754,8.635 17.91,8.904 Q18.066,9.173 17.986,9.473 Q17.906,9.773 17.637,9.929 L12.377,12.979 Q12.001,13.197 11.625,12.979 L6.325,9.909 Q6.056,9.753 5.976,9.453 Q5.896,9.153 6.052,8.884 Q6.208,8.615 6.508,8.535 Q6.808,8.455 7.077,8.611 Z"/>
  <path fill="#292D32" d="M11.252,17.77 L11.252,12.32 Q11.252,12.009 11.472,11.79 Q11.691,11.57 12.002,11.57 Q12.313,11.57 12.532,11.79 Q12.752,12.009 12.752,12.32 L12.752,17.77 Q12.752,18.081 12.532,18.3 Q12.313,18.52 12.002,18.52 Q11.691,18.52 11.472,18.3 Q11.252,18.081 11.252,17.77 Z"/>
  <path fill="#292D32" d="M10.392,5.637 Q11.984,4.726 13.615,5.625 L16.811,7.402 Q18.52,8.339 18.52,10.3 L18.52,13.7 Q18.52,15.648 16.815,16.596 L13.612,18.377 Q11.994,19.268 10.396,18.376 L7.2,16.598 Q5.49,15.661 5.49,13.7 L5.49,10.31 Q5.49,8.362 7.196,7.415 L10.392,5.637 Z M11.125,6.946 L7.925,8.726 Q6.99,9.245 6.99,10.31 L6.99,13.7 Q6.99,14.773 7.921,15.282 L11.125,17.065 Q11.999,17.553 12.888,17.063 L16.086,15.285 Q17.02,14.766 17.02,13.7 L17.02,10.3 Q17.02,9.228 16.09,8.718 L12.886,6.936 Q11.996,6.446 11.133,6.941 Z"/>
</svg>

