<svg xmlns="http://www.w3.org/2000/svg" width="24" height="24" viewBox="0 0 24 24">
  <defs/>
  <path fill="#292D32" d="M16.19,2.328 L7.81,2.328 C4.17,2.328 2,4.508 2,8.148 L2,16.518 C2,20.158 4.17,22.328 7.81,22.328 L16.18,22.328 C19.82,22.328 21.99,20.158 21.99,16.518 L21.99,8.148 C22,4.508 19.83,2.328 16.19,2.328 Z M11.57,17.118 C11.57,17.418 11.42,17.688 11.16,17.848 C11.02,17.938 10.87,17.978 10.71,17.978 C10.58,17.978 10.45,17.948 10.32,17.888 L6.82,16.138 C6.32,15.878 6,15.368 6,14.798 L6,11.488 C6,11.188 6.15,10.918 6.41,10.758 C6.67,10.598 6.98,10.588 7.25,10.718 L10.75,12.468 C11.26,12.728 11.58,13.238 11.58,13.808 L11.58,17.118 L11.57,17.118 Z M11.36,11.768 L7.6,9.738 C7.33,9.588 7.16,9.298 7.16,8.968 C7.16,8.648 7.33,8.348 7.6,8.198 L11.36,6.168 C11.76,5.958 12.23,5.958 12.63,6.168 L16.39,8.198 C16.66,8.348 16.83,8.638 16.83,8.968 C16.83,9.298 16.66,9.588 16.39,9.738 L12.63,11.768 C12.43,11.878 12.21,11.928 11.99,11.928 C11.77,11.928 11.56,11.878 11.36,11.768 Z M18,14.798 C18,15.368 17.68,15.888 17.17,16.138 L13.67,17.888 C13.55,17.948 13.42,17.978 13.28,17.978 C13.12,17.978 12.97,17.938 12.83,17.848 C12.57,17.688 12.42,17.418 12.42,17.118 L12.42,13.808 C12.42,13.238 12.74,12.718 13.25,12.468 L16.75,10.718 C17.02,10.588 17.33,10.598 17.59,10.758 C17.85,10.918 18,11.188 18,11.488 L18,14.798 Z"/>
</svg>

