<svg xmlns="http://www.w3.org/2000/svg" width="24" height="24" viewBox="0 0 24 24">
  <defs/>
  <path fill="#292D32" d="M13.276,1.6 L19.786,5.11 Q20.75,5.63 20.75,6.765 Q20.75,7.9 19.786,8.42 L13.276,11.93 Q12,12.612 10.726,11.931 L4.214,8.42 Q3.25,7.9 3.25,6.765 Q3.25,5.63 4.214,5.11 L10.724,1.6 Q12,0.918 13.274,1.598 Z M12.566,2.921 Q12.565,2.921 12.564,2.92 Q11.999,2.619 11.436,2.92 L4.926,6.43 Q4.75,6.525 4.75,6.765 Q4.75,7.005 4.926,7.1 L11.434,10.608 Q12,10.911 12.564,10.61 L19.074,7.1 Q19.25,7.005 19.25,6.765 Q19.25,6.525 19.074,6.43 Z"/>
  <path fill="#292D32" opacity="0.4" d="M3.946,9.46 L9.996,12.49 Q11.64,13.323 11.64,15.15 L11.64,20.87 Q11.64,21.912 10.754,22.455 Q9.873,22.995 8.945,22.531 L2.894,19.501 Q1.25,18.668 1.25,16.84 L1.25,11.12 Q1.25,10.079 2.136,9.536 Q3.017,8.995 3.945,9.459 Z M3.275,10.801 L3.274,10.801 Q3.091,10.709 2.919,10.815 Q2.75,10.918 2.75,11.12 L2.75,16.84 Q2.75,17.746 3.566,18.16 L9.615,21.189 Q9.799,21.281 9.971,21.176 Q10.14,21.072 10.14,20.87 L10.14,15.15 Q10.14,14.244 9.324,13.831 Z"/>
  <path fill="#292D32" opacity="0.4" d="M20.054,9.459 Q20.982,8.995 21.864,9.536 Q22.749,10.079 22.749,11.12 L22.749,16.84 Q22.749,18.668 21.105,19.501 L15.055,22.531 Q14.127,22.995 13.245,22.455 Q12.359,21.912 12.359,20.87 L12.359,15.15 Q12.359,13.323 14.004,12.49 L20.054,9.46 Z M20.725,10.801 L14.675,13.831 Q13.859,14.244 13.859,15.15 L13.859,20.87 Q13.859,21.072 14.029,21.176 Q14.201,21.281 14.384,21.189 L20.434,18.16 Q21.249,17.746 21.249,16.84 L21.249,11.12 Q21.249,10.918 21.08,10.815 Q20.908,10.709 20.725,10.801 Z"/>
</svg>

