<svg xmlns="http://www.w3.org/2000/svg" width="24" height="24" viewBox="0 0 24 24">
  <defs/>
  <path fill="#292D32" d="M12,12.25 C11.56,12.25 11.12,12.14 10.72,11.93 L4.21,8.42 C3.62,8.1 3.25,7.47 3.25,6.77 C3.25,6.07 3.62,5.44 4.21,5.12 L10.72,1.61 C11.52,1.18 12.48,1.18 13.27,1.61 L19.78,5.12 C20.37,5.44 20.74,6.07 20.74,6.77 C20.74,7.47 20.37,8.1 19.78,8.42 L13.27,11.93 C12.88,12.15 12.44,12.25 12,12.25 Z M12,2.78 C11.81,2.78 11.61,2.83 11.43,2.93 L4.93,6.43 C4.76,6.52 4.75,6.71 4.75,6.77 C4.75,6.83 4.76,7.02 4.93,7.1 L11.44,10.61 C11.8,10.8 12.21,10.8 12.57,10.61 L19.08,7.1 C19.24,7.01 19.26,6.82 19.26,6.77 C19.26,6.71 19.25,6.52 19.08,6.44 L12.57,2.93 C12.39,2.83 12.19,2.78 12,2.78 Z"/>
  <path fill="#292D32" d="M9.78,22.72 C9.5,22.72 9.21,22.65 8.95,22.52 L2.89,19.5 C1.88,18.99 1.25,17.97 1.25,16.84 L1.25,11.12 C1.25,10.47 1.58,9.88 2.13,9.54 C2.69,9.2 3.36,9.17 3.94,9.46 L10,12.48 C11.01,12.99 11.64,14 11.64,15.14 L11.64,20.86 C11.64,21.51 11.31,22.1 10.76,22.44 C10.46,22.63 10.12,22.72 9.78,22.72 Z M3.11,10.76 C3.03,10.76 2.96,10.79 2.92,10.81 C2.86,10.85 2.75,10.94 2.75,11.12 L2.75,16.84 C2.75,17.4 3.06,17.91 3.56,18.16 L9.61,21.19 C9.77,21.27 9.9,21.21 9.96,21.18 C10.02,21.14 10.13,21.05 10.13,20.87 L10.13,15.15 C10.13,14.59 9.82,14.08 9.32,13.83 L3.27,10.8 C3.21,10.77 3.16,10.76 3.11,10.76 Z"/>
  <path fill="#292D32" d="M14.219,22.72 C13.879,22.72 13.539,22.63 13.239,22.44 C12.689,22.1 12.359,21.51 12.359,20.86 L12.359,15.14 C12.359,14.01 12.989,12.99 13.999,12.48 L20.049,9.45 C20.629,9.16 21.309,9.19 21.859,9.53 C22.409,9.87 22.739,10.46 22.739,11.11 L22.739,16.83 C22.739,17.96 22.109,18.98 21.099,19.49 L15.049,22.52 C14.789,22.66 14.499,22.72 14.219,22.72 Z M20.889,10.76 C20.839,10.76 20.789,10.77 20.729,10.8 L14.679,13.83 C14.179,14.08 13.869,14.58 13.869,15.15 L13.869,20.87 C13.869,21.05 13.979,21.14 14.039,21.18 C14.099,21.22 14.229,21.27 14.389,21.19 L20.439,18.16 C20.939,17.91 21.249,17.4 21.249,16.84 L21.249,11.12 C21.249,10.94 21.139,10.85 21.079,10.81 C21.039,10.79 20.969,10.76 20.889,10.76 Z"/>
</svg>

