<svg xmlns="http://www.w3.org/2000/svg" width="24" height="24" viewBox="0 0 24 24">
  <defs/>
  <path fill="#292D32" d="M19.074,7.1 Q19.25,7.005 19.25,6.765 Q19.25,6.525 19.074,6.43 L12.564,2.92 Q12,2.619 11.434,2.922 L4.926,6.43 Q4.75,6.525 4.75,6.765 Q4.75,7.005 4.926,7.1 L11.436,10.61 Q12,10.911 12.566,10.609 L14.904,9.35 Q15.178,9.202 15.476,9.292 Q15.773,9.381 15.92,9.655 Q16.068,9.928 15.978,10.226 Q15.889,10.523 15.616,10.67 L13.274,11.932 Q12,12.612 10.724,11.93 L4.214,8.42 Q3.25,7.9 3.25,6.765 Q3.25,5.63 4.214,5.11 L10.726,1.599 Q12,0.918 13.276,1.6 L19.786,5.11 Q20.75,5.63 20.75,6.765 Q20.75,7.9 19.786,8.42 Q19.513,8.568 19.215,8.479 Q18.917,8.39 18.77,8.116 Q18.622,7.843 18.711,7.545 Q18.8,7.248 19.074,7.1 Z"/>
  <path fill="#292D32" d="M1.25,11.12 Q1.25,10.078 2.136,9.535 Q3.017,8.995 3.945,9.459 L9.996,12.489 Q11.64,13.322 11.64,15.15 L11.64,20.87 Q11.64,21.912 10.754,22.454 Q9.873,22.995 8.945,22.531 L2.894,19.5 Q1.25,18.667 1.25,16.84 L1.25,14.96 Q1.25,14.649 1.47,14.43 Q1.689,14.21 2,14.21 Q2.311,14.21 2.53,14.43 Q2.75,14.649 2.75,14.96 L2.75,16.84 Q2.75,17.746 3.566,18.159 L9.615,21.189 Q9.799,21.281 9.971,21.175 Q10.14,21.072 10.14,20.87 L10.14,15.15 Q10.14,14.244 9.324,13.83 L3.275,10.801 Q3.091,10.709 2.919,10.814 Q2.75,10.918 2.75,11.12 Q2.75,11.431 2.53,11.65 Q2.311,11.87 2,11.87 Q1.689,11.87 1.47,11.65 Q1.25,11.431 1.25,11.12 Z"/>
  <path fill="#292D32" d="M20.054,9.459 Q20.982,8.995 21.864,9.535 Q22.749,10.078 22.749,11.12 L22.749,16.84 Q22.749,18.667 21.105,19.5 L15.055,22.531 Q14.127,22.995 13.245,22.454 Q12.359,21.912 12.359,20.87 L12.359,15.15 Q12.359,13.322 14.004,12.489 L20.054,9.459 Z M20.725,10.8 L14.675,13.83 Q13.859,14.244 13.859,15.15 L13.859,20.87 Q13.859,21.072 14.029,21.175 Q14.201,21.281 14.384,21.189 L20.434,18.159 Q21.249,17.746 21.249,16.84 L21.249,11.12 Q21.249,10.918 21.08,10.814 Q20.908,10.709 20.725,10.8 Z"/>
</svg>

