<svg xmlns="http://www.w3.org/2000/svg" width="24" height="24" viewBox="0 0 24 24">
  <defs/>
  <path fill="#292D32" d="M19.33,5.68 L13.06,2.3 C12.4,1.94 11.6,1.94 10.94,2.3 L4.67,5.68 C4.21,5.93 3.93,6.41 3.93,6.96 C3.93,7.5 4.21,7.99 4.67,8.24 L10.94,11.62 C11.27,11.8 11.64,11.89 12,11.89 C12.36,11.89 12.73,11.8 13.06,11.62 L19.33,8.24 C19.79,7.99 20.07,7.51 20.07,6.96 C20.07,6.41 19.79,5.93 19.33,5.68 Z"/>
  <path fill="#292D32" opacity="0.4" d="M9.91,12.79 L4.07,9.87 C3.62,9.65 3.1,9.67 2.68,9.93 C2.25,10.2 2,10.65 2,11.15 L2,16.66 C2,17.61 2.53,18.47 3.38,18.9 L9.21,21.82 C9.41,21.92 9.63,21.97 9.85,21.97 C10.11,21.97 10.37,21.9 10.6,21.76 C11.03,21.5 11.28,21.04 11.28,20.54 L11.28,15.03 C11.29,14.07 10.76,13.21 9.91,12.79 Z"/>
  <path fill="#292D32" opacity="0.4" d="M21.321,9.93 C20.891,9.67 20.371,9.64 19.931,9.87 L14.101,12.79 C13.251,13.22 12.721,14.07 12.721,15.03 L12.721,20.54 C12.721,21.04 12.971,21.5 13.401,21.76 C13.631,21.9 13.891,21.97 14.151,21.97 C14.371,21.97 14.591,21.92 14.791,21.82 L20.621,18.9 C21.471,18.47 22.001,17.62 22.001,16.66 L22.001,11.15 C22.001,10.65 21.751,10.2 21.321,9.93 Z"/>
</svg>

