<svg xmlns="http://www.w3.org/2000/svg" width="24" height="24" viewBox="0 0 24 24">
  <defs/>
  <path fill="#292D32" opacity="0.4" d="M12.75,17 L12.75,19.38 Q12.75,22.75 9.37,22.75 L4.62,22.75 Q1.25,22.75 1.25,19.38 L1.25,14.63 Q1.25,11.25 4.62,11.25 L7,11.25 Q7.311,11.25 7.53,11.47 Q7.75,11.689 7.75,12 L7.75,14.37 Q7.75,16.25 9.62,16.25 L12,16.25 Q12.311,16.25 12.53,16.47 Q12.75,16.689 12.75,17 Z M11.25,17.75 L9.62,17.75 Q6.25,17.75 6.25,14.37 L6.25,12.75 L4.62,12.75 Q2.75,12.75 2.75,14.63 L2.75,19.38 Q2.75,20.472 3.139,20.861 Q3.528,21.25 4.62,21.25 L9.37,21.25 Q11.25,21.25 11.25,19.38 L11.25,17.75 Z"/>
  <path fill="#292D32" d="M17.75,12 L17.75,14.37 Q17.75,17.75 14.37,17.75 L9.62,17.75 Q6.25,17.75 6.25,14.37 L6.25,9.62 Q6.25,6.25 9.62,6.25 L12,6.25 Q12.311,6.25 12.53,6.47 Q12.75,6.689 12.75,7 L12.75,9.37 Q12.75,11.25 14.62,11.25 L17,11.25 Q17.311,11.25 17.53,11.47 Q17.75,11.689 17.75,12 Z M16.25,12.75 L14.62,12.75 Q11.25,12.75 11.25,9.37 L11.25,7.75 L9.62,7.75 Q7.75,7.75 7.75,9.62 L7.75,14.37 Q7.75,16.25 9.62,16.25 L14.37,16.25 Q16.25,16.25 16.25,14.37 L16.25,12.75 Z"/>
  <path fill="#292D32" d="M22.75,4.62 L22.75,9.37 Q22.75,12.75 19.37,12.75 L14.62,12.75 Q11.25,12.75 11.25,9.37 L11.25,4.62 Q11.25,1.25 14.62,1.25 L19.37,1.25 Q22.75,1.25 22.75,4.62 Z M21.25,4.62 Q21.25,3.528 20.86,3.14 Q20.469,2.75 19.37,2.75 L14.62,2.75 Q12.75,2.75 12.75,4.62 L12.75,9.37 Q12.75,11.25 14.62,11.25 L19.37,11.25 Q21.25,11.25 21.25,9.37 Z"/>
</svg>

