<svg xmlns="http://www.w3.org/2000/svg" width="24" height="24" viewBox="0 0 24 24">
  <defs/>
  <path fill="#292D32" d="M9.37,22.75 L4.62,22.75 C2.32,22.75 1.25,21.68 1.25,19.38 L1.25,14.63 C1.25,12.32 2.32,11.25 4.62,11.25 L7,11.25 C7.41,11.25 7.75,11.59 7.75,12 L7.75,14.37 C7.75,15.83 8.17,16.25 9.62,16.25 L12,16.25 C12.41,16.25 12.75,16.59 12.75,17 L12.75,19.38 C12.75,21.68 11.68,22.75 9.37,22.75 Z M4.62,12.75 C3.17,12.75 2.75,13.17 2.75,14.63 L2.75,19.38 C2.75,20.83 3.17,21.25 4.62,21.25 L9.37,21.25 C10.83,21.25 11.25,20.83 11.25,19.38 L11.25,17.75 L9.62,17.75 C7.32,17.75 6.25,16.68 6.25,14.37 L6.25,12.75 L4.62,12.75 Z"/>
  <path fill="#292D32" d="M14.37,17.75 L9.62,17.75 C7.32,17.75 6.25,16.68 6.25,14.37 L6.25,9.62 C6.25,7.32 7.32,6.25 9.62,6.25 L12,6.25 C12.41,6.25 12.75,6.59 12.75,7 L12.75,9.37 C12.75,10.83 13.17,11.25 14.62,11.25 L17,11.25 C17.41,11.25 17.75,11.59 17.75,12 L17.75,14.37 C17.75,16.68 16.68,17.75 14.37,17.75 Z M9.62,7.75 C8.17,7.75 7.75,8.17 7.75,9.62 L7.75,14.37 C7.75,15.83 8.17,16.25 9.62,16.25 L14.37,16.25 C15.83,16.25 16.25,15.83 16.25,14.37 L16.25,12.75 L14.62,12.75 C12.32,12.75 11.25,11.68 11.25,9.37 L11.25,7.75 L9.62,7.75 Z"/>
  <path fill="#292D32" d="M19.37,12.75 L14.62,12.75 C12.32,12.75 11.25,11.68 11.25,9.37 L11.25,4.62 C11.25,2.32 12.32,1.25 14.62,1.25 L19.37,1.25 C21.68,1.25 22.75,2.32 22.75,4.62 L22.75,9.37 C22.75,11.68 21.68,12.75 19.37,12.75 Z M14.62,2.75 C13.17,2.75 12.75,3.17 12.75,4.62 L12.75,9.37 C12.75,10.83 13.17,11.25 14.62,11.25 L19.37,11.25 C20.83,11.25 21.25,10.83 21.25,9.37 L21.25,4.62 C21.25,3.17 20.83,2.75 19.37,2.75 L14.62,2.75 Z"/>
</svg>

