<svg xmlns="http://www.w3.org/2000/svg" width="24" height="24" viewBox="0 0 24 24">
  <defs/>
  <path fill="#292D32" d="M12,18.5 L12,19.38 C12,21.25 11.25,22 9.37,22 L4.62,22 C3.17,22 2,20.83 2,19.38 L2,14.63 C2,12.75 2.75,12 4.62,12 L5.5,12 L5.5,15.5 C5.5,17.16 6.84,18.5 8.5,18.5 L12,18.5 Z"/>
  <path fill="#292D32" d="M17,13.5 L17,14.37 C17,15.82 15.82,17 14.37,17 L9.62,17 C7.75,17 7,16.25 7,14.37 L7,9.62 C7,8.17 8.17,7 9.62,7 L10.5,7 L10.5,10.5 C10.5,12.16 11.84,13.5 13.5,13.5 L17,13.5 Z"/>
  <path fill="#292D32" d="M22,4.62 L22,9.37 C22,11.25 21.25,12 19.37,12 L14.62,12 C12.75,12 12,11.25 12,9.37 L12,4.62 C12,2.75 12.75,2 14.62,2 L19.37,2 C21.25,2 22,2.75 22,4.62 Z"/>
</svg>

