<svg xmlns="http://www.w3.org/2000/svg" width="24" height="24" viewBox="0 0 24 24">
  <defs/>
  <path d="M16,16.75 C15.71,16.75 15.44,16.58 15.31,16.3 L12,8.85 L8.69,16.31 C8.52,16.69 8.07,16.86 7.7,16.69 C7.32,16.52 7.15,16.08 7.32,15.7 L11.32,6.7 C11.56,6.16 12.45,6.16 12.69,6.7 L16.69,15.7 C16.86,16.08 16.69,16.52 16.31,16.69 C16.21,16.73 16.1,16.75 16,16.75 Z"/>
  <path d="M12,12.75 L8,12.75 C7.59,12.75 7.25,12.41 7.25,12 C7.25,11.59 7.59,11.25 8,11.25 L12,11.25 C12.41,11.25 12.75,11.59 12.75,12 C12.75,12.41 12.41,12.75 12,12.75 Z"/>
  <path d="M12,22.75 C6.07,22.75 1.25,17.93 1.25,12 C1.25,6.07 6.07,1.25 12,1.25 C17.93,1.25 22.75,6.07 22.75,12 C22.75,17.93 17.93,22.75 12,22.75 Z M12,2.75 C6.9,2.75 2.75,6.9 2.75,12 C2.75,17.1 6.9,21.25 12,21.25 C17.1,21.25 21.25,17.1 21.25,12 C21.25,6.9 17.1,2.75 12,2.75 Z"/>
</svg>

