<svg xmlns="http://www.w3.org/2000/svg" width="24" height="24" viewBox="0 0 24 24">
  <defs/>
  <path d="M12,2 C6.48,2 2,6.48 2,12 C2,17.52 6.48,22 12,22 C17.52,22 22,17.52 22,12 C22,6.48 17.52,2 12,2 Z M16.3,16.69 C16.2,16.73 16.1,16.75 16,16.75 C15.71,16.75 15.44,16.58 15.31,16.3 L12,8.85 L10.93,11.25 L12,11.25 C12.41,11.25 12.75,11.59 12.75,12 C12.75,12.41 12.41,12.75 12,12.75 L10.27,12.75 L8.69,16.3 C8.52,16.68 8.07,16.85 7.7,16.68 C7.32,16.51 7.15,16.07 7.32,15.69 L8.63,12.74 L8,12.74 C7.59,12.74 7.25,12.4 7.25,11.99 C7.25,11.58 7.59,11.24 8,11.24 L9.29,11.24 L11.31,6.69 C11.55,6.15 12.44,6.15 12.68,6.69 L16.68,15.69 C16.85,16.07 16.68,16.52 16.3,16.69 Z"/>
</svg>

