<svg xmlns="http://www.w3.org/2000/svg" width="24" height="24" viewBox="0 0 24 24">
  <defs/>
  <path fill="white" d="M24,0 L0,0 L0,24 L24,24 L24,0 Z"/>
  <path fill="#292D32" opacity="0.4" d="M12,22 C17.523,22 22,17.523 22,12 C22,6.477 17.523,2 12,2 C6.477,2 2,6.477 2,12 C2,17.523 6.477,22 12,22 Z"/>
  <path fill="#292D32" d="M16.69,15.7 L12.69,6.7 C12.45,6.16 11.56,6.16 11.32,6.7 L9.3,11.25 L8,11.25 C7.59,11.25 7.25,11.59 7.25,12 C7.25,12.41 7.59,12.75 8,12.75 L8.62,12.75 L7.31,15.7 C7.14,16.08 7.31,16.52 7.69,16.69 C8.07,16.86 8.51,16.69 8.68,16.31 L10.26,12.76 L12,12.76 C12.41,12.76 12.75,12.42 12.75,12.01 C12.75,11.6 12.41,11.26 12,11.26 L10.93,11.26 L12,8.86 L15.31,16.32 C15.43,16.6 15.71,16.77 16,16.77 C16.1,16.77 16.21,16.75 16.3,16.71 C16.68,16.52 16.85,16.07 16.69,15.7 Z"/>
</svg>

