<svg xmlns="http://www.w3.org/2000/svg" width="24" height="24" viewBox="0 0 24 24">
  <defs/>
  <path d="M7.315,15.695 L11.315,6.695 Q11.441,6.412 11.731,6.3 Q12.021,6.188 12.305,6.315 Q12.568,6.432 12.685,6.695 L16.685,15.695 Q16.812,15.979 16.7,16.269 Q16.588,16.559 16.305,16.685 Q16.021,16.812 15.731,16.7 Q15.441,16.588 15.315,16.305 L12,8.847 L8.685,16.305 Q8.559,16.588 8.269,16.7 Q7.979,16.812 7.695,16.685 Q7.412,16.559 7.3,16.269 Q7.188,15.979 7.315,15.695 Z"/>
  <path d="M8,11.25 L12,11.25 Q12.311,11.25 12.53,11.47 Q12.75,11.689 12.75,12 Q12.75,12.311 12.53,12.53 Q12.311,12.75 12,12.75 L8,12.75 Q7.689,12.75 7.47,12.53 Q7.25,12.311 7.25,12 Q7.25,11.689 7.47,11.47 Q7.689,11.25 8,11.25 Z"/>
  <path fill="#17191C" d="M4.6,6.449 Q2.75,8.922 2.75,12 Q2.75,15.829 5.46,18.54 Q8.171,21.25 12,21.25 Q15.829,21.25 18.54,18.54 Q21.25,15.829 21.25,12 Q21.25,8.171 18.54,5.46 Q15.829,2.75 12,2.75 Q10.031,2.75 8.276,3.535 Q7.993,3.661 7.702,3.551 Q7.412,3.44 7.285,3.156 Q7.158,2.873 7.269,2.582 Q7.38,2.292 7.664,2.165 Q9.711,1.25 12,1.25 Q16.451,1.25 19.6,4.4 Q22.75,7.549 22.75,12 Q22.75,16.451 19.6,19.6 Q16.451,22.75 12,22.75 Q7.549,22.75 4.4,19.6 Q1.25,16.451 1.25,12 Q1.25,8.422 3.4,5.551 Q3.586,5.302 3.893,5.258 Q4.201,5.213 4.449,5.4 Q4.698,5.586 4.742,5.893 Q4.787,6.201 4.6,6.449 Z"/>
</svg>

