<svg xmlns="http://www.w3.org/2000/svg" width="24" height="24" viewBox="0 0 24 24">
  <defs/>
  <path fill="#292D32" d="M9,22.75 Q1.25,22.75 1.25,15 L1.25,9 Q1.25,1.25 9,1.25 L15,1.25 Q22.75,1.25 22.75,9 L22.75,15 Q22.75,22.75 15,22.75 Z M9,21.25 L15,21.25 Q18.439,21.25 19.845,19.845 Q21.25,18.439 21.25,15 L21.25,9 Q21.25,2.75 15,2.75 L9,2.75 Q2.75,2.75 2.75,9 L2.75,15 Q2.75,18.439 4.155,19.845 Q5.561,21.25 9,21.25 Z"/>
  <path fill="#292D32" d="M6.736,14.032 L9.116,10.942 Q10.189,9.553 11.579,10.627 L13.414,12.071 Q13.614,12.225 13.772,12.025 L16.077,9.051 Q16.268,8.805 16.576,8.766 Q16.884,8.727 17.13,8.917 Q17.375,9.108 17.414,9.416 Q17.453,9.724 17.263,9.97 L14.948,12.955 Q13.87,14.319 12.486,13.249 L10.662,11.813 Q10.459,11.657 10.304,11.858 L7.924,14.948 Q7.735,15.194 7.427,15.234 Q7.119,15.274 6.872,15.084 Q6.626,14.895 6.586,14.587 Q6.546,14.278 6.736,14.032 Z"/>
</svg>

