<svg xmlns="http://www.w3.org/2000/svg" width="24" height="24" viewBox="0 0 24 24">
  <defs/>
  <path fill="#292D32" d="M16.19,2 L7.81,2 C4.17,2 2,4.17 2,7.81 L2,16.18 C2,19.83 4.17,22 7.81,22 L16.18,22 C19.82,22 21.99,19.83 21.99,16.19 L21.99,7.81 C22,4.17 19.83,2 16.19,2 Z M17.26,9.96 L14.95,12.94 C14.66,13.31 14.25,13.55 13.78,13.6 C13.31,13.66 12.85,13.53 12.48,13.24 L10.65,11.8 C10.58,11.74 10.5,11.74 10.46,11.75 C10.42,11.75 10.35,11.77 10.29,11.85 L7.91,14.94 C7.76,15.13 7.54,15.23 7.32,15.23 C7.16,15.23 7,15.18 6.86,15.07 C6.53,14.82 6.47,14.35 6.72,14.02 L9.1,10.93 C9.39,10.56 9.8,10.32 10.27,10.26 C10.73,10.2 11.2,10.33 11.57,10.62 L13.4,12.06 C13.47,12.12 13.54,12.12 13.59,12.11 C13.63,12.11 13.7,12.09 13.76,12.01 L16.07,9.03 C16.32,8.7 16.8,8.64 17.12,8.9 C17.45,9.17 17.51,9.64 17.26,9.96 Z"/>
</svg>

