<svg xmlns="http://www.w3.org/2000/svg" width="24" height="24" viewBox="0 0 24 24">
  <defs/>
  <path fill="#292D32" opacity="0.4" d="M16.19,2 L7.81,2 C4.17,2 2,4.17 2,7.81 L2,16.18 C2,19.83 4.17,22 7.81,22 L16.18,22 C19.82,22 21.99,19.83 21.99,16.19 L21.99,7.81 C22,4.17 19.83,2 16.19,2 Z"/>
  <path fill="#292D32" d="M7.33,15.24 C7.17,15.24 7.01,15.19 6.87,15.08 C6.54,14.83 6.48,14.36 6.73,14.03 L9.11,10.94 C9.4,10.57 9.81,10.33 10.28,10.27 C10.74,10.21 11.21,10.34 11.58,10.63 L13.41,12.07 C13.48,12.13 13.55,12.13 13.6,12.12 C13.64,12.12 13.71,12.1 13.77,12.02 L16.08,9.04 C16.33,8.71 16.81,8.65 17.13,8.91 C17.46,9.16 17.52,9.63 17.26,9.96 L14.95,12.94 C14.66,13.31 14.25,13.55 13.78,13.6 C13.31,13.66 12.85,13.53 12.48,13.24 L10.65,11.8 C10.58,11.74 10.5,11.74 10.46,11.75 C10.42,11.75 10.35,11.77 10.29,11.85 L7.91,14.94 C7.78,15.14 7.56,15.24 7.33,15.24 Z"/>
</svg>

