<svg xmlns="http://www.w3.org/2000/svg" width="24" height="24" viewBox="0 0 24 24">
  <defs/>
  <path fill="#292D32" d="M12,2 C6.49,2 2,6.49 2,12 C2,17.51 6.49,22 12,22 C17.51,22 22,17.51 22,12 C22,6.49 17.51,2 12,2 Z M16,12.75 L12.75,12.75 L12.75,16 C12.75,16.41 12.41,16.75 12,16.75 C11.59,16.75 11.25,16.41 11.25,16 L11.25,12.75 L8,12.75 C7.59,12.75 7.25,12.41 7.25,12 C7.25,11.59 7.59,11.25 8,11.25 L11.25,11.25 L11.25,8 C11.25,7.59 11.59,7.25 12,7.25 C12.41,7.25 12.75,7.59 12.75,8 L12.75,11.25 L16,11.25 C16.41,11.25 16.75,11.59 16.75,12 C16.75,12.41 16.41,12.75 16,12.75 Z"/>
</svg>

