<svg xmlns="http://www.w3.org/2000/svg" width="24" height="24" viewBox="0 0 24 24">
  <defs/>
  <path fill="#292D32" d="M6,11.25 L18,11.25 Q18.311,11.25 18.53,11.47 Q18.75,11.689 18.75,12 Q18.75,12.311 18.53,12.53 Q18.311,12.75 18,12.75 L6,12.75 Q5.689,12.75 5.47,12.53 Q5.25,12.311 5.25,12 Q5.25,11.689 5.47,11.47 Q5.689,11.25 6,11.25 Z"/>
  <path fill="#292D32" d="M11.25,18 L11.25,6 Q11.25,5.689 11.47,5.47 Q11.689,5.25 12,5.25 Q12.311,5.25 12.53,5.47 Q12.75,5.689 12.75,6 L12.75,18 Q12.75,18.311 12.53,18.53 Q12.311,18.75 12,18.75 Q11.689,18.75 11.47,18.53 Q11.25,18.311 11.25,18 Z"/>
</svg>

