<svg xmlns="http://www.w3.org/2000/svg" width="24" height="24" viewBox="0 0 24 24">
  <defs/>
  <path fill="#292D32" d="M16,12.75 L8,12.75 C7.59,12.75 7.25,12.41 7.25,12 C7.25,11.59 7.59,11.25 8,11.25 L16,11.25 C16.41,11.25 16.75,11.59 16.75,12 C16.75,12.41 16.41,12.75 16,12.75 Z"/>
  <path fill="#292D32" d="M12,16.75 C11.59,16.75 11.25,16.41 11.25,16 L11.25,8 C11.25,7.59 11.59,7.25 12,7.25 C12.41,7.25 12.75,7.59 12.75,8 L12.75,16 C12.75,16.41 12.41,16.75 12,16.75 Z"/>
  <path fill="#292D32" d="M15,22.75 L9,22.75 C3.57,22.75 1.25,20.43 1.25,15 L1.25,9 C1.25,3.57 3.57,1.25 9,1.25 L15,1.25 C20.43,1.25 22.75,3.57 22.75,9 L22.75,15 C22.75,20.43 20.43,22.75 15,22.75 Z M9,2.75 C4.39,2.75 2.75,4.39 2.75,9 L2.75,15 C2.75,19.61 4.39,21.25 9,21.25 L15,21.25 C19.61,21.25 21.25,19.61 21.25,15 L21.25,9 C21.25,4.39 19.61,2.75 15,2.75 L9,2.75 Z"/>
</svg>

