<svg xmlns="http://www.w3.org/2000/svg" width="24" height="24" viewBox="0 0 24 24">
  <defs/>
  <path fill="#292D32" opacity="0.4" d="M12,22 C17.523,22 22,17.523 22,12 C22,6.477 17.523,2 12,2 C6.477,2 2,6.477 2,12 C2,17.523 6.477,22 12,22 Z"/>
  <path fill="#292D32" d="M16,11.25 L12.75,11.25 L12.75,8 C12.75,7.59 12.41,7.25 12,7.25 C11.59,7.25 11.25,7.59 11.25,8 L11.25,11.25 L8,11.25 C7.59,11.25 7.25,11.59 7.25,12 C7.25,12.41 7.59,12.75 8,12.75 L11.25,12.75 L11.25,16 C11.25,16.41 11.59,16.75 12,16.75 C12.41,16.75 12.75,16.41 12.75,16 L12.75,12.75 L16,12.75 C16.41,12.75 16.75,12.41 16.75,12 C16.75,11.59 16.41,11.25 16,11.25 Z"/>
</svg>

