<svg xmlns="http://www.w3.org/2000/svg" width="24" height="24" viewBox="0 0 24 24">
  <defs/>
  <path fill="#292D32" d="M16.19,2 L7.81,2 C4.17,2 2,4.17 2,7.81 L2,16.18 C2,19.83 4.17,22 7.81,22 L16.18,22 C19.82,22 21.99,19.83 21.99,16.19 L21.99,7.81 C22,4.17 19.83,2 16.19,2 Z M18,12.75 L12.75,12.75 L12.75,18 C12.75,18.41 12.41,18.75 12,18.75 C11.59,18.75 11.25,18.41 11.25,18 L11.25,12.75 L6,12.75 C5.59,12.75 5.25,12.41 5.25,12 C5.25,11.59 5.59,11.25 6,11.25 L11.25,11.25 L11.25,6 C11.25,5.59 11.59,5.25 12,5.25 C12.41,5.25 12.75,5.59 12.75,6 L12.75,11.25 L18,11.25 C18.41,11.25 18.75,11.59 18.75,12 C18.75,12.41 18.41,12.75 18,12.75 Z"/>
</svg>

