<svg xmlns="http://www.w3.org/2000/svg" width="24" height="24" viewBox="0 0 24 24">
  <defs/>
  <path fill="#292D32" opacity="0.4" d="M16.19,2 L7.81,2 C4.17,2 2,4.17 2,7.81 L2,16.18 C2,19.83 4.17,22 7.81,22 L16.18,22 C19.82,22 21.99,19.83 21.99,16.19 L21.99,7.81 C22,4.17 19.83,2 16.19,2 Z"/>
  <path fill="#292D32" d="M16,11.25 L12.75,11.25 L12.75,8 C12.75,7.59 12.41,7.25 12,7.25 C11.59,7.25 11.25,7.59 11.25,8 L11.25,11.25 L8,11.25 C7.59,11.25 7.25,11.59 7.25,12 C7.25,12.41 7.59,12.75 8,12.75 L11.25,12.75 L11.25,16 C11.25,16.41 11.59,16.75 12,16.75 C12.41,16.75 12.75,16.41 12.75,16 L12.75,12.75 L16,12.75 C16.41,12.75 16.75,12.41 16.75,12 C16.75,11.59 16.41,11.25 16,11.25 Z"/>
</svg>

