<svg xmlns="http://www.w3.org/2000/svg" width="24" height="24" viewBox="0 0 24 24">
  <defs/>
  <path fill="#292D32" d="M14.99,11.25 L16,11.25 Q16.311,11.25 16.531,11.47 Q16.75,11.689 16.75,12 Q16.75,12.311 16.531,12.53 Q16.311,12.75 16,12.75 L14.99,12.75 Q14.68,12.75 14.46,12.53 Q14.24,12.311 14.24,12 Q14.24,11.689 14.46,11.47 Q14.68,11.25 14.99,11.25 Z"/>
  <path fill="#292D32" d="M8,11.25 L11.81,11.25 Q12.121,11.25 12.34,11.47 Q12.56,11.689 12.56,12 Q12.56,12.311 12.34,12.53 Q12.121,12.75 11.81,12.75 L8,12.75 Q7.689,12.75 7.47,12.53 Q7.25,12.311 7.25,12 Q7.25,11.689 7.47,11.47 Q7.689,11.25 8,11.25 Z"/>
  <path fill="#292D32" d="M11.25,16 L11.25,8 Q11.25,7.689 11.47,7.47 Q11.689,7.25 12,7.25 Q12.311,7.25 12.53,7.47 Q12.75,7.689 12.75,8 L12.75,16 Q12.75,16.311 12.53,16.53 Q12.311,16.75 12,16.75 Q11.689,16.75 11.47,16.53 Q11.25,16.311 11.25,16 Z"/>
  <path fill="#292D32" d="M2.75,13.04 L2.75,15 Q2.75,18.439 4.155,19.845 Q5.561,21.25 9,21.25 L15,21.25 Q18.439,21.25 19.845,19.845 Q21.25,18.439 21.25,15 L21.25,9 Q21.25,2.75 15,2.75 L9,2.75 Q2.75,2.75 2.75,9 Q2.75,9.311 2.53,9.53 Q2.311,9.75 2,9.75 Q1.689,9.75 1.47,9.53 Q1.25,9.311 1.25,9 Q1.25,1.25 9,1.25 L15,1.25 Q22.75,1.25 22.75,9 L22.75,15 Q22.75,22.75 15,22.75 L9,22.75 Q1.25,22.75 1.25,15 L1.25,13.04 Q1.25,12.729 1.47,12.51 Q1.689,12.29 2,12.29 Q2.311,12.29 2.53,12.51 Q2.75,12.729 2.75,13.04 Z"/>
</svg>

