<svg xmlns="http://www.w3.org/2000/svg" width="24" height="24" viewBox="0 0 24 24">
  <defs/>
  <path fill="#292D32" opacity="0.4" d="M18.57,22 L14,22 C11.71,22 10.57,20.86 10.57,18.57 L10.57,11.43 C10.57,9.14 11.71,8 14,8 L18.57,8 C20.86,8 22,9.14 22,11.43 L22,18.57 C22,20.86 20.86,22 18.57,22 Z"/>
  <path fill="#292D32" d="M13.43,5.43 L13.43,6.77 C10.81,6.98 9.32,8.66 9.32,11.43 L9.32,16 L5.43,16 C3.14,16 2,14.86 2,12.57 L2,5.43 C2,3.14 3.14,2 5.43,2 L10,2 C12.29,2 13.43,3.14 13.43,5.43 Z"/>
  <path fill="#292D32" d="M18.129,14.25 L17.249,14.25 L17.249,13.37 C17.249,12.96 16.909,12.62 16.499,12.62 C16.089,12.62 15.749,12.96 15.749,13.37 L15.749,14.25 L14.869,14.25 C14.459,14.25 14.119,14.59 14.119,15 C14.119,15.41 14.459,15.75 14.869,15.75 L15.749,15.75 L15.749,16.63 C15.749,17.04 16.089,17.38 16.499,17.38 C16.909,17.38 17.249,17.04 17.249,16.63 L17.249,15.75 L18.129,15.75 C18.539,15.75 18.879,15.41 18.879,15 C18.879,14.59 18.539,14.25 18.129,14.25 Z"/>
</svg>

