<svg xmlns="http://www.w3.org/2000/svg" width="24" height="24" viewBox="0 0 24 24">
  <defs/>
  <path fill="#292D32" d="M13.43,5.43 L13.43,6.77 C10.81,6.98 9.32,8.66 9.32,11.43 L9.32,16 L5.43,16 C3.14,16 2,14.86 2,12.57 L2,5.43 C2,3.14 3.14,2 5.43,2 L10,2 C12.29,2 13.43,3.14 13.43,5.43 Z"/>
  <path fill="#292D32" d="M18.57,8 L14,8 C11.71,8 10.57,9.14 10.57,11.43 L10.57,18.57 C10.57,20.86 11.71,22 14,22 L18.57,22 C20.86,22 22,20.86 22,18.57 L22,11.43 C22,9.14 20.86,8 18.57,8 Z M18.13,15.75 L17.25,15.75 L17.25,16.63 C17.25,17.04 16.91,17.38 16.5,17.38 C16.09,17.38 15.75,17.04 15.75,16.63 L15.75,15.75 L14.87,15.75 C14.46,15.75 14.12,15.41 14.12,15 C14.12,14.59 14.46,14.25 14.87,14.25 L15.75,14.25 L15.75,13.37 C15.75,12.96 16.09,12.62 16.5,12.62 C16.91,12.62 17.25,12.96 17.25,13.37 L17.25,14.25 L18.13,14.25 C18.54,14.25 18.88,14.59 18.88,15 C18.88,15.41 18.54,15.75 18.13,15.75 Z"/>
</svg>

