<svg xmlns="http://www.w3.org/2000/svg" width="24" height="24" viewBox="0 0 24 24">
  <defs/>
  <path fill="#292D32" d="M8,16.75 L5.43,16.75 C2.74,16.75 1.25,15.27 1.25,12.57 L1.25,5.43 C1.25,2.74 2.73,1.25 5.43,1.25 L10,1.25 C12.69,1.25 14.18,2.73 14.18,5.43 C14.18,5.84 13.84,6.18 13.43,6.18 C13.02,6.18 12.68,5.84 12.68,5.43 C12.68,3.55 11.88,2.75 10,2.75 L5.43,2.75 C3.55,2.75 2.75,3.55 2.75,5.43 L2.75,12.57 C2.75,14.45 3.55,15.25 5.43,15.25 L8,15.25 C8.41,15.25 8.75,15.59 8.75,16 C8.75,16.41 8.41,16.75 8,16.75 Z"/>
  <path fill="#292D32" d="M18.57,22.75 L14,22.75 C11.31,22.75 9.82,21.27 9.82,18.57 L9.82,11.43 C9.82,8.74 11.3,7.25 14,7.25 L18.57,7.25 C21.26,7.25 22.75,8.73 22.75,11.43 L22.75,18.57 C22.75,21.27 21.27,22.75 18.57,22.75 Z M14,8.75 C12.12,8.75 11.32,9.55 11.32,11.43 L11.32,18.57 C11.32,20.45 12.12,21.25 14,21.25 L18.57,21.25 C20.45,21.25 21.25,20.45 21.25,18.57 L21.25,11.43 C21.25,9.55 20.45,8.75 18.57,8.75 L14,8.75 Z"/>
  <path fill="#292D32" d="M18.131,15.75 L14.881,15.75 C14.471,15.75 14.131,15.41 14.131,15 C14.131,14.59 14.471,14.25 14.881,14.25 L18.131,14.25 C18.541,14.25 18.881,14.59 18.881,15 C18.881,15.41 18.541,15.75 18.131,15.75 Z"/>
  <path fill="#292D32" d="M16.5,17.38 C16.09,17.38 15.75,17.04 15.75,16.63 L15.75,13.38 C15.75,12.97 16.09,12.63 16.5,12.63 C16.91,12.63 17.25,12.97 17.25,13.38 L17.25,16.63 C17.25,17.04 16.91,17.38 16.5,17.38 Z"/>
</svg>

