<svg xmlns="http://www.w3.org/2000/svg" width="24" height="24" viewBox="0 0 24 24">
  <defs/>
  <path fill="#292D32" d="M8,16.75 L5.43,16.75 Q1.25,16.75 1.25,12.57 L1.25,5.43 Q1.25,1.25 5.43,1.25 L10,1.25 Q14.18,1.25 14.18,5.43 Q14.18,5.741 13.96,5.96 Q13.741,6.18 13.43,6.18 Q13.119,6.18 12.9,5.96 Q12.68,5.741 12.68,5.43 Q12.68,2.75 10,2.75 L5.43,2.75 Q4.023,2.75 3.387,3.387 Q2.75,4.023 2.75,5.43 L2.75,12.57 Q2.75,13.977 3.387,14.613 Q4.023,15.25 5.43,15.25 L8,15.25 Q8.311,15.25 8.53,15.47 Q8.75,15.689 8.75,16 Q8.75,16.311 8.53,16.53 Q8.311,16.75 8,16.75 Z"/>
  <path fill="#292D32" d="M18.57,22.75 L14,22.75 Q9.82,22.75 9.82,18.57 L9.82,11.43 Q9.82,7.25 14,7.25 L18.57,7.25 Q22.75,7.25 22.75,11.43 L22.75,18.57 Q22.75,22.75 18.57,22.75 Z M18.57,21.25 Q21.25,21.25 21.25,18.57 L21.25,11.43 Q21.25,8.75 18.57,8.75 L14,8.75 Q12.593,8.75 11.957,9.387 Q11.32,10.023 11.32,11.43 L11.32,18.57 Q11.32,21.25 14,21.25 Z"/>
  <path fill="#292D32" d="M14.87,14.25 L18.13,14.25 Q18.441,14.25 18.66,14.47 Q18.88,14.689 18.88,15 Q18.88,15.311 18.66,15.53 Q18.441,15.75 18.13,15.75 L14.87,15.75 Q14.559,15.75 14.34,15.53 Q14.12,15.311 14.12,15 Q14.12,14.689 14.34,14.47 Q14.559,14.25 14.87,14.25 Z"/>
  <path fill="#292D32" d="M15.75,16.63 L15.75,13.37 Q15.75,13.059 15.97,12.84 Q16.189,12.62 16.5,12.62 Q16.811,12.62 17.03,12.84 Q17.25,13.059 17.25,13.37 L17.25,16.63 Q17.25,16.941 17.03,17.16 Q16.811,17.38 16.5,17.38 Q16.189,17.38 15.97,17.16 Q15.75,16.941 15.75,16.63 Z"/>
</svg>

