<svg xmlns="http://www.w3.org/2000/svg" width="24" height="24" viewBox="0 0 24 24">
  <defs/>
  <path fill="#292D32" d="M14.86,11.511 L14.86,11.514 Q14.456,13.235 12.714,13.66 Q11.076,14.049 9.908,12.882 Q8.741,11.714 9.132,10.07 Q9.555,8.355 11.276,7.93 Q12.914,7.541 14.082,8.708 Q15.248,9.875 14.86,11.511 Z M13.4,11.167 Q13.596,10.344 13.021,9.769 Q12.446,9.194 11.624,9.39 Q10.794,9.594 10.588,10.43 Q10.394,11.246 10.969,11.821 Q11.544,12.396 12.366,12.2 Q13.207,11.996 13.4,11.169 Z"/>
  <path fill="#292D32" d="M17.497,16.642 Q20.04,14.263 20.04,10.79 Q20.04,7.458 17.684,5.103 Q15.329,2.75 12,2.75 Q8.673,2.75 6.317,5.107 Q3.96,7.463 3.96,10.79 Q3.96,14.293 6.529,16.669 Q6.757,16.88 6.769,17.191 Q6.782,17.501 6.571,17.729 Q6.36,17.957 6.049,17.969 Q5.739,17.982 5.511,17.771 Q2.46,14.949 2.46,10.79 Q2.46,6.842 5.256,4.046 Q8.052,1.25 12,1.25 Q15.95,1.25 18.744,4.042 Q21.54,6.836 21.54,10.79 Q21.54,14.914 18.522,17.738 Q18.295,17.95 17.985,17.94 Q17.674,17.929 17.462,17.702 Q17.25,17.476 17.26,17.165 Q17.271,16.855 17.497,16.642 Z"/>
  <path fill="#292D32" d="M7.453,15.063 Q5.76,13.26 5.76,10.79 Q5.76,8.207 7.588,6.378 Q9.417,4.55 12,4.55 Q14.583,4.55 16.412,6.378 Q18.24,8.207 18.24,10.79 Q18.24,13.241 16.549,15.061 Q16.338,15.288 16.027,15.299 Q15.717,15.311 15.489,15.099 Q15.262,14.888 15.251,14.577 Q15.239,14.267 15.451,14.039 Q16.74,12.652 16.74,10.79 Q16.74,8.828 15.351,7.439 Q13.962,6.05 12,6.05 Q10.038,6.05 8.649,7.439 Q7.26,8.828 7.26,10.79 Q7.26,12.666 8.547,14.037 Q8.759,14.263 8.75,14.574 Q8.74,14.884 8.513,15.097 Q8.287,15.309 7.976,15.3 Q7.666,15.29 7.453,15.063 Z"/>
  <path fill="#292D32" d="M9.714,16.192 Q9.715,16.191 9.716,16.19 Q10.593,15.092 11.999,15.092 Q13.409,15.092 14.274,16.19 L15.713,17.978 Q16.874,19.412 16.073,21.077 Q15.274,22.74 13.43,22.74 L10.56,22.74 Q8.716,22.74 7.92,21.081 Q7.125,19.423 8.276,17.98 Z M10.884,17.13 L9.444,18.92 Q8.884,19.623 9.272,20.432 Q9.66,21.24 10.56,21.24 L13.43,21.24 Q14.331,21.24 14.722,20.428 Q15.111,19.618 14.547,18.922 L13.106,17.13 Q12.681,16.592 11.999,16.592 Q11.313,16.592 10.886,17.128 Z"/>
</svg>

