<svg xmlns="http://www.w3.org/2000/svg" width="24" height="24" viewBox="0 0 24 24">
  <defs/>
  <path fill="#292D32" d="M12.723,13.65 Q11.085,14.039 9.918,12.872 Q8.75,11.704 9.14,10.067 Q9.565,8.345 11.28,7.922 Q12.606,7.598 13.702,8.369 Q14.769,9.12 14.933,10.405 Q14.973,10.713 14.783,10.959 Q14.593,11.205 14.285,11.244 Q13.977,11.283 13.731,11.093 Q13.485,10.903 13.446,10.595 Q13.365,9.966 12.839,9.596 Q12.3,9.217 11.639,9.378 Q10.804,9.584 10.599,10.414 Q10.404,11.236 10.979,11.811 Q11.554,12.386 12.376,12.19 Q12.678,12.119 12.943,12.281 Q13.207,12.444 13.279,12.747 Q13.351,13.049 13.188,13.313 Q13.025,13.578 12.723,13.65 Z"/>
  <path fill="#292D32" d="M8.012,3.802 Q3.961,6.11 3.961,10.79 Q3.961,14.293 6.53,16.669 Q6.758,16.88 6.77,17.191 Q6.782,17.501 6.572,17.729 Q6.361,17.957 6.05,17.969 Q5.74,17.981 5.512,17.77 Q2.461,14.949 2.461,10.79 Q2.461,5.238 7.27,2.498 Q7.54,2.344 7.839,2.427 Q8.139,2.509 8.293,2.779 Q8.446,3.049 8.364,3.348 Q8.282,3.648 8.012,3.802 Z"/>
  <path fill="#292D32" d="M17.498,16.642 Q20.04,14.263 20.04,10.79 Q20.04,7.458 17.684,5.103 Q15.329,2.75 12,2.75 Q11.689,2.75 11.47,2.53 Q11.25,2.311 11.25,2 Q11.25,1.689 11.47,1.47 Q11.689,1.25 12,1.25 Q15.95,1.25 18.744,4.042 Q21.54,6.836 21.54,10.79 Q21.54,14.914 18.522,17.738 Q18.296,17.95 17.985,17.94 Q17.675,17.929 17.462,17.702 Q17.25,17.476 17.26,17.165 Q17.271,16.855 17.498,16.642 Z"/>
  <path fill="#292D32" d="M7.453,15.063 Q5.76,13.26 5.76,10.79 Q5.76,8.207 7.588,6.378 Q9.417,4.55 12,4.55 Q14.583,4.55 16.411,6.378 Q18.24,8.207 18.24,10.79 Q18.24,13.241 16.549,15.061 Q16.338,15.288 16.027,15.299 Q15.717,15.311 15.489,15.099 Q15.262,14.888 15.25,14.577 Q15.239,14.267 15.45,14.039 Q16.74,12.652 16.74,10.79 Q16.74,8.828 15.351,7.439 Q13.962,6.05 12,6.05 Q10.038,6.05 8.649,7.439 Q7.26,8.828 7.26,10.79 Q7.26,12.666 8.547,14.037 Q8.759,14.263 8.749,14.574 Q8.74,14.884 8.513,15.097 Q8.287,15.309 7.976,15.3 Q7.666,15.29 7.453,15.063 Z"/>
  <path fill="#292D32" d="M9.715,16.192 Q9.715,16.191 9.716,16.19 Q10.594,15.092 11.999,15.092 Q13.409,15.092 14.275,16.19 L15.714,17.978 Q16.875,19.412 16.074,21.077 Q15.275,22.74 13.431,22.74 L10.561,22.74 Q8.717,22.74 7.921,21.081 Q7.126,19.423 8.276,17.98 Z M10.885,17.13 L9.445,18.92 Q8.885,19.623 9.273,20.432 Q9.661,21.24 10.561,21.24 L13.431,21.24 Q14.332,21.24 14.722,20.428 Q15.111,19.618 14.548,18.922 L13.106,17.13 Q12.682,16.592 11.999,16.592 Q11.314,16.592 10.887,17.128 Z"/>
</svg>

