<svg xmlns="http://www.w3.org/2000/svg" width="24" height="24" viewBox="0 0 24 24">
  <defs/>
  <path fill="#292D32" d="M11.999,13.74 C11.22,13.74 10.479,13.44 9.909,12.88 C9.179,12.15 8.889,11.1 9.129,10.07 C9.379,9.02 10.22,8.18 11.27,7.93 C12.29,7.68 13.339,7.97 14.079,8.71 C14.819,9.45 15.1,10.49 14.86,11.52 C14.61,12.57 13.77,13.41 12.72,13.66 C12.479,13.71 12.239,13.74 11.999,13.74 Z M11.999,9.34 C11.88,9.34 11.749,9.36 11.63,9.39 C11.13,9.51 10.72,9.92 10.6,10.42 C10.47,10.94 10.61,11.45 10.979,11.81 C11.35,12.18 11.85,12.31 12.38,12.19 C12.88,12.07 13.29,11.66 13.409,11.16 C13.54,10.64 13.399,10.13 13.03,9.77 C12.749,9.49 12.389,9.34 11.999,9.34 Z"/>
  <path fill="#292D32" d="M6.02,17.97 C5.84,17.97 5.65,17.9 5.51,17.77 C3.57,15.97 2.46,13.43 2.46,10.79 C2.46,5.53 6.74,1.25 12,1.25 C17.26,1.25 21.54,5.53 21.54,10.79 C21.54,13.45 20.47,15.91 18.53,17.74 C18.23,18.02 17.75,18.01 17.47,17.71 C17.19,17.41 17.2,16.93 17.5,16.65 C19.14,15.11 20.04,13.04 20.04,10.8 C20.04,6.37 16.43,2.76 12,2.76 C7.57,2.76 3.96,6.37 3.96,10.8 C3.96,13.06 4.87,15.14 6.53,16.68 C6.83,16.96 6.85,17.44 6.57,17.74 C6.42,17.89 6.22,17.97 6.02,17.97 Z"/>
  <path fill="#292D32" d="M15.999,15.3 C15.819,15.3 15.63,15.23 15.489,15.1 C15.19,14.82 15.169,14.34 15.46,14.04 C16.29,13.16 16.75,12 16.75,10.8 C16.75,8.18 14.62,6.06 12.009,6.06 C9.4,6.06 7.27,8.19 7.27,10.8 C7.27,12.01 7.73,13.16 8.56,14.04 C8.84,14.34 8.83,14.82 8.53,15.1 C8.23,15.38 7.75,15.37 7.47,15.07 C6.38,13.91 5.77,12.39 5.77,10.8 C5.77,7.36 8.57,4.56 12.009,4.56 C15.45,4.56 18.25,7.36 18.25,10.8 C18.25,12.39 17.649,13.91 16.549,15.07 C16.399,15.22 16.2,15.3 15.999,15.3 Z"/>
  <path fill="#292D32" d="M13.44,22.75 L10.57,22.75 C9.43,22.75 8.42,22.11 7.93,21.09 C7.44,20.07 7.57,18.88 8.28,17.99 L9.72,16.2 C10.28,15.5 11.11,15.1 12.01,15.1 C12.91,15.1 13.74,15.5 14.3,16.2 L15.74,17.99 C16.45,18.88 16.59,20.07 16.09,21.09 C15.58,22.11 14.57,22.75 13.44,22.75 Z M10.88,17.13 L9.44,18.92 C9.09,19.36 9.02,19.93 9.27,20.43 C9.51,20.94 10,21.24 10.56,21.24 L13.43,21.24 C13.99,21.24 14.48,20.94 14.72,20.43 C14.96,19.92 14.9,19.36 14.55,18.92 L13.11,17.13 C12.57,16.45 11.43,16.45 10.88,17.13 Z"/>
</svg>

