<svg xmlns="http://www.w3.org/2000/svg" width="24" height="24" viewBox="0 0 24 24">
  <defs/>
  <path fill="#292D32" d="M14.13,11.339 C14.52,9.699 13.09,8.269 11.45,8.659 C10.68,8.849 10.05,9.479 9.86,10.249 C9.47,11.889 10.9,13.319 12.54,12.929 C13.32,12.739 13.95,12.109 14.13,11.339 Z"/>
  <path fill="#292D32" d="M6.021,17.97 C5.841,17.97 5.651,17.9 5.511,17.77 C3.571,15.97 2.461,13.43 2.461,10.79 C2.461,5.53 6.741,1.25 12.001,1.25 C17.261,1.25 21.541,5.53 21.541,10.79 C21.541,13.45 20.471,15.91 18.531,17.74 C18.231,18.02 17.751,18.01 17.471,17.71 C17.191,17.41 17.201,16.93 17.501,16.65 C19.141,15.11 20.041,13.04 20.041,10.8 C20.041,6.37 16.431,2.76 12.001,2.76 C7.571,2.76 3.961,6.37 3.961,10.8 C3.961,13.06 4.871,15.14 6.531,16.68 C6.831,16.96 6.851,17.44 6.571,17.74 C6.421,17.89 6.221,17.97 6.021,17.97 Z"/>
  <path fill="#292D32" d="M15.999,15.299 C15.819,15.299 15.63,15.229 15.489,15.099 C15.19,14.819 15.169,14.339 15.46,14.039 C16.29,13.159 16.75,11.999 16.75,10.799 C16.75,8.179 14.62,6.059 12.009,6.059 C9.4,6.059 7.27,8.189 7.27,10.799 C7.27,12.009 7.73,13.159 8.56,14.039 C8.84,14.339 8.83,14.819 8.53,15.099 C8.23,15.389 7.75,15.369 7.47,15.069 C6.38,13.909 5.77,12.389 5.77,10.799 C5.77,7.359 8.57,4.559 12.009,4.559 C15.45,4.559 18.25,7.359 18.25,10.799 C18.25,12.389 17.649,13.909 16.549,15.069 C16.399,15.219 16.2,15.299 15.999,15.299 Z"/>
  <path fill="#292D32" d="M10.301,16.66 L8.861,18.45 C7.721,19.88 8.741,22 10.561,22 L13.431,22 C15.261,22 16.281,19.88 15.131,18.46 L13.691,16.67 C12.831,15.57 11.171,15.57 10.301,16.66 Z"/>
</svg>

