<svg xmlns="http://www.w3.org/2000/svg" width="24" height="24" viewBox="0 0 24 24">
  <defs/>
  <path fill="#292D32" d="M7.67,2 L5.78,2 C4.74,2 3.8,2.42 3.11,3.11 C2.42,3.8 2,4.74 2,5.78 C2,7.86 3.7,9.56 5.78,9.56 L6.72,9.56 L6.72,17.11 C6.72,17.84 7.14,18.47 7.75,18.78 C8,18.92 8.3,19 8.61,19 C8.83,19 9.05,18.96 9.25,18.88 C9.98,18.62 10.5,17.93 10.5,17.11 L10.5,4.83 C10.5,3.28 9.22,2 7.67,2 Z M5.78,5.97 C6.19,5.97 6.53,6.31 6.53,6.72 C6.53,7.13 6.19,7.47 5.78,7.47 C4.85,7.47 4.09,6.71 4.09,5.77 C4.09,4.83 4.85,4.08 5.78,4.08 C6.19,4.08 6.53,4.42 6.53,4.83 C6.53,5.24 6.19,5.58 5.78,5.58 C5.67,5.58 5.59,5.67 5.59,5.77 C5.59,5.87 5.67,5.97 5.78,5.97 Z"/>
  <path fill="#292D32" d="M20.89,3.11 C20.2,2.42 19.26,2 18.22,2 L16.33,2 C14.77,2 13.5,3.28 13.5,4.83 L13.5,17.11 C13.5,17.93 14.02,18.62 14.75,18.88 C14.95,18.96 15.17,19 15.39,19 C15.7,19 16,18.92 16.25,18.78 C16.86,18.47 17.28,17.84 17.28,17.11 L17.28,9.56 L18.22,9.56 C20.3,9.56 22,7.86 22,5.78 C22,4.74 21.58,3.8 20.89,3.11 Z M18.22,7.47 C17.81,7.47 17.47,7.13 17.47,6.72 C17.47,6.31 17.81,5.97 18.22,5.97 C18.33,5.97 18.41,5.88 18.41,5.77 C18.41,5.66 18.32,5.58 18.22,5.58 C17.81,5.58 17.47,5.24 17.47,4.83 C17.47,4.42 17.81,4.08 18.22,4.08 C19.15,4.08 19.91,4.84 19.91,5.77 C19.91,6.7 19.16,7.47 18.22,7.47 Z"/>
  <path fill="#292D32" d="M9.25,18.881 L9.25,22.001 C9.25,22.411 8.91,22.751 8.5,22.751 C8.09,22.751 7.75,22.411 7.75,22.001 L7.75,18.781 C8,18.921 8.3,19.001 8.61,19.001 C8.83,19.001 9.05,18.961 9.25,18.881 Z"/>
  <path fill="#292D32" d="M16.25,18.781 L16.25,22.001 C16.25,22.411 15.91,22.751 15.5,22.751 C15.09,22.751 14.75,22.411 14.75,22.001 L14.75,18.881 C14.95,18.961 15.17,19.001 15.39,19.001 C15.7,19.001 16,18.921 16.25,18.781 Z"/>
</svg>

