<svg xmlns="http://www.w3.org/2000/svg" width="24" height="24" viewBox="0 0 24 24">
  <defs/>
  <path fill="#292D32" d="M9.961,14.04 L9.961,12.93 C9.961,12.5 9.641,12.29 9.251,12.46 L4.241,14.62 C3.451,14.96 2.811,14.54 2.811,13.69 L2.811,12.37 C2.811,11.69 3.321,10.9 3.951,10.64 L9.651,8.19 C9.811,8.11 9.951,7.9 9.951,7.72 L9.951,4.66 C9.951,3.7 10.661,2.55 11.511,2.11 C11.81,1.96 12.171,1.96 12.47,2.11 C13.331,2.55 14.04,3.69 14.04,4.65 L14.04,7.71 C14.04,7.89 14.181,8.1 14.341,8.18 L15.38,8.62 L9.961,14.04 Z"/>
  <path fill="#292D32" opacity="0.4" d="M21.189,12.37 L21.189,13.69 C21.189,14.54 20.549,14.96 19.759,14.62 L14.749,12.46 C14.349,12.3 14.039,12.5 14.039,12.93 L14.039,15.84 C14.039,16.07 14.169,16.4 14.339,16.56 L16.659,18.89 C16.899,19.13 17.009,19.61 16.899,19.94 L16.449,21.3 C16.249,21.89 15.579,22.16 15.029,21.89 L12.649,19.89 C12.289,19.58 11.699,19.58 11.339,19.89 L8.959,21.89 C8.409,22.17 7.739,21.89 7.559,21.3 L7.109,19.94 C6.999,19.6 7.109,19.13 7.349,18.89 L9.669,16.56 C9.829,16.4 9.959,16.07 9.959,15.84 L9.959,14.04 L15.379,8.62 L20.049,10.63 C20.679,10.9 21.189,11.69 21.189,12.37 Z"/>
</svg>

