<svg xmlns="http://www.w3.org/2000/svg" width="24" height="24" viewBox="0 0 24 24">
  <defs/>
  <path fill="#292D32" d="M15.08,11.342 L8.92,11.342 C8.28,11.342 7.65,11.082 7.2,10.622 C7.06,10.482 6.94,10.332 6.84,10.162 C6.66,9.862 6.34,9.672 5.99,9.672 L3.5,9.672 C2.95,9.672 2.5,10.122 2.5,10.672 L2.5,17.502 C2.5,19.992 4.51,22.002 7,22.002 L17,22.002 C19.49,22.002 21.5,19.992 21.5,17.502 L21.5,10.672 C21.5,10.122 21.05,9.672 20.5,9.672 L18,9.672 C17.64,9.672 17.32,9.872 17.14,10.182 C16.72,10.872 15.95,11.342 15.08,11.342 Z"/>
  <path fill="#292D32" d="M17,2 L7,2 C4.51,2 2.5,4.01 2.5,6.5 L2.5,7.17 C2.5,7.72 2.95,8.17 3.5,8.17 L6,8.17 C6.36,8.17 6.68,7.97 6.86,7.66 C7.28,6.97 8.05,6.5 8.92,6.5 L14.91,6.5 C15.52,6.5 16.4,6.82 16.82,7.25 C16.95,7.38 17.05,7.52 17.15,7.67 C17.33,7.97 17.65,8.17 18.01,8.17 L20.51,8.17 C21.06,8.17 21.51,7.72 21.51,7.17 L21.51,6.5 C21.5,4.01 19.49,2 17,2 Z"/>
</svg>

