<svg xmlns="http://www.w3.org/2000/svg" width="24" height="24" viewBox="0 0 24 24">
  <defs/>
  <path fill="#292D32" d="M10.344,19.573 Q10.276,19.631 10.195,19.671 Q9.585,19.976 8.964,19.711 Q8.347,19.449 8.139,18.807 L7.822,17.856 Q7.52,16.989 8.175,16.335 L9.83,14.709 L9.83,13.248 L6.825,14.539 Q6.036,14.878 5.403,14.462 Q4.77,14.045 4.77,13.19 L4.77,12.26 Q4.77,10.887 6.033,10.341 L9.82,8.707 L9.82,6.8 Q9.82,5.084 11.335,4.339 Q12.015,3.999 12.704,4.344 Q14.21,5.122 14.21,6.8 L14.21,8.707 L17.992,10.339 Q19.26,10.875 19.26,12.26 L19.26,13.19 Q19.26,14.046 18.621,14.463 Q17.984,14.879 17.204,14.539 L14.2,13.248 L14.2,14.709 L15.83,16.35 Q16.48,16.999 16.182,17.857 L15.862,18.817 Q15.648,19.456 15.027,19.715 Q14.4,19.976 13.798,19.667 Q13.72,19.628 13.654,19.571 L12.005,18.169 Z M9.545,18.284 L11.056,17.007 Q11.987,16.225 12.941,16.997 Q12.949,17.002 12.956,17.009 L14.458,18.286 L14.754,17.395 L13.128,15.759 Q12.7,15.331 12.7,14.72 L12.7,12.87 Q12.7,12.15 13.243,11.795 Q13.777,11.446 14.435,11.716 L17.76,13.145 L17.76,12.26 Q17.76,11.869 17.408,11.721 L13.463,10.019 Q12.71,9.709 12.71,8.87 L12.71,6.8 Q12.71,6.035 12.016,5.676 Q12.015,5.676 12.005,5.681 Q11.32,6.018 11.32,6.8 L11.32,8.87 Q11.32,9.689 10.571,10.017 L6.627,11.719 Q6.27,11.873 6.27,12.26 L6.27,13.145 L9.584,11.721 Q10.234,11.43 10.784,11.792 Q11.33,12.15 11.33,12.87 L11.33,14.72 Q11.33,15.331 10.9,15.76 L9.246,17.385 L9.545,18.284 Z M14.068,8.646 Q14.063,8.644 14.057,8.641 L14.068,8.646 Z"/>
  <path fill="#292D32" d="M9,22.75 Q1.25,22.75 1.25,15 L1.25,9 Q1.25,1.25 9,1.25 L15,1.25 Q22.75,1.25 22.75,9 L22.75,15 Q22.75,22.75 15,22.75 Z M9,21.25 L15,21.25 Q18.439,21.25 19.845,19.845 Q21.25,18.439 21.25,15 L21.25,9 Q21.25,2.75 15,2.75 L9,2.75 Q2.75,2.75 2.75,9 L2.75,15 Q2.75,18.439 4.155,19.845 Q5.561,21.25 9,21.25 Z"/>
</svg>

