<svg xmlns="http://www.w3.org/2000/svg" width="24" height="24" viewBox="0 0 24 24">
  <defs/>
  <path fill="#292D32" d="M15.12,22.75 L8.88,22.75 C4.85,22.75 2.44,21.96 2,17.91 C1.92,17.33 1.88,16.64 1.88,15.75 L1.88,8.25 C1.88,7.39 1.92,6.68 2,6.08 C2.46,2.02 4.77,1.25 8.89,1.25 L15.14,1.25 C19.26,1.25 21.58,2.02 22.02,6.1 C22.12,6.77 22.14,7.53 22.14,8.25 L22.14,15.75 C22.14,16.62 22.1,17.31 22.02,17.93 C21.56,21.98 19.24,22.75 15.12,22.75 Z M8.88,2.75 C4.63,2.75 3.77,3.67 3.48,6.26 C3.4,6.81 3.37,7.46 3.37,8.25 L3.37,15.75 C3.37,16.57 3.41,17.19 3.48,17.72 C3.77,20.33 4.62,21.25 8.88,21.25 L15.12,21.25 C19.37,21.25 20.23,20.33 20.52,17.75 C20.59,17.2 20.63,16.55 20.63,15.75 L20.63,8.25 C20.63,7.59 20.62,6.89 20.53,6.29 C20.24,3.67 19.39,2.75 15.13,2.75 L8.88,2.75 Z"/>
  <path fill="#292D32" d="M21.23,9.67 L17.13,9.67 C16.72,9.67 16.38,9.33 16.38,8.92 C16.38,8.51 16.72,8.17 17.13,8.17 L21.23,8.17 C21.64,8.17 21.98,8.51 21.98,8.92 C21.98,9.33 21.64,9.67 21.23,9.67 Z"/>
  <path fill="#292D32" d="M6.87,9.67 L2.77,9.67 C2.36,9.67 2.02,9.33 2.02,8.92 C2.02,8.51 2.36,8.17 2.77,8.17 L6.87,8.17 C7.28,8.17 7.62,8.51 7.62,8.92 C7.62,9.33 7.28,9.67 6.87,9.67 Z"/>
  <path fill="#292D32" d="M15.08,11.72 L8.92,11.72 C8.17,11.72 7.45,11.42 6.93,10.88 C6.41,10.38 6.12,9.67 6.12,8.92 C6.12,7.38 7.38,6.12 8.92,6.12 L15.07,6.12 C15.82,6.12 16.54,6.43 17.06,6.96 C17.58,7.47 17.88,8.17 17.88,8.92 C17.88,10.46 16.62,11.72 15.08,11.72 Z M8.92,7.62 C8.2,7.62 7.62,8.2 7.62,8.92 C7.62,9.27 7.75,9.59 7.99,9.82 C8.24,10.08 8.57,10.22 8.92,10.22 L15.08,10.22 C15.8,10.22 16.38,9.64 16.38,8.92 C16.38,8.58 16.24,8.26 16,8.02 C15.75,7.76 15.42,7.62 15.07,7.62 L8.92,7.62 Z"/>
</svg>

