<svg xmlns="http://www.w3.org/2000/svg" width="24" height="24" viewBox="0 0 24 24">
  <defs/>
  <path fill="#292D32" d="M8.61,19.75 C7.15,19.75 5.97,18.57 5.97,17.11 L5.97,10.3 L5.77,10.3 C3.27,10.3 1.24,8.27 1.24,5.77 C1.24,3.27 3.27,1.24 5.77,1.24 L7.66,1.24 C9.64,1.24 11.24,2.85 11.24,4.82 L11.24,17.1 C11.25,18.57 10.07,19.75 8.61,19.75 Z M5.78,2.75 C4.11,2.75 2.75,4.11 2.75,5.78 C2.75,7.45 4.11,8.81 5.78,8.81 L6.73,8.81 C7.14,8.81 7.48,9.15 7.48,9.56 L7.48,17.12 C7.48,17.75 7.99,18.26 8.62,18.26 C9.25,18.26 9.76,17.75 9.76,17.12 L9.76,4.84 C9.76,3.69 8.83,2.76 7.68,2.76 L5.78,2.76 L5.78,2.75 Z"/>
  <path fill="#292D32" d="M5.78,7.47 C4.85,7.47 4.09,6.71 4.09,5.77 C4.09,4.83 4.85,4.08 5.78,4.08 C6.19,4.08 6.53,4.42 6.53,4.83 C6.53,5.24 6.19,5.58 5.78,5.58 C5.67,5.58 5.59,5.67 5.59,5.77 C5.59,5.87 5.68,5.97 5.78,5.97 C6.19,5.97 6.53,6.31 6.53,6.72 C6.53,7.13 6.19,7.47 5.78,7.47 Z"/>
  <path fill="#292D32" d="M15.39,19.75 C13.93,19.75 12.75,18.57 12.75,17.11 L12.75,4.83 C12.75,2.85 14.36,1.25 16.33,1.25 L18.22,1.25 C20.72,1.25 22.75,3.28 22.75,5.78 C22.75,8.28 20.72,10.31 18.22,10.31 L18.02,10.31 L18.02,17.12 C18.03,18.57 16.84,19.75 15.39,19.75 Z M16.33,2.75 C15.18,2.75 14.25,3.68 14.25,4.83 L14.25,17.11 C14.25,17.74 14.76,18.25 15.39,18.25 C16.02,18.25 16.53,17.74 16.53,17.11 L16.53,9.55 C16.53,9.14 16.87,8.8 17.28,8.8 L18.23,8.8 C19.9,8.8 21.26,7.44 21.26,5.77 C21.26,4.1 19.9,2.74 18.23,2.74 L16.33,2.74 L16.33,2.75 Z"/>
  <path fill="#292D32" d="M18.22,7.47 C17.81,7.47 17.47,7.13 17.47,6.72 C17.47,6.31 17.81,5.97 18.22,5.97 C18.33,5.97 18.41,5.88 18.41,5.77 C18.41,5.66 18.32,5.58 18.22,5.58 C17.81,5.58 17.47,5.24 17.47,4.83 C17.47,4.42 17.81,4.08 18.22,4.08 C19.15,4.08 19.91,4.84 19.91,5.77 C19.91,6.7 19.16,7.47 18.22,7.47 Z"/>
  <path fill="#292D32" d="M8.5,22.75 C8.09,22.75 7.75,22.41 7.75,22 L7.75,19 C7.75,18.59 8.09,18.25 8.5,18.25 C8.91,18.25 9.25,18.59 9.25,19 L9.25,22 C9.25,22.41 8.91,22.75 8.5,22.75 Z"/>
  <path fill="#292D32" d="M15.5,22.75 C15.09,22.75 14.75,22.41 14.75,22 L14.75,19 C14.75,18.59 15.09,18.25 15.5,18.25 C15.91,18.25 16.25,18.59 16.25,19 L16.25,22 C16.25,22.41 15.91,22.75 15.5,22.75 Z"/>
</svg>

