<svg xmlns="http://www.w3.org/2000/svg" width="24" height="24" viewBox="0 0 24 24">
  <defs/>
  <path fill="#292D32" d="M1.87,15.75 L1.87,8.25 Q1.87,6.97 1.986,6.082 Q2.53,1.25 8.88,1.25 L15.13,1.25 Q21.476,1.25 22.014,6.084 Q22.13,6.883 22.13,8.25 L22.13,15.75 Q22.13,17.026 22.014,17.926 Q21.47,22.75 15.12,22.75 L8.88,22.75 Q2.534,22.75 1.996,17.925 Q1.87,17.048 1.87,15.75 Z M3.37,15.75 Q3.37,16.949 3.482,17.722 Q3.484,17.735 3.486,17.748 Q3.713,19.821 4.775,20.518 Q5.888,21.25 8.88,21.25 L15.12,21.25 Q18.117,21.25 19.231,20.518 Q20.291,19.822 20.526,17.734 Q20.63,16.929 20.63,15.75 L20.63,8.25 Q20.63,6.981 20.528,6.289 Q20.526,6.276 20.525,6.262 Q20.297,4.182 19.235,3.483 Q18.122,2.75 15.13,2.75 L8.88,2.75 Q5.883,2.75 4.77,3.483 Q3.71,4.181 3.474,6.278 Q3.37,7.068 3.37,8.25 Z"/>
  <g opacity="0.4">
    <path fill="#292D32" d="M21.23,9.67 L17.13,9.67 Q16.819,9.67 16.6,9.45 Q16.38,9.231 16.38,8.92 Q16.38,8.609 16.6,8.39 Q16.819,8.17 17.13,8.17 L21.23,8.17 Q21.541,8.17 21.76,8.39 Q21.98,8.609 21.98,8.92 Q21.98,9.231 21.76,9.45 Q21.541,9.67 21.23,9.67 Z"/>
    <path fill="#292D32" d="M6.87,9.67 L2.77,9.67 Q2.459,9.67 2.239,9.45 Q2.02,9.231 2.02,8.92 Q2.02,8.609 2.239,8.39 Q2.459,8.17 2.77,8.17 L6.87,8.17 Q7.18,8.17 7.4,8.39 Q7.62,8.609 7.62,8.92 Q7.62,9.231 7.4,9.45 Q7.18,9.67 6.87,9.67 Z"/>
    <path fill="#292D32" d="M17.88,8.92 Q17.88,10.078 17.059,10.899 Q16.238,11.72 15.08,11.72 L8.92,11.72 Q7.753,11.72 6.94,10.891 Q6.12,10.088 6.12,8.92 Q6.12,7.762 6.941,6.941 Q7.762,6.12 8.92,6.12 L15.07,6.12 Q16.238,6.12 17.05,6.95 Q17.88,7.762 17.88,8.92 Z M16.38,8.92 Q16.38,8.391 15.997,8.017 Q15.99,8.01 15.983,8.003 Q15.61,7.62 15.07,7.62 L8.92,7.62 Q7.62,7.62 7.62,8.92 Q7.62,9.46 7.993,9.823 Q8,9.83 8.007,9.837 Q8.381,10.22 8.92,10.22 L15.08,10.22 Q16.38,10.22 16.38,8.92 Z"/>
  </g>
</svg>

