<svg xmlns="http://www.w3.org/2000/svg" width="24" height="24" viewBox="0 0 24 24">
  <defs/>
  <path fill="#292D32" d="M9.513,22.264 Q9.447,22.319 9.37,22.358 Q8.649,22.725 7.906,22.414 Q7.163,22.102 6.928,21.345 L6.489,20.017 Q6.145,18.985 6.909,18.221 L9.18,15.939 Q9.25,15.869 9.25,15.76 L9.25,13.288 L4.686,15.259 Q3.738,15.665 2.99,15.176 Q2.24,14.684 2.24,13.65 L2.24,12.36 Q2.24,10.62 3.821,9.978 L9.24,7.637 L9.24,4.8 Q9.24,2.634 11.185,1.639 Q11.995,1.234 12.812,1.642 Q14.75,2.634 14.75,4.79 L14.75,7.627 L20.18,9.968 Q21.76,10.631 21.76,12.36 L21.76,13.65 Q21.76,14.684 21.01,15.176 Q20.263,15.665 19.313,15.258 L14.75,13.288 L14.75,15.76 Q14.75,15.863 14.814,15.924 Q14.823,15.932 14.832,15.941 L17.101,18.219 Q17.874,18.993 17.522,20.015 L17.079,21.354 Q16.819,22.108 16.084,22.412 Q15.346,22.716 14.635,22.361 Q14.555,22.321 14.487,22.264 L12.152,20.299 Q12,20.169 11.843,20.304 Z M8.634,21.043 L10.877,19.156 Q12,18.193 13.128,19.16 L15.362,21.04 Q15.436,21.057 15.512,21.025 Q15.622,20.98 15.661,20.865 L16.098,19.544 Q16.151,19.391 16.04,19.28 L13.776,17.007 Q13.25,16.505 13.25,15.76 L13.25,12.91 Q13.25,12.19 13.794,11.834 Q14.327,11.486 14.985,11.756 L19.908,13.881 Q20.114,13.97 20.188,13.921 Q20.26,13.874 20.26,13.65 L20.26,12.36 Q20.26,11.628 19.6,11.351 L14.003,8.938 Q13.25,8.609 13.25,7.79 L13.25,4.79 Q13.25,3.552 12.128,2.977 Q11.995,2.911 11.856,2.981 Q10.74,3.552 10.74,4.8 L10.74,7.8 Q10.74,8.619 9.991,8.947 L4.408,11.358 Q4.399,11.362 4.391,11.365 Q3.74,11.628 3.74,12.36 L3.74,13.65 Q3.74,13.874 3.812,13.921 Q3.887,13.97 4.095,13.88 L9.003,11.761 Q9.654,11.47 10.204,11.832 Q10.75,12.19 10.75,12.91 L10.75,15.76 Q10.75,16.49 10.241,17 L7.972,19.279 Q7.861,19.39 7.912,19.543 L8.352,20.874 Q8.388,20.989 8.487,21.031 Q8.56,21.062 8.634,21.043 Z"/>
</svg>

