<svg xmlns="http://www.w3.org/2000/svg" width="24" height="24" viewBox="0 0 24 24">
  <defs/>
  <path fill="#292D32" d="M14.46,19.83 C14.229,19.83 13.999,19.78 13.79,19.67 C13.739,19.64 13.69,19.61 13.649,19.57 L11.979,18.15 L10.339,19.57 C10.29,19.61 10.239,19.64 10.19,19.67 C9.8,19.86 9.36,19.88 8.97,19.71 C8.57,19.54 8.27,19.21 8.13,18.8 L7.81,17.84 C7.64,17.34 7.79,16.71 8.16,16.33 L9.83,14.69 L9.82,13.24 L6.81,14.53 C6.31,14.74 5.79,14.72 5.39,14.45 C5,14.2 4.77,13.73 4.77,13.19 L4.77,12.26 C4.77,11.48 5.31,10.65 6.03,10.34 L9.82,8.71 L9.82,6.8 C9.82,5.82 10.47,4.76 11.339,4.34 C11.77,4.13 12.259,4.13 12.69,4.34 C13.559,4.79 14.21,5.85 14.21,6.8 L14.21,8.71 L18,10.34 C18.72,10.64 19.259,11.47 19.259,12.26 L19.259,13.19 C19.259,13.73 19.029,14.2 18.619,14.46 C18.209,14.72 17.7,14.75 17.2,14.54 L14.2,13.25 L14.2,14.72 L15.829,16.35 C16.2,16.72 16.349,17.36 16.18,17.86 L15.86,18.81 C15.72,19.22 15.419,19.55 15.02,19.71 C14.839,19.79 14.649,19.83 14.46,19.83 Z M11.999,16.67 C12.339,16.67 12.669,16.78 12.94,16.99 L14.489,18.31 L14.759,17.38 L13.13,15.76 C12.87,15.51 12.7,15.09 12.7,14.72 L12.7,12.87 C12.7,12.42 12.889,12.03 13.229,11.8 C13.569,11.57 14.009,11.54 14.43,11.72 L17.75,13.14 L17.759,12.26 C17.759,12.07 17.579,11.79 17.41,11.72 L13.46,10.02 C13.03,9.84 12.71,9.36 12.71,8.87 L12.71,6.8 C12.71,6.41 12.37,5.86 12.02,5.68 C11.659,5.86 11.319,6.4 11.319,6.8 L11.319,8.87 C11.319,9.34 11.009,9.83 10.569,10.02 L6.63,11.72 C6.46,11.79 6.27,12.08 6.27,12.26 L6.27,13.14 L9.58,11.73 C9.99,11.55 10.419,11.57 10.77,11.8 C11.12,12.03 11.319,12.42 11.319,12.88 L11.319,14.73 C11.319,15.09 11.149,15.51 10.889,15.77 L9.21,17.42 L9.53,18.3 L11.04,17.02 C11.319,16.79 11.659,16.67 11.999,16.67 Z M14.05,8.64 L14.059,8.65 C14.059,8.64 14.05,8.64 14.05,8.64 Z"/>
  <path fill="#292D32" d="M15,22.75 L9,22.75 C3.57,22.75 1.25,20.43 1.25,15 L1.25,9 C1.25,3.57 3.57,1.25 9,1.25 L15,1.25 C20.43,1.25 22.75,3.57 22.75,9 L22.75,15 C22.75,20.43 20.43,22.75 15,22.75 Z M9,2.75 C4.39,2.75 2.75,4.39 2.75,9 L2.75,15 C2.75,19.61 4.39,21.25 9,21.25 L15,21.25 C19.61,21.25 21.25,19.61 21.25,15 L21.25,9 C21.25,4.39 19.61,2.75 15,2.75 L9,2.75 Z"/>
</svg>

