<svg xmlns="http://www.w3.org/2000/svg" width="24" height="24" viewBox="0 0 24 24">
  <defs/>
  <path fill="#292D32" d="M5.97,10.31 L5.78,10.31 Q3.909,10.31 2.58,8.98 Q1.25,7.651 1.25,5.78 Q1.25,3.909 2.58,2.58 Q3.909,1.25 5.78,1.25 L7.67,1.25 Q11.25,1.25 11.25,4.83 L11.25,17.1 Q11.25,18.191 10.475,18.965 Q9.701,19.74 8.61,19.74 Q5.97,19.74 5.97,17.1 L5.97,10.31 Z M6.72,8.81 Q7.031,8.81 7.25,9.03 Q7.47,9.249 7.47,9.56 L7.47,17.1 Q7.47,17.569 7.805,17.905 Q8.141,18.24 8.61,18.24 Q9.75,18.24 9.75,17.1 L9.75,4.83 Q9.75,2.75 7.67,2.75 L5.78,2.75 Q2.75,2.75 2.75,5.78 Q2.75,8.81 5.78,8.81 Z"/>
  <path fill="#292D32" opacity="0.4" d="M5.78,7.47 Q4.09,7.47 4.09,5.78 Q4.09,5.079 4.585,4.585 Q5.079,4.09 5.78,4.09 Q6.091,4.09 6.31,4.31 Q6.53,4.529 6.53,4.84 Q6.53,5.15 6.31,5.37 Q6.091,5.59 5.78,5.59 Q5.701,5.59 5.645,5.645 Q5.59,5.701 5.59,5.78 Q5.59,5.97 5.78,5.97 Q6.091,5.97 6.31,6.189 Q6.53,6.409 6.53,6.72 Q6.53,7.03 6.31,7.25 Q6.091,7.47 5.78,7.47 Z"/>
  <path fill="#292D32" d="M18.03,10.31 L18.03,17.1 Q18.03,18.191 17.255,18.965 Q16.481,19.74 15.39,19.74 Q14.299,19.74 13.525,18.965 Q12.75,18.191 12.75,17.1 L12.75,4.83 Q12.75,1.25 16.33,1.25 L18.22,1.25 Q20.091,1.25 21.42,2.58 Q22.75,3.909 22.75,5.78 Q22.75,7.651 21.42,8.98 Q20.091,10.31 18.22,10.31 L18.03,10.31 Z M17.28,8.81 L18.22,8.81 Q19.469,8.81 20.36,7.92 Q21.25,7.029 21.25,5.78 Q21.25,2.75 18.22,2.75 L16.33,2.75 Q14.25,2.75 14.25,4.83 L14.25,17.1 Q14.25,18.24 15.39,18.24 Q16.53,18.24 16.53,17.1 L16.53,9.56 Q16.53,9.249 16.75,9.03 Q16.969,8.81 17.28,8.81 Z"/>
  <path fill="#292D32" opacity="0.4" d="M18.22,5.97 Q18.41,5.97 18.41,5.78 Q18.41,5.59 18.22,5.59 Q17.909,5.59 17.689,5.37 Q17.47,5.15 17.47,4.84 Q17.47,4.529 17.689,4.31 Q17.909,4.09 18.22,4.09 Q19.91,4.09 19.91,5.78 Q19.91,7.47 18.22,7.47 Q17.909,7.47 17.689,7.25 Q17.47,7.03 17.47,6.72 Q17.47,6.409 17.689,6.189 Q17.909,5.97 18.22,5.97 Z"/>
  <path fill="#292D32" opacity="0.4" d="M7.75,22 L7.75,19 Q7.75,18.689 7.97,18.47 Q8.189,18.25 8.5,18.25 Q8.811,18.25 9.03,18.47 Q9.25,18.689 9.25,19 L9.25,22 Q9.25,22.311 9.03,22.53 Q8.811,22.75 8.5,22.75 Q8.189,22.75 7.97,22.53 Q7.75,22.311 7.75,22 Z"/>
  <path fill="#292D32" opacity="0.4" d="M14.75,22 L14.75,19 Q14.75,18.689 14.97,18.47 Q15.189,18.25 15.5,18.25 Q15.811,18.25 16.03,18.47 Q16.25,18.689 16.25,19 L16.25,22 Q16.25,22.311 16.03,22.53 Q15.811,22.75 15.5,22.75 Q15.189,22.75 14.97,22.53 Q14.75,22.311 14.75,22 Z"/>
</svg>

