<svg xmlns="http://www.w3.org/2000/svg" width="24" height="24" viewBox="0 0 24 24">
  <defs/>
  <path fill="#292D32" opacity="0.4" d="M21.5,6.5 L21.5,17.5 C21.5,19.99 19.49,22 17,22 L7,22 C4.51,22 2.5,19.99 2.5,17.5 L2.5,6.5 C2.5,4.01 4.51,2 7,2 L17,2 C19.49,2 21.5,4.01 21.5,6.5 Z"/>
  <path fill="#292D32" d="M21.5,8.17 L21.5,9.67 L17.37,9.67 C17.06,10.64 16.15,11.34 15.08,11.34 L8.92,11.34 C8.28,11.34 7.65,11.08 7.2,10.62 C6.93,10.36 6.74,10.03 6.62,9.67 L2.5,9.67 L2.5,8.17 L6.63,8.17 C6.94,7.2 7.85,6.5 8.92,6.5 L15.07,6.5 C15.72,6.5 16.34,6.76 16.79,7.22 C17.06,7.49 17.26,7.81 17.37,8.17 L21.5,8.17 Z"/>
</svg>

