<svg xmlns="http://www.w3.org/2000/svg" width="24" height="24" viewBox="0 0 24 24">
  <defs/>
  <path fill="#292D32" d="M20.049,10.629 L15.379,8.619 L14.339,8.179 C14.179,8.099 14.039,7.889 14.039,7.709 L14.039,4.649 C14.039,3.689 13.329,2.549 12.469,2.109 C12.169,1.959 11.809,1.959 11.509,2.109 C10.659,2.549 9.949,3.699 9.949,4.659 L9.949,7.719 C9.949,7.899 9.809,8.109 9.649,8.189 L3.949,10.639 C3.319,10.899 2.809,11.689 2.809,12.369 L2.809,13.689 C2.809,14.539 3.449,14.959 4.239,14.619 L9.249,12.459 C9.639,12.289 9.959,12.499 9.959,12.929 L9.959,14.039 L9.959,15.839 C9.959,16.069 9.829,16.399 9.669,16.559 L7.349,18.889 C7.109,19.129 6.999,19.599 7.109,19.939 L7.559,21.299 C7.739,21.889 8.409,22.169 8.959,21.889 L11.339,19.889 C11.699,19.579 12.289,19.579 12.649,19.889 L15.029,21.889 C15.579,22.159 16.249,21.889 16.449,21.299 L16.899,19.939 C17.009,19.609 16.899,19.129 16.659,18.889 L14.339,16.559 C14.169,16.399 14.039,16.069 14.039,15.839 L14.039,12.929 C14.039,12.499 14.349,12.299 14.749,12.459 L19.759,14.619 C20.549,14.959 21.189,14.539 21.189,13.689 L21.189,12.369 C21.189,11.689 20.679,10.899 20.049,10.629 Z"/>
</svg>

