<svg xmlns="http://www.w3.org/2000/svg" width="24" height="24" viewBox="0 0 24 24">
  <defs/>
  <path fill="#292D32" opacity="0.4" d="M16.19,2 L7.81,2 C4.17,2 2,4.17 2,7.81 L2,16.18 C2,19.83 4.17,22 7.81,22 L16.18,22 C19.82,22 21.99,19.83 21.99,16.19 L21.99,7.81 C22,4.17 19.83,2 16.19,2 Z"/>
  <path fill="#292D32" d="M9.86,19 L11.54,17.58 C11.79,17.37 12.21,17.37 12.47,17.58 L14.139,19 C14.53,19.2 15.009,19 15.149,18.58 L15.47,17.62 C15.55,17.39 15.47,17.05 15.3,16.88 L13.659,15.23 C13.54,15.11 13.45,14.88 13.45,14.72 L13.45,12.87 C13.45,12.45 13.759,12.25 14.149,12.41 L17.5,13.85 C18.049,14.09 18.509,13.79 18.509,13.19 L18.509,12.26 C18.509,11.78 18.149,11.22 17.7,11.03 L13.759,9.33 C13.589,9.26 13.46,9.05 13.46,8.87 L13.46,6.8 C13.46,6.12 12.96,5.32 12.36,5.01 C12.139,4.9 11.889,4.9 11.669,5.01 C11.059,5.31 10.569,6.12 10.569,6.8 L10.569,8.87 C10.569,9.05 10.43,9.26 10.27,9.33 L6.33,11.03 C5.89,11.22 5.52,11.78 5.52,12.26 L5.52,13.19 C5.52,13.79 5.97,14.09 6.53,13.85 L9.88,12.41 C10.259,12.24 10.579,12.45 10.579,12.87 L10.579,14.72 C10.579,14.89 10.479,15.12 10.37,15.23 L8.7,16.87 C8.53,17.04 8.45,17.38 8.53,17.61 L8.85,18.57 C8.99,19 9.46,19.2 9.86,19 Z"/>
</svg>

