<svg xmlns="http://www.w3.org/2000/svg" width="24" height="24" viewBox="0 0 24 24">
  <defs/>
  <path fill="#292D32" d="M16.19,2 L7.81,2 C4.17,2 2,4.17 2,7.81 L2,16.18 C2,19.83 4.17,22 7.81,22 L16.18,22 C19.82,22 21.99,19.83 21.99,16.19 L21.99,7.81 C22,4.17 19.83,2 16.19,2 Z M18.51,13.19 C18.51,13.79 18.05,14.09 17.5,13.85 L14.15,12.41 C13.76,12.25 13.45,12.45 13.45,12.87 L13.45,14.72 C13.45,14.88 13.54,15.11 13.66,15.23 L15.3,16.88 C15.47,17.05 15.55,17.39 15.47,17.62 L15.15,18.58 C15.01,19 14.53,19.2 14.14,19 L12.47,17.58 C12.21,17.37 11.79,17.37 11.54,17.58 L9.86,19 C9.46,19.2 8.99,19 8.85,18.57 L8.53,17.61 C8.45,17.38 8.53,17.04 8.7,16.87 L10.37,15.23 C10.48,15.12 10.58,14.89 10.58,14.72 L10.58,12.87 C10.58,12.45 10.26,12.24 9.88,12.41 L6.53,13.85 C5.97,14.09 5.52,13.79 5.52,13.19 L5.52,12.26 C5.52,11.78 5.89,11.22 6.33,11.03 L10.27,9.33 C10.43,9.26 10.57,9.05 10.57,8.87 L10.57,6.8 C10.57,6.12 11.06,5.31 11.67,5.01 C11.89,4.9 12.14,4.9 12.36,5.01 C12.96,5.32 13.46,6.12 13.46,6.8 L13.46,8.87 C13.46,9.05 13.59,9.26 13.76,9.33 L17.7,11.03 C18.15,11.22 18.51,11.78 18.51,12.26 L18.51,13.19 Z"/>
</svg>

