<svg xmlns="http://www.w3.org/2000/svg" width="24" height="24" viewBox="0 0 24 24">
  <defs/>
  <path fill="#292D32" d="M8.58,22.55 C8.36,22.55 8.13,22.51 7.92,22.42 C7.45,22.22 7.09,21.83 6.93,21.34 L6.49,20.02 C6.29,19.42 6.47,18.67 6.91,18.22 L9.18,15.94 C9.21,15.91 9.25,15.8 9.25,15.75 L9.25,13.28 L4.69,15.25 C4.08,15.51 3.46,15.48 2.99,15.17 C2.52,14.86 2.24,14.3 2.24,13.65 L2.24,12.36 C2.24,11.38 2.94,10.33 3.83,9.98 L9.24,7.64 L9.24,4.8 C9.24,3.59 10.09,2.2 11.17,1.64 C11.69,1.38 12.29,1.38 12.8,1.64 C13.89,2.2 14.74,3.58 14.74,4.79 L14.74,7.63 L20.18,9.97 C21.07,10.35 21.75,11.37 21.75,12.36 L21.75,13.65 C21.75,14.31 21.48,14.86 21,15.17 C20.52,15.48 19.91,15.51 19.3,15.26 L14.74,13.29 L14.74,15.76 C14.74,15.8 14.78,15.9 14.81,15.93 L17.09,18.22 C17.53,18.66 17.71,19.43 17.51,20.02 L17.07,21.34 C16.9,21.83 16.54,22.22 16.06,22.41 C15.59,22.6 15.07,22.58 14.62,22.36 C14.57,22.33 14.52,22.3 14.47,22.26 L12.14,20.3 C12.06,20.23 11.9,20.24 11.83,20.3 L9.5,22.26 C9.46,22.3 9.41,22.33 9.36,22.35 C9.12,22.49 8.85,22.55 8.58,22.55 Z M9.56,11.64 C9.79,11.64 10.01,11.7 10.2,11.83 C10.55,12.06 10.75,12.45 10.75,12.91 L10.75,15.76 C10.75,16.19 10.54,16.7 10.24,17 L7.97,19.28 C7.93,19.33 7.89,19.48 7.91,19.54 L8.35,20.87 C8.38,20.97 8.45,21.01 8.49,21.03 C8.52,21.04 8.57,21.06 8.63,21.04 L10.87,19.15 C11.5,18.61 12.49,18.61 13.12,19.15 L15.35,21.03 C15.42,21.04 15.47,21.03 15.5,21.02 C15.54,21 15.62,20.96 15.65,20.86 L16.09,19.54 C16.11,19.47 16.07,19.32 16.03,19.28 L13.76,17 C13.46,16.72 13.24,16.2 13.24,15.76 L13.24,12.91 C13.24,12.46 13.43,12.07 13.77,11.84 C14.11,11.61 14.55,11.58 14.97,11.76 L19.89,13.88 C20.04,13.94 20.14,13.94 20.17,13.92 C20.2,13.9 20.24,13.81 20.24,13.65 L20.24,12.36 C20.24,11.98 19.92,11.49 19.58,11.35 L14,8.94 C13.56,8.75 13.25,8.27 13.25,7.79 L13.25,4.79 C13.25,4.13 12.73,3.28 12.13,2.98 C12.05,2.94 11.95,2.94 11.86,2.98 C11.28,3.28 10.75,4.15 10.75,4.8 L10.75,7.8 C10.75,8.27 10.44,8.76 10,8.95 L4.42,11.36 C4.07,11.5 3.75,11.99 3.75,12.36 L3.75,13.65 C3.75,13.81 3.79,13.9 3.82,13.92 C3.85,13.94 3.95,13.94 4.1,13.88 L9.01,11.76 C9.19,11.68 9.38,11.64 9.56,11.64 Z"/>
</svg>

