<svg xmlns="http://www.w3.org/2000/svg" width="24" height="24" viewBox="0 0 24 24">
  <defs/>
  <path fill="#292D32" opacity="0.4" d="M10.5,4.83 L10.5,17.11 C10.5,17.93 9.98,18.62 9.25,18.88 C9.05,18.96 8.83,19 8.61,19 C8.3,19 8,18.92 7.75,18.78 C7.14,18.47 6.72,17.84 6.72,17.11 L6.72,9.56 L5.78,9.56 C3.7,9.56 2,7.86 2,5.78 C2,4.74 2.42,3.8 3.11,3.11 C3.8,2.42 4.74,2 5.78,2 L7.67,2 C9.22,2 10.5,3.28 10.5,4.83 Z"/>
  <path fill="#292D32" d="M5.78,7.47 C4.85,7.47 4.09,6.71 4.09,5.77 C4.09,4.83 4.85,4.08 5.78,4.08 C6.19,4.08 6.53,4.42 6.53,4.83 C6.53,5.24 6.19,5.58 5.78,5.58 C5.67,5.58 5.59,5.67 5.59,5.77 C5.59,5.87 5.68,5.97 5.78,5.97 C6.19,5.97 6.53,6.31 6.53,6.72 C6.53,7.13 6.19,7.47 5.78,7.47 Z"/>
  <path fill="#292D32" opacity="0.4" d="M22,5.78 C22,7.86 20.3,9.56 18.22,9.56 L17.28,9.56 L17.28,17.11 C17.28,17.84 16.86,18.47 16.25,18.78 C16,18.92 15.7,19 15.39,19 C15.17,19 14.95,18.96 14.75,18.88 C14.02,18.62 13.5,17.93 13.5,17.11 L13.5,4.83 C13.5,3.28 14.77,2 16.33,2 L18.22,2 C19.26,2 20.2,2.42 20.89,3.11 C21.58,3.8 22,4.74 22,5.78 Z"/>
  <path fill="#292D32" d="M18.221,7.47 C17.811,7.47 17.471,7.13 17.471,6.72 C17.471,6.31 17.811,5.97 18.221,5.97 C18.331,5.97 18.411,5.88 18.411,5.77 C18.411,5.66 18.321,5.58 18.221,5.58 C17.811,5.58 17.471,5.24 17.471,4.83 C17.471,4.42 17.811,4.08 18.221,4.08 C19.151,4.08 19.911,4.84 19.911,5.77 C19.911,6.7 19.161,7.47 18.221,7.47 Z"/>
  <path fill="#292D32" d="M9.25,18.88 L9.25,22 C9.25,22.41 8.91,22.75 8.5,22.75 C8.09,22.75 7.75,22.41 7.75,22 L7.75,18.78 C8,18.92 8.3,19 8.61,19 C8.83,19 9.05,18.96 9.25,18.88 Z"/>
  <path fill="#292D32" d="M16.25,18.78 L16.25,22 C16.25,22.41 15.91,22.75 15.5,22.75 C15.09,22.75 14.75,22.41 14.75,22 L14.75,18.88 C14.95,18.96 15.17,19 15.39,19 C15.7,19 16,18.92 16.25,18.78 Z"/>
</svg>

