<svg xmlns="http://www.w3.org/2000/svg" width="24" height="24" viewBox="0 0 24 24">
  <defs/>
  <path fill="#292D32" d="M2,21.25 L22,21.25 Q22.311,21.25 22.53,21.47 Q22.75,21.689 22.75,22 Q22.75,22.311 22.53,22.53 Q22.311,22.75 22,22.75 L2,22.75 Q1.689,22.75 1.47,22.53 Q1.25,22.311 1.25,22 Q1.25,21.689 1.47,21.47 Q1.689,21.25 2,21.25 Z"/>
  <path fill="#292D32" d="M20.25,16.03 L20.25,15 Q20.25,11.583 17.833,9.167 Q15.417,6.75 12,6.75 Q10.071,6.75 8.333,7.612 Q7.305,8.126 6.472,8.877 Q3.75,11.345 3.75,15 L3.75,21.25 L20.25,21.25 L20.25,19.97 Q20.25,19.659 20.47,19.44 Q20.689,19.22 21,19.22 Q21.311,19.22 21.53,19.44 Q21.75,19.659 21.75,19.97 L21.75,22 Q21.75,22.311 21.53,22.53 Q21.311,22.75 21,22.75 L3,22.75 Q2.689,22.75 2.47,22.53 Q2.25,22.311 2.25,22 L2.25,15 Q2.25,10.68 5.468,7.763 Q6.452,6.875 7.667,6.268 Q9.72,5.25 12,5.25 Q16.038,5.25 18.894,8.106 Q21.75,10.962 21.75,15 L21.75,16.03 Q21.75,16.341 21.53,16.56 Q21.311,16.78 21,16.78 Q20.689,16.78 20.47,16.56 Q20.25,16.341 20.25,16.03 Z"/>
  <path fill="#292D32" d="M12.75,2 L12.75,3 Q12.75,3.311 12.53,3.53 Q12.311,3.75 12,3.75 Q11.689,3.75 11.47,3.53 Q11.25,3.311 11.25,3 L11.25,2 Q11.25,1.689 11.47,1.47 Q11.689,1.25 12,1.25 Q12.311,1.25 12.53,1.47 Q12.75,1.689 12.75,2 Z"/>
  <path fill="#292D32" d="M4.53,3.47 L5.53,4.47 Q5.75,4.689 5.75,5 Q5.75,5.311 5.53,5.53 Q5.311,5.75 5,5.75 Q4.689,5.75 4.47,5.53 L3.47,4.53 Q3.25,4.311 3.25,4 Q3.25,3.689 3.47,3.47 Q3.689,3.25 4,3.25 Q4.311,3.25 4.53,3.47 Z"/>
  <path fill="#292D32" d="M20.53,4.53 L19.53,5.53 Q19.311,5.75 19,5.75 Q18.689,5.75 18.47,5.53 Q18.25,5.311 18.25,5 Q18.25,4.689 18.47,4.47 L19.47,3.47 Q19.689,3.25 20,3.25 Q20.311,3.25 20.53,3.47 Q20.75,3.689 20.75,4 Q20.75,4.311 20.53,4.53 Z"/>
</svg>

