<svg xmlns="http://www.w3.org/2000/svg" width="24" height="24" viewBox="0 0 24 24">
  <defs/>
  <path fill="#292D32" opacity="0.4" d="M22.75,22 C22.75,22.41 22.41,22.75 22,22.75 L2,22.75 C1.59,22.75 1.25,22.41 1.25,22 C1.25,21.59 1.59,21.25 2,21.25 L22,21.25 C22.41,21.25 22.75,21.59 22.75,22 Z"/>
  <path fill="#292D32" d="M21,15 L21,21.25 L3,21.25 L3,15 C3,10.03 7.03,6 12,6 C16.97,6 21,10.03 21,15 Z"/>
  <path fill="#292D32" opacity="0.4" d="M12,3.75 C11.59,3.75 11.25,3.41 11.25,3 L11.25,2 C11.25,1.59 11.59,1.25 12,1.25 C12.41,1.25 12.75,1.59 12.75,2 L12.75,3 C12.75,3.41 12.41,3.75 12,3.75 Z"/>
  <path fill="#292D32" opacity="0.4" d="M4.999,5.75 C4.809,5.75 4.619,5.68 4.469,5.53 L3.469,4.53 C3.179,4.24 3.179,3.76 3.469,3.47 C3.759,3.18 4.239,3.18 4.529,3.47 L5.529,4.47 C5.819,4.76 5.819,5.24 5.529,5.53 C5.379,5.68 5.189,5.75 4.999,5.75 Z"/>
  <path fill="#292D32" opacity="0.4" d="M19,5.75 C18.809,5.75 18.619,5.68 18.47,5.53 C18.18,5.24 18.18,4.76 18.47,4.47 L19.47,3.47 C19.759,3.18 20.239,3.18 20.529,3.47 C20.82,3.76 20.82,4.24 20.529,4.53 L19.529,5.53 C19.38,5.68 19.189,5.75 19,5.75 Z"/>
</svg>

