<svg xmlns="http://www.w3.org/2000/svg" width="24" height="24" viewBox="0 0 24 24">
  <defs/>
  <path fill="#292D32" d="M22,21.25 L21,21.25 L21,15 C21,10.03 16.97,6 12,6 C7.03,6 3,10.03 3,15 L3,21.25 L2,21.25 C1.59,21.25 1.25,21.59 1.25,22 C1.25,22.41 1.59,22.75 2,22.75 L22,22.75 C22.41,22.75 22.75,22.41 22.75,22 C22.75,21.59 22.41,21.25 22,21.25 Z"/>
  <path fill="#292D32" d="M12,3.75 C11.59,3.75 11.25,3.41 11.25,3 L11.25,2 C11.25,1.59 11.59,1.25 12,1.25 C12.41,1.25 12.75,1.59 12.75,2 L12.75,3 C12.75,3.41 12.41,3.75 12,3.75 Z"/>
  <path fill="#292D32" d="M5.001,5.751 C4.811,5.751 4.621,5.681 4.471,5.531 L3.471,4.531 C3.181,4.241 3.181,3.761 3.471,3.471 C3.761,3.181 4.241,3.181 4.531,3.471 L5.531,4.471 C5.821,4.761 5.821,5.241 5.531,5.531 C5.381,5.681 5.191,5.751 5.001,5.751 Z"/>
  <path fill="#292D32" d="M19.001,5.751 C18.811,5.751 18.621,5.681 18.471,5.531 C18.181,5.241 18.181,4.761 18.471,4.471 L19.471,3.471 C19.761,3.181 20.241,3.181 20.531,3.471 C20.821,3.761 20.821,4.241 20.531,4.531 L19.531,5.531 C19.381,5.681 19.191,5.751 19.001,5.751 Z"/>
</svg>

