<svg xmlns="http://www.w3.org/2000/svg" width="24" height="24" viewBox="0 0 24 24">
  <defs/>
  <path fill="#292D32" d="M16.9,20 L5.1,20 C4.69,20 4.35,19.66 4.35,19.25 C4.35,18.84 4.69,18.5 5.1,18.5 L16.9,18.5 C17.91,18.5 18.25,18.29 18.25,17.02 L18.25,15.98 C18.25,14.71 17.91,14.5 16.9,14.5 L5.1,14.5 C4.69,14.5 4.35,14.16 4.35,13.75 C4.35,13.34 4.69,13 5.1,13 L16.9,13 C18.82,13 19.75,13.98 19.75,15.98 L19.75,17.02 C19.75,19.02 18.82,20 16.9,20 Z"/>
  <path fill="#292D32" d="M11.9,11.5 L5.1,11.5 C4.69,11.5 4.35,11.16 4.35,10.75 C4.35,10.34 4.69,10 5.1,10 L11.9,10 C12.91,10 13.25,9.79 13.25,8.52 L13.25,7.48 C13.25,6.21 12.91,6 11.9,6 L5.1,6 C4.69,6 4.35,5.66 4.35,5.25 C4.35,4.84 4.69,4.5 5.1,4.5 L11.9,4.5 C13.82,4.5 14.75,5.48 14.75,7.48 L14.75,8.52 C14.75,10.52 13.82,11.5 11.9,11.5 Z"/>
  <path fill="#292D32" d="M5,22.74 C4.59,22.74 4.25,22.4 4.25,21.99 L4.25,1.99 C4.25,1.58 4.59,1.24 5,1.24 C5.41,1.24 5.75,1.58 5.75,1.99 L5.75,21.99 C5.75,22.4 5.41,22.74 5,22.74 Z"/>
</svg>

