<svg xmlns="http://www.w3.org/2000/svg" width="24" height="24" viewBox="0 0 24 24">
  <defs/>
  <path fill="#292D32" d="M17.4,20 L6.6,20 C4.68,20 3.75,19.02 3.75,17.02 L3.75,15.98 C3.75,13.98 4.68,13 6.6,13 L17.4,13 C19.32,13 20.25,13.98 20.25,15.98 L20.25,17.02 C20.25,19.02 19.32,20 17.4,20 Z M6.6,14.5 C5.59,14.5 5.25,14.71 5.25,15.98 L5.25,17.02 C5.25,18.29 5.59,18.5 6.6,18.5 L17.4,18.5 C18.41,18.5 18.75,18.29 18.75,17.02 L18.75,15.98 C18.75,14.71 18.41,14.5 17.4,14.5 L6.6,14.5 Z"/>
  <path fill="#292D32" d="M15.4,11.5 L8.6,11.5 C6.68,11.5 5.75,10.52 5.75,8.52 L5.75,7.48 C5.75,5.47 6.68,4.5 8.6,4.5 L15.4,4.5 C17.32,4.5 18.25,5.48 18.25,7.48 L18.25,8.52 C18.25,10.52 17.32,11.5 15.4,11.5 Z M8.6,6 C7.59,6 7.25,6.21 7.25,7.48 L7.25,8.52 C7.25,9.79 7.59,10 8.6,10 L15.4,10 C16.41,10 16.75,9.79 16.75,8.52 L16.75,7.48 C16.75,6.21 16.41,6 15.4,6 L8.6,6 Z"/>
  <path fill="#292D32" d="M12,22.75 C11.59,22.75 11.25,22.41 11.25,22 L11.25,19.6 C11.25,19.19 11.59,18.85 12,18.85 C12.41,18.85 12.75,19.19 12.75,19.6 L12.75,22 C12.75,22.41 12.41,22.75 12,22.75 Z"/>
  <path fill="#292D32" d="M12,13.75 C11.59,13.75 11.25,13.41 11.25,13 L11.25,11 C11.25,10.59 11.59,10.25 12,10.25 C12.41,10.25 12.75,10.59 12.75,11 L12.75,13 C12.75,13.41 12.41,13.75 12,13.75 Z"/>
  <path fill="#292D32" d="M12,5.44 C11.59,5.44 11.25,5.1 11.25,4.69 L11.25,2 C11.25,1.59 11.59,1.25 12,1.25 C12.41,1.25 12.75,1.58 12.75,2 L12.75,4.69 C12.75,5.11 12.41,5.44 12,5.44 Z"/>
</svg>

