<svg xmlns="http://www.w3.org/2000/svg" width="24" height="24" viewBox="0 0 24 24">
  <defs/>
  <path fill="#292D32" d="M18.9,20 L7.1,20 C5.18,20 4.25,19.02 4.25,17.02 L4.25,15.98 C4.25,13.98 5.18,13 7.1,13 L18.9,13 C19.31,13 19.65,13.34 19.65,13.75 C19.65,14.16 19.31,14.5 18.9,14.5 L7.1,14.5 C6.09,14.5 5.75,14.71 5.75,15.98 L5.75,17.02 C5.75,18.29 6.09,18.5 7.1,18.5 L18.9,18.5 C19.31,18.5 19.65,18.84 19.65,19.25 C19.65,19.66 19.31,20 18.9,20 Z"/>
  <path fill="#292D32" d="M18.9,11.5 L12.1,11.5 C10.18,11.5 9.25,10.52 9.25,8.52 L9.25,7.48 C9.25,5.47 10.18,4.5 12.1,4.5 L18.9,4.5 C19.31,4.5 19.65,4.84 19.65,5.25 C19.65,5.66 19.31,6 18.9,6 L12.1,6 C11.09,6 10.75,6.21 10.75,7.48 L10.75,8.52 C10.75,9.79 11.09,10 12.1,10 L18.9,10 C19.31,10 19.65,10.34 19.65,10.75 C19.65,11.16 19.31,11.5 18.9,11.5 Z"/>
  <path fill="#292D32" d="M19,22.74 C18.59,22.74 18.25,22.4 18.25,21.99 L18.25,1.99 C18.25,1.58 18.59,1.24 19,1.24 C19.41,1.24 19.75,1.58 19.75,1.99 L19.75,21.99 C19.75,22.4 19.41,22.74 19,22.74 Z"/>
</svg>

