<svg xmlns="http://www.w3.org/2000/svg" width="24" height="24" viewBox="0 0 24 24">
  <defs/>
  <path fill="#292D32" d="M17.4,19.25 L6.6,19.25 C5.1,19.25 4.5,18.61 4.5,17.02 L4.5,15.98 C4.5,14.39 5.1,13.75 6.6,13.75 L17.4,13.75 C18.9,13.75 19.5,14.39 19.5,15.98 L19.5,17.02 C19.5,18.61 18.9,19.25 17.4,19.25 Z"/>
  <path fill="#292D32" d="M12.75,19.25 L12.75,21.25 C12.75,21.66 12.41,22 12,22 C11.59,22 11.25,21.66 11.25,21.25 L11.25,19.25 L12.75,19.25 Z"/>
  <path fill="#292D32" d="M12.75,10.75 L11.25,10.75 L11.25,13.75 L12.75,13.75 L12.75,10.75 Z"/>
  <path fill="#292D32" d="M12.75,2.75 L12.75,5.25 L11.25,5.25 L11.25,2.75 C11.25,2.34 11.59,2 12,2 C12.41,2 12.75,2.34 12.75,2.75 Z"/>
  <path fill="#292D32" d="M15.4,10.75 L8.6,10.75 C7.1,10.75 6.5,10.11 6.5,8.52 L6.5,7.48 C6.5,5.89 7.1,5.25 8.6,5.25 L15.4,5.25 C16.9,5.25 17.5,5.89 17.5,7.48 L17.5,8.52 C17.5,10.11 16.9,10.75 15.4,10.75 Z"/>
</svg>

