<svg xmlns="http://www.w3.org/2000/svg" width="24" height="24" viewBox="0 0 24 24">
  <defs/>
  <path fill="#292D32" d="M5.1,18.5 L16.9,18.5 Q18.25,18.5 18.25,17.02 L18.25,15.98 Q18.25,14.5 16.9,14.5 L5.1,14.5 Q4.789,14.5 4.569,14.28 Q4.35,14.061 4.35,13.75 Q4.35,13.439 4.569,13.22 Q4.789,13 5.1,13 L16.9,13 Q19.75,13 19.75,15.98 L19.75,17.02 Q19.75,20 16.9,20 L5.1,20 Q4.789,20 4.569,19.78 Q4.35,19.561 4.35,19.25 Q4.35,18.939 4.569,18.72 Q4.789,18.5 5.1,18.5 Z"/>
  <path fill="#292D32" d="M5.1,10 L11.9,10 Q13.25,10 13.25,8.52 Q13.25,8.209 13.469,7.99 Q13.689,7.77 14,7.77 Q14.31,7.77 14.53,7.99 Q14.75,8.209 14.75,8.52 Q14.75,11.5 11.9,11.5 L5.1,11.5 Q4.789,11.5 4.569,11.28 Q4.35,11.061 4.35,10.75 Q4.35,10.439 4.569,10.22 Q4.789,10 5.1,10 Z"/>
  <path fill="#292D32" d="M5.1,4.5 L11.9,4.5 Q12.21,4.5 12.43,4.72 Q12.65,4.939 12.65,5.25 Q12.65,5.561 12.43,5.78 Q12.21,6 11.9,6 L5.1,6 Q4.789,6 4.569,5.78 Q4.35,5.561 4.35,5.25 Q4.35,4.939 4.569,4.72 Q4.789,4.5 5.1,4.5 Z"/>
  <path fill="#292D32" d="M5.75,1.99 L5.75,21.99 Q5.75,22.301 5.53,22.52 Q5.311,22.74 5,22.74 Q4.689,22.74 4.47,22.52 Q4.25,22.301 4.25,21.99 L4.25,1.99 Q4.25,1.679 4.47,1.46 Q4.689,1.24 5,1.24 Q5.311,1.24 5.53,1.46 Q5.75,1.679 5.75,1.99 Z"/>
</svg>

