<svg xmlns="http://www.w3.org/2000/svg" width="24" height="24" viewBox="0 0 24 24">
  <defs/>
  <path fill="#292D32" d="M4.619,15.98 L4.619,17.02 C4.619,18.61 5.219,19.25 6.739,19.25 L18.619,19.25 L18.619,13.75 L6.739,13.75 C5.219,13.75 4.619,14.39 4.619,15.98 Z"/>
  <path fill="#292D32" opacity="0.4" d="M9.619,7.48 L9.619,8.52 C9.619,10.11 10.229,10.75 11.739,10.75 L18.619,10.75 L18.619,5.25 L11.739,5.25 C10.229,5.25 9.619,5.89 9.619,7.48 Z"/>
  <path fill="#292D32" d="M18.619,22 C18.209,22 17.869,21.66 17.869,21.25 L17.869,2.75 C17.869,2.34 18.209,2 18.619,2 C19.029,2 19.369,2.34 19.369,2.75 L19.369,21.25 C19.379,21.66 19.039,22 18.619,22 Z"/>
</svg>

