<svg xmlns="http://www.w3.org/2000/svg" width="24" height="24" viewBox="0 0 24 24">
  <defs/>
  <path fill="#292D32" d="M20.01,5.1 L20.01,16.9 Q20.01,18.349 19.255,19.059 Q18.52,19.75 17.03,19.75 L15.99,19.75 Q14.5,19.75 13.765,19.059 Q13.01,18.349 13.01,16.9 L13.01,5.1 Q13.01,4.789 13.23,4.57 Q13.449,4.35 13.76,4.35 Q14.071,4.35 14.29,4.57 Q14.51,4.789 14.51,5.1 L14.51,16.9 Q14.51,18.25 15.99,18.25 L17.03,18.25 Q17.926,18.25 18.227,17.966 Q18.51,17.7 18.51,16.9 L18.51,5.1 Q18.51,4.789 18.73,4.57 Q18.949,4.35 19.26,4.35 Q19.571,4.35 19.79,4.57 Q20.01,4.789 20.01,5.1 Z"/>
  <path fill="#292D32" d="M6.01,5.1 L6.01,11.9 Q6.01,12.7 6.293,12.966 Q6.594,13.25 7.49,13.25 L8.53,13.25 Q10.01,13.25 10.01,11.9 L10.01,5.1 Q10.01,4.789 10.23,4.57 Q10.449,4.35 10.76,4.35 Q11.071,4.35 11.29,4.57 Q11.51,4.789 11.51,5.1 L11.51,11.9 Q11.51,14.75 8.53,14.75 L7.49,14.75 Q4.51,14.75 4.51,11.9 L4.51,5.1 Q4.51,4.789 4.73,4.57 Q4.949,4.35 5.26,4.35 Q5.571,4.35 5.79,4.57 Q6.01,4.789 6.01,5.1 Z"/>
  <path fill="#292D32" d="M2,4.25 L22,4.25 Q22.311,4.25 22.53,4.47 Q22.75,4.689 22.75,5 Q22.75,5.311 22.53,5.53 Q22.311,5.75 22,5.75 L2,5.75 Q1.689,5.75 1.47,5.53 Q1.25,5.311 1.25,5 Q1.25,4.689 1.47,4.47 Q1.689,4.25 2,4.25 Z"/>
</svg>

