<svg xmlns="http://www.w3.org/2000/svg" width="24" height="24" viewBox="0 0 24 24">
  <defs/>
  <path fill="#292D32" d="M15.98,19.379 L17.02,19.379 C18.61,19.379 19.25,18.779 19.25,17.259 L19.25,5.379 L13.75,5.379 L13.75,17.259 C13.76,18.779 14.4,19.379 15.98,19.379 Z"/>
  <path fill="#292D32" d="M7.48,14.379 L8.52,14.379 C10.11,14.379 10.75,13.769 10.75,12.259 L10.75,5.379 L5.25,5.379 L5.25,12.259 C5.26,13.769 5.9,14.379 7.48,14.379 Z"/>
  <path fill="#292D32" d="M21.25,6.119 L2.75,6.119 C2.34,6.119 2,5.789 2,5.379 C2,4.969 2.34,4.629 2.75,4.629 L21.25,4.629 C21.66,4.629 22,4.969 22,5.379 C22,5.789 21.66,6.119 21.25,6.119 Z"/>
</svg>

