<svg xmlns="http://www.w3.org/2000/svg" width="24" height="24" viewBox="0 0 24 24">
  <defs/>
  <path fill="#292D32" d="M4,17.4 L4,6.6 Q4,3.75 6.98,3.75 L8.02,3.75 Q9.51,3.75 10.245,4.441 Q11,5.151 11,6.6 L11,17.4 Q11,18.849 10.245,19.559 Q9.51,20.25 8.02,20.25 L6.98,20.25 Q4,20.25 4,17.4 Z M5.5,17.4 Q5.5,18.75 6.98,18.75 L8.02,18.75 Q8.916,18.75 9.217,18.466 Q9.5,18.2 9.5,17.4 L9.5,6.6 Q9.5,5.25 8.02,5.25 L6.98,5.25 Q6.084,5.25 5.783,5.534 Q5.5,5.8 5.5,6.6 Z"/>
  <path fill="#292D32" d="M12.5,15.4 L12.5,8.6 Q12.5,7.151 13.255,6.441 Q13.99,5.75 15.48,5.75 L16.52,5.75 Q19.5,5.75 19.5,8.6 L19.5,15.4 Q19.5,18.25 16.52,18.25 L15.48,18.25 Q12.5,18.25 12.5,15.4 Z M14,15.4 Q14,16.2 14.283,16.466 Q14.584,16.75 15.48,16.75 L16.52,16.75 Q18,16.75 18,15.4 L18,8.6 Q18,7.25 16.52,7.25 L15.48,7.25 Q14,7.25 14,8.6 Z"/>
  <path fill="#292D32" opacity="0.4" d="M2,11.25 L4.4,11.25 Q4.711,11.25 4.93,11.47 Q5.15,11.689 5.15,12 Q5.15,12.311 4.93,12.53 Q4.711,12.75 4.4,12.75 L2,12.75 Q1.689,12.75 1.47,12.53 Q1.25,12.311 1.25,12 Q1.25,11.689 1.47,11.47 Q1.689,11.25 2,11.25 Z"/>
  <path fill="#292D32" opacity="0.4" d="M11,11.25 L13,11.25 Q13.311,11.25 13.53,11.47 Q13.75,11.689 13.75,12 Q13.75,12.311 13.53,12.53 Q13.311,12.75 13,12.75 L11,12.75 Q10.689,12.75 10.47,12.53 Q10.25,12.311 10.25,12 Q10.25,11.689 10.47,11.47 Q10.689,11.25 11,11.25 Z"/>
  <path fill="#292D32" opacity="0.4" d="M22,12.75 L19.31,12.75 Q19,12.75 18.78,12.53 Q18.56,12.311 18.56,12 Q18.56,11.689 18.78,11.47 Q19,11.25 19.31,11.25 L22,11.25 Q22.311,11.25 22.531,11.47 Q22.75,11.689 22.75,12 Q22.75,12.311 22.531,12.53 Q22.311,12.75 22,12.75 Z"/>
</svg>

