<svg xmlns="http://www.w3.org/2000/svg" width="24" height="24" viewBox="0 0 24 24">
  <defs/>
  <path fill="#292D32" d="M18.9,20 L7.1,20 Q4.25,20 4.25,17.02 L4.25,15.98 Q4.25,13 7.1,13 L18.9,13 Q19.211,13 19.43,13.22 Q19.65,13.439 19.65,13.75 Q19.65,14.061 19.43,14.28 Q19.211,14.5 18.9,14.5 L7.1,14.5 Q5.75,14.5 5.75,15.98 L5.75,17.02 Q5.75,18.5 7.1,18.5 L18.9,18.5 Q19.211,18.5 19.43,18.72 Q19.65,18.939 19.65,19.25 Q19.65,19.561 19.43,19.78 Q19.211,20 18.9,20 Z"/>
  <path fill="#292D32" d="M10.75,8.52 Q10.75,10 12.1,10 L18.9,10 Q19.211,10 19.43,10.22 Q19.65,10.439 19.65,10.75 Q19.65,11.061 19.43,11.28 Q19.211,11.5 18.9,11.5 L12.1,11.5 Q9.25,11.5 9.25,8.52 Q9.25,8.209 9.47,7.99 Q9.689,7.77 10,7.77 Q10.311,7.77 10.53,7.99 Q10.75,8.209 10.75,8.52 Z"/>
  <path fill="#292D32" d="M18.9,6 L12.1,6 Q11.789,6 11.569,5.78 Q11.35,5.561 11.35,5.25 Q11.35,4.939 11.569,4.72 Q11.789,4.5 12.1,4.5 L18.9,4.5 Q19.21,4.5 19.43,4.72 Q19.65,4.939 19.65,5.25 Q19.65,5.561 19.43,5.78 Q19.21,6 18.9,6 Z"/>
  <path fill="#292D32" d="M19.75,1.99 L19.75,21.99 Q19.75,22.301 19.53,22.52 Q19.311,22.74 19,22.74 Q18.689,22.74 18.47,22.52 Q18.25,22.301 18.25,21.99 L18.25,1.99 Q18.25,1.679 18.47,1.46 Q18.689,1.24 19,1.24 Q19.311,1.24 19.53,1.46 Q19.75,1.679 19.75,1.99 Z"/>
</svg>

