<svg xmlns="http://www.w3.org/2000/svg" width="24" height="24" viewBox="0 0 24 24">
  <defs/>
  <path fill="#292D32" d="M20.01,5.1 L20.01,16.9 Q20.01,18.349 19.255,19.059 Q18.52,19.75 17.03,19.75 L15.99,19.75 Q13.01,19.75 13.01,16.9 L13.01,5.1 Q13.01,4.789 13.229,4.57 Q13.449,4.35 13.76,4.35 Q14.07,4.35 14.29,4.57 Q14.51,4.789 14.51,5.1 L14.51,16.9 Q14.51,17.7 14.792,17.966 Q15.094,18.25 15.99,18.25 L17.03,18.25 Q18.51,18.25 18.51,16.9 L18.51,5.1 Q18.51,4.789 18.729,4.57 Q18.949,4.35 19.26,4.35 Q19.57,4.35 19.79,4.57 Q20.01,4.789 20.01,5.1 Z"/>
  <path fill="#292D32" d="M11.509,5.1 L11.509,11.9 Q11.509,14.75 8.529,14.75 Q8.219,14.75 7.999,14.53 Q7.779,14.311 7.779,14 Q7.779,13.689 7.999,13.47 Q8.219,13.25 8.529,13.25 Q9.425,13.25 9.727,12.966 Q10.009,12.7 10.009,11.9 L10.009,5.1 Q10.009,4.789 10.229,4.57 Q10.449,4.35 10.759,4.35 Q11.07,4.35 11.29,4.57 Q11.509,4.789 11.509,5.1 Z"/>
  <path fill="#292D32" d="M6.01,5.1 L6.01,11.9 Q6.01,12.211 5.79,12.43 Q5.57,12.65 5.26,12.65 Q4.949,12.65 4.729,12.43 Q4.51,12.211 4.51,11.9 L4.51,5.1 Q4.51,4.789 4.729,4.57 Q4.949,4.35 5.26,4.35 Q5.57,4.35 5.79,4.57 Q6.01,4.789 6.01,5.1 Z"/>
  <path fill="#292D32" d="M2,4.25 L22,4.25 Q22.311,4.25 22.53,4.47 Q22.75,4.689 22.75,5 Q22.75,5.311 22.53,5.53 Q22.311,5.75 22,5.75 L2,5.75 Q1.689,5.75 1.47,5.53 Q1.25,5.311 1.25,5 Q1.25,4.689 1.47,4.47 Q1.689,4.25 2,4.25 Z"/>
</svg>

