<svg xmlns="http://www.w3.org/2000/svg" width="24" height="24" viewBox="0 0 24 24">
  <defs/>
  <path fill="#292D32" d="M15.98,19.38 L17.02,19.38 C18.61,19.38 19.25,18.78 19.25,17.26 L19.25,5.38 L13.75,5.38 L13.75,17.26 C13.76,18.78 14.4,19.38 15.98,19.38 Z"/>
  <path fill="#292D32" opacity="0.4" d="M7.48,14.38 L8.52,14.38 C10.11,14.38 10.75,13.77 10.75,12.26 L10.75,5.38 L5.25,5.38 L5.25,12.26 C5.26,13.77 5.9,14.38 7.48,14.38 Z"/>
  <path fill="#292D32" d="M21.25,6.12 L2.75,6.12 C2.34,6.12 2,5.79 2,5.38 C2,4.97 2.34,4.63 2.75,4.63 L21.25,4.63 C21.66,4.63 22,4.97 22,5.38 C22,5.79 21.66,6.12 21.25,6.12 Z"/>
</svg>

