<svg xmlns="http://www.w3.org/2000/svg" width="24" height="24" viewBox="0 0 24 24">
  <defs/>
  <path fill="#292D32" d="M8.02,20.25 L6.98,20.25 C4.97,20.25 4,19.32 4,17.4 L4,6.6 C4,4.68 4.98,3.75 6.98,3.75 L8.02,3.75 C10.02,3.75 11,4.68 11,6.6 L11,17.4 C11,19.32 10.02,20.25 8.02,20.25 Z M6.98,5.25 C5.71,5.25 5.5,5.59 5.5,6.6 L5.5,17.4 C5.5,18.41 5.71,18.75 6.98,18.75 L8.02,18.75 C9.29,18.75 9.5,18.41 9.5,17.4 L9.5,6.6 C9.5,5.59 9.29,5.25 8.02,5.25 L6.98,5.25 Z"/>
  <path fill="#292D32" d="M16.52,18.25 L15.48,18.25 C13.47,18.25 12.5,17.32 12.5,15.4 L12.5,8.6 C12.5,6.68 13.48,5.75 15.48,5.75 L16.52,5.75 C18.53,5.75 19.5,6.68 19.5,8.6 L19.5,15.4 C19.5,17.32 18.52,18.25 16.52,18.25 Z M15.48,7.25 C14.21,7.25 14,7.59 14,8.6 L14,15.4 C14,16.41 14.21,16.75 15.48,16.75 L16.52,16.75 C17.79,16.75 18,16.41 18,15.4 L18,8.6 C18,7.59 17.79,7.25 16.52,7.25 L15.48,7.25 Z"/>
  <path fill="#292D32" d="M4.4,12.75 L2,12.75 C1.59,12.75 1.25,12.41 1.25,12 C1.25,11.59 1.58,11.25 2,11.25 L4.4,11.25 C4.81,11.25 5.15,11.59 5.15,12 C5.15,12.41 4.82,12.75 4.4,12.75 Z"/>
  <path fill="#292D32" d="M13,12.75 L11,12.75 C10.59,12.75 10.25,12.41 10.25,12 C10.25,11.59 10.59,11.25 11,11.25 L13,11.25 C13.41,11.25 13.75,11.59 13.75,12 C13.75,12.41 13.41,12.75 13,12.75 Z"/>
  <path fill="#292D32" d="M22.001,12.75 L19.301,12.75 C18.891,12.75 18.551,12.41 18.551,12 C18.551,11.59 18.891,11.25 19.301,11.25 L22.001,11.25 C22.411,11.25 22.751,11.59 22.751,12 C22.751,12.41 22.421,12.75 22.001,12.75 Z"/>
</svg>

