<svg xmlns="http://www.w3.org/2000/svg" width="24" height="24" viewBox="0 0 24 24">
  <defs/>
  <path fill="#292D32" d="M17.4,20 L6.6,20 Q3.75,20 3.75,17.02 L3.75,15.98 Q3.75,13 6.6,13 L17.4,13 Q18.849,13 19.559,13.755 Q20.25,14.49 20.25,15.98 L20.25,17.02 Q20.25,18.51 19.559,19.245 Q18.849,20 17.4,20 Z M17.4,18.5 Q18.75,18.5 18.75,17.02 L18.75,15.98 Q18.75,14.5 17.4,14.5 L6.6,14.5 Q5.25,14.5 5.25,15.98 L5.25,17.02 Q5.25,18.5 6.6,18.5 Z"/>
  <path fill="#292D32" d="M15.4,11.5 L8.6,11.5 Q7.151,11.5 6.441,10.745 Q5.75,10.01 5.75,8.52 L5.75,7.48 Q5.75,4.5 8.6,4.5 L15.4,4.5 Q18.25,4.5 18.25,7.48 L18.25,8.52 Q18.25,11.5 15.4,11.5 Z M15.4,10 Q16.2,10 16.466,9.717 Q16.75,9.416 16.75,8.52 L16.75,7.48 Q16.75,6 15.4,6 L8.6,6 Q7.25,6 7.25,7.48 L7.25,8.52 Q7.25,10 8.6,10 Z"/>
  <path fill="#292D32" d="M11.25,22 L11.25,19.6 Q11.25,19.289 11.47,19.07 Q11.689,18.85 12,18.85 Q12.311,18.85 12.53,19.07 Q12.75,19.289 12.75,19.6 L12.75,22 Q12.75,22.311 12.53,22.53 Q12.311,22.75 12,22.75 Q11.689,22.75 11.47,22.53 Q11.25,22.311 11.25,22 Z"/>
  <path fill="#292D32" d="M11.25,13 L11.25,11 Q11.25,10.689 11.47,10.47 Q11.689,10.25 12,10.25 Q12.311,10.25 12.53,10.47 Q12.75,10.689 12.75,11 L12.75,13 Q12.75,13.311 12.53,13.53 Q12.311,13.75 12,13.75 Q11.689,13.75 11.47,13.53 Q11.25,13.311 11.25,13 Z"/>
  <path fill="#292D32" d="M12.75,2 L12.75,4.69 Q12.75,5.001 12.53,5.22 Q12.311,5.44 12,5.44 Q11.689,5.44 11.47,5.22 Q11.25,5.001 11.25,4.69 L11.25,2 Q11.25,1.689 11.47,1.47 Q11.689,1.25 12,1.25 Q12.311,1.25 12.53,1.47 Q12.75,1.689 12.75,2 Z"/>
</svg>

