<svg xmlns="http://www.w3.org/2000/svg" width="24" height="24" viewBox="0 0 24 24">
  <defs/>
  <path fill="#292D32" d="M17.03,19.75 L15.99,19.75 C13.98,19.75 13.01,18.82 13.01,16.9 L13.01,5.1 C13.01,4.69 13.35,4.35 13.76,4.35 C14.17,4.35 14.51,4.69 14.51,5.1 L14.51,16.9 C14.51,17.91 14.72,18.25 15.99,18.25 L17.03,18.25 C18.3,18.25 18.51,17.91 18.51,16.9 L18.51,5.1 C18.51,4.69 18.85,4.35 19.26,4.35 C19.67,4.35 20.01,4.69 20.01,5.1 L20.01,16.9 C20.01,18.82 19.04,19.75 17.03,19.75 Z"/>
  <path fill="#292D32" d="M8.53,14.75 L7.49,14.75 C5.48,14.75 4.51,13.82 4.51,11.9 L4.51,5.1 C4.51,4.69 4.85,4.35 5.26,4.35 C5.67,4.35 6.01,4.69 6.01,5.1 L6.01,11.9 C6.01,12.91 6.22,13.25 7.49,13.25 L8.53,13.25 C9.8,13.25 10.01,12.91 10.01,11.9 L10.01,5.1 C10.01,4.69 10.35,4.35 10.76,4.35 C11.17,4.35 11.51,4.69 11.51,5.1 L11.51,11.9 C11.51,13.82 10.54,14.75 8.53,14.75 Z"/>
  <path fill="#292D32" d="M22,5.75 L2,5.75 C1.58,5.75 1.25,5.41 1.25,5 C1.25,4.59 1.58,4.25 2,4.25 L22,4.25 C22.41,4.25 22.75,4.59 22.75,5 C22.75,5.41 22.42,5.75 22,5.75 Z"/>
</svg>

