<svg xmlns="http://www.w3.org/2000/svg" width="24" height="24" viewBox="0 0 24 24">
  <defs/>
  <path fill="#292D32" d="M4.75,17.4 L4.75,6.6 C4.75,5.1 5.39,4.5 6.98,4.5 L8.02,4.5 C9.61,4.5 10.25,5.1 10.25,6.6 L10.25,17.4 C10.25,18.9 9.61,19.5 8.02,19.5 L6.98,19.5 C5.39,19.5 4.75,18.9 4.75,17.4 Z"/>
  <path fill="#292D32" d="M4.75,12.75 L2.75,12.75 C2.34,12.75 2,12.41 2,12 C2,11.59 2.34,11.25 2.75,11.25 L4.75,11.25 L4.75,12.75 Z"/>
  <path fill="#292D32" d="M13.25,11.25 L10.25,11.25 L10.25,12.75 L13.25,12.75 L13.25,11.25 Z"/>
  <path fill="#292D32" d="M21.25,12.75 L18.75,12.75 L18.75,11.25 L21.25,11.25 C21.66,11.25 22,11.59 22,12 C22,12.41 21.66,12.75 21.25,12.75 Z"/>
  <path fill="#292D32" opacity="0.4" d="M13.25,15.4 L13.25,8.6 C13.25,7.1 13.89,6.5 15.48,6.5 L16.52,6.5 C18.11,6.5 18.75,7.1 18.75,8.6 L18.75,15.4 C18.75,16.9 18.11,17.5 16.52,17.5 L15.48,17.5 C13.89,17.5 13.25,16.9 13.25,15.4 Z"/>
</svg>

