<svg xmlns="http://www.w3.org/2000/svg" width="24" height="24" viewBox="0 0 24 24">
  <defs/>
  <path fill="#292D32" d="M19.381,15.98 L19.381,17.02 C19.381,18.61 18.781,19.25 17.261,19.25 L5.381,19.25 L5.381,13.75 L17.261,13.75 C18.781,13.75 19.381,14.39 19.381,15.98 Z"/>
  <path fill="#292D32" d="M14.381,7.48 L14.381,8.52 C14.381,10.11 13.771,10.75 12.261,10.75 L5.381,10.75 L5.381,5.25 L12.261,5.25 C13.771,5.25 14.381,5.89 14.381,7.48 Z"/>
  <path fill="#292D32" d="M5.379,22 C4.969,22 4.629,21.66 4.629,21.25 L4.629,2.75 C4.619,2.33 4.959,2 5.379,2 C5.799,2 6.129,2.34 6.129,2.75 L6.129,21.25 C6.119,21.66 5.789,22 5.379,22 Z"/>
</svg>

