<svg xmlns="http://www.w3.org/2000/svg" width="24" height="24" viewBox="0 0 24 24">
  <defs/>
  <path d="M10,22.75 C9.04,22.75 8.25,21.96 8.25,21 L8.25,18 C8.25,17.59 8.59,17.25 9,17.25 L11,17.25 C11.41,17.25 11.75,17.59 11.75,18 L11.75,21 C11.75,21.96 10.96,22.75 10,22.75 Z M9.75,18.75 L9.75,21 C9.75,21.27 10.25,21.27 10.25,21 L10.25,18.75 L9.75,18.75 Z"/>
  <path d="M14,22.75 C13.04,22.75 12.25,21.96 12.25,21 L12.25,18 C12.25,17.59 12.59,17.25 13,17.25 L15,17.25 C15.41,17.25 15.75,17.59 15.75,18 L15.75,21 C15.75,21.96 14.96,22.75 14,22.75 Z M13.75,18.75 L13.75,21 C13.75,21.27 14.25,21.27 14.25,21 L14.25,18.75 L13.75,18.75 Z"/>
  <path d="M15,18.75 L9,18.75 C7.48,18.75 6.25,17.52 6.25,16 L6.25,11 C6.25,9.48 7.48,8.25 9,8.25 L15,8.25 C16.52,8.25 17.75,9.48 17.75,11 L17.75,16 C17.75,17.52 16.52,18.75 15,18.75 Z M9,9.75 C8.31,9.75 7.75,10.31 7.75,11 L7.75,16 C7.75,16.69 8.31,17.25 9,17.25 L15,17.25 C15.69,17.25 16.25,16.69 16.25,16 L16.25,11 C16.25,10.31 15.69,9.75 15,9.75 L9,9.75 Z"/>
  <path d="M4,16.75 C3.04,16.75 2.25,15.96 2.25,15 L2.25,11 C2.25,10.04 3.04,9.25 4,9.25 C4.96,9.25 5.75,10.04 5.75,11 L5.75,15 C5.75,15.96 4.96,16.75 4,16.75 Z M4,10.75 C3.86,10.75 3.75,10.86 3.75,11 L3.75,15 C3.75,15.28 4.25,15.28 4.25,15 L4.25,11 C4.25,10.86 4.14,10.75 4,10.75 Z"/>
  <path d="M20,16.75 C19.04,16.75 18.25,15.96 18.25,15 L18.25,11 C18.25,10.04 19.04,9.25 20,9.25 C20.96,9.25 21.75,10.04 21.75,11 L21.75,15 C21.75,15.96 20.96,16.75 20,16.75 Z M20,10.75 C19.86,10.75 19.75,10.86 19.75,11 L19.75,15 C19.75,15.28 20.25,15.28 20.25,15 L20.25,11 C20.25,10.86 20.14,10.75 20,10.75 Z"/>
  <path d="M13,18.75 L11,18.75 C10.59,18.75 10.25,18.41 10.25,18 C10.25,17.59 10.59,17.25 11,17.25 L13,17.25 C13.41,17.25 13.75,17.59 13.75,18 C13.75,18.41 13.41,18.75 13,18.75 Z"/>
  <path d="M14.4,7.75 L9.6,7.75 C8.3,7.75 7.25,6.7 7.25,5.4 C7.25,2.78 9.38,0.65 12,0.65 C14.62,0.65 16.75,2.78 16.75,5.4 C16.75,6.7 15.7,7.75 14.4,7.75 Z M12,2.15 C10.21,2.15 8.75,3.61 8.75,5.4 C8.75,5.87 9.13,6.25 9.6,6.25 L14.4,6.25 C14.87,6.25 15.25,5.87 15.25,5.4 C15.25,3.61 13.79,2.15 12,2.15 Z"/>
</svg>

