<svg xmlns="http://www.w3.org/2000/svg" width="24" height="24" viewBox="0 0 24 24">
  <defs/>
  <path d="M11.75,18 L11.75,21 Q11.75,21.723 11.237,22.237 Q10.723,22.75 10,22.75 Q8.25,22.75 8.25,21 L8.25,18 Q8.25,17.689 8.47,17.47 Q8.689,17.25 9,17.25 L11,17.25 Q11.311,17.25 11.53,17.47 Q11.75,17.689 11.75,18 Z M10.25,18.75 L9.75,18.75 L9.75,21 Q9.75,21.25 10,21.25 Q10.25,21.25 10.25,21 L10.25,18.75 Z"/>
  <path d="M15.75,18 L15.75,21 Q15.75,21.723 15.237,22.237 Q14.723,22.75 14,22.75 Q12.25,22.75 12.25,21 L12.25,18 Q12.25,17.689 12.47,17.47 Q12.689,17.25 13,17.25 L15,17.25 Q15.311,17.25 15.53,17.47 Q15.75,17.689 15.75,18 Z M14.25,18.75 L13.75,18.75 L13.75,21 Q13.75,21.25 14,21.25 Q14.25,21.25 14.25,21 L14.25,18.75 Z"/>
  <path d="M6.25,11 Q6.25,8.25 9,8.25 L15,8.25 Q17.75,8.25 17.75,11 L17.75,16 Q17.75,18.75 15,18.75 L9,18.75 Q6.25,18.75 6.25,16 L6.25,15.29 Q6.25,14.979 6.47,14.76 Q6.689,14.54 7,14.54 Q7.311,14.54 7.53,14.76 Q7.75,14.979 7.75,15.29 L7.75,16 Q7.75,16.514 8.118,16.882 Q8.486,17.25 9,17.25 L15,17.25 Q16.25,17.25 16.25,16 L16.25,11 Q16.25,9.75 15,9.75 L9,9.75 Q8.486,9.75 8.118,10.118 Q7.75,10.486 7.75,11 Q7.75,11.311 7.53,11.53 Q7.311,11.75 7,11.75 Q6.689,11.75 6.47,11.53 Q6.25,11.311 6.25,11 Z"/>
  <path d="M5.75,11 L5.75,15 Q5.75,15.723 5.237,16.237 Q4.723,16.75 4,16.75 Q3.277,16.75 2.763,16.237 Q2.25,15.723 2.25,15 L2.25,11 Q2.25,9.25 4,9.25 Q4.723,9.25 5.237,9.763 Q5.75,10.277 5.75,11 Z M4.25,11 Q4.25,10.75 4,10.75 Q3.898,10.75 3.824,10.824 Q3.75,10.898 3.75,11 L3.75,15 Q3.75,15.102 3.824,15.176 Q3.898,15.25 4,15.25 Q4.25,15.25 4.25,15 Z"/>
  <path d="M21.75,11 L21.75,15 Q21.75,15.723 21.237,16.237 Q20.723,16.75 20,16.75 Q18.25,16.75 18.25,15 L18.25,11 Q18.25,9.25 20,9.25 Q20.723,9.25 21.237,9.763 Q21.75,10.277 21.75,11 Z M20.25,11 Q20.25,10.75 20,10.75 Q19.75,10.75 19.75,11 L19.75,15 Q19.75,15.25 20,15.25 Q20.25,15.25 20.25,15 Z"/>
  <path d="M13,18.75 L11,18.75 Q10.689,18.75 10.47,18.53 Q10.25,18.311 10.25,18 Q10.25,17.689 10.47,17.47 Q10.689,17.25 11,17.25 L13,17.25 Q13.311,17.25 13.53,17.47 Q13.75,17.689 13.75,18 Q13.75,18.311 13.53,18.53 Q13.311,18.75 13,18.75 Z"/>
  <path d="M9.6,7.75 Q7.25,7.75 7.25,5.4 Q7.25,3.432 8.641,2.041 Q10.032,0.65 12,0.65 Q13.968,0.65 15.359,2.041 Q16.75,3.432 16.75,5.4 Q16.75,6.371 16.06,7.06 Q15.371,7.75 14.4,7.75 Z M9.6,6.25 L14.4,6.25 Q15.25,6.25 15.25,5.4 Q15.25,4.053 14.298,3.101 Q13.347,2.15 12,2.15 Q8.75,2.15 8.75,5.4 Q8.75,6.25 9.6,6.25 Z"/>
</svg>

