<svg xmlns="http://www.w3.org/2000/svg" width="24" height="24" viewBox="0 0 24 24">
  <defs/>
  <path d="M11,18 L11,21 C11,21.55 10.55,22 10,22 C9.45,22 9,21.55 9,21 L9,18 L11,18 Z"/>
  <path d="M15,18 L15,21 C15,21.55 14.55,22 14,22 C13.45,22 13,21.55 13,21 L13,18 L15,18 Z"/>
  <path d="M17,11 L17,16 C17,17.1 16.1,18 15,18 L9,18 C7.9,18 7,17.1 7,16 L7,11 C7,9.9 7.9,9 9,9 L15,9 C16.1,9 17,9.9 17,11 Z"/>
  <path d="M5,11 L5,15 C5,15.55 4.55,16 4,16 C3.45,16 3,15.55 3,15 L3,11 C3,10.45 3.45,10 4,10 C4.55,10 5,10.45 5,11 Z"/>
  <path d="M21,11 L21,15 C21,15.55 20.55,16 20,16 C19.45,16 19,15.55 19,15 L19,11 C19,10.45 19.45,10 20,10 C20.55,10 21,10.45 21,11 Z"/>
  <path d="M9.6,7.6 L14.4,7.6 C15.28,7.6 16,6.88 16,6 C16,3.79 14.21,2 12,2 C9.79,2 8,3.79 8,6 C8,6.88 8.72,7.6 9.6,7.6 Z"/>
</svg>

