<svg xmlns="http://www.w3.org/2000/svg" width="24" height="24" viewBox="0 0 24 24">
  <defs/>
  <path fill="#17191C" d="M11.75,18 L11.75,21 Q11.75,21.688 11.273,22.199 Q10.759,22.75 10,22.75 Q8.25,22.75 8.25,21 L8.25,18 Q8.25,17.689 8.47,17.47 Q8.689,17.25 9,17.25 L11,17.25 Q11.311,17.25 11.53,17.47 Q11.75,17.689 11.75,18 Z M10.25,18.75 L9.75,18.75 L9.75,21 Q9.75,21.25 10,21.25 Q10.25,21.25 10.25,21 L10.25,18.75 Z"/>
  <path fill="#17191C" d="M15.75,18 L15.75,21 Q15.75,21.688 15.273,22.199 Q14.759,22.75 14,22.75 Q12.25,22.75 12.25,21 L12.25,18 Q12.25,17.689 12.47,17.47 Q12.689,17.25 13,17.25 L15,17.25 Q15.311,17.25 15.53,17.47 Q15.75,17.689 15.75,18 Z M14.25,18.75 L13.75,18.75 L13.75,21 Q13.75,21.25 14,21.25 Q14.25,21.25 14.25,21 L14.25,18.75 Z"/>
  <path fill="#17191C" d="M17.75,11 L17.75,16 Q17.75,18.75 15,18.75 L9,18.75 Q6.25,18.75 6.25,16 L6.25,11 Q6.25,8.25 9,8.25 L15,8.25 Q17.75,8.25 17.75,11 Z M16.25,11 Q16.25,9.75 15,9.75 L9,9.75 Q8.486,9.75 8.118,10.118 Q7.75,10.486 7.75,11 L7.75,16 Q7.75,16.514 8.118,16.882 Q8.486,17.25 9,17.25 L15,17.25 Q16.25,17.25 16.25,16 Z"/>
  <path fill="#17191C" d="M5.75,11 L5.75,15 Q5.75,15.761 5.255,16.255 Q4.761,16.75 4,16.75 Q2.25,16.75 2.25,15 L2.25,11 Q2.25,9.25 4,9.25 Q4.761,9.25 5.255,9.745 Q5.75,10.239 5.75,11 Z M4.25,11 Q4.25,10.75 4,10.75 Q3.861,10.75 3.805,10.805 Q3.75,10.861 3.75,11 L3.75,15 Q3.75,15.25 4,15.25 Q4.25,15.25 4.25,15 Z"/>
  <path fill="#17191C" d="M21.75,11 L21.75,15 Q21.75,15.761 21.255,16.255 Q20.761,16.75 20,16.75 Q18.25,16.75 18.25,15 L18.25,11 Q18.25,9.25 20,9.25 Q20.761,9.25 21.255,9.745 Q21.75,10.239 21.75,11 Z M20.25,11 Q20.25,10.75 20,10.75 Q19.75,10.75 19.75,11 L19.75,15 Q19.75,15.25 20,15.25 Q20.25,15.25 20.25,15 Z"/>
  <path fill="#17191C" d="M13,18.75 L11,18.75 Q10.689,18.75 10.47,18.53 Q10.25,18.311 10.25,18 Q10.25,17.689 10.47,17.47 Q10.689,17.25 11,17.25 L13,17.25 Q13.311,17.25 13.53,17.47 Q13.75,17.689 13.75,18 Q13.75,18.311 13.53,18.53 Q13.311,18.75 13,18.75 Z"/>
  <path fill="#17191C" d="M9.6,7.75 Q7.25,7.75 7.25,5.286 Q7.25,3.222 8.627,1.747 Q10.024,0.25 12,0.25 Q13.976,0.25 15.373,1.747 Q16.75,3.222 16.75,5.286 Q16.75,6.305 16.086,7.016 Q15.401,7.75 14.4,7.75 Z M9.6,6.25 L14.4,6.25 Q15.25,6.25 15.25,5.286 Q15.25,1.75 12,1.75 Q8.75,1.75 8.75,5.286 Q8.75,6.25 9.6,6.25 Z"/>
</svg>

