<svg xmlns="http://www.w3.org/2000/svg" width="24" height="24" viewBox="0 0 24 24">
  <defs/>
  <path d="M20.89,10.53 C20.48,10.53 20.14,10.19 20.14,9.78 L20.14,6.91 L12,2.84 L3.86,6.91 L3.86,9.78 C3.86,10.19 3.52,10.53 3.11,10.53 C2.7,10.53 2.36,10.19 2.36,9.78 L2.36,6.45 C2.36,6.17 2.52,5.91 2.78,5.78 L11.67,1.34 C11.88,1.23 12.13,1.23 12.34,1.34 L21.23,5.78 C21.48,5.91 21.65,6.17 21.65,6.45 L21.65,9.78 C21.64,10.19 21.3,10.53 20.89,10.53 Z"/>
  <path d="M12,22.75 C11.88,22.75 11.77,22.72 11.67,22.67 L2.78,18.23 C2.53,18.1 2.36,17.84 2.36,17.56 L2.36,14.23 C2.36,13.82 2.7,13.48 3.11,13.48 C3.52,13.48 3.86,13.82 3.86,14.23 L3.86,17.1 L12,21.17 L20.14,17.1 L20.14,14.23 C20.14,13.82 20.48,13.48 20.89,13.48 C21.3,13.48 21.64,13.82 21.64,14.23 L21.64,17.56 C21.64,17.84 21.48,18.1 21.22,18.23 L12.33,22.67 C12.23,22.72 12.12,22.75 12,22.75 Z"/>
  <path d="M12,22.75 C11.59,22.75 11.25,22.41 11.25,22 L11.25,16.44 C11.25,16.03 11.59,15.69 12,15.69 C12.41,15.69 12.75,16.03 12.75,16.44 L12.75,22 C12.75,22.41 12.41,22.75 12,22.75 Z"/>
  <path d="M12,17.19 C9.14,17.19 6.81,14.86 6.81,12 C6.81,9.14 9.14,6.81 12,6.81 C14.86,6.81 17.19,9.14 17.19,12 C17.19,14.86 14.86,17.19 12,17.19 Z M12,8.31 C9.96,8.31 8.31,9.97 8.31,12 C8.31,14.03 9.97,15.69 12,15.69 C14.03,15.69 15.69,14.03 15.69,12 C15.69,9.97 14.04,8.31 12,8.31 Z"/>
</svg>

