<svg xmlns="http://www.w3.org/2000/svg" width="24" height="24" viewBox="0 0 24 24">
  <defs/>
  <path fill="white" opacity="0.58" d="M24,0 L0,0 L0,24 L24,24 L24,0 Z"/>
  <path fill="#292D32" d="M20.89,10.53 C20.48,10.53 20.14,10.19 20.14,9.78 L20.14,6.91 L12,2.84 L3.86,6.91 L3.86,9.78 C3.86,10.19 3.52,10.53 3.11,10.53 C2.7,10.53 2.36,10.19 2.36,9.78 L2.36,6.44 C2.36,6.16 2.52,5.9 2.78,5.77 L11.67,1.33 C11.88,1.22 12.13,1.22 12.34,1.33 L21.23,5.77 C21.48,5.9 21.65,6.16 21.65,6.44 L21.65,9.77 C21.64,10.19 21.3,10.53 20.89,10.53 Z"/>
  <path fill="#292D32" d="M12,22.75 C11.88,22.75 11.77,22.72 11.67,22.67 L2.78,18.23 C2.53,18.1 2.36,17.84 2.36,17.56 L2.36,14.23 C2.36,13.82 2.7,13.48 3.11,13.48 C3.52,13.48 3.86,13.82 3.86,14.23 L3.86,17.1 L12,21.17 L20.14,17.1 L20.14,14.23 C20.14,13.82 20.48,13.48 20.89,13.48 C21.3,13.48 21.64,13.82 21.64,14.23 L21.64,17.56 C21.64,17.84 21.48,18.1 21.22,18.23 L12.33,22.67 C12.23,22.72 12.12,22.75 12,22.75 Z"/>
  <path fill="#292D32" opacity="0.4" d="M16.441,12 C16.441,9.55 14.45,7.56 12.001,7.56 C9.551,7.56 7.561,9.55 7.561,12 C7.561,14.2 9.171,16.02 11.271,16.37 C11.271,16.4 11.261,16.42 11.261,16.44 L11.261,22 C11.261,22.41 11.601,22.75 12.011,22.75 C12.421,22.75 12.761,22.41 12.761,22 L12.761,16.44 C12.761,16.41 12.751,16.39 12.751,16.37 C14.841,16.02 16.441,14.2 16.441,12 Z"/>
</svg>

