<svg xmlns="http://www.w3.org/2000/svg" width="24" height="24" viewBox="0 0 24 24">
  <defs/>
  <path d="M20.889,10.53 C20.479,10.53 20.139,10.19 20.139,9.78 L20.139,6.91 L11.999,2.84 L3.859,6.91 L3.859,9.78 C3.859,10.19 3.519,10.53 3.109,10.53 C2.699,10.53 2.359,10.19 2.359,9.78 L2.359,6.45 C2.359,6.17 2.519,5.91 2.779,5.78 L11.669,1.34 C11.879,1.23 12.129,1.23 12.339,1.34 L21.229,5.78 C21.479,5.91 21.649,6.17 21.649,6.45 L21.649,9.78 C21.639,10.19 21.299,10.53 20.889,10.53 Z"/>
  <path d="M11.999,22.75 C11.879,22.75 11.769,22.721 11.669,22.671 L2.779,18.23 C2.529,18.101 2.359,17.84 2.359,17.561 L2.359,14.23 C2.359,13.82 2.699,13.48 3.109,13.48 C3.519,13.48 3.859,13.82 3.859,14.23 L3.859,17.101 L11.999,21.171 L20.139,17.101 L20.139,14.23 C20.139,13.82 20.479,13.48 20.889,13.48 C21.299,13.48 21.639,13.82 21.639,14.23 L21.639,17.561 C21.639,17.84 21.479,18.101 21.219,18.23 L12.329,22.671 C12.229,22.721 12.119,22.75 11.999,22.75 Z"/>
  <path d="M16.441,11.999 C16.441,9.549 14.45,7.559 12.001,7.559 C9.551,7.559 7.561,9.549 7.561,11.999 C7.561,14.199 9.171,16.019 11.271,16.369 C11.271,16.399 11.261,16.419 11.261,16.439 L11.261,21.999 C11.261,22.409 11.601,22.749 12.011,22.749 C12.421,22.749 12.761,22.409 12.761,21.999 L12.761,16.439 C12.761,16.409 12.751,16.389 12.751,16.369 C14.841,16.019 16.441,14.199 16.441,11.999 Z"/>
</svg>

