<svg xmlns="http://www.w3.org/2000/svg" width="24" height="24" viewBox="0 0 24 24">
  <defs/>
  <path d="M19.219,19.769 Q19.218,19.77 19.218,19.771 Q17.291,22.736 15.41,22.75 Q14.692,22.75 13.803,22.34 L13.799,22.338 Q13.015,21.972 12.32,21.98 Q11.652,21.98 10.867,22.323 Q10.829,22.339 10.818,22.344 L10.802,22.351 Q9.887,22.763 9.184,22.75 Q7.281,22.736 5.452,19.919 Q1.708,14.172 4.412,9.96 Q6.129,7.33 8.84,7.33 Q9.675,7.33 10.911,7.765 Q10.964,7.784 10.985,7.791 Q11.011,7.8 11.061,7.818 Q11.904,8.11 12.31,8.11 Q12.7,8.11 13.443,7.819 Q14.724,7.33 15.76,7.33 Q18.129,7.33 19.817,9.453 Q19.857,9.503 19.887,9.558 Q20.037,9.83 19.95,10.129 Q19.864,10.427 19.592,10.577 Q17.759,11.586 17.943,13.665 Q18.127,15.737 20.026,16.459 Q20.046,16.467 20.066,16.475 Q20.35,16.602 20.461,16.892 Q20.572,17.182 20.445,17.466 Q19.84,18.82 19.219,19.769 Z M17.963,18.949 Q18.362,18.34 18.761,17.525 Q16.678,16.382 16.449,13.798 Q16.222,11.235 18.081,9.779 Q17.045,8.83 15.76,8.83 Q15.001,8.83 13.978,9.221 Q12.983,9.61 12.31,9.61 Q11.651,9.61 10.57,9.235 Q10.519,9.217 10.495,9.209 Q10.466,9.199 10.413,9.18 Q9.418,8.83 8.84,8.83 Q6.941,8.83 5.668,10.78 Q3.494,14.166 6.709,19.101 Q8.099,21.242 9.196,21.25 Q9.578,21.257 10.186,20.983 L10.202,20.976 Q10.23,20.964 10.267,20.948 Q11.339,20.48 12.32,20.48 Q13.34,20.468 14.433,20.978 L14.437,20.98 Q15.021,21.25 15.41,21.25 Q16.473,21.242 17.961,18.952 Z"/>
  <path opacity="0.4" d="M16.753,1.962 Q17.021,3.807 15.723,5.48 Q14.35,7.266 12.312,7.189 Q11.709,7.167 11.602,6.572 Q11.278,4.766 12.661,3.084 Q14.019,1.462 15.956,1.322 Q16.251,1.301 16.48,1.485 Q16.71,1.67 16.753,1.962 Z M15.265,2.984 Q14.459,3.273 13.82,4.036 Q13.165,4.832 13.062,5.617 Q13.892,5.401 14.538,4.56 Q15.142,3.782 15.265,2.984 Z"/>
</svg>

