<svg xmlns="http://www.w3.org/2000/svg" width="24" height="24" viewBox="0 0 24 24">
  <defs/>
  <path d="M19.1,19.16 C18.28,20.42 17.12,21.98 15.67,22 C15.096,22.01 14.721,21.84 14.315,21.656 C14.303,21.651 14.292,21.645 14.28,21.64 C14.263,21.632 14.245,21.624 14.227,21.616 C13.752,21.402 13.237,21.17 12.34,21.18 C11.41,21.18 10.88,21.42 10.39,21.64 C10.379,21.645 10.367,21.65 10.356,21.655 C9.939,21.839 9.554,22.01 8.97,22 C7.54,21.98 6.44,20.57 5.62,19.31 C3.33,15.79 3.08,11.67 4.5,9.47 C5.51,7.91 7.1,7 8.59,7 C9.39,7 10.03,7.23 10.64,7.45 C11.2,7.65 11.73,7.84 12.33,7.84 C12.89,7.84 13.34,7.67 13.84,7.48 C14.43,7.25 15.09,7 16.05,7 C17.38,7 18.79,7.73 19.79,8.99 C16.51,10.8 17.04,15.53 20.36,16.79 C19.91,17.8 19.69,18.26 19.1,19.16 Z"/>
  <path d="M15.84,2 C16,3.1 15.55,4.19 14.96,4.95 C14.33,5.77 13.23,6.41 12.17,6.37 C11.98,5.31 12.47,4.22 13.07,3.49 C13.74,2.69 14.87,2.07 15.84,2 Z"/>
</svg>

