<svg xmlns="http://www.w3.org/2000/svg" width="24" height="24" viewBox="0 0 24 24">
  <defs/>
  <path fill="white" opacity="0.58" d="M24,0 L0,0 L0,24 L24,24 L24,0 Z"/>
  <path fill="#292D32" d="M19.1,19.16 C18.28,20.42 17.12,21.98 15.68,22 C15.106,22.01 14.731,21.84 14.325,21.656 C14.313,21.651 14.301,21.645 14.29,21.64 C14.272,21.632 14.255,21.624 14.237,21.616 C13.762,21.402 13.247,21.17 12.35,21.18 C11.42,21.18 10.89,21.42 10.4,21.64 C10.388,21.645 10.377,21.65 10.366,21.655 C9.949,21.839 9.564,22.01 8.98,22 C7.55,21.98 6.45,20.57 5.63,19.31 C3.34,15.79 3.09,11.67 4.51,9.47 C5.52,7.91 7.11,7 8.6,7 C9.4,7 10.04,7.23 10.64,7.45 C11.2,7.65 11.73,7.84 12.33,7.84 C12.89,7.84 13.34,7.67 13.84,7.48 C14.43,7.25 15.09,7 16.05,7 C17.38,7 18.79,7.73 19.79,8.99 C16.51,10.8 17.04,15.53 20.36,16.79 C19.91,17.8 19.69,18.26 19.1,19.16 Z"/>
  <path fill="#292D32" opacity="0.4" d="M15.84,2 C16,3.1 15.55,4.19 14.96,4.95 C14.33,5.77 13.23,6.41 12.17,6.37 C11.98,5.31 12.47,4.22 13.07,3.49 C13.74,2.69 14.87,2.07 15.84,2 Z"/>
</svg>

