<svg xmlns="http://www.w3.org/2000/svg" width="24" height="24" viewBox="0 0 24 24">
  <defs/>
  <path fill="#17191C" d="M19.236,19.797 Q19.222,19.82 19.207,19.841 Q19.162,19.902 19.07,20.03 Q17.104,22.75 15.4,22.75 Q14.54,22.75 13.794,22.385 Q13.75,22.367 13.682,22.34 Q12.971,22.05 12.3,22.05 Q11.644,22.05 10.779,22.396 Q10.731,22.415 10.682,22.428 Q10.594,22.45 10.399,22.519 Q9.745,22.75 9.2,22.75 Q7.5,22.75 5.4,19.95 Q5.386,19.931 5.373,19.911 Q1.635,14.216 4.364,10.003 Q5.962,7.35 8.8,7.35 Q9.622,7.35 10.937,7.788 L10.937,7.788 Q11.07,7.833 11.306,7.917 Q11.956,8.15 12.3,8.15 Q12.806,8.15 13.421,7.904 Q13.442,7.895 13.463,7.888 Q14.778,7.45 15.8,7.45 Q18.325,7.45 19.9,9.55 Q19.938,9.6 19.966,9.656 Q20.109,9.932 20.014,10.228 Q19.92,10.524 19.644,10.666 Q17.794,11.621 17.972,13.686 Q18.151,15.757 20.071,16.501 Q20.088,16.507 20.105,16.515 Q20.388,16.641 20.5,16.931 Q20.612,17.221 20.485,17.505 Q20.033,18.522 19.236,19.797 Z M17.978,18.98 Q18.456,18.214 18.795,17.558 Q16.7,16.397 16.478,13.814 Q16.256,11.247 18.145,9.836 Q17.165,8.95 15.8,8.95 Q15.029,8.95 13.957,9.305 Q13.085,9.65 12.3,9.65 Q11.695,9.65 10.8,9.329 Q10.58,9.251 10.463,9.212 L10.463,9.211 Q9.378,8.85 8.8,8.85 Q6.805,8.85 5.643,10.786 Q5.636,10.797 5.629,10.809 Q3.426,14.197 6.614,19.069 Q8.254,21.25 9.2,21.25 Q9.487,21.25 9.899,21.104 Q10.119,21.027 10.265,20.986 Q11.374,20.55 12.3,20.55 Q13.264,20.55 14.248,20.951 Q14.335,20.986 14.379,21.004 Q14.408,21.015 14.435,21.029 Q14.877,21.25 15.4,21.25 Q16.337,21.25 17.854,19.151 Q17.933,19.043 17.978,18.98 Z M16.138,1.866 Q16.46,3.637 15.1,5.45 Q13.687,7.334 11.632,7.147 Q11.064,7.095 10.962,6.534 Q10.655,4.844 12,3.05 Q12.017,3.027 12.036,3.006 Q13.4,1.446 15.325,1.254 Q15.617,1.225 15.851,1.401 Q16.085,1.577 16.138,1.866 Z M14.664,2.929 Q13.842,3.229 13.183,3.973 Q12.535,4.845 12.428,5.611 Q13.244,5.424 13.9,4.55 Q14.534,3.705 14.664,2.929 Z"/>
</svg>

