<svg xmlns="http://www.w3.org/2000/svg" width="24" height="24" viewBox="0 0 24 24">
  <defs/>
  <path d="M5.845,17.483 Q6.226,18.335 6.721,19.104 Q8.109,21.242 9.206,21.25 Q9.588,21.257 10.196,20.983 L10.212,20.976 Q10.238,20.965 10.278,20.948 Q11.349,20.48 12.33,20.48 Q13.35,20.468 14.443,20.978 L14.447,20.98 Q15.032,21.25 15.42,21.25 Q16.467,21.242 17.963,18.959 Q18.362,18.349 18.761,17.535 Q16.678,16.392 16.449,13.807 Q16.222,11.245 18.081,9.789 Q17.045,8.84 15.76,8.84 Q15.001,8.84 13.978,9.231 Q12.983,9.62 12.31,9.62 Q11.651,9.62 10.57,9.245 Q10.52,9.227 10.495,9.219 Q10.465,9.208 10.413,9.19 Q9.418,8.84 8.84,8.84 Q6.941,8.84 5.668,10.79 Q5.098,11.678 4.988,13.088 Q4.964,13.398 4.728,13.6 Q4.492,13.802 4.182,13.778 Q3.872,13.754 3.67,13.518 Q3.468,13.282 3.492,12.972 Q3.631,11.185 4.412,9.97 Q6.129,7.34 8.84,7.34 Q9.675,7.34 10.911,7.775 Q10.963,7.793 10.986,7.801 Q11.011,7.81 11.062,7.828 Q11.904,8.12 12.31,8.12 Q12.7,8.12 13.443,7.829 Q14.724,7.34 15.76,7.34 Q18.13,7.34 19.817,9.463 Q19.857,9.513 19.887,9.568 Q20.037,9.84 19.951,10.139 Q19.864,10.437 19.592,10.587 Q17.759,11.596 17.944,13.675 Q18.127,15.747 20.027,16.469 Q20.047,16.476 20.066,16.485 Q20.35,16.612 20.461,16.902 Q20.572,17.192 20.445,17.476 Q19.839,18.831 19.218,19.781 Q17.282,22.736 15.42,22.75 Q14.702,22.75 13.813,22.34 L13.809,22.338 Q13.025,21.972 12.33,21.98 Q11.662,21.98 10.877,22.322 Q10.84,22.339 10.828,22.344 L10.812,22.351 Q9.897,22.763 9.195,22.75 Q7.291,22.736 5.459,19.916 Q4.904,19.051 4.476,18.097 Q4.349,17.813 4.459,17.523 Q4.57,17.233 4.853,17.106 Q5.137,16.979 5.427,17.089 Q5.718,17.2 5.845,17.483 Z M16.152,1.892 Q16.421,3.738 15.123,5.41 Q13.75,7.196 11.712,7.119 Q11.109,7.097 11.002,6.502 Q10.678,4.696 12.061,3.014 Q13.419,1.392 15.356,1.252 Q15.65,1.231 15.88,1.415 Q16.11,1.6 16.152,1.892 Z M14.665,2.915 Q13.859,3.203 13.22,3.966 Q12.565,4.762 12.462,5.548 Q13.291,5.331 13.938,4.49 Q14.541,3.712 14.665,2.915 Z"/>
</svg>

