<svg xmlns="http://www.w3.org/2000/svg" width="24" height="24" viewBox="0 0 24 24">
  <defs/>
  <path fill="#292D32" d="M12,16.75 C11.59,16.75 11.25,16.41 11.25,16 C11.25,15.59 11.59,15.25 12,15.25 C15.45,15.25 18.25,12.45 18.25,9 C18.25,5.55 15.45,2.75 12,2.75 C8.55,2.75 5.75,5.55 5.75,9 C5.75,9.41 5.41,9.75 5,9.75 C4.59,9.75 4.25,9.41 4.25,9 C4.25,4.73 7.73,1.25 12,1.25 C16.27,1.25 19.75,4.73 19.75,9 C19.75,13.27 16.27,16.75 12,16.75 Z"/>
  <path fill="#292D32" d="M12,22.75 C11.59,22.75 11.25,22.41 11.25,22 L11.25,16 C11.25,15.59 11.59,15.25 12,15.25 C12.41,15.25 12.75,15.59 12.75,16 L12.75,22 C12.75,22.41 12.41,22.75 12,22.75 Z"/>
  <path fill="#292D32" d="M15,19.75 L9,19.75 C8.59,19.75 8.25,19.41 8.25,19 C8.25,18.59 8.59,18.25 9,18.25 L15,18.25 C15.41,18.25 15.75,18.59 15.75,19 C15.75,19.41 15.41,19.75 15,19.75 Z"/>
</svg>

