<svg xmlns="http://www.w3.org/2000/svg" width="24" height="24" viewBox="0 0 24 24">
  <defs/>
  <path fill="#292D32" opacity="0.4" d="M16.82,1.91 L7.18,1.91 C5.06,1.91 3.32,3.65 3.32,5.77 L3.32,19.86 C3.32,21.66 4.61,22.42 6.19,21.55 L11.07,18.84 C11.59,18.55 12.43,18.55 12.94,18.84 L17.82,21.55 C19.4,22.43 20.69,21.67 20.69,19.86 L20.69,5.77 C20.68,3.65 18.95,1.91 16.82,1.91 Z"/>
  <path fill="#292D32" d="M11.089,13.25 C10.899,13.25 10.709,13.18 10.559,13.03 L9.059,11.53 C8.769,11.24 8.769,10.76 9.059,10.47 C9.349,10.18 9.829,10.18 10.119,10.47 L11.089,11.44 L14.559,7.97 C14.849,7.68 15.329,7.68 15.619,7.97 C15.909,8.26 15.909,8.74 15.619,9.03 L11.619,13.03 C11.469,13.18 11.279,13.25 11.089,13.25 Z"/>
</svg>

