<svg xmlns="http://www.w3.org/2000/svg" width="24" height="24" viewBox="0 0 24 24">
  <defs/>
  <path fill="#292D32" d="M14.93,2.5 L14.93,8.4 C14.93,8.84 14.41,9.06 14.09,8.77 L12.34,7.16 C12.15,6.98 11.85,6.98 11.66,7.16 L9.91,8.76 C9.59,9.06 9.07,8.83 9.07,8.4 L9.07,2.5 C9.07,2.22 9.29,2 9.57,2 L14.43,2 C14.71,2 14.93,2.22 14.93,2.5 Z"/>
  <path fill="#292D32" d="M16.98,2.059 C16.69,2.019 16.43,2.269 16.43,2.559 L16.43,8.579 C16.43,9.339 15.98,10.029 15.28,10.339 C14.58,10.639 13.77,10.509 13.21,9.989 L12.34,9.189 C12.15,9.009 11.86,9.009 11.66,9.189 L10.79,9.989 C10.43,10.329 9.96,10.499 9.49,10.499 C9.23,10.499 8.97,10.449 8.72,10.339 C8.02,10.029 7.57,9.339 7.57,8.579 L7.57,2.559 C7.57,2.269 7.31,2.019 7.02,2.059 C4.22,2.409 3,4.299 3,6.999 L3,16.999 C3,19.999 4.5,21.999 8,21.999 L16,21.999 C19.5,21.999 21,19.999 21,16.999 L21,6.999 C21,4.299 19.78,2.409 16.98,2.059 Z M17.5,18.749 L9,18.749 C8.59,18.749 8.25,18.409 8.25,17.999 C8.25,17.589 8.59,17.249 9,17.249 L17.5,17.249 C17.91,17.249 18.25,17.589 18.25,17.999 C18.25,18.409 17.91,18.749 17.5,18.749 Z M17.5,14.749 L13.25,14.749 C12.84,14.749 12.5,14.409 12.5,13.999 C12.5,13.589 12.84,13.249 13.25,13.249 L17.5,13.249 C17.91,13.249 18.25,13.589 18.25,13.999 C18.25,14.409 17.91,14.749 17.5,14.749 Z"/>
</svg>

