<svg xmlns="http://www.w3.org/2000/svg" width="24" height="24" viewBox="0 0 24 24">
  <defs/>
  <path fill="#292D32" d="M16,22.75 L8,22.75 C4.35,22.75 2.25,20.65 2.25,17 L2.25,7 C2.25,3.35 4.35,1.25 8,1.25 L16,1.25 C19.65,1.25 21.75,3.35 21.75,7 L21.75,17 C21.75,20.65 19.65,22.75 16,22.75 Z M8,2.75 C5.14,2.75 3.75,4.14 3.75,7 L3.75,17 C3.75,19.86 5.14,21.25 8,21.25 L16,21.25 C18.86,21.25 20.25,19.86 20.25,17 L20.25,7 C20.25,4.14 18.86,2.75 16,2.75 L8,2.75 Z"/>
  <path fill="#292D32" d="M9,11.11 C8.83,11.11 8.66,11.08 8.5,11.01 C8.04,10.81 7.75,10.36 7.75,9.87 L7.75,2 C7.75,1.59 8.09,1.25 8.5,1.25 L15.5,1.25 C15.91,1.25 16.25,1.59 16.25,2 L16.25,9.86 C16.25,10.36 15.96,10.81 15.5,11 C15.05,11.2 14.52,11.11 14.15,10.77 L12,8.8 L9.85,10.78 C9.61,11 9.31,11.11 9,11.11 Z M12,7.21 C12.3,7.21 12.61,7.32 12.85,7.54 L14.75,9.29 L14.75,2.75 L9.25,2.75 L9.25,9.29 L11.15,7.54 C11.39,7.32 11.7,7.21 12,7.21 Z"/>
  <path fill="#292D32" d="M17.5,14.75 L13.25,14.75 C12.84,14.75 12.5,14.41 12.5,14 C12.5,13.59 12.84,13.25 13.25,13.25 L17.5,13.25 C17.91,13.25 18.25,13.59 18.25,14 C18.25,14.41 17.91,14.75 17.5,14.75 Z"/>
  <path fill="#292D32" d="M17.5,18.75 L9,18.75 C8.59,18.75 8.25,18.41 8.25,18 C8.25,17.59 8.59,17.25 9,17.25 L17.5,17.25 C17.91,17.25 18.25,17.59 18.25,18 C18.25,18.41 17.91,18.75 17.5,18.75 Z"/>
</svg>

