<svg xmlns="http://www.w3.org/2000/svg" width="24" height="24" viewBox="0 0 24 24">
  <defs/>
  <path fill="#292D32" d="M16,9.75 L8,9.75 C7.31,9.75 6.75,10.31 6.75,11 L6.75,12.05 C6.78,12.04 6.8,12.03 6.83,12.02 C6.95,11.96 7.08,11.92 7.21,11.88 C7.27,11.86 7.33,11.84 7.4,11.82 C7.6,11.78 7.8,11.75 8.01,11.75 L16.01,11.75 C16.22,11.75 16.42,11.78 16.62,11.82 C16.68,11.83 16.74,11.86 16.81,11.88 C16.94,11.92 17.07,11.96 17.19,12.02 C17.22,12.03 17.25,12.04 17.27,12.05 L17.27,11 C17.25,10.31 16.69,9.75 16,9.75 Z"/>
  <path fill="#292D32" d="M16,13.25 L8,13.25 C7.31,13.25 6.75,13.81 6.75,14.5 L6.75,15 L9.5,15 C9.91,15 10.25,15.34 10.25,15.75 C10.25,16.71 11.04,17.5 12,17.5 C12.96,17.5 13.75,16.71 13.75,15.75 C13.75,15.34 14.09,15 14.5,15 L17.25,15 L17.25,14.5 C17.25,13.81 16.69,13.25 16,13.25 Z"/>
  <path fill="#292D32" d="M16,6.5 L8,6.5 C7.31,6.5 6.75,7.06 6.75,7.75 L6.75,8.56 C7.13,8.37 7.55,8.25 8,8.25 L16,8.25 C16.45,8.25 16.87,8.37 17.25,8.56 L17.25,7.75 C17.25,7.06 16.69,6.5 16,6.5 Z"/>
  <path fill="#292D32" d="M16.19,2 L7.81,2 C4.17,2 2,4.17 2,7.81 L2,16.18 C2,19.83 4.17,22 7.81,22 L16.18,22 C19.82,22 21.99,19.83 21.99,16.19 L21.99,7.81 C22,4.17 19.83,2 16.19,2 Z M19,16.5 L18,16.5 L15.16,16.5 C14.82,17.93 13.53,19 12,19 C10.47,19 9.18,17.93 8.84,16.5 L6,16.5 L5,16.5 C4.59,16.5 4.25,16.16 4.25,15.75 C4.25,15.34 4.59,15 5,15 L5.25,15 L5.25,14.5 L5.25,14 L5.25,11 L5.25,7.75 C5.25,6.23 6.48,5 8,5 L16,5 C17.52,5 18.75,6.23 18.75,7.75 L18.75,11 L18.75,14 L18.75,14.5 L18.75,15 L19,15 C19.41,15 19.75,15.34 19.75,15.75 C19.75,16.16 19.41,16.5 19,16.5 Z"/>
</svg>

