<svg xmlns="http://www.w3.org/2000/svg" width="24" height="24" viewBox="0 0 24 24">
  <defs/>
  <path fill="#292D32" d="M14.5,11.4 L9.5,11.4 C9.09,11.4 8.75,11.06 8.75,10.65 C8.75,10.24 9.09,9.9 9.5,9.9 L14.5,9.9 C14.91,9.9 15.25,10.24 15.25,10.65 C15.25,11.06 14.91,11.4 14.5,11.4 Z"/>
  <path fill="#292D32" d="M12,13.96 C11.59,13.96 11.25,13.62 11.25,13.21 L11.25,8.21 C11.25,7.8 11.59,7.46 12,7.46 C12.41,7.46 12.75,7.8 12.75,8.21 L12.75,13.21 C12.75,13.62 12.41,13.96 12,13.96 Z"/>
  <path fill="#292D32" d="M19.07,22.75 C18.56,22.75 18,22.6 17.46,22.29 L12.58,19.58 C12.29,19.42 11.72,19.42 11.43,19.58 L6.55,22.29 C5.56,22.84 4.55,22.9 3.78,22.44 C3.01,21.99 2.57,21.08 2.57,19.95 L2.57,5.86 C2.57,3.32 4.64,1.25 7.18,1.25 L16.83,1.25 C19.37,1.25 21.44,3.32 21.44,5.86 L21.44,19.95 C21.44,21.08 21,21.99 20.23,22.44 C19.88,22.65 19.48,22.75 19.07,22.75 Z M12,17.96 C12.47,17.96 12.93,18.06 13.3,18.27 L18.18,20.98 C18.69,21.27 19.16,21.33 19.46,21.15 C19.76,20.97 19.93,20.54 19.93,19.95 L19.93,5.86 C19.93,4.15 18.53,2.75 16.82,2.75 L7.18,2.75 C5.47,2.75 4.07,4.15 4.07,5.86 L4.07,19.95 C4.07,20.54 4.24,20.98 4.54,21.15 C4.84,21.32 5.31,21.27 5.82,20.98 L10.7,18.27 C11.07,18.06 11.53,17.96 12,17.96 Z"/>
</svg>

