<svg xmlns="http://www.w3.org/2000/svg" width="24" height="24" viewBox="0 0 24 24">
  <defs/>
  <path fill="#292D32" d="M16.5,22.75 L7.5,22.75 C4.2,22.75 3.75,20.95 3.75,19 L3.75,10.22 C3.75,9.81 4.09,9.47 4.5,9.47 C4.91,9.47 5.25,9.81 5.25,10.22 L5.25,19 C5.25,20.74 5.55,21.25 7.5,21.25 L16.5,21.25 C18.45,21.25 18.75,20.74 18.75,19 L18.75,10.22 C18.75,9.81 19.09,9.47 19.5,9.47 C19.91,9.47 20.25,9.81 20.25,10.22 L20.25,19 C20.25,20.95 19.8,22.75 16.5,22.75 Z"/>
  <path fill="#292D32" d="M19,10.75 L5,10.75 C2.58,10.75 1.25,9.42 1.25,7 L1.25,5 C1.25,2.58 2.58,1.25 5,1.25 L19,1.25 C21.42,1.25 22.75,2.58 22.75,5 L22.75,7 C22.75,9.42 21.42,10.75 19,10.75 Z M5,2.75 C3.42,2.75 2.75,3.42 2.75,5 L2.75,7 C2.75,8.58 3.42,9.25 5,9.25 L19,9.25 C20.58,9.25 21.25,8.58 21.25,7 L21.25,5 C21.25,3.42 20.58,2.75 19,2.75 L5,2.75 Z"/>
  <path fill="#292D32" d="M13.82,14.75 L10.18,14.75 C9.77,14.75 9.43,14.41 9.43,14 C9.43,13.59 9.77,13.25 10.18,13.25 L13.82,13.25 C14.23,13.25 14.57,13.59 14.57,14 C14.57,14.41 14.23,14.75 13.82,14.75 Z"/>
</svg>

