<svg xmlns="http://www.w3.org/2000/svg" width="24" height="24" viewBox="0 0 24 24">
  <defs/>
  <path fill="#292D32" opacity="0.4" d="M19.5,9.97 L19.5,19 C19.5,21 19,22 16.5,22 L7.5,22 C5,22 4.5,21 4.5,19 L4.5,9.97 C4.66,9.99 4.83,10 5,10 L19,10 C19.17,10 19.34,9.99 19.5,9.97 Z"/>
  <path fill="#292D32" d="M22,5 L22,7 C22,8.83 21.17,9.82 19.5,9.97 C19.34,9.99 19.17,10 19,10 L5,10 C4.83,10 4.66,9.99 4.5,9.97 C2.83,9.82 2,8.83 2,7 L2,5 C2,3 3,2 5,2 L19,2 C21,2 22,3 22,5 Z"/>
  <path fill="#292D32" d="M13.82,14.75 L10.18,14.75 C9.77,14.75 9.43,14.41 9.43,14 C9.43,13.59 9.77,13.25 10.18,13.25 L13.82,13.25 C14.23,13.25 14.57,13.59 14.57,14 C14.57,14.41 14.23,14.75 13.82,14.75 Z"/>
</svg>

