<svg xmlns="http://www.w3.org/2000/svg" width="24" height="24" viewBox="0 0 24 24">
  <defs/>
  <path fill="#292D32" d="M22.53,2.53 L2.53,22.53 Q2.311,22.75 2,22.75 Q1.689,22.75 1.47,22.53 Q1.25,22.311 1.25,22 Q1.25,21.689 1.47,21.47 L21.47,1.47 Q21.689,1.25 22,1.25 Q22.311,1.25 22.53,1.47 Q22.75,1.689 22.75,2 Q22.75,2.311 22.53,2.53 Z"/>
  <path fill="#292D32" d="M21.43,8.71 L21.43,19.71 Q21.43,21.647 20.12,22.418 Q18.81,23.189 17.115,22.245 Q17.099,22.236 17.083,22.226 L10.603,18.176 Q10.339,18.011 10.269,17.709 Q10.199,17.406 10.364,17.142 Q10.529,16.879 10.831,16.809 Q11.134,16.739 11.397,16.904 L17.861,20.944 Q18.794,21.458 19.36,21.125 Q19.93,20.789 19.93,19.71 L19.93,8.71 Q19.93,8.399 20.15,8.18 Q20.369,7.96 20.68,7.96 Q20.991,7.96 21.21,8.18 Q21.43,8.399 21.43,8.71 Z"/>
  <path fill="#292D32" d="M2.57,5.86 Q2.57,3.958 3.921,2.605 Q5.273,1.25 7.18,1.25 L16.83,1.25 Q19.027,1.25 20.414,2.969 Q20.609,3.211 20.576,3.52 Q20.543,3.829 20.301,4.024 Q20.059,4.219 19.751,4.186 Q19.442,4.153 19.247,3.911 Q18.31,2.75 16.83,2.75 L7.18,2.75 Q4.07,2.75 4.07,5.86 Q4.07,6.171 3.851,6.39 Q3.631,6.61 3.32,6.61 Q3.01,6.61 2.79,6.39 Q2.57,6.171 2.57,5.86 Z"/>
  <path fill="#292D32" d="M2.57,19.95 L2.57,10.01 Q2.57,9.699 2.79,9.48 Q3.01,9.26 3.32,9.26 Q3.631,9.26 3.851,9.48 Q4.07,9.699 4.07,10.01 L4.07,19.95 Q4.07,20.261 3.851,20.48 Q3.631,20.7 3.32,20.7 Q3.01,20.7 2.79,20.48 Q2.57,20.261 2.57,19.95 Z"/>
</svg>

