<svg xmlns="http://www.w3.org/2000/svg" width="24" height="24" viewBox="0 0 24 24">
  <defs/>
  <path fill="#292D32" opacity="0.4" d="M16.82,2 L7.18,2 C5.05,2 3.32,3.74 3.32,5.86 L3.32,19.95 C3.32,21.75 4.61,22.51 6.19,21.64 L11.07,18.93 C11.59,18.64 12.43,18.64 12.94,18.93 L17.82,21.64 C19.4,22.52 20.69,21.76 20.69,19.95 L20.69,5.86 C20.68,3.74 18.95,2 16.82,2 Z"/>
  <path fill="#292D32" d="M12.001,10.28 C10.981,10.28 9.961,10.1 8.991,9.75 C8.601,9.61 8.401,9.18 8.541,8.79 C8.691,8.4 9.121,8.2 9.511,8.34 C11.121,8.92 12.891,8.92 14.501,8.34 C14.891,8.2 15.321,8.4 15.461,8.79 C15.601,9.18 15.401,9.61 15.011,9.75 C14.041,10.1 13.021,10.28 12.001,10.28 Z"/>
</svg>

