<svg xmlns="http://www.w3.org/2000/svg" width="24" height="24" viewBox="0 0 24 24">
  <defs/>
  <path fill="#292D32" d="M9,22.75 Q1.25,22.75 1.25,15 L1.25,9 Q1.25,1.25 9,1.25 L15,1.25 Q22.75,1.25 22.75,9 L22.75,15 Q22.75,22.75 15,22.75 Z M9,21.25 L15,21.25 Q18.439,21.25 19.845,19.845 Q21.25,18.439 21.25,15 L21.25,9 Q21.25,2.75 15,2.75 L9,2.75 Q2.75,2.75 2.75,9 L2.75,15 Q2.75,18.439 4.155,19.845 Q5.561,21.25 9,21.25 Z"/>
  <g opacity="0.4">
    <path fill="#292D32" d="M18.75,7.75 L18.75,14.5 Q18.75,14.811 18.53,15.03 Q18.311,15.25 18,15.25 Q17.689,15.25 17.47,15.03 Q17.25,14.811 17.25,14.5 Q17.25,13.25 16,13.25 L8,13.25 Q6.75,13.25 6.75,14.5 Q6.75,14.811 6.53,15.03 Q6.311,15.25 6,15.25 Q5.689,15.25 5.47,15.03 Q5.25,14.811 5.25,14.5 L5.25,7.75 Q5.25,6.614 6.057,5.807 Q6.864,5 8,5 L16,5 Q18.75,5 18.75,7.75 Z M17.25,7.75 Q17.25,6.5 16,6.5 L8,6.5 Q7.486,6.5 7.118,6.868 Q6.75,7.236 6.75,7.75 L6.75,12.043 Q7.315,11.75 8,11.75 L16,11.75 Q16.719,11.75 17.25,11.938 Z"/>
    <path fill="#292D32" d="M19,16.5 L18,16.5 Q17.689,16.5 17.47,16.28 Q17.25,16.061 17.25,15.75 Q17.25,15.439 17.47,15.22 Q17.689,15 18,15 L19,15 Q19.311,15 19.53,15.22 Q19.75,15.439 19.75,15.75 Q19.75,16.061 19.53,16.28 Q19.311,16.5 19,16.5 Z"/>
    <path fill="#292D32" d="M6,16.5 L5,16.5 Q4.689,16.5 4.47,16.28 Q4.25,16.061 4.25,15.75 Q4.25,15.439 4.47,15.22 Q4.689,15 5,15 L6,15 Q6.311,15 6.53,15.22 Q6.75,15.439 6.75,15.75 Q6.75,16.061 6.53,16.28 Q6.311,16.5 6,16.5 Z"/>
    <path fill="#292D32" d="M17.25,14 L17.25,11 Q17.25,10.486 16.882,10.118 Q16.514,9.75 16,9.75 L8,9.75 Q7.486,9.75 7.118,10.118 Q6.75,10.486 6.75,11 L6.75,14 Q6.75,14.311 6.53,14.53 Q6.311,14.75 6,14.75 Q5.689,14.75 5.47,14.53 Q5.25,14.311 5.25,14 L5.25,11 Q5.25,9.864 6.057,9.057 Q6.864,8.25 8,8.25 L16,8.25 Q18.75,8.25 18.75,11 L18.75,14 Q18.75,14.311 18.53,14.53 Q18.311,14.75 18,14.75 Q17.689,14.75 17.47,14.53 Q17.25,14.311 17.25,14 Z"/>
    <path fill="#292D32" d="M18.75,14.5 L18.75,15.75 Q18.75,16.061 18.53,16.28 Q18.311,16.5 18,16.5 L15.201,16.5 Q14.85,19 12,19 Q9.15,19 8.799,16.5 L6,16.5 Q5.689,16.5 5.47,16.28 Q5.25,16.061 5.25,15.75 L5.25,14.5 Q5.25,11.75 8,11.75 L16,11.75 Q18.75,11.75 18.75,14.5 Z M17.25,14.5 Q17.25,13.986 16.882,13.618 Q16.514,13.25 16,13.25 L8,13.25 Q6.75,13.25 6.75,14.5 L6.75,15 L9.5,15 Q9.811,15 10.03,15.22 Q10.25,15.439 10.25,15.75 Q10.25,17.5 12,17.5 Q12.724,17.5 13.237,16.987 Q13.75,16.474 13.75,15.75 Q13.75,15.439 13.97,15.22 Q14.189,15 14.5,15 L17.25,15 Z"/>
  </g>
</svg>

