<svg xmlns="http://www.w3.org/2000/svg" width="24" height="24" viewBox="0 0 24 24">
  <defs/>
  <path fill="#292D32" d="M20.25,10.22 L20.25,19 Q20.25,22.75 16.5,22.75 L7.5,22.75 Q3.75,22.75 3.75,19 L3.75,10.22 Q3.75,9.91 3.97,9.69 Q4.189,9.47 4.5,9.47 Q4.811,9.47 5.03,9.69 Q5.25,9.91 5.25,10.22 L5.25,19 Q5.25,20.326 5.627,20.756 Q6.059,21.25 7.5,21.25 L16.5,21.25 Q17.941,21.25 18.373,20.756 Q18.75,20.326 18.75,19 L18.75,10.22 Q18.75,9.91 18.97,9.69 Q19.189,9.47 19.5,9.47 Q19.811,9.47 20.03,9.69 Q20.25,9.91 20.25,10.22 Z"/>
  <path fill="#292D32" d="M5,1.25 L19,1.25 Q22.75,1.25 22.75,5 L22.75,7 Q22.75,10.75 19,10.75 L5,10.75 Q1.25,10.75 1.25,7 L1.25,5 Q1.25,1.25 5,1.25 Z M5,2.75 Q2.75,2.75 2.75,5 L2.75,7 Q2.75,9.25 5,9.25 L19,9.25 Q21.25,9.25 21.25,7 L21.25,5 Q21.25,2.75 19,2.75 Z"/>
  <path fill="#292D32" opacity="0.34" d="M10.18,13.25 L13.82,13.25 Q14.13,13.25 14.35,13.47 Q14.57,13.689 14.57,14 Q14.57,14.311 14.35,14.53 Q14.13,14.75 13.82,14.75 L10.18,14.75 Q9.869,14.75 9.649,14.53 Q9.43,14.311 9.43,14 Q9.43,13.689 9.649,13.47 Q9.869,13.25 10.18,13.25 Z"/>
</svg>

