<svg xmlns="http://www.w3.org/2000/svg" width="24" height="24" viewBox="0 0 24 24">
  <defs/>
  <path fill="#292D32" opacity="0.4" d="M20.68,6.32 L20.68,19.95 C20.68,21.75 19.39,22.51 17.82,21.64 L12.94,18.92 C12.42,18.64 11.58,18.64 11.06,18.92 L6.18,21.64 C5.76,21.87 5.36,21.99 5,22 L20.68,6.32 Z"/>
  <path fill="#292D32" d="M20.12,3.88 L3.39,20.61 C3.34,20.41 3.32,20.19 3.32,19.95 L3.32,5.86 C3.32,3.74 5.05,2 7.18,2 L16.82,2 C18.22,2 19.45,2.75 20.12,3.88 Z"/>
  <path fill="#292D32" d="M21.771,2.23 C21.471,1.93 20.981,1.93 20.681,2.23 L2.231,20.69 C1.931,20.99 1.931,21.48 2.231,21.78 C2.381,21.92 2.571,22 2.771,22 C2.971,22 3.161,21.92 3.311,21.77 L21.771,3.31 C22.081,3.01 22.081,2.53 21.771,2.23 Z"/>
</svg>

