<svg xmlns="http://www.w3.org/2000/svg" width="24" height="24" viewBox="0 0 24 24">
  <defs/>
  <path fill="#292D32" opacity="0.4" d="M16.19,2 L7.82,2 C4.18,2 2.01,4.17 2.01,7.81 L2.01,16.18 C2.01,19.82 4.18,21.99 7.82,21.99 L16.19,21.99 C19.83,21.99 22,19.82 22,16.18 L22,7.81 C22,4.17 19.83,2 16.19,2 Z"/>
  <path fill="#292D32" d="M19,15 L18.75,15 L18.75,14.5 L18.75,14 L18.75,11 L18.75,7.75 C18.75,6.23 17.52,5 16,5 L8,5 C6.48,5 5.25,6.23 5.25,7.75 L5.25,11 L5.25,14 L5.25,14.5 L5.25,15 L5,15 C4.59,15 4.25,15.34 4.25,15.75 C4.25,16.16 4.59,16.5 5,16.5 L6,16.5 L8.84,16.5 C9.18,17.93 10.47,19 12,19 C13.53,19 14.82,17.93 15.16,16.5 L18,16.5 L19,16.5 C19.41,16.5 19.75,16.16 19.75,15.75 C19.75,15.34 19.41,15 19,15 Z M16.79,11.88 C16.73,11.86 16.67,11.84 16.6,11.82 C16.4,11.78 16.2,11.75 15.99,11.75 L7.99,11.75 C7.78,11.75 7.58,11.78 7.38,11.82 C7.32,11.83 7.26,11.86 7.19,11.88 C7.06,11.92 6.93,11.96 6.81,12.02 C6.78,12.03 6.75,12.04 6.73,12.05 L6.73,11 C6.73,10.31 7.29,9.75 7.98,9.75 L15.98,9.75 C16.67,9.75 17.23,10.31 17.23,11 L17.23,12.05 C17.2,12.04 17.18,12.03 17.15,12.02 C17.05,11.96 16.92,11.92 16.79,11.88 Z M8,6.5 L16,6.5 C16.69,6.5 17.25,7.06 17.25,7.75 L17.25,8.56 C16.87,8.37 16.45,8.25 16,8.25 L8,8.25 C7.55,8.25 7.13,8.37 6.75,8.56 L6.75,7.75 C6.75,7.06 7.31,6.5 8,6.5 Z M14.5,15 C14.09,15 13.75,15.34 13.75,15.75 C13.75,16.71 12.96,17.5 12,17.5 C11.04,17.5 10.25,16.71 10.25,15.75 C10.25,15.34 9.91,15 9.5,15 L6.75,15 L6.75,14.5 C6.75,13.81 7.31,13.25 8,13.25 L16,13.25 C16.69,13.25 17.25,13.81 17.25,14.5 L17.25,15 L14.5,15 Z"/>
</svg>

