<svg xmlns="http://www.w3.org/2000/svg" width="24" height="24" viewBox="0 0 24 24">
  <defs/>
  <path fill="#292D32" d="M16.82,2 L7.18,2 C5.05,2 3.32,3.74 3.32,5.86 L3.32,19.95 C3.32,21.75 4.61,22.51 6.19,21.64 L11.07,18.93 C11.59,18.64 12.43,18.64 12.94,18.93 L17.82,21.64 C19.4,22.52 20.69,21.76 20.69,19.95 L20.69,5.86 C20.68,3.74 18.95,2 16.82,2 Z M14.5,11.4 L12.75,11.4 L12.75,13.21 C12.75,13.62 12.41,13.96 12,13.96 C11.59,13.96 11.25,13.62 11.25,13.21 L11.25,11.4 L9.5,11.4 C9.09,11.4 8.75,11.06 8.75,10.65 C8.75,10.24 9.09,9.9 9.5,9.9 L11.25,9.9 L11.25,8.21 C11.25,7.8 11.59,7.46 12,7.46 C12.41,7.46 12.75,7.8 12.75,8.21 L12.75,9.9 L14.5,9.9 C14.91,9.9 15.25,10.24 15.25,10.65 C15.25,11.06 14.91,11.4 14.5,11.4 Z"/>
</svg>

