<svg xmlns="http://www.w3.org/2000/svg" width="24" height="24" viewBox="0 0 24 24">
  <defs/>
  <path fill="#292D32" d="M4.93,22.75 C4.51,22.75 4.12,22.65 3.77,22.45 C3,22 2.56,21.09 2.56,19.96 L2.56,5.86 C2.56,3.32 4.63,1.25 7.17,1.25 L16.82,1.25 C19.36,1.25 21.43,3.32 21.43,5.86 L21.43,19.95 C21.43,21.08 20.99,21.99 20.22,22.44 C19.45,22.89 18.44,22.84 17.45,22.29 L12.57,19.58 C12.28,19.42 11.71,19.42 11.42,19.58 L6.54,22.29 C6,22.59 5.45,22.75 4.93,22.75 Z M7.18,2.75 C5.47,2.75 4.07,4.15 4.07,5.86 L4.07,19.95 C4.07,20.54 4.24,20.98 4.54,21.15 C4.84,21.32 5.31,21.27 5.82,20.98 L10.7,18.27 C11.44,17.86 12.56,17.86 13.3,18.27 L18.18,20.98 C18.69,21.27 19.16,21.33 19.46,21.15 C19.76,20.97 19.93,20.53 19.93,19.95 L19.93,5.86 C19.93,4.15 18.53,2.75 16.82,2.75 L7.18,2.75 Z"/>
  <path fill="#292D32" d="M11.09,13.25 C10.9,13.25 10.71,13.18 10.56,13.03 L9.06,11.53 C8.77,11.24 8.77,10.76 9.06,10.47 C9.35,10.18 9.83,10.18 10.12,10.47 L11.09,11.44 L14.56,7.97 C14.85,7.68 15.33,7.68 15.62,7.97 C15.91,8.26 15.91,8.74 15.62,9.03 L11.62,13.03 C11.47,13.18 11.28,13.25 11.09,13.25 Z"/>
</svg>

