<svg xmlns="http://www.w3.org/2000/svg" width="24" height="24" viewBox="0 0 24 24">
  <defs/>
  <path fill="#292D32" d="M14.5,11.4 L9.5,11.4 Q9.189,11.4 8.97,11.18 Q8.75,10.961 8.75,10.65 Q8.75,10.339 8.97,10.12 Q9.189,9.9 9.5,9.9 L14.5,9.9 Q14.811,9.9 15.03,10.12 Q15.25,10.339 15.25,10.65 Q15.25,10.961 15.03,11.18 Q14.811,11.4 14.5,11.4 Z"/>
  <path fill="#292D32" d="M12.75,8.21 L12.75,13.21 Q12.75,13.521 12.53,13.74 Q12.311,13.96 12,13.96 Q11.689,13.96 11.47,13.74 Q11.25,13.521 11.25,13.21 L11.25,8.21 Q11.25,7.899 11.47,7.68 Q11.689,7.46 12,7.46 Q12.311,7.46 12.53,7.68 Q12.75,7.899 12.75,8.21 Z"/>
  <path fill="#292D32" d="M4.07,10.04 L4.07,19.95 Q4.07,20.871 4.543,21.15 Q5.018,21.429 5.829,20.983 L10.706,18.274 Q12.018,17.543 13.311,18.278 L18.184,20.984 Q18.995,21.436 19.467,21.157 Q19.94,20.879 19.94,19.95 L19.94,5.86 Q19.94,2.75 16.83,2.75 L7.18,2.75 Q4.07,2.75 4.07,5.86 Q4.07,6.171 3.851,6.39 Q3.631,6.61 3.32,6.61 Q3.01,6.61 2.79,6.39 Q2.57,6.171 2.57,5.86 Q2.57,3.958 3.921,2.605 Q5.273,1.25 7.18,1.25 L16.83,1.25 Q18.731,1.25 20.086,2.605 Q21.44,3.959 21.44,5.86 L21.44,19.95 Q21.44,21.736 20.228,22.45 Q19.016,23.164 17.456,22.296 L12.57,19.582 Q12.011,19.264 11.434,19.586 L6.552,22.297 Q4.993,23.156 3.782,22.443 Q2.57,21.729 2.57,19.95 L2.57,10.04 Q2.57,9.729 2.79,9.51 Q3.01,9.29 3.32,9.29 Q3.631,9.29 3.851,9.51 Q4.07,9.729 4.07,10.04 Z"/>
</svg>

