<svg xmlns="http://www.w3.org/2000/svg" width="24" height="24" viewBox="0 0 24 24">
  <defs/>
  <path fill="#292D32" d="M21.75,7 L21.75,17 Q21.75,22.75 16,22.75 L8,22.75 Q2.25,22.75 2.25,17 L2.25,7 Q2.25,1.25 8,1.25 L16,1.25 Q21.75,1.25 21.75,7 Z M20.25,7 Q20.25,2.75 16,2.75 L8,2.75 Q3.75,2.75 3.75,7 L3.75,17 Q3.75,21.25 8,21.25 L16,21.25 Q20.25,21.25 20.25,17 Z"/>
  <path fill="#292D32" d="M16.25,2 L16.25,9.86 Q16.25,10.681 15.498,11.007 Q14.756,11.329 14.156,10.786 L12,8.797 L9.849,10.781 Q9.244,11.329 8.502,11.007 Q7.75,10.681 7.75,9.86 L7.75,2 Q7.75,1.689 7.97,1.47 Q8.189,1.25 8.5,1.25 L15.5,1.25 Q15.811,1.25 16.03,1.47 Q16.25,1.689 16.25,2 Z M14.75,2.75 L9.25,2.75 L9.25,9.293 L11.144,7.546 Q12,6.735 12.849,7.539 L14.75,9.293 L14.75,2.75 Z M12.166,8.643 Q12.171,8.639 12.176,8.634 L12.166,8.643 Z M11.84,8.649 L11.831,8.641 Q11.836,8.645 11.84,8.649 Z"/>
  <path fill="#292D32" d="M13.25,13.25 L17.5,13.25 Q17.811,13.25 18.03,13.47 Q18.25,13.689 18.25,14 Q18.25,14.311 18.03,14.53 Q17.811,14.75 17.5,14.75 L13.25,14.75 Q12.939,14.75 12.72,14.53 Q12.5,14.311 12.5,14 Q12.5,13.689 12.72,13.47 Q12.939,13.25 13.25,13.25 Z"/>
  <path fill="#292D32" d="M9,17.25 L17.5,17.25 Q17.811,17.25 18.03,17.47 Q18.25,17.689 18.25,18 Q18.25,18.311 18.03,18.53 Q17.811,18.75 17.5,18.75 L9,18.75 Q8.689,18.75 8.47,18.53 Q8.25,18.311 8.25,18 Q8.25,17.689 8.47,17.47 Q8.689,17.25 9,17.25 Z"/>
</svg>

