<svg xmlns="http://www.w3.org/2000/svg" width="24" height="24" viewBox="0 0 24 24">
  <defs/>
  <path fill="#292D32" d="M16.82,1.25 Q18.726,1.25 20.08,2.605 Q21.431,3.955 21.44,5.86 L21.44,19.95 Q21.44,21.736 20.228,22.45 Q19.015,23.164 17.456,22.296 L12.569,19.582 Q12.01,19.264 11.434,19.586 L6.552,22.297 Q4.993,23.156 3.782,22.443 Q2.57,21.729 2.57,19.95 L2.57,5.86 Q2.57,3.958 3.92,2.605 Q5.273,1.25 7.18,1.25 Z M16.82,2.75 L7.18,2.75 Q4.07,2.75 4.07,5.86 L4.07,19.95 Q4.07,20.871 4.543,21.15 Q5.017,21.429 5.828,20.983 L10.706,18.274 Q12.018,17.543 13.311,18.278 L18.184,20.984 Q18.994,21.436 19.467,21.157 Q19.94,20.879 19.94,19.95 L19.94,5.86 Q19.925,2.75 16.82,2.75 Z"/>
  <path fill="#292D32" d="M10.12,10.47 L11.09,11.439 L14.56,7.97 Q14.779,7.75 15.09,7.75 Q15.401,7.75 15.62,7.97 Q15.84,8.189 15.84,8.5 Q15.84,8.811 15.62,9.03 L11.62,13.03 Q11.401,13.25 11.09,13.25 Q10.779,13.25 10.56,13.03 L9.06,11.53 Q8.84,11.311 8.84,11 Q8.84,10.689 9.06,10.47 Q9.279,10.25 9.59,10.25 Q9.901,10.25 10.12,10.47 Z"/>
</svg>

