<svg xmlns="http://www.w3.org/2000/svg" width="24" height="24" viewBox="0 0 24 24">
  <defs/>
  <path fill="#292D32" d="M14.5,11.4 L9.5,11.4 Q9.189,11.4 8.97,11.18 Q8.75,10.961 8.75,10.65 Q8.75,10.339 8.97,10.12 Q9.189,9.9 9.5,9.9 L14.5,9.9 Q14.811,9.9 15.03,10.12 Q15.25,10.339 15.25,10.65 Q15.25,10.961 15.03,11.18 Q14.811,11.4 14.5,11.4 Z"/>
  <path fill="#292D32" d="M4.07,10.01 L4.07,19.94 Q4.07,20.861 4.543,21.14 Q5.018,21.419 5.829,20.973 L10.706,18.264 Q12.018,17.533 13.311,18.268 L18.184,20.974 Q18.995,21.426 19.467,21.147 Q19.94,20.869 19.94,19.94 L19.94,5.86 Q19.94,2.75 16.83,2.75 L7.18,2.75 Q4.07,2.75 4.07,5.86 Q4.07,6.171 3.851,6.39 Q3.631,6.61 3.32,6.61 Q3.01,6.61 2.79,6.39 Q2.57,6.171 2.57,5.86 Q2.57,3.958 3.921,2.605 Q5.273,1.25 7.18,1.25 L16.83,1.25 Q18.731,1.25 20.086,2.605 Q21.44,3.959 21.44,5.86 L21.44,19.94 Q21.44,21.726 20.228,22.44 Q19.016,23.154 17.456,22.286 L12.57,19.572 Q12.011,19.254 11.434,19.576 L6.552,22.287 Q4.993,23.146 3.782,22.433 Q2.57,21.719 2.57,19.94 L2.57,10.01 Q2.57,9.699 2.79,9.48 Q3.01,9.26 3.32,9.26 Q3.631,9.26 3.851,9.48 Q4.07,9.699 4.07,10.01 Z"/>
</svg>

