<svg xmlns="http://www.w3.org/2000/svg" width="24" height="24" viewBox="0 0 24 24">
  <defs/>
  <path fill="#292D32" opacity="0.4" d="M21,7 L21,17 C21,20 19.5,22 16,22 L8,22 C4.5,22 3,20 3,17 L3,7 C3,4 4.5,2 8,2 L16,2 C19.5,2 21,4 21,7 Z"/>
  <path fill="#292D32" d="M15.5,2 L15.5,9.86 C15.5,10.3 14.98,10.52 14.66,10.23 L12.34,8.09 C12.15,7.91 11.85,7.91 11.66,8.09 L9.34,10.23 C9.02,10.53 8.5,10.3 8.5,9.86 L8.5,2 L15.5,2 Z"/>
  <path fill="#292D32" d="M17.5,14.75 L13.25,14.75 C12.84,14.75 12.5,14.41 12.5,14 C12.5,13.59 12.84,13.25 13.25,13.25 L17.5,13.25 C17.91,13.25 18.25,13.59 18.25,14 C18.25,14.41 17.91,14.75 17.5,14.75 Z"/>
  <path fill="#292D32" d="M17.5,18.75 L9,18.75 C8.59,18.75 8.25,18.41 8.25,18 C8.25,17.59 8.59,17.25 9,17.25 L17.5,17.25 C17.91,17.25 18.25,17.59 18.25,18 C18.25,18.41 17.91,18.75 17.5,18.75 Z"/>
</svg>

