<svg xmlns="http://www.w3.org/2000/svg" width="24" height="24" viewBox="0 0 24 24">
  <defs/>
  <path fill="#292D32" d="M2,22.75 C1.81,22.75 1.62,22.68 1.47,22.53 C1.18,22.24 1.18,21.76 1.47,21.47 L21.47,1.47 C21.76,1.18 22.24,1.18 22.53,1.47 C22.82,1.76 22.82,2.24 22.53,2.53 L2.53,22.53 C2.38,22.68 2.19,22.75 2,22.75 Z"/>
  <path fill="#292D32" d="M18.88,22.75 C18.32,22.75 17.72,22.58 17.12,22.25 L10.6,18.18 C10.25,17.96 10.14,17.5 10.36,17.15 C10.58,16.8 11.04,16.69 11.39,16.91 L17.88,20.96 C18.44,21.27 19,21.34 19.36,21.13 C19.72,20.92 19.93,20.4 19.93,19.71 L19.93,8.71 C19.93,8.3 20.27,7.96 20.68,7.96 C21.09,7.96 21.43,8.3 21.43,8.71 L21.43,19.71 C21.43,20.94 20.95,21.93 20.12,22.42 C19.75,22.64 19.33,22.75 18.88,22.75 Z"/>
  <path fill="#292D32" d="M3.32,20.7 C2.91,20.7 2.57,20.36 2.57,19.95 L2.57,5.86 C2.57,3.32 4.64,1.25 7.18,1.25 L16.83,1.25 C18.22,1.25 19.53,1.87 20.41,2.96 C20.67,3.28 20.62,3.75 20.3,4.02 C19.98,4.28 19.51,4.23 19.25,3.91 C18.65,3.17 17.77,2.75 16.83,2.75 L7.18,2.75 C5.47,2.75 4.07,4.15 4.07,5.86 L4.07,19.95 C4.07,20.36 3.73,20.7 3.32,20.7 Z"/>
</svg>

