<svg xmlns="http://www.w3.org/2000/svg" width="24" height="24" viewBox="0 0 24 24">
  <defs/>
  <path fill="#292D32" d="M20.12,3.88 L3.39,20.61 C3.34,20.41 3.32,20.19 3.32,19.95 L3.32,5.86 C3.32,3.74 5.05,2 7.18,2 L16.82,2 C18.22,2 19.45,2.75 20.12,3.88 Z"/>
  <path fill="#292D32" d="M21.771,2.229 C21.471,1.929 20.981,1.929 20.681,2.229 L2.231,20.689 C1.931,20.989 1.931,21.479 2.231,21.779 C2.381,21.919 2.571,21.999 2.771,21.999 C2.971,21.999 3.161,21.919 3.311,21.769 L21.771,3.309 C22.081,3.009 22.081,2.529 21.771,2.229 Z"/>
  <path fill="#292D32" d="M19.29,7.711 L11.9,15.101 C11.44,15.56 11.53,16.331 12.09,16.66 L19.48,21.09 C20.15,21.491 20.99,21.011 20.99,20.23 L20.99,8.411 C21,7.521 19.92,7.081 19.29,7.711 Z"/>
</svg>

