<svg xmlns="http://www.w3.org/2000/svg" width="24" height="24" viewBox="0 0 24 24">
  <defs/>
  <path fill="#292D32" d="M15,22.75 L9,22.75 C3.57,22.75 1.25,20.43 1.25,15 L1.25,9 C1.25,3.57 3.57,1.25 9,1.25 L15,1.25 C20.43,1.25 22.75,3.57 22.75,9 L22.75,15 C22.75,20.43 20.43,22.75 15,22.75 Z M9,2.75 C4.39,2.75 2.75,4.39 2.75,9 L2.75,15 C2.75,19.61 4.39,21.25 9,21.25 L15,21.25 C19.61,21.25 21.25,19.61 21.25,15 L21.25,9 C21.25,4.39 19.61,2.75 15,2.75 L9,2.75 Z"/>
  <path fill="#292D32" d="M18,15.25 C17.59,15.25 17.25,14.91 17.25,14.5 C17.25,13.81 16.69,13.25 16,13.25 L8,13.25 C7.31,13.25 6.75,13.81 6.75,14.5 C6.75,14.91 6.41,15.25 6,15.25 C5.59,15.25 5.25,14.91 5.25,14.5 L5.25,7.75 C5.25,6.23 6.48,5 8,5 L16,5 C17.52,5 18.75,6.23 18.75,7.75 L18.75,14.5 C18.75,14.91 18.41,15.25 18,15.25 Z M8,11.75 L16,11.75 C16.45,11.75 16.88,11.86 17.25,12.05 L17.25,7.75 C17.25,7.06 16.69,6.5 16,6.5 L8,6.5 C7.31,6.5 6.75,7.06 6.75,7.75 L6.75,12.05 C7.12,11.86 7.55,11.75 8,11.75 Z"/>
  <path fill="#292D32" d="M19,16.5 L18,16.5 C17.59,16.5 17.25,16.16 17.25,15.75 C17.25,15.34 17.59,15 18,15 L19,15 C19.41,15 19.75,15.34 19.75,15.75 C19.75,16.16 19.41,16.5 19,16.5 Z"/>
  <path fill="#292D32" d="M6,16.5 L5,16.5 C4.59,16.5 4.25,16.16 4.25,15.75 C4.25,15.34 4.59,15 5,15 L6,15 C6.41,15 6.75,15.34 6.75,15.75 C6.75,16.16 6.41,16.5 6,16.5 Z"/>
  <path fill="#292D32" d="M18,14.75 C17.59,14.75 17.25,14.41 17.25,14 L17.25,11 C17.25,10.31 16.69,9.75 16,9.75 L8,9.75 C7.31,9.75 6.75,10.31 6.75,11 L6.75,14 C6.75,14.41 6.41,14.75 6,14.75 C5.59,14.75 5.25,14.41 5.25,14 L5.25,11 C5.25,9.48 6.48,8.25 8,8.25 L16,8.25 C17.52,8.25 18.75,9.48 18.75,11 L18.75,14 C18.75,14.41 18.41,14.75 18,14.75 Z"/>
  <path fill="#292D32" d="M12,19 C10.47,19 9.18,17.93 8.84,16.5 L6,16.5 C5.59,16.5 5.25,16.16 5.25,15.75 L5.25,14.5 C5.25,12.98 6.48,11.75 8,11.75 L16,11.75 C17.52,11.75 18.75,12.98 18.75,14.5 L18.75,15.75 C18.75,16.16 18.41,16.5 18,16.5 L15.16,16.5 C14.82,17.93 13.53,19 12,19 Z M6.75,15 L9.5,15 C9.91,15 10.25,15.34 10.25,15.75 C10.25,16.71 11.04,17.5 12,17.5 C12.96,17.5 13.75,16.71 13.75,15.75 C13.75,15.34 14.09,15 14.5,15 L17.25,15 L17.25,14.5 C17.25,13.81 16.69,13.25 16,13.25 L8,13.25 C7.31,13.25 6.75,13.81 6.75,14.5 L6.75,15 Z"/>
</svg>

