<svg xmlns="http://www.w3.org/2000/svg" width="24" height="24" viewBox="0 0 24 24">
  <defs/>
  <path fill="#292D32" opacity="0.4" d="M12,22 C17.523,22 22,17.523 22,12 C22,6.477 17.523,2 12,2 C6.477,2 2,6.477 2,12 C2,17.523 6.477,22 12,22 Z"/>
  <path fill="#292D32" d="M17.85,13.53 C17.77,13.35 17.63,13.2 17.44,13.12 C17.35,13.08 17.25,13.06 17.15,13.06 L6.84,13.06 C6.43,13.06 6.09,13.4 6.09,13.81 C6.09,14.22 6.43,14.56 6.84,14.56 L15.34,14.56 L13.58,16.32 C13.29,16.61 13.29,17.09 13.58,17.38 C13.73,17.53 13.92,17.6 14.11,17.6 C14.3,17.6 14.49,17.53 14.64,17.38 L17.68,14.34 C17.75,14.27 17.8,14.19 17.84,14.1 C17.92,13.92 17.92,13.71 17.85,13.53 Z"/>
  <path fill="#292D32" d="M17.15,9.43 L8.65,9.43 L10.41,7.67 C10.7,7.38 10.7,6.9 10.41,6.61 C10.12,6.32 9.64,6.32 9.35,6.61 L6.31,9.65 C6.24,9.72 6.19,9.8 6.15,9.89 C6.07,10.07 6.07,10.28 6.15,10.46 C6.23,10.64 6.37,10.79 6.56,10.87 C6.65,10.91 6.75,10.93 6.85,10.93 L17.16,10.93 C17.57,10.93 17.91,10.59 17.91,10.18 C17.91,9.77 17.57,9.43 17.15,9.43 Z"/>
</svg>

