<svg xmlns="http://www.w3.org/2000/svg" width="24" height="24" viewBox="0 0 24 24">
  <defs/>
  <path fill="#292D32" opacity="0.4" d="M16.19,2 L7.82,2 C4.17,2 2,4.17 2,7.81 L2,16.18 C2,19.82 4.17,21.99 7.81,21.99 L16.18,21.99 C19.82,21.99 21.99,19.82 21.99,16.18 L21.99,7.81 C22,4.17 19.83,2 16.19,2 Z"/>
  <path fill="#292D32" d="M10.18,6.1 C9.77,6.1 9.43,6.44 9.43,6.85 L9.43,15.35 L7.67,13.59 C7.38,13.3 6.9,13.3 6.61,13.59 C6.32,13.88 6.32,14.36 6.61,14.65 L9.65,17.69 C9.72,17.76 9.8,17.81 9.89,17.85 C9.98,17.89 10.08,17.91 10.18,17.91 C10.28,17.91 10.37,17.89 10.47,17.85 C10.65,17.77 10.8,17.63 10.88,17.44 C10.92,17.35 10.94,17.25 10.94,17.15 L10.94,6.85 C10.93,6.43 10.6,6.1 10.18,6.1 Z"/>
  <path fill="#292D32" d="M17.39,9.36 L14.35,6.32 C14.28,6.25 14.2,6.2 14.11,6.16 C13.93,6.08 13.72,6.08 13.54,6.16 C13.36,6.24 13.21,6.38 13.13,6.57 C13.09,6.66 13.07,6.76 13.07,6.86 L13.07,17.17 C13.07,17.58 13.41,17.92 13.82,17.92 C14.23,17.92 14.57,17.58 14.57,17.17 L14.57,8.67 L16.33,10.43 C16.48,10.58 16.67,10.65 16.86,10.65 C17.05,10.65 17.24,10.58 17.39,10.43 C17.68,10.12 17.68,9.65 17.39,9.36 Z"/>
</svg>

