<svg xmlns="http://www.w3.org/2000/svg" width="24" height="24" viewBox="0 0 24 24">
  <defs/>
  <path fill="#292D32" d="M16.19,2 L7.81,2 C4.17,2 2,4.17 2,7.81 L2,16.18 C2,19.83 4.17,22 7.81,22 L16.18,22 C19.82,22 21.99,19.83 21.99,16.19 L21.99,7.81 C22,4.17 19.83,2 16.19,2 Z M10.93,17.15 C10.93,17.25 10.91,17.34 10.87,17.44 C10.79,17.62 10.65,17.77 10.46,17.85 C10.37,17.89 10.27,17.91 10.17,17.91 C10.07,17.91 9.98,17.89 9.88,17.85 C9.79,17.81 9.71,17.76 9.64,17.69 L6.6,14.65 C6.31,14.36 6.31,13.88 6.6,13.59 C6.89,13.3 7.37,13.3 7.66,13.59 L9.42,15.35 L9.42,6.85 C9.42,6.44 9.76,6.1 10.17,6.1 C10.58,6.1 10.92,6.44 10.92,6.85 L10.92,17.15 L10.93,17.15 Z M17.39,10.42 C17.24,10.57 17.05,10.64 16.86,10.64 C16.67,10.64 16.48,10.57 16.33,10.42 L14.57,8.66 L14.57,17.16 C14.57,17.57 14.23,17.91 13.82,17.91 C13.41,17.91 13.07,17.57 13.07,17.16 L13.07,6.85 C13.07,6.75 13.09,6.66 13.13,6.56 C13.21,6.38 13.35,6.23 13.54,6.15 C13.72,6.07 13.93,6.07 14.11,6.15 C14.2,6.19 14.28,6.24 14.35,6.31 L17.39,9.35 C17.68,9.65 17.68,10.12 17.39,10.42 Z"/>
</svg>

