<svg xmlns="http://www.w3.org/2000/svg" width="24" height="24" viewBox="0 0 24 24">
  <defs/>
  <path fill="#292D32" d="M9.65,17.68 L6.61,14.64 Q6.391,14.421 6.391,14.11 Q6.391,13.799 6.61,13.58 Q6.83,13.36 7.141,13.36 Q7.451,13.36 7.671,13.58 L10.711,16.62 Q10.931,16.839 10.931,17.15 Q10.931,17.461 10.711,17.68 Q10.491,17.9 10.181,17.9 Q9.87,17.9 9.65,17.68 Z"/>
  <path fill="#292D32" d="M10.93,6.85 L10.93,17.15 Q10.93,17.461 10.71,17.68 Q10.49,17.9 10.18,17.9 Q9.869,17.9 9.649,17.68 Q9.43,17.461 9.43,17.15 L9.43,6.85 Q9.43,6.539 9.649,6.32 Q9.869,6.1 10.18,6.1 Q10.49,6.1 10.71,6.32 Q10.93,6.539 10.93,6.85 Z"/>
  <path fill="#292D32" d="M14.351,6.32 L17.391,9.36 Q17.61,9.579 17.61,9.89 Q17.61,10.201 17.391,10.42 Q17.171,10.64 16.86,10.64 Q16.55,10.64 16.33,10.42 L13.29,7.38 Q13.07,7.161 13.07,6.85 Q13.07,6.539 13.29,6.32 Q13.51,6.1 13.82,6.1 Q14.131,6.1 14.351,6.32 Z"/>
  <path fill="#292D32" d="M13.07,14.11 L13.07,6.85 Q13.07,6.539 13.29,6.32 Q13.51,6.1 13.82,6.1 Q14.131,6.1 14.351,6.32 Q14.57,6.539 14.57,6.85 L14.57,14.11 Q14.57,14.421 14.351,14.64 Q14.131,14.86 13.82,14.86 Q13.51,14.86 13.29,14.64 Q13.07,14.421 13.07,14.11 Z"/>
  <path fill="#292D32" d="M13.07,17.15 L13.07,16.63 Q13.07,16.319 13.29,16.1 Q13.51,15.88 13.82,15.88 Q14.131,15.88 14.351,16.1 Q14.57,16.319 14.57,16.63 L14.57,17.15 Q14.57,17.461 14.351,17.68 Q14.131,17.9 13.82,17.9 Q13.51,17.9 13.29,17.68 Q13.07,17.461 13.07,17.15 Z"/>
  <path fill="#292D32" d="M4.6,6.449 Q2.75,8.922 2.75,12 Q2.75,15.829 5.46,18.54 Q8.171,21.25 12,21.25 Q15.829,21.25 18.54,18.54 Q21.25,15.829 21.25,12 Q21.25,8.171 18.54,5.46 Q15.829,2.75 12,2.75 Q10.031,2.75 8.276,3.535 Q7.993,3.661 7.702,3.551 Q7.412,3.44 7.285,3.156 Q7.159,2.873 7.269,2.582 Q7.38,2.292 7.664,2.165 Q9.711,1.25 12,1.25 Q16.451,1.25 19.6,4.4 Q22.75,7.549 22.75,12 Q22.75,16.451 19.6,19.6 Q16.451,22.75 12,22.75 Q7.549,22.75 4.4,19.6 Q1.25,16.451 1.25,12 Q1.25,8.422 3.4,5.551 Q3.586,5.302 3.893,5.258 Q4.201,5.213 4.449,5.4 Q4.698,5.586 4.742,5.893 Q4.787,6.201 4.6,6.449 Z"/>
</svg>

