<svg xmlns="http://www.w3.org/2000/svg" width="24" height="24" viewBox="0 0 24 24">
  <defs/>
  <path fill="#292D32" d="M17.68,14.35 L14.64,17.39 Q14.42,17.61 14.109,17.61 Q13.799,17.61 13.579,17.39 Q13.359,17.171 13.359,16.86 Q13.359,16.549 13.579,16.33 L16.619,13.29 Q16.839,13.07 17.149,13.07 Q17.46,13.07 17.68,13.29 Q17.899,13.509 17.899,13.82 Q17.899,14.131 17.68,14.35 Z"/>
  <path fill="#292D32" d="M6.85,13.07 L17.15,13.07 Q17.46,13.07 17.68,13.29 Q17.9,13.509 17.9,13.82 Q17.9,14.131 17.68,14.35 Q17.46,14.57 17.15,14.57 L6.85,14.57 Q6.539,14.57 6.319,14.35 Q6.1,14.131 6.1,13.82 Q6.1,13.509 6.319,13.29 Q6.539,13.07 6.85,13.07 Z"/>
  <path fill="#292D32" d="M6.319,9.65 L9.359,6.61 Q9.579,6.39 9.89,6.39 Q10.2,6.39 10.42,6.61 Q10.64,6.829 10.64,7.14 Q10.64,7.451 10.42,7.67 L7.38,10.71 Q7.16,10.93 6.85,10.93 Q6.539,10.93 6.319,10.71 Q6.1,10.491 6.1,10.18 Q6.1,9.869 6.319,9.65 Z"/>
  <path fill="#292D32" d="M14.11,10.93 L6.85,10.93 Q6.539,10.93 6.319,10.711 Q6.1,10.491 6.1,10.18 Q6.1,9.87 6.319,9.65 Q6.539,9.43 6.85,9.43 L14.11,9.43 Q14.42,9.43 14.64,9.65 Q14.86,9.87 14.86,10.18 Q14.86,10.491 14.64,10.711 Q14.42,10.93 14.11,10.93 Z"/>
  <path fill="#292D32" d="M17.149,10.93 L16.629,10.93 Q16.318,10.93 16.099,10.711 Q15.879,10.491 15.879,10.18 Q15.879,9.87 16.099,9.65 Q16.318,9.43 16.629,9.43 L17.149,9.43 Q17.46,9.43 17.679,9.65 Q17.899,9.87 17.899,10.18 Q17.899,10.491 17.679,10.711 Q17.46,10.93 17.149,10.93 Z"/>
  <path fill="#292D32" d="M4.6,6.449 Q2.75,8.922 2.75,12 Q2.75,15.829 5.46,18.54 Q8.171,21.25 12,21.25 Q15.829,21.25 18.54,18.54 Q21.25,15.829 21.25,12 Q21.25,8.171 18.54,5.46 Q15.829,2.75 12,2.75 Q10.031,2.75 8.276,3.535 Q7.993,3.661 7.702,3.551 Q7.412,3.44 7.285,3.156 Q7.159,2.873 7.269,2.582 Q7.38,2.292 7.664,2.165 Q9.711,1.25 12,1.25 Q16.451,1.25 19.6,4.4 Q22.75,7.549 22.75,12 Q22.75,16.451 19.6,19.6 Q16.451,22.75 12,22.75 Q7.549,22.75 4.4,19.6 Q1.25,16.451 1.25,12 Q1.25,8.422 3.4,5.551 Q3.586,5.302 3.893,5.258 Q4.201,5.213 4.449,5.4 Q4.698,5.586 4.742,5.893 Q4.787,6.201 4.6,6.449 Z"/>
</svg>

