<svg xmlns="http://www.w3.org/2000/svg" width="24" height="24" viewBox="0 0 24 24">
  <defs/>
  <path fill="#292D32" d="M15,22.75 L9,22.75 C3.57,22.75 1.25,20.43 1.25,15 L1.25,9 C1.25,3.57 3.57,1.25 9,1.25 L15,1.25 C20.43,1.25 22.75,3.57 22.75,9 L22.75,15 C22.75,20.43 20.43,22.75 15,22.75 Z M9,2.75 C4.39,2.75 2.75,4.39 2.75,9 L2.75,15 C2.75,19.61 4.39,21.25 9,21.25 L15,21.25 C19.61,21.25 21.25,19.61 21.25,15 L21.25,9 C21.25,4.39 19.61,2.75 15,2.75 L9,2.75 Z"/>
  <path fill="#292D32" d="M14.111,17.61 C13.921,17.61 13.731,17.54 13.581,17.39 C13.291,17.1 13.291,16.62 13.581,16.33 L16.621,13.29 C16.911,13 17.391,13 17.681,13.29 C17.971,13.58 17.971,14.06 17.681,14.35 L14.641,17.39 C14.501,17.53 14.311,17.61 14.111,17.61 Z"/>
  <path fill="#292D32" d="M17.15,14.57 L6.85,14.57 C6.44,14.57 6.1,14.23 6.1,13.82 C6.1,13.41 6.44,13.07 6.85,13.07 L17.16,13.07 C17.57,13.07 17.91,13.41 17.91,13.82 C17.91,14.23 17.57,14.57 17.15,14.57 Z"/>
  <path fill="#292D32" d="M6.849,10.93 C6.659,10.93 6.469,10.86 6.319,10.71 C6.029,10.42 6.029,9.94 6.319,9.65 L9.359,6.61 C9.649,6.32 10.129,6.32 10.419,6.61 C10.709,6.9 10.709,7.38 10.419,7.67 L7.379,10.71 C7.229,10.86 7.039,10.93 6.849,10.93 Z"/>
  <path fill="#292D32" d="M17.15,10.93 L6.85,10.93 C6.44,10.93 6.1,10.59 6.1,10.18 C6.1,9.77 6.44,9.43 6.85,9.43 L17.16,9.43 C17.57,9.43 17.91,9.77 17.91,10.18 C17.91,10.59 17.57,10.93 17.15,10.93 Z"/>
</svg>

