<svg xmlns="http://www.w3.org/2000/svg" width="24" height="24" viewBox="0 0 24 24">
  <defs/>
  <path fill="#292D32" d="M9,22.75 Q1.25,22.75 1.25,15 L1.25,9 Q1.25,1.25 9,1.25 L15,1.25 Q22.75,1.25 22.75,9 L22.75,15 Q22.75,22.75 15,22.75 Z M9,21.25 L15,21.25 Q18.439,21.25 19.845,19.845 Q21.25,18.439 21.25,15 L21.25,9 Q21.25,2.75 15,2.75 L9,2.75 Q2.75,2.75 2.75,9 L2.75,15 Q2.75,18.439 4.155,19.845 Q5.561,21.25 9,21.25 Z"/>
  <path fill="#292D32" d="M9.65,17.68 L6.61,14.64 Q6.39,14.421 6.39,14.11 Q6.39,13.799 6.61,13.58 Q6.829,13.36 7.14,13.36 Q7.451,13.36 7.67,13.58 L10.71,16.62 Q10.93,16.839 10.93,17.15 Q10.93,17.461 10.71,17.68 Q10.491,17.9 10.18,17.9 Q9.869,17.9 9.65,17.68 Z"/>
  <path fill="#292D32" d="M10.93,6.85 L10.93,17.15 Q10.93,17.461 10.71,17.68 Q10.491,17.9 10.18,17.9 Q9.869,17.9 9.65,17.68 Q9.43,17.461 9.43,17.15 L9.43,6.85 Q9.43,6.539 9.65,6.32 Q9.869,6.1 10.18,6.1 Q10.491,6.1 10.71,6.32 Q10.93,6.539 10.93,6.85 Z"/>
  <path fill="#292D32" d="M14.35,6.32 L17.39,9.36 Q17.61,9.579 17.61,9.89 Q17.61,10.201 17.39,10.42 Q17.171,10.64 16.86,10.64 Q16.549,10.64 16.33,10.42 L13.29,7.38 Q13.07,7.161 13.07,6.85 Q13.07,6.539 13.29,6.32 Q13.509,6.1 13.82,6.1 Q14.131,6.1 14.35,6.32 Z"/>
  <path fill="#292D32" d="M13.07,17.15 L13.07,6.85 Q13.07,6.539 13.29,6.32 Q13.509,6.1 13.82,6.1 Q14.131,6.1 14.35,6.32 Q14.57,6.539 14.57,6.85 L14.57,17.15 Q14.57,17.461 14.35,17.68 Q14.131,17.9 13.82,17.9 Q13.509,17.9 13.29,17.68 Q13.07,17.461 13.07,17.15 Z"/>
</svg>

