<svg xmlns="http://www.w3.org/2000/svg" width="24" height="24" viewBox="0 0 24 24">
  <defs/>
  <path fill="#292D32" d="M12,2 C6.48,2 2,6.48 2,12 C2,17.52 6.48,22 12,22 C17.52,22 22,17.52 22,12 C22,6.48 17.52,2 12,2 Z M17.85,14.1 C17.81,14.19 17.76,14.27 17.69,14.34 L14.65,17.38 C14.5,17.53 14.31,17.6 14.12,17.6 C13.93,17.6 13.74,17.53 13.59,17.38 C13.3,17.09 13.3,16.61 13.59,16.32 L15.35,14.56 L6.85,14.56 C6.44,14.56 6.1,14.22 6.1,13.81 C6.1,13.4 6.44,13.06 6.85,13.06 L17.16,13.06 C17.26,13.06 17.35,13.08 17.45,13.12 C17.63,13.2 17.78,13.34 17.86,13.53 C17.92,13.71 17.92,13.92 17.85,14.1 Z M17.15,10.93 L6.85,10.93 C6.75,10.93 6.65,10.91 6.56,10.87 C6.38,10.79 6.23,10.65 6.15,10.46 C6.07,10.28 6.07,10.07 6.15,9.89 C6.19,9.8 6.24,9.72 6.31,9.65 L9.35,6.61 C9.64,6.32 10.12,6.32 10.41,6.61 C10.7,6.9 10.7,7.38 10.41,7.67 L8.66,9.43 L17.16,9.43 C17.57,9.43 17.91,9.77 17.91,10.18 C17.91,10.59 17.57,10.93 17.15,10.93 Z"/>
</svg>

