<svg xmlns="http://www.w3.org/2000/svg" width="24" height="24" viewBox="0 0 24 24">
  <defs/>
  <path fill="#292D32" d="M14.111,17.61 C13.921,17.61 13.731,17.54 13.581,17.39 C13.291,17.1 13.291,16.62 13.581,16.33 L16.621,13.29 C16.911,13 17.391,13 17.681,13.29 C17.971,13.58 17.971,14.06 17.681,14.35 L14.641,17.39 C14.501,17.53 14.311,17.61 14.111,17.61 Z"/>
  <path fill="#292D32" d="M17.15,14.57 L6.84,14.57 C6.43,14.57 6.09,14.23 6.09,13.82 C6.09,13.41 6.43,13.07 6.84,13.07 L17.15,13.07 C17.56,13.07 17.9,13.41 17.9,13.82 C17.9,14.23 17.57,14.57 17.15,14.57 Z"/>
  <path fill="#292D32" d="M6.849,10.93 C6.659,10.93 6.469,10.86 6.319,10.71 C6.029,10.42 6.029,9.94 6.319,9.65 L9.359,6.61 C9.649,6.32 10.129,6.32 10.419,6.61 C10.709,6.9 10.709,7.38 10.419,7.67 L7.379,10.71 C7.229,10.86 7.039,10.93 6.849,10.93 Z"/>
  <path fill="#292D32" d="M17.15,10.93 L6.84,10.93 C6.43,10.93 6.09,10.59 6.09,10.18 C6.09,9.77 6.43,9.43 6.84,9.43 L17.15,9.43 C17.56,9.43 17.9,9.77 17.9,10.18 C17.9,10.59 17.57,10.93 17.15,10.93 Z"/>
  <path fill="#292D32" d="M12,22.75 C6.07,22.75 1.25,17.93 1.25,12 C1.25,6.07 6.07,1.25 12,1.25 C17.93,1.25 22.75,6.07 22.75,12 C22.75,17.93 17.93,22.75 12,22.75 Z M12,2.75 C6.9,2.75 2.75,6.9 2.75,12 C2.75,17.1 6.9,21.25 12,21.25 C17.1,21.25 21.25,17.1 21.25,12 C21.25,6.9 17.1,2.75 12,2.75 Z"/>
</svg>

