<svg xmlns="http://www.w3.org/2000/svg" width="24" height="24" viewBox="0 0 24 24">
  <defs/>
  <path fill="#292D32" opacity="0.4" d="M12,22 C17.523,22 22,17.523 22,12 C22,6.477 17.523,2 12,2 C6.477,2 2,6.477 2,12 C2,17.523 6.477,22 12,22 Z"/>
  <path fill="#292D32" d="M17.39,9.26 L14.35,6.22 C14.28,6.15 14.2,6.1 14.11,6.06 C13.93,5.98 13.72,5.98 13.54,6.06 C13.36,6.14 13.21,6.28 13.13,6.47 C13.09,6.56 13.07,6.66 13.07,6.76 L13.07,17.07 C13.07,17.48 13.41,17.82 13.82,17.82 C14.23,17.82 14.57,17.48 14.57,17.07 L14.57,8.57 L16.33,10.33 C16.48,10.48 16.67,10.55 16.86,10.55 C17.05,10.55 17.24,10.48 17.39,10.33 C17.68,10.02 17.68,9.55 17.39,9.26 Z"/>
  <path fill="#292D32" d="M10.93,6.75 C10.93,6.34 10.59,6 10.18,6 C9.77,6 9.43,6.34 9.43,6.75 L9.43,15.25 L7.67,13.49 C7.38,13.2 6.9,13.2 6.61,13.49 C6.32,13.78 6.32,14.26 6.61,14.55 L9.65,17.59 C9.72,17.66 9.8,17.71 9.89,17.75 C9.98,17.79 10.08,17.81 10.18,17.81 C10.28,17.81 10.37,17.79 10.47,17.75 C10.65,17.67 10.8,17.53 10.88,17.34 C10.92,17.25 10.94,17.15 10.94,17.05 L10.94,6.75 L10.93,6.75 Z"/>
</svg>

