<svg xmlns="http://www.w3.org/2000/svg" width="24" height="24" viewBox="0 0 24 24">
  <defs/>
  <path fill="#292D32" opacity="0.4" d="M16.19,2 L7.81,2 C4.17,2 2,4.17 2,7.81 L2,16.18 C2,19.83 4.17,22 7.81,22 L16.18,22 C19.82,22 21.99,19.83 21.99,16.19 L21.99,7.81 C22,4.17 19.83,2 16.19,2 Z"/>
  <path fill="#292D32" d="M17.85,13.53 C17.77,13.35 17.63,13.2 17.44,13.12 C17.35,13.08 17.25,13.06 17.15,13.06 L6.85,13.06 C6.44,13.06 6.1,13.4 6.1,13.81 C6.1,14.22 6.44,14.56 6.85,14.56 L15.35,14.56 L13.59,16.32 C13.3,16.61 13.3,17.09 13.59,17.38 C13.74,17.53 13.93,17.6 14.12,17.6 C14.31,17.6 14.5,17.53 14.65,17.38 L17.69,14.34 C17.76,14.27 17.81,14.19 17.85,14.1 C17.92,13.92 17.92,13.71 17.85,13.53 Z"/>
  <path fill="#292D32" d="M6.15,10.47 C6.23,10.65 6.37,10.8 6.56,10.88 C6.65,10.92 6.75,10.94 6.85,10.94 L17.16,10.94 C17.57,10.94 17.91,10.6 17.91,10.19 C17.91,9.78 17.57,9.44 17.16,9.44 L8.66,9.44 L10.42,7.68 C10.71,7.39 10.71,6.91 10.42,6.62 C10.13,6.33 9.65,6.33 9.36,6.62 L6.32,9.65 C6.25,9.72 6.19,9.81 6.15,9.9 C6.08,10.08 6.08,10.29 6.15,10.47 Z"/>
</svg>

