<svg xmlns="http://www.w3.org/2000/svg" width="24" height="24" viewBox="0 0 24 24">
  <defs/>
  <path fill="#292D32" d="M9,22.75 Q1.25,22.75 1.25,15 L1.25,9 Q1.25,1.25 9,1.25 L15,1.25 Q22.75,1.25 22.75,9 L22.75,15 Q22.75,22.75 15,22.75 Z M9,21.25 L15,21.25 Q18.439,21.25 19.845,19.845 Q21.25,18.439 21.25,15 L21.25,9 Q21.25,2.75 15,2.75 L9,2.75 Q2.75,2.75 2.75,9 L2.75,15 Q2.75,18.439 4.155,19.845 Q5.561,21.25 9,21.25 Z"/>
  <path fill="#292D32" d="M17.68,14.35 L14.64,17.39 Q14.421,17.61 14.11,17.61 Q13.799,17.61 13.58,17.39 Q13.36,17.171 13.36,16.86 Q13.36,16.549 13.58,16.33 L16.62,13.29 Q16.839,13.07 17.15,13.07 Q17.461,13.07 17.68,13.29 Q17.9,13.509 17.9,13.82 Q17.9,14.131 17.68,14.35 Z"/>
  <path fill="#292D32" d="M6.85,13.07 L17.15,13.07 Q17.461,13.07 17.68,13.29 Q17.9,13.509 17.9,13.82 Q17.9,14.131 17.68,14.35 Q17.461,14.57 17.15,14.57 L6.85,14.57 Q6.539,14.57 6.32,14.35 Q6.1,14.131 6.1,13.82 Q6.1,13.509 6.32,13.29 Q6.539,13.07 6.85,13.07 Z"/>
  <path fill="#292D32" d="M6.32,9.65 L9.36,6.61 Q9.579,6.39 9.89,6.39 Q10.201,6.39 10.42,6.61 Q10.64,6.829 10.64,7.14 Q10.64,7.451 10.42,7.67 L7.38,10.71 Q7.161,10.93 6.85,10.93 Q6.539,10.93 6.32,10.71 Q6.1,10.491 6.1,10.18 Q6.1,9.869 6.32,9.65 Z"/>
  <path fill="#292D32" d="M17.15,10.93 L6.85,10.93 Q6.539,10.93 6.32,10.71 Q6.1,10.491 6.1,10.18 Q6.1,9.869 6.32,9.65 Q6.539,9.43 6.85,9.43 L17.15,9.43 Q17.461,9.43 17.68,9.65 Q17.9,9.869 17.9,10.18 Q17.9,10.491 17.68,10.71 Q17.461,10.93 17.15,10.93 Z"/>
</svg>

