<svg xmlns="http://www.w3.org/2000/svg" width="24" height="24" viewBox="0 0 24 24">
  <defs/>
  <path fill="#292D32" d="M15,22.75 L9,22.75 C3.57,22.75 1.25,20.43 1.25,15 L1.25,9 C1.25,3.57 3.57,1.25 9,1.25 L15,1.25 C20.43,1.25 22.75,3.57 22.75,9 L22.75,15 C22.75,20.43 20.43,22.75 15,22.75 Z M9,2.75 C4.39,2.75 2.75,4.39 2.75,9 L2.75,15 C2.75,19.61 4.39,21.25 9,21.25 L15,21.25 C19.61,21.25 21.25,19.61 21.25,15 L21.25,9 C21.25,4.39 19.61,2.75 15,2.75 L9,2.75 Z"/>
  <path fill="#292D32" d="M10.18,17.9 C9.99,17.9 9.8,17.83 9.65,17.68 L6.61,14.64 C6.32,14.35 6.32,13.87 6.61,13.58 C6.9,13.29 7.38,13.29 7.67,13.58 L10.71,16.62 C11,16.91 11,17.39 10.71,17.68 C10.57,17.83 10.38,17.9 10.18,17.9 Z"/>
  <path fill="#292D32" d="M10.18,17.9 C9.77,17.9 9.43,17.56 9.43,17.15 L9.43,6.85 C9.43,6.44 9.77,6.1 10.18,6.1 C10.59,6.1 10.93,6.44 10.93,6.85 L10.93,17.16 C10.93,17.57 10.6,17.9 10.18,17.9 Z"/>
  <path fill="#292D32" d="M16.86,10.64 C16.67,10.64 16.48,10.57 16.33,10.42 L13.29,7.38 C13,7.09 13,6.61 13.29,6.32 C13.58,6.03 14.06,6.03 14.35,6.32 L17.39,9.36 C17.68,9.65 17.68,10.13 17.39,10.42 C17.24,10.56 17.05,10.64 16.86,10.64 Z"/>
  <path fill="#292D32" d="M13.82,17.9 C13.41,17.9 13.07,17.56 13.07,17.15 L13.07,6.85 C13.07,6.44 13.41,6.1 13.82,6.1 C14.23,6.1 14.57,6.44 14.57,6.85 L14.57,17.16 C14.57,17.57 14.23,17.9 13.82,17.9 Z"/>
</svg>

