<svg xmlns="http://www.w3.org/2000/svg" width="24" height="24" viewBox="0 0 24 24">
  <defs/>
  <path fill="#292D32" d="M11.999,18.75 C10.579,18.75 9.279,17.85 8.339,16.22 L5.669,11.59 C4.719,9.96 4.599,8.39 5.309,7.16 C6.019,5.93 7.449,5.25 9.329,5.25 L14.669,5.25 C16.549,5.25 17.979,5.93 18.689,7.16 C19.399,8.39 19.269,9.97 18.329,11.6 L15.659,16.23 C14.719,17.85 13.419,18.75 11.999,18.75 Z M9.329,6.75 C7.999,6.75 7.039,7.16 6.609,7.91 C6.169,8.66 6.299,9.7 6.959,10.84 L9.629,15.47 C10.289,16.62 11.129,17.25 11.989,17.25 C12.849,17.25 13.689,16.62 14.349,15.47 L17.019,10.84 C17.679,9.69 17.809,8.65 17.379,7.9 C16.949,7.15 15.979,6.74 14.659,6.74 L9.329,6.74 L9.329,6.75 Z"/>
</svg>

