<svg xmlns="http://www.w3.org/2000/svg" width="24" height="24" viewBox="0 0 24 24">
  <defs/>
  <path fill="#292D32" d="M14.67,18.75 L9.33,18.75 C7.45,18.75 6.02,18.07 5.31,16.84 C4.6,15.61 4.73,14.03 5.67,12.4 L8.34,7.77 C9.28,6.15 10.58,5.25 12,5.25 C13.42,5.25 14.72,6.15 15.66,7.78 L18.33,12.41 C19.27,14.04 19.4,15.62 18.69,16.85 C17.98,18.07 16.55,18.75 14.67,18.75 Z M12,6.75 C11.14,6.75 10.3,7.38 9.64,8.53 L6.97,13.16 C6.31,14.31 6.18,15.35 6.61,16.1 C7.04,16.85 8.01,17.26 9.33,17.26 L14.67,17.26 C15.99,17.26 16.96,16.85 17.39,16.1 C17.82,15.35 17.69,14.31 17.03,13.16 L14.36,8.53 C13.7,7.38 12.86,6.75 12,6.75 Z"/>
</svg>

