<svg xmlns="http://www.w3.org/2000/svg" width="24" height="24" viewBox="0 0 24 24">
  <defs/>
  <path fill="#292D32" d="M10.979,6.19 L7.269,2.48 C7.199,2.41 7.109,2.35 7.009,2.31 C6.999,2.31 6.989,2.31 6.979,2.3 C6.899,2.27 6.809,2.25 6.719,2.25 C6.519,2.25 6.329,2.33 6.189,2.47 L2.469,6.19 C2.179,6.48 2.179,6.96 2.469,7.25 C2.759,7.54 3.24,7.54 3.53,7.25 L5.979,4.8 L5.979,21 C5.979,21.41 6.319,21.75 6.729,21.75 C7.139,21.75 7.479,21.41 7.479,21 L7.479,4.81 L9.919,7.25 C10.069,7.4 10.259,7.47 10.45,7.47 C10.639,7.47 10.829,7.4 10.979,7.25 C11.27,6.96 11.27,6.49 10.979,6.19 Z"/>
  <path fill="#292D32" opacity="0.4" d="M21.53,16.75 C21.24,16.46 20.76,16.46 20.47,16.75 L18.02,19.2 L18.02,3 C18.02,2.59 17.68,2.25 17.27,2.25 C16.86,2.25 16.52,2.59 16.52,3 L16.52,19.19 L14.08,16.75 C13.79,16.46 13.31,16.46 13.02,16.75 C12.73,17.04 12.73,17.52 13.02,17.81 L16.73,21.52 C16.8,21.59 16.89,21.65 16.99,21.69 C17,21.69 17.01,21.69 17.02,21.7 C17.1,21.73 17.19,21.75 17.28,21.75 C17.48,21.75 17.67,21.67 17.81,21.53 L21.53,17.81 C21.82,17.51 21.82,17.04 21.53,16.75 Z"/>
</svg>

