<svg xmlns="http://www.w3.org/2000/svg" width="24" height="24" viewBox="0 0 24 24">
  <defs/>
  <path fill="#292D32" d="M16.19,2 L7.81,2 C4.17,2 2,4.17 2,7.81 L2,16.18 C2,19.83 4.17,22 7.81,22 L16.18,22 C19.82,22 21.99,19.83 21.99,16.19 L21.99,7.81 C22,4.17 19.83,2 16.19,2 Z M10.99,17 C10.99,17.1 10.97,17.19 10.93,17.29 C10.85,17.47 10.71,17.62 10.52,17.7 C10.43,17.74 10.33,17.76 10.23,17.76 C10.13,17.76 10.04,17.74 9.94,17.7 C9.85,17.66 9.77,17.61 9.7,17.54 L6.75,14.59 C6.46,14.3 6.46,13.82 6.75,13.53 C7.04,13.24 7.52,13.24 7.81,13.53 L9.48,15.2 L9.48,7 C9.48,6.59 9.82,6.25 10.23,6.25 C10.64,6.25 10.99,6.59 10.99,7 L10.99,17 Z M17.24,10.48 C17.09,10.63 16.9,10.7 16.71,10.7 C16.52,10.7 16.33,10.63 16.18,10.48 L14.51,8.81 L14.51,17 C14.51,17.41 14.17,17.75 13.76,17.75 C13.35,17.75 13.01,17.41 13.01,17 L13.01,7 C13.01,6.9 13.03,6.81 13.07,6.71 C13.15,6.53 13.29,6.38 13.48,6.3 C13.66,6.22 13.87,6.22 14.05,6.3 C14.14,6.34 14.22,6.39 14.29,6.46 L17.24,9.41 C17.53,9.71 17.53,10.19 17.24,10.48 Z"/>
</svg>

