<svg xmlns="http://www.w3.org/2000/svg" width="24" height="24" viewBox="0 0 24 24">
  <defs/>
  <path fill="#292D32" d="M5.25,9.33 Q5.25,6.414 7.159,5.312 Q9.069,4.209 11.596,5.671 L13.906,7.011 L16.216,8.351 Q18.742,9.812 18.742,12.015 Q18.743,14.218 16.216,15.679 L13.906,17.019 L11.596,18.359 Q9.061,19.799 7.158,18.695 Q5.25,17.589 5.25,14.67 L5.25,9.33 Z M6.75,14.67 Q6.75,16.725 7.91,17.397 Q9.069,18.069 10.844,17.061 L13.154,15.721 L15.464,14.381 Q17.243,13.352 17.243,12.015 Q17.243,10.678 15.464,9.649 L13.154,8.309 L10.844,6.969 Q9.068,5.942 7.909,6.611 Q6.75,7.28 6.75,9.33 L6.75,14.67 Z"/>
</svg>

