<svg xmlns="http://www.w3.org/2000/svg" width="24" height="24" viewBox="0 0 24 24">
  <defs/>
  <path fill="#292D32" d="M14.081,16.75 L17.271,19.939 L20.46,16.75 Q20.68,16.53 20.991,16.53 Q21.301,16.53 21.521,16.75 Q21.741,16.969 21.741,17.28 Q21.741,17.591 21.521,17.81 L17.801,21.53 Q17.581,21.75 17.271,21.75 Q16.96,21.75 16.74,21.53 L13.02,17.81 Q12.801,17.591 12.801,17.28 Q12.801,16.969 13.02,16.75 Q13.24,16.53 13.551,16.53 Q13.861,16.53 14.081,16.75 Z"/>
  <path fill="#292D32" d="M18.02,10.01 L18.02,21 Q18.019,21.311 17.8,21.53 Q17.58,21.75 17.27,21.75 Q16.959,21.75 16.739,21.53 Q16.52,21.311 16.52,21 L16.52,10.01 Q16.52,9.699 16.739,9.48 Q16.959,9.26 17.27,9.26 Q17.58,9.26 17.8,9.48 Q18.019,9.699 18.02,10.01 Z"/>
  <path fill="#292D32" d="M18.02,3 L18.02,5.99 Q18.019,6.301 17.8,6.52 Q17.58,6.74 17.27,6.74 Q16.959,6.74 16.739,6.52 Q16.52,6.301 16.52,5.99 L16.52,3 Q16.52,2.689 16.739,2.47 Q16.959,2.25 17.27,2.25 Q17.58,2.25 17.8,2.47 Q18.019,2.689 18.02,3 Z"/>
  <path fill="#292D32" d="M9.919,7.25 L6.73,4.061 L3.54,7.25 Q3.32,7.47 3.01,7.47 Q2.699,7.47 2.479,7.25 Q2.26,7.031 2.26,6.72 Q2.26,6.409 2.479,6.19 L6.199,2.47 Q6.419,2.25 6.73,2.25 Q7.04,2.25 7.26,2.47 L10.98,6.19 Q11.2,6.409 11.2,6.72 Q11.2,7.031 10.98,7.25 Q10.76,7.47 10.45,7.47 Q10.139,7.47 9.919,7.25 Z"/>
  <path fill="#292D32" d="M7.48,3 L7.48,14.09 Q7.48,14.401 7.261,14.62 Q7.041,14.84 6.73,14.84 Q6.42,14.84 6.2,14.62 Q5.98,14.401 5.98,14.09 L5.98,3 Q5.98,2.689 6.2,2.47 Q6.42,2.25 6.73,2.25 Q7.041,2.25 7.261,2.47 Q7.48,2.689 7.48,3 Z"/>
  <path fill="#292D32" d="M5.98,21 L5.98,18.03 Q5.98,17.719 6.2,17.5 Q6.42,17.28 6.73,17.28 Q7.041,17.28 7.261,17.5 Q7.48,17.719 7.48,18.03 L7.48,21 Q7.48,21.311 7.261,21.53 Q7.041,21.75 6.73,21.75 Q6.42,21.75 6.2,21.53 Q5.98,21.311 5.98,21 Z"/>
</svg>

