<svg xmlns="http://www.w3.org/2000/svg" width="24" height="24" viewBox="0 0 24 24">
  <defs/>
  <path fill="#292D32" d="M8.5,11.25 L14.5,11.25 Q14.811,11.25 15.03,11.47 Q15.25,11.689 15.25,12 Q15.25,12.311 15.03,12.53 Q14.811,12.75 14.5,12.75 L8.5,12.75 Q8.189,12.75 7.97,12.53 Q7.75,12.311 7.75,12 Q7.75,11.689 7.97,11.47 Q8.189,11.25 8.5,11.25 Z"/>
  <path fill="#292D32" d="M11.97,14.47 L14.439,12 L11.97,9.53 Q11.75,9.311 11.75,9 Q11.75,8.689 11.97,8.47 Q12.189,8.25 12.5,8.25 Q12.811,8.25 13.03,8.47 L16.03,11.47 Q16.25,11.689 16.25,12 Q16.25,12.311 16.03,12.53 L13.03,15.53 Q12.811,15.75 12.5,15.75 Q12.189,15.75 11.97,15.53 Q11.75,15.311 11.75,15 Q11.75,14.689 11.97,14.47 Z"/>
  <path fill="#292D32" d="M4.6,6.449 Q2.75,8.922 2.75,12 Q2.75,15.829 5.46,18.54 Q8.171,21.25 12,21.25 Q15.829,21.25 18.54,18.54 Q21.25,15.829 21.25,12 Q21.25,8.171 18.54,5.46 Q15.829,2.75 12,2.75 Q10.031,2.75 8.276,3.535 Q7.993,3.661 7.702,3.551 Q7.412,3.44 7.285,3.156 Q7.159,2.873 7.269,2.582 Q7.38,2.292 7.664,2.165 Q9.711,1.25 12,1.25 Q16.451,1.25 19.6,4.4 Q22.75,7.549 22.75,12 Q22.75,16.451 19.6,19.6 Q16.451,22.75 12,22.75 Q7.549,22.75 4.4,19.6 Q1.25,16.451 1.25,12 Q1.25,8.422 3.4,5.551 Q3.586,5.302 3.893,5.258 Q4.201,5.213 4.449,5.4 Q4.698,5.586 4.742,5.893 Q4.787,6.201 4.6,6.449 Z"/>
</svg>

