<svg xmlns="http://www.w3.org/2000/svg" width="24" height="24" viewBox="0 0 24 24">
  <defs/>
  <path fill="#292D32" d="M12,22.75 C6.07,22.75 1.25,17.93 1.25,12 C1.25,6.07 6.07,1.25 12,1.25 C17.93,1.25 22.75,6.07 22.75,12 C22.75,17.93 17.93,22.75 12,22.75 Z M12,2.75 C6.9,2.75 2.75,6.9 2.75,12 C2.75,17.1 6.9,21.25 12,21.25 C17.1,21.25 21.25,17.1 21.25,12 C21.25,6.9 17.1,2.75 12,2.75 Z"/>
  <path fill="#292D32" d="M12,15.01 C11.81,15.01 11.62,14.94 11.47,14.79 L7.94,11.26 C7.65,10.97 7.65,10.49 7.94,10.2 C8.23,9.91 8.71,9.91 9,10.2 L12,13.2 L15,10.2 C15.29,9.91 15.77,9.91 16.06,10.2 C16.35,10.49 16.35,10.97 16.06,11.26 L12.53,14.79 C12.38,14.94 12.19,15.01 12,15.01 Z"/>
</svg>

