<svg xmlns="http://www.w3.org/2000/svg" width="24" height="24" viewBox="0 0 24 24">
  <defs/>
  <path fill="#292D32" d="M5.403,5.517 Q2.75,8.2 2.75,12 Q2.75,15.829 5.46,18.54 Q8.171,21.25 12,21.25 Q15.829,21.25 18.54,18.54 Q21.25,15.829 21.25,12 Q21.25,8.171 18.54,5.46 Q15.829,2.75 12,2.75 Q11.069,2.75 10.125,2.936 Q9.82,2.996 9.562,2.823 Q9.304,2.65 9.244,2.345 Q9.184,2.04 9.357,1.782 Q9.53,1.524 9.835,1.464 Q10.922,1.25 12,1.25 Q16.451,1.25 19.6,4.4 Q22.75,7.549 22.75,12 Q22.75,16.451 19.6,19.6 Q16.451,22.75 12,22.75 Q7.549,22.75 4.4,19.6 Q1.25,16.451 1.25,12 Q1.25,7.584 4.337,4.463 Q4.555,4.242 4.866,4.24 Q5.176,4.238 5.397,4.457 Q5.618,4.675 5.62,4.986 Q5.622,5.296 5.403,5.517 Z"/>
  <path fill="#292D32" d="M12.729,16.06 L9.209,12.53 Q8.991,12.311 8.99,12.001 Q8.99,11.692 9.207,11.472 L10.167,10.502 L12.37,8.3 L12.73,7.94 Q12.95,7.72 13.26,7.72 Q13.571,7.72 13.791,7.94 Q14.01,8.159 14.01,8.47 Q14.01,8.781 13.791,9 L13.431,9.36 L11.233,11.558 L10.797,11.998 L13.791,15 Q14.011,15.22 14.01,15.531 Q14.01,15.842 13.79,16.061 Q13.57,16.28 13.259,16.28 Q12.948,16.28 12.729,16.06 Z"/>
</svg>

