<svg xmlns="http://www.w3.org/2000/svg" width="24" height="24" viewBox="0 0 24 24">
  <defs/>
  <path fill="#292D32" d="M15.1,19.15 C14.26,19.15 13.34,18.88 12.41,18.34 L7.78,15.67 C6.15,14.72 5.25,13.42 5.25,12 C5.25,10.58 6.15,9.28 7.78,8.34 L12.41,5.67 C14.04,4.73 15.61,4.6 16.85,5.31 C18.08,6.02 18.76,7.45 18.76,9.33 L18.76,14.67 C18.76,16.55 18.08,17.98 16.85,18.69 C16.32,19 15.73,19.15 15.1,19.15 Z M15.1,6.36 C14.52,6.36 13.86,6.56 13.16,6.97 L8.53,9.64 C7.38,10.3 6.75,11.14 6.75,12 C6.75,12.86 7.38,13.7 8.53,14.36 L13.16,17.03 C14.31,17.69 15.35,17.82 16.1,17.39 C16.85,16.96 17.26,15.99 17.26,14.67 L17.26,9.33 C17.26,8.01 16.85,7.04 16.1,6.61 C15.8,6.44 15.46,6.36 15.1,6.36 Z"/>
</svg>

