<svg xmlns="http://www.w3.org/2000/svg" width="24" height="24" viewBox="0 0 24 24">
  <defs/>
  <path fill="#292D32" d="M11.39,15.07 L11.39,13.11 Q11.39,10.908 12.946,9.35 Q14.503,7.79 16.71,7.79 L18.67,7.79 Q18.981,7.79 19.2,8.01 Q19.42,8.229 19.42,8.54 Q19.42,8.851 19.2,9.07 Q18.981,9.29 18.67,9.29 L16.71,9.29 Q15.125,9.29 14.007,10.41 Q12.89,11.529 12.89,13.11 L12.89,15.07 Q12.89,15.381 12.67,15.6 Q12.451,15.82 12.14,15.82 Q11.829,15.82 11.61,15.6 Q11.39,15.381 11.39,15.07 Z"/>
  <path fill="#292D32" d="M5.62,7.8 L7.58,7.8 Q9.782,7.8 11.34,9.356 Q12.9,10.913 12.9,13.12 L12.9,17.25 Q12.9,17.561 12.68,17.78 Q12.461,18 12.15,18 Q11.839,18 11.62,17.78 Q11.4,17.561 11.4,17.25 L11.4,13.12 Q11.4,9.3 7.58,9.3 L5.62,9.3 Q5.309,9.3 5.09,9.08 Q4.87,8.861 4.87,8.55 Q4.87,8.239 5.09,8.02 Q5.309,7.8 5.62,7.8 Z"/>
  <path fill="#292D32" d="M7.67,7.28 L6.401,8.55 L7.67,9.82 Q7.89,10.039 7.89,10.35 Q7.89,10.661 7.67,10.88 Q7.451,11.1 7.14,11.1 Q6.829,11.1 6.61,10.88 L4.81,9.08 Q4.59,8.861 4.59,8.55 Q4.59,8.239 4.81,8.02 L6.61,6.22 Q6.829,6 7.14,6 Q7.451,6 7.67,6.22 Q7.89,6.439 7.89,6.75 Q7.89,7.061 7.67,7.28 Z"/>
  <path fill="#292D32" d="M17.39,6.22 L19.19,8.02 Q19.41,8.239 19.41,8.55 Q19.41,8.861 19.19,9.08 L17.39,10.88 Q17.171,11.1 16.86,11.1 Q16.549,11.1 16.33,10.88 Q16.11,10.661 16.11,10.35 Q16.11,10.039 16.33,9.82 L17.599,8.55 L16.33,7.28 Q16.11,7.061 16.11,6.75 Q16.11,6.439 16.33,6.22 Q16.549,6 16.86,6 Q17.171,6 17.39,6.22 Z"/>
  <path fill="#292D32" d="M9,22.75 Q1.25,22.75 1.25,15 L1.25,9 Q1.25,1.25 9,1.25 L15,1.25 Q22.75,1.25 22.75,9 L22.75,15 Q22.75,22.75 15,22.75 Z M9,21.25 L15,21.25 Q18.439,21.25 19.845,19.845 Q21.25,18.439 21.25,15 L21.25,9 Q21.25,2.75 15,2.75 L9,2.75 Q2.75,2.75 2.75,9 L2.75,15 Q2.75,18.439 4.155,19.845 Q5.561,21.25 9,21.25 Z"/>
</svg>

