<svg xmlns="http://www.w3.org/2000/svg" width="24" height="24" viewBox="0 0 24 24">
  <defs/>
  <path fill="#292D32" opacity="0.4" d="M12,22 C17.523,22 22,17.523 22,12 C22,6.477 17.523,2 12,2 C6.477,2 2,6.477 2,12 C2,17.523 6.477,22 12,22 Z"/>
  <path fill="#292D32" d="M15.53,10.97 L12.53,7.97 C12.239,7.68 11.759,7.68 11.47,7.97 L8.469,10.97 C8.179,11.26 8.179,11.74 8.469,12.03 C8.759,12.32 9.239,12.32 9.529,12.03 L11.249,10.31 L11.249,15.5 C11.249,15.91 11.589,16.25 11.999,16.25 C12.409,16.25 12.749,15.91 12.749,15.5 L12.749,10.31 L14.47,12.03 C14.62,12.18 14.809,12.25 14.999,12.25 C15.19,12.25 15.38,12.18 15.53,12.03 C15.819,11.74 15.819,11.26 15.53,10.97 Z"/>
</svg>

