<svg xmlns="http://www.w3.org/2000/svg" width="24" height="24" viewBox="0 0 24 24">
  <defs/>
  <path fill="#292D32" d="M17.279,11.2 C17.089,11.2 16.899,11.13 16.749,10.98 C16.459,10.69 16.459,10.21 16.749,9.92 L19.939,6.73 L16.749,3.54 C16.459,3.25 16.459,2.77 16.749,2.48 C17.039,2.19 17.519,2.19 17.809,2.48 L21.529,6.2 C21.669,6.34 21.749,6.53 21.749,6.73 C21.749,6.93 21.669,7.12 21.529,7.26 L17.809,10.98 C17.659,11.12 17.469,11.2 17.279,11.2 Z"/>
  <path fill="#292D32" d="M21,7.48 L3,7.48 C2.59,7.48 2.25,7.14 2.25,6.73 C2.25,6.32 2.59,5.98 3,5.98 L21,5.98 C21.41,5.98 21.75,6.32 21.75,6.73 C21.75,7.14 21.41,7.48 21,7.48 Z"/>
  <path fill="#292D32" d="M6.72,21.75 C6.53,21.75 6.34,21.68 6.19,21.53 L2.47,17.81 C2.33,17.67 2.25,17.48 2.25,17.28 C2.25,17.08 2.33,16.89 2.47,16.75 L6.19,13.03 C6.48,12.74 6.96,12.74 7.25,13.03 C7.54,13.32 7.54,13.8 7.25,14.09 L4.06,17.28 L7.25,20.47 C7.54,20.76 7.54,21.24 7.25,21.53 C7.11,21.68 6.92,21.75 6.72,21.75 Z"/>
  <path fill="#292D32" d="M21,18.02 L3,18.02 C2.59,18.02 2.25,17.68 2.25,17.27 C2.25,16.86 2.59,16.52 3,16.52 L21,16.52 C21.41,16.52 21.75,16.86 21.75,17.27 C21.75,17.68 21.41,18.02 21,18.02 Z"/>
</svg>

