<svg xmlns="http://www.w3.org/2000/svg" width="24" height="24" viewBox="0 0 24 24">
  <defs/>
  <path fill="#292D32" d="M9.329,18 L14.669,18 C17.989,18 19.339,15.65 17.689,12.78 L16.949,11.5 C16.769,11.19 16.439,11 16.079,11 L7.919,11 C7.559,11 7.229,11.19 7.049,11.5 L6.309,12.78 C4.659,15.65 6.009,18 9.329,18 Z"/>
  <path fill="#292D32" d="M8.792,9.999 L15.222,9.999 C15.611,9.999 15.851,9.579 15.652,9.249 L15.011,8.149 C13.361,5.279 10.642,5.279 8.992,8.149 L8.352,9.249 C8.162,9.579 8.402,9.999 8.792,9.999 Z"/>
</svg>

