<svg xmlns="http://www.w3.org/2000/svg" width="24" height="24" viewBox="0 0 24 24">
  <defs/>
  <path fill="#292D32" d="M18,9.329 L18,14.669 C18,17.989 15.65,19.339 12.78,17.689 L11.5,16.949 C11.19,16.769 11,16.439 11,16.079 L11,7.919 C11,7.559 11.19,7.229 11.5,7.049 L12.78,6.309 C15.65,4.659 18,6.009 18,9.329 Z"/>
  <path fill="#292D32" d="M9.999,8.792 L9.999,15.222 C9.999,15.611 9.579,15.851 9.249,15.652 L8.149,15.011 C5.279,13.361 5.279,10.642 8.149,8.992 L9.249,8.352 C9.579,8.162 9.999,8.402 9.999,8.792 Z"/>
</svg>

