<svg xmlns="http://www.w3.org/2000/svg" width="24" height="24" viewBox="0 0 24 24">
  <defs/>
  <path fill="#292D32" opacity="0.4" d="M7.81,2 L16.18,2 C19.83,2 22,4.17 22,7.81 L22,16.18 C22,19.82 19.83,21.99 16.19,21.99 L7.81,21.99 C4.17,22 2,19.83 2,16.19 L2,7.81 C2,4.17 4.17,2 7.81,2 Z"/>
  <path fill="#292D32" d="M10.241,6.25 C9.82,6.25 9.49,6.59 9.49,7 L9.49,15.19 L7.82,13.52 C7.53,13.23 7.05,13.23 6.76,13.52 C6.47,13.81 6.47,14.29 6.76,14.58 L9.71,17.53 C9.78,17.6 9.86,17.65 9.95,17.69 C10.04,17.73 10.14,17.75 10.241,17.75 C10.341,17.75 10.431,17.73 10.53,17.69 C10.71,17.61 10.861,17.47 10.941,17.28 C10.98,17.19 11.001,17.09 11.001,16.99 L11.001,7 C10.991,6.59 10.65,6.25 10.241,6.25 Z"/>
  <path fill="#292D32" d="M17.24,9.42 L14.29,6.47 C14.22,6.4 14.14,6.35 14.05,6.31 C13.87,6.23 13.66,6.23 13.48,6.31 C13.3,6.39 13.15,6.53 13.07,6.72 C13.03,6.81 13.01,6.9 13.01,7 L13.01,17 C13.01,17.41 13.35,17.75 13.76,17.75 C14.17,17.75 14.51,17.41 14.51,17 L14.51,8.81 L16.18,10.48 C16.33,10.63 16.52,10.7 16.71,10.7 C16.9,10.7 17.09,10.63 17.24,10.48 C17.53,10.19 17.53,9.71 17.24,9.42 Z"/>
</svg>

