<svg xmlns="http://www.w3.org/2000/svg" width="24" height="24" viewBox="0 0 24 24">
  <defs/>
  <path fill="#292D32" d="M11.391,15.07 L11.391,13.11 Q11.391,10.908 12.946,9.35 Q14.504,7.79 16.711,7.79 L18.671,7.79 Q18.981,7.79 19.201,8.01 Q19.421,8.229 19.421,8.54 Q19.421,8.851 19.201,9.07 Q18.981,9.29 18.671,9.29 L16.711,9.29 Q15.126,9.29 14.008,10.41 Q12.891,11.529 12.891,13.11 L12.891,15.07 Q12.891,15.381 12.671,15.6 Q12.451,15.82 12.141,15.82 Q11.83,15.82 11.61,15.6 Q11.391,15.381 11.391,15.07 Z"/>
  <path fill="#292D32" d="M5.619,7.8 L7.579,7.8 Q9.781,7.8 11.339,9.356 Q12.899,10.913 12.899,13.12 L12.899,17.25 Q12.899,17.561 12.68,17.78 Q12.46,18 12.149,18 Q11.839,18 11.619,17.78 Q11.399,17.561 11.399,17.25 L11.399,13.12 Q11.399,9.3 7.579,9.3 L5.619,9.3 Q5.308,9.3 5.089,9.08 Q4.869,8.861 4.869,8.55 Q4.869,8.239 5.089,8.02 Q5.308,7.8 5.619,7.8 Z"/>
  <path fill="#292D32" d="M7.67,7.28 L6.4,8.55 L7.67,9.82 Q7.89,10.039 7.89,10.35 Q7.89,10.661 7.67,10.88 Q7.45,11.1 7.14,11.1 Q6.829,11.1 6.609,10.88 L4.81,9.08 Q4.59,8.861 4.59,8.55 Q4.59,8.239 4.81,8.02 L6.609,6.22 Q6.829,6 7.14,6 Q7.45,6 7.67,6.22 Q7.89,6.439 7.89,6.75 Q7.89,7.061 7.67,7.28 Z"/>
  <path fill="#292D32" d="M17.39,6.22 L19.19,8.02 Q19.409,8.239 19.409,8.55 Q19.409,8.861 19.19,9.08 L17.39,10.88 Q17.17,11.1 16.859,11.1 Q16.549,11.1 16.329,10.88 Q16.109,10.661 16.109,10.35 Q16.109,10.039 16.329,9.82 L17.599,8.55 L16.329,7.28 Q16.109,7.061 16.109,6.75 Q16.109,6.439 16.329,6.22 Q16.549,6 16.859,6 Q17.17,6 17.39,6.22 Z"/>
  <path fill="#292D32" d="M1.25,9 Q1.25,1.25 9,1.25 L15,1.25 Q22.75,1.25 22.75,9 L22.75,15 Q22.75,22.75 15,22.75 L9,22.75 Q1.25,22.75 1.25,15 L1.25,13.02 Q1.25,12.709 1.47,12.49 Q1.689,12.27 2,12.27 Q2.311,12.27 2.53,12.49 Q2.75,12.709 2.75,13.02 L2.75,15 Q2.75,21.25 9,21.25 L15,21.25 Q18.439,21.25 19.845,19.845 Q21.25,18.439 21.25,15 L21.25,9 Q21.25,5.561 19.845,4.155 Q18.439,2.75 15,2.75 L9,2.75 Q2.75,2.75 2.75,9 Q2.75,9.311 2.53,9.53 Q2.311,9.75 2,9.75 Q1.689,9.75 1.47,9.53 Q1.25,9.311 1.25,9 Z"/>
</svg>

