<svg xmlns="http://www.w3.org/2000/svg" width="24" height="24" viewBox="0 0 24 24">
  <defs/>
  <path fill="#292D32" d="M5.403,5.517 Q2.75,8.2 2.75,12 Q2.75,15.829 5.46,18.54 Q8.171,21.25 12,21.25 Q15.829,21.25 18.54,18.54 Q21.25,15.829 21.25,12 Q21.25,8.171 18.54,5.46 Q15.829,2.75 12,2.75 Q11.069,2.75 10.125,2.936 Q9.82,2.996 9.562,2.823 Q9.304,2.65 9.244,2.345 Q9.184,2.04 9.357,1.782 Q9.53,1.524 9.835,1.464 Q10.922,1.25 12,1.25 Q16.451,1.25 19.6,4.4 Q22.75,7.549 22.75,12 Q22.75,16.451 19.6,19.6 Q16.451,22.75 12,22.75 Q7.549,22.75 4.4,19.6 Q1.25,16.451 1.25,12 Q1.25,7.584 4.337,4.463 Q4.555,4.242 4.866,4.24 Q5.176,4.238 5.397,4.457 Q5.618,4.675 5.62,4.986 Q5.622,5.296 5.403,5.517 Z"/>
  <path fill="#292D32" d="M7.941,12.729 L11.471,9.209 Q11.691,8.99 12.001,8.99 Q12.311,8.99 12.53,9.209 L16.06,12.729 Q16.28,12.948 16.281,13.259 Q16.281,13.57 16.062,13.79 Q15.842,14.01 15.532,14.01 Q15.221,14.01 15.001,13.791 L12.001,10.799 L9,13.791 Q8.78,14.01 8.47,14.01 Q8.159,14.01 7.94,13.79 Q7.72,13.57 7.721,13.259 Q7.721,12.948 7.941,12.729 Z"/>
</svg>

