<svg xmlns="http://www.w3.org/2000/svg" width="24" height="24" viewBox="0 0 24 24">
  <defs/>
  <path fill="#292D32" opacity="0.4" d="M16.19,2 L7.81,2 C4.17,2 2,4.17 2,7.81 L2,16.18 C2,19.83 4.17,22 7.81,22 L16.18,22 C19.82,22 21.99,19.83 21.99,16.19 L21.99,7.81 C22,4.17 19.83,2 16.19,2 Z"/>
  <path fill="#292D32" d="M15.53,14.21 C15.34,14.21 15.15,14.14 15,13.99 L12,10.99 L9,13.99 C8.71,14.28 8.23,14.28 7.94,13.99 C7.65,13.7 7.65,13.22 7.94,12.93 L11.47,9.4 C11.76,9.11 12.24,9.11 12.53,9.4 L16.06,12.93 C16.35,13.22 16.35,13.7 16.06,13.99 C15.91,14.14 15.72,14.21 15.53,14.21 Z"/>
</svg>

