<svg xmlns="http://www.w3.org/2000/svg" width="24" height="24" viewBox="0 0 24 24">
  <defs/>
  <path fill="#292D32" d="M16.19,2 L7.81,2 C4.17,2 2,4.17 2,7.81 L2,16.18 C2,19.83 4.17,22 7.81,22 L16.18,22 C19.82,22 21.99,19.83 21.99,16.19 L21.99,7.81 C22,4.17 19.83,2 16.19,2 Z M18.53,12.53 L14.24,16.82 C14.09,16.97 13.9,17.04 13.71,17.04 C13.52,17.04 13.33,16.97 13.18,16.82 C12.89,16.53 12.89,16.05 13.18,15.76 L16.19,12.75 L6,12.75 C5.59,12.75 5.25,12.41 5.25,12 C5.25,11.59 5.59,11.25 6,11.25 L16.19,11.25 L13.18,8.24 C12.89,7.95 12.89,7.47 13.18,7.18 C13.47,6.89 13.95,6.89 14.24,7.18 L18.53,11.47 C18.67,11.61 18.75,11.8 18.75,12 C18.75,12.2 18.67,12.39 18.53,12.53 Z"/>
</svg>

