<svg xmlns="http://www.w3.org/2000/svg" width="24" height="24" viewBox="0 0 24 24">
  <defs/>
  <path fill="#292D32" d="M15,22.75 L9,22.75 C3.57,22.75 1.25,20.43 1.25,15 L1.25,9 C1.25,3.57 3.57,1.25 9,1.25 L15,1.25 C20.43,1.25 22.75,3.57 22.75,9 L22.75,15 C22.75,20.43 20.43,22.75 15,22.75 Z M9,2.75 C4.39,2.75 2.75,4.39 2.75,9 L2.75,15 C2.75,19.61 4.39,21.25 9,21.25 L15,21.25 C19.61,21.25 21.25,19.61 21.25,15 L21.25,9 C21.25,4.39 19.61,2.75 15,2.75 L9,2.75 Z"/>
  <path fill="#292D32" d="M15.53,14.21 C15.34,14.21 15.15,14.14 15,13.99 L12,10.99 L9,13.99 C8.71,14.28 8.23,14.28 7.94,13.99 C7.65,13.7 7.65,13.22 7.94,12.93 L11.47,9.4 C11.76,9.11 12.24,9.11 12.53,9.4 L16.06,12.93 C16.35,13.22 16.35,13.7 16.06,13.99 C15.91,14.14 15.72,14.21 15.53,14.21 Z"/>
</svg>

