<svg xmlns="http://www.w3.org/2000/svg" width="24" height="24" viewBox="0 0 24 24">
  <defs/>
  <path fill="#292D32" d="M18,9.33 L18,14.67 C18,17.99 15.65,19.34 12.78,17.69 L11.5,16.95 C11.19,16.77 11,16.44 11,16.08 L11,7.92 C11,7.56 11.19,7.23 11.5,7.05 L12.78,6.31 C15.65,4.66 18,6.01 18,9.33 Z"/>
  <path fill="#292D32" opacity="0.4" d="M10.001,8.79 L10.001,15.22 C10.001,15.61 9.581,15.85 9.251,15.65 L8.151,15.01 C5.281,13.36 5.281,10.64 8.151,8.99 L9.251,8.35 C9.581,8.16 10.001,8.4 10.001,8.79 Z"/>
</svg>

