<svg xmlns="http://www.w3.org/2000/svg" width="24" height="24" viewBox="0 0 24 24">
  <defs/>
  <path fill="#292D32" d="M16.19,2 L7.81,2 C4.17,2 2,4.17 2,7.81 L2,16.18 C2,19.83 4.17,22 7.81,22 L16.18,22 C19.82,22 21.99,19.83 21.99,16.19 L21.99,7.81 C22,4.17 19.83,2 16.19,2 Z M16.82,10.82 C16.53,11.11 16.05,11.11 15.76,10.82 L12.75,7.81 L12.75,18 C12.75,18.41 12.41,18.75 12,18.75 C11.59,18.75 11.25,18.41 11.25,18 L11.25,7.81 L8.24,10.82 C7.95,11.11 7.47,11.11 7.18,10.82 C7.03,10.67 6.96,10.48 6.96,10.29 C6.96,10.1 7.04,9.9 7.18,9.76 L11.47,5.47 C11.61,5.33 11.8,5.25 12,5.25 C12.2,5.25 12.39,5.33 12.53,5.47 L16.82,9.76 C17.11,10.05 17.11,10.52 16.82,10.82 Z"/>
</svg>

