<svg xmlns="http://www.w3.org/2000/svg" width="24" height="24" viewBox="0 0 24 24">
  <defs/>
  <path fill="#292D32" d="M18.069,10.32 C17.879,10.32 17.689,10.25 17.539,10.1 L11.999,4.56 L6.459,10.1 C6.169,10.39 5.689,10.39 5.399,10.1 C5.109,9.81 5.109,9.33 5.399,9.04 L11.469,2.97 C11.759,2.68 12.239,2.68 12.529,2.97 L18.599,9.04 C18.889,9.33 18.889,9.81 18.599,10.1 C18.459,10.25 18.259,10.32 18.069,10.32 Z"/>
  <path fill="#292D32" d="M12,21.25 C11.59,21.25 11.25,20.91 11.25,20.5 L11.25,3.67 C11.25,3.26 11.59,2.92 12,2.92 C12.41,2.92 12.75,3.26 12.75,3.67 L12.75,20.5 C12.75,20.91 12.41,21.25 12,21.25 Z"/>
</svg>

