<svg xmlns="http://www.w3.org/2000/svg" width="24" height="24" viewBox="0 0 24 24">
  <defs/>
  <path fill="#292D32" d="M10.1,6.46 L4.561,12 L10.1,17.54 Q10.32,17.759 10.32,18.07 Q10.32,18.381 10.1,18.6 Q9.881,18.82 9.57,18.82 Q9.259,18.82 9.04,18.6 L2.97,12.53 Q2.75,12.311 2.75,12 Q2.75,11.689 2.97,11.47 L9.04,5.4 Q9.259,5.18 9.57,5.18 Q9.881,5.18 10.1,5.4 Q10.32,5.619 10.32,5.93 Q10.32,6.241 10.1,6.46 Z"/>
  <path fill="#292D32" d="M12.82,12.75 L3.5,12.75 Q3.189,12.75 2.97,12.53 Q2.75,12.311 2.75,12 Q2.75,11.689 2.97,11.47 Q3.189,11.25 3.5,11.25 L12.82,11.25 Q13.131,11.25 13.35,11.47 Q13.57,11.689 13.57,12 Q13.57,12.311 13.35,12.53 Q13.131,12.75 12.82,12.75 Z"/>
  <path fill="#292D32" d="M20.33,12.75 L16.85,12.75 Q16.539,12.75 16.319,12.53 Q16.1,12.311 16.1,12 Q16.1,11.689 16.319,11.47 Q16.539,11.25 16.85,11.25 L20.33,11.25 Q20.64,11.25 20.86,11.47 Q21.08,11.689 21.08,12 Q21.08,12.311 20.86,12.53 Q20.64,12.75 20.33,12.75 Z"/>
</svg>

