<svg xmlns="http://www.w3.org/2000/svg" width="24" height="24" viewBox="0 0 24 24">
  <defs/>
  <path fill="#292D32" d="M15.52,2.969 L20.54,7.979 Q20.76,8.199 20.76,8.509 Q20.761,8.82 20.541,9.04 Q20.322,9.26 20.011,9.26 Q19.7,9.26 19.48,9.041 L14.46,4.031 Q14.241,3.811 14.24,3.501 Q14.24,3.19 14.459,2.97 Q14.679,2.75 14.989,2.75 Q15.3,2.75 15.52,2.969 Z"/>
  <path fill="#292D32" d="M14.24,13.01 L14.24,3.5 Q14.24,3.189 14.46,2.97 Q14.68,2.75 14.99,2.75 Q15.301,2.75 15.521,2.97 Q15.74,3.189 15.74,3.5 L15.74,13.01 Q15.74,13.321 15.521,13.54 Q15.301,13.76 14.99,13.76 Q14.68,13.76 14.46,13.54 Q14.24,13.321 14.24,13.01 Z"/>
  <path fill="#292D32" d="M14.24,20.5 L14.24,17 Q14.24,16.689 14.46,16.47 Q14.68,16.25 14.99,16.25 Q15.301,16.25 15.521,16.47 Q15.74,16.689 15.74,17 L15.74,20.5 Q15.74,20.811 15.521,21.03 Q15.301,21.25 14.99,21.25 Q14.68,21.25 14.46,21.03 Q14.24,20.811 14.24,20.5 Z"/>
  <path fill="#292D32" d="M8.48,21.031 L3.46,16.021 Q3.241,15.801 3.24,15.491 Q3.24,15.18 3.459,14.96 Q3.679,14.74 3.989,14.74 Q4.3,14.74 4.52,14.959 L9.54,19.969 Q9.76,20.189 9.76,20.499 Q9.761,20.81 9.541,21.03 Q9.322,21.25 9.011,21.25 Q8.7,21.25 8.48,21.031 Z"/>
  <path fill="#292D32" d="M9.76,10.99 L9.76,20.5 Q9.76,20.811 9.54,21.03 Q9.32,21.25 9.01,21.25 Q8.699,21.25 8.479,21.03 Q8.26,20.811 8.26,20.5 L8.26,10.99 Q8.26,10.679 8.479,10.46 Q8.699,10.24 9.01,10.24 Q9.32,10.24 9.54,10.46 Q9.76,10.679 9.76,10.99 Z"/>
  <path fill="#292D32" d="M9.76,3.5 L9.76,7 Q9.76,7.311 9.54,7.53 Q9.32,7.75 9.01,7.75 Q8.699,7.75 8.479,7.53 Q8.26,7.311 8.26,7 L8.26,3.5 Q8.26,3.189 8.479,2.97 Q8.699,2.75 9.01,2.75 Q9.32,2.75 9.54,2.97 Q9.76,3.189 9.76,3.5 Z"/>
</svg>

