<svg xmlns="http://www.w3.org/2000/svg" width="24" height="24" viewBox="0 0 24 24">
  <defs/>
  <path fill="#292D32" d="M12.406,5.66 Q14.935,4.206 16.842,5.307 Q18.75,6.409 18.75,9.33 L18.75,14.67 Q18.75,17.586 16.842,18.688 Q14.932,19.791 12.405,18.329 L10.094,16.989 L7.784,15.649 Q5.258,14.188 5.258,11.985 Q5.258,9.782 7.785,8.321 Q8.054,8.165 8.354,8.245 Q8.654,8.326 8.81,8.594 Q8.965,8.863 8.885,9.163 Q8.805,9.464 8.536,9.619 Q6.758,10.648 6.758,11.985 Q6.758,13.322 8.537,14.351 L10.847,15.691 L13.156,17.031 Q14.932,18.058 16.092,17.389 Q17.25,16.72 17.25,14.67 L17.25,9.33 Q17.25,7.275 16.092,6.606 Q14.933,5.937 13.154,6.96 Q12.885,7.115 12.585,7.034 Q12.285,6.953 12.13,6.684 Q11.975,6.414 12.056,6.114 Q12.137,5.815 12.406,5.66 Z"/>
</svg>

