<svg xmlns="http://www.w3.org/2000/svg" width="24" height="24" viewBox="0 0 24 24">
  <defs/>
  <path fill="#292D32" opacity="0.4" d="M11.25,22 L11.25,20 Q11.25,19.689 11.47,19.47 Q11.689,19.25 12,19.25 Q12.311,19.25 12.53,19.47 Q12.75,19.689 12.75,20 L12.75,22 Q12.75,22.311 12.53,22.53 Q12.311,22.75 12,22.75 Q11.689,22.75 11.47,22.53 Q11.25,22.311 11.25,22 Z"/>
  <path fill="#292D32" opacity="0.4" d="M11.25,18 L11.25,16 Q11.25,15.689 11.47,15.47 Q11.689,15.25 12,15.25 Q12.311,15.25 12.53,15.47 Q12.75,15.689 12.75,16 L12.75,18 Q12.75,18.311 12.53,18.53 Q12.311,18.75 12,18.75 Q11.689,18.75 11.47,18.53 Q11.25,18.311 11.25,18 Z"/>
  <path fill="#292D32" d="M11.25,14 L11.25,11 Q11.25,7.787 13.518,5.518 Q15.787,3.25 19,3.25 L22,3.25 Q22.311,3.25 22.53,3.47 Q22.75,3.689 22.75,4 Q22.75,4.311 22.53,4.53 Q22.311,4.75 22,4.75 L19,4.75 Q16.408,4.75 14.579,6.579 Q12.75,8.408 12.75,11 L12.75,14 Q12.75,14.311 12.53,14.53 Q12.311,14.75 12,14.75 Q11.689,14.75 11.47,14.53 Q11.25,14.311 11.25,14 Z"/>
  <path fill="#292D32" d="M2,3.25 L5,3.25 Q8.213,3.25 10.482,5.518 Q12.75,7.787 12.75,11 L12.75,14 Q12.75,14.311 12.53,14.53 Q12.311,14.75 12,14.75 Q11.689,14.75 11.47,14.53 Q11.25,14.311 11.25,14 L11.25,11 Q11.25,8.408 9.421,6.579 Q7.592,4.75 5,4.75 L2,4.75 Q1.689,4.75 1.47,4.53 Q1.25,4.311 1.25,4 Q1.25,3.689 1.47,3.47 Q1.689,3.25 2,3.25 Z"/>
  <path fill="#292D32" d="M4.53,2.53 L3.061,4 L4.53,5.47 Q4.75,5.689 4.75,6 Q4.75,6.311 4.53,6.53 Q4.311,6.75 4,6.75 Q3.689,6.75 3.47,6.53 L1.47,4.53 Q1.25,4.311 1.25,4 Q1.25,3.689 1.47,3.47 L3.47,1.47 Q3.689,1.25 4,1.25 Q4.311,1.25 4.53,1.47 Q4.75,1.689 4.75,2 Q4.75,2.311 4.53,2.53 Z"/>
  <path fill="#292D32" d="M20.53,1.47 L22.53,3.47 Q22.75,3.689 22.75,4 Q22.75,4.311 22.53,4.53 L20.53,6.53 Q20.311,6.75 20,6.75 Q19.689,6.75 19.47,6.53 Q19.25,6.311 19.25,6 Q19.25,5.689 19.47,5.47 L20.939,4 L19.47,2.53 Q19.25,2.311 19.25,2 Q19.25,1.689 19.47,1.47 Q19.689,1.25 20,1.25 Q20.311,1.25 20.53,1.47 Z"/>
</svg>

