<svg xmlns="http://www.w3.org/2000/svg" width="24" height="24" viewBox="0 0 24 24">
  <defs/>
  <path fill="#292D32" d="M13.43,7.41 L16.05,10.03 Q16.847,10.827 16.847,11.96 Q16.847,13.093 16.05,13.89 L9.53,20.401 Q9.31,20.62 8.999,20.62 Q8.689,20.62 8.469,20.4 Q8.25,20.18 8.25,19.869 Q8.25,19.559 8.47,19.339 L14.99,12.83 Q15.347,12.472 15.347,11.96 Q15.347,11.448 14.99,11.09 L12.37,8.47 Q12.15,8.251 12.15,7.94 Q12.15,7.629 12.37,7.41 Q12.589,7.19 12.9,7.19 Q13.211,7.19 13.43,7.41 Z"/>
  <path fill="#292D32" d="M9.53,3.51 L10.57,4.55 Q10.79,4.769 10.79,5.08 Q10.79,5.391 10.57,5.61 Q10.351,5.83 10.04,5.83 Q9.729,5.83 9.51,5.61 L8.47,4.57 Q8.25,4.351 8.25,4.04 Q8.25,3.729 8.47,3.51 Q8.689,3.29 9,3.29 Q9.311,3.29 9.53,3.51 Z"/>
</svg>

