<svg xmlns="http://www.w3.org/2000/svg" width="24" height="24" viewBox="0 0 24 24">
  <defs/>
  <path fill="#292D32" d="M15,22.75 L9,22.75 C3.57,22.75 1.25,20.43 1.25,15 L1.25,9 C1.25,3.57 3.57,1.25 9,1.25 L15,1.25 C20.43,1.25 22.75,3.57 22.75,9 L22.75,15 C22.75,20.43 20.43,22.75 15,22.75 Z M9,2.75 C4.39,2.75 2.75,4.39 2.75,9 L2.75,15 C2.75,19.61 4.39,21.25 9,21.25 L15,21.25 C19.61,21.25 21.25,19.61 21.25,15 L21.25,9 C21.25,4.39 19.61,2.75 15,2.75 L9,2.75 Z"/>
  <path fill="#292D32" d="M12,14.91 C11.81,14.91 11.62,14.84 11.47,14.69 L7.94,11.16 C7.65,10.87 7.65,10.39 7.94,10.1 C8.23,9.81 8.71,9.81 9,10.1 L12,13.1 L15,10.1 C15.29,9.81 15.77,9.81 16.06,10.1 C16.35,10.39 16.35,10.87 16.06,11.16 L12.53,14.69 C12.38,14.84 12.19,14.91 12,14.91 Z"/>
</svg>

