<svg xmlns="http://www.w3.org/2000/svg" width="24" height="24" viewBox="0 0 24 24">
  <defs/>
  <path fill="#292D32" d="M14.429,18.82 C14.239,18.82 14.049,18.75 13.899,18.6 C13.609,18.31 13.609,17.83 13.899,17.54 L19.439,12 L13.899,6.46 C13.609,6.17 13.609,5.69 13.899,5.4 C14.189,5.11 14.669,5.11 14.959,5.4 L21.029,11.47 C21.319,11.76 21.319,12.24 21.029,12.53 L14.959,18.6 C14.809,18.75 14.619,18.82 14.429,18.82 Z"/>
  <path fill="#292D32" d="M20.33,12.75 L3.5,12.75 C3.09,12.75 2.75,12.41 2.75,12 C2.75,11.59 3.09,11.25 3.5,11.25 L20.33,11.25 C20.74,11.25 21.08,11.59 21.08,12 C21.08,12.41 20.74,12.75 20.33,12.75 Z"/>
</svg>

