<svg xmlns="http://www.w3.org/2000/svg" width="24" height="24" viewBox="0 0 24 24">
  <defs/>
  <path fill="#292D32" d="M17.539,10.1 L12,4.561 L6.46,10.1 Q6.24,10.32 5.93,10.32 Q5.619,10.32 5.399,10.1 Q5.18,9.881 5.18,9.57 Q5.18,9.259 5.399,9.04 L11.469,2.97 Q11.689,2.75 12,2.75 Q12.31,2.75 12.53,2.97 L18.6,9.04 Q18.82,9.259 18.82,9.57 Q18.82,9.881 18.6,10.1 Q18.38,10.32 18.07,10.32 Q17.759,10.32 17.539,10.1 Z"/>
  <path fill="#292D32" opacity="0.4" d="M11.25,20.5 L11.25,3.67 Q11.25,3.359 11.47,3.14 Q11.689,2.92 12,2.92 Q12.311,2.92 12.53,3.14 Q12.75,3.359 12.75,3.67 L12.75,20.5 Q12.75,20.811 12.53,21.03 Q12.311,21.25 12,21.25 Q11.689,21.25 11.47,21.03 Q11.25,20.811 11.25,20.5 Z"/>
</svg>

