<svg xmlns="http://www.w3.org/2000/svg" width="24" height="24" viewBox="0 0 24 24">
  <defs/>
  <path fill="#292D32" d="M9.329,18 L14.669,18 C17.989,18 19.339,15.65 17.689,12.78 L16.949,11.5 C16.769,11.19 16.439,11 16.079,11 L7.919,11 C7.559,11 7.229,11.19 7.049,11.5 L6.309,12.78 C4.659,15.65 6.009,18 9.329,18 Z"/>
  <path fill="#292D32" opacity="0.4" d="M8.79,10 L15.22,10 C15.61,10 15.85,9.58 15.65,9.25 L15.01,8.15 C13.36,5.28 10.64,5.28 8.99,8.15 L8.35,9.25 C8.16,9.58 8.4,10 8.79,10 Z"/>
</svg>

