<svg xmlns="http://www.w3.org/2000/svg" width="24" height="24" viewBox="0 0 24 24">
  <defs/>
  <path fill="#292D32" d="M9.329,6 L14.669,6 C17.989,6 19.339,8.35 17.689,11.22 L16.949,12.5 C16.769,12.81 16.439,13 16.079,13 L7.919,13 C7.559,13 7.229,12.81 7.049,12.5 L6.309,11.22 C4.659,8.35 6.009,6 9.329,6 Z"/>
  <path fill="#292D32" d="M8.792,14 L15.222,14 C15.611,14 15.851,14.42 15.652,14.75 L15.011,15.85 C13.361,18.72 10.642,18.72 8.992,15.85 L8.352,14.75 C8.162,14.42 8.402,14 8.792,14 Z"/>
</svg>

