<svg xmlns="http://www.w3.org/2000/svg" width="24" height="24" viewBox="0 0 24 24">
  <defs/>
  <path fill="#292D32" d="M10.981,6.19 L7.271,2.48 C7.201,2.41 7.111,2.35 7.011,2.31 C7.001,2.31 6.991,2.31 6.981,2.3 C6.901,2.27 6.821,2.25 6.731,2.25 C6.531,2.25 6.341,2.33 6.201,2.47 L2.471,6.19 C2.181,6.48 2.181,6.96 2.471,7.25 C2.761,7.54 3.241,7.54 3.531,7.25 L5.981,4.8 L5.981,21 C5.981,21.41 6.321,21.75 6.731,21.75 C7.141,21.75 7.481,21.41 7.481,21 L7.481,4.81 L9.921,7.25 C10.071,7.4 10.261,7.47 10.451,7.47 C10.641,7.47 10.831,7.4 10.981,7.25 C11.271,6.96 11.271,6.49 10.981,6.19 Z"/>
  <path fill="#292D32" d="M21.528,16.75 C21.238,16.46 20.758,16.46 20.468,16.75 L18.018,19.2 L18.018,3 C18.018,2.59 17.678,2.25 17.268,2.25 C16.858,2.25 16.518,2.59 16.518,3 L16.518,19.19 L14.078,16.75 C13.788,16.46 13.308,16.46 13.018,16.75 C12.728,17.04 12.728,17.52 13.018,17.81 L16.728,21.52 C16.798,21.59 16.888,21.65 16.988,21.69 C16.998,21.69 17.008,21.69 17.018,21.7 C17.098,21.73 17.188,21.75 17.278,21.75 C17.478,21.75 17.668,21.67 17.808,21.53 L21.528,17.81 C21.818,17.51 21.818,17.04 21.528,16.75 Z"/>
</svg>

