<svg xmlns="http://www.w3.org/2000/svg" width="24" height="24" viewBox="0 0 24 24">
  <defs/>
  <path fill="#292D32" d="M21.75,6.729 C21.75,6.529 21.67,6.339 21.53,6.199 L17.81,2.479 C17.52,2.189 17.04,2.189 16.75,2.479 C16.46,2.769 16.46,3.249 16.75,3.539 L19.2,5.989 L3,5.989 C2.59,5.989 2.25,6.329 2.25,6.739 C2.25,7.149 2.59,7.479 3,7.479 L19.19,7.479 L16.75,9.919 C16.46,10.209 16.46,10.689 16.75,10.979 C16.9,11.129 17.09,11.199 17.28,11.199 C17.47,11.199 17.66,11.129 17.81,10.979 L21.52,7.269 C21.59,7.199 21.65,7.109 21.69,7.009 C21.69,6.999 21.69,6.989 21.7,6.979 C21.73,6.899 21.75,6.819 21.75,6.729 Z"/>
  <path fill="#292D32" d="M21,16.518 L4.81,16.518 L7.25,14.078 C7.54,13.788 7.54,13.308 7.25,13.018 C6.96,12.728 6.48,12.728 6.19,13.018 L2.48,16.728 C2.41,16.798 2.35,16.888 2.31,16.988 C2.31,16.998 2.31,17.008 2.3,17.018 C2.27,17.098 2.25,17.188 2.25,17.278 C2.25,17.478 2.33,17.668 2.47,17.808 L6.19,21.528 C6.34,21.678 6.53,21.748 6.72,21.748 C6.91,21.748 7.1,21.678 7.25,21.528 C7.54,21.238 7.54,20.758 7.25,20.468 L4.8,18.018 L21,18.018 C21.41,18.018 21.75,17.678 21.75,17.268 C21.75,16.858 21.41,16.518 21,16.518 Z"/>
</svg>

