<svg xmlns="http://www.w3.org/2000/svg" width="24" height="24" viewBox="0 0 24 24">
  <defs/>
  <path fill="#292D32" d="M6,9.329 L6,14.669 C6,17.989 8.35,19.339 11.22,17.689 L12.5,16.949 C12.81,16.769 13,16.439 13,16.079 L13,7.919 C13,7.559 12.81,7.229 12.5,7.049 L11.22,6.309 C8.35,4.659 6,6.009 6,9.329 Z"/>
  <path fill="#292D32" d="M14,8.792 L14,15.222 C14,15.611 14.42,15.851 14.75,15.652 L15.85,15.011 C18.72,13.361 18.72,10.642 15.85,8.992 L14.75,8.352 C14.42,8.162 14,8.402 14,8.792 Z"/>
</svg>

