<svg xmlns="http://www.w3.org/2000/svg" width="24" height="24" viewBox="0 0 24 24">
  <defs/>
  <path fill="#292D32" d="M9.33,18.75 Q6.413,18.75 5.311,16.841 Q4.209,14.931 5.67,12.404 L7.011,10.093 L8.351,7.783 Q9.812,5.257 12.015,5.257 Q14.217,5.257 15.679,7.784 L17.018,10.093 L18.358,12.403 Q19.82,14.931 18.718,16.841 Q17.616,18.75 14.7,18.75 L9.33,18.75 Z M14.7,17.25 Q16.75,17.25 17.419,16.091 Q18.088,14.932 17.061,13.156 L15.721,10.846 L14.38,8.535 Q13.352,6.757 12.015,6.757 Q10.677,6.757 9.648,8.536 L8.308,10.846 L6.969,13.155 Q5.941,14.932 6.61,16.091 Q7.279,17.25 9.33,17.25 L14.7,17.25 Z"/>
</svg>

