<svg xmlns="http://www.w3.org/2000/svg" width="24" height="24" viewBox="0 0 24 24">
  <defs/>
  <path fill="#292D32" d="M12,22.75 C11.59,22.75 11.25,22.41 11.25,22 L11.25,20 C11.25,19.59 11.59,19.25 12,19.25 C12.41,19.25 12.75,19.59 12.75,20 L12.75,22 C12.75,22.41 12.41,22.75 12,22.75 Z"/>
  <path fill="#292D32" d="M12,18.75 C11.59,18.75 11.25,18.41 11.25,18 L11.25,16 C11.25,15.59 11.59,15.25 12,15.25 C12.41,15.25 12.75,15.59 12.75,16 L12.75,18 C12.75,18.41 12.41,18.75 12,18.75 Z"/>
  <path fill="#292D32" d="M12,14.75 C11.59,14.75 11.25,14.41 11.25,14 L11.25,11 C11.25,6.73 14.73,3.25 19,3.25 L22,3.25 C22.41,3.25 22.75,3.59 22.75,4 C22.75,4.41 22.41,4.75 22,4.75 L19,4.75 C15.55,4.75 12.75,7.55 12.75,11 L12.75,14 C12.75,14.41 12.41,14.75 12,14.75 Z"/>
  <path fill="#292D32" d="M12,14.75 C11.59,14.75 11.25,14.41 11.25,14 L11.25,11 C11.25,7.55 8.45,4.75 5,4.75 L2,4.75 C1.59,4.75 1.25,4.41 1.25,4 C1.25,3.59 1.59,3.25 2,3.25 L5,3.25 C9.27,3.25 12.75,6.73 12.75,11 L12.75,14 C12.75,14.41 12.41,14.75 12,14.75 Z"/>
  <path fill="#292D32" d="M3.999,6.75 C3.809,6.75 3.619,6.68 3.469,6.53 L1.469,4.53 C1.179,4.24 1.179,3.76 1.469,3.47 L3.469,1.47 C3.759,1.18 4.24,1.18 4.53,1.47 C4.82,1.76 4.82,2.24 4.53,2.53 L3.059,4 L4.53,5.47 C4.82,5.76 4.82,6.24 4.53,6.53 C4.38,6.68 4.189,6.75 3.999,6.75 Z"/>
  <path fill="#292D32" d="M20,6.75 C19.809,6.75 19.619,6.68 19.47,6.53 C19.18,6.24 19.18,5.76 19.47,5.47 L20.939,4 L19.47,2.53 C19.18,2.24 19.18,1.76 19.47,1.47 C19.759,1.18 20.239,1.18 20.529,1.47 L22.529,3.47 C22.82,3.76 22.82,4.24 22.529,4.53 L20.529,6.53 C20.38,6.68 20.189,6.75 20,6.75 Z"/>
</svg>

