<svg xmlns="http://www.w3.org/2000/svg" width="24" height="24" viewBox="0 0 24 24">
  <defs/>
  <path fill="#292D32" d="M14.96,5.4 L21.03,11.47 Q21.25,11.689 21.25,12 Q21.25,12.311 21.03,12.53 L14.96,18.6 Q14.74,18.82 14.43,18.82 Q14.119,18.82 13.899,18.6 Q13.68,18.381 13.68,18.07 Q13.68,17.759 13.899,17.54 L19.439,12 L13.899,6.46 Q13.68,6.241 13.68,5.93 Q13.68,5.619 13.899,5.4 Q14.119,5.18 14.43,5.18 Q14.74,5.18 14.96,5.4 Z"/>
  <path fill="#292D32" d="M11.01,11.25 L20.33,11.25 Q20.64,11.25 20.86,11.47 Q21.08,11.689 21.08,12 Q21.08,12.311 20.86,12.53 Q20.64,12.75 20.33,12.75 L11.01,12.75 Q10.699,12.75 10.479,12.53 Q10.26,12.311 10.26,12 Q10.26,11.689 10.479,11.47 Q10.699,11.25 11.01,11.25 Z"/>
  <path fill="#292D32" d="M3.5,11.25 L6.97,11.25 Q7.281,11.25 7.5,11.47 Q7.72,11.689 7.72,12 Q7.72,12.311 7.5,12.53 Q7.281,12.75 6.97,12.75 L3.5,12.75 Q3.189,12.75 2.97,12.53 Q2.75,12.311 2.75,12 Q2.75,11.689 2.97,11.47 Q3.189,11.25 3.5,11.25 Z"/>
</svg>

