<svg xmlns="http://www.w3.org/2000/svg" width="24" height="24" viewBox="0 0 24 24">
  <defs/>
  <path fill="#292D32" d="M16.19,2 L7.81,2 C4.17,2 2,4.17 2,7.81 L2,16.18 C2,19.83 4.17,22 7.81,22 L16.18,22 C19.82,22 21.99,19.83 21.99,16.19 L21.99,7.81 C22,4.17 19.83,2 16.19,2 Z M16.06,14 C15.91,14.15 15.72,14.22 15.53,14.22 C15.34,14.22 15.15,14.14 15,14 L12,11 L9,14 C8.71,14.29 8.23,14.29 7.94,14 C7.65,13.71 7.65,13.23 7.94,12.94 L11.47,9.41 C11.76,9.12 12.24,9.12 12.53,9.41 L16.06,12.94 C16.35,13.23 16.35,13.7 16.06,14 Z"/>
</svg>

