<svg xmlns="http://www.w3.org/2000/svg" width="24" height="24" viewBox="0 0 24 24">
  <defs/>
  <path fill="#292D32" d="M18.6,14.96 L12.53,21.03 Q12.311,21.25 12,21.25 Q11.689,21.25 11.47,21.03 L5.4,14.96 Q5.18,14.741 5.18,14.43 Q5.18,14.119 5.4,13.9 Q5.619,13.68 5.93,13.68 Q6.241,13.68 6.46,13.9 L12,19.439 L17.54,13.9 Q17.759,13.68 18.07,13.68 Q18.381,13.68 18.6,13.9 Q18.82,14.119 18.82,14.43 Q18.82,14.741 18.6,14.96 Z"/>
  <path fill="#292D32" d="M12.75,3.5 L12.75,20.33 Q12.75,20.641 12.53,20.86 Q12.311,21.08 12,21.08 Q11.689,21.08 11.47,20.86 Q11.25,20.641 11.25,20.33 L11.25,3.5 Q11.25,3.189 11.47,2.97 Q11.689,2.75 12,2.75 Q12.311,2.75 12.53,2.97 Q12.75,3.189 12.75,3.5 Z"/>
</svg>

