<svg xmlns="http://www.w3.org/2000/svg" width="24" height="24" viewBox="0 0 24 24">
  <defs/>
  <path fill="#292D32" d="M11.25,15.5 L11.25,9.5 Q11.25,9.189 11.47,8.97 Q11.689,8.75 12,8.75 Q12.311,8.75 12.53,8.97 Q12.75,9.189 12.75,9.5 L12.75,15.5 Q12.75,15.811 12.53,16.03 Q12.311,16.25 12,16.25 Q11.689,16.25 11.47,16.03 Q11.25,15.811 11.25,15.5 Z"/>
  <path fill="#292D32" d="M8.47,10.97 L11.47,7.97 Q11.689,7.75 12,7.75 Q12.311,7.75 12.53,7.97 L15.53,10.97 Q15.75,11.189 15.75,11.5 Q15.75,11.811 15.53,12.03 Q15.311,12.25 15,12.25 Q14.689,12.25 14.47,12.03 L12,9.561 L9.53,12.03 Q9.311,12.25 9,12.25 Q8.689,12.25 8.47,12.03 Q8.25,11.811 8.25,11.5 Q8.25,11.189 8.47,10.97 Z"/>
  <path fill="#292D32" d="M4.6,6.449 Q2.75,8.922 2.75,12 Q2.75,15.829 5.46,18.54 Q8.171,21.25 12,21.25 Q15.829,21.25 18.54,18.54 Q21.25,15.829 21.25,12 Q21.25,8.171 18.54,5.46 Q15.829,2.75 12,2.75 Q10.031,2.75 8.276,3.535 Q7.993,3.661 7.702,3.551 Q7.412,3.44 7.285,3.156 Q7.159,2.873 7.269,2.582 Q7.38,2.292 7.664,2.165 Q9.711,1.25 12,1.25 Q16.451,1.25 19.6,4.4 Q22.75,7.549 22.75,12 Q22.75,16.451 19.6,19.6 Q16.451,22.75 12,22.75 Q7.549,22.75 4.4,19.6 Q1.25,16.451 1.25,12 Q1.25,8.422 3.4,5.551 Q3.586,5.302 3.893,5.258 Q4.201,5.213 4.449,5.4 Q4.698,5.586 4.742,5.893 Q4.787,6.201 4.6,6.449 Z"/>
</svg>

