<svg xmlns="http://www.w3.org/2000/svg" width="24" height="24" viewBox="0 0 24 24">
  <defs/>
  <path fill="#292D32" d="M2.75,13.04 L2.75,15 Q2.75,18.439 4.155,19.845 Q5.561,21.25 9,21.25 L15,21.25 Q18.439,21.25 19.845,19.845 Q21.25,18.439 21.25,15 L21.25,9 Q21.25,2.75 15,2.75 L9,2.75 Q2.75,2.75 2.75,9 Q2.75,9.311 2.53,9.53 Q2.311,9.75 2,9.75 Q1.689,9.75 1.47,9.53 Q1.25,9.311 1.25,9 Q1.25,1.25 9,1.25 L15,1.25 Q22.75,1.25 22.75,9 L22.75,15 Q22.75,22.75 15,22.75 L9,22.75 Q1.25,22.75 1.25,15 L1.25,13.04 Q1.25,12.729 1.47,12.51 Q1.689,12.29 2,12.29 Q2.311,12.29 2.53,12.51 Q2.75,12.729 2.75,13.04 Z"/>
  <path fill="#292D32" d="M7.941,12.929 L11.471,9.409 Q11.691,9.19 12.001,9.19 Q12.311,9.19 12.53,9.409 L16.06,12.929 Q16.28,13.148 16.281,13.459 Q16.281,13.769 16.062,13.989 Q15.842,14.209 15.532,14.21 Q15.221,14.21 15.001,13.991 L12.001,10.999 L9,13.991 Q8.78,14.21 8.47,14.21 Q8.159,14.209 7.94,13.989 Q7.72,13.769 7.721,13.459 Q7.721,13.148 7.941,12.929 Z"/>
</svg>

