<svg xmlns="http://www.w3.org/2000/svg" width="24" height="24" viewBox="0 0 24 24">
  <defs/>
  <path fill="#292D32" d="M16.54,13.38 L13.92,16 Q13.123,16.798 11.99,16.798 Q10.857,16.798 10.06,16 L3.549,9.48 Q3.33,9.26 3.33,8.949 Q3.33,8.639 3.55,8.419 Q3.77,8.2 4.081,8.2 Q4.391,8.2 4.611,8.42 L11.12,14.94 Q11.99,15.809 12.86,14.94 L15.48,12.32 Q15.699,12.1 16.01,12.1 Q16.321,12.1 16.54,12.32 Q16.76,12.539 16.76,12.85 Q16.76,13.161 16.54,13.38 Z"/>
  <path fill="#292D32" d="M20.451,9.48 L19.411,10.52 Q19.192,10.74 18.881,10.74 Q18.57,10.74 18.351,10.52 Q18.131,10.301 18.131,9.99 Q18.131,9.679 18.351,9.46 L19.391,8.42 Q19.61,8.2 19.921,8.2 Q20.232,8.2 20.451,8.42 Q20.671,8.639 20.671,8.95 Q20.671,9.261 20.451,9.48 Z"/>
</svg>

