<svg xmlns="http://www.w3.org/2000/svg" width="24" height="24" viewBox="0 0 24 24">
  <defs/>
  <path fill="#292D32" d="M16.19,2 L7.81,2 C4.17,2 2,4.17 2,7.81 L2,16.18 C2,19.83 4.17,22 7.81,22 L16.18,22 C19.82,22 21.99,19.83 21.99,16.19 L21.99,7.81 C22,4.17 19.83,2 16.19,2 Z M14.79,12.53 L11.26,16.06 C11.11,16.21 10.92,16.28 10.73,16.28 C10.54,16.28 10.35,16.21 10.2,16.06 C9.91,15.77 9.91,15.29 10.2,15 L13.2,12 L10.2,9 C9.91,8.71 9.91,8.23 10.2,7.94 C10.49,7.65 10.97,7.65 11.26,7.94 L14.79,11.47 C15.09,11.76 15.09,12.24 14.79,12.53 Z"/>
</svg>

