<svg xmlns="http://www.w3.org/2000/svg" width="24" height="24" viewBox="0 0 24 24">
  <defs/>
  <path fill="#292D32" opacity="0.4" d="M22,7.81 L22,16.18 C22,19.82 19.83,21.99 16.19,21.99 L7.81,21.99 C4.17,22 2,19.83 2,16.19 L2,7.81 C2,4.17 4.17,2 7.81,2 L16.18,2 C19.83,2 22,4.17 22,7.81 Z"/>
  <path fill="#292D32" d="M12.531,5.47 L16.821,9.76 C17.111,10.05 17.111,10.53 16.821,10.82 C16.531,11.11 16.051,11.11 15.761,10.82 L12.751,7.81 L12.751,18 C12.751,18.41 12.411,18.75 12.001,18.75 C11.591,18.75 11.251,18.41 11.251,18 L11.251,7.81 L8.241,10.82 C7.951,11.11 7.471,11.11 7.181,10.82 C7.031,10.67 6.961,10.48 6.961,10.29 C6.961,10.1 7.041,9.9 7.181,9.76 L11.471,5.47 C11.611,5.33 11.801,5.25 12.001,5.25 C12.201,5.25 12.391,5.33 12.531,5.47 Z"/>
</svg>

