<svg xmlns="http://www.w3.org/2000/svg" width="24" height="24" viewBox="0 0 24 24">
  <defs/>
  <path fill="#292D32" d="M8.9,19.15 C8.27,19.15 7.68,19 7.16,18.7 C5.93,17.99 5.25,16.56 5.25,14.68 L5.25,9.33 C5.25,7.45 5.93,6.02 7.16,5.31 C8.39,4.6 9.96,4.73 11.6,5.67 L16.23,8.34 C17.86,9.28 18.76,10.58 18.76,12 C18.76,13.42 17.86,14.72 16.23,15.66 L11.6,18.33 C10.66,18.88 9.74,19.15 8.9,19.15 Z M8.9,6.36 C8.53,6.36 8.19,6.44 7.9,6.61 C7.16,7.04 6.75,8 6.75,9.33 L6.75,14.67 C6.75,15.99 7.16,16.96 7.91,17.39 C8.66,17.82 9.7,17.69 10.85,17.03 L15.48,14.36 C16.63,13.7 17.26,12.86 17.26,12 C17.26,11.14 16.63,10.3 15.48,9.64 L10.85,6.97 C10.14,6.56 9.48,6.36 8.9,6.36 Z"/>
</svg>

