<svg xmlns="http://www.w3.org/2000/svg" width="24" height="24" viewBox="0 0 24 24">
  <defs/>
  <path fill="#292D32" d="M12,2 C6.48,2 2,6.48 2,12 C2,17.52 6.48,22 12,22 C17.52,22 22,17.52 22,12 C22,6.48 17.52,2 12,2 Z M15.53,13.03 L12.53,16.03 C12.38,16.18 12.19,16.25 12,16.25 C11.81,16.25 11.62,16.18 11.47,16.03 L8.47,13.03 C8.18,12.74 8.18,12.26 8.47,11.97 C8.76,11.68 9.24,11.68 9.53,11.97 L11.25,13.69 L11.25,8.5 C11.25,8.09 11.59,7.75 12,7.75 C12.41,7.75 12.75,8.09 12.75,8.5 L12.75,13.69 L14.47,11.97 C14.76,11.68 15.24,11.68 15.53,11.97 C15.82,12.26 15.82,12.74 15.53,13.03 Z"/>
</svg>

