<svg xmlns="http://www.w3.org/2000/svg" width="24" height="24" viewBox="0 0 24 24">
  <defs/>
  <path fill="#292D32" d="M16.19,2 L7.81,2 C4.17,2 2,4.17 2,7.81 L2,16.18 C2,19.83 4.17,22 7.81,22 L16.18,22 C19.82,22 21.99,19.83 21.99,16.19 L21.99,7.81 C22,4.17 19.83,2 16.19,2 Z M17.69,14.05 C17.65,14.14 17.6,14.22 17.53,14.29 L14.58,17.24 C14.43,17.39 14.24,17.46 14.05,17.46 C13.86,17.46 13.67,17.39 13.52,17.24 C13.23,16.95 13.23,16.47 13.52,16.18 L15.19,14.51 L7,14.51 C6.59,14.51 6.25,14.17 6.25,13.76 C6.25,13.35 6.59,13.01 7,13.01 L17,13.01 C17.1,13.01 17.19,13.03 17.29,13.07 C17.47,13.15 17.62,13.29 17.7,13.48 C17.77,13.66 17.77,13.86 17.69,14.05 Z M17,10.99 L7,10.99 C6.9,10.99 6.81,10.97 6.71,10.93 C6.53,10.85 6.38,10.71 6.3,10.52 C6.22,10.34 6.22,10.13 6.3,9.95 C6.35,9.86 6.4,9.78 6.47,9.71 L9.42,6.76 C9.71,6.47 10.19,6.47 10.48,6.76 C10.77,7.05 10.77,7.53 10.48,7.82 L8.81,9.49 L17,9.49 C17.41,9.49 17.75,9.83 17.75,10.24 C17.75,10.65 17.41,10.99 17,10.99 Z"/>
</svg>

