<svg xmlns="http://www.w3.org/2000/svg" width="24" height="24" viewBox="0 0 24 24">
  <defs/>
  <path fill="#292D32" d="M12,22.75 C6.07,22.75 1.25,17.93 1.25,12 C1.25,6.07 6.07,1.25 12,1.25 C17.93,1.25 22.75,6.07 22.75,12 C22.75,17.93 17.93,22.75 12,22.75 Z M12,2.75 C6.9,2.75 2.75,6.9 2.75,12 C2.75,17.1 6.9,21.25 12,21.25 C17.1,21.25 21.25,17.1 21.25,12 C21.25,6.9 17.1,2.75 12,2.75 Z"/>
  <path fill="#292D32" d="M15.5,12.75 L9.5,12.75 C9.09,12.75 8.75,12.41 8.75,12 C8.75,11.59 9.09,11.25 9.5,11.25 L15.5,11.25 C15.91,11.25 16.25,11.59 16.25,12 C16.25,12.41 15.91,12.75 15.5,12.75 Z"/>
  <path fill="#292D32" d="M11.499,15.75 C11.309,15.75 11.12,15.68 10.97,15.53 L7.969,12.53 C7.679,12.24 7.679,11.76 7.969,11.47 L10.97,8.47 C11.259,8.18 11.739,8.18 12.03,8.47 C12.319,8.76 12.319,9.24 12.03,9.53 L9.559,12 L12.03,14.47 C12.319,14.76 12.319,15.24 12.03,15.53 C11.88,15.68 11.69,15.75 11.499,15.75 Z"/>
</svg>

