<svg xmlns="http://www.w3.org/2000/svg" width="24" height="24" viewBox="0 0 24 24">
  <defs/>
  <path fill="#292D32" opacity="0.4" d="M12,22 C17.523,22 22,17.523 22,12 C22,6.477 17.523,2 12,2 C6.477,2 2,6.477 2,12 C2,17.523 6.477,22 12,22 Z"/>
  <path fill="#292D32" d="M13.26,16.28 C13.07,16.28 12.88,16.21 12.73,16.06 L9.2,12.53 C8.91,12.24 8.91,11.76 9.2,11.47 L12.73,7.94 C13.02,7.65 13.5,7.65 13.79,7.94 C14.08,8.23 14.08,8.71 13.79,9 L10.79,12 L13.79,15 C14.08,15.29 14.08,15.77 13.79,16.06 C13.65,16.21 13.46,16.28 13.26,16.28 Z"/>
</svg>

