<svg xmlns="http://www.w3.org/2000/svg" width="24" height="24" viewBox="0 0 24 24">
  <defs/>
  <path fill="#292D32" opacity="0.4" d="M12,22 C17.523,22 22,17.523 22,12 C22,6.477 17.523,2 12,2 C6.477,2 2,6.477 2,12 C2,17.523 6.477,22 12,22 Z"/>
  <path fill="#292D32" d="M15.53,14.01 C15.34,14.01 15.15,13.94 15,13.79 L12,10.79 L9,13.79 C8.71,14.08 8.23,14.08 7.94,13.79 C7.65,13.5 7.65,13.02 7.94,12.73 L11.47,9.2 C11.76,8.91 12.24,8.91 12.53,9.2 L16.06,12.73 C16.35,13.02 16.35,13.5 16.06,13.79 C15.91,13.94 15.72,14.01 15.53,14.01 Z"/>
</svg>

