<svg xmlns="http://www.w3.org/2000/svg" width="24" height="24" viewBox="0 0 24 24">
  <defs/>
  <g opacity="0.4">
    <path fill="#292D32" d="M16.751,9.919 L19.941,6.73 L16.751,3.54 Q16.531,3.32 16.531,3.01 Q16.531,2.699 16.751,2.479 Q16.971,2.26 17.281,2.26 Q17.592,2.26 17.812,2.479 L21.532,6.199 Q21.751,6.419 21.751,6.73 Q21.751,7.04 21.532,7.26 L17.812,10.98 Q17.592,11.2 17.281,11.2 Q16.971,11.2 16.751,10.98 Q16.531,10.76 16.531,10.45 Q16.531,10.139 16.751,9.919 Z"/>
    <path fill="#292D32" d="M3,5.979 L21,5.979 Q21.311,5.979 21.53,6.199 Q21.75,6.419 21.75,6.729 Q21.75,7.04 21.53,7.26 Q21.311,7.479 21,7.479 L3,7.479 Q2.689,7.479 2.47,7.26 Q2.25,7.04 2.25,6.729 Q2.25,6.419 2.47,6.199 Q2.689,5.979 3,5.979 Z"/>
  </g>
  <path fill="#292D32" d="M7.25,14.08 L4.061,17.27 L7.25,20.459 Q7.47,20.679 7.47,20.99 Q7.47,21.3 7.25,21.52 Q7.031,21.74 6.72,21.74 Q6.409,21.74 6.19,21.52 L2.47,17.8 Q2.25,17.58 2.25,17.27 Q2.25,16.959 2.47,16.739 L6.19,13.019 Q6.409,12.8 6.72,12.8 Q7.031,12.8 7.25,13.019 Q7.47,13.239 7.47,13.55 Q7.47,13.86 7.25,14.08 Z"/>
  <path fill="#292D32" d="M21,18.02 L3,18.02 Q2.689,18.02 2.47,17.8 Q2.25,17.581 2.25,17.27 Q2.25,16.959 2.47,16.74 Q2.689,16.52 3,16.52 L21,16.52 Q21.311,16.52 21.53,16.74 Q21.75,16.959 21.75,17.27 Q21.75,17.581 21.53,17.8 Q21.311,18.02 21,18.02 Z"/>
</svg>

