<svg xmlns="http://www.w3.org/2000/svg" width="24" height="24" viewBox="0 0 24 24">
  <defs/>
  <path fill="#292D32" d="M12,2 C6.48,2 2,6.48 2,12 C2,17.52 6.48,22 12,22 C17.52,22 22,17.52 22,12 C22,6.48 17.52,2 12,2 Z M15.53,12.03 C15.38,12.18 15.19,12.25 15,12.25 C14.81,12.25 14.62,12.18 14.47,12.03 L12.75,10.31 L12.75,15.5 C12.75,15.91 12.41,16.25 12,16.25 C11.59,16.25 11.25,15.91 11.25,15.5 L11.25,10.31 L9.53,12.03 C9.24,12.32 8.76,12.32 8.47,12.03 C8.18,11.74 8.18,11.26 8.47,10.97 L11.47,7.97 C11.76,7.68 12.24,7.68 12.53,7.97 L15.53,10.97 C15.82,11.26 15.82,11.74 15.53,12.03 Z"/>
</svg>

