<svg xmlns="http://www.w3.org/2000/svg" width="24" height="24" viewBox="0 0 24 24">
  <defs/>
  <path fill="#292D32" d="M12,22.75 C6.07,22.75 1.25,17.93 1.25,12 C1.25,6.07 6.07,1.25 12,1.25 C17.93,1.25 22.75,6.07 22.75,12 C22.75,17.93 17.93,22.75 12,22.75 Z M12,2.75 C6.9,2.75 2.75,6.9 2.75,12 C2.75,17.1 6.9,21.25 12,21.25 C17.1,21.25 21.25,17.1 21.25,12 C21.25,6.9 17.1,2.75 12,2.75 Z"/>
  <path fill="#292D32" d="M12,16.25 C11.59,16.25 11.25,15.91 11.25,15.5 L11.25,9.5 C11.25,9.09 11.59,8.75 12,8.75 C12.41,8.75 12.75,9.09 12.75,9.5 L12.75,15.5 C12.75,15.91 12.41,16.25 12,16.25 Z"/>
  <path fill="#292D32" d="M14.999,12.25 C14.809,12.25 14.62,12.18 14.47,12.03 L11.999,9.56 L9.529,12.03 C9.239,12.32 8.759,12.32 8.469,12.03 C8.179,11.74 8.179,11.26 8.469,10.97 L11.47,7.97 C11.759,7.68 12.239,7.68 12.53,7.97 L15.53,10.97 C15.819,11.26 15.819,11.74 15.53,12.03 C15.38,12.18 15.19,12.25 14.999,12.25 Z"/>
</svg>

