<svg xmlns="http://www.w3.org/2000/svg" width="24" height="24" viewBox="0 0 24 24">
  <defs/>
  <path fill="#292D32" d="M9.33,18.75 Q6.414,18.75 5.312,16.841 Q4.209,14.932 5.671,12.405 L7.011,10.094 L8.351,7.784 Q9.812,5.258 12.015,5.258 Q14.218,5.258 15.679,7.785 L17.019,10.094 L18.359,12.404 Q19.821,14.932 18.718,16.841 Q17.616,18.75 14.7,18.75 L9.33,18.75 Z M14.7,17.25 Q16.75,17.25 17.419,16.091 Q18.088,14.932 17.061,13.156 L15.721,10.846 L14.381,8.536 Q13.352,6.758 12.015,6.758 Q10.678,6.758 9.649,8.536 L8.309,10.846 L6.969,13.156 Q5.942,14.932 6.611,16.091 Q7.28,17.25 9.33,17.25 L14.7,17.25 Z"/>
</svg>

