<svg xmlns="http://www.w3.org/2000/svg" width="24" height="24" viewBox="0 0 24 24">
  <defs/>
  <path fill="#292D32" opacity="0.4" d="M12,22 C17.523,22 22,17.523 22,12 C22,6.477 17.523,2 12,2 C6.477,2 2,6.477 2,12 C2,17.523 6.477,22 12,22 Z"/>
  <path fill="#292D32" d="M15.53,11.97 C15.239,11.68 14.759,11.68 14.47,11.97 L12.749,13.69 L12.749,8.5 C12.749,8.09 12.409,7.75 11.999,7.75 C11.589,7.75 11.249,8.09 11.249,8.5 L11.249,13.69 L9.529,11.97 C9.239,11.68 8.759,11.68 8.469,11.97 C8.179,12.26 8.179,12.74 8.469,13.03 L11.47,16.03 C11.62,16.18 11.809,16.25 11.999,16.25 C12.19,16.25 12.38,16.18 12.53,16.03 L15.53,13.03 C15.819,12.74 15.819,12.26 15.53,11.97 Z"/>
</svg>

