<svg xmlns="http://www.w3.org/2000/svg" width="24" height="24" viewBox="0 0 24 24">
  <defs/>
  <path fill="#292D32" d="M11.999,21.25 C11.809,21.25 11.619,21.18 11.469,21.03 L5.399,14.96 C5.109,14.67 5.109,14.19 5.399,13.9 C5.689,13.61 6.169,13.61 6.459,13.9 L11.999,19.44 L17.539,13.9 C17.829,13.61 18.309,13.61 18.599,13.9 C18.889,14.19 18.889,14.67 18.599,14.96 L12.529,21.03 C12.379,21.18 12.189,21.25 11.999,21.25 Z"/>
  <path fill="#292D32" d="M12,21.08 C11.59,21.08 11.25,20.74 11.25,20.33 L11.25,3.5 C11.25,3.09 11.59,2.75 12,2.75 C12.41,2.75 12.75,3.09 12.75,3.5 L12.75,20.33 C12.75,20.74 12.41,21.08 12,21.08 Z"/>
</svg>

