<svg xmlns="http://www.w3.org/2000/svg" width="24" height="24" viewBox="0 0 24 24">
  <defs/>
  <path fill="#292D32" opacity="0.4" d="M12,22 C17.523,22 22,17.523 22,12 C22,6.477 17.523,2 12,2 C6.477,2 2,6.477 2,12 C2,17.523 6.477,22 12,22 Z"/>
  <path fill="#292D32" d="M10.74,16.28 C10.55,16.28 10.36,16.21 10.21,16.06 C9.92,15.77 9.92,15.29 10.21,15 L13.21,12 L10.21,9 C9.92,8.71 9.92,8.23 10.21,7.94 C10.5,7.65 10.98,7.65 11.27,7.94 L14.8,11.47 C15.09,11.76 15.09,12.24 14.8,12.53 L11.27,16.06 C11.12,16.21 10.93,16.28 10.74,16.28 Z"/>
</svg>

