<svg xmlns="http://www.w3.org/2000/svg" width="24" height="24" viewBox="0 0 24 24">
  <defs/>
  <path fill="#292D32" d="M15.49,20.76 C15.3,20.76 15.11,20.69 14.96,20.54 C14.67,20.25 14.67,19.77 14.96,19.48 L19.97,14.47 C20.26,14.18 20.74,14.18 21.03,14.47 C21.32,14.76 21.32,15.24 21.03,15.53 L16.02,20.54 C15.87,20.68 15.68,20.76 15.49,20.76 Z"/>
  <path fill="#292D32" d="M20.5,15.74 L3.5,15.74 C3.09,15.74 2.75,15.4 2.75,14.99 C2.75,14.58 3.09,14.24 3.5,14.24 L20.5,14.24 C20.91,14.24 21.25,14.58 21.25,14.99 C21.25,15.4 20.91,15.74 20.5,15.74 Z"/>
  <path fill="#292D32" d="M3.499,9.76 C3.309,9.76 3.119,9.69 2.969,9.54 C2.679,9.25 2.679,8.77 2.969,8.48 L7.979,3.47 C8.269,3.18 8.749,3.18 9.039,3.47 C9.329,3.76 9.329,4.24 9.039,4.53 L4.029,9.54 C3.889,9.68 3.689,9.76 3.499,9.76 Z"/>
  <path fill="#292D32" d="M20.5,9.76 L3.5,9.76 C3.09,9.76 2.75,9.42 2.75,9.01 C2.75,8.6 3.09,8.26 3.5,8.26 L20.5,8.26 C20.91,8.26 21.25,8.6 21.25,9.01 C21.25,9.42 20.91,9.76 20.5,9.76 Z"/>
</svg>

