<svg xmlns="http://www.w3.org/2000/svg" width="24" height="24" viewBox="0 0 24 24">
  <defs/>
  <path fill="#292D32" d="M9,22.75 Q1.25,22.75 1.25,15 L1.25,9 Q1.25,1.25 9,1.25 L15,1.25 Q22.75,1.25 22.75,9 L22.75,15 Q22.75,22.75 15,22.75 Z M9,21.25 L15,21.25 Q18.439,21.25 19.845,19.845 Q21.25,18.439 21.25,15 L21.25,9 Q21.25,2.75 15,2.75 L9,2.75 Q2.75,2.75 2.75,9 L2.75,15 Q2.75,18.439 4.155,19.845 Q5.561,21.25 9,21.25 Z"/>
  <path fill="#292D32" d="M9,10.109 L12,13.101 L15,10.109 Q15.22,9.889 15.531,9.89 Q15.842,9.89 16.061,10.11 Q16.28,10.33 16.28,10.641 Q16.28,10.952 16.06,11.171 L12.53,14.691 Q12.31,14.91 12,14.91 Q11.69,14.91 11.47,14.691 L7.94,11.171 Q7.72,10.952 7.72,10.641 Q7.72,10.33 7.939,10.11 Q8.158,9.89 8.469,9.89 Q8.78,9.889 9,10.109 Z"/>
</svg>

