<svg xmlns="http://www.w3.org/2000/svg" width="24" height="24" viewBox="0 0 24 24">
  <defs/>
  <path fill="#292D32" d="M10.1,6.461 L4.561,12 L10.1,17.54 Q10.32,17.76 10.32,18.07 Q10.32,18.381 10.1,18.601 Q9.881,18.82 9.57,18.82 Q9.259,18.82 9.04,18.601 L2.97,12.531 Q2.75,12.311 2.75,12 Q2.75,11.69 2.97,11.47 L9.04,5.4 Q9.259,5.18 9.57,5.18 Q9.881,5.18 10.1,5.4 Q10.32,5.62 10.32,5.93 Q10.32,6.241 10.1,6.461 Z"/>
  <path fill="#292D32" opacity="0.4" d="M20.5,12.75 L3.67,12.75 Q3.359,12.75 3.14,12.53 Q2.92,12.311 2.92,12 Q2.92,11.689 3.14,11.47 Q3.359,11.25 3.67,11.25 L20.5,11.25 Q20.811,11.25 21.03,11.47 Q21.25,11.689 21.25,12 Q21.25,12.311 21.03,12.53 Q20.811,12.75 20.5,12.75 Z"/>
</svg>

