<svg xmlns="http://www.w3.org/2000/svg" width="24" height="24" viewBox="0 0 24 24">
  <defs/>
  <path fill="#292D32" d="M15,22.75 L9,22.75 C3.57,22.75 1.25,20.43 1.25,15 L1.25,9 C1.25,3.57 3.57,1.25 9,1.25 L15,1.25 C20.43,1.25 22.75,3.57 22.75,9 L22.75,15 C22.75,20.43 20.43,22.75 15,22.75 Z M9,2.75 C4.39,2.75 2.75,4.39 2.75,9 L2.75,15 C2.75,19.61 4.39,21.25 9,21.25 L15,21.25 C19.61,21.25 21.25,19.61 21.25,15 L21.25,9 C21.25,4.39 19.61,2.75 15,2.75 L9,2.75 Z"/>
  <path fill="#292D32" d="M10.74,16.28 C10.55,16.28 10.36,16.21 10.21,16.06 C9.92,15.77 9.92,15.29 10.21,15 L13.21,12 L10.21,9 C9.92,8.71 9.92,8.23 10.21,7.94 C10.5,7.65 10.98,7.65 11.27,7.94 L14.8,11.47 C15.09,11.76 15.09,12.24 14.8,12.53 L11.27,16.06 C11.12,16.21 10.93,16.28 10.74,16.28 Z"/>
</svg>

