<svg xmlns="http://www.w3.org/2000/svg" width="24" height="24" viewBox="0 0 24 24">
  <defs/>
  <path fill="#292D32" opacity="0.4" d="M12,22 C17.523,22 22,17.523 22,12 C22,6.477 17.523,2 12,2 C6.477,2 2,6.477 2,12 C2,17.523 6.477,22 12,22 Z"/>
  <path fill="#292D32" d="M16.03,11.47 L13.03,8.47 C12.74,8.18 12.26,8.18 11.97,8.47 C11.68,8.76 11.68,9.24 11.97,9.53 L13.69,11.25 L8.5,11.25 C8.09,11.25 7.75,11.59 7.75,12 C7.75,12.41 8.09,12.75 8.5,12.75 L13.69,12.75 L11.97,14.47 C11.68,14.76 11.68,15.24 11.97,15.53 C12.12,15.68 12.31,15.75 12.5,15.75 C12.69,15.75 12.88,15.68 13.03,15.53 L16.03,12.53 C16.32,12.24 16.32,11.76 16.03,11.47 Z"/>
</svg>

