<svg xmlns="http://www.w3.org/2000/svg" width="24" height="24" viewBox="0 0 24 24">
  <defs/>
  <path fill="#292D32" d="M9,22.75 Q1.25,22.75 1.25,15 L1.25,9 Q1.25,1.25 9,1.25 L15,1.25 Q22.75,1.25 22.75,9 L22.75,15 Q22.75,22.75 15,22.75 Z M9,21.25 L15,21.25 Q18.439,21.25 19.845,19.845 Q21.25,18.439 21.25,15 L21.25,9 Q21.25,2.75 15,2.75 L9,2.75 Q2.75,2.75 2.75,9 L2.75,15 Q2.75,18.439 4.155,19.845 Q5.561,21.25 9,21.25 Z"/>
  <path fill="#292D32" d="M10.209,15 L13.201,12 L10.209,9 Q9.99,8.78 9.99,8.469 Q9.99,8.158 10.21,7.939 Q10.43,7.72 10.741,7.72 Q11.052,7.72 11.271,7.94 L14.791,11.47 Q15.01,11.69 15.01,12 Q15.01,12.31 14.791,12.53 L11.271,16.06 Q11.052,16.28 10.741,16.28 Q10.43,16.28 10.21,16.061 Q9.99,15.842 9.99,15.531 Q9.99,15.22 10.209,15 Z"/>
</svg>

