<svg xmlns="http://www.w3.org/2000/svg" width="24" height="24" viewBox="0 0 24 24">
  <defs/>
  <path fill="#292D32" d="M9.329,6 L14.669,6 C17.989,6 19.339,8.35 17.689,11.22 L16.949,12.5 C16.769,12.81 16.439,13 16.079,13 L7.919,13 C7.559,13 7.229,12.81 7.049,12.5 L6.309,11.22 C4.659,8.35 6.009,6 9.329,6 Z"/>
  <path fill="#292D32" opacity="0.4" d="M8.79,14 L15.22,14 C15.61,14 15.85,14.42 15.65,14.75 L15.01,15.85 C13.36,18.72 10.64,18.72 8.99,15.85 L8.35,14.75 C8.16,14.42 8.4,14 8.79,14 Z"/>
</svg>

