<svg xmlns="http://www.w3.org/2000/svg" width="24" height="24" viewBox="0 0 24 24">
  <defs/>
  <path fill="#292D32" d="M12,22.75 C6.07,22.75 1.25,17.93 1.25,12 C1.25,6.07 6.07,1.25 12,1.25 C17.93,1.25 22.75,6.07 22.75,12 C22.75,17.93 17.93,22.75 12,22.75 Z M12,2.75 C6.9,2.75 2.75,6.9 2.75,12 C2.75,17.1 6.9,21.25 12,21.25 C17.1,21.25 21.25,17.1 21.25,12 C21.25,6.9 17.1,2.75 12,2.75 Z"/>
  <path fill="#292D32" d="M10.74,16.28 C10.55,16.28 10.36,16.21 10.21,16.06 C9.92,15.77 9.92,15.29 10.21,15 L13.21,12 L10.21,9 C9.92,8.71 9.92,8.23 10.21,7.94 C10.5,7.65 10.98,7.65 11.27,7.94 L14.8,11.47 C15.09,11.76 15.09,12.24 14.8,12.53 L11.27,16.06 C11.12,16.21 10.93,16.28 10.74,16.28 Z"/>
</svg>

