<svg xmlns="http://www.w3.org/2000/svg" width="24" height="24" viewBox="0 0 24 24">
  <defs/>
  <path fill="#292D32" d="M14.67,5.25 Q17.586,5.25 18.688,7.159 Q19.791,9.069 18.329,11.596 L16.989,13.906 L15.649,16.216 Q14.188,18.743 11.985,18.743 Q9.782,18.743 8.321,16.216 L6.981,13.906 L5.641,11.596 Q4.201,9.061 5.305,7.157 Q6.411,5.25 9.33,5.25 L14.67,5.25 Z M9.33,6.75 Q7.275,6.75 6.603,7.91 Q5.931,9.069 6.939,10.844 L8.279,13.154 L9.619,15.464 Q10.648,17.243 11.985,17.243 Q13.322,17.243 14.351,15.464 L15.691,13.154 L17.031,10.844 Q18.058,9.068 17.389,7.909 Q16.72,6.75 14.67,6.75 L9.33,6.75 Z"/>
</svg>

