<svg xmlns="http://www.w3.org/2000/svg" width="24" height="24" viewBox="0 0 24 24">
  <defs/>
  <path fill="#292D32" d="M16.226,8.341 Q18.753,9.802 18.753,12.005 Q18.752,14.208 16.226,15.669 L13.916,17.009 L11.606,18.349 Q9.066,19.796 7.16,18.694 Q5.25,17.591 5.25,14.67 L5.25,9.33 Q5.25,6.414 7.159,5.312 Q9.069,4.209 11.596,5.671 Q11.864,5.826 11.945,6.126 Q12.025,6.427 11.869,6.695 Q11.714,6.964 11.414,7.045 Q11.113,7.125 10.844,6.969 Q9.068,5.942 7.909,6.611 Q6.75,7.28 6.75,9.33 L6.75,14.67 Q6.75,16.725 7.91,17.396 Q9.071,18.066 10.854,17.051 L13.164,15.711 L15.474,14.371 Q17.252,13.342 17.252,12.005 Q17.252,10.668 15.474,9.639 Q15.206,9.484 15.125,9.183 Q15.045,8.883 15.201,8.614 Q15.356,8.345 15.656,8.265 Q15.957,8.185 16.226,8.341 Z"/>
</svg>

