<svg xmlns="http://www.w3.org/2000/svg" width="24" height="24" viewBox="0 0 24 24">
  <defs/>
  <path fill="#292D32" d="M12.141,15.82 C11.731,15.82 11.391,15.48 11.391,15.07 L11.391,13.11 C11.391,10.18 13.771,7.8 16.711,7.8 L18.671,7.8 C19.081,7.8 19.421,8.14 19.421,8.55 C19.421,8.96 19.081,9.3 18.671,9.3 L16.711,9.3 C14.611,9.3 12.891,11.01 12.891,13.11 L12.891,15.07 C12.891,15.49 12.551,15.82 12.141,15.82 Z"/>
  <path fill="#292D32" d="M12.141,18 C11.731,18 11.391,17.66 11.391,17.25 L11.391,13.12 C11.391,11.02 9.681,9.31 7.581,9.31 L5.621,9.31 C5.211,9.31 4.871,8.97 4.871,8.56 C4.871,8.15 5.211,7.81 5.621,7.81 L7.581,7.81 C10.511,7.81 12.891,10.19 12.891,13.12 L12.891,17.25 C12.891,17.66 12.551,18 12.141,18 Z"/>
  <path fill="#292D32" d="M7.139,11.1 C6.949,11.1 6.759,11.03 6.609,10.88 L4.809,9.08 C4.519,8.79 4.519,8.31 4.809,8.02 L6.609,6.22 C6.899,5.93 7.379,5.93 7.669,6.22 C7.959,6.51 7.959,6.99 7.669,7.28 L6.399,8.55 L7.669,9.82 C7.959,10.11 7.959,10.59 7.669,10.88 C7.519,11.03 7.329,11.1 7.139,11.1 Z"/>
  <path fill="#292D32" d="M16.861,11.1 C16.671,11.1 16.481,11.03 16.331,10.88 C16.041,10.59 16.041,10.11 16.331,9.82 L17.601,8.55 L16.331,7.28 C16.041,6.99 16.041,6.51 16.331,6.22 C16.621,5.93 17.101,5.93 17.391,6.22 L19.191,8.02 C19.481,8.31 19.481,8.79 19.191,9.08 L17.391,10.88 C17.251,11.03 17.051,11.1 16.861,11.1 Z"/>
  <path fill="#292D32" d="M15,22.75 L9,22.75 C3.57,22.75 1.25,20.43 1.25,15 L1.25,9 C1.25,3.57 3.57,1.25 9,1.25 L15,1.25 C20.43,1.25 22.75,3.57 22.75,9 L22.75,15 C22.75,20.43 20.43,22.75 15,22.75 Z M9,2.75 C4.39,2.75 2.75,4.39 2.75,9 L2.75,15 C2.75,19.61 4.39,21.25 9,21.25 L15,21.25 C19.61,21.25 21.25,19.61 21.25,15 L21.25,9 C21.25,4.39 19.61,2.75 15,2.75 L9,2.75 Z"/>
</svg>

