<svg xmlns="http://www.w3.org/2000/svg" width="24" height="24" viewBox="0 0 24 24">
  <defs/>
  <path fill="#292D32" d="M12,22.75 C11.59,22.75 11.25,22.41 11.25,22 L11.25,20 C11.25,19.59 11.59,19.25 12,19.25 C12.41,19.25 12.75,19.59 12.75,20 L12.75,22 C12.75,22.41 12.41,22.75 12,22.75 Z"/>
  <path fill="#292D32" d="M12,18.75 C11.59,18.75 11.25,18.41 11.25,18 L11.25,16 C11.25,15.59 11.59,15.25 12,15.25 C12.41,15.25 12.75,15.59 12.75,16 L12.75,18 C12.75,18.41 12.41,18.75 12,18.75 Z"/>
  <path fill="#292D32" d="M12,14.75 C11.59,14.75 11.25,14.41 11.25,14 L11.25,11 C11.25,6.73 14.73,3.25 19,3.25 L22,3.25 C22.41,3.25 22.75,3.59 22.75,4 C22.75,4.41 22.41,4.75 22,4.75 L19,4.75 C15.55,4.75 12.75,7.55 12.75,11 L12.75,14 C12.75,14.41 12.41,14.75 12,14.75 Z"/>
  <path fill="#292D32" d="M12,14.75 C11.59,14.75 11.25,14.41 11.25,14 L11.25,11 C11.25,7.55 8.45,4.75 5,4.75 L2,4.75 C1.59,4.75 1.25,4.41 1.25,4 C1.25,3.59 1.59,3.25 2,3.25 L5,3.25 C9.27,3.25 12.75,6.73 12.75,11 L12.75,14 C12.75,14.41 12.41,14.75 12,14.75 Z"/>
  <path fill="#292D32" d="M4.001,6.751 C3.811,6.751 3.621,6.681 3.471,6.531 L1.471,4.531 C1.181,4.241 1.181,3.761 1.471,3.471 L3.471,1.471 C3.761,1.181 4.241,1.181 4.531,1.471 C4.821,1.761 4.821,2.241 4.531,2.531 L3.061,4.001 L4.531,5.471 C4.821,5.761 4.821,6.241 4.531,6.531 C4.381,6.681 4.191,6.751 4.001,6.751 Z"/>
  <path fill="#292D32" d="M20.001,6.751 C19.811,6.751 19.621,6.681 19.471,6.531 C19.181,6.241 19.181,5.761 19.471,5.471 L20.941,4.001 L19.471,2.531 C19.181,2.241 19.181,1.761 19.471,1.471 C19.761,1.181 20.241,1.181 20.531,1.471 L22.531,3.471 C22.821,3.761 22.821,4.241 22.531,4.531 L20.531,6.531 C20.381,6.681 20.191,6.751 20.001,6.751 Z"/>
</svg>

