<svg xmlns="http://www.w3.org/2000/svg" width="24" height="24" viewBox="0 0 24 24">
  <defs/>
  <path fill="#292D32" d="M16.19,2 L7.81,2 C4.17,2 2,4.17 2,7.81 L2,16.18 C2,19.83 4.17,22 7.81,22 L16.18,22 C19.82,22 21.99,19.83 21.99,16.19 L21.99,7.81 C22,4.17 19.83,2 16.19,2 Z M16.06,11.17 L12.53,14.7 C12.38,14.85 12.19,14.92 12,14.92 C11.81,14.92 11.62,14.85 11.47,14.7 L7.94,11.17 C7.65,10.88 7.65,10.4 7.94,10.11 C8.23,9.82 8.71,9.82 9,10.11 L12,13.11 L15,10.11 C15.29,9.82 15.77,9.82 16.06,10.11 C16.35,10.4 16.35,10.87 16.06,11.17 Z"/>
</svg>

