<svg xmlns="http://www.w3.org/2000/svg" width="24" height="24" viewBox="0 0 24 24">
  <defs/>
  <path fill="#292D32" d="M12,22.75 C6.07,22.75 1.25,17.93 1.25,12 C1.25,6.07 6.07,1.25 12,1.25 C17.93,1.25 22.75,6.07 22.75,12 C22.75,17.93 17.93,22.75 12,22.75 Z M12,2.75 C6.9,2.75 2.75,6.9 2.75,12 C2.75,17.1 6.9,21.25 12,21.25 C17.1,21.25 21.25,17.1 21.25,12 C21.25,6.9 17.1,2.75 12,2.75 Z"/>
  <path fill="#292D32" d="M12,15.25 C11.59,15.25 11.25,14.91 11.25,14.5 L11.25,8.5 C11.25,8.09 11.59,7.75 12,7.75 C12.41,7.75 12.75,8.09 12.75,8.5 L12.75,14.5 C12.75,14.91 12.41,15.25 12,15.25 Z"/>
  <path fill="#292D32" d="M11.999,16.25 C11.809,16.25 11.62,16.18 11.47,16.03 L8.469,13.03 C8.179,12.74 8.179,12.26 8.469,11.97 C8.759,11.68 9.239,11.68 9.529,11.97 L11.999,14.44 L14.47,11.97 C14.759,11.68 15.239,11.68 15.53,11.97 C15.819,12.26 15.819,12.74 15.53,13.03 L12.53,16.03 C12.38,16.18 12.19,16.25 11.999,16.25 Z"/>
</svg>

