<svg xmlns="http://www.w3.org/2000/svg" width="24" height="24" viewBox="0 0 24 24">
  <defs/>
  <path fill="#292D32" d="M5.403,5.517 Q2.75,8.2 2.75,12 Q2.75,15.829 5.46,18.54 Q8.171,21.25 12,21.25 Q15.829,21.25 18.54,18.54 Q21.25,15.829 21.25,12 Q21.25,8.171 18.54,5.46 Q15.829,2.75 12,2.75 Q11.069,2.75 10.125,2.936 Q9.82,2.996 9.562,2.823 Q9.304,2.65 9.244,2.345 Q9.184,2.04 9.357,1.782 Q9.53,1.524 9.835,1.464 Q10.922,1.25 12,1.25 Q16.451,1.25 19.6,4.4 Q22.75,7.549 22.75,12 Q22.75,16.451 19.6,19.6 Q16.451,22.75 12,22.75 Q7.549,22.75 4.4,19.6 Q1.25,16.451 1.25,12 Q1.25,7.584 4.337,4.463 Q4.555,4.242 4.866,4.24 Q5.176,4.238 5.397,4.457 Q5.618,4.675 5.62,4.986 Q5.622,5.296 5.403,5.517 Z"/>
  <path fill="#292D32" d="M10.209,15 L13.201,12 L10.209,9 Q9.99,8.78 9.99,8.469 Q9.991,8.158 10.211,7.939 Q10.431,7.72 10.741,7.72 Q11.052,7.72 11.271,7.94 L14.791,11.47 Q15.01,11.69 15.01,12 Q15.01,12.31 14.791,12.53 L11.271,16.06 Q11.052,16.28 10.741,16.28 Q10.431,16.28 10.211,16.061 Q9.991,15.842 9.99,15.531 Q9.99,15.22 10.209,15 Z"/>
</svg>

