<svg xmlns="http://www.w3.org/2000/svg" width="24" height="24" viewBox="0 0 24 24">
  <defs/>
  <path fill="#292D32" d="M9.009,21.25 C8.819,21.25 8.629,21.18 8.479,21.03 L3.469,16.02 C3.179,15.73 3.179,15.25 3.469,14.96 C3.759,14.67 4.239,14.67 4.529,14.96 L9.539,19.97 C9.829,20.26 9.829,20.74 9.539,21.03 C9.389,21.17 9.199,21.25 9.009,21.25 Z"/>
  <path fill="#292D32" d="M9.01,21.25 C8.6,21.25 8.26,20.91 8.26,20.5 L8.26,3.5 C8.26,3.09 8.6,2.75 9.01,2.75 C9.42,2.75 9.76,3.09 9.76,3.5 L9.76,20.5 C9.76,20.91 9.42,21.25 9.01,21.25 Z"/>
  <path fill="#292D32" d="M20.009,9.26 C19.82,9.26 19.63,9.19 19.48,9.04 L14.47,4.03 C14.18,3.74 14.18,3.26 14.47,2.97 C14.759,2.68 15.239,2.68 15.53,2.97 L20.54,7.98 C20.829,8.27 20.829,8.75 20.54,9.04 C20.39,9.19 20.2,9.26 20.009,9.26 Z"/>
  <path fill="#292D32" d="M14.99,21.25 C14.58,21.25 14.24,20.91 14.24,20.5 L14.24,3.5 C14.24,3.09 14.58,2.75 14.99,2.75 C15.4,2.75 15.74,3.09 15.74,3.5 L15.74,20.5 C15.74,20.91 15.41,21.25 14.99,21.25 Z"/>
</svg>

