<svg xmlns="http://www.w3.org/2000/svg" width="24" height="24" viewBox="0 0 24 24">
  <defs/>
  <path fill="#292D32" d="M15.479,11.679 L12.869,9.059 Q12.512,8.702 12,8.702 Q11.488,8.702 11.13,9.06 L4.61,15.58 Q4.391,15.8 4.08,15.8 Q3.769,15.8 3.55,15.58 Q3.33,15.361 3.33,15.05 Q3.33,14.739 3.55,14.52 L10.07,8 Q10.867,7.202 12,7.202 Q13.133,7.202 13.931,8.001 L16.541,10.621 Q16.761,10.841 16.76,11.151 Q16.76,11.462 16.539,11.681 Q16.319,11.9 16.009,11.9 Q15.698,11.899 15.479,11.679 Z"/>
  <path fill="#292D32" d="M19.391,15.58 L18.351,14.54 Q18.131,14.321 18.131,14.01 Q18.131,13.699 18.351,13.48 Q18.57,13.26 18.881,13.26 Q19.192,13.26 19.411,13.48 L20.451,14.52 Q20.671,14.739 20.671,15.05 Q20.671,15.361 20.451,15.58 Q20.232,15.8 19.921,15.8 Q19.61,15.8 19.391,15.58 Z"/>
</svg>

