<svg xmlns="http://www.w3.org/2000/svg" width="24" height="24" viewBox="0 0 24 24">
  <defs/>
  <path fill="#292D32" d="M14.96,5.4 L21.03,11.47 Q21.25,11.69 21.25,12 Q21.25,12.311 21.03,12.531 L14.96,18.601 Q14.74,18.82 14.43,18.82 Q14.119,18.82 13.899,18.601 Q13.68,18.381 13.68,18.07 Q13.68,17.76 13.899,17.54 L19.439,12 L13.899,6.461 Q13.68,6.241 13.68,5.93 Q13.68,5.62 13.899,5.4 Q14.119,5.18 14.43,5.18 Q14.74,5.18 14.96,5.4 Z"/>
  <path fill="#292D32" opacity="0.4" d="M3.5,11.25 L20.33,11.25 Q20.641,11.25 20.86,11.47 Q21.08,11.689 21.08,12 Q21.08,12.311 20.86,12.53 Q20.641,12.75 20.33,12.75 L3.5,12.75 Q3.189,12.75 2.97,12.53 Q2.75,12.311 2.75,12 Q2.75,11.689 2.97,11.47 Q3.189,11.25 3.5,11.25 Z"/>
</svg>

