<svg xmlns="http://www.w3.org/2000/svg" width="24" height="24" viewBox="0 0 24 24">
  <defs/>
  <path fill="#292D32" d="M9.92,7.25 L6.73,4.061 L3.54,7.25 Q3.321,7.47 3.01,7.47 Q2.699,7.47 2.48,7.25 Q2.26,7.031 2.26,6.72 Q2.26,6.409 2.48,6.19 L6.2,2.47 Q6.419,2.25 6.73,2.25 Q7.041,2.25 7.26,2.47 L10.98,6.19 Q11.2,6.409 11.2,6.72 Q11.2,7.031 10.98,7.25 Q10.761,7.47 10.45,7.47 Q10.139,7.47 9.92,7.25 Z"/>
  <path fill="#292D32" d="M5.98,21 L5.98,3 Q5.98,2.689 6.2,2.47 Q6.419,2.25 6.73,2.25 Q7.041,2.25 7.26,2.47 Q7.48,2.689 7.48,3 L7.48,21 Q7.48,21.311 7.26,21.53 Q7.041,21.75 6.73,21.75 Q6.419,21.75 6.2,21.53 Q5.98,21.311 5.98,21 Z"/>
  <path fill="#292D32" d="M14.08,16.75 L17.27,19.939 L20.46,16.75 Q20.679,16.53 20.99,16.53 Q21.301,16.53 21.52,16.75 Q21.74,16.969 21.74,17.28 Q21.74,17.591 21.52,17.81 L17.8,21.53 Q17.581,21.75 17.27,21.75 Q16.959,21.75 16.74,21.53 L13.02,17.81 Q12.8,17.591 12.8,17.28 Q12.8,16.969 13.02,16.75 Q13.239,16.53 13.55,16.53 Q13.861,16.53 14.08,16.75 Z"/>
  <path fill="#292D32" d="M18.02,3 L18.02,21 Q18.02,21.311 17.8,21.53 Q17.581,21.75 17.27,21.75 Q16.959,21.75 16.74,21.53 Q16.52,21.311 16.52,21 L16.52,3 Q16.52,2.689 16.74,2.47 Q16.959,2.25 17.27,2.25 Q17.581,2.25 17.8,2.47 Q18.02,2.689 18.02,3 Z"/>
</svg>

