<svg xmlns="http://www.w3.org/2000/svg" width="24" height="24" viewBox="0 0 24 24">
  <defs/>
  <path fill="#292D32" d="M16.19,2 L7.81,2 C4.17,2 2,4.17 2,7.81 L2,16.18 C2,19.83 4.17,22 7.81,22 L16.18,22 C19.82,22 21.99,19.83 21.99,16.19 L21.99,7.81 C22,4.17 19.83,2 16.19,2 Z M19.35,8.84 C19.31,8.93 19.26,9.01 19.19,9.08 L17.39,10.88 C17.24,11.03 17.05,11.1 16.86,11.1 C16.67,11.1 16.48,11.03 16.33,10.88 C16.04,10.59 16.04,10.11 16.33,9.82 L16.85,9.3 L16.7,9.3 C14.6,9.3 12.88,11.01 12.88,13.11 L12.88,15.07 L12.88,17.24 C12.88,17.65 12.54,17.99 12.13,17.99 C11.72,17.99 11.38,17.65 11.38,17.24 L11.38,15.07 L11.38,13.11 C11.38,11.01 9.67,9.3 7.57,9.3 L7.15,9.3 L7.67,9.82 C7.96,10.11 7.96,10.59 7.67,10.88 C7.52,11.03 7.33,11.1 7.14,11.1 C6.95,11.1 6.76,11.03 6.61,10.88 L4.81,9.08 C4.52,8.79 4.52,8.31 4.81,8.02 L6.61,6.22 C6.9,5.93 7.38,5.93 7.67,6.22 C7.96,6.51 7.96,6.99 7.67,7.28 L7.15,7.8 L7.58,7.8 C9.53,7.8 11.22,8.87 12.14,10.44 C13.06,8.87 14.75,7.8 16.71,7.8 L16.86,7.8 L16.34,7.28 C16.05,6.99 16.05,6.51 16.34,6.22 C16.63,5.93 17.11,5.93 17.4,6.22 L19.2,8.02 C19.27,8.09 19.32,8.17 19.36,8.26 C19.43,8.45 19.43,8.66 19.35,8.84 Z"/>
</svg>

