<svg xmlns="http://www.w3.org/2000/svg" width="24" height="24" viewBox="0 0 24 24">
  <defs/>
  <path fill="#292D32" d="M16.19,2 L7.81,2 C4.17,2 2,4.17 2,7.81 L2,16.18 C2,19.83 4.17,22 7.81,22 L16.18,22 C19.82,22 21.99,19.83 21.99,16.19 L21.99,7.81 C22,4.17 19.83,2 16.19,2 Z M13.79,15 C14.08,15.29 14.08,15.77 13.79,16.06 C13.64,16.21 13.45,16.28 13.26,16.28 C13.07,16.28 12.88,16.21 12.73,16.06 L9.2,12.53 C8.91,12.24 8.91,11.76 9.2,11.47 L12.73,7.94 C13.02,7.65 13.5,7.65 13.79,7.94 C14.08,8.23 14.08,8.71 13.79,9 L10.79,12 L13.79,15 Z"/>
</svg>

