<svg xmlns="http://www.w3.org/2000/svg" width="24" height="24" viewBox="0 0 24 24">
  <defs/>
  <path fill="#292D32" opacity="0.4" d="M21.75,6.73 C21.75,6.53 21.67,6.34 21.53,6.2 L17.81,2.48 C17.52,2.19 17.04,2.19 16.75,2.48 C16.46,2.77 16.46,3.25 16.75,3.54 L19.2,5.99 L3,5.99 C2.59,5.99 2.25,6.33 2.25,6.74 C2.25,7.15 2.59,7.49 3,7.49 L19.19,7.49 L16.75,9.93 C16.46,10.22 16.46,10.7 16.75,10.99 C16.9,11.14 17.09,11.21 17.28,11.21 C17.47,11.21 17.66,11.14 17.81,10.99 L21.52,7.28 C21.59,7.21 21.65,7.12 21.69,7.02 C21.69,7.01 21.69,7 21.7,6.99 C21.73,6.9 21.75,6.82 21.75,6.73 Z"/>
  <path fill="#292D32" d="M21,16.52 L4.81,16.52 L7.25,14.08 C7.54,13.79 7.54,13.31 7.25,13.02 C6.96,12.73 6.48,12.73 6.19,13.02 L2.48,16.73 C2.41,16.8 2.35,16.89 2.31,16.99 C2.31,17 2.31,17.01 2.3,17.02 C2.27,17.1 2.25,17.19 2.25,17.28 C2.25,17.48 2.33,17.67 2.47,17.81 L6.19,21.53 C6.34,21.68 6.53,21.75 6.72,21.75 C6.91,21.75 7.1,21.68 7.25,21.53 C7.54,21.24 7.54,20.76 7.25,20.47 L4.8,18.02 L21,18.02 C21.41,18.02 21.75,17.68 21.75,17.27 C21.75,16.86 21.41,16.52 21,16.52 Z"/>
</svg>

