<svg xmlns="http://www.w3.org/2000/svg" width="24" height="24" viewBox="0 0 24 24">
  <defs/>
  <path fill="#292D32" d="M12,2 C6.48,2 2,6.48 2,12 C2,17.52 6.48,22 12,22 C17.52,22 22,17.52 22,12 C22,6.48 17.52,2 12,2 Z M16.03,12.53 L13.03,15.53 C12.88,15.68 12.69,15.75 12.5,15.75 C12.31,15.75 12.12,15.68 11.97,15.53 C11.68,15.24 11.68,14.76 11.97,14.47 L13.69,12.75 L8.5,12.75 C8.09,12.75 7.75,12.41 7.75,12 C7.75,11.59 8.09,11.25 8.5,11.25 L13.69,11.25 L11.97,9.53 C11.68,9.24 11.68,8.76 11.97,8.47 C12.26,8.18 12.74,8.18 13.03,8.47 L16.03,11.47 C16.32,11.76 16.32,12.24 16.03,12.53 Z"/>
</svg>

