<svg xmlns="http://www.w3.org/2000/svg" width="24" height="24" viewBox="0 0 24 24">
  <defs/>
  <path fill="#292D32" d="M2.75,12.99 L2.75,15 Q2.75,18.439 4.155,19.845 Q5.561,21.25 9,21.25 L15,21.25 Q18.439,21.25 19.845,19.845 Q21.25,18.439 21.25,15 L21.25,9 Q21.25,2.75 15,2.75 L9,2.75 Q2.75,2.75 2.75,9 Q2.75,9.311 2.53,9.53 Q2.311,9.75 2,9.75 Q1.689,9.75 1.47,9.53 Q1.25,9.311 1.25,9 Q1.25,1.25 9,1.25 L15,1.25 Q22.75,1.25 22.75,9 L22.75,15 Q22.75,22.75 15,22.75 L9,22.75 Q1.25,22.75 1.25,15 L1.25,12.99 Q1.25,12.679 1.47,12.46 Q1.689,12.24 2,12.24 Q2.311,12.24 2.53,12.46 Q2.75,12.679 2.75,12.99 Z"/>
  <path fill="#292D32" d="M9,10.109 L12.001,13.101 L15.001,10.109 Q15.221,9.889 15.532,9.89 Q15.842,9.89 16.062,10.11 Q16.281,10.33 16.281,10.641 Q16.28,10.952 16.06,11.171 L12.53,14.691 Q12.311,14.91 12.001,14.91 Q11.691,14.91 11.471,14.691 L7.941,11.171 Q7.721,10.952 7.721,10.641 Q7.72,10.33 7.94,10.11 Q8.159,9.89 8.47,9.89 Q8.78,9.889 9,10.109 Z"/>
</svg>

