<svg xmlns="http://www.w3.org/2000/svg" width="24" height="24" viewBox="0 0 24 24">
  <defs/>
  <path fill="#292D32" opacity="0.4" d="M12,22 C17.523,22 22,17.523 22,12 C22,6.477 17.523,2 12,2 C6.477,2 2,6.477 2,12 C2,17.523 6.477,22 12,22 Z"/>
  <path fill="#292D32" d="M15.499,11.25 L10.309,11.25 L12.03,9.53 C12.319,9.24 12.319,8.76 12.03,8.47 C11.739,8.18 11.259,8.18 10.97,8.47 L7.969,11.47 C7.679,11.76 7.679,12.24 7.969,12.53 L10.97,15.53 C11.12,15.68 11.309,15.75 11.499,15.75 C11.69,15.75 11.88,15.68 12.03,15.53 C12.319,15.24 12.319,14.76 12.03,14.47 L10.309,12.75 L15.499,12.75 C15.909,12.75 16.25,12.41 16.25,12 C16.25,11.59 15.909,11.25 15.499,11.25 Z"/>
</svg>

