<svg xmlns="http://www.w3.org/2000/svg" width="24" height="24" viewBox="0 0 24 24">
  <defs/>
  <g opacity="0.4">
    <path fill="#292D32" d="M9.919,7.25 L6.73,4.061 L3.54,7.25 Q3.32,7.47 3.01,7.47 Q2.699,7.47 2.479,7.25 Q2.26,7.031 2.26,6.72 Q2.26,6.409 2.479,6.19 L6.199,2.47 Q6.419,2.25 6.73,2.25 Q7.04,2.25 7.26,2.47 L10.98,6.19 Q11.2,6.409 11.2,6.72 Q11.2,7.031 10.98,7.25 Q10.76,7.47 10.45,7.47 Q10.139,7.47 9.919,7.25 Z"/>
    <path fill="#292D32" d="M5.98,21 L5.98,3 Q5.98,2.689 6.2,2.47 Q6.42,2.25 6.73,2.25 Q7.041,2.25 7.261,2.47 Q7.48,2.689 7.48,3 L7.48,21 Q7.48,21.311 7.261,21.53 Q7.041,21.75 6.73,21.75 Q6.42,21.75 6.2,21.53 Q5.98,21.311 5.98,21 Z"/>
  </g>
  <path fill="#292D32" d="M14.081,16.75 L17.271,19.94 L20.46,16.75 Q20.68,16.53 20.991,16.53 Q21.301,16.53 21.521,16.75 Q21.741,16.97 21.741,17.28 Q21.741,17.591 21.521,17.811 L17.801,21.531 Q17.581,21.75 17.271,21.75 Q16.96,21.75 16.74,21.531 L13.02,17.811 Q12.801,17.591 12.801,17.28 Q12.801,16.97 13.02,16.75 Q13.24,16.53 13.551,16.53 Q13.861,16.53 14.081,16.75 Z"/>
  <path fill="#292D32" d="M18.02,3 L18.02,21 Q18.019,21.311 17.8,21.53 Q17.58,21.75 17.27,21.75 Q16.959,21.75 16.739,21.53 Q16.52,21.311 16.52,21 L16.52,3 Q16.52,2.689 16.739,2.47 Q16.959,2.25 17.27,2.25 Q17.58,2.25 17.8,2.47 Q18.019,2.689 18.02,3 Z"/>
</svg>

