<svg xmlns="http://www.w3.org/2000/svg" width="24" height="24" viewBox="0 0 24 24">
  <defs/>
  <path fill="#292D32" opacity="0.4" d="M7.81,2 L16.18,2 C19.83,2 22,4.17 22,7.81 L22,16.18 C22,19.82 19.83,21.99 16.19,21.99 L7.81,21.99 C4.17,22 2,19.83 2,16.19 L2,7.81 C2,4.17 4.17,2 7.81,2 Z"/>
  <path fill="#292D32" d="M17.69,13.48 C17.61,13.3 17.47,13.15 17.28,13.07 C17.19,13.03 17.09,13.01 16.99,13.01 L7,13.01 C6.59,13.01 6.25,13.35 6.25,13.76 C6.25,14.17 6.59,14.51 7,14.51 L15.19,14.51 L13.52,16.18 C13.23,16.47 13.23,16.95 13.52,17.24 C13.67,17.39 13.86,17.46 14.05,17.46 C14.24,17.46 14.43,17.39 14.58,17.24 L17.53,14.29 C17.6,14.22 17.65,14.14 17.69,14.05 C17.77,13.86 17.77,13.66 17.69,13.48 Z"/>
  <path fill="#292D32" d="M6.31,10.52 C6.39,10.7 6.53,10.85 6.72,10.93 C6.81,10.97 6.9,10.99 7,10.99 L17,10.99 C17.41,10.99 17.75,10.65 17.75,10.24 C17.75,9.83 17.41,9.49 17,9.49 L8.81,9.49 L10.48,7.82 C10.77,7.53 10.77,7.05 10.48,6.76 C10.19,6.47 9.71,6.47 9.42,6.76 L6.47,9.71 C6.4,9.78 6.35,9.86 6.31,9.95 C6.23,10.14 6.23,10.34 6.31,10.52 Z"/>
</svg>

