<svg xmlns="http://www.w3.org/2000/svg" width="24" height="24" viewBox="0 0 24 24">
  <defs/>
  <path fill="#292D32" d="M2.969,8.48 L7.979,3.46 Q8.199,3.24 8.509,3.24 Q8.82,3.24 9.04,3.459 Q9.26,3.679 9.26,3.989 Q9.26,4.3 9.041,4.52 L4.031,9.54 Q3.811,9.76 3.501,9.76 Q3.19,9.76 2.97,9.541 Q2.75,9.321 2.75,9.011 Q2.75,8.7 2.969,8.48 Z"/>
  <path fill="#292D32" d="M13.01,9.76 L6.01,9.76 L3.5,9.76 Q3.189,9.76 2.97,9.54 Q2.75,9.321 2.75,9.01 Q2.75,8.699 2.97,8.48 Q3.189,8.26 3.5,8.26 L6.01,8.26 L13.01,8.26 Q13.321,8.26 13.54,8.48 Q13.76,8.699 13.76,9.01 Q13.76,9.321 13.54,9.54 Q13.321,9.76 13.01,9.76 Z"/>
  <path fill="#292D32" d="M20.5,9.76 L17,9.76 Q16.689,9.76 16.47,9.54 Q16.25,9.321 16.25,9.01 Q16.25,8.699 16.47,8.48 Q16.689,8.26 17,8.26 L20.5,8.26 Q20.811,8.26 21.03,8.48 Q21.25,8.699 21.25,9.01 Q21.25,9.321 21.03,9.54 Q20.811,9.76 20.5,9.76 Z"/>
  <path fill="#292D32" d="M21.031,15.52 L16.021,20.54 Q15.802,20.76 15.491,20.76 Q15.18,20.76 14.96,20.541 Q14.741,20.321 14.74,20.011 Q14.74,19.7 14.959,19.48 L19.969,14.46 Q20.189,14.24 20.499,14.24 Q20.81,14.24 21.03,14.459 Q21.25,14.679 21.25,14.989 Q21.251,15.3 21.031,15.52 Z"/>
  <path fill="#292D32" d="M10.99,14.24 L20.5,14.24 Q20.811,14.24 21.031,14.46 Q21.25,14.679 21.25,14.99 Q21.25,15.301 21.031,15.52 Q20.811,15.74 20.5,15.74 L10.99,15.74 Q10.68,15.74 10.46,15.52 Q10.24,15.301 10.24,14.99 Q10.24,14.679 10.46,14.46 Q10.68,14.24 10.99,14.24 Z"/>
  <path fill="#292D32" d="M3.5,14.24 L7,14.24 Q7.311,14.24 7.53,14.46 Q7.75,14.679 7.75,14.99 Q7.75,15.301 7.53,15.52 Q7.311,15.74 7,15.74 L3.5,15.74 Q3.189,15.74 2.97,15.52 Q2.75,15.301 2.75,14.99 Q2.75,14.679 2.97,14.46 Q3.189,14.24 3.5,14.24 Z"/>
</svg>

