<svg xmlns="http://www.w3.org/2000/svg" width="24" height="24" viewBox="0 0 24 24">
  <defs/>
  <path fill="#292D32" d="M14.67,5.25 Q17.587,5.25 18.689,7.159 Q19.791,9.069 18.33,11.596 L16.989,13.906 L15.649,16.216 Q14.188,18.743 11.986,18.743 Q9.783,18.743 8.321,16.216 L6.982,13.906 L5.642,11.596 Q4.202,9.061 5.305,7.158 Q6.412,5.25 9.331,5.25 L14.67,5.25 Z M9.331,6.75 Q7.276,6.75 6.603,7.91 Q5.931,9.069 6.939,10.844 L8.279,13.154 L9.62,15.464 Q10.648,17.243 11.986,17.243 Q13.323,17.243 14.352,15.464 L15.692,13.154 L17.031,10.844 Q18.059,9.068 17.39,7.909 Q16.721,6.75 14.67,6.75 L9.331,6.75 Z"/>
</svg>

