<svg xmlns="http://www.w3.org/2000/svg" width="24" height="24" viewBox="0 0 24 24">
  <defs/>
  <path fill="#292D32" d="M11.72,8.47 L9.1,11.09 Q8.23,11.96 9.1,12.83 L15.62,19.35 Q15.84,19.569 15.84,19.88 Q15.84,20.191 15.62,20.41 Q15.4,20.63 15.09,20.63 Q14.779,20.63 14.559,20.41 L8.039,13.89 Q6.109,11.96 8.039,10.03 L10.659,7.41 Q10.879,7.19 11.19,7.19 Q11.5,7.19 11.72,7.41 Q11.94,7.629 11.94,7.94 Q11.94,8.251 11.72,8.47 Z"/>
  <path fill="#292D32" d="M15.621,4.57 L14.581,5.61 Q14.361,5.83 14.051,5.83 Q13.74,5.83 13.52,5.61 Q13.301,5.391 13.301,5.08 Q13.301,4.769 13.52,4.55 L14.56,3.51 Q14.78,3.29 15.091,3.29 Q15.401,3.29 15.621,3.51 Q15.841,3.729 15.841,4.04 Q15.841,4.351 15.621,4.57 Z"/>
</svg>

