<svg xmlns="http://www.w3.org/2000/svg" width="24" height="24" viewBox="0 0 24 24">
  <defs/>
  <path fill="#292D32" d="M16.75,9.92 L19.939,6.73 L16.75,3.54 Q16.53,3.321 16.53,3.01 Q16.53,2.699 16.75,2.48 Q16.969,2.26 17.28,2.26 Q17.591,2.26 17.81,2.48 L21.53,6.2 Q21.75,6.419 21.75,6.73 Q21.75,7.041 21.53,7.26 L17.81,10.98 Q17.591,11.2 17.28,11.2 Q16.969,11.2 16.75,10.98 Q16.53,10.761 16.53,10.45 Q16.53,10.139 16.75,9.92 Z"/>
  <path fill="#292D32" d="M3,5.98 L21,5.98 Q21.311,5.98 21.53,6.2 Q21.75,6.419 21.75,6.73 Q21.75,7.041 21.53,7.26 Q21.311,7.48 21,7.48 L3,7.48 Q2.689,7.48 2.47,7.26 Q2.25,7.041 2.25,6.73 Q2.25,6.419 2.47,6.2 Q2.689,5.98 3,5.98 Z"/>
  <path fill="#292D32" d="M7.25,14.08 L4.061,17.27 L7.25,20.46 Q7.47,20.679 7.47,20.99 Q7.47,21.301 7.25,21.52 Q7.031,21.74 6.72,21.74 Q6.409,21.74 6.19,21.52 L2.47,17.8 Q2.25,17.581 2.25,17.27 Q2.25,16.959 2.47,16.74 L6.19,13.02 Q6.409,12.8 6.72,12.8 Q7.031,12.8 7.25,13.02 Q7.47,13.239 7.47,13.55 Q7.47,13.861 7.25,14.08 Z"/>
  <path fill="#292D32" d="M21,18.02 L3,18.02 Q2.689,18.02 2.47,17.8 Q2.25,17.581 2.25,17.27 Q2.25,16.959 2.47,16.74 Q2.689,16.52 3,16.52 L21,16.52 Q21.311,16.52 21.53,16.74 Q21.75,16.959 21.75,17.27 Q21.75,17.581 21.53,17.8 Q21.311,18.02 21,18.02 Z"/>
</svg>

