<svg xmlns="http://www.w3.org/2000/svg" width="24" height="24" viewBox="0 0 24 24">
  <defs/>
  <path fill="#292D32" d="M9.569,18.82 C9.379,18.82 9.189,18.75 9.039,18.6 L2.969,12.53 C2.679,12.24 2.679,11.76 2.969,11.47 L9.039,5.4 C9.329,5.11 9.809,5.11 10.1,5.4 C10.389,5.69 10.389,6.17 10.1,6.46 L4.559,12 L10.1,17.54 C10.389,17.83 10.389,18.31 10.1,18.6 C9.959,18.75 9.759,18.82 9.569,18.82 Z"/>
  <path fill="#292D32" d="M20.5,12.75 L3.67,12.75 C3.26,12.75 2.92,12.41 2.92,12 C2.92,11.59 3.26,11.25 3.67,11.25 L20.5,11.25 C20.91,11.25 21.25,11.59 21.25,12 C21.25,12.41 20.91,12.75 20.5,12.75 Z"/>
</svg>

