<svg xmlns="http://www.w3.org/2000/svg" width="24" height="24" viewBox="0 0 24 24">
  <defs/>
  <path fill="#292D32" opacity="0.4" d="M16.19,2 L7.82,2 C4.18,2 2.01,4.17 2.01,7.81 L2.01,16.18 C2.01,19.82 4.18,21.99 7.82,21.99 L16.19,21.99 C19.83,21.99 22,19.82 22,16.18 L22,7.81 C22,4.17 19.83,2 16.19,2 Z"/>
  <path fill="#292D32" d="M19.349,8.27 C19.309,8.18 19.259,8.1 19.189,8.03 L17.39,6.23 C17.1,5.94 16.62,5.94 16.33,6.23 C16.04,6.52 16.04,7 16.33,7.29 L16.849,7.81 L16.7,7.81 C14.75,7.81 13.059,8.88 12.13,10.45 C11.21,8.88 9.52,7.81 7.57,7.81 L7.14,7.81 L7.66,7.29 C7.95,7 7.95,6.52 7.66,6.23 C7.37,5.94 6.89,5.94 6.6,6.23 L4.8,8.03 C4.51,8.32 4.51,8.8 4.8,9.09 L6.6,10.89 C6.75,11.04 6.94,11.11 7.13,11.11 C7.32,11.11 7.51,11.04 7.66,10.89 C7.95,10.6 7.95,10.12 7.66,9.83 L7.14,9.31 L7.56,9.31 C9.66,9.31 11.37,11.02 11.37,13.12 L11.37,15.08 L11.37,17.25 C11.37,17.66 11.71,18 12.12,18 C12.53,18 12.87,17.66 12.87,17.25 L12.87,15.08 L12.87,13.12 C12.87,11.02 14.579,9.31 16.689,9.31 L16.84,9.31 L16.32,9.83 C16.03,10.12 16.03,10.6 16.32,10.89 C16.47,11.04 16.66,11.11 16.849,11.11 C17.04,11.11 17.23,11.04 17.38,10.89 L19.18,9.09 C19.25,9.02 19.3,8.94 19.34,8.85 C19.43,8.66 19.43,8.45 19.349,8.27 Z"/>
</svg>

