<svg xmlns="http://www.w3.org/2000/svg" width="24" height="24" viewBox="0 0 24 24">
  <defs/>
  <path fill="#292D32" opacity="0.4" d="M16.19,2 L7.81,2 C4.17,2 2,4.17 2,7.81 L2,16.18 C2,19.83 4.17,22 7.81,22 L16.18,22 C19.82,22 21.99,19.83 21.99,16.19 L21.99,7.81 C22,4.17 19.83,2 16.19,2 Z"/>
  <path fill="#292D32" d="M12,14.91 C11.81,14.91 11.62,14.84 11.47,14.69 L7.94,11.16 C7.65,10.87 7.65,10.39 7.94,10.1 C8.23,9.81 8.71,9.81 9,10.1 L12,13.1 L15,10.1 C15.29,9.81 15.77,9.81 16.06,10.1 C16.35,10.39 16.35,10.87 16.06,11.16 L12.53,14.69 C12.38,14.84 12.19,14.91 12,14.91 Z"/>
</svg>

