<svg xmlns="http://www.w3.org/2000/svg" width="24" height="24" viewBox="0 0 24 24">
  <defs/>
  <path fill="#292D32" opacity="0.4" d="M2,16.19 L2,7.81 C2,4.17 4.17,2 7.81,2 L16.18,2 C19.83,2 22,4.17 22,7.81 L22,16.18 C22,19.82 19.83,21.99 16.19,21.99 L7.81,21.99 C4.17,22 2,19.83 2,16.19 Z"/>
  <path fill="#292D32" d="M11.47,18.53 L7.18,14.24 C6.89,13.95 6.89,13.47 7.18,13.18 C7.47,12.89 7.95,12.89 8.24,13.18 L11.25,16.19 L11.25,6 C11.25,5.59 11.59,5.25 12,5.25 C12.41,5.25 12.75,5.59 12.75,6 L12.75,16.19 L15.76,13.18 C16.05,12.89 16.53,12.89 16.82,13.18 C16.97,13.33 17.04,13.52 17.04,13.71 C17.04,13.9 16.97,14.09 16.82,14.24 L12.53,18.53 C12.39,18.67 12.2,18.75 12,18.75 C11.8,18.75 11.61,18.67 11.47,18.53 Z"/>
</svg>

