<svg xmlns="http://www.w3.org/2000/svg" width="24" height="24" viewBox="0 0 24 24">
  <defs/>
  <path fill="#292D32" d="M9,22.75 Q1.25,22.75 1.25,15 L1.25,9 Q1.25,1.25 9,1.25 L15,1.25 Q22.75,1.25 22.75,9 L22.75,15 Q22.75,22.75 15,22.75 Z M9,21.25 L15,21.25 Q18.439,21.25 19.845,19.845 Q21.25,18.439 21.25,15 L21.25,9 Q21.25,2.75 15,2.75 L9,2.75 Q2.75,2.75 2.75,9 L2.75,15 Q2.75,18.439 4.155,19.845 Q5.561,21.25 9,21.25 Z"/>
  <path fill="#292D32" opacity="0.4" d="M12.729,16.06 L9.209,12.53 Q8.99,12.31 8.99,12 Q8.99,11.69 9.209,11.471 L12.729,7.941 Q12.948,7.721 13.259,7.72 Q13.57,7.72 13.79,7.939 Q14.01,8.158 14.01,8.469 Q14.011,8.78 13.791,9 L10.799,12 L13.791,15.001 Q14.011,15.221 14.01,15.531 Q14.01,15.842 13.79,16.061 Q13.57,16.281 13.259,16.28 Q12.948,16.28 12.729,16.06 Z"/>
</svg>

