<svg xmlns="http://www.w3.org/2000/svg" width="24" height="24" viewBox="0 0 24 24">
  <defs/>
  <path fill="#292D32" d="M18.339,12.405 Q19.8,14.932 18.698,16.841 Q17.596,18.75 14.68,18.75 L9.33,18.75 Q6.413,18.75 5.311,16.841 Q4.209,14.931 5.67,12.405 L7.011,10.094 L8.351,7.784 Q9.812,5.258 12.015,5.258 Q14.217,5.258 15.679,7.785 Q15.834,8.053 15.754,8.354 Q15.674,8.654 15.405,8.809 Q15.136,8.965 14.836,8.885 Q14.536,8.804 14.38,8.536 Q13.352,6.758 12.015,6.758 Q10.677,6.758 9.648,8.536 L8.308,10.846 L6.969,13.156 Q5.941,14.932 6.61,16.091 Q7.279,17.25 9.33,17.25 L14.68,17.25 Q16.73,17.25 17.399,16.091 Q18.068,14.932 17.04,13.156 Q16.885,12.887 16.965,12.587 Q17.045,12.286 17.314,12.131 Q17.583,11.975 17.883,12.056 Q18.183,12.136 18.339,12.405 Z"/>
</svg>

