<svg xmlns="http://www.w3.org/2000/svg" width="24" height="24" viewBox="0 0 24 24">
  <defs/>
  <path fill="#292D32" d="M5.659,11.594 Q4.205,9.065 5.306,7.159 Q6.408,5.25 9.329,5.25 L14.669,5.25 Q17.586,5.25 18.687,7.159 Q19.79,9.069 18.328,11.596 L16.988,13.906 L15.648,16.216 Q14.187,18.743 11.984,18.743 Q9.782,18.743 8.32,16.216 Q8.164,15.947 8.245,15.646 Q8.325,15.346 8.594,15.191 Q8.863,15.035 9.163,15.115 Q9.463,15.196 9.618,15.464 Q10.647,17.243 11.984,17.243 Q13.322,17.243 14.35,15.464 L15.69,13.154 L17.03,10.844 Q18.058,9.068 17.388,7.909 Q16.72,6.75 14.669,6.75 L9.329,6.75 Q7.274,6.75 6.605,7.909 Q5.936,9.067 6.959,10.846 Q7.114,11.116 7.033,11.415 Q6.952,11.715 6.683,11.87 Q6.414,12.025 6.114,11.944 Q5.814,11.863 5.659,11.594 Z"/>
</svg>

