<svg xmlns="http://www.w3.org/2000/svg" width="24" height="24" viewBox="0 0 24 24">
  <defs/>
  <path fill="#292D32" d="M18.75,14.67 Q18.75,17.586 16.841,18.688 Q14.931,19.791 12.404,18.329 L10.094,16.989 L7.784,15.649 Q5.257,14.188 5.257,11.985 Q5.257,9.782 7.784,8.321 L10.094,6.981 L12.404,5.641 Q14.939,4.201 16.842,5.305 Q18.75,6.411 18.75,9.33 L18.75,14.67 Z M17.25,9.33 Q17.25,7.275 16.09,6.603 Q14.931,5.931 13.156,6.939 L10.846,8.279 L8.535,9.619 Q6.757,10.648 6.757,11.985 Q6.757,13.322 8.536,14.351 L10.846,15.691 L13.155,17.031 Q14.932,18.058 16.091,17.389 Q17.25,16.72 17.25,14.67 L17.25,9.33 Z"/>
</svg>

