<svg xmlns="http://www.w3.org/2000/svg" width="24" height="24" viewBox="0 0 24 24">
  <defs/>
  <path fill="#292D32" d="M2.75,13.02 L2.75,15 Q2.75,18.439 4.155,19.845 Q5.561,21.25 9,21.25 L15,21.25 Q18.439,21.25 19.845,19.845 Q21.25,18.439 21.25,15 L21.25,9 Q21.25,2.75 15,2.75 L9,2.75 Q2.75,2.75 2.75,9 Q2.75,9.311 2.53,9.53 Q2.311,9.75 2,9.75 Q1.689,9.75 1.47,9.53 Q1.25,9.311 1.25,9 Q1.25,1.25 9,1.25 L15,1.25 Q22.75,1.25 22.75,9 L22.75,15 Q22.75,22.75 15,22.75 L9,22.75 Q1.25,22.75 1.25,15 L1.25,13.02 Q1.25,12.709 1.47,12.49 Q1.689,12.27 2,12.27 Q2.311,12.27 2.53,12.49 Q2.75,12.709 2.75,13.02 Z"/>
  <path fill="#292D32" d="M12.731,12.33 L11.321,13.74 Q10.956,14.106 10.956,14.625 Q10.956,15.144 11.321,15.51 Q12.206,16.394 13.09,15.51 L15.311,13.29 Q17.603,10.997 15.309,8.689 Q13.018,6.398 10.709,8.692 L8.291,11.11 Q7.506,11.896 7.506,13.005 Q7.506,14.114 8.291,14.9 Q8.511,15.119 8.511,15.43 Q8.511,15.741 8.291,15.96 Q8.072,16.18 7.761,16.18 Q7.45,16.18 7.231,15.96 Q6.006,14.736 6.006,13.005 Q6.006,11.274 7.231,10.05 L9.652,7.628 Q11.049,6.24 13.015,6.24 Q14.982,6.24 16.373,7.631 Q17.761,9.028 17.761,10.994 Q17.761,12.961 16.371,14.35 L14.151,16.57 Q12.206,18.516 10.26,16.57 Q8.315,14.625 10.26,12.68 L11.671,11.27 Q11.89,11.05 12.201,11.05 Q12.512,11.05 12.731,11.27 Q12.951,11.489 12.951,11.8 Q12.951,12.111 12.731,12.33 Z"/>
</svg>

