<svg xmlns="http://www.w3.org/2000/svg" width="24" height="24" viewBox="0 0 24 24">
  <defs/>
  <path fill="#292D32" opacity="0.4" d="M12.731,12.331 L11.321,13.741 Q10.436,14.625 11.321,15.51 Q12.206,16.395 13.09,15.51 L15.311,13.29 Q17.603,10.998 15.309,8.689 Q13.018,6.398 10.709,8.692 L8.291,11.111 Q7.506,11.896 7.506,13.005 Q7.506,14.115 8.291,14.9 Q8.511,15.12 8.511,15.43 Q8.511,15.741 8.291,15.961 Q8.072,16.18 7.761,16.18 Q7.45,16.18 7.231,15.961 Q6.006,14.736 6.006,13.005 Q6.006,11.275 7.231,10.05 L9.652,7.628 Q11.049,6.24 13.015,6.24 Q14.982,6.24 16.373,7.632 Q17.761,9.028 17.761,10.994 Q17.761,12.961 16.371,14.351 L14.151,16.571 Q13.346,17.375 12.206,17.375 Q11.065,17.375 10.26,16.571 Q8.315,14.625 10.26,12.68 L11.671,11.27 Q11.89,11.05 12.201,11.05 Q12.512,11.05 12.731,11.27 Q12.951,11.49 12.951,11.8 Q12.951,12.111 12.731,12.331 Z"/>
  <path fill="#292D32" d="M9,22.75 Q1.25,22.75 1.25,15 L1.25,9 Q1.25,1.25 9,1.25 L15,1.25 Q22.75,1.25 22.75,9 L22.75,15 Q22.75,22.75 15,22.75 Z M9,21.25 L15,21.25 Q18.439,21.25 19.845,19.845 Q21.25,18.439 21.25,15 L21.25,9 Q21.25,2.75 15,2.75 L9,2.75 Q2.75,2.75 2.75,9 L2.75,15 Q2.75,18.439 4.155,19.845 Q5.561,21.25 9,21.25 Z"/>
</svg>

