<svg xmlns="http://www.w3.org/2000/svg" width="24" height="24" viewBox="0 0 24 24">
  <defs/>
  <path fill="#292D32" d="M12.731,12.33 L11.321,13.74 Q10.956,14.106 10.956,14.625 Q10.956,15.144 11.321,15.51 Q12.206,16.394 13.09,15.51 L15.311,13.29 Q17.603,10.997 15.309,8.689 Q13.018,6.398 10.709,8.692 L8.291,11.11 Q7.506,11.896 7.506,13.005 Q7.506,14.114 8.291,14.9 Q8.511,15.119 8.511,15.43 Q8.511,15.741 8.291,15.96 Q8.072,16.18 7.761,16.18 Q7.45,16.18 7.231,15.96 Q6.006,14.736 6.006,13.005 Q6.006,11.274 7.231,10.05 L9.652,7.628 Q11.049,6.24 13.015,6.24 Q14.982,6.24 16.373,7.631 Q17.761,9.028 17.761,10.994 Q17.761,12.961 16.371,14.35 L14.151,16.57 Q12.206,18.516 10.26,16.57 Q8.315,14.625 10.26,12.68 L11.671,11.27 Q11.89,11.05 12.201,11.05 Q12.512,11.05 12.731,11.27 Q12.951,11.489 12.951,11.8 Q12.951,12.111 12.731,12.33 Z"/>
  <path fill="#292D32" d="M4.6,6.449 Q2.75,8.922 2.75,12 Q2.75,15.829 5.46,18.54 Q8.171,21.25 12,21.25 Q15.829,21.25 18.54,18.54 Q21.25,15.829 21.25,12 Q21.25,8.171 18.54,5.46 Q15.829,2.75 12,2.75 Q10.031,2.75 8.276,3.535 Q7.993,3.661 7.702,3.551 Q7.412,3.44 7.285,3.156 Q7.158,2.873 7.269,2.582 Q7.38,2.292 7.664,2.165 Q9.711,1.25 12,1.25 Q16.451,1.25 19.6,4.4 Q22.75,7.549 22.75,12 Q22.75,16.451 19.6,19.6 Q16.451,22.75 12,22.75 Q7.549,22.75 4.4,19.6 Q1.25,16.451 1.25,12 Q1.25,8.422 3.4,5.551 Q3.586,5.302 3.893,5.258 Q4.201,5.213 4.449,5.4 Q4.698,5.586 4.742,5.893 Q4.787,6.201 4.6,6.449 Z"/>
</svg>

