<svg xmlns="http://www.w3.org/2000/svg" width="24" height="24" viewBox="0 0 24 24">
  <defs/>
  <path fill="#292D32" d="M12.73,12.33 L11.32,13.74 Q10.436,14.625 11.32,15.51 Q12.205,16.394 13.09,15.51 L15.31,13.29 Q17.602,10.997 15.308,8.689 Q13.017,6.398 10.709,8.692 L8.29,11.11 Q7.505,11.896 7.505,13.005 Q7.505,14.114 8.29,14.9 Q8.51,15.119 8.51,15.43 Q8.51,15.741 8.29,15.96 Q8.071,16.18 7.76,16.18 Q7.449,16.18 7.23,15.96 Q6.005,14.736 6.005,13.005 Q6.005,11.274 7.23,10.05 L9.651,7.628 Q11.048,6.24 13.014,6.24 Q14.981,6.24 16.372,7.631 Q17.76,9.028 17.76,10.994 Q17.76,12.961 16.37,14.35 L14.15,16.57 Q12.205,18.516 10.26,16.57 Q8.314,14.625 10.26,12.68 L11.67,11.27 Q11.889,11.05 12.2,11.05 Q12.511,11.05 12.73,11.27 Q12.95,11.489 12.95,11.8 Q12.95,12.111 12.73,12.33 Z"/>
  <path fill="#292D32" d="M9,22.75 Q1.25,22.75 1.25,15 L1.25,9 Q1.25,1.25 9,1.25 L15,1.25 Q22.75,1.25 22.75,9 L22.75,15 Q22.75,22.75 15,22.75 Z M9,21.25 L15,21.25 Q18.439,21.25 19.845,19.845 Q21.25,18.439 21.25,15 L21.25,9 Q21.25,2.75 15,2.75 L9,2.75 Q2.75,2.75 2.75,9 L2.75,15 Q2.75,18.439 4.155,19.845 Q5.561,21.25 9,21.25 Z"/>
</svg>

