<svg xmlns="http://www.w3.org/2000/svg" width="24" height="24" viewBox="0 0 24 24">
  <defs/>
  <path fill="#292D32" opacity="0.4" d="M16.19,2 L7.82,2 C4.18,2 2.01,4.17 2.01,7.81 L2.01,16.18 C2.01,19.82 4.18,21.99 7.82,21.99 L16.19,21.99 C19.83,21.99 22,19.82 22,16.18 L22,7.81 C22,4.17 19.83,2 16.19,2 Z"/>
  <path fill="#292D32" d="M12.2,17.38 C11.5,17.38 10.79,17.11 10.26,16.58 C9.74,16.06 9.45,15.37 9.45,14.64 C9.45,13.91 9.74,13.21 10.26,12.7 L11.67,11.29 C11.96,11 12.44,11 12.73,11.29 C13.02,11.58 13.02,12.06 12.73,12.35 L11.32,13.76 C11.08,14 10.95,14.31 10.95,14.64 C10.95,14.97 11.08,15.29 11.32,15.52 C11.81,16.01 12.6,16.01 13.09,15.52 L15.31,13.3 C16.58,12.03 16.58,9.97 15.31,8.7 C14.04,7.43 11.98,7.43 10.71,8.7 L8.29,11.12 C7.78,11.63 7.5,12.3 7.5,13.01 C7.5,13.72 7.78,14.4 8.29,14.9 C8.58,15.19 8.58,15.67 8.29,15.96 C8,16.25 7.52,16.25 7.23,15.96 C6.44,15.17 6.01,14.12 6.01,13 C6.01,11.88 6.44,10.83 7.23,10.04 L9.65,7.62 C11.5,5.77 14.52,5.77 16.37,7.62 C18.22,9.47 18.22,12.49 16.37,14.34 L14.15,16.56 C13.61,17.11 12.91,17.38 12.2,17.38 Z"/>
</svg>

