<svg xmlns="http://www.w3.org/2000/svg" width="24" height="24" viewBox="0 0 24 24">
  <defs/>
  <path fill="#292D32" d="M9.67,13.922 C8.93,13.922 8.34,14.522 8.34,15.262 C8.34,16.002 8.94,16.592 9.67,16.592 C10.41,16.592 11.01,15.992 11.01,15.262 C11.01,14.522 10.41,13.922 9.67,13.922 Z"/>
  <path fill="#292D32" d="M16.19,2 L7.81,2 C4.17,2 2,4.17 2,7.81 L2,16.18 C2,19.83 4.17,22 7.81,22 L16.18,22 C19.82,22 21.99,19.83 21.99,16.19 L21.99,7.81 C22,4.17 19.83,2 16.19,2 Z M17.12,9.8 C17.12,10.41 16.86,10.95 16.42,11.27 C16.14,11.47 15.8,11.58 15.44,11.58 C15.23,11.58 15.02,11.54 14.8,11.47 L12.51,10.71 C12.5,10.71 12.48,10.7 12.47,10.69 L12.47,15.25 C12.47,16.79 11.21,18.05 9.67,18.05 C8.13,18.05 6.87,16.79 6.87,15.25 C6.87,13.71 8.13,12.45 9.67,12.45 C10.16,12.45 10.61,12.59 11.01,12.8 L11.01,8.63 L11.01,8.02 C11.01,7.41 11.27,6.87 11.71,6.55 C12.16,6.23 12.75,6.15 13.33,6.35 L15.62,7.11 C16.48,7.4 17.13,8.3 17.13,9.2 L17.13,9.8 L17.12,9.8 Z"/>
</svg>

