<svg xmlns="http://www.w3.org/2000/svg" width="24" height="24" viewBox="0 0 24 24">
  <defs/>
  <path fill="#292D32" d="M15,22.75 L9,22.75 C3.57,22.75 1.25,20.43 1.25,15 L1.25,9 C1.25,3.57 3.57,1.25 9,1.25 L15,1.25 C20.43,1.25 22.75,3.57 22.75,9 L22.75,15 C22.75,20.43 20.43,22.75 15,22.75 Z M9,2.75 C4.39,2.75 2.75,4.39 2.75,9 L2.75,15 C2.75,19.61 4.39,21.25 9,21.25 L15,21.25 C19.61,21.25 21.25,19.61 21.25,15 L21.25,9 C21.25,4.39 19.61,2.75 15,2.75 L9,2.75 Z"/>
  <path fill="#292D32" d="M9.62,18.05 C8.04,18.05 6.75,16.76 6.75,15.18 C6.75,13.6 8.04,12.31 9.62,12.31 C11.2,12.31 12.49,13.6 12.49,15.18 C12.49,16.76 11.2,18.05 9.62,18.05 Z M9.62,13.82 C8.87,13.82 8.25,14.43 8.25,15.19 C8.25,15.94 8.86,16.56 9.62,16.56 C10.37,16.56 10.99,15.95 10.99,15.19 C10.99,14.43 10.37,13.82 9.62,13.82 Z"/>
  <path fill="#292D32" d="M11.74,15.93 C11.33,15.93 10.99,15.59 10.99,15.18 L10.99,7.77 C10.99,7.36 11.33,7.02 11.74,7.02 C12.15,7.02 12.49,7.36 12.49,7.77 L12.49,15.18 C12.49,15.6 12.15,15.93 11.74,15.93 Z"/>
  <path fill="#292D32" d="M15.52,11.43 C15.31,11.43 15.09,11.39 14.87,11.32 L12.53,10.54 C11.65,10.25 10.99,9.33 10.99,8.4 L10.99,7.78 C10.99,7.15 11.25,6.6 11.71,6.27 C12.17,5.94 12.77,5.86 13.37,6.06 L15.71,6.84 C16.59,7.13 17.25,8.05 17.25,8.98 L17.25,9.6 C17.25,10.23 16.99,10.78 16.53,11.11 C16.24,11.32 15.89,11.43 15.52,11.43 Z M12.71,7.45 C12.66,7.45 12.61,7.46 12.58,7.48 C12.52,7.52 12.48,7.63 12.48,7.77 L12.48,8.39 C12.48,8.67 12.74,9.02 13,9.11 L15.34,9.89 C15.47,9.93 15.59,9.93 15.65,9.89 C15.71,9.85 15.75,9.74 15.75,9.6 L15.75,8.98 C15.75,8.7 15.49,8.35 15.23,8.26 L12.89,7.48 C12.83,7.46 12.76,7.45 12.71,7.45 Z"/>
</svg>

