<svg xmlns="http://www.w3.org/2000/svg" width="24" height="24" viewBox="0 0 24 24">
  <defs/>
  <path fill="#292D32" opacity="0.4" d="M16.19,2 L7.82,2 C4.18,2 2.01,4.17 2.01,7.81 L2.01,16.18 C2.01,19.82 4.18,21.99 7.82,21.99 L16.19,21.99 C19.83,21.99 22,19.82 22,16.18 L22,7.81 C22,4.17 19.83,2 16.19,2 Z"/>
  <path fill="#292D32" d="M15.619,7.1 L13.329,6.34 C12.749,6.14 12.159,6.22 11.709,6.54 C11.259,6.86 11.009,7.4 11.009,8.01 L11.009,8.62 L11.009,12.8 C10.609,12.58 10.159,12.45 9.669,12.45 C8.129,12.45 6.869,13.71 6.869,15.25 C6.869,16.79 8.129,18.05 9.669,18.05 C11.209,18.05 12.469,16.79 12.469,15.25 L12.469,10.7 C12.479,10.71 12.499,10.71 12.509,10.72 L14.799,11.48 C15.009,11.55 15.229,11.59 15.439,11.59 C15.799,11.59 16.139,11.49 16.419,11.28 C16.869,10.96 17.119,10.42 17.119,9.81 L17.119,9.2 C17.119,8.29 16.479,7.39 15.619,7.1 Z M9.669,16.59 C8.929,16.59 8.339,15.99 8.339,15.26 C8.339,14.52 8.939,13.92 9.669,13.92 C10.409,13.92 11.009,14.52 11.009,15.26 C11.009,15.99 10.409,16.59 9.669,16.59 Z"/>
</svg>

