<svg xmlns="http://www.w3.org/2000/svg" width="24" height="24" viewBox="0 0 24 24">
  <defs/>
  <path fill="white" opacity="0.58" d="M24,0 L0,0 L0,24 L24,24 L24,0 Z"/>
  <path fill="#292D32" opacity="0.4" d="M12,22 C17.523,22 22,17.523 22,12 C22,6.477 17.523,2 12,2 C6.477,2 2,6.477 2,12 C2,17.523 6.477,22 12,22 Z"/>
  <path fill="#292D32" d="M15,11.75 C14.73,11.75 14.46,11.6 14.33,11.34 L12.04,6.75 L11.97,6.75 L9.68,11.34 C9.5,11.71 9.05,11.86 8.67,11.68 C8.3,11.49 8.15,11.04 8.33,10.67 L10.83,5.67 C10.96,5.42 11.22,5.26 11.5,5.26 L12.5,5.26 C12.78,5.26 13.04,5.42 13.17,5.67 L15.67,10.67 C15.86,11.04 15.71,11.49 15.33,11.68 C15.23,11.72 15.11,11.75 15,11.75 Z"/>
  <path fill="#292D32" d="M12.001,18.75 C11.871,18.75 11.731,18.71 11.611,18.64 L6.611,15.64 C6.271,15.44 6.151,15.01 6.321,14.66 L7.321,12.66 C7.511,12.29 7.961,12.14 8.331,12.32 C8.701,12.51 8.851,12.96 8.671,13.33 L7.981,14.71 L12.001,17.12 L16.021,14.71 L15.331,13.33 C15.141,12.96 15.291,12.51 15.671,12.32 C16.041,12.14 16.491,12.28 16.681,12.66 L17.681,14.66 C17.861,15.01 17.731,15.44 17.391,15.64 L12.391,18.64 C12.271,18.71 12.131,18.75 12.001,18.75 Z"/>
</svg>

