<svg xmlns="http://www.w3.org/2000/svg" width="24" height="24" viewBox="0 0 24 24">
  <defs/>
  <path d="M12,22.75 C6.07,22.75 1.25,17.93 1.25,12 C1.25,6.07 6.07,1.25 12,1.25 C17.93,1.25 22.75,6.07 22.75,12 C22.75,17.93 17.93,22.75 12,22.75 Z M12,2.75 C6.9,2.75 2.75,6.9 2.75,12 C2.75,17.1 6.9,21.25 12,21.25 C17.1,21.25 21.25,17.1 21.25,12 C21.25,6.9 17.1,2.75 12,2.75 Z"/>
  <path d="M15,11.75 C14.73,11.75 14.46,11.6 14.33,11.34 L12.04,6.75 L11.97,6.75 L9.68,11.34 C9.5,11.71 9.05,11.86 8.67,11.68 C8.3,11.49 8.15,11.04 8.33,10.67 L10.83,5.67 C10.96,5.42 11.22,5.26 11.5,5.26 L12.5,5.26 C12.78,5.26 13.04,5.42 13.17,5.67 L15.67,10.67 C15.86,11.04 15.71,11.49 15.33,11.68 C15.23,11.72 15.11,11.75 15,11.75 Z"/>
  <path d="M12,18.75 C11.87,18.75 11.73,18.71 11.61,18.64 L6.61,15.64 C6.27,15.44 6.15,15.01 6.32,14.66 L7.32,12.66 C7.51,12.29 7.96,12.14 8.33,12.32 C8.7,12.51 8.85,12.96 8.67,13.33 L7.98,14.71 L12,17.12 L16.02,14.71 L15.33,13.33 C15.14,12.96 15.29,12.51 15.67,12.32 C16.04,12.14 16.49,12.28 16.68,12.66 L17.68,14.66 C17.86,15.01 17.73,15.44 17.39,15.64 L12.39,18.64 C12.27,18.71 12.13,18.75 12,18.75 Z"/>
</svg>

