<svg xmlns="http://www.w3.org/2000/svg" width="24" height="24" viewBox="0 0 24 24">
  <defs/>
  <path d="M8.329,10.665 L10.829,5.665 Q11.036,5.25 11.5,5.25 L12.5,5.25 Q12.964,5.25 13.171,5.665 L15.671,10.665 Q15.81,10.942 15.712,11.237 Q15.613,11.532 15.335,11.671 Q15.058,11.81 14.763,11.712 Q14.468,11.613 14.329,11.335 L12.036,6.75 L11.964,6.75 L9.671,11.335 Q9.532,11.613 9.237,11.712 Q8.942,11.81 8.665,11.671 Q8.387,11.532 8.288,11.237 Q8.19,10.942 8.329,10.665 Z"/>
  <path d="M8.671,13.335 L7.981,14.714 L12,17.125 L16.019,14.714 L15.329,13.335 Q15.19,13.058 15.288,12.763 Q15.387,12.468 15.665,12.329 Q15.942,12.19 16.237,12.288 Q16.532,12.387 16.671,12.665 L17.671,14.665 Q17.802,14.927 17.72,15.21 Q17.638,15.492 17.386,15.643 L12.386,18.643 Q12,18.875 11.614,18.643 L6.614,15.643 Q6.362,15.492 6.28,15.21 Q6.198,14.927 6.329,14.665 L7.329,12.665 Q7.468,12.387 7.763,12.288 Q8.058,12.19 8.335,12.329 Q8.613,12.468 8.712,12.763 Q8.81,13.058 8.671,13.335 Z"/>
  <path fill="#17191C" d="M4.6,6.449 Q2.75,8.922 2.75,12 Q2.75,15.829 5.46,18.54 Q8.171,21.25 12,21.25 Q15.829,21.25 18.54,18.54 Q21.25,15.829 21.25,12 Q21.25,8.171 18.54,5.46 Q15.829,2.75 12,2.75 Q10.031,2.75 8.276,3.535 Q7.993,3.661 7.702,3.551 Q7.412,3.44 7.285,3.156 Q7.159,2.873 7.269,2.582 Q7.38,2.292 7.664,2.165 Q9.711,1.25 12,1.25 Q16.451,1.25 19.6,4.4 Q22.75,7.549 22.75,12 Q22.75,16.451 19.6,19.6 Q16.451,22.75 12,22.75 Q7.549,22.75 4.4,19.6 Q1.25,16.451 1.25,12 Q1.25,8.422 3.4,5.551 Q3.586,5.302 3.893,5.258 Q4.201,5.213 4.449,5.4 Q4.698,5.586 4.742,5.893 Q4.787,6.201 4.6,6.449 Z"/>
</svg>

