<svg xmlns="http://www.w3.org/2000/svg" width="24" height="24" viewBox="0 0 24 24">
  <defs/>
  <path d="M12,2 C6.48,2 2,6.48 2,12 C2,17.52 6.48,22 12,22 C17.52,22 22,17.52 22,12 C22,6.48 17.52,2 12,2 Z M8.33,10.66 L10.83,5.66 C10.96,5.41 11.22,5.25 11.5,5.25 L12.5,5.25 C12.78,5.25 13.04,5.41 13.17,5.66 L15.67,10.66 C15.86,11.03 15.71,11.48 15.33,11.67 C15.22,11.72 15.11,11.75 15,11.75 C14.73,11.75 14.46,11.6 14.33,11.34 L12.04,6.75 L11.97,6.75 L9.68,11.34 C9.5,11.71 9.05,11.86 8.67,11.68 C8.29,11.49 8.14,11.04 8.33,10.66 Z M17.39,15.64 L12.39,18.64 C12.27,18.71 12.14,18.75 12,18.75 C11.86,18.75 11.73,18.71 11.61,18.64 L6.61,15.64 C6.27,15.44 6.15,15.01 6.32,14.66 L7.32,12.66 C7.51,12.29 7.96,12.14 8.33,12.32 C8.7,12.51 8.85,12.96 8.67,13.33 L7.98,14.71 L12,17.12 L16.02,14.71 L15.33,13.33 C15.14,12.96 15.29,12.51 15.67,12.32 C16.04,12.14 16.49,12.28 16.68,12.66 L17.68,14.66 C17.85,15.01 17.72,15.44 17.39,15.64 Z"/>
</svg>

