<svg xmlns="http://www.w3.org/2000/svg" width="24" height="24" viewBox="0 0 24 24">
  <defs/>
  <path fill="#292D32" d="M12.009,22.74 C11.379,22.74 10.759,22.53 10.269,22.11 L8.689,20.76 C8.529,20.62 8.129,20.48 7.919,20.48 L6.169,20.48 C4.689,20.48 3.489,19.28 3.489,17.8 L3.489,16.09 C3.489,15.88 3.349,15.48 3.219,15.33 L1.859,13.73 C1.039,12.76 1.039,11.24 1.859,10.26 L3.219,8.66 C3.349,8.51 3.489,8.11 3.489,7.9 L3.489,6.2 C3.489,4.72 4.689,3.52 6.169,3.52 L7.899,3.52 C8.109,3.52 8.499,3.37 8.669,3.23 L10.249,1.88 C11.229,1.05 12.759,1.05 13.739,1.88 L15.319,3.23 C15.479,3.37 15.889,3.51 16.099,3.51 L17.799,3.51 C19.279,3.51 20.479,4.71 20.479,6.19 L20.479,7.89 C20.479,8.1 20.629,8.49 20.769,8.66 L22.119,10.24 C22.959,11.23 22.949,12.76 22.119,13.73 L20.769,15.31 C20.629,15.48 20.489,15.87 20.489,16.08 L20.489,17.78 C20.489,19.26 19.289,20.46 17.809,20.46 L16.109,20.46 C15.899,20.46 15.509,20.61 15.329,20.75 L13.749,22.1 C13.259,22.53 12.629,22.74 12.009,22.74 Z M6.169,5.02 C5.519,5.02 4.989,5.55 4.989,6.2 L4.989,7.9 C4.989,8.47 4.729,9.19 4.359,9.63 L2.999,11.23 C2.659,11.64 2.659,12.36 2.999,12.76 L4.349,14.35 C4.709,14.76 4.979,15.51 4.979,16.08 L4.979,17.79 C4.979,18.44 5.509,18.97 6.159,18.97 L7.899,18.97 C8.459,18.97 9.199,19.24 9.639,19.61 L11.229,20.97 C11.639,21.32 12.349,21.32 12.769,20.97 L14.349,19.62 C14.799,19.24 15.529,18.98 16.089,18.98 L17.789,18.98 C18.439,18.98 18.969,18.45 18.969,17.8 L18.969,16.1 C18.969,15.54 19.239,14.81 19.609,14.36 L20.969,12.77 C21.319,12.36 21.319,11.64 20.969,11.23 L19.619,9.65 C19.239,9.2 18.979,8.47 18.979,7.91 L18.979,6.2 C18.979,5.55 18.449,5.02 17.799,5.02 L16.099,5.02 C15.529,5.02 14.789,4.75 14.349,4.38 L12.759,3.02 C12.349,2.67 11.639,2.67 11.219,3.02 L9.649,4.38 C9.199,4.75 8.469,5.02 7.899,5.02 L6.169,5.02 Z"/>
  <path fill="#292D32" d="M14.81,16.24 L12.001,9.91 L9.191,16.24 L7.811,15.63 L11.31,7.76 L12.691,7.76 L16.191,15.63 L14.81,16.24 Z"/>
  <path fill="#292D32" d="M13.75,14.06 L10.25,14.06 C9.84,14.06 9.5,13.72 9.5,13.31 C9.5,12.9 9.84,12.56 10.25,12.56 L13.75,12.56 C14.16,12.56 14.5,12.9 14.5,13.31 C14.5,13.72 14.16,14.06 13.75,14.06 Z"/>
</svg>

