<svg xmlns="http://www.w3.org/2000/svg" width="24" height="24" viewBox="0 0 24 24">
  <defs/>
  <path fill="#292D32" d="M21.561,10.738 L20.211,9.158 C19.961,8.858 19.751,8.298 19.751,7.898 L19.751,6.198 C19.751,5.138 18.881,4.268 17.821,4.268 L16.121,4.268 C15.721,4.268 15.151,4.058 14.851,3.808 L13.271,2.458 C12.581,1.868 11.451,1.868 10.761,2.458 L9.161,3.808 C8.861,4.058 8.301,4.268 7.901,4.268 L6.171,4.268 C5.111,4.268 4.241,5.138 4.241,6.198 L4.241,7.898 C4.241,8.288 4.041,8.848 3.791,9.148 L2.441,10.738 C1.861,11.438 1.861,12.558 2.441,13.238 L3.791,14.828 C4.041,15.118 4.241,15.688 4.241,16.078 L4.241,17.788 C4.241,18.848 5.111,19.718 6.171,19.718 L7.911,19.718 C8.301,19.718 8.871,19.928 9.171,20.178 L10.751,21.528 C11.441,22.118 12.571,22.118 13.261,21.528 L14.841,20.178 C15.141,19.928 15.701,19.718 16.101,19.718 L17.801,19.718 C18.861,19.718 19.731,18.848 19.731,17.788 L19.731,16.088 C19.731,15.688 19.941,15.128 20.191,14.828 L21.541,13.248 C22.151,12.568 22.151,11.438 21.561,10.738 Z M14.811,16.238 L13.831,14.038 C13.801,14.038 13.771,14.058 13.741,14.058 L10.241,14.058 C10.211,14.058 10.181,14.048 10.151,14.038 L9.171,16.238 L7.801,15.628 L11.301,7.748 L12.671,7.748 L16.171,15.628 L14.811,16.238 Z"/>
  <path fill="#292D32" d="M10.82,12.56 L13.18,12.56 L12,9.91 L10.82,12.56 Z"/>
</svg>

