<svg xmlns="http://www.w3.org/2000/svg" width="24" height="24" viewBox="0 0 24 24">
  <defs/>
  <path d="M12,2 C6.48,2 2,6.48 2,12 C2,17.52 6.48,22 12,22 C17.52,22 22,17.52 22,12 C22,6.48 17.52,2 12,2 Z M10.7,16.14 L6.44,16.14 C6.25,16.14 6.13,15.93 6.23,15.76 L8.36,12.21 C8.46,12.05 8.69,12.05 8.79,12.21 L10.92,15.76 C11.02,15.93 10.9,16.14 10.7,16.14 Z M9.87,10.14 C9.68,10.14 9.56,9.93 9.66,9.76 L11.79,6.21 C11.89,6.05 12.12,6.05 12.22,6.21 L14.35,9.76 C14.45,9.93 14.33,10.14 14.14,10.14 L9.87,10.14 Z M17.56,16.14 L13.3,16.14 C13.11,16.14 12.99,15.93 13.09,15.76 L15.22,12.21 C15.32,12.05 15.55,12.05 15.65,12.21 L17.78,15.76 C17.87,15.93 17.75,16.14 17.56,16.14 Z"/>
</svg>

