<svg xmlns="http://www.w3.org/2000/svg" width="24" height="24" viewBox="0 0 24 24">
  <defs/>
  <path d="M11.357,5.474 Q11.453,5.314 11.614,5.217 Q11.88,5.057 12.181,5.132 Q12.483,5.208 12.643,5.474 L15.213,9.754 Q15.32,9.932 15.32,10.14 Q15.32,10.451 15.1,10.67 Q14.88,10.89 14.57,10.89 L9.43,10.89 Q9.222,10.89 9.044,10.783 Q8.777,10.623 8.702,10.322 Q8.627,10.02 8.787,9.754 Z M12,7.317 L10.755,9.39 L13.245,9.39 L12,7.317 Z"/>
  <path d="M7.927,11.474 Q8.023,11.313 8.184,11.217 Q8.45,11.057 8.752,11.132 Q9.053,11.208 9.213,11.474 L11.783,15.754 Q11.89,15.932 11.89,16.14 Q11.89,16.451 11.67,16.67 Q11.451,16.89 11.14,16.89 L6,16.89 Q5.792,16.89 5.614,16.783 Q5.348,16.623 5.272,16.322 Q5.197,16.02 5.357,15.754 Z M8.57,13.317 L7.325,15.39 L9.815,15.39 L8.57,13.317 Z"/>
  <path d="M14.786,11.474 Q14.883,11.313 15.043,11.217 Q15.31,11.057 15.611,11.132 Q15.912,11.208 16.072,11.474 L18.642,15.754 Q18.749,15.932 18.749,16.14 Q18.749,16.451 18.53,16.67 Q18.31,16.89 17.999,16.89 L12.859,16.89 Q12.652,16.89 12.473,16.783 Q12.207,16.623 12.132,16.322 Q12.056,16.02 12.216,15.754 Z M15.429,13.317 L14.185,15.39 L16.674,15.39 L15.429,13.317 Z"/>
  <path fill="#17191C" d="M4.6,6.449 Q2.75,8.922 2.75,12 Q2.75,15.829 5.46,18.54 Q8.171,21.25 12,21.25 Q15.829,21.25 18.54,18.54 Q21.25,15.829 21.25,12 Q21.25,8.171 18.54,5.46 Q15.829,2.75 12,2.75 Q10.031,2.75 8.276,3.535 Q7.993,3.661 7.702,3.551 Q7.412,3.44 7.285,3.156 Q7.158,2.873 7.269,2.582 Q7.38,2.292 7.664,2.165 Q9.711,1.25 12,1.25 Q16.451,1.25 19.6,4.4 Q22.75,7.549 22.75,12 Q22.75,16.451 19.6,19.6 Q16.451,22.75 12,22.75 Q7.549,22.75 4.4,19.6 Q1.25,16.451 1.25,12 Q1.25,8.422 3.4,5.551 Q3.586,5.302 3.893,5.258 Q4.201,5.213 4.449,5.4 Q4.698,5.586 4.742,5.893 Q4.787,6.201 4.6,6.449 Z"/>
</svg>

