<svg xmlns="http://www.w3.org/2000/svg" width="24" height="24" viewBox="0 0 24 24">
  <defs/>
  <path fill="#292D32" d="M10.267,1.876 Q12.03,0.39 13.752,1.883 L15.327,3.23 Q15.664,3.51 16.11,3.51 L17.81,3.51 Q18.916,3.51 19.703,4.297 Q20.49,5.084 20.49,6.19 L20.49,7.89 Q20.49,8.326 20.776,8.67 L22.12,10.243 Q23.61,12.01 22.116,13.731 L20.77,15.307 Q20.49,15.643 20.49,16.08 L20.49,17.78 Q20.49,20.46 17.81,20.46 L16.11,20.46 Q15.674,20.46 15.33,20.746 L13.757,22.09 Q11.99,23.58 10.268,22.086 L8.693,20.74 Q8.356,20.46 7.92,20.46 L6.17,20.46 Q5.064,20.46 4.277,19.673 Q3.49,18.886 3.49,17.78 L3.49,16.07 Q3.49,15.621 3.222,15.31 L1.868,13.715 Q0.41,11.98 1.866,10.247 L3.218,8.655 Q3.49,8.328 3.49,7.89 L3.49,6.2 Q3.49,3.52 6.17,3.52 L7.9,3.52 Q8.336,3.52 8.68,3.234 L10.262,1.88 Z M9.64,4.386 Q8.88,5.02 7.9,5.02 L6.17,5.02 Q4.99,5.02 4.99,6.2 L4.99,7.89 Q4.99,8.871 4.362,9.625 L3.014,11.212 Q2.369,11.98 3.012,12.744 L4.358,14.33 Q4.99,15.063 4.99,16.07 L4.99,17.78 Q4.99,18.96 6.17,18.96 L7.92,18.96 Q8.9,18.96 9.667,19.6 L11.252,20.953 Q12.004,21.606 12.783,20.95 L14.37,19.594 Q15.13,18.96 16.11,18.96 L17.81,18.96 Q18.99,18.96 18.99,17.78 L18.99,16.08 Q18.99,15.1 19.63,14.333 L20.984,12.748 Q21.636,11.996 20.98,11.217 L19.624,9.63 Q18.99,8.869 18.99,7.89 L18.99,6.19 Q18.99,5.01 17.81,5.01 L16.11,5.01 Q15.12,5.01 14.353,4.37 L12.768,3.016 Q12.017,2.364 11.235,3.022 L9.64,4.386 Z"/>
  <path fill="#292D32" d="M7.815,15.636 L11.315,7.756 L12.685,7.756 L16.185,15.636 L14.815,16.245 L12,9.908 L9.185,16.245 Z"/>
  <path fill="#292D32" d="M13.75,14.06 L10.25,14.06 Q9.939,14.06 9.72,13.84 Q9.5,13.621 9.5,13.31 Q9.5,12.999 9.72,12.78 Q9.939,12.56 10.25,12.56 L13.75,12.56 Q14.061,12.56 14.28,12.78 Q14.5,12.999 14.5,13.31 Q14.5,13.621 14.28,13.84 Q14.061,14.06 13.75,14.06 Z"/>
</svg>

