<svg xmlns="http://www.w3.org/2000/svg" width="24" height="24" viewBox="0 0 24 24">
  <defs/>
  <path fill="white" opacity="0.58" d="M24,0 L0,0 L0,24 L24,24 L24,0 Z"/>
  <path fill="#292D32" opacity="0.4" d="M12,22 C17.523,22 22,17.523 22,12 C22,6.477 17.523,2 12,2 C6.477,2 2,6.477 2,12 C2,17.523 6.477,22 12,22 Z"/>
  <path fill="#292D32" d="M11.79,6.21 L9.66,9.76 C9.56,9.93 9.68,10.14 9.87,10.14 L14.13,10.14 C14.32,10.14 14.44,9.93 14.34,9.76 L12.21,6.21 C12.12,6.05 11.88,6.05 11.79,6.21 Z"/>
  <path fill="#292D32" d="M8.359,12.21 L6.229,15.76 C6.129,15.93 6.249,16.14 6.439,16.14 L10.7,16.14 C10.889,16.14 11.009,15.93 10.909,15.76 L8.78,12.21 C8.69,12.05 8.449,12.05 8.359,12.21 Z"/>
  <path fill="#292D32" d="M15.21,12.21 L13.08,15.76 C12.98,15.93 13.1,16.14 13.29,16.14 L17.55,16.14 C17.74,16.14 17.86,15.93 17.76,15.76 L15.63,12.21 C15.55,12.05 15.31,12.05 15.21,12.21 Z"/>
</svg>

