<svg xmlns="http://www.w3.org/2000/svg" width="24" height="24" viewBox="0 0 24 24">
  <defs/>
  <path d="M12,22.75 C6.07,22.75 1.25,17.93 1.25,12 C1.25,6.07 6.07,1.25 12,1.25 C17.93,1.25 22.75,6.07 22.75,12 C22.75,17.93 17.93,22.75 12,22.75 Z M12,2.75 C6.9,2.75 2.75,6.9 2.75,12 C2.75,17.1 6.9,21.25 12,21.25 C17.1,21.25 21.25,17.1 21.25,12 C21.25,6.9 17.1,2.75 12,2.75 Z"/>
  <path d="M14.57,10.89 L9.43,10.89 C9.16,10.89 8.91,10.74 8.78,10.51 C8.65,10.27 8.65,9.99 8.79,9.75 L11.36,5.46 C11.63,5.01 12.38,5.01 12.65,5.46 L15.22,9.75 C15.36,9.98 15.36,10.27 15.23,10.51 C15.09,10.75 14.84,10.89 14.57,10.89 Z M10.75,9.39 L13.24,9.39 L11.99,7.31 L10.75,9.39 Z"/>
  <path d="M11.14,16.89 L6,16.89 C5.73,16.89 5.48,16.74 5.35,16.51 C5.22,16.28 5.22,15.99 5.36,15.76 L7.93,11.47 C8.2,11.02 8.95,11.02 9.22,11.47 L11.79,15.76 C11.93,15.99 11.93,16.28 11.8,16.51 C11.66,16.75 11.41,16.89 11.14,16.89 Z M7.32,15.39 L9.81,15.39 L8.56,13.31 L7.32,15.39 Z"/>
  <path d="M18,16.89 L12.86,16.89 C12.59,16.89 12.34,16.74 12.21,16.51 C12.08,16.28 12.079,15.99 12.22,15.76 L14.79,11.47 C15.059,11.02 15.81,11.02 16.08,11.47 L18.65,15.76 C18.79,15.99 18.79,16.28 18.66,16.51 C18.52,16.75 18.27,16.89 18,16.89 Z M14.18,15.39 L16.67,15.39 L15.42,13.31 L14.18,15.39 Z"/>
</svg>

