<svg xmlns="http://www.w3.org/2000/svg" width="24" height="24" viewBox="0 0 24 24">
  <defs/>
  <path d="M9.19,17.01 L6.45,17.01 C6.02,17.01 5.62,16.78 5.41,16.41 C5.2,16.04 5.2,15.58 5.41,15.2 L11.011,5.59 C11.21,5.24 11.58,5.02 11.98,4.99 C12.38,4.96 12.771,5.15 13.011,5.47 L14.581,7.56 C15.21,8.4 15.261,9.56 14.7,10.46 L11.36,15.81 C10.89,16.56 10.081,17.01 9.19,17.01 Z M6.96,15.51 L9.18,15.51 C9.55,15.51 9.89,15.32 10.081,15.01 L13.42,9.66 C13.65,9.29 13.63,8.81 13.37,8.46 L12.07,6.73 L6.96,15.51 Z"/>
  <path d="M17.55,17.01 L13.71,17.01 C13.28,17.01 12.88,16.78 12.66,16.4 C12.45,16.02 12.45,15.56 12.67,15.19 L14.59,11.99 C15.03,11.26 16.21,11.26 16.65,11.99 L18.57,15.19 C18.79,15.56 18.8,16.03 18.58,16.4 C18.39,16.77 17.98,17.01 17.55,17.01 Z M14.24,15.51 L17.03,15.51 L15.63,13.18 L14.24,15.51 Z"/>
  <path d="M12,22.75 C6.07,22.75 1.25,17.93 1.25,12 C1.25,6.07 6.07,1.25 12,1.25 C17.93,1.25 22.75,6.07 22.75,12 C22.75,17.93 17.93,22.75 12,22.75 Z M12,2.75 C6.9,2.75 2.75,6.9 2.75,12 C2.75,17.1 6.9,21.25 12,21.25 C17.1,21.25 21.25,17.1 21.25,12 C21.25,6.9 17.1,2.75 12,2.75 Z"/>
</svg>

