<svg xmlns="http://www.w3.org/2000/svg" width="24" height="24" viewBox="0 0 24 24">
  <defs/>
  <path d="M5.413,15.202 L5.414,15.199 L11.023,5.592 Q11.342,5.033 11.995,4.998 Q12.644,4.965 13.026,5.487 L14.581,7.571 Q15.624,8.962 14.711,10.46 L11.366,15.817 Q10.618,17.02 9.19,17.02 L6.45,17.02 Q6.44,17.02 6.429,17.02 Q5.744,17 5.405,16.405 Q5.059,15.799 5.413,15.202 Z M6.964,15.52 L9.19,15.52 Q9.785,15.52 10.094,15.023 L13.43,9.68 Q13.814,9.049 13.379,8.469 L12.089,6.74 L6.964,15.52 Z M11.82,6.379 L11.815,6.372 Q11.817,6.376 11.82,6.379 Z M12.314,6.354 Q12.316,6.351 12.318,6.348 L12.314,6.354 Z"/>
  <path d="M14.603,11.975 Q14.958,11.403 15.634,11.403 Q16.322,11.403 16.663,11.984 L18.589,15.193 Q18.94,15.798 18.595,16.403 Q18.249,17.01 17.55,17.01 L13.71,17.01 Q13.01,17.01 12.663,16.396 Q12.317,15.784 12.677,15.184 L14.597,11.984 Z M15.63,13.178 L14.231,15.51 L17.03,15.51 L15.63,13.178 Z"/>
  <path fill="#17191C" d="M4.6,6.449 Q2.75,8.922 2.75,12 Q2.75,15.829 5.46,18.54 Q8.171,21.25 12,21.25 Q15.829,21.25 18.54,18.54 Q21.25,15.829 21.25,12 Q21.25,8.171 18.54,5.46 Q15.829,2.75 12,2.75 Q10.031,2.75 8.276,3.535 Q7.993,3.661 7.702,3.551 Q7.412,3.44 7.285,3.156 Q7.158,2.873 7.269,2.582 Q7.38,2.292 7.664,2.165 Q9.711,1.25 12,1.25 Q16.451,1.25 19.6,4.4 Q22.75,7.549 22.75,12 Q22.75,16.451 19.6,19.6 Q16.451,22.75 12,22.75 Q7.549,22.75 4.4,19.6 Q1.25,16.451 1.25,12 Q1.25,8.422 3.4,5.551 Q3.586,5.302 3.893,5.258 Q4.201,5.213 4.449,5.4 Q4.698,5.586 4.742,5.893 Q4.787,6.201 4.6,6.449 Z"/>
</svg>

