<svg xmlns="http://www.w3.org/2000/svg" width="24" height="24" viewBox="0 0 24 24">
  <defs/>
  <path fill="white" d="M24,0 L0,0 L0,24 L24,24 L24,0 Z"/>
  <path fill="#292D32" d="M6.06,15.58 L11.67,5.97 C11.83,5.69 12.23,5.67 12.42,5.93 L13.98,8.02 C14.43,8.62 14.46,9.43 14.07,10.07 L10.73,15.42 C10.4,15.95 9.82,16.27 9.19,16.27 L6.45,16.27 C6.1,16.26 5.88,15.88 6.06,15.58 Z"/>
  <path fill="#292D32" d="M15.24,12.37 L13.32,15.57 C13.14,15.87 13.36,16.26 13.71,16.26 L17.55,16.26 C17.9,16.26 18.12,15.88 17.94,15.57 L16.02,12.37 C15.85,12.08 15.42,12.08 15.24,12.37 Z"/>
  <path fill="#292D32" opacity="0.4" d="M12,22 C17.523,22 22,17.523 22,12 C22,6.477 17.523,2 12,2 C6.477,2 2,6.477 2,12 C2,17.523 6.477,22 12,22 Z"/>
</svg>

