<svg xmlns="http://www.w3.org/2000/svg" width="24" height="24" viewBox="0 0 24 24">
  <defs/>
  <path d="M12,2 C6.48,2 2,6.48 2,12 C2,17.52 6.48,22 12,22 C17.52,22 22,17.52 22,12 C22,6.48 17.52,2 12,2 Z M10.72,15.41 C10.39,15.94 9.81,16.26 9.18,16.26 L6.44,16.26 C6.09,16.26 5.87,15.88 6.05,15.58 L11.66,5.97 C11.82,5.69 12.22,5.67 12.41,5.93 L13.97,8.02 C14.42,8.62 14.45,9.43 14.06,10.07 L10.72,15.41 Z M17.55,16.26 L13.71,16.26 C13.36,16.26 13.14,15.88 13.32,15.57 L15.24,12.37 C15.42,12.08 15.84,12.08 16.02,12.37 L17.94,15.57 C18.12,15.87 17.9,16.26 17.55,16.26 Z"/>
</svg>

