<svg xmlns="http://www.w3.org/2000/svg" width="24" height="24" viewBox="0 0 24 24">
  <defs/>
  <path fill="#292D32" d="M17.6,18.338 Q18.99,17.401 18.99,15.98 L18.99,11.01 Q18.99,9.599 17.621,8.666 L12.915,5.95 Q12,5.421 11.085,5.949 L6.379,8.676 Q5.01,9.609 5.01,11.02 L5.01,15.99 Q5.01,17.4 6.378,18.334 L11.085,21.05 Q12,21.579 12.915,21.05 L14.434,20.171 Q14.703,20.015 15.003,20.095 Q15.303,20.175 15.459,20.444 Q15.615,20.713 15.534,21.013 Q15.454,21.313 15.186,21.469 L13.665,22.349 Q12,23.311 10.335,22.349 L5.605,19.619 Q5.582,19.606 5.56,19.592 Q3.51,18.209 3.51,15.99 L3.51,11.02 Q3.51,8.801 5.56,7.418 Q5.582,7.404 5.604,7.391 L10.335,4.65 Q12,3.689 13.665,4.65 L18.395,7.38 Q18.417,7.393 18.439,7.408 Q20.49,8.791 20.49,11.01 L20.49,15.98 Q20.49,18.199 18.439,19.582 Q18.182,19.755 17.877,19.696 Q17.572,19.637 17.398,19.379 Q17.224,19.122 17.284,18.817 Q17.343,18.512 17.6,18.338 Z"/>
  <path fill="#292D32" d="M16.75,7.63 L16.75,5 Q16.75,2.75 14.5,2.75 L9.5,2.75 Q7.25,2.75 7.25,5 L7.25,7.56 Q7.25,7.871 7.03,8.09 Q6.811,8.31 6.5,8.31 Q6.189,8.31 5.97,8.09 Q5.75,7.871 5.75,7.56 L5.75,5 Q5.75,1.25 9.5,1.25 L14.5,1.25 Q18.25,1.25 18.25,5 L18.25,7.63 Q18.25,7.941 18.03,8.16 Q17.811,8.38 17.5,8.38 Q17.189,8.38 16.97,8.16 Q16.75,7.941 16.75,7.63 Z"/>
  <path fill="#292D32" d="M12.005,17.118 L11.027,17.507 Q10.194,17.84 9.557,17.376 Q8.925,16.914 8.981,16.023 L9.041,14.977 Q9.041,14.977 9.043,14.98 L8.372,14.168 Q7.802,13.473 8.041,12.733 Q8.281,11.985 9.155,11.763 L10.169,11.505 L10.738,10.615 Q11.22,9.857 12.004,9.857 Q12.789,9.857 13.272,10.617 L13.841,11.505 L13.841,11.505 L13.843,11.505 L14.855,11.763 Q15.728,11.985 15.968,12.733 Q16.207,13.473 15.639,14.165 L14.968,14.977 Q14.986,15.285 14.782,15.516 Q14.576,15.749 14.266,15.768 Q13.956,15.788 13.723,15.582 Q13.49,15.377 13.471,15.067 Q13.436,14.509 13.795,14.043 Q13.803,14.032 13.812,14.022 L14.479,13.215 L13.456,12.955 Q12.893,12.804 12.578,12.314 L12.007,11.423 L12.004,11.357 L12.001,11.424 L11.438,12.303 Q11.125,12.812 10.545,12.957 L9.53,13.215 L10.196,14.02 Q10.575,14.475 10.538,15.063 L10.478,16.111 L11.451,15.724 Q12.005,15.502 12.558,15.724 Q12.846,15.839 12.969,16.124 Q13.091,16.41 12.976,16.698 Q12.86,16.987 12.575,17.109 Q12.291,17.231 12.005,17.118 Z"/>
</svg>

