<svg xmlns="http://www.w3.org/2000/svg" width="24" height="24" viewBox="0 0 24 24">
  <defs/>
  <path fill="#292D32" d="M17.811,5.49 L17.811,6.23 L14.271,4.18 C12.931,3.41 11.061,3.41 9.731,4.18 L6.191,6.24 L6.191,5.49 C6.191,3.24 7.421,2 9.671,2 L14.331,2 C16.581,2 17.811,3.24 17.811,5.49 Z"/>
  <path fill="#292D32" d="M17.84,7.968 L17.7,7.898 L16.34,7.118 L13.52,5.488 C12.66,4.988 11.34,4.988 10.48,5.488 L7.66,7.108 L6.3,7.908 L6.12,7.998 C4.37,9.178 4.25,9.398 4.25,11.288 L4.25,15.808 C4.25,17.698 4.37,17.918 6.16,19.128 L10.48,21.618 C10.91,21.878 11.45,21.988 12,21.988 C12.54,21.988 13.09,21.868 13.52,21.618 L17.88,19.098 C19.64,17.918 19.75,17.708 19.75,15.808 L19.75,11.288 C19.75,9.398 19.63,9.178 17.84,7.968 Z M14.79,13.498 L14.18,14.248 C14.08,14.358 14.01,14.568 14.02,14.718 L14.08,15.678 C14.12,16.268 13.7,16.568 13.15,16.358 L12.26,15.998 C12.12,15.948 11.89,15.948 11.75,15.998 L10.86,16.348 C10.31,16.568 9.89,16.258 9.93,15.668 L9.99,14.708 C10,14.558 9.93,14.348 9.83,14.238 L9.21,13.498 C8.83,13.048 9,12.548 9.57,12.398 L10.5,12.158 C10.65,12.118 10.82,11.978 10.9,11.858 L11.42,11.058 C11.74,10.558 12.25,10.558 12.58,11.058 L13.1,11.858 C13.18,11.988 13.36,12.118 13.5,12.158 L14.43,12.398 C15,12.548 15.17,13.048 14.79,13.498 Z"/>
</svg>

