<svg xmlns="http://www.w3.org/2000/svg" width="24" height="24" viewBox="0 0 24 24">
  <defs/>
  <path fill="#292D32" d="M3.51,11.02 Q3.51,8.801 5.56,7.418 Q5.582,7.403 5.605,7.39 L10.335,4.66 Q12,3.699 13.665,4.66 L18.395,7.39 Q18.417,7.403 18.439,7.418 Q20.49,8.801 20.49,11.02 L20.49,15.99 Q20.49,18.209 18.439,19.592 Q18.417,19.606 18.395,19.619 L13.665,22.349 Q12,23.311 10.335,22.349 L5.605,19.619 Q5.582,19.606 5.56,19.592 Q3.51,18.209 3.51,15.99 Z M5.01,11.02 L5.01,15.99 Q5.01,17.4 6.378,18.334 L11.085,21.05 Q12,21.579 12.915,21.05 L17.621,18.334 Q18.99,17.4 18.99,15.99 L18.99,11.02 Q18.99,9.609 17.621,8.676 L12.915,5.96 Q12,5.431 11.085,5.959 L6.378,8.676 Q5.01,9.609 5.01,11.02 Z"/>
  <path fill="#292D32" opacity="0.4" d="M16.75,7.63 L16.75,5 Q16.75,2.75 14.5,2.75 L9.5,2.75 Q7.25,2.75 7.25,5 L7.25,7.56 Q7.25,7.871 7.03,8.09 Q6.811,8.31 6.5,8.31 Q6.189,8.31 5.97,8.09 Q5.75,7.871 5.75,7.56 L5.75,5 Q5.75,1.25 9.5,1.25 L14.5,1.25 Q18.25,1.25 18.25,5 L18.25,7.63 Q18.25,7.941 18.03,8.16 Q17.811,8.38 17.5,8.38 Q17.189,8.38 16.97,8.16 Q16.75,7.941 16.75,7.63 Z"/>
  <path fill="#292D32" opacity="0.4" d="M13.261,10.586 L13.831,11.475 L13.833,11.475 L14.845,11.733 Q15.718,11.955 15.959,12.703 Q16.197,13.444 15.63,14.136 L14.959,14.947 L15.019,15.997 Q15.074,16.893 14.439,17.352 Q13.805,17.81 12.971,17.476 L11.995,17.088 L11.017,17.477 Q10.184,17.81 9.548,17.346 Q8.916,16.885 8.971,15.993 L9.031,14.947 Q9.031,14.947 9.034,14.95 L8.362,14.138 Q7.792,13.444 8.031,12.703 Q8.272,11.955 9.145,11.733 L10.159,11.475 L10.728,10.586 Q11.228,9.835 11.999,9.835 Q12.775,9.835 13.259,10.582 Z M12,11.398 L11.999,11.335 L11.991,11.394 L11.429,12.273 Q11.116,12.782 10.535,12.927 L9.521,13.185 L10.186,13.99 Q10.565,14.445 10.529,15.033 L10.469,16.081 L11.441,15.694 Q11.995,15.472 12.547,15.693 L13.521,16.081 L13.461,15.037 Q13.426,14.479 13.785,14.013 Q13.793,14.002 13.802,13.992 L14.469,13.185 L13.447,12.925 Q12.883,12.774 12.568,12.284 Z"/>
</svg>

