<svg xmlns="http://www.w3.org/2000/svg" width="24" height="24" viewBox="0 0 24 24">
  <defs/>
  <path fill="#292D32" d="M12,22.75 C11.4,22.75 10.81,22.61 10.33,22.34 L5.6,19.61 C3.64,18.29 3.51,18.05 3.51,15.98 L3.51,11.02 C3.51,8.95 3.64,8.71 5.56,7.42 L10.34,4.66 C11.29,4.11 12.72,4.11 13.67,4.66 L18.4,7.39 C20.36,8.71 20.49,8.95 20.49,11.02 L20.49,15.98 C20.49,18.05 20.36,18.29 18.44,19.58 L13.66,22.34 C13.19,22.62 12.59,22.75 12,22.75 Z M12,5.75 C11.66,5.75 11.32,5.82 11.08,5.96 L6.35,8.69 C5.01,9.6 5.01,9.6 5.01,11.02 L5.01,15.98 C5.01,17.4 5.01,17.4 6.4,18.34 L11.09,21.04 C11.57,21.32 12.44,21.32 12.92,21.04 L17.65,18.31 C18.99,17.4 18.99,17.4 18.99,15.98 L18.99,11.02 C18.99,9.6 18.99,9.6 17.6,8.66 L12.91,5.96 C12.68,5.82 12.34,5.75 12,5.75 Z"/>
  <path fill="#292D32" d="M17.5,8.38 C17.09,8.38 16.75,8.04 16.75,7.63 L16.75,5 C16.75,3.42 16.08,2.75 14.5,2.75 L9.5,2.75 C7.92,2.75 7.25,3.42 7.25,5 L7.25,7.56 C7.25,7.97 6.91,8.31 6.5,8.31 C6.09,8.31 5.75,7.98 5.75,7.56 L5.75,5 C5.75,2.58 7.08,1.25 9.5,1.25 L14.5,1.25 C16.92,1.25 18.25,2.58 18.25,5 L18.25,7.63 C18.25,8.04 17.91,8.38 17.5,8.38 Z"/>
  <path fill="#292D32" d="M13.63,17.63 C13.42,17.63 13.2,17.59 12.98,17.5 L12,17.12 L11.02,17.51 C10.49,17.72 9.95,17.67 9.55,17.38 C9.15,17.09 8.94,16.59 8.97,16.02 L9.03,14.97 L8.36,14.16 C8,13.71 7.88,13.19 8.04,12.71 C8.19,12.24 8.6,11.88 9.15,11.74 L10.17,11.48 L10.74,10.59 C11.35,9.63 12.66,9.63 13.27,10.59 L13.84,11.48 L14.86,11.74 C15.41,11.88 15.82,12.24 15.97,12.71 C16.12,13.18 16,13.71 15.64,14.15 L14.97,14.96 L15.03,16.01 C15.06,16.58 14.85,17.07 14.45,17.37 C14.21,17.54 13.93,17.63 13.63,17.63 Z M9.52,13.2 L10.19,14.01 C10.42,14.28 10.55,14.71 10.53,15.06 L10.47,16.11 L11.45,15.72 C11.78,15.59 12.22,15.59 12.55,15.72 L13.53,16.11 L13.47,15.06 C13.45,14.71 13.58,14.29 13.81,14.01 L14.48,13.2 L13.46,12.94 C13.12,12.85 12.76,12.59 12.57,12.3 L12.01,11.42 L11.44,12.3 C11.25,12.6 10.89,12.86 10.55,12.95 L9.52,13.2 Z"/>
</svg>

