<svg xmlns="http://www.w3.org/2000/svg" width="24" height="24" viewBox="0 0 24 24">
  <defs/>
  <path fill="#292D32" opacity="0.4" d="M17.95,7.71 L17.81,7.63 L16.42,6.83 L13.55,5.17 C12.67,4.66 11.33,4.66 10.45,5.17 L7.58,6.83 L6.19,7.64 L6.01,7.74 C4.22,8.94 4.1,9.16 4.1,11.09 L4.1,15.7 C4.1,17.63 4.22,17.85 6.05,19.08 L10.45,21.62 C10.89,21.88 11.44,22 12,22 C12.55,22 13.11,21.88 13.55,21.62 L17.99,19.05 C19.78,17.85 19.9,17.63 19.9,15.7 L19.9,11.09 C19.9,9.16 19.78,8.94 17.95,7.71 Z"/>
  <path fill="#292D32" d="M6.189,7.64 L7.579,6.83 L10.319,5.25 L10.45,5.17 C11.329,4.66 12.669,4.66 13.55,5.17 L13.68,5.25 L16.419,6.83 L17.809,7.63 L17.809,5.49 C17.809,3.24 16.57,2 14.319,2 L9.669,2 C7.419,2 6.189,3.24 6.189,5.49 L6.189,7.64 Z"/>
  <path fill="#292D32" d="M14.84,13.34 L14.22,14.1 C14.12,14.21 14.05,14.43 14.06,14.58 L14.12,15.56 C14.16,16.16 13.73,16.47 13.17,16.25 L12.26,15.89 C12.12,15.84 11.88,15.84 11.74,15.89 L10.83,16.25 C10.27,16.47 9.84,16.16 9.88,15.56 L9.94,14.58 C9.95,14.43 9.88,14.21 9.78,14.1 L9.16,13.34 C8.77,12.88 8.94,12.37 9.52,12.22 L10.47,11.98 C10.62,11.94 10.8,11.8 10.88,11.67 L11.41,10.85 C11.74,10.34 12.26,10.34 12.59,10.85 L13.12,11.67 C13.2,11.8 13.38,11.94 13.53,11.98 L14.48,12.22 C15.06,12.37 15.23,12.88 14.84,13.34 Z"/>
</svg>

