<svg xmlns="http://www.w3.org/2000/svg" width="24" height="24" viewBox="0 0 24 24">
  <defs/>
  <path fill="#292D32" d="M14.431,16.92 L12.141,16.92 C11.731,16.92 11.391,16.58 11.391,16.17 C11.391,15.76 11.731,15.42 12.141,15.42 L14.431,15.42 C14.861,15.42 15.211,15.07 15.211,14.64 C15.211,14.21 14.861,13.86 14.431,13.86 L12.141,13.86 C11.901,13.86 11.671,13.74 11.531,13.55 C11.391,13.36 11.351,13.1 11.431,12.87 L12.191,10.58 C12.291,10.27 12.581,10.07 12.901,10.07 L15.961,10.07 C16.371,10.07 16.711,10.41 16.711,10.82 C16.711,11.23 16.371,11.57 15.961,11.57 L13.441,11.57 L13.181,12.36 L14.431,12.36 C15.691,12.36 16.711,13.38 16.711,14.64 C16.711,15.9 15.681,16.92 14.431,16.92 Z"/>
  <path fill="#292D32" d="M9.54,16.921 C9.13,16.921 8.79,16.581 8.79,16.171 L8.79,12.781 L8.6,13.001 C8.32,13.311 7.85,13.331 7.54,13.061 C7.24,12.781 7.21,12.311 7.49,12.001 L8.99,10.331 C9.2,10.101 9.53,10.021 9.82,10.131 C10.11,10.241 10.3,10.521 10.3,10.831 L10.3,16.181 C10.29,16.591 9.96,16.921 9.54,16.921 Z"/>
  <path fill="#292D32" d="M12.002,3.479 C11.922,3.479 11.842,3.489 11.762,3.489 L12.582,2.469 C12.842,2.149 12.792,1.669 12.462,1.419 C12.132,1.169 11.672,1.209 11.412,1.539 L9.442,3.999 C9.432,4.009 9.432,4.019 9.422,4.039 C9.392,4.079 9.372,4.129 9.352,4.169 C9.332,4.219 9.312,4.259 9.302,4.299 C9.292,4.349 9.292,4.389 9.292,4.439 C9.292,4.489 9.292,4.539 9.292,4.589 C9.292,4.609 9.292,4.619 9.292,4.639 C9.302,4.669 9.322,4.689 9.332,4.719 C9.352,4.769 9.372,4.809 9.392,4.859 C9.422,4.899 9.452,4.939 9.492,4.969 C9.512,4.999 9.522,5.029 9.552,5.049 C9.572,5.059 9.582,5.069 9.602,5.079 C9.622,5.099 9.652,5.109 9.682,5.119 C9.732,5.149 9.792,5.169 9.842,5.179 C9.882,5.199 9.912,5.199 9.942,5.199 C9.972,5.199 9.992,5.209 10.022,5.209 C10.052,5.209 10.072,5.199 10.092,5.189 C10.122,5.189 10.152,5.199 10.182,5.189 C10.822,5.039 11.422,4.969 11.992,4.969 C16.482,4.969 20.132,8.619 20.132,13.11 C20.132,17.599 16.482,21.25 11.992,21.25 C7.502,21.25 3.852,17.599 3.852,13.11 C3.852,11.37 4.422,9.689 5.502,8.249 C5.752,7.919 5.682,7.449 5.352,7.199 C5.022,6.949 4.552,7.019 4.302,7.349 C3.022,9.049 2.352,11.04 2.352,13.11 C2.352,18.419 6.672,22.75 11.992,22.75 C17.312,22.75 21.632,18.43 21.632,13.11 C21.632,7.789 17.312,3.479 12.002,3.479 Z"/>
</svg>

