<svg xmlns="http://www.w3.org/2000/svg" width="24" height="24" viewBox="0 0 24 24">
  <defs/>
  <path fill="#292D32" d="M16.19,2 L7.81,2 C4.17,2 2,4.17 2,7.81 L2,16.18 C2,19.83 4.17,22 7.81,22 L16.18,22 C19.82,22 21.99,19.83 21.99,16.19 L21.99,7.81 C22,4.17 19.83,2 16.19,2 Z M13.92,16.13 L9,16.13 C8.59,16.13 8.25,15.79 8.25,15.38 C8.25,14.97 8.59,14.63 9,14.63 L13.92,14.63 C15.2,14.63 16.25,13.59 16.25,12.3 C16.25,11.01 15.21,9.97 13.92,9.97 L8.85,9.97 L9.11,10.23 C9.4,10.53 9.4,11 9.1,11.3 C8.95,11.45 8.76,11.52 8.57,11.52 C8.38,11.52 8.19,11.45 8.04,11.3 L6.47,9.72 C6.18,9.43 6.18,8.95 6.47,8.66 L8.04,7.09 C8.33,6.8 8.81,6.8 9.1,7.09 C9.39,7.38 9.39,7.86 9.1,8.15 L8.77,8.48 L13.92,8.48 C16.03,8.48 17.75,10.2 17.75,12.31 C17.75,14.42 16.03,16.13 13.92,16.13 Z"/>
</svg>

