<svg xmlns="http://www.w3.org/2000/svg" width="24" height="24" viewBox="0 0 24 24">
  <defs/>
  <path fill="#292D32" opacity="0.4" d="M16.19,2 L7.82,2 C4.17,2 2,4.17 2,7.81 L2,16.18 C2,19.82 4.17,21.99 7.81,21.99 L16.18,21.99 C19.82,21.99 21.99,19.82 21.99,16.18 L21.99,7.81 C22,4.17 19.83,2 16.19,2 Z"/>
  <path fill="#292D32" d="M13.919,8.48 L8.769,8.48 L9.099,8.15 C9.389,7.86 9.389,7.38 9.099,7.09 C8.809,6.8 8.329,6.8 8.039,7.09 L6.469,8.66 C6.179,8.95 6.179,9.43 6.469,9.72 L8.039,11.29 C8.189,11.44 8.379,11.51 8.569,11.51 C8.759,11.51 8.949,11.44 9.099,11.29 C9.389,11 9.389,10.52 9.099,10.23 L8.839,9.97 L13.919,9.97 C15.2,9.97 16.25,11.01 16.25,12.3 C16.25,13.59 15.209,14.63 13.919,14.63 L8.999,14.63 C8.589,14.63 8.249,14.97 8.249,15.38 C8.249,15.79 8.589,16.13 8.999,16.13 L13.919,16.13 C16.029,16.13 17.75,14.41 17.75,12.3 C17.75,10.19 16.029,8.48 13.919,8.48 Z"/>
</svg>

