<svg xmlns="http://www.w3.org/2000/svg" width="24" height="24" viewBox="0 0 24 24">
  <defs/>
  <path fill="#292D32" d="M9,14.63 L13.92,14.63 Q14.885,14.63 15.568,13.947 Q16.25,13.265 16.25,12.3 Q16.25,9.97 13.92,9.97 L7.15,9.97 Q6.84,9.97 6.62,9.751 Q6.4,9.531 6.4,9.22 Q6.4,8.91 6.62,8.69 Q6.84,8.47 7.15,8.47 L13.92,8.47 Q15.506,8.47 16.628,9.592 Q17.75,10.715 17.75,12.3 Q17.75,13.886 16.628,15.008 Q15.506,16.13 13.92,16.13 L9,16.13 Q8.69,16.13 8.47,15.911 Q8.25,15.691 8.25,15.38 Q8.25,15.07 8.47,14.85 Q8.69,14.63 9,14.63 Z"/>
  <path fill="#292D32" d="M8.038,11.299 L6.468,9.719 Q6.25,9.499 6.25,9.189 Q6.25,8.879 6.47,8.66 L8.04,7.09 Q8.259,6.87 8.57,6.87 Q8.881,6.87 9.1,7.09 Q9.32,7.309 9.32,7.62 Q9.32,7.931 9.1,8.15 L8.059,9.192 L9.102,10.241 Q9.321,10.462 9.32,10.772 Q9.319,11.083 9.099,11.302 Q8.878,11.521 8.568,11.52 Q8.257,11.519 8.038,11.299 Z"/>
  <path fill="#292D32" d="M2.75,14 L2.75,15 Q2.75,18.439 4.155,19.845 Q5.561,21.25 9,21.25 L15,21.25 Q18.439,21.25 19.845,19.845 Q21.25,18.439 21.25,15 L21.25,9 Q21.25,2.75 15,2.75 L9,2.75 Q2.75,2.75 2.75,9 Q2.75,9.311 2.53,9.53 Q2.311,9.75 2,9.75 Q1.689,9.75 1.47,9.53 Q1.25,9.311 1.25,9 Q1.25,1.25 9,1.25 L15,1.25 Q22.75,1.25 22.75,9 L22.75,15 Q22.75,22.75 15,22.75 L9,22.75 Q1.25,22.75 1.25,15 L1.25,14 Q1.25,13.689 1.47,13.47 Q1.689,13.25 2,13.25 Q2.311,13.25 2.53,13.47 Q2.75,13.689 2.75,14 Z"/>
</svg>

