<svg xmlns="http://www.w3.org/2000/svg" width="24" height="24" viewBox="0 0 24 24">
  <defs/>
  <path fill="#292D32" d="M18.85,11.75 L16.15,11.75 C13.49,11.75 12.25,10.51 12.25,7.85 L12.25,5.15 C12.25,2.49 13.49,1.25 16.15,1.25 L18.85,1.25 C21.51,1.25 22.75,2.49 22.75,5.15 L22.75,7.85 C22.75,10.51 21.51,11.75 18.85,11.75 Z M16.15,2.75 C14.31,2.75 13.75,3.31 13.75,5.15 L13.75,7.85 C13.75,9.69 14.31,10.25 16.15,10.25 L18.85,10.25 C20.69,10.25 21.25,9.69 21.25,7.85 L21.25,5.15 C21.25,3.31 20.69,2.75 18.85,2.75 L16.15,2.75 Z"/>
  <path fill="#292D32" d="M7.85,22.75 L5.15,22.75 C2.49,22.75 1.25,21.51 1.25,18.85 L1.25,16.15 C1.25,13.49 2.49,12.25 5.15,12.25 L7.85,12.25 C10.51,12.25 11.75,13.49 11.75,16.15 L11.75,18.85 C11.75,21.51 10.51,22.75 7.85,22.75 Z M5.15,13.75 C3.31,13.75 2.75,14.31 2.75,16.15 L2.75,18.85 C2.75,20.69 3.31,21.25 5.15,21.25 L7.85,21.25 C9.69,21.25 10.25,20.69 10.25,18.85 L10.25,16.15 C10.25,14.31 9.69,13.75 7.85,13.75 L5.15,13.75 Z"/>
  <path fill="#292D32" d="M13.621,18.13 L11.001,18.13 C10.591,18.13 10.251,17.79 10.251,17.38 L10.251,16.15 C10.251,14.31 9.691,13.75 7.851,13.75 L6.621,13.75 C6.211,13.75 5.871,13.41 5.871,13 L5.871,10.38 C5.871,7.26 7.261,5.87 10.381,5.87 L13.001,5.87 C13.411,5.87 13.751,6.21 13.751,6.62 L13.751,7.85 C13.751,9.69 14.311,10.25 16.151,10.25 L17.381,10.25 C17.791,10.25 18.131,10.59 18.131,11 L18.131,13.62 C18.131,16.74 16.741,18.13 13.621,18.13 Z M11.751,16.63 L13.621,16.63 C15.901,16.63 16.631,15.9 16.631,13.62 L16.631,11.75 L16.151,11.75 C13.491,11.75 12.251,10.51 12.251,7.85 L12.251,7.37 L10.381,7.37 C8.101,7.37 7.371,8.1 7.371,10.38 L7.371,12.25 L7.851,12.25 C10.511,12.25 11.751,13.49 11.751,16.15 L11.751,16.63 Z"/>
</svg>

