<svg xmlns="http://www.w3.org/2000/svg" width="24" height="24" viewBox="0 0 24 24">
  <defs/>
  <path fill="#292D32" d="M15.96,11.58 L13.441,11.58 L13.179,12.37 L14.43,12.37 Q16.71,12.37 16.71,14.65 Q16.71,16.93 14.43,16.93 L12.14,16.93 Q11.829,16.93 11.61,16.71 Q11.39,16.491 11.39,16.18 Q11.39,15.869 11.61,15.65 Q11.829,15.43 12.14,15.43 L14.43,15.43 Q15.21,15.43 15.21,14.65 Q15.21,13.87 14.43,13.87 L12.14,13.87 Q12.019,13.87 11.904,13.832 Q11.609,13.734 11.47,13.456 Q11.33,13.179 11.428,12.884 L12.188,10.594 Q12.359,10.08 12.9,10.08 L15.96,10.08 Q16.271,10.08 16.49,10.3 Q16.71,10.519 16.71,10.83 Q16.71,11.141 16.49,11.36 Q16.271,11.58 15.96,11.58 Z"/>
  <path fill="#292D32" d="M8.79,16.17 L8.79,12.787 L8.598,13.001 Q8.39,13.232 8.08,13.249 Q7.77,13.266 7.539,13.058 Q7.308,12.85 7.291,12.54 Q7.274,12.23 7.482,11.999 L8.982,10.329 Q9.206,10.08 9.54,10.08 Q9.851,10.08 10.07,10.3 Q10.29,10.519 10.29,10.83 L10.29,16.17 Q10.29,16.481 10.07,16.7 Q9.851,16.92 9.54,16.92 Q9.229,16.92 9.01,16.7 Q8.79,16.481 8.79,16.17 Z"/>
  <path fill="#292D32" d="M9.435,4.001 L11.415,1.531 Q11.609,1.289 11.918,1.255 Q12.227,1.221 12.469,1.415 Q12.711,1.609 12.745,1.918 Q12.779,2.227 12.585,2.469 L10.605,4.939 Q10.411,5.181 10.102,5.215 Q9.793,5.249 9.551,5.055 Q9.309,4.861 9.275,4.552 Q9.241,4.243 9.435,4.001 Z"/>
  <path fill="#292D32" d="M5.51,8.25 Q3.86,10.45 3.86,13.11 Q3.86,16.482 6.244,18.866 Q8.628,21.25 12,21.25 Q15.372,21.25 17.756,18.866 Q20.14,16.482 20.14,13.11 Q20.14,9.738 17.756,7.354 Q15.372,4.97 12,4.97 Q11.131,4.97 10.191,5.19 Q9.889,5.261 9.625,5.097 Q9.361,4.934 9.29,4.631 Q9.219,4.329 9.383,4.065 Q9.546,3.801 9.849,3.73 Q10.957,3.47 12,3.47 Q15.993,3.47 18.817,6.293 Q21.64,9.117 21.64,13.11 Q21.64,17.103 18.817,19.927 Q15.993,22.75 12,22.75 Q8.007,22.75 5.183,19.927 Q2.36,17.103 2.36,13.11 Q2.36,9.95 4.31,7.35 Q4.496,7.101 4.804,7.058 Q5.111,7.014 5.36,7.2 Q5.608,7.386 5.652,7.694 Q5.696,8.001 5.51,8.25 Z"/>
</svg>

