<svg xmlns="http://www.w3.org/2000/svg" width="24" height="24" viewBox="0 0 24 24">
  <defs/>
  <path fill="#292D32" d="M12.381,16.92 L10.091,16.92 C9.681,16.92 9.341,16.58 9.341,16.17 C9.341,15.76 9.681,15.42 10.091,15.42 L12.381,15.42 C12.811,15.42 13.161,15.07 13.161,14.64 C13.161,14.21 12.811,13.86 12.381,13.86 L10.091,13.86 C9.851,13.86 9.621,13.74 9.481,13.55 C9.341,13.36 9.301,13.1 9.381,12.87 L10.141,10.58 C10.241,10.27 10.531,10.07 10.851,10.07 L13.911,10.07 C14.321,10.07 14.661,10.41 14.661,10.82 C14.661,11.23 14.321,11.57 13.911,11.57 L11.391,11.57 L11.131,12.36 L12.381,12.36 C13.641,12.36 14.661,13.38 14.661,14.64 C14.661,15.9 13.641,16.92 12.381,16.92 Z"/>
  <path fill="#292D32" opacity="0.4" d="M12,3.48 C11.92,3.48 11.84,3.49 11.76,3.49 L12.58,2.47 C12.84,2.15 12.79,1.67 12.46,1.42 C12.13,1.17 11.67,1.21 11.41,1.54 L9.43,4.01 C9.42,4.02 9.42,4.04 9.41,4.05 C9.38,4.09 9.36,4.14 9.34,4.19 C9.32,4.23 9.3,4.27 9.29,4.32 C9.28,4.37 9.28,4.41 9.28,4.46 C9.28,4.51 9.28,4.56 9.28,4.61 C9.28,4.63 9.28,4.64 9.28,4.66 C9.29,4.69 9.31,4.72 9.32,4.75 C9.34,4.8 9.36,4.84 9.38,4.89 C9.41,4.93 9.44,4.97 9.47,5 C9.49,5.03 9.51,5.06 9.54,5.08 C9.55,5.09 9.57,5.1 9.59,5.11 C9.62,5.13 9.65,5.14 9.67,5.16 C9.72,5.19 9.78,5.21 9.84,5.22 C9.87,5.23 9.9,5.23 9.93,5.24 C9.96,5.24 9.98,5.25 10.01,5.25 C10.04,5.25 10.06,5.24 10.08,5.23 C10.11,5.23 10.14,5.24 10.17,5.23 C10.81,5.08 11.41,5.01 11.98,5.01 C16.47,5.01 20.12,8.66 20.12,13.15 C20.12,17.64 16.47,21.29 11.98,21.29 C7.49,21.29 3.84,17.64 3.84,13.15 C3.84,11.41 4.41,9.73 5.49,8.29 C5.74,7.96 5.67,7.49 5.34,7.24 C5.01,6.99 4.54,7.06 4.29,7.39 C3.01,9.09 2.34,11.08 2.34,13.15 C2.34,18.46 6.66,22.79 11.98,22.79 C17.3,22.79 21.62,18.47 21.62,13.15 C21.62,7.83 17.31,3.48 12,3.48 Z"/>
</svg>

