<svg xmlns="http://www.w3.org/2000/svg" width="24" height="24" viewBox="0 0 24 24">
  <defs/>
  <path fill="#292D32" opacity="0.4" d="M22,8.34 L22,15.66 C22,17.16 20.37,18.1 19.07,17.35 L15.9,15.52 L12.73,13.69 L12.24,13.41 L12.24,10.59 L12.73,10.31 L15.9,8.48 L19.07,6.65 C20.37,5.9 22,6.84 22,8.34 Z"/>
  <path fill="#292D32" d="M12.239,8.34 L12.239,15.66 C12.239,17.16 10.61,18.1 9.319,17.35 L6.139,15.52 L2.969,13.69 C1.679,12.94 1.679,11.06 2.969,10.31 L6.139,8.48 L9.319,6.65 C10.61,5.9 12.239,6.84 12.239,8.34 Z"/>
</svg>

