<svg xmlns="http://www.w3.org/2000/svg" width="24" height="24" viewBox="0 0 24 24">
  <defs/>
  <path fill="#292D32" d="M22.75,5.15 L22.75,7.85 Q22.75,11.75 18.85,11.75 L16.15,11.75 Q12.25,11.75 12.25,7.85 L12.25,5.15 Q12.25,1.25 16.15,1.25 L18.85,1.25 Q22.75,1.25 22.75,5.15 Z M21.25,5.15 Q21.25,2.75 18.85,2.75 L16.15,2.75 Q13.75,2.75 13.75,5.15 L13.75,7.85 Q13.75,10.25 16.15,10.25 L18.85,10.25 Q21.25,10.25 21.25,7.85 Z"/>
  <path fill="#292D32" d="M11.75,16.15 L11.75,18.85 Q11.75,22.75 7.85,22.75 L5.15,22.75 Q1.25,22.75 1.25,18.85 L1.25,16.15 Q1.25,12.25 5.15,12.25 L7.85,12.25 Q11.75,12.25 11.75,16.15 Z M10.25,16.15 Q10.25,14.773 9.738,14.262 Q9.227,13.75 7.85,13.75 L5.15,13.75 Q2.75,13.75 2.75,16.15 L2.75,18.85 Q2.75,21.25 5.15,21.25 L7.85,21.25 Q10.25,21.25 10.25,18.85 Z"/>
  <path fill="#292D32" opacity="0.4" d="M18.129,11 L18.129,13.62 Q18.129,15.948 17.038,17.039 Q15.947,18.13 13.619,18.13 L10.999,18.13 Q10.688,18.13 10.469,17.91 Q10.249,17.691 10.249,17.38 L10.249,16.15 Q10.249,14.773 9.738,14.262 Q9.226,13.75 7.849,13.75 L6.619,13.75 Q6.308,13.75 6.089,13.53 Q5.869,13.311 5.869,13 L5.869,10.38 Q5.869,8.052 6.96,6.961 Q8.051,5.87 10.379,5.87 L12.999,5.87 Q13.31,5.87 13.529,6.09 Q13.749,6.309 13.749,6.62 L13.749,7.85 Q13.749,10.25 16.149,10.25 L17.379,10.25 Q17.69,10.25 17.909,10.47 Q18.129,10.689 18.129,11 Z M16.629,11.75 L16.149,11.75 Q12.249,11.75 12.249,7.85 L12.249,7.37 L10.379,7.37 Q8.672,7.37 8.021,8.022 Q7.369,8.673 7.369,10.38 L7.369,12.25 L7.849,12.25 Q9.847,12.25 10.798,13.201 Q11.749,14.152 11.749,16.15 L11.749,16.63 L13.619,16.63 Q16.629,16.63 16.629,13.62 L16.629,11.75 Z"/>
</svg>

