<svg xmlns="http://www.w3.org/2000/svg" width="24" height="24" viewBox="0 0 24 24">
  <defs/>
  <path fill="#292D32" opacity="0.4" d="M8.789,15.92 L8.789,12.537 L8.597,12.751 Q8.389,12.982 8.079,12.999 Q7.769,13.016 7.538,12.808 Q7.307,12.6 7.29,12.29 Q7.273,11.98 7.481,11.749 L8.981,10.079 Q9.205,9.83 9.539,9.83 Q9.85,9.83 10.069,10.05 Q10.289,10.269 10.289,10.58 L10.289,15.92 Q10.289,16.231 10.069,16.45 Q9.85,16.67 9.539,16.67 Q9.228,16.67 9.009,16.45 Q8.789,16.231 8.789,15.92 Z"/>
  <path fill="#292D32" d="M9.434,4.001 L11.414,1.531 Q11.609,1.289 11.917,1.255 Q12.226,1.221 12.469,1.415 Q12.711,1.609 12.745,1.918 Q12.779,2.227 12.585,2.469 L10.605,4.939 Q10.41,5.181 10.102,5.215 Q9.793,5.249 9.55,5.055 Q9.308,4.861 9.274,4.552 Q9.24,4.243 9.434,4.001 Z"/>
  <path fill="#292D32" d="M5.509,8.25 Q3.859,10.45 3.859,13.11 Q3.859,16.482 6.243,18.866 Q8.628,21.25 11.999,21.25 Q15.371,21.25 17.755,18.866 Q20.139,16.482 20.139,13.11 Q20.139,9.738 17.755,7.354 Q15.371,4.97 11.999,4.97 Q11.13,4.97 10.191,5.19 Q9.888,5.261 9.624,5.097 Q9.36,4.933 9.289,4.631 Q9.218,4.328 9.382,4.064 Q9.546,3.8 9.848,3.73 Q10.957,3.47 11.999,3.47 Q15.993,3.47 18.816,6.293 Q21.639,9.117 21.639,13.11 Q21.639,17.103 18.816,19.926 Q15.993,22.75 11.999,22.75 Q8.006,22.75 5.183,19.926 Q2.359,17.103 2.359,13.11 Q2.359,9.95 4.309,7.35 Q4.496,7.101 4.803,7.057 Q5.111,7.013 5.359,7.2 Q5.608,7.386 5.652,7.694 Q5.696,8.001 5.509,8.25 Z"/>
  <path fill="#292D32" opacity="0.4" d="M14,9.83 Q16.75,9.83 16.75,12.58 L16.75,13.93 Q16.75,16.68 14,16.68 Q11.25,16.68 11.25,13.93 L11.25,12.58 Q11.25,11.438 12.058,10.633 Q12.863,9.83 14,9.83 Z M14,11.33 Q12.75,11.33 12.75,12.58 L12.75,13.93 Q12.75,14.444 13.118,14.812 Q13.486,15.18 14,15.18 Q15.25,15.18 15.25,13.93 L15.25,12.58 Q15.25,12.066 14.882,11.698 Q14.514,11.33 14,11.33 Z"/>
</svg>

