<svg xmlns="http://www.w3.org/2000/svg" width="24" height="24" viewBox="0 0 24 24">
  <defs/>
  <path fill="#292D32" d="M9.54,16.67 C9.13,16.67 8.79,16.33 8.79,15.92 L8.79,12.53 L8.6,12.74 C8.32,13.05 7.85,13.07 7.54,12.8 C7.23,12.52 7.21,12.05 7.48,11.74 L8.98,10.07 C9.19,9.84 9.52,9.76 9.81,9.87 C10.1,9.98 10.29,10.26 10.29,10.57 L10.29,15.92 C10.29,16.34 9.96,16.67 9.54,16.67 Z"/>
  <path fill="#292D32" opacity="0.4" d="M12,3.48 C11.92,3.48 11.84,3.49 11.76,3.49 L12.58,2.47 C12.84,2.15 12.79,1.67 12.46,1.42 C12.14,1.16 11.67,1.21 11.41,1.54 L9.43,4.01 C9.42,4.02 9.42,4.04 9.41,4.05 C9.38,4.09 9.36,4.14 9.34,4.19 C9.32,4.23 9.3,4.27 9.29,4.32 C9.28,4.37 9.28,4.41 9.28,4.46 C9.28,4.51 9.28,4.56 9.28,4.61 C9.28,4.63 9.28,4.64 9.28,4.66 C9.29,4.69 9.31,4.72 9.32,4.75 C9.34,4.8 9.35,4.84 9.38,4.88 C9.41,4.92 9.44,4.96 9.48,5 C9.5,5.02 9.51,5.05 9.54,5.07 C9.55,5.08 9.57,5.08 9.58,5.09 C9.61,5.11 9.64,5.13 9.68,5.14 C9.73,5.17 9.78,5.19 9.83,5.2 C9.86,5.21 9.9,5.21 9.93,5.22 C9.96,5.22 9.98,5.23 10.01,5.23 C10.03,5.23 10.06,5.22 10.08,5.21 C10.11,5.21 10.14,5.21 10.18,5.21 C10.82,5.06 11.42,4.99 11.99,4.99 C16.48,4.99 20.13,8.64 20.13,13.13 C20.13,17.62 16.48,21.27 11.99,21.27 C7.5,21.27 3.85,17.62 3.85,13.13 C3.85,11.39 4.42,9.71 5.5,8.27 C5.75,7.94 5.68,7.47 5.35,7.22 C5.02,6.97 4.55,7.04 4.3,7.37 C3.02,9.07 2.35,11.06 2.35,13.13 C2.35,18.44 6.67,22.77 11.99,22.77 C17.31,22.77 21.63,18.45 21.63,13.13 C21.63,7.81 17.31,3.48 12,3.48 Z"/>
  <path fill="#292D32" d="M14,16.67 C12.48,16.67 11.25,15.44 11.25,13.92 L11.25,12.57 C11.25,11.05 12.48,9.82 14,9.82 C15.52,9.82 16.75,11.05 16.75,12.57 L16.75,13.92 C16.75,15.44 15.52,16.67 14,16.67 Z M14,11.33 C13.31,11.33 12.75,11.89 12.75,12.58 L12.75,13.93 C12.75,14.62 13.31,15.18 14,15.18 C14.69,15.18 15.25,14.62 15.25,13.93 L15.25,12.58 C15.25,11.89 14.69,11.33 14,11.33 Z"/>
</svg>

