<svg xmlns="http://www.w3.org/2000/svg" width="24" height="24" viewBox="0 0 24 24">
  <defs/>
  <path fill="#292D32" d="M15,22.75 L9,22.75 C3.57,22.75 1.25,20.43 1.25,15 L1.25,9 C1.25,3.57 3.57,1.25 9,1.25 L15,1.25 C20.43,1.25 22.75,3.57 22.75,9 L22.75,15 C22.75,20.43 20.43,22.75 15,22.75 Z M9,2.75 C4.39,2.75 2.75,4.39 2.75,9 L2.75,15 C2.75,19.61 4.39,21.25 9,21.25 L15,21.25 C19.61,21.25 21.25,19.61 21.25,15 L21.25,9 C21.25,4.39 19.61,2.75 15,2.75 L9,2.75 Z"/>
  <path fill="#292D32" d="M13.92,16.13 L9,16.13 C8.59,16.13 8.25,15.79 8.25,15.38 C8.25,14.97 8.59,14.63 9,14.63 L13.92,14.63 C15.2,14.63 16.25,13.59 16.25,12.3 C16.25,11.01 15.21,9.97 13.92,9.97 L7.15,9.97 C6.74,9.97 6.4,9.63 6.4,9.22 C6.4,8.81 6.74,8.47 7.15,8.47 L13.92,8.47 C16.03,8.47 17.75,10.19 17.75,12.3 C17.75,14.41 16.03,16.13 13.92,16.13 Z"/>
  <path fill="#292D32" d="M8.569,11.52 C8.379,11.52 8.189,11.45 8.039,11.3 L6.469,9.73 C6.179,9.44 6.179,8.96 6.469,8.67 L8.039,7.1 C8.329,6.81 8.809,6.81 9.099,7.1 C9.389,7.39 9.389,7.87 9.099,8.16 L8.059,9.2 L9.099,10.24 C9.389,10.53 9.389,11.01 9.099,11.3 C8.959,11.44 8.769,11.52 8.569,11.52 Z"/>
</svg>

