<svg xmlns="http://www.w3.org/2000/svg" width="24" height="24" viewBox="0 0 24 24">
  <defs/>
  <path fill="#292D32" d="M22.75,8.34 L22.75,15.66 Q22.75,17.218 21.397,17.998 Q20.045,18.778 18.696,18 L15.527,16.18 L12.355,14.35 Q11.925,14.092 11.658,13.763 Q11.49,13.556 11.49,13.29 L11.49,10.73 Q11.49,10.464 11.658,10.257 Q11.925,9.928 12.344,9.677 L15.525,7.84 L18.697,6.02 Q20.037,5.225 21.395,6.003 Q22.75,6.778 22.75,8.34 Z M21.25,8.34 Q21.25,7.648 20.65,7.305 Q20.05,6.961 19.444,7.32 L16.275,9.139 L13.116,10.963 Q13.047,11.004 12.99,11.047 L12.99,12.974 Q13.043,13.013 13.105,13.05 L16.274,14.879 L19.445,16.7 Q20.045,17.047 20.648,16.699 Q21.25,16.352 21.25,15.66 Z"/>
  <path fill="#292D32" d="M8.946,6 Q10.296,5.222 11.648,6.002 Q13.001,6.782 13.001,8.34 L13.001,15.66 Q13.001,17.218 11.648,17.999 Q10.296,18.778 8.946,18 L5.777,16.181 L2.606,14.35 Q1.256,13.571 1.256,12.014 Q1.256,10.46 2.602,9.673 L5.016,8.28 Q5.285,8.125 5.585,8.206 Q5.885,8.286 6.041,8.555 Q6.196,8.824 6.115,9.124 Q6.035,9.425 5.766,9.58 L3.359,10.968 Q2.756,11.32 2.756,12.014 Q2.756,12.704 3.356,13.051 L6.524,14.88 L9.696,16.7 Q10.296,17.047 10.899,16.699 Q11.501,16.352 11.501,15.66 L11.501,8.34 Q11.501,7.648 10.899,7.301 Q10.296,6.953 9.696,7.3 Q9.427,7.455 9.127,7.374 Q8.826,7.294 8.671,7.025 Q8.516,6.756 8.596,6.456 Q8.677,6.156 8.946,6 Z"/>
</svg>

