<svg xmlns="http://www.w3.org/2000/svg" width="24" height="24" viewBox="0 0 24 24">
  <defs/>
  <path fill="#292D32" d="M22.75,5.15 L22.75,7.85 Q22.75,11.75 18.85,11.75 L16.15,11.75 Q12.25,11.75 12.25,7.85 L12.25,5.15 Q12.25,1.25 16.15,1.25 L18.85,1.25 Q22.75,1.25 22.75,5.15 Z M21.25,5.15 Q21.25,2.75 18.85,2.75 L16.15,2.75 Q13.75,2.75 13.75,5.15 L13.75,7.85 Q13.75,10.25 16.15,10.25 L18.85,10.25 Q21.25,10.25 21.25,7.85 Z"/>
  <path fill="#292D32" d="M11.75,16.15 L11.75,18.85 Q11.75,22.75 7.85,22.75 L5.15,22.75 Q1.25,22.75 1.25,18.85 L1.25,16.15 Q1.25,12.25 5.15,12.25 L7.85,12.25 Q11.75,12.25 11.75,16.15 Z M10.25,16.15 Q10.25,14.773 9.738,14.262 Q9.227,13.75 7.85,13.75 L5.15,13.75 Q2.75,13.75 2.75,16.15 L2.75,18.85 Q2.75,21.25 5.15,21.25 L7.85,21.25 Q10.25,21.25 10.25,18.85 Z"/>
  <path fill="#292D32" d="M18.13,11 L18.13,13.62 Q18.13,15.948 17.039,17.039 Q15.948,18.13 13.62,18.13 L11,18.13 Q10.689,18.13 10.47,17.91 Q10.25,17.691 10.25,17.38 L10.25,16.15 Q10.25,14.773 9.738,14.262 Q9.227,13.75 7.85,13.75 L6.62,13.75 Q6.309,13.75 6.09,13.53 Q5.87,13.311 5.87,13 L5.87,10.38 Q5.87,8.052 6.961,6.961 Q8.052,5.87 10.38,5.87 L13,5.87 Q13.311,5.87 13.53,6.09 Q13.75,6.309 13.75,6.62 L13.75,7.85 Q13.75,9.227 14.262,9.739 Q14.773,10.25 16.15,10.25 L17.38,10.25 Q17.691,10.25 17.91,10.47 Q18.13,10.689 18.13,11 Z M16.63,11.75 L16.15,11.75 Q12.25,11.75 12.25,7.85 L12.25,7.37 L10.38,7.37 Q7.37,7.37 7.37,10.38 L7.37,12.25 L7.85,12.25 Q9.848,12.25 10.799,13.201 Q11.75,14.152 11.75,16.15 L11.75,16.63 L13.62,16.63 Q16.63,16.63 16.63,13.62 L16.63,11.75 Z"/>
</svg>

