<svg xmlns="http://www.w3.org/2000/svg" width="24" height="24" viewBox="0 0 24 24">
  <defs/>
  <path fill="#292D32" d="M14.429,16.92 L12.139,16.92 C11.729,16.92 11.389,16.58 11.389,16.17 C11.389,15.76 11.729,15.42 12.139,15.42 L14.429,15.42 C14.859,15.42 15.21,15.07 15.21,14.64 C15.21,14.21 14.859,13.86 14.429,13.86 L12.139,13.86 C11.899,13.86 11.669,13.74 11.53,13.55 C11.389,13.36 11.349,13.1 11.429,12.87 L12.189,10.58 C12.289,10.27 12.579,10.07 12.899,10.07 L15.96,10.07 C16.369,10.07 16.709,10.41 16.709,10.82 C16.709,11.23 16.369,11.57 15.96,11.57 L13.439,11.57 L13.179,12.36 L14.429,12.36 C15.689,12.36 16.709,13.38 16.709,14.64 C16.709,15.9 15.679,16.92 14.429,16.92 Z"/>
  <path fill="#292D32" d="M9.54,16.92 C9.13,16.92 8.79,16.58 8.79,16.17 L8.79,12.78 L8.6,13 C8.32,13.31 7.85,13.33 7.54,13.06 C7.23,12.78 7.21,12.31 7.48,12 L8.98,10.33 C9.19,10.1 9.52,10.02 9.81,10.13 C10.1,10.24 10.29,10.52 10.29,10.83 L10.29,16.18 C10.29,16.59 9.96,16.92 9.54,16.92 Z"/>
  <path fill="#292D32" opacity="0.4" d="M12,3.48 C11.92,3.48 11.84,3.49 11.76,3.49 L12.58,2.47 C12.84,2.15 12.79,1.67 12.46,1.42 C12.13,1.17 11.67,1.21 11.41,1.54 L9.43,4.01 C9.42,4.02 9.42,4.04 9.41,4.05 C9.38,4.09 9.36,4.14 9.34,4.19 C9.32,4.23 9.3,4.27 9.29,4.32 C9.28,4.37 9.28,4.41 9.28,4.46 C9.28,4.51 9.28,4.56 9.28,4.61 C9.28,4.63 9.28,4.64 9.28,4.66 C9.29,4.69 9.31,4.72 9.32,4.75 C9.34,4.8 9.36,4.84 9.38,4.89 C9.41,4.93 9.44,4.97 9.48,5 C9.5,5.02 9.52,5.05 9.54,5.08 C9.55,5.09 9.57,5.09 9.58,5.1 C9.61,5.12 9.64,5.13 9.67,5.15 C9.72,5.18 9.78,5.2 9.83,5.21 C9.86,5.22 9.89,5.22 9.93,5.23 C9.96,5.23 9.98,5.24 10.01,5.24 C10.04,5.24 10.06,5.23 10.08,5.22 C10.11,5.22 10.14,5.23 10.17,5.22 C10.81,5.07 11.41,5 11.98,5 C16.47,5 20.12,8.65 20.12,13.14 C20.12,17.63 16.47,21.28 11.98,21.28 C7.49,21.28 3.84,17.63 3.84,13.14 C3.84,11.4 4.41,9.72 5.49,8.28 C5.74,7.95 5.67,7.48 5.34,7.23 C5.01,6.98 4.54,7.05 4.29,7.38 C3.01,9.08 2.34,11.07 2.34,13.14 C2.34,18.45 6.66,22.78 11.98,22.78 C17.3,22.78 21.62,18.46 21.62,13.14 C21.62,7.82 17.31,3.48 12,3.48 Z"/>
</svg>

