<svg xmlns="http://www.w3.org/2000/svg" width="24" height="24" viewBox="0 0 24 24">
  <defs/>
  <path fill="#292D32" d="M14.429,16.92 L12.139,16.92 C11.729,16.92 11.389,16.58 11.389,16.17 C11.389,15.76 11.729,15.42 12.139,15.42 L14.429,15.42 C14.859,15.42 15.21,15.07 15.21,14.64 C15.21,14.21 14.859,13.86 14.429,13.86 L12.139,13.86 C11.899,13.86 11.669,13.74 11.53,13.55 C11.389,13.36 11.349,13.1 11.429,12.87 L12.189,10.58 C12.289,10.27 12.579,10.07 12.899,10.07 L15.96,10.07 C16.369,10.07 16.709,10.41 16.709,10.82 C16.709,11.23 16.369,11.57 15.96,11.57 L13.439,11.57 L13.179,12.36 L14.429,12.36 C15.689,12.36 16.709,13.38 16.709,14.64 C16.709,15.9 15.679,16.92 14.429,16.92 Z"/>
  <path fill="#292D32" d="M9.54,16.92 C9.13,16.92 8.79,16.58 8.79,16.17 L8.79,12.78 L8.6,13 C8.32,13.31 7.85,13.33 7.54,13.06 C7.23,12.78 7.21,12.31 7.48,12 L8.98,10.33 C9.19,10.1 9.52,10.02 9.81,10.13 C10.1,10.24 10.29,10.52 10.29,10.83 L10.29,16.18 C10.29,16.59 9.96,16.92 9.54,16.92 Z"/>
  <path fill="#292D32" d="M10.02,5.22 C9.85,5.22 9.69,5.17 9.55,5.05 C9.23,4.79 9.18,4.32 9.43,4 L11.41,1.53 C11.67,1.21 12.14,1.16 12.46,1.41 C12.78,1.66 12.83,2.14 12.58,2.46 L10.6,4.93 C10.46,5.12 10.24,5.22 10.02,5.22 Z"/>
  <path fill="#292D32" d="M11.999,22.75 C6.689,22.75 2.359,18.43 2.359,13.11 C2.359,11.04 3.029,9.05 4.309,7.35 C4.559,7.02 5.029,6.95 5.359,7.2 C5.689,7.45 5.759,7.92 5.509,8.25 C4.429,9.69 3.859,11.37 3.859,13.11 C3.859,17.6 7.509,21.25 11.999,21.25 C16.489,21.25 20.139,17.6 20.139,13.11 C20.139,8.62 16.489,4.97 11.999,4.97 C11.419,4.97 10.829,5.04 10.189,5.19 C9.779,5.28 9.379,5.03 9.289,4.63 C9.199,4.23 9.449,3.82 9.849,3.73 C10.599,3.56 11.309,3.47 11.999,3.47 C17.309,3.47 21.639,7.79 21.639,13.11 C21.639,18.43 17.309,22.75 11.999,22.75 Z"/>
</svg>

