<svg xmlns="http://www.w3.org/2000/svg" width="24" height="24" viewBox="0 0 24 24">
  <defs/>
  <path fill="#292D32" d="M12.381,16.92 L10.091,16.92 C9.681,16.92 9.341,16.58 9.341,16.17 C9.341,15.76 9.681,15.42 10.091,15.42 L12.381,15.42 C12.811,15.42 13.161,15.07 13.161,14.64 C13.161,14.21 12.811,13.86 12.381,13.86 L10.091,13.86 C9.851,13.86 9.621,13.74 9.481,13.55 C9.341,13.36 9.301,13.1 9.381,12.87 L10.141,10.58 C10.241,10.27 10.531,10.07 10.851,10.07 L13.911,10.07 C14.321,10.07 14.661,10.41 14.661,10.82 C14.661,11.23 14.321,11.57 13.911,11.57 L11.391,11.57 L11.131,12.36 L12.381,12.36 C13.641,12.36 14.661,13.38 14.661,14.64 C14.661,15.9 13.641,16.92 12.381,16.92 Z"/>
  <path fill="#292D32" d="M10.02,5.22 C9.85,5.22 9.69,5.17 9.55,5.05 C9.23,4.79 9.18,4.32 9.43,4 L11.41,1.53 C11.67,1.21 12.14,1.16 12.46,1.41 C12.78,1.67 12.83,2.14 12.58,2.46 L10.6,4.93 C10.46,5.12 10.24,5.22 10.02,5.22 Z"/>
  <path fill="#292D32" d="M11.999,22.75 C6.689,22.75 2.359,18.43 2.359,13.11 C2.359,11.04 3.029,9.05 4.309,7.35 C4.559,7.02 5.029,6.95 5.359,7.2 C5.689,7.45 5.759,7.92 5.509,8.25 C4.429,9.69 3.859,11.37 3.859,13.11 C3.859,17.6 7.509,21.25 11.999,21.25 C16.489,21.25 20.139,17.6 20.139,13.11 C20.139,8.62 16.489,4.97 11.999,4.97 C11.419,4.97 10.829,5.04 10.189,5.19 C9.789,5.28 9.379,5.03 9.289,4.63 C9.199,4.23 9.449,3.82 9.849,3.73 C10.599,3.56 11.309,3.47 11.999,3.47 C17.309,3.47 21.639,7.79 21.639,13.11 C21.639,18.43 17.309,22.75 11.999,22.75 Z"/>
</svg>

