<svg xmlns="http://www.w3.org/2000/svg" width="24" height="24" viewBox="0 0 24 24">
  <defs/>
  <path fill="#292D32" d="M9.54,16.67 C9.13,16.67 8.79,16.33 8.79,15.92 L8.79,12.53 L8.6,12.74 C8.32,13.05 7.85,13.07 7.54,12.8 C7.23,12.52 7.21,12.05 7.48,11.74 L8.98,10.07 C9.19,9.84 9.52,9.76 9.81,9.87 C10.1,9.98 10.29,10.26 10.29,10.57 L10.29,15.92 C10.29,16.34 9.96,16.67 9.54,16.67 Z"/>
  <path fill="#292D32" d="M10.02,5.22 C9.85,5.22 9.69,5.17 9.55,5.05 C9.23,4.79 9.18,4.32 9.43,4 L11.41,1.53 C11.67,1.21 12.14,1.16 12.46,1.41 C12.78,1.66 12.83,2.14 12.58,2.46 L10.6,4.93 C10.46,5.12 10.24,5.22 10.02,5.22 Z"/>
  <path fill="#292D32" d="M11.999,22.75 C6.689,22.75 2.359,18.43 2.359,13.11 C2.359,11.04 3.029,9.05 4.309,7.35 C4.559,7.02 5.029,6.95 5.359,7.2 C5.689,7.45 5.759,7.92 5.509,8.25 C4.429,9.69 3.859,11.37 3.859,13.11 C3.859,17.6 7.509,21.25 11.999,21.25 C16.489,21.25 20.139,17.6 20.139,13.11 C20.139,8.62 16.489,4.97 11.999,4.97 C11.419,4.97 10.829,5.04 10.189,5.19 C9.789,5.28 9.379,5.03 9.289,4.63 C9.199,4.23 9.449,3.82 9.849,3.73 C10.599,3.56 11.309,3.47 11.999,3.47 C17.309,3.47 21.639,7.79 21.639,13.11 C21.639,18.43 17.309,22.75 11.999,22.75 Z"/>
  <path fill="#292D32" d="M14,16.67 C12.48,16.67 11.25,15.44 11.25,13.92 L11.25,12.57 C11.25,11.05 12.48,9.82 14,9.82 C15.52,9.82 16.75,11.05 16.75,12.57 L16.75,13.92 C16.75,15.44 15.52,16.67 14,16.67 Z M14,11.33 C13.31,11.33 12.75,11.89 12.75,12.58 L12.75,13.93 C12.75,14.62 13.31,15.18 14,15.18 C14.69,15.18 15.25,14.62 15.25,13.93 L15.25,12.58 C15.25,11.89 14.69,11.33 14,11.33 Z"/>
</svg>

