<svg xmlns="http://www.w3.org/2000/svg" width="24" height="24" viewBox="0 0 24 24">
  <defs/>
  <path fill="#292D32" d="M9.541,16.671 C9.132,16.671 8.791,16.331 8.791,15.921 L8.791,12.531 L8.601,12.751 C8.322,13.061 7.851,13.081 7.542,12.811 C7.231,12.531 7.212,12.061 7.481,11.751 L8.982,10.081 C9.191,9.851 9.521,9.771 9.812,9.881 C10.101,9.991 10.291,10.271 10.291,10.581 L10.291,15.931 C10.291,16.341 9.961,16.671 9.541,16.671 Z"/>
  <path fill="#292D32" d="M12.001,3.48 C11.921,3.48 11.841,3.49 11.761,3.49 L12.581,2.47 C12.841,2.15 12.791,1.67 12.461,1.42 C12.141,1.16 11.671,1.21 11.411,1.54 L9.441,4 C9.431,4.01 9.431,4.02 9.421,4.04 C9.391,4.08 9.371,4.13 9.351,4.17 C9.331,4.22 9.311,4.26 9.301,4.3 C9.291,4.35 9.291,4.39 9.291,4.44 C9.291,4.49 9.291,4.54 9.291,4.59 C9.291,4.61 9.291,4.62 9.291,4.64 C9.301,4.67 9.321,4.69 9.331,4.73 C9.351,4.78 9.361,4.82 9.391,4.86 C9.421,4.9 9.451,4.94 9.491,4.98 C9.511,5 9.531,5.03 9.551,5.05 C9.561,5.06 9.581,5.06 9.591,5.07 C9.621,5.09 9.651,5.11 9.691,5.12 C9.741,5.15 9.791,5.17 9.841,5.18 C9.881,5.2 9.911,5.2 9.951,5.2 C9.981,5.2 10.001,5.21 10.031,5.21 C10.051,5.21 10.081,5.2 10.101,5.19 C10.131,5.19 10.161,5.19 10.201,5.19 C10.841,5.04 11.441,4.97 12.011,4.97 C16.501,4.97 20.151,8.62 20.151,13.11 C20.151,17.6 16.501,21.25 12.011,21.25 C7.521,21.25 3.871,17.6 3.871,13.11 C3.871,11.37 4.441,9.69 5.521,8.25 C5.771,7.92 5.701,7.45 5.371,7.2 C5.041,6.95 4.571,7.02 4.321,7.35 C3.041,9.05 2.371,11.04 2.371,13.11 C2.371,18.42 6.691,22.75 12.011,22.75 C17.331,22.75 21.651,18.43 21.651,13.11 C21.651,7.79 17.311,3.48 12.001,3.48 Z"/>
  <path fill="#292D32" d="M14,16.67 C12.48,16.67 11.25,15.44 11.25,13.92 L11.25,12.57 C11.25,11.05 12.48,9.82 14,9.82 C15.52,9.82 16.75,11.05 16.75,12.57 L16.75,13.92 C16.75,15.44 15.52,16.67 14,16.67 Z M14,11.33 C13.31,11.33 12.75,11.89 12.75,12.58 L12.75,13.93 C12.75,14.62 13.31,15.18 14,15.18 C14.69,15.18 15.25,14.62 15.25,13.93 L15.25,12.58 C15.25,11.89 14.69,11.33 14,11.33 Z"/>
</svg>

