<svg xmlns="http://www.w3.org/2000/svg" width="24" height="24" viewBox="0 0 24 24">
  <defs/>
  <path fill="#292D32" opacity="0.4" d="M13.91,11.58 L11.391,11.58 L11.129,12.37 L12.38,12.37 Q14.66,12.37 14.66,14.65 Q14.66,16.93 12.38,16.93 L10.09,16.93 Q9.779,16.93 9.559,16.71 Q9.34,16.491 9.34,16.18 Q9.34,15.869 9.559,15.65 Q9.779,15.43 10.09,15.43 L12.38,15.43 Q13.16,15.43 13.16,14.65 Q13.16,13.87 12.38,13.87 L10.09,13.87 Q9.969,13.87 9.854,13.832 Q9.559,13.734 9.419,13.456 Q9.28,13.179 9.378,12.884 L10.138,10.594 Q10.309,10.08 10.85,10.08 L13.91,10.08 Q14.221,10.08 14.44,10.3 Q14.66,10.519 14.66,10.83 Q14.66,11.141 14.44,11.36 Q14.221,11.58 13.91,11.58 Z"/>
  <path fill="#292D32" d="M9.434,4.001 L11.414,1.531 Q11.609,1.289 11.917,1.255 Q12.226,1.221 12.469,1.415 Q12.711,1.609 12.745,1.918 Q12.779,2.227 12.585,2.469 L10.605,4.939 Q10.41,5.181 10.102,5.215 Q9.793,5.249 9.55,5.055 Q9.308,4.861 9.274,4.552 Q9.24,4.243 9.434,4.001 Z"/>
  <path fill="#292D32" d="M5.509,8.25 Q3.859,10.45 3.859,13.11 Q3.859,16.482 6.243,18.866 Q8.628,21.25 11.999,21.25 Q15.371,21.25 17.755,18.866 Q20.139,16.482 20.139,13.11 Q20.139,9.738 17.755,7.354 Q15.371,4.97 11.999,4.97 Q11.13,4.97 10.191,5.19 Q9.888,5.261 9.624,5.097 Q9.36,4.933 9.289,4.631 Q9.218,4.328 9.382,4.064 Q9.546,3.8 9.848,3.73 Q10.957,3.47 11.999,3.47 Q15.993,3.47 18.816,6.293 Q21.639,9.117 21.639,13.11 Q21.639,17.103 18.816,19.926 Q15.993,22.75 11.999,22.75 Q8.006,22.75 5.183,19.926 Q2.359,17.103 2.359,13.11 Q2.359,9.95 4.309,7.35 Q4.496,7.101 4.803,7.057 Q5.111,7.013 5.359,7.2 Q5.608,7.386 5.652,7.694 Q5.696,8.001 5.509,8.25 Z"/>
</svg>

