<svg xmlns="http://www.w3.org/2000/svg" width="24" height="24" viewBox="0 0 24 24">
  <defs/>
  <path fill="#292D32" d="M21.998,8.34 L21.998,15.66 C21.998,17.16 20.368,18.1 19.068,17.35 L15.898,15.52 L12.728,13.69 L12.238,13.41 L12.238,10.59 L12.728,10.31 L15.898,8.48 L19.068,6.65 C20.368,5.9 21.998,6.84 21.998,8.34 Z"/>
  <path fill="#292D32" d="M12.241,8.34 L12.241,15.66 C12.241,17.16 10.611,18.1 9.321,17.35 L6.141,15.52 L2.971,13.69 C1.681,12.94 1.681,11.06 2.971,10.31 L6.141,8.48 L9.321,6.65 C10.611,5.9 12.241,6.84 12.241,8.34 Z"/>
</svg>

