<svg xmlns="http://www.w3.org/2000/svg" width="24" height="24" viewBox="0 0 24 24">
  <defs/>
  <path fill="#292D32" opacity="0.4" d="M21.25,5.15 L21.25,7.85 C21.25,9.69 20.69,10.25 18.85,10.25 L16.15,10.25 C14.31,10.25 13.75,9.69 13.75,7.85 L13.75,5.15 C13.75,3.31 14.31,2.75 16.15,2.75 L18.85,2.75 C20.69,2.75 21.25,3.31 21.25,5.15 Z"/>
  <path fill="#292D32" opacity="0.4" d="M10.25,16.15 L10.25,18.85 C10.25,20.69 9.69,21.25 7.85,21.25 L5.15,21.25 C3.31,21.25 2.75,20.69 2.75,18.85 L2.75,16.15 C2.75,14.31 3.31,13.75 5.15,13.75 L7.85,13.75 C9.69,13.75 10.25,14.31 10.25,16.15 Z"/>
  <path fill="#292D32" d="M16.629,11.75 L16.629,13.62 C16.629,15.9 15.899,16.63 13.619,16.63 L11.749,16.63 L11.749,16.15 C11.749,13.49 10.509,12.25 7.849,12.25 L7.369,12.25 L7.369,10.38 C7.369,8.1 8.099,7.37 10.379,7.37 L12.249,7.37 L12.249,7.85 C12.249,10.51 13.489,11.75 16.149,11.75 L16.629,11.75 Z"/>
</svg>

