<svg xmlns="http://www.w3.org/2000/svg" width="24" height="24" viewBox="0 0 24 24">
  <defs/>
  <path fill="#292D32" d="M22.75,8.34 L22.75,15.66 Q22.75,17.218 21.397,17.998 Q20.045,18.778 18.695,18 L15.527,16.18 L12.355,14.35 Q11.925,14.092 11.658,13.763 Q11.49,13.556 11.49,13.29 L11.49,10.73 Q11.49,10.464 11.658,10.257 Q11.925,9.928 12.344,9.677 L15.525,7.84 L18.697,6.02 Q20.037,5.225 21.395,6.003 Q22.75,6.778 22.75,8.34 Z M21.25,8.34 Q21.25,7.648 20.65,7.305 Q20.05,6.961 19.443,7.32 L16.275,9.139 L13.116,10.963 Q13.047,11.004 12.99,11.047 L12.99,12.974 Q13.043,13.013 13.105,13.05 L16.273,14.879 L19.445,16.7 Q20.045,17.047 20.648,16.699 Q21.25,16.352 21.25,15.66 Z"/>
  <path fill="#292D32" d="M12.99,8.34 L12.99,15.66 Q12.99,17.218 11.637,17.998 Q10.285,18.778 8.935,18 L5.767,16.18 L2.595,14.35 Q1.245,13.571 1.245,12.014 Q1.245,10.46 2.591,9.673 L5.765,7.84 L8.937,6.02 Q10.277,5.225 11.635,6.003 Q12.99,6.778 12.99,8.34 Z M11.49,8.34 Q11.49,7.648 10.89,7.305 Q10.29,6.961 9.683,7.32 L6.515,9.139 L3.349,10.967 Q2.745,11.32 2.745,12.014 Q2.745,12.704 3.345,13.05 L6.513,14.879 L9.685,16.7 Q10.285,17.047 10.888,16.699 Q11.49,16.352 11.49,15.66 Z"/>
</svg>

