<svg xmlns="http://www.w3.org/2000/svg" width="24" height="24" viewBox="0 0 24 24">
  <defs/>
  <path fill="#292D32" d="M20.05,18.36 C19.59,18.36 19.12,18.24 18.7,17.99 L12.36,14.33 C12.07,14.16 11.84,13.96 11.67,13.74 C11.56,13.61 11.5,13.44 11.5,13.27 L11.5,10.71 C11.5,10.54 11.56,10.37 11.67,10.24 C11.85,10.02 12.08,9.82 12.36,9.66 L18.71,5.99 C19.55,5.5 20.56,5.5 21.41,5.99 C22.26,6.48 22.76,7.35 22.76,8.33 L22.76,15.65 C22.76,16.63 22.26,17.5 21.41,17.99 C20.98,18.24 20.51,18.36 20.05,18.36 Z M12.99,12.96 C13.03,12.99 13.07,13.02 13.11,13.04 L19.44,16.69 C19.82,16.91 20.27,16.91 20.64,16.69 C21.02,16.47 21.24,16.08 21.24,15.65 L21.24,8.33 C21.24,7.9 21.02,7.51 20.64,7.29 C20.26,7.07 19.82,7.07 19.44,7.29 L13.1,10.95 C13.06,10.97 13.02,11 12.99,11.03 L12.99,12.96 Z"/>
  <path fill="#292D32" d="M10.29,18.36 C9.83,18.36 9.36,18.24 8.94,17.99 L2.6,14.33 C1.76,13.84 1.25,12.97 1.25,11.99 C1.25,11.01 1.75,10.14 2.6,9.65 L8.94,5.99 C9.78,5.5 10.79,5.5 11.64,5.99 C12.49,6.48 12.99,7.35 12.99,8.33 L12.99,15.65 C12.99,16.63 12.49,17.5 11.64,17.99 C11.22,18.24 10.75,18.36 10.29,18.36 Z M10.29,7.14 C10.08,7.14 9.88,7.19 9.69,7.3 L3.35,10.96 C2.97,11.18 2.75,11.57 2.75,12 C2.75,12.43 2.97,12.82 3.35,13.04 L9.69,16.7 C10.07,16.92 10.52,16.92 10.89,16.7 C11.27,16.48 11.49,16.1 11.49,15.66 L11.49,8.34 C11.49,7.91 11.27,7.52 10.89,7.3 C10.7,7.19 10.5,7.14 10.29,7.14 Z"/>
</svg>

