<svg xmlns="http://www.w3.org/2000/svg" width="24" height="24" viewBox="0 0 24 24">
  <defs/>
  <path fill="#292D32" d="M19.96,8.958 C19.29,8.218 18.28,7.788 16.88,7.638 L16.88,6.878 C16.88,5.508 16.3,4.188 15.28,3.268 C14.25,2.328 12.91,1.888 11.52,2.018 C9.13,2.248 7.12,4.558 7.12,7.058 L7.12,7.638 C5.72,7.788 4.71,8.218 4.04,8.958 C3.07,10.038 3.1,11.478 3.21,12.478 L3.91,18.048 C4.12,19.998 4.91,21.998 9.21,21.998 L14.79,21.998 C19.09,21.998 19.88,19.998 20.09,18.058 L20.79,12.468 C20.9,11.478 20.93,10.038 19.96,8.958 Z M11.66,3.408 C12.66,3.318 13.61,3.628 14.35,4.298 C15.08,4.958 15.49,5.898 15.49,6.878 L15.49,7.578 L8.51,7.578 L8.51,7.058 C8.51,5.278 9.98,3.568 11.66,3.408 Z M12,18.578 C9.91,18.578 8.21,16.878 8.21,14.788 C8.21,12.698 9.91,10.998 12,10.998 C14.09,10.998 15.79,12.698 15.79,14.788 C15.79,16.878 14.09,18.578 12,18.578 Z"/>
  <path fill="#292D32" d="M13.599,15.31 L13.069,14.78 L13.569,14.28 C13.859,13.99 13.859,13.51 13.569,13.22 C13.279,12.93 12.799,12.93 12.509,13.22 L12.009,13.72 L11.479,13.19 C11.189,12.9 10.709,12.9 10.419,13.19 C10.129,13.48 10.129,13.96 10.419,14.25 L10.949,14.78 L10.399,15.33 C10.109,15.62 10.109,16.1 10.399,16.39 C10.549,16.54 10.739,16.61 10.929,16.61 C11.119,16.61 11.309,16.54 11.459,16.39 L12.009,15.84 L12.539,16.37 C12.689,16.52 12.879,16.59 13.069,16.59 C13.259,16.59 13.449,16.52 13.599,16.37 C13.889,16.08 13.889,15.61 13.599,15.31 Z"/>
</svg>

