<svg xmlns="http://www.w3.org/2000/svg" width="24" height="24" viewBox="0 0 24 24">
  <defs/>
  <path fill="#292D32" opacity="0.4" d="M16.189,8.86 C15.799,8.86 15.489,8.55 15.489,8.16 L15.489,6.88 C15.489,5.9 15.069,4.96 14.349,4.3 C13.609,3.63 12.659,3.32 11.659,3.41 C9.979,3.57 8.509,5.28 8.509,7.06 L8.509,7.96 C8.509,8.35 8.199,8.66 7.809,8.66 C7.419,8.66 7.109,8.35 7.109,7.96 L7.109,7.06 C7.109,4.56 9.129,2.25 11.519,2.02 C12.909,1.89 14.249,2.33 15.279,3.27 C16.299,4.19 16.879,5.51 16.879,6.88 L16.879,8.16 C16.879,8.55 16.569,8.86 16.189,8.86 Z"/>
  <path fill="#292D32" d="M19.96,8.96 C19.12,8.03 17.74,7.58 15.72,7.58 L8.28,7.58 C6.26,7.58 4.88,8.03 4.04,8.96 C3.07,10.04 3.1,11.48 3.21,12.48 L3.91,18.05 C4.12,20 4.91,22 9.21,22 L14.79,22 C19.09,22 19.88,20 20.09,18.06 L20.79,12.47 C20.9,11.48 20.93,10.04 19.96,8.96 Z M12,18.58 C9.91,18.58 8.21,16.88 8.21,14.79 C8.21,12.7 9.91,11 12,11 C14.09,11 15.79,12.7 15.79,14.79 C15.79,16.88 14.09,18.58 12,18.58 Z"/>
  <path fill="#292D32" opacity="0.4" d="M12.001,18.58 C14.094,18.58 15.791,16.883 15.791,14.79 C15.791,12.697 14.094,11 12.001,11 C9.908,11 8.211,12.697 8.211,14.79 C8.211,16.883 9.908,18.58 12.001,18.58 Z"/>
  <path fill="#292D32" d="M13.599,15.31 L13.069,14.78 L13.569,14.28 C13.859,13.99 13.859,13.51 13.569,13.22 C13.279,12.93 12.799,12.93 12.509,13.22 L12.009,13.72 L11.479,13.19 C11.189,12.9 10.709,12.9 10.419,13.19 C10.129,13.48 10.129,13.96 10.419,14.25 L10.949,14.78 L10.399,15.33 C10.109,15.62 10.109,16.1 10.399,16.39 C10.549,16.54 10.739,16.61 10.929,16.61 C11.119,16.61 11.309,16.54 11.459,16.39 L12.009,15.84 L12.539,16.37 C12.689,16.52 12.879,16.59 13.069,16.59 C13.259,16.59 13.449,16.52 13.599,16.37 C13.889,16.08 13.889,15.61 13.599,15.31 Z"/>
</svg>

