<svg xmlns="http://www.w3.org/2000/svg" width="24" height="24" viewBox="0 0 24 24">
  <defs/>
  <path fill="#292D32" d="M9.341,2.53 L5.721,6.16 Q5.501,6.38 5.19,6.38 Q4.88,6.38 4.66,6.161 Q4.44,5.942 4.439,5.631 Q4.439,5.32 4.658,5.1 L8.278,1.47 Q8.498,1.25 8.808,1.25 Q9.119,1.25 9.339,1.469 Q9.559,1.688 9.559,1.999 Q9.56,2.31 9.341,2.53 Z"/>
  <path fill="#292D32" d="M15.721,1.47 L19.341,5.1 Q19.56,5.32 19.559,5.631 Q19.559,5.942 19.339,6.161 Q19.119,6.38 18.808,6.38 Q18.498,6.38 18.278,6.16 L14.658,2.53 Q14.439,2.31 14.439,1.999 Q14.44,1.688 14.66,1.469 Q14.88,1.25 15.191,1.25 Q15.501,1.25 15.721,1.47 Z"/>
  <path fill="#292D32" d="M1.25,7.85 Q1.25,6.191 2.231,5.533 Q2.878,5.1 4.22,5.1 L19.78,5.1 Q22.75,5.1 22.75,7.85 Q22.75,9.601 21.853,10.226 Q21.299,10.611 20.001,10.601 Q19.854,10.6 19.78,10.6 L4.22,10.6 Q4.146,10.6 3.999,10.601 Q2.701,10.611 2.147,10.226 Q1.25,9.601 1.25,7.85 Z M2.75,7.85 Q2.75,8.817 3.004,8.995 Q3.167,9.108 3.988,9.101 Q4.141,9.1 4.22,9.1 L19.78,9.1 Q19.859,9.1 20.012,9.101 Q20.833,9.108 20.996,8.995 Q21.25,8.817 21.25,7.85 Q21.25,6.6 19.78,6.6 L4.22,6.6 Q3.334,6.6 3.066,6.779 Q2.75,6.991 2.75,7.85 Z"/>
  <path fill="#292D32" d="M10.51,14 L10.51,17.55 Q10.51,17.861 10.29,18.08 Q10.07,18.3 9.76,18.3 Q9.449,18.3 9.229,18.08 Q9.01,17.861 9.01,17.55 L9.01,14 Q9.01,13.689 9.229,13.47 Q9.449,13.25 9.76,13.25 Q10.07,13.25 10.29,13.47 Q10.51,13.689 10.51,14 Z"/>
  <path fill="#292D32" d="M15.109,14 L15.109,17.55 Q15.109,17.861 14.89,18.08 Q14.67,18.3 14.359,18.3 Q14.049,18.3 13.829,18.08 Q13.609,17.861 13.609,17.55 L13.609,14 Q13.609,13.689 13.829,13.47 Q14.049,13.25 14.359,13.25 Q14.67,13.25 14.89,13.47 Q15.109,13.689 15.109,14 Z"/>
  <path fill="#292D32" d="M5.65,18.518 Q6.101,21.25 8.86,21.25 L14.89,21.25 Q17.58,21.25 18.084,18.619 L19.764,9.859 Q19.822,9.554 20.079,9.379 Q20.336,9.205 20.641,9.263 Q20.947,9.322 21.121,9.579 Q21.295,9.836 21.237,10.141 L19.557,18.901 Q18.82,22.75 14.89,22.75 L8.86,22.75 Q4.828,22.75 4.17,18.762 Q4.12,18.456 4.301,18.203 Q4.482,17.951 4.788,17.9 Q5.095,17.849 5.347,18.03 Q5.6,18.211 5.65,18.518 Z"/>
  <path fill="#292D32" d="M4.24,9.878 L4.96,14.258 Q5.01,14.565 4.829,14.817 Q4.648,15.07 4.342,15.12 Q4.035,15.17 3.783,14.989 Q3.53,14.808 3.48,14.502 L2.76,10.122 Q2.71,9.815 2.891,9.563 Q3.072,9.31 3.378,9.26 Q3.685,9.21 3.937,9.391 Q4.19,9.572 4.24,9.878 Z"/>
</svg>

