<svg xmlns="http://www.w3.org/2000/svg" width="24" height="24" viewBox="0 0 24 24">
  <defs/>
  <path fill="#292D32" d="M12,19.75 C9.38,19.75 7.25,17.62 7.25,15 C7.25,12.38 9.38,10.25 12,10.25 C14.62,10.25 16.75,12.38 16.75,15 C16.75,17.62 14.62,19.75 12,19.75 Z M12,11.75 C10.21,11.75 8.75,13.21 8.75,15 C8.75,16.79 10.21,18.25 12,18.25 C13.79,18.25 15.25,16.79 15.25,15 C15.25,13.21 13.79,11.75 12,11.75 Z"/>
  <path fill="#292D32" d="M13.07,16.86 C12.88,16.86 12.69,16.79 12.54,16.64 L10.43,14.53 C10.14,14.24 10.14,13.76 10.43,13.47 C10.72,13.18 11.2,13.18 11.49,13.47 L13.6,15.58 C13.89,15.87 13.89,16.35 13.6,16.64 C13.45,16.79 13.26,16.86 13.07,16.86 Z"/>
  <path fill="#292D32" d="M10.929,16.89 C10.739,16.89 10.549,16.82 10.399,16.67 C10.109,16.38 10.109,15.9 10.399,15.61 L12.509,13.5 C12.799,13.21 13.279,13.21 13.569,13.5 C13.859,13.79 13.859,14.27 13.569,14.56 L11.459,16.67 C11.309,16.81 11.119,16.89 10.929,16.89 Z"/>
  <path fill="#292D32" d="M15,22.75 L9,22.75 C4.38,22.75 3.52,20.6 3.3,18.51 L2.55,12.52 C2.44,11.44 2.4,9.89 3.45,8.73 C4.35,7.73 5.84,7.25 8,7.25 L16,7.25 C18.17,7.25 19.66,7.74 20.55,8.73 C21.59,9.89 21.56,11.44 21.45,12.5 L20.7,18.51 C20.48,20.6 19.62,22.75 15,22.75 Z M8,8.75 C6.31,8.75 5.15,9.08 4.56,9.74 C4.07,10.28 3.91,11.11 4.04,12.35 L4.79,18.34 C4.96,19.94 5.4,21.26 9,21.26 L15,21.26 C18.6,21.26 19.04,19.95 19.21,18.36 L19.96,12.35 C20.09,11.13 19.93,10.3 19.44,9.75 C18.85,9.08 17.69,8.75 16,8.75 L8,8.75 Z"/>
  <path fill="#292D32" d="M16.5,8.63 C16.09,8.63 15.75,8.29 15.75,7.88 L15.75,6.5 C15.75,5.45 15.3,4.43 14.52,3.72 C13.73,3 12.7,2.67 11.63,2.77 C9.83,2.94 8.25,4.78 8.25,6.7 L8.25,7.67 C8.25,8.08 7.91,8.42 7.5,8.42 C7.09,8.42 6.75,8.08 6.75,7.67 L6.75,6.69 C6.75,4 8.92,1.52 11.49,1.27 C12.99,1.13 14.43,1.6 15.53,2.61 C16.62,3.6 17.25,5.02 17.25,6.5 L17.25,7.88 C17.25,8.29 16.91,8.63 16.5,8.63 Z"/>
</svg>

