<svg xmlns="http://www.w3.org/2000/svg" width="24" height="24" viewBox="0 0 24 24">
  <defs/>
  <path fill="#292D32" d="M12.86,17.89 L10.11,15.14 Q9.89,14.921 9.89,14.61 Q9.89,14.299 10.11,14.08 Q10.329,13.86 10.64,13.86 Q10.951,13.86 11.17,14.08 L13.92,16.83 Q14.14,17.049 14.14,17.36 Q14.14,17.671 13.92,17.89 Q13.701,18.11 13.39,18.11 Q13.079,18.11 12.86,17.89 Z"/>
  <path fill="#292D32" d="M13.89,15.17 L11.14,17.92 Q10.921,18.14 10.61,18.14 Q10.299,18.14 10.08,17.92 Q9.86,17.701 9.86,17.39 Q9.86,17.079 10.08,16.86 L12.83,14.11 Q13.049,13.89 13.36,13.89 Q13.671,13.89 13.89,14.11 Q14.11,14.329 14.11,14.64 Q14.11,14.951 13.89,15.17 Z"/>
  <path fill="#292D32" d="M9.341,2.53 L5.721,6.16 Q5.502,6.38 5.191,6.38 Q4.88,6.38 4.66,6.161 Q4.44,5.942 4.44,5.631 Q4.44,5.32 4.659,5.1 L8.279,1.47 Q8.498,1.25 8.809,1.25 Q9.12,1.25 9.34,1.469 Q9.56,1.688 9.56,1.999 Q9.56,2.31 9.341,2.53 Z"/>
  <path fill="#292D32" d="M15.721,1.47 L19.341,5.1 Q19.56,5.32 19.56,5.631 Q19.56,5.942 19.34,6.161 Q19.12,6.38 18.809,6.38 Q18.498,6.38 18.279,6.16 L14.659,2.53 Q14.44,2.31 14.44,1.999 Q14.44,1.688 14.66,1.469 Q14.88,1.25 15.191,1.25 Q15.502,1.25 15.721,1.47 Z"/>
  <path fill="#292D32" d="M1.25,7.85 Q1.25,6.19 2.231,5.533 Q2.878,5.1 4.22,5.1 L19.78,5.1 Q21.122,5.1 21.769,5.533 Q22.75,6.19 22.75,7.85 Q22.75,9.601 21.853,10.225 Q21.299,10.611 20.001,10.601 Q19.854,10.6 19.78,10.6 L4.22,10.6 Q4.146,10.6 3.999,10.601 Q2.701,10.611 2.147,10.225 Q1.25,9.601 1.25,7.85 Z M2.75,7.85 Q2.75,8.817 3.004,8.994 Q3.167,9.107 3.988,9.101 Q4.141,9.1 4.22,9.1 L19.78,9.1 Q19.859,9.1 20.012,9.101 Q20.833,9.107 20.996,8.994 Q21.25,8.817 21.25,7.85 Q21.25,6.6 19.78,6.6 L4.22,6.6 Q3.334,6.6 3.066,6.779 Q2.75,6.991 2.75,7.85 Z"/>
  <path fill="#292D32" d="M4.24,9.879 L5.65,18.519 Q6.101,21.25 8.86,21.25 L14.89,21.25 Q17.58,21.25 18.083,18.619 L19.763,9.859 Q19.822,9.554 20.079,9.379 Q20.336,9.205 20.641,9.263 Q20.946,9.322 21.121,9.579 Q21.295,9.836 21.237,10.141 L19.557,18.901 Q18.82,22.75 14.89,22.75 L8.86,22.75 Q4.828,22.75 4.17,18.761 L2.76,10.121 Q2.71,9.814 2.891,9.562 Q3.073,9.31 3.379,9.26 Q3.686,9.21 3.938,9.391 Q4.19,9.573 4.24,9.879 Z"/>
</svg>

