<svg xmlns="http://www.w3.org/2000/svg" width="24" height="24" viewBox="0 0 24 24">
  <defs/>
  <path fill="#292D32" opacity="0.4" d="M19.24,5.58 L18.84,5.58 L15.46,2.2 C15.19,1.93 14.75,1.93 14.47,2.2 C14.2,2.47 14.2,2.91 14.47,3.19 L16.86,5.58 L7.14,5.58 L9.53,3.19 C9.8,2.92 9.8,2.48 9.53,2.2 C9.26,1.93 8.82,1.93 8.54,2.2 L5.17,5.58 L4.77,5.58 C3.87,5.58 2,5.58 2,8.14 C2,9.11 2.2,9.75 2.62,10.17 C2.86,10.42 3.15,10.55 3.46,10.62 C3.75,10.69 4.06,10.7 4.36,10.7 L19.64,10.7 C19.95,10.7 20.24,10.68 20.52,10.62 C21.36,10.42 22,9.82 22,8.14 C22,5.58 20.13,5.58 19.24,5.58 Z"/>
  <path fill="#292D32" d="M19.661,10.7 L4.361,10.7 C4.071,10.7 3.751,10.69 3.461,10.61 L4.721,18.3 C5.011,20.02 5.761,22 9.091,22 L14.701,22 C18.071,22 18.671,20.31 19.031,18.42 L20.541,10.61 C20.261,10.68 19.961,10.7 19.661,10.7 Z M13.921,17.89 C13.771,18.04 13.581,18.11 13.391,18.11 C13.201,18.11 13.011,18.04 12.861,17.89 L12.011,17.04 L11.131,17.92 C10.981,18.07 10.791,18.14 10.601,18.14 C10.411,18.14 10.221,18.07 10.071,17.92 C9.781,17.63 9.781,17.15 10.071,16.86 L10.951,15.98 L10.101,15.13 C9.811,14.84 9.811,14.36 10.101,14.07 C10.391,13.78 10.871,13.78 11.161,14.07 L12.011,14.92 L12.831,14.1 C13.121,13.81 13.601,13.81 13.891,14.1 C14.181,14.39 14.181,14.87 13.891,15.16 L13.071,15.98 L13.921,16.83 C14.221,17.13 14.221,17.6 13.921,17.89 Z"/>
</svg>

