<svg xmlns="http://www.w3.org/2000/svg" width="24" height="24" viewBox="0 0 24 24">
  <defs/>
  <path fill="#292D32" d="M19.24,5.579 L18.84,5.579 L15.46,2.199 C15.19,1.929 14.75,1.929 14.47,2.199 C14.2,2.469 14.2,2.909 14.47,3.189 L16.86,5.579 L7.14,5.579 L9.53,3.189 C9.8,2.919 9.8,2.479 9.53,2.199 C9.26,1.929 8.82,1.929 8.54,2.199 L5.17,5.579 L4.77,5.579 C3.87,5.579 2,5.579 2,8.139 C2,9.109 2.2,9.749 2.62,10.169 C2.86,10.419 3.15,10.549 3.46,10.619 C3.75,10.689 4.06,10.699 4.36,10.699 L19.64,10.699 C19.95,10.699 20.24,10.679 20.52,10.619 C21.36,10.419 22,9.819 22,8.139 C22,5.579 20.13,5.579 19.24,5.579 Z"/>
  <path fill="#292D32" d="M19.09,12 L4.91,12 C4.29,12 3.82,12.55 3.92,13.16 L4.76,18.3 C5.04,20.02 5.79,22 9.12,22 L14.73,22 C18.1,22 18.7,20.31 19.06,18.42 L20.07,13.19 C20.19,12.57 19.72,12 19.09,12 Z M13.92,18.89 C13.78,19.04 13.59,19.11 13.39,19.11 C13.2,19.11 13.01,19.04 12.86,18.89 L12.02,18.04 L11.14,18.92 C10.99,19.07 10.8,19.14 10.61,19.14 C10.41,19.14 10.22,19.07 10.08,18.92 C9.78,18.63 9.78,18.16 10.08,17.86 L10.96,16.98 L10.11,16.14 C9.81,15.84 9.81,15.37 10.11,15.08 C10.4,14.78 10.87,14.78 11.17,15.08 L12.02,15.92 L12.83,15.11 C13.13,14.81 13.6,14.81 13.89,15.11 C14.19,15.4 14.19,15.87 13.89,16.17 L13.08,16.98 L13.92,17.83 C14.22,18.13 14.22,18.6 13.92,18.89 Z"/>
</svg>

