<svg xmlns="http://www.w3.org/2000/svg" width="24" height="24" viewBox="0 0 24 24">
  <defs/>
  <path fill="#292D32" opacity="0.4" d="M16.189,8.86 C15.799,8.86 15.489,8.55 15.489,8.16 L15.489,6.88 C15.489,5.9 15.069,4.96 14.349,4.3 C13.609,3.63 12.659,3.32 11.659,3.41 C9.979,3.57 8.509,5.28 8.509,7.06 L8.509,7.96 C8.509,8.35 8.199,8.66 7.809,8.66 C7.419,8.66 7.109,8.35 7.109,7.96 L7.109,7.06 C7.109,4.56 9.129,2.25 11.519,2.02 C12.909,1.89 14.249,2.33 15.279,3.27 C16.299,4.19 16.879,5.51 16.879,6.88 L16.879,8.16 C16.879,8.55 16.569,8.86 16.189,8.86 Z"/>
  <path fill="#292D32" d="M19.96,8.96 C19.12,8.03 17.74,7.58 15.72,7.58 L8.28,7.58 C6.26,7.58 4.88,8.03 4.04,8.96 C3.07,10.04 3.1,11.48 3.21,12.48 L3.91,18.05 C4.12,20 4.91,22 9.21,22 L14.79,22 C19.09,22 19.88,20 20.09,18.06 L20.79,12.47 C20.9,11.48 20.93,10.04 19.96,8.96 Z M12,18.58 C9.91,18.58 8.21,16.88 8.21,14.79 C8.21,12.7 9.91,11 12,11 C14.09,11 15.79,12.7 15.79,14.79 C15.79,16.88 14.09,18.58 12,18.58 Z"/>
  <path fill="#292D32" opacity="0.4" d="M12.001,18.58 C14.094,18.58 15.791,16.883 15.791,14.79 C15.791,12.697 14.094,11 12.001,11 C9.908,11 8.211,12.697 8.211,14.79 C8.211,16.883 9.908,18.58 12.001,18.58 Z"/>
  <path fill="#292D32" d="M11.431,16.64 C11.241,16.64 11.051,16.57 10.901,16.42 L9.911,15.43 C9.621,15.14 9.621,14.66 9.911,14.37 C10.201,14.08 10.681,14.08 10.971,14.37 L11.451,14.85 L13.051,13.37 C13.351,13.09 13.831,13.11 14.111,13.41 C14.391,13.71 14.371,14.19 14.071,14.47 L11.941,16.44 C11.791,16.57 11.611,16.64 11.431,16.64 Z"/>
</svg>

