<svg xmlns="http://www.w3.org/2000/svg" width="24" height="24" viewBox="0 0 24 24">
  <defs/>
  <path fill="#292D32" d="M19.96,8.958 C19.29,8.218 18.28,7.788 16.88,7.638 L16.88,6.878 C16.88,5.508 16.3,4.188 15.28,3.268 C14.25,2.328 12.91,1.888 11.52,2.018 C9.13,2.248 7.12,4.558 7.12,7.058 L7.12,7.638 C5.72,7.788 4.71,8.218 4.04,8.958 C3.07,10.038 3.1,11.478 3.21,12.478 L3.91,18.048 C4.12,19.998 4.91,21.998 9.21,21.998 L14.79,21.998 C19.09,21.998 19.88,19.998 20.09,18.058 L20.79,12.468 C20.9,11.478 20.92,10.038 19.96,8.958 Z M11.66,3.408 C12.66,3.318 13.61,3.628 14.35,4.298 C15.08,4.958 15.49,5.898 15.49,6.878 L15.49,7.578 L8.51,7.578 L8.51,7.058 C8.51,5.278 9.98,3.568 11.66,3.408 Z M8.42,13.148 L8.41,13.148 C7.86,13.148 7.41,12.698 7.41,12.148 C7.41,11.598 7.86,11.148 8.41,11.148 C8.97,11.148 9.42,11.598 9.42,12.148 C9.42,12.698 8.97,13.148 8.42,13.148 Z M15.42,13.148 L15.41,13.148 C14.86,13.148 14.41,12.698 14.41,12.148 C14.41,11.598 14.86,11.148 15.41,11.148 C15.97,11.148 16.42,11.598 16.42,12.148 C16.42,12.698 15.97,13.148 15.42,13.148 Z"/>
</svg>

