<svg xmlns="http://www.w3.org/2000/svg" width="24" height="24" viewBox="0 0 24 24">
  <defs/>
  <path fill="#292D32" d="M19.96,8.958 C19.29,8.218 18.28,7.788 16.88,7.638 L16.88,6.878 C16.88,5.508 16.3,4.188 15.28,3.268 C14.25,2.328 12.91,1.888 11.52,2.018 C9.13,2.248 7.12,4.558 7.12,7.058 L7.12,7.638 C5.72,7.788 4.71,8.218 4.04,8.958 C3.07,10.038 3.1,11.478 3.21,12.478 L3.91,18.048 C4.12,19.998 4.91,21.998 9.21,21.998 L14.79,21.998 C19.09,21.998 19.88,19.998 20.09,18.058 L20.79,12.468 C20.9,11.478 20.93,10.038 19.96,8.958 Z M11.66,3.408 C12.66,3.318 13.61,3.628 14.35,4.298 C15.08,4.958 15.49,5.898 15.49,6.878 L15.49,7.578 L8.51,7.578 L8.51,7.058 C8.51,5.278 9.98,3.568 11.66,3.408 Z M12,18.578 C9.91,18.578 8.21,16.878 8.21,14.788 C8.21,12.698 9.91,10.998 12,10.998 C14.09,10.998 15.79,12.698 15.79,14.788 C15.79,16.878 14.09,18.578 12,18.578 Z"/>
  <path fill="#292D32" d="M11,16.578 C10.75,16.578 10.5,16.448 10.36,16.218 C10.15,15.868 10.26,15.398 10.62,15.188 L11.51,14.658 L11.51,13.578 C11.51,13.168 11.85,12.828 12.26,12.828 C12.67,12.828 13,13.158 13,13.578 L13,15.078 C13,15.338 12.86,15.588 12.64,15.718 L11.39,16.468 C11.27,16.538 11.13,16.578 11,16.578 Z"/>
</svg>

