<svg xmlns="http://www.w3.org/2000/svg" width="24" height="24" viewBox="0 0 24 24">
  <defs/>
  <path fill="#292D32" opacity="0.4" d="M16.189,8.86 C15.799,8.86 15.489,8.55 15.489,8.16 L15.489,6.88 C15.489,5.9 15.069,4.96 14.349,4.3 C13.609,3.63 12.659,3.32 11.659,3.41 C9.979,3.57 8.509,5.28 8.509,7.06 L8.509,7.96 C8.509,8.35 8.199,8.66 7.809,8.66 C7.419,8.66 7.109,8.35 7.109,7.96 L7.109,7.06 C7.109,4.56 9.129,2.25 11.519,2.02 C12.909,1.89 14.249,2.33 15.279,3.27 C16.299,4.19 16.879,5.51 16.879,6.88 L16.879,8.16 C16.879,8.55 16.569,8.86 16.189,8.86 Z"/>
  <path fill="#292D32" d="M19.96,8.96 C19.12,8.03 17.74,7.58 15.72,7.58 L8.28,7.58 C6.26,7.58 4.88,8.03 4.04,8.96 C3.07,10.04 3.1,11.48 3.21,12.48 L3.91,18.05 C4.12,20 4.91,22 9.21,22 L14.79,22 C19.09,22 19.88,20 20.09,18.06 L20.79,12.47 C20.9,11.48 20.92,10.04 19.96,8.96 Z M8.42,13.15 L8.41,13.15 C7.86,13.15 7.41,12.7 7.41,12.15 C7.41,11.6 7.86,11.15 8.41,11.15 C8.97,11.15 9.42,11.6 9.42,12.15 C9.42,12.7 8.97,13.15 8.42,13.15 Z M15.42,13.15 L15.41,13.15 C14.86,13.15 14.41,12.7 14.41,12.15 C14.41,11.6 14.86,11.15 15.41,11.15 C15.97,11.15 16.42,11.6 16.42,12.15 C16.42,12.7 15.97,13.15 15.42,13.15 Z"/>
</svg>

