<svg xmlns="http://www.w3.org/2000/svg" width="24" height="24" viewBox="0 0 24 24">
  <defs/>
  <path fill="#292D32" d="M6.75,7.67 L6.75,6.7 Q6.75,4.714 8.116,3.113 Q9.52,1.467 11.49,1.283 Q13.82,1.057 15.541,2.633 Q17.25,4.197 17.25,6.51 L17.25,7.89 Q17.25,8.201 17.03,8.42 Q16.811,8.64 16.5,8.64 Q16.189,8.64 15.97,8.42 Q15.75,8.201 15.75,7.89 L15.75,6.51 Q15.75,4.857 14.529,3.74 Q13.3,2.615 11.63,2.777 Q8.25,3.092 8.25,6.7 L8.25,7.67 Q8.25,7.981 8.03,8.2 Q7.811,8.42 7.5,8.42 Q7.189,8.42 6.97,8.2 Q6.75,7.981 6.75,7.67 Z"/>
  <path fill="#292D32" d="M4.555,16.468 L4.785,18.338 Q5.112,21.25 9.001,21.25 L15.001,21.25 Q18.894,21.25 19.205,18.35 L19.957,12.337 Q20.151,10.581 19.479,9.783 Q18.611,8.75 16.001,8.75 L8.001,8.75 Q5.391,8.75 4.522,9.783 Q3.851,10.581 4.046,12.348 Q4.08,12.656 3.886,12.899 Q3.692,13.141 3.383,13.175 Q3.075,13.21 2.832,13.015 Q2.59,12.821 2.555,12.512 Q2.289,10.107 3.374,8.817 Q4.693,7.25 8.001,7.25 L16.001,7.25 Q19.309,7.25 20.627,8.817 Q21.712,10.107 21.445,12.523 L20.697,18.51 Q20.242,22.75 15.001,22.75 L9.001,22.75 Q3.771,22.75 3.296,18.522 L3.066,16.652 Q3.028,16.343 3.22,16.098 Q3.411,15.854 3.719,15.816 Q4.028,15.778 4.272,15.969 Q4.517,16.16 4.555,16.468 Z"/>
  <path fill="#292D32" d="M15.495,11 L15.503,11 Q15.918,11 16.211,11.293 Q16.503,11.586 16.503,12 Q16.503,12.414 16.211,12.707 Q15.918,13 15.503,13 L15.495,13 Q15.08,13 14.787,12.707 Q14.494,12.414 14.494,12 Q14.494,11.586 14.787,11.293 Q15.08,11 15.495,11 Z"/>
  <path fill="#292D32" d="M8.495,11 L8.503,11 Q8.918,11 9.211,11.293 Q9.503,11.586 9.503,12 Q9.503,12.414 9.211,12.707 Q8.918,13 8.503,13 L8.495,13 Q8.08,13 7.787,12.707 Q7.495,12.414 7.495,12 Q7.495,11.586 7.787,11.293 Q8.08,11 8.495,11 Z"/>
</svg>

