<svg xmlns="http://www.w3.org/2000/svg" width="24" height="24" viewBox="0 0 24 24">
  <defs/>
  <path fill="#292D32" d="M12.86,17.89 L10.11,15.14 Q9.891,14.921 9.891,14.61 Q9.891,14.299 10.11,14.08 Q10.33,13.86 10.641,13.86 Q10.951,13.86 11.171,14.08 L13.921,16.83 Q14.141,17.049 14.141,17.36 Q14.141,17.671 13.921,17.89 Q13.701,18.11 13.391,18.11 Q13.08,18.11 12.86,17.89 Z"/>
  <path fill="#292D32" d="M13.89,15.17 L11.14,17.92 Q10.92,18.14 10.609,18.14 Q10.299,18.14 10.079,17.92 Q9.859,17.701 9.859,17.39 Q9.859,17.079 10.079,16.86 L12.829,14.11 Q13.049,13.89 13.359,13.89 Q13.67,13.89 13.89,14.11 Q14.109,14.329 14.109,14.64 Q14.109,14.951 13.89,15.17 Z"/>
  <path fill="#292D32" d="M9.341,2.53 L5.721,6.16 Q5.501,6.38 5.19,6.38 Q4.88,6.38 4.66,6.161 Q4.44,5.942 4.439,5.631 Q4.439,5.32 4.658,5.1 L8.278,1.47 Q8.498,1.25 8.808,1.25 Q9.119,1.25 9.339,1.469 Q9.559,1.688 9.559,1.999 Q9.56,2.31 9.341,2.53 Z"/>
  <path fill="#292D32" d="M15.721,1.47 L19.341,5.1 Q19.56,5.32 19.559,5.631 Q19.559,5.942 19.339,6.161 Q19.119,6.38 18.808,6.38 Q18.498,6.38 18.278,6.16 L14.658,2.53 Q14.439,2.31 14.439,1.999 Q14.44,1.688 14.66,1.469 Q14.88,1.25 15.191,1.25 Q15.501,1.25 15.721,1.47 Z"/>
  <path fill="#292D32" d="M1.25,7.85 Q1.25,6.191 2.231,5.533 Q2.878,5.1 4.22,5.1 L19.78,5.1 Q22.75,5.1 22.75,7.85 Q22.75,9.601 21.853,10.226 Q21.299,10.611 20.001,10.601 Q19.854,10.6 19.78,10.6 L4.22,10.6 Q4.146,10.6 3.999,10.601 Q2.701,10.611 2.147,10.226 Q1.25,9.601 1.25,7.85 Z M2.75,7.85 Q2.75,8.817 3.004,8.995 Q3.167,9.108 3.988,9.101 Q4.141,9.1 4.22,9.1 L19.78,9.1 Q19.859,9.1 20.012,9.101 Q20.833,9.108 20.996,8.995 Q21.25,8.817 21.25,7.85 Q21.25,6.6 19.78,6.6 L4.22,6.6 Q3.334,6.6 3.066,6.779 Q2.75,6.991 2.75,7.85 Z"/>
  <path fill="#292D32" d="M5.65,18.518 Q6.101,21.25 8.86,21.25 L14.89,21.25 Q17.58,21.25 18.084,18.619 L19.764,9.859 Q19.822,9.554 20.079,9.379 Q20.336,9.205 20.641,9.263 Q20.947,9.322 21.121,9.579 Q21.295,9.836 21.237,10.141 L19.557,18.901 Q18.82,22.75 14.89,22.75 L8.86,22.75 Q4.828,22.75 4.17,18.762 Q4.12,18.456 4.301,18.203 Q4.482,17.951 4.788,17.9 Q5.095,17.849 5.347,18.03 Q5.6,18.211 5.65,18.518 Z"/>
  <path fill="#292D32" d="M4.24,9.88 L4.93,14.13 Q4.98,14.436 4.798,14.688 Q4.617,14.941 4.31,14.99 Q4.004,15.04 3.752,14.858 Q3.499,14.677 3.45,14.37 L2.76,10.12 Q2.71,9.814 2.892,9.562 Q3.073,9.309 3.38,9.26 Q3.686,9.21 3.938,9.392 Q4.191,9.573 4.24,9.88 Z"/>
</svg>

