<svg xmlns="http://www.w3.org/2000/svg" width="24" height="24" viewBox="0 0 24 24">
  <defs/>
  <path fill="#292D32" opacity="0.4" d="M19.24,5.58 L18.84,5.58 L15.46,2.2 C15.19,1.93 14.75,1.93 14.47,2.2 C14.2,2.47 14.2,2.91 14.47,3.19 L16.86,5.58 L7.14,5.58 L9.53,3.19 C9.8,2.92 9.8,2.48 9.53,2.2 C9.26,1.93 8.82,1.93 8.54,2.2 L5.17,5.58 L4.77,5.58 C3.87,5.58 2,5.58 2,8.14 C2,9.11 2.2,9.75 2.62,10.17 C2.86,10.42 3.15,10.55 3.46,10.62 C3.75,10.69 4.06,10.7 4.36,10.7 L19.64,10.7 C19.95,10.7 20.24,10.68 20.52,10.62 C21.36,10.42 22,9.82 22,8.14 C22,5.58 20.13,5.58 19.24,5.58 Z"/>
  <path fill="#292D32" d="M19.661,10.7 L4.361,10.7 C4.071,10.7 3.751,10.69 3.461,10.61 L4.721,18.3 C5.011,20.02 5.761,22 9.091,22 L14.701,22 C18.071,22 18.671,20.31 19.031,18.42 L20.541,10.61 C20.261,10.68 19.961,10.7 19.661,10.7 Z M14.881,15.05 L11.631,18.05 C11.491,18.18 11.301,18.25 11.121,18.25 C10.931,18.25 10.741,18.18 10.591,18.03 L9.091,16.53 C8.801,16.24 8.801,15.76 9.091,15.47 C9.381,15.18 9.861,15.18 10.151,15.47 L11.141,16.46 L13.861,13.95 C14.161,13.67 14.641,13.69 14.921,13.99 C15.211,14.3 15.191,14.77 14.881,15.05 Z"/>
</svg>

