<svg xmlns="http://www.w3.org/2000/svg" width="24" height="24" viewBox="0 0 24 24">
  <defs/>
  <path fill="#292D32" d="M5.191,6.38 C5.001,6.38 4.801,6.3 4.661,6.16 C4.371,5.87 4.371,5.39 4.661,5.1 L8.291,1.47 C8.581,1.18 9.061,1.18 9.351,1.47 C9.641,1.76 9.641,2.24 9.351,2.53 L5.721,6.16 C5.571,6.3 5.381,6.38 5.191,6.38 Z"/>
  <path fill="#292D32" d="M18.809,6.38 C18.619,6.38 18.429,6.31 18.279,6.16 L14.649,2.53 C14.359,2.24 14.359,1.76 14.649,1.47 C14.939,1.18 15.419,1.18 15.709,1.47 L19.339,5.1 C19.629,5.39 19.629,5.87 19.339,6.16 C19.199,6.3 18.999,6.38 18.809,6.38 Z"/>
  <path fill="#292D32" d="M20.21,10.6 C20.14,10.6 20.07,10.6 20,10.6 L19.77,10.6 L4,10.6 C3.3,10.61 2.5,10.61 1.92,10.03 C1.46,9.58 1.25,8.88 1.25,7.85 C1.25,5.1 3.26,5.1 4.22,5.1 L19.78,5.1 C20.74,5.1 22.75,5.1 22.75,7.85 C22.75,8.89 22.54,9.58 22.08,10.03 C21.56,10.55 20.86,10.6 20.21,10.6 Z M4.22,9.1 L20.01,9.1 C20.46,9.11 20.88,9.11 21.02,8.97 C21.09,8.9 21.24,8.66 21.24,7.85 C21.24,6.72 20.96,6.6 19.77,6.6 L4.22,6.6 C3.03,6.6 2.75,6.72 2.75,7.85 C2.75,8.66 2.91,8.9 2.97,8.97 C3.11,9.1 3.54,9.1 3.98,9.1 L4.22,9.1 Z"/>
  <path fill="#292D32" d="M9.76,18.3 C9.35,18.3 9.01,17.96 9.01,17.55 L9.01,14 C9.01,13.59 9.35,13.25 9.76,13.25 C10.17,13.25 10.51,13.59 10.51,14 L10.51,17.55 C10.51,17.97 10.17,18.3 9.76,18.3 Z"/>
  <path fill="#292D32" d="M14.359,18.3 C13.949,18.3 13.609,17.96 13.609,17.55 L13.609,14 C13.609,13.59 13.949,13.25 14.359,13.25 C14.769,13.25 15.109,13.59 15.109,14 L15.109,17.55 C15.109,17.97 14.769,18.3 14.359,18.3 Z"/>
  <path fill="#292D32" d="M14.891,22.75 L8.861,22.75 C5.281,22.75 4.481,20.62 4.171,18.77 L2.761,10.12 C2.691,9.71 2.971,9.33 3.381,9.26 C3.791,9.19 4.171,9.47 4.241,9.88 L5.651,18.52 C5.941,20.29 6.541,21.25 8.861,21.25 L14.891,21.25 C17.461,21.25 17.751,20.35 18.081,18.61 L19.761,9.86 C19.841,9.45 20.231,9.18 20.641,9.27 C21.051,9.35 21.311,9.74 21.231,10.15 L19.551,18.9 C19.161,20.93 18.511,22.75 14.891,22.75 Z"/>
</svg>

