<svg xmlns="http://www.w3.org/2000/svg" width="24" height="24" viewBox="0 0 24 24">
  <defs/>
  <path fill="#292D32" opacity="0.4" d="M16.189,8.86 C15.799,8.86 15.489,8.55 15.489,8.16 L15.489,6.88 C15.489,5.9 15.069,4.96 14.349,4.3 C13.609,3.63 12.659,3.32 11.659,3.41 C9.979,3.57 8.509,5.28 8.509,7.06 L8.509,7.96 C8.509,8.35 8.199,8.66 7.809,8.66 C7.419,8.66 7.109,8.35 7.109,7.96 L7.109,7.06 C7.109,4.56 9.129,2.25 11.519,2.02 C12.909,1.89 14.249,2.33 15.279,3.27 C16.299,4.19 16.879,5.51 16.879,6.88 L16.879,8.16 C16.879,8.55 16.569,8.86 16.189,8.86 Z"/>
  <path fill="#292D32" d="M19.96,8.96 C19.12,8.03 17.74,7.58 15.72,7.58 L8.28,7.58 C6.26,7.58 4.88,8.03 4.04,8.96 C3.07,10.04 3.1,11.48 3.21,12.48 L3.91,18.05 C4.12,20 4.91,22 9.21,22 L14.79,22 C19.09,22 19.88,20 20.09,18.06 L20.79,12.47 C20.9,11.48 20.93,10.04 19.96,8.96 Z M12,18.58 C9.91,18.58 8.21,16.88 8.21,14.79 C8.21,12.7 9.91,11 12,11 C14.09,11 15.79,12.7 15.79,14.79 C15.79,16.88 14.09,18.58 12,18.58 Z"/>
  <path fill="#292D32" opacity="0.4" d="M15.791,14.79 C15.791,16.88 14.091,18.58 12.001,18.58 C9.911,18.58 8.211,16.88 8.211,14.79 C8.211,12.7 9.911,11 12.001,11 C14.091,11 15.791,12.7 15.791,14.79 Z"/>
  <path fill="#292D32" d="M11,16.58 C10.75,16.58 10.5,16.45 10.36,16.22 C10.15,15.87 10.26,15.4 10.62,15.19 L11.51,14.66 L11.51,13.58 C11.51,13.17 11.85,12.83 12.26,12.83 C12.67,12.83 13,13.16 13,13.58 L13,15.08 C13,15.34 12.86,15.59 12.64,15.72 L11.39,16.47 C11.27,16.54 11.13,16.58 11,16.58 Z"/>
</svg>

