<svg xmlns="http://www.w3.org/2000/svg" width="24" height="24" viewBox="0 0 24 24">
  <defs/>
  <path fill="#292D32" opacity="0.4" d="M19.24,5.58 L18.84,5.58 L15.46,2.2 C15.19,1.93 14.75,1.93 14.47,2.2 C14.2,2.47 14.2,2.91 14.47,3.19 L16.86,5.58 L7.14,5.58 L9.53,3.19 C9.8,2.92 9.8,2.48 9.53,2.2 C9.26,1.93 8.82,1.93 8.54,2.2 L5.17,5.58 L4.77,5.58 C3.87,5.58 2,5.58 2,8.14 C2,9.11 2.2,9.75 2.62,10.17 C2.86,10.42 3.15,10.55 3.46,10.62 C3.75,10.69 4.06,10.7 4.36,10.7 L19.64,10.7 C19.95,10.7 20.24,10.68 20.52,10.62 C21.36,10.42 22,9.82 22,8.14 C22,5.58 20.13,5.58 19.24,5.58 Z"/>
  <path fill="#292D32" d="M19.651,10.7 L4.361,10.7 C4.061,10.7 3.751,10.69 3.461,10.62 L4.721,18.3 C5.001,20.02 5.751,22 9.081,22 L14.691,22 C18.061,22 18.661,20.31 19.021,18.42 L20.531,10.62 C20.251,10.68 19.951,10.7 19.651,10.7 Z M10.611,17.16 C10.611,17.55 10.301,17.86 9.911,17.86 C9.521,17.86 9.211,17.55 9.211,17.16 L9.211,13.86 C9.211,13.47 9.521,13.16 9.911,13.16 C10.301,13.16 10.611,13.47 10.611,13.86 L10.611,17.16 Z M14.891,17.16 C14.891,17.55 14.581,17.86 14.191,17.86 C13.801,17.86 13.491,17.55 13.491,17.16 L13.491,13.86 C13.491,13.47 13.801,13.16 14.191,13.16 C14.581,13.16 14.891,13.47 14.891,13.86 L14.891,17.16 Z"/>
</svg>

