<svg xmlns="http://www.w3.org/2000/svg" width="24" height="24" viewBox="0 0 24 24">
  <defs/>
  <path fill="#292D32" d="M21,11.75 L3,11.75 C2.04,11.75 1.25,10.96 1.25,10 L1.25,6.68 C1.25,6 1.72,5.31 2.35,5.06 L11.35,1.46 C11.73,1.31 12.27,1.31 12.65,1.46 L21.65,5.06 C22.28,5.31 22.75,6.01 22.75,6.68 L22.75,10 C22.75,10.96 21.96,11.75 21,11.75 Z M12,2.84 C11.96,2.84 11.92,2.84 11.9,2.85 L2.91,6.45 C2.85,6.48 2.75,6.61 2.75,6.68 L2.75,10 C2.75,10.14 2.86,10.25 3,10.25 L21,10.25 C21.14,10.25 21.25,10.14 21.25,10 L21.25,6.68 C21.25,6.61 21.16,6.48 21.09,6.45 L12.09,2.85 C12.07,2.84 12.04,2.84 12,2.84 Z"/>
  <path fill="#292D32" d="M22,22.75 L2,22.75 C1.59,22.75 1.25,22.41 1.25,22 L1.25,19 C1.25,18.04 2.04,17.25 3,17.25 L21,17.25 C21.96,17.25 22.75,18.04 22.75,19 L22.75,22 C22.75,22.41 22.41,22.75 22,22.75 Z M2.75,21.25 L21.25,21.25 L21.25,19 C21.25,18.86 21.14,18.75 21,18.75 L3,18.75 C2.86,18.75 2.75,18.86 2.75,19 L2.75,21.25 Z"/>
  <path fill="#292D32" d="M4,18.75 C3.59,18.75 3.25,18.41 3.25,18 L3.25,11 C3.25,10.59 3.59,10.25 4,10.25 C4.41,10.25 4.75,10.59 4.75,11 L4.75,18 C4.75,18.41 4.41,18.75 4,18.75 Z"/>
  <path fill="#292D32" d="M8,18.75 C7.59,18.75 7.25,18.41 7.25,18 L7.25,11 C7.25,10.59 7.59,10.25 8,10.25 C8.41,10.25 8.75,10.59 8.75,11 L8.75,18 C8.75,18.41 8.41,18.75 8,18.75 Z"/>
  <path fill="#292D32" d="M12,18.75 C11.59,18.75 11.25,18.41 11.25,18 L11.25,11 C11.25,10.59 11.59,10.25 12,10.25 C12.41,10.25 12.75,10.59 12.75,11 L12.75,18 C12.75,18.41 12.41,18.75 12,18.75 Z"/>
  <path fill="#292D32" d="M16,18.75 C15.59,18.75 15.25,18.41 15.25,18 L15.25,11 C15.25,10.59 15.59,10.25 16,10.25 C16.41,10.25 16.75,10.59 16.75,11 L16.75,18 C16.75,18.41 16.41,18.75 16,18.75 Z"/>
  <path fill="#292D32" d="M20,18.75 C19.59,18.75 19.25,18.41 19.25,18 L19.25,11 C19.25,10.59 19.59,10.25 20,10.25 C20.41,10.25 20.75,10.59 20.75,11 L20.75,18 C20.75,18.41 20.41,18.75 20,18.75 Z"/>
  <path fill="#292D32" d="M23,22.75 L1,22.75 C0.59,22.75 0.25,22.41 0.25,22 C0.25,21.59 0.59,21.25 1,21.25 L23,21.25 C23.41,21.25 23.75,21.59 23.75,22 C23.75,22.41 23.41,22.75 23,22.75 Z"/>
  <path fill="#292D32" d="M12,9.25 C10.76,9.25 9.75,8.24 9.75,7 C9.75,5.76 10.76,4.75 12,4.75 C13.24,4.75 14.25,5.76 14.25,7 C14.25,8.24 13.24,9.25 12,9.25 Z M12,6.25 C11.59,6.25 11.25,6.59 11.25,7 C11.25,7.41 11.59,7.75 12,7.75 C12.41,7.75 12.75,7.41 12.75,7 C12.75,6.59 12.41,6.25 12,6.25 Z"/>
</svg>

