<svg xmlns="http://www.w3.org/2000/svg" width="24" height="24" viewBox="0 0 24 24">
  <defs/>
  <path fill="#292D32" d="M22,19 L22,22 L2,22 L2,19 C2,18.45 2.45,18 3,18 L21,18 C21.55,18 22,18.45 22,19 Z"/>
  <path fill="#292D32" d="M22.75,19 L22.75,22 Q22.75,22.311 22.53,22.53 Q22.311,22.75 22,22.75 L2,22.75 Q1.689,22.75 1.47,22.53 Q1.25,22.311 1.25,22 L1.25,19 Q1.25,17.25 3,17.25 L21,17.25 Q21.723,17.25 22.237,17.763 Q22.75,18.277 22.75,19 Z M21.25,19 Q21.25,18.75 21,18.75 L3,18.75 Q2.75,18.75 2.75,19 L2.75,21.25 L21.25,21.25 Z"/>
  <path fill="#292D32" d="M7,11 L5,11 L5,18 L7,18 L7,11 Z"/>
  <path fill="#292D32" d="M11,11 L9,11 L9,18 L11,18 L11,11 Z"/>
  <path fill="#292D32" d="M15,11 L13,11 L13,18 L15,18 L15,11 Z"/>
  <path fill="#292D32" d="M19,11 L17,11 L17,18 L19,18 L19,11 Z"/>
  <path fill="#292D32" d="M23,22.75 L1,22.75 C0.59,22.75 0.25,22.41 0.25,22 C0.25,21.59 0.59,21.25 1,21.25 L23,21.25 C23.41,21.25 23.75,21.59 23.75,22 C23.75,22.41 23.41,22.75 23,22.75 Z"/>
  <path fill="#292D32" d="M21.37,5.75 L12.37,2.15 C12.17,2.07 11.83,2.07 11.63,2.15 L2.63,5.75 C2.28,5.89 2,6.3 2,6.68 L2,10 C2,10.55 2.45,11 3,11 L21,11 C21.55,11 22,10.55 22,10 L22,6.68 C22,6.3 21.72,5.89 21.37,5.75 Z M12,8.5 C11.17,8.5 10.5,7.83 10.5,7 C10.5,6.17 11.17,5.5 12,5.5 C12.83,5.5 13.5,6.17 13.5,7 C13.5,7.83 12.83,8.5 12,8.5 Z"/>
</svg>

