<svg xmlns="http://www.w3.org/2000/svg" width="24" height="24" viewBox="0 0 24 24">
  <defs/>
  <path fill="#292D32" d="M17,21.25 L7,21.25 Q1.25,21.25 1.25,15.5 L1.25,8.5 Q1.25,2.75 7,2.75 L17,2.75 Q22.75,2.75 22.75,8.5 L22.75,15.5 Q22.75,21.25 17,21.25 Z M17,19.75 Q21.25,19.75 21.25,15.5 L21.25,8.5 Q21.25,4.25 17,4.25 L7,4.25 Q2.75,4.25 2.75,8.5 L2.75,15.5 Q2.75,19.75 7,19.75 Z"/>
  <path fill="#292D32" opacity="0.4" d="M6.75,8 L6.75,16 Q6.75,16.311 6.53,16.53 Q6.311,16.75 6,16.75 Q5.689,16.75 5.47,16.53 Q5.25,16.311 5.25,16 L5.25,8 Q5.25,7.689 5.47,7.47 Q5.689,7.25 6,7.25 Q6.311,7.25 6.53,7.47 Q6.75,7.689 6.75,8 Z"/>
  <path fill="#292D32" d="M9.75,8 L9.75,12 Q9.75,12.311 9.53,12.53 Q9.311,12.75 9,12.75 Q8.689,12.75 8.47,12.53 Q8.25,12.311 8.25,12 L8.25,8 Q8.25,7.689 8.47,7.47 Q8.689,7.25 9,7.25 Q9.311,7.25 9.53,7.47 Q9.75,7.689 9.75,8 Z"/>
  <path fill="#292D32" d="M9.75,15 L9.75,16 Q9.75,16.311 9.53,16.53 Q9.311,16.75 9,16.75 Q8.689,16.75 8.47,16.53 Q8.25,16.311 8.25,16 L8.25,15 Q8.25,14.689 8.47,14.47 Q8.689,14.25 9,14.25 Q9.311,14.25 9.53,14.47 Q9.75,14.689 9.75,15 Z"/>
  <path fill="#292D32" d="M15.75,8 L15.75,9 Q15.75,9.311 15.53,9.53 Q15.311,9.75 15,9.75 Q14.689,9.75 14.47,9.53 Q14.25,9.311 14.25,9 L14.25,8 Q14.25,7.689 14.47,7.47 Q14.689,7.25 15,7.25 Q15.311,7.25 15.53,7.47 Q15.75,7.689 15.75,8 Z"/>
  <path fill="#292D32" opacity="0.4" d="M12.75,8 L12.75,16 Q12.75,16.311 12.53,16.53 Q12.311,16.75 12,16.75 Q11.689,16.75 11.47,16.53 Q11.25,16.311 11.25,16 L11.25,8 Q11.25,7.689 11.47,7.47 Q11.689,7.25 12,7.25 Q12.311,7.25 12.53,7.47 Q12.75,7.689 12.75,8 Z"/>
  <path fill="#292D32" d="M15.75,12 L15.75,16 Q15.75,16.311 15.53,16.53 Q15.311,16.75 15,16.75 Q14.689,16.75 14.47,16.53 Q14.25,16.311 14.25,16 L14.25,12 Q14.25,11.689 14.47,11.47 Q14.689,11.25 15,11.25 Q15.311,11.25 15.53,11.47 Q15.75,11.689 15.75,12 Z"/>
  <path fill="#292D32" opacity="0.4" d="M18.75,8 L18.75,16 Q18.75,16.311 18.53,16.53 Q18.311,16.75 18,16.75 Q17.689,16.75 17.47,16.53 Q17.25,16.311 17.25,16 L17.25,8 Q17.25,7.689 17.47,7.47 Q17.689,7.25 18,7.25 Q18.311,7.25 18.53,7.47 Q18.75,7.689 18.75,8 Z"/>
</svg>

