<svg xmlns="http://www.w3.org/2000/svg" width="24" height="24" viewBox="0 0 24 24">
  <defs/>
  <path fill="#292D32" opacity="0.4" d="M17,20.5 L7,20.5 C4,20.5 2,19 2,15.5 L2,8.5 C2,5 4,3.5 7,3.5 L17,3.5 C20,3.5 22,5 22,8.5 L22,15.5 C22,19 20,20.5 17,20.5 Z"/>
  <path fill="#292D32" d="M6,16.75 C5.59,16.75 5.25,16.41 5.25,16 L5.25,8 C5.25,7.59 5.59,7.25 6,7.25 C6.41,7.25 6.75,7.59 6.75,8 L6.75,16 C6.75,16.41 6.41,16.75 6,16.75 Z"/>
  <path fill="#292D32" d="M9,12.75 C8.59,12.75 8.25,12.41 8.25,12 L8.25,8 C8.25,7.59 8.59,7.25 9,7.25 C9.41,7.25 9.75,7.59 9.75,8 L9.75,12 C9.75,12.41 9.41,12.75 9,12.75 Z"/>
  <path fill="#292D32" d="M9,16.75 C8.59,16.75 8.25,16.41 8.25,16 L8.25,15 C8.25,14.59 8.59,14.25 9,14.25 C9.41,14.25 9.75,14.59 9.75,15 L9.75,16 C9.75,16.41 9.41,16.75 9,16.75 Z"/>
  <path fill="#292D32" d="M15,9.75 C14.59,9.75 14.25,9.41 14.25,9 L14.25,8 C14.25,7.59 14.59,7.25 15,7.25 C15.41,7.25 15.75,7.59 15.75,8 L15.75,9 C15.75,9.41 15.41,9.75 15,9.75 Z"/>
  <path fill="#292D32" d="M12,16.75 C11.59,16.75 11.25,16.41 11.25,16 L11.25,8 C11.25,7.59 11.59,7.25 12,7.25 C12.41,7.25 12.75,7.59 12.75,8 L12.75,16 C12.75,16.41 12.41,16.75 12,16.75 Z"/>
  <path fill="#292D32" d="M15,16.75 C14.59,16.75 14.25,16.41 14.25,16 L14.25,12 C14.25,11.59 14.59,11.25 15,11.25 C15.41,11.25 15.75,11.59 15.75,12 L15.75,16 C15.75,16.41 15.41,16.75 15,16.75 Z"/>
  <path fill="#292D32" d="M18,16.75 C17.59,16.75 17.25,16.41 17.25,16 L17.25,8 C17.25,7.59 17.59,7.25 18,7.25 C18.41,7.25 18.75,7.59 18.75,8 L18.75,16 C18.75,16.41 18.41,16.75 18,16.75 Z"/>
</svg>

