<svg xmlns="http://www.w3.org/2000/svg" width="24" height="24" viewBox="0 0 24 24">
  <defs/>
  <path fill="#292D32" d="M20.419,9 C20.279,8.99 20.099,8.98 19.899,8.98 C19.509,8.98 19.199,9.29 19.199,9.68 L19.199,14.331 C19.199,14.72 19.509,15.03 19.899,15.03 C20.099,15.03 20.269,15.021 20.439,15.011 C21.999,14.831 21.999,13.73 21.999,12.931 L21.999,11.07 C21.999,10.271 21.999,9.17 20.419,9 Z"/>
  <path fill="#292D32" d="M18.279,10.14 L18.279,13.861 C18.279,16.811 15.879,19.21 12.929,19.21 L9.259,19.21 C8.469,19.21 7.989,18.34 8.409,17.68 L15.669,6.2 C16.029,5.63 16.839,5.58 17.289,6.09 C18.009,6.92 18.279,8.21 18.279,10.14 Z"/>
  <path fill="#292D32" d="M16.4,1.87 C16.05,1.65 15.59,1.75 15.37,2.1 L13.66,4.81 C13.43,4.8 13.19,4.79 12.93,4.79 L7.35,4.79 C3.25,4.79 2,6.04 2,10.14 L2,13.86 C2,16.91 2.7,18.37 4.74,18.92 L3.37,21.1 C3.15,21.45 3.25,21.91 3.6,22.13 C3.72,22.21 3.86,22.25 4,22.25 C4.25,22.25 4.49,22.13 4.63,21.9 L16.63,2.9 C16.86,2.55 16.75,2.09 16.4,1.87 Z"/>
</svg>

