<svg xmlns="http://www.w3.org/2000/svg" width="24" height="24" viewBox="0 0 24 24">
  <defs/>
  <path fill="#292D32" d="M20.419,9 C20.279,8.99 20.099,8.98 19.899,8.98 C19.509,8.98 19.199,9.29 19.199,9.68 L19.199,14.33 C19.199,14.72 19.509,15.03 19.899,15.03 C20.099,15.03 20.269,15.02 20.439,15.01 C21.999,14.83 21.999,13.73 21.999,12.93 L21.999,11.07 C21.999,10.27 21.999,9.17 20.419,9 Z"/>
  <path fill="#292D32" opacity="0.4" d="M14.5,4.87 L5.52,19.09 C2.87,18.71 2,17.27 2,13.86 L2,10.14 C2,6.04 3.25,4.79 7.35,4.79 L12.93,4.79 C13.51,4.79 14.03,4.81 14.5,4.87 Z"/>
  <path fill="#292D32" opacity="0.4" d="M18.279,10.14 L18.279,13.86 C18.279,16.81 15.879,19.21 12.929,19.21 L7.449,19.21 L16.229,5.31 C17.749,6 18.279,7.46 18.279,10.14 Z"/>
  <path fill="#292D32" d="M4.001,22.25 C3.861,22.25 3.721,22.21 3.601,22.13 C3.251,21.91 3.141,21.45 3.371,21.1 L15.371,2.1 C15.591,1.75 16.061,1.65 16.401,1.87 C16.751,2.09 16.861,2.55 16.631,2.9 L4.631,21.9 C4.491,22.13 4.251,22.25 4.001,22.25 Z"/>
</svg>

