<svg xmlns="http://www.w3.org/2000/svg" width="24" height="24" viewBox="0 0 24 24">
  <defs/>
  <path fill="#292D32" d="M20.419,9 C20.279,8.99 20.099,8.98 19.899,8.98 C19.509,8.98 19.199,9.29 19.199,9.68 L19.199,14.331 C19.199,14.72 19.509,15.03 19.899,15.03 C20.099,15.03 20.269,15.021 20.439,15.011 C21.999,14.831 21.999,13.73 21.999,12.931 L21.999,11.07 C21.999,10.271 21.999,9.17 20.419,9 Z"/>
  <path fill="#292D32" d="M12.93,4.789 L7.35,4.789 C3.25,4.789 2,6.039 2,10.139 L2,13.859 C2,17.959 3.25,19.209 7.35,19.209 L12.93,19.209 C17.03,19.209 18.28,17.959 18.28,13.859 L18.28,10.139 C18.28,6.039 17.03,4.789 12.93,4.789 Z M7.1,14.179 C7.02,14.519 6.71,14.749 6.37,14.749 C6.31,14.749 6.25,14.739 6.19,14.729 C5.79,14.629 5.54,14.219 5.64,13.819 C5.94,12.629 5.94,11.369 5.64,10.179 C5.54,9.779 5.78,9.369 6.19,9.269 C6.59,9.169 7,9.419 7.1,9.819 C7.46,11.249 7.46,12.749 7.1,14.179 Z"/>
</svg>

