<svg xmlns="http://www.w3.org/2000/svg" width="24" height="24" viewBox="0 0 24 24">
  <defs/>
  <path fill="#292D32" d="M20.5,15.25 C20.09,15.25 19.75,14.91 19.75,14.5 C19.75,14.09 20.09,13.75 20.5,13.75 C21.09,13.75 21.22,13.66 21.23,13.66 C21.25,13.6 21.25,13.25 21.25,13 L21.25,11 C21.25,10.75 21.25,10.41 21.21,10.32 C21.2,10.33 21.05,10.25 20.5,10.25 C20.09,10.25 19.75,9.91 19.75,9.5 C19.75,9.09 20.09,8.75 20.5,8.75 C22.58,8.75 22.75,9.77 22.75,11 L22.75,13 C22.75,14.23 22.58,15.25 20.5,15.25 Z"/>
  <path fill="#292D32" d="M4.001,22.25 C3.861,22.25 3.721,22.21 3.601,22.13 C3.251,21.91 3.141,21.45 3.371,21.1 L15.371,2.1 C15.591,1.75 16.061,1.65 16.401,1.87 C16.751,2.09 16.861,2.55 16.631,2.9 L4.631,21.9 C4.491,22.13 4.251,22.25 4.001,22.25 Z"/>
  <path fill="#292D32" d="M5.39,19.67 C5.36,19.67 5.33,19.67 5.31,19.67 C1.91,19.29 1.25,17.31 1.25,14 L1.25,10 C1.25,5.59 2.59,4.25 7,4.25 C7.41,4.25 7.75,4.59 7.75,5 C7.75,5.41 7.41,5.75 7,5.75 C3.43,5.75 2.75,6.43 2.75,10 L2.75,14 C2.75,17.32 3.43,17.95 5.47,18.18 C5.88,18.23 6.18,18.6 6.13,19.01 C6.09,19.39 5.76,19.67 5.39,19.67 Z"/>
  <path fill="#292D32" d="M13,19.75 C12.59,19.75 12.25,19.41 12.25,19 C12.25,18.59 12.59,18.25 13,18.25 C16.57,18.25 17.25,17.57 17.25,14 L17.25,10 C17.25,6.69 16.57,6.05 14.54,5.82 C14.13,5.77 13.83,5.4 13.88,4.99 C13.93,4.58 14.29,4.27 14.71,4.33 C18.09,4.71 18.75,6.7 18.75,10 L18.75,14 C18.75,18.41 17.41,19.75 13,19.75 Z"/>
</svg>

