<svg xmlns="http://www.w3.org/2000/svg" width="24" height="24" viewBox="0 0 24 24">
  <defs/>
  <path fill="#292D32" opacity="0.4" d="M12.93,4.79 L7.35,4.79 C3.25,4.79 2,6.04 2,10.14 L2,13.86 C2,17.96 3.25,19.21 7.35,19.21 L12.93,19.21 C17.03,19.21 18.28,17.96 18.28,13.86 L18.28,10.14 C18.28,6.04 17.03,4.79 12.93,4.79 Z"/>
  <path fill="#292D32" d="M20.419,9 C20.279,8.99 20.099,8.98 19.899,8.98 C19.509,8.98 19.199,9.29 19.199,9.68 L19.199,14.33 C19.199,14.72 19.509,15.03 19.899,15.03 C20.099,15.03 20.269,15.02 20.439,15.01 C21.999,14.83 21.999,13.73 21.999,12.93 L21.999,11.07 C21.999,10.27 21.999,9.17 20.419,9 Z"/>
  <path fill="#292D32" d="M10.01,16.24 C9.84,16.24 9.66,16.18 9.52,16.06 C9.21,15.79 9.17,15.32 9.44,15 L11.24,12.89 C11.25,12.86 11.24,12.83 11.22,12.8 C11.2,12.76 11.16,12.74 11.11,12.74 L9.12,12.74 C8.53,12.74 8.01,12.44 7.71,11.93 C7.42,11.42 7.42,10.82 7.71,10.31 L9.42,8.05 C9.67,7.72 10.14,7.65 10.47,7.9 C10.8,8.15 10.87,8.62 10.62,8.95 L8.97,11.14 C9,11.1 9,11.14 9.02,11.19 C9.04,11.23 9.08,11.25 9.13,11.25 L11.14,11.25 C11.73,11.25 12.25,11.55 12.55,12.06 C12.84,12.57 12.84,13.17 12.55,13.68 C12.53,13.72 12.5,13.76 12.47,13.79 L10.6,15.98 C10.44,16.16 10.23,16.24 10.01,16.24 Z"/>
</svg>

