<svg xmlns="http://www.w3.org/2000/svg" width="24" height="24" viewBox="0 0 24 24">
  <defs/>
  <path fill="#292D32" d="M20.5,8.75 Q22.75,8.75 22.75,11 L22.75,13 Q22.75,15.25 20.5,15.25 Q20.189,15.25 19.97,15.03 Q19.75,14.811 19.75,14.5 Q19.75,14.189 19.97,13.97 Q20.189,13.75 20.5,13.75 Q21.25,13.75 21.25,13 L21.25,11 Q21.25,10.25 20.5,10.25 Q20.189,10.25 19.97,10.03 Q19.75,9.811 19.75,9.5 Q19.75,9.189 19.97,8.97 Q20.189,8.75 20.5,8.75 Z"/>
  <path fill="#292D32" d="M3.366,21.1 L15.366,2.1 Q15.532,1.837 15.835,1.768 Q16.138,1.7 16.4,1.866 Q16.663,2.032 16.732,2.335 Q16.8,2.638 16.634,2.9 L4.634,21.9 Q4.468,22.163 4.165,22.232 Q3.862,22.3 3.6,22.134 Q3.337,21.968 3.268,21.665 Q3.2,21.362 3.366,21.1 Z"/>
  <path fill="#292D32" d="M7,5.75 Q4.311,5.75 3.53,6.53 Q2.75,7.311 2.75,10 L2.75,14 Q2.75,17.879 5.471,18.174 Q5.78,18.208 5.974,18.45 Q6.169,18.692 6.136,19.001 Q6.102,19.31 5.86,19.504 Q5.618,19.699 5.309,19.666 Q1.25,19.225 1.25,14 L1.25,10 Q1.25,6.689 2.47,5.47 Q3.689,4.25 7,4.25 Q7.311,4.25 7.53,4.47 Q7.75,4.689 7.75,5 Q7.75,5.311 7.53,5.53 Q7.311,5.75 7,5.75 Z"/>
  <path fill="#292D32" d="M13,18.25 Q15.689,18.25 16.47,17.47 Q17.25,16.689 17.25,14 L17.25,10 Q17.25,6.121 14.548,5.826 Q14.24,5.792 14.045,5.549 Q13.851,5.307 13.884,4.998 Q13.918,4.69 14.161,4.495 Q14.403,4.301 14.712,4.334 Q18.75,4.776 18.75,10 L18.75,14 Q18.75,17.311 17.53,18.53 Q16.311,19.75 13,19.75 Q12.689,19.75 12.47,19.53 Q12.25,19.311 12.25,19 Q12.25,18.689 12.47,18.47 Q12.689,18.25 13,18.25 Z"/>
</svg>

