<svg xmlns="http://www.w3.org/2000/svg" width="24" height="24" viewBox="0 0 24 24">
  <defs/>
  <path fill="#292D32" d="M20.5,8.75 Q22.75,8.75 22.75,11 L22.75,13 Q22.75,15.25 20.5,15.25 Q20.189,15.25 19.97,15.03 Q19.75,14.811 19.75,14.5 Q19.75,14.189 19.97,13.97 Q20.189,13.75 20.5,13.75 Q21.25,13.75 21.25,13 L21.25,11 Q21.25,10.25 20.5,10.25 Q20.189,10.25 19.97,10.03 Q19.75,9.811 19.75,9.5 Q19.75,9.189 19.97,8.97 Q20.189,8.75 20.5,8.75 Z"/>
  <path fill="#292D32" d="M7.107,9.817 Q7.657,12 7.107,14.183 Q7.031,14.484 6.765,14.644 Q6.498,14.803 6.197,14.727 Q5.896,14.651 5.736,14.385 Q5.577,14.118 5.653,13.817 Q6.11,12 5.653,10.183 Q5.577,9.882 5.736,9.615 Q5.896,9.349 6.197,9.273 Q6.498,9.197 6.765,9.356 Q7.031,9.516 7.107,9.817 Z"/>
  <path fill="#292D32" d="M10.607,9.817 Q11.157,12 10.607,14.183 Q10.531,14.484 10.265,14.644 Q9.998,14.803 9.697,14.727 Q9.396,14.651 9.236,14.385 Q9.077,14.118 9.153,13.817 Q9.61,12 9.153,10.183 Q9.077,9.882 9.236,9.615 Q9.396,9.349 9.697,9.273 Q9.998,9.197 10.265,9.356 Q10.531,9.516 10.607,9.817 Z"/>
  <path fill="#292D32" d="M14.107,9.817 Q14.657,12 14.107,14.183 Q14.031,14.484 13.765,14.644 Q13.498,14.803 13.197,14.727 Q12.896,14.651 12.736,14.385 Q12.577,14.118 12.653,13.817 Q13.11,12 12.653,10.183 Q12.577,9.882 12.736,9.615 Q12.896,9.349 13.197,9.273 Q13.498,9.197 13.765,9.356 Q14.031,9.516 14.107,9.817 Z"/>
  <path fill="#292D32" d="M13,19.75 L7,19.75 Q3.689,19.75 2.47,18.53 Q1.25,17.311 1.25,14 L1.25,10 Q1.25,6.689 2.47,5.47 Q3.689,4.25 7,4.25 L13,4.25 Q16.311,4.25 17.53,5.47 Q18.75,6.689 18.75,10 L18.75,14 Q18.75,17.311 17.53,18.53 Q16.311,19.75 13,19.75 Z M13,18.25 Q15.689,18.25 16.47,17.47 Q17.25,16.689 17.25,14 L17.25,10 Q17.25,7.311 16.47,6.53 Q15.689,5.75 13,5.75 L7,5.75 Q4.311,5.75 3.53,6.53 Q2.75,7.311 2.75,10 L2.75,14 Q2.75,16.689 3.53,17.47 Q4.311,18.25 7,18.25 Z"/>
</svg>

