<svg xmlns="http://www.w3.org/2000/svg" width="24" height="24" viewBox="0 0 24 24">
  <defs/>
  <path fill="#292D32" opacity="0.34" d="M20.5,8.75 Q22.75,8.75 22.75,11 L22.75,13 Q22.75,15.25 20.5,15.25 Q20.189,15.25 19.97,15.03 Q19.75,14.811 19.75,14.5 Q19.75,14.189 19.97,13.97 Q20.189,13.75 20.5,13.75 Q21.25,13.75 21.25,13 L21.25,11 Q21.25,10.25 20.5,10.25 Q20.189,10.25 19.97,10.03 Q19.75,9.811 19.75,9.5 Q19.75,9.189 19.97,8.97 Q20.189,8.75 20.5,8.75 Z"/>
  <path fill="#292D32" opacity="0.34" d="M10.597,8.452 L8.743,10.906 Q8.692,11.018 8.754,11.127 Q8.825,11.25 8.969,11.25 L11.269,11.25 Q12.279,11.25 12.784,12.123 Q13.289,12.993 12.792,13.87 Q12.756,13.933 12.709,13.988 L10.569,16.488 Q10.367,16.724 10.057,16.748 Q9.748,16.772 9.512,16.57 Q9.275,16.368 9.251,16.058 Q9.227,15.748 9.429,15.512 L11.508,13.084 Q11.547,12.978 11.487,12.875 Q11.414,12.75 11.269,12.75 L8.969,12.75 Q7.957,12.75 7.454,11.875 Q6.951,11 7.461,10.123 Q7.484,10.084 7.511,10.048 L9.401,7.548 Q9.588,7.3 9.896,7.257 Q10.204,7.214 10.452,7.402 Q10.699,7.589 10.742,7.897 Q10.785,8.204 10.597,8.452 Z"/>
  <path fill="#292D32" d="M7,19.75 Q3.689,19.75 2.47,18.53 Q1.25,17.311 1.25,14 L1.25,10 Q1.25,6.689 2.47,5.47 Q3.689,4.25 7,4.25 Q7.311,4.25 7.53,4.47 Q7.75,4.689 7.75,5 Q7.75,5.311 7.53,5.53 Q7.311,5.75 7,5.75 Q4.311,5.75 3.53,6.53 Q2.75,7.311 2.75,10 L2.75,14 Q2.75,16.689 3.53,17.47 Q4.311,18.25 7,18.25 Q7.311,18.25 7.53,18.47 Q7.75,18.689 7.75,19 Q7.75,19.311 7.53,19.53 Q7.311,19.75 7,19.75 Z"/>
  <path fill="#292D32" d="M13,4.25 Q16.311,4.25 17.53,5.47 Q18.75,6.689 18.75,10 L18.75,14 Q18.75,17.311 17.53,18.53 Q16.311,19.75 13,19.75 Q12.689,19.75 12.47,19.53 Q12.25,19.311 12.25,19 Q12.25,18.689 12.47,18.47 Q12.689,18.25 13,18.25 Q15.689,18.25 16.47,17.47 Q17.25,16.689 17.25,14 L17.25,10 Q17.25,7.311 16.47,6.53 Q15.689,5.75 13,5.75 Q12.689,5.75 12.47,5.53 Q12.25,5.311 12.25,5 Q12.25,4.689 12.47,4.47 Q12.689,4.25 13,4.25 Z"/>
</svg>

