<svg xmlns="http://www.w3.org/2000/svg" width="24" height="24" viewBox="0 0 24 24">
  <defs/>
  <path fill="#292D32" d="M10.97,4.25 L13,4.25 Q16.311,4.25 17.53,5.47 Q18.75,6.689 18.75,10 L18.75,14 Q18.75,17.311 17.53,18.53 Q16.311,19.75 13,19.75 L7,19.75 Q3.689,19.75 2.47,18.53 Q1.25,17.311 1.25,14 L1.25,10 Q1.25,6.689 2.47,5.47 Q3.689,4.25 7,4.25 Q7.311,4.25 7.53,4.47 Q7.75,4.689 7.75,5 Q7.75,5.311 7.53,5.53 Q7.311,5.75 7,5.75 Q4.311,5.75 3.53,6.53 Q2.75,7.311 2.75,10 L2.75,14 Q2.75,16.689 3.53,17.47 Q4.311,18.25 7,18.25 L13,18.25 Q15.689,18.25 16.47,17.47 Q17.25,16.689 17.25,14 L17.25,10 Q17.25,7.311 16.47,6.53 Q15.689,5.75 13,5.75 L10.97,5.75 Q10.659,5.75 10.44,5.53 Q10.22,5.311 10.22,5 Q10.22,4.689 10.44,4.47 Q10.659,4.25 10.97,4.25 Z"/>
  <path fill="#292D32" d="M20.5,8.75 Q22.14,8.75 22.563,9.68 Q22.75,10.069 22.75,11 L22.75,13 Q22.75,15.25 20.5,15.25 Q20.189,15.25 19.97,15.03 Q19.75,14.811 19.75,14.5 Q19.75,14.189 19.97,13.97 Q20.189,13.75 20.5,13.75 Q21.25,13.75 21.25,13 L21.25,11 Q21.25,10.411 21.197,10.3 Q21.174,10.25 20.5,10.25 Q20.189,10.25 19.97,10.03 Q19.75,9.811 19.75,9.5 Q19.75,9.189 19.97,8.97 Q20.189,8.75 20.5,8.75 Z"/>
</svg>

