<svg xmlns="http://www.w3.org/2000/svg" width="24" height="24" viewBox="0 0 24 24">
  <defs/>
  <path fill="#292D32" d="M20.5,15.25 C20.09,15.25 19.75,14.91 19.75,14.5 C19.75,14.09 20.09,13.75 20.5,13.75 C21.09,13.75 21.22,13.66 21.23,13.66 C21.25,13.6 21.25,13.25 21.25,13 L21.25,11 C21.25,10.75 21.25,10.41 21.21,10.32 C21.2,10.33 21.05,10.25 20.5,10.25 C20.09,10.25 19.75,9.91 19.75,9.5 C19.75,9.09 20.09,8.75 20.5,8.75 C22.58,8.75 22.75,9.77 22.75,11 L22.75,13 C22.75,14.23 22.58,15.25 20.5,15.25 Z"/>
  <path fill="#292D32" d="M10.001,16.75 C9.831,16.75 9.651,16.69 9.511,16.57 C9.201,16.3 9.161,15.83 9.431,15.51 L11.511,13.08 C11.541,12.99 11.511,12.91 11.491,12.87 C11.461,12.82 11.401,12.75 11.271,12.75 L8.971,12.75 C8.341,12.75 7.771,12.42 7.451,11.88 C7.131,11.34 7.131,10.68 7.451,10.13 L9.401,7.55 C9.651,7.22 10.121,7.15 10.451,7.4 C10.781,7.65 10.851,8.12 10.601,8.45 L8.711,10.95 C8.701,10.98 8.741,11.07 8.761,11.12 C8.791,11.17 8.851,11.24 8.981,11.24 L11.281,11.24 C11.911,11.24 12.481,11.57 12.801,12.11 C13.121,12.65 13.121,13.31 12.801,13.86 C12.781,13.9 12.751,13.94 12.721,13.97 L10.581,16.47 C10.421,16.66 10.211,16.75 10.001,16.75 Z"/>
  <path fill="#292D32" d="M7,19.75 C2.59,19.75 1.25,18.41 1.25,14 L1.25,10 C1.25,5.59 2.59,4.25 7,4.25 C7.41,4.25 7.75,4.59 7.75,5 C7.75,5.41 7.41,5.75 7,5.75 C3.43,5.75 2.75,6.43 2.75,10 L2.75,14 C2.75,17.57 3.43,18.25 7,18.25 C7.41,18.25 7.75,18.59 7.75,19 C7.75,19.41 7.41,19.75 7,19.75 Z"/>
  <path fill="#292D32" d="M13,19.75 C12.59,19.75 12.25,19.41 12.25,19 C12.25,18.59 12.59,18.25 13,18.25 C16.57,18.25 17.25,17.57 17.25,14 L17.25,10 C17.25,6.43 16.57,5.75 13,5.75 C12.59,5.75 12.25,5.41 12.25,5 C12.25,4.59 12.59,4.25 13,4.25 C17.41,4.25 18.75,5.59 18.75,10 L18.75,14 C18.75,18.41 17.41,19.75 13,19.75 Z"/>
</svg>

