<svg xmlns="http://www.w3.org/2000/svg" width="24" height="24" viewBox="0 0 24 24">
  <defs/>
  <path fill="#292D32" d="M20.419,9 C20.279,8.99 20.099,8.98 19.899,8.98 C19.509,8.98 19.199,9.29 19.199,9.68 L19.199,14.331 C19.199,14.72 19.509,15.03 19.899,15.03 C20.099,15.03 20.269,15.021 20.439,15.011 C21.999,14.831 21.999,13.73 21.999,12.931 L21.999,11.07 C21.999,10.271 21.999,9.17 20.419,9 Z"/>
  <path fill="#292D32" d="M12.93,4.789 L7.35,4.789 C3.25,4.789 2,6.039 2,10.139 L2,13.859 C2,17.959 3.25,19.209 7.35,19.209 L12.93,19.209 C17.03,19.209 18.28,17.959 18.28,13.859 L18.28,10.139 C18.28,6.039 17.03,4.789 12.93,4.789 Z M12.53,13.679 C12.51,13.719 12.48,13.759 12.45,13.789 L10.58,15.979 C10.43,16.149 10.22,16.239 10.01,16.239 C9.84,16.239 9.66,16.179 9.52,16.059 C9.21,15.789 9.17,15.319 9.44,14.999 L11.24,12.889 C11.25,12.859 11.24,12.829 11.22,12.799 C11.2,12.759 11.16,12.739 11.11,12.739 L9.12,12.739 C8.53,12.739 8.01,12.439 7.71,11.929 C7.42,11.419 7.42,10.819 7.71,10.309 L9.42,8.049 C9.67,7.719 10.14,7.649 10.47,7.899 C10.8,8.149 10.87,8.619 10.62,8.949 L8.97,11.139 C9,11.099 9,11.139 9.02,11.189 C9.04,11.229 9.08,11.249 9.13,11.249 L11.14,11.249 C11.73,11.249 12.25,11.549 12.55,12.059 C12.82,12.569 12.82,13.169 12.53,13.679 Z"/>
</svg>

