<svg xmlns="http://www.w3.org/2000/svg" width="24" height="24" viewBox="0 0 24 24">
  <defs/>
  <path fill="#292D32" opacity="0.4" d="M12.93,4.79 L7.35,4.79 C3.25,4.79 2,6.04 2,10.14 L2,13.86 C2,17.96 3.25,19.21 7.35,19.21 L12.93,19.21 C17.03,19.21 18.28,17.96 18.28,13.86 L18.28,10.14 C18.28,6.04 17.03,4.79 12.93,4.79 Z"/>
  <path fill="#292D32" d="M20.419,9 C20.279,8.99 20.099,8.98 19.899,8.98 C19.509,8.98 19.199,9.29 19.199,9.68 L19.199,14.33 C19.199,14.72 19.509,15.03 19.899,15.03 C20.099,15.03 20.269,15.02 20.439,15.01 C21.999,14.83 21.999,13.73 21.999,12.93 L21.999,11.07 C21.999,10.27 21.999,9.17 20.419,9 Z"/>
  <path fill="#292D32" d="M6.38,14.75 C6.32,14.75 6.26,14.74 6.2,14.73 C5.8,14.63 5.55,14.22 5.65,13.82 C5.95,12.63 5.95,11.37 5.65,10.18 C5.55,9.78 5.79,9.37 6.2,9.27 C6.59,9.17 7,9.42 7.1,9.82 C7.46,11.25 7.46,12.76 7.1,14.18 C7.02,14.52 6.71,14.75 6.38,14.75 Z"/>
</svg>

