<svg xmlns="http://www.w3.org/2000/svg" width="24" height="24" viewBox="0 0 24 24">
  <defs/>
  <path d="M9,18.75 L3,18.75 C2.04,18.75 1.25,17.96 1.25,17 L1.25,7 C1.25,6.04 2.04,5.25 3,5.25 L8,5.25 C10.07,5.25 11.75,6.93 11.75,9 C11.75,10.03 11.33,10.96 10.66,11.64 C11.9,12.25 12.75,13.53 12.75,15 C12.75,17.07 11.07,18.75 9,18.75 Z M2.75,12.75 L2.75,17 C2.75,17.14 2.86,17.25 3,17.25 L9,17.25 C10.24,17.25 11.25,16.24 11.25,15 C11.25,13.76 10.24,12.75 9,12.75 L2.75,12.75 Z M2.75,11.25 L8,11.25 C9.24,11.25 10.25,10.24 10.25,9 C10.25,7.76 9.24,6.75 8,6.75 L3,6.75 C2.86,6.75 2.75,6.86 2.75,7 L2.75,11.25 Z"/>
  <path d="M19.67,18.75 L18,18.75 C15.38,18.75 13.25,16.62 13.25,14 C13.25,11.38 15.38,9.25 18,9.25 C20.62,9.25 22.75,11.38 22.75,14 C22.75,14.41 22.41,14.75 22,14.75 L14.84,14.75 C15.18,16.18 16.47,17.25 18,17.25 L19.67,17.25 C20.08,17.25 20.42,17.59 20.42,18 C20.42,18.41 20.08,18.75 19.67,18.75 Z M14.84,13.25 L21.17,13.25 C20.83,11.82 19.54,10.75 18.01,10.75 C16.48,10.75 15.18,11.82 14.84,13.25 Z"/>
  <path d="M19.5,8.25 L16.5,8.25 C16.09,8.25 15.75,7.91 15.75,7.5 C15.75,7.09 16.09,6.75 16.5,6.75 L19.5,6.75 C19.91,6.75 20.25,7.09 20.25,7.5 C20.25,7.91 19.91,8.25 19.5,8.25 Z"/>
</svg>

