<svg xmlns="http://www.w3.org/2000/svg" width="24" height="24" viewBox="0 0 24 24">
  <defs/>
  <path fill="#17191C" d="M10.987,11.62 Q12.75,12.429 12.75,15 Q12.75,18.75 9,18.75 L3,18.75 Q2.239,18.75 1.745,18.255 Q1.25,17.761 1.25,17 L1.25,7 Q1.25,5.25 3,5.25 L8,5.25 Q11.75,5.25 11.75,9 Q11.75,10.692 10.987,11.62 Z M2.75,12.75 L2.75,17 Q2.75,17.25 3,17.25 L9,17.25 Q11.25,17.25 11.25,15 Q11.25,12.75 9,12.75 L2.75,12.75 Z M8,11.25 Q10.25,11.25 10.25,9 Q10.25,6.75 8,6.75 L3,6.75 Q2.75,6.75 2.75,7 L2.75,11.25 L8,11.25 Z"/>
  <path fill="#17191C" d="M14.799,14.75 Q15.15,17.25 18,17.25 L19.7,17.25 Q20.011,17.25 20.23,17.47 Q20.45,17.689 20.45,18 Q20.45,18.311 20.23,18.53 Q20.011,18.75 19.7,18.75 L18,18.75 Q16.039,18.75 14.645,17.355 Q13.25,15.961 13.25,14 L13.25,13.999 Q13.251,12.039 14.645,10.645 Q16.039,9.25 18,9.25 Q19.961,9.25 21.355,10.645 Q22.75,12.039 22.75,14 Q22.75,14.311 22.53,14.53 Q22.311,14.75 22,14.75 L14.799,14.75 Z M14.832,13.25 L21.201,13.25 Q20.85,10.75 18,10.75 Q16.661,10.75 15.705,11.705 Q15.029,12.381 14.832,13.25 Z"/>
  <path fill="#17191C" d="M19.5,8.25 L16.5,8.25 Q16.189,8.25 15.97,8.03 Q15.75,7.811 15.75,7.5 Q15.75,7.189 15.97,6.97 Q16.189,6.75 16.5,6.75 L19.5,6.75 Q19.811,6.75 20.03,6.97 Q20.25,7.189 20.25,7.5 Q20.25,7.811 20.03,8.03 Q19.811,8.25 19.5,8.25 Z"/>
</svg>

