<svg xmlns="http://www.w3.org/2000/svg" width="24" height="24" viewBox="0 0 24 24">
  <defs/>
  <path fill="#292D32" d="M19.14,7.72 C19.43,8.47 20.15,9 21,9 C22.1,9 23,8.1 23,7 C23,5.9 22.1,5 21,5 C20.15,5 19.43,5.53 19.14,6.28 C19.09,6.27 19.05,6.25 19,6.25 L15,6.25 L15,5.5 C15,4.68 14.32,4 13.5,4 L10.5,4 C9.68,4 9,4.68 9,5.5 L9,6.25 L5,6.25 C4.95,6.25 4.91,6.27 4.86,6.28 C4.57,5.53 3.85,5 3,5 C1.9,5 1,5.9 1,7 C1,8.1 1.9,9 3,9 C3.85,9 4.57,8.47 4.86,7.72 C4.91,7.73 4.95,7.75 5,7.75 L7.57,7.75 C5.52,9.27 4.25,11.79 4.25,14.5 C4.25,14.67 4.26,14.83 4.28,15 L4,15 C3.17,15 2.5,15.67 2.5,16.5 L2.5,18.5 C2.5,19.33 3.17,20 4,20 L6,20 C6.22,20 6.42,19.95 6.61,19.86 C7.13,19.64 7.5,19.11 7.5,18.5 L7.5,16.5 C7.5,15.67 6.83,15 6,15 L5.77,15 C5.77,14.97 5.78,14.94 5.78,14.91 C5.76,14.77 5.76,14.64 5.76,14.5 C5.76,12.03 7.03,9.77 9.02,8.6 C9.06,9.37 9.71,10 10.5,10 L13.5,10 C14.29,10 14.94,9.37 14.99,8.6 C16.98,9.77 18.25,12.04 18.25,14.5 C18.25,14.64 18.24,14.77 18.23,14.91 C18.23,14.94 18.24,14.97 18.24,15 L18,15 C17.17,15 16.5,15.67 16.5,16.5 L16.5,18.5 C16.5,19.11 16.87,19.64 17.39,19.86 C17.58,19.95 17.78,20 18,20 L20,20 C20.83,20 21.5,19.33 21.5,18.5 L21.5,16.5 C21.5,15.67 20.83,15 20,15 L19.72,15 C19.74,14.83 19.75,14.67 19.75,14.5 C19.75,11.79 18.48,9.27 16.43,7.75 L19,7.75 C19.05,7.75 19.09,7.73 19.14,7.72 Z"/>
</svg>

