<svg xmlns="http://www.w3.org/2000/svg" width="24" height="24" viewBox="0 0 24 24">
  <defs/>
  <path fill="#292D32" d="M3,9.75 C1.48,9.75 0.25,8.52 0.25,7 C0.25,5.48 1.48,4.25 3,4.25 C4.52,4.25 5.75,5.48 5.75,7 C5.75,8.52 4.52,9.75 3,9.75 Z M3,5.75 C2.31,5.75 1.75,6.31 1.75,7 C1.75,7.69 2.31,8.25 3,8.25 C3.69,8.25 4.25,7.69 4.25,7 C4.25,6.31 3.69,5.75 3,5.75 Z"/>
  <path fill="#292D32" d="M21,9.75 C19.48,9.75 18.25,8.52 18.25,7 C18.25,5.48 19.48,4.25 21,4.25 C22.52,4.25 23.75,5.48 23.75,7 C23.75,8.52 22.52,9.75 21,9.75 Z M21,5.75 C20.31,5.75 19.75,6.31 19.75,7 C19.75,7.69 20.31,8.25 21,8.25 C21.69,8.25 22.25,7.69 22.25,7 C22.25,6.31 21.69,5.75 21,5.75 Z"/>
  <path fill="#292D32" d="M19,7.75 L15,7.75 C14.59,7.75 14.25,7.41 14.25,7 C14.25,6.59 14.59,6.25 15,6.25 L19,6.25 C19.41,6.25 19.75,6.59 19.75,7 C19.75,7.41 19.41,7.75 19,7.75 Z"/>
  <path fill="#292D32" d="M9,7.75 L5,7.75 C4.59,7.75 4.25,7.41 4.25,7 C4.25,6.59 4.59,6.25 5,6.25 L9,6.25 C9.41,6.25 9.75,6.59 9.75,7 C9.75,7.41 9.41,7.75 9,7.75 Z"/>
  <path fill="#292D32" d="M6,20.75 L4,20.75 C2.76,20.75 1.75,19.74 1.75,18.5 L1.75,16.5 C1.75,15.26 2.76,14.25 4,14.25 L6,14.25 C7.24,14.25 8.25,15.26 8.25,16.5 L8.25,18.5 C8.25,19.4 7.72,20.2 6.9,20.55 C6.63,20.68 6.32,20.75 6,20.75 Z M4,15.75 C3.59,15.75 3.25,16.09 3.25,16.5 L3.25,18.5 C3.25,18.91 3.59,19.25 4,19.25 L6,19.25 C6.1,19.25 6.19,19.23 6.29,19.18 C6.58,19.06 6.75,18.79 6.75,18.5 L6.75,16.5 C6.75,16.09 6.41,15.75 6,15.75 L4,15.75 Z"/>
  <path fill="#292D32" d="M20,20.75 L18,20.75 C17.68,20.75 17.37,20.68 17.07,20.54 C16.28,20.21 15.75,19.4 15.75,18.5 L15.75,16.5 C15.75,15.26 16.76,14.25 18,14.25 L20,14.25 C21.24,14.25 22.25,15.26 22.25,16.5 L22.25,18.5 C22.25,19.74 21.24,20.75 20,20.75 Z M18,15.75 C17.59,15.75 17.25,16.09 17.25,16.5 L17.25,18.5 C17.25,18.79 17.42,19.06 17.68,19.17 C17.81,19.23 17.9,19.25 18,19.25 L20,19.25 C20.41,19.25 20.75,18.91 20.75,18.5 L20.75,16.5 C20.75,16.09 20.41,15.75 20,15.75 L18,15.75 Z"/>
  <path fill="#292D32" d="M13.5,10.75 L10.5,10.75 C9.26,10.75 8.25,9.74 8.25,8.5 L8.25,5.5 C8.25,4.26 9.26,3.25 10.5,3.25 L13.5,3.25 C14.74,3.25 15.75,4.26 15.75,5.5 L15.75,8.5 C15.75,9.74 14.74,10.75 13.5,10.75 Z M10.5,4.75 C10.09,4.75 9.75,5.09 9.75,5.5 L9.75,8.5 C9.75,8.91 10.09,9.25 10.5,9.25 L13.5,9.25 C13.91,9.25 14.25,8.91 14.25,8.5 L14.25,5.5 C14.25,5.09 13.91,4.75 13.5,4.75 L10.5,4.75 Z"/>
  <path fill="#292D32" d="M18.971,15.75 C18.941,15.75 18.911,15.75 18.881,15.75 C18.471,15.7 18.171,15.33 18.221,14.92 C18.241,14.78 18.241,14.65 18.241,14.51 C18.241,11.91 16.831,9.51 14.651,8.41 C14.281,8.22 14.131,7.77 14.321,7.4 C14.511,7.03 14.961,6.88 15.331,7.07 C18.011,8.43 19.741,11.35 19.741,14.51 C19.741,14.71 19.731,14.9 19.701,15.1 C19.671,15.47 19.351,15.75 18.971,15.75 Z"/>
  <path fill="#292D32" d="M5.03,15.75 C4.65,15.75 4.33,15.47 4.29,15.09 C4.27,14.89 4.25,14.7 4.25,14.5 C4.25,11.34 5.98,8.42 8.66,7.06 C9.03,6.87 9.48,7.02 9.67,7.39 C9.86,7.76 9.71,8.21 9.34,8.4 C7.16,9.5 5.75,11.9 5.75,14.5 C5.75,14.64 5.76,14.77 5.77,14.91 C5.82,15.32 5.52,15.69 5.11,15.74 C5.09,15.75 5.06,15.75 5.03,15.75 Z"/>
</svg>

