<svg xmlns="http://www.w3.org/2000/svg" width="24" height="24" viewBox="0 0 24 24">
  <defs/>
  <path fill="#292D32" d="M3,9 C4.105,9 5,8.105 5,7 C5,5.895 4.105,5 3,5 C1.895,5 1,5.895 1,7 C1,8.105 1.895,9 3,9 Z"/>
  <path fill="#292D32" d="M21,9 C22.105,9 23,8.105 23,7 C23,5.895 22.105,5 21,5 C19.895,5 19,5.895 19,7 C19,8.105 19.895,9 21,9 Z"/>
  <path fill="#292D32" d="M7.5,16.5 L7.5,18.5 C7.5,19.11 7.13,19.64 6.61,19.86 C6.42,19.95 6.22,20 6,20 L4,20 C3.17,20 2.5,19.33 2.5,18.5 L2.5,16.5 C2.5,15.67 3.17,15 4,15 L6,15 C6.83,15 7.5,15.67 7.5,16.5 Z"/>
  <path fill="#292D32" d="M21.5,16.5 L21.5,18.5 C21.5,19.33 20.83,20 20,20 L18,20 C17.78,20 17.58,19.95 17.39,19.86 C16.87,19.64 16.5,19.11 16.5,18.5 L16.5,16.5 C16.5,15.67 17.17,15 18,15 L20,15 C20.83,15 21.5,15.67 21.5,16.5 Z"/>
  <path fill="#292D32" d="M15,5.5 L15,8.5 C15,9.32 14.32,10 13.5,10 L10.5,10 C9.68,10 9,9.32 9,8.5 L9,5.5 C9,4.68 9.68,4 10.5,4 L13.5,4 C14.32,4 15,4.68 15,5.5 Z"/>
  <g opacity="0.4">
    <path fill="#292D32" opacity="0.4" d="M9,6.25 L5,6.25 C4.59,6.25 4.25,6.59 4.25,7 C4.25,7.41 4.59,7.75 5,7.75 L7.57,7.75 C5.52,9.27 4.25,11.79 4.25,14.5 C4.25,14.7 4.26,14.89 4.29,15.09 C4.33,15.47 4.66,15.75 5.03,15.75 C5.06,15.75 5.09,15.75 5.12,15.75 C5.53,15.7 5.83,15.33 5.78,14.92 C5.76,14.78 5.76,14.65 5.76,14.51 C5.76,11.91 7.17,9.51 9.35,8.41 C9.72,8.22 9.87,7.77 9.68,7.4 C9.67,7.39 9.66,7.38 9.66,7.37 C9.72,7.26 9.77,7.14 9.77,7.01 C9.75,6.59 9.41,6.25 9,6.25 Z"/>
    <path fill="#292D32" opacity="0.4" d="M16.43,7.75 L19,7.75 C19.41,7.75 19.75,7.41 19.75,7 C19.75,6.59 19.41,6.25 19,6.25 L15,6.25 C14.59,6.25 14.25,6.59 14.25,7 C14.25,7.13 14.29,7.25 14.36,7.36 C14.35,7.37 14.34,7.38 14.34,7.39 C14.15,7.76 14.3,8.21 14.67,8.4 C16.85,9.5 18.26,11.9 18.26,14.5 C18.26,14.64 18.25,14.77 18.24,14.91 C18.19,15.32 18.49,15.69 18.9,15.74 C18.93,15.74 18.96,15.74 18.99,15.74 C19.37,15.74 19.69,15.46 19.73,15.08 C19.75,14.88 19.77,14.69 19.77,14.49 C19.75,11.79 18.48,9.27 16.43,7.75 Z"/>
  </g>
</svg>

