<svg xmlns="http://www.w3.org/2000/svg" width="24" height="24" viewBox="0 0 24 24">
  <defs/>
  <path fill="#292D32" opacity="0.4" d="M3.67,2.5 L3.67,14.47 C3.67,15.45 4.13,16.38 4.92,16.97 L10.13,20.87 C11.24,21.7 12.77,21.7 13.88,20.87 L19.09,16.97 C19.88,16.38 20.34,15.45 20.34,14.47 L20.34,2.5 L3.67,2.5 Z"/>
  <path fill="#292D32" d="M22,3.25 L2,3.25 C1.59,3.25 1.25,2.91 1.25,2.5 C1.25,2.09 1.59,1.75 2,1.75 L22,1.75 C22.41,1.75 22.75,2.09 22.75,2.5 C22.75,2.91 22.41,3.25 22,3.25 Z"/>
  <path fill="#292D32" d="M16,8.75 L8,8.75 C7.59,8.75 7.25,8.41 7.25,8 C7.25,7.59 7.59,7.25 8,7.25 L16,7.25 C16.41,7.25 16.75,7.59 16.75,8 C16.75,8.41 16.41,8.75 16,8.75 Z"/>
  <path fill="#292D32" d="M16,13.75 L8,13.75 C7.59,13.75 7.25,13.41 7.25,13 C7.25,12.59 7.59,12.25 8,12.25 L16,12.25 C16.41,12.25 16.75,12.59 16.75,13 C16.75,13.41 16.41,13.75 16,13.75 Z"/>
</svg>

