<svg xmlns="http://www.w3.org/2000/svg" width="24" height="24" viewBox="0 0 24 24">
  <defs/>
  <path fill="#292D32" d="M12,22.25 C11.18,22.25 10.36,21.99 9.68,21.48 L4.47,17.58 C3.5,16.85 2.92,15.69 2.92,14.48 L2.92,1.76 L21.08,1.76 L21.08,14.48 C21.08,15.69 20.5,16.85 19.53,17.58 L14.32,21.48 C13.64,21.99 12.82,22.25 12,22.25 Z M4.42,3.25 L4.42,14.47 C4.42,15.21 4.78,15.92 5.37,16.37 L10.58,20.27 C11.42,20.9 12.59,20.9 13.43,20.27 L18.64,16.37 C19.23,15.92 19.59,15.21 19.59,14.47 L19.59,3.25 L4.42,3.25 Z"/>
  <path fill="#292D32" d="M22,3.25 L2,3.25 C1.59,3.25 1.25,2.91 1.25,2.5 C1.25,2.09 1.59,1.75 2,1.75 L22,1.75 C22.41,1.75 22.75,2.09 22.75,2.5 C22.75,2.91 22.41,3.25 22,3.25 Z"/>
  <path fill="#292D32" d="M16,8.75 L8,8.75 C7.59,8.75 7.25,8.41 7.25,8 C7.25,7.59 7.59,7.25 8,7.25 L16,7.25 C16.41,7.25 16.75,7.59 16.75,8 C16.75,8.41 16.41,8.75 16,8.75 Z"/>
  <path fill="#292D32" d="M16,13.75 L8,13.75 C7.59,13.75 7.25,13.41 7.25,13 C7.25,12.59 7.59,12.25 8,12.25 L16,12.25 C16.41,12.25 16.75,12.59 16.75,13 C16.75,13.41 16.41,13.75 16,13.75 Z"/>
</svg>

