<svg xmlns="http://www.w3.org/2000/svg" width="24" height="24" viewBox="0 0 24 24">
  <defs/>
  <path fill="#292D32" d="M2.92,1.75 L21.09,1.75 L21.09,14.47 Q21.09,16.412 19.539,17.57 L14.329,21.471 Q12.005,23.209 9.68,21.47 L4.471,17.571 Q2.92,16.412 2.92,14.47 Z M4.42,3.25 L4.42,14.47 Q4.42,15.661 5.369,16.369 L10.579,20.27 Q12.005,21.336 13.431,20.269 L18.64,16.37 Q19.59,15.661 19.59,14.47 L19.59,3.25 L4.42,3.25 Z"/>
  <path fill="#292D32" d="M2,1.75 L22,1.75 Q22.311,1.75 22.53,1.97 Q22.75,2.189 22.75,2.5 Q22.75,2.811 22.53,3.03 Q22.311,3.25 22,3.25 L2,3.25 Q1.689,3.25 1.47,3.03 Q1.25,2.811 1.25,2.5 Q1.25,2.189 1.47,1.97 Q1.689,1.75 2,1.75 Z"/>
  <path fill="#292D32" opacity="0.4" d="M8,7.25 L16,7.25 Q16.311,7.25 16.53,7.47 Q16.75,7.689 16.75,8 Q16.75,8.311 16.53,8.53 Q16.311,8.75 16,8.75 L8,8.75 Q7.689,8.75 7.47,8.53 Q7.25,8.311 7.25,8 Q7.25,7.689 7.47,7.47 Q7.689,7.25 8,7.25 Z"/>
  <path fill="#292D32" opacity="0.4" d="M8,12.25 L16,12.25 Q16.311,12.25 16.53,12.47 Q16.75,12.689 16.75,13 Q16.75,13.311 16.53,13.53 Q16.311,13.75 16,13.75 L8,13.75 Q7.689,13.75 7.47,13.53 Q7.25,13.311 7.25,13 Q7.25,12.689 7.47,12.47 Q7.689,12.25 8,12.25 Z"/>
</svg>

