<svg xmlns="http://www.w3.org/2000/svg" width="24" height="24" viewBox="0 0 24 24">
  <defs/>
  <path fill="white" d="M24,0 L0,0 L0,24 L24,24 L24,0 Z"/>
  <path fill="#292D32" d="M11.399,2.35 L6.259,7.5 C6.059,7.7 6.059,8.01 6.259,8.21 L7.989,9.94 C8.189,10.14 8.499,10.14 8.699,9.94 L13.849,4.79 C14.049,4.59 14.049,4.28 13.849,4.08 L12.119,2.35 C11.909,2.16 11.599,2.16 11.399,2.35 Z"/>
  <path fill="#292D32" opacity="0.4" d="M15.299,6.26 L6.259,15.3 C6.059,15.5 6.059,15.81 6.259,16.01 L7.989,17.74 C8.189,17.94 8.499,17.94 8.699,17.74 L17.749,8.69 C17.949,8.49 17.949,8.18 17.749,7.98 L16.019,6.25 C15.819,6.06 15.499,6.06 15.299,6.26 Z"/>
  <path fill="#292D32" d="M19.21,10.16 L10.16,19.21 C9.96,19.41 9.96,19.72 10.16,19.92 L11.89,21.65 C12.09,21.85 12.4,21.85 12.6,21.65 L21.65,12.6 C21.85,12.4 21.85,12.09 21.65,11.89 L19.92,10.16 C19.72,9.96 19.4,9.96 19.21,10.16 Z"/>
  <path fill="#292D32" opacity="0.4" d="M4.091,13.84 L2.361,12.11 C2.161,11.91 2.161,11.6 2.361,11.4 L4.091,9.67 C4.291,9.47 4.601,9.47 4.801,9.67 L6.531,11.4 C6.731,11.6 6.731,11.91 6.531,12.11 L4.801,13.84 C4.601,14.04 4.281,14.04 4.091,13.84 Z"/>
</svg>

