<svg xmlns="http://www.w3.org/2000/svg" width="24" height="24" viewBox="0 0 24 24">
  <defs/>
  <path fill="#17191C" d="M11.47,1.47 Q11.689,1.25 12,1.25 Q12.311,1.25 12.53,1.47 L18.53,7.47 Q18.75,7.689 18.75,8 Q18.75,8.311 18.53,8.53 L16.53,10.53 Q16.311,10.75 16,10.75 Q15.689,10.75 15.47,10.53 L12,7.061 L8.53,10.53 Q8.311,10.75 8,10.75 Q7.689,10.75 7.47,10.53 L5.47,8.53 Q5.25,8.311 5.25,8 Q5.25,7.689 5.47,7.47 Z M12,3.061 L7.061,8 L8,8.939 L11.47,5.47 Q11.689,5.25 12,5.25 Q12.311,5.25 12.53,5.47 L16,8.939 L16.939,8 L12,3.061 Z"/>
  <path fill="#17191C" d="M11.47,22.53 L5.47,16.53 Q5.25,16.311 5.25,16 Q5.25,15.689 5.47,15.47 L7.47,13.47 Q7.689,13.25 8,13.25 Q8.311,13.25 8.53,13.47 L12,16.939 L15.47,13.47 Q15.689,13.25 16,13.25 Q16.311,13.25 16.53,13.47 L18.53,15.47 Q18.75,15.689 18.75,16 Q18.75,16.311 18.53,16.53 L12.53,22.53 Q12.311,22.75 12,22.75 Q11.689,22.75 11.47,22.53 Z M12,20.939 L16.939,16 L16,15.061 L12.53,18.53 Q12.311,18.75 12,18.75 Q11.689,18.75 11.47,18.53 L8,15.061 L7.061,16 L12,20.939 Z"/>
  <path fill="#17191C" d="M19.255,9.172 Q19.475,8.952 19.785,8.952 Q20.096,8.952 20.316,9.172 L22.578,11.434 Q22.798,11.654 22.798,11.965 Q22.798,12.275 22.578,12.495 L20.316,14.758 Q20.096,14.977 19.785,14.977 Q19.475,14.977 19.255,14.758 L16.992,12.495 Q16.773,12.275 16.772,11.965 Q16.772,11.654 16.992,11.434 Z M19.785,10.763 L18.583,11.965 L19.785,13.167 L20.987,11.965 L19.785,10.763 Z"/>
  <path fill="#17191C" d="M3.755,9.172 Q3.975,8.952 4.285,8.952 Q4.596,8.952 4.816,9.172 L7.078,11.434 Q7.298,11.654 7.298,11.965 Q7.298,12.275 7.078,12.495 L4.816,14.758 Q4.596,14.977 4.285,14.977 Q3.975,14.977 3.755,14.758 L1.492,12.495 Q1.272,12.275 1.272,11.965 Q1.272,11.654 1.492,11.434 Z M4.285,10.763 L3.083,11.965 L4.285,13.167 L5.487,11.965 L4.285,10.763 Z"/>
  <path fill="#17191C" d="M11.399,8.995 Q11.619,8.775 11.929,8.775 Q12.24,8.775 12.46,8.995 L14.934,11.47 Q15.154,11.689 15.154,12 Q15.154,12.311 14.934,12.53 L12.46,15.005 Q12.24,15.225 11.929,15.225 Q11.619,15.225 11.399,15.005 L8.924,12.53 Q8.704,12.311 8.704,12 Q8.704,11.689 8.924,11.47 Z M11.929,10.586 L10.515,12 L11.929,13.414 L13.343,12 L11.929,10.586 Z"/>
</svg>

