<svg xmlns="http://www.w3.org/2000/svg" width="24" height="24" viewBox="0 0 24 24">
  <defs/>
  <path d="M10.869,1.82 Q10.876,1.813 10.883,1.806 Q11.755,0.978 12.626,1.806 Q12.633,1.813 12.64,1.82 L14.37,3.55 Q14.74,3.919 14.74,4.435 Q14.74,4.951 14.37,5.32 L9.22,10.47 Q8.335,11.356 7.449,10.47 L5.719,8.74 Q5.35,8.371 5.35,7.855 Q5.35,7.339 5.719,6.97 Z M11.755,3.056 L6.955,7.855 L8.335,9.234 L13.134,4.435 L11.755,3.056 Z"/>
  <path d="M13.48,9.14 L6.955,15.665 L8.335,17.044 L17.034,8.345 L15.626,6.938 Q15.478,7.01 15.3,7.01 Q14.989,7.01 14.769,6.79 Q14.55,6.571 14.55,6.26 Q14.55,5.949 14.769,5.73 Q15.139,5.36 15.655,5.36 Q16.17,5.36 16.54,5.73 L18.27,7.46 Q18.64,7.829 18.64,8.345 Q18.64,8.861 18.27,9.23 L9.22,18.28 Q8.85,18.65 8.335,18.65 Q7.819,18.65 7.449,18.28 L5.719,16.55 Q4.834,15.665 5.719,14.78 L12.419,8.08 Q12.639,7.86 12.95,7.86 Q13.26,7.86 13.48,8.08 Q13.7,8.299 13.7,8.61 Q13.7,8.921 13.48,9.14 Z"/>
  <path d="M18.674,9.635 Q19.036,9.26 19.561,9.26 Q20.08,9.26 20.45,9.63 L22.18,11.36 Q22.55,11.729 22.55,12.245 Q22.55,12.761 22.18,13.13 L13.13,22.18 Q12.76,22.55 12.245,22.55 Q11.729,22.55 11.359,22.18 L9.63,20.45 Q9.26,20.081 9.26,19.565 Q9.26,19.049 9.629,18.68 L18.674,9.635 Z M19.565,10.866 L10.865,19.565 L12.245,20.944 L20.944,12.245 L19.565,10.866 Z"/>
  <path d="M3.555,14.365 L1.831,12.64 Q0.945,11.755 1.831,10.87 L3.561,9.14 Q4.446,8.254 5.331,9.14 L7.061,10.87 Q7.947,11.755 7.061,12.64 L5.331,14.37 Q4.962,14.74 4.442,14.74 Q3.917,14.74 3.555,14.365 Z M4.446,13.134 L5.825,11.755 L4.446,10.376 L3.067,11.755 L4.446,13.134 Z"/>
</svg>

