<svg xmlns="http://www.w3.org/2000/svg" width="24" height="24" viewBox="0 0 24 24">
  <defs/>
  <path d="M16,10.75 C15.81,10.75 15.62,10.68 15.47,10.53 L12,7.06 L8.53,10.53 C8.24,10.82 7.76,10.82 7.47,10.53 L5.47,8.53 C5.18,8.24 5.18,7.76 5.47,7.47 L11.47,1.47 C11.76,1.18 12.24,1.18 12.53,1.47 L18.53,7.47 C18.82,7.76 18.82,8.24 18.53,8.53 L16.53,10.53 C16.38,10.68 16.19,10.75 16,10.75 Z M12,5.25 C12.19,5.25 12.38,5.32 12.53,5.47 L16,8.94 L16.94,8 L12,3.06 L7.06,8 L8,8.94 L11.47,5.47 C11.62,5.32 11.81,5.25 12,5.25 Z"/>
  <path d="M12,22.75 C11.81,22.75 11.62,22.68 11.47,22.53 L5.47,16.53 C5.18,16.24 5.18,15.76 5.47,15.47 L7.47,13.47 C7.76,13.18 8.24,13.18 8.53,13.47 L12,16.94 L15.47,13.47 C15.76,13.18 16.24,13.18 16.53,13.47 L18.53,15.47 C18.82,15.76 18.82,16.24 18.53,16.53 L12.53,22.53 C12.38,22.68 12.19,22.75 12,22.75 Z M7.06,16 L12,20.94 L16.94,16 L16,15.06 L12.53,18.53 C12.24,18.82 11.76,18.82 11.47,18.53 L8,15.06 L7.06,16 Z"/>
  <path d="M19.75,15 C19.56,15 19.37,14.93 19.22,14.78 L16.97,12.53 C16.68,12.24 16.68,11.76 16.97,11.47 L19.22,9.22 C19.51,8.93 19.99,8.93 20.28,9.22 L22.53,11.47 C22.82,11.76 22.82,12.24 22.53,12.53 L20.28,14.78 C20.13,14.93 19.94,15 19.75,15 Z M18.56,12 L19.75,13.19 L20.94,12 L19.75,10.81 L18.56,12 Z"/>
  <path d="M4.25,15 C4.06,15 3.87,14.93 3.72,14.78 L1.47,12.53 C1.18,12.24 1.18,11.76 1.47,11.47 L3.72,9.22 C4.01,8.93 4.49,8.93 4.78,9.22 L7.03,11.47 C7.32,11.76 7.32,12.24 7.03,12.53 L4.78,14.78 C4.63,14.93 4.44,15 4.25,15 Z M3.06,12 L4.25,13.19 L5.44,12 L4.25,10.81 L3.06,12 Z"/>
  <path d="M12,15.23 C11.81,15.23 11.62,15.16 11.47,15.01 L8.99,12.53 C8.7,12.24 8.7,11.76 8.99,11.47 L11.47,8.99 C11.76,8.7 12.24,8.7 12.53,8.99 L15.01,11.47 C15.3,11.76 15.3,12.24 15.01,12.53 L12.53,15.01 C12.38,15.15 12.19,15.23 12,15.23 Z M10.58,12 L12,13.42 L13.42,12 L12,10.58 L10.58,12 Z"/>
</svg>

