<svg xmlns="http://www.w3.org/2000/svg" width="24" height="24" viewBox="0 0 24 24">
  <defs/>
  <path d="M11.47,1.47 Q11.689,1.25 12,1.25 Q12.311,1.25 12.53,1.47 L18.53,7.47 Q18.75,7.689 18.75,8 Q18.75,8.311 18.53,8.53 L16.53,10.53 Q16.311,10.75 16,10.75 Q15.689,10.75 15.47,10.53 L12,7.061 L8.53,10.53 Q8.311,10.75 8,10.75 Q7.689,10.75 7.47,10.53 L5.47,8.53 Q5.25,8.311 5.25,8 Q5.25,7.689 5.47,7.47 Z M12,3.061 L7.061,8 L8,8.939 L11.47,5.47 Q11.689,5.25 12,5.25 Q12.311,5.25 12.53,5.47 L16,8.939 L16.939,8 L12,3.061 Z"/>
  <path d="M11.47,22.53 L5.47,16.53 Q5.25,16.311 5.25,16 Q5.25,15.689 5.47,15.47 L7.47,13.47 Q7.689,13.25 8,13.25 Q8.311,13.25 8.53,13.47 L12,16.939 L15.47,13.47 Q15.689,13.25 16,13.25 Q16.311,13.25 16.53,13.47 L18.53,15.47 Q18.75,15.689 18.75,16 Q18.75,16.311 18.53,16.53 L12.53,22.53 Q12.311,22.75 12,22.75 Q11.689,22.75 11.47,22.53 Z M12,20.939 L16.939,16 L16,15.061 L12.53,18.53 Q12.311,18.75 12,18.75 Q11.689,18.75 11.47,18.53 L8,15.061 L7.061,16 L12,20.939 Z"/>
  <path opacity="0.4" d="M19.218,9.222 Q19.438,9.002 19.749,9.002 Q20.059,9.002 20.279,9.222 L22.528,11.471 Q22.747,11.69 22.747,12.001 Q22.747,12.312 22.528,12.531 L20.279,14.78 Q20.059,15 19.749,15 Q19.438,15 19.218,14.78 L16.97,12.531 Q16.75,12.312 16.75,12.001 Q16.75,11.69 16.97,11.471 Z M19.749,10.813 L18.561,12.001 L19.749,13.189 L20.937,12.001 L19.749,10.813 Z"/>
  <path opacity="0.4" d="M3.718,9.222 Q3.938,9.002 4.249,9.002 Q4.559,9.002 4.779,9.222 L7.027,11.471 Q7.247,11.69 7.247,12.001 Q7.247,12.312 7.027,12.531 L4.779,14.78 Q4.559,15 4.249,15 Q3.938,15 3.718,14.78 L1.47,12.531 Q1.25,12.312 1.25,12.001 Q1.25,11.69 1.47,11.471 Z M4.249,10.813 L3.061,12.001 L4.249,13.189 L5.436,12.001 L4.249,10.813 Z"/>
  <path opacity="0.4" d="M11.469,8.996 Q11.689,8.776 11.999,8.776 Q12.31,8.776 12.53,8.996 L15.004,11.471 Q15.224,11.69 15.224,12.001 Q15.224,12.312 15.004,12.531 L12.53,15.006 Q12.31,15.226 11.999,15.226 Q11.689,15.226 11.469,15.006 L8.994,12.531 Q8.774,12.312 8.774,12.001 Q8.774,11.69 8.994,11.471 Z M11.999,10.587 L10.585,12.001 L11.999,13.415 L13.413,12.001 L11.999,10.587 Z"/>
</svg>

