<svg xmlns="http://www.w3.org/2000/svg" width="24" height="24" viewBox="0 0 24 24">
  <defs/>
  <path fill="#17191C" d="M10.87,1.87 Q11.239,1.5 11.75,1.5 Q12.261,1.5 12.63,1.87 L14.33,3.57 Q15.211,4.45 14.33,5.33 L9.23,10.43 Q8.861,10.8 8.35,10.8 Q7.839,10.8 7.47,10.43 L5.77,8.73 Q5.4,8.361 5.4,7.85 Q5.4,7.339 5.77,6.97 Z M11.75,3.111 L7.011,7.85 L8.35,9.189 L13.089,4.45 L11.75,3.111 Z"/>
  <path fill="#17191C" d="M14.77,5.77 Q15.139,5.4 15.65,5.4 Q16.161,5.4 16.53,5.77 L18.23,7.47 Q18.6,7.839 18.6,8.35 Q18.6,8.861 18.23,9.23 L9.23,18.23 Q8.861,18.6 8.35,18.6 Q7.839,18.6 7.47,18.23 L5.77,16.53 Q5.4,16.161 5.4,15.65 Q5.4,15.139 5.77,14.77 Z M15.65,7.011 L7.011,15.65 L8.35,16.989 L16.989,8.35 L15.65,7.011 Z"/>
  <path fill="#17191C" d="M18.67,9.67 Q19.039,9.3 19.55,9.3 Q20.061,9.3 20.43,9.67 L22.13,11.37 Q23.011,12.25 22.13,13.13 L13.13,22.13 Q12.25,23.011 11.37,22.13 L9.67,20.43 Q9.3,20.061 9.3,19.55 Q9.3,19.039 9.67,18.67 Z M19.55,10.911 L10.911,19.55 L12.25,20.889 L20.889,12.25 L19.55,10.911 Z"/>
  <path fill="#17191C" d="M3.57,14.33 L1.87,12.63 Q0.989,11.75 1.87,10.87 L3.57,9.17 Q3.939,8.8 4.45,8.8 Q4.961,8.8 5.33,9.17 L7.03,10.87 Q7.911,11.75 7.03,12.63 L5.33,14.33 Q4.45,15.211 3.57,14.33 Z M4.45,13.089 L5.789,11.75 L4.45,10.411 L3.111,11.75 L4.45,13.089 Z"/>
</svg>

