<svg xmlns="http://www.w3.org/2000/svg" width="24" height="24" viewBox="0 0 24 24">
  <defs/>
  <path d="M10.869,1.82 Q10.876,1.813 10.883,1.806 Q11.755,0.978 12.626,1.806 Q12.633,1.813 12.64,1.82 L14.37,3.55 Q14.74,3.919 14.74,4.435 Q14.74,4.951 14.37,5.32 L9.22,10.47 Q8.335,11.356 7.449,10.47 L5.719,8.74 Q5.35,8.371 5.35,7.855 Q5.35,7.339 5.719,6.97 Z M11.755,3.056 L6.955,7.855 L8.335,9.234 L13.134,4.435 L11.755,3.056 Z"/>
  <path opacity="0.4" d="M14.769,5.73 Q15.139,5.36 15.658,5.36 Q16.183,5.36 16.546,5.735 L18.27,7.46 Q18.64,7.829 18.64,8.345 Q18.64,8.861 18.27,9.23 L9.22,18.28 Q8.335,19.166 7.449,18.28 L5.719,16.55 Q4.834,15.665 5.719,14.78 Z M15.655,6.966 L6.955,15.665 L8.335,17.044 L17.034,8.345 L15.655,6.966 Z"/>
  <path d="M18.674,9.635 Q19.036,9.26 19.561,9.26 Q20.08,9.26 20.45,9.629 L22.18,11.359 Q22.55,11.729 22.55,12.245 Q22.55,12.76 22.18,13.13 L13.13,22.18 Q12.76,22.55 12.245,22.55 Q11.729,22.55 11.359,22.18 L9.63,20.45 Q9.26,20.08 9.26,19.565 Q9.26,19.049 9.629,18.679 L18.674,9.635 Z M19.565,10.865 L10.865,19.565 L12.245,20.944 L20.944,12.245 L19.565,10.865 Z"/>
  <path opacity="0.4" d="M3.554,14.365 L1.83,12.64 Q0.944,11.755 1.83,10.87 L3.56,9.14 Q4.445,8.254 5.33,9.14 L7.06,10.87 Q7.946,11.755 7.06,12.64 L5.33,14.37 Q4.961,14.74 4.441,14.74 Q3.916,14.74 3.554,14.365 Z M4.445,13.134 L5.824,11.755 L4.445,10.376 L3.066,11.755 L4.445,13.134 Z"/>
</svg>

