<svg xmlns="http://www.w3.org/2000/svg" width="24" height="24" viewBox="0 0 24 24">
  <defs/>
  <path d="M11.4,2.35 L6.25,7.5 C6.05,7.7 6.05,8.01 6.25,8.21 L7.98,9.94 C8.18,10.139 8.49,10.139 8.69,9.94 L13.84,4.79 C14.04,4.59 14.04,4.28 13.84,4.08 L12.11,2.35 C11.91,2.16 11.6,2.16 11.4,2.35 Z"/>
  <path d="M15.3,6.259 L6.25,15.309 C6.05,15.509 6.05,15.819 6.25,16.019 L7.98,17.749 C8.18,17.949 8.49,17.949 8.69,17.749 L17.74,8.699 C17.94,8.499 17.94,8.189 17.74,7.989 L16.01,6.259 C15.82,6.059 15.5,6.059 15.3,6.259 Z"/>
  <path d="M19.21,10.162 L10.16,19.212 C9.96,19.412 9.96,19.722 10.16,19.922 L11.89,21.652 C12.09,21.852 12.4,21.852 12.6,21.652 L21.65,12.602 C21.85,12.402 21.85,12.092 21.65,11.892 L19.92,10.162 C19.72,9.962 19.4,9.962 19.21,10.162 Z"/>
  <path d="M4.091,13.839 L2.361,12.11 C2.161,11.909 2.161,11.6 2.361,11.399 L4.091,9.67 C4.291,9.47 4.601,9.47 4.801,9.67 L6.531,11.399 C6.731,11.6 6.731,11.909 6.531,12.11 L4.801,13.839 C4.601,14.04 4.281,14.04 4.091,13.839 Z"/>
</svg>

