<svg xmlns="http://www.w3.org/2000/svg" width="24" height="24" viewBox="0 0 24 24">
  <defs/>
  <path d="M8.34,10.83 C8.02,10.83 7.7,10.71 7.46,10.46 L5.73,8.73 C5.24,8.24 5.24,7.45 5.73,6.96 L10.88,1.81 C11.37,1.32 12.16,1.32 12.65,1.81 L14.38,3.54 C14.87,4.03 14.87,4.82 14.38,5.31 L9.23,10.46 C8.98,10.71 8.66,10.83 8.34,10.83 Z M6.96,7.85 L8.34,9.23 L13.13,4.44 L11.75,3.06 L6.96,7.85 Z"/>
  <path d="M8.34,18.64 C8.02,18.64 7.7,18.52 7.46,18.27 L5.73,16.54 C5.24,16.05 5.24,15.26 5.73,14.77 L14.78,5.72 C15.27,5.23 16.06,5.23 16.55,5.72 L18.28,7.45 C18.77,7.94 18.77,8.73 18.28,9.22 L9.23,18.27 C8.98,18.52 8.66,18.64 8.34,18.64 Z M6.96,15.66 L8.34,17.04 L17.04,8.34 L15.66,6.96 L6.96,15.66 Z"/>
  <path d="M12.24,22.54 C11.92,22.54 11.6,22.42 11.36,22.17 L9.63,20.44 C9.14,19.95 9.14,19.16 9.63,18.67 L18.68,9.62 C19.17,9.13 19.96,9.13 20.45,9.62 L22.18,11.35 C22.67,11.84 22.67,12.63 22.18,13.12 L13.13,22.17 C12.88,22.42 12.56,22.54 12.24,22.54 Z M10.87,19.56 L12.25,20.94 L20.95,12.24 L19.57,10.86 L10.87,19.56 Z"/>
  <path d="M4.44,14.74 C4.12,14.74 3.8,14.62 3.56,14.38 L1.83,12.65 C1.34,12.16 1.34,11.37 1.83,10.88 L3.56,9.15 C4.05,8.66 4.84,8.66 5.33,9.15 L7.06,10.88 C7.55,11.37 7.55,12.16 7.06,12.65 L5.33,14.38 C5.08,14.62 4.76,14.74 4.44,14.74 Z M3.06,11.76 L4.44,13.14 L5.82,11.76 L4.44,10.38 L3.06,11.76 Z"/>
</svg>

