<svg xmlns="http://www.w3.org/2000/svg" width="24" height="24" viewBox="0 0 24 24">
  <defs/>
  <path fill="white" d="M24,0 L0,0 L0,24 L24,24 L24,0 Z"/>
  <path fill="#292D32" d="M11.649,2.35 L6.349,7.65 C6.149,7.85 6.149,8.16 6.349,8.36 L7.639,9.65 C7.839,9.85 8.149,9.85 8.349,9.65 L11.639,6.36 C11.839,6.16 12.149,6.16 12.349,6.36 L15.639,9.65 C15.839,9.85 16.149,9.85 16.349,9.65 L17.639,8.36 C17.839,8.16 17.839,7.85 17.639,7.65 L12.349,2.36 C12.159,2.16 11.839,2.16 11.649,2.35 Z"/>
  <path fill="#292D32" d="M11.651,21.65 L6.361,16.36 C6.161,16.16 6.161,15.85 6.361,15.65 L7.651,14.36 C7.851,14.16 8.161,14.16 8.361,14.36 L11.651,17.65 C11.851,17.85 12.161,17.85 12.361,17.65 L15.651,14.36 C15.851,14.16 16.161,14.16 16.361,14.36 L17.651,15.65 C17.851,15.85 17.851,16.16 17.651,16.36 L12.361,21.65 C12.161,21.84 11.841,21.84 11.651,21.65 Z"/>
  <path fill="#292D32" opacity="0.4" d="M20.099,10.1 L21.639,11.64 C21.839,11.84 21.839,12.15 21.639,12.35 L20.099,13.9 C19.899,14.1 19.589,14.1 19.389,13.9 L17.849,12.36 C17.649,12.16 17.649,11.85 17.849,11.65 L19.389,10.11 C19.589,9.91 19.909,9.91 20.099,10.1 Z"/>
  <path fill="#292D32" opacity="0.4" d="M4.599,10.1 L6.139,11.64 C6.339,11.84 6.339,12.15 6.139,12.35 L4.599,13.9 C4.399,14.1 4.089,14.1 3.889,13.9 L2.349,12.36 C2.149,12.16 2.149,11.85 2.349,11.65 L3.899,10.1 C4.089,9.91 4.409,9.91 4.599,10.1 Z"/>
  <path fill="#292D32" opacity="0.4" d="M12.351,9.88 L14.121,11.65 C14.321,11.85 14.321,12.16 14.121,12.36 L12.351,14.13 C12.151,14.33 11.841,14.33 11.641,14.13 L9.871,12.36 C9.671,12.16 9.671,11.85 9.871,11.65 L11.641,9.88 C11.841,9.68 12.161,9.68 12.351,9.88 Z"/>
</svg>

