<svg xmlns="http://www.w3.org/2000/svg" width="24" height="24" viewBox="0 0 24 24">
  <defs/>
  <path d="M11.651,2.35 L6.361,7.64 C6.161,7.84 6.161,8.15 6.361,8.35 L7.651,9.64 C7.851,9.84 8.161,9.84 8.361,9.64 L11.651,6.35 C11.851,6.15 12.161,6.15 12.361,6.35 L15.651,9.64 C15.851,9.84 16.161,9.84 16.361,9.64 L17.651,8.35 C17.851,8.15 17.851,7.84 17.651,7.64 L12.361,2.35 C12.161,2.16 11.841,2.16 11.651,2.35 Z"/>
  <path d="M11.651,21.651 L6.361,16.361 C6.161,16.161 6.161,15.851 6.361,15.651 L7.651,14.361 C7.851,14.161 8.161,14.161 8.361,14.361 L11.651,17.651 C11.851,17.851 12.161,17.851 12.361,17.651 L15.651,14.361 C15.851,14.161 16.161,14.161 16.361,14.361 L17.651,15.651 C17.851,15.851 17.851,16.161 17.651,16.361 L12.361,21.651 C12.161,21.841 11.841,21.841 11.651,21.651 Z"/>
  <path d="M20.099,10.1 L21.639,11.639 C21.839,11.839 21.839,12.149 21.639,12.35 L20.099,13.889 C19.899,14.089 19.589,14.089 19.389,13.889 L17.849,12.35 C17.649,12.149 17.649,11.839 17.849,11.639 L19.389,10.1 C19.589,9.91 19.909,9.91 20.099,10.1 Z"/>
  <path d="M4.599,10.1 L6.139,11.639 C6.339,11.839 6.339,12.149 6.139,12.35 L4.599,13.889 C4.399,14.089 4.089,14.089 3.889,13.889 L2.349,12.35 C2.149,12.149 2.149,11.839 2.349,11.639 L3.889,10.1 C4.089,9.91 4.409,9.91 4.599,10.1 Z"/>
  <path d="M12.351,9.88 L14.121,11.65 C14.321,11.851 14.321,12.161 14.121,12.361 L12.351,14.13 C12.151,14.331 11.841,14.331 11.641,14.13 L9.871,12.361 C9.671,12.161 9.671,11.851 9.871,11.65 L11.641,9.88 C11.841,9.68 12.161,9.68 12.351,9.88 Z"/>
</svg>

