<svg xmlns="http://www.w3.org/2000/svg" width="24" height="24" viewBox="0 0 24 24">
  <defs/>
  <path fill="#292D32" d="M2,7.75 L13,7.75 Q13.311,7.75 13.53,7.97 Q13.75,8.189 13.75,8.5 Q13.75,8.811 13.53,9.03 Q13.311,9.25 13,9.25 L2,9.25 Q1.689,9.25 1.47,9.03 Q1.25,8.811 1.25,8.5 Q1.25,8.189 1.47,7.97 Q1.689,7.75 2,7.75 Z"/>
  <path fill="#292D32" opacity="0.4" d="M6,15.75 L8,15.75 Q8.311,15.75 8.53,15.97 Q8.75,16.189 8.75,16.5 Q8.75,16.811 8.53,17.03 Q8.311,17.25 8,17.25 L6,17.25 Q5.689,17.25 5.47,17.03 Q5.25,16.811 5.25,16.5 Q5.25,16.189 5.47,15.97 Q5.689,15.75 6,15.75 Z"/>
  <path fill="#292D32" opacity="0.4" d="M10.5,15.75 L14.5,15.75 Q14.811,15.75 15.03,15.97 Q15.25,16.189 15.25,16.5 Q15.25,16.811 15.03,17.03 Q14.811,17.25 14.5,17.25 L10.5,17.25 Q10.189,17.25 9.97,17.03 Q9.75,16.811 9.75,16.5 Q9.75,16.189 9.97,15.97 Q10.189,15.75 10.5,15.75 Z"/>
  <path fill="#292D32" d="M22.75,11.33 L22.75,16.11 Q22.75,19.056 21.639,20.155 Q20.531,21.25 17.56,21.25 L6.44,21.25 Q3.469,21.25 2.361,20.155 Q1.25,19.056 1.25,16.11 L1.25,7.89 Q1.25,4.944 2.361,3.845 Q3.469,2.75 6.44,2.75 L13.28,2.75 Q13.591,2.75 13.81,2.97 Q14.03,3.189 14.03,3.5 Q14.03,3.811 13.81,4.03 Q13.591,4.25 13.28,4.25 L6.44,4.25 Q4.086,4.25 3.416,4.912 Q2.75,5.571 2.75,7.89 L2.75,16.11 Q2.75,18.429 3.416,19.088 Q4.086,19.75 6.44,19.75 L17.56,19.75 Q19.914,19.75 20.584,19.088 Q21.25,18.429 21.25,16.11 L21.25,11.33 Q21.25,11.019 21.47,10.8 Q21.689,10.58 22,10.58 Q22.311,10.58 22.53,10.8 Q22.75,11.019 22.75,11.33 Z"/>
  <g opacity="0.4">
    <path fill="#292D32" d="M17,2.5 L20.13,2.5 Q20.955,2.5 21.554,3.122 Q22.13,3.721 22.13,4.5 Q22.13,6.5 20.13,6.5 L17,6.5 Q16.689,6.5 16.47,6.28 Q16.25,6.061 16.25,5.75 L16.25,3.25 Q16.25,2.939 16.47,2.72 Q16.689,2.5 17,2.5 Z M17.75,4 L17.75,5 L20.13,5 Q20.63,5 20.63,4.5 Q20.63,4 20.13,4 L17.75,4 Z"/>
    <path fill="#292D32" d="M17,5 L20.57,5 Q22.75,5 22.75,7 Q22.75,7.858 22.075,8.448 Q21.444,9 20.57,9 L17,9 Q16.689,9 16.47,8.78 Q16.25,8.561 16.25,8.25 L16.25,5.75 Q16.25,5.439 16.47,5.22 Q16.689,5 17,5 Z M17.75,6.5 L17.75,7.5 L20.57,7.5 Q21.25,7.5 21.25,7 Q21.25,6.5 20.57,6.5 L17.75,6.5 Z"/>
    <path fill="#292D32" d="M19.51,8.25 L19.51,9.5 Q19.51,9.811 19.29,10.03 Q19.07,10.25 18.76,10.25 Q18.449,10.25 18.229,10.03 Q18.01,9.811 18.01,9.5 L18.01,8.25 Q18.01,7.939 18.229,7.72 Q18.449,7.5 18.76,7.5 Q19.07,7.5 19.29,7.72 Q19.51,7.939 19.51,8.25 Z"/>
    <path fill="#292D32" d="M19.51,2 L19.51,3.25 Q19.51,3.561 19.29,3.78 Q19.07,4 18.76,4 Q18.449,4 18.229,3.78 Q18.01,3.561 18.01,3.25 L18.01,2 Q18.01,1.689 18.229,1.47 Q18.449,1.25 18.76,1.25 Q19.07,1.25 19.29,1.47 Q19.51,1.689 19.51,2 Z"/>
    <path fill="#292D32" d="M18.19,4 L16,4 Q15.689,4 15.47,3.78 Q15.25,3.561 15.25,3.25 Q15.25,2.939 15.47,2.72 Q15.689,2.5 16,2.5 L18.19,2.5 Q18.501,2.5 18.72,2.72 Q18.94,2.939 18.94,3.25 Q18.94,3.561 18.72,3.78 Q18.501,4 18.19,4 Z"/>
    <path fill="#292D32" d="M18.19,9 L16,9 Q15.689,9 15.47,8.78 Q15.25,8.561 15.25,8.25 Q15.25,7.939 15.47,7.72 Q15.689,7.5 16,7.5 L18.19,7.5 Q18.501,7.5 18.72,7.72 Q18.94,7.939 18.94,8.25 Q18.94,8.561 18.72,8.78 Q18.501,9 18.19,9 Z"/>
  </g>
</svg>

