<svg xmlns="http://www.w3.org/2000/svg" width="24" height="24" viewBox="0 0 24 24">
  <defs/>
  <path fill="#292D32" d="M3.94,11.951 L2.732,10.742 L1.532,11.949 Q1.313,12.169 1.002,12.17 Q0.692,12.171 0.471,11.952 Q0.251,11.733 0.25,11.422 Q0.249,11.112 0.468,10.891 L2.198,9.151 Q2.199,9.151 2.2,9.15 Q2.419,8.93 2.73,8.93 Q3.041,8.93 3.26,9.15 L5,10.89 Q5.22,11.11 5.22,11.42 Q5.22,11.731 5,11.951 Q4.781,12.17 4.47,12.17 Q4.159,12.17 3.94,11.951 Z"/>
  <path fill="#292D32" d="M20.06,12.05 L21.269,13.259 L22.479,12.05 Q22.699,11.83 23.009,11.83 Q23.32,11.83 23.54,12.05 Q23.759,12.269 23.759,12.58 Q23.759,12.891 23.54,13.11 L21.8,14.85 Q21.58,15.07 21.269,15.07 Q20.959,15.07 20.739,14.85 L18.999,13.11 Q18.779,12.891 18.779,12.58 Q18.779,12.269 18.999,12.05 Q19.219,11.83 19.529,11.83 Q19.84,11.83 20.06,12.05 Z"/>
  <path fill="#292D32" d="M20.51,14.32 L20.51,12 Q20.509,8.473 18.016,5.981 Q15.523,3.49 12,3.49 Q7.924,3.49 5.354,6.681 Q5.159,6.923 4.85,6.956 Q4.541,6.989 4.299,6.794 Q4.057,6.599 4.024,6.291 Q3.991,5.982 4.186,5.74 Q7.206,1.99 12,1.99 Q16.144,1.99 19.076,4.92 Q22.009,7.851 22.01,12 L22.01,14.32 Q22.009,14.631 21.79,14.851 Q21.57,15.07 21.26,15.07 Q20.949,15.07 20.729,14.851 Q20.51,14.631 20.51,14.32 Z"/>
  <path fill="#292D32" d="M3.49,9.68 L3.49,12 Q3.49,15.528 5.984,18.02 Q8.476,20.51 12,20.51 Q16.076,20.51 18.646,17.32 Q18.841,17.078 19.15,17.045 Q19.459,17.011 19.701,17.206 Q19.943,17.401 19.976,17.71 Q20.009,18.019 19.814,18.261 Q16.793,22.01 12,22.01 Q7.856,22.01 4.924,19.081 Q1.99,16.149 1.99,12 L1.99,9.68 Q1.99,9.37 2.21,9.15 Q2.43,8.93 2.74,8.93 Q3.051,8.93 3.271,9.15 Q3.49,9.37 3.49,9.68 Z"/>
  <g opacity="0.4">
    <path fill="#292D32" d="M9,7.75 L13.38,7.75 Q15.88,7.75 15.88,10.25 Q15.88,12.75 13.38,12.75 L9,12.75 Q8.689,12.75 8.47,12.53 Q8.25,12.311 8.25,12 L8.25,8.5 Q8.25,8.189 8.47,7.97 Q8.689,7.75 9,7.75 Z M9.75,9.25 L9.75,11.25 L13.38,11.25 Q14.38,11.25 14.38,10.25 Q14.38,9.25 13.38,9.25 L9.75,9.25 Z"/>
    <path fill="#292D32" d="M9,11.25 L14,11.25 Q16.75,11.25 16.75,13.75 Q16.75,16.25 14,16.25 L9,16.25 Q8.689,16.25 8.47,16.03 Q8.25,15.811 8.25,15.5 L8.25,12 Q8.25,11.689 8.47,11.47 Q8.689,11.25 9,11.25 Z M9.75,12.75 L9.75,14.75 L14,14.75 Q15.25,14.75 15.25,13.75 Q15.25,12.75 14,12.75 L9.75,12.75 Z"/>
    <path fill="#292D32" d="M12.551,15.5 L12.551,17.25 Q12.551,17.561 12.331,17.78 Q12.111,18 11.801,18 Q11.49,18 11.27,17.78 Q11.051,17.561 11.051,17.25 L11.051,15.5 Q11.051,15.189 11.27,14.97 Q11.49,14.75 11.801,14.75 Q12.111,14.75 12.331,14.97 Q12.551,15.189 12.551,15.5 Z"/>
    <path fill="#292D32" d="M12.551,6.75 L12.551,8.5 Q12.551,8.811 12.331,9.03 Q12.111,9.25 11.801,9.25 Q11.49,9.25 11.27,9.03 Q11.051,8.811 11.051,8.5 L11.051,6.75 Q11.051,6.439 11.27,6.22 Q11.49,6 11.801,6 Q12.111,6 12.331,6.22 Q12.551,6.439 12.551,6.75 Z"/>
  </g>
</svg>

