<svg xmlns="http://www.w3.org/2000/svg" width="24" height="24" viewBox="0 0 24 24">
  <defs/>
  <path fill="#292D32" opacity="0.4" d="M23,15.22 C23.414,15.22 23.75,15.556 23.75,15.97 C23.75,20.254 20.284,23.72 16,23.72 C15.73,23.72 15.481,23.575 15.347,23.34 C15.214,23.104 15.218,22.816 15.357,22.584 L16.407,20.834 C16.62,20.479 17.081,20.364 17.436,20.577 C17.791,20.79 17.906,21.251 17.693,21.606 L17.422,22.058 C20.191,21.416 22.25,18.937 22.25,15.97 C22.25,15.556 22.586,15.22 23,15.22 Z"/>
  <path fill="#292D32" opacity="0.4" d="M6.578,1.882 C3.809,2.524 1.75,5.003 1.75,7.97 C1.75,8.384 1.414,8.72 1,8.72 C0.586,8.72 0.25,8.384 0.25,7.97 C0.25,3.686 3.716,0.22 8,0.22 C8.27,0.22 8.52,0.365 8.653,0.6 C8.786,0.836 8.782,1.124 8.643,1.356 L7.593,3.106 C7.38,3.461 6.919,3.576 6.564,3.363 C6.209,3.15 6.094,2.689 6.307,2.334 Z"/>
  <path fill="#292D32" opacity="0.4" d="M14.85,15.33 C14.85,18.74 12.09,21.5 8.68,21.5 C5.27,21.5 2.51,18.74 2.51,15.33 C2.51,11.92 5.27,9.16 8.68,9.16 C8.84,9.16 8.99,9.17 9.16,9.18 C12.19,9.41 14.61,11.83 14.84,14.86 C14.84,15.01 14.85,15.16 14.85,15.33 Z"/>
  <path fill="#292D32" d="M21.5,8.67 C21.5,12.08 18.74,14.84 15.33,14.84 L14.84,14.84 C14.61,11.81 12.19,9.39 9.16,9.16 L9.16,8.67 C9.16,5.26 11.92,2.5 15.33,2.5 C18.74,2.5 21.5,5.26 21.5,8.67 Z"/>
  <path fill="#292D32" d="M11.119,15.01 C11.239,14.76 11.309,14.49 11.309,14.2 C11.309,13.2 10.429,12.32 9.429,12.32 L9.169,12.32 L9.169,11.94 C9.169,11.53 8.829,11.19 8.419,11.19 C8.009,11.19 7.669,11.53 7.669,11.94 L7.669,12.32 L6.619,12.32 C6.209,12.32 5.869,12.66 5.869,13.07 L5.869,15.32 L5.869,17.57 C5.869,17.98 6.209,18.32 6.619,18.32 L7.669,18.32 L7.669,18.7 C7.669,19.11 8.009,19.45 8.419,19.45 C8.829,19.45 9.169,19.11 9.169,18.7 L9.169,18.32 L9.829,18.32 C10.949,18.32 11.869,17.48 11.869,16.44 C11.869,15.87 11.569,15.35 11.119,15.01 Z M7.369,13.82 L9.429,13.82 C9.639,13.82 9.809,14.05 9.809,14.2 C9.809,14.41 9.639,14.58 9.429,14.58 L7.369,14.58 L7.369,13.82 Z M9.829,16.83 L7.359,16.83 L7.359,16.08 L9.419,16.08 L9.819,16.08 C10.139,16.08 10.359,16.28 10.359,16.46 C10.359,16.64 10.149,16.83 9.829,16.83 Z"/>
</svg>

