<svg xmlns="http://www.w3.org/2000/svg" width="24" height="24" viewBox="0 0 24 24">
  <defs/>
  <path fill="#292D32" d="M16,23.72 C15.73,23.72 15.48,23.57 15.35,23.34 C15.22,23.11 15.22,22.82 15.36,22.59 L16.41,20.84 C16.62,20.48 17.08,20.37 17.44,20.58 C17.8,20.79 17.91,21.25 17.7,21.61 L17.43,22.06 C20.19,21.41 22.26,18.93 22.26,15.97 C22.26,15.56 22.6,15.22 23.01,15.22 C23.42,15.22 23.76,15.56 23.76,15.97 C23.75,20.24 20.27,23.72 16,23.72 Z"/>
  <path fill="#292D32" d="M1,8.72 C0.59,8.72 0.25,8.38 0.25,7.97 C0.25,3.7 3.73,0.22 8,0.22 C8.27,0.22 8.52,0.37 8.65,0.6 C8.78,0.83 8.78,1.12 8.64,1.35 L7.59,3.1 C7.38,3.46 6.92,3.57 6.56,3.36 C6.2,3.15 6.09,2.69 6.3,2.33 L6.57,1.88 C3.81,2.53 1.74,5.01 1.74,7.97 C1.75,8.38 1.41,8.72 1,8.72 Z"/>
  <path fill="#292D32" d="M9.431,16.08 L6.621,16.08 C6.211,16.08 5.871,15.74 5.871,15.33 L5.871,13.08 C5.871,12.67 6.211,12.33 6.621,12.33 L9.431,12.33 C10.431,12.33 11.311,13.21 11.311,14.21 C11.311,15.23 10.461,16.08 9.431,16.08 Z M7.371,14.58 L9.431,14.58 C9.641,14.58 9.811,14.41 9.811,14.2 C9.811,14.05 9.641,13.82 9.431,13.82 L7.371,13.82 L7.371,14.58 Z"/>
  <path fill="#292D32" d="M9.829,18.33 L6.609,18.33 C6.199,18.33 5.859,17.99 5.859,17.58 L5.859,15.33 C5.859,14.92 6.199,14.58 6.609,14.58 L9.829,14.58 C10.949,14.58 11.869,15.42 11.869,16.46 C11.869,17.5 10.959,18.33 9.829,18.33 Z M7.369,16.83 L9.839,16.83 C10.159,16.83 10.379,16.63 10.379,16.45 C10.379,16.27 10.159,16.07 9.839,16.07 L7.369,16.07 L7.369,16.83 Z"/>
  <path fill="#292D32" d="M8.42,19.45 C8.01,19.45 7.67,19.11 7.67,18.7 L7.67,17.57 C7.67,17.16 8.01,16.82 8.42,16.82 C8.83,16.82 9.17,17.16 9.17,17.57 L9.17,18.7 C9.17,19.12 8.83,19.45 8.42,19.45 Z"/>
  <path fill="#292D32" d="M8.42,13.82 C8.01,13.82 7.67,13.48 7.67,13.07 L7.67,11.94 C7.67,11.53 8.01,11.19 8.42,11.19 C8.83,11.19 9.17,11.53 9.17,11.94 L9.17,13.07 C9.17,13.49 8.83,13.82 8.42,13.82 Z"/>
  <path fill="#292D32" d="M8.67,22.25 C4.85,22.25 1.75,19.14 1.75,15.33 C1.75,11.52 4.86,8.41 8.67,8.41 C8.85,8.41 9.01,8.42 9.19,8.43 C12.58,8.69 15.32,11.43 15.57,14.8 C15.58,15.02 15.59,15.17 15.59,15.33 C15.6,19.14 12.49,22.25 8.67,22.25 Z M8.67,9.9 C5.68,9.9 3.25,12.33 3.25,15.32 C3.25,18.31 5.68,20.74 8.67,20.74 C11.66,20.74 14.1,18.31 14.1,15.32 C14.1,15.19 14.09,15.06 14.08,14.93 C13.88,12.25 11.73,10.11 9.09,9.91 C8.96,9.91 8.82,9.9 8.67,9.9 Z"/>
  <path fill="#292D32" d="M15.33,15.6 L14.84,15.6 C14.45,15.6 14.12,15.3 14.09,14.91 C13.89,12.26 11.75,10.12 9.1,9.92 C8.71,9.89 8.41,9.56 8.41,9.17 L8.41,8.68 C8.41,4.86 11.52,1.76 15.34,1.76 C19.16,1.76 22.26,4.87 22.26,8.68 C22.26,12.49 19.14,15.6 15.33,15.6 Z M9.9,8.51 C12.72,9.02 14.98,11.27 15.49,14.1 C18.41,14.01 20.75,11.61 20.75,8.68 C20.75,5.69 18.32,3.26 15.33,3.26 C12.39,3.25 9.99,5.59 9.9,8.51 Z"/>
</svg>

