<svg xmlns="http://www.w3.org/2000/svg" width="24" height="24" viewBox="0 0 24 24">
  <defs/>
  <path fill="#292D32" d="M13,9.25 L2,9.25 C1.59,9.25 1.25,8.91 1.25,8.5 C1.25,8.09 1.59,7.75 2,7.75 L13,7.75 C13.41,7.75 13.75,8.09 13.75,8.5 C13.75,8.91 13.41,9.25 13,9.25 Z"/>
  <path fill="#292D32" d="M8,17.25 L6,17.25 C5.59,17.25 5.25,16.91 5.25,16.5 C5.25,16.09 5.59,15.75 6,15.75 L8,15.75 C8.41,15.75 8.75,16.09 8.75,16.5 C8.75,16.91 8.41,17.25 8,17.25 Z"/>
  <path fill="#292D32" d="M14.5,17.25 L10.5,17.25 C10.09,17.25 9.75,16.91 9.75,16.5 C9.75,16.09 10.09,15.75 10.5,15.75 L14.5,15.75 C14.91,15.75 15.25,16.09 15.25,16.5 C15.25,16.91 14.91,17.25 14.5,17.25 Z"/>
  <path fill="#292D32" d="M17.56,21.25 L6.44,21.25 C2.46,21.25 1.25,20.05 1.25,16.11 L1.25,7.89 C1.25,3.95 2.46,2.75 6.44,2.75 L13.28,2.75 C13.69,2.75 14.03,3.09 14.03,3.5 C14.03,3.91 13.69,4.25 13.28,4.25 L6.44,4.25 C3.3,4.25 2.75,4.79 2.75,7.89 L2.75,16.11 C2.75,19.21 3.3,19.75 6.44,19.75 L17.56,19.75 C20.7,19.75 21.25,19.21 21.25,16.11 L21.25,11.33 C21.25,10.92 21.59,10.58 22,10.58 C22.41,10.58 22.75,10.92 22.75,11.33 L22.75,16.11 C22.75,20.05 21.54,21.25 17.56,21.25 Z"/>
  <path fill="#292D32" d="M20.12,6.5 L17,6.5 C16.59,6.5 16.25,6.16 16.25,5.75 L16.25,3.25 C16.25,2.84 16.59,2.5 17,2.5 L20.13,2.5 C21.2,2.5 22.13,3.43 22.13,4.5 C22.12,5.6 21.23,6.5 20.12,6.5 Z M17.75,5 L20.13,5 C20.41,5 20.63,4.78 20.63,4.5 C20.63,4.28 20.39,4 20.13,4 L17.75,4 L17.75,5 Z"/>
  <path fill="#292D32" d="M20.57,9 L17,9 C16.59,9 16.25,8.66 16.25,8.25 L16.25,5.75 C16.25,5.34 16.59,5 17,5 L20.57,5 C21.77,5 22.75,5.9 22.75,7 C22.75,8.1 21.77,9 20.57,9 Z M17.75,7.5 L20.57,7.5 C20.94,7.5 21.25,7.27 21.25,7 C21.25,6.73 20.94,6.5 20.57,6.5 L17.75,6.5 L17.75,7.5 Z"/>
  <path fill="#292D32" d="M18.76,10.25 C18.35,10.25 18.01,9.91 18.01,9.5 L18.01,8.25 C18.01,7.84 18.35,7.5 18.76,7.5 C19.17,7.5 19.51,7.84 19.51,8.25 L19.51,9.5 C19.51,9.92 19.18,10.25 18.76,10.25 Z"/>
  <path fill="#292D32" d="M18.76,4 C18.35,4 18.01,3.66 18.01,3.25 L18.01,2 C18.01,1.59 18.35,1.25 18.76,1.25 C19.17,1.25 19.51,1.59 19.51,2 L19.51,3.25 C19.51,3.66 19.18,4 18.76,4 Z"/>
  <path fill="#292D32" d="M18.19,4 L16,4 C15.59,4 15.25,3.66 15.25,3.25 C15.25,2.84 15.59,2.5 16,2.5 L18.19,2.5 C18.6,2.5 18.94,2.84 18.94,3.25 C18.94,3.66 18.6,4 18.19,4 Z"/>
  <path fill="#292D32" d="M18.19,9 L16,9 C15.59,9 15.25,8.66 15.25,8.25 C15.25,7.84 15.59,7.5 16,7.5 L18.19,7.5 C18.6,7.5 18.94,7.84 18.94,8.25 C18.94,8.66 18.6,9 18.19,9 Z"/>
</svg>

