<svg xmlns="http://www.w3.org/2000/svg" width="24" height="24" viewBox="0 0 24 24">
  <defs/>
  <path fill="#292D32" d="M17.38,10.75 C17.38,10.53 17.14,10.25 16.88,10.25 L14.94,10.25 L14.5,10.25 L14.5,11.25 L16.88,11.25 C17.15,11.25 17.38,11.03 17.38,10.75 Z"/>
  <path fill="#292D32" d="M17.32,12.75 L16.87,12.75 L14.5,12.75 L14.5,13.75 L14.94,13.75 L17.32,13.75 C17.69,13.75 18,13.52 18,13.25 C18,12.98 17.69,12.75 17.32,12.75 Z"/>
  <path fill="#292D32" d="M17.85,3.398 L6.15,3.398 C3.86,3.398 2,5.248 2,7.538 L2,16.458 C2,18.748 3.86,20.598 6.15,20.598 L17.85,20.598 C20.14,20.598 22,18.748 22,16.458 L22,7.538 C22,5.248 20.14,3.398 17.85,3.398 Z M9.25,12.748 L5.25,12.748 C4.84,12.748 4.5,12.408 4.5,11.998 C4.5,11.588 4.84,11.248 5.25,11.248 L9.25,11.248 C9.66,11.248 10,11.588 10,11.998 C10,12.408 9.66,12.748 9.25,12.748 Z M17.32,15.248 L16.26,15.248 L16.26,15.748 C16.26,16.158 15.92,16.498 15.51,16.498 C15.1,16.498 14.76,16.158 14.76,15.748 L14.76,15.248 L13.75,15.248 L12.75,15.248 C12.34,15.248 12,14.908 12,14.498 C12,14.088 12.34,13.748 12.75,13.748 L13,13.748 L13,11.998 L13,10.248 L12.75,10.248 C12.34,10.248 12,9.908 12,9.498 C12,9.088 12.34,8.748 12.75,8.748 L13.75,8.748 L14.76,8.748 L14.76,8.248 C14.76,7.838 15.1,7.498 15.51,7.498 C15.92,7.498 16.26,7.838 16.26,8.248 L16.26,8.748 L16.87,8.748 C17.94,8.748 18.87,9.678 18.87,10.748 C18.87,11.078 18.78,11.388 18.64,11.668 C19.16,12.038 19.5,12.608 19.5,13.248 C19.5,14.348 18.52,15.248 17.32,15.248 Z"/>
</svg>

