<svg xmlns="http://www.w3.org/2000/svg" width="24" height="24" viewBox="0 0 24 24">
  <defs/>
  <path fill="#292D32" d="M23.529,12.048 C23.239,11.758 22.759,11.758 22.469,12.048 L22.009,12.508 L22.009,11.998 C22.009,6.478 17.519,1.988 11.999,1.988 C8.949,1.988 6.099,3.358 4.189,5.738 C3.929,6.058 3.979,6.538 4.309,6.798 C4.629,7.048 5.099,6.998 5.359,6.678 C6.989,4.648 9.409,3.488 11.999,3.488 C16.689,3.488 20.509,7.308 20.509,11.998 L20.509,12.498 L20.049,12.038 C19.759,11.748 19.279,11.748 18.989,12.038 C18.699,12.328 18.699,12.808 18.989,13.098 L20.729,14.838 C20.799,14.908 20.879,14.958 20.969,14.998 C21.059,15.038 21.159,15.058 21.259,15.058 C21.359,15.058 21.449,15.038 21.549,14.998 C21.639,14.958 21.719,14.908 21.789,14.838 L23.529,13.098 C23.819,12.818 23.819,12.338 23.529,12.048 Z"/>
  <path fill="#292D32" d="M19.689,17.2 C19.369,16.94 18.89,16.99 18.64,17.32 C17.009,19.35 14.589,20.51 11.999,20.51 C7.309,20.51 3.489,16.69 3.489,12 L3.489,11.5 L3.949,11.96 C4.099,12.11 4.289,12.18 4.479,12.18 C4.669,12.18 4.859,12.1 4.999,11.95 C5.289,11.66 5.289,11.18 4.999,10.89 L3.269,9.15 C3.199,9.09 3.109,9.03 3.019,8.99 C2.839,8.91 2.629,8.91 2.449,8.99 C2.359,9.03 2.279,9.09 2.209,9.15 L0.469,10.89 C0.179,11.18 0.179,11.66 0.469,11.95 C0.759,12.24 1.239,12.24 1.529,11.95 L1.989,11.49 L1.989,12 C1.989,17.52 6.479,22.01 11.999,22.01 C15.05,22.01 17.899,20.64 19.809,18.26 C20.07,17.94 20.02,17.46 19.689,17.2 Z"/>
  <path fill="#292D32" d="M15.45,11.64 C15.72,11.24 15.87,10.77 15.87,10.25 C15.87,8.92 14.7,7.75 13.37,7.75 L12.55,7.75 L12.55,6.75 C12.55,6.34 12.21,6 11.8,6 C11.39,6 11.05,6.34 11.05,6.75 L11.05,7.75 L9,7.75 C8.59,7.75 8.25,8.09 8.25,8.5 L8.25,12 L8.25,15.5 C8.25,15.91 8.59,16.25 9,16.25 L11.05,16.25 L11.05,17.25 C11.05,17.66 11.39,18 11.8,18 C12.21,18 12.55,17.66 12.55,17.25 L12.55,16.25 L14,16.25 C15.52,16.25 16.75,15.13 16.75,13.75 C16.75,12.86 16.23,12.08 15.45,11.64 Z M9.75,9.25 L13.37,9.25 C13.92,9.25 14.37,9.8 14.37,10.25 C14.37,10.8 13.92,11.25 13.37,11.25 L9.75,11.25 L9.75,9.25 Z M14,14.75 L9.75,14.75 L9.75,12.75 L13.37,12.75 L14,12.75 C14.69,12.75 15.25,13.2 15.25,13.75 C15.25,14.3 14.69,14.75 14,14.75 Z"/>
</svg>

