<svg xmlns="http://www.w3.org/2000/svg" width="24" height="24" viewBox="0 0 24 24">
  <defs/>
  <path fill="#292D32" opacity="0.4" d="M22,7.54 L22,16.46 C22,18.75 20.14,20.6 17.85,20.6 L6.15,20.6 C3.86,20.6 2,18.75 2,16.46 L2,7.54 C2,5.25 3.86,3.4 6.15,3.4 L17.85,3.4 C20.14,3.4 22,5.25 22,7.54 Z"/>
  <path fill="#292D32" d="M9.25,12.75 L5.25,12.75 C4.84,12.75 4.5,12.41 4.5,12 C4.5,11.59 4.84,11.25 5.25,11.25 L9.25,11.25 C9.66,11.25 10,11.59 10,12 C10,12.41 9.66,12.75 9.25,12.75 Z"/>
  <path fill="#292D32" d="M18.64,11.67 C18.78,11.39 18.87,11.08 18.87,10.75 C18.87,9.68 17.94,8.75 16.87,8.75 L16.26,8.75 L16.26,8.25 C16.26,7.84 15.92,7.5 15.51,7.5 C15.1,7.5 14.76,7.84 14.76,8.25 L14.76,8.75 L13.75,8.75 L12.75,8.75 C12.34,8.75 12,9.09 12,9.5 C12,9.91 12.34,10.25 12.75,10.25 L13,10.25 L13,12 L13,13.75 L12.75,13.75 C12.34,13.75 12,14.09 12,14.5 C12,14.91 12.34,15.25 12.75,15.25 L13.75,15.25 L14.76,15.25 L14.76,15.75 C14.76,16.16 15.1,16.5 15.51,16.5 C15.92,16.5 16.26,16.16 16.26,15.75 L16.26,15.25 L17.32,15.25 C18.52,15.25 19.5,14.35 19.5,13.25 C19.5,12.6 19.16,12.04 18.64,11.67 Z M14.94,10.25 L16.88,10.25 C17.14,10.25 17.38,10.53 17.38,10.75 C17.38,11.03 17.16,11.25 16.88,11.25 L14.5,11.25 L14.5,10.25 L14.94,10.25 Z M17.32,13.75 L14.94,13.75 L14.5,13.75 L14.5,12.75 L16.88,12.75 L17.33,12.75 C17.7,12.75 18.01,12.98 18.01,13.25 C18.01,13.52 17.69,13.75 17.32,13.75 Z"/>
</svg>

