<svg xmlns="http://www.w3.org/2000/svg" width="24" height="24" viewBox="0 0 24 24">
  <defs/>
  <path d="M12,22.75 C6.07,22.75 1.25,17.93 1.25,12 C1.25,6.07 6.07,1.25 12,1.25 C17.93,1.25 22.75,6.07 22.75,12 C22.75,17.93 17.93,22.75 12,22.75 Z M12,2.75 C6.9,2.75 2.75,6.9 2.75,12 C2.75,17.1 6.9,21.25 12,21.25 C17.1,21.25 21.25,17.1 21.25,12 C21.25,6.9 17.1,2.75 12,2.75 Z"/>
  <path d="M14.2,12.75 L8.78,12.75 C8.37,12.75 8.03,12.41 8.03,12 L8.03,7.67 C8.03,7.26 8.37,6.92 8.78,6.92 L14.2,6.92 C15.75,6.92 17.12,8.28 17.12,9.84 C17.12,11.44 15.81,12.75 14.2,12.75 Z M9.53,11.25 L14.2,11.25 C14.98,11.25 15.62,10.61 15.62,9.83 C15.62,9.17 15,8.41 14.2,8.41 L9.53,8.41 L9.53,11.25 Z"/>
  <path d="M14.97,17.08 L8.78,17.08 C8.37,17.08 8.03,16.74 8.03,16.33 L8.03,12 C8.03,11.59 8.37,11.25 8.78,11.25 L14.97,11.25 C16.75,11.25 18.2,12.56 18.2,14.17 C18.2,15.78 16.75,17.08 14.97,17.08 Z M9.53,15.58 L14.97,15.58 C15.92,15.58 16.7,14.94 16.7,14.16 C16.7,13.38 15.93,12.74 14.97,12.74 L9.53,12.74 L9.53,15.58 Z"/>
  <path d="M12.57,19.25 C12.16,19.25 11.82,18.91 11.82,18.5 L11.82,16.33 C11.82,15.92 12.16,15.58 12.57,15.58 C12.98,15.58 13.32,15.92 13.32,16.33 L13.32,18.5 C13.32,18.91 12.99,19.25 12.57,19.25 Z"/>
  <path d="M9.87,19.25 C9.46,19.25 9.12,18.91 9.12,18.5 L9.12,16.33 C9.12,15.92 9.46,15.58 9.87,15.58 C10.28,15.58 10.62,15.92 10.62,16.33 L10.62,18.5 C10.62,18.91 10.28,19.25 9.87,19.25 Z"/>
  <path d="M12.57,8.42 C12.16,8.42 11.82,8.08 11.82,7.67 L11.82,5.5 C11.82,5.09 12.16,4.75 12.57,4.75 C12.98,4.75 13.32,5.09 13.32,5.5 L13.32,7.67 C13.32,8.08 12.99,8.42 12.57,8.42 Z"/>
  <path d="M9.87,8.42 C9.46,8.42 9.12,8.08 9.12,7.67 L9.12,5.5 C9.12,5.09 9.46,4.75 9.87,4.75 C10.28,4.75 10.62,5.09 10.62,5.5 L10.62,7.67 C10.62,8.08 10.28,8.42 9.87,8.42 Z"/>
  <path d="M10.84,8.42 L7.05,8.42 C6.64,8.42 6.3,8.08 6.3,7.67 C6.3,7.26 6.64,6.92 7.05,6.92 L10.84,6.92 C11.25,6.92 11.59,7.26 11.59,7.67 C11.59,8.08 11.26,8.42 10.84,8.42 Z"/>
  <path d="M10.84,17.08 L7.05,17.08 C6.64,17.08 6.3,16.74 6.3,16.33 C6.3,15.92 6.64,15.58 7.05,15.58 L10.84,15.58 C11.25,15.58 11.59,15.92 11.59,16.33 C11.59,16.74 11.26,17.08 10.84,17.08 Z"/>
</svg>

