<svg xmlns="http://www.w3.org/2000/svg" width="24" height="24" viewBox="0 0 24 24">
  <defs/>
  <path d="M8.779,6.92 L14.199,6.92 Q17.119,6.92 17.119,9.84 Q17.119,11.051 16.265,11.905 Q15.41,12.76 14.199,12.76 L8.779,12.76 Q8.469,12.76 8.249,12.54 Q8.029,12.321 8.029,12.01 L8.029,7.67 Q8.029,7.359 8.249,7.14 Q8.469,6.92 8.779,6.92 Z M9.529,8.42 L9.529,11.26 L14.199,11.26 Q14.789,11.26 15.204,10.845 Q15.619,10.429 15.619,9.84 Q15.619,9.307 15.195,8.867 Q14.763,8.42 14.199,8.42 L9.529,8.42 Z"/>
  <path d="M8.779,11.25 L14.969,11.25 Q16.279,11.25 17.217,12.07 Q18.199,12.93 18.199,14.17 Q18.199,15.41 17.217,16.27 Q16.279,17.09 14.969,17.09 L8.779,17.09 Q8.469,17.09 8.249,16.87 Q8.029,16.651 8.029,16.34 L8.029,12 Q8.029,11.689 8.249,11.47 Q8.469,11.25 8.779,11.25 Z M9.529,12.75 L9.529,15.59 L14.969,15.59 Q16.699,15.59 16.699,14.17 Q16.699,12.75 14.969,12.75 L9.529,12.75 Z"/>
  <path d="M13.32,16.33 L13.32,18.5 Q13.32,18.811 13.101,19.03 Q12.881,19.25 12.57,19.25 Q12.26,19.25 12.04,19.03 Q11.82,18.811 11.82,18.5 L11.82,16.33 Q11.82,16.019 12.04,15.8 Q12.26,15.58 12.57,15.58 Q12.881,15.58 13.101,15.8 Q13.32,16.019 13.32,16.33 Z"/>
  <path d="M10.619,16.33 L10.619,18.5 Q10.619,18.811 10.399,19.03 Q10.18,19.25 9.869,19.25 Q9.558,19.25 9.339,19.03 Q9.119,18.811 9.119,18.5 L9.119,16.33 Q9.119,16.019 9.339,15.8 Q9.558,15.58 9.869,15.58 Q10.18,15.58 10.399,15.8 Q10.619,16.019 10.619,16.33 Z"/>
  <path d="M13.32,5.5 L13.32,7.67 Q13.32,7.981 13.101,8.2 Q12.881,8.42 12.57,8.42 Q12.26,8.42 12.04,8.2 Q11.82,7.981 11.82,7.67 L11.82,5.5 Q11.82,5.189 12.04,4.97 Q12.26,4.75 12.57,4.75 Q12.881,4.75 13.101,4.97 Q13.32,5.189 13.32,5.5 Z"/>
  <path d="M10.619,5.5 L10.619,7.67 Q10.619,7.981 10.399,8.2 Q10.18,8.42 9.869,8.42 Q9.558,8.42 9.339,8.2 Q9.119,7.981 9.119,7.67 L9.119,5.5 Q9.119,5.189 9.339,4.97 Q9.558,4.75 9.869,4.75 Q10.18,4.75 10.399,4.97 Q10.619,5.189 10.619,5.5 Z"/>
  <path d="M10.841,8.42 L7.051,8.42 Q6.74,8.42 6.52,8.2 Q6.301,7.981 6.301,7.67 Q6.301,7.359 6.52,7.14 Q6.74,6.92 7.051,6.92 L10.841,6.92 Q11.151,6.92 11.371,7.14 Q11.591,7.359 11.591,7.67 Q11.591,7.981 11.371,8.2 Q11.151,8.42 10.841,8.42 Z"/>
  <path d="M10.841,17.08 L7.051,17.08 Q6.74,17.08 6.52,16.86 Q6.301,16.641 6.301,16.33 Q6.301,16.019 6.52,15.8 Q6.74,15.58 7.051,15.58 L10.841,15.58 Q11.151,15.58 11.371,15.8 Q11.591,16.019 11.591,16.33 Q11.591,16.641 11.371,16.86 Q11.151,17.08 10.841,17.08 Z"/>
  <path fill="#17191C" d="M4.6,6.449 Q2.75,8.922 2.75,12 Q2.75,15.829 5.46,18.54 Q8.171,21.25 12,21.25 Q15.829,21.25 18.54,18.54 Q21.25,15.829 21.25,12 Q21.25,8.171 18.54,5.46 Q15.829,2.75 12,2.75 Q10.031,2.75 8.276,3.535 Q7.993,3.661 7.702,3.551 Q7.412,3.44 7.285,3.156 Q7.159,2.873 7.269,2.582 Q7.38,2.292 7.664,2.165 Q9.711,1.25 12,1.25 Q16.451,1.25 19.6,4.4 Q22.75,7.549 22.75,12 Q22.75,16.451 19.6,19.6 Q16.451,22.75 12,22.75 Q7.549,22.75 4.4,19.6 Q1.25,16.451 1.25,12 Q1.25,8.422 3.4,5.551 Q3.586,5.302 3.893,5.258 Q4.201,5.213 4.449,5.4 Q4.698,5.586 4.742,5.893 Q4.787,6.201 4.6,6.449 Z"/>
</svg>

