<svg xmlns="http://www.w3.org/2000/svg" width="24" height="24" viewBox="0 0 24 24">
  <defs/>
  <path fill="white" d="M24,0 L0,0 L0,24 L24,24 L24,0 Z"/>
  <path fill="#292D32" opacity="0.4" d="M12,22 C17.523,22 22,17.523 22,12 C22,6.477 17.523,2 12,2 C6.477,2 2,6.477 2,12 C2,17.523 6.477,22 12,22 Z"/>
  <path fill="#292D32" d="M16.491,11.61 C16.871,11.12 17.111,10.5 17.111,9.83 C17.111,8.28 15.751,6.91 14.191,6.91 L13.311,6.91 L13.311,5.5 C13.311,5.09 12.971,4.75 12.561,4.75 C12.151,4.75 11.811,5.09 11.811,5.5 L11.811,6.92 L10.831,6.92 L10.601,6.92 L10.601,5.5 C10.601,5.09 10.261,4.75 9.851,4.75 C9.441,4.75 9.121,5.09 9.121,5.5 L9.121,6.92 L8.781,6.92 L7.051,6.92 C6.641,6.92 6.301,7.26 6.301,7.67 C6.301,8.08 6.641,8.42 7.051,8.42 L8.031,8.42 L8.031,12 L8.031,15.58 L7.051,15.58 C6.641,15.58 6.301,15.92 6.301,16.33 C6.301,16.74 6.641,17.08 7.051,17.08 L8.781,17.08 L9.111,17.08 L9.111,18.5 C9.111,18.91 9.451,19.25 9.861,19.25 C10.271,19.25 10.611,18.91 10.611,18.5 L10.611,17.08 L10.841,17.08 L11.821,17.08 L11.821,18.5 C11.821,18.91 12.161,19.25 12.571,19.25 C12.981,19.25 13.321,18.91 13.321,18.5 L13.321,17.08 L14.971,17.08 C16.751,17.08 18.201,15.77 18.201,14.16 C18.201,13.06 17.501,12.1 16.491,11.61 Z M10.841,8.42 L14.201,8.42 C15.001,8.42 15.621,9.18 15.621,9.84 C15.621,10.62 14.981,11.26 14.201,11.26 L9.531,11.26 L9.531,8.42 L10.841,8.42 Z M14.971,15.58 L10.841,15.58 L9.531,15.58 L9.531,12.75 L14.201,12.75 L14.971,12.75 C15.921,12.75 16.701,13.39 16.701,14.17 C16.701,14.95 15.921,15.58 14.971,15.58 Z"/>
</svg>

