<svg xmlns="http://www.w3.org/2000/svg" width="24" height="24" viewBox="0 0 24 24">
  <defs/>
  <path fill="#292D32" d="M23,15.219 C22.59,15.219 22.25,15.559 22.25,15.969 C22.25,18.929 20.19,21.409 17.42,22.059 L17.69,21.609 C17.9,21.249 17.79,20.789 17.43,20.579 C17.08,20.369 16.61,20.479 16.4,20.839 L15.35,22.589 C15.21,22.819 15.21,23.109 15.34,23.339 C15.47,23.579 15.72,23.719 15.99,23.719 C20.26,23.719 23.74,20.239 23.74,15.969 C23.75,15.559 23.41,15.219 23,15.219 Z"/>
  <path fill="#292D32" d="M8,0.219 C3.73,0.219 0.25,3.699 0.25,7.969 C0.25,8.379 0.59,8.719 1,8.719 C1.41,8.719 1.75,8.379 1.75,7.969 C1.75,5.009 3.81,2.529 6.58,1.879 L6.31,2.329 C6.1,2.689 6.21,3.149 6.57,3.359 C6.92,3.569 7.39,3.459 7.6,3.099 L8.65,1.349 C8.78,1.119 8.79,0.839 8.65,0.599 C8.52,0.369 8.27,0.219 8,0.219 Z"/>
  <path fill="#292D32" d="M21.5,8.67 C21.5,11.75 19.26,14.29 16.33,14.76 C16.33,14.75 16.33,14.75 16.33,14.74 C16.04,11.01 13.02,7.97 9.24,7.67 C9.71,4.74 12.25,2.5 15.33,2.5 C18.74,2.5 21.5,5.26 21.5,8.67 Z"/>
  <path fill="#292D32" d="M9.809,14.2 C9.809,14.05 9.639,13.82 9.429,13.82 L7.369,13.82 L7.369,14.57 L9.429,14.57 C9.639,14.58 9.809,14.41 9.809,14.2 Z"/>
  <path fill="#292D32" d="M9.829,16.078 L9.429,16.078 L7.369,16.078 L7.369,16.828 L9.839,16.828 C10.159,16.828 10.379,16.628 10.379,16.448 C10.379,16.268 10.149,16.078 9.829,16.078 Z"/>
  <path fill="#292D32" d="M14.83,14.848 C14.6,11.818 12.18,9.398 9.15,9.168 C8.99,9.158 8.84,9.148 8.67,9.148 C5.26,9.148 2.5,11.908 2.5,15.328 C2.5,18.738 5.26,21.498 8.67,21.498 C12.08,21.498 14.85,18.738 14.85,15.328 C14.85,15.158 14.84,15.008 14.83,14.848 Z M9.83,18.328 L9.17,18.328 L9.17,18.708 C9.17,19.118 8.83,19.458 8.42,19.458 C8.01,19.458 7.67,19.118 7.67,18.708 L7.67,18.328 L6.62,18.328 C6.21,18.328 5.87,17.988 5.87,17.578 L5.87,15.328 L5.87,13.078 C5.87,12.668 6.21,12.328 6.62,12.328 L7.67,12.328 L7.67,11.948 C7.67,11.538 8.01,11.198 8.42,11.198 C8.83,11.198 9.17,11.538 9.17,11.948 L9.17,12.328 L9.43,12.328 C10.43,12.328 11.31,13.208 11.31,14.208 C11.31,14.498 11.24,14.768 11.12,15.018 C11.58,15.358 11.87,15.878 11.87,16.458 C11.87,17.488 10.96,18.328 9.83,18.328 Z"/>
</svg>

