<svg xmlns="http://www.w3.org/2000/svg" width="24" height="24" viewBox="0 0 24 24">
  <defs/>
  <path fill="#292D32" d="M4.47,12.17 C4.28,12.17 4.09,12.1 3.94,11.95 L2.73,10.74 L1.52,11.95 C1.23,12.24 0.75,12.24 0.46,11.95 C0.17,11.66 0.17,11.18 0.46,10.89 L2.2,9.15 C2.49,8.86 2.97,8.86 3.26,9.15 L5,10.89 C5.29,11.18 5.29,11.66 5,11.95 C4.86,12.1 4.66,12.17 4.47,12.17 Z"/>
  <path fill="#292D32" d="M21.261,15.07 C21.071,15.07 20.881,15 20.731,14.85 L18.991,13.11 C18.701,12.82 18.701,12.34 18.991,12.05 C19.281,11.76 19.761,11.76 20.051,12.05 L21.261,13.26 L22.471,12.05 C22.761,11.76 23.241,11.76 23.531,12.05 C23.821,12.34 23.821,12.82 23.531,13.11 L21.791,14.85 C21.651,14.99 21.451,15.07 21.261,15.07 Z"/>
  <path fill="#292D32" d="M21.26,15.07 C20.85,15.07 20.51,14.73 20.51,14.32 L20.51,12 C20.51,7.31 16.69,3.49 12,3.49 C9.41,3.49 6.99,4.65 5.36,6.68 C5.1,7 4.63,7.05 4.31,6.8 C3.99,6.54 3.93,6.07 4.19,5.75 C6.1,3.36 8.95,2 12,2 C17.52,2 22.01,6.49 22.01,12.01 L22.01,14.33 C22.01,14.73 21.68,15.07 21.26,15.07 Z"/>
  <path fill="#292D32" d="M12,22.01 C6.48,22.01 1.99,17.52 1.99,12 L1.99,9.68 C1.99,9.27 2.33,8.93 2.74,8.93 C3.15,8.93 3.49,9.27 3.49,9.68 L3.49,12 C3.49,16.69 7.31,20.51 12,20.51 C14.59,20.51 17.01,19.35 18.64,17.32 C18.9,17 19.37,16.94 19.69,17.2 C20.01,17.46 20.07,17.93 19.81,18.25 C17.9,20.64 15.05,22.01 12,22.01 Z"/>
  <path fill="#292D32" d="M13.38,12.75 L9,12.75 C8.59,12.75 8.25,12.41 8.25,12 L8.25,8.5 C8.25,8.09 8.59,7.75 9,7.75 L13.38,7.75 C14.71,7.75 15.88,8.92 15.88,10.25 C15.88,11.63 14.75,12.75 13.38,12.75 Z M9.75,11.25 L13.37,11.25 C13.92,11.25 14.37,10.8 14.37,10.25 C14.37,9.8 13.92,9.25 13.37,9.25 L9.75,9.25 L9.75,11.25 Z"/>
  <path fill="#292D32" d="M14,16.25 L9,16.25 C8.59,16.25 8.25,15.91 8.25,15.5 L8.25,12 C8.25,11.59 8.59,11.25 9,11.25 L14,11.25 C15.52,11.25 16.75,12.37 16.75,13.75 C16.75,15.13 15.52,16.25 14,16.25 Z M9.75,14.75 L14,14.75 C14.69,14.75 15.25,14.3 15.25,13.75 C15.25,13.2 14.69,12.75 14,12.75 L9.75,12.75 L9.75,14.75 Z"/>
  <path fill="#292D32" d="M11.801,18 C11.391,18 11.051,17.66 11.051,17.25 L11.051,15.5 C11.051,15.09 11.391,14.75 11.801,14.75 C12.211,14.75 12.551,15.09 12.551,15.5 L12.551,17.25 C12.551,17.66 12.211,18 11.801,18 Z"/>
  <path fill="#292D32" d="M11.801,9.25 C11.391,9.25 11.051,8.91 11.051,8.5 L11.051,6.75 C11.051,6.34 11.391,6 11.801,6 C12.211,6 12.551,6.34 12.551,6.75 L12.551,8.5 C12.551,8.91 12.211,9.25 11.801,9.25 Z"/>
</svg>

