<svg xmlns="http://www.w3.org/2000/svg" width="24" height="24" viewBox="0 0 24 24">
  <defs/>
  <path fill="#292D32" opacity="0.4" d="M23.529,12.05 C23.239,11.76 22.759,11.76 22.469,12.05 L22.009,12.51 L22.009,12 C22.009,6.48 17.519,1.99 11.999,1.99 C8.949,1.99 6.099,3.36 4.189,5.74 C3.929,6.06 3.979,6.54 4.309,6.79 C4.629,7.05 5.109,7 5.359,6.67 C6.989,4.64 9.409,3.48 11.999,3.48 C16.689,3.48 20.509,7.3 20.509,11.99 L20.509,12.49 L20.049,12.03 C19.759,11.74 19.279,11.74 18.989,12.03 C18.699,12.32 18.699,12.8 18.989,13.09 L20.729,14.83 C20.799,14.9 20.879,14.95 20.969,14.99 C21.059,15.03 21.159,15.05 21.259,15.05 C21.359,15.05 21.449,15.03 21.549,14.99 C21.639,14.95 21.719,14.9 21.789,14.83 L23.529,13.09 C23.819,12.82 23.819,12.34 23.529,12.05 Z"/>
  <path fill="#292D32" opacity="0.4" d="M19.689,17.2 C19.369,16.94 18.889,16.99 18.639,17.32 C17.009,19.35 14.589,20.51 11.999,20.51 C7.309,20.51 3.489,16.69 3.489,12 L3.489,11.5 L3.949,11.96 C4.099,12.11 4.289,12.18 4.479,12.18 C4.669,12.18 4.859,12.11 5.009,11.96 C5.299,11.67 5.299,11.19 5.009,10.9 L3.269,9.16 C3.199,9.09 3.119,9.04 3.029,9 C2.849,8.92 2.639,8.92 2.459,9 C2.369,9.04 2.289,9.09 2.219,9.16 L0.479,10.9 C0.189,11.19 0.189,11.67 0.479,11.96 C0.769,12.25 1.249,12.25 1.539,11.96 L1.999,11.5 L1.999,12 C1.999,17.52 6.489,22.01 12.009,22.01 C15.059,22.01 17.909,20.64 19.819,18.26 C20.069,17.94 20.019,17.46 19.689,17.2 Z"/>
  <path fill="#292D32" d="M15.45,11.64 C15.72,11.24 15.87,10.77 15.87,10.25 C15.87,8.92 14.7,7.75 13.37,7.75 L12.55,7.75 L12.55,6.75 C12.55,6.34 12.21,6 11.8,6 C11.39,6 11.05,6.34 11.05,6.75 L11.05,7.75 L9,7.75 C8.59,7.75 8.25,8.09 8.25,8.5 L8.25,12 L8.25,15.5 C8.25,15.91 8.59,16.25 9,16.25 L11.05,16.25 L11.05,17.25 C11.05,17.66 11.39,18 11.8,18 C12.21,18 12.55,17.66 12.55,17.25 L12.55,16.25 L14,16.25 C15.52,16.25 16.75,15.13 16.75,13.75 C16.75,12.86 16.23,12.08 15.45,11.64 Z M9.75,9.25 L13.37,9.25 C13.92,9.25 14.37,9.8 14.37,10.25 C14.37,10.8 13.92,11.25 13.37,11.25 L9.75,11.25 L9.75,9.25 Z M14,14.75 L9.75,14.75 L9.75,12.75 L13.37,12.75 L14,12.75 C14.69,12.75 15.25,13.2 15.25,13.75 C15.25,14.3 14.69,14.75 14,14.75 Z"/>
</svg>

