<svg xmlns="http://www.w3.org/2000/svg" width="24" height="24" viewBox="0 0 24 24">
  <defs/>
  <path d="M14.969,12.75 L14.199,12.75 L9.529,12.75 L9.529,15.58 L10.839,15.58 L14.969,15.58 C15.919,15.58 16.699,14.94 16.699,14.16 C16.699,13.38 15.919,12.75 14.969,12.75 Z"/>
  <path d="M12,2 C6.48,2 2,6.48 2,12 C2,17.52 6.48,22 12,22 C17.52,22 22,17.52 22,12 C22,6.48 17.52,2 12,2 Z M14.97,17.08 L13.32,17.08 L13.32,18.5 C13.32,18.91 12.98,19.25 12.57,19.25 C12.16,19.25 11.82,18.91 11.82,18.5 L11.82,17.08 L10.84,17.08 L10.61,17.08 L10.61,18.5 C10.61,18.91 10.27,19.25 9.86,19.25 C9.45,19.25 9.11,18.91 9.11,18.5 L9.11,17.08 L8.78,17.08 L7.05,17.08 C6.64,17.08 6.3,16.74 6.3,16.33 C6.3,15.92 6.64,15.58 7.05,15.58 L8.03,15.58 L8.03,12 L8.03,8.42 L7.05,8.42 C6.64,8.42 6.3,8.08 6.3,7.67 C6.3,7.26 6.64,6.92 7.05,6.92 L8.78,6.92 L9.11,6.92 L9.11,5.5 C9.11,5.09 9.45,4.75 9.86,4.75 C10.27,4.75 10.61,5.09 10.61,5.5 L10.61,6.92 L10.84,6.92 L11.82,6.92 L11.82,5.5 C11.82,5.09 12.16,4.75 12.57,4.75 C12.98,4.75 13.32,5.09 13.32,5.5 L13.32,6.92 L14.2,6.92 C15.75,6.92 17.12,8.28 17.12,9.84 C17.12,10.51 16.88,11.12 16.5,11.62 C17.51,12.11 18.2,13.07 18.2,14.18 C18.2,15.77 16.75,17.08 14.97,17.08 Z"/>
  <path d="M15.619,9.83 C15.619,9.17 14.999,8.41 14.199,8.41 L10.839,8.41 L9.529,8.41 L9.529,11.24 L14.199,11.24 C14.979,11.25 15.619,10.61 15.619,9.83 Z"/>
</svg>

