<svg xmlns="http://www.w3.org/2000/svg" width="24" height="24" viewBox="0 0 24 24">
  <defs/>
  <path fill="#292D32" opacity="0.4" d="M23.75,15.97 Q23.75,19.183 21.482,21.451 Q19.213,23.72 16,23.72 Q15.689,23.72 15.47,23.5 Q15.25,23.28 15.25,22.97 Q15.25,22.762 15.357,22.584 L16.407,20.834 Q16.567,20.567 16.868,20.492 Q17.169,20.417 17.436,20.577 Q17.702,20.736 17.778,21.038 Q17.853,21.339 17.693,21.606 L17.414,22.072 Q19.112,21.699 20.421,20.391 Q22.25,18.562 22.25,15.97 Q22.25,15.659 22.47,15.439 Q22.689,15.22 23,15.22 Q23.311,15.22 23.53,15.439 Q23.75,15.659 23.75,15.97 Z"/>
  <path fill="#292D32" opacity="0.4" d="M0.25,7.97 Q0.25,4.757 2.518,2.488 Q4.787,0.22 8,0.22 Q8.311,0.22 8.53,0.439 Q8.75,0.659 8.75,0.97 Q8.75,1.177 8.643,1.356 L7.593,3.106 Q7.433,3.372 7.132,3.447 Q6.831,3.523 6.564,3.363 Q6.298,3.203 6.222,2.902 Q6.147,2.6 6.307,2.334 L6.586,1.868 Q4.888,2.24 3.579,3.549 Q1.75,5.378 1.75,7.97 Q1.75,8.28 1.53,8.5 Q1.311,8.72 1,8.72 Q0.689,8.72 0.47,8.5 Q0.25,8.28 0.25,7.97 Z"/>
  <path fill="#292D32" d="M6.619,12.32 L9.429,12.32 Q11.309,12.32 11.309,14.2 Q11.309,14.976 10.762,15.526 Q10.212,16.08 9.429,16.08 L6.619,16.08 Q6.308,16.08 6.089,15.861 Q5.869,15.641 5.869,15.33 L5.869,13.07 Q5.869,12.76 6.089,12.54 Q6.308,12.32 6.619,12.32 Z M7.369,13.82 L7.369,14.58 L9.429,14.58 Q9.809,14.58 9.809,14.2 Q9.809,13.82 9.429,13.82 L7.369,13.82 Z"/>
  <path fill="#292D32" d="M6.619,14.58 L9.839,14.58 Q11.879,14.58 11.879,16.46 Q11.879,17.265 11.245,17.821 Q10.654,18.34 9.839,18.34 L6.619,18.34 Q6.308,18.34 6.089,18.12 Q5.869,17.901 5.869,17.59 L5.869,15.33 Q5.869,15.019 6.089,14.8 Q6.308,14.58 6.619,14.58 Z M7.369,16.08 L7.369,16.84 L9.839,16.84 Q10.379,16.84 10.379,16.46 Q10.379,16.08 9.839,16.08 L7.369,16.08 Z"/>
  <path fill="#292D32" d="M9.17,17.58 L9.17,18.7 Q9.17,19.011 8.95,19.23 Q8.731,19.45 8.42,19.45 Q8.109,19.45 7.89,19.23 Q7.67,19.011 7.67,18.7 L7.67,17.58 Q7.67,17.269 7.89,17.05 Q8.109,16.83 8.42,16.83 Q8.731,16.83 8.95,17.05 Q9.17,17.269 9.17,17.58 Z"/>
  <path fill="#292D32" d="M9.17,11.95 L9.17,13.07 Q9.17,13.381 8.95,13.601 Q8.731,13.82 8.42,13.82 Q8.109,13.82 7.89,13.601 Q7.67,13.381 7.67,13.07 L7.67,11.95 Q7.67,11.64 7.89,11.42 Q8.109,11.2 8.42,11.2 Q8.731,11.2 8.95,11.42 Q9.17,11.64 9.17,11.95 Z"/>
  <path fill="#292D32" d="M15.6,15.33 Q15.6,18.198 13.574,20.224 Q11.548,22.25 8.68,22.25 Q5.812,22.25 3.786,20.224 Q1.76,18.198 1.76,15.33 Q1.76,12.462 3.786,10.436 Q5.812,8.41 8.68,8.41 Q8.846,8.41 9.153,8.428 Q9.187,8.43 9.204,8.431 Q11.766,8.626 13.58,10.44 Q15.394,12.254 15.588,14.803 Q15.59,14.832 15.59,14.86 Q15.59,14.921 15.594,15.056 Q15.6,15.23 15.6,15.33 Z M14.1,15.33 Q14.1,15.255 14.095,15.105 Q14.091,14.972 14.09,14.891 Q13.727,10.279 9.116,9.929 Q9.099,9.928 9.064,9.926 Q8.801,9.91 8.68,9.91 Q6.433,9.91 4.846,11.497 Q3.26,13.083 3.26,15.33 Q3.26,17.577 4.846,19.164 Q6.433,20.75 8.68,20.75 Q10.927,20.75 12.513,19.164 Q14.1,17.577 14.1,15.33 Z"/>
  <path fill="#292D32" d="M22.25,8.67 Q22.25,11.538 20.224,13.564 Q18.198,15.59 15.33,15.59 L14.84,15.59 Q14.546,15.59 14.33,15.39 Q14.115,15.19 14.092,14.897 Q13.74,10.26 9.103,9.908 Q8.81,9.886 8.61,9.67 Q8.41,9.454 8.41,9.16 L8.41,8.67 Q8.41,5.802 10.436,3.776 Q12.462,1.75 15.33,1.75 Q18.198,1.75 20.224,3.776 Q22.25,5.802 22.25,8.67 Z M20.75,8.67 Q20.75,6.423 19.164,4.837 Q17.577,3.25 15.33,3.25 Q13.083,3.25 11.497,4.837 Q9.971,6.362 9.913,8.497 Q12.019,8.858 13.581,10.42 Q15.142,11.981 15.503,14.088 Q17.638,14.029 19.164,12.503 Q20.75,10.917 20.75,8.67 Z"/>
</svg>

