<svg xmlns="http://www.w3.org/2000/svg" width="24" height="24" viewBox="0 0 24 24">
  <defs/>
  <path fill="#292D32" opacity="0.4" d="M22.721,12 Q22.721,14.793 20.742,16.772 Q18.764,18.75 15.971,18.75 Q13.382,18.75 11.467,17.016 Q11.237,16.807 11.222,16.497 Q11.206,16.187 11.415,15.957 Q11.442,15.926 11.473,15.899 Q13.221,14.35 13.221,12 Q13.221,9.65 11.473,8.101 Q11.241,7.895 11.222,7.585 Q11.203,7.275 11.409,7.043 Q11.437,7.012 11.467,6.984 Q13.382,5.25 15.971,5.25 Q18.764,5.25 20.742,7.228 Q22.721,9.207 22.721,12 Z M21.221,12 Q21.221,9.828 19.682,8.289 Q18.143,6.75 15.971,6.75 Q14.368,6.75 13.098,7.606 Q14.721,9.432 14.721,12 Q14.721,14.568 13.098,16.394 Q14.368,17.25 15.971,17.25 Q18.143,17.25 19.682,15.711 Q21.221,14.172 21.221,12 Z"/>
  <path fill="#292D32" d="M14.721,12 Q14.721,15.025 12.468,17.021 Q10.559,18.75 7.971,18.75 Q5.178,18.75 3.199,16.772 Q1.221,14.793 1.221,12 Q1.221,9.207 3.199,7.228 Q5.178,5.25 7.971,5.25 Q10.559,5.25 12.474,6.984 Q14.721,8.975 14.721,12 Z M13.221,12 Q13.221,9.65 11.467,8.096 Q9.981,6.75 7.971,6.75 Q5.799,6.75 4.26,8.289 Q2.721,9.828 2.721,12 Q2.721,14.172 4.26,15.711 Q5.799,17.25 7.971,17.25 Q9.981,17.25 11.473,15.899 Q13.221,14.35 13.221,12 Z"/>
</svg>

