<svg xmlns="http://www.w3.org/2000/svg" width="24" height="24" viewBox="0 0 24 24">
  <defs/>
  <path fill="#292D32" d="M15.901,8.07 C15.451,4.64 12.521,2 8.971,2 C5.101,2 1.971,5.13 1.971,9 C1.971,12.55 4.611,15.48 8.041,15.93 C8.341,15.98 8.651,16 8.971,16 C9.087,16 9.202,15.997 9.316,15.991 C9.536,15.979 9.627,15.716 9.471,15.56 C9.181,15.26 9.181,14.79 9.471,14.5 C9.761,14.2 10.241,14.2 10.531,14.5 L11.31,15.28 C11.45,15.42 11.661,15.465 11.842,15.385 C12.224,15.214 12.586,15.01 12.927,14.774 C13.171,14.605 13.187,14.258 12.976,14.049 L12.471,13.55 C12.181,13.26 12.171,12.79 12.471,12.49 C12.761,12.2 13.231,12.19 13.531,12.48 L14.039,12.983 C14.249,13.19 14.594,13.173 14.762,12.93 C14.992,12.597 15.193,12.243 15.358,11.869 C15.438,11.689 15.391,11.481 15.252,11.341 L14.471,10.56 C14.181,10.26 14.181,9.79 14.471,9.5 C14.761,9.2 15.241,9.2 15.531,9.5 C15.687,9.656 15.95,9.566 15.962,9.345 C15.968,9.231 15.971,9.116 15.971,9 C15.971,8.68 15.951,8.37 15.901,8.07 Z"/>
  <path fill="#292D32" d="M21.97,14.999 C21.97,18.869 18.84,21.999 14.97,21.999 C12.04,21.999 9.525,20.199 8.491,17.632 C8.366,17.321 8.635,16.999 8.97,16.999 C9.32,16.999 9.65,16.979 9.99,16.929 L10.495,16.862 C10.649,16.841 10.804,16.894 10.915,17.004 L11.44,17.529 C11.59,17.679 11.78,17.749 11.97,17.749 C12.17,17.749 12.36,17.679 12.5,17.529 C12.8,17.239 12.8,16.759 12.5,16.469 C12.403,16.373 12.434,16.209 12.556,16.149 C12.955,15.95 13.363,15.696 13.731,15.423 C13.939,15.268 14.231,15.278 14.415,15.46 L14.9,15.939 C15.05,16.079 15.24,16.159 15.43,16.159 C15.62,16.159 15.82,16.079 15.96,15.929 C16.25,15.639 16.25,15.159 15.95,14.869 L15.472,14.397 C15.289,14.216 15.274,13.928 15.425,13.72 C15.688,13.359 15.936,12.966 16.133,12.581 C16.192,12.465 16.348,12.437 16.44,12.529 C16.59,12.679 16.78,12.749 16.97,12.749 C17.17,12.749 17.36,12.679 17.5,12.529 C17.8,12.239 17.8,11.759 17.5,11.469 L16.974,10.944 C16.864,10.834 16.812,10.678 16.832,10.524 L16.9,10.019 C16.95,9.679 16.97,9.349 16.97,8.999 C16.97,8.664 17.292,8.396 17.602,8.521 C20.162,9.556 21.97,12.07 21.97,14.999 Z"/>
</svg>

