<svg xmlns="http://www.w3.org/2000/svg" width="24" height="24" viewBox="0 0 24 24">
  <defs/>
  <path fill="#292D32" d="M8.971,1.25 Q11.902,1.25 14.095,3.187 Q16.264,5.103 16.643,7.96 Q16.721,8.436 16.721,9 Q16.721,12.213 14.452,14.482 Q12.184,16.75 8.971,16.75 Q8.406,16.75 7.93,16.672 Q5.073,16.293 3.157,14.124 Q1.221,11.932 1.221,9 Q1.221,5.789 3.49,3.52 Q3.71,3.3 4.021,3.3 Q4.331,3.3 4.551,3.52 Q4.771,3.739 4.771,4.05 Q4.771,4.361 4.551,4.58 Q2.721,6.411 2.721,9 Q2.721,11.364 4.282,13.131 Q5.83,14.883 8.138,15.186 Q8.151,15.188 8.164,15.19 Q8.523,15.25 8.971,15.25 Q11.563,15.25 13.392,13.421 Q15.221,11.592 15.221,9 Q15.221,8.552 15.161,8.193 Q15.159,8.18 15.157,8.168 Q14.854,5.859 13.102,4.311 Q11.335,2.75 8.971,2.75 Q8.66,2.75 8.44,2.53 Q8.221,2.311 8.221,2 Q8.221,1.689 8.44,1.47 Q8.66,1.25 8.971,1.25 Z"/>
  <path fill="#292D32" d="M22.719,15 Q22.719,18.213 20.451,20.482 Q18.182,22.75 14.969,22.75 Q12.037,22.75 9.845,20.813 Q7.671,18.893 7.295,16.028 Q7.255,15.72 7.444,15.473 Q7.633,15.227 7.941,15.186 Q8.052,15.172 8.162,15.19 Q8.521,15.25 8.969,15.25 Q11.561,15.25 13.39,13.421 Q15.219,11.592 15.219,9 Q15.219,8.552 15.159,8.193 Q15.108,7.887 15.289,7.634 Q15.469,7.381 15.776,7.33 Q15.886,7.312 15.997,7.326 Q18.862,7.702 20.782,9.876 Q22.719,12.068 22.719,15 Z M21.219,15 Q21.219,12.636 19.658,10.869 Q18.429,9.477 16.719,9 L16.719,9 Q16.719,12.213 14.451,14.482 Q12.182,16.75 8.969,16.75 L8.969,16.75 Q9.446,18.46 10.838,19.689 Q12.605,21.25 14.969,21.25 Q17.561,21.25 19.39,19.421 Q21.219,17.592 21.219,15 Z"/>
  <path fill="#292D32" d="M14.645,13.586 L15.955,14.876 Q16.177,15.094 16.179,15.404 Q16.181,15.715 15.963,15.936 Q15.746,16.158 15.435,16.16 Q15.124,16.162 14.903,15.944 L13.593,14.654 Q13.372,14.437 13.369,14.126 Q13.367,13.815 13.585,13.594 Q13.803,13.373 14.113,13.37 Q14.424,13.368 14.645,13.586 Z"/>
  <path fill="#292D32" d="M16.44,12.53 L15.44,11.53 Q15.221,11.311 15.221,11 Q15.221,10.689 15.44,10.47 Q15.66,10.25 15.971,10.25 Q16.281,10.25 16.501,10.47 L17.501,11.47 Q17.721,11.689 17.721,12 Q17.721,12.311 17.501,12.53 Q17.281,12.75 16.971,12.75 Q16.66,12.75 16.44,12.53 Z"/>
  <path fill="#292D32" d="M11.44,17.53 L10.44,16.53 Q10.221,16.311 10.221,16 Q10.221,15.689 10.44,15.47 Q10.66,15.25 10.971,15.25 Q11.281,15.25 11.501,15.47 L12.501,16.47 Q12.721,16.689 12.721,17 Q12.721,17.311 12.501,17.53 Q12.281,17.75 11.971,17.75 Q11.66,17.75 11.44,17.53 Z"/>
</svg>

