<svg xmlns="http://www.w3.org/2000/svg" width="24" height="24" viewBox="0 0 24 24">
  <defs/>
  <path fill="#292D32" d="M21.971,12 C21.971,15.31 19.281,18 15.971,18 C15.226,18 14.51,17.864 13.852,17.614 C13.533,17.493 13.474,17.085 13.695,16.826 C14.838,15.494 15.471,13.786 15.471,12 C15.471,10.208 14.832,8.494 13.699,7.175 C13.476,6.915 13.535,6.506 13.854,6.385 C14.512,6.135 15.227,6 15.971,6 C19.281,6 21.971,8.69 21.971,12 Z"/>
  <path fill="#292D32" d="M13.971,12 C13.971,13.77 13.201,15.37 11.971,16.46 C10.911,17.42 9.511,18 7.971,18 C4.661,18 1.971,15.31 1.971,12 C1.971,8.69 4.661,6 7.971,6 C9.511,6 10.911,6.58 11.971,7.54 C13.201,8.63 13.971,10.23 13.971,12 Z"/>
</svg>

