<svg xmlns="http://www.w3.org/2000/svg" width="24" height="24" viewBox="0 0 24 24">
  <defs/>
  <path fill="#292D32" d="M8.971,16.75 C8.581,16.75 8.241,16.72 7.921,16.67 C4.121,16.17 1.221,12.87 1.221,9 C1.221,4.73 4.701,1.25 8.971,1.25 C12.841,1.25 16.141,4.14 16.641,7.97 C16.691,8.27 16.721,8.61 16.721,9 C16.721,13.27 13.251,16.75 8.971,16.75 Z M8.971,2.75 C5.521,2.75 2.721,5.55 2.721,9 C2.721,12.12 5.051,14.78 8.141,15.19 C8.401,15.23 8.671,15.25 8.971,15.25 C12.421,15.25 15.221,12.45 15.221,9 C15.221,8.7 15.201,8.43 15.161,8.19 C14.751,5.08 12.101,2.75 8.971,2.75 Z"/>
  <path fill="#292D32" d="M14.969,22.75 C11.099,22.75 7.799,19.86 7.299,16.03 C7.269,15.79 7.349,15.56 7.519,15.39 C7.689,15.22 7.939,15.15 8.169,15.19 C8.409,15.23 8.669,15.25 8.969,15.25 C12.419,15.25 15.219,12.45 15.219,9 C15.219,8.7 15.199,8.43 15.159,8.19 C15.119,7.96 15.199,7.72 15.359,7.55 C15.519,7.38 15.749,7.29 15.999,7.33 C19.829,7.83 22.719,11.13 22.719,15 C22.719,19.27 19.249,22.75 14.969,22.75 Z M8.979,16.75 C9.739,19.37 12.169,21.25 14.969,21.25 C18.419,21.25 21.219,18.45 21.219,15 C21.219,12.2 19.339,9.76 16.719,9.01 C16.719,13.27 13.249,16.75 8.979,16.75 Z"/>
  <path fill="#292D32" d="M15.43,16.16 C15.239,16.16 15.05,16.09 14.899,15.95 L13.6,14.67 C13.309,14.38 13.3,13.9 13.589,13.61 C13.88,13.32 14.35,13.31 14.649,13.6 L15.95,14.88 C16.239,15.17 16.25,15.65 15.96,15.94 C15.819,16.08 15.62,16.16 15.43,16.16 Z"/>
  <path fill="#292D32" d="M16.97,12.75 C16.78,12.75 16.59,12.68 16.44,12.53 L15.44,11.53 C15.15,11.24 15.15,10.76 15.44,10.47 C15.73,10.18 16.21,10.18 16.5,10.47 L17.5,11.47 C17.79,11.76 17.79,12.24 17.5,12.53 C17.36,12.68 17.17,12.75 16.97,12.75 Z"/>
  <path fill="#292D32" d="M11.97,17.75 C11.78,17.75 11.59,17.68 11.44,17.53 L10.44,16.53 C10.15,16.24 10.15,15.76 10.44,15.47 C10.73,15.18 11.21,15.18 11.5,15.47 L12.5,16.47 C12.79,16.76 12.79,17.24 12.5,17.53 C12.36,17.68 12.17,17.75 11.97,17.75 Z"/>
</svg>

