<svg xmlns="http://www.w3.org/2000/svg" width="24" height="24" viewBox="0 0 24 24">
  <defs/>
  <path fill="#292D32" d="M21.971,12 C21.971,15.31 19.281,18 15.971,18 C14.431,18 13.031,17.42 11.971,16.46 C13.201,15.37 13.971,13.77 13.971,12 C13.971,10.23 13.201,8.63 11.971,7.54 C13.031,6.58 14.431,6 15.971,6 C19.281,6 21.971,8.69 21.971,12 Z"/>
  <path fill="#292D32" opacity="0.4" d="M13.971,12 C13.971,13.77 13.201,15.37 11.971,16.46 C10.911,17.42 9.511,18 7.971,18 C4.661,18 1.971,15.31 1.971,12 C1.971,8.69 4.661,6 7.971,6 C9.511,6 10.911,6.58 11.971,7.54 C13.201,8.63 13.971,10.23 13.971,12 Z"/>
</svg>

