<svg xmlns="http://www.w3.org/2000/svg" width="24" height="24" viewBox="0 0 24 24">
  <defs/>
  <path fill="#292D32" d="M12.5,17.53 C12.36,17.68 12.17,17.75 11.97,17.75 C11.78,17.75 11.59,17.68 11.44,17.53 L9.85,15.94 C10.44,15.87 11.01,15.73 11.54,15.51 L12.5,16.47 C12.8,16.76 12.8,17.24 12.5,17.53 Z"/>
  <path fill="#292D32" d="M15.959,15.93 C15.819,16.08 15.619,16.16 15.429,16.16 C15.239,16.16 15.049,16.08 14.899,15.94 L13.369,14.44 C13.759,14.13 14.119,13.77 14.429,13.37 L15.949,14.87 C16.249,15.16 16.249,15.64 15.959,15.93 Z"/>
  <path fill="#292D32" d="M17.5,12.53 C17.36,12.68 17.171,12.75 16.971,12.75 C16.78,12.75 16.59,12.68 16.441,12.53 L15.48,11.57 C15.7,11.04 15.841,10.47 15.911,9.88 L17.5,11.47 C17.8,11.76 17.8,12.24 17.5,12.53 Z"/>
  <path fill="#292D32" d="M15.901,8.07 C15.451,4.64 12.521,2 8.971,2 C5.101,2 1.971,5.13 1.971,9 C1.971,12.55 4.611,15.48 8.041,15.93 C8.341,15.98 8.651,16 8.971,16 C9.271,16 9.561,15.98 9.851,15.94 L9.471,15.56 C9.181,15.26 9.181,14.79 9.471,14.5 C9.761,14.2 10.241,14.2 10.531,14.5 L11.541,15.51 C12.211,15.25 12.821,14.89 13.371,14.44 L12.471,13.55 C12.181,13.26 12.171,12.79 12.471,12.49 C12.761,12.2 13.231,12.19 13.531,12.48 L14.431,13.37 C14.871,12.83 15.231,12.23 15.481,11.57 L14.471,10.56 C14.181,10.26 14.181,9.79 14.471,9.5 C14.761,9.2 15.241,9.2 15.531,9.5 L15.911,9.88 C15.951,9.59 15.971,9.3 15.971,9 C15.971,8.68 15.951,8.37 15.901,8.07 Z"/>
  <path fill="#292D32" opacity="0.4" d="M21.969,15 C21.969,18.87 18.839,22 14.969,22 C11.419,22 8.489,19.36 8.039,15.93 C8.339,15.98 8.649,16 8.969,16 C9.269,16 9.559,15.98 9.849,15.94 L11.439,17.53 C11.589,17.68 11.779,17.75 11.969,17.75 C12.169,17.75 12.359,17.68 12.499,17.53 C12.799,17.24 12.799,16.76 12.499,16.47 L11.539,15.51 C12.209,15.25 12.819,14.89 13.369,14.44 L14.899,15.94 C15.049,16.08 15.239,16.16 15.429,16.16 C15.619,16.16 15.819,16.08 15.959,15.93 C16.249,15.64 16.249,15.16 15.949,14.87 L14.429,13.37 C14.869,12.83 15.229,12.23 15.479,11.57 L16.439,12.53 C16.589,12.68 16.779,12.75 16.969,12.75 C17.169,12.75 17.359,12.68 17.499,12.53 C17.799,12.24 17.799,11.76 17.499,11.47 L15.909,9.88 C15.949,9.59 15.969,9.3 15.969,9 C15.969,8.68 15.949,8.37 15.899,8.07 C19.329,8.52 21.969,11.45 21.969,15 Z"/>
</svg>

