<svg xmlns="http://www.w3.org/2000/svg" width="22" height="22" viewBox="0 0 22 22">
  <defs/>
  <path fill="#292D32" d="M15.721,8 Q15.721,11.213 13.452,13.482 Q11.184,15.75 7.971,15.75 Q7.406,15.75 6.93,15.672 Q4.073,15.293 2.157,13.124 Q0.221,10.932 0.221,8 Q0.221,4.787 2.489,2.518 Q4.758,0.25 7.971,0.25 Q10.902,0.25 13.095,2.187 Q15.264,4.103 15.643,6.96 Q15.721,7.436 15.721,8 Z M14.221,8 Q14.221,7.552 14.161,7.193 Q14.159,7.18 14.157,7.168 Q13.854,4.859 12.102,3.311 Q10.335,1.75 7.971,1.75 Q5.379,1.75 3.55,3.579 Q1.721,5.408 1.721,8 Q1.721,10.364 3.282,12.131 Q4.83,13.883 7.138,14.186 Q7.151,14.188 7.164,14.19 Q7.523,14.25 7.971,14.25 Q10.563,14.25 12.392,12.421 Q14.221,10.592 14.221,8 Z"/>
  <path fill="#292D32" opacity="0.4" d="M21.721,14 Q21.721,17.213 19.453,19.481 Q17.184,21.75 13.971,21.75 Q11.039,21.75 8.847,19.813 Q6.673,17.893 6.297,15.027 Q6.257,14.719 6.446,14.473 Q6.635,14.227 6.943,14.186 Q7.054,14.172 7.164,14.19 Q7.523,14.25 7.971,14.25 Q10.563,14.25 12.392,12.421 Q14.221,10.592 14.221,8 Q14.221,7.552 14.161,7.193 Q14.11,6.887 14.291,6.634 Q14.471,6.381 14.778,6.33 Q14.888,6.312 14.999,6.326 Q17.864,6.702 19.784,8.876 Q21.721,11.068 21.721,14 Z M20.221,14 Q20.221,11.636 18.66,9.869 Q17.43,8.477 15.721,7.999 L15.721,8 Q15.721,11.213 13.453,13.481 Q11.184,15.75 7.971,15.75 L7.971,15.75 Q8.448,17.459 9.84,18.689 Q11.607,20.25 13.971,20.25 Q16.563,20.25 18.392,18.421 Q20.221,16.592 20.221,14 Z"/>
  <path fill="#292D32" opacity="0.4" d="M13.647,12.586 L14.957,13.876 Q15.179,14.094 15.181,14.404 Q15.183,14.715 14.965,14.936 Q14.748,15.158 14.437,15.16 Q14.126,15.162 13.905,14.944 L12.595,13.654 Q12.374,13.437 12.371,13.126 Q12.369,12.815 12.587,12.594 Q12.805,12.373 13.115,12.37 Q13.426,12.368 13.647,12.586 Z"/>
  <path fill="#292D32" opacity="0.4" d="M15.44,11.53 L14.44,10.53 Q14.221,10.311 14.221,10 Q14.221,9.689 14.44,9.47 Q14.66,9.25 14.971,9.25 Q15.281,9.25 15.501,9.47 L16.501,10.47 Q16.721,10.689 16.721,11 Q16.721,11.311 16.501,11.53 Q16.281,11.75 15.971,11.75 Q15.66,11.75 15.44,11.53 Z"/>
  <path fill="#292D32" opacity="0.4" d="M10.44,16.53 L9.44,15.53 Q9.221,15.311 9.221,15 Q9.221,14.689 9.44,14.47 Q9.66,14.25 9.971,14.25 Q10.281,14.25 10.501,14.47 L11.501,15.47 Q11.721,15.689 11.721,16 Q11.721,16.311 11.501,16.53 Q11.281,16.75 10.971,16.75 Q10.66,16.75 10.44,16.53 Z"/>
</svg>

