<svg xmlns="http://www.w3.org/2000/svg" width="24" height="24" viewBox="0 0 24 24">
  <defs/>
  <path fill="#292D32" d="M22.72,12 Q22.72,14.793 20.742,16.772 Q18.763,18.75 15.97,18.75 Q13.381,18.75 11.467,17.016 Q11.236,16.807 11.221,16.497 Q11.206,16.187 11.414,15.957 Q11.442,15.926 11.473,15.899 Q13.22,14.35 13.22,12 Q13.22,9.65 11.473,8.101 Q11.24,7.895 11.221,7.585 Q11.203,7.275 11.409,7.043 Q11.436,7.012 11.467,6.984 Q13.381,5.25 15.97,5.25 Q18.763,5.25 20.742,7.228 Q22.72,9.207 22.72,12 Z M21.22,12 Q21.22,9.828 19.681,8.289 Q18.142,6.75 15.97,6.75 Q14.367,6.75 13.097,7.606 Q14.72,9.432 14.72,12 Q14.72,14.568 13.097,16.394 Q14.367,17.25 15.97,17.25 Q18.142,17.25 19.681,15.711 Q21.22,14.172 21.22,12 Z"/>
  <path fill="#292D32" d="M14.72,12 Q14.72,15.025 12.467,17.021 Q10.559,18.75 7.97,18.75 Q5.177,18.75 3.198,16.772 Q1.22,14.793 1.22,12 Q1.22,9.207 3.198,7.228 Q5.177,5.25 7.97,5.25 Q10.559,5.25 12.473,6.984 Q14.72,8.975 14.72,12 Z M13.22,12 Q13.22,9.65 11.467,8.096 Q9.98,6.75 7.97,6.75 Q5.798,6.75 4.259,8.289 Q2.72,9.828 2.72,12 Q2.72,14.172 4.259,15.711 Q5.798,17.25 7.97,17.25 Q9.98,17.25 11.473,15.899 Q13.22,14.35 13.22,12 Z"/>
</svg>

