<svg xmlns="http://www.w3.org/2000/svg" width="24" height="24" viewBox="0 0 24 24">
  <defs/>
  <path fill="#292D32" d="M15.971,18.75 C14.301,18.75 12.701,18.13 11.471,17.02 C11.311,16.88 11.221,16.67 11.221,16.46 C11.221,16.25 11.311,16.04 11.471,15.9 C12.581,14.92 13.221,13.5 13.221,12 C13.221,10.5 12.581,9.08 11.471,8.1 C11.311,7.96 11.221,7.76 11.221,7.54 C11.221,7.33 11.311,7.12 11.471,6.98 C12.711,5.86 14.301,5.25 15.971,5.25 C19.691,5.25 22.721,8.28 22.721,12 C22.721,15.72 19.701,18.75 15.971,18.75 Z M13.101,16.39 C13.951,16.95 14.941,17.25 15.981,17.25 C18.871,17.25 21.231,14.89 21.231,12 C21.231,9.11 18.871,6.75 15.981,6.75 C14.951,6.75 13.951,7.05 13.101,7.61 C14.141,8.82 14.731,10.37 14.731,12 C14.731,13.63 14.141,15.18 13.101,16.39 Z"/>
  <path fill="#292D32" d="M7.971,18.75 C4.251,18.75 1.221,15.72 1.221,12 C1.221,8.28 4.251,5.25 7.971,5.25 C9.641,5.25 11.241,5.87 12.471,6.98 C13.891,8.24 14.721,10.07 14.721,12 C14.721,13.93 13.901,15.75 12.471,17.02 C11.241,18.13 9.641,18.75 7.971,18.75 Z M7.971,6.75 C5.081,6.75 2.721,9.11 2.721,12 C2.721,14.89 5.081,17.25 7.971,17.25 C9.271,17.25 10.511,16.77 11.471,15.9 C12.591,14.91 13.221,13.49 13.221,12 C13.221,10.51 12.581,9.08 11.471,8.1 C10.511,7.23 9.271,6.75 7.971,6.75 Z"/>
</svg>

