<svg xmlns="http://www.w3.org/2000/svg" width="24" height="24" viewBox="0 0 24 24">
  <defs/>
  <path fill="#17191C" d="M5.25,9 Q5.25,5.25 9,5.25 L13,5.25 Q16.75,5.25 16.75,9 L16.75,10 Q16.75,10.25 17,10.25 Q17.761,10.25 18.255,10.745 Q18.75,11.239 18.75,12 L18.75,15 Q18.75,18.75 15,18.75 L9,18.75 Q5.25,18.75 5.25,15 Z M6.75,9 L6.75,15 Q6.75,17.25 9,17.25 L15,17.25 Q17.25,17.25 17.25,15 L17.25,12 Q17.25,11.75 17,11.75 Q16.239,11.75 15.745,11.255 Q15.25,10.761 15.25,10 L15.25,9 Q15.25,6.75 13,6.75 L9,6.75 Q6.75,6.75 6.75,9 Z"/>
  <path fill="#17191C" d="M10,9.25 L12,9.25 Q12.311,9.25 12.53,9.47 Q12.75,9.689 12.75,10 Q12.75,10.311 12.53,10.53 Q12.311,10.75 12,10.75 L10,10.75 Q9.689,10.75 9.47,10.53 Q9.25,10.311 9.25,10 Q9.25,9.689 9.47,9.47 Q9.689,9.25 10,9.25 Z"/>
  <path fill="#17191C" d="M10,13.25 L14,13.25 Q14.311,13.25 14.53,13.47 Q14.75,13.689 14.75,14 Q14.75,14.311 14.53,14.53 Q14.311,14.75 14,14.75 L10,14.75 Q9.689,14.75 9.47,14.53 Q9.25,14.311 9.25,14 Q9.25,13.689 9.47,13.47 Q9.689,13.25 10,13.25 Z"/>
  <path fill="#17191C" d="M15,22.75 L9,22.75 Q1.25,22.75 1.25,15 L1.25,9 Q1.25,1.25 9,1.25 L15,1.25 Q22.75,1.25 22.75,9 L22.75,15 Q22.75,22.75 15,22.75 Z M15,21.25 Q18.439,21.25 19.845,19.845 Q21.25,18.439 21.25,15 L21.25,9 Q21.25,5.561 19.845,4.155 Q18.439,2.75 15,2.75 L9,2.75 Q2.75,2.75 2.75,9 L2.75,15 Q2.75,21.25 9,21.25 Z"/>
</svg>

