<svg xmlns="http://www.w3.org/2000/svg" width="24" height="24" viewBox="0 0 24 24">
  <defs/>
  <path fill="white" opacity="0.58" d="M24,0 L0,0 L0,24 L24,24 L24,0 Z"/>
  <path fill="#292D32" d="M17,11 C16.45,11 16,10.55 16,10 L16,9 C16,7 15,6 13,6 L9,6 C7,6 6,7 6,9 L6,15 C6,17 7,18 9,18 L15,18 C17,18 18,17 18,15 L18,12 C18,11.45 17.55,11 17,11 Z M10,9.25 L12,9.25 C12.41,9.25 12.75,9.59 12.75,10 C12.75,10.41 12.41,10.75 12,10.75 L10,10.75 C9.59,10.75 9.25,10.41 9.25,10 C9.25,9.59 9.59,9.25 10,9.25 Z M14,14.75 L10,14.75 C9.59,14.75 9.25,14.41 9.25,14 C9.25,13.59 9.59,13.25 10,13.25 L14,13.25 C14.41,13.25 14.75,13.59 14.75,14 C14.75,14.41 14.41,14.75 14,14.75 Z"/>
  <path fill="#292D32" opacity="0.4" d="M16.19,2 L7.82,2 C4.18,2 2.01,4.17 2.01,7.81 L2.01,16.18 C2.01,19.82 4.18,21.99 7.82,21.99 L16.19,21.99 C19.83,21.99 22,19.82 22,16.18 L22,7.81 C22,4.17 19.83,2 16.19,2 Z"/>
</svg>

