<svg xmlns="http://www.w3.org/2000/svg" width="24" height="24" viewBox="0 0 24 24">
  <defs/>
  <path d="M14,13.25 L10,13.25 C9.59,13.25 9.25,13.59 9.25,14 C9.25,14.41 9.59,14.75 10,14.75 L14,14.75 C14.41,14.75 14.75,14.41 14.75,14 C14.75,13.59 14.41,13.25 14,13.25 Z"/>
  <path d="M10,10.75 L12,10.75 C12.41,10.75 12.75,10.41 12.75,10 C12.75,9.59 12.41,9.25 12,9.25 L10,9.25 C9.59,9.25 9.25,9.59 9.25,10 C9.25,10.41 9.59,10.75 10,10.75 Z"/>
  <path d="M16.19,2 L7.82,2 C4.18,2 2.01,4.17 2.01,7.81 L2.01,16.18 C2.01,19.82 4.18,21.99 7.82,21.99 L16.19,21.99 C19.83,21.99 22,19.82 22,16.18 L22,7.81 C22,4.17 19.83,2 16.19,2 Z M18,15 C18,17 17,18 15,18 L9,18 C7,18 6,17 6,15 L6,9 C6,7 7,6 9,6 L13,6 C15,6 16,7 16,9 L16,10 C16,10.55 16.45,11 17,11 C17.55,11 18,11.45 18,12 L18,15 Z"/>
</svg>

