<svg xmlns="http://www.w3.org/2000/svg" width="24" height="24" viewBox="0 0 24 24">
  <defs/>
  <path d="M15,18.75 L9,18.75 C6.58,18.75 5.25,17.42 5.25,15 L5.25,9 C5.25,6.58 6.58,5.25 9,5.25 L13,5.25 C15.42,5.25 16.75,6.58 16.75,9 L16.75,10 C16.75,10.14 16.86,10.25 17,10.25 C17.96,10.25 18.75,11.04 18.75,12 L18.75,15 C18.75,17.42 17.42,18.75 15,18.75 Z M9,6.75 C7.42,6.75 6.75,7.42 6.75,9 L6.75,15 C6.75,16.58 7.42,17.25 9,17.25 L15,17.25 C16.58,17.25 17.25,16.58 17.25,15 L17.25,12 C17.25,11.86 17.14,11.75 17,11.75 C16.04,11.75 15.25,10.96 15.25,10 L15.25,9 C15.25,7.42 14.58,6.75 13,6.75 L9,6.75 Z"/>
  <path d="M12,10.75 L10,10.75 C9.59,10.75 9.25,10.41 9.25,10 C9.25,9.59 9.59,9.25 10,9.25 L12,9.25 C12.41,9.25 12.75,9.59 12.75,10 C12.75,10.41 12.41,10.75 12,10.75 Z"/>
  <path d="M14,14.75 L10,14.75 C9.59,14.75 9.25,14.41 9.25,14 C9.25,13.59 9.59,13.25 10,13.25 L14,13.25 C14.41,13.25 14.75,13.59 14.75,14 C14.75,14.41 14.41,14.75 14,14.75 Z"/>
  <path d="M15,22.75 L9,22.75 C3.57,22.75 1.25,20.43 1.25,15 L1.25,9 C1.25,3.57 3.57,1.25 9,1.25 L15,1.25 C20.43,1.25 22.75,3.57 22.75,9 L22.75,15 C22.75,20.43 20.43,22.75 15,22.75 Z M9,2.75 C4.39,2.75 2.75,4.39 2.75,9 L2.75,15 C2.75,19.61 4.39,21.25 9,21.25 L15,21.25 C19.61,21.25 21.25,19.61 21.25,15 L21.25,9 C21.25,4.39 19.61,2.75 15,2.75 L9,2.75 Z"/>
</svg>

