<svg xmlns="http://www.w3.org/2000/svg" width="24" height="24" viewBox="0 0 24 24">
  <defs/>
  <path fill="#292D32" d="M14.467,3.964 L13.337,3.014 Q12.955,2.698 12.851,2.746 Q12.749,2.793 12.749,3.29 L12.749,11.116 L18.218,16.128 Q18.85,16.711 18.833,17.538 Q18.816,18.371 18.15,18.926 L14.298,22.137 Q13.183,23.063 12.218,22.614 Q11.249,22.162 11.249,20.71 L11.249,11.776 L4.853,5.913 Q4.624,5.703 4.61,5.393 Q4.597,5.082 4.806,4.853 Q5.016,4.624 5.327,4.611 Q5.637,4.597 5.866,4.807 L11.249,9.741 L11.249,3.29 Q11.249,1.838 12.218,1.386 Q13.183,0.937 14.302,1.866 L15.432,2.816 Q15.67,3.016 15.697,3.325 Q15.723,3.635 15.523,3.873 Q15.324,4.11 15.014,4.137 Q14.705,4.164 14.467,3.964 Z M12.749,13.151 L12.749,20.71 Q12.749,21.207 12.851,21.254 Q12.955,21.302 13.34,20.983 L17.189,17.774 Q17.33,17.656 17.333,17.507 Q17.336,17.356 17.201,17.232 L12.749,13.151 Z"/>
  <path fill="#292D32" d="M4.853,18.087 L17.203,6.767 Q17.336,6.644 17.333,6.493 Q17.33,6.344 17.189,6.226 Q16.951,6.027 16.922,5.718 Q16.894,5.409 17.093,5.17 Q17.292,4.931 17.601,4.903 Q17.911,4.875 18.15,5.074 Q18.816,5.629 18.833,6.462 Q18.85,7.289 18.216,7.873 L5.866,19.193 Q5.637,19.403 5.327,19.389 Q5.016,19.376 4.806,19.147 Q4.597,18.918 4.61,18.607 Q4.624,18.297 4.853,18.087 Z"/>
</svg>

