<svg xmlns="http://www.w3.org/2000/svg" width="24" height="24" viewBox="0 0 24 24">
  <defs/>
  <path fill="#292D32" d="M8.083,15.007 L11.357,12.005 L8.083,9.003 Q7.854,8.793 7.841,8.483 Q7.827,8.172 8.037,7.943 Q8.247,7.714 8.557,7.701 Q8.868,7.687 9.097,7.897 L11.41,10.018 L11.41,7.34 Q11.41,6.341 12.119,6.002 Q12.836,5.659 13.611,6.304 L15.668,8.022 Q16.149,8.421 16.163,9.024 Q16.177,9.631 15.717,10.043 L13.577,12.005 L15.709,13.961 Q16.177,14.379 16.163,14.986 Q16.149,15.589 15.671,15.986 L13.609,17.707 Q12.844,18.342 12.128,18.007 Q11.41,17.671 11.41,16.67 L11.41,13.992 L9.097,16.113 Q8.868,16.323 8.557,16.309 Q8.247,16.296 8.037,16.067 Q7.827,15.838 7.841,15.528 Q7.854,15.217 8.083,15.007 Z M12.91,13.429 L12.91,16.337 L14.57,14.951 L12.91,13.429 Z M12.91,10.581 L14.57,9.059 L12.91,7.673 L12.91,10.581 Z"/>
  <path fill="#292D32" d="M4.6,6.449 Q2.75,8.922 2.75,12 Q2.75,15.829 5.46,18.54 Q8.171,21.25 12,21.25 Q15.829,21.25 18.54,18.54 Q21.25,15.829 21.25,12 Q21.25,8.171 18.54,5.46 Q15.829,2.75 12,2.75 Q10.031,2.75 8.276,3.535 Q7.993,3.661 7.702,3.551 Q7.412,3.44 7.285,3.156 Q7.159,2.873 7.269,2.582 Q7.38,2.292 7.664,2.165 Q9.711,1.25 12,1.25 Q16.451,1.25 19.6,4.4 Q22.75,7.549 22.75,12 Q22.75,16.451 19.6,19.6 Q16.451,22.75 12,22.75 Q7.549,22.75 4.4,19.6 Q1.25,16.451 1.25,12 Q1.25,8.422 3.4,5.551 Q3.586,5.302 3.893,5.258 Q4.201,5.213 4.449,5.4 Q4.698,5.586 4.742,5.893 Q4.787,6.201 4.6,6.449 Z"/>
</svg>

