<svg xmlns="http://www.w3.org/2000/svg" width="24" height="24" viewBox="0 0 24 24">
  <defs/>
  <path fill="#292D32" d="M12.93,10.641 L15.26,8.511 L12.93,6.641 L12.93,10.641 Z"/>
  <path fill="#292D32" d="M16.19,2 L7.81,2 C4.17,2 2,4.17 2,7.81 L2,16.18 C2,19.83 4.17,22 7.81,22 L16.18,22 C19.82,22 21.99,19.83 21.99,16.19 L21.99,7.81 C22,4.17 19.83,2 16.19,2 Z M16.27,14.39 C16.58,14.68 16.76,15.08 16.75,15.49 C16.74,15.9 16.55,16.29 16.22,16.57 L13.8,18.59 C13.38,18.94 13,19.04 12.71,19.04 C12.48,19.04 12.3,18.98 12.2,18.93 C11.97,18.82 11.43,18.46 11.43,17.48 L11.43,14.06 L8.51,16.74 C8.21,17.02 7.73,17 7.45,16.69 C7.17,16.38 7.19,15.91 7.5,15.63 L11.43,12.03 L11.43,11.95 L7.49,8.38 C7.19,8.1 7.17,7.62 7.45,7.32 C7.73,7.02 8.21,6.99 8.51,7.27 L11.43,9.95 L11.43,6.53 C11.43,5.55 11.97,5.19 12.2,5.08 C12.43,4.97 13.05,4.79 13.8,5.42 L16.22,7.44 C16.55,7.71 16.74,8.11 16.75,8.52 C16.76,8.93 16.59,9.33 16.27,9.62 L13.67,12 L16.27,14.39 Z"/>
  <path fill="#292D32" d="M12.93,17.361 L15.26,15.411 L12.93,13.301 L12.93,17.361 Z"/>
</svg>

