<svg xmlns="http://www.w3.org/2000/svg" width="24" height="24" viewBox="0 0 24 24">
  <defs/>
  <path fill="#292D32" opacity="0.4" d="M8.083,15.007 L11.357,12.005 L8.083,9.003 Q7.854,8.793 7.841,8.482 Q7.827,8.172 8.037,7.943 Q8.247,7.714 8.557,7.701 Q8.868,7.687 9.097,7.897 L11.41,10.018 L11.41,7.34 Q11.41,6.341 12.119,6.002 Q12.836,5.659 13.611,6.304 L15.668,8.022 Q16.149,8.42 16.163,9.024 Q16.177,9.631 15.717,10.043 L13.577,12.005 L15.709,13.96 Q16.177,14.378 16.163,14.986 Q16.149,15.589 15.671,15.986 L13.609,17.707 Q12.844,18.342 12.128,18.007 Q11.41,17.67 11.41,16.67 L11.41,13.992 L9.097,16.113 Q8.868,16.323 8.557,16.309 Q8.247,16.296 8.037,16.067 Q7.827,15.838 7.841,15.527 Q7.854,15.217 8.083,15.007 Z M12.91,13.429 L12.91,16.337 L14.57,14.951 L12.91,13.429 Z M12.91,10.581 L14.57,9.059 L12.91,7.673 L12.91,10.581 Z"/>
  <path fill="#292D32" d="M15,22.75 L9,22.75 Q3.25,22.75 3.25,17 L3.25,7 Q3.25,1.25 9,1.25 L15,1.25 Q20.75,1.25 20.75,7 L20.75,17 Q20.75,22.75 15,22.75 Z M15,21.25 Q19.25,21.25 19.25,17 L19.25,7 Q19.25,2.75 15,2.75 L9,2.75 Q4.75,2.75 4.75,7 L4.75,17 Q4.75,21.25 9,21.25 Z"/>
</svg>

