<svg xmlns="http://www.w3.org/2000/svg" width="24" height="24" viewBox="0 0 24 24">
  <defs/>
  <path fill="#292D32" opacity="0.4" d="M16.19,2 L7.82,2 C4.18,2 2.01,4.17 2.01,7.81 L2.01,16.18 C2.01,19.82 4.18,21.99 7.82,21.99 L16.19,21.99 C19.83,21.99 22,19.82 22,16.18 L22,7.81 C22,4.17 19.83,2 16.19,2 Z"/>
  <path fill="#292D32" d="M12.08,19 C11.85,19 11.67,18.94 11.57,18.89 C11.34,18.78 10.8,18.43 10.8,17.45 L10.8,14.06 L7.9,16.71 C7.6,16.99 7.12,16.97 6.84,16.66 C6.56,16.35 6.58,15.88 6.89,15.6 L10.8,12.02 L10.8,11.94 L6.89,8.4 C6.58,8.12 6.56,7.65 6.84,7.34 C7.12,7.03 7.59,7.01 7.9,7.29 L10.8,9.94 L10.8,6.55 C10.8,5.57 11.34,5.21 11.57,5.11 C11.8,5 12.42,4.82 13.17,5.45 L15.58,7.46 C15.91,7.73 16.1,8.12 16.11,8.53 C16.12,8.94 15.95,9.34 15.64,9.63 L13.05,12 L15.64,14.37 C15.95,14.66 16.13,15.06 16.12,15.47 C16.11,15.88 15.92,16.27 15.59,16.54 L13.18,18.55 C12.75,18.9 12.37,19 12.08,19 Z M12.3,13.3 L12.3,17.32 L14.61,15.39 L12.3,13.3 Z M12.3,6.68 L12.3,10.64 L14.61,8.52 L12.3,6.68 Z"/>
  <path fill="#292D32" d="M6.62,13.38 C5.86,13.38 5.24,12.76 5.24,12 C5.24,11.24 5.86,10.62 6.62,10.62 C7.38,10.62 8,11.24 8,12 C8,12.76 7.38,13.38 6.62,13.38 Z M6.62,11.88 C6.55,11.88 6.5,11.94 6.5,12 C6.5,12.14 6.75,12.14 6.75,12 C6.75,11.93 6.69,11.88 6.62,11.88 Z"/>
  <path fill="#292D32" d="M17.38,13.38 C16.62,13.38 16,12.76 16,12 C16,11.24 16.62,10.62 17.38,10.62 C18.14,10.62 18.76,11.24 18.76,12 C18.76,12.76 18.13,13.38 17.38,13.38 Z M17.38,11.88 C17.31,11.88 17.26,11.94 17.26,12 C17.26,12.14 17.51,12.14 17.51,12 C17.5,11.93 17.44,11.88 17.38,11.88 Z"/>
</svg>

