<svg xmlns="http://www.w3.org/2000/svg" width="24" height="24" viewBox="0 0 24 24">
  <defs/>
  <path fill="#292D32" d="M12.6,18.11 C12.38,18.11 12.21,18.05 12.11,18.01 C11.89,17.91 11.39,17.58 11.39,16.67 L11.39,14 L9.09,16.11 C8.79,16.39 8.31,16.37 8.03,16.06 C7.75,15.75 7.77,15.28 8.08,15 L11.36,11.99 L8.08,8.98 C7.77,8.7 7.75,8.23 8.03,7.92 C8.31,7.62 8.79,7.59 9.09,7.87 L11.39,9.98 L11.39,7.32 C11.39,6.42 11.89,6.09 12.11,5.98 C12.32,5.88 12.9,5.71 13.6,6.28 L15.66,8 C15.96,8.25 16.14,8.62 16.15,9 C16.16,9.38 16,9.76 15.71,10.02 L13.58,11.97 L15.71,13.92 C16,14.19 16.16,14.56 16.15,14.94 C16.14,15.32 15.96,15.69 15.66,15.94 L13.6,17.66 C13.22,18.02 12.87,18.11 12.6,18.11 Z M12.9,13.41 L12.9,16.33 L14.57,14.94 L12.9,13.41 Z M12.9,7.67 L12.9,10.59 L14.57,9.06 L12.9,7.67 Z"/>
  <path fill="#292D32" d="M12,22.75 C6.07,22.75 1.25,17.93 1.25,12 C1.25,6.07 6.07,1.25 12,1.25 C17.93,1.25 22.75,6.07 22.75,12 C22.75,17.93 17.93,22.75 12,22.75 Z M12,2.75 C6.9,2.75 2.75,6.9 2.75,12 C2.75,17.1 6.9,21.25 12,21.25 C17.1,21.25 21.25,17.1 21.25,12 C21.25,6.9 17.1,2.75 12,2.75 Z"/>
</svg>

