<svg xmlns="http://www.w3.org/2000/svg" width="24" height="24" viewBox="0 0 24 24">
  <defs/>
  <path fill="#292D32" d="M12.13,22.75 C11.86,22.75 11.65,22.68 11.5,22.61 C11.14,22.44 10.53,21.97 10.53,20.71 L10.53,14.26 L5.14,19.2 C4.84,19.48 4.36,19.46 4.08,19.15 C3.8,18.84 3.82,18.37 4.13,18.09 L10.53,12.22 L10.53,11.77 L4.13,5.9 C3.82,5.62 3.8,5.15 4.08,4.84 C4.36,4.54 4.84,4.51 5.14,4.79 L10.53,9.73 L10.53,3.28 C10.53,2.02 11.14,1.54 11.5,1.38 C11.86,1.21 12.61,1.05 13.58,1.86 L17.43,5.07 C17.85,5.42 18.1,5.92 18.11,6.45 C18.12,6.98 17.9,7.49 17.49,7.86 L12.99,11.99 L17.49,16.12 C17.89,16.49 18.12,17.01 18.11,17.53 C18.1,18.06 17.85,18.56 17.43,18.91 L13.58,22.12 C13.01,22.61 12.51,22.75 12.13,22.75 Z M12.03,13.15 L12.03,20.71 C12.03,21.08 12.11,21.24 12.15,21.26 C12.16,21.25 12.34,21.21 12.62,20.98 L16.47,17.77 C16.56,17.69 16.61,17.6 16.61,17.5 C16.61,17.4 16.57,17.31 16.48,17.23 L12.03,13.15 Z M12.12,2.75 C12.11,2.76 12.03,2.93 12.03,3.29 L12.03,10.85 L16.48,6.77 C16.57,6.69 16.61,6.6 16.61,6.5 C16.61,6.4 16.56,6.31 16.47,6.23 L12.61,3.02 C12.35,2.8 12.18,2.75 12.12,2.75 Z"/>
  <path fill="#292D32" d="M5,13.75 C4.04,13.75 3.25,12.96 3.25,12 C3.25,11.04 4.04,10.25 5,10.25 C5.96,10.25 6.75,11.04 6.75,12 C6.75,12.96 5.96,13.75 5,13.75 Z M5,11.75 C4.86,11.75 4.75,11.86 4.75,12 C4.75,12.28 5.25,12.28 5.25,12 C5.25,11.86 5.14,11.75 5,11.75 Z"/>
  <path fill="#292D32" d="M19,13.75 C18.04,13.75 17.25,12.96 17.25,12 C17.25,11.04 18.04,10.25 19,10.25 C19.96,10.25 20.75,11.04 20.75,12 C20.75,12.96 19.96,13.75 19,13.75 Z M19,11.75 C18.86,11.75 18.75,11.86 18.75,12 C18.75,12.28 19.25,12.28 19.25,12 C19.25,11.86 19.14,11.75 19,11.75 Z"/>
</svg>

