<svg xmlns="http://www.w3.org/2000/svg" width="24" height="24" viewBox="0 0 24 24">
  <defs/>
  <path fill="#292D32" opacity="0.4" d="M12,22 C17.523,22 22,17.523 22,12 C22,6.477 17.523,2 12,2 C6.477,2 2,6.477 2,12 C2,17.523 6.477,22 12,22 Z"/>
  <path fill="#292D32" d="M12.119,6.002 C12.699,5.724 13.267,6.018 13.61,6.304 L15.668,8.022 L15.67,8.023 C16.305,8.551 16.336,9.485 15.714,10.045 L13.577,12.005 L15.714,13.964 C16.336,14.525 16.305,15.459 15.67,15.986 L15.668,15.988 L13.611,17.706 L13.609,17.707 C13.266,17.992 12.704,18.276 12.128,18.007 C11.551,17.737 11.41,17.121 11.41,16.67 L11.41,13.992 L9.097,16.113 C8.791,16.393 8.317,16.372 8.037,16.067 C7.757,15.762 7.778,15.287 8.083,15.007 L11.357,12.005 L8.083,9.003 C7.778,8.723 7.757,8.248 8.037,7.943 C8.317,7.638 8.791,7.617 9.097,7.897 L11.41,10.018 L11.41,7.34 C11.41,6.897 11.544,6.277 12.119,6.002 Z M12.91,10.581 L14.57,9.059 L12.91,7.673 Z M12.91,13.429 L12.91,16.337 L14.57,14.951 Z"/>
</svg>

