<svg xmlns="http://www.w3.org/2000/svg" width="24" height="24" viewBox="0 0 24 24">
  <defs/>
  <path fill="#292D32" d="M5.133,18.087 L11.53,12.224 L11.53,11.776 L5.133,5.913 Q4.904,5.703 4.89,5.393 Q4.877,5.082 5.087,4.853 Q5.297,4.624 5.607,4.611 Q5.917,4.597 6.146,4.807 L11.53,9.741 L11.53,3.29 Q11.53,1.838 12.498,1.386 Q13.463,0.937 14.58,1.864 L18.43,5.074 Q19.096,5.629 19.113,6.462 Q19.13,7.289 18.496,7.873 L13.994,12 L18.498,16.128 Q19.13,16.711 19.113,17.538 Q19.096,18.371 18.43,18.926 L14.579,22.137 Q13.463,23.063 12.498,22.614 Q11.53,22.162 11.53,20.71 L11.53,14.259 L6.146,19.193 Q5.917,19.403 5.607,19.389 Q5.297,19.376 5.087,19.147 Q4.877,18.918 4.89,18.607 Q4.904,18.297 5.133,18.087 Z M13.03,10.849 L17.483,6.767 Q17.617,6.644 17.614,6.493 Q17.61,6.344 17.469,6.226 L13.619,3.016 Q13.236,2.698 13.131,2.746 Q13.03,2.793 13.03,3.29 L13.03,10.849 Z M13.03,13.151 L13.03,20.71 Q13.03,21.207 13.131,21.254 Q13.236,21.302 13.621,20.983 L17.469,17.774 Q17.61,17.656 17.614,17.507 Q17.617,17.356 17.481,17.232 L13.03,13.151 Z"/>
</svg>

