<svg xmlns="http://www.w3.org/2000/svg" width="24" height="24" viewBox="0 0 24 24">
  <defs/>
  <path fill="#292D32" d="M12.301,17.321 L14.611,15.391 L12.301,13.301 L12.301,17.321 Z"/>
  <path fill="#292D32" d="M12.301,6.68 L12.301,10.64 L14.611,8.52 L12.301,6.68 Z"/>
  <path fill="#292D32" d="M16.19,2 L7.81,2 C4.17,2 2,4.17 2,7.81 L2,16.18 C2,19.83 4.17,22 7.81,22 L16.18,22 C19.82,22 21.99,19.83 21.99,16.19 L21.99,7.81 C22,4.17 19.83,2 16.19,2 Z M5.25,12 C5.25,11.24 5.87,10.62 6.63,10.62 C7.39,10.62 8,11.24 8,12 C8,12.76 7.38,13.38 6.62,13.38 C5.86,13.38 5.25,12.76 5.25,12 Z M15.57,16.54 L13.16,18.55 C12.75,18.9 12.37,19 12.08,19 C11.85,19 11.67,18.94 11.57,18.89 C11.34,18.78 10.8,18.43 10.8,17.45 L10.8,14.06 L7.9,16.71 C7.6,16.99 7.12,16.97 6.84,16.66 C6.56,16.35 6.58,15.88 6.89,15.6 L10.8,12.02 L10.8,11.94 L6.89,8.4 C6.58,8.12 6.56,7.65 6.84,7.34 C7.12,7.04 7.6,7.01 7.9,7.29 L10.8,9.94 L10.8,6.56 C10.8,5.58 11.34,5.22 11.57,5.12 C11.8,5.01 12.42,4.83 13.17,5.46 L15.58,7.47 C15.91,7.74 16.1,8.13 16.11,8.54 C16.12,8.95 15.95,9.35 15.64,9.64 L13.04,12 L15.63,14.37 C15.94,14.66 16.12,15.06 16.11,15.47 C16.09,15.88 15.9,16.27 15.57,16.54 Z M17.38,13.38 C16.62,13.38 16,12.76 16,12 C16,11.24 16.62,10.62 17.38,10.62 C18.14,10.62 18.76,11.24 18.76,12 C18.76,12.76 18.13,13.38 17.38,13.38 Z"/>
</svg>

