<svg xmlns="http://www.w3.org/2000/svg" width="24" height="24" viewBox="0 0 24 24">
  <defs/>
  <path fill="#292D32" d="M13.13,22.75 C12.86,22.75 12.65,22.68 12.5,22.61 C12.14,22.44 11.53,21.97 11.53,20.71 L11.53,14.26 L6.14,19.2 C5.84,19.48 5.36,19.46 5.08,19.15 C4.8,18.84 4.82,18.37 5.13,18.09 L11.53,12.22 L11.53,11.77 L5.13,5.9 C4.82,5.62 4.8,5.15 5.08,4.84 C5.36,4.54 5.84,4.51 6.14,4.79 L11.53,9.73 L11.53,3.28 C11.53,2.02 12.14,1.54 12.5,1.38 C12.86,1.21 13.61,1.05 14.58,1.86 L18.43,5.07 C18.85,5.42 19.1,5.92 19.11,6.45 C19.12,6.98 18.9,7.49 18.49,7.86 L13.99,11.99 L18.49,16.12 C18.89,16.49 19.12,17.01 19.11,17.53 C19.1,18.06 18.85,18.56 18.43,18.91 L14.58,22.12 C14.01,22.61 13.51,22.75 13.13,22.75 Z M13.03,13.15 L13.03,20.71 C13.03,21.08 13.11,21.24 13.15,21.26 C13.16,21.25 13.34,21.21 13.62,20.98 L17.47,17.77 C17.56,17.69 17.61,17.6 17.61,17.5 C17.61,17.4 17.57,17.31 17.48,17.23 L13.03,13.15 Z M13.12,2.75 C13.11,2.76 13.03,2.93 13.03,3.29 L13.03,10.85 L17.48,6.77 C17.57,6.69 17.61,6.6 17.61,6.5 C17.61,6.4 17.56,6.31 17.47,6.23 L13.61,3.02 C13.35,2.8 13.18,2.75 13.12,2.75 Z"/>
</svg>

