<svg xmlns="http://www.w3.org/2000/svg" width="24" height="24" viewBox="0 0 24 24">
  <defs/>
  <path fill="#292D32" d="M12.9,16.33 L14.57,14.94 L12.9,13.41 L12.9,16.33 Z"/>
  <path fill="#292D32" d="M12.9,10.592 L14.57,9.062 L12.9,7.672 L12.9,10.592 Z"/>
  <path fill="#292D32" d="M15,2 L9,2 C6,2 4,4 4,7 L4,17 C4,20 6,22 9,22 L15,22 C18,22 20,20 20,17 L20,7 C20,4 18,2 15,2 Z M15.72,13.95 C16.01,14.22 16.17,14.59 16.16,14.97 C16.15,15.35 15.97,15.72 15.67,15.97 L13.6,17.7 C13.22,18.02 12.87,18.11 12.6,18.11 C12.38,18.11 12.21,18.05 12.11,18.01 C11.89,17.91 11.39,17.58 11.39,16.67 L11.39,14 L9.09,16.11 C8.79,16.39 8.31,16.37 8.03,16.06 C7.75,15.75 7.77,15.28 8.08,15 L11.36,12 L8.08,8.99 C7.78,8.71 7.76,8.24 8.04,7.93 C8.32,7.63 8.8,7.6 9.1,7.88 L11.4,10 L11.4,7.33 C11.4,6.43 11.9,6.1 12.12,5.99 C12.33,5.89 12.91,5.71 13.61,6.29 L15.67,8.01 C15.97,8.26 16.15,8.63 16.16,9.01 C16.17,9.39 16.01,9.77 15.72,10.03 L13.58,12 L15.72,13.95 Z"/>
</svg>

