<svg xmlns="http://www.w3.org/2000/svg" width="24" height="24" viewBox="0 0 24 24">
  <defs/>
  <path fill="#292D32" opacity="0.4" d="M16.19,2 L7.82,2 C4.18,2 2.01,4.17 2.01,7.81 L2.01,16.18 C2.01,19.82 4.18,21.99 7.82,21.99 L16.19,21.99 C19.83,21.99 22,19.82 22,16.18 L22,7.81 C22,4.17 19.83,2 16.19,2 Z"/>
  <path fill="#292D32" d="M12.711,19.03 C12.481,19.03 12.301,18.97 12.201,18.92 C11.971,18.81 11.431,18.45 11.431,17.47 L11.431,14.05 L8.511,16.73 C8.211,17.01 7.731,16.99 7.451,16.68 C7.171,16.37 7.191,15.9 7.501,15.62 L11.431,12.02 L11.431,11.94 L7.501,8.38 C7.191,8.1 7.171,7.63 7.451,7.32 C7.731,7.02 8.211,6.99 8.511,7.27 L11.431,9.95 L11.431,6.53 C11.431,5.55 11.971,5.19 12.201,5.08 C12.431,4.97 13.051,4.79 13.801,5.42 L16.221,7.44 C16.551,7.71 16.741,8.11 16.751,8.52 C16.761,8.93 16.591,9.33 16.271,9.62 L13.661,12.01 L16.271,14.4 C16.581,14.69 16.761,15.09 16.751,15.5 C16.741,15.91 16.551,16.3 16.221,16.58 L13.801,18.6 C13.381,18.94 13.001,19.03 12.711,19.03 Z M12.931,13.3 L12.931,17.36 L15.261,15.41 L12.931,13.3 Z M12.931,6.64 L12.931,10.64 L15.261,8.5 L12.931,6.64 Z"/>
</svg>

