<svg xmlns="http://www.w3.org/2000/svg" width="24" height="24" viewBox="0 0 24 24">
  <defs/>
  <path fill="#292D32" opacity="0.4" d="M15,22 L9,22 C6,22 4,20 4,17 L4,7 C4,4 6,2 9,2 L15,2 C18,2 20,4 20,7 L20,17 C20,20 18,22 15,22 Z"/>
  <path fill="#292D32" d="M12.599,18.11 C12.379,18.11 12.209,18.05 12.109,18.01 C11.889,17.91 11.389,17.58 11.389,16.67 L11.389,14 L9.089,16.11 C8.789,16.39 8.309,16.37 8.029,16.06 C7.749,15.75 7.769,15.28 8.079,15 L11.359,11.99 L8.079,8.98 C7.769,8.7 7.749,8.23 8.029,7.92 C8.309,7.62 8.789,7.59 9.089,7.87 L11.389,9.98 L11.389,7.32 C11.389,6.42 11.889,6.09 12.109,5.98 C12.319,5.88 12.899,5.7 13.599,6.28 L15.659,8 C15.959,8.25 16.139,8.62 16.149,9 C16.159,9.38 15.999,9.76 15.709,10.02 L13.579,11.97 L15.709,13.92 C15.999,14.19 16.159,14.56 16.149,14.94 C16.139,15.32 15.959,15.69 15.659,15.94 L13.599,17.66 C13.219,18.02 12.869,18.11 12.599,18.11 Z M12.899,13.41 L12.899,16.33 L14.569,14.94 L12.899,13.41 Z M12.899,7.67 L12.899,10.59 L14.569,9.06 L12.899,7.67 Z"/>
</svg>

