<svg xmlns="http://www.w3.org/2000/svg" width="24" height="24" viewBox="0 0 24 24">
  <defs/>
  <path fill="#292D32" d="M13.068,1.616 Q13.069,1.617 13.07,1.618 Q20.872,7.645 20.86,13.91 Q20.86,17.567 18.266,20.158 Q15.672,22.75 12.01,22.75 Q8.348,22.75 5.753,20.153 Q3.16,17.557 3.16,13.904 Q3.126,7.574 10.93,1.618 Q11.999,0.786 13.068,1.616 Z M12.15,2.802 Q12,2.686 11.85,2.802 Q4.63,8.313 4.66,13.896 Q4.66,16.936 6.814,19.092 Q8.97,21.25 12.01,21.25 Q15.051,21.25 17.206,19.097 Q19.36,16.945 19.36,13.91 Q19.37,8.38 12.152,2.804 Z"/>
  <path fill="#292D32" d="M12.75,2 L12.75,22 Q12.75,22.311 12.53,22.53 Q12.311,22.75 12,22.75 Q11.689,22.75 11.47,22.53 Q11.25,22.311 11.25,22 L11.25,2 Q11.25,1.689 11.47,1.47 Q11.689,1.25 12,1.25 Q12.311,1.25 12.53,1.47 Q12.75,1.689 12.75,2 Z"/>
  <path fill="#292D32" d="M11.672,18.285 L19.372,14.545 Q19.652,14.41 19.945,14.511 Q20.239,14.613 20.375,14.892 Q20.51,15.172 20.409,15.465 Q20.307,15.759 20.028,15.895 L12.328,19.635 Q12.048,19.77 11.755,19.669 Q11.461,19.567 11.325,19.288 Q11.19,19.008 11.291,18.715 Q11.393,18.421 11.672,18.285 Z"/>
  <path fill="#292D32" d="M11.672,13.285 L19.042,9.705 Q19.322,9.57 19.615,9.671 Q19.909,9.773 20.045,10.052 Q20.18,10.332 20.079,10.625 Q19.977,10.919 19.698,11.055 L12.328,14.635 Q12.048,14.77 11.755,14.669 Q11.461,14.567 11.325,14.288 Q11.19,14.008 11.291,13.715 Q11.393,13.421 11.672,13.285 Z"/>
  <path fill="#292D32" d="M11.672,8.286 L16.702,5.836 Q16.981,5.7 17.275,5.801 Q17.568,5.902 17.704,6.182 Q17.84,6.461 17.739,6.755 Q17.638,7.048 17.358,7.184 L12.328,9.634 Q12.049,9.77 11.755,9.669 Q11.462,9.568 11.326,9.288 Q11.19,9.009 11.291,8.715 Q11.392,8.422 11.672,8.286 Z"/>
</svg>

