<svg xmlns="http://www.w3.org/2000/svg" width="24" height="24" viewBox="0 0 24 24">
  <defs/>
  <path fill="#292D32" d="M4.65,13.9 Q4.65,16.936 6.805,19.092 Q8.96,21.25 12,21.25 Q15.042,21.25 17.196,19.097 Q19.35,16.945 19.35,13.91 Q19.381,8.388 12.152,2.803 Q11.906,2.614 11.867,2.305 Q11.827,1.997 12.017,1.751 Q12.207,1.506 12.515,1.466 Q12.823,1.427 13.069,1.616 Q20.885,7.654 20.85,13.91 Q20.85,17.567 18.257,20.158 Q15.663,22.75 12,22.75 Q8.339,22.75 5.744,20.153 Q3.15,17.557 3.15,13.9 Q3.15,13.589 3.37,13.37 Q3.59,13.15 3.9,13.15 Q4.211,13.15 4.431,13.37 Q4.65,13.589 4.65,13.9 Z"/>
  <path fill="#292D32" d="M12.149,2.802 Q11.999,2.686 11.85,2.802 Q7.848,5.85 5.947,9.32 Q5.798,9.593 5.499,9.68 Q5.201,9.767 4.929,9.618 Q4.656,9.469 4.569,9.17 Q4.482,8.872 4.631,8.6 Q6.685,4.849 10.929,1.618 Q11.999,0.785 13.07,1.618 Q13.315,1.809 13.353,2.117 Q13.392,2.425 13.201,2.67 Q13.01,2.916 12.702,2.954 Q12.394,2.993 12.149,2.802 Z"/>
  <path fill="#292D32" d="M12.75,2 L12.75,22 Q12.75,22.311 12.53,22.53 Q12.311,22.75 12,22.75 Q11.689,22.75 11.47,22.53 Q11.25,22.311 11.25,22 L11.25,2 Q11.25,1.689 11.47,1.47 Q11.689,1.25 12,1.25 Q12.311,1.25 12.53,1.47 Q12.75,1.689 12.75,2 Z"/>
  <path fill="#292D32" d="M11.672,18.285 L19.372,14.545 Q19.652,14.41 19.945,14.511 Q20.239,14.613 20.375,14.892 Q20.51,15.172 20.409,15.465 Q20.307,15.759 20.028,15.895 L12.328,19.635 Q12.048,19.77 11.755,19.669 Q11.461,19.567 11.325,19.288 Q11.19,19.008 11.291,18.715 Q11.393,18.421 11.672,18.285 Z"/>
  <path fill="#292D32" d="M11.672,13.285 L19.042,9.705 Q19.322,9.57 19.615,9.671 Q19.909,9.773 20.045,10.052 Q20.18,10.332 20.079,10.625 Q19.977,10.919 19.698,11.055 L12.328,14.635 Q12.048,14.77 11.755,14.669 Q11.461,14.567 11.325,14.288 Q11.19,14.008 11.291,13.715 Q11.393,13.421 11.672,13.285 Z"/>
  <path fill="#292D32" d="M11.672,8.286 L16.702,5.836 Q16.981,5.7 17.275,5.801 Q17.568,5.902 17.704,6.182 Q17.84,6.461 17.739,6.755 Q17.638,7.048 17.358,7.184 L12.328,9.634 Q12.049,9.77 11.755,9.669 Q11.462,9.568 11.326,9.288 Q11.19,9.009 11.291,8.715 Q11.392,8.422 11.672,8.286 Z"/>
</svg>

