<svg xmlns="http://www.w3.org/2000/svg" width="24" height="24" viewBox="0 0 24 24">
  <defs/>
  <path fill="#292D32" d="M12.001,22.75 C7.12,22.75 3.151,18.78 3.151,13.9 C3.121,8.17 8.58,3.4 10.931,1.61 C11.56,1.13 12.441,1.13 13.07,1.61 C15.421,3.43 20.881,8.26 20.851,13.91 C20.851,18.78 16.881,22.75 12.001,22.75 Z M12.001,2.75 C11.95,2.75 11.89,2.77 11.841,2.81 C10.15,4.1 4.63,8.71 4.66,13.9 C4.66,17.96 7.96,21.25 12.011,21.25 C16.061,21.25 19.36,17.96 19.36,13.91 C19.39,8.79 13.861,4.12 12.161,2.81 C12.101,2.77 12.05,2.75 12.001,2.75 Z"/>
  <path fill="#292D32" d="M12,22.75 C11.59,22.75 11.25,22.41 11.25,22 L11.25,2 C11.25,1.59 11.59,1.25 12,1.25 C12.41,1.25 12.75,1.59 12.75,2 L12.75,22 C12.75,22.41 12.41,22.75 12,22.75 Z"/>
  <path fill="#292D32" d="M12,19.71 C11.72,19.71 11.45,19.55 11.32,19.29 C11.14,18.92 11.29,18.47 11.67,18.29 L19.37,14.55 C19.74,14.37 20.19,14.53 20.37,14.9 C20.55,15.27 20.4,15.72 20.02,15.9 L12.32,19.64 C12.22,19.68 12.11,19.71 12,19.71 Z"/>
  <path fill="#292D32" d="M12,14.71 C11.72,14.71 11.45,14.55 11.32,14.29 C11.14,13.92 11.29,13.47 11.67,13.29 L19.04,9.71 C19.41,9.53 19.86,9.68 20.04,10.06 C20.22,10.44 20.07,10.88 19.69,11.06 L12.32,14.64 C12.22,14.68 12.11,14.71 12,14.71 Z"/>
  <path fill="#292D32" d="M12,9.71 C11.72,9.71 11.45,9.55 11.32,9.29 C11.14,8.92 11.29,8.47 11.67,8.29 L16.7,5.85 C17.07,5.67 17.52,5.83 17.7,6.2 C17.88,6.57 17.73,7.02 17.35,7.2 L12.32,9.64 C12.22,9.68 12.11,9.71 12,9.71 Z"/>
</svg>

