<svg xmlns="http://www.w3.org/2000/svg" width="24" height="24" viewBox="0 0 24 24">
  <defs/>
  <path fill="#292D32" opacity="0.4" d="M12.61,2.21 C12.25,1.93 11.75,1.93 11.39,2.21 C9.49,3.66 3.88,8.39 3.91,13.9 C3.91,18.36 7.54,22 12.01,22 C16.48,22 20.11,18.37 20.11,13.91 C20.12,8.48 14.5,3.67 12.61,2.21 Z"/>
  <path fill="#292D32" d="M20.09,14.2 C20.07,14.81 19.98,15.41 19.82,15.99 L12.75,19.43 L12.75,21.97 C12.5,21.99 12.25,22 12,22 C11.75,22 11.5,21.99 11.25,21.97 L11.25,2.31 C11.3,2.27 11.34,2.24 11.38,2.21 C11.75,1.93 12.25,1.93 12.61,2.21 C12.65,2.24 12.7,2.28 12.75,2.32 L12.75,7.76 L16.53,5.92 C16.86,6.3 17.17,6.69 17.48,7.1 C17.44,7.14 17.4,7.17 17.35,7.19 L12.75,9.43 L12.75,12.76 L19.04,9.7 C19.05,9.7 19.05,9.69 19.06,9.69 C19.28,10.14 19.47,10.6 19.62,11.08 L12.75,14.43 L12.75,17.76 L19.37,14.54 L20.09,14.2 Z"/>
</svg>

