<svg xmlns="http://www.w3.org/2000/svg" width="24" height="24" viewBox="0 0 24 24">
  <defs/>
  <path fill="#292D32" d="M13.47,7.412 L15.93,6.202 C16.23,6.052 16.31,5.662 16.08,5.422 C15.19,4.442 14.29,3.622 13.57,3.002 C13.24,2.722 12.75,2.952 12.75,3.382 L12.75,6.962 C12.75,7.332 13.14,7.572 13.47,7.412 Z"/>
  <path fill="#292D32" d="M12.75,19.738 L12.75,21.388 C12.75,21.688 13.02,21.938 13.32,21.888 C16.05,21.438 18.33,19.608 19.41,17.148 C19.6,16.728 19.14,16.308 18.72,16.508 L13.03,19.298 C12.86,19.378 12.75,19.548 12.75,19.738 Z"/>
  <path fill="#292D32" d="M11.251,3.362 C11.251,2.932 10.761,2.702 10.431,2.972 C8.07,4.952 3.88,9.122 3.9,13.902 C3.9,17.922 6.84,21.252 10.681,21.892 C10.98,21.942 11.251,21.692 11.251,21.392 L11.251,3.362 Z"/>
  <path fill="#292D32" d="M13.44,12.471 L18.73,10.251 C19,10.131 19.13,9.821 19,9.561 C18.63,8.831 18.2,8.121 17.73,7.461 C17.59,7.261 17.33,7.201 17.11,7.301 L13.02,9.291 C12.85,9.371 12.74,9.551 12.74,9.741 L12.74,12.011 C12.75,12.361 13.11,12.611 13.44,12.471 Z"/>
  <path fill="#292D32" d="M19.83,14.311 C19.99,14.231 20.09,14.081 20.09,13.911 C20.09,13.271 20.01,12.641 19.87,12.021 C19.8,11.721 19.47,11.561 19.19,11.681 L13.05,14.301 C12.87,14.381 12.75,14.561 12.75,14.761 L12.75,16.961 C12.75,17.331 13.14,17.571 13.47,17.411 L19.37,14.541 L19.83,14.311 Z"/>
</svg>

