<svg xmlns="http://www.w3.org/2000/svg" width="24" height="24" viewBox="0 0 24 24">
  <defs/>
  <path fill="#292D32" d="M9,22.75 Q1.25,22.75 1.25,15 L1.25,9 Q1.25,1.25 9,1.25 L15,1.25 Q22.75,1.25 22.75,9 L22.75,15 Q22.75,22.75 15,22.75 Z M9,21.25 L15,21.25 Q18.439,21.25 19.845,19.845 Q21.25,18.439 21.25,15 L21.25,9 Q21.25,2.75 15,2.75 L9,2.75 Q2.75,2.75 2.75,9 L2.75,15 Q2.75,18.439 4.155,19.845 Q5.561,21.25 9,21.25 Z"/>
  <path fill="#292D32" d="M17.75,2.44 L17.75,12.42 Q17.75,14.345 16.437,15.058 Q15.138,15.763 13.474,14.763 L12.155,13.973 Q12,13.881 11.846,13.973 L10.525,14.763 Q8.86,15.755 7.565,15.055 Q6.25,14.344 6.25,12.42 L6.25,2.44 Q6.25,2.129 6.47,1.91 Q6.689,1.69 7,1.69 Q7.311,1.69 7.53,1.91 Q7.75,2.129 7.75,2.44 L7.75,12.42 Q7.75,13.45 8.278,13.735 Q8.824,14.03 9.755,13.476 L11.074,12.687 Q12,12.131 12.925,12.686 L14.246,13.477 Q15.175,14.036 15.721,13.74 Q16.25,13.452 16.25,12.42 L16.25,2.44 Q16.25,2.129 16.47,1.91 Q16.689,1.69 17,1.69 Q17.311,1.69 17.53,1.91 Q17.75,2.129 17.75,2.44 Z"/>
  <path fill="#292D32" d="M9,22.75 Q1.25,22.75 1.25,15 L1.25,9 Q1.25,1.25 9,1.25 L15,1.25 Q22.75,1.25 22.75,9 L22.75,15 Q22.75,22.75 15,22.75 Z M9,21.25 L15,21.25 Q18.439,21.25 19.845,19.845 Q21.25,18.439 21.25,15 L21.25,9 Q21.25,2.75 15,2.75 L9,2.75 Q2.75,2.75 2.75,9 L2.75,15 Q2.75,18.439 4.155,19.845 Q5.561,21.25 9,21.25 Z"/>
  <path fill="#292D32" d="M17.75,2.44 L17.75,12.42 Q17.75,14.345 16.437,15.058 Q15.138,15.763 13.474,14.763 L12.155,13.973 Q12,13.881 11.846,13.973 L10.525,14.763 Q8.86,15.755 7.565,15.055 Q6.25,14.344 6.25,12.42 L6.25,2.44 Q6.25,2.129 6.47,1.91 Q6.689,1.69 7,1.69 Q7.311,1.69 7.53,1.91 Q7.75,2.129 7.75,2.44 L7.75,12.42 Q7.75,13.45 8.278,13.735 Q8.824,14.03 9.755,13.476 L11.074,12.687 Q12,12.131 12.925,12.686 L14.246,13.477 Q15.175,14.036 15.721,13.74 Q16.25,13.452 16.25,12.42 L16.25,2.44 Q16.25,2.129 16.47,1.91 Q16.689,1.69 17,1.69 Q17.311,1.69 17.53,1.91 Q17.75,2.129 17.75,2.44 Z"/>
</svg>

