<svg xmlns="http://www.w3.org/2000/svg" width="24" height="24" viewBox="0 0 24 24">
  <defs/>
  <path fill="#292D32" d="M22,7.81 L22,16.19 C22,19.4 19.4,22 16.19,22 L7.81,22 C4.6,22 2,19.4 2,16.19 L2,7.81 C2,5.32 3.02,3.51 4.83,2.63 C5.49,2.31 6.25,2.81 6.25,3.54 L6.25,12.42 C6.25,13.61 6.71,14.56 7.54,15.04 C8.38,15.51 9.44,15.41 10.52,14.76 L11.82,13.98 C11.9,13.94 12.1,13.94 12.16,13.97 L13.48,14.76 C14.2,15.19 14.82,15.33 15.32,15.33 C15.84,15.33 16.24,15.17 16.48,15.03 C17.29,14.56 17.75,13.61 17.75,12.42 L17.75,3.54 C17.75,2.81 18.52,2.31 19.17,2.63 C20.98,3.51 22,5.32 22,7.81 Z"/>
  <path fill="#292D32" d="M15.25,2 C15.8,2 16.25,2.45 16.25,3 L16.25,12.42 C16.25,13.06 16.06,13.54 15.73,13.73 C15.39,13.93 14.85,13.83 14.25,13.47 L12.93,12.68 C12.42,12.37 11.58,12.37 11.07,12.68 L9.75,13.47 C9.15,13.83 8.61,13.92 8.27,13.73 C7.94,13.54 7.75,13.06 7.75,12.42 L7.75,3 C7.75,2.45 8.2,2 8.75,2 L15.25,2 Z"/>
</svg>

