<svg xmlns="http://www.w3.org/2000/svg" width="24" height="24" viewBox="0 0 24 24">
  <defs/>
  <path fill="#292D32" opacity="0.4" d="M20.5,7 L20.5,15 L6.35,15 C4.78,15 3.5,16.28 3.5,17.85 L3.5,7 C3.5,3 4.5,2 8.5,2 L15.5,2 C19.5,2 20.5,3 20.5,7 Z"/>
  <path fill="#292D32" d="M20.5,15 L20.5,18.5 C20.5,20.43 18.93,22 17,22 L7,22 C5.07,22 3.5,20.43 3.5,18.5 L3.5,17.85 C3.5,16.28 4.78,15 6.35,15 L20.5,15 Z"/>
  <path fill="#292D32" d="M16,7.75 L8,7.75 C7.59,7.75 7.25,7.41 7.25,7 C7.25,6.59 7.59,6.25 8,6.25 L16,6.25 C16.41,6.25 16.75,6.59 16.75,7 C16.75,7.41 16.41,7.75 16,7.75 Z"/>
  <path fill="#292D32" d="M13,11.25 L8,11.25 C7.59,11.25 7.25,10.91 7.25,10.5 C7.25,10.09 7.59,9.75 8,9.75 L13,9.75 C13.41,9.75 13.75,10.09 13.75,10.5 C13.75,10.91 13.41,11.25 13,11.25 Z"/>
</svg>

