<svg xmlns="http://www.w3.org/2000/svg" width="24" height="24" viewBox="0 0 24 24">
  <defs/>
  <path fill="#292D32" opacity="0.4" d="M16.19,2 L7.82,2 C4.17,2 2,4.17 2,7.81 L2,16.18 C2,19.82 4.17,21.99 7.81,21.99 L16.18,21.99 C19.82,21.99 21.99,19.82 21.99,16.18 L21.99,7.81 C22,4.17 19.83,2 16.19,2 Z"/>
  <path fill="#292D32" d="M16.25,2 L16.25,12.42 C16.25,13.06 16.06,13.54 15.73,13.73 C15.39,13.93 14.85,13.83 14.25,13.47 L12.93,12.68 C12.42,12.37 11.58,12.37 11.07,12.68 L9.75,13.47 C9.15,13.83 8.61,13.92 8.27,13.73 C7.94,13.54 7.75,13.06 7.75,12.42 L7.75,2 C7.773,2 7.797,2 7.82,2 L16.19,2 C16.21,2 16.23,2 16.25,2 Z"/>
</svg>

