<svg xmlns="http://www.w3.org/2000/svg" width="24" height="24" viewBox="0 0 24 24">
  <defs/>
  <path fill="#292D32" d="M21.25,11 L21.25,17 Q21.25,17.307 21.238,17.473 Q21.216,17.783 20.981,17.987 Q20.747,18.19 20.437,18.168 Q20.127,18.146 19.923,17.911 Q19.72,17.676 19.742,17.367 Q19.75,17.253 19.75,17 L19.75,11 Q19.75,10.689 19.97,10.47 Q20.19,10.25 20.5,10.25 Q20.811,10.25 21.031,10.47 Q21.25,10.689 21.25,11 Z"/>
  <path fill="#292D32" d="M2.75,18 L2.75,7 Q2.75,3.689 3.97,2.47 Q5.189,1.25 8.5,1.25 L15.5,1.25 Q18.811,1.25 20.03,2.47 Q21.25,3.689 21.25,7 Q21.25,7.311 21.03,7.53 Q20.811,7.75 20.5,7.75 Q20.189,7.75 19.97,7.53 Q19.75,7.311 19.75,7 Q19.75,4.311 18.97,3.53 Q18.189,2.75 15.5,2.75 L8.5,2.75 Q5.811,2.75 5.03,3.53 Q4.25,4.311 4.25,7 L4.25,18 Q4.25,18.311 4.03,18.53 Q3.811,18.75 3.5,18.75 Q3.189,18.75 2.97,18.53 Q2.75,18.311 2.75,18 Z"/>
  <path fill="#292D32" d="M6.35,14.25 L20.5,14.25 Q20.811,14.25 21.03,14.47 Q21.25,14.689 21.25,15 L21.25,18.5 Q21.25,20.258 20.004,21.504 Q18.758,22.75 17,22.75 L7,22.75 Q5.242,22.75 3.996,21.504 Q2.75,20.258 2.75,18.5 L2.75,17.85 Q2.75,16.362 3.806,15.306 Q4.862,14.25 6.35,14.25 Z M6.35,15.75 Q5.483,15.75 4.867,16.367 Q4.25,16.983 4.25,17.85 L4.25,18.5 Q4.25,19.637 5.057,20.443 Q5.863,21.25 7,21.25 L17,21.25 Q18.137,21.25 18.943,20.443 Q19.75,19.637 19.75,18.5 L19.75,15.75 Z"/>
  <path fill="#292D32" d="M8,6.25 L16,6.25 Q16.311,6.25 16.53,6.47 Q16.75,6.689 16.75,7 Q16.75,7.311 16.53,7.53 Q16.311,7.75 16,7.75 L8,7.75 Q7.689,7.75 7.47,7.53 Q7.25,7.311 7.25,7 Q7.25,6.689 7.47,6.47 Q7.689,6.25 8,6.25 Z"/>
  <path fill="#292D32" d="M8,9.75 L13,9.75 Q13.311,9.75 13.53,9.97 Q13.75,10.189 13.75,10.5 Q13.75,10.811 13.53,11.03 Q13.311,11.25 13,11.25 L8,11.25 Q7.689,11.25 7.47,11.03 Q7.25,10.811 7.25,10.5 Q7.25,10.189 7.47,9.97 Q7.689,9.75 8,9.75 Z"/>
</svg>

