<svg xmlns="http://www.w3.org/2000/svg" width="24" height="24" viewBox="0 0 24 24">
  <defs/>
  <path fill="#292D32" d="M20.5,16 L20.5,18.5 C20.5,20.43 18.93,22 17,22 L7,22 C5.07,22 3.5,20.43 3.5,18.5 L3.5,17.85 C3.5,16.28 4.78,15 6.35,15 L19.5,15 C20.05,15 20.5,15.45 20.5,16 Z"/>
  <path fill="#292D32" d="M15.5,2 L8.5,2 C4.5,2 3.5,3 3.5,7 L3.5,14.58 C4.26,13.91 5.26,13.5 6.35,13.5 L19.5,13.5 C20.05,13.5 20.5,13.05 20.5,12.5 L20.5,7 C20.5,3 19.5,2 15.5,2 Z M13,10.75 L8,10.75 C7.59,10.75 7.25,10.41 7.25,10 C7.25,9.59 7.59,9.25 8,9.25 L13,9.25 C13.41,9.25 13.75,9.59 13.75,10 C13.75,10.41 13.41,10.75 13,10.75 Z M16,7.25 L8,7.25 C7.59,7.25 7.25,6.91 7.25,6.5 C7.25,6.09 7.59,5.75 8,5.75 L16,5.75 C16.41,5.75 16.75,6.09 16.75,6.5 C16.75,6.91 16.41,7.25 16,7.25 Z"/>
</svg>

