<svg xmlns="http://www.w3.org/2000/svg" width="24" height="24" viewBox="0 0 24 24">
  <defs/>
  <path fill="#292D32" d="M11.25,5.998 L11.25,19.908 C11.25,20.618 10.53,21.108 9.88,20.838 C8.02,20.058 5.71,19.378 4.07,19.158 L3.76,19.118 C2.79,18.998 2,18.108 2,17.138 L2,5.248 C2,4.048 2.97,3.078 4.17,3.078 L4.24,3.078 C6.12,3.238 8.89,4.118 10.72,5.108 C11.05,5.288 11.25,5.618 11.25,5.998 Z"/>
  <path fill="#292D32" d="M19.83,3.078 L19.77,3.078 C19.53,3.098 19.27,3.128 19,3.178 C17.77,3.378 16.31,3.798 15,4.318 C14.38,4.568 13.8,4.838 13.29,5.108 C12.96,5.288 12.75,5.628 12.75,5.998 L12.75,19.908 C12.75,20.618 13.47,21.108 14.12,20.838 C15.98,20.058 18.29,19.378 19.93,19.158 L20.24,19.118 C21.21,18.998 22,18.108 22,17.138 L22,5.248 C22,4.048 21.03,3.078 19.83,3.078 Z M19.27,13.728 C19.27,14.118 18.99,14.288 18.65,14.098 L17.59,13.508 C17.48,13.448 17.3,13.448 17.18,13.508 L16.12,14.098 C15.78,14.288 15.5,14.118 15.5,13.728 L15.5,10.658 C15.5,10.198 15.88,9.818 16.34,9.818 L18.44,9.818 C18.9,9.818 19.28,10.198 19.28,10.658 L19.28,13.728 L19.27,13.728 Z"/>
</svg>

