<svg xmlns="http://www.w3.org/2000/svg" width="24" height="24" viewBox="0 0 24 24">
  <defs/>
  <path fill="#292D32" d="M22.75,4.67 L22.75,16.74 Q22.75,19.164 20.353,19.464 L20.02,19.505 Q16.211,20.011 12.832,21.876 Q12.014,22.349 11.162,21.885 L11.136,21.871 Q11.123,21.865 11.11,21.858 Q7.734,20.012 3.931,19.503 L3.637,19.463 Q1.25,19.164 1.25,16.74 L1.25,4.66 Q1.25,3.438 2.125,2.63 Q3.002,1.82 4.223,1.923 Q8.203,2.245 11.617,4.374 L11.856,4.517 Q12,4.606 12.134,4.523 L12.293,4.42 Q13.305,3.794 14.72,3.224 Q15.008,3.108 15.294,3.23 Q15.58,3.352 15.696,3.64 Q15.75,3.775 15.75,3.92 L15.75,6.601 L16.585,6.045 Q17,5.769 17.415,6.045 L18.25,6.601 L18.25,2.78 Q18.25,2.509 18.423,2.3 Q18.597,2.092 18.863,2.043 Q19.253,1.97 19.708,1.933 Q19.739,1.93 19.77,1.93 L19.8,1.93 Q21,1.841 21.867,2.634 Q22.75,3.441 22.75,4.67 Z M21.25,4.67 Q21.25,4.102 20.855,3.741 Q20.46,3.38 19.893,3.427 Q19.861,3.43 19.83,3.43 L19.802,3.43 Q19.776,3.432 19.75,3.435 L19.75,8 Q19.75,8.227 19.625,8.415 Q19.452,8.674 19.148,8.735 Q18.843,8.797 18.585,8.624 L17,7.571 L15.415,8.624 Q15.227,8.75 15,8.75 Q14.689,8.75 14.47,8.53 Q14.25,8.311 14.25,8 L14.25,5.065 Q13.61,5.369 13.107,5.68 L12.926,5.797 Q12,6.372 11.084,5.803 L10.823,5.646 Q7.719,3.71 4.097,3.417 Q3.535,3.37 3.142,3.732 Q2.75,4.095 2.75,4.66 L2.75,16.74 Q2.75,17.84 3.843,17.977 L4.129,18.017 Q8.202,18.561 11.817,20.535 L11.844,20.548 Q11.859,20.556 11.874,20.564 Q11.992,20.63 12.108,20.563 Q15.733,18.562 19.84,18.015 L20.167,17.976 Q21.25,17.84 21.25,16.74 Z"/>
  <path fill="#292D32" d="M12.75,5.49 L12.75,20.49 Q12.75,20.801 12.53,21.02 Q12.311,21.24 12,21.24 Q11.689,21.24 11.47,21.02 Q11.25,20.801 11.25,20.49 L11.25,5.49 Q11.25,5.179 11.47,4.96 Q11.689,4.74 12,4.74 Q12.311,4.74 12.53,4.96 Q12.75,5.179 12.75,5.49 Z"/>
  <path fill="#292D32" d="M19.75,2.78 L19.75,8 Q19.75,8.311 19.53,8.53 Q19.311,8.75 19,8.75 Q18.773,8.75 18.585,8.625 L17,7.571 L15.415,8.625 Q15.157,8.797 14.852,8.735 Q14.548,8.674 14.375,8.415 Q14.25,8.227 14.25,8 L14.25,3.92 Q14.25,3.411 14.723,3.223 Q16.888,2.364 18.88,2.04 Q19.186,1.99 19.438,2.171 Q19.69,2.353 19.74,2.66 Q19.75,2.719 19.75,2.78 Z M18.25,3.688 Q17.038,3.957 15.75,4.435 L15.75,6.601 L16.585,6.045 Q17,5.769 17.415,6.045 L18.25,6.601 L18.25,3.688 Z"/>
</svg>

