<svg xmlns="http://www.w3.org/2000/svg" width="24" height="24" viewBox="0 0 24 24">
  <defs/>
  <path fill="#292D32" opacity="0.4" d="M12,5.3 L12,21.33 C12.17,21.33 12.35,21.3 12.49,21.22 L12.53,21.2 C14.45,20.15 17.8,19.05 19.97,18.76 L20.26,18.72 C21.22,18.6 22,17.7 22,16.74 L22,4.66 C22,3.47 21.03,2.57 19.84,2.67 C17.74,2.84 14.56,3.9 12.78,5.01 L12.53,5.16 C12.38,5.25 12.19,5.3 12,5.3 Z"/>
  <path fill="#292D32" d="M2,4.67 L2,16.74 C2,17.7 2.78,18.6 3.74,18.72 L4.07,18.76 C6.25,19.05 9.61,20.16 11.53,21.22 C11.66,21.3 11.82,21.33 12,21.33 L12,5.3 C11.81,5.3 11.62,5.25 11.47,5.16 L11.3,5.05 C9.52,3.93 6.33,2.86 4.23,2.68 L4.17,2.68 C2.98,2.58 2,3.47 2,4.67 Z"/>
  <path fill="#292D32" d="M19,2.78 L19,7.07 C19,7.47 18.56,7.71 18.22,7.49 L17,6.68 L15.78,7.49 C15.45,7.71 15,7.47 15,7.07 L15,3.92 C16.31,3.4 17.77,2.98 19,2.78 Z"/>
</svg>

