<svg xmlns="http://www.w3.org/2000/svg" width="24" height="24" viewBox="0 0 24 24">
  <defs/>
  <path fill="#292D32" d="M15,22.75 L9,22.75 C3.57,22.75 1.25,20.43 1.25,15 L1.25,9 C1.25,3.57 3.57,1.25 9,1.25 L15,1.25 C20.43,1.25 22.75,3.57 22.75,9 L22.75,15 C22.75,20.43 20.43,22.75 15,22.75 Z M9,2.75 C4.39,2.75 2.75,4.39 2.75,9 L2.75,15 C2.75,19.61 4.39,21.25 9,21.25 L15,21.25 C19.61,21.25 21.25,19.61 21.25,15 L21.25,9 C21.25,4.39 19.61,2.75 15,2.75 L9,2.75 Z"/>
  <path fill="#292D32" d="M8.68,15.33 C8.26,15.33 7.87,15.23 7.53,15.04 C6.7,14.57 6.25,13.64 6.25,12.42 L6.25,2.44 C6.25,2.03 6.59,1.69 7,1.69 C7.41,1.69 7.75,2.03 7.75,2.44 L7.75,12.42 C7.75,13.07 7.94,13.55 8.27,13.73 C8.62,13.93 9.16,13.83 9.75,13.48 L11.07,12.69 C11.61,12.37 12.38,12.37 12.92,12.69 L14.24,13.48 C14.84,13.84 15.38,13.93 15.72,13.73 C16.05,13.54 16.24,13.06 16.24,12.42 L16.24,2.44 C16.24,2.03 16.58,1.69 16.99,1.69 C17.4,1.69 17.74,2.03 17.74,2.44 L17.74,12.42 C17.74,13.64 17.29,14.57 16.46,15.04 C15.63,15.51 14.54,15.41 13.47,14.77 L12.15,13.98 C12.09,13.94 11.9,13.94 11.84,13.98 L10.52,14.77 C9.9,15.14 9.26,15.33 8.68,15.33 Z"/>
  <path fill="#292D32" d="M15,22.75 L9,22.75 C3.57,22.75 1.25,20.43 1.25,15 L1.25,9 C1.25,3.57 3.57,1.25 9,1.25 L15,1.25 C20.43,1.25 22.75,3.57 22.75,9 L22.75,15 C22.75,20.43 20.43,22.75 15,22.75 Z M9,2.75 C4.39,2.75 2.75,4.39 2.75,9 L2.75,15 C2.75,19.61 4.39,21.25 9,21.25 L15,21.25 C19.61,21.25 21.25,19.61 21.25,15 L21.25,9 C21.25,4.39 19.61,2.75 15,2.75 L9,2.75 Z"/>
  <path fill="#292D32" d="M8.68,15.33 C8.26,15.33 7.87,15.23 7.53,15.04 C6.7,14.57 6.25,13.64 6.25,12.42 L6.25,2.44 C6.25,2.03 6.59,1.69 7,1.69 C7.41,1.69 7.75,2.03 7.75,2.44 L7.75,12.42 C7.75,13.07 7.94,13.55 8.27,13.73 C8.62,13.93 9.16,13.83 9.75,13.48 L11.07,12.69 C11.61,12.37 12.38,12.37 12.92,12.69 L14.24,13.48 C14.84,13.84 15.38,13.93 15.72,13.73 C16.05,13.54 16.24,13.06 16.24,12.42 L16.24,2.44 C16.24,2.03 16.58,1.69 16.99,1.69 C17.4,1.69 17.74,2.03 17.74,2.44 L17.74,12.42 C17.74,13.64 17.29,14.57 16.46,15.04 C15.63,15.51 14.54,15.41 13.47,14.77 L12.15,13.98 C12.09,13.94 11.9,13.94 11.84,13.98 L10.52,14.77 C9.9,15.14 9.26,15.33 8.68,15.33 Z"/>
</svg>

