<svg xmlns="http://www.w3.org/2000/svg" width="24" height="24" viewBox="0 0 24 24">
  <defs/>
  <path fill="#292D32" d="M17,4.96 L17,12.08 C17,14.07 15.59,14.84 13.86,13.8 L12.54,13 C12.24,12.82 11.76,12.82 11.46,13 L10.14,13.8 C8.41,14.84 7,14.07 7,12.08 L7,4.99 C7.01,3 8.01,2 10,2 L14,2 C15.98,2 16.98,2.99 17,4.96 Z"/>
  <path fill="#292D32" opacity="0.4" d="M22,11.9 L22,14.93 C22,19.98 20,22 15,22 L9,22 C4,22 2,19.98 2,14.93 L2,11.9 C2,7.66 3.41,5.56 6.82,4.99 L7,4.99 L7,12.08 C7,14.07 8.41,14.84 10.14,13.8 L11.46,13 C11.76,12.82 12.24,12.82 12.54,13 L13.86,13.8 C15.59,14.84 17,14.07 17,12.08 L17,4.96 C20.54,5.48 22,7.59 22,11.9 Z"/>
</svg>

