<svg xmlns="http://www.w3.org/2000/svg" width="24" height="24" viewBox="0 0 24 24">
  <defs/>
  <path fill="#292D32" d="M2.75,13.02 L2.75,15 Q2.75,18.439 4.155,19.845 Q5.561,21.25 9,21.25 L15,21.25 Q18.439,21.25 19.845,19.845 Q21.25,18.439 21.25,15 L21.25,9 Q21.25,2.75 15,2.75 L9,2.75 Q2.75,2.75 2.75,9 Q2.75,9.311 2.53,9.53 Q2.311,9.75 2,9.75 Q1.689,9.75 1.47,9.53 Q1.25,9.311 1.25,9 Q1.25,1.25 9,1.25 L15,1.25 Q22.75,1.25 22.75,9 L22.75,15 Q22.75,22.75 15,22.75 L9,22.75 Q1.25,22.75 1.25,15 L1.25,13.02 Q1.25,12.709 1.47,12.49 Q1.689,12.27 2,12.27 Q2.311,12.27 2.53,12.49 Q2.75,12.709 2.75,13.02 Z"/>
  <path fill="#292D32" d="M19.129,15.27 Q19.129,17.068 17.355,17.274 L17.151,17.303 Q14.724,17.635 12.668,18.777 Q12.03,19.166 11.369,18.816 Q11.328,18.799 11.288,18.777 Q9.163,17.61 6.812,17.304 Q6.799,17.302 6.786,17.3 L6.624,17.273 Q4.869,17.061 4.869,15.27 L4.869,7.57 Q4.869,6.671 5.516,6.076 Q6.162,5.482 7.061,5.553 Q9.691,5.768 11.897,7.154 L11.999,7.218 L12.053,7.183 Q14.315,5.775 16.898,5.563 Q16.928,5.56 16.959,5.56 L16.972,5.56 Q17.848,5.502 18.48,6.08 Q19.129,6.674 19.129,7.58 Z M17.629,15.27 L17.629,7.58 Q17.629,7.335 17.468,7.187 Q17.305,7.038 17.058,7.058 Q17.029,7.06 16.999,7.06 L16.991,7.06 Q14.786,7.248 12.846,8.457 L12.742,8.523 Q12.019,8.965 11.283,8.539 Q11.272,8.533 11.262,8.526 L11.102,8.426 Q9.204,7.233 6.938,7.047 Q6.696,7.028 6.532,7.179 Q6.369,7.329 6.369,7.57 L6.369,15.27 Q6.369,15.734 6.815,15.785 Q6.834,15.787 6.852,15.79 L7.02,15.818 Q9.613,16.159 11.956,17.433 Q11.969,17.438 11.981,17.443 Q14.266,16.183 16.948,15.817 L17.153,15.788 Q17.164,15.786 17.175,15.785 Q17.629,15.733 17.629,15.27 Z"/>
  <path fill="#292D32" d="M12.75,8.1 L12.75,17.66 Q12.75,17.971 12.53,18.19 Q12.311,18.41 12,18.41 Q11.689,18.41 11.47,18.19 Q11.25,17.971 11.25,17.66 L11.25,8.1 Q11.25,7.789 11.47,7.57 Q11.689,7.35 12,7.35 Q12.311,7.35 12.53,7.57 Q12.75,7.789 12.75,8.1 Z"/>
</svg>

