<svg xmlns="http://www.w3.org/2000/svg" width="24" height="24" viewBox="0 0 24 24">
  <defs/>
  <path fill="#292D32" d="M22.75,16.74 Q22.75,19.165 20.35,19.465 L20.029,19.504 Q16.211,20.012 12.845,21.87 Q12.014,22.349 11.161,21.884 L11.135,21.871 Q11.122,21.865 11.11,21.858 Q7.734,20.012 3.928,19.503 L3.647,19.464 Q1.25,19.165 1.25,16.74 L1.25,4.66 Q1.25,3.438 2.125,2.63 Q3.002,1.82 4.221,1.923 Q8.203,2.245 11.606,4.367 L11.866,4.523 Q12,4.606 12.123,4.531 L12.301,4.415 Q15.7,2.276 19.706,1.933 Q19.738,1.93 19.77,1.93 L19.8,1.93 Q21,1.841 21.867,2.634 Q22.75,3.441 22.75,4.67 Z M21.25,16.74 L21.25,4.67 Q21.25,4.102 20.855,3.741 Q20.46,3.38 19.893,3.428 Q19.861,3.43 19.83,3.43 L19.802,3.43 Q16.178,3.748 13.099,5.685 L12.937,5.79 Q12,6.372 11.074,5.797 L10.834,5.653 Q7.719,3.711 4.099,3.418 Q3.535,3.37 3.142,3.733 Q2.75,4.095 2.75,4.66 L2.75,16.74 Q2.75,17.841 3.833,17.976 L4.132,18.017 Q8.202,18.561 11.818,20.536 L11.845,20.549 Q11.86,20.557 11.874,20.565 Q11.992,20.63 12.095,20.571 Q15.733,18.562 19.831,18.017 L20.17,17.976 Q21.25,17.841 21.25,16.74 Z"/>
  <path fill="#292D32" opacity="0.4" d="M12.75,5.49 L12.75,20.49 Q12.75,20.801 12.53,21.021 Q12.311,21.24 12,21.24 Q11.689,21.24 11.47,21.021 Q11.25,20.801 11.25,20.49 L11.25,5.49 Q11.25,5.18 11.47,4.96 Q11.689,4.74 12,4.74 Q12.311,4.74 12.53,4.96 Q12.75,5.18 12.75,5.49 Z"/>
  <path fill="#292D32" opacity="0.4" d="M7.75,9.24 L5.5,9.24 Q5.189,9.24 4.97,9.021 Q4.75,8.801 4.75,8.49 Q4.75,8.18 4.97,7.96 Q5.189,7.74 5.5,7.74 L7.75,7.74 Q8.061,7.74 8.28,7.96 Q8.5,8.18 8.5,8.49 Q8.5,8.801 8.28,9.021 Q8.061,9.24 7.75,9.24 Z"/>
  <path fill="#292D32" opacity="0.4" d="M8.5,12.24 L5.5,12.24 Q5.189,12.24 4.97,12.021 Q4.75,11.801 4.75,11.49 Q4.75,11.18 4.97,10.96 Q5.189,10.74 5.5,10.74 L8.5,10.74 Q8.811,10.74 9.03,10.96 Q9.25,11.18 9.25,11.49 Q9.25,11.801 9.03,12.021 Q8.811,12.24 8.5,12.24 Z"/>
</svg>

