<svg xmlns="http://www.w3.org/2000/svg" width="24" height="24" viewBox="0 0 24 24">
  <defs/>
  <path fill="#292D32" d="M17,4.96 L17,12.08 C17,14.07 15.59,14.84 13.86,13.8 L12.54,13 C12.24,12.82 11.76,12.82 11.46,13 L10.14,13.8 C8.41,14.84 7,14.07 7,12.08 L7,4.99 C7.01,3 8.01,2 10,2 L14,2 C15.98,2 16.98,2.99 17,4.96 Z"/>
  <path fill="#292D32" d="M22,11.901 L22,14.931 C22,19.981 20,22.001 15,22.001 L9,22.001 C4,22.001 2,19.981 2,14.931 L2,11.901 C2,9.211 2.57,7.381 3.85,6.261 C4.5,5.711 5.5,6.191 5.5,7.041 L5.5,12.081 C5.5,13.571 6.11,14.771 7.17,15.371 C8.24,15.981 9.6,15.871 10.92,15.081 L12,14.431 L13.09,15.081 C13.83,15.531 14.6,15.761 15.32,15.761 C15.86,15.761 16.37,15.631 16.83,15.371 C17.89,14.771 18.5,13.571 18.5,12.081 L18.5,7.031 C18.5,6.181 19.51,5.701 20.15,6.261 C21.43,7.381 22,9.211 22,11.901 Z"/>
</svg>

