<svg xmlns="http://www.w3.org/2000/svg" width="24" height="24" viewBox="0 0 24 24">
  <defs/>
  <path fill="#292D32" d="M16.19,2 L7.81,2 C4.17,2 2,4.17 2,7.81 L2,16.18 C2,19.83 4.17,22 7.81,22 L16.18,22 C19.82,22 21.99,19.83 21.99,16.19 L21.99,7.81 C22,4.17 19.83,2 16.19,2 Z M11.5,17.25 C11.5,17.61 11.14,17.85 10.81,17.71 C9.6,17.19 8.02,16.71 6.92,16.57 L6.73,16.55 C6.12,16.47 5.62,15.9 5.62,15.28 L5.62,7.58 C5.62,6.81 6.24,6.24 7,6.3 C8.25,6.4 10.1,7 11.26,7.66 C11.42,7.75 11.5,7.92 11.5,8.09 L11.5,17.25 Z M18.38,15.27 C18.38,15.89 17.88,16.46 17.27,16.54 L17.06,16.56 C15.97,16.71 14.4,17.18 13.19,17.69 C12.86,17.83 12.5,17.59 12.5,17.23 L12.5,8.08 C12.5,7.9 12.59,7.73 12.75,7.64 C13.91,6.99 15.72,6.41 16.95,6.3 L16.99,6.3 C17.76,6.3 18.38,6.92 18.38,7.69 L18.38,15.27 Z"/>
</svg>

