<svg xmlns="http://www.w3.org/2000/svg" width="24" height="24" viewBox="0 0 24 24">
  <defs/>
  <path fill="#292D32" d="M15,22.75 L9,22.75 C3.57,22.75 1.25,20.43 1.25,15 L1.25,9 C1.25,3.57 3.57,1.25 9,1.25 L15,1.25 C20.43,1.25 22.75,3.57 22.75,9 L22.75,15 C22.75,20.43 20.43,22.75 15,22.75 Z M9,2.75 C4.39,2.75 2.75,4.39 2.75,9 L2.75,15 C2.75,19.61 4.39,21.25 9,21.25 L15,21.25 C19.61,21.25 21.25,19.61 21.25,15 L21.25,9 C21.25,4.39 19.61,2.75 15,2.75 L9,2.75 Z"/>
  <path fill="#292D32" d="M12,18.95 C11.76,18.95 11.52,18.89 11.32,18.78 C10.16,18.15 8.11,17.47 6.82,17.3 L6.63,17.27 C5.65,17.15 4.87,16.27 4.87,15.26 L4.87,7.56 C4.87,6.99 5.11,6.44 5.52,6.06 C5.94,5.68 6.48,5.49 7.06,5.54 C8.52,5.66 10.64,6.36 11.89,7.14 L11.99,7.2 L12.03,7.17 C13.29,6.38 15.41,5.67 16.88,5.54 C16.9,5.54 16.96,5.54 16.98,5.54 C17.5,5.49 18.06,5.69 18.47,6.06 C18.89,6.44 19.12,6.97 19.12,7.55 L19.12,15.24 C19.12,16.24 18.34,17.12 17.35,17.25 L17.14,17.28 C15.86,17.45 13.8,18.13 12.66,18.76 C12.47,18.9 12.24,18.95 12,18.95 Z M6.89,7.05 C6.75,7.05 6.63,7.1 6.54,7.18 C6.43,7.28 6.38,7.42 6.38,7.57 L6.38,15.27 C6.38,15.51 6.6,15.76 6.83,15.79 L7.02,15.82 C8.48,16.02 10.72,16.75 12.02,17.46 C13.23,16.76 15.48,16.01 16.95,15.82 L17.17,15.79 C17.4,15.76 17.62,15.51 17.62,15.27 L17.62,7.58 C17.62,7.42 17.56,7.29 17.46,7.19 C17.35,7.09 17.21,7.05 17.05,7.06 C17.03,7.06 16.97,7.06 16.95,7.06 C15.79,7.16 13.88,7.8 12.84,8.46 L12.74,8.52 C12.3,8.79 11.68,8.79 11.26,8.53 L11.11,8.44 C10.06,7.78 8.15,7.15 6.94,7.05 C6.92,7.05 6.91,7.05 6.89,7.05 Z"/>
  <path fill="#292D32" d="M12,18.41 C11.59,18.41 11.25,18.07 11.25,17.66 L11.25,8.1 C11.25,7.69 11.59,7.35 12,7.35 C12.41,7.35 12.75,7.69 12.75,8.1 L12.75,17.66 C12.75,18.08 12.41,18.41 12,18.41 Z"/>
</svg>

