<svg xmlns="http://www.w3.org/2000/svg" width="24" height="24" viewBox="0 0 24 24">
  <defs/>
  <path fill="#292D32" d="M14,1.25 Q17.75,1.25 17.75,5.03 L17.75,12.08 Q17.75,14.017 16.439,14.734 Q15.14,15.445 13.474,14.443 L12.151,13.641 Q12,13.551 11.846,13.643 L10.529,14.441 Q8.86,15.445 7.561,14.734 Q6.25,14.017 6.25,12.08 L6.25,5.03 Q6.25,1.25 10,1.25 Z M14,2.75 L10,2.75 Q7.75,2.75 7.75,5.03 L7.75,12.08 Q7.75,13.128 8.281,13.418 Q8.825,13.716 9.751,13.159 L11.074,12.357 Q12,11.801 12.929,12.359 L14.246,13.157 Q15.175,13.716 15.719,13.418 Q16.25,13.128 16.25,12.08 L16.25,5.03 Q16.25,2.75 14,2.75 Z"/>
  <path fill="#292D32" d="M6.944,5.73 Q2.75,6.431 2.75,11.9 L2.75,14.93 Q2.75,21.25 9,21.25 L15,21.25 Q18.437,21.25 19.842,19.831 Q21.25,18.409 21.25,14.93 L21.25,11.9 Q21.25,6.342 16.891,5.702 Q16.584,5.657 16.398,5.408 Q16.213,5.158 16.258,4.851 Q16.303,4.544 16.552,4.358 Q16.802,4.173 17.109,4.218 Q22.75,5.047 22.75,11.9 L22.75,14.93 Q22.75,22.75 15,22.75 L9,22.75 Q1.25,22.75 1.25,14.93 L1.25,11.9 Q1.25,5.161 6.696,4.25 Q7.003,4.199 7.256,4.379 Q7.509,4.56 7.56,4.866 Q7.611,5.173 7.431,5.426 Q7.25,5.678 6.944,5.73 Z"/>
</svg>

