<svg xmlns="http://www.w3.org/2000/svg" width="24" height="24" viewBox="0 0 24 24">
  <defs/>
  <path fill="#292D32" opacity="0.4" d="M16.19,2 L7.82,2 C4.18,2 2.01,4.17 2.01,7.81 L2.01,16.18 C2.01,19.82 4.18,21.99 7.82,21.99 L16.19,21.99 C19.83,21.99 22,19.82 22,16.18 L22,7.81 C22,4.17 19.83,2 16.19,2 Z"/>
  <path fill="#292D32" d="M11.499,8.09 L11.499,17.25 C11.499,17.61 11.139,17.85 10.809,17.71 C9.599,17.19 8.019,16.71 6.919,16.57 L6.729,16.55 C6.119,16.47 5.619,15.9 5.619,15.28 L5.619,7.58 C5.619,6.82 6.239,6.25 6.999,6.31 C8.249,6.41 10.099,7.01 11.259,7.67 C11.409,7.74 11.499,7.91 11.499,8.09 Z"/>
  <path fill="#292D32" d="M18.38,7.7 L18.38,15.27 C18.38,15.89 17.88,16.46 17.27,16.54 L17.06,16.56 C15.97,16.71 14.4,17.18 13.19,17.69 C12.86,17.83 12.5,17.59 12.5,17.23 L12.5,8.08 C12.5,7.9 12.59,7.73 12.75,7.64 C13.91,6.99 15.72,6.41 16.95,6.3 L16.99,6.3 C17.76,6.31 18.38,6.93 18.38,7.7 Z"/>
</svg>

