<svg xmlns="http://www.w3.org/2000/svg" width="24" height="24" viewBox="0 0 24 24">
  <defs/>
  <path fill="#292D32" d="M15.31,15.02 C14.73,15.02 14.1,14.83 13.47,14.44 L12.15,13.64 C12.09,13.6 11.91,13.6 11.85,13.64 L10.53,14.44 C9.45,15.1 8.39,15.2 7.54,14.72 C6.71,14.25 6.25,13.31 6.25,12.08 L6.25,5.03 C6.25,2.59 7.58,1.25 10,1.25 L14,1.25 C16.42,1.25 17.75,2.59 17.75,5.03 L17.75,12.08 C17.75,13.32 17.29,14.26 16.46,14.72 C16.11,14.92 15.72,15.02 15.31,15.02 Z M12,12.11 C12.33,12.11 12.66,12.19 12.93,12.35 L14.25,13.15 C14.84,13.51 15.38,13.6 15.72,13.41 C16.05,13.22 16.24,12.73 16.24,12.07 L16.24,5.03 C16.24,3.43 15.57,2.75 13.99,2.75 L9.99,2.75 C8.41,2.75 7.74,3.43 7.74,5.03 L7.74,12.08 C7.74,12.74 7.93,13.23 8.26,13.42 C8.6,13.61 9.14,13.52 9.73,13.16 L11.05,12.36 C11.34,12.19 11.67,12.11 12,12.11 Z"/>
  <path fill="#292D32" d="M15,22.75 L9,22.75 C3.57,22.75 1.25,20.41 1.25,14.93 L1.25,11.9 C1.25,7.24 2.93,4.88 6.69,4.25 C7.09,4.18 7.48,4.46 7.55,4.87 C7.62,5.28 7.34,5.66 6.93,5.73 C3.92,6.23 2.74,7.96 2.74,11.9 L2.74,14.93 C2.74,19.54 4.43,21.25 8.99,21.25 L14.99,21.25 C19.55,21.25 21.24,19.54 21.24,14.93 L21.24,11.9 C21.24,7.9 20.02,6.17 16.88,5.7 C16.47,5.64 16.19,5.26 16.25,4.85 C16.31,4.44 16.69,4.16 17.1,4.22 C21,4.8 22.74,7.16 22.74,11.9 L22.74,14.93 C22.75,20.41 20.43,22.75 15,22.75 Z"/>
</svg>

