<svg xmlns="http://www.w3.org/2000/svg" width="24" height="24" viewBox="0 0 24 24">
  <defs/>
  <path d="M17,21.75 L7,21.75 C4.93,21.75 3.25,20.07 3.25,18 L3.25,17.16 C3.25,16.47 3.14,15.79 2.92,15.13 C2.64,14.3 1.87,13.75 1,13.75 C0.59,13.75 0.25,13.41 0.25,13 L0.25,11 C0.25,10.59 0.59,10.25 1,10.25 C1.87,10.25 2.65,9.69 2.92,8.87 C3.14,8.21 3.25,7.53 3.25,6.84 L3.25,6 C3.25,3.93 4.93,2.25 7,2.25 L17,2.25 C19.07,2.25 20.75,3.93 20.75,6 L20.75,6.84 C20.75,7.53 20.86,8.21 21.08,8.87 C21.36,9.7 22.13,10.25 23,10.25 C23.41,10.25 23.75,10.59 23.75,11 L23.75,13 C23.75,13.41 23.41,13.75 23,13.75 C22.13,13.75 21.35,14.31 21.08,15.13 C20.86,15.79 20.75,16.47 20.75,17.16 L20.75,18 C20.75,20.07 19.07,21.75 17,21.75 Z M1.75,12.33 C2.95,12.59 3.94,13.46 4.34,14.66 C4.61,15.47 4.75,16.31 4.75,17.16 L4.75,18 C4.75,19.24 5.76,20.25 7,20.25 L17,20.25 C18.24,20.25 19.25,19.24 19.25,18 L19.25,17.16 C19.25,16.31 19.39,15.47 19.66,14.66 C20.06,13.46 21.06,12.59 22.25,12.33 L22.25,11.67 C21.05,11.41 20.06,10.54 19.66,9.34 C19.39,8.53 19.25,7.69 19.25,6.84 L19.25,6 C19.25,4.76 18.24,3.75 17,3.75 L7,3.75 C5.76,3.75 4.75,4.76 4.75,6 L4.75,6.84 C4.75,7.69 4.61,8.53 4.34,9.34 C3.94,10.54 2.94,11.41 1.75,11.67 L1.75,12.33 Z"/>
  <path d="M12.67,16.92 L9.75,16.92 C9.34,16.92 9,16.58 9,16.17 L9,7.84 C9,7.43 9.34,7.09 9.75,7.09 L12.67,7.09 C14.23,7.09 15.5,8.36 15.5,9.92 C15.5,10.74 15.15,11.49 14.58,12 C15.14,12.52 15.5,13.26 15.5,14.08 C15.5,15.65 14.23,16.92 12.67,16.92 Z M10.5,15.42 L12.67,15.42 C13.41,15.42 14,14.82 14,14.09 C14,13.36 13.4,12.76 12.67,12.76 L10.5,12.76 L10.5,15.42 Z M10.5,11.25 L12.67,11.25 C13.41,11.25 14,10.65 14,9.92 C14,9.19 13.4,8.59 12.67,8.59 L10.5,8.59 L10.5,11.25 Z"/>
</svg>

