<svg xmlns="http://www.w3.org/2000/svg" width="24" height="24" viewBox="0 0 24 24">
  <defs/>
  <path fill="#17191C" d="M17,2.25 Q20.75,2.25 20.75,6 L20.75,6.8 Q20.75,8.013 21.089,8.805 Q21.11,8.852 21.124,8.903 Q21.491,10.25 23,10.25 Q23.311,10.25 23.53,10.47 Q23.75,10.689 23.75,11 L23.75,13 Q23.75,13.311 23.53,13.53 Q23.311,13.75 23,13.75 Q21.616,13.75 21.102,15.163 Q20.75,16.103 20.75,17.2 L20.75,18 Q20.75,21.75 17,21.75 L7,21.75 Q3.25,21.75 3.25,18 L3.25,17.2 Q3.25,15.987 2.911,15.195 Q2.89,15.148 2.876,15.097 Q2.509,13.75 1,13.75 Q0.689,13.75 0.47,13.53 Q0.25,13.311 0.25,13 L0.25,11 Q0.25,10.689 0.47,10.47 Q0.689,10.25 1,10.25 Q2.509,10.25 2.876,8.903 Q2.886,8.869 2.898,8.837 Q3.25,7.897 3.25,6.8 L3.25,6 Q3.25,2.25 7,2.25 Z M17,3.75 L7,3.75 Q4.75,3.75 4.75,6 L4.75,6.8 Q4.75,8.151 4.314,9.331 Q3.738,11.386 1.75,11.695 L1.75,12.305 Q3.731,12.613 4.31,14.653 Q4.75,15.713 4.75,17.2 L4.75,18 Q4.75,20.25 7,20.25 L17,20.25 Q19.25,20.25 19.25,18 L19.25,17.2 Q19.25,15.831 19.698,14.637 Q20.425,12.638 22.25,12.313 L22.25,11.695 Q20.269,11.387 19.69,9.347 Q19.25,8.287 19.25,6.8 L19.25,6 Q19.25,3.75 17,3.75 Z"/>
  <path fill="#17191C" d="M9.05,12 L9.05,7.8 Q9.05,7.489 9.269,7.27 Q9.489,7.05 9.8,7.05 L12.7,7.05 Q13.91,7.05 14.73,7.87 Q15.55,8.689 15.55,9.9 Q15.55,11.395 14.766,12.106 Q15.55,12.916 15.55,14.1 Q15.55,16.95 12.7,16.95 L9.8,16.95 Q9.489,16.95 9.269,16.73 Q9.05,16.511 9.05,16.2 L9.05,12 Z M12.7,11.25 Q13.289,11.25 13.669,10.87 Q14.05,10.489 14.05,9.9 Q14.05,8.55 12.7,8.55 L10.55,8.55 L10.55,11.25 L12.7,11.25 Z M12.7,12.75 L10.55,12.75 L10.55,15.45 L12.7,15.45 Q13.289,15.45 13.669,15.07 Q14.05,14.689 14.05,14.1 Q14.05,13.511 13.669,13.13 Q13.289,12.75 12.7,12.75 Z"/>
</svg>

