<svg xmlns="http://www.w3.org/2000/svg" width="24" height="24" viewBox="0 0 24 24">
  <defs/>
  <path d="M12.67,12.75 L10.5,12.75 L10.5,15.42 L12.67,15.42 C13.41,15.42 14,14.82 14,14.09 C14,13.36 13.4,12.75 12.67,12.75 Z"/>
  <path d="M12.67,8.578 L10.5,8.578 L10.5,11.248 L12.67,11.248 C13.41,11.248 14,10.648 14,9.918 C14,9.188 13.4,8.578 12.67,8.578 Z"/>
  <path d="M23,11 C21.81,11 20.75,10.24 20.37,9.1 C20.13,8.37 20,7.6 20,6.83 L20,6 C20,4.34 18.66,3 17,3 L7,3 C5.34,3 4,4.34 4,6 L4,6.84 C4,7.61 3.88,8.37 3.63,9.11 C3.25,10.24 2.19,11.01 1,11.01 L1,13.01 C2.19,13.01 3.25,13.77 3.63,14.91 C3.87,15.64 4,16.41 4,17.17 L4,18 C4,19.66 5.34,21 7,21 L17,21 C18.66,21 20,19.66 20,18 L20,17.16 C20,16.39 20.12,15.63 20.37,14.9 C20.75,13.77 21.81,13 23,13 L23,11 Z M15.5,14.08 C15.5,15.64 14.23,16.91 12.67,16.91 L9.75,16.91 C9.34,16.91 9,16.57 9,16.16 L9,7.83 C9,7.42 9.34,7.08 9.75,7.08 L12.67,7.08 C14.23,7.08 15.5,8.35 15.5,9.91 C15.5,10.73 15.15,11.48 14.58,11.99 C15.15,12.52 15.5,13.26 15.5,14.08 Z"/>
</svg>

