<svg xmlns="http://www.w3.org/2000/svg" width="24" height="24" viewBox="0 0 24 24">
  <defs/>
  <path d="M17,2.25 Q20.75,2.25 20.75,6 L20.75,6.84 Q20.75,7.854 21.082,8.863 Q21.544,10.25 23,10.25 Q23.311,10.25 23.53,10.47 Q23.75,10.689 23.75,11 L23.75,13 Q23.75,13.311 23.53,13.53 Q23.311,13.75 23,13.75 Q21.548,13.75 21.08,15.143 Q20.75,16.105 20.75,17.16 L20.75,18 Q20.75,21.75 17,21.75 L7,21.75 Q3.25,21.75 3.25,18 L3.25,17.16 Q3.25,16.146 2.918,15.137 Q2.456,13.75 1,13.75 Q0.689,13.75 0.47,13.53 Q0.25,13.311 0.25,13 L0.25,11 Q0.25,10.689 0.47,10.47 Q0.689,10.25 1,10.25 Q2.452,10.25 2.92,8.857 Q3.25,7.895 3.25,6.84 L3.25,6 Q3.25,2.25 7,2.25 Z M17,3.75 L7,3.75 Q4.75,3.75 4.75,6 L4.75,6.84 Q4.75,8.144 4.34,9.343 Q3.657,11.373 1.75,11.691 L1.75,12.309 Q3.663,12.627 4.342,14.663 Q4.75,15.905 4.75,17.16 L4.75,18 Q4.75,20.25 7,20.25 L17,20.25 Q19.25,20.25 19.25,18 L19.25,17.16 Q19.25,15.856 19.66,14.657 Q20.343,12.627 22.25,12.309 L22.25,11.691 Q20.337,11.373 19.658,9.337 Q19.25,8.095 19.25,6.84 L19.25,6 Q19.25,3.75 17,3.75 Z"/>
  <path opacity="0.4" d="M9,11.99 L9,7.83 Q9,7.519 9.22,7.3 Q9.439,7.08 9.75,7.08 L12.67,7.08 Q15.5,7.08 15.5,9.91 Q15.5,11.288 14.829,11.995 Q15.5,12.702 15.5,14.08 Q15.5,16.91 12.67,16.91 L9.75,16.91 Q9.439,16.91 9.22,16.69 Q9,16.471 9,16.16 L9,11.99 Z M10.5,11.24 L12.67,11.24 Q13.222,11.24 13.611,10.851 Q14,10.462 14,9.91 Q14,8.58 12.67,8.58 L10.5,8.58 L10.5,11.24 Z M10.5,12.75 L10.5,15.41 L12.67,15.41 Q13.222,15.41 13.611,15.021 Q14,14.632 14,14.08 Q14,12.75 12.67,12.75 L10.5,12.75 Z"/>
</svg>

