<svg xmlns="http://www.w3.org/2000/svg" width="24" height="24" viewBox="0 0 24 24">
  <defs/>
  <path fill="white" opacity="0.58" d="M24,0 L0,0 L0,24 L24,24 L24,0 Z"/>
  <path fill="#292D32" opacity="0.4" d="M17,3 L7,3 C5.34,3 4,4.34 4,6 L4,6.84 C4,7.61 3.88,8.37 3.63,9.1 C3.25,10.23 2.19,11 1,11 L1,13 C2.19,13 3.25,13.76 3.63,14.9 C3.87,15.63 4,16.4 4,17.16 L4,18 C4,19.66 5.34,21 7,21 L17,21 C18.66,21 20,19.66 20,18 L20,17.16 C20,16.39 20.12,15.63 20.37,14.9 C20.75,13.77 21.81,13 23,13 L23,11 C21.81,11 20.75,10.24 20.37,9.1 C20.13,8.37 20,7.6 20,6.84 L20,6 C20,4.34 18.66,3 17,3 Z"/>
  <path fill="#292D32" d="M12.67,16.92 L9.75,16.92 C9.34,16.92 9,16.58 9,16.17 L9,7.84 C9,7.43 9.34,7.09 9.75,7.09 L12.67,7.09 C14.23,7.09 15.5,8.36 15.5,9.92 C15.5,10.74 15.15,11.49 14.58,12 C15.14,12.52 15.5,13.26 15.5,14.08 C15.5,15.65 14.23,16.92 12.67,16.92 Z M10.5,15.42 L12.67,15.42 C13.41,15.42 14,14.82 14,14.09 C14,13.36 13.4,12.76 12.67,12.76 L10.5,12.76 L10.5,15.42 Z M10.5,11.25 L12.67,11.25 C13.41,11.25 14,10.65 14,9.92 C14,9.19 13.4,8.59 12.67,8.59 L10.5,8.59 L10.5,11.25 Z"/>
</svg>

