<svg xmlns="http://www.w3.org/2000/svg" width="24" height="24" viewBox="0 0 24 24">
  <defs/>
  <path fill="#292D32" d="M17.601,5.311 L11.95,2.271 C11.351,1.951 10.64,1.951 10.04,2.271 L4.4,5.311 C3.99,5.541 3.73,5.981 3.73,6.461 C3.73,6.951 3.98,7.391 4.4,7.611 L10.05,10.651 C10.351,10.811 10.681,10.891 11.001,10.891 C11.32,10.891 11.661,10.811 11.95,10.651 L17.601,7.611 C18.011,7.391 18.27,6.951 18.27,6.461 C18.27,5.981 18.011,5.541 17.601,5.311 Z"/>
  <path fill="#292D32" d="M9.12,11.711 L3.87,9.091 C3.46,8.881 3,8.911 2.61,9.141 C2.23,9.381 2,9.791 2,10.241 L2,15.201 C2,16.061 2.48,16.831 3.25,17.221 L8.5,19.841 C8.68,19.931 8.88,19.981 9.08,19.981 C9.31,19.981 9.55,19.911 9.76,19.791 C10.14,19.551 10.37,19.141 10.37,18.691 L10.37,13.731 C10.36,12.871 9.88,12.101 9.12,11.711 Z"/>
  <path fill="#292D32" d="M20.001,10.241 L20.001,12.701 C19.521,12.561 19.011,12.501 18.501,12.501 C17.141,12.501 15.811,12.971 14.761,13.811 C13.321,14.941 12.501,16.651 12.501,18.501 C12.501,18.991 12.561,19.481 12.691,19.951 C12.541,19.931 12.391,19.871 12.251,19.781 C11.871,19.551 11.641,19.141 11.641,18.691 L11.641,13.731 C11.641,12.871 12.121,12.101 12.881,11.711 L18.131,9.091 C18.541,8.881 19.001,8.911 19.391,9.141 C19.771,9.381 20.001,9.791 20.001,10.241 Z"/>
  <path fill="#292D32" d="M21.681,15.321 C20.791,14.431 19.611,13.981 18.441,14.001 C17.311,14.011 16.181,14.461 15.321,15.321 C14.721,15.911 14.331,16.651 14.141,17.421 C14.031,17.841 13.991,18.271 14.021,18.701 L14.021,18.751 C14.021,18.821 14.031,18.881 14.041,18.961 C14.041,18.961 14.041,18.961 14.051,18.971 L14.051,19.001 C14.141,19.981 14.561,20.931 15.321,21.681 C16.481,22.841 18.111,23.231 19.581,22.861 C20.021,22.751 20.451,22.571 20.851,22.331 C21.151,22.161 21.431,21.941 21.681,21.681 C22.431,20.931 22.861,19.981 22.951,18.991 C22.961,18.991 22.961,18.971 22.961,18.961 C22.981,18.891 22.981,18.811 22.981,18.741 C22.981,18.731 22.991,18.711 22.991,18.691 C23.051,17.481 22.611,16.241 21.681,15.321 Z M20.231,20.211 C19.941,20.501 19.471,20.501 19.171,20.211 L18.511,19.551 L17.831,20.231 C17.531,20.531 17.061,20.531 16.771,20.231 C16.471,19.941 16.471,19.471 16.771,19.171 L17.451,18.491 L16.791,17.831 C16.501,17.531 16.501,17.061 16.791,16.771 C17.091,16.471 17.561,16.471 17.861,16.771 L18.511,17.431 L19.141,16.791 C19.441,16.501 19.911,16.501 20.211,16.791 C20.501,17.091 20.501,17.561 20.211,17.861 L19.571,18.491 L20.231,19.141 C20.531,19.441 20.531,19.911 20.231,20.211 Z"/>
</svg>

