<svg xmlns="http://www.w3.org/2000/svg" width="24" height="24" viewBox="0 0 24 24">
  <defs/>
  <path fill="#292D32" d="M11.999,13.3 C11.869,13.3 11.739,13.27 11.619,13.2 L2.789,8.09 C2.429,7.88 2.309,7.42 2.519,7.06 C2.729,6.7 3.179,6.58 3.549,6.79 L11.999,11.68 L20.399,6.82 C20.759,6.61 21.219,6.74 21.429,7.09 C21.639,7.45 21.509,7.91 21.159,8.12 L12.389,13.2 C12.259,13.26 12.129,13.3 11.999,13.3 Z"/>
  <path fill="#292D32" d="M12,22.36 C11.59,22.36 11.25,22.02 11.25,21.61 L11.25,12.54 C11.25,12.13 11.59,11.79 12,11.79 C12.41,11.79 12.75,12.13 12.75,12.54 L12.75,21.61 C12.75,22.02 12.41,22.36 12,22.36 Z"/>
  <path fill="#292D32" d="M11.999,22.75 C11.119,22.75 10.239,22.56 9.559,22.17 L4.219,19.21 C2.769,18.41 1.629,16.48 1.629,14.82 L1.629,9.16 C1.629,7.5 2.769,5.58 4.219,4.77 L9.559,1.81 C10.919,1.05 13.059,1.05 14.429,1.81 L19.769,4.77 C21.219,5.57 22.359,7.5 22.359,9.16 L22.359,14.82 C22.359,14.89 22.359,14.99 22.329,15.12 C22.269,15.38 22.079,15.59 21.829,15.67 C21.579,15.75 21.299,15.7 21.099,15.52 C19.959,14.52 18.179,14.48 16.959,15.45 C16.189,16.06 15.739,16.99 15.739,17.98 C15.739,18.57 15.899,19.15 16.209,19.65 C16.289,19.79 16.369,19.9 16.459,20 C16.609,20.17 16.669,20.4 16.629,20.62 C16.589,20.84 16.449,21.04 16.249,21.14 L14.419,22.15 C13.749,22.56 12.879,22.75 11.999,22.75 Z M11.999,2.75 C11.379,2.75 10.749,2.88 10.299,3.13 L4.959,6.09 C3.989,6.63 3.149,8.06 3.149,9.16 L3.149,14.82 C3.149,15.92 3.999,17.36 4.959,17.89 L10.299,20.85 C11.209,21.36 12.799,21.36 13.709,20.85 L14.829,20.23 C14.459,19.56 14.259,18.78 14.259,17.98 C14.259,16.52 14.909,15.17 16.039,14.27 C17.409,13.18 19.349,12.95 20.869,13.61 L20.869,9.15 C20.869,8.05 20.019,6.61 19.059,6.08 L13.719,3.12 C13.249,2.88 12.619,2.75 11.999,2.75 Z"/>
  <path fill="#292D32" d="M19,22.75 C16.38,22.75 14.25,20.62 14.25,18 C14.25,16.54 14.9,15.19 16.03,14.29 C16.87,13.62 17.93,13.25 19,13.25 C21.62,13.25 23.75,15.38 23.75,18 C23.75,19.36 23.16,20.66 22.13,21.56 C21.26,22.33 20.15,22.75 19,22.75 Z M19,14.75 C18.26,14.75 17.56,15 16.97,15.47 C16.2,16.08 15.75,17.01 15.75,18 C15.75,19.79 17.21,21.25 19,21.25 C19.78,21.25 20.54,20.96 21.15,20.44 C21.85,19.82 22.25,18.94 22.25,18 C22.25,16.21 20.79,14.75 19,14.75 Z"/>
  <path fill="#292D32" d="M18,19.75 C17.75,19.75 17.5,19.62 17.36,19.39 C17.15,19.03 17.26,18.57 17.62,18.36 L18.51,17.83 L18.51,16.75 C18.51,16.34 18.85,16 19.26,16 C19.67,16 20.01,16.34 20.01,16.75 L20.01,18.25 C20.01,18.51 19.87,18.76 19.65,18.89 L18.4,19.64 C18.26,19.72 18.13,19.75 18,19.75 Z"/>
</svg>

