<svg xmlns="http://www.w3.org/2000/svg" width="24" height="24" viewBox="0 0 24 24">
  <defs/>
  <path fill="#292D32" opacity="0.4" d="M5.329,19.42 C5.219,19.42 5.099,19.39 4.999,19.34 L2.779,18.23 C2.529,18.1 2.369,17.84 2.369,17.56 L2.369,14.78 C2.369,14.37 2.709,14.03 3.119,14.03 C3.529,14.03 3.869,14.37 3.869,14.78 L3.869,17.09 L5.679,17.99 C6.049,18.18 6.199,18.63 6.019,19 C5.869,19.26 5.609,19.42 5.329,19.42 Z"/>
  <path fill="#292D32" d="M11.999,22.75 C11.94,22.75 11.88,22.74 11.829,22.73 C11.77,22.72 11.71,22.69 11.649,22.66 L9.439,21.56 C9.069,21.37 8.919,20.92 9.099,20.55 C9.289,20.18 9.739,20.03 10.11,20.21 L11.249,20.78 L11.249,19.22 C11.249,18.81 11.589,18.47 11.999,18.47 C12.409,18.47 12.749,18.81 12.749,19.22 L12.749,20.78 L13.889,20.21 C14.259,20.03 14.71,20.18 14.899,20.55 C15.089,20.92 14.94,21.37 14.559,21.56 L12.35,22.66 C12.29,22.69 12.229,22.71 12.169,22.73 C12.11,22.74 12.059,22.75 11.999,22.75 Z"/>
  <path fill="#292D32" opacity="0.4" d="M18.67,19.42 C18.4,19.42 18.13,19.27 18,19.01 C17.81,18.64 17.96,18.19 18.34,18 L20.15,17.1 L20.15,14.79 C20.15,14.38 20.49,14.04 20.9,14.04 C21.31,14.04 21.65,14.38 21.65,14.79 L21.65,17.57 C21.65,17.85 21.49,18.11 21.24,18.24 L19.02,19.35 C18.89,19.39 18.78,19.42 18.67,19.42 Z"/>
  <path fill="#292D32" d="M11.999,14.42 C11.589,14.42 11.249,14.08 11.249,13.67 L11.249,11.36 L9.439,10.46 C9.069,10.27 8.919,9.82 9.099,9.45 C9.289,9.08 9.739,8.93 10.11,9.11 L11.999,10.05 L13.889,9.11 C14.259,8.93 14.71,9.07 14.899,9.45 C15.089,9.82 14.94,10.27 14.559,10.46 L12.749,11.36 L12.749,13.67 C12.749,14.08 12.409,14.42 11.999,14.42 Z"/>
  <path fill="#292D32" opacity="0.4" d="M3.109,9.97 C2.699,9.97 2.359,9.63 2.359,9.22 L2.359,6.46 L2.359,6.45 C2.359,6.39 2.369,6.33 2.379,6.28 C2.399,6.2 2.429,6.13 2.469,6.06 C2.499,6.01 2.529,5.97 2.569,5.93 C2.609,5.89 2.659,5.85 2.709,5.82 C2.729,5.81 2.759,5.79 2.779,5.78 L4.989,4.68 C5.359,4.5 5.809,4.64 5.999,5.02 C6.189,5.39 6.039,5.84 5.659,6.03 L4.779,6.47 L5.659,6.91 C6.029,7.1 6.179,7.55 5.999,7.92 C5.819,8.29 5.359,8.44 4.989,8.26 L3.849,7.69 L3.849,9.25 C3.859,9.64 3.529,9.97 3.109,9.97 Z"/>
  <path fill="#292D32" d="M14.22,3.86 C14.11,3.86 13.99,3.83 13.89,3.78 L12,2.84 L10.11,3.78 C9.74,3.97 9.29,3.82 9.1,3.44 C8.91,3.07 9.06,2.62 9.44,2.43 L11.66,1.32 C11.87,1.21 12.12,1.21 12.33,1.32 L14.55,2.43 C14.92,2.62 15.07,3.07 14.89,3.44 C14.76,3.71 14.5,3.86 14.22,3.86 Z"/>
  <path fill="#292D32" opacity="0.4" d="M20.89,9.97 C20.48,9.97 20.14,9.63 20.14,9.22 L20.14,7.66 L19,8.23 C18.63,8.42 18.18,8.27 17.99,7.89 C17.8,7.52 17.95,7.07 18.33,6.88 L19.21,6.44 L18.33,6 C17.96,5.81 17.81,5.36 17.99,4.99 C18.17,4.62 18.63,4.47 19,4.65 L21.21,5.75 C21.23,5.76 21.26,5.77 21.28,5.79 C21.34,5.82 21.39,5.87 21.44,5.92 C21.47,5.96 21.5,6 21.53,6.04 C21.57,6.11 21.6,6.18 21.62,6.26 C21.63,6.32 21.64,6.38 21.64,6.43 L21.64,6.44 L21.64,9.2 C21.64,9.64 21.3,9.97 20.89,9.97 Z"/>
</svg>

