<svg xmlns="http://www.w3.org/2000/svg" width="24" height="24" viewBox="0 0 24 24">
  <defs/>
  <path fill="#292D32" d="M14.555,10.451 L12.749,11.354 L12.749,13.67 Q12.749,13.981 12.53,14.2 Q12.31,14.42 11.999,14.42 Q11.689,14.42 11.469,14.2 Q11.249,13.981 11.249,13.67 L11.249,11.354 L9.444,10.451 Q9.166,10.312 9.068,10.017 Q8.97,9.722 9.109,9.445 Q9.247,9.167 9.542,9.068 Q9.837,8.97 10.115,9.109 L11.999,10.051 L13.884,9.109 Q14.162,8.97 14.457,9.068 Q14.751,9.167 14.89,9.445 Q15.029,9.722 14.931,10.017 Q14.833,10.312 14.555,10.451 Z M18.334,17.999 L20.139,17.096 L20.139,14.78 Q20.139,14.469 20.359,14.25 Q20.579,14.03 20.889,14.03 Q21.2,14.03 21.42,14.25 Q21.639,14.469 21.639,14.78 L21.639,17.56 Q21.639,18.024 21.225,18.231 L19.005,19.341 Q18.727,19.48 18.432,19.382 Q18.138,19.283 17.999,19.005 Q17.86,18.728 17.958,18.433 Q18.056,18.138 18.334,17.999 Z M4.994,19.341 L2.774,18.231 Q2.359,18.024 2.359,17.56 L2.359,14.78 Q2.359,14.469 2.579,14.25 Q2.799,14.03 3.109,14.03 Q3.42,14.03 3.64,14.25 Q3.859,14.469 3.859,14.78 L3.859,17.096 L5.665,17.999 Q5.943,18.138 6.041,18.433 Q6.139,18.728 6,19.005 Q5.861,19.283 5.567,19.382 Q5.272,19.48 4.994,19.341 Z M13.884,3.781 L11.999,2.839 L10.115,3.781 Q9.837,3.92 9.542,3.822 Q9.247,3.723 9.109,3.445 Q8.97,3.168 9.068,2.873 Q9.166,2.578 9.444,2.439 L11.664,1.329 Q11.999,1.161 12.335,1.329 L14.555,2.439 Q14.833,2.578 14.931,2.873 Q15.029,3.168 14.89,3.445 Q14.751,3.723 14.457,3.822 Q14.162,3.92 13.884,3.781 Z"/>
  <g opacity="0.4">
    <path fill="#292D32" d="M21.225,7.58 L19.005,8.69 Q18.727,8.829 18.433,8.731 Q18.138,8.633 17.999,8.355 Q17.86,8.077 17.958,7.782 Q18.057,7.488 18.334,7.349 L20.554,6.239 Q20.832,6.1 21.127,6.198 Q21.422,6.296 21.561,6.574 Q21.7,6.852 21.601,7.147 Q21.503,7.442 21.225,7.58 Z"/>
    <path fill="#292D32" d="M20.554,7.581 L18.334,6.471 Q18.057,6.332 17.958,6.037 Q17.86,5.742 17.999,5.464 Q18.138,5.187 18.433,5.088 Q18.727,4.99 19.005,5.129 L21.225,6.239 Q21.503,6.378 21.601,6.673 Q21.7,6.967 21.561,7.245 Q21.422,7.523 21.127,7.621 Q20.832,7.72 20.554,7.581 Z"/>
    <path fill="#292D32" d="M21.641,6.91 L21.641,9.69 Q21.641,10 21.421,10.22 Q21.201,10.44 20.891,10.44 Q20.58,10.44 20.36,10.22 Q20.141,10 20.141,9.69 L20.141,6.91 Q20.141,6.599 20.36,6.379 Q20.58,6.16 20.891,6.16 Q21.201,6.16 21.421,6.379 Q21.641,6.599 21.641,6.91 Z"/>
    <path fill="#292D32" d="M2.774,6.239 L4.994,5.129 Q5.272,4.99 5.567,5.088 Q5.861,5.187 6,5.464 Q6.139,5.742 6.041,6.037 Q5.943,6.332 5.665,6.471 L3.445,7.581 Q3.167,7.72 2.872,7.621 Q2.577,7.523 2.439,7.245 Q2.3,6.967 2.398,6.673 Q2.496,6.378 2.774,6.239 Z"/>
    <path fill="#292D32" d="M3.445,6.239 L5.665,7.349 Q5.943,7.488 6.041,7.782 Q6.139,8.077 6,8.355 Q5.861,8.633 5.567,8.731 Q5.272,8.829 4.994,8.69 L2.774,7.58 Q2.496,7.442 2.398,7.147 Q2.3,6.852 2.439,6.574 Q2.577,6.296 2.872,6.198 Q3.167,6.1 3.445,6.239 Z"/>
    <path fill="#292D32" d="M3.859,6.91 L3.859,9.69 Q3.859,10 3.64,10.22 Q3.42,10.44 3.109,10.44 Q2.799,10.44 2.579,10.22 Q2.359,10 2.359,9.69 L2.359,6.91 Q2.359,6.599 2.579,6.379 Q2.799,6.16 3.109,6.16 Q3.42,6.16 3.64,6.379 Q3.859,6.599 3.859,6.91 Z"/>
    <path fill="#292D32" d="M11.664,23.141 L9.444,22.031 Q9.166,21.892 9.068,21.597 Q8.97,21.302 9.108,21.024 Q9.247,20.747 9.542,20.648 Q9.837,20.55 10.115,20.689 L12.335,21.799 Q12.613,21.938 12.711,22.233 Q12.809,22.527 12.67,22.805 Q12.531,23.083 12.236,23.181 Q11.942,23.28 11.664,23.141 Z"/>
    <path fill="#292D32" d="M11.665,21.799 L13.885,20.689 Q14.162,20.55 14.457,20.648 Q14.752,20.747 14.891,21.024 Q15.03,21.302 14.932,21.597 Q14.833,21.892 14.555,22.031 L12.335,23.141 Q12.058,23.28 11.763,23.181 Q11.468,23.083 11.329,22.805 Q11.19,22.527 11.288,22.233 Q11.387,21.938 11.665,21.799 Z"/>
    <path fill="#292D32" d="M11.25,22.47 L11.25,19.69 Q11.25,19.379 11.47,19.16 Q11.689,18.94 12,18.94 Q12.311,18.94 12.53,19.16 Q12.75,19.379 12.75,19.69 L12.75,22.47 Q12.75,22.781 12.53,23 Q12.311,23.22 12,23.22 Q11.689,23.22 11.47,23 Q11.25,22.781 11.25,22.47 Z"/>
  </g>
</svg>

