<svg xmlns="http://www.w3.org/2000/svg" width="24" height="24" viewBox="0 0 24 24">
  <defs/>
  <path fill="#292D32" d="M3.546,6.791 L12,11.683 L20.394,6.821 Q20.663,6.665 20.963,6.745 Q21.263,6.825 21.419,7.094 Q21.575,7.363 21.495,7.663 Q21.415,7.963 21.146,8.119 L12.376,13.199 Q12,13.417 11.624,13.199 L2.794,8.089 Q2.525,7.933 2.445,7.633 Q2.365,7.333 2.521,7.064 Q2.677,6.795 2.977,6.715 Q3.277,6.635 3.546,6.791 Z"/>
  <path fill="#292D32" d="M11.25,21.61 L11.25,12.54 Q11.25,12.229 11.47,12.01 Q11.689,11.79 12,11.79 Q12.311,11.79 12.53,12.01 Q12.75,12.229 12.75,12.54 L12.75,21.61 Q12.75,21.921 12.53,22.14 Q12.311,22.36 12,22.36 Q11.689,22.36 11.47,22.14 Q11.25,21.921 11.25,21.61 Z"/>
  <path fill="#292D32" d="M9.563,1.826 Q9.565,1.825 9.566,1.824 Q11.986,0.468 14.445,1.815 L19.783,4.784 Q22.37,6.216 22.37,9.17 L22.37,14.82 Q22.37,17.774 19.785,19.205 L14.443,22.176 Q12.005,23.524 9.565,22.175 L4.227,19.206 Q1.64,17.774 1.64,14.82 L1.64,9.17 Q1.64,6.216 4.226,4.784 Z M10.294,3.136 L4.954,6.096 Q3.14,7.1 3.14,9.17 L3.14,14.82 Q3.14,16.89 4.953,17.894 L10.295,20.865 Q12.005,21.81 13.717,20.864 L19.055,17.895 Q20.87,16.89 20.87,14.82 L20.87,9.17 Q20.87,7.1 19.057,6.096 L13.715,3.125 Q11.993,2.182 10.297,3.134 Z"/>
</svg>

