<svg xmlns="http://www.w3.org/2000/svg" width="24" height="24" viewBox="0 0 24 24">
  <defs/>
  <g opacity="0.4">
    <path fill="#292D32" d="M3.546,6.791 L12,11.684 L20.394,6.821 Q20.663,6.666 20.963,6.746 Q21.263,6.826 21.419,7.095 Q21.575,7.363 21.495,7.664 Q21.415,7.964 21.146,8.119 L12.376,13.199 Q12,13.417 11.624,13.2 L2.794,8.09 Q2.525,7.934 2.445,7.634 Q2.365,7.334 2.521,7.065 Q2.676,6.796 2.977,6.716 Q3.277,6.636 3.546,6.791 Z"/>
    <path fill="#292D32" d="M11.25,21.61 L11.25,12.54 Q11.25,12.229 11.47,12.01 Q11.689,11.79 12,11.79 Q12.311,11.79 12.53,12.01 Q12.75,12.229 12.75,12.54 L12.75,21.61 Q12.75,21.921 12.53,22.14 Q12.311,22.36 12,22.36 Q11.689,22.36 11.47,22.14 Q11.25,21.921 11.25,21.61 Z"/>
  </g>
  <path fill="#292D32" d="M9.563,1.826 Q9.565,1.825 9.567,1.824 Q11.987,0.467 14.445,1.814 L19.784,4.784 Q22.371,6.216 22.371,9.17 L22.371,14.82 Q22.371,17.774 19.785,19.205 L14.443,22.176 Q12.006,23.523 9.566,22.175 L4.227,19.206 Q1.641,17.774 1.641,14.82 L1.641,9.17 Q1.641,6.216 4.227,4.784 Z M10.294,3.136 L4.954,6.096 Q3.141,7.1 3.141,9.17 L3.141,14.82 Q3.141,16.89 4.954,17.894 L10.295,20.864 Q12.006,21.81 13.718,20.863 L19.056,17.894 Q20.871,16.89 20.871,14.82 L20.871,9.17 Q20.871,7.1 19.057,6.096 L13.716,3.125 Q11.994,2.182 10.298,3.134 Z"/>
</svg>

