<svg xmlns="http://www.w3.org/2000/svg" width="24" height="24" viewBox="0 0 24 24">
  <defs/>
  <path fill="#292D32" d="M3.546,6.791 L12,11.683 L20.394,6.821 Q20.663,6.665 20.963,6.745 Q21.263,6.825 21.419,7.094 Q21.575,7.363 21.495,7.663 Q21.415,7.963 21.146,8.119 L12.376,13.199 Q12,13.417 11.624,13.199 L2.794,8.089 Q2.525,7.933 2.445,7.633 Q2.365,7.333 2.521,7.064 Q2.676,6.795 2.977,6.715 Q3.277,6.635 3.546,6.791 Z"/>
  <path fill="#292D32" d="M11.25,21.61 L11.25,12.54 Q11.25,12.229 11.47,12.01 Q11.689,11.79 12,11.79 Q12.311,11.79 12.53,12.01 Q12.75,12.229 12.75,12.54 L12.75,21.61 Q12.75,21.921 12.53,22.14 Q12.311,22.36 12,22.36 Q11.689,22.36 11.47,22.14 Q11.25,21.921 11.25,21.61 Z"/>
  <path fill="#292D32" d="M3.141,13.25 L3.141,14.83 Q3.141,16.9 4.954,17.904 L10.295,20.875 Q12.006,21.82 13.718,20.874 L19.056,17.905 Q20.871,16.9 20.871,14.83 L20.871,9.17 Q20.871,7.1 19.057,6.096 L13.716,3.126 Q12.006,2.18 10.293,3.126 L4.955,6.096 Q3.141,7.1 3.141,9.17 Q3.141,9.481 2.921,9.7 Q2.701,9.92 2.391,9.92 Q2.08,9.92 1.86,9.7 Q1.641,9.481 1.641,9.17 Q1.641,6.216 4.226,4.785 L9.568,1.814 Q12.006,0.466 14.445,1.815 L19.784,4.784 Q22.371,6.216 22.371,9.17 L22.371,14.83 Q22.371,17.784 19.785,19.216 L14.443,22.187 Q12.006,23.534 9.566,22.186 L4.227,19.216 Q1.641,17.784 1.641,14.83 L1.641,13.25 Q1.641,12.939 1.86,12.72 Q2.08,12.5 2.391,12.5 Q2.701,12.5 2.921,12.72 Q3.141,12.939 3.141,13.25 Z"/>
</svg>

