<svg xmlns="http://www.w3.org/2000/svg" width="24" height="24" viewBox="0 0 24 24">
  <defs/>
  <path fill="#292D32" opacity="0.4" d="M21.041,7.19 L12.001,12.42 L2.961,7.19 C3.361,6.45 3.941,5.8 4.591,5.44 L9.931,2.48 C11.071,1.84 12.931,1.84 14.071,2.48 L19.411,5.44 C20.061,5.8 20.641,6.45 21.041,7.19 Z"/>
  <path fill="#292D32" opacity="0.6" d="M12.001,12.42 L12.001,22 C11.251,22 10.501,21.84 9.931,21.52 L4.591,18.56 C3.381,17.89 2.391,16.21 2.391,14.83 L2.391,9.17 C2.391,8.53 2.611,7.83 2.961,7.19 L12.001,12.42 Z"/>
  <path fill="#292D32" d="M21.61,9.17 L21.61,14.83 C21.61,16.21 20.62,17.89 19.41,18.56 L14.07,21.52 C13.5,21.84 12.75,22 12,22 L12,12.42 L21.04,7.19 C21.39,7.83 21.61,8.53 21.61,9.17 Z"/>
</svg>

