<svg xmlns="http://www.w3.org/2000/svg" width="24" height="24" viewBox="0 0 24 24">
  <defs/>
  <path fill="#292D32" d="M22,15.7 C22,15.69 21.99,15.68 21.98,15.67 C21.94,15.61 21.89,15.55 21.84,15.5 C21.83,15.49 21.82,15.47 21.81,15.46 C21,14.56 19.81,14 18.5,14 C17.24,14 16.09,14.52 15.27,15.36 C14.48,16.17 14,17.28 14,18.5 C14,19.34 14.24,20.14 14.65,20.82 C14.87,21.19 15.15,21.53 15.47,21.81 C15.49,21.82 15.5,21.83 15.51,21.84 C15.56,21.89 15.61,21.93 15.67,21.98 C15.67,21.98 15.67,21.98 15.68,21.98 C15.69,21.99 15.7,22 15.71,22 C16.46,22.63 17.43,23 18.5,23 C20.14,23 21.57,22.12 22.35,20.82 C22.58,20.43 22.76,20 22.87,19.55 C22.96,19.21 23,18.86 23,18.5 C23,17.44 22.63,16.46 22,15.7 Z M20.18,19.23 L19.25,19.23 L19.25,20.2 C19.25,20.61 18.91,20.95 18.5,20.95 C18.09,20.95 17.75,20.61 17.75,20.2 L17.75,19.23 L16.82,19.23 C16.41,19.23 16.07,18.89 16.07,18.48 C16.07,18.07 16.41,17.73 16.82,17.73 L17.75,17.73 L17.75,16.84 C17.75,16.43 18.09,16.09 18.5,16.09 C18.91,16.09 19.25,16.43 19.25,16.84 L19.25,17.73 L20.18,17.73 C20.59,17.73 20.93,18.07 20.93,18.48 C20.93,18.89 20.6,19.23 20.18,19.23 Z"/>
  <path fill="#292D32" opacity="0.4" d="M19.35,5.66 L13.06,2.27 C12.4,1.91 11.6,1.91 10.93,2.27 L4.64,5.66 C4.18,5.91 3.9,6.4 3.9,6.94 C3.9,7.48 4.18,7.97 4.64,8.22 L10.93,11.61 C11.26,11.79 11.63,11.88 11.99,11.88 C12.35,11.88 12.72,11.79 13.05,11.61 L19.34,8.22 C19.8,7.97 20.08,7.48 20.08,6.94 C20.1,6.4 19.81,5.91 19.35,5.66 Z"/>
  <path fill="#292D32" opacity="0.4" d="M9.901,12.79 L4.051,9.86 C3.601,9.63 3.081,9.66 2.651,9.92 C2.221,10.18 1.971,10.64 1.971,11.14 L1.971,16.67 C1.971,17.63 2.501,18.49 3.361,18.92 L9.211,21.84 C9.411,21.94 9.631,21.99 9.851,21.99 C10.111,21.99 10.371,21.92 10.601,21.77 C11.031,21.51 11.281,21.05 11.281,20.55 L11.281,15.02 C11.291,14.08 10.761,13.22 9.901,12.79 Z"/>
  <path fill="#292D32" opacity="0.4" d="M22.031,11.15 L22.031,15.74 C22.021,15.73 22.011,15.71 22.001,15.7 C22.001,15.69 21.991,15.68 21.981,15.67 C21.941,15.61 21.891,15.55 21.841,15.5 C21.831,15.49 21.821,15.47 21.811,15.46 C21.001,14.56 19.811,14 18.501,14 C17.241,14 16.091,14.52 15.271,15.36 C14.481,16.17 14.001,17.28 14.001,18.5 C14.001,19.34 14.241,20.14 14.651,20.82 C14.821,21.11 15.031,21.37 15.261,21.61 L14.791,21.85 C14.591,21.95 14.371,22 14.151,22 C13.891,22 13.631,21.93 13.391,21.78 C12.971,21.52 12.711,21.06 12.711,20.56 L12.711,15.04 C12.711,14.08 13.241,13.22 14.101,12.79 L19.951,9.87 C20.401,9.64 20.921,9.66 21.351,9.93 C21.771,10.19 22.031,10.65 22.031,11.15 Z"/>
</svg>

