<svg xmlns="http://www.w3.org/2000/svg" width="24" height="24" viewBox="0 0 24 24">
  <defs/>
  <path fill="#292D32" d="M14.555,10.451 L12.75,11.354 L12.75,13.67 Q12.75,13.981 12.53,14.2 Q12.311,14.42 12,14.42 Q11.689,14.42 11.47,14.2 Q11.25,13.981 11.25,13.67 L11.25,11.354 L9.445,10.451 Q9.167,10.312 9.068,10.017 Q8.97,9.722 9.109,9.445 Q9.248,9.167 9.543,9.068 Q9.838,8.97 10.115,9.109 L12,10.051 L13.885,9.109 Q14.162,8.97 14.457,9.068 Q14.752,9.167 14.891,9.445 Q15.03,9.722 14.932,10.017 Q14.833,10.312 14.555,10.451 Z M12.75,20.786 L13.885,20.219 Q14.162,20.08 14.457,20.178 Q14.752,20.277 14.891,20.555 Q15.03,20.832 14.932,21.127 Q14.833,21.422 14.555,21.561 L12.381,22.648 Q12.284,22.706 12.173,22.731 Q12.087,22.753 12,22.752 Q11.913,22.753 11.827,22.731 Q11.716,22.706 11.619,22.648 L9.445,21.561 Q9.167,21.422 9.068,21.127 Q8.97,20.832 9.109,20.555 Q9.248,20.277 9.543,20.178 Q9.838,20.08 10.115,20.219 L11.25,20.786 L11.25,19.22 Q11.25,18.909 11.47,18.69 Q11.689,18.47 12,18.47 Q12.311,18.47 12.53,18.69 Q12.75,18.909 12.75,19.22 L12.75,20.786 Z M2.828,5.743 L4.995,4.659 Q5.272,4.52 5.567,4.618 Q5.862,4.717 6.001,4.995 Q6.14,5.272 6.042,5.567 Q5.943,5.862 5.665,6.001 L4.787,6.44 L5.665,6.879 Q5.943,7.018 6.042,7.313 Q6.14,7.608 6.001,7.885 Q5.862,8.163 5.567,8.262 Q5.272,8.36 4.995,8.221 L3.86,7.654 L3.86,9.22 Q3.86,9.531 3.64,9.75 Q3.421,9.97 3.11,9.97 Q2.799,9.97 2.58,9.75 Q2.36,9.531 2.36,9.22 L2.36,6.499 Q2.358,6.47 2.358,6.44 Q2.357,6.353 2.378,6.267 Q2.405,6.148 2.471,6.045 Q2.516,5.969 2.578,5.908 Q2.639,5.846 2.715,5.801 Q2.769,5.766 2.828,5.743 Z M21.285,5.801 Q21.361,5.846 21.422,5.908 Q21.484,5.969 21.529,6.045 Q21.595,6.148 21.621,6.267 Q21.643,6.353 21.642,6.44 Q21.642,6.47 21.64,6.499 L21.64,9.22 Q21.64,9.531 21.42,9.75 Q21.201,9.97 20.89,9.97 Q20.579,9.97 20.36,9.75 Q20.14,9.531 20.14,9.22 L20.14,7.654 L19.005,8.221 Q18.728,8.36 18.433,8.262 Q18.138,8.163 17.999,7.885 Q17.86,7.608 17.958,7.313 Q18.057,7.018 18.335,6.879 L19.213,6.44 L18.335,6.001 Q18.057,5.862 17.958,5.567 Q17.86,5.272 17.999,4.995 Q18.138,4.717 18.433,4.618 Q18.728,4.52 19.005,4.659 L21.172,5.743 Q21.231,5.766 21.285,5.801 Z M4.995,19.341 L2.775,18.231 Q2.36,18.024 2.36,17.56 L2.36,14.78 Q2.36,14.469 2.58,14.25 Q2.799,14.03 3.11,14.03 Q3.546,14.03 3.761,14.408 L5.981,18.298 Q6.135,18.568 6.053,18.868 Q5.972,19.167 5.702,19.321 Q5.353,19.52 4.995,19.341 Z M14.555,2.439 Q14.97,2.646 14.97,3.11 Q14.97,3.421 14.75,3.64 Q14.531,3.86 14.22,3.86 L9.78,3.86 Q9.316,3.86 9.109,3.445 Q8.97,3.168 9.068,2.873 Q9.167,2.578 9.445,2.439 L11.665,1.329 Q12,1.161 12.335,1.329 Z M18.335,17.999 L20.14,17.096 L20.14,14.78 Q20.14,14.469 20.36,14.25 Q20.579,14.03 20.89,14.03 Q21.201,14.03 21.42,14.25 Q21.64,14.469 21.64,14.78 L21.64,17.56 Q21.64,18.024 21.225,18.231 L19.005,19.341 Q18.728,19.48 18.433,19.382 Q18.138,19.283 17.999,19.005 Q17.86,18.728 17.958,18.433 Q18.057,18.138 18.335,17.999 Z"/>
</svg>

