<svg xmlns="http://www.w3.org/2000/svg" width="24" height="24" viewBox="0 0 24 24">
  <defs/>
  <path fill="#292D32" opacity="0.4" d="M20.1,6.94 C20.1,7.48 19.81,7.97 19.35,8.22 L17.61,9.16 L16.13,9.95 L13.06,11.61 C12.73,11.79 12.37,11.88 12,11.88 C11.63,11.88 11.27,11.79 10.94,11.61 L4.65,8.22 C4.19,7.97 3.9,7.48 3.9,6.94 C3.9,6.4 4.19,5.91 4.65,5.66 L6.62,4.6 L8.19,3.75 L10.94,2.27 C11.6,1.91 12.4,1.91 13.06,2.27 L19.35,5.66 C19.81,5.91 20.1,6.4 20.1,6.94 Z"/>
  <path fill="#292D32" opacity="0.4" d="M9.901,12.79 L4.051,9.86 C3.601,9.63 3.081,9.66 2.651,9.92 C2.221,10.18 1.971,10.64 1.971,11.14 L1.971,16.67 C1.971,17.63 2.501,18.49 3.361,18.92 L9.211,21.84 C9.411,21.94 9.631,21.99 9.851,21.99 C10.111,21.99 10.371,21.92 10.601,21.77 C11.031,21.51 11.281,21.05 11.281,20.55 L11.281,15.02 C11.291,14.08 10.761,13.22 9.901,12.79 Z"/>
  <path fill="#292D32" opacity="0.4" d="M22.031,11.15 L22.031,16.68 C22.031,17.63 21.501,18.49 20.641,18.92 L14.791,21.85 C14.591,21.95 14.371,22 14.151,22 C13.891,22 13.631,21.93 13.391,21.78 C12.971,21.52 12.711,21.06 12.711,20.56 L12.711,15.04 C12.711,14.08 13.241,13.22 14.101,12.79 L16.251,11.72 L17.751,10.97 L19.951,9.87 C20.401,9.64 20.921,9.66 21.351,9.93 C21.771,10.19 22.031,10.65 22.031,11.15 Z"/>
  <path fill="#292D32" d="M22.6,21.64 L21.84,20.88 C22.24,20.28 22.47,19.56 22.47,18.79 C22.47,16.68 20.76,14.97 18.65,14.97 C16.54,14.97 14.83,16.68 14.83,18.79 C14.83,20.9 16.54,22.61 18.65,22.61 C19.42,22.61 20.14,22.38 20.74,21.98 L21.5,22.74 C21.65,22.89 21.85,22.97 22.05,22.97 C22.25,22.97 22.45,22.89 22.6,22.74 C22.9,22.43 22.9,21.94 22.6,21.64 Z"/>
</svg>

