<svg xmlns="http://www.w3.org/2000/svg" width="24" height="24" viewBox="0 0 24 24">
  <defs/>
  <path fill="#292D32" d="M11.999,13.3 C11.869,13.3 11.739,13.27 11.619,13.2 L2.789,8.09 C2.429,7.88 2.309,7.42 2.519,7.06 C2.729,6.7 3.189,6.58 3.539,6.79 L11.989,11.68 L20.389,6.82 C20.749,6.61 21.209,6.74 21.409,7.09 C21.619,7.45 21.489,7.91 21.139,8.12 L12.369,13.2 C12.259,13.26 12.129,13.3 11.999,13.3 Z"/>
  <path fill="#292D32" d="M12,22.36 C11.59,22.36 11.25,22.02 11.25,21.61 L11.25,12.54 C11.25,12.13 11.59,11.79 12,11.79 C12.41,11.79 12.75,12.13 12.75,12.54 L12.75,21.61 C12.75,22.02 12.41,22.36 12,22.36 Z"/>
  <path fill="#292D32" d="M11.999,22.75 C11.119,22.75 10.239,22.56 9.559,22.17 L4.219,19.21 C2.769,18.41 1.629,16.48 1.629,14.82 L1.629,9.16 C1.629,7.5 2.769,5.58 4.219,4.77 L9.559,1.81 C10.919,1.04 13.059,1.04 14.429,1.81 L19.769,4.77 C21.219,5.57 22.359,7.5 22.359,9.16 L22.359,14.82 C22.359,14.92 22.359,15 22.339,15.1 C22.289,15.36 22.099,15.58 21.849,15.66 C21.599,15.75 21.319,15.69 21.109,15.52 C19.959,14.52 18.179,14.48 16.969,15.45 C16.199,16.06 15.749,16.99 15.749,17.98 C15.749,18.57 15.909,19.15 16.219,19.65 C16.299,19.79 16.379,19.9 16.469,20.01 C16.619,20.18 16.679,20.41 16.639,20.63 C16.599,20.85 16.459,21.04 16.259,21.15 L14.429,22.16 C13.749,22.56 12.879,22.75 11.999,22.75 Z M11.999,2.75 C11.379,2.75 10.749,2.88 10.299,3.13 L4.959,6.09 C3.989,6.62 3.149,8.06 3.149,9.16 L3.149,14.82 C3.149,15.92 3.999,17.36 4.959,17.89 L10.299,20.85 C11.209,21.36 12.799,21.36 13.709,20.85 L14.829,20.23 C14.459,19.56 14.259,18.78 14.259,17.98 C14.259,16.52 14.909,15.17 16.039,14.27 C17.399,13.18 19.349,12.95 20.869,13.6 L20.869,9.14 C20.869,8.04 20.019,6.6 19.059,6.07 L13.719,3.11 C13.249,2.88 12.619,2.75 11.999,2.75 Z"/>
  <path fill="#292D32" d="M19,22.75 C17.34,22.75 15.78,21.87 14.94,20.44 C14.49,19.72 14.25,18.87 14.25,18 C14.25,16.54 14.9,15.19 16.03,14.29 C16.87,13.62 17.93,13.25 19,13.25 C21.62,13.25 23.75,15.38 23.75,18 C23.75,18.87 23.51,19.72 23.06,20.45 C22.82,20.87 22.49,21.25 22.11,21.57 C21.28,22.33 20.17,22.75 19,22.75 Z M19,14.75 C18.26,14.75 17.56,15 16.97,15.47 C16.2,16.08 15.75,17.01 15.75,18 C15.75,18.59 15.91,19.17 16.22,19.67 C16.81,20.67 17.85,21.25 19,21.25 C19.79,21.25 20.55,20.96 21.13,20.44 C21.39,20.22 21.61,19.96 21.77,19.68 C22.09,19.17 22.25,18.59 22.25,18 C22.25,16.21 20.79,14.75 19,14.75 Z"/>
  <path fill="#292D32" d="M20.07,19.79 C19.88,19.79 19.69,19.72 19.54,19.57 L17.43,17.46 C17.14,17.17 17.14,16.69 17.43,16.4 C17.72,16.11 18.2,16.11 18.49,16.4 L20.6,18.51 C20.89,18.8 20.89,19.28 20.6,19.57 C20.45,19.72 20.26,19.79 20.07,19.79 Z"/>
  <path fill="#292D32" d="M17.931,19.82 C17.741,19.82 17.551,19.75 17.401,19.6 C17.111,19.31 17.111,18.83 17.401,18.54 L19.511,16.43 C19.801,16.14 20.281,16.14 20.571,16.43 C20.861,16.72 20.861,17.2 20.571,17.49 L18.461,19.6 C18.311,19.75 18.121,19.82 17.931,19.82 Z"/>
</svg>

