<svg xmlns="http://www.w3.org/2000/svg" width="24" height="24" viewBox="0 0 24 24">
  <defs/>
  <path fill="#292D32" d="M11.999,22.75 C11.939,22.75 11.879,22.74 11.829,22.73 C11.769,22.72 11.709,22.69 11.649,22.66 L9.439,21.56 C9.069,21.37 8.919,20.92 9.099,20.55 C9.289,20.18 9.739,20.03 10.109,20.21 L11.249,20.78 L11.249,19.22 C11.249,18.81 11.589,18.47 11.999,18.47 C12.409,18.47 12.749,18.81 12.749,19.22 L12.749,20.78 L13.889,20.21 C14.259,20.03 14.709,20.18 14.899,20.55 C15.089,20.92 14.939,21.37 14.559,21.56 L12.349,22.66 C12.289,22.69 12.229,22.71 12.169,22.73 C12.109,22.74 12.059,22.75 11.999,22.75 Z M18.669,19.42 C18.399,19.42 18.129,19.27 17.999,19.01 C17.809,18.64 17.959,18.19 18.339,18 L20.149,17.1 L20.149,14.79 C20.149,14.38 20.489,14.04 20.899,14.04 C21.309,14.04 21.649,14.38 21.649,14.79 L21.649,17.57 C21.649,17.85 21.489,18.11 21.239,18.24 L19.019,19.35 C18.889,19.39 18.779,19.42 18.669,19.42 Z M5.329,19.42 C5.219,19.42 5.099,19.39 4.999,19.34 L2.779,18.23 C2.529,18.1 2.369,17.84 2.369,17.56 L2.369,14.78 C2.369,14.37 2.709,14.03 3.119,14.03 C3.529,14.03 3.869,14.37 3.869,14.78 L3.869,17.09 L5.679,17.99 C6.049,18.18 6.199,18.63 6.019,19 C5.869,19.26 5.609,19.42 5.329,19.42 Z M11.999,14.42 C11.589,14.42 11.249,14.08 11.249,13.67 L11.249,11.36 L9.439,10.46 C9.069,10.27 8.919,9.82 9.099,9.45 C9.289,9.08 9.739,8.93 10.109,9.11 L11.999,10.05 L13.889,9.11 C14.259,8.93 14.709,9.07 14.899,9.45 C15.089,9.83 14.939,10.27 14.559,10.46 L12.749,11.36 L12.749,13.67 C12.749,14.08 12.409,14.42 11.999,14.42 Z M20.889,9.97 C20.479,9.97 20.139,9.63 20.139,9.22 L20.139,7.66 L18.999,8.23 C18.629,8.42 18.179,8.27 17.989,7.89 C17.799,7.52 17.949,7.07 18.329,6.88 L19.209,6.44 L18.329,6 C17.959,5.81 17.809,5.36 17.989,4.99 C18.179,4.62 18.629,4.47 18.999,4.65 L21.209,5.75 C21.229,5.76 21.259,5.77 21.279,5.79 C21.339,5.82 21.389,5.87 21.439,5.92 C21.469,5.96 21.499,6 21.529,6.04 C21.569,6.11 21.599,6.18 21.619,6.26 C21.629,6.32 21.639,6.38 21.639,6.43 L21.639,6.44 L21.639,9.2 C21.639,9.64 21.299,9.97 20.889,9.97 Z M3.109,9.97 C2.699,9.97 2.359,9.63 2.359,9.22 L2.359,6.46 L2.359,6.45 C2.359,6.39 2.369,6.33 2.379,6.28 C2.399,6.2 2.429,6.13 2.469,6.06 C2.499,6.01 2.529,5.97 2.569,5.93 C2.609,5.89 2.659,5.85 2.709,5.82 C2.729,5.81 2.759,5.79 2.779,5.78 L4.989,4.68 C5.359,4.5 5.809,4.64 5.999,5.02 C6.189,5.4 6.039,5.84 5.659,6.03 L4.779,6.47 L5.659,6.91 C6.029,7.1 6.179,7.55 5.999,7.92 C5.809,8.29 5.369,8.44 4.989,8.26 L3.849,7.69 L3.849,9.25 C3.859,9.64 3.529,9.97 3.109,9.97 Z M14.219,3.86 C14.109,3.86 13.989,3.83 13.889,3.78 L11.999,2.84 L10.109,3.78 C9.739,3.97 9.289,3.82 9.099,3.44 C8.909,3.07 9.059,2.62 9.439,2.43 L11.659,1.32 C11.869,1.21 12.119,1.21 12.329,1.32 L14.549,2.43 C14.919,2.62 15.069,3.07 14.889,3.44 C14.759,3.71 14.499,3.86 14.219,3.86 Z"/>
</svg>

