<svg xmlns="http://www.w3.org/2000/svg" width="24" height="24" viewBox="0 0 24 24">
  <defs/>
  <path fill="#292D32" d="M3.546,6.791 L12,11.683 L20.394,6.821 Q20.663,6.665 20.963,6.745 Q21.263,6.825 21.419,7.094 Q21.575,7.363 21.495,7.663 Q21.415,7.963 21.146,8.119 L12.376,13.199 Q12,13.417 11.624,13.199 L2.794,8.089 Q2.525,7.933 2.445,7.633 Q2.365,7.333 2.521,7.064 Q2.676,6.795 2.977,6.715 Q3.277,6.635 3.546,6.791 Z"/>
  <path fill="#292D32" d="M11.25,21.61 L11.25,12.54 Q11.25,12.229 11.47,12.01 Q11.689,11.79 12,11.79 Q12.311,11.79 12.53,12.01 Q12.75,12.229 12.75,12.54 L12.75,21.61 Q12.75,21.921 12.53,22.14 Q12.311,22.36 12,22.36 Q11.689,22.36 11.47,22.14 Q11.25,21.921 11.25,21.61 Z"/>
  <path fill="#292D32" d="M1.641,9.17 Q1.641,6.216 4.227,4.784 L9.566,1.815 Q12.006,0.466 14.443,1.814 L19.785,4.785 Q22.371,6.216 22.371,9.17 L22.371,14.82 Q22.371,17.774 19.784,19.206 L14.445,22.176 Q12.006,23.524 9.568,22.177 L4.226,19.206 Q1.641,17.774 1.641,14.82 L1.641,14 Q1.641,13.689 1.86,13.47 Q2.08,13.25 2.391,13.25 Q2.701,13.25 2.921,13.47 Q3.141,13.689 3.141,14 L3.141,14.82 Q3.141,16.89 4.955,17.895 L10.293,20.864 Q12.006,21.81 13.716,20.865 L19.057,17.894 Q20.871,16.89 20.871,14.82 L20.871,9.17 Q20.871,7.1 19.056,6.096 L13.718,3.126 Q12.006,2.18 10.295,3.126 L4.954,6.096 Q3.141,7.1 3.141,9.17 Q3.141,9.481 2.921,9.7 Q2.701,9.92 2.391,9.92 Q2.08,9.92 1.86,9.7 Q1.641,9.481 1.641,9.17 Z"/>
  <path fill="#292D32" d="M16.25,13.24 L16.25,10.013 L10.554,6.719 L9.508,6.121 L7.134,4.749 Q6.865,4.594 6.785,4.294 Q6.705,3.994 6.86,3.725 Q7.016,3.456 7.316,3.376 Q7.616,3.295 7.885,3.451 L10.252,4.819 L11.305,5.421 L17.375,8.931 Q17.75,9.147 17.75,9.58 L17.75,13.24 Q17.75,13.551 17.53,13.77 Q17.31,13.99 17,13.99 Q16.689,13.99 16.469,13.77 Q16.25,13.551 16.25,13.24 Z"/>
</svg>

