<svg xmlns="http://www.w3.org/2000/svg" width="24" height="24" viewBox="0 0 24 24">
  <defs/>
  <path fill="#292D32" d="M17.601,5.311 L11.95,2.271 C11.351,1.951 10.64,1.951 10.04,2.271 L4.4,5.311 C3.99,5.541 3.73,5.981 3.73,6.461 C3.73,6.951 3.98,7.391 4.4,7.611 L10.05,10.651 C10.351,10.811 10.681,10.891 11.001,10.891 C11.32,10.891 11.661,10.811 11.95,10.651 L17.601,7.611 C18.011,7.391 18.27,6.951 18.27,6.461 C18.27,5.981 18.011,5.541 17.601,5.311 Z"/>
  <path fill="#292D32" d="M9.12,11.711 L3.87,9.091 C3.46,8.881 3,8.911 2.61,9.141 C2.23,9.381 2,9.791 2,10.241 L2,15.201 C2,16.061 2.48,16.831 3.25,17.221 L8.5,19.841 C8.68,19.931 8.88,19.981 9.08,19.981 C9.31,19.981 9.55,19.911 9.76,19.791 C10.14,19.551 10.37,19.141 10.37,18.691 L10.37,13.731 C10.36,12.871 9.88,12.101 9.12,11.711 Z"/>
  <path fill="#292D32" d="M20.001,10.241 L20.001,12.701 C19.521,12.561 19.011,12.501 18.501,12.501 C17.141,12.501 15.811,12.971 14.761,13.811 C13.321,14.941 12.501,16.651 12.501,18.501 C12.501,18.991 12.561,19.481 12.691,19.951 C12.541,19.931 12.391,19.871 12.251,19.781 C11.871,19.551 11.641,19.141 11.641,18.691 L11.641,13.731 C11.641,12.871 12.121,12.101 12.881,11.711 L18.131,9.091 C18.541,8.881 19.001,8.911 19.391,9.141 C19.771,9.381 20.001,9.791 20.001,10.241 Z"/>
  <path fill="#292D32" d="M21.98,15.65 C21.16,14.64 19.91,14 18.5,14 C17.44,14 16.46,14.37 15.69,14.99 C14.65,15.81 14,17.08 14,18.5 C14,19.91 14.64,21.16 15.65,21.98 C16.42,22.62 17.42,23 18.5,23 C19.64,23 20.67,22.57 21.47,21.88 C22.4,21.05 23,19.85 23,18.5 C23,17.42 22.62,16.42 21.98,15.65 Z M19.53,18.78 C19.53,19.04 19.39,19.29 19.17,19.42 L17.76,20.26 C17.64,20.33 17.51,20.37 17.37,20.37 C17.12,20.37 16.87,20.24 16.73,20.01 C16.52,19.65 16.63,19.19 16.99,18.98 L18.03,18.36 L18.03,17.1 C18.03,16.69 18.37,16.35 18.78,16.35 C19.19,16.35 19.53,16.69 19.53,17.1 L19.53,18.78 Z"/>
</svg>

