<svg xmlns="http://www.w3.org/2000/svg" width="24" height="24" viewBox="0 0 24 24">
  <defs/>
  <path fill="#292D32" d="M3.546,6.791 L12,11.683 L20.394,6.821 Q20.663,6.665 20.963,6.745 Q21.263,6.825 21.419,7.094 Q21.575,7.363 21.495,7.663 Q21.415,7.963 21.146,8.119 L12.376,13.199 Q12,13.417 11.624,13.199 L2.794,8.089 Q2.525,7.933 2.445,7.633 Q2.365,7.333 2.521,7.064 Q2.676,6.795 2.977,6.715 Q3.277,6.635 3.546,6.791 Z"/>
  <path fill="#292D32" d="M11.25,21.61 L11.25,12.54 Q11.25,12.229 11.47,12.01 Q11.689,11.79 12,11.79 Q12.311,11.79 12.53,12.01 Q12.75,12.229 12.75,12.54 L12.75,21.61 Q12.75,21.921 12.53,22.14 Q12.311,22.36 12,22.36 Q11.689,22.36 11.47,22.14 Q11.25,21.921 11.25,21.61 Z"/>
  <path fill="#292D32" d="M14.438,22.174 Q13.412,22.75 12.001,22.75 Q10.589,22.75 9.563,22.174 L4.227,19.216 Q1.641,17.784 1.641,14.83 Q1.641,14.519 1.86,14.3 Q2.08,14.08 2.391,14.08 Q2.701,14.08 2.921,14.3 Q3.141,14.519 3.141,14.83 Q3.141,16.9 4.954,17.904 L10.298,20.866 Q10.982,21.25 12.001,21.25 Q13.019,21.25 13.703,20.866 Q13.974,20.714 14.273,20.798 Q14.573,20.882 14.725,21.153 Q14.877,21.424 14.793,21.723 Q14.709,22.022 14.438,22.174 Z"/>
  <path fill="#292D32" d="M20.861,12.83 L20.861,9.17 Q20.861,7.1 19.047,6.096 L13.707,3.136 Q12.001,2.178 10.298,3.134 L4.954,6.096 Q3.141,7.1 3.141,9.17 Q3.141,9.481 2.921,9.7 Q2.701,9.92 2.391,9.92 Q2.08,9.92 1.86,9.7 Q1.641,9.481 1.641,9.17 Q1.641,6.216 4.227,4.784 L9.563,1.826 Q12.001,0.458 14.434,1.824 L19.774,4.784 Q22.361,6.216 22.361,9.17 L22.361,12.83 Q22.361,13.141 22.141,13.36 Q21.921,13.58 21.611,13.58 Q21.3,13.58 21.08,13.36 Q20.861,13.141 20.861,12.83 Z"/>
  <path fill="#292D32" d="M19.2,22.15 Q17.564,22.15 16.407,20.993 Q15.25,19.836 15.25,18.2 Q15.25,14.25 19.2,14.25 Q23.15,14.25 23.15,18.2 Q23.15,22.15 19.2,22.15 Z M19.2,20.65 Q20.215,20.65 20.932,19.932 Q21.65,19.215 21.65,18.2 Q21.65,15.75 19.2,15.75 Q16.75,15.75 16.75,18.2 Q16.75,19.215 17.468,19.932 Q18.185,20.65 19.2,20.65 Z"/>
  <path fill="#292D32" d="M22.47,22.53 L21.47,21.53 Q21.25,21.311 21.25,21 Q21.25,20.689 21.47,20.47 Q21.689,20.25 22,20.25 Q22.311,20.25 22.53,20.47 L23.53,21.47 Q23.75,21.689 23.75,22 Q23.75,22.311 23.53,22.53 Q23.311,22.75 23,22.75 Q22.689,22.75 22.47,22.53 Z"/>
</svg>

