<svg xmlns="http://www.w3.org/2000/svg" width="24" height="24" viewBox="0 0 24 24">
  <defs/>
  <path fill="#292D32" d="M3.546,6.791 L12,11.683 L20.394,6.821 Q20.663,6.665 20.963,6.745 Q21.263,6.825 21.419,7.094 Q21.575,7.363 21.495,7.663 Q21.415,7.963 21.146,8.119 L12.376,13.199 Q12,13.417 11.624,13.199 L2.794,8.089 Q2.525,7.933 2.445,7.633 Q2.365,7.333 2.521,7.064 Q2.677,6.795 2.977,6.715 Q3.277,6.635 3.546,6.791 Z"/>
  <path fill="#292D32" d="M11.25,21.61 L11.25,12.54 Q11.25,12.229 11.47,12.01 Q11.689,11.79 12,11.79 Q12.311,11.79 12.53,12.01 Q12.75,12.229 12.75,12.54 L12.75,21.61 Q12.75,21.921 12.53,22.14 Q12.311,22.36 12,22.36 Q11.689,22.36 11.47,22.14 Q11.25,21.921 11.25,21.61 Z"/>
  <path fill="#292D32" d="M22.36,9.17 L22.36,14.83 Q22.36,14.994 22.335,15.117 Q22.275,15.422 22.016,15.594 Q21.758,15.766 21.453,15.705 Q21.258,15.666 21.107,15.535 Q20.206,14.75 19,14.75 Q17.866,14.75 16.967,15.466 Q15.75,16.433 15.75,18 Q15.75,18.907 16.218,19.666 Q16.226,19.679 16.234,19.692 Q16.323,19.851 16.469,20.022 Q16.672,20.258 16.648,20.568 Q16.624,20.877 16.388,21.079 Q16.33,21.129 16.262,21.167 L14.432,22.177 Q12,23.542 9.563,22.174 L4.226,19.216 Q1.64,17.784 1.64,14.83 L1.64,9.17 Q1.64,6.216 4.227,4.784 L9.566,1.824 Q12,0.458 14.437,1.826 L19.774,4.784 Q22.36,6.216 22.36,9.17 Z M20.86,9.17 Q20.86,7.1 19.046,6.096 L13.703,3.134 Q12,2.178 10.294,3.136 L4.953,6.096 Q3.14,7.1 3.14,9.17 L3.14,14.83 Q3.14,16.9 4.954,17.904 L10.297,20.866 Q12,21.822 13.708,20.863 L14.822,20.248 Q14.25,19.211 14.25,18 Q14.25,15.708 16.033,14.294 Q17.342,13.25 19,13.25 Q20.001,13.25 20.86,13.62 Z"/>
  <path fill="#292D32" d="M23.75,18 Q23.75,20.143 22.135,21.563 Q20.776,22.75 19,22.75 Q17.032,22.75 15.641,21.359 Q14.25,19.968 14.25,18 Q14.25,15.708 16.034,14.292 Q17.342,13.25 19,13.25 Q20.968,13.25 22.359,14.641 Q23.75,16.032 23.75,18 Z M22.25,18 Q22.25,14.75 19,14.75 Q17.866,14.75 16.966,15.468 Q15.75,16.433 15.75,18 Q15.75,21.25 19,21.25 Q20.213,21.25 21.145,20.437 Q22.25,19.465 22.25,18 Z"/>
  <path fill="#292D32" d="M20,16.75 L20,18.25 Q20,18.675 19.636,18.893 L18.386,19.643 Q18.119,19.803 17.818,19.728 Q17.517,19.652 17.357,19.386 Q17.197,19.119 17.272,18.818 Q17.348,18.517 17.614,18.357 L18.5,17.825 L18.5,16.75 Q18.5,16.439 18.72,16.22 Q18.939,16 19.25,16 Q19.561,16 19.78,16.22 Q20,16.439 20,16.75 Z"/>
</svg>

