<svg xmlns="http://www.w3.org/2000/svg" width="24" height="24" viewBox="0 0 24 24">
  <defs/>
  <path fill="#292D32" d="M11.999,13.3 C11.869,13.3 11.739,13.27 11.619,13.2 L2.789,8.09 C2.429,7.88 2.309,7.42 2.519,7.06 C2.729,6.7 3.179,6.58 3.549,6.79 L11.999,11.68 L20.399,6.82 C20.759,6.61 21.219,6.74 21.429,7.09 C21.639,7.45 21.509,7.91 21.159,8.12 L12.389,13.2 C12.259,13.26 12.129,13.3 11.999,13.3 Z"/>
  <path fill="#292D32" d="M12,22.36 C11.59,22.36 11.25,22.02 11.25,21.61 L11.25,12.54 C11.25,12.13 11.59,11.79 12,11.79 C12.41,11.79 12.75,12.13 12.75,12.54 L12.75,21.61 C12.75,22.02 12.41,22.36 12,22.36 Z"/>
  <path fill="#292D32" d="M11.999,22.75 C11.089,22.75 10.219,22.54 9.559,22.17 L4.219,19.21 C2.769,18.41 1.629,16.48 1.629,14.82 L1.629,9.16 C1.629,7.5 2.769,5.58 4.219,4.77 L9.559,1.81 C10.919,1.05 13.059,1.05 14.429,1.81 L19.769,4.77 C21.219,5.57 22.359,7.5 22.359,9.16 L22.359,12.82 C22.359,13.23 22.019,13.57 21.609,13.57 C21.199,13.57 20.859,13.23 20.859,12.82 L20.859,9.16 C20.859,8.06 20.009,6.62 19.049,6.09 L13.709,3.13 C12.799,2.62 11.209,2.62 10.299,3.13 L4.959,6.09 C3.989,6.63 3.149,8.06 3.149,9.16 L3.149,14.82 C3.149,15.92 3.999,17.36 4.959,17.89 L10.299,20.85 C11.179,21.34 12.839,21.34 13.709,20.85 C14.069,20.65 14.529,20.78 14.729,21.14 C14.929,21.5 14.799,21.96 14.439,22.16 C13.779,22.54 12.909,22.75 11.999,22.75 Z"/>
  <path fill="#292D32" d="M19.2,22.15 C17.02,22.15 15.25,20.38 15.25,18.2 C15.25,16.02 17.02,14.25 19.2,14.25 C21.38,14.25 23.15,16.02 23.15,18.2 C23.15,20.38 21.38,22.15 19.2,22.15 Z M19.2,15.75 C17.85,15.75 16.75,16.85 16.75,18.2 C16.75,19.55 17.85,20.65 19.2,20.65 C20.55,20.65 21.65,19.55 21.65,18.2 C21.65,16.85 20.55,15.75 19.2,15.75 Z"/>
  <path fill="#292D32" d="M23,22.75 C22.809,22.75 22.619,22.68 22.47,22.53 L21.47,21.53 C21.18,21.24 21.18,20.76 21.47,20.47 C21.759,20.18 22.239,20.18 22.529,20.47 L23.529,21.47 C23.82,21.76 23.82,22.24 23.529,22.53 C23.38,22.68 23.189,22.75 23,22.75 Z"/>
</svg>

