<svg xmlns="http://www.w3.org/2000/svg" width="24" height="24" viewBox="0 0 24 24">
  <defs/>
  <path fill="#292D32" d="M21.679,15.32 C20.789,14.43 19.609,13.98 18.439,14 C17.309,14.01 16.179,14.46 15.319,15.32 C14.719,15.91 14.329,16.65 14.139,17.42 C14.029,17.84 13.989,18.27 14.019,18.7 L14.019,18.75 C14.019,18.82 14.029,18.88 14.039,18.96 C14.039,18.96 14.039,18.96 14.049,18.97 L14.049,19 C14.139,19.98 14.559,20.93 15.319,21.68 C16.479,22.84 18.109,23.23 19.579,22.86 C20.019,22.75 20.449,22.57 20.849,22.33 C21.149,22.16 21.429,21.94 21.679,21.68 C22.429,20.93 22.859,19.98 22.949,18.99 C22.959,18.99 22.959,18.97 22.959,18.96 C22.979,18.89 22.979,18.81 22.979,18.74 C22.979,18.73 22.989,18.71 22.989,18.69 C23.049,17.48 22.609,16.24 21.679,15.32 Z M20.229,20.21 C19.939,20.5 19.469,20.5 19.169,20.21 L18.509,19.55 L17.829,20.23 C17.529,20.53 17.059,20.53 16.769,20.23 C16.469,19.94 16.469,19.47 16.769,19.17 L17.449,18.49 L16.789,17.83 C16.499,17.53 16.499,17.06 16.789,16.77 C17.089,16.47 17.559,16.47 17.859,16.77 L18.509,17.43 L19.139,16.79 C19.439,16.5 19.909,16.5 20.209,16.79 C20.499,17.09 20.499,17.56 20.209,17.86 L19.569,18.49 L20.229,19.14 C20.529,19.44 20.529,19.91 20.229,20.21 Z"/>
  <path fill="#292D32" opacity="0.4" d="M19.35,5.66 L13.06,2.27 C12.4,1.91 11.6,1.91 10.93,2.27 L4.64,5.66 C4.18,5.91 3.9,6.4 3.9,6.94 C3.9,7.48 4.18,7.97 4.64,8.22 L10.93,11.61 C11.26,11.79 11.63,11.88 11.99,11.88 C12.35,11.88 12.72,11.79 13.05,11.61 L19.34,8.22 C19.8,7.97 20.08,7.48 20.08,6.94 C20.1,6.4 19.81,5.91 19.35,5.66 Z"/>
  <path fill="#292D32" opacity="0.4" d="M9.901,12.79 L4.051,9.86 C3.601,9.63 3.081,9.66 2.651,9.92 C2.221,10.18 1.971,10.64 1.971,11.14 L1.971,16.67 C1.971,17.63 2.501,18.49 3.361,18.92 L9.211,21.84 C9.411,21.94 9.631,21.99 9.851,21.99 C10.111,21.99 10.371,21.92 10.601,21.77 C11.031,21.51 11.281,21.05 11.281,20.55 L11.281,15.02 C11.291,14.08 10.761,13.22 9.901,12.79 Z"/>
  <path fill="#292D32" opacity="0.4" d="M22.031,11.15 L22.031,15.74 C22.021,15.73 22.011,15.71 22.001,15.7 C22.001,15.69 21.991,15.68 21.981,15.67 C21.941,15.61 21.891,15.55 21.841,15.5 C21.831,15.49 21.821,15.47 21.811,15.46 C21.001,14.56 19.811,14 18.501,14 C17.241,14 16.091,14.52 15.271,15.36 C14.481,16.17 14.001,17.28 14.001,18.5 C14.001,19.34 14.241,20.14 14.651,20.82 C14.821,21.11 15.031,21.37 15.261,21.61 L14.791,21.85 C14.591,21.95 14.371,22 14.151,22 C13.891,22 13.631,21.93 13.391,21.78 C12.971,21.52 12.711,21.06 12.711,20.56 L12.711,15.04 C12.711,14.08 13.241,13.22 14.101,12.79 L19.951,9.87 C20.401,9.64 20.921,9.66 21.351,9.93 C21.771,10.19 22.031,10.65 22.031,11.15 Z"/>
</svg>

