<svg xmlns="http://www.w3.org/2000/svg" width="24" height="24" viewBox="0 0 24 24">
  <defs/>
  <path fill="#292D32" d="M20.098,6.94 C20.098,7.48 19.808,7.97 19.348,8.22 L17.608,9.16 L16.128,9.95 L13.058,11.61 C12.728,11.79 12.368,11.88 11.998,11.88 C11.628,11.88 11.268,11.79 10.938,11.61 L4.648,8.22 C4.188,7.97 3.898,7.48 3.898,6.94 C3.898,6.4 4.188,5.91 4.648,5.66 L6.618,4.6 L8.188,3.75 L10.938,2.27 C11.598,1.91 12.398,1.91 13.058,2.27 L19.348,5.66 C19.808,5.91 20.098,6.4 20.098,6.94 Z"/>
  <path fill="#292D32" d="M9.899,12.79 L4.049,9.87 C3.599,9.64 3.079,9.67 2.649,9.93 C2.219,10.19 1.969,10.65 1.969,11.15 L1.969,16.68 C1.969,17.64 2.499,18.5 3.359,18.93 L9.209,21.85 C9.409,21.95 9.629,22 9.849,22 C10.109,22 10.369,21.93 10.599,21.78 C11.029,21.52 11.279,21.06 11.279,20.56 L11.279,15.03 C11.289,14.08 10.759,13.22 9.899,12.79 Z"/>
  <path fill="#292D32" d="M22.031,11.15 L22.031,16.68 C22.031,17.63 21.501,18.49 20.641,18.92 L14.791,21.85 C14.591,21.95 14.371,22 14.151,22 C13.891,22 13.631,21.93 13.391,21.78 C12.971,21.52 12.711,21.06 12.711,20.56 L12.711,15.04 C12.711,14.08 13.241,13.22 14.101,12.79 L16.251,11.72 L17.751,10.97 L19.951,9.87 C20.401,9.64 20.921,9.66 21.351,9.93 C21.771,10.19 22.031,10.65 22.031,11.15 Z"/>
  <path fill="#292D32" d="M17.611,9.16 L16.131,9.95 L6.621,4.6 L8.191,3.75 L17.371,8.93 C17.471,8.99 17.551,9.07 17.611,9.16 Z"/>
  <path fill="#292D32" d="M17.75,10.969 L17.75,13.239 C17.75,13.649 17.41,13.989 17,13.989 C16.59,13.989 16.25,13.649 16.25,13.239 L16.25,11.719 L17.75,10.969 Z"/>
</svg>

