<svg xmlns="http://www.w3.org/2000/svg" width="24" height="24" viewBox="0 0 24 24">
  <defs/>
  <path fill="#292D32" d="M19,22.75 C17.6,22.75 16.29,22.14 15.39,21.07 C15.38,21.05 15.32,21 15.27,20.92 C15.16,20.81 15.03,20.61 14.92,20.42 C14.48,19.71 14.24,18.87 14.24,17.99 C14.24,16.53 14.89,15.18 16.02,14.28 C16.86,13.61 17.92,13.24 18.99,13.24 C20.15,13.24 21.22,13.64 22.08,14.39 C22.2,14.47 22.34,14.62 22.47,14.76 C23.28,15.65 23.73,16.79 23.73,17.98 C23.73,18.85 23.49,19.7 23.04,20.43 C22.8,20.85 22.47,21.23 22.09,21.55 C21.28,22.33 20.17,22.75 19,22.75 Z M19,14.75 C18.26,14.75 17.56,15 16.97,15.47 C16.2,16.08 15.75,17.01 15.75,18 C15.75,18.59 15.91,19.17 16.22,19.67 C16.3,19.81 16.38,19.92 16.47,20.03 C16.49,20.05 16.55,20.11 16.6,20.19 C17.15,20.84 18.05,21.26 19,21.26 C19.79,21.26 20.55,20.97 21.13,20.45 C21.39,20.23 21.61,19.97 21.77,19.69 C22.09,19.18 22.25,18.6 22.25,18.01 C22.25,17.2 21.94,16.41 21.38,15.8 C21.31,15.72 21.23,15.64 21.15,15.58 C20.52,15.02 19.79,14.75 19,14.75 Z"/>
  <path fill="#292D32" d="M20.49,18.73 L17.5,18.73 C17.09,18.73 16.75,18.39 16.75,17.98 C16.75,17.57 17.09,17.23 17.5,17.23 L20.49,17.23 C20.9,17.23 21.24,17.57 21.24,17.98 C21.24,18.39 20.91,18.73 20.49,18.73 Z"/>
  <path fill="#292D32" d="M19,20.26 C18.59,20.26 18.25,19.92 18.25,19.51 L18.25,16.52 C18.25,16.11 18.59,15.77 19,15.77 C19.41,15.77 19.75,16.11 19.75,16.52 L19.75,19.51 C19.75,19.93 19.41,20.26 19,20.26 Z"/>
  <path fill="#292D32" d="M11.999,13.3 C11.869,13.3 11.739,13.27 11.619,13.2 L2.789,8.09 C2.429,7.88 2.309,7.42 2.519,7.06 C2.729,6.7 3.189,6.58 3.539,6.79 L11.989,11.68 L20.389,6.82 C20.749,6.61 21.209,6.74 21.409,7.09 C21.619,7.45 21.489,7.91 21.139,8.12 L12.369,13.2 C12.259,13.26 12.129,13.3 11.999,13.3 Z"/>
  <path fill="#292D32" d="M12,22.36 C11.59,22.36 11.25,22.02 11.25,21.61 L11.25,12.54 C11.25,12.13 11.59,11.79 12,11.79 C12.41,11.79 12.75,12.13 12.75,12.54 L12.75,21.61 C12.75,22.02 12.41,22.36 12,22.36 Z"/>
  <path fill="#292D32" d="M11.999,22.75 C11.119,22.75 10.239,22.56 9.559,22.17 L4.219,19.21 C2.769,18.41 1.629,16.48 1.629,14.82 L1.629,9.16 C1.629,7.5 2.769,5.58 4.219,4.77 L9.559,1.81 C10.919,1.04 13.059,1.04 14.429,1.81 L19.769,4.77 C21.219,5.57 22.359,7.5 22.359,9.16 L22.359,14.82 C22.359,14.92 22.359,15 22.339,15.1 C22.289,15.36 22.099,15.58 21.849,15.66 C21.599,15.75 21.319,15.69 21.109,15.52 C19.959,14.52 18.179,14.48 16.969,15.45 C16.199,16.06 15.749,16.99 15.749,17.98 C15.749,18.57 15.909,19.15 16.219,19.65 C16.299,19.79 16.379,19.9 16.469,20.01 C16.619,20.18 16.679,20.41 16.639,20.63 C16.599,20.85 16.459,21.04 16.259,21.15 L14.429,22.16 C13.749,22.56 12.879,22.75 11.999,22.75 Z M11.999,2.75 C11.379,2.75 10.749,2.88 10.299,3.13 L4.959,6.09 C3.989,6.62 3.149,8.06 3.149,9.16 L3.149,14.82 C3.149,15.92 3.999,17.36 4.959,17.89 L10.299,20.85 C11.209,21.36 12.799,21.36 13.709,20.85 L14.829,20.23 C14.459,19.56 14.259,18.78 14.259,17.98 C14.259,16.52 14.909,15.17 16.039,14.27 C17.399,13.18 19.349,12.95 20.869,13.6 L20.869,9.14 C20.869,8.04 20.019,6.6 19.059,6.07 L13.719,3.11 C13.249,2.88 12.619,2.75 11.999,2.75 Z"/>
</svg>

