<svg xmlns="http://www.w3.org/2000/svg" width="24" height="24" viewBox="0 0 24 24">
  <defs/>
  <path fill="#292D32" d="M20.208,7.821 L12.508,12.281 C12.198,12.461 11.808,12.461 11.488,12.281 L3.788,7.821 C3.238,7.501 3.098,6.751 3.518,6.281 C3.808,5.951 4.138,5.681 4.488,5.491 L9.908,2.491 C11.068,1.841 12.948,1.841 14.108,2.491 L19.528,5.491 C19.878,5.681 20.208,5.961 20.498,6.281 C20.898,6.751 20.758,7.501 20.208,7.821 Z"/>
  <path fill="#292D32" d="M11.431,14.139 L11.431,20.959 C11.431,21.719 10.661,22.219 9.98,21.889 C7.92,20.879 4.45,18.989 4.45,18.989 C3.23,18.299 2.23,16.559 2.23,15.129 L2.23,9.969 C2.23,9.179 3.06,8.679 3.74,9.069 L10.931,13.239 C11.23,13.429 11.431,13.769 11.431,14.139 Z"/>
  <path fill="#292D32" d="M12.57,14.139 L12.57,20.959 C12.57,21.719 13.34,22.219 14.02,21.889 C16.08,20.879 19.55,18.989 19.55,18.989 C20.77,18.299 21.77,16.559 21.77,15.129 L21.77,9.969 C21.77,9.179 20.94,8.679 20.26,9.069 L13.07,13.239 C12.77,13.429 12.57,13.769 12.57,14.139 Z"/>
</svg>

