<svg xmlns="http://www.w3.org/2000/svg" width="24" height="24" viewBox="0 0 24 24">
  <defs/>
  <path fill="#292D32" opacity="0.4" d="M19.35,5.66 L13.06,2.27 C12.4,1.91 11.6,1.91 10.93,2.27 L4.64,5.66 C4.18,5.91 3.9,6.4 3.9,6.94 C3.9,7.48 4.18,7.97 4.64,8.22 L10.93,11.61 C11.26,11.79 11.63,11.88 11.99,11.88 C12.36,11.88 12.72,11.79 13.05,11.61 L19.34,8.22 C19.8,7.97 20.08,7.48 20.08,6.94 C20.09,6.4 19.81,5.91 19.35,5.66 Z"/>
  <path fill="#292D32" opacity="0.4" d="M9.901,12.79 L4.051,9.86 C3.601,9.63 3.081,9.66 2.651,9.92 C2.221,10.18 1.971,10.64 1.971,11.14 L1.971,16.67 C1.971,17.63 2.501,18.49 3.361,18.92 L9.211,21.84 C9.411,21.94 9.631,21.99 9.851,21.99 C10.111,21.99 10.371,21.92 10.601,21.77 C11.031,21.51 11.281,21.05 11.281,20.55 L11.281,15.02 C11.291,14.08 10.761,13.22 9.901,12.79 Z"/>
  <path fill="#292D32" opacity="0.4" d="M22.031,11.15 L22.031,15.74 C22.021,15.73 22.011,15.71 22.001,15.7 C22.001,15.69 21.991,15.68 21.981,15.67 C21.941,15.61 21.891,15.55 21.841,15.5 C21.831,15.49 21.821,15.47 21.811,15.46 C21.001,14.56 19.811,14 18.501,14 C17.241,14 16.091,14.52 15.271,15.36 C14.481,16.17 14.001,17.28 14.001,18.5 C14.001,19.34 14.241,20.14 14.651,20.82 C14.821,21.11 15.031,21.37 15.261,21.61 L14.791,21.85 C14.591,21.95 14.371,22 14.151,22 C13.891,22 13.631,21.93 13.391,21.78 C12.971,21.52 12.711,21.06 12.711,20.56 L12.711,15.04 C12.711,14.08 13.241,13.22 14.101,12.79 L19.951,9.87 C20.401,9.64 20.921,9.66 21.351,9.93 C21.771,10.19 22.031,10.65 22.031,11.15 Z"/>
  <path fill="#292D32" d="M21.98,15.65 C21.16,14.64 19.91,14 18.5,14 C17.44,14 16.46,14.37 15.69,14.99 C14.65,15.81 14,17.08 14,18.5 C14,19.91 14.64,21.16 15.65,21.98 C16.42,22.62 17.42,23 18.5,23 C19.64,23 20.67,22.57 21.47,21.88 C22.4,21.05 23,19.85 23,18.5 C23,17.42 22.62,16.42 21.98,15.65 Z M19.53,18.78 C19.53,19.04 19.39,19.29 19.17,19.42 L17.76,20.26 C17.64,20.33 17.51,20.37 17.37,20.37 C17.12,20.37 16.87,20.24 16.73,20.01 C16.52,19.65 16.63,19.19 16.99,18.98 L18.03,18.36 L18.03,17.1 C18.03,16.69 18.37,16.35 18.78,16.35 C19.19,16.35 19.53,16.69 19.53,17.1 L19.53,18.78 Z"/>
</svg>

