<svg xmlns="http://www.w3.org/2000/svg" width="24" height="24" viewBox="0 0 24 24">
  <defs/>
  <path fill="#292D32" d="M3.546,6.791 L12,11.683 L20.394,6.821 Q20.663,6.665 20.963,6.745 Q21.263,6.825 21.419,7.094 Q21.575,7.363 21.495,7.663 Q21.415,7.963 21.146,8.119 L12.376,13.199 Q12,13.417 11.624,13.199 L2.794,8.089 Q2.525,7.933 2.445,7.633 Q2.365,7.333 2.521,7.064 Q2.677,6.795 2.977,6.715 Q3.277,6.635 3.546,6.791 Z"/>
  <path fill="#292D32" d="M11.25,21.61 L11.25,12.54 Q11.25,12.229 11.47,12.01 Q11.689,11.79 12,11.79 Q12.311,11.79 12.53,12.01 Q12.75,12.229 12.75,12.54 L12.75,21.61 Q12.75,21.921 12.53,22.14 Q12.311,22.36 12,22.36 Q11.689,22.36 11.47,22.14 Q11.25,21.921 11.25,21.61 Z"/>
  <path fill="#292D32" d="M9.563,1.826 Q9.564,1.825 9.565,1.825 Q11.996,0.462 14.445,1.825 L19.783,4.794 Q22.37,6.226 22.37,9.18 L22.37,14.83 Q22.37,17.784 19.785,19.215 L14.443,22.186 Q12.005,23.534 9.565,22.185 L4.227,19.216 Q1.64,17.784 1.64,14.83 L1.64,9.18 Q1.64,6.226 4.225,4.795 Z M10.295,3.135 L4.955,6.105 Q3.14,7.11 3.14,9.18 L3.14,14.83 Q3.14,16.9 4.953,17.904 L10.295,20.875 Q12.005,21.82 13.717,20.874 L19.055,17.905 Q20.87,16.9 20.87,14.83 L20.87,9.18 Q20.87,7.11 19.057,6.106 L13.715,3.135 Q11.998,2.179 10.297,3.134 Z"/>
  <path fill="#292D32" d="M16.25,13.24 L16.25,10.013 L7.135,4.749 Q6.866,4.594 6.786,4.294 Q6.705,3.994 6.861,3.725 Q7.016,3.456 7.316,3.376 Q7.616,3.295 7.885,3.45 L17.375,8.931 Q17.75,9.147 17.75,9.58 L17.75,13.24 Q17.75,13.551 17.53,13.77 Q17.311,13.99 17,13.99 Q16.689,13.99 16.47,13.77 Q16.25,13.551 16.25,13.24 Z"/>
</svg>

