<svg xmlns="http://www.w3.org/2000/svg" width="24" height="24" viewBox="0 0 24 24">
  <defs/>
  <path fill="#292D32" d="M11.999,13.3 C11.869,13.3 11.739,13.27 11.619,13.2 L2.789,8.09 C2.439,7.88 2.309,7.42 2.519,7.06 C2.729,6.7 3.189,6.58 3.549,6.79 L11.999,11.68 L20.399,6.82 C20.759,6.61 21.219,6.74 21.429,7.09 C21.639,7.45 21.509,7.91 21.159,8.12 L12.389,13.2 C12.259,13.26 12.129,13.3 11.999,13.3 Z"/>
  <path fill="#292D32" d="M12,22.36 C11.59,22.36 11.25,22.02 11.25,21.61 L11.25,12.54 C11.25,12.13 11.59,11.79 12,11.79 C12.41,11.79 12.75,12.13 12.75,12.54 L12.75,21.61 C12.75,22.02 12.41,22.36 12,22.36 Z"/>
  <path fill="#292D32" d="M12.001,22.75 C11.121,22.75 10.251,22.56 9.561,22.18 L4.221,19.21 C2.771,18.41 1.641,16.48 1.641,14.82 L1.641,9.17 C1.641,7.51 2.771,5.59 4.221,4.78 L9.561,1.82 C10.931,1.06 13.071,1.06 14.441,1.82 L19.781,4.79 C21.231,5.59 22.361,7.52 22.361,9.18 L22.361,14.83 C22.361,16.49 21.231,18.41 19.781,19.22 L14.441,22.18 C13.751,22.56 12.881,22.75 12.001,22.75 Z M12.001,2.75 C11.371,2.75 10.751,2.88 10.291,3.13 L4.951,6.1 C3.991,6.63 3.141,8.07 3.141,9.17 L3.141,14.82 C3.141,15.92 3.991,17.36 4.951,17.9 L10.291,20.87 C11.201,21.38 12.801,21.38 13.711,20.87 L19.051,17.9 C20.011,17.36 20.861,15.93 20.861,14.82 L20.861,9.17 C20.861,8.07 20.011,6.63 19.051,6.09 L13.711,3.12 C13.251,2.88 12.631,2.75 12.001,2.75 Z"/>
</svg>

