<svg xmlns="http://www.w3.org/2000/svg" width="24" height="24" viewBox="0 0 24 24">
  <defs/>
  <path fill="#292D32" d="M23.75,17.89 L23.75,17.893 Q23.784,19.207 23.111,20.353 Q22.754,20.991 22.192,21.498 Q20.899,22.696 19.102,22.75 Q16.39,22.806 14.982,20.524 Q14.268,19.416 14.25,18.09 Q14.196,15.816 15.95,14.354 Q17.247,13.285 18.894,13.25 Q20.861,13.206 22.283,14.565 Q23.704,15.924 23.75,17.89 Z M22.25,17.927 Q22.177,14.676 18.926,14.75 Q17.799,14.774 16.91,15.506 Q15.713,16.504 15.75,18.07 Q15.762,18.965 16.258,19.736 Q17.216,21.288 19.058,21.25 Q20.292,21.214 21.188,20.383 Q21.568,20.04 21.804,19.616 Q21.809,19.607 21.814,19.599 Q22.274,18.82 22.25,17.93 Z"/>
  <path fill="#292D32" d="M17.957,17.486 L18.446,17.951 L20.019,16.431 Q20.242,16.215 20.553,16.22 Q20.863,16.225 21.079,16.449 Q21.295,16.672 21.29,16.983 Q21.285,17.293 21.061,17.509 L18.971,19.529 Q18.755,19.739 18.453,19.74 Q18.152,19.741 17.933,19.534 L16.923,18.574 Q16.698,18.36 16.69,18.049 Q16.682,17.738 16.896,17.513 Q17.11,17.288 17.421,17.28 Q17.732,17.272 17.957,17.486 Z"/>
  <path fill="#292D32" d="M3.546,6.791 L12,11.683 L20.394,6.821 Q20.663,6.665 20.963,6.745 Q21.263,6.825 21.419,7.094 Q21.575,7.363 21.495,7.663 Q21.415,7.963 21.146,8.119 L12.376,13.199 Q12,13.417 11.624,13.199 L2.794,8.089 Q2.525,7.933 2.445,7.633 Q2.365,7.333 2.521,7.064 Q2.677,6.795 2.977,6.715 Q3.277,6.635 3.546,6.791 Z"/>
  <path fill="#292D32" d="M11.25,21.61 L11.25,12.54 Q11.25,12.229 11.47,12.01 Q11.689,11.79 12,11.79 Q12.311,11.79 12.53,12.01 Q12.75,12.229 12.75,12.54 L12.75,21.61 Q12.75,21.921 12.53,22.14 Q12.311,22.36 12,22.36 Q11.689,22.36 11.47,22.14 Q11.25,21.921 11.25,21.61 Z"/>
  <path fill="#292D32" d="M22.36,9.17 L22.36,14.83 Q22.36,14.994 22.335,15.117 Q22.275,15.422 22.016,15.594 Q21.758,15.766 21.453,15.705 Q21.258,15.666 21.107,15.535 Q20.206,14.75 19,14.75 Q17.866,14.75 16.967,15.466 Q15.75,16.433 15.75,18 Q15.75,18.907 16.218,19.666 Q16.226,19.679 16.234,19.692 Q16.323,19.851 16.469,20.022 Q16.672,20.258 16.648,20.568 Q16.624,20.877 16.388,21.079 Q16.33,21.129 16.262,21.167 L14.432,22.177 Q12,23.542 9.563,22.174 L4.226,19.216 Q1.64,17.784 1.64,14.83 L1.64,9.17 Q1.64,6.216 4.227,4.784 L9.566,1.824 Q12,0.458 14.437,1.826 L19.774,4.784 Q22.36,6.216 22.36,9.17 Z M20.86,9.17 Q20.86,7.1 19.046,6.096 L13.703,3.134 Q12,2.178 10.294,3.136 L4.953,6.096 Q3.14,7.1 3.14,9.17 L3.14,14.83 Q3.14,16.9 4.954,17.904 L10.297,20.866 Q12,21.822 13.708,20.863 L14.822,20.248 Q14.25,19.211 14.25,18 Q14.25,15.708 16.033,14.294 Q17.342,13.25 19,13.25 Q20.001,13.25 20.86,13.62 Z"/>
</svg>

