<svg xmlns="http://www.w3.org/2000/svg" width="24" height="24" viewBox="0 0 24 24">
  <defs/>
  <path fill="#292D32" d="M3.546,6.791 L12,11.683 L20.394,6.821 Q20.663,6.665 20.963,6.745 Q21.263,6.825 21.419,7.094 Q21.575,7.363 21.495,7.663 Q21.415,7.963 21.146,8.119 L12.376,13.199 Q12,13.417 11.624,13.199 L2.794,8.089 Q2.525,7.933 2.445,7.633 Q2.365,7.333 2.521,7.064 Q2.676,6.795 2.977,6.715 Q3.277,6.635 3.546,6.791 Z"/>
  <path fill="#292D32" d="M11.25,21.61 L11.25,12.54 Q11.25,12.229 11.47,12.01 Q11.689,11.79 12,11.79 Q12.311,11.79 12.53,12.01 Q12.75,12.229 12.75,12.54 L12.75,21.61 Q12.75,21.921 12.53,22.14 Q12.311,22.36 12,22.36 Q11.689,22.36 11.47,22.14 Q11.25,21.921 11.25,21.61 Z"/>
  <path fill="#292D32" d="M1.641,14.83 L1.641,9.17 Q1.641,6.216 4.227,4.784 L9.567,1.824 Q12.001,0.458 14.438,1.826 L19.774,4.784 Q22.361,6.216 22.361,9.17 L22.361,14.83 Q22.361,14.994 22.336,15.117 Q22.275,15.422 22.017,15.594 Q21.758,15.766 21.454,15.705 Q21.258,15.666 21.108,15.535 Q20.207,14.75 19.001,14.75 Q17.867,14.75 16.968,15.466 Q15.751,16.433 15.751,18 Q15.751,18.907 16.219,19.666 Q16.227,19.679 16.234,19.692 Q16.324,19.851 16.47,20.022 Q16.672,20.258 16.648,20.568 Q16.625,20.877 16.389,21.079 Q16.33,21.129 16.263,21.167 L14.433,22.177 Q12.001,23.542 9.563,22.174 L4.227,19.216 Q3.955,19.065 3.87,18.767 Q3.784,18.468 3.935,18.196 Q4.085,17.925 4.384,17.839 Q4.683,17.753 4.954,17.904 L10.298,20.866 Q12.001,21.822 13.708,20.863 L14.822,20.248 Q14.251,19.211 14.251,18 Q14.251,15.708 16.033,14.294 Q17.342,13.25 19.001,13.25 Q20.002,13.25 20.861,13.62 L20.861,9.17 Q20.861,7.1 19.047,6.096 L13.703,3.134 Q12.001,2.178 10.294,3.136 L4.954,6.096 Q3.141,7.1 3.141,9.17 L3.141,14.83 Q3.141,15.141 2.921,15.36 Q2.701,15.58 2.391,15.58 Q2.08,15.58 1.86,15.36 Q1.641,15.141 1.641,14.83 Z"/>
  <path fill="#292D32" d="M23.75,18 Q23.75,19.328 23.063,20.446 Q22.685,21.091 22.122,21.566 Q20.8,22.75 19,22.75 Q16.307,22.75 14.935,20.443 Q14.25,19.332 14.25,18 Q14.25,15.708 16.034,14.292 Q17.342,13.25 19,13.25 Q20.968,13.25 22.359,14.641 Q23.75,16.032 23.75,18 Z M22.25,18 Q22.25,14.75 19,14.75 Q17.866,14.75 16.966,15.468 Q15.75,16.433 15.75,18 Q15.75,18.907 16.225,19.677 Q17.16,21.25 19,21.25 Q20.231,21.25 21.128,20.443 Q21.138,20.434 21.148,20.425 Q21.521,20.112 21.772,19.682 Q21.777,19.674 21.782,19.666 Q22.25,18.907 22.25,18 Z"/>
  <path fill="#292D32" d="M19.54,19.571 L17.42,17.461 Q17.2,17.242 17.199,16.932 Q17.198,16.621 17.418,16.401 Q17.637,16.181 17.947,16.18 Q18.258,16.179 18.478,16.398 L20.598,18.508 Q20.818,18.727 20.819,19.038 Q20.82,19.349 20.601,19.569 Q20.382,19.789 20.071,19.79 Q19.76,19.791 19.54,19.571 Z"/>
  <path fill="#292D32" d="M20.579,17.492 L18.459,19.601 Q18.239,19.821 17.928,19.82 Q17.617,19.819 17.398,19.599 Q17.179,19.379 17.18,19.068 Q17.18,18.757 17.401,18.538 L19.521,16.428 Q19.741,16.209 20.051,16.21 Q20.362,16.211 20.581,16.431 Q20.8,16.651 20.8,16.962 Q20.799,17.272 20.579,17.492 Z"/>
</svg>

