<svg xmlns="http://www.w3.org/2000/svg" width="24" height="24" viewBox="0 0 24 24">
  <defs/>
  <path fill="#292D32" d="M5.329,19.421 C5.219,19.421 5.099,19.391 4.999,19.341 L2.779,18.231 C2.529,18.101 2.369,17.841 2.369,17.561 L2.369,14.781 C2.369,14.371 2.709,14.031 3.119,14.031 C3.529,14.031 3.869,14.371 3.869,14.781 L3.869,17.091 L5.669,18.001 C6.039,18.181 6.189,18.631 5.999,19.001 C5.869,19.261 5.609,19.421 5.329,19.421 Z"/>
  <path fill="#292D32" d="M11.999,22.749 C11.94,22.749 11.88,22.739 11.829,22.729 C11.77,22.719 11.71,22.689 11.649,22.659 L9.439,21.559 C9.069,21.369 8.919,20.919 9.099,20.549 C9.289,20.179 9.739,20.029 10.11,20.209 L11.249,20.779 L11.249,19.219 C11.249,18.809 11.589,18.469 11.999,18.469 C12.409,18.469 12.749,18.809 12.749,19.219 L12.749,20.779 L13.889,20.209 C14.259,20.029 14.71,20.179 14.899,20.549 C15.089,20.919 14.94,21.369 14.559,21.559 L12.35,22.659 C12.29,22.689 12.229,22.709 12.169,22.729 C12.11,22.739 12.059,22.749 11.999,22.749 Z"/>
  <path fill="#292D32" d="M18.67,19.419 C18.4,19.419 18.13,19.269 18,19.009 C17.81,18.639 17.96,18.189 18.34,17.999 L20.15,17.099 L20.15,14.789 C20.15,14.379 20.49,14.039 20.9,14.039 C21.31,14.039 21.65,14.379 21.65,14.789 L21.65,17.569 C21.65,17.849 21.49,18.109 21.24,18.239 L19,19.339 C18.89,19.389 18.78,19.419 18.67,19.419 Z"/>
  <path fill="#292D32" d="M11.999,14.419 C11.589,14.419 11.249,14.079 11.249,13.669 L11.249,11.359 L9.439,10.459 C9.069,10.269 8.919,9.819 9.099,9.449 C9.289,9.079 9.739,8.929 10.11,9.109 L11.999,10.049 L13.889,9.109 C14.259,8.929 14.71,9.069 14.899,9.449 C15.089,9.819 14.94,10.269 14.559,10.459 L12.749,11.359 L12.749,13.669 C12.749,14.079 12.409,14.419 11.999,14.419 Z"/>
  <path fill="#292D32" d="M3.109,9.968 C2.699,9.968 2.359,9.628 2.359,9.218 L2.359,6.458 L2.359,6.448 C2.359,6.388 2.369,6.328 2.379,6.278 C2.399,6.188 2.429,6.118 2.469,6.048 C2.499,5.998 2.539,5.958 2.579,5.918 C2.619,5.878 2.669,5.838 2.719,5.808 C2.739,5.798 2.769,5.778 2.789,5.768 L4.999,4.658 C5.369,4.478 5.819,4.628 5.999,4.998 C6.189,5.368 6.039,5.818 5.669,5.998 L4.789,6.438 L5.669,6.878 C6.039,7.068 6.189,7.518 5.999,7.888 C5.819,8.258 5.369,8.408 4.999,8.228 L3.859,7.658 L3.859,9.218 C3.859,9.638 3.529,9.968 3.109,9.968 Z"/>
  <path fill="#292D32" d="M14.22,3.859 C14.11,3.859 13.99,3.829 13.89,3.779 L12,2.839 L10.11,3.779 C9.74,3.969 9.29,3.819 9.11,3.449 C8.92,3.079 9.07,2.629 9.44,2.439 L11.66,1.329 C11.87,1.219 12.12,1.219 12.33,1.329 L14.55,2.439 C14.92,2.629 15.07,3.079 14.89,3.449 C14.76,3.709 14.5,3.859 14.22,3.859 Z"/>
  <path fill="#292D32" d="M20.89,9.968 C20.48,9.968 20.14,9.628 20.14,9.218 L20.14,7.658 L19,8.228 C18.63,8.408 18.18,8.258 18,7.888 C17.81,7.518 17.96,7.068 18.34,6.878 L19.22,6.438 L18.33,5.998 C17.96,5.818 17.81,5.368 18,4.998 C18.19,4.628 18.63,4.478 19,4.658 L21.21,5.758 C21.23,5.768 21.26,5.778 21.28,5.798 C21.34,5.828 21.39,5.878 21.44,5.928 C21.47,5.968 21.5,6.008 21.53,6.048 C21.57,6.118 21.6,6.188 21.62,6.268 C21.63,6.328 21.64,6.388 21.64,6.438 L21.64,6.448 L21.64,9.208 C21.64,9.638 21.3,9.968 20.89,9.968 Z"/>
</svg>

