<svg xmlns="http://www.w3.org/2000/svg" width="24" height="24" viewBox="0 0 24 24">
  <defs/>
  <path fill="#292D32" d="M19.001,22.75 C17.381,22.75 15.851,21.91 14.991,20.53 C14.531,19.82 14.271,18.97 14.251,18.1 C14.221,16.64 14.841,15.28 15.951,14.36 C16.781,13.67 17.821,13.28 18.891,13.25 C20.191,13.24 21.361,13.69 22.281,14.57 C23.201,15.45 23.721,16.63 23.741,17.9 C23.761,18.77 23.541,19.62 23.101,20.37 C22.861,20.79 22.551,21.18 22.181,21.51 C21.361,22.28 20.261,22.73 19.091,22.75 C19.071,22.75 19.041,22.75 19.001,22.75 Z M19.001,14.75 C18.981,14.75 18.951,14.75 18.931,14.75 C18.191,14.77 17.491,15.03 16.911,15.51 C16.151,16.14 15.731,17.07 15.751,18.07 C15.761,18.66 15.941,19.24 16.251,19.73 C16.861,20.71 17.921,21.31 19.061,21.25 C19.851,21.23 20.601,20.93 21.171,20.4 C21.431,20.17 21.641,19.91 21.801,19.63 C22.101,19.11 22.251,18.53 22.241,17.94 C22.221,17.07 21.871,16.26 21.241,15.66 C20.641,15.07 19.841,14.75 19.001,14.75 Z"/>
  <path fill="#292D32" d="M18.449,19.75 C18.259,19.75 18.079,19.68 17.929,19.54 L16.919,18.58 C16.619,18.29 16.609,17.82 16.899,17.52 C17.189,17.22 17.659,17.21 17.959,17.5 L18.449,17.97 L20.019,16.45 C20.319,16.16 20.789,16.17 21.079,16.47 C21.369,16.77 21.359,17.24 21.059,17.53 L18.969,19.55 C18.819,19.68 18.629,19.75 18.449,19.75 Z"/>
  <path fill="#292D32" d="M11.999,13.3 C11.869,13.3 11.739,13.27 11.619,13.2 L2.789,8.09 C2.429,7.88 2.309,7.42 2.519,7.06 C2.729,6.7 3.189,6.58 3.539,6.79 L11.989,11.68 L20.389,6.82 C20.749,6.61 21.209,6.74 21.409,7.09 C21.619,7.45 21.489,7.91 21.139,8.12 L12.369,13.2 C12.259,13.26 12.129,13.3 11.999,13.3 Z"/>
  <path fill="#292D32" d="M12,22.36 C11.59,22.36 11.25,22.02 11.25,21.61 L11.25,12.54 C11.25,12.13 11.59,11.79 12,11.79 C12.41,11.79 12.75,12.13 12.75,12.54 L12.75,21.61 C12.75,22.02 12.41,22.36 12,22.36 Z"/>
  <path fill="#292D32" d="M11.999,22.75 C11.119,22.75 10.239,22.56 9.559,22.17 L4.219,19.21 C2.769,18.41 1.629,16.48 1.629,14.82 L1.629,9.16 C1.629,7.5 2.769,5.58 4.219,4.77 L9.559,1.81 C10.919,1.04 13.059,1.04 14.429,1.81 L19.769,4.77 C21.219,5.57 22.359,7.5 22.359,9.16 L22.359,14.82 C22.359,14.92 22.359,15 22.339,15.1 C22.289,15.36 22.099,15.58 21.849,15.66 C21.599,15.75 21.319,15.69 21.109,15.52 C19.959,14.52 18.179,14.48 16.969,15.45 C16.199,16.06 15.749,16.99 15.749,17.98 C15.749,18.57 15.909,19.15 16.219,19.65 C16.299,19.79 16.379,19.9 16.469,20.01 C16.619,20.18 16.679,20.41 16.639,20.63 C16.599,20.85 16.459,21.04 16.259,21.15 L14.429,22.16 C13.749,22.56 12.879,22.75 11.999,22.75 Z M11.999,2.75 C11.379,2.75 10.749,2.88 10.299,3.13 L4.959,6.09 C3.989,6.62 3.149,8.06 3.149,9.16 L3.149,14.82 C3.149,15.92 3.999,17.36 4.959,17.89 L10.299,20.85 C11.209,21.36 12.799,21.36 13.709,20.85 L14.829,20.23 C14.459,19.56 14.259,18.78 14.259,17.98 C14.259,16.52 14.909,15.17 16.039,14.27 C17.399,13.18 19.339,12.95 20.869,13.6 L20.869,9.14 C20.869,8.04 20.019,6.6 19.059,6.07 L13.719,3.11 C13.249,2.88 12.619,2.75 11.999,2.75 Z"/>
</svg>

