<svg xmlns="http://www.w3.org/2000/svg" width="24" height="24" viewBox="0 0 24 24">
  <defs/>
  <path fill="#292D32" d="M21.089,6.98 C20.239,6.04 18.819,5.57 16.759,5.57 L16.519,5.57 L16.519,5.53 C16.519,3.85 16.519,1.77 12.759,1.77 L11.239,1.77 C7.479,1.77 7.479,3.86 7.479,5.53 L7.479,5.58 L7.239,5.58 C5.169,5.58 3.759,6.05 2.909,6.99 C1.919,8.09 1.949,9.57 2.049,10.58 L2.059,10.65 L2.159,11.7 C2.169,11.71 2.189,11.73 2.209,11.74 C2.539,11.96 2.879,12.18 3.239,12.38 C3.379,12.47 3.529,12.55 3.679,12.63 C5.389,13.57 7.269,14.2 9.179,14.51 C9.269,15.45 9.679,16.55 11.869,16.55 C14.059,16.55 14.489,15.46 14.559,14.49 C16.599,14.16 18.569,13.45 20.349,12.41 C20.409,12.38 20.449,12.35 20.499,12.32 C20.959,12.06 21.389,11.78 21.809,11.47 C21.829,11.46 21.849,11.44 21.859,11.42 L21.899,11.06 L21.949,10.59 C21.959,10.53 21.959,10.48 21.969,10.41 C22.049,9.4 22.029,8.02 21.089,6.98 Z M13.089,13.83 C13.089,14.89 13.089,15.05 11.859,15.05 C10.629,15.05 10.629,14.86 10.629,13.84 L10.629,12.58 L13.089,12.58 L13.089,13.83 Z M8.909,5.57 L8.909,5.53 C8.909,3.83 8.909,3.2 11.239,3.2 L12.759,3.2 C15.089,3.2 15.089,3.84 15.089,5.53 L15.089,5.58 L8.909,5.58 L8.909,5.57 Z"/>
  <path fill="#292D32" opacity="0.4" d="M20.5,12.3 C20.45,12.33 20.4,12.36 20.35,12.39 C18.57,13.43 16.6,14.13 14.56,14.47 C14.48,15.43 14.06,16.53 11.87,16.53 C9.68,16.53 9.26,15.44 9.18,14.49 C7.27,14.19 5.39,13.56 3.68,12.61 C3.53,12.53 3.38,12.45 3.24,12.36 C2.88,12.16 2.54,11.94 2.21,11.72 C2.19,11.71 2.17,11.69 2.16,11.68 L2.77,18.19 C2.98,20.18 3.8,22.23 8.2,22.23 L15.82,22.23 C20.22,22.23 21.04,20.18 21.25,18.18 L21.88,11.4 C21.87,11.42 21.85,11.44 21.83,11.45 C21.4,11.76 20.96,12.05 20.5,12.3 Z"/>
</svg>

