<svg xmlns="http://www.w3.org/2000/svg" width="24" height="24" viewBox="0 0 24 24">
  <defs/>
  <path fill="#292D32" d="M16,22.75 L8,22.75 C3.38,22.75 2.52,20.6 2.3,18.51 L1.55,10.5 C1.44,9.45 1.41,7.9 2.45,6.74 C3.35,5.74 4.84,5.26 7,5.26 L17,5.26 C19.17,5.26 20.66,5.75 21.55,6.74 C22.59,7.9 22.56,9.45 22.45,10.51 L21.7,18.5 C21.48,20.6 20.62,22.75 16,22.75 Z M7,6.75 C5.31,6.75 4.15,7.08 3.56,7.74 C3.07,8.28 2.91,9.11 3.04,10.35 L3.79,18.36 C3.96,19.94 4.39,21.25 8,21.25 L16,21.25 C19.6,21.25 20.04,19.94 20.21,18.35 L20.96,10.36 C21.09,9.11 20.93,8.28 20.44,7.74 C19.85,7.08 18.69,6.75 17,6.75 L7,6.75 Z"/>
  <path fill="#292D32" d="M16,6.75 C15.59,6.75 15.25,6.41 15.25,6 L15.25,5.2 C15.25,3.42 15.25,2.75 12.8,2.75 L11.2,2.75 C8.75,2.75 8.75,3.42 8.75,5.2 L8.75,6 C8.75,6.41 8.41,6.75 8,6.75 C7.59,6.75 7.25,6.41 7.25,6 L7.25,5.2 C7.25,3.44 7.25,1.25 11.2,1.25 L12.8,1.25 C16.75,1.25 16.75,3.44 16.75,5.2 L16.75,6 C16.75,6.41 16.41,6.75 16,6.75 Z"/>
  <path fill="#292D32" d="M12,16.75 C9.25,16.75 9.25,15.05 9.25,14.03 L9.25,13 C9.25,11.59 9.59,11.25 11,11.25 L13,11.25 C14.41,11.25 14.75,11.59 14.75,13 L14.75,14 C14.75,15.04 14.75,16.75 12,16.75 Z M10.75,12.75 C10.75,12.83 10.75,12.92 10.75,13 L10.75,14.03 C10.75,15.06 10.75,15.25 12,15.25 C13.25,15.25 13.25,15.09 13.25,14.02 L13.25,13 C13.25,12.92 13.25,12.83 13.25,12.75 C13.17,12.75 13.08,12.75 13,12.75 L11,12.75 C10.92,12.75 10.83,12.75 10.75,12.75 Z"/>
  <path fill="#292D32" d="M13.999,14.77 C13.63,14.77 13.3,14.49 13.259,14.11 C13.21,13.7 13.499,13.32 13.909,13.27 C16.549,12.94 19.079,11.94 21.209,10.39 C21.54,10.14 22.009,10.22 22.259,10.56 C22.5,10.89 22.43,11.36 22.09,11.61 C19.75,13.31 16.989,14.4 14.089,14.77 C14.059,14.77 14.03,14.77 13.999,14.77 Z"/>
  <path fill="#292D32" d="M10.001,14.78 C9.971,14.78 9.941,14.78 9.911,14.78 C7.171,14.47 4.501,13.47 2.191,11.89 C1.851,11.66 1.761,11.19 1.991,10.85 C2.221,10.51 2.691,10.42 3.031,10.65 C5.141,12.09 7.571,13 10.071,13.29 C10.481,13.34 10.781,13.71 10.731,14.12 C10.701,14.5 10.381,14.78 10.001,14.78 Z"/>
</svg>

