<svg xmlns="http://www.w3.org/2000/svg" width="24" height="24" viewBox="0 0 24 24">
  <defs/>
  <path fill="#292D32" d="M21.091,6.98 C20.241,6.04 18.821,5.57 16.761,5.57 L16.521,5.57 L16.521,5.53 C16.521,3.85 16.521,1.77 12.761,1.77 L11.241,1.77 C7.481,1.77 7.481,3.86 7.481,5.53 L7.481,5.58 L7.241,5.58 C5.171,5.58 3.761,6.05 2.911,6.99 C1.921,8.09 1.951,9.57 2.051,10.579 L2.061,10.649 L2.138,11.463 C2.153,11.613 2.233,11.748 2.359,11.83 C2.599,11.987 3,12.246 3.241,12.38 C3.381,12.47 3.531,12.55 3.681,12.63 C5.391,13.569 7.271,14.2 9.181,14.509 C9.271,15.45 9.681,16.549 11.871,16.549 C14.061,16.549 14.491,15.46 14.561,14.489 C16.601,14.159 18.571,13.45 20.351,12.409 C20.411,12.38 20.451,12.35 20.501,12.319 C20.898,12.095 21.309,11.819 21.684,11.548 C21.797,11.467 21.87,11.341 21.885,11.202 L21.901,11.059 L21.951,10.589 C21.961,10.53 21.961,10.479 21.971,10.409 C22.051,9.4 22.031,8.02 21.091,6.98 Z M13.091,13.829 C13.091,14.889 13.091,15.05 11.861,15.05 C10.631,15.05 10.631,14.86 10.631,13.839 L10.631,12.579 L13.091,12.579 L13.091,13.829 Z M8.911,5.57 L8.911,5.53 C8.911,3.83 8.911,3.2 11.241,3.2 L12.761,3.2 C15.091,3.2 15.091,3.84 15.091,5.53 L15.091,5.58 L8.911,5.58 L8.911,5.57 Z"/>
  <path fill="#292D32" d="M20.873,13.735 C21.227,13.567 21.634,13.847 21.599,14.237 L21.24,18.191 C21.03,20.191 20.21,22.231 15.81,22.231 L8.19,22.231 C3.79,22.231 2.97,20.191 2.76,18.201 L2.419,14.453 C2.384,14.067 2.782,13.787 3.135,13.947 C4.274,14.463 6.377,15.377 7.676,15.717 C7.841,15.76 7.974,15.878 8.046,16.032 C8.653,17.33 9.969,18.021 11.87,18.021 C13.752,18.021 15.085,17.303 15.694,16.002 C15.766,15.848 15.899,15.73 16.064,15.687 C17.443,15.324 19.682,14.302 20.873,13.735 Z"/>
</svg>

