<svg xmlns="http://www.w3.org/2000/svg" width="24" height="24" viewBox="0 0 24 24">
  <defs/>
  <path fill="#292D32" d="M8,22.75 Q2.759,22.75 2.303,18.5 L1.555,10.512 Q1.288,8.107 2.373,6.817 Q3.692,5.25 7,5.25 L17,5.25 Q20.308,5.25 21.626,6.817 Q22.711,8.107 22.447,10.5 L21.696,18.51 Q21.241,22.75 16,22.75 Z M8,21.25 L16,21.25 Q19.893,21.25 20.204,18.35 L20.953,10.36 Q21.15,8.581 20.478,7.783 Q19.61,6.75 17,6.75 L7,6.75 Q4.39,6.75 3.521,7.783 Q2.85,8.581 3.045,10.348 L3.797,18.36 Q4.106,21.25 8,21.25 Z"/>
  <path fill="#292D32" d="M7.25,6 L7.25,5.2 Q7.25,1.25 11.2,1.25 L12.8,1.25 Q15.346,1.25 16.217,2.51 Q16.75,3.281 16.75,5.2 L16.75,6 Q16.75,6.311 16.53,6.53 Q16.311,6.75 16,6.75 Q15.689,6.75 15.47,6.53 Q15.25,6.311 15.25,6 L15.25,5.2 Q15.25,3.749 14.983,3.363 Q14.56,2.75 12.8,2.75 L11.2,2.75 Q9.44,2.75 9.017,3.363 Q8.75,3.749 8.75,5.2 L8.75,6 Q8.75,6.311 8.53,6.53 Q8.311,6.75 8,6.75 Q7.689,6.75 7.47,6.53 Q7.25,6.311 7.25,6 Z"/>
  <path fill="#292D32" d="M14.75,13 L14.75,14.02 Q14.75,16.75 12,16.75 Q9.25,16.75 9.25,14.03 L9.25,13 Q9.25,11.939 9.595,11.595 Q9.939,11.25 11,11.25 L13,11.25 Q14.75,11.25 14.75,13 Z M13.25,13 Q13.25,12.856 13.249,12.751 Q13.144,12.75 13,12.75 L11,12.75 Q10.75,12.75 10.75,13 L10.75,14.03 Q10.75,15.25 12,15.25 Q13.25,15.25 13.25,14.02 Z"/>
  <path fill="#292D32" d="M22.091,11.607 Q18.515,14.207 14.094,14.764 Q13.785,14.803 13.54,14.612 Q13.295,14.422 13.256,14.114 Q13.217,13.805 13.408,13.56 Q13.598,13.315 13.906,13.276 Q17.945,12.767 21.209,10.393 Q21.46,10.211 21.767,10.259 Q22.074,10.308 22.257,10.559 Q22.439,10.81 22.391,11.117 Q22.342,11.424 22.091,11.607 Z"/>
  <path fill="#292D32" d="M3.044,10.651 Q6.267,12.857 10.083,13.285 Q10.392,13.319 10.586,13.562 Q10.78,13.805 10.745,14.113 Q10.711,14.422 10.468,14.616 Q10.225,14.81 9.917,14.775 Q5.728,14.306 2.196,11.889 Q1.94,11.713 1.883,11.408 Q1.826,11.103 2.001,10.846 Q2.177,10.59 2.482,10.533 Q2.787,10.476 3.044,10.651 Z"/>
</svg>

