<svg xmlns="http://www.w3.org/2000/svg" width="24" height="24" viewBox="0 0 24 24">
  <defs/>
  <path fill="#292D32" d="M12,18.95 C9.38,18.95 7.25,16.82 7.25,14.2 C7.25,11.58 9.38,9.45 12,9.45 C14.62,9.45 16.75,11.58 16.75,14.2 C16.75,16.82 14.62,18.95 12,18.95 Z M12,10.95 C10.21,10.95 8.75,12.41 8.75,14.2 C8.75,15.99 10.21,17.45 12,17.45 C13.79,17.45 15.25,15.99 15.25,14.2 C15.25,12.41 13.79,10.95 12,10.95 Z"/>
  <path fill="#292D32" d="M11.441,15.83 C11.121,15.83 10.801,15.71 10.561,15.47 L9.911,14.82 C9.621,14.53 9.621,14.05 9.911,13.76 C10.201,13.47 10.681,13.47 10.971,13.76 L11.451,14.24 L13.061,12.76 C13.361,12.48 13.841,12.5 14.121,12.8 C14.401,13.1 14.381,13.58 14.081,13.86 L12.301,15.5 C12.051,15.72 11.751,15.83 11.441,15.83 Z"/>
  <path fill="#292D32" d="M16,22.75 L8,22.75 C3.38,22.75 2.52,20.6 2.3,18.51 L1.55,10.5 C1.44,9.45 1.41,7.9 2.45,6.74 C3.35,5.74 4.84,5.26 7,5.26 L17,5.26 C19.17,5.26 20.66,5.75 21.55,6.74 C22.59,7.9 22.56,9.45 22.45,10.51 L21.7,18.5 C21.48,20.6 20.62,22.75 16,22.75 Z M7,6.75 C5.31,6.75 4.15,7.08 3.56,7.74 C3.07,8.28 2.91,9.11 3.04,10.35 L3.79,18.36 C3.96,19.94 4.39,21.25 8,21.25 L16,21.25 C19.6,21.25 20.04,19.94 20.21,18.35 L20.96,10.36 C21.09,9.11 20.93,8.28 20.44,7.74 C19.85,7.08 18.69,6.75 17,6.75 L7,6.75 Z"/>
  <path fill="#292D32" d="M16,6.75 C15.59,6.75 15.25,6.41 15.25,6 L15.25,5.2 C15.25,3.42 15.25,2.75 12.8,2.75 L11.2,2.75 C8.75,2.75 8.75,3.42 8.75,5.2 L8.75,6 C8.75,6.41 8.41,6.75 8,6.75 C7.59,6.75 7.25,6.41 7.25,6 L7.25,5.2 C7.25,3.44 7.25,1.25 11.2,1.25 L12.8,1.25 C16.75,1.25 16.75,3.44 16.75,5.2 L16.75,6 C16.75,6.41 16.41,6.75 16,6.75 Z"/>
  <path fill="#292D32" d="M16.011,14.39 C15.671,14.39 15.37,14.16 15.28,13.82 C15.181,13.42 15.421,13.01 15.82,12.91 C17.77,12.42 19.581,11.57 21.201,10.39 C21.53,10.15 22,10.22 22.25,10.56 C22.491,10.89 22.421,11.36 22.081,11.61 C20.3,12.9 18.32,13.83 16.18,14.37 C16.131,14.38 16.07,14.39 16.011,14.39 Z"/>
  <path fill="#292D32" d="M8.001,14.42 C7.941,14.42 7.881,14.41 7.821,14.4 C5.811,13.91 3.921,13.06 2.191,11.88 C1.851,11.65 1.761,11.18 1.991,10.84 C2.221,10.5 2.691,10.41 3.031,10.64 C4.611,11.72 6.331,12.49 8.171,12.94 C8.571,13.04 8.821,13.44 8.721,13.85 C8.651,14.19 8.341,14.42 8.001,14.42 Z"/>
</svg>

