<svg xmlns="http://www.w3.org/2000/svg" width="24" height="24" viewBox="0 0 24 24">
  <defs/>
  <path fill="#292D32" d="M11.129,15.879 C10.879,15.879 10.629,15.749 10.489,15.519 C10.279,15.169 10.389,14.699 10.749,14.489 L11.639,13.959 L11.639,12.879 C11.639,12.469 11.979,12.129 12.389,12.129 C12.799,12.129 13.139,12.469 13.139,12.879 L13.139,14.379 C13.139,14.639 12.999,14.889 12.779,15.019 L11.529,15.769 C11.389,15.839 11.259,15.879 11.129,15.879 Z"/>
  <path fill="#292D32" d="M21.091,6.98 C20.241,6.04 18.831,5.57 16.761,5.57 L16.521,5.57 L16.521,5.53 C16.521,3.85 16.521,1.77 12.761,1.77 L11.241,1.77 C7.481,1.77 7.481,3.85 7.481,5.53 L7.481,5.57 L7.241,5.57 C5.171,5.57 3.751,6.04 2.911,6.98 C1.921,8.09 1.951,9.56 2.051,10.569 L2.061,10.639 L2.13,11.445 C2.143,11.599 2.227,11.739 2.357,11.823 C2.64,12.006 2.942,12.199 3.231,12.36 C3.371,12.45 3.521,12.53 3.671,12.61 C4.801,13.229 6.011,13.72 7.251,14.059 C7.281,16.649 9.401,18.75 12.001,18.75 C14.621,18.75 16.751,16.619 16.751,13.999 L16.751,13.96 C18.011,13.579 19.221,13.05 20.351,12.389 C20.411,12.36 20.451,12.329 20.501,12.3 C20.896,12.085 21.305,11.804 21.679,11.539 C21.795,11.457 21.87,11.329 21.886,11.188 L21.901,11.05 L21.951,10.579 C21.961,10.52 21.961,10.47 21.971,10.399 C22.051,9.4 22.031,8.02 21.091,6.98 Z M8.911,5.53 C8.911,3.83 8.911,3.19 11.241,3.19 L12.761,3.19 C15.091,3.19 15.091,3.83 15.091,5.53 L15.091,5.57 L8.911,5.57 L8.911,5.53 Z M12.001,17.25 C10.351,17.25 8.981,16.009 8.781,14.409 C8.761,14.28 8.751,14.139 8.751,13.999 C8.751,12.21 10.211,10.749 12.001,10.749 C13.791,10.749 15.251,12.21 15.251,13.999 C15.251,14.12 15.241,14.229 15.231,14.339 L15.231,14.35 C15.051,15.979 13.671,17.25 12.001,17.25 Z"/>
  <path fill="#292D32" d="M21.042,13.731 C21.29,13.593 21.613,13.793 21.587,14.076 L21.232,17.961 C21.022,19.961 20.202,22.001 15.802,22.001 L8.182,22.001 C3.782,22.001 2.962,19.961 2.762,17.971 L2.416,14.268 C2.389,13.98 2.696,13.786 2.952,13.921 C3.732,14.351 4.542,14.731 5.372,15.031 C5.682,15.141 5.902,15.401 5.992,15.721 C6.742,18.321 9.162,20.251 12.002,20.251 C14.892,20.251 17.332,18.281 18.042,15.581 C18.122,15.261 18.342,15.001 18.652,14.881 C19.492,14.551 20.292,14.161 21.042,13.731 Z"/>
</svg>

