<svg xmlns="http://www.w3.org/2000/svg" width="24" height="24" viewBox="0 0 24 24">
  <defs/>
  <path fill="#292D32" opacity="0.4" d="M21.85,11.41 L21.23,18.19 C21.02,20.19 20.2,22.23 15.8,22.23 L8.18,22.23 C3.78,22.23 2.96,20.19 2.76,18.2 L2.15,11.69 C2.16,11.7 2.17,11.71 2.19,11.72 C2.53,11.94 2.86,12.16 3.22,12.36 C3.36,12.45 3.51,12.53 3.66,12.61 C4.79,13.23 6,13.72 7.25,14.06 C7.75,14.21 8.26,14.32 8.78,14.41 C8.98,16.01 10.35,17.25 12,17.25 C13.67,17.25 15.05,15.98 15.23,14.35 L15.23,14.34 C15.74,14.24 16.25,14.11 16.75,13.96 C18,13.57 19.21,13.05 20.34,12.39 C20.4,12.36 20.45,12.33 20.49,12.3 C20.95,12.05 21.39,11.76 21.81,11.46 C21.83,11.45 21.84,11.43 21.85,11.41 Z"/>
  <path fill="#292D32" d="M21.089,6.98 C20.239,6.04 18.829,5.57 16.759,5.57 L16.519,5.57 L16.519,5.53 C16.519,3.85 16.519,1.77 12.759,1.77 L11.239,1.77 C7.479,1.77 7.479,3.85 7.479,5.53 L7.479,5.57 L7.239,5.57 C5.169,5.57 3.749,6.04 2.909,6.98 C1.919,8.09 1.949,9.56 2.049,10.57 L2.059,10.64 L2.149,11.69 C2.159,11.7 2.179,11.71 2.199,11.72 C2.539,11.94 2.869,12.16 3.229,12.36 C3.369,12.45 3.519,12.53 3.669,12.61 C4.799,13.23 6.009,13.72 7.249,14.06 C7.279,16.65 9.399,18.75 11.999,18.75 C14.619,18.75 16.749,16.62 16.749,14 L16.749,13.96 C18.009,13.58 19.219,13.05 20.349,12.39 C20.409,12.36 20.449,12.33 20.499,12.3 C20.959,12.05 21.399,11.76 21.819,11.46 C21.829,11.45 21.849,11.43 21.859,11.41 L21.899,11.05 L21.949,10.58 C21.959,10.52 21.959,10.47 21.969,10.4 C22.049,9.4 22.029,8.02 21.089,6.98 Z M8.909,5.53 C8.909,3.83 8.909,3.19 11.239,3.19 L12.759,3.19 C15.089,3.19 15.089,3.83 15.089,5.53 L15.089,5.57 L8.909,5.57 L8.909,5.53 Z M11.999,17.25 C10.349,17.25 8.979,16.01 8.779,14.41 C8.759,14.28 8.749,14.14 8.749,14 C8.749,12.21 10.209,10.75 11.999,10.75 C13.789,10.75 15.249,12.21 15.249,14 C15.249,14.12 15.239,14.23 15.229,14.34 L15.229,14.35 C15.049,15.98 13.669,17.25 11.999,17.25 Z"/>
  <path fill="#292D32" d="M11.431,16.03 C11.241,16.03 11.051,15.96 10.901,15.81 L9.911,14.83 C9.621,14.54 9.621,14.06 9.911,13.77 C10.201,13.48 10.681,13.48 10.971,13.77 L11.451,14.25 L13.061,12.77 C13.361,12.49 13.841,12.51 14.121,12.81 C14.401,13.11 14.381,13.59 14.081,13.87 L11.951,15.84 C11.791,15.96 11.611,16.03 11.431,16.03 Z"/>
</svg>

