<svg xmlns="http://www.w3.org/2000/svg" width="24" height="24" viewBox="0 0 24 24">
  <defs/>
  <path fill="#292D32" opacity="0.4" d="M9.829,5.57 L6.359,7.68 L4.779,5.08 C4.199,4.13 4.499,2.87 5.459,2.29 C6.409,1.71 7.669,2.01 8.249,2.97 L9.829,5.57 Z"/>
  <path fill="#292D32" opacity="0.4" d="M19.271,17.64 L19.261,17.65 L17.961,18.44 L16.661,19.23 L15.361,20.02 L14.061,20.81 L12.761,21.6 L12.751,21.6 C11.441,22.4 9.821,21.92 9.151,20.55 L7.071,16.31 C6.341,14.83 6.571,13.03 7.691,11.8 C7.951,11.52 8.251,11.26 8.601,11.05 L11.811,9.1 C12.171,8.89 12.531,8.73 12.901,8.64 C14.501,8.2 16.201,8.82 17.181,10.15 L19.991,13.95 C20.901,15.2 20.581,16.85 19.271,17.64 Z"/>
  <path fill="#292D32" d="M12.901,8.66 C12.531,8.75 12.171,8.9 11.811,9.12 L8.601,11.07 C8.241,11.28 7.951,11.54 7.691,11.82 C7.681,11.82 7.681,11.81 7.681,11.81 L6.031,9.08 C5.741,8.6 5.891,7.97 6.361,7.69 L9.831,5.58 C10.311,5.29 10.931,5.44 11.221,5.91 L12.881,8.64 C12.891,8.65 12.901,8.65 12.901,8.66 Z"/>
  <path fill="#292D32" d="M16.66,19.23 L15.36,20.02 L13.69,17.27 C13.48,16.91 13.59,16.45 13.94,16.22 C14.31,16.01 14.77,16.12 14.99,16.47 L16.66,19.23 Z"/>
  <path fill="#292D32" d="M14.06,20.82 L12.76,21.61 L11.09,18.86 C10.87,18.5 10.98,18.04 11.34,17.81 C11.7,17.6 12.16,17.71 12.39,18.06 L14.06,20.82 Z"/>
  <path fill="#292D32" d="M19.26,17.65 L17.96,18.44 L16.29,15.69 C16.08,15.33 16.19,14.87 16.54,14.64 C16.91,14.43 17.37,14.54 17.59,14.89 L19.26,17.65 Z"/>
</svg>

