<svg xmlns="http://www.w3.org/2000/svg" width="24" height="24" viewBox="0 0 24 24">
  <defs/>
  <path fill="#292D32" d="M8.82,4.901 L7.54,2.781 C7.06,2.001 6.11,1.561 5.22,1.821 C3.88,2.221 3.36,3.731 4.03,4.841 L5.35,7.011 C5.5,7.241 5.81,7.321 6.04,7.181 L8.65,5.591 C8.89,5.441 8.97,5.131 8.82,4.901 Z"/>
  <path fill="#292D32" d="M19.74,14.21 L16.93,10.41 C15.95,9.09 14.25,8.47 12.65,8.9 C12.65,8.89 12.64,8.89 12.64,8.88 L10.98,6.15 C10.68,5.68 10.06,5.53 9.59,5.82 L6.12,7.93 C5.64,8.21 5.49,8.84 5.78,9.32 L7.43,12.05 C7.43,12.05 7.43,12.06 7.44,12.06 C6.33,13.29 6.09,15.08 6.83,16.57 L8.91,20.81 C9.55,22.12 11.06,22.62 12.34,21.96 C12.44,21.91 12.47,21.79 12.41,21.69 L10.85,19.11 C10.63,18.75 10.74,18.29 11.1,18.06 C11.46,17.85 11.92,17.96 12.15,18.31 L13.72,20.89 C13.78,20.98 13.9,21.01 13.99,20.96 L14.95,20.38 C15.04,20.32 15.07,20.2 15.02,20.11 L13.45,17.53 C13.24,17.17 13.35,16.71 13.7,16.48 C14.07,16.27 14.53,16.38 14.75,16.73 L16.32,19.31 C16.38,19.4 16.5,19.43 16.59,19.38 L17.55,18.8 C17.64,18.74 17.67,18.62 17.62,18.53 L16.05,15.95 C15.84,15.59 15.95,15.13 16.3,14.9 C16.67,14.69 17.13,14.8 17.35,15.15 L18.93,17.72 C18.99,17.81 19.11,17.84 19.2,17.78 C20.36,16.95 20.62,15.39 19.74,14.21 Z"/>
</svg>

