<svg xmlns="http://www.w3.org/2000/svg" width="24" height="24" viewBox="0 0 24 24">
  <defs/>
  <path fill="#292D32" d="M6.45,8.5 C6.39,8.5 6.33,8.49 6.27,8.48 C6.08,8.43 5.91,8.31 5.81,8.14 L4.25,5.58 C3.87,4.96 3.75,4.22 3.93,3.5 C4.1,2.79 4.54,2.18 5.17,1.8 C5.79,1.42 6.53,1.3 7.25,1.48 C7.97,1.65 8.57,2.09 8.95,2.72 L10.51,5.28 C10.73,5.63 10.61,6.09 10.26,6.31 L6.84,8.39 C6.72,8.46 6.59,8.5 6.45,8.5 Z M6.59,2.9 C6.36,2.9 6.14,2.96 5.95,3.08 C5.67,3.25 5.47,3.53 5.39,3.85 C5.31,4.18 5.36,4.51 5.53,4.79 L6.7,6.71 L8.84,5.41 L7.67,3.49 C7.5,3.21 7.22,3.01 6.9,2.93 C6.79,2.91 6.69,2.9 6.59,2.9 Z"/>
  <path fill="#292D32" d="M11.419,22.61 C11.119,22.61 10.819,22.57 10.529,22.48 C9.649,22.22 8.939,21.62 8.529,20.77 L6.479,16.59 C5.389,14.37 6.159,11.73 8.269,10.44 L11.429,8.52 C13.539,7.23 16.249,7.76 17.719,9.75 L20.489,13.49 C21.049,14.25 21.259,15.16 21.089,16.05 C20.919,16.94 20.379,17.71 19.569,18.2 L13.139,22.11 C12.599,22.44 12.009,22.61 11.419,22.61 Z M13.899,9.32 C13.319,9.32 12.739,9.48 12.199,9.8 L9.039,11.72 C7.589,12.6 7.069,14.41 7.809,15.93 L9.859,20.11 C10.089,20.57 10.469,20.9 10.939,21.04 C11.409,21.18 11.909,21.1 12.339,20.84 L18.769,16.93 C19.209,16.66 19.499,16.25 19.599,15.77 C19.689,15.29 19.579,14.8 19.269,14.39 L16.499,10.65 C15.869,9.78 14.899,9.32 13.899,9.32 Z"/>
  <path fill="#292D32" d="M7.68,12.43 C7.62,12.43 7.56,12.42 7.5,12.41 C7.31,12.36 7.14,12.24 7.04,12.07 L4.96,8.65 C4.74,8.3 4.86,7.84 5.21,7.62 L10.33,4.5 C10.68,4.29 11.15,4.4 11.36,4.75 L13.44,8.17 C13.54,8.34 13.58,8.54 13.53,8.74 C13.48,8.93 13.36,9.1 13.19,9.2 L8.07,12.32 C7.95,12.4 7.81,12.43 7.68,12.43 Z M6.63,8.52 L7.93,10.66 L11.77,8.32 L10.47,6.18 L6.63,8.52 Z"/>
  <path fill="#292D32" d="M15.959,20.27 C15.709,20.27 15.459,20.14 15.319,19.91 L13.669,17.2 C13.449,16.85 13.569,16.39 13.919,16.17 C14.269,15.96 14.739,16.07 14.949,16.42 L16.599,19.13 C16.819,19.48 16.699,19.94 16.349,20.16 C16.229,20.23 16.089,20.27 15.959,20.27 Z"/>
  <path fill="#292D32" d="M13.401,21.83 C13.151,21.83 12.901,21.7 12.761,21.47 L11.111,18.76 C10.891,18.41 11.011,17.95 11.361,17.73 C11.711,17.52 12.181,17.63 12.391,17.98 L14.041,20.69 C14.261,21.04 14.141,21.5 13.791,21.72 C13.671,21.79 13.531,21.83 13.401,21.83 Z"/>
  <path fill="#292D32" d="M18.52,18.71 C18.27,18.71 18.02,18.58 17.88,18.35 L16.23,15.64 C16.01,15.29 16.13,14.83 16.48,14.61 C16.83,14.4 17.3,14.51 17.51,14.86 L19.16,17.57 C19.38,17.92 19.26,18.38 18.91,18.6 C18.79,18.67 18.66,18.71 18.52,18.71 Z"/>
</svg>

