<svg xmlns="http://www.w3.org/2000/svg" width="24" height="24" viewBox="0 0 24 24">
  <defs/>
  <path fill="#292D32" d="M10.26,6.311 L6.84,8.391 Q6.574,8.552 6.273,8.479 Q5.971,8.405 5.81,8.14 L4.25,5.58 Q3.66,4.608 3.93,3.499 Q4.2,2.387 5.171,1.799 Q7.526,0.371 8.951,2.721 L10.51,5.28 Q10.672,5.545 10.599,5.847 Q10.526,6.149 10.26,6.31 Z M8.839,5.419 L7.669,3.499 Q7.346,2.967 6.919,2.861 Q6.487,2.755 5.949,3.081 Q4.881,3.729 5.53,4.8 L6.701,6.72 L8.839,5.419 Z"/>
  <path fill="#292D32" d="M11.43,8.519 L11.431,8.519 Q15.13,6.267 17.713,9.754 L20.484,13.496 Q21.348,14.67 21.079,16.054 Q20.808,17.446 19.56,18.201 L13.134,22.108 Q11.891,22.875 10.527,22.477 Q9.167,22.081 8.527,20.77 L6.478,16.592 Q4.554,12.701 8.271,10.439 Z M12.209,9.801 L9.049,11.721 Q6.507,13.268 7.822,15.928 L9.873,20.11 Q10.224,20.826 10.948,21.038 Q11.671,21.249 12.346,20.832 L18.78,16.919 Q19.463,16.507 19.606,15.768 Q19.75,15.029 19.276,14.384 L16.507,10.646 Q14.74,8.261 12.21,9.801 Z"/>
  <path fill="#292D32" d="M10.367,4.457 Q10.632,4.296 10.934,4.369 Q11.236,4.442 11.397,4.708 L13.478,8.124 Q13.639,8.39 13.566,8.691 Q13.493,8.993 13.227,9.155 L8.103,12.275 Q7.837,12.437 7.535,12.364 Q7.233,12.29 7.072,12.025 L4.992,8.609 Q4.83,8.343 4.903,8.041 Q4.977,7.74 5.242,7.578 Z M10.506,6.129 L6.663,8.469 L7.963,10.604 L11.806,8.264 L10.506,6.129 Z"/>
  <path fill="#292D32" d="M14.951,16.42 L16.601,19.13 Q16.762,19.395 16.689,19.697 Q16.615,19.999 16.35,20.161 Q16.085,20.322 15.783,20.249 Q15.481,20.175 15.319,19.91 L13.669,17.2 Q13.508,16.935 13.581,16.633 Q13.655,16.331 13.92,16.169 Q14.185,16.008 14.487,16.081 Q14.789,16.155 14.951,16.42 Z"/>
  <path fill="#292D32" d="M12.391,17.98 L14.041,20.69 Q14.202,20.955 14.129,21.257 Q14.055,21.559 13.79,21.721 Q13.525,21.882 13.223,21.809 Q12.921,21.735 12.759,21.47 L11.109,18.76 Q10.948,18.495 11.021,18.193 Q11.095,17.891 11.36,17.729 Q11.625,17.568 11.927,17.641 Q12.229,17.715 12.391,17.98 Z"/>
  <path fill="#292D32" d="M17.511,14.86 L19.161,17.57 Q19.322,17.835 19.249,18.137 Q19.175,18.439 18.91,18.601 Q18.645,18.762 18.343,18.689 Q18.041,18.615 17.879,18.35 L16.229,15.64 Q16.068,15.375 16.141,15.073 Q16.215,14.771 16.48,14.609 Q16.745,14.448 17.047,14.521 Q17.349,14.595 17.511,14.86 Z"/>
</svg>

