<svg xmlns="http://www.w3.org/2000/svg" width="24" height="24" viewBox="0 0 24 24">
  <defs/>
  <path fill="#292D32" d="M10.26,6.311 L6.84,8.391 Q6.575,8.552 6.273,8.479 Q5.971,8.406 5.81,8.14 L4.25,5.58 Q3.661,4.609 3.93,3.499 Q4.201,2.388 5.171,1.799 Q7.526,0.371 8.952,2.721 L10.511,5.28 Q10.672,5.545 10.599,5.847 Q10.526,6.149 10.261,6.311 Z M8.839,5.419 L7.669,3.499 Q7.022,2.431 5.949,3.081 Q4.881,3.729 5.531,4.8 L6.701,6.72 L8.839,5.419 Z"/>
  <path fill="#292D32" d="M9.873,20.111 Q10.223,20.826 10.947,21.038 Q11.67,21.249 12.345,20.832 L18.779,16.919 Q19.462,16.507 19.605,15.768 Q19.749,15.029 19.275,14.384 L16.506,10.646 Q14.727,8.259 12.211,9.8 L9.049,11.721 Q6.507,13.268 7.821,15.928 Q7.959,16.206 7.86,16.5 Q7.76,16.795 7.482,16.932 Q7.203,17.07 6.909,16.971 Q6.615,16.871 6.477,16.593 Q4.553,12.702 8.27,10.439 L11.428,8.52 Q15.112,6.265 17.712,9.754 L20.483,13.496 Q21.347,14.67 21.078,16.054 Q20.807,17.446 19.559,18.201 L13.133,22.108 Q11.89,22.875 10.527,22.478 Q9.166,22.081 8.525,20.77 Q8.389,20.49 8.49,20.197 Q8.591,19.903 8.87,19.766 Q9.149,19.63 9.443,19.731 Q9.736,19.832 9.873,20.111 Z"/>
  <path fill="#292D32" d="M10.367,4.457 Q10.633,4.296 10.935,4.369 Q11.236,4.442 11.398,4.708 L13.478,8.124 Q13.64,8.39 13.567,8.691 Q13.493,8.993 13.228,9.155 L8.103,12.275 Q7.838,12.437 7.536,12.364 Q7.234,12.29 7.073,12.025 L4.992,8.609 Q4.831,8.343 4.904,8.041 Q4.977,7.74 5.243,7.578 Z M10.507,6.129 L6.663,8.469 L7.964,10.604 L11.807,8.264 L10.507,6.129 Z"/>
  <path fill="#292D32" d="M14.951,16.42 L16.601,19.13 Q16.763,19.395 16.689,19.697 Q16.616,19.999 16.351,20.161 Q16.085,20.322 15.783,20.249 Q15.482,20.175 15.32,19.91 L13.67,17.2 Q13.508,16.935 13.582,16.633 Q13.655,16.331 13.92,16.17 Q14.186,16.008 14.488,16.081 Q14.79,16.155 14.951,16.42 Z"/>
  <path fill="#292D32" d="M12.391,17.98 L14.041,20.69 Q14.202,20.955 14.129,21.257 Q14.055,21.559 13.79,21.721 Q13.525,21.882 13.223,21.809 Q12.921,21.735 12.759,21.47 L11.109,18.76 Q10.948,18.495 11.021,18.193 Q11.095,17.891 11.36,17.729 Q11.625,17.568 11.927,17.641 Q12.229,17.715 12.391,17.98 Z"/>
  <path fill="#292D32" d="M17.51,14.86 L19.16,17.57 Q19.321,17.835 19.248,18.137 Q19.174,18.439 18.909,18.601 Q18.644,18.762 18.342,18.689 Q18.04,18.615 17.878,18.35 L16.228,15.64 Q16.067,15.375 16.14,15.073 Q16.214,14.771 16.479,14.609 Q16.744,14.448 17.046,14.521 Q17.348,14.595 17.51,14.86 Z"/>
</svg>

