<svg xmlns="http://www.w3.org/2000/svg" width="24" height="24" viewBox="0 0 24 24">
  <defs/>
  <path fill="#292D32" d="M2.721,12.94 L2.721,15 Q2.721,18.439 4.126,19.845 Q5.531,21.25 8.971,21.25 L14.971,21.25 Q21.221,21.25 21.221,15 L21.221,13 Q21.221,12.689 21.44,12.47 Q21.66,12.25 21.971,12.25 Q22.281,12.25 22.501,12.47 Q22.721,12.689 22.721,13 L22.721,15 Q22.721,22.75 14.971,22.75 L8.971,22.75 Q4.91,22.75 3.065,20.905 Q1.221,19.061 1.221,15 L1.221,12.94 Q1.221,12.629 1.44,12.41 Q1.66,12.19 1.971,12.19 Q2.281,12.19 2.501,12.41 Q2.721,12.629 2.721,12.94 Z"/>
  <path fill="#292D32" d="M10.971,2.75 L8.971,2.75 Q2.721,2.75 2.721,9 Q2.721,9.311 2.501,9.53 Q2.281,9.75 1.971,9.75 Q1.66,9.75 1.44,9.53 Q1.221,9.311 1.221,9 Q1.221,1.25 8.971,1.25 L10.971,1.25 Q11.281,1.25 11.501,1.47 Q11.721,1.689 11.721,2 Q11.721,2.311 11.501,2.53 Q11.281,2.75 10.971,2.75 Z"/>
  <path fill="#292D32" d="M18.142,2.346 Q19.181,1.763 20.131,1.384 Q21.297,0.937 22.16,1.8 Q23.05,2.69 22.585,3.841 Q20.278,9.598 15.459,13.465 L13.877,14.726 Q13.868,14.733 13.859,14.74 Q13.461,15.039 13.052,15.198 Q12.763,15.312 12.479,15.187 Q12.194,15.063 12.081,14.773 Q12.029,14.642 12.029,14.5 Q12.029,14.327 12.005,14.133 Q11.898,13.338 11.294,12.745 Q10.671,12.123 9.855,12.007 Q9.604,11.992 9.496,11.999 Q9.186,12.018 8.953,11.812 Q8.72,11.607 8.701,11.297 Q8.691,11.142 8.744,10.996 Q8.929,10.48 9.264,10.098 L10.501,8.535 Q12.166,6.45 15.137,4.284 Q15.389,4.101 15.695,4.149 Q16.002,4.197 16.185,4.448 Q16.368,4.699 16.32,5.006 Q16.272,5.313 16.021,5.496 Q13.212,7.543 11.677,9.465 L10.724,10.671 Q11.628,10.959 12.345,11.675 Q13.046,12.363 13.333,13.241 L14.52,12.295 Q19.032,8.675 21.194,3.279 Q21.287,3.048 21.099,2.86 Q20.924,2.686 20.688,2.776 Q19.829,3.12 18.876,3.654 Q18.605,3.806 18.306,3.722 Q18.007,3.638 17.855,3.367 Q17.703,3.096 17.787,2.797 Q17.871,2.498 18.142,2.346 Z"/>
  <path fill="#292D32" d="M13.53,14.49 Q13.53,16.172 12.345,17.376 Q11.375,18.345 9.964,18.524 L7.98,18.736 Q6.82,18.866 5.989,18.034 Q5.155,17.201 5.285,16.028 L5.494,14.061 Q5.874,10.566 9.421,10.49 Q9.626,10.48 9.977,10.501 Q10.003,10.503 10.028,10.506 Q11.364,10.683 12.35,11.67 Q13.32,12.639 13.493,13.93 Q13.53,14.223 13.53,14.49 Z M12.03,14.49 Q12.03,14.317 12.007,14.13 Q11.901,13.341 11.29,12.73 Q10.672,12.113 9.856,11.997 Q9.604,11.982 9.497,11.989 Q9.481,11.99 9.465,11.99 Q7.223,12.033 6.986,14.219 L6.776,16.192 Q6.725,16.649 7.049,16.973 Q7.37,17.295 7.821,17.244 L9.776,17.036 Q10.678,16.922 11.276,16.324 Q12.03,15.557 12.03,14.49 Z"/>
  <path fill="#292D32" d="M15.069,11.98 Q15.069,10.721 14.181,9.831 Q13.292,8.94 12.029,8.94 Q11.719,8.94 11.499,8.72 Q11.279,8.501 11.279,8.19 Q11.279,7.879 11.499,7.66 Q11.719,7.44 12.029,7.44 Q13.914,7.44 15.243,8.771 Q16.569,10.1 16.569,11.98 Q16.569,12.291 16.35,12.51 Q16.13,12.73 15.819,12.73 Q15.509,12.73 15.289,12.51 Q15.069,12.291 15.069,11.98 Z"/>
</svg>

