<svg xmlns="http://www.w3.org/2000/svg" width="24" height="24" viewBox="0 0 24 24">
  <defs/>
  <path fill="#292D32" opacity="0.4" d="M9.25,16 Q9.25,12.25 13,12.25 L17,12.25 Q18.688,12.25 19.025,11.8 Q19.25,11.5 19.25,10 L19.25,8 Q19.25,6.5 19.025,6.2 Q18.688,5.75 17,5.75 L16,5.75 Q15.689,5.75 15.47,5.53 Q15.25,5.311 15.25,5 Q15.25,4.689 15.47,4.47 Q15.689,4.25 16,4.25 L17,4.25 Q19.438,4.25 20.225,5.3 Q20.75,6 20.75,8 L20.75,10 Q20.75,12 20.225,12.7 Q19.438,13.75 17,13.75 L13,13.75 Q11.375,13.75 10.992,14.304 Q10.75,14.654 10.75,16 Q10.75,16.311 10.53,16.53 Q10.311,16.75 10,16.75 Q9.689,16.75 9.47,16.53 Q9.25,16.311 9.25,16 Z"/>
  <path fill="#292D32" d="M11.999,1.25 Q12.54,1.25 12.711,1.763 Q13.79,5 12.711,8.237 Q12.54,8.75 11.999,8.75 L7.999,8.75 Q7.459,8.75 7.288,8.237 Q6.209,5 7.288,1.763 Q7.459,1.25 7.999,1.25 Z M11.443,2.75 L8.556,2.75 Q7.945,5 8.556,7.25 L11.443,7.25 Q12.054,5 11.443,2.75 Z"/>
  <path fill="#292D32" d="M8,1.25 Q8.177,1.25 8.335,1.329 Q8.613,1.468 8.712,1.763 Q8.81,2.058 8.671,2.335 Q7.339,5 8.671,7.665 Q8.75,7.823 8.75,8 Q8.75,8.311 8.53,8.53 Q8.311,8.75 8,8.75 L7,8.75 Q3.25,8.75 3.25,5 Q3.25,1.25 7,1.25 Z M6.874,2.752 Q4.75,2.814 4.75,5 Q4.75,7.186 6.874,7.248 Q6.116,5 6.874,2.752 Z"/>
  <path fill="#292D32" d="M13,1.25 Q16.75,1.25 16.75,5 Q16.75,8.75 13,8.75 L12,8.75 Q11.823,8.75 11.665,8.671 Q11.387,8.532 11.288,8.237 Q11.19,7.942 11.329,7.665 Q12.661,5 11.329,2.335 Q11.25,2.177 11.25,2 Q11.25,1.689 11.47,1.47 Q11.689,1.25 12,1.25 Z M13.126,2.752 Q13.884,5 13.126,7.248 Q15.25,7.186 15.25,5 Q15.25,2.814 13.126,2.752 Z"/>
  <path fill="#292D32" d="M9.5,22.75 Q7.25,22.75 7.25,20.5 L7.25,17.5 Q7.25,15.25 9.5,15.25 L10.5,15.25 Q12.75,15.25 12.75,17.5 L12.75,20.5 Q12.75,22.75 10.5,22.75 Z M9.5,21.25 L10.5,21.25 Q11.25,21.25 11.25,20.5 L11.25,17.5 Q11.25,16.75 10.5,16.75 L9.5,16.75 Q8.75,16.75 8.75,17.5 L8.75,20.5 Q8.75,21.25 9.5,21.25 Z"/>
</svg>

