<svg xmlns="http://www.w3.org/2000/svg" width="24" height="24" viewBox="0 0 24 24">
  <defs/>
  <path fill="#292D32" d="M16.19,2 L7.81,2 C4.17,2 2,4.17 2,7.81 L2,16.18 C2,19.83 4.17,22 7.81,22 L16.18,22 C19.82,22 21.99,19.83 21.99,16.19 L21.99,7.81 C22,4.17 19.83,2 16.19,2 Z M10.49,16.72 C10.15,17.06 9.7,17.29 9.15,17.36 L7.8,17.51 C7.06,17.59 6.43,16.96 6.51,16.21 L6.66,14.85 C6.79,13.64 7.8,12.87 8.87,12.85 C8.97,12.84 9.09,12.85 9.2,12.86 C9.67,12.92 10.12,13.14 10.5,13.51 C10.87,13.88 11.08,14.32 11.14,14.77 C11.15,14.88 11.16,14.99 11.16,15.09 C11.16,15.71 10.93,16.28 10.49,16.72 Z M17.44,7.55 C16.72,9.35 15.07,11.71 13.5,13.25 C13.27,11.83 12.14,10.71 10.7,10.51 C12.24,8.93 14.62,7.26 16.43,6.53 C16.75,6.41 17.07,6.5 17.27,6.7 C17.47,6.92 17.57,7.23 17.44,7.55 Z"/>
</svg>

