<svg xmlns="http://www.w3.org/2000/svg" width="24" height="24" viewBox="0 0 24 24">
  <defs/>
  <path fill="#292D32" d="M15.519,2.9 C14.919,2.3 14.049,2 12.929,2 L7.349,2 C5.099,2 3.859,3.24 3.859,5.49 C3.859,6.61 4.159,7.48 4.759,8.08 C5.359,8.68 6.229,8.98 7.349,8.98 L12.929,8.98 C15.179,8.98 16.419,7.74 16.419,5.49 C16.419,4.37 16.119,3.5 15.519,2.9 Z"/>
  <path fill="#292D32" opacity="0.4" d="M10.6,15.02 L9.67,15.02 C8.72,15.02 7.58,15.38 7.58,17.11 L7.58,19.9 C7.58,21.63 8.72,21.99 9.67,21.99 L10.6,21.99 C11.55,21.99 12.69,21.63 12.69,19.9 L12.69,17.11 C12.7,15.39 11.56,15.02 10.6,15.02 Z"/>
  <path fill="#292D32" opacity="0.4" d="M16.649,4.79 L16.369,4.79 C16.399,5.01 16.419,5.24 16.419,5.49 C16.419,5.74 16.399,5.97 16.369,6.19 L16.649,6.19 C18.739,6.19 18.739,6.47 18.739,8.28 L18.739,10.14 C18.739,11.95 18.739,12.23 16.649,12.23 L12.929,12.23 C9.939,12.23 9.509,13.65 9.449,15.03 C9.519,15.03 9.599,15.02 9.669,15.02 L10.599,15.02 C10.679,15.02 10.759,15.03 10.849,15.03 C10.899,14.02 11.189,13.62 12.929,13.62 L16.649,13.62 C19.899,13.62 20.139,12.3 20.139,10.13 L20.139,8.28 C20.139,6.11 19.899,4.79 16.649,4.79 Z"/>
</svg>

