<svg xmlns="http://www.w3.org/2000/svg" width="24" height="24" viewBox="0 0 24 24">
  <defs/>
  <path fill="#292D32" d="M9.5,19.5 L9.5,18 L4.5,18 C3.95,18 3.45,17.78 3.09,17.41 C2.72,17.05 2.5,16.55 2.5,16 C2.5,14.97 3.3,14.11 4.31,14.01 C4.37,14 4.43,14 4.5,14 L19.5,14 C19.57,14 19.63,14 19.69,14.01 C20.17,14.05 20.59,14.26 20.91,14.59 C21.32,14.99 21.54,15.56 21.49,16.18 C21.4,17.23 20.45,18 19.39,18 L14.5,18 L14.5,19.5 C14.5,20.88 13.38,22 12,22 C10.62,22 9.5,20.88 9.5,19.5 Z"/>
  <path fill="#292D32" opacity="0.4" d="M20.17,5.3 L19.69,14.01 C19.63,14 19.57,14 19.5,14 L4.5,14 C4.43,14 4.37,14 4.31,14.01 L3.83,5.3 C3.65,3.53 5.04,2 6.81,2 L17.19,2 C18.96,2 20.35,3.53 20.17,5.3 Z"/>
  <path fill="#292D32" d="M8.74,2 L8.74,7 C8.74,7.41 8.4,7.75 7.99,7.75 C7.58,7.75 7.24,7.41 7.24,7 L7.24,2 L8.74,2 Z"/>
  <path fill="#292D32" d="M12.75,2 L12.75,4 C12.75,4.41 12.41,4.75 12,4.75 C11.59,4.75 11.25,4.41 11.25,4 L11.25,2 L12.75,2 Z"/>
</svg>

