<svg xmlns="http://www.w3.org/2000/svg" width="24" height="24" viewBox="0 0 24 24">
  <defs/>
  <path fill="#292D32" d="M10.97,2.75 L8.97,2.75 Q2.72,2.75 2.72,9 L2.72,15 Q2.72,18.439 4.125,19.845 Q5.531,21.25 8.97,21.25 L14.97,21.25 Q18.409,21.25 19.815,19.845 Q21.22,18.439 21.22,15 L21.22,13 Q21.22,12.689 21.44,12.47 Q21.659,12.25 21.97,12.25 Q22.281,12.25 22.5,12.47 Q22.72,12.689 22.72,13 L22.72,15 Q22.72,19.061 20.875,20.905 Q19.031,22.75 14.97,22.75 L8.97,22.75 Q1.22,22.75 1.22,15 L1.22,9 Q1.22,1.25 8.97,1.25 L10.97,1.25 Q11.281,1.25 11.5,1.47 Q11.72,1.689 11.72,2 Q11.72,2.311 11.5,2.53 Q11.281,2.75 10.97,2.75 Z"/>
  <path fill="#292D32" d="M22.576,3.839 L22.575,3.841 Q20.268,9.599 15.449,13.465 L13.868,14.726 Q13.859,14.733 13.85,14.74 Q13.452,15.039 13.043,15.198 Q12.754,15.312 12.469,15.187 Q12.185,15.063 12.072,14.773 Q12.02,14.642 12.02,14.5 Q12.02,14.327 11.996,14.133 Q11.889,13.338 11.285,12.745 Q10.662,12.123 9.846,12.007 Q9.594,11.992 9.487,11.999 Q9.177,12.018 8.944,11.812 Q8.711,11.607 8.691,11.297 Q8.682,11.142 8.734,10.996 Q8.921,10.479 9.256,10.097 L10.504,8.532 Q14.386,3.693 20.13,1.384 Q21.298,0.937 22.16,1.8 Q23.043,2.682 22.576,3.839 Z M21.185,3.279 Q21.281,3.041 21.1,2.86 Q20.925,2.686 20.69,2.776 Q15.311,4.938 11.676,9.468 L10.716,10.671 Q11.62,10.959 12.335,11.675 Q13.037,12.363 13.324,13.241 L14.511,12.295 Q19.023,8.675 21.184,3.281 Z"/>
  <path fill="#292D32" d="M13.53,14.49 Q13.53,16.172 12.344,17.376 Q11.375,18.345 9.964,18.524 L7.979,18.736 Q6.82,18.866 5.988,18.034 Q5.155,17.201 5.285,16.028 L5.494,14.061 Q5.874,10.566 9.421,10.49 Q9.625,10.48 9.977,10.501 Q10.003,10.503 10.028,10.506 Q11.364,10.683 12.35,11.67 Q13.32,12.639 13.493,13.93 Q13.53,14.223 13.53,14.49 Z M12.03,14.49 Q12.03,14.317 12.007,14.13 Q11.901,13.341 11.29,12.73 Q10.672,12.113 9.856,11.997 Q9.604,11.982 9.497,11.989 Q9.481,11.99 9.464,11.99 Q7.223,12.033 6.986,14.219 L6.775,16.192 Q6.725,16.649 7.049,16.973 Q7.37,17.295 7.821,17.244 L9.776,17.036 Q10.678,16.922 11.276,16.324 Q12.03,15.557 12.03,14.49 Z"/>
  <path fill="#292D32" d="M15.07,11.98 Q15.07,8.94 12.03,8.94 Q11.719,8.94 11.5,8.72 Q11.28,8.501 11.28,8.19 Q11.28,7.879 11.5,7.66 Q11.719,7.44 12.03,7.44 Q13.914,7.44 15.243,8.771 Q16.57,10.1 16.57,11.98 Q16.57,12.291 16.35,12.51 Q16.131,12.73 15.82,12.73 Q15.509,12.73 15.29,12.51 Q15.07,12.291 15.07,11.98 Z"/>
</svg>

