<svg xmlns="http://www.w3.org/2000/svg" width="24" height="24" viewBox="0 0 24 24">
  <defs/>
  <path fill="#292D32" d="M12,22.75 C10.21,22.75 8.75,21.29 8.75,19.5 L8.75,18.75 L4.5,18.75 C3.76,18.75 3.07,18.46 2.55,17.93 C2.04,17.43 1.75,16.74 1.75,16 C1.75,14.6 2.84,13.4 4.24,13.26 C4.29,13.25 4.39,13.25 4.5,13.25 L19.5,13.25 C19.61,13.25 19.71,13.25 19.81,13.27 C20.4,13.32 20.99,13.6 21.45,14.07 C22.02,14.62 22.31,15.42 22.24,16.24 C22.12,17.65 20.87,18.75 19.39,18.75 L15.25,18.75 L15.25,19.5 C15.25,21.29 13.79,22.75 12,22.75 Z M4.5,14.75 C4.48,14.75 4.4,14.75 4.38,14.76 C3.75,14.82 3.25,15.37 3.25,16 C3.25,16.33 3.38,16.64 3.61,16.87 C3.85,17.12 4.16,17.25 4.5,17.25 L9.5,17.25 C9.91,17.25 10.25,17.59 10.25,18 L10.25,19.5 C10.25,20.46 11.04,21.25 12,21.25 C12.96,21.25 13.75,20.46 13.75,19.5 L13.75,18 C13.75,17.59 14.09,17.25 14.5,17.25 L19.39,17.25 C20.08,17.25 20.69,16.74 20.75,16.11 C20.78,15.73 20.65,15.38 20.39,15.12 C20.17,14.9 19.91,14.77 19.63,14.75 L19.5,14.74 L4.5,14.74 L4.5,14.75 Z"/>
  <path fill="#292D32" d="M19.69,14.76 C19.65,14.76 19.61,14.76 19.57,14.75 L4.5,14.75 C4.29,14.79 4.04,14.73 3.88,14.59 C3.71,14.46 3.58,14.26 3.57,14.05 L3.08,5.34 C2.98,4.32 3.32,3.27 4.03,2.48 C4.74,1.7 5.75,1.25 6.81,1.25 L17.19,1.25 C18.25,1.25 19.26,1.7 19.97,2.49 C20.67,3.27 21.02,4.32 20.92,5.36 L20.44,14.05 C20.43,14.26 20.33,14.46 20.16,14.59 C20.03,14.7 19.86,14.76 19.69,14.76 Z M5.02,13.25 L18.98,13.25 L19.42,5.26 C19.42,5.25 19.42,5.24 19.42,5.22 C19.48,4.58 19.28,3.96 18.85,3.49 C18.42,3.02 17.82,2.75 17.18,2.75 L6.81,2.75 C6.18,2.75 5.57,3.02 5.14,3.49 C4.71,3.97 4.51,4.58 4.58,5.22 L5.02,13.25 Z"/>
  <path fill="#292D32" d="M7.99,7.75 C7.58,7.75 7.24,7.41 7.24,7 L7.24,2 C7.24,1.59 7.58,1.25 7.99,1.25 C8.4,1.25 8.74,1.59 8.74,2 L8.74,7 C8.74,7.41 8.4,7.75 7.99,7.75 Z"/>
  <path fill="#292D32" d="M12,4.75 C11.59,4.75 11.25,4.41 11.25,4 L11.25,2 C11.25,1.59 11.59,1.25 12,1.25 C12.41,1.25 12.75,1.59 12.75,2 L12.75,4 C12.75,4.41 12.41,4.75 12,4.75 Z"/>
</svg>

