<svg xmlns="http://www.w3.org/2000/svg" width="24" height="24" viewBox="0 0 24 24">
  <defs/>
  <path fill="#292D32" d="M10,16.75 C9.59,16.75 9.25,16.41 9.25,16 C9.25,14.33 9.25,12.25 13,12.25 L17,12.25 C19.25,12.25 19.25,11.95 19.25,10 L19.25,8 C19.25,6.05 19.25,5.75 17,5.75 L16,5.75 C15.59,5.75 15.25,5.41 15.25,5 C15.25,4.59 15.59,4.25 16,4.25 L17,4.25 C20.5,4.25 20.75,5.67 20.75,8 L20.75,10 C20.75,12.33 20.5,13.75 17,13.75 L13,13.75 C10.75,13.75 10.75,14.36 10.75,16 C10.75,16.41 10.41,16.75 10,16.75 Z"/>
  <path fill="#292D32" d="M12.001,8.75 L8.001,8.75 C7.681,8.75 7.391,8.54 7.291,8.24 C6.601,6.15 6.601,3.85 7.291,1.77 C7.391,1.46 7.681,1.25 8.001,1.25 L12.001,1.25 C12.321,1.25 12.611,1.46 12.711,1.76 C13.411,3.85 13.411,6.15 12.711,8.23 C12.611,8.54 12.331,8.75 12.001,8.75 Z M8.561,7.25 L11.451,7.25 C11.841,5.78 11.841,4.22 11.451,2.75 L8.561,2.75 C8.171,4.22 8.171,5.78 8.561,7.25 Z"/>
  <path fill="#292D32" d="M8,8.75 L7,8.75 C4.58,8.75 3.25,7.42 3.25,5 C3.25,2.58 4.58,1.25 7,1.25 L8,1.25 C8.26,1.25 8.5,1.38 8.64,1.61 C8.78,1.83 8.79,2.11 8.67,2.34 C7.77,4.13 7.77,5.88 8.67,7.67 C8.79,7.9 8.77,8.18 8.64,8.4 C8.5,8.62 8.26,8.75 8,8.75 Z M6.88,2.75 C5.39,2.79 4.75,3.46 4.75,5 C4.75,6.53 5.39,7.21 6.87,7.25 C6.37,5.75 6.37,4.25 6.88,2.75 Z"/>
  <path fill="#292D32" d="M12.999,8.75 L11.999,8.75 C11.739,8.75 11.499,8.62 11.359,8.39 C11.219,8.17 11.209,7.89 11.329,7.66 C12.219,5.87 12.219,4.12 11.329,2.33 C11.209,2.1 11.229,1.82 11.359,1.6 C11.499,1.38 11.739,1.25 11.999,1.25 L12.999,1.25 C15.419,1.25 16.749,2.58 16.749,5 C16.749,7.42 15.419,8.75 12.999,8.75 Z M13.119,2.75 C13.619,4.25 13.619,5.75 13.119,7.25 C14.609,7.21 15.239,6.54 15.239,5 C15.249,3.46 14.609,2.79 13.119,2.75 Z"/>
  <path fill="#292D32" d="M10.5,22.75 L9.5,22.75 C8.47,22.75 7.25,22.36 7.25,20.5 L7.25,17.5 C7.25,15.64 8.47,15.25 9.5,15.25 L10.5,15.25 C11.53,15.25 12.75,15.64 12.75,17.5 L12.75,20.5 C12.75,22.36 11.53,22.75 10.5,22.75 Z M9.5,16.75 C8.75,16.75 8.75,16.97 8.75,17.5 L8.75,20.5 C8.75,21.03 8.75,21.25 9.5,21.25 L10.5,21.25 C11.25,21.25 11.25,21.03 11.25,20.5 L11.25,17.5 C11.25,16.97 11.25,16.75 10.5,16.75 L9.5,16.75 Z"/>
</svg>

