<svg xmlns="http://www.w3.org/2000/svg" width="24" height="24" viewBox="0 0 24 24">
  <defs/>
  <path fill="#292D32" opacity="0.4" d="M6,1.25 L18,1.25 Q20.75,1.25 20.75,4 L20.75,8.32 Q20.75,8.631 20.53,8.85 Q20.311,9.07 20,9.07 L4,9.07 Q3.689,9.07 3.47,8.85 Q3.25,8.631 3.25,8.32 L3.25,4 Q3.25,1.25 6,1.25 Z M6,2.75 Q4.75,2.75 4.75,4 L4.75,7.57 L19.25,7.57 L19.25,4 Q19.25,3.486 18.882,3.118 Q18.514,2.75 18,2.75 Z"/>
  <path fill="#292D32" d="M3.25,8.32 Q3.25,8.009 3.47,7.789 Q3.689,7.57 4,7.57 L20.02,7.57 Q20.331,7.57 20.55,7.789 Q20.77,8.009 20.77,8.32 L20.77,11.88 Q20.77,14.065 18.859,15.143 L15.894,16.815 Q15.26,17.168 15.26,17.9 L15.26,20 Q15.26,21.135 14.453,21.943 Q13.646,22.75 12.51,22.75 L11.51,22.75 Q10.374,22.75 9.567,21.943 Q8.76,21.135 8.76,20 L8.76,17.9 Q8.76,17.168 8.121,16.813 L5.165,15.145 Q3.25,14.077 3.25,11.88 Z M4.75,9.07 L4.75,11.88 Q4.75,13.196 5.895,13.835 L8.859,15.507 Q10.26,16.285 10.26,17.9 L10.26,20 Q10.26,20.514 10.628,20.882 Q10.996,21.25 11.51,21.25 L12.51,21.25 Q13.024,21.25 13.392,20.882 Q13.76,20.514 13.76,20 L13.76,17.9 Q13.76,16.285 15.166,15.504 L18.121,13.837 Q19.27,13.189 19.27,11.88 L19.27,9.07 L4.75,9.07 Z"/>
</svg>

