<svg xmlns="http://www.w3.org/2000/svg" width="24" height="24" viewBox="0 0 24 24">
  <defs/>
  <path fill="#292D32" d="M17.665,2.349 Q18.724,1.78 19.685,1.402 Q21.05,0.893 22.017,1.887 Q23.035,2.904 22.495,4.233 Q19.627,11.384 13.639,16.185 L11.669,17.765 Q11.654,17.777 11.638,17.789 Q11.123,18.16 10.694,18.328 Q10.405,18.442 10.12,18.318 Q9.835,18.193 9.722,17.904 Q9.67,17.772 9.67,17.63 Q9.67,17.372 9.639,17.177 Q9.637,17.167 9.636,17.157 Q9.499,16.11 8.689,15.3 Q7.864,14.475 6.79,14.327 Q6.752,14.325 6.695,14.322 Q6.435,14.306 6.334,14.316 Q6.025,14.347 5.785,14.151 Q5.544,13.954 5.513,13.645 Q5.497,13.478 5.553,13.319 Q5.765,12.722 6.173,12.251 L7.722,10.294 Q9.797,7.697 13.528,4.974 Q13.779,4.791 14.086,4.839 Q14.393,4.887 14.576,5.138 Q14.759,5.389 14.711,5.696 Q14.663,6.003 14.412,6.186 Q10.844,8.79 8.898,11.226 L7.535,12.947 Q8.775,13.265 9.75,14.24 Q10.692,15.182 11.008,16.373 L12.701,15.015 Q18.381,10.46 21.105,3.668 Q21.27,3.261 20.942,2.933 Q20.657,2.64 20.234,2.798 Q19.355,3.144 18.375,3.671 Q18.101,3.818 17.804,3.728 Q17.506,3.639 17.359,3.365 Q17.212,3.091 17.302,2.794 Q17.391,2.496 17.665,2.349 Z"/>
  <path fill="#292D32" d="M11.179,17.62 Q11.179,19.652 9.753,21.097 Q8.601,22.248 6.887,22.473 L4.411,22.745 Q3.045,22.898 2.071,21.921 Q1.092,20.94 1.254,19.562 L1.524,17.108 Q1.985,12.903 6.253,12.81 Q6.5,12.799 6.919,12.821 Q6.947,12.822 6.976,12.826 Q8.593,13.035 9.773,14.233 Q10.94,15.399 11.143,16.952 Q11.147,16.981 11.148,17.01 Q11.151,17.067 11.16,17.187 Q11.179,17.467 11.179,17.62 Z M9.679,17.62 Q9.679,17.519 9.663,17.292 Q9.656,17.187 9.652,17.121 Q9.508,16.089 8.705,15.286 Q7.898,14.467 6.81,14.317 Q6.481,14.301 6.317,14.309 Q6.306,14.309 6.295,14.31 Q3.333,14.371 3.015,17.272 L2.744,19.737 Q2.667,20.394 3.133,20.861 Q3.597,21.327 4.247,21.254 L6.692,20.986 Q7.901,20.827 8.686,20.043 Q9.679,19.037 9.679,17.62 Z"/>
  <path fill="#292D32" d="M13.49,14.47 Q13.49,12.823 12.323,11.657 Q11.157,10.49 9.51,10.49 Q9.199,10.49 8.979,10.271 Q8.76,10.051 8.76,9.74 Q8.76,9.43 8.979,9.21 Q9.199,8.99 9.51,8.99 Q11.778,8.99 13.384,10.596 Q14.99,12.202 14.99,14.47 Q14.99,14.781 14.77,15.001 Q14.55,15.22 14.24,15.22 Q13.929,15.22 13.709,15.001 Q13.49,14.781 13.49,14.47 Z"/>
</svg>

