<svg xmlns="http://www.w3.org/2000/svg" width="24" height="24" viewBox="0 0 24 24">
  <defs/>
  <path fill="#292D32" d="M6,2 L18,2 C19.1,2 20,2.9 20,4 L20,7.32 C20,7.87 19.55,8.32 19,8.32 L5,8.32 C4.45,8.32 4,7.87 4,7.32 L4,4 C4,2.9 4.9,2 6,2 Z"/>
  <path fill="#292D32" d="M4,10.32 L4,11.88 C4,12.96 4.58,13.96 5.53,14.49 L8.49,16.16 C9.12,16.51 9.51,17.18 9.51,17.9 L9.51,20 C9.51,21.1 10.41,22 11.51,22 L12.51,22 C13.61,22 14.51,21.1 14.51,20 L14.51,17.9 C14.51,17.18 14.9,16.51 15.53,16.16 L18.49,14.49 C19.43,13.96 20.02,12.96 20.02,11.88 L20.02,10.32 C20.02,9.77 19.57,9.32 19.02,9.32 L5,9.32 C4.45,9.32 4,9.76 4,10.32 Z"/>
</svg>

