<svg xmlns="http://www.w3.org/2000/svg" width="24" height="24" viewBox="0 0 24 24">
  <defs/>
  <path fill="#292D32" d="M9.5,19.5 L9.5,18 L4.5,18 C3.95,18 3.45,17.78 3.09,17.41 C2.72,17.05 2.5,16.55 2.5,16 C2.5,14.97 3.3,14.11 4.31,14.01 C4.37,14 4.43,14 4.5,14 L19.5,14 C19.57,14 19.63,14 19.69,14.01 C20.17,14.05 20.59,14.26 20.91,14.59 C21.32,14.99 21.54,15.56 21.49,16.18 C21.4,17.23 20.45,18 19.39,18 L14.5,18 L14.5,19.5 C14.5,20.88 13.38,22 12,22 C10.62,22 9.5,20.88 9.5,19.5 Z"/>
  <path fill="#292D32" d="M17.191,2 L13.251,2 C12.971,2 12.751,2.22 12.751,2.5 L12.751,4 C12.751,4.41 12.411,4.75 12.001,4.75 C11.911,4.75 11.831,4.73 11.751,4.7 C11.461,4.6 11.251,4.32 11.251,4 L11.251,2.5 C11.251,2.22 11.031,2 10.751,2 L9.241,2 C8.961,2 8.741,2.22 8.741,2.5 L8.741,7 C8.741,7.41 8.401,7.75 7.991,7.75 C7.581,7.75 7.241,7.41 7.241,7 L7.241,4.75 L7.241,2.5 C7.241,2.23 7.041,2.02 6.771,2 L6.741,2 C5.001,2.04 3.651,3.55 3.831,5.3 L4.201,12.05 C4.231,12.58 4.671,13 5.201,13 L18.801,13 C19.331,13 19.771,12.58 19.801,12.05 L20.171,5.3 C20.351,3.53 18.961,2 17.191,2 Z"/>
</svg>

