<svg xmlns="http://www.w3.org/2000/svg" width="24" height="24" viewBox="0 0 24 24">
  <defs/>
  <path fill="#292D32" d="M16.649,4.79 L16.369,4.79 C16.269,4 15.979,3.37 15.519,2.9 C14.919,2.3 14.049,2 12.929,2 L7.349,2 C5.099,2 3.859,3.24 3.859,5.49 C3.859,6.61 4.159,7.48 4.759,8.08 C5.359,8.68 6.229,8.98 7.349,8.98 L12.929,8.98 C14.929,8.98 16.129,7.99 16.369,6.19 L16.649,6.19 C18.739,6.19 18.739,6.47 18.739,8.28 L18.739,10.14 C18.739,11.95 18.739,12.23 16.649,12.23 L12.929,12.23 C9.939,12.23 9.509,13.65 9.449,15.03 C8.549,15.09 7.579,15.51 7.579,17.11 L7.579,19.9 C7.579,21.63 8.719,21.99 9.669,21.99 L10.599,21.99 C11.549,21.99 12.689,21.63 12.689,19.9 L12.689,17.11 C12.689,15.53 11.739,15.09 10.839,15.03 C10.889,14.02 11.179,13.62 12.919,13.62 L16.639,13.62 C19.889,13.62 20.129,12.3 20.129,10.13 L20.129,8.28 C20.139,6.11 19.899,4.79 16.649,4.79 Z"/>
</svg>

