<svg xmlns="http://www.w3.org/2000/svg" width="24" height="24" viewBox="0 0 24 24">
  <defs/>
  <path fill="#292D32" d="M21.81,3.938 C20.5,7.208 17.51,11.478 14.66,14.268 C14.25,11.688 12.19,9.668 9.59,9.308 C12.39,6.448 16.69,3.418 19.97,2.098 C20.55,1.878 21.13,2.048 21.49,2.408 C21.87,2.788 22.05,3.358 21.81,3.938 Z"/>
  <path fill="#292D32" d="M13.779,15.091 C13.579,15.261 13.379,15.431 13.179,15.591 L11.389,17.021 C11.389,16.991 11.379,16.951 11.379,16.911 C11.239,15.841 10.739,14.851 9.929,14.041 C9.109,13.221 8.089,12.721 6.969,12.581 C6.939,12.581 6.899,12.571 6.869,12.571 L8.319,10.741 C8.459,10.561 8.609,10.391 8.769,10.211 L9.449,10.301 C11.599,10.601 13.329,12.291 13.669,14.431 L13.779,15.091 Z"/>
  <path fill="#292D32" d="M10.43,17.621 C10.43,18.721 10.01,19.771 9.21,20.561 C8.6,21.181 7.78,21.601 6.78,21.721 L4.33,21.991 C2.99,22.141 1.84,20.991 1.99,19.641 L2.26,17.181 C2.5,14.991 4.33,13.591 6.27,13.551 C6.46,13.541 6.67,13.551 6.87,13.571 C7.72,13.681 8.54,14.071 9.23,14.751 C9.9,15.421 10.28,16.211 10.39,17.041 C10.41,17.241 10.43,17.431 10.43,17.621 Z"/>
</svg>

