<svg xmlns="http://www.w3.org/2000/svg" width="24" height="24" viewBox="0 0 24 24">
  <defs/>
  <path fill="#292D32" d="M8.75,19.5 L8.75,18.75 L4.5,18.75 Q3.353,18.75 2.56,17.94 Q1.75,17.147 1.75,16 Q1.75,13.519 4.218,13.265 Q4.332,13.25 4.5,13.25 L19.5,13.25 Q19.663,13.25 19.775,13.265 Q20.751,13.354 21.441,14.06 Q22.342,14.945 22.238,16.24 Q22.022,18.75 19.39,18.75 L15.25,18.75 L15.25,19.5 Q15.25,22.75 12,22.75 Q8.75,22.75 8.75,19.5 Z M10.25,19.5 Q10.25,21.25 12,21.25 Q12.724,21.25 13.237,20.737 Q13.75,20.224 13.75,19.5 L13.75,18 Q13.75,17.689 13.97,17.47 Q14.189,17.25 14.5,17.25 L19.39,17.25 Q20.646,17.25 20.742,16.12 Q20.791,15.521 20.386,15.127 Q20.379,15.12 20.372,15.112 Q20.063,14.794 19.628,14.757 Q19.597,14.755 19.567,14.75 L19.5,14.75 L4.5,14.75 L4.433,14.75 Q4.409,14.754 4.384,14.756 Q3.25,14.869 3.25,16 Q3.25,16.519 3.613,16.872 Q3.62,16.88 3.628,16.887 Q3.981,17.25 4.5,17.25 L9.5,17.25 Q9.811,17.25 10.03,17.47 Q10.25,17.689 10.25,18 Z"/>
  <path fill="#292D32" d="M20.549,12.041 L20.439,14.051 Q20.422,14.361 20.191,14.569 Q19.959,14.776 19.649,14.759 Q19.608,14.757 19.567,14.75 L19.5,14.75 L4.5,14.75 L4.433,14.75 Q4.127,14.801 3.874,14.62 Q3.621,14.44 3.57,14.133 Q3.564,14.093 3.561,14.051 L3.082,5.358 Q2.922,3.711 4.033,2.483 Q5.148,1.25 6.81,1.25 L17.19,1.25 Q18.852,1.25 19.968,2.483 Q21.079,3.711 20.918,5.358 L20.769,8.051 Q20.752,8.362 20.52,8.569 Q20.289,8.776 19.979,8.759 Q19.669,8.742 19.461,8.51 Q19.254,8.279 19.271,7.969 L19.421,5.259 Q19.422,5.241 19.424,5.224 Q19.525,4.23 18.855,3.489 Q18.186,2.75 17.19,2.75 L6.81,2.75 Q5.814,2.75 5.145,3.489 Q4.475,4.23 4.576,5.224 Q4.578,5.241 4.579,5.259 L5.019,13.25 L18.981,13.25 L19.051,11.959 Q19.068,11.649 19.3,11.441 Q19.531,11.234 19.841,11.251 Q20.151,11.268 20.359,11.499 Q20.566,11.731 20.549,12.041 Z"/>
  <path fill="#292D32" d="M8.74,2 L8.74,7 Q8.74,7.311 8.521,7.53 Q8.301,7.75 7.99,7.75 Q7.68,7.75 7.46,7.53 Q7.24,7.311 7.24,7 L7.24,2 Q7.24,1.689 7.46,1.47 Q7.68,1.25 7.99,1.25 Q8.301,1.25 8.521,1.47 Q8.74,1.689 8.74,2 Z"/>
  <path fill="#292D32" d="M12.75,2 L12.75,4 Q12.75,4.311 12.53,4.53 Q12.311,4.75 12,4.75 Q11.689,4.75 11.47,4.53 Q11.25,4.311 11.25,4 L11.25,2 Q11.25,1.689 11.47,1.47 Q11.689,1.25 12,1.25 Q12.311,1.25 12.53,1.47 Q12.75,1.689 12.75,2 Z"/>
</svg>

