<svg xmlns="http://www.w3.org/2000/svg" width="24" height="24" viewBox="0 0 24 24">
  <defs/>
  <path fill="#292D32" d="M20,9.07 L4,9.07 C3.59,9.07 3.25,8.73 3.25,8.32 L3.25,4 C3.25,2.48 4.48,1.25 6,1.25 L18,1.25 C19.52,1.25 20.75,2.48 20.75,4 L20.75,8.32 C20.75,8.73 20.41,9.07 20,9.07 Z M4.75,7.57 L19.25,7.57 L19.25,4 C19.25,3.31 18.69,2.75 18,2.75 L6,2.75 C5.31,2.75 4.75,3.31 4.75,4 L4.75,7.57 Z"/>
  <path fill="#292D32" d="M12.5,22.75 L11.5,22.75 C9.98,22.75 8.75,21.52 8.75,20 L8.75,17.9 C8.75,17.45 8.51,17.03 8.11,16.81 L5.15,15.14 C3.97,14.48 3.24,13.23 3.24,11.87 L3.24,8.31 C3.24,7.9 3.58,7.56 3.99,7.56 L19.99,7.56 C20.4,7.56 20.74,7.9 20.74,8.31 L20.74,11.87 C20.74,13.22 20.01,14.47 18.83,15.14 L15.87,16.81 C15.48,17.03 15.23,17.45 15.23,17.9 L15.23,20 C15.25,21.52 14.02,22.75 12.5,22.75 Z M4.75,9.07 L4.75,11.88 C4.75,12.69 5.19,13.44 5.89,13.84 L8.85,15.51 C9.71,16 10.25,16.91 10.25,17.9 L10.25,20 C10.25,20.69 10.81,21.25 11.5,21.25 L12.5,21.25 C13.19,21.25 13.75,20.69 13.75,20 L13.75,17.9 C13.75,16.91 14.29,15.99 15.15,15.51 L18.11,13.84 C18.82,13.44 19.25,12.69 19.25,11.88 L19.25,9.07 L4.75,9.07 Z"/>
</svg>

