<svg xmlns="http://www.w3.org/2000/svg" width="24" height="24" viewBox="0 0 24 24">
  <defs/>
  <path fill="#292D32" d="M13.649,16.175 L11.679,17.755 Q11.664,17.767 11.648,17.779 Q11.132,18.15 10.704,18.318 Q10.415,18.432 10.13,18.307 Q9.845,18.183 9.731,17.894 Q9.679,17.762 9.679,17.62 Q9.679,17.362 9.649,17.167 Q9.647,17.157 9.646,17.147 Q9.509,16.1 8.699,15.29 Q7.874,14.465 6.8,14.317 Q6.762,14.315 6.705,14.312 Q6.444,14.296 6.344,14.306 Q6.035,14.337 5.795,14.14 Q5.554,13.944 5.523,13.635 Q5.507,13.467 5.563,13.309 Q5.774,12.712 6.182,12.241 L7.732,10.284 Q12.533,4.273 19.691,1.413 Q19.699,1.41 19.707,1.407 Q21.055,0.905 22.02,1.89 Q23.05,2.899 22.504,4.223 Q19.635,11.375 13.649,16.175 Z M21.116,3.653 Q21.279,3.261 20.966,2.957 Q20.959,2.95 20.952,2.943 Q20.67,2.653 20.239,2.81 Q13.455,5.523 8.908,11.216 L7.544,12.937 Q8.785,13.255 9.76,14.23 Q10.702,15.172 11.017,16.363 L12.71,15.005 Q18.391,10.45 21.113,3.661 Z"/>
  <path fill="#292D32" d="M11.179,17.62 Q11.179,19.652 9.753,21.097 Q8.601,22.248 6.887,22.473 L4.411,22.745 Q3.045,22.898 2.071,21.921 Q1.092,20.94 1.254,19.562 L1.524,17.108 Q1.985,12.903 6.253,12.81 Q6.5,12.799 6.919,12.821 Q6.947,12.822 6.976,12.826 Q8.593,13.035 9.773,14.233 Q10.94,15.399 11.143,16.952 Q11.147,16.981 11.148,17.01 Q11.151,17.067 11.16,17.187 Q11.179,17.467 11.179,17.62 Z M9.679,17.62 Q9.679,17.519 9.663,17.292 Q9.656,17.187 9.652,17.121 Q9.508,16.089 8.705,15.286 Q7.898,14.467 6.81,14.317 Q6.481,14.301 6.317,14.309 Q6.306,14.309 6.295,14.31 Q3.333,14.371 3.015,17.272 L2.744,19.737 Q2.667,20.394 3.133,20.861 Q3.597,21.327 4.247,21.254 L6.692,20.986 Q7.901,20.827 8.686,20.043 Q9.679,19.037 9.679,17.62 Z"/>
  <path fill="#292D32" opacity="0.4" d="M13.49,14.47 Q13.49,12.823 12.323,11.657 Q11.157,10.49 9.51,10.49 Q9.199,10.49 8.979,10.271 Q8.76,10.051 8.76,9.74 Q8.76,9.43 8.979,9.21 Q9.199,8.99 9.51,8.99 Q11.778,8.99 13.384,10.596 Q14.99,12.202 14.99,14.47 Q14.99,14.781 14.77,15.001 Q14.55,15.22 14.24,15.22 Q13.929,15.22 13.709,15.001 Q13.49,14.781 13.49,14.47 Z"/>
</svg>

