<svg xmlns="http://www.w3.org/2000/svg" width="24" height="24" viewBox="0 0 24 24">
  <defs/>
  <path fill="#292D32" d="M12.98,9.07 L4,9.07 Q3.689,9.07 3.47,8.85 Q3.25,8.631 3.25,8.32 L3.25,4 Q3.25,1.25 6,1.25 L18,1.25 Q20.75,1.25 20.75,4 L20.75,8.32 Q20.75,8.631 20.53,8.85 Q20.311,9.07 20,9.07 L16.93,9.07 Q16.619,9.07 16.4,8.85 Q16.18,8.631 16.18,8.32 Q16.18,8.009 16.4,7.79 Q16.619,7.57 16.93,7.57 L19.25,7.57 L19.25,4 Q19.25,3.486 18.882,3.118 Q18.514,2.75 18,2.75 L6,2.75 Q4.75,2.75 4.75,4 L4.75,7.57 L12.98,7.57 Q13.291,7.57 13.51,7.79 Q13.73,8.009 13.73,8.32 Q13.73,8.631 13.51,8.85 Q13.291,9.07 12.98,9.07 Z"/>
  <path fill="#292D32" d="M4.75,11.88 Q4.75,13.196 5.895,13.835 L8.859,15.507 Q10.26,16.285 10.26,17.9 L10.26,20 Q10.26,21.25 11.51,21.25 L12.51,21.25 Q13.024,21.25 13.392,20.882 Q13.76,20.514 13.76,20 L13.76,17.9 Q13.76,16.285 15.166,15.504 L18.121,13.837 Q19.27,13.189 19.27,11.88 L19.27,8.32 Q19.27,8.009 19.49,7.79 Q19.709,7.57 20.02,7.57 Q20.331,7.57 20.55,7.79 Q20.77,8.009 20.77,8.32 L20.77,11.88 Q20.77,14.066 18.859,15.143 L15.894,16.816 Q15.26,17.168 15.26,17.9 L15.26,20 Q15.26,21.136 14.453,21.943 Q13.646,22.75 12.51,22.75 L11.51,22.75 Q10.374,22.75 9.567,21.943 Q8.76,21.136 8.76,20 L8.76,17.9 Q8.76,17.168 8.121,16.813 L5.165,15.145 Q3.25,14.077 3.25,11.88 Q3.25,11.569 3.47,11.35 Q3.689,11.13 4,11.13 Q4.311,11.13 4.53,11.35 Q4.75,11.569 4.75,11.88 Z"/>
</svg>

