<svg xmlns="http://www.w3.org/2000/svg" width="20" height="20" viewBox="0 0 20 20">
  <defs/>
  <path fill="#292D32" opacity="0.4" d="M14.19,0 L5.81,0 C2.17,0 0,2.17 0,5.81 L0,14.18 C0,17.83 2.17,20 5.81,20 L14.18,20 C17.82,20 19.99,17.83 19.99,14.19 L19.99,5.81 C20,2.17 17.83,0 14.19,0 Z"/>
  <path fill="#292D32" d="M19.83,1.55 C18.78,4.16 16.4,7.57 14.12,9.8 C13.79,7.74 12.15,6.13 10.07,5.84 C12.31,3.56 15.74,1.14 18.36,0.08 C18.82,-0.1 19.29,0.04 19.57,0.33 C19.88,0.63 20.02,1.09 19.83,1.55 Z"/>
  <path fill="#292D32" opacity="0.4" d="M14.12,9.79 C13.72,10.18 13.32,10.54 12.94,10.84 L11.37,12.1 C11.17,12.24 10.97,12.36 10.75,12.46 C10.75,12.31 10.73,12.16 10.72,12 C10.63,11.34 10.33,10.71 9.79,10.17 C9.24,9.63 8.58,9.32 7.91,9.23 C7.75,9.21 7.58,9.21 7.43,9.21 C7.52,8.96 7.65,8.73 7.82,8.54 L9.07,6.97 C9.37,6.59 9.71,6.21 10.08,5.83 C12.15,6.12 13.8,7.74 14.12,9.79 Z"/>
  <path fill="#292D32" d="M10.751,12.47 C10.751,13.35 10.411,14.19 9.781,14.82 C9.291,15.31 8.641,15.65 7.841,15.75 L5.881,15.97 C4.811,16.09 3.891,15.17 4.011,14.09 L4.231,12.13 C4.421,10.38 5.881,9.26 7.431,9.23 C7.581,9.22 7.751,9.23 7.911,9.25 C8.591,9.34 9.241,9.65 9.791,10.19 C10.321,10.72 10.631,11.36 10.721,12.02 C10.731,12.17 10.751,12.32 10.751,12.47 Z"/>
</svg>

