<svg xmlns="http://www.w3.org/2000/svg" width="24" height="24" viewBox="0 0 24 24">
  <defs/>
  <path fill="#292D32" d="M15.591,1.75 C12.621,1.75 10.211,4.16 10.211,7.13 C10.211,10.1 12.621,12.51 15.591,12.51 C18.561,12.51 20.971,10.1 20.971,7.13 C20.971,4.16 18.561,1.75 15.591,1.75 Z"/>
  <path fill="#292D32" d="M6.359,13.031 C4.529,13.031 3.029,14.521 3.029,16.361 C3.029,18.201 4.519,19.691 6.359,19.691 C8.189,19.691 9.689,18.201 9.689,16.361 C9.689,14.521 8.189,13.031 6.359,13.031 Z"/>
  <path fill="#292D32" d="M16.62,16.621 C15.07,16.621 13.81,17.881 13.81,19.431 C13.81,20.981 15.07,22.241 16.62,22.241 C18.171,22.241 19.43,20.981 19.43,19.431 C19.43,17.881 18.171,16.621 16.62,16.621 Z"/>
</svg>

