<svg xmlns="http://www.w3.org/2000/svg" width="24" height="24" viewBox="0 0 24 24">
  <defs/>
  <path fill="#292D32" d="M15.591,13.01 C12.351,13.01 9.711,10.37 9.711,7.13 C9.711,3.89 12.351,1.25 15.591,1.25 C18.831,1.25 21.471,3.89 21.471,7.13 C21.471,10.37 18.831,13.01 15.591,13.01 Z M15.591,2.75 C13.181,2.75 11.211,4.71 11.211,7.13 C11.211,9.55 13.171,11.51 15.591,11.51 C18.011,11.51 19.971,9.55 19.971,7.13 C19.971,4.71 18.001,2.75 15.591,2.75 Z"/>
  <path fill="#292D32" d="M6.361,20.19 C4.251,20.19 2.531,18.47 2.531,16.36 C2.531,14.25 4.251,12.53 6.361,12.53 C8.471,12.53 10.191,14.25 10.191,16.36 C10.191,18.47 8.471,20.19 6.361,20.19 Z M6.361,14.03 C5.081,14.03 4.031,15.07 4.031,16.36 C4.031,17.64 5.071,18.69 6.361,18.69 C7.641,18.69 8.691,17.65 8.691,16.36 C8.691,15.08 7.641,14.03 6.361,14.03 Z"/>
  <path fill="#292D32" d="M16.62,22.75 C14.79,22.75 13.31,21.26 13.31,19.44 C13.31,17.61 14.8,16.13 16.62,16.13 C18.441,16.13 19.93,17.62 19.93,19.44 C19.93,21.26 18.441,22.75 16.62,22.75 Z M16.62,17.62 C15.62,17.62 14.81,18.43 14.81,19.43 C14.81,20.43 15.62,21.24 16.62,21.24 C17.62,21.24 18.43,20.43 18.43,19.43 C18.43,18.44 17.62,17.62 16.62,17.62 Z"/>
</svg>

