<svg xmlns="http://www.w3.org/2000/svg" width="24" height="24" viewBox="0 0 24 24">
  <defs/>
  <path fill="#292D32" d="M15.591,1.75 C12.621,1.75 10.211,4.16 10.211,7.13 C10.211,10.1 12.621,12.51 15.591,12.51 C18.561,12.51 20.971,10.1 20.971,7.13 C20.971,4.16 18.561,1.75 15.591,1.75 Z"/>
  <path fill="#292D32" opacity="0.4" d="M6.359,13.03 C4.529,13.03 3.029,14.52 3.029,16.36 C3.029,18.2 4.519,19.69 6.359,19.69 C8.189,19.69 9.689,18.2 9.689,16.36 C9.689,14.52 8.189,13.03 6.359,13.03 Z"/>
  <path fill="#292D32" opacity="0.4" d="M16.62,16.62 C15.07,16.62 13.81,17.88 13.81,19.43 C13.81,20.98 15.07,22.24 16.62,22.24 C18.171,22.24 19.43,20.98 19.43,19.43 C19.43,17.88 18.171,16.62 16.62,16.62 Z"/>
</svg>

