<svg xmlns="http://www.w3.org/2000/svg" width="24" height="24" viewBox="0 0 24 24">
  <defs/>
  <path fill="#292D32" opacity="0.4" d="M16.19,2 L7.82,2 C4.18,2 2.01,4.17 2.01,7.81 L2.01,16.18 C2.01,19.82 4.18,21.99 7.82,21.99 L16.19,21.99 C19.83,21.99 22,19.82 22,16.18 L22,7.81 C22,4.17 19.83,2 16.19,2 Z"/>
  <path fill="#292D32" d="M15.659,11.93 C15.649,11.79 15.589,11.64 15.489,11.54 L10.79,6.84 L10.239,6.29 C10.05,6.1 9.749,6.1 9.559,6.29 C9.369,6.48 9.369,6.78 9.559,6.97 L10.11,7.52 L6.51,11.12 C6.099,11.53 5.879,11.95 5.869,12.36 C5.859,12.8 6.069,13.24 6.51,13.69 L9.079,16.26 C9.939,17.11 10.8,17.11 11.649,16.26 L15.499,12.41 C15.61,12.27 15.669,12.09 15.659,11.93 Z"/>
  <path fill="#292D32" d="M16.959,14.19 C16.799,14.01 16.489,14.01 16.319,14.19 C16.119,14.4 15.129,15.52 15.129,16.36 C15.129,17.19 15.799,17.86 16.629,17.86 C17.459,17.86 18.129,17.19 18.129,16.36 C18.139,15.52 17.159,14.41 16.959,14.19 Z"/>
</svg>

