<svg xmlns="http://www.w3.org/2000/svg" width="24" height="24" viewBox="0 0 24 24">
  <defs/>
  <path fill="#292D32" d="M10.609,17.31 C10.019,17.31 9.429,17.04 8.879,16.49 L6.489,14.1 C5.389,13 5.389,11.74 6.489,10.65 L10.479,6.66 C10.619,6.52 10.809,6.44 11.009,6.44 C11.209,6.44 11.399,6.52 11.539,6.66 L15.929,11.05 C16.179,11.3 16.309,11.63 16.309,11.98 C16.309,12.33 16.169,12.66 15.919,12.91 L12.329,16.5 C11.789,17.03 11.199,17.31 10.609,17.31 Z M11.009,8.24 L7.549,11.7 C7.379,11.87 7.169,12.13 7.169,12.37 C7.169,12.61 7.379,12.86 7.549,13.04 L9.939,15.43 C10.109,15.6 10.369,15.81 10.609,15.81 C10.849,15.81 11.099,15.6 11.279,15.43 L14.739,11.97 L11.009,8.24 Z"/>
  <path fill="#292D32" d="M11.01,7.93 C10.82,7.93 10.63,7.86 10.48,7.71 L9.68,6.91 C9.39,6.62 9.39,6.14 9.68,5.85 C9.97,5.56 10.45,5.56 10.74,5.85 L11.54,6.65 C11.83,6.94 11.83,7.42 11.54,7.71 C11.39,7.86 11.2,7.93 11.01,7.93 Z"/>
  <path fill="#292D32" d="M6.46,13.08 C6.06,13.08 5.73,12.77 5.71,12.36 C5.69,11.95 6.01,11.6 6.43,11.58 L15.46,11.19 C15.87,11.16 16.22,11.49 16.24,11.91 C16.26,12.33 15.94,12.67 15.52,12.69 L6.49,13.08 C6.48,13.08 6.47,13.08 6.46,13.08 Z"/>
  <path fill="#292D32" d="M16.471,17.95 C15.451,17.95 14.621,17.12 14.621,16.1 C14.621,15.15 15.621,13.99 15.921,13.66 C16.201,13.35 16.741,13.35 17.021,13.66 C17.321,13.99 18.321,15.15 18.321,16.1 C18.331,17.12 17.501,17.95 16.471,17.95 Z M16.471,15.38 C16.261,15.69 16.121,15.97 16.121,16.1 C16.121,16.29 16.281,16.45 16.471,16.45 C16.661,16.45 16.821,16.29 16.821,16.1 C16.831,15.97 16.681,15.69 16.471,15.38 Z"/>
  <path fill="#292D32" d="M12,22.75 C6.07,22.75 1.25,17.93 1.25,12 C1.25,6.07 6.07,1.25 12,1.25 C17.93,1.25 22.75,6.07 22.75,12 C22.75,17.93 17.93,22.75 12,22.75 Z M12,2.75 C6.9,2.75 2.75,6.9 2.75,12 C2.75,17.1 6.9,21.25 12,21.25 C17.1,21.25 21.25,17.1 21.25,12 C21.25,6.9 17.1,2.75 12,2.75 Z"/>
</svg>

