<svg xmlns="http://www.w3.org/2000/svg" width="24" height="24" viewBox="0 0 24 24">
  <defs/>
  <path fill="#292D32" d="M8.88,16.48 L6.49,14.09 Q5.67,13.271 5.67,12.361 Q5.67,11.449 6.493,10.636 L10.48,6.65 Q10.699,6.43 11.01,6.43 Q11.321,6.43 11.54,6.65 L15.93,11.04 Q16.861,11.97 15.93,12.9 L12.34,16.49 Q10.604,18.205 8.88,16.48 Z M9.94,15.42 Q10.611,16.09 11.28,15.43 L14.739,11.97 L11.01,8.241 L7.547,11.704 Q7.17,12.076 7.17,12.361 Q7.17,12.649 7.55,13.03 L9.94,15.42 Z"/>
  <path fill="#292D32" d="M10.739,5.85 L11.539,6.65 Q11.759,6.869 11.759,7.18 Q11.759,7.491 11.539,7.71 Q11.32,7.93 11.009,7.93 Q10.698,7.93 10.479,7.71 L9.679,6.91 Q9.459,6.691 9.459,6.38 Q9.459,6.069 9.679,5.85 Q9.898,5.63 10.209,5.63 Q10.52,5.63 10.739,5.85 Z"/>
  <path fill="#292D32" d="M6.427,11.581 L15.457,11.191 Q15.767,11.177 15.996,11.387 Q16.225,11.597 16.238,11.908 Q16.252,12.218 16.042,12.447 Q15.832,12.676 15.521,12.689 L6.491,13.079 Q6.181,13.093 5.952,12.883 Q5.723,12.673 5.71,12.362 Q5.696,12.052 5.906,11.823 Q6.116,11.594 6.427,11.581 Z"/>
  <path fill="#292D32" d="M15.916,13.663 Q15.936,13.641 15.958,13.621 Q16.185,13.41 16.495,13.42 Q16.806,13.431 17.018,13.658 Q18.333,15.069 18.319,16.1 Q18.319,16.861 17.78,17.404 Q17.237,17.95 16.469,17.95 Q15.708,17.95 15.165,17.411 Q14.619,16.868 14.619,16.1 Q14.619,15.078 15.916,13.663 Z M16.473,15.338 Q16.119,15.826 16.119,16.1 Q16.119,16.45 16.469,16.45 Q16.613,16.45 16.716,16.346 Q16.819,16.242 16.819,16.1 Q16.823,15.82 16.473,15.338 Z"/>
  <path fill="#292D32" d="M4.6,6.449 Q2.75,8.922 2.75,12 Q2.75,15.829 5.46,18.54 Q8.171,21.25 12,21.25 Q15.829,21.25 18.54,18.54 Q21.25,15.829 21.25,12 Q21.25,8.171 18.54,5.46 Q15.829,2.75 12,2.75 Q10.031,2.75 8.276,3.535 Q7.993,3.661 7.702,3.551 Q7.412,3.44 7.285,3.156 Q7.159,2.873 7.269,2.582 Q7.38,2.292 7.664,2.165 Q9.711,1.25 12,1.25 Q16.451,1.25 19.6,4.4 Q22.75,7.549 22.75,12 Q22.75,16.451 19.6,19.6 Q16.451,22.75 12,22.75 Q7.549,22.75 4.4,19.6 Q1.25,16.451 1.25,12 Q1.25,8.422 3.4,5.551 Q3.586,5.302 3.893,5.258 Q4.201,5.213 4.449,5.4 Q4.698,5.586 4.742,5.893 Q4.787,6.201 4.6,6.449 Z"/>
</svg>

