<svg xmlns="http://www.w3.org/2000/svg" width="24" height="24" viewBox="0 0 24 24">
  <defs/>
  <path fill="#292D32" d="M8.41,17.46 L5.58,14.63 Q3.634,12.685 5.58,10.74 L10.3,6.02 Q10.519,5.8 10.83,5.8 Q11.141,5.8 11.36,6.02 L16.55,11.21 Q16.965,11.624 16.965,12.21 Q16.965,12.796 16.55,13.21 L12.3,17.46 Q11.376,18.385 10.355,18.385 Q9.334,18.385 8.41,17.46 Z M9.47,16.4 Q9.956,16.885 10.355,16.885 Q10.754,16.885 11.24,16.4 L15.429,12.21 L10.83,7.611 L6.64,11.8 Q5.756,12.685 6.64,13.57 Z"/>
  <path fill="#292D32" d="M10.408,5.067 L11.358,6.007 Q11.578,6.225 11.58,6.536 Q11.582,6.847 11.363,7.068 Q11.145,7.288 10.834,7.29 Q10.523,7.292 10.302,7.073 L9.352,6.133 Q9.132,5.915 9.13,5.604 Q9.128,5.293 9.347,5.073 Q9.565,4.852 9.876,4.85 Q10.187,4.848 10.408,5.067 Z"/>
  <path fill="#292D32" d="M5.407,11.891 L16.097,11.421 Q16.407,11.407 16.637,11.617 Q16.866,11.827 16.879,12.137 Q16.893,12.448 16.683,12.677 Q16.473,12.906 16.163,12.919 L5.473,13.389 Q5.163,13.403 4.933,13.193 Q4.704,12.983 4.691,12.673 Q4.677,12.363 4.887,12.134 Q5.097,11.904 5.407,11.891 Z"/>
  <path fill="#292D32" d="M16.749,14.302 Q16.77,14.278 16.794,14.257 Q17.023,14.047 17.333,14.061 Q17.643,14.075 17.853,14.304 Q19.347,15.935 19.36,17.1 Q19.36,19.16 17.3,19.16 Q15.24,19.16 15.24,17.1 Q15.24,15.937 16.749,14.302 Z M17.298,15.967 Q16.74,16.691 16.74,17.1 Q16.74,17.66 17.3,17.66 Q17.86,17.66 17.86,17.1 Q17.855,16.693 17.298,15.967 Z"/>
  <path fill="#292D32" d="M22.75,15 Q22.75,22.75 15,22.75 L9,22.75 Q1.25,22.75 1.25,15 L1.25,9 Q1.25,1.25 9,1.25 L15,1.25 Q22.75,1.25 22.75,9 Z M21.25,15 L21.25,9 Q21.25,2.75 15,2.75 L9,2.75 Q2.75,2.75 2.75,9 L2.75,15 Q2.75,18.439 4.155,19.845 Q5.561,21.25 9,21.25 L15,21.25 Q18.439,21.25 19.845,19.845 Q21.25,18.439 21.25,15 Z"/>
</svg>

