<svg xmlns="http://www.w3.org/2000/svg" width="24" height="24" viewBox="0 0 24 24">
  <defs/>
  <path fill="#292D32" d="M9.02,19.75 C8.16,19.75 7.3,19.34 6.48,18.52 L2.47,14.51 C1.66,13.7 1.25,12.85 1.25,11.97 C1.25,11.1 1.66,10.24 2.47,9.43 L9.15,2.75 C9.29,2.61 9.48,2.53 9.68,2.53 C9.88,2.53 10.07,2.61 10.21,2.75 L17.56,10.1 C17.88,10.42 18.06,10.84 18.06,11.3 C18.06,11.75 17.88,12.18 17.56,12.5 L11.54,18.52 C10.74,19.34 9.88,19.75 9.02,19.75 Z M9.69,4.35 L3.54,10.5 C3.02,11.02 2.76,11.52 2.76,11.98 C2.76,12.44 3.02,12.94 3.54,13.45 L7.55,17.46 C8.6,18.51 9.45,18.51 10.5,17.46 L16.52,11.44 C16.58,11.38 16.59,11.23 16.52,11.16 L9.69,4.35 Z"/>
  <path fill="#292D32" d="M9.689,4.04 C9.499,4.04 9.309,3.97 9.159,3.82 L7.819,2.48 C7.529,2.19 7.529,1.71 7.819,1.42 C8.109,1.13 8.589,1.13 8.879,1.42 L10.219,2.76 C10.509,3.05 10.509,3.53 10.219,3.82 C10.069,3.97 9.879,4.04 9.689,4.04 Z"/>
  <path fill="#292D32" d="M2.071,12.67 C1.671,12.67 1.341,12.36 1.321,11.95 C1.301,11.54 1.621,11.19 2.041,11.17 L17.171,10.51 C17.581,10.49 17.931,10.81 17.951,11.23 C17.971,11.64 17.651,11.99 17.231,12.01 L2.101,12.67 C2.091,12.67 2.081,12.67 2.071,12.67 Z"/>
  <path fill="#292D32" d="M16,22.75 L3,22.75 C2.59,22.75 2.25,22.41 2.25,22 C2.25,21.59 2.59,21.25 3,21.25 L16,21.25 C16.41,21.25 16.75,21.59 16.75,22 C16.75,22.41 16.41,22.75 16,22.75 Z"/>
  <path fill="#292D32" d="M18.85,20.83 C17.42,20.83 16.25,19.66 16.25,18.23 C16.25,16.78 17.96,14.86 18.3,14.48 C18.58,14.17 19.12,14.17 19.4,14.48 C19.74,14.85 21.45,16.77 21.45,18.22 C21.45,19.67 20.28,20.83 18.85,20.83 Z M18.85,16.17 C18.3,16.89 17.75,17.77 17.75,18.24 C17.75,18.85 18.24,19.34 18.85,19.34 C19.46,19.34 19.95,18.85 19.95,18.24 C19.95,17.76 19.4,16.88 18.85,16.17 Z"/>
</svg>

