<svg xmlns="http://www.w3.org/2000/svg" width="24" height="24" viewBox="0 0 24 24">
  <defs/>
  <path fill="#292D32" d="M16.19,2 L7.81,2 C4.17,2 2,4.17 2,7.81 L2,16.18 C2,19.83 4.17,22 7.81,22 L16.18,22 C19.82,22 21.99,19.83 21.99,16.19 L21.99,7.81 C22,4.17 19.83,2 16.19,2 Z M9.06,16.25 L6.5,13.68 C6.06,13.24 5.85,12.8 5.86,12.35 C5.87,11.93 6.09,11.52 6.5,11.11 L10.1,7.51 L9.54,6.96 C9.35,6.77 9.35,6.47 9.54,6.28 C9.73,6.09 10.03,6.09 10.22,6.28 L10.77,6.83 L15.47,11.53 C15.57,11.63 15.64,11.78 15.64,11.92 C15.65,12.09 15.6,12.26 15.47,12.39 L11.62,16.24 C10.78,17.1 9.92,17.1 9.06,16.25 Z M16.64,17.86 C15.81,17.86 15.14,17.19 15.14,16.36 C15.14,15.52 16.13,14.41 16.33,14.19 C16.49,14.01 16.8,14.01 16.97,14.19 C17.17,14.4 18.16,15.52 18.16,16.36 C18.14,17.19 17.47,17.86 16.64,17.86 Z"/>
</svg>

