<svg xmlns="http://www.w3.org/2000/svg" width="24" height="24" viewBox="0 0 24 24">
  <defs/>
  <path fill="#292D32" d="M8.409,17.46 L5.579,14.63 Q3.634,12.685 5.579,10.74 L10.299,6.02 Q10.519,5.8 10.829,5.8 Q11.14,5.8 11.36,6.02 L16.55,11.21 Q16.964,11.624 16.964,12.21 Q16.964,12.796 16.55,13.21 L12.3,17.46 Q11.375,18.385 10.354,18.385 Q9.334,18.385 8.409,17.46 Z M9.47,16.4 Q9.955,16.885 10.354,16.885 Q10.754,16.885 11.239,16.4 L15.429,12.21 L10.829,7.611 L6.64,11.8 Q5.755,12.685 6.64,13.57 Z"/>
  <path fill="#292D32" d="M10.406,5.067 L11.356,6.007 Q11.577,6.225 11.579,6.536 Q11.581,6.847 11.362,7.068 Q11.144,7.288 10.833,7.29 Q10.522,7.292 10.301,7.073 L9.351,6.133 Q9.131,5.915 9.129,5.604 Q9.127,5.293 9.346,5.073 Q9.564,4.852 9.875,4.85 Q10.186,4.848 10.406,5.067 Z"/>
  <path fill="#292D32" d="M5.407,11.891 L16.097,11.421 Q16.407,11.407 16.636,11.617 Q16.865,11.827 16.879,12.137 Q16.892,12.448 16.683,12.677 Q16.473,12.906 16.162,12.919 L5.472,13.389 Q5.162,13.403 4.933,13.193 Q4.704,12.983 4.69,12.673 Q4.677,12.363 4.886,12.134 Q5.096,11.904 5.407,11.891 Z"/>
  <path fill="#292D32" d="M16.749,14.302 Q16.77,14.278 16.794,14.257 Q17.023,14.047 17.333,14.061 Q17.644,14.075 17.853,14.304 Q19.347,15.935 19.36,17.1 Q19.36,19.16 17.3,19.16 Q16.45,19.16 15.845,18.555 Q15.24,17.951 15.24,17.1 Q15.24,15.937 16.749,14.302 Z M17.298,15.967 Q16.74,16.691 16.74,17.1 Q16.74,17.66 17.3,17.66 Q17.86,17.66 17.86,17.1 Q17.855,16.693 17.298,15.967 Z"/>
  <path fill="#292D32" d="M2.75,12.97 L2.75,15 Q2.75,18.439 4.155,19.845 Q5.561,21.25 9,21.25 L15,21.25 Q18.439,21.25 19.845,19.845 Q21.25,18.439 21.25,15 L21.25,9 Q21.25,2.75 15,2.75 L9,2.75 Q2.75,2.75 2.75,9 Q2.75,9.311 2.53,9.53 Q2.311,9.75 2,9.75 Q1.689,9.75 1.47,9.53 Q1.25,9.311 1.25,9 Q1.25,1.25 9,1.25 L15,1.25 Q22.75,1.25 22.75,9 L22.75,15 Q22.75,22.75 15,22.75 L9,22.75 Q1.25,22.75 1.25,15 L1.25,12.97 Q1.25,12.659 1.47,12.44 Q1.689,12.22 2,12.22 Q2.311,12.22 2.53,12.44 Q2.75,12.659 2.75,12.97 Z"/>
</svg>

