<svg xmlns="http://www.w3.org/2000/svg" width="24" height="24" viewBox="0 0 24 24">
  <defs/>
  <path fill="#292D32" d="M6.479,18.53 L2.469,14.52 Q1.244,13.295 1.244,11.985 Q1.244,10.674 2.469,9.449 L9.149,2.769 Q9.368,2.55 9.679,2.55 Q9.99,2.55 10.209,2.769 L17.559,10.119 Q18.76,11.32 17.559,12.52 L11.539,18.54 Q9.024,21.056 6.481,18.532 Z M7.537,17.467 Q7.538,17.468 7.539,17.469 Q9.021,18.938 10.479,17.479 L16.499,11.459 Q16.638,11.32 16.499,11.18 L9.679,4.36 L3.529,10.51 Q2.744,11.295 2.744,11.985 Q2.744,12.674 3.529,13.459 Z"/>
  <path fill="#292D32" d="M8.88,1.42 L10.22,2.76 Q10.44,2.979 10.44,3.29 Q10.44,3.601 10.22,3.82 Q10,4.04 9.69,4.04 Q9.379,4.04 9.159,3.82 L7.819,2.481 Q7.6,2.261 7.6,1.95 Q7.6,1.64 7.819,1.42 Q8.039,1.2 8.35,1.2 Q8.66,1.2 8.88,1.42 Z"/>
  <path fill="#292D32" opacity="0.4" d="M2.038,11.17 L17.158,10.511 Q17.468,10.497 17.697,10.707 Q17.926,10.917 17.94,11.227 Q17.953,11.537 17.743,11.767 Q17.533,11.996 17.223,12.009 L2.103,12.669 Q1.793,12.683 1.564,12.473 Q1.335,12.263 1.321,11.952 Q1.307,11.642 1.517,11.413 Q1.727,11.184 2.038,11.17 Z"/>
  <path fill="#292D32" d="M3,21.25 L16,21.25 Q16.311,21.25 16.53,21.47 Q16.75,21.689 16.75,22 Q16.75,22.311 16.53,22.53 Q16.311,22.75 16,22.75 L3,22.75 Q2.689,22.75 2.47,22.53 Q2.25,22.311 2.25,22 Q2.25,21.689 2.47,21.47 Q2.689,21.25 3,21.25 Z"/>
  <path fill="#292D32" opacity="0.4" d="M18.298,14.492 Q18.319,14.469 18.342,14.448 Q18.571,14.238 18.881,14.251 Q19.191,14.264 19.402,14.492 Q21.45,16.717 21.45,18.24 Q21.45,20.84 18.85,20.84 Q16.25,20.84 16.25,18.24 Q16.25,16.717 18.298,14.492 Z M18.85,16.139 Q17.75,17.475 17.75,18.24 Q17.75,19.34 18.85,19.34 Q19.95,19.34 19.95,18.24 Q19.95,17.475 18.85,16.139 Z"/>
</svg>

