<svg xmlns="http://www.w3.org/2000/svg" width="24" height="24" viewBox="0 0 24 24">
  <defs/>
  <path fill="#292D32" d="M10.351,18.39 C9.671,18.39 9.021,18.08 8.401,17.46 L5.571,14.63 C4.331,13.39 4.331,11.97 5.571,10.74 L10.291,6.02 C10.581,5.73 11.061,5.73 11.351,6.02 L16.541,11.21 C16.811,11.48 16.951,11.83 16.951,12.21 C16.951,12.59 16.801,12.95 16.541,13.21 L12.291,17.46 C11.691,18.08 11.031,18.39 10.351,18.39 Z M10.831,7.6 L6.641,11.79 C6.321,12.11 6.151,12.41 6.151,12.68 C6.151,12.94 6.311,13.24 6.641,13.57 L9.471,16.4 C10.121,17.05 10.591,17.05 11.241,16.4 L15.431,12.21 L10.831,7.6 Z"/>
  <path fill="#292D32" d="M10.83,7.29 C10.64,7.29 10.45,7.22 10.3,7.07 L9.36,6.13 C9.07,5.84 9.07,5.36 9.36,5.07 C9.65,4.78 10.13,4.78 10.42,5.07 L11.36,6.01 C11.65,6.3 11.65,6.78 11.36,7.07 C11.21,7.22 11.02,7.29 10.83,7.29 Z"/>
  <path fill="#292D32" d="M5.44,13.39 C5.04,13.39 4.71,13.08 4.69,12.67 C4.67,12.26 4.99,11.91 5.41,11.89 L16.09,11.42 C16.5,11.38 16.85,11.72 16.87,12.14 C16.89,12.55 16.57,12.9 16.15,12.92 L5.47,13.39 C5.46,13.39 5.45,13.39 5.44,13.39 Z"/>
  <path fill="#292D32" d="M17.3,19.15 C16.17,19.15 15.24,18.23 15.24,17.09 C15.24,16.01 16.39,14.68 16.74,14.3 C17.02,13.99 17.56,13.99 17.84,14.3 C18.19,14.68 19.34,16.02 19.34,17.09 C19.35,18.23 18.43,19.15 17.3,19.15 Z M17.3,16 C16.99,16.44 16.74,16.88 16.74,17.09 C16.74,17.39 16.99,17.65 17.3,17.65 C17.61,17.65 17.86,17.4 17.86,17.09 C17.85,16.88 17.61,16.44 17.3,16 Z"/>
  <path fill="#292D32" d="M15,22.75 L9,22.75 C3.57,22.75 1.25,20.43 1.25,15 L1.25,9 C1.25,3.57 3.57,1.25 9,1.25 L15,1.25 C20.43,1.25 22.75,3.57 22.75,9 L22.75,15 C22.75,20.43 20.43,22.75 15,22.75 Z M9,2.75 C4.39,2.75 2.75,4.39 2.75,9 L2.75,15 C2.75,19.61 4.39,21.25 9,21.25 L15,21.25 C19.61,21.25 21.25,19.61 21.25,15 L21.25,9 C21.25,4.39 19.61,2.75 15,2.75 L9,2.75 Z"/>
</svg>

