<svg xmlns="http://www.w3.org/2000/svg" width="24" height="24" viewBox="0 0 24 24">
  <defs/>
  <path fill="#292D32" d="M17.311,11.25 C17.331,11.51 17.241,11.78 17.041,11.98 L11.021,18 C9.691,19.33 8.351,19.33 7.011,18 L3.001,13.99 C2.321,13.3 1.981,12.61 2.001,11.92 L2.071,11.92 L17.191,11.26 L17.311,11.25 Z"/>
  <path fill="#292D32" opacity="0.4" d="M17.04,10.64 L9.69,3.29 L8.82,2.42 C8.53,2.13 8.05,2.13 7.76,2.42 C7.47,2.71 7.47,3.19 7.76,3.48 L8.63,4.35 L3,9.98 C2.36,10.62 2.02,11.27 2,11.92 L2.07,11.92 L17.19,11.26 L17.31,11.25 C17.3,11.03 17.2,10.8 17.04,10.64 Z"/>
  <path fill="#292D32" d="M16,22.75 L3,22.75 C2.59,22.75 2.25,22.41 2.25,22 C2.25,21.59 2.59,21.25 3,21.25 L16,21.25 C16.41,21.25 16.75,21.59 16.75,22 C16.75,22.41 16.41,22.75 16,22.75 Z"/>
  <path fill="#292D32" d="M19.35,14.78 C19.09,14.5 18.61,14.5 18.35,14.78 C18.04,15.12 16.5,16.86 16.5,18.17 C16.5,19.47 17.55,20.52 18.85,20.52 C20.15,20.52 21.2,19.47 21.2,18.17 C21.2,16.86 19.66,15.12 19.35,14.78 Z"/>
</svg>

