<svg xmlns="http://www.w3.org/2000/svg" width="24" height="24" viewBox="0 0 24 24">
  <defs/>
  <path fill="#292D32" d="M17.041,10.641 L9.691,3.291 L8.821,2.421 C8.531,2.131 8.051,2.131 7.761,2.421 C7.471,2.711 7.471,3.191 7.761,3.481 L8.631,4.351 L3.001,9.981 C2.361,10.621 2.021,11.271 2.001,11.921 C1.981,12.611 2.321,13.301 3.001,13.991 L7.011,18.001 C8.351,19.331 9.691,19.331 11.021,18.001 L17.041,11.981 C17.241,11.781 17.331,11.511 17.311,11.251 C17.301,11.031 17.201,10.801 17.041,10.641 Z"/>
  <path fill="#292D32" d="M16,22.75 L3,22.75 C2.59,22.75 2.25,22.41 2.25,22 C2.25,21.59 2.59,21.25 3,21.25 L16,21.25 C16.41,21.25 16.75,21.59 16.75,22 C16.75,22.41 16.41,22.75 16,22.75 Z"/>
  <path fill="#292D32" d="M19.35,14.78 C19.09,14.5 18.61,14.5 18.35,14.78 C18.04,15.12 16.5,16.85 16.5,18.17 C16.5,19.47 17.55,20.52 18.85,20.52 C20.15,20.52 21.2,19.47 21.2,18.17 C21.2,16.86 19.66,15.12 19.35,14.78 Z"/>
</svg>

