<svg xmlns="http://www.w3.org/2000/svg" width="24" height="24" viewBox="0 0 24 24">
  <defs/>
  <path fill="#292D32" d="M6.7,18.75 L4.15,18.75 C2.31,18.75 1.25,17.69 1.25,15.85 L1.25,4.15 C1.25,2.31 2.31,1.25 4.15,1.25 L8.45,1.25 C10.29,1.25 11.35,2.31 11.35,4.15 L11.35,6 C11.35,6.41 11.01,6.75 10.6,6.75 C10.19,6.75 9.85,6.41 9.85,6 L9.85,4.15 C9.85,3.13 9.47,2.75 8.45,2.75 L4.15,2.75 C3.13,2.75 2.75,3.13 2.75,4.15 L2.75,15.85 C2.75,16.87 3.13,17.25 4.15,17.25 L6.7,17.25 C7.11,17.25 7.45,17.59 7.45,18 C7.45,18.41 7.11,18.75 6.7,18.75 Z"/>
  <path fill="#292D32" d="M14.96,22.75 L9.12,22.75 C7.11,22.75 5.95,21.59 5.95,19.58 L5.95,8.42 C5.95,6.41 7.11,5.25 9.12,5.25 L14.96,5.25 C16.97,5.25 18.12,6.41 18.12,8.42 L18.12,19.58 C18.12,21.59 16.97,22.75 14.96,22.75 Z M9.12,6.75 C7.92,6.75 7.45,7.22 7.45,8.42 L7.45,19.58 C7.45,20.78 7.92,21.25 9.12,21.25 L14.96,21.25 C16.15,21.25 16.62,20.78 16.62,19.58 L16.62,8.42 C16.62,7.22 16.15,6.75 14.96,6.75 L9.12,6.75 Z"/>
  <path fill="#292D32" d="M19.85,18.75 L17.37,18.75 C16.96,18.75 16.62,18.41 16.62,18 C16.62,17.59 16.96,17.25 17.37,17.25 L19.85,17.25 C20.87,17.25 21.25,16.87 21.25,15.85 L21.25,4.15 C21.25,3.13 20.87,2.75 19.85,2.75 L15.55,2.75 C14.53,2.75 14.15,3.13 14.15,4.15 L14.15,6 C14.15,6.41 13.81,6.75 13.4,6.75 C12.99,6.75 12.65,6.41 12.65,6 L12.65,4.15 C12.65,2.31 13.71,1.25 15.55,1.25 L19.85,1.25 C21.69,1.25 22.75,2.31 22.75,4.15 L22.75,15.85 C22.75,17.69 21.69,18.75 19.85,18.75 Z"/>
  <path fill="#292D32" d="M14,11.75 L10,11.75 C9.59,11.75 9.25,11.41 9.25,11 C9.25,10.59 9.59,10.25 10,10.25 L14,10.25 C14.41,10.25 14.75,10.59 14.75,11 C14.75,11.41 14.41,11.75 14,11.75 Z"/>
  <path fill="#292D32" d="M14,14.75 L10,14.75 C9.59,14.75 9.25,14.41 9.25,14 C9.25,13.59 9.59,13.25 10,13.25 L14,13.25 C14.41,13.25 14.75,13.59 14.75,14 C14.75,14.41 14.41,14.75 14,14.75 Z"/>
  <path fill="#292D32" d="M12,22.75 C11.59,22.75 11.25,22.41 11.25,22 L11.25,19 C11.25,18.59 11.59,18.25 12,18.25 C12.41,18.25 12.75,18.59 12.75,19 L12.75,22 C12.75,22.41 12.41,22.75 12,22.75 Z"/>
</svg>

