<svg xmlns="http://www.w3.org/2000/svg" width="24" height="24" viewBox="0 0 24 24">
  <defs/>
  <path fill="#292D32" opacity="0.6" d="M10.11,4 C10.03,4.3 10,4.63 10,5 L10,8 L5,8 L5,6 C5,4.9 5.9,4 7,4 L10.11,4 Z"/>
  <path fill="#292D32" d="M10,19 L10,8 L5,8 C3,8 2,9 2,11 L2,19 C2,21 3,22 5,22 L13,22 C11,22 10,21 10,19 Z M6.75,17 C6.75,17.41 6.41,17.75 6,17.75 C5.59,17.75 5.25,17.41 5.25,17 L5.25,13 C5.25,12.59 5.59,12.25 6,12.25 C6.41,12.25 6.75,12.59 6.75,13 L6.75,17 Z"/>
  <path fill="#292D32" opacity="0.4" d="M14,22 L13,22 C11,22 10,21 10,19 L10,5 C10,3 11,2 13,2 L19,2 C21,2 22,3 22,5 L22,19 C22,21 21,22 19,22 L18,22"/>
  <path fill="#292D32" d="M18,18 L18,22 L14,22 L14,18 C14,17.45 14.45,17 15,17 L17,17 C17.55,17 18,17.45 18,18 Z"/>
  <path fill="#292D32" d="M14,13.75 C13.59,13.75 13.25,13.41 13.25,13 L13.25,8 C13.25,7.59 13.59,7.25 14,7.25 C14.41,7.25 14.75,7.59 14.75,8 L14.75,13 C14.75,13.41 14.41,13.75 14,13.75 Z"/>
  <path fill="#292D32" d="M18,13.75 C17.59,13.75 17.25,13.41 17.25,13 L17.25,8 C17.25,7.59 17.59,7.25 18,7.25 C18.41,7.25 18.75,7.59 18.75,8 L18.75,13 C18.75,13.41 18.41,13.75 18,13.75 Z"/>
</svg>

