<svg xmlns="http://www.w3.org/2000/svg" width="24" height="24" viewBox="0 0 24 24">
  <defs/>
  <path fill="#292D32" d="M15,7.07 C15,6.4 14.67,5.78 14.11,5.41 L10.11,2.74 C9.44,2.29 8.56,2.29 7.89,2.74 L3.89,5.41 C3.34,5.78 3,6.4 3,7.07 L3,12.75 C3,13.03 3.22,13.25 3.5,13.25 L14.5,13.25 C14.78,13.25 15,13.03 15,12.75 L15,7.07 Z M9,10.75 C8.04,10.75 7.25,9.96 7.25,9 C7.25,8.04 8.04,7.25 9,7.25 C9.96,7.25 10.75,8.04 10.75,9 C10.75,9.96 9.96,10.75 9,10.75 Z"/>
  <path fill="#292D32" d="M22,21.251 L20.73,21.251 L20.73,18.251 C21.68,17.941 22.37,17.051 22.37,16.001 L22.37,14.001 C22.37,12.691 21.3,11.621 19.99,11.621 C18.68,11.621 17.61,12.691 17.61,14.001 L17.61,16.001 C17.61,17.041 18.29,17.921 19.22,18.241 L19.22,21.251 L15,21.251 L15,15.251 C15,14.971 14.78,14.751 14.5,14.751 L3.5,14.751 C3.22,14.751 3,14.971 3,15.251 L3,21.251 L2,21.251 C1.59,21.251 1.25,21.591 1.25,22.001 C1.25,22.411 1.59,22.751 2,22.751 L19.93,22.751 C19.95,22.751 19.96,22.761 19.98,22.761 C20,22.761 20.01,22.751 20.03,22.751 L22,22.751 C22.41,22.751 22.75,22.411 22.75,22.001 C22.75,21.591 22.41,21.251 22,21.251 Z M8.25,18.251 C8.25,17.841 8.59,17.501 9,17.501 C9.41,17.501 9.75,17.841 9.75,18.251 L9.75,21.251 L8.25,21.251 L8.25,18.251 Z"/>
</svg>

