<svg xmlns="http://www.w3.org/2000/svg" width="24" height="24" viewBox="0 0 24 24">
  <defs/>
  <path fill="#292D32" opacity="0.4" d="M15.01,14.75 L15.01,21.99 L3.01,22.01 L3.01,14.75 L3,13.25 L3,7.07 C3,6.4 3.34,5.78 3.89,5.41 L7.89,2.74 C8.56,2.29 9.44,2.29 10.11,2.74 L14.11,5.41 C14.67,5.78 15,6.4 15,7.07 L15,13.25 L15.01,14.75 Z"/>
  <path fill="#292D32" d="M22,21.25 L20.73,21.25 L20.73,18.25 C21.68,17.94 22.37,17.05 22.37,16 L22.37,14 C22.37,12.69 21.3,11.62 19.99,11.62 C18.68,11.62 17.61,12.69 17.61,14 L17.61,16 C17.61,17.04 18.29,17.92 19.22,18.24 L19.22,21.25 L2,21.25 C1.59,21.25 1.25,21.59 1.25,22 C1.25,22.41 1.59,22.75 2,22.75 L19.93,22.75 C19.95,22.75 19.96,22.76 19.98,22.76 C20,22.76 20.01,22.75 20.03,22.75 L22,22.75 C22.41,22.75 22.75,22.41 22.75,22 C22.75,21.59 22.41,21.25 22,21.25 Z"/>
  <path fill="#292D32" d="M15.01,14.75 L3.01,14.75 L3,13.25 L15,13.25 L15.01,14.75 Z"/>
  <path fill="#292D32" d="M9,22.75 C8.59,22.75 8.25,22.41 8.25,22 L8.25,18.25 C8.25,17.84 8.59,17.5 9,17.5 C9.41,17.5 9.75,17.84 9.75,18.25 L9.75,22 C9.75,22.41 9.41,22.75 9,22.75 Z"/>
  <path fill="#292D32" d="M9,10.75 C9.966,10.75 10.75,9.966 10.75,9 C10.75,8.034 9.966,7.25 9,7.25 C8.034,7.25 7.25,8.034 7.25,9 C7.25,9.966 8.034,10.75 9,10.75 Z"/>
</svg>

