<svg xmlns="http://www.w3.org/2000/svg" width="24" height="24" viewBox="0 0 24 24">
  <defs/>
  <path fill="#292D32" d="M12.5,22.75 L4.08,22.75 Q1.22,22.75 1.22,19.93 L1.22,5.09 Q1.22,2.703 2.853,1.709 Q4.479,0.719 6.639,1.777 L11.08,3.957 Q13.25,5.019 13.25,7.41 L13.25,22 Q13.25,22.311 13.03,22.531 Q12.81,22.75 12.5,22.75 Z M11.75,21.25 L11.75,7.41 Q11.75,5.955 10.419,5.304 L5.98,3.124 Q4.557,2.427 3.634,2.99 Q2.72,3.546 2.72,5.09 L2.72,19.93 Q2.72,21.25 4.08,21.25 L11.75,21.25 Z"/>
  <path fill="#292D32" d="M22.72,15.06 L22.72,18.84 Q22.72,22.75 18.81,22.75 L12.5,22.75 Q12.189,22.75 11.97,22.531 Q11.75,22.311 11.75,22 L11.75,10.42 Q11.75,10.11 11.97,9.89 Q12.189,9.67 12.5,9.67 Q12.579,9.67 12.656,9.687 L13.126,9.787 L17.634,10.799 L19.662,11.248 Q22.599,11.893 22.708,14.809 Q22.72,14.915 22.72,15.06 Z M21.22,15.06 L21.22,14.994 Q21.212,14.944 21.21,14.894 Q21.155,13.112 19.338,12.713 L17.306,12.262 L13.25,11.352 L13.25,21.25 L18.81,21.25 Q20.119,21.25 20.67,20.7 Q21.22,20.15 21.22,18.84 Z"/>
  <path fill="#292D32" opacity="0.4" d="M5.5,8.25 L8.97,8.25 Q9.281,8.25 9.5,8.47 Q9.72,8.69 9.72,9 Q9.72,9.311 9.5,9.531 Q9.281,9.75 8.97,9.75 L5.5,9.75 Q5.189,9.75 4.97,9.531 Q4.75,9.311 4.75,9 Q4.75,8.69 4.97,8.47 Q5.189,8.25 5.5,8.25 Z"/>
  <path fill="#292D32" opacity="0.4" d="M5.5,12.25 L8.97,12.25 Q9.281,12.25 9.5,12.47 Q9.72,12.69 9.72,13 Q9.72,13.311 9.5,13.531 Q9.281,13.75 8.97,13.75 L5.5,13.75 Q5.189,13.75 4.97,13.531 Q4.75,13.311 4.75,13 Q4.75,12.69 4.97,12.47 Q5.189,12.25 5.5,12.25 Z"/>
  <path fill="#292D32" d="M18.22,11.531 L18.22,14.75 Q18.22,17.75 15.22,17.75 Q12.22,17.75 12.22,14.751 L12.22,10.521 Q12.22,10.21 12.439,9.99 Q12.659,9.771 12.97,9.771 Q13.053,9.771 13.134,9.789 L17.634,10.799 Q18.22,10.93 18.22,11.531 Z M16.72,12.131 L13.72,11.457 L13.72,14.751 Q13.72,16.25 15.22,16.25 Q16.72,16.25 16.72,14.75 L16.72,12.131 Z"/>
  <path fill="#292D32" d="M22.709,14.908 Q22.564,17.75 19.72,17.75 Q16.72,17.75 16.72,14.75 L16.72,11.53 Q16.72,11.22 16.939,11 Q17.159,10.78 17.47,10.78 Q17.552,10.78 17.632,10.798 L19.662,11.248 Q22.617,11.897 22.709,14.847 Q22.71,14.878 22.709,14.908 Z M21.209,14.863 Q21.138,13.108 19.337,12.713 L18.22,12.465 L18.22,14.75 Q18.22,16.25 19.72,16.25 Q21.123,16.25 21.209,14.863 Z"/>
</svg>

