<svg xmlns="http://www.w3.org/2000/svg" width="24" height="24" viewBox="0 0 24 24">
  <defs/>
  <path fill="#292D32" d="M1.25,4.15 Q1.25,1.25 4.15,1.25 L8.45,1.25 Q11.35,1.25 11.35,4.15 L11.35,6 Q11.35,6.311 11.13,6.53 Q10.911,6.75 10.6,6.75 Q10.289,6.75 10.07,6.53 Q9.85,6.311 9.85,6 L9.85,4.15 Q9.85,2.75 8.45,2.75 L4.15,2.75 Q2.75,2.75 2.75,4.15 Q2.75,4.461 2.53,4.68 Q2.311,4.9 2,4.9 Q1.689,4.9 1.47,4.68 Q1.25,4.461 1.25,4.15 Z"/>
  <path fill="#292D32" d="M6.7,18.75 L4.15,18.75 Q1.25,18.75 1.25,15.85 L1.25,8.04 Q1.25,7.729 1.47,7.51 Q1.689,7.29 2,7.29 Q2.311,7.29 2.53,7.51 Q2.75,7.729 2.75,8.04 L2.75,15.85 Q2.75,17.25 4.15,17.25 L6.7,17.25 Q7.011,17.25 7.23,17.47 Q7.45,17.689 7.45,18 Q7.45,18.311 7.23,18.53 Q7.011,18.75 6.7,18.75 Z"/>
  <path fill="#292D32" d="M18.119,8.42 L18.119,19.58 Q18.119,21.098 17.3,21.922 Q16.477,22.75 14.959,22.75 L9.119,22.75 Q7.601,22.75 6.775,21.924 Q5.949,21.098 5.949,19.58 L5.949,8.42 Q5.949,5.25 9.119,5.25 L14.959,5.25 Q16.477,5.25 17.3,6.078 Q18.119,6.902 18.119,8.42 Z M16.619,8.42 Q16.619,6.75 14.959,6.75 L9.119,6.75 Q8.222,6.75 7.836,7.137 Q7.449,7.523 7.449,8.42 L7.449,19.58 Q7.449,21.25 9.119,21.25 L14.959,21.25 Q15.853,21.25 16.236,20.865 Q16.619,20.479 16.619,19.58 Z"/>
  <path fill="#292D32" d="M12.65,6 L12.65,4.15 Q12.65,2.767 13.409,2.008 Q14.167,1.25 15.55,1.25 L19.85,1.25 Q22.75,1.25 22.75,4.15 L22.75,15.85 Q22.75,18.75 19.85,18.75 L17.37,18.75 Q17.06,18.75 16.84,18.53 Q16.62,18.311 16.62,18 Q16.62,17.689 16.84,17.47 Q17.06,17.25 17.37,17.25 L19.85,17.25 Q21.25,17.25 21.25,15.85 L21.25,4.15 Q21.25,2.75 19.85,2.75 L15.55,2.75 Q14.15,2.75 14.15,4.15 L14.15,6 Q14.15,6.311 13.931,6.53 Q13.711,6.75 13.4,6.75 Q13.09,6.75 12.87,6.53 Q12.65,6.311 12.65,6 Z"/>
  <path fill="#292D32" d="M10,10.25 L14,10.25 Q14.311,10.25 14.53,10.47 Q14.75,10.689 14.75,11 Q14.75,11.311 14.53,11.53 Q14.311,11.75 14,11.75 L10,11.75 Q9.689,11.75 9.47,11.53 Q9.25,11.311 9.25,11 Q9.25,10.689 9.47,10.47 Q9.689,10.25 10,10.25 Z"/>
  <path fill="#292D32" d="M10,13.25 L14,13.25 Q14.311,13.25 14.53,13.47 Q14.75,13.689 14.75,14 Q14.75,14.311 14.53,14.53 Q14.311,14.75 14,14.75 L10,14.75 Q9.689,14.75 9.47,14.53 Q9.25,14.311 9.25,14 Q9.25,13.689 9.47,13.47 Q9.689,13.25 10,13.25 Z"/>
  <path fill="#292D32" d="M11.25,22 L11.25,19 Q11.25,18.689 11.47,18.47 Q11.689,18.25 12,18.25 Q12.311,18.25 12.53,18.47 Q12.75,18.689 12.75,19 L12.75,22 Q12.75,22.311 12.53,22.53 Q12.311,22.75 12,22.75 Q11.689,22.75 11.47,22.53 Q11.25,22.311 11.25,22 Z"/>
</svg>

