<svg xmlns="http://www.w3.org/2000/svg" width="24" height="24" viewBox="0 0 24 24">
  <defs/>
  <path fill="#292D32" d="M1.221,5.95 L1.221,5.09 Q1.221,2.703 2.854,1.708 Q4.48,0.719 6.64,1.776 L11.081,3.957 Q13.251,5.019 13.251,7.41 L13.251,22 Q13.251,22.311 13.031,22.53 Q12.811,22.75 12.501,22.75 L4.081,22.75 Q1.221,22.75 1.221,19.93 L1.221,10.02 Q1.221,9.709 1.44,9.49 Q1.66,9.27 1.971,9.27 Q2.281,9.27 2.501,9.49 Q2.721,9.709 2.721,10.02 L2.721,19.93 Q2.721,21.25 4.081,21.25 L11.751,21.25 L11.751,7.41 Q11.751,5.955 10.42,5.303 L5.981,3.124 Q4.558,2.427 3.635,2.989 Q2.721,3.546 2.721,5.09 L2.721,5.95 Q2.721,6.261 2.501,6.48 Q2.281,6.7 1.971,6.7 Q1.66,6.7 1.44,6.48 Q1.221,6.261 1.221,5.95 Z"/>
  <path fill="#292D32" d="M22.72,15.06 L22.72,18.84 Q22.72,22.75 18.81,22.75 L12.5,22.75 Q12.189,22.75 11.97,22.53 Q11.75,22.311 11.75,22 L11.75,10.42 Q11.75,10.109 11.97,9.89 Q12.189,9.67 12.5,9.67 Q12.579,9.67 12.656,9.686 L13.126,9.786 L17.634,10.798 L19.662,11.248 Q22.599,11.893 22.708,14.809 Q22.72,14.914 22.72,15.06 Z M21.22,15.06 L21.22,14.993 Q21.212,14.944 21.21,14.893 Q21.155,13.111 19.338,12.712 L17.306,12.262 L13.25,11.351 L13.25,21.25 L18.81,21.25 Q21.22,21.25 21.22,18.84 Z"/>
  <path fill="#292D32" d="M5.5,8.25 L8.97,8.25 Q9.281,8.25 9.5,8.47 Q9.72,8.689 9.72,9 Q9.72,9.311 9.5,9.53 Q9.281,9.75 8.97,9.75 L5.5,9.75 Q5.189,9.75 4.97,9.53 Q4.75,9.311 4.75,9 Q4.75,8.689 4.97,8.47 Q5.189,8.25 5.5,8.25 Z"/>
  <path fill="#292D32" d="M5.5,12.25 L8.97,12.25 Q9.281,12.25 9.5,12.47 Q9.72,12.689 9.72,13 Q9.72,13.311 9.5,13.53 Q9.281,13.75 8.97,13.75 L5.5,13.75 Q5.189,13.75 4.97,13.53 Q4.75,13.311 4.75,13 Q4.75,12.689 4.97,12.47 Q5.189,12.25 5.5,12.25 Z"/>
  <path fill="#292D32" d="M18.221,11.53 L18.221,14.75 Q18.221,17.75 15.221,17.75 Q13.98,17.75 13.1,16.87 Q12.221,15.991 12.221,14.75 L12.221,10.52 Q12.221,10.209 12.44,9.99 Q12.66,9.77 12.971,9.77 Q13.054,9.77 13.135,9.788 L17.635,10.798 Q18.221,10.93 18.221,11.53 Z M16.721,12.13 L13.721,11.457 L13.721,14.75 Q13.721,16.25 15.221,16.25 Q16.721,16.25 16.721,14.75 L16.721,12.13 Z"/>
  <path fill="#292D32" d="M22.71,14.908 Q22.565,17.75 19.721,17.75 Q16.721,17.75 16.721,14.75 L16.721,11.53 Q16.721,11.219 16.94,11 Q17.16,10.78 17.471,10.78 Q17.553,10.78 17.633,10.798 L19.663,11.248 Q22.618,11.897 22.71,14.847 Q22.711,14.877 22.71,14.908 Z M21.21,14.862 Q21.139,13.108 19.338,12.712 L18.221,12.464 L18.221,14.75 Q18.221,16.25 19.721,16.25 Q21.124,16.25 21.21,14.862 Z"/>
</svg>

