<svg xmlns="http://www.w3.org/2000/svg" width="24" height="24" viewBox="0 0 24 24">
  <defs/>
  <path fill="#292D32" d="M1,21.25 L23,21.25 Q23.311,21.25 23.53,21.47 Q23.75,21.689 23.75,22 Q23.75,22.311 23.53,22.53 Q23.311,22.75 23,22.75 L1,22.75 Q0.689,22.75 0.47,22.53 Q0.25,22.311 0.25,22 Q0.25,21.689 0.47,21.47 Q0.689,21.25 1,21.25 Z"/>
  <path fill="#292D32" d="M19.029,22.01 L19.029,17.55 Q19.029,17.239 19.249,17.02 Q19.469,16.8 19.779,16.8 Q20.09,16.8 20.31,17.02 Q20.529,17.239 20.529,17.55 L20.529,22.01 Q20.529,22.321 20.31,22.54 Q20.09,22.76 19.779,22.76 Q19.469,22.76 19.249,22.54 Q19.029,22.321 19.029,22.01 Z"/>
  <path fill="#292D32" d="M19.8,10.14 Q21.025,10.14 21.887,11.002 Q22.75,11.864 22.75,13.09 L22.75,15.36 Q22.75,16.586 21.887,17.448 Q21.025,18.31 19.8,18.31 Q18.574,18.31 17.712,17.448 Q16.85,16.586 16.85,15.36 L16.85,13.09 Q16.85,10.14 19.8,10.14 Z M19.8,11.64 Q18.35,11.64 18.35,13.09 L18.35,15.36 Q18.35,15.964 18.772,16.387 Q19.195,16.81 19.8,16.81 Q20.404,16.81 20.827,16.387 Q21.25,15.964 21.25,15.36 L21.25,13.09 Q21.25,11.64 19.8,11.64 Z"/>
  <path fill="#292D32" d="M1.35,6.02 Q1.35,2.25 5.09,2.25 L11.32,2.25 Q15.05,2.25 15.05,6.02 L15.05,22 Q15.05,22.311 14.83,22.53 Q14.61,22.75 14.3,22.75 Q13.989,22.75 13.769,22.53 Q13.55,22.311 13.55,22 L13.55,6.02 Q13.55,4.819 13.022,4.283 Q12.497,3.75 11.32,3.75 L5.09,3.75 Q2.85,3.75 2.85,6.02 Q2.85,6.331 2.63,6.55 Q2.41,6.77 2.1,6.77 Q1.789,6.77 1.569,6.55 Q1.35,6.331 1.35,6.02 Z"/>
  <path fill="#292D32" d="M1.35,22 L1.35,10.01 Q1.35,9.699 1.569,9.48 Q1.789,9.26 2.1,9.26 Q2.41,9.26 2.63,9.48 Q2.85,9.699 2.85,10.01 L2.85,22 Q2.85,22.311 2.63,22.53 Q2.41,22.75 2.1,22.75 Q1.789,22.75 1.569,22.53 Q1.35,22.311 1.35,22 Z"/>
  <path fill="#292D32" d="M5.801,7.5 L10.751,7.5 Q11.061,7.5 11.281,7.72 Q11.501,7.939 11.501,8.25 Q11.501,8.561 11.281,8.78 Q11.061,9 10.751,9 L5.801,9 Q5.49,9 5.27,8.78 Q5.051,8.561 5.051,8.25 Q5.051,7.939 5.27,7.72 Q5.49,7.5 5.801,7.5 Z"/>
  <path fill="#292D32" d="M5.801,11.25 L10.751,11.25 Q11.061,11.25 11.281,11.47 Q11.501,11.689 11.501,12 Q11.501,12.311 11.281,12.53 Q11.061,12.75 10.751,12.75 L5.801,12.75 Q5.49,12.75 5.27,12.53 Q5.051,12.311 5.051,12 Q5.051,11.689 5.27,11.47 Q5.49,11.25 5.801,11.25 Z"/>
  <path fill="#292D32" d="M7.5,22 L7.5,18.25 Q7.5,17.939 7.72,17.72 Q7.939,17.5 8.25,17.5 Q8.561,17.5 8.78,17.72 Q9,17.939 9,18.25 L9,22 Q9,22.311 8.78,22.53 Q8.561,22.75 8.25,22.75 Q7.939,22.75 7.72,22.53 Q7.5,22.311 7.5,22 Z"/>
</svg>

