<svg xmlns="http://www.w3.org/2000/svg" width="24" height="24" viewBox="0 0 24 24">
  <defs/>
  <path fill="#292D32" d="M10.751,4.64 L6.321,2.45 C3.931,1.28 1.971,2.47 1.971,5.09 L1.971,19.93 C1.971,21.07 2.921,22 4.081,22 L11.501,22 C12.051,22 12.501,21.55 12.501,21 L12.501,7.41 C12.501,6.36 11.711,5.11 10.751,4.64 Z M8.971,13.75 L5.501,13.75 C5.091,13.75 4.751,13.41 4.751,13 C4.751,12.59 5.091,12.25 5.501,12.25 L8.971,12.25 C9.381,12.25 9.721,12.59 9.721,13 C9.721,13.41 9.391,13.75 8.971,13.75 Z M8.971,9.75 L5.501,9.75 C5.091,9.75 4.751,9.41 4.751,9 C4.751,8.59 5.091,8.25 5.501,8.25 L8.971,8.25 C9.381,8.25 9.721,8.59 9.721,9 C9.721,9.41 9.391,9.75 8.971,9.75 Z"/>
  <path fill="#292D32" d="M22,18.039 L22,19.499 C22,20.879 20.88,21.999 19.5,21.999 L14.97,21.999 C14.43,21.999 14,21.569 14,21.029 L14,18.869 C15.07,18.999 16.2,18.689 17.01,18.039 C17.69,18.589 18.56,18.919 19.51,18.919 C20.44,18.919 21.31,18.589 22,18.039 Z"/>
  <path fill="#292D32" d="M22,15.05 L22,15.06 C21.92,16.37 20.85,17.421 19.51,17.421 C18.12,17.421 17.01,16.291 17.01,14.921 C17.01,16.451 15.6,17.68 14,17.37 L14,12.001 C14,11.361 14.59,10.88 15.22,11.021 L17.01,11.421 L17.49,11.53 L19.53,11.991 C20.02,12.091 20.47,12.261 20.86,12.511 C20.86,12.521 20.87,12.521 20.87,12.521 C20.97,12.591 21.07,12.671 21.16,12.761 C21.62,13.22 21.92,13.89 21.99,14.87 C21.99,14.931 22,14.991 22,15.05 Z"/>
</svg>

