<svg xmlns="http://www.w3.org/2000/svg" width="24" height="24" viewBox="0 0 24 24">
  <defs/>
  <path fill="#292D32" d="M5,8 C3.34,8 2,9.34 2,11 L2,19 C2,20.66 3.34,22 5,22 L6.5,22 C7.6,22 8.5,21.1 8.5,20 L8.5,10 C8.5,8.9 7.6,8 6.5,8 L5,8 Z M6,17 C6,17.41 5.66,17.75 5.25,17.75 C4.84,17.75 4.5,17.41 4.5,17 L4.5,13 C4.5,12.59 4.84,12.25 5.25,12.25 C5.66,12.25 6,12.59 6,13 L6,17 Z"/>
  <path fill="#292D32" d="M19,2 L13,2 C11.34,2 10,3.34 10,5 L10,19 C10,20.66 11.34,22 13,22 L13.5,22 C13.78,22 14,21.78 14,21.5 L14,18 C14,17.45 14.45,17 15,17 L17,17 C17.55,17 18,17.45 18,18 L18,21.5 C18,21.78 18.22,22 18.5,22 L19,22 C20.66,22 22,20.66 22,19 L22,5 C22,3.34 20.66,2 19,2 Z M14.75,13 C14.75,13.41 14.41,13.75 14,13.75 C13.59,13.75 13.25,13.41 13.25,13 L13.25,8 C13.25,7.59 13.59,7.25 14,7.25 C14.41,7.25 14.75,7.59 14.75,8 L14.75,13 Z M18.75,13 C18.75,13.41 18.41,13.75 18,13.75 C17.59,13.75 17.25,13.41 17.25,13 L17.25,8 C17.25,7.59 17.59,7.25 18,7.25 C18.41,7.25 18.75,7.59 18.75,8 L18.75,13 Z"/>
</svg>

