<svg xmlns="http://www.w3.org/2000/svg" width="24" height="24" viewBox="0 0 24 24">
  <defs/>
  <path fill="#292D32" d="M12.5,22.75 L4.08,22.75 C2.51,22.75 1.22,21.49 1.22,19.93 L1.22,5.09 C1.22,3.56 1.79,2.37 2.83,1.72 C3.88,1.06 5.24,1.08 6.65,1.78 L11.09,3.96 C12.3,4.56 13.25,6.07 13.25,7.41 L13.25,22 C13.25,22.41 12.91,22.75 12.5,22.75 Z M4.56,2.75 C4.21,2.75 3.89,2.83 3.62,3 C3.04,3.36 2.72,4.11 2.72,5.09 L2.72,19.93 C2.72,20.66 3.33,21.25 4.08,21.25 L11.75,21.25 L11.75,7.41 C11.75,6.64 11.13,5.65 10.42,5.31 L5.98,3.13 C5.47,2.88 4.99,2.75 4.56,2.75 Z"/>
  <path fill="#292D32" d="M18.81,22.75 L12.5,22.75 C12.09,22.75 11.75,22.41 11.75,22 L11.75,10.42 C11.75,10.19 11.85,9.98 12.03,9.84 C12.21,9.7 12.43,9.64 12.66,9.69 L13.13,9.79 L19.67,11.25 C21.66,11.69 22.66,12.86 22.72,14.85 C22.73,14.85 22.73,14.95 22.73,15.06 L22.73,18.84 C22.72,21.4 21.37,22.75 18.81,22.75 Z M13.25,21.25 L18.81,21.25 C20.57,21.25 21.22,20.6 21.22,18.84 L21.22,14.98 C21.17,13.61 20.65,13 19.34,12.71 L13.25,11.35 L13.25,21.25 Z"/>
  <path fill="#292D32" d="M8.97,9.75 L5.5,9.75 C5.09,9.75 4.75,9.41 4.75,9 C4.75,8.59 5.09,8.25 5.5,8.25 L8.97,8.25 C9.38,8.25 9.72,8.59 9.72,9 C9.72,9.41 9.39,9.75 8.97,9.75 Z"/>
  <path fill="#292D32" d="M8.97,13.75 L5.5,13.75 C5.09,13.75 4.75,13.41 4.75,13 C4.75,12.59 5.09,12.25 5.5,12.25 L8.97,12.25 C9.38,12.25 9.72,12.59 9.72,13 C9.72,13.41 9.39,13.75 8.97,13.75 Z"/>
  <path fill="#292D32" d="M15.22,17.75 C13.57,17.75 12.22,16.4 12.22,14.75 L12.22,10.52 C12.22,10.29 12.32,10.08 12.5,9.93 C12.68,9.78 12.91,9.73 13.13,9.78 L17.63,10.79 C17.97,10.87 18.22,11.17 18.22,11.52 L18.22,14.74 C18.22,16.4 16.88,17.75 15.22,17.75 Z M13.72,11.46 L13.72,14.75 C13.72,15.58 14.39,16.25 15.22,16.25 C16.05,16.25 16.72,15.58 16.72,14.75 L16.72,12.13 L13.72,11.46 Z"/>
  <path fill="#292D32" d="M19.72,17.75 C18.07,17.75 16.72,16.4 16.72,14.75 L16.72,11.53 C16.72,11.3 16.82,11.09 17,10.95 C17.18,10.81 17.41,10.75 17.63,10.8 L19.66,11.25 C21.65,11.69 22.65,12.86 22.71,14.85 C22.71,14.87 22.71,14.89 22.71,14.91 C22.63,16.5 21.32,17.75 19.72,17.75 Z M18.22,12.46 L18.22,14.75 C18.22,15.58 18.89,16.25 19.72,16.25 C20.51,16.25 21.16,15.64 21.21,14.86 C21.16,13.6 20.64,13 19.34,12.71 L18.22,12.46 Z"/>
</svg>

