<svg xmlns="http://www.w3.org/2000/svg" width="24" height="24" viewBox="0 0 24 24">
  <defs/>
  <path fill="#292D32" d="M1,21.25 L23,21.25 Q23.311,21.25 23.53,21.47 Q23.75,21.689 23.75,22 Q23.75,22.311 23.53,22.53 Q23.311,22.75 23,22.75 L1,22.75 Q0.689,22.75 0.47,22.53 Q0.25,22.311 0.25,22 Q0.25,21.689 0.47,21.47 Q0.689,21.25 1,21.25 Z"/>
  <path fill="#292D32" d="M19.03,22.01 L19.03,17.55 Q19.03,17.239 19.25,17.02 Q19.469,16.8 19.78,16.8 Q20.091,16.8 20.31,17.02 Q20.53,17.239 20.53,17.55 L20.53,22.01 Q20.53,22.321 20.31,22.54 Q20.091,22.76 19.78,22.76 Q19.469,22.76 19.25,22.54 Q19.03,22.321 19.03,22.01 Z"/>
  <path fill="#292D32" d="M19.8,10.14 Q21.026,10.14 21.888,11.002 Q22.75,11.864 22.75,13.09 L22.75,15.36 Q22.75,18.31 19.8,18.31 Q16.85,18.31 16.85,15.36 L16.85,13.09 Q16.85,11.864 17.712,11.002 Q18.574,10.14 19.8,10.14 Z M19.8,11.64 Q19.196,11.64 18.773,12.063 Q18.35,12.486 18.35,13.09 L18.35,15.36 Q18.35,16.81 19.8,16.81 Q21.25,16.81 21.25,15.36 L21.25,13.09 Q21.25,11.64 19.8,11.64 Z"/>
  <path fill="#292D32" d="M1.35,22 L1.35,6.03 Q1.35,2.26 5.09,2.26 L11.32,2.26 Q13.125,2.26 14.091,3.24 Q15.05,4.214 15.05,6.03 L15.05,22 Q15.05,22.311 14.83,22.53 Q14.611,22.75 14.3,22.75 Q13.989,22.75 13.77,22.53 Q13.55,22.311 13.55,22 L13.55,6.03 Q13.55,4.829 13.022,4.293 Q12.497,3.76 11.32,3.76 L5.09,3.76 Q2.85,3.76 2.85,6.03 L2.85,22 Q2.85,22.311 2.63,22.53 Q2.411,22.75 2.1,22.75 Q1.789,22.75 1.57,22.53 Q1.35,22.311 1.35,22 Z"/>
  <path fill="#292D32" d="M5.8,7.5 L10.75,7.5 Q11.061,7.5 11.28,7.72 Q11.5,7.939 11.5,8.25 Q11.5,8.561 11.28,8.78 Q11.061,9 10.75,9 L5.8,9 Q5.489,9 5.27,8.78 Q5.05,8.561 5.05,8.25 Q5.05,7.939 5.27,7.72 Q5.489,7.5 5.8,7.5 Z"/>
  <path fill="#292D32" d="M5.8,11.25 L10.75,11.25 Q11.061,11.25 11.28,11.47 Q11.5,11.689 11.5,12 Q11.5,12.311 11.28,12.53 Q11.061,12.75 10.75,12.75 L5.8,12.75 Q5.489,12.75 5.27,12.53 Q5.05,12.311 5.05,12 Q5.05,11.689 5.27,11.47 Q5.489,11.25 5.8,11.25 Z"/>
  <path fill="#292D32" d="M7.5,22 L7.5,18.25 Q7.5,17.939 7.72,17.72 Q7.939,17.5 8.25,17.5 Q8.561,17.5 8.78,17.72 Q9,17.939 9,18.25 L9,22 Q9,22.311 8.78,22.53 Q8.561,22.75 8.25,22.75 Q7.939,22.75 7.72,22.53 Q7.5,22.311 7.5,22 Z"/>
</svg>

