<svg xmlns="http://www.w3.org/2000/svg" width="24" height="24" viewBox="0 0 24 24">
  <defs/>
  <path fill="#292D32" d="M13,22.75 L5,22.75 Q1.25,22.75 1.25,19 L1.25,11 Q1.25,7.25 5,7.25 L10,7.25 Q10.311,7.25 10.53,7.47 Q10.75,7.689 10.75,8 L10.75,19 Q10.75,21.25 13,21.25 Q13.311,21.25 13.53,21.47 Q13.75,21.689 13.75,22 Q13.75,22.311 13.53,22.53 Q13.311,22.75 13,22.75 Z M9.757,21.25 Q9.25,20.378 9.25,19 L9.25,8.75 L5,8.75 Q2.75,8.75 2.75,11 L2.75,19 Q2.75,21.25 5,21.25 L9.757,21.25 Z"/>
  <path fill="#292D32" d="M10.835,4.193 Q10.75,4.511 10.75,5 L10.75,8 Q10.75,8.311 10.53,8.53 Q10.311,8.75 10,8.75 L5,8.75 Q4.689,8.75 4.47,8.53 Q4.25,8.311 4.25,8 L4.25,6 Q4.25,3.25 7,3.25 L10.11,3.25 Q10.421,3.25 10.64,3.47 Q10.86,3.689 10.86,4 Q10.86,4.098 10.835,4.193 Z M9.255,4.75 L7,4.75 Q5.75,4.75 5.75,6 L5.75,7.25 L9.25,7.25 L9.25,5 Q9.25,4.872 9.255,4.75 Z"/>
  <path fill="#292D32" d="M14.75,8 L14.75,13 Q14.75,13.311 14.53,13.53 Q14.311,13.75 14,13.75 Q13.689,13.75 13.47,13.53 Q13.25,13.311 13.25,13 L13.25,8 Q13.25,7.689 13.47,7.47 Q13.689,7.25 14,7.25 Q14.311,7.25 14.53,7.47 Q14.75,7.689 14.75,8 Z"/>
  <path fill="#292D32" d="M18.75,8 L18.75,13 Q18.75,13.311 18.53,13.53 Q18.311,13.75 18,13.75 Q17.689,13.75 17.47,13.53 Q17.25,13.311 17.25,13 L17.25,8 Q17.25,7.689 17.47,7.47 Q17.689,7.25 18,7.25 Q18.311,7.25 18.53,7.47 Q18.75,7.689 18.75,8 Z"/>
  <path fill="#292D32" d="M17,16.25 Q17.723,16.25 18.237,16.763 Q18.75,17.277 18.75,18 L18.75,22 Q18.75,22.311 18.53,22.53 Q18.311,22.75 18,22.75 L14,22.75 Q13.689,22.75 13.47,22.53 Q13.25,22.311 13.25,22 L13.25,18 Q13.25,17.277 13.763,16.763 Q14.277,16.25 15,16.25 Z M17,17.75 L15,17.75 Q14.898,17.75 14.824,17.824 Q14.75,17.898 14.75,18 L14.75,21.25 L17.25,21.25 L17.25,18 Q17.25,17.75 17,17.75 Z"/>
  <path fill="#292D32" d="M6.75,13 L6.75,17 Q6.75,17.311 6.53,17.53 Q6.311,17.75 6,17.75 Q5.689,17.75 5.47,17.53 Q5.25,17.311 5.25,17 L5.25,13 Q5.25,12.689 5.47,12.47 Q5.689,12.25 6,12.25 Q6.311,12.25 6.53,12.47 Q6.75,12.689 6.75,13 Z"/>
  <path fill="#292D32" d="M9.25,19 L9.25,5 Q9.25,1.25 13,1.25 L19,1.25 Q22.75,1.25 22.75,5 L22.75,19 Q22.75,22.75 19,22.75 L13,22.75 Q9.25,22.75 9.25,19 Z M10.75,19 Q10.75,21.25 13,21.25 L19,21.25 Q21.25,21.25 21.25,19 L21.25,5 Q21.25,2.75 19,2.75 L13,2.75 Q10.75,2.75 10.75,5 Z"/>
</svg>

