<svg xmlns="http://www.w3.org/2000/svg" width="24" height="24" viewBox="0 0 24 24">
  <defs/>
  <path fill="#292D32" d="M10.6,4.15 L10.6,6 L9.12,6 C7.51,6 6.7,6.81 6.7,8.42 L6.7,18 L4.15,18 C2.72,18 2,17.28 2,15.85 L2,4.15 C2,2.72 2.72,2 4.15,2 L8.45,2 C9.88,2 10.6,2.72 10.6,4.15 Z"/>
  <path fill="#292D32" opacity="0.4" d="M17.369,8.42 L17.369,19.58 C17.369,21.19 16.569,22 14.959,22 L9.119,22 C7.509,22 6.699,21.19 6.699,19.58 L6.699,8.42 C6.699,6.81 7.509,6 9.119,6 L14.959,6 C16.569,6 17.369,6.81 17.369,8.42 Z"/>
  <path fill="#292D32" d="M22,4.15 L22,15.85 C22,17.28 21.28,18 19.85,18 L17.37,18 L17.37,8.42 C17.37,6.81 16.57,6 14.96,6 L13.4,6 L13.4,4.15 C13.4,2.72 14.12,2 15.55,2 L19.85,2 C21.28,2 22,2.72 22,4.15 Z"/>
  <path fill="#292D32" d="M14,11.75 L10,11.75 C9.59,11.75 9.25,11.41 9.25,11 C9.25,10.59 9.59,10.25 10,10.25 L14,10.25 C14.41,10.25 14.75,10.59 14.75,11 C14.75,11.41 14.41,11.75 14,11.75 Z"/>
  <path fill="#292D32" d="M14,14.75 L10,14.75 C9.59,14.75 9.25,14.41 9.25,14 C9.25,13.59 9.59,13.25 10,13.25 L14,13.25 C14.41,13.25 14.75,13.59 14.75,14 C14.75,14.41 14.41,14.75 14,14.75 Z"/>
  <path fill="#292D32" d="M12.75,19 L12.75,22 L11.25,22 L11.25,19 C11.25,18.59 11.59,18.25 12,18.25 C12.41,18.25 12.75,18.59 12.75,19 Z"/>
</svg>

