<svg xmlns="http://www.w3.org/2000/svg" width="24" height="24" viewBox="0 0 24 24">
  <defs/>
  <path fill="#292D32" d="M23,22.75 L1,22.75 C0.59,22.75 0.25,22.41 0.25,22 C0.25,21.59 0.59,21.25 1,21.25 L23,21.25 C23.41,21.25 23.75,21.59 23.75,22 C23.75,22.41 23.41,22.75 23,22.75 Z"/>
  <path fill="#292D32" d="M19.78,22.76 C19.37,22.76 19.03,22.42 19.03,22.01 L19.03,17.55 C19.03,17.14 19.37,16.8 19.78,16.8 C20.19,16.8 20.53,17.14 20.53,17.55 L20.53,22.01 C20.53,22.42 20.2,22.76 19.78,22.76 Z"/>
  <path fill="#292D32" d="M19.8,18.3 C18.17,18.3 16.85,16.98 16.85,15.35 L16.85,13.08 C16.85,11.45 18.17,10.13 19.8,10.13 C21.43,10.13 22.75,11.45 22.75,13.08 L22.75,15.35 C22.75,16.98 21.43,18.3 19.8,18.3 Z M19.8,11.64 C19,11.64 18.35,12.29 18.35,13.09 L18.35,15.36 C18.35,16.16 19,16.81 19.8,16.81 C20.6,16.81 21.25,16.16 21.25,15.36 L21.25,13.09 C21.25,12.29 20.6,11.64 19.8,11.64 Z"/>
  <path fill="#292D32" d="M14.3,22.75 C13.89,22.75 13.55,22.41 13.55,22 L13.55,6.03 C13.55,4.44 12.88,3.76 11.32,3.76 L5.09,3.76 C3.52,3.76 2.84,4.44 2.84,6.03 L2.84,22 C2.84,22.41 2.5,22.75 2.09,22.75 C1.68,22.75 1.34,22.41 1.34,22 L1.34,6.03 C1.34,3.6 2.67,2.26 5.09,2.26 L11.32,2.26 C13.73,2.26 15.05,3.6 15.05,6.03 L15.05,22 C15.05,22.41 14.71,22.75 14.3,22.75 Z"/>
  <path fill="#292D32" d="M10.75,9 L5.8,9 C5.39,9 5.05,8.66 5.05,8.25 C5.05,7.84 5.39,7.5 5.8,7.5 L10.75,7.5 C11.16,7.5 11.5,7.84 11.5,8.25 C11.5,8.66 11.16,9 10.75,9 Z"/>
  <path fill="#292D32" d="M10.75,12.75 L5.8,12.75 C5.39,12.75 5.05,12.41 5.05,12 C5.05,11.59 5.39,11.25 5.8,11.25 L10.75,11.25 C11.16,11.25 11.5,11.59 11.5,12 C11.5,12.41 11.16,12.75 10.75,12.75 Z"/>
  <path fill="#292D32" d="M8.25,22.75 C7.84,22.75 7.5,22.41 7.5,22 L7.5,18.25 C7.5,17.84 7.84,17.5 8.25,17.5 C8.66,17.5 9,17.84 9,18.25 L9,22 C9,22.41 8.66,22.75 8.25,22.75 Z"/>
</svg>

