<svg xmlns="http://www.w3.org/2000/svg" width="24" height="24" viewBox="0 0 24 24">
  <defs/>
  <path fill="#292D32" opacity="0.4" d="M12.501,7.41 L12.501,22 L4.081,22 C2.921,22 1.971,21.07 1.971,19.93 L1.971,5.09 C1.971,2.47 3.931,1.28 6.321,2.45 L10.751,4.64 C11.711,5.11 12.501,6.36 12.501,7.41 Z"/>
  <path fill="#292D32" d="M8.97,9.75 L5.5,9.75 C5.09,9.75 4.75,9.41 4.75,9 C4.75,8.59 5.09,8.25 5.5,8.25 L8.97,8.25 C9.38,8.25 9.72,8.59 9.72,9 C9.72,9.41 9.39,9.75 8.97,9.75 Z"/>
  <path fill="#292D32" d="M8.97,13.75 L5.5,13.75 C5.09,13.75 4.75,13.41 4.75,13 C4.75,12.59 5.09,12.25 5.5,12.25 L8.97,12.25 C9.38,12.25 9.72,12.59 9.72,13 C9.72,13.41 9.39,13.75 8.97,13.75 Z"/>
  <path fill="#292D32" opacity="0.6" d="M22,15.05 L22,19.5 C22,20.88 20.88,22 19.5,22 L12.5,22 L12.5,10.42 L12.97,10.52 L17.01,11.42 L17.49,11.53 L19.53,11.99 C20.02,12.09 20.47,12.26 20.86,12.51 C20.86,12.52 20.87,12.52 20.87,12.52 C20.97,12.59 21.07,12.67 21.16,12.76 C21.62,13.22 21.92,13.89 21.99,14.87 C21.99,14.93 22,14.99 22,15.05 Z"/>
  <path fill="#292D32" d="M12.5,10.42 L12.5,16.42 C12.96,17.03 13.68,17.42 14.5,17.42 C15.89,17.42 17.01,16.3 17.01,14.92 L17.01,11.43 L12.97,10.53 L12.5,10.42 Z"/>
  <path fill="#292D32" d="M21.99,14.87 C21.92,13.89 21.62,13.22 21.16,12.76 C21.07,12.67 20.97,12.59 20.87,12.52 C20.87,12.52 20.86,12.52 20.86,12.51 C20.47,12.26 20.02,12.09 19.53,11.99 L17.49,11.53 L17.01,11.42 L17.01,14.92 C17.01,16.29 18.12,17.42 19.51,17.42 C20.85,17.42 21.92,16.37 22,15.06 L22,15.05 C22,14.99 21.99,14.93 21.99,14.87 Z"/>
</svg>

