<svg xmlns="http://www.w3.org/2000/svg" width="24" height="24" viewBox="0 0 24 24">
  <defs/>
  <path fill="#292D32" d="M13,22.75 L5,22.75 C2.58,22.75 1.25,21.42 1.25,19 L1.25,11 C1.25,8.58 2.58,7.25 5,7.25 L10,7.25 C10.41,7.25 10.75,7.59 10.75,8 L10.75,19 C10.75,20.58 11.42,21.25 13,21.25 C13.41,21.25 13.75,21.59 13.75,22 C13.75,22.41 13.41,22.75 13,22.75 Z M5,8.75 C3.42,8.75 2.75,9.42 2.75,11 L2.75,19 C2.75,20.58 3.42,21.25 5,21.25 L9.8,21.25 C9.44,20.66 9.25,19.91 9.25,19 L9.25,8.75 L5,8.75 Z"/>
  <path fill="#292D32" d="M10,8.75 L5,8.75 C4.59,8.75 4.25,8.41 4.25,8 L4.25,6 C4.25,4.48 5.48,3.25 7,3.25 L10.11,3.25 C10.34,3.25 10.56,3.36 10.7,3.54 C10.84,3.73 10.89,3.97 10.83,4.19 C10.77,4.41 10.75,4.66 10.75,5 L10.75,8 C10.75,8.41 10.41,8.75 10,8.75 Z M5.75,7.25 L9.25,7.25 L9.25,5 C9.25,4.91 9.25,4.83 9.25,4.75 L7,4.75 C6.31,4.75 5.75,5.31 5.75,6 L5.75,7.25 Z"/>
  <path fill="#292D32" d="M14,13.75 C13.59,13.75 13.25,13.41 13.25,13 L13.25,8 C13.25,7.59 13.59,7.25 14,7.25 C14.41,7.25 14.75,7.59 14.75,8 L14.75,13 C14.75,13.41 14.41,13.75 14,13.75 Z"/>
  <path fill="#292D32" d="M18,13.75 C17.59,13.75 17.25,13.41 17.25,13 L17.25,8 C17.25,7.59 17.59,7.25 18,7.25 C18.41,7.25 18.75,7.59 18.75,8 L18.75,13 C18.75,13.41 18.41,13.75 18,13.75 Z"/>
  <path fill="#292D32" d="M18,22.75 L14,22.75 C13.59,22.75 13.25,22.41 13.25,22 L13.25,18 C13.25,17.04 14.04,16.25 15,16.25 L17,16.25 C17.96,16.25 18.75,17.04 18.75,18 L18.75,22 C18.75,22.41 18.41,22.75 18,22.75 Z M14.75,21.25 L17.25,21.25 L17.25,18 C17.25,17.86 17.14,17.75 17,17.75 L15,17.75 C14.86,17.75 14.75,17.86 14.75,18 L14.75,21.25 Z"/>
  <path fill="#292D32" d="M6,17.75 C5.59,17.75 5.25,17.41 5.25,17 L5.25,13 C5.25,12.59 5.59,12.25 6,12.25 C6.41,12.25 6.75,12.59 6.75,13 L6.75,17 C6.75,17.41 6.41,17.75 6,17.75 Z"/>
  <path fill="#292D32" d="M19,22.75 L13,22.75 C10.58,22.75 9.25,21.42 9.25,19 L9.25,5 C9.25,2.58 10.58,1.25 13,1.25 L19,1.25 C21.42,1.25 22.75,2.58 22.75,5 L22.75,19 C22.75,21.42 21.42,22.75 19,22.75 Z M13,2.75 C11.42,2.75 10.75,3.42 10.75,5 L10.75,19 C10.75,20.58 11.42,21.25 13,21.25 L19,21.25 C20.58,21.25 21.25,20.58 21.25,19 L21.25,5 C21.25,3.42 20.58,2.75 19,2.75 L13,2.75 Z"/>
</svg>

