<svg xmlns="http://www.w3.org/2000/svg" width="24" height="24" viewBox="0 0 24 24">
  <defs/>
  <path fill="#292D32" d="M10.6,4.15 C10.6,4.34 10.44,4.5 10.25,4.5 L9.12,4.5 C6.96,4.5 5.2,6.26 5.2,8.42 L5.2,17.65 C5.2,17.84 5.04,18 4.85,18 L4.15,18 C2.96,18 2,17.04 2,15.85 L2,4.15 C2,2.96 2.96,2 4.15,2 L8.45,2 C9.64,2 10.6,2.96 10.6,4.15 Z"/>
  <path fill="#292D32" d="M22,4.15 L22,15.85 C22,17.04 21.04,18 19.85,18 L19.22,18 C19.03,18 18.87,17.84 18.87,17.65 L18.87,8.42 C18.87,6.26 17.11,4.5 14.95,4.5 L13.75,4.5 C13.56,4.5 13.4,4.34 13.4,4.15 C13.4,2.96 14.36,2 15.55,2 L19.85,2 C21.04,2 22,2.96 22,4.15 Z"/>
  <path fill="#292D32" d="M14.949,6 L9.119,6 C7.779,6 6.699,7.08 6.699,8.42 L6.699,19.58 C6.699,20.92 7.779,22 9.119,22 L10.749,22 C11.029,22 11.249,21.78 11.249,21.5 L11.249,19 C11.249,18.59 11.589,18.25 11.999,18.25 C12.409,18.25 12.749,18.59 12.749,19 L12.749,21.5 C12.749,21.78 12.969,22 13.249,22 L14.959,22 C16.289,22 17.369,20.92 17.369,19.59 L17.369,8.42 C17.369,7.08 16.289,6 14.949,6 Z M13.999,14.75 L9.999,14.75 C9.589,14.75 9.249,14.41 9.249,14 C9.249,13.59 9.589,13.25 9.999,13.25 L13.999,13.25 C14.409,13.25 14.749,13.59 14.749,14 C14.749,14.41 14.409,14.75 13.999,14.75 Z M13.999,11.75 L9.999,11.75 C9.589,11.75 9.249,11.41 9.249,11 C9.249,10.59 9.589,10.25 9.999,10.25 L13.999,10.25 C14.409,10.25 14.749,10.59 14.749,11 C14.749,11.41 14.409,11.75 13.999,11.75 Z"/>
</svg>

