<svg xmlns="http://www.w3.org/2000/svg" width="24" height="24" viewBox="0 0 24 24">
  <defs/>
  <path fill="#292D32" opacity="0.4" d="M2.1,22 L2.1,6.03 C2.1,4.02 3.1,3.01 5.09,3.01 L11.32,3.01 C13.31,3.01 14.3,4.02 14.3,6.03 L14.3,22"/>
  <path fill="#292D32" d="M10.751,9 L5.801,9 C5.391,9 5.051,8.66 5.051,8.25 C5.051,7.84 5.391,7.5 5.801,7.5 L10.751,7.5 C11.161,7.5 11.501,7.84 11.501,8.25 C11.501,8.66 11.161,9 10.751,9 Z"/>
  <path fill="#292D32" d="M10.751,12.75 L5.801,12.75 C5.391,12.75 5.051,12.41 5.051,12 C5.051,11.59 5.391,11.25 5.801,11.25 L10.751,11.25 C11.161,11.25 11.501,11.59 11.501,12 C11.501,12.41 11.161,12.75 10.751,12.75 Z"/>
  <path fill="#292D32" d="M8.25,22.75 C7.84,22.75 7.5,22.41 7.5,22 L7.5,18.25 C7.5,17.84 7.84,17.5 8.25,17.5 C8.66,17.5 9,17.84 9,18.25 L9,22 C9,22.41 8.66,22.75 8.25,22.75 Z"/>
  <path fill="#292D32" d="M23,21.25 L20.73,21.25 L20.73,18.25 C21.68,17.94 22.37,17.05 22.37,16 L22.37,14 C22.37,12.69 21.3,11.62 19.99,11.62 C18.68,11.62 17.61,12.69 17.61,14 L17.61,16 C17.61,17.04 18.29,17.92 19.22,18.24 L19.22,21.25 L1,21.25 C0.59,21.25 0.25,21.59 0.25,22 C0.25,22.41 0.59,22.75 1,22.75 L19.93,22.75 C19.95,22.75 19.96,22.76 19.98,22.76 C20,22.76 20.01,22.75 20.03,22.75 L23,22.75 C23.41,22.75 23.75,22.41 23.75,22 C23.75,21.59 23.41,21.25 23,21.25 Z"/>
</svg>

