<svg xmlns="http://www.w3.org/2000/svg" width="24" height="24" viewBox="0 0 24 24">
  <defs/>
  <path fill="#292D32" d="M22,22.75 L2,22.75 C1.59,22.75 1.25,22.41 1.25,22 C1.25,21.59 1.59,21.25 2,21.25 L22,21.25 C22.41,21.25 22.75,21.59 22.75,22 C22.75,22.41 22.41,22.75 22,22.75 Z"/>
  <path fill="#292D32" d="M3.01,22.76 C2.81,22.76 2.62,22.68 2.48,22.54 C2.34,22.4 2.26,22.21 2.26,22.01 L2.25,7.07 C2.25,6.16 2.71,5.3 3.47,4.79 L7.47,2.12 C8.4,1.5 9.6,1.5 10.52,2.12 L14.52,4.79 C15.29,5.3 15.74,6.15 15.74,7.07 L15.75,21.99 C15.75,22.4 15.42,22.74 15,22.74 L3.01,22.76 Z M9,3.15 C8.76,3.15 8.52,3.22 8.31,3.36 L4.31,6.03 C3.96,6.26 3.75,6.65 3.75,7.07 L3.76,21.26 L14.26,21.24 L14.25,7.07 C14.25,6.65 14.04,6.26 13.7,6.04 L9.7,3.37 C9.49,3.22 9.24,3.15 9,3.15 Z"/>
  <path fill="#292D32" d="M19.98,22.76 C19.57,22.76 19.23,22.42 19.23,22.01 L19.23,18 C19.23,17.59 19.57,17.25 19.98,17.25 C20.39,17.25 20.73,17.59 20.73,18 L20.73,22.01 C20.73,22.42 20.401,22.76 19.98,22.76 Z"/>
  <path fill="#292D32" d="M20,18.75 C18.48,18.75 17.25,17.52 17.25,16 L17.25,14 C17.25,12.48 18.48,11.25 20,11.25 C21.52,11.25 22.75,12.48 22.75,14 L22.75,16 C22.75,17.52 21.52,18.75 20,18.75 Z M20,12.75 C19.31,12.75 18.75,13.31 18.75,14 L18.75,16 C18.75,16.69 19.31,17.25 20,17.25 C20.69,17.25 21.25,16.69 21.25,16 L21.25,14 C21.25,13.31 20.69,12.75 20,12.75 Z"/>
  <path fill="#292D32" d="M15,14.75 L3,14.75 C2.59,14.75 2.25,14.41 2.25,14 C2.25,13.59 2.59,13.25 3,13.25 L15,13.25 C15.41,13.25 15.75,13.59 15.75,14 C15.75,14.41 15.41,14.75 15,14.75 Z"/>
  <path fill="#292D32" d="M9,22.75 C8.59,22.75 8.25,22.41 8.25,22 L8.25,18.25 C8.25,17.84 8.59,17.5 9,17.5 C9.41,17.5 9.75,17.84 9.75,18.25 L9.75,22 C9.75,22.41 9.41,22.75 9,22.75 Z"/>
  <path fill="#292D32" d="M9,11.25 C7.76,11.25 6.75,10.24 6.75,9 C6.75,7.76 7.76,6.75 9,6.75 C10.24,6.75 11.25,7.76 11.25,9 C11.25,10.24 10.24,11.25 9,11.25 Z M9,8.25 C8.59,8.25 8.25,8.59 8.25,9 C8.25,9.41 8.59,9.75 9,9.75 C9.41,9.75 9.75,9.41 9.75,9 C9.75,8.59 9.41,8.25 9,8.25 Z"/>
</svg>

