<svg xmlns="http://www.w3.org/2000/svg" width="24" height="24" viewBox="0 0 24 24">
  <defs/>
  <path fill="#292D32" d="M11.32,3 L5.09,3 C3.1,3 2.1,4.01 2.1,6.02 L2.1,22 L7.5,22 L7.5,18.25 C7.5,17.84 7.84,17.5 8.25,17.5 C8.66,17.5 9,17.83 9,18.25 L9,22 L14.3,22 L14.3,6.02 C14.3,4.01 13.31,3 11.32,3 Z M10.75,12.75 L5.8,12.75 C5.39,12.75 5.05,12.41 5.05,12 C5.05,11.59 5.39,11.25 5.8,11.25 L10.75,11.25 C11.16,11.25 11.5,11.59 11.5,12 C11.5,12.41 11.16,12.75 10.75,12.75 Z M10.75,9 L5.8,9 C5.39,9 5.05,8.66 5.05,8.25 C5.05,7.84 5.39,7.5 5.8,7.5 L10.75,7.5 C11.16,7.5 11.5,7.84 11.5,8.25 C11.5,8.66 11.16,9 10.75,9 Z"/>
  <path fill="#292D32" d="M23,21.251 L20.73,21.251 L20.73,18.251 C21.68,17.941 22.37,17.051 22.37,16.001 L22.37,14.001 C22.37,12.691 21.3,11.621 19.99,11.621 C18.68,11.621 17.61,12.691 17.61,14.001 L17.61,16.001 C17.61,17.041 18.29,17.921 19.22,18.241 L19.22,21.251 L1,21.251 C0.59,21.251 0.25,21.591 0.25,22.001 C0.25,22.411 0.59,22.751 1,22.751 L19.93,22.751 C19.95,22.751 19.96,22.761 19.98,22.761 C20,22.761 20.01,22.751 20.03,22.751 L23,22.751 C23.41,22.751 23.75,22.411 23.75,22.001 C23.75,21.591 23.41,21.251 23,21.251 Z"/>
</svg>

