<svg xmlns="http://www.w3.org/2000/svg" width="24" height="24" viewBox="0 0 24 24">
  <defs/>
  <path fill="#292D32" d="M2,21.25 L22,21.25 Q22.311,21.25 22.53,21.47 Q22.75,21.689 22.75,22 Q22.75,22.311 22.53,22.53 Q22.311,22.75 22,22.75 L2,22.75 Q1.689,22.75 1.47,22.53 Q1.25,22.311 1.25,22 Q1.25,21.689 1.47,21.47 Q1.689,21.25 2,21.25 Z"/>
  <path fill="#292D32" d="M17,1.25 Q21.75,1.25 21.75,6 L21.75,22 Q21.75,22.311 21.53,22.53 Q21.311,22.75 21,22.75 L3,22.75 Q2.689,22.75 2.47,22.53 Q2.25,22.311 2.25,22 L2.25,6 Q2.25,1.25 7,1.25 Z M17,2.75 L7,2.75 Q3.75,2.75 3.75,6 L3.75,21.25 L20.25,21.25 L20.25,6 Q20.25,2.75 17,2.75 Z"/>
  <path fill="#292D32" opacity="0.4" d="M7,15.75 L10,15.75 Q10.311,15.75 10.53,15.97 Q10.75,16.189 10.75,16.5 Q10.75,16.811 10.53,17.03 Q10.311,17.25 10,17.25 L7,17.25 Q6.689,17.25 6.47,17.03 Q6.25,16.811 6.25,16.5 Q6.25,16.189 6.47,15.97 Q6.689,15.75 7,15.75 Z"/>
  <path fill="#292D32" opacity="0.4" d="M14,15.75 L17,15.75 Q17.311,15.75 17.53,15.97 Q17.75,16.189 17.75,16.5 Q17.75,16.811 17.53,17.03 Q17.311,17.25 17,17.25 L14,17.25 Q13.689,17.25 13.47,17.03 Q13.25,16.811 13.25,16.5 Q13.25,16.189 13.47,15.97 Q13.689,15.75 14,15.75 Z"/>
  <path fill="#292D32" opacity="0.4" d="M7,11.25 L10,11.25 Q10.311,11.25 10.53,11.47 Q10.75,11.689 10.75,12 Q10.75,12.311 10.53,12.53 Q10.311,12.75 10,12.75 L7,12.75 Q6.689,12.75 6.47,12.53 Q6.25,12.311 6.25,12 Q6.25,11.689 6.47,11.47 Q6.689,11.25 7,11.25 Z"/>
  <path fill="#292D32" opacity="0.4" d="M14,11.25 L17,11.25 Q17.311,11.25 17.53,11.47 Q17.75,11.689 17.75,12 Q17.75,12.311 17.53,12.53 Q17.311,12.75 17,12.75 L14,12.75 Q13.689,12.75 13.47,12.53 Q13.25,12.311 13.25,12 Q13.25,11.689 13.47,11.47 Q13.689,11.25 14,11.25 Z"/>
  <path fill="#292D32" opacity="0.4" d="M7,6.75 L10,6.75 Q10.311,6.75 10.53,6.97 Q10.75,7.189 10.75,7.5 Q10.75,7.811 10.53,8.03 Q10.311,8.25 10,8.25 L7,8.25 Q6.689,8.25 6.47,8.03 Q6.25,7.811 6.25,7.5 Q6.25,7.189 6.47,6.97 Q6.689,6.75 7,6.75 Z"/>
  <path fill="#292D32" opacity="0.4" d="M14,6.75 L17,6.75 Q17.311,6.75 17.53,6.97 Q17.75,7.189 17.75,7.5 Q17.75,7.811 17.53,8.03 Q17.311,8.25 17,8.25 L14,8.25 Q13.689,8.25 13.47,8.03 Q13.25,7.811 13.25,7.5 Q13.25,7.189 13.47,6.97 Q13.689,6.75 14,6.75 Z"/>
</svg>

