<svg xmlns="http://www.w3.org/2000/svg" width="24" height="24" viewBox="0 0 24 24">
  <defs/>
  <path fill="#292D32" d="M22,21.25 L2,21.25 C1.59,21.25 1.25,21.59 1.25,22 C1.25,22.41 1.59,22.75 2,22.75 L22,22.75 C22.41,22.75 22.75,22.41 22.75,22 C22.75,21.59 22.41,21.25 22,21.25 Z"/>
  <path fill="#292D32" d="M17,2 L7,2 C4,2 3,3.79 3,6 L3,22 L21,22 L21,6 C21,3.79 20,2 17,2 Z M10,17.25 L7,17.25 C6.59,17.25 6.25,16.91 6.25,16.5 C6.25,16.09 6.59,15.75 7,15.75 L10,15.75 C10.41,15.75 10.75,16.09 10.75,16.5 C10.75,16.91 10.41,17.25 10,17.25 Z M10,12.75 L7,12.75 C6.59,12.75 6.25,12.41 6.25,12 C6.25,11.59 6.59,11.25 7,11.25 L10,11.25 C10.41,11.25 10.75,11.59 10.75,12 C10.75,12.41 10.41,12.75 10,12.75 Z M10,8.25 L7,8.25 C6.59,8.25 6.25,7.91 6.25,7.5 C6.25,7.09 6.59,6.75 7,6.75 L10,6.75 C10.41,6.75 10.75,7.09 10.75,7.5 C10.75,7.91 10.41,8.25 10,8.25 Z M17,17.25 L14,17.25 C13.59,17.25 13.25,16.91 13.25,16.5 C13.25,16.09 13.59,15.75 14,15.75 L17,15.75 C17.41,15.75 17.75,16.09 17.75,16.5 C17.75,16.91 17.41,17.25 17,17.25 Z M17,12.75 L14,12.75 C13.59,12.75 13.25,12.41 13.25,12 C13.25,11.59 13.59,11.25 14,11.25 L17,11.25 C17.41,11.25 17.75,11.59 17.75,12 C17.75,12.41 17.41,12.75 17,12.75 Z M17,8.25 L14,8.25 C13.59,8.25 13.25,7.91 13.25,7.5 C13.25,7.09 13.59,6.75 14,6.75 L17,6.75 C17.41,6.75 17.75,7.09 17.75,7.5 C17.75,7.91 17.41,8.25 17,8.25 Z"/>
</svg>

