<svg xmlns="http://www.w3.org/2000/svg" width="24" height="24" viewBox="0 0 24 24">
  <defs/>
  <path fill="#292D32" opacity="0.4" d="M16.9,22 L7.1,22 C5.4,22 4,20.61 4,18.9 L4,5.1 C4,3.4 5.39,2 7.1,2 L16.9,2 C18.6,2 20,3.39 20,5.1 L20,18.9 C20,20.61 18.61,22 16.9,22 Z"/>
  <path fill="#292D32" d="M20,8 L4,8 L4,13 L20,13 L20,8 Z"/>
  <path fill="#292D32" d="M8,18.75 C7.92,18.75 7.84,18.74 7.76,18.73 C7.68,18.71 7.6,18.69 7.52,18.65 C7.45,18.62 7.37,18.58 7.31,18.54 C7.24,18.49 7.17,18.44 7.12,18.38 C6.88,18.15 6.75,17.83 6.75,17.5 C6.75,17.17 6.88,16.85 7.12,16.62 C7.17,16.56 7.24,16.51 7.31,16.46 C7.37,16.42 7.45,16.38 7.52,16.35 C7.6,16.31 7.68,16.29 7.76,16.27 C8.16,16.19 8.59,16.33 8.88,16.62 C9.12,16.85 9.25,17.17 9.25,17.5 C9.25,17.83 9.12,18.15 8.88,18.38 C8.65,18.62 8.33,18.75 8,18.75 Z"/>
  <path fill="#292D32" d="M16,18.75 C15.92,18.75 15.84,18.74 15.76,18.73 C15.68,18.71 15.6,18.69 15.52,18.65 C15.45,18.62 15.37,18.58 15.31,18.54 C15.24,18.49 15.17,18.44 15.12,18.38 C14.88,18.15 14.75,17.83 14.75,17.5 C14.75,17.17 14.88,16.85 15.12,16.62 C15.17,16.56 15.24,16.51 15.31,16.46 C15.37,16.42 15.45,16.38 15.52,16.35 C15.6,16.31 15.68,16.29 15.76,16.27 C15.92,16.24 16.08,16.24 16.25,16.27 C16.32,16.29 16.4,16.31 16.48,16.35 C16.55,16.38 16.63,16.42 16.69,16.46 C16.76,16.51 16.83,16.56 16.88,16.62 C17.12,16.85 17.25,17.17 17.25,17.5 C17.25,17.83 17.12,18.15 16.88,18.38 C16.83,18.44 16.76,18.49 16.69,18.54 C16.63,18.58 16.55,18.62 16.48,18.65 C16.4,18.69 16.32,18.71 16.25,18.73 C16.16,18.74 16.08,18.75 16,18.75 Z"/>
  <path fill="#292D32" d="M14.5,5.75 L9.5,5.75 C9.09,5.75 8.75,5.41 8.75,5 C8.75,4.59 9.09,4.25 9.5,4.25 L14.5,4.25 C14.91,4.25 15.25,4.59 15.25,5 C15.25,5.41 14.91,5.75 14.5,5.75 Z"/>
</svg>

