<svg xmlns="http://www.w3.org/2000/svg" width="24" height="24" viewBox="0 0 24 24">
  <defs/>
  <path fill="#292D32" d="M16.9,22.75 L7.1,22.75 Q3.25,22.75 3.25,18.9 L3.25,5.1 Q3.25,1.25 7.1,1.25 L16.9,1.25 Q20.75,1.25 20.75,5.1 L20.75,18.9 Q20.75,22.75 16.9,22.75 Z M16.9,21.25 Q19.25,21.25 19.25,18.9 L19.25,5.1 Q19.25,2.75 16.9,2.75 L7.1,2.75 Q4.75,2.75 4.75,5.1 L4.75,18.9 Q4.75,19.87 5.442,20.56 Q6.133,21.25 7.1,21.25 Z"/>
  <path fill="#292D32" d="M18.5,13.75 L5.5,13.75 Q3.25,13.75 3.25,11.5 L3.25,9.5 Q3.25,7.25 5.5,7.25 L18.5,7.25 Q20.75,7.25 20.75,9.5 L20.75,11.5 Q20.75,13.75 18.5,13.75 Z M18.5,12.25 Q19.25,12.25 19.25,11.5 L19.25,9.5 Q19.25,8.75 18.5,8.75 L5.5,8.75 Q4.75,8.75 4.75,9.5 L4.75,11.5 Q4.75,12.25 5.5,12.25 Z"/>
  <path fill="#292D32" d="M8.495,16.45 L8.503,16.45 Q9.021,16.45 9.387,16.816 Q9.753,17.182 9.753,17.7 Q9.753,18.218 9.387,18.584 Q9.021,18.95 8.503,18.95 L8.495,18.95 Q7.977,18.95 7.611,18.584 Q7.245,18.218 7.245,17.7 Q7.245,17.182 7.611,16.816 Q7.977,16.45 8.495,16.45 Z"/>
  <path fill="#292D32" d="M15.495,16.45 L15.503,16.45 Q16.021,16.45 16.387,16.816 Q16.753,17.182 16.753,17.7 Q16.753,18.218 16.387,18.584 Q16.021,18.95 15.503,18.95 L15.495,18.95 Q14.977,18.95 14.611,18.584 Q14.244,18.218 14.244,17.7 Q14.244,17.182 14.611,16.816 Q14.977,16.45 15.495,16.45 Z"/>
  <path fill="#292D32" d="M9.5,4.25 L14.5,4.25 Q14.811,4.25 15.03,4.47 Q15.25,4.689 15.25,5 Q15.25,5.311 15.03,5.53 Q14.811,5.75 14.5,5.75 L9.5,5.75 Q9.189,5.75 8.97,5.53 Q8.75,5.311 8.75,5 Q8.75,4.689 8.97,4.47 Q9.189,4.25 9.5,4.25 Z"/>
</svg>

