<svg xmlns="http://www.w3.org/2000/svg" width="24" height="24" viewBox="0 0 24 24">
  <defs/>
  <path fill="#292D32" d="M22,8.5 C22,12.09 19.09,15 15.5,15 C15.33,15 15.15,14.99 14.98,14.98 C14.73,11.81 12.19,9.27 9.02,9.02 C9.01,8.85 9,8.67 9,8.5 C9,4.91 11.91,2 15.5,2 C19.09,2 22,4.91 22,8.5 Z"/>
  <path fill="#292D32" opacity="0.4" d="M15,15.5 C15,19.09 12.09,22 8.5,22 C4.91,22 2,19.09 2,15.5 C2,11.91 4.91,9 8.5,9 C8.67,9 8.85,9.01 9.02,9.02 C12.19,9.27 14.73,11.81 14.98,14.98 C14.99,15.15 15,15.33 15,15.5 Z"/>
  <path fill="#292D32" d="M7.62,14.62 L8.5,13 L9.38,14.62 L11,15.5 L9.38,16.38 L8.5,18 L7.62,16.38 L6,15.5 L7.62,14.62 Z"/>
</svg>

