<svg xmlns="http://www.w3.org/2000/svg" width="24" height="24" viewBox="0 0 24 24">
  <defs/>
  <path fill="#292D32" d="M15.5,15.75 C15.32,15.75 15.12,15.74 14.94,15.73 C14.57,15.71 14.27,15.41 14.24,15.04 C14.02,12.25 11.75,9.99 8.97,9.77 C8.6,9.74 8.3,9.44 8.28,9.07 C8.27,8.89 8.26,8.69 8.26,8.51 C8.26,4.51 11.51,1.26 15.51,1.26 C19.51,1.26 22.76,4.51 22.76,8.51 C22.76,12.51 19.5,15.75 15.5,15.75 Z M9.75,8.36 C12.73,8.89 15.12,11.27 15.64,14.25 C18.75,14.17 21.25,11.63 21.25,8.5 C21.25,5.33 18.67,2.75 15.5,2.75 C12.38,2.75 9.83,5.25 9.75,8.36 Z"/>
  <path fill="#292D32" d="M8.5,22.75 C4.5,22.75 1.25,19.5 1.25,15.5 C1.25,11.5 4.5,8.25 8.5,8.25 C8.68,8.25 8.88,8.26 9.06,8.27 C12.59,8.55 15.45,11.41 15.72,14.92 C15.73,15.12 15.74,15.32 15.74,15.5 C15.75,19.5 12.5,22.75 8.5,22.75 Z M8.5,9.75 C5.33,9.75 2.75,12.33 2.75,15.5 C2.75,18.67 5.33,21.25 8.5,21.25 C11.67,21.25 14.25,18.67 14.25,15.5 C14.25,15.34 14.24,15.18 14.23,15.02 C14.01,12.25 11.74,9.98 8.96,9.76 C8.82,9.76 8.66,9.75 8.5,9.75 Z"/>
  <path fill="#292D32" d="M8.5,18.75 C8.23,18.75 7.97,18.6 7.84,18.36 L7.06,16.94 L5.64,16.16 C5.4,16.03 5.25,15.78 5.25,15.5 C5.25,15.22 5.4,14.97 5.64,14.84 L7.06,14.06 L7.84,12.64 C8.1,12.16 8.89,12.16 9.16,12.64 L9.94,14.06 L11.36,14.84 C11.6,14.97 11.75,15.22 11.75,15.5 C11.75,15.78 11.6,16.03 11.36,16.16 L9.94,16.94 L9.16,18.36 C9.03,18.6 8.77,18.75 8.5,18.75 Z M7.56,15.5 L7.97,15.73 C8.1,15.8 8.2,15.9 8.27,16.03 L8.5,16.44 L8.73,16.03 C8.8,15.9 8.9,15.8 9.03,15.73 L9.44,15.5 L9.03,15.27 C8.9,15.2 8.8,15.1 8.73,14.97 L8.5,14.56 L8.27,14.97 C8.2,15.1 8.1,15.2 7.97,15.27 L7.56,15.5 Z"/>
</svg>

