<svg xmlns="http://www.w3.org/2000/svg" width="24" height="24" viewBox="0 0 24 24">
  <defs/>
  <path fill="#292D32" d="M22,8.5 C22,11.76 19.6,14.45 16.48,14.92 L16.48,14.86 C16.17,10.98 13.02,7.83 9.11,7.52 L9.08,7.52 C9.55,4.4 12.24,2 15.5,2 C19.09,2 22,4.91 22,8.5 Z"/>
  <path fill="#292D32" d="M14.98,14.98 C14.73,11.81 12.19,9.27 9.02,9.02 C8.85,9.01 8.67,9 8.5,9 C4.91,9 2,11.91 2,15.5 C2,19.09 4.91,22 8.5,22 C12.09,22 15,19.09 15,15.5 C15,15.33 14.99,15.15 14.98,14.98 Z M9.38,16.38 L8.5,18 L7.62,16.38 L6,15.5 L7.62,14.62 L8.5,13 L9.38,14.62 L11,15.5 L9.38,16.38 Z"/>
</svg>

