<svg xmlns="http://www.w3.org/2000/svg" width="24" height="24" viewBox="0 0 24 24">
  <defs/>
  <path fill="#292D32" d="M22.75,8.5 Q22.75,11.503 20.627,13.627 Q18.503,15.75 15.5,15.75 Q15.298,15.75 14.936,15.729 Q14.656,15.712 14.455,15.516 Q14.254,15.319 14.232,15.039 Q13.847,10.153 8.961,9.768 Q8.681,9.746 8.484,9.545 Q8.288,9.344 8.271,9.064 Q8.25,8.702 8.25,8.5 Q8.25,5.497 10.373,3.373 Q12.497,1.25 15.5,1.25 Q18.503,1.25 20.627,3.373 Q22.75,5.497 22.75,8.5 Z M21.25,8.5 Q21.25,6.118 19.566,4.434 Q17.882,2.75 15.5,2.75 Q13.118,2.75 11.434,4.434 Q9.802,6.066 9.752,8.354 Q11.977,8.726 13.625,10.375 Q15.274,12.023 15.646,14.248 Q17.934,14.198 19.566,12.566 Q21.25,10.882 21.25,8.5 Z"/>
  <path fill="#292D32" d="M4.238,21.366 Q1.25,19.189 1.25,15.5 Q1.25,12.497 3.373,10.373 Q5.497,8.25 8.5,8.25 Q8.702,8.25 9.064,8.271 Q11.732,8.482 13.625,10.375 Q15.518,12.268 15.728,14.921 Q15.75,15.298 15.75,15.5 Q15.75,18.503 13.627,20.627 Q11.503,22.75 8.5,22.75 Q8.189,22.75 7.97,22.53 Q7.75,22.311 7.75,22 Q7.75,21.689 7.97,21.47 Q8.189,21.25 8.5,21.25 Q10.882,21.25 12.566,19.566 Q14.25,17.882 14.25,15.5 Q14.25,15.342 14.232,15.039 Q13.847,10.153 8.976,9.769 Q8.658,9.75 8.5,9.75 Q6.118,9.75 4.434,11.434 Q2.75,13.118 2.75,15.5 Q2.75,18.426 5.122,20.154 Q5.373,20.337 5.421,20.644 Q5.469,20.95 5.286,21.202 Q5.103,21.453 4.796,21.501 Q4.49,21.549 4.238,21.366 Z"/>
  <path fill="#292D32" d="M7.067,14.067 L7.841,12.642 Q7.989,12.369 8.287,12.281 Q8.585,12.193 8.858,12.341 Q9.053,12.447 9.159,12.642 L9.933,14.067 L11.358,14.841 Q11.631,14.989 11.719,15.287 Q11.807,15.585 11.659,15.858 Q11.553,16.053 11.358,16.159 L9.933,16.933 L9.159,18.358 Q9.011,18.631 8.713,18.719 Q8.415,18.807 8.142,18.659 Q7.947,18.553 7.841,18.358 L7.067,16.933 L5.642,16.159 Q5.369,16.011 5.281,15.713 Q5.193,15.415 5.341,15.142 Q5.447,14.947 5.642,14.841 L7.067,14.067 Z M8.279,14.978 Q8.173,15.173 7.978,15.279 L7.571,15.5 L7.978,15.721 Q8.173,15.827 8.279,16.022 L8.5,16.429 L8.721,16.022 Q8.827,15.827 9.022,15.721 L9.429,15.5 L9.022,15.279 Q8.827,15.173 8.721,14.978 L8.5,14.571 Z"/>
</svg>

