<svg xmlns="http://www.w3.org/2000/svg" width="24" height="24" viewBox="0 0 24 24">
  <defs/>
  <path fill="#292D32" d="M2,21.25 L22,21.25 Q22.311,21.25 22.53,21.47 Q22.75,21.689 22.75,22 Q22.75,22.311 22.53,22.53 Q22.311,22.75 22,22.75 L2,22.75 Q1.689,22.75 1.47,22.53 Q1.25,22.311 1.25,22 Q1.25,21.689 1.47,21.47 Q1.689,21.25 2,21.25 Z"/>
  <path fill="#292D32" d="M2.359,22 L2.359,13 Q2.359,11.421 3.583,10.32 Q4.771,9.25 6.439,9.25 L17.549,9.25 Q21.629,9.25 21.629,13 L21.629,22 Q21.629,22.311 21.41,22.53 Q21.19,22.75 20.879,22.75 Q20.569,22.75 20.349,22.53 Q20.129,22.311 20.129,22 L20.129,13 Q20.129,10.75 17.549,10.75 L6.439,10.75 Q3.859,10.75 3.859,13 L3.859,22 Q3.859,22.311 3.64,22.53 Q3.42,22.75 3.109,22.75 Q2.799,22.75 2.579,22.53 Q2.359,22.311 2.359,22 Z"/>
  <path fill="#292D32" d="M4.811,10 L4.811,7.17 Q4.811,4.25 7.981,4.25 L16.031,4.25 Q19.19,4.25 19.191,7.17 L19.191,10 Q19.19,10.311 18.971,10.53 Q18.751,10.75 18.44,10.75 Q18.13,10.75 17.91,10.53 Q17.691,10.311 17.691,10 L17.691,7.17 Q17.691,6.605 17.233,6.193 Q16.741,5.75 16.031,5.75 L7.981,5.75 Q6.311,5.75 6.311,7.17 L6.311,10 Q6.311,10.311 6.091,10.53 Q5.871,10.75 5.561,10.75 Q5.25,10.75 5.03,10.53 Q4.811,10.311 4.811,10 Z"/>
  <path fill="#292D32" opacity="0.34" d="M3.55,13.23 L3.92,13.24 Q5.979,13.268 5.979,15.34 L5.979,15.67 Q5.979,16.27 6.579,16.27 Q7.179,16.27 7.179,15.67 L7.179,15.36 Q7.179,13.26 9.279,13.26 Q10.146,13.26 10.761,13.872 Q11.379,14.487 11.379,15.36 L11.379,15.67 Q11.379,16.27 11.979,16.27 Q12.579,16.27 12.579,15.67 L12.579,15.36 Q12.579,13.26 14.679,13.26 Q15.546,13.26 16.161,13.872 Q16.779,14.487 16.779,15.36 L16.779,15.67 Q16.779,16.27 17.379,16.27 Q17.979,16.27 17.979,15.67 L17.979,15.36 Q17.979,13.26 20.079,13.26 L20.529,13.26 Q20.84,13.26 21.06,13.48 Q21.279,13.699 21.279,14.01 Q21.279,14.321 21.06,14.54 Q20.84,14.76 20.529,14.76 L20.079,14.76 Q19.479,14.76 19.479,15.36 L19.479,15.67 Q19.479,16.543 18.861,17.158 Q18.246,17.77 17.379,17.77 Q16.507,17.77 15.891,17.151 Q15.279,16.536 15.279,15.67 L15.279,15.36 Q15.279,14.76 14.679,14.76 Q14.079,14.76 14.079,15.36 L14.079,15.67 Q14.079,17.77 11.979,17.77 Q9.879,17.77 9.879,15.67 L9.879,15.36 Q9.879,15.111 9.703,14.936 Q9.526,14.76 9.279,14.76 Q8.679,14.76 8.679,15.36 L8.679,15.67 Q8.679,17.77 6.579,17.77 Q4.479,17.77 4.479,15.67 L4.479,15.34 Q4.479,14.748 3.879,14.74 L3.509,14.73 Q3.198,14.721 2.985,14.496 Q2.771,14.27 2.78,13.96 Q2.788,13.649 3.013,13.436 Q3.239,13.222 3.55,13.23 Z"/>
  <path fill="#292D32" opacity="0.34" d="M7.25,5 L7.25,3 Q7.25,2.689 7.47,2.47 Q7.689,2.25 8,2.25 Q8.311,2.25 8.53,2.47 Q8.75,2.689 8.75,3 L8.75,5 Q8.75,5.311 8.53,5.53 Q8.311,5.75 8,5.75 Q7.689,5.75 7.47,5.53 Q7.25,5.311 7.25,5 Z"/>
  <path fill="#292D32" opacity="0.34" d="M15.25,5 L15.25,3 Q15.25,2.689 15.47,2.47 Q15.689,2.25 16,2.25 Q16.311,2.25 16.53,2.47 Q16.75,2.689 16.75,3 L16.75,5 Q16.75,5.311 16.53,5.53 Q16.311,5.75 16,5.75 Q15.689,5.75 15.47,5.53 Q15.25,5.311 15.25,5 Z"/>
  <path fill="#292D32" opacity="0.34" d="M11.25,5 L11.25,2 Q11.25,1.689 11.47,1.47 Q11.689,1.25 12,1.25 Q12.311,1.25 12.53,1.47 Q12.75,1.689 12.75,2 L12.75,5 Q12.75,5.311 12.53,5.53 Q12.311,5.75 12,5.75 Q11.689,5.75 11.47,5.53 Q11.25,5.311 11.25,5 Z"/>
</svg>

