<svg xmlns="http://www.w3.org/2000/svg" width="24" height="24" viewBox="0 0 24 24">
  <defs/>
  <path fill="#292D32" d="M20.889,13 L20.889,14 L20.019,14 C19.279,14 18.679,14.6 18.679,15.35 L18.679,15.65 C18.679,16.4 18.079,17 17.329,17 C16.589,17 15.989,16.4 15.989,15.65 L15.989,15.35 C15.989,14.6 15.379,14 14.639,14 C13.899,14 13.299,14.6 13.299,15.35 L13.299,15.65 C13.299,16.4 12.689,17 11.949,17 C11.209,17 10.599,16.4 10.599,15.65 L10.599,15.35 C10.599,14.6 9.999,14 9.259,14 C8.519,14 7.909,14.6 7.909,15.35 L7.909,15.65 C7.909,16.4 7.309,17 6.569,17 C5.819,17 5.219,16.4 5.219,15.65 L5.219,15.33 C5.219,14.59 4.629,13.99 3.899,13.98 L3.109,13.98 L3.109,13 C3.109,11.62 4.149,10.45 5.559,10.11 C5.839,10.04 6.129,10 6.439,10 L17.559,10 C17.869,10 18.159,10.04 18.439,10.11 C19.849,10.45 20.889,11.62 20.889,13 Z"/>
  <path fill="#292D32" d="M18.441,7.17 L18.441,8.58 C18.151,8.52 17.86,8.5 17.561,8.5 L6.441,8.5 C6.141,8.5 5.851,8.53 5.561,8.59 L5.561,7.17 C5.561,5.97 6.641,5 7.981,5 L16.02,5 C17.36,5 18.441,5.97 18.441,7.17 Z"/>
  <path fill="#292D32" d="M8.75,3.548 L8.75,5.008 L7.98,5.008 C7.72,5.008 7.48,5.038 7.25,5.098 L7.25,3.548 C7.25,3.198 7.59,2.898 8,2.898 C8.41,2.898 8.75,3.198 8.75,3.548 Z"/>
  <path fill="#292D32" d="M16.75,3.328 L16.75,5.098 C16.52,5.028 16.28,4.998 16.02,4.998 L15.25,4.998 L15.25,3.328 C15.25,2.918 15.59,2.578 16,2.578 C16.41,2.578 16.75,2.918 16.75,3.328 Z"/>
  <path fill="#292D32" d="M12.75,2.82 L12.75,5 L11.25,5 L11.25,2.82 C11.25,2.37 11.59,2 12,2 C12.41,2 12.75,2.37 12.75,2.82 Z"/>
  <path fill="#292D32" d="M22,21.25 C22,21.66 21.66,22 21.25,22 L2.75,22 C2.34,22 2,21.66 2,21.25 C2,20.84 2.34,20.5 2.75,20.5 L3.11,20.5 L3.11,15.48 L3.72,15.48 L3.72,15.55 C3.72,16.89 4.6,18.131 5.91,18.421 C6.93,18.66 7.9,18.331 8.56,17.68 C8.94,17.3 9.56,17.291 9.94,17.671 C10.46,18.18 11.17,18.5 11.95,18.5 C12.73,18.5 13.44,18.191 13.96,17.671 C14.34,17.3 14.95,17.3 15.34,17.68 C15.99,18.331 16.96,18.66 17.99,18.421 C19.3,18.131 20.18,16.89 20.18,15.55 L20.18,15.501 L20.89,15.501 L20.89,20.5 L21.25,20.5 C21.66,20.5 22,20.84 22,21.25 Z"/>
</svg>

