<svg xmlns="http://www.w3.org/2000/svg" width="24" height="24" viewBox="0 0 24 24">
  <defs/>
  <path fill="#292D32" d="M2,21.25 L22,21.25 Q22.311,21.25 22.53,21.47 Q22.75,21.689 22.75,22 Q22.75,22.311 22.53,22.53 Q22.311,22.75 22,22.75 L2,22.75 Q1.689,22.75 1.47,22.53 Q1.25,22.311 1.25,22 Q1.25,21.689 1.47,21.47 Q1.689,21.25 2,21.25 Z"/>
  <path fill="#292D32" d="M17.56,9.25 Q21.64,9.25 21.64,13 L21.64,22 Q21.64,22.311 21.421,22.53 Q21.201,22.75 20.89,22.75 Q20.58,22.75 20.36,22.53 Q20.14,22.311 20.14,22 L20.14,13 Q20.14,10.75 17.56,10.75 Q17.25,10.75 17.03,10.53 Q16.81,10.311 16.81,10 Q16.81,9.689 17.03,9.47 Q17.25,9.25 17.56,9.25 Z"/>
  <path fill="#292D32" d="M2.359,22 L2.359,13 Q2.359,11.421 3.583,10.32 Q4.771,9.25 6.439,9.25 L13.299,9.25 Q13.61,9.25 13.83,9.47 Q14.049,9.689 14.049,10 Q14.049,10.311 13.83,10.53 Q13.61,10.75 13.299,10.75 L6.439,10.75 Q3.859,10.75 3.859,13 L3.859,22 Q3.859,22.311 3.64,22.53 Q3.42,22.75 3.109,22.75 Q2.799,22.75 2.579,22.53 Q2.359,22.311 2.359,22 Z"/>
  <path fill="#292D32" d="M4.811,10 L4.811,7.17 Q4.811,4.25 7.981,4.25 L16.031,4.25 Q19.19,4.25 19.191,7.17 L19.191,10 Q19.19,10.311 18.971,10.53 Q18.751,10.75 18.44,10.75 Q18.13,10.75 17.91,10.53 Q17.691,10.311 17.691,10 L17.691,7.17 Q17.691,6.605 17.233,6.193 Q16.741,5.75 16.031,5.75 L7.981,5.75 Q6.311,5.75 6.311,7.17 L6.311,10 Q6.311,10.311 6.091,10.53 Q5.871,10.75 5.561,10.75 Q5.25,10.75 5.03,10.53 Q4.811,10.311 4.811,10 Z"/>
  <path fill="#292D32" d="M20.47,14.75 L20.02,14.75 Q19.42,14.75 19.42,15.35 L19.42,15.66 Q19.42,17.76 17.32,17.76 Q15.22,17.76 15.22,15.66 L15.22,15.35 Q15.22,14.75 14.62,14.75 Q14.02,14.75 14.02,15.35 L14.02,15.66 Q14.02,17.76 11.92,17.76 Q9.82,17.76 9.82,15.66 L9.82,15.35 Q9.82,15.335 9.821,15.32 Q9.83,15.084 9.668,14.919 Q9.503,14.75 9.26,14.75 Q8.66,14.75 8.66,15.35 Q8.66,15.661 8.44,15.88 Q8.221,16.1 7.91,16.1 Q7.599,16.1 7.38,15.88 Q7.16,15.661 7.16,15.35 Q7.16,13.25 9.26,13.25 Q10.133,13.25 10.74,13.869 Q11.349,14.491 11.32,15.364 L11.32,15.66 Q11.32,16.26 11.92,16.26 Q12.52,16.26 12.52,15.66 L12.52,15.35 Q12.52,13.25 14.62,13.25 Q16.72,13.25 16.72,15.35 L16.72,15.66 Q16.72,16.26 17.32,16.26 Q17.92,16.26 17.92,15.66 L17.92,15.35 Q17.92,13.25 20.02,13.25 L20.47,13.25 Q20.781,13.25 21.001,13.47 Q21.22,13.689 21.22,14 Q21.22,14.311 21.001,14.53 Q20.781,14.75 20.47,14.75 Z"/>
  <path fill="#292D32" d="M3.55,13.23 L3.92,13.24 Q5.979,13.268 5.979,15.34 L5.979,15.67 Q5.979,16.27 6.579,16.27 Q6.89,16.27 7.11,16.49 Q7.329,16.709 7.329,17.02 Q7.329,17.331 7.11,17.55 Q6.89,17.77 6.579,17.77 Q4.479,17.77 4.479,15.67 L4.479,15.34 Q4.479,14.748 3.879,14.74 L3.509,14.73 Q3.198,14.721 2.985,14.496 Q2.771,14.27 2.78,13.96 Q2.788,13.649 3.013,13.436 Q3.239,13.222 3.55,13.23 Z"/>
  <path fill="#292D32" d="M7.25,5 L7.25,3 Q7.25,2.689 7.47,2.47 Q7.689,2.25 8,2.25 Q8.311,2.25 8.53,2.47 Q8.75,2.689 8.75,3 L8.75,5 Q8.75,5.311 8.53,5.53 Q8.311,5.75 8,5.75 Q7.689,5.75 7.47,5.53 Q7.25,5.311 7.25,5 Z"/>
  <path fill="#292D32" d="M15.25,5 L15.25,3 Q15.25,2.689 15.47,2.47 Q15.689,2.25 16,2.25 Q16.311,2.25 16.53,2.47 Q16.75,2.689 16.75,3 L16.75,5 Q16.75,5.311 16.53,5.53 Q16.311,5.75 16,5.75 Q15.689,5.75 15.47,5.53 Q15.25,5.311 15.25,5 Z"/>
  <path fill="#292D32" d="M11.25,5 L11.25,2 Q11.25,1.689 11.47,1.47 Q11.689,1.25 12,1.25 Q12.311,1.25 12.53,1.47 Q12.75,1.689 12.75,2 L12.75,5 Q12.75,5.311 12.53,5.53 Q12.311,5.75 12,5.75 Q11.689,5.75 11.47,5.53 Q11.25,5.311 11.25,5 Z"/>
</svg>

