<svg xmlns="http://www.w3.org/2000/svg" width="24" height="24" viewBox="0 0 24 24">
  <defs/>
  <path fill="#292D32" d="M20.889,13 L20.889,14 L20.019,14 C19.279,14 18.679,14.6 18.679,15.35 L18.679,15.65 C18.679,16.4 18.079,17 17.329,17 C16.589,17 15.989,16.4 15.989,15.65 L15.989,15.35 C15.989,14.6 15.379,14 14.639,14 C13.899,14 13.299,14.6 13.299,15.35 L13.299,15.65 C13.299,16.4 12.689,17 11.949,17 C11.209,17 10.599,16.4 10.599,15.65 L10.599,15.35 C10.599,14.6 9.999,14 9.259,14 C8.519,14 7.909,14.6 7.909,15.35 L7.909,15.65 C7.909,16.4 7.309,17 6.569,17 C5.819,17 5.219,16.4 5.219,15.65 L5.219,15.33 C5.219,14.59 4.629,13.99 3.899,13.98 L3.109,13.98 L3.109,13 C3.109,11.62 4.149,10.45 5.559,10.11 C5.839,10.04 6.129,10 6.439,10 L17.559,10 C17.869,10 18.159,10.04 18.439,10.11 C19.849,10.45 20.889,11.62 20.889,13 Z"/>
  <path fill="#292D32" opacity="0.4" d="M18.441,7.17 L18.441,10.11 C18.16,10.04 17.87,10 17.561,10 L6.441,10 C6.131,10 5.841,10.04 5.561,10.11 L5.561,7.17 C5.561,5.97 6.641,5 7.981,5 L16.02,5 C17.36,5 18.441,5.97 18.441,7.17 Z"/>
  <path fill="#292D32" d="M8.75,3.55 L8.75,5.01 L7.98,5.01 C7.72,5.01 7.48,5.04 7.25,5.1 L7.25,3.55 C7.25,3.2 7.59,2.9 8,2.9 C8.41,2.9 8.75,3.2 8.75,3.55 Z"/>
  <path fill="#292D32" d="M16.75,3.33 L16.75,5.1 C16.52,5.03 16.28,5 16.02,5 L15.25,5 L15.25,3.33 C15.25,2.92 15.59,2.58 16,2.58 C16.41,2.58 16.75,2.92 16.75,3.33 Z"/>
  <path fill="#292D32" d="M12.75,2.82 L12.75,5 L11.25,5 L11.25,2.82 C11.25,2.37 11.59,2 12,2 C12.41,2 12.75,2.37 12.75,2.82 Z"/>
  <path fill="#292D32" opacity="0.4" d="M21.25,20.5 L20.89,20.5 L20.89,14 L20.02,14 C19.28,14 18.68,14.6 18.68,15.35 L18.68,15.65 C18.68,16.4 18.08,17 17.33,17 C16.59,17 15.99,16.4 15.99,15.65 L15.99,15.35 C15.99,14.6 15.38,14 14.64,14 C13.9,14 13.3,14.6 13.3,15.35 L13.3,15.65 C13.3,16.4 12.69,17 11.95,17 C11.21,17 10.6,16.4 10.6,15.65 L10.6,15.35 C10.6,14.6 10,14 9.26,14 C8.52,14 7.91,14.6 7.91,15.35 L7.91,15.65 C7.91,16.4 7.31,17 6.57,17 C5.82,17 5.22,16.4 5.22,15.65 L5.22,15.33 C5.22,14.59 4.63,13.99 3.9,13.98 L3.11,13.98 L3.11,20.5 L2.75,20.5 C2.34,20.5 2,20.84 2,21.25 C2,21.66 2.34,22 2.75,22 L3.11,22 L20.89,22 L21.25,22 C21.66,22 22,21.66 22,21.25 C22,20.84 21.66,20.5 21.25,20.5 Z"/>
</svg>

