<svg xmlns="http://www.w3.org/2000/svg" width="24" height="24" viewBox="0 0 24 24">
  <defs/>
  <path fill="#292D32" d="M22,22.75 L2,22.75 C1.59,22.75 1.25,22.41 1.25,22 C1.25,21.59 1.59,21.25 2,21.25 L22,21.25 C22.41,21.25 22.75,21.59 22.75,22 C22.75,22.41 22.41,22.75 22,22.75 Z"/>
  <path fill="#292D32" d="M20.889,22.75 C20.479,22.75 20.139,22.41 20.139,22 L20.139,13 C20.139,11.76 18.979,10.75 17.559,10.75 L6.439,10.75 C5.019,10.75 3.859,11.76 3.859,13 L3.859,22 C3.859,22.41 3.519,22.75 3.109,22.75 C2.699,22.75 2.359,22.41 2.359,22 L2.359,13 C2.359,10.93 4.189,9.25 6.439,9.25 L17.549,9.25 C19.799,9.25 21.629,10.93 21.629,13 L21.629,22 C21.639,22.41 21.299,22.75 20.889,22.75 Z"/>
  <path fill="#292D32" d="M18.441,10.75 C18.03,10.75 17.691,10.41 17.691,10 L17.691,7.17 C17.691,6.39 16.941,5.75 16.03,5.75 L7.981,5.75 C7.061,5.75 6.321,6.39 6.321,7.17 L6.321,10 C6.321,10.41 5.981,10.75 5.571,10.75 C5.161,10.75 4.811,10.41 4.811,10 L4.811,7.17 C4.811,5.56 6.231,4.25 7.971,4.25 L16.02,4.25 C17.761,4.25 19.18,5.56 19.18,7.17 L19.18,10 C19.191,10.41 18.851,10.75 18.441,10.75 Z"/>
  <path fill="#292D32" d="M17.331,17.75 C16.171,17.75 15.231,16.81 15.231,15.65 L15.231,15.34 C15.231,15.01 14.961,14.74 14.631,14.74 C14.301,14.74 14.031,15.01 14.031,15.34 L14.031,15.65 C14.031,16.81 13.091,17.75 11.931,17.75 C10.771,17.75 9.831,16.81 9.831,15.65 L9.831,15.34 C9.831,15.01 9.561,14.74 9.231,14.74 C8.901,14.74 8.631,15.01 8.631,15.34 L8.631,15.65 C8.631,16.81 7.691,17.75 6.531,17.75 C5.371,17.75 4.431,16.81 4.431,15.65 L4.431,15.32 C4.431,15 4.171,14.73 3.841,14.72 L3.471,14.72 C3.061,14.71 2.721,14.37 2.731,13.96 C2.741,13.55 3.071,13.22 3.481,13.22 L3.491,13.22 L3.861,13.22 C5.001,13.24 5.931,14.18 5.931,15.32 L5.931,15.65 C5.931,15.98 6.201,16.25 6.531,16.25 C6.861,16.25 7.131,15.98 7.131,15.65 L7.131,15.34 C7.131,14.18 8.071,13.24 9.231,13.24 C10.391,13.24 11.331,14.18 11.331,15.34 L11.331,15.65 C11.331,15.98 11.601,16.25 11.931,16.25 C12.261,16.25 12.531,15.98 12.531,15.65 L12.531,15.34 C12.531,14.18 13.471,13.24 14.631,13.24 C15.791,13.24 16.731,14.18 16.731,15.34 L16.731,15.65 C16.731,15.98 17.001,16.25 17.331,16.25 C17.661,16.25 17.931,15.98 17.931,15.65 L17.931,15.34 C17.931,14.18 18.871,13.24 20.031,13.24 L20.481,13.24 C20.891,13.24 21.231,13.58 21.231,13.99 C21.231,14.4 20.891,14.74 20.481,14.74 L20.031,14.74 C19.701,14.74 19.431,15.01 19.431,15.34 L19.431,15.65 C19.431,16.81 18.491,17.75 17.331,17.75 Z"/>
  <path fill="#292D32" d="M8,5.75 C7.59,5.75 7.25,5.41 7.25,5 L7.25,3 C7.25,2.59 7.59,2.25 8,2.25 C8.41,2.25 8.75,2.59 8.75,3 L8.75,5 C8.75,5.41 8.41,5.75 8,5.75 Z"/>
  <path fill="#292D32" d="M16,5.75 C15.59,5.75 15.25,5.41 15.25,5 L15.25,3 C15.25,2.59 15.59,2.25 16,2.25 C16.41,2.25 16.75,2.59 16.75,3 L16.75,5 C16.75,5.41 16.41,5.75 16,5.75 Z"/>
  <path fill="#292D32" d="M12,5.75 C11.59,5.75 11.25,5.41 11.25,5 L11.25,2 C11.25,1.59 11.59,1.25 12,1.25 C12.41,1.25 12.75,1.59 12.75,2 L12.75,5 C12.75,5.41 12.41,5.75 12,5.75 Z"/>
</svg>

