<svg xmlns="http://www.w3.org/2000/svg" width="24" height="24" viewBox="0 0 24 24">
  <defs/>
  <path fill="#292D32" d="M2,21.25 L22,21.25 Q22.311,21.25 22.53,21.47 Q22.75,21.689 22.75,22 Q22.75,22.311 22.53,22.53 Q22.311,22.75 22,22.75 L2,22.75 Q1.689,22.75 1.47,22.53 Q1.25,22.311 1.25,22 Q1.25,21.689 1.47,21.47 Q1.689,21.25 2,21.25 Z"/>
  <path fill="#292D32" d="M2.36,22 L2.36,13 Q2.36,9.25 6.44,9.25 L17.55,9.25 Q21.63,9.25 21.63,13 L21.63,22 Q21.63,22.311 21.41,22.53 Q21.191,22.75 20.88,22.75 Q20.569,22.75 20.35,22.53 Q20.13,22.311 20.13,22 L20.13,13 Q20.13,12.089 19.403,11.435 Q18.643,10.75 17.55,10.75 L6.44,10.75 Q5.347,10.75 4.587,11.435 Q3.86,12.089 3.86,13 L3.86,22 Q3.86,22.311 3.64,22.53 Q3.421,22.75 3.11,22.75 Q2.799,22.75 2.58,22.53 Q2.36,22.311 2.36,22 Z"/>
  <path fill="#292D32" d="M4.81,10 L4.81,7.17 Q4.81,5.935 5.767,5.077 Q6.688,4.25 7.98,4.25 L16.03,4.25 Q19.19,4.25 19.19,7.17 L19.19,10 Q19.19,10.311 18.97,10.53 Q18.751,10.75 18.44,10.75 Q18.129,10.75 17.91,10.53 Q17.69,10.311 17.69,10 L17.69,7.17 Q17.69,5.75 16.03,5.75 L7.98,5.75 Q6.31,5.75 6.31,7.17 L6.31,10 Q6.31,10.311 6.09,10.53 Q5.871,10.75 5.56,10.75 Q5.249,10.75 5.03,10.53 Q4.81,10.311 4.81,10 Z"/>
  <path fill="#292D32" d="M3.55,13.23 L3.92,13.24 Q5.98,13.268 5.98,15.34 L5.98,15.67 Q5.98,16.27 6.58,16.27 Q7.18,16.27 7.18,15.67 L7.18,15.36 Q7.18,13.26 9.28,13.26 Q10.146,13.26 10.761,13.872 Q11.38,14.487 11.38,15.36 L11.38,15.67 Q11.38,16.27 11.98,16.27 Q12.58,16.27 12.58,15.67 L12.58,15.36 Q12.58,13.26 14.68,13.26 Q16.78,13.26 16.78,15.36 L16.78,15.67 Q16.78,16.27 17.38,16.27 Q17.98,16.27 17.98,15.67 L17.98,15.36 Q17.98,13.26 20.08,13.26 L20.53,13.26 Q20.841,13.26 21.06,13.48 Q21.28,13.699 21.28,14.01 Q21.28,14.321 21.06,14.54 Q20.841,14.76 20.53,14.76 L20.08,14.76 Q19.48,14.76 19.48,15.36 L19.48,15.67 Q19.48,17.77 17.38,17.77 Q15.28,17.77 15.28,15.67 L15.28,15.36 Q15.28,14.76 14.68,14.76 Q14.08,14.76 14.08,15.36 L14.08,15.67 Q14.08,17.77 11.98,17.77 Q9.88,17.77 9.88,15.67 L9.88,15.36 Q9.88,14.76 9.28,14.76 Q8.68,14.76 8.68,15.36 L8.68,15.67 Q8.68,16.543 8.062,17.158 Q7.446,17.77 6.58,17.77 Q4.48,17.77 4.48,15.67 L4.48,15.34 Q4.48,14.748 3.88,14.74 L3.51,14.73 Q3.199,14.721 2.986,14.496 Q2.772,14.27 2.78,13.96 Q2.789,13.649 3.014,13.436 Q3.24,13.222 3.55,13.23 Z"/>
  <path fill="#292D32" d="M7.25,5 L7.25,3 Q7.25,2.689 7.47,2.47 Q7.689,2.25 8,2.25 Q8.311,2.25 8.53,2.47 Q8.75,2.689 8.75,3 L8.75,5 Q8.75,5.311 8.53,5.53 Q8.311,5.75 8,5.75 Q7.689,5.75 7.47,5.53 Q7.25,5.311 7.25,5 Z"/>
  <path fill="#292D32" d="M15.25,5 L15.25,3 Q15.25,2.689 15.47,2.47 Q15.689,2.25 16,2.25 Q16.311,2.25 16.53,2.47 Q16.75,2.689 16.75,3 L16.75,5 Q16.75,5.311 16.53,5.53 Q16.311,5.75 16,5.75 Q15.689,5.75 15.47,5.53 Q15.25,5.311 15.25,5 Z"/>
  <path fill="#292D32" d="M11.25,5 L11.25,2 Q11.25,1.689 11.47,1.47 Q11.689,1.25 12,1.25 Q12.311,1.25 12.53,1.47 Q12.75,1.689 12.75,2 L12.75,5 Q12.75,5.311 12.53,5.53 Q12.311,5.75 12,5.75 Q11.689,5.75 11.47,5.53 Q11.25,5.311 11.25,5 Z"/>
</svg>

