<svg xmlns="http://www.w3.org/2000/svg" width="24" height="24" viewBox="0 0 24 24">
  <defs/>
  <path fill="#292D32" d="M14,22.75 L10,22.75 C4.57,22.75 2.25,20.43 2.25,15 L2.25,9 C2.25,3.57 4.57,1.25 10,1.25 L14,1.25 C19.43,1.25 21.75,3.57 21.75,9 L21.75,15 C21.75,20.43 19.43,22.75 14,22.75 Z M10,2.75 C5.39,2.75 3.75,4.39 3.75,9 L3.75,15 C3.75,19.61 5.39,21.25 10,21.25 L14,21.25 C18.61,21.25 20.25,19.61 20.25,15 L20.25,9 C20.25,4.39 18.61,2.75 14,2.75 L10,2.75 Z"/>
  <path fill="#292D32" d="M15,10.83 L9,10.83 C7.76,10.83 6.75,9.82 6.75,8.58 L6.75,7.58 C6.75,6.34 7.76,5.33 9,5.33 L15,5.33 C16.24,5.33 17.25,6.34 17.25,7.58 L17.25,8.58 C17.25,9.82 16.24,10.83 15,10.83 Z M9,6.83 C8.59,6.83 8.25,7.17 8.25,7.58 L8.25,8.58 C8.25,8.99 8.59,9.33 9,9.33 L15,9.33 C15.41,9.33 15.75,8.99 15.75,8.58 L15.75,7.58 C15.75,7.17 15.41,6.83 15,6.83 L9,6.83 Z"/>
  <path fill="#292D32" d="M8.15,14.92 C8.02,14.92 7.89,14.89 7.77,14.84 C7.65,14.79 7.54,14.72 7.45,14.63 C7.26,14.44 7.16,14.19 7.16,13.92 C7.16,13.79 7.18,13.66 7.23,13.54 C7.28,13.41 7.35,13.31 7.45,13.21 C7.49,13.17 7.54,13.12 7.6,13.09 C7.65,13.05 7.71,13.02 7.77,13 C7.83,12.97 7.9,12.95 7.96,12.94 C8.28,12.87 8.63,12.98 8.86,13.21 C8.95,13.3 9.03,13.41 9.08,13.54 C9.13,13.66 9.16,13.79 9.16,13.92 C9.16,14.19 9.05,14.44 8.86,14.63 C8.67,14.82 8.42,14.92 8.15,14.92 Z"/>
  <path fill="#292D32" d="M12.16,14.92 C11.89,14.92 11.64,14.82 11.45,14.63 C11.26,14.44 11.16,14.19 11.16,13.92 C11.16,13.79 11.18,13.66 11.23,13.54 C11.28,13.41 11.35,13.31 11.45,13.21 C11.49,13.17 11.54,13.12 11.6,13.09 C11.65,13.05 11.71,13.02 11.77,13 C11.83,12.97 11.9,12.95 11.96,12.94 C12.15,12.9 12.35,12.92 12.54,13 C12.66,13.05 12.77,13.12 12.86,13.21 C12.95,13.31 13.03,13.41 13.08,13.54 C13.13,13.66 13.16,13.79 13.16,13.92 C13.16,14.19 13.05,14.44 12.86,14.63 C12.67,14.82 12.42,14.92 12.16,14.92 Z"/>
  <path fill="#292D32" d="M16.15,14.92 C16.02,14.92 15.89,14.89 15.77,14.84 C15.65,14.79 15.54,14.72 15.45,14.63 C15.35,14.53 15.28,14.42 15.23,14.3 C15.18,14.18 15.16,14.05 15.16,13.92 C15.16,13.79 15.18,13.66 15.23,13.54 C15.28,13.41 15.35,13.31 15.45,13.21 C15.82,12.84 16.49,12.84 16.86,13.21 C17.05,13.4 17.16,13.66 17.16,13.92 C17.16,14.19 17.05,14.44 16.86,14.63 C16.68,14.81 16.43,14.92 16.15,14.92 Z"/>
  <path fill="#292D32" d="M8.16,18.92 C7.89,18.92 7.64,18.82 7.45,18.63 C7.26,18.44 7.15,18.19 7.15,17.92 C7.15,17.66 7.26,17.4 7.45,17.21 C7.49,17.17 7.55,17.12 7.6,17.09 C7.65,17.05 7.71,17.02 7.77,17 C7.83,16.97 7.9,16.95 7.96,16.94 C8.29,16.88 8.63,16.98 8.86,17.21 C8.91,17.26 8.95,17.31 8.99,17.36 C9.02,17.42 9.05,17.48 9.08,17.54 C9.1,17.6 9.12,17.66 9.14,17.72 C9.15,17.79 9.16,17.85 9.16,17.92 C9.16,18.19 9.05,18.44 8.86,18.63 C8.67,18.82 8.42,18.92 8.16,18.92 Z"/>
  <path fill="#292D32" d="M12.16,18.92 C11.89,18.92 11.64,18.82 11.45,18.63 C11.26,18.44 11.15,18.19 11.15,17.92 C11.15,17.66 11.26,17.4 11.45,17.21 C11.68,16.98 12.03,16.88 12.35,16.94 C12.41,16.95 12.48,16.97 12.54,17 C12.6,17.02 12.66,17.05 12.71,17.09 C12.76,17.12 12.81,17.17 12.86,17.21 C13.05,17.4 13.15,17.66 13.15,17.92 C13.15,18.19 13.05,18.44 12.86,18.63 C12.67,18.82 12.42,18.92 12.16,18.92 Z"/>
  <path fill="#292D32" d="M16.15,18.92 C15.89,18.92 15.64,18.82 15.45,18.63 C15.26,18.44 15.16,18.19 15.16,17.92 C15.16,17.66 15.26,17.4 15.45,17.21 C15.54,17.12 15.65,17.05 15.77,17 C16.14,16.85 16.59,16.93 16.86,17.21 C17.05,17.4 17.15,17.66 17.15,17.92 C17.15,18.19 17.05,18.44 16.86,18.63 C16.77,18.72 16.66,18.79 16.54,18.84 C16.42,18.89 16.29,18.92 16.15,18.92 Z"/>
</svg>

