<svg xmlns="http://www.w3.org/2000/svg" width="24" height="24" viewBox="0 0 24 24">
  <defs/>
  <path fill="#292D32" d="M10,22.75 Q2.25,22.75 2.25,15 L2.25,9 Q2.25,1.25 10,1.25 L14,1.25 Q21.75,1.25 21.75,9 L21.75,15 Q21.75,22.75 14,22.75 Z M10,21.25 L14,21.25 Q20.25,21.25 20.25,15 L20.25,9 Q20.25,2.75 14,2.75 L10,2.75 Q3.75,2.75 3.75,9 L3.75,15 Q3.75,18.439 5.155,19.845 Q6.561,21.25 10,21.25 Z"/>
  <path fill="#292D32" opacity="0.4" d="M17.25,7.58 L17.25,8.58 Q17.25,9.506 16.593,10.167 Q15.932,10.83 15,10.83 L9,10.83 Q6.75,10.83 6.75,8.58 L6.75,7.58 Q6.75,5.33 9,5.33 L15,5.33 Q17.25,5.33 17.25,7.58 Z M15.75,7.58 Q15.75,6.83 15,6.83 L9,6.83 Q8.25,6.83 8.25,7.58 L8.25,8.58 Q8.25,9.33 9,9.33 L15,9.33 Q15.75,9.33 15.75,8.58 Z"/>
  <path fill="#292D32" opacity="0.4" d="M8.136,13 L8.148,13 Q8.562,13 8.855,13.293 Q9.148,13.586 9.148,14 Q9.148,14.414 8.855,14.707 Q8.562,15 8.148,15 L8.136,15 Q7.722,15 7.429,14.707 Q7.136,14.414 7.136,14 Q7.136,13.586 7.429,13.293 Q7.722,13 8.136,13 Z"/>
  <path fill="#292D32" opacity="0.4" d="M11.995,13 L12.007,13 Q12.421,13 12.714,13.293 Q13.007,13.586 13.007,14 Q13.007,14.414 12.714,14.707 Q12.421,15 12.007,15 L11.995,15 Q11.581,15 11.288,14.707 Q10.995,14.414 10.995,14 Q10.995,13.586 11.288,13.293 Q11.581,13 11.995,13 Z"/>
  <path fill="#292D32" opacity="0.4" d="M15.855,13 L15.866,13 Q16.281,13 16.574,13.293 Q16.866,13.586 16.866,14 Q16.866,14.414 16.574,14.707 Q16.281,15 15.866,15 L15.855,15 Q15.441,15 15.148,14.707 Q14.855,14.414 14.855,14 Q14.855,13.586 15.148,13.293 Q15.441,13 15.855,13 Z"/>
  <path fill="#292D32" opacity="0.4" d="M8.136,16.5 L8.148,16.5 Q8.562,16.5 8.855,16.793 Q9.148,17.086 9.148,17.5 Q9.148,17.914 8.855,18.207 Q8.562,18.5 8.148,18.5 L8.136,18.5 Q7.722,18.5 7.429,18.207 Q7.136,17.914 7.136,17.5 Q7.136,17.086 7.429,16.793 Q7.722,16.5 8.136,16.5 Z"/>
  <path fill="#292D32" opacity="0.4" d="M11.995,16.5 L12.007,16.5 Q12.421,16.5 12.714,16.793 Q13.007,17.086 13.007,17.5 Q13.007,17.914 12.714,18.207 Q12.421,18.5 12.007,18.5 L11.995,18.5 Q11.581,18.5 11.288,18.207 Q10.995,17.914 10.995,17.5 Q10.995,17.086 11.288,16.793 Q11.581,16.5 11.995,16.5 Z"/>
  <path fill="#292D32" opacity="0.4" d="M15.855,16.5 L15.866,16.5 Q16.281,16.5 16.574,16.793 Q16.866,17.086 16.866,17.5 Q16.866,17.914 16.574,18.207 Q16.281,18.5 15.866,18.5 L15.855,18.5 Q15.441,18.5 15.148,18.207 Q14.855,17.914 14.855,17.5 Q14.855,17.086 15.148,16.793 Q15.441,16.5 15.855,16.5 Z"/>
</svg>

