<svg xmlns="http://www.w3.org/2000/svg" width="24" height="24" viewBox="0 0 24 24">
  <defs/>
  <path fill="#292D32" d="M12,22.75 C6.07,22.75 1.25,17.93 1.25,12 C1.25,6.07 6.07,1.25 12,1.25 C17.93,1.25 22.75,6.07 22.75,12 C22.75,17.93 17.93,22.75 12,22.75 Z M12,2.75 C6.9,2.75 2.75,6.9 2.75,12 C2.75,17.1 6.9,21.25 12,21.25 C17.1,21.25 21.25,17.1 21.25,12 C21.25,6.9 17.1,2.75 12,2.75 Z"/>
  <path fill="#292D32" d="M9.891,8.58 C9.481,8.58 9.141,8.24 9.141,7.83 L9.141,5.83 C9.141,5.42 9.481,5.08 9.891,5.08 C10.301,5.08 10.641,5.42 10.641,5.83 L10.641,7.83 C10.641,8.24 10.311,8.58 9.891,8.58 Z"/>
  <path fill="#292D32" d="M14.109,8.58 C13.699,8.58 13.359,8.24 13.359,7.83 L13.359,5.83 C13.359,5.42 13.699,5.08 14.109,5.08 C14.519,5.08 14.859,5.42 14.859,5.83 L14.859,7.83 C14.859,8.24 14.519,8.58 14.109,8.58 Z"/>
  <path fill="#292D32" d="M16.47,10.89 L7.52,10.89 C7.11,10.89 6.77,10.55 6.77,10.14 C6.77,9.73 7.11,9.39 7.52,9.39 L16.47,9.39 C16.88,9.39 17.22,9.73 17.22,10.14 C17.22,10.55 16.89,10.89 16.47,10.89 Z"/>
  <path fill="#292D32" d="M13.5,18.42 L10.5,18.42 C7.75,18.42 5.75,16.42 5.75,13.67 L5.75,10.67 C5.75,7.92 7.75,5.92 10.5,5.92 L13.5,5.92 C16.25,5.92 18.25,7.92 18.25,10.67 L18.25,13.67 C18.25,16.42 16.25,18.42 13.5,18.42 Z M10.5,7.42 C8.25,7.42 7.25,9.05 7.25,10.67 L7.25,13.67 C7.25,15.29 8.25,16.92 10.5,16.92 L13.5,16.92 C15.75,16.92 16.75,15.29 16.75,13.67 L16.75,10.67 C16.75,9.05 15.75,7.42 13.5,7.42 L10.5,7.42 Z"/>
</svg>

