<svg xmlns="http://www.w3.org/2000/svg" width="24" height="24" viewBox="0 0 24 24">
  <defs/>
  <path fill="#292D32" d="M8.25,5.75 C7.84,5.75 7.5,5.41 7.5,5 L7.5,2 C7.5,1.59 7.84,1.25 8.25,1.25 C8.66,1.25 9,1.59 9,2 L9,5 C9,5.41 8.66,5.75 8.25,5.75 Z"/>
  <path fill="#292D32" d="M15.75,5.75 C15.34,5.75 15,5.41 15,5 L15,2 C15,1.59 15.34,1.25 15.75,1.25 C16.16,1.25 16.5,1.59 16.5,2 L16.5,5 C16.5,5.41 16.16,5.75 15.75,5.75 Z"/>
  <path fill="#292D32" d="M12,14.09 C12.52,14.09 12.9,13.78 12.9,13.29 C12.9,12.79 12.52,12.5 12,12.5 C11.48,12.5 11.1,12.79 11.1,13.29 C11.1,13.78 11.48,14.09 12,14.09 Z"/>
  <path fill="#292D32" d="M11.999,17.001 C12.629,17.001 13.139,16.584 13.139,16.071 C13.139,15.557 12.629,15.141 11.999,15.141 C11.37,15.141 10.859,15.557 10.859,16.071 C10.859,16.584 11.37,17.001 11.999,17.001 Z"/>
  <path fill="#292D32" d="M19.57,4.5 C18.91,4.01 17.96,4.48 17.96,5.31 L17.96,5.41 C17.96,6.58 17.12,7.66 15.95,7.78 C14.6,7.92 13.46,6.86 13.46,5.54 L13.46,4.5 C13.46,3.95 13.01,3.5 12.46,3.5 L11.54,3.5 C10.99,3.5 10.54,3.95 10.54,4.5 L10.54,5.54 C10.54,6.33 10.13,7.03 9.51,7.42 C9.42,7.48 9.32,7.53 9.22,7.58 C9.13,7.63 9.03,7.67 8.92,7.7 C8.8,7.74 8.67,7.77 8.53,7.78 C8.37,7.8 8.21,7.8 8.05,7.78 C7.91,7.77 7.78,7.74 7.66,7.7 C7.56,7.67 7.46,7.63 7.36,7.58 C7.26,7.53 7.16,7.48 7.07,7.42 C6.44,6.98 6.04,6.22 6.04,5.41 L6.04,5.31 C6.04,4.54 5.22,4.08 4.57,4.41 C4.56,4.42 4.55,4.42 4.54,4.43 C4.5,4.45 4.47,4.47 4.43,4.5 C4.4,4.53 4.36,4.55 4.33,4.58 C4.05,4.8 3.8,5.05 3.59,5.32 C3.48,5.44 3.39,5.57 3.31,5.7 C3.3,5.71 3.29,5.72 3.28,5.74 C3.19,5.87 3.11,6.02 3.04,6.16 C3.02,6.18 3.01,6.19 3.01,6.21 C2.95,6.33 2.89,6.45 2.85,6.58 C2.82,6.63 2.81,6.67 2.79,6.72 C2.73,6.87 2.69,7.02 2.65,7.17 C2.61,7.31 2.58,7.46 2.56,7.61 C2.54,7.72 2.53,7.83 2.52,7.95 C2.51,8.09 2.5,8.23 2.5,8.37 L2.5,17.13 C2.5,19.82 4.68,22 7.37,22 L16.63,22 C19.32,22 21.5,19.82 21.5,17.13 L21.5,8.37 C21.5,6.78 20.74,5.39 19.57,4.5 Z M12,18.25 C10.45,18.25 9.5,17.48 9.5,16.24 C9.5,15.56 9.85,14.97 10.46,14.62 C10.02,14.31 9.73,13.85 9.73,13.22 C9.73,11.92 10.77,11.25 12,11.25 C13.23,11.25 14.26,11.92 14.26,13.22 C14.26,13.85 13.98,14.31 13.53,14.62 C14.15,14.97 14.5,15.56 14.5,16.24 C14.5,17.48 13.54,18.25 12,18.25 Z"/>
</svg>

