<svg xmlns="http://www.w3.org/2000/svg" width="24" height="24" viewBox="0 0 24 24">
  <defs/>
  <path fill="#292D32" d="M8.75,2 L8.75,5 Q8.75,5.311 8.53,5.53 Q8.311,5.75 8,5.75 Q7.689,5.75 7.47,5.53 Q7.25,5.311 7.25,5 L7.25,2 Q7.25,1.689 7.47,1.47 Q7.689,1.25 8,1.25 Q8.311,1.25 8.53,1.47 Q8.75,1.689 8.75,2 Z"/>
  <path fill="#292D32" d="M16.75,2 L16.75,5 Q16.75,5.311 16.53,5.53 Q16.311,5.75 16,5.75 Q15.689,5.75 15.47,5.53 Q15.25,5.311 15.25,5 L15.25,2 Q15.25,1.689 15.47,1.47 Q15.689,1.25 16,1.25 Q16.311,1.25 16.53,1.47 Q16.75,1.689 16.75,2 Z"/>
  <path fill="#292D32" d="M16.04,2.751 Q21.75,3.06 21.75,9.65 L21.75,15.83 Q21.75,19.416 20.447,20.951 Q18.909,22.76 15,22.76 L9,22.76 Q2.25,22.76 2.25,15.83 L2.25,9.65 Q2.25,3.077 7.957,2.751 Q7.979,2.75 8,2.75 L16,2.75 Q16.02,2.75 16.04,2.751 Z M15.979,4.25 L8.022,4.25 Q3.75,4.506 3.75,9.65 L3.75,15.83 Q3.75,18.865 4.697,19.979 Q5.784,21.26 9,21.26 L15,21.26 Q18.216,21.26 19.303,19.979 Q20.25,18.865 20.25,15.83 L20.25,9.65 Q20.25,4.493 15.979,4.25 Z"/>
  <path fill="#292D32" opacity="0.4" d="M20.75,18.35 L3.25,18.35 Q2.939,18.35 2.72,18.13 Q2.5,17.911 2.5,17.6 Q2.5,17.289 2.72,17.07 Q2.939,16.85 3.25,16.85 L20.75,16.85 Q21.061,16.85 21.28,17.07 Q21.5,17.289 21.5,17.6 Q21.5,17.911 21.28,18.13 Q21.061,18.35 20.75,18.35 Z"/>
  <path fill="#292D32" opacity="0.4" d="M12,8.25 C10.77,8.25 9.73,8.92 9.73,10.22 C9.73,10.84 10.02,11.31 10.46,11.61 C9.85,11.97 9.5,12.55 9.5,13.23 C9.5,14.47 10.45,15.24 12,15.24 C13.54,15.24 14.5,14.47 14.5,13.23 C14.5,12.55 14.15,11.96 13.53,11.61 C13.98,11.3 14.26,10.84 14.26,10.22 C14.26,8.92 13.23,8.25 12,8.25 Z M12,11.09 C11.48,11.09 11.1,10.78 11.1,10.29 C11.1,9.79 11.48,9.5 12,9.5 C12.52,9.5 12.9,9.79 12.9,10.29 C12.9,10.78 12.52,11.09 12,11.09 Z M12,14 C11.34,14 10.86,13.67 10.86,13.07 C10.86,12.47 11.34,12.15 12,12.15 C12.66,12.15 13.14,12.48 13.14,13.07 C13.14,13.67 12.66,14 12,14 Z"/>
</svg>

