<svg xmlns="http://www.w3.org/2000/svg" width="24" height="24" viewBox="0 0 24 24">
  <defs/>
  <path fill="#292D32" d="M8,5.75 C7.59,5.75 7.25,5.41 7.25,5 L7.25,2 C7.25,1.59 7.59,1.25 8,1.25 C8.41,1.25 8.75,1.59 8.75,2 L8.75,5 C8.75,5.41 8.41,5.75 8,5.75 Z"/>
  <path fill="#292D32" d="M16,5.75 C15.59,5.75 15.25,5.41 15.25,5 L15.25,2 C15.25,1.59 15.59,1.25 16,1.25 C16.41,1.25 16.75,1.59 16.75,2 L16.75,5 C16.75,5.41 16.41,5.75 16,5.75 Z"/>
  <path fill="#292D32" d="M8.5,14.5 C8.37,14.5 8.24,14.48 8.12,14.42 C8,14.37 7.89,14.3 7.79,14.21 C7.61,14.02 7.5,13.76 7.5,13.5 C7.5,13.37 7.53,13.24 7.58,13.12 C7.63,13 7.7,12.89 7.79,12.79 C7.89,12.7 8,12.63 8.12,12.58 C8.48,12.43 8.93,12.51 9.21,12.79 C9.3,12.89 9.37,13 9.42,13.12 C9.47,13.24 9.5,13.37 9.5,13.5 C9.5,13.76 9.39,14.02 9.21,14.21 C9.02,14.39 8.76,14.5 8.5,14.5 Z"/>
  <path fill="#292D32" d="M12,14.5 C11.74,14.5 11.48,14.39 11.29,14.21 C11.2,14.11 11.13,14 11.08,13.88 C11.03,13.76 11,13.63 11,13.5 C11,13.24 11.11,12.98 11.29,12.79 C11.57,12.51 12.01,12.42 12.38,12.58 C12.5,12.63 12.61,12.7 12.71,12.79 C12.89,12.98 13,13.24 13,13.5 C13,13.63 12.98,13.76 12.92,13.88 C12.87,14 12.8,14.11 12.71,14.21 C12.61,14.3 12.5,14.37 12.38,14.42 C12.26,14.48 12.13,14.5 12,14.5 Z"/>
  <path fill="#292D32" d="M8.5,18 C8.37,18 8.24,17.97 8.12,17.92 C8,17.87 7.89,17.8 7.79,17.71 C7.61,17.52 7.5,17.27 7.5,17 C7.5,16.87 7.53,16.74 7.58,16.62 C7.63,16.49 7.7,16.39 7.79,16.29 C7.89,16.2 8,16.13 8.12,16.08 C8.48,15.92 8.93,16.01 9.21,16.29 C9.3,16.39 9.37,16.49 9.42,16.62 C9.47,16.74 9.5,16.87 9.5,17 C9.5,17.27 9.39,17.52 9.21,17.71 C9.02,17.89 8.76,18 8.5,18 Z"/>
  <path fill="#292D32" d="M20.5,9.84 L3.5,9.84 C3.09,9.84 2.75,9.5 2.75,9.09 C2.75,8.68 3.09,8.34 3.5,8.34 L20.5,8.34 C20.91,8.34 21.25,8.68 21.25,9.09 C21.25,9.5 20.91,9.84 20.5,9.84 Z"/>
  <path fill="#292D32" d="M18,23.75 C15.38,23.75 13.25,21.62 13.25,19 C13.25,16.38 15.38,14.25 18,14.25 C20.62,14.25 22.75,16.38 22.75,19 C22.75,21.62 20.62,23.75 18,23.75 Z M18,15.75 C16.21,15.75 14.75,17.21 14.75,19 C14.75,20.79 16.21,22.25 18,22.25 C19.79,22.25 21.25,20.79 21.25,19 C21.25,17.21 19.79,15.75 18,15.75 Z"/>
  <path fill="#292D32" d="M19.49,19.8 L16.5,19.8 C16.09,19.8 15.75,19.46 15.75,19.05 C15.75,18.64 16.09,18.3 16.5,18.3 L19.49,18.3 C19.9,18.3 20.24,18.64 20.24,19.05 C20.24,19.46 19.91,19.8 19.49,19.8 Z"/>
  <path fill="#292D32" d="M18,21.33 C17.59,21.33 17.25,20.99 17.25,20.58 L17.25,17.59 C17.25,17.18 17.59,16.84 18,16.84 C18.41,16.84 18.75,17.18 18.75,17.59 L18.75,20.58 C18.75,20.99 18.41,21.33 18,21.33 Z"/>
  <path fill="#292D32" d="M15.37,22.75 L8,22.75 C4.35,22.75 2.25,20.65 2.25,17 L2.25,8.5 C2.25,4.85 4.35,2.75 8,2.75 L16,2.75 C19.65,2.75 21.75,4.85 21.75,8.5 L21.75,16.36 C21.75,16.67 21.56,16.95 21.26,17.06 C20.97,17.17 20.64,17.09 20.43,16.85 C19.81,16.15 18.92,15.75 17.99,15.75 C16.2,15.75 14.74,17.21 14.74,19 C14.74,19.59 14.9,20.17 15.21,20.67 C15.38,20.97 15.6,21.22 15.84,21.43 C16.08,21.63 16.17,21.96 16.06,22.26 C15.97,22.55 15.69,22.75 15.37,22.75 Z M8,4.25 C5.14,4.25 3.75,5.64 3.75,8.5 L3.75,17 C3.75,19.86 5.14,21.25 8,21.25 L13.82,21.25 C13.45,20.57 13.25,19.8 13.25,19 C13.25,16.38 15.38,14.25 18,14.25 C18.79,14.25 19.57,14.45 20.25,14.82 L20.25,8.5 C20.25,5.64 18.86,4.25 16,4.25 L8,4.25 Z"/>
</svg>

