<svg xmlns="http://www.w3.org/2000/svg" width="24" height="24" viewBox="0 0 24 24">
  <defs/>
  <path fill="#292D32" d="M8,5.75 C7.59,5.75 7.25,5.41 7.25,5 L7.25,2 C7.25,1.59 7.59,1.25 8,1.25 C8.41,1.25 8.75,1.59 8.75,2 L8.75,5 C8.75,5.41 8.41,5.75 8,5.75 Z"/>
  <path fill="#292D32" d="M16,5.75 C15.59,5.75 15.25,5.41 15.25,5 L15.25,2 C15.25,1.59 15.59,1.25 16,1.25 C16.41,1.25 16.75,1.59 16.75,2 L16.75,5 C16.75,5.41 16.41,5.75 16,5.75 Z"/>
  <path fill="#292D32" d="M8.5,14.5 C8.24,14.5 7.98,14.39 7.79,14.21 C7.61,14.02 7.5,13.77 7.5,13.5 C7.5,13.37 7.53,13.24 7.58,13.12 C7.63,13 7.7,12.89 7.79,12.79 C8.16,12.42 8.83,12.42 9.21,12.79 C9.39,12.98 9.5,13.24 9.5,13.5 C9.5,13.56 9.49,13.63 9.48,13.7 C9.47,13.76 9.45,13.82 9.42,13.88 C9.4,13.94 9.37,14 9.33,14.06 C9.29,14.11 9.25,14.16 9.21,14.21 C9.02,14.39 8.76,14.5 8.5,14.5 Z"/>
  <path fill="#292D32" d="M12,14.5 C11.87,14.5 11.74,14.47 11.62,14.42 C11.49,14.37 11.39,14.3 11.29,14.21 C11.11,14.02 11,13.77 11,13.5 C11,13.37 11.03,13.24 11.08,13.12 C11.13,13 11.2,12.89 11.29,12.79 C11.39,12.7 11.49,12.63 11.62,12.58 C11.99,12.43 12.43,12.51 12.71,12.79 C12.89,12.98 13,13.24 13,13.5 C13,13.56 12.99,13.63 12.98,13.7 C12.97,13.76 12.95,13.82 12.92,13.88 C12.9,13.94 12.87,14 12.83,14.06 C12.8,14.11 12.75,14.16 12.71,14.21 C12.52,14.39 12.26,14.5 12,14.5 Z"/>
  <path fill="#292D32" d="M8.5,18 C8.37,18 8.24,17.97 8.12,17.92 C7.99,17.87 7.88,17.8 7.79,17.71 C7.7,17.62 7.63,17.51 7.58,17.38 C7.53,17.26 7.5,17.13 7.5,17 C7.5,16.87 7.53,16.74 7.58,16.62 C7.63,16.49 7.7,16.38 7.79,16.29 C7.88,16.2 7.99,16.13 8.12,16.08 C8.36,15.98 8.64,15.97 8.88,16.08 C9.01,16.13 9.12,16.2 9.21,16.29 C9.3,16.38 9.37,16.49 9.42,16.62 C9.47,16.74 9.5,16.87 9.5,17 C9.5,17.13 9.47,17.26 9.42,17.38 C9.37,17.51 9.3,17.62 9.21,17.71 C9.12,17.8 9.01,17.87 8.88,17.92 C8.76,17.97 8.63,18 8.5,18 Z"/>
  <path fill="#292D32" d="M20.5,9.84 L3.5,9.84 C3.09,9.84 2.75,9.5 2.75,9.09 C2.75,8.68 3.09,8.34 3.5,8.34 L20.5,8.34 C20.91,8.34 21.25,8.68 21.25,9.09 C21.25,9.5 20.91,9.84 20.5,9.84 Z"/>
  <path fill="#292D32" d="M18,23.75 C16.83,23.75 15.72,23.33 14.87,22.56 C14.51,22.26 14.19,21.88 13.93,21.44 C13.49,20.72 13.25,19.87 13.25,19 C13.25,16.38 15.38,14.25 18,14.25 C19.36,14.25 20.66,14.84 21.56,15.86 C22.33,16.74 22.75,17.85 22.75,19 C22.75,19.87 22.51,20.72 22.06,21.45 C21.22,22.87 19.66,23.75 18,23.75 Z M18,15.75 C16.21,15.75 14.75,17.21 14.75,19 C14.75,19.59 14.91,20.17 15.22,20.67 C15.39,20.97 15.61,21.22 15.85,21.43 C16.45,21.97 17.2,22.25 18,22.25 C19.15,22.25 20.19,21.66 20.78,20.68 C21.09,20.17 21.25,19.6 21.25,19 C21.25,18.22 20.96,17.46 20.44,16.85 C19.82,16.15 18.93,15.75 18,15.75 Z"/>
  <path fill="#292D32" d="M17.43,20.74 C17.24,20.74 17.05,20.67 16.9,20.52 L15.91,19.53 C15.62,19.24 15.62,18.76 15.91,18.47 C16.2,18.18 16.68,18.18 16.97,18.47 L17.45,18.95 L19.05,17.47 C19.35,17.19 19.83,17.21 20.11,17.51 C20.39,17.81 20.37,18.29 20.07,18.57 L17.94,20.54 C17.79,20.67 17.61,20.74 17.43,20.74 Z"/>
  <path fill="#292D32" d="M15.37,22.75 L8,22.75 C4.35,22.75 2.25,20.65 2.25,17 L2.25,8.5 C2.25,4.85 4.35,2.75 8,2.75 L16,2.75 C19.65,2.75 21.75,4.85 21.75,8.5 L21.75,16.36 C21.75,16.67 21.56,16.95 21.26,17.06 C20.97,17.17 20.64,17.09 20.43,16.85 C19.81,16.15 18.92,15.75 17.99,15.75 C16.2,15.75 14.74,17.21 14.74,19 C14.74,19.59 14.9,20.17 15.21,20.67 C15.38,20.97 15.6,21.22 15.84,21.43 C16.08,21.63 16.17,21.96 16.06,22.26 C15.97,22.55 15.69,22.75 15.37,22.75 Z M8,4.25 C5.14,4.25 3.75,5.64 3.75,8.5 L3.75,17 C3.75,19.86 5.14,21.25 8,21.25 L13.82,21.25 C13.45,20.57 13.25,19.8 13.25,19 C13.25,16.38 15.38,14.25 18,14.25 C18.79,14.25 19.57,14.45 20.25,14.82 L20.25,8.5 C20.25,5.64 18.86,4.25 16,4.25 L8,4.25 Z"/>
</svg>

