<svg xmlns="http://www.w3.org/2000/svg" width="24" height="24" viewBox="0 0 24 24">
  <defs/>
  <path fill="#292D32" d="M16.75,3.56 L16.75,2 C16.75,1.59 16.41,1.25 16,1.25 C15.59,1.25 15.25,1.59 15.25,2 L15.25,3.5 L8.75,3.5 L8.75,2 C8.75,1.59 8.41,1.25 8,1.25 C7.59,1.25 7.25,1.59 7.25,2 L7.25,3.56 C4.55,3.81 3.24,5.42 3.04,7.81 C3.02,8.1 3.26,8.34 3.54,8.34 L20.46,8.34 C20.75,8.34 20.99,8.09 20.96,7.81 C20.76,5.42 19.45,3.81 16.75,3.56 Z"/>
  <path fill="#292D32" d="M20,9.84 L4,9.84 C3.45,9.84 3,10.29 3,10.84 L3,17 C3,20 4.5,22 8,22 L12.93,22 C13.62,22 14.1,21.33 13.88,20.68 C13.68,20.1 13.51,19.46 13.51,19 C13.51,15.97 15.98,13.5 19.01,13.5 C19.3,13.5 19.59,13.52 19.87,13.57 C20.47,13.66 21.01,13.19 21.01,12.59 L21.01,10.85 C21,10.29 20.55,9.84 20,9.84 Z M9.21,17.71 C9.02,17.89 8.76,18 8.5,18 C8.37,18 8.24,17.97 8.12,17.92 C8,17.87 7.89,17.8 7.79,17.71 C7.61,17.52 7.5,17.27 7.5,17 C7.5,16.87 7.53,16.74 7.58,16.62 C7.63,16.49 7.7,16.39 7.79,16.29 C7.89,16.2 8,16.13 8.12,16.08 C8.48,15.92 8.93,16.01 9.21,16.29 C9.3,16.39 9.37,16.49 9.42,16.62 C9.47,16.74 9.5,16.87 9.5,17 C9.5,17.27 9.39,17.52 9.21,17.71 Z M9.21,14.21 C9.02,14.39 8.76,14.5 8.5,14.5 C8.37,14.5 8.24,14.48 8.12,14.42 C8,14.37 7.89,14.3 7.79,14.21 C7.61,14.02 7.5,13.76 7.5,13.5 C7.5,13.37 7.53,13.24 7.58,13.12 C7.63,13 7.7,12.89 7.79,12.79 C7.89,12.7 8,12.63 8.12,12.58 C8.48,12.43 8.93,12.51 9.21,12.79 C9.3,12.89 9.37,13 9.42,13.12 C9.47,13.24 9.5,13.37 9.5,13.5 C9.5,13.76 9.39,14.02 9.21,14.21 Z M12.92,13.88 C12.87,14 12.8,14.11 12.71,14.21 C12.61,14.3 12.5,14.37 12.38,14.42 C12.26,14.48 12.13,14.5 12,14.5 C11.74,14.5 11.48,14.39 11.29,14.21 C11.2,14.11 11.13,14 11.08,13.88 C11.03,13.76 11,13.63 11,13.5 C11,13.24 11.11,12.98 11.29,12.79 C11.57,12.51 12.01,12.42 12.38,12.58 C12.5,12.63 12.61,12.7 12.71,12.79 C12.89,12.98 13,13.24 13,13.5 C13,13.63 12.98,13.76 12.92,13.88 Z"/>
  <path fill="#292D32" d="M19,15 C16.79,15 15,16.79 15,19 C15,21.21 16.79,23 19,23 C21.21,23 23,21.21 23,19 C23,16.79 21.21,15 19,15 Z M20.6,20.64 C20.45,20.79 20.26,20.86 20.07,20.86 C19.88,20.86 19.69,20.79 19.54,20.64 L19.01,20.11 L18.46,20.66 C18.31,20.81 18.12,20.88 17.93,20.88 C17.74,20.88 17.55,20.81 17.4,20.66 C17.11,20.37 17.11,19.89 17.4,19.6 L17.95,19.05 L17.42,18.52 C17.13,18.23 17.13,17.75 17.42,17.46 C17.71,17.17 18.19,17.17 18.48,17.46 L19.01,18 L19.51,17.5 C19.8,17.21 20.28,17.21 20.57,17.5 C20.86,17.79 20.86,18.27 20.57,18.56 L20.07,19.06 L20.6,19.59 C20.89,19.88 20.89,20.35 20.6,20.64 Z"/>
</svg>

