<svg xmlns="http://www.w3.org/2000/svg" width="24" height="24" viewBox="0 0 24 24">
  <defs/>
  <path fill="#292D32" d="M16.75,3.56 L16.75,2 C16.75,1.59 16.41,1.25 16,1.25 C15.59,1.25 15.25,1.59 15.25,2 L15.25,3.5 L8.75,3.5 L8.75,2 C8.75,1.59 8.41,1.25 8,1.25 C7.59,1.25 7.25,1.59 7.25,2 L7.25,3.56 C4.55,3.81 3.24,5.42 3.04,7.81 C3.02,8.1 3.26,8.34 3.54,8.34 L20.46,8.34 C20.75,8.34 20.99,8.09 20.96,7.81 C20.76,5.42 19.45,3.81 16.75,3.56 Z"/>
  <path fill="#292D32" opacity="0.4" d="M20,9.84 C20.55,9.84 21,10.29 21,10.84 L21,17 C21,20 19.5,22 16,22 L8,22 C4.5,22 3,20 3,17 L3,10.84 C3,10.29 3.45,9.84 4,9.84 L20,9.84 Z"/>
  <path fill="#292D32" d="M14.841,14.99 L14.341,15.5 L14.331,15.5 L11.301,18.53 C11.171,18.66 10.901,18.8 10.711,18.82 L9.361,19.02 C8.871,19.09 8.531,18.74 8.601,18.26 L8.791,16.9 C8.821,16.71 8.951,16.45 9.081,16.31 L12.121,13.28 L12.621,12.77 C12.951,12.44 13.321,12.2 13.721,12.2 C14.061,12.2 14.431,12.36 14.841,12.77 C15.741,13.67 15.451,14.38 14.841,14.99 Z"/>
</svg>

