<svg xmlns="http://www.w3.org/2000/svg" width="24" height="24" viewBox="0 0 24 24">
  <defs/>
  <path fill="#292D32" d="M16.75,3.56 L16.75,2 C16.75,1.59 16.41,1.25 16,1.25 C15.59,1.25 15.25,1.59 15.25,2 L15.25,3.5 L8.75,3.5 L8.75,2 C8.75,1.59 8.41,1.25 8,1.25 C7.59,1.25 7.25,1.59 7.25,2 L7.25,3.56 C4.55,3.81 3.24,5.42 3.04,7.81 C3.02,8.1 3.26,8.34 3.54,8.34 L20.46,8.34 C20.75,8.34 20.99,8.09 20.96,7.81 C20.76,5.42 19.45,3.81 16.75,3.56 Z"/>
  <path fill="#292D32" opacity="0.4" d="M21,10.84 L21,12.58 C21,13.19 20.46,13.66 19.86,13.56 C19.58,13.52 19.29,13.49 19,13.49 C15.97,13.49 13.5,15.96 13.5,18.99 C13.5,19.45 13.68,20.09 13.87,20.67 C14.09,21.32 13.61,21.99 12.92,21.99 L8,21.99 C4.5,21.99 3,19.99 3,16.99 L3,10.83 C3,10.28 3.45,9.83 4,9.83 L20,9.83 C20.55,9.84 21,10.29 21,10.84 Z"/>
  <path fill="#292D32" d="M19,15 C16.79,15 15,16.79 15,19 C15,19.75 15.21,20.46 15.58,21.06 C16.27,22.22 17.54,23 19,23 C20.46,23 21.73,22.22 22.42,21.06 C22.79,20.46 23,19.75 23,19 C23,16.79 21.21,15 19,15 Z M21.07,18.57 L18.94,20.54 C18.8,20.67 18.61,20.74 18.43,20.74 C18.24,20.74 18.05,20.67 17.9,20.52 L16.91,19.53 C16.62,19.24 16.62,18.76 16.91,18.47 C17.2,18.18 17.68,18.18 17.97,18.47 L18.45,18.95 L20.05,17.47 C20.35,17.19 20.83,17.21 21.11,17.51 C21.39,17.81 21.37,18.28 21.07,18.57 Z"/>
  <path fill="#292D32" d="M8.5,15 C8.24,15 7.98,14.89 7.79,14.71 C7.61,14.52 7.5,14.26 7.5,14 C7.5,13.74 7.61,13.48 7.79,13.29 C8.02,13.06 8.37,12.95 8.7,13.02 C8.76,13.03 8.82,13.05 8.88,13.08 C8.94,13.1 9,13.13 9.06,13.17 C9.11,13.21 9.16,13.25 9.21,13.29 C9.39,13.48 9.5,13.74 9.5,14 C9.5,14.26 9.39,14.52 9.21,14.71 C9.16,14.75 9.11,14.79 9.06,14.83 C9,14.87 8.94,14.9 8.88,14.92 C8.82,14.95 8.76,14.97 8.7,14.98 C8.63,14.99 8.56,15 8.5,15 Z"/>
  <path fill="#292D32" d="M12,15 C11.74,15 11.48,14.89 11.29,14.71 C11.11,14.52 11,14.26 11,14 C11,13.74 11.11,13.48 11.29,13.29 C11.67,12.92 12.34,12.92 12.71,13.29 C12.89,13.48 13,13.74 13,14 C13,14.26 12.89,14.52 12.71,14.71 C12.52,14.89 12.26,15 12,15 Z"/>
  <path fill="#292D32" d="M8.5,18.5 C8.24,18.5 7.98,18.39 7.79,18.21 C7.61,18.02 7.5,17.76 7.5,17.5 C7.5,17.24 7.61,16.98 7.79,16.79 C7.89,16.7 7.99,16.63 8.12,16.58 C8.49,16.42 8.93,16.51 9.21,16.79 C9.39,16.98 9.5,17.24 9.5,17.5 C9.5,17.76 9.39,18.02 9.21,18.21 C9.02,18.39 8.76,18.5 8.5,18.5 Z"/>
</svg>

