<svg xmlns="http://www.w3.org/2000/svg" width="24" height="24" viewBox="0 0 24 24">
  <defs/>
  <path fill="#292D32" d="M8.75,2 L8.75,5 Q8.75,5.311 8.53,5.53 Q8.311,5.75 8,5.75 Q7.689,5.75 7.47,5.53 Q7.25,5.311 7.25,5 L7.25,2 Q7.25,1.689 7.47,1.47 Q7.689,1.25 8,1.25 Q8.311,1.25 8.53,1.47 Q8.75,1.689 8.75,2 Z"/>
  <path fill="#292D32" d="M16.75,2 L16.75,5 Q16.75,5.311 16.53,5.53 Q16.311,5.75 16,5.75 Q15.689,5.75 15.47,5.53 Q15.25,5.311 15.25,5 L15.25,2 Q15.25,1.689 15.47,1.47 Q15.689,1.25 16,1.25 Q16.311,1.25 16.53,1.47 Q16.75,1.689 16.75,2 Z"/>
  <path fill="#292D32" d="M18.2,22.15 Q16.564,22.15 15.407,20.993 Q14.25,19.836 14.25,18.2 Q14.25,14.25 18.2,14.25 Q19.836,14.25 20.993,15.407 Q22.15,16.564 22.15,18.2 Q22.15,22.15 18.2,22.15 Z M18.2,20.65 Q19.215,20.65 19.932,19.932 Q20.65,19.215 20.65,18.2 Q20.65,17.185 19.932,16.468 Q19.215,15.75 18.2,15.75 Q15.75,15.75 15.75,18.2 Q15.75,19.215 16.468,19.932 Q17.185,20.65 18.2,20.65 Z"/>
  <path fill="#292D32" d="M21.47,22.53 L20.47,21.53 Q20.25,21.311 20.25,21 Q20.25,20.689 20.47,20.47 Q20.689,20.25 21,20.25 Q21.311,20.25 21.53,20.47 L22.53,21.47 Q22.75,21.689 22.75,22 Q22.75,22.311 22.53,22.53 Q22.311,22.75 22,22.75 Q21.689,22.75 21.47,22.53 Z"/>
  <path fill="#292D32" d="M3.5,8.34 L20.5,8.34 Q20.811,8.34 21.03,8.56 Q21.25,8.779 21.25,9.09 Q21.25,9.4 21.03,9.62 Q20.811,9.84 20.5,9.84 L3.5,9.84 Q3.189,9.84 2.97,9.62 Q2.75,9.4 2.75,9.09 Q2.75,8.779 2.97,8.56 Q3.189,8.34 3.5,8.34 Z"/>
  <path fill="#292D32" d="M2.25,13.01 L2.25,8.5 Q2.25,2.75 8,2.75 L16,2.75 Q21.75,2.75 21.75,8.5 L21.75,13 Q21.75,13.311 21.53,13.53 Q21.311,13.75 21,13.75 Q20.689,13.75 20.47,13.53 Q20.25,13.311 20.25,13 L20.25,8.5 Q20.25,4.25 16,4.25 L8,4.25 Q3.75,4.25 3.75,8.5 L3.75,13.01 Q3.75,13.321 3.53,13.54 Q3.311,13.76 3,13.76 Q2.689,13.76 2.47,13.54 Q2.25,13.321 2.25,13.01 Z"/>
  <path fill="#292D32" d="M13.37,22.75 L8,22.75 Q2.25,22.75 2.25,17 Q2.25,16.689 2.47,16.47 Q2.689,16.25 3,16.25 Q3.311,16.25 3.53,16.47 Q3.75,16.689 3.75,17 Q3.75,21.25 8,21.25 L13.37,21.25 Q13.681,21.25 13.9,21.47 Q14.12,21.689 14.12,22 Q14.12,22.311 13.9,22.53 Q13.681,22.75 13.37,22.75 Z"/>
  <path fill="#292D32" d="M11.995,12.7 L12.003,12.7 Q12.418,12.7 12.711,12.993 Q13.003,13.286 13.003,13.7 Q13.003,14.114 12.711,14.407 Q12.418,14.7 12.003,14.7 L11.995,14.7 Q11.58,14.7 11.287,14.407 Q10.994,14.114 10.994,13.7 Q10.994,13.286 11.287,12.993 Q11.58,12.7 11.995,12.7 Z"/>
  <path fill="#292D32" d="M8.295,12.7 L8.304,12.7 Q8.718,12.7 9.011,12.993 Q9.304,13.286 9.304,13.7 Q9.304,14.114 9.011,14.407 Q8.718,14.7 8.304,14.7 L8.295,14.7 Q7.881,14.7 7.588,14.407 Q7.295,14.114 7.295,13.7 Q7.295,13.286 7.588,12.993 Q7.881,12.7 8.295,12.7 Z"/>
  <path fill="#292D32" d="M8.295,15.7 L8.304,15.7 Q8.718,15.7 9.011,15.993 Q9.304,16.286 9.304,16.7 Q9.304,17.114 9.011,17.407 Q8.718,17.7 8.304,17.7 L8.295,17.7 Q7.881,17.7 7.588,17.407 Q7.295,17.114 7.295,16.7 Q7.295,16.286 7.588,15.993 Q7.881,15.7 8.295,15.7 Z"/>
</svg>

