<svg xmlns="http://www.w3.org/2000/svg" width="24" height="24" viewBox="0 0 24 24">
  <defs/>
  <path fill="#292D32" d="M8,5.75 C7.59,5.75 7.25,5.41 7.25,5 L7.25,2 C7.25,1.59 7.59,1.25 8,1.25 C8.41,1.25 8.75,1.59 8.75,2 L8.75,5 C8.75,5.41 8.41,5.75 8,5.75 Z"/>
  <path fill="#292D32" d="M16,5.75 C15.59,5.75 15.25,5.41 15.25,5 L15.25,2 C15.25,1.59 15.59,1.25 16,1.25 C16.41,1.25 16.75,1.59 16.75,2 L16.75,5 C16.75,5.41 16.41,5.75 16,5.75 Z"/>
  <path fill="#292D32" d="M8.5,14.5 C8.37,14.5 8.24,14.47 8.12,14.42 C7.99,14.37 7.89,14.3 7.79,14.21 C7.61,14.02 7.5,13.77 7.5,13.5 C7.5,13.37 7.53,13.24 7.58,13.12 C7.63,13 7.7,12.89 7.79,12.79 C7.89,12.7 7.99,12.63 8.12,12.58 C8.48,12.43 8.93,12.51 9.21,12.79 C9.39,12.98 9.5,13.24 9.5,13.5 C9.5,13.56 9.49,13.63 9.48,13.7 C9.47,13.76 9.45,13.82 9.42,13.88 C9.4,13.94 9.37,14 9.33,14.06 C9.3,14.11 9.25,14.16 9.21,14.21 C9.02,14.39 8.76,14.5 8.5,14.5 Z"/>
  <path fill="#292D32" d="M12,14.5 C11.87,14.5 11.74,14.47 11.62,14.42 C11.49,14.37 11.39,14.3 11.29,14.21 C11.11,14.02 11,13.77 11,13.5 C11,13.37 11.03,13.24 11.08,13.12 C11.13,13 11.2,12.89 11.29,12.79 C11.39,12.7 11.49,12.63 11.62,12.58 C11.98,12.42 12.43,12.51 12.71,12.79 C12.89,12.98 13,13.24 13,13.5 C13,13.56 12.99,13.63 12.98,13.7 C12.97,13.76 12.95,13.82 12.92,13.88 C12.9,13.94 12.87,14 12.83,14.06 C12.8,14.11 12.75,14.16 12.71,14.21 C12.52,14.39 12.26,14.5 12,14.5 Z"/>
  <path fill="#292D32" d="M15.5,14.5 C15.37,14.5 15.24,14.47 15.12,14.42 C14.99,14.37 14.89,14.3 14.79,14.21 C14.75,14.16 14.71,14.11 14.67,14.06 C14.63,14 14.6,13.94 14.58,13.88 C14.55,13.82 14.53,13.76 14.52,13.7 C14.51,13.63 14.5,13.56 14.5,13.5 C14.5,13.24 14.61,12.98 14.79,12.79 C14.89,12.7 14.99,12.63 15.12,12.58 C15.49,12.42 15.93,12.51 16.21,12.79 C16.39,12.98 16.5,13.24 16.5,13.5 C16.5,13.56 16.49,13.63 16.48,13.7 C16.47,13.76 16.45,13.82 16.42,13.88 C16.4,13.94 16.37,14 16.33,14.06 C16.3,14.11 16.25,14.16 16.21,14.21 C16.02,14.39 15.76,14.5 15.5,14.5 Z"/>
  <path fill="#292D32" d="M8.5,18 C8.37,18 8.24,17.97 8.12,17.92 C8,17.87 7.89,17.8 7.79,17.71 C7.61,17.52 7.5,17.26 7.5,17 C7.5,16.87 7.53,16.74 7.58,16.62 C7.63,16.49 7.7,16.38 7.79,16.29 C8.16,15.92 8.84,15.92 9.21,16.29 C9.39,16.48 9.5,16.74 9.5,17 C9.5,17.26 9.39,17.52 9.21,17.71 C9.02,17.89 8.76,18 8.5,18 Z"/>
  <path fill="#292D32" d="M12,18 C11.74,18 11.48,17.89 11.29,17.71 C11.11,17.52 11,17.26 11,17 C11,16.87 11.03,16.74 11.08,16.62 C11.13,16.49 11.2,16.38 11.29,16.29 C11.66,15.92 12.34,15.92 12.71,16.29 C12.8,16.38 12.87,16.49 12.92,16.62 C12.97,16.74 13,16.87 13,17 C13,17.26 12.89,17.52 12.71,17.71 C12.52,17.89 12.26,18 12,18 Z"/>
  <path fill="#292D32" d="M15.5,18 C15.24,18 14.98,17.89 14.79,17.71 C14.7,17.62 14.63,17.51 14.58,17.38 C14.53,17.26 14.5,17.13 14.5,17 C14.5,16.87 14.53,16.74 14.58,16.62 C14.63,16.49 14.7,16.38 14.79,16.29 C15.02,16.06 15.37,15.95 15.69,16.02 C15.76,16.03 15.82,16.05 15.88,16.08 C15.94,16.1 16,16.13 16.06,16.17 C16.11,16.2 16.16,16.25 16.21,16.29 C16.39,16.48 16.5,16.74 16.5,17 C16.5,17.26 16.39,17.52 16.21,17.71 C16.02,17.89 15.76,18 15.5,18 Z"/>
  <path fill="#292D32" d="M20.5,9.84 L3.5,9.84 C3.09,9.84 2.75,9.5 2.75,9.09 C2.75,8.68 3.09,8.34 3.5,8.34 L20.5,8.34 C20.91,8.34 21.25,8.68 21.25,9.09 C21.25,9.5 20.91,9.84 20.5,9.84 Z"/>
  <path fill="#292D32" d="M16,22.75 L8,22.75 C4.35,22.75 2.25,20.65 2.25,17 L2.25,8.5 C2.25,4.85 4.35,2.75 8,2.75 L16,2.75 C19.65,2.75 21.75,4.85 21.75,8.5 L21.75,17 C21.75,20.65 19.65,22.75 16,22.75 Z M8,4.25 C5.14,4.25 3.75,5.64 3.75,8.5 L3.75,17 C3.75,19.86 5.14,21.25 8,21.25 L16,21.25 C18.86,21.25 20.25,19.86 20.25,17 L20.25,8.5 C20.25,5.64 18.86,4.25 16,4.25 L8,4.25 Z"/>
</svg>

