<svg xmlns="http://www.w3.org/2000/svg" width="24" height="24" viewBox="0 0 24 24">
  <defs/>
  <path fill="#292D32" d="M16.75,3.56 L16.75,2 C16.75,1.59 16.41,1.25 16,1.25 C15.59,1.25 15.25,1.59 15.25,2 L15.25,3.5 L8.75,3.5 L8.75,2 C8.75,1.59 8.41,1.25 8,1.25 C7.59,1.25 7.25,1.59 7.25,2 L7.25,3.56 C4.55,3.81 3.24,5.42 3.04,7.81 C3.02,8.1 3.26,8.34 3.54,8.34 L20.46,8.34 C20.75,8.34 20.99,8.09 20.96,7.81 C20.76,5.42 19.45,3.81 16.75,3.56 Z"/>
  <path fill="#292D32" opacity="0.4" d="M21,10.84 L21,12.58 C21,13.19 20.46,13.66 19.86,13.56 C19.58,13.52 19.29,13.49 19,13.49 C15.97,13.49 13.5,15.96 13.5,18.99 C13.5,19.45 13.68,20.09 13.87,20.67 C14.09,21.32 13.61,21.99 12.92,21.99 L8,21.99 C4.5,21.99 3,19.99 3,16.99 L3,10.83 C3,10.28 3.45,9.83 4,9.83 L20,9.83 C20.55,9.84 21,10.29 21,10.84 Z"/>
  <path fill="#292D32" d="M8.5,15 C8.24,15 7.98,14.89 7.79,14.71 C7.61,14.52 7.5,14.26 7.5,14 C7.5,13.74 7.61,13.48 7.79,13.29 C8.02,13.06 8.37,12.95 8.7,13.02 C8.76,13.03 8.82,13.05 8.88,13.08 C8.94,13.1 9,13.13 9.06,13.17 C9.11,13.21 9.16,13.25 9.21,13.29 C9.39,13.48 9.5,13.74 9.5,14 C9.5,14.26 9.39,14.52 9.21,14.71 C9.16,14.75 9.11,14.79 9.06,14.83 C9,14.87 8.94,14.9 8.88,14.92 C8.82,14.95 8.76,14.97 8.7,14.98 C8.63,14.99 8.56,15 8.5,15 Z"/>
  <path fill="#292D32" d="M12,15 C11.74,15 11.48,14.89 11.29,14.71 C11.11,14.52 11,14.26 11,14 C11,13.74 11.11,13.48 11.29,13.29 C11.67,12.92 12.34,12.92 12.71,13.29 C12.89,13.48 13,13.74 13,14 C13,14.26 12.89,14.52 12.71,14.71 C12.52,14.89 12.26,15 12,15 Z"/>
  <path fill="#292D32" d="M8.5,18.5 C8.24,18.5 7.98,18.39 7.79,18.21 C7.61,18.02 7.5,17.76 7.5,17.5 C7.5,17.24 7.61,16.98 7.79,16.79 C7.89,16.7 7.99,16.63 8.12,16.58 C8.49,16.42 8.93,16.51 9.21,16.79 C9.39,16.98 9.5,17.24 9.5,17.5 C9.5,17.76 9.39,18.02 9.21,18.21 C9.02,18.39 8.76,18.5 8.5,18.5 Z"/>
  <path fill="#292D32" d="M21.83,16.17 C20.27,14.61 17.73,14.61 16.17,16.17 C14.61,17.73 14.61,20.27 16.17,21.83 C17.73,23.39 20.27,23.39 21.83,21.83 C23.39,20.27 23.39,17.73 21.83,16.17 Z M21.07,19.56 C20.94,19.7 20.75,19.78 20.54,19.78 L19.8,19.78 L19.8,20.56 C19.8,20.77 19.72,20.95 19.58,21.09 C19.44,21.23 19.26,21.31 19.05,21.31 C18.64,21.31 18.3,20.97 18.3,20.56 L18.3,19.78 L17.55,19.78 C17.14,19.78 16.8,19.45 16.8,19.03 C16.8,18.62 17.14,18.28 17.55,18.28 L18.3,18.28 L18.3,17.57 C18.3,17.16 18.63,16.82 19.05,16.82 C19.46,16.82 19.8,17.16 19.8,17.57 L19.8,18.28 L20.54,18.28 C20.96,18.28 21.29,18.62 21.29,19.03 C21.29,19.24 21.21,19.43 21.07,19.56 Z"/>
</svg>

