<svg xmlns="http://www.w3.org/2000/svg" width="24" height="24" viewBox="0 0 24 24">
  <defs/>
  <path fill="#292D32" d="M16.75,3.56 L16.75,2 C16.75,1.59 16.41,1.25 16,1.25 C15.59,1.25 15.25,1.59 15.25,2 L15.25,3.5 L8.75,3.5 L8.75,2 C8.75,1.59 8.41,1.25 8,1.25 C7.59,1.25 7.25,1.59 7.25,2 L7.25,3.56 C4.55,3.81 3.24,5.42 3.04,7.81 C3.02,8.1 3.26,8.34 3.54,8.34 L20.46,8.34 C20.75,8.34 20.99,8.09 20.96,7.81 C20.76,5.42 19.45,3.81 16.75,3.56 Z"/>
  <path fill="#292D32" d="M20,9.84 L4,9.84 C3.45,9.84 3,10.29 3,10.84 L3,17 C3,20 4.5,22 8,22 L16,22 C19.5,22 21,20 21,17 L21,10.84 C21,10.29 20.55,9.84 20,9.84 Z M9.21,18.21 C9.11,18.3 9,18.37 8.88,18.42 C8.76,18.47 8.63,18.5 8.5,18.5 C8.37,18.5 8.24,18.47 8.12,18.42 C8,18.37 7.89,18.3 7.79,18.21 C7.61,18.02 7.5,17.76 7.5,17.5 C7.5,17.24 7.61,16.98 7.79,16.79 C7.89,16.7 8,16.63 8.12,16.58 C8.36,16.48 8.64,16.48 8.88,16.58 C9,16.63 9.11,16.7 9.21,16.79 C9.39,16.98 9.5,17.24 9.5,17.5 C9.5,17.76 9.39,18.02 9.21,18.21 Z M9.42,14.38 C9.37,14.5 9.3,14.61 9.21,14.71 C9.11,14.8 9,14.87 8.88,14.92 C8.76,14.97 8.63,15 8.5,15 C8.37,15 8.24,14.97 8.12,14.92 C8,14.87 7.89,14.8 7.79,14.71 C7.7,14.61 7.63,14.5 7.58,14.38 C7.53,14.26 7.5,14.13 7.5,14 C7.5,13.87 7.53,13.74 7.58,13.62 C7.63,13.5 7.7,13.39 7.79,13.29 C7.89,13.2 8,13.13 8.12,13.08 C8.36,12.98 8.64,12.98 8.88,13.08 C9,13.13 9.11,13.2 9.21,13.29 C9.3,13.39 9.37,13.5 9.42,13.62 C9.47,13.74 9.5,13.87 9.5,14 C9.5,14.13 9.47,14.26 9.42,14.38 Z M12.71,14.71 C12.61,14.8 12.5,14.87 12.38,14.92 C12.26,14.97 12.13,15 12,15 C11.87,15 11.74,14.97 11.62,14.92 C11.5,14.87 11.39,14.8 11.29,14.71 C11.11,14.52 11,14.26 11,14 C11,13.74 11.11,13.48 11.29,13.29 C11.39,13.2 11.5,13.13 11.62,13.08 C11.86,12.97 12.14,12.97 12.38,13.08 C12.5,13.13 12.61,13.2 12.71,13.29 C12.89,13.48 13,13.74 13,14 C13,14.26 12.89,14.52 12.71,14.71 Z"/>
</svg>

