<svg xmlns="http://www.w3.org/2000/svg" width="24" height="24" viewBox="0 0 24 24">
  <defs/>
  <path fill="#292D32" d="M8.75,2 L8.75,5 Q8.75,5.311 8.53,5.53 Q8.311,5.75 8,5.75 Q7.689,5.75 7.47,5.53 Q7.25,5.311 7.25,5 L7.25,2 Q7.25,1.689 7.47,1.47 Q7.689,1.25 8,1.25 Q8.311,1.25 8.53,1.47 Q8.75,1.689 8.75,2 Z"/>
  <path fill="#292D32" d="M16.75,2 L16.75,5 Q16.75,5.311 16.53,5.53 Q16.311,5.75 16,5.75 Q15.689,5.75 15.47,5.53 Q15.25,5.311 15.25,5 L15.25,2 Q15.25,1.689 15.47,1.47 Q15.689,1.25 16,1.25 Q16.311,1.25 16.53,1.47 Q16.75,1.689 16.75,2 Z"/>
  <path fill="#292D32" opacity="0.4" d="M3.5,8.34 L20.5,8.34 Q20.811,8.34 21.03,8.56 Q21.25,8.779 21.25,9.09 Q21.25,9.4 21.03,9.62 Q20.811,9.84 20.5,9.84 L3.5,9.84 Q3.189,9.84 2.97,9.62 Q2.75,9.4 2.75,9.09 Q2.75,8.779 2.97,8.56 Q3.189,8.34 3.5,8.34 Z"/>
  <path fill="#292D32" d="M18.68,15.239 Q20.32,13.599 21.95,15.229 Q22.826,16.105 22.733,17.052 Q22.659,17.802 21.95,18.51 L18.419,22.042 Q18.02,22.464 17.395,22.562 L16.046,22.752 Q15.307,22.858 14.82,22.37 Q14.332,21.882 14.437,21.145 L14.629,19.783 Q14.722,19.198 15.14,18.779 Z M19.74,16.3 L16.2,19.84 Q16.127,19.913 16.111,20.017 L15.937,21.253 L17.185,21.077 Q17.282,21.062 17.33,21.009 Q17.34,20.999 17.35,20.989 L20.89,17.449 Q21.219,17.121 21.24,16.905 Q21.264,16.664 20.89,16.29 Q20.32,15.72 19.74,16.3 Z"/>
  <path fill="#292D32" d="M19.423,16.079 Q19.792,17.408 21.121,17.777 Q21.42,17.86 21.573,18.131 Q21.726,18.401 21.643,18.701 Q21.56,19 21.289,19.153 Q21.019,19.306 20.719,19.222 Q18.574,18.626 17.978,16.481 Q17.894,16.181 18.047,15.911 Q18.2,15.64 18.499,15.557 Q18.799,15.474 19.069,15.627 Q19.34,15.78 19.423,16.079 Z"/>
  <path fill="#292D32" d="M12,22.75 L8,22.75 Q2.25,22.75 2.25,17 L2.25,8.5 Q2.25,2.75 8,2.75 L16,2.75 Q21.75,2.75 21.75,8.5 L21.75,12 Q21.75,12.311 21.53,12.53 Q21.311,12.75 21,12.75 Q20.689,12.75 20.47,12.53 Q20.25,12.311 20.25,12 L20.25,8.5 Q20.25,4.25 16,4.25 L8,4.25 Q3.75,4.25 3.75,8.5 L3.75,17 Q3.75,21.25 8,21.25 L12,21.25 Q12.311,21.25 12.53,21.47 Q12.75,21.689 12.75,22 Q12.75,22.311 12.53,22.53 Q12.311,22.75 12,22.75 Z"/>
  <path fill="#292D32" opacity="0.4" d="M11.995,12.7 L12.005,12.7 Q12.419,12.7 12.712,12.993 Q13.004,13.286 13.004,13.7 Q13.004,14.114 12.712,14.407 Q12.419,14.7 12.005,14.7 L11.995,14.7 Q11.581,14.7 11.288,14.407 Q10.995,14.114 10.995,13.7 Q10.995,13.286 11.288,12.993 Q11.581,12.7 11.995,12.7 Z"/>
  <path fill="#292D32" opacity="0.4" d="M8.294,12.7 L8.303,12.7 Q8.718,12.7 9.01,12.993 Q9.303,13.286 9.303,13.7 Q9.303,14.114 9.01,14.407 Q8.718,14.7 8.303,14.7 L8.294,14.7 Q7.88,14.7 7.587,14.407 Q7.294,14.114 7.294,13.7 Q7.294,13.286 7.587,12.993 Q7.88,12.7 8.294,12.7 Z"/>
  <path fill="#292D32" opacity="0.4" d="M8.295,15.7 L8.304,15.7 Q8.718,15.7 9.011,15.993 Q9.304,16.286 9.304,16.7 Q9.304,17.114 9.011,17.407 Q8.718,17.7 8.304,17.7 L8.295,17.7 Q7.881,17.7 7.588,17.407 Q7.295,17.114 7.295,16.7 Q7.295,16.286 7.588,15.993 Q7.881,15.7 8.295,15.7 Z"/>
</svg>

