<svg xmlns="http://www.w3.org/2000/svg" width="24" height="24" viewBox="0 0 24 24">
  <defs/>
  <path fill="#292D32" d="M8,1.25 C8.414,1.25 8.75,1.586 8.75,2 L8.75,5 C8.75,5.414 8.414,5.75 8,5.75 C7.586,5.75 7.25,5.414 7.25,5 L7.25,2 C7.25,1.586 7.586,1.25 8,1.25 Z"/>
  <path fill="#292D32" d="M16,1.25 C16.414,1.25 16.75,1.586 16.75,2 L16.75,5 C16.75,5.414 16.414,5.75 16,5.75 C15.586,5.75 15.25,5.414 15.25,5 L15.25,2 C15.25,1.586 15.586,1.25 16,1.25 Z"/>
  <path fill="#292D32" opacity="0.4" d="M21.5,8.37 L21.5,17.13 C21.5,17.29 21.49,17.45 21.48,17.6 L2.52,17.6 C2.51,17.45 2.5,17.29 2.5,17.13 L2.5,8.37 C2.5,5.68 4.68,3.5 7.37,3.5 L16.63,3.5 C19.32,3.5 21.5,5.68 21.5,8.37 Z"/>
  <path fill="#292D32" d="M21.48,17.6 C21.239,20.07 19.16,22 16.63,22 L7.37,22 C4.84,22 2.76,20.07 2.52,17.6 L21.48,17.6 Z"/>
  <path fill="#292D32" d="M13.53,11.62 C13.98,11.31 14.26,10.85 14.26,10.23 C14.26,8.93 13.22,8.26 12,8.26 C10.78,8.26 9.73,8.93 9.73,10.23 C9.73,10.85 10.02,11.32 10.46,11.62 C9.85,11.98 9.5,12.56 9.5,13.24 C9.5,14.48 10.45,15.25 12,15.25 C13.54,15.25 14.5,14.48 14.5,13.24 C14.5,12.56 14.15,11.97 13.53,11.62 Z M12,9.5 C12.52,9.5 12.9,9.79 12.9,10.29 C12.9,10.78 12.52,11.09 12,11.09 C11.48,11.09 11.1,10.78 11.1,10.29 C11.1,9.79 11.48,9.5 12,9.5 Z M12,14 C11.34,14 10.86,13.67 10.86,13.07 C10.86,12.47 11.34,12.15 12,12.15 C12.66,12.15 13.14,12.48 13.14,13.07 C13.14,13.67 12.66,14 12,14 Z"/>
</svg>

