<svg xmlns="http://www.w3.org/2000/svg" width="24" height="24" viewBox="0 0 24 24">
  <defs/>
  <path fill="#292D32" d="M8,5.75 C7.59,5.75 7.25,5.41 7.25,5 L7.25,2 C7.25,1.59 7.59,1.25 8,1.25 C8.41,1.25 8.75,1.59 8.75,2 L8.75,5 C8.75,5.41 8.41,5.75 8,5.75 Z"/>
  <path fill="#292D32" d="M16,5.75 C15.59,5.75 15.25,5.41 15.25,5 L15.25,2 C15.25,1.59 15.59,1.25 16,1.25 C16.41,1.25 16.75,1.59 16.75,2 L16.75,5 C16.75,5.41 16.41,5.75 16,5.75 Z"/>
  <path fill="#292D32" d="M18.2,22.15 C16.02,22.15 14.25,20.38 14.25,18.2 C14.25,16.02 16.02,14.25 18.2,14.25 C20.38,14.25 22.15,16.02 22.15,18.2 C22.15,20.38 20.38,22.15 18.2,22.15 Z M18.2,15.75 C16.85,15.75 15.75,16.85 15.75,18.2 C15.75,19.55 16.85,20.65 18.2,20.65 C19.55,20.65 20.65,19.55 20.65,18.2 C20.65,16.85 19.55,15.75 18.2,15.75 Z"/>
  <path fill="#292D32" d="M22,22.75 C21.809,22.75 21.619,22.68 21.47,22.53 L20.47,21.53 C20.18,21.24 20.18,20.76 20.47,20.47 C20.759,20.18 21.239,20.18 21.529,20.47 L22.529,21.47 C22.82,21.76 22.82,22.24 22.529,22.53 C22.38,22.68 22.189,22.75 22,22.75 Z"/>
  <path fill="#292D32" d="M8.5,14.5 C8.37,14.5 8.24,14.47 8.12,14.42 C7.99,14.37 7.88,14.3 7.79,14.21 C7.75,14.16 7.7,14.11 7.67,14.06 C7.63,14 7.6,13.94 7.58,13.88 C7.55,13.82 7.53,13.76 7.52,13.7 C7.51,13.63 7.5,13.56 7.5,13.5 C7.5,13.24 7.61,12.98 7.79,12.79 C7.88,12.7 7.99,12.63 8.12,12.58 C8.48,12.42 8.93,12.51 9.21,12.79 C9.39,12.98 9.5,13.24 9.5,13.5 C9.5,13.56 9.49,13.63 9.48,13.7 C9.47,13.76 9.45,13.82 9.42,13.88 C9.4,13.94 9.37,14 9.33,14.06 C9.29,14.11 9.25,14.16 9.21,14.21 C9.02,14.39 8.76,14.5 8.5,14.5 Z"/>
  <path fill="#292D32" d="M12,14.5 C11.74,14.5 11.48,14.39 11.29,14.21 C11.11,14.02 11,13.77 11,13.5 C11,13.37 11.03,13.24 11.08,13.12 C11.13,13 11.2,12.89 11.29,12.79 C11.66,12.42 12.33,12.42 12.71,12.79 C12.89,12.98 13,13.24 13,13.5 C13,13.56 12.99,13.63 12.98,13.7 C12.97,13.76 12.95,13.82 12.92,13.88 C12.9,13.94 12.87,14 12.83,14.06 C12.79,14.11 12.75,14.16 12.71,14.21 C12.52,14.39 12.26,14.5 12,14.5 Z"/>
  <path fill="#292D32" d="M8.5,18 C8.24,18 7.98,17.89 7.79,17.71 C7.61,17.52 7.5,17.26 7.5,17 C7.5,16.87 7.53,16.74 7.58,16.62 C7.63,16.49 7.7,16.38 7.79,16.29 C8.16,15.92 8.84,15.92 9.21,16.29 C9.39,16.48 9.5,16.74 9.5,17 C9.5,17.26 9.39,17.52 9.21,17.71 C9.02,17.89 8.76,18 8.5,18 Z"/>
  <path fill="#292D32" d="M20.5,9.84 L3.5,9.84 C3.09,9.84 2.75,9.5 2.75,9.09 C2.75,8.68 3.09,8.34 3.5,8.34 L20.5,8.34 C20.91,8.34 21.25,8.68 21.25,9.09 C21.25,9.5 20.91,9.84 20.5,9.84 Z"/>
  <path fill="#292D32" d="M13.37,22.75 L8,22.75 C4.35,22.75 2.25,20.65 2.25,17 L2.25,8.5 C2.25,4.85 4.35,2.75 8,2.75 L16,2.75 C19.65,2.75 21.75,4.85 21.75,8.5 L21.75,13 C21.75,13.41 21.41,13.75 21,13.75 C20.59,13.75 20.25,13.41 20.25,13 L20.25,8.5 C20.25,5.64 18.86,4.25 16,4.25 L8,4.25 C5.14,4.25 3.75,5.64 3.75,8.5 L3.75,17 C3.75,19.86 5.14,21.25 8,21.25 L13.37,21.25 C13.78,21.25 14.12,21.59 14.12,22 C14.12,22.41 13.78,22.75 13.37,22.75 Z"/>
</svg>

