<svg xmlns="http://www.w3.org/2000/svg" width="24" height="24" viewBox="0 0 24 24">
  <defs/>
  <path fill="#292D32" d="M8,5.75 C7.59,5.75 7.25,5.41 7.25,5 L7.25,2 C7.25,1.59 7.59,1.25 8,1.25 C8.41,1.25 8.75,1.59 8.75,2 L8.75,5 C8.75,5.41 8.41,5.75 8,5.75 Z"/>
  <path fill="#292D32" d="M16,5.75 C15.59,5.75 15.25,5.41 15.25,5 L15.25,2 C15.25,1.59 15.59,1.25 16,1.25 C16.41,1.25 16.75,1.59 16.75,2 L16.75,5 C16.75,5.41 16.41,5.75 16,5.75 Z"/>
  <path fill="#292D32" d="M15,22.75 L9,22.75 C3.38,22.75 2.25,20.1 2.25,15.82 L2.25,9.65 C2.25,4.91 3.85,2.98 7.96,2.75 L16,2.75 C16.01,2.75 16.03,2.75 16.04,2.75 C20.15,2.98 21.75,4.91 21.75,9.65 L21.75,15.82 C21.75,20.1 20.62,22.75 15,22.75 Z M8,4.25 C5.2,4.41 3.75,5.29 3.75,9.65 L3.75,15.82 C3.75,19.65 4.48,21.25 9,21.25 L15,21.25 C19.52,21.25 20.25,19.65 20.25,15.82 L20.25,9.65 C20.25,5.3 18.81,4.41 15.98,4.25 L8,4.25 Z"/>
  <path fill="#292D32" d="M20.75,18.35 L3.25,18.35 C2.84,18.35 2.5,18.01 2.5,17.6 C2.5,17.19 2.84,16.85 3.25,16.85 L20.75,16.85 C21.16,16.85 21.5,17.19 21.5,17.6 C21.5,18.01 21.16,18.35 20.75,18.35 Z"/>
  <path fill="#292D32" d="M12,8.25 C10.77,8.25 9.73,8.92 9.73,10.22 C9.73,10.84 10.02,11.31 10.46,11.61 C9.85,11.97 9.5,12.55 9.5,13.23 C9.5,14.47 10.45,15.24 12,15.24 C13.54,15.24 14.5,14.47 14.5,13.23 C14.5,12.55 14.15,11.96 13.53,11.61 C13.98,11.3 14.26,10.84 14.26,10.22 C14.26,8.92 13.23,8.25 12,8.25 Z M12,11.09 C11.48,11.09 11.1,10.78 11.1,10.29 C11.1,9.79 11.48,9.5 12,9.5 C12.52,9.5 12.9,9.79 12.9,10.29 C12.9,10.78 12.52,11.09 12,11.09 Z M12,14 C11.34,14 10.86,13.67 10.86,13.07 C10.86,12.47 11.34,12.15 12,12.15 C12.66,12.15 13.14,12.48 13.14,13.07 C13.14,13.67 12.66,14 12,14 Z"/>
</svg>

