<svg xmlns="http://www.w3.org/2000/svg" width="24" height="24" viewBox="0 0 24 24">
  <defs/>
  <path fill="#292D32" d="M8.75,2 L8.75,5 Q8.75,5.311 8.53,5.53 Q8.311,5.75 8,5.75 Q7.689,5.75 7.47,5.53 Q7.25,5.311 7.25,5 L7.25,2 Q7.25,1.689 7.47,1.47 Q7.689,1.25 8,1.25 Q8.311,1.25 8.53,1.47 Q8.75,1.689 8.75,2 Z"/>
  <path fill="#292D32" d="M16.75,2 L16.75,5 Q16.75,5.311 16.53,5.53 Q16.311,5.75 16,5.75 Q15.689,5.75 15.47,5.53 Q15.25,5.311 15.25,5 L15.25,2 Q15.25,1.689 15.47,1.47 Q15.689,1.25 16,1.25 Q16.311,1.25 16.53,1.47 Q16.75,1.689 16.75,2 Z"/>
  <path fill="#292D32" opacity="0.4" d="M3.5,8.34 L20.5,8.34 Q20.811,8.34 21.03,8.56 Q21.25,8.779 21.25,9.09 Q21.25,9.4 21.03,9.62 Q20.811,9.84 20.5,9.84 L3.5,9.84 Q3.189,9.84 2.97,9.62 Q2.75,9.4 2.75,9.09 Q2.75,8.779 2.97,8.56 Q3.189,8.34 3.5,8.34 Z"/>
  <path fill="#292D32" d="M21.75,8.5 L21.75,17 Q21.75,22.75 16,22.75 L8,22.75 Q2.25,22.75 2.25,17 L2.25,8.5 Q2.25,2.75 8,2.75 L16,2.75 Q21.75,2.75 21.75,8.5 Z M20.25,8.5 Q20.25,4.25 16,4.25 L8,4.25 Q3.75,4.25 3.75,8.5 L3.75,17 Q3.75,21.25 8,21.25 L16,21.25 Q20.25,21.25 20.25,17 Z"/>
  <path fill="#292D32" opacity="0.4" d="M15.695,12.7 L15.704,12.7 Q16.118,12.7 16.411,12.993 Q16.704,13.286 16.704,13.7 Q16.704,14.114 16.411,14.407 Q16.118,14.7 15.704,14.7 L15.695,14.7 Q15.28,14.7 14.988,14.407 Q14.695,14.114 14.695,13.7 Q14.695,13.286 14.988,12.993 Q15.28,12.7 15.695,12.7 Z"/>
  <path fill="#292D32" opacity="0.4" d="M15.695,15.7 L15.704,15.7 Q16.118,15.7 16.411,15.993 Q16.704,16.286 16.704,16.7 Q16.704,17.114 16.411,17.407 Q16.118,17.7 15.704,17.7 L15.695,17.7 Q15.28,17.7 14.988,17.407 Q14.695,17.114 14.695,16.7 Q14.695,16.286 14.988,15.993 Q15.28,15.7 15.695,15.7 Z"/>
  <path fill="#292D32" opacity="0.4" d="M11.995,12.7 L12.005,12.7 Q12.419,12.7 12.712,12.993 Q13.004,13.286 13.004,13.7 Q13.004,14.114 12.712,14.407 Q12.419,14.7 12.005,14.7 L11.995,14.7 Q11.581,14.7 11.288,14.407 Q10.995,14.114 10.995,13.7 Q10.995,13.286 11.288,12.993 Q11.581,12.7 11.995,12.7 Z"/>
  <path fill="#292D32" opacity="0.4" d="M11.995,15.7 L12.005,15.7 Q12.419,15.7 12.712,15.993 Q13.004,16.286 13.004,16.7 Q13.004,17.114 12.712,17.407 Q12.419,17.7 12.005,17.7 L11.995,17.7 Q11.581,17.7 11.288,17.407 Q10.995,17.114 10.995,16.7 Q10.995,16.286 11.288,15.993 Q11.581,15.7 11.995,15.7 Z"/>
  <path fill="#292D32" opacity="0.4" d="M8.294,12.7 L8.303,12.7 Q8.718,12.7 9.01,12.993 Q9.303,13.286 9.303,13.7 Q9.303,14.114 9.01,14.407 Q8.718,14.7 8.303,14.7 L8.294,14.7 Q7.88,14.7 7.587,14.407 Q7.294,14.114 7.294,13.7 Q7.294,13.286 7.587,12.993 Q7.88,12.7 8.294,12.7 Z"/>
  <path fill="#292D32" opacity="0.4" d="M8.294,15.7 L8.303,15.7 Q8.717,15.7 9.01,15.993 Q9.303,16.286 9.303,16.7 Q9.303,17.114 9.01,17.407 Q8.717,17.7 8.303,17.7 L8.294,17.7 Q7.88,17.7 7.587,17.407 Q7.294,17.114 7.294,16.7 Q7.294,16.286 7.587,15.993 Q7.88,15.7 8.294,15.7 Z"/>
</svg>

