<svg xmlns="http://www.w3.org/2000/svg" width="24" height="24" viewBox="0 0 24 24">
  <defs/>
  <path fill="#292D32" d="M8.75,2 L8.75,5 Q8.75,5.311 8.53,5.53 Q8.311,5.75 8,5.75 Q7.689,5.75 7.47,5.53 Q7.25,5.311 7.25,5 L7.25,2 Q7.25,1.689 7.47,1.47 Q7.689,1.25 8,1.25 Q8.311,1.25 8.53,1.47 Q8.75,1.689 8.75,2 Z"/>
  <path fill="#292D32" d="M16.75,2 L16.75,5 Q16.75,5.311 16.53,5.53 Q16.311,5.75 16,5.75 Q15.689,5.75 15.47,5.53 Q15.25,5.311 15.25,5 L15.25,2 Q15.25,1.689 15.47,1.47 Q15.689,1.25 16,1.25 Q16.311,1.25 16.53,1.47 Q16.75,1.689 16.75,2 Z"/>
  <path fill="#292D32" d="M3.5,8.34 L20.5,8.34 Q20.811,8.34 21.03,8.56 Q21.25,8.779 21.25,9.09 Q21.25,9.4 21.03,9.62 Q20.811,9.84 20.5,9.84 L3.5,9.84 Q3.189,9.84 2.97,9.62 Q2.75,9.4 2.75,9.09 Q2.75,8.779 2.97,8.56 Q3.189,8.34 3.5,8.34 Z"/>
  <path fill="#292D32" d="M18.681,15.24 Q19.387,14.533 20.134,14.456 Q21.081,14.359 21.951,15.23 Q23.592,16.87 21.951,18.51 L18.42,22.042 Q18.021,22.464 17.396,22.563 L16.047,22.753 Q15.308,22.858 14.821,22.37 Q14.333,21.883 14.438,21.145 L14.63,19.783 Q14.723,19.198 15.141,18.78 Z M19.741,16.3 L16.201,19.84 Q16.128,19.914 16.112,20.017 L15.938,21.253 L17.186,21.077 Q17.283,21.062 17.331,21.01 Q17.341,20.999 17.351,20.99 L20.891,17.45 Q21.47,16.87 20.891,16.29 Q20.525,15.924 20.288,15.949 Q20.071,15.971 19.741,16.3 Z"/>
  <path fill="#292D32" d="M19.422,16.079 Q19.791,17.408 21.12,17.777 Q21.419,17.861 21.572,18.131 Q21.725,18.401 21.642,18.701 Q21.559,19 21.288,19.153 Q21.018,19.306 20.718,19.223 Q18.573,18.627 17.977,16.481 Q17.893,16.181 18.046,15.911 Q18.199,15.641 18.498,15.557 Q18.798,15.474 19.068,15.627 Q19.339,15.78 19.422,16.079 Z"/>
  <path fill="#292D32" d="M2.25,13.08 L2.25,8.5 Q2.25,2.75 8,2.75 L16,2.75 Q21.75,2.75 21.75,8.5 L21.75,12 Q21.75,12.311 21.53,12.53 Q21.311,12.75 21,12.75 Q20.689,12.75 20.47,12.53 Q20.25,12.311 20.25,12 L20.25,8.5 Q20.25,4.25 16,4.25 L8,4.25 Q3.75,4.25 3.75,8.5 L3.75,13.08 Q3.75,13.391 3.53,13.61 Q3.311,13.83 3,13.83 Q2.689,13.83 2.47,13.61 Q2.25,13.391 2.25,13.08 Z"/>
  <path fill="#292D32" d="M12,22.75 L8,22.75 Q2.25,22.75 2.25,17 Q2.25,16.689 2.47,16.47 Q2.689,16.25 3,16.25 Q3.311,16.25 3.53,16.47 Q3.75,16.689 3.75,17 Q3.75,21.25 8,21.25 L12,21.25 Q12.311,21.25 12.53,21.47 Q12.75,21.689 12.75,22 Q12.75,22.311 12.53,22.53 Q12.311,22.75 12,22.75 Z"/>
  <path fill="#292D32" d="M11.995,12.7 L12.003,12.7 Q12.418,12.7 12.711,12.993 Q13.003,13.286 13.003,13.7 Q13.003,14.114 12.711,14.407 Q12.418,14.7 12.003,14.7 L11.995,14.7 Q11.58,14.7 11.287,14.407 Q10.994,14.114 10.994,13.7 Q10.994,13.286 11.287,12.993 Q11.58,12.7 11.995,12.7 Z"/>
  <path fill="#292D32" d="M8.295,12.7 L8.304,12.7 Q8.718,12.7 9.011,12.993 Q9.304,13.286 9.304,13.7 Q9.304,14.114 9.011,14.407 Q8.718,14.7 8.304,14.7 L8.295,14.7 Q7.881,14.7 7.588,14.407 Q7.295,14.114 7.295,13.7 Q7.295,13.286 7.588,12.993 Q7.881,12.7 8.295,12.7 Z"/>
  <path fill="#292D32" d="M8.295,15.7 L8.304,15.7 Q8.718,15.7 9.011,15.993 Q9.304,16.286 9.304,16.7 Q9.304,17.114 9.011,17.407 Q8.718,17.7 8.304,17.7 L8.295,17.7 Q7.881,17.7 7.588,17.407 Q7.295,17.114 7.295,16.7 Q7.295,16.286 7.588,15.993 Q7.881,15.7 8.295,15.7 Z"/>
</svg>

