<svg xmlns="http://www.w3.org/2000/svg" width="24" height="24" viewBox="0 0 24 24">
  <defs/>
  <path fill="#292D32" d="M8,5.75 C7.59,5.75 7.25,5.41 7.25,5 L7.25,2 C7.25,1.59 7.59,1.25 8,1.25 C8.41,1.25 8.75,1.59 8.75,2 L8.75,5 C8.75,5.41 8.41,5.75 8,5.75 Z"/>
  <path fill="#292D32" d="M16,5.75 C15.59,5.75 15.25,5.41 15.25,5 L15.25,2 C15.25,1.59 15.59,1.25 16,1.25 C16.41,1.25 16.75,1.59 16.75,2 L16.75,5 C16.75,5.41 16.41,5.75 16,5.75 Z"/>
  <path fill="#292D32" d="M8.5,14.5 C8.37,14.5 8.24,14.47 8.12,14.42 C7.99,14.37 7.89,14.3 7.79,14.21 C7.61,14.02 7.5,13.76 7.5,13.5 C7.5,13.24 7.61,12.98 7.79,12.79 C7.89,12.7 8,12.63 8.12,12.58 C8.36,12.48 8.64,12.48 8.88,12.58 C9,12.63 9.11,12.7 9.21,12.79 C9.25,12.84 9.3,12.89 9.33,12.94 C9.37,13 9.4,13.06 9.42,13.12 C9.45,13.18 9.47,13.24 9.48,13.3 C9.49,13.37 9.5,13.44 9.5,13.5 C9.5,13.76 9.39,14.02 9.21,14.21 C9.11,14.3 9,14.37 8.88,14.42 C8.76,14.47 8.63,14.5 8.5,14.5 Z"/>
  <path fill="#292D32" d="M12,14.5 C11.87,14.5 11.74,14.47 11.62,14.42 C11.49,14.37 11.39,14.3 11.29,14.21 C11.11,14.02 11,13.76 11,13.5 C11,13.44 11.01,13.37 11.02,13.3 C11.03,13.24 11.05,13.18 11.08,13.12 C11.1,13.06 11.13,13 11.17,12.94 C11.21,12.89 11.25,12.84 11.29,12.79 C11.66,12.42 12.33,12.42 12.71,12.79 C12.75,12.84 12.79,12.89 12.83,12.94 C12.87,13 12.9,13.06 12.92,13.12 C12.95,13.18 12.97,13.24 12.98,13.3 C12.99,13.37 13,13.44 13,13.5 C13,13.76 12.89,14.02 12.71,14.21 C12.52,14.39 12.27,14.5 12,14.5 Z"/>
  <path fill="#292D32" d="M8.5,18 C8.37,18 8.24,17.97 8.12,17.92 C8,17.87 7.89,17.8 7.79,17.71 C7.61,17.52 7.5,17.26 7.5,17 C7.5,16.94 7.51,16.87 7.52,16.81 C7.53,16.74 7.55,16.68 7.58,16.62 C7.6,16.56 7.63,16.5 7.67,16.44 C7.7,16.39 7.75,16.34 7.79,16.29 C7.89,16.2 8,16.13 8.12,16.08 C8.36,15.98 8.64,15.98 8.88,16.08 C9,16.13 9.11,16.2 9.21,16.29 C9.25,16.34 9.3,16.39 9.33,16.44 C9.37,16.5 9.4,16.56 9.42,16.62 C9.45,16.68 9.47,16.74 9.48,16.81 C9.49,16.87 9.5,16.94 9.5,17 C9.5,17.26 9.39,17.52 9.21,17.71 C9.11,17.8 9,17.87 8.88,17.92 C8.76,17.97 8.63,18 8.5,18 Z"/>
  <path fill="#292D32" d="M20.5,9.84 L3.5,9.84 C3.09,9.84 2.75,9.5 2.75,9.09 C2.75,8.68 3.09,8.34 3.5,8.34 L20.5,8.34 C20.91,8.34 21.25,8.68 21.25,9.09 C21.25,9.5 20.91,9.84 20.5,9.84 Z"/>
  <path fill="#292D32" d="M15.82,22.78 C15.44,22.78 15.08,22.64 14.82,22.38 C14.51,22.07 14.37,21.62 14.44,21.15 L14.63,19.8 C14.68,19.45 14.89,19.03 15.14,18.78 L18.68,15.24 C19.16,14.76 19.63,14.51 20.14,14.46 C20.77,14.4 21.38,14.66 21.96,15.24 C22.57,15.85 23.39,17.09 21.96,18.52 L18.42,22.06 C18.17,22.31 17.75,22.52 17.4,22.57 L16.049,22.76 C15.97,22.77 15.9,22.78 15.82,22.78 Z M20.31,15.95 C20.3,15.95 20.29,15.95 20.28,15.95 C20.14,15.96 19.95,16.09 19.74,16.3 L16.2,19.84 C16.17,19.87 16.12,19.97 16.12,20.01 L15.94,21.26 L17.19,21.08 C17.23,21.07 17.329,21.02 17.36,20.99 L20.9,17.45 C21.34,17.01 21.4,16.79 20.9,16.29 C20.74,16.14 20.51,15.95 20.31,15.95 Z"/>
  <path fill="#292D32" d="M20.921,19.25 C20.851,19.25 20.781,19.24 20.721,19.22 C19.401,18.85 18.351,17.8 17.981,16.48 C17.871,16.08 18.101,15.67 18.501,15.55 C18.901,15.44 19.311,15.67 19.431,16.07 C19.661,16.89 20.311,17.54 21.131,17.77 C21.531,17.88 21.761,18.3 21.651,18.7 C21.551,19.03 21.251,19.25 20.921,19.25 Z"/>
  <path fill="#292D32" d="M12,22.75 L8,22.75 C4.35,22.75 2.25,20.65 2.25,17 L2.25,8.5 C2.25,4.85 4.35,2.75 8,2.75 L16,2.75 C19.65,2.75 21.75,4.85 21.75,8.5 L21.75,12 C21.75,12.41 21.41,12.75 21,12.75 C20.59,12.75 20.25,12.41 20.25,12 L20.25,8.5 C20.25,5.64 18.86,4.25 16,4.25 L8,4.25 C5.14,4.25 3.75,5.64 3.75,8.5 L3.75,17 C3.75,19.86 5.14,21.25 8,21.25 L12,21.25 C12.41,21.25 12.75,21.59 12.75,22 C12.75,22.41 12.41,22.75 12,22.75 Z"/>
</svg>

