<svg xmlns="http://www.w3.org/2000/svg" width="24" height="24" viewBox="0 0 24 24">
  <defs/>
  <path fill="#292D32" opacity="0.4" d="M20,9.84 C20.55,9.84 21,10.29 21,10.84 L21,17 C21,20 19.5,22 16,22 L8,22 C4.5,22 3,20 3,17 L3,10.84 C3,10.29 3.45,9.84 4,9.84 L20,9.84 Z"/>
  <path fill="#292D32" d="M16.75,3.56 L16.75,2 C16.75,1.59 16.41,1.25 16,1.25 C15.59,1.25 15.25,1.59 15.25,2 L15.25,3.5 L8.75,3.5 L8.75,2 C8.75,1.59 8.41,1.25 8,1.25 C7.59,1.25 7.25,1.59 7.25,2 L7.25,3.56 C4.55,3.81 3.24,5.42 3.04,7.81 C3.02,8.1 3.26,8.34 3.54,8.34 L20.46,8.34 C20.75,8.34 20.99,8.09 20.96,7.81 C20.76,5.42 19.45,3.81 16.75,3.56 Z"/>
  <path fill="#292D32" d="M15.661,18.47 L14.921,17.73 C15.301,17.15 15.531,16.45 15.531,15.7 C15.531,13.66 13.871,12 11.831,12 C9.791,12 8.131,13.66 8.131,15.7 C8.131,17.74 9.791,19.4 11.831,19.4 C12.581,19.4 13.281,19.17 13.861,18.79 L14.601,19.53 C14.751,19.68 14.941,19.75 15.131,19.75 C15.321,19.75 15.511,19.68 15.661,19.53 C15.951,19.24 15.951,18.76 15.661,18.47 Z"/>
</svg>

