<svg xmlns="http://www.w3.org/2000/svg" width="24" height="24" viewBox="0 0 24 24">
  <defs/>
  <path fill="#292D32" d="M8.75,2 L8.75,5 Q8.75,5.311 8.53,5.53 Q8.311,5.75 8,5.75 Q7.689,5.75 7.47,5.53 Q7.25,5.311 7.25,5 L7.25,2 Q7.25,1.689 7.47,1.47 Q7.689,1.25 8,1.25 Q8.311,1.25 8.53,1.47 Q8.75,1.689 8.75,2 Z"/>
  <path fill="#292D32" d="M16.75,2 L16.75,5 Q16.75,5.311 16.53,5.53 Q16.311,5.75 16,5.75 Q15.689,5.75 15.47,5.53 Q15.25,5.311 15.25,5 L15.25,2 Q15.25,1.689 15.47,1.47 Q15.689,1.25 16,1.25 Q16.311,1.25 16.53,1.47 Q16.75,1.689 16.75,2 Z"/>
  <path fill="#292D32" opacity="0.4" d="M3.5,8.34 L20.5,8.34 Q20.811,8.34 21.03,8.56 Q21.25,8.779 21.25,9.09 Q21.25,9.4 21.03,9.62 Q20.811,9.84 20.5,9.84 L3.5,9.84 Q3.189,9.84 2.97,9.62 Q2.75,9.4 2.75,9.09 Q2.75,8.779 2.97,8.56 Q3.189,8.34 3.5,8.34 Z"/>
  <path fill="#292D32" d="M22.75,19 Q22.75,20.332 22.058,21.454 Q20.693,23.75 18,23.75 Q16.2,23.75 14.878,22.566 Q14.315,22.091 13.937,21.446 Q13.25,20.327 13.25,19 Q13.25,17.032 14.641,15.641 Q16.032,14.25 18,14.25 Q20.143,14.25 21.563,15.865 Q22.75,17.224 22.75,19 Z M21.25,19 Q21.25,17.787 20.437,16.855 Q19.465,15.75 18,15.75 Q14.75,15.75 14.75,19 Q14.75,19.907 15.218,20.666 Q15.223,20.674 15.228,20.682 Q15.479,21.112 15.852,21.425 Q15.862,21.434 15.872,21.443 Q16.769,22.25 18,22.25 Q19.84,22.25 20.782,20.666 Q21.25,19.907 21.25,19 Z"/>
  <path fill="#292D32" d="M16.971,18.47 L17.451,18.95 L19.051,17.469 Q19.279,17.258 19.59,17.271 Q19.9,17.283 20.111,17.511 Q20.322,17.739 20.31,18.049 Q20.298,18.36 20.07,18.571 L17.94,20.541 Q17.718,20.746 17.416,20.74 Q17.114,20.734 16.9,20.52 L15.91,19.53 Q15.69,19.311 15.69,19 Q15.69,18.689 15.91,18.47 Q16.13,18.25 16.44,18.25 Q16.751,18.25 16.971,18.47 Z"/>
  <path fill="#292D32" d="M21.75,8.5 L21.75,16.36 Q21.75,16.671 21.53,16.89 Q21.311,17.11 21,17.11 Q20.661,17.11 20.437,16.855 Q19.465,15.75 18,15.75 Q16.375,15.75 15.563,16.562 Q14.75,17.375 14.75,19 Q14.75,19.907 15.218,20.666 Q15.223,20.674 15.228,20.682 Q15.479,21.112 15.852,21.425 Q16.09,21.625 16.117,21.934 Q16.144,22.244 15.945,22.482 Q15.72,22.75 15.37,22.75 L8,22.75 Q2.25,22.75 2.25,17 L2.25,8.5 Q2.25,2.75 8,2.75 L16,2.75 Q21.75,2.75 21.75,8.5 Z M20.25,8.5 Q20.25,4.25 16,4.25 L8,4.25 Q3.75,4.25 3.75,8.5 L3.75,17 Q3.75,21.25 8,21.25 L13.823,21.25 Q13.25,20.212 13.25,19 Q13.25,17.032 14.641,15.641 Q16.032,14.25 18,14.25 Q19.247,14.25 20.25,14.797 Z"/>
  <path fill="#292D32" opacity="0.4" d="M11.995,12.7 L12.005,12.7 Q12.419,12.7 12.712,12.993 Q13.004,13.286 13.004,13.7 Q13.004,14.114 12.712,14.407 Q12.419,14.7 12.005,14.7 L11.995,14.7 Q11.581,14.7 11.288,14.407 Q10.995,14.114 10.995,13.7 Q10.995,13.286 11.288,12.993 Q11.581,12.7 11.995,12.7 Z"/>
  <path fill="#292D32" opacity="0.4" d="M8.294,12.7 L8.303,12.7 Q8.718,12.7 9.01,12.993 Q9.303,13.286 9.303,13.7 Q9.303,14.114 9.01,14.407 Q8.718,14.7 8.303,14.7 L8.294,14.7 Q7.88,14.7 7.587,14.407 Q7.294,14.114 7.294,13.7 Q7.294,13.286 7.587,12.993 Q7.88,12.7 8.294,12.7 Z"/>
  <path fill="#292D32" opacity="0.4" d="M8.295,15.7 L8.304,15.7 Q8.718,15.7 9.011,15.993 Q9.304,16.286 9.304,16.7 Q9.304,17.114 9.011,17.407 Q8.718,17.7 8.304,17.7 L8.295,17.7 Q7.881,17.7 7.588,17.407 Q7.295,17.114 7.295,16.7 Q7.295,16.286 7.588,15.993 Q7.881,15.7 8.295,15.7 Z"/>
</svg>

