<svg xmlns="http://www.w3.org/2000/svg" width="24" height="24" viewBox="0 0 24 24">
  <defs/>
  <path fill="#292D32" d="M12,2 C6.48,2 2,6.48 2,12 C2,17.52 6.48,22 12,22 C17.52,22 22,17.52 22,12 C22,6.48 17.52,2 12,2 Z M6.85,9.44 C7.27,8.47 8.06,7.72 9.15,7.38 L9.15,6.58 C9.15,6.17 9.49,5.83 9.9,5.83 C10.31,5.83 10.65,6.17 10.65,6.58 L10.65,7.17 L13.36,7.17 L13.36,6.58 C13.36,6.17 13.7,5.83 14.11,5.83 C14.52,5.83 14.86,6.17 14.86,6.58 L14.86,7.37 C15.95,7.71 16.74,8.46 17.16,9.43 C17.3,9.76 17.06,10.14 16.7,10.14 L7.31,10.14 C6.95,10.14 6.71,9.77 6.85,9.44 Z M17.5,14.17 C17.5,16.37 16,18.17 13.5,18.17 L10.5,18.17 C8,18.17 6.5,16.37 6.5,14.17 L6.5,11.64 C6.5,11.36 6.72,11.14 7,11.14 L17,11.14 C17.28,11.14 17.5,11.36 17.5,11.64 L17.5,14.17 Z"/>
</svg>

