<svg xmlns="http://www.w3.org/2000/svg" width="24" height="24" viewBox="0 0 24 24">
  <defs/>
  <path fill="#292D32" d="M8,5.75 C7.59,5.75 7.25,5.41 7.25,5 L7.25,2 C7.25,1.59 7.59,1.25 8,1.25 C8.41,1.25 8.75,1.59 8.75,2 L8.75,5 C8.75,5.41 8.41,5.75 8,5.75 Z"/>
  <path fill="#292D32" d="M16,5.75 C15.59,5.75 15.25,5.41 15.25,5 L15.25,2 C15.25,1.59 15.59,1.25 16,1.25 C16.41,1.25 16.75,1.59 16.75,2 L16.75,5 C16.75,5.41 16.41,5.75 16,5.75 Z"/>
  <path fill="#292D32" d="M20.5,9.84 L3.5,9.84 C3.09,9.84 2.75,9.5 2.75,9.09 C2.75,8.68 3.09,8.34 3.5,8.34 L20.5,8.34 C20.91,8.34 21.25,8.68 21.25,9.09 C21.25,9.5 20.91,9.84 20.5,9.84 Z"/>
  <path fill="#292D32" d="M16,22.75 L8,22.75 C4.35,22.75 2.25,20.65 2.25,17 L2.25,8.5 C2.25,4.85 4.35,2.75 8,2.75 L16,2.75 C19.65,2.75 21.75,4.85 21.75,8.5 L21.75,17 C21.75,20.65 19.65,22.75 16,22.75 Z M8,4.25 C5.14,4.25 3.75,5.64 3.75,8.5 L3.75,17 C3.75,19.86 5.14,21.25 8,21.25 L16,21.25 C18.86,21.25 20.25,19.86 20.25,17 L20.25,8.5 C20.25,5.64 18.86,4.25 16,4.25 L8,4.25 Z"/>
  <path fill="#292D32" d="M8.5,14.5 C8.37,14.5 8.24,14.47 8.12,14.42 C8,14.37 7.89,14.3 7.79,14.21 C7.7,14.11 7.63,14 7.58,13.88 C7.53,13.76 7.5,13.63 7.5,13.5 C7.5,13.24 7.61,12.98 7.79,12.79 C7.89,12.7 8,12.63 8.12,12.58 C8.3,12.5 8.5,12.48 8.7,12.52 C8.76,12.53 8.82,12.55 8.88,12.58 C8.94,12.6 9,12.63 9.06,12.67 C9.11,12.71 9.16,12.75 9.21,12.79 C9.25,12.84 9.3,12.89 9.33,12.94 C9.37,13 9.4,13.06 9.42,13.12 C9.45,13.18 9.47,13.24 9.48,13.3 C9.49,13.37 9.5,13.43 9.5,13.5 C9.5,13.76 9.39,14.02 9.21,14.21 C9.02,14.39 8.76,14.5 8.5,14.5 Z"/>
  <path fill="#292D32" d="M12,14.5 C11.74,14.5 11.48,14.39 11.29,14.21 C11.25,14.16 11.21,14.11 11.17,14.06 C11.13,14 11.1,13.94 11.08,13.88 C11.05,13.82 11.03,13.76 11.02,13.7 C11.01,13.63 11,13.57 11,13.5 C11,13.37 11.03,13.24 11.08,13.12 C11.13,13 11.2,12.89 11.29,12.79 C11.57,12.51 12.02,12.42 12.38,12.58 C12.51,12.63 12.61,12.7 12.71,12.79 C12.89,12.98 13,13.24 13,13.5 C13,13.57 12.99,13.63 12.98,13.7 C12.97,13.76 12.95,13.82 12.92,13.88 C12.9,13.94 12.87,14 12.83,14.06 C12.79,14.11 12.75,14.16 12.71,14.21 C12.61,14.3 12.51,14.37 12.38,14.42 C12.26,14.47 12.13,14.5 12,14.5 Z"/>
  <path fill="#292D32" d="M8.5,18 C8.37,18 8.24,17.97 8.12,17.92 C8,17.87 7.89,17.8 7.79,17.71 C7.7,17.61 7.63,17.51 7.58,17.38 C7.53,17.26 7.5,17.13 7.5,17 C7.5,16.74 7.61,16.48 7.79,16.29 C7.89,16.2 8,16.13 8.12,16.08 C8.49,15.92 8.93,16.01 9.21,16.29 C9.25,16.34 9.3,16.39 9.33,16.44 C9.37,16.5 9.4,16.56 9.42,16.62 C9.45,16.68 9.47,16.74 9.48,16.81 C9.49,16.87 9.5,16.94 9.5,17 C9.5,17.26 9.39,17.52 9.21,17.71 C9.02,17.89 8.76,18 8.5,18 Z"/>
</svg>

