<svg xmlns="http://www.w3.org/2000/svg" width="24" height="24" viewBox="0 0 24 24">
  <defs/>
  <path fill="#292D32" d="M8,5.75 C7.59,5.75 7.25,5.41 7.25,5 L7.25,2 C7.25,1.59 7.59,1.25 8,1.25 C8.41,1.25 8.75,1.59 8.75,2 L8.75,5 C8.75,5.41 8.41,5.75 8,5.75 Z"/>
  <path fill="#292D32" d="M16,5.75 C15.59,5.75 15.25,5.41 15.25,5 L15.25,2 C15.25,1.59 15.59,1.25 16,1.25 C16.41,1.25 16.75,1.59 16.75,2 L16.75,5 C16.75,5.41 16.41,5.75 16,5.75 Z"/>
  <path fill="#292D32" d="M8.5,14.5 C8.24,14.5 7.98,14.39 7.79,14.21 C7.75,14.16 7.7,14.11 7.67,14.06 C7.63,14 7.6,13.94 7.58,13.88 C7.55,13.82 7.53,13.76 7.52,13.7 C7.51,13.63 7.5,13.56 7.5,13.5 C7.5,13.24 7.61,12.98 7.79,12.79 C8.16,12.42 8.83,12.42 9.21,12.79 C9.39,12.98 9.5,13.24 9.5,13.5 C9.5,13.56 9.49,13.63 9.48,13.7 C9.47,13.76 9.45,13.82 9.42,13.88 C9.4,13.94 9.37,14 9.33,14.06 C9.29,14.11 9.25,14.16 9.21,14.21 C9.02,14.39 8.76,14.5 8.5,14.5 Z"/>
  <path fill="#292D32" d="M12,14.5 C11.87,14.5 11.74,14.47 11.62,14.42 C11.49,14.37 11.38,14.3 11.29,14.21 C11.25,14.16 11.2,14.11 11.17,14.06 C11.13,14 11.1,13.94 11.08,13.88 C11.05,13.82 11.03,13.76 11.02,13.7 C11.01,13.63 11,13.56 11,13.5 C11,13.24 11.11,12.98 11.29,12.79 C11.38,12.7 11.49,12.63 11.62,12.58 C11.98,12.42 12.43,12.51 12.71,12.79 C12.89,12.98 13,13.24 13,13.5 C13,13.56 12.99,13.63 12.98,13.7 C12.97,13.76 12.95,13.82 12.92,13.88 C12.9,13.94 12.87,14 12.83,14.06 C12.79,14.11 12.75,14.16 12.71,14.21 C12.52,14.39 12.26,14.5 12,14.5 Z"/>
  <path fill="#292D32" d="M8.5,18 C8.23,18 7.98,17.89 7.79,17.71 C7.61,17.52 7.5,17.26 7.5,17 C7.5,16.74 7.61,16.48 7.79,16.29 C7.84,16.25 7.89,16.2 7.94,16.17 C8,16.13 8.06,16.1 8.12,16.08 C8.18,16.05 8.24,16.03 8.3,16.02 C8.5,15.98 8.7,16 8.88,16.08 C9.01,16.13 9.11,16.2 9.21,16.29 C9.39,16.48 9.5,16.74 9.5,17 C9.5,17.26 9.39,17.52 9.21,17.71 C9.11,17.8 9.01,17.87 8.88,17.92 C8.76,17.97 8.63,18 8.5,18 Z"/>
  <path fill="#292D32" d="M20.5,9.84 L3.5,9.84 C3.09,9.84 2.75,9.5 2.75,9.09 C2.75,8.68 3.09,8.34 3.5,8.34 L20.5,8.34 C20.91,8.34 21.25,8.68 21.25,9.09 C21.25,9.5 20.91,9.84 20.5,9.84 Z"/>
  <path fill="#292D32" d="M18,23.75 C15.38,23.75 13.25,21.62 13.25,19 C13.25,16.38 15.38,14.25 18,14.25 C20.62,14.25 22.75,16.38 22.75,19 C22.75,21.62 20.62,23.75 18,23.75 Z M18,15.75 C16.21,15.75 14.75,17.21 14.75,19 C14.75,20.79 16.21,22.25 18,22.25 C19.79,22.25 21.25,20.79 21.25,19 C21.25,17.21 19.79,15.75 18,15.75 Z"/>
  <path fill="#292D32" d="M19.07,20.86 C18.88,20.86 18.69,20.79 18.54,20.64 L16.43,18.53 C16.14,18.24 16.14,17.76 16.43,17.47 C16.72,17.18 17.2,17.18 17.49,17.47 L19.6,19.58 C19.89,19.87 19.89,20.35 19.6,20.64 C19.45,20.79 19.26,20.86 19.07,20.86 Z"/>
  <path fill="#292D32" d="M16.93,20.89 C16.74,20.89 16.55,20.82 16.4,20.67 C16.11,20.38 16.11,19.9 16.4,19.61 L18.51,17.5 C18.8,17.21 19.28,17.21 19.57,17.5 C19.86,17.79 19.86,18.27 19.57,18.56 L17.46,20.67 C17.31,20.81 17.12,20.89 16.93,20.89 Z"/>
  <path fill="#292D32" d="M15.37,22.75 L8,22.75 C4.35,22.75 2.25,20.65 2.25,17 L2.25,8.5 C2.25,4.85 4.35,2.75 8,2.75 L16,2.75 C19.65,2.75 21.75,4.85 21.75,8.5 L21.75,16.36 C21.75,16.67 21.56,16.95 21.26,17.06 C20.97,17.17 20.64,17.09 20.43,16.85 C19.81,16.15 18.92,15.75 17.99,15.75 C16.2,15.75 14.74,17.21 14.74,19 C14.74,19.59 14.9,20.17 15.21,20.67 C15.38,20.97 15.6,21.22 15.84,21.43 C16.08,21.63 16.17,21.96 16.06,22.26 C15.97,22.55 15.69,22.75 15.37,22.75 Z M8,4.25 C5.14,4.25 3.75,5.64 3.75,8.5 L3.75,17 C3.75,19.86 5.14,21.25 8,21.25 L13.82,21.25 C13.45,20.57 13.25,19.8 13.25,19 C13.25,16.38 15.38,14.25 18,14.25 C18.79,14.25 19.57,14.45 20.25,14.82 L20.25,8.5 C20.25,5.64 18.86,4.25 16,4.25 L8,4.25 Z"/>
</svg>

