<svg xmlns="http://www.w3.org/2000/svg" width="24" height="24" viewBox="0 0 24 24">
  <defs/>
  <path fill="#292D32" opacity="0.4" d="M12,22 C17.523,22 22,17.523 22,12 C22,6.477 17.523,2 12,2 C6.477,2 2,6.477 2,12 C2,17.523 6.477,22 12,22 Z"/>
  <path fill="#292D32" d="M17.149,9.44 C16.729,8.47 15.939,7.72 14.849,7.38 L14.849,6.59 C14.849,6.18 14.509,5.84 14.099,5.84 C13.689,5.84 13.349,6.18 13.349,6.59 L13.349,7.18 L10.639,7.18 L10.639,6.59 C10.639,6.18 10.299,5.84 9.889,5.84 C9.479,5.84 9.139,6.18 9.139,6.59 L9.139,7.38 C8.049,7.72 7.259,8.47 6.839,9.44 C6.699,9.77 6.939,10.15 7.299,10.15 L16.669,10.15 C17.049,10.14 17.289,9.77 17.149,9.44 Z"/>
  <path fill="#292D32" d="M17,11.14 C17.28,11.14 17.5,11.36 17.5,11.64 L17.5,14.17 C17.5,16.37 16,18.17 13.5,18.17 L10.5,18.17 C8,18.17 6.5,16.37 6.5,14.17 L6.5,11.64 C6.5,11.36 6.72,11.14 7,11.14 L17,11.14 Z"/>
</svg>

