<svg xmlns="http://www.w3.org/2000/svg" width="24" height="24" viewBox="0 0 24 24">
  <defs/>
  <path fill="#292D32" d="M16.75,3.56 L16.75,2 C16.75,1.59 16.41,1.25 16,1.25 C15.59,1.25 15.25,1.59 15.25,2 L15.25,3.5 L8.75,3.5 L8.75,2 C8.75,1.59 8.41,1.25 8,1.25 C7.59,1.25 7.25,1.59 7.25,2 L7.25,3.56 C4.55,3.81 3.24,5.42 3.04,7.81 C3.02,8.1 3.26,8.34 3.54,8.34 L20.46,8.34 C20.75,8.34 20.99,8.09 20.96,7.81 C20.76,5.42 19.45,3.81 16.75,3.56 Z"/>
  <path fill="#292D32" d="M20,9.84 L4,9.84 C3.45,9.84 3,10.29 3,10.84 L3,17 C3,20 4.5,22 8,22 L16,22 C19.5,22 21,20 21,17 L21,10.84 C21,10.29 20.55,9.84 20,9.84 Z M14.84,14.99 L14.34,15.5 L14.33,15.5 L11.3,18.53 C11.17,18.66 10.9,18.8 10.71,18.82 L9.36,19.02 C8.87,19.09 8.53,18.74 8.6,18.26 L8.79,16.9 C8.82,16.71 8.95,16.45 9.08,16.31 L12.12,13.28 L12.62,12.77 C12.95,12.44 13.32,12.2 13.72,12.2 C14.06,12.2 14.43,12.36 14.84,12.77 C15.74,13.67 15.45,14.38 14.84,14.99 Z"/>
</svg>

