<svg xmlns="http://www.w3.org/2000/svg" width="24" height="24" viewBox="0 0 24 24">
  <defs/>
  <path fill="#292D32" d="M16.75,3.56 L16.75,2 C16.75,1.59 16.41,1.25 16,1.25 C15.59,1.25 15.25,1.59 15.25,2 L15.25,3.5 L8.75,3.5 L8.75,2 C8.75,1.59 8.41,1.25 8,1.25 C7.59,1.25 7.25,1.59 7.25,2 L7.25,3.56 C4.55,3.81 3.24,5.42 3.04,7.81 C3.02,8.1 3.26,8.34 3.54,8.34 L20.46,8.34 C20.75,8.34 20.99,8.09 20.96,7.81 C20.76,5.42 19.45,3.81 16.75,3.56 Z"/>
  <path fill="#292D32" d="M20,9.84 L4,9.84 C3.45,9.84 3,10.29 3,10.84 L3,17 C3,20 4.5,22 8,22 L12.93,22 C13.62,22 14.1,21.33 13.88,20.68 C13.68,20.1 13.51,19.46 13.51,19 C13.51,15.97 15.98,13.5 19.01,13.5 C19.3,13.5 19.59,13.52 19.87,13.57 C20.47,13.66 21.01,13.19 21.01,12.59 L21.01,10.85 C21,10.29 20.55,9.84 20,9.84 Z M9.21,17.71 C9.11,17.8 9,17.87 8.88,17.92 C8.76,17.97 8.63,18 8.5,18 C8.37,18 8.24,17.97 8.12,17.92 C8,17.87 7.89,17.8 7.79,17.71 C7.61,17.52 7.5,17.26 7.5,17 C7.5,16.94 7.51,16.87 7.52,16.81 C7.53,16.74 7.55,16.68 7.58,16.62 C7.6,16.56 7.63,16.5 7.67,16.44 C7.7,16.39 7.75,16.34 7.79,16.29 C7.89,16.2 8,16.13 8.12,16.08 C8.36,15.98 8.64,15.98 8.88,16.08 C9,16.13 9.11,16.2 9.21,16.29 C9.25,16.34 9.3,16.39 9.33,16.44 C9.37,16.5 9.4,16.56 9.42,16.62 C9.45,16.68 9.47,16.74 9.48,16.81 C9.49,16.87 9.5,16.94 9.5,17 C9.5,17.26 9.39,17.52 9.21,17.71 Z M9.21,14.21 C9.11,14.3 9,14.37 8.88,14.42 C8.76,14.47 8.63,14.5 8.5,14.5 C8.37,14.5 8.24,14.47 8.12,14.42 C7.99,14.37 7.89,14.3 7.79,14.21 C7.61,14.02 7.5,13.76 7.5,13.5 C7.5,13.24 7.61,12.98 7.79,12.79 C7.89,12.7 8,12.63 8.12,12.58 C8.36,12.48 8.64,12.48 8.88,12.58 C9,12.63 9.11,12.7 9.21,12.79 C9.25,12.84 9.3,12.89 9.33,12.94 C9.37,13 9.4,13.06 9.42,13.12 C9.45,13.18 9.47,13.24 9.48,13.3 C9.49,13.37 9.5,13.44 9.5,13.5 C9.5,13.76 9.39,14.02 9.21,14.21 Z M12.71,14.21 C12.52,14.39 12.27,14.5 12,14.5 C11.87,14.5 11.74,14.47 11.62,14.42 C11.49,14.37 11.39,14.3 11.29,14.21 C11.11,14.02 11,13.76 11,13.5 C11,13.44 11.01,13.37 11.02,13.3 C11.03,13.24 11.05,13.18 11.08,13.12 C11.1,13.06 11.13,13 11.17,12.94 C11.21,12.89 11.25,12.84 11.29,12.79 C11.66,12.42 12.33,12.42 12.71,12.79 C12.75,12.84 12.79,12.89 12.83,12.94 C12.87,13 12.9,13.06 12.92,13.12 C12.95,13.18 12.97,13.24 12.98,13.3 C12.99,13.37 13,13.44 13,13.5 C13,13.76 12.89,14.02 12.71,14.21 Z"/>
  <path fill="#292D32" d="M21.83,16.17 C20.27,14.61 17.73,14.61 16.17,16.17 C14.61,17.73 14.61,20.27 16.17,21.83 C17.73,23.39 20.27,23.39 21.83,21.83 C23.39,20.27 23.39,17.73 21.83,16.17 Z M21.07,19.56 C20.94,19.7 20.75,19.78 20.54,19.78 L19.8,19.78 L19.8,20.56 C19.8,20.77 19.72,20.95 19.58,21.09 C19.44,21.23 19.26,21.31 19.05,21.31 C18.64,21.31 18.3,20.97 18.3,20.56 L18.3,19.78 L17.55,19.78 C17.14,19.78 16.8,19.45 16.8,19.03 C16.8,18.62 17.14,18.28 17.55,18.28 L18.3,18.28 L18.3,17.57 C18.3,17.16 18.63,16.82 19.05,16.82 C19.46,16.82 19.8,17.16 19.8,17.57 L19.8,18.28 L20.54,18.28 C20.96,18.28 21.29,18.62 21.29,19.03 C21.29,19.24 21.21,19.43 21.07,19.56 Z"/>
</svg>

