<svg xmlns="http://www.w3.org/2000/svg" width="24" height="24" viewBox="0 0 24 24">
  <defs/>
  <path fill="#292D32" d="M10.641,5.83 L10.641,7.83 Q10.641,8.141 10.421,8.36 Q10.201,8.58 9.891,8.58 Q9.58,8.58 9.36,8.36 Q9.141,8.141 9.141,7.83 L9.141,5.83 Q9.141,5.519 9.36,5.3 Q9.58,5.08 9.891,5.08 Q10.201,5.08 10.421,5.3 Q10.641,5.519 10.641,5.83 Z"/>
  <path fill="#292D32" d="M14.859,5.83 L14.859,7.83 Q14.859,8.141 14.64,8.36 Q14.42,8.58 14.109,8.58 Q13.799,8.58 13.579,8.36 Q13.359,8.141 13.359,7.83 L13.359,5.83 Q13.359,5.519 13.579,5.3 Q13.799,5.08 14.109,5.08 Q14.42,5.08 14.64,5.3 Q14.859,5.519 14.859,5.83 Z"/>
  <path fill="#292D32" d="M7.529,9.39 L16.469,9.39 Q16.78,9.39 17,9.61 Q17.219,9.829 17.219,10.14 Q17.219,10.451 17,10.67 Q16.78,10.89 16.469,10.89 L7.529,10.89 Q7.219,10.89 6.999,10.67 Q6.779,10.451 6.779,10.14 Q6.779,9.829 6.999,9.61 Q7.219,9.39 7.529,9.39 Z"/>
  <path fill="#292D32" d="M13.5,18.42 L10.5,18.42 Q5.75,18.42 5.75,13.67 L5.75,10.67 Q5.75,5.92 10.5,5.92 L13.5,5.92 Q18.25,5.92 18.25,10.67 L18.25,13.67 Q18.25,18.42 13.5,18.42 Z M13.5,16.92 Q16.75,16.92 16.75,13.67 L16.75,10.67 Q16.75,7.42 13.5,7.42 L10.5,7.42 Q7.25,7.42 7.25,10.67 L7.25,13.67 Q7.25,16.92 10.5,16.92 Z"/>
  <path fill="#292D32" d="M4.6,6.449 Q2.75,8.922 2.75,12 Q2.75,15.829 5.46,18.54 Q8.171,21.25 12,21.25 Q15.829,21.25 18.54,18.54 Q21.25,15.829 21.25,12 Q21.25,8.171 18.54,5.46 Q15.829,2.75 12,2.75 Q10.031,2.75 8.276,3.535 Q7.993,3.661 7.702,3.551 Q7.412,3.44 7.285,3.156 Q7.159,2.873 7.269,2.582 Q7.38,2.292 7.664,2.165 Q9.711,1.25 12,1.25 Q16.451,1.25 19.6,4.4 Q22.75,7.549 22.75,12 Q22.75,16.451 19.6,19.6 Q16.451,22.75 12,22.75 Q7.549,22.75 4.4,19.6 Q1.25,16.451 1.25,12 Q1.25,8.422 3.4,5.551 Q3.586,5.302 3.893,5.258 Q4.201,5.213 4.449,5.4 Q4.698,5.586 4.742,5.893 Q4.787,6.201 4.6,6.449 Z"/>
</svg>

