<svg xmlns="http://www.w3.org/2000/svg" width="24" height="24" viewBox="0 0 24 24">
  <defs/>
  <path fill="#292D32" d="M16.75,3.56 L16.75,2 C16.75,1.59 16.41,1.25 16,1.25 C15.59,1.25 15.25,1.59 15.25,2 L15.25,3.5 L8.75,3.5 L8.75,2 C8.75,1.59 8.41,1.25 8,1.25 C7.59,1.25 7.25,1.59 7.25,2 L7.25,3.56 C4.55,3.81 3.24,5.42 3.04,7.81 C3.02,8.1 3.26,8.34 3.54,8.34 L20.46,8.34 C20.75,8.34 20.99,8.09 20.96,7.81 C20.76,5.42 19.45,3.81 16.75,3.56 Z"/>
  <path fill="#292D32" d="M20,9.84 L4,9.84 C3.45,9.84 3,10.29 3,10.84 L3,17 C3,20 4.5,22 8,22 L16,22 C19.5,22 21,20 21,17 L21,10.84 C21,10.29 20.55,9.84 20,9.84 Z M15.66,19.53 C15.51,19.68 15.32,19.75 15.13,19.75 C14.94,19.75 14.75,19.68 14.6,19.53 L13.86,18.79 C13.28,19.17 12.58,19.4 11.83,19.4 C9.79,19.4 8.13,17.74 8.13,15.7 C8.13,13.66 9.79,12 11.83,12 C13.87,12 15.53,13.66 15.53,15.7 C15.53,16.45 15.3,17.15 14.92,17.73 L15.66,18.47 C15.95,18.76 15.95,19.24 15.66,19.53 Z"/>
</svg>

