<svg xmlns="http://www.w3.org/2000/svg" width="24" height="24" viewBox="0 0 24 24">
  <defs/>
  <path fill="#292D32" d="M22,18.329 C22,18.689 21.921,19.059 21.75,19.419 C21.581,19.779 21.36,20.119 21.07,20.439 C20.581,20.979 20.041,21.369 19.43,21.619 C18.831,21.869 18.171,21.999 17.471,21.999 C16.451,21.999 15.361,21.759 14.21,21.269 C13.06,20.779 11.9,20.119 10.761,19.289 C10.181,18.859 9.611,18.419 9.061,17.939 L12.32,14.679 C12.331,14.679 12.331,14.679 12.341,14.689 C12.861,15.129 13.29,15.429 13.63,15.609 C13.681,15.629 13.741,15.659 13.81,15.689 C13.89,15.719 13.97,15.729 14.06,15.729 C14.23,15.729 14.361,15.669 14.47,15.559 L15.23,14.809 C15.48,14.559 15.72,14.369 15.95,14.249 C16.18,14.109 16.41,14.039 16.66,14.039 C16.851,14.039 17.05,14.079 17.27,14.169 C17.491,14.259 17.721,14.389 17.971,14.559 L21.291,16.909 C21.55,17.089 21.73,17.299 21.84,17.549 C21.941,17.799 22,18.049 22,18.329 Z"/>
  <path fill="#292D32" d="M10.76,13.24 L7.5,16.5 C7.49,16.5 7.49,16.5 7.48,16.49 C6.45,15.45 5.52,14.36 4.68,13.22 C3.87,12.1 3.22,10.97 2.74,9.86 C2.73,9.84 2.73,9.83 2.72,9.81 C2.24,8.67 2,7.58 2,6.54 C2,5.86 2.12,5.21 2.36,4.61 C2.56,4.1 2.86,3.62 3.27,3.19 C3.34,3.11 3.42,3.02 3.51,2.94 C3.67,2.78 3.83,2.64 4,2.53 C4.01,2.53 4.01,2.53 4.01,2.53 C4.51,2.17 5.04,2 5.6,2 C5.88,2 6.16,2.06 6.41,2.18 C6.65,2.29 6.86,2.45 7.03,2.68 C7.05,2.7 7.06,2.72 7.08,2.74 L9.4,6.01 C9.58,6.26 9.71,6.49 9.8,6.71 C9.89,6.92 9.94,7.13 9.94,7.32 C9.94,7.56 9.87,7.8 9.73,8.03 C9.6,8.26 9.41,8.5 9.17,8.74 L8.41,9.53 C8.3,9.64 8.25,9.77 8.25,9.93 C8.25,10.01 8.26,10.08 8.28,10.16 C8.31,10.24 8.34,10.3 8.36,10.36 C8.54,10.69 8.85,11.12 9.29,11.64 C9.74,12.16 10.22,12.69 10.74,13.22 C10.75,13.23 10.75,13.23 10.76,13.24 Z"/>
  <path fill="#292D32" d="M21.771,2.229 C21.471,1.929 20.981,1.929 20.681,2.229 L2.231,20.689 C1.931,20.989 1.931,21.479 2.231,21.779 C2.381,21.919 2.571,21.999 2.771,21.999 C2.971,21.999 3.161,21.919 3.311,21.769 L21.771,3.309 C22.081,3.009 22.081,2.529 21.771,2.229 Z"/>
</svg>

