<svg xmlns="http://www.w3.org/2000/svg" width="24" height="24" viewBox="0 0 24 24">
  <defs/>
  <path fill="#292D32" d="M20.999,8.55 L16.199,8.55 C15.789,8.55 15.449,8.21 15.449,7.8 L15.449,3 C15.449,2.59 15.789,2.25 16.199,2.25 C16.609,2.25 16.949,2.59 16.949,3 L16.949,7.05 L20.999,7.05 C21.409,7.05 21.749,7.39 21.749,7.8 C21.749,8.21 21.409,8.55 20.999,8.55 Z"/>
  <path fill="#292D32" d="M11.05,14.95 L9.2,16.8 C8.81,17.19 8.19,17.19 7.79,16.81 C7.68,16.7 7.57,16.6 7.46,16.49 C6.43,15.45 5.5,14.36 4.67,13.22 C3.85,12.08 3.19,10.94 2.71,9.81 C2.24,8.67 2,7.58 2,6.54 C2,5.86 2.12,5.21 2.36,4.61 C2.6,4 2.98,3.44 3.51,2.94 C4.15,2.31 4.85,2 5.59,2 C5.87,2 6.15,2.06 6.4,2.18 C6.66,2.3 6.89,2.48 7.07,2.74 L9.39,6.01 C9.57,6.26 9.7,6.49 9.79,6.71 C9.88,6.92 9.93,7.13 9.93,7.32 C9.93,7.56 9.86,7.8 9.72,8.03 C9.59,8.26 9.4,8.5 9.16,8.74 L8.4,9.53 C8.29,9.64 8.24,9.77 8.24,9.93 C8.24,10.01 8.25,10.08 8.27,10.16 C8.3,10.24 8.33,10.3 8.35,10.36 C8.53,10.69 8.84,11.12 9.28,11.64 C9.73,12.16 10.21,12.69 10.73,13.22 C10.83,13.32 10.94,13.42 11.04,13.52 C11.44,13.91 11.45,14.55 11.05,14.95 Z"/>
  <path fill="#292D32" d="M21.97,18.329 C21.97,18.609 21.92,18.899 21.82,19.179 C21.79,19.259 21.76,19.339 21.72,19.419 C21.55,19.779 21.33,20.119 21.04,20.439 C20.55,20.979 20.01,21.369 19.4,21.619 C19.39,21.619 19.38,21.629 19.37,21.629 C18.78,21.869 18.14,21.999 17.45,21.999 C16.43,21.999 15.34,21.759 14.19,21.269 C13.04,20.779 11.89,20.119 10.75,19.289 C10.36,18.999 9.97,18.709 9.6,18.399 L12.87,15.129 C13.15,15.339 13.4,15.499 13.61,15.609 C13.66,15.629 13.72,15.659 13.79,15.689 C13.87,15.719 13.95,15.729 14.04,15.729 C14.21,15.729 14.34,15.669 14.45,15.559 L15.21,14.809 C15.46,14.559 15.7,14.369 15.93,14.249 C16.16,14.109 16.39,14.039 16.64,14.039 C16.83,14.039 17.03,14.079 17.25,14.169 C17.47,14.259 17.7,14.389 17.95,14.559 L21.26,16.909 C21.52,17.089 21.7,17.299 21.81,17.549 C21.91,17.799 21.97,18.049 21.97,18.329 Z"/>
</svg>

