<svg xmlns="http://www.w3.org/2000/svg" width="24" height="24" viewBox="0 0 24 24">
  <defs/>
  <path fill="#292D32" d="M22.72,18.33 Q22.72,19.059 22.398,19.74 Q22.085,20.404 21.596,20.944 Q20.748,21.878 19.684,22.314 Q18.638,22.75 17.45,22.75 Q15.75,22.75 13.896,21.96 Q12.08,21.186 10.309,19.896 Q8.537,18.602 6.942,17.023 Q5.352,15.417 4.074,13.661 Q2.773,11.853 2.03,10.103 Q1.25,8.251 1.25,6.54 Q1.25,5.366 1.664,4.331 Q2.09,3.249 2.995,2.394 Q4.158,1.25 5.59,1.25 Q6.196,1.25 6.725,1.504 Q7.315,1.776 7.687,2.313 L10.002,5.576 Q10.314,6.009 10.484,6.426 Q10.68,6.883 10.68,7.32 Q10.68,7.89 10.367,8.409 Q10.122,8.838 9.69,9.27 L9.007,9.981 Q9.021,10.015 9.033,10.044 Q9.279,10.478 9.853,11.156 Q10.581,11.997 11.265,12.695 Q12.142,13.555 12.805,14.118 Q13.471,14.682 13.934,14.933 Q13.96,14.944 13.992,14.958 L14.683,14.276 Q15.135,13.824 15.561,13.597 Q16.076,13.29 16.64,13.29 Q17.08,13.29 17.534,13.476 Q17.924,13.635 18.372,13.94 L21.694,16.298 Q22.247,16.681 22.496,17.248 L22.502,17.26 L22.506,17.271 Q22.72,17.806 22.72,18.33 Z M21.22,18.33 Q21.22,18.1 21.119,17.842 Q21.039,17.669 20.826,17.522 L17.528,15.18 Q17.211,14.964 16.966,14.864 Q16.785,14.79 16.64,14.79 Q16.485,14.79 16.32,14.891 L16.299,14.904 L16.277,14.915 Q16.044,15.036 15.737,15.344 L14.98,16.09 Q14.591,16.48 14.04,16.48 Q13.761,16.48 13.527,16.392 L13.51,16.386 L13.495,16.379 Q13.454,16.362 13.387,16.331 Q13.341,16.31 13.331,16.306 L13.294,16.292 L13.259,16.273 Q12.646,15.948 11.835,15.262 Q11.13,14.664 10.195,13.745 Q9.477,13.014 8.707,12.124 Q8.006,11.295 7.692,10.719 L7.66,10.661 L7.638,10.597 Q7.637,10.593 7.62,10.552 Q7.587,10.475 7.568,10.423 L7.553,10.383 L7.542,10.342 Q7.49,10.132 7.49,9.93 Q7.49,9.379 7.86,9.01 L8.63,8.21 Q8.922,7.917 9.067,7.661 L9.073,7.65 L9.079,7.64 Q9.18,7.475 9.18,7.32 Q9.18,7.191 9.096,6.994 Q8.993,6.742 8.778,6.444 L6.453,3.167 Q6.315,2.967 6.075,2.856 Q5.854,2.75 5.59,2.75 Q4.772,2.75 4.025,3.486 Q3.363,4.11 3.056,4.889 Q2.75,5.654 2.75,6.54 Q2.75,7.949 3.41,9.517 Q4.088,11.113 5.286,12.779 Q6.498,14.443 7.998,15.957 Q9.513,17.457 11.191,18.684 Q12.825,19.873 14.484,20.58 Q16.056,21.25 17.45,21.25 Q18.338,21.25 19.116,20.926 Q19.865,20.619 20.484,19.936 Q20.824,19.562 21.042,19.1 Q21.22,18.722 21.22,18.33 Z"/>
  <path fill="#292D32" d="M20.75,4 L20.75,8.8 Q20.75,9.111 20.53,9.33 Q20.311,9.55 20,9.55 Q19.689,9.55 19.47,9.33 Q19.25,9.111 19.25,8.8 L19.25,4.75 L15.2,4.75 Q14.889,4.75 14.67,4.53 Q14.45,4.311 14.45,4 Q14.45,3.689 14.67,3.47 Q14.889,3.25 15.2,3.25 L20,3.25 Q20.311,3.25 20.53,3.47 Q20.75,3.689 20.75,4 Z"/>
</svg>

