<svg xmlns="http://www.w3.org/2000/svg" width="24" height="24" viewBox="0 0 24 24">
  <defs/>
  <path fill="#292D32" d="M22,18.33 C22,18.69 21.921,19.06 21.75,19.42 C21.581,19.78 21.36,20.12 21.07,20.44 C20.581,20.98 20.041,21.37 19.43,21.62 C18.831,21.87 18.171,22 17.471,22 C16.451,22 15.361,21.76 14.21,21.27 C13.06,20.78 11.9,20.12 10.761,19.29 C10.181,18.86 9.611,18.42 9.061,17.94 L12.32,14.68 C12.331,14.68 12.331,14.68 12.341,14.69 C12.861,15.13 13.29,15.43 13.63,15.61 C13.681,15.63 13.741,15.66 13.81,15.69 C13.89,15.72 13.97,15.73 14.06,15.73 C14.23,15.73 14.361,15.67 14.47,15.56 L15.23,14.81 C15.48,14.56 15.72,14.37 15.95,14.25 C16.18,14.11 16.41,14.04 16.66,14.04 C16.851,14.04 17.05,14.08 17.27,14.17 C17.491,14.26 17.721,14.39 17.971,14.56 L21.291,16.91 C21.55,17.09 21.73,17.3 21.84,17.55 C21.941,17.8 22,18.05 22,18.33 Z"/>
  <path fill="#292D32" opacity="0.4" d="M10.76,13.24 L7.5,16.5 C7.49,16.5 7.49,16.5 7.48,16.49 C6.45,15.45 5.52,14.36 4.68,13.22 C3.87,12.1 3.22,10.97 2.74,9.86 C2.73,9.84 2.73,9.83 2.72,9.81 C2.24,8.67 2,7.58 2,6.54 C2,5.86 2.12,5.21 2.36,4.61 C2.56,4.1 2.86,3.62 3.27,3.19 C3.34,3.11 3.42,3.02 3.51,2.94 C3.67,2.78 3.83,2.64 4,2.53 C4.01,2.53 4.01,2.53 4.01,2.53 C4.51,2.17 5.04,2 5.6,2 C5.88,2 6.16,2.06 6.41,2.18 C6.65,2.29 6.86,2.45 7.03,2.68 C7.05,2.7 7.06,2.72 7.08,2.74 L9.4,6.01 C9.58,6.26 9.71,6.49 9.8,6.71 C9.89,6.92 9.94,7.13 9.94,7.32 C9.94,7.56 9.87,7.8 9.73,8.03 C9.6,8.26 9.41,8.5 9.17,8.74 L8.41,9.53 C8.3,9.64 8.25,9.77 8.25,9.93 C8.25,10.01 8.26,10.08 8.28,10.16 C8.31,10.24 8.34,10.3 8.36,10.36 C8.54,10.69 8.85,11.12 9.29,11.64 C9.74,12.16 10.22,12.69 10.74,13.22 C10.75,13.23 10.75,13.23 10.76,13.24 Z"/>
  <path fill="#292D32" d="M21.771,2.23 C21.471,1.93 20.981,1.93 20.681,2.23 L2.231,20.69 C1.931,20.99 1.931,21.48 2.231,21.78 C2.381,21.92 2.571,22 2.771,22 C2.971,22 3.161,21.92 3.311,21.77 L21.771,3.31 C22.081,3.01 22.081,2.53 21.771,2.23 Z"/>
</svg>

