<svg xmlns="http://www.w3.org/2000/svg" width="24" height="24" viewBox="0 0 24 24">
  <defs/>
  <path fill="#292D32" d="M17.45,22.75 C16.32,22.75 15.13,22.48 13.9,21.96 C12.7,21.45 11.49,20.75 10.31,19.9 L9.87,19.57 C9.54,19.32 9.48,18.85 9.73,18.52 C9.98,18.19 10.45,18.13 10.78,18.38 L11.2,18.69 C12.28,19.48 13.39,20.12 14.49,20.58 C16.2,21.31 17.8,21.48 19.12,20.93 C19.63,20.72 20.08,20.4 20.49,19.94 C20.72,19.69 20.9,19.42 21.05,19.1 C21.17,18.85 21.23,18.59 21.23,18.33 C21.23,18.17 21.2,18.01 21.12,17.83 C21.1,17.78 21.03,17.66 20.84,17.53 L17.52,15.17 C17.32,15.03 17.14,14.93 16.97,14.86 C16.71,14.76 16.54,14.75 16.32,14.89 C16.12,14.99 15.94,15.14 15.74,15.34 L14.98,16.09 C14.59,16.47 13.99,16.56 13.53,16.39 C13.51,16.38 13.41,16.34 13.39,16.33 C13.38,16.32 13.27,16.28 13.26,16.27 C13.04,16.16 12.8,16 12.52,15.8 C12.19,15.56 12.11,15.09 12.35,14.75 C12.59,14.41 13.06,14.34 13.4,14.58 C13.61,14.73 13.8,14.85 13.96,14.94 L13.95,15 L14.68,14.27 C14.99,13.96 15.29,13.73 15.58,13.58 C16.13,13.24 16.83,13.18 17.53,13.47 C17.79,13.58 18.07,13.73 18.37,13.94 L21.69,16.3 C22.05,16.55 22.33,16.87 22.49,17.25 C22.64,17.63 22.71,17.98 22.71,18.33 C22.71,18.81 22.6,19.29 22.39,19.74 C22.18,20.19 21.92,20.58 21.59,20.94 C21.02,21.57 20.4,22.02 19.68,22.31 C18.99,22.6 18.24,22.75 17.45,22.75 Z M13.95,15.01 L13.79,15.69 L14.06,14.99 C14.02,14.98 13.97,14.99 13.95,15.01 Z"/>
  <path fill="#292D32" d="M7.47,17.24 C7.28,17.24 7.08,17.17 6.94,17.02 C5.89,15.96 4.92,14.83 4.08,13.66 C3.22,12.46 2.53,11.27 2.04,10.1 C1.51,8.87 1.25,7.67 1.25,6.54 C1.25,5.76 1.39,5.02 1.66,4.33 C1.95,3.61 2.39,2.96 3,2.39 C3.77,1.64 4.65,1.25 5.59,1.25 C5.98,1.25 6.38,1.34 6.72,1.5 C7.11,1.68 7.44,1.95 7.68,2.31 L10,5.58 C10.21,5.87 10.37,6.15 10.48,6.43 C10.61,6.73 10.68,7.03 10.68,7.32 C10.68,7.7 10.57,8.07 10.36,8.42 C10.21,8.69 9.98,8.98 9.69,9.27 L9.01,9.98 C9.02,10.01 9.03,10.03 9.04,10.05 C9.16,10.26 9.4,10.62 9.86,11.16 C10.34,11.72 10.81,12.22 11.27,12.7 C11.56,13 11.56,13.47 11.26,13.76 C10.96,14.05 10.49,14.05 10.2,13.75 C9.71,13.25 9.23,12.72 8.72,12.13 C8.25,11.58 7.91,11.11 7.7,10.72 C7.68,10.68 7.66,10.64 7.65,10.6 L7.58,10.43 C7.52,10.21 7.5,10.08 7.5,9.94 C7.5,9.58 7.63,9.26 7.88,9.01 L8.63,8.23 C8.83,8.03 8.98,7.84 9.08,7.67 C9.16,7.54 9.19,7.43 9.19,7.33 C9.19,7.25 9.16,7.13 9.11,7.01 C9.03,6.82 8.92,6.65 8.78,6.45 L6.46,3.17 C6.36,3.03 6.24,2.93 6.09,2.86 C5.94,2.79 5.77,2.75 5.59,2.75 C5.04,2.75 4.53,2.99 4.04,3.47 C3.59,3.9 3.26,4.37 3.06,4.88 C2.85,5.4 2.75,5.95 2.75,6.54 C2.75,7.47 2.97,8.48 3.41,9.52 C3.86,10.58 4.49,11.68 5.29,12.78 C6.09,13.88 7,14.95 8,15.96 C8.29,16.25 8.29,16.73 8,17.02 C7.85,17.17 7.66,17.24 7.47,17.24 Z"/>
  <path fill="#292D32" d="M2,22.75 C1.81,22.75 1.62,22.68 1.47,22.53 C1.18,22.24 1.18,21.76 1.47,21.47 L21.47,1.47 C21.76,1.18 22.24,1.18 22.53,1.47 C22.82,1.76 22.82,2.24 22.53,2.53 L2.53,22.53 C2.38,22.68 2.19,22.75 2,22.75 Z"/>
</svg>

