<svg xmlns="http://www.w3.org/2000/svg" width="24" height="24" viewBox="0 0 24 24">
  <defs/>
  <path fill="#292D32" d="M10.784,18.38 Q10.883,18.459 11.098,18.615 Q11.161,18.661 11.194,18.685 Q12.826,19.873 14.484,20.58 Q16.057,21.25 17.45,21.25 Q18.338,21.25 19.112,20.928 Q19.865,20.619 20.485,19.936 Q20.824,19.562 21.042,19.1 Q21.22,18.722 21.22,18.33 Q21.22,18.1 21.119,17.842 Q21.039,17.669 20.833,17.527 L17.516,15.172 Q17.211,14.964 16.966,14.864 Q16.785,14.79 16.64,14.79 Q16.486,14.79 16.32,14.891 Q16.299,14.904 16.277,14.915 Q16.045,15.036 15.741,15.34 L14.977,16.094 Q14.591,16.48 14.04,16.48 Q13.761,16.48 13.527,16.392 Q13.511,16.386 13.495,16.379 Q13.454,16.362 13.388,16.331 Q13.342,16.31 13.332,16.306 Q13.296,16.292 13.261,16.274 Q12.906,16.087 12.51,15.79 Q12.262,15.604 12.218,15.296 Q12.174,14.989 12.36,14.74 Q12.547,14.491 12.854,14.448 Q13.162,14.404 13.41,14.59 Q13.695,14.804 13.933,14.932 Q13.959,14.944 13.992,14.958 L14.68,14.28 Q15.135,13.825 15.561,13.597 Q16.077,13.29 16.64,13.29 Q17.08,13.29 17.534,13.476 Q17.924,13.635 18.384,13.948 L21.687,16.293 Q22.247,16.681 22.497,17.248 Q22.502,17.26 22.507,17.271 Q22.72,17.806 22.72,18.33 Q22.72,19.059 22.398,19.74 Q22.085,20.404 21.596,20.944 Q20.748,21.878 19.689,22.312 Q18.638,22.75 17.45,22.75 Q15.75,22.75 13.896,21.96 Q12.081,21.186 10.307,19.895 Q10.276,19.872 10.214,19.827 Q9.978,19.655 9.857,19.56 Q9.613,19.368 9.576,19.059 Q9.539,18.751 9.731,18.507 Q9.922,18.262 10.231,18.225 Q10.539,18.188 10.784,18.38 Z M14.039,14.98 Q14.042,14.981 14.044,14.982 L14.04,14.98 L14.039,14.98 Z"/>
  <path fill="#292D32" d="M6.453,3.167 Q6.315,2.967 6.086,2.861 Q5.854,2.75 5.59,2.75 Q4.772,2.75 4.036,3.474 Q3.363,4.11 3.058,4.885 Q2.75,5.654 2.75,6.54 Q2.75,7.949 3.411,9.519 Q4.088,11.113 5.289,12.782 Q6.498,14.443 8.003,15.962 Q8.221,16.183 8.22,16.494 Q8.218,16.804 7.998,17.023 Q7.777,17.241 7.466,17.24 Q7.156,17.238 6.937,17.018 Q5.352,15.417 4.071,13.658 Q2.773,11.853 2.029,10.101 Q1.25,8.251 1.25,6.54 Q1.25,5.366 1.662,4.335 Q2.09,3.249 2.984,2.406 Q4.158,1.25 5.59,1.25 Q6.196,1.25 6.714,1.499 Q7.315,1.776 7.687,2.313 Q7.863,2.569 7.808,2.874 Q7.752,3.18 7.497,3.357 Q7.241,3.533 6.936,3.478 Q6.63,3.422 6.453,3.167 Z"/>
  <path fill="#292D32" d="M10.195,13.745 Q9.478,13.014 8.713,12.131 Q8.006,11.295 7.692,10.719 Q7.66,10.66 7.639,10.597 Q7.637,10.593 7.62,10.552 Q7.587,10.475 7.568,10.423 Q7.553,10.383 7.543,10.342 Q7.49,10.132 7.49,9.93 Q7.49,9.379 7.87,8.999 L8.62,8.22 Q8.923,7.917 9.067,7.661 Q9.073,7.65 9.08,7.64 Q9.18,7.474 9.18,7.32 Q9.18,7.19 9.101,7.005 Q8.993,6.741 8.782,6.448 Q8.6,6.196 8.65,5.889 Q8.7,5.583 8.952,5.401 Q9.204,5.22 9.511,5.27 Q9.817,5.319 9.999,5.572 Q10.314,6.009 10.48,6.414 Q10.68,6.882 10.68,7.32 Q10.68,7.889 10.367,8.409 Q10.123,8.838 9.701,9.26 L9.007,9.981 Q9.021,10.015 9.033,10.044 Q9.279,10.477 9.847,11.149 Q10.581,11.997 11.266,12.695 Q11.483,12.916 11.48,13.227 Q11.477,13.538 11.255,13.755 Q11.034,13.973 10.723,13.97 Q10.412,13.967 10.195,13.745 Z"/>
  <path fill="#292D32" d="M22.53,2.53 L2.53,22.53 Q2.311,22.75 2,22.75 Q1.689,22.75 1.47,22.53 Q1.25,22.311 1.25,22 Q1.25,21.689 1.47,21.47 L21.47,1.47 Q21.689,1.25 22,1.25 Q22.311,1.25 22.53,1.47 Q22.75,1.689 22.75,2 Q22.75,2.311 22.53,2.53 Z"/>
</svg>

