<svg xmlns="http://www.w3.org/2000/svg" width="24" height="24" viewBox="0 0 24 24">
  <defs/>
  <path fill="#292D32" d="M17.45,22.75 C16.32,22.75 15.13,22.48 13.9,21.96 C12.7,21.45 11.49,20.75 10.31,19.9 C9.13,19.04 8,18.07 6.94,17.02 C5.88,15.95 4.92,14.82 4.07,13.66 C3.21,12.46 2.52,11.27 2.03,10.1 C1.51,8.87 1.25,7.67 1.25,6.54 C1.25,5.76 1.39,5.02 1.66,4.33 C1.95,3.61 2.39,2.96 3,2.39 C3.77,1.64 4.65,1.25 5.59,1.25 C5.98,1.25 6.38,1.34 6.72,1.5 C7.11,1.68 7.44,1.95 7.68,2.31 L10,5.58 C10.21,5.87 10.37,6.15 10.48,6.43 C10.61,6.73 10.68,7.03 10.68,7.32 C10.68,7.7 10.57,8.07 10.36,8.42 C10.21,8.69 9.98,8.98 9.69,9.27 L9.01,9.98 C9.02,10.01 9.03,10.03 9.04,10.05 C9.16,10.26 9.4,10.62 9.86,11.16 C10.34,11.72 10.81,12.22 11.27,12.7 C11.87,13.29 12.35,13.74 12.81,14.12 C13.38,14.6 13.75,14.84 13.97,14.95 L13.95,15 L14.68,14.28 C14.99,13.97 15.29,13.74 15.58,13.59 C16.13,13.25 16.83,13.19 17.53,13.48 C17.79,13.59 18.07,13.74 18.37,13.95 L21.69,16.31 C22.05,16.56 22.33,16.88 22.49,17.26 C22.64,17.64 22.71,17.99 22.71,18.34 C22.71,18.82 22.6,19.3 22.39,19.75 C22.18,20.2 21.92,20.59 21.59,20.95 C21.02,21.58 20.4,22.03 19.68,22.32 C18.99,22.6 18.24,22.75 17.45,22.75 Z M5.59,2.75 C5.04,2.75 4.53,2.99 4.04,3.47 C3.59,3.9 3.26,4.37 3.06,4.88 C2.85,5.4 2.75,5.95 2.75,6.54 C2.75,7.47 2.97,8.48 3.41,9.52 C3.86,10.58 4.49,11.68 5.29,12.78 C6.09,13.88 7,14.95 8,15.96 C9,16.95 10.08,17.87 11.19,18.68 C12.27,19.47 13.38,20.11 14.48,20.57 C16.19,21.3 17.79,21.47 19.11,20.92 C19.62,20.71 20.07,20.39 20.48,19.93 C20.71,19.68 20.89,19.41 21.04,19.09 C21.16,18.84 21.22,18.58 21.22,18.32 C21.22,18.16 21.19,18 21.11,17.82 C21.09,17.77 21.02,17.65 20.83,17.52 L17.51,15.16 C17.31,15.02 17.13,14.92 16.96,14.85 C16.7,14.75 16.53,14.74 16.31,14.88 C16.11,14.98 15.93,15.13 15.73,15.33 L14.97,16.08 C14.58,16.46 13.98,16.55 13.52,16.38 L13.25,16.26 C12.84,16.04 12.36,15.7 11.83,15.25 C11.34,14.84 10.84,14.37 10.2,13.74 C9.7,13.23 9.22,12.7 8.71,12.12 C8.24,11.57 7.9,11.1 7.69,10.71 L7.56,10.41 C7.5,10.19 7.48,10.06 7.48,9.92 C7.48,9.56 7.61,9.24 7.86,8.99 L8.61,8.21 C8.81,8.01 8.96,7.82 9.06,7.65 C9.14,7.52 9.17,7.41 9.17,7.31 C9.17,7.23 9.14,7.11 9.09,6.99 C9.03,6.82 8.92,6.65 8.78,6.45 L6.46,3.17 C6.36,3.03 6.24,2.93 6.09,2.86 C5.93,2.79 5.76,2.75 5.59,2.75 Z M13.95,15.01 L13.79,15.69 L14.06,14.99 C14.02,14.98 13.98,14.99 13.95,15.01 Z"/>
  <path fill="#292D32" d="M20.5,6.75 L15.5,6.75 C15.09,6.75 14.75,6.41 14.75,6 C14.75,5.59 15.09,5.25 15.5,5.25 L20.5,5.25 C20.91,5.25 21.25,5.59 21.25,6 C21.25,6.41 20.91,6.75 20.5,6.75 Z"/>
</svg>

