<svg xmlns="http://www.w3.org/2000/svg" width="24" height="24" viewBox="0 0 24 24">
  <defs/>
  <path fill="#292D32" d="M18,6 C17.39,6 16.83,5.65 16.55,5.11 L15.83,3.66 C15.37,2.75 14.17,2 13.15,2 L10.86,2 C9.83,2 8.63,2.75 8.17,3.66 L7.45,5.11 C7.17,5.65 6.61,6 6,6 C3.83,6 2.11,7.83 2.25,9.99 L2.77,18.25 C2.89,20.31 4,22 6.76,22 L17.24,22 C20,22 21.1,20.31 21.23,18.25 L21.75,9.99 C21.89,7.83 20.17,6 18,6 Z M10.5,7.25 L13.5,7.25 C13.91,7.25 14.25,7.59 14.25,8 C14.25,8.41 13.91,8.75 13.5,8.75 L10.5,8.75 C10.09,8.75 9.75,8.41 9.75,8 C9.75,7.59 10.09,7.25 10.5,7.25 Z M12,18.12 C10.14,18.12 8.62,16.61 8.62,14.74 C8.62,12.87 10.13,11.36 12,11.36 C13.87,11.36 15.38,12.87 15.38,14.74 C15.38,16.61 13.86,18.12 12,18.12 Z"/>
</svg>

