<svg xmlns="http://www.w3.org/2000/svg" width="24" height="24" viewBox="0 0 24 24">
  <defs/>
  <path fill="#292D32" d="M6,9.25 L9,9.25 Q9.311,9.25 9.53,9.47 Q9.75,9.689 9.75,10 Q9.75,10.311 9.53,10.53 Q9.311,10.75 9,10.75 L6,10.75 Q5.689,10.75 5.47,10.53 Q5.25,10.311 5.25,10 Q5.25,9.689 5.47,9.47 Q5.689,9.25 6,9.25 Z"/>
  <path fill="#292D32" d="M6.76,21.25 L17.24,21.25 Q20.289,21.25 20.481,18.203 L21.001,9.943 Q21.072,8.843 20.41,7.96 Q20.223,7.711 20.267,7.404 Q20.311,7.096 20.56,6.91 Q20.808,6.724 21.116,6.768 Q21.423,6.811 21.61,7.06 Q22.605,8.387 22.498,10.037 L21.978,18.297 Q21.697,22.75 17.24,22.75 L6.76,22.75 Q6.449,22.75 6.229,22.53 Q6.01,22.311 6.01,22 Q6.01,21.689 6.229,21.47 Q6.449,21.25 6.76,21.25 Z"/>
  <path fill="#292D32" d="M3.518,18.204 Q3.586,19.322 4.065,20.046 Q4.236,20.305 4.174,20.61 Q4.112,20.914 3.853,21.086 Q3.594,21.257 3.29,21.195 Q2.985,21.133 2.814,20.874 Q2.114,19.815 2.021,18.296 Q2.002,17.986 2.208,17.753 Q2.414,17.52 2.724,17.501 Q3.034,17.482 3.267,17.688 Q3.499,17.894 3.518,18.204 Z"/>
  <path fill="#292D32" d="M18,6.75 Q16.556,6.75 15.884,5.455 L15.158,3.994 Q14.53,2.75 13.15,2.75 L10.86,2.75 Q9.471,2.75 8.84,3.998 L8.122,5.444 Q7.445,6.75 6,6.75 Q4.697,6.75 3.805,7.699 Q2.915,8.646 2.999,9.941 L3.249,13.974 Q3.268,14.284 3.062,14.516 Q2.857,14.749 2.547,14.769 Q2.237,14.788 2.004,14.582 Q1.771,14.376 1.752,14.066 L1.502,10.039 Q1.376,8.094 2.712,6.671 Q4.048,5.25 6,5.25 Q6.533,5.25 6.778,4.776 L7.501,3.322 Q8.548,1.25 10.86,1.25 L13.15,1.25 Q15.452,1.25 16.502,3.326 L17.216,4.765 Q17.468,5.25 18,5.25 Q18.311,5.25 18.531,5.47 Q18.75,5.689 18.75,6 Q18.75,6.311 18.531,6.53 Q18.311,6.75 18,6.75 Z"/>
  <path fill="#292D32" d="M10.462,16.719 Q11.141,17.25 12,17.25 Q14.5,17.25 14.5,14.75 Q14.5,14.021 14.118,13.424 Q13.951,13.163 14.017,12.859 Q14.084,12.556 14.346,12.388 Q14.607,12.221 14.911,12.287 Q15.214,12.354 15.382,12.616 Q16,13.582 16,14.75 Q16,18.75 12,18.75 Q10.624,18.75 9.538,17.901 Q9.293,17.71 9.256,17.401 Q9.218,17.093 9.409,16.848 Q9.6,16.603 9.909,16.566 Q10.217,16.528 10.462,16.719 Z"/>
  <path fill="#292D32" d="M22.53,2.53 L2.53,22.53 Q2.311,22.75 2,22.75 Q1.689,22.75 1.47,22.53 Q1.25,22.311 1.25,22 Q1.25,21.689 1.47,21.47 L21.47,1.47 Q21.689,1.25 22,1.25 Q22.311,1.25 22.53,1.47 Q22.75,1.689 22.75,2 Q22.75,2.311 22.53,2.53 Z"/>
</svg>

