<svg xmlns="http://www.w3.org/2000/svg" width="24" height="24" viewBox="0 0 24 24">
  <defs/>
  <path fill="#292D32" d="M9,10.75 L6,10.75 C5.59,10.75 5.25,10.41 5.25,10 C5.25,9.59 5.59,9.25 6,9.25 L9,9.25 C9.41,9.25 9.75,9.59 9.75,10 C9.75,10.41 9.41,10.75 9,10.75 Z"/>
  <path fill="#292D32" d="M17.24,22.75 L6.76,22.75 C6.35,22.75 6.01,22.41 6.01,22 C6.01,21.59 6.35,21.25 6.76,21.25 L17.24,21.25 C19.26,21.25 20.35,20.22 20.48,18.2 L21,9.94 C21.05,9.23 20.84,8.53 20.41,7.96 C20.16,7.63 20.23,7.16 20.56,6.91 C20.89,6.66 21.36,6.73 21.61,7.06 C22.25,7.92 22.57,8.97 22.5,10.04 L21.98,18.3 C21.8,21.13 20.07,22.75 17.24,22.75 Z"/>
  <path fill="#292D32" d="M3.44,21.21 C3.2,21.21 2.96,21.09 2.81,20.87 C2.35,20.17 2.08,19.3 2.02,18.29 L1.5,10.04 C1.42,8.79 1.85,7.59 2.71,6.68 C3.56,5.77 4.76,5.25 6,5.25 C6.32,5.25 6.63,5.06 6.78,4.76 L7.5,3.33 C8.09,2.16 9.57,1.25 10.86,1.25 L13.15,1.25 C14.44,1.25 15.91,2.16 16.5,3.32 L17.22,4.78 C17.37,5.06 17.67,5.25 18,5.25 C18.41,5.25 18.75,5.59 18.75,6 C18.75,6.41 18.41,6.75 18,6.75 C17.11,6.75 16.3,6.25 15.88,5.46 L15.15,4 C14.82,3.34 13.88,2.76 13.14,2.76 L10.85,2.76 C10.11,2.76 9.17,3.34 8.83,4.01 L8.12,5.44 C7.7,6.25 6.89,6.75 6,6.75 C5.16,6.75 4.38,7.09 3.8,7.7 C3.23,8.31 2.94,9.11 3,9.94 L3.52,18.2 C3.56,18.93 3.75,19.57 4.07,20.04 C4.3,20.39 4.2,20.85 3.86,21.08 C3.73,21.17 3.58,21.21 3.44,21.21 Z"/>
  <path fill="#292D32" d="M12,18.75 C11.11,18.75 10.24,18.45 9.54,17.9 C9.21,17.64 9.16,17.17 9.41,16.85 C9.67,16.52 10.14,16.47 10.46,16.72 C10.9,17.06 11.44,17.25 12,17.25 C13.38,17.25 14.5,16.13 14.5,14.75 C14.5,14.27 14.37,13.81 14.12,13.42 C13.9,13.07 14,12.61 14.35,12.38 C14.7,12.16 15.16,12.26 15.39,12.61 C15.79,13.24 16.01,13.98 16.01,14.74 C16,16.96 14.21,18.75 12,18.75 Z"/>
  <path fill="#292D32" d="M1.999,22.75 C1.809,22.75 1.619,22.68 1.469,22.53 C1.179,22.24 1.179,21.76 1.469,21.47 L21.47,1.47 C21.759,1.18 22.239,1.18 22.529,1.47 C22.82,1.76 22.82,2.24 22.529,2.53 L2.529,22.53 C2.379,22.68 2.189,22.75 1.999,22.75 Z"/>
</svg>

