<svg xmlns="http://www.w3.org/2000/svg" width="24" height="24" viewBox="0 0 24 24">
  <defs/>
  <path fill="#292D32" d="M17.24,22.75 L6.76,22.75 C3.96,22.75 2.18,21.08 2.02,18.29 L1.5,10.04 C1.42,8.79 1.85,7.59 2.71,6.68 C3.56,5.77 4.76,5.25 6,5.25 C6.32,5.25 6.63,5.06 6.78,4.76 L7.5,3.33 C8.09,2.16 9.57,1.25 10.86,1.25 L13.15,1.25 C14.44,1.25 15.91,2.16 16.5,3.32 L17.22,4.78 C17.37,5.06 17.67,5.25 18,5.25 C19.24,5.25 20.44,5.77 21.29,6.68 C22.15,7.6 22.58,8.79 22.5,10.04 L21.98,18.3 C21.8,21.13 20.07,22.75 17.24,22.75 Z M10.86,2.75 C10.12,2.75 9.18,3.33 8.84,4 L8.12,5.44 C7.7,6.25 6.89,6.75 6,6.75 C5.16,6.75 4.38,7.09 3.8,7.7 C3.23,8.31 2.94,9.11 3,9.94 L3.52,18.2 C3.64,20.22 4.73,21.25 6.76,21.25 L17.24,21.25 C19.26,21.25 20.35,20.22 20.48,18.2 L21,9.94 C21.05,9.11 20.77,8.31 20.2,7.7 C19.62,7.09 18.84,6.75 18,6.75 C17.11,6.75 16.3,6.25 15.88,5.46 L15.15,4 C14.82,3.34 13.88,2.76 13.14,2.76 L10.86,2.76 L10.86,2.75 Z"/>
  <path fill="#292D32" d="M13.5,8.75 L10.5,8.75 C10.09,8.75 9.75,8.41 9.75,8 C9.75,7.59 10.09,7.25 10.5,7.25 L13.5,7.25 C13.91,7.25 14.25,7.59 14.25,8 C14.25,8.41 13.91,8.75 13.5,8.75 Z"/>
  <path fill="#292D32" d="M12,18.75 C9.79,18.75 8,16.96 8,14.75 C8,12.54 9.79,10.75 12,10.75 C14.21,10.75 16,12.54 16,14.75 C16,16.96 14.21,18.75 12,18.75 Z M12,12.25 C10.62,12.25 9.5,13.37 9.5,14.75 C9.5,16.13 10.62,17.25 12,17.25 C13.38,17.25 14.5,16.13 14.5,14.75 C14.5,13.37 13.38,12.25 12,12.25 Z"/>
</svg>

