<svg xmlns="http://www.w3.org/2000/svg" width="24" height="24" viewBox="0 0 24 24">
  <defs/>
  <path fill="#292D32" d="M21.769,2.229 C21.469,1.929 20.979,1.929 20.679,2.229 L2.229,20.689 C1.929,20.989 1.929,21.479 2.229,21.779 C2.379,21.919 2.569,21.999 2.769,21.999 C2.969,21.999 3.159,21.919 3.309,21.769 L21.769,3.309 C22.079,3.009 22.079,2.529 21.769,2.229 Z"/>
  <path fill="#292D32" d="M16.55,5.11 L15.83,3.66 C15.37,2.75 14.17,2 13.15,2 L10.86,2 C9.83,2 8.63,2.75 8.17,3.66 L7.45,5.11 C7.17,5.65 6.61,6 6,6 C3.83,6 2.11,7.83 2.25,9.99 L2.77,18.25 C2.82,19.1 3.03,19.89 3.48,20.52 L18,6 C17.39,6 16.83,5.65 16.55,5.11 Z M9.5,10.75 L6.5,10.75 C6.09,10.75 5.75,10.41 5.75,10 C5.75,9.59 6.09,9.25 6.5,9.25 L9.5,9.25 C9.91,9.25 10.25,9.59 10.25,10 C10.25,10.41 9.91,10.75 9.5,10.75 Z"/>
  <path fill="#292D32" d="M21.75,9.988 L21.23,18.248 C21.1,20.308 20,21.998 17.24,21.998 L7.41,21.998 C6.52,21.998 6.07,20.918 6.7,20.288 L9.17,17.818 C9.48,17.508 9.96,17.468 10.35,17.688 C11.04,18.078 11.87,18.228 12.75,18.038 C14.02,17.768 15.05,16.728 15.3,15.448 C15.47,14.588 15.32,13.778 14.94,13.108 C14.72,12.718 14.75,12.228 15.07,11.918 L19.57,7.418 C19.98,7.008 20.67,7.058 21.02,7.528 C21.54,8.208 21.81,9.068 21.75,9.988 Z"/>
</svg>

