<svg xmlns="http://www.w3.org/2000/svg" width="24" height="24" viewBox="0 0 24 24">
  <defs/>
  <path fill="#292D32" d="M21.771,2.23 C21.471,1.93 20.981,1.93 20.681,2.23 L2.231,20.69 C1.931,20.99 1.931,21.48 2.231,21.78 C2.381,21.92 2.571,22 2.771,22 C2.971,22 3.161,21.92 3.311,21.77 L21.771,3.31 C22.081,3.01 22.081,2.53 21.771,2.23 Z"/>
  <path fill="#292D32" opacity="0.4" d="M21.751,9.99 L21.231,18.25 C21.101,20.31 20.001,22 17.241,22 L6.761,22 C6.171,22 5.661,21.92 5.221,21.78 L20.251,6.75 C21.231,7.48 21.841,8.67 21.751,9.99 Z"/>
  <path fill="#292D32" opacity="0.4" d="M18,6 L3.48,20.52 C3.03,19.89 2.82,19.1 2.77,18.25 L2.25,9.99 C2.11,7.83 3.83,6 6,6 C6.61,6 7.17,5.65 7.45,5.11 L8.17,3.66 C8.63,2.75 9.83,2 10.86,2 L13.15,2 C14.17,2 15.37,2.75 15.83,3.66 L16.55,5.11 C16.83,5.65 17.39,6 18,6 Z"/>
  <path fill="#292D32" d="M9.5,10.75 L6.5,10.75 C6.09,10.75 5.75,10.41 5.75,10 C5.75,9.59 6.09,9.25 6.5,9.25 L9.5,9.25 C9.91,9.25 10.25,9.59 10.25,10 C10.25,10.41 9.91,10.75 9.5,10.75 Z"/>
  <path fill="#292D32" d="M12.571,11.43 L8.681,15.32 C8.651,15.14 8.631,14.94 8.631,14.75 C8.631,12.89 10.141,11.38 12.001,11.38 C12.191,11.38 12.391,11.4 12.571,11.43 Z"/>
  <path fill="#292D32" d="M15.38,14.75 C15.38,16.61 13.86,18.12 12,18.12 C11.13,18.12 10.34,17.79 9.75,17.25 L14.5,12.5 C15.05,13.09 15.38,13.88 15.38,14.75 Z"/>
</svg>

