<svg xmlns="http://www.w3.org/2000/svg" width="24" height="24" viewBox="0 0 24 24">
  <defs/>
  <path fill="#292D32" d="M22,18.25 L15,18.25 Q14.689,18.25 14.47,18.03 Q14.25,17.811 14.25,17.5 Q14.25,17.189 14.47,16.97 Q14.689,16.75 15,16.75 L22,16.75 Q22.311,16.75 22.53,16.97 Q22.75,17.189 22.75,17.5 Q22.75,17.811 22.53,18.03 Q22.311,18.25 22,18.25 Z"/>
  <path fill="#292D32" d="M5,18.25 L2,18.25 Q1.689,18.25 1.47,18.03 Q1.25,17.811 1.25,17.5 Q1.25,17.189 1.47,16.97 Q1.689,16.75 2,16.75 L5,16.75 Q5.311,16.75 5.53,16.97 Q5.75,17.189 5.75,17.5 Q5.75,17.811 5.53,18.03 Q5.311,18.25 5,18.25 Z"/>
  <path fill="#292D32" d="M22,7.25 L19,7.25 Q18.689,7.25 18.47,7.03 Q18.25,6.811 18.25,6.5 Q18.25,6.189 18.47,5.97 Q18.689,5.75 19,5.75 L22,5.75 Q22.311,5.75 22.53,5.97 Q22.75,6.189 22.75,6.5 Q22.75,6.811 22.53,7.03 Q22.311,7.25 22,7.25 Z"/>
  <path fill="#292D32" d="M9,7.25 L2,7.25 Q1.689,7.25 1.47,7.03 Q1.25,6.811 1.25,6.5 Q1.25,6.189 1.47,5.97 Q1.689,5.75 2,5.75 L9,5.75 Q9.311,5.75 9.53,5.97 Q9.75,6.189 9.75,6.5 Q9.75,6.811 9.53,7.03 Q9.311,7.25 9,7.25 Z"/>
  <path fill="#292D32" d="M7,13.75 L13,13.75 Q15.75,13.75 15.75,16.5 L15.75,18.5 Q15.75,21.25 13,21.25 L7,21.25 Q5.816,21.25 5.098,20.631 Q4.25,19.9 4.25,18.5 L4.25,16.5 Q4.25,13.75 7,13.75 Z M7,15.25 Q5.75,15.25 5.75,16.5 L5.75,18.5 Q5.75,19.75 7,19.75 L13,19.75 Q13.626,19.75 13.923,19.494 Q14.25,19.212 14.25,18.5 L14.25,16.5 Q14.25,15.25 13,15.25 Z"/>
  <path fill="#292D32" d="M17,2.75 Q19.75,2.75 19.75,5.5 L19.75,7.5 Q19.75,8.9 18.902,9.631 Q18.184,10.25 17,10.25 L11,10.25 Q9.816,10.25 9.098,9.631 Q8.25,8.9 8.25,7.5 L8.25,5.5 Q8.25,2.75 11,2.75 L13.03,2.75 Q13.341,2.75 13.56,2.97 Q13.78,3.189 13.78,3.5 Q13.78,3.811 13.56,4.03 Q13.341,4.25 13.03,4.25 L11,4.25 Q9.75,4.25 9.75,5.5 L9.75,7.5 Q9.75,8.212 10.077,8.494 Q10.374,8.75 11,8.75 L17,8.75 Q18.25,8.75 18.25,7.5 L18.25,5.5 Q18.25,4.25 17,4.25 Q16.689,4.25 16.47,4.03 Q16.25,3.811 16.25,3.5 Q16.25,3.189 16.47,2.97 Q16.689,2.75 17,2.75 Z"/>
</svg>

