<svg xmlns="http://www.w3.org/2000/svg" width="24" height="24" viewBox="0 0 24 24">
  <defs/>
  <path fill="#292D32" opacity="0.4" d="M5.75,22 L5.75,15 Q5.75,14.689 5.97,14.47 Q6.189,14.25 6.5,14.25 Q6.811,14.25 7.03,14.47 Q7.25,14.689 7.25,15 L7.25,22 Q7.25,22.311 7.03,22.53 Q6.811,22.75 6.5,22.75 Q6.189,22.75 5.97,22.53 Q5.75,22.311 5.75,22 Z"/>
  <path fill="#292D32" opacity="0.4" d="M5.75,5 L5.75,2 Q5.75,1.689 5.97,1.47 Q6.189,1.25 6.5,1.25 Q6.811,1.25 7.03,1.47 Q7.25,1.689 7.25,2 L7.25,5 Q7.25,5.311 7.03,5.53 Q6.811,5.75 6.5,5.75 Q6.189,5.75 5.97,5.53 Q5.75,5.311 5.75,5 Z"/>
  <path fill="#292D32" opacity="0.4" d="M16.75,22 L16.75,19 Q16.75,18.689 16.97,18.47 Q17.189,18.25 17.5,18.25 Q17.811,18.25 18.03,18.47 Q18.25,18.689 18.25,19 L18.25,22 Q18.25,22.311 18.03,22.53 Q17.811,22.75 17.5,22.75 Q17.189,22.75 16.97,22.53 Q16.75,22.311 16.75,22 Z"/>
  <path fill="#292D32" opacity="0.4" d="M16.75,9 L16.75,2 Q16.75,1.689 16.97,1.47 Q17.189,1.25 17.5,1.25 Q17.811,1.25 18.03,1.47 Q18.25,1.689 18.25,2 L18.25,9 Q18.25,9.311 18.03,9.53 Q17.811,9.75 17.5,9.75 Q17.189,9.75 16.97,9.53 Q16.75,9.311 16.75,9 Z"/>
  <path fill="#292D32" d="M10.25,7 L10.25,13 Q10.25,14.184 9.631,14.902 Q8.9,15.75 7.5,15.75 L5.5,15.75 Q2.75,15.75 2.75,13 L2.75,7 Q2.75,4.25 5.5,4.25 L7.5,4.25 Q10.25,4.25 10.25,7 Z M8.75,7 Q8.75,5.75 7.5,5.75 L5.5,5.75 Q4.788,5.75 4.506,6.077 Q4.25,6.374 4.25,7 L4.25,13 Q4.25,13.626 4.506,13.923 Q4.788,14.25 5.5,14.25 L7.5,14.25 Q8.75,14.25 8.75,13 Z"/>
  <path fill="#292D32" d="M21.25,11 L21.25,17 Q21.25,18.184 20.631,18.902 Q19.9,19.75 18.5,19.75 L16.5,19.75 Q15.1,19.75 14.369,18.902 Q13.75,18.184 13.75,17 L13.75,11 Q13.75,8.25 16.5,8.25 L18.5,8.25 Q21.25,8.25 21.25,11 Z M19.75,11 Q19.75,9.75 18.5,9.75 L16.5,9.75 Q15.788,9.75 15.506,10.077 Q15.25,10.374 15.25,11 L15.25,17 Q15.25,18.25 16.5,18.25 L18.5,18.25 Q19.75,18.25 19.75,17 Z"/>
</svg>

