<svg xmlns="http://www.w3.org/2000/svg" width="24" height="24" viewBox="0 0 24 24">
  <defs/>
  <path fill="#292D32" d="M6.5,22.75 C6.09,22.75 5.75,22.41 5.75,22 L5.75,15 C5.75,14.59 6.09,14.25 6.5,14.25 C6.91,14.25 7.25,14.59 7.25,15 L7.25,22 C7.25,22.41 6.91,22.75 6.5,22.75 Z"/>
  <path fill="#292D32" d="M6.5,5.75 C6.09,5.75 5.75,5.41 5.75,5 L5.75,2 C5.75,1.59 6.09,1.25 6.5,1.25 C6.91,1.25 7.25,1.59 7.25,2 L7.25,5 C7.25,5.41 6.91,5.75 6.5,5.75 Z"/>
  <path fill="#292D32" d="M17.5,22.75 C17.09,22.75 16.75,22.41 16.75,22 L16.75,19 C16.75,18.59 17.09,18.25 17.5,18.25 C17.91,18.25 18.25,18.59 18.25,19 L18.25,22 C18.25,22.41 17.91,22.75 17.5,22.75 Z"/>
  <path fill="#292D32" d="M17.5,9.75 C17.09,9.75 16.75,9.41 16.75,9 L16.75,2 C16.75,1.59 17.09,1.25 17.5,1.25 C17.91,1.25 18.25,1.59 18.25,2 L18.25,9 C18.25,9.41 17.91,9.75 17.5,9.75 Z"/>
  <path fill="#292D32" d="M7.5,15.75 L5.5,15.75 C3.78,15.75 2.75,14.72 2.75,13 L2.75,7 C2.75,5.28 3.78,4.25 5.5,4.25 L7.5,4.25 C9.22,4.25 10.25,5.28 10.25,7 L10.25,13 C10.25,14.72 9.22,15.75 7.5,15.75 Z M5.5,5.75 C4.61,5.75 4.25,6.11 4.25,7 L4.25,13 C4.25,13.89 4.61,14.25 5.5,14.25 L7.5,14.25 C8.39,14.25 8.75,13.89 8.75,13 L8.75,7 C8.75,6.11 8.39,5.75 7.5,5.75 L5.5,5.75 Z"/>
  <path fill="#292D32" d="M18.5,19.75 L16.5,19.75 C14.78,19.75 13.75,18.72 13.75,17 L13.75,11 C13.75,9.28 14.78,8.25 16.5,8.25 L18.5,8.25 C20.22,8.25 21.25,9.28 21.25,11 L21.25,17 C21.25,18.72 20.22,19.75 18.5,19.75 Z M16.5,9.75 C15.61,9.75 15.25,10.11 15.25,11 L15.25,17 C15.25,17.89 15.61,18.25 16.5,18.25 L18.5,18.25 C19.39,18.25 19.75,17.89 19.75,17 L19.75,11 C19.75,10.11 19.39,9.75 18.5,9.75 L16.5,9.75 Z"/>
</svg>

