<svg xmlns="http://www.w3.org/2000/svg" width="24" height="24" viewBox="0 0 24 24">
  <defs/>
  <path fill="#292D32" d="M22,18.25 L15,18.25 C14.59,18.25 14.25,17.91 14.25,17.5 C14.25,17.09 14.59,16.75 15,16.75 L22,16.75 C22.41,16.75 22.75,17.09 22.75,17.5 C22.75,17.91 22.41,18.25 22,18.25 Z"/>
  <path fill="#292D32" d="M5,18.25 L2,18.25 C1.59,18.25 1.25,17.91 1.25,17.5 C1.25,17.09 1.59,16.75 2,16.75 L5,16.75 C5.41,16.75 5.75,17.09 5.75,17.5 C5.75,17.91 5.41,18.25 5,18.25 Z"/>
  <path fill="#292D32" d="M22,7.25 L19,7.25 C18.59,7.25 18.25,6.91 18.25,6.5 C18.25,6.09 18.59,5.75 19,5.75 L22,5.75 C22.41,5.75 22.75,6.09 22.75,6.5 C22.75,6.91 22.41,7.25 22,7.25 Z"/>
  <path fill="#292D32" d="M9,7.25 L2,7.25 C1.59,7.25 1.25,6.91 1.25,6.5 C1.25,6.09 1.59,5.75 2,5.75 L9,5.75 C9.41,5.75 9.75,6.09 9.75,6.5 C9.75,6.91 9.41,7.25 9,7.25 Z"/>
  <path fill="#292D32" d="M13,21.25 L7,21.25 C5.28,21.25 4.25,20.22 4.25,18.5 L4.25,16.5 C4.25,14.78 5.28,13.75 7,13.75 L13,13.75 C14.72,13.75 15.75,14.78 15.75,16.5 L15.75,18.5 C15.75,20.22 14.72,21.25 13,21.25 Z M7,15.25 C6.11,15.25 5.75,15.61 5.75,16.5 L5.75,18.5 C5.75,19.39 6.11,19.75 7,19.75 L13,19.75 C13.89,19.75 14.25,19.39 14.25,18.5 L14.25,16.5 C14.25,15.61 13.89,15.25 13,15.25 L7,15.25 Z"/>
  <path fill="#292D32" d="M17,10.25 L11,10.25 C9.28,10.25 8.25,9.22 8.25,7.5 L8.25,5.5 C8.25,3.78 9.28,2.75 11,2.75 L17,2.75 C18.72,2.75 19.75,3.78 19.75,5.5 L19.75,7.5 C19.75,9.22 18.72,10.25 17,10.25 Z M11,4.25 C10.11,4.25 9.75,4.61 9.75,5.5 L9.75,7.5 C9.75,8.39 10.11,8.75 11,8.75 L17,8.75 C17.89,8.75 18.25,8.39 18.25,7.5 L18.25,5.5 C18.25,4.61 17.89,4.25 17,4.25 L11,4.25 Z"/>
</svg>

