<svg xmlns="http://www.w3.org/2000/svg" width="24" height="24" viewBox="0 0 24 24">
  <defs/>
  <path fill="#292D32" d="M22.75,17.5 C22.75,17.91 22.41,18.25 22,18.25 L15,18.25 L15,18.5 C15,20 14.1,20.5 13,20.5 L7,20.5 C5.9,20.5 5,20 5,18.5 L5,18.25 L2,18.25 C1.59,18.25 1.25,17.91 1.25,17.5 C1.25,17.09 1.59,16.75 2,16.75 L5,16.75 L5,16.5 C5,15 5.9,14.5 7,14.5 L13,14.5 C14.1,14.5 15,15 15,16.5 L15,16.75 L22,16.75 C22.41,16.75 22.75,17.09 22.75,17.5 Z"/>
  <path fill="#292D32" opacity="0.4" d="M22.75,6.5 C22.75,6.91 22.41,7.25 22,7.25 L19,7.25 L19,7.5 C19,9 18.1,9.5 17,9.5 L11,9.5 C9.9,9.5 9,9 9,7.5 L9,7.25 L2,7.25 C1.59,7.25 1.25,6.91 1.25,6.5 C1.25,6.09 1.59,5.75 2,5.75 L9,5.75 L9,5.5 C9,4 9.9,3.5 11,3.5 L17,3.5 C18.1,3.5 19,4 19,5.5 L19,5.75 L22,5.75 C22.41,5.75 22.75,6.09 22.75,6.5 Z"/>
</svg>

