<svg xmlns="http://www.w3.org/2000/svg" width="24" height="24" viewBox="0 0 24 24">
  <defs/>
  <path fill="#292D32" opacity="0.4" d="M7.5,4.5 L7.25,4.5 L7.25,2 C7.25,1.59 6.91,1.25 6.5,1.25 C6.09,1.25 5.75,1.59 5.75,2 L5.75,4.5 L5.5,4.5 C3.91,4.5 3,5.41 3,7 L3,13 C3,14.59 3.91,15.5 5.5,15.5 L5.75,15.5 L5.75,22 C5.75,22.41 6.09,22.75 6.5,22.75 C6.91,22.75 7.25,22.41 7.25,22 L7.25,15.5 L7.5,15.5 C9.09,15.5 10,14.59 10,13 L10,7 C10,5.41 9.09,4.5 7.5,4.5 Z"/>
  <path fill="#292D32" d="M18.5,8.5 L18.25,8.5 L18.25,2 C18.25,1.59 17.91,1.25 17.5,1.25 C17.09,1.25 16.75,1.59 16.75,2 L16.75,8.5 L16.5,8.5 C14.91,8.5 14,9.41 14,11 L14,17 C14,18.59 14.91,19.5 16.5,19.5 L16.75,19.5 L16.75,22 C16.75,22.41 17.09,22.75 17.5,22.75 C17.91,22.75 18.25,22.41 18.25,22 L18.25,19.5 L18.5,19.5 C20.09,19.5 21,18.59 21,17 L21,11 C21,9.41 20.09,8.5 18.5,8.5 Z"/>
</svg>

