<svg xmlns="http://www.w3.org/2000/svg" width="24" height="24" viewBox="0 0 24 24">
  <defs/>
  <path fill="#292D32" d="M19.999,11.75 L3.999,11.75 C3.769,11.75 3.559,11.65 3.419,11.47 C3.279,11.3 3.219,11.06 3.269,10.84 L4.399,5.44 C4.769,3.69 5.519,2.08 8.489,2.08 L15.519,2.08 C18.489,2.08 19.239,3.7 19.609,5.44 L20.739,10.85 C20.789,11.07 20.729,11.3 20.589,11.48 C20.439,11.65 20.229,11.75 19.999,11.75 Z M4.919,10.25 L19.069,10.25 L18.129,5.75 C17.849,4.44 17.519,3.58 15.509,3.58 L8.489,3.58 C6.479,3.58 6.149,4.44 5.869,5.75 L4.919,10.25 Z"/>
  <path fill="#292D32" d="M19.96,22.75 L18.08,22.75 C16.46,22.75 16.15,21.82 15.95,21.21 L15.75,20.61 C15.49,19.85 15.46,19.75 14.56,19.75 L9.44,19.75 C8.54,19.75 8.48,19.92 8.25,20.61 L8.05,21.21 C7.84,21.83 7.54,22.75 5.92,22.75 L4.04,22.75 C3.25,22.75 2.49,22.42 1.96,21.84 C1.44,21.27 1.19,20.51 1.26,19.75 L1.82,13.66 C1.97,12.01 2.41,10.25 5.62,10.25 L18.38,10.25 C21.59,10.25 22.02,12.01 22.18,13.66 L22.74,19.75 C22.81,20.51 22.56,21.27 22.04,21.84 C21.51,22.42 20.75,22.75 19.96,22.75 Z M9.44,18.25 L14.56,18.25 C16.38,18.25 16.81,19.06 17.17,20.12 L17.38,20.74 C17.55,21.25 17.55,21.26 18.09,21.26 L19.97,21.26 C20.34,21.26 20.69,21.11 20.94,20.84 C21.18,20.58 21.29,20.25 21.26,19.9 L20.7,13.81 C20.57,12.46 20.41,11.76 18.4,11.76 L5.62,11.76 C3.6,11.76 3.44,12.46 3.32,13.81 L2.76,19.9 C2.73,20.25 2.84,20.58 3.08,20.84 C3.32,21.11 3.68,21.26 4.05,21.26 L5.93,21.26 C6.47,21.26 6.47,21.25 6.64,20.75 L6.84,20.14 C7.09,19.34 7.46,18.25 9.44,18.25 Z"/>
  <path fill="#292D32" d="M4,8.75 L3,8.75 C2.59,8.75 2.25,8.41 2.25,8 C2.25,7.59 2.59,7.25 3,7.25 L4,7.25 C4.41,7.25 4.75,7.59 4.75,8 C4.75,8.41 4.41,8.75 4,8.75 Z"/>
  <path fill="#292D32" d="M21,8.75 L20,8.75 C19.59,8.75 19.25,8.41 19.25,8 C19.25,7.59 19.59,7.25 20,7.25 L21,7.25 C21.41,7.25 21.75,7.59 21.75,8 C21.75,8.41 21.41,8.75 21,8.75 Z"/>
  <path fill="#292D32" d="M12,5.75 C11.59,5.75 11.25,5.41 11.25,5 L11.25,3 C11.25,2.59 11.59,2.25 12,2.25 C12.41,2.25 12.75,2.59 12.75,3 L12.75,5 C12.75,5.41 12.41,5.75 12,5.75 Z"/>
  <path fill="#292D32" d="M13.5,5.75 L10.5,5.75 C10.09,5.75 9.75,5.41 9.75,5 C9.75,4.59 10.09,4.25 10.5,4.25 L13.5,4.25 C13.91,4.25 14.25,4.59 14.25,5 C14.25,5.41 13.91,5.75 13.5,5.75 Z"/>
  <path fill="#292D32" d="M9,15.75 L6,15.75 C5.59,15.75 5.25,15.41 5.25,15 C5.25,14.59 5.59,14.25 6,14.25 L9,14.25 C9.41,14.25 9.75,14.59 9.75,15 C9.75,15.41 9.41,15.75 9,15.75 Z"/>
  <path fill="#292D32" d="M18,15.75 L15,15.75 C14.59,15.75 14.25,15.41 14.25,15 C14.25,14.59 14.59,14.25 15,14.25 L18,14.25 C18.41,14.25 18.75,14.59 18.75,15 C18.75,15.41 18.41,15.75 18,15.75 Z"/>
</svg>

