<svg xmlns="http://www.w3.org/2000/svg" width="24" height="24" viewBox="0 0 24 24">
  <defs/>
  <path fill="#292D32" d="M21.75,7.998 C21.75,8.408 21.41,8.748 21,8.748 L3,8.748 C2.59,8.748 2.25,8.408 2.25,7.998 C2.25,7.588 2.59,7.248 3,7.248 L4.02,7.248 L4.4,5.438 C4.76,3.688 5.51,2.078 8.49,2.078 L15.51,2.078 C18.49,2.078 19.24,3.688 19.6,5.438 L19.98,7.248 L21,7.248 C21.41,7.248 21.75,7.588 21.75,7.998 Z"/>
  <path fill="#292D32" d="M22.182,13.66 C22.032,12.01 21.591,10.25 18.381,10.25 L5.622,10.25 C2.412,10.25 1.982,12.01 1.822,13.66 L1.262,19.75 C1.192,20.51 1.442,21.27 1.962,21.84 C2.492,22.42 3.242,22.75 4.042,22.75 L5.922,22.75 C7.542,22.75 7.852,21.82 8.052,21.21 L8.252,20.61 C8.482,19.92 8.542,19.75 9.442,19.75 L14.562,19.75 C15.462,19.75 15.492,19.85 15.752,20.61 L15.952,21.21 C16.152,21.82 16.462,22.75 18.082,22.75 L19.962,22.75 C20.752,22.75 21.512,22.42 22.042,21.84 C22.562,21.27 22.812,20.51 22.742,19.75 L22.182,13.66 Z M9.002,15.75 L6.002,15.75 C5.592,15.75 5.252,15.41 5.252,15 C5.252,14.59 5.592,14.25 6.002,14.25 L9.002,14.25 C9.412,14.25 9.752,14.59 9.752,15 C9.752,15.41 9.412,15.75 9.002,15.75 Z M18.002,15.75 L15.002,15.75 C14.592,15.75 14.252,15.41 14.252,15 C14.252,14.59 14.592,14.25 15.002,14.25 L18.002,14.25 C18.412,14.25 18.752,14.59 18.752,15 C18.752,15.41 18.412,15.75 18.002,15.75 Z"/>
</svg>

