<svg xmlns="http://www.w3.org/2000/svg" width="24" height="24" viewBox="0 0 24 24">
  <defs/>
  <path fill="#292D32" opacity="0.4" d="M22.18,13.66 C22.03,12.01 21.59,10.25 18.38,10.25 L5.62,10.25 C2.41,10.25 1.98,12.01 1.82,13.66 L1.26,19.75 C1.19,20.51 1.44,21.27 1.96,21.84 C2.49,22.42 3.24,22.75 4.04,22.75 L5.92,22.75 C7.54,22.75 7.85,21.82 8.05,21.21 L8.25,20.61 C8.48,19.92 8.54,19.75 9.44,19.75 L14.56,19.75 C15.46,19.75 15.49,19.85 15.75,20.61 L15.95,21.21 C16.15,21.82 16.46,22.75 18.08,22.75 L19.96,22.75 C20.75,22.75 21.51,22.42 22.04,21.84 C22.56,21.27 22.81,20.51 22.74,19.75 L22.18,13.66 Z"/>
  <path fill="#292D32" d="M21,7.25 L20,7.25 C19.99,7.25 19.99,7.25 19.98,7.25 L19.6,5.44 C19.24,3.69 18.49,2.08 15.51,2.08 L12.75,2.08 L11.25,2.08 L8.49,2.08 C5.51,2.08 4.76,3.69 4.4,5.44 L4.02,7.25 C4.01,7.25 4.01,7.25 4,7.25 L3,7.25 C2.59,7.25 2.25,7.59 2.25,8 C2.25,8.41 2.59,8.75 3,8.75 L3.71,8.75 L3.29,10.75 C3.83,10.44 4.58,10.25 5.62,10.25 L18.38,10.25 C19.42,10.25 20.17,10.44 20.71,10.75 L20.29,8.75 L21,8.75 C21.41,8.75 21.75,8.41 21.75,8 C21.75,7.59 21.41,7.25 21,7.25 Z"/>
  <path fill="#292D32" d="M9,15.75 L6,15.75 C5.59,15.75 5.25,15.41 5.25,15 C5.25,14.59 5.59,14.25 6,14.25 L9,14.25 C9.41,14.25 9.75,14.59 9.75,15 C9.75,15.41 9.41,15.75 9,15.75 Z"/>
  <path fill="#292D32" d="M18,15.75 L15,15.75 C14.59,15.75 14.25,15.41 14.25,15 C14.25,14.59 14.59,14.25 15,14.25 L18,14.25 C18.41,14.25 18.75,14.59 18.75,15 C18.75,15.41 18.41,15.75 18,15.75 Z"/>
</svg>

