<svg xmlns="http://www.w3.org/2000/svg" width="24" height="24" viewBox="0 0 24 24">
  <defs/>
  <path fill="#292D32" d="M15.51,2.08 Q18.897,2.08 19.604,5.437 L20.734,10.847 Q20.75,10.923 20.75,11 Q20.75,11.311 20.53,11.53 Q20.311,11.75 20,11.75 L4,11.75 Q3.923,11.75 3.847,11.734 Q3.543,11.671 3.372,11.411 Q3.202,11.151 3.266,10.847 L4.396,5.435 Q5.103,2.08 8.49,2.08 Z M15.51,3.58 L8.49,3.58 Q6.32,3.58 5.864,5.744 L4.923,10.25 L19.077,10.25 L18.136,5.743 Q17.68,3.58 15.51,3.58 Z"/>
  <path fill="#292D32" d="M22.737,19.75 L22.737,19.751 Q22.85,20.963 22.015,21.86 Q21.186,22.75 19.96,22.75 L18.08,22.75 Q16.463,22.75 15.95,21.212 L15.948,21.207 L15.748,20.607 L15.746,20.599 Q15.456,19.75 14.56,19.75 L9.44,19.75 Q8.537,19.75 8.251,20.607 L8.051,21.207 L8.05,21.212 Q7.537,22.75 5.92,22.75 L4.04,22.75 Q2.814,22.75 1.985,21.86 Q1.149,20.962 1.263,19.75 L1.823,13.661 Q2.142,10.25 5.62,10.25 L18.38,10.25 Q21.858,10.25 22.177,13.66 Z M21.243,19.889 L20.683,13.8 Q20.492,11.75 18.38,11.75 L5.62,11.75 Q3.508,11.75 3.317,13.799 L2.757,19.89 Q2.706,20.433 3.083,20.838 Q3.467,21.25 4.04,21.25 L5.92,21.25 Q6.456,21.25 6.627,20.738 L6.628,20.733 L6.828,20.133 Q7.456,18.25 9.44,18.25 L14.56,18.25 Q16.529,18.25 17.165,20.114 L17.172,20.133 L17.372,20.733 L17.373,20.738 Q17.544,21.25 18.08,21.25 L19.96,21.25 Q20.533,21.25 20.917,20.838 Q21.294,20.433 21.243,19.89 Z"/>
  <path fill="#292D32" d="M4,8.75 L3,8.75 Q2.689,8.75 2.47,8.53 Q2.25,8.311 2.25,8 Q2.25,7.689 2.47,7.47 Q2.689,7.25 3,7.25 L4,7.25 Q4.311,7.25 4.53,7.47 Q4.75,7.689 4.75,8 Q4.75,8.311 4.53,8.53 Q4.311,8.75 4,8.75 Z"/>
  <path fill="#292D32" d="M21,8.75 L20,8.75 Q19.689,8.75 19.47,8.53 Q19.25,8.311 19.25,8 Q19.25,7.689 19.47,7.47 Q19.689,7.25 20,7.25 L21,7.25 Q21.311,7.25 21.53,7.47 Q21.75,7.689 21.75,8 Q21.75,8.311 21.53,8.53 Q21.311,8.75 21,8.75 Z"/>
  <path fill="#292D32" d="M12.75,3 L12.75,5 Q12.75,5.311 12.53,5.53 Q12.311,5.75 12,5.75 Q11.689,5.75 11.47,5.53 Q11.25,5.311 11.25,5 L11.25,3 Q11.25,2.689 11.47,2.47 Q11.689,2.25 12,2.25 Q12.311,2.25 12.53,2.47 Q12.75,2.689 12.75,3 Z"/>
  <path fill="#292D32" d="M10.5,4.25 L13.5,4.25 Q13.811,4.25 14.03,4.47 Q14.25,4.689 14.25,5 Q14.25,5.311 14.03,5.53 Q13.811,5.75 13.5,5.75 L10.5,5.75 Q10.189,5.75 9.97,5.53 Q9.75,5.311 9.75,5 Q9.75,4.689 9.97,4.47 Q10.189,4.25 10.5,4.25 Z"/>
  <path fill="#292D32" d="M6,14.25 L9,14.25 Q9.311,14.25 9.53,14.47 Q9.75,14.689 9.75,15 Q9.75,15.311 9.53,15.53 Q9.311,15.75 9,15.75 L6,15.75 Q5.689,15.75 5.47,15.53 Q5.25,15.311 5.25,15 Q5.25,14.689 5.47,14.47 Q5.689,14.25 6,14.25 Z"/>
  <path fill="#292D32" d="M15,14.25 L18,14.25 Q18.311,14.25 18.53,14.47 Q18.75,14.689 18.75,15 Q18.75,15.311 18.53,15.53 Q18.311,15.75 18,15.75 L15,15.75 Q14.689,15.75 14.47,15.53 Q14.25,15.311 14.25,15 Q14.25,14.689 14.47,14.47 Q14.689,14.25 15,14.25 Z"/>
</svg>

