<svg xmlns="http://www.w3.org/2000/svg" width="24" height="24" viewBox="0 0 24 24">
  <defs/>
  <path fill="#292D32" d="M22,7.548 C22,8.208 21.46,8.748 20.8,8.748 L3.2,8.748 C2.54,8.748 2,8.208 2,7.548 L2,7.538 C2,5.248 3.85,3.398 6.14,3.398 L17.85,3.398 C20.14,3.398 22,5.258 22,7.548 Z"/>
  <path fill="#292D32" d="M2,11.45 L2,16.46 C2,18.75 3.85,20.6 6.14,20.6 L17.85,20.6 C20.14,20.6 22,18.74 22,16.45 L22,11.45 C22,10.79 21.46,10.25 20.8,10.25 L3.2,10.25 C2.54,10.25 2,10.79 2,11.45 Z M8,17.25 L6,17.25 C5.59,17.25 5.25,16.91 5.25,16.5 C5.25,16.09 5.59,15.75 6,15.75 L8,15.75 C8.41,15.75 8.75,16.09 8.75,16.5 C8.75,16.91 8.41,17.25 8,17.25 Z M14.5,17.25 L10.5,17.25 C10.09,17.25 9.75,16.91 9.75,16.5 C9.75,16.09 10.09,15.75 10.5,15.75 L14.5,15.75 C14.91,15.75 15.25,16.09 15.25,16.5 C15.25,16.91 14.91,17.25 14.5,17.25 Z"/>
</svg>

