<svg xmlns="http://www.w3.org/2000/svg" width="24" height="24" viewBox="0 0 24 24">
  <defs/>
  <path fill="#292D32" d="M19,15 C16.79,15 15,16.79 15,19 C15,19.75 15.21,20.46 15.58,21.06 C16.27,22.22 17.54,23 19,23 C20.46,23 21.73,22.22 22.42,21.06 C22.79,20.46 23,19.75 23,19 C23,16.79 21.21,15 19,15 Z M21.07,18.57 L18.94,20.54 C18.8,20.67 18.61,20.74 18.43,20.74 C18.24,20.74 18.05,20.67 17.9,20.52 L16.91,19.53 C16.62,19.24 16.62,18.76 16.91,18.47 C17.2,18.18 17.68,18.18 17.97,18.47 L18.45,18.95 L20.05,17.47 C20.35,17.19 20.83,17.21 21.11,17.51 C21.39,17.81 21.37,18.28 21.07,18.57 Z"/>
  <path fill="#292D32" d="M22,7.548 L22,7.998 C22,8.548 21.55,8.998 21,8.998 L3,8.998 C2.45,8.998 2,8.548 2,7.998 L2,7.538 C2,5.248 3.85,3.398 6.14,3.398 L17.85,3.398 C20.14,3.398 22,5.258 22,7.548 Z"/>
  <path fill="#292D32" d="M2,11.498 L2,16.458 C2,18.748 3.85,20.598 6.14,20.598 L12.4,20.598 C12.98,20.598 13.48,20.108 13.43,19.528 C13.29,17.998 13.78,16.338 15.14,15.018 C15.7,14.468 16.39,14.048 17.14,13.808 C18.39,13.408 19.6,13.458 20.67,13.818 C21.32,14.038 22,13.568 22,12.878 L22,11.488 C22,10.938 21.55,10.488 21,10.488 L3,10.488 C2.45,10.498 2,10.948 2,11.498 Z M8,17.248 L6,17.248 C5.59,17.248 5.25,16.908 5.25,16.498 C5.25,16.088 5.59,15.748 6,15.748 L8,15.748 C8.41,15.748 8.75,16.088 8.75,16.498 C8.75,16.908 8.41,17.248 8,17.248 Z"/>
</svg>

