<svg xmlns="http://www.w3.org/2000/svg" width="24" height="24" viewBox="0 0 24 24">
  <defs/>
  <path fill="#292D32" opacity="0.4" d="M22,9 L22,16.46 C22,18.75 20.14,20.6 17.85,20.6 L6.15,20.6 C3.86,20.6 2,18.75 2,16.46 L2,9 L22,9 Z"/>
  <path fill="#292D32" d="M22,7.54 L22,9 L2,9 L2,7.54 C2,5.25 3.86,3.4 6.15,3.4 L17.85,3.4 C20.14,3.4 22,5.25 22,7.54 Z"/>
  <path fill="#292D32" d="M8,17.25 L6,17.25 C5.59,17.25 5.25,16.91 5.25,16.5 C5.25,16.09 5.59,15.75 6,15.75 L8,15.75 C8.41,15.75 8.75,16.09 8.75,16.5 C8.75,16.91 8.41,17.25 8,17.25 Z"/>
  <path fill="#292D32" d="M14.5,17.25 L10.5,17.25 C10.09,17.25 9.75,16.91 9.75,16.5 C9.75,16.09 10.09,15.75 10.5,15.75 L14.5,15.75 C14.91,15.75 15.25,16.09 15.25,16.5 C15.25,16.91 14.91,17.25 14.5,17.25 Z"/>
</svg>

