<svg xmlns="http://www.w3.org/2000/svg" width="24" height="24" viewBox="0 0 24 24">
  <defs/>
  <path fill="#292D32" d="M19.97,1.75 L17.03,1.75 C15.76,1.75 15,2.51 15,3.78 L15,6.72 C15,7.99 15.76,8.75 17.03,8.75 L19.97,8.75 C21.24,8.75 22,7.99 22,6.72 L22,3.78 C22,2.51 21.24,1.75 19.97,1.75 Z M20.19,5.06 C20.07,5.18 19.91,5.24 19.75,5.24 C19.59,5.24 19.43,5.18 19.31,5.06 L19.13,4.88 L19.13,7.12 C19.13,7.47 18.85,7.75 18.5,7.75 C18.15,7.75 17.87,7.47 17.87,7.12 L17.87,4.88 L17.69,5.06 C17.45,5.3 17.05,5.3 16.81,5.06 C16.57,4.82 16.57,4.42 16.81,4.18 L18.06,2.93 C18.11,2.88 18.18,2.84 18.25,2.81 C18.27,2.8 18.29,2.8 18.31,2.79 C18.36,2.77 18.41,2.76 18.47,2.76 C18.49,2.76 18.51,2.76 18.53,2.76 C18.6,2.76 18.66,2.77 18.73,2.8 C18.74,2.8 18.74,2.8 18.75,2.8 C18.82,2.83 18.88,2.87 18.93,2.92 C18.94,2.93 18.94,2.93 18.95,2.93 L20.2,4.18 C20.44,4.42 20.44,4.82 20.19,5.06 Z"/>
  <path fill="#292D32" d="M2,11.46 L2,16.46 C2,18.75 3.85,20.6 6.14,20.6 L17.85,20.6 C20.14,20.6 22,18.74 22,16.45 L22,11.46 C22,10.79 21.46,10.25 20.79,10.25 L3.21,10.25 C2.54,10.25 2,10.79 2,11.46 Z M8,17.25 L6,17.25 C5.59,17.25 5.25,16.91 5.25,16.5 C5.25,16.09 5.59,15.75 6,15.75 L8,15.75 C8.41,15.75 8.75,16.09 8.75,16.5 C8.75,16.91 8.41,17.25 8,17.25 Z M14.5,17.25 L10.5,17.25 C10.09,17.25 9.75,16.91 9.75,16.5 C9.75,16.09 10.09,15.75 10.5,15.75 L14.5,15.75 C14.91,15.75 15.25,16.09 15.25,16.5 C15.25,16.91 14.91,17.25 14.5,17.25 Z"/>
  <path fill="#292D32" d="M13.5,4.608 L13.5,7.538 C13.5,8.208 12.96,8.748 12.29,8.748 L3.21,8.748 C2.53,8.748 2,8.188 2,7.518 C2.01,6.388 2.46,5.358 3.21,4.608 C3.96,3.858 5,3.398 6.14,3.398 L12.29,3.398 C12.96,3.398 13.5,3.938 13.5,4.608 Z"/>
</svg>

