<svg xmlns="http://www.w3.org/2000/svg" width="24" height="24" viewBox="0 0 24 24">
  <defs/>
  <path fill="white" d="M24,0 L0,0 L0,24 L24,24 L24,0 Z"/>
  <g opacity="0.6">
    <path fill="#292D32" opacity="0.6" d="M17.148,10 C17.701,10 18.148,9.552 18.148,9 C18.148,8.448 17.701,8 17.148,8 C16.596,8 16.148,8.448 16.148,9 C16.148,9.552 16.596,10 17.148,10 Z"/>
    <path fill="#292D32" opacity="0.6" d="M17.148,16 C17.701,16 18.148,15.552 18.148,15 C18.148,14.448 17.701,14 17.148,14 C16.596,14 16.148,14.448 16.148,15 C16.148,15.552 16.596,16 17.148,16 Z"/>
    <path fill="#292D32" opacity="0.6" d="M19.75,13 C20.302,13 20.75,12.552 20.75,12 C20.75,11.448 20.302,11 19.75,11 C19.198,11 18.75,11.448 18.75,12 C18.75,12.552 19.198,13 19.75,13 Z"/>
    <path fill="#292D32" opacity="0.6" d="M6.799,10 C7.351,10 7.799,9.552 7.799,9 C7.799,8.448 7.351,8 6.799,8 C6.247,8 5.799,8.448 5.799,9 C5.799,9.552 6.247,10 6.799,10 Z"/>
    <path fill="#292D32" opacity="0.6" d="M6.799,16 C7.351,16 7.799,15.552 7.799,15 C7.799,14.448 7.351,14 6.799,14 C6.247,14 5.799,14.448 5.799,15 C5.799,15.552 6.247,16 6.799,16 Z"/>
    <path fill="#292D32" opacity="0.6" d="M4.199,13 C4.752,13 5.199,12.552 5.199,12 C5.199,11.448 4.752,11 4.199,11 C3.647,11 3.199,11.448 3.199,12 C3.199,12.552 3.647,13 4.199,13 Z"/>
    <path fill="#292D32" opacity="0.6" d="M15.898,6.2 C16.451,6.2 16.898,5.752 16.898,5.2 C16.898,4.648 16.451,4.2 15.898,4.2 C15.346,4.2 14.898,4.648 14.898,5.2 C14.898,5.752 15.346,6.2 15.898,6.2 Z"/>
    <path fill="#292D32" opacity="0.6" d="M8.1,6.2 C8.652,6.2 9.1,5.752 9.1,5.2 C9.1,4.648 8.652,4.2 8.1,4.2 C7.547,4.2 7.1,4.648 7.1,5.2 C7.1,5.752 7.547,6.2 8.1,6.2 Z"/>
    <path fill="#292D32" opacity="0.6" d="M12.049,7 C12.601,7 13.049,6.552 13.049,6 C13.049,5.448 12.601,5 12.049,5 C11.496,5 11.049,5.448 11.049,6 C11.049,6.552 11.496,7 12.049,7 Z"/>
    <path fill="#292D32" opacity="0.6" d="M15.898,20 C16.451,20 16.898,19.552 16.898,19 C16.898,18.448 16.451,18 15.898,18 C15.346,18 14.898,18.448 14.898,19 C14.898,19.552 15.346,20 15.898,20 Z"/>
    <path fill="#292D32" opacity="0.6" d="M8.1,20 C8.652,20 9.1,19.552 9.1,19 C9.1,18.448 8.652,18 8.1,18 C7.547,18 7.1,18.448 7.1,19 C7.1,19.552 7.547,20 8.1,20 Z"/>
    <path fill="#292D32" opacity="0.6" d="M12.049,19.2 C12.601,19.2 13.049,18.753 13.049,18.2 C13.049,17.648 12.601,17.2 12.049,17.2 C11.496,17.2 11.049,17.648 11.049,18.2 C11.049,18.753 11.496,19.2 12.049,19.2 Z"/>
  </g>
  <path fill="#292D32" d="M13.75,10.25 C14.44,10.25 15,9.69 15,9 C15,8.31 14.44,7.75 13.75,7.75 C13.06,7.75 12.5,8.31 12.5,9 C12.5,9.69 13.06,10.25 13.75,10.25 Z"/>
  <path fill="#292D32" d="M10.25,10.25 C10.94,10.25 11.5,9.69 11.5,9 C11.5,8.31 10.94,7.75 10.25,7.75 C9.56,7.75 9,8.31 9,9 C9,9.69 9.56,10.25 10.25,10.25 Z"/>
  <path fill="#292D32" d="M15.5,13.25 C16.19,13.25 16.75,12.69 16.75,12 C16.75,11.31 16.19,10.75 15.5,10.75 C14.81,10.75 14.25,11.31 14.25,12 C14.25,12.69 14.81,13.25 15.5,13.25 Z"/>
  <path fill="#292D32" d="M8.5,13.25 C9.19,13.25 9.75,12.69 9.75,12 C9.75,11.31 9.19,10.75 8.5,10.75 C7.81,10.75 7.25,11.31 7.25,12 C7.25,12.69 7.81,13.25 8.5,13.25 Z"/>
  <path fill="#292D32" d="M10.25,16.25 C10.94,16.25 11.5,15.69 11.5,15 C11.5,14.31 10.94,13.75 10.25,13.75 C9.56,13.75 9,14.31 9,15 C9,15.69 9.56,16.25 10.25,16.25 Z"/>
  <path fill="#292D32" d="M13.75,16.25 C14.44,16.25 15,15.69 15,15 C15,14.31 14.44,13.75 13.75,13.75 C13.06,13.75 12.5,14.31 12.5,15 C12.5,15.69 13.06,16.25 13.75,16.25 Z"/>
  <path fill="#292D32" opacity="0.16" d="M11.999,3.33 C11.509,3.33 11.119,2.94 11.119,2.45 C11.119,1.96 11.509,1.58 11.999,1.58 C12.489,1.58 12.879,1.97 12.879,2.46 C12.879,2.95 12.489,3.33 11.999,3.33 Z"/>
  <path fill="#292D32" opacity="0.16" d="M17.25,3.6 C16.83,3.6 16.49,3.26 16.49,2.85 C16.49,2.44 16.83,2.1 17.24,2.1 C17.65,2.1 18,2.44 18,2.85 C18,3.26 17.67,3.6 17.25,3.6 Z"/>
  <path fill="#292D32" opacity="0.16" d="M6.75,3.6 C6.34,3.6 6,3.26 6,2.85 C6,2.44 6.33,2.1 6.75,2.1 L6.76,2.1 C7.17,2.1 7.51,2.44 7.51,2.85 C7.51,3.26 7.17,3.6 6.75,3.6 Z"/>
  <path fill="#292D32" opacity="0.16" d="M11.999,22.38 C11.509,22.38 11.119,21.99 11.119,21.5 C11.119,21.01 11.509,20.62 11.999,20.62 C12.489,20.62 12.879,21.01 12.879,21.5 C12.879,21.99 12.489,22.38 11.999,22.38 Z"/>
  <path fill="#292D32" opacity="0.16" d="M17.25,21.85 C16.83,21.85 16.49,21.51 16.49,21.1 C16.49,20.69 16.83,20.35 17.24,20.35 C17.65,20.35 18,20.69 18,21.1 C18,21.51 17.67,21.85 17.25,21.85 Z"/>
  <path fill="#292D32" opacity="0.16" d="M6.75,21.85 C6.34,21.85 6,21.51 6,21.1 C6,20.69 6.33,20.35 6.75,20.35 L6.76,20.35 C7.17,20.35 7.51,20.69 7.51,21.1 C7.51,21.51 7.17,21.85 6.75,21.85 Z"/>
  <path fill="#292D32" opacity="0.16" d="M1.55,12.88 C1.07,12.88 0.67,12.49 0.67,12.01 L0.67,12 C0.67,11.52 1.06,11.12 1.55,11.12 C2.04,11.12 2.42,11.51 2.42,12 C2.42,12.49 2.03,12.88 1.55,12.88 Z"/>
  <path fill="#292D32" opacity="0.16" d="M3.75,17.75 C3.34,17.75 3,17.41 3,17 L3,16.99 C3,16.58 3.34,16.24 3.75,16.24 C4.16,16.24 4.5,16.58 4.5,16.99 C4.5,17.4 4.16,17.75 3.75,17.75 Z"/>
  <path fill="#292D32" opacity="0.16" d="M3.75,7.76 C3.34,7.76 3,7.42 3,7.01 C3,6.6 3.34,6.26 3.75,6.26 C4.16,6.26 4.5,6.59 4.5,7 L4.5,7.01 C4.5,7.42 4.16,7.76 3.75,7.76 Z"/>
  <path fill="#292D32" opacity="0.16" d="M22.499,12.88 C22.019,12.88 21.619,12.49 21.619,12.01 L21.619,12 C21.619,11.52 22.009,11.12 22.499,11.12 C22.989,11.12 23.379,11.51 23.379,12 C23.379,12.49 22.979,12.88 22.499,12.88 Z"/>
  <path fill="#292D32" opacity="0.16" d="M20.301,17.75 C19.891,17.75 19.551,17.42 19.551,17 L19.551,16.99 C19.551,16.58 19.891,16.24 20.301,16.24 C20.711,16.24 21.051,16.58 21.051,16.99 C21.051,17.4 20.711,17.75 20.301,17.75 Z"/>
  <path fill="#292D32" opacity="0.16" d="M20.301,7.76 C19.891,7.76 19.551,7.42 19.551,7.01 C19.551,6.6 19.891,6.26 20.301,6.26 C20.711,6.26 21.051,6.59 21.051,7 L21.051,7.01 C21.051,7.42 20.711,7.76 20.301,7.76 Z"/>
</svg>

