<svg xmlns="http://www.w3.org/2000/svg" width="24" height="24" viewBox="0 0 24 24">
  <defs/>
  <path fill="#292D32" d="M13.5,9.25 L2,9.25 C1.59,9.25 1.25,8.91 1.25,8.5 C1.25,8.09 1.59,7.75 2,7.75 L13.5,7.75 C13.91,7.75 14.25,8.09 14.25,8.5 C14.25,8.91 13.91,9.25 13.5,9.25 Z"/>
  <path fill="#292D32" d="M8,17.25 L6,17.25 C5.59,17.25 5.25,16.91 5.25,16.5 C5.25,16.09 5.59,15.75 6,15.75 L8,15.75 C8.41,15.75 8.75,16.09 8.75,16.5 C8.75,16.91 8.41,17.25 8,17.25 Z"/>
  <path fill="#292D32" d="M14.5,17.25 L10.5,17.25 C10.09,17.25 9.75,16.91 9.75,16.5 C9.75,16.09 10.09,15.75 10.5,15.75 L14.5,15.75 C14.91,15.75 15.25,16.09 15.25,16.5 C15.25,16.91 14.91,17.25 14.5,17.25 Z"/>
  <path fill="#292D32" d="M17.56,21.25 L6.44,21.25 C2.46,21.25 1.25,20.05 1.25,16.11 L1.25,7.89 C1.25,3.95 2.46,2.75 6.44,2.75 L13.5,2.75 C13.91,2.75 14.25,3.09 14.25,3.5 C14.25,3.91 13.91,4.25 13.5,4.25 L6.44,4.25 C3.3,4.25 2.75,4.79 2.75,7.89 L2.75,16.1 C2.75,19.2 3.3,19.74 6.44,19.74 L17.55,19.74 C20.69,19.74 21.24,19.2 21.24,16.1 L21.24,11.02 C21.24,10.61 21.58,10.27 21.99,10.27 C22.4,10.27 22.74,10.61 22.74,11.02 L22.74,16.1 C22.75,20.05 21.54,21.25 17.56,21.25 Z"/>
  <path fill="#292D32" d="M18,8.25 C17.809,8.25 17.619,8.18 17.47,8.03 L15.97,6.53 C15.68,6.24 15.68,5.76 15.97,5.47 C16.259,5.18 16.739,5.18 17.029,5.47 L18,6.44 L21.47,2.97 C21.759,2.68 22.239,2.68 22.529,2.97 C22.82,3.26 22.82,3.74 22.529,4.03 L18.529,8.03 C18.38,8.18 18.189,8.25 18,8.25 Z"/>
</svg>

