<svg xmlns="http://www.w3.org/2000/svg" width="24" height="24" viewBox="0 0 24 24">
  <defs/>
  <path fill="#292D32" d="M2,7.75 L15.24,7.75 Q15.551,7.75 15.77,7.97 Q15.99,8.189 15.99,8.5 Q15.99,8.811 15.77,9.03 Q15.551,9.25 15.24,9.25 L2,9.25 Q1.689,9.25 1.47,9.03 Q1.25,8.811 1.25,8.5 Q1.25,8.189 1.47,7.97 Q1.689,7.75 2,7.75 Z"/>
  <path fill="#292D32" d="M6,15.75 L7.29,15.75 Q7.601,15.75 7.82,15.97 Q8.04,16.189 8.04,16.5 Q8.04,16.811 7.82,17.03 Q7.601,17.25 7.29,17.25 L6,17.25 Q5.689,17.25 5.47,17.03 Q5.25,16.811 5.25,16.5 Q5.25,16.189 5.47,15.97 Q5.689,15.75 6,15.75 Z"/>
  <path fill="#292D32" opacity="0.4" d="M11,15.75 L14.5,15.75 Q14.811,15.75 15.03,15.97 Q15.25,16.189 15.25,16.5 Q15.25,16.811 15.03,17.03 Q14.811,17.25 14.5,17.25 L11,17.25 Q10.689,17.25 10.47,17.03 Q10.25,16.811 10.25,16.5 Q10.25,16.189 10.47,15.97 Q10.689,15.75 11,15.75 Z"/>
  <path fill="#292D32" opacity="0.4" d="M7.98,19.75 L17.56,19.75 Q19.92,19.75 20.588,19.089 Q21.25,18.432 21.25,16.11 L21.25,6.89 Q21.25,6.579 21.47,6.36 Q21.69,6.14 22,6.14 Q22.311,6.14 22.531,6.36 Q22.75,6.579 22.75,6.89 L22.75,16.11 Q22.75,19.057 21.643,20.154 Q20.537,21.25 17.56,21.25 L7.98,21.25 Q7.67,21.25 7.45,21.03 Q7.23,20.811 7.23,20.5 Q7.23,20.189 7.45,19.97 Q7.67,19.75 7.98,19.75 Z"/>
  <path fill="#292D32" d="M19.781,4.47 Q19.022,4.25 17.56,4.25 L6.44,4.25 Q4.086,4.25 3.416,4.912 Q2.75,5.571 2.75,7.89 L2.75,16.1 Q2.75,18.946 3.985,19.432 Q4.274,19.546 4.398,19.831 Q4.522,20.116 4.408,20.405 Q4.294,20.694 4.009,20.818 Q3.724,20.942 3.435,20.828 Q1.25,19.967 1.25,16.1 L1.25,7.89 Q1.25,4.944 2.361,3.845 Q3.469,2.75 6.44,2.75 L17.56,2.75 Q19.236,2.75 20.199,3.03 Q20.497,3.116 20.647,3.389 Q20.797,3.661 20.71,3.959 Q20.624,4.257 20.351,4.407 Q20.079,4.557 19.781,4.47 Z"/>
  <path fill="#292D32" d="M22.53,2.53 L2.53,22.53 Q2.311,22.75 2,22.75 Q1.689,22.75 1.47,22.53 Q1.25,22.311 1.25,22 Q1.25,21.689 1.47,21.47 L21.47,1.47 Q21.689,1.25 22,1.25 Q22.311,1.25 22.53,1.47 Q22.75,1.689 22.75,2 Q22.75,2.311 22.53,2.53 Z"/>
</svg>

