<svg xmlns="http://www.w3.org/2000/svg" width="24" height="24" viewBox="0 0 24 24">
  <defs/>
  <path fill="#292D32" d="M15.22,6.551 L5.78,6.551 C5.5,6.551 5.24,6.561 5,6.571 C2.63,6.711 2,7.581 2,10.281 L2,10.861 C2,11.411 2.45,11.861 3,11.861 L18,11.861 C18.55,11.861 19,11.411 19,10.861 L19,10.281 C19,7.301 18.24,6.551 15.22,6.551 Z"/>
  <path fill="#292D32" d="M3,13.359 C2.45,13.359 2,13.809 2,14.359 L2,17.269 C2,20.249 2.76,20.999 5.78,20.999 L15.22,20.999 C18.19,20.999 18.97,20.279 19,17.429 L19,14.359 C19,13.809 18.55,13.359 18,13.359 L3,13.359 Z M6.96,18.559 L5.25,18.559 C4.84,18.559 4.5,18.219 4.5,17.809 C4.5,17.399 4.84,17.059 5.25,17.059 L6.97,17.059 C7.38,17.059 7.72,17.399 7.72,17.809 C7.72,18.219 7.38,18.559 6.96,18.559 Z M12.55,18.559 L9.11,18.559 C8.7,18.559 8.36,18.219 8.36,17.809 C8.36,17.399 8.7,17.059 9.11,17.059 L12.55,17.059 C12.96,17.059 13.3,17.399 13.3,17.809 C13.3,18.219 12.97,18.559 12.55,18.559 Z"/>
  <path fill="#292D32" d="M22.002,13.332 L22.002,8.092 C22.002,4.962 20.212,3.602 17.512,3.602 L8.582,3.602 C7.822,3.602 7.142,3.712 6.542,3.942 C6.072,4.112 5.652,4.362 5.312,4.692 C5.132,4.862 5.272,5.142 5.532,5.142 L16.402,5.142 C18.652,5.142 20.472,6.962 20.472,9.212 L20.472,16.382 C20.472,16.632 20.742,16.772 20.922,16.592 C21.612,15.862 22.002,14.792 22.002,13.332 Z"/>
</svg>

