<svg xmlns="http://www.w3.org/2000/svg" width="24" height="24" viewBox="0 0 24 24">
  <defs/>
  <path fill="#292D32" opacity="0.4" d="M22,7.77 L22,9 L2,9 L2,7.54 C2,5.25 3.86,3.4 6.15,3.4 L16,3.4 L16,5.97 C16,7.24 16.76,8 18.03,8 L20.97,8 C21.37,8 21.71,7.93 22,7.77 Z"/>
  <path fill="#292D32" d="M2,9 L2,16.46 C2,18.75 3.86,20.6 6.15,20.6 L17.85,20.6 C20.14,20.6 22,18.75 22,16.46 L22,9 L2,9 Z M8,17.25 L6,17.25 C5.59,17.25 5.25,16.91 5.25,16.5 C5.25,16.09 5.59,15.75 6,15.75 L8,15.75 C8.41,15.75 8.75,16.09 8.75,16.5 C8.75,16.91 8.41,17.25 8,17.25 Z M14.5,17.25 L10.5,17.25 C10.09,17.25 9.75,16.91 9.75,16.5 C9.75,16.09 10.09,15.75 10.5,15.75 L14.5,15.75 C14.91,15.75 15.25,16.09 15.25,16.5 C15.25,16.91 14.91,17.25 14.5,17.25 Z"/>
  <path fill="#292D32" d="M20.97,1 L18.03,1 C16.76,1 16,1.76 16,3.03 L16,5.97 C16,7.24 16.76,8 18.03,8 L20.97,8 C22.24,8 23,7.24 23,5.97 L23,3.03 C23,1.76 22.24,1 20.97,1 Z M21.34,5.49 C21.45,5.62 21.51,5.76 21.51,5.93 C21.51,6.07 21.45,6.23 21.34,6.34 C21.11,6.57 20.72,6.57 20.49,6.34 L19.5,5.35 L18.52,6.35 C18.29,6.58 17.9,6.58 17.66,6.34 C17.43,6.11 17.43,5.72 17.66,5.49 L18.66,4.51 L17.67,3.52 C17.44,3.29 17.43,2.9 17.66,2.66 C17.89,2.42 18.28,2.43 18.52,2.67 L19.5,3.66 L20.5,2.66 C20.73,2.43 21.12,2.43 21.35,2.66 C21.46,2.79 21.51,2.94 21.52,3.1 C21.52,3.24 21.46,3.4 21.36,3.52 L20.36,4.52 L21.34,5.49 Z"/>
</svg>

