<svg xmlns="http://www.w3.org/2000/svg" width="24" height="24" viewBox="0 0 24 24">
  <defs/>
  <path fill="#292D32" d="M2,7.75 L11.5,7.75 Q11.811,7.75 12.03,7.97 Q12.25,8.189 12.25,8.5 Q12.25,8.811 12.03,9.03 Q11.811,9.25 11.5,9.25 L2,9.25 Q1.689,9.25 1.47,9.03 Q1.25,8.811 1.25,8.5 Q1.25,8.189 1.47,7.97 Q1.689,7.75 2,7.75 Z"/>
  <path fill="#292D32" d="M6,15.75 L8,15.75 Q8.311,15.75 8.53,15.97 Q8.75,16.189 8.75,16.5 Q8.75,16.811 8.53,17.03 Q8.311,17.25 8,17.25 L6,17.25 Q5.689,17.25 5.47,17.03 Q5.25,16.811 5.25,16.5 Q5.25,16.189 5.47,15.97 Q5.689,15.75 6,15.75 Z"/>
  <path fill="#292D32" d="M10.5,15.75 L14.5,15.75 Q14.811,15.75 15.03,15.97 Q15.25,16.189 15.25,16.5 Q15.25,16.811 15.03,17.03 Q14.811,17.25 14.5,17.25 L10.5,17.25 Q10.189,17.25 9.97,17.03 Q9.75,16.811 9.75,16.5 Q9.75,16.189 9.97,15.97 Q10.189,15.75 10.5,15.75 Z"/>
  <path fill="#292D32" d="M1.25,11.03 L1.25,7.89 Q1.25,4.944 2.361,3.845 Q3.469,2.75 6.44,2.75 L14.5,2.75 Q14.811,2.75 15.03,2.97 Q15.25,3.189 15.25,3.5 Q15.25,3.811 15.03,4.03 Q14.811,4.25 14.5,4.25 L6.44,4.25 Q4.086,4.25 3.416,4.912 Q2.75,5.571 2.75,7.89 L2.75,11.03 Q2.75,11.341 2.53,11.56 Q2.311,11.78 2,11.78 Q1.689,11.78 1.47,11.56 Q1.25,11.341 1.25,11.03 Z"/>
  <path fill="#292D32" d="M22.75,12.03 L22.75,16.11 Q22.75,19.056 21.639,20.155 Q20.531,21.25 17.56,21.25 L6.44,21.25 Q3.469,21.25 2.361,20.155 Q1.25,19.056 1.25,16.11 L1.25,15 Q1.25,14.689 1.47,14.47 Q1.689,14.25 2,14.25 Q2.311,14.25 2.53,14.47 Q2.75,14.689 2.75,15 L2.75,16.11 Q2.75,18.429 3.416,19.088 Q4.086,19.75 6.44,19.75 L17.56,19.75 Q19.914,19.75 20.584,19.088 Q21.25,18.429 21.25,16.11 L21.25,12.03 Q21.25,11.719 21.47,11.5 Q21.689,11.28 22,11.28 Q22.311,11.28 22.53,11.5 Q22.75,11.719 22.75,12.03 Z"/>
  <path fill="#292D32" d="M18.55,3.6 Q20.24,1.909 21.941,3.61 Q22.845,4.514 22.749,5.486 Q22.674,6.257 21.941,6.99 L18.231,10.7 Q17.801,11.13 17.185,11.223 L15.762,11.423 Q15.011,11.526 14.512,11.028 Q14.014,10.53 14.118,9.775 L14.319,8.349 Q14.41,7.74 14.84,7.31 Z M19.611,4.66 L15.901,8.37 Q15.82,8.451 15.802,8.571 L15.611,9.93 L16.976,9.737 Q17.089,9.72 17.17,9.64 L20.88,5.93 Q21.233,5.577 21.256,5.339 Q21.283,5.073 20.88,4.67 Q20.24,4.031 19.611,4.66 Z"/>
  <path fill="#292D32" d="M19.272,4.456 Q19.673,5.87 21.071,6.257 Q21.37,6.34 21.523,6.61 Q21.676,6.881 21.594,7.18 Q21.511,7.479 21.24,7.632 Q20.97,7.786 20.671,7.703 Q18.46,7.091 17.829,4.864 Q17.745,4.565 17.896,4.294 Q18.048,4.023 18.346,3.938 Q18.645,3.854 18.917,4.005 Q19.188,4.157 19.272,4.456 Z"/>
</svg>

