<svg xmlns="http://www.w3.org/2000/svg" width="24" height="24" viewBox="0 0 24 24">
  <defs/>
  <path fill="#292D32" d="M21.9,10.78 L1.9,10.78 C1.49,10.78 1.15,10.44 1.15,10.03 C1.15,9.62 1.49,9.28 1.9,9.28 L21.9,9.28 C22.31,9.28 22.65,9.62 22.65,10.03 C22.65,10.44 22.32,10.78 21.9,10.78 Z"/>
  <path fill="#292D32" d="M11.46,21.28 L6.35,21.28 C2.37,21.28 1.15,20.08 1.15,16.14 L1.15,7.92 C1.15,4.77 1.82,3.02 5.39,2.81 C5.7,2.8 6.01,2.79 6.35,2.79 L17.46,2.79 C21.44,2.79 22.66,3.99 22.66,7.93 L22.66,12.34 C22.66,12.75 22.32,13.09 21.91,13.09 C21.5,13.09 21.16,12.75 21.16,12.34 L21.16,7.93 C21.16,4.84 20.61,4.29 17.46,4.29 L6.35,4.29 C6.03,4.29 5.74,4.3 5.46,4.31 C3.29,4.44 2.65,4.93 2.65,7.93 L2.65,16.15 C2.65,19.24 3.2,19.79 6.35,19.79 L11.46,19.79 C11.87,19.79 12.21,20.13 12.21,20.54 C12.21,20.95 11.87,21.28 11.46,21.28 Z"/>
  <path fill="#292D32" d="M17.9,22.78 C15.28,22.78 13.15,20.65 13.15,18.03 C13.15,15.41 15.28,13.28 17.9,13.28 C20.52,13.28 22.65,15.41 22.65,18.03 C22.65,20.65 20.52,22.78 17.9,22.78 Z M17.9,14.78 C16.11,14.78 14.65,16.24 14.65,18.03 C14.65,19.82 16.11,21.28 17.9,21.28 C19.69,21.28 21.15,19.82 21.15,18.03 C21.15,16.24 19.69,14.78 17.9,14.78 Z"/>
  <path fill="#292D32" d="M18.971,19.9 C18.781,19.9 18.591,19.83 18.441,19.68 L16.331,17.57 C16.041,17.28 16.041,16.8 16.331,16.51 C16.621,16.22 17.101,16.22 17.391,16.51 L19.501,18.62 C19.791,18.91 19.791,19.39 19.501,19.68 C19.361,19.82 19.161,19.9 18.971,19.9 Z"/>
  <path fill="#292D32" d="M16.83,19.92 C16.64,19.92 16.45,19.85 16.299,19.7 C16.009,19.41 16.009,18.93 16.299,18.64 L18.41,16.53 C18.7,16.24 19.18,16.24 19.47,16.53 C19.759,16.82 19.759,17.3 19.47,17.59 L17.36,19.7 C17.22,19.85 17.03,19.92 16.83,19.92 Z"/>
  <path fill="#292D32" d="M9.9,16.78 L5.9,16.78 C5.49,16.78 5.15,16.44 5.15,16.03 C5.15,15.62 5.49,15.28 5.9,15.28 L9.9,15.28 C10.31,15.28 10.65,15.62 10.65,16.03 C10.65,16.44 10.32,16.78 9.9,16.78 Z"/>
</svg>

