<svg xmlns="http://www.w3.org/2000/svg" width="24" height="24" viewBox="0 0 24 24">
  <defs/>
  <path fill="#292D32" d="M12,17.81 L2,17.81 C1.59,17.81 1.25,17.47 1.25,17.06 C1.25,16.65 1.59,16.31 2,16.31 L12,16.31 C12.41,16.31 12.75,16.65 12.75,17.06 C12.75,17.48 12.41,17.81 12,17.81 Z"/>
  <path fill="#292D32" d="M9.78,22.75 L4.23,22.75 C2.04,22.75 1.26,21.98 1.26,19.8 L1.26,15.7 C1.26,13.52 2.04,12.75 4.23,12.75 L9.78,12.75 C11.97,12.75 12.75,13.52 12.75,15.7 L12.75,19.81 C12.75,21.98 11.97,22.75 9.78,22.75 Z M4.22,14.25 C2.86,14.25 2.75,14.36 2.75,15.7 L2.75,19.81 C2.75,21.15 2.86,21.26 4.22,21.26 L9.77,21.26 C11.13,21.26 11.24,21.15 11.24,19.81 L11.24,15.7 C11.24,14.36 11.13,14.25 9.77,14.25 L4.22,14.25 Z"/>
  <path fill="#292D32" d="M15,22.75 C14.73,22.75 14.48,22.6 14.35,22.37 C14.22,22.13 14.22,21.85 14.36,21.61 L15.41,19.86 C15.62,19.51 16.08,19.39 16.44,19.6 C16.8,19.81 16.91,20.27 16.7,20.63 L16.43,21.08 C19.19,20.43 21.26,17.95 21.26,14.99 C21.26,14.58 21.6,14.24 22.01,14.24 C22.42,14.24 22.76,14.58 22.76,14.99 C22.75,19.27 19.27,22.75 15,22.75 Z"/>
  <path fill="#292D32" d="M2,9.75 C1.59,9.75 1.25,9.41 1.25,9 C1.25,4.73 4.73,1.25 9,1.25 C9.27,1.25 9.52,1.4 9.65,1.63 C9.78,1.87 9.78,2.15 9.64,2.39 L8.59,4.14 C8.38,4.49 7.92,4.61 7.56,4.4 C7.2,4.19 7.09,3.73 7.3,3.37 L7.57,2.92 C4.81,3.57 2.74,6.05 2.74,9.01 C2.75,9.41 2.41,9.75 2,9.75 Z"/>
  <path fill="#292D32" d="M18.5,11.75 C15.61,11.75 13.25,9.4 13.25,6.5 C13.25,3.6 15.6,1.25 18.5,1.25 C21.4,1.25 23.75,3.6 23.75,6.5 C23.75,9.4 21.39,11.75 18.5,11.75 Z M18.5,2.75 C16.43,2.75 14.75,4.43 14.75,6.5 C14.75,8.57 16.43,10.25 18.5,10.25 C20.57,10.25 22.25,8.57 22.25,6.5 C22.25,4.43 20.57,2.75 18.5,2.75 Z"/>
</svg>

