<svg xmlns="http://www.w3.org/2000/svg" width="24" height="24" viewBox="0 0 24 24">
  <defs/>
  <path fill="#292D32" opacity="0.4" d="M22,7.77 L22,9 L2,9 L2,7.54 C2,5.25 3.86,3.4 6.15,3.4 L16,3.4 L16,5.97 C16,7.24 16.76,8 18.03,8 L20.97,8 C21.37,8 21.71,7.93 22,7.77 Z"/>
  <path fill="#292D32" d="M2,9 L2,16.46 C2,18.75 3.86,20.6 6.15,20.6 L17.85,20.6 C20.14,20.6 22,18.75 22,16.46 L22,9 L2,9 Z M8,17.25 L6,17.25 C5.59,17.25 5.25,16.91 5.25,16.5 C5.25,16.09 5.59,15.75 6,15.75 L8,15.75 C8.41,15.75 8.75,16.09 8.75,16.5 C8.75,16.91 8.41,17.25 8,17.25 Z M14.5,17.25 L10.5,17.25 C10.09,17.25 9.75,16.91 9.75,16.5 C9.75,16.09 10.09,15.75 10.5,15.75 L14.5,15.75 C14.91,15.75 15.25,16.09 15.25,16.5 C15.25,16.91 14.91,17.25 14.5,17.25 Z"/>
  <path fill="#292D32" d="M20.97,1 L18.03,1 C16.76,1 16,1.76 16,3.03 L16,5.97 C16,7.24 16.76,8 18.03,8 L20.97,8 C22.24,8 23,7.24 23,5.97 L23,3.03 C23,1.76 22.24,1 20.97,1 Z M21.91,4.93 C21.81,5.03 21.66,5.1 21.5,5.11 L20.09,5.11 L20.1,6.5 C20.09,6.67 20.03,6.81 19.91,6.93 C19.81,7.03 19.66,7.1 19.5,7.1 C19.17,7.1 18.9,6.83 18.9,6.5 L18.9,5.1 L17.5,5.11 C17.17,5.11 16.9,4.83 16.9,4.5 C16.9,4.17 17.17,3.9 17.5,3.9 L18.9,3.91 L18.9,2.51 C18.9,2.18 19.17,1.9 19.5,1.9 C19.83,1.9 20.1,2.18 20.1,2.51 L20.09,3.9 L21.5,3.9 C21.83,3.9 22.1,4.17 22.1,4.5 C22.09,4.67 22.02,4.81 21.91,4.93 Z"/>
</svg>

