<svg xmlns="http://www.w3.org/2000/svg" width="24" height="24" viewBox="0 0 24 24">
  <defs/>
  <path d="M13.75,10.5 C12.92,10.5 12.25,9.83 12.25,9 C12.25,8.17 12.92,7.5 13.75,7.5 C14.58,7.5 15.25,8.17 15.25,9 C15.25,9.83 14.58,10.5 13.75,10.5 Z M13.75,8.5 C13.47,8.5 13.25,8.72 13.25,9 C13.25,9.28 13.47,9.5 13.75,9.5 C14.03,9.5 14.25,9.28 14.25,9 C14.25,8.72 14.03,8.5 13.75,8.5 Z"/>
  <path d="M10.25,10.5 C9.42,10.5 8.75,9.83 8.75,9 C8.75,8.17 9.42,7.5 10.25,7.5 C11.08,7.5 11.75,8.17 11.75,9 C11.75,9.83 11.08,10.5 10.25,10.5 Z M10.25,8.5 C9.97,8.5 9.75,8.72 9.75,9 C9.75,9.28 9.97,9.5 10.25,9.5 C10.53,9.5 10.75,9.28 10.75,9 C10.75,8.72 10.53,8.5 10.25,8.5 Z"/>
  <path d="M15.5,13.5 C14.67,13.5 14,12.83 14,12 C14,11.17 14.67,10.5 15.5,10.5 C16.33,10.5 17,11.17 17,12 C17,12.83 16.33,13.5 15.5,13.5 Z M15.5,11.5 C15.22,11.5 15,11.72 15,12 C15,12.28 15.22,12.5 15.5,12.5 C15.78,12.5 16,12.28 16,12 C16,11.72 15.78,11.5 15.5,11.5 Z"/>
  <path d="M17.15,10.25 C16.46,10.25 15.9,9.69 15.9,9 C15.9,8.31 16.46,7.75 17.15,7.75 C17.84,7.75 18.4,8.31 18.4,9 C18.4,9.69 17.84,10.25 17.15,10.25 Z M17.15,8.75 C17.01,8.75 16.9,8.86 16.9,9 C16.9,9.28 17.4,9.28 17.4,9 C17.4,8.86 17.29,8.75 17.15,8.75 Z"/>
  <path d="M17.15,16.25 C16.46,16.25 15.9,15.69 15.9,15 C15.9,14.31 16.46,13.75 17.15,13.75 C17.84,13.75 18.4,14.31 18.4,15 C18.4,15.69 17.84,16.25 17.15,16.25 Z M17.15,14.75 C17.01,14.75 16.9,14.86 16.9,15 C16.9,15.28 17.4,15.28 17.4,15 C17.4,14.86 17.29,14.75 17.15,14.75 Z"/>
  <path d="M19.75,13.25 C19.06,13.25 18.5,12.69 18.5,12 C18.5,11.31 19.06,10.75 19.75,10.75 C20.44,10.75 21,11.31 21,12 C21,12.69 20.44,13.25 19.75,13.25 Z M19.75,11.75 C19.61,11.75 19.5,11.86 19.5,12 C19.5,12.28 20,12.28 20,12 C20,11.86 19.89,11.75 19.75,11.75 Z"/>
  <path d="M6.8,10.25 C6.11,10.25 5.55,9.69 5.55,9 C5.55,8.31 6.11,7.75 6.8,7.75 C7.49,7.75 8.05,8.31 8.05,9 C8.05,9.69 7.49,10.25 6.8,10.25 Z M6.8,8.75 C6.66,8.75 6.55,8.86 6.55,9 C6.55,9.28 7.05,9.28 7.05,9 C7.05,8.86 6.94,8.75 6.8,8.75 Z"/>
  <path d="M6.8,16.25 C6.11,16.25 5.55,15.69 5.55,15 C5.55,14.31 6.11,13.75 6.8,13.75 C7.49,13.75 8.05,14.31 8.05,15 C8.05,15.69 7.49,16.25 6.8,16.25 Z M6.8,14.75 C6.66,14.75 6.55,14.86 6.55,15 C6.55,15.28 7.05,15.28 7.05,15 C7.05,14.86 6.94,14.75 6.8,14.75 Z"/>
  <path d="M4.2,13.25 C3.51,13.25 2.95,12.69 2.95,12 C2.95,11.31 3.51,10.75 4.2,10.75 C4.89,10.75 5.45,11.31 5.45,12 C5.45,12.69 4.89,13.25 4.2,13.25 Z M4.2,11.75 C4.06,11.75 3.95,11.86 3.95,12 C3.95,12.28 4.45,12.28 4.45,12 C4.45,11.86 4.34,11.75 4.2,11.75 Z"/>
  <path d="M15.9,6.45 C15.21,6.45 14.65,5.89 14.65,5.2 C14.65,4.51 15.21,3.95 15.9,3.95 C16.59,3.95 17.15,4.51 17.15,5.2 C17.15,5.89 16.59,6.45 15.9,6.45 Z M15.9,4.95 C15.76,4.95 15.65,5.06 15.65,5.2 C15.65,5.48 16.15,5.48 16.15,5.2 C16.15,5.06 16.04,4.95 15.9,4.95 Z"/>
  <path d="M8.1,6.45 C7.41,6.45 6.85,5.89 6.85,5.2 C6.85,4.51 7.41,3.95 8.1,3.95 C8.79,3.95 9.35,4.51 9.35,5.2 C9.35,5.89 8.79,6.45 8.1,6.45 Z M8.1,4.95 C7.96,4.95 7.85,5.06 7.85,5.2 C7.85,5.48 8.35,5.48 8.35,5.2 C8.35,5.06 8.24,4.95 8.1,4.95 Z"/>
  <path d="M12.05,7.25 C11.36,7.25 10.8,6.69 10.8,6 C10.8,5.31 11.36,4.75 12.05,4.75 C12.74,4.75 13.3,5.31 13.3,6 C13.3,6.69 12.74,7.25 12.05,7.25 Z M12.05,5.75 C11.91,5.75 11.8,5.86 11.8,6 C11.8,6.28 12.3,6.28 12.3,6 C12.3,5.86 12.19,5.75 12.05,5.75 Z"/>
  <path d="M15.9,20.25 C15.21,20.25 14.65,19.69 14.65,19 C14.65,18.31 15.21,17.75 15.9,17.75 C16.59,17.75 17.15,18.31 17.15,19 C17.15,19.69 16.59,20.25 15.9,20.25 Z M15.9,18.75 C15.76,18.75 15.65,18.86 15.65,19 C15.65,19.28 16.15,19.28 16.15,19 C16.15,18.86 16.04,18.75 15.9,18.75 Z"/>
  <path d="M8.1,20.25 C7.41,20.25 6.85,19.69 6.85,19 C6.85,18.31 7.41,17.75 8.1,17.75 C8.79,17.75 9.35,18.31 9.35,19 C9.35,19.69 8.79,20.25 8.1,20.25 Z M8.1,18.75 C7.96,18.75 7.85,18.86 7.85,19 C7.85,19.28 8.35,19.28 8.35,19 C8.35,18.86 8.24,18.75 8.1,18.75 Z"/>
  <path d="M12.05,19.45 C11.36,19.45 10.8,18.89 10.8,18.2 C10.8,17.51 11.36,16.95 12.05,16.95 C12.74,16.95 13.3,17.51 13.3,18.2 C13.3,18.89 12.74,19.45 12.05,19.45 Z M12.05,17.95 C11.91,17.95 11.8,18.06 11.8,18.2 C11.8,18.48 12.3,18.48 12.3,18.2 C12.3,18.06 12.19,17.95 12.05,17.95 Z"/>
  <path d="M8.5,13.5 C7.67,13.5 7,12.83 7,12 C7,11.17 7.67,10.5 8.5,10.5 C9.33,10.5 10,11.17 10,12 C10,12.83 9.33,13.5 8.5,13.5 Z M8.5,11.5 C8.22,11.5 8,11.72 8,12 C8,12.28 8.22,12.5 8.5,12.5 C8.78,12.5 9,12.28 9,12 C9,11.72 8.78,11.5 8.5,11.5 Z"/>
  <path d="M10.25,16.5 C9.42,16.5 8.75,15.83 8.75,15 C8.75,14.17 9.42,13.5 10.25,13.5 C11.08,13.5 11.75,14.17 11.75,15 C11.75,15.83 11.08,16.5 10.25,16.5 Z M10.25,14.5 C9.97,14.5 9.75,14.72 9.75,15 C9.75,15.28 9.97,15.5 10.25,15.5 C10.53,15.5 10.75,15.28 10.75,15 C10.75,14.72 10.53,14.5 10.25,14.5 Z"/>
  <path d="M13.75,16.5 C12.92,16.5 12.25,15.83 12.25,15 C12.25,14.17 12.92,13.5 13.75,13.5 C14.58,13.5 15.25,14.17 15.25,15 C15.25,15.83 14.58,16.5 13.75,16.5 Z M13.75,14.5 C13.47,14.5 13.25,14.72 13.25,15 C13.25,15.28 13.47,15.5 13.75,15.5 C14.03,15.5 14.25,15.28 14.25,15 C14.25,14.72 14.03,14.5 13.75,14.5 Z"/>
  <path d="M12,3.45 C11.44,3.45 10.99,3 10.99,2.45 C10.99,1.9 11.44,1.45 11.99,1.45 C12.54,1.45 12.99,1.9 12.99,2.45 C12.99,3 12.56,3.45 12,3.45 Z"/>
  <path d="M17.25,3.6 C16.83,3.6 16.49,3.26 16.49,2.85 C16.49,2.44 16.83,2.1 17.24,2.1 C17.65,2.1 18,2.44 18,2.85 C18,3.26 17.67,3.6 17.25,3.6 Z"/>
  <path d="M6.75,3.6 C6.34,3.6 6,3.26 6,2.85 C6,2.44 6.33,2.1 6.75,2.1 L6.76,2.1 C7.17,2.1 7.51,2.44 7.51,2.85 C7.51,3.26 7.17,3.6 6.75,3.6 Z"/>
  <path d="M12,22.5 C11.44,22.5 10.99,22.05 10.99,21.5 C10.99,20.95 11.44,20.5 11.99,20.5 C12.54,20.5 12.99,20.95 12.99,21.5 C12.99,22.05 12.56,22.5 12,22.5 Z"/>
  <path d="M17.25,21.85 C16.83,21.85 16.49,21.51 16.49,21.1 C16.49,20.69 16.83,20.35 17.24,20.35 C17.65,20.35 18,20.69 18,21.1 C18,21.51 17.67,21.85 17.25,21.85 Z"/>
  <path d="M6.75,21.85 C6.34,21.85 6,21.51 6,21.1 C6,20.69 6.33,20.35 6.75,20.35 L6.76,20.35 C7.17,20.35 7.51,20.69 7.51,21.1 C7.51,21.51 7.17,21.85 6.75,21.85 Z"/>
  <path d="M1.55,13 C1,13 0.55,12.56 0.55,12 C0.55,11.45 1,11 1.55,11 C2.1,11 2.55,11.45 2.55,12 C2.55,12.55 2.1,13 1.55,13 Z"/>
  <path d="M3.75,17.75 C3.34,17.75 3,17.42 3,17 L3,16.99 C3,16.58 3.34,16.24 3.75,16.24 C4.16,16.24 4.5,16.58 4.5,16.99 C4.5,17.4 4.16,17.75 3.75,17.75 Z"/>
  <path d="M3.75,7.76 C3.34,7.76 3,7.42 3,7.01 C3,6.6 3.34,6.26 3.75,6.26 C4.16,6.26 4.5,6.59 4.5,7 L4.5,7.01 C4.5,7.42 4.16,7.76 3.75,7.76 Z"/>
  <path d="M22.5,13 C21.95,13 21.5,12.56 21.5,12 C21.5,11.45 21.95,11 22.5,11 C23.05,11 23.5,11.45 23.5,12 C23.5,12.55 23.05,13 22.5,13 Z"/>
  <path d="M20.3,17.75 C19.89,17.75 19.55,17.42 19.55,17 L19.55,16.99 C19.55,16.58 19.89,16.24 20.3,16.24 C20.71,16.24 21.05,16.58 21.05,16.99 C21.05,17.4 20.71,17.75 20.3,17.75 Z"/>
  <path d="M20.3,7.76 C19.89,7.76 19.55,7.42 19.55,7.01 C19.55,6.6 19.89,6.26 20.3,6.26 C20.71,6.26 21.05,6.59 21.05,7.01 L21.05,7.02 C21.05,7.42 20.71,7.76 20.3,7.76 Z"/>
</svg>

