<svg xmlns="http://www.w3.org/2000/svg" width="24" height="24" viewBox="0 0 24 24">
  <defs/>
  <path fill="#292D32" d="M19.27,3.648 L14.17,8.748 L3.2,8.748 C2.54,8.748 2,8.208 2,7.548 L2,7.538 C2,5.248 3.85,3.398 6.14,3.398 L17.85,3.398 C18.35,3.398 18.83,3.488 19.27,3.648 Z"/>
  <path fill="#292D32" d="M12.67,10.25 L7.17,15.75 L6,15.75 C5.59,15.75 5.25,16.09 5.25,16.5 C5.25,16.81 5.45,17.09 5.73,17.19 L3.38,19.54 C2.53,18.79 2,17.69 2,16.46 L2,11.45 C2,10.79 2.54,10.25 3.2,10.25 L12.67,10.25 Z"/>
  <path fill="#292D32" d="M21.999,11 L21.999,16.46 C21.999,18.75 20.149,20.6 17.859,20.6 L8.809,20.6 C7.919,20.6 7.469,19.52 8.099,18.89 L9.449,17.54 C9.639,17.35 9.889,17.25 10.159,17.25 L14.499,17.25 C14.909,17.25 15.249,16.91 15.249,16.5 C15.249,16.09 14.909,15.75 14.499,15.75 L13.659,15.75 C12.769,15.75 12.319,14.67 12.949,14.04 L16.409,10.58 C16.789,10.21 17.299,10 17.829,10 L20.999,10 C21.549,10 21.999,10.45 21.999,11 Z"/>
  <path fill="#292D32" d="M21.769,2.229 C21.469,1.929 20.979,1.929 20.679,2.229 L2.229,20.689 C1.929,20.989 1.929,21.479 2.229,21.779 C2.379,21.919 2.569,21.999 2.769,21.999 C2.969,21.999 3.159,21.919 3.309,21.769 L21.769,3.309 C22.079,3.009 22.079,2.529 21.769,2.229 Z"/>
  <path fill="#292D32" d="M21.769,3.309 L20.609,4.469 L16.329,8.749 L3.309,21.769 C3.159,21.919 2.969,21.999 2.769,21.999 C2.569,21.999 2.379,21.919 2.229,21.769 C1.919,21.469 1.919,20.989 2.229,20.689 L3.379,19.539 L5.729,17.189 L19.269,3.649 L20.689,2.229 C20.989,1.919 21.469,1.919 21.769,2.229 C22.079,2.529 22.079,3.009 21.769,3.309 Z"/>
  <path fill="#292D32" d="M22,7.41 C22,6.52 20.921,6.07 20.291,6.7 L20,7 L19.71,7.29 C19.081,7.92 19.52,9 20.41,9 L21,9 C21.55,9 22,8.55 22,8 L22,7.41 Z"/>
</svg>

