<svg xmlns="http://www.w3.org/2000/svg" width="24" height="24" viewBox="0 0 24 24">
  <defs/>
  <path fill="#292D32" d="M1.996,7.75 L11.496,7.75 Q11.807,7.75 12.026,7.97 Q12.246,8.189 12.246,8.5 Q12.246,8.811 12.026,9.03 Q11.807,9.25 11.496,9.25 L1.996,9.25 Q1.685,9.25 1.466,9.03 Q1.246,8.811 1.246,8.5 Q1.246,8.189 1.466,7.97 Q1.685,7.75 1.996,7.75 Z"/>
  <path fill="#292D32" opacity="0.4" d="M5.996,15.75 L7.996,15.75 Q8.307,15.75 8.526,15.97 Q8.746,16.189 8.746,16.5 Q8.746,16.811 8.526,17.03 Q8.307,17.25 7.996,17.25 L5.996,17.25 Q5.685,17.25 5.466,17.03 Q5.246,16.811 5.246,16.5 Q5.246,16.189 5.466,15.97 Q5.685,15.75 5.996,15.75 Z"/>
  <path fill="#292D32" opacity="0.4" d="M10.496,15.75 L14.496,15.75 Q14.807,15.75 15.026,15.97 Q15.246,16.189 15.246,16.5 Q15.246,16.811 15.026,17.03 Q14.807,17.25 14.496,17.25 L10.496,17.25 Q10.185,17.25 9.966,17.03 Q9.746,16.811 9.746,16.5 Q9.746,16.189 9.966,15.97 Q10.185,15.75 10.496,15.75 Z"/>
  <path fill="#292D32" d="M22.746,12.03 L22.746,16.11 Q22.746,19.056 21.635,20.155 Q20.527,21.25 17.556,21.25 L6.436,21.25 Q3.465,21.25 2.358,20.155 Q1.246,19.056 1.246,16.11 L1.246,7.89 Q1.246,4.944 2.358,3.845 Q3.465,2.75 6.436,2.75 L14.496,2.75 Q14.807,2.75 15.026,2.97 Q15.246,3.189 15.246,3.5 Q15.246,3.811 15.026,4.03 Q14.807,4.25 14.496,4.25 L6.436,4.25 Q4.082,4.25 3.412,4.912 Q2.746,5.571 2.746,7.89 L2.746,16.11 Q2.746,18.429 3.412,19.088 Q4.082,19.75 6.436,19.75 L17.556,19.75 Q19.91,19.75 20.58,19.088 Q21.246,18.429 21.246,16.11 L21.246,12.03 Q21.246,11.719 21.466,11.5 Q21.685,11.28 21.996,11.28 Q22.307,11.28 22.526,11.5 Q22.746,11.719 22.746,12.03 Z"/>
  <g opacity="0.4">
    <path fill="#292D32" d="M18.546,3.6 Q20.236,1.91 21.937,3.61 Q23.627,5.3 21.937,6.991 L18.227,10.701 Q17.797,11.131 17.181,11.223 L15.758,11.423 Q15.007,11.526 14.509,11.028 Q14.01,10.53 14.114,9.776 L14.315,8.349 Q14.406,7.74 14.836,7.31 Z M19.607,4.661 L15.897,8.371 Q15.816,8.451 15.798,8.572 L15.607,9.93 L16.972,9.738 Q17.085,9.721 17.166,9.64 L20.876,5.93 Q21.506,5.3 20.876,4.671 Q20.236,4.031 19.607,4.661 Z"/>
    <path fill="#292D32" d="M19.269,4.456 Q19.669,5.87 21.067,6.257 Q21.366,6.34 21.519,6.611 Q21.673,6.881 21.59,7.18 Q21.507,7.48 21.237,7.633 Q20.966,7.786 20.667,7.703 Q18.456,7.091 17.825,4.865 Q17.741,4.566 17.892,4.294 Q18.044,4.023 18.343,3.939 Q18.641,3.854 18.913,4.005 Q19.184,4.157 19.269,4.456 Z"/>
  </g>
</svg>

