<svg xmlns="http://www.w3.org/2000/svg" width="24" height="24" viewBox="0 0 24 24">
  <defs/>
  <path fill="#292D32" d="M3.399,15.35 L15.349,3.4 Q15.569,3.18 15.88,3.18 Q16.19,3.18 16.41,3.4 Q16.63,3.619 16.63,3.93 Q16.63,4.241 16.41,4.46 L4.46,16.41 Q4.24,16.63 3.93,16.63 Q3.619,16.63 3.399,16.41 Q3.18,16.191 3.18,15.88 Q3.18,15.569 3.399,15.35 Z"/>
  <path fill="#292D32" d="M10.569,17.75 L11.769,16.55 Q11.989,16.33 12.3,16.33 Q12.61,16.33 12.83,16.55 Q13.05,16.769 13.05,17.08 Q13.05,17.391 12.83,17.61 L11.63,18.81 Q11.41,19.03 11.1,19.03 Q10.789,19.03 10.569,18.81 Q10.35,18.591 10.35,18.28 Q10.35,17.969 10.569,17.75 Z"/>
  <path fill="#292D32" d="M13.259,15.06 L15.649,12.67 Q15.868,12.45 16.179,12.45 Q16.49,12.45 16.709,12.67 Q16.929,12.889 16.929,13.2 Q16.929,13.511 16.709,13.73 L14.319,16.12 Q14.1,16.34 13.789,16.34 Q13.478,16.34 13.259,16.12 Q13.039,15.901 13.039,15.59 Q13.039,15.279 13.259,15.06 Z"/>
  <path fill="#292D32" d="M20.96,7.95 Q24.115,11.105 20.93,14.29 L14.29,20.93 Q11.105,24.116 7.949,20.96 L3.039,16.05 Q1.243,14.255 1.252,12.883 Q1.261,11.518 3.069,9.71 L9.709,3.07 Q12.894,-0.116 16.05,3.04 L17.95,4.94 Q18.17,5.159 18.17,5.47 Q18.17,5.781 17.95,6 Q17.73,6.22 17.419,6.22 Q17.109,6.22 16.889,6 L14.989,4.1 Q13.637,2.748 12.892,2.752 Q12.143,2.757 10.77,4.13 L4.13,10.77 Q2.757,12.143 2.752,12.892 Q2.747,13.637 4.1,14.99 L9.01,19.9 Q10.362,21.252 11.107,21.248 Q11.856,21.243 13.229,19.87 L19.869,13.23 Q21.242,11.857 21.247,11.108 Q21.252,10.363 19.899,9.01 Q19.679,8.791 19.68,8.48 Q19.68,8.169 19.899,7.95 Q20.119,7.73 20.43,7.73 Q20.74,7.73 20.96,7.95 Z"/>
  <path fill="#292D32" d="M2,21.25 L22,21.25 Q22.311,21.25 22.53,21.47 Q22.75,21.689 22.75,22 Q22.75,22.311 22.53,22.53 Q22.311,22.75 22,22.75 L2,22.75 Q1.689,22.75 1.47,22.53 Q1.25,22.311 1.25,22 Q1.25,21.689 1.47,21.47 Q1.689,21.25 2,21.25 Z"/>
</svg>

