<svg xmlns="http://www.w3.org/2000/svg" width="24" height="24" viewBox="0 0 24 24">
  <defs/>
  <path fill="#292D32" d="M14.5,9.25 L2,9.25 C1.59,9.25 1.25,8.91 1.25,8.5 C1.25,8.09 1.59,7.75 2,7.75 L14.5,7.75 C14.91,7.75 15.25,8.09 15.25,8.5 C15.25,8.91 14.91,9.25 14.5,9.25 Z"/>
  <path fill="#292D32" d="M8,17.25 L6,17.25 C5.59,17.25 5.25,16.91 5.25,16.5 C5.25,16.09 5.59,15.75 6,15.75 L8,15.75 C8.41,15.75 8.75,16.09 8.75,16.5 C8.75,16.91 8.41,17.25 8,17.25 Z"/>
  <path fill="#292D32" d="M14.5,17.25 L10.5,17.25 C10.09,17.25 9.75,16.91 9.75,16.5 C9.75,16.09 10.09,15.75 10.5,15.75 L14.5,15.75 C14.91,15.75 15.25,16.09 15.25,16.5 C15.25,16.91 14.91,17.25 14.5,17.25 Z"/>
  <path fill="#292D32" d="M17.56,21.25 L6.44,21.25 C2.46,21.25 1.25,20.05 1.25,16.11 L1.25,7.89 C1.25,3.95 2.46,2.75 6.44,2.75 L14.5,2.75 C14.91,2.75 15.25,3.09 15.25,3.5 C15.25,3.91 14.91,4.25 14.5,4.25 L6.44,4.25 C3.3,4.25 2.75,4.79 2.75,7.89 L2.75,16.1 C2.75,19.2 3.3,19.74 6.44,19.74 L17.55,19.74 C20.69,19.74 21.24,19.2 21.24,16.1 L21.24,14.02 C21.24,13.61 21.58,13.27 21.99,13.27 C22.4,13.27 22.74,13.61 22.74,14.02 L22.74,16.1 C22.75,20.05 21.54,21.25 17.56,21.25 Z"/>
  <path fill="#292D32" d="M20,10.25 C19.9,10.25 19.81,10.23 19.71,10.19 C19.43,10.07 19.25,9.8 19.25,9.5 L19.25,3.5 C19.25,3.09 19.59,2.75 20,2.75 C20.41,2.75 20.75,3.09 20.75,3.5 L20.75,7.69 L21.47,6.97 C21.76,6.68 22.24,6.68 22.53,6.97 C22.82,7.26 22.82,7.74 22.53,8.03 L20.53,10.03 C20.39,10.17 20.2,10.25 20,10.25 Z"/>
  <path fill="#292D32" d="M20,10.25 C19.809,10.25 19.619,10.18 19.47,10.03 L17.47,8.03 C17.18,7.74 17.18,7.26 17.47,6.97 C17.759,6.68 18.239,6.68 18.529,6.97 L20.529,8.97 C20.82,9.26 20.82,9.74 20.529,10.03 C20.38,10.18 20.189,10.25 20,10.25 Z"/>
</svg>

