<svg xmlns="http://www.w3.org/2000/svg" width="24" height="24" viewBox="0 0 24 24">
  <defs/>
  <path fill="#292D32" d="M3.929,16.63 C3.739,16.63 3.549,16.56 3.399,16.41 C3.109,16.12 3.109,15.64 3.399,15.35 L15.349,3.4 C15.639,3.11 16.119,3.11 16.409,3.4 C16.699,3.69 16.699,4.17 16.409,4.46 L4.459,16.42 C4.319,16.56 4.119,16.63 3.929,16.63 Z"/>
  <path fill="#292D32" d="M11.099,19.03 C10.909,19.03 10.719,18.96 10.569,18.81 C10.279,18.52 10.279,18.04 10.569,17.75 L11.769,16.55 C12.059,16.26 12.539,16.26 12.829,16.55 C13.119,16.84 13.119,17.32 12.829,17.61 L11.629,18.81 C11.489,18.95 11.299,19.03 11.099,19.03 Z"/>
  <path fill="#292D32" d="M13.79,16.34 C13.601,16.34 13.411,16.27 13.261,16.12 C12.97,15.83 12.97,15.35 13.261,15.06 L15.65,12.67 C15.941,12.38 16.421,12.38 16.71,12.67 C17,12.96 17,13.44 16.71,13.73 L14.32,16.12 C14.181,16.26 13.98,16.34 13.79,16.34 Z"/>
  <path fill="#292D32" d="M11.101,22.75 C10.121,22.75 9.141,22.15 7.951,20.96 L3.041,16.05 C0.651,13.66 0.661,12.12 3.071,9.71 L9.711,3.07 C12.121,0.66 13.661,0.65 16.051,3.04 L20.961,7.95 C23.351,10.34 23.341,11.88 20.931,14.29 L14.291,20.93 C13.081,22.14 12.091,22.75 11.101,22.75 Z M12.901,2.75 C12.381,2.75 11.721,3.18 10.771,4.13 L4.131,10.77 C3.181,11.72 2.751,12.38 2.751,12.89 C2.751,13.41 3.151,14.04 4.101,14.99 L9.011,19.9 C9.961,20.85 10.581,21.25 11.101,21.25 C11.101,21.25 11.101,21.25 11.111,21.25 C11.631,21.25 12.281,20.82 13.231,19.87 L19.871,13.23 C20.821,12.28 21.251,11.62 21.251,11.11 C21.251,10.59 20.851,9.96 19.901,9.01 L14.991,4.1 C14.051,3.15 13.421,2.75 12.901,2.75 Z"/>
  <path fill="#292D32" d="M22,22.75 L2,22.75 C1.59,22.75 1.25,22.41 1.25,22 C1.25,21.59 1.59,21.25 2,21.25 L22,21.25 C22.41,21.25 22.75,21.59 22.75,22 C22.75,22.41 22.41,22.75 22,22.75 Z"/>
</svg>

