<svg xmlns="http://www.w3.org/2000/svg" width="24" height="24" viewBox="0 0 24 24">
  <defs/>
  <g opacity="0.4">
    <path fill="#292D32" d="M2,7.755 L22,7.755 Q22.311,7.755 22.53,7.975 Q22.75,8.194 22.75,8.505 Q22.75,8.816 22.53,9.035 Q22.311,9.255 22,9.255 L2,9.255 Q1.689,9.255 1.47,9.035 Q1.25,8.816 1.25,8.505 Q1.25,8.194 1.47,7.975 Q1.689,7.755 2,7.755 Z"/>
    <path fill="#292D32" d="M6,15.755 L8,15.755 Q8.311,15.755 8.53,15.975 Q8.75,16.194 8.75,16.505 Q8.75,16.816 8.53,17.035 Q8.311,17.255 8,17.255 L6,17.255 Q5.689,17.255 5.47,17.035 Q5.25,16.816 5.25,16.505 Q5.25,16.194 5.47,15.975 Q5.689,15.755 6,15.755 Z"/>
    <path fill="#292D32" d="M10.5,15.755 L14.5,15.755 Q14.811,15.755 15.03,15.975 Q15.25,16.194 15.25,16.505 Q15.25,16.816 15.03,17.035 Q14.811,17.255 14.5,17.255 L10.5,17.255 Q10.189,17.255 9.97,17.035 Q9.75,16.816 9.75,16.505 Q9.75,16.194 9.97,15.975 Q10.189,15.755 10.5,15.755 Z"/>
  </g>
  <path fill="#292D32" d="M6.44,2.755 L17.55,2.755 Q20.527,2.755 21.637,3.85 Q22.75,4.948 22.75,7.895 L22.75,16.105 Q22.75,19.051 21.639,20.149 Q20.531,21.245 17.56,21.245 L6.44,21.245 Q3.471,21.253 2.362,20.159 Q1.25,19.061 1.25,16.115 L1.25,7.895 Q1.25,4.949 2.361,3.85 Q3.469,2.755 6.44,2.755 Z M6.44,4.255 Q4.086,4.255 3.416,4.917 Q2.75,5.576 2.75,7.895 L2.75,16.115 Q2.75,18.434 3.416,19.091 Q4.085,19.752 6.44,19.745 L17.56,19.745 Q19.914,19.745 20.584,19.083 Q21.25,18.424 21.25,16.105 L21.25,7.895 Q21.25,5.576 20.583,4.917 Q19.912,4.255 17.55,4.255 Z"/>
</svg>

