<svg xmlns="http://www.w3.org/2000/svg" width="24" height="24" viewBox="0 0 24 24">
  <defs/>
  <path fill="#292D32" d="M20.97,1 L18.03,1 C16.76,1 16,1.76 16,3.03 L16,5.97 C16,7.24 16.76,8 18.03,8 L20.97,8 C22.24,8 23,7.24 23,5.97 L23,3.03 C23,1.76 22.24,1 20.97,1 Z M21.19,4.31 C21.07,4.43 20.91,4.49 20.75,4.49 C20.59,4.49 20.43,4.43 20.31,4.31 L20.13,4.13 L20.13,6.37 C20.13,6.72 19.85,7 19.5,7 C19.15,7 18.87,6.72 18.87,6.37 L18.87,4.13 L18.69,4.31 C18.45,4.55 18.05,4.55 17.81,4.31 C17.57,4.07 17.57,3.67 17.81,3.43 L19.06,2.18 C19.11,2.13 19.18,2.09 19.25,2.06 C19.27,2.05 19.29,2.05 19.31,2.04 C19.36,2.02 19.41,2.01 19.47,2.01 C19.49,2.01 19.51,2.01 19.53,2.01 C19.6,2.01 19.66,2.02 19.73,2.05 C19.74,2.05 19.74,2.05 19.75,2.05 C19.82,2.08 19.88,2.12 19.93,2.17 C19.94,2.18 19.94,2.18 19.95,2.18 L21.2,3.43 C21.44,3.67 21.44,4.07 21.19,4.31 Z"/>
  <path fill="#292D32" opacity="0.4" d="M22,7.77 L22,9 L2,9 L2,7.54 C2,5.25 3.86,3.4 6.15,3.4 L16,3.4 L16,5.97 C16,7.24 16.76,8 18.03,8 L20.97,8 C21.37,8 21.71,7.93 22,7.77 Z"/>
  <path fill="#292D32" d="M2,9 L2,16.46 C2,18.75 3.86,20.6 6.15,20.6 L17.85,20.6 C20.14,20.6 22,18.75 22,16.46 L22,9 L2,9 Z M8,17.25 L6,17.25 C5.59,17.25 5.25,16.91 5.25,16.5 C5.25,16.09 5.59,15.75 6,15.75 L8,15.75 C8.41,15.75 8.75,16.09 8.75,16.5 C8.75,16.91 8.41,17.25 8,17.25 Z M14.5,17.25 L10.5,17.25 C10.09,17.25 9.75,16.91 9.75,16.5 C9.75,16.09 10.09,15.75 10.5,15.75 L14.5,15.75 C14.91,15.75 15.25,16.09 15.25,16.5 C15.25,16.91 14.91,17.25 14.5,17.25 Z"/>
</svg>

