<svg xmlns="http://www.w3.org/2000/svg" width="24" height="24" viewBox="0 0 24 24">
  <defs/>
  <path fill="#292D32" d="M21.25,22 L2.75,22 C2.34,22 2,21.66 2,21.25 C2,20.84 2.34,20.5 2.75,20.5 L21.25,20.5 C21.66,20.5 22,20.84 22,21.25 C22,21.66 21.66,22 21.25,22 Z"/>
  <path fill="#292D32" opacity="0.4" d="M20.591,13.7 L13.361,20.93 C11.941,22.35 9.651,22.35 8.241,20.94 L3.631,16.33 L15.991,3.97 L20.601,8.58 C22.011,9.99 22.011,12.28 20.591,13.7 Z"/>
  <path fill="#292D32" d="M15.991,3.97 L3.621,16.33 L2.711,15.42 C1.301,14.01 1.301,11.72 2.721,10.3 L9.951,3.07 C11.371,1.65 13.661,1.65 15.07,3.06 L15.991,3.97 Z"/>
  <path fill="#292D32" d="M12.89,17.6 L11.54,18.95 C11.26,19.23 10.81,19.23 10.53,18.95 C10.25,18.67 10.25,18.22 10.53,17.94 L11.88,16.59 C12.16,16.31 12.61,16.31 12.89,16.59 C13.17,16.87 13.17,17.32 12.89,17.6 Z"/>
  <path fill="#292D32" d="M17.269,13.22 L14.579,15.91 C14.299,16.19 13.849,16.19 13.569,15.91 C13.289,15.63 13.289,15.18 13.569,14.9 L16.259,12.21 C16.539,11.93 16.989,11.93 17.269,12.21 C17.539,12.49 17.539,12.94 17.269,13.22 Z"/>
</svg>

