<svg xmlns="http://www.w3.org/2000/svg" width="24" height="24" viewBox="0 0 24 24">
  <defs/>
  <path fill="#292D32" d="M13.5,9.25 L2,9.25 C1.59,9.25 1.25,8.91 1.25,8.5 C1.25,8.09 1.59,7.75 2,7.75 L13.5,7.75 C13.91,7.75 14.25,8.09 14.25,8.5 C14.25,8.91 13.91,9.25 13.5,9.25 Z"/>
  <path fill="#292D32" d="M8,17.25 L6,17.25 C5.59,17.25 5.25,16.91 5.25,16.5 C5.25,16.09 5.59,15.75 6,15.75 L8,15.75 C8.41,15.75 8.75,16.09 8.75,16.5 C8.75,16.91 8.41,17.25 8,17.25 Z"/>
  <path fill="#292D32" d="M14.5,17.25 L10.5,17.25 C10.09,17.25 9.75,16.91 9.75,16.5 C9.75,16.09 10.09,15.75 10.5,15.75 L14.5,15.75 C14.91,15.75 15.25,16.09 15.25,16.5 C15.25,16.91 14.91,17.25 14.5,17.25 Z"/>
  <path fill="#292D32" d="M17.56,21.25 L6.44,21.25 C2.46,21.25 1.25,20.05 1.25,16.11 L1.25,7.89 C1.25,3.95 2.46,2.75 6.44,2.75 L13.5,2.75 C13.91,2.75 14.25,3.09 14.25,3.5 C14.25,3.91 13.91,4.25 13.5,4.25 L6.44,4.25 C3.3,4.25 2.75,4.79 2.75,7.89 L2.75,16.1 C2.75,19.2 3.3,19.74 6.44,19.74 L17.55,19.74 C20.69,19.74 21.24,19.2 21.24,16.1 L21.24,12.02 C21.24,11.61 21.58,11.27 21.99,11.27 C22.4,11.27 22.74,11.61 22.74,12.02 L22.74,16.1 C22.75,20.05 21.54,21.25 17.56,21.25 Z"/>
  <path fill="#292D32" d="M22,7 L16.5,7 C16.09,7 15.75,6.66 15.75,6.25 C15.75,5.84 16.09,5.5 16.5,5.5 L22,5.5 C22.41,5.5 22.75,5.84 22.75,6.25 C22.75,6.66 22.41,7 22,7 Z"/>
  <path fill="#292D32" d="M19.25,9.75 C18.84,9.75 18.5,9.41 18.5,9 L18.5,3.5 C18.5,3.09 18.84,2.75 19.25,2.75 C19.66,2.75 20,3.09 20,3.5 L20,9 C20,9.41 19.66,9.75 19.25,9.75 Z"/>
</svg>

