<svg xmlns="http://www.w3.org/2000/svg" width="24" height="24" viewBox="0 0 24 24">
  <defs/>
  <path fill="#292D32" d="M12,15.7 L12,15.81 C12,16.09 11.78,16.31 11.5,16.31 L2.5,16.31 C2.22,16.31 2,16.09 2,15.81 L2,15.7 C2,13.94 2.44,13.5 4.22,13.5 L9.78,13.5 C11.56,13.5 12,13.94 12,15.7 Z"/>
  <path fill="#292D32" d="M2.5,17.309 C2.22,17.309 2,17.529 2,17.809 L2,18.809 L2,19.799 C2,21.559 2.44,21.999 4.22,21.999 L9.78,21.999 C11.56,21.999 12,21.559 12,19.799 L12,18.809 L12,17.809 C12,17.529 11.78,17.309 11.5,17.309 L2.5,17.309 Z"/>
  <path fill="#292D32" d="M22.75,15 Q22.75,18.213 20.482,20.482 Q18.213,22.75 15,22.75 Q14.689,22.75 14.47,22.53 Q14.25,22.311 14.25,22 Q14.25,21.792 14.357,21.614 L15.407,19.864 Q15.567,19.598 15.868,19.522 Q16.169,19.447 16.436,19.607 Q16.702,19.767 16.778,20.068 Q16.853,20.369 16.693,20.636 L16.414,21.102 Q18.112,20.729 19.421,19.421 Q21.25,17.592 21.25,15 Q21.25,14.689 21.47,14.47 Q21.689,14.25 22,14.25 Q22.311,14.25 22.53,14.47 Q22.75,14.689 22.75,15 Z"/>
  <path fill="#292D32" d="M1.25,9 Q1.25,5.787 3.518,3.518 Q5.787,1.25 9,1.25 Q9.311,1.25 9.53,1.47 Q9.75,1.689 9.75,2 Q9.75,2.208 9.643,2.386 L8.593,4.136 Q8.433,4.402 8.132,4.478 Q7.831,4.553 7.564,4.393 Q7.298,4.233 7.222,3.932 Q7.147,3.631 7.307,3.364 L7.586,2.898 Q5.888,3.271 4.579,4.579 Q2.75,6.408 2.75,9 Q2.75,9.311 2.53,9.53 Q2.311,9.75 2,9.75 Q1.689,9.75 1.47,9.53 Q1.25,9.311 1.25,9 Z"/>
  <path fill="#292D32" d="M18.5,11 C20.985,11 23,8.985 23,6.5 C23,4.015 20.985,2 18.5,2 C16.015,2 14,4.015 14,6.5 C14,8.985 16.015,11 18.5,11 Z"/>
</svg>

