<svg xmlns="http://www.w3.org/2000/svg" width="24" height="24" viewBox="0 0 24 24">
  <defs/>
  <path fill="#292D32" opacity="0.4" d="M12,15.7 L12,16.31 L2,16.31 L2,15.7 C2,13.94 2.44,13.5 4.22,13.5 L9.78,13.5 C11.56,13.5 12,13.94 12,15.7 Z"/>
  <path fill="#292D32" d="M2,16.31 L2,17.81 L2,19.8 C2,21.56 2.44,22 4.22,22 L9.78,22 C11.56,22 12,21.56 12,19.8 L12,17.81 L12,16.31 L2,16.31 Z"/>
  <g opacity="0.4">
    <path fill="#292D32" d="M22,14.25 C22.414,14.25 22.75,14.586 22.75,15 C22.75,19.284 19.284,22.75 15,22.75 C14.73,22.75 14.481,22.605 14.347,22.369 C14.214,22.134 14.218,21.846 14.357,21.614 L15.407,19.864 C15.62,19.509 16.081,19.394 16.436,19.607 C16.791,19.82 16.906,20.281 16.693,20.636 L16.422,21.088 C19.191,20.446 21.25,17.967 21.25,15 C21.25,14.586 21.586,14.25 22,14.25 Z"/>
    <path fill="#292D32" d="M7.578,2.912 C4.809,3.554 2.75,6.033 2.75,9 C2.75,9.414 2.414,9.75 2,9.75 C1.586,9.75 1.25,9.414 1.25,9 C1.25,4.716 4.716,1.25 9,1.25 C9.27,1.25 9.52,1.395 9.653,1.63 C9.786,1.866 9.782,2.154 9.643,2.386 L8.593,4.136 C8.38,4.491 7.919,4.606 7.564,4.393 C7.209,4.18 7.094,3.719 7.307,3.364 Z"/>
  </g>
  <path fill="#292D32" opacity="0.4" d="M23,6.5 L14,6.5 C14,8.98 16.02,11 18.5,11 C20.99,11 23,8.98 23,6.5 Z"/>
  <path fill="#292D32" d="M23,6.5 C23,4.01 20.99,2 18.5,2 C16.02,2 14,4.01 14,6.5 L23,6.5 Z"/>
</svg>

