<svg xmlns="http://www.w3.org/2000/svg" width="24" height="24" viewBox="0 0 24 24">
  <defs/>
  <path fill="#292D32" d="M11.5,9.25 L2,9.25 C1.59,9.25 1.25,8.91 1.25,8.5 C1.25,8.09 1.59,7.75 2,7.75 L11.5,7.75 C11.91,7.75 12.25,8.09 12.25,8.5 C12.25,8.91 11.91,9.25 11.5,9.25 Z"/>
  <path fill="#292D32" d="M8,17.25 L6,17.25 C5.59,17.25 5.25,16.91 5.25,16.5 C5.25,16.09 5.59,15.75 6,15.75 L8,15.75 C8.41,15.75 8.75,16.09 8.75,16.5 C8.75,16.91 8.41,17.25 8,17.25 Z"/>
  <path fill="#292D32" d="M14.5,17.25 L10.5,17.25 C10.09,17.25 9.75,16.91 9.75,16.5 C9.75,16.09 10.09,15.75 10.5,15.75 L14.5,15.75 C14.91,15.75 15.25,16.09 15.25,16.5 C15.25,16.91 14.91,17.25 14.5,17.25 Z"/>
  <path fill="#292D32" d="M17.56,21.25 L6.44,21.25 C2.46,21.25 1.25,20.05 1.25,16.11 L1.25,7.89 C1.25,3.95 2.46,2.75 6.44,2.75 L14.5,2.75 C14.91,2.75 15.25,3.09 15.25,3.5 C15.25,3.91 14.91,4.25 14.5,4.25 L6.44,4.25 C3.3,4.25 2.75,4.79 2.75,7.89 L2.75,16.1 C2.75,19.2 3.3,19.74 6.44,19.74 L17.55,19.74 C20.69,19.74 21.24,19.2 21.24,16.1 L21.24,12.02 C21.24,11.61 21.58,11.27 21.99,11.27 C22.4,11.27 22.74,11.61 22.74,12.02 L22.74,16.1 C22.75,20.05 21.54,21.25 17.56,21.25 Z"/>
  <path fill="#292D32" d="M15.519,11.44 C15.129,11.44 14.759,11.3 14.499,11.03 C14.179,10.71 14.039,10.25 14.109,9.77 L14.309,8.35 C14.359,7.99 14.579,7.56 14.829,7.31 L18.539,3.6 C20.009,2.13 21.289,2.97 21.929,3.6 C22.559,4.23 23.399,5.51 21.929,6.99 L18.219,10.7 C17.959,10.96 17.529,11.17 17.179,11.22 L15.759,11.42 C15.679,11.43 15.599,11.44 15.519,11.44 Z M20.229,4.28 C20.029,4.28 19.849,4.42 19.599,4.66 L15.899,8.37 C15.869,8.41 15.809,8.52 15.799,8.57 L15.599,9.92 L16.959,9.73 C17.009,9.72 17.119,9.66 17.159,9.63 L20.869,5.92 C21.339,5.45 21.409,5.19 20.869,4.66 C20.609,4.4 20.419,4.28 20.229,4.28 Z"/>
  <path fill="#292D32" d="M20.87,7.74 C20.8,7.74 20.73,7.73 20.67,7.71 C19.3,7.32 18.21,6.24 17.83,4.87 C17.72,4.47 17.95,4.06 18.35,3.94 C18.75,3.83 19.16,4.06 19.28,4.46 C19.53,5.33 20.22,6.02 21.09,6.27 C21.49,6.38 21.72,6.8 21.61,7.19 C21.5,7.52 21.2,7.74 20.87,7.74 Z"/>
</svg>

