<svg xmlns="http://www.w3.org/2000/svg" width="24" height="24" viewBox="0 0 24 24">
  <defs/>
  <path fill="#292D32" d="M22,10.75 L2,10.75 C1.59,10.75 1.25,10.41 1.25,10 C1.25,9.59 1.59,9.25 2,9.25 L22,9.25 C22.41,9.25 22.75,9.59 22.75,10 C22.75,10.41 22.41,10.75 22,10.75 Z"/>
  <path fill="#292D32" d="M11.55,21.25 L6.44,21.25 C2.46,21.25 1.24,20.05 1.24,16.11 L1.24,7.89 C1.24,4.74 1.91,2.99 5.48,2.78 C5.78,2.77 6.1,2.76 6.44,2.76 L17.55,2.76 C21.53,2.76 22.75,3.96 22.75,7.9 L22.75,12.31 C22.75,12.72 22.41,13.06 22,13.06 C21.59,13.06 21.25,12.72 21.25,12.31 L21.25,7.9 C21.25,4.81 20.7,4.26 17.55,4.26 L6.44,4.26 C6.12,4.26 5.83,4.27 5.55,4.28 C3.38,4.41 2.74,4.9 2.74,7.9 L2.74,16.12 C2.74,19.21 3.29,19.76 6.44,19.76 L11.55,19.76 C11.96,19.76 12.3,20.1 12.3,20.51 C12.3,20.92 11.97,21.25 11.55,21.25 Z"/>
  <path fill="#292D32" d="M10,16.75 L6,16.75 C5.59,16.75 5.25,16.41 5.25,16 C5.25,15.59 5.59,15.25 6,15.25 L10,15.25 C10.41,15.25 10.75,15.59 10.75,16 C10.75,16.41 10.41,16.75 10,16.75 Z"/>
  <path fill="#292D32" d="M18,22.75 C16.34,22.75 14.78,21.87 13.94,20.44 C13.49,19.72 13.25,18.87 13.25,18 C13.25,15.38 15.38,13.25 18,13.25 C20.62,13.25 22.75,15.38 22.75,18 C22.75,18.87 22.51,19.72 22.06,20.45 C21.22,21.87 19.66,22.75 18,22.75 Z M18,14.75 C16.21,14.75 14.75,16.21 14.75,18 C14.75,18.59 14.91,19.17 15.22,19.67 C15.8,20.65 16.87,21.25 18,21.25 C19.13,21.25 20.2,20.65 20.78,19.68 C21.09,19.17 21.25,18.6 21.25,18 C21.25,16.21 19.79,14.75 18,14.75 Z"/>
  <path fill="#292D32" d="M17.429,19.74 C17.239,19.74 17.049,19.67 16.899,19.52 L15.909,18.53 C15.619,18.24 15.619,17.76 15.909,17.47 C16.199,17.18 16.679,17.18 16.969,17.47 L17.449,17.95 L19.049,16.47 C19.349,16.19 19.829,16.21 20.109,16.51 C20.389,16.81 20.369,17.29 20.069,17.57 L17.939,19.54 C17.789,19.67 17.609,19.74 17.429,19.74 Z"/>
</svg>

