<svg xmlns="http://www.w3.org/2000/svg" width="24" height="24" viewBox="0 0 24 24">
  <defs/>
  <path fill="#292D32" d="M19,13.36 L2,13.36 C1.59,13.36 1.25,13.02 1.25,12.61 C1.25,12.2 1.59,11.86 2,11.86 L19,11.86 C19.41,11.86 19.75,12.2 19.75,12.61 C19.75,13.02 19.41,13.36 19,13.36 Z"/>
  <path fill="#292D32" d="M15.22,21.75 L5.78,21.75 C2.35,21.75 1.25,20.66 1.25,17.27 L1.25,10.28 C1.25,7.59 1.86,6 4.96,5.82 C5.22,5.81 5.49,5.8 5.78,5.8 L15.22,5.8 C18.65,5.8 19.75,6.89 19.75,10.28 L19.75,17.43 C19.71,20.7 18.61,21.75 15.22,21.75 Z M5.78,7.3 C5.51,7.3 5.26,7.31 5.03,7.32 C3.24,7.43 2.75,7.81 2.75,10.28 L2.75,17.27 C2.75,19.83 3.17,20.25 5.78,20.25 L15.22,20.25 C17.8,20.25 18.22,19.85 18.25,17.42 L18.25,10.28 C18.25,7.72 17.83,7.3 15.22,7.3 L5.78,7.3 Z"/>
  <path fill="#292D32" d="M19,18.18 C18.81,18.18 18.62,18.11 18.49,17.98 C18.34,17.84 18.25,17.64 18.25,17.43 L18.25,10.28 C18.25,7.72 17.83,7.3 15.22,7.3 L5.78,7.3 C5.51,7.3 5.26,7.31 5.03,7.32 C4.83,7.33 4.63,7.25 4.48,7.11 C4.33,6.97 4.25,6.77 4.25,6.56 C4.29,3.3 5.39,2.25 8.78,2.25 L18.22,2.25 C21.65,2.25 22.75,3.34 22.75,6.73 L22.75,13.72 C22.75,16.41 22.14,18 19.04,18.18 C19.03,18.18 19.01,18.18 19,18.18 Z M5.78,5.8 L15.22,5.8 C18.65,5.8 19.75,6.89 19.75,10.28 L19.75,16.6 C20.91,16.39 21.25,15.79 21.25,13.72 L21.25,6.73 C21.25,4.17 20.83,3.75 18.22,3.75 L8.78,3.75 C6.5,3.75 5.91,4.06 5.78,5.8 Z"/>
  <path fill="#292D32" d="M6.96,18.56 L5.24,18.56 C4.83,18.56 4.49,18.22 4.49,17.81 C4.49,17.4 4.83,17.06 5.24,17.06 L6.96,17.06 C7.37,17.06 7.71,17.4 7.71,17.81 C7.71,18.22 7.38,18.56 6.96,18.56 Z"/>
  <path fill="#292D32" d="M12.549,18.56 L9.109,18.56 C8.699,18.56 8.359,18.22 8.359,17.81 C8.359,17.4 8.699,17.06 9.109,17.06 L12.549,17.06 C12.959,17.06 13.299,17.4 13.299,17.81 C13.299,18.22 12.969,18.56 12.549,18.56 Z"/>
</svg>

