<svg xmlns="http://www.w3.org/2000/svg" width="24" height="24" viewBox="0 0 24 24">
  <defs/>
  <path fill="#292D32" d="M13.5,9.25 L2,9.25 C1.59,9.25 1.25,8.91 1.25,8.5 C1.25,8.09 1.59,7.75 2,7.75 L13.5,7.75 C13.91,7.75 14.25,8.09 14.25,8.5 C14.25,8.91 13.91,9.25 13.5,9.25 Z"/>
  <path fill="#292D32" d="M8,17.25 L6,17.25 C5.59,17.25 5.25,16.91 5.25,16.5 C5.25,16.09 5.59,15.75 6,15.75 L8,15.75 C8.41,15.75 8.75,16.09 8.75,16.5 C8.75,16.91 8.41,17.25 8,17.25 Z"/>
  <path fill="#292D32" d="M14.5,17.25 L10.5,17.25 C10.09,17.25 9.75,16.91 9.75,16.5 C9.75,16.09 10.09,15.75 10.5,15.75 L14.5,15.75 C14.91,15.75 15.25,16.09 15.25,16.5 C15.25,16.91 14.91,17.25 14.5,17.25 Z"/>
  <path fill="#292D32" d="M17.56,21.25 L6.44,21.25 C2.46,21.25 1.25,20.05 1.25,16.11 L1.25,7.89 C1.25,3.95 2.46,2.75 6.44,2.75 L13.5,2.75 C13.91,2.75 14.25,3.09 14.25,3.5 C14.25,3.91 13.91,4.25 13.5,4.25 L6.44,4.25 C3.3,4.25 2.75,4.79 2.75,7.89 L2.75,16.1 C2.75,19.2 3.3,19.74 6.44,19.74 L17.55,19.74 C20.69,19.74 21.24,19.2 21.24,16.1 L21.24,12.02 C21.24,11.61 21.58,11.27 21.99,11.27 C22.4,11.27 22.74,11.61 22.74,12.02 L22.74,16.1 C22.75,20.05 21.54,21.25 17.56,21.25 Z"/>
  <path fill="#292D32" d="M17.31,8.94 C17.12,8.94 16.93,8.87 16.78,8.72 C16.49,8.43 16.49,7.95 16.78,7.66 L20.67,3.77 C20.96,3.48 21.44,3.48 21.73,3.77 C22.02,4.06 22.02,4.54 21.73,4.83 L17.84,8.72 C17.69,8.87 17.5,8.94 17.31,8.94 Z"/>
  <path fill="#292D32" d="M21.19,8.94 C21,8.94 20.81,8.87 20.66,8.72 L16.77,4.83 C16.48,4.54 16.48,4.06 16.77,3.77 C17.06,3.48 17.54,3.48 17.83,3.77 L21.72,7.66 C22.01,7.95 22.01,8.43 21.72,8.72 C21.58,8.87 21.39,8.94 21.19,8.94 Z"/>
</svg>

