<svg xmlns="http://www.w3.org/2000/svg" width="24" height="24" viewBox="0 0 24 24">
  <defs/>
  <path fill="#292D32" d="M2,7.75 L14.5,7.75 Q14.811,7.75 15.03,7.97 Q15.25,8.189 15.25,8.5 Q15.25,8.811 15.03,9.03 Q14.811,9.25 14.5,9.25 L2,9.25 Q1.689,9.25 1.47,9.03 Q1.25,8.811 1.25,8.5 Q1.25,8.189 1.47,7.97 Q1.689,7.75 2,7.75 Z"/>
  <path fill="#292D32" d="M6,15.75 L8,15.75 Q8.311,15.75 8.53,15.97 Q8.75,16.189 8.75,16.5 Q8.75,16.811 8.53,17.03 Q8.311,17.25 8,17.25 L6,17.25 Q5.689,17.25 5.47,17.03 Q5.25,16.811 5.25,16.5 Q5.25,16.189 5.47,15.97 Q5.689,15.75 6,15.75 Z"/>
  <path fill="#292D32" d="M10.5,15.75 L14.5,15.75 Q14.811,15.75 15.03,15.97 Q15.25,16.189 15.25,16.5 Q15.25,16.811 15.03,17.03 Q14.811,17.25 14.5,17.25 L10.5,17.25 Q10.189,17.25 9.97,17.03 Q9.75,16.811 9.75,16.5 Q9.75,16.189 9.97,15.97 Q10.189,15.75 10.5,15.75 Z"/>
  <path fill="#292D32" d="M22.75,14.03 L22.75,16.11 Q22.75,19.056 21.639,20.155 Q20.531,21.25 17.56,21.25 L6.44,21.25 Q3.469,21.25 2.361,20.155 Q1.25,19.056 1.25,16.11 L1.25,7.89 Q1.25,4.944 2.361,3.845 Q3.469,2.75 6.44,2.75 L14.5,2.75 Q14.811,2.75 15.03,2.97 Q15.25,3.189 15.25,3.5 Q15.25,3.811 15.03,4.03 Q14.811,4.25 14.5,4.25 L6.44,4.25 Q4.086,4.25 3.416,4.912 Q2.75,5.571 2.75,7.89 L2.75,16.11 Q2.75,18.429 3.416,19.088 Q4.086,19.75 6.44,19.75 L17.56,19.75 Q19.914,19.75 20.584,19.088 Q21.25,18.429 21.25,16.11 L21.25,14.03 Q21.25,13.719 21.47,13.5 Q21.689,13.28 22,13.28 Q22.311,13.28 22.53,13.5 Q22.75,13.719 22.75,14.03 Z"/>
  <path fill="#292D32" d="M20.75,3.5 L20.75,7.689 L21.47,6.97 Q21.689,6.75 22,6.75 Q22.311,6.75 22.53,6.97 Q22.75,7.189 22.75,7.5 Q22.75,7.811 22.53,8.03 L20.53,10.03 Q20.311,10.25 20,10.25 Q19.689,10.25 19.47,10.03 Q19.25,9.811 19.25,9.5 L19.25,3.5 Q19.25,3.189 19.47,2.97 Q19.689,2.75 20,2.75 Q20.311,2.75 20.53,2.97 Q20.75,3.189 20.75,3.5 Z"/>
  <path fill="#292D32" d="M19.47,10.03 L17.47,8.03 Q17.25,7.811 17.25,7.5 Q17.25,7.189 17.47,6.97 Q17.689,6.75 18,6.75 Q18.311,6.75 18.53,6.97 L20.53,8.97 Q20.75,9.189 20.75,9.5 Q20.75,9.811 20.53,10.03 Q20.311,10.25 20,10.25 Q19.689,10.25 19.47,10.03 Z"/>
</svg>

