<svg xmlns="http://www.w3.org/2000/svg" width="24" height="24" viewBox="0 0 24 24">
  <defs/>
  <path fill="#292D32" d="M2,11.86 L19,11.86 Q19.311,11.86 19.53,12.08 Q19.75,12.299 19.75,12.61 Q19.75,12.921 19.53,13.14 Q19.311,13.36 19,13.36 L2,13.36 Q1.689,13.36 1.47,13.14 Q1.25,12.921 1.25,12.61 Q1.25,12.299 1.47,12.08 Q1.689,11.86 2,11.86 Z"/>
  <path fill="#292D32" d="M19.75,10.28 L19.75,17.43 Q19.705,21.75 15.22,21.75 L5.78,21.75 Q3.207,21.75 2.231,20.786 Q1.25,19.819 1.25,17.27 L1.25,10.28 Q1.25,6.04 4.956,5.821 Q5.464,5.8 5.78,5.8 L15.22,5.8 Q19.75,5.8 19.75,10.28 Z M18.25,10.28 Q18.25,8.359 17.716,7.831 Q17.177,7.3 15.22,7.3 L5.78,7.3 Q5.496,7.3 5.044,7.319 Q2.75,7.454 2.75,10.28 L2.75,17.27 Q2.75,19.191 3.284,19.719 Q3.823,20.25 5.78,20.25 L15.22,20.25 Q17.154,20.25 17.699,19.737 Q18.231,19.237 18.25,17.43 Z"/>
  <path fill="#292D32" d="M22.75,6.73 L22.75,13.72 Q22.75,17.96 19.044,18.179 Q18.734,18.197 18.502,17.991 Q18.27,17.784 18.251,17.474 Q18.25,17.452 18.25,17.43 L18.25,10.28 Q18.25,8.359 17.716,7.831 Q17.177,7.3 15.22,7.3 L5.78,7.3 Q5.496,7.3 5.031,7.319 Q4.721,7.332 4.492,7.122 Q4.264,6.912 4.251,6.601 Q4.25,6.582 4.25,6.562 Q4.295,2.25 8.78,2.25 L18.22,2.25 Q22.75,2.25 22.75,6.73 Z M21.25,6.73 Q21.25,4.809 20.716,4.281 Q20.177,3.75 18.22,3.75 L8.78,3.75 Q6.846,3.75 6.301,4.263 Q5.894,4.646 5.787,5.8 L15.22,5.8 Q17.793,5.8 18.769,6.764 Q19.75,7.731 19.75,10.28 L19.75,16.531 Q21.25,16.005 21.25,13.72 Z"/>
  <path fill="#292D32" d="M5.25,17.06 L6.97,17.06 Q7.281,17.06 7.5,17.28 Q7.72,17.499 7.72,17.81 Q7.72,18.121 7.5,18.34 Q7.281,18.56 6.97,18.56 L5.25,18.56 Q4.939,18.56 4.72,18.34 Q4.5,18.121 4.5,17.81 Q4.5,17.499 4.72,17.28 Q4.939,17.06 5.25,17.06 Z"/>
  <path fill="#292D32" d="M9.11,17.06 L12.55,17.06 Q12.861,17.06 13.08,17.28 Q13.3,17.499 13.3,17.81 Q13.3,18.121 13.08,18.34 Q12.861,18.56 12.55,18.56 L9.11,18.56 Q8.799,18.56 8.58,18.34 Q8.36,18.121 8.36,17.81 Q8.36,17.499 8.58,17.28 Q8.799,17.06 9.11,17.06 Z"/>
</svg>

