<svg xmlns="http://www.w3.org/2000/svg" width="24" height="24" viewBox="0 0 24 24">
  <defs/>
  <path fill="#292D32" d="M6,9.25 L22,9.25 Q22.311,9.25 22.53,9.47 Q22.75,9.689 22.75,10 Q22.75,10.311 22.53,10.53 Q22.311,10.75 22,10.75 L6,10.75 Q5.689,10.75 5.47,10.53 Q5.25,10.311 5.25,10 Q5.25,9.689 5.47,9.47 Q5.689,9.25 6,9.25 Z"/>
  <path fill="#292D32" d="M11.55,21.25 L6.44,21.25 Q3.469,21.25 2.358,20.156 Q1.24,19.055 1.24,16.11 L1.24,7.89 Q1.24,3.024 5.477,2.781 Q6.067,2.76 6.44,2.76 L17.55,2.76 Q20.522,2.76 21.633,3.854 Q22.75,4.955 22.75,7.9 L22.75,12.31 Q22.75,12.621 22.531,12.84 Q22.311,13.06 22,13.06 Q21.69,13.06 21.47,12.84 Q21.25,12.621 21.25,12.31 L21.25,7.9 Q21.25,5.583 20.58,4.923 Q19.907,4.26 17.55,4.26 L6.44,4.26 Q6.094,4.26 5.563,4.279 Q3.824,4.378 3.296,5.044 Q2.74,5.745 2.74,7.89 L2.74,16.11 Q2.74,18.427 3.41,19.087 Q4.083,19.75 6.44,19.75 L11.55,19.75 Q11.861,19.75 12.081,19.97 Q12.3,20.189 12.3,20.5 Q12.3,20.811 12.081,21.03 Q11.861,21.25 11.55,21.25 Z"/>
  <path fill="#292D32" d="M6,15.25 L10,15.25 Q10.311,15.25 10.53,15.47 Q10.75,15.689 10.75,16 Q10.75,16.311 10.53,16.53 Q10.311,16.75 10,16.75 L6,16.75 Q5.689,16.75 5.47,16.53 Q5.25,16.311 5.25,16 Q5.25,15.689 5.47,15.47 Q5.689,15.25 6,15.25 Z"/>
  <path fill="#292D32" d="M22.75,18 Q22.75,19.332 22.058,20.454 Q20.693,22.75 18,22.75 Q15.307,22.75 13.935,20.443 Q13.25,19.332 13.25,18 Q13.25,16.032 14.641,14.641 Q16.032,13.25 18,13.25 Q19.968,13.25 21.359,14.641 Q22.75,16.032 22.75,18 Z M21.25,18 Q21.25,14.75 18,14.75 Q14.75,14.75 14.75,18 Q14.75,18.907 15.225,19.677 Q16.16,21.25 18,21.25 Q19.84,21.25 20.782,19.666 Q21.25,18.907 21.25,18 Z"/>
  <path fill="#292D32" d="M16.97,17.47 L17.45,17.95 L19.05,16.469 Q19.278,16.258 19.589,16.271 Q19.899,16.283 20.11,16.511 Q20.321,16.739 20.309,17.049 Q20.297,17.36 20.069,17.571 L17.939,19.541 Q17.717,19.746 17.415,19.74 Q17.113,19.734 16.899,19.52 L15.909,18.53 Q15.689,18.311 15.689,18 Q15.69,17.689 15.909,17.47 Q16.129,17.25 16.44,17.25 Q16.75,17.25 16.97,17.47 Z"/>
</svg>

