<svg xmlns="http://www.w3.org/2000/svg" width="24" height="24" viewBox="0 0 24 24">
  <defs/>
  <path fill="#292D32" d="M18.898,15.031 C16.688,15.031 14.898,16.821 14.898,19.031 C14.898,21.241 16.688,23.031 18.898,23.031 C21.108,23.031 22.898,21.241 22.898,19.031 C22.898,16.821 21.108,15.031 18.898,15.031 Z M20.498,20.681 C20.348,20.831 20.158,20.901 19.968,20.901 C19.778,20.901 19.588,20.831 19.438,20.681 L18.908,20.151 L18.358,20.701 C18.208,20.851 18.018,20.921 17.828,20.921 C17.638,20.921 17.448,20.851 17.298,20.701 C17.008,20.411 17.008,19.931 17.298,19.641 L17.848,19.091 L17.318,18.561 C17.028,18.271 17.028,17.791 17.318,17.501 C17.608,17.211 18.088,17.211 18.378,17.501 L18.908,18.031 L19.408,17.531 C19.698,17.241 20.178,17.241 20.468,17.531 C20.758,17.821 20.758,18.301 20.468,18.591 L19.968,19.091 L20.498,19.621 C20.788,19.911 20.788,20.391 20.498,20.681 Z"/>
  <path fill="#292D32" d="M22,7.548 L22,7.998 C22,8.548 21.55,8.998 21,8.998 L3,8.998 C2.45,8.998 2,8.548 2,7.998 L2,7.538 C2,5.248 3.85,3.398 6.14,3.398 L17.85,3.398 C20.14,3.398 22,5.258 22,7.548 Z"/>
  <path fill="#292D32" d="M2,11.498 L2,16.458 C2,18.748 3.85,20.598 6.14,20.598 L12.4,20.598 C12.98,20.598 13.48,20.108 13.43,19.528 C13.29,17.998 13.78,16.338 15.14,15.018 C15.7,14.468 16.39,14.048 17.14,13.808 C18.39,13.408 19.6,13.458 20.67,13.818 C21.32,14.038 22,13.568 22,12.878 L22,11.488 C22,10.938 21.55,10.488 21,10.488 L3,10.488 C2.45,10.498 2,10.948 2,11.498 Z M8,17.248 L6,17.248 C5.59,17.248 5.25,16.908 5.25,16.498 C5.25,16.088 5.59,15.748 6,15.748 L8,15.748 C8.41,15.748 8.75,16.088 8.75,16.498 C8.75,16.908 8.41,17.248 8,17.248 Z"/>
</svg>

