<svg xmlns="http://www.w3.org/2000/svg" width="24" height="24" viewBox="0 0 24 24">
  <defs/>
  <path fill="#292D32" d="M19,15 C16.79,15 15,16.79 15,19 C15,19.75 15.21,20.46 15.58,21.06 C16.27,22.22 17.54,23 19,23 C20.46,23 21.73,22.22 22.42,21.06 C22.79,20.46 23,19.75 23,19 C23,16.79 21.21,15 19,15 Z M21.07,18.57 L18.94,20.54 C18.8,20.67 18.61,20.74 18.43,20.74 C18.24,20.74 18.05,20.67 17.9,20.52 L16.91,19.53 C16.62,19.24 16.62,18.76 16.91,18.47 C17.2,18.18 17.68,18.18 17.97,18.47 L18.45,18.95 L20.05,17.47 C20.35,17.19 20.83,17.21 21.11,17.51 C21.39,17.81 21.37,18.28 21.07,18.57 Z"/>
  <path fill="#292D32" d="M22,7.54 L22,9 L2,9 L2,7.54 C2,5.25 3.86,3.4 6.15,3.4 L17.85,3.4 C20.14,3.4 22,5.25 22,7.54 Z"/>
  <path fill="#292D32" opacity="0.4" d="M2,9 L2,16.46 C2,18.75 3.85,20.6 6.14,20.6 L12.4,20.6 C12.98,20.6 13.48,20.11 13.43,19.53 C13.29,18 13.78,16.34 15.14,15.02 C15.7,14.47 16.39,14.05 17.14,13.81 C18.39,13.41 19.6,13.46 20.67,13.82 C21.32,14.04 22,13.57 22,12.88 L22,9 L2,9 Z M8,17.25 L6,17.25 C5.59,17.25 5.25,16.91 5.25,16.5 C5.25,16.09 5.59,15.75 6,15.75 L8,15.75 C8.41,15.75 8.75,16.09 8.75,16.5 C8.75,16.91 8.41,17.25 8,17.25 Z"/>
  <path fill="#292D32" d="M8.75,16.5 C8.75,16.91 8.41,17.25 8,17.25 L6,17.25 C5.59,17.25 5.25,16.91 5.25,16.5 C5.25,16.09 5.59,15.75 6,15.75 L8,15.75 C8.41,15.75 8.75,16.09 8.75,16.5 Z"/>
</svg>

