<svg xmlns="http://www.w3.org/2000/svg" width="24" height="24" viewBox="0 0 24 24">
  <defs/>
  <path fill="#292D32" d="M22,21.25 C22,21.66 21.66,22 21.25,22 L2.75,22 C2.34,22 2,21.66 2,21.25 C2,20.84 2.34,20.5 2.75,20.5 L21.25,20.5 C21.66,20.5 22,20.84 22,21.25 Z"/>
  <path fill="#292D32" d="M15.391,4.522 L4.651,15.262 C4.241,15.672 3.581,15.672 3.181,15.262 L3.171,15.262 C1.781,13.862 1.781,11.602 3.171,10.212 L10.321,3.062 C11.721,1.662 13.981,1.662 15.381,3.062 C15.791,3.452 15.791,4.122 15.391,4.522 Z"/>
  <path fill="#292D32" d="M20.821,8.49 L17.771,5.44 C17.361,5.03 16.701,5.03 16.301,5.44 L5.561,16.18 C5.151,16.58 5.151,17.24 5.561,17.65 L8.611,20.71 C10.011,22.1 12.271,22.1 13.671,20.71 L20.811,13.56 C22.231,12.16 22.231,9.89 20.821,8.49 Z M12.761,17.52 L11.551,18.74 C11.301,18.99 10.891,18.99 10.631,18.74 C10.381,18.49 10.381,18.08 10.631,17.82 L11.851,16.6 C12.091,16.36 12.511,16.36 12.761,16.6 C13.011,16.85 13.011,17.28 12.761,17.52 Z M16.731,13.55 L14.291,16 C14.041,16.24 13.631,16.24 13.371,16 C13.121,15.75 13.121,15.34 13.371,15.08 L15.821,12.63 C16.061,12.39 16.481,12.39 16.731,12.63 C16.981,12.89 16.981,13.3 16.731,13.55 Z"/>
</svg>

