<svg xmlns="http://www.w3.org/2000/svg" width="24" height="24" viewBox="0 0 24 24">
  <defs/>
  <path fill="#292D32" d="M2,7.75 L13.5,7.75 Q13.811,7.75 14.03,7.97 Q14.25,8.189 14.25,8.5 Q14.25,8.811 14.03,9.03 Q13.811,9.25 13.5,9.25 L2,9.25 Q1.689,9.25 1.47,9.03 Q1.25,8.811 1.25,8.5 Q1.25,8.189 1.47,7.97 Q1.689,7.75 2,7.75 Z"/>
  <path fill="#292D32" d="M6,15.75 L8,15.75 Q8.311,15.75 8.53,15.97 Q8.75,16.189 8.75,16.5 Q8.75,16.811 8.53,17.03 Q8.311,17.25 8,17.25 L6,17.25 Q5.689,17.25 5.47,17.03 Q5.25,16.811 5.25,16.5 Q5.25,16.189 5.47,15.97 Q5.689,15.75 6,15.75 Z"/>
  <path fill="#292D32" d="M10.5,15.75 L14.5,15.75 Q14.811,15.75 15.03,15.97 Q15.25,16.189 15.25,16.5 Q15.25,16.811 15.03,17.03 Q14.811,17.25 14.5,17.25 L10.5,17.25 Q10.189,17.25 9.97,17.03 Q9.75,16.811 9.75,16.5 Q9.75,16.189 9.97,15.97 Q10.189,15.75 10.5,15.75 Z"/>
  <path fill="#292D32" d="M1.25,11.03 L1.25,7.89 Q1.25,4.944 2.361,3.845 Q3.469,2.75 6.44,2.75 L13.5,2.75 Q13.811,2.75 14.03,2.97 Q14.25,3.189 14.25,3.5 Q14.25,3.811 14.03,4.03 Q13.811,4.25 13.5,4.25 L6.44,4.25 Q4.086,4.25 3.416,4.912 Q2.75,5.571 2.75,7.89 L2.75,11.03 Q2.75,11.341 2.53,11.56 Q2.311,11.78 2,11.78 Q1.689,11.78 1.47,11.56 Q1.25,11.341 1.25,11.03 Z"/>
  <path fill="#292D32" d="M22.75,12.03 L22.75,16.11 Q22.75,19.056 21.639,20.155 Q20.531,21.25 17.56,21.25 L6.44,21.25 Q3.469,21.25 2.361,20.155 Q1.25,19.056 1.25,16.11 L1.25,15.02 Q1.25,14.709 1.47,14.49 Q1.689,14.27 2,14.27 Q2.311,14.27 2.53,14.49 Q2.75,14.709 2.75,15.02 L2.75,16.11 Q2.75,18.429 3.416,19.088 Q4.086,19.75 6.44,19.75 L17.56,19.75 Q19.914,19.75 20.584,19.088 Q21.25,18.429 21.25,16.11 L21.25,12.03 Q21.25,11.719 21.47,11.5 Q21.689,11.28 22,11.28 Q22.311,11.28 22.53,11.5 Q22.75,11.719 22.75,12.03 Z"/>
  <path fill="#292D32" d="M16.78,7.66 L20.66,3.78 Q20.88,3.56 21.19,3.56 Q21.501,3.56 21.721,3.78 Q21.94,3.999 21.94,4.31 Q21.94,4.621 21.721,4.84 L17.841,8.72 Q17.621,8.94 17.31,8.94 Q17,8.94 16.78,8.72 Q16.56,8.501 16.56,8.19 Q16.56,7.879 16.78,7.66 Z"/>
  <path fill="#292D32" d="M20.66,8.72 L16.78,4.84 Q16.56,4.621 16.56,4.31 Q16.56,3.999 16.78,3.78 Q17,3.56 17.31,3.56 Q17.621,3.56 17.841,3.78 L21.721,7.66 Q21.94,7.879 21.94,8.19 Q21.94,8.501 21.721,8.72 Q21.501,8.94 21.19,8.94 Q20.88,8.94 20.66,8.72 Z"/>
</svg>

