<svg xmlns="http://www.w3.org/2000/svg" width="24" height="24" viewBox="0 0 24 24">
  <defs/>
  <path fill="#292D32" opacity="0.4" d="M22,9 L22,16.46 C22,18.75 20.14,20.6 17.85,20.6 L6.4,20.6 L9.97,17.03 L11.25,15.75 L18,9 L22,9 Z"/>
  <path fill="#292D32" opacity="0.4" d="M15,9 L4,20 C2.8,19.28 2,17.96 2,16.46 L2,9 L15,9 Z"/>
  <path fill="#292D32" d="M22,7.54 L22,9 L18,9 L21.47,5.53 C21.81,6.12 22,6.81 22,7.54 Z"/>
  <path fill="#292D32" d="M20,4 L15,9 L2,9 L2,7.54 C2,5.25 3.86,3.4 6.15,3.4 L17.85,3.4 C18.64,3.4 19.37,3.62 20,4 Z"/>
  <path fill="#292D32" d="M8.21,15.79 L6.75,17.25 L6,17.25 C5.59,17.25 5.25,16.91 5.25,16.5 C5.25,16.09 5.59,15.75 6,15.75 L8,15.75 C8.07,15.75 8.14,15.76 8.21,15.79 Z"/>
  <path fill="#292D32" d="M15.251,16.5 C15.251,16.91 14.911,17.25 14.501,17.25 L10.501,17.25 C10.301,17.25 10.111,17.16 9.971,17.03 L11.251,15.75 L14.501,15.75 C14.911,15.75 15.251,16.09 15.251,16.5 Z"/>
  <path fill="#292D32" d="M21.771,2.23 C21.471,1.93 20.981,1.93 20.681,2.23 L2.231,20.69 C1.931,20.99 1.931,21.48 2.231,21.78 C2.381,21.92 2.571,22 2.771,22 C2.971,22 3.161,21.92 3.311,21.77 L21.771,3.31 C22.081,3.01 22.081,2.53 21.771,2.23 Z"/>
</svg>

