<svg xmlns="http://www.w3.org/2000/svg" width="24" height="24" viewBox="0 0 24 24">
  <defs/>
  <path d="M17.148,10 C17.701,10 18.148,9.552 18.148,9 C18.148,8.448 17.701,8 17.148,8 C16.596,8 16.148,8.448 16.148,9 C16.148,9.552 16.596,10 17.148,10 Z"/>
  <path d="M17.148,16 C17.701,16 18.148,15.552 18.148,15 C18.148,14.448 17.701,14 17.148,14 C16.596,14 16.148,14.448 16.148,15 C16.148,15.552 16.596,16 17.148,16 Z"/>
  <path d="M19.75,13 C20.302,13 20.75,12.552 20.75,12 C20.75,11.448 20.302,11 19.75,11 C19.198,11 18.75,11.448 18.75,12 C18.75,12.552 19.198,13 19.75,13 Z"/>
  <path d="M6.799,10 C7.351,10 7.799,9.552 7.799,9 C7.799,8.448 7.351,8 6.799,8 C6.247,8 5.799,8.448 5.799,9 C5.799,9.552 6.247,10 6.799,10 Z"/>
  <path d="M6.799,16 C7.351,16 7.799,15.552 7.799,15 C7.799,14.448 7.351,14 6.799,14 C6.247,14 5.799,14.448 5.799,15 C5.799,15.552 6.247,16 6.799,16 Z"/>
  <path d="M4.199,13 C4.752,13 5.199,12.552 5.199,12 C5.199,11.448 4.752,11 4.199,11 C3.647,11 3.199,11.448 3.199,12 C3.199,12.552 3.647,13 4.199,13 Z"/>
  <path d="M15.898,6.199 C16.451,6.199 16.898,5.752 16.898,5.199 C16.898,4.647 16.451,4.199 15.898,4.199 C15.346,4.199 14.898,4.647 14.898,5.199 C14.898,5.752 15.346,6.199 15.898,6.199 Z"/>
  <path d="M8.1,6.199 C8.652,6.199 9.1,5.752 9.1,5.199 C9.1,4.647 8.652,4.199 8.1,4.199 C7.547,4.199 7.1,4.647 7.1,5.199 C7.1,5.752 7.547,6.199 8.1,6.199 Z"/>
  <path d="M12.049,7 C12.601,7 13.049,6.552 13.049,6 C13.049,5.448 12.601,5 12.049,5 C11.496,5 11.049,5.448 11.049,6 C11.049,6.552 11.496,7 12.049,7 Z"/>
  <path d="M15.898,20 C16.451,20 16.898,19.552 16.898,19 C16.898,18.448 16.451,18 15.898,18 C15.346,18 14.898,18.448 14.898,19 C14.898,19.552 15.346,20 15.898,20 Z"/>
  <path d="M8.1,20 C8.652,20 9.1,19.552 9.1,19 C9.1,18.448 8.652,18 8.1,18 C7.547,18 7.1,18.448 7.1,19 C7.1,19.552 7.547,20 8.1,20 Z"/>
  <path d="M12.049,19.199 C12.601,19.199 13.049,18.752 13.049,18.199 C13.049,17.647 12.601,17.199 12.049,17.199 C11.496,17.199 11.049,17.647 11.049,18.199 C11.049,18.752 11.496,19.199 12.049,19.199 Z"/>
  <path d="M13.75,10.25 C14.44,10.25 15,9.69 15,9 C15,8.31 14.44,7.75 13.75,7.75 C13.06,7.75 12.5,8.31 12.5,9 C12.5,9.69 13.06,10.25 13.75,10.25 Z"/>
  <path d="M10.25,10.25 C10.94,10.25 11.5,9.69 11.5,9 C11.5,8.31 10.94,7.75 10.25,7.75 C9.56,7.75 9,8.31 9,9 C9,9.69 9.56,10.25 10.25,10.25 Z"/>
  <path d="M15.5,13.25 C16.19,13.25 16.75,12.69 16.75,12 C16.75,11.31 16.19,10.75 15.5,10.75 C14.81,10.75 14.25,11.31 14.25,12 C14.25,12.69 14.81,13.25 15.5,13.25 Z"/>
  <path d="M8.5,13.25 C9.19,13.25 9.75,12.69 9.75,12 C9.75,11.31 9.19,10.75 8.5,10.75 C7.81,10.75 7.25,11.31 7.25,12 C7.25,12.69 7.81,13.25 8.5,13.25 Z"/>
  <path d="M10.25,16.25 C10.94,16.25 11.5,15.69 11.5,15 C11.5,14.31 10.94,13.75 10.25,13.75 C9.56,13.75 9,14.31 9,15 C9,15.69 9.56,16.25 10.25,16.25 Z"/>
  <path d="M13.75,16.25 C14.44,16.25 15,15.69 15,15 C15,14.31 14.44,13.75 13.75,13.75 C13.06,13.75 12.5,14.31 12.5,15 C12.5,15.69 13.06,16.25 13.75,16.25 Z"/>
  <path d="M11.999,3.33 C11.509,3.33 11.119,2.94 11.119,2.45 C11.119,1.96 11.509,1.57 11.999,1.57 C12.489,1.57 12.879,1.96 12.879,2.45 C12.879,2.94 12.489,3.33 11.999,3.33 Z"/>
  <path d="M17.25,3.602 C16.83,3.602 16.49,3.262 16.49,2.852 C16.49,2.442 16.83,2.102 17.24,2.102 C17.65,2.102 18,2.442 18,2.852 C18,3.262 17.67,3.602 17.25,3.602 Z"/>
  <path d="M6.75,3.602 C6.34,3.602 6,3.262 6,2.852 C6,2.442 6.33,2.102 6.75,2.102 L6.76,2.102 C7.17,2.102 7.51,2.442 7.51,2.852 C7.51,3.262 7.17,3.602 6.75,3.602 Z"/>
  <path d="M11.999,22.381 C11.509,22.381 11.119,21.991 11.119,21.501 C11.119,21.011 11.509,20.621 11.999,20.621 C12.489,20.621 12.879,21.011 12.879,21.501 C12.879,21.991 12.489,22.381 11.999,22.381 Z"/>
  <path d="M17.25,21.852 C16.83,21.852 16.49,21.512 16.49,21.102 C16.49,20.692 16.83,20.352 17.24,20.352 C17.65,20.352 18,20.692 18,21.102 C18,21.512 17.67,21.852 17.25,21.852 Z"/>
  <path d="M6.75,21.852 C6.34,21.852 6,21.512 6,21.102 C6,20.692 6.33,20.352 6.75,20.352 L6.76,20.352 C7.17,20.352 7.51,20.692 7.51,21.102 C7.51,21.512 7.17,21.852 6.75,21.852 Z"/>
  <path d="M1.55,12.881 C1.07,12.881 0.67,12.491 0.67,12.011 L0.67,12.001 C0.67,11.521 1.06,11.121 1.55,11.121 C2.04,11.121 2.43,11.511 2.43,12.001 C2.43,12.491 2.03,12.881 1.55,12.881 Z"/>
  <path d="M3.75,17.748 C3.34,17.748 3,17.418 3,16.998 L3,16.988 C3,16.578 3.34,16.238 3.75,16.238 C4.16,16.238 4.5,16.578 4.5,16.988 C4.5,17.398 4.16,17.748 3.75,17.748 Z"/>
  <path d="M3.75,7.762 C3.34,7.762 3,7.422 3,7.012 C3,6.602 3.34,6.262 3.75,6.262 C4.16,6.262 4.5,6.592 4.5,7.002 L4.5,7.012 C4.5,7.422 4.16,7.762 3.75,7.762 Z"/>
  <path d="M22.499,12.881 C22.019,12.881 21.619,12.491 21.619,12.011 L21.619,12.001 C21.619,11.521 22.009,11.121 22.499,11.121 C22.989,11.121 23.379,11.511 23.379,12.001 C23.379,12.491 22.979,12.881 22.499,12.881 Z"/>
  <path d="M20.301,17.748 C19.891,17.748 19.551,17.418 19.551,16.998 L19.551,16.988 C19.551,16.578 19.891,16.238 20.301,16.238 C20.711,16.238 21.051,16.578 21.051,16.988 C21.051,17.398 20.711,17.748 20.301,17.748 Z"/>
  <path d="M20.301,7.762 C19.891,7.762 19.551,7.422 19.551,7.012 C19.551,6.602 19.891,6.262 20.301,6.262 C20.711,6.262 21.051,6.592 21.051,7.012 L21.051,7.022 C21.051,7.422 20.711,7.762 20.301,7.762 Z"/>
</svg>

