<svg xmlns="http://www.w3.org/2000/svg" width="24" height="24" viewBox="0 0 24 24">
  <defs/>
  <path fill="#292D32" d="M15.24,9.25 L2,9.25 C1.59,9.25 1.25,8.91 1.25,8.5 C1.25,8.09 1.59,7.75 2,7.75 L15.24,7.75 C15.65,7.75 15.99,8.09 15.99,8.5 C15.99,8.91 15.65,9.25 15.24,9.25 Z"/>
  <path fill="#292D32" d="M7.29,17.25 L6,17.25 C5.59,17.25 5.25,16.91 5.25,16.5 C5.25,16.09 5.59,15.75 6,15.75 L7.29,15.75 C7.7,15.75 8.04,16.09 8.04,16.5 C8.04,16.91 7.71,17.25 7.29,17.25 Z"/>
  <path fill="#292D32" d="M14.5,17.25 L11,17.25 C10.59,17.25 10.25,16.91 10.25,16.5 C10.25,16.09 10.59,15.75 11,15.75 L14.5,15.75 C14.91,15.75 15.25,16.09 15.25,16.5 C15.25,16.91 14.91,17.25 14.5,17.25 Z"/>
  <path fill="#292D32" d="M17.561,21.25 L7.98,21.25 C7.57,21.25 7.23,20.91 7.23,20.5 C7.23,20.09 7.57,19.75 7.98,19.75 L17.561,19.75 C20.701,19.75 21.25,19.21 21.25,16.11 L21.25,6.89 C21.25,6.48 21.59,6.14 22,6.14 C22.41,6.14 22.75,6.48 22.75,6.89 L22.75,16.1 C22.75,20.05 21.541,21.25 17.561,21.25 Z"/>
  <path fill="#292D32" d="M3.71,20.89 C3.62,20.89 3.52,20.87 3.43,20.84 C1.62,20.12 1.25,18.43 1.25,16.11 L1.25,7.89 C1.25,3.95 2.46,2.75 6.44,2.75 L17.55,2.75 C18.69,2.75 19.53,2.84 20.19,3.04 C20.59,3.16 20.81,3.57 20.7,3.97 C20.58,4.37 20.16,4.59 19.77,4.48 C19.25,4.33 18.55,4.26 17.55,4.26 L6.44,4.26 C3.3,4.26 2.75,4.8 2.75,7.9 L2.75,16.11 C2.75,18.5 3.18,19.13 3.99,19.45 C4.38,19.6 4.56,20.04 4.41,20.42 C4.29,20.71 4.01,20.89 3.71,20.89 Z"/>
  <path fill="#292D32" d="M1.999,22.75 C1.809,22.75 1.619,22.68 1.469,22.53 C1.179,22.24 1.179,21.76 1.469,21.47 L21.47,1.47 C21.759,1.18 22.239,1.18 22.529,1.47 C22.82,1.76 22.82,2.24 22.529,2.53 L2.529,22.53 C2.379,22.68 2.189,22.75 1.999,22.75 Z"/>
</svg>

