<svg xmlns="http://www.w3.org/2000/svg" width="24" height="24" viewBox="0 0 24 24">
  <defs/>
  <path fill="#292D32" d="M18.9,15.03 C16.69,15.03 14.9,16.82 14.9,19.03 C14.9,21.24 16.69,23.03 18.9,23.03 C21.11,23.03 22.9,21.24 22.9,19.03 C22.9,16.82 21.11,15.03 18.9,15.03 Z M20.5,20.68 C20.35,20.83 20.16,20.9 19.97,20.9 C19.78,20.9 19.59,20.83 19.44,20.68 L18.91,20.15 L18.36,20.7 C18.21,20.85 18.02,20.92 17.83,20.92 C17.64,20.92 17.45,20.85 17.3,20.7 C17.01,20.41 17.01,19.93 17.3,19.64 L17.85,19.09 L17.32,18.56 C17.03,18.27 17.03,17.79 17.32,17.5 C17.61,17.21 18.09,17.21 18.38,17.5 L18.91,18.03 L19.41,17.53 C19.7,17.24 20.18,17.24 20.47,17.53 C20.76,17.82 20.76,18.3 20.47,18.59 L19.97,19.09 L20.5,19.62 C20.79,19.91 20.79,20.39 20.5,20.68 Z"/>
  <path fill="#292D32" d="M22,7.54 L22,9 L2,9 L2,7.54 C2,5.25 3.86,3.4 6.15,3.4 L17.85,3.4 C20.14,3.4 22,5.25 22,7.54 Z"/>
  <path fill="#292D32" opacity="0.4" d="M2,9 L2,16.46 C2,18.75 3.85,20.6 6.14,20.6 L12.4,20.6 C12.98,20.6 13.48,20.11 13.43,19.53 C13.29,18 13.78,16.34 15.14,15.02 C15.7,14.47 16.39,14.05 17.14,13.81 C18.39,13.41 19.6,13.46 20.67,13.82 C21.32,14.04 22,13.57 22,12.88 L22,9 L2,9 Z M8,17.25 L6,17.25 C5.59,17.25 5.25,16.91 5.25,16.5 C5.25,16.09 5.59,15.75 6,15.75 L8,15.75 C8.41,15.75 8.75,16.09 8.75,16.5 C8.75,16.91 8.41,17.25 8,17.25 Z"/>
  <path fill="#292D32" d="M8.75,16.5 C8.75,16.91 8.41,17.25 8,17.25 L6,17.25 C5.59,17.25 5.25,16.91 5.25,16.5 C5.25,16.09 5.59,15.75 6,15.75 L8,15.75 C8.41,15.75 8.75,16.09 8.75,16.5 Z"/>
</svg>

