<svg xmlns="http://www.w3.org/2000/svg" width="24" height="24" viewBox="0 0 24 24">
  <defs/>
  <path fill="#292D32" d="M2,11.46 L2,16.46 C2,18.75 3.85,20.6 6.14,20.6 L17.85,20.6 C20.14,20.6 22,18.74 22,16.45 L22,11.46 C22,10.79 21.46,10.25 20.79,10.25 L3.21,10.25 C2.54,10.25 2,10.79 2,11.46 Z M8,17.25 L6,17.25 C5.59,17.25 5.25,16.91 5.25,16.5 C5.25,16.09 5.59,15.75 6,15.75 L8,15.75 C8.41,15.75 8.75,16.09 8.75,16.5 C8.75,16.91 8.41,17.25 8,17.25 Z M14.5,17.25 L10.5,17.25 C10.09,17.25 9.75,16.91 9.75,16.5 C9.75,16.09 10.09,15.75 10.5,15.75 L14.5,15.75 C14.91,15.75 15.25,16.09 15.25,16.5 C15.25,16.91 14.91,17.25 14.5,17.25 Z"/>
  <path fill="#292D32" d="M13.5,4.608 L13.5,7.538 C13.5,8.208 12.96,8.748 12.29,8.748 L3.21,8.748 C2.53,8.748 2,8.188 2,7.518 C2.01,6.388 2.46,5.358 3.21,4.608 C3.96,3.858 5,3.398 6.14,3.398 L12.29,3.398 C12.96,3.398 13.5,3.938 13.5,4.608 Z"/>
  <path fill="#292D32" d="M19.97,2 L17.03,2 C15.76,2 15,2.76 15,4.03 L15,6.97 C15,8.24 15.76,9 17.03,9 L19.97,9 C21.24,9 22,8.24 22,6.97 L22,4.03 C22,2.76 21.24,2 19.97,2 Z M20.34,6.49 C20.45,6.62 20.51,6.76 20.51,6.93 C20.51,7.07 20.45,7.23 20.34,7.34 C20.11,7.57 19.72,7.57 19.49,7.34 L18.5,6.35 L17.52,7.35 C17.29,7.58 16.9,7.58 16.66,7.34 C16.43,7.11 16.43,6.72 16.66,6.49 L17.66,5.51 L16.67,4.52 C16.44,4.29 16.43,3.9 16.66,3.66 C16.89,3.42 17.28,3.43 17.52,3.67 L18.5,4.66 L19.5,3.66 C19.73,3.43 20.12,3.43 20.35,3.66 C20.46,3.79 20.51,3.94 20.52,4.1 C20.52,4.24 20.46,4.4 20.36,4.52 L19.36,5.52 L20.34,6.49 Z"/>
</svg>

