<svg xmlns="http://www.w3.org/2000/svg" width="24" height="24" viewBox="0 0 24 24">
  <defs/>
  <path fill="#292D32" d="M2,9.25 L22,9.25 Q22.311,9.25 22.53,9.47 Q22.75,9.689 22.75,10 Q22.75,10.311 22.53,10.53 Q22.311,10.75 22,10.75 L2,10.75 Q1.689,10.75 1.47,10.53 Q1.25,10.311 1.25,10 Q1.25,9.689 1.47,9.47 Q1.689,9.25 2,9.25 Z"/>
  <path fill="#292D32" d="M11.548,21.25 L6.438,21.25 Q3.467,21.25 2.356,20.155 Q1.238,19.055 1.238,16.11 L1.238,7.89 Q1.238,3.024 5.475,2.781 Q6.065,2.76 6.438,2.76 L17.548,2.76 Q20.52,2.76 21.631,3.854 Q22.748,4.955 22.748,7.9 L22.748,12.31 Q22.748,12.62 22.529,12.84 Q22.309,13.06 21.998,13.06 Q21.688,13.06 21.468,12.84 Q21.248,12.62 21.248,12.31 L21.248,7.9 Q21.248,5.583 20.578,4.923 Q19.905,4.26 17.548,4.26 L6.438,4.26 Q6.092,4.26 5.561,4.279 Q3.823,4.378 3.295,5.044 Q2.738,5.744 2.738,7.89 L2.738,16.11 Q2.738,18.427 3.408,19.087 Q4.081,19.75 6.438,19.75 L11.548,19.75 Q11.859,19.75 12.079,19.969 Q12.298,20.189 12.298,20.5 Q12.298,20.81 12.079,21.03 Q11.859,21.25 11.548,21.25 Z"/>
  <path fill="#292D32" d="M6,15.25 L10,15.25 Q10.311,15.25 10.53,15.47 Q10.75,15.689 10.75,16 Q10.75,16.311 10.53,16.53 Q10.311,16.75 10,16.75 L6,16.75 Q5.689,16.75 5.47,16.53 Q5.25,16.311 5.25,16 Q5.25,15.689 5.47,15.47 Q5.689,15.25 6,15.25 Z"/>
  <path fill="#292D32" d="M22.75,18 Q22.75,19.332 22.058,20.454 Q20.693,22.75 18,22.75 Q15.307,22.75 13.935,20.443 Q13.25,19.332 13.25,18 Q13.25,16.032 14.641,14.641 Q16.032,13.25 18,13.25 Q19.968,13.25 21.359,14.641 Q22.75,16.032 22.75,18 Z M21.25,18 Q21.25,14.75 18,14.75 Q14.75,14.75 14.75,18 Q14.75,18.907 15.225,19.677 Q16.16,21.25 18,21.25 Q19.84,21.25 20.782,19.666 Q21.25,18.907 21.25,18 Z"/>
  <path fill="#292D32" d="M16.972,17.469 L17.452,17.949 L19.052,16.469 Q19.28,16.258 19.591,16.27 Q19.901,16.282 20.112,16.51 Q20.323,16.738 20.311,17.049 Q20.299,17.359 20.071,17.57 L17.941,19.54 Q17.719,19.745 17.417,19.739 Q17.115,19.733 16.901,19.52 L15.911,18.53 Q15.691,18.31 15.691,18 Q15.691,17.689 15.911,17.469 Q16.131,17.249 16.441,17.249 Q16.752,17.249 16.972,17.469 Z"/>
</svg>

