<svg xmlns="http://www.w3.org/2000/svg" width="24" height="24" viewBox="0 0 24 24">
  <defs/>
  <path fill="#292D32" d="M2,16.31 L12,16.31 Q12.311,16.31 12.53,16.53 Q12.75,16.749 12.75,17.06 Q12.75,17.371 12.53,17.59 Q12.311,17.81 12,17.81 L2,17.81 Q1.689,17.81 1.47,17.59 Q1.25,17.371 1.25,17.06 Q1.25,16.749 1.47,16.53 Q1.689,16.31 2,16.31 Z"/>
  <path fill="#292D32" d="M5.69,22.75 L4.23,22.75 Q1.26,22.75 1.26,19.8 L1.26,15.7 Q1.26,12.75 4.23,12.75 L9.79,12.75 Q11.433,12.75 12.096,13.408 Q12.76,14.067 12.76,15.7 L12.76,19.81 Q12.76,21.443 12.096,22.102 Q11.433,22.76 9.79,22.76 Q9.479,22.76 9.259,22.54 Q9.04,22.321 9.04,22.01 Q9.04,21.699 9.259,21.48 Q9.479,21.26 9.79,21.26 Q11.26,21.26 11.26,19.81 L11.26,15.7 Q11.26,14.25 9.79,14.25 L4.23,14.25 Q3.205,14.25 2.981,14.472 Q2.76,14.691 2.76,15.7 L2.76,19.8 Q2.76,20.809 2.981,21.028 Q3.205,21.25 4.23,21.25 L5.69,21.25 Q6,21.25 6.22,21.47 Q6.44,21.689 6.44,22 Q6.44,22.311 6.22,22.53 Q6,22.75 5.69,22.75 Z"/>
  <path fill="#292D32" d="M22.75,15 Q22.75,18.213 20.482,20.482 Q18.213,22.75 15,22.75 Q14.689,22.75 14.47,22.53 Q14.25,22.311 14.25,22 Q14.25,21.792 14.357,21.614 L15.407,19.864 Q15.567,19.598 15.868,19.522 Q16.169,19.447 16.436,19.607 Q16.702,19.767 16.778,20.068 Q16.853,20.369 16.693,20.636 L16.414,21.102 Q18.112,20.729 19.421,19.421 Q21.25,17.592 21.25,15 Q21.25,14.689 21.47,14.47 Q21.689,14.25 22,14.25 Q22.311,14.25 22.53,14.47 Q22.75,14.689 22.75,15 Z"/>
  <path fill="#292D32" d="M1.25,9 Q1.25,5.787 3.518,3.518 Q5.787,1.25 9,1.25 Q9.311,1.25 9.53,1.47 Q9.75,1.689 9.75,2 Q9.75,2.208 9.643,2.386 L8.593,4.136 Q8.433,4.402 8.132,4.478 Q7.831,4.553 7.564,4.393 Q7.298,4.233 7.222,3.932 Q7.147,3.631 7.307,3.364 L7.586,2.898 Q5.888,3.271 4.579,4.579 Q2.75,6.408 2.75,9 Q2.75,9.311 2.53,9.53 Q2.311,9.75 2,9.75 Q1.689,9.75 1.47,9.53 Q1.25,9.311 1.25,9 Z"/>
  <path fill="#292D32" d="M18.5,10.25 Q22.25,10.25 22.25,6.5 Q22.25,2.75 18.5,2.75 Q14.75,2.75 14.75,6.5 Q14.75,7.234 15.014,7.874 Q15.132,8.162 15.012,8.448 Q14.893,8.735 14.606,8.854 Q14.318,8.972 14.032,8.852 Q13.745,8.733 13.626,8.446 Q13.25,7.531 13.25,6.5 Q13.25,4.322 14.786,2.786 Q16.322,1.25 18.5,1.25 Q20.678,1.25 22.214,2.786 Q23.75,4.322 23.75,6.5 Q23.75,8.678 22.214,10.214 Q20.678,11.75 18.5,11.75 Q18.189,11.75 17.97,11.53 Q17.75,11.311 17.75,11 Q17.75,10.689 17.97,10.47 Q18.189,10.25 18.5,10.25 Z"/>
</svg>

