<svg xmlns="http://www.w3.org/2000/svg" width="24" height="24" viewBox="0 0 24 24">
  <defs/>
  <path fill="#292D32" d="M20.97,8 L18.03,8 C16.76,8 16,7.24 16,5.97 L16,3.03 C16,1.76 16.76,1 18.03,1 L20.97,1 C22.24,1 23,1.76 23,3.03 L23,5.97 C23,7.24 22.24,8 20.97,8 Z M21.19,4.69 C21.07,4.57 20.91,4.51 20.75,4.51 C20.59,4.51 20.43,4.57 20.31,4.69 L20.13,4.87 L20.13,2.63 C20.13,2.28 19.85,2 19.5,2 C19.15,2 18.87,2.28 18.87,2.63 L18.87,4.87 L18.69,4.69 C18.45,4.45 18.05,4.45 17.81,4.69 C17.57,4.93 17.57,5.33 17.81,5.57 L19.06,6.82 C19.11,6.87 19.18,6.91 19.25,6.94 C19.27,6.95 19.29,6.95 19.31,6.96 C19.36,6.98 19.41,6.99 19.47,6.99 C19.49,6.99 19.51,6.99 19.53,6.99 C19.6,6.99 19.66,6.98 19.73,6.95 C19.74,6.95 19.74,6.95 19.75,6.95 C19.82,6.92 19.88,6.88 19.93,6.83 C19.94,6.82 19.94,6.82 19.95,6.82 L21.2,5.57 C21.44,5.33 21.44,4.93 21.19,4.69 Z"/>
  <path fill="#292D32" opacity="0.4" d="M22,7.77 L22,9 L2,9 L2,7.54 C2,5.25 3.86,3.4 6.15,3.4 L16,3.4 L16,5.97 C16,7.24 16.76,8 18.03,8 L20.97,8 C21.37,8 21.71,7.93 22,7.77 Z"/>
  <path fill="#292D32" d="M2,9 L2,16.46 C2,18.75 3.86,20.6 6.15,20.6 L17.85,20.6 C20.14,20.6 22,18.75 22,16.46 L22,9 L2,9 Z M8,17.25 L6,17.25 C5.59,17.25 5.25,16.91 5.25,16.5 C5.25,16.09 5.59,15.75 6,15.75 L8,15.75 C8.41,15.75 8.75,16.09 8.75,16.5 C8.75,16.91 8.41,17.25 8,17.25 Z M14.5,17.25 L10.5,17.25 C10.09,17.25 9.75,16.91 9.75,16.5 C9.75,16.09 10.09,15.75 10.5,15.75 L14.5,15.75 C14.91,15.75 15.25,16.09 15.25,16.5 C15.25,16.91 14.91,17.25 14.5,17.25 Z"/>
</svg>

