<svg xmlns="http://www.w3.org/2000/svg" width="24" height="24" viewBox="0 0 24 24">
  <defs/>
  <path fill="#292D32" opacity="0.4" d="M19,10.28 L19,17.43 C18.97,20.28 18.19,21 15.22,21 L5.78,21 C2.76,21 2,20.25 2,17.27 L2,10.28 C2,7.58 2.63,6.71 5,6.57 C5.24,6.56 5.5,6.55 5.78,6.55 L15.22,6.55 C18.24,6.55 19,7.3 19,10.28 Z"/>
  <path fill="#292D32" d="M22,6.73 L22,13.72 C22,16.42 21.37,17.29 19,17.43 L19,10.28 C19,7.3 18.24,6.55 15.22,6.55 L5.78,6.55 C5.5,6.55 5.24,6.56 5,6.57 C5.03,3.72 5.81,3 8.78,3 L18.22,3 C21.24,3 22,3.75 22,6.73 Z"/>
  <path fill="#292D32" d="M6.96,18.56 L5.24,18.56 C4.83,18.56 4.49,18.22 4.49,17.81 C4.49,17.4 4.83,17.06 5.24,17.06 L6.96,17.06 C7.37,17.06 7.71,17.4 7.71,17.81 C7.71,18.22 7.38,18.56 6.96,18.56 Z"/>
  <path fill="#292D32" d="M12.549,18.56 L9.109,18.56 C8.699,18.56 8.359,18.22 8.359,17.81 C8.359,17.4 8.699,17.06 9.109,17.06 L12.549,17.06 C12.959,17.06 13.299,17.4 13.299,17.81 C13.299,18.22 12.969,18.56 12.549,18.56 Z"/>
  <path fill="#292D32" d="M19,11.86 L2,11.86 L2,13.36 L19,13.36 L19,11.86 Z"/>
</svg>

