<svg xmlns="http://www.w3.org/2000/svg" width="24" height="24" viewBox="0 0 24 24">
  <defs/>
  <path fill="#292D32" d="M3.399,15.349 L15.349,3.399 Q15.569,3.179 15.88,3.179 Q16.19,3.179 16.41,3.399 Q16.63,3.619 16.63,3.929 Q16.63,4.24 16.41,4.46 L4.46,16.41 Q4.24,16.629 3.93,16.629 Q3.619,16.629 3.399,16.41 Q3.18,16.19 3.18,15.879 Q3.18,15.569 3.399,15.349 Z"/>
  <path fill="#292D32" d="M10.571,17.749 L11.771,16.549 Q11.991,16.329 12.301,16.329 Q12.612,16.329 12.832,16.549 Q13.051,16.768 13.051,17.079 Q13.051,17.39 12.832,17.609 L11.632,18.809 Q11.412,19.029 11.101,19.029 Q10.791,19.029 10.571,18.809 Q10.351,18.59 10.351,18.279 Q10.351,17.968 10.571,17.749 Z"/>
  <path fill="#292D32" d="M13.263,15.058 L15.653,12.668 Q15.872,12.449 16.183,12.449 Q16.494,12.449 16.713,12.668 Q16.933,12.888 16.933,13.199 Q16.933,13.509 16.713,13.729 L14.323,16.119 Q14.104,16.339 13.793,16.339 Q13.482,16.339 13.263,16.119 Q13.043,15.899 13.043,15.589 Q13.043,15.278 13.263,15.058 Z"/>
  <path fill="#292D32" d="M3.071,9.709 L9.711,3.069 Q12.896,-0.117 16.052,3.039 L20.962,7.949 Q24.117,11.104 20.932,14.289 L14.292,20.929 Q11.106,24.115 7.951,20.959 L3.041,16.049 Q1.244,14.252 1.25,12.887 Q1.256,11.523 3.071,9.709 Z M4.132,10.769 Q2.754,12.147 2.75,12.894 Q2.747,13.634 4.102,14.989 L9.012,19.899 Q10.364,21.251 11.109,21.247 Q11.858,21.242 13.231,19.869 L19.871,13.229 Q21.244,11.856 21.249,11.107 Q21.254,10.362 19.901,9.009 L14.991,4.099 Q13.638,2.747 12.894,2.751 Q12.145,2.756 10.772,4.129 Z"/>
  <path fill="#292D32" d="M2,21.249 L22,21.249 Q22.311,21.249 22.53,21.468 Q22.75,21.688 22.75,21.999 Q22.75,22.309 22.53,22.529 Q22.311,22.749 22,22.749 L2,22.749 Q1.689,22.749 1.47,22.529 Q1.25,22.309 1.25,21.999 Q1.25,21.688 1.47,21.468 Q1.689,21.249 2,21.249 Z"/>
</svg>

