<svg xmlns="http://www.w3.org/2000/svg" width="24" height="24" viewBox="0 0 24 24">
  <defs/>
  <path fill="#292D32" d="M7.24,2 L5.34,2 C3.15,2 2,3.15 2,5.33 L2,7.23 C2,9.41 3.15,10.56 5.33,10.56 L7.23,10.56 C9.41,10.56 10.56,9.41 10.56,7.23 L10.56,5.33 C10.57,3.15 9.42,2 7.24,2 Z"/>
  <path fill="#292D32" opacity="0.4" d="M18.669,2 L16.77,2 C14.589,2 13.44,3.15 13.44,5.33 L13.44,7.23 C13.44,9.41 14.589,10.56 16.77,10.56 L18.669,10.56 C20.849,10.56 22,9.41 22,7.23 L22,5.33 C22,3.15 20.849,2 18.669,2 Z"/>
  <path fill="#292D32" d="M18.669,13.43 L16.77,13.43 C14.589,13.43 13.44,14.58 13.44,16.76 L13.44,18.66 C13.44,20.84 14.589,21.99 16.77,21.99 L18.669,21.99 C20.849,21.99 22,20.84 22,18.66 L22,16.76 C22,14.58 20.849,13.43 18.669,13.43 Z"/>
  <path fill="#292D32" opacity="0.4" d="M7.24,13.43 L5.34,13.43 C3.15,13.43 2,14.58 2,16.76 L2,18.66 C2,20.85 3.15,22 5.33,22 L7.23,22 C9.41,22 10.56,20.85 10.56,18.67 L10.56,16.77 C10.57,14.58 9.42,13.43 7.24,13.43 Z"/>
</svg>

