<svg xmlns="http://www.w3.org/2000/svg" width="24" height="24" viewBox="0 0 24 24">
  <defs/>
  <path fill="#292D32" d="M7,10.75 L5,10.75 C2.58,10.75 1.25,9.42 1.25,7 L1.25,5 C1.25,2.58 2.58,1.25 5,1.25 L7,1.25 C9.42,1.25 10.75,2.58 10.75,5 L10.75,7 C10.75,9.42 9.42,10.75 7,10.75 Z M5,2.75 C3.42,2.75 2.75,3.42 2.75,5 L2.75,7 C2.75,8.58 3.42,9.25 5,9.25 L7,9.25 C8.58,9.25 9.25,8.58 9.25,7 L9.25,5 C9.25,3.42 8.58,2.75 7,2.75 L5,2.75 Z"/>
  <path fill="#292D32" d="M19,10.75 L17,10.75 C14.58,10.75 13.25,9.42 13.25,7 L13.25,5 C13.25,2.58 14.58,1.25 17,1.25 L19,1.25 C21.42,1.25 22.75,2.58 22.75,5 L22.75,7 C22.75,9.42 21.42,10.75 19,10.75 Z M17,2.75 C15.42,2.75 14.75,3.42 14.75,5 L14.75,7 C14.75,8.58 15.42,9.25 17,9.25 L19,9.25 C20.58,9.25 21.25,8.58 21.25,7 L21.25,5 C21.25,3.42 20.58,2.75 19,2.75 L17,2.75 Z"/>
  <path fill="#292D32" d="M19,22.75 L17,22.75 C14.58,22.75 13.25,21.42 13.25,19 L13.25,17 C13.25,14.58 14.58,13.25 17,13.25 L19,13.25 C21.42,13.25 22.75,14.58 22.75,17 L22.75,19 C22.75,21.42 21.42,22.75 19,22.75 Z M17,14.75 C15.42,14.75 14.75,15.42 14.75,17 L14.75,19 C14.75,20.58 15.42,21.25 17,21.25 L19,21.25 C20.58,21.25 21.25,20.58 21.25,19 L21.25,17 C21.25,15.42 20.58,14.75 19,14.75 L17,14.75 Z"/>
  <path fill="#292D32" d="M7,22.75 L5,22.75 C2.58,22.75 1.25,21.42 1.25,19 L1.25,17 C1.25,14.58 2.58,13.25 5,13.25 L7,13.25 C9.42,13.25 10.75,14.58 10.75,17 L10.75,19 C10.75,21.42 9.42,22.75 7,22.75 Z M5,14.75 C3.42,14.75 2.75,15.42 2.75,17 L2.75,19 C2.75,20.58 3.42,21.25 5,21.25 L7,21.25 C8.58,21.25 9.25,20.58 9.25,19 L9.25,17 C9.25,15.42 8.58,14.75 7,14.75 L5,14.75 Z"/>
</svg>

