<svg xmlns="http://www.w3.org/2000/svg" width="24" height="24" viewBox="0 0 24 24">
  <defs/>
  <path fill="#292D32" d="M19,10.75 L17,10.75 C14.58,10.75 13.25,9.42 13.25,7 L13.25,5 C13.25,2.58 14.58,1.25 17,1.25 L19,1.25 C21.42,1.25 22.75,2.58 22.75,5 L22.75,7 C22.75,9.42 21.42,10.75 19,10.75 Z M17,2.75 C15.42,2.75 14.75,3.42 14.75,5 L14.75,7 C14.75,8.58 15.42,9.25 17,9.25 L19,9.25 C20.58,9.25 21.25,8.58 21.25,7 L21.25,5 C21.25,3.42 20.58,2.75 19,2.75 L17,2.75 Z"/>
  <path fill="#292D32" d="M7,22.75 L5,22.75 C2.58,22.75 1.25,21.42 1.25,19 L1.25,17 C1.25,14.58 2.58,13.25 5,13.25 L7,13.25 C9.42,13.25 10.75,14.58 10.75,17 L10.75,19 C10.75,21.42 9.42,22.75 7,22.75 Z M5,14.75 C3.42,14.75 2.75,15.42 2.75,17 L2.75,19 C2.75,20.58 3.42,21.25 5,21.25 L7,21.25 C8.58,21.25 9.25,20.58 9.25,19 L9.25,17 C9.25,15.42 8.58,14.75 7,14.75 L5,14.75 Z"/>
  <path fill="#292D32" d="M6,10.75 C3.38,10.75 1.25,8.62 1.25,6 C1.25,3.38 3.38,1.25 6,1.25 C8.62,1.25 10.75,3.38 10.75,6 C10.75,8.62 8.62,10.75 6,10.75 Z M6,2.75 C4.21,2.75 2.75,4.21 2.75,6 C2.75,7.79 4.21,9.25 6,9.25 C7.79,9.25 9.25,7.79 9.25,6 C9.25,4.21 7.79,2.75 6,2.75 Z"/>
  <path fill="#292D32" d="M18,22.75 C15.38,22.75 13.25,20.62 13.25,18 C13.25,15.38 15.38,13.25 18,13.25 C20.62,13.25 22.75,15.38 22.75,18 C22.75,20.62 20.62,22.75 18,22.75 Z M18,14.75 C16.21,14.75 14.75,16.21 14.75,18 C14.75,19.79 16.21,21.25 18,21.25 C19.79,21.25 21.25,19.79 21.25,18 C21.25,16.21 19.79,14.75 18,14.75 Z"/>
</svg>

