<svg xmlns="http://www.w3.org/2000/svg" width="24" height="24" viewBox="0 0 24 24">
  <defs/>
  <path fill="#292D32" d="M5,10.75 Q1.25,10.75 1.25,7 L1.25,5 Q1.25,1.25 5,1.25 L7,1.25 Q10.75,1.25 10.75,5 L10.75,7 Q10.75,10.75 7,10.75 Z M5,9.25 L7,9.25 Q9.25,9.25 9.25,7 L9.25,5 Q9.25,2.75 7,2.75 L5,2.75 Q2.75,2.75 2.75,5 L2.75,7 Q2.75,9.25 5,9.25 Z"/>
  <path fill="#292D32" d="M19,2.75 L17,2.75 Q14.75,2.75 14.75,5 L14.75,7 Q14.75,9.25 17,9.25 L19,9.25 Q21.25,9.25 21.25,7 L21.25,5 Q21.25,4.689 21.47,4.47 Q21.689,4.25 22,4.25 Q22.311,4.25 22.53,4.47 Q22.75,4.689 22.75,5 L22.75,7 Q22.75,10.75 19,10.75 L17,10.75 Q13.25,10.75 13.25,7 L13.25,5 Q13.25,1.25 17,1.25 L19,1.25 Q19.311,1.25 19.53,1.47 Q19.75,1.689 19.75,2 Q19.75,2.311 19.53,2.53 Q19.311,2.75 19,2.75 Z"/>
  <path fill="#292D32" d="M17,22.75 Q13.25,22.75 13.25,19 L13.25,17 Q13.25,13.25 17,13.25 L19,13.25 Q22.75,13.25 22.75,17 L22.75,19 Q22.75,22.75 19,22.75 Z M17,21.25 L19,21.25 Q21.25,21.25 21.25,19 L21.25,17 Q21.25,14.75 19,14.75 L17,14.75 Q14.75,14.75 14.75,17 L14.75,19 Q14.75,21.25 17,21.25 Z"/>
  <path fill="#292D32" d="M5,21.25 L7,21.25 Q9.25,21.25 9.25,19 L9.25,17 Q9.25,14.75 7,14.75 L5,14.75 Q2.75,14.75 2.75,17 L2.75,19 Q2.75,19.311 2.53,19.53 Q2.311,19.75 2,19.75 Q1.689,19.75 1.47,19.53 Q1.25,19.311 1.25,19 L1.25,17 Q1.25,13.25 5,13.25 L7,13.25 Q10.75,13.25 10.75,17 L10.75,19 Q10.75,22.75 7,22.75 L5,22.75 Q4.689,22.75 4.47,22.53 Q4.25,22.311 4.25,22 Q4.25,21.689 4.47,21.47 Q4.689,21.25 5,21.25 Z"/>
</svg>

