<svg xmlns="http://www.w3.org/2000/svg" width="24" height="24" viewBox="0 0 24 24">
  <defs/>
  <path fill="#292D32" opacity="0.4" d="M18.669,2 L16.77,2 C14.589,2 13.44,3.15 13.44,5.33 L13.44,7.23 C13.44,9.41 14.589,10.56 16.77,10.56 L18.669,10.56 C20.849,10.56 22,9.41 22,7.23 L22,5.33 C22,3.15 20.849,2 18.669,2 Z"/>
  <path fill="#292D32" opacity="0.4" d="M7.24,13.43 L5.34,13.43 C3.15,13.43 2,14.58 2,16.76 L2,18.66 C2,20.85 3.15,22 5.33,22 L7.23,22 C9.41,22 10.56,20.85 10.56,18.67 L10.56,16.77 C10.57,14.58 9.42,13.43 7.24,13.43 Z"/>
  <path fill="#292D32" d="M6.29,10.58 C8.659,10.58 10.58,8.659 10.58,6.29 C10.58,3.921 8.659,2 6.29,2 C3.921,2 2,3.921 2,6.29 C2,8.659 3.921,10.58 6.29,10.58 Z"/>
  <path fill="#292D32" d="M17.71,22 C20.079,22 22,20.079 22,17.71 C22,15.341 20.079,13.42 17.71,13.42 C15.341,13.42 13.42,15.341 13.42,17.71 C13.42,20.079 15.341,22 17.71,22 Z"/>
</svg>

