<svg xmlns="http://www.w3.org/2000/svg" width="24" height="24" viewBox="0 0 24 24">
  <defs/>
  <path fill="#292D32" d="M13.25,12 Q13.25,10.75 12,10.75 Q10.75,10.75 10.75,12 Q10.75,13.25 12,13.25 Q12.311,13.25 12.53,13.47 Q12.75,13.689 12.75,14 Q12.75,14.311 12.53,14.53 Q12.311,14.75 12,14.75 Q9.25,14.75 9.25,12 Q9.25,9.25 12,9.25 Q14.75,9.25 14.75,12 Q14.75,12.311 14.53,12.53 Q14.311,12.75 14,12.75 Q13.689,12.75 13.47,12.53 Q13.25,12.311 13.25,12 Z"/>
  <path fill="#292D32" d="M4.6,6.449 Q2.75,8.922 2.75,12 Q2.75,15.829 5.46,18.54 Q8.171,21.25 12,21.25 Q15.829,21.25 18.54,18.54 Q21.25,15.829 21.25,12 Q21.25,8.171 18.54,5.46 Q15.829,2.75 12,2.75 Q10.031,2.75 8.276,3.535 Q7.993,3.661 7.702,3.551 Q7.412,3.44 7.285,3.156 Q7.159,2.873 7.269,2.582 Q7.38,2.292 7.664,2.165 Q9.711,1.25 12,1.25 Q16.451,1.25 19.6,4.4 Q22.75,7.549 22.75,12 Q22.75,16.451 19.6,19.6 Q16.451,22.75 12,22.75 Q7.549,22.75 4.4,19.6 Q1.25,16.451 1.25,12 Q1.25,8.422 3.4,5.551 Q3.586,5.302 3.893,5.258 Q4.201,5.213 4.449,5.4 Q4.698,5.586 4.742,5.893 Q4.787,6.201 4.6,6.449 Z"/>
</svg>

