<svg xmlns="http://www.w3.org/2000/svg" width="24" height="24" viewBox="0 0 24 24">
  <defs/>
  <path d="M15,16.75 C10.73,16.75 7.25,13.27 7.25,9 C7.25,4.73 10.73,1.25 15,1.25 C19.27,1.25 22.75,4.73 22.75,9 C22.75,13.27 19.27,16.75 15,16.75 Z M15,2.75 C11.55,2.75 8.75,5.55 8.75,9 C8.75,12.45 11.55,15.25 15,15.25 C18.45,15.25 21.25,12.45 21.25,9 C21.25,5.55 18.45,2.75 15,2.75 Z"/>
  <path d="M9,22.75 C4.73,22.75 1.25,19.27 1.25,15 C1.25,10.73 4.73,7.25 9,7.25 C13.27,7.25 16.75,10.73 16.75,15 C16.75,19.27 13.27,22.75 9,22.75 Z M9,8.75 C5.55,8.75 2.75,11.55 2.75,15 C2.75,18.45 5.55,21.25 9,21.25 C12.45,21.25 15.25,18.45 15.25,15 C15.25,11.55 12.45,8.75 9,8.75 Z"/>
</svg>

