<svg xmlns="http://www.w3.org/2000/svg" width="24" height="24" viewBox="0 0 24 24">
  <defs/>
  <path d="M12,2 C6.48,2 2,6.48 2,12 C2,17.52 6.48,22 12,22 C17.52,22 22,17.52 22,12 C22,6.48 17.52,2 12,2 Z M16.93,15.74 C15.75,17.3 13.95,18.19 12,18.19 C8.59,18.19 5.81,15.41 5.81,12 C5.81,8.59 8.59,5.81 12,5.81 C13.35,5.81 14.64,6.24 15.72,7.05 C16.05,7.3 16.12,7.77 15.87,8.1 C15.62,8.43 15.15,8.5 14.82,8.25 C14,7.63 13.03,7.31 12,7.31 C9.42,7.31 7.31,9.41 7.31,12 C7.31,14.59 9.41,16.69 12,16.69 C13.48,16.69 14.84,16.01 15.74,14.83 C15.99,14.5 16.46,14.44 16.79,14.69 C17.12,14.94 17.18,15.41 16.93,15.74 Z M17.42,11.34 C16.77,11.34 16.25,10.82 16.25,10.17 C16.25,9.52 16.77,9 17.42,9 C18.07,9 18.59,9.52 18.59,10.17 C18.59,10.82 18.07,11.34 17.42,11.34 Z"/>
</svg>

