<svg xmlns="http://www.w3.org/2000/svg" width="24" height="24" viewBox="0 0 24 24">
  <defs/>
  <path fill="white" d="M24,0 L0,0 L0,24 L24,24 L24,0 Z"/>
  <path fill="#292D32" opacity="0.4" d="M12,22 C17.523,22 22,17.523 22,12 C22,6.477 17.523,2 12,2 C6.477,2 2,6.477 2,12 C2,17.523 6.477,22 12,22 Z"/>
  <path fill="#292D32" d="M12.001,18.19 C8.591,18.19 5.811,15.41 5.811,12 C5.811,8.59 8.591,5.81 12.001,5.81 C13.351,5.81 14.641,6.24 15.721,7.05 C16.051,7.3 16.12,7.77 15.87,8.1 C15.62,8.43 15.151,8.5 14.821,8.25 C14.001,7.64 13.03,7.31 12.001,7.31 C9.421,7.31 7.311,9.41 7.311,12 C7.311,14.59 9.411,16.69 12.001,16.69 C13.48,16.69 14.841,16.01 15.741,14.83 C15.991,14.5 16.46,14.44 16.791,14.69 C17.12,14.94 17.18,15.41 16.93,15.74 C15.751,17.29 13.95,18.19 12.001,18.19 Z"/>
  <path fill="#292D32" d="M17.42,11.34 C18.066,11.34 18.59,10.816 18.59,10.17 C18.59,9.524 18.066,9 17.42,9 C16.774,9 16.25,9.524 16.25,10.17 C16.25,10.816 16.774,11.34 17.42,11.34 Z"/>
</svg>

