<svg xmlns="http://www.w3.org/2000/svg" width="24" height="24" viewBox="0 0 24 24">
  <defs/>
  <path d="M12,18.19 C8.59,18.19 5.81,15.41 5.81,12 C5.81,8.59 8.59,5.81 12,5.81 C13.35,5.81 14.64,6.24 15.72,7.05 C16.05,7.3 16.12,7.77 15.87,8.1 C15.62,8.43 15.15,8.5 14.82,8.25 C14,7.63 13.03,7.31 12,7.31 C9.42,7.31 7.31,9.41 7.31,12 C7.31,14.59 9.41,16.69 12,16.69 C13.48,16.69 14.84,16.01 15.74,14.83 C15.99,14.5 16.46,14.44 16.79,14.69 C17.12,14.94 17.18,15.41 16.93,15.74 C15.75,17.29 13.95,18.19 12,18.19 Z"/>
  <path d="M17.42,12.09 C16.36,12.09 15.5,11.23 15.5,10.17 C15.5,9.11 16.36,8.25 17.42,8.25 C18.48,8.25 19.34,9.11 19.34,10.17 C19.34,11.23 18.48,12.09 17.42,12.09 Z M17.42,9.75 C17.19,9.75 17,9.94 17,10.17 C17,10.4 17.19,10.59 17.42,10.59 C17.65,10.59 17.84,10.4 17.84,10.17 C17.84,9.94 17.65,9.75 17.42,9.75 Z"/>
  <path d="M12,22.75 C6.07,22.75 1.25,17.93 1.25,12 C1.25,6.07 6.07,1.25 12,1.25 C17.93,1.25 22.75,6.07 22.75,12 C22.75,17.93 17.93,22.75 12,22.75 Z M12,2.75 C6.9,2.75 2.75,6.9 2.75,12 C2.75,17.1 6.9,21.25 12,21.25 C17.1,21.25 21.25,17.1 21.25,12 C21.25,6.9 17.1,2.75 12,2.75 Z"/>
</svg>

