<svg xmlns="http://www.w3.org/2000/svg" width="24" height="24" viewBox="0 0 24 24">
  <defs/>
  <path d="M3.75,12.66 L3.75,15.82 Q3.75,16.553 4.397,16.916 L11.394,20.804 Q12,21.147 12.601,20.807 L19.606,16.914 Q20.25,16.564 20.25,15.82 L20.25,8.18 Q20.25,7.447 19.603,7.084 L12.606,3.196 Q12,2.853 11.399,3.193 L4.394,7.086 Q3.75,7.436 3.75,8.18 Q3.75,8.491 3.53,8.71 Q3.311,8.93 3,8.93 Q2.689,8.93 2.47,8.71 Q2.25,8.491 2.25,8.18 Q2.25,6.544 3.666,5.774 L10.661,1.887 Q12,1.129 13.334,1.884 L20.337,5.776 Q21.75,6.569 21.75,8.18 L21.75,15.82 Q21.75,17.456 20.334,18.225 L13.339,22.113 Q12,22.871 10.666,22.115 L3.663,18.224 Q2.25,17.431 2.25,15.82 L2.25,12.66 Q2.25,12.349 2.47,12.13 Q2.689,11.91 3,11.91 Q3.311,11.91 3.53,12.13 Q3.75,12.349 3.75,12.66 Z"/>
</svg>

