<svg xmlns="http://www.w3.org/2000/svg" width="24" height="24" viewBox="0 0 24 24">
  <defs/>
  <path d="M12,22.43 C11.52,22.43 11.05,22.32 10.66,22.11 L3.66,18.22 C2.85,17.77 2.25,16.74 2.25,15.82 L2.25,8.18 C2.25,7.26 2.86,6.22 3.67,5.78 L10.67,1.89 C11.43,1.47 12.58,1.47 13.34,1.89 L20.34,5.78 C21.15,6.23 21.75,7.26 21.75,8.18 L21.75,15.83 C21.75,16.75 21.14,17.79 20.33,18.23 L13.33,22.12 C12.96,22.33 12.48,22.43 12,22.43 Z M12,3.07 C11.77,3.07 11.55,3.11 11.39,3.2 L4.39,7.09 C4.06,7.27 3.75,7.8 3.75,8.18 L3.75,15.83 C3.75,16.21 4.06,16.74 4.39,16.92 L11.39,20.81 C11.7,20.98 12.3,20.98 12.6,20.81 L19.6,16.92 C19.93,16.74 20.24,16.21 20.24,15.83 L20.24,8.18 C20.24,7.8 19.93,7.27 19.6,7.09 L12.6,3.2 C12.45,3.11 12.23,3.07 12,3.07 Z"/>
</svg>

