<svg xmlns="http://www.w3.org/2000/svg" width="24" height="24" viewBox="0 0 24 24">
  <defs/>
  <path d="M2.25,8.18 Q2.25,6.544 3.666,5.774 L10.661,1.887 Q12,1.129 13.334,1.884 L20.337,5.776 Q21.75,6.569 21.75,8.18 L21.75,15.83 Q21.75,17.466 20.334,18.235 L13.339,22.123 Q12,22.881 10.666,22.125 L3.663,18.234 Q2.25,17.441 2.25,15.83 Z M3.75,8.18 L3.75,15.83 Q3.75,16.563 4.397,16.926 L11.394,20.814 Q12,21.157 12.601,20.817 L19.606,16.924 Q20.25,16.574 20.25,15.83 L20.25,8.18 Q20.25,7.447 19.603,7.084 L12.606,3.196 Q12,2.853 11.399,3.193 L4.394,7.086 Q3.75,7.436 3.75,8.18 Z"/>
</svg>

