<svg xmlns="http://www.w3.org/2000/svg" width="24" height="24" viewBox="0 0 24 24">
  <defs/>
  <path fill="#17191C" d="M2.25,8.2 Q2.25,6.665 3.584,5.776 Q3.612,5.757 3.642,5.741 L10.642,1.941 Q10.653,1.935 10.665,1.929 Q11.95,1.286 13.235,1.929 Q13.25,1.937 13.265,1.945 L20.251,5.837 Q21.65,6.546 21.65,8.2 L21.65,15.8 Q21.65,17.235 20.316,18.124 Q20.291,18.141 20.265,18.155 L13.265,22.055 Q13.25,22.063 13.235,22.071 Q11.95,22.714 10.665,22.071 Q10.65,22.063 10.635,22.055 L3.649,18.163 Q2.25,17.454 2.25,15.8 Z M3.75,8.2 L3.75,15.8 Q3.75,16.536 4.335,16.829 Q4.35,16.837 4.365,16.845 L11.349,20.736 Q11.95,21.03 12.551,20.736 L19.507,16.86 Q20.15,16.421 20.15,15.8 L20.15,8.2 Q20.15,7.464 19.565,7.171 Q19.55,7.163 19.535,7.155 L12.551,3.264 Q11.948,2.969 11.346,3.266 L4.39,7.042 Q3.75,7.482 3.75,8.2 Z"/>
</svg>

