<svg xmlns="http://www.w3.org/2000/svg" width="24" height="24" viewBox="0 0 24 24">
  <defs/>
  <path fill="#292D32" d="M16.19,2 L7.81,2 C4.17,2 2,4.17 2,7.81 L2,16.18 C2,19.83 4.17,22 7.81,22 L16.18,22 C19.82,22 21.99,19.83 21.99,16.19 L21.99,7.81 C22,4.17 19.83,2 16.19,2 Z M9.11,16.9 C9.11,17.18 8.89,17.4 8.61,17.4 L5.82,17.4 C5.54,17.4 5.32,17.18 5.32,16.9 L5.32,12.28 C5.32,11.65 5.83,11.14 6.46,11.14 L8.61,11.14 C8.89,11.14 9.11,11.36 9.11,11.64 L9.11,16.9 Z M13.89,16.9 C13.89,17.18 13.67,17.4 13.39,17.4 L10.6,17.4 C10.32,17.4 10.1,17.18 10.1,16.9 L10.1,7.74 C10.1,7.11 10.61,6.6 11.24,6.6 L12.76,6.6 C13.39,6.6 13.9,7.11 13.9,7.74 L13.9,16.9 L13.89,16.9 Z M18.68,16.9 C18.68,17.18 18.46,17.4 18.18,17.4 L15.39,17.4 C15.11,17.4 14.89,17.18 14.89,16.9 L14.89,13.35 C14.89,13.07 15.11,12.85 15.39,12.85 L17.54,12.85 C18.17,12.85 18.68,13.36 18.68,13.99 L18.68,16.9 Z"/>
</svg>

