<svg xmlns="http://www.w3.org/2000/svg" width="24" height="24" viewBox="0 0 24 24">
  <defs/>
  <path fill="#292D32" d="M7.75,10.74 L7.75,13.94 Q7.75,14.251 7.53,14.47 Q7.311,14.69 7,14.69 Q6.689,14.69 6.47,14.47 Q6.25,14.251 6.25,13.94 L6.25,10.74 Q6.25,10.429 6.47,10.21 Q6.689,9.99 7,9.99 Q7.311,9.99 7.53,10.21 Q7.75,10.429 7.75,10.74 Z"/>
  <path fill="#292D32" d="M11.25,15.68 L11.25,12.76 Q11.25,12.449 11.47,12.23 Q11.689,12.01 12,12.01 Q12.311,12.01 12.53,12.23 Q12.75,12.449 12.75,12.76 L12.75,15.68 Q12.75,15.991 12.53,16.21 Q12.311,16.43 12,16.43 Q11.689,16.43 11.47,16.21 Q11.25,15.991 11.25,15.68 Z"/>
  <path fill="#292D32" d="M12.75,9 L12.75,10.01 Q12.75,10.321 12.53,10.54 Q12.311,10.76 12,10.76 Q11.689,10.76 11.47,10.54 Q11.25,10.321 11.25,10.01 L11.25,9 Q11.25,8.689 11.47,8.47 Q11.689,8.25 12,8.25 Q12.311,8.25 12.53,8.47 Q12.75,8.689 12.75,9 Z"/>
  <path fill="#292D32" d="M17.75,10.74 L17.75,13.94 Q17.75,14.251 17.53,14.47 Q17.311,14.69 17,14.69 Q16.689,14.69 16.47,14.47 Q16.25,14.251 16.25,13.94 L16.25,10.74 Q16.25,10.429 16.47,10.21 Q16.689,9.99 17,9.99 Q17.311,9.99 17.53,10.21 Q17.75,10.429 17.75,10.74 Z"/>
  <path fill="#292D32" d="M2.75,12.98 L2.75,15 Q2.75,18.439 4.155,19.845 Q5.561,21.25 9,21.25 L15,21.25 Q18.439,21.25 19.845,19.845 Q21.25,18.439 21.25,15 L21.25,9 Q21.25,2.75 15,2.75 L9,2.75 Q2.75,2.75 2.75,9 Q2.75,9.311 2.53,9.53 Q2.311,9.75 2,9.75 Q1.689,9.75 1.47,9.53 Q1.25,9.311 1.25,9 Q1.25,1.25 9,1.25 L15,1.25 Q22.75,1.25 22.75,9 L22.75,15 Q22.75,22.75 15,22.75 L9,22.75 Q1.25,22.75 1.25,15 L1.25,12.98 Q1.25,12.669 1.47,12.45 Q1.689,12.23 2,12.23 Q2.311,12.23 2.53,12.45 Q2.75,12.669 2.75,12.98 Z"/>
</svg>

