<svg xmlns="http://www.w3.org/2000/svg" width="24" height="24" viewBox="0 0 24 24">
  <defs/>
  <g opacity="0.4">
    <path fill="#292D32" d="M10.11,10.4 Q10.421,10.4 10.641,10.62 Q10.86,10.84 10.86,11.15 L10.86,17.41 Q10.86,17.721 10.641,17.941 Q10.421,18.16 10.11,18.16 L6.32,18.16 Q6.01,18.16 5.79,17.941 Q5.57,17.721 5.57,17.41 L5.57,12.29 Q5.57,11.507 6.124,10.954 Q6.677,10.4 7.46,10.4 Z M9.36,11.9 L7.46,11.9 Q7.07,11.9 7.07,12.29 L7.07,16.66 L9.36,16.66 L9.36,11.9 Z"/>
    <path fill="#292D32" d="M12.762,5.85 Q14.642,5.85 14.642,7.74 L14.642,17.4 Q14.642,17.711 14.422,17.93 Q14.202,18.15 13.892,18.15 L10.102,18.15 Q9.791,18.15 9.571,17.93 Q9.352,17.711 9.352,17.4 L9.352,7.74 Q9.352,6.957 9.905,6.404 Q10.458,5.85 11.241,5.85 Z M12.762,7.35 L11.241,7.35 Q10.852,7.35 10.852,7.74 L10.852,16.65 L13.142,16.65 L13.142,7.74 Q13.142,7.54 13.042,7.443 Q12.947,7.35 12.762,7.35 Z"/>
    <path fill="#292D32" d="M16.55,12.1 Q18.41,12.1 18.44,13.99 L18.44,17.4 Q18.44,17.711 18.221,17.93 Q18.001,18.15 17.69,18.15 L13.9,18.15 Q13.59,18.15 13.37,17.93 Q13.15,17.711 13.15,17.4 L13.15,12.85 Q13.15,12.539 13.37,12.32 Q13.59,12.1 13.9,12.1 Z M16.55,13.6 L14.65,13.6 L14.65,16.65 L16.94,16.65 L16.94,13.99 Q16.934,13.6 16.55,13.6 Z"/>
  </g>
  <path fill="#292D32" d="M9,22.75 Q1.25,22.75 1.25,15 L1.25,9 Q1.25,1.25 9,1.25 L15,1.25 Q22.75,1.25 22.75,9 L22.75,15 Q22.75,22.75 15,22.75 Z M9,21.25 L15,21.25 Q18.439,21.25 19.845,19.845 Q21.25,18.439 21.25,15 L21.25,9 Q21.25,2.75 15,2.75 L9,2.75 Q2.75,2.75 2.75,9 L2.75,15 Q2.75,18.439 4.155,19.845 Q5.561,21.25 9,21.25 Z"/>
</svg>

