<svg xmlns="http://www.w3.org/2000/svg" width="24" height="24" viewBox="0 0 24 24">
  <defs/>
  <path fill="#292D32" d="M20.97,16 L18.03,16 C16.76,16 16,16.76 16,18.03 L16,20.97 C16,22.24 16.76,23 18.03,23 L20.97,23 C22.24,23 23,22.24 23,20.97 L23,18.03 C23,16.76 22.24,16 20.97,16 Z M21.63,18.45 L19.26,21.22 C19.16,21.33 19.03,21.4 18.88,21.4 C18.88,21.4 18.87,21.4 18.86,21.4 C18.73,21.4 18.59,21.35 18.5,21.25 L17.4,20.17 C17.2,19.97 17.2,19.64 17.4,19.43 C17.6,19.23 17.93,19.23 18.14,19.43 L18.83,20.12 L20.84,17.78 C21.02,17.56 21.35,17.53 21.57,17.72 C21.79,17.91 21.81,18.24 21.63,18.45 Z"/>
  <path fill="#292D32" d="M20.97,16 L18.03,16 C16.76,16 16,16.76 16,18.03 L16,20.97 C16,22.24 16.76,23 18.03,23 L20.97,23 C22.24,23 23,22.24 23,20.97 L23,18.03 C23,16.76 22.24,16 20.97,16 Z M21.63,18.45 L19.26,21.22 C19.16,21.33 19.03,21.4 18.88,21.4 C18.88,21.4 18.87,21.4 18.86,21.4 C18.73,21.4 18.59,21.35 18.5,21.25 L17.4,20.17 C17.2,19.97 17.2,19.64 17.4,19.43 C17.6,19.23 17.93,19.23 18.14,19.43 L18.83,20.12 L20.84,17.78 C21.02,17.56 21.35,17.53 21.57,17.72 C21.79,17.91 21.81,18.24 21.63,18.45 Z"/>
  <path fill="#292D32" d="M21.97,7.21 C21.69,4.48 19.52,2.31 16.79,2.03 C16.59,2.01 16.39,2 16.19,2 L7.81,2 C7.61,2 7.41,2.01 7.21,2.03 C4.48,2.31 2.31,4.48 2.03,7.21 C2.01,7.41 2,7.61 2,7.81 L2,16.19 C2,16.39 2.01,16.59 2.03,16.79 C2.31,19.52 4.48,21.69 7.21,21.97 C7.41,21.99 7.61,22 7.81,22 L14,22 C14.55,22 15,21.55 15,21 L15,18.03 C15,16.36 16.36,15 18.03,15 L21,15 C21.55,15 22,14.55 22,14 L22,7.81 C22,7.61 21.99,7.41 21.97,7.21 Z M7.75,13.5 C7.75,13.91 7.41,14.25 7,14.25 C6.59,14.25 6.25,13.91 6.25,13.5 L6.25,10.5 C6.25,10.09 6.59,9.75 7,9.75 C7.41,9.75 7.75,10.09 7.75,10.5 L7.75,13.5 Z M12.75,13.5 C12.75,13.91 12.41,14.25 12,14.25 C11.59,14.25 11.25,13.91 11.25,13.5 L11.25,10.5 C11.25,10.09 11.59,9.75 12,9.75 C12.41,9.75 12.75,10.09 12.75,10.5 L12.75,13.5 Z"/>
</svg>

