<svg xmlns="http://www.w3.org/2000/svg" width="24" height="24" viewBox="0 0 24 24">
  <defs/>
  <path fill="#292D32" d="M9,21.25 L21,21.25 Q21.311,21.25 21.53,21.47 Q21.75,21.689 21.75,22 Q21.75,22.311 21.53,22.53 Q21.311,22.75 21,22.75 L9,22.75 Q8.689,22.75 8.47,22.53 Q8.25,22.311 8.25,22 Q8.25,21.689 8.47,21.47 Q8.689,21.25 9,21.25 Z"/>
  <path fill="#292D32" d="M2,21.25 L6,21.25 Q6.311,21.25 6.53,21.47 Q6.75,21.689 6.75,22 Q6.75,22.311 6.53,22.53 Q6.311,22.75 6,22.75 L2,22.75 Q1.689,22.75 1.47,22.53 Q1.25,22.311 1.25,22 Q1.25,21.689 1.47,21.47 Q1.689,21.25 2,21.25 Z"/>
  <path fill="#292D32" d="M3.75,13 L3.75,18 Q3.75,18.102 3.824,18.176 Q3.898,18.25 4,18.25 L5.6,18.25 Q5.85,18.25 5.85,18 L5.85,9.38 Q5.85,9.13 5.6,9.13 L4,9.13 Q3.898,9.13 3.824,9.204 Q3.75,9.278 3.75,9.38 Q3.75,9.691 3.53,9.91 Q3.311,10.13 3,10.13 Q2.689,10.13 2.47,9.91 Q2.25,9.691 2.25,9.38 Q2.25,8.657 2.763,8.143 Q3.277,7.63 4,7.63 L5.6,7.63 Q6.323,7.63 6.837,8.143 Q7.35,8.657 7.35,9.38 L7.35,18 Q7.35,19.75 5.6,19.75 L4,19.75 Q2.25,19.75 2.25,18 L2.25,13 Q2.25,12.689 2.47,12.47 Q2.689,12.25 3,12.25 Q3.311,12.25 3.53,12.47 Q3.75,12.689 3.75,13 Z"/>
  <path fill="#292D32" d="M12.799,4.44 Q13.522,4.44 14.036,4.953 Q14.549,5.467 14.549,6.19 L14.549,18 Q14.549,19.75 12.799,19.75 L11.199,19.75 Q9.449,19.75 9.449,18 L9.449,6.19 Q9.449,4.44 11.199,4.44 Z M12.799,5.94 L11.199,5.94 Q11.097,5.94 11.023,6.014 Q10.949,6.088 10.949,6.19 L10.949,18 Q10.949,18.25 11.199,18.25 L12.799,18.25 Q13.049,18.25 13.049,18 L13.049,6.19 Q13.049,5.94 12.799,5.94 Z"/>
  <path fill="#292D32" d="M20.25,3 Q20.25,2.75 20,2.75 L18.4,2.75 Q18.299,2.75 18.224,2.824 Q18.15,2.898 18.15,3 L18.15,18 Q18.15,18.25 18.4,18.25 L20,18.25 Q20.25,18.25 20.25,18 L20.25,7.13 Q20.25,6.819 20.47,6.6 Q20.69,6.38 21,6.38 Q21.311,6.38 21.531,6.6 Q21.75,6.819 21.75,7.13 L21.75,18 Q21.75,19.75 20,19.75 L18.4,19.75 Q17.677,19.75 17.164,19.237 Q16.65,18.723 16.65,18 L16.65,3 Q16.65,1.25 18.4,1.25 L20,1.25 Q20.724,1.25 21.237,1.763 Q21.75,2.277 21.75,3 Q21.75,3.311 21.531,3.53 Q21.311,3.75 21,3.75 Q20.69,3.75 20.47,3.53 Q20.25,3.311 20.25,3 Z"/>
</svg>

