<svg xmlns="http://www.w3.org/2000/svg" width="24" height="24" viewBox="0 0 24 24">
  <defs/>
  <path fill="#292D32" d="M17.23,21.52 C17.04,21.52 16.85,21.45 16.7,21.3 C16.41,21.01 16.41,20.53 16.7,20.24 L20.24,16.7 C20.53,16.41 21.01,16.41 21.3,16.7 C21.59,16.99 21.59,17.47 21.3,17.76 L17.76,21.3 C17.62,21.44 17.42,21.52 17.23,21.52 Z"/>
  <path fill="#292D32" d="M20.77,21.52 C20.58,21.52 20.39,21.45 20.24,21.3 L16.7,17.76 C16.41,17.47 16.41,16.99 16.7,16.7 C16.99,16.41 17.47,16.41 17.76,16.7 L21.3,20.24 C21.59,20.53 21.59,21.01 21.3,21.3 C21.15,21.44 20.96,21.52 20.77,21.52 Z"/>
  <path fill="#292D32" d="M7,14.25 C6.59,14.25 6.25,13.91 6.25,13.5 L6.25,10.5 C6.25,10.09 6.59,9.75 7,9.75 C7.41,9.75 7.75,10.09 7.75,10.5 L7.75,13.5 C7.75,13.91 7.41,14.25 7,14.25 Z"/>
  <path fill="#292D32" d="M12,14.25 C11.59,14.25 11.25,13.91 11.25,13.5 L11.25,10.5 C11.25,10.09 11.59,9.75 12,9.75 C12.41,9.75 12.75,10.09 12.75,10.5 L12.75,13.5 C12.75,13.91 12.41,14.25 12,14.25 Z"/>
  <path fill="#292D32" d="M17,14.25 C16.59,14.25 16.25,13.91 16.25,13.5 L16.25,10.5 C16.25,10.09 16.59,9.75 17,9.75 C17.41,9.75 17.75,10.09 17.75,10.5 L17.75,13.5 C17.75,13.91 17.41,14.25 17,14.25 Z"/>
  <path fill="#292D32" d="M13,22.75 L9,22.75 C3.57,22.75 1.25,20.43 1.25,15 L1.25,9 C1.25,3.57 3.57,1.25 9,1.25 L15,1.25 C20.43,1.25 22.75,3.57 22.75,9 L22.75,13 C22.75,13.41 22.41,13.75 22,13.75 C21.59,13.75 21.25,13.41 21.25,13 L21.25,9 C21.25,4.39 19.61,2.75 15,2.75 L9,2.75 C4.39,2.75 2.75,4.39 2.75,9 L2.75,15 C2.75,19.61 4.39,21.25 9,21.25 L13,21.25 C13.41,21.25 13.75,21.59 13.75,22 C13.75,22.41 13.41,22.75 13,22.75 Z"/>
</svg>

