<svg xmlns="http://www.w3.org/2000/svg" width="24" height="24" viewBox="0 0 24 24">
  <defs/>
  <path fill="#292D32" d="M15,22.75 L9,22.75 C3.57,22.75 1.25,20.43 1.25,15 L1.25,9 C1.25,3.57 3.57,1.25 9,1.25 L15,1.25 C20.43,1.25 22.75,3.57 22.75,9 L22.75,15 C22.75,20.43 20.43,22.75 15,22.75 Z M9,2.75 C4.39,2.75 2.75,4.39 2.75,9 L2.75,15 C2.75,19.61 4.39,21.25 9,21.25 L15,21.25 C19.61,21.25 21.25,19.61 21.25,15 L21.25,9 C21.25,4.39 19.61,2.75 15,2.75 L9,2.75 Z"/>
  <path fill="#292D32" d="M15.5,19.25 C13.98,19.25 12.75,18.02 12.75,16.5 L12.75,7.5 C12.75,5.98 13.98,4.75 15.5,4.75 C17.02,4.75 18.25,5.98 18.25,7.5 L18.25,16.5 C18.25,18.02 17.02,19.25 15.5,19.25 Z M15.5,6.25 C14.81,6.25 14.25,6.81 14.25,7.5 L14.25,16.5 C14.25,17.19 14.81,17.75 15.5,17.75 C16.19,17.75 16.75,17.19 16.75,16.5 L16.75,7.5 C16.75,6.81 16.19,6.25 15.5,6.25 Z"/>
  <path fill="#292D32" d="M8.5,19.25 C6.98,19.25 5.75,18.02 5.75,16.5 L5.75,13 C5.75,11.48 6.98,10.25 8.5,10.25 C10.02,10.25 11.25,11.48 11.25,13 L11.25,16.5 C11.25,18.02 10.02,19.25 8.5,19.25 Z M8.5,11.75 C7.81,11.75 7.25,12.31 7.25,13 L7.25,16.5 C7.25,17.19 7.81,17.75 8.5,17.75 C9.19,17.75 9.75,17.19 9.75,16.5 L9.75,13 C9.75,12.31 9.19,11.75 8.5,11.75 Z"/>
</svg>

