<svg xmlns="http://www.w3.org/2000/svg" width="24" height="24" viewBox="0 0 24 24">
  <defs/>
  <path fill="#292D32" d="M7,14.69 C6.59,14.69 6.25,14.35 6.25,13.94 L6.25,10.73 C6.25,10.32 6.59,9.98 7,9.98 C7.41,9.98 7.75,10.32 7.75,10.73 L7.75,13.94 C7.75,14.36 7.41,14.69 7,14.69 Z"/>
  <path fill="#292D32" d="M12,16.43 C11.59,16.43 11.25,16.09 11.25,15.68 L11.25,9 C11.25,8.59 11.59,8.25 12,8.25 C12.41,8.25 12.75,8.59 12.75,9 L12.75,15.68 C12.75,16.09 12.41,16.43 12,16.43 Z"/>
  <path fill="#292D32" d="M17,14.69 C16.59,14.69 16.25,14.35 16.25,13.94 L16.25,10.73 C16.25,10.32 16.59,9.98 17,9.98 C17.41,9.98 17.75,10.32 17.75,10.73 L17.75,13.94 C17.75,14.36 17.41,14.69 17,14.69 Z"/>
  <path fill="#292D32" d="M15,22.75 L9,22.75 C3.57,22.75 1.25,20.43 1.25,15 L1.25,9 C1.25,3.57 3.57,1.25 9,1.25 L15,1.25 C20.43,1.25 22.75,3.57 22.75,9 L22.75,15 C22.75,20.43 20.43,22.75 15,22.75 Z M9,2.75 C4.39,2.75 2.75,4.39 2.75,9 L2.75,15 C2.75,19.61 4.39,21.25 9,21.25 L15,21.25 C19.61,21.25 21.25,19.61 21.25,15 L21.25,9 C21.25,4.39 19.61,2.75 15,2.75 L9,2.75 Z"/>
</svg>

