<svg xmlns="http://www.w3.org/2000/svg" width="24" height="24" viewBox="0 0 24 24">
  <defs/>
  <path fill="#292D32" d="M13,22.75 L9,22.75 C3.57,22.75 1.25,20.43 1.25,15 L1.25,9 C1.25,3.57 3.57,1.25 9,1.25 L15,1.25 C20.43,1.25 22.75,3.57 22.75,9 L22.75,13 C22.75,13.41 22.41,13.75 22,13.75 C21.59,13.75 21.25,13.41 21.25,13 L21.25,9 C21.25,4.39 19.61,2.75 15,2.75 L9,2.75 C4.39,2.75 2.75,4.39 2.75,9 L2.75,15 C2.75,19.61 4.39,21.25 9,21.25 L13,21.25 C13.41,21.25 13.75,21.59 13.75,22 C13.75,22.41 13.41,22.75 13,22.75 Z"/>
  <path fill="#292D32" d="M13,22.75 L9,22.75 C3.57,22.75 1.25,20.43 1.25,15 L1.25,9 C1.25,3.57 3.57,1.25 9,1.25 L15,1.25 C20.43,1.25 22.75,3.57 22.75,9 L22.75,13 C22.75,13.41 22.41,13.75 22,13.75 C21.59,13.75 21.25,13.41 21.25,13 L21.25,9 C21.25,4.39 19.61,2.75 15,2.75 L9,2.75 C4.39,2.75 2.75,4.39 2.75,9 L2.75,15 C2.75,19.61 4.39,21.25 9,21.25 L13,21.25 C13.41,21.25 13.75,21.59 13.75,22 C13.75,22.41 13.41,22.75 13,22.75 Z"/>
  <path fill="#292D32" d="M7,14.69 C6.59,14.69 6.25,14.35 6.25,13.94 L6.25,10.73 C6.25,10.32 6.59,9.98 7,9.98 C7.41,9.98 7.75,10.32 7.75,10.73 L7.75,13.94 C7.75,14.36 7.41,14.69 7,14.69 Z"/>
  <path fill="#292D32" d="M17,14.69 C16.59,14.69 16.25,14.35 16.25,13.94 L16.25,10.73 C16.25,10.32 16.59,9.98 17,9.98 C17.41,9.98 17.75,10.32 17.75,10.73 L17.75,13.94 C17.75,14.36 17.41,14.69 17,14.69 Z"/>
  <path fill="#292D32" d="M13,22.75 L9,22.75 C3.57,22.75 1.25,20.43 1.25,15 L1.25,9 C1.25,3.57 3.57,1.25 9,1.25 L15,1.25 C20.43,1.25 22.75,3.57 22.75,9 L22.75,13 C22.75,13.41 22.41,13.75 22,13.75 C21.59,13.75 21.25,13.41 21.25,13 L21.25,9 C21.25,4.39 19.61,2.75 15,2.75 L9,2.75 C4.39,2.75 2.75,4.39 2.75,9 L2.75,15 C2.75,19.61 4.39,21.25 9,21.25 L13,21.25 C13.41,21.25 13.75,21.59 13.75,22 C13.75,22.41 13.41,22.75 13,22.75 Z"/>
  <path fill="#292D32" d="M17.58,21.75 C17.38,21.75 17.19,21.67 17.05,21.53 L15.47,19.96 C15.18,19.67 15.17,19.19 15.47,18.9 C15.76,18.61 16.24,18.6 16.53,18.9 L17.54,19.9 L20.44,16.51 C20.71,16.19 21.18,16.16 21.5,16.43 C21.81,16.7 21.85,17.17 21.58,17.49 L18.16,21.49 C18.02,21.65 17.83,21.74 17.62,21.75 C17.6,21.75 17.59,21.75 17.58,21.75 Z"/>
  <path fill="#292D32" d="M12,14.25 C11.59,14.25 11.25,13.91 11.25,13.5 L11.25,10.5 C11.25,10.09 11.59,9.75 12,9.75 C12.41,9.75 12.75,10.09 12.75,10.5 L12.75,13.5 C12.75,13.91 12.41,14.25 12,14.25 Z"/>
</svg>

