<svg xmlns="http://www.w3.org/2000/svg" width="24" height="24" viewBox="0 0 24 24">
  <defs/>
  <path fill="#292D32" d="M2,21.25 L22,21.25 Q22.311,21.25 22.53,21.47 Q22.75,21.689 22.75,22 Q22.75,22.311 22.53,22.53 Q22.311,22.75 22,22.75 L2,22.75 Q1.689,22.75 1.47,22.53 Q1.25,22.311 1.25,22 Q1.25,21.689 1.47,21.47 Q1.689,21.25 2,21.25 Z"/>
  <path fill="#292D32" d="M9,4 Q9,1.25 11.55,1.25 L12.45,1.25 Q15,1.25 15,4 L15,22 Q15,22.311 14.78,22.53 Q14.561,22.75 14.25,22.75 L9.75,22.75 Q9.439,22.75 9.22,22.53 Q9,22.311 9,22 Z M10.5,4 L10.5,21.25 L13.5,21.25 L13.5,4 Q13.5,3.352 13.264,3.047 Q13.033,2.75 12.45,2.75 L11.55,2.75 Q10.5,2.75 10.5,4 Z"/>
  <path fill="#292D32" d="M6.25,10 Q6.25,8.75 5.4,8.75 L4.6,8.75 Q3.75,8.75 3.75,10 L3.75,21.25 L6.25,21.25 L6.25,13.99 Q6.25,13.679 6.47,13.46 Q6.689,13.24 7,13.24 Q7.311,13.24 7.53,13.46 Q7.75,13.679 7.75,13.99 L7.75,22 Q7.75,22.311 7.53,22.53 Q7.311,22.75 7,22.75 L3,22.75 Q2.689,22.75 2.47,22.53 Q2.25,22.311 2.25,22 L2.25,10 Q2.25,7.25 4.6,7.25 L5.4,7.25 Q7.75,7.25 7.75,10 Q7.75,10.311 7.53,10.53 Q7.311,10.75 7,10.75 Q6.689,10.75 6.47,10.53 Q6.25,10.311 6.25,10 Z"/>
  <path fill="#292D32" d="M16.25,15 Q16.25,13.861 16.733,13.162 Q17.361,12.25 18.6,12.25 L19.4,12.25 Q21.75,12.25 21.75,15 L21.75,22 Q21.75,22.311 21.53,22.53 Q21.311,22.75 21,22.75 L17,22.75 Q16.689,22.75 16.47,22.53 Q16.25,22.311 16.25,22 Z M17.75,15 L17.75,21.25 L20.25,21.25 L20.25,15 Q20.25,13.75 19.4,13.75 L18.6,13.75 Q17.75,13.75 17.75,15 Z"/>
</svg>

