<svg xmlns="http://www.w3.org/2000/svg" width="24" height="24" viewBox="0 0 24 24">
  <defs/>
  <path fill="#292D32" opacity="0.4" d="M16.19,2 L7.81,2 C4.17,2 2,4.17 2,7.81 L2,16.18 C2,19.83 4.17,22 7.81,22 L16.18,22 C19.82,22 21.99,19.83 21.99,16.19 L21.99,7.81 C22,4.17 19.83,2 16.19,2 Z"/>
  <path fill="#292D32" d="M7,14.35 C6.59,14.35 6.25,14.01 6.25,13.6 L6.25,10.4 C6.25,9.99 6.59,9.65 7,9.65 C7.41,9.65 7.75,9.99 7.75,10.4 L7.75,13.61 C7.75,14.02 7.41,14.35 7,14.35 Z"/>
  <path fill="#292D32" d="M12,16.09 C11.59,16.09 11.25,15.75 11.25,15.34 L11.25,8.66 C11.25,8.25 11.59,7.91 12,7.91 C12.41,7.91 12.75,8.25 12.75,8.66 L12.75,15.34 C12.75,15.75 12.41,16.09 12,16.09 Z"/>
  <path fill="#292D32" d="M17,14.35 C16.59,14.35 16.25,14.01 16.25,13.6 L16.25,10.4 C16.25,9.99 16.59,9.65 17,9.65 C17.41,9.65 17.75,9.99 17.75,10.4 L17.75,13.61 C17.75,14.02 17.41,14.35 17,14.35 Z"/>
</svg>

