<svg xmlns="http://www.w3.org/2000/svg" width="24" height="24" viewBox="0 0 24 24">
  <defs/>
  <path fill="#292D32" opacity="0.4" d="M21,22.75 L3,22.75 C2.59,22.75 2.25,22.41 2.25,22 C2.25,21.59 2.59,21.25 3,21.25 L21,21.25 C21.41,21.25 21.75,21.59 21.75,22 C21.75,22.41 21.41,22.75 21,22.75 Z"/>
  <path fill="#292D32" d="M5.6,8.38 L4,8.38 C3.45,8.38 3,8.83 3,9.38 L3,18 C3,18.55 3.45,19 4,19 L5.6,19 C6.15,19 6.6,18.55 6.6,18 L6.6,9.38 C6.6,8.82 6.15,8.38 5.6,8.38 Z"/>
  <path fill="#292D32" d="M12.799,5.19 L11.199,5.19 C10.649,5.19 10.199,5.64 10.199,6.19 L10.199,18 C10.199,18.55 10.649,19 11.199,19 L12.799,19 C13.349,19 13.799,18.55 13.799,18 L13.799,6.19 C13.799,5.64 13.349,5.19 12.799,5.19 Z"/>
  <path fill="#292D32" d="M20,2 L18.4,2 C17.85,2 17.4,2.45 17.4,3 L17.4,18 C17.4,18.55 17.85,19 18.4,19 L20,19 C20.55,19 21,18.55 21,18 L21,3 C21,2.45 20.55,2 20,2 Z"/>
</svg>

