<svg xmlns="http://www.w3.org/2000/svg" width="24" height="24" viewBox="0 0 24 24">
  <defs/>
  <path fill="#292D32" d="M21.25,13 L21.25,9 Q21.25,2.75 15,2.75 L9,2.75 Q2.75,2.75 2.75,9 L2.75,15 Q2.75,18.439 4.155,19.845 Q5.561,21.25 9,21.25 L13,21.25 Q13.311,21.25 13.53,21.47 Q13.75,21.689 13.75,22 Q13.75,22.311 13.53,22.53 Q13.311,22.75 13,22.75 L9,22.75 Q1.25,22.75 1.25,15 L1.25,9 Q1.25,1.25 9,1.25 L15,1.25 Q22.75,1.25 22.75,9 L22.75,13 Q22.75,13.311 22.53,13.53 Q22.311,13.75 22,13.75 Q21.689,13.75 21.47,13.53 Q21.25,13.311 21.25,13 Z"/>
  <path fill="#292D32" d="M21.25,13 L21.25,9 Q21.25,2.75 15,2.75 L9,2.75 Q2.75,2.75 2.75,9 L2.75,15 Q2.75,18.439 4.155,19.845 Q5.561,21.25 9,21.25 L13,21.25 Q13.311,21.25 13.53,21.47 Q13.75,21.689 13.75,22 Q13.75,22.311 13.53,22.53 Q13.311,22.75 13,22.75 L9,22.75 Q1.25,22.75 1.25,15 L1.25,9 Q1.25,1.25 9,1.25 L15,1.25 Q22.75,1.25 22.75,9 L22.75,13 Q22.75,13.311 22.53,13.53 Q22.311,13.75 22,13.75 Q21.689,13.75 21.47,13.53 Q21.25,13.311 21.25,13 Z"/>
  <path fill="#292D32" d="M21.25,13 L21.25,9 Q21.25,2.75 15,2.75 L9,2.75 Q2.75,2.75 2.75,9 L2.75,15 Q2.75,18.439 4.155,19.845 Q5.561,21.25 9,21.25 L13,21.25 Q13.311,21.25 13.53,21.47 Q13.75,21.689 13.75,22 Q13.75,22.311 13.53,22.53 Q13.311,22.75 13,22.75 L9,22.75 Q1.25,22.75 1.25,15 L1.25,9 Q1.25,1.25 9,1.25 L15,1.25 Q22.75,1.25 22.75,9 L22.75,13 Q22.75,13.311 22.53,13.53 Q22.311,13.75 22,13.75 Q21.689,13.75 21.47,13.53 Q21.25,13.311 21.25,13 Z"/>
  <path fill="#292D32" d="M16.529,18.898 L17.535,19.898 L20.43,16.513 Q20.632,16.276 20.942,16.252 Q21.251,16.228 21.487,16.43 Q21.724,16.632 21.748,16.942 Q21.772,17.251 21.57,17.487 L18.15,21.487 Q18.132,21.509 18.112,21.529 Q17.893,21.749 17.582,21.75 Q17.272,21.751 17.051,21.532 L15.471,19.962 Q15.251,19.743 15.25,19.432 Q15.249,19.122 15.468,18.901 Q15.687,18.681 15.998,18.68 Q16.308,18.679 16.529,18.898 Z"/>
  <path fill="#292D32" d="M7.75,10.5 L7.75,13.5 Q7.75,13.811 7.53,14.03 Q7.311,14.25 7,14.25 Q6.689,14.25 6.47,14.03 Q6.25,13.811 6.25,13.5 L6.25,10.5 Q6.25,10.189 6.47,9.97 Q6.689,9.75 7,9.75 Q7.311,9.75 7.53,9.97 Q7.75,10.189 7.75,10.5 Z"/>
  <path fill="#292D32" d="M12.75,10.5 L12.75,13.5 Q12.75,13.811 12.53,14.03 Q12.311,14.25 12,14.25 Q11.689,14.25 11.47,14.03 Q11.25,13.811 11.25,13.5 L11.25,10.5 Q11.25,10.189 11.47,9.97 Q11.689,9.75 12,9.75 Q12.311,9.75 12.53,9.97 Q12.75,10.189 12.75,10.5 Z"/>
  <path fill="#292D32" d="M17.75,10.5 L17.75,13.5 Q17.75,13.811 17.53,14.03 Q17.311,14.25 17,14.25 Q16.689,14.25 16.47,14.03 Q16.25,13.811 16.25,13.5 L16.25,10.5 Q16.25,10.189 16.47,9.97 Q16.689,9.75 17,9.75 Q17.311,9.75 17.53,9.97 Q17.75,10.189 17.75,10.5 Z"/>
</svg>

