<svg xmlns="http://www.w3.org/2000/svg" width="24" height="24" viewBox="0 0 24 24">
  <defs/>
  <path fill="#292D32" d="M2.75,13.01 L2.75,15 Q2.75,18.439 4.155,19.845 Q5.561,21.25 9,21.25 L15,21.25 Q18.439,21.25 19.845,19.845 Q21.25,18.439 21.25,15 L21.25,9 Q21.25,2.75 15,2.75 L9,2.75 Q2.75,2.75 2.75,9 Q2.75,9.311 2.53,9.53 Q2.311,9.75 2,9.75 Q1.689,9.75 1.47,9.53 Q1.25,9.311 1.25,9 Q1.25,1.25 9,1.25 L15,1.25 Q22.75,1.25 22.75,9 L22.75,15 Q22.75,22.75 15,22.75 L9,22.75 Q1.25,22.75 1.25,15 L1.25,13.01 Q1.25,12.699 1.47,12.48 Q1.689,12.26 2,12.26 Q2.311,12.26 2.53,12.48 Q2.75,12.699 2.75,13.01 Z"/>
  <path fill="#292D32" d="M18.25,11.57 L18.25,16.5 Q18.25,17.637 17.447,18.442 Q16.642,19.25 15.5,19.25 Q12.75,19.25 12.75,16.5 L12.75,7.5 Q12.75,6.364 13.557,5.557 Q14.364,4.75 15.5,4.75 Q18.25,4.75 18.25,7.5 Q18.25,7.811 18.03,8.03 Q17.811,8.25 17.5,8.25 Q17.189,8.25 16.97,8.03 Q16.75,7.811 16.75,7.5 Q16.75,6.986 16.382,6.618 Q16.014,6.25 15.5,6.25 Q14.986,6.25 14.618,6.618 Q14.25,6.986 14.25,7.5 L14.25,16.5 Q14.25,17.014 14.618,17.382 Q14.986,17.75 15.5,17.75 Q16.75,17.75 16.75,16.5 L16.75,11.57 Q16.75,11.259 16.97,11.04 Q17.189,10.82 17.5,10.82 Q17.811,10.82 18.03,11.04 Q18.25,11.259 18.25,11.57 Z"/>
  <path fill="#292D32" d="M8.5,19.25 Q5.75,19.25 5.75,16.5 L5.75,13 Q5.75,11.864 6.557,11.057 Q7.364,10.25 8.5,10.25 Q11.25,10.25 11.25,13 L11.25,16.5 Q11.25,19.25 8.5,19.25 Z M8.5,17.75 Q9.75,17.75 9.75,16.5 L9.75,13 Q9.75,11.75 8.5,11.75 Q7.986,11.75 7.618,12.118 Q7.25,12.486 7.25,13 L7.25,16.5 Q7.25,17.75 8.5,17.75 Z"/>
</svg>

