<svg xmlns="http://www.w3.org/2000/svg" width="24" height="24" viewBox="0 0 24 24">
  <defs/>
  <path fill="#292D32" d="M4.618,6.422 Q2.75,8.894 2.75,12 Q2.75,15.829 5.46,18.54 Q8.171,21.25 12,21.25 Q15.829,21.25 18.54,18.54 Q21.25,15.829 21.25,12 Q21.25,8.171 18.54,5.46 Q15.829,2.75 12,2.75 Q11.689,2.75 11.47,2.53 Q11.25,2.311 11.25,2 Q11.25,1.689 11.47,1.47 Q11.689,1.25 12,1.25 Q16.451,1.25 19.6,4.4 Q22.75,7.549 22.75,12 Q22.75,16.451 19.6,19.6 Q16.451,22.75 12,22.75 Q7.549,22.75 4.4,19.6 Q1.25,16.451 1.25,12 Q1.25,8.391 3.422,5.518 Q3.609,5.27 3.917,5.227 Q4.224,5.184 4.472,5.372 Q4.72,5.559 4.763,5.867 Q4.806,6.174 4.618,6.422 Z"/>
  <path fill="#292D32" opacity="0.34" d="M5.75,12 Q5.75,14.592 7.579,16.421 Q9.408,18.25 12,18.25 Q14.592,18.25 16.421,16.421 Q18.25,14.592 18.25,12 Q18.25,9.408 16.421,7.579 Q14.592,5.75 12,5.75 Q11.689,5.75 11.47,5.53 Q11.25,5.311 11.25,5 Q11.25,4.689 11.47,4.47 Q11.689,4.25 12,4.25 Q15.213,4.25 17.482,6.518 Q19.75,8.787 19.75,12 Q19.75,15.213 17.482,17.482 Q15.213,19.75 12,19.75 Q8.787,19.75 6.518,17.482 Q4.25,15.213 4.25,12 Q4.25,11.689 4.47,11.47 Q4.689,11.25 5,11.25 Q5.311,11.25 5.53,11.47 Q5.75,11.689 5.75,12 Z"/>
  <path fill="#292D32" opacity="0.34" d="M12,15.25 Q13.347,15.25 14.298,14.298 Q15.25,13.347 15.25,12 Q15.25,8.75 12,8.75 Q11.689,8.75 11.47,8.53 Q11.25,8.311 11.25,8 Q11.25,7.689 11.47,7.47 Q11.689,7.25 12,7.25 Q13.968,7.25 15.359,8.641 Q16.75,10.032 16.75,12 Q16.75,13.968 15.359,15.359 Q13.968,16.75 12,16.75 Q11.689,16.75 11.47,16.53 Q11.25,16.311 11.25,16 Q11.25,15.689 11.47,15.47 Q11.689,15.25 12,15.25 Z"/>
</svg>

