<svg xmlns="http://www.w3.org/2000/svg" width="24" height="24" viewBox="0 0 24 24">
  <defs/>
  <path fill="#292D32" d="M22,22.75 L2,22.75 C1.59,22.75 1.25,22.41 1.25,22 C1.25,21.59 1.59,21.25 2,21.25 L22,21.25 C22.41,21.25 22.75,21.59 22.75,22 C22.75,22.41 22.41,22.75 22,22.75 Z"/>
  <path fill="#292D32" d="M14.25,22.75 L9.75,22.75 C9.34,22.75 9,22.41 9,22 L9,4 C9,2.28 9.95,1.25 11.55,1.25 L12.45,1.25 C14.05,1.25 15,2.28 15,4 L15,22 C15,22.41 14.66,22.75 14.25,22.75 Z M10.5,21.25 L13.5,21.25 L13.5,4 C13.5,2.85 12.96,2.75 12.45,2.75 L11.55,2.75 C11.04,2.75 10.5,2.85 10.5,4 L10.5,21.25 Z"/>
  <path fill="#292D32" d="M7,22.75 L3,22.75 C2.59,22.75 2.25,22.41 2.25,22 L2.25,10 C2.25,8.28 3.13,7.25 4.6,7.25 L5.4,7.25 C6.87,7.25 7.75,8.28 7.75,10 L7.75,22 C7.75,22.41 7.41,22.75 7,22.75 Z M3.75,21.25 L6.25,21.25 L6.25,10 C6.25,8.75 5.7,8.75 5.4,8.75 L4.6,8.75 C4.3,8.75 3.75,8.75 3.75,10 L3.75,21.25 Z"/>
  <path fill="#292D32" d="M21,22.75 L17,22.75 C16.59,22.75 16.25,22.41 16.25,22 L16.25,15 C16.25,13.28 17.13,12.25 18.6,12.25 L19.4,12.25 C20.87,12.25 21.75,13.28 21.75,15 L21.75,22 C21.75,22.41 21.41,22.75 21,22.75 Z M17.75,21.25 L20.25,21.25 L20.25,15 C20.25,13.75 19.7,13.75 19.4,13.75 L18.6,13.75 C18.3,13.75 17.75,13.75 17.75,15 L17.75,21.25 Z"/>
</svg>

