<svg xmlns="http://www.w3.org/2000/svg" width="24" height="24" viewBox="0 0 24 24">
  <defs/>
  <path fill="#292D32" d="M21.97,7.21 C21.69,4.48 19.52,2.31 16.79,2.03 C16.59,2.01 16.39,2 16.19,2 L7.81,2 C7.61,2 7.41,2.01 7.21,2.03 C4.48,2.31 2.31,4.48 2.03,7.21 C2.01,7.41 2,7.61 2,7.81 L2,16.19 C2,16.39 2.01,16.59 2.03,16.79 C2.31,19.52 4.48,21.69 7.21,21.97 C7.41,21.99 7.61,22 7.81,22 L14,22 C14.55,22 15,21.55 15,21 L15,18.03 C15,16.36 16.36,15 18.03,15 L21,15 C21.55,15 22,14.55 22,14 L22,7.81 C22,7.61 21.99,7.41 21.97,7.21 Z M7.75,13.5 C7.75,13.91 7.41,14.25 7,14.25 C6.59,14.25 6.25,13.91 6.25,13.5 L6.25,10.5 C6.25,10.09 6.59,9.75 7,9.75 C7.41,9.75 7.75,10.09 7.75,10.5 L7.75,13.5 Z M12.75,13.5 C12.75,13.91 12.41,14.25 12,14.25 C11.59,14.25 11.25,13.91 11.25,13.5 L11.25,10.5 C11.25,10.09 11.59,9.75 12,9.75 C12.41,9.75 12.75,10.09 12.75,10.5 L12.75,13.5 Z"/>
  <path fill="#292D32" d="M20.97,16 L18.03,16 C16.76,16 16,16.76 16,18.03 L16,20.97 C16,22.24 16.76,23 18.03,23 L20.97,23 C22.24,23 23,22.24 23,20.97 L23,18.03 C23,16.76 22.24,16 20.97,16 Z M21.47,20.56 C21.72,20.81 21.72,21.22 21.47,21.47 C21.34,21.59 21.17,21.65 21.01,21.65 C20.85,21.65 20.68,21.59 20.55,21.47 L19.49,20.41 L18.45,21.47 C18.32,21.59 18.16,21.65 17.98,21.65 C17.83,21.65 17.66,21.59 17.54,21.47 C17.29,21.22 17.29,20.81 17.54,20.56 L18.6,19.5 L17.54,18.45 C17.29,18.2 17.29,17.79 17.54,17.54 C17.79,17.29 18.2,17.29 18.45,17.54 L19.49,18.6 L20.55,17.54 C20.8,17.29 21.22,17.29 21.47,17.54 C21.72,17.79 21.72,18.2 21.47,18.45 L20.41,19.5 L21.47,20.56 Z"/>
</svg>

