<svg xmlns="http://www.w3.org/2000/svg" width="24" height="24" viewBox="0 0 24 24">
  <defs/>
  <path fill="#292D32" d="M21,22.75 L3,22.75 C2.59,22.75 2.25,22.41 2.25,22 C2.25,21.59 2.59,21.25 3,21.25 L21,21.25 C21.41,21.25 21.75,21.59 21.75,22 C21.75,22.41 21.41,22.75 21,22.75 Z"/>
  <path fill="#292D32" d="M5.6,8.379 L4,8.379 C3.45,8.379 3,8.829 3,9.379 L3,17.999 C3,18.549 3.45,18.999 4,18.999 L5.6,18.999 C6.15,18.999 6.6,18.549 6.6,17.999 L6.6,9.379 C6.6,8.819 6.15,8.379 5.6,8.379 Z"/>
  <path fill="#292D32" d="M12.799,5.191 L11.199,5.191 C10.649,5.191 10.199,5.641 10.199,6.191 L10.199,18.001 C10.199,18.551 10.649,19.001 11.199,19.001 L12.799,19.001 C13.349,19.001 13.799,18.551 13.799,18.001 L13.799,6.191 C13.799,5.641 13.349,5.191 12.799,5.191 Z"/>
  <path fill="#292D32" d="M20,2 L18.4,2 C17.85,2 17.4,2.45 17.4,3 L17.4,18 C17.4,18.55 17.85,19 18.4,19 L20,19 C20.55,19 21,18.55 21,18 L21,3 C21,2.45 20.55,2 20,2 Z"/>
</svg>

