<svg xmlns="http://www.w3.org/2000/svg" width="24" height="24" viewBox="0 0 24 24">
  <defs/>
  <path fill="#292D32" d="M3,21.25 L21,21.25 Q21.311,21.25 21.53,21.47 Q21.75,21.689 21.75,22 Q21.75,22.311 21.53,22.53 Q21.311,22.75 21,22.75 L3,22.75 Q2.689,22.75 2.47,22.53 Q2.25,22.311 2.25,22 Q2.25,21.689 2.47,21.47 Q2.689,21.25 3,21.25 Z"/>
  <path fill="#292D32" d="M5.6,7.63 Q6.323,7.63 6.837,8.143 Q7.35,8.657 7.35,9.38 L7.35,18 Q7.35,19.75 5.6,19.75 L4,19.75 Q2.25,19.75 2.25,18 L2.25,9.38 Q2.25,8.657 2.763,8.143 Q3.277,7.63 4,7.63 Z M5.6,9.13 L4,9.13 Q3.898,9.13 3.824,9.204 Q3.75,9.278 3.75,9.38 L3.75,18 Q3.75,18.102 3.824,18.176 Q3.898,18.25 4,18.25 L5.6,18.25 Q5.85,18.25 5.85,18 L5.85,9.38 Q5.85,9.13 5.6,9.13 Z"/>
  <path fill="#292D32" d="M12.8,4.44 Q14.55,4.44 14.55,6.19 L14.55,18 Q14.55,19.75 12.8,19.75 L11.2,19.75 Q9.45,19.75 9.45,18 L9.45,6.19 Q9.45,5.467 9.963,4.953 Q10.477,4.44 11.2,4.44 Z M12.8,5.94 L11.2,5.94 Q11.098,5.94 11.024,6.014 Q10.95,6.088 10.95,6.19 L10.95,18 Q10.95,18.102 11.024,18.176 Q11.098,18.25 11.2,18.25 L12.8,18.25 Q13.05,18.25 13.05,18 L13.05,6.19 Q13.05,5.94 12.8,5.94 Z"/>
  <path fill="#292D32" d="M20,1.25 Q21.75,1.25 21.75,3 L21.75,18 Q21.75,18.723 21.236,19.237 Q20.723,19.75 20,19.75 L18.4,19.75 Q17.677,19.75 17.163,19.237 Q16.65,18.723 16.65,18 L16.65,3 Q16.65,2.277 17.163,1.763 Q17.677,1.25 18.4,1.25 Z M20,2.75 L18.4,2.75 Q18.15,2.75 18.15,3 L18.15,18 Q18.15,18.102 18.224,18.176 Q18.298,18.25 18.4,18.25 L20,18.25 Q20.25,18.25 20.25,18 L20.25,3 Q20.25,2.75 20,2.75 Z"/>
</svg>

