<svg xmlns="http://www.w3.org/2000/svg" width="24" height="24" viewBox="0 0 24 24">
  <defs/>
  <path fill="#292D32" d="M16.19,2 L7.81,2 C4.17,2 2,4.17 2,7.81 L2,16.18 C2,19.83 4.17,22 7.81,22 L16.18,22 C19.82,22 21.99,19.83 21.99,16.19 L21.99,7.81 C22,4.17 19.83,2 16.19,2 Z M9.91,16.19 C9.91,16.83 9.39,17.35 8.74,17.35 C8.1,17.35 7.58,16.83 7.58,16.19 L7.58,12.93 C7.58,12.29 8.1,11.77 8.74,11.77 C9.39,11.77 9.91,12.29 9.91,12.93 L9.91,16.19 Z M16.42,16.19 C16.42,16.83 15.9,17.35 15.26,17.35 C14.61,17.35 14.09,16.83 14.09,16.19 L14.09,7.81 C14.09,7.17 14.61,6.65 15.26,6.65 C15.9,6.65 16.42,7.17 16.42,7.81 L16.42,16.19 Z"/>
</svg>

