<svg xmlns="http://www.w3.org/2000/svg" width="24" height="24" viewBox="0 0 24 24">
  <defs/>
  <path fill="#292D32" opacity="0.4" d="M16.19,2 L7.82,2 C4.18,2 2.01,4.17 2.01,7.81 L2.01,16.18 C2.01,19.82 4.18,21.99 7.82,21.99 L16.19,21.99 C19.83,21.99 22,19.82 22,16.18 L22,7.81 C22,4.17 19.83,2 16.19,2 Z"/>
  <path fill="#292D32" d="M10.11,11.15 L7.46,11.15 C6.83,11.15 6.32,11.66 6.32,12.29 L6.32,17.41 L10.11,17.41 L10.11,11.15 Z"/>
  <path fill="#292D32" opacity="0.4" d="M12.76,6.6 L11.24,6.6 C10.61,6.6 10.1,7.11 10.1,7.74 L10.1,17.4 L13.89,17.4 L13.89,7.74 C13.89,7.11 13.39,6.6 12.76,6.6 Z"/>
  <path fill="#292D32" d="M16.55,12.85 L13.9,12.85 L13.9,17.4 L17.69,17.4 L17.69,13.99 C17.68,13.36 17.17,12.85 16.55,12.85 Z"/>
</svg>

