<svg xmlns="http://www.w3.org/2000/svg" width="24" height="24" viewBox="0 0 24 24">
  <defs/>
  <path fill="#292D32" d="M20.97,16 L18.03,16 C16.76,16 16,16.76 16,18.03 L16,20.97 C16,22.24 16.76,23 18.03,23 L20.97,23 C22.24,23 23,22.24 23,20.97 L23,18.03 C23,16.76 22.24,16 20.97,16 Z M21.63,18.45 L19.26,21.22 C19.17,21.33 19.03,21.4 18.89,21.4 C18.88,21.4 18.88,21.4 18.87,21.4 C18.73,21.4 18.6,21.35 18.5,21.25 L17.41,20.17 C17.21,19.97 17.21,19.64 17.41,19.44 C17.61,19.24 17.94,19.23 18.14,19.44 L18.84,20.13 L20.84,17.79 C21.03,17.57 21.35,17.55 21.57,17.73 C21.79,17.91 21.81,18.24 21.63,18.45 Z"/>
  <path fill="#292D32" opacity="0.4" d="M16,20.97 L16,18.03 C16,16.76 16.76,16 18.03,16 L20.97,16 C21.37,16 21.71,16.08 22,16.22 C22,16.21 22,16.2 22,16.18 L22,7.81 C22,4.17 19.83,2 16.19,2 L7.81,2 C4.17,2 2,4.17 2,7.81 L2,16.18 C2,19.83 4.17,22 7.81,22 L16.18,22 C16.19,22 16.2,22 16.22,22 C16.08,21.71 16,21.37 16,20.97 Z"/>
  <path fill="#292D32" d="M7,14.25 C6.59,14.25 6.25,13.91 6.25,13.5 L6.25,10.5 C6.25,10.09 6.59,9.75 7,9.75 C7.41,9.75 7.75,10.09 7.75,10.5 L7.75,13.5 C7.75,13.91 7.41,14.25 7,14.25 Z"/>
  <path fill="#292D32" d="M12,14.25 C11.59,14.25 11.25,13.91 11.25,13.5 L11.25,10.5 C11.25,10.09 11.59,9.75 12,9.75 C12.41,9.75 12.75,10.09 12.75,10.5 L12.75,13.5 C12.75,13.91 12.41,14.25 12,14.25 Z"/>
  <path fill="#292D32" d="M17,14.25 C16.59,14.25 16.25,13.91 16.25,13.5 L16.25,10.5 C16.25,10.09 16.59,9.75 17,9.75 C17.41,9.75 17.75,10.09 17.75,10.5 L17.75,13.5 C17.75,13.91 17.41,14.25 17,14.25 Z"/>
</svg>

