<svg xmlns="http://www.w3.org/2000/svg" width="24" height="24" viewBox="0 0 24 24">
  <defs/>
  <path fill="#292D32" d="M22,22 L2,22 C1.59,22 1.25,21.66 1.25,21.25 C1.25,20.84 1.59,20.5 2,20.5 L22,20.5 C22.41,20.5 22.75,20.84 22.75,21.25 C22.75,21.66 22.41,22 22,22 Z"/>
  <path fill="#292D32" d="M9.75,4 L9.75,22 L14.25,22 L14.25,4 C14.25,2.9 13.8,2 12.45,2 L11.55,2 C10.2,2 9.75,2.9 9.75,4 Z"/>
  <path fill="#292D32" d="M3,10 L3,22 L7,22 L7,10 C7,8.9 6.6,8 5.4,8 L4.6,8 C3.4,8 3,8.9 3,10 Z"/>
  <path fill="#292D32" d="M17,15 L17,22 L21,22 L21,15 C21,13.9 20.6,13 19.4,13 L18.6,13 C17.4,13 17,13.9 17,15 Z"/>
</svg>

