<svg xmlns="http://www.w3.org/2000/svg" width="24" height="24" viewBox="0 0 24 24">
  <defs/>
  <path fill="#292D32" d="M10.11,18.15 L6.32,18.15 C5.91,18.15 5.57,17.81 5.57,17.4 L5.57,12.28 C5.57,11.24 6.42,10.39 7.46,10.39 L10.11,10.39 C10.52,10.39 10.86,10.73 10.86,11.14 L10.86,17.39 C10.86,17.81 10.52,18.15 10.11,18.15 Z M7.07,16.65 L9.36,16.65 L9.36,11.9 L7.46,11.9 C7.25,11.9 7.07,12.07 7.07,12.29 L7.07,16.65 Z"/>
  <path fill="#292D32" d="M13.89,18.15 L10.1,18.15 C9.69,18.15 9.35,17.81 9.35,17.4 L9.35,7.74 C9.35,6.7 10.2,5.85 11.24,5.85 L12.76,5.85 C13.8,5.85 14.65,6.7 14.65,7.74 L14.65,17.4 C14.64,17.81 14.31,18.15 13.89,18.15 Z M10.86,16.65 L13.15,16.65 L13.15,7.74 C13.15,7.53 12.98,7.35 12.76,7.35 L11.24,7.35 C11.03,7.35 10.85,7.52 10.85,7.74 L10.85,16.65 L10.86,16.65 Z"/>
  <path fill="#292D32" d="M17.681,18.15 L13.891,18.15 C13.481,18.15 13.141,17.81 13.141,17.4 L13.141,12.85 C13.141,12.44 13.481,12.1 13.891,12.1 L16.541,12.1 C17.581,12.1 18.431,12.95 18.431,13.99 L18.431,17.4 C18.431,17.81 18.101,18.15 17.681,18.15 Z M14.641,16.65 L16.931,16.65 L16.931,13.99 C16.931,13.78 16.761,13.6 16.541,13.6 L14.641,13.6 L14.641,16.65 Z"/>
  <path fill="#292D32" d="M15,22.75 L9,22.75 C3.57,22.75 1.25,20.43 1.25,15 L1.25,9 C1.25,3.57 3.57,1.25 9,1.25 L15,1.25 C20.43,1.25 22.75,3.57 22.75,9 L22.75,15 C22.75,20.43 20.43,22.75 15,22.75 Z M9,2.75 C4.39,2.75 2.75,4.39 2.75,9 L2.75,15 C2.75,19.61 4.39,21.25 9,21.25 L15,21.25 C19.61,21.25 21.25,19.61 21.25,15 L21.25,9 C21.25,4.39 19.61,2.75 15,2.75 L9,2.75 Z"/>
</svg>

