<svg xmlns="http://www.w3.org/2000/svg" width="24" height="24" viewBox="0 0 24 24">
  <defs/>
  <path fill="#292D32" d="M12,22.75 C6.07,22.75 1.25,17.93 1.25,12 C1.25,9.64 2,7.4 3.42,5.52 C3.67,5.19 4.14,5.13 4.47,5.38 C4.8,5.63 4.87,6.1 4.62,6.43 C3.4,8.04 2.75,9.97 2.75,12 C2.75,17.1 6.9,21.25 12,21.25 C17.1,21.25 21.25,17.1 21.25,12 C21.25,6.9 17.1,2.75 12,2.75 C11.59,2.75 11.25,2.41 11.25,2 C11.25,1.59 11.59,1.25 12,1.25 C17.93,1.25 22.75,6.07 22.75,12 C22.75,17.93 17.93,22.75 12,22.75 Z"/>
  <path fill="#292D32" d="M12,19.75 C7.73,19.75 4.25,16.27 4.25,12 C4.25,11.59 4.59,11.25 5,11.25 C5.41,11.25 5.75,11.59 5.75,12 C5.75,15.45 8.55,18.25 12,18.25 C15.45,18.25 18.25,15.45 18.25,12 C18.25,8.55 15.45,5.75 12,5.75 C11.59,5.75 11.25,5.41 11.25,5 C11.25,4.59 11.59,4.25 12,4.25 C16.27,4.25 19.75,7.73 19.75,12 C19.75,16.27 16.27,19.75 12,19.75 Z"/>
  <path fill="#292D32" d="M12,16.75 C11.59,16.75 11.25,16.41 11.25,16 C11.25,15.59 11.59,15.25 12,15.25 C13.79,15.25 15.25,13.79 15.25,12 C15.25,10.21 13.79,8.75 12,8.75 C11.59,8.75 11.25,8.41 11.25,8 C11.25,7.59 11.59,7.25 12,7.25 C14.62,7.25 16.75,9.38 16.75,12 C16.75,14.62 14.62,16.75 12,16.75 Z"/>
</svg>

