<svg xmlns="http://www.w3.org/2000/svg" width="24" height="24" viewBox="0 0 24 24">
  <defs/>
  <path fill="#292D32" d="M21,22.75 L3,22.75 C2.59,22.75 2.25,22.41 2.25,22 C2.25,21.59 2.59,21.25 3,21.25 L21,21.25 C21.41,21.25 21.75,21.59 21.75,22 C21.75,22.41 21.41,22.75 21,22.75 Z"/>
  <path fill="#292D32" d="M5.6,19.75 L4,19.75 C3.04,19.75 2.25,18.96 2.25,18 L2.25,9.38 C2.25,8.42 3.04,7.63 4,7.63 L5.6,7.63 C6.56,7.63 7.35,8.42 7.35,9.38 L7.35,18 C7.35,18.96 6.56,19.75 5.6,19.75 Z M4,9.12 C3.86,9.12 3.75,9.23 3.75,9.37 L3.75,18 C3.75,18.14 3.86,18.25 4,18.25 L5.6,18.25 C5.74,18.25 5.85,18.14 5.85,18 L5.85,9.38 C5.85,9.24 5.74,9.13 5.6,9.13 L4,9.13 L4,9.12 Z"/>
  <path fill="#292D32" d="M12.8,19.75 L11.2,19.75 C10.24,19.75 9.45,18.96 9.45,18 L9.45,6.19 C9.45,5.23 10.24,4.44 11.2,4.44 L12.8,4.44 C13.76,4.44 14.55,5.23 14.55,6.19 L14.55,18 C14.55,18.96 13.76,19.75 12.8,19.75 Z M11.2,5.94 C11.06,5.94 10.95,6.05 10.95,6.19 L10.95,18 C10.95,18.14 11.06,18.25 11.2,18.25 L12.8,18.25 C12.94,18.25 13.05,18.14 13.05,18 L13.05,6.19 C13.05,6.05 12.94,5.94 12.8,5.94 L11.2,5.94 Z"/>
  <path fill="#292D32" d="M20,19.75 L18.4,19.75 C17.44,19.75 16.65,18.96 16.65,18 L16.65,3 C16.65,2.04 17.44,1.25 18.4,1.25 L20,1.25 C20.96,1.25 21.75,2.04 21.75,3 L21.75,18 C21.75,18.96 20.96,19.75 20,19.75 Z M18.4,2.75 C18.26,2.75 18.15,2.86 18.15,3 L18.15,18 C18.15,18.14 18.26,18.25 18.4,18.25 L20,18.25 C20.14,18.25 20.25,18.14 20.25,18 L20.25,3 C20.25,2.86 20.14,2.75 20,2.75 L18.4,2.75 Z"/>
</svg>

