<svg xmlns="http://www.w3.org/2000/svg" width="24" height="24" viewBox="0 0 24 24">
  <defs/>
  <path fill="#292D32" d="M15,22 C14.59,22 14.25,21.66 14.25,21.25 L14.25,2.75 C14.25,2.34 14.59,2 15,2 C15.41,2 15.75,2.34 15.75,2.75 L15.75,21.25 C15.75,21.66 15.41,22 15,22 Z"/>
  <path fill="#292D32" opacity="0.4" d="M6,20 L12,20 L12,4 L6,4 C3.79,4 2,5.79 2,8 L2,16 C2,18.21 3.79,20 6,20 Z"/>
  <path fill="#292D32" opacity="0.4" d="M18,20 L15,20 L15,4 L18,4 C20.21,4 22,5.79 22,8 L22,16 C22,18.21 20.21,20 18,20 Z"/>
  <path fill="#292D32" d="M7,16.25 C6.59,16.25 6.25,15.91 6.25,15.5 L6.25,8.5 C6.25,8.09 6.59,7.75 7,7.75 C7.41,7.75 7.75,8.09 7.75,8.5 L7.75,15.5 C7.75,15.91 7.41,16.25 7,16.25 Z"/>
</svg>

