<svg xmlns="http://www.w3.org/2000/svg" width="24" height="24" viewBox="0 0 24 24">
  <defs/>
  <path fill="#292D32" d="M11.02,20.25 L7.5,20.25 Q6.426,20.25 5.746,20.154 Q1.75,19.706 1.75,14.5 L1.75,9.5 Q1.75,4.294 5.746,3.846 Q6.426,3.75 7.5,3.75 L10.96,3.75 Q11.271,3.75 11.49,3.97 Q11.71,4.189 11.71,4.5 Q11.71,4.811 11.49,5.03 Q11.271,5.25 10.96,5.25 L7.5,5.25 Q6.523,5.25 5.946,5.332 Q5.934,5.334 5.922,5.335 Q3.25,5.63 3.25,9.5 L3.25,14.5 Q3.25,18.37 5.922,18.665 Q5.934,18.666 5.946,18.668 Q6.523,18.75 7.5,18.75 L11.02,18.75 Q11.331,18.75 11.55,18.97 Q11.77,19.189 11.77,19.5 Q11.77,19.811 11.55,20.03 Q11.331,20.25 11.02,20.25 Z"/>
  <path fill="#292D32" d="M15.02,3.75 L16.5,3.75 Q17.574,3.75 18.254,3.846 Q22.25,4.294 22.25,9.5 L22.25,14.5 Q22.25,19.706 18.254,20.154 Q17.574,20.25 16.5,20.25 L15.02,20.25 Q14.709,20.25 14.49,20.03 Q14.27,19.811 14.27,19.5 Q14.27,19.189 14.49,18.97 Q14.709,18.75 15.02,18.75 L16.5,18.75 Q17.477,18.75 18.054,18.668 Q18.066,18.666 18.078,18.665 Q20.75,18.37 20.75,14.5 L20.75,9.5 Q20.75,5.63 18.078,5.335 Q18.066,5.334 18.054,5.332 Q17.477,5.25 16.5,5.25 L15.02,5.25 Q14.709,5.25 14.49,5.03 Q14.27,4.811 14.27,4.5 Q14.27,4.189 14.49,3.97 Q14.709,3.75 15.02,3.75 Z"/>
  <path fill="#292D32" d="M15.75,2 L15.75,22 Q15.75,22.311 15.53,22.53 Q15.311,22.75 15,22.75 Q14.689,22.75 14.47,22.53 Q14.25,22.311 14.25,22 L14.25,2 Q14.25,1.689 14.47,1.47 Q14.689,1.25 15,1.25 Q15.311,1.25 15.53,1.47 Q15.75,1.689 15.75,2 Z"/>
  <path fill="#292D32" d="M8.75,8.5 L8.75,15.5 Q8.75,15.811 8.53,16.03 Q8.311,16.25 8,16.25 Q7.689,16.25 7.47,16.03 Q7.25,15.811 7.25,15.5 L7.25,8.5 Q7.25,8.189 7.47,7.97 Q7.689,7.75 8,7.75 Q8.311,7.75 8.53,7.97 Q8.75,8.189 8.75,8.5 Z"/>
</svg>

