<svg xmlns="http://www.w3.org/2000/svg" width="24" height="24" viewBox="0 0 24 24">
  <defs/>
  <path fill="#292D32" d="M12,22.75 C6.07,22.75 1.25,17.93 1.25,12 C1.25,6.07 6.07,1.25 12,1.25 C17.93,1.25 22.75,6.07 22.75,12 C22.75,17.93 17.93,22.75 12,22.75 Z M12,2.75 C6.9,2.75 2.75,6.9 2.75,12 C2.75,17.1 6.9,21.25 12,21.25 C17.1,21.25 21.25,17.1 21.25,12 C21.25,6.9 17.1,2.75 12,2.75 Z"/>
  <path fill="#292D32" d="M12,16.75 C9.38,16.75 7.25,14.62 7.25,12 C7.25,9.38 9.38,7.25 12,7.25 C14.62,7.25 16.75,9.38 16.75,12 C16.75,14.62 14.62,16.75 12,16.75 Z M12,8.75 C10.21,8.75 8.75,10.21 8.75,12 C8.75,13.79 10.21,15.25 12,15.25 C13.79,15.25 15.25,13.79 15.25,12 C15.25,10.21 13.79,8.75 12,8.75 Z"/>
  <path fill="#292D32" d="M21.17,8.75 C21.12,8.75 21.06,8.74 21.01,8.73 C18.07,8.09 15.1,8.09 12.16,8.73 C11.75,8.82 11.36,8.56 11.27,8.16 C11.18,7.75 11.44,7.36 11.84,7.27 C14.99,6.58 18.18,6.58 21.33,7.27 C21.73,7.36 21.99,7.76 21.9,8.16 C21.83,8.51 21.52,8.75 21.17,8.75 Z"/>
  <path fill="#292D32" d="M8.54,14.75 C8.33,14.75 8.12,14.66 7.97,14.49 C5.89,12.1 4.31,9.37 3.26,6.37 L3.95,6.06 L4.66,5.82 L4.68,5.88 C5.66,8.69 7.15,11.26 9.11,13.51 C9.38,13.82 9.35,14.3 9.04,14.57 C8.89,14.69 8.71,14.75 8.54,14.75 Z"/>
  <path fill="#292D32" d="M10.88,22.69 C10.7,22.69 10.52,22.63 10.38,22.5 C10.07,22.22 10.05,21.75 10.33,21.44 C12.33,19.24 13.81,16.69 14.73,13.86 C14.86,13.47 15.3,13.21 15.69,13.34 C16.08,13.47 16.31,13.85 16.19,14.24 C15.18,17.36 13.59,20.1 11.45,22.46 C11.29,22.61 11.08,22.69 10.88,22.69 Z"/>
</svg>

