<svg xmlns="http://www.w3.org/2000/svg" width="24" height="24" viewBox="0 0 24 24">
  <defs/>
  <path fill="#292D32" opacity="0.4" d="M22,12 C22,17.47 17.61,21.91 12.16,22 L12,22 C11.39,22 10.79,21.94 10.21,21.84 C5.54,20.99 2,16.91 2,12 C2,10.29 2.43,8.68 3.19,7.27 C3.5,6.7 3.86,6.15 4.27,5.65 C6.11,3.42 8.89,2 12,2 C15.56,2 18.68,3.86 20.45,6.66 C20.8,7.21 21.1,7.8 21.34,8.42 C21.77,9.53 22,10.74 22,12 Z"/>
  <path fill="#292D32" d="M15.1,8.02 C17.18,7.85 19.27,7.98 21.34,8.42 C21.099,7.8 20.799,7.21 20.45,6.66 C17.579,6.19 14.68,6.28 11.819,6.9 C9.389,6.98 7.409,8.78 7.039,11.13 C5.879,9.45 4.939,7.62 4.269,5.65 C3.859,6.15 3.499,6.7 3.189,7.27 C4.249,9.96 5.739,12.36 7.649,14.47 C7.669,14.49 7.699,14.5 7.719,14.52 C8.629,15.99 10.239,16.9 11.97,16.9 C12.579,16.9 13.169,16.78 13.72,16.57 C12.809,18.48 11.649,20.25 10.21,21.84 C10.79,21.94 11.389,22 11.999,22 L12.159,22 C14.009,19.74 15.409,17.18 16.349,14.3 C16.759,13.56 16.98,12.73 16.98,11.89 C16.98,10.32 16.239,8.94 15.1,8.02 Z M14.93,13.61 C14.329,14.66 13.19,15.32 11.97,15.32 C10.749,15.32 9.619,14.66 9.009,13.61 C8.699,13.07 8.549,12.5 8.549,11.89 C8.549,10 10.079,8.47 11.97,8.47 C13.86,8.47 15.399,10 15.399,11.89 C15.399,12.5 15.239,13.07 14.93,13.61 Z"/>
</svg>

