<svg xmlns="http://www.w3.org/2000/svg" width="24" height="24" viewBox="0 0 24 24">
  <defs/>
  <path fill="#292D32" d="M11.819,6.9 C14.68,6.28 17.579,6.19 20.45,6.66 C18.68,3.86 15.559,2 11.999,2 C8.89,2 6.11,3.42 4.27,5.65 C4.71,6.95 5.27,8.19 5.94,9.37 C6.32,10.05 7.29,10.02 7.68,9.35 C8.53,7.92 10.059,6.96 11.819,6.9 Z"/>
  <path fill="#292D32" d="M7.72,14.721 C5.72,12.581 4.16,10.141 3.09,7.441 C1.59,10.401 1.6,14.031 3.43,17.081 C5.03,19.751 7.67,21.411 10.53,21.841 C11.42,20.791 12.2,19.671 12.87,18.501 C13.26,17.821 12.73,17.011 11.95,17.011 C10.28,17.021 8.67,16.201 7.72,14.721 Z"/>
  <path fill="#292D32" d="M8.57,11.998 C8.57,12.608 8.72,13.178 9.03,13.718 C9.64,14.768 10.77,15.428 11.99,15.428 C13.21,15.428 14.35,14.768 14.95,13.718 C15.26,13.178 15.42,12.608 15.42,11.998 C15.42,10.108 13.88,8.578 11.99,8.578 C10.11,8.568 8.57,10.108 8.57,11.998 Z"/>
  <path fill="#292D32" d="M21.34,8.419 C19.97,8.129 18.58,7.969 17.2,7.949 C16.41,7.939 15.96,8.799 16.35,9.489 C16.75,10.199 16.98,11.019 16.98,11.889 C16.98,12.729 16.76,13.559 16.35,14.299 C15.41,17.179 14.01,19.739 12.16,21.999 C17.61,21.909 22,17.469 22,11.999 C22,10.739 21.77,9.529 21.34,8.419 Z"/>
</svg>

