<svg xmlns="http://www.w3.org/2000/svg" width="24" height="24" viewBox="0 0 24 24">
  <defs/>
  <path d="M14.299,10.129 C14.579,11.229 14.089,12.249 13.249,12.769 L13.249,14.749 C13.249,15.439 12.689,15.999 11.999,15.999 C11.309,15.999 10.749,15.439 10.749,14.749 L10.749,12.769 C10.069,12.349 9.619,11.599 9.619,10.749 C9.619,9.229 11.059,8.049 12.639,8.469 C13.439,8.679 14.089,9.329 14.299,10.129 Z"/>
  <path d="M12,22.75 C6.07,22.75 1.25,17.93 1.25,12 C1.25,6.07 6.07,1.25 12,1.25 C16.74,1.25 20.86,4.29 22.27,8.8 C22.39,9.2 22.17,9.62 21.78,9.74 C21.38,9.86 20.96,9.64 20.84,9.25 C19.63,5.36 16.08,2.75 12.01,2.75 C6.91,2.75 2.76,6.9 2.76,12 C2.76,17.1 6.91,21.25 12.01,21.25 C16.07,21.25 19.62,18.65 20.83,14.78 C20.95,14.38 21.37,14.17 21.77,14.29 C22.17,14.41 22.38,14.84 22.26,15.23 C20.84,19.73 16.72,22.75 12,22.75 Z"/>
</svg>

