<svg xmlns="http://www.w3.org/2000/svg" width="24" height="24" viewBox="0 0 24 24">
  <defs/>
  <path d="M12,16.75 C10.9,16.75 10,15.85 10,14.75 L10,13.15 C9.29,12.56 8.87,11.69 8.87,10.75 C8.87,9.78 9.31,8.88 10.09,8.28 C10.87,7.68 11.87,7.48 12.84,7.74 C13.9,8.02 14.76,8.88 15.03,9.94 C15.34,11.15 14.93,12.39 14,13.15 L14,14.75 C14,15.85 13.1,16.75 12,16.75 Z M12,9.13 C11.64,9.13 11.3,9.25 11.01,9.47 C10.61,9.78 10.38,10.25 10.38,10.75 C10.38,11.32 10.67,11.83 11.15,12.13 L11.51,12.35 L11.51,14.75 C11.51,15.03 11.73,15.25 12.01,15.25 C12.29,15.25 12.51,15.03 12.51,14.75 L12.51,12.35 L12.87,12.13 C13.49,11.75 13.77,11.03 13.59,10.31 C13.45,9.78 13,9.33 12.47,9.19 C12.3,9.15 12.15,9.13 12,9.13 Z"/>
  <path d="M12,22.75 C6.07,22.75 1.25,17.93 1.25,12 C1.25,6.07 6.07,1.25 12,1.25 C16.74,1.25 20.86,4.29 22.27,8.8 C22.39,9.2 22.17,9.62 21.78,9.74 C21.38,9.86 20.96,9.64 20.84,9.25 C19.63,5.36 16.08,2.75 12.01,2.75 C6.91,2.75 2.76,6.9 2.76,12 C2.76,17.1 6.91,21.25 12.01,21.25 C16.07,21.25 19.62,18.65 20.83,14.78 C20.95,14.38 21.37,14.17 21.77,14.29 C22.17,14.41 22.38,14.84 22.26,15.23 C20.84,19.73 16.72,22.75 12,22.75 Z"/>
</svg>

