<svg xmlns="http://www.w3.org/2000/svg" width="24" height="24" viewBox="0 0 24 24">
  <defs/>
  <path fill="white" opacity="0.58" d="M24,0 L0,0 L0,24 L24,24 L24,0 Z"/>
  <path fill="#292D32" d="M14.299,10.13 C14.579,11.23 14.089,12.25 13.249,12.77 L13.249,14.75 C13.249,15.44 12.689,16 11.999,16 C11.309,16 10.749,15.44 10.749,14.75 L10.749,12.77 C10.069,12.35 9.619,11.6 9.619,10.75 C9.619,9.23 11.059,8.05 12.639,8.47 C13.439,8.68 14.089,9.33 14.299,10.13 Z"/>
  <path fill="#292D32" opacity="0.4" d="M12,22.75 C6.07,22.75 1.25,17.93 1.25,12 C1.25,6.07 6.07,1.25 12,1.25 C16.74,1.25 20.86,4.29 22.27,8.8 C22.39,9.2 22.17,9.62 21.78,9.74 C21.38,9.86 20.96,9.64 20.84,9.25 C19.63,5.36 16.08,2.75 12.01,2.75 C6.91,2.75 2.76,6.9 2.76,12 C2.76,17.1 6.91,21.25 12.01,21.25 C16.07,21.25 19.62,18.65 20.83,14.78 C20.95,14.38 21.37,14.17 21.77,14.29 C22.17,14.41 22.38,14.84 22.26,15.23 C20.84,19.73 16.72,22.75 12,22.75 Z"/>
</svg>

