<svg xmlns="http://www.w3.org/2000/svg" width="24" height="24" viewBox="0 0 24 24">
  <defs/>
  <path d="M12.83,7.745 Q14.581,8.204 15.017,9.948 Q15.534,11.979 13.989,13.163 L13.989,14.75 Q13.989,15.578 13.403,16.164 Q12.818,16.75 11.989,16.75 Q11.161,16.75 10.575,16.164 Q9.989,15.578 9.989,14.75 L9.989,13.16 Q8.859,12.268 8.859,10.75 Q8.859,10.439 9.079,10.22 Q9.299,10 9.609,10 Q9.92,10 10.14,10.22 Q10.359,10.439 10.359,10.75 Q10.359,11.654 11.134,12.132 Q11.489,12.352 11.489,12.77 L11.489,14.75 Q11.489,15.25 11.989,15.25 Q12.196,15.25 12.343,15.103 Q12.489,14.957 12.489,14.75 L12.489,12.77 Q12.489,12.352 12.845,12.132 Q13.864,11.501 13.562,10.312 Q13.341,9.43 12.449,9.195 Q12.148,9.117 11.992,8.848 Q11.835,8.58 11.914,8.28 Q11.993,7.979 12.261,7.822 Q12.529,7.666 12.83,7.745 Z"/>
  <path d="M20.834,9.253 Q18.805,2.75 12,2.75 Q5.931,2.75 3.508,8.319 Q2.75,10.063 2.75,12 Q2.75,15.829 5.46,18.54 Q8.171,21.25 12,21.25 Q18.781,21.25 20.825,14.784 Q20.918,14.488 21.194,14.345 Q21.47,14.201 21.766,14.295 Q22.062,14.388 22.205,14.664 Q22.349,14.94 22.255,15.236 Q21.21,18.543 18.414,20.625 Q15.562,22.75 12,22.75 Q7.549,22.75 4.4,19.6 Q1.25,16.451 1.25,12 Q1.25,9.752 2.132,7.721 Q4.947,1.25 12,1.25 Q15.577,1.25 18.432,3.388 Q21.229,5.483 22.266,8.807 Q22.358,9.103 22.214,9.378 Q22.07,9.653 21.773,9.746 Q21.477,9.838 21.202,9.694 Q20.927,9.55 20.834,9.253 Z"/>
</svg>

