<svg xmlns="http://www.w3.org/2000/svg" width="24" height="24" viewBox="0 0 24 24">
  <defs/>
  <path opacity="0.4" d="M15.027,9.945 Q15.545,11.979 14,13.163 L14,14.75 Q14,16.75 12,16.75 Q10,16.75 10,14.75 L10,13.16 Q8.87,12.268 8.87,10.75 Q8.87,9.227 10.078,8.29 Q11.304,7.339 12.833,7.745 Q14.569,8.201 15.026,9.94 Z M12.447,9.195 Q11.636,8.979 10.997,9.475 Q10.37,9.962 10.37,10.75 Q10.37,11.654 11.144,12.132 L11.5,12.352 L11.5,14.75 Q11.5,14.957 11.647,15.104 Q11.793,15.25 12,15.25 Q12.5,15.25 12.5,14.75 L12.5,12.352 L12.855,12.132 Q13.874,11.502 13.574,10.318 Q13.339,9.429 12.447,9.195 Z"/>
  <path d="M20.834,9.253 Q18.805,2.75 12,2.75 Q8.171,2.75 5.46,5.46 Q2.75,8.171 2.75,12 Q2.75,15.829 5.46,18.54 Q8.171,21.25 12,21.25 Q18.781,21.25 20.825,14.784 Q20.918,14.488 21.194,14.345 Q21.47,14.201 21.766,14.295 Q22.062,14.388 22.205,14.664 Q22.349,14.94 22.255,15.236 Q21.21,18.543 18.414,20.625 Q15.562,22.75 12,22.75 Q7.549,22.75 4.4,19.6 Q1.25,16.451 1.25,12 Q1.25,7.549 4.4,4.4 Q7.549,1.25 12,1.25 Q15.577,1.25 18.432,3.388 Q21.229,5.483 22.266,8.807 Q22.358,9.103 22.214,9.378 Q22.07,9.653 21.773,9.746 Q21.477,9.838 21.202,9.694 Q20.927,9.55 20.834,9.253 Z"/>
</svg>

