<svg xmlns="http://www.w3.org/2000/svg" width="24" height="24" viewBox="0 0 24 24">
  <defs/>
  <path fill="#17191C" d="M15.026,9.91 Q15.568,11.913 14.05,13.091 L14.05,14.7 Q14.05,16.65 12.1,16.65 Q10.15,16.65 10.15,14.7 L10.15,13.101 Q9.05,12.259 9.05,10.7 Q9.05,9.192 10.233,8.251 Q11.443,7.288 12.982,7.672 L13.062,7.692 L13.135,7.729 Q14.668,8.496 15.026,9.91 Z M13.572,10.282 Q13.392,9.562 12.54,9.11 Q11.768,8.947 11.167,9.424 Q10.55,9.915 10.55,10.7 Q10.55,11.636 11.272,12.049 L11.65,12.265 L11.65,14.7 Q11.65,15.15 12.1,15.15 Q12.55,15.15 12.55,14.7 L12.55,12.284 L12.903,12.064 Q13.89,11.447 13.576,10.297 Z"/>
  <path fill="#17191C" d="M20.887,9.232 Q18.78,2.75 12,2.75 Q8.186,2.75 5.468,5.468 Q2.75,8.186 2.75,12 Q2.75,15.814 5.468,18.532 Q8.186,21.25 12,21.25 Q18.889,21.25 20.78,14.789 Q20.867,14.491 21.14,14.342 Q21.413,14.193 21.711,14.28 Q22.009,14.367 22.158,14.64 Q22.307,14.913 22.22,15.211 Q21.243,18.55 18.435,20.639 Q15.6,22.75 12,22.75 Q7.564,22.75 4.407,19.593 Q1.25,16.436 1.25,12 Q1.25,7.564 4.407,4.407 Q7.564,1.25 12,1.25 Q15.569,1.25 18.449,3.399 Q21.247,5.487 22.313,8.768 Q22.409,9.064 22.268,9.34 Q22.127,9.617 21.832,9.713 Q21.536,9.809 21.26,9.668 Q20.983,9.527 20.887,9.232 Z"/>
</svg>

