<svg xmlns="http://www.w3.org/2000/svg" width="24" height="24" viewBox="0 0 24 24">
  <defs/>
  <path fill="#292D32" d="M14.001,16.91 C13.81,16.91 13.62,16.84 13.47,16.69 L9.51,12.73 C9.22,12.44 9.22,11.96 9.51,11.67 C9.8,11.38 10.28,11.38 10.57,11.67 L14.53,15.63 C14.82,15.92 14.82,16.4 14.53,16.69 C14.38,16.83 14.191,16.91 14.001,16.91 Z"/>
  <path fill="#292D32" d="M9.999,16.95 C9.809,16.95 9.619,16.88 9.469,16.73 C9.179,16.44 9.179,15.96 9.469,15.67 L13.43,11.71 C13.72,11.42 14.2,11.42 14.489,11.71 C14.78,12 14.78,12.48 14.489,12.77 L10.53,16.73 C10.38,16.88 10.19,16.95 9.999,16.95 Z"/>
  <path fill="#292D32" d="M14,6.75 L10,6.75 C9.04,6.75 7.25,6.75 7.25,4 C7.25,1.25 9.04,1.25 10,1.25 L14,1.25 C14.96,1.25 16.75,1.25 16.75,4 C16.75,4.96 16.75,6.75 14,6.75 Z M10,2.75 C9.01,2.75 8.75,2.75 8.75,4 C8.75,5.25 9.01,5.25 10,5.25 L14,5.25 C15.25,5.25 15.25,4.99 15.25,4 C15.25,2.75 14.99,2.75 14,2.75 L10,2.75 Z"/>
  <path fill="#292D32" d="M15,22.75 L9,22.75 C3.38,22.75 2.25,20.17 2.25,16 L2.25,10 C2.25,5.44 3.9,3.49 7.96,3.28 C8.38,3.26 8.73,3.57 8.75,3.99 C8.77,4.41 8.45,4.75 8.04,4.77 C5.2,4.93 3.75,5.78 3.75,10 L3.75,16 C3.75,19.7 4.48,21.25 9,21.25 L15,21.25 C19.52,21.25 20.25,19.7 20.25,16 L20.25,10 C20.25,5.78 18.8,4.93 15.96,4.77 C15.55,4.75 15.23,4.39 15.25,3.98 C15.27,3.57 15.63,3.25 16.04,3.27 C20.1,3.49 21.75,5.44 21.75,9.99 L21.75,15.99 C21.75,20.17 20.62,22.75 15,22.75 Z"/>
</svg>

