<svg xmlns="http://www.w3.org/2000/svg" width="24" height="24" viewBox="0 0 24 24">
  <defs/>
  <path fill="#292D32" opacity="0.4" d="M13.89,2.88 L9.2,2.14 C5.29,1.53 3.48,2.85 2.86,6.76 L2.12,11.45 C1.72,14.01 2.14,15.67 3.59,16.68 C4.35,17.22 5.39,17.58 6.74,17.79 L11.43,18.53 C15.34,19.14 17.15,17.82 17.77,13.91 L18.5,9.22 C18.62,8.45 18.67,7.76 18.63,7.15 C18.5,4.65 17.03,3.37 13.89,2.88 Z M8.24,9.35 C7.07,9.35 6.12,8.4 6.12,7.24 C6.12,6.07 7.07,5.12 8.24,5.12 C9.4,5.12 10.35,6.07 10.35,7.24 C10.35,8.4 9.4,9.35 8.24,9.35 Z"/>
  <path fill="#292D32" d="M20.5,13.47 L19,17.98 C17.75,21.74 15.75,22.74 11.99,21.49 L7.48,19.99 C5.21,19.24 3.95,18.2 3.59,16.68 C4.35,17.22 5.39,17.58 6.74,17.79 L11.43,18.53 C15.34,19.14 17.15,17.82 17.77,13.91 L18.5,9.22 C18.62,8.45 18.67,7.76 18.63,7.15 C21.02,8.42 21.54,10.34 20.5,13.47 Z"/>
  <path fill="#292D32" d="M10.349,7.24 C10.349,8.4 9.399,9.35 8.239,9.35 C7.069,9.35 6.119,8.4 6.119,7.24 C6.119,6.07 7.069,5.12 8.239,5.12 C9.399,5.12 10.349,6.07 10.349,7.24 Z"/>
</svg>

