<svg xmlns="http://www.w3.org/2000/svg" width="24" height="24" viewBox="0 0 24 24">
  <defs/>
  <path fill="#292D32" opacity="0.4" d="M16.239,3.65 L7.759,3.65 C5.289,3.65 3.289,5.66 3.289,8.12 L3.289,17.53 C3.289,19.99 5.299,22 7.759,22 L16.229,22 C18.699,22 20.699,19.99 20.699,17.53 L20.699,8.12 C20.709,5.65 18.699,3.65 16.239,3.65 Z"/>
  <path fill="#292D32" d="M14.35,2 L9.65,2 C8.61,2 7.76,2.84 7.76,3.88 L7.76,4.82 C7.76,5.86 8.6,6.7 9.64,6.7 L14.35,6.7 C15.39,6.7 16.23,5.86 16.23,4.82 L16.23,3.88 C16.24,2.84 15.39,2 14.35,2 Z"/>
  <path fill="#292D32" d="M14.53,15.62 L13.079,14.17 L14.479,12.77 C14.77,12.48 14.77,12 14.479,11.71 C14.19,11.42 13.71,11.42 13.419,11.71 L12.02,13.11 L10.569,11.66 C10.28,11.37 9.799,11.37 9.509,11.66 C9.219,11.95 9.219,12.43 9.509,12.72 L10.96,14.17 L9.469,15.66 C9.179,15.95 9.179,16.43 9.469,16.72 C9.619,16.87 9.809,16.94 9.999,16.94 C10.19,16.94 10.38,16.87 10.53,16.72 L12.02,15.23 L13.47,16.68 C13.62,16.83 13.809,16.9 13.999,16.9 C14.19,16.9 14.38,16.83 14.53,16.68 C14.819,16.39 14.819,15.92 14.53,15.62 Z"/>
</svg>

