<svg xmlns="http://www.w3.org/2000/svg" width="24" height="24" viewBox="0 0 24 24">
  <defs/>
  <path fill="#292D32" d="M9.84,14.17 L10.81,15.139 L14.28,11.67 Q14.499,11.45 14.81,11.45 Q15.121,11.45 15.34,11.67 Q15.56,11.889 15.56,12.2 Q15.56,12.511 15.34,12.73 L11.34,16.73 Q11.121,16.95 10.81,16.95 Q10.499,16.95 10.28,16.73 L8.78,15.23 Q8.56,15.011 8.56,14.7 Q8.56,14.389 8.78,14.17 Q8.999,13.95 9.31,13.95 Q9.621,13.95 9.84,14.17 Z"/>
  <path fill="#292D32" d="M10,6.75 Q8.773,6.75 8.209,6.374 Q7.25,5.735 7.25,4 Q7.25,1.25 10,1.25 L14,1.25 Q16.75,1.25 16.75,4 Q16.75,6.75 14,6.75 Z M10,5.25 L14,5.25 Q15.25,5.25 15.25,4 Q15.25,2.75 14,2.75 L10,2.75 Q9.227,2.75 9.041,2.874 Q8.75,3.068 8.75,4 Q8.75,5.25 10,5.25 Z"/>
  <path fill="#292D32" d="M16.04,3.271 Q21.75,3.58 21.75,10 L21.75,16 Q21.75,22.75 15,22.75 L9,22.75 Q2.25,22.75 2.25,16 L2.25,10 Q2.25,3.58 7.96,3.271 Q8.27,3.254 8.501,3.462 Q8.732,3.669 8.749,3.98 Q8.766,4.29 8.558,4.521 Q8.351,4.752 8.04,4.769 Q3.75,5.001 3.75,10 L3.75,16 Q3.75,18.932 4.689,20.006 Q5.778,21.25 9,21.25 L15,21.25 Q18.222,21.25 19.311,20.006 Q20.25,18.932 20.25,16 L20.25,10 Q20.25,5.001 15.96,4.769 Q15.649,4.752 15.442,4.521 Q15.234,4.29 15.251,3.98 Q15.268,3.669 15.499,3.462 Q15.73,3.254 16.04,3.271 Z"/>
</svg>

