<svg xmlns="http://www.w3.org/2000/svg" width="24" height="24" viewBox="0 0 24 24">
  <defs/>
  <path fill="#292D32" d="M13.05,19.42 C12.509,19.42 11.94,19.37 11.319,19.27 L6.63,18.53 C5.149,18.3 4.01,17.89 3.159,17.29 C0.969,15.77 1.099,13.16 1.379,11.33 L2.119,6.64 C2.8,2.34 5.019,0.73 9.319,1.4 L14.009,2.14 C16.22,2.49 19.189,3.38 19.38,7.11 C19.419,7.75 19.38,8.48 19.239,9.34 L18.509,14.03 C17.93,17.7 16.22,19.42 13.05,19.42 Z M7.529,2.75 C5.149,2.75 4.069,3.96 3.599,6.88 L2.86,11.57 C2.4,14.52 3.24,15.52 4.019,16.07 C4.679,16.54 5.609,16.86 6.859,17.05 L11.55,17.79 C15.04,18.34 16.48,17.29 17.029,13.79 L17.759,9.1 C17.88,8.35 17.919,7.72 17.88,7.19 L17.88,7.18 C17.77,5.08 16.579,4.05 13.77,3.61 L9.089,2.88 C8.509,2.79 8,2.75 7.529,2.75 Z"/>
  <path fill="#292D32" d="M14.679,22.75 C13.829,22.75 12.869,22.57 11.759,22.2 L7.249,20.7 C4.679,19.85 3.289,18.63 2.869,16.85 C2.799,16.55 2.919,16.23 3.179,16.06 C3.439,15.89 3.779,15.89 4.029,16.07 C4.689,16.54 5.609,16.86 6.859,17.05 L11.549,17.79 C15.039,18.34 16.479,17.29 17.029,13.79 L17.759,9.1 C17.879,8.35 17.919,7.72 17.879,7.19 C17.869,6.93 17.999,6.67 18.229,6.52 C18.459,6.37 18.749,6.36 18.989,6.49 C21.669,7.92 22.379,10.21 21.219,13.71 L19.719,18.22 C19.009,20.34 18.079,21.64 16.779,22.29 C16.149,22.6 15.459,22.75 14.679,22.75 Z M5.729,18.36 C6.209,18.68 6.849,18.99 7.719,19.28 L12.229,20.78 C13.949,21.35 15.179,21.4 16.099,20.95 C17.019,20.49 17.719,19.47 18.289,17.75 L19.789,13.24 C20.609,10.76 20.289,9.44 19.339,8.55 C19.319,8.8 19.279,9.06 19.239,9.34 L18.509,14.03 C17.829,18.33 15.609,19.94 11.309,19.28 L6.619,18.54 C6.309,18.48 6.009,18.42 5.729,18.36 Z"/>
  <path fill="#292D32" d="M8.24,9.72 C6.87,9.72 5.75,8.6 5.75,7.23 C5.75,5.86 6.87,4.74 8.24,4.74 C9.61,4.74 10.73,5.86 10.73,7.23 C10.73,8.6 9.61,9.72 8.24,9.72 Z M8.24,6.25 C7.7,6.25 7.25,6.69 7.25,7.24 C7.25,7.79 7.69,8.23 8.24,8.23 C8.78,8.23 9.23,7.79 9.23,7.24 C9.23,6.69 8.78,6.25 8.24,6.25 Z"/>
</svg>

