<svg xmlns="http://www.w3.org/2000/svg" width="24" height="24" viewBox="0 0 24 24">
  <defs/>
  <path fill="#292D32" d="M14.35,2 L9.65,2 C8.61,2 7.76,2.84 7.76,3.88 L7.76,4.82 C7.76,5.86 8.6,6.7 9.64,6.7 L14.35,6.7 C15.39,6.7 16.23,5.86 16.23,4.82 L16.23,3.88 C16.24,2.84 15.39,2 14.35,2 Z"/>
  <path fill="#292D32" d="M17.239,4.819 C17.239,6.409 15.939,7.709 14.349,7.709 L9.649,7.709 C8.059,7.709 6.759,6.409 6.759,4.819 C6.759,4.259 6.159,3.909 5.659,4.169 C4.249,4.919 3.289,6.409 3.289,8.119 L3.289,17.529 C3.289,19.989 5.299,22 7.759,22 L16.239,22 C18.699,22 20.709,19.989 20.709,17.529 L20.709,8.119 C20.709,6.409 19.749,4.919 18.339,4.169 C17.839,3.909 17.239,4.259 17.239,4.819 Z M15.749,17 C15.749,17.41 15.409,17.75 14.999,17.75 L11.999,17.75 C11.589,17.75 11.249,17.41 11.249,17 C11.249,16.59 11.589,16.25 11.999,16.25 L13.189,16.25 L8.469,11.53 C8.179,11.239 8.179,10.759 8.469,10.47 C8.759,10.18 9.239,10.18 9.529,10.47 L14.249,15.19 L14.249,13.999 C14.249,13.589 14.589,13.249 14.999,13.249 C15.409,13.249 15.749,13.589 15.749,13.999 L15.749,17 Z"/>
</svg>

