<svg xmlns="http://www.w3.org/2000/svg" width="24" height="24" viewBox="0 0 24 24">
  <defs/>
  <path fill="#292D32" d="M14.35,2 L9.65,2 C8.61,2 7.76,2.84 7.76,3.88 L7.76,4.82 C7.76,5.86 8.6,6.7 9.64,6.7 L14.35,6.7 C15.39,6.7 16.23,5.86 16.23,4.82 L16.23,3.88 C16.24,2.84 15.39,2 14.35,2 Z"/>
  <path fill="#292D32" d="M17.239,4.819 C17.239,6.409 15.939,7.709 14.349,7.709 L9.649,7.709 C8.059,7.709 6.759,6.409 6.759,4.819 C6.759,4.259 6.159,3.909 5.659,4.169 C4.249,4.919 3.289,6.409 3.289,8.119 L3.289,17.529 C3.289,19.989 5.299,22 7.759,22 L16.239,22 C18.699,22 20.709,19.989 20.709,17.529 L20.709,8.119 C20.709,6.409 19.749,4.919 18.339,4.169 C17.839,3.909 17.239,4.259 17.239,4.819 Z M14.529,16.689 C14.379,16.84 14.189,16.91 13.999,16.91 C13.809,16.91 13.619,16.84 13.469,16.689 L12.019,15.239 L10.529,16.73 C10.379,16.88 10.189,16.95 9.999,16.95 C9.809,16.95 9.619,16.88 9.469,16.73 C9.179,16.439 9.179,15.96 9.469,15.669 L10.959,14.18 L9.509,12.729 C9.219,12.44 9.219,11.96 9.509,11.669 C9.799,11.38 10.279,11.38 10.569,11.669 L12.019,13.12 L13.419,11.72 C13.709,11.43 14.189,11.43 14.479,11.72 C14.769,12.009 14.769,12.489 14.479,12.78 L13.079,14.18 L14.529,15.63 C14.819,15.919 14.819,16.39 14.529,16.689 Z"/>
</svg>

