<svg xmlns="http://www.w3.org/2000/svg" width="24" height="24" viewBox="0 0 24 24">
  <defs/>
  <path fill="#292D32" opacity="0.4" d="M16.239,3.65 L7.759,3.65 C5.289,3.65 3.289,5.66 3.289,8.12 L3.289,17.53 C3.289,19.99 5.299,22 7.759,22 L16.229,22 C18.699,22 20.699,19.99 20.699,17.53 L20.699,8.12 C20.709,5.65 18.699,3.65 16.239,3.65 Z"/>
  <path fill="#292D32" d="M14.35,2 L9.65,2 C8.61,2 7.76,2.84 7.76,3.88 L7.76,4.82 C7.76,5.86 8.6,6.7 9.64,6.7 L14.35,6.7 C15.39,6.7 16.23,5.86 16.23,4.82 L16.23,3.88 C16.24,2.84 15.39,2 14.35,2 Z"/>
  <path fill="#292D32" d="M15.53,16.47 L10.81,11.75 L12,11.75 C12.41,11.75 12.75,11.41 12.75,11 C12.75,10.59 12.41,10.25 12,10.25 L9,10.25 C8.59,10.25 8.25,10.59 8.25,11 L8.25,14 C8.25,14.41 8.59,14.75 9,14.75 C9.41,14.75 9.75,14.41 9.75,14 L9.75,12.81 L14.47,17.53 C14.62,17.68 14.81,17.75 15,17.75 C15.19,17.75 15.38,17.68 15.53,17.53 C15.82,17.24 15.82,16.76 15.53,16.47 Z"/>
</svg>

