<svg xmlns="http://www.w3.org/2000/svg" width="24" height="24" viewBox="0 0 24 24">
  <defs/>
  <path fill="#292D32" d="M14.35,2 L9.65,2 C8.61,2 7.76,2.84 7.76,3.88 L7.76,4.82 C7.76,5.86 8.6,6.7 9.64,6.7 L14.35,6.7 C15.39,6.7 16.23,5.86 16.23,4.82 L16.23,3.88 C16.24,2.84 15.39,2 14.35,2 Z"/>
  <path fill="#292D32" d="M17.239,4.819 C17.239,6.409 15.939,7.709 14.349,7.709 L9.649,7.709 C8.059,7.709 6.759,6.409 6.759,4.819 C6.759,4.259 6.159,3.909 5.659,4.169 C4.249,4.919 3.289,6.409 3.289,8.119 L3.289,17.529 C3.289,19.989 5.299,22 7.759,22 L16.239,22 C18.699,22 20.709,19.989 20.709,17.529 L20.709,8.119 C20.709,6.409 19.749,4.919 18.339,4.169 C17.839,3.909 17.239,4.259 17.239,4.819 Z M15.529,17.529 C15.379,17.68 15.189,17.75 14.999,17.75 C14.809,17.75 14.619,17.68 14.469,17.529 L9.749,12.809 L9.749,13.999 C9.749,14.409 9.409,14.749 8.999,14.749 C8.589,14.749 8.249,14.409 8.249,13.999 L8.249,10.999 C8.249,10.589 8.589,10.249 8.999,10.249 L11.999,10.249 C12.409,10.249 12.749,10.589 12.749,10.999 C12.749,11.409 12.409,11.749 11.999,11.749 L10.809,11.749 L15.529,16.47 C15.819,16.759 15.819,17.239 15.529,17.529 Z"/>
</svg>

