<svg xmlns="http://www.w3.org/2000/svg" width="24" height="24" viewBox="0 0 24 24">
  <defs/>
  <path fill="#292D32" opacity="0.4" d="M16.239,3.65 L7.759,3.65 C5.289,3.65 3.289,5.66 3.289,8.12 L3.289,17.53 C3.289,19.99 5.299,22 7.759,22 L16.229,22 C18.699,22 20.699,19.99 20.699,17.53 L20.699,8.12 C20.709,5.65 18.699,3.65 16.239,3.65 Z"/>
  <path fill="#292D32" d="M14.35,2 L9.65,2 C8.61,2 7.76,2.84 7.76,3.88 L7.76,4.82 C7.76,5.86 8.6,6.7 9.64,6.7 L14.35,6.7 C15.39,6.7 16.23,5.86 16.23,4.82 L16.23,3.88 C16.24,2.84 15.39,2 14.35,2 Z"/>
  <path fill="#292D32" d="M15,12.95 L8,12.95 C7.59,12.95 7.25,12.61 7.25,12.2 C7.25,11.79 7.59,11.45 8,11.45 L15,11.45 C15.41,11.45 15.75,11.79 15.75,12.2 C15.75,12.61 15.41,12.95 15,12.95 Z"/>
  <path fill="#292D32" d="M12.38,16.95 L8,16.95 C7.59,16.95 7.25,16.61 7.25,16.2 C7.25,15.79 7.59,15.45 8,15.45 L12.38,15.45 C12.79,15.45 13.13,15.79 13.13,16.2 C13.13,16.61 12.79,16.95 12.38,16.95 Z"/>
</svg>

