<svg xmlns="http://www.w3.org/2000/svg" width="24" height="24" viewBox="0 0 24 24">
  <defs/>
  <path fill="#292D32" d="M14.006,2.139 Q19.162,2.944 19.379,7.111 Q19.441,8.053 19.241,9.335 L18.511,14.025 Q17.526,20.24 11.314,19.271 L6.623,18.531 Q4.417,18.188 3.156,17.291 Q0.714,15.591 1.379,11.334 L2.119,6.643 Q3.104,0.43 9.316,1.399 Q9.623,1.447 9.806,1.698 Q9.989,1.949 9.941,2.256 Q9.893,2.562 9.642,2.746 Q9.391,2.929 9.084,2.881 Q4.352,2.143 3.601,6.877 L2.861,11.566 Q2.341,14.896 4.024,16.069 Q4.997,16.76 6.857,17.049 L11.546,17.789 Q16.278,18.527 17.029,13.795 L17.759,9.104 Q17.933,7.986 17.881,7.189 Q17.728,4.238 13.774,3.621 Q13.467,3.573 13.284,3.322 Q13.101,3.071 13.149,2.764 Q13.197,2.457 13.448,2.274 Q13.699,2.091 14.006,2.139 Z"/>
  <path fill="#292D32" d="M21.211,13.707 L19.711,18.217 Q18.676,21.331 16.772,22.284 Q14.868,23.237 11.753,22.202 L7.243,20.702 Q3.477,19.457 2.86,16.853 Q2.788,16.55 2.952,16.286 Q3.115,16.022 3.417,15.95 Q3.747,15.872 4.024,16.069 Q4.997,16.76 6.855,17.049 L11.547,17.789 Q16.278,18.527 17.029,13.792 L17.759,9.105 Q17.933,7.986 17.881,7.199 Q17.861,6.889 18.066,6.655 Q18.271,6.422 18.581,6.402 Q18.793,6.388 18.982,6.488 Q22.916,8.578 21.211,13.707 Z M19.788,13.233 Q20.799,10.191 19.336,8.608 Q19.3,8.957 19.241,9.335 L18.511,14.027 Q17.525,20.24 11.313,19.271 L6.625,18.531 Q6.165,18.46 5.747,18.364 Q6.528,18.886 7.717,19.278 L12.226,20.778 Q16.776,22.291 18.288,17.743 Z"/>
  <path fill="#292D32" d="M8.24,9.73 Q5.75,9.73 5.75,7.24 Q5.75,4.75 8.24,4.75 Q9.271,4.75 10.001,5.479 Q10.73,6.209 10.73,7.24 Q10.73,8.271 10.001,9.001 Q9.271,9.73 8.24,9.73 Z M8.24,8.23 Q9.23,8.23 9.23,7.24 Q9.23,6.83 8.94,6.54 Q8.65,6.25 8.24,6.25 Q7.25,6.25 7.25,7.24 Q7.25,8.23 8.24,8.23 Z"/>
</svg>

