<svg xmlns="http://www.w3.org/2000/svg" width="24" height="24" viewBox="0 0 24 24">
  <defs/>
  <path fill="#292D32" d="M13.89,2.878 L9.2,2.138 C5.29,1.528 3.48,2.848 2.86,6.758 L2.12,11.448 C1.72,14.008 2.14,15.668 3.59,16.678 C4.35,17.218 5.39,17.578 6.74,17.788 L11.43,18.528 C15.34,19.138 17.15,17.818 17.77,13.908 L18.5,9.218 C18.62,8.448 18.67,7.758 18.63,7.148 C18.5,4.648 17.03,3.368 13.89,2.878 Z M8.24,9.348 C7.07,9.348 6.12,8.398 6.12,7.238 C6.12,6.068 7.07,5.118 8.24,5.118 C9.4,5.118 10.35,6.068 10.35,7.238 C10.35,8.398 9.4,9.348 8.24,9.348 Z"/>
  <path fill="#292D32" d="M20.501,13.469 L19.001,17.979 C17.751,21.739 15.751,22.739 11.991,21.489 L7.481,19.989 C6.071,19.519 5.051,18.939 4.391,18.209 C5.021,18.459 5.751,18.649 6.581,18.779 L11.281,19.519 C11.921,19.619 12.521,19.669 13.081,19.669 C16.381,19.669 18.151,17.889 18.761,14.059 L19.491,9.369 C19.591,8.789 19.631,8.279 19.631,7.809 C21.151,9.059 21.371,10.839 20.501,13.469 Z"/>
</svg>

