<svg xmlns="http://www.w3.org/2000/svg" width="24" height="24" viewBox="0 0 24 24">
  <defs/>
  <path fill="#292D32" opacity="0.4" d="M16.239,3.65 L7.759,3.65 C5.289,3.65 3.289,5.66 3.289,8.12 L3.289,17.53 C3.289,19.99 5.299,22 7.759,22 L16.229,22 C18.699,22 20.699,19.99 20.699,17.53 L20.699,8.12 C20.709,5.65 18.699,3.65 16.239,3.65 Z"/>
  <path fill="#292D32" d="M14.35,2 L9.65,2 C8.61,2 7.76,2.84 7.76,3.88 L7.76,4.82 C7.76,5.86 8.6,6.7 9.64,6.7 L14.35,6.7 C15.39,6.7 16.23,5.86 16.23,4.82 L16.23,3.88 C16.24,2.84 15.39,2 14.35,2 Z"/>
  <path fill="#292D32" d="M10.81,16.95 C10.62,16.95 10.43,16.88 10.28,16.73 L8.78,15.23 C8.49,14.94 8.49,14.46 8.78,14.17 C9.07,13.88 9.55,13.88 9.84,14.17 L10.81,15.14 L14.28,11.67 C14.57,11.38 15.05,11.38 15.34,11.67 C15.63,11.96 15.63,12.44 15.34,12.73 L11.34,16.73 C11.2,16.88 11,16.95 10.81,16.95 Z"/>
</svg>

