<svg xmlns="http://www.w3.org/2000/svg" width="24" height="24" viewBox="0 0 24 24">
  <defs/>
  <path fill="#292D32" d="M10,6.75 Q8.773,6.75 8.209,6.374 Q7.25,5.735 7.25,4 Q7.25,1.25 10,1.25 L14,1.25 Q16.75,1.25 16.75,4 Q16.75,6.75 14,6.75 Z M10,5.25 L14,5.25 Q15.25,5.25 15.25,4 Q15.25,2.75 14,2.75 L10,2.75 Q9.227,2.75 9.041,2.874 Q8.75,3.068 8.75,4 Q8.75,5.25 10,5.25 Z"/>
  <path fill="#292D32" d="M14,22.75 L9,22.75 Q2.25,22.75 2.25,16 L2.25,10 Q2.25,3.58 7.96,3.271 Q8.27,3.254 8.501,3.462 Q8.732,3.669 8.749,3.98 Q8.766,4.29 8.558,4.521 Q8.351,4.752 8.04,4.769 Q3.75,5.001 3.75,10 L3.75,16 Q3.75,18.932 4.689,20.006 Q5.778,21.25 9,21.25 L14,21.25 Q14.311,21.25 14.53,21.47 Q14.75,21.689 14.75,22 Q14.75,22.311 14.53,22.53 Q14.311,22.75 14,22.75 Z"/>
  <path fill="#292D32" d="M16.04,3.271 Q21.75,3.58 21.75,10 L21.75,15 Q21.75,15.311 21.53,15.53 Q21.311,15.75 21,15.75 Q20.689,15.75 20.47,15.53 Q20.25,15.311 20.25,15 L20.25,10 Q20.25,5.001 15.96,4.769 Q15.649,4.752 15.442,4.521 Q15.234,4.29 15.251,3.98 Q15.268,3.669 15.499,3.462 Q15.73,3.254 16.04,3.271 Z"/>
  <path fill="#292D32" d="M21.75,19 L21.75,22 Q21.75,22.311 21.53,22.53 Q21.311,22.75 21,22.75 L18,22.75 Q17.689,22.75 17.47,22.53 Q17.25,22.311 17.25,22 Q17.25,21.689 17.47,21.47 Q17.689,21.25 18,21.25 L20.25,21.25 L20.25,19 Q20.25,18.689 20.47,18.47 Q20.689,18.25 21,18.25 Q21.311,18.25 21.53,18.47 Q21.75,18.689 21.75,19 Z"/>
  <path fill="#292D32" d="M15.53,15.47 L21.49,21.43 Q21.71,21.649 21.71,21.96 Q21.71,22.271 21.49,22.49 Q21.271,22.71 20.96,22.71 Q20.649,22.71 20.43,22.49 L14.47,16.53 Q14.25,16.311 14.25,16 Q14.25,15.689 14.47,15.47 Q14.689,15.25 15,15.25 Q15.311,15.25 15.53,15.47 Z"/>
</svg>

