<svg xmlns="http://www.w3.org/2000/svg" width="24" height="24" viewBox="0 0 24 24">
  <defs/>
  <path fill="#292D32" d="M14.35,2 L9.65,2 C8.61,2 7.76,2.84 7.76,3.88 L7.76,4.82 C7.76,5.86 8.6,6.7 9.64,6.7 L14.35,6.7 C15.39,6.7 16.23,5.86 16.23,4.82 L16.23,3.88 C16.24,2.84 15.39,2 14.35,2 Z"/>
  <path fill="#292D32" d="M17.239,4.819 C17.239,6.409 15.939,7.709 14.349,7.709 L9.649,7.709 C8.059,7.709 6.759,6.409 6.759,4.819 C6.759,4.259 6.159,3.909 5.659,4.169 C4.249,4.919 3.289,6.409 3.289,8.119 L3.289,17.529 C3.289,19.989 5.299,22 7.759,22 L16.239,22 C18.699,22 20.709,19.989 20.709,17.529 L20.709,8.119 C20.709,6.409 19.749,4.919 18.339,4.169 C17.839,3.909 17.239,4.259 17.239,4.819 Z M15.339,12.729 L11.339,16.73 C11.189,16.88 10.999,16.95 10.809,16.95 C10.619,16.95 10.429,16.88 10.279,16.73 L8.779,15.229 C8.489,14.94 8.489,14.46 8.779,14.169 C9.069,13.88 9.549,13.88 9.839,14.169 L10.809,15.139 L14.279,11.669 C14.569,11.38 15.049,11.38 15.339,11.669 C15.629,11.96 15.629,12.44 15.339,12.729 Z"/>
</svg>

