<svg xmlns="http://www.w3.org/2000/svg" width="24" height="24" viewBox="0 0 24 24">
  <defs/>
  <path fill="#292D32" d="M14.35,2 L9.65,2 C8.61,2 7.76,2.84 7.76,3.88 L7.76,4.82 C7.76,5.86 8.6,6.7 9.64,6.7 L14.35,6.7 C15.39,6.7 16.23,5.86 16.23,4.82 L16.23,3.88 C16.24,2.84 15.39,2 14.35,2 Z"/>
  <path fill="#292D32" d="M17.239,4.819 C17.239,6.409 15.939,7.709 14.349,7.709 L9.649,7.709 C8.059,7.709 6.759,6.409 6.759,4.819 C6.759,4.259 6.159,3.909 5.659,4.169 C4.249,4.919 3.289,6.409 3.289,8.119 L3.289,17.529 C3.289,19.989 5.299,22 7.759,22 L16.239,22 C18.699,22 20.709,19.989 20.709,17.529 L20.709,8.119 C20.709,6.409 19.749,4.919 18.339,4.169 C17.839,3.909 17.239,4.259 17.239,4.819 Z M12.379,16.95 L7.999,16.95 C7.589,16.95 7.249,16.61 7.249,16.2 C7.249,15.79 7.589,15.45 7.999,15.45 L12.379,15.45 C12.789,15.45 13.129,15.79 13.129,16.2 C13.129,16.61 12.789,16.95 12.379,16.95 Z M14.999,12.95 L7.999,12.95 C7.589,12.95 7.249,12.61 7.249,12.2 C7.249,11.79 7.589,11.45 7.999,11.45 L14.999,11.45 C15.409,11.45 15.749,11.79 15.749,12.2 C15.749,12.61 15.409,12.95 14.999,12.95 Z"/>
</svg>

