<svg xmlns="http://www.w3.org/2000/svg" width="24" height="24" viewBox="0 0 24 24">
  <defs/>
  <path fill="#292D32" opacity="0.4" d="M16.239,3.65 L7.759,3.65 C5.289,3.65 3.289,5.66 3.289,8.12 L3.289,17.53 C3.289,19.99 5.299,22 7.759,22 L16.229,22 C18.699,22 20.699,19.99 20.699,17.53 L20.699,8.12 C20.709,5.65 18.699,3.65 16.239,3.65 Z"/>
  <path fill="#292D32" d="M14.35,2 L9.65,2 C8.61,2 7.76,2.84 7.76,3.88 L7.76,4.82 C7.76,5.86 8.6,6.7 9.64,6.7 L14.35,6.7 C15.39,6.7 16.23,5.86 16.23,4.82 L16.23,3.88 C16.24,2.84 15.39,2 14.35,2 Z"/>
  <path fill="#292D32" d="M14.999,13.25 C14.589,13.25 14.249,13.59 14.249,14 L14.249,15.19 L9.529,10.47 C9.239,10.18 8.759,10.18 8.469,10.47 C8.179,10.76 8.179,11.24 8.469,11.53 L13.19,16.25 L11.999,16.25 C11.589,16.25 11.249,16.59 11.249,17 C11.249,17.41 11.589,17.75 11.999,17.75 L14.999,17.75 C15.409,17.75 15.749,17.41 15.749,17 L15.749,14 C15.749,13.59 15.409,13.25 14.999,13.25 Z"/>
</svg>

