<svg xmlns="http://www.w3.org/2000/svg" width="24" height="24" viewBox="0 0 24 24">
  <defs/>
  <path fill="#292D32" d="M2.25,10 Q2.25,3.58 7.96,3.271 Q8.27,3.254 8.501,3.462 Q8.732,3.669 8.749,3.98 Q8.766,4.29 8.558,4.521 Q8.351,4.752 8.04,4.769 Q3.75,5.001 3.75,10 Q3.75,10.311 3.53,10.53 Q3.311,10.75 3,10.75 Q2.689,10.75 2.47,10.53 Q2.25,10.311 2.25,10 Z"/>
  <path fill="#292D32" d="M14,22.75 L9,22.75 Q2.25,22.75 2.25,16 L2.25,14 Q2.25,13.689 2.47,13.47 Q2.689,13.25 3,13.25 Q3.311,13.25 3.53,13.47 Q3.75,13.689 3.75,14 L3.75,16 Q3.75,18.932 4.689,20.006 Q5.778,21.25 9,21.25 L14,21.25 Q14.311,21.25 14.53,21.47 Q14.75,21.689 14.75,22 Q14.75,22.311 14.53,22.53 Q14.311,22.75 14,22.75 Z"/>
  <path fill="#292D32" d="M16.04,3.271 Q21.75,3.58 21.75,10 L21.75,15 Q21.75,15.311 21.53,15.53 Q21.311,15.75 21,15.75 Q20.689,15.75 20.47,15.53 Q20.25,15.311 20.25,15 L20.25,10 Q20.25,5.001 15.96,4.769 Q15.649,4.752 15.442,4.521 Q15.234,4.29 15.251,3.98 Q15.268,3.669 15.499,3.462 Q15.73,3.254 16.04,3.271 Z"/>
  <path fill="#292D32" d="M10.999,2.75 L10.039,2.75 Q9.266,2.75 9.08,2.874 Q8.789,3.068 8.789,4 Q8.789,5.25 10.039,5.25 L14.039,5.25 Q15.289,5.25 15.289,4 Q15.289,3.068 14.998,2.874 Q14.812,2.75 14.039,2.75 Q13.728,2.75 13.509,2.53 Q13.289,2.311 13.289,2 Q13.289,1.689 13.509,1.47 Q13.728,1.25 14.039,1.25 Q16.789,1.25 16.789,4 Q16.789,6.75 14.039,6.75 L10.039,6.75 Q7.289,6.75 7.289,4 Q7.289,2.265 8.248,1.626 Q8.812,1.25 10.039,1.25 L10.999,1.25 Q11.31,1.25 11.529,1.47 Q11.749,1.689 11.749,2 Q11.749,2.311 11.529,2.53 Q11.31,2.75 10.999,2.75 Z"/>
  <path fill="#292D32" d="M14.25,19 L14.25,16 Q14.25,15.689 14.47,15.47 Q14.689,15.25 15,15.25 L18,15.25 Q18.311,15.25 18.53,15.47 Q18.75,15.689 18.75,16 Q18.75,16.311 18.53,16.53 Q18.311,16.75 18,16.75 L15.75,16.75 L15.75,19 Q15.75,19.311 15.53,19.53 Q15.311,19.75 15,19.75 Q14.689,19.75 14.47,19.53 Q14.25,19.311 14.25,19 Z"/>
  <path fill="#292D32" d="M20.469,22.53 L14.509,16.57 Q14.289,16.351 14.289,16.04 Q14.289,15.729 14.509,15.51 Q14.728,15.29 15.039,15.29 Q15.35,15.29 15.569,15.51 L21.529,21.47 Q21.749,21.689 21.749,22 Q21.749,22.311 21.529,22.53 Q21.31,22.75 20.999,22.75 Q20.688,22.75 20.469,22.53 Z"/>
</svg>

