<svg xmlns="http://www.w3.org/2000/svg" width="24" height="24" viewBox="0 0 24 24">
  <defs/>
  <path fill="#292D32" d="M14,6.75 L10,6.75 C9.04,6.75 7.25,6.75 7.25,4 C7.25,1.25 9.04,1.25 10,1.25 L14,1.25 C14.96,1.25 16.75,1.25 16.75,4 C16.75,4.96 16.75,6.75 14,6.75 Z M10,2.75 C9.01,2.75 8.75,2.75 8.75,4 C8.75,5.25 9.01,5.25 10,5.25 L14,5.25 C15.25,5.25 15.25,4.99 15.25,4 C15.25,2.75 14.99,2.75 14,2.75 L10,2.75 Z"/>
  <path fill="#292D32" d="M14,22.75 L9,22.75 C3.38,22.75 2.25,20.17 2.25,16 L2.25,10 C2.25,5.44 3.9,3.49 7.96,3.28 C8.36,3.26 8.73,3.57 8.75,3.99 C8.77,4.41 8.45,4.75 8.04,4.77 C5.2,4.93 3.75,5.78 3.75,10 L3.75,16 C3.75,19.7 4.48,21.25 9,21.25 L14,21.25 C14.41,21.25 14.75,21.59 14.75,22 C14.75,22.41 14.41,22.75 14,22.75 Z"/>
  <path fill="#292D32" d="M21.001,15.75 C20.591,15.75 20.251,15.41 20.251,15 L20.251,10 C20.251,5.78 18.801,4.93 15.961,4.77 C15.551,4.75 15.231,4.39 15.251,3.98 C15.271,3.57 15.641,3.25 16.041,3.27 C20.101,3.49 21.751,5.44 21.751,9.99 L21.751,14.99 C21.751,15.41 21.411,15.75 21.001,15.75 Z"/>
  <path fill="#292D32" d="M21,22.75 L18,22.75 C17.59,22.75 17.25,22.41 17.25,22 C17.25,21.59 17.59,21.25 18,21.25 L20.25,21.25 L20.25,19 C20.25,18.59 20.59,18.25 21,18.25 C21.41,18.25 21.75,18.59 21.75,19 L21.75,22 C21.75,22.41 21.41,22.75 21,22.75 Z"/>
  <path fill="#292D32" d="M20.959,22.71 C20.77,22.71 20.579,22.64 20.43,22.49 L14.47,16.53 C14.18,16.24 14.18,15.76 14.47,15.47 C14.759,15.18 15.239,15.18 15.53,15.47 L21.489,21.43 C21.779,21.72 21.779,22.2 21.489,22.49 C21.34,22.63 21.149,22.71 20.959,22.71 Z"/>
</svg>

