<svg xmlns="http://www.w3.org/2000/svg" width="24" height="24" viewBox="0 0 24 24">
  <defs/>
  <path fill="#292D32" opacity="0.4" d="M5.5,12 C5.5,8.41 8.41,5.5 12,5.5 C15.59,5.5 18.5,8.41 18.5,12 C18.5,14.08 17.52,15.94 16,17.13 L15.99,17.13 C14.89,17.99 13.51,18.5 12,18.5 C10.51,18.5 9.14,18 8.04,17.15 L8.03,17.15 C6.49,15.96 5.5,14.1 5.5,12 Z"/>
  <path fill="#292D32" d="M8.029,17.15 L8.039,17.15 C9.139,18 10.509,18.5 11.999,18.5 C13.509,18.5 14.889,17.99 15.989,17.13 L15.999,17.13 L15.489,19.6 C14.999,21.5 13.899,22 12.549,22 L11.459,22 C10.109,22 8.999,21.5 8.519,19.59 L8.029,17.15 Z"/>
  <path fill="#292D32" d="M8.029,6.85 L8.039,6.85 C9.139,6 10.509,5.5 11.999,5.5 C13.509,5.5 14.889,6.01 15.989,6.87 L15.999,6.87 L15.489,4.4 C14.999,2.5 13.899,2 12.549,2 L11.459,2 C10.109,2 8.999,2.5 8.519,4.41 L8.029,6.85 Z"/>
  <path fill="#292D32" d="M13.4,14.6 C13.21,14.6 13.02,14.53 12.87,14.38 L11.47,12.98 C11.33,12.84 11.25,12.65 11.25,12.45 L11.25,9.66 C11.25,9.25 11.59,8.91 12,8.91 C12.41,8.91 12.75,9.25 12.75,9.66 L12.75,12.14 L13.93,13.32 C14.22,13.61 14.22,14.09 13.93,14.38 C13.78,14.53 13.59,14.6 13.4,14.6 Z"/>
</svg>

