<svg xmlns="http://www.w3.org/2000/svg" width="24" height="24" viewBox="0 0 24 24">
  <defs/>
  <path fill="#292D32" d="M12,2 C6.49,2 2,6.49 2,12 C2,17.51 6.49,22 12,22 C17.51,22 22,17.51 22,12 C22,6.49 17.51,2 12,2 Z M16.35,15.57 C16.21,15.81 15.96,15.94 15.7,15.94 C15.57,15.94 15.44,15.91 15.32,15.83 L12.22,13.98 C11.45,13.52 10.88,12.51 10.88,11.62 L10.88,7.52 C10.88,7.11 11.22,6.77 11.63,6.77 C12.04,6.77 12.38,7.11 12.38,7.52 L12.38,11.62 C12.38,11.98 12.68,12.51 12.99,12.69 L16.09,14.54 C16.45,14.75 16.57,15.21 16.35,15.57 Z"/>
</svg>

