<svg xmlns="http://www.w3.org/2000/svg" width="24" height="24" viewBox="0 0 24 24">
  <defs/>
  <path fill="#292D32" d="M13.4,14.6 C13.21,14.6 13.02,14.53 12.87,14.38 L11.47,12.98 C11.33,12.84 11.25,12.65 11.25,12.45 L11.25,9.66 C11.25,9.25 11.59,8.91 12,8.91 C12.41,8.91 12.75,9.25 12.75,9.66 L12.75,12.14 L13.93,13.32 C14.22,13.61 14.22,14.09 13.93,14.38 C13.78,14.53 13.59,14.6 13.4,14.6 Z"/>
  <path fill="#292D32" d="M12,19.25 C10.41,19.25 8.91,18.75 7.65,17.8 C7.62,17.78 7.6,17.77 7.57,17.75 C5.78,16.36 4.75,14.26 4.75,12 C4.75,8 8,4.75 12,4.75 C16,4.75 19.25,8 19.25,12 C19.25,14.25 18.23,16.33 16.46,17.72 C16.43,17.74 16.41,17.76 16.38,17.78 C15.11,18.74 13.6,19.25 12,19.25 Z M8.43,16.51 C8.46,16.53 8.48,16.54 8.5,16.56 C10.53,18.13 13.51,18.12 15.53,16.54 C15.55,16.52 15.58,16.5 15.6,16.49 C16.97,15.39 17.75,13.76 17.75,12 C17.75,8.83 15.17,6.25 12,6.25 C8.83,6.25 6.25,8.83 6.25,12 C6.25,13.77 7.04,15.41 8.43,16.51 Z"/>
  <path fill="#292D32" d="M12.55,22.75 L11.46,22.75 C9.5,22.75 8.3,21.78 7.79,19.77 L7.29,17.3 C7.25,17.08 7.3,16.85 7.45,16.68 C7.6,16.51 7.81,16.41 8.03,16.41 L8.04,16.41 C8.21,16.41 8.37,16.46 8.5,16.57 C10.53,18.14 13.51,18.13 15.53,16.55 C15.84,16.31 16.33,16.36 16.58,16.67 C16.72,16.84 16.78,17.07 16.74,17.29 L16.23,19.76 C15.7,21.78 14.5,22.75 12.55,22.75 Z M9.09,18.64 L9.25,19.44 C9.63,20.94 10.41,21.25 11.46,21.25 L12.55,21.25 C13.59,21.25 14.37,20.94 14.76,19.42 L14.92,18.64 C13.11,19.44 10.91,19.45 9.09,18.64 Z"/>
  <path fill="#292D32" d="M16,7.62 C15.83,7.62 15.66,7.56 15.53,7.46 C13.51,5.88 10.53,5.87 8.5,7.44 C8.19,7.68 7.7,7.63 7.46,7.33 C7.32,7.16 7.26,6.93 7.3,6.71 L7.79,4.27 C8.3,2.22 9.5,1.25 11.46,1.25 L12.55,1.25 C14.5,1.25 15.7,2.22 16.21,4.21 L16.73,6.72 C16.78,6.94 16.72,7.17 16.58,7.34 C16.44,7.52 16.23,7.62 16,7.62 Z M12,4.75 C13.03,4.75 14.01,4.96 14.92,5.36 L14.75,4.55 C14.36,3.07 13.59,2.75 12.55,2.75 L11.46,2.75 C10.41,2.75 9.63,3.06 9.25,4.6 L9.09,5.36 C10,4.96 10.98,4.75 12,4.75 Z"/>
</svg>

