<svg xmlns="http://www.w3.org/2000/svg" width="24" height="24" viewBox="0 0 24 24">
  <defs/>
  <path fill="#292D32" d="M14.718,18.997 C15.116,18.842 15.576,19.181 15.491,19.599 C15.001,21.5 13.9,22 12.55,22 L11.46,22 C10.111,22 9.001,21.5 8.521,19.59 C8.438,19.171 8.896,18.834 9.293,18.99 C10.148,19.325 11.061,19.5 12.001,19.5 C12.944,19.5 13.862,19.331 14.718,18.997 Z"/>
  <path fill="#292D32" d="M15.491,4.4 C15.579,4.823 15.113,5.167 14.711,5.009 C13.874,4.679 12.96,4.5 12.001,4.5 C11.043,4.5 10.131,4.681 9.292,5.011 C8.895,5.168 8.435,4.829 8.521,4.41 C9.001,2.5 10.111,2 11.461,2 L12.551,2 C13.901,2 15.001,2.5 15.491,4.4 Z"/>
  <path fill="#292D32" d="M12,5.5 C8.41,5.5 5.5,8.41 5.5,12 C5.5,14.1 6.49,15.96 8.03,17.15 L8.04,17.15 C9.14,18 10.51,18.5 12,18.5 C13.51,18.5 14.89,17.99 15.99,17.13 L16,17.13 C17.52,15.94 18.5,14.08 18.5,12 C18.5,8.41 15.59,5.5 12,5.5 Z M13.93,14.38 C13.78,14.53 13.59,14.6 13.4,14.6 C13.21,14.6 13.02,14.53 12.87,14.38 L11.47,12.98 C11.33,12.84 11.25,12.65 11.25,12.45 L11.25,9.66 C11.25,9.25 11.59,8.91 12,8.91 C12.41,8.91 12.75,9.25 12.75,9.66 L12.75,12.14 L13.93,13.32 C14.22,13.61 14.22,14.09 13.93,14.38 Z"/>
</svg>

