<svg xmlns="http://www.w3.org/2000/svg" width="24" height="24" viewBox="0 0 24 24">
  <defs/>
  <path fill="#292D32" d="M12,22.75 C6.07,22.75 1.25,17.93 1.25,12 C1.25,6.07 6.07,1.25 12,1.25 C17.93,1.25 22.75,6.07 22.75,12 C22.75,17.93 17.93,22.75 12,22.75 Z M12,2.75 C6.9,2.75 2.75,6.9 2.75,12 C2.75,17.1 6.9,21.25 12,21.25 C17.1,21.25 21.25,17.1 21.25,12 C21.25,6.9 17.1,2.75 12,2.75 Z"/>
  <path fill="#292D32" d="M15.71,15.93 C15.58,15.93 15.45,15.9 15.33,15.82 L12.23,13.97 C11.46,13.51 10.89,12.5 10.89,11.61 L10.89,7.51 C10.89,7.1 11.23,6.76 11.64,6.76 C12.05,6.76 12.39,7.1 12.39,7.51 L12.39,11.61 C12.39,11.97 12.69,12.5 13,12.68 L16.1,14.53 C16.46,14.74 16.57,15.2 16.36,15.56 C16.21,15.8 15.96,15.93 15.71,15.93 Z"/>
</svg>

