<svg xmlns="http://www.w3.org/2000/svg" width="24" height="24" viewBox="0 0 24 24">
  <defs/>
  <path fill="#292D32" d="M8.64,14.3 L14.3,8.64 Q14.519,8.42 14.83,8.42 Q15.141,8.42 15.36,8.64 Q15.58,8.859 15.58,9.17 Q15.58,9.481 15.36,9.7 L9.7,15.36 Q9.481,15.58 9.17,15.58 Q8.859,15.58 8.64,15.36 Q8.42,15.141 8.42,14.83 Q8.42,14.519 8.64,14.3 Z"/>
  <path fill="#292D32" d="M14.3,15.36 L8.64,9.7 Q8.42,9.481 8.42,9.17 Q8.42,8.859 8.64,8.64 Q8.859,8.42 9.17,8.42 Q9.481,8.42 9.7,8.64 L15.36,14.3 Q15.58,14.519 15.58,14.83 Q15.58,15.141 15.36,15.36 Q15.141,15.58 14.83,15.58 Q14.519,15.58 14.3,15.36 Z"/>
  <path fill="#292D32" d="M9,22.75 Q1.25,22.75 1.25,15 L1.25,9 Q1.25,1.25 9,1.25 L15,1.25 Q22.75,1.25 22.75,9 L22.75,15 Q22.75,22.75 15,22.75 Z M9,21.25 L15,21.25 Q18.439,21.25 19.845,19.845 Q21.25,18.439 21.25,15 L21.25,9 Q21.25,2.75 15,2.75 L9,2.75 Q2.75,2.75 2.75,9 L2.75,15 Q2.75,18.439 4.155,19.845 Q5.561,21.25 9,21.25 Z"/>
</svg>

