<svg xmlns="http://www.w3.org/2000/svg" width="24" height="24" viewBox="0 0 24 24">
  <defs/>
  <path fill="#292D32" d="M13.46,9.48 L14.3,8.64 Q14.52,8.42 14.83,8.42 Q15.141,8.42 15.361,8.64 Q15.58,8.859 15.58,9.17 Q15.58,9.481 15.361,9.7 L14.521,10.54 Q14.301,10.76 13.99,10.76 Q13.68,10.76 13.46,10.54 Q13.24,10.321 13.24,10.01 Q13.24,9.699 13.46,9.48 Z"/>
  <path fill="#292D32" d="M8.64,14.3 L11.39,11.55 Q11.609,11.33 11.92,11.33 Q12.231,11.33 12.45,11.55 Q12.67,11.769 12.67,12.08 Q12.67,12.391 12.45,12.61 L9.7,15.36 Q9.481,15.58 9.17,15.58 Q8.859,15.58 8.64,15.36 Q8.42,15.141 8.42,14.83 Q8.42,14.519 8.64,14.3 Z"/>
  <path fill="#292D32" d="M14.3,15.36 L8.64,9.7 Q8.42,9.481 8.42,9.17 Q8.42,8.859 8.64,8.64 Q8.859,8.42 9.17,8.42 Q9.481,8.42 9.7,8.64 L15.36,14.3 Q15.58,14.519 15.58,14.83 Q15.58,15.141 15.36,15.36 Q15.141,15.58 14.83,15.58 Q14.519,15.58 14.3,15.36 Z"/>
  <path fill="#292D32" d="M2.75,12.96 L2.75,15 Q2.75,18.439 4.155,19.845 Q5.561,21.25 9,21.25 L15,21.25 Q18.439,21.25 19.845,19.845 Q21.25,18.439 21.25,15 L21.25,9 Q21.25,2.75 15,2.75 L9,2.75 Q2.75,2.75 2.75,9 Q2.75,9.311 2.53,9.53 Q2.311,9.75 2,9.75 Q1.689,9.75 1.47,9.53 Q1.25,9.311 1.25,9 Q1.25,1.25 9,1.25 L15,1.25 Q22.75,1.25 22.75,9 L22.75,15 Q22.75,22.75 15,22.75 L9,22.75 Q1.25,22.75 1.25,15 L1.25,12.96 Q1.25,12.649 1.47,12.43 Q1.689,12.21 2,12.21 Q2.311,12.21 2.53,12.43 Q2.75,12.649 2.75,12.96 Z"/>
</svg>

