<svg xmlns="http://www.w3.org/2000/svg" width="24" height="24" viewBox="0 0 24 24">
  <defs/>
  <path fill="#292D32" d="M12,2 C6.49,2 2,6.49 2,12 C2,17.51 6.49,22 12,22 C17.51,22 22,17.51 22,12 C22,6.49 17.51,2 12,2 Z M15.36,14.3 C15.65,14.59 15.65,15.07 15.36,15.36 C15.21,15.51 15.02,15.58 14.83,15.58 C14.64,15.58 14.45,15.51 14.3,15.36 L12,13.06 L9.7,15.36 C9.55,15.51 9.36,15.58 9.17,15.58 C8.98,15.58 8.79,15.51 8.64,15.36 C8.35,15.07 8.35,14.59 8.64,14.3 L10.94,12 L8.64,9.7 C8.35,9.41 8.35,8.93 8.64,8.64 C8.93,8.35 9.41,8.35 9.7,8.64 L12,10.94 L14.3,8.64 C14.59,8.35 15.07,8.35 15.36,8.64 C15.65,8.93 15.65,9.41 15.36,9.7 L13.06,12 L15.36,14.3 Z"/>
</svg>

