<svg xmlns="http://www.w3.org/2000/svg" width="24" height="24" viewBox="0 0 24 24">
  <defs/>
  <path fill="#292D32" d="M12,22.75 C6.07,22.75 1.25,17.93 1.25,12 C1.25,6.07 6.07,1.25 12,1.25 C17.93,1.25 22.75,6.07 22.75,12 C22.75,17.93 17.93,22.75 12,22.75 Z M12,2.75 C6.9,2.75 2.75,6.9 2.75,12 C2.75,17.1 6.9,21.25 12,21.25 C17.1,21.25 21.25,17.1 21.25,12 C21.25,6.9 17.1,2.75 12,2.75 Z"/>
  <path fill="#292D32" d="M9.169,15.58 C8.979,15.58 8.789,15.51 8.639,15.36 C8.349,15.07 8.349,14.59 8.639,14.3 L14.299,8.64 C14.589,8.35 15.069,8.35 15.359,8.64 C15.649,8.93 15.649,9.41 15.359,9.7 L9.699,15.36 C9.559,15.51 9.359,15.58 9.169,15.58 Z"/>
  <path fill="#292D32" d="M14.829,15.58 C14.639,15.58 14.449,15.51 14.299,15.36 L8.639,9.7 C8.349,9.41 8.349,8.93 8.639,8.64 C8.929,8.35 9.409,8.35 9.699,8.64 L15.359,14.3 C15.649,14.59 15.649,15.07 15.359,15.36 C15.209,15.51 15.019,15.58 14.829,15.58 Z"/>
</svg>

