<svg xmlns="http://www.w3.org/2000/svg" width="24" height="24" viewBox="0 0 24 24">
  <defs/>
  <path fill="#292D32" d="M13.46,9.48 L14.3,8.64 Q14.52,8.42 14.83,8.42 Q15.141,8.42 15.361,8.64 Q15.58,8.859 15.58,9.17 Q15.58,9.481 15.361,9.7 L14.521,10.54 Q14.301,10.76 13.99,10.76 Q13.68,10.76 13.46,10.54 Q13.24,10.321 13.24,10.01 Q13.24,9.699 13.46,9.48 Z"/>
  <path fill="#292D32" d="M8.64,14.3 L11.39,11.55 Q11.609,11.33 11.92,11.33 Q12.231,11.33 12.45,11.55 Q12.67,11.769 12.67,12.08 Q12.67,12.391 12.45,12.61 L9.7,15.36 Q9.481,15.58 9.17,15.58 Q8.859,15.58 8.64,15.36 Q8.42,15.141 8.42,14.83 Q8.42,14.519 8.64,14.3 Z"/>
  <path fill="#292D32" d="M14.3,15.36 L8.64,9.7 Q8.42,9.481 8.42,9.17 Q8.42,8.859 8.64,8.64 Q8.859,8.42 9.17,8.42 Q9.481,8.42 9.7,8.64 L15.36,14.3 Q15.58,14.519 15.58,14.83 Q15.58,15.141 15.36,15.36 Q15.141,15.58 14.83,15.58 Q14.519,15.58 14.3,15.36 Z"/>
  <path fill="#292D32" d="M4.6,6.449 Q2.75,8.922 2.75,12 Q2.75,15.829 5.46,18.54 Q8.171,21.25 12,21.25 Q15.829,21.25 18.54,18.54 Q21.25,15.829 21.25,12 Q21.25,8.171 18.54,5.46 Q15.829,2.75 12,2.75 Q10.031,2.75 8.276,3.535 Q7.993,3.661 7.702,3.551 Q7.412,3.44 7.285,3.156 Q7.159,2.873 7.269,2.582 Q7.38,2.292 7.664,2.165 Q9.711,1.25 12,1.25 Q16.451,1.25 19.6,4.4 Q22.75,7.549 22.75,12 Q22.75,16.451 19.6,19.6 Q16.451,22.75 12,22.75 Q7.549,22.75 4.4,19.6 Q1.25,16.451 1.25,12 Q1.25,8.422 3.4,5.551 Q3.586,5.302 3.893,5.258 Q4.201,5.213 4.449,5.4 Q4.698,5.586 4.742,5.893 Q4.787,6.201 4.6,6.449 Z"/>
</svg>

