<svg xmlns="http://www.w3.org/2000/svg" width="24" height="24" viewBox="0 0 24 24">
  <defs/>
  <path fill="#292D32" opacity="0.4" d="M12,22 C17.523,22 22,17.523 22,12 C22,6.477 17.523,2 12,2 C6.477,2 2,6.477 2,12 C2,17.523 6.477,22 12,22 Z"/>
  <path fill="#292D32" d="M13.059,12 L15.359,9.7 C15.649,9.41 15.649,8.93 15.359,8.64 C15.069,8.35 14.589,8.35 14.299,8.64 L11.999,10.94 L9.699,8.64 C9.409,8.35 8.929,8.35 8.639,8.64 C8.349,8.93 8.349,9.41 8.639,9.7 L10.939,12 L8.639,14.3 C8.349,14.59 8.349,15.07 8.639,15.36 C8.789,15.51 8.979,15.58 9.169,15.58 C9.359,15.58 9.549,15.51 9.699,15.36 L11.999,13.06 L14.299,15.36 C14.449,15.51 14.639,15.58 14.829,15.58 C15.019,15.58 15.209,15.51 15.359,15.36 C15.649,15.07 15.649,14.59 15.359,14.3 L13.059,12 Z"/>
</svg>

