<svg xmlns="http://www.w3.org/2000/svg" width="24" height="24" viewBox="0 0 24 24">
  <defs/>
  <path fill="#292D32" d="M16.679,20.83 C16.669,20.83 16.649,20.83 16.639,20.83 L5.549,20.83 C2.609,20.62 1.289,18.36 1.289,16.34 C1.289,14.54 2.339,12.54 4.629,11.99 C3.989,9.49 4.529,7.14 6.159,5.44 C8.009,3.5 10.979,2.73 13.529,3.52 C15.869,4.24 17.519,6.17 18.119,8.85 C20.169,9.31 21.799,10.86 22.459,13 C23.169,15.33 22.529,17.72 20.779,19.25 C19.659,20.26 18.199,20.83 16.679,20.83 Z M5.569,13.35 C5.559,13.35 5.559,13.35 5.549,13.35 C3.649,13.49 2.779,14.95 2.779,16.34 C2.779,17.73 3.649,19.19 5.589,19.33 L16.629,19.33 C17.789,19.31 18.899,18.91 19.759,18.13 C21.319,16.76 21.429,14.81 21.009,13.44 C20.589,12.06 19.419,10.5 17.379,10.24 C17.049,10.2 16.789,9.95 16.729,9.62 C16.329,7.22 15.029,5.56 13.079,4.96 C11.049,4.34 8.709,4.95 7.239,6.48 C5.909,7.87 5.529,9.79 6.149,11.9 C6.659,11.97 7.149,12.12 7.599,12.35 C7.969,12.54 8.119,12.99 7.929,13.36 C7.739,13.73 7.289,13.88 6.919,13.69 C6.509,13.48 6.059,13.37 5.609,13.37 C5.599,13.35 5.589,13.35 5.569,13.35 Z"/>
  <path fill="#292D32" d="M15.85,10.67 C15.57,10.67 15.31,10.52 15.18,10.25 C14.99,9.88 15.15,9.43 15.52,9.24 C16.14,8.93 16.83,8.76 17.51,8.75 C17.91,8.74 18.27,9.07 18.27,9.49 C18.28,9.9 17.95,10.25 17.53,10.25 C17.07,10.26 16.6,10.37 16.18,10.58 C16.07,10.64 15.96,10.67 15.85,10.67 Z"/>
</svg>

