<svg xmlns="http://www.w3.org/2000/svg" width="24" height="24" viewBox="0 0 24 24">
  <defs/>
  <path fill="#292D32" d="M20.48,10.69 L2.01,15.72 C2.12,14.13 3.11,12.46 5.11,11.97 C4.52,9.64 5.02,7.45 6.54,5.86 C8.27,4.05 11.03,3.33 13.41,4.07 C15.6,4.74 17.14,6.54 17.69,9.04 C18.78,9.29 19.75,9.86 20.48,10.69 Z"/>
  <path fill="#292D32" opacity="0.4" d="M20.17,18.74 C19.13,19.69 17.77,20.22 16.35,20.22 L5.97,20.22 C3.23,20.02 2,17.91 2,16.03 C2,15.93 2,15.83 2.01,15.72 L20.48,10.69 C21.05,11.3 21.48,12.05 21.74,12.91 C22.4,15.08 21.8,17.31 20.17,18.74 Z"/>
</svg>

