<svg xmlns="http://www.w3.org/2000/svg" width="24" height="24" viewBox="0 0 24 24">
  <defs/>
  <path fill="#292D32" d="M5.592,11.868 Q2.779,12.066 2.779,14.855 Q2.779,17.631 5.567,17.84 L7.459,17.84 Q7.77,17.84 7.99,18.06 Q8.209,18.279 8.209,18.59 Q8.209,18.901 7.99,19.12 Q7.77,19.34 7.459,19.34 L5.539,19.34 Q5.513,19.34 5.487,19.338 Q1.279,19.041 1.279,14.855 Q1.279,10.668 5.487,10.372 Q5.796,10.35 6.031,10.554 Q6.266,10.757 6.287,11.067 Q6.309,11.377 6.106,11.612 Q5.902,11.846 5.592,11.868 Z"/>
  <path fill="#292D32" d="M17.564,7.256 Q21.292,7.73 22.44,11.507 Q23.589,15.282 20.763,17.754 Q19.001,19.358 16.624,19.34 L16.539,19.34 Q16.228,19.34 16.009,19.12 Q15.789,18.901 15.789,18.59 Q15.789,18.279 16.009,18.06 Q16.228,17.84 16.539,17.84 L16.635,17.84 Q18.426,17.853 19.775,16.626 Q21.872,14.791 21.005,11.943 Q20.139,9.095 17.375,8.744 Q17.066,8.705 16.876,8.459 Q16.686,8.214 16.725,7.905 Q16.764,7.597 17.01,7.407 Q17.255,7.217 17.564,7.256 Z"/>
  <path fill="#292D32" d="M4.883,11.374 Q2.879,5.806 7.427,2.897 Q11.786,0.109 15.593,3.111 Q15.837,3.303 15.874,3.612 Q15.91,3.92 15.718,4.164 Q15.525,4.408 15.217,4.445 Q14.908,4.481 14.664,4.289 Q11.695,1.947 8.235,4.161 Q4.696,6.425 6.295,10.866 Q6.4,11.158 6.267,11.439 Q6.135,11.72 5.843,11.826 Q5.55,11.931 5.269,11.799 Q4.988,11.666 4.883,11.374 Z"/>
  <path fill="#292D32" d="M12.439,18.14 L10.329,16.03 Q10.109,15.811 10.109,15.5 Q10.109,15.189 10.329,14.97 Q10.549,14.75 10.859,14.75 Q11.17,14.75 11.39,14.97 L13.5,17.08 Q13.719,17.299 13.719,17.61 Q13.719,17.921 13.5,18.14 Q13.28,18.36 12.969,18.36 Q12.659,18.36 12.439,18.14 Z"/>
  <path fill="#292D32" d="M13.48,16.05 L11.36,18.17 Q11.141,18.39 10.83,18.39 Q10.519,18.39 10.3,18.17 Q10.08,17.951 10.08,17.64 Q10.08,17.329 10.3,17.11 L12.42,14.99 Q12.639,14.77 12.95,14.77 Q13.261,14.77 13.48,14.99 Q13.7,15.209 13.7,15.52 Q13.7,15.831 13.48,16.05 Z"/>
  <path fill="#292D32" d="M17.75,16.53 Q17.75,17.805 17.22,18.906 Q17.083,19.214 16.911,19.49 Q15.252,22.28 12,22.28 Q8.748,22.28 7.089,19.49 Q6.917,19.214 6.78,18.906 Q6.25,17.805 6.25,16.53 Q6.25,14.149 7.935,12.465 Q9.619,10.78 12,10.78 Q14.381,10.78 16.065,12.465 Q17.75,14.149 17.75,16.53 Z M16.25,16.53 Q16.25,14.771 15.005,13.525 Q13.759,12.28 12,12.28 Q10.241,12.28 8.995,13.525 Q7.75,14.771 7.75,16.53 Q7.75,17.467 8.135,18.263 Q8.14,18.274 8.145,18.285 Q8.244,18.507 8.366,18.703 Q8.371,18.71 8.375,18.717 Q9.598,20.78 12,20.78 Q14.402,20.78 15.625,18.717 Q15.629,18.71 15.634,18.702 Q15.756,18.507 15.855,18.285 Q15.86,18.274 15.865,18.263 Q16.25,17.467 16.25,16.53 Z"/>
</svg>

