<svg xmlns="http://www.w3.org/2000/svg" width="24" height="24" viewBox="0 0 24 24">
  <defs/>
  <g opacity="0.4">
    <path fill="#292D32" d="M5.592,11.868 Q2.779,12.067 2.779,14.855 Q2.779,17.631 5.567,17.84 L7.459,17.84 Q7.77,17.84 7.99,18.06 Q8.209,18.279 8.209,18.59 Q8.209,18.901 7.99,19.12 Q7.77,19.34 7.459,19.34 L5.539,19.34 Q5.513,19.34 5.487,19.338 Q1.279,19.042 1.279,14.855 Q1.279,10.669 5.487,10.372 Q5.796,10.35 6.031,10.554 Q6.266,10.757 6.287,11.067 Q6.309,11.377 6.106,11.612 Q5.902,11.846 5.592,11.868 Z"/>
    <path fill="#292D32" d="M4.884,11.374 Q3.635,7.897 5.226,5.168 Q6.646,2.734 9.554,1.969 Q12.464,1.203 14.889,2.628 Q17.404,4.107 18.108,7.346 Q21.378,8.013 22.441,11.507 Q23.59,15.282 20.764,17.755 Q19.002,19.358 16.624,19.34 L16.54,19.34 Q16.229,19.34 16.01,19.12 Q15.79,18.901 15.79,18.59 Q15.79,18.279 16.01,18.06 Q16.229,17.84 16.54,17.84 L16.636,17.84 Q18.427,17.853 19.776,16.626 Q21.872,14.791 21.006,11.943 Q20.14,9.095 17.375,8.744 Q16.821,8.674 16.73,8.122 Q16.241,5.163 14.128,3.921 Q12.242,2.812 9.936,3.419 Q7.629,4.026 6.522,5.924 Q5.283,8.048 6.296,10.866 Q6.401,11.159 6.268,11.44 Q6.136,11.721 5.844,11.826 Q5.551,11.931 5.27,11.799 Q4.989,11.666 4.884,11.374 Z"/>
  </g>
  <path fill="#292D32" d="M17.75,16.53 Q17.75,17.805 17.22,18.906 Q17.083,19.213 16.911,19.49 Q15.252,22.28 12,22.28 Q8.748,22.28 7.089,19.49 Q6.917,19.214 6.78,18.906 Q6.25,17.805 6.25,16.53 Q6.25,14.149 7.935,12.464 Q9.619,10.78 12,10.78 Q14.381,10.78 16.065,12.464 Q17.75,14.149 17.75,16.53 Z M16.25,16.53 Q16.25,14.77 15.005,13.525 Q13.759,12.28 12,12.28 Q10.241,12.28 8.995,13.525 Q7.75,14.77 7.75,16.53 Q7.75,17.467 8.135,18.263 Q8.14,18.274 8.145,18.285 Q8.244,18.507 8.366,18.702 Q8.371,18.71 8.375,18.717 Q9.598,20.78 12,20.78 Q14.402,20.78 15.625,18.717 Q15.629,18.71 15.634,18.702 Q15.756,18.507 15.855,18.285 Q15.86,18.274 15.865,18.263 Q16.25,17.467 16.25,16.53 Z"/>
  <path fill="#292D32" d="M10.971,15.999 L11.451,16.479 L13.051,14.999 Q13.279,14.788 13.59,14.8 Q13.9,14.812 14.111,15.041 Q14.322,15.269 14.31,15.579 Q14.298,15.889 14.07,16.1 L11.94,18.07 Q11.718,18.276 11.416,18.27 Q11.114,18.264 10.9,18.05 L9.91,17.06 Q9.69,16.84 9.69,16.53 Q9.69,16.219 9.91,15.999 Q10.13,15.78 10.44,15.78 Q10.751,15.78 10.971,15.999 Z"/>
</svg>

