<svg xmlns="http://www.w3.org/2000/svg" width="24" height="24" viewBox="0 0 24 24">
  <defs/>
  <path fill="#292D32" d="M16.616,19.25 Q18.396,19.263 19.725,18.055 Q21.824,16.22 20.96,13.389 Q20.097,10.559 17.347,10.214 Q16.791,10.145 16.7,9.592 Q16.214,6.646 14.114,5.408 Q12.239,4.303 9.946,4.904 Q7.653,5.505 6.552,7.391 Q5.32,9.503 6.326,12.307 Q6.431,12.599 6.298,12.88 Q6.166,13.161 5.873,13.266 Q5.581,13.371 5.3,13.238 Q5.019,13.106 4.914,12.813 Q3.672,9.351 5.257,6.635 Q6.671,4.212 9.566,3.453 Q12.463,2.694 14.876,4.116 Q17.378,5.591 18.078,8.815 Q21.334,9.474 22.395,12.951 Q23.542,16.71 20.735,19.165 Q18.972,20.768 16.604,20.75 Q16.294,20.748 16.076,20.526 Q15.858,20.305 15.86,19.994 Q15.862,19.684 16.084,19.466 Q16.305,19.248 16.616,19.25 Z"/>
  <path fill="#292D32" d="M6.94,13.638 Q6.3,13.312 5.602,13.32 Q2.827,13.526 2.829,16.289 Q2.831,19.064 5.623,19.262 Q5.933,19.284 6.137,19.519 Q6.34,19.753 6.318,20.063 Q6.296,20.373 6.062,20.577 Q5.827,20.78 5.517,20.758 Q1.332,20.461 1.329,16.291 Q1.326,12.119 5.517,11.822 Q5.537,11.82 5.557,11.82 Q6.639,11.802 7.621,12.302 Q7.897,12.443 7.993,12.738 Q8.089,13.034 7.948,13.31 Q7.807,13.587 7.512,13.683 Q7.216,13.779 6.94,13.638 Z"/>
  <path fill="#292D32" d="M15.485,9.219 Q16.427,8.748 17.467,8.73 Q17.778,8.725 18.001,8.941 Q18.225,9.156 18.23,9.467 Q18.235,9.778 18.019,10.001 Q17.804,10.225 17.493,10.23 Q16.793,10.242 16.156,10.561 Q15.878,10.7 15.583,10.601 Q15.288,10.503 15.149,10.225 Q15.01,9.948 15.109,9.653 Q15.207,9.358 15.485,9.219 Z"/>
  <path fill="#292D32" d="M12.919,19.121 L10.089,21.941 Q9.869,22.161 9.559,22.16 Q9.248,22.159 9.029,21.939 Q8.81,21.719 8.81,21.409 Q8.811,21.098 9.031,20.879 L11.861,18.059 Q12.081,17.839 12.391,17.84 Q12.702,17.841 12.921,18.061 Q13.141,18.281 13.14,18.591 Q13.14,18.902 12.919,19.121 Z"/>
  <path fill="#292D32" d="M11.861,21.941 L9.031,19.121 Q8.811,18.902 8.81,18.591 Q8.81,18.281 9.029,18.061 Q9.248,17.841 9.559,17.84 Q9.869,17.839 10.089,18.059 L12.919,20.879 Q13.14,21.098 13.14,21.409 Q13.141,21.719 12.921,21.939 Q12.702,22.159 12.391,22.16 Q12.081,22.161 11.861,21.941 Z"/>
</svg>

