<svg xmlns="http://www.w3.org/2000/svg" width="24" height="24" viewBox="0 0 24 24">
  <defs/>
  <path fill="#292D32" d="M10.501,20.53 L8.501,22.53 Q8.281,22.75 7.971,22.75 Q7.66,22.75 7.44,22.53 Q7.221,22.311 7.221,22 Q7.221,21.689 7.44,21.47 L9.44,19.47 Q9.66,19.25 9.971,19.25 Q10.281,19.25 10.501,19.47 Q10.721,19.689 10.721,20 Q10.721,20.311 10.501,20.53 Z"/>
  <path fill="#292D32" d="M14.501,20.53 L12.501,22.53 Q12.281,22.75 11.971,22.75 Q11.66,22.75 11.44,22.53 Q11.221,22.311 11.221,22 Q11.221,21.689 11.44,21.47 L13.44,19.47 Q13.66,19.25 13.971,19.25 Q14.281,19.25 14.501,19.47 Q14.721,19.689 14.721,20 Q14.721,20.311 14.501,20.53 Z"/>
  <path fill="#292D32" d="M14.501,16.53 L12.501,18.53 Q12.281,18.75 11.971,18.75 Q11.66,18.75 11.44,18.53 Q11.221,18.311 11.221,18 Q11.221,17.689 11.44,17.47 L13.44,15.47 Q13.66,15.25 13.971,15.25 Q14.281,15.25 14.501,15.47 Q14.721,15.689 14.721,16 Q14.721,16.311 14.501,16.53 Z"/>
  <path fill="#292D32" d="M10.501,16.53 L8.501,18.53 Q8.281,18.75 7.971,18.75 Q7.66,18.75 7.44,18.53 Q7.221,18.311 7.221,18 Q7.221,17.689 7.44,17.47 L9.44,15.47 Q9.66,15.25 9.971,15.25 Q10.281,15.25 10.501,15.47 Q10.721,15.689 10.721,16 Q10.721,16.311 10.501,16.53 Z"/>
  <path fill="#292D32" d="M11.936,4.727 Q9.022,4.479 7.139,6.591 Q5.098,8.879 6.326,12.307 Q6.431,12.6 6.298,12.88 Q6.166,13.161 5.873,13.266 Q5.581,13.371 5.3,13.238 Q5.019,13.106 4.914,12.813 Q3.385,8.545 6.019,5.592 Q8.402,2.921 12.064,3.233 Q12.373,3.259 12.574,3.497 Q12.774,3.734 12.747,4.044 Q12.721,4.353 12.483,4.554 Q12.246,4.754 11.936,4.727 Z"/>
  <path fill="#292D32" d="M16.616,19.25 Q18.397,19.263 19.726,18.055 Q21.825,16.22 20.961,13.389 Q20.098,10.559 17.348,10.214 Q16.792,10.145 16.701,9.592 Q16.391,7.719 15.383,6.498 Q15.185,6.258 15.214,5.949 Q15.244,5.639 15.483,5.442 Q15.723,5.244 16.032,5.273 Q16.341,5.303 16.539,5.543 Q17.653,6.892 18.078,8.814 Q21.335,9.474 22.396,12.951 Q23.543,16.71 20.735,19.165 Q18.972,20.768 16.605,20.75 Q16.295,20.748 16.077,20.526 Q15.859,20.305 15.861,19.994 Q15.863,19.684 16.085,19.466 Q16.306,19.248 16.616,19.25 Z"/>
  <path fill="#292D32" d="M6.939,13.638 Q6.299,13.313 5.602,13.32 Q2.826,13.526 2.828,16.29 Q2.83,19.064 5.622,19.262 Q5.932,19.284 6.136,19.519 Q6.339,19.753 6.317,20.063 Q6.296,20.373 6.061,20.577 Q5.826,20.78 5.516,20.758 Q1.331,20.461 1.328,16.291 Q1.325,12.119 5.516,11.822 Q5.537,11.821 5.557,11.82 Q6.638,11.802 7.62,12.302 Q7.897,12.443 7.993,12.738 Q8.089,13.034 7.948,13.311 Q7.807,13.587 7.511,13.683 Q7.216,13.779 6.939,13.638 Z"/>
  <path fill="#292D32" d="M15.485,9.219 Q16.427,8.748 17.467,8.73 Q17.778,8.725 18.001,8.941 Q18.225,9.156 18.23,9.467 Q18.236,9.778 18.02,10.001 Q17.804,10.225 17.493,10.23 Q16.793,10.242 16.156,10.561 Q15.878,10.7 15.583,10.601 Q15.288,10.503 15.149,10.225 Q15.011,9.948 15.109,9.653 Q15.207,9.358 15.485,9.219 Z"/>
</svg>

