<svg xmlns="http://www.w3.org/2000/svg" width="24" height="24" viewBox="0 0 24 24">
  <defs/>
  <path fill="#292D32" d="M16.615,19.25 Q18.396,19.263 19.725,18.055 Q21.824,16.22 20.96,13.389 Q20.096,10.559 17.346,10.214 Q16.791,10.145 16.7,9.592 Q16.214,6.646 14.114,5.408 Q12.239,4.303 9.946,4.904 Q7.653,5.505 6.552,7.391 Q5.32,9.503 6.326,12.307 Q6.431,12.599 6.298,12.88 Q6.165,13.161 5.873,13.266 Q5.581,13.371 5.3,13.238 Q5.019,13.106 4.914,12.813 Q3.671,9.351 5.257,6.635 Q6.671,4.212 9.566,3.453 Q12.462,2.694 14.875,4.116 Q17.377,5.591 18.078,8.815 Q21.334,9.474 22.395,12.951 Q23.541,16.71 20.734,19.165 Q18.971,20.768 16.604,20.75 Q16.293,20.748 16.075,20.526 Q15.857,20.305 15.86,19.994 Q15.862,19.684 16.083,19.466 Q16.305,19.248 16.615,19.25 Z"/>
  <path fill="#292D32" d="M6.939,13.638 Q6.299,13.312 5.602,13.319 Q2.826,13.526 2.828,16.289 Q2.83,19.064 5.622,19.262 Q5.932,19.284 6.136,19.518 Q6.339,19.753 6.317,20.063 Q6.296,20.373 6.061,20.576 Q5.826,20.78 5.516,20.758 Q1.331,20.461 1.328,16.29 Q1.325,12.118 5.516,11.822 Q5.537,11.82 5.557,11.82 Q6.638,11.802 7.62,12.302 Q7.897,12.443 7.993,12.738 Q8.089,13.033 7.948,13.31 Q7.807,13.587 7.511,13.683 Q7.216,13.779 6.939,13.638 Z"/>
  <path fill="#292D32" d="M15.485,9.219 Q16.427,8.748 17.467,8.73 Q17.778,8.725 18.001,8.941 Q18.225,9.156 18.23,9.467 Q18.236,9.778 18.02,10.001 Q17.804,10.225 17.493,10.23 Q16.793,10.242 16.156,10.561 Q15.878,10.7 15.583,10.601 Q15.288,10.503 15.149,10.225 Q15.011,9.948 15.109,9.653 Q15.207,9.358 15.485,9.219 Z"/>
  <path fill="#292D32" opacity="0.4" d="M12.995,17.5 L13.005,17.5 Q13.419,17.5 13.712,17.793 Q14.004,18.086 14.004,18.5 Q14.004,18.914 13.712,19.207 Q13.419,19.5 13.005,19.5 L12.995,19.5 Q12.581,19.5 12.288,19.207 Q11.995,18.914 11.995,18.5 Q11.995,18.086 12.288,17.793 Q12.581,17.5 12.995,17.5 Z"/>
  <path fill="#292D32" opacity="0.4" d="M8.995,17.5 L9.005,17.5 Q9.419,17.5 9.712,17.793 Q10.004,18.086 10.004,18.5 Q10.004,18.914 9.712,19.207 Q9.419,19.5 9.005,19.5 L8.995,19.5 Q8.581,19.5 8.288,19.207 Q7.995,18.914 7.995,18.5 Q7.995,18.086 8.288,17.793 Q8.581,17.5 8.995,17.5 Z"/>
  <path fill="#292D32" opacity="0.4" d="M10.995,20.5 L11.005,20.5 Q11.419,20.5 11.712,20.793 Q12.004,21.086 12.004,21.5 Q12.004,21.914 11.712,22.207 Q11.419,22.5 11.005,22.5 L10.995,22.5 Q10.581,22.5 10.288,22.207 Q9.995,21.914 9.995,21.5 Q9.995,21.086 10.288,20.793 Q10.581,20.5 10.995,20.5 Z"/>
</svg>

