<svg xmlns="http://www.w3.org/2000/svg" width="24" height="24" viewBox="0 0 24 24">
  <defs/>
  <path fill="#292D32" opacity="0.4" d="M20.569,11.01 C19.809,10.1 18.809,9.49 17.669,9.24 C17.419,8.09 16.959,7.09 16.309,6.27 C16.289,6.24 16.269,6.21 16.249,6.19 C14.059,3.54 10.469,3.55 8.049,4.92 C5.979,6.1 4.219,8.59 5.139,12.16 C3.019,12.68 2.039,14.53 2.039,16.2 C2.039,18.07 3.259,20.18 5.989,20.37 L16.289,20.37 C16.299,20.37 16.319,20.37 16.329,20.37 C17.749,20.37 19.099,19.85 20.139,18.89 C22.659,16.69 22.329,13.08 20.569,11.01 Z"/>
  <path fill="#292D32" d="M21.27,8.76 C21.27,9.78 20.8,10.7 20.04,11.3 C19.49,11.75 18.78,12.02 18.01,12.02 C16.22,12.02 14.76,10.56 14.76,8.77 C14.76,7.88 15.12,7.07 15.72,6.48 L15.72,6.47 C16.31,5.88 17.12,5.51 18.01,5.51 C19.81,5.51 21.27,6.97 21.27,8.76 Z"/>
</svg>

