<svg xmlns="http://www.w3.org/2000/svg" width="24" height="24" viewBox="0 0 24 24">
  <defs/>
  <path fill="#292D32" d="M19.801,12.001 L4.201,12.001 C3.981,12.001 3.781,11.851 3.711,11.641 C0.961,2.551 14.841,-0.939 16.451,8.821 C18.111,9.031 19.421,9.971 20.231,11.231 C20.441,11.561 20.191,12.001 19.801,12.001 Z"/>
  <path fill="#292D32" d="M20,15.781 L4,15.781 C3.59,15.781 3.25,15.441 3.25,15.031 C3.25,14.621 3.59,14.281 4,14.281 L20,14.281 C20.41,14.281 20.75,14.621 20.75,15.031 C20.75,15.441 20.41,15.781 20,15.781 Z"/>
  <path fill="#292D32" d="M18,18.781 L6,18.781 C5.59,18.781 5.25,18.441 5.25,18.031 C5.25,17.621 5.59,17.281 6,17.281 L18,17.281 C18.41,17.281 18.75,17.621 18.75,18.031 C18.75,18.441 18.41,18.781 18,18.781 Z"/>
  <path fill="#292D32" d="M15,21.781 L9,21.781 C8.59,21.781 8.25,21.441 8.25,21.031 C8.25,20.621 8.59,20.281 9,20.281 L15,20.281 C15.41,20.281 15.75,20.621 15.75,21.031 C15.75,21.441 15.41,21.781 15,21.781 Z"/>
</svg>

