<svg xmlns="http://www.w3.org/2000/svg" width="24" height="24" viewBox="0 0 24 24">
  <defs/>
  <path fill="#292D32" d="M16.615,19.25 Q18.396,19.263 19.725,18.055 Q21.824,16.22 20.96,13.389 Q20.096,10.559 17.346,10.214 Q16.791,10.145 16.7,9.592 Q16.214,6.646 14.114,5.408 Q12.239,4.303 9.946,4.904 Q7.653,5.505 6.552,7.391 Q5.32,9.503 6.326,12.307 Q6.431,12.599 6.298,12.88 Q6.165,13.161 5.873,13.266 Q5.581,13.371 5.3,13.238 Q5.019,13.106 4.914,12.813 Q3.671,9.351 5.257,6.635 Q6.671,4.212 9.566,3.453 Q12.462,2.694 14.875,4.116 Q17.377,5.591 18.078,8.815 Q21.334,9.474 22.395,12.951 Q23.541,16.71 20.734,19.165 Q18.971,20.768 16.604,20.75 Q16.293,20.748 16.075,20.526 Q15.857,20.305 15.86,19.994 Q15.862,19.684 16.083,19.466 Q16.305,19.248 16.615,19.25 Z"/>
  <path fill="#292D32" d="M6.939,13.638 Q6.299,13.312 5.602,13.319 Q2.826,13.526 2.828,16.289 Q2.83,19.064 5.622,19.262 Q5.932,19.284 6.136,19.518 Q6.339,19.753 6.317,20.063 Q6.296,20.373 6.061,20.576 Q5.826,20.78 5.516,20.758 Q1.331,20.461 1.328,16.29 Q1.325,12.118 5.516,11.822 Q5.537,11.82 5.557,11.82 Q6.638,11.802 7.62,12.302 Q7.897,12.443 7.993,12.738 Q8.089,13.033 7.948,13.31 Q7.807,13.587 7.511,13.683 Q7.216,13.779 6.939,13.638 Z"/>
  <path fill="#292D32" d="M15.485,9.219 Q16.427,8.748 17.467,8.73 Q17.778,8.725 18.001,8.941 Q18.225,9.156 18.23,9.467 Q18.236,9.778 18.02,10.001 Q17.804,10.225 17.493,10.23 Q16.793,10.242 16.156,10.561 Q15.878,10.7 15.583,10.601 Q15.288,10.503 15.149,10.225 Q15.011,9.948 15.109,9.653 Q15.207,9.358 15.485,9.219 Z"/>
  <g opacity="0.4">
    <path fill="#292D32" d="M12.971,20.75 L8.971,20.75 Q8.66,20.75 8.44,20.53 Q8.221,20.311 8.221,20 Q8.221,19.689 8.44,19.47 Q8.66,19.25 8.971,19.25 L12.971,19.25 Q13.281,19.25 13.501,19.47 Q13.721,19.689 13.721,20 Q13.721,20.311 13.501,20.53 Q13.281,20.75 12.971,20.75 Z"/>
    <path fill="#292D32" d="M10.221,22 L10.221,18 Q10.221,17.689 10.44,17.47 Q10.66,17.25 10.971,17.25 Q11.281,17.25 11.501,17.47 Q11.721,17.689 11.721,18 L11.721,22 Q11.721,22.311 11.501,22.53 Q11.281,22.75 10.971,22.75 Q10.66,22.75 10.44,22.53 Q10.221,22.311 10.221,22 Z"/>
  </g>
</svg>

