<svg xmlns="http://www.w3.org/2000/svg" width="24" height="24" viewBox="0 0 24 24">
  <defs/>
  <path fill="#292D32" opacity="0.4" d="M20.269,17.19 C19.269,18.1 17.979,18.6 16.629,18.59 L16.539,18.59 C16.839,17.97 16.999,17.27 16.999,16.53 C16.999,13.77 14.759,11.53 11.999,11.53 C9.239,11.53 6.999,13.77 6.999,16.53 C6.999,17.27 7.159,17.97 7.459,18.59 L5.539,18.59 C0.859,18.26 0.859,11.45 5.539,11.12 L5.589,11.12 C2.379,2.19 15.919,-1.38 17.469,8 C21.799,8.55 23.549,14.32 20.269,17.19 Z"/>
  <path fill="#292D32" d="M12,11.53 C9.24,11.53 7,13.77 7,16.53 C7,17.27 7.16,17.97 7.46,18.59 C7.54,18.77 7.63,18.94 7.73,19.1 C8.59,20.55 10.18,21.53 12,21.53 C13.82,21.53 15.41,20.55 16.27,19.1 C16.37,18.94 16.46,18.77 16.54,18.59 C16.84,17.97 17,17.27 17,16.53 C17,13.77 14.76,11.53 12,11.53 Z M14.07,16.1 L11.94,18.07 C11.8,18.2 11.61,18.27 11.43,18.27 C11.24,18.27 11.05,18.2 10.9,18.05 L9.91,17.06 C9.62,16.77 9.62,16.29 9.91,16 C10.2,15.71 10.68,15.71 10.97,16 L11.45,16.48 L13.05,15 C13.36,14.72 13.83,14.74 14.11,15.04 C14.39,15.34 14.37,15.81 14.07,16.1 Z"/>
</svg>

