<svg xmlns="http://www.w3.org/2000/svg" width="24" height="24" viewBox="0 0 24 24">
  <defs/>
  <path fill="#292D32" d="M16.65,20.75 C16.64,20.75 16.62,20.75 16.61,20.75 C16.2,20.75 15.86,20.41 15.87,19.99 C15.87,19.58 16.21,19.25 16.62,19.25 C16.63,19.25 16.65,19.25 16.66,19.25 C17.8,19.25 18.89,18.83 19.73,18.05 C21.28,16.69 21.39,14.75 20.97,13.38 C20.55,12.01 19.39,10.46 17.36,10.2 C17.03,10.16 16.77,9.91 16.71,9.58 C16.31,7.19 15.02,5.54 13.08,4.94 C11.06,4.32 8.73,4.93 7.27,6.46 C5.85,7.95 5.52,10.02 6.34,12.31 C6.48,12.7 6.28,13.13 5.89,13.27 C5.5,13.41 5.07,13.21 4.93,12.82 C3.92,10.01 4.38,7.32 6.19,5.43 C8.04,3.5 10.98,2.73 13.53,3.52 C15.86,4.24 17.51,6.16 18.1,8.82 C20.14,9.28 21.77,10.82 22.42,12.95 C23.13,15.27 22.48,17.65 20.75,19.17 C19.61,20.19 18.16,20.75 16.65,20.75 Z"/>
  <path fill="#292D32" d="M5.57,20.75 C5.55,20.75 5.53,20.75 5.52,20.75 C2.64,20.55 1.33,18.29 1.33,16.28 C1.33,14.27 2.64,12.02 5.52,11.81 C6.26,11.8 6.99,11.97 7.63,12.29 C8,12.48 8.14,12.93 7.96,13.3 C7.77,13.67 7.32,13.81 6.95,13.63 C6.53,13.41 6.05,13.32 5.59,13.31 C3.7,13.45 2.84,14.9 2.84,16.28 C2.84,17.66 3.7,19.11 5.64,19.25 C6.05,19.28 6.36,19.64 6.33,20.05 C6.29,20.45 5.96,20.75 5.57,20.75 Z"/>
  <path fill="#292D32" d="M15.821,10.64 C15.551,10.64 15.281,10.49 15.151,10.22 C14.961,9.85 15.111,9.4 15.491,9.21 C16.101,8.9 16.791,8.73 17.471,8.72 C17.861,8.74 18.231,9.04 18.231,9.46 C18.241,9.87 17.911,10.22 17.491,10.22 C17.031,10.23 16.571,10.34 16.151,10.55 C16.051,10.62 15.931,10.64 15.821,10.64 Z"/>
  <path fill="#292D32" d="M12.971,20.75 L8.971,20.75 C8.561,20.75 8.221,20.41 8.221,20 C8.221,19.59 8.561,19.25 8.971,19.25 L12.971,19.25 C13.381,19.25 13.721,19.59 13.721,20 C13.721,20.41 13.391,20.75 12.971,20.75 Z"/>
  <path fill="#292D32" d="M10.971,22.75 C10.561,22.75 10.221,22.41 10.221,22 L10.221,18 C10.221,17.59 10.561,17.25 10.971,17.25 C11.381,17.25 11.721,17.59 11.721,18 L11.721,22 C11.721,22.41 11.391,22.75 10.971,22.75 Z"/>
</svg>

