<svg xmlns="http://www.w3.org/2000/svg" width="24" height="24" viewBox="0 0 24 24">
  <defs/>
  <path fill="#292D32" opacity="0.4" d="M21.74,11.74 C21.13,9.74 19.61,8.3 17.7,7.87 C17.14,5.37 15.6,3.58 13.42,2.9 C11.04,2.17 8.28,2.88 6.55,4.69 C5.02,6.28 4.52,8.47 5.11,10.8 C2.98,11.32 2,13.18 2,14.86 C2,16.74 3.23,18.85 5.97,19.04 L8.5,19.04 L8.5,16.41 C8.5,15.14 9.26,14.38 10.53,14.38 L13.47,14.38 C14.74,14.38 15.5,15.14 15.5,16.41 L15.5,19.04 L16.31,19.04 C16.32,19.04 16.34,19.04 16.35,19.04 C17.77,19.04 19.13,18.51 20.17,17.56 C21.8,16.14 22.4,13.91 21.74,11.74 Z"/>
  <path fill="#292D32" d="M13.47,14.39 L10.53,14.39 C9.26,14.39 8.5,15.15 8.5,16.42 L8.5,19.36 C8.5,20.63 9.26,21.39 10.53,21.39 L13.47,21.39 C14.74,21.39 15.5,20.63 15.5,19.36 L15.5,16.42 C15.5,15.15 14.74,14.39 13.47,14.39 Z M11.71,18.84 L10.47,20.07 C10.38,20.16 10.26,20.21 10.15,20.21 C10.02,20.21 9.91,20.16 9.82,20.07 C9.64,19.89 9.64,19.6 9.82,19.42 L11.05,18.18 C11.24,18 11.53,18 11.71,18.18 C11.89,18.36 11.89,18.66 11.71,18.84 Z M11.71,16.36 L10.47,17.6 C10.38,17.69 10.26,17.74 10.15,17.74 C10.02,17.74 9.91,17.69 9.82,17.6 C9.64,17.42 9.64,17.12 9.82,16.94 L11.05,15.71 C11.24,15.53 11.53,15.53 11.71,15.71 C11.89,15.89 11.89,16.18 11.71,16.36 Z M14.18,18.84 L12.95,20.07 C12.85,20.16 12.74,20.21 12.62,20.21 C12.5,20.21 12.38,20.16 12.29,20.07 C12.11,19.89 12.11,19.6 12.29,19.42 L13.53,18.18 C13.71,18 14,18 14.18,18.18 C14.36,18.36 14.36,18.66 14.18,18.84 Z M14.18,16.36 L12.95,17.6 C12.85,17.69 12.74,17.74 12.62,17.74 C12.5,17.74 12.38,17.69 12.29,17.6 C12.11,17.42 12.11,17.12 12.29,16.94 L13.53,15.71 C13.71,15.53 14,15.53 14.18,15.71 C14.36,15.89 14.36,16.18 14.18,16.36 Z"/>
</svg>

