<svg xmlns="http://www.w3.org/2000/svg" width="24" height="24" viewBox="0 0 24 24">
  <defs/>
  <path fill="#292D32" d="M20.612,10.831 C19.842,9.91 18.852,9.31 17.702,9.05 C17.442,7.89 16.992,6.89 16.332,6.06 C16.312,6.03 16.292,6 16.272,5.98 C14.072,3.32 10.472,3.33 8.042,4.71 C5.962,5.9 4.192,8.41 5.122,11.99 C2.992,12.511 2.012,14.37 2.012,16.05 C2.012,17.93 3.242,20.04 5.982,20.24 L16.322,20.24 C16.332,20.24 16.352,20.24 16.362,20.24 C17.782,20.24 19.142,19.71 20.192,18.75 C22.702,16.53 22.372,12.91 20.612,10.831 Z"/>
  <path fill="#292D32" d="M21.759,8.742 C21.759,9.082 21.719,9.412 21.619,9.732 C20.889,8.882 19.959,8.252 18.929,7.862 C18.609,6.862 18.149,5.972 17.549,5.192 C17.519,5.152 17.489,5.112 17.449,5.062 C17.639,5.022 17.839,5.012 18.029,5.012 C20.089,5.012 21.759,6.682 21.759,8.742 Z"/>
</svg>

