<svg xmlns="http://www.w3.org/2000/svg" width="24" height="24" viewBox="0 0 24 24">
  <defs/>
  <path fill="#292D32" d="M7.19,11.243 Q6.839,9.533 7.665,8.121 Q8.582,6.551 10.452,6.061 Q12.324,5.57 13.889,6.491 Q15.442,7.405 15.923,9.336 Q17.903,9.828 18.565,12.002 Q19.313,14.459 17.472,16.067 Q16.304,17.119 14.78,17.1 L8.11,17.1 Q8.083,17.1 8.057,17.098 Q5.252,16.898 5.249,14.101 Q5.246,11.773 7.19,11.243 Z M8.115,12.602 Q6.747,12.722 6.749,14.099 Q6.75,15.489 8.138,15.6 L14.78,15.6 Q15.736,15.612 16.468,14.953 Q17.596,13.967 17.13,12.438 Q16.665,10.911 15.196,10.724 Q14.641,10.654 14.55,10.102 Q14.279,8.461 13.129,7.784 Q12.101,7.179 10.833,7.512 Q9.564,7.844 8.96,8.878 Q8.284,10.033 8.846,11.596 Q8.951,11.889 8.819,12.17 Q8.686,12.451 8.394,12.556 Q8.253,12.606 8.115,12.602 Z"/>
  <path fill="#292D32" d="M2.75,15 Q2.75,17.592 4.579,19.421 Q5.888,20.729 7.586,21.102 L7.307,20.636 Q7.147,20.369 7.222,20.068 Q7.298,19.767 7.564,19.607 Q7.831,19.447 8.132,19.522 Q8.433,19.598 8.593,19.864 L9.643,21.614 Q9.75,21.792 9.75,22 Q9.75,22.311 9.53,22.53 Q9.311,22.75 9,22.75 Q5.787,22.75 3.518,20.482 Q1.25,18.213 1.25,15 Q1.25,14.689 1.47,14.47 Q1.689,14.25 2,14.25 Q2.311,14.25 2.53,14.47 Q2.75,14.689 2.75,15 Z"/>
  <path fill="#292D32" d="M21.25,9 Q21.25,6.408 19.421,4.579 Q18.112,3.271 16.414,2.898 L16.693,3.364 Q16.853,3.631 16.778,3.932 Q16.702,4.233 16.436,4.393 Q16.169,4.553 15.868,4.478 Q15.567,4.402 15.407,4.136 L14.357,2.386 Q14.25,2.208 14.25,2 Q14.25,1.689 14.47,1.47 Q14.689,1.25 15,1.25 Q18.213,1.25 20.482,3.518 Q22.75,5.787 22.75,9 Q22.75,9.311 22.53,9.53 Q22.311,9.75 22,9.75 Q21.689,9.75 21.47,9.53 Q21.25,9.311 21.25,9 Z"/>
</svg>

