<svg xmlns="http://www.w3.org/2000/svg" width="24" height="24" viewBox="0 0 24 24">
  <defs/>
  <path fill="#292D32" d="M20.17,17.571 C19.64,18.061 19.03,18.431 18.37,18.681 C17.71,18.931 17,18.451 17,17.741 L17,16.421 C17,14.471 15.42,12.891 13.47,12.891 L10.53,12.891 C8.58,12.891 7,14.471 7,16.421 L7,18.001 C7,18.551 6.55,19.001 6,19.001 L5.55,19.001 C3.1,18.631 2,16.641 2,14.861 C2,13.181 2.98,11.321 5.11,10.801 C4.52,8.471 5.02,6.281 6.54,4.691 C8.27,2.881 11.03,2.161 13.41,2.901 C15.6,3.571 17.14,5.371 17.69,7.871 C19.6,8.301 21.13,9.741 21.74,11.741 C22.4,13.911 21.8,16.141 20.17,17.571 Z"/>
  <path fill="#292D32" d="M13.47,14.391 L10.53,14.391 C9.26,14.391 8.5,15.151 8.5,16.421 L8.5,19.361 C8.5,20.631 9.26,21.391 10.53,21.391 L13.47,21.391 C14.74,21.391 15.5,20.631 15.5,19.361 L15.5,16.421 C15.5,15.151 14.74,14.391 13.47,14.391 Z M13.67,18.051 L12,19.951 L11.8,20.181 C11.53,20.491 11.3,20.411 11.3,19.991 L11.3,18.211 L10.54,18.211 C10.19,18.211 10.1,18.001 10.33,17.741 L12,15.841 L12.2,15.611 C12.47,15.301 12.7,15.381 12.7,15.801 L12.7,17.581 L13.46,17.581 C13.81,17.571 13.9,17.791 13.67,18.051 Z"/>
</svg>

