<svg xmlns="http://www.w3.org/2000/svg" width="24" height="24" viewBox="0 0 24 24">
  <defs/>
  <path fill="#292D32" d="M22.64,13.84 Q23.171,17.124 20.765,19.243 Q19.019,20.848 16.624,20.83 L5.539,20.83 Q5.512,20.83 5.485,20.828 Q1.286,20.523 1.283,16.341 Q1.281,12.62 4.606,11.967 Q3.486,7.77 6.557,5.048 Q9.686,2.274 13.609,3.536 Q13.905,3.631 14.047,3.908 Q14.189,4.184 14.093,4.48 Q13.998,4.776 13.722,4.917 Q13.446,5.059 13.15,4.964 Q10.041,3.964 7.552,6.17 Q4.922,8.502 6.296,12.348 Q6.339,12.47 6.339,12.6 Q6.339,12.911 6.12,13.131 Q5.9,13.35 5.589,13.35 L5.568,13.35 Q2.781,13.566 2.783,16.34 Q2.785,19.115 5.568,19.33 L16.635,19.33 Q18.44,19.344 19.774,18.117 Q21.558,16.545 21.159,14.08 Q21.11,13.773 21.291,13.521 Q21.473,13.269 21.78,13.22 Q22.086,13.17 22.338,13.352 Q22.59,13.534 22.64,13.84 Z"/>
  <path fill="#292D32" d="M6.924,13.681 Q6.287,13.362 5.577,13.35 Q5.266,13.345 5.05,13.121 Q4.835,12.898 4.84,12.587 Q4.845,12.277 5.069,12.061 Q5.292,11.845 5.603,11.85 Q6.653,11.868 7.595,12.339 Q7.873,12.478 7.971,12.773 Q8.07,13.068 7.931,13.346 Q7.792,13.623 7.497,13.722 Q7.202,13.82 6.924,13.681 Z"/>
  <path fill="#292D32" opacity="0.4" d="M22.721,8.5 Q22.721,10.55 21.116,11.818 Q19.971,12.75 18.471,12.75 Q16.713,12.75 15.467,11.504 Q14.221,10.258 14.221,8.5 Q14.221,6.795 15.397,5.583 Q15.428,5.542 15.466,5.504 Q16.7,4.25 18.471,4.25 Q20.229,4.25 21.475,5.496 Q22.721,6.742 22.721,8.5 Z M21.221,8.5 Q21.221,5.75 18.471,5.75 Q17.375,5.75 16.6,6.492 Q16.567,6.535 16.527,6.574 Q15.721,7.368 15.721,8.5 Q15.721,11.25 18.471,11.25 Q19.438,11.25 20.186,10.642 Q21.221,9.824 21.221,8.5 Z"/>
</svg>

