<svg xmlns="http://www.w3.org/2000/svg" width="24" height="24" viewBox="0 0 24 24">
  <defs/>
  <path fill="#292D32" d="M12,11.531 C9.24,11.531 7,13.771 7,16.531 C7,17.271 7.16,17.971 7.46,18.591 C7.54,18.771 7.63,18.941 7.73,19.101 C8.59,20.551 10.18,21.531 12,21.531 C13.82,21.531 15.41,20.551 16.27,19.101 C16.37,18.941 16.46,18.771 16.54,18.591 C16.84,17.971 17,17.271 17,16.531 C17,13.771 14.76,11.531 12,11.531 Z M13.5,18.141 C13.35,18.291 13.16,18.361 12.97,18.361 C12.78,18.361 12.59,18.291 12.44,18.141 L11.91,17.611 L11.36,18.161 C11.21,18.311 11.02,18.381 10.83,18.381 C10.64,18.381 10.45,18.311 10.3,18.161 C10.01,17.871 10.01,17.391 10.3,17.101 L10.85,16.551 L10.32,16.021 C10.03,15.731 10.03,15.251 10.32,14.961 C10.61,14.671 11.09,14.671 11.38,14.961 L11.91,15.491 L12.41,14.991 C12.7,14.701 13.18,14.701 13.47,14.991 C13.76,15.281 13.76,15.761 13.47,16.051 L12.97,16.551 L13.5,17.081 C13.79,17.381 13.79,17.851 13.5,18.141 Z"/>
  <path fill="#292D32" d="M20.199,17.291 C19.839,17.611 19.449,17.881 19.029,18.101 C18.669,18.281 18.309,17.931 18.369,17.531 C18.409,17.241 18.429,16.941 18.429,16.631 C18.429,13.051 15.509,10.131 11.929,10.131 C8.349,10.131 5.429,13.051 5.429,16.631 C5.429,17.091 5.479,17.531 5.569,17.961 C5.639,18.311 5.369,18.661 5.019,18.571 C1.069,17.611 1.049,11.531 5.469,11.211 L5.519,11.211 C2.309,2.291 15.849,-1.279 17.399,8.101 C21.729,8.651 23.479,14.421 20.199,17.291 Z"/>
</svg>

