<svg xmlns="http://www.w3.org/2000/svg" width="24" height="24" viewBox="0 0 24 24">
  <defs/>
  <path fill="#292D32" d="M3.584,11.873 Q2.338,8.397 3.931,5.669 Q5.351,3.236 8.258,2.472 Q11.166,1.708 13.59,3.132 Q16.104,4.61 16.808,7.846 Q19.642,8.433 20.889,11.323 Q21.012,11.608 20.897,11.897 Q20.782,12.186 20.497,12.309 Q20.212,12.432 19.923,12.317 Q19.634,12.202 19.511,11.917 Q18.488,9.544 16.077,9.244 Q15.521,9.175 15.43,8.622 Q14.941,5.666 12.83,4.425 Q10.944,3.317 8.639,3.923 Q6.333,4.529 5.226,6.426 Q3.986,8.549 4.996,11.367 Q5.101,11.659 4.968,11.94 Q4.835,12.221 4.543,12.326 Q4.25,12.431 3.97,12.298 Q3.689,12.165 3.584,11.873 Z"/>
  <path fill="#292D32" d="M14.205,8.259 Q15.146,7.788 16.197,7.77 Q16.508,7.765 16.731,7.981 Q16.955,8.196 16.96,8.507 Q16.965,8.818 16.749,9.041 Q16.534,9.265 16.223,9.27 Q15.513,9.282 14.875,9.601 Q14.598,9.74 14.303,9.642 Q14.008,9.543 13.869,9.265 Q13.73,8.988 13.828,8.693 Q13.927,8.398 14.205,8.259 Z"/>
  <path fill="#292D32" d="M4,14.28 L20,14.28 Q20.311,14.28 20.53,14.5 Q20.75,14.719 20.75,15.03 Q20.75,15.341 20.53,15.56 Q20.311,15.78 20,15.78 L4,15.78 Q3.689,15.78 3.47,15.56 Q3.25,15.341 3.25,15.03 Q3.25,14.719 3.47,14.5 Q3.689,14.28 4,14.28 Z"/>
  <path fill="#292D32" d="M6,17.28 L18,17.28 Q18.311,17.28 18.53,17.5 Q18.75,17.719 18.75,18.03 Q18.75,18.341 18.53,18.56 Q18.311,18.78 18,18.78 L6,18.78 Q5.689,18.78 5.47,18.56 Q5.25,18.341 5.25,18.03 Q5.25,17.719 5.47,17.5 Q5.689,17.28 6,17.28 Z"/>
  <path fill="#292D32" d="M9,20.28 L15,20.28 Q15.311,20.28 15.53,20.5 Q15.75,20.719 15.75,21.03 Q15.75,21.341 15.53,21.56 Q15.311,21.78 15,21.78 L9,21.78 Q8.689,21.78 8.47,21.56 Q8.25,21.341 8.25,21.03 Q8.25,20.719 8.47,20.5 Q8.689,20.28 9,20.28 Z"/>
</svg>

