<svg xmlns="http://www.w3.org/2000/svg" width="24" height="24" viewBox="0 0 24 24">
  <defs/>
  <path fill="#292D32" d="M12.97,18.36 C12.78,18.36 12.59,18.29 12.44,18.14 L10.33,16.03 C10.04,15.74 10.04,15.26 10.33,14.97 C10.62,14.68 11.1,14.68 11.39,14.97 L13.5,17.08 C13.79,17.37 13.79,17.85 13.5,18.14 C13.36,18.29 13.16,18.36 12.97,18.36 Z"/>
  <path fill="#292D32" d="M10.829,18.39 C10.639,18.39 10.45,18.32 10.3,18.17 C10.009,17.88 10.009,17.4 10.3,17.11 L12.409,15 C12.7,14.71 13.18,14.71 13.47,15 C13.759,15.29 13.759,15.77 13.47,16.06 L11.36,18.17 C11.22,18.31 11.03,18.39 10.829,18.39 Z"/>
  <path fill="#292D32" d="M7.459,19.34 L5.539,19.34 C2.599,19.13 1.279,16.87 1.279,14.85 C1.279,12.83 2.599,10.57 5.489,10.37 C5.889,10.33 6.259,10.65 6.289,11.07 C6.319,11.49 6.009,11.84 5.589,11.87 C3.649,12.01 2.779,13.47 2.779,14.86 C2.779,16.25 3.649,17.71 5.589,17.85 L7.459,17.85 C7.869,17.85 8.209,18.19 8.209,18.6 C8.209,19.01 7.869,19.34 7.459,19.34 Z"/>
  <path fill="#292D32" d="M16.67,19.34 C16.65,19.34 16.64,19.34 16.62,19.34 C16.21,19.34 15.83,19 15.83,18.59 C15.83,18.16 16.16,17.84 16.57,17.84 C17.81,17.84 18.9,17.41 19.76,16.64 C21.32,15.28 21.42,13.32 21,11.94 C20.58,10.57 19.41,9 17.37,8.75 C17.04,8.71 16.78,8.46 16.72,8.13 C16.32,5.73 15.03,4.07 13.07,3.47 C11.04,2.84 8.69,3.46 7.22,5 C5.79,6.49 5.46,8.58 6.29,10.88 C6.43,11.27 6.23,11.7 5.84,11.84 C5.45,11.98 5.02,11.78 4.88,11.39 C3.87,8.57 4.33,5.87 6.14,3.97 C7.99,2.03 10.96,1.26 13.51,2.04 C15.85,2.76 17.5,4.69 18.1,7.37 C20.15,7.83 21.78,9.38 22.43,11.52 C23.14,13.85 22.5,16.25 20.76,17.77 C19.64,18.77 18.19,19.34 16.67,19.34 Z"/>
  <path fill="#292D32" d="M12,22.28 C9.99,22.28 8.11,21.21 7.08,19.48 C6.97,19.31 6.86,19.1 6.77,18.89 C6.43,18.18 6.25,17.38 6.25,16.53 C6.25,13.36 8.83,10.78 12,10.78 C15.17,10.78 17.75,13.36 17.75,16.53 C17.75,17.38 17.57,18.18 17.22,18.92 C17.14,19.11 17.03,19.31 16.91,19.5 C15.89,21.21 14.01,22.28 12,22.28 Z M12,12.28 C9.66,12.28 7.75,14.19 7.75,16.53 C7.75,17.15 7.88,17.74 8.13,18.26 C8.21,18.43 8.28,18.57 8.36,18.7 C9.12,19.99 10.51,20.78 11.99,20.78 C13.47,20.78 14.86,19.99 15.61,18.72 C15.7,18.57 15.77,18.44 15.84,18.29 C16.11,17.74 16.24,17.16 16.24,16.53 C16.25,14.19 14.34,12.28 12,12.28 Z"/>
</svg>

