<svg xmlns="http://www.w3.org/2000/svg" width="24" height="24" viewBox="0 0 24 24">
  <defs/>
  <path fill="#292D32" d="M4.617,11.965 Q3.85,9.023 5.234,6.65 Q6.653,4.216 9.56,3.452 Q12.468,2.687 14.893,4.112 Q17.409,5.59 18.117,8.825 Q21.389,9.492 22.454,12.986 Q23.604,16.759 20.779,19.229 Q19.024,20.837 16.639,20.82 L5.549,20.82 Q5.523,20.82 5.496,20.818 Q1.289,20.521 1.289,16.335 Q1.289,12.611 4.617,11.965 Z M6.929,13.678 Q6.322,13.369 5.636,13.351 Q5.598,13.353 5.559,13.351 Q2.789,13.567 2.789,16.335 Q2.789,19.111 5.576,19.32 L16.639,19.32 Q18.449,19.333 19.772,18.118 Q19.779,18.111 19.786,18.105 Q21.887,16.272 21.019,13.423 Q20.151,10.575 17.385,10.224 Q16.831,10.153 16.739,9.603 Q16.247,6.647 14.133,5.405 Q12.246,4.297 9.941,4.903 Q7.635,5.509 6.53,7.405 Q5.393,9.354 6.154,11.889 Q6.915,11.988 7.61,12.342 Q7.886,12.483 7.982,12.778 Q8.078,13.073 7.937,13.35 Q7.796,13.627 7.501,13.723 Q7.205,13.819 6.929,13.678 Z"/>
  <path fill="#292D32" d="M15.514,9.249 Q16.456,8.778 17.507,8.76 Q17.817,8.755 18.041,8.97 Q18.264,9.186 18.269,9.497 Q18.275,9.807 18.059,10.031 Q17.843,10.254 17.533,10.26 Q16.822,10.272 16.185,10.591 Q15.907,10.73 15.612,10.631 Q15.318,10.533 15.179,10.255 Q15.04,9.977 15.138,9.683 Q15.236,9.388 15.514,9.249 Z"/>
</svg>

