<svg xmlns="http://www.w3.org/2000/svg" width="24" height="24" viewBox="0 0 24 24">
  <defs/>
  <path fill="#292D32" d="M12.44,18.14 L10.33,16.03 Q10.11,15.811 10.11,15.5 Q10.11,15.189 10.33,14.97 Q10.549,14.75 10.86,14.75 Q11.171,14.75 11.39,14.97 L13.5,17.08 Q13.72,17.299 13.72,17.61 Q13.72,17.921 13.5,18.14 Q13.281,18.36 12.97,18.36 Q12.659,18.36 12.44,18.14 Z"/>
  <path fill="#292D32" d="M13.48,16.05 L11.36,18.17 Q11.141,18.39 10.83,18.39 Q10.519,18.39 10.3,18.17 Q10.08,17.951 10.08,17.64 Q10.08,17.329 10.3,17.11 L12.42,14.99 Q12.639,14.77 12.95,14.77 Q13.261,14.77 13.48,14.99 Q13.7,15.209 13.7,15.52 Q13.7,15.831 13.48,16.05 Z"/>
  <path fill="#292D32" d="M5.593,11.868 Q2.78,12.066 2.78,14.855 Q2.78,17.631 5.567,17.84 L7.46,17.84 Q7.771,17.84 7.99,18.06 Q8.21,18.279 8.21,18.59 Q8.21,18.901 7.99,19.12 Q7.771,19.34 7.46,19.34 L5.54,19.34 Q5.514,19.34 5.487,19.338 Q1.28,19.041 1.28,14.855 Q1.28,10.669 5.487,10.372 Q5.797,10.35 6.032,10.554 Q6.266,10.757 6.288,11.067 Q6.31,11.377 6.106,11.612 Q5.903,11.846 5.593,11.868 Z"/>
  <path fill="#292D32" d="M4.884,11.374 Q3.635,7.897 5.226,5.168 Q6.646,2.734 9.554,1.968 Q12.464,1.203 14.889,2.628 Q17.404,4.107 18.108,7.345 Q21.378,8.012 22.441,11.507 Q23.59,15.282 20.764,17.754 Q19.002,19.358 16.624,19.34 L16.54,19.34 Q16.229,19.34 16.01,19.12 Q15.79,18.901 15.79,18.59 Q15.79,18.279 16.01,18.06 Q16.229,17.84 16.54,17.84 L16.636,17.84 Q18.427,17.853 19.776,16.626 Q21.872,14.791 21.006,11.943 Q20.14,9.095 17.375,8.744 Q16.821,8.674 16.73,8.122 Q16.241,5.163 14.128,3.921 Q12.242,2.812 9.936,3.419 Q7.629,4.026 6.522,5.924 Q5.283,8.048 6.296,10.866 Q6.401,11.159 6.268,11.44 Q6.136,11.721 5.844,11.826 Q5.551,11.931 5.27,11.798 Q4.989,11.666 4.884,11.374 Z"/>
  <path fill="#292D32" d="M17.75,16.53 Q17.75,17.805 17.22,18.906 Q17.083,19.214 16.911,19.49 Q15.252,22.28 12,22.28 Q8.748,22.28 7.089,19.49 Q6.917,19.214 6.78,18.906 Q6.25,17.805 6.25,16.53 Q6.25,14.149 7.935,12.465 Q9.619,10.78 12,10.78 Q14.381,10.78 16.065,12.465 Q17.75,14.149 17.75,16.53 Z M16.25,16.53 Q16.25,14.771 15.005,13.525 Q13.759,12.28 12,12.28 Q10.241,12.28 8.995,13.525 Q7.75,14.771 7.75,16.53 Q7.75,17.467 8.135,18.263 Q8.14,18.274 8.145,18.285 Q8.244,18.507 8.366,18.703 Q8.371,18.71 8.375,18.717 Q9.598,20.78 12,20.78 Q14.402,20.78 15.625,18.717 Q15.629,18.71 15.634,18.702 Q15.756,18.507 15.855,18.285 Q15.86,18.274 15.865,18.263 Q16.25,17.467 16.25,16.53 Z"/>
</svg>

