<svg xmlns="http://www.w3.org/2000/svg" width="24" height="24" viewBox="0 0 24 24">
  <defs/>
  <path fill="#292D32" d="M20.17,17.571 C19.64,18.061 19.03,18.431 18.37,18.681 C17.71,18.931 17,18.451 17,17.741 L17,16.421 C17,14.471 15.42,12.891 13.47,12.891 L10.53,12.891 C8.58,12.891 7,14.471 7,16.421 L7,18.001 C7,18.551 6.55,19.001 6,19.001 L5.55,19.001 C3.1,18.631 2,16.641 2,14.861 C2,13.181 2.98,11.321 5.11,10.801 C4.52,8.471 5.02,6.281 6.54,4.691 C8.27,2.881 11.03,2.161 13.41,2.901 C15.6,3.571 17.14,5.371 17.69,7.871 C19.6,8.301 21.13,9.741 21.74,11.741 C22.4,13.911 21.8,16.141 20.17,17.571 Z"/>
  <path fill="#292D32" d="M13.47,14.391 L10.53,14.391 C9.26,14.391 8.5,15.151 8.5,16.421 L8.5,19.361 C8.5,20.631 9.26,21.391 10.53,21.391 L13.47,21.391 C14.74,21.391 15.5,20.631 15.5,19.361 L15.5,16.421 C15.5,15.151 14.74,14.391 13.47,14.391 Z M11.71,18.841 L10.47,20.071 C10.38,20.161 10.26,20.211 10.15,20.211 C10.02,20.211 9.91,20.161 9.82,20.071 C9.64,19.891 9.64,19.601 9.82,19.421 L11.05,18.181 C11.24,18.001 11.53,18.001 11.71,18.181 C11.89,18.361 11.89,18.661 11.71,18.841 Z M11.71,16.361 L10.47,17.601 C10.38,17.691 10.26,17.741 10.15,17.741 C10.02,17.741 9.91,17.691 9.82,17.601 C9.64,17.421 9.64,17.121 9.82,16.941 L11.05,15.711 C11.24,15.531 11.53,15.531 11.71,15.711 C11.89,15.891 11.89,16.181 11.71,16.361 Z M14.18,18.841 L12.95,20.071 C12.85,20.161 12.74,20.211 12.62,20.211 C12.5,20.211 12.38,20.161 12.29,20.071 C12.11,19.891 12.11,19.601 12.29,19.421 L13.53,18.181 C13.71,18.001 14,18.001 14.18,18.181 C14.36,18.361 14.36,18.661 14.18,18.841 Z M14.18,16.361 L12.95,17.601 C12.85,17.691 12.74,17.741 12.62,17.741 C12.5,17.741 12.38,17.691 12.29,17.601 C12.11,17.421 12.11,17.121 12.29,16.941 L13.53,15.711 C13.71,15.531 14,15.531 14.18,15.711 C14.36,15.891 14.36,16.181 14.18,16.361 Z"/>
</svg>

