<svg xmlns="http://www.w3.org/2000/svg" width="24" height="24" viewBox="0 0 24 24">
  <defs/>
  <path fill="#292D32" d="M8.109,11.85 C5.289,12.05 5.299,16.15 8.109,16.35 L14.779,16.35 C15.589,16.36 16.369,16.05 16.969,15.51 C18.949,13.78 17.889,10.31 15.289,9.98 C14.359,4.34 6.209,6.48 8.139,11.85"/>
  <path fill="#292D32" opacity="0.4" d="M9,22.75 C4.73,22.75 1.25,19.27 1.25,15 C1.25,14.59 1.59,14.25 2,14.25 C2.41,14.25 2.75,14.59 2.75,15 C2.75,17.96 4.81,20.44 7.58,21.09 L7.31,20.64 C7.1,20.28 7.21,19.82 7.57,19.61 C7.92,19.4 8.39,19.51 8.6,19.87 L9.65,21.62 C9.79,21.85 9.79,22.14 9.66,22.37 C9.52,22.6 9.27,22.75 9,22.75 Z"/>
  <path fill="#292D32" opacity="0.4" d="M22,9.75 C21.59,9.75 21.25,9.41 21.25,9 C21.25,6.04 19.19,3.56 16.42,2.91 L16.69,3.36 C16.9,3.72 16.79,4.18 16.43,4.39 C16.08,4.6 15.61,4.49 15.4,4.13 L14.35,2.38 C14.21,2.15 14.21,1.86 14.34,1.63 C14.47,1.39 14.72,1.25 14.99,1.25 C19.26,1.25 22.74,4.73 22.74,9 C22.75,9.41 22.41,9.75 22,9.75 Z"/>
</svg>

