<svg xmlns="http://www.w3.org/2000/svg" width="24" height="24" viewBox="0 0 24 24">
  <defs/>
  <path fill="#292D32" d="M19.201,14.781 C18.341,15.571 17.201,16.011 16.031,16.001 L6.371,16.001 C2.301,15.711 2.291,9.801 6.371,9.511 L6.411,9.511 C3.621,1.751 15.411,-1.339 16.761,6.801 C20.531,7.281 22.061,12.291 19.201,14.781 Z"/>
  <path fill="#292D32" d="M18.75,21 C18.75,21.41 18.41,21.75 18,21.75 L14,21.75 C13.95,21.75 13.91,21.75 13.86,21.73 C13.57,22.47 12.84,23 12,23 C11.16,23 10.43,22.47 10.14,21.73 C10.09,21.75 10.05,21.75 10,21.75 L6,21.75 C5.59,21.75 5.25,21.41 5.25,21 C5.25,20.59 5.59,20.25 6,20.25 L10,20.25 C10.05,20.25 10.09,20.25 10.14,20.27 C10.34,19.75 10.75,19.34 11.27,19.14 C11.25,19.09 11.25,19.05 11.25,19 L11.25,16 L12.75,16 L12.75,19 C12.75,19.05 12.75,19.09 12.73,19.14 C13.25,19.34 13.66,19.75 13.86,20.27 C13.91,20.25 13.95,20.25 14,20.25 L18,20.25 C18.41,20.25 18.75,20.59 18.75,21 Z"/>
</svg>

