<svg xmlns="http://www.w3.org/2000/svg" width="24" height="24" viewBox="0 0 24 24">
  <defs/>
  <path fill="#292D32" d="M16.669,20.83 C16.649,20.83 16.639,20.83 16.629,20.83 L5.539,20.83 C2.599,20.62 1.279,18.35 1.279,16.34 C1.279,14.54 2.329,12.54 4.609,11.99 C3.609,8.15 5.509,5.46 7.749,4.19 C10.349,2.71 14.219,2.7 16.569,5.55 C16.589,5.58 16.609,5.61 16.629,5.64 C17.329,6.53 17.819,7.6 18.099,8.84 C19.329,9.11 20.389,9.77 21.219,10.75 C23.109,12.98 23.469,16.86 20.769,19.24 C19.649,20.27 18.199,20.83 16.669,20.83 Z M11.489,4.7 C10.429,4.7 9.379,4.99 8.499,5.49 C6.079,6.87 5.259,9.43 6.299,12.35 C6.379,12.58 6.349,12.84 6.209,13.03 C6.069,13.22 5.839,13.35 5.599,13.35 C3.659,13.49 2.789,14.95 2.789,16.34 C2.789,17.73 3.659,19.19 5.599,19.34 L16.639,19.34 C17.799,19.35 18.919,18.92 19.769,18.14 L19.779,18.13 C21.809,16.35 21.509,13.42 20.079,11.73 C19.379,10.9 18.449,10.39 17.379,10.25 C17.049,10.21 16.789,9.96 16.739,9.63 C16.529,8.39 16.089,7.35 15.429,6.53 C15.409,6.51 15.399,6.48 15.379,6.46 C14.319,5.22 12.899,4.7 11.489,4.7 Z"/>
  <path fill="#292D32" d="M7.26,13.76 C7.15,13.76 7.03,13.73 6.93,13.68 C6.51,13.47 6.05,13.36 5.58,13.35 C5.17,13.34 4.84,13 4.84,12.59 C4.85,12.18 5.24,11.84 5.6,11.85 C6.29,11.86 6.98,12.03 7.59,12.34 C7.96,12.52 8.11,12.98 7.93,13.35 C7.8,13.61 7.54,13.76 7.26,13.76 Z"/>
  <path fill="#292D32" d="M15.85,10.67 C15.57,10.67 15.31,10.52 15.18,10.25 C14.99,9.88 15.15,9.43 15.52,9.24 C16.14,8.93 16.83,8.76 17.51,8.75 C17.91,8.74 18.27,9.07 18.27,9.49 C18.28,9.9 17.95,10.25 17.53,10.25 C17.07,10.26 16.6,10.37 16.18,10.58 C16.07,10.64 15.96,10.67 15.85,10.67 Z"/>
  <path fill="#292D32" d="M20.65,11.98 C20.44,11.98 20.22,11.89 20.07,11.71 C19.38,10.88 18.44,10.37 17.37,10.23 C17.04,10.19 16.78,9.94 16.73,9.61 C16.52,8.37 16.08,7.33 15.42,6.51 C15.31,6.38 15.25,6.21 15.25,6.04 C15.25,5.84 15.33,5.64 15.47,5.5 C16.27,4.69 17.33,4.25 18.47,4.25 C20.81,4.25 22.72,6.16 22.72,8.5 C22.72,9.8 22.14,11.01 21.12,11.82 C20.98,11.93 20.82,11.98 20.65,11.98 Z M18.11,8.84 C19.07,9.05 19.94,9.5 20.66,10.16 C21.02,9.69 21.22,9.11 21.22,8.5 C21.22,6.98 19.99,5.75 18.47,5.75 C17.95,5.75 17.45,5.89 17.02,6.17 C17.53,6.94 17.89,7.84 18.11,8.84 Z"/>
</svg>

