<svg xmlns="http://www.w3.org/2000/svg" width="24" height="24" viewBox="0 0 24 24">
  <defs/>
  <path fill="#292D32" d="M20.17,17.571 C19.64,18.061 19.03,18.431 18.37,18.681 C17.71,18.931 17,18.451 17,17.741 L17,16.421 C17,14.471 15.42,12.891 13.47,12.891 L10.53,12.891 C8.58,12.891 7,14.471 7,16.421 L7,18.001 C7,18.551 6.55,19.001 6,19.001 L5.55,19.001 C3.1,18.631 2,16.641 2,14.861 C2,13.181 2.98,11.321 5.11,10.801 C4.52,8.471 5.02,6.281 6.54,4.691 C8.27,2.881 11.03,2.161 13.41,2.901 C15.6,3.571 17.14,5.371 17.69,7.871 C19.6,8.301 21.13,9.741 21.74,11.741 C22.4,13.911 21.8,16.141 20.17,17.571 Z"/>
  <path fill="#292D32" d="M13.47,14.391 L10.53,14.391 C9.26,14.391 8.5,15.151 8.5,16.421 L8.5,19.361 C8.5,20.631 9.26,21.391 10.53,21.391 L13.47,21.391 C14.74,21.391 15.5,20.631 15.5,19.361 L15.5,16.421 C15.5,15.151 14.74,14.391 13.47,14.391 Z M10.5,17.631 C10.08,17.631 9.75,17.291 9.75,16.881 C9.75,16.471 10.08,16.131 10.5,16.131 C10.92,16.131 11.25,16.471 11.25,16.881 C11.25,17.291 10.91,17.631 10.5,17.631 Z M12,19.881 C11.59,19.881 11.25,19.541 11.25,19.131 C11.25,18.721 11.59,18.381 12,18.381 C12.41,18.381 12.75,18.721 12.75,19.131 C12.75,19.541 12.42,19.881 12,19.881 Z M13.51,17.631 C13.09,17.631 12.76,17.291 12.76,16.881 C12.76,16.471 13.09,16.131 13.51,16.131 C13.93,16.131 14.26,16.471 14.26,16.881 C14.26,17.291 13.92,17.631 13.51,17.631 Z"/>
</svg>

