<svg xmlns="http://www.w3.org/2000/svg" width="24" height="24" viewBox="0 0 24 24">
  <defs/>
  <path fill="#292D32" d="M13.47,14.39 L10.53,14.39 C9.26,14.39 8.5,15.15 8.5,16.42 L8.5,19.36 C8.5,20.63 9.26,21.39 10.53,21.39 L13.47,21.39 C14.74,21.39 15.5,20.63 15.5,19.36 L15.5,16.42 C15.5,15.15 14.74,14.39 13.47,14.39 Z M14.41,18.32 C14.31,18.42 14.16,18.49 14,18.5 L12.59,18.5 L12.6,19.89 C12.59,20.06 12.53,20.2 12.41,20.32 C12.31,20.42 12.16,20.49 12,20.49 C11.67,20.49 11.4,20.22 11.4,19.89 L11.4,18.49 L10,18.5 C9.67,18.5 9.4,18.22 9.4,17.89 C9.4,17.56 9.67,17.29 10,17.29 L11.4,17.3 L11.4,15.9 C11.4,15.57 11.67,15.29 12,15.29 C12.33,15.29 12.6,15.57 12.6,15.9 L12.59,17.29 L14,17.29 C14.33,17.29 14.6,17.56 14.6,17.89 C14.59,18.06 14.52,18.2 14.41,18.32 Z"/>
  <path fill="#292D32" opacity="0.4" d="M21.74,11.74 C21.13,9.74 19.61,8.3 17.7,7.87 C17.14,5.37 15.6,3.58 13.42,2.9 C11.04,2.17 8.28,2.88 6.55,4.69 C5.02,6.28 4.52,8.47 5.11,10.8 C2.98,11.32 2,13.18 2,14.86 C2,16.74 3.23,18.85 5.97,19.04 L8.5,19.04 L8.5,16.41 C8.5,15.14 9.26,14.38 10.53,14.38 L13.47,14.38 C14.74,14.38 15.5,15.14 15.5,16.41 L15.5,19.04 L16.31,19.04 C16.32,19.04 16.34,19.04 16.35,19.04 C17.77,19.04 19.13,18.51 20.17,17.56 C21.8,16.14 22.4,13.91 21.74,11.74 Z"/>
</svg>

