<svg xmlns="http://www.w3.org/2000/svg" width="24" height="24" viewBox="0 0 24 24">
  <defs/>
  <path fill="#292D32" d="M16.06,16.75 C16.05,16.75 16.04,16.75 16.02,16.75 L6.36,16.75 C3.73,16.57 2.55,14.55 2.55,12.75 C2.55,11.17 3.46,9.42 5.44,8.9 C4.92,6.73 5.4,4.7 6.81,3.22 C8.45,1.5 11.07,0.82 13.34,1.52 C15.4,2.15 16.85,3.83 17.39,6.16 C19.18,6.59 20.61,7.95 21.18,9.83 C21.81,11.89 21.23,14 19.68,15.35 C18.71,16.25 17.42,16.75 16.06,16.75 Z M6.4,10.26 C4.79,10.39 4.07,11.6 4.07,12.75 C4.07,13.91 4.8,15.13 6.43,15.25 L16.04,15.25 C16.05,15.25 16.06,15.25 16.07,15.25 C17.05,15.25 17.99,14.89 18.7,14.23 C20.02,13.08 20.11,11.43 19.76,10.26 C19.4,9.09 18.41,7.77 16.67,7.55 C16.34,7.51 16.08,7.26 16.02,6.93 C15.68,4.88 14.57,3.47 12.91,2.96 C11.2,2.44 9.15,2.97 7.91,4.27 C6.7,5.54 6.42,7.31 7.12,9.27 C7.26,9.66 7.06,10.09 6.67,10.23 C6.58,10.25 6.5,10.27 6.4,10.26 Z"/>
  <path fill="#292D32" d="M12,19.75 C11.59,19.75 11.25,19.41 11.25,19 L11.25,16 C11.25,15.59 11.59,15.25 12,15.25 C12.41,15.25 12.75,15.59 12.75,16 L12.75,19 C12.75,19.41 12.41,19.75 12,19.75 Z"/>
  <path fill="#292D32" d="M12,23.75 C10.48,23.75 9.25,22.52 9.25,21 C9.25,19.48 10.48,18.25 12,18.25 C13.52,18.25 14.75,19.48 14.75,21 C14.75,22.52 13.52,23.75 12,23.75 Z M12,19.75 C11.31,19.75 10.75,20.31 10.75,21 C10.75,21.69 11.31,22.25 12,22.25 C12.69,22.25 13.25,21.69 13.25,21 C13.25,20.31 12.69,19.75 12,19.75 Z"/>
  <path fill="#292D32" d="M18,21.75 L14,21.75 C13.59,21.75 13.25,21.41 13.25,21 C13.25,20.59 13.59,20.25 14,20.25 L18,20.25 C18.41,20.25 18.75,20.59 18.75,21 C18.75,21.41 18.41,21.75 18,21.75 Z"/>
  <path fill="#292D32" d="M10,21.75 L6,21.75 C5.59,21.75 5.25,21.41 5.25,21 C5.25,20.59 5.59,20.25 6,20.25 L10,20.25 C10.41,20.25 10.75,20.59 10.75,21 C10.75,21.41 10.41,21.75 10,21.75 Z"/>
</svg>

