<svg xmlns="http://www.w3.org/2000/svg" width="24" height="24" viewBox="0 0 24 24">
  <defs/>
  <path fill="#292D32" d="M20.771,19.238 Q19.015,20.848 16.624,20.83 L5.539,20.83 Q5.512,20.83 5.485,20.828 Q1.286,20.522 1.283,16.341 Q1.281,12.623 4.601,11.968 Q3.116,6.612 7.979,4.065 Q13.119,1.372 16.577,5.552 Q16.614,5.597 16.643,5.644 Q17.698,6.978 18.108,8.84 Q19.966,9.245 21.225,10.749 Q22.772,12.579 22.721,14.997 Q22.666,17.571 20.771,19.238 Z M19.762,18.128 Q19.768,18.122 19.775,18.116 Q21.18,16.884 21.221,14.965 Q21.26,13.114 20.074,11.711 Q19.013,10.444 17.374,10.234 Q16.821,10.163 16.73,9.613 Q16.421,7.745 15.418,6.514 Q15.388,6.478 15.364,6.44 Q12.695,3.287 8.675,5.393 Q4.575,7.542 6.296,12.347 Q6.339,12.47 6.339,12.6 Q6.339,12.911 6.12,13.13 Q5.9,13.35 5.589,13.35 L5.568,13.35 Q2.781,13.566 2.783,16.34 Q2.785,19.114 5.568,19.33 L16.635,19.33 Q18.44,19.343 19.762,18.128 Z"/>
  <path fill="#292D32" d="M6.924,13.681 Q6.287,13.362 5.577,13.35 Q5.266,13.345 5.05,13.121 Q4.835,12.898 4.84,12.587 Q4.845,12.277 5.069,12.061 Q5.292,11.845 5.603,11.85 Q6.653,11.868 7.595,12.339 Q7.873,12.478 7.971,12.773 Q8.07,13.068 7.931,13.346 Q7.792,13.623 7.497,13.722 Q7.202,13.82 6.924,13.681 Z"/>
  <path fill="#292D32" d="M15.514,9.249 Q16.456,8.778 17.507,8.76 Q17.817,8.755 18.041,8.97 Q18.264,9.186 18.269,9.497 Q18.275,9.807 18.059,10.031 Q17.843,10.254 17.533,10.26 Q16.822,10.272 16.185,10.591 Q15.907,10.73 15.612,10.631 Q15.318,10.533 15.179,10.255 Q15.04,9.977 15.138,9.683 Q15.236,9.388 15.514,9.249 Z"/>
  <path fill="#292D32" opacity="0.4" d="M22.72,8.5 Q22.72,10.55 21.115,11.818 Q20.876,12.007 20.573,11.976 Q20.27,11.945 20.075,11.711 Q19.014,10.443 17.375,10.234 Q16.821,10.163 16.73,9.612 Q16.421,7.745 15.418,6.513 Q15.25,6.307 15.25,6.04 L15.25,6.03 Q15.25,5.723 15.466,5.504 Q16.7,4.25 18.47,4.25 Q20.228,4.25 21.474,5.496 Q22.72,6.742 22.72,8.5 Z M21.22,8.5 Q21.22,7.363 20.413,6.557 Q19.607,5.75 18.47,5.75 Q17.654,5.75 17.016,6.162 Q17.775,7.326 18.108,8.839 Q19.575,9.159 20.668,10.164 Q21.22,9.467 21.22,8.5 Z"/>
</svg>

