<svg xmlns="http://www.w3.org/2000/svg" width="24" height="24" viewBox="0 0 24 24">
  <defs/>
  <path fill="#292D32" d="M19.799,12 L4.199,12 C3.979,12 3.779,11.85 3.709,11.64 C0.959,2.55 14.839,-0.94 16.439,8.82 C18.099,9.03 19.409,9.97 20.219,11.23 C20.439,11.56 20.189,12 19.799,12 Z"/>
  <path fill="#292D32" opacity="0.4" d="M20,15.78 L4,15.78 C3.59,15.78 3.25,15.44 3.25,15.03 C3.25,14.62 3.59,14.28 4,14.28 L20,14.28 C20.41,14.28 20.75,14.62 20.75,15.03 C20.75,15.44 20.41,15.78 20,15.78 Z"/>
  <path fill="#292D32" opacity="0.4" d="M18,18.78 L6,18.78 C5.59,18.78 5.25,18.44 5.25,18.03 C5.25,17.62 5.59,17.28 6,17.28 L18,17.28 C18.41,17.28 18.75,17.62 18.75,18.03 C18.75,18.44 18.41,18.78 18,18.78 Z"/>
  <path fill="#292D32" opacity="0.4" d="M15,21.78 L9,21.78 C8.59,21.78 8.25,21.44 8.25,21.03 C8.25,20.62 8.59,20.28 9,20.28 L15,20.28 C15.41,20.28 15.75,20.62 15.75,21.03 C15.75,21.44 15.41,21.78 15,21.78 Z"/>
</svg>

