<svg xmlns="http://www.w3.org/2000/svg" width="24" height="24" viewBox="0 0 24 24">
  <defs/>
  <path fill="#292D32" d="M5.704,9.764 Q4.602,6.699 6.013,4.289 Q7.271,2.141 9.842,1.467 Q12.415,0.793 14.56,2.051 Q16.764,3.343 17.397,6.148 Q19.927,6.699 21.001,9.299 Q22.164,12.115 20.49,14.456 Q20.309,14.709 20.003,14.76 Q19.697,14.811 19.444,14.63 Q19.191,14.449 19.14,14.143 Q19.089,13.836 19.27,13.584 Q20.46,11.919 19.614,9.871 Q18.762,7.808 16.666,7.544 Q16.112,7.474 16.02,6.923 Q15.602,4.4 13.802,3.345 Q12.193,2.402 10.223,2.918 Q8.252,3.434 7.308,5.047 Q6.251,6.851 7.116,9.256 Q7.221,9.549 7.088,9.83 Q6.956,10.111 6.664,10.216 Q6.371,10.321 6.09,10.188 Q5.809,10.056 5.704,9.764 Z"/>
  <path fill="#292D32" d="M6.424,10.258 Q4.063,10.426 4.064,12.754 Q4.066,15.071 6.398,15.25 L16.031,15.25 Q16.341,15.25 16.561,15.47 Q16.781,15.689 16.781,16 Q16.781,16.311 16.561,16.53 Q16.341,16.75 16.031,16.75 L6.371,16.75 Q6.344,16.75 6.317,16.748 Q2.567,16.481 2.564,12.756 Q2.561,9.029 6.318,8.762 Q6.627,8.74 6.862,8.943 Q7.097,9.147 7.119,9.457 Q7.141,9.767 6.937,10.001 Q6.734,10.236 6.424,10.258 Z"/>
  <path fill="#292D32" d="M12.75,16 L12.75,19 Q12.75,19.311 12.53,19.53 Q12.311,19.75 12,19.75 Q11.689,19.75 11.47,19.53 Q11.25,19.311 11.25,19 L11.25,16 Q11.25,15.689 11.47,15.47 Q11.689,15.25 12,15.25 Q12.311,15.25 12.53,15.47 Q12.75,15.689 12.75,16 Z"/>
  <path fill="#292D32" d="M9.25,21 Q9.25,18.25 12,18.25 Q14.75,18.25 14.75,21 Q14.75,23.75 12,23.75 Q11.689,23.75 11.47,23.53 Q11.25,23.311 11.25,23 Q11.25,22.689 11.47,22.47 Q11.689,22.25 12,22.25 Q13.25,22.25 13.25,21 Q13.25,20.486 12.882,20.118 Q12.514,19.75 12,19.75 Q10.75,19.75 10.75,21 Q10.75,21.311 10.53,21.53 Q10.311,21.75 10,21.75 Q9.689,21.75 9.47,21.53 Q9.25,21.311 9.25,21 Z"/>
  <path fill="#292D32" d="M18,21.75 L14,21.75 Q13.689,21.75 13.47,21.53 Q13.25,21.311 13.25,21 Q13.25,20.689 13.47,20.47 Q13.689,20.25 14,20.25 L18,20.25 Q18.311,20.25 18.53,20.47 Q18.75,20.689 18.75,21 Q18.75,21.311 18.53,21.53 Q18.311,21.75 18,21.75 Z"/>
  <path fill="#292D32" d="M10,21.75 L6,21.75 Q5.689,21.75 5.47,21.53 Q5.25,21.311 5.25,21 Q5.25,20.689 5.47,20.47 Q5.689,20.25 6,20.25 L10,20.25 Q10.311,20.25 10.53,20.47 Q10.75,20.689 10.75,21 Q10.75,21.311 10.53,21.53 Q10.311,21.75 10,21.75 Z"/>
</svg>

