<svg xmlns="http://www.w3.org/2000/svg" width="24" height="24" viewBox="0 0 24 24">
  <defs/>
  <path fill="#292D32" d="M16.649,20.75 C16.64,20.75 16.619,20.75 16.61,20.75 C16.2,20.75 15.86,20.41 15.87,19.99 C15.87,19.58 16.22,19.21 16.63,19.25 C17.79,19.25 18.89,18.83 19.739,18.05 C21.29,16.69 21.399,14.75 20.98,13.38 C20.559,12.01 19.39,10.46 17.369,10.2 C17.04,10.16 16.779,9.91 16.72,9.58 C16.329,7.19 15.03,5.54 13.089,4.94 C11.069,4.32 8.739,4.93 7.279,6.46 C5.859,7.95 5.529,10.02 6.349,12.31 C6.489,12.7 6.289,13.13 5.899,13.27 C5.509,13.41 5.079,13.21 4.939,12.82 C3.929,10.01 4.389,7.32 6.199,5.43 C8.049,3.5 10.989,2.73 13.54,3.52 C15.87,4.24 17.52,6.16 18.11,8.82 C20.149,9.28 21.779,10.82 22.43,12.95 C23.14,15.27 22.5,17.65 20.759,19.17 C19.61,20.19 18.16,20.75 16.649,20.75 Z"/>
  <path fill="#292D32" d="M5.57,20.75 C5.55,20.75 5.53,20.75 5.52,20.75 C2.64,20.55 1.33,18.29 1.33,16.28 C1.33,14.27 2.64,12.02 5.52,11.81 C6.28,11.82 6.99,11.97 7.63,12.29 C8,12.48 8.14,12.93 7.96,13.3 C7.77,13.67 7.32,13.81 6.95,13.63 C6.53,13.41 6.05,13.31 5.59,13.31 C3.7,13.45 2.84,14.9 2.84,16.28 C2.84,17.66 3.7,19.11 5.63,19.25 C6.04,19.28 6.35,19.64 6.33,20.05 C6.29,20.45 5.96,20.75 5.57,20.75 Z"/>
  <path fill="#292D32" d="M15.821,10.64 C15.541,10.64 15.281,10.49 15.151,10.22 C14.961,9.85 15.111,9.4 15.491,9.21 C16.101,8.9 16.791,8.73 17.471,8.72 L17.481,8.72 C17.891,8.72 18.221,9.05 18.231,9.46 C18.241,9.87 17.911,10.22 17.491,10.22 C17.031,10.23 16.571,10.34 16.151,10.55 C16.041,10.62 15.931,10.64 15.821,10.64 Z"/>
  <path fill="#292D32" d="M10.611,22.62 C10.481,22.62 10.341,22.6 10.211,22.55 C9.771,22.38 9.481,21.97 9.481,21.5 L9.481,19.92 L9.231,19.92 C8.481,19.92 8.211,19.48 8.121,19.3 C8.041,19.1 7.901,18.6 8.391,18.05 L10.841,15.26 C11.151,14.91 11.641,14.78 12.081,14.95 C12.521,15.12 12.811,15.53 12.811,16 L12.811,17.58 L13.061,17.58 C13.801,17.58 14.081,18.02 14.171,18.2 C14.261,18.38 14.401,18.88 13.911,19.44 L11.461,22.23 C11.231,22.48 10.921,22.62 10.611,22.62 Z M10.061,18.41 L10.231,18.41 C10.641,18.41 10.981,18.75 10.981,19.16 L10.981,20.49 L12.221,19.08 L12.051,19.08 C11.641,19.08 11.301,18.74 11.301,18.33 L11.301,17 L10.061,18.41 Z"/>
</svg>

