<svg xmlns="http://www.w3.org/2000/svg" width="24" height="24" viewBox="0 0 24 24">
  <defs/>
  <path fill="#292D32" d="M21.74,12.909 C21.48,12.049 21.05,11.299 20.48,10.689 C19.75,9.859 18.78,9.289 17.69,9.039 C17.14,6.539 15.6,4.739 13.41,4.069 C11.03,3.329 8.27,4.049 6.54,5.859 C5.02,7.449 4.52,9.639 5.11,11.969 C3.11,12.459 2.12,14.129 2.01,15.719 C2,15.829 2,15.929 2,16.029 C2,17.909 3.23,20.019 5.97,20.219 L16.35,20.219 C17.77,20.219 19.13,19.689 20.17,18.739 C21.8,17.309 22.4,15.079 21.74,12.909 Z"/>
</svg>

