<svg xmlns="http://www.w3.org/2000/svg" width="24" height="24" viewBox="0 0 24 24">
  <defs/>
  <path fill="#292D32" d="M16.649,20.75 C16.64,20.75 16.619,20.75 16.61,20.75 C16.2,20.75 15.86,20.41 15.87,19.99 C15.87,19.58 16.239,19.21 16.63,19.25 C17.73,19.25 18.89,18.83 19.739,18.05 C21.29,16.69 21.399,14.75 20.98,13.38 C20.559,12.01 19.39,10.46 17.369,10.2 C17.04,10.16 16.779,9.91 16.72,9.58 C16.329,7.19 15.03,5.54 13.089,4.94 C11.069,4.32 8.739,4.93 7.279,6.46 C5.859,7.95 5.529,10.02 6.349,12.31 C6.489,12.7 6.289,13.13 5.899,13.27 C5.509,13.41 5.079,13.21 4.939,12.82 C3.929,10.01 4.389,7.32 6.199,5.43 C8.049,3.5 10.989,2.73 13.54,3.52 C15.87,4.24 17.52,6.16 18.11,8.82 C20.149,9.28 21.779,10.82 22.43,12.95 C23.14,15.27 22.5,17.65 20.759,19.17 C19.61,20.19 18.16,20.75 16.649,20.75 Z"/>
  <path fill="#292D32" d="M5.57,20.75 C5.55,20.75 5.53,20.75 5.52,20.75 C2.64,20.55 1.33,18.29 1.33,16.28 C1.33,14.27 2.64,12.02 5.52,11.81 C6.28,11.82 6.99,11.97 7.63,12.29 C8,12.48 8.14,12.93 7.96,13.3 C7.77,13.67 7.32,13.81 6.95,13.63 C6.53,13.41 6.06,13.31 5.59,13.31 C3.7,13.45 2.84,14.9 2.84,16.28 C2.84,17.66 3.7,19.11 5.63,19.25 C6.04,19.28 6.35,19.64 6.33,20.05 C6.29,20.45 5.96,20.75 5.57,20.75 Z"/>
  <path fill="#292D32" d="M15.821,10.64 C15.541,10.64 15.281,10.49 15.151,10.22 C14.961,9.85 15.111,9.4 15.491,9.21 C16.101,8.9 16.791,8.73 17.471,8.72 L17.481,8.72 C17.891,8.72 18.221,9.05 18.231,9.46 C18.241,9.87 17.911,10.22 17.491,10.22 C17.031,10.23 16.571,10.34 16.151,10.55 C16.041,10.62 15.931,10.64 15.821,10.64 Z"/>
  <path fill="#292D32" d="M12.98,19 C12.421,19 11.98,18.55 11.98,18 C11.98,17.45 12.431,17 12.98,17 C13.53,17 13.98,17.45 13.98,18 C13.98,18.55 13.53,19 12.98,19 Z"/>
  <path fill="#292D32" d="M8.98,19 C8.42,19 7.98,18.55 7.98,18 C7.98,17.45 8.43,17 8.98,17 C9.53,17 9.98,17.45 9.98,18 C9.98,18.55 9.53,19 8.98,19 Z"/>
  <path fill="#292D32" d="M10.98,22 C10.421,22 9.98,21.55 9.98,21 C9.98,20.45 10.431,20 10.98,20 C11.53,20 11.98,20.45 11.98,21 C11.98,21.55 11.53,22 10.98,22 Z"/>
</svg>

