<svg xmlns="http://www.w3.org/2000/svg" width="24" height="24" viewBox="0 0 24 24">
  <defs/>
  <path fill="#292D32" d="M21.272,8.762 C21.272,9.782 20.802,10.702 20.042,11.302 C19.492,11.752 18.782,12.022 18.012,12.022 C16.222,12.022 14.762,10.562 14.762,8.772 C14.762,7.882 15.122,7.072 15.722,6.482 L15.722,6.472 C16.312,5.882 17.122,5.512 18.012,5.512 C19.812,5.512 21.272,6.972 21.272,8.762 Z"/>
  <path fill="#292D32" d="M20.182,18.729 C19.132,19.689 17.782,20.219 16.352,20.219 L5.972,20.219 C3.232,20.019 2.012,17.909 2.012,16.029 C2.012,14.349 2.982,12.489 5.112,11.969 C4.182,8.389 5.962,5.889 8.042,4.699 C10.102,3.529 13.002,3.339 15.182,4.949 C14.992,5.089 14.822,5.239 14.652,5.409 L14.222,5.859 L14.222,5.919 C13.602,6.729 13.262,7.719 13.262,8.759 C13.262,11.379 15.402,13.509 18.022,13.509 C19.102,13.509 20.152,13.139 20.972,12.469 C21.122,12.349 21.272,12.219 21.402,12.079 C22.392,14.159 22.252,16.919 20.182,18.729 Z"/>
</svg>

