<svg xmlns="http://www.w3.org/2000/svg" width="24" height="24" viewBox="0 0 24 24">
  <defs/>
  <path fill="#292D32" d="M4.29,12.37 C3.98,12.37 3.69,12.18 3.58,11.87 C2.57,9.05 3.03,6.34 4.84,4.45 C6.69,2.51 9.65,1.74 12.21,2.53 C14.55,3.25 16.2,5.18 16.8,7.86 C18.6,8.27 20.11,9.53 20.88,11.33 C21.04,11.71 20.87,12.15 20.49,12.32 C20.11,12.48 19.67,12.31 19.5,11.93 C18.85,10.43 17.6,9.46 16.06,9.26 C15.73,9.22 15.47,8.97 15.41,8.64 C15.01,6.24 13.71,4.58 11.76,3.98 C9.74,3.36 7.39,3.97 5.92,5.5 C4.49,6.99 4.16,9.08 4.98,11.38 C5.12,11.77 4.92,12.2 4.53,12.34 C4.46,12.35 4.37,12.37 4.29,12.37 Z"/>
  <path fill="#292D32" d="M14.54,9.68 C14.259,9.68 13.999,9.53 13.87,9.26 C13.68,8.89 13.839,8.44 14.21,8.25 C14.839,7.94 15.509,7.77 16.2,7.76 C16.63,7.78 16.959,8.08 16.959,8.5 C16.97,8.91 16.639,9.26 16.219,9.26 C15.749,9.27 15.3,9.38 14.87,9.59 C14.759,9.66 14.649,9.68 14.54,9.68 Z"/>
  <path fill="#292D32" d="M20,15.78 L4,15.78 C3.59,15.78 3.25,15.44 3.25,15.03 C3.25,14.62 3.59,14.28 4,14.28 L20,14.28 C20.41,14.28 20.75,14.62 20.75,15.03 C20.75,15.44 20.41,15.78 20,15.78 Z"/>
  <path fill="#292D32" d="M18,18.78 L6,18.78 C5.59,18.78 5.25,18.44 5.25,18.03 C5.25,17.62 5.59,17.28 6,17.28 L18,17.28 C18.41,17.28 18.75,17.62 18.75,18.03 C18.75,18.44 18.41,18.78 18,18.78 Z"/>
  <path fill="#292D32" d="M15,21.78 L9,21.78 C8.59,21.78 8.25,21.44 8.25,21.03 C8.25,20.62 8.59,20.28 9,20.28 L15,20.28 C15.41,20.28 15.75,20.62 15.75,21.03 C15.75,21.44 15.41,21.78 15,21.78 Z"/>
</svg>

