<svg xmlns="http://www.w3.org/2000/svg" width="24" height="24" viewBox="0 0 24 24">
  <defs/>
  <path fill="#292D32" d="M16.669,20.83 C16.649,20.83 16.639,20.83 16.629,20.83 L5.539,20.83 C2.599,20.62 1.279,18.35 1.279,16.34 C1.279,14.54 2.329,12.54 4.609,11.99 C3.979,9.47 4.529,7.11 6.189,5.4 C8.069,3.46 11.059,2.71 13.609,3.54 C13.999,3.67 14.219,4.09 14.089,4.48 C13.959,4.87 13.539,5.09 13.149,4.96 C11.119,4.31 8.749,4.9 7.259,6.45 C5.809,7.95 5.469,10.04 6.299,12.35 C6.379,12.58 6.349,12.84 6.209,13.03 C6.069,13.22 5.839,13.35 5.599,13.35 C3.659,13.49 2.789,14.95 2.789,16.34 C2.789,17.73 3.659,19.19 5.599,19.34 L16.639,19.34 C17.779,19.35 18.919,18.92 19.769,18.14 C20.919,17.13 21.419,15.66 21.169,14.1 C21.099,13.69 21.379,13.31 21.789,13.24 C22.199,13.17 22.579,13.45 22.649,13.86 C22.989,15.92 22.279,17.94 20.779,19.26 C19.659,20.26 18.199,20.83 16.669,20.83 Z"/>
  <path fill="#292D32" d="M7.26,13.76 C7.15,13.76 7.03,13.73 6.93,13.68 C6.51,13.47 6.05,13.36 5.58,13.35 C5.17,13.34 4.84,13 4.84,12.59 C4.85,12.18 5.24,11.84 5.6,11.85 C6.29,11.86 6.98,12.03 7.59,12.34 C7.96,12.52 8.11,12.98 7.93,13.35 C7.8,13.61 7.54,13.76 7.26,13.76 Z"/>
  <path fill="#292D32" d="M18.471,12.75 C16.131,12.75 14.221,10.84 14.221,8.5 C14.221,7.4 14.641,6.36 15.401,5.58 C15.421,5.55 15.441,5.53 15.461,5.51 C16.261,4.7 17.321,4.26 18.461,4.26 C20.801,4.26 22.711,6.17 22.711,8.51 C22.711,9.81 22.131,11.02 21.111,11.83 C20.381,12.42 19.441,12.75 18.471,12.75 Z M16.601,6.5 C16.581,6.53 16.561,6.55 16.531,6.58 C16.011,7.09 15.721,7.78 15.721,8.51 C15.721,10.03 16.951,11.26 18.471,11.26 C19.091,11.26 19.701,11.05 20.181,10.66 C20.851,10.13 21.221,9.35 21.221,8.51 C21.221,6.99 19.991,5.76 18.471,5.76 C17.761,5.75 17.101,6.02 16.601,6.5 Z"/>
</svg>

