<svg xmlns="http://www.w3.org/2000/svg" width="24" height="24" viewBox="0 0 24 24">
  <defs/>
  <path fill="#292D32" d="M15.514,9.249 Q16.456,8.778 17.507,8.76 Q17.817,8.755 18.041,8.971 Q18.264,9.186 18.269,9.497 Q18.275,9.808 18.059,10.031 Q17.843,10.255 17.533,10.26 Q16.822,10.272 16.185,10.591 Q15.907,10.73 15.612,10.632 Q15.318,10.533 15.179,10.255 Q15.04,9.978 15.138,9.683 Q15.236,9.388 15.514,9.249 Z"/>
  <path fill="#292D32" d="M11.929,4.648 Q8.996,4.406 7.108,6.526 Q5.061,8.824 6.296,12.267 Q6.401,12.559 6.269,12.84 Q6.136,13.121 5.844,13.226 Q5.551,13.331 5.27,13.198 Q4.989,13.066 4.884,12.773 Q3.348,8.492 5.988,5.529 Q8.374,2.85 12.052,3.153 Q12.361,3.178 12.562,3.415 Q12.763,3.652 12.738,3.962 Q12.712,4.271 12.475,4.472 Q12.238,4.673 11.929,4.648 Z"/>
  <path fill="#292D32" d="M6.919,13.598 Q6.286,13.276 5.565,13.27 Q2.779,13.48 2.779,16.255 Q2.779,19.031 5.567,19.24 L16.629,19.24 Q18.439,19.253 19.762,18.038 Q19.769,18.031 19.776,18.025 Q21.878,16.192 21.009,13.344 Q20.141,10.495 17.375,10.144 Q16.82,10.073 16.729,9.522 Q16.42,7.642 15.401,6.407 Q15.203,6.168 15.233,5.859 Q15.262,5.549 15.502,5.352 Q15.741,5.154 16.051,5.183 Q16.36,5.213 16.558,5.452 Q17.682,6.815 18.107,8.745 Q21.379,9.412 22.444,12.906 Q23.594,16.679 20.77,19.149 Q19.014,20.758 16.629,20.74 L5.539,20.74 Q5.513,20.74 5.487,20.738 Q1.279,20.441 1.279,16.255 Q1.279,12.068 5.487,11.772 Q5.513,11.77 5.539,11.77 Q6.635,11.77 7.6,12.262 Q7.877,12.403 7.973,12.698 Q8.069,12.994 7.928,13.27 Q7.787,13.547 7.491,13.643 Q7.196,13.739 6.919,13.598 Z"/>
  <path fill="#292D32" d="M15.504,9.169 Q16.446,8.698 17.497,8.68 Q17.807,8.675 18.031,8.891 Q18.254,9.106 18.26,9.417 Q18.265,9.728 18.049,9.951 Q17.833,10.174 17.523,10.18 Q16.813,10.192 16.175,10.511 Q15.897,10.65 15.603,10.551 Q15.308,10.453 15.169,10.175 Q15.03,9.897 15.128,9.603 Q15.227,9.308 15.504,9.169 Z"/>
</svg>

