<svg xmlns="http://www.w3.org/2000/svg" width="24" height="24" viewBox="0 0 24 24">
  <defs/>
  <path fill="#292D32" opacity="0.4" d="M21.74,11.74 C21.13,9.74 19.61,8.3 17.7,7.87 C17.14,5.37 15.6,3.58 13.42,2.9 C11.04,2.17 8.28,2.88 6.55,4.69 C5.02,6.28 4.52,8.47 5.11,10.8 C2.98,11.32 2,13.18 2,14.86 C2,16.74 3.23,18.85 5.97,19.04 L8.5,19.04 L8.5,16.41 C8.5,15.14 9.26,14.38 10.53,14.38 L13.47,14.38 C14.74,14.38 15.5,15.14 15.5,16.41 L15.5,19.04 L16.31,19.04 C16.32,19.04 16.34,19.04 16.35,19.04 C17.77,19.04 19.13,18.51 20.17,17.56 C21.8,16.14 22.4,13.91 21.74,11.74 Z"/>
  <path fill="#292D32" d="M13.47,14.39 L10.53,14.39 C9.26,14.39 8.5,15.15 8.5,16.42 L8.5,19.36 C8.5,20.63 9.26,21.39 10.53,21.39 L13.47,21.39 C14.74,21.39 15.5,20.63 15.5,19.36 L15.5,16.42 C15.5,15.15 14.74,14.39 13.47,14.39 Z M10.5,17.63 C10.08,17.63 9.75,17.29 9.75,16.88 C9.75,16.47 10.08,16.13 10.5,16.13 C10.92,16.13 11.25,16.47 11.25,16.88 C11.25,17.29 10.91,17.63 10.5,17.63 Z M12,19.88 C11.59,19.88 11.25,19.54 11.25,19.13 C11.25,18.72 11.59,18.38 12,18.38 C12.41,18.38 12.75,18.72 12.75,19.13 C12.75,19.54 12.42,19.88 12,19.88 Z M13.51,17.63 C13.09,17.63 12.76,17.29 12.76,16.88 C12.76,16.47 13.09,16.13 13.51,16.13 C13.93,16.13 14.26,16.47 14.26,16.88 C14.26,17.29 13.92,17.63 13.51,17.63 Z"/>
</svg>

