<svg xmlns="http://www.w3.org/2000/svg" width="24" height="24" viewBox="0 0 24 24">
  <defs/>
  <path fill="#292D32" d="M7.46,19.34 L5.54,19.34 C2.6,19.13 1.28,16.87 1.28,14.86 C1.28,12.85 2.6,10.58 5.49,10.38 C5.9,10.34 6.26,10.66 6.29,11.08 C6.32,11.49 6.01,11.85 5.59,11.88 C3.65,12.02 2.78,13.48 2.78,14.87 C2.78,16.26 3.65,17.72 5.59,17.86 L7.46,17.86 C7.87,17.86 8.21,18.2 8.21,18.61 C8.21,19.02 7.87,19.34 7.46,19.34 Z"/>
  <path fill="#292D32" d="M16.67,19.34 C16.65,19.34 16.64,19.34 16.62,19.34 C16.21,19.34 15.83,19 15.83,18.59 C15.83,18.16 16.15,17.84 16.57,17.84 C17.8,17.84 18.9,17.41 19.76,16.64 C21.32,15.28 21.42,13.32 21,11.94 C20.58,10.57 19.41,9 17.37,8.75 C17.04,8.71 16.78,8.46 16.72,8.13 C16.32,5.73 15.03,4.07 13.07,3.47 C11.05,2.84 8.69,3.46 7.22,5 C5.79,6.49 5.46,8.58 6.29,10.88 C6.43,11.27 6.23,11.7 5.84,11.84 C5.45,11.98 5.02,11.78 4.88,11.39 C3.87,8.57 4.33,5.87 6.14,3.97 C7.99,2.03 10.96,1.26 13.51,2.04 C15.85,2.76 17.5,4.69 18.1,7.37 C20.14,7.83 21.78,9.38 22.43,11.52 C23.14,13.85 22.5,16.25 20.75,17.77 C19.64,18.77 18.19,19.34 16.67,19.34 Z"/>
  <path fill="#292D32" d="M12,22.28 C9.99,22.28 8.11,21.21 7.08,19.48 C6.97,19.31 6.86,19.11 6.77,18.89 C6.43,18.18 6.25,17.37 6.25,16.53 C6.25,13.36 8.83,10.78 12,10.78 C15.17,10.78 17.75,13.36 17.75,16.53 C17.75,17.38 17.57,18.18 17.21,18.92 C17.13,19.11 17.02,19.31 16.9,19.5 C15.89,21.21 14.01,22.28 12,22.28 Z M12,12.28 C9.66,12.28 7.75,14.19 7.75,16.53 C7.75,17.15 7.88,17.73 8.13,18.26 C8.21,18.43 8.28,18.57 8.36,18.7 C9.12,19.99 10.51,20.78 11.99,20.78 C13.47,20.78 14.86,19.99 15.61,18.72 C15.7,18.57 15.78,18.43 15.84,18.29 C16.11,17.74 16.24,17.16 16.24,16.54 C16.25,14.19 14.34,12.28 12,12.28 Z"/>
  <path fill="#292D32" d="M11.43,18.27 C11.24,18.27 11.05,18.2 10.9,18.05 L9.91,17.06 C9.62,16.77 9.62,16.29 9.91,16 C10.2,15.71 10.68,15.71 10.97,16 L11.45,16.48 L13.05,15 C13.36,14.72 13.83,14.74 14.11,15.04 C14.39,15.34 14.37,15.82 14.07,16.1 L11.94,18.07 C11.79,18.2 11.61,18.27 11.43,18.27 Z"/>
</svg>

