<svg xmlns="http://www.w3.org/2000/svg" width="24" height="24" viewBox="0 0 24 24">
  <defs/>
  <path fill="#292D32" opacity="0.4" d="M20.61,10.83 C19.84,9.91 18.85,9.31 17.7,9.05 C17.44,7.89 16.99,6.89 16.33,6.06 C16.31,6.03 16.29,6 16.27,5.98 C14.07,3.32 10.47,3.33 8.04,4.71 C5.96,5.9 4.19,8.41 5.12,11.99 C2.99,12.51 2.01,14.37 2.01,16.05 C2.01,17.93 3.24,20.04 5.98,20.24 L16.32,20.24 C16.33,20.24 16.35,20.24 16.36,20.24 C17.78,20.24 19.14,19.71 20.19,18.75 C22.7,16.53 22.37,12.91 20.61,10.83 Z"/>
  <path fill="#292D32" d="M21.761,8.74 C21.761,9.64 21.441,10.5 20.861,11.16 C20.791,11.05 20.701,10.94 20.611,10.83 C19.851,9.92 18.851,9.3 17.701,9.05 C17.451,7.89 16.991,6.9 16.331,6.07 C16.321,6.04 16.291,6.01 16.271,5.99 C16.171,5.87 16.061,5.76 15.961,5.65 C16.571,5.23 17.271,5.01 18.031,5.01 C20.091,5.01 21.761,6.68 21.761,8.74 Z"/>
</svg>

