<svg xmlns="http://www.w3.org/2000/svg" width="24" height="24" viewBox="0 0 24 24">
  <defs/>
  <path fill="#292D32" d="M12,11.531 C9.24,11.531 7,13.771 7,16.531 C7,17.271 7.16,17.971 7.46,18.591 C7.54,18.771 7.63,18.941 7.73,19.101 C8.59,20.551 10.18,21.531 12,21.531 C13.82,21.531 15.41,20.551 16.27,19.101 C16.37,18.941 16.46,18.771 16.54,18.591 C16.84,17.971 17,17.271 17,16.531 C17,13.771 14.76,11.531 12,11.531 Z M14.07,16.101 L11.94,18.071 C11.8,18.201 11.61,18.271 11.43,18.271 C11.24,18.271 11.05,18.201 10.9,18.051 L9.91,17.061 C9.62,16.771 9.62,16.291 9.91,16.001 C10.2,15.711 10.68,15.711 10.97,16.001 L11.45,16.481 L13.05,15.001 C13.36,14.721 13.83,14.741 14.11,15.041 C14.39,15.341 14.37,15.811 14.07,16.101 Z"/>
  <path fill="#292D32" d="M20.199,17.072 C19.839,17.392 19.449,17.662 19.029,17.881 C18.669,18.061 18.309,17.712 18.369,17.311 C18.409,17.021 18.429,16.721 18.429,16.412 C18.429,12.832 15.509,9.911 11.929,9.911 C8.349,9.911 5.429,12.832 5.429,16.412 C5.429,16.872 5.479,17.311 5.569,17.741 C5.639,18.091 5.369,18.442 5.019,18.352 C1.069,17.392 1.049,11.312 5.469,11.002 L5.519,11.002 C2.309,2.071 15.849,-1.499 17.399,7.881 C21.729,8.431 23.479,14.201 20.199,17.072 Z"/>
</svg>

