<svg xmlns="http://www.w3.org/2000/svg" width="24" height="24" viewBox="0 0 24 24">
  <defs/>
  <path fill="#292D32" opacity="0.4" d="M20.269,17.19 C19.269,18.1 17.979,18.6 16.629,18.59 L16.539,18.59 C16.839,17.97 16.999,17.27 16.999,16.53 C16.999,13.77 14.759,11.53 11.999,11.53 C9.239,11.53 6.999,13.77 6.999,16.53 C6.999,17.27 7.159,17.97 7.459,18.59 L5.539,18.59 C0.859,18.26 0.859,11.45 5.539,11.12 L5.589,11.12 C2.379,2.19 15.919,-1.38 17.469,8 C21.799,8.55 23.549,14.32 20.269,17.19 Z"/>
  <path fill="#292D32" d="M12,11.53 C9.24,11.53 7,13.77 7,16.53 C7,17.27 7.16,17.97 7.46,18.59 C7.54,18.77 7.63,18.94 7.73,19.1 C8.59,20.55 10.18,21.53 12,21.53 C13.82,21.53 15.41,20.55 16.27,19.1 C16.37,18.94 16.46,18.77 16.54,18.59 C16.84,17.97 17,17.27 17,16.53 C17,13.77 14.76,11.53 12,11.53 Z M13.5,18.14 C13.35,18.29 13.16,18.36 12.97,18.36 C12.78,18.36 12.59,18.29 12.44,18.14 L11.91,17.61 L11.36,18.16 C11.21,18.31 11.02,18.38 10.83,18.38 C10.64,18.38 10.45,18.31 10.3,18.16 C10.01,17.87 10.01,17.39 10.3,17.1 L10.85,16.55 L10.32,16.02 C10.03,15.73 10.03,15.25 10.32,14.96 C10.61,14.67 11.09,14.67 11.38,14.96 L11.91,15.49 L12.41,14.99 C12.7,14.7 13.18,14.7 13.47,14.99 C13.76,15.28 13.76,15.76 13.47,16.05 L12.97,16.55 L13.5,17.08 C13.79,17.38 13.79,17.85 13.5,18.14 Z"/>
</svg>

