<svg xmlns="http://www.w3.org/2000/svg" width="24" height="24" viewBox="0 0 24 24">
  <defs/>
  <path fill="#292D32" d="M14.548,10.102 Q14.278,8.461 13.127,7.784 Q12.099,7.179 10.831,7.512 Q9.562,7.844 8.958,8.878 Q8.282,10.033 8.844,11.596 Q8.949,11.889 8.817,12.17 Q8.684,12.451 8.392,12.556 Q8.1,12.661 7.819,12.528 Q7.538,12.396 7.433,12.104 Q6.634,9.881 7.663,8.121 Q8.581,6.551 10.451,6.061 Q12.322,5.57 13.888,6.491 Q15.643,7.524 16.028,9.858 Q16.079,10.165 15.898,10.417 Q15.717,10.669 15.41,10.72 Q15.104,10.771 14.851,10.59 Q14.599,10.409 14.548,10.102 Z"/>
  <path fill="#292D32" d="M8.162,12.598 Q6.746,12.699 6.748,14.099 Q6.75,15.489 8.138,15.6 L14.779,15.6 Q15.735,15.612 16.468,14.953 Q17.318,14.213 17.241,13.06 Q17.22,12.75 17.425,12.516 Q17.629,12.282 17.939,12.262 Q18.249,12.241 18.483,12.446 Q18.717,12.65 18.738,12.96 Q18.864,14.856 17.471,16.067 Q16.303,17.119 14.779,17.1 L8.109,17.1 Q8.083,17.1 8.056,17.098 Q5.251,16.898 5.248,14.101 Q5.245,11.301 8.056,11.102 Q8.366,11.08 8.601,11.283 Q8.835,11.487 8.857,11.797 Q8.879,12.107 8.676,12.341 Q8.472,12.576 8.162,12.598 Z"/>
  <path fill="#292D32" d="M2.75,15 Q2.75,17.592 4.579,19.421 Q5.888,20.729 7.586,21.102 L7.307,20.636 Q7.147,20.369 7.222,20.068 Q7.298,19.767 7.564,19.607 Q7.831,19.447 8.132,19.522 Q8.433,19.598 8.593,19.864 L9.643,21.614 Q9.75,21.792 9.75,22 Q9.75,22.311 9.53,22.53 Q9.311,22.75 9,22.75 Q5.787,22.75 3.518,20.482 Q1.25,18.213 1.25,15 Q1.25,14.689 1.47,14.47 Q1.689,14.25 2,14.25 Q2.311,14.25 2.53,14.47 Q2.75,14.689 2.75,15 Z"/>
  <path fill="#292D32" d="M21.25,9 Q21.25,6.408 19.421,4.579 Q18.112,3.271 16.414,2.898 L16.693,3.364 Q16.853,3.631 16.778,3.932 Q16.702,4.233 16.436,4.393 Q16.169,4.553 15.868,4.478 Q15.567,4.402 15.407,4.136 L14.357,2.386 Q14.25,2.208 14.25,2 Q14.25,1.689 14.47,1.47 Q14.689,1.25 15,1.25 Q18.213,1.25 20.482,3.518 Q22.75,5.787 22.75,9 Q22.75,9.311 22.53,9.53 Q22.311,9.75 22,9.75 Q21.689,9.75 21.47,9.53 Q21.25,9.311 21.25,9 Z"/>
</svg>

