<svg xmlns="http://www.w3.org/2000/svg" width="24" height="24" viewBox="0 0 24 24">
  <defs/>
  <path fill="#292D32" d="M12,2 C6.48,2 2,6.48 2,12 C2,17.52 6.48,22 12,22 C17.52,22 22,17.52 22,12 C22,6.48 17.52,2 12,2 Z M8.53,13.47 C8.82,13.76 8.82,14.24 8.53,14.53 C8.38,14.68 8.19,14.75 8,14.75 C7.81,14.75 7.62,14.68 7.47,14.53 L5.47,12.53 C5.18,12.24 5.18,11.76 5.47,11.47 L7.47,9.47 C7.76,9.18 8.24,9.18 8.53,9.47 C8.82,9.76 8.82,10.24 8.53,10.53 L7.06,12 L8.53,13.47 Z M13.69,9.96 L11.69,14.63 C11.57,14.91 11.29,15.08 11,15.08 C10.9,15.08 10.8,15.06 10.71,15.02 C10.33,14.86 10.15,14.42 10.32,14.03 L12.32,9.36 C12.48,8.98 12.92,8.8 13.3,8.97 C13.68,9.14 13.85,9.58 13.69,9.96 Z M18.53,12.53 L16.53,14.53 C16.38,14.68 16.19,14.75 16,14.75 C15.81,14.75 15.62,14.68 15.47,14.53 C15.18,14.24 15.18,13.76 15.47,13.47 L16.94,12 L15.47,10.53 C15.18,10.24 15.18,9.76 15.47,9.47 C15.76,9.18 16.24,9.18 16.53,9.47 L18.53,11.47 C18.82,11.76 18.82,12.24 18.53,12.53 Z"/>
</svg>

