<svg xmlns="http://www.w3.org/2000/svg" width="24" height="24" viewBox="0 0 24 24">
  <defs/>
  <path fill="#292D32" d="M21,10 L3,10 C2.45,10 2,10.45 2,11 L2,16.19 C2,16.39 2.01,16.59 2.03,16.79 C2.23,19.87 4.13,21.77 7.21,21.97 C7.41,21.99 7.61,22 7.81,22 L16.19,22 C16.39,22 16.59,21.99 16.79,21.97 C19.87,21.77 21.77,19.87 21.97,16.79 C21.99,16.59 22,16.39 22,16.19 L22,11 C22,10.45 21.55,10 21,10 Z M8,16.15 C8.34,16.65 8.8,17.06 9.33,17.33 C9.71,17.51 9.86,17.96 9.67,18.34 C9.54,18.6 9.27,18.75 9,18.75 C8.89,18.75 8.77,18.72 8.67,18.67 C7.89,18.29 7.23,17.7 6.76,16.99 C6.36,16.39 6.36,15.61 6.76,15.01 C7.23,14.3 7.89,13.71 8.67,13.33 C9.04,13.14 9.49,13.29 9.67,13.66 C9.86,14.04 9.71,14.49 9.33,14.67 C8.8,14.94 8.34,15.35 8,15.85 C7.94,15.94 7.94,16.06 8,16.15 Z M17.45,16.99 C16.97,17.7 16.31,18.29 15.54,18.67 C15.43,18.72 15.32,18.75 15.21,18.75 C14.93,18.75 14.67,18.6 14.54,18.34 C14.35,17.96 14.5,17.51 14.87,17.33 C15.41,17.06 15.87,16.65 16.2,16.15 C16.27,16.06 16.27,15.94 16.2,15.85 C15.87,15.35 15.41,14.94 14.87,14.67 C14.5,14.49 14.35,14.04 14.54,13.66 C14.72,13.29 15.17,13.14 15.54,13.33 C16.31,13.71 16.97,14.3 17.45,15.01 C17.85,15.61 17.85,16.39 17.45,16.99 Z"/>
  <path fill="#292D32" d="M22,7.81 L22,8 C22,8.55 21.55,9 21,9 L3,9.01 C2.45,9.01 2,8.56 2,8.01 L2,7.81 C2,7.61 2.01,7.41 2.03,7.21 C2.23,4.13 4.13,2.23 7.21,2.03 C7.41,2.01 7.61,2 7.81,2 L16.19,2 C16.39,2 16.59,2.01 16.79,2.03 C19.87,2.23 21.77,4.13 21.97,7.21 C21.99,7.41 22,7.61 22,7.81 Z"/>
</svg>

