<svg xmlns="http://www.w3.org/2000/svg" width="24" height="24" viewBox="0 0 24 24">
  <defs/>
  <path fill="#292D32" opacity="0.4" d="M16.19,2 L7.81,2 C4.17,2 2,4.17 2,7.81 L2,16.18 C2,19.83 4.17,22 7.81,22 L16.18,22 C19.82,22 21.99,19.83 21.99,16.19 L21.99,7.81 C22,4.17 19.83,2 16.19,2 Z"/>
  <path fill="#292D32" d="M6.891,15.75 C6.611,15.75 6.351,15.6 6.221,15.34 C6.031,14.97 6.181,14.52 6.561,14.33 C7.431,13.9 8.171,13.24 8.701,12.44 C8.881,12.17 8.881,11.83 8.701,11.56 C8.161,10.76 7.421,10.1 6.561,9.67 C6.181,9.49 6.031,9.04 6.221,8.66 C6.401,8.29 6.851,8.14 7.221,8.33 C8.321,8.88 9.261,9.71 9.941,10.73 C10.451,11.5 10.451,12.5 9.941,13.27 C9.261,14.29 8.321,15.12 7.221,15.67 C7.121,15.72 7.001,15.75 6.891,15.75 Z"/>
  <path fill="#292D32" d="M17,15.75 L13,15.75 C12.59,15.75 12.25,15.41 12.25,15 C12.25,14.59 12.59,14.25 13,14.25 L17,14.25 C17.41,14.25 17.75,14.59 17.75,15 C17.75,15.41 17.41,15.75 17,15.75 Z"/>
</svg>

