<svg xmlns="http://www.w3.org/2000/svg" width="24" height="24" viewBox="0 0 24 24">
  <defs/>
  <path fill="#292D32" opacity="0.4" d="M22,8 L22,16.19 C22,19.83 19.83,22 16.19,22 L7.81,22 C4.17,22 2,19.83 2,16.19 L2,8.01 L22,8 Z"/>
  <path fill="#292D32" d="M9.001,17.75 C8.891,17.75 8.771,17.72 8.671,17.67 C7.901,17.28 7.241,16.7 6.761,15.98 C6.361,15.38 6.361,14.61 6.761,14.01 C7.241,13.29 7.901,12.71 8.671,12.33 C9.041,12.14 9.491,12.3 9.681,12.67 C9.871,13.04 9.721,13.49 9.341,13.68 C8.801,13.95 8.341,14.36 8.011,14.86 C7.951,14.95 7.951,15.07 8.011,15.17 C8.341,15.67 8.801,16.08 9.341,16.35 C9.711,16.54 9.861,16.99 9.681,17.36 C9.541,17.6 9.271,17.75 9.001,17.75 Z"/>
  <path fill="#292D32" d="M15.209,17.75 C14.929,17.75 14.669,17.6 14.539,17.34 C14.349,16.97 14.499,16.52 14.879,16.33 C15.419,16.06 15.879,15.65 16.209,15.15 C16.269,15.06 16.269,14.94 16.209,14.84 C15.879,14.34 15.419,13.93 14.879,13.66 C14.509,13.47 14.359,13.02 14.539,12.65 C14.729,12.28 15.179,12.13 15.549,12.31 C16.319,12.7 16.979,13.28 17.459,14 C17.859,14.6 17.859,15.37 17.459,15.97 C16.979,16.69 16.319,17.27 15.549,17.65 C15.429,17.72 15.319,17.75 15.209,17.75 Z"/>
  <path fill="#292D32" d="M22,7.81 L22,8 L2,8.01 L2,7.81 C2,4.17 4.17,2 7.81,2 L16.19,2 C19.83,2 22,4.17 22,7.81 Z"/>
</svg>

