<svg xmlns="http://www.w3.org/2000/svg" width="24" height="24" viewBox="0 0 24 24">
  <defs/>
  <path fill="#292D32" opacity="0.4" d="M12,22 C17.523,22 22,17.523 22,12 C22,6.477 17.523,2 12,2 C6.477,2 2,6.477 2,12 C2,17.523 6.477,22 12,22 Z"/>
  <path fill="#292D32" d="M7.999,14.75 C7.809,14.75 7.619,14.68 7.469,14.53 L5.469,12.53 C5.179,12.24 5.179,11.76 5.469,11.47 L7.469,9.47 C7.759,9.18 8.239,9.18 8.529,9.47 C8.819,9.76 8.819,10.24 8.529,10.53 L7.059,12 L8.529,13.47 C8.819,13.76 8.819,14.24 8.529,14.53 C8.379,14.68 8.189,14.75 7.999,14.75 Z"/>
  <path fill="#292D32" d="M15.999,14.75 C15.809,14.75 15.62,14.68 15.47,14.53 C15.18,14.24 15.18,13.76 15.47,13.47 L16.939,12 L15.47,10.53 C15.18,10.24 15.18,9.76 15.47,9.47 C15.759,9.18 16.239,9.18 16.529,9.47 L18.529,11.47 C18.82,11.76 18.82,12.24 18.529,12.53 L16.529,14.53 C16.38,14.68 16.189,14.75 15.999,14.75 Z"/>
  <path fill="#292D32" d="M11,15.08 C10.9,15.08 10.8,15.06 10.71,15.02 C10.33,14.86 10.15,14.42 10.32,14.03 L12.32,9.36 C12.48,8.98 12.92,8.8 13.3,8.97 C13.68,9.13 13.86,9.57 13.69,9.96 L11.69,14.63 C11.57,14.91 11.29,15.08 11,15.08 Z"/>
</svg>

