<svg xmlns="http://www.w3.org/2000/svg" width="24" height="24" viewBox="0 0 24 24">
  <defs/>
  <path fill="#292D32" d="M16.19,2 L7.81,2 C4.17,2 2,4.17 2,7.81 L2,16.18 C2,19.83 4.17,22 7.81,22 L16.18,22 C19.82,22 21.99,19.83 21.99,16.19 L21.99,7.81 C22,4.17 19.83,2 16.19,2 Z M9.94,13.27 C9.26,14.29 8.32,15.12 7.22,15.67 C7.12,15.72 7,15.75 6.89,15.75 C6.61,15.75 6.35,15.6 6.22,15.34 C6.03,14.97 6.18,14.52 6.56,14.33 C7.43,13.9 8.17,13.24 8.7,12.44 C8.88,12.17 8.88,11.83 8.7,11.56 C8.16,10.76 7.42,10.1 6.56,9.67 C6.18,9.49 6.03,9.04 6.22,8.66 C6.4,8.29 6.85,8.14 7.22,8.33 C8.32,8.88 9.26,9.71 9.94,10.73 C10.46,11.5 10.46,12.5 9.94,13.27 Z M17,15.75 L13,15.75 C12.59,15.75 12.25,15.41 12.25,15 C12.25,14.59 12.59,14.25 13,14.25 L17,14.25 C17.41,14.25 17.75,14.59 17.75,15 C17.75,15.41 17.41,15.75 17,15.75 Z"/>
</svg>

