<svg xmlns="http://www.w3.org/2000/svg" width="24" height="24" viewBox="0 0 24 24">
  <defs/>
  <path fill="#292D32" opacity="0.4" d="M7.226,8.329 Q8.908,9.17 9.946,10.736 Q10.8,12.005 9.943,13.279 Q8.901,14.834 7.226,15.671 Q6.948,15.81 6.653,15.712 Q6.359,15.613 6.22,15.335 Q6.081,15.058 6.179,14.763 Q6.277,14.468 6.555,14.329 Q7.875,13.669 8.698,12.441 Q8.992,12.005 8.696,11.564 Q7.879,10.333 6.555,9.671 Q6.277,9.532 6.179,9.237 Q6.081,8.942 6.22,8.665 Q6.359,8.387 6.653,8.288 Q6.948,8.19 7.226,8.329 Z"/>
  <path fill="#292D32" opacity="0.4" d="M13,14.25 L17,14.25 Q17.311,14.25 17.53,14.47 Q17.75,14.689 17.75,15 Q17.75,15.311 17.53,15.53 Q17.311,15.75 17,15.75 L13,15.75 Q12.689,15.75 12.47,15.53 Q12.25,15.311 12.25,15 Q12.25,14.689 12.47,14.47 Q12.689,14.25 13,14.25 Z"/>
  <path fill="#292D32" d="M9,22.75 Q1.25,22.75 1.25,15 L1.25,9 Q1.25,1.25 9,1.25 L15,1.25 Q22.75,1.25 22.75,9 L22.75,15 Q22.75,22.75 15,22.75 Z M9,21.25 L15,21.25 Q18.439,21.25 19.845,19.845 Q21.25,18.439 21.25,15 L21.25,9 Q21.25,2.75 15,2.75 L9,2.75 Q2.75,2.75 2.75,9 L2.75,15 Q2.75,18.439 4.155,19.845 Q5.561,21.25 9,21.25 Z"/>
</svg>

