<svg xmlns="http://www.w3.org/2000/svg" width="24" height="24" viewBox="0 0 24 24">
  <defs/>
  <path fill="#292D32" d="M6.891,15.75 C6.611,15.75 6.351,15.6 6.221,15.34 C6.031,14.97 6.181,14.52 6.561,14.33 C7.431,13.9 8.171,13.24 8.701,12.44 C8.881,12.17 8.881,11.83 8.701,11.56 C8.161,10.76 7.421,10.1 6.561,9.67 C6.181,9.49 6.031,9.04 6.221,8.66 C6.401,8.29 6.851,8.14 7.221,8.33 C8.321,8.88 9.261,9.71 9.941,10.73 C10.451,11.5 10.451,12.5 9.941,13.27 C9.261,14.29 8.321,15.12 7.221,15.67 C7.121,15.72 7.001,15.75 6.891,15.75 Z"/>
  <path fill="#292D32" d="M17,15.75 L13,15.75 C12.59,15.75 12.25,15.41 12.25,15 C12.25,14.59 12.59,14.25 13,14.25 L17,14.25 C17.41,14.25 17.75,14.59 17.75,15 C17.75,15.41 17.41,15.75 17,15.75 Z"/>
  <path fill="#292D32" d="M15,22.75 L9,22.75 C3.57,22.75 1.25,20.43 1.25,15 L1.25,9 C1.25,3.57 3.57,1.25 9,1.25 L15,1.25 C20.43,1.25 22.75,3.57 22.75,9 L22.75,15 C22.75,20.43 20.43,22.75 15,22.75 Z M9,2.75 C4.39,2.75 2.75,4.39 2.75,9 L2.75,15 C2.75,19.61 4.39,21.25 9,21.25 L15,21.25 C19.61,21.25 21.25,19.61 21.25,15 L21.25,9 C21.25,4.39 19.61,2.75 15,2.75 L9,2.75 Z"/>
</svg>

