<svg xmlns="http://www.w3.org/2000/svg" width="24" height="24" viewBox="0 0 24 24">
  <defs/>
  <path fill="#292D32" d="M9.335,13.671 Q8.519,14.079 8.002,14.848 Q7.902,15 8.006,15.158 Q8.519,15.921 9.335,16.329 Q9.613,16.468 9.711,16.763 Q9.809,17.058 9.67,17.335 Q9.531,17.613 9.237,17.712 Q8.942,17.81 8.664,17.671 Q7.495,17.086 6.753,15.982 Q6.108,15 6.757,14.012 Q7.495,12.914 8.664,12.329 Q8.942,12.19 9.237,12.288 Q9.531,12.387 9.67,12.665 Q9.809,12.942 9.711,13.237 Q9.613,13.532 9.335,13.671 Z"/>
  <path fill="#292D32" d="M15.546,12.329 Q16.715,12.914 17.453,14.012 Q18.103,15 17.458,15.982 Q16.715,17.086 15.546,17.671 Q15.268,17.81 14.974,17.712 Q14.679,17.613 14.54,17.335 Q14.401,17.058 14.499,16.763 Q14.598,16.468 14.875,16.329 Q15.691,15.921 16.204,15.158 Q16.308,15 16.208,14.848 Q15.691,14.079 14.875,13.671 Q14.598,13.532 14.499,13.237 Q14.401,12.942 14.54,12.665 Q14.679,12.387 14.974,12.288 Q15.268,12.19 15.546,12.329 Z"/>
  <path fill="#292D32" d="M2.75,13 L2.75,15 Q2.75,18.439 4.155,19.845 Q5.561,21.25 9,21.25 L15,21.25 Q18.439,21.25 19.845,19.845 Q21.25,18.439 21.25,15 L21.25,9 Q21.25,2.75 15,2.75 L9,2.75 Q2.75,2.75 2.75,9 Q2.75,9.311 2.53,9.53 Q2.311,9.75 2,9.75 Q1.689,9.75 1.47,9.53 Q1.25,9.311 1.25,9 Q1.25,1.25 9,1.25 L15,1.25 Q22.75,1.25 22.75,9 L22.75,15 Q22.75,22.75 15,22.75 L9,22.75 Q1.25,22.75 1.25,15 L1.25,13 Q1.25,12.689 1.47,12.47 Q1.689,12.25 2,12.25 Q2.311,12.25 2.53,12.47 Q2.75,12.689 2.75,13 Z"/>
  <path fill="#292D32" d="M2.23,7.26 L21.45,7.25 Q21.761,7.25 21.981,7.469 Q22.2,7.689 22.201,8 Q22.201,8.31 21.981,8.53 Q21.762,8.75 21.451,8.75 L2.231,8.76 Q1.92,8.76 1.7,8.541 Q1.481,8.321 1.48,8.01 Q1.48,7.7 1.7,7.48 Q1.919,7.26 2.23,7.26 Z"/>
</svg>

