<svg xmlns="http://www.w3.org/2000/svg" width="24" height="24" viewBox="0 0 24 24">
  <defs/>
  <path fill="#292D32" d="M8.53,10.53 L7.061,12 L8.53,13.47 Q8.75,13.689 8.75,14 Q8.75,14.311 8.53,14.53 Q8.311,14.75 8,14.75 Q7.689,14.75 7.47,14.53 L5.47,12.53 Q5.25,12.311 5.25,12 Q5.25,11.689 5.47,11.47 L7.47,9.47 Q7.689,9.25 8,9.25 Q8.311,9.25 8.53,9.47 Q8.75,9.689 8.75,10 Q8.75,10.311 8.53,10.53 Z"/>
  <path fill="#292D32" d="M16.53,9.47 L18.53,11.47 Q18.75,11.689 18.75,12 Q18.75,12.311 18.53,12.53 L16.53,14.53 Q16.311,14.75 16,14.75 Q15.689,14.75 15.47,14.53 Q15.25,14.311 15.25,14 Q15.25,13.689 15.47,13.47 L16.939,12 L15.47,10.53 Q15.25,10.311 15.25,10 Q15.25,9.689 15.47,9.47 Q15.689,9.25 16,9.25 Q16.311,9.25 16.53,9.47 Z"/>
  <path fill="#292D32" d="M13.689,9.966 L11.689,14.626 Q11.567,14.911 11.278,15.026 Q10.99,15.142 10.704,15.019 Q10.419,14.897 10.303,14.608 Q10.188,14.32 10.311,14.034 L12.311,9.374 Q12.433,9.089 12.722,8.973 Q13.01,8.858 13.296,8.981 Q13.581,9.103 13.696,9.392 Q13.812,9.68 13.689,9.966 Z"/>
  <path fill="#292D32" d="M4.6,6.449 Q2.75,8.922 2.75,12 Q2.75,15.829 5.46,18.54 Q8.171,21.25 12,21.25 Q15.829,21.25 18.54,18.54 Q21.25,15.829 21.25,12 Q21.25,8.171 18.54,5.46 Q15.829,2.75 12,2.75 Q10.031,2.75 8.276,3.535 Q7.993,3.661 7.702,3.551 Q7.412,3.44 7.285,3.156 Q7.159,2.873 7.269,2.582 Q7.38,2.292 7.664,2.165 Q9.711,1.25 12,1.25 Q16.451,1.25 19.6,4.4 Q22.75,7.549 22.75,12 Q22.75,16.451 19.6,19.6 Q16.451,22.75 12,22.75 Q7.549,22.75 4.4,19.6 Q1.25,16.451 1.25,12 Q1.25,8.422 3.4,5.551 Q3.586,5.302 3.893,5.258 Q4.201,5.213 4.449,5.4 Q4.698,5.586 4.742,5.893 Q4.787,6.201 4.6,6.449 Z"/>
</svg>

