<svg xmlns="http://www.w3.org/2000/svg" width="24" height="24" viewBox="0 0 24 24">
  <defs/>
  <path fill="#292D32" d="M6,5.121 C5.59,5.121 5.25,4.781 5.25,4.371 L5.25,2.621 C5.25,2.211 5.59,1.871 6,1.871 C6.41,1.871 6.75,2.211 6.75,2.621 L6.75,4.371 C6.75,4.791 6.41,5.121 6,5.121 Z"/>
  <path fill="#292D32" d="M10,5.121 C9.59,5.121 9.25,4.781 9.25,4.371 L9.25,2.621 C9.25,2.211 9.59,1.871 10,1.871 C10.41,1.871 10.75,2.211 10.75,2.621 L10.75,4.371 C10.75,4.791 10.41,5.121 10,5.121 Z"/>
  <path fill="#292D32" d="M14,5.121 C13.59,5.121 13.25,4.781 13.25,4.371 L13.25,2.621 C13.25,2.211 13.59,1.871 14,1.871 C14.41,1.871 14.75,2.211 14.75,2.621 L14.75,4.371 C14.75,4.791 14.41,5.121 14,5.121 Z"/>
  <path fill="#292D32" d="M22.25,13.252 C22.25,10.632 20.22,8.512 17.66,8.292 C16.92,7.082 15.6,6.262 14.08,6.262 L6.71,6.262 C4.39,6.262 2.5,8.152 2.5,10.472 L2.5,11.002 L18.29,11.002 L18.29,10.472 C18.29,10.282 18.26,10.092 18.23,9.912 C19.68,10.342 20.75,11.662 20.75,13.252 C20.75,14.822 19.71,16.132 18.29,16.572 L18.29,12.002 L2.5,12.002 L2.5,17.792 C2.5,20.112 4.39,22.002 6.71,22.002 L14.08,22.002 C16.28,22.002 18.07,20.302 18.25,18.142 C20.53,17.682 22.25,15.662 22.25,13.252 Z"/>
</svg>

