<svg xmlns="http://www.w3.org/2000/svg" width="24" height="24" viewBox="0 0 24 24">
  <defs/>
  <path fill="#292D32" d="M13.58,22.75 L6.21,22.75 C3.47,22.75 1.25,20.52 1.25,17.79 L1.25,10.47 C1.25,7.73 3.48,5.51 6.21,5.51 L13.58,5.51 C16.32,5.51 18.54,7.74 18.54,10.47 L18.54,17.79 C18.54,20.52 16.31,22.75 13.58,22.75 Z M6.21,7.01 C4.3,7.01 2.75,8.56 2.75,10.47 L2.75,17.79 C2.75,19.7 4.3,21.25 6.21,21.25 L13.58,21.25 C15.49,21.25 17.04,19.7 17.04,17.79 L17.04,10.47 C17.04,8.56 15.49,7.01 13.58,7.01 L6.21,7.01 Z"/>
  <path fill="#292D32" d="M5.5,4.75 C5.09,4.75 4.75,4.41 4.75,4 L4.75,2.25 C4.75,1.84 5.09,1.5 5.5,1.5 C5.91,1.5 6.25,1.84 6.25,2.25 L6.25,4 C6.25,4.41 5.91,4.75 5.5,4.75 Z"/>
  <path fill="#292D32" d="M9.5,4.75 C9.09,4.75 8.75,4.41 8.75,4 L8.75,2.25 C8.75,1.84 9.09,1.5 9.5,1.5 C9.91,1.5 10.25,1.84 10.25,2.25 L10.25,4 C10.25,4.41 9.91,4.75 9.5,4.75 Z"/>
  <path fill="#292D32" d="M13.5,4.75 C13.09,4.75 12.75,4.41 12.75,4 L12.75,2.25 C12.75,1.84 13.09,1.5 13.5,1.5 C13.91,1.5 14.25,1.84 14.25,2.25 L14.25,4 C14.25,4.41 13.91,4.75 13.5,4.75 Z"/>
  <path fill="#292D32" d="M17.789,18.12 C17.379,18.12 17.039,17.78 17.039,17.37 L17.039,8.95 C17.039,8.54 17.379,8.2 17.789,8.2 C20.529,8.2 22.749,10.43 22.749,13.16 C22.749,15.89 20.519,18.12 17.789,18.12 Z M18.539,9.78 L18.539,16.54 C20.089,16.2 21.249,14.81 21.249,13.16 C21.249,11.51 20.089,10.12 18.539,9.78 Z"/>
  <path fill="#292D32" d="M17.51,12.75 L2,12.75 C1.59,12.75 1.25,12.41 1.25,12 C1.25,11.59 1.59,11.25 2,11.25 L17.51,11.25 C17.92,11.25 18.26,11.59 18.26,12 C18.26,12.41 17.92,12.75 17.51,12.75 Z"/>
</svg>

