<svg xmlns="http://www.w3.org/2000/svg" width="24" height="24" viewBox="0 0 24 24">
  <defs/>
  <path fill="#292D32" opacity="0.6" d="M17.79,10.47 L17.79,12 L2,12 L2,10.47 C2,8.15 3.89,6.26 6.21,6.26 L13.58,6.26 C15.9,6.26 17.79,8.15 17.79,10.47 Z"/>
  <path fill="#292D32" opacity="0.4" d="M17.79,12 L17.79,17.79 C17.79,20.11 15.9,22 13.58,22 L6.21,22 C3.89,22 2,20.11 2,17.79 L2,12 L17.79,12 Z"/>
  <path fill="#292D32" d="M5.5,5.12 C5.09,5.12 4.75,4.78 4.75,4.37 L4.75,2.62 C4.75,2.21 5.09,1.87 5.5,1.87 C5.91,1.87 6.25,2.21 6.25,2.62 L6.25,4.37 C6.25,4.79 5.91,5.12 5.5,5.12 Z"/>
  <path fill="#292D32" d="M9.5,5.12 C9.09,5.12 8.75,4.78 8.75,4.37 L8.75,2.62 C8.75,2.21 9.09,1.87 9.5,1.87 C9.91,1.87 10.25,2.21 10.25,2.62 L10.25,4.37 C10.25,4.79 9.91,5.12 9.5,5.12 Z"/>
  <path fill="#292D32" d="M13.5,5.12 C13.09,5.12 12.75,4.78 12.75,4.37 L12.75,2.62 C12.75,2.21 13.09,1.87 13.5,1.87 C13.91,1.87 14.25,2.21 14.25,2.62 L14.25,4.37 C14.25,4.79 13.91,5.12 13.5,5.12 Z"/>
  <path fill="#292D32" d="M21.65,14.32 C21.65,16.47 19.91,18.21 17.76,18.21 L17.76,10.42 C19.9,10.42 21.65,12.17 21.65,14.32 Z"/>
</svg>

