<svg xmlns="http://www.w3.org/2000/svg" width="24" height="24" viewBox="0 0 24 24">
  <defs/>
  <path fill="#292D32" d="M18.54,10.47 L18.54,17.79 Q18.54,19.847 17.085,21.3 Q15.632,22.75 13.58,22.75 L6.21,22.75 Q4.159,22.75 2.705,21.295 Q1.25,19.841 1.25,17.79 L1.25,10.47 Q1.25,8.413 2.705,6.96 Q4.158,5.51 6.21,5.51 L13.58,5.51 Q15.631,5.51 17.085,6.965 Q18.54,8.419 18.54,10.47 Z M17.04,10.47 Q17.04,9.041 16.025,8.025 Q15.009,7.01 13.58,7.01 L6.21,7.01 Q2.75,7.01 2.75,10.47 L2.75,17.79 Q2.75,21.25 6.21,21.25 L13.58,21.25 Q17.04,21.25 17.04,17.79 Z"/>
  <path fill="#292D32" d="M4.75,4 L4.75,2.25 Q4.75,1.939 4.97,1.72 Q5.189,1.5 5.5,1.5 Q5.811,1.5 6.03,1.72 Q6.25,1.939 6.25,2.25 L6.25,4 Q6.25,4.311 6.03,4.53 Q5.811,4.75 5.5,4.75 Q5.189,4.75 4.97,4.53 Q4.75,4.311 4.75,4 Z"/>
  <path fill="#292D32" d="M8.75,4 L8.75,2.25 Q8.75,1.939 8.97,1.72 Q9.189,1.5 9.5,1.5 Q9.811,1.5 10.03,1.72 Q10.25,1.939 10.25,2.25 L10.25,4 Q10.25,4.311 10.03,4.53 Q9.811,4.75 9.5,4.75 Q9.189,4.75 8.97,4.53 Q8.75,4.311 8.75,4 Z"/>
  <path fill="#292D32" d="M12.75,4 L12.75,2.25 Q12.75,1.939 12.97,1.72 Q13.189,1.5 13.5,1.5 Q13.811,1.5 14.03,1.72 Q14.25,1.939 14.25,2.25 L14.25,4 Q14.25,4.311 14.03,4.53 Q13.811,4.75 13.5,4.75 Q13.189,4.75 12.97,4.53 Q12.75,4.311 12.75,4 Z"/>
  <path fill="#292D32" d="M22.75,13.16 Q22.75,15.211 21.295,16.665 Q19.841,18.12 17.79,18.12 Q17.479,18.12 17.26,17.9 Q17.04,17.681 17.04,17.37 L17.04,8.95 Q17.04,8.639 17.26,8.42 Q17.479,8.2 17.79,8.2 Q19.842,8.2 21.295,9.65 Q22.75,11.103 22.75,13.16 Z M21.25,13.16 Q21.25,11.725 20.235,10.712 Q19.498,9.976 18.54,9.775 L18.54,16.544 Q19.497,16.343 20.235,15.605 Q21.25,14.589 21.25,13.16 Z"/>
  <path fill="#292D32" d="M2,11.25 L17.51,11.25 Q17.821,11.25 18.04,11.47 Q18.26,11.689 18.26,12 Q18.26,12.311 18.04,12.53 Q17.821,12.75 17.51,12.75 L2,12.75 Q1.689,12.75 1.47,12.53 Q1.25,12.311 1.25,12 Q1.25,11.689 1.47,11.47 Q1.689,11.25 2,11.25 Z"/>
</svg>

