<svg xmlns="http://www.w3.org/2000/svg" width="24" height="24" viewBox="0 0 24 24">
  <defs/>
  <path fill="#292D32" d="M8.75,11.4 Q8.75,12.05 9.33,12.05 L10.83,12.05 Q11.24,12.05 11.24,11.58 Q11.24,11.232 10.945,11.125 L8.552,10.288 Q7.25,9.827 7.25,8.42 Q7.25,6.45 9.16,6.45 L10.66,6.45 Q12.75,6.478 12.75,8.6 Q12.75,8.911 12.53,9.13 Q12.311,9.35 12,9.35 Q11.689,9.35 11.47,9.13 Q11.25,8.911 11.25,8.6 Q11.25,7.958 10.66,7.95 L9.16,7.95 Q8.75,7.95 8.75,8.42 Q8.75,8.767 9.048,8.872 L11.455,9.715 Q12.74,10.179 12.74,11.58 Q12.74,12.382 12.194,12.958 Q11.632,13.55 10.83,13.55 L9.33,13.55 Q8.46,13.55 7.848,12.906 Q7.25,12.277 7.25,11.4 Q7.25,11.089 7.47,10.87 Q7.689,10.65 8,10.65 Q8.311,10.65 8.53,10.87 Q8.75,11.089 8.75,11.4 Z"/>
  <path fill="#292D32" d="M10.75,12.85 L10.75,13.59 Q10.75,13.901 10.53,14.12 Q10.311,14.34 10,14.34 Q9.689,14.34 9.47,14.12 Q9.25,13.901 9.25,13.59 L9.25,12.85 Q9.25,12.539 9.47,12.32 Q9.689,12.1 10,12.1 Q10.311,12.1 10.53,12.32 Q10.75,12.539 10.75,12.85 Z"/>
  <path fill="#292D32" d="M10.75,6.41 L10.75,7.19 Q10.75,7.501 10.53,7.72 Q10.311,7.94 10,7.94 Q9.689,7.94 9.47,7.72 Q9.25,7.501 9.25,7.19 L9.25,6.41 Q9.25,6.099 9.47,5.88 Q9.689,5.66 10,5.66 Q10.311,5.66 10.53,5.88 Q10.75,6.099 10.75,6.41 Z"/>
  <path fill="#292D32" d="M5.703,2.366 Q7.695,1.25 9.99,1.25 Q13.608,1.25 16.169,3.811 Q18.73,6.372 18.73,9.99 Q18.73,13.608 16.169,16.169 Q13.608,18.73 9.99,18.73 Q6.372,18.73 3.811,16.169 Q1.25,13.608 1.25,9.99 Q1.25,8.001 2.104,6.225 Q2.239,5.945 2.532,5.842 Q2.825,5.739 3.105,5.874 Q3.385,6.009 3.488,6.302 Q3.591,6.595 3.456,6.875 Q2.75,8.343 2.75,9.99 Q2.75,12.987 4.872,15.108 Q6.993,17.23 9.99,17.23 Q12.987,17.23 15.108,15.108 Q17.23,12.987 17.23,9.99 Q17.23,6.993 15.108,4.872 Q12.987,2.75 9.99,2.75 Q8.086,2.75 6.437,3.674 Q6.166,3.826 5.867,3.742 Q5.568,3.658 5.416,3.387 Q5.264,3.116 5.348,2.817 Q5.432,2.518 5.703,2.366 Z"/>
  <path fill="#292D32" d="M13.592,19.446 Q14.856,21.23 17.031,21.23 Q18.767,21.23 19.999,19.998 Q21.23,18.767 21.23,17.03 Q21.23,14.875 19.472,13.609 Q19.22,13.427 19.17,13.121 Q19.12,12.814 19.302,12.562 Q19.483,12.31 19.79,12.26 Q20.097,12.21 20.349,12.391 Q22.73,14.106 22.73,17.03 Q22.73,19.388 21.06,21.059 Q19.389,22.73 17.031,22.73 Q14.081,22.73 12.369,20.314 Q12.189,20.06 12.241,19.754 Q12.293,19.448 12.547,19.268 Q12.8,19.088 13.107,19.141 Q13.413,19.193 13.592,19.446 Z"/>
</svg>

