<svg xmlns="http://www.w3.org/2000/svg" width="24" height="24" viewBox="0 0 24 24">
  <defs/>
  <path fill="#292D32" d="M10.84,13.54 L9.34,13.54 C8.19,13.54 7.26,12.58 7.26,11.39 C7.26,10.98 7.6,10.64 8.01,10.64 C8.42,10.64 8.76,10.98 8.76,11.39 C8.76,11.75 9.02,12.04 9.34,12.04 L10.84,12.04 C11.07,12.04 11.25,11.83 11.25,11.57 C11.25,11.22 11.19,11.2 10.96,11.12 L8.55,10.28 C7.68,9.98 7.25,9.37 7.25,8.42 C7.25,7.34 8.11,6.45 9.16,6.45 L10.66,6.45 C11.81,6.45 12.74,7.41 12.74,8.6 C12.74,9.01 12.4,9.35 11.99,9.35 C11.58,9.35 11.24,9.01 11.24,8.6 C11.24,8.24 10.98,7.95 10.66,7.95 L9.16,7.95 C8.93,7.95 8.75,8.16 8.75,8.42 C8.75,8.77 8.81,8.79 9.04,8.87 L11.45,9.71 C12.32,10.02 12.74,10.63 12.74,11.57 C12.75,12.66 11.89,13.54 10.84,13.54 Z"/>
  <path fill="#292D32" d="M10,14.34 C9.59,14.34 9.25,14 9.25,13.59 L9.25,12.85 C9.25,12.44 9.59,12.1 10,12.1 C10.41,12.1 10.75,12.44 10.75,12.85 L10.75,13.59 C10.75,14.01 10.41,14.34 10,14.34 Z"/>
  <path fill="#292D32" d="M10,7.94 C9.59,7.94 9.25,7.6 9.25,7.19 L9.25,6.41 C9.25,6 9.59,5.66 10,5.66 C10.41,5.66 10.75,6 10.75,6.41 L10.75,7.19 C10.75,7.6 10.41,7.94 10,7.94 Z"/>
  <path fill="#292D32" d="M9.99,18.72 C5.17,18.72 1.25,14.8 1.25,9.98 C1.25,5.16 5.17,1.24 9.99,1.24 C14.81,1.24 18.73,5.16 18.73,9.98 C18.73,14.8 14.8,18.72 9.99,18.72 Z M9.99,2.75 C6,2.75 2.75,6 2.75,9.99 C2.75,13.98 6,17.22 9.99,17.22 C13.98,17.22 17.23,13.97 17.23,9.98 C17.23,5.99 13.98,2.75 9.99,2.75 Z"/>
  <path fill="#292D32" d="M17.019,22.72 C15.169,22.72 13.429,21.82 12.359,20.3 C12.119,19.96 12.199,19.49 12.539,19.25 C12.879,19.01 13.349,19.09 13.589,19.43 C14.379,20.55 15.659,21.21 17.019,21.21 C19.339,21.21 21.219,19.33 21.219,17.01 C21.219,15.66 20.559,14.38 19.459,13.59 C19.119,13.35 19.049,12.88 19.289,12.54 C19.529,12.2 19.999,12.13 20.339,12.37 C21.829,13.44 22.719,15.17 22.719,17.01 C22.719,20.17 20.169,22.72 17.019,22.72 Z"/>
</svg>

