<svg xmlns="http://www.w3.org/2000/svg" width="24" height="24" viewBox="0 0 24 24">
  <defs/>
  <path fill="#292D32" d="M12,22.75 C8,22.75 4.75,19.88 4.75,16.35 L4.75,12.65 C4.75,12.24 5.09,11.9 5.5,11.9 C5.91,11.9 6.25,12.24 6.25,12.65 C6.25,15.27 8.72,17.25 12,17.25 C15.28,17.25 17.75,15.27 17.75,12.65 C17.75,12.24 18.09,11.9 18.5,11.9 C18.91,11.9 19.25,12.24 19.25,12.65 L19.25,16.35 C19.25,19.88 16,22.75 12,22.75 Z M6.25,16.46 C6.32,19.11 8.87,21.25 12,21.25 C15.13,21.25 17.68,19.11 17.75,16.46 C16.45,17.87 14.39,18.75 12,18.75 C9.61,18.75 7.56,17.87 6.25,16.46 Z"/>
  <path fill="#292D32" d="M12,13.75 C9.24,13.75 6.76,12.51 5.55,10.51 C5.03,9.66 4.75,8.67 4.75,7.65 C4.75,5.93 5.52,4.31 6.91,3.09 C8.27,1.9 10.08,1.25 12,1.25 C13.92,1.25 15.72,1.9 17.09,3.08 C18.48,4.31 19.25,5.93 19.25,7.65 C19.25,8.67 18.97,9.65 18.45,10.51 C17.24,12.51 14.76,13.75 12,13.75 Z M12,2.75 C10.44,2.75 8.98,3.27 7.89,4.23 C6.83,5.15 6.25,6.37 6.25,7.65 C6.25,8.4 6.45,9.1 6.83,9.73 C7.78,11.29 9.76,12.25 12,12.25 C14.24,12.25 16.22,11.28 17.17,9.73 C17.56,9.1 17.75,8.4 17.75,7.65 C17.75,6.37 17.17,5.15 16.1,4.21 C15.01,3.27 13.56,2.75 12,2.75 Z"/>
  <path fill="#292D32" d="M12,18.75 C7.87,18.75 4.75,16.13 4.75,12.65 L4.75,7.65 C4.75,4.12 8,1.25 12,1.25 C13.92,1.25 15.72,1.9 17.09,3.08 C18.48,4.31 19.25,5.93 19.25,7.65 L19.25,12.65 C19.25,16.13 16.13,18.75 12,18.75 Z M12,2.75 C8.83,2.75 6.25,4.95 6.25,7.65 L6.25,12.65 C6.25,15.27 8.72,17.25 12,17.25 C15.28,17.25 17.75,15.27 17.75,12.65 L17.75,7.65 C17.75,6.37 17.17,5.15 16.1,4.21 C15.01,3.27 13.56,2.75 12,2.75 Z"/>
</svg>

