<svg xmlns="http://www.w3.org/2000/svg" width="24" height="24" viewBox="0 0 24 24">
  <defs/>
  <path fill="#292D32" d="M21.92,16.749 C21.59,19.409 19.41,21.589 16.75,21.919 C15.14,22.119 13.64,21.679 12.47,20.819 C11.8,20.329 11.96,19.289 12.76,19.049 C15.77,18.139 18.14,15.759 19.06,12.749 C19.3,11.959 20.34,11.799 20.83,12.459 C21.68,13.639 22.12,15.139 21.92,16.749 Z"/>
  <path fill="#292D32" d="M9.99,2 C5.58,2 2,5.58 2,9.99 C2,14.4 5.58,17.98 9.99,17.98 C14.4,17.98 17.98,14.4 17.98,9.99 C17.97,5.58 14.4,2 9.99,2 Z M9.05,8.87 L11.46,9.71 C12.33,10.02 12.75,10.63 12.75,11.57 C12.75,12.65 11.89,13.54 10.84,13.54 L10.75,13.54 L10.75,13.59 C10.75,14 10.41,14.34 10,14.34 C9.59,14.34 9.25,14 9.25,13.59 L9.25,13.53 C8.14,13.48 7.25,12.55 7.25,11.39 C7.25,10.98 7.59,10.64 8,10.64 C8.41,10.64 8.75,10.98 8.75,11.39 C8.75,11.75 9.01,12.04 9.33,12.04 L10.83,12.04 C11.06,12.04 11.24,11.83 11.24,11.57 C11.24,11.22 11.18,11.2 10.95,11.12 L8.54,10.28 C7.68,9.98 7.25,9.37 7.25,8.42 C7.25,7.34 8.11,6.45 9.16,6.45 L9.25,6.45 L9.25,6.41 C9.25,6 9.59,5.66 10,5.66 C10.41,5.66 10.75,6 10.75,6.41 L10.75,6.47 C11.86,6.52 12.75,7.45 12.75,8.61 C12.75,9.02 12.41,9.36 12,9.36 C11.59,9.36 11.25,9.02 11.25,8.61 C11.25,8.25 10.99,7.96 10.67,7.96 L9.17,7.96 C8.94,7.96 8.76,8.17 8.76,8.43 C8.75,8.77 8.81,8.79 9.05,8.87 Z"/>
</svg>

