<svg xmlns="http://www.w3.org/2000/svg" width="24" height="24" viewBox="0 0 24 24">
  <defs/>
  <path fill="#292D32" d="M19.25,12.65 L19.25,16.35 Q19.25,19.032 17.088,20.911 Q14.973,22.75 12,22.75 Q9.027,22.75 6.912,20.911 Q4.75,19.032 4.75,16.35 L4.75,12.65 Q4.75,12.339 4.97,12.12 Q5.189,11.9 5.5,11.9 Q5.811,11.9 6.03,12.12 Q6.25,12.339 6.25,12.65 Q6.25,14.602 7.874,15.911 Q9.537,17.25 12,17.25 Q14.463,17.25 16.126,15.911 Q17.75,14.602 17.75,12.65 Q17.75,12.339 17.97,12.12 Q18.189,11.9 18.5,11.9 Q18.811,11.9 19.03,12.12 Q19.25,12.339 19.25,12.65 Z M17.749,16.452 Q17.44,16.779 17.067,17.079 Q14.992,18.75 12,18.75 Q9.008,18.75 6.933,17.079 Q6.56,16.779 6.251,16.452 Q6.292,18.385 7.896,19.779 Q9.588,21.25 12,21.25 Q14.412,21.25 16.104,19.779 Q17.708,18.385 17.749,16.452 Z"/>
  <path fill="#292D32" d="M19.25,7.65 Q19.25,9.202 18.45,10.511 Q16.481,13.75 12,13.75 Q7.519,13.75 5.549,10.51 Q4.75,9.202 4.75,7.65 Q4.75,4.975 6.907,3.095 Q9.02,1.25 12,1.25 Q14.97,1.25 17.09,3.083 Q19.25,4.984 19.25,7.65 Z M17.75,7.65 Q17.75,5.662 16.11,4.217 Q14.412,2.75 12,2.75 Q9.583,2.75 7.893,4.225 Q6.25,5.658 6.25,7.65 Q6.25,8.78 6.831,9.73 Q8.363,12.25 12,12.25 Q15.637,12.25 17.17,9.729 Q17.75,8.78 17.75,7.65 Z"/>
  <path fill="#292D32" d="M19.25,7.65 L19.25,12.65 Q19.25,15.32 17.067,17.079 Q14.992,18.75 12,18.75 Q9.008,18.75 6.933,17.079 Q4.75,15.32 4.75,12.65 L4.75,7.65 Q4.75,4.968 6.912,3.089 Q9.027,1.25 12,1.25 Q14.97,1.25 17.09,3.083 Q19.25,4.984 19.25,7.65 Z M17.75,7.65 Q17.75,5.662 16.11,4.217 Q14.412,2.75 12,2.75 Q9.588,2.75 7.896,4.221 Q6.25,5.652 6.25,7.65 L6.25,12.65 Q6.25,14.603 7.874,15.911 Q9.537,17.25 12,17.25 Q14.463,17.25 16.126,15.911 Q17.75,14.603 17.75,12.65 Z"/>
</svg>

