<svg xmlns="http://www.w3.org/2000/svg" width="24" height="24" viewBox="0 0 24 24">
  <defs/>
  <path fill="#292D32" d="M18.5,12.65 L18.5,16.35 C18.5,19.47 15.59,22 12,22 C8.41,22 5.5,19.47 5.5,16.35 L5.5,12.65 C5.5,15.77 8.41,18 12,18 C15.59,18 18.5,15.77 18.5,12.65 Z"/>
  <path fill="#292D32" opacity="0.4" d="M18.5,7.65 L18.5,12.65 C18.5,15.77 15.59,18 12,18 C8.41,18 5.5,15.77 5.5,12.65 L5.5,7.65 C5.5,8.56 5.75,9.4 6.19,10.12 C7.26,11.88 9.46,13 12,13 C14.54,13 16.74,11.88 17.81,10.12 C18.25,9.4 18.5,8.56 18.5,7.65 Z"/>
  <path fill="#292D32" d="M18.5,7.65 C18.5,8.56 18.25,9.4 17.81,10.12 C16.74,11.88 14.54,13 12,13 C9.46,13 7.26,11.88 6.19,10.12 C5.75,9.4 5.5,8.56 5.5,7.65 C5.5,4.53 8.41,2 12,2 C13.8,2 15.42,2.63 16.6,3.65 C17.77,4.68 18.5,6.09 18.5,7.65 Z"/>
</svg>

