<svg xmlns="http://www.w3.org/2000/svg" width="24" height="24" viewBox="0 0 24 24">
  <defs/>
  <path fill="#292D32" d="M14,15.999 C14,17.769 13.23,19.369 12,20.459 C10.94,21.419 9.54,21.999 8,21.999 C4.69,21.999 2,19.309 2,15.999 C2,13.974 3.014,12.18 4.555,11.096 C4.804,10.922 5.139,11.041 5.273,11.313 C6.217,13.232 7.954,14.669 10.02,15.229 C10.65,15.409 11.31,15.499 12,15.499 C12.487,15.499 12.954,15.453 13.407,15.368 C13.696,15.314 13.983,15.498 13.995,15.792 C13.998,15.861 14,15.931 14,15.999 Z"/>
  <path fill="#292D32" d="M18,8 C18,8.78 17.85,9.53 17.58,10.21 C16.89,11.95 15.41,13.29 13.58,13.79 C13.08,13.93 12.55,14 12,14 C11.45,14 10.92,13.93 10.42,13.79 C8.59,13.29 7.11,11.95 6.42,10.21 C6.15,9.53 6,8.78 6,8 C6,4.69 8.69,2 12,2 C15.31,2 18,4.69 18,8 Z"/>
  <path fill="#292D32" d="M22,15.999 C22,19.309 19.31,21.999 16,21.999 C15.255,21.999 14.539,21.863 13.881,21.613 C13.562,21.492 13.503,21.084 13.725,20.825 C14.867,19.493 15.5,17.785 15.5,15.999 C15.5,15.659 15.47,15.319 15.42,14.999 C15.39,14.815 15.484,14.633 15.648,14.543 C16.972,13.81 18.053,12.687 18.727,11.314 C18.861,11.042 19.197,10.922 19.445,11.097 C20.986,12.181 22,13.975 22,15.999 Z"/>
</svg>

