<svg xmlns="http://www.w3.org/2000/svg" width="24" height="24" viewBox="0 0 24 24">
  <defs/>
  <path fill="#292D32" opacity="0.4" d="M16.19,2 L7.82,2 C4.17,2 2,4.17 2,7.81 L2,16.18 C2,19.82 4.17,21.99 7.81,21.99 L16.18,21.99 C19.82,21.99 21.99,19.82 21.99,16.18 L21.99,7.81 C22,4.17 19.83,2 16.19,2 Z"/>
  <path fill="#292D32" opacity="0.6" d="M13.2,14.4 C13.2,15.46 12.74,16.42 12,17.08 C11.36,17.66 10.52,18 9.6,18 C7.61,18 6,16.39 6,14.4 C6,12.74 7.13,11.34 8.65,10.93 C9.06,11.97 9.95,12.78 11.05,13.08 C11.35,13.16 11.67,13.21 12,13.21 C12.33,13.21 12.65,13.17 12.95,13.08 C13.11,13.48 13.2,13.93 13.2,14.4 Z"/>
  <path fill="#292D32" d="M15.6,9.6 C15.6,10.07 15.51,10.52 15.35,10.93 C14.94,11.97 14.05,12.78 12.95,13.08 C12.65,13.16 12.33,13.21 12,13.21 C11.67,13.21 11.35,13.17 11.05,13.08 C9.95,12.78 9.06,11.98 8.65,10.93 C8.49,10.52 8.4,10.07 8.4,9.6 C8.4,7.61 10.01,6 12,6 C13.99,6 15.6,7.61 15.6,9.6 Z"/>
  <path fill="#292D32" opacity="0.4" d="M18,14.4 C18,16.39 16.39,18 14.4,18 C13.48,18 12.64,17.65 12,17.08 C12.74,16.43 13.2,15.47 13.2,14.4 C13.2,13.93 13.11,13.48 12.95,13.07 C14.05,12.77 14.94,11.97 15.35,10.92 C16.87,11.34 18,12.74 18,14.4 Z"/>
</svg>

