<svg xmlns="http://www.w3.org/2000/svg" width="24" height="24" viewBox="0 0 24 24">
  <defs/>
  <path fill="#292D32" d="M14.75,16 Q14.75,19.025 12.497,21.021 Q10.589,22.75 8,22.75 Q5.207,22.75 3.228,20.772 Q1.25,18.793 1.25,16 Q1.25,10.837 6.223,9.486 Q6.5,9.411 6.756,9.539 Q7.012,9.667 7.117,9.934 Q8.085,12.375 10.618,13.067 Q11.273,13.25 12,13.25 Q12.727,13.25 13.378,13.068 Q13.655,12.99 13.913,13.118 Q14.171,13.246 14.277,13.513 Q14.75,14.704 14.75,16 Z M13.25,16 Q13.25,15.313 13.08,14.666 Q12.555,14.75 12,14.75 Q11.067,14.75 10.222,14.513 Q7.312,13.718 6.009,11.126 Q2.75,12.313 2.75,16 Q2.75,18.172 4.289,19.711 Q5.828,21.25 8,21.25 Q10.01,21.25 11.503,19.899 Q13.25,18.35 13.25,16 Z"/>
  <path fill="#292D32" d="M18.75,8 Q18.75,9.296 18.277,10.487 Q17.033,13.624 13.778,14.513 Q12.933,14.75 12,14.75 Q11.067,14.75 10.218,14.512 Q6.967,13.624 5.723,10.486 Q5.25,9.296 5.25,8 Q5.25,5.207 7.228,3.228 Q9.207,1.25 12,1.25 Q14.793,1.25 16.772,3.228 Q18.75,5.207 18.75,8 Z M17.25,8 Q17.25,5.828 15.711,4.289 Q14.172,2.75 12,2.75 Q9.828,2.75 8.289,4.289 Q6.75,5.828 6.75,8 Q6.75,9.009 7.117,9.934 Q8.085,12.375 10.622,13.068 Q11.273,13.25 12,13.25 Q12.727,13.25 13.382,13.067 Q15.915,12.375 16.883,9.933 Q17.25,9.009 17.25,8 Z"/>
  <path fill="#292D32" d="M22.75,16 Q22.75,18.793 20.772,20.772 Q18.793,22.75 16,22.75 Q13.411,22.75 11.497,21.016 Q11.266,20.807 11.251,20.497 Q11.236,20.187 11.444,19.957 Q11.472,19.926 11.503,19.899 Q13.25,18.35 13.25,16 Q13.25,14.991 12.883,14.067 Q12.768,13.778 12.891,13.493 Q13.014,13.208 13.303,13.093 Q13.342,13.078 13.382,13.067 Q15.915,12.375 16.883,9.934 Q16.988,9.667 17.244,9.539 Q17.5,9.411 17.777,9.486 Q22.75,10.837 22.75,16 Z M21.25,16 Q21.25,12.313 17.991,11.126 Q16.862,13.372 14.527,14.269 Q14.75,15.11 14.75,16 Q14.75,18.568 13.127,20.394 Q14.397,21.25 16,21.25 Q18.172,21.25 19.711,19.711 Q21.25,18.172 21.25,16 Z"/>
</svg>

