<svg xmlns="http://www.w3.org/2000/svg" width="24" height="24" viewBox="0 0 24 24">
  <defs/>
  <path fill="#292D32" d="M16.19,2 L7.81,2 C4.17,2 2,4.17 2,7.81 L2,16.18 C2,19.83 4.17,22 7.81,22 L16.18,22 C19.82,22 21.99,19.83 21.99,16.19 L21.99,7.81 C22,4.17 19.83,2 16.19,2 Z M12,6 C13.99,6 15.6,7.61 15.6,9.6 C15.6,10.07 15.51,10.52 15.35,10.93 C14.94,11.97 14.05,12.78 12.95,13.08 C12.65,13.16 12.33,13.21 12,13.21 C11.67,13.21 11.35,13.17 11.05,13.08 C9.95,12.78 9.06,11.98 8.65,10.93 C8.49,10.52 8.4,10.07 8.4,9.6 C8.4,7.61 10.01,6 12,6 Z M9.6,18 C7.61,18 6,16.39 6,14.4 C6,13.268 6.529,12.256 7.344,11.596 C7.581,11.405 7.919,11.525 8.067,11.791 C8.652,12.84 9.646,13.62 10.81,13.93 C11.19,14.04 11.58,14.09 12,14.09 C12.249,14.09 12.487,14.072 12.718,14.035 C12.955,13.997 13.2,14.15 13.2,14.39 C13.2,15.45 12.74,16.41 12,17.07 C11.36,17.65 10.52,18 9.6,18 Z M14.4,18 C14.052,18 13.71,17.951 13.388,17.858 C13.061,17.763 13.002,17.356 13.206,17.084 C13.781,16.32 14.1,15.376 14.1,14.4 C14.1,14.2 14.08,13.99 14.05,13.8 C14.032,13.687 14.09,13.576 14.19,13.52 C14.914,13.116 15.521,12.522 15.924,11.794 C16.072,11.527 16.411,11.404 16.649,11.595 C17.471,12.255 18,13.267 18,14.4 C18,16.39 16.39,18 14.4,18 Z"/>
</svg>

