<svg xmlns="http://www.w3.org/2000/svg" width="24" height="24" viewBox="0 0 24 24">
  <defs/>
  <path fill="#292D32" d="M9.6,18.75 C7.2,18.75 5.25,16.8 5.25,14.4 C5.25,12.44 6.57,10.71 8.46,10.2 C8.83,10.1 9.21,10.29 9.35,10.65 C9.68,11.48 10.39,12.12 11.25,12.35 C11.72,12.48 12.28,12.48 12.75,12.35 C13.12,12.25 13.51,12.44 13.65,12.79 C13.85,13.3 13.95,13.84 13.95,14.39 C13.95,15.63 13.42,16.81 12.5,17.63 C11.71,18.35 10.68,18.75 9.6,18.75 Z M8.29,11.87 C7.36,12.35 6.75,13.32 6.75,14.4 C6.75,15.97 8.03,17.25 9.6,17.25 C10.3,17.25 10.98,16.99 11.5,16.52 C12.11,15.98 12.45,15.21 12.45,14.4 C12.45,14.24 12.44,14.09 12.41,13.93 C11.88,13.98 11.34,13.93 10.85,13.79 C9.78,13.5 8.86,12.8 8.29,11.87 Z"/>
  <path fill="#292D32" d="M12,13.95 C11.6,13.95 11.21,13.9 10.85,13.8 C9.54,13.44 8.46,12.47 7.96,11.21 C7.76,10.7 7.66,10.16 7.66,9.61 C7.66,7.21 9.61,5.26 12.01,5.26 C14.41,5.26 16.36,7.21 16.36,9.61 C16.36,10.16 16.26,10.7 16.06,11.21 C15.56,12.48 14.47,13.45 13.16,13.8 C12.79,13.9 12.4,13.95 12,13.95 Z M12,6.75 C10.43,6.75 9.15,8.03 9.15,9.6 C9.15,9.96 9.22,10.32 9.35,10.65 C9.68,11.48 10.39,12.12 11.25,12.35 C11.72,12.48 12.28,12.48 12.75,12.35 C13.62,12.11 14.33,11.48 14.65,10.65 C14.78,10.32 14.85,9.96 14.85,9.6 C14.85,8.03 13.57,6.75 12,6.75 Z"/>
  <path fill="#292D32" d="M14.4,18.75 C13.32,18.75 12.29,18.35 11.5,17.63 C11.34,17.49 11.25,17.28 11.25,17.07 C11.25,16.86 11.34,16.65 11.5,16.51 C12.1,15.98 12.45,15.21 12.45,14.4 C12.45,14.04 12.38,13.68 12.25,13.35 C12.17,13.15 12.18,12.93 12.28,12.74 C12.37,12.55 12.55,12.41 12.75,12.35 C13.61,12.11 14.32,11.48 14.65,10.65 C14.79,10.3 15.17,10.1 15.54,10.2 C17.43,10.71 18.75,12.44 18.75,14.4 C18.75,16.8 16.8,18.75 14.4,18.75 Z M13.12,16.95 C13.51,17.15 13.95,17.25 14.4,17.25 C15.97,17.25 17.25,15.97 17.25,14.4 C17.25,13.32 16.64,12.35 15.71,11.87 C15.27,12.59 14.62,13.17 13.86,13.53 C13.92,13.81 13.95,14.1 13.95,14.4 C13.95,15.32 13.66,16.21 13.12,16.95 Z"/>
  <path fill="#292D32" d="M15,22.75 L9,22.75 C3.57,22.75 1.25,20.43 1.25,15 L1.25,9 C1.25,3.57 3.57,1.25 9,1.25 L15,1.25 C20.43,1.25 22.75,3.57 22.75,9 L22.75,15 C22.75,20.43 20.43,22.75 15,22.75 Z M9,2.75 C4.39,2.75 2.75,4.39 2.75,9 L2.75,15 C2.75,19.61 4.39,21.25 9,21.25 L15,21.25 C19.61,21.25 21.25,19.61 21.25,15 L21.25,9 C21.25,4.39 19.61,2.75 15,2.75 L9,2.75 Z"/>
</svg>

