<svg xmlns="http://www.w3.org/2000/svg" width="24" height="24" viewBox="0 0 24 24">
  <defs/>
  <path fill="#292D32" d="M22.001,16.5 L22.001,19.5 C22.001,20.88 20.881,22 19.501,22 L12.361,22 C11.471,22 11.031,20.93 11.651,20.3 L17.521,14.3 C17.711,14.11 17.971,14 18.231,14 L19.501,14 C20.881,14 22.001,15.12 22.001,16.5 Z"/>
  <path fill="#292D32" d="M18.37,11.29 L15.66,13.999 L13.2,16.45 C12.57,17.079 11.49,16.64 11.49,15.749 C11.49,12.54 11.49,7.26 11.49,7.26 C11.49,6.99 11.6,6.74 11.78,6.55 L12.7,5.63 C13.68,4.65 15.26,4.65 16.24,5.63 L18.36,7.75 C19.35,8.73 19.35,10.309 18.37,11.29 Z"/>
  <path fill="#292D32" d="M7.5,2 L4.5,2 C3,2 2,3 2,4.5 L2,18 C2,18.27 2.03,18.54 2.08,18.8 C2.11,18.93 2.14,19.06 2.18,19.19 C2.23,19.34 2.28,19.49 2.34,19.63 C2.35,19.64 2.35,19.65 2.35,19.65 C2.36,19.65 2.36,19.65 2.35,19.66 C2.49,19.94 2.65,20.21 2.84,20.46 C2.95,20.59 3.06,20.71 3.17,20.83 C3.28,20.95 3.4,21.05 3.53,21.15 L3.54,21.16 C3.79,21.35 4.06,21.51 4.34,21.65 C4.35,21.64 4.35,21.64 4.35,21.65 C4.5,21.72 4.65,21.77 4.81,21.82 C4.94,21.86 5.07,21.89 5.2,21.92 C5.46,21.97 5.73,22 6,22 C6.41,22 6.83,21.94 7.22,21.81 C7.33,21.77 7.44,21.73 7.55,21.68 C7.9,21.54 8.24,21.34 8.54,21.08 C8.63,21.01 8.73,20.92 8.82,20.83 L8.86,20.79 C9.56,20.07 10,19.08 10,18 L10,4.5 C10,3 9,2 7.5,2 Z M6,19.5 C5.17,19.5 4.5,18.83 4.5,18 C4.5,17.17 5.17,16.5 6,16.5 C6.83,16.5 7.5,17.17 7.5,18 C7.5,18.83 6.83,19.5 6,19.5 Z"/>
</svg>

