<svg xmlns="http://www.w3.org/2000/svg" width="24" height="24" viewBox="0 0 24 24">
  <defs/>
  <g opacity="0.4">
    <path fill="#292D32" d="M13.95,14.4 Q13.95,16.346 12.499,17.64 Q11.274,18.75 9.6,18.75 Q7.797,18.75 6.523,17.477 Q5.25,16.203 5.25,14.4 Q5.25,11.071 8.455,10.206 Q8.731,10.132 8.987,10.26 Q9.243,10.389 9.348,10.655 Q9.871,11.981 11.247,12.357 Q11.636,12.46 12,12.46 Q12.407,12.46 12.734,12.362 Q13.013,12.278 13.276,12.405 Q13.538,12.531 13.646,12.802 Q13.95,13.561 13.95,14.4 Z M12.45,14.4 Q12.45,14.166 12.414,13.942 Q12.212,13.96 12,13.96 Q11.439,13.96 10.853,13.804 Q9.112,13.329 8.266,11.859 Q6.75,12.545 6.75,14.4 Q6.75,17.25 9.6,17.25 Q10.696,17.25 11.501,16.52 Q12.45,15.674 12.45,14.4 Z"/>
    <path fill="#292D32" d="M16.35,9.6 Q16.35,10.431 16.049,11.203 Q15.25,13.23 13.148,13.804 Q12.561,13.96 12,13.96 Q11.379,13.96 10.844,13.801 Q8.741,13.224 7.952,11.203 Q7.65,10.431 7.65,9.6 Q7.65,7.797 8.924,6.523 Q10.197,5.25 12,5.25 Q13.804,5.25 15.077,6.523 Q16.35,7.797 16.35,9.6 Z M14.85,9.6 Q14.85,6.75 12,6.75 Q10.819,6.75 9.984,7.584 Q9.15,8.418 9.15,9.6 Q9.15,10.148 9.349,10.657 Q9.865,11.979 11.248,12.356 Q11.257,12.359 11.266,12.362 Q11.594,12.46 12,12.46 Q12.365,12.46 12.753,12.356 Q14.13,11.981 14.652,10.657 Q14.85,10.148 14.85,9.6 Z"/>
    <path fill="#292D32" d="M18.75,14.4 Q18.75,16.203 17.477,17.476 Q16.203,18.75 14.4,18.75 Q12.747,18.75 11.501,17.64 Q11.269,17.433 11.251,17.123 Q11.233,16.813 11.44,16.581 Q11.471,16.547 11.505,16.516 Q12.45,15.686 12.45,14.4 Q12.45,13.852 12.251,13.343 Q12.138,13.053 12.263,12.769 Q12.388,12.484 12.677,12.371 Q12.714,12.357 12.753,12.346 Q14.135,11.969 14.651,10.647 Q14.756,10.379 15.014,10.249 Q15.272,10.12 15.55,10.197 Q18.75,11.081 18.75,14.4 Z M17.25,14.4 Q17.25,12.55 15.734,11.853 Q15.075,12.998 13.866,13.539 Q13.95,13.961 13.95,14.4 Q13.95,15.871 13.135,16.957 Q13.715,17.25 14.4,17.25 Q15.582,17.25 16.416,16.416 Q17.25,15.582 17.25,14.4 Z"/>
  </g>
  <path fill="#292D32" d="M9,22.75 Q1.25,22.75 1.25,15 L1.25,9 Q1.25,1.25 9,1.25 L15,1.25 Q22.75,1.25 22.75,9 L22.75,15 Q22.75,22.75 15,22.75 Z M9,21.25 L15,21.25 Q18.439,21.25 19.845,19.845 Q21.25,18.439 21.25,15 L21.25,9 Q21.25,2.75 15,2.75 L9,2.75 Q2.75,2.75 2.75,9 L2.75,15 Q2.75,18.439 4.155,19.845 Q5.561,21.25 9,21.25 Z"/>
</svg>

