<svg xmlns="http://www.w3.org/2000/svg" width="24" height="24" viewBox="0 0 24 24">
  <defs/>
  <path fill="#292D32" d="M6,22.75 C5.7,22.75 5.38,22.72 5.06,22.66 C4.89,22.62 4.74,22.58 4.59,22.54 C4.42,22.49 4.26,22.43 4.11,22.37 C4.07,22.36 4.04,22.34 4.01,22.33 C3.66,22.15 3.36,21.97 3.09,21.77 C3.07,21.76 3.06,21.74 3.04,21.73 C2.89,21.61 2.75,21.49 2.62,21.35 C2.48,21.2 2.38,21.08 2.27,20.96 C2.04,20.66 1.85,20.36 1.68,20.01 C1.66,19.98 1.65,19.94 1.64,19.9 C1.58,19.76 1.53,19.62 1.49,19.47 C1.43,19.26 1.39,19.12 1.36,18.97 C1.29,18.62 1.26,18.31 1.26,18.01 L1.26,4.51 C1.26,2.6 2.6,1.26 4.51,1.26 L7.51,1.26 C9.42,1.26 10.76,2.6 10.76,4.51 L10.76,18 C10.76,19.24 10.28,20.42 9.41,21.31 C9.25,21.47 9.13,21.58 9.02,21.67 C8.7,21.95 8.29,22.2 7.85,22.38 C7.75,22.42 7.63,22.47 7.5,22.52 C7.01,22.67 6.5,22.75 6,22.75 Z M4.74,21 C4.84,21.04 4.94,21.07 5.04,21.1 C5.15,21.13 5.26,21.16 5.37,21.19 C5.92,21.29 6.51,21.26 6.98,21.1 C7.05,21.07 7.15,21.04 7.24,21 C7.56,20.87 7.82,20.71 8.05,20.52 C8.15,20.44 8.22,20.37 8.29,20.31 C8.92,19.66 9.25,18.86 9.25,18.01 L9.25,4.51 C9.25,3.43 8.58,2.76 7.5,2.76 L4.5,2.76 C3.42,2.76 2.75,3.43 2.75,4.51 L2.75,18 C2.75,18.21 2.77,18.43 2.82,18.66 C2.84,18.75 2.87,18.86 2.9,18.98 C2.94,19.09 2.97,19.18 3.01,19.28 C3.03,19.31 3.04,19.34 3.05,19.36 C3.06,19.38 3.07,19.41 3.08,19.43 C3.2,19.65 3.32,19.84 3.45,20.01 C3.52,20.09 3.61,20.19 3.7,20.29 C3.81,20.41 3.9,20.48 4,20.56 C4.01,20.57 4.03,20.58 4.04,20.59 C4.2,20.71 4.38,20.82 4.59,20.93 C4.61,20.94 4.63,20.94 4.65,20.95 C4.67,20.96 4.7,20.98 4.74,21 Z"/>
  <path fill="#292D32" d="M19.5,22.75 L6,22.75 C5.59,22.75 5.25,22.41 5.25,22 C5.25,21.59 5.59,21.25 6,21.25 C6.35,21.25 6.69,21.2 6.98,21.1 C7.05,21.07 7.15,21.04 7.24,21 C7.56,20.87 7.82,20.71 8.05,20.52 C8.15,20.44 8.22,20.37 8.29,20.31 L15.13,13.48 C15.27,13.34 15.46,13.26 15.66,13.26 L19.5,13.26 C21.41,13.26 22.75,14.6 22.75,16.51 L22.75,19.51 C22.75,21.41 21.41,22.75 19.5,22.75 Z M9.46,21.25 L19.5,21.25 C20.58,21.25 21.25,20.58 21.25,19.5 L21.25,16.5 C21.25,15.42 20.58,14.75 19.5,14.75 L15.97,14.75 L9.46,21.25 Z"/>
  <path fill="#292D32" d="M4.81,22.57 C4.74,22.57 4.67,22.56 4.6,22.54 C3.86,22.32 3.18,21.91 2.64,21.36 C2.1,20.83 1.69,20.15 1.47,19.41 C1.35,19.01 1.57,18.6 1.97,18.48 C2.37,18.36 2.78,18.58 2.91,18.97 C3.23,19.99 4.03,20.79 5.05,21.11 C5.44,21.23 5.66,21.65 5.54,22.05 C5.43,22.36 5.13,22.57 4.81,22.57 Z"/>
  <path fill="#292D32" d="M8.86,21.54 C8.67,21.54 8.48,21.47 8.33,21.32 C8.04,21.03 8.03,20.56 8.32,20.26 C8.92,19.65 9.25,18.84 9.25,17.99 L9.25,8.33 C9.25,8.13 9.33,7.94 9.47,7.8 L12.18,5.09 C13.49,3.78 15.47,3.78 16.78,5.09 L18.9,7.21 C20.25,8.56 20.25,10.46 18.9,11.81 L9.39,21.31 C9.24,21.47 9.05,21.54 8.86,21.54 Z M10.75,8.65 L10.75,17.84 L17.84,10.76 C18.6,10 18.6,9.05 17.84,8.28 L15.72,6.16 C14.97,5.41 13.99,5.41 13.24,6.16 L10.75,8.65 Z"/>
  <path fill="#292D32" d="M6,19.75 C5.04,19.75 4.25,18.96 4.25,18 C4.25,17.04 5.04,16.25 6,16.25 C6.96,16.25 7.75,17.04 7.75,18 C7.75,18.96 6.96,19.75 6,19.75 Z M6,17.75 C5.86,17.75 5.75,17.86 5.75,18 C5.75,18.28 6.25,18.28 6.25,18 C6.25,17.86 6.14,17.75 6,17.75 Z"/>
</svg>

