<svg xmlns="http://www.w3.org/2000/svg" width="24" height="24" viewBox="0 0 24 24">
  <defs/>
  <path fill="#292D32" d="M14.4,15.15 L9.6,15.15 C9.19,15.15 8.85,14.81 8.85,14.4 L8.85,9.6 C8.85,9.19 9.19,8.85 9.6,8.85 L14.4,8.85 C14.81,8.85 15.15,9.19 15.15,9.6 L15.15,14.4 C15.15,14.81 14.81,15.15 14.4,15.15 Z M10.35,13.65 L13.65,13.65 L13.65,10.35 L10.35,10.35 L10.35,13.65 Z"/>
  <path fill="#292D32" d="M7.8,18.75 C6.39,18.75 5.25,17.61 5.25,16.2 C5.25,14.79 6.39,13.65 7.8,13.65 L9.6,13.65 C10.01,13.65 10.35,13.99 10.35,14.4 L10.35,16.2 C10.35,17.61 9.21,18.75 7.8,18.75 Z M7.8,15.15 C7.22,15.15 6.75,15.62 6.75,16.2 C6.75,16.78 7.22,17.25 7.8,17.25 C8.38,17.25 8.85,16.78 8.85,16.2 L8.85,15.15 L7.8,15.15 Z"/>
  <path fill="#292D32" d="M9.6,10.35 L7.8,10.35 C6.39,10.35 5.25,9.21 5.25,7.8 C5.25,6.39 6.39,5.25 7.8,5.25 C9.21,5.25 10.35,6.39 10.35,7.8 L10.35,9.6 C10.35,10.01 10.01,10.35 9.6,10.35 Z M7.8,6.75 C7.22,6.75 6.75,7.22 6.75,7.8 C6.75,8.38 7.22,8.85 7.8,8.85 L8.85,8.85 L8.85,7.8 C8.85,7.22 8.38,6.75 7.8,6.75 Z"/>
  <path fill="#292D32" d="M16.2,10.35 L14.4,10.35 C13.99,10.35 13.65,10.01 13.65,9.6 L13.65,7.8 C13.65,6.39 14.79,5.25 16.2,5.25 C17.61,5.25 18.75,6.39 18.75,7.8 C18.75,9.21 17.61,10.35 16.2,10.35 Z M15.15,8.85 L16.2,8.85 C16.78,8.85 17.25,8.38 17.25,7.8 C17.25,7.22 16.78,6.75 16.2,6.75 C15.62,6.75 15.15,7.22 15.15,7.8 L15.15,8.85 Z"/>
  <path fill="#292D32" d="M16.2,18.75 C14.79,18.75 13.65,17.61 13.65,16.2 L13.65,14.4 C13.65,13.99 13.99,13.65 14.4,13.65 L16.2,13.65 C17.61,13.65 18.75,14.79 18.75,16.2 C18.75,17.61 17.61,18.75 16.2,18.75 Z M15.15,15.15 L15.15,16.2 C15.15,16.78 15.62,17.25 16.2,17.25 C16.78,17.25 17.25,16.78 17.25,16.2 C17.25,15.62 16.78,15.15 16.2,15.15 L15.15,15.15 Z"/>
  <path fill="#292D32" d="M15,22.75 L9,22.75 C3.57,22.75 1.25,20.43 1.25,15 L1.25,9 C1.25,3.57 3.57,1.25 9,1.25 L15,1.25 C20.43,1.25 22.75,3.57 22.75,9 L22.75,15 C22.75,20.43 20.43,22.75 15,22.75 Z M9,2.75 C4.39,2.75 2.75,4.39 2.75,9 L2.75,15 C2.75,19.61 4.39,21.25 9,21.25 L15,21.25 C19.61,21.25 21.25,19.61 21.25,15 L21.25,9 C21.25,4.39 19.61,2.75 15,2.75 L9,2.75 Z"/>
</svg>

