<svg xmlns="http://www.w3.org/2000/svg" width="24" height="24" viewBox="0 0 24 24">
  <defs/>
  <path fill="#292D32" d="M16,8 L8,8 L8,16 L16,16 L16,8 Z"/>
  <path fill="#292D32" opacity="0.4" d="M5,22 C6.65,22 8,20.65 8,19 L8,16 L5,16 C3.35,16 2,17.35 2,19 C2,20.65 3.35,22 5,22 Z"/>
  <path fill="#292D32" opacity="0.4" d="M5,8 L8,8 L8,5 C8,3.35 6.65,2 5,2 C3.35,2 2,3.35 2,5 C2,6.65 3.35,8 5,8 Z"/>
  <path fill="#292D32" opacity="0.4" d="M16,8 L19,8 C20.65,8 22,6.65 22,5 C22,3.35 20.65,2 19,2 C17.35,2 16,3.35 16,5 L16,8 Z"/>
  <path fill="#292D32" opacity="0.4" d="M19,22 C20.65,22 22,20.65 22,19 C22,17.35 20.65,16 19,16 L16,16 L16,19 C16,20.65 17.35,22 19,22 Z"/>
</svg>

