<svg xmlns="http://www.w3.org/2000/svg" width="24" height="24" viewBox="0 0 24 24">
  <defs/>
  <g opacity="0.4">
    <path fill="#292D32" d="M8.85,9.6 Q8.85,9.289 9.069,9.07 Q9.289,8.85 9.6,8.85 L14.4,8.85 Q14.71,8.85 14.93,9.07 Q15.15,9.289 15.15,9.6 L15.15,14.4 Q15.15,14.711 14.93,14.93 Q14.71,15.15 14.4,15.15 L9.6,15.15 Q9.289,15.15 9.069,14.93 Q8.85,14.711 8.85,14.4 Z M10.35,10.35 L10.35,13.65 L13.65,13.65 L13.65,10.35 Z"/>
    <path fill="#292D32" d="M7.8,18.75 Q5.25,18.75 5.25,16.2 Q5.25,13.65 7.8,13.65 L9.6,13.65 Q9.911,13.65 10.13,13.87 Q10.35,14.089 10.35,14.4 L10.35,16.2 Q10.35,18.75 7.8,18.75 Z M7.8,17.25 Q8.85,17.25 8.85,16.2 L8.85,15.15 L7.8,15.15 Q6.75,15.15 6.75,16.2 Q6.75,17.25 7.8,17.25 Z"/>
    <path fill="#292D32" d="M7.8,10.35 Q5.25,10.35 5.25,7.8 Q5.25,5.25 7.8,5.25 Q8.853,5.25 9.602,5.998 Q10.35,6.747 10.35,7.8 L10.35,9.6 Q10.35,9.911 10.13,10.13 Q9.911,10.35 9.6,10.35 Z M7.8,8.85 L8.85,8.85 L8.85,7.8 Q8.85,6.75 7.8,6.75 Q7.368,6.75 7.059,7.059 Q6.75,7.368 6.75,7.8 Q6.75,8.85 7.8,8.85 Z"/>
    <path fill="#292D32" d="M14.4,10.35 Q14.09,10.35 13.87,10.13 Q13.65,9.911 13.65,9.6 L13.65,7.8 Q13.65,5.25 16.2,5.25 Q18.75,5.25 18.75,7.8 Q18.75,10.35 16.2,10.35 Z M15.15,8.85 L16.2,8.85 Q17.25,8.85 17.25,7.8 Q17.25,6.75 16.2,6.75 Q15.15,6.75 15.15,7.8 L15.15,8.85 Z"/>
    <path fill="#292D32" d="M16.2,18.75 Q15.147,18.75 14.399,18.001 Q13.65,17.253 13.65,16.2 L13.65,14.4 Q13.65,14.089 13.87,13.87 Q14.09,13.65 14.4,13.65 L16.2,13.65 Q17.254,13.65 18.002,14.398 Q18.75,15.147 18.75,16.2 Q18.75,18.75 16.2,18.75 Z M16.2,17.25 Q17.25,17.25 17.25,16.2 Q17.25,15.15 16.2,15.15 L15.15,15.15 L15.15,16.2 Q15.15,17.25 16.2,17.25 Z"/>
  </g>
  <path fill="#292D32" d="M9,22.75 Q1.25,22.75 1.25,15 L1.25,9 Q1.25,1.25 9,1.25 L15,1.25 Q22.75,1.25 22.75,9 L22.75,15 Q22.75,22.75 15,22.75 Z M9,21.25 L15,21.25 Q18.439,21.25 19.845,19.845 Q21.25,18.439 21.25,15 L21.25,9 Q21.25,2.75 15,2.75 L9,2.75 Q2.75,2.75 2.75,9 L2.75,15 Q2.75,18.439 4.155,19.845 Q5.561,21.25 9,21.25 Z"/>
</svg>

