<svg xmlns="http://www.w3.org/2000/svg" width="24" height="24" viewBox="0 0 24 24">
  <defs/>
  <path fill="#292D32" d="M16,16.75 L8,16.75 C7.59,16.75 7.25,16.41 7.25,16 L7.25,8 C7.25,7.59 7.59,7.25 8,7.25 L16,7.25 C16.41,7.25 16.75,7.59 16.75,8 L16.75,16 C16.75,16.41 16.41,16.75 16,16.75 Z M8.75,15.25 L15.25,15.25 L15.25,8.75 L8.75,8.75 L8.75,15.25 Z"/>
  <path fill="#292D32" d="M5,22.75 C2.93,22.75 1.25,21.07 1.25,19 C1.25,16.93 2.93,15.25 5,15.25 L8,15.25 C8.41,15.25 8.75,15.59 8.75,16 L8.75,19 C8.75,21.07 7.07,22.75 5,22.75 Z M5,16.75 C3.76,16.75 2.75,17.76 2.75,19 C2.75,20.24 3.76,21.25 5,21.25 C6.24,21.25 7.25,20.24 7.25,19 L7.25,16.75 L5,16.75 Z"/>
  <path fill="#292D32" d="M8,8.75 L5,8.75 C2.93,8.75 1.25,7.07 1.25,5 C1.25,2.93 2.93,1.25 5,1.25 C7.07,1.25 8.75,2.93 8.75,5 L8.75,8 C8.75,8.41 8.41,8.75 8,8.75 Z M5,2.75 C3.76,2.75 2.75,3.76 2.75,5 C2.75,6.24 3.76,7.25 5,7.25 L7.25,7.25 L7.25,5 C7.25,3.76 6.24,2.75 5,2.75 Z"/>
  <path fill="#292D32" d="M19,8.75 L16,8.75 C15.59,8.75 15.25,8.41 15.25,8 L15.25,5 C15.25,2.93 16.93,1.25 19,1.25 C21.07,1.25 22.75,2.93 22.75,5 C22.75,7.07 21.07,8.75 19,8.75 Z M16.75,7.25 L19,7.25 C20.24,7.25 21.25,6.24 21.25,5 C21.25,3.76 20.24,2.75 19,2.75 C17.76,2.75 16.75,3.76 16.75,5 L16.75,7.25 Z"/>
  <path fill="#292D32" d="M19,22.75 C16.93,22.75 15.25,21.07 15.25,19 L15.25,16 C15.25,15.59 15.59,15.25 16,15.25 L19,15.25 C21.07,15.25 22.75,16.93 22.75,19 C22.75,21.07 21.07,22.75 19,22.75 Z M16.75,16.75 L16.75,19 C16.75,20.24 17.76,21.25 19,21.25 C20.24,21.25 21.25,20.24 21.25,19 C21.25,17.76 20.24,16.75 19,16.75 L16.75,16.75 Z"/>
</svg>

