<svg xmlns="http://www.w3.org/2000/svg" width="24" height="24" viewBox="0 0 24 24">
  <defs/>
  <path fill="#292D32" opacity="0.4" d="M16.19,2 L7.82,2 C4.18,2 2.01,4.17 2.01,7.81 L2.01,16.18 C2.01,19.82 4.18,21.99 7.82,21.99 L16.19,21.99 C19.83,21.99 22,19.82 22,16.18 L22,7.81 C22,4.17 19.83,2 16.19,2 Z"/>
  <path fill="#292D32" d="M10.75,14.15 L13.26,14.15 C13.75,14.15 14.16,13.75 14.16,13.25 L14.16,10.74 C14.16,10.25 13.76,9.84 13.26,9.84 L10.75,9.84 C10.26,9.84 9.85,10.24 9.85,10.74 L9.85,13.25 C9.85,13.75 10.25,14.15 10.75,14.15 Z"/>
  <path fill="#292D32" d="M7.8,18 C8.79,18 9.6,17.19 9.6,16.2 L9.6,15.4 C9.6,14.85 9.15,14.4 8.6,14.4 L7.8,14.4 C6.81,14.4 6,15.21 6,16.2 C6,17.19 6.81,18 7.8,18 Z"/>
  <path fill="#292D32" d="M7.8,9.6 L8.6,9.6 C9.15,9.6 9.6,9.15 9.6,8.6 L9.6,7.8 C9.6,6.81 8.79,6 7.8,6 C6.81,6 6,6.81 6,7.8 C6,8.79 6.81,9.6 7.8,9.6 Z"/>
  <path fill="#292D32" d="M15.4,9.6 L16.2,9.6 C17.19,9.6 18,8.79 18,7.8 C18,6.81 17.19,6 16.2,6 C15.21,6 14.4,6.81 14.4,7.8 L14.4,8.6 C14.4,9.15 14.85,9.6 15.4,9.6 Z"/>
  <path fill="#292D32" d="M16.2,18 C17.19,18 18,17.19 18,16.2 C18,15.21 17.19,14.4 16.2,14.4 L15.4,14.4 C14.85,14.4 14.4,14.85 14.4,15.4 L14.4,16.2 C14.4,17.19 15.21,18 16.2,18 Z"/>
</svg>

