<svg xmlns="http://www.w3.org/2000/svg" width="24" height="24" viewBox="0 0 24 24">
  <defs/>
  <path fill="#292D32" d="M7.25,8 Q7.25,7.689 7.47,7.47 Q7.689,7.25 8,7.25 L16,7.25 Q16.311,7.25 16.53,7.47 Q16.75,7.689 16.75,8 L16.75,16 Q16.75,16.311 16.53,16.53 Q16.311,16.75 16,16.75 L8,16.75 Q7.689,16.75 7.47,16.53 Q7.25,16.311 7.25,16 Z M8.75,8.75 L8.75,15.25 L15.25,15.25 L15.25,8.75 Z"/>
  <path fill="#292D32" d="M5,22.75 Q1.25,22.75 1.25,19 Q1.25,15.25 5,15.25 L8,15.25 Q8.311,15.25 8.53,15.47 Q8.75,15.689 8.75,16 L8.75,19 Q8.75,22.75 5,22.75 Z M5,21.25 Q7.25,21.25 7.25,19 L7.25,16.75 L5,16.75 Q2.75,16.75 2.75,19 Q2.75,21.25 5,21.25 Z"/>
  <path fill="#292D32" opacity="0.4" d="M5,8.75 Q1.25,8.75 1.25,5 Q1.25,1.25 5,1.25 Q8.75,1.25 8.75,5 L8.75,8 Q8.75,8.311 8.53,8.53 Q8.311,8.75 8,8.75 Z M5,7.25 L7.25,7.25 L7.25,5 Q7.25,2.75 5,2.75 Q2.75,2.75 2.75,5 Q2.75,7.25 5,7.25 Z"/>
  <path fill="#292D32" d="M16,8.75 Q15.689,8.75 15.47,8.53 Q15.25,8.311 15.25,8 L15.25,5 Q15.25,1.25 19,1.25 Q22.75,1.25 22.75,5 Q22.75,8.75 19,8.75 Z M16.75,7.25 L19,7.25 Q21.25,7.25 21.25,5 Q21.25,2.75 19,2.75 Q16.75,2.75 16.75,5 L16.75,7.25 Z"/>
  <path fill="#292D32" opacity="0.4" d="M19,22.75 Q15.25,22.75 15.25,19 L15.25,16 Q15.25,15.689 15.47,15.47 Q15.689,15.25 16,15.25 L19,15.25 Q22.75,15.25 22.75,19 Q22.75,22.75 19,22.75 Z M19,21.25 Q21.25,21.25 21.25,19 Q21.25,16.75 19,16.75 L16.75,16.75 L16.75,19 Q16.75,21.25 19,21.25 Z"/>
</svg>

