<svg xmlns="http://www.w3.org/2000/svg" width="24" height="24" viewBox="0 0 24 24">
  <defs/>
  <path fill="#292D32" d="M16.19,2 L7.81,2 C4.17,2 2,4.17 2,7.81 L2,16.18 C2,19.83 4.17,22 7.81,22 L16.18,22 C19.82,22 21.99,19.83 21.99,16.19 L21.99,7.81 C22,4.17 19.83,2 16.19,2 Z M9.6,16.2 C9.6,17.19 8.79,18 7.8,18 C6.81,18 6,17.19 6,16.2 C6,15.21 6.81,14.4 7.8,14.4 L8.6,14.4 C9.15,14.4 9.6,14.85 9.6,15.4 L9.6,16.2 Z M9.6,8.6 C9.6,9.15 9.15,9.6 8.6,9.6 L7.8,9.6 C6.81,9.6 6,8.79 6,7.8 C6,6.81 6.81,6 7.8,6 C8.79,6 9.6,6.81 9.6,7.8 L9.6,8.6 Z M14.15,13.25 C14.15,13.74 13.75,14.15 13.25,14.15 L10.74,14.15 C10.25,14.15 9.84,13.75 9.84,13.25 L9.84,10.74 C9.84,10.25 10.24,9.84 10.74,9.84 L13.25,9.84 C13.74,9.84 14.15,10.24 14.15,10.74 L14.15,13.25 Z M16.2,18 C15.21,18 14.4,17.19 14.4,16.2 L14.4,15.4 C14.4,14.85 14.85,14.4 15.4,14.4 L16.2,14.4 C17.19,14.4 18,15.21 18,16.2 C18,17.19 17.19,18 16.2,18 Z M16.2,9.6 L15.4,9.6 C14.85,9.6 14.4,9.15 14.4,8.6 L14.4,7.8 C14.4,6.81 15.21,6 16.2,6 C17.19,6 18,6.81 18,7.8 C18,8.79 17.19,9.6 16.2,9.6 Z"/>
</svg>

