<svg xmlns="http://www.w3.org/2000/svg" width="24" height="24" viewBox="0 0 24 24">
  <defs/>
  <path fill="#292D32" d="M22.72,15 Q22.72,19.061 20.875,20.905 Q19.031,22.75 14.97,22.75 L8.97,22.75 Q1.22,22.75 1.22,15 L1.22,9 Q1.22,1.25 8.97,1.25 L14.97,1.25 Q19.031,1.25 20.875,3.095 Q22.72,4.939 22.72,9 Z M21.22,15 L21.22,9 Q21.22,5.561 19.815,4.155 Q18.409,2.75 14.97,2.75 L8.97,2.75 Q2.72,2.75 2.72,9 L2.72,15 Q2.72,18.439 4.125,19.845 Q5.531,21.25 8.97,21.25 L14.97,21.25 Q18.409,21.25 19.815,19.845 Q21.22,18.439 21.22,15 Z"/>
  <path fill="#292D32" d="M20.25,3.78 L3.8,20.23 Q3.581,20.45 3.27,20.45 Q2.959,20.45 2.74,20.23 Q2.52,20.011 2.52,19.7 Q2.52,19.389 2.74,19.17 L19.19,2.72 Q19.409,2.5 19.72,2.5 Q20.031,2.5 20.25,2.72 Q20.47,2.939 20.47,3.25 Q20.47,3.561 20.25,3.78 Z"/>
  <path fill="#292D32" d="M15.31,18 L15.31,13 Q15.31,12.689 15.53,12.47 Q15.749,12.25 16.06,12.25 Q16.371,12.25 16.59,12.47 Q16.81,12.689 16.81,13 L16.81,18 Q16.81,18.311 16.59,18.53 Q16.371,18.75 16.06,18.75 Q15.749,18.75 15.53,18.53 Q15.31,18.311 15.31,18 Z"/>
  <path fill="#292D32" d="M18.5,16.25 L13.5,16.25 Q13.189,16.25 12.97,16.03 Q12.75,15.811 12.75,15.5 Q12.75,15.189 12.97,14.97 Q13.189,14.75 13.5,14.75 L18.5,14.75 Q18.811,14.75 19.03,14.97 Q19.25,15.189 19.25,15.5 Q19.25,15.811 19.03,16.03 Q18.811,16.25 18.5,16.25 Z"/>
  <path fill="#292D32" d="M10.5,8.25 L5.5,8.25 Q5.189,8.25 4.97,8.03 Q4.75,7.811 4.75,7.5 Q4.75,7.189 4.97,6.97 Q5.189,6.75 5.5,6.75 L10.5,6.75 Q10.811,6.75 11.03,6.97 Q11.25,7.189 11.25,7.5 Q11.25,7.811 11.03,8.03 Q10.811,8.25 10.5,8.25 Z"/>
</svg>

