<svg xmlns="http://www.w3.org/2000/svg" width="24" height="24" viewBox="0 0 24 24">
  <defs/>
  <path fill="#292D32" d="M21.48,15.08 L15.09,21.47 Q13.821,22.74 12.009,22.74 Q10.198,22.74 8.922,21.472 L2.53,15.08 Q1.26,13.811 1.26,11.999 Q1.26,10.188 2.528,8.912 L8.92,2.52 Q10.189,1.25 12.001,1.25 Q13.812,1.25 15.088,2.518 L21.48,8.91 Q22.75,10.188 22.75,11.999 Q22.75,13.811 21.48,15.08 Z M20.42,14.02 Q22.437,12.002 20.42,9.97 L14.032,3.582 Q11.998,1.563 9.98,3.58 L3.592,9.968 Q1.573,12.002 3.59,14.02 L9.978,20.408 Q12.012,22.427 14.03,20.41 Z"/>
</svg>

