<svg xmlns="http://www.w3.org/2000/svg" width="24" height="24" viewBox="0 0 24 24">
  <defs/>
  <path fill="#292D32" d="M14.971,22.75 L8.971,22.75 C3.541,22.75 1.221,20.43 1.221,15 L1.221,9 C1.221,3.57 3.541,1.25 8.971,1.25 L14.971,1.25 C20.401,1.25 22.721,3.57 22.721,9 L22.721,15 C22.721,20.43 20.411,22.75 14.971,22.75 Z M8.971,2.75 C4.361,2.75 2.721,4.39 2.721,9 L2.721,15 C2.721,19.61 4.361,21.25 8.971,21.25 L14.971,21.25 C19.581,21.25 21.221,19.61 21.221,15 L21.221,9 C21.221,4.39 19.581,2.75 14.971,2.75 L8.971,2.75 Z"/>
  <path fill="#292D32" d="M3.271,20.45 C3.081,20.45 2.891,20.38 2.741,20.23 C2.451,19.94 2.451,19.46 2.741,19.17 L19.191,2.72 C19.481,2.43 19.961,2.43 20.251,2.72 C20.541,3.01 20.541,3.49 20.251,3.78 L3.801,20.23 C3.661,20.38 3.471,20.45 3.271,20.45 Z"/>
  <path fill="#292D32" d="M16.061,18.75 C15.65,18.75 15.31,18.41 15.31,18 L15.31,13 C15.31,12.59 15.65,12.25 16.061,12.25 C16.471,12.25 16.811,12.59 16.811,13 L16.811,18 C16.811,18.41 16.471,18.75 16.061,18.75 Z"/>
  <path fill="#292D32" d="M18.5,16.25 L13.5,16.25 C13.09,16.25 12.75,15.91 12.75,15.5 C12.75,15.09 13.09,14.75 13.5,14.75 L18.5,14.75 C18.91,14.75 19.25,15.09 19.25,15.5 C19.25,15.91 18.91,16.25 18.5,16.25 Z"/>
  <path fill="#292D32" d="M10.5,8.25 L5.5,8.25 C5.09,8.25 4.75,7.91 4.75,7.5 C4.75,7.09 5.09,6.75 5.5,6.75 L10.5,6.75 C10.91,6.75 11.25,7.09 11.25,7.5 C11.25,7.91 10.91,8.25 10.5,8.25 Z"/>
</svg>

