<svg xmlns="http://www.w3.org/2000/svg" width="24" height="24" viewBox="0 0 24 24">
  <defs/>
  <path fill="#292D32" opacity="0.4" d="M22,7.81 L22,16.19 C22,19.83 19.83,22 16.19,22 L7.81,22 C6.32,22 5.08,21.64 4.13,20.95 C3.71,20.66 3.34,20.29 3.05,19.87 C2.36,18.92 2,17.68 2,16.19 L2,7.81 C2,4.17 4.17,2 7.81,2 L16.19,2 C17.68,2 18.92,2.36 19.87,3.05 C20.29,3.34 20.66,3.71 20.95,4.13 C21.64,5.08 22,6.32 22,7.81 Z"/>
  <path fill="#292D32" d="M20.951,4.13 L4.131,20.95 C3.711,20.66 3.341,20.29 3.051,19.87 L19.871,3.05 C20.291,3.34 20.661,3.71 20.951,4.13 Z"/>
  <path fill="#292D32" d="M18.5,14.75 L16.81,14.75 L16.81,13 C16.81,12.59 16.47,12.25 16.06,12.25 C15.65,12.25 15.31,12.59 15.31,13 L15.31,14.75 L13.5,14.75 C13.09,14.75 12.75,15.09 12.75,15.5 C12.75,15.91 13.09,16.25 13.5,16.25 L15.31,16.25 L15.31,18 C15.31,18.41 15.65,18.75 16.06,18.75 C16.47,18.75 16.81,18.41 16.81,18 L16.81,16.25 L18.5,16.25 C18.91,16.25 19.25,15.91 19.25,15.5 C19.25,15.09 18.91,14.75 18.5,14.75 Z"/>
  <path fill="#292D32" d="M10.5,8.25 L5.5,8.25 C5.09,8.25 4.75,7.91 4.75,7.5 C4.75,7.09 5.09,6.75 5.5,6.75 L10.5,6.75 C10.91,6.75 11.25,7.09 11.25,7.5 C11.25,7.91 10.91,8.25 10.5,8.25 Z"/>
</svg>

