<svg xmlns="http://www.w3.org/2000/svg" width="24" height="24" viewBox="0 0 24 24">
  <defs/>
  <path fill="#292D32" d="M20.951,4.129 L4.131,20.949 C5.081,21.639 6.321,21.999 7.811,21.999 L16.191,21.999 C19.831,21.999 22.001,19.829 22.001,16.189 L22.001,7.809 C22.001,6.319 21.641,5.079 20.951,4.129 Z M18.501,16.249 L16.811,16.249 L16.811,17.999 C16.811,18.409 16.471,18.749 16.061,18.749 C15.651,18.749 15.311,18.409 15.311,17.999 L15.311,16.249 L13.501,16.249 C13.091,16.249 12.751,15.909 12.751,15.499 C12.751,15.089 13.091,14.749 13.501,14.749 L15.311,14.749 L15.311,12.999 C15.311,12.589 15.651,12.249 16.061,12.249 C16.471,12.249 16.811,12.589 16.811,12.999 L16.811,14.749 L18.501,14.749 C18.911,14.749 19.251,15.089 19.251,15.499 C19.251,15.909 18.911,16.249 18.501,16.249 Z"/>
  <path fill="#292D32" d="M16.19,2 L7.81,2 C4.17,2 2,4.17 2,7.81 L2,16.19 C2,17.68 2.36,18.92 3.05,19.87 L19.87,3.05 C18.92,2.36 17.68,2 16.19,2 Z M10.5,8.25 L5.5,8.25 C5.09,8.25 4.75,7.91 4.75,7.5 C4.75,7.09 5.09,6.75 5.5,6.75 L10.5,6.75 C10.91,6.75 11.25,7.09 11.25,7.5 C11.25,7.91 10.91,8.25 10.5,8.25 Z"/>
</svg>

