<svg xmlns="http://www.w3.org/2000/svg" width="24" height="24" viewBox="0 0 24 24">
  <defs/>
  <path fill="#292D32" opacity="0.4" d="M22.029,12.03 C22.029,15.06 20.679,17.78 18.539,19.62 C18.159,19.94 17.759,20.24 17.329,20.51 C15.799,21.47 13.979,22.03 12.029,22.03 C6.509,22.03 2.029,17.55 2.029,12.03 C2.029,9 3.379,6.28 5.519,4.44 C5.899,4.12 6.299,3.82 6.729,3.55 C8.259,2.59 10.079,2.03 12.029,2.03 C17.549,2.03 22.029,6.51 22.029,12.03 Z"/>
  <path fill="#292D32" d="M15.1,7.68 L15.089,12.23 C15.089,12.54 14.899,12.81 14.62,12.92 C14.53,12.96 14.43,12.98 14.339,12.98 C14.139,12.98 13.95,12.9 13.809,12.76 L5.62,4.56 C5.58,4.52 5.55,4.48 5.52,4.44 C5.9,4.12 6.3,3.82 6.73,3.55 L13.589,10.42 L13.6,7.68 C13.6,7.27 13.94,6.93 14.35,6.93 C14.77,6.93 15.1,7.27 15.1,7.68 Z"/>
  <path fill="#292D32" d="M18.541,19.62 C18.161,19.94 17.761,20.24 17.331,20.51 L10.471,13.64 L10.461,16.38 C10.461,16.79 10.121,17.13 9.711,17.13 C9.291,17.13 8.961,16.79 8.961,16.38 L8.971,11.83 C8.971,11.52 9.161,11.25 9.441,11.14 C9.711,11.02 10.041,11.08 10.251,11.3 L18.441,19.5 C18.481,19.54 18.511,19.58 18.541,19.62 Z"/>
</svg>

