<svg xmlns="http://www.w3.org/2000/svg" width="24" height="24" viewBox="0 0 24 24">
  <defs/>
  <path fill="#292D32" d="M22.75,15 Q22.75,18.213 20.482,20.482 Q18.213,22.75 15,22.75 Q14.689,22.75 14.47,22.53 Q14.25,22.311 14.25,22 Q14.25,21.792 14.357,21.614 L15.407,19.864 Q15.567,19.598 15.868,19.522 Q16.169,19.447 16.436,19.607 Q16.702,19.767 16.778,20.068 Q16.853,20.369 16.693,20.636 L16.414,21.102 Q18.112,20.729 19.421,19.421 Q21.25,17.592 21.25,15 Q21.25,14.689 21.47,14.47 Q21.689,14.25 22,14.25 Q22.311,14.25 22.53,14.47 Q22.75,14.689 22.75,15 Z"/>
  <path fill="#292D32" d="M1.25,9 Q1.25,5.787 3.518,3.518 Q5.787,1.25 9,1.25 Q9.311,1.25 9.53,1.47 Q9.75,1.689 9.75,2 Q9.75,2.208 9.643,2.386 L8.593,4.136 Q8.433,4.402 8.132,4.478 Q7.831,4.553 7.564,4.393 Q7.298,4.233 7.222,3.932 Q7.147,3.631 7.307,3.364 L7.586,2.898 Q5.888,3.271 4.579,4.579 Q2.75,6.408 2.75,9 Q2.75,9.311 2.53,9.53 Q2.311,9.75 2,9.75 Q1.689,9.75 1.47,9.53 Q1.25,9.311 1.25,9 Z"/>
  <path fill="#292D32" d="M14.075,3.801 L17.679,5.883 L21.243,3.812 Q21.512,3.655 21.812,3.735 Q22.112,3.814 22.268,4.083 Q22.424,4.352 22.345,4.652 Q22.265,4.952 21.997,5.108 L18.057,7.398 Q17.681,7.617 17.305,7.399 L13.325,5.099 Q13.056,4.944 12.975,4.644 Q12.895,4.344 13.051,4.075 Q13.206,3.806 13.506,3.725 Q13.806,3.645 14.075,3.801 Z"/>
  <path fill="#292D32" d="M16.93,10.82 L16.93,6.74 Q16.93,6.429 17.15,6.21 Q17.369,5.99 17.68,5.99 Q17.991,5.99 18.21,6.21 Q18.43,6.429 18.43,6.74 L18.43,10.82 Q18.43,11.131 18.21,11.35 Q17.991,11.57 17.68,11.57 Q17.369,11.57 17.15,11.35 Q16.93,11.131 16.93,10.82 Z"/>
  <path fill="#292D32" d="M16.384,1.55 Q17.688,0.848 18.974,1.554 L21.369,2.882 Q22.75,3.635 22.75,5.22 L22.75,7.76 Q22.75,9.331 21.374,10.096 L18.975,11.425 Q17.662,12.157 16.376,11.426 L13.981,10.098 Q12.6,9.345 12.6,7.76 L12.6,5.22 Q12.6,3.649 13.976,2.884 L16.376,1.554 Z M14.704,4.196 Q14.1,4.531 14.1,5.22 L14.1,7.76 Q14.1,8.455 14.699,8.782 L17.104,10.114 Q17.669,10.436 18.245,10.115 L20.646,8.784 Q21.25,8.449 21.25,7.76 L21.25,5.22 Q21.25,4.525 20.651,4.198 L18.246,2.866 Q17.682,2.556 17.099,2.868 L14.704,4.196 Z"/>
  <path fill="#292D32" d="M2.726,14.801 L6.32,16.883 L9.894,14.811 Q10.163,14.655 10.463,14.735 Q10.763,14.815 10.919,15.084 Q11.075,15.353 10.995,15.653 Q10.915,15.953 10.646,16.109 L6.696,18.399 Q6.32,18.617 5.944,18.399 L1.974,16.099 Q1.705,15.943 1.625,15.643 Q1.545,15.343 1.701,15.074 Q1.857,14.805 2.157,14.725 Q2.457,14.645 2.726,14.801 Z"/>
  <path fill="#292D32" d="M5.57,21.82 L5.57,17.74 Q5.57,17.429 5.79,17.21 Q6.009,16.99 6.32,16.99 Q6.631,16.99 6.85,17.21 Q7.07,17.429 7.07,17.74 L7.07,21.82 Q7.07,22.131 6.85,22.35 Q6.631,22.57 6.32,22.57 Q6.009,22.57 5.79,22.35 Q5.57,22.131 5.57,21.82 Z"/>
  <path fill="#292D32" d="M5.029,12.553 Q6.312,11.848 7.624,12.554 L10.019,13.882 Q11.4,14.635 11.4,16.22 L11.4,18.76 Q11.4,20.331 10.024,21.096 L7.625,22.425 Q6.312,23.157 5.026,22.426 L2.631,21.098 Q1.25,20.345 1.25,18.76 L1.25,16.22 Q1.25,14.649 2.626,13.884 L5.026,12.554 Z M5.754,13.866 L3.354,15.196 Q2.75,15.531 2.75,16.22 L2.75,18.76 Q2.75,19.455 3.349,19.782 L5.754,21.114 Q6.319,21.436 6.895,21.115 L9.296,19.784 Q9.9,19.449 9.9,18.76 L9.9,16.22 Q9.9,15.525 9.301,15.198 L6.896,13.866 Q6.321,13.556 5.754,13.866 Z"/>
</svg>

