<svg xmlns="http://www.w3.org/2000/svg" width="24" height="24" viewBox="0 0 24 24">
  <defs/>
  <path fill="#292D32" d="M12.031,2.031 C10.081,2.031 8.261,2.591 6.731,3.551 L13.591,10.421 L13.601,7.681 C13.601,7.271 13.941,6.931 14.351,6.931 C14.771,6.931 15.101,7.271 15.101,7.681 L15.091,12.231 C15.091,12.541 14.901,12.811 14.621,12.921 C14.531,12.961 14.431,12.981 14.341,12.981 C14.141,12.981 13.951,12.901 13.811,12.761 L5.621,4.561 C5.581,4.521 5.551,4.481 5.521,4.441 C3.381,6.281 2.031,9.001 2.031,12.031 C2.031,17.551 6.511,22.031 12.031,22.031 C13.981,22.031 15.801,21.471 17.331,20.511 L10.471,13.641 L10.461,16.381 C10.461,16.791 10.121,17.131 9.711,17.131 C9.291,17.131 8.961,16.791 8.961,16.381 L8.971,11.831 C8.971,11.521 9.161,11.251 9.441,11.141 C9.711,11.021 10.041,11.081 10.251,11.301 L18.441,19.501 C18.481,19.541 18.511,19.581 18.541,19.621 C20.681,17.781 22.031,15.061 22.031,12.031 C22.031,6.511 17.551,2.031 12.031,2.031 Z"/>
</svg>

