<svg xmlns="http://www.w3.org/2000/svg" width="24" height="24" viewBox="0 0 24 24">
  <defs/>
  <path fill="#292D32" d="M12.005,22.733 C6.087,22.733 1.277,17.923 1.277,12.005 C1.277,6.087 6.087,1.277 12.005,1.277 C17.923,1.277 22.733,6.087 22.733,12.005 C22.733,17.923 17.913,22.733 12.005,22.733 Z M12.005,2.774 C6.916,2.774 2.774,6.916 2.774,12.005 C2.774,17.094 6.916,21.236 12.005,21.236 C17.094,21.236 21.236,17.094 21.236,12.005 C21.236,6.916 17.094,2.774 12.005,2.774 Z"/>
  <path fill="#292D32" d="M14.3,12.953 C14.1,12.953 13.91,12.873 13.771,12.734 L5.608,4.551 C5.318,4.261 5.318,3.782 5.608,3.493 C5.897,3.204 6.376,3.204 6.665,3.493 L13.561,10.399 L13.571,7.664 C13.571,7.255 13.91,6.916 14.319,6.916 C14.729,6.886 15.068,7.255 15.068,7.664 L15.058,12.205 C15.058,12.504 14.878,12.784 14.599,12.893 C14.499,12.933 14.399,12.953 14.3,12.953 Z"/>
  <path fill="#292D32" d="M17.863,20.727 C17.673,20.727 17.484,20.657 17.334,20.507 L10.438,13.601 L10.428,16.336 C10.428,16.745 10.089,17.084 9.68,17.084 C9.271,17.084 8.932,16.745 8.932,16.336 L8.942,11.795 C8.942,11.496 9.121,11.216 9.401,11.107 C9.68,10.987 9.999,11.057 10.219,11.266 L18.382,19.449 C18.671,19.739 18.671,20.218 18.382,20.507 C18.252,20.657 18.053,20.727 17.863,20.727 Z"/>
</svg>

