<svg xmlns="http://www.w3.org/2000/svg" width="24" height="24" viewBox="0 0 24 24">
  <defs/>
  <path fill="#292D32" d="M15,22.75 C14.73,22.75 14.48,22.6 14.35,22.37 C14.22,22.14 14.22,21.85 14.36,21.62 L15.41,19.87 C15.62,19.51 16.08,19.4 16.44,19.61 C16.8,19.82 16.91,20.28 16.7,20.64 L16.43,21.09 C19.19,20.44 21.26,17.96 21.26,15 C21.26,14.59 21.6,14.25 22.01,14.25 C22.42,14.25 22.76,14.59 22.76,15 C22.75,19.27 19.27,22.75 15,22.75 Z"/>
  <path fill="#292D32" d="M2,9.75 C1.59,9.75 1.25,9.41 1.25,9 C1.25,4.73 4.73,1.25 9,1.25 C9.27,1.25 9.52,1.4 9.65,1.63 C9.78,1.86 9.78,2.15 9.64,2.38 L8.59,4.13 C8.38,4.49 7.92,4.6 7.56,4.39 C7.2,4.18 7.09,3.72 7.3,3.36 L7.57,2.91 C4.81,3.56 2.74,6.04 2.74,9 C2.75,9.41 2.41,9.75 2,9.75 Z"/>
  <path fill="#292D32" d="M17.68,7.5 C17.55,7.5 17.42,7.47 17.3,7.4 L13.33,5.1 C12.97,4.89 12.85,4.43 13.06,4.07 C13.27,3.71 13.73,3.59 14.08,3.8 L17.68,5.88 L21.25,3.81 C21.61,3.6 22.07,3.73 22.27,4.08 C22.48,4.44 22.35,4.9 22,5.11 L18.05,7.39 C17.94,7.46 17.81,7.5 17.68,7.5 Z"/>
  <path fill="#292D32" d="M17.68,11.57 C17.27,11.57 16.93,11.23 16.93,10.82 L16.93,6.74 C16.93,6.33 17.27,5.99 17.68,5.99 C18.09,5.99 18.43,6.33 18.43,6.74 L18.43,10.82 C18.43,11.24 18.09,11.57 17.68,11.57 Z"/>
  <path fill="#292D32" d="M17.679,11.75 C17.219,11.75 16.749,11.65 16.379,11.44 L13.979,10.11 C13.199,9.68 12.609,8.67 12.609,7.78 L12.609,5.24 C12.609,4.34 13.199,3.34 13.989,2.9 L16.389,1.57 C17.129,1.16 18.239,1.16 18.989,1.57 L21.389,2.9 C22.169,3.33 22.759,4.34 22.759,5.23 L22.759,7.77 C22.759,8.67 22.169,9.67 21.389,10.1 L18.989,11.43 C18.599,11.65 18.139,11.75 17.679,11.75 Z M17.109,2.87 L14.709,4.2 C14.409,4.37 14.109,4.88 14.109,5.22 L14.109,7.76 C14.109,8.11 14.409,8.62 14.709,8.78 L17.109,10.12 C17.399,10.28 17.959,10.28 18.249,10.12 L20.649,8.79 C20.949,8.62 21.249,8.11 21.249,7.77 L21.249,5.23 C21.249,4.88 20.949,4.37 20.649,4.21 L18.249,2.88 C17.959,2.71 17.389,2.71 17.109,2.87 Z"/>
  <path fill="#292D32" d="M6.321,18.5 C6.191,18.5 6.061,18.47 5.941,18.4 L1.971,16.1 C1.611,15.89 1.491,15.43 1.701,15.07 C1.911,14.71 2.371,14.59 2.721,14.8 L6.321,16.88 L9.891,14.81 C10.251,14.6 10.711,14.73 10.911,15.08 C11.121,15.44 10.991,15.9 10.641,16.11 L6.691,18.39 C6.581,18.46 6.451,18.5 6.321,18.5 Z"/>
  <path fill="#292D32" d="M6.32,22.57 C5.91,22.57 5.57,22.23 5.57,21.82 L5.57,17.74 C5.57,17.33 5.91,16.99 6.32,16.99 C6.73,16.99 7.07,17.33 7.07,17.74 L7.07,21.82 C7.07,22.24 6.74,22.57 6.32,22.57 Z"/>
  <path fill="#292D32" d="M6.32,22.75 C5.86,22.75 5.39,22.65 5.02,22.44 L2.62,21.11 C1.84,20.68 1.25,19.67 1.25,18.78 L1.25,16.24 C1.25,15.34 1.84,14.34 2.62,13.91 L5.02,12.58 C5.76,12.17 6.88,12.17 7.62,12.58 L10.02,13.91 C10.8,14.34 11.39,15.35 11.39,16.24 L11.39,18.78 C11.39,19.68 10.8,20.68 10.01,21.12 L7.61,22.45 C7.25,22.65 6.79,22.75 6.32,22.75 Z M5.75,13.87 L3.35,15.2 C3.05,15.37 2.75,15.88 2.75,16.22 L2.75,18.76 C2.75,19.11 3.05,19.62 3.35,19.78 L5.75,21.11 C6.04,21.27 6.6,21.27 6.89,21.11 L9.29,19.78 C9.59,19.61 9.89,19.1 9.89,18.76 L9.89,16.22 C9.89,15.87 9.59,15.36 9.29,15.2 L6.89,13.86 C6.61,13.71 6.04,13.71 5.75,13.87 Z"/>
</svg>

