<svg xmlns="http://www.w3.org/2000/svg" width="24" height="24" viewBox="0 0 24 24">
  <defs/>
  <path fill="#292D32" d="M22,6.31 L12,6.31 C11.59,6.31 11.25,5.97 11.25,5.56 C11.25,5.15 11.59,4.81 12,4.81 L22,4.81 C22.41,4.81 22.75,5.15 22.75,5.56 C22.75,5.98 22.41,6.31 22,6.31 Z"/>
  <path fill="#292D32" d="M19.78,11.25 L14.23,11.25 C12.04,11.25 11.26,10.48 11.26,8.3 L11.26,4.2 C11.26,2.02 12.04,1.25 14.23,1.25 L19.78,1.25 C21.97,1.25 22.75,2.02 22.75,4.2 L22.75,8.31 C22.75,10.48 21.97,11.25 19.78,11.25 Z M14.22,2.75 C12.86,2.75 12.75,2.86 12.75,4.2 L12.75,8.31 C12.75,9.65 12.86,9.76 14.22,9.76 L19.77,9.76 C21.13,9.76 21.24,9.65 21.24,8.31 L21.24,4.2 C21.24,2.86 21.13,2.75 19.77,2.75 L14.22,2.75 Z"/>
  <path fill="#292D32" d="M12,17.81 L2,17.81 C1.59,17.81 1.25,17.47 1.25,17.06 C1.25,16.65 1.59,16.31 2,16.31 L12,16.31 C12.41,16.31 12.75,16.65 12.75,17.06 C12.75,17.48 12.41,17.81 12,17.81 Z"/>
  <path fill="#292D32" d="M9.78,22.75 L4.23,22.75 C2.04,22.75 1.26,21.98 1.26,19.8 L1.26,15.7 C1.26,13.52 2.04,12.75 4.23,12.75 L9.78,12.75 C11.97,12.75 12.75,13.52 12.75,15.7 L12.75,19.81 C12.75,21.98 11.97,22.75 9.78,22.75 Z M4.22,14.25 C2.86,14.25 2.75,14.36 2.75,15.7 L2.75,19.81 C2.75,21.15 2.86,21.26 4.22,21.26 L9.77,21.26 C11.13,21.26 11.24,21.15 11.24,19.81 L11.24,15.7 C11.24,14.36 11.13,14.25 9.77,14.25 L4.22,14.25 Z"/>
  <path fill="#292D32" d="M15,22.75 C14.73,22.75 14.48,22.6 14.35,22.37 C14.22,22.13 14.22,21.85 14.36,21.61 L15.41,19.86 C15.62,19.51 16.08,19.39 16.44,19.6 C16.8,19.81 16.91,20.27 16.7,20.63 L16.43,21.08 C19.19,20.43 21.26,17.95 21.26,14.99 C21.26,14.58 21.6,14.24 22.01,14.24 C22.42,14.24 22.76,14.58 22.76,14.99 C22.75,19.27 19.27,22.75 15,22.75 Z"/>
  <path fill="#292D32" d="M2,9.75 C1.59,9.75 1.25,9.41 1.25,9 C1.25,4.73 4.73,1.25 9,1.25 C9.27,1.25 9.52,1.4 9.65,1.63 C9.78,1.87 9.78,2.15 9.64,2.39 L8.59,4.14 C8.38,4.49 7.92,4.61 7.56,4.4 C7.2,4.19 7.09,3.73 7.3,3.37 L7.57,2.92 C4.81,3.57 2.74,6.05 2.74,9.01 C2.75,9.41 2.41,9.75 2,9.75 Z"/>
</svg>

