<svg xmlns="http://www.w3.org/2000/svg" width="24" height="24" viewBox="0 0 24 24">
  <defs/>
  <path fill="#292D32" opacity="0.4" d="M22,5.15 L22,8.85 C22,11.1 21.1,12 18.85,12 L16.15,12 C13.9,12 13,11.1 13,8.85 L13,5.15 C13,2.9 13.9,2 16.15,2 L18.85,2 C21.1,2 22,2.9 22,5.15 Z"/>
  <path fill="#292D32" opacity="0.4" d="M11,15.15 L11,18.85 C11,21.1 10.1,22 7.85,22 L5.15,22 C2.9,22 2,21.1 2,18.85 L2,15.15 C2,12.9 2.9,12 5.15,12 L7.85,12 C10.1,12 11,12.9 11,15.15 Z"/>
  <path fill="#292D32" d="M14.78,22 C14.509,22 14.259,21.85 14.13,21.62 C13.999,21.38 13.999,21.1 14.139,20.86 L15.11,19.24 C15.319,18.88 15.78,18.77 16.14,18.98 C16.5,19.19 16.61,19.65 16.399,20.01 L16.22,20.31 C18.689,19.67 20.509,17.43 20.509,14.77 C20.509,14.36 20.849,14.02 21.259,14.02 C21.669,14.02 22,14.36 22,14.78 C22,18.76 18.759,22 14.78,22 Z"/>
  <path fill="#292D32" d="M2.75,9.97 C2.34,9.97 2,9.64 2,9.22 C2,5.24 5.24,2 9.22,2 C9.5,2 9.74,2.15 9.88,2.38 C10.01,2.62 10.01,2.9 9.87,3.14 L8.9,4.75 C8.68,5.11 8.22,5.23 7.87,5.01 C7.51,4.8 7.4,4.34 7.61,3.98 L7.79,3.68 C5.33,4.32 3.5,6.56 3.5,9.22 C3.5,9.64 3.16,9.97 2.75,9.97 Z"/>
</svg>

