<svg xmlns="http://www.w3.org/2000/svg" width="24" height="24" viewBox="0 0 24 24">
  <defs/>
  <path fill="#292D32" d="M12,4.81 L22,4.81 Q22.311,4.81 22.53,5.03 Q22.75,5.249 22.75,5.56 Q22.75,5.871 22.53,6.09 Q22.311,6.31 22,6.31 L12,6.31 Q11.689,6.31 11.47,6.09 Q11.25,5.871 11.25,5.56 Q11.25,5.249 11.47,5.03 Q11.689,4.81 12,4.81 Z"/>
  <path fill="#292D32" d="M15.65,11.25 L14.22,11.25 Q11.25,11.25 11.25,8.3 L11.25,4.2 Q11.25,1.25 14.22,1.25 L19.78,1.25 Q22.75,1.25 22.75,4.2 L22.75,8.31 Q22.75,9.943 22.086,10.602 Q21.423,11.26 19.78,11.26 Q19.469,11.26 19.25,11.04 Q19.03,10.821 19.03,10.51 Q19.03,10.199 19.25,9.98 Q19.469,9.76 19.78,9.76 Q20.805,9.76 21.029,9.538 Q21.25,9.319 21.25,8.31 L21.25,4.2 Q21.25,2.75 19.78,2.75 L14.22,2.75 Q12.75,2.75 12.75,4.2 L12.75,8.3 Q12.75,9.309 12.971,9.528 Q13.195,9.75 14.22,9.75 L15.65,9.75 Q15.961,9.75 16.18,9.97 Q16.4,10.189 16.4,10.5 Q16.4,10.811 16.18,11.03 Q15.961,11.25 15.65,11.25 Z"/>
  <path fill="#292D32" d="M2,16.31 L12,16.31 Q12.311,16.31 12.53,16.53 Q12.75,16.749 12.75,17.06 Q12.75,17.371 12.53,17.59 Q12.311,17.81 12,17.81 L2,17.81 Q1.689,17.81 1.47,17.59 Q1.25,17.371 1.25,17.06 Q1.25,16.749 1.47,16.53 Q1.689,16.31 2,16.31 Z"/>
  <path fill="#292D32" d="M5.5,22.75 L4.22,22.75 Q1.25,22.75 1.25,19.8 L1.25,15.7 Q1.25,12.75 4.22,12.75 L9.78,12.75 Q12.75,12.75 12.75,15.7 L12.75,19.81 Q12.75,21.443 12.086,22.102 Q11.423,22.76 9.78,22.76 Q9.469,22.76 9.25,22.54 Q9.03,22.321 9.03,22.01 Q9.03,21.699 9.25,21.48 Q9.469,21.26 9.78,21.26 Q11.25,21.26 11.25,19.81 L11.25,15.7 Q11.25,14.25 9.78,14.25 L4.22,14.25 Q3.195,14.25 2.971,14.472 Q2.75,14.691 2.75,15.7 L2.75,19.8 Q2.75,21.25 4.22,21.25 L5.5,21.25 Q5.811,21.25 6.03,21.47 Q6.25,21.689 6.25,22 Q6.25,22.311 6.03,22.53 Q5.811,22.75 5.5,22.75 Z"/>
  <path fill="#292D32" d="M22.75,15 Q22.75,18.213 20.482,20.482 Q18.213,22.75 15,22.75 Q14.689,22.75 14.47,22.53 Q14.25,22.311 14.25,22 Q14.25,21.792 14.357,21.614 L15.407,19.864 Q15.567,19.598 15.868,19.522 Q16.169,19.447 16.436,19.607 Q16.702,19.767 16.778,20.068 Q16.853,20.369 16.693,20.636 L16.414,21.102 Q18.112,20.729 19.421,19.421 Q21.25,17.592 21.25,15 Q21.25,14.689 21.47,14.47 Q21.689,14.25 22,14.25 Q22.311,14.25 22.53,14.47 Q22.75,14.689 22.75,15 Z"/>
  <path fill="#292D32" d="M1.25,9 Q1.25,5.787 3.518,3.518 Q5.787,1.25 9,1.25 Q9.311,1.25 9.53,1.47 Q9.75,1.689 9.75,2 Q9.75,2.208 9.643,2.386 L8.593,4.136 Q8.433,4.402 8.132,4.478 Q7.831,4.553 7.564,4.393 Q7.298,4.233 7.222,3.932 Q7.147,3.631 7.307,3.364 L7.586,2.898 Q5.888,3.271 4.579,4.579 Q2.75,6.408 2.75,9 Q2.75,9.311 2.53,9.53 Q2.311,9.75 2,9.75 Q1.689,9.75 1.47,9.53 Q1.25,9.311 1.25,9 Z"/>
</svg>

