<svg xmlns="http://www.w3.org/2000/svg" width="24" height="24" viewBox="0 0 24 24">
  <defs/>
  <path fill="#292D32" d="M15,22.75 C14.73,22.75 14.48,22.6 14.35,22.37 C14.22,22.14 14.22,21.85 14.36,21.62 L15.41,19.87 C15.62,19.51 16.08,19.4 16.44,19.61 C16.8,19.82 16.91,20.28 16.7,20.64 L16.43,21.09 C19.19,20.44 21.26,17.96 21.26,15 C21.26,14.59 21.6,14.25 22.01,14.25 C22.42,14.25 22.76,14.59 22.76,15 C22.75,19.27 19.27,22.75 15,22.75 Z"/>
  <path fill="#292D32" d="M2,9.75 C1.59,9.75 1.25,9.41 1.25,9 C1.25,4.73 4.73,1.25 9,1.25 C9.27,1.25 9.52,1.4 9.65,1.63 C9.78,1.86 9.78,2.15 9.64,2.38 L8.59,4.14 C8.38,4.49 7.92,4.61 7.56,4.39 C7.21,4.18 7.09,3.72 7.31,3.36 L7.58,2.91 C4.81,3.56 2.75,6.04 2.75,9 C2.75,9.41 2.41,9.75 2,9.75 Z"/>
  <path fill="#292D32" d="M10.671,13.848 L7.531,12.158 C7.201,11.978 6.801,11.978 6.471,12.158 L3.331,13.848 C3.101,13.968 2.961,14.218 2.961,14.488 C2.961,14.758 3.101,15.008 3.331,15.128 L6.471,16.818 C6.641,16.908 6.821,16.948 7.001,16.948 C7.181,16.948 7.361,16.908 7.531,16.818 L10.671,15.128 C10.901,15.008 11.041,14.758 11.041,14.488 C11.041,14.218 10.891,13.978 10.671,13.848 Z"/>
  <path fill="#292D32" d="M5.95,17.411 L3.03,15.951 C2.81,15.841 2.55,15.851 2.33,15.981 C2.13,16.111 2,16.341 2,16.591 L2,19.351 C2,19.831 2.26,20.261 2.69,20.471 L5.61,21.931 C5.71,21.971 5.82,22.001 5.93,22.001 C6.06,22.001 6.19,21.961 6.31,21.891 C6.52,21.761 6.65,21.531 6.65,21.281 L6.65,18.521 C6.65,18.051 6.38,17.621 5.95,17.411 Z"/>
  <path fill="#292D32" d="M11.662,15.981 C11.452,15.851 11.192,15.841 10.962,15.951 L8.042,17.411 C7.612,17.621 7.352,18.051 7.352,18.531 L7.352,21.291 C7.352,21.541 7.482,21.771 7.692,21.901 C7.812,21.961 7.942,22.001 8.072,22.001 C8.182,22.001 8.292,21.971 8.392,21.921 L11.312,20.461 C11.742,20.251 12.002,19.821 12.002,19.341 L12.002,16.581 C12.002,16.341 11.872,16.111 11.662,15.981 Z"/>
  <path fill="#292D32" d="M20.671,3.829 L17.531,2.139 C17.201,1.959 16.801,1.959 16.471,2.139 L13.331,3.829 C13.101,3.949 12.961,4.199 12.961,4.469 C12.961,4.739 13.101,4.989 13.331,5.109 L16.471,6.799 C16.641,6.889 16.821,6.929 17.001,6.929 C17.181,6.929 17.361,6.889 17.531,6.799 L20.671,5.109 C20.901,4.989 21.041,4.739 21.041,4.469 C21.041,4.189 20.891,3.949 20.671,3.829 Z"/>
  <path fill="#292D32" d="M15.95,7.379 L13.03,5.919 C12.81,5.809 12.55,5.819 12.33,5.949 C12.13,6.079 12,6.309 12,6.559 L12,9.319 C12,9.799 12.26,10.229 12.69,10.439 L15.61,11.899 C15.71,11.949 15.82,11.979 15.93,11.979 C16.06,11.979 16.19,11.939 16.31,11.869 C16.52,11.739 16.65,11.509 16.65,11.259 L16.65,8.499 C16.65,8.019 16.38,7.589 15.95,7.379 Z"/>
  <path fill="#292D32" d="M21.662,5.949 C21.452,5.819 21.192,5.809 20.962,5.919 L18.042,7.379 C17.612,7.589 17.352,8.019 17.352,8.499 L17.352,11.259 C17.352,11.509 17.482,11.739 17.692,11.869 C17.812,11.939 17.942,11.979 18.072,11.979 C18.182,11.979 18.292,11.949 18.392,11.899 L21.312,10.439 C21.742,10.219 22.002,9.789 22.002,9.319 L22.002,6.559 C22.002,6.309 21.872,6.079 21.662,5.949 Z"/>
</svg>

