<svg xmlns="http://www.w3.org/2000/svg" width="24" height="24" viewBox="0 0 24 24">
  <defs/>
  <path fill="#292D32" d="M18.85,12.75 L16.15,12.75 C13.49,12.75 12.25,11.51 12.25,8.85 L12.25,5.15 C12.25,2.49 13.49,1.25 16.15,1.25 L18.85,1.25 C21.51,1.25 22.75,2.49 22.75,5.15 L22.75,8.85 C22.75,11.51 21.51,12.75 18.85,12.75 Z M16.15,2.75 C14.31,2.75 13.75,3.31 13.75,5.15 L13.75,8.85 C13.75,10.69 14.31,11.25 16.15,11.25 L18.85,11.25 C20.69,11.25 21.25,10.69 21.25,8.85 L21.25,5.15 C21.25,3.31 20.69,2.75 18.85,2.75 L16.15,2.75 Z"/>
  <path fill="#292D32" d="M7.85,22.75 L5.15,22.75 C2.49,22.75 1.25,21.51 1.25,18.85 L1.25,15.15 C1.25,12.49 2.49,11.25 5.15,11.25 L7.85,11.25 C10.51,11.25 11.75,12.49 11.75,15.15 L11.75,18.85 C11.75,21.51 10.51,22.75 7.85,22.75 Z M5.15,12.75 C3.31,12.75 2.75,13.31 2.75,15.15 L2.75,18.85 C2.75,20.69 3.31,21.25 5.15,21.25 L7.85,21.25 C9.69,21.25 10.25,20.69 10.25,18.85 L10.25,15.15 C10.25,13.31 9.69,12.75 7.85,12.75 L5.15,12.75 Z"/>
  <path fill="#292D32" d="M15,22.75 C14.73,22.75 14.48,22.6 14.35,22.37 C14.22,22.14 14.22,21.85 14.36,21.62 L15.41,19.87 C15.62,19.51 16.08,19.4 16.44,19.61 C16.8,19.82 16.91,20.28 16.7,20.64 L16.43,21.09 C19.19,20.44 21.26,17.96 21.26,15 C21.26,14.59 21.6,14.25 22.01,14.25 C22.42,14.25 22.76,14.59 22.76,15 C22.75,19.27 19.27,22.75 15,22.75 Z"/>
  <path fill="#292D32" d="M2,9.75 C1.59,9.75 1.25,9.41 1.25,9 C1.25,4.73 4.73,1.25 9,1.25 C9.27,1.25 9.52,1.4 9.65,1.63 C9.78,1.86 9.78,2.15 9.64,2.38 L8.59,4.14 C8.38,4.49 7.92,4.61 7.56,4.39 C7.21,4.18 7.09,3.72 7.31,3.36 L7.58,2.91 C4.81,3.56 2.75,6.04 2.75,9 C2.75,9.41 2.41,9.75 2,9.75 Z"/>
</svg>

