<svg xmlns="http://www.w3.org/2000/svg" width="24" height="24" viewBox="0 0 24 24">
  <defs/>
  <path fill="#292D32" d="M6.65,3.47 L13.563,10.392 L13.569,7.648 Q13.57,7.338 13.79,7.119 Q14.01,6.899 14.321,6.9 Q14.631,6.901 14.851,7.121 Q15.07,7.341 15.069,7.652 L15.059,12.202 Q15.058,12.512 14.839,12.731 Q14.619,12.95 14.309,12.95 Q13.998,12.95 13.778,12.73 L5.588,4.53 Q5.369,4.31 5.369,4 Q5.369,3.689 5.589,3.469 Q5.809,3.25 6.12,3.25 Q6.43,3.25 6.65,3.47 Z"/>
  <path fill="#292D32" d="M17.349,20.53 L10.436,13.608 L10.43,16.352 Q10.429,16.662 10.209,16.881 Q9.989,17.101 9.678,17.1 Q9.367,17.099 9.148,16.879 Q8.929,16.659 8.93,16.348 L8.94,11.798 Q8.94,11.488 9.16,11.269 Q9.379,11.05 9.69,11.05 Q10.001,11.05 10.22,11.27 L18.41,19.47 Q18.63,19.69 18.63,20 Q18.63,20.311 18.41,20.531 Q18.19,20.75 17.879,20.75 Q17.569,20.75 17.349,20.53 Z"/>
  <path fill="#292D32" d="M20.6,5.551 Q22.75,8.422 22.75,12 Q22.75,16.451 19.6,19.6 Q16.451,22.75 12,22.75 Q7.549,22.75 4.4,19.6 Q1.25,16.451 1.25,12 Q1.25,7.549 4.4,4.4 Q7.549,1.25 12,1.25 Q14.289,1.25 16.336,2.165 Q16.62,2.292 16.731,2.582 Q16.841,2.873 16.715,3.156 Q16.588,3.44 16.298,3.551 Q16.007,3.661 15.724,3.535 Q13.969,2.75 12,2.75 Q8.171,2.75 5.46,5.46 Q2.75,8.171 2.75,12 Q2.75,15.829 5.46,18.54 Q8.171,21.25 12,21.25 Q15.829,21.25 18.54,18.54 Q21.25,15.829 21.25,12 Q21.25,8.922 19.4,6.449 Q19.213,6.201 19.258,5.893 Q19.302,5.586 19.551,5.4 Q19.799,5.213 20.107,5.258 Q20.414,5.302 20.6,5.551 Z"/>
</svg>

