<svg xmlns="http://www.w3.org/2000/svg" width="24" height="24" viewBox="0 0 24 24">
  <defs/>
  <path fill="#292D32" opacity="0.4" d="M15,22.75 C14.73,22.75 14.48,22.6 14.35,22.37 C14.22,22.14 14.22,21.85 14.36,21.62 L15.41,19.87 C15.62,19.51 16.08,19.4 16.44,19.61 C16.8,19.82 16.91,20.28 16.7,20.64 L16.43,21.09 C19.19,20.44 21.26,17.96 21.26,15 C21.26,14.59 21.6,14.25 22.01,14.25 C22.42,14.25 22.76,14.59 22.76,15 C22.75,19.27 19.27,22.75 15,22.75 Z"/>
  <path fill="#292D32" opacity="0.4" d="M2,9.75 C1.59,9.75 1.25,9.41 1.25,9 C1.25,4.73 4.73,1.25 9,1.25 C9.27,1.25 9.52,1.4 9.65,1.63 C9.78,1.86 9.78,2.15 9.64,2.38 L8.59,4.13 C8.38,4.49 7.92,4.6 7.56,4.39 C7.2,4.18 7.09,3.72 7.3,3.36 L7.57,2.91 C4.81,3.56 2.74,6.04 2.74,9 C2.75,9.41 2.41,9.75 2,9.75 Z"/>
  <path fill="#292D32" d="M10.671,13.85 L7.531,12.16 C7.201,11.98 6.801,11.98 6.471,12.16 L3.331,13.85 C3.101,13.97 2.961,14.22 2.961,14.49 C2.961,14.76 3.101,15.01 3.331,15.13 L6.471,16.82 C6.641,16.91 6.821,16.95 7.001,16.95 C7.181,16.95 7.361,16.91 7.531,16.82 L10.671,15.13 C10.901,15.01 11.041,14.76 11.041,14.49 C11.041,14.22 10.891,13.98 10.671,13.85 Z"/>
  <path fill="#292D32" d="M5.95,17.41 L3.03,15.95 C2.81,15.84 2.55,15.85 2.33,15.98 C2.12,16.11 1.99,16.34 1.99,16.59 L1.99,19.35 C1.99,19.83 2.25,20.26 2.68,20.47 L5.6,21.93 C5.7,21.98 5.81,22.01 5.92,22.01 C6.05,22.01 6.18,21.97 6.3,21.9 C6.51,21.77 6.64,21.54 6.64,21.29 L6.64,18.53 C6.65,18.05 6.38,17.62 5.95,17.41 Z"/>
  <path fill="#292D32" d="M11.66,15.98 C11.45,15.85 11.19,15.84 10.96,15.95 L8.04,17.41 C7.61,17.62 7.35,18.05 7.35,18.53 L7.35,21.29 C7.35,21.54 7.48,21.77 7.69,21.9 C7.81,21.97 7.94,22.01 8.07,22.01 C8.18,22.01 8.29,21.98 8.39,21.93 L11.31,20.47 C11.74,20.26 12,19.83 12,19.35 L12,16.59 C12,16.34 11.87,16.11 11.66,15.98 Z"/>
  <path fill="#292D32" d="M20.671,3.83 L17.531,2.14 C17.201,1.96 16.801,1.96 16.471,2.14 L13.331,3.83 C13.101,3.95 12.961,4.2 12.961,4.47 C12.961,4.74 13.101,4.99 13.331,5.11 L16.471,6.8 C16.641,6.89 16.821,6.93 17.001,6.93 C17.181,6.93 17.361,6.89 17.531,6.8 L20.671,5.11 C20.901,4.99 21.041,4.74 21.041,4.47 C21.041,4.19 20.891,3.95 20.671,3.83 Z"/>
  <path fill="#292D32" d="M15.95,7.38 L13.03,5.92 C12.81,5.81 12.55,5.82 12.33,5.95 C12.12,6.08 11.99,6.31 11.99,6.56 L11.99,9.32 C11.99,9.8 12.25,10.23 12.68,10.44 L15.6,11.9 C15.7,11.95 15.81,11.98 15.92,11.98 C16.05,11.98 16.18,11.94 16.3,11.87 C16.51,11.74 16.64,11.51 16.64,11.26 L16.64,8.5 C16.65,8.02 16.38,7.59 15.95,7.38 Z"/>
  <path fill="#292D32" d="M21.66,5.95 C21.45,5.82 21.19,5.81 20.96,5.92 L18.04,7.38 C17.61,7.59 17.35,8.02 17.35,8.5 L17.35,11.26 C17.35,11.51 17.48,11.74 17.69,11.87 C17.81,11.94 17.94,11.98 18.07,11.98 C18.18,11.98 18.29,11.95 18.39,11.9 L21.31,10.44 C21.74,10.23 22,9.8 22,9.32 L22,6.56 C22,6.31 21.87,6.08 21.66,5.95 Z"/>
</svg>

