<svg xmlns="http://www.w3.org/2000/svg" width="24" height="24" viewBox="0 0 24 24">
  <defs/>
  <path fill="#292D32" d="M22.75,15 Q22.75,18.213 20.482,20.482 Q18.213,22.75 15,22.75 Q14.689,22.75 14.47,22.53 Q14.25,22.311 14.25,22 Q14.25,21.792 14.357,21.614 L15.407,19.864 Q15.567,19.598 15.868,19.522 Q16.169,19.447 16.436,19.607 Q16.702,19.767 16.778,20.068 Q16.853,20.369 16.693,20.636 L16.414,21.102 Q18.112,20.729 19.421,19.421 Q21.25,17.592 21.25,15 Q21.25,14.689 21.47,14.47 Q21.689,14.25 22,14.25 Q22.311,14.25 22.53,14.47 Q22.75,14.689 22.75,15 Z"/>
  <path fill="#292D32" d="M1.25,9 Q1.25,5.787 3.518,3.518 Q5.787,1.25 9,1.25 Q9.311,1.25 9.53,1.47 Q9.75,1.689 9.75,2 Q9.75,2.208 9.643,2.386 L8.593,4.136 Q8.433,4.402 8.132,4.478 Q7.831,4.553 7.564,4.393 Q7.298,4.233 7.222,3.932 Q7.147,3.631 7.307,3.364 L7.586,2.898 Q5.888,3.271 4.579,4.579 Q2.75,6.408 2.75,9 Q2.75,9.311 2.53,9.53 Q2.311,9.75 2,9.75 Q1.689,9.75 1.47,9.53 Q1.25,9.311 1.25,9 Z"/>
  <path fill="#292D32" d="M14.074,3.801 L17.678,5.883 L21.242,3.812 Q21.511,3.655 21.811,3.735 Q22.112,3.814 22.268,4.083 Q22.424,4.352 22.344,4.652 Q22.265,4.952 21.996,5.108 L18.056,7.398 Q17.68,7.617 17.304,7.399 L13.324,5.099 Q13.055,4.944 12.975,4.644 Q12.894,4.344 13.05,4.075 Q13.205,3.806 13.505,3.725 Q13.805,3.645 14.074,3.801 Z"/>
  <path fill="#292D32" d="M16.93,10.82 L16.93,6.74 Q16.93,6.429 17.149,6.21 Q17.369,5.99 17.68,5.99 Q17.99,5.99 18.21,6.21 Q18.43,6.429 18.43,6.74 L18.43,10.82 Q18.43,11.131 18.21,11.35 Q17.99,11.57 17.68,11.57 Q17.369,11.57 17.149,11.35 Q16.93,11.131 16.93,10.82 Z"/>
  <path fill="#292D32" d="M16.384,1.55 Q17.687,0.848 18.973,1.554 L21.369,2.882 Q22.75,3.635 22.75,5.22 L22.75,7.76 Q22.75,9.331 21.373,10.096 L18.975,11.425 Q17.662,12.157 16.376,11.426 L13.98,10.098 Q12.6,9.345 12.6,7.76 L12.6,5.22 Q12.6,3.649 13.976,2.884 L16.376,1.554 Z M14.703,4.196 Q14.1,4.531 14.1,5.22 L14.1,7.76 Q14.1,8.455 14.699,8.782 L17.103,10.114 Q17.669,10.436 18.244,10.115 L20.646,8.784 Q21.25,8.449 21.25,7.76 L21.25,5.22 Q21.25,4.525 20.65,4.198 L18.246,2.866 Q17.682,2.556 17.099,2.868 L14.703,4.196 Z"/>
  <path fill="#292D32" d="M2.726,14.801 L6.319,16.883 L9.893,14.811 Q10.162,14.655 10.462,14.735 Q10.763,14.815 10.918,15.084 Q11.074,15.353 10.994,15.653 Q10.915,15.953 10.646,16.109 L6.696,18.399 Q6.32,18.617 5.944,18.399 L1.974,16.099 Q1.705,15.943 1.625,15.643 Q1.545,15.343 1.701,15.074 Q1.856,14.805 2.157,14.725 Q2.457,14.645 2.726,14.801 Z"/>
  <path fill="#292D32" d="M5.57,21.82 L5.57,17.74 Q5.57,17.429 5.79,17.21 Q6.01,16.99 6.32,16.99 Q6.631,16.99 6.851,17.21 Q7.07,17.429 7.07,17.74 L7.07,21.82 Q7.07,22.131 6.851,22.35 Q6.631,22.57 6.32,22.57 Q6.01,22.57 5.79,22.35 Q5.57,22.131 5.57,21.82 Z"/>
  <path fill="#292D32" d="M9.9,16.23 Q9.9,15.535 9.301,15.208 L6.896,13.876 Q6.33,13.554 5.755,13.875 L3.354,15.206 Q2.75,15.541 2.75,16.23 L2.75,18.77 Q2.75,19.465 3.349,19.792 L5.754,21.124 Q6.319,21.446 6.895,21.125 L9.296,19.794 Q9.568,19.643 9.867,19.729 Q10.165,19.815 10.316,20.086 Q10.467,20.358 10.381,20.657 Q10.295,20.955 10.024,21.106 L7.625,22.435 Q6.312,23.167 5.026,22.436 L2.631,21.108 Q1.25,20.355 1.25,18.77 L1.25,16.23 Q1.25,14.659 2.626,13.894 L5.025,12.565 Q6.338,11.833 7.624,12.564 L10.019,13.892 Q11.4,14.645 11.4,16.23 Q11.4,16.541 11.18,16.76 Q10.961,16.98 10.65,16.98 Q10.339,16.98 10.12,16.76 Q9.9,16.541 9.9,16.23 Z"/>
</svg>

