<svg xmlns="http://www.w3.org/2000/svg" width="24" height="24" viewBox="0 0 24 24">
  <defs/>
  <path fill="#292D32" opacity="0.4" d="M11,16.15 L11,18.85 C11,21.1 10.1,22 7.85,22 L5.15,22 C2.9,22 2,21.1 2,18.85 L2,16.15 C2,13.9 2.9,13 5.15,13 L7.85,13 C10.1,13 11,13.9 11,16.15 Z"/>
  <path fill="#292D32" opacity="0.4" d="M17.5,11 C19.985,11 22,8.985 22,6.5 C22,4.015 19.985,2 17.5,2 C15.015,2 13,4.015 13,6.5 C13,8.985 15.015,11 17.5,11 Z"/>
  <path fill="#292D32" d="M14.78,22 C14.509,22 14.259,21.85 14.13,21.62 C13.999,21.38 13.999,21.1 14.139,20.86 L15.11,19.24 C15.319,18.88 15.78,18.77 16.14,18.98 C16.5,19.19 16.61,19.65 16.399,20.01 L16.22,20.31 C18.689,19.67 20.509,17.43 20.509,14.77 C20.509,14.36 20.849,14.02 21.259,14.02 C21.669,14.02 22,14.36 22,14.78 C22,18.76 18.759,22 14.78,22 Z"/>
  <path fill="#292D32" d="M2.75,9.97 C2.34,9.97 2,9.64 2,9.22 C2,5.24 5.24,2 9.22,2 C9.5,2 9.74,2.15 9.88,2.38 C10.01,2.62 10.01,2.9 9.87,3.14 L8.9,4.75 C8.68,5.11 8.22,5.23 7.87,5.01 C7.51,4.8 7.4,4.34 7.61,3.98 L7.79,3.68 C5.33,4.32 3.5,6.56 3.5,9.22 C3.5,9.64 3.16,9.97 2.75,9.97 Z"/>
</svg>

