<svg xmlns="http://www.w3.org/2000/svg" width="24" height="24" viewBox="0 0 24 24">
  <defs/>
  <path fill="#292D32" d="M7.85,22.75 L5.15,22.75 C2.49,22.75 1.25,21.51 1.25,18.85 L1.25,16.15 C1.25,13.49 2.49,12.25 5.15,12.25 L7.85,12.25 C10.51,12.25 11.75,13.49 11.75,16.15 L11.75,18.85 C11.75,21.51 10.51,22.75 7.85,22.75 Z M5.15,13.75 C3.31,13.75 2.75,14.31 2.75,16.15 L2.75,18.85 C2.75,20.69 3.31,21.25 5.15,21.25 L7.85,21.25 C9.69,21.25 10.25,20.69 10.25,18.85 L10.25,16.15 C10.25,14.31 9.69,13.75 7.85,13.75 L5.15,13.75 Z"/>
  <path fill="#292D32" d="M15,22.75 C14.73,22.75 14.48,22.6 14.35,22.37 C14.22,22.14 14.22,21.85 14.36,21.62 L15.41,19.87 C15.62,19.51 16.08,19.4 16.44,19.61 C16.8,19.82 16.91,20.28 16.7,20.64 L16.43,21.09 C19.19,20.44 21.26,17.96 21.26,15 C21.26,14.59 21.6,14.25 22.01,14.25 C22.42,14.25 22.76,14.59 22.76,15 C22.75,19.27 19.27,22.75 15,22.75 Z"/>
  <path fill="#292D32" d="M2,9.75 C1.59,9.75 1.25,9.41 1.25,9 C1.25,4.73 4.73,1.25 9,1.25 C9.27,1.25 9.52,1.4 9.65,1.63 C9.78,1.86 9.78,2.15 9.64,2.38 L8.59,4.14 C8.38,4.49 7.92,4.61 7.56,4.39 C7.21,4.18 7.09,3.72 7.31,3.36 L7.58,2.91 C4.81,3.56 2.75,6.04 2.75,9 C2.75,9.41 2.41,9.75 2,9.75 Z"/>
  <path fill="#292D32" d="M17.5,11.75 C14.61,11.75 12.25,9.39 12.25,6.5 C12.25,3.61 14.61,1.25 17.5,1.25 C20.39,1.25 22.75,3.61 22.75,6.5 C22.75,9.39 20.39,11.75 17.5,11.75 Z M17.5,2.75 C15.43,2.75 13.75,4.43 13.75,6.5 C13.75,8.57 15.43,10.25 17.5,10.25 C19.57,10.25 21.25,8.57 21.25,6.5 C21.25,4.43 19.57,2.75 17.5,2.75 Z"/>
</svg>

