<svg xmlns="http://www.w3.org/2000/svg" width="24" height="24" viewBox="0 0 24 24">
  <defs/>
  <path fill="#292D32" d="M22.75,5.15 L22.75,8.85 Q22.75,12.75 18.85,12.75 L16.15,12.75 Q12.25,12.75 12.25,8.85 L12.25,5.15 Q12.25,1.25 16.15,1.25 L18.85,1.25 Q22.75,1.25 22.75,5.15 Z M21.25,5.15 Q21.25,2.75 18.85,2.75 L16.15,2.75 Q13.75,2.75 13.75,5.15 L13.75,8.85 Q13.75,10.227 14.262,10.738 Q14.773,11.25 16.15,11.25 L18.85,11.25 Q21.25,11.25 21.25,8.85 Z"/>
  <path fill="#292D32" d="M11.75,15.15 L11.75,18.85 Q11.75,22.75 7.85,22.75 L5.15,22.75 Q1.25,22.75 1.25,18.85 L1.25,15.15 Q1.25,11.25 5.15,11.25 L7.85,11.25 Q11.75,11.25 11.75,15.15 Z M10.25,15.15 Q10.25,12.75 7.85,12.75 L5.15,12.75 Q2.75,12.75 2.75,15.15 L2.75,18.85 Q2.75,21.25 5.15,21.25 L7.85,21.25 Q10.25,21.25 10.25,18.85 Z"/>
  <path fill="#292D32" d="M22.75,15 Q22.75,18.213 20.482,20.482 Q18.213,22.75 15,22.75 Q14.689,22.75 14.47,22.53 Q14.25,22.311 14.25,22 Q14.25,21.792 14.357,21.614 L15.407,19.864 Q15.567,19.598 15.868,19.522 Q16.169,19.447 16.436,19.607 Q16.702,19.767 16.778,20.068 Q16.853,20.369 16.693,20.636 L16.414,21.102 Q18.112,20.729 19.421,19.421 Q21.25,17.592 21.25,15 Q21.25,14.689 21.47,14.47 Q21.689,14.25 22,14.25 Q22.311,14.25 22.53,14.47 Q22.75,14.689 22.75,15 Z"/>
  <path fill="#292D32" d="M1.25,9 Q1.25,5.787 3.518,3.518 Q5.787,1.25 9,1.25 Q9.311,1.25 9.53,1.47 Q9.75,1.689 9.75,2 Q9.75,2.208 9.643,2.386 L8.593,4.136 Q8.433,4.402 8.132,4.478 Q7.831,4.553 7.564,4.393 Q7.298,4.233 7.222,3.932 Q7.147,3.631 7.307,3.364 L7.586,2.898 Q5.888,3.271 4.579,4.579 Q2.75,6.408 2.75,9 Q2.75,9.311 2.53,9.53 Q2.311,9.75 2,9.75 Q1.689,9.75 1.47,9.53 Q1.25,9.311 1.25,9 Z"/>
</svg>

