<svg xmlns="http://www.w3.org/2000/svg" width="24" height="24" viewBox="0 0 24 24">
  <defs/>
  <path fill="#292D32" d="M12,22.75 C6.07,22.75 1.25,17.93 1.25,12 C1.25,6.07 6.07,1.25 12,1.25 C17.93,1.25 22.75,6.07 22.75,12 C22.75,17.93 17.93,22.75 12,22.75 Z M12,2.75 C6.9,2.75 2.75,6.9 2.75,12 C2.75,17.1 6.9,21.25 12,21.25 C17.1,21.25 21.25,17.1 21.25,12 C21.25,6.9 17.1,2.75 12,2.75 Z"/>
  <path fill="#292D32" d="M12.24,16.75 C9.62,16.75 7.49,14.62 7.49,12 C7.49,9.38 9.62,7.25 12.24,7.25 C13.39,7.25 14.51,7.67 15.37,8.44 C15.68,8.71 15.71,9.19 15.44,9.5 C15.17,9.81 14.69,9.84 14.38,9.57 C13.79,9.05 13.03,8.76 12.24,8.76 C10.45,8.76 8.99,10.22 8.99,12.01 C8.99,13.8 10.45,15.26 12.24,15.26 C13.02,15.26 13.79,14.97 14.38,14.45 C14.69,14.18 15.17,14.21 15.44,14.52 C15.71,14.83 15.68,15.31 15.37,15.58 C14.5,16.33 13.39,16.75 12.24,16.75 Z"/>
</svg>

