<svg xmlns="http://www.w3.org/2000/svg" width="24" height="24" viewBox="0 0 24 24">
  <defs/>
  <path fill="#292D32" d="M15.374,15.565 Q14.016,16.75 12.24,16.75 Q10.272,16.75 8.881,15.359 Q7.49,13.968 7.49,12 Q7.49,10.032 8.881,8.641 Q10.272,7.25 12.24,7.25 Q14.016,7.25 15.374,8.435 Q15.608,8.639 15.628,8.949 Q15.649,9.259 15.445,9.493 Q15.241,9.727 14.931,9.748 Q14.621,9.769 14.387,9.565 Q13.454,8.75 12.24,8.75 Q8.99,8.75 8.99,12 Q8.99,13.347 9.942,14.298 Q10.893,15.25 12.24,15.25 Q13.454,15.25 14.387,14.435 Q14.621,14.231 14.931,14.252 Q15.241,14.273 15.445,14.507 Q15.649,14.741 15.628,15.051 Q15.608,15.361 15.374,15.565 Z"/>
  <path fill="#292D32" d="M4.6,6.449 Q2.75,8.922 2.75,12 Q2.75,15.829 5.46,18.54 Q8.171,21.25 12,21.25 Q15.829,21.25 18.54,18.54 Q21.25,15.829 21.25,12 Q21.25,8.171 18.54,5.46 Q15.829,2.75 12,2.75 Q10.031,2.75 8.276,3.535 Q7.993,3.661 7.702,3.551 Q7.412,3.44 7.285,3.156 Q7.158,2.873 7.269,2.582 Q7.38,2.292 7.664,2.165 Q9.711,1.25 12,1.25 Q16.451,1.25 19.6,4.4 Q22.75,7.549 22.75,12 Q22.75,16.451 19.6,19.6 Q16.451,22.75 12,22.75 Q7.549,22.75 4.4,19.6 Q1.25,16.451 1.25,12 Q1.25,8.422 3.4,5.551 Q3.586,5.302 3.893,5.258 Q4.201,5.213 4.449,5.4 Q4.698,5.586 4.742,5.893 Q4.787,6.201 4.6,6.449 Z"/>
</svg>

