<svg xmlns="http://www.w3.org/2000/svg" width="24" height="24" viewBox="0 0 24 24">
  <defs/>
  <path fill="#292D32" d="M17.1,2 L12.9,2 C9.817,2 8.371,3.094 8.07,5.739 C8.006,6.292 8.465,6.75 9.022,6.75 L11.1,6.75 C15.3,6.75 17.25,8.7 17.25,12.9 L17.25,14.978 C17.25,15.535 17.707,15.993 18.261,15.93 C20.906,15.629 22,14.183 22,11.1 L22,6.9 C22,3.4 20.6,2 17.1,2 Z"/>
  <path fill="#292D32" d="M11.1,8 L6.9,8 C3.4,8 2,9.4 2,12.9 L2,17.1 C2,20.6 3.4,22 6.9,22 L11.1,22 C14.6,22 16,20.6 16,17.1 L16,12.9 C16,9.4 14.6,8 11.1,8 Z M12.29,13.65 L8.58,17.36 C8.44,17.5 8.26,17.57 8.07,17.57 C7.88,17.57 7.7,17.5 7.56,17.36 L5.7,15.5 C5.42,15.22 5.42,14.77 5.7,14.49 C5.98,14.21 6.43,14.21 6.71,14.49 L8.06,15.84 L11.27,12.63 C11.55,12.35 12,12.35 12.28,12.63 C12.56,12.91 12.57,13.37 12.29,13.65 Z"/>
</svg>

