<svg xmlns="http://www.w3.org/2000/svg" width="24" height="24" viewBox="0 0 24 24">
  <defs/>
  <path fill="#292D32" d="M16,12.9 L16,17.1 C16,20.6 14.6,22 11.1,22 L6.9,22 C3.4,22 2,20.6 2,17.1 L2,12.9 C2,9.4 3.4,8 6.9,8 L11.1,8 C14.6,8 16,9.4 16,12.9 Z"/>
  <path fill="#292D32" d="M17.1,2 L12.9,2 C9.817,2 8.371,3.094 8.07,5.739 C8.006,6.292 8.465,6.75 9.022,6.75 L11.1,6.75 C15.3,6.75 17.25,8.7 17.25,12.9 L17.25,14.978 C17.25,15.535 17.707,15.993 18.261,15.93 C20.906,15.629 22,14.183 22,11.1 L22,6.9 C22,3.4 20.6,2 17.1,2 Z"/>
</svg>

