<svg xmlns="http://www.w3.org/2000/svg" width="24" height="24" viewBox="0 0 24 24">
  <defs/>
  <path fill="#292D32" d="M1.25,12.9 Q1.25,7.25 6.9,7.25 L11.1,7.25 Q16.75,7.25 16.75,12.9 L16.75,17.1 Q16.75,20.036 15.393,21.393 Q14.036,22.75 11.1,22.75 L6.9,22.75 Q1.25,22.75 1.25,17.1 Q1.25,16.789 1.47,16.57 Q1.689,16.35 2,16.35 Q2.311,16.35 2.53,16.57 Q2.75,16.789 2.75,17.1 Q2.75,21.25 6.9,21.25 L11.1,21.25 Q15.25,21.25 15.25,17.1 L15.25,12.9 Q15.25,10.586 14.332,9.668 Q13.414,8.75 11.1,8.75 L6.9,8.75 Q4.586,8.75 3.668,9.668 Q2.75,10.586 2.75,12.9 Q2.75,13.211 2.53,13.43 Q2.311,13.65 2,13.65 Q1.689,13.65 1.47,13.43 Q1.25,13.211 1.25,12.9 Z"/>
  <path fill="#292D32" d="M22.75,11.1 Q22.75,16.75 17.1,16.75 L16,16.75 Q15.689,16.75 15.47,16.53 Q15.25,16.311 15.25,16 L15.25,12.9 Q15.25,10.586 14.332,9.668 Q13.414,8.75 11.1,8.75 L8,8.75 Q7.689,8.75 7.47,8.53 Q7.25,8.311 7.25,8 L7.25,6.9 Q7.25,1.25 12.9,1.25 L17.1,1.25 Q20.036,1.25 21.393,2.607 Q22.75,3.964 22.75,6.9 Q22.75,7.211 22.53,7.43 Q22.311,7.65 22,7.65 Q21.689,7.65 21.47,7.43 Q21.25,7.211 21.25,6.9 Q21.25,2.75 17.1,2.75 L12.9,2.75 Q8.75,2.75 8.75,6.9 L8.75,7.25 L11.1,7.25 Q16.75,7.25 16.75,12.9 L16.75,15.25 L17.1,15.25 Q19.414,15.25 20.332,14.332 Q21.25,13.414 21.25,11.1 Q21.25,10.789 21.47,10.57 Q21.689,10.35 22,10.35 Q22.311,10.35 22.53,10.57 Q22.75,10.789 22.75,11.1 Z"/>
</svg>

