<svg xmlns="http://www.w3.org/2000/svg" width="24" height="24" viewBox="0 0 24 24">
  <defs/>
  <path fill="#292D32" d="M11.1,22.75 L6.9,22.75 C2.99,22.75 1.25,21.01 1.25,17.1 L1.25,12.9 C1.25,8.99 2.99,7.25 6.9,7.25 L11.1,7.25 C15.01,7.25 16.75,8.99 16.75,12.9 L16.75,17.1 C16.75,21.01 15.01,22.75 11.1,22.75 Z M6.9,8.75 C3.8,8.75 2.75,9.8 2.75,12.9 L2.75,17.1 C2.75,20.2 3.8,21.25 6.9,21.25 L11.1,21.25 C14.2,21.25 15.25,20.2 15.25,17.1 L15.25,12.9 C15.25,9.8 14.2,8.75 11.1,8.75 L6.9,8.75 Z"/>
  <path fill="#292D32" d="M17.1,16.75 L16,16.75 C15.59,16.75 15.25,16.41 15.25,16 L15.25,12.9 C15.25,9.8 14.2,8.75 11.1,8.75 L8,8.75 C7.59,8.75 7.25,8.41 7.25,8 L7.25,6.9 C7.25,2.99 8.99,1.25 12.9,1.25 L17.1,1.25 C21.01,1.25 22.75,2.99 22.75,6.9 L22.75,11.1 C22.75,15.01 21.01,16.75 17.1,16.75 Z M16.75,15.25 L17.1,15.25 C20.2,15.25 21.25,14.2 21.25,11.1 L21.25,6.9 C21.25,3.8 20.2,2.75 17.1,2.75 L12.9,2.75 C9.8,2.75 8.75,3.8 8.75,6.9 L8.75,7.25 L11.1,7.25 C15.01,7.25 16.75,8.99 16.75,12.9 L16.75,15.25 Z"/>
</svg>

