<svg xmlns="http://www.w3.org/2000/svg" width="24" height="24" viewBox="0 0 24 24">
  <defs/>
  <path fill="#292D32" d="M2,21.25 L22,21.25 Q22.311,21.25 22.53,21.47 Q22.75,21.689 22.75,22 Q22.75,22.311 22.53,22.53 Q22.311,22.75 22,22.75 L2,22.75 Q1.689,22.75 1.47,22.53 Q1.25,22.311 1.25,22 Q1.25,21.689 1.47,21.47 Q1.689,21.25 2,21.25 Z"/>
  <path fill="#292D32" d="M12.279,1.304 Q14.5,2.192 16.721,1.304 Q17.01,1.188 17.295,1.311 Q17.581,1.433 17.696,1.721 Q17.75,1.856 17.75,2 L17.75,5 Q17.75,5.508 17.279,5.696 Q14.5,6.808 11.721,5.696 Q11.25,5.508 11.25,5 L11.25,2 Q11.25,1.689 11.47,1.47 Q11.689,1.25 12,1.25 Q12.144,1.25 12.279,1.304 Z M12.75,3.032 L12.75,4.472 Q14.5,5.024 16.25,4.472 L16.25,3.032 Q14.5,3.473 12.75,3.032 Z"/>
  <path fill="#292D32" d="M12.75,5 L12.75,8 Q12.75,8.311 12.53,8.53 Q12.311,8.75 12,8.75 Q11.689,8.75 11.47,8.53 Q11.25,8.311 11.25,8 L11.25,5 Q11.25,4.689 11.47,4.47 Q11.689,4.25 12,4.25 Q12.311,4.25 12.53,4.47 Q12.75,4.689 12.75,5 Z"/>
  <path fill="#292D32" d="M17,7.25 Q20.75,7.25 20.75,11 L20.75,22 Q20.75,22.311 20.53,22.53 Q20.311,22.75 20,22.75 L4,22.75 Q3.689,22.75 3.47,22.53 Q3.25,22.311 3.25,22 L3.25,11 Q3.25,7.25 7,7.25 Z M17,8.75 L7,8.75 Q4.75,8.75 4.75,11 L4.75,21.25 L19.25,21.25 L19.25,11 Q19.25,8.75 17,8.75 Z"/>
  <path fill="#292D32" d="M4.58,11.25 L19.42,11.25 Q19.731,11.25 19.95,11.47 Q20.17,11.689 20.17,12 Q20.17,12.311 19.95,12.53 Q19.731,12.75 19.42,12.75 L4.58,12.75 Q4.269,12.75 4.05,12.53 Q3.83,12.311 3.83,12 Q3.83,11.689 4.05,11.47 Q4.269,11.25 4.58,11.25 Z"/>
  <path fill="#292D32" opacity="0.4" d="M8.74,12 L8.74,22 L7.24,22 L7.24,12 L8.74,12 Z"/>
  <path fill="#292D32" opacity="0.4" d="M12.74,12 L12.74,22 L11.24,22 L11.24,12 L12.74,12 Z"/>
  <path fill="#292D32" opacity="0.4" d="M16.74,12 L16.74,22 L15.24,22 L15.24,12 L16.74,12 Z"/>
</svg>

