<svg xmlns="http://www.w3.org/2000/svg" width="24" height="24" viewBox="0 0 24 24">
  <defs/>
  <path fill="#292D32" d="M22,22.75 L2,22.75 C1.59,22.75 1.25,22.41 1.25,22 C1.25,21.59 1.59,21.25 2,21.25 L22,21.25 C22.41,21.25 22.75,21.59 22.75,22 C22.75,22.41 22.41,22.75 22,22.75 Z"/>
  <path fill="#292D32" d="M14.5,6.23 C13.56,6.23 12.62,6.05 11.72,5.69 C11.44,5.58 11.25,5.3 11.25,4.99 L11.25,1.99 C11.25,1.74 11.37,1.51 11.58,1.37 C11.79,1.23 12.05,1.2 12.28,1.29 C13.71,1.86 15.29,1.86 16.72,1.29 C16.95,1.2 17.21,1.23 17.42,1.37 C17.63,1.51 17.75,1.74 17.75,1.99 L17.75,4.99 C17.75,5.3 17.56,5.57 17.28,5.69 C16.38,6.05 15.44,6.23 14.5,6.23 Z M12.75,4.47 C13.89,4.82 15.11,4.82 16.25,4.47 L16.25,3.02 C15.1,3.3 13.9,3.3 12.75,3.02 L12.75,4.47 Z"/>
  <path fill="#292D32" d="M12,8.75 C11.59,8.75 11.25,8.41 11.25,8 L11.25,5 C11.25,4.59 11.59,4.25 12,4.25 C12.41,4.25 12.75,4.59 12.75,5 L12.75,8 C12.75,8.41 12.41,8.75 12,8.75 Z"/>
  <path fill="#292D32" d="M20,22.75 L4,22.75 C3.59,22.75 3.25,22.41 3.25,22 L3.25,11 C3.25,8.58 4.58,7.25 7,7.25 L17,7.25 C19.42,7.25 20.75,8.58 20.75,11 L20.75,22 C20.75,22.41 20.41,22.75 20,22.75 Z M4.75,21.25 L19.25,21.25 L19.25,11 C19.25,9.42 18.58,8.75 17,8.75 L7,8.75 C5.42,8.75 4.75,9.42 4.75,11 L4.75,21.25 Z"/>
  <path fill="#292D32" d="M19.42,12.75 L4.58,12.75 C4.17,12.75 3.83,12.41 3.83,12 C3.83,11.59 4.17,11.25 4.58,11.25 L19.42,11.25 C19.83,11.25 20.17,11.59 20.17,12 C20.17,12.41 19.83,12.75 19.42,12.75 Z"/>
  <path fill="#292D32" d="M8.74,12 L7.24,12 L7.24,22 L8.74,22 L8.74,12 Z"/>
  <path fill="#292D32" d="M12.74,12 L11.24,12 L11.24,22 L12.74,22 L12.74,12 Z"/>
  <path fill="#292D32" d="M16.74,12 L15.24,12 L15.24,22 L16.74,22 L16.74,12 Z"/>
</svg>

