<svg xmlns="http://www.w3.org/2000/svg" width="24" height="24" viewBox="0 0 24 24">
  <defs/>
  <path fill="#292D32" opacity="0.4" d="M17.42,1.38 C17.21,1.24 16.95,1.21 16.72,1.3 C15.29,1.87 13.71,1.87 12.28,1.3 C12.05,1.21 11.79,1.24 11.58,1.38 C11.37,1.52 11.25,1.75 11.25,2 L11.25,5 L11.25,8 C11.25,8.41 11.59,8.75 12,8.75 C12.41,8.75 12.75,8.41 12.75,8 L12.75,6.02 C13.33,6.16 13.91,6.24 14.5,6.24 C15.44,6.24 16.38,6.06 17.28,5.7 C17.56,5.59 17.75,5.31 17.75,5 L17.75,2 C17.75,1.75 17.63,1.52 17.42,1.38 Z"/>
  <path fill="#292D32" d="M22,21.25 L20.75,21.25 L20.75,11 C20.75,8.58 19.42,7.25 17,7.25 L7,7.25 C4.58,7.25 3.25,8.58 3.25,11 L3.25,21.25 L2,21.25 C1.59,21.25 1.25,21.59 1.25,22 C1.25,22.41 1.59,22.75 2,22.75 L4,22.75 L20,22.75 L22,22.75 C22.41,22.75 22.75,22.41 22.75,22 C22.75,21.59 22.41,21.25 22,21.25 Z M19.25,12.75 L19.25,21.25 L16.74,21.25 L16.74,12.75 L19.25,12.75 Z M11.24,21.25 L8.74,21.25 L8.74,12.75 L11.24,12.75 L11.24,21.25 Z M12.74,12.75 L15.24,12.75 L15.24,21.25 L12.74,21.25 L12.74,12.75 Z M4.75,12.75 L7.24,12.75 L7.24,21.25 L4.75,21.25 L4.75,12.75 Z"/>
</svg>

