<svg xmlns="http://www.w3.org/2000/svg" width="24" height="24" viewBox="0 0 24 24">
  <defs/>
  <path fill="#292D32" d="M22,21.251 L20.75,21.251 L20.75,11.001 C20.75,8.581 19.42,7.251 17,7.251 L12.75,7.251 L12.75,6.021 C13.33,6.161 13.91,6.241 14.5,6.241 C15.44,6.241 16.38,6.061 17.28,5.701 C17.56,5.591 17.75,5.311 17.75,5.001 L17.75,2.001 C17.75,1.751 17.63,1.521 17.42,1.381 C17.21,1.241 16.95,1.211 16.72,1.301 C15.29,1.871 13.71,1.871 12.28,1.301 C12.05,1.211 11.79,1.241 11.58,1.381 C11.37,1.521 11.25,1.751 11.25,2.001 L11.25,5.001 L11.25,7.251 L7,7.251 C4.58,7.251 3.25,8.581 3.25,11.001 L3.25,21.251 L2,21.251 C1.59,21.251 1.25,21.591 1.25,22.001 C1.25,22.411 1.59,22.751 2,22.751 L4,22.751 L20,22.751 L22,22.751 C22.41,22.751 22.75,22.411 22.75,22.001 C22.75,21.591 22.41,21.251 22,21.251 Z M7.24,21.251 L4.75,21.251 L4.75,12.751 L7.24,12.751 L7.24,21.251 Z M11.24,21.251 L8.74,21.251 L8.74,12.751 L11.24,12.751 L11.24,21.251 Z M15.24,21.251 L12.74,21.251 L12.74,12.751 L15.24,12.751 L15.24,21.251 Z M19.25,21.251 L16.74,21.251 L16.74,12.751 L19.25,12.751 L19.25,21.251 Z"/>
</svg>

