<svg xmlns="http://www.w3.org/2000/svg" width="24" height="24" viewBox="0 0 24 24">
  <defs/>
  <path fill="#292D32" d="M9.6,20.75 Q3.25,20.75 3.25,14.4 L3.25,9.6 Q3.25,3.25 9.6,3.25 L14.4,3.25 Q20.75,3.25 20.75,9.6 L20.75,14.4 Q20.75,20.75 14.4,20.75 Z M9.6,19.25 L14.4,19.25 Q19.25,19.25 19.25,14.4 L19.25,9.6 Q19.25,6.911 18.17,5.83 Q17.089,4.75 14.4,4.75 L9.6,4.75 Q6.911,4.75 5.83,5.83 Q4.75,6.911 4.75,9.6 L4.75,14.4 Q4.75,19.25 9.6,19.25 Z"/>
  <path fill="#292D32" opacity="0.4" d="M10.5,17.75 Q8.314,17.75 7.282,16.718 Q6.25,15.686 6.25,13.5 L6.25,10.5 Q6.25,8.314 7.282,7.282 Q8.314,6.25 10.5,6.25 L13.5,6.25 Q17.75,6.25 17.75,10.5 L17.75,13.5 Q17.75,15.686 16.718,16.718 Q15.686,17.75 13.5,17.75 Z M10.5,16.25 L13.5,16.25 Q16.25,16.25 16.25,13.5 L16.25,10.5 Q16.25,7.75 13.5,7.75 L10.5,7.75 Q7.75,7.75 7.75,10.5 L7.75,13.5 Q7.75,16.25 10.5,16.25 Z"/>
  <path fill="#292D32" opacity="0.4" d="M7.26,4 L7.26,2 Q7.26,1.689 7.479,1.47 Q7.699,1.25 8.01,1.25 Q8.32,1.25 8.54,1.47 Q8.76,1.689 8.76,2 L8.76,4 Q8.76,4.311 8.54,4.53 Q8.32,4.75 8.01,4.75 Q7.699,4.75 7.479,4.53 Q7.26,4.311 7.26,4 Z"/>
  <path fill="#292D32" opacity="0.4" d="M11.25,4 L11.25,2 Q11.25,1.689 11.47,1.47 Q11.689,1.25 12,1.25 Q12.311,1.25 12.53,1.47 Q12.75,1.689 12.75,2 L12.75,4 Q12.75,4.311 12.53,4.53 Q12.311,4.75 12,4.75 Q11.689,4.75 11.47,4.53 Q11.25,4.311 11.25,4 Z"/>
  <path fill="#292D32" opacity="0.4" d="M15.25,4 L15.25,2 Q15.25,1.689 15.47,1.47 Q15.689,1.25 16,1.25 Q16.311,1.25 16.53,1.47 Q16.75,1.689 16.75,2 L16.75,4 Q16.75,4.311 16.53,4.53 Q16.311,4.75 16,4.75 Q15.689,4.75 15.47,4.53 Q15.25,4.311 15.25,4 Z"/>
  <path fill="#292D32" opacity="0.4" d="M20,7.25 L22,7.25 Q22.311,7.25 22.53,7.47 Q22.75,7.689 22.75,8 Q22.75,8.311 22.53,8.53 Q22.311,8.75 22,8.75 L20,8.75 Q19.689,8.75 19.47,8.53 Q19.25,8.311 19.25,8 Q19.25,7.689 19.47,7.47 Q19.689,7.25 20,7.25 Z"/>
  <path fill="#292D32" opacity="0.4" d="M20,11.25 L22,11.25 Q22.311,11.25 22.53,11.47 Q22.75,11.689 22.75,12 Q22.75,12.311 22.53,12.53 Q22.311,12.75 22,12.75 L20,12.75 Q19.689,12.75 19.47,12.53 Q19.25,12.311 19.25,12 Q19.25,11.689 19.47,11.47 Q19.689,11.25 20,11.25 Z"/>
  <path fill="#292D32" opacity="0.4" d="M20,15.25 L22,15.25 Q22.311,15.25 22.53,15.47 Q22.75,15.689 22.75,16 Q22.75,16.311 22.53,16.53 Q22.311,16.75 22,16.75 L20,16.75 Q19.689,16.75 19.47,16.53 Q19.25,16.311 19.25,16 Q19.25,15.689 19.47,15.47 Q19.689,15.25 20,15.25 Z"/>
  <path fill="#292D32" opacity="0.4" d="M16.75,20 L16.75,22 Q16.75,22.311 16.53,22.53 Q16.311,22.75 16,22.75 Q15.689,22.75 15.47,22.53 Q15.25,22.311 15.25,22 L15.25,20 Q15.25,19.689 15.47,19.47 Q15.689,19.25 16,19.25 Q16.311,19.25 16.53,19.47 Q16.75,19.689 16.75,20 Z"/>
  <path fill="#292D32" opacity="0.4" d="M12.76,20 L12.76,22 Q12.76,22.311 12.54,22.53 Q12.32,22.75 12.01,22.75 Q11.699,22.75 11.479,22.53 Q11.26,22.311 11.26,22 L11.26,20 Q11.26,19.689 11.479,19.47 Q11.699,19.25 12.01,19.25 Q12.32,19.25 12.54,19.47 Q12.76,19.689 12.76,20 Z"/>
  <path fill="#292D32" opacity="0.4" d="M8.76,20 L8.76,22 Q8.76,22.311 8.54,22.53 Q8.32,22.75 8.01,22.75 Q7.699,22.75 7.479,22.53 Q7.26,22.311 7.26,22 L7.26,20 Q7.26,19.689 7.479,19.47 Q7.699,19.25 8.01,19.25 Q8.32,19.25 8.54,19.47 Q8.76,19.689 8.76,20 Z"/>
  <path fill="#292D32" opacity="0.4" d="M2,7.25 L4,7.25 Q4.311,7.25 4.53,7.47 Q4.75,7.689 4.75,8 Q4.75,8.311 4.53,8.53 Q4.311,8.75 4,8.75 L2,8.75 Q1.689,8.75 1.47,8.53 Q1.25,8.311 1.25,8 Q1.25,7.689 1.47,7.47 Q1.689,7.25 2,7.25 Z"/>
  <path fill="#292D32" opacity="0.4" d="M2,11.25 L4,11.25 Q4.311,11.25 4.53,11.47 Q4.75,11.689 4.75,12 Q4.75,12.311 4.53,12.53 Q4.311,12.75 4,12.75 L2,12.75 Q1.689,12.75 1.47,12.53 Q1.25,12.311 1.25,12 Q1.25,11.689 1.47,11.47 Q1.689,11.25 2,11.25 Z"/>
  <path fill="#292D32" opacity="0.4" d="M2,15.25 L4,15.25 Q4.311,15.25 4.53,15.47 Q4.75,15.689 4.75,16 Q4.75,16.311 4.53,16.53 Q4.311,16.75 4,16.75 L2,16.75 Q1.689,16.75 1.47,16.53 Q1.25,16.311 1.25,16 Q1.25,15.689 1.47,15.47 Q1.689,15.25 2,15.25 Z"/>
</svg>

