<svg xmlns="http://www.w3.org/2000/svg" width="24" height="24" viewBox="0 0 24 24">
  <defs/>
  <path fill="#292D32" opacity="0.4" d="M15,4 L9,4 C6.24,4 4,6.24 4,9 L4,15 C4,17.76 6.24,20 9,20 L15,20 C17.76,20 20,17.76 20,15 L20,9 C20,6.24 17.76,4 15,4 Z M17.26,14.26 C17.26,15.92 15.92,17.26 14.26,17.26 L9.74,17.26 C8.08,17.26 6.74,15.92 6.74,14.26 L6.74,9.74 C6.74,8.08 8.08,6.74 9.74,6.74 L14.25,6.74 C15.91,6.74 17.25,8.08 17.25,9.74 L17.25,14.26 L17.26,14.26 Z"/>
  <path fill="#292D32" d="M9.061,2.75 L9.061,4 L9.001,4 C8.501,4 8.021,4.07 7.561,4.21 L7.561,2.75 C7.561,2.34 7.891,2 8.311,2 C8.721,2 9.061,2.34 9.061,2.75 Z"/>
  <path fill="#292D32" d="M12.75,2.75 L12.75,4 L11.25,4 L11.25,2.75 C11.25,2.34 11.59,2 12,2 C12.41,2 12.75,2.34 12.75,2.75 Z"/>
  <path fill="#292D32" d="M16.449,2.75 L16.449,4.21 C15.989,4.07 15.499,4 14.999,4 L14.949,4 L14.949,2.75 C14.949,2.34 15.289,2 15.699,2 C16.109,2 16.449,2.34 16.449,2.75 Z"/>
  <path fill="#292D32" d="M21.999,8.3 C21.999,8.72 21.669,9.05 21.249,9.05 L19.999,9.05 L19.999,9 C19.999,8.5 19.929,8.01 19.789,7.55 L21.249,7.55 C21.669,7.55 21.999,7.89 21.999,8.3 Z"/>
  <path fill="#292D32" d="M22,12 C22,12.41 21.67,12.75 21.25,12.75 L20,12.75 L20,11.25 L21.25,11.25 C21.67,11.25 22,11.58 22,12 Z"/>
  <path fill="#292D32" d="M21.999,15.7 C21.999,16.11 21.669,16.45 21.249,16.45 L19.789,16.45 C19.929,15.99 19.999,15.5 19.999,15 L19.999,14.95 L21.249,14.95 C21.669,14.95 21.999,15.28 21.999,15.7 Z"/>
  <path fill="#292D32" d="M16.449,19.79 L16.449,21.25 C16.449,21.66 16.109,22 15.699,22 C15.289,22 14.949,21.66 14.949,21.25 L14.949,20 L14.999,20 C15.499,20 15.989,19.93 16.449,19.79 Z"/>
  <path fill="#292D32" d="M12.76,20 L12.76,21.25 C12.76,21.66 12.42,22 12.01,22 C11.59,22 11.26,21.66 11.26,21.25 L11.26,20 L12.76,20 Z"/>
  <path fill="#292D32" d="M9.061,20 L9.061,21.25 C9.061,21.66 8.721,22 8.311,22 C7.891,22 7.561,21.66 7.561,21.25 L7.561,19.79 C8.021,19.93 8.501,20 9.001,20 L9.061,20 Z"/>
  <path fill="#292D32" d="M4.21,7.55 C4.07,8.01 4,8.5 4,9 L4,9.05 L2.75,9.05 C2.34,9.05 2,8.72 2,8.3 C2,7.89 2.34,7.55 2.75,7.55 L4.21,7.55 Z"/>
  <path fill="#292D32" d="M4,11.25 L4,12.75 L2.75,12.75 C2.34,12.75 2,12.41 2,12 C2,11.58 2.34,11.25 2.75,11.25 L4,11.25 Z"/>
  <path fill="#292D32" d="M4.21,16.45 L2.75,16.45 C2.34,16.45 2,16.11 2,15.7 C2,15.28 2.34,14.95 2.75,14.95 L4,14.95 L4,15 C4,15.5 4.07,15.99 4.21,16.45 Z"/>
  <path fill="#292D32" d="M14.26,6.74 L9.74,6.74 C8.08,6.74 6.74,8.08 6.74,9.74 L6.74,14.25 C6.74,15.91 8.08,17.25 9.74,17.25 L14.25,17.25 C15.91,17.25 17.25,15.91 17.25,14.25 L17.25,9.74 C17.26,8.09 15.91,6.74 14.26,6.74 Z M13.59,13.04 L12.65,14.68 C12.51,14.92 12.26,15.06 12,15.06 C11.87,15.06 11.74,15.03 11.63,14.96 C11.27,14.75 11.15,14.29 11.35,13.94 L12.03,12.76 L11.44,12.76 C10.96,12.76 10.57,12.55 10.36,12.19 C10.15,11.83 10.17,11.38 10.4,10.97 L11.34,9.33 C11.55,8.97 12.01,8.85 12.36,9.05 C12.72,9.26 12.84,9.72 12.64,10.07 L11.96,11.25 L12.55,11.25 C13.03,11.25 13.42,11.46 13.63,11.82 C13.85,12.18 13.83,12.62 13.59,13.04 Z"/>
</svg>

