<svg xmlns="http://www.w3.org/2000/svg" width="24" height="24" viewBox="0 0 24 24">
  <defs/>
  <path fill="#292D32" d="M19.25,9.6 Q19.25,6.911 18.17,5.83 Q17.089,4.75 14.4,4.75 L9.6,4.75 Q6.911,4.75 5.83,5.83 Q4.75,6.911 4.75,9.6 L4.75,14.4 Q4.75,19.25 9.6,19.25 Q9.911,19.25 10.13,19.47 Q10.35,19.689 10.35,20 Q10.35,20.311 10.13,20.53 Q9.911,20.75 9.6,20.75 Q3.25,20.75 3.25,14.4 L3.25,9.6 Q3.25,3.25 9.6,3.25 L14.4,3.25 Q20.75,3.25 20.75,9.6 Q20.75,9.911 20.53,10.13 Q20.311,10.35 20,10.35 Q19.689,10.35 19.47,10.13 Q19.25,9.911 19.25,9.6 Z"/>
  <path fill="#292D32" d="M15.76,8.463 Q15.2,7.75 13.5,7.75 L10.5,7.75 Q7.75,7.75 7.75,10.5 L7.75,13.5 Q7.75,15.2 8.457,15.764 Q8.7,15.957 8.735,16.266 Q8.77,16.575 8.576,16.817 Q8.383,17.06 8.074,17.095 Q7.765,17.13 7.523,16.936 Q6.25,15.922 6.25,13.5 L6.25,10.5 Q6.25,8.314 7.282,7.282 Q8.314,6.25 10.5,6.25 L13.5,6.25 Q15.929,6.25 16.94,7.537 Q17.132,7.781 17.095,8.089 Q17.058,8.398 16.813,8.59 Q16.569,8.782 16.261,8.745 Q15.952,8.708 15.76,8.463 Z"/>
  <path fill="#292D32" d="M7.26,4 L7.26,2 Q7.26,1.689 7.479,1.47 Q7.699,1.25 8.01,1.25 Q8.32,1.25 8.54,1.47 Q8.76,1.689 8.76,2 L8.76,4 Q8.76,4.311 8.54,4.53 Q8.32,4.75 8.01,4.75 Q7.699,4.75 7.479,4.53 Q7.26,4.311 7.26,4 Z"/>
  <path fill="#292D32" d="M11.25,4 L11.25,2 Q11.25,1.689 11.47,1.47 Q11.689,1.25 12,1.25 Q12.311,1.25 12.53,1.47 Q12.75,1.689 12.75,2 L12.75,4 Q12.75,4.311 12.53,4.53 Q12.311,4.75 12,4.75 Q11.689,4.75 11.47,4.53 Q11.25,4.311 11.25,4 Z"/>
  <path fill="#292D32" d="M15.25,4 L15.25,2 Q15.25,1.689 15.47,1.47 Q15.689,1.25 16,1.25 Q16.311,1.25 16.53,1.47 Q16.75,1.689 16.75,2 L16.75,4 Q16.75,4.311 16.53,4.53 Q16.311,4.75 16,4.75 Q15.689,4.75 15.47,4.53 Q15.25,4.311 15.25,4 Z"/>
  <path fill="#292D32" d="M20,7.25 L22,7.25 Q22.311,7.25 22.53,7.47 Q22.75,7.689 22.75,8 Q22.75,8.311 22.53,8.53 Q22.311,8.75 22,8.75 L20,8.75 Q19.689,8.75 19.47,8.53 Q19.25,8.311 19.25,8 Q19.25,7.689 19.47,7.47 Q19.689,7.25 20,7.25 Z"/>
  <path fill="#292D32" d="M8.76,20 L8.76,22 Q8.76,22.311 8.54,22.53 Q8.32,22.75 8.01,22.75 Q7.699,22.75 7.479,22.53 Q7.26,22.311 7.26,22 L7.26,20 Q7.26,19.689 7.479,19.47 Q7.699,19.25 8.01,19.25 Q8.32,19.25 8.54,19.47 Q8.76,19.689 8.76,20 Z"/>
  <path fill="#292D32" d="M2,7.25 L4,7.25 Q4.311,7.25 4.53,7.47 Q4.75,7.689 4.75,8 Q4.75,8.311 4.53,8.53 Q4.311,8.75 4,8.75 L2,8.75 Q1.689,8.75 1.47,8.53 Q1.25,8.311 1.25,8 Q1.25,7.689 1.47,7.47 Q1.689,7.25 2,7.25 Z"/>
  <path fill="#292D32" d="M2,11.25 L4,11.25 Q4.311,11.25 4.53,11.47 Q4.75,11.689 4.75,12 Q4.75,12.311 4.53,12.53 Q4.311,12.75 4,12.75 L2,12.75 Q1.689,12.75 1.47,12.53 Q1.25,12.311 1.25,12 Q1.25,11.689 1.47,11.47 Q1.689,11.25 2,11.25 Z"/>
  <path fill="#292D32" d="M2,15.25 L4,15.25 Q4.311,15.25 4.53,15.47 Q4.75,15.689 4.75,16 Q4.75,16.311 4.53,16.53 Q4.311,16.75 4,16.75 L2,16.75 Q1.689,16.75 1.47,16.53 Q1.25,16.311 1.25,16 Q1.25,15.689 1.47,15.47 Q1.689,15.25 2,15.25 Z"/>
  <path fill="#292D32" d="M16.709,19.34 Q15.539,19.34 14.954,18.755 Q14.369,18.17 14.369,17 Q14.369,16.031 15.054,15.345 Q15.74,14.66 16.709,14.66 Q17.678,14.66 18.364,15.345 Q19.049,16.031 19.049,17 Q19.049,17.969 18.364,18.655 Q17.678,19.34 16.709,19.34 Z M16.709,17.84 Q17.549,17.84 17.549,17 Q17.549,16.652 17.303,16.406 Q17.057,16.16 16.709,16.16 Q16.361,16.16 16.115,16.406 Q15.869,16.652 15.869,17 Q15.869,17.42 16.079,17.63 Q16.289,17.84 16.709,17.84 Z"/>
  <path fill="#292D32" d="M10.66,17.46 L10.66,16.53 Q10.66,14.78 12.41,14.78 Q12.696,14.78 12.735,14.712 Q12.775,14.644 12.631,14.395 Q12.264,13.767 12.456,13.06 Q12.648,12.353 13.283,11.996 L14.183,11.472 Q14.868,11.064 15.419,11.2 Q15.988,11.339 16.415,12.056 L16.473,12.154 Q16.623,12.413 16.7,12.413 Q16.778,12.412 16.921,12.165 L16.987,12.054 Q17.812,10.669 19.212,11.469 L20.128,12.002 Q21.648,12.889 20.768,14.398 Q20.626,14.644 20.665,14.712 Q20.704,14.78 20.99,14.78 Q21.713,14.78 22.227,15.293 Q22.74,15.807 22.74,16.53 L22.74,17.46 Q22.74,18.183 22.227,18.697 Q21.713,19.21 20.99,19.21 Q20.704,19.21 20.665,19.278 Q20.626,19.346 20.769,19.595 Q21.136,20.223 20.944,20.93 Q20.752,21.637 20.118,21.994 L19.218,22.518 Q18.638,22.863 17.977,22.686 Q17.33,22.512 16.986,21.934 L16.927,21.836 Q16.778,21.578 16.7,21.578 Q16.623,21.578 16.479,21.825 L16.413,21.936 Q15.589,23.321 14.188,22.521 L13.273,21.988 Q11.752,21.101 12.632,19.592 Q12.775,19.346 12.735,19.278 Q12.696,19.21 12.41,19.21 Q11.693,19.223 11.174,18.704 Q10.66,18.191 10.66,17.46 Z M12.16,17.46 Q12.16,17.569 12.234,17.643 Q12.303,17.712 12.41,17.71 Q13.564,17.71 14.035,18.53 Q14.506,19.348 13.928,20.348 Q13.804,20.561 14.028,20.692 L14.932,21.219 Q15.053,21.288 15.127,21.164 L15.181,21.075 Q15.758,20.078 16.7,20.078 Q17.643,20.078 18.213,21.064 L18.275,21.166 Q18.348,21.29 18.463,21.222 L19.383,20.686 Q19.469,20.638 19.496,20.537 Q19.524,20.436 19.471,20.345 Q18.894,19.348 19.365,18.53 Q19.837,17.71 20.99,17.71 Q21.24,17.71 21.24,17.46 L21.24,16.53 Q21.24,16.28 20.99,16.28 Q19.837,16.28 19.365,15.46 Q18.894,14.642 19.472,13.642 Q19.597,13.429 19.373,13.298 L18.468,12.771 Q18.347,12.702 18.273,12.826 L18.219,12.915 Q17.643,13.913 16.7,13.913 Q15.758,13.912 15.187,12.926 L15.126,12.824 Q15.052,12.7 14.938,12.768 L14.018,13.304 Q13.931,13.352 13.904,13.453 Q13.877,13.554 13.929,13.645 Q14.506,14.642 14.035,15.46 Q13.564,16.28 12.41,16.28 Q12.16,16.28 12.16,16.53 Z"/>
</svg>

