<svg xmlns="http://www.w3.org/2000/svg" width="24" height="24" viewBox="0 0 24 24">
  <defs/>
  <path fill="#292D32" d="M13.98,7.75 L10.01,7.75 C8.76,7.75 7.74,8.76 7.74,10.02 L7.74,13.99 C7.74,15.24 8.75,16.26 10.01,16.26 L13.98,16.26 C15.23,16.26 16.25,15.25 16.25,13.99 L16.25,10.02 C16.25,8.76 15.24,7.75 13.98,7.75 Z M13.5,12.98 L12.61,14.53 C12.48,14.76 12.24,14.88 12,14.88 C11.88,14.88 11.75,14.85 11.65,14.79 C11.31,14.6 11.19,14.17 11.39,13.83 L12.03,12.72 L11.47,12.72 C11.02,12.72 10.65,12.52 10.45,12.18 C10.25,11.84 10.27,11.42 10.5,11.03 L11.39,9.48 C11.59,9.14 12.02,9.03 12.35,9.22 C12.69,9.41 12.81,9.84 12.61,10.18 L11.97,11.29 L12.53,11.29 C12.98,11.29 13.35,11.49 13.55,11.83 C13.75,12.17 13.73,12.59 13.5,12.98 Z"/>
  <path fill="#292D32" d="M21.25,12.75 C21.67,12.75 22,12.41 22,12 C22,11.58 21.67,11.25 21.25,11.25 L20,11.25 L20,9.05 L21.25,9.05 C21.67,9.05 22,8.72 22,8.3 C22,7.89 21.67,7.55 21.25,7.55 L19.77,7.55 C19.29,5.96 18.04,4.71 16.45,4.23 L16.45,2.75 C16.45,2.34 16.11,2 15.7,2 C15.29,2 14.95,2.34 14.95,2.75 L14.95,4 L12.75,4 L12.75,2.75 C12.75,2.34 12.41,2 12,2 C11.59,2 11.25,2.34 11.25,2.75 L11.25,4 L9.06,4 L9.06,2.75 C9.06,2.34 8.72,2 8.31,2 C7.89,2 7.56,2.34 7.56,2.75 L7.56,4.23 C5.96,4.71 4.71,5.96 4.23,7.55 L2.75,7.55 C2.34,7.55 2,7.89 2,8.3 C2,8.72 2.34,9.05 2.75,9.05 L4,9.05 L4,11.25 L2.75,11.25 C2.34,11.25 2,11.58 2,12 C2,12.41 2.34,12.75 2.75,12.75 L4,12.75 L4,14.95 L2.75,14.95 C2.34,14.95 2,15.28 2,15.7 C2,16.11 2.34,16.45 2.75,16.45 L4.23,16.45 C4.7,18.04 5.96,19.29 7.56,19.77 L7.56,21.25 C7.56,21.66 7.89,22 8.31,22 C8.72,22 9.06,21.66 9.06,21.25 L9.06,20 L11.26,20 L11.26,21.25 C11.26,21.66 11.59,22 12.01,22 C12.42,22 12.76,21.66 12.76,21.25 L12.76,20 L14.95,20 L14.95,21.25 C14.95,21.66 15.29,22 15.7,22 C16.11,22 16.45,21.66 16.45,21.25 L16.45,19.77 C18.04,19.29 19.29,18.04 19.77,16.45 L21.25,16.45 C21.67,16.45 22,16.11 22,15.7 C22,15.28 21.67,14.95 21.25,14.95 L20,14.95 L20,12.75 L21.25,12.75 Z M17.26,14.26 C17.26,15.91 15.91,17.26 14.26,17.26 L9.74,17.26 C8.09,17.26 6.74,15.91 6.74,14.26 L6.74,9.74 C6.74,8.09 8.09,6.74 9.74,6.74 L14.26,6.74 C15.91,6.74 17.26,8.09 17.26,9.74 L17.26,14.26 Z"/>
</svg>

