<svg xmlns="http://www.w3.org/2000/svg" width="24" height="24" viewBox="0 0 24 24">
  <defs/>
  <path fill="#292D32" opacity="0.4" d="M20,9 L20,11.92 L19.22,11.47 C18.58,11.1 17.78,11.21 17.26,11.71 C17.15,11.81 17.06,11.93 16.98,12.06 L16.92,12.17 C16.81,12.36 16.72,12.41 16.71,12.42 C16.69,12.41 16.59,12.36 16.48,12.16 L16.42,12.06 C16.2,11.68 15.85,11.42 15.43,11.31 C15,11.19 14.56,11.25 14.19,11.47 L13.28,12 C12.87,12.23 12.58,12.61 12.46,13.06 C12.34,13.52 12.4,13.99 12.63,14.4 C12.74,14.58 12.74,14.69 12.74,14.71 C12.73,14.72 12.63,14.78 12.41,14.78 C11.44,14.78 10.65,15.57 10.65,16.53 L10.65,17.47 C10.65,18.43 11.44,19.22 12.41,19.22 C12.63,19.22 12.73,19.28 12.73,19.29 C12.74,19.3 12.74,19.42 12.63,19.6 C12.56,19.73 12.5,19.86 12.47,20 L9,20 C6.24,20 4,17.76 4,15 L4,9 C4,6.24 6.24,4 9,4 L15,4 C17.76,4 20,6.24 20,9 Z"/>
  <path fill="#292D32" d="M17.26,9.74 L17.26,11.71 C17.15,11.81 17.06,11.93 16.98,12.06 L16.92,12.17 C16.81,12.36 16.72,12.41 16.71,12.42 C16.69,12.41 16.59,12.36 16.48,12.16 L16.42,12.06 C16.2,11.68 15.85,11.42 15.43,11.31 C15,11.19 14.56,11.25 14.19,11.47 L13.28,12 C12.87,12.23 12.58,12.61 12.46,13.06 C12.34,13.52 12.4,13.99 12.63,14.4 C12.74,14.58 12.74,14.69 12.74,14.71 C12.73,14.72 12.63,14.78 12.41,14.78 C11.44,14.78 10.65,15.57 10.65,16.53 L10.65,17.26 L9.74,17.26 C8.09,17.26 6.74,15.91 6.74,14.26 L6.74,9.74 C6.74,8.09 8.09,6.74 9.74,6.74 L14.26,6.74 C15.91,6.74 17.26,8.09 17.26,9.74 Z"/>
  <path fill="#292D32" d="M9.061,2.75 L9.061,4 L9.001,4 C8.501,4 8.021,4.07 7.561,4.21 L7.561,2.75 C7.561,2.34 7.891,2 8.311,2 C8.721,2 9.061,2.34 9.061,2.75 Z"/>
  <path fill="#292D32" d="M12.75,2.75 L12.75,4 L11.25,4 L11.25,2.75 C11.25,2.34 11.59,2 12,2 C12.41,2 12.75,2.34 12.75,2.75 Z"/>
  <path fill="#292D32" d="M16.449,2.75 L16.449,4.21 C15.989,4.07 15.499,4 14.999,4 L14.949,4 L14.949,2.75 C14.949,2.34 15.289,2 15.699,2 C16.109,2 16.449,2.34 16.449,2.75 Z"/>
  <path fill="#292D32" d="M21.999,8.3 C21.999,8.72 21.669,9.05 21.249,9.05 L19.999,9.05 L19.999,9 C19.999,8.5 19.929,8.01 19.789,7.55 L21.249,7.55 C21.669,7.55 21.999,7.89 21.999,8.3 Z"/>
  <path fill="#292D32" d="M9.061,20 L9.061,21.25 C9.061,21.66 8.721,22 8.311,22 C7.891,22 7.561,21.66 7.561,21.25 L7.561,19.79 C8.021,19.93 8.501,20 9.001,20 L9.061,20 Z"/>
  <path fill="#292D32" d="M4.21,7.55 C4.07,8.01 4,8.5 4,9 L4,9.05 L2.75,9.05 C2.34,9.05 2,8.72 2,8.3 C2,7.89 2.34,7.55 2.75,7.55 L4.21,7.55 Z"/>
  <path fill="#292D32" d="M4,11.25 L4,12.75 L2.75,12.75 C2.34,12.75 2,12.41 2,12 C2,11.58 2.34,11.25 2.75,11.25 L4,11.25 Z"/>
  <path fill="#292D32" d="M4.21,16.45 L2.75,16.45 C2.34,16.45 2,16.11 2,15.7 C2,15.28 2.34,14.95 2.75,14.95 L4,14.95 L4,15 C4,15.5 4.07,15.99 4.21,16.45 Z"/>
  <path fill="#292D32" opacity="0.4" d="M20.99,15.53 C20.31,15.53 19.92,15.19 19.92,14.69 C19.92,14.49 19.98,14.26 20.12,14.02 C20.4,13.54 20.23,12.92 19.75,12.65 L18.84,12.12 C18.42,11.87 17.88,12.02 17.63,12.44 L17.57,12.54 C17.09,13.37 16.31,13.37 15.83,12.54 L15.77,12.44 C15.53,12.02 14.98,11.87 14.57,12.12 L13.65,12.65 C13.33,12.83 13.14,13.17 13.14,13.52 C13.14,13.69 13.19,13.86 13.28,14.02 C13.42,14.26 13.49,14.49 13.49,14.69 C13.49,15.19 13.09,15.53 12.41,15.53 C11.86,15.53 11.4,15.98 11.4,16.53 L11.4,17.47 C11.4,18.02 11.86,18.47 12.41,18.47 C13.09,18.47 13.49,18.81 13.49,19.31 C13.49,19.51 13.42,19.74 13.28,19.98 C13,20.46 13.17,21.08 13.65,21.35 L14.57,21.88 C14.98,22.13 15.53,21.98 15.77,21.56 L15.83,21.46 C16.31,20.63 17.09,20.63 17.57,21.46 L17.63,21.56 C17.88,21.98 18.42,22.13 18.84,21.88 L19.75,21.35 C20.07,21.17 20.26,20.83 20.26,20.48 C20.26,20.31 20.21,20.14 20.12,19.98 C19.98,19.74 19.92,19.51 19.92,19.31 C19.92,18.81 20.31,18.47 20.99,18.47 C21.55,18.47 22,18.02 22,17.47 L22,16.53 C22,15.98 21.55,15.53 20.99,15.53 Z M16.7,18.72 C15.75,18.72 14.98,17.95 14.98,17 C14.98,16.05 15.75,15.28 16.7,15.28 C17.65,15.28 18.42,16.05 18.42,17 C18.42,17.95 17.65,18.72 16.7,18.72 Z"/>
  <path fill="#292D32" d="M18.421,17 C18.421,17.95 17.651,18.72 16.701,18.72 C15.751,18.72 14.98,17.95 14.98,17 C14.98,16.05 15.751,15.28 16.701,15.28 C17.651,15.28 18.421,16.05 18.421,17 Z"/>
</svg>

