<svg xmlns="http://www.w3.org/2000/svg" width="24" height="24" viewBox="0 0 24 24">
  <defs/>
  <path fill="#292D32" d="M14.4,20.75 L9.6,20.75 C5.21,20.75 3.25,18.79 3.25,14.4 L3.25,9.6 C3.25,5.21 5.21,3.25 9.6,3.25 L14.4,3.25 C18.79,3.25 20.75,5.21 20.75,9.6 L20.75,14.4 C20.75,18.79 18.79,20.75 14.4,20.75 Z M9.6,4.75 C6.02,4.75 4.75,6.02 4.75,9.6 L4.75,14.4 C4.75,17.98 6.02,19.25 9.6,19.25 L14.4,19.25 C17.98,19.25 19.25,17.98 19.25,14.4 L19.25,9.6 C19.25,6.02 17.98,4.75 14.4,4.75 L9.6,4.75 Z"/>
  <path fill="#292D32" d="M13.5,17.75 L10.5,17.75 C7.6,17.75 6.25,16.4 6.25,13.5 L6.25,10.5 C6.25,7.6 7.6,6.25 10.5,6.25 L13.5,6.25 C16.4,6.25 17.75,7.6 17.75,10.5 L17.75,13.5 C17.75,16.4 16.4,17.75 13.5,17.75 Z M10.5,7.75 C8.42,7.75 7.75,8.42 7.75,10.5 L7.75,13.5 C7.75,15.58 8.42,16.25 10.5,16.25 L13.5,16.25 C15.58,16.25 16.25,15.58 16.25,13.5 L16.25,10.5 C16.25,8.42 15.58,7.75 13.5,7.75 L10.5,7.75 Z"/>
  <path fill="#292D32" d="M8.01,4.75 C7.59,4.75 7.26,4.41 7.26,4 L7.26,2 C7.26,1.59 7.6,1.25 8.01,1.25 C8.42,1.25 8.76,1.59 8.76,2 L8.76,4 C8.76,4.41 8.42,4.75 8.01,4.75 Z"/>
  <path fill="#292D32" d="M12,4.75 C11.59,4.75 11.25,4.41 11.25,4 L11.25,2 C11.25,1.59 11.59,1.25 12,1.25 C12.41,1.25 12.75,1.59 12.75,2 L12.75,4 C12.75,4.41 12.41,4.75 12,4.75 Z"/>
  <path fill="#292D32" d="M16,4.75 C15.59,4.75 15.25,4.41 15.25,4 L15.25,2 C15.25,1.59 15.59,1.25 16,1.25 C16.41,1.25 16.75,1.59 16.75,2 L16.75,4 C16.75,4.41 16.41,4.75 16,4.75 Z"/>
  <path fill="#292D32" d="M22,8.75 L20,8.75 C19.59,8.75 19.25,8.41 19.25,8 C19.25,7.59 19.59,7.25 20,7.25 L22,7.25 C22.41,7.25 22.75,7.59 22.75,8 C22.75,8.41 22.42,8.75 22,8.75 Z"/>
  <path fill="#292D32" d="M22,12.75 L20,12.75 C19.59,12.75 19.25,12.41 19.25,12 C19.25,11.59 19.59,11.25 20,11.25 L22,11.25 C22.41,11.25 22.75,11.59 22.75,12 C22.75,12.41 22.42,12.75 22,12.75 Z"/>
  <path fill="#292D32" d="M22,16.75 L20,16.75 C19.59,16.75 19.25,16.41 19.25,16 C19.25,15.59 19.59,15.25 20,15.25 L22,15.25 C22.41,15.25 22.75,15.59 22.75,16 C22.75,16.41 22.42,16.75 22,16.75 Z"/>
  <path fill="#292D32" d="M16,22.75 C15.59,22.75 15.25,22.41 15.25,22 L15.25,20 C15.25,19.59 15.59,19.25 16,19.25 C16.41,19.25 16.75,19.59 16.75,20 L16.75,22 C16.75,22.41 16.41,22.75 16,22.75 Z"/>
  <path fill="#292D32" d="M12.01,22.75 C11.6,22.75 11.26,22.41 11.26,22 L11.26,20 C11.26,19.59 11.6,19.25 12.01,19.25 C12.42,19.25 12.76,19.59 12.76,20 L12.76,22 C12.76,22.41 12.42,22.75 12.01,22.75 Z"/>
  <path fill="#292D32" d="M8.01,22.75 C7.6,22.75 7.26,22.41 7.26,22 L7.26,20 C7.26,19.59 7.6,19.25 8.01,19.25 C8.42,19.25 8.76,19.59 8.76,20 L8.76,22 C8.76,22.41 8.42,22.75 8.01,22.75 Z"/>
  <path fill="#292D32" d="M4,8.75 L2,8.75 C1.59,8.75 1.25,8.42 1.25,8 C1.25,7.58 1.59,7.25 2,7.25 L4,7.25 C4.41,7.25 4.75,7.59 4.75,8 C4.75,8.41 4.42,8.75 4,8.75 Z"/>
  <path fill="#292D32" d="M4,12.75 L2,12.75 C1.59,12.75 1.25,12.41 1.25,12 C1.25,11.59 1.59,11.25 2,11.25 L4,11.25 C4.41,11.25 4.75,11.59 4.75,12 C4.75,12.41 4.42,12.75 4,12.75 Z"/>
  <path fill="#292D32" d="M4,16.75 L2,16.75 C1.59,16.75 1.25,16.41 1.25,16 C1.25,15.59 1.59,15.25 2,15.25 L4,15.25 C4.41,15.25 4.75,15.59 4.75,16 C4.75,16.41 4.42,16.75 4,16.75 Z"/>
</svg>

