<svg xmlns="http://www.w3.org/2000/svg" width="24" height="24" viewBox="0 0 24 24">
  <defs/>
  <path fill="#292D32" d="M4.09,8.08 C4.04,8.38 4,8.68 4,9 C4,8.69 4.04,8.38 4.09,8.08 Z M4,15 C4,15.32 4.04,15.62 4.09,15.92 C4.04,15.62 4,15.31 4,15 Z M8.09,19.91 C8.38,19.96 8.69,20 9,20 C8.69,20 8.39,19.96 8.09,19.91 Z M8.09,4.09 C8.39,4.04 8.69,4 9,4 C8.69,4 8.38,4.04 8.09,4.09 Z M15.92,4.09 C15.62,4.04 15.32,4 15,4 C15.31,4 15.62,4.04 15.92,4.09 Z M19.91,8.08 C19.96,8.38 20,8.69 20,9 C20,8.68 19.96,8.38 19.91,8.08 Z"/>
  <path fill="#292D32" d="M22,8.3 C22,8.72 21.67,9.05 21.25,9.05 L20,9.05 L20,10.887 C20,11.221 19.638,11.428 19.35,11.26 C18.92,11.01 18.42,10.93 17.94,11.06 C17.632,11.134 17.26,10.935 17.26,10.618 L17.26,9.74 C17.26,8.09 15.91,6.74 14.26,6.74 L9.74,6.74 C8.09,6.74 6.74,8.09 6.74,9.74 L6.74,14.26 C6.74,15.91 8.09,17.26 9.74,17.26 L10.19,17.26 C10.306,17.26 10.4,17.354 10.4,17.47 C10.4,18.433 11.098,19.244 12.018,19.43 C12.19,19.465 12.307,19.672 12.25,19.838 C12.217,19.934 12.13,20 12.029,20 L9.06,20 L9.06,21.25 C9.06,21.66 8.72,22 8.31,22 C7.89,22 7.56,21.66 7.56,21.25 L7.56,19.78 C5.96,19.29 4.71,18.04 4.23,16.45 L2.75,16.45 C2.34,16.45 2,16.11 2,15.7 C2,15.28 2.34,14.95 2.75,14.95 L4,14.95 L4,12.75 L2.75,12.75 C2.34,12.75 2,12.41 2,12 C2,11.58 2.34,11.25 2.75,11.25 L4,11.25 L4,9.05 L2.75,9.05 C2.34,9.05 2,8.72 2,8.3 C2,7.89 2.34,7.55 2.75,7.55 L4.23,7.55 C4.71,5.96 5.96,4.71 7.56,4.22 L7.56,2.75 C7.56,2.34 7.89,2 8.31,2 C8.72,2 9.06,2.34 9.06,2.75 L9.06,4 L11.25,4 L11.25,2.75 C11.25,2.34 11.59,2 12,2 C12.41,2 12.75,2.34 12.75,2.75 L12.75,4 L14.95,4 L14.95,2.75 C14.95,2.34 15.29,2 15.7,2 C16.11,2 16.45,2.34 16.45,2.75 L16.45,4.23 C18.04,4.71 19.29,5.96 19.77,7.55 L21.25,7.55 C21.67,7.55 22,7.89 22,8.3 Z"/>
  <path fill="#292D32" d="M20.99,15.531 C20.31,15.531 19.92,15.191 19.92,14.691 C19.92,14.492 19.98,14.261 20.12,14.021 C20.4,13.541 20.23,12.921 19.75,12.652 L18.84,12.121 C18.42,11.871 17.88,12.021 17.63,12.441 L17.57,12.541 C17.09,13.371 16.31,13.371 15.83,12.541 L15.77,12.441 C15.53,12.021 14.98,11.871 14.57,12.121 L13.65,12.652 C13.33,12.832 13.14,13.171 13.14,13.521 C13.14,13.691 13.19,13.861 13.28,14.021 C13.42,14.261 13.49,14.492 13.49,14.691 C13.49,15.191 13.09,15.531 12.41,15.531 C11.86,15.531 11.4,15.982 11.4,16.532 L11.4,17.471 C11.4,18.021 11.86,18.471 12.41,18.471 C13.09,18.471 13.49,18.811 13.49,19.311 C13.49,19.512 13.42,19.741 13.28,19.982 C13,20.462 13.17,21.081 13.65,21.352 L14.57,21.881 C14.98,22.131 15.53,21.982 15.77,21.561 L15.83,21.462 C16.31,20.631 17.09,20.631 17.57,21.462 L17.63,21.561 C17.88,21.982 18.42,22.131 18.84,21.881 L19.75,21.352 C20.07,21.172 20.26,20.831 20.26,20.482 C20.26,20.311 20.21,20.142 20.12,19.982 C19.98,19.741 19.92,19.512 19.92,19.311 C19.92,18.811 20.31,18.471 20.99,18.471 C21.55,18.471 22,18.021 22,17.471 L22,16.532 C22,15.982 21.55,15.531 20.99,15.531 Z M16.7,18.721 C15.75,18.721 14.98,17.951 14.98,17.002 C14.98,16.052 15.75,15.281 16.7,15.281 C17.65,15.281 18.42,16.052 18.42,17.002 C18.42,17.951 17.65,18.721 16.7,18.721 Z"/>
  <path fill="#292D32" d="M16.25,10.02 L16.25,10.592 C16.25,10.927 15.805,11.138 15.48,11.06 C14.98,10.93 14.48,11 14.07,11.25 L13.16,11.78 C12.53,12.13 12.14,12.8 12.14,13.52 C12.14,13.58 12.143,13.64 12.148,13.7 C12.18,14.086 11.91,14.555 11.559,14.719 C11.077,14.945 10.698,15.358 10.517,15.862 C10.439,16.078 10.25,16.25 10.02,16.25 C8.76,16.25 7.75,15.24 7.75,13.98 L7.75,10.02 C7.75,8.76 8.76,7.75 10.02,7.75 L13.98,7.75 C15.24,7.75 16.25,8.76 16.25,10.02 Z"/>
</svg>

