<svg xmlns="http://www.w3.org/2000/svg" width="24" height="24" viewBox="0 0 24 24">
  <defs/>
  <path fill="#292D32" d="M9.6,20.75 C5.21,20.75 3.25,18.79 3.25,14.4 L3.25,9.6 C3.25,5.21 5.21,3.25 9.6,3.25 L14.4,3.25 C18.79,3.25 20.75,5.21 20.75,9.6 C20.75,10.01 20.41,10.35 20,10.35 C19.59,10.35 19.25,10.01 19.25,9.6 C19.25,6.02 17.98,4.75 14.4,4.75 L9.6,4.75 C6.02,4.75 4.75,6.02 4.75,9.6 L4.75,14.4 C4.75,17.98 6.02,19.25 9.6,19.25 C10.01,19.25 10.35,19.59 10.35,20 C10.35,20.41 10.01,20.75 9.6,20.75 Z"/>
  <path fill="#292D32" d="M7.99,17.1 C7.83,17.1 7.66,17.05 7.52,16.94 C6.65,16.25 6.24,15.15 6.24,13.5 L6.24,10.5 C6.24,7.6 7.59,6.25 10.49,6.25 L13.49,6.25 C15.14,6.25 16.23,6.66 16.93,7.53 C17.19,7.85 17.13,8.33 16.81,8.58 C16.49,8.84 16.01,8.79 15.76,8.46 C15.52,8.15 15.02,7.75 13.5,7.75 L10.5,7.75 C8.42,7.75 7.75,8.42 7.75,10.5 L7.75,13.5 C7.75,15.02 8.16,15.52 8.46,15.76 C8.78,16.02 8.84,16.49 8.58,16.81 C8.43,17 8.21,17.1 7.99,17.1 Z"/>
  <path fill="#292D32" d="M8.01,4.75 C7.59,4.75 7.26,4.41 7.26,4 L7.26,2 C7.26,1.59 7.6,1.25 8.01,1.25 C8.42,1.25 8.76,1.59 8.76,2 L8.76,4 C8.76,4.41 8.42,4.75 8.01,4.75 Z"/>
  <path fill="#292D32" d="M12,4.75 C11.59,4.75 11.25,4.41 11.25,4 L11.25,2 C11.25,1.59 11.59,1.25 12,1.25 C12.41,1.25 12.75,1.59 12.75,2 L12.75,4 C12.75,4.41 12.41,4.75 12,4.75 Z"/>
  <path fill="#292D32" d="M16,4.75 C15.59,4.75 15.25,4.41 15.25,4 L15.25,2 C15.25,1.59 15.59,1.25 16,1.25 C16.41,1.25 16.75,1.59 16.75,2 L16.75,4 C16.75,4.41 16.41,4.75 16,4.75 Z"/>
  <path fill="#292D32" d="M22,8.75 L20,8.75 C19.59,8.75 19.25,8.41 19.25,8 C19.25,7.59 19.59,7.25 20,7.25 L22,7.25 C22.41,7.25 22.75,7.59 22.75,8 C22.75,8.41 22.42,8.75 22,8.75 Z"/>
  <path fill="#292D32" d="M8.01,22.75 C7.6,22.75 7.26,22.41 7.26,22 L7.26,20 C7.26,19.59 7.6,19.25 8.01,19.25 C8.42,19.25 8.76,19.59 8.76,20 L8.76,22 C8.76,22.41 8.42,22.75 8.01,22.75 Z"/>
  <path fill="#292D32" d="M4,8.75 L2,8.75 C1.59,8.75 1.25,8.42 1.25,8 C1.25,7.58 1.59,7.25 2,7.25 L4,7.25 C4.41,7.25 4.75,7.59 4.75,8 C4.75,8.41 4.42,8.75 4,8.75 Z"/>
  <path fill="#292D32" d="M4,12.75 L2,12.75 C1.59,12.75 1.25,12.41 1.25,12 C1.25,11.59 1.59,11.25 2,11.25 L4,11.25 C4.41,11.25 4.75,11.59 4.75,12 C4.75,12.41 4.42,12.75 4,12.75 Z"/>
  <path fill="#292D32" d="M4,16.75 L2,16.75 C1.59,16.75 1.25,16.41 1.25,16 C1.25,15.59 1.59,15.25 2,15.25 L4,15.25 C4.41,15.25 4.75,15.59 4.75,16 C4.75,16.41 4.42,16.75 4,16.75 Z"/>
  <path fill="#292D32" d="M16.71,19.34 C15.42,19.34 14.37,18.29 14.37,17 C14.37,15.71 15.42,14.66 16.71,14.66 C18,14.66 19.05,15.71 19.05,17 C19.04,18.29 18,19.34 16.71,19.34 Z M16.71,16.16 C16.25,16.16 15.87,16.54 15.87,17 C15.87,17.46 16.25,17.84 16.71,17.84 C17.17,17.84 17.55,17.46 17.55,17 C17.54,16.54 17.17,16.16 16.71,16.16 Z"/>
  <path fill="#292D32" d="M18.4,22.75 C17.84,22.75 17.29,22.46 16.99,21.94 L16.92,21.83 C16.81,21.64 16.72,21.59 16.7,21.58 C16.69,21.58 16.59,21.64 16.48,21.83 L16.42,21.93 C15.96,22.72 14.95,22.98 14.18,22.52 L13.28,22 C12.87,21.77 12.58,21.39 12.46,20.93 C12.34,20.48 12.4,20 12.63,19.6 C12.74,19.41 12.74,19.3 12.73,19.28 C12.72,19.27 12.63,19.22 12.41,19.22 C11.44,19.22 10.65,18.43 10.65,17.47 L10.65,16.54 C10.65,15.57 11.44,14.79 12.4,14.79 C12.62,14.79 12.71,14.73 12.73,14.72 C12.73,14.71 12.73,14.6 12.62,14.41 C12.39,14 12.32,13.53 12.45,13.08 C12.57,12.63 12.86,12.25 13.27,12.01 L14.18,11.48 C14.94,11.03 15.95,11.29 16.4,12.07 L16.46,12.18 C16.57,12.37 16.66,12.42 16.68,12.43 C16.69,12.43 16.79,12.37 16.9,12.18 L16.96,12.08 C17.43,11.29 18.43,11.03 19.2,11.49 L20.13,12 C20.54,12.23 20.83,12.61 20.95,13.07 C21.07,13.52 21.01,14 20.78,14.4 C20.67,14.59 20.67,14.7 20.68,14.72 C20.69,14.73 20.78,14.78 21,14.78 C21.97,14.78 22.76,15.57 22.76,16.53 L22.76,17.46 C22.76,18.43 21.97,19.21 21.01,19.21 C20.79,19.21 20.7,19.27 20.68,19.28 C20.68,19.29 20.68,19.4 20.79,19.59 C21.02,20 21.09,20.47 20.96,20.92 C20.84,21.37 20.55,21.75 20.14,21.99 L19.23,22.52 C18.96,22.67 18.68,22.75 18.4,22.75 Z M16.71,20.08 C17.31,20.08 17.86,20.44 18.23,21.08 L18.29,21.19 C18.32,21.24 18.4,21.27 18.46,21.23 L19.38,20.7 C19.46,20.66 19.49,20.58 19.5,20.54 C19.51,20.5 19.52,20.43 19.48,20.35 C19.11,19.72 19.08,19.06 19.38,18.54 C19.68,18.02 20.27,17.72 21,17.72 C21.14,17.72 21.26,17.6 21.26,17.47 L21.26,16.54 C21.26,16.4 21.14,16.29 21.01,16.29 C20.28,16.29 19.68,15.99 19.39,15.47 C19.09,14.95 19.13,14.29 19.49,13.66 C19.54,13.58 19.53,13.5 19.51,13.47 C19.5,13.43 19.47,13.36 19.39,13.31 L18.48,12.78 C18.41,12.74 18.33,12.77 18.29,12.83 L18.24,12.92 C17.87,13.56 17.32,13.92 16.72,13.92 C16.12,13.92 15.57,13.56 15.2,12.92 L15.14,12.82 C15.11,12.76 15.02,12.74 14.97,12.77 L14.05,13.3 C13.97,13.34 13.94,13.42 13.93,13.46 C13.92,13.5 13.91,13.57 13.95,13.65 C14.32,14.28 14.35,14.94 14.05,15.46 C13.75,15.98 13.16,16.28 12.43,16.28 C12.29,16.28 12.17,16.4 12.17,16.53 L12.17,17.46 C12.17,17.6 12.29,17.71 12.42,17.71 C13.15,17.71 13.75,18.01 14.04,18.53 C14.34,19.05 14.3,19.71 13.94,20.34 C13.9,20.42 13.91,20.49 13.92,20.53 C13.93,20.57 13.96,20.64 14.04,20.69 L14.95,21.22 C15.02,21.26 15.1,21.23 15.14,21.17 L15.19,21.07 C15.55,20.44 16.11,20.08 16.71,20.08 Z"/>
</svg>

