<svg xmlns="http://www.w3.org/2000/svg" width="24" height="24" viewBox="0 0 24 24">
  <defs/>
  <path fill="#292D32" d="M11.369,14.718 Q10.323,15.62 8.989,15.62 Q5.369,15.62 5.369,12 Q5.369,10.497 6.428,9.438 Q7.486,8.38 8.989,8.38 Q10.367,8.38 11.381,9.292 Q11.612,9.5 11.628,9.81 Q11.644,10.121 11.437,10.352 Q11.229,10.582 10.919,10.599 Q10.608,10.615 10.377,10.407 Q9.791,9.88 8.989,9.88 Q8.107,9.88 7.488,10.499 Q6.869,11.118 6.869,12 Q6.869,14.12 8.989,14.12 Q9.766,14.12 10.389,13.582 Q10.624,13.379 10.934,13.402 Q11.244,13.425 11.447,13.66 Q11.65,13.895 11.627,14.205 Q11.604,14.515 11.369,14.718 Z"/>
  <path fill="#292D32" d="M18.369,14.718 Q17.323,15.62 15.989,15.62 Q12.369,15.62 12.369,12 Q12.369,10.497 13.428,9.438 Q14.486,8.38 15.989,8.38 Q17.367,8.38 18.381,9.292 Q18.612,9.5 18.628,9.81 Q18.644,10.121 18.437,10.352 Q18.229,10.582 17.919,10.599 Q17.608,10.615 17.377,10.407 Q16.791,9.88 15.989,9.88 Q15.107,9.88 14.488,10.499 Q13.869,11.118 13.869,12 Q13.869,12.879 14.491,13.5 Q15.113,14.12 15.989,14.12 Q16.766,14.12 17.389,13.582 Q17.624,13.379 17.934,13.402 Q18.244,13.425 18.447,13.66 Q18.65,13.895 18.627,14.205 Q18.604,14.515 18.369,14.718 Z"/>
  <path fill="#292D32" d="M4.6,6.449 Q2.75,8.922 2.75,12 Q2.75,15.829 5.46,18.54 Q8.171,21.25 12,21.25 Q15.829,21.25 18.54,18.54 Q21.25,15.829 21.25,12 Q21.25,8.171 18.54,5.46 Q15.829,2.75 12,2.75 Q10.031,2.75 8.276,3.535 Q7.993,3.661 7.702,3.551 Q7.412,3.44 7.285,3.156 Q7.158,2.873 7.269,2.582 Q7.38,2.292 7.664,2.165 Q9.711,1.25 12,1.25 Q16.451,1.25 19.6,4.4 Q22.75,7.549 22.75,12 Q22.75,16.451 19.6,19.6 Q16.451,22.75 12,22.75 Q7.549,22.75 4.4,19.6 Q1.25,16.451 1.25,12 Q1.25,8.422 3.4,5.551 Q3.586,5.302 3.893,5.258 Q4.201,5.213 4.449,5.4 Q4.698,5.586 4.742,5.893 Q4.787,6.201 4.6,6.449 Z"/>
</svg>

