<svg xmlns="http://www.w3.org/2000/svg" width="24" height="24" viewBox="0 0 24 24">
  <defs/>
  <path fill="#292D32" opacity="0.4" d="M12,22 C6.48,22 2,17.52 2,12 C2,6.48 6.48,2 12,2 C17.52,2 22,6.48 22,12 C22,17.52 17.52,22 12,22 Z"/>
  <path fill="#292D32" d="M8.989,15.62 C6.989,15.62 5.369,14 5.369,12 C5.369,10 6.989,8.38 8.989,8.38 C9.869,8.38 10.709,8.7 11.379,9.28 C11.689,9.55 11.719,10.03 11.449,10.34 C11.179,10.65 10.699,10.68 10.389,10.41 C9.999,10.07 9.509,9.88 8.989,9.88 C7.819,9.88 6.869,10.83 6.869,12 C6.869,13.17 7.819,14.12 8.989,14.12 C9.499,14.12 9.999,13.93 10.389,13.59 C10.699,13.32 11.179,13.35 11.449,13.66 C11.719,13.97 11.689,14.45 11.379,14.72 C10.709,15.3 9.859,15.62 8.989,15.62 Z"/>
  <path fill="#292D32" d="M15.989,15.62 C13.989,15.62 12.369,14 12.369,12 C12.369,10 13.989,8.38 15.989,8.38 C16.869,8.38 17.709,8.7 18.379,9.28 C18.689,9.55 18.719,10.03 18.449,10.34 C18.179,10.65 17.699,10.68 17.389,10.41 C16.999,10.07 16.509,9.88 15.989,9.88 C14.819,9.88 13.869,10.83 13.869,12 C13.869,13.17 14.819,14.12 15.989,14.12 C16.499,14.12 16.999,13.93 17.389,13.59 C17.699,13.32 18.179,13.35 18.449,13.66 C18.719,13.97 18.689,14.45 18.379,14.72 C17.709,15.3 16.859,15.62 15.989,15.62 Z"/>
</svg>

