<svg xmlns="http://www.w3.org/2000/svg" width="24" height="24" viewBox="0 0 24 24">
  <defs/>
  <path fill="#292D32" d="M12,22.75 C6.07,22.75 1.25,17.93 1.25,12 C1.25,6.07 6.07,1.25 12,1.25 C17.93,1.25 22.75,6.07 22.75,12 C22.75,17.93 17.93,22.75 12,22.75 Z M12,2.75 C6.9,2.75 2.75,6.9 2.75,12 C2.75,17.1 6.9,21.25 12,21.25 C17.1,21.25 21.25,17.1 21.25,12 C21.25,6.9 17.1,2.75 12,2.75 Z"/>
  <path fill="#292D32" d="M8.991,15.62 C6.991,15.62 5.371,14 5.371,12 C5.371,10 6.991,8.38 8.991,8.38 C9.871,8.38 10.711,8.7 11.381,9.28 C11.691,9.55 11.721,10.03 11.451,10.34 C11.181,10.65 10.701,10.68 10.391,10.41 C10.001,10.07 9.511,9.88 8.991,9.88 C7.821,9.88 6.871,10.83 6.871,12 C6.871,13.17 7.821,14.12 8.991,14.12 C9.501,14.12 10.001,13.93 10.391,13.59 C10.701,13.32 11.171,13.35 11.451,13.66 C11.721,13.97 11.691,14.45 11.381,14.72 C10.711,15.3 9.861,15.62 8.991,15.62 Z"/>
  <path fill="#292D32" d="M15.991,15.62 C13.991,15.62 12.371,14 12.371,12 C12.371,10 13.991,8.38 15.991,8.38 C16.871,8.38 17.711,8.7 18.381,9.28 C18.691,9.55 18.721,10.03 18.451,10.34 C18.181,10.65 17.701,10.68 17.391,10.41 C17.001,10.07 16.511,9.88 15.991,9.88 C14.821,9.88 13.871,10.83 13.871,12 C13.871,13.17 14.821,14.12 15.991,14.12 C16.501,14.12 17.001,13.93 17.391,13.59 C17.701,13.32 18.171,13.35 18.451,13.66 C18.721,13.97 18.691,14.45 18.381,14.72 C17.711,15.3 16.861,15.62 15.991,15.62 Z"/>
</svg>

