<svg xmlns="http://www.w3.org/2000/svg" width="24" height="24" viewBox="0 0 24 24">
  <defs/>
  <path fill="#292D32" d="M5.53,2 C5.11,2 4.78,2.34 4.78,2.75 L4.78,4.78 L2.75,4.78 C2.34,4.78 2,5.11 2,5.53 C2,5.95 2.34,6.28 2.75,6.28 L5.53,6.28 C5.94,6.28 6.28,5.94 6.28,5.53 L6.28,2.75 C6.28,2.34 5.94,2 5.53,2 Z"/>
  <path fill="#292D32" d="M21.251,17.719 L18.471,17.719 C18.061,17.719 17.721,18.059 17.721,18.469 L17.721,21.249 C17.721,21.659 18.061,21.999 18.471,21.999 C18.881,21.999 19.221,21.659 19.221,21.249 L19.221,19.219 L21.251,19.219 C21.661,19.219 22.001,18.879 22.001,18.469 C22.001,18.059 21.661,17.719 21.251,17.719 Z"/>
  <path fill="#292D32" d="M16.72,18.47 C16.72,17.51 17.51,16.72 18.47,16.72 L19.16,16.72 L19.16,10.05 C19.16,7.16 16.82,4.82 13.93,4.82 L7.28,4.82 L7.28,5.51 C7.28,6.47 6.49,7.26 5.53,7.26 L4.83,7.26 L4.83,13.93 C4.83,16.82 7.17,19.16 10.06,19.16 L16.73,19.16 L16.73,18.47 L16.72,18.47 Z"/>
</svg>

