<svg xmlns="http://www.w3.org/2000/svg" width="24" height="24" viewBox="0 0 24 24">
  <defs/>
  <path fill="#292D32" d="M9.9,19.75 Q6.664,19.75 5.457,18.543 Q4.25,17.336 4.25,14.1 L4.25,5 Q4.25,4.689 4.47,4.47 Q4.689,4.25 5,4.25 L14.1,4.25 Q17.336,4.25 18.543,5.457 Q19.75,6.664 19.75,9.9 L19.75,19 Q19.75,19.311 19.53,19.53 Q19.311,19.75 19,19.75 Z M9.9,18.25 L18.25,18.25 L18.25,9.9 Q18.25,7.286 17.482,6.518 Q16.714,5.75 14.1,5.75 L5.75,5.75 L5.75,14.1 Q5.75,16.714 6.518,17.482 Q7.286,18.25 9.9,18.25 Z"/>
  <path fill="#292D32" d="M4.25,5 L4.25,2 Q4.25,1.689 4.47,1.47 Q4.689,1.25 5,1.25 Q5.311,1.25 5.53,1.47 Q5.75,1.689 5.75,2 L5.75,5 Q5.75,5.311 5.53,5.53 Q5.311,5.75 5,5.75 Q4.689,5.75 4.47,5.53 Q4.25,5.311 4.25,5 Z"/>
  <path fill="#292D32" d="M5,5.75 L2,5.75 Q1.689,5.75 1.47,5.53 Q1.25,5.311 1.25,5 Q1.25,4.689 1.47,4.47 Q1.689,4.25 2,4.25 L5,4.25 Q5.311,4.25 5.53,4.47 Q5.75,4.689 5.75,5 Q5.75,5.311 5.53,5.53 Q5.311,5.75 5,5.75 Z"/>
  <path fill="#292D32" d="M19.75,19 L19.75,22 Q19.75,22.311 19.53,22.53 Q19.311,22.75 19,22.75 Q18.689,22.75 18.47,22.53 Q18.25,22.311 18.25,22 L18.25,19 Q18.25,18.689 18.47,18.47 Q18.689,18.25 19,18.25 Q19.311,18.25 19.53,18.47 Q19.75,18.689 19.75,19 Z"/>
  <path fill="#292D32" d="M19,18.25 L22,18.25 Q22.311,18.25 22.53,18.47 Q22.75,18.689 22.75,19 Q22.75,19.311 22.53,19.53 Q22.311,19.75 22,19.75 L19,19.75 Q18.689,19.75 18.47,19.53 Q18.25,19.311 18.25,19 Q18.25,18.689 18.47,18.47 Q18.689,18.25 19,18.25 Z"/>
</svg>

