<svg xmlns="http://www.w3.org/2000/svg" width="24" height="24" viewBox="0 0 24 24">
  <defs/>
  <path fill="#292D32" d="M19,19.75 L9.9,19.75 C5.57,19.75 4.25,18.43 4.25,14.1 L4.25,5 C4.25,4.59 4.59,4.25 5,4.25 L14.1,4.25 C18.43,4.25 19.75,5.57 19.75,9.9 L19.75,19 C19.75,19.41 19.41,19.75 19,19.75 Z M5.75,5.75 L5.75,14.1 C5.75,17.59 6.41,18.25 9.9,18.25 L18.25,18.25 L18.25,9.9 C18.25,6.41 17.59,5.75 14.1,5.75 L5.75,5.75 Z"/>
  <path fill="#292D32" d="M5,5.75 C4.59,5.75 4.25,5.41 4.25,5 L4.25,2 C4.25,1.59 4.59,1.25 5,1.25 C5.41,1.25 5.75,1.59 5.75,2 L5.75,5 C5.75,5.41 5.41,5.75 5,5.75 Z"/>
  <path fill="#292D32" d="M5,5.75 L2,5.75 C1.59,5.75 1.25,5.41 1.25,5 C1.25,4.59 1.59,4.25 2,4.25 L5,4.25 C5.41,4.25 5.75,4.59 5.75,5 C5.75,5.41 5.41,5.75 5,5.75 Z"/>
  <path fill="#292D32" d="M19,22.75 C18.59,22.75 18.25,22.41 18.25,22 L18.25,19 C18.25,18.59 18.59,18.25 19,18.25 C19.41,18.25 19.75,18.59 19.75,19 L19.75,22 C19.75,22.41 19.41,22.75 19,22.75 Z"/>
  <path fill="#292D32" d="M22,19.75 L19,19.75 C18.59,19.75 18.25,19.41 18.25,19 C18.25,18.59 18.59,18.25 19,18.25 L22,18.25 C22.41,18.25 22.75,18.59 22.75,19 C22.75,19.41 22.41,19.75 22,19.75 Z"/>
</svg>

