<svg xmlns="http://www.w3.org/2000/svg" width="24" height="24" viewBox="0 0 24 24">
  <defs/>
  <path fill="#292D32" opacity="0.4" d="M13.94,4.83 L6.83,4.83 C5.73,4.83 4.83,5.73 4.83,6.83 L4.83,13.94 C4.83,16.83 7.17,19.17 10.06,19.17 L17.17,19.17 C18.27,19.17 19.17,18.27 19.17,17.17 L19.17,10.06 C19.17,7.17 16.83,4.83 13.94,4.83 Z"/>
  <path fill="#292D32" d="M5.53,2 C5.11,2 4.78,2.34 4.78,2.75 L4.78,4.78 L2.75,4.78 C2.34,4.78 2,5.11 2,5.53 C2,5.95 2.34,6.28 2.75,6.28 L5.53,6.28 C5.94,6.28 6.28,5.94 6.28,5.53 L6.28,2.75 C6.28,2.34 5.94,2 5.53,2 Z"/>
  <path fill="#292D32" d="M21.251,17.72 L18.471,17.72 C18.061,17.72 17.721,18.06 17.721,18.47 L17.721,21.25 C17.721,21.66 18.061,22 18.471,22 C18.881,22 19.221,21.66 19.221,21.25 L19.221,19.22 L21.251,19.22 C21.661,19.22 22.001,18.88 22.001,18.47 C22.001,18.06 21.661,17.72 21.251,17.72 Z"/>
</svg>

