<svg xmlns="http://www.w3.org/2000/svg" width="24" height="24" viewBox="0 0 24 24">
  <defs/>
  <path fill="#292D32" d="M17,21.04 L7,21.04 C3.83,21.04 1.25,18.46 1.25,15.29 L1.25,5.71 C1.25,4.41 1.85,3.96 2.21,3.81 C2.57,3.66 3.31,3.55 4.23,4.47 L6.82,7.06 C6.92,7.16 7.08,7.16 7.17,7.06 L10.76,3.47 C11.42,2.81 12.58,2.81 13.23,3.47 L16.82,7.06 C16.92,7.16 17.08,7.16 17.17,7.06 L19.76,4.47 C20.68,3.55 21.42,3.67 21.78,3.81 C22.14,3.96 22.74,4.4 22.74,5.71 L22.74,15.3 C22.75,18.73 20.44,21.04 17,21.04 Z M2.81,5.24 C2.78,5.32 2.75,5.47 2.75,5.71 L2.75,15.3 C2.75,17.64 4.66,19.55 7,19.55 L17,19.55 C19.58,19.55 21.25,17.88 21.25,15.3 L21.25,5.71 C21.25,5.47 21.22,5.33 21.19,5.25 C21.11,5.29 20.99,5.37 20.82,5.54 L18.23,8.13 C17.57,8.79 16.41,8.79 15.76,8.13 L12.17,4.54 C12.07,4.44 11.91,4.44 11.82,4.54 L8.24,8.12 C7.58,8.78 6.42,8.78 5.77,8.12 L3.18,5.53 C3.01,5.36 2.88,5.28 2.81,5.24 Z"/>
</svg>

