<svg xmlns="http://www.w3.org/2000/svg" width="24" height="24" viewBox="0 0 24 24">
  <defs/>
  <path fill="#292D32" d="M16.7,19.73 L7.3,19.73 Q5.993,19.73 5.562,18.498 L1.424,6.922 Q0.797,5.158 1.686,4.49 Q2.574,3.823 4.088,4.911 L7.986,7.7 Q8.165,7.823 8.304,7.781 Q8.44,7.739 8.52,7.531 L10.278,2.846 Q10.879,1.235 12.005,1.235 Q13.131,1.235 13.733,2.848 L15.492,7.536 Q15.57,7.739 15.706,7.781 Q15.84,7.822 16.019,7.696 L19.675,5.089 Q21.291,3.929 22.222,4.633 Q23.15,5.335 22.487,7.21 L18.446,18.522 Q18.442,18.534 18.438,18.545 Q17.97,19.73 16.7,19.73 Z M16.7,18.23 Q16.945,18.23 17.039,18.004 L21.073,6.71 Q21.37,5.869 21.318,5.829 Q21.268,5.792 20.545,6.311 L16.881,8.924 Q16.101,9.472 15.264,9.214 Q14.431,8.957 14.088,8.063 L12.327,3.372 Q12.089,2.735 12.005,2.735 Q11.921,2.735 11.682,3.373 L9.92,8.069 Q9.579,8.958 8.744,9.214 Q7.909,9.471 7.114,8.92 L3.212,6.129 Q2.594,5.685 2.587,5.69 Q2.579,5.695 2.836,6.418 L6.978,18.002 Q7.058,18.23 7.3,18.23 Z"/>
  <path fill="#292D32" d="M6.5,21.25 L17.5,21.25 Q17.811,21.25 18.03,21.47 Q18.25,21.689 18.25,22 Q18.25,22.311 18.03,22.53 Q17.811,22.75 17.5,22.75 L6.5,22.75 Q6.189,22.75 5.97,22.53 Q5.75,22.311 5.75,22 Q5.75,21.689 5.97,21.47 Q6.189,21.25 6.5,21.25 Z"/>
  <path fill="#292D32" d="M9.5,13.25 L14.5,13.25 Q14.811,13.25 15.03,13.47 Q15.25,13.689 15.25,14 Q15.25,14.311 15.03,14.53 Q14.811,14.75 14.5,14.75 L9.5,14.75 Q9.189,14.75 8.97,14.53 Q8.75,14.311 8.75,14 Q8.75,13.689 8.97,13.47 Q9.189,13.25 9.5,13.25 Z"/>
</svg>

