<svg xmlns="http://www.w3.org/2000/svg" width="24" height="24" viewBox="0 0 24 24">
  <defs/>
  <path fill="#292D32" d="M1.25,15.29 L1.25,5.71 Q1.25,4.212 2.215,3.811 Q3.181,3.41 4.24,4.47 L6.83,7.06 Q6.903,7.133 7.009,7.133 Q7.109,7.133 7.173,7.067 L10.759,3.47 Q11.272,2.958 11.999,2.958 Q12.731,2.958 13.237,3.477 L16.82,7.06 Q16.893,7.133 16.999,7.133 Q17.099,7.133 17.163,7.067 L19.76,4.47 Q20.819,3.41 21.785,3.811 Q22.75,4.212 22.75,5.71 L22.75,15.3 Q22.75,17.861 21.155,19.455 Q19.561,21.05 17,21.05 L7,21.05 Q4.617,21.041 2.934,19.356 Q1.25,17.67 1.25,15.29 Z M2.75,15.29 Q2.75,17.049 3.996,18.296 Q5.241,19.544 7,19.55 L17,19.55 Q18.939,19.55 20.095,18.395 Q21.25,17.239 21.25,15.3 L21.25,5.71 Q21.25,5.213 21.21,5.196 Q21.171,5.18 20.82,5.53 L18.237,8.113 Q17.731,8.633 16.999,8.633 Q16.272,8.633 15.76,8.12 L12.163,4.523 Q12.099,4.458 11.999,4.458 Q11.893,4.458 11.821,4.53 L8.247,8.113 Q7.741,8.633 7.009,8.633 Q6.282,8.633 5.77,8.12 L3.18,5.53 Q2.829,5.18 2.79,5.196 Q2.75,5.213 2.75,5.71 Z"/>
</svg>

