<svg xmlns="http://www.w3.org/2000/svg" width="24" height="24" viewBox="0 0 24 24">
  <defs/>
  <path fill="#292D32" d="M17,22 L7,22 C6.59,22 6.25,21.66 6.25,21.25 C6.25,20.84 6.59,20.5 7,20.5 L17,20.5 C17.41,20.5 17.75,20.84 17.75,21.25 C17.75,21.66 17.41,22 17,22 Z"/>
  <path fill="#292D32" d="M20.35,5.519 L16.35,8.379 C15.82,8.759 15.06,8.529 14.83,7.919 L12.94,2.879 C12.62,2.009 11.39,2.009 11.07,2.879 L9.17,7.909 C8.94,8.529 8.19,8.759 7.66,8.369 L3.66,5.509 C2.86,4.949 1.8,5.739 2.13,6.669 L6.29,18.319 C6.43,18.719 6.81,18.979 7.23,18.979 L16.76,18.979 C17.18,18.979 17.56,18.709 17.7,18.319 L21.86,6.669 C22.2,5.739 21.14,4.949 20.35,5.519 Z M14.5,14.749 L9.5,14.749 C9.09,14.749 8.75,14.409 8.75,13.999 C8.75,13.589 9.09,13.249 9.5,13.249 L14.5,13.249 C14.91,13.249 15.25,13.589 15.25,13.999 C15.25,14.409 14.91,14.749 14.5,14.749 Z"/>
</svg>

