<svg xmlns="http://www.w3.org/2000/svg" width="24" height="24" viewBox="0 0 24 24">
  <defs/>
  <path fill="#292D32" opacity="0.4" d="M16.77,18.98 L7.23,18.98 C6.81,18.98 6.43,18.71 6.29,18.32 L2.13,6.67 C1.8,5.74 2.86,4.95 3.65,5.52 L7.65,8.38 C8.18,8.76 8.94,8.53 9.17,7.92 L11.06,2.88 C11.38,2.01 12.61,2.01 12.93,2.88 L14.82,7.92 C15.05,8.54 15.8,8.76 16.34,8.38 L20.34,5.52 C21.14,4.95 22.19,5.75 21.86,6.67 L17.7,18.32 C17.57,18.71 17.19,18.98 16.77,18.98 Z"/>
  <path fill="#292D32" d="M17,22 L7,22 C6.59,22 6.25,21.66 6.25,21.25 C6.25,20.84 6.59,20.5 7,20.5 L17,20.5 C17.41,20.5 17.75,20.84 17.75,21.25 C17.75,21.66 17.41,22 17,22 Z"/>
  <path fill="#292D32" d="M14.5,14.75 L9.5,14.75 C9.09,14.75 8.75,14.41 8.75,14 C8.75,13.59 9.09,13.25 9.5,13.25 L14.5,13.25 C14.91,13.25 15.25,13.59 15.25,14 C15.25,14.41 14.91,14.75 14.5,14.75 Z"/>
</svg>

