<svg xmlns="http://www.w3.org/2000/svg" width="24" height="24" viewBox="0 0 24 24">
  <defs/>
  <path fill="#292D32" d="M22,5.71 L22,15.29 C22,18.049 19.76,20.29 17,20.29 L7,20.29 C6.54,20.29 6.1,20.23 5.67,20.11 C5.05,19.939 4.85,19.149 5.31,18.689 L15.94,8.06 C16.16,7.84 16.49,7.79 16.8,7.85 C17.12,7.91 17.47,7.82 17.72,7.58 L20.29,5 C21.23,4.06 22,4.37 22,5.71 Z"/>
  <path fill="#292D32" d="M14.64,7.36 L4.17,17.829 C3.69,18.309 2.89,18.189 2.57,17.59 C2.2,16.91 2,16.119 2,15.29 L2,5.71 C2,4.37 2.77,4.06 3.71,5 L6.29,7.59 C6.68,7.97 7.32,7.97 7.71,7.59 L11.29,4 C11.68,3.61 12.32,3.61 12.71,4 L14.65,5.94 C15.03,6.33 15.03,6.97 14.64,7.36 Z"/>
</svg>

