<svg xmlns="http://www.w3.org/2000/svg" width="24" height="24" viewBox="0 0 24 24">
  <defs/>
  <path fill="#292D32" d="M19.662,5.081 Q21.28,3.919 22.212,4.623 Q23.139,5.325 22.476,7.2 L18.435,18.512 Q18.006,19.74 16.699,19.74 L7.299,19.74 Q5.993,19.74 5.561,18.508 L1.423,6.922 Q0.796,5.158 1.685,4.49 Q2.573,3.824 4.087,4.911 L7.986,7.7 Q8.164,7.823 8.303,7.781 Q8.44,7.739 8.519,7.532 L10.277,2.847 Q10.879,1.235 12.004,1.235 Q13.13,1.235 13.732,2.848 L15.491,7.537 Q15.569,7.739 15.705,7.781 Q15.839,7.822 16.018,7.697 L16.643,7.25 Q16.896,7.069 17.202,7.12 Q17.509,7.171 17.689,7.424 Q17.87,7.677 17.819,7.983 Q17.768,8.29 17.515,8.47 L16.881,8.924 Q16.1,9.472 15.263,9.214 Q14.43,8.957 14.087,8.064 L12.327,3.372 Q12.089,2.735 12.004,2.735 Q11.92,2.735 11.681,3.374 L9.919,8.069 Q9.578,8.958 8.743,9.215 Q7.908,9.471 7.113,8.92 L3.212,6.129 Q2.593,5.685 2.586,5.69 Q2.579,5.695 2.836,6.418 L6.977,18.012 Q7.057,18.24 7.299,18.24 L16.699,18.24 Q16.942,18.24 17.023,18.008 L21.062,6.7 Q21.359,5.859 21.307,5.82 Q21.257,5.782 20.537,6.299 Q20.284,6.481 19.978,6.43 Q19.671,6.38 19.49,6.128 Q19.309,5.875 19.359,5.569 Q19.409,5.262 19.662,5.081 Z"/>
  <path fill="#292D32" d="M6.5,21.25 L17.5,21.25 Q17.811,21.25 18.03,21.47 Q18.25,21.689 18.25,22 Q18.25,22.311 18.03,22.53 Q17.811,22.75 17.5,22.75 L6.5,22.75 Q6.189,22.75 5.97,22.53 Q5.75,22.311 5.75,22 Q5.75,21.689 5.97,21.47 Q6.189,21.25 6.5,21.25 Z"/>
  <path fill="#292D32" d="M9.5,13.25 L14.5,13.25 Q14.811,13.25 15.03,13.47 Q15.25,13.689 15.25,14 Q15.25,14.311 15.03,14.53 Q14.811,14.75 14.5,14.75 L9.5,14.75 Q9.189,14.75 8.97,14.53 Q8.75,14.311 8.75,14 Q8.75,13.689 8.97,13.47 Q9.189,13.25 9.5,13.25 Z"/>
</svg>

