<svg xmlns="http://www.w3.org/2000/svg" width="24" height="24" viewBox="0 0 24 24">
  <defs/>
  <path fill="#292D32" d="M16.7,19.73 L7.3,19.73 C6.56,19.73 5.81,19.2 5.56,18.51 L1.42,6.92 C0.91,5.46 1.28,4.79 1.68,4.49 C2.08,4.19 2.83,4.01 4.09,4.91 L7.99,7.7 C8.11,7.77 8.22,7.8 8.3,7.78 C8.39,7.75 8.46,7.67 8.51,7.53 L10.27,2.84 C10.8,1.44 11.58,1.23 12,1.23 C12.42,1.23 13.2,1.44 13.73,2.84 L15.49,7.53 C15.54,7.66 15.61,7.75 15.7,7.78 C15.79,7.81 15.9,7.78 16.01,7.69 L19.67,5.08 C21.01,4.12 21.79,4.31 22.22,4.62 C22.64,4.94 23.03,5.65 22.48,7.2 L18.44,18.51 C18.19,19.2 17.44,19.73 16.7,19.73 Z M2.68,5.81 C2.7,5.95 2.74,6.15 2.84,6.41 L6.98,18 C7.02,18.1 7.2,18.23 7.3,18.23 L16.7,18.23 C16.81,18.23 16.99,18.1 17.02,18 L21.06,6.7 C21.2,6.32 21.24,6.06 21.25,5.91 C21.1,5.96 20.87,6.07 20.54,6.31 L16.88,8.92 C16.38,9.27 15.79,9.38 15.26,9.22 C14.73,9.06 14.3,8.64 14.08,8.07 L12.32,3.38 C12.19,3.03 12.07,2.86 12,2.78 C11.93,2.86 11.81,3.03 11.68,3.37 L9.92,8.06 C9.71,8.63 9.28,9.05 8.74,9.21 C8.21,9.37 7.61,9.26 7.12,8.91 L3.22,6.12 C2.99,5.96 2.81,5.86 2.68,5.81 Z"/>
  <path fill="#292D32" d="M17.5,22.75 L6.5,22.75 C6.09,22.75 5.75,22.41 5.75,22 C5.75,21.59 6.09,21.25 6.5,21.25 L17.5,21.25 C17.91,21.25 18.25,21.59 18.25,22 C18.25,22.41 17.91,22.75 17.5,22.75 Z"/>
  <path fill="#292D32" d="M14.5,14.75 L9.5,14.75 C9.09,14.75 8.75,14.41 8.75,14 C8.75,13.59 9.09,13.25 9.5,13.25 L14.5,13.25 C14.91,13.25 15.25,13.59 15.25,14 C15.25,14.41 14.91,14.75 14.5,14.75 Z"/>
</svg>

