<svg xmlns="http://www.w3.org/2000/svg" width="24" height="24" viewBox="0 0 24 24">
  <defs/>
  <path fill="#292D32" d="M12.15,19.35 C11.74,19.35 11.4,19.01 11.4,18.6 L11.4,16.5 C11.4,16.09 11.74,15.75 12.15,15.75 C12.56,15.75 12.9,16.09 12.9,16.5 L12.9,18.6 C12.9,19.01 12.56,19.35 12.15,19.35 Z"/>
  <path fill="#292D32" d="M17.9,22.75 L6.4,22.75 L6.4,21 C6.4,19.48 7.63,18.25 9.15,18.25 L15.15,18.25 C16.67,18.25 17.9,19.48 17.9,21 L17.9,22.75 Z M7.9,21.25 L16.4,21.25 L16.4,21 C16.4,20.31 15.84,19.75 15.15,19.75 L9.15,19.75 C8.46,19.75 7.9,20.31 7.9,21 L7.9,21.25 Z"/>
  <path fill="#292D32" d="M18.15,22.75 L6.15,22.75 C5.74,22.75 5.4,22.41 5.4,22 C5.4,21.59 5.74,21.25 6.15,21.25 L18.15,21.25 C18.56,21.25 18.9,21.59 18.9,22 C18.9,22.41 18.56,22.75 18.15,22.75 Z"/>
  <path fill="#292D32" d="M18.431,12.44 C18.221,12.44 18.011,12.35 17.861,12.18 C17.671,11.96 17.621,11.65 17.741,11.39 C18.081,10.61 18.251,9.78 18.251,8.91 L18.251,5.91 C18.251,5.56 18.191,5.22 18.071,4.86 C18.061,4.83 18.051,4.79 18.041,4.75 C18.011,4.6 18.001,4.45 18.001,4.31 C18.001,3.9 18.341,3.56 18.751,3.56 L19.351,3.56 C21.141,3.56 22.601,5.06 22.601,6.91 C22.601,8.44 21.971,9.95 20.881,11.04 C20.861,11.06 20.801,11.11 20.791,11.12 C20.201,11.61 19.531,12.16 18.631,12.41 C18.561,12.43 18.501,12.44 18.431,12.44 Z M19.681,5.09 C19.731,5.36 19.751,5.64 19.751,5.91 L19.751,8.91 C19.751,9.32 19.721,9.71 19.661,10.11 C19.721,10.06 19.771,10.02 19.831,9.97 C20.631,9.17 21.101,8.05 21.101,6.91 C21.101,6.01 20.491,5.25 19.681,5.09 Z"/>
  <path fill="#292D32" d="M5.58,12.4 C5.5,12.4 5.43,12.39 5.35,12.36 C4.53,12.1 3.76,11.62 3.12,10.98 C1.97,9.71 1.4,8.32 1.4,6.85 C1.4,5.03 2.83,3.6 4.65,3.6 L5.3,3.6 C5.55,3.6 5.79,3.73 5.93,3.94 C6.07,4.15 6.09,4.42 5.99,4.65 C5.83,5.01 5.75,5.42 5.75,5.85 L5.75,8.85 C5.75,9.71 5.92,10.55 6.27,11.35 C6.39,11.62 6.33,11.93 6.14,12.15 C5.99,12.31 5.79,12.4 5.58,12.4 Z M4.3,5.13 C3.49,5.29 2.9,5.99 2.9,6.85 C2.9,7.94 3.34,8.99 4.21,9.95 C4.25,10 4.3,10.04 4.35,10.08 C4.28,9.67 4.25,9.26 4.25,8.85 L4.25,5.85 C4.25,5.61 4.27,5.37 4.3,5.13 Z"/>
  <path fill="#292D32" d="M12,16.75 C7.73,16.75 4.25,13.27 4.25,9 L4.25,6 C4.25,3.38 6.38,1.25 9,1.25 L15,1.25 C17.62,1.25 19.75,3.38 19.75,6 L19.75,9 C19.75,13.27 16.27,16.75 12,16.75 Z M9,2.75 C7.21,2.75 5.75,4.21 5.75,6 L5.75,9 C5.75,12.45 8.55,15.25 12,15.25 C15.45,15.25 18.25,12.45 18.25,9 L18.25,6 C18.25,4.21 16.79,2.75 15,2.75 L9,2.75 Z"/>
</svg>

