<svg xmlns="http://www.w3.org/2000/svg" width="24" height="24" viewBox="0 0 24 24">
  <defs/>
  <path fill="#292D32" d="M12.9,16.5 L12.9,18.6 Q12.9,18.911 12.68,19.13 Q12.461,19.35 12.15,19.35 Q11.839,19.35 11.62,19.13 Q11.4,18.911 11.4,18.6 L11.4,16.5 Q11.4,16.189 11.62,15.97 Q11.839,15.75 12.15,15.75 Q12.461,15.75 12.68,15.97 Q12.9,16.189 12.9,16.5 Z"/>
  <path fill="#292D32" d="M6.4,22.75 L6.4,21 Q6.4,18.25 9.15,18.25 L15.15,18.25 Q17.9,18.25 17.9,21 L17.9,22.75 Z M7.9,21.25 L16.4,21.25 L16.4,21 Q16.4,19.75 15.15,19.75 L9.15,19.75 Q8.636,19.75 8.268,20.118 Q7.9,20.486 7.9,21 L7.9,21.25 Z"/>
  <path fill="#292D32" d="M6.15,21.25 L18.15,21.25 Q18.461,21.25 18.68,21.47 Q18.9,21.689 18.9,22 Q18.9,22.311 18.68,22.53 Q18.461,22.75 18.15,22.75 L6.15,22.75 Q5.839,22.75 5.62,22.53 Q5.4,22.311 5.4,22 Q5.4,21.689 5.62,21.47 Q5.839,21.25 6.15,21.25 Z"/>
  <path fill="#292D32" d="M12,16.75 Q8.787,16.75 6.518,14.482 Q4.25,12.213 4.25,9 L4.25,6 Q4.25,4.032 5.641,2.641 Q7.032,1.25 9,1.25 L15,1.25 Q16.968,1.25 18.359,2.641 Q19.75,4.032 19.75,6 L19.75,9 Q19.75,12.213 17.482,14.482 Q15.213,16.75 12,16.75 Z M12,15.25 Q14.592,15.25 16.421,13.421 Q18.25,11.592 18.25,9 L18.25,6 Q18.25,2.75 15,2.75 L9,2.75 Q5.75,2.75 5.75,6 L5.75,9 Q5.75,11.592 7.579,13.421 Q9.408,15.25 12,15.25 Z"/>
  <path fill="#292D32" d="M5.241,12.364 Q3.995,11.965 3.01,10.98 Q2.996,10.966 2.983,10.952 Q1.29,9.071 1.29,6.85 Q1.29,5.489 2.235,4.545 Q3.179,3.6 4.54,3.6 L5.19,3.6 Q5.501,3.6 5.72,3.82 Q5.94,4.039 5.94,4.35 Q5.94,4.506 5.878,4.649 Q5.64,5.196 5.64,5.85 L5.64,8.85 Q5.64,10.147 6.159,11.354 Q6.282,11.639 6.167,11.928 Q6.052,12.216 5.766,12.339 Q5.509,12.45 5.241,12.364 Z M4.236,10.078 Q4.14,9.473 4.14,8.85 L4.14,5.85 Q4.14,5.474 4.195,5.119 Q2.79,5.282 2.79,6.85 Q2.79,8.487 4.084,9.933 Q4.159,10.008 4.236,10.078 Z"/>
  <path fill="#292D32" d="M18.759,12.364 Q18.491,12.45 18.234,12.339 Q17.948,12.216 17.833,11.928 Q17.718,11.639 17.841,11.354 Q18.36,10.147 18.36,8.85 L18.36,5.85 Q18.36,5.196 18.122,4.649 Q18.06,4.506 18.06,4.35 Q18.06,4.039 18.28,3.82 Q18.499,3.6 18.81,3.6 L19.46,3.6 Q20.821,3.6 21.765,4.545 Q22.71,5.489 22.71,6.85 Q22.71,9.071 21.017,10.952 Q21.004,10.966 20.99,10.98 Q20.005,11.965 18.759,12.364 Z M19.764,10.078 Q19.841,10.008 19.916,9.933 Q21.21,8.487 21.21,6.85 Q21.21,6.111 20.705,5.605 Q20.323,5.223 19.807,5.13 Q19.86,5.48 19.86,5.85 L19.86,8.85 Q19.86,9.473 19.764,10.078 Z"/>
</svg>

