<svg xmlns="http://www.w3.org/2000/svg" width="24" height="24" viewBox="0 0 24 24">
  <defs/>
  <path fill="#292D32" d="M11.25,18.251 L9,18.251 C7.9,18.251 7,19.151 7,20.251 L7,20.501 L6,20.501 C5.59,20.501 5.25,20.841 5.25,21.251 C5.25,21.661 5.59,22.001 6,22.001 L18,22.001 C18.41,22.001 18.75,21.661 18.75,21.251 C18.75,20.841 18.41,20.501 18,20.501 L17,20.501 L17,20.251 C17,19.151 16.1,18.251 15,18.251 L12.75,18.251 L12.75,15.961 C12.5,15.991 12.25,16.001 12,16.001 C11.75,16.001 11.5,15.991 11.25,15.961 L11.25,18.251 Z"/>
  <path fill="#292D32" d="M18.479,11.64 C19.139,11.39 19.719,10.98 20.179,10.52 C21.109,9.49 21.719,8.26 21.719,6.82 C21.719,5.38 20.589,4.25 19.149,4.25 L18.589,4.25 C17.939,2.92 16.579,2 14.999,2 L8.999,2 C7.419,2 6.059,2.92 5.409,4.25 L4.849,4.25 C3.409,4.25 2.279,5.38 2.279,6.82 C2.279,8.26 2.889,9.49 3.819,10.52 C4.279,10.98 4.859,11.39 5.519,11.64 C6.559,14.2 9.059,16 11.999,16 C14.939,16 17.439,14.2 18.479,11.64 Z M14.839,8.45 L14.219,9.21 C14.119,9.32 14.049,9.54 14.059,9.69 L14.119,10.67 C14.159,11.27 13.729,11.58 13.169,11.36 L12.259,11 C12.119,10.95 11.879,10.95 11.739,11 L10.829,11.36 C10.269,11.58 9.839,11.27 9.879,10.67 L9.939,9.69 C9.949,9.54 9.879,9.32 9.779,9.21 L9.159,8.45 C8.769,7.99 8.939,7.48 9.519,7.33 L10.469,7.09 C10.619,7.05 10.799,6.91 10.879,6.78 L11.409,5.96 C11.739,5.45 12.259,5.45 12.589,5.96 L13.119,6.78 C13.199,6.91 13.379,7.05 13.529,7.09 L14.479,7.33 C15.059,7.48 15.229,7.99 14.839,8.45 Z"/>
</svg>

