<svg xmlns="http://www.w3.org/2000/svg" width="24" height="24" viewBox="0 0 24 24">
  <defs/>
  <path fill="#292D32" opacity="0.34" d="M12.9,16.5 L12.9,18.6 Q12.9,18.911 12.681,19.13 Q12.461,19.35 12.15,19.35 Q11.84,19.35 11.62,19.13 Q11.4,18.911 11.4,18.6 L11.4,16.5 Q11.4,16.189 11.62,15.97 Q11.84,15.75 12.15,15.75 Q12.461,15.75 12.681,15.97 Q12.9,16.189 12.9,16.5 Z"/>
  <path fill="#292D32" d="M6.4,22.75 L6.4,21 Q6.4,18.25 9.15,18.25 L15.15,18.25 Q16.286,18.25 17.093,19.057 Q17.9,19.864 17.9,21 L17.9,22.75 Z M7.9,21.25 L16.4,21.25 L16.4,21 Q16.4,19.75 15.15,19.75 L9.15,19.75 Q8.636,19.75 8.268,20.118 Q7.9,20.486 7.9,21 L7.9,21.25 Z"/>
  <path fill="#292D32" d="M6.15,21.25 L18.15,21.25 Q18.461,21.25 18.681,21.47 Q18.9,21.689 18.9,22 Q18.9,22.311 18.681,22.53 Q18.461,22.75 18.15,22.75 L6.15,22.75 Q5.84,22.75 5.62,22.53 Q5.4,22.311 5.4,22 Q5.4,21.689 5.62,21.47 Q5.84,21.25 6.15,21.25 Z"/>
  <path fill="#292D32" d="M12,16.75 Q8.787,16.75 6.518,14.482 Q4.25,12.213 4.25,9 L4.25,6 Q4.25,4.032 5.641,2.641 Q7.032,1.25 9,1.25 L15,1.25 Q16.968,1.25 18.359,2.641 Q19.75,4.032 19.75,6 L19.75,9 Q19.75,12.213 17.482,14.482 Q15.213,16.75 12,16.75 Z M12,15.25 Q14.592,15.25 16.421,13.421 Q18.25,11.592 18.25,9 L18.25,6 Q18.25,2.75 15,2.75 L9,2.75 Q5.75,2.75 5.75,6 L5.75,9 Q5.75,11.592 7.579,13.421 Q9.408,15.25 12,15.25 Z"/>
  <path fill="#292D32" opacity="0.34" d="M5.24,12.364 Q3.994,11.965 3.009,10.98 Q2.995,10.966 2.982,10.952 Q1.289,9.071 1.289,6.85 Q1.289,5.489 2.234,4.545 Q3.178,3.6 4.539,3.6 L5.189,3.6 Q5.5,3.6 5.719,3.82 Q5.939,4.039 5.939,4.35 Q5.939,4.506 5.877,4.649 Q5.639,5.196 5.639,5.85 L5.639,8.85 Q5.639,10.148 6.158,11.354 Q6.281,11.639 6.166,11.928 Q6.051,12.216 5.765,12.339 Q5.508,12.45 5.24,12.364 Z M4.235,10.078 Q4.139,9.473 4.139,8.85 L4.139,5.85 Q4.139,5.475 4.194,5.119 Q2.789,5.282 2.789,6.85 Q2.789,8.487 4.083,9.934 Q4.158,10.008 4.235,10.078 Z"/>
  <path fill="#292D32" opacity="0.34" d="M18.758,12.364 Q18.491,12.45 18.233,12.339 Q17.948,12.216 17.833,11.928 Q17.718,11.639 17.84,11.354 Q18.359,10.147 18.359,8.85 L18.359,5.85 Q18.359,5.196 18.121,4.649 Q18.059,4.506 18.059,4.35 Q18.059,4.039 18.279,3.82 Q18.499,3.6 18.809,3.6 L19.459,3.6 Q22.709,3.6 22.709,6.85 Q22.709,9.071 21.017,10.952 Q21.004,10.966 20.99,10.98 Q20.005,11.965 18.758,12.364 Z M19.763,10.078 Q19.84,10.008 19.915,9.934 Q21.209,8.487 21.209,6.85 Q21.209,5.282 19.805,5.119 Q19.859,5.475 19.859,5.85 L19.859,8.85 Q19.859,9.473 19.763,10.078 Z"/>
</svg>

