<svg xmlns="http://www.w3.org/2000/svg" width="24" height="24" viewBox="0 0 24 24">
  <defs/>
  <path fill="#292D32" opacity="0.4" d="M18,20.5 L17,20.5 L17,20.25 C17,19.15 16.1,18.25 15,18.25 L12.75,18.25 L12.75,15.96 C12.5,15.99 12.25,16 12,16 C11.75,16 11.5,15.99 11.25,15.96 L11.25,18.25 L9,18.25 C7.9,18.25 7,19.15 7,20.25 L7,20.5 L6,20.5 C5.59,20.5 5.25,20.84 5.25,21.25 C5.25,21.66 5.59,22 6,22 L18,22 C18.41,22 18.75,21.66 18.75,21.25 C18.75,20.84 18.41,20.5 18,20.5 Z"/>
  <path fill="#292D32" opacity="0.4" d="M5.519,11.64 C4.859,11.39 4.279,10.98 3.819,10.52 C2.889,9.49 2.279,8.26 2.279,6.82 C2.279,5.38 3.409,4.25 4.849,4.25 L5.409,4.25 C5.149,4.78 4.999,5.37 4.999,6 L4.999,9 C4.999,9.94 5.179,10.83 5.519,11.64 Z"/>
  <path fill="#292D32" opacity="0.4" d="M21.721,6.82 C21.721,8.26 21.11,9.49 20.18,10.52 C19.721,10.98 19.14,11.39 18.48,11.64 C18.82,10.83 19,9.94 19,9 L19,6 C19,5.37 18.851,4.78 18.59,4.25 L19.151,4.25 C20.59,4.25 21.721,5.38 21.721,6.82 Z"/>
  <path fill="#292D32" d="M15,2 L9,2 C6.79,2 5,3.79 5,6 L5,9 C5,12.87 8.13,16 12,16 C15.87,16 19,12.87 19,9 L19,6 C19,3.79 17.21,2 15,2 Z M14.84,8.45 L14.22,9.21 C14.12,9.32 14.05,9.54 14.06,9.69 L14.12,10.67 C14.16,11.27 13.73,11.58 13.17,11.36 L12.26,11 C12.12,10.95 11.88,10.95 11.74,11 L10.83,11.36 C10.27,11.58 9.84,11.27 9.88,10.67 L9.94,9.69 C9.95,9.54 9.88,9.32 9.78,9.21 L9.16,8.45 C8.77,7.99 8.94,7.48 9.52,7.33 L10.47,7.09 C10.62,7.05 10.8,6.91 10.88,6.78 L11.41,5.96 C11.74,5.45 12.26,5.45 12.59,5.96 L13.12,6.78 C13.2,6.91 13.38,7.05 13.53,7.09 L14.48,7.33 C15.06,7.48 15.23,7.99 14.84,8.45 Z"/>
  <path fill="#292D32" opacity="0.4" d="M14.84,8.45 L14.22,9.21 C14.12,9.32 14.05,9.54 14.06,9.69 L14.12,10.67 C14.16,11.27 13.73,11.58 13.17,11.36 L12.26,11 C12.12,10.95 11.88,10.95 11.74,11 L10.83,11.36 C10.27,11.58 9.84,11.27 9.88,10.67 L9.94,9.69 C9.95,9.54 9.88,9.32 9.78,9.21 L9.16,8.45 C8.77,7.99 8.94,7.48 9.52,7.33 L10.47,7.09 C10.62,7.05 10.8,6.91 10.88,6.78 L11.41,5.96 C11.74,5.45 12.26,5.45 12.59,5.96 L13.12,6.78 C13.2,6.91 13.38,7.05 13.53,7.09 L14.48,7.33 C15.06,7.48 15.23,7.99 14.84,8.45 Z"/>
</svg>

