<svg xmlns="http://www.w3.org/2000/svg" width="24" height="24" viewBox="0 0 24 24">
  <defs/>
  <path fill="white" d="M24,0 L0,0 L0,24 L24,24 L24,0 Z"/>
  <path fill="#292D32" opacity="0.4" d="M12,22 C17.523,22 22,17.523 22,12 C22,6.477 17.523,2 12,2 C6.477,2 2,6.477 2,12 C2,17.523 6.477,22 12,22 Z"/>
  <path fill="#292D32" d="M12,17.75 L8,17.75 C7.59,17.75 7.25,17.41 7.25,17 L7.25,7 C7.25,6.59 7.59,6.25 8,6.25 L12,6.25 C15.17,6.25 17.75,8.83 17.75,12 C17.75,15.17 15.17,17.75 12,17.75 Z M8.75,16.25 L12,16.25 C14.34,16.25 16.25,14.34 16.25,12 C16.25,9.66 14.34,7.75 12,7.75 L8.75,7.75 L8.75,16.25 Z"/>
  <path fill="#292D32" d="M18.52,10.75 L6.48,10.75 C6.07,10.75 5.73,10.41 5.73,10 C5.73,9.59 6.07,9.25 6.48,9.25 L18.52,9.25 C18.93,9.25 19.27,9.59 19.27,10 C19.27,10.41 18.93,10.75 18.52,10.75 Z"/>
  <path fill="#292D32" d="M18.52,14.75 L6.48,14.75 C6.07,14.75 5.73,14.41 5.73,14 C5.73,13.59 6.07,13.25 6.48,13.25 L18.52,13.25 C18.93,13.25 19.27,13.59 19.27,14 C19.27,14.41 18.93,14.75 18.52,14.75 Z"/>
</svg>

