<svg xmlns="http://www.w3.org/2000/svg" width="24" height="24" viewBox="0 0 24 24">
  <defs/>
  <path d="M12,7.75 L8.75,7.75 L8.75,9.25 L15.21,9.25 C14.43,8.34 13.29,7.75 12,7.75 Z"/>
  <path d="M16.25,12 C16.25,11.56 16.16,11.15 16.04,10.75 L8.75,10.75 L8.75,13.25 L16.04,13.25 C16.16,12.85 16.25,12.44 16.25,12 Z"/>
  <path d="M12,2 C6.48,2 2,6.48 2,12 C2,17.52 6.48,22 12,22 C17.52,22 22,17.52 22,12 C22,6.48 17.52,2 12,2 Z M18.52,14.75 L17.05,14.75 C16.07,16.54 14.18,17.75 12,17.75 L8,17.75 C7.59,17.75 7.25,17.41 7.25,17 L7.25,14.75 L6.48,14.75 C6.07,14.75 5.73,14.41 5.73,14 C5.73,13.59 6.07,13.25 6.48,13.25 L7.25,13.25 L7.25,10.75 L6.48,10.75 C6.07,10.75 5.73,10.41 5.73,10 C5.73,9.59 6.07,9.25 6.48,9.25 L7.25,9.25 L7.25,7 C7.25,6.59 7.59,6.25 8,6.25 L12,6.25 C14.18,6.25 16.07,7.46 17.05,9.25 L18.52,9.25 C18.93,9.25 19.27,9.59 19.27,10 C19.27,10.41 18.93,10.75 18.52,10.75 L17.61,10.75 C17.7,11.15 17.75,11.57 17.75,12 C17.75,12.43 17.7,12.85 17.61,13.25 L18.52,13.25 C18.93,13.25 19.27,13.59 19.27,14 C19.27,14.41 18.93,14.75 18.52,14.75 Z"/>
  <path d="M8.75,16.25 L12,16.25 C13.29,16.25 14.43,15.66 15.21,14.75 L8.75,14.75 L8.75,16.25 Z"/>
</svg>

