<svg xmlns="http://www.w3.org/2000/svg" width="24" height="24" viewBox="0 0 24 24">
  <defs/>
  <path d="M7.25,7 Q7.25,6.689 7.47,6.47 Q7.689,6.25 8,6.25 L12,6.25 Q14.381,6.25 16.065,7.935 Q17.75,9.619 17.75,12 Q17.75,14.381 16.065,16.065 Q14.381,17.75 12,17.75 L8,17.75 Q7.689,17.75 7.47,17.53 Q7.25,17.311 7.25,17 Z M8.75,7.75 L8.75,16.25 L12,16.25 Q13.759,16.25 15.005,15.005 Q16.25,13.759 16.25,12 Q16.25,10.241 15.005,8.995 Q13.759,7.75 12,7.75 L8.75,7.75 Z"/>
  <path d="M6.48,9.25 L18.521,9.25 Q18.831,9.25 19.051,9.47 Q19.27,9.689 19.27,10 Q19.27,10.311 19.051,10.53 Q18.831,10.75 18.521,10.75 L6.48,10.75 Q6.17,10.75 5.95,10.53 Q5.73,10.311 5.73,10 Q5.73,9.689 5.95,9.47 Q6.17,9.25 6.48,9.25 Z"/>
  <path d="M6.48,13.25 L18.521,13.25 Q18.831,13.25 19.051,13.47 Q19.27,13.689 19.27,14 Q19.27,14.311 19.051,14.53 Q18.831,14.75 18.521,14.75 L6.48,14.75 Q6.17,14.75 5.95,14.53 Q5.73,14.311 5.73,14 Q5.73,13.689 5.95,13.47 Q6.17,13.25 6.48,13.25 Z"/>
  <path fill="#17191C" d="M4.6,6.449 Q2.75,8.922 2.75,12 Q2.75,15.829 5.46,18.54 Q8.171,21.25 12,21.25 Q15.829,21.25 18.54,18.54 Q21.25,15.829 21.25,12 Q21.25,8.171 18.54,5.46 Q15.829,2.75 12,2.75 Q10.031,2.75 8.276,3.535 Q7.993,3.661 7.702,3.551 Q7.412,3.44 7.285,3.156 Q7.158,2.873 7.269,2.582 Q7.38,2.292 7.664,2.165 Q9.711,1.25 12,1.25 Q16.451,1.25 19.6,4.4 Q22.75,7.549 22.75,12 Q22.75,16.451 19.6,19.6 Q16.451,22.75 12,22.75 Q7.549,22.75 4.4,19.6 Q1.25,16.451 1.25,12 Q1.25,8.422 3.4,5.551 Q3.586,5.302 3.893,5.258 Q4.201,5.213 4.449,5.4 Q4.698,5.586 4.742,5.893 Q4.787,6.201 4.6,6.449 Z"/>
</svg>

