<svg xmlns="http://www.w3.org/2000/svg" width="24" height="24" viewBox="0 0 24 24">
  <defs/>
  <path fill="#292D32" opacity="0.4" d="M21.761,15.92 L15.361,4.4 C14.501,2.85 13.31,2 12.001,2 C10.691,2 9.5,2.85 8.64,4.4 L2.24,15.92 C1.43,17.39 1.34,18.8 1.99,19.91 C2.64,21.02 3.92,21.63 5.6,21.63 L18.401,21.63 C20.081,21.63 21.36,21.02 22.011,19.91 C22.66,18.8 22.57,17.38 21.761,15.92 Z"/>
  <path fill="#292D32" d="M12,14.75 C11.59,14.75 11.25,14.41 11.25,14 L11.25,9 C11.25,8.59 11.59,8.25 12,8.25 C12.41,8.25 12.75,8.59 12.75,9 L12.75,14 C12.75,14.41 12.41,14.75 12,14.75 Z"/>
  <path fill="#292D32" d="M12,18 C11.94,18 11.87,17.99 11.8,17.98 C11.74,17.97 11.68,17.95 11.62,17.92 C11.56,17.9 11.5,17.87 11.44,17.83 C11.39,17.79 11.34,17.75 11.29,17.71 C11.11,17.52 11,17.26 11,17 C11,16.74 11.11,16.48 11.29,16.29 C11.34,16.25 11.39,16.21 11.44,16.17 C11.5,16.13 11.56,16.1 11.62,16.08 C11.68,16.05 11.74,16.03 11.8,16.02 C11.93,15.99 12.07,15.99 12.19,16.02 C12.26,16.03 12.32,16.05 12.38,16.08 C12.44,16.1 12.5,16.13 12.56,16.17 C12.61,16.21 12.66,16.25 12.71,16.29 C12.89,16.48 13,16.74 13,17 C13,17.26 12.89,17.52 12.71,17.71 C12.66,17.75 12.61,17.79 12.56,17.83 C12.5,17.87 12.44,17.9 12.38,17.92 C12.32,17.95 12.26,17.97 12.19,17.98 C12.13,17.99 12.06,18 12,18 Z"/>
</svg>

