<svg xmlns="http://www.w3.org/2000/svg" width="24" height="24" viewBox="0 0 24 24">
  <defs/>
  <path fill="#292D32" d="M12,14.75 C11.59,14.75 11.25,14.41 11.25,14 L11.25,9 C11.25,8.59 11.59,8.25 12,8.25 C12.41,8.25 12.75,8.59 12.75,9 L12.75,14 C12.75,14.41 12.41,14.75 12,14.75 Z"/>
  <path fill="#292D32" d="M12,18 C11.94,18 11.87,17.99 11.8,17.98 C11.74,17.97 11.68,17.95 11.62,17.92 C11.56,17.9 11.5,17.87 11.44,17.83 C11.39,17.79 11.34,17.75 11.29,17.71 C11.11,17.52 11,17.26 11,17 C11,16.74 11.11,16.48 11.29,16.29 C11.34,16.25 11.39,16.21 11.44,16.17 C11.5,16.13 11.56,16.1 11.62,16.08 C11.68,16.05 11.74,16.03 11.8,16.02 C11.93,15.99 12.07,15.99 12.19,16.02 C12.26,16.03 12.32,16.05 12.38,16.08 C12.44,16.1 12.5,16.13 12.56,16.17 C12.61,16.21 12.66,16.25 12.71,16.29 C12.89,16.48 13,16.74 13,17 C13,17.26 12.89,17.52 12.71,17.71 C12.66,17.75 12.61,17.79 12.56,17.83 C12.5,17.87 12.44,17.9 12.38,17.92 C12.32,17.95 12.26,17.97 12.19,17.98 C12.13,17.99 12.06,18 12,18 Z"/>
  <path fill="#292D32" d="M18.061,22.16 L5.94,22.16 C3.99,22.16 2.5,21.45 1.74,20.17 C0.99,18.89 1.09,17.24 2.04,15.53 L8.1,4.63 C9.1,2.83 10.48,1.84 12.001,1.84 C13.521,1.84 14.9,2.83 15.9,4.63 L21.96,15.54 C22.91,17.25 23.02,18.89 22.261,20.18 C21.5,21.45 20.011,22.16 18.061,22.16 Z M12.001,3.34 C11.06,3.34 10.14,4.06 9.41,5.36 L3.36,16.27 C2.68,17.49 2.57,18.61 3.04,19.42 C3.51,20.23 4.55,20.67 5.95,20.67 L18.07,20.67 C19.471,20.67 20.5,20.23 20.98,19.42 C21.46,18.61 21.34,17.5 20.66,16.27 L14.591,5.36 C13.861,4.06 12.941,3.34 12.001,3.34 Z"/>
</svg>

