<svg xmlns="http://www.w3.org/2000/svg" width="24" height="24" viewBox="0 0 24 24">
  <defs/>
  <path fill="#292D32" d="M21.761,15.92 L15.361,4.4 C14.501,2.85 13.31,2 12.001,2 C10.691,2 9.5,2.85 8.64,4.4 L2.24,15.92 C1.43,17.39 1.34,18.8 1.99,19.91 C2.64,21.02 3.92,21.63 5.6,21.63 L18.401,21.63 C20.081,21.63 21.36,21.02 22.011,19.91 C22.66,18.8 22.57,17.38 21.761,15.92 Z M11.251,9 C11.251,8.59 11.591,8.25 12.001,8.25 C12.411,8.25 12.751,8.59 12.751,9 L12.751,14 C12.751,14.41 12.411,14.75 12.001,14.75 C11.591,14.75 11.251,14.41 11.251,14 L11.251,9 Z M12.71,17.71 C12.661,17.75 12.611,17.79 12.56,17.83 C12.501,17.87 12.441,17.9 12.38,17.92 C12.32,17.95 12.261,17.97 12.191,17.98 C12.13,17.99 12.06,18 12.001,18 C11.941,18 11.87,17.99 11.8,17.98 C11.741,17.97 11.681,17.95 11.62,17.92 C11.56,17.9 11.501,17.87 11.441,17.83 C11.39,17.79 11.341,17.75 11.29,17.71 C11.111,17.52 11.001,17.26 11.001,17 C11.001,16.74 11.111,16.48 11.29,16.29 C11.341,16.25 11.39,16.21 11.441,16.17 C11.501,16.13 11.56,16.1 11.62,16.08 C11.681,16.05 11.741,16.03 11.8,16.02 C11.931,15.99 12.07,15.99 12.191,16.02 C12.261,16.03 12.32,16.05 12.38,16.08 C12.441,16.1 12.501,16.13 12.56,16.17 C12.611,16.21 12.661,16.25 12.71,16.29 C12.89,16.48 13.001,16.74 13.001,17 C13.001,17.26 12.89,17.52 12.71,17.71 Z"/>
</svg>

