<svg xmlns="http://www.w3.org/2000/svg" width="24" height="24" viewBox="0 0 24 24">
  <defs/>
  <path fill="#292D32" opacity="0.34" d="M12.75,9 L12.75,14 Q12.75,14.311 12.53,14.53 Q12.311,14.75 12,14.75 Q11.689,14.75 11.47,14.53 Q11.25,14.311 11.25,14 L11.25,9 Q11.25,8.689 11.47,8.47 Q11.689,8.25 12,8.25 Q12.311,8.25 12.53,8.47 Q12.75,8.689 12.75,9 Z"/>
  <path fill="#292D32" d="M5.939,22.16 Q2.909,22.16 1.741,20.171 Q0.575,18.184 2.044,15.536 L5.164,9.916 L8.104,4.635 Q9.653,1.842 11.999,1.842 Q14.346,1.842 15.895,4.636 L18.835,9.925 L21.955,15.546 Q23.423,18.193 22.253,20.181 Q21.084,22.17 18.059,22.17 L11.999,22.17 Q11.933,22.17 11.871,22.16 L5.939,22.16 Z M11.999,20.66 Q12.066,20.66 12.128,20.67 L18.059,20.67 Q20.226,20.67 20.96,19.421 Q21.696,18.171 20.644,16.274 L17.524,10.654 L14.583,5.364 Q13.463,3.342 11.999,3.342 Q10.536,3.342 9.415,5.365 L6.475,10.644 L3.355,16.263 Q2.302,18.163 3.035,19.411 Q3.768,20.66 5.939,20.66 Z"/>
  <path fill="#292D32" opacity="0.34" d="M11.994,16 L12.003,16 Q12.417,16 12.71,16.293 Q13.003,16.586 13.003,17 Q13.003,17.414 12.71,17.707 Q12.417,18 12.003,18 L11.994,18 Q11.58,18 11.287,17.707 Q10.994,17.414 10.994,17 Q10.994,16.586 11.287,16.293 Q11.58,16 11.994,16 Z"/>
</svg>

