<svg xmlns="http://www.w3.org/2000/svg" width="24" height="24" viewBox="0 0 24 24">
  <defs/>
  <path fill="#292D32" d="M12.75,9 L12.75,14 Q12.75,14.311 12.53,14.53 Q12.311,14.75 12,14.75 Q11.689,14.75 11.47,14.53 Q11.25,14.311 11.25,14 L11.25,9 Q11.25,8.689 11.47,8.47 Q11.689,8.25 12,8.25 Q12.311,8.25 12.53,8.47 Q12.75,8.689 12.75,9 Z"/>
  <path fill="#292D32" d="M20.894,13.635 L21.954,15.535 Q23.423,18.183 22.253,20.172 Q21.084,22.16 18.059,22.16 L5.939,22.16 Q2.909,22.16 1.741,20.171 Q0.575,18.184 2.044,15.536 L5.164,9.916 L8.104,4.635 Q9.653,1.843 11.999,1.843 Q14.346,1.843 15.895,4.636 L18.835,9.926 Q18.986,10.197 18.901,10.496 Q18.815,10.795 18.544,10.946 Q18.272,11.096 17.973,11.011 Q17.675,10.926 17.524,10.654 L14.583,5.364 Q13.463,3.343 11.999,3.343 Q10.536,3.343 9.415,5.365 L6.475,10.644 L3.355,16.264 Q2.302,18.163 3.035,19.412 Q3.768,20.66 5.939,20.66 L18.059,20.66 Q20.226,20.66 20.96,19.411 Q21.696,18.161 20.644,16.265 L19.584,14.365 Q19.433,14.094 19.518,13.795 Q19.603,13.496 19.874,13.345 Q20.145,13.194 20.444,13.278 Q20.743,13.363 20.894,13.635 Z"/>
  <path fill="#292D32" d="M11.994,16 L12.003,16 Q12.417,16 12.71,16.293 Q13.003,16.586 13.003,17 Q13.003,17.414 12.71,17.707 Q12.417,18 12.003,18 L11.994,18 Q11.58,18 11.287,17.707 Q10.994,17.414 10.994,17 Q10.994,16.586 11.287,16.293 Q11.58,16 11.994,16 Z"/>
</svg>

