<svg xmlns="http://www.w3.org/2000/svg" width="24" height="24" viewBox="0 0 24 24">
  <defs/>
  <path d="M6.009,21.25 L3.939,21.25 Q3.629,21.25 3.409,21.03 Q3.189,20.811 3.189,20.5 Q3.189,20.408 3.212,20.319 L4.272,16.069 Q4.414,15.5 4.999,15.5 L12.439,15.5 Q16.999,15.5 17,10.94 L17,10.75 Q17,8.5 14.75,8.5 L6.059,8.5 Q5.749,8.5 5.529,8.28 Q5.309,8.061 5.309,7.75 Q5.309,7.658 5.332,7.569 L6.392,3.319 Q6.534,2.75 7.119,2.75 L16,2.75 Q22.749,2.75 22.75,9.5 L22.75,12 Q22.749,16.144 20.353,18.644 Q17.856,21.25 13.5,21.25 L10.939,21.25 Q10.629,21.25 10.409,21.03 Q10.189,20.811 10.189,20.5 Q10.189,20.189 10.409,19.97 Q10.629,19.75 10.939,19.75 L13.5,19.75 Q21.249,19.75 21.25,12 L21.25,9.5 Q21.25,7.079 19.953,5.702 Q18.587,4.25 16,4.25 L7.705,4.25 L7.019,7 L14.75,7 Q18.499,7 18.5,10.75 L18.5,10.94 Q18.5,13.625 16.978,15.254 Q15.347,17 12.439,17 L5.585,17 L4.899,19.75 L6.009,19.75 Q6.32,19.75 6.54,19.97 Q6.759,20.189 6.759,20.5 Q6.759,20.811 6.54,21.03 Q6.32,21.25 6.009,21.25 Z"/>
  <path d="M11.5,9.75 Q11.592,9.75 11.681,9.772 Q11.982,9.847 12.143,10.113 Q12.303,10.379 12.228,10.681 L11.858,12.17 Q11.344,14.25 9.19,14.25 L2,14.25 Q1.908,14.25 1.819,14.228 Q1.518,14.153 1.357,13.887 Q1.197,13.621 1.272,13.319 L1.642,11.83 Q2.156,9.75 4.31,9.75 Z M10.541,11.25 L4.31,11.25 Q3.33,11.25 3.098,12.19 L2.959,12.75 L9.19,12.75 Q10.17,12.75 10.402,11.81 L10.541,11.25 Z"/>
</svg>

