<svg xmlns="http://www.w3.org/2000/svg" width="24" height="24" viewBox="0 0 24 24">
  <defs/>
  <path d="M7.12,2.75 L16,2.75 Q22.75,2.75 22.75,9.5 L22.75,12 Q22.75,16.144 20.354,18.644 Q17.857,21.25 13.5,21.25 L3.94,21.25 Q3.63,21.25 3.41,21.03 Q3.19,20.811 3.19,20.5 Q3.19,20.408 3.213,20.319 L4.273,16.069 Q4.415,15.5 5,15.5 L12.44,15.5 Q17,15.5 17,10.94 L17,10.75 Q17,8.5 14.75,8.5 L6.06,8.5 Q5.75,8.5 5.53,8.28 Q5.31,8.061 5.31,7.75 Q5.31,7.658 5.333,7.569 L6.393,3.319 Q6.535,2.75 7.12,2.75 Z M7.706,4.25 L7.02,7 L14.75,7 Q18.5,7 18.5,10.75 L18.5,10.94 Q18.5,17 12.44,17 L5.586,17 L4.9,19.75 L13.5,19.75 Q21.25,19.75 21.25,12 L21.25,9.5 Q21.25,7.079 19.954,5.702 Q18.588,4.25 16,4.25 L7.706,4.25 Z"/>
  <path opacity="0.4" d="M11.5,9.75 Q11.592,9.75 11.681,9.772 Q11.982,9.847 12.143,10.113 Q12.303,10.379 12.228,10.681 L11.858,12.17 Q11.344,14.25 9.19,14.25 L2,14.25 Q1.908,14.25 1.819,14.228 Q1.518,14.153 1.357,13.887 Q1.197,13.621 1.272,13.319 L1.642,11.83 Q2.156,9.75 4.31,9.75 Z M10.541,11.25 L4.31,11.25 Q3.33,11.25 3.098,12.19 L2.959,12.75 L9.19,12.75 Q10.17,12.75 10.402,11.81 L10.541,11.25 Z"/>
</svg>

