<svg xmlns="http://www.w3.org/2000/svg" width="24" height="24" viewBox="0 0 24 24">
  <defs/>
  <path d="M7.119,3.5 L15.999,3.5 C20,3.5 22,6 22,9.5 L22,12 C22,17 19,20.5 13.499,20.5 L3.939,20.5 L4.999,16.25 L12.44,16.25 C15.999,16.25 17.75,14 17.75,10.94 L17.75,10.75 C17.75,9 17,7.75 14.749,7.75 L6.059,7.75 L7.119,3.5 Z"/>
  <path d="M12.409,10.23 L4.7,10.23 C3.62,10.23 2.68,10.97 2.41,12.011 L2.16,13.03 C2.07,13.4 2.35,13.761 2.73,13.761 L10.44,13.761 C11.52,13.761 12.46,13.021 12.729,11.98 L12.979,10.96 C13.079,10.591 12.79,10.23 12.409,10.23 Z"/>
</svg>

