<svg xmlns="http://www.w3.org/2000/svg" width="24" height="24" viewBox="0 0 24 24">
  <defs/>
  <path d="M13.5,21.25 L3.94,21.25 C3.71,21.25 3.49,21.14 3.35,20.96 C3.21,20.78 3.16,20.54 3.21,20.32 L4.27,16.07 C4.35,15.74 4.65,15.5 5,15.5 L12.44,15.5 C15.34,15.5 17,13.84 17,10.94 L17,10.75 C17,9.15 16.35,8.5 14.75,8.5 L6.06,8.5 C5.83,8.5 5.61,8.39 5.47,8.21 C5.33,8.03 5.28,7.79 5.33,7.57 L6.39,3.32 C6.47,2.99 6.77,2.75 7.12,2.75 L16,2.75 C20.16,2.75 22.75,5.34 22.75,9.5 L22.75,12 C22.75,17.71 19.21,21.25 13.5,21.25 Z M4.9,19.75 L13.5,19.75 C18.35,19.75 21.25,16.85 21.25,12 L21.25,9.5 C21.25,6.16 19.34,4.25 16,4.25 L7.71,4.25 L7.02,7 L14.75,7 C17.17,7 18.5,8.33 18.5,10.75 L18.5,10.94 C18.5,14.68 16.18,17 12.44,17 L5.59,17 L4.9,19.75 Z"/>
  <path d="M9.19,14.25 L2,14.25 C1.77,14.25 1.55,14.14 1.41,13.96 C1.27,13.78 1.22,13.54 1.27,13.32 L1.64,11.84 C1.95,10.61 3.04,9.76 4.31,9.76 L11.5,9.76 C11.73,9.76 11.95,9.87 12.09,10.05 C12.23,10.23 12.28,10.47 12.23,10.69 L11.86,12.17 C11.55,13.39 10.45,14.25 9.19,14.25 Z M2.96,12.75 L9.19,12.75 C9.76,12.75 10.26,12.36 10.4,11.8 L10.54,11.25 L4.31,11.25 C3.74,11.25 3.24,11.64 3.1,12.2 L2.96,12.75 Z"/>
</svg>

