<svg xmlns="http://www.w3.org/2000/svg" width="24" height="24" viewBox="0 0 24 24">
  <defs/>
  <path fill="#17191C" d="M7.1,2.75 L16,2.75 Q22.75,2.75 22.75,9.5 L22.75,12 Q22.75,16.144 20.354,18.644 Q17.856,21.25 13.5,21.25 L3.9,21.25 Q3.589,21.25 3.37,21.03 Q3.15,20.811 3.15,20.5 Q3.15,20.406 3.173,20.314 L4.273,16.014 Q4.418,15.45 5,15.45 L12.4,15.45 Q16.95,15.45 16.95,10.9 L16.95,10.7 Q16.95,9.56 16.469,9.028 Q15.946,8.45 14.7,8.45 L6.1,8.45 Q5.789,8.45 5.57,8.23 Q5.35,8.011 5.35,7.7 Q5.35,7.612 5.37,7.526 L6.37,3.326 Q6.508,2.75 7.1,2.75 Z M7.692,4.25 L7.049,6.95 L14.7,6.95 Q18.45,6.95 18.45,10.7 L18.45,10.9 Q18.45,13.615 16.948,15.224 Q15.337,16.95 12.4,16.95 L5.582,16.95 L4.866,19.75 L13.5,19.75 Q17.216,19.75 19.271,17.606 Q21.25,15.541 21.25,12 L21.25,9.5 Q21.25,4.25 16,4.25 L7.692,4.25 Z"/>
  <path fill="#17191C" d="M11.5,9.75 Q11.598,9.75 11.693,9.775 Q11.993,9.855 12.149,10.124 Q12.305,10.393 12.225,10.693 L11.829,12.179 Q11.36,14.25 9.2,14.25 L2,14.25 Q1.902,14.25 1.807,14.225 Q1.507,14.145 1.351,13.876 Q1.195,13.607 1.275,13.307 L1.671,11.821 Q2.14,9.75 4.3,9.75 Z M10.524,11.25 L4.3,11.25 Q3.335,11.25 3.132,12.163 Q3.129,12.178 3.125,12.193 L2.976,12.75 L9.2,12.75 Q10.165,12.75 10.368,11.837 Q10.371,11.822 10.375,11.807 L10.524,11.25 Z"/>
</svg>

