<svg xmlns="http://www.w3.org/2000/svg" width="24" height="24" viewBox="0 0 24 24">
  <defs/>
  <path fill="#292D32" d="M7,8 L4,8 C2.9,8 2,7.1 2,6 L2,4 C2,2.9 2.9,2 4,2 L7,2 C8.1,2 9,2.9 9,4 L9,6 C9,7.1 8.1,8 7,8 Z"/>
  <path fill="#292D32" d="M20.8,7 L17.2,7 C16.54,7 16,6.46 16,5.8 L16,4.2 C16,3.54 16.54,3 17.2,3 L20.8,3 C21.46,3 22,3.54 22,4.2 L22,5.8 C22,6.46 21.46,7 20.8,7 Z"/>
  <path fill="#292D32" d="M20.8,14.5 L17.2,14.5 C16.54,14.5 16,13.96 16,13.3 L16,11.7 C16,11.04 16.54,10.5 17.2,10.5 L20.8,10.5 C21.46,10.5 22,11.04 22,11.7 L22,13.3 C22,13.96 21.46,14.5 20.8,14.5 Z"/>
  <path fill="#292D32" opacity="0.96" d="M16,13.25 C16.41,13.25 16.75,12.91 16.75,12.5 C16.75,12.09 16.41,11.75 16,11.75 L13.25,11.75 L13.25,5.75 L16,5.75 C16.41,5.75 16.75,5.41 16.75,5 C16.75,4.59 16.41,4.25 16,4.25 L9,4.25 C8.59,4.25 8.25,4.59 8.25,5 C8.25,5.41 8.59,5.75 9,5.75 L11.75,5.75 L11.75,18 C11.75,19.52 12.98,20.75 14.5,20.75 L16,20.75 C16.41,20.75 16.75,20.41 16.75,20 C16.75,19.59 16.41,19.25 16,19.25 L14.5,19.25 C13.81,19.25 13.25,18.69 13.25,18 L13.25,13.25 L16,13.25 Z"/>
  <path fill="#292D32" d="M20.8,22 L17.2,22 C16.54,22 16,21.46 16,20.8 L16,19.2 C16,18.54 16.54,18 17.2,18 L20.8,18 C21.46,18 22,18.54 22,19.2 L22,20.8 C22,21.46 21.46,22 20.8,22 Z"/>
</svg>

