<svg xmlns="http://www.w3.org/2000/svg" width="24" height="24" viewBox="0 0 24 24">
  <defs/>
  <path fill="#292D32" d="M20,14.25 C21.243,14.25 22.25,13.243 22.25,12 C22.25,10.757 21.243,9.75 20,9.75 C18.757,9.75 17.75,10.757 17.75,12 C17.75,13.243 18.757,14.25 20,14.25 Z"/>
  <path fill="#292D32" d="M20,6.25 C21.243,6.25 22.25,5.243 22.25,4 C22.25,2.757 21.243,1.75 20,1.75 C18.757,1.75 17.75,2.757 17.75,4 C17.75,5.243 18.757,6.25 20,6.25 Z"/>
  <path fill="#292D32" d="M20,22.25 C21.243,22.25 22.25,21.243 22.25,20 C22.25,18.757 21.243,17.75 20,17.75 C18.757,17.75 17.75,18.757 17.75,20 C17.75,21.243 18.757,22.25 20,22.25 Z"/>
  <path fill="#292D32" d="M4,14.25 C5.243,14.25 6.25,13.243 6.25,12 C6.25,10.757 5.243,9.75 4,9.75 C2.757,9.75 1.75,10.757 1.75,12 C1.75,13.243 2.757,14.25 4,14.25 Z"/>
  <path fill="#292D32" opacity="0.4" d="M19,12.75 C19.41,12.75 19.75,12.41 19.75,12 C19.75,11.59 19.41,11.25 19,11.25 L11.75,11.25 L11.75,7 C11.75,5.42 12.42,4.75 14,4.75 L19,4.75 C19.41,4.75 19.75,4.41 19.75,4 C19.75,3.59 19.41,3.25 19,3.25 L14,3.25 C11.58,3.25 10.25,4.58 10.25,7 L10.25,11.25 L5,11.25 C4.59,11.25 4.25,11.59 4.25,12 C4.25,12.41 4.59,12.75 5,12.75 L10.25,12.75 L10.25,17 C10.25,19.42 11.58,20.75 14,20.75 L19,20.75 C19.41,20.75 19.75,20.41 19.75,20 C19.75,19.59 19.41,19.25 19,19.25 L14,19.25 C12.42,19.25 11.75,18.58 11.75,17 L11.75,12.75 L19,12.75 Z"/>
</svg>

