<svg xmlns="http://www.w3.org/2000/svg" width="24" height="24" viewBox="0 0 24 24">
  <defs/>
  <path fill="#292D32" d="M7,8.75 L4,8.75 Q2.864,8.75 2.057,7.943 Q1.25,7.136 1.25,6 L1.25,4 Q1.25,1.25 4,1.25 L7,1.25 Q9.75,1.25 9.75,4 L9.75,6 Q9.75,8.75 7,8.75 Z M7,7.25 Q8.25,7.25 8.25,6 L8.25,4 Q8.25,3.486 7.882,3.118 Q7.514,2.75 7,2.75 L4,2.75 Q3.486,2.75 3.118,3.118 Q2.75,3.486 2.75,4 L2.75,6 Q2.75,7.25 4,7.25 Z"/>
  <path fill="#292D32" d="M20.8,7.75 L17.2,7.75 Q16.394,7.75 15.822,7.178 Q15.25,6.606 15.25,5.8 L15.25,4.2 Q15.25,2.25 17.2,2.25 L20.8,2.25 Q21.606,2.25 22.178,2.822 Q22.75,3.394 22.75,4.2 L22.75,5.8 Q22.75,7.75 20.8,7.75 Z M20.8,6.25 Q21.25,6.25 21.25,5.8 L21.25,4.2 Q21.25,3.75 20.8,3.75 L17.2,3.75 Q16.75,3.75 16.75,4.2 L16.75,5.8 Q16.75,6.25 17.2,6.25 Z"/>
  <path fill="#292D32" d="M20.8,15.25 L17.2,15.25 Q15.25,15.25 15.25,13.3 L15.25,11.7 Q15.25,10.894 15.822,10.322 Q16.394,9.75 17.2,9.75 L20.8,9.75 Q21.606,9.75 22.178,10.322 Q22.75,10.894 22.75,11.7 L22.75,13.3 Q22.75,15.25 20.8,15.25 Z M20.8,13.75 Q21.25,13.75 21.25,13.3 L21.25,11.7 Q21.25,11.25 20.8,11.25 L17.2,11.25 Q16.75,11.25 16.75,11.7 L16.75,13.3 Q16.75,13.75 17.2,13.75 Z"/>
  <path fill="#292D32" d="M9,4.25 L16,4.25 Q16.311,4.25 16.53,4.47 Q16.75,4.689 16.75,5 Q16.75,5.311 16.53,5.53 Q16.311,5.75 16,5.75 L9,5.75 Q8.689,5.75 8.47,5.53 Q8.25,5.311 8.25,5 Q8.25,4.689 8.47,4.47 Q8.689,4.25 9,4.25 Z"/>
  <path fill="white" d="M12.5,16.36 L12.5,18 C12.5,19.1 13.4,20 14.5,20 L16,20"/>
  <path fill="#292D32" d="M13.25,16.36 L13.25,18 Q13.25,18.514 13.618,18.882 Q13.986,19.25 14.5,19.25 L16,19.25 Q16.311,19.25 16.53,19.47 Q16.75,19.689 16.75,20 Q16.75,20.311 16.53,20.53 Q16.311,20.75 16,20.75 L14.5,20.75 Q13.364,20.75 12.557,19.943 Q11.75,19.136 11.75,18 L11.75,16.36 Q11.75,16.049 11.97,15.83 Q12.189,15.61 12.5,15.61 Q12.811,15.61 13.03,15.83 Q13.25,16.049 13.25,16.36 Z"/>
  <path fill="#292D32" d="M13.25,5 L13.25,12.32 Q13.25,12.631 13.03,12.85 Q12.811,13.07 12.5,13.07 Q12.189,13.07 11.97,12.85 Q11.75,12.631 11.75,12.32 L11.75,5 Q11.75,4.689 11.97,4.47 Q12.189,4.25 12.5,4.25 Q12.811,4.25 13.03,4.47 Q13.25,4.689 13.25,5 Z"/>
  <path fill="#292D32" d="M16,13.25 L12.5,13.25 Q12.189,13.25 11.97,13.03 Q11.75,12.811 11.75,12.5 Q11.75,12.189 11.97,11.97 Q12.189,11.75 12.5,11.75 L16,11.75 Q16.311,11.75 16.53,11.97 Q16.75,12.189 16.75,12.5 Q16.75,12.811 16.53,13.03 Q16.311,13.25 16,13.25 Z"/>
  <path fill="#292D32" d="M20.8,22.75 L17.2,22.75 Q15.25,22.75 15.25,20.8 L15.25,19.2 Q15.25,17.25 17.2,17.25 L20.8,17.25 Q21.606,17.25 22.178,17.822 Q22.75,18.394 22.75,19.2 L22.75,20.8 Q22.75,22.75 20.8,22.75 Z M20.8,21.25 Q21.25,21.25 21.25,20.8 L21.25,19.2 Q21.25,18.75 20.8,18.75 L17.2,18.75 Q16.75,18.75 16.75,19.2 L16.75,20.8 Q16.75,21.25 17.2,21.25 Z"/>
</svg>

