<svg xmlns="http://www.w3.org/2000/svg" width="24" height="24" viewBox="0 0 24 24">
  <defs/>
  <path fill="#292D32" d="M20,14.75 C18.48,14.75 17.25,13.52 17.25,12 C17.25,10.48 18.48,9.25 20,9.25 C21.52,9.25 22.75,10.48 22.75,12 C22.75,13.52 21.52,14.75 20,14.75 Z M20,10.75 C19.31,10.75 18.75,11.31 18.75,12 C18.75,12.69 19.31,13.25 20,13.25 C20.69,13.25 21.25,12.69 21.25,12 C21.25,11.31 20.69,10.75 20,10.75 Z"/>
  <path fill="#292D32" d="M20,6.75 C18.48,6.75 17.25,5.52 17.25,4 C17.25,2.48 18.48,1.25 20,1.25 C21.52,1.25 22.75,2.48 22.75,4 C22.75,5.52 21.52,6.75 20,6.75 Z M20,2.75 C19.31,2.75 18.75,3.31 18.75,4 C18.75,4.69 19.31,5.25 20,5.25 C20.69,5.25 21.25,4.69 21.25,4 C21.25,3.31 20.69,2.75 20,2.75 Z"/>
  <path fill="#292D32" d="M20,22.75 C18.48,22.75 17.25,21.52 17.25,20 C17.25,18.48 18.48,17.25 20,17.25 C21.52,17.25 22.75,18.48 22.75,20 C22.75,21.52 21.52,22.75 20,22.75 Z M20,18.75 C19.31,18.75 18.75,19.31 18.75,20 C18.75,20.69 19.31,21.25 20,21.25 C20.69,21.25 21.25,20.69 21.25,20 C21.25,19.31 20.69,18.75 20,18.75 Z"/>
  <path fill="#292D32" d="M4,14.75 C2.48,14.75 1.25,13.52 1.25,12 C1.25,10.48 2.48,9.25 4,9.25 C5.52,9.25 6.75,10.48 6.75,12 C6.75,13.52 5.52,14.75 4,14.75 Z M4,10.75 C3.31,10.75 2.75,11.31 2.75,12 C2.75,12.69 3.31,13.25 4,13.25 C4.69,13.25 5.25,12.69 5.25,12 C5.25,11.31 4.69,10.75 4,10.75 Z"/>
  <path fill="#292D32" d="M18,12.75 L6,12.75 C5.59,12.75 5.25,12.41 5.25,12 C5.25,11.59 5.59,11.25 6,11.25 L18,11.25 C18.41,11.25 18.75,11.59 18.75,12 C18.75,12.41 18.41,12.75 18,12.75 Z"/>
  <path fill="#292D32" d="M18,20.75 L14,20.75 C11.58,20.75 10.25,19.42 10.25,17 L10.25,7 C10.25,4.58 11.58,3.25 14,3.25 L18,3.25 C18.41,3.25 18.75,3.59 18.75,4 C18.75,4.41 18.41,4.75 18,4.75 L14,4.75 C12.42,4.75 11.75,5.42 11.75,7 L11.75,17 C11.75,18.58 12.42,19.25 14,19.25 L18,19.25 C18.41,19.25 18.75,19.59 18.75,20 C18.75,20.41 18.41,20.75 18,20.75 Z"/>
</svg>

