<svg xmlns="http://www.w3.org/2000/svg" width="24" height="24" viewBox="0 0 24 24">
  <defs/>
  <path fill="#292D32" d="M7,8.75 L4,8.75 C2.48,8.75 1.25,7.52 1.25,6 L1.25,4 C1.25,2.48 2.48,1.25 4,1.25 L7,1.25 C8.52,1.25 9.75,2.48 9.75,4 L9.75,6 C9.75,7.52 8.52,8.75 7,8.75 Z M4,2.75 C3.31,2.75 2.75,3.31 2.75,4 L2.75,6 C2.75,6.69 3.31,7.25 4,7.25 L7,7.25 C7.69,7.25 8.25,6.69 8.25,6 L8.25,4 C8.25,3.31 7.69,2.75 7,2.75 L4,2.75 Z"/>
  <path fill="#292D32" d="M20.8,7.75 L17.2,7.75 C16.12,7.75 15.25,6.87 15.25,5.8 L15.25,4.2 C15.25,3.12 16.13,2.25 17.2,2.25 L20.8,2.25 C21.88,2.25 22.75,3.13 22.75,4.2 L22.75,5.8 C22.75,6.88 21.88,7.75 20.8,7.75 Z M17.2,3.75 C16.96,3.75 16.75,3.96 16.75,4.2 L16.75,5.8 C16.75,6.04 16.96,6.25 17.2,6.25 L20.8,6.25 C21.04,6.25 21.25,6.04 21.25,5.8 L21.25,4.2 C21.25,3.96 21.04,3.75 20.8,3.75 L17.2,3.75 Z"/>
  <path fill="#292D32" d="M20.8,15.25 L17.2,15.25 C16.12,15.25 15.25,14.37 15.25,13.3 L15.25,11.7 C15.25,10.62 16.13,9.75 17.2,9.75 L20.8,9.75 C21.88,9.75 22.75,10.63 22.75,11.7 L22.75,13.3 C22.75,14.38 21.88,15.25 20.8,15.25 Z M17.2,11.25 C16.96,11.25 16.75,11.46 16.75,11.7 L16.75,13.3 C16.75,13.54 16.96,13.75 17.2,13.75 L20.8,13.75 C21.04,13.75 21.25,13.54 21.25,13.3 L21.25,11.7 C21.25,11.46 21.04,11.25 20.8,11.25 L17.2,11.25 Z"/>
  <path fill="#292D32" d="M16,5.75 L9,5.75 C8.59,5.75 8.25,5.41 8.25,5 C8.25,4.59 8.59,4.25 9,4.25 L16,4.25 C16.41,4.25 16.75,4.59 16.75,5 C16.75,5.41 16.41,5.75 16,5.75 Z"/>
  <path fill="white" d="M12.5,5 L12.5,18 C12.5,19.1 13.4,20 14.5,20 L16,20"/>
  <path fill="#292D32" d="M16,20.75 L14.5,20.75 C12.98,20.75 11.75,19.52 11.75,18 L11.75,5 C11.75,4.59 12.09,4.25 12.5,4.25 C12.91,4.25 13.25,4.59 13.25,5 L13.25,18 C13.25,18.69 13.81,19.25 14.5,19.25 L16,19.25 C16.41,19.25 16.75,19.59 16.75,20 C16.75,20.41 16.41,20.75 16,20.75 Z"/>
  <path fill="#292D32" d="M16,13.25 L12.5,13.25 C12.09,13.25 11.75,12.91 11.75,12.5 C11.75,12.09 12.09,11.75 12.5,11.75 L16,11.75 C16.41,11.75 16.75,12.09 16.75,12.5 C16.75,12.91 16.41,13.25 16,13.25 Z"/>
  <path fill="#292D32" d="M20.8,22.75 L17.2,22.75 C16.12,22.75 15.25,21.87 15.25,20.8 L15.25,19.2 C15.25,18.12 16.13,17.25 17.2,17.25 L20.8,17.25 C21.88,17.25 22.75,18.13 22.75,19.2 L22.75,20.8 C22.75,21.88 21.88,22.75 20.8,22.75 Z M17.2,18.75 C16.96,18.75 16.75,18.96 16.75,19.2 L16.75,20.8 C16.75,21.04 16.96,21.25 17.2,21.25 L20.8,21.25 C21.04,21.25 21.25,21.04 21.25,20.8 L21.25,19.2 C21.25,18.96 21.04,18.75 20.8,18.75 L17.2,18.75 Z"/>
</svg>

