<svg xmlns="http://www.w3.org/2000/svg" width="24" height="24" viewBox="0 0 24 24">
  <defs/>
  <path d="M5.65,7.65 L2.85,4.85 C2.54,4.54 2.76,4 3.2,4 L6.79,4 C6.92,4 7.05,4.05 7.14,4.15 L12.14,9.15 C12.45,9.46 12.23,10 11.79,10 L8.5,10 C6.57,10 5,11.57 5,13.5 C5,15.43 6.57,17 8.5,17 L10,17 L12.15,19.15 C12.46,19.46 12.24,20 11.8,20 L8.51,20 C4.92,20 2.01,17.09 2.01,13.5 C2.01,11.01 3.41,8.84 5.48,7.75 L5.65,7.65 Z"/>
  <path d="M18.35,16.35 L21.15,19.15 C21.46,19.46 21.24,20 20.8,20 L17.21,20 C17.08,20 16.95,19.95 16.86,19.85 L11.86,14.85 C11.55,14.54 11.77,14 12.21,14 L15.5,14 C17.43,14 19,12.43 19,10.5 C19,8.57 17.43,7 15.5,7 L14,7 L11.85,4.85 C11.54,4.54 11.76,4 12.2,4 L15.49,4 C19.08,4 21.99,6.91 21.99,10.5 C21.99,12.99 20.59,15.16 18.52,16.25 L18.35,16.35 Z"/>
</svg>

