<svg xmlns="http://www.w3.org/2000/svg" width="24" height="24" viewBox="0 0 24 24">
  <defs/>
  <path d="M3.279,8.471 Q3.817,7.91 4.438,7.491 L1.47,4.531 Q1.25,4.312 1.25,4.001 Q1.25,3.69 1.469,3.47 Q1.689,3.25 2,3.25 L7,3.25 Q7.311,3.25 7.53,3.47 L13.53,9.47 Q13.75,9.689 13.75,10 Q13.75,10.311 13.53,10.53 Q13.311,10.75 13,10.75 L8.5,10.75 Q5.75,10.75 5.75,13.5 Q5.75,14.875 6.438,15.562 Q7.125,16.25 8.5,16.25 L10,16.25 Q10.311,16.25 10.53,16.47 L13.53,19.47 Q13.75,19.689 13.75,20 Q13.75,20.311 13.53,20.53 Q13.311,20.75 13,20.75 L8.5,20.75 Q5.497,20.75 3.373,18.627 Q1.25,16.503 1.25,13.5 Q1.25,12.914 1.33,12.421 Q1.379,12.114 1.631,11.932 Q1.883,11.75 2.189,11.8 Q2.496,11.849 2.678,12.101 Q2.86,12.353 2.81,12.659 Q2.75,13.034 2.75,13.5 Q2.75,15.882 4.434,17.566 Q6.118,19.25 8.5,19.25 L11.189,19.25 L9.689,17.75 L8.5,17.75 Q6.742,17.75 5.496,16.504 Q4.25,15.258 4.25,13.5 Q4.25,11.742 5.496,10.496 Q6.742,9.25 8.5,9.25 L11.189,9.25 L6.689,4.75 L3.814,4.75 L6.19,7.119 Q6.27,7.2 6.324,7.301 Q6.468,7.576 6.376,7.872 Q6.284,8.169 6.009,8.314 L5.814,8.416 Q5.014,8.829 4.361,9.509 Q4.146,9.734 3.835,9.74 Q3.525,9.746 3.301,9.531 Q3.077,9.316 3.07,9.005 Q3.064,8.695 3.279,8.471 Z"/>
  <path d="M19.571,16.511 L22.53,19.47 Q22.75,19.689 22.75,20 Q22.75,20.311 22.53,20.53 Q22.311,20.75 22,20.75 L17,20.75 Q16.689,20.75 16.47,20.53 L10.47,14.53 Q10.25,14.311 10.25,14 Q10.25,13.689 10.47,13.47 Q10.689,13.25 11,13.25 L15.5,13.25 Q18.25,13.25 18.25,10.5 Q18.25,9.363 17.443,8.557 Q16.637,7.75 15.5,7.75 L14,7.75 Q13.689,7.75 13.47,7.53 L10.47,4.53 Q10.25,4.311 10.25,4 Q10.25,3.689 10.47,3.47 Q10.689,3.25 11,3.25 L15.5,3.25 Q18.503,3.25 20.627,5.373 Q22.75,7.497 22.75,10.5 Q22.75,14.465 19.571,16.511 Z M17.82,16.88 Q17.745,16.806 17.694,16.714 Q17.544,16.443 17.629,16.144 Q17.714,15.845 17.986,15.694 L18.166,15.594 Q18.173,15.59 18.181,15.586 Q21.25,13.97 21.25,10.5 Q21.25,8.118 19.566,6.434 Q17.882,4.75 15.5,4.75 L12.811,4.75 L14.311,6.25 L15.5,6.25 Q17.258,6.25 18.504,7.496 Q19.75,8.742 19.75,10.5 Q19.75,12.258 18.504,13.504 Q17.258,14.75 15.5,14.75 L12.811,14.75 L17.311,19.25 L20.189,19.25 Z"/>
</svg>

