<svg xmlns="http://www.w3.org/2000/svg" width="24" height="24" viewBox="0 0 24 24">
  <defs/>
  <path fill="white" opacity="0.58" d="M24,0 L0,0 L0,24 L24,24 L24,0 Z"/>
  <path fill="#292D32" d="M5.65,7.65 L2.85,4.85 C2.54,4.54 2.76,4 3.21,4 L6.8,4 C6.93,4 7.06,4.05 7.15,4.15 L12.149,9.15 C12.46,9.46 12.239,10 11.8,10 L8.51,10 C6.58,10 5.01,11.57 5.01,13.5 C5.01,15.43 6.58,17 8.51,17 L10.01,17 L12.159,19.15 C12.47,19.46 12.249,20 11.809,20 L8.52,20 C4.93,20 2.02,17.09 2.02,13.5 C2.02,11.01 3.42,8.84 5.49,7.75 L5.65,7.65 Z"/>
  <path fill="#292D32" opacity="0.4" d="M18.35,16.35 L21.15,19.15 C21.46,19.46 21.24,20 20.8,20 L17.21,20 C17.08,20 16.95,19.95 16.86,19.85 L11.86,14.85 C11.55,14.54 11.77,14 12.21,14 L15.5,14 C17.43,14 19,12.43 19,10.5 C19,8.57 17.43,7 15.5,7 L14,7 L11.85,4.85 C11.54,4.54 11.76,4 12.21,4 L15.5,4 C19.09,4 22,6.91 22,10.5 C22,12.99 20.6,15.16 18.53,16.25 L18.35,16.35 Z"/>
</svg>

