<svg xmlns="http://www.w3.org/2000/svg" width="24" height="24" viewBox="0 0 24 24">
  <defs/>
  <path fill="#17191C" d="M4.409,7.469 L1.47,4.53 Q1.25,4.311 1.25,4 Q1.25,3.689 1.47,3.47 Q1.689,3.25 2,3.25 L7,3.25 Q7.311,3.25 7.53,3.47 L13.53,9.47 Q13.75,9.689 13.75,10 Q13.75,10.311 13.53,10.53 Q13.311,10.75 13,10.75 L8.5,10.75 Q5.75,10.75 5.75,13.5 Q5.75,16.25 8.5,16.25 L10,16.25 Q10.311,16.25 10.53,16.47 L13.53,19.47 Q13.75,19.689 13.75,20 Q13.75,20.311 13.53,20.53 Q13.311,20.75 13,20.75 L8.5,20.75 Q5.489,20.75 3.37,18.63 Q1.25,16.511 1.25,13.5 Q1.25,9.523 4.409,7.469 Z M6.23,7.17 Q6.45,7.389 6.45,7.7 Q6.45,8.011 6.23,8.23 Q6.011,8.45 5.7,8.45 L5.689,8.45 Q2.75,10.078 2.75,13.5 Q2.75,15.889 4.43,17.57 Q6.111,19.25 8.5,19.25 L11.189,19.25 L9.689,17.75 L8.5,17.75 Q6.764,17.75 5.507,16.493 Q4.25,15.236 4.25,13.5 Q4.25,11.764 5.507,10.507 Q6.764,9.25 8.5,9.25 L11.189,9.25 L6.689,4.75 L3.811,4.75 Z"/>
  <path fill="#17191C" d="M19.591,16.531 L22.53,19.47 Q22.75,19.689 22.75,20 Q22.75,20.311 22.53,20.53 Q22.311,20.75 22,20.75 L17,20.75 Q16.689,20.75 16.47,20.53 L10.47,14.53 Q10.25,14.311 10.25,14 Q10.25,13.689 10.47,13.47 Q10.689,13.25 11,13.25 L15.5,13.25 Q18.25,13.25 18.25,10.5 Q18.25,9.386 17.432,8.568 Q16.614,7.75 15.5,7.75 L14,7.75 Q13.689,7.75 13.47,7.53 L10.47,4.53 Q10.25,4.311 10.25,4 Q10.25,3.689 10.47,3.47 Q10.689,3.25 11,3.25 L15.5,3.25 Q18.511,3.25 20.63,5.37 Q22.75,7.489 22.75,10.5 Q22.75,14.477 19.591,16.531 Z M17.77,16.83 Q17.55,16.611 17.55,16.3 Q17.55,15.989 17.77,15.77 Q17.989,15.55 18.3,15.55 L18.311,15.55 Q21.25,13.922 21.25,10.5 Q21.25,8.111 19.57,6.43 Q17.889,4.75 15.5,4.75 L12.811,4.75 L14.311,6.25 L15.5,6.25 Q17.236,6.25 18.493,7.507 Q19.75,8.764 19.75,10.5 Q19.75,12.236 18.493,13.493 Q17.236,14.75 15.5,14.75 L12.811,14.75 L17.311,19.25 L20.189,19.25 Z"/>
</svg>

