<svg xmlns="http://www.w3.org/2000/svg" width="24" height="24" viewBox="0 0 24 24">
  <defs/>
  <path d="M13,20.75 L8.5,20.75 C4.5,20.75 1.25,17.5 1.25,13.5 C1.25,11.07 2.45,8.84 4.44,7.5 L1.47,4.53 C1.26,4.32 1.19,3.99 1.31,3.71 C1.43,3.43 1.7,3.25 2,3.25 L7,3.25 C7.2,3.25 7.39,3.33 7.53,3.47 L13.53,9.47 C13.74,9.68 13.81,10.01 13.69,10.29 C13.57,10.57 13.3,10.75 13,10.75 L8.5,10.75 C6.98,10.75 5.75,11.98 5.75,13.5 C5.75,15.02 6.98,16.25 8.5,16.25 L10,16.25 C10.2,16.25 10.39,16.33 10.53,16.47 L13.53,19.47 C13.74,19.68 13.81,20.01 13.69,20.29 C13.57,20.57 13.3,20.75 13,20.75 Z M3.81,4.75 L6.18,7.12 C6.35,7.29 6.43,7.53 6.39,7.77 C6.35,8.01 6.2,8.21 5.99,8.32 L5.8,8.42 C3.92,9.41 2.74,11.36 2.74,13.5 C2.74,16.67 5.32,19.25 8.49,19.25 L11.18,19.25 L9.68,17.75 L8.49,17.75 C6.15,17.75 4.24,15.84 4.24,13.5 C4.24,11.16 6.15,9.25 8.49,9.25 L11.18,9.25 L6.68,4.75 L3.81,4.75 Z"/>
  <path d="M22,20.75 L17,20.75 C16.8,20.75 16.61,20.67 16.471,20.53 L10.47,14.53 C10.261,14.32 10.191,13.99 10.31,13.71 C10.431,13.43 10.7,13.25 11.001,13.25 L15.501,13.25 C17.02,13.25 18.25,12.02 18.25,10.5 C18.25,8.98 17.02,7.75 15.501,7.75 L14.001,7.75 C13.8,7.75 13.611,7.67 13.47,7.53 L10.47,4.53 C10.261,4.32 10.191,3.99 10.31,3.71 C10.431,3.43 10.7,3.25 11.001,3.25 L15.501,3.25 C19.5,3.25 22.75,6.5 22.75,10.5 C22.75,12.93 21.55,15.16 19.561,16.5 L22.53,19.47 C22.741,19.68 22.811,20.01 22.691,20.29 C22.57,20.57 22.3,20.75 22,20.75 Z M17.311,19.25 L20.191,19.25 L17.82,16.88 C17.651,16.71 17.57,16.47 17.61,16.23 C17.651,15.99 17.8,15.79 18.011,15.68 L18.201,15.58 C20.081,14.59 21.261,12.64 21.261,10.5 C21.261,7.33 18.68,4.75 15.511,4.75 L12.82,4.75 L14.32,6.25 L15.511,6.25 C17.851,6.25 19.761,8.16 19.761,10.5 C19.761,12.84 17.851,14.75 15.511,14.75 L12.82,14.75 L17.311,19.25 Z"/>
</svg>

