<svg xmlns="http://www.w3.org/2000/svg" width="24" height="24" viewBox="0 0 24 24">
  <defs/>
  <path d="M12,2 C6.48,2 2,6.48 2,12 C2,17.52 6.48,22 12,22 C17.52,22 22,17.52 22,12 C22,6.48 17.52,2 12,2 Z M15.38,12.43 L16.84,13.27 C17.47,13.63 17.68,14.44 17.32,15.07 C16.96,15.7 16.15,15.91 15.52,15.55 L14.06,14.71 C13.73,14.52 13.31,14.76 13.31,15.14 L13.31,16.82 C13.31,17.54 12.72,18.14 11.99,18.14 C11.26,18.14 10.67,17.55 10.67,16.82 L10.67,15.14 C10.67,14.76 10.25,14.51 9.92,14.71 L8.46,15.55 C7.83,15.91 7.02,15.7 6.66,15.07 C6.3,14.44 6.51,13.63 7.14,13.27 L8.6,12.43 C8.93,12.24 8.93,11.76 8.6,11.56 L7.14,10.72 C6.51,10.36 6.3,9.55 6.66,8.92 C7.02,8.29 7.83,8.08 8.46,8.44 L9.92,9.28 C10.25,9.47 10.67,9.23 10.67,8.85 L10.67,7.17 C10.67,6.45 11.26,5.85 11.99,5.85 C12.72,5.85 13.31,6.44 13.31,7.17 L13.31,8.85 C13.31,9.23 13.73,9.48 14.06,9.28 L15.52,8.44 C16.15,8.08 16.96,8.29 17.32,8.92 C17.68,9.55 17.47,10.36 16.84,10.72 L15.38,11.56 C15.05,11.76 15.05,12.24 15.38,12.43 Z"/>
</svg>

