<svg xmlns="http://www.w3.org/2000/svg" width="24" height="24" viewBox="0 0 24 24">
  <defs/>
  <path d="M12,18.9 Q9.93,18.9 9.93,16.83 L9.93,7.17 Q9.93,5.1 12,5.1 Q12.851,5.1 13.459,5.705 Q14.07,6.312 14.07,7.17 L14.07,16.83 Q14.07,18.9 12,18.9 Z M12,17.4 Q12.57,17.4 12.57,16.83 L12.57,7.17 Q12.57,6.6 12,6.6 Q11.43,6.6 11.43,7.17 L11.43,16.83 Q11.43,17.4 12,17.4 Z"/>
  <path d="M6.032,8.552 Q6.457,7.813 7.287,7.594 Q8.112,7.376 8.852,7.799 L17.225,12.63 Q18.11,13.136 18.303,13.834 Q18.5,14.544 17.981,15.452 Q17.556,16.196 16.723,16.416 Q15.898,16.634 15.158,16.211 L6.785,11.38 Q6.042,10.943 5.821,10.118 Q5.597,9.286 6.032,8.552 Z M7.324,9.314 Q7.21,9.506 7.269,9.729 Q7.331,9.961 7.535,10.08 L15.902,14.909 Q16.109,15.027 16.34,14.966 Q16.565,14.906 16.679,14.708 Q16.964,14.209 16.475,13.93 L8.108,9.101 Q7.901,8.983 7.67,9.044 Q7.445,9.104 7.331,9.302 Z"/>
  <path d="M6.028,15.442 Q5.605,14.702 5.823,13.877 Q6.043,13.044 6.787,12.619 L15.155,7.79 Q16.065,7.27 16.776,7.468 Q17.474,7.661 17.981,8.548 Q19.01,10.349 17.222,11.371 L8.854,16.2 Q8.117,16.633 7.284,16.409 Q6.454,16.187 6.028,15.442 Z M7.331,14.698 Q7.446,14.9 7.672,14.961 Q7.899,15.021 8.105,14.9 L16.477,10.069 Q16.676,9.955 16.736,9.73 Q16.797,9.499 16.678,9.292 Q16.401,8.806 15.904,9.09 L7.532,13.921 Q7.333,14.035 7.273,14.26 Q7.212,14.491 7.331,14.698 Z"/>
  <path fill="#17191C" d="M4.6,6.449 Q2.75,8.922 2.75,12 Q2.75,15.829 5.46,18.54 Q8.171,21.25 12,21.25 Q15.829,21.25 18.54,18.54 Q21.25,15.829 21.25,12 Q21.25,8.171 18.54,5.46 Q15.829,2.75 12,2.75 Q10.031,2.75 8.276,3.535 Q7.993,3.661 7.702,3.551 Q7.412,3.44 7.285,3.156 Q7.159,2.873 7.269,2.582 Q7.38,2.292 7.664,2.165 Q9.711,1.25 12,1.25 Q16.451,1.25 19.6,4.4 Q22.75,7.549 22.75,12 Q22.75,16.451 19.6,19.6 Q16.451,22.75 12,22.75 Q7.549,22.75 4.4,19.6 Q1.25,16.451 1.25,12 Q1.25,8.422 3.4,5.551 Q3.586,5.302 3.893,5.258 Q4.201,5.213 4.449,5.4 Q4.698,5.586 4.742,5.893 Q4.787,6.201 4.6,6.449 Z"/>
</svg>

