<svg xmlns="http://www.w3.org/2000/svg" width="24" height="24" viewBox="0 0 24 24">
  <defs/>
  <path fill="white" opacity="0.58" d="M24,0 L0,0 L0,24 L24,24 L24,0 Z"/>
  <path fill="#292D32" opacity="0.4" d="M12,22 C17.523,22 22,17.523 22,12 C22,6.477 17.523,2 12,2 C6.477,2 2,6.477 2,12 C2,17.523 6.477,22 12,22 Z"/>
  <path fill="#292D32" d="M16.84,13.27 L15.38,12.43 C15.05,12.24 15.05,11.76 15.38,11.56 L16.84,10.72 C17.47,10.36 17.68,9.55 17.32,8.92 C16.96,8.29 16.15,8.08 15.52,8.44 L14.06,9.28 C13.73,9.47 13.31,9.23 13.31,8.85 L13.31,7.17 C13.31,6.45 12.72,5.85 11.99,5.85 C11.26,5.85 10.67,6.44 10.67,7.17 L10.67,8.85 C10.67,9.23 10.25,9.48 9.92,9.28 L8.46,8.44 C7.83,8.08 7.02,8.29 6.66,8.92 C6.3,9.55 6.51,10.36 7.14,10.72 L8.6,11.56 C8.93,11.75 8.93,12.23 8.6,12.43 L7.14,13.27 C6.51,13.63 6.3,14.44 6.66,15.07 C7.02,15.7 7.83,15.91 8.46,15.55 L9.92,14.71 C10.25,14.52 10.67,14.76 10.67,15.14 L10.67,16.82 C10.67,17.54 11.26,18.14 11.99,18.14 C12.72,18.14 13.31,17.55 13.31,16.82 L13.31,15.14 C13.31,14.76 13.73,14.51 14.06,14.71 L15.52,15.55 C16.15,15.91 16.96,15.7 17.32,15.07 C17.69,14.45 17.47,13.64 16.84,13.27 Z"/>
</svg>

