<svg xmlns="http://www.w3.org/2000/svg" width="24" height="24" viewBox="0 0 24 24">
  <defs/>
  <path d="M12,18.9 C10.86,18.9 9.93,17.97 9.93,16.83 L9.93,7.17 C9.93,6.03 10.86,5.1 12,5.1 C13.14,5.1 14.07,6.03 14.07,7.17 L14.07,16.83 C14.07,17.97 13.14,18.9 12,18.9 Z M12,6.6 C11.69,6.6 11.43,6.85 11.43,7.17 L11.43,16.83 C11.43,17.14 11.68,17.4 12,17.4 C12.32,17.4 12.57,17.15 12.57,16.83 L12.57,7.17 C12.57,6.86 12.31,6.6 12,6.6 Z"/>
  <path d="M16.18,16.48 C15.83,16.48 15.47,16.39 15.15,16.2 L6.78,11.37 C6.3,11.09 5.96,10.65 5.82,10.11 C5.68,9.58 5.75,9.02 6.03,8.54 C6.6,7.55 7.87,7.21 8.85,7.78 L17.22,12.61 C18.21,13.18 18.55,14.45 17.98,15.43 C17.59,16.11 16.89,16.48 16.18,16.48 Z M7.82,9.02 C7.77,9.02 7.72,9.03 7.67,9.04 C7.52,9.08 7.4,9.17 7.32,9.3 C7.25,9.43 7.23,9.58 7.26,9.73 C7.3,9.88 7.39,10 7.52,10.08 L15.89,14.91 C16.16,15.06 16.51,14.97 16.67,14.7 C16.83,14.43 16.73,14.08 16.46,13.92 L8.09,9.09 C8.01,9.04 7.92,9.02 7.82,9.02 Z"/>
  <path d="M7.82,16.48 C7.1,16.48 6.41,16.11 6.03,15.45 C5.46,14.46 5.8,13.2 6.79,12.63 L15.16,7.8 C16.15,7.23 17.41,7.57 17.98,8.56 C18.26,9.04 18.33,9.59 18.19,10.13 C18.05,10.66 17.71,11.11 17.23,11.39 L8.86,16.22 C8.53,16.39 8.17,16.48 7.82,16.48 Z M7.32,14.7 C7.47,14.97 7.83,15.06 8.1,14.91 L16.47,10.08 C16.6,10 16.69,9.88 16.73,9.73 C16.77,9.58 16.75,9.43 16.67,9.3 C16.59,9.17 16.47,9.08 16.32,9.04 C16.17,9 16.02,9.02 15.89,9.1 L7.52,13.93 C7.26,14.08 7.17,14.43 7.32,14.7 Z"/>
  <path d="M12,22.75 C6.07,22.75 1.25,17.93 1.25,12 C1.25,6.07 6.07,1.25 12,1.25 C17.93,1.25 22.75,6.07 22.75,12 C22.75,17.93 17.93,22.75 12,22.75 Z M12,2.75 C6.9,2.75 2.75,6.9 2.75,12 C2.75,17.1 6.9,21.25 12,21.25 C17.1,21.25 21.25,17.1 21.25,12 C21.25,6.9 17.1,2.75 12,2.75 Z"/>
</svg>

