<svg xmlns="http://www.w3.org/2000/svg" width="24" height="24" viewBox="0 0 24 24">
  <defs/>
  <path fill="#292D32" d="M21.039,13.28 L20.119,12.38 L12.369,20.12 L13.299,21.05 C14.079,21.83 14.889,22.22 15.689,22.22 C16.489,22.22 17.299,21.83 18.079,21.05 L21.039,18.09 C22.629,16.49 22.629,14.88 21.039,13.28 Z"/>
  <path fill="#292D32" d="M10.69,2.93 C9.12,1.36 7.47,1.36 5.9,2.93 L2.93,5.89 C1.37,7.46 1.37,9.11 2.93,10.68 L3.85,11.6 L11.6,3.85 L10.69,2.93 Z"/>
  <path fill="#292D32" opacity="0.4" d="M21.81,3.94 C20.5,7.21 17.51,11.48 14.66,14.27 C14.25,11.69 12.19,9.67 9.59,9.31 C12.39,6.45 16.69,3.42 19.97,2.1 C20.55,1.88 21.13,2.05 21.49,2.41 C21.87,2.79 22.05,3.36 21.81,3.94 Z"/>
  <path fill="#292D32" d="M14.659,14.27 C14.159,14.76 13.659,15.21 13.18,15.59 L11.21,17.17 C10.96,17.35 10.71,17.5 10.43,17.62 C10.43,17.43 10.409,17.24 10.389,17.04 C10.28,16.21 9.9,15.42 9.23,14.75 C8.54,14.07 7.72,13.68 6.87,13.57 C6.67,13.55 6.46,13.54 6.27,13.55 C6.38,13.24 6.55,12.95 6.76,12.71 L8.32,10.74 C8.69,10.27 9.12,9.79 9.59,9.31 C12.19,9.67 14.249,11.69 14.659,14.27 Z"/>
  <path fill="#292D32" opacity="0.4" d="M10.43,17.62 C10.43,18.72 10.01,19.77 9.21,20.56 C8.6,21.18 7.78,21.6 6.78,21.72 L4.33,21.99 C2.99,22.14 1.84,20.99 1.99,19.64 L2.26,17.18 C2.5,14.99 4.33,13.59 6.27,13.55 C6.46,13.54 6.67,13.55 6.87,13.57 C7.72,13.68 8.54,14.07 9.23,14.75 C9.9,15.42 10.28,16.21 10.39,17.04 C10.41,17.24 10.43,17.43 10.43,17.62 Z"/>
</svg>

