<svg xmlns="http://www.w3.org/2000/svg" width="24" height="24" viewBox="0 0 24 24">
  <defs/>
  <path fill="#292D32" d="M13.649,16.175 L11.679,17.755 Q11.664,17.767 11.648,17.779 Q11.133,18.15 10.704,18.318 Q10.415,18.432 10.13,18.308 Q9.846,18.183 9.732,17.894 Q9.68,17.762 9.68,17.62 Q9.68,17.362 9.649,17.167 Q9.648,17.157 9.646,17.147 Q9.509,16.1 8.7,15.29 Q7.875,14.465 6.801,14.317 Q6.762,14.315 6.705,14.312 Q6.445,14.296 6.345,14.306 Q6.035,14.337 5.795,14.141 Q5.555,13.944 5.524,13.635 Q5.507,13.468 5.563,13.309 Q5.775,12.712 6.183,12.241 L7.732,10.284 Q12.534,4.273 19.692,1.414 Q19.7,1.41 19.708,1.407 Q21.055,0.905 22.02,1.89 Q23.05,2.899 22.505,4.223 Q19.635,11.375 13.649,16.175 Z M21.117,3.653 Q21.279,3.262 20.967,2.957 Q20.96,2.95 20.952,2.943 Q20.67,2.653 20.239,2.81 Q13.455,5.523 8.908,11.216 L7.545,12.937 Q8.785,13.255 9.76,14.23 Q10.703,15.172 11.018,16.363 L12.711,15.005 Q18.391,10.45 21.114,3.661 Z"/>
  <path fill="#292D32" d="M11.18,17.62 Q11.18,19.653 9.754,21.097 Q8.602,22.249 6.888,22.474 L4.412,22.746 Q3.046,22.898 2.071,21.921 Q1.093,20.94 1.255,19.562 L1.524,17.108 Q1.985,12.904 6.254,12.81 Q6.502,12.799 6.919,12.821 Q6.948,12.823 6.976,12.826 Q8.593,13.035 9.774,14.234 Q10.94,15.4 11.144,16.953 Q11.147,16.981 11.149,17.011 Q11.152,17.067 11.16,17.187 Q11.18,17.467 11.18,17.62 Z M9.68,17.62 Q9.68,17.52 9.664,17.292 Q9.657,17.187 9.653,17.121 Q9.509,16.09 8.706,15.287 Q7.898,14.467 6.811,14.317 Q6.483,14.301 6.317,14.309 Q6.306,14.31 6.295,14.31 Q3.333,14.371 3.016,17.272 L2.745,19.738 Q2.668,20.394 3.134,20.862 Q3.598,21.327 4.248,21.255 L6.692,20.986 Q7.902,20.828 8.686,20.043 Q9.68,19.037 9.68,17.62 Z"/>
  <path fill="#292D32" d="M13.49,14.47 Q13.49,10.49 9.51,10.49 Q9.199,10.49 8.98,10.27 Q8.76,10.051 8.76,9.74 Q8.76,9.429 8.98,9.21 Q9.199,8.99 9.51,8.99 Q11.778,8.99 13.384,10.596 Q14.99,12.202 14.99,14.47 Q14.99,14.781 14.77,15 Q14.551,15.22 14.24,15.22 Q13.929,15.22 13.71,15 Q13.49,14.781 13.49,14.47 Z"/>
  <path fill="#292D32" d="M20.647,12.196 L21.387,12.926 Q22.728,14.267 22.728,15.685 Q22.728,17.103 21.39,18.44 L18.43,21.4 Q17.108,22.722 15.685,22.722 Q14.262,22.723 12.94,21.4 Q12.72,21.181 12.72,20.87 Q12.72,20.559 12.94,20.34 Q13.159,20.12 13.47,20.12 Q13.781,20.12 14,20.34 Q15.685,22.024 17.37,20.34 L20.33,17.38 Q22.024,15.685 20.333,13.994 L19.593,13.264 Q19.372,13.046 19.37,12.735 Q19.368,12.424 19.586,12.203 Q19.804,11.982 20.115,11.98 Q20.426,11.978 20.647,12.196 Z"/>
  <path fill="#292D32" d="M2.576,11.037 Q-0.139,8.285 2.576,5.533 L5.54,2.57 Q6.862,1.248 8.285,1.248 Q9.708,1.248 11.03,2.57 L11.77,3.31 Q11.99,3.529 11.99,3.84 Q11.99,4.151 11.77,4.37 Q11.551,4.59 11.24,4.59 Q10.929,4.59 10.71,4.37 L9.97,3.63 Q9.087,2.748 8.285,2.748 Q7.483,2.748 6.6,3.63 L3.644,6.587 Q1.968,8.285 3.644,9.983 Q3.862,10.205 3.86,10.515 Q3.858,10.826 3.637,11.044 Q3.416,11.262 3.105,11.26 Q2.794,11.258 2.576,11.037 Z"/>
  <path fill="#292D32" d="M11.78,4.38 L8.08,8.08 Q7.861,8.3 7.55,8.3 Q7.239,8.3 7.02,8.08 Q6.8,7.861 6.8,7.55 Q6.8,7.239 7.02,7.02 L10.72,3.32 Q10.939,3.1 11.25,3.1 Q11.561,3.1 11.78,3.32 Q12,3.539 12,3.85 Q12,4.161 11.78,4.38 Z"/>
  <path fill="#292D32" d="M20.649,13.261 L17.689,16.211 Q17.469,16.431 17.159,16.43 Q16.848,16.429 16.629,16.209 Q16.409,15.989 16.41,15.679 Q16.411,15.368 16.631,15.149 L19.591,12.199 Q19.811,11.979 20.121,11.98 Q20.432,11.981 20.651,12.201 Q20.871,12.421 20.87,12.731 Q20.869,13.042 20.649,13.261 Z"/>
</svg>

