<svg xmlns="http://www.w3.org/2000/svg" width="24" height="24" viewBox="0 0 24 24">
  <defs/>
  <path fill="#292D32" d="M10.43,18.37 C10.28,18.37 10.14,18.33 10.01,18.24 C9.8,18.1 9.68,17.87 9.68,17.62 C9.68,17.47 9.67,17.31 9.65,17.15 C9.56,16.44 9.24,15.82 8.7,15.28 C8.16,14.74 7.49,14.4 6.77,14.31 C6.65,14.3 6.48,14.29 6.32,14.3 C6.06,14.32 5.82,14.21 5.67,14 C5.52,13.8 5.48,13.53 5.56,13.29 C5.71,12.88 5.93,12.51 6.19,12.21 L7.73,10.27 C10.38,6.96 15.75,2.98 19.68,1.4 C20.52,1.08 21.4,1.27 22.01,1.87 C22.64,2.5 22.83,3.4 22.5,4.22 C20.92,8.16 16.95,13.52 13.64,16.17 L11.67,17.75 C11.3,18.02 11,18.19 10.7,18.31 C10.62,18.35 10.52,18.37 10.43,18.37 Z M7.54,12.94 C8.38,13.16 9.13,13.6 9.76,14.23 C10.39,14.85 10.81,15.57 11.02,16.37 L12.71,15.01 C15.85,12.5 19.62,7.41 21.11,3.67 C21.26,3.3 21.05,3.04 20.95,2.95 C20.88,2.88 20.62,2.66 20.22,2.81 C16.5,4.31 11.41,8.08 8.89,11.22 L7.54,12.94 Z"/>
  <path fill="#292D32" d="M4.079,22.75 C3.329,22.75 2.609,22.45 2.069,21.91 C1.449,21.29 1.149,20.43 1.249,19.55 L1.519,17.09 C1.779,14.65 3.779,12.84 6.259,12.79 C6.449,12.78 6.699,12.79 6.929,12.81 C8.019,12.95 8.989,13.44 9.769,14.22 C10.539,14.99 10.999,15.91 11.139,16.94 C11.169,17.16 11.189,17.4 11.189,17.61 C11.189,18.93 10.679,20.16 9.759,21.09 C8.989,21.85 7.999,22.32 6.879,22.46 L4.409,22.73 C4.299,22.74 4.189,22.75 4.079,22.75 Z M6.449,14.3 C6.409,14.3 6.359,14.3 6.319,14.3 C4.809,14.33 3.209,15.36 3.009,17.26 L2.739,19.72 C2.689,20.14 2.839,20.55 3.129,20.85 C3.419,21.14 3.829,21.29 4.239,21.24 L6.699,20.97 C7.469,20.87 8.159,20.55 8.679,20.03 C9.319,19.39 9.679,18.53 9.679,17.61 C9.679,17.46 9.669,17.3 9.649,17.14 C9.559,16.43 9.239,15.81 8.699,15.27 C8.159,14.73 7.489,14.39 6.769,14.3 C6.689,14.3 6.569,14.3 6.449,14.3 Z"/>
  <path fill="#292D32" d="M14.24,15.22 C13.83,15.22 13.49,14.88 13.49,14.47 C13.49,12.27 11.7,10.49 9.51,10.49 C9.1,10.49 8.76,10.15 8.76,9.74 C8.76,9.33 9.09,8.99 9.5,8.99 C12.52,8.99 14.98,11.45 14.98,14.47 C14.99,14.89 14.65,15.22 14.24,15.22 Z"/>
  <path fill="#292D32" d="M15.68,22.73 C14.75,22.73 13.82,22.29 12.93,21.4 C12.64,21.11 12.64,20.63 12.93,20.34 C13.22,20.05 13.7,20.05 13.99,20.34 C15.17,21.52 16.18,21.52 17.36,20.34 L20.32,17.38 C21.51,16.19 21.51,15.18 20.32,14 L19.58,13.27 C19.29,12.98 19.28,12.5 19.57,12.21 C19.86,11.91 20.34,11.91 20.63,12.2 L21.37,12.93 C23.15,14.71 23.15,16.66 21.37,18.44 L18.41,21.4 C17.54,22.28 16.61,22.73 15.68,22.73 Z"/>
  <path fill="#292D32" d="M3.11,11.26 C2.92,11.26 2.72,11.19 2.58,11.04 C0.82,9.27 0.82,7.31 2.58,5.54 L5.54,2.58 C7.3,0.82 9.28,0.82 11.04,2.58 L11.78,3.32 C12.07,3.61 12.07,4.09 11.78,4.38 C11.49,4.67 11.01,4.67 10.72,4.38 L9.97,3.64 C8.79,2.46 7.77,2.46 6.6,3.64 L3.64,6.6 C2.46,7.79 2.46,8.8 3.64,9.99 C3.93,10.28 3.93,10.76 3.64,11.05 C3.49,11.19 3.3,11.26 3.11,11.26 Z"/>
  <path fill="#292D32" d="M7.55,8.3 C7.36,8.3 7.17,8.23 7.02,8.08 C6.73,7.79 6.73,7.31 7.02,7.02 L10.72,3.32 C11.01,3.03 11.49,3.03 11.78,3.32 C12.07,3.61 12.07,4.09 11.78,4.38 L8.08,8.08 C7.93,8.23 7.74,8.3 7.55,8.3 Z"/>
  <path fill="#292D32" d="M17.16,16.43 C16.97,16.43 16.78,16.36 16.63,16.21 C16.34,15.92 16.34,15.44 16.63,15.15 L19.59,12.19 C19.88,11.9 20.36,11.9 20.65,12.19 C20.94,12.48 20.94,12.96 20.65,13.25 L17.69,16.21 C17.55,16.36 17.36,16.43 17.16,16.43 Z"/>
</svg>

