<svg xmlns="http://www.w3.org/2000/svg" width="24" height="24" viewBox="0 0 24 24">
  <defs/>
  <path fill="#292D32" d="M17.649,2.357 Q18.711,1.795 19.679,1.405 Q19.688,1.401 19.698,1.397 Q21.05,0.893 22.017,1.887 Q23.035,2.904 22.495,4.233 Q19.627,11.384 13.639,16.185 L11.669,17.765 Q11.654,17.777 11.638,17.789 Q11.123,18.16 10.694,18.328 Q10.405,18.442 10.12,18.318 Q9.835,18.193 9.722,17.904 Q9.67,17.772 9.67,17.63 Q9.67,17.372 9.639,17.177 Q9.637,17.167 9.636,17.157 Q9.499,16.11 8.689,15.3 Q7.864,14.475 6.79,14.327 Q6.752,14.325 6.695,14.322 Q6.435,14.306 6.334,14.316 Q6.025,14.347 5.785,14.151 Q5.544,13.954 5.513,13.645 Q5.497,13.478 5.553,13.319 Q5.765,12.722 6.173,12.251 L7.722,10.294 Q9.976,7.481 13.997,4.638 Q14.25,4.458 14.557,4.511 Q14.863,4.563 15.042,4.817 Q15.222,5.071 15.169,5.377 Q15.116,5.683 14.863,5.862 Q11.014,8.584 8.898,11.226 L7.535,12.947 Q8.775,13.265 9.75,14.24 Q10.692,15.182 11.008,16.373 L12.701,15.015 Q18.381,10.46 21.105,3.668 Q21.27,3.261 20.942,2.933 Q20.66,2.643 20.23,2.8 Q19.338,3.16 18.351,3.683 Q18.076,3.828 17.779,3.737 Q17.482,3.646 17.337,3.371 Q17.192,3.096 17.283,2.8 Q17.374,2.503 17.649,2.357 Z"/>
  <path fill="#292D32" d="M11.179,17.62 Q11.179,19.652 9.753,21.097 Q8.601,22.248 6.887,22.473 L4.411,22.745 Q3.045,22.898 2.071,21.921 Q1.092,20.94 1.254,19.562 L1.524,17.108 Q1.985,12.903 6.253,12.81 Q6.5,12.799 6.919,12.821 Q6.947,12.822 6.976,12.826 Q8.593,13.035 9.773,14.233 Q10.94,15.399 11.143,16.952 Q11.147,16.981 11.148,17.01 Q11.151,17.067 11.16,17.187 Q11.179,17.467 11.179,17.62 Z M9.679,17.62 Q9.679,17.519 9.663,17.292 Q9.656,17.187 9.652,17.121 Q9.508,16.089 8.705,15.286 Q7.898,14.467 6.81,14.317 Q6.481,14.301 6.317,14.309 Q6.306,14.309 6.295,14.31 Q3.333,14.371 3.015,17.272 L2.744,19.737 Q2.667,20.394 3.133,20.861 Q3.597,21.327 4.247,21.254 L6.692,20.986 Q7.901,20.827 8.686,20.043 Q9.679,19.037 9.679,17.62 Z"/>
  <path fill="#292D32" d="M13.49,14.47 Q13.49,12.823 12.323,11.657 Q11.157,10.49 9.51,10.49 Q9.199,10.49 8.979,10.271 Q8.76,10.051 8.76,9.74 Q8.76,9.43 8.979,9.21 Q9.199,8.99 9.51,8.99 Q11.778,8.99 13.384,10.596 Q14.99,12.202 14.99,14.47 Q14.99,14.781 14.77,15.001 Q14.55,15.22 14.24,15.22 Q13.929,15.22 13.709,15.001 Q13.49,14.781 13.49,14.47 Z"/>
  <path fill="#292D32" d="M20.647,12.196 L21.387,12.926 Q22.728,14.267 22.728,15.685 Q22.728,17.103 21.391,18.44 L18.431,21.4 Q17.109,22.722 15.686,22.722 Q14.263,22.723 12.94,21.4 Q12.721,21.181 12.721,20.87 Q12.721,20.559 12.94,20.34 Q13.16,20.12 13.471,20.12 Q13.781,20.12 14.001,20.34 Q14.884,21.222 15.686,21.222 Q16.488,21.222 17.37,20.34 L20.33,17.38 Q21.228,16.482 21.228,15.685 Q21.228,14.888 20.334,13.994 L19.594,13.264 Q19.373,13.046 19.371,12.735 Q19.369,12.424 19.587,12.203 Q19.805,11.982 20.116,11.98 Q20.426,11.978 20.647,12.196 Z"/>
  <path fill="#292D32" d="M2.576,11.037 Q-0.138,8.285 2.576,5.533 L5.54,2.57 Q6.862,1.248 8.285,1.248 Q9.708,1.248 11.031,2.57 L11.771,3.31 Q11.99,3.529 11.99,3.84 Q11.99,4.151 11.771,4.37 Q11.551,4.59 11.24,4.59 Q10.93,4.59 10.71,4.37 L9.97,3.63 Q9.087,2.748 8.285,2.748 Q7.483,2.748 6.601,3.63 L3.644,6.587 Q1.969,8.285 3.644,9.983 Q3.862,10.205 3.86,10.515 Q3.858,10.826 3.637,11.044 Q3.416,11.262 3.105,11.26 Q2.795,11.258 2.576,11.037 Z"/>
  <path fill="#292D32" d="M11.781,4.38 L8.081,8.08 Q7.861,8.3 7.551,8.3 Q7.24,8.3 7.02,8.08 Q6.801,7.861 6.801,7.55 Q6.801,7.239 7.02,7.02 L10.72,3.32 Q10.94,3.1 11.251,3.1 Q11.561,3.1 11.781,3.32 Q12.001,3.539 12.001,3.85 Q12.001,4.161 11.781,4.38 Z"/>
  <path fill="#292D32" d="M20.65,13.261 L17.69,16.211 Q17.47,16.431 17.159,16.43 Q16.848,16.429 16.629,16.209 Q16.41,15.989 16.41,15.679 Q16.411,15.368 16.631,15.149 L19.591,12.199 Q19.811,11.979 20.121,11.98 Q20.432,11.981 20.651,12.201 Q20.871,12.421 20.87,12.731 Q20.87,13.042 20.65,13.261 Z"/>
</svg>

