<svg xmlns="http://www.w3.org/2000/svg" width="24" height="24" viewBox="0 0 24 24">
  <defs/>
  <path fill="#292D32" d="M16.254,9.156 L16.255,9.158 Q18.02,10.923 18.02,13.414 Q18.02,15.906 16.252,17.665 Q14.487,19.43 11.996,19.43 Q9.504,19.43 7.745,17.662 Q5.98,15.898 5.98,13.406 Q5.98,10.914 7.748,9.155 Q9.504,7.39 12,7.39 Q14.495,7.39 16.254,9.156 Z M15.185,10.222 Q13.869,8.9 12,8.9 Q10.131,8.9 8.812,10.225 Q7.49,11.541 7.49,13.406 Q7.49,15.272 8.815,16.598 Q10.131,17.92 11.996,17.92 Q13.862,17.92 15.188,16.595 Q16.51,15.279 16.51,13.414 Q16.51,11.548 15.186,10.224 Z"/>
  <path fill="#292D32" d="M12.534,13.944 L10.944,15.534 Q10.722,15.755 10.41,15.755 Q10.097,15.755 9.876,15.534 Q9.655,15.312 9.655,15 Q9.655,14.687 9.876,14.466 L11.466,12.876 Q11.687,12.655 12,12.655 Q12.312,12.655 12.534,12.876 Q12.755,13.097 12.755,13.41 Q12.755,13.722 12.534,13.944 Z"/>
  <path fill="#292D32" d="M19.429,5.992 Q20.034,6.602 19.435,7.242 L19.429,7.248 L19.424,7.254 Q18.81,7.867 18.168,7.265 Q17.889,7.003 17.894,6.618 Q17.898,6.262 18.145,5.998 Q18.406,5.72 18.79,5.72 Q19.17,5.72 19.429,5.992 Z M18.863,6.693 Q18.869,6.688 18.875,6.682 Q18.893,6.662 18.894,6.63 Q18.894,6.575 18.852,6.535 Q18.788,6.475 18.717,6.546 L18.863,6.693 Z M18.71,6.687 Q18.744,6.72 18.79,6.72 Q18.827,6.72 18.856,6.699 L18.705,6.558 Q18.648,6.619 18.71,6.687 Z"/>
  <path fill="#292D32" d="M19.608,5.817 Q20.381,6.598 19.617,7.413 Q19.609,7.422 19.6,7.43 Q18.816,8.215 17.997,7.447 Q17.171,6.672 17.963,5.827 Q18.298,5.47 18.79,5.47 Q19.276,5.47 19.608,5.817 Z M19.04,6.87 Q19.049,6.862 19.057,6.853 Q19.142,6.762 19.144,6.633 Q19.146,6.468 19.023,6.353 Q18.782,6.127 18.54,6.37 L19.04,6.87 Z M18.79,6.97 Q18.935,6.97 19.039,6.871 L18.523,6.387 Q18.303,6.621 18.527,6.857 Q18.636,6.97 18.79,6.97 Z"/>
  <path fill="#292D32" d="M5.849,19.572 Q6.454,20.183 5.855,20.822 Q5.251,21.466 4.588,20.845 L4.582,20.839 L4.576,20.834 Q3.963,20.22 4.565,19.578 Q4.826,19.3 5.21,19.3 Q5.59,19.3 5.849,19.572 Z M5.137,20.273 Q5.169,20.3 5.21,20.3 Q5.259,20.3 5.295,20.262 Q5.355,20.198 5.283,20.126 L5.137,20.273 Z M5.13,20.267 L5.272,20.115 Q5.205,20.053 5.125,20.138 Q5.068,20.199 5.13,20.267 Z"/>
  <path fill="#292D32" d="M6.028,19.397 Q6.801,20.178 6.037,20.993 Q5.262,21.82 4.417,21.027 Q4.408,21.019 4.4,21.01 Q3.615,20.226 4.383,19.407 Q4.717,19.05 5.21,19.05 Q5.696,19.05 6.028,19.397 Z M4.96,20.45 Q5.064,20.55 5.21,20.55 Q5.367,20.55 5.477,20.433 Q5.703,20.192 5.46,19.95 L4.96,20.45 Z M4.959,20.449 L5.443,19.933 Q5.194,19.699 4.943,19.967 Q4.723,20.201 4.947,20.437 Q4.953,20.443 4.959,20.449 Z"/>
  <path fill="#292D32" d="M22.239,12.782 Q22.844,13.392 22.245,14.032 L22.239,14.038 L22.233,14.044 Q21.62,14.657 20.978,14.055 Q20.699,13.793 20.704,13.408 Q20.708,13.052 20.955,12.788 Q21.216,12.51 21.6,12.51 Q21.98,12.51 22.239,12.782 Z M21.673,13.483 Q21.679,13.478 21.685,13.472 Q21.703,13.452 21.704,13.42 Q21.704,13.365 21.662,13.325 Q21.598,13.265 21.526,13.336 L21.673,13.483 Z M21.52,13.477 Q21.554,13.51 21.6,13.51 Q21.636,13.51 21.665,13.489 L21.515,13.348 Q21.458,13.409 21.52,13.477 Z"/>
  <path fill="#292D32" d="M22.418,12.607 Q23.191,13.388 22.427,14.203 Q22.419,14.212 22.41,14.22 Q21.626,15.005 20.807,14.237 Q19.98,13.462 20.773,12.617 Q21.107,12.26 21.6,12.26 Q22.086,12.26 22.418,12.607 Z M21.85,13.66 Q21.859,13.652 21.867,13.643 Q22.101,13.394 21.833,13.143 Q21.592,12.917 21.35,13.16 L21.85,13.66 Z M21.6,13.76 Q21.745,13.76 21.849,13.661 L21.333,13.177 Q21.113,13.411 21.337,13.647 Q21.445,13.76 21.6,13.76 Z"/>
  <path fill="#292D32" d="M3.029,12.782 Q3.634,13.393 3.035,14.032 Q2.773,14.311 2.388,14.306 Q2.032,14.302 1.768,14.055 L1.762,14.049 L1.757,14.044 Q1.143,13.43 1.745,12.788 L1.751,12.782 L1.757,12.776 Q2.023,12.51 2.394,12.51 Q2.77,12.51 3.029,12.782 Z M2.317,13.483 Q2.349,13.51 2.394,13.51 Q2.437,13.51 2.464,13.484 L2.39,13.41 L2.317,13.483 Z M2.381,13.401 L2.317,13.337 Q2.311,13.342 2.305,13.348 Q2.248,13.409 2.31,13.477 L2.31,13.477 L2.381,13.401 Z M2.399,13.401 L2.475,13.472 Q2.535,13.408 2.464,13.336 L2.399,13.401 Z M2.389,13.392 L2.452,13.325 Q2.432,13.307 2.4,13.306 Q2.358,13.306 2.324,13.331 L2.389,13.392 Z"/>
  <path fill="#292D32" d="M3.208,12.607 Q3.981,13.388 3.217,14.203 Q2.88,14.562 2.385,14.556 Q1.931,14.551 1.597,14.237 Q1.588,14.229 1.58,14.22 Q0.795,13.436 1.563,12.617 Q1.571,12.608 1.58,12.6 Q1.919,12.26 2.394,12.26 Q2.876,12.26 3.208,12.607 Z M2.139,13.659 L2.381,13.401 L2.14,13.16 Q2.131,13.168 2.123,13.177 Q1.903,13.411 2.127,13.647 Q2.133,13.653 2.139,13.659 Z M2.399,13.401 L2.657,13.643 Q2.883,13.402 2.64,13.16 L2.399,13.401 Z M2.14,13.66 Q2.245,13.76 2.394,13.76 Q2.541,13.76 2.64,13.66 L2.39,13.41 L2.14,13.66 Z M2.389,13.392 L2.623,13.143 Q2.532,13.058 2.403,13.056 Q2.251,13.054 2.141,13.159 L2.389,13.392 Z"/>
  <path fill="#292D32" d="M19.429,19.572 Q20.034,20.183 19.435,20.822 L19.429,20.828 L19.424,20.834 Q18.81,21.447 18.168,20.845 Q17.889,20.583 17.894,20.198 Q17.898,19.842 18.145,19.578 L18.151,19.572 L18.157,19.566 Q18.423,19.3 18.794,19.3 Q19.17,19.3 19.429,19.572 Z M18.723,20.12 L18.875,20.262 Q18.893,20.242 18.894,20.21 Q18.894,20.155 18.852,20.115 Q18.791,20.058 18.723,20.12 Z M18.71,20.267 Q18.744,20.3 18.794,20.3 Q18.832,20.3 18.857,20.28 L18.705,20.138 Q18.648,20.199 18.71,20.267 Z"/>
  <path fill="#292D32" d="M19.608,19.397 Q20.381,20.178 19.617,20.993 Q19.609,21.002 19.6,21.01 Q18.816,21.795 17.997,21.027 Q17.171,20.252 17.963,19.407 Q17.971,19.398 17.98,19.39 Q18.319,19.05 18.794,19.05 Q19.276,19.05 19.608,19.397 Z M18.541,19.949 L19.057,20.433 Q19.291,20.184 19.023,19.933 Q18.783,19.708 18.541,19.949 Z M18.794,20.55 Q18.94,20.55 19.039,20.451 L18.523,19.967 Q18.303,20.201 18.527,20.437 Q18.636,20.55 18.794,20.55 Z"/>
  <path fill="#292D32" d="M5.849,5.992 Q6.454,6.602 5.855,7.242 Q5.593,7.521 5.207,7.516 Q4.851,7.512 4.588,7.265 L4.582,7.259 L4.576,7.254 Q3.963,6.64 4.565,5.998 Q4.826,5.72 5.21,5.72 Q5.59,5.72 5.849,5.992 Z M5.137,6.693 Q5.169,6.72 5.21,6.72 Q5.259,6.72 5.295,6.682 Q5.355,6.618 5.283,6.546 L5.137,6.693 Z M5.13,6.687 L5.272,6.535 Q5.205,6.473 5.125,6.558 Q5.068,6.619 5.13,6.687 Z"/>
  <path fill="#292D32" d="M6.028,5.817 Q6.801,6.598 6.037,7.413 Q5.262,8.239 4.417,7.447 Q4.408,7.439 4.4,7.43 Q3.615,6.646 4.383,5.827 Q4.717,5.47 5.21,5.47 Q5.696,5.47 6.028,5.817 Z M4.96,6.87 Q5.064,6.97 5.21,6.97 Q5.367,6.97 5.477,6.853 Q5.703,6.612 5.46,6.37 L4.96,6.87 Z M4.959,6.869 L5.443,6.353 Q5.194,6.119 4.943,6.387 Q4.723,6.621 4.947,6.857 Q4.953,6.863 4.959,6.869 Z"/>
  <path fill="#292D32" d="M12.634,3.167 Q13.247,3.78 12.645,4.422 Q12.383,4.701 11.998,4.696 Q11.642,4.692 11.378,4.445 Q11.099,4.183 11.104,3.798 Q11.108,3.442 11.355,3.178 Q11.617,2.899 12.006,2.904 Q12.375,2.908 12.634,3.167 Z M11.926,3.874 Q11.956,3.903 11.994,3.904 Q12.045,3.904 12.085,3.862 Q12.147,3.795 12.062,3.715 Q12.042,3.697 12.01,3.696 Q11.955,3.696 11.915,3.738 Q11.855,3.802 11.926,3.874 Z"/>
  <path fill="#292D32" d="M12.81,2.99 Q13.595,3.774 12.827,4.593 Q12.49,4.952 11.994,4.946 Q11.541,4.941 11.207,4.627 Q10.848,4.29 10.854,3.795 Q10.859,3.341 11.173,3.007 Q11.51,2.648 12.009,2.654 Q12.48,2.66 12.81,2.99 Z M11.75,4.05 Q11.851,4.152 11.991,4.154 Q12.152,4.156 12.267,4.033 Q12.352,3.942 12.354,3.813 Q12.356,3.648 12.233,3.533 Q11.984,3.299 11.733,3.567 Q11.507,3.808 11.75,4.05 Z"/>
</svg>

