<svg xmlns="http://www.w3.org/2000/svg" width="24" height="24" viewBox="0 0 24 24">
  <defs/>
  <path fill="#292D32" d="M15.719,9.69 C13.669,7.63 10.329,7.63 8.279,9.69 C6.219,11.75 6.219,15.08 8.279,17.13 C10.339,19.19 13.669,19.19 15.719,17.13 C17.779,15.07 17.779,11.74 15.719,9.69 Z M12.529,13.94 L10.939,15.53 C10.789,15.68 10.599,15.75 10.409,15.75 C10.219,15.75 10.019,15.68 9.879,15.53 C9.589,15.24 9.589,14.76 9.879,14.46 L11.469,12.87 C11.759,12.58 12.239,12.58 12.539,12.87 C12.829,13.17 12.829,13.65 12.529,13.94 Z"/>
  <path fill="#292D32" opacity="0.4" d="M19.6,5.81 C19.38,5.59 19.1,5.47 18.79,5.47 C18.48,5.47 18.2,5.59 17.98,5.8 C17.53,6.25 17.53,6.97 17.98,7.42 C18.2,7.64 18.48,7.76 18.79,7.76 C19.1,7.76 19.38,7.64 19.6,7.43 C19.82,7.21 19.94,6.93 19.94,6.62 C19.94,6.31 19.82,6.02 19.6,5.81 Z"/>
  <path fill="#292D32" opacity="0.4" d="M6.021,19.39 C5.801,19.17 5.521,19.05 5.211,19.05 C4.901,19.05 4.621,19.17 4.401,19.38 C4.181,19.6 4.061,19.88 4.061,20.19 C4.061,20.5 4.181,20.78 4.401,21 C4.621,21.22 4.921,21.33 5.211,21.33 C5.501,21.33 5.801,21.22 6.021,20.99 C6.461,20.56 6.461,19.83 6.021,19.39 Z"/>
  <path fill="#292D32" opacity="0.4" d="M22.411,12.6 C22.201,12.38 21.911,12.27 21.601,12.26 C21.291,12.26 21.011,12.38 20.791,12.6 C20.341,13.05 20.341,13.77 20.791,14.22 C21.011,14.44 21.311,14.55 21.601,14.55 C21.891,14.55 22.191,14.44 22.411,14.22 C22.861,13.77 22.861,13.04 22.411,12.6 Z"/>
  <path fill="#292D32" opacity="0.4" d="M3.209,12.6 C2.769,12.16 2.039,12.15 1.589,12.6 C1.139,13.05 1.139,13.77 1.589,14.22 C1.809,14.44 2.109,14.55 2.399,14.55 C2.689,14.55 2.989,14.44 3.209,14.22 C3.649,13.77 3.649,13.04 3.209,12.6 Z"/>
  <path fill="#292D32" opacity="0.4" d="M19.6,19.39 C19.15,18.94 18.43,18.94 17.98,19.39 C17.53,19.84 17.53,20.56 17.98,21.01 C18.2,21.23 18.5,21.34 18.79,21.34 C19.08,21.34 19.38,21.23 19.6,21.01 C19.82,20.79 19.94,20.5 19.94,20.2 C19.94,19.89 19.82,19.6 19.6,19.39 Z"/>
  <path fill="#292D32" opacity="0.4" d="M6.021,5.81 C5.801,5.59 5.521,5.47 5.211,5.47 C4.901,5.47 4.621,5.59 4.401,5.8 C4.181,6.02 4.061,6.3 4.061,6.61 C4.061,6.92 4.181,7.2 4.391,7.42 C4.611,7.64 4.891,7.76 5.201,7.76 C5.511,7.76 5.791,7.64 6.011,7.42 C6.461,6.98 6.461,6.25 6.021,5.81 Z"/>
  <path fill="#292D32" opacity="0.4" d="M12.81,3 C12.81,2.99 12.81,2.99 12.81,3 C12.36,2.55 11.64,2.55 11.19,3 C10.97,3.22 10.85,3.51 10.85,3.81 C10.85,4.12 10.97,4.4 11.18,4.62 C11.4,4.84 11.68,4.96 11.99,4.96 C12.3,4.96 12.58,4.84 12.8,4.62 C13.26,4.17 13.26,3.44 12.81,3 Z"/>
</svg>

