<svg xmlns="http://www.w3.org/2000/svg" width="24" height="24" viewBox="0 0 24 24">
  <defs/>
  <path fill="#292D32" d="M20,6 L20,6.24 L14.87,6.24 C11.9,6.24 10.52,7.62 10.52,10.59 L10.52,15.7 L9.75,15.7 L9.75,19.25 L10.52,19.25 L10.52,20.75 L4.95,20.75 C4.54,20.75 4.2,20.41 4.2,20 C4.2,19.59 4.54,19.25 4.95,19.25 L8.25,19.25 L8.25,15.7 L6,15.7 C2.87,15.7 2.03,14.93 2,11.9 L2,6 C2,2.8 2.8,2 6,2 L16,2 C19.2,2 20,2.8 20,6 Z"/>
  <path fill="#292D32" d="M20,7.788 C19.75,7.758 19.459,7.738 19.149,7.738 L14.87,7.738 C12.729,7.738 12.02,8.448 12.02,10.588 L12.02,19.248 C12.03,19.868 12.1,20.358 12.249,20.748 C12.6,21.658 13.389,21.998 14.87,21.998 L19.149,21.998 C21.29,21.998 22,21.288 22,19.148 L22,10.588 C22,8.758 21.48,7.978 20,7.788 Z M17.009,10.088 C17.88,10.088 18.579,10.788 18.579,11.658 C18.579,12.528 17.88,13.228 17.009,13.228 C16.14,13.228 15.44,12.528 15.44,11.658 C15.44,10.788 16.14,10.088 17.009,10.088 Z M17.009,19.148 C15.829,19.148 14.87,18.188 14.87,17.008 C14.87,16.518 15.04,16.058 15.319,15.698 C15.71,15.198 16.32,14.868 17.009,14.868 C17.549,14.868 18.04,15.068 18.41,15.388 C18.86,15.788 19.149,16.368 19.149,17.008 C19.149,18.188 18.189,19.148 17.009,19.148 Z"/>
  <path fill="#292D32" d="M20,7.788 C19.75,7.758 19.459,7.738 19.149,7.738 L14.87,7.738 C12.729,7.738 12.02,8.448 12.02,10.588 L12.02,19.248 C12.03,19.868 12.1,20.358 12.249,20.748 C12.6,21.658 13.389,21.998 14.87,21.998 L19.149,21.998 C21.29,21.998 22,21.288 22,19.148 L22,10.588 C22,8.758 21.48,7.978 20,7.788 Z M17.009,10.088 C17.88,10.088 18.579,10.788 18.579,11.658 C18.579,12.528 17.88,13.228 17.009,13.228 C16.14,13.228 15.44,12.528 15.44,11.658 C15.44,10.788 16.14,10.088 17.009,10.088 Z M17.009,19.148 C15.829,19.148 14.87,18.188 14.87,17.008 C14.87,16.518 15.04,16.058 15.319,15.698 C15.71,15.198 16.32,14.868 17.009,14.868 C17.549,14.868 18.04,15.068 18.41,15.388 C18.86,15.788 19.149,16.368 19.149,17.008 C19.149,18.188 18.189,19.148 17.009,19.148 Z"/>
</svg>

