<svg xmlns="http://www.w3.org/2000/svg" width="24" height="24" viewBox="0 0 24 24">
  <defs/>
  <path fill="#292D32" d="M15.719,9.69 C13.669,7.63 10.329,7.63 8.279,9.69 C6.219,11.749 6.219,15.079 8.279,17.13 C10.339,19.189 13.669,19.189 15.719,17.13 C17.779,15.069 17.779,11.739 15.719,9.69 Z M12.529,13.94 L10.939,15.53 C10.789,15.68 10.599,15.749 10.409,15.749 C10.219,15.749 10.019,15.68 9.879,15.53 C9.589,15.239 9.589,14.759 9.879,14.46 L11.469,12.87 C11.759,12.579 12.239,12.579 12.539,12.87 C12.829,13.169 12.829,13.649 12.529,13.94 Z"/>
  <path fill="#292D32" d="M19.598,5.809 C19.378,5.589 19.098,5.469 18.788,5.469 C18.478,5.469 18.198,5.589 17.978,5.799 C17.528,6.249 17.528,6.969 17.978,7.419 C18.198,7.639 18.478,7.759 18.788,7.759 C19.098,7.759 19.378,7.639 19.598,7.429 C19.818,7.209 19.938,6.929 19.938,6.619 C19.938,6.309 19.818,6.019 19.598,5.809 Z"/>
  <path fill="#292D32" d="M6.019,19.391 C5.799,19.171 5.519,19.051 5.209,19.051 C4.899,19.051 4.619,19.171 4.399,19.381 C4.179,19.601 4.059,19.881 4.059,20.191 C4.059,20.501 4.179,20.781 4.399,21.001 C4.619,21.221 4.919,21.331 5.209,21.331 C5.499,21.331 5.799,21.221 6.019,20.991 C6.459,20.561 6.459,19.831 6.019,19.391 Z"/>
  <path fill="#292D32" d="M22.411,12.602 C22.201,12.382 21.911,12.272 21.601,12.262 C21.291,12.262 21.011,12.382 20.791,12.602 C20.341,13.052 20.341,13.772 20.791,14.222 C21.011,14.442 21.311,14.552 21.601,14.552 C21.891,14.552 22.191,14.442 22.411,14.222 C22.861,13.772 22.861,13.042 22.411,12.602 Z"/>
  <path fill="#292D32" d="M3.211,12.599 C2.771,12.159 2.041,12.149 1.591,12.599 C1.141,13.049 1.141,13.769 1.591,14.219 C1.811,14.439 2.111,14.549 2.401,14.549 C2.691,14.549 2.991,14.439 3.211,14.219 C3.651,13.769 3.651,13.039 3.211,12.599 Z"/>
  <path fill="#292D32" d="M19.598,19.388 C19.148,18.938 18.428,18.938 17.978,19.388 C17.528,19.838 17.528,20.558 17.978,21.008 C18.198,21.228 18.498,21.338 18.788,21.338 C19.078,21.338 19.378,21.228 19.598,21.008 C19.818,20.788 19.938,20.498 19.938,20.198 C19.938,19.888 19.818,19.598 19.598,19.388 Z"/>
  <path fill="#292D32" d="M6.019,5.809 C5.799,5.589 5.519,5.469 5.209,5.469 C4.899,5.469 4.619,5.589 4.399,5.799 C4.179,6.019 4.059,6.299 4.059,6.609 C4.059,6.919 4.179,7.209 4.399,7.419 C4.619,7.639 4.899,7.759 5.209,7.759 C5.519,7.759 5.799,7.639 6.019,7.429 C6.459,6.979 6.459,6.249 6.019,5.809 Z"/>
  <path fill="#292D32" d="M12.812,3.002 C12.812,2.992 12.812,2.992 12.812,3.002 C12.362,2.552 11.642,2.552 11.192,3.002 C10.972,3.222 10.852,3.512 10.852,3.812 C10.852,4.122 10.972,4.402 11.182,4.622 C11.402,4.842 11.682,4.962 11.992,4.962 C12.302,4.962 12.582,4.842 12.802,4.622 C13.262,4.172 13.262,3.442 12.812,3.002 Z"/>
</svg>

