<svg xmlns="http://www.w3.org/2000/svg" width="24" height="24" viewBox="0 0 24 24">
  <defs/>
  <path fill="#292D32" d="M15.184,10.222 Q13.868,8.9 11.999,8.9 Q10.131,8.9 8.814,10.222 Q7.489,11.548 7.489,13.414 Q7.489,15.279 8.812,16.595 Q10.137,17.92 12.003,17.92 Q13.868,17.92 15.184,16.598 Q16.505,15.277 16.505,13.41 Q16.505,13.097 16.726,12.876 Q16.947,12.655 17.259,12.655 Q17.572,12.655 17.793,12.876 Q18.014,13.097 18.014,13.41 Q18.014,15.903 16.254,17.662 Q14.496,19.43 12.003,19.43 Q9.512,19.43 7.747,17.665 Q5.98,15.906 5.98,13.414 Q5.98,10.922 7.744,9.158 Q9.503,7.39 11.999,7.39 Q14.496,7.39 16.254,9.158 Q16.475,9.379 16.474,9.692 Q16.473,10.004 16.252,10.225 Q16.03,10.445 15.718,10.445 Q15.405,10.444 15.184,10.222 Z"/>
  <path fill="#292D32" d="M12.534,13.944 L10.944,15.534 Q10.723,15.755 10.41,15.755 Q10.098,15.755 9.877,15.534 Q9.656,15.312 9.656,15 Q9.656,14.687 9.877,14.466 L11.467,12.876 Q11.688,12.655 12,12.655 Q12.313,12.655 12.534,12.876 Q12.755,13.097 12.755,13.41 Q12.755,13.722 12.534,13.944 Z"/>
  <path fill="#292D32" d="M19.43,5.992 Q20.035,6.602 19.436,7.242 L19.43,7.248 L19.424,7.254 Q18.811,7.867 18.169,7.265 Q17.525,6.661 18.146,5.998 Q18.407,5.72 18.791,5.72 Q19.171,5.72 19.43,5.992 Z M18.864,6.693 Q18.87,6.688 18.876,6.682 Q18.894,6.662 18.895,6.63 Q18.895,6.575 18.853,6.535 Q18.789,6.475 18.717,6.546 L18.864,6.693 Z M18.711,6.687 Q18.745,6.72 18.791,6.72 Q18.827,6.72 18.856,6.699 L18.706,6.558 Q18.649,6.619 18.711,6.687 Z"/>
  <path fill="#292D32" d="M19.609,5.817 Q20.382,6.598 19.618,7.413 Q19.61,7.422 19.601,7.43 Q18.817,8.215 17.998,7.447 Q17.171,6.672 17.964,5.827 Q18.298,5.47 18.791,5.47 Q19.277,5.47 19.609,5.817 Z M19.041,6.87 Q19.05,6.862 19.058,6.853 Q19.143,6.762 19.144,6.633 Q19.147,6.468 19.024,6.353 Q18.783,6.127 18.54,6.37 L19.041,6.87 Z M18.791,6.97 Q18.936,6.97 19.04,6.871 L18.524,6.387 Q18.304,6.621 18.528,6.857 Q18.636,6.97 18.791,6.97 Z"/>
  <path fill="#292D32" d="M5.85,19.572 Q6.455,20.183 5.856,20.822 Q5.252,21.466 4.589,20.845 L4.583,20.839 L4.577,20.834 Q3.964,20.22 4.566,19.578 Q4.827,19.3 5.211,19.3 Q5.591,19.3 5.85,19.572 Z M5.138,20.273 Q5.17,20.3 5.211,20.3 Q5.26,20.3 5.296,20.262 Q5.356,20.198 5.284,20.126 L5.138,20.273 Z M5.131,20.267 L5.273,20.115 Q5.206,20.053 5.126,20.138 Q5.069,20.199 5.131,20.267 Z"/>
  <path fill="#292D32" d="M6.029,19.397 Q6.802,20.178 6.038,20.993 Q5.701,21.352 5.205,21.346 Q4.752,21.341 4.418,21.027 Q4.409,21.019 4.401,21.01 Q3.616,20.226 4.384,19.407 Q4.718,19.05 5.211,19.05 Q5.697,19.05 6.029,19.397 Z M4.961,20.45 Q5.065,20.55 5.211,20.55 Q5.368,20.55 5.478,20.433 Q5.704,20.192 5.461,19.95 L4.961,20.45 Z M4.96,20.449 L5.444,19.933 Q5.195,19.699 4.944,19.967 Q4.724,20.201 4.948,20.437 Q4.954,20.443 4.96,20.449 Z"/>
  <path fill="#292D32" d="M22.238,12.782 Q22.844,13.392 22.244,14.032 L22.239,14.038 L22.233,14.044 Q21.62,14.657 20.977,14.055 Q20.698,13.793 20.703,13.408 Q20.708,13.052 20.955,12.788 Q21.215,12.51 21.599,12.51 Q21.979,12.51 22.238,12.782 Z M21.672,13.483 Q21.679,13.478 21.684,13.472 Q21.703,13.452 21.703,13.42 Q21.704,13.365 21.661,13.325 Q21.597,13.265 21.526,13.336 L21.672,13.483 Z M21.519,13.477 Q21.554,13.51 21.599,13.51 Q21.636,13.51 21.665,13.489 L21.515,13.348 Q21.457,13.409 21.519,13.477 Z"/>
  <path fill="#292D32" d="M22.417,12.607 Q23.19,13.388 22.427,14.203 Q22.418,14.212 22.41,14.22 Q21.625,15.005 20.806,14.237 Q20.447,13.9 20.453,13.404 Q20.459,12.951 20.772,12.617 Q21.107,12.26 21.599,12.26 Q22.085,12.26 22.417,12.607 Z M21.85,13.66 Q21.858,13.652 21.867,13.643 Q22.1,13.394 21.832,13.143 Q21.592,12.917 21.349,13.16 L21.85,13.66 Z M21.599,13.76 Q21.744,13.76 21.849,13.661 L21.332,13.177 Q21.113,13.411 21.336,13.647 Q21.445,13.76 21.599,13.76 Z"/>
  <path fill="#292D32" d="M3.029,12.782 Q3.635,13.393 3.035,14.032 Q2.774,14.311 2.388,14.306 Q2.032,14.302 1.769,14.055 L1.763,14.049 L1.757,14.044 Q1.144,13.43 1.746,12.788 L1.751,12.782 L1.757,12.776 Q2.023,12.51 2.394,12.51 Q2.77,12.51 3.029,12.782 Z M2.318,13.483 Q2.35,13.51 2.394,13.51 Q2.438,13.51 2.464,13.484 L2.391,13.41 L2.318,13.483 Z M2.382,13.401 L2.317,13.337 Q2.311,13.342 2.306,13.348 Q2.249,13.409 2.31,13.477 L2.31,13.477 L2.382,13.401 Z M2.4,13.401 L2.475,13.472 Q2.535,13.408 2.464,13.336 L2.4,13.401 Z M2.39,13.392 L2.453,13.325 Q2.433,13.307 2.4,13.306 Q2.358,13.306 2.325,13.331 L2.39,13.392 Z"/>
  <path fill="#292D32" d="M3.209,12.607 Q3.982,13.388 3.218,14.203 Q2.881,14.562 2.385,14.556 Q1.932,14.551 1.598,14.237 Q1.589,14.229 1.58,14.22 Q0.796,13.436 1.563,12.617 Q1.572,12.608 1.58,12.6 Q1.92,12.26 2.394,12.26 Q2.876,12.26 3.209,12.607 Z M2.139,13.659 L2.382,13.401 L2.14,13.16 Q2.132,13.168 2.123,13.177 Q1.904,13.411 2.128,13.647 Q2.133,13.653 2.139,13.659 Z M2.4,13.401 L2.658,13.643 Q2.883,13.402 2.641,13.16 L2.4,13.401 Z M2.14,13.66 Q2.245,13.76 2.394,13.76 Q2.541,13.76 2.641,13.66 L2.391,13.41 L2.14,13.66 Z M2.39,13.392 L2.624,13.143 Q2.383,12.918 2.141,13.159 L2.39,13.392 Z"/>
  <path fill="#292D32" d="M19.43,19.572 Q20.035,20.183 19.436,20.822 L19.43,20.828 L19.424,20.834 Q18.811,21.447 18.169,20.845 Q17.525,20.241 18.146,19.578 L18.152,19.572 L18.157,19.566 Q18.424,19.3 18.795,19.3 Q19.171,19.3 19.43,19.572 Z M18.724,20.12 L18.876,20.262 Q18.894,20.242 18.895,20.21 Q18.895,20.155 18.853,20.115 Q18.792,20.058 18.724,20.12 Z M18.711,20.267 Q18.745,20.3 18.795,20.3 Q18.832,20.3 18.857,20.28 L18.706,20.138 Q18.649,20.199 18.711,20.267 Z"/>
  <path fill="#292D32" d="M19.609,19.397 Q20.382,20.178 19.618,20.993 Q19.61,21.002 19.601,21.01 Q18.817,21.795 17.998,21.027 Q17.638,20.69 17.645,20.194 Q17.65,19.741 17.964,19.407 Q17.972,19.398 17.98,19.39 Q18.32,19.05 18.795,19.05 Q19.277,19.05 19.609,19.397 Z M18.541,19.949 L19.058,20.433 Q19.291,20.184 19.024,19.933 Q18.783,19.708 18.541,19.949 Z M18.795,20.55 Q18.941,20.55 19.04,20.451 L18.524,19.967 Q18.304,20.201 18.528,20.437 Q18.636,20.55 18.795,20.55 Z"/>
  <path fill="#292D32" d="M5.85,5.992 Q6.455,6.602 5.856,7.242 Q5.594,7.521 5.208,7.516 Q4.852,7.512 4.589,7.265 L4.583,7.259 L4.577,7.254 Q3.964,6.64 4.566,5.998 Q4.827,5.72 5.211,5.72 Q5.591,5.72 5.85,5.992 Z M5.138,6.693 Q5.17,6.72 5.211,6.72 Q5.26,6.72 5.296,6.682 Q5.356,6.618 5.284,6.546 L5.138,6.693 Z M5.131,6.687 L5.273,6.535 Q5.206,6.473 5.126,6.558 Q5.069,6.619 5.131,6.687 Z"/>
  <path fill="#292D32" d="M6.029,5.817 Q6.802,6.598 6.038,7.413 Q5.263,8.239 4.418,7.447 Q4.409,7.439 4.401,7.43 Q3.616,6.646 4.384,5.827 Q4.718,5.47 5.211,5.47 Q5.697,5.47 6.029,5.817 Z M4.961,6.87 Q5.065,6.97 5.211,6.97 Q5.368,6.97 5.478,6.853 Q5.704,6.612 5.461,6.37 L4.961,6.87 Z M4.96,6.869 L5.444,6.353 Q5.195,6.119 4.944,6.387 Q4.724,6.621 4.948,6.857 Q4.954,6.863 4.96,6.869 Z"/>
  <path fill="#292D32" d="M12.633,3.167 Q13.247,3.78 12.645,4.422 Q12.041,5.066 11.378,4.445 Q10.734,3.841 11.355,3.178 Q11.617,2.899 12.006,2.904 Q12.375,2.908 12.633,3.167 Z M11.926,3.874 Q11.956,3.903 11.994,3.904 Q12.045,3.904 12.085,3.862 Q12.147,3.795 12.062,3.715 Q12.042,3.697 12.01,3.696 Q11.955,3.696 11.915,3.738 Q11.855,3.802 11.926,3.874 Z"/>
  <path fill="#292D32" d="M12.81,2.99 Q13.595,3.774 12.827,4.593 Q12.052,5.42 11.207,4.627 Q10.38,3.852 11.173,3.007 Q11.51,2.648 12.009,2.654 Q12.48,2.66 12.81,2.99 Z M11.749,4.05 Q11.851,4.152 11.991,4.154 Q12.152,4.156 12.267,4.033 Q12.5,3.784 12.233,3.533 Q11.984,3.299 11.733,3.567 Q11.507,3.808 11.749,4.05 Z"/>
</svg>

