<svg xmlns="http://www.w3.org/2000/svg" width="24" height="24" viewBox="0 0 24 24">
  <defs/>
  <path fill="#292D32" opacity="0.4" d="M16,2 L6,2 C2.8,2 2,2.8 2,6 L2,11.9 C2.03,14.93 2.87,15.7 6,15.7 L8.25,15.7 L8.25,19.25 L4.95,19.25 C4.54,19.25 4.2,19.59 4.2,20 C4.2,20.41 4.54,20.75 4.95,20.75 L12.25,20.75 C12.1,20.36 12.03,19.87 12.02,19.25 L9.75,19.25 L9.75,15.7 L12.02,15.7 L12.02,11.9 L12.02,10.59 C12.02,8.45 12.73,7.74 14.87,7.74 L19.15,7.74 C19.46,7.74 19.75,7.76 20,7.79 L20,6 C20,2.8 19.2,2 16,2 Z"/>
  <path fill="#292D32" d="M20,7.79 C19.75,7.76 19.459,7.74 19.149,7.74 L14.87,7.74 C12.729,7.74 12.02,8.45 12.02,10.59 L12.02,19.25 C12.03,19.87 12.1,20.36 12.249,20.75 C12.6,21.66 13.389,22 14.87,22 L19.149,22 C21.29,22 22,21.29 22,19.15 L22,10.59 C22,8.76 21.48,7.98 20,7.79 Z M17.01,10.09 C17.88,10.09 18.579,10.79 18.579,11.66 C18.579,12.53 17.88,13.23 17.01,13.23 C16.14,13.23 15.44,12.53 15.44,11.66 C15.44,10.79 16.14,10.09 17.01,10.09 Z M17.01,19.15 C15.83,19.15 14.87,18.19 14.87,17.01 C14.87,16.52 15.04,16.06 15.319,15.7 C15.71,15.2 16.32,14.87 17.01,14.87 C17.55,14.87 18.04,15.07 18.41,15.39 C18.86,15.79 19.149,16.37 19.149,17.01 C19.149,18.19 18.19,19.15 17.01,19.15 Z"/>
  <path fill="#292D32" opacity="0.4" d="M19.149,17.01 C19.149,18.19 18.189,19.15 17.009,19.15 C15.829,19.15 14.869,18.19 14.869,17.01 C14.869,16.52 15.039,16.06 15.319,15.7 C15.709,15.2 16.319,14.87 17.009,14.87 C17.549,14.87 18.039,15.07 18.409,15.39 C18.859,15.79 19.149,16.37 19.149,17.01 Z"/>
  <path fill="#292D32" opacity="0.4" d="M17.009,13.23 C17.877,13.23 18.579,12.527 18.579,11.66 C18.579,10.793 17.877,10.09 17.009,10.09 C16.142,10.09 15.44,10.793 15.44,11.66 C15.44,12.527 16.142,13.23 17.009,13.23 Z"/>
</svg>

