<svg xmlns="http://www.w3.org/2000/svg" width="24" height="24" viewBox="0 0 24 24">
  <defs/>
  <path fill="#292D32" d="M18.75,13.9 L16.904,13.9 C16.706,13.9 16.512,13.959 16.348,14.069 L14.09,15.58 C13.73,15.82 13.31,15.93 12.9,15.93 C12.55,15.93 12.2,15.85 11.88,15.67 C11.398,15.415 11.044,14.947 10.87,14.423 C10.731,14.003 10.454,13.614 10.054,13.424 C9.594,13.207 9.18,12.92 8.83,12.57 C7.97,11.71 7.5,10.5 7.5,9.15 L7.5,5.25 L7.5,5 C7.5,4.448 7.052,4 6.5,4 C3.8,4 2,5.35 2,8.5 L2,13.9 C2,17.05 3.8,18.4 6.5,18.4 L10.25,18.4 L10.25,21.25 L7.4,21.25 C6.99,21.25 6.65,21.59 6.65,22 C6.65,22.41 6.99,22.75 7.4,22.75 L14.6,22.75 C15.01,22.75 15.35,22.41 15.35,22 C15.35,21.59 15.01,21.25 14.6,21.25 L11.75,21.25 L11.75,18.4 L15.5,18.4 C17.895,18.4 19.582,17.337 19.933,14.898 C20.011,14.351 19.552,13.9 19,13.9 L18.75,13.9 Z"/>
  <path fill="#292D32" d="M18.75,2 L12.25,2 C10.76,2 9.64,2.76 9.2,4 C9.07,4.38 9,4.8 9,5.25 L9,9.15 C9,10.12 9.32,10.94 9.89,11.51 C10.46,12.08 11.28,12.4 12.25,12.4 L12.25,13.79 C12.25,14.3 12.83,14.61 13.26,14.33 L16.15,12.4 L18.75,12.4 C19.2,12.4 19.62,12.33 20,12.2 C21.24,11.76 22,10.64 22,9.15 L22,5.25 C22,3.3 20.7,2 18.75,2 Z M12.62,8 C12.2,8 11.87,7.66 11.87,7.25 C11.87,6.84 12.2,6.5 12.62,6.5 C13.04,6.5 13.37,6.84 13.37,7.25 C13.37,7.66 13.04,8 12.62,8 Z M15.44,8 C15.02,8 14.69,7.66 14.69,7.25 C14.69,6.84 15.03,6.5 15.44,6.5 C15.85,6.5 16.19,6.84 16.19,7.25 C16.19,7.66 15.85,8 15.44,8 Z M18.25,8 C17.83,8 17.5,7.66 17.5,7.25 C17.5,6.84 17.84,6.5 18.25,6.5 C18.66,6.5 19,6.84 19,7.25 C19,7.66 18.66,8 18.25,8 Z"/>
  <path fill="#292D32" d="M22,5.25 L22,9.15 C22,10.64 21.24,11.76 20,12.2 C19.62,12.33 19.2,12.4 18.75,12.4 L16.15,12.4 L13.26,14.33 C12.83,14.61 12.25,14.3 12.25,13.79 L12.25,12.4 C11.28,12.4 10.46,12.08 9.89,11.51 C9.32,10.94 9,10.12 9,9.15 L9,5.25 C9,4.8 9.07,4.38 9.2,4 C9.64,2.76 10.76,2 12.25,2 L18.75,2 C20.7,2 22,3.3 22,5.25 Z"/>
</svg>

