<svg xmlns="http://www.w3.org/2000/svg" width="24" height="24" viewBox="0 0 24 24">
  <defs/>
  <path fill="#292D32" d="M20,12.2 L20,13.9 C20,17.05 18.2,18.4 15.5,18.4 L6.5,18.4 C3.8,18.4 2,17.05 2,13.9 L2,8.5 C2,5.35 3.8,4 6.5,4 L9.2,4 C9.07,4.38 9,4.8 9,5.25 L9,9.15 C9,10.12 9.32,10.94 9.89,11.51 C10.46,12.08 11.28,12.4 12.25,12.4 L12.25,13.79 C12.25,14.3 12.83,14.61 13.26,14.33 L16.15,12.4 L18.75,12.4 C19.2,12.4 19.62,12.33 20,12.2 Z"/>
  <path fill="#292D32" opacity="0.4" d="M22,5.25 L22,9.15 C22,10.64 21.24,11.76 20,12.2 C19.62,12.33 19.2,12.4 18.75,12.4 L16.15,12.4 L13.26,14.33 C12.83,14.61 12.25,14.3 12.25,13.79 L12.25,12.4 C11.28,12.4 10.46,12.08 9.89,11.51 C9.32,10.94 9,10.12 9,9.15 L9,5.25 C9,4.8 9.07,4.38 9.2,4 C9.64,2.76 10.76,2 12.25,2 L18.75,2 C20.7,2 22,3.3 22,5.25 Z"/>
  <path fill="#292D32" opacity="0.4" d="M14.6,21.25 L11.75,21.25 L11.75,18.4 C11.75,17.99 11.41,17.65 11,17.65 C10.59,17.65 10.25,17.99 10.25,18.4 L10.25,21.25 L7.4,21.25 C6.99,21.25 6.65,21.59 6.65,22 C6.65,22.41 6.99,22.75 7.4,22.75 L14.6,22.75 C15.01,22.75 15.35,22.41 15.35,22 C15.35,21.59 15.01,21.25 14.6,21.25 Z"/>
  <path fill="#292D32" d="M15.44,8 C15.02,8 14.69,7.66 14.69,7.25 C14.69,6.84 15.03,6.5 15.44,6.5 C15.85,6.5 16.189,6.84 16.189,7.25 C16.189,7.66 15.85,8 15.44,8 Z"/>
  <path fill="#292D32" d="M18.25,8 C17.83,8 17.5,7.66 17.5,7.25 C17.5,6.84 17.84,6.5 18.25,6.5 C18.66,6.5 19,6.84 19,7.25 C19,7.66 18.66,8 18.25,8 Z"/>
  <path fill="#292D32" d="M12.619,8 C12.199,8 11.869,7.66 11.869,7.25 C11.869,6.84 12.209,6.5 12.619,6.5 C13.029,6.5 13.369,6.84 13.369,7.25 C13.369,7.66 13.039,8 12.619,8 Z"/>
</svg>

