<svg xmlns="http://www.w3.org/2000/svg" width="24" height="24" viewBox="0 0 24 24">
  <defs/>
  <path fill="#292D32" d="M22.75,5.25 L22.75,9.15 Q22.75,12.02 20.251,12.907 Q19.54,13.15 18.75,13.15 L16.377,13.15 L13.677,14.954 Q12.975,15.411 12.24,15.018 Q11.5,14.622 11.5,13.79 L11.5,13.096 Q10.226,12.906 9.36,12.04 Q8.25,10.931 8.25,9.15 L8.25,5.25 Q8.25,4.46 8.49,3.757 Q9.38,1.25 12.25,1.25 L18.75,1.25 Q22.75,1.25 22.75,5.25 Z M21.25,5.25 Q21.25,4.098 20.576,3.424 Q19.902,2.75 18.75,2.75 L12.25,2.75 Q10.439,2.75 9.91,4.243 Q9.75,4.709 9.75,5.25 L9.75,9.15 Q9.75,10.309 10.42,10.98 Q11.091,11.65 12.25,11.65 Q12.561,11.65 12.78,11.87 Q13,12.089 13,12.4 L13,13.602 L15.733,11.776 Q15.923,11.65 16.15,11.65 L18.75,11.65 Q19.291,11.65 19.749,11.493 Q21.25,10.961 21.25,9.15 Z"/>
  <g opacity="0.4">
    <path fill="#292D32" d="M20.75,12.2 L20.75,13.9 Q20.75,16.509 19.273,17.881 Q17.906,19.15 15.5,19.15 L6.5,19.15 Q4.094,19.15 2.727,17.881 Q1.25,16.509 1.25,13.9 L1.25,8.5 Q1.25,3.25 6.5,3.25 L9.2,3.25 Q9.511,3.25 9.73,3.47 Q9.95,3.689 9.95,4 Q9.95,4.125 9.91,4.243 Q9.75,4.709 9.75,5.25 L9.75,9.15 Q9.75,10.309 10.42,10.98 Q11.091,11.65 12.25,11.65 Q12.561,11.65 12.78,11.87 Q13,12.089 13,12.4 L13,13.602 L15.733,11.776 Q15.923,11.65 16.15,11.65 L18.75,11.65 Q19.291,11.65 19.757,11.49 Q20.051,11.39 20.33,11.527 Q20.609,11.663 20.71,11.957 Q20.75,12.075 20.75,12.2 Z M19.25,13.125 Q19.005,13.15 18.75,13.15 L16.377,13.15 L13.669,14.958 Q12.975,15.411 12.24,15.018 Q11.5,14.622 11.5,13.79 L11.5,13.096 Q10.226,12.906 9.36,12.04 Q8.25,10.931 8.25,9.15 L8.25,5.25 Q8.25,4.995 8.275,4.75 L6.5,4.75 Q2.75,4.75 2.75,8.5 L2.75,13.9 Q2.75,15.855 3.748,16.782 Q4.683,17.65 6.5,17.65 L15.5,17.65 Q17.317,17.65 18.252,16.782 Q19.25,15.855 19.25,13.9 L19.25,13.125 Z"/>
    <path fill="#292D32" d="M7.4,21.25 L14.6,21.25 Q14.911,21.25 15.131,21.47 Q15.35,21.689 15.35,22 Q15.35,22.311 15.131,22.53 Q14.911,22.75 14.6,22.75 L7.4,22.75 Q7.09,22.75 6.87,22.53 Q6.65,22.311 6.65,22 Q6.65,21.689 6.87,21.47 Q7.09,21.25 7.4,21.25 Z"/>
    <path fill="#292D32" d="M11.75,18.4 L11.75,22 Q11.75,22.311 11.53,22.53 Q11.311,22.75 11,22.75 Q10.689,22.75 10.47,22.53 Q10.25,22.311 10.25,22 L10.25,18.4 Q10.25,18.089 10.47,17.87 Q10.689,17.65 11,17.65 Q11.311,17.65 11.53,17.87 Q11.75,18.089 11.75,18.4 Z"/>
  </g>
  <path fill="#292D32" d="M18.496,6.5 L18.504,6.5 Q18.815,6.5 19.035,6.72 Q19.254,6.939 19.254,7.25 Q19.254,7.561 19.035,7.78 Q18.815,8 18.504,8 L18.496,8 Q18.185,8 17.965,7.78 Q17.746,7.561 17.746,7.25 Q17.746,6.939 17.965,6.72 Q18.185,6.5 18.496,6.5 Z"/>
  <path fill="#292D32" d="M15.695,6.5 L15.704,6.5 Q16.014,6.5 16.234,6.72 Q16.454,6.939 16.454,7.25 Q16.454,7.561 16.234,7.78 Q16.014,8 15.704,8 L15.695,8 Q15.384,8 15.164,7.78 Q14.945,7.561 14.945,7.25 Q14.945,6.939 15.164,6.72 Q15.384,6.5 15.695,6.5 Z"/>
  <path fill="#292D32" d="M12.896,6.5 L12.905,6.5 Q13.216,6.5 13.435,6.72 Q13.655,6.939 13.655,7.25 Q13.655,7.561 13.435,7.78 Q13.216,8 12.905,8 L12.896,8 Q12.585,8 12.366,7.78 Q12.146,7.561 12.146,7.25 Q12.146,6.939 12.366,6.72 Q12.585,6.5 12.896,6.5 Z"/>
</svg>

