<svg xmlns="http://www.w3.org/2000/svg" width="24" height="24" viewBox="0 0 24 24">
  <defs/>
  <path fill="#292D32" d="M22,22.75 L5,22.75 C2.93,22.75 1.25,21.07 1.25,19 L1.25,2 C1.25,1.59 1.59,1.25 2,1.25 C2.41,1.25 2.75,1.59 2.75,2 L2.75,19 C2.75,20.24 3.76,21.25 5,21.25 L22,21.25 C22.41,21.25 22.75,21.59 22.75,22 C22.75,22.41 22.41,22.75 22,22.75 Z"/>
  <path fill="#292D32" d="M5,17.75 C4.83,17.75 4.65,17.69 4.51,17.57 C4.2,17.3 4.16,16.83 4.43,16.51 L9.02,11.15 C9.52,10.57 10.24,10.22 11,10.19 C11.76,10.17 12.51,10.45 13.05,10.99 L14,11.94 C14.25,12.19 14.58,12.31 14.93,12.31 C15.28,12.3 15.6,12.14 15.83,11.87 L20.42,6.51 C20.69,6.2 21.16,6.16 21.48,6.43 C21.79,6.7 21.83,7.17 21.56,7.49 L16.97,12.85 C16.47,13.43 15.75,13.78 14.99,13.81 C14.23,13.83 13.48,13.55 12.94,13.01 L12,12.06 C11.75,11.81 11.42,11.68 11.07,11.69 C10.72,11.7 10.4,11.86 10.17,12.13 L5.58,17.49 C5.42,17.66 5.21,17.75 5,17.75 Z"/>
</svg>

