<svg xmlns="http://www.w3.org/2000/svg" width="24" height="24" viewBox="0 0 24 24">
  <defs/>
  <path fill="#292D32" d="M17.971,21.25 L22.001,21.25 Q22.311,21.25 22.531,21.47 Q22.751,21.689 22.751,22 Q22.751,22.311 22.531,22.53 Q22.311,22.75 22.001,22.75 L17.971,22.75 Q17.66,22.75 17.44,22.53 Q17.221,22.311 17.221,22 Q17.221,21.689 17.44,21.47 Q17.66,21.25 17.971,21.25 Z"/>
  <path fill="#292D32" d="M2.75,2 L2.75,19 Q2.75,21.25 5,21.25 L13.98,21.25 Q14.291,21.25 14.51,21.47 Q14.73,21.689 14.73,22 Q14.73,22.311 14.51,22.53 Q14.291,22.75 13.98,22.75 L5,22.75 Q1.25,22.75 1.25,19 L1.25,2 Q1.25,1.689 1.47,1.47 Q1.689,1.25 2,1.25 Q2.311,1.25 2.53,1.47 Q2.75,1.689 2.75,2 Z"/>
  <path fill="#292D32" d="M19.42,7.692 L20.43,6.512 Q20.632,6.276 20.942,6.252 Q21.252,6.228 21.488,6.43 Q21.724,6.632 21.748,6.942 Q21.772,7.252 21.57,7.488 L20.56,8.668 Q20.358,8.904 20.048,8.928 Q19.739,8.952 19.502,8.75 Q19.266,8.548 19.242,8.238 Q19.218,7.928 19.42,7.692 Z"/>
  <path fill="#292D32" d="M4.43,16.512 L9.02,11.152 Q9.807,10.242 11.003,10.194 Q12.207,10.146 13.054,11.003 L14,11.95 Q14.384,12.333 14.929,12.313 Q15.476,12.293 15.832,11.88 L16.979,10.534 Q17.181,10.297 17.49,10.272 Q17.8,10.248 18.036,10.449 Q18.273,10.651 18.298,10.96 Q18.322,11.27 18.121,11.506 L16.968,12.86 Q16.184,13.767 14.986,13.812 Q13.786,13.857 12.94,13.01 L11.986,12.057 Q11.606,11.672 11.062,11.693 Q10.516,11.715 10.16,12.128 L5.57,17.488 Q5.368,17.724 5.058,17.748 Q4.748,17.772 4.512,17.57 Q4.276,17.368 4.252,17.058 Q4.228,16.748 4.43,16.512 Z"/>
</svg>

