<svg xmlns="http://www.w3.org/2000/svg" width="24" height="24" viewBox="0 0 24 24">
  <defs/>
  <path fill="#292D32" d="M16.29,1.4 Q18.847,1.4 19.886,3.725 L22.444,9.481 Q23.497,11.812 21.766,13.724 L14.916,21.274 Q13.725,22.585 12.009,22.585 Q10.295,22.585 9.096,21.275 L2.238,13.737 Q0.505,11.847 1.545,9.495 L4.105,3.737 Q5.138,1.4 7.7,1.4 Z M16.29,2.9 L7.7,2.9 Q6.115,2.9 5.476,4.343 L2.916,10.105 Q2.274,11.556 3.343,12.723 L10.205,20.265 Q10.956,21.085 12.009,21.085 Q13.061,21.085 13.805,20.266 L20.655,12.716 Q21.726,11.534 21.077,10.099 L18.515,4.335 Q17.874,2.9 16.29,2.9 Z"/>
  <path fill="#292D32" opacity="0.4" d="M3.5,7.25 L20.5,7.25 Q20.811,7.25 21.03,7.47 Q21.25,7.689 21.25,8 Q21.25,8.311 21.03,8.53 Q20.811,8.75 20.5,8.75 L3.5,8.75 Q3.189,8.75 2.97,8.53 Q2.75,8.311 2.75,8 Q2.75,7.689 2.97,7.47 Q3.189,7.25 3.5,7.25 Z"/>
</svg>

