<svg xmlns="http://www.w3.org/2000/svg" width="24" height="24" viewBox="0 0 24 24">
  <defs/>
  <path fill="#292D32" d="M12.001,22.6 C10.891,22.6 9.861,22.13 9.091,21.29 L2.231,13.75 C1.261,12.69 0.961,10.82 1.541,9.51 L4.101,3.75 C4.801,2.18 5.971,1.41 7.691,1.41 L16.281,1.41 L16.281,2.16 L16.281,1.41 C18.001,1.41 19.171,2.17 19.871,3.74 L22.431,9.5 C23.011,10.81 22.721,12.68 21.751,13.74 L14.901,21.29 C14.151,22.13 13.111,22.6 12.001,22.6 Z M16.291,2.9 L7.701,2.9 C6.391,2.9 5.861,3.48 5.481,4.35 L2.921,10.11 C2.581,10.88 2.781,12.11 3.341,12.73 L10.201,20.27 C10.681,20.8 11.321,21.09 12.001,21.09 C12.681,21.09 13.321,20.8 13.801,20.27 L20.651,12.72 C21.221,12.09 21.421,10.87 21.071,10.1 L18.511,4.34 C18.131,3.48 17.601,2.9 16.291,2.9 Z"/>
  <path fill="#292D32" d="M3.5,8.75 C3.09,8.75 2.75,8.41 2.75,8 C2.75,7.59 3.09,7.25 3.5,7.25 L20.5,7.24 C20.91,7.24 21.25,7.58 21.25,7.99 C21.25,8.4 20.91,8.74 20.5,8.74 L3.5,8.75 Z"/>
</svg>

