<svg xmlns="http://www.w3.org/2000/svg" width="24" height="24" viewBox="0 0 24 24">
  <defs/>
  <path fill="#292D32" d="M4.361,8.506 L15.951,2.406 Q18.496,1.064 20.552,3.078 Q22.608,5.091 21.321,7.665 L19.701,10.905 Q19.154,12 19.701,13.094 L21.321,16.334 Q22.607,18.908 20.552,20.918 Q18.498,22.927 15.952,21.594 L4.361,15.493 Q2.25,14.383 2.25,12 Q2.25,9.617 4.361,8.506 Z M5.059,9.833 Q3.75,10.523 3.75,12 Q3.75,13.477 5.059,14.166 L16.648,20.265 Q18.228,21.093 19.503,19.846 Q20.777,18.6 19.979,17.005 L18.359,13.765 Q17.476,12 18.359,10.234 L19.979,6.994 Q20.777,5.398 19.503,4.149 Q18.228,2.901 16.649,3.733 Z"/>
</svg>

