<svg xmlns="http://www.w3.org/2000/svg" width="24" height="24" viewBox="0 0 24 24">
  <defs/>
  <path fill="#292D32" d="M17.019,21.292 L13.539,19.552 C12.569,19.072 11.439,19.072 10.469,19.552 L6.989,21.292 C3.999,22.782 0.849,19.572 2.409,16.622 L3.229,15.082 C3.339,14.872 3.519,14.702 3.739,14.602 L16.379,8.902 C16.899,8.672 17.509,8.882 17.769,9.382 L21.579,16.622 C23.139,19.572 19.999,22.782 17.019,21.292 Z"/>
  <path fill="#292D32" d="M15.6,7.69 L7.32,11.419 C6.39,11.839 5.45,10.839 5.93,9.94 L8.97,4.17 C10.26,1.72 13.76,1.72 15.05,4.17 L16.12,6.21 C16.4,6.76 16.16,7.44 15.6,7.69 Z"/>
</svg>

