<svg xmlns="http://www.w3.org/2000/svg" width="24" height="24" viewBox="0 0 24 24">
  <defs/>
  <path fill="#292D32" d="M12,9.75 C11.9,9.75 11.81,9.73 11.71,9.69 C11.43,9.58 11.25,9.3 11.25,9 L11.25,2 C11.25,1.59 11.59,1.25 12,1.25 C12.41,1.25 12.75,1.59 12.75,2 L12.75,7.19 L13.47,6.47 C13.76,6.18 14.24,6.18 14.53,6.47 C14.82,6.76 14.82,7.24 14.53,7.53 L12.53,9.53 C12.39,9.67 12.2,9.75 12,9.75 Z"/>
  <path fill="#292D32" d="M11.999,9.75 C11.809,9.75 11.62,9.68 11.47,9.53 L9.469,7.53 C9.179,7.24 9.179,6.76 9.469,6.47 C9.759,6.18 10.239,6.18 10.53,6.47 L12.53,8.47 C12.819,8.76 12.819,9.24 12.53,9.53 C12.38,9.68 12.19,9.75 11.999,9.75 Z"/>
  <path fill="#292D32" d="M13.761,17.75 L10.23,17.75 C9.18,17.75 8.24,17.17 7.77,16.23 L6.6,13.89 C6.56,13.8 6.47,13.75 6.38,13.75 L1.98,13.75 C1.57,13.75 1.23,13.41 1.23,13 C1.23,12.59 1.57,12.25 1.98,12.25 L6.39,12.25 C7.06,12.25 7.66,12.62 7.96,13.22 L9.13,15.56 C9.34,15.99 9.77,16.25 10.251,16.25 L13.78,16.25 C14.261,16.25 14.691,15.99 14.9,15.56 L16.07,13.22 C16.37,12.62 16.971,12.25 17.64,12.25 L22,12.25 C22.41,12.25 22.75,12.59 22.75,13 C22.75,13.41 22.41,13.75 22,13.75 L17.64,13.75 C17.541,13.75 17.46,13.8 17.421,13.89 L16.25,16.23 C15.751,17.17 14.81,17.75 13.761,17.75 Z"/>
  <path fill="#292D32" d="M15,22.75 L9,22.75 C3.57,22.75 1.25,20.43 1.25,15 L1.25,11 C1.25,6.31 2.99,3.96 6.89,3.39 C7.31,3.33 7.68,3.61 7.74,4.02 C7.8,4.43 7.52,4.81 7.11,4.87 C3.97,5.33 2.75,7.05 2.75,11 L2.75,15 C2.75,19.61 4.39,21.25 9,21.25 L15,21.25 C19.61,21.25 21.25,19.61 21.25,15 L21.25,11 C21.25,7.05 20.03,5.33 16.89,4.87 C16.48,4.81 16.2,4.43 16.26,4.02 C16.32,3.61 16.7,3.33 17.11,3.39 C21.01,3.96 22.75,6.31 22.75,11 L22.75,15 C22.75,20.43 20.43,22.75 15,22.75 Z"/>
</svg>

