<svg xmlns="http://www.w3.org/2000/svg" width="24" height="24" viewBox="0 0 24 24">
  <defs/>
  <path fill="#292D32" d="M2.709,17.02 L4.449,13.54 C4.929,12.57 4.929,11.44 4.449,10.47 L2.709,6.98 C1.219,4 4.429,0.85 7.379,2.41 L8.919,3.23 C9.139,3.34 9.309,3.52 9.399,3.74 L15.089,16.39 C15.319,16.91 15.109,17.52 14.609,17.78 L7.369,21.59 C4.429,23.15 1.219,20 2.709,17.02 Z"/>
  <path fill="#292D32" opacity="0.4" d="M16.309,15.6 L12.579,7.32 C12.159,6.39 13.159,5.45 14.059,5.93 L19.829,8.97 C22.279,10.26 22.279,13.76 19.829,15.05 L17.789,16.12 C17.239,16.4 16.569,16.17 16.309,15.6 Z"/>
</svg>

