<svg xmlns="http://www.w3.org/2000/svg" width="24" height="24" viewBox="0 0 24 24">
  <defs/>
  <path fill="#292D32" d="M8.506,4.361 Q9.617,2.25 12,2.25 Q14.383,2.25 15.494,4.361 L21.594,15.952 Q22.928,18.498 20.919,20.552 Q18.908,22.607 16.335,21.321 L13.095,19.701 Q12,19.154 10.905,19.701 L7.665,21.321 Q5.091,22.608 3.078,20.552 Q1.064,18.496 2.406,15.951 Z M9.834,5.059 L3.734,16.649 Q2.901,18.228 4.15,19.503 Q5.398,20.777 6.995,19.979 L10.235,18.359 Q12,17.476 13.765,18.359 L17.005,19.979 Q18.6,20.777 19.846,19.503 Q21.093,18.228 20.266,16.648 L14.166,5.059 Q13.477,3.75 12,3.75 Q10.523,3.75 9.834,5.059 Z"/>
</svg>

