<svg xmlns="http://www.w3.org/2000/svg" width="24" height="24" viewBox="0 0 24 24">
  <defs/>
  <path fill="#292D32" d="M2.709,17.019 L4.449,13.539 C4.929,12.569 4.929,11.439 4.449,10.469 L2.709,6.979 C1.219,3.999 4.429,0.849 7.379,2.409 L8.919,3.229 C9.139,3.339 9.309,3.519 9.399,3.739 L15.089,16.389 C15.319,16.909 15.109,17.519 14.609,17.779 L7.369,21.589 C4.429,23.149 1.219,19.999 2.709,17.019 Z"/>
  <path fill="#292D32" d="M16.309,15.6 L12.579,7.32 C12.159,6.39 13.159,5.45 14.059,5.93 L19.829,8.97 C22.279,10.26 22.279,13.76 19.829,15.05 L17.789,16.12 C17.239,16.4 16.569,16.17 16.309,15.6 Z"/>
</svg>

