<svg xmlns="http://www.w3.org/2000/svg" width="24" height="24" viewBox="0 0 24 24">
  <defs/>
  <path fill="#292D32" d="M11.25,9 L11.25,3.811 L10.53,4.53 Q10.311,4.75 10,4.75 Q9.689,4.75 9.47,4.53 Q9.25,4.311 9.25,4 Q9.25,3.689 9.47,3.47 L11.47,1.47 Q11.689,1.25 12,1.25 Q12.311,1.25 12.53,1.47 Q12.75,1.689 12.75,2 L12.75,9 Q12.75,9.311 12.53,9.53 Q12.311,9.75 12,9.75 Q11.689,9.75 11.47,9.53 Q11.25,9.311 11.25,9 Z"/>
  <path fill="#292D32" d="M12.53,1.47 L14.53,3.47 Q14.75,3.689 14.75,4 Q14.75,4.311 14.53,4.53 Q14.311,4.75 14,4.75 Q13.689,4.75 13.47,4.53 L11.47,2.53 Q11.25,2.311 11.25,2 Q11.25,1.689 11.47,1.47 Q11.689,1.25 12,1.25 Q12.311,1.25 12.53,1.47 Z"/>
  <path fill="#292D32" d="M1.98,12.25 L6.39,12.25 Q7.469,12.25 7.951,13.215 L9.121,15.555 Q9.469,16.25 10.24,16.25 L13.77,16.25 Q14.541,16.25 14.889,15.555 L16.059,13.215 Q16.541,12.25 17.62,12.25 L21.98,12.25 Q22.291,12.25 22.51,12.47 Q22.73,12.689 22.73,13 Q22.73,13.311 22.51,13.53 Q22.291,13.75 21.98,13.75 L17.62,13.75 Q17.469,13.75 17.401,13.885 L16.231,16.225 Q15.469,17.75 13.77,17.75 L10.24,17.75 Q8.541,17.75 7.779,16.225 L6.609,13.885 Q6.541,13.75 6.39,13.75 L1.98,13.75 Q1.669,13.75 1.45,13.53 Q1.23,13.311 1.23,13 Q1.23,12.689 1.45,12.47 Q1.669,12.25 1.98,12.25 Z"/>
  <path fill="#292D32" d="M7.109,5.872 Q2.75,6.512 2.75,12 L2.75,15 Q2.75,21.25 9,21.25 L15,21.25 Q18.439,21.25 19.845,19.845 Q21.25,18.439 21.25,15 L21.25,12 Q21.25,6.512 16.891,5.872 Q16.584,5.827 16.398,5.578 Q16.213,5.328 16.258,5.021 Q16.303,4.714 16.552,4.528 Q16.802,4.343 17.109,4.388 Q22.75,5.216 22.75,12 L22.75,15 Q22.75,19.061 20.905,20.905 Q19.061,22.75 15,22.75 L9,22.75 Q4.939,22.75 3.095,20.905 Q1.25,19.061 1.25,15 L1.25,12 Q1.25,5.216 6.891,4.388 Q7.198,4.343 7.448,4.528 Q7.697,4.714 7.742,5.021 Q7.787,5.328 7.602,5.578 Q7.416,5.827 7.109,5.872 Z"/>
</svg>

