<svg xmlns="http://www.w3.org/2000/svg" width="24" height="24" viewBox="0 0 24 24">
  <defs/>
  <g opacity="0.4">
    <path fill="#292D32" d="M12.75,2 L12.75,6.189 L13.47,5.47 Q13.689,5.25 14,5.25 Q14.311,5.25 14.53,5.47 Q14.75,5.689 14.75,6 Q14.75,6.311 14.53,6.53 L12.53,8.53 Q12.311,8.75 12,8.75 Q11.689,8.75 11.47,8.53 Q11.25,8.311 11.25,8 L11.25,2 Q11.25,1.689 11.47,1.47 Q11.689,1.25 12,1.25 Q12.311,1.25 12.53,1.47 Q12.75,1.689 12.75,2 Z"/>
    <path fill="#292D32" d="M11.47,8.53 L9.47,6.53 Q9.25,6.311 9.25,6 Q9.25,5.689 9.47,5.47 Q9.689,5.25 10,5.25 Q10.311,5.25 10.53,5.47 L12.53,7.47 Q12.75,7.689 12.75,8 Q12.75,8.311 12.53,8.53 Q12.311,8.75 12,8.75 Q11.689,8.75 11.47,8.53 Z"/>
  </g>
  <path fill="#292D32" d="M7,11.25 Q8.25,11.25 9.25,12 Q9.303,12.04 9.348,12.088 L10.355,13.165 Q11.026,13.875 11.999,13.875 Q12.97,13.875 13.635,13.165 L14.655,12.085 Q14.699,12.038 14.75,12 Q15.75,11.25 17,11.25 Q20.084,11.25 21.117,12.745 Q21.75,13.661 21.75,16 L21.75,17 Q21.75,22.75 16,22.75 L8,22.75 Q4.243,22.75 3.008,20.961 Q2.25,19.864 2.25,17 L2.25,16 Q2.25,13.661 2.883,12.745 Q3.916,11.25 7,11.25 Z M7,12.75 Q4.703,12.75 4.117,13.598 Q3.75,14.129 3.75,16 L3.75,17 Q3.75,19.396 4.242,20.109 Q5.03,21.25 8,21.25 L16,21.25 Q20.25,21.25 20.25,17 L20.25,16 Q20.25,14.129 19.883,13.598 Q19.297,12.75 17,12.75 Q16.28,12.75 15.698,13.165 L14.725,14.195 Q13.62,15.375 11.999,15.375 Q10.379,15.375 9.265,14.195 L8.3,13.164 Q7.719,12.75 7,12.75 Z"/>
  <path fill="#292D32" opacity="0.4" d="M4.25,12 L4.25,8 Q4.25,3.649 7.928,3.294 Q8.237,3.264 8.477,3.461 Q8.717,3.659 8.747,3.968 Q8.776,4.277 8.579,4.517 Q8.381,4.757 8.072,4.787 Q6.456,4.943 6.037,5.728 Q5.75,6.265 5.75,8 L5.75,12 Q5.75,12.311 5.53,12.53 Q5.311,12.75 5,12.75 Q4.689,12.75 4.47,12.53 Q4.25,12.311 4.25,12 Z"/>
  <path fill="#292D32" opacity="0.4" d="M18.25,12 L18.25,8 Q18.25,6.265 17.963,5.728 Q17.544,4.943 15.928,4.787 Q15.619,4.757 15.421,4.517 Q15.224,4.277 15.253,3.968 Q15.283,3.659 15.523,3.461 Q15.763,3.264 16.072,3.294 Q19.75,3.649 19.75,8 L19.75,12 Q19.75,12.311 19.53,12.53 Q19.311,12.75 19,12.75 Q18.689,12.75 18.47,12.53 Q18.25,12.311 18.25,12 Z"/>
</svg>

