<svg xmlns="http://www.w3.org/2000/svg" width="24" height="24" viewBox="0 0 24 24">
  <defs/>
  <path fill="#292D32" d="M21.292,17.022 L19.552,13.542 C19.072,12.572 19.072,11.442 19.552,10.472 L21.292,6.992 C22.782,4.002 19.572,0.862 16.622,2.422 L15.082,3.242 C14.872,3.352 14.702,3.532 14.602,3.752 L8.902,16.392 C8.672,16.912 8.882,17.522 9.382,17.782 L16.622,21.592 C19.572,23.152 22.782,20.002 21.292,17.022 Z"/>
  <path fill="#292D32" d="M7.69,15.6 L11.419,7.32 C11.839,6.39 10.839,5.45 9.94,5.93 L4.17,8.96 C1.72,10.25 1.72,13.75 4.17,15.04 L6.21,16.11 C6.76,16.4 7.43,16.17 7.69,15.6 Z"/>
</svg>

