<svg xmlns="http://www.w3.org/2000/svg" width="24" height="24" viewBox="0 0 24 24">
  <defs/>
  <path fill="#292D32" d="M17.019,21.29 L13.539,19.55 C12.569,19.07 11.439,19.07 10.469,19.55 L6.989,21.29 C3.999,22.78 0.849,19.57 2.409,16.62 L3.229,15.08 C3.339,14.87 3.519,14.7 3.739,14.6 L16.379,8.9 C16.899,8.67 17.509,8.88 17.769,9.38 L21.579,16.62 C23.139,19.57 19.999,22.78 17.019,21.29 Z"/>
  <path fill="#292D32" opacity="0.4" d="M15.6,7.69 L7.32,11.42 C6.39,11.84 5.45,10.84 5.93,9.94 L8.97,4.17 C10.26,1.72 13.76,1.72 15.05,4.17 L16.12,6.21 C16.4,6.76 16.16,7.44 15.6,7.69 Z"/>
</svg>

