<svg xmlns="http://www.w3.org/2000/svg" width="24" height="24" viewBox="0 0 24 24">
  <defs/>
  <path fill="#292D32" d="M21.29,17.02 L19.55,13.54 C19.07,12.57 19.07,11.44 19.55,10.47 L21.29,6.99 C22.78,4 19.57,0.86 16.62,2.42 L15.08,3.24 C14.87,3.35 14.7,3.53 14.6,3.75 L8.9,16.39 C8.67,16.91 8.88,17.52 9.38,17.78 L16.62,21.59 C19.57,23.15 22.78,20 21.29,17.02 Z"/>
  <path fill="#292D32" opacity="0.4" d="M7.69,15.6 L11.419,7.32 C11.839,6.39 10.839,5.45 9.94,5.93 L4.17,8.96 C1.72,10.25 1.72,13.75 4.17,15.04 L6.21,16.11 C6.76,16.4 7.43,16.17 7.69,15.6 Z"/>
</svg>

