<svg xmlns="http://www.w3.org/2000/svg" width="24" height="24" viewBox="0 0 24 24">
  <defs/>
  <path fill="#292D32" d="M8.506,19.639 L2.406,8.049 Q1.064,5.504 3.078,3.448 Q5.091,1.392 7.665,2.679 L10.905,4.299 Q12,4.846 13.095,4.299 L16.335,2.679 Q18.908,1.392 20.919,3.448 Q22.928,5.502 21.594,8.048 L15.494,19.639 Q14.383,21.75 12,21.75 Q9.617,21.75 8.506,19.639 Z M9.834,18.941 Q10.523,20.25 12,20.25 Q13.477,20.25 14.166,18.941 L20.266,7.352 Q21.093,5.771 19.846,4.497 Q18.6,3.223 17.005,4.021 L13.765,5.641 Q12,6.523 10.235,5.641 L6.995,4.021 Q5.398,3.223 4.15,4.497 Q2.901,5.772 3.734,7.351 Z"/>
</svg>

