<svg xmlns="http://www.w3.org/2000/svg" width="24" height="24" viewBox="0 0 24 24">
  <defs/>
  <path fill="#292D32" d="M15.95,2.407 Q18.496,1.064 20.552,3.078 Q22.608,5.091 21.321,7.665 L19.701,10.905 Q19.154,12 19.701,13.095 L21.321,16.335 Q22.607,18.908 20.552,20.919 Q18.498,22.928 15.952,21.594 L4.361,15.494 Q2.25,14.383 2.25,12 Q2.25,9.617 4.361,8.506 L11.331,4.836 Q11.605,4.692 11.902,4.784 Q12.199,4.876 12.344,5.151 Q12.488,5.426 12.396,5.722 Q12.304,6.019 12.029,6.164 L5.059,9.834 Q3.75,10.523 3.75,12 Q3.75,13.477 5.059,14.166 L16.648,20.266 Q18.228,21.093 19.503,19.846 Q20.777,18.6 19.979,17.005 L18.359,13.765 Q17.476,12 18.359,10.235 L19.979,6.995 Q20.777,5.398 19.503,4.15 Q18.228,2.901 16.65,3.733 Q16.375,3.878 16.078,3.787 Q15.781,3.695 15.637,3.42 Q15.492,3.145 15.584,2.848 Q15.675,2.552 15.95,2.407 Z"/>
</svg>

