<svg xmlns="http://www.w3.org/2000/svg" width="24" height="24" viewBox="0 0 24 24">
  <defs/>
  <path fill="#292D32" d="M17.019,2.72 L13.539,4.46 C12.569,4.94 11.439,4.94 10.469,4.46 L6.979,2.71 C3.999,1.22 0.849,4.44 2.409,7.39 L3.229,8.93 C3.339,9.14 3.519,9.31 3.739,9.41 L16.389,15.1 C16.909,15.33 17.519,15.12 17.779,14.62 L21.589,7.38 C23.139,4.44 19.999,1.22 17.019,2.72 Z"/>
  <path fill="#292D32" opacity="0.4" d="M15.6,16.31 L7.32,12.58 C6.39,12.16 5.45,13.16 5.93,14.06 L8.97,19.83 C10.26,22.28 13.76,22.28 15.05,19.83 L16.12,17.79 C16.4,17.24 16.16,16.57 15.6,16.31 Z"/>
</svg>

