<svg xmlns="http://www.w3.org/2000/svg" width="24" height="24" viewBox="0 0 24 24">
  <defs/>
  <path fill="#292D32" d="M12,21.75 C10.53,21.75 9.19,20.94 8.51,19.64 L2.41,8.05 C1.59,6.5 1.86,4.7 3.08,3.45 C4.3,2.2 6.1,1.9 7.66,2.68 L10.9,4.3 C11.58,4.64 12.4,4.64 13.09,4.3 L16.33,2.68 C17.9,1.9 19.7,2.2 20.92,3.45 C22.14,4.7 22.41,6.5 21.59,8.05 L15.49,19.64 C14.81,20.94 13.47,21.75 12,21.75 Z M5.88,3.75 C5.17,3.75 4.55,4.09 4.15,4.5 C3.55,5.12 3.12,6.19 3.73,7.35 L9.83,18.94 C10.26,19.76 11.07,20.25 11.99,20.25 C12.91,20.25 13.72,19.76 14.15,18.94 L20.25,7.35 C20.86,6.19 20.44,5.11 19.83,4.5 C19.23,3.89 18.17,3.44 16.99,4.02 L13.75,5.64 C12.64,6.19 11.33,6.19 10.22,5.64 L6.99,4.02 C6.61,3.83 6.23,3.75 5.88,3.75 Z"/>
</svg>

