<svg xmlns="http://www.w3.org/2000/svg" width="24" height="24" viewBox="0 0 24 24">
  <defs/>
  <path fill="#292D32" d="M1.98,12.25 L5.77,12.25 Q7.469,12.25 8.231,13.775 L9.122,15.566 Q9.464,16.25 10.241,16.25 L13.771,16.25 Q14.542,16.25 14.89,15.555 L15.779,13.766 Q16.542,12.24 18.24,12.24 L21.98,12.24 Q22.291,12.24 22.511,12.46 Q22.73,12.68 22.73,12.99 Q22.73,13.301 22.511,13.521 Q22.291,13.74 21.98,13.74 L18.24,13.74 Q17.469,13.74 17.122,14.434 L16.231,16.226 Q15.469,17.75 13.771,17.75 L10.241,17.75 Q8.537,17.75 7.779,16.234 L6.89,14.446 Q6.542,13.75 5.77,13.75 L1.98,13.75 Q1.67,13.75 1.45,13.531 Q1.23,13.311 1.23,13 Q1.23,12.69 1.45,12.47 Q1.67,12.25 1.98,12.25 Z"/>
  <path fill="#292D32" d="M19,2.75 Q16.75,2.75 16.75,5 Q16.75,7.25 19,7.25 Q21.25,7.25 21.25,5 Q21.25,4.622 21.128,4.257 Q21.03,3.962 21.169,3.685 Q21.308,3.407 21.603,3.308 Q21.898,3.21 22.175,3.349 Q22.453,3.488 22.552,3.783 Q22.75,4.378 22.75,5 Q22.75,8.75 19,8.75 Q15.25,8.75 15.25,5 Q15.25,1.25 19,1.25 Q19.311,1.25 19.53,1.47 Q19.75,1.689 19.75,2 Q19.75,2.311 19.53,2.53 Q19.311,2.75 19,2.75 Z"/>
  <path fill="#292D32" d="M3.372,18.688 Q4.543,21.25 8.999,21.25 L15,21.25 Q18.439,21.25 19.844,19.845 Q21.25,18.439 21.25,15 L21.25,10 Q21.249,9.689 21.469,9.47 Q21.689,9.25 21.999,9.25 Q22.31,9.25 22.53,9.47 Q22.749,9.689 22.75,10 L22.75,15 Q22.749,22.75 15,22.75 L8.999,22.75 Q3.579,22.75 2.007,19.312 Q1.878,19.029 1.987,18.738 Q2.095,18.447 2.378,18.318 Q2.66,18.189 2.951,18.297 Q3.242,18.406 3.372,18.688 Z"/>
  <path fill="#292D32" d="M14,2.75 L9,2.75 Q2.75,2.75 2.75,9 L2.75,15 Q2.75,15.311 2.53,15.53 Q2.311,15.75 2,15.75 Q1.689,15.75 1.47,15.53 Q1.25,15.311 1.25,15 L1.25,9 Q1.25,1.25 9,1.25 L14,1.25 Q14.311,1.25 14.53,1.47 Q14.75,1.689 14.75,2 Q14.75,2.311 14.53,2.53 Q14.311,2.75 14,2.75 Z"/>
</svg>

