<svg xmlns="http://www.w3.org/2000/svg" width="24" height="24" viewBox="0 0 24 24">
  <defs/>
  <path fill="#292D32" d="M7.35,3.733 Q5.772,2.901 4.497,4.15 Q3.223,5.398 4.021,6.995 L5.641,10.235 Q6.524,12 5.641,13.765 L4.021,17.005 Q3.223,18.6 4.497,19.846 Q5.772,21.093 7.352,20.266 L18.941,14.166 Q20.25,13.477 20.25,12 Q20.25,10.523 18.941,9.834 L11.971,6.164 Q11.696,6.019 11.604,5.722 Q11.512,5.426 11.656,5.151 Q11.801,4.876 12.098,4.784 Q12.395,4.692 12.67,4.836 L19.639,8.506 Q21.75,9.617 21.75,12 Q21.75,14.383 19.639,15.494 L8.048,21.594 Q5.502,22.928 3.448,20.919 Q1.393,18.908 2.679,16.335 L4.299,13.095 Q4.847,12 4.299,10.905 L2.679,7.665 Q1.392,5.091 3.448,3.078 Q5.504,1.064 8.05,2.407 Q8.325,2.552 8.417,2.848 Q8.508,3.145 8.364,3.42 Q8.219,3.695 7.922,3.787 Q7.625,3.878 7.35,3.733 Z"/>
</svg>

