<svg xmlns="http://www.w3.org/2000/svg" width="24" height="24" viewBox="0 0 24 24">
  <defs/>
  <path fill="#292D32" d="M21.3,12.23 L17.82,12.23 C16.84,12.23 15.97,12.771 15.53,13.65 L14.69,15.31 C14.49,15.71 14.09,15.96 13.65,15.96 L10.37,15.96 C10.06,15.96 9.62,15.89 9.33,15.31 L8.49,13.661 C8.05,12.79 7.17,12.241 6.2,12.241 L2.7,12.241 C2.31,12.241 2,12.55 2,12.941 L2,16.201 C2,19.831 4.18,22 7.82,22 L16.2,22 C19.63,22 21.74,20.12 22,16.78 L22,12.931 C22,12.55 21.69,12.23 21.3,12.23 Z"/>
  <path fill="#292D32" d="M22,7.81 L22,10.85 C21.78,10.77 21.54,10.73 21.3,10.73 L17.82,10.73 C16.27,10.73 14.88,11.59 14.19,12.97 L13.44,14.45 L10.58,14.45 L9.83,12.98 C9.14,11.59 7.75,10.73 6.2,10.73 L2.7,10.73 C2.46,10.73 2.22,10.77 2,10.85 L2,7.81 C2,4.17 4.17,2 7.81,2 L16.19,2 C19.83,2 22,4.17 22,7.81 Z"/>
</svg>

