<svg xmlns="http://www.w3.org/2000/svg" width="24" height="24" viewBox="0 0 24 24">
  <defs/>
  <path fill="#292D32" d="M12,8.75 C11.9,8.75 11.81,8.73 11.71,8.69 C11.43,8.58 11.25,8.3 11.25,8 L11.25,2 C11.25,1.59 11.59,1.25 12,1.25 C12.41,1.25 12.75,1.59 12.75,2 L12.75,6.19 L13.47,5.47 C13.76,5.18 14.24,5.18 14.53,5.47 C14.82,5.76 14.82,6.24 14.53,6.53 L12.53,8.53 C12.39,8.67 12.19,8.75 12,8.75 Z"/>
  <path fill="#292D32" d="M11.999,8.75 C11.809,8.75 11.62,8.68 11.47,8.53 L9.469,6.53 C9.179,6.24 9.179,5.76 9.469,5.47 C9.759,5.18 10.239,5.18 10.53,5.47 L12.53,7.47 C12.819,7.76 12.819,8.24 12.53,8.53 C12.38,8.68 12.19,8.75 11.999,8.75 Z"/>
  <path fill="#292D32" d="M16,22.75 L8,22.75 C2.25,22.75 2.25,19.7 2.25,17 L2.25,16 C2.25,13.77 2.25,11.25 7,11.25 C8.19,11.25 8.63,11.54 9.25,12 C9.28,12.03 9.32,12.05 9.35,12.09 L10.37,13.17 C11.23,14.08 12.79,14.08 13.65,13.17 L14.67,12.09 C14.7,12.06 14.73,12.03 14.77,12 C15.39,11.53 15.83,11.25 17.02,11.25 C21.77,11.25 21.77,13.77 21.77,16 L21.77,17 C21.75,20.82 19.82,22.75 16,22.75 Z M7,12.75 C3.75,12.75 3.75,13.77 3.75,16 L3.75,17 C3.75,19.74 3.75,21.25 8,21.25 L16,21.25 C18.98,21.25 20.25,19.98 20.25,17 L20.25,16 C20.25,13.77 20.25,12.75 17,12.75 C16.28,12.75 16.13,12.84 15.7,13.16 L14.73,14.19 C14.01,14.95 13.04,15.37 12,15.37 C10.96,15.37 9.99,14.95 9.27,14.19 L8.3,13.16 C7.87,12.84 7.72,12.75 7,12.75 Z"/>
  <path fill="#292D32" d="M5,12.75 C4.59,12.75 4.25,12.41 4.25,12 L4.25,8 C4.25,6.06 4.25,3.65 7.93,3.3 C8.34,3.26 8.71,3.56 8.75,3.98 C8.79,4.39 8.49,4.76 8.07,4.8 C5.75,5.01 5.75,5.95 5.75,8 L5.75,12 C5.75,12.41 5.41,12.75 5,12.75 Z"/>
  <path fill="#292D32" d="M18.999,12.75 C18.589,12.75 18.249,12.41 18.249,12 L18.249,8 C18.249,5.95 18.249,5.01 15.929,4.79 C15.519,4.75 15.219,4.38 15.259,3.97 C15.299,3.56 15.659,3.25 16.079,3.3 C19.759,3.65 19.759,6.06 19.759,8 L19.759,12 C19.749,12.41 19.409,12.75 18.999,12.75 Z"/>
</svg>

