<svg xmlns="http://www.w3.org/2000/svg" width="24" height="24" viewBox="0 0 24 24">
  <defs/>
  <path fill="#292D32" d="M19,8 C20.657,8 22,6.657 22,5 C22,3.343 20.657,2 19,2 C17.343,2 16,3.343 16,5 C16,6.657 17.343,8 19,8 Z"/>
  <path fill="#292D32" d="M20.34,12.72 L17.03,12.72 C16.1,12.72 15.27,13.24 14.85,14.06 L14.05,15.64 C13.86,16.02 13.48,16.25 13.06,16.25 L9.95,16.25 C9.66,16.25 9.23,16.19 8.96,15.63 L8.17,14.06 C7.75,13.23 6.92,12.71 5.99,12.71 L2.66,12.71 C2.3,12.72 2,13.02 2,13.38 L2,16.47 C2,19.94 4.07,22 7.53,22 L15.49,22 C18.75,22 20.76,20.21 21,17.04 L21,13.38 C21,13.02 20.7,12.72 20.34,12.72 Z"/>
  <path fill="#292D32" opacity="0.4" d="M19,9.5 C16.52,9.5 14.5,7.48 14.5,5 C14.5,4.28 14.69,3.61 14.99,3 L7.52,3 C4.07,3 2,5.06 2,8.52 L2,16.47 C2,19.94 4.07,22 7.52,22 L15.47,22 C18.93,22 20.99,19.94 20.99,16.48 L20.99,9.01 C20.39,9.31 19.72,9.5 19,9.5 Z"/>
</svg>

