<svg xmlns="http://www.w3.org/2000/svg" width="24" height="24" viewBox="0 0 24 24">
  <defs/>
  <path fill="#292D32" d="M21.3,12.23 L17.82,12.23 C16.84,12.23 15.97,12.771 15.53,13.65 L14.69,15.31 C14.49,15.71 14.09,15.96 13.65,15.96 L10.37,15.96 C10.06,15.96 9.62,15.89 9.33,15.31 L8.49,13.661 C8.05,12.79 7.17,12.241 6.2,12.241 L2.7,12.241 C2.31,12.241 2,12.55 2,12.941 L2,16.201 C2,19.831 4.18,22 7.82,22 L16.2,22 C19.63,22 21.74,20.12 22,16.78 L22,12.931 C22,12.55 21.69,12.23 21.3,12.23 Z"/>
  <path fill="#292D32" d="M12.75,2 C12.75,1.59 12.41,1.25 12,1.25 C11.59,1.25 11.25,1.59 11.25,2 L11.25,4 L12.75,4 L12.75,2 Z"/>
  <path fill="#292D32" d="M22,9.81 L22,10.85 C21.78,10.77 21.54,10.73 21.3,10.73 L17.82,10.73 C16.27,10.73 14.88,11.59 14.19,12.97 L13.44,14.45 L10.58,14.45 L9.83,12.98 C9.14,11.59 7.75,10.73 6.2,10.73 L2.7,10.73 C2.46,10.73 2.22,10.77 2,10.85 L2,9.81 C2,6.17 4.17,4 7.81,4 L11.25,4 L11.25,7.19 L10.53,6.47 C10.24,6.18 9.76,6.18 9.47,6.47 C9.18,6.76 9.18,7.24 9.47,7.53 L11.47,9.53 C11.48,9.54 11.49,9.54 11.49,9.55 C11.56,9.61 11.63,9.66 11.71,9.69 C11.81,9.73 11.9,9.75 12,9.75 C12.1,9.75 12.19,9.73 12.28,9.69 C12.37,9.66 12.46,9.6 12.53,9.53 L14.53,7.53 C14.82,7.24 14.82,6.76 14.53,6.47 C14.24,6.18 13.76,6.18 13.47,6.47 L12.75,7.19 L12.75,4 L16.19,4 C19.83,4 22,6.17 22,9.81 Z"/>
</svg>

