<svg xmlns="http://www.w3.org/2000/svg" width="24" height="24" viewBox="0 0 24 24">
  <defs/>
  <path fill="#292D32" d="M11.999,9.75 C11.589,9.75 11.249,9.41 11.249,9 L11.249,3.81 L10.53,4.53 C10.239,4.82 9.759,4.82 9.469,4.53 C9.179,4.24 9.179,3.76 9.469,3.47 L11.47,1.47 C11.68,1.26 12.009,1.19 12.29,1.31 C12.569,1.42 12.749,1.7 12.749,2 L12.749,9 C12.749,9.41 12.409,9.75 11.999,9.75 Z"/>
  <path fill="#292D32" d="M13.999,4.75 C13.809,4.75 13.62,4.68 13.47,4.53 L11.47,2.53 C11.18,2.24 11.18,1.76 11.47,1.47 C11.759,1.18 12.239,1.18 12.53,1.47 L14.53,3.47 C14.819,3.76 14.819,4.24 14.53,4.53 C14.38,4.68 14.19,4.75 13.999,4.75 Z"/>
  <path fill="#292D32" d="M13.761,17.75 L10.23,17.75 C9.18,17.75 8.24,17.17 7.77,16.23 L6.6,13.89 C6.56,13.8 6.47,13.75 6.38,13.75 L1.98,13.75 C1.57,13.75 1.23,13.41 1.23,13 C1.23,12.59 1.57,12.25 1.98,12.25 L6.39,12.25 C7.06,12.25 7.66,12.62 7.96,13.22 L9.13,15.56 C9.34,15.99 9.77,16.25 10.251,16.25 L13.78,16.25 C14.261,16.25 14.691,15.99 14.9,15.56 L16.07,13.22 C16.37,12.62 16.971,12.25 17.64,12.25 L22,12.25 C22.41,12.25 22.75,12.59 22.75,13 C22.75,13.41 22.41,13.75 22,13.75 L17.64,13.75 C17.541,13.75 17.46,13.8 17.421,13.89 L16.25,16.23 C15.751,17.17 14.81,17.75 13.761,17.75 Z"/>
  <path fill="#292D32" d="M15,22.75 L9,22.75 C3.57,22.75 1.25,20.43 1.25,15 L1.25,12 C1.25,7.31 2.99,4.96 6.89,4.39 C7.31,4.33 7.68,4.61 7.74,5.02 C7.8,5.43 7.52,5.81 7.11,5.87 C3.97,6.33 2.75,8.05 2.75,12 L2.75,15 C2.75,19.61 4.39,21.25 9,21.25 L15,21.25 C19.61,21.25 21.25,19.61 21.25,15 L21.25,12 C21.25,8.05 20.03,6.33 16.89,5.87 C16.48,5.81 16.2,5.43 16.26,5.02 C16.32,4.61 16.7,4.33 17.11,4.39 C21.01,4.96 22.75,7.31 22.75,12 L22.75,15 C22.75,20.43 20.43,22.75 15,22.75 Z"/>
</svg>

