<svg xmlns="http://www.w3.org/2000/svg" width="24" height="24" viewBox="0 0 24 24">
  <defs/>
  <path fill="#292D32" d="M18.69,11.531 C18.12,11.381 17.45,11.301 16.65,11.301 C15.54,11.301 15.13,11.571 14.56,12.001 C14.53,12.021 14.5,12.051 14.47,12.081 L13.52,13.091 C12.72,13.931 11.28,13.941 10.48,13.081 L9.53,12.081 C9.5,12.051 9.47,12.021 9.44,12.001 C8.87,11.571 8.46,11.301 7.35,11.301 C6.55,11.301 5.88,11.381 5.31,11.531 C2.93,12.171 2.93,14.061 2.93,15.721 L2.93,16.651 C2.93,19.161 2.93,22.001 8.28,22.001 L15.72,22.001 C19.27,22.001 21.07,20.201 21.07,16.651 L21.07,15.721 C21.07,14.061 21.07,12.171 18.69,11.531 Z M14.33,18.401 L9.67,18.401 C9.29,18.401 8.98,18.091 8.98,17.701 C8.98,17.311 9.29,17.001 9.67,17.001 L14.33,17.001 C14.71,17.001 15.02,17.311 15.02,17.701 C15.02,18.091 14.71,18.401 14.33,18.401 Z"/>
  <path fill="#292D32" d="M19.209,6.42 L19.209,10.12 C19.169,10.1 19.119,10.09 19.079,10.08 C18.379,9.89 17.589,9.8 16.649,9.8 C15.109,9.8 14.389,10.25 13.649,10.81 C13.549,10.88 13.459,10.97 13.379,11.05 L12.419,12.06 C12.329,12.16 12.169,12.22 11.999,12.22 C11.829,12.22 11.669,12.16 11.569,12.05 L10.629,11.06 C10.539,10.96 10.439,10.87 10.339,10.8 C9.619,10.25 8.889,9.8 7.349,9.8 C6.409,9.8 5.619,9.89 4.919,10.08 C4.879,10.09 4.829,10.1 4.789,10.12 L4.789,6.42 C4.789,4.35 4.789,2 9.209,2 L14.789,2 C19.209,2 19.209,4.35 19.209,6.42 Z"/>
</svg>

