<svg xmlns="http://www.w3.org/2000/svg" width="24" height="24" viewBox="0 0 24 24">
  <defs/>
  <path fill="#292D32" d="M11.999,8.75 C11.589,8.75 11.249,8.41 11.249,8 L11.249,3.81 L10.53,4.53 C10.239,4.82 9.759,4.82 9.469,4.53 C9.179,4.24 9.179,3.76 9.469,3.47 L11.47,1.47 C11.68,1.26 12.009,1.19 12.29,1.31 C12.569,1.42 12.749,1.7 12.749,2 L12.749,8 C12.749,8.41 12.409,8.75 11.999,8.75 Z"/>
  <path fill="#292D32" d="M13.999,4.75 C13.809,4.75 13.62,4.68 13.47,4.53 L11.47,2.53 C11.18,2.24 11.18,1.76 11.47,1.47 C11.759,1.18 12.239,1.18 12.53,1.47 L14.53,3.47 C14.819,3.76 14.819,4.24 14.53,4.53 C14.38,4.68 14.19,4.75 13.999,4.75 Z"/>
  <path fill="#292D32" d="M16,22.75 L8,22.75 C2.25,22.75 2.25,19.7 2.25,17 L2.25,16 C2.25,13.77 2.25,11.25 7,11.25 C8.19,11.25 8.63,11.54 9.25,12 C9.28,12.03 9.32,12.05 9.35,12.09 L10.37,13.17 C11.23,14.08 12.79,14.08 13.65,13.17 L14.67,12.09 C14.7,12.06 14.73,12.03 14.77,12 C15.39,11.53 15.83,11.25 17.02,11.25 C21.77,11.25 21.77,13.77 21.77,16 L21.77,17 C21.75,20.82 19.82,22.75 16,22.75 Z M7,12.75 C3.75,12.75 3.75,13.77 3.75,16 L3.75,17 C3.75,19.74 3.75,21.25 8,21.25 L16,21.25 C18.98,21.25 20.25,19.98 20.25,17 L20.25,16 C20.25,13.77 20.25,12.75 17,12.75 C16.28,12.75 16.13,12.84 15.7,13.16 L14.73,14.19 C14.01,14.95 13.04,15.37 12,15.37 C10.96,15.37 9.99,14.95 9.27,14.19 L8.3,13.16 C7.87,12.84 7.72,12.75 7,12.75 Z"/>
  <path fill="#292D32" d="M5,12.75 C4.59,12.75 4.25,12.41 4.25,12 L4.25,10 C4.25,8.06 4.25,5.65 7.93,5.3 C8.33,5.25 8.71,5.56 8.75,5.98 C8.79,6.39 8.49,6.76 8.07,6.8 C5.75,7.01 5.75,7.95 5.75,10 L5.75,12 C5.75,12.41 5.41,12.75 5,12.75 Z"/>
  <path fill="#292D32" d="M18.999,12.75 C18.589,12.75 18.249,12.41 18.249,12 L18.249,10 C18.249,7.95 18.249,7.01 15.929,6.79 C15.519,6.75 15.219,6.38 15.259,5.97 C15.299,5.56 15.659,5.25 16.079,5.3 C19.759,5.65 19.759,8.06 19.759,10 L19.759,12 C19.749,12.41 19.409,12.75 18.999,12.75 Z"/>
</svg>

