<svg xmlns="http://www.w3.org/2000/svg" width="24" height="24" viewBox="0 0 24 24">
  <defs/>
  <path fill="#292D32" d="M7,11.25 Q8.25,11.25 9.25,12 Q9.303,12.04 9.348,12.088 L10.355,13.165 Q11.026,13.875 11.999,13.875 Q12.97,13.875 13.635,13.165 L14.655,12.085 Q14.699,12.038 14.75,12 Q15.75,11.25 17,11.25 Q20.084,11.25 21.117,12.745 Q21.75,13.661 21.75,16 L21.75,17 Q21.75,22.75 16,22.75 L8,22.75 Q4.243,22.75 3.008,20.961 Q2.25,19.864 2.25,17 L2.25,16 Q2.25,13.661 2.883,12.745 Q3.916,11.25 7,11.25 Z M7,12.75 Q4.703,12.75 4.117,13.598 Q3.75,14.129 3.75,16 L3.75,17 Q3.75,19.396 4.242,20.109 Q5.03,21.25 8,21.25 L16,21.25 Q20.25,21.25 20.25,17 L20.25,16 Q20.25,14.129 19.883,13.598 Q19.297,12.75 17,12.75 Q16.28,12.75 15.698,13.165 L14.725,14.195 Q13.62,15.375 11.999,15.375 Q10.379,15.375 9.265,14.195 L8.3,13.164 Q7.719,12.75 7,12.75 Z"/>
  <path fill="#292D32" d="M5.75,9.96 L5.75,12 Q5.75,12.311 5.53,12.53 Q5.311,12.75 5,12.75 Q4.689,12.75 4.47,12.53 Q4.25,12.311 4.25,12 L4.25,9.96 Q4.25,9.649 4.47,9.43 Q4.689,9.21 5,9.21 Q5.311,9.21 5.53,9.43 Q5.75,9.649 5.75,9.96 Z"/>
  <path fill="#292D32" d="M18.25,12 L18.25,6 Q18.25,4.129 17.883,3.598 Q17.297,2.75 15,2.75 L9,2.75 Q6.703,2.75 6.117,3.598 Q5.75,4.129 5.75,6 Q5.75,6.311 5.53,6.53 Q5.311,6.75 5,6.75 Q4.689,6.75 4.47,6.53 Q4.25,6.311 4.25,6 Q4.25,3.661 4.883,2.745 Q5.916,1.25 9,1.25 L15,1.25 Q18.084,1.25 19.117,2.745 Q19.75,3.661 19.75,6 L19.75,12 Q19.75,12.311 19.53,12.53 Q19.311,12.75 19,12.75 Q18.689,12.75 18.47,12.53 Q18.25,12.311 18.25,12 Z"/>
  <path fill="#292D32" d="M10.33,8.45 L13.66,8.45 Q13.971,8.45 14.19,8.67 Q14.41,8.89 14.41,9.2 Q14.41,9.511 14.19,9.731 Q13.971,9.95 13.66,9.95 L10.33,9.95 Q10.019,9.95 9.8,9.731 Q9.58,9.511 9.58,9.2 Q9.58,8.89 9.8,8.67 Q10.019,8.45 10.33,8.45 Z"/>
  <path fill="#292D32" d="M13.66,5.45 L14.5,5.45 Q14.811,5.45 15.031,5.67 Q15.25,5.89 15.25,6.2 Q15.25,6.511 15.031,6.731 Q14.811,6.95 14.5,6.95 L13.66,6.95 Q13.35,6.95 13.13,6.731 Q12.91,6.511 12.91,6.2 Q12.91,5.89 13.13,5.67 Q13.35,5.45 13.66,5.45 Z"/>
  <path fill="#292D32" d="M9.5,5.45 L11.08,5.45 Q11.391,5.45 11.61,5.67 Q11.83,5.89 11.83,6.2 Q11.83,6.511 11.61,6.731 Q11.391,6.95 11.08,6.95 L9.5,6.95 Q9.189,6.95 8.97,6.731 Q8.75,6.511 8.75,6.2 Q8.75,5.89 8.97,5.67 Q9.189,5.45 9.5,5.45 Z"/>
</svg>

