<svg xmlns="http://www.w3.org/2000/svg" width="24" height="24" viewBox="0 0 24 24">
  <defs/>
  <path fill="#292D32" d="M3.733,16.65 Q2.9,18.228 4.149,19.503 Q5.397,20.777 6.994,19.979 L10.234,18.359 Q11.999,17.476 13.765,18.359 L17.005,19.979 Q18.6,20.777 19.846,19.503 Q21.092,18.228 20.265,16.648 L14.166,5.059 Q13.477,3.75 11.999,3.75 Q10.522,3.75 9.833,5.059 L6.163,12.029 Q6.018,12.304 5.721,12.396 Q5.425,12.488 5.15,12.344 Q4.875,12.199 4.783,11.902 Q4.691,11.605 4.836,11.331 L8.506,4.361 Q9.617,2.25 11.999,2.25 Q14.382,2.25 15.493,4.361 L21.594,15.952 Q22.927,18.498 20.918,20.552 Q18.907,22.607 16.334,21.321 L13.094,19.701 Q11.999,19.154 10.905,19.701 L7.665,21.321 Q5.091,22.608 3.077,20.552 Q1.063,18.496 2.406,15.95 Q2.551,15.675 2.848,15.584 Q3.144,15.492 3.419,15.637 Q3.694,15.781 3.786,16.078 Q3.878,16.375 3.733,16.65 Z"/>
</svg>

