<svg xmlns="http://www.w3.org/2000/svg" width="24" height="24" viewBox="0 0 24 24">
  <defs/>
  <path fill="#292D32" d="M19.639,8.506 Q21.75,9.617 21.75,12 Q21.75,14.383 19.639,15.493 L8.048,21.594 Q5.502,22.927 3.448,20.918 Q1.393,18.908 2.679,16.334 L4.299,13.094 Q4.847,12 4.299,10.905 L2.679,7.665 Q1.392,5.091 3.448,3.078 Q5.504,1.064 8.049,2.406 Z M18.941,9.833 L7.351,3.733 Q5.772,2.901 4.497,4.149 Q3.223,5.398 4.021,6.994 L5.641,10.234 Q6.524,12 5.641,13.765 L4.021,17.005 Q3.223,18.6 4.497,19.846 Q5.772,21.093 7.352,20.265 L18.941,14.166 Q20.25,13.477 20.25,12 Q20.25,10.523 18.941,9.833 Z"/>
</svg>

