<svg xmlns="http://www.w3.org/2000/svg" width="24" height="24" viewBox="0 0 24 24">
  <defs/>
  <path fill="#292D32" d="M14.529,3.47 L12.529,1.47 C12.519,1.46 12.509,1.46 12.509,1.45 C12.449,1.39 12.369,1.34 12.289,1.3 C12.279,1.3 12.279,1.3 12.269,1.29 C12.189,1.26 12.109,1.25 12.029,1.24 C11.999,1.24 11.979,1.24 11.949,1.24 C11.889,1.24 11.829,1.26 11.769,1.28 C11.739,1.29 11.719,1.3 11.699,1.31 C11.619,1.35 11.539,1.39 11.479,1.46 L9.479,3.46 C9.189,3.75 9.189,4.23 9.479,4.52 C9.769,4.81 10.249,4.81 10.539,4.52 L11.259,3.8 L11.259,9 C11.259,9.41 11.599,9.75 12.009,9.75 C12.419,9.75 12.749,9.41 12.749,9 L12.749,3.81 L13.469,4.53 C13.619,4.68 13.809,4.75 13.999,4.75 C14.189,4.75 14.379,4.68 14.529,4.53 C14.819,4.24 14.819,3.76 14.529,3.47 Z"/>
  <path fill="#292D32" opacity="0.4" d="M16.19,6 L7.81,6 C4.17,6 2,8.17 2,11.81 L2,16.18 C2,19.83 4.17,22 7.81,22 L16.18,22 C19.82,22 21.99,19.83 21.99,16.19 L21.99,11.82 C22,8.17 19.83,6 16.19,6 Z"/>
  <path fill="#292D32" d="M21.3,12.23 L17.82,12.23 C16.84,12.23 15.97,12.77 15.53,13.65 L14.69,15.31 C14.49,15.71 14.09,15.96 13.65,15.96 L10.37,15.96 C10.06,15.96 9.62,15.89 9.33,15.31 L8.49,13.66 C8.05,12.79 7.17,12.24 6.2,12.24 L2.7,12.24 C2.31,12.24 2,12.55 2,12.94 L2,16.2 C2,19.83 4.18,22 7.82,22 L16.2,22 C19.63,22 21.74,20.12 22,16.78 L22,12.93 C22,12.55 21.69,12.23 21.3,12.23 Z"/>
</svg>

