<svg xmlns="http://www.w3.org/2000/svg" width="24" height="24" viewBox="0 0 24 24">
  <defs/>
  <path fill="#292D32" d="M21.3,12.23 L17.82,12.23 C16.84,12.23 15.97,12.771 15.53,13.65 L14.69,15.31 C14.49,15.71 14.09,15.96 13.65,15.96 L10.37,15.96 C10.06,15.96 9.62,15.89 9.33,15.31 L8.49,13.661 C8.05,12.79 7.17,12.241 6.2,12.241 L2.7,12.241 C2.31,12.241 2,12.55 2,12.941 L2,16.201 C2,19.831 4.18,22 7.82,22 L16.2,22 C19.63,22 21.74,20.12 22,16.78 L22,12.931 C22,12.55 21.69,12.23 21.3,12.23 Z"/>
  <path fill="#292D32" d="M12.749,3.808 L13.469,4.528 C13.619,4.678 13.809,4.748 13.999,4.748 C14.189,4.748 14.379,4.678 14.529,4.528 C14.819,4.238 14.819,3.758 14.529,3.468 L12.529,1.468 C12.519,1.458 12.509,1.458 12.509,1.448 C12.449,1.388 12.369,1.338 12.289,1.298 C12.279,1.298 12.279,1.298 12.269,1.288 C12.189,1.258 12.109,1.248 12.029,1.238 C11.999,1.238 11.979,1.238 11.949,1.238 C11.889,1.238 11.829,1.258 11.769,1.278 C11.739,1.288 11.719,1.298 11.699,1.308 C11.619,1.348 11.539,1.388 11.479,1.458 L9.479,3.458 C9.189,3.748 9.189,4.228 9.479,4.518 C9.769,4.808 10.249,4.808 10.539,4.518 L11.259,3.798 L11.259,4.998 L12.759,4.998 L12.759,3.808 L12.749,3.808 Z"/>
  <path fill="#292D32" d="M22,10.81 L22,10.85 C21.78,10.77 21.54,10.73 21.3,10.73 L17.82,10.73 C16.27,10.73 14.88,11.59 14.19,12.97 L13.44,14.45 L10.58,14.45 L9.83,12.98 C9.14,11.59 7.75,10.73 6.2,10.73 L2.7,10.73 C2.46,10.73 2.22,10.77 2,10.85 L2,10.81 C2,7.17 4.17,5 7.81,5 L11.25,5 L11.25,9 C11.25,9.41 11.59,9.75 12,9.75 C12.41,9.75 12.75,9.41 12.75,9 L12.75,5 L16.19,5 C19.83,5 22,7.17 22,10.81 Z"/>
</svg>

