<svg xmlns="http://www.w3.org/2000/svg" width="24" height="24" viewBox="0 0 24 24">
  <defs/>
  <path fill="#292D32" d="M17.019,2.718 L13.539,4.458 C12.569,4.938 11.439,4.938 10.469,4.458 L6.979,2.708 C3.999,1.218 0.849,4.438 2.409,7.388 L3.229,8.928 C3.339,9.138 3.519,9.308 3.739,9.408 L16.389,15.098 C16.909,15.328 17.519,15.118 17.779,14.618 L21.589,7.378 C23.139,4.438 19.999,1.218 17.019,2.718 Z"/>
  <path fill="#292D32" d="M15.6,16.309 L7.32,12.579 C6.39,12.159 5.45,13.159 5.93,14.059 L8.97,19.829 C10.26,22.279 13.76,22.279 15.05,19.829 L16.12,17.789 C16.4,17.239 16.16,16.569 15.6,16.309 Z"/>
</svg>

