<svg xmlns="http://www.w3.org/2000/svg" width="24" height="24" viewBox="0 0 24 24">
  <defs/>
  <path fill="#292D32" d="M9,22.75 Q1.25,22.75 1.25,15 L1.25,9 Q1.25,1.25 9,1.25 L15,1.25 Q22.75,1.25 22.75,9 L22.75,15 Q22.75,22.75 15,22.75 Z M9,21.25 L15,21.25 Q18.439,21.25 19.845,19.845 Q21.25,18.439 21.25,15 L21.25,9 Q21.25,2.75 15,2.75 L9,2.75 Q2.75,2.75 2.75,9 L2.75,15 Q2.75,18.439 4.155,19.845 Q5.561,21.25 9,21.25 Z"/>
  <path fill="#292D32" opacity="0.4" d="M2,12.25 L5.76,12.25 Q7.459,12.25 8.221,13.775 L9.112,15.566 Q9.46,16.25 10.24,16.25 L13.77,16.25 Q14.541,16.25 14.889,15.555 L15.778,13.766 Q16.541,12.24 18.24,12.24 L21.98,12.24 Q22.291,12.24 22.51,12.46 Q22.73,12.68 22.73,12.99 Q22.73,13.301 22.51,13.521 Q22.291,13.74 21.98,13.74 L18.24,13.74 Q17.469,13.74 17.122,14.434 L16.231,16.226 Q15.469,17.75 13.77,17.75 L10.24,17.75 Q8.54,17.75 7.768,16.234 L6.879,14.446 Q6.531,13.75 5.76,13.75 L2,13.75 Q1.689,13.75 1.47,13.531 Q1.25,13.311 1.25,13 Q1.25,12.69 1.47,12.47 Q1.689,12.25 2,12.25 Z"/>
  <path fill="#292D32" opacity="0.4" d="M10.34,6.25 L13.67,6.25 Q13.98,6.25 14.2,6.47 Q14.42,6.689 14.42,7 Q14.42,7.311 14.2,7.53 Q13.98,7.75 13.67,7.75 L10.34,7.75 Q10.029,7.75 9.809,7.53 Q9.59,7.311 9.59,7 Q9.59,6.689 9.809,6.47 Q10.029,6.25 10.34,6.25 Z"/>
  <path fill="#292D32" opacity="0.4" d="M9.5,9.25 L14.5,9.25 Q14.811,9.25 15.03,9.47 Q15.25,9.689 15.25,10 Q15.25,10.311 15.03,10.53 Q14.811,10.75 14.5,10.75 L9.5,10.75 Q9.189,10.75 8.97,10.53 Q8.75,10.311 8.75,10 Q8.75,9.689 8.97,9.47 Q9.189,9.25 9.5,9.25 Z"/>
</svg>

