<svg xmlns="http://www.w3.org/2000/svg" width="24" height="24" viewBox="0 0 24 24">
  <defs/>
  <path fill="#292D32" opacity="0.4" d="M16.19,2 L7.81,2 C4.17,2 2,4.17 2,7.81 L2,16.18 C2,19.83 4.17,22 7.81,22 L16.18,22 C19.82,22 21.99,19.83 21.99,16.19 L21.99,7.81 C22,4.17 19.83,2 16.19,2 Z"/>
  <path fill="#292D32" d="M21.3,12.23 L17.82,12.23 C16.84,12.23 15.97,12.77 15.53,13.65 L14.69,15.31 C14.49,15.71 14.09,15.96 13.65,15.96 L10.37,15.96 C10.06,15.96 9.62,15.89 9.33,15.31 L8.49,13.66 C8.05,12.79 7.17,12.24 6.2,12.24 L2.7,12.24 C2.31,12.24 2,12.55 2,12.94 L2,16.2 C2,19.83 4.18,22 7.82,22 L16.2,22 C19.63,22 21.74,20.12 22,16.78 L22,12.93 C22,12.55 21.69,12.23 21.3,12.23 Z"/>
  <path fill="#292D32" d="M13.55,7.8 L10.45,7.8 C10.06,7.8 9.75,7.49 9.75,7.1 C9.75,6.71 10.06,6.4 10.45,6.4 L13.55,6.4 C13.94,6.4 14.25,6.71 14.25,7.1 C14.25,7.49 13.93,7.8 13.55,7.8 Z"/>
  <path fill="#292D32" d="M14.331,10.59 L9.671,10.59 C9.281,10.59 8.971,10.28 8.971,9.89 C8.971,9.5 9.281,9.19 9.671,9.19 L14.321,9.19 C14.711,9.19 15.021,9.5 15.021,9.89 C15.021,10.28 14.711,10.59 14.331,10.59 Z"/>
</svg>

