<svg xmlns="http://www.w3.org/2000/svg" width="24" height="24" viewBox="0 0 24 24">
  <defs/>
  <path fill="#292D32" d="M8.506,19.639 L2.406,8.049 Q1.063,5.504 3.077,3.448 Q5.091,1.392 7.665,2.679 L10.905,4.299 Q11.999,4.847 13.094,4.299 L16.334,2.679 Q18.907,1.393 20.918,3.448 Q22.927,5.502 21.594,8.048 L15.493,19.639 Q14.382,21.75 11.999,21.75 Q9.616,21.75 8.506,19.639 Z M9.833,18.941 Q10.522,20.25 11.999,20.25 Q13.476,20.25 14.166,18.941 L20.265,7.352 Q21.092,5.772 19.846,4.497 Q18.6,3.223 17.005,4.021 L13.765,5.641 Q11.999,6.524 10.234,5.641 L6.994,4.021 Q5.397,3.223 4.149,4.497 Q2.9,5.772 3.733,7.351 Z"/>
</svg>

