<svg xmlns="http://www.w3.org/2000/svg" width="24" height="24" viewBox="0 0 24 24">
  <defs/>
  <path fill="#292D32" d="M21.3,12.23 L17.82,12.23 C16.84,12.23 15.97,12.771 15.53,13.65 L14.69,15.31 C14.49,15.71 14.09,15.96 13.65,15.96 L10.37,15.96 C10.06,15.96 9.62,15.89 9.33,15.31 L8.49,13.661 C8.05,12.79 7.17,12.241 6.2,12.241 L2.7,12.241 C2.31,12.241 2,12.55 2,12.941 L2,16.201 C2,19.831 4.18,22 7.82,22 L16.2,22 C19.63,22 21.74,20.12 22,16.78 L22,12.931 C22,12.55 21.69,12.23 21.3,12.23 Z"/>
  <path fill="#292D32" d="M16.19,2 L7.81,2 C4.17,2 2,4.17 2,7.81 L2,10.85 C2.22,10.77 2.46,10.73 2.7,10.73 L6.2,10.73 C7.75,10.73 9.14,11.59 9.83,12.98 L10.58,14.45 L13.44,14.45 L14.19,12.97 C14.88,11.59 16.27,10.73 17.82,10.73 L21.3,10.73 C21.54,10.73 21.78,10.77 22,10.85 L22,7.81 C22,4.17 19.83,2 16.19,2 Z M10.45,5.41 L13.55,5.41 C13.93,5.41 14.25,5.72 14.25,6.1 C14.25,6.49 13.93,6.8 13.55,6.8 L10.45,6.8 C10.07,6.8 9.75,6.49 9.75,6.1 C9.75,5.72 10.07,5.41 10.45,5.41 Z M14.33,9.59 L9.67,9.59 C9.29,9.59 8.98,9.28 8.98,8.9 C8.98,8.51 9.29,8.2 9.67,8.2 L14.33,8.2 C14.71,8.2 15.02,8.51 15.02,8.9 C15.02,9.28 14.71,9.59 14.33,9.59 Z"/>
</svg>

