<svg xmlns="http://www.w3.org/2000/svg" width="24" height="24" viewBox="0 0 24 24">
  <defs/>
  <path fill="#292D32" d="M6.191,22.06 C5.191,22.06 4.221,21.67 3.451,20.92 C2.201,19.7 1.901,17.9 2.681,16.34 L4.301,13.1 C4.641,12.42 4.641,11.6 4.301,10.91 L2.681,7.66 C1.901,6.1 2.201,4.3 3.451,3.08 C4.701,1.86 6.501,1.59 8.051,2.41 L19.641,8.51 C20.941,9.19 21.751,10.53 21.751,12 C21.751,13.47 20.941,14.81 19.641,15.49 L8.051,21.59 C7.451,21.91 6.821,22.06 6.191,22.06 Z M6.201,3.44 C5.511,3.44 4.911,3.76 4.501,4.16 C3.881,4.76 3.441,5.83 4.021,7 L5.641,10.24 C6.191,11.35 6.191,12.66 5.641,13.77 L4.021,17.01 C3.431,18.18 3.881,19.25 4.501,19.85 C5.121,20.45 6.191,20.88 7.351,20.27 L18.941,14.17 C19.761,13.74 20.251,12.93 20.251,12.01 C20.251,11.09 19.761,10.28 18.941,9.85 L7.351,3.73 C6.951,3.52 6.561,3.44 6.201,3.44 Z"/>
</svg>

