<svg xmlns="http://www.w3.org/2000/svg" width="24" height="24" viewBox="0 0 24 24">
  <defs/>
  <path fill="#292D32" d="M15,22.75 L9,22.75 C3.57,22.75 1.25,20.43 1.25,15 L1.25,9 C1.25,3.57 3.57,1.25 9,1.25 L15,1.25 C20.43,1.25 22.75,3.57 22.75,9 L22.75,15 C22.75,20.43 20.43,22.75 15,22.75 Z M9,2.75 C4.39,2.75 2.75,4.39 2.75,9 L2.75,15 C2.75,19.61 4.39,21.25 9,21.25 L15,21.25 C19.61,21.25 21.25,19.61 21.25,15 L21.25,9 C21.25,4.39 19.61,2.75 15,2.75 L9,2.75 Z"/>
  <path fill="#292D32" d="M13.76,17.75 L10.23,17.75 C9.13,17.75 8.26,17.21 7.77,16.23 L6.88,14.44 C6.67,14.01 6.24,13.75 5.76,13.75 L1.99,13.75 C1.58,13.75 1.24,13.41 1.24,13 C1.24,12.59 1.59,12.25 2,12.25 L5.76,12.25 C6.81,12.25 7.75,12.83 8.22,13.77 L9.11,15.56 C9.34,16.02 9.71,16.25 10.23,16.25 L13.76,16.25 C14.24,16.25 14.67,15.99 14.88,15.56 L15.77,13.77 C16.24,12.83 17.18,12.25 18.23,12.25 L21.97,12.25 C22.38,12.25 22.72,12.59 22.72,13 C22.72,13.41 22.38,13.75 21.97,13.75 L18.23,13.75 C17.75,13.75 17.32,14.01 17.11,14.44 L16.22,16.23 C15.75,17.17 14.81,17.75 13.76,17.75 Z"/>
  <path fill="#292D32" d="M13.67,7.75 L10.34,7.75 C9.92,7.75 9.58,7.41 9.58,7 C9.58,6.59 9.92,6.25 10.33,6.25 L13.66,6.25 C14.07,6.25 14.41,6.59 14.41,7 C14.41,7.41 14.08,7.75 13.67,7.75 Z"/>
  <path fill="#292D32" d="M14.5,10.75 L9.5,10.75 C9.09,10.75 8.75,10.41 8.75,10 C8.75,9.59 9.09,9.25 9.5,9.25 L14.5,9.25 C14.91,9.25 15.25,9.59 15.25,10 C15.25,10.41 14.91,10.75 14.5,10.75 Z"/>
</svg>

