<svg xmlns="http://www.w3.org/2000/svg" width="24" height="24" viewBox="0 0 24 24">
  <defs/>
  <path fill="#292D32" opacity="0.4" d="M16.19,4 L7.81,4 C4.17,4 2,6.17 2,9.81 L2,16.18 C2,19.83 4.17,22 7.81,22 L16.18,22 C19.82,22 21.99,19.83 21.99,16.19 L21.99,9.81 C22,6.17 19.83,4 16.19,4 Z"/>
  <path fill="#292D32" d="M21.3,12.23 L17.82,12.23 C16.84,12.23 15.97,12.77 15.53,13.65 L14.69,15.31 C14.49,15.71 14.09,15.96 13.65,15.96 L10.37,15.96 C10.06,15.96 9.62,15.89 9.33,15.31 L8.49,13.66 C8.05,12.79 7.17,12.24 6.2,12.24 L2.7,12.24 C2.31,12.24 2,12.55 2,12.94 L2,16.2 C2,19.83 4.18,22 7.82,22 L16.2,22 C19.63,22 21.74,20.12 22,16.78 L22,12.93 C22,12.55 21.69,12.23 21.3,12.23 Z"/>
  <path fill="#292D32" d="M14.53,6.47 C14.239,6.18 13.759,6.18 13.47,6.47 L12.749,7.19 L12.749,2 C12.749,1.59 12.409,1.25 11.999,1.25 C11.589,1.25 11.249,1.59 11.249,2 L11.249,7.19 L10.53,6.47 C10.239,6.18 9.759,6.18 9.469,6.47 C9.179,6.76 9.179,7.24 9.469,7.53 L11.47,9.53 C11.479,9.54 11.489,9.54 11.489,9.55 C11.55,9.61 11.63,9.66 11.71,9.7 C11.809,9.73 11.899,9.75 11.999,9.75 C12.1,9.75 12.19,9.73 12.28,9.69 C12.37,9.65 12.45,9.6 12.53,9.53 L14.53,7.53 C14.819,7.24 14.819,6.76 14.53,6.47 Z"/>
</svg>

