<svg xmlns="http://www.w3.org/2000/svg" width="24" height="24" viewBox="0 0 24 24">
  <defs/>
  <path fill="#292D32" d="M17.81,22.06 C17.18,22.06 16.55,21.91 15.95,21.59 L4.36,15.49 C3.06,14.81 2.25,13.47 2.25,12 C2.25,10.53 3.06,9.19 4.36,8.51 L15.95,2.41 C17.5,1.6 19.3,1.86 20.55,3.08 C21.8,4.3 22.1,6.1 21.32,7.66 L19.7,10.9 C19.36,11.58 19.36,12.4 19.7,13.09 L21.32,16.33 C22.1,17.89 21.8,19.69 20.55,20.91 C19.78,21.67 18.81,22.06 17.81,22.06 Z M17.8,3.44 C17.44,3.44 17.05,3.53 16.65,3.74 L5.06,9.84 C4.24,10.27 3.75,11.08 3.75,12 C3.75,12.92 4.24,13.73 5.06,14.16 L16.65,20.26 C17.81,20.87 18.89,20.45 19.5,19.84 C20.12,19.24 20.56,18.17 19.98,17 L18.36,13.76 C17.81,12.65 17.81,11.34 18.36,10.23 L19.98,6.99 C20.57,5.82 20.12,4.75 19.5,4.15 C19.1,3.76 18.5,3.44 17.8,3.44 Z"/>
</svg>

