<svg xmlns="http://www.w3.org/2000/svg" width="24" height="24" viewBox="0 0 24 24">
  <defs/>
  <path fill="#292D32" d="M13.761,17.75 L10.23,17.75 C9.13,17.75 8.26,17.21 7.77,16.23 L6.88,14.44 C6.67,14.01 6.24,13.75 5.76,13.75 L1.98,13.75 C1.57,13.75 1.23,13.41 1.23,13 C1.23,12.59 1.57,12.25 1.98,12.25 L5.77,12.25 C6.82,12.25 7.76,12.83 8.23,13.77 L9.12,15.56 C9.35,16.02 9.72,16.25 10.241,16.25 L13.771,16.25 C14.251,16.25 14.681,15.99 14.89,15.56 L15.78,13.77 C16.25,12.83 17.191,12.25 18.241,12.25 L21.98,12.25 C22.39,12.25 22.73,12.59 22.73,13 C22.73,13.41 22.39,13.75 21.98,13.75 L18.241,13.75 C17.761,13.75 17.331,14.01 17.12,14.44 L16.23,16.23 C15.751,17.17 14.81,17.75 13.761,17.75 Z"/>
  <path fill="#292D32" d="M19,8.75 C16.93,8.75 15.25,7.07 15.25,5 C15.25,2.93 16.93,1.25 19,1.25 C21.07,1.25 22.75,2.93 22.75,5 C22.75,7.07 21.07,8.75 19,8.75 Z M19,2.75 C17.76,2.75 16.75,3.76 16.75,5 C16.75,6.24 17.76,7.25 19,7.25 C20.24,7.25 21.25,6.24 21.25,5 C21.25,3.76 20.24,2.75 19,2.75 Z"/>
  <path fill="#292D32" d="M15,22.75 L9,22.75 C3.57,22.75 1.25,20.43 1.25,15 L1.25,9 C1.25,3.57 3.57,1.25 9,1.25 L14,1.25 C14.41,1.25 14.75,1.59 14.75,2 C14.75,2.41 14.41,2.75 14,2.75 L9,2.75 C4.39,2.75 2.75,4.39 2.75,9 L2.75,15 C2.75,19.61 4.39,21.25 9,21.25 L15,21.25 C19.61,21.25 21.25,19.61 21.25,15 L21.25,10 C21.25,9.59 21.59,9.25 22,9.25 C22.41,9.25 22.75,9.59 22.75,10 L22.75,15 C22.75,20.43 20.43,22.75 15,22.75 Z"/>
</svg>

