<svg xmlns="http://www.w3.org/2000/svg" width="24" height="24" viewBox="0 0 24 24">
  <defs/>
  <path fill="#292D32" d="M18.69,11.531 C18.12,11.381 17.45,11.301 16.65,11.301 C15.54,11.301 15.13,11.571 14.56,12.001 C14.53,12.021 14.5,12.051 14.47,12.081 L13.52,13.091 C12.73,13.941 11.28,13.941 10.48,13.091 L9.53,12.091 C9.5,12.051 9.47,12.021 9.44,12.001 C8.86,11.571 8.45,11.301 7.35,11.301 C6.55,11.301 5.88,11.371 5.31,11.531 C2.93,12.171 2.93,14.061 2.93,15.721 L2.93,16.651 C2.93,19.161 2.93,22.001 8.28,22.001 L15.72,22.001 C19.27,22.001 21.07,20.201 21.07,16.651 L21.07,15.721 C21.07,14.061 21.07,12.171 18.69,11.531 Z"/>
  <path fill="#292D32" d="M14.789,2 L9.209,2 C4.789,2 4.789,4.35 4.789,6.42 L4.789,10.12 C4.829,10.1 4.879,10.09 4.919,10.08 C5.619,9.89 6.409,9.8 7.349,9.8 C8.889,9.8 9.619,10.25 10.339,10.8 C10.439,10.87 10.539,10.96 10.629,11.06 L11.569,12.05 C11.669,12.16 11.829,12.22 11.999,12.22 C12.169,12.22 12.329,12.16 12.419,12.06 L13.379,11.05 C13.459,10.97 13.549,10.88 13.649,10.81 C14.389,10.25 15.109,9.8 16.649,9.8 C17.589,9.8 18.379,9.89 19.079,10.08 C19.119,10.09 19.169,10.1 19.209,10.12 L19.209,6.42 C19.209,4.35 19.209,2 14.789,2 Z M13.549,8.5 L10.449,8.5 C10.069,8.5 9.749,8.18 9.749,7.8 C9.749,7.41 10.069,7.1 10.449,7.1 L13.549,7.1 C13.929,7.1 14.249,7.41 14.249,7.8 C14.249,8.18 13.929,8.5 13.549,8.5 Z M14.329,5.71 L9.669,5.71 C9.289,5.71 8.979,5.39 8.979,5.01 C8.979,4.62 9.289,4.31 9.669,4.31 L14.329,4.31 C14.709,4.31 15.019,4.62 15.019,5.01 C15.019,5.39 14.709,5.71 14.329,5.71 Z"/>
</svg>

