<svg xmlns="http://www.w3.org/2000/svg" width="24" height="24" viewBox="0 0 24 24">
  <defs/>
  <path fill="#292D32" d="M11.25,8 L11.25,3.811 L10.53,4.53 Q10.311,4.75 10,4.75 Q9.689,4.75 9.47,4.53 Q9.25,4.311 9.25,4 Q9.25,3.689 9.47,3.47 L11.47,1.47 Q11.689,1.25 12,1.25 Q12.311,1.25 12.53,1.47 Q12.75,1.689 12.75,2 L12.75,8 Q12.75,8.311 12.53,8.53 Q12.311,8.75 12,8.75 Q11.689,8.75 11.47,8.53 Q11.25,8.311 11.25,8 Z"/>
  <path fill="#292D32" d="M12.53,1.47 L14.53,3.47 Q14.75,3.689 14.75,4 Q14.75,4.311 14.53,4.53 Q14.311,4.75 14,4.75 Q13.689,4.75 13.47,4.53 L11.47,2.53 Q11.25,2.311 11.25,2 Q11.25,1.689 11.47,1.47 Q11.689,1.25 12,1.25 Q12.311,1.25 12.53,1.47 Z"/>
  <path fill="#292D32" d="M12,21.25 L16,21.25 Q20.25,21.25 20.25,17 L20.25,16 Q20.25,14.129 19.883,13.598 Q19.297,12.75 17,12.75 Q16.28,12.75 15.698,13.165 L14.725,14.195 Q13.62,15.375 11.999,15.375 Q10.379,15.375 9.265,14.195 L8.3,13.164 Q7.719,12.75 7,12.75 Q4.703,12.75 4.117,13.598 Q3.75,14.129 3.75,16 L3.75,17 Q3.75,19.396 4.242,20.109 Q5.03,21.25 8,21.25 Q8.311,21.25 8.53,21.47 Q8.75,21.689 8.75,22 Q8.75,22.311 8.53,22.53 Q8.311,22.75 8,22.75 Q4.243,22.75 3.008,20.961 Q2.25,19.864 2.25,17 L2.25,16 Q2.25,13.661 2.883,12.745 Q3.916,11.25 7,11.25 Q8.25,11.25 9.25,12 Q9.303,12.04 9.348,12.088 L10.355,13.165 Q11.026,13.875 11.999,13.875 Q12.97,13.875 13.635,13.165 L14.655,12.085 Q14.699,12.038 14.75,12 Q15.75,11.25 17,11.25 Q20.084,11.25 21.117,12.745 Q21.75,13.661 21.75,16 L21.75,17 Q21.75,22.75 16,22.75 L12,22.75 Q11.689,22.75 11.47,22.53 Q11.25,22.311 11.25,22 Q11.25,21.689 11.47,21.47 Q11.689,21.25 12,21.25 Z"/>
  <path fill="#292D32" d="M4.25,12 L4.25,10 Q4.25,5.649 7.928,5.294 Q8.237,5.264 8.477,5.461 Q8.717,5.659 8.747,5.968 Q8.776,6.277 8.579,6.517 Q8.381,6.757 8.072,6.787 Q6.456,6.943 6.037,7.728 Q5.75,8.265 5.75,10 L5.75,12 Q5.75,12.311 5.53,12.53 Q5.311,12.75 5,12.75 Q4.689,12.75 4.47,12.53 Q4.25,12.311 4.25,12 Z"/>
  <path fill="#292D32" d="M18.25,12 L18.25,10 Q18.25,8.265 17.963,7.728 Q17.544,6.943 15.928,6.787 Q15.619,6.757 15.421,6.517 Q15.224,6.277 15.253,5.968 Q15.283,5.659 15.523,5.461 Q15.763,5.264 16.072,5.294 Q19.75,5.649 19.75,10 L19.75,12 Q19.75,12.311 19.53,12.53 Q19.311,12.75 19,12.75 Q18.689,12.75 18.47,12.53 Q18.25,12.311 18.25,12 Z"/>
</svg>

