<svg xmlns="http://www.w3.org/2000/svg" width="24" height="24" viewBox="0 0 24 24">
  <defs/>
  <path fill="#292D32" d="M7,11.25 Q8.25,11.25 9.25,12 Q9.303,12.04 9.348,12.088 L10.355,13.165 Q11.026,13.875 11.999,13.875 Q12.97,13.875 13.635,13.165 L14.655,12.085 Q14.699,12.038 14.75,12 Q15.75,11.25 17,11.25 Q20.084,11.25 21.117,12.745 Q21.75,13.661 21.75,16 L21.75,17 Q21.75,22.75 16,22.75 L8,22.75 Q4.243,22.75 3.008,20.961 Q2.25,19.864 2.25,17 L2.25,16 Q2.25,13.661 2.883,12.745 Q3.916,11.25 7,11.25 Z M7,12.75 Q4.703,12.75 4.117,13.598 Q3.75,14.129 3.75,16 L3.75,17 Q3.75,19.396 4.242,20.109 Q5.03,21.25 8,21.25 L16,21.25 Q20.25,21.25 20.25,17 L20.25,16 Q20.25,14.129 19.883,13.598 Q19.297,12.75 17,12.75 Q16.28,12.75 15.698,13.165 L14.725,14.195 Q13.62,15.375 11.999,15.375 Q10.379,15.375 9.265,14.195 L8.3,13.164 Q7.719,12.75 7,12.75 Z"/>
  <path fill="#292D32" d="M18.25,12 L18.25,6 Q18.25,4.129 17.883,3.598 Q17.297,2.75 15,2.75 L9,2.75 Q6.703,2.75 6.117,3.598 Q5.75,4.129 5.75,6 L5.75,12 Q5.75,12.311 5.53,12.53 Q5.311,12.75 5,12.75 Q4.689,12.75 4.47,12.53 Q4.25,12.311 4.25,12 L4.25,6 Q4.25,3.661 4.883,2.745 Q5.916,1.25 9,1.25 L15,1.25 Q18.084,1.25 19.117,2.745 Q19.75,3.661 19.75,6 L19.75,12 Q19.75,12.311 19.53,12.53 Q19.311,12.75 19,12.75 Q18.689,12.75 18.47,12.53 Q18.25,12.311 18.25,12 Z"/>
  <path fill="#292D32" d="M10.55,8.48 L13.88,8.48 Q14.191,8.48 14.41,8.7 Q14.63,8.919 14.63,9.23 Q14.63,9.541 14.41,9.76 Q14.191,9.98 13.88,9.98 L10.55,9.98 Q10.239,9.98 10.02,9.76 Q9.8,9.541 9.8,9.23 Q9.8,8.919 10.02,8.7 Q10.239,8.48 10.55,8.48 Z"/>
  <path fill="#292D32" d="M9.72,5.48 L14.72,5.48 Q15.031,5.48 15.25,5.7 Q15.47,5.919 15.47,6.23 Q15.47,6.541 15.25,6.76 Q15.031,6.98 14.72,6.98 L9.72,6.98 Q9.409,6.98 9.19,6.76 Q8.97,6.541 8.97,6.23 Q8.97,5.919 9.19,5.7 Q9.409,5.48 9.72,5.48 Z"/>
</svg>

