<svg xmlns="http://www.w3.org/2000/svg" width="24" height="24" viewBox="0 0 24 24">
  <defs/>
  <path fill="#292D32" opacity="0.4" d="M14.789,6 L9.209,6 C4.789,6 4.789,8.35 4.789,10.42 L4.789,12.21 C4.789,12.43 4.889,12.63 5.059,12.76 C5.229,12.89 5.459,12.94 5.669,12.88 C6.119,12.76 6.679,12.7 7.349,12.7 C8.019,12.7 8.159,12.78 8.559,13.08 L9.469,14.04 C10.119,14.74 11.049,15.14 12.009,15.14 C12.969,15.14 13.889,14.74 14.549,14.04 L15.459,13.08 C15.859,12.78 15.999,12.7 16.669,12.7 C17.339,12.7 17.899,12.76 18.349,12.88 C18.559,12.94 18.779,12.89 18.959,12.76 C19.129,12.63 19.229,12.42 19.229,12.21 L19.229,10.42 C19.209,8.35 19.209,6 14.789,6 Z"/>
  <path fill="#292D32" d="M14.28,4.95 C14.02,5.21 13.59,5.21 13.33,4.95 L12.68,4.3 L12.68,9.07 C12.68,9.44 12.38,9.75 12,9.75 C11.62,9.75 11.32,9.45 11.32,9.07 L11.32,4.3 L10.67,4.95 C10.41,5.21 9.98,5.21 9.72,4.95 C9.46,4.69 9.46,4.26 9.72,4 L11.52,2.2 C11.53,2.19 11.53,2.19 11.54,2.19 C11.6,2.14 11.66,2.09 11.74,2.06 C11.83,2.02 11.91,2 12,2 C12.09,2 12.17,2.02 12.26,2.05 C12.34,2.08 12.42,2.13 12.48,2.2 L14.28,4 C14.54,4.26 14.54,4.69 14.28,4.95 Z"/>
  <path fill="#292D32" d="M18.69,11.53 C18.12,11.38 17.45,11.3 16.65,11.3 C15.54,11.3 15.13,11.57 14.56,12 C14.53,12.02 14.5,12.05 14.47,12.08 L13.52,13.09 C12.72,13.93 11.28,13.94 10.48,13.08 L9.53,12.08 C9.5,12.05 9.47,12.02 9.44,12 C8.87,11.57 8.46,11.3 7.35,11.3 C6.55,11.3 5.88,11.38 5.31,11.53 C2.93,12.17 2.93,14.06 2.93,15.72 L2.93,16.65 C2.93,19.16 2.93,22 8.28,22 L15.72,22 C19.27,22 21.07,20.2 21.07,16.65 L21.07,15.72 C21.07,14.06 21.07,12.17 18.69,11.53 Z M14.33,18.4 L9.67,18.4 C9.29,18.4 8.98,18.09 8.98,17.7 C8.98,17.31 9.29,17 9.67,17 L14.33,17 C14.71,17 15.02,17.31 15.02,17.7 C15.02,18.09 14.71,18.4 14.33,18.4 Z"/>
  <path fill="#292D32" opacity="0.4" d="M15.021,17.7 C15.021,18.09 14.71,18.4 14.331,18.4 L9.67,18.4 C9.29,18.4 8.98,18.09 8.98,17.7 C8.98,17.31 9.29,17 9.67,17 L14.331,17 C14.71,17 15.021,17.31 15.021,17.7 Z"/>
</svg>

