<svg xmlns="http://www.w3.org/2000/svg" width="24" height="24" viewBox="0 0 24 24">
  <defs/>
  <path fill="#292D32" d="M18.12,21.75 C17.52,21.75 16.91,21.61 16.33,21.32 L13.09,19.7 C12.41,19.36 11.59,19.36 10.9,19.7 L7.66,21.32 C6.1,22.1 4.3,21.8 3.08,20.55 C1.86,19.3 1.59,17.5 2.41,15.95 L8.51,4.36 C9.19,3.06 10.53,2.25 12,2.25 C13.47,2.25 14.81,3.06 15.49,4.36 L21.59,15.95 C22.4,17.5 22.14,19.3 20.92,20.55 C20.15,21.34 19.15,21.75 18.12,21.75 Z M12,17.94 C12.61,17.94 13.21,18.08 13.76,18.35 L17,19.97 C18.17,20.56 19.24,20.11 19.84,19.49 C20.44,18.87 20.87,17.8 20.26,16.64 L14.16,5.05 C13.73,4.24 12.92,3.75 12,3.75 C11.08,3.75 10.27,4.24 9.84,5.06 L3.74,16.65 C3.13,17.81 3.55,18.89 4.16,19.5 C4.77,20.11 5.83,20.56 7,19.98 L10.24,18.36 C10.79,18.08 11.39,17.94 12,17.94 Z"/>
</svg>

