<svg xmlns="http://www.w3.org/2000/svg" width="24" height="24" viewBox="0 0 24 24">
  <defs/>
  <path fill="#292D32" d="M19,8 C20.657,8 22,6.657 22,5 C22,3.343 20.657,2 19,2 C17.343,2 16,3.343 16,5 C16,6.657 17.343,8 19,8 Z"/>
  <path fill="#292D32" d="M20.34,12.721 L17.03,12.721 C16.1,12.721 15.27,13.241 14.85,14.061 L14.05,15.641 C13.86,16.021 13.48,16.251 13.06,16.251 L9.95,16.251 C9.66,16.251 9.23,16.191 8.96,15.631 L8.17,14.061 C7.75,13.231 6.92,12.711 5.99,12.711 L2.66,12.711 C2.3,12.721 2,13.021 2,13.381 L2,16.471 C2,19.941 4.07,22.001 7.53,22.001 L15.49,22.001 C18.75,22.001 20.76,20.211 21,17.041 L21,13.381 C21,13.021 20.7,12.721 20.34,12.721 Z"/>
  <path fill="#292D32" d="M21,10.4 L21,11.33 C20.79,11.26 20.57,11.22 20.34,11.22 L17.03,11.22 C15.53,11.22 14.18,12.05 13.52,13.39 L12.82,14.76 L10.19,14.76 L9.51,13.4 C8.83,12.05 7.49,11.22 5.99,11.22 L2.66,11.22 C2.43,11.22 2.21,11.26 2,11.33 L2,8.52 C2,5.47 4.47,3 7.52,3 L13.6,3 C14.24,3 14.7,3.58 14.58,4.2 C14.42,5 14.49,5.87 14.88,6.79 C15.33,7.83 16.17,8.67 17.21,9.12 C18.13,9.51 19,9.58 19.8,9.42 C20.42,9.3 21,9.76 21,10.4 Z"/>
</svg>

