<svg xmlns="http://www.w3.org/2000/svg" width="24" height="24" viewBox="0 0 24 24">
  <defs/>
  <path fill="#292D32" d="M18.69,11.53 C18.12,11.38 17.45,11.3 16.65,11.3 C15.54,11.3 15.13,11.57 14.56,12 C14.53,12.02 14.5,12.05 14.47,12.08 L13.52,13.09 C12.73,13.94 11.28,13.94 10.48,13.09 L9.53,12.09 C9.5,12.05 9.47,12.02 9.44,12 C8.86,11.57 8.45,11.3 7.35,11.3 C6.55,11.3 5.88,11.37 5.31,11.53 C2.93,12.17 2.93,14.06 2.93,15.72 L2.93,16.65 C2.93,19.16 2.93,22 8.28,22 L15.72,22 C19.27,22 21.07,20.2 21.07,16.65 L21.07,15.72 C21.07,14.06 21.07,12.17 18.69,11.53 Z"/>
  <path fill="#292D32" opacity="0.4" d="M14.789,2 L9.209,2 C4.789,2 4.789,4.35 4.789,6.42 L4.789,12.21 C4.789,12.43 4.889,12.63 5.059,12.76 C5.229,12.89 5.459,12.94 5.669,12.88 C6.119,12.76 6.679,12.7 7.349,12.7 C8.019,12.7 8.159,12.78 8.559,13.08 L9.469,14.04 C10.119,14.74 11.049,15.14 12.009,15.14 C12.969,15.14 13.889,14.74 14.549,14.04 L15.459,13.08 C15.859,12.78 15.999,12.7 16.669,12.7 C17.339,12.7 17.899,12.76 18.349,12.88 C18.559,12.94 18.779,12.89 18.959,12.76 C19.129,12.63 19.229,12.42 19.229,12.21 L19.229,6.42 C19.209,4.35 19.209,2 14.789,2 Z"/>
  <path fill="#292D32" d="M13.55,9.91 L10.45,9.91 C10.06,9.91 9.75,9.6 9.75,9.21 C9.75,8.82 10.06,8.51 10.45,8.51 L13.55,8.51 C13.94,8.51 14.25,8.82 14.25,9.21 C14.25,9.59 13.93,9.91 13.55,9.91 Z"/>
  <path fill="#292D32" d="M14.331,7.12 L9.671,7.12 C9.281,7.12 8.971,6.81 8.971,6.42 C8.971,6.03 9.281,5.72 9.671,5.72 L14.321,5.72 C14.711,5.72 15.021,6.03 15.021,6.42 C15.021,6.8 14.711,7.12 14.331,7.12 Z"/>
</svg>

