<svg xmlns="http://www.w3.org/2000/svg" width="24" height="24" viewBox="0 0 24 24">
  <defs/>
  <path fill="#292D32" d="M4.909,22.82 C3.819,22.82 2.889,22.47 2.209,21.79 C1.239,20.82 0.939,19.34 1.369,17.62 L3.849,7.69 C4.279,5.97 5.959,4.3 7.669,3.87 L17.599,1.39 C19.319,0.96 20.799,1.26 21.769,2.23 C22.739,3.2 23.039,4.68 22.609,6.4 L20.129,16.33 C19.699,18.05 18.019,19.72 16.309,20.15 L6.379,22.63 C5.869,22.75 5.379,22.82 4.909,22.82 Z M17.979,2.83 L8.049,5.32 C6.879,5.61 5.609,6.88 5.309,8.05 L2.829,17.98 C2.529,19.17 2.689,20.14 3.269,20.73 C3.849,21.31 4.829,21.47 6.019,21.17 L15.949,18.69 C17.119,18.4 18.389,17.12 18.679,15.96 L21.159,6.03 C21.459,4.84 21.299,3.87 20.719,3.28 C20.139,2.69 19.169,2.54 17.979,2.83 Z"/>
  <path fill="#292D32" d="M12,16.25 C9.66,16.25 7.75,14.34 7.75,12 C7.75,9.66 9.66,7.75 12,7.75 C14.34,7.75 16.25,9.66 16.25,12 C16.25,14.34 14.34,16.25 12,16.25 Z M12,9.25 C10.48,9.25 9.25,10.48 9.25,12 C9.25,13.52 10.48,14.75 12,14.75 C13.52,14.75 14.75,13.52 14.75,12 C14.75,10.48 13.52,9.25 12,9.25 Z"/>
</svg>

