<svg xmlns="http://www.w3.org/2000/svg" width="24" height="24" viewBox="0 0 24 24">
  <defs/>
  <path fill="#292D32" opacity="0.4" d="M20.981,3.02 C20.111,2.15 18.881,1.81 17.691,2.11 L7.891,4.56 C6.241,4.97 4.971,6.25 4.561,7.89 L2.111,17.7 C1.811,18.89 2.151,20.12 3.021,20.99 C3.681,21.64 4.551,22 5.451,22 C5.731,22 6.021,21.97 6.301,21.89 L16.111,19.44 C17.751,19.03 19.031,17.76 19.441,16.11 L21.891,6.3 C22.191,5.11 21.851,3.88 20.981,3.02 Z"/>
  <path fill="#292D32" d="M11.999,15.88 C14.142,15.88 15.879,14.143 15.879,12 C15.879,9.857 14.142,8.12 11.999,8.12 C9.856,8.12 8.119,9.857 8.119,12 C8.119,14.143 9.856,15.88 11.999,15.88 Z"/>
</svg>

