<svg xmlns="http://www.w3.org/2000/svg" width="24" height="24" viewBox="0 0 24 24">
  <defs/>
  <path fill="#292D32" d="M3.459,15.191 L1.939,13.671 Q1.254,12.986 1.254,12.01 Q1.254,11.035 1.939,10.35 L3.459,8.83 Q3.709,8.58 3.709,8.23 L3.709,6.08 Q3.709,5.11 4.399,4.42 Q5.088,3.73 6.059,3.73 L8.209,3.73 Q8.558,3.73 8.809,3.48 L10.329,1.96 Q11.013,1.275 11.989,1.275 Q12.965,1.275 13.649,1.96 L15.169,3.48 Q15.42,3.73 15.769,3.73 L17.919,3.73 Q20.269,3.73 20.269,6.08 L20.269,8.23 Q20.269,8.58 20.519,8.83 L22.039,10.35 Q22.724,11.035 22.724,12.01 Q22.724,12.986 22.039,13.671 L20.519,15.191 Q20.269,15.441 20.269,15.79 L20.269,17.94 Q20.269,20.29 17.919,20.29 L15.769,20.29 Q15.42,20.29 15.169,20.541 L13.649,22.061 Q12.965,22.745 11.989,22.745 Q11.013,22.745 10.329,22.061 L8.809,20.541 Q8.558,20.29 8.209,20.29 L6.059,20.29 Q5.088,20.29 4.399,19.601 Q3.709,18.911 3.709,17.94 L3.709,15.79 Q3.709,15.432 3.469,15.201 Z M4.515,14.125 Q5.209,14.797 5.209,15.79 L5.209,17.94 Q5.209,18.79 6.059,18.79 L8.209,18.79 Q9.18,18.79 9.869,19.48 L11.389,21 Q11.635,21.245 11.989,21.245 Q12.343,21.245 12.589,21 L14.109,19.48 Q14.798,18.79 15.769,18.79 L17.919,18.79 Q18.769,18.79 18.769,17.94 L18.769,15.79 Q18.769,14.82 19.459,14.13 L20.979,12.61 Q21.224,12.365 21.224,12.01 Q21.224,11.656 20.979,11.411 L19.459,9.891 Q18.769,9.201 18.769,8.23 L18.769,6.08 Q18.769,5.23 17.919,5.23 L15.769,5.23 Q14.798,5.23 14.109,4.541 L12.589,3.021 Q12.343,2.775 11.989,2.775 Q11.635,2.775 11.389,3.021 L9.869,4.541 Q9.18,5.23 8.209,5.23 L6.059,5.23 Q5.209,5.23 5.209,6.08 L5.209,8.23 Q5.209,9.201 4.519,9.891 L2.999,11.411 Q2.754,11.656 2.754,12.01 Q2.754,12.365 2.999,12.61 L4.515,14.125 Z"/>
  <path fill="#292D32" d="M8.47,14.47 L14.47,8.47 Q14.689,8.25 15,8.25 Q15.311,8.25 15.53,8.47 Q15.75,8.689 15.75,9 Q15.75,9.311 15.53,9.53 L9.53,15.53 Q9.311,15.75 9,15.75 Q8.689,15.75 8.47,15.53 Q8.25,15.311 8.25,15 Q8.25,14.689 8.47,14.47 Z"/>
  <path fill="#292D32" d="M14.495,13.5 L14.503,13.5 Q14.918,13.5 15.211,13.793 Q15.503,14.086 15.503,14.5 Q15.503,14.914 15.211,15.207 Q14.918,15.5 14.503,15.5 L14.495,15.5 Q14.08,15.5 13.787,15.207 Q13.494,14.914 13.494,14.5 Q13.494,14.086 13.787,13.793 Q14.08,13.5 14.495,13.5 Z"/>
  <path fill="#292D32" d="M9.495,8.5 L9.503,8.5 Q9.918,8.5 10.211,8.793 Q10.503,9.086 10.503,9.5 Q10.503,9.914 10.211,10.207 Q9.918,10.5 9.503,10.5 L9.495,10.5 Q9.08,10.5 8.787,10.207 Q8.495,9.914 8.495,9.5 Q8.495,9.086 8.787,8.793 Q9.08,8.5 9.495,8.5 Z"/>
</svg>

