<svg xmlns="http://www.w3.org/2000/svg" width="24" height="24" viewBox="0 0 24 24">
  <defs/>
  <path fill="#292D32" d="M3.461,15.19 L1.941,13.67 Q1.256,12.986 1.256,12.01 Q1.256,11.034 1.941,10.35 L3.461,8.83 Q3.711,8.579 3.711,8.23 L3.711,6.08 Q3.711,3.73 6.061,3.73 L8.211,3.73 Q8.56,3.73 8.811,3.48 L10.33,1.96 Q11.015,1.275 11.991,1.275 Q12.967,1.275 13.651,1.96 L15.171,3.48 Q15.422,3.73 15.771,3.73 L17.921,3.73 Q20.271,3.73 20.271,6.08 L20.271,8.23 Q20.271,8.579 20.521,8.83 L22.041,10.35 Q23.702,12.01 22.041,13.67 L20.521,15.19 Q20.271,15.441 20.271,15.79 L20.271,17.94 Q20.271,20.29 17.921,20.29 L15.771,20.29 Q15.421,20.29 15.171,20.54 L13.651,22.06 Q12.967,22.745 11.991,22.745 Q11.015,22.745 10.33,22.06 L8.811,20.54 Q8.56,20.29 8.211,20.29 L6.061,20.29 Q3.711,20.29 3.711,17.94 L3.711,15.79 Q3.711,15.431 3.471,15.201 Z M4.516,14.125 Q5.211,14.797 5.211,15.79 L5.211,17.94 Q5.211,18.79 6.061,18.79 L8.211,18.79 Q9.182,18.79 9.871,19.48 L11.391,21 Q11.636,21.245 11.991,21.245 Q12.345,21.245 12.591,21 L14.111,19.48 Q14.8,18.79 15.771,18.79 L17.921,18.79 Q18.771,18.79 18.771,17.94 L18.771,15.79 Q18.771,14.819 19.46,14.13 L20.981,12.61 Q21.58,12.01 20.981,11.41 L19.46,9.89 Q18.771,9.201 18.771,8.23 L18.771,6.08 Q18.771,5.23 17.921,5.23 L15.771,5.23 Q14.8,5.23 14.111,4.54 L12.591,3.02 Q12.345,2.775 11.991,2.775 Q11.636,2.775 11.391,3.02 L9.871,4.54 Q9.182,5.23 8.211,5.23 L6.061,5.23 Q5.211,5.23 5.211,6.08 L5.211,8.23 Q5.211,9.201 4.521,9.89 L3.001,11.41 Q2.756,11.656 2.756,12.01 Q2.756,12.364 3.001,12.61 L4.516,14.125 Z"/>
  <path fill="#292D32" opacity="0.4" d="M8.47,14.47 L14.47,8.47 Q14.689,8.25 15,8.25 Q15.311,8.25 15.53,8.47 Q15.75,8.689 15.75,9 Q15.75,9.311 15.53,9.53 L9.53,15.53 Q9.311,15.75 9,15.75 Q8.689,15.75 8.47,15.53 Q8.25,15.311 8.25,15 Q8.25,14.689 8.47,14.47 Z"/>
  <path fill="#292D32" opacity="0.4" d="M14.495,13.5 L14.503,13.5 Q14.918,13.5 15.211,13.793 Q15.503,14.086 15.503,14.5 Q15.503,14.914 15.211,15.207 Q14.918,15.5 14.503,15.5 L14.495,15.5 Q14.08,15.5 13.787,15.207 Q13.494,14.914 13.494,14.5 Q13.494,14.086 13.787,13.793 Q14.08,13.5 14.495,13.5 Z"/>
  <path fill="#292D32" opacity="0.4" d="M9.495,8.5 L9.503,8.5 Q9.918,8.5 10.211,8.793 Q10.503,9.086 10.503,9.5 Q10.503,9.914 10.211,10.207 Q9.918,10.5 9.503,10.5 L9.495,10.5 Q9.08,10.5 8.787,10.207 Q8.495,9.914 8.495,9.5 Q8.495,9.086 8.787,8.793 Q9.08,8.5 9.495,8.5 Z"/>
</svg>

