<svg xmlns="http://www.w3.org/2000/svg" width="24" height="24" viewBox="0 0 24 24">
  <defs/>
  <path fill="#292D32" d="M12,22.75 C6.07,22.75 1.25,17.93 1.25,12 C1.25,6.07 6.07,1.25 12,1.25 C17.93,1.25 22.75,6.07 22.75,12 C22.75,17.93 17.93,22.75 12,22.75 Z M12,2.75 C6.9,2.75 2.75,6.9 2.75,12 C2.75,17.1 6.9,21.25 12,21.25 C17.1,21.25 21.25,17.1 21.25,12 C21.25,6.9 17.1,2.75 12,2.75 Z"/>
  <path fill="#292D32" d="M15,16 C14.44,16 13.99,15.55 13.99,15 C13.99,14.45 14.44,14 14.99,14 C15.54,14 15.99,14.45 15.99,15 C15.99,15.55 15.55,16 15,16 Z"/>
  <path fill="#292D32" d="M9.01,10 C8.45,10 8,9.55 8,9 C8,8.45 8.45,8 9,8 C9.55,8 10,8.45 10,9 C10,9.55 9.56,10 9.01,10 Z"/>
  <path fill="#292D32" d="M8.999,15.75 C8.809,15.75 8.619,15.68 8.469,15.53 C8.179,15.24 8.179,14.76 8.469,14.47 L14.47,8.47 C14.759,8.18 15.239,8.18 15.53,8.47 C15.819,8.76 15.819,9.24 15.53,9.53 L9.53,15.53 C9.38,15.68 9.189,15.75 8.999,15.75 Z"/>
</svg>

