<svg xmlns="http://www.w3.org/2000/svg" width="24" height="24" viewBox="0 0 24 24">
  <defs/>
  <path fill="#292D32" d="M8.47,14.47 L14.47,8.47 Q14.689,8.25 15,8.25 Q15.311,8.25 15.53,8.47 Q15.75,8.689 15.75,9 Q15.75,9.311 15.53,9.53 L9.53,15.53 Q9.311,15.75 9,15.75 Q8.689,15.75 8.47,15.53 Q8.25,15.311 8.25,15 Q8.25,14.689 8.47,14.47 Z"/>
  <path fill="#292D32" d="M4.6,6.449 Q2.75,8.922 2.75,12 Q2.75,15.829 5.46,18.54 Q8.171,21.25 12,21.25 Q15.829,21.25 18.54,18.54 Q21.25,15.829 21.25,12 Q21.25,8.171 18.54,5.46 Q15.829,2.75 12,2.75 Q10.031,2.75 8.276,3.535 Q7.993,3.661 7.702,3.551 Q7.412,3.44 7.285,3.156 Q7.158,2.873 7.269,2.582 Q7.38,2.292 7.664,2.165 Q9.711,1.25 12,1.25 Q16.451,1.25 19.6,4.4 Q22.75,7.549 22.75,12 Q22.75,16.451 19.6,19.6 Q16.451,22.75 12,22.75 Q7.549,22.75 4.4,19.6 Q1.25,16.451 1.25,12 Q1.25,8.422 3.4,5.551 Q3.586,5.302 3.893,5.258 Q4.201,5.213 4.449,5.4 Q4.698,5.586 4.742,5.893 Q4.787,6.201 4.6,6.449 Z"/>
  <path fill="#292D32" d="M14.495,13.5 L14.503,13.5 Q14.918,13.5 15.211,13.793 Q15.503,14.086 15.503,14.5 Q15.503,14.914 15.211,15.207 Q14.918,15.5 14.503,15.5 L14.495,15.5 Q14.08,15.5 13.787,15.207 Q13.494,14.914 13.494,14.5 Q13.494,14.086 13.787,13.793 Q14.08,13.5 14.495,13.5 Z"/>
  <path fill="#292D32" d="M9.495,8.5 L9.503,8.5 Q9.918,8.5 10.211,8.793 Q10.503,9.086 10.503,9.5 Q10.503,9.914 10.211,10.207 Q9.918,10.5 9.503,10.5 L9.495,10.5 Q9.08,10.5 8.787,10.207 Q8.495,9.914 8.495,9.5 Q8.495,9.086 8.787,8.793 Q9.08,8.5 9.495,8.5 Z"/>
</svg>

