<svg xmlns="http://www.w3.org/2000/svg" width="24" height="24" viewBox="0 0 24 24">
  <defs/>
  <path fill="#292D32" d="M12,2 C6.48,2 2,6.48 2,12 C2,17.52 6.48,22 12,22 C17.52,22 22,17.52 22,12 C22,6.48 17.52,2 12,2 Z M9,8 C9.55,8 10,8.45 10,9 C10,9.55 9.56,10 9,10 C8.45,10 8,9.55 8,9 C8,8.45 8.45,8 9,8 Z M9.53,15.53 C9.38,15.68 9.19,15.75 9,15.75 C8.81,15.75 8.62,15.68 8.47,15.53 C8.18,15.24 8.18,14.76 8.47,14.47 L14.47,8.47 C14.76,8.18 15.24,8.18 15.53,8.47 C15.82,8.76 15.82,9.24 15.53,9.53 L9.53,15.53 Z M15,16 C14.44,16 13.99,15.55 13.99,15 C13.99,14.45 14.44,14 14.99,14 C15.54,14 15.99,14.45 15.99,15 C15.99,15.55 15.55,16 15,16 Z"/>
</svg>

