<svg xmlns="http://www.w3.org/2000/svg" width="24" height="24" viewBox="0 0 24 24">
  <defs/>
  <path fill="#292D32" opacity="0.4" d="M3.991,14.66 L2.471,13.14 C1.851,12.52 1.851,11.5 2.471,10.88 L3.991,9.36 C4.251,9.1 4.461,8.59 4.461,8.23 L4.461,6.08 C4.461,5.2 5.181,4.48 6.061,4.48 L8.211,4.48 C8.571,4.48 9.081,4.27 9.341,4.01 L10.861,2.49 C11.481,1.87 12.501,1.87 13.121,2.49 L14.641,4.01 C14.901,4.27 15.411,4.48 15.771,4.48 L17.921,4.48 C18.801,4.48 19.521,5.2 19.521,6.08 L19.521,8.23 C19.521,8.59 19.731,9.1 19.991,9.36 L21.511,10.88 C22.131,11.5 22.131,12.52 21.511,13.14 L19.991,14.66 C19.731,14.92 19.521,15.43 19.521,15.79 L19.521,17.94 C19.521,18.82 18.801,19.54 17.921,19.54 L15.771,19.54 C15.411,19.54 14.901,19.75 14.641,20.01 L13.121,21.53 C12.501,22.15 11.481,22.15 10.861,21.53 L9.341,20.01 C9.081,19.75 8.571,19.54 8.211,19.54 L6.061,19.54 C5.181,19.54 4.461,18.82 4.461,17.94 L4.461,15.79 C4.461,15.42 4.251,14.91 3.991,14.66 Z"/>
  <path fill="#292D32" d="M15,16 C14.44,16 13.99,15.55 13.99,15 C13.99,14.45 14.44,14 14.99,14 C15.54,14 15.99,14.45 15.99,15 C15.99,15.55 15.55,16 15,16 Z"/>
  <path fill="#292D32" d="M9.01,10 C8.45,10 8,9.55 8,9 C8,8.45 8.45,8 9,8 C9.55,8 10,8.45 10,9 C10,9.55 9.56,10 9.01,10 Z"/>
  <path fill="#292D32" d="M8.999,15.75 C8.809,15.75 8.619,15.68 8.469,15.53 C8.179,15.24 8.179,14.76 8.469,14.47 L14.47,8.47 C14.759,8.18 15.239,8.18 15.53,8.47 C15.819,8.76 15.819,9.24 15.53,9.53 L9.529,15.53 C9.379,15.68 9.189,15.75 8.999,15.75 Z"/>
</svg>

