<svg xmlns="http://www.w3.org/2000/svg" width="24" height="24" viewBox="0 0 24 24">
  <defs/>
  <path fill="#292D32" d="M20.981,3.021 C20.111,2.151 18.881,1.811 17.691,2.111 L7.891,4.561 C6.241,4.971 4.971,6.251 4.561,7.891 L2.111,17.701 C1.811,18.891 2.151,20.121 3.021,20.991 C3.681,21.641 4.551,22.001 5.451,22.001 C5.731,22.001 6.021,21.971 6.301,21.891 L16.111,19.441 C17.751,19.031 19.031,17.761 19.441,16.111 L21.891,6.301 C22.191,5.111 21.851,3.881 20.981,3.021 Z M12.001,15.881 C9.861,15.881 8.121,14.141 8.121,12.001 C8.121,9.861 9.861,8.121 12.001,8.121 C14.141,8.121 15.881,9.861 15.881,12.001 C15.881,14.141 14.141,15.881 12.001,15.881 Z"/>
</svg>

