<svg xmlns="http://www.w3.org/2000/svg" width="24" height="24" viewBox="0 0 24 24">
  <defs/>
  <path fill="#292D32" d="M14.134,13.55 Q15.25,12.21 15.25,10.5 Q15.25,8.75 13.5,8.75 Q11.54,8.75 10.144,10.147 Q8.75,11.544 8.75,13.5 Q8.75,14.219 9.264,14.734 Q9.778,15.25 10.5,15.25 Q10.811,15.25 11.03,15.47 Q11.25,15.689 11.25,16 Q11.25,16.311 11.03,16.53 Q10.811,16.75 10.5,16.75 Q7.25,16.75 7.25,13.5 Q7.25,10.923 9.083,9.088 Q10.918,7.25 13.5,7.25 Q16.75,7.25 16.75,10.5 Q16.75,12.754 15.286,14.51 Q15.087,14.749 14.778,14.777 Q14.469,14.805 14.23,14.606 Q13.991,14.407 13.963,14.098 Q13.935,13.789 14.134,13.55 Z"/>
  <path fill="#292D32" d="M4.6,6.449 Q2.75,8.922 2.75,12 Q2.75,15.829 5.46,18.54 Q8.171,21.25 12,21.25 Q15.829,21.25 18.54,18.54 Q21.25,15.829 21.25,12 Q21.25,8.171 18.54,5.46 Q15.829,2.75 12,2.75 Q10.031,2.75 8.276,3.535 Q7.993,3.661 7.702,3.551 Q7.412,3.44 7.285,3.156 Q7.159,2.873 7.269,2.582 Q7.38,2.292 7.664,2.165 Q9.711,1.25 12,1.25 Q16.451,1.25 19.6,4.4 Q22.75,7.549 22.75,12 Q22.75,16.451 19.6,19.6 Q16.451,22.75 12,22.75 Q7.549,22.75 4.4,19.6 Q1.25,16.451 1.25,12 Q1.25,8.422 3.4,5.551 Q3.586,5.302 3.893,5.258 Q4.201,5.213 4.449,5.4 Q4.698,5.586 4.742,5.893 Q4.787,6.201 4.6,6.449 Z"/>
</svg>

