<svg xmlns="http://www.w3.org/2000/svg" width="24" height="24" viewBox="0 0 24 24">
  <defs/>
  <path fill="#292D32" d="M15.191,20.54 L13.671,22.06 Q12.01,23.721 10.35,22.06 L8.83,20.54 Q8.58,20.29 8.23,20.29 L6.08,20.29 Q3.73,20.29 3.73,17.94 L3.73,15.79 Q3.73,15.441 3.48,15.19 L1.96,13.67 Q1.275,12.986 1.275,12.01 Q1.275,11.034 1.96,10.35 L3.48,8.83 Q3.73,8.579 3.73,8.23 L3.73,6.08 Q3.73,5.109 4.42,4.42 Q5.11,3.73 6.08,3.73 Q6.391,3.73 6.611,3.95 Q6.83,4.169 6.83,4.48 Q6.83,4.791 6.611,5.01 Q6.391,5.23 6.08,5.23 Q5.23,5.23 5.23,6.08 L5.23,8.23 Q5.23,9.201 4.541,9.89 L3.021,11.41 Q2.775,11.656 2.775,12.01 Q2.775,12.364 3.021,12.61 L4.541,14.13 Q5.23,14.819 5.23,15.79 L5.23,17.94 Q5.23,18.79 6.08,18.79 L8.23,18.79 Q9.201,18.79 9.891,19.48 L11.411,21 Q12.01,21.599 12.61,21 L14.13,19.48 Q14.35,19.26 14.66,19.26 Q14.971,19.26 15.191,19.48 Q15.41,19.699 15.41,20.01 Q15.41,20.321 15.191,20.54 Z"/>
  <path fill="#292D32" d="M8.809,3.46 L10.329,1.94 Q11.014,1.255 11.99,1.255 Q12.965,1.255 13.65,1.94 L15.17,3.46 Q15.421,3.71 15.77,3.71 L17.92,3.71 Q20.27,3.71 20.27,6.06 L20.27,8.21 Q20.27,8.559 20.52,8.81 L22.04,10.33 Q22.725,11.014 22.725,11.99 Q22.725,12.966 22.04,13.65 L20.52,15.17 Q20.27,15.421 20.27,15.77 L20.27,17.92 Q20.27,18.891 19.58,19.58 Q18.891,20.27 17.92,20.27 Q17.609,20.27 17.39,20.05 Q17.17,19.831 17.17,19.52 Q17.17,19.209 17.39,18.99 Q17.609,18.77 17.92,18.77 Q18.77,18.77 18.77,17.92 L18.77,15.77 Q18.77,14.799 19.459,14.11 L20.98,12.59 Q21.225,12.344 21.225,11.99 Q21.225,11.636 20.98,11.39 L19.459,9.87 Q18.77,9.181 18.77,8.21 L18.77,6.06 Q18.77,5.21 17.92,5.21 L15.77,5.21 Q14.799,5.21 14.11,4.52 L12.589,3 Q12.344,2.755 11.99,2.755 Q11.635,2.755 11.39,3 L9.87,4.52 Q9.651,4.74 9.34,4.74 Q9.029,4.74 8.81,4.52 Q8.59,4.301 8.59,3.99 Q8.59,3.679 8.809,3.46 Z"/>
  <path fill="#292D32" d="M8.47,14.47 L14.47,8.47 Q14.689,8.25 15,8.25 Q15.311,8.25 15.53,8.47 Q15.75,8.689 15.75,9 Q15.75,9.311 15.53,9.53 L9.53,15.53 Q9.311,15.75 9,15.75 Q8.689,15.75 8.47,15.53 Q8.25,15.311 8.25,15 Q8.25,14.689 8.47,14.47 Z"/>
  <path fill="#292D32" d="M14.495,13.5 L14.503,13.5 Q14.918,13.5 15.211,13.793 Q15.503,14.086 15.503,14.5 Q15.503,14.914 15.211,15.207 Q14.918,15.5 14.503,15.5 L14.495,15.5 Q14.08,15.5 13.787,15.207 Q13.494,14.914 13.494,14.5 Q13.494,14.086 13.787,13.793 Q14.08,13.5 14.495,13.5 Z"/>
  <path fill="#292D32" d="M9.495,8.5 L9.503,8.5 Q9.918,8.5 10.211,8.793 Q10.503,9.086 10.503,9.5 Q10.503,9.914 10.211,10.207 Q9.918,10.5 9.503,10.5 L9.495,10.5 Q9.08,10.5 8.787,10.207 Q8.495,9.914 8.495,9.5 Q8.495,9.086 8.787,8.793 Q9.08,8.5 9.495,8.5 Z"/>
</svg>

