<svg xmlns="http://www.w3.org/2000/svg" width="24" height="24" viewBox="0 0 24 24">
  <defs/>
  <path fill="#292D32" opacity="0.4" d="M12,22 C17.523,22 22,17.523 22,12 C22,6.477 17.523,2 12,2 C6.477,2 2,6.477 2,12 C2,17.523 6.477,22 12,22 Z"/>
  <path fill="#292D32" d="M15,16 C14.44,16 13.99,15.55 13.99,15 C13.99,14.45 14.44,14 14.99,14 C15.54,14 15.99,14.45 15.99,15 C15.99,15.55 15.55,16 15,16 Z"/>
  <path fill="#292D32" d="M9.01,10 C8.45,10 8,9.55 8,9 C8,8.45 8.45,8 9,8 C9.55,8 10,8.45 10,9 C10,9.55 9.56,10 9.01,10 Z"/>
  <path fill="#292D32" d="M8.999,15.75 C8.809,15.75 8.619,15.68 8.469,15.53 C8.179,15.24 8.179,14.76 8.469,14.47 L14.47,8.47 C14.759,8.18 15.239,8.18 15.53,8.47 C15.819,8.76 15.819,9.24 15.53,9.53 L9.53,15.53 C9.38,15.68 9.189,15.75 8.999,15.75 Z"/>
</svg>

