<svg xmlns="http://www.w3.org/2000/svg" width="24" height="24" viewBox="0 0 24 24">
  <defs/>
  <path fill="#292D32" d="M21.529,10.869 L20.009,9.349 C19.749,9.089 19.539,8.579 19.539,8.219 L19.539,6.059 C19.539,5.179 18.819,4.459 17.939,4.459 L15.789,4.459 C15.429,4.459 14.919,4.249 14.659,3.989 L13.139,2.469 C12.519,1.849 11.499,1.849 10.879,2.469 L9.339,3.989 C9.089,4.249 8.579,4.459 8.209,4.459 L6.059,4.459 C5.179,4.459 4.459,5.179 4.459,6.059 L4.459,8.209 C4.459,8.569 4.249,9.079 3.989,9.339 L2.469,10.859 C1.849,11.479 1.849,12.499 2.469,13.119 L3.989,14.639 C4.249,14.899 4.459,15.409 4.459,15.769 L4.459,17.919 C4.459,18.799 5.179,19.519 6.059,19.519 L8.209,19.519 C8.569,19.519 9.079,19.729 9.339,19.989 L10.859,21.509 C11.479,22.129 12.499,22.129 13.119,21.509 L14.639,19.989 C14.899,19.729 15.409,19.519 15.769,19.519 L17.919,19.519 C18.799,19.519 19.519,18.799 19.519,17.919 L19.519,15.769 C19.519,15.409 19.729,14.899 19.989,14.639 L21.509,13.119 C22.159,12.509 22.159,11.489 21.529,10.869 Z M7.999,8.999 C7.999,8.449 8.449,7.999 8.999,7.999 C9.549,7.999 9.999,8.449 9.999,8.999 C9.999,9.549 9.559,9.999 8.999,9.999 C8.449,9.999 7.999,9.549 7.999,8.999 Z M9.529,15.529 C9.379,15.679 9.189,15.749 8.999,15.749 C8.809,15.749 8.619,15.679 8.469,15.529 C8.179,15.239 8.179,14.759 8.469,14.469 L14.469,8.469 C14.759,8.179 15.239,8.179 15.529,8.469 C15.819,8.759 15.819,9.239 15.529,9.529 L9.529,15.529 Z M14.999,15.999 C14.439,15.999 13.989,15.549 13.989,14.999 C13.989,14.449 14.439,13.999 14.989,13.999 C15.539,13.999 15.989,14.449 15.989,14.999 C15.989,15.549 15.549,15.999 14.999,15.999 Z"/>
</svg>

