<svg xmlns="http://www.w3.org/2000/svg" width="24" height="24" viewBox="0 0 24 24">
  <defs/>
  <path fill="#292D32" d="M12,22.75 C11.37,22.75 10.78,22.51 10.34,22.06 L8.82,20.54 C8.7,20.42 8.38,20.29 8.22,20.29 L6.06,20.29 C4.76,20.29 3.71,19.24 3.71,17.94 L3.71,15.78 C3.71,15.62 3.58,15.3 3.46,15.18 L1.94,13.66 C1.5,13.22 1.25,12.63 1.25,12 C1.25,11.37 1.49,10.78 1.94,10.34 L3.46,8.82 C3.58,8.7 3.71,8.38 3.71,8.22 L3.71,6.06 C3.71,4.76 4.76,3.71 6.06,3.71 L8.22,3.71 C8.38,3.71 8.7,3.58 8.82,3.46 L10.34,1.94 C11.22,1.06 12.78,1.06 13.66,1.94 L15.18,3.46 C15.3,3.58 15.62,3.71 15.78,3.71 L17.94,3.71 C19.24,3.71 20.29,4.76 20.29,6.06 L20.29,8.22 C20.29,8.38 20.42,8.7 20.54,8.82 L22.06,10.34 C22.5,10.78 22.75,11.37 22.75,12 C22.75,12.63 22.51,13.22 22.06,13.66 L20.54,15.18 C20.42,15.3 20.29,15.62 20.29,15.78 L20.29,17.94 C20.29,19.24 19.24,20.29 17.94,20.29 L15.78,20.29 C15.62,20.29 15.3,20.42 15.18,20.54 L13.66,22.06 C13.22,22.51 12.63,22.75 12,22.75 Z M4.52,14.12 C4.92,14.52 5.21,15.22 5.21,15.78 L5.21,17.94 C5.21,18.41 5.59,18.79 6.06,18.79 L8.22,18.79 C8.78,18.79 9.48,19.08 9.88,19.48 L11.4,21 C11.72,21.32 12.28,21.32 12.6,21 L14.12,19.48 C14.52,19.08 15.22,18.79 15.78,18.79 L17.94,18.79 C18.41,18.79 18.79,18.41 18.79,17.94 L18.79,15.78 C18.79,15.22 19.08,14.52 19.48,14.12 L21,12.6 C21.16,12.44 21.25,12.23 21.25,12 C21.25,11.77 21.16,11.56 21,11.4 L19.48,9.88 C19.08,9.48 18.79,8.78 18.79,8.22 L18.79,6.06 C18.79,5.59 18.41,5.21 17.94,5.21 L15.78,5.21 C15.22,5.21 14.52,4.92 14.12,4.52 L12.6,3 C12.28,2.68 11.72,2.68 11.4,3 L9.88,4.52 C9.48,4.92 8.78,5.21 8.22,5.21 L6.06,5.21 C5.59,5.21 5.21,5.59 5.21,6.06 L5.21,8.22 C5.21,8.78 4.92,9.48 4.52,9.88 L3,11.4 C2.84,11.56 2.75,11.77 2.75,12 C2.75,12.23 2.84,12.44 3,12.6 L4.52,14.12 Z"/>
  <path fill="#292D32" d="M15,16 C14.44,16 13.99,15.55 13.99,15 C13.99,14.45 14.44,14 14.99,14 C15.54,14 15.99,14.45 15.99,15 C15.99,15.55 15.55,16 15,16 Z"/>
  <path fill="#292D32" d="M9.01,10 C8.45,10 8,9.55 8,9 C8,8.45 8.45,8 9,8 C9.55,8 10,8.45 10,9 C10,9.55 9.56,10 9.01,10 Z"/>
  <path fill="#292D32" d="M8.999,15.75 C8.809,15.75 8.619,15.68 8.469,15.53 C8.179,15.24 8.179,14.76 8.469,14.47 L14.47,8.47 C14.759,8.18 15.239,8.18 15.53,8.47 C15.819,8.76 15.819,9.24 15.53,9.53 L9.529,15.53 C9.379,15.68 9.189,15.75 8.999,15.75 Z"/>
</svg>

