<svg xmlns="http://www.w3.org/2000/svg" width="24" height="24" viewBox="0 0 24 24">
  <defs/>
  <path fill="#292D32" d="M10.8,22.1 C10.51,22.1 10.22,22.05 9.95,21.95 C8.7,21.54 7.9,20.16 8.18,18.88 L8.67,15.73 C8.68,15.66 8.68,15.56 8.61,15.48 C8.56,15.43 8.49,15.4 8.41,15.4 L4.41,15.4 C3.43,15.4 2.58,14.99 2.08,14.28 C1.59,13.59 1.49,12.68 1.81,11.8 L4.2,4.52 C4.57,3.07 6.12,1.9 7.72,1.9 L11.52,1.9 C12.08,1.9 13.3,2.07 13.95,2.72 L16.98,5.06 L16.06,6.25 L12.96,3.85 C12.71,3.6 12.08,3.4 11.52,3.4 L7.72,3.4 C6.82,3.4 5.85,4.12 5.65,4.93 L3.23,12.28 C3.07,12.72 3.1,13.12 3.31,13.41 C3.53,13.72 3.93,13.9 4.42,13.9 L8.42,13.9 C8.94,13.9 9.42,14.12 9.75,14.5 C10.09,14.89 10.24,15.41 10.16,15.95 L9.66,19.16 C9.54,19.72 9.92,20.35 10.46,20.53 C10.94,20.71 11.58,20.45 11.8,20.13 L15.9,14.03 L17.14,14.87 L13.04,20.97 C12.57,21.67 11.68,22.1 10.8,22.1 Z"/>
  <path fill="#292D32" d="M19.619,18.1 L18.619,18.1 C16.769,18.1 15.869,17.23 15.869,15.45 L15.869,5.65 C15.869,3.87 16.769,3 18.619,3 L19.619,3 C21.469,3 22.369,3.87 22.369,5.65 L22.369,15.45 C22.369,17.23 21.469,18.1 19.619,18.1 Z M18.619,4.5 C17.529,4.5 17.369,4.76 17.369,5.65 L17.369,15.45 C17.369,16.34 17.529,16.6 18.619,16.6 L19.619,16.6 C20.709,16.6 20.869,16.34 20.869,15.45 L20.869,5.65 C20.869,4.76 20.709,4.5 19.619,4.5 L18.619,4.5 Z"/>
</svg>

