<svg xmlns="http://www.w3.org/2000/svg" width="24" height="24" viewBox="0 0 24 24">
  <defs/>
  <path fill="#292D32" d="M15.609,5.5 L15.609,15.659 C15.609,16.059 15.489,16.45 15.269,16.779 L12.539,20.84 C12.109,21.489 11.039,21.95 10.129,21.61 C9.149,21.279 8.499,20.18 8.709,19.2 L9.229,15.93 C9.269,15.63 9.189,15.36 9.019,15.149 C8.849,14.96 8.599,14.839 8.329,14.839 L4.219,14.839 C3.429,14.839 2.749,14.52 2.349,13.96 C1.969,13.419 1.899,12.72 2.149,12.009 L4.609,4.52 C4.919,3.28 6.269,2.27 7.609,2.27 L11.509,2.27 C12.179,2.27 13.119,2.5 13.549,2.93 L14.829,3.92 C15.319,4.3 15.609,4.88 15.609,5.5 Z"/>
  <path fill="#292D32" d="M18.789,17.608 L19.819,17.608 C21.369,17.608 21.999,17.008 21.999,15.528 L21.999,5.478 C21.999,3.998 21.369,3.398 19.819,3.398 L18.789,3.398 C17.239,3.398 16.609,3.998 16.609,5.478 L16.609,15.538 C16.609,17.008 17.239,17.608 18.789,17.608 Z"/>
</svg>

