<svg xmlns="http://www.w3.org/2000/svg" width="24" height="24" viewBox="0 0 24 24">
  <defs/>
  <path fill="#292D32" d="M3.226,12.302 Q2.987,12.973 3.324,13.43 Q3.67,13.9 4.42,13.9 L8.42,13.9 Q9.223,13.9 9.745,14.491 Q10.284,15.103 10.162,15.956 L9.661,19.166 Q9.657,19.189 9.652,19.213 Q9.433,20.197 10.457,20.538 Q10.47,20.543 10.483,20.548 Q11.312,20.859 11.796,20.134 L15.897,14.032 Q16.071,13.774 16.375,13.714 Q16.68,13.654 16.938,13.828 Q17.196,14.001 17.256,14.306 Q17.315,14.611 17.142,14.868 L13.044,20.966 Q11.904,22.675 9.969,21.957 Q7.689,21.19 8.182,18.912 L8.677,15.744 Q8.701,15.576 8.62,15.484 Q8.546,15.4 8.42,15.4 L4.42,15.4 Q2.912,15.4 2.116,14.32 Q1.305,13.22 1.813,11.798 Q1.918,11.505 2.199,11.372 Q2.479,11.239 2.772,11.344 Q3.065,11.448 3.198,11.729 Q3.331,12.01 3.226,12.302 Z"/>
  <path fill="#292D32" d="M16.06,6.243 L12.96,3.843 Q12.923,3.814 12.889,3.78 Q12.509,3.4 11.519,3.4 L7.719,3.4 Q6.03,3.4 5.647,4.932 Q5.64,4.958 5.632,4.984 L4.492,8.454 Q4.395,8.749 4.118,8.889 Q3.84,9.03 3.545,8.933 Q3.25,8.836 3.11,8.558 Q2.97,8.281 3.067,7.986 L4.199,4.541 Q4.873,1.9 7.719,1.9 L11.519,1.9 Q13.094,1.9 13.912,2.683 L16.978,5.057 Q17.224,5.247 17.263,5.555 Q17.303,5.864 17.112,6.109 Q16.922,6.355 16.614,6.394 Q16.306,6.433 16.06,6.243 Z"/>
  <path fill="#292D32" d="M22.369,5.65 L22.369,15.45 Q22.369,18.1 19.619,18.1 L18.619,18.1 Q17.261,18.1 16.585,17.476 Q15.869,16.815 15.869,15.45 L15.869,5.65 Q15.869,4.285 16.585,3.624 Q17.261,3 18.619,3 L19.619,3 Q20.977,3 21.653,3.624 Q22.369,4.285 22.369,5.65 Z M20.869,5.65 Q20.869,4.942 20.635,4.726 Q20.39,4.5 19.619,4.5 L18.619,4.5 Q17.848,4.5 17.603,4.726 Q17.369,4.942 17.369,5.65 L17.369,15.45 Q17.369,16.6 18.619,16.6 L19.619,16.6 Q20.869,16.6 20.869,15.45 Z"/>
</svg>

