<svg xmlns="http://www.w3.org/2000/svg" width="24" height="24" viewBox="0 0 24 24">
  <defs/>
  <path fill="#292D32" d="M16.061,6.243 L12.923,3.814 L12.89,3.78 Q12.509,3.4 11.52,3.4 L7.72,3.4 Q6.031,3.4 5.648,4.932 L5.641,4.958 L3.229,12.293 L3.226,12.302 Q2.987,12.973 3.324,13.43 Q3.67,13.9 4.42,13.9 L8.42,13.9 Q9.223,13.9 9.745,14.491 Q10.284,15.103 10.162,15.956 L9.657,19.189 L9.652,19.213 Q9.433,20.197 10.457,20.538 L10.47,20.543 L10.483,20.548 Q11.313,20.859 11.796,20.134 L15.898,14.032 L17.142,14.868 L13.044,20.966 Q11.904,22.675 9.97,21.957 Q7.689,21.19 8.182,18.912 L8.678,15.744 Q8.702,15.576 8.62,15.484 Q8.546,15.4 8.42,15.4 L4.42,15.4 Q2.912,15.4 2.116,14.32 Q1.308,13.224 1.81,11.807 L4.199,4.541 Q4.874,1.9 7.72,1.9 L11.52,1.9 Q13.094,1.9 13.913,2.683 L16.979,5.057 Z"/>
  <path fill="#292D32" d="M22.37,5.65 L22.37,15.45 Q22.37,18.1 19.62,18.1 L18.62,18.1 Q15.87,18.1 15.87,15.45 L15.87,5.65 Q15.87,4.285 16.586,3.624 Q17.262,3 18.62,3 L19.62,3 Q22.37,3 22.37,5.65 Z M20.87,5.65 Q20.87,4.5 19.62,4.5 L18.62,4.5 Q17.37,4.5 17.37,5.65 L17.37,15.45 Q17.37,16.6 18.62,16.6 L19.62,16.6 Q20.87,16.6 20.87,15.45 Z"/>
</svg>

