<svg xmlns="http://www.w3.org/2000/svg" width="24" height="24" viewBox="0 0 24 24">
  <defs/>
  <path fill="#292D32" opacity="0.4" d="M2.349,13.96 C2.739,14.52 3.429,14.84 4.219,14.84 L8.319,14.84 C8.589,14.84 8.839,14.95 9.009,15.15 C9.189,15.35 9.259,15.63 9.219,15.92 L8.709,19.2 C8.489,20.18 9.139,21.28 10.119,21.61 C11.029,21.95 12.099,21.49 12.529,20.84 L16.739,14.57 L16.859,14.37 L16.859,5.53 L16.709,5.38 L13.539,2.93 C13.119,2.51 12.169,2.28 11.499,2.28 L7.599,2.28 C6.259,2.28 4.909,3.29 4.609,4.52 L2.149,12.01 C1.899,12.72 1.969,13.42 2.349,13.96 Z"/>
  <path fill="#292D32" d="M18.789,17.61 L19.819,17.61 C21.369,17.61 21.999,17.01 21.999,15.53 L21.999,5.48 C21.999,4 21.369,3.4 19.819,3.4 L18.789,3.4 C17.239,3.4 16.609,4 16.609,5.48 L16.609,15.54 C16.609,17.01 17.239,17.61 18.789,17.61 Z"/>
</svg>

