<svg xmlns="http://www.w3.org/2000/svg" width="24" height="24" viewBox="0 0 24 24">
  <defs/>
  <path fill="#292D32" opacity="0.4" d="M21,7 L21,17 C21,20 19.5,22 16,22 L8,22 C4.5,22 3,20 3,17 L3,7 C3,4 4.5,2 8,2 L16,2 C19.5,2 21,4 21,7 Z"/>
  <path fill="#292D32" d="M18.5,9.25 L16.5,9.25 C14.98,9.25 13.75,8.02 13.75,6.5 L13.75,4.5 C13.75,4.09 14.09,3.75 14.5,3.75 C14.91,3.75 15.25,4.09 15.25,4.5 L15.25,6.5 C15.25,7.19 15.81,7.75 16.5,7.75 L18.5,7.75 C18.91,7.75 19.25,8.09 19.25,8.5 C19.25,8.91 18.91,9.25 18.5,9.25 Z"/>
  <path fill="#292D32" d="M7.479,15.49 C7.149,14.46 7.539,13.19 8.609,12.84 C9.179,12.66 9.879,12.81 10.269,13.36 C10.639,12.79 11.369,12.66 11.929,12.84 C13.009,13.19 13.389,14.46 13.069,15.49 C12.559,17.12 10.769,17.97 10.269,17.97 C9.779,17.96 8.009,17.13 7.479,15.49 Z"/>
</svg>

