<svg xmlns="http://www.w3.org/2000/svg" width="24" height="24" viewBox="0 0 24 24">
  <defs/>
  <path fill="#292D32" d="M22.75,10 L22.75,15 Q22.75,22.75 15,22.75 L9,22.75 Q1.25,22.75 1.25,15 L1.25,9 Q1.25,1.25 9,1.25 L14,1.25 Q14.311,1.25 14.53,1.47 Q14.75,1.689 14.75,2 Q14.75,2.311 14.53,2.53 Q14.311,2.75 14,2.75 L9,2.75 Q2.75,2.75 2.75,9 L2.75,15 Q2.75,21.25 9,21.25 L15,21.25 Q18.439,21.25 19.845,19.845 Q21.25,18.439 21.25,15 L21.25,10 Q21.25,9.689 21.47,9.47 Q21.689,9.25 22,9.25 Q22.311,9.25 22.53,9.47 Q22.75,9.689 22.75,10 Z"/>
  <path fill="#292D32" d="M22,10.75 L18,10.75 Q13.25,10.75 13.25,6 L13.25,2 Q13.25,1.689 13.47,1.47 Q13.689,1.25 14,1.25 Q14.311,1.25 14.53,1.47 L22.53,9.47 Q22.75,9.689 22.75,10 Q22.75,10.311 22.53,10.53 Q22.311,10.75 22,10.75 Z M20.189,9.25 L14.75,3.811 L14.75,6 Q14.75,7.939 15.405,8.595 Q16.061,9.25 18,9.25 L20.189,9.25 Z"/>
  <path fill="#292D32" d="M8.32,11.25 L10.97,11.25 Q11.877,11.25 12.353,11.997 L13.475,13.685 Q14.234,14.807 13.27,15.77 L10.81,18.23 Q9.64,19.401 8.47,18.23 L6.01,15.77 Q5.046,14.807 5.809,13.68 L6.935,11.985 Q6.944,11.972 6.953,11.959 Q7.469,11.25 8.32,11.25 Z M8.32,12.75 Q8.237,12.75 8.173,12.832 L7.051,14.52 Q6.982,14.622 7.07,14.71 L9.53,17.17 Q9.64,17.279 9.75,17.17 L12.21,14.71 Q12.298,14.622 12.225,14.515 L11.087,12.803 Q11.054,12.75 10.97,12.75 Z"/>
</svg>

