<svg xmlns="http://www.w3.org/2000/svg" width="24" height="24" viewBox="0 0 24 24">
  <defs/>
  <path fill="#292D32" d="M10.82,18.23 Q10.338,18.712 9.65,18.712 Q8.961,18.712 8.479,18.23 L6.019,15.77 Q5.056,14.807 5.818,13.68 L6.945,11.985 Q7.446,11.25 8.32,11.25 L10.969,11.25 Q11.877,11.25 12.352,11.997 L13.474,13.685 Q14.233,14.807 13.27,15.77 Q13.05,15.99 12.739,15.99 Q12.429,15.99 12.209,15.77 Q11.99,15.551 11.99,15.24 Q11.99,14.929 12.209,14.71 Q12.297,14.622 12.225,14.515 L11.087,12.803 Q11.053,12.75 10.969,12.75 L8.32,12.75 Q8.239,12.75 8.194,12.815 L7.061,14.52 Q6.992,14.622 7.08,14.71 L9.54,17.17 Q9.583,17.212 9.65,17.212 Q9.716,17.212 9.759,17.17 Q9.979,16.95 10.289,16.95 Q10.6,16.95 10.82,17.17 Q11.039,17.389 11.039,17.7 Q11.04,18.011 10.82,18.23 Z"/>
  <path fill="#292D32" d="M1.25,9 Q1.25,1.25 9,1.25 L14,1.25 Q14.311,1.25 14.53,1.47 Q14.75,1.689 14.75,2 Q14.75,2.311 14.53,2.53 Q14.311,2.75 14,2.75 L9,2.75 Q2.75,2.75 2.75,9 Q2.75,9.311 2.53,9.53 Q2.311,9.75 2,9.75 Q1.689,9.75 1.47,9.53 Q1.25,9.311 1.25,9 Z"/>
  <path fill="#292D32" d="M22.75,10 L22.75,15 Q22.75,22.75 15,22.75 L9,22.75 Q1.25,22.75 1.25,15 L1.25,12.98 Q1.25,12.669 1.47,12.45 Q1.689,12.23 2,12.23 Q2.311,12.23 2.53,12.45 Q2.75,12.669 2.75,12.98 L2.75,15 Q2.75,21.25 9,21.25 L15,21.25 Q18.439,21.25 19.845,19.845 Q21.25,18.439 21.25,15 L21.25,10 Q21.25,9.689 21.47,9.47 Q21.689,9.25 22,9.25 Q22.311,9.25 22.53,9.47 Q22.75,9.689 22.75,10 Z"/>
  <path fill="#292D32" d="M18,10.75 Q13.25,10.75 13.25,6 L13.25,2 Q13.25,1.689 13.47,1.47 Q13.689,1.25 14,1.25 Q14.311,1.25 14.53,1.47 L22.53,9.47 Q22.75,9.689 22.75,10 Q22.75,10.311 22.53,10.53 Q22.311,10.75 22,10.75 Q21.689,10.75 21.47,10.53 L14.75,3.811 L14.75,6 Q14.75,7.939 15.405,8.595 Q16.061,9.25 18,9.25 Q18.311,9.25 18.53,9.47 Q18.75,9.689 18.75,10 Q18.75,10.311 18.53,10.53 Q18.311,10.75 18,10.75 Z"/>
</svg>

