<svg xmlns="http://www.w3.org/2000/svg" width="24" height="24" viewBox="0 0 24 24">
  <defs/>
  <path fill="#292D32" d="M22.75,10 L22.75,15 Q22.75,22.75 15,22.75 L9,22.75 Q1.25,22.75 1.25,15 L1.25,9 Q1.25,1.25 9,1.25 L14,1.25 Q14.311,1.25 14.53,1.47 Q14.75,1.689 14.75,2 Q14.75,2.311 14.53,2.53 Q14.311,2.75 14,2.75 L9,2.75 Q2.75,2.75 2.75,9 L2.75,15 Q2.75,21.25 9,21.25 L15,21.25 Q18.439,21.25 19.845,19.845 Q21.25,18.439 21.25,15 L21.25,10 Q21.25,9.689 21.47,9.47 Q21.689,9.25 22,9.25 Q22.311,9.25 22.53,9.47 Q22.75,9.689 22.75,10 Z"/>
  <path fill="#292D32" d="M22,10.75 L18,10.75 Q13.25,10.75 13.25,6 L13.25,2 Q13.25,1.689 13.47,1.47 Q13.689,1.25 14,1.25 Q14.311,1.25 14.53,1.47 L22.53,9.47 Q22.75,9.689 22.75,10 Q22.75,10.311 22.53,10.53 Q22.311,10.75 22,10.75 Z M20.189,9.25 L14.75,3.811 L14.75,6 Q14.75,7.939 15.405,8.595 Q16.061,9.25 18,9.25 L20.189,9.25 Z"/>
  <path fill="#292D32" opacity="0.4" d="M5.906,15.959 Q5.017,13.185 7.517,12.367 Q8.614,12.021 9.393,12.537 Q10.163,12.001 11.299,12.366 Q13.79,13.173 12.926,15.952 Q11.985,18.96 9.41,18.96 Q6.859,18.908 5.906,15.961 Z M7.333,15.499 L7.334,15.501 Q7.958,17.43 9.41,17.46 Q10.883,17.46 11.494,15.507 Q11.917,14.143 10.84,13.794 Q10.292,13.618 10.039,14.008 Q9.961,14.129 9.844,14.212 Q9.59,14.391 9.284,14.339 Q8.978,14.287 8.798,14.034 Q8.509,13.627 7.983,13.793 Q6.901,14.147 7.333,15.499 Z"/>
</svg>

