<svg xmlns="http://www.w3.org/2000/svg" width="24" height="24" viewBox="0 0 24 24">
  <defs/>
  <path fill="#292D32" d="M15.8,2.21 C15.39,1.8 14.68,2.08 14.68,2.65 L14.68,6.14 C14.68,7.6 15.92,8.81 17.43,8.81 C18.38,8.82 19.7,8.82 20.83,8.82 C21.4,8.82 21.7,8.15 21.3,7.75 C19.86,6.3 17.28,3.69 15.8,2.21 Z"/>
  <path fill="#292D32" d="M14.761,19.262 C12.411,19.432 12.411,22.832 14.761,23.002 L20.32,23.002 C20.991,23.002 21.651,22.752 22.14,22.302 C23.791,20.862 22.91,17.982 20.741,17.712 C19.96,13.022 13.181,14.802 14.78,19.272"/>
  <path fill="#292D32" d="M21.5,11.19 L21.5,14.44 C21.5,14.74 21.06,14.88 20.84,14.67 C20.36,14.2 19.77,13.84 19.09,13.63 C17.41,13.11 15.46,13.62 14.25,14.9 C13.44,15.74 13.03,16.81 13.04,17.97 C13.04,18.16 12.95,18.33 12.8,18.44 C12,19.05 11.5,20.01 11.5,21.12 C11.5,21.2 11.5,21.28 11.51,21.36 C11.53,21.68 11.3,21.99 10.97,21.99 L8.07,21.99 C4.99,21.99 2.5,19.99 2.5,16.42 L2.5,7.57 C2.5,4 4.99,2 8.07,2 L12.31,2 C12.86,2 13.31,2.45 13.31,3 L13.31,5.89 C13.31,8.27 15.23,10.19 17.61,10.19 L20.5,10.19 C21.05,10.19 21.5,10.64 21.5,11.19 Z"/>
</svg>

