<svg xmlns="http://www.w3.org/2000/svg" width="24" height="24" viewBox="0 0 24 24">
  <defs/>
  <path fill="#292D32" d="M11,21.25 L16,21.25 Q20.25,21.25 20.25,17 L20.25,7 Q20.25,2.75 16,2.75 L8,2.75 Q3.75,2.75 3.75,7 L3.75,14 Q3.75,14.311 3.53,14.53 Q3.311,14.75 3,14.75 Q2.689,14.75 2.47,14.53 Q2.25,14.311 2.25,14 L2.25,7 Q2.25,1.25 8,1.25 L16,1.25 Q21.75,1.25 21.75,7 L21.75,17 Q21.75,22.75 16,22.75 L11,22.75 Q10.689,22.75 10.47,22.53 Q10.25,22.311 10.25,22 Q10.25,21.689 10.47,21.47 Q10.689,21.25 11,21.25 Z"/>
  <path fill="#292D32" d="M15.25,4.5 L15.25,6.5 Q15.25,7.75 16.5,7.75 L18.5,7.75 Q18.811,7.75 19.03,7.97 Q19.25,8.189 19.25,8.5 Q19.25,8.811 19.03,9.03 Q18.811,9.25 18.5,9.25 L16.5,9.25 Q13.75,9.25 13.75,6.5 L13.75,4.5 Q13.75,4.189 13.97,3.97 Q14.189,3.75 14.5,3.75 Q14.811,3.75 15.03,3.97 Q15.25,4.189 15.25,4.5 Z"/>
  <path fill="#292D32" d="M4.53,17.53 L3.061,19 L4.53,20.47 Q4.75,20.689 4.75,21 Q4.75,21.311 4.53,21.53 Q4.311,21.75 4,21.75 Q3.689,21.75 3.47,21.53 L1.47,19.53 Q1.25,19.311 1.25,19 Q1.25,18.689 1.47,18.47 L3.47,16.47 Q3.689,16.25 4,16.25 Q4.311,16.25 4.53,16.47 Q4.75,16.689 4.75,17 Q4.75,17.311 4.53,17.53 Z"/>
  <path fill="#292D32" d="M7.53,16.47 L9.53,18.47 Q9.75,18.689 9.75,19 Q9.75,19.311 9.53,19.53 L7.53,21.53 Q7.311,21.75 7,21.75 Q6.689,21.75 6.47,21.53 Q6.25,21.311 6.25,21 Q6.25,20.689 6.47,20.47 L7.939,19 L6.47,17.53 Q6.25,17.311 6.25,17 Q6.25,16.689 6.47,16.47 Q6.689,16.25 7,16.25 Q7.311,16.25 7.53,16.47 Z"/>
</svg>

