<svg xmlns="http://www.w3.org/2000/svg" width="24" height="24" viewBox="0 0 24 24">
  <defs/>
  <path fill="#292D32" d="M20.5,10.19 L17.61,10.19 C15.24,10.19 13.31,8.26 13.31,5.89 L13.31,3 C13.31,2.45 12.86,2 12.31,2 L8.07,2 C4.99,2 2.5,4 2.5,7.57 L2.5,16.43 C2.5,20 4.99,22 8.07,22 L15.93,22 C19.01,22 21.5,20 21.5,16.43 L21.5,11.19 C21.5,10.64 21.05,10.19 20.5,10.19 Z M11.53,13.53 C11.38,13.68 11.19,13.75 11,13.75 C10.81,13.75 10.62,13.68 10.47,13.53 L9.75,12.81 L9.75,17 C9.75,17.41 9.41,17.75 9,17.75 C8.59,17.75 8.25,17.41 8.25,17 L8.25,12.81 L7.53,13.53 C7.24,13.82 6.76,13.82 6.47,13.53 C6.18,13.24 6.18,12.76 6.47,12.47 L8.47,10.47 C8.54,10.41 8.61,10.36 8.69,10.32 C8.71,10.31 8.74,10.3 8.76,10.29 C8.82,10.27 8.88,10.26 8.95,10.25 C8.98,10.25 9,10.25 9.03,10.25 C9.11,10.25 9.19,10.27 9.27,10.3 C9.28,10.3 9.28,10.3 9.29,10.3 C9.37,10.33 9.45,10.39 9.51,10.45 C9.52,10.46 9.53,10.46 9.53,10.47 L11.53,12.47 C11.82,12.76 11.82,13.24 11.53,13.53 Z"/>
  <path fill="#292D32" d="M17.43,8.81 C18.38,8.82 19.7,8.82 20.83,8.82 C21.4,8.82 21.7,8.15 21.3,7.75 C19.86,6.3 17.28,3.69 15.8,2.21 C15.39,1.8 14.68,2.08 14.68,2.65 L14.68,6.14 C14.68,7.6 15.92,8.81 17.43,8.81 Z"/>
</svg>

