<svg xmlns="http://www.w3.org/2000/svg" width="24" height="24" viewBox="0 0 24 24">
  <defs/>
  <path fill="#292D32" opacity="0.4" d="M10.47,16.47 L11.189,15.75 L7,15.75 Q6.689,15.75 6.47,15.53 Q6.25,15.311 6.25,15 Q6.25,14.689 6.47,14.47 Q6.689,14.25 7,14.25 L11.189,14.25 L10.47,13.53 Q10.25,13.311 10.25,13 Q10.25,12.689 10.47,12.47 Q10.689,12.25 11,12.25 Q11.311,12.25 11.53,12.47 L13.53,14.47 Q13.75,14.689 13.75,15 Q13.75,15.311 13.53,15.53 L11.53,17.53 Q11.311,17.75 11,17.75 Q10.689,17.75 10.47,17.53 Q10.25,17.311 10.25,17 Q10.25,16.689 10.47,16.47 Z"/>
  <path fill="#292D32" d="M22.75,10 L22.75,15 Q22.75,22.75 15,22.75 L9,22.75 Q1.25,22.75 1.25,15 L1.25,9 Q1.25,1.25 9,1.25 L14,1.25 Q14.311,1.25 14.53,1.47 Q14.75,1.689 14.75,2 Q14.75,2.311 14.53,2.53 Q14.311,2.75 14,2.75 L9,2.75 Q2.75,2.75 2.75,9 L2.75,15 Q2.75,21.25 9,21.25 L15,21.25 Q18.439,21.25 19.845,19.845 Q21.25,18.439 21.25,15 L21.25,10 Q21.25,9.689 21.47,9.47 Q21.689,9.25 22,9.25 Q22.311,9.25 22.53,9.47 Q22.75,9.689 22.75,10 Z"/>
  <path fill="#292D32" d="M22,10.75 L18,10.75 Q13.25,10.75 13.25,6 L13.25,2 Q13.25,1.689 13.47,1.47 Q13.689,1.25 14,1.25 Q14.311,1.25 14.53,1.47 L22.53,9.47 Q22.75,9.689 22.75,10 Q22.75,10.311 22.53,10.53 Q22.311,10.75 22,10.75 Z M20.189,9.25 L14.75,3.811 L14.75,6 Q14.75,7.939 15.405,8.595 Q16.061,9.25 18,9.25 L20.189,9.25 Z"/>
</svg>

