<svg xmlns="http://www.w3.org/2000/svg" width="24" height="24" viewBox="0 0 24 24">
  <defs/>
  <path fill="#292D32" d="M3.23,1 L11.36,1 C12.04,1 12.59,1.56 12.59,2.25 L12.59,3.62 C12.59,4.12 12.28,4.74 11.97,5.05 L9.33,7.43 C8.96,7.74 8.72,8.36 8.72,8.86 L8.72,11.54 C8.72,11.91 8.47,12.41 8.17,12.6 L7.3,13.17 C6.5,13.67 5.39,13.11 5.39,12.11 L5.39,8.8 C5.39,8.36 5.14,7.8 4.9,7.49 L2.56,4.99 C2.25,4.68 2,4.12 2,3.75 L2,2.31 C2,1.56 2.55,1 3.23,1 Z"/>
  <path fill="#292D32" d="M17,2 L14.6,2 C14.32,2 14.1,2.22 14.1,2.5 C14.1,2.98 14.1,3.62 14.1,3.62 C14.1,4.61 13.57,5.58 13.05,6.11 L10.33,8.54 C10.3,8.61 10.25,8.71 10.22,8.79 L10.22,11.54 C10.22,12.45 9.68,13.44 8.94,13.89 L8.12,14.42 C7.66,14.71 7.15,14.85 6.64,14.85 C6.18,14.85 5.72,14.73 5.3,14.5 C4.783,14.213 4.392,13.781 4.153,13.274 C4.031,13.014 4,12.725 4,12.438 L4,10.21 C4,10.08 3.95,9.95 3.85,9.86 L2.85,8.86 C2.54,8.54 2,8.76 2,9.21 L2,17 C2,19.76 4.24,22 7,22 L17,22 C19.76,22 22,19.76 22,17 L22,7 C22,4.24 19.76,2 17,2 Z M18,17.75 L11,17.75 C10.59,17.75 10.25,17.41 10.25,17 C10.25,16.59 10.59,16.25 11,16.25 L18,16.25 C18.41,16.25 18.75,16.59 18.75,17 C18.75,17.41 18.41,17.75 18,17.75 Z M18,13.75 L13,13.75 C12.59,13.75 12.25,13.41 12.25,13 C12.25,12.59 12.59,12.25 13,12.25 L18,12.25 C18.41,12.25 18.75,12.59 18.75,13 C18.75,13.41 18.41,13.75 18,13.75 Z"/>
</svg>

