<svg xmlns="http://www.w3.org/2000/svg" width="24" height="24" viewBox="0 0 24 24">
  <defs/>
  <path fill="#292D32" d="M21.75,7 L21.75,17 Q21.75,22.75 16,22.75 L8,22.75 Q2.25,22.75 2.25,17 L2.25,7 Q2.25,1.25 8,1.25 L16,1.25 Q21.75,1.25 21.75,7 Z M20.25,7 Q20.25,2.75 16,2.75 L8,2.75 Q3.75,2.75 3.75,7 L3.75,17 Q3.75,21.25 8,21.25 L16,21.25 Q20.25,21.25 20.25,17 Z"/>
  <path fill="#292D32" d="M15.25,4.5 L15.25,6.5 Q15.25,7.75 16.5,7.75 L18.5,7.75 Q18.811,7.75 19.03,7.97 Q19.25,8.189 19.25,8.5 Q19.25,8.811 19.03,9.03 Q18.811,9.25 18.5,9.25 L16.5,9.25 Q13.75,9.25 13.75,6.5 L13.75,4.5 Q13.75,4.189 13.97,3.97 Q14.189,3.75 14.5,3.75 Q14.811,3.75 15.03,3.97 Q15.25,4.189 15.25,4.5 Z"/>
  <path fill="#292D32" d="M6.766,15.719 Q5.877,12.945 8.377,12.127 Q9.474,11.781 10.253,12.298 Q11.023,11.761 12.16,12.126 Q14.65,12.933 13.786,15.713 Q12.845,18.72 10.27,18.72 Q7.719,18.668 6.766,15.721 Z M8.194,15.259 L8.194,15.261 Q8.818,17.19 10.27,17.22 Q11.743,17.22 12.354,15.268 Q12.778,13.903 11.7,13.554 Q11.153,13.378 10.899,13.768 Q10.821,13.889 10.704,13.972 Q10.45,14.152 10.144,14.099 Q9.838,14.047 9.658,13.794 Q9.369,13.387 8.843,13.553 Q7.761,13.907 8.194,15.259 Z"/>
</svg>

