<svg xmlns="http://www.w3.org/2000/svg" width="24" height="24" viewBox="0 0 24 24">
  <defs/>
  <path fill="#292D32" opacity="0.4" d="M20.5,10.19 L17.61,10.19 C15.24,10.19 13.31,8.26 13.31,5.89 L13.31,3 C13.31,2.45 12.86,2 12.31,2 L8.07,2 C4.99,2 2.5,4 2.5,7.57 L2.5,16.43 C2.5,20 4.99,22 8.07,22 L15.93,22 C19.01,22 21.5,20 21.5,16.43 L21.5,11.19 C21.5,10.64 21.05,10.19 20.5,10.19 Z"/>
  <path fill="#292D32" d="M15.8,2.21 C15.39,1.8 14.68,2.08 14.68,2.65 L14.68,6.14 C14.68,7.6 15.92,8.81 17.43,8.81 C18.38,8.82 19.7,8.82 20.83,8.82 C21.4,8.82 21.7,8.15 21.3,7.75 C19.86,6.3 17.28,3.69 15.8,2.21 Z"/>
  <path fill="#292D32" d="M12.28,14.72 C11.989,14.43 11.509,14.43 11.22,14.72 L10.499,15.44 L10.499,11.25 C10.499,10.84 10.159,10.5 9.749,10.5 C9.339,10.5 8.999,10.84 8.999,11.25 L8.999,15.44 L8.279,14.72 C7.989,14.43 7.509,14.43 7.219,14.72 C6.929,15.01 6.929,15.49 7.219,15.78 L9.219,17.78 C9.229,17.79 9.239,17.79 9.239,17.8 C9.299,17.86 9.379,17.91 9.459,17.95 C9.559,17.98 9.649,18 9.749,18 C9.849,18 9.939,17.98 10.03,17.94 C10.12,17.9 10.2,17.85 10.28,17.78 L12.28,15.78 C12.569,15.49 12.569,15.01 12.28,14.72 Z"/>
</svg>

