<svg xmlns="http://www.w3.org/2000/svg" width="24" height="24" viewBox="0 0 24 24">
  <defs/>
  <path fill="#292D32" d="M21.75,7 L21.75,17 Q21.75,22.75 16,22.75 L8,22.75 Q2.25,22.75 2.25,17 L2.25,7 Q2.25,1.25 8,1.25 L16,1.25 Q21.75,1.25 21.75,7 Z M20.25,7 Q20.25,2.75 16,2.75 L8,2.75 Q3.75,2.75 3.75,7 L3.75,17 Q3.75,21.25 8,21.25 L16,21.25 Q20.25,21.25 20.25,17 Z"/>
  <path fill="#292D32" opacity="0.4" d="M15.25,4.5 L15.25,6.5 Q15.25,7.75 16.5,7.75 L18.5,7.75 Q18.811,7.75 19.03,7.97 Q19.25,8.189 19.25,8.5 Q19.25,8.811 19.03,9.03 Q18.811,9.25 18.5,9.25 L16.5,9.25 Q13.75,9.25 13.75,6.5 L13.75,4.5 Q13.75,4.189 13.97,3.97 Q14.189,3.75 14.5,3.75 Q14.811,3.75 15.03,3.97 Q15.25,4.189 15.25,4.5 Z"/>
  <path fill="#292D32" opacity="0.4" d="M10.53,13.53 L9.061,15 L10.53,16.47 Q10.75,16.689 10.75,17 Q10.75,17.311 10.53,17.53 Q10.311,17.75 10,17.75 Q9.689,17.75 9.47,17.53 L7.47,15.53 Q7.25,15.311 7.25,15 Q7.25,14.689 7.47,14.47 L9.47,12.47 Q9.689,12.25 10,12.25 Q10.311,12.25 10.53,12.47 Q10.75,12.689 10.75,13 Q10.75,13.311 10.53,13.53 Z"/>
  <path fill="#292D32" opacity="0.4" d="M14.53,12.47 L16.53,14.47 Q16.75,14.689 16.75,15 Q16.75,15.311 16.53,15.53 L14.53,17.53 Q14.311,17.75 14,17.75 Q13.689,17.75 13.47,17.53 Q13.25,17.311 13.25,17 Q13.25,16.689 13.47,16.47 L14.939,15 L13.47,13.53 Q13.25,13.311 13.25,13 Q13.25,12.689 13.47,12.47 Q13.689,12.25 14,12.25 Q14.311,12.25 14.53,12.47 Z"/>
</svg>

