<svg xmlns="http://www.w3.org/2000/svg" width="24" height="24" viewBox="0 0 24 24">
  <defs/>
  <path fill="#292D32" d="M15,22.75 L9,22.75 C3.57,22.75 1.25,20.43 1.25,15 L1.25,9 C1.25,3.57 3.57,1.25 9,1.25 L14,1.25 C14.41,1.25 14.75,1.59 14.75,2 C14.75,2.41 14.41,2.75 14,2.75 L9,2.75 C4.39,2.75 2.75,4.39 2.75,9 L2.75,15 C2.75,19.61 4.39,21.25 9,21.25 L15,21.25 C19.61,21.25 21.25,19.61 21.25,15 L21.25,10 C21.25,9.59 21.59,9.25 22,9.25 C22.41,9.25 22.75,9.59 22.75,10 L22.75,15 C22.75,20.43 20.43,22.75 15,22.75 Z"/>
  <path fill="#292D32" d="M22,10.75 L18,10.75 C14.58,10.75 13.25,9.42 13.25,6 L13.25,2 C13.25,1.7 13.43,1.42 13.71,1.31 C13.99,1.19 14.31,1.26 14.53,1.47 L22.53,9.47 C22.74,9.68 22.81,10.01 22.69,10.29 C22.57,10.57 22.3,10.75 22,10.75 Z M14.75,3.81 L14.75,6 C14.75,8.58 15.42,9.25 18,9.25 L20.19,9.25 L14.75,3.81 Z"/>
  <path fill="#292D32" d="M9.419,18.95 C8.549,18.95 6.529,17.89 5.909,15.95 C5.479,14.61 5.979,12.86 7.529,12.36 C8.179,12.15 8.869,12.24 9.419,12.58 C9.959,12.24 10.659,12.15 11.319,12.36 C12.869,12.86 13.369,14.61 12.939,15.95 C12.309,17.93 10.189,18.95 9.419,18.95 Z M7.329,15.5 C7.749,16.81 9.169,17.43 9.429,17.45 C9.709,17.42 11.109,16.73 11.499,15.5 C11.709,14.84 11.499,14 10.849,13.79 C10.579,13.7 10.209,13.75 10.039,14.01 C9.899,14.22 9.679,14.34 9.429,14.35 C9.159,14.35 8.949,14.24 8.809,14.04 C8.599,13.75 8.239,13.71 7.979,13.8 C7.339,14 7.119,14.84 7.329,15.5 Z"/>
</svg>

