<svg xmlns="http://www.w3.org/2000/svg" width="24" height="24" viewBox="0 0 24 24">
  <defs/>
  <path fill="#292D32" d="M11,17.75 C10.81,17.75 10.62,17.68 10.47,17.53 C10.18,17.24 10.18,16.76 10.47,16.47 L11.19,15.75 L7,15.75 C6.59,15.75 6.25,15.41 6.25,15 C6.25,14.59 6.59,14.25 7,14.25 L11.19,14.25 L10.47,13.53 C10.32,13.38 10.25,13.19 10.25,13 C10.25,12.81 10.32,12.62 10.47,12.47 C10.76,12.18 11.24,12.18 11.53,12.47 L13.53,14.47 C13.66,14.6 13.73,14.77 13.74,14.93 C13.74,14.98 13.74,15.04 13.74,15.09 C13.72,15.23 13.66,15.36 13.56,15.48 C13.55,15.49 13.53,15.51 13.52,15.52 L11.52,17.52 C11.38,17.68 11.19,17.75 11,17.75 Z"/>
  <path fill="#292D32" d="M15,22.75 L9,22.75 C3.57,22.75 1.25,20.43 1.25,15 L1.25,9 C1.25,3.57 3.57,1.25 9,1.25 L14,1.25 C14.41,1.25 14.75,1.59 14.75,2 C14.75,2.41 14.41,2.75 14,2.75 L9,2.75 C4.39,2.75 2.75,4.39 2.75,9 L2.75,15 C2.75,19.61 4.39,21.25 9,21.25 L15,21.25 C19.61,21.25 21.25,19.61 21.25,15 L21.25,10 C21.25,9.59 21.59,9.25 22,9.25 C22.41,9.25 22.75,9.59 22.75,10 L22.75,15 C22.75,20.43 20.43,22.75 15,22.75 Z"/>
  <path fill="#292D32" d="M22,10.75 L18,10.75 C14.58,10.75 13.25,9.42 13.25,6 L13.25,2 C13.25,1.7 13.43,1.42 13.71,1.31 C13.99,1.19 14.31,1.26 14.53,1.47 L22.53,9.47 C22.74,9.68 22.81,10.01 22.69,10.29 C22.57,10.57 22.3,10.75 22,10.75 Z M14.75,3.81 L14.75,6 C14.75,8.58 15.42,9.25 18,9.25 L20.19,9.25 L14.75,3.81 Z"/>
</svg>

