<svg xmlns="http://www.w3.org/2000/svg" width="22" height="22" viewBox="0 0 22 22">
  <defs/>
  <path fill="#292D32" opacity="0.4" d="M16.75,12.4 L16.75,15.4 Q16.75,18.711 15.23,20.23 Q13.711,21.75 10.4,21.75 L6.6,21.75 Q0.25,21.75 0.25,15.4 L0.25,11.6 Q0.25,5.25 6.6,5.25 L9.6,5.25 Q9.911,5.25 10.13,5.47 Q10.35,5.689 10.35,6 Q10.35,6.311 10.13,6.53 Q9.911,6.75 9.6,6.75 L6.6,6.75 Q1.75,6.75 1.75,11.6 L1.75,15.4 Q1.75,18.089 2.83,19.17 Q3.911,20.25 6.6,20.25 L10.4,20.25 Q15.25,20.25 15.25,15.4 L15.25,12.4 Q15.25,12.089 15.47,11.87 Q15.689,11.65 16,11.65 Q16.311,11.65 16.53,11.87 Q16.75,12.089 16.75,12.4 Z"/>
  <path fill="#292D32" d="M16,13.15 L12.8,13.15 Q8.85,13.15 8.85,9.2 L8.85,6 Q8.85,5.689 9.069,5.47 Q9.289,5.25 9.6,5.25 Q9.91,5.25 10.13,5.47 L16.53,11.87 Q16.75,12.089 16.75,12.4 Q16.75,12.711 16.53,12.93 Q16.31,13.15 16,13.15 Z M14.189,11.65 L10.35,7.811 L10.35,9.2 Q10.35,11.65 12.8,11.65 L14.189,11.65 Z"/>
  <path fill="#292D32" opacity="0.4" d="M5.25,4 Q5.25,0.25 9,0.25 L15,0.25 Q15.311,0.25 15.53,0.47 Q15.75,0.689 15.75,1 Q15.75,1.311 15.53,1.53 Q15.311,1.75 15,1.75 L9,1.75 Q6.75,1.75 6.75,4 Q6.75,4.311 6.53,4.53 Q6.311,4.75 6,4.75 Q5.689,4.75 5.47,4.53 Q5.25,4.311 5.25,4 Z"/>
  <path fill="#292D32" opacity="0.4" d="M21.75,7 L21.75,13.19 Q21.749,16.75 18.19,16.75 Q17.879,16.75 17.659,16.53 Q17.439,16.311 17.439,16 Q17.439,15.689 17.659,15.47 Q17.879,15.25 18.19,15.25 Q19.041,15.25 19.645,14.646 Q20.25,14.042 20.25,13.19 L20.25,7 Q20.249,6.689 20.469,6.47 Q20.689,6.25 21,6.25 Q21.31,6.25 21.53,6.47 Q21.749,6.689 21.75,7 Z"/>
  <path fill="#292D32" d="M21,7.75 L18,7.75 Q14.25,7.75 14.25,4 L14.25,1 Q14.25,0.689 14.47,0.47 Q14.689,0.25 15,0.25 Q15.311,0.25 15.53,0.47 L21.53,6.47 Q21.75,6.689 21.75,7 Q21.75,7.311 21.53,7.53 Q21.311,7.75 21,7.75 Z M19.189,6.25 L15.75,2.811 L15.75,4 Q15.75,6.25 18,6.25 L19.189,6.25 Z"/>
</svg>

