<svg xmlns="http://www.w3.org/2000/svg" width="24" height="24" viewBox="0 0 24 24">
  <defs/>
  <path fill="#292D32" d="M15.8,2.21 C15.39,1.8 14.68,2.08 14.68,2.65 L14.68,6.14 C14.68,7.6 15.92,8.81 17.43,8.81 C18.38,8.82 19.7,8.82 20.83,8.82 C21.4,8.82 21.7,8.15 21.3,7.75 C19.86,6.3 17.28,3.69 15.8,2.21 Z"/>
  <path fill="#292D32" d="M20.5,10.19 L17.61,10.19 C15.24,10.19 13.31,8.26 13.31,5.89 L13.31,3 C13.31,2.45 12.86,2 12.31,2 L8.07,2 C4.99,2 2.5,4 2.5,7.57 L2.5,16.43 C2.5,20 4.99,22 8.07,22 L15.93,22 C19.01,22 21.5,20 21.5,16.43 L21.5,11.19 C21.5,10.64 21.05,10.19 20.5,10.19 Z M13,15.75 L8.81,15.75 L9.53,16.47 C9.82,16.76 9.82,17.24 9.53,17.53 C9.38,17.68 9.19,17.75 9,17.75 C8.81,17.75 8.62,17.68 8.47,17.53 L6.47,15.53 C6.4,15.46 6.36,15.39 6.32,15.31 C6.31,15.29 6.3,15.26 6.29,15.24 C6.27,15.18 6.26,15.12 6.25,15.06 C6.25,15.03 6.25,15.01 6.25,14.98 C6.25,14.9 6.27,14.82 6.3,14.74 C6.3,14.73 6.3,14.73 6.31,14.72 C6.34,14.64 6.4,14.56 6.46,14.5 C6.47,14.49 6.47,14.48 6.48,14.48 L8.48,12.48 C8.77,12.19 9.25,12.19 9.54,12.48 C9.83,12.77 9.83,13.25 9.54,13.54 L8.82,14.26 L13,14.26 C13.41,14.26 13.75,14.6 13.75,15.01 C13.75,15.42 13.41,15.75 13,15.75 Z"/>
</svg>

