<svg xmlns="http://www.w3.org/2000/svg" width="24" height="24" viewBox="0 0 24 24">
  <defs/>
  <path fill="#292D32" d="M9,22.75 C3.57,22.75 1.25,20.43 1.25,15 L1.25,9 C1.25,3.57 3.57,1.25 9,1.25 L14,1.25 C14.41,1.25 14.75,1.59 14.75,2 C14.75,2.41 14.41,2.75 14,2.75 L9,2.75 C4.39,2.75 2.75,4.39 2.75,9 L2.75,15 C2.75,19.61 4.39,21.25 9,21.25 C9.41,21.25 9.75,21.59 9.75,22 C9.75,22.41 9.41,22.75 9,22.75 Z"/>
  <path fill="#292D32" d="M22,13.75 C21.59,13.75 21.25,13.41 21.25,13 L21.25,10 C21.25,9.59 21.59,9.25 22,9.25 C22.41,9.25 22.75,9.59 22.75,10 L22.75,13 C22.75,13.41 22.41,13.75 22,13.75 Z"/>
  <path fill="#292D32" d="M22,10.75 L18,10.75 C14.58,10.75 13.25,9.42 13.25,6 L13.25,2 C13.25,1.7 13.43,1.42 13.71,1.31 C13.99,1.19 14.31,1.26 14.53,1.47 L22.53,9.47 C22.74,9.68 22.81,10.01 22.69,10.29 C22.57,10.57 22.3,10.75 22,10.75 Z M14.75,3.81 L14.75,6 C14.75,8.58 15.42,9.25 18,9.25 L20.19,9.25 L14.75,3.81 Z"/>
  <path fill="#292D32" d="M19.34,22.75 C19.33,22.75 19.32,22.75 19.32,22.75 L13.76,22.75 C12.09,22.63 11.25,21.35 11.25,20.13 C11.25,19.15 11.8,18.12 12.86,17.7 C12.64,16.45 12.96,15.29 13.79,14.42 C14.81,13.35 16.45,12.92 17.87,13.36 C19.11,13.74 20,14.72 20.37,16.08 C21.42,16.4 22.25,17.23 22.59,18.36 C22.99,19.67 22.62,21.01 21.63,21.87 C21.02,22.43 20.2,22.75 19.34,22.75 Z M13.79,19.01 C13.03,19.08 12.75,19.65 12.75,20.13 C12.75,20.61 13.03,21.19 13.81,21.25 L19.32,21.25 C19.83,21.22 20.28,21.07 20.64,20.75 C21.29,20.18 21.34,19.37 21.16,18.79 C20.98,18.21 20.49,17.56 19.65,17.45 C19.32,17.41 19.06,17.16 19,16.83 C18.78,15.48 18.02,14.98 17.43,14.8 C16.56,14.53 15.51,14.8 14.88,15.47 C14.45,15.92 14.03,16.73 14.5,18.02 C14.64,18.41 14.44,18.84 14.05,18.98 C13.96,19 13.87,19.01 13.79,19.01 Z"/>
</svg>

