<svg xmlns="http://www.w3.org/2000/svg" width="24" height="24" viewBox="0 0 24 24">
  <defs/>
  <path fill="#292D32" d="M9.42,18.95 Q6.87,18.95 5.906,15.949 Q5.017,13.175 7.517,12.357 Q8.614,12.011 9.393,12.528 Q10.163,11.991 11.299,12.356 Q13.79,13.163 12.926,15.943 Q12.834,16.239 12.559,16.384 Q12.284,16.528 11.987,16.436 Q11.691,16.344 11.546,16.069 Q11.401,15.794 11.494,15.498 Q11.917,14.133 10.84,13.784 Q10.292,13.608 10.039,13.998 Q9.961,14.119 9.844,14.202 Q9.59,14.382 9.284,14.329 Q8.978,14.277 8.798,14.024 Q8.509,13.617 7.983,13.783 Q6.9,14.137 7.334,15.491 Q7.963,17.45 9.42,17.45 Q9.73,17.45 9.95,17.67 Q10.17,17.889 10.17,18.2 Q10.17,18.511 9.95,18.73 Q9.73,18.95 9.42,18.95 Z"/>
  <path fill="#292D32" d="M1.25,9 Q1.25,1.25 9,1.25 L14,1.25 Q14.311,1.25 14.53,1.47 Q14.75,1.689 14.75,2 Q14.75,2.311 14.53,2.53 Q14.311,2.75 14,2.75 L9,2.75 Q2.75,2.75 2.75,9 Q2.75,9.311 2.53,9.53 Q2.311,9.75 2,9.75 Q1.689,9.75 1.47,9.53 Q1.25,9.311 1.25,9 Z"/>
  <path fill="#292D32" d="M22.75,10 L22.75,15 Q22.75,22.75 15,22.75 L9,22.75 Q1.25,22.75 1.25,15 L1.25,12.98 Q1.25,12.669 1.47,12.45 Q1.689,12.23 2,12.23 Q2.311,12.23 2.53,12.45 Q2.75,12.669 2.75,12.98 L2.75,15 Q2.75,21.25 9,21.25 L15,21.25 Q18.439,21.25 19.845,19.845 Q21.25,18.439 21.25,15 L21.25,10 Q21.25,9.689 21.47,9.47 Q21.689,9.25 22,9.25 Q22.311,9.25 22.53,9.47 Q22.75,9.689 22.75,10 Z"/>
  <path fill="#292D32" d="M18,10.75 Q13.25,10.75 13.25,6 L13.25,2 Q13.25,1.689 13.47,1.47 Q13.689,1.25 14,1.25 Q14.311,1.25 14.53,1.47 L22.53,9.47 Q22.75,9.689 22.75,10 Q22.75,10.311 22.53,10.53 Q22.311,10.75 22,10.75 Q21.689,10.75 21.47,10.53 L14.75,3.811 L14.75,6 Q14.75,7.939 15.405,8.595 Q16.061,9.25 18,9.25 Q18.311,9.25 18.53,9.47 Q18.75,9.689 18.75,10 Q18.75,10.311 18.53,10.53 Q18.311,10.75 18,10.75 Z"/>
</svg>

