<svg xmlns="http://www.w3.org/2000/svg" width="24" height="24" viewBox="0 0 24 24">
  <defs/>
  <path fill="#292D32" d="M15,22.75 L9,22.75 C3.57,22.75 1.25,20.43 1.25,15 L1.25,9 C1.25,3.57 3.57,1.25 9,1.25 L14,1.25 C14.41,1.25 14.75,1.59 14.75,2 C14.75,2.41 14.41,2.75 14,2.75 L9,2.75 C4.39,2.75 2.75,4.39 2.75,9 L2.75,15 C2.75,19.61 4.39,21.25 9,21.25 L15,21.25 C19.61,21.25 21.25,19.61 21.25,15 L21.25,10 C21.25,9.59 21.59,9.25 22,9.25 C22.41,9.25 22.75,9.59 22.75,10 L22.75,15 C22.75,20.43 20.43,22.75 15,22.75 Z"/>
  <path fill="#292D32" d="M22,10.75 L18,10.75 C14.58,10.75 13.25,9.42 13.25,6 L13.25,2 C13.25,1.7 13.43,1.42 13.71,1.31 C13.99,1.19 14.31,1.26 14.53,1.47 L22.53,9.47 C22.74,9.68 22.81,10.01 22.69,10.29 C22.58,10.57 22.3,10.75 22,10.75 Z M14.75,3.81 L14.75,6 C14.75,8.58 15.42,9.25 18,9.25 L20.19,9.25 L14.75,3.81 Z"/>
  <path fill="#292D32" d="M9.651,18.71 C9.211,18.71 8.791,18.54 8.481,18.23 L6.021,15.77 C5.481,15.23 5.391,14.32 5.811,13.68 L6.941,11.98 C7.221,11.55 7.801,11.24 8.321,11.24 L10.971,11.24 C11.481,11.24 12.061,11.55 12.351,11.98 L13.481,13.67 C13.901,14.3 13.811,15.22 13.271,15.76 L10.811,18.22 C10.511,18.54 10.091,18.71 9.651,18.71 Z M8.331,12.75 C8.291,12.76 8.211,12.8 8.191,12.83 L7.071,14.52 C7.041,14.56 7.051,14.68 7.091,14.72 L9.551,17.18 C9.601,17.23 9.721,17.23 9.771,17.18 L12.231,14.72 C12.271,14.68 12.281,14.57 12.251,14.52 L11.121,12.83 C11.101,12.81 11.021,12.77 10.981,12.76 L8.331,12.75 Z"/>
</svg>

