<svg xmlns="http://www.w3.org/2000/svg" width="24" height="24" viewBox="0 0 24 24">
  <defs/>
  <path fill="#292D32" d="M1.25,12.6 Q1.25,6.25 7.6,6.25 L10.6,6.25 Q10.911,6.25 11.13,6.47 Q11.35,6.689 11.35,7 Q11.35,7.311 11.13,7.53 Q10.911,7.75 10.6,7.75 L7.6,7.75 Q2.75,7.75 2.75,12.6 Q2.75,12.911 2.53,13.13 Q2.311,13.35 2,13.35 Q1.689,13.35 1.47,13.13 Q1.25,12.911 1.25,12.6 Z"/>
  <path fill="#292D32" d="M17.75,13.4 L17.75,16.4 Q17.75,22.75 11.4,22.75 L7.6,22.75 Q1.25,22.75 1.25,16.4 Q1.25,16.089 1.47,15.87 Q1.689,15.65 2,15.65 Q2.311,15.65 2.53,15.87 Q2.75,16.089 2.75,16.4 Q2.75,21.25 7.6,21.25 L11.4,21.25 Q16.25,21.25 16.25,16.4 L16.25,13.4 Q16.25,13.089 16.47,12.87 Q16.689,12.65 17,12.65 Q17.311,12.65 17.53,12.87 Q17.75,13.089 17.75,13.4 Z"/>
  <path fill="#292D32" d="M13.8,14.15 Q11.689,14.15 10.769,13.23 Q9.85,12.311 9.85,10.2 L9.85,7 Q9.85,6.689 10.069,6.47 Q10.289,6.25 10.6,6.25 Q10.91,6.25 11.13,6.47 L17.53,12.87 Q17.75,13.089 17.75,13.4 Q17.75,13.711 17.53,13.93 Q17.31,14.15 17,14.15 Q16.689,14.15 16.469,13.93 L11.35,8.811 L11.35,10.2 Q11.35,11.689 11.83,12.17 Q12.31,12.65 13.8,12.65 Q14.11,12.65 14.33,12.87 Q14.55,13.089 14.55,13.4 Q14.55,13.711 14.33,13.93 Q14.11,14.15 13.8,14.15 Z"/>
  <path fill="#292D32" d="M11.6,1.25 L15.6,1.25 Q15.91,1.25 16.13,1.47 Q16.35,1.689 16.35,2 Q16.35,2.311 16.13,2.53 Q15.91,2.75 15.6,2.75 L11.6,2.75 Q11.289,2.75 11.069,2.53 Q10.85,2.311 10.85,2 Q10.85,1.689 11.069,1.47 Q11.289,1.25 11.6,1.25 Z"/>
  <path fill="#292D32" d="M6.25,5 Q6.25,1.25 10,1.25 L12.62,1.25 Q12.931,1.25 13.15,1.47 Q13.37,1.689 13.37,2 Q13.37,2.311 13.15,2.53 Q12.931,2.75 12.62,2.75 L10,2.75 Q9.066,2.75 8.408,3.408 Q7.75,4.066 7.75,5 Q7.75,5.311 7.53,5.53 Q7.311,5.75 7,5.75 Q6.689,5.75 6.47,5.53 Q6.25,5.311 6.25,5 Z"/>
  <path fill="#292D32" d="M22.75,8 L22.75,14.19 Q22.75,15.663 21.706,16.707 Q20.663,17.75 19.19,17.75 Q18.879,17.75 18.659,17.53 Q18.439,17.311 18.439,17 Q18.439,16.689 18.659,16.47 Q18.879,16.25 19.19,16.25 Q21.25,16.25 21.25,14.19 L21.25,8 Q21.249,7.689 21.469,7.47 Q21.689,7.25 21.999,7.25 Q22.31,7.25 22.53,7.47 Q22.749,7.689 22.75,8 Z"/>
  <path fill="#292D32" d="M22,8.75 L19,8.75 Q15.25,8.75 15.25,5 L15.25,2 Q15.25,1.689 15.47,1.47 Q15.689,1.25 16,1.25 Q16.311,1.25 16.53,1.47 L22.53,7.47 Q22.75,7.689 22.75,8 Q22.75,8.311 22.53,8.53 Q22.311,8.75 22,8.75 Z M20.189,7.25 L16.75,3.811 L16.75,5 Q16.75,7.25 19,7.25 L20.189,7.25 Z"/>
</svg>

