<svg xmlns="http://www.w3.org/2000/svg" width="24" height="24" viewBox="0 0 24 24">
  <defs/>
  <path fill="#292D32" opacity="0.4" d="M21,7 L21,17 C21,20 19.5,22 16,22 L8,22 C4.5,22 3,20 3,17 L3,7 C3,4 4.5,2 8,2 L16,2 C19.5,2 21,4 21,7 Z"/>
  <path fill="#292D32" d="M18.5,9.25 L16.5,9.25 C14.98,9.25 13.75,8.02 13.75,6.5 L13.75,4.5 C13.75,4.09 14.09,3.75 14.5,3.75 C14.91,3.75 15.25,4.09 15.25,4.5 L15.25,6.5 C15.25,7.19 15.81,7.75 16.5,7.75 L18.5,7.75 C18.91,7.75 19.25,8.09 19.25,8.5 C19.25,8.91 18.91,9.25 18.5,9.25 Z"/>
  <path fill="#292D32" d="M9.999,17.75 C9.809,17.75 9.619,17.68 9.469,17.53 L7.469,15.53 C7.179,15.24 7.179,14.76 7.469,14.47 L9.469,12.47 C9.759,12.18 10.239,12.18 10.53,12.47 C10.819,12.76 10.819,13.24 10.53,13.53 L9.059,15 L10.53,16.47 C10.819,16.76 10.819,17.24 10.53,17.53 C10.38,17.68 10.19,17.75 9.999,17.75 Z"/>
  <path fill="#292D32" d="M13.999,17.75 C13.809,17.75 13.62,17.68 13.47,17.53 C13.18,17.24 13.18,16.76 13.47,16.47 L14.94,15 L13.47,13.53 C13.18,13.24 13.18,12.76 13.47,12.47 C13.759,12.18 14.239,12.18 14.53,12.47 L16.529,14.47 C16.82,14.76 16.82,15.24 16.529,15.53 L14.53,17.53 C14.38,17.68 14.19,17.75 13.999,17.75 Z"/>
</svg>

