<svg xmlns="http://www.w3.org/2000/svg" width="24" height="24" viewBox="0 0 24 24">
  <defs/>
  <path fill="#292D32" d="M16,22.75 L11,22.75 C10.59,22.75 10.25,22.41 10.25,22 C10.25,21.59 10.59,21.25 11,21.25 L16,21.25 C18.86,21.25 20.25,19.86 20.25,17 L20.25,7 C20.25,4.14 18.86,2.75 16,2.75 L8,2.75 C5.14,2.75 3.75,4.14 3.75,7 L3.75,14 C3.75,14.41 3.41,14.75 3,14.75 C2.59,14.75 2.25,14.41 2.25,14 L2.25,7 C2.25,3.35 4.35,1.25 8,1.25 L16,1.25 C19.65,1.25 21.75,3.35 21.75,7 L21.75,17 C21.75,20.65 19.65,22.75 16,22.75 Z"/>
  <path fill="#292D32" d="M18.5,9.25 L16.5,9.25 C14.98,9.25 13.75,8.02 13.75,6.5 L13.75,4.5 C13.75,4.09 14.09,3.75 14.5,3.75 C14.91,3.75 15.25,4.09 15.25,4.5 L15.25,6.5 C15.25,7.19 15.81,7.75 16.5,7.75 L18.5,7.75 C18.91,7.75 19.25,8.09 19.25,8.5 C19.25,8.91 18.91,9.25 18.5,9.25 Z"/>
  <path fill="#292D32" d="M3.999,21.75 C3.809,21.75 3.619,21.68 3.469,21.53 L1.469,19.53 C1.179,19.24 1.179,18.76 1.469,18.47 L3.469,16.47 C3.759,16.18 4.239,16.18 4.529,16.47 C4.819,16.76 4.819,17.24 4.529,17.53 L3.059,19 L4.529,20.47 C4.819,20.76 4.819,21.24 4.529,21.53 C4.379,21.68 4.189,21.75 3.999,21.75 Z"/>
  <path fill="#292D32" d="M6.999,21.75 C6.809,21.75 6.619,21.68 6.469,21.53 C6.179,21.24 6.179,20.76 6.469,20.47 L7.939,19 L6.469,17.53 C6.179,17.24 6.179,16.76 6.469,16.47 C6.759,16.18 7.239,16.18 7.529,16.47 L9.529,18.47 C9.819,18.76 9.819,19.24 9.529,19.53 L7.529,21.53 C7.379,21.68 7.189,21.75 6.999,21.75 Z"/>
</svg>

