<svg xmlns="http://www.w3.org/2000/svg" width="24" height="24" viewBox="0 0 24 24">
  <defs/>
  <path fill="#292D32" d="M7.08,16.1 C6.72,16.1 6.36,16.01 6.03,15.82 C5.36,15.44 4.96,14.76 4.96,14 L4.96,10.43 C4.96,10.17 4.79,9.73 4.58,9.48 L2.06,6.83 C1.59,6.37 1.25,5.57 1.25,4.96 L1.25,3.41 C1.25,2.2 2.17,1.24 3.35,1.24 L12.25,1.24 C13.41,1.24 14.35,2.18 14.35,3.34 L14.35,4.82 C14.35,5.6 13.9,6.46 13.46,6.9 L10.53,9.49 C10.3,9.68 10.11,10.14 10.11,10.48 L10.11,13.38 C10.11,14.07 9.69,14.84 9.14,15.17 L8.22,15.77 C7.86,15.99 7.47,16.1 7.08,16.1 Z M3.35,2.75 C3.01,2.75 2.75,3.04 2.75,3.42 L2.75,4.97 C2.75,5.14 2.92,5.57 3.14,5.79 L5.72,8.5 C6.1,8.97 6.47,9.74 6.47,10.43 L6.47,14 C6.47,14.3 6.66,14.45 6.78,14.51 C6.94,14.6 7.2,14.65 7.42,14.51 L8.35,13.91 C8.47,13.84 8.61,13.56 8.61,13.39 L8.61,10.49 C8.61,9.7 9,8.83 9.55,8.36 L12.43,5.81 C12.61,5.63 12.85,5.14 12.85,4.82 L12.85,3.34 C12.85,3.01 12.58,2.74 12.25,2.74 L3.35,2.74 L3.35,2.75 Z"/>
  <path fill="#292D32" d="M15,22.75 L9,22.75 C3.57,22.75 1.25,20.43 1.25,15 L1.25,12 C1.25,11.59 1.59,11.25 2,11.25 C2.41,11.25 2.75,11.59 2.75,12 L2.75,15 C2.75,19.61 4.39,21.25 9,21.25 L15,21.25 C19.61,21.25 21.25,19.61 21.25,15 L21.25,9 C21.25,6.1 20.57,4.42 19.04,3.55 C18.88,3.46 18.35,3.22 16.83,2.98 C16.42,2.92 16.14,2.53 16.21,2.12 C16.28,1.71 16.67,1.43 17.07,1.5 C18.38,1.71 19.27,1.95 19.78,2.24 C21.8,3.39 22.75,5.54 22.75,9 L22.75,15 C22.75,20.43 20.43,22.75 15,22.75 Z"/>
  <path fill="#292D32" d="M18,13.75 L13,13.75 C12.59,13.75 12.25,13.41 12.25,13 C12.25,12.59 12.59,12.25 13,12.25 L18,12.25 C18.41,12.25 18.75,12.59 18.75,13 C18.75,13.41 18.41,13.75 18,13.75 Z"/>
  <path fill="#292D32" d="M18,17.75 L11,17.75 C10.59,17.75 10.25,17.41 10.25,17 C10.25,16.59 10.59,16.25 11,16.25 L18,16.25 C18.41,16.25 18.75,16.59 18.75,17 C18.75,17.41 18.41,17.75 18,17.75 Z"/>
</svg>

