<svg xmlns="http://www.w3.org/2000/svg" width="24" height="24" viewBox="0 0 24 24">
  <defs/>
  <path fill="#292D32" d="M20.5,10.19 L17.61,10.19 C15.24,10.19 13.31,8.26 13.31,5.89 L13.31,3 C13.31,2.45 12.86,2 12.31,2 L8.07,2 C4.99,2 2.5,4 2.5,7.57 L2.5,16.43 C2.5,20 4.99,22 8.07,22 L15.93,22 C19.01,22 21.5,20 21.5,16.43 L21.5,11.19 C21.5,10.64 21.05,10.19 20.5,10.19 Z M12.28,15.78 L10.28,17.78 C10.21,17.85 10.12,17.91 10.03,17.94 C9.94,17.98 9.85,18 9.75,18 C9.65,18 9.56,17.98 9.47,17.94 C9.39,17.91 9.31,17.85 9.25,17.79 C9.24,17.78 9.23,17.78 9.23,17.77 L7.23,15.77 C6.94,15.48 6.94,15 7.23,14.71 C7.52,14.42 8,14.42 8.29,14.71 L9,15.44 L9,11.25 C9,10.84 9.34,10.5 9.75,10.5 C10.16,10.5 10.5,10.84 10.5,11.25 L10.5,15.44 L11.22,14.72 C11.51,14.43 11.99,14.43 12.28,14.72 C12.57,15.01 12.57,15.49 12.28,15.78 Z"/>
  <path fill="#292D32" d="M17.43,8.81 C18.38,8.82 19.7,8.82 20.83,8.82 C21.4,8.82 21.7,8.15 21.3,7.75 C19.86,6.3 17.28,3.69 15.8,2.21 C15.39,1.8 14.68,2.08 14.68,2.65 L14.68,6.14 C14.68,7.6 15.92,8.81 17.43,8.81 Z"/>
</svg>

