<svg xmlns="http://www.w3.org/2000/svg" width="22" height="22" viewBox="0 0 22 22">
  <defs/>
  <path fill="#292D32" d="M21.75,9 L21.75,14 Q21.75,21.75 14,21.75 L8,21.75 Q0.25,21.75 0.25,14 L0.25,8 Q0.25,0.25 8,0.25 L13,0.25 Q13.311,0.25 13.53,0.47 Q13.75,0.689 13.75,1 Q13.75,1.311 13.53,1.53 Q13.311,1.75 13,1.75 L8,1.75 Q1.75,1.75 1.75,8 L1.75,14 Q1.75,20.25 8,20.25 L14,20.25 Q20.25,20.25 20.25,14 L20.25,9 Q20.25,8.689 20.47,8.47 Q20.689,8.25 21,8.25 Q21.311,8.25 21.53,8.47 Q21.75,8.689 21.75,9 Z"/>
  <path fill="#292D32" d="M21,9.75 L17,9.75 Q12.25,9.75 12.25,5 L12.25,1 Q12.25,0.689 12.47,0.47 Q12.689,0.25 13,0.25 Q13.311,0.25 13.53,0.47 L21.53,8.47 Q21.75,8.689 21.75,9 Q21.75,9.311 21.53,9.53 Q21.311,9.75 21,9.75 Z M19.189,8.25 L13.75,2.811 L13.75,5 Q13.75,8.25 17,8.25 L19.189,8.25 Z"/>
  <path fill="#292D32" opacity="0.4" d="M7.32,10.25 L9.97,10.25 Q10.877,10.25 11.353,10.997 L12.474,12.685 Q13.234,13.807 12.27,14.77 L9.81,17.23 Q8.64,18.401 7.469,17.23 L5.009,14.77 Q4.046,13.807 4.809,12.68 L5.935,10.985 Q5.944,10.972 5.953,10.959 Q6.469,10.25 7.32,10.25 Z M7.32,11.75 Q7.237,11.75 7.173,11.832 L6.051,13.52 Q5.982,13.622 6.07,13.71 L8.53,16.17 Q8.573,16.212 8.64,16.212 Q8.707,16.212 8.749,16.17 L11.209,13.71 Q11.297,13.622 11.225,13.515 L10.087,11.803 Q10.054,11.75 9.97,11.75 Z"/>
</svg>

