<svg xmlns="http://www.w3.org/2000/svg" width="24" height="24" viewBox="0 0 24 24">
  <defs/>
  <path fill="#292D32" d="M14,2.75 L9,2.75 Q2.75,2.75 2.75,9 L2.75,15 Q2.75,18.439 4.155,19.845 Q5.561,21.25 9,21.25 Q9.311,21.25 9.53,21.47 Q9.75,21.689 9.75,22 Q9.75,22.311 9.53,22.53 Q9.311,22.75 9,22.75 Q1.25,22.75 1.25,15 L1.25,9 Q1.25,1.25 9,1.25 L14,1.25 Q14.311,1.25 14.53,1.47 Q14.75,1.689 14.75,2 Q14.75,2.311 14.53,2.53 Q14.311,2.75 14,2.75 Z"/>
  <path fill="#292D32" d="M22.75,10 L22.75,13 Q22.75,13.311 22.53,13.53 Q22.311,13.75 22,13.75 Q21.689,13.75 21.47,13.53 Q21.25,13.311 21.25,13 L21.25,10 Q21.25,9.689 21.47,9.47 Q21.689,9.25 22,9.25 Q22.311,9.25 22.53,9.47 Q22.75,9.689 22.75,10 Z"/>
  <path fill="#292D32" d="M22,10.75 L18,10.75 Q13.25,10.75 13.25,6 L13.25,2 Q13.25,1.689 13.47,1.47 Q13.689,1.25 14,1.25 Q14.311,1.25 14.53,1.47 L22.53,9.47 Q22.75,9.689 22.75,10 Q22.75,10.311 22.53,10.53 Q22.311,10.75 22,10.75 Z M20.189,9.25 L14.75,3.811 L14.75,6 Q14.75,7.939 15.405,8.595 Q16.061,9.25 18,9.25 L20.189,9.25 Z"/>
  <path fill="#292D32" d="M12.843,17.667 Q12.596,16.269 13.279,15.102 Q14.071,13.751 15.677,13.33 Q17.285,12.908 18.634,13.7 Q19.944,14.468 20.369,16.069 Q22.029,16.511 22.59,18.347 Q23.235,20.461 21.64,21.859 Q20.665,22.75 19.32,22.75 L13.76,22.75 Q13.733,22.75 13.706,22.748 Q11.248,22.57 11.248,20.13 Q11.248,18.164 12.843,17.667 Z M13.706,19.019 Q12.748,19.14 12.748,20.13 Q12.748,21.163 13.789,21.25 L19.32,21.25 Q20.086,21.25 20.633,20.748 Q20.64,20.741 20.647,20.735 Q21.518,19.975 21.155,18.785 Q20.793,17.597 19.647,17.454 Q19.092,17.385 19,16.833 Q18.783,15.526 17.875,14.993 Q17.063,14.517 16.058,14.781 Q15.051,15.044 14.574,15.86 Q14.04,16.771 14.486,18.017 Q14.591,18.31 14.458,18.591 Q14.325,18.872 14.033,18.976 Q13.868,19.035 13.706,19.019 Z"/>
</svg>

