<svg xmlns="http://www.w3.org/2000/svg" width="24" height="24" viewBox="0 0 24 24">
  <defs/>
  <path fill="#292D32" d="M16,22.75 L8,22.75 C4.35,22.75 2.25,20.65 2.25,17 L2.25,7 C2.25,3.35 4.35,1.25 8,1.25 L16,1.25 C19.65,1.25 21.75,3.35 21.75,7 L21.75,17 C21.75,20.65 19.65,22.75 16,22.75 Z M8,2.75 C5.14,2.75 3.75,4.14 3.75,7 L3.75,17 C3.75,19.86 5.14,21.25 8,21.25 L16,21.25 C18.86,21.25 20.25,19.86 20.25,17 L20.25,7 C20.25,4.14 18.86,2.75 16,2.75 L8,2.75 Z"/>
  <path fill="#292D32" d="M18.5,9.25 L16.5,9.25 C14.98,9.25 13.75,8.02 13.75,6.5 L13.75,4.5 C13.75,4.09 14.09,3.75 14.5,3.75 C14.91,3.75 15.25,4.09 15.25,4.5 L15.25,6.5 C15.25,7.19 15.81,7.75 16.5,7.75 L18.5,7.75 C18.91,7.75 19.25,8.09 19.25,8.5 C19.25,8.91 18.91,9.25 18.5,9.25 Z"/>
  <path fill="#292D32" d="M10.269,18.72 C9.389,18.7 7.379,17.63 6.769,15.72 C6.339,14.39 6.839,12.63 8.379,12.13 C9.039,11.92 9.719,12.01 10.259,12.35 C10.799,12.01 11.489,11.92 12.159,12.13 C13.699,12.63 14.199,14.38 13.789,15.72 C13.169,17.7 11.039,18.72 10.269,18.72 Z M8.199,15.26 C8.619,16.55 10.049,17.19 10.309,17.22 C10.579,17.19 11.979,16.5 12.359,15.26 C12.559,14.6 12.349,13.76 11.699,13.55 C11.439,13.47 11.069,13.51 10.899,13.77 C10.769,13.98 10.529,14.11 10.289,14.11 C9.999,14.11 9.809,14 9.659,13.79 C9.459,13.51 9.099,13.47 8.839,13.55 C8.199,13.76 7.989,14.61 8.199,15.26 Z"/>
</svg>

