<svg xmlns="http://www.w3.org/2000/svg" width="24" height="24" viewBox="0 0 24 24">
  <defs/>
  <path fill="#292D32" d="M9,17.75 C8.81,17.75 8.62,17.68 8.47,17.53 L6.47,15.53 C6.26,15.32 6.19,14.99 6.31,14.71 C6.43,14.43 6.7,14.25 7,14.25 L13.001,14.25 C13.411,14.25 13.751,14.59 13.751,15 C13.751,15.41 13.411,15.75 13.001,15.75 L8.81,15.75 L9.53,16.47 C9.82,16.76 9.82,17.24 9.53,17.53 C9.38,17.68 9.19,17.75 9,17.75 Z"/>
  <path fill="#292D32" d="M6.999,15.75 C6.809,15.75 6.619,15.68 6.469,15.53 C6.179,15.24 6.179,14.76 6.469,14.47 L8.469,12.47 C8.759,12.18 9.239,12.18 9.529,12.47 C9.819,12.76 9.819,13.24 9.529,13.53 L7.529,15.53 C7.379,15.68 7.189,15.75 6.999,15.75 Z"/>
  <path fill="#292D32" d="M15,22.75 L9,22.75 C3.57,22.75 1.25,20.43 1.25,15 L1.25,9 C1.25,3.57 3.57,1.25 9,1.25 L14,1.25 C14.41,1.25 14.75,1.59 14.75,2 C14.75,2.41 14.41,2.75 14,2.75 L9,2.75 C4.39,2.75 2.75,4.39 2.75,9 L2.75,15 C2.75,19.61 4.39,21.25 9,21.25 L15,21.25 C19.61,21.25 21.25,19.61 21.25,15 L21.25,10 C21.25,9.59 21.59,9.25 22,9.25 C22.41,9.25 22.75,9.59 22.75,10 L22.75,15 C22.75,20.43 20.43,22.75 15,22.75 Z"/>
  <path fill="#292D32" d="M22,10.75 L18,10.75 C14.58,10.75 13.25,9.42 13.25,6 L13.25,2 C13.25,1.7 13.43,1.42 13.71,1.31 C13.99,1.19 14.31,1.26 14.53,1.47 L22.53,9.47 C22.74,9.68 22.81,10.01 22.69,10.29 C22.57,10.57 22.3,10.75 22,10.75 Z M14.75,3.81 L14.75,6 C14.75,8.58 15.42,9.25 18,9.25 L20.19,9.25 L14.75,3.81 Z"/>
</svg>

