<svg xmlns="http://www.w3.org/2000/svg" width="24" height="24" viewBox="0 0 24 24">
  <defs/>
  <path fill="#292D32" d="M8.999,17.75 C8.589,17.75 8.249,17.41 8.249,17 L8.249,12.81 L7.529,13.53 C7.239,13.82 6.759,13.82 6.469,13.53 C6.179,13.24 6.179,12.76 6.469,12.47 L8.469,10.47 C8.679,10.26 9.009,10.19 9.289,10.31 C9.569,10.42 9.749,10.7 9.749,11 L9.749,17 C9.749,17.41 9.409,17.75 8.999,17.75 Z"/>
  <path fill="#292D32" d="M10.999,13.75 C10.809,13.75 10.62,13.68 10.47,13.53 L8.469,11.53 C8.179,11.24 8.179,10.76 8.469,10.47 C8.759,10.18 9.239,10.18 9.529,10.47 L11.53,12.47 C11.819,12.76 11.819,13.24 11.53,13.53 C11.38,13.68 11.19,13.75 10.999,13.75 Z"/>
  <path fill="#292D32" d="M15,22.75 L9,22.75 C3.57,22.75 1.25,20.43 1.25,15 L1.25,9 C1.25,3.57 3.57,1.25 9,1.25 L14,1.25 C14.41,1.25 14.75,1.59 14.75,2 C14.75,2.41 14.41,2.75 14,2.75 L9,2.75 C4.39,2.75 2.75,4.39 2.75,9 L2.75,15 C2.75,19.61 4.39,21.25 9,21.25 L15,21.25 C19.61,21.25 21.25,19.61 21.25,15 L21.25,10 C21.25,9.59 21.59,9.25 22,9.25 C22.41,9.25 22.75,9.59 22.75,10 L22.75,15 C22.75,20.43 20.43,22.75 15,22.75 Z"/>
  <path fill="#292D32" d="M22,10.75 L18,10.75 C14.58,10.75 13.25,9.42 13.25,6 L13.25,2 C13.25,1.7 13.43,1.42 13.71,1.31 C13.99,1.19 14.31,1.26 14.53,1.47 L22.53,9.47 C22.74,9.68 22.81,10.01 22.69,10.29 C22.57,10.57 22.3,10.75 22,10.75 Z M14.75,3.81 L14.75,6 C14.75,8.58 15.42,9.25 18,9.25 L20.19,9.25 L14.75,3.81 Z"/>
</svg>

