<svg xmlns="http://www.w3.org/2000/svg" width="24" height="24" viewBox="0 0 24 24">
  <defs/>
  <path fill="#292D32" d="M15,22.75 L9,22.75 C3.57,22.75 1.25,20.43 1.25,15 L1.25,9 C1.25,3.57 3.57,1.25 9,1.25 L14,1.25 C14.41,1.25 14.75,1.59 14.75,2 C14.75,2.41 14.41,2.75 14,2.75 L9,2.75 C4.39,2.75 2.75,4.39 2.75,9 L2.75,15 C2.75,19.61 4.39,21.25 9,21.25 L15,21.25 C19.61,21.25 21.25,19.61 21.25,15 L21.25,10 C21.25,9.59 21.59,9.25 22,9.25 C22.41,9.25 22.75,9.59 22.75,10 L22.75,15 C22.75,20.43 20.43,22.75 15,22.75 Z"/>
  <path fill="#292D32" d="M22,10.75 L18,10.75 C14.58,10.75 13.25,9.42 13.25,6 L13.25,2 C13.25,1.7 13.43,1.42 13.71,1.31 C13.99,1.19 14.31,1.26 14.53,1.47 L22.53,9.47 C22.74,9.68 22.81,10.01 22.69,10.29 C22.57,10.57 22.3,10.75 22,10.75 Z M14.75,3.81 L14.75,6 C14.75,8.58 15.42,9.25 18,9.25 L20.19,9.25 L14.75,3.81 Z"/>
  <path fill="#292D32" d="M13,13.75 L7,13.75 C6.59,13.75 6.25,13.41 6.25,13 C6.25,12.59 6.59,12.25 7,12.25 L13,12.25 C13.41,12.25 13.75,12.59 13.75,13 C13.75,13.41 13.41,13.75 13,13.75 Z"/>
  <path fill="#292D32" d="M11,17.75 L7,17.75 C6.59,17.75 6.25,17.41 6.25,17 C6.25,16.59 6.59,16.25 7,16.25 L11,16.25 C11.41,16.25 11.75,16.59 11.75,17 C11.75,17.41 11.41,17.75 11,17.75 Z"/>
</svg>

