<svg xmlns="http://www.w3.org/2000/svg" width="24" height="24" viewBox="0 0 24 24">
  <defs/>
  <path fill="#292D32" d="M3.35,1.25 L12.25,1.25 Q14.35,1.25 14.35,3.35 L14.35,4.83 Q14.35,5.994 13.468,6.902 Q13.448,6.923 13.426,6.942 L10.526,9.502 Q10.11,9.856 10.11,10.49 L10.11,13.39 Q10.11,14.577 9.152,15.173 L8.218,15.779 Q8.21,15.784 8.202,15.789 Q7.168,16.424 6.082,15.844 Q4.97,15.251 4.97,14 L4.97,10.43 Q4.97,9.964 4.612,9.501 L2.082,6.833 Q1.26,6.006 1.26,4.96 L1.26,3.41 Q1.249,2.516 1.859,1.884 Q2.471,1.25 3.35,1.25 Z M3.35,2.75 Q3.108,2.75 2.938,2.926 Q2.756,3.114 2.76,3.41 L2.76,4.96 Q2.76,5.389 3.15,5.78 Q3.157,5.787 3.164,5.794 L5.724,8.494 Q5.747,8.518 5.767,8.544 Q6.47,9.428 6.47,10.43 L6.47,14 Q6.47,14.351 6.788,14.521 Q7.113,14.694 7.411,14.515 L8.342,13.911 Q8.349,13.906 8.356,13.902 Q8.61,13.745 8.61,13.39 L8.61,10.49 Q8.61,9.163 9.534,8.378 L12.41,5.838 Q12.85,5.374 12.85,4.83 L12.85,3.35 Q12.85,2.75 12.25,2.75 Z"/>
  <path fill="#292D32" d="M2.75,12 L2.75,15 Q2.75,18.439 4.155,19.845 Q5.561,21.25 9,21.25 L15,21.25 Q18.439,21.25 19.845,19.845 Q21.25,18.439 21.25,15 L21.25,9 Q21.25,4.798 19.042,3.553 Q18.511,3.251 16.831,2.98 Q16.524,2.931 16.342,2.679 Q16.16,2.427 16.21,2.121 Q16.259,1.814 16.511,1.632 Q16.763,1.45 17.069,1.5 Q19.017,1.814 19.778,2.247 Q22.75,3.921 22.75,9 L22.75,15 Q22.75,22.75 15,22.75 L9,22.75 Q1.25,22.75 1.25,15 L1.25,12 Q1.25,11.689 1.47,11.47 Q1.689,11.25 2,11.25 Q2.311,11.25 2.53,11.47 Q2.75,11.689 2.75,12 Z"/>
  <path fill="#292D32" d="M13,12.25 L18,12.25 Q18.311,12.25 18.53,12.47 Q18.75,12.689 18.75,13 Q18.75,13.311 18.53,13.53 Q18.311,13.75 18,13.75 L13,13.75 Q12.689,13.75 12.47,13.53 Q12.25,13.311 12.25,13 Q12.25,12.689 12.47,12.47 Q12.689,12.25 13,12.25 Z"/>
  <path fill="#292D32" d="M11,16.25 L18,16.25 Q18.311,16.25 18.53,16.47 Q18.75,16.689 18.75,17 Q18.75,17.311 18.53,17.53 Q18.311,17.75 18,17.75 L11,17.75 Q10.689,17.75 10.47,17.53 Q10.25,17.311 10.25,17 Q10.25,16.689 10.47,16.47 Q10.689,16.25 11,16.25 Z"/>
</svg>

