<svg xmlns="http://www.w3.org/2000/svg" width="24" height="24" viewBox="0 0 24 24">
  <defs/>
  <path fill="#292D32" d="M15,22.75 L9,22.75 C3.57,22.75 1.25,20.43 1.25,15 L1.25,9 C1.25,3.57 3.57,1.25 9,1.25 L15,1.25 C20.43,1.25 22.75,3.57 22.75,9 L22.75,15 C22.75,20.43 20.43,22.75 15,22.75 Z M9,2.75 C4.39,2.75 2.75,4.39 2.75,9 L2.75,15 C2.75,19.61 4.39,21.25 9,21.25 L15,21.25 C19.61,21.25 21.25,19.61 21.25,15 L21.25,9 C21.25,4.39 19.61,2.75 15,2.75 L9,2.75 Z"/>
  <path fill="#292D32" d="M15.75,9.75 L8.25,9.75 C7.84,9.75 7.5,9.41 7.5,9 C7.5,8.59 7.84,8.25 8.25,8.25 L15.75,8.25 C16.16,8.25 16.5,8.59 16.5,9 C16.5,9.41 16.16,9.75 15.75,9.75 Z"/>
  <path fill="#292D32" d="M15.75,15.75 L8.25,15.75 C7.84,15.75 7.5,15.41 7.5,15 C7.5,14.59 7.84,14.25 8.25,14.25 L15.75,14.25 C16.16,14.25 16.5,14.59 16.5,15 C16.5,15.41 16.16,15.75 15.75,15.75 Z"/>
</svg>

