<svg xmlns="http://www.w3.org/2000/svg" width="24" height="24" viewBox="0 0 24 24">
  <defs/>
  <path fill="#292D32" d="M9,22.75 Q1.25,22.75 1.25,15 L1.25,9 Q1.25,1.25 9,1.25 L15,1.25 Q22.75,1.25 22.75,9 L22.75,15 Q22.75,22.75 15,22.75 Z M9,21.25 L15,21.25 Q18.439,21.25 19.845,19.845 Q21.25,18.439 21.25,15 L21.25,9 Q21.25,2.75 15,2.75 L9,2.75 Q2.75,2.75 2.75,9 L2.75,15 Q2.75,18.439 4.155,19.845 Q5.561,21.25 9,21.25 Z"/>
  <path fill="#292D32" d="M15.75,9.75 L8.25,9.75 Q7.939,9.75 7.72,9.53 Q7.5,9.311 7.5,9 Q7.5,8.689 7.72,8.47 Q7.939,8.25 8.25,8.25 L15.75,8.25 Q16.061,8.25 16.28,8.47 Q16.5,8.689 16.5,9 Q16.5,9.311 16.28,9.53 Q16.061,9.75 15.75,9.75 Z"/>
  <path fill="#292D32" d="M15.75,15.75 L8.25,15.75 Q7.939,15.75 7.72,15.53 Q7.5,15.311 7.5,15 Q7.5,14.689 7.72,14.47 Q7.939,14.25 8.25,14.25 L15.75,14.25 Q16.061,14.25 16.28,14.47 Q16.5,14.689 16.5,15 Q16.5,15.311 16.28,15.53 Q16.061,15.75 15.75,15.75 Z"/>
</svg>

