<svg xmlns="http://www.w3.org/2000/svg" width="24" height="24" viewBox="0 0 24 24">
  <defs/>
  <path fill="#292D32" d="M16,2 L8,2 C4.5,2 3,4 3,7 L3,17 C3,20 4.5,22 8,22 L16,22 C19.5,22 21,20 21,17 L21,7 C21,4 19.5,2 16,2 Z M8,12.25 L12,12.25 C12.41,12.25 12.75,12.59 12.75,13 C12.75,13.41 12.41,13.75 12,13.75 L8,13.75 C7.59,13.75 7.25,13.41 7.25,13 C7.25,12.59 7.59,12.25 8,12.25 Z M16,17.75 L8,17.75 C7.59,17.75 7.25,17.41 7.25,17 C7.25,16.59 7.59,16.25 8,16.25 L16,16.25 C16.41,16.25 16.75,16.59 16.75,17 C16.75,17.41 16.41,17.75 16,17.75 Z M18.5,9.25 L16.5,9.25 C14.98,9.25 13.75,8.02 13.75,6.5 L13.75,4.5 C13.75,4.09 14.09,3.75 14.5,3.75 C14.91,3.75 15.25,4.09 15.25,4.5 L15.25,6.5 C15.25,7.19 15.81,7.75 16.5,7.75 L18.5,7.75 C18.91,7.75 19.25,8.09 19.25,8.5 C19.25,8.91 18.91,9.25 18.5,9.25 Z"/>
</svg>

