<svg xmlns="http://www.w3.org/2000/svg" width="24" height="24" viewBox="0 0 24 24">
  <defs/>
  <path fill="#292D32" d="M9,17.75 C8.9,17.75 8.81,17.73 8.71,17.69 C8.43,17.58 8.25,17.3 8.25,17 L8.25,11 C8.25,10.59 8.59,10.25 9,10.25 C9.41,10.25 9.75,10.59 9.75,11 L9.75,15.19 L10.47,14.47 C10.76,14.18 11.24,14.18 11.53,14.47 C11.82,14.76 11.82,15.24 11.53,15.53 L9.53,17.53 C9.39,17.67 9.19,17.75 9,17.75 Z"/>
  <path fill="#292D32" d="M8.999,17.75 C8.809,17.75 8.619,17.68 8.469,17.53 L6.469,15.53 C6.179,15.24 6.179,14.76 6.469,14.47 C6.759,14.18 7.239,14.18 7.529,14.47 L9.529,16.47 C9.819,16.76 9.819,17.24 9.529,17.53 C9.379,17.68 9.189,17.75 8.999,17.75 Z"/>
  <path fill="#292D32" d="M15,22.75 L9,22.75 C3.57,22.75 1.25,20.43 1.25,15 L1.25,9 C1.25,3.57 3.57,1.25 9,1.25 L14,1.25 C14.41,1.25 14.75,1.59 14.75,2 C14.75,2.41 14.41,2.75 14,2.75 L9,2.75 C4.39,2.75 2.75,4.39 2.75,9 L2.75,15 C2.75,19.61 4.39,21.25 9,21.25 L15,21.25 C19.61,21.25 21.25,19.61 21.25,15 L21.25,10 C21.25,9.59 21.59,9.25 22,9.25 C22.41,9.25 22.75,9.59 22.75,10 L22.75,15 C22.75,20.43 20.43,22.75 15,22.75 Z"/>
  <path fill="#292D32" d="M22,10.75 L18,10.75 C14.58,10.75 13.25,9.42 13.25,6 L13.25,2 C13.25,1.7 13.43,1.42 13.71,1.31 C13.99,1.19 14.31,1.26 14.53,1.47 L22.53,9.47 C22.74,9.68 22.81,10.01 22.69,10.29 C22.57,10.57 22.3,10.75 22,10.75 Z M14.75,3.81 L14.75,6 C14.75,8.58 15.42,9.25 18,9.25 L20.19,9.25 L14.75,3.81 Z"/>
</svg>

