<svg xmlns="http://www.w3.org/2000/svg" width="24" height="24" viewBox="0 0 24 24">
  <defs/>
  <path fill="#292D32" opacity="0.4" d="M20.5,10.19 L17.61,10.19 C15.24,10.19 13.31,8.26 13.31,5.89 L13.31,3 C13.31,2.45 12.86,2 12.31,2 L8.07,2 C4.99,2 2.5,4 2.5,7.57 L2.5,16.43 C2.5,20 4.99,22 8.07,22 L15.93,22 C19.01,22 21.5,20 21.5,16.43 L21.5,11.19 C21.5,10.64 21.05,10.19 20.5,10.19 Z"/>
  <path fill="#292D32" d="M15.8,2.21 C15.39,1.8 14.68,2.08 14.68,2.65 L14.68,6.14 C14.68,7.6 15.92,8.81 17.43,8.81 C18.38,8.82 19.7,8.82 20.83,8.82 C21.4,8.82 21.7,8.15 21.3,7.75 C19.86,6.3 17.28,3.69 15.8,2.21 Z"/>
  <path fill="#292D32" d="M13,14.25 L8.81,14.25 L9.53,13.53 C9.82,13.24 9.82,12.76 9.53,12.47 C9.24,12.18 8.76,12.18 8.47,12.47 L6.47,14.47 C6.46,14.48 6.46,14.49 6.45,14.49 C6.39,14.55 6.34,14.63 6.3,14.71 C6.3,14.72 6.3,14.72 6.29,14.73 C6.26,14.81 6.25,14.89 6.24,14.97 C6.24,15 6.24,15.02 6.24,15.05 C6.24,15.11 6.26,15.17 6.28,15.23 C6.29,15.26 6.3,15.28 6.31,15.3 C6.35,15.38 6.39,15.46 6.46,15.52 L8.46,17.52 C8.61,17.67 8.8,17.74 8.99,17.74 C9.18,17.74 9.37,17.67 9.52,17.52 C9.81,17.23 9.81,16.75 9.52,16.46 L8.8,15.74 L13,15.74 C13.41,15.74 13.75,15.4 13.75,14.99 C13.75,14.58 13.41,14.25 13,14.25 Z"/>
</svg>

