<svg xmlns="http://www.w3.org/2000/svg" width="24" height="24" viewBox="0 0 24 24">
  <defs/>
  <path fill="#292D32" d="M11.4,22.75 L7.6,22.75 C3.21,22.75 1.25,20.79 1.25,16.4 L1.25,12.6 C1.25,8.21 3.21,6.25 7.6,6.25 L10.6,6.25 C11.01,6.25 11.35,6.59 11.35,7 C11.35,7.41 11.01,7.75 10.6,7.75 L7.6,7.75 C4.02,7.75 2.75,9.02 2.75,12.6 L2.75,16.4 C2.75,19.98 4.02,21.25 7.6,21.25 L11.4,21.25 C14.98,21.25 16.25,19.98 16.25,16.4 L16.25,13.4 C16.25,12.99 16.59,12.65 17,12.65 C17.41,12.65 17.75,12.99 17.75,13.4 L17.75,16.4 C17.75,20.79 15.79,22.75 11.4,22.75 Z"/>
  <path fill="#292D32" d="M17,14.15 L13.8,14.15 C10.99,14.15 9.85,13.01 9.85,10.2 L9.85,7 C9.85,6.7 10.03,6.42 10.31,6.31 C10.59,6.19 10.91,6.26 11.13,6.47 L17.53,12.87 C17.74,13.08 17.81,13.41 17.69,13.69 C17.58,13.97 17.3,14.15 17,14.15 Z M11.35,8.81 L11.35,10.2 C11.35,12.19 11.81,12.65 13.8,12.65 L15.19,12.65 L11.35,8.81 Z"/>
  <path fill="#292D32" d="M15.6,2.75 L11.6,2.75 C11.19,2.75 10.85,2.41 10.85,2 C10.85,1.59 11.19,1.25 11.6,1.25 L15.6,1.25 C16.01,1.25 16.35,1.59 16.35,2 C16.35,2.41 16.01,2.75 15.6,2.75 Z"/>
  <path fill="#292D32" d="M7,5.75 C6.59,5.75 6.25,5.41 6.25,5 C6.25,2.93 7.93,1.25 10,1.25 L12.62,1.25 C13.03,1.25 13.37,1.59 13.37,2 C13.37,2.41 13.03,2.75 12.62,2.75 L10,2.75 C8.76,2.75 7.75,3.76 7.75,5 C7.75,5.41 7.41,5.75 7,5.75 Z"/>
  <path fill="#292D32" d="M19.189,17.75 C18.779,17.75 18.439,17.41 18.439,17 C18.439,16.59 18.779,16.25 19.189,16.25 C20.329,16.25 21.25,15.32 21.25,14.19 L21.25,8 C21.25,7.59 21.59,7.25 22,7.25 C22.41,7.25 22.75,7.59 22.75,8 L22.75,14.19 C22.75,16.15 21.149,17.75 19.189,17.75 Z"/>
  <path fill="#292D32" d="M22,8.75 L19,8.75 C16.34,8.75 15.25,7.66 15.25,5 L15.25,2 C15.25,1.7 15.43,1.42 15.71,1.31 C15.99,1.19 16.31,1.26 16.53,1.47 L22.53,7.47 C22.74,7.68 22.81,8.01 22.69,8.29 C22.58,8.57 22.3,8.75 22,8.75 Z M16.75,3.81 L16.75,5 C16.75,6.83 17.17,7.25 19,7.25 L20.19,7.25 L16.75,3.81 Z"/>
</svg>

