<svg xmlns="http://www.w3.org/2000/svg" width="24" height="24" viewBox="0 0 24 24">
  <defs/>
  <path fill="#292D32" d="M15.8,2.21 C15.39,1.8 14.68,2.08 14.68,2.65 L14.68,6.14 C14.68,7.6 15.92,8.81 17.43,8.81 C18.38,8.82 19.7,8.82 20.83,8.82 C21.4,8.82 21.7,8.15 21.3,7.75 C19.86,6.3 17.28,3.69 15.8,2.21 Z"/>
  <path fill="#292D32" d="M20.5,10.19 L17.61,10.19 C15.24,10.19 13.31,8.26 13.31,5.89 L13.31,3 C13.31,2.45 12.86,2 12.31,2 L8.07,2 C4.99,2 2.5,4 2.5,7.57 L2.5,16.43 C2.5,20 4.99,22 8.07,22 L15.93,22 C19.01,22 21.5,20 21.5,16.43 L21.5,11.19 C21.5,10.64 21.05,10.19 20.5,10.19 Z M11.5,17.75 L7.5,17.75 C7.09,17.75 6.75,17.41 6.75,17 C6.75,16.59 7.09,16.25 7.5,16.25 L11.5,16.25 C11.91,16.25 12.25,16.59 12.25,17 C12.25,17.41 11.91,17.75 11.5,17.75 Z M13.5,13.75 L7.5,13.75 C7.09,13.75 6.75,13.41 6.75,13 C6.75,12.59 7.09,12.25 7.5,12.25 L13.5,12.25 C13.91,12.25 14.25,12.59 14.25,13 C14.25,13.41 13.91,13.75 13.5,13.75 Z"/>
</svg>

