<svg xmlns="http://www.w3.org/2000/svg" width="24" height="24" viewBox="0 0 24 24">
  <defs/>
  <path fill="#292D32" opacity="0.4" d="M20.5,10.19 L17.61,10.19 C15.24,10.19 13.31,8.26 13.31,5.89 L13.31,3 C13.31,2.45 12.86,2 12.31,2 L8.07,2 C4.99,2 2.5,4 2.5,7.57 L2.5,16.43 C2.5,20 4.99,22 8.07,22 L15.93,22 C19.01,22 21.5,20 21.5,16.43 L21.5,11.19 C21.5,10.64 21.05,10.19 20.5,10.19 Z"/>
  <path fill="#292D32" d="M15.8,2.21 C15.39,1.8 14.68,2.08 14.68,2.65 L14.68,6.14 C14.68,7.6 15.92,8.81 17.43,8.81 C18.38,8.82 19.7,8.82 20.83,8.82 C21.4,8.82 21.7,8.15 21.3,7.75 C19.86,6.3 17.28,3.69 15.8,2.21 Z"/>
  <path fill="#292D32" d="M11.53,12.47 L9.529,10.47 C9.519,10.46 9.509,10.46 9.509,10.45 C9.449,10.39 9.369,10.34 9.289,10.3 C9.279,10.3 9.279,10.3 9.269,10.3 C9.189,10.27 9.109,10.26 9.029,10.25 C8.999,10.25 8.979,10.25 8.949,10.25 C8.889,10.25 8.819,10.27 8.759,10.29 C8.729,10.3 8.709,10.31 8.689,10.32 C8.609,10.36 8.529,10.4 8.469,10.47 L6.469,12.47 C6.179,12.76 6.179,13.24 6.469,13.53 C6.759,13.82 7.239,13.82 7.529,13.53 L8.249,12.81 L8.249,17 C8.249,17.41 8.589,17.75 8.999,17.75 C9.409,17.75 9.749,17.41 9.749,17 L9.749,12.81 L10.47,13.53 C10.62,13.68 10.809,13.75 10.999,13.75 C11.19,13.75 11.38,13.68 11.53,13.53 C11.819,13.24 11.819,12.76 11.53,12.47 Z"/>
</svg>

