<svg xmlns="http://www.w3.org/2000/svg" width="24" height="24" viewBox="0 0 24 24">
  <defs/>
  <path fill="#292D32" opacity="0.4" d="M16.19,2 L7.81,2 C4.17,2 2,4.17 2,7.81 L2,16.18 C2,19.83 4.17,22 7.81,22 L16.18,22 C19.82,22 21.99,19.83 21.99,16.19 L21.99,7.81 C22,4.17 19.83,2 16.19,2 Z"/>
  <path fill="#292D32" d="M15.75,9.75 L8.25,9.75 C7.84,9.75 7.5,9.41 7.5,9 C7.5,8.59 7.84,8.25 8.25,8.25 L15.75,8.25 C16.16,8.25 16.5,8.59 16.5,9 C16.5,9.41 16.16,9.75 15.75,9.75 Z"/>
  <path fill="#292D32" d="M15.75,15.75 L8.25,15.75 C7.84,15.75 7.5,15.41 7.5,15 C7.5,14.59 7.84,14.25 8.25,14.25 L15.75,14.25 C16.16,14.25 16.5,14.59 16.5,15 C16.5,15.41 16.16,15.75 15.75,15.75 Z"/>
</svg>

