<svg xmlns="http://www.w3.org/2000/svg" width="24" height="24" viewBox="0 0 24 24">
  <defs/>
  <path fill="#292D32" opacity="0.4" d="M15.5,13.15 L13.33,13.15 C11.55,13.15 10.1,11.71 10.1,9.92 L10.1,7.75 C10.1,7.34 9.77,7 9.35,7 L6.18,7 C3.87,7 2,8.5 2,11.18 L2,17.82 C2,20.5 3.87,22 6.18,22 L12.07,22 C14.38,22 16.25,20.5 16.25,17.82 L16.25,13.9 C16.25,13.48 15.91,13.15 15.5,13.15 Z"/>
  <path fill="#292D32" d="M17.82,2 L15.85,2 L14.76,2 L11.93,2 C9.67,2 7.84,3.44 7.76,6.01 C7.82,6.01 7.87,6 7.93,6 L10.76,6 L11.85,6 L13.82,6 C16.13,6 18,7.5 18,10.18 L18,12.15 L18,14.86 L18,16.83 C18,16.89 17.99,16.94 17.99,16.99 C20.22,16.92 22,15.44 22,12.83 L22,10.86 L22,8.15 L22,6.18 C22,3.5 20.13,2 17.82,2 Z"/>
  <path fill="#292D32" d="M11.981,7.15 C11.671,6.84 11.141,7.05 11.141,7.48 L11.141,10.1 C11.141,11.2 12.071,12.1 13.211,12.1 C13.921,12.11 14.911,12.11 15.761,12.11 C16.191,12.11 16.411,11.61 16.111,11.31 C15.021,10.22 13.081,8.27 11.981,7.15 Z"/>
</svg>

