<svg xmlns="http://www.w3.org/2000/svg" width="24" height="24" viewBox="0 0 24 24">
  <defs/>
  <path fill="#292D32" d="M20.709,8.119 L20.709,17.529 C20.709,19.989 18.699,22 16.239,22 L7.759,22 C5.299,22 3.289,19.989 3.289,17.529 L3.289,8.119 C3.289,6.409 4.249,4.919 5.659,4.169 C6.149,3.909 6.759,4.259 6.759,4.819 C6.759,6.409 8.059,7.709 9.649,7.709 L14.349,7.709 C15.939,7.709 17.239,6.409 17.239,4.819 C17.239,4.259 17.839,3.909 18.339,4.169 C19.749,4.919 20.709,6.409 20.709,8.119 Z"/>
  <path fill="#292D32" d="M14.35,2 L9.65,2 C8.61,2 7.76,2.84 7.76,3.88 L7.76,4.82 C7.76,5.86 8.6,6.7 9.64,6.7 L14.35,6.7 C15.39,6.7 16.23,5.86 16.23,4.82 L16.23,3.88 C16.24,2.84 15.39,2 14.35,2 Z"/>
</svg>

