<svg xmlns="http://www.w3.org/2000/svg" width="24" height="24" viewBox="0 0 24 24">
  <defs/>
  <path fill="#292D32" opacity="0.4" d="M21,7 L21,17 C21,20 19.5,22 16,22 L9,22 C10.21,21.09 11,19.63 11,18 C11,15.24 8.76,13 6,13 C4.87,13 3.83,13.37 3,14 L3,7 C3,4 4.5,2 8,2 L16,2 C19.5,2 21,4 21,7 Z"/>
  <path fill="#292D32" d="M14.5,3.75 C14.914,3.75 15.25,4.086 15.25,4.5 L15.25,6.5 C15.25,7.186 15.814,7.75 16.5,7.75 L18.5,7.75 C18.914,7.75 19.25,8.086 19.25,8.5 C19.25,8.914 18.914,9.25 18.5,9.25 L16.5,9.25 C14.986,9.25 13.75,8.014 13.75,6.5 L13.75,4.5 C13.75,4.086 14.086,3.75 14.5,3.75 Z"/>
  <path fill="#292D32" d="M6,13 C3.24,13 1,15.24 1,18 C1,20.76 3.24,23 6,23 C8.76,23 11,20.76 11,18 C11,15.24 8.76,13 6,13 Z M5.16,19.27 C5.41,19.52 5.41,19.93 5.16,20.19 C5.03,20.32 4.87,20.38 4.7,20.38 C4.53,20.38 4.37,20.32 4.24,20.19 L2.51,18.46 C2.26,18.21 2.26,17.8 2.51,17.54 L4.24,15.81 C4.49,15.56 4.9,15.56 5.16,15.81 C5.41,16.06 5.41,16.47 5.16,16.73 L3.89,18 L5.16,19.27 Z M9.48,18.46 L7.75,20.19 C7.62,20.32 7.46,20.38 7.29,20.38 C7.12,20.38 6.96,20.32 6.83,20.19 C6.58,19.94 6.58,19.53 6.83,19.27 L8.1,18 L6.83,16.73 C6.58,16.48 6.58,16.07 6.83,15.81 C7.08,15.56 7.49,15.56 7.75,15.81 L9.48,17.54 C9.73,17.8 9.73,18.2 9.48,18.46 Z"/>
</svg>

