<svg xmlns="http://www.w3.org/2000/svg" width="24" height="24" viewBox="0 0 24 24">
  <defs/>
  <path fill="#292D32" d="M16,2 L8,2 C4.5,2 3,4 3,7 L3,17 C3,20 4.5,22 8,22 L16,22 C19.5,22 21,20 21,17 L21,7 C21,4 19.5,2 16,2 Z M13.07,15.49 C12.56,17.12 10.77,17.97 10.27,17.97 C9.78,17.96 8.01,17.13 7.48,15.49 C7.15,14.46 7.54,13.19 8.61,12.84 C9.18,12.66 9.88,12.81 10.27,13.36 C10.64,12.79 11.37,12.66 11.93,12.84 C13.01,13.19 13.39,14.46 13.07,15.49 Z M18.5,9.25 L16.5,9.25 C14.98,9.25 13.75,8.02 13.75,6.5 L13.75,4.5 C13.75,4.09 14.09,3.75 14.5,3.75 C14.91,3.75 15.25,4.09 15.25,4.5 L15.25,6.5 C15.25,7.19 15.81,7.75 16.5,7.75 L18.5,7.75 C18.91,7.75 19.25,8.09 19.25,8.5 C19.25,8.91 18.91,9.25 18.5,9.25 Z"/>
</svg>

