<svg xmlns="http://www.w3.org/2000/svg" width="24" height="24" viewBox="0 0 24 24">
  <defs/>
  <path fill="#292D32" d="M3.23,1 L11.36,1 C12.04,1 12.59,1.56 12.59,2.25 L12.59,3.62 C12.59,4.12 12.28,4.74 11.97,5.05 L9.32,7.42 C8.95,7.73 8.7,8.36 8.7,8.85 L8.7,11.53 C8.7,11.9 8.45,12.4 8.15,12.59 L7.29,13.15 C6.49,13.65 5.38,13.09 5.38,12.09 L5.38,8.78 C5.38,8.34 5.13,7.78 4.89,7.47 L2.55,4.97 C2.24,4.66 2,4.1 2,3.72 L2,2.29 C2,1.56 2.55,1 3.23,1 Z"/>
  <path fill="#292D32" opacity="0.4" d="M17,2 L14.6,2 C14.32,2 14.1,2.22 14.1,2.5 C14.1,2.98 14.1,3.62 14.1,3.62 C14.1,4.61 13.57,5.58 13.05,6.11 L10.33,8.54 C10.3,8.61 10.25,8.71 10.22,8.79 L10.22,11.54 C10.22,12.45 9.68,13.44 8.94,13.89 L8.12,14.42 C7.66,14.71 7.15,14.85 6.64,14.85 C6.18,14.85 5.72,14.73 5.3,14.5 C4.65,14.14 4.2,13.55 4,12.87 L4,10.21 C4,10.08 3.95,9.95 3.85,9.86 L2.85,8.86 C2.53,8.55 2,8.77 2,9.21 L2,17 C2,19.76 4.24,22 7,22 L17,22 C19.76,22 22,19.76 22,17 L22,7 C22,4.24 19.76,2 17,2 Z"/>
  <path fill="#292D32" d="M18,13.75 L13,13.75 C12.59,13.75 12.25,13.41 12.25,13 C12.25,12.59 12.59,12.25 13,12.25 L18,12.25 C18.41,12.25 18.75,12.59 18.75,13 C18.75,13.41 18.41,13.75 18,13.75 Z"/>
  <path fill="#292D32" d="M18,17.75 L11,17.75 C10.59,17.75 10.25,17.41 10.25,17 C10.25,16.59 10.59,16.25 11,16.25 L18,16.25 C18.41,16.25 18.75,16.59 18.75,17 C18.75,17.41 18.41,17.75 18,17.75 Z"/>
</svg>

