<svg xmlns="http://www.w3.org/2000/svg" width="24" height="24" viewBox="0 0 24 24">
  <defs/>
  <path fill="#292D32" d="M16,2 L8,2 C4.5,2 3,4 3,7 L3,17 C3,20 4.5,22 8,22 L16,22 C19.5,22 21,20 21,17 L21,7 C21,4 19.5,2 16,2 Z M10.53,16.47 C10.82,16.76 10.82,17.24 10.53,17.53 C10.38,17.68 10.19,17.75 10,17.75 C9.81,17.75 9.62,17.68 9.47,17.53 L7.47,15.53 C7.18,15.24 7.18,14.76 7.47,14.47 L9.47,12.47 C9.76,12.18 10.24,12.18 10.53,12.47 C10.82,12.76 10.82,13.24 10.53,13.53 L9.06,15 L10.53,16.47 Z M16.53,15.53 L14.53,17.53 C14.38,17.68 14.19,17.75 14,17.75 C13.81,17.75 13.62,17.68 13.47,17.53 C13.18,17.24 13.18,16.76 13.47,16.47 L14.94,15 L13.47,13.53 C13.18,13.24 13.18,12.76 13.47,12.47 C13.76,12.18 14.24,12.18 14.53,12.47 L16.53,14.47 C16.82,14.76 16.82,15.24 16.53,15.53 Z M18.5,9.25 L16.5,9.25 C14.98,9.25 13.75,8.02 13.75,6.5 L13.75,4.5 C13.75,4.09 14.09,3.75 14.5,3.75 C14.91,3.75 15.25,4.09 15.25,4.5 L15.25,6.5 C15.25,7.19 15.81,7.75 16.5,7.75 L18.5,7.75 C18.91,7.75 19.25,8.09 19.25,8.5 C19.25,8.91 18.91,9.25 18.5,9.25 Z"/>
</svg>

