<svg xmlns="http://www.w3.org/2000/svg" width="24" height="24" viewBox="0 0 24 24">
  <defs/>
  <path fill="#292D32" d="M2.25,7 Q2.25,1.25 8,1.25 L16,1.25 Q21.75,1.25 21.75,7 L21.75,17 Q21.75,22.75 16,22.75 L8,22.75 Q2.25,22.75 2.25,17 L2.25,11.02 Q2.25,10.709 2.47,10.49 Q2.689,10.27 3,10.27 Q3.311,10.27 3.53,10.49 Q3.75,10.709 3.75,11.02 L3.75,17 Q3.75,21.25 8,21.25 L16,21.25 Q20.25,21.25 20.25,17 L20.25,7 Q20.25,2.75 16,2.75 L8,2.75 Q3.75,2.75 3.75,7 Q3.75,7.311 3.53,7.53 Q3.311,7.75 3,7.75 Q2.689,7.75 2.47,7.53 Q2.25,7.311 2.25,7 Z"/>
  <path fill="#292D32" d="M15.25,4.5 L15.25,6.5 Q15.25,7.75 16.5,7.75 L18.5,7.75 Q18.811,7.75 19.03,7.97 Q19.25,8.189 19.25,8.5 Q19.25,8.811 19.03,9.03 Q18.811,9.25 18.5,9.25 L16.5,9.25 Q13.75,9.25 13.75,6.5 L13.75,4.5 Q13.75,4.189 13.97,3.97 Q14.189,3.75 14.5,3.75 Q14.811,3.75 15.03,3.97 Q15.25,4.189 15.25,4.5 Z"/>
  <path fill="#292D32" d="M6.765,15.719 Q5.876,12.945 8.376,12.127 Q9.473,11.781 10.252,12.298 Q11.023,11.761 12.159,12.126 Q14.649,12.933 13.785,15.713 Q12.844,18.72 10.269,18.72 Q7.718,18.668 6.766,15.721 Z M8.193,15.259 L8.193,15.261 Q8.817,17.19 10.269,17.22 Q11.742,17.22 12.353,15.268 Q12.777,13.903 11.7,13.554 Q11.152,13.378 10.898,13.768 Q10.82,13.889 10.703,13.972 Q10.449,14.152 10.143,14.099 Q9.837,14.047 9.657,13.794 Q9.369,13.387 8.842,13.553 Q7.76,13.907 8.193,15.259 Z"/>
</svg>

