<svg xmlns="http://www.w3.org/2000/svg" width="24" height="24" viewBox="0 0 24 24">
  <defs/>
  <path fill="#292D32" opacity="0.4" d="M21,7 L21,17 C21,20 19.5,22 16,22 L8,22 C4.5,22 3,20 3,17 L3,7 C3,4 4.5,2 8,2 L16,2 C19.5,2 21,4 21,7 Z"/>
  <path fill="#292D32" d="M18.5,9.25 L16.5,9.25 C14.98,9.25 13.75,8.02 13.75,6.5 L13.75,4.5 C13.75,4.09 14.09,3.75 14.5,3.75 C14.91,3.75 15.25,4.09 15.25,4.5 L15.25,6.5 C15.25,7.19 15.81,7.75 16.5,7.75 L18.5,7.75 C18.91,7.75 19.25,8.09 19.25,8.5 C19.25,8.91 18.91,9.25 18.5,9.25 Z"/>
  <path fill="#292D32" d="M12,13.75 L8,13.75 C7.59,13.75 7.25,13.41 7.25,13 C7.25,12.59 7.59,12.25 8,12.25 L12,12.25 C12.41,12.25 12.75,12.59 12.75,13 C12.75,13.41 12.41,13.75 12,13.75 Z"/>
  <path fill="#292D32" d="M16,17.75 L8,17.75 C7.59,17.75 7.25,17.41 7.25,17 C7.25,16.59 7.59,16.25 8,16.25 L16,16.25 C16.41,16.25 16.75,16.59 16.75,17 C16.75,17.41 16.41,17.75 16,17.75 Z"/>
</svg>

