<svg xmlns="http://www.w3.org/2000/svg" width="24" height="24" viewBox="0 0 24 24">
  <defs/>
  <path fill="#292D32" d="M20.5,10.19 L17.61,10.19 C15.24,10.19 13.31,8.26 13.31,5.89 L13.31,3 C13.31,2.45 12.86,2 12.31,2 L8.07,2 C4.99,2 2.5,4 2.5,7.57 L2.5,16.43 C2.5,20 4.99,22 8.07,22 L15.93,22 C19.01,22 21.5,20 21.5,16.43 L21.5,11.19 C21.5,10.64 21.05,10.19 20.5,10.19 Z M13.75,14.94 C13.75,14.99 13.75,15.05 13.75,15.1 C13.73,15.24 13.67,15.37 13.57,15.49 C13.56,15.5 13.54,15.52 13.53,15.53 L11.53,17.53 C11.38,17.68 11.19,17.75 11,17.75 C10.81,17.75 10.62,17.68 10.47,17.53 C10.18,17.24 10.18,16.76 10.47,16.47 L11.19,15.75 L7,15.75 C6.59,15.75 6.25,15.41 6.25,15 C6.25,14.59 6.59,14.25 7,14.25 L11.19,14.25 L10.47,13.53 C10.32,13.38 10.25,13.19 10.25,13 C10.25,12.81 10.32,12.62 10.47,12.47 C10.76,12.18 11.24,12.18 11.53,12.47 L13.53,14.47 C13.66,14.61 13.73,14.77 13.75,14.94 Z"/>
  <path fill="#292D32" d="M17.43,8.81 C18.38,8.82 19.7,8.82 20.83,8.82 C21.4,8.82 21.7,8.15 21.3,7.75 C19.86,6.3 17.28,3.69 15.8,2.21 C15.39,1.8 14.68,2.08 14.68,2.65 L14.68,6.14 C14.68,7.6 15.92,8.81 17.43,8.81 Z"/>
</svg>

