<svg xmlns="http://www.w3.org/2000/svg" width="24" height="24" viewBox="0 0 24 24">
  <defs/>
  <path fill="#292D32" d="M20.5,10.19 L17.61,10.19 C15.24,10.19 13.31,8.26 13.31,5.89 L13.31,3 C13.31,2.45 12.86,2 12.31,2 L8.07,2 C4.99,2 2.5,4 2.5,7.57 L2.5,16.43 C2.5,20 4.99,22 8.07,22 L15.93,22 C19.01,22 21.5,20 21.5,16.43 L21.5,11.19 C21.5,10.64 21.05,10.19 20.5,10.19 Z M12.4,15.58 L10.54,17.44 C10.31,17.67 9.99,17.8 9.65,17.8 C9.31,17.8 9,17.67 8.76,17.44 L6.9,15.58 C6.49,15.17 6.42,14.48 6.75,14 L7.6,12.72 C7.81,12.39 8.25,12.16 8.64,12.16 L10.65,12.16 C11.04,12.16 11.47,12.39 11.69,12.72 L12.55,14 C12.86,14.48 12.8,15.17 12.4,15.58 Z"/>
  <path fill="#292D32" d="M17.43,8.81 C18.38,8.82 19.7,8.82 20.83,8.82 C21.4,8.82 21.7,8.15 21.3,7.75 C19.86,6.3 17.28,3.69 15.8,2.21 C15.39,1.8 14.68,2.08 14.68,2.65 L14.68,6.14 C14.68,7.6 15.92,8.81 17.43,8.81 Z"/>
</svg>

