<svg xmlns="http://www.w3.org/2000/svg" width="24" height="24" viewBox="0 0 24 24">
  <defs/>
  <path fill="#292D32" opacity="0.4" d="M20.5,10.19 L17.61,10.19 C15.24,10.19 13.31,8.26 13.31,5.89 L13.31,3 C13.31,2.45 12.86,2 12.31,2 L8.07,2 C4.99,2 2.5,4 2.5,7.57 L2.5,16.43 C2.5,20 4.99,22 8.07,22 L15.93,22 C19.01,22 21.5,20 21.5,16.43 L21.5,11.19 C21.5,10.64 21.05,10.19 20.5,10.19 Z"/>
  <path fill="#292D32" d="M15.8,2.21 C15.39,1.8 14.68,2.08 14.68,2.65 L14.68,6.14 C14.68,7.6 15.92,8.81 17.43,8.81 C18.38,8.82 19.7,8.82 20.83,8.82 C21.4,8.82 21.7,8.15 21.3,7.75 C19.86,6.3 17.28,3.69 15.8,2.21 Z"/>
  <path fill="#292D32" d="M12.55,14 L11.7,12.72 C11.49,12.39 11.05,12.16 10.66,12.16 L8.64,12.16 C8.25,12.16 7.82,12.39 7.6,12.72 L6.75,14 C6.42,14.48 6.49,15.17 6.9,15.58 L8.76,17.44 C9,17.67 9.32,17.8 9.65,17.8 C9.98,17.8 10.3,17.67 10.54,17.44 L12.4,15.58 C12.8,15.17 12.86,14.48 12.55,14 Z"/>
</svg>

