<svg xmlns="http://www.w3.org/2000/svg" width="24" height="24" viewBox="0 0 24 24">
  <defs/>
  <path fill="#292D32" opacity="0.4" d="M16.19,2 L7.81,2 C4.17,2 2,4.17 2,7.81 L2,16.18 C2,19.83 4.17,22 7.81,22 L16.18,22 C19.82,22 21.99,19.83 21.99,16.19 L21.99,7.81 C22,4.17 19.83,2 16.19,2 Z"/>
  <path fill="#292D32" d="M14.26,12 L12.75,11.47 L12.75,8.08 L13.11,8.08 C13.92,8.08 14.58,8.79 14.58,9.66 C14.58,10.07 14.92,10.41 15.33,10.41 C15.74,10.41 16.08,10.07 16.08,9.66 C16.08,7.96 14.75,6.58 13.11,6.58 L12.75,6.58 L12.75,6 C12.75,5.59 12.41,5.25 12,5.25 C11.59,5.25 11.25,5.59 11.25,6 L11.25,6.58 L10.6,6.58 C9.12,6.58 7.91,7.83 7.91,9.36 C7.91,11.15 8.95,11.72 9.74,12 L11.25,12.53 L11.25,15.91 L10.89,15.91 C10.08,15.91 9.42,15.2 9.42,14.33 C9.42,13.92 9.08,13.58 8.67,13.58 C8.26,13.58 7.92,13.92 7.92,14.33 C7.92,16.03 9.25,17.41 10.89,17.41 L11.25,17.41 L11.25,18 C11.25,18.41 11.59,18.75 12,18.75 C12.41,18.75 12.75,18.41 12.75,18 L12.75,17.42 L13.4,17.42 C14.88,17.42 16.09,16.17 16.09,14.64 C16.08,12.84 15.04,12.27 14.26,12 Z M10.24,10.59 C9.73,10.41 9.42,10.24 9.42,9.37 C9.42,8.66 9.95,8.09 10.61,8.09 L11.26,8.09 L11.26,10.95 L10.24,10.59 Z M13.4,15.92 L12.75,15.92 L12.75,13.06 L13.76,13.41 C14.27,13.59 14.58,13.76 14.58,14.63 C14.58,15.34 14.05,15.92 13.4,15.92 Z"/>
</svg>

