<svg xmlns="http://www.w3.org/2000/svg" width="24" height="24" viewBox="0 0 24 24">
  <defs/>
  <path fill="#292D32" d="M11.252,8.078 L11.252,10.938 L10.242,10.588 C9.732,10.408 9.422,10.238 9.422,9.368 C9.422,8.658 9.952,8.078 10.602,8.078 L11.252,8.078 Z"/>
  <path fill="#292D32" d="M14.58,14.629 C14.58,15.339 14.05,15.919 13.4,15.919 L12.75,15.919 L12.75,13.059 L13.76,13.409 C14.27,13.589 14.58,13.759 14.58,14.629 Z"/>
  <path fill="#292D32" d="M16.19,2 L7.81,2 C4.17,2 2,4.17 2,7.81 L2,16.19 C2,19.83 4.17,22 7.81,22 L16.19,22 C19.83,22 22,19.83 22,16.19 L22,7.81 C22,4.17 19.83,2 16.19,2 Z M14.26,12 C15.04,12.27 16.08,12.84 16.08,14.63 C16.08,16.17 14.88,17.42 13.4,17.42 L12.75,17.42 L12.75,18 C12.75,18.41 12.41,18.75 12,18.75 C11.59,18.75 11.25,18.41 11.25,18 L11.25,17.42 L10.89,17.42 C9.25,17.42 7.92,16.03 7.92,14.33 C7.92,13.92 8.25,13.58 8.67,13.58 C9.08,13.58 9.42,13.92 9.42,14.33 C9.42,15.21 10.08,15.92 10.89,15.92 L11.25,15.92 L11.25,12.53 L9.74,12 C8.96,11.73 7.92,11.16 7.92,9.37 C7.92,7.83 9.12,6.58 10.6,6.58 L11.25,6.58 L11.25,6 C11.25,5.59 11.59,5.25 12,5.25 C12.41,5.25 12.75,5.59 12.75,6 L12.75,6.58 L13.11,6.58 C14.75,6.58 16.08,7.97 16.08,9.67 C16.08,10.08 15.75,10.42 15.33,10.42 C14.92,10.42 14.58,10.08 14.58,9.67 C14.58,8.79 13.92,8.08 13.11,8.08 L12.75,8.08 L12.75,11.47 L14.26,12 Z"/>
</svg>

