<svg xmlns="http://www.w3.org/2000/svg" width="24" height="24" viewBox="0 0 24 24">
  <defs/>
  <path fill="#292D32" d="M12.75,15.92 L13.4,15.92 C14.05,15.92 14.59,15.34 14.59,14.64 C14.59,13.77 14.28,13.6 13.77,13.42 L12.76,13.07 L12.76,15.92 L12.75,15.92 Z"/>
  <path fill="#292D32" d="M11.97,1.898 C6.45,1.918 1.98,6.408 2,11.928 C2.02,17.448 6.51,21.919 12.03,21.898 C17.55,21.878 22.02,17.389 22,11.868 C21.98,6.348 17.49,1.888 11.97,1.898 Z M14.26,11.998 C15.04,12.268 16.09,12.848 16.09,14.639 C16.09,16.178 14.88,17.419 13.4,17.419 L12.75,17.419 L12.75,17.998 C12.75,18.409 12.41,18.748 12,18.748 C11.59,18.748 11.25,18.409 11.25,17.998 L11.25,17.419 L10.89,17.419 C9.25,17.419 7.92,16.038 7.92,14.338 C7.92,13.928 8.26,13.588 8.67,13.588 C9.08,13.588 9.42,13.928 9.42,14.338 C9.42,15.209 10.08,15.918 10.89,15.918 L11.25,15.918 L11.25,12.539 L9.74,11.998 C8.96,11.729 7.91,11.149 7.91,9.358 C7.91,7.818 9.12,6.578 10.6,6.578 L11.25,6.578 L11.25,5.998 C11.25,5.588 11.59,5.248 12,5.248 C12.41,5.248 12.75,5.588 12.75,5.998 L12.75,6.578 L13.11,6.578 C14.75,6.578 16.08,7.958 16.08,9.658 C16.08,10.069 15.74,10.409 15.33,10.409 C14.92,10.409 14.58,10.069 14.58,9.658 C14.58,8.788 13.92,8.078 13.11,8.078 L12.75,8.078 L12.75,11.459 L14.26,11.998 Z"/>
  <path fill="#292D32" d="M9.422,9.368 C9.422,10.238 9.732,10.408 10.242,10.588 L11.252,10.938 L11.252,8.078 L10.602,8.078 C9.952,8.078 9.422,8.658 9.422,9.368 Z"/>
</svg>

