<svg xmlns="http://www.w3.org/2000/svg" width="24" height="24" viewBox="0 0 24 24">
  <defs/>
  <g opacity="0.4">
    <path fill="#292D32" d="M9.422,14.33 Q9.422,14.997 9.864,15.461 Q10.291,15.91 10.892,15.91 L13.402,15.91 Q14.592,15.91 14.592,14.63 Q14.592,13.698 13.771,13.407 L9.746,12.008 Q7.922,11.362 7.922,9.37 Q7.922,8.229 8.698,7.417 Q9.489,6.59 10.612,6.59 L13.122,6.59 Q16.092,6.59 16.092,9.67 Q16.092,9.98 15.872,10.2 Q15.653,10.42 15.342,10.42 Q15.031,10.42 14.812,10.2 Q14.592,9.98 14.592,9.67 Q14.592,8.09 13.122,8.09 L10.612,8.09 Q9.422,8.09 9.422,9.37 Q9.422,10.302 10.238,10.591 L14.272,11.993 Q16.092,12.638 16.092,14.63 Q16.092,15.771 15.315,16.583 Q14.525,17.41 13.402,17.41 L10.892,17.41 Q7.922,17.41 7.922,14.33 Q7.922,14.019 8.142,13.799 Q8.361,13.58 8.672,13.58 Q8.983,13.58 9.202,13.799 Q9.422,14.019 9.422,14.33 Z"/>
    <path fill="#292D32" d="M12.75,6 L12.75,18 Q12.75,18.311 12.53,18.53 Q12.311,18.75 12,18.75 Q11.689,18.75 11.47,18.53 Q11.25,18.311 11.25,18 L11.25,6 Q11.25,5.689 11.47,5.47 Q11.689,5.25 12,5.25 Q12.311,5.25 12.53,5.47 Q12.75,5.689 12.75,6 Z"/>
  </g>
  <path fill="#292D32" d="M15,22.75 L9,22.75 Q1.25,22.75 1.25,15 L1.25,9 Q1.25,1.25 9,1.25 L15,1.25 Q22.75,1.25 22.75,9 L22.75,15 Q22.75,22.75 15,22.75 Z M15,21.25 Q18.439,21.25 19.845,19.845 Q21.25,18.439 21.25,15 L21.25,9 Q21.25,5.561 19.845,4.155 Q18.439,2.75 15,2.75 L9,2.75 Q2.75,2.75 2.75,9 L2.75,15 Q2.75,21.25 9,21.25 Z"/>
</svg>

