<svg xmlns="http://www.w3.org/2000/svg" width="24" height="24" viewBox="0 0 24 24">
  <defs/>
  <path d="M6.87,12.28 C6.45,12.28 6.02,12.26 5.6,12.22 L2.43,11.93 C2.02,11.89 1.71,11.53 1.75,11.11 C1.79,10.7 2.14,10.39 2.57,10.43 L5.74,10.72 C10.64,11.17 15.399,8.69 17.849,4.41 C18.059,4.05 18.51,3.93 18.87,4.13 C19.23,4.34 19.35,4.79 19.15,5.15 C16.63,9.58 11.9,12.28 6.87,12.28 Z"/>
  <path d="M5.5,20.12 C5.37,20.12 5.25,20.09 5.13,20.02 C4.77,19.81 4.65,19.36 4.85,19 C7.59,14.21 12.91,11.43 18.4,11.94 L21.57,12.23 C21.98,12.27 22.29,12.63 22.25,13.05 C22.21,13.46 21.86,13.76 21.43,13.73 L18.26,13.44 C13.36,12.99 8.6,15.47 6.15,19.75 C6.01,19.99 5.76,20.12 5.5,20.12 Z"/>
  <path d="M12,22.75 C6.07,22.75 1.25,17.93 1.25,12 C1.25,6.07 6.07,1.25 12,1.25 C17.93,1.25 22.75,6.07 22.75,12 C22.75,17.93 17.93,22.75 12,22.75 Z M12,2.75 C6.9,2.75 2.75,6.9 2.75,12 C2.75,17.1 6.9,21.25 12,21.25 C17.1,21.25 21.25,17.1 21.25,12 C21.25,6.9 17.1,2.75 12,2.75 Z"/>
  <path d="M16.47,21.7 C16.13,21.7 15.83,21.47 15.74,21.13 L14.53,16.14 C13.761,12.98 12.28,9.97 10.23,7.43 L7.05,3.48 C6.79,3.16 6.84,2.69 7.16,2.43 C7.48,2.17 7.95,2.22 8.21,2.54 L11.39,6.49 C13.57,9.2 15.16,12.41 15.98,15.78 L17.19,20.77 C17.29,21.17 17.04,21.58 16.64,21.68 C16.59,21.69 16.53,21.7 16.47,21.7 Z"/>
</svg>

