<svg xmlns="http://www.w3.org/2000/svg" width="24" height="24" viewBox="0 0 24 24">
  <defs/>
  <path d="M19.151,5.162 Q14.649,13.041 5.603,12.227 L2.432,11.937 Q2.122,11.909 1.924,11.67 Q1.725,11.431 1.753,11.122 Q1.781,10.812 2.02,10.614 Q2.259,10.415 2.568,10.443 L5.737,10.733 Q13.824,11.461 17.849,4.418 Q18.003,4.148 18.303,4.066 Q18.602,3.985 18.872,4.139 Q19.142,4.293 19.224,4.593 Q19.305,4.892 19.151,5.162 Z"/>
  <path d="M4.849,18.998 Q9.351,11.119 18.397,11.933 L21.568,12.223 Q21.878,12.251 22.076,12.49 Q22.275,12.729 22.247,13.038 Q22.219,13.348 21.98,13.546 Q21.741,13.745 21.432,13.717 L18.263,13.427 Q10.176,12.699 6.151,19.742 Q5.997,20.012 5.697,20.094 Q5.398,20.175 5.128,20.021 Q4.858,19.867 4.776,19.567 Q4.695,19.268 4.849,18.998 Z"/>
  <path d="M8.215,2.53 L11.395,6.48 Q14.723,10.604 15.98,15.773 L17.19,20.763 Q17.263,21.065 17.101,21.33 Q16.94,21.596 16.638,21.669 Q16.336,21.742 16.07,21.58 Q15.805,21.419 15.732,21.117 L14.522,16.127 Q13.345,11.285 10.227,7.42 L7.047,3.47 Q6.852,3.228 6.885,2.919 Q6.919,2.611 7.161,2.416 Q7.403,2.221 7.711,2.254 Q8.02,2.288 8.215,2.53 Z"/>
  <path fill="#17191C" d="M4.6,6.449 Q2.75,8.922 2.75,12 Q2.75,15.829 5.46,18.54 Q8.171,21.25 12,21.25 Q15.829,21.25 18.54,18.54 Q21.25,15.829 21.25,12 Q21.25,8.171 18.54,5.46 Q15.829,2.75 12,2.75 Q10.031,2.75 8.276,3.535 Q7.993,3.661 7.702,3.551 Q7.412,3.44 7.285,3.156 Q7.158,2.873 7.269,2.582 Q7.38,2.292 7.664,2.165 Q9.711,1.25 12,1.25 Q16.451,1.25 19.6,4.4 Q22.75,7.549 22.75,12 Q22.75,16.451 19.6,19.6 Q16.451,22.75 12,22.75 Q7.549,22.75 4.4,19.6 Q1.25,16.451 1.25,12 Q1.25,8.422 3.4,5.551 Q3.586,5.302 3.893,5.258 Q4.201,5.213 4.449,5.4 Q4.698,5.586 4.742,5.893 Q4.787,6.201 4.6,6.449 Z"/>
</svg>

