<svg xmlns="http://www.w3.org/2000/svg" width="24" height="24" viewBox="0 0 24 24">
  <defs/>
  <path d="M15.88,20.921 C15.91,21.081 15.82,21.251 15.67,21.311 C14.54,21.761 13.3,22.001 12.021,22.001 C9.81,22.001 7.77,21.291 6.12,20.071 C5.98,19.971 5.94,19.771 6.03,19.621 C6.58,18.641 8.73,15.491 13.48,13.731 C13.66,13.661 13.86,13.751 13.92,13.931 C15.11,17.121 15.67,19.821 15.88,20.921 Z"/>
  <path d="M21.82,13.888 C21.36,16.348 19.98,18.488 18.05,19.948 C17.84,20.108 17.54,19.988 17.49,19.738 C17.28,18.658 16.77,16.328 15.79,13.558 C15.72,13.348 15.86,13.118 16.08,13.088 C18.57,12.788 20.75,13.268 21.57,13.488 C21.74,13.548 21.85,13.718 21.82,13.888 Z"/>
  <path d="M21.59,11.819 C20.57,11.639 17.97,11.259 15.31,11.549 C15.15,11.569 15.01,11.479 14.94,11.329 C14.9,11.239 14.87,11.149 14.83,11.059 C14.67,10.689 14.5,10.309 14.33,9.939 C14.24,9.759 14.33,9.539 14.51,9.459 C17.31,8.249 18.87,6.689 19.48,5.989 C19.63,5.819 19.89,5.829 20.03,6.009 C21.18,7.539 21.89,9.409 22,11.429 C22.01,11.679 21.81,11.859 21.59,11.819 Z"/>
  <path d="M18.44,4.792 C17.92,5.422 16.46,6.922 13.69,8.022 C13.53,8.092 13.34,8.022 13.25,7.862 C11.97,5.542 10.61,3.592 9.98,2.712 C9.83,2.502 9.95,2.202 10.2,2.162 C10.78,2.062 11.39,2.012 12.01,2.012 C14.43,2.012 16.66,2.872 18.39,4.312 C18.54,4.422 18.56,4.642 18.44,4.792 Z"/>
  <path d="M11.021,8.839 C7.231,9.789 3.881,9.919 2.661,9.939 C2.431,9.939 2.261,9.719 2.321,9.499 C3.041,6.699 4.961,4.359 7.491,3.069 C7.641,2.989 7.831,3.039 7.931,3.179 C8.451,3.899 9.861,5.929 11.241,8.319 C11.351,8.519 11.251,8.779 11.021,8.839 Z"/>
  <path d="M12.92,11.599 C13.01,11.789 12.9,12.019 12.7,12.089 C8.27,13.519 5.62,17.069 4.82,18.289 C4.69,18.489 4.41,18.499 4.26,18.319 C2.86,16.599 2.01,14.629 2.01,12.239 L2.01,12.059 C2.01,11.859 2.17,11.699 2.37,11.709 C3.63,11.759 7.74,11.589 12.01,10.359 C12.17,10.309 12.35,10.389 12.42,10.539 C12.59,10.889 12.76,11.239 12.92,11.599 Z"/>
</svg>

