<svg xmlns="http://www.w3.org/2000/svg" width="24" height="24" viewBox="0 0 24 24">
  <defs/>
  <path fill="white" opacity="0.58" d="M24,0 L0,0 L0,24 L24,24 L24,0 Z"/>
  <path d="M15.88,20.92 C15.91,21.08 15.82,21.25 15.67,21.31 C14.53,21.76 13.3,22 12.01,22 C9.81,22 7.76,21.29 6.11,20.07 C5.97,19.97 5.93,19.77 6.02,19.62 C6.57,18.64 8.72,15.49 13.47,13.73 C13.65,13.66 13.85,13.75 13.91,13.93 C15.11,17.12 15.67,19.82 15.88,20.92 Z"/>
  <path d="M21.82,13.89 C21.36,16.35 19.98,18.49 18.05,19.95 C17.84,20.11 17.54,19.99 17.49,19.74 C17.28,18.66 16.77,16.33 15.79,13.56 C15.72,13.35 15.86,13.12 16.08,13.09 C18.57,12.79 20.75,13.27 21.57,13.49 C21.74,13.55 21.85,13.72 21.82,13.89 Z"/>
  <path opacity="0.4" d="M21.59,11.82 C20.57,11.64 17.97,11.26 15.31,11.55 C15.15,11.57 15.01,11.48 14.94,11.33 C14.9,11.24 14.87,11.15 14.83,11.06 C14.67,10.69 14.5,10.31 14.33,9.94 C14.24,9.76 14.33,9.54 14.51,9.46 C17.31,8.25 18.87,6.69 19.48,5.99 C19.63,5.82 19.89,5.83 20.03,6.01 C21.18,7.54 21.89,9.41 22,11.43 C22.01,11.68 21.81,11.86 21.59,11.82 Z"/>
  <path d="M18.44,4.79 C17.92,5.42 16.46,6.92 13.69,8.02 C13.53,8.09 13.34,8.02 13.25,7.86 C11.97,5.54 10.61,3.59 9.98,2.71 C9.83,2.49 9.95,2.2 10.21,2.15 Q11.08,2 12.01,2 C14.43,2 16.66,2.86 18.39,4.3 C18.54,4.42 18.56,4.64 18.44,4.79 Z"/>
  <path d="M11.02,8.84 C7.23,9.79 3.88,9.92 2.66,9.94 C2.43,9.94 2.26,9.72 2.32,9.5 C3.04,6.7 4.96,4.36 7.49,3.07 C7.64,2.99 7.83,3.04 7.93,3.18 C8.45,3.9 9.86,5.93 11.24,8.32 C11.35,8.52 11.25,8.78 11.02,8.84 Z"/>
  <path opacity="0.4" d="M12.92,11.6 C13.01,11.79 12.9,12.02 12.7,12.09 C8.27,13.52 5.62,17.07 4.82,18.29 C4.69,18.49 4.41,18.5 4.26,18.32 C2.85,16.6 2,14.63 2,12.23 L2,12.05 C2,11.85 2.16,11.69 2.36,11.7 C3.62,11.75 7.73,11.58 12,10.35 C12.16,10.3 12.34,10.38 12.41,10.53 C12.59,10.89 12.76,11.24 12.92,11.6 Z"/>
</svg>

