<svg xmlns="http://www.w3.org/2000/svg" width="24" height="24" viewBox="0 0 24 24">
  <defs/>
  <path fill="#292D32" d="M6.75,6.25 L6.75,8.25 Q6.75,8.561 6.53,8.78 Q6.311,9 6,9 Q5.689,9 5.47,8.78 Q5.25,8.561 5.25,8.25 L5.25,6.25 Q5.25,5.939 5.47,5.72 Q5.689,5.5 6,5.5 Q6.311,5.5 6.53,5.72 Q6.75,5.939 6.75,6.25 Z"/>
  <path fill="#292D32" d="M10.75,6.25 L10.75,8.25 Q10.75,8.561 10.53,8.78 Q10.311,9 10,9 Q9.689,9 9.47,8.78 Q9.25,8.561 9.25,8.25 L9.25,6.25 Q9.25,5.939 9.47,5.72 Q9.689,5.5 10,5.5 Q10.311,5.5 10.53,5.72 Q10.75,5.939 10.75,6.25 Z"/>
  <path fill="#292D32" d="M1.25,9 Q1.25,1.25 9,1.25 L15,1.25 Q22.75,1.25 22.75,9 L22.75,15 Q22.75,22.75 15,22.75 L9,22.75 Q1.25,22.75 1.25,15 L1.25,12 Q1.25,11.689 1.47,11.47 Q1.689,11.25 2,11.25 L18,11.25 Q18.311,11.25 18.53,11.47 Q18.75,11.689 18.75,12 Q18.75,12.311 18.53,12.53 Q18.311,12.75 18,12.75 L2.75,12.75 L2.75,15 Q2.75,21.25 9,21.25 L15,21.25 Q18.439,21.25 19.845,19.845 Q21.25,18.439 21.25,15 L21.25,9 Q21.25,5.561 19.845,4.155 Q18.439,2.75 15,2.75 L9,2.75 Q2.75,2.75 2.75,9 Q2.75,9.311 2.53,9.53 Q2.311,9.75 2,9.75 Q1.689,9.75 1.47,9.53 Q1.25,9.311 1.25,9 Z"/>
  <path fill="#292D32" d="M6.75,16 L6.75,18 Q6.75,18.311 6.53,18.53 Q6.311,18.75 6,18.75 Q5.689,18.75 5.47,18.53 Q5.25,18.311 5.25,18 L5.25,16 Q5.25,15.689 5.47,15.47 Q5.689,15.25 6,15.25 Q6.311,15.25 6.53,15.47 Q6.75,15.689 6.75,16 Z"/>
  <path fill="#292D32" d="M10.75,16 L10.75,18 Q10.75,18.311 10.53,18.53 Q10.311,18.75 10,18.75 Q9.689,18.75 9.47,18.53 Q9.25,18.311 9.25,18 L9.25,16 Q9.25,15.689 9.47,15.47 Q9.689,15.25 10,15.25 Q10.311,15.25 10.53,15.47 Q10.75,15.689 10.75,16 Z"/>
  <path fill="#292D32" d="M14,6.5 L18,6.5 Q18.311,6.5 18.53,6.72 Q18.75,6.939 18.75,7.25 Q18.75,7.561 18.53,7.78 Q18.311,8 18,8 L14,8 Q13.689,8 13.47,7.78 Q13.25,7.561 13.25,7.25 Q13.25,6.939 13.47,6.72 Q13.689,6.5 14,6.5 Z"/>
  <path fill="#292D32" d="M14,16.25 L18,16.25 Q18.311,16.25 18.53,16.47 Q18.75,16.689 18.75,17 Q18.75,17.311 18.53,17.53 Q18.311,17.75 18,17.75 L14,17.75 Q13.689,17.75 13.47,17.53 Q13.25,17.311 13.25,17 Q13.25,16.689 13.47,16.47 Q13.689,16.25 14,16.25 Z"/>
</svg>

