<svg xmlns="http://www.w3.org/2000/svg" width="24" height="24" viewBox="0 0 24 24">
  <defs/>
  <path fill="#292D32" d="M11.281,2.75 L9.451,2.75 Q8.048,2.75 7.756,4.162 L7.124,7.18 L16.878,7.18 L16.247,4.164 Q15.952,2.75 14.551,2.75 Q14.241,2.75 14.021,2.53 Q13.801,2.311 13.801,2 Q13.801,1.689 14.021,1.47 Q14.241,1.25 14.551,1.25 Q17.17,1.25 17.715,3.856 L18.535,7.776 Q18.551,7.852 18.551,7.93 Q18.551,8.241 18.332,8.46 Q18.112,8.68 17.801,8.68 L6.201,8.68 Q6.124,8.68 6.048,8.664 Q5.744,8.6 5.573,8.34 Q5.403,8.081 5.467,7.776 L6.287,3.858 Q6.827,1.25 9.451,1.25 L11.281,1.25 Q11.592,1.25 11.812,1.47 Q12.031,1.689 12.031,2 Q12.031,2.311 11.812,2.53 Q11.592,2.75 11.281,2.75 Z"/>
  <path fill="#292D32" d="M19.907,13.363 L19.987,14.253 Q20.079,15.222 19.411,15.94 Q18.75,16.65 17.771,16.65 L16.41,16.65 Q15.09,16.65 14.669,15.387 L14.522,14.967 Q14.518,14.953 14.517,14.951 Q14.357,14.48 13.851,14.48 L10.141,14.48 Q9.631,14.48 9.472,14.957 L9.319,15.397 L9.319,15.397 Q9.318,15.398 9.317,15.402 Q8.891,16.65 7.581,16.65 L6.221,16.65 Q5.241,16.65 4.58,15.94 Q3.912,15.222 4.004,14.25 L4.414,9.831 Q4.658,7.17 7.371,7.17 L16.621,7.17 Q19.333,7.17 19.577,9.831 Q19.606,10.141 19.407,10.38 Q19.208,10.618 18.899,10.647 Q18.59,10.675 18.351,10.477 Q18.112,10.278 18.084,9.968 Q17.965,8.67 16.621,8.67 L7.371,8.67 Q6.027,8.67 5.907,9.969 L5.497,14.39 Q5.469,14.693 5.678,14.918 Q5.894,15.15 6.221,15.15 L7.581,15.15 Q7.818,15.15 7.898,14.917 L7.902,14.903 L8.049,14.483 Q8.55,12.98 10.141,12.98 L13.851,12.98 Q15.433,12.98 15.938,14.47 L15.939,14.473 L16.092,14.913 Q16.171,15.15 16.41,15.15 L17.771,15.15 Q18.097,15.15 18.313,14.918 Q18.522,14.693 18.494,14.387 L18.414,13.497 Q18.386,13.188 18.585,12.949 Q18.784,12.711 19.093,12.683 Q19.403,12.655 19.641,12.854 Q19.88,13.053 19.907,13.363 Z"/>
  <path fill="#292D32" d="M6.201,6.5 L5.471,6.5 Q5.16,6.5 4.94,6.28 Q4.721,6.061 4.721,5.75 Q4.721,5.439 4.94,5.22 Q5.16,5 5.471,5 L6.201,5 Q6.511,5 6.731,5.22 Q6.951,5.439 6.951,5.75 Q6.951,6.061 6.731,6.28 Q6.511,6.5 6.201,6.5 Z"/>
  <path fill="#292D32" d="M18.531,6.5 L17.801,6.5 Q17.49,6.5 17.27,6.28 Q17.051,6.061 17.051,5.75 Q17.051,5.439 17.27,5.22 Q17.49,5 17.801,5 L18.531,5 Q18.841,5 19.061,5.22 Q19.281,5.439 19.281,5.75 Q19.281,6.061 19.061,6.28 Q18.841,6.5 18.531,6.5 Z"/>
  <path fill="#292D32" d="M7.65,10.08 L9.82,10.08 Q10.131,10.08 10.351,10.3 Q10.57,10.519 10.57,10.83 Q10.57,11.141 10.351,11.36 Q10.131,11.58 9.82,11.58 L7.65,11.58 Q7.34,11.58 7.12,11.36 Q6.9,11.141 6.9,10.83 Q6.9,10.519 7.12,10.3 Q7.34,10.08 7.65,10.08 Z"/>
  <path fill="#292D32" d="M14.18,10.08 L16.35,10.08 Q16.66,10.08 16.88,10.3 Q17.1,10.519 17.1,10.83 Q17.1,11.141 16.88,11.36 Q16.66,11.58 16.35,11.58 L14.18,11.58 Q13.869,11.58 13.649,11.36 Q13.43,11.141 13.43,10.83 Q13.43,10.519 13.649,10.3 Q13.869,10.08 14.18,10.08 Z"/>
  <path fill="#292D32" d="M12.75,17 L12.75,18 Q12.75,18.311 12.53,18.53 Q12.311,18.75 12,18.75 Q11.689,18.75 11.47,18.53 Q11.25,18.311 11.25,18 L11.25,17 Q11.25,16.689 11.47,16.47 Q11.689,16.25 12,16.25 Q12.311,16.25 12.53,16.47 Q12.75,16.689 12.75,17 Z"/>
  <path fill="#292D32" d="M12.75,21 L12.75,22 Q12.75,22.311 12.53,22.53 Q12.311,22.75 12,22.75 Q11.689,22.75 11.47,22.53 Q11.25,22.311 11.25,22 L11.25,21 Q11.25,20.689 11.47,20.47 Q11.689,20.25 12,20.25 Q12.311,20.25 12.53,20.47 Q12.75,20.689 12.75,21 Z"/>
  <path fill="#292D32" d="M3.728,18.182 L2.728,22.182 Q2.652,22.483 2.386,22.643 Q2.119,22.803 1.818,22.728 Q1.517,22.652 1.357,22.386 Q1.197,22.119 1.272,21.818 L2.272,17.818 Q2.348,17.517 2.614,17.357 Q2.881,17.197 3.182,17.272 Q3.483,17.348 3.643,17.614 Q3.803,17.881 3.728,18.182 Z"/>
  <path fill="#292D32" d="M21.728,17.818 L22.728,21.818 Q22.803,22.119 22.643,22.386 Q22.483,22.652 22.182,22.728 Q21.881,22.803 21.614,22.643 Q21.348,22.483 21.272,22.182 L20.272,18.182 Q20.197,17.881 20.357,17.614 Q20.517,17.348 20.818,17.272 Q21.119,17.197 21.386,17.357 Q21.652,17.517 21.728,17.818 Z"/>
</svg>

