<svg xmlns="http://www.w3.org/2000/svg" width="24" height="24" viewBox="0 0 24 24">
  <defs/>
  <path fill="#292D32" d="M9.93,12.75 L3,12.75 C2.45,12.75 2,13.2 2,13.75 L2,16.19 C2,19.4 4.6,22 7.81,22 L9.51,22 C10.28,22 10.75,21.18 10.38,20.5 C9.59,19.03 9.28,17.26 9.67,15.4 C9.81,14.72 10.05,14.08 10.37,13.48 C10.54,13.15 10.31,12.75 9.93,12.75 Z M6.75,18 C6.75,18.41 6.41,18.75 6,18.75 C5.59,18.75 5.25,18.41 5.25,18 L5.25,16 C5.25,15.59 5.59,15.25 6,15.25 C6.41,15.25 6.75,15.59 6.75,16 L6.75,18 Z"/>
  <path fill="#292D32" d="M16.19,2 L7.81,2 C4.6,2 2,4.6 2,7.81 L2,10.25 C2,10.8 2.45,11.25 3,11.25 L11.84,11.25 C12.06,11.25 12.27,11.17 12.45,11.03 C13.31,10.37 14.32,9.89 15.4,9.67 C17.26,9.28 19.03,9.59 20.5,10.38 C21.18,10.74 22,10.28 22,9.51 L22,7.81 C22,4.6 19.4,2 16.19,2 Z M6.75,8.25 C6.75,8.66 6.41,9 6,9 C5.59,9 5.25,8.66 5.25,8.25 L5.25,6.25 C5.25,5.84 5.59,5.5 6,5.5 C6.41,5.5 6.75,5.84 6.75,6.25 L6.75,8.25 Z M10.75,8.25 C10.75,8.66 10.41,9 10,9 C9.59,9 9.25,8.66 9.25,8.25 L9.25,6.25 C9.25,5.84 9.59,5.5 10,5.5 C10.41,5.5 10.75,5.84 10.75,6.25 L10.75,8.25 Z M18,8 L14,8 C13.59,8 13.25,7.66 13.25,7.25 C13.25,6.84 13.59,6.5 14,6.5 L18,6.5 C18.41,6.5 18.75,6.84 18.75,7.25 C18.75,7.66 18.41,8 18,8 Z"/>
  <path fill="#292D32" d="M17,11 C13.69,11 11,13.69 11,17 C11,20.31 13.69,23 17,23 C20.31,23 23,20.31 23,17 C23,13.69 20.31,11 17,11 Z M19.93,18.2 C19.77,18.59 19.54,18.94 19.24,19.24 C18.64,19.84 17.85,20.17 17,20.17 C16.32,20.17 15.68,19.95 15.14,19.55 L15.14,19.69 C15.14,20 14.89,20.26 14.57,20.26 C14.25,20.25 14,20 14,19.68 L14,18.24 C14,17.93 14.25,17.67 14.57,17.67 L16.01,17.67 C16.32,17.67 16.58,17.92 16.58,18.24 C16.58,18.53 16.37,18.75 16.09,18.79 C16.85,19.16 17.82,19.04 18.43,18.43 C18.62,18.24 18.77,18.01 18.87,17.76 C18.99,17.47 19.32,17.33 19.61,17.45 C19.91,17.57 20.05,17.91 19.93,18.2 Z M20,15.76 C20,16.07 19.75,16.33 19.43,16.33 L17.99,16.33 C17.68,16.33 17.42,16.08 17.42,15.76 C17.42,15.47 17.63,15.25 17.91,15.21 C17.15,14.84 16.18,14.96 15.56,15.57 C15.39,15.74 15.26,15.93 15.16,16.14 C15.06,16.35 14.86,16.47 14.65,16.47 C14.57,16.47 14.49,16.45 14.41,16.42 C14.13,16.29 14,15.95 14.14,15.66 C14.3,15.33 14.51,15.03 14.76,14.77 C15.36,14.17 16.15,13.84 17,13.84 C17.68,13.84 18.32,14.06 18.86,14.46 L18.86,14.33 C18.86,14.02 19.11,13.76 19.43,13.76 C19.75,13.76 20,14 20,14.32 L20,15.76 Z"/>
</svg>

