<svg xmlns="http://www.w3.org/2000/svg" width="24" height="24" viewBox="0 0 24 24">
  <defs/>
  <path fill="#292D32" d="M19.32,10.75 L4.69,10.75 Q3.27,10.75 2.264,9.741 Q1.26,8.734 1.26,7.32 L1.26,4.69 Q1.26,3.27 2.269,2.264 Q3.275,1.26 4.69,1.26 L19.32,1.26 Q22.75,1.26 22.75,4.69 L22.75,7.32 Q22.75,8.733 21.741,9.741 Q20.733,10.75 19.32,10.75 Z M19.32,9.25 Q21.25,9.25 21.25,7.32 L21.25,4.69 Q21.25,3.896 20.684,3.328 Q20.117,2.76 19.32,2.76 L4.69,2.76 Q2.76,2.76 2.76,4.69 L2.76,7.32 Q2.76,9.25 4.69,9.25 Z"/>
  <path fill="#292D32" d="M19.32,22.75 L4.69,22.75 Q3.27,22.75 2.264,21.741 Q1.26,20.734 1.26,19.32 L1.26,16.69 Q1.26,13.26 4.69,13.26 L19.32,13.26 Q22.75,13.26 22.75,16.69 L22.75,19.32 Q22.75,22.75 19.32,22.75 Z M19.32,21.25 Q20.112,21.25 20.681,20.681 Q21.25,20.112 21.25,19.32 L21.25,16.69 Q21.25,15.896 20.684,15.328 Q20.117,14.76 19.32,14.76 L4.69,14.76 Q2.76,14.76 2.76,16.69 L2.76,19.32 Q2.76,20.114 3.326,20.681 Q3.893,21.25 4.69,21.25 Z"/>
  <path fill="#292D32" opacity="0.4" d="M6.75,5 L6.75,7 Q6.75,7.311 6.53,7.53 Q6.311,7.75 6,7.75 Q5.689,7.75 5.47,7.53 Q5.25,7.311 5.25,7 L5.25,5 Q5.25,4.689 5.47,4.47 Q5.689,4.25 6,4.25 Q6.311,4.25 6.53,4.47 Q6.75,4.689 6.75,5 Z"/>
  <path fill="#292D32" opacity="0.4" d="M10.75,5 L10.75,7 Q10.75,7.311 10.53,7.53 Q10.311,7.75 10,7.75 Q9.689,7.75 9.47,7.53 Q9.25,7.311 9.25,7 L9.25,5 Q9.25,4.689 9.47,4.47 Q9.689,4.25 10,4.25 Q10.311,4.25 10.53,4.47 Q10.75,4.689 10.75,5 Z"/>
  <path fill="#292D32" opacity="0.4" d="M6.75,17 L6.75,19 Q6.75,19.311 6.53,19.53 Q6.311,19.75 6,19.75 Q5.689,19.75 5.47,19.53 Q5.25,19.311 5.25,19 L5.25,17 Q5.25,16.689 5.47,16.47 Q5.689,16.25 6,16.25 Q6.311,16.25 6.53,16.47 Q6.75,16.689 6.75,17 Z"/>
  <path fill="#292D32" opacity="0.4" d="M10.75,17 L10.75,19 Q10.75,19.311 10.53,19.53 Q10.311,19.75 10,19.75 Q9.689,19.75 9.47,19.53 Q9.25,19.311 9.25,19 L9.25,17 Q9.25,16.689 9.47,16.47 Q9.689,16.25 10,16.25 Q10.311,16.25 10.53,16.47 Q10.75,16.689 10.75,17 Z"/>
  <path fill="#292D32" opacity="0.4" d="M14,5.25 L18,5.25 Q18.311,5.25 18.53,5.47 Q18.75,5.689 18.75,6 Q18.75,6.311 18.53,6.53 Q18.311,6.75 18,6.75 L14,6.75 Q13.689,6.75 13.47,6.53 Q13.25,6.311 13.25,6 Q13.25,5.689 13.47,5.47 Q13.689,5.25 14,5.25 Z"/>
  <path fill="#292D32" opacity="0.4" d="M14,17.25 L18,17.25 Q18.311,17.25 18.53,17.47 Q18.75,17.689 18.75,18 Q18.75,18.311 18.53,18.53 Q18.311,18.75 18,18.75 L14,18.75 Q13.689,18.75 13.47,18.53 Q13.25,18.311 13.25,18 Q13.25,17.689 13.47,17.47 Q13.689,17.25 14,17.25 Z"/>
</svg>

