<svg xmlns="http://www.w3.org/2000/svg" width="24" height="24" viewBox="0 0 24 24">
  <defs/>
  <path fill="#292D32" d="M12,18.75 C11.59,18.75 11.25,18.41 11.25,18 L11.25,17 C11.25,16.59 11.59,16.25 12,16.25 C12.41,16.25 12.75,16.59 12.75,17 L12.75,18 C12.75,18.41 12.41,18.75 12,18.75 Z"/>
  <path fill="#292D32" d="M12,22.75 C11.59,22.75 11.25,22.41 11.25,22 L11.25,21 C11.25,20.59 11.59,20.25 12,20.25 C12.41,20.25 12.75,20.59 12.75,21 L12.75,22 C12.75,22.41 12.41,22.75 12,22.75 Z"/>
  <path fill="#292D32" d="M2,22.75 C1.94,22.75 1.88,22.74 1.82,22.73 C1.42,22.63 1.17,22.22 1.27,21.82 L2.27,17.82 C2.37,17.42 2.77,17.17 3.18,17.27 C3.58,17.37 3.83,17.78 3.73,18.18 L2.73,22.18 C2.64,22.52 2.34,22.75 2,22.75 Z"/>
  <path fill="#292D32" d="M22.001,22.75 C21.661,22.75 21.361,22.52 21.271,22.18 L20.271,18.18 C20.171,17.78 20.411,17.37 20.821,17.27 C21.221,17.17 21.631,17.41 21.731,17.82 L22.731,21.82 C22.831,22.22 22.591,22.63 22.181,22.73 C22.121,22.74 22.061,22.75 22.001,22.75 Z"/>
  <path fill="#292D32" opacity="0.4" d="M19.26,9.52 C19.15,8.34 18.84,7.09 16.55,7.09 L7.45,7.09 C5.16,7.09 4.85,8.35 4.74,9.52 L4.34,13.86 C4.29,14.4 4.47,14.94 4.84,15.35 C5.22,15.76 5.76,16 6.32,16 L7.66,16 C8.81,16 9.03,15.34 9.18,14.9 L9.32,14.47 C9.48,13.98 9.52,13.86 10.17,13.86 L13.82,13.86 C14.46,13.86 14.48,13.93 14.67,14.47 L14.81,14.9 C14.96,15.34 15.18,16 16.33,16 L17.67,16 C18.23,16 18.77,15.76 19.15,15.35 C19.52,14.95 19.7,14.4 19.65,13.86 L19.26,9.52 Z"/>
  <path fill="#292D32" d="M18.421,4.94 L17.711,4.94 C17.701,4.94 17.701,4.94 17.701,4.94 L17.431,3.65 C17.171,2.4 16.641,1.25 14.511,1.25 L12.541,1.25 L11.471,1.25 L9.501,1.25 C7.371,1.25 6.841,2.4 6.581,3.65 L6.311,4.94 C6.301,4.94 6.301,4.94 6.301,4.94 L5.591,4.94 C5.291,4.94 5.051,5.18 5.051,5.48 C5.051,5.78 5.291,6.02 5.591,6.02 L6.101,6.02 L5.801,7.45 C6.191,7.23 6.721,7.09 7.461,7.09 L16.561,7.09 C17.301,7.09 17.841,7.23 18.221,7.45 L17.921,6.02 L18.431,6.02 C18.731,6.02 18.971,5.78 18.971,5.48 C18.961,5.18 18.721,4.94 18.421,4.94 Z"/>
  <path fill="#292D32" d="M9.86,11.01 L7.72,11.01 C7.42,11.01 7.18,10.77 7.18,10.47 C7.18,10.17 7.42,9.93 7.72,9.93 L9.86,9.93 C10.16,9.93 10.4,10.17 10.4,10.47 C10.39,10.77 10.15,11.01 9.86,11.01 Z"/>
  <path fill="#292D32" d="M16.28,11.01 L14.14,11.01 C13.84,11.01 13.6,10.77 13.6,10.47 C13.6,10.17 13.84,9.93 14.14,9.93 L16.28,9.93 C16.58,9.93 16.82,10.17 16.82,10.47 C16.82,10.77 16.58,11.01 16.28,11.01 Z"/>
</svg>

