<svg xmlns="http://www.w3.org/2000/svg" width="24" height="24" viewBox="0 0 24 24">
  <defs/>
  <path fill="#292D32" d="M19.32,10.75 L4.69,10.75 C2.8,10.75 1.26,9.21 1.26,7.32 L1.26,4.69 C1.26,2.8 2.8,1.26 4.69,1.26 L19.32,1.26 C21.21,1.26 22.75,2.8 22.75,4.69 L22.75,7.32 C22.75,9.21 21.21,10.75 19.32,10.75 Z M4.68,2.75 C3.61,2.75 2.75,3.62 2.75,4.68 L2.75,7.31 C2.75,8.38 3.62,9.24 4.68,9.24 L19.31,9.24 C20.38,9.24 21.24,8.37 21.24,7.31 L21.24,4.68 C21.24,3.61 20.37,2.75 19.31,2.75 L4.68,2.75 Z"/>
  <path fill="#292D32" d="M19.32,22.75 L4.69,22.75 C2.8,22.75 1.26,21.21 1.26,19.32 L1.26,16.69 C1.26,14.8 2.8,13.26 4.69,13.26 L19.32,13.26 C21.21,13.26 22.75,14.8 22.75,16.69 L22.75,19.32 C22.75,21.21 21.21,22.75 19.32,22.75 Z M4.68,14.75 C3.61,14.75 2.75,15.62 2.75,16.68 L2.75,19.31 C2.75,20.38 3.62,21.24 4.68,21.24 L19.31,21.24 C20.38,21.24 21.24,20.37 21.24,19.31 L21.24,16.68 C21.24,15.61 20.37,14.75 19.31,14.75 L4.68,14.75 Z"/>
  <path fill="#292D32" d="M6,7.75 C5.59,7.75 5.25,7.41 5.25,7 L5.25,5 C5.25,4.59 5.59,4.25 6,4.25 C6.41,4.25 6.75,4.59 6.75,5 L6.75,7 C6.75,7.41 6.41,7.75 6,7.75 Z"/>
  <path fill="#292D32" d="M10,7.75 C9.59,7.75 9.25,7.41 9.25,7 L9.25,5 C9.25,4.59 9.59,4.25 10,4.25 C10.41,4.25 10.75,4.59 10.75,5 L10.75,7 C10.75,7.41 10.41,7.75 10,7.75 Z"/>
  <path fill="#292D32" d="M6,19.75 C5.59,19.75 5.25,19.41 5.25,19 L5.25,17 C5.25,16.59 5.59,16.25 6,16.25 C6.41,16.25 6.75,16.59 6.75,17 L6.75,19 C6.75,19.41 6.41,19.75 6,19.75 Z"/>
  <path fill="#292D32" d="M10,19.75 C9.59,19.75 9.25,19.41 9.25,19 L9.25,17 C9.25,16.59 9.59,16.25 10,16.25 C10.41,16.25 10.75,16.59 10.75,17 L10.75,19 C10.75,19.41 10.41,19.75 10,19.75 Z"/>
  <path fill="#292D32" d="M18,6.75 L14,6.75 C13.59,6.75 13.25,6.41 13.25,6 C13.25,5.59 13.59,5.25 14,5.25 L18,5.25 C18.41,5.25 18.75,5.59 18.75,6 C18.75,6.41 18.41,6.75 18,6.75 Z"/>
  <path fill="#292D32" d="M18,18.75 L14,18.75 C13.59,18.75 13.25,18.41 13.25,18 C13.25,17.59 13.59,17.25 14,17.25 L18,17.25 C18.41,17.25 18.75,17.59 18.75,18 C18.75,18.41 18.41,18.75 18,18.75 Z"/>
</svg>

