<svg xmlns="http://www.w3.org/2000/svg" width="24" height="24" viewBox="0 0 24 24">
  <defs/>
  <path fill="#292D32" d="M12,18.75 C11.59,18.75 11.25,18.41 11.25,18 L11.25,17 C11.25,16.59 11.59,16.25 12,16.25 C12.41,16.25 12.75,16.59 12.75,17 L12.75,18 C12.75,18.41 12.41,18.75 12,18.75 Z"/>
  <path fill="#292D32" d="M12,22.75 C11.59,22.75 11.25,22.41 11.25,22 L11.25,21 C11.25,20.59 11.59,20.25 12,20.25 C12.41,20.25 12.75,20.59 12.75,21 L12.75,22 C12.75,22.41 12.41,22.75 12,22.75 Z"/>
  <path fill="#292D32" d="M1.998,22.748 C1.938,22.748 1.878,22.738 1.818,22.728 C1.418,22.628 1.168,22.218 1.268,21.818 L2.268,17.818 C2.368,17.418 2.768,17.168 3.178,17.268 C3.578,17.368 3.828,17.778 3.728,18.178 L2.728,22.178 C2.638,22.518 2.338,22.748 1.998,22.748 Z"/>
  <path fill="#292D32" d="M21.753,22.503 C21.413,22.503 21.113,22.273 21.023,21.933 L20.023,17.933 C19.923,17.533 20.163,17.123 20.573,17.023 C20.973,16.923 21.383,17.163 21.483,17.573 L22.483,21.573 C22.583,21.973 22.343,22.383 21.933,22.483 C21.873,22.493 21.813,22.503 21.753,22.503 Z"/>
  <path fill="#292D32" d="M19.138,5.3 C19.138,5.6 18.888,5.84 18.598,5.84 L5.528,5.84 C5.228,5.84 4.988,5.59 4.988,5.3 C4.988,5 5.238,4.76 5.528,4.76 L6.268,4.76 L6.548,3.45 C6.808,2.17 7.348,1 9.508,1 L14.598,1 C16.758,1 17.308,2.17 17.568,3.44 L17.848,4.75 L18.588,4.75 C18.888,4.75 19.138,5 19.138,5.3 Z"/>
  <path fill="#292D32" d="M19.448,9.4 C19.338,8.2 19.018,6.93 16.688,6.93 L7.428,6.93 C5.098,6.93 4.788,8.21 4.668,9.4 L4.258,13.82 C4.208,14.37 4.388,14.92 4.768,15.34 C5.158,15.76 5.698,16 6.278,16 L7.638,16 C8.818,16 9.038,15.33 9.188,14.88 L9.338,14.44 C9.508,13.94 9.548,13.82 10.198,13.82 L13.918,13.82 C14.568,13.82 14.588,13.89 14.778,14.44 L14.928,14.88 C15.068,15.33 15.298,16 16.468,16 L17.828,16 C18.398,16 18.948,15.76 19.338,15.34 C19.718,14.93 19.898,14.37 19.848,13.82 L19.448,9.4 Z M9.878,10.92 L7.708,10.92 C7.408,10.92 7.168,10.67 7.168,10.38 C7.168,10.09 7.418,9.84 7.708,9.84 L9.888,9.84 C10.188,9.84 10.428,10.09 10.428,10.38 C10.428,10.67 10.178,10.92 9.878,10.92 Z M16.408,10.92 L14.228,10.92 C13.928,10.92 13.688,10.67 13.688,10.38 C13.688,10.09 13.938,9.84 14.228,9.84 L16.408,9.84 C16.708,9.84 16.948,10.09 16.948,10.38 C16.948,10.67 16.708,10.92 16.408,10.92 Z"/>
</svg>

