<svg xmlns="http://www.w3.org/2000/svg" width="24" height="24" viewBox="0 0 24 24">
  <defs/>
  <path fill="#292D32" opacity="0.4" d="M16.19,2 L7.82,2 C4.18,2 2.01,4.17 2.01,7.81 L2.01,16.18 C2.01,19.82 4.18,21.99 7.82,21.99 L16.19,21.99 C19.83,21.99 22,19.82 22,16.18 L22,7.81 C22,4.17 19.83,2 16.19,2 Z"/>
  <path fill="#292D32" d="M6,9 C5.59,9 5.25,8.66 5.25,8.25 L5.25,6.25 C5.25,5.84 5.59,5.5 6,5.5 C6.41,5.5 6.75,5.84 6.75,6.25 L6.75,8.25 C6.75,8.66 6.41,9 6,9 Z"/>
  <path fill="#292D32" d="M10,9 C9.59,9 9.25,8.66 9.25,8.25 L9.25,6.25 C9.25,5.84 9.59,5.5 10,5.5 C10.41,5.5 10.75,5.84 10.75,6.25 L10.75,8.25 C10.75,8.66 10.41,9 10,9 Z"/>
  <path fill="#292D32" d="M6,18.75 C5.59,18.75 5.25,18.41 5.25,18 L5.25,16 C5.25,15.59 5.59,15.25 6,15.25 C6.41,15.25 6.75,15.59 6.75,16 L6.75,18 C6.75,18.41 6.41,18.75 6,18.75 Z"/>
  <path fill="#292D32" d="M10,18.75 C9.59,18.75 9.25,18.41 9.25,18 L9.25,16 C9.25,15.59 9.59,15.25 10,15.25 C10.41,15.25 10.75,15.59 10.75,16 L10.75,18 C10.75,18.41 10.41,18.75 10,18.75 Z"/>
  <path fill="#292D32" d="M18,8 L14,8 C13.59,8 13.25,7.66 13.25,7.25 C13.25,6.84 13.59,6.5 14,6.5 L18,6.5 C18.41,6.5 18.75,6.84 18.75,7.25 C18.75,7.66 18.41,8 18,8 Z"/>
  <path fill="#292D32" d="M18,17.75 L14,17.75 C13.59,17.75 13.25,17.41 13.25,17 C13.25,16.59 13.59,16.25 14,16.25 L18,16.25 C18.41,16.25 18.75,16.59 18.75,17 C18.75,17.41 18.41,17.75 18,17.75 Z"/>
  <path fill="#292D32" d="M22,11.25 L2,11.25 L2,12.75 L22,12.75 L22,11.25 Z"/>
</svg>

