<svg xmlns="http://www.w3.org/2000/svg" width="24" height="24" viewBox="0 0 24 24">
  <defs/>
  <path fill="#292D32" d="M17.8,8.68 L6.201,8.68 C5.971,8.68 5.761,8.58 5.621,8.4 C5.481,8.22 5.421,7.99 5.471,7.77 L6.291,3.85 C6.561,2.56 7.151,1.25 9.451,1.25 L14.55,1.25 C16.86,1.25 17.451,2.57 17.71,3.85 L18.53,7.77 C18.581,7.99 18.52,8.22 18.381,8.4 C18.241,8.58 18.03,8.68 17.8,8.68 Z M7.121,7.18 L16.87,7.18 L16.241,4.17 C16.041,3.21 15.81,2.76 14.54,2.76 L9.441,2.76 C8.181,2.76 7.941,3.21 7.741,4.17 L7.121,7.18 Z"/>
  <path fill="#292D32" d="M17.77,16.65 L16.41,16.65 C15.09,16.65 14.82,15.83 14.67,15.39 L14.52,14.95 C14.36,14.47 14.36,14.47 13.85,14.47 L10.14,14.47 C9.63,14.47 9.63,14.48 9.47,14.95 L9.32,15.39 C9.17,15.83 8.9,16.65 7.58,16.65 L6.22,16.65 C5.59,16.65 4.98,16.38 4.56,15.92 C4.15,15.47 3.94,14.86 4,14.25 L4.41,9.84 C4.54,8.46 4.99,7.18 7.37,7.18 L16.62,7.18 C19,7.18 19.45,8.46 19.58,9.84 L19.99,14.26 C20.05,14.87 19.84,15.48 19.43,15.93 C19.01,16.39 18.4,16.65 17.77,16.65 Z M16.18,15.14 C16.2,15.14 16.28,15.15 16.41,15.15 L17.77,15.15 C17.98,15.15 18.18,15.07 18.32,14.91 C18.45,14.77 18.51,14.58 18.5,14.39 L18.09,9.97 C18.01,9.08 17.97,8.67 16.63,8.67 L7.38,8.67 C6.04,8.67 6,9.08 5.92,9.97 L5.51,14.39 C5.49,14.58 5.55,14.77 5.69,14.91 C5.83,15.06 6.03,15.15 6.24,15.15 L7.6,15.15 C7.8,15.15 7.86,15.12 7.87,15.12 C7.86,15.12 7.89,15 7.92,14.92 L8.07,14.48 C8.26,13.92 8.57,12.97 10.16,12.97 L13.87,12.97 C15.32,12.97 15.69,13.68 15.95,14.46 L16.1,14.91 C16.12,15 16.15,15.1 16.18,15.14 C16.17,15.14 16.18,15.14 16.18,15.14 Z"/>
  <path fill="#292D32" d="M6.201,6.5 L5.471,6.5 C5.061,6.5 4.721,6.16 4.721,5.75 C4.721,5.34 5.061,5 5.471,5 L6.201,5 C6.611,5 6.951,5.34 6.951,5.75 C6.951,6.16 6.611,6.5 6.201,6.5 Z"/>
  <path fill="#292D32" d="M18.531,6.5 L17.801,6.5 C17.391,6.5 17.051,6.16 17.051,5.75 C17.051,5.34 17.391,5 17.801,5 L18.531,5 C18.941,5 19.281,5.34 19.281,5.75 C19.281,6.16 18.941,6.5 18.531,6.5 Z"/>
  <path fill="#292D32" d="M9.821,11.58 L7.641,11.58 C7.231,11.58 6.891,11.24 6.891,10.83 C6.891,10.42 7.231,10.08 7.641,10.08 L9.821,10.08 C10.231,10.08 10.571,10.42 10.571,10.83 C10.571,11.24 10.241,11.58 9.821,11.58 Z"/>
  <path fill="#292D32" d="M16.35,11.58 L14.17,11.58 C13.76,11.58 13.42,11.24 13.42,10.83 C13.42,10.42 13.76,10.08 14.17,10.08 L16.35,10.08 C16.76,10.08 17.1,10.42 17.1,10.83 C17.1,11.24 16.76,11.58 16.35,11.58 Z"/>
  <path fill="#292D32" d="M12,18.75 C11.59,18.75 11.25,18.41 11.25,18 L11.25,17 C11.25,16.59 11.59,16.25 12,16.25 C12.41,16.25 12.75,16.59 12.75,17 L12.75,18 C12.75,18.41 12.41,18.75 12,18.75 Z"/>
  <path fill="#292D32" d="M12,22.75 C11.59,22.75 11.25,22.41 11.25,22 L11.25,21 C11.25,20.59 11.59,20.25 12,20.25 C12.41,20.25 12.75,20.59 12.75,21 L12.75,22 C12.75,22.41 12.41,22.75 12,22.75 Z"/>
  <path fill="#292D32" d="M2,22.75 C1.94,22.75 1.88,22.74 1.82,22.73 C1.42,22.63 1.17,22.22 1.27,21.82 L2.27,17.82 C2.37,17.42 2.77,17.17 3.18,17.27 C3.58,17.37 3.83,17.78 3.73,18.18 L2.73,22.18 C2.64,22.52 2.34,22.75 2,22.75 Z"/>
  <path fill="#292D32" d="M22.001,22.75 C21.661,22.75 21.361,22.52 21.271,22.18 L20.271,18.18 C20.171,17.78 20.411,17.37 20.821,17.27 C21.221,17.17 21.631,17.41 21.731,17.82 L22.731,21.82 C22.831,22.22 22.591,22.63 22.181,22.73 C22.121,22.74 22.061,22.75 22.001,22.75 Z"/>
</svg>

