<svg xmlns="http://www.w3.org/2000/svg" width="24" height="24" viewBox="0 0 24 24">
  <defs/>
  <path fill="#292D32" d="M6.75,6.25 L6.75,8.25 Q6.75,8.561 6.53,8.78 Q6.311,9 6,9 Q5.689,9 5.47,8.78 Q5.25,8.561 5.25,8.25 L5.25,6.25 Q5.25,5.939 5.47,5.72 Q5.689,5.5 6,5.5 Q6.311,5.5 6.53,5.72 Q6.75,5.939 6.75,6.25 Z"/>
  <path fill="#292D32" d="M21.25,12 L21.25,9 Q21.25,2.75 15,2.75 L9,2.75 Q2.75,2.75 2.75,9 L2.75,15 Q2.75,18.439 4.155,19.845 Q5.561,21.25 9,21.25 L12,21.25 Q12.311,21.25 12.53,21.47 Q12.75,21.689 12.75,22 Q12.75,22.311 12.53,22.53 Q12.311,22.75 12,22.75 L9,22.75 Q1.25,22.75 1.25,15 L1.25,9 Q1.25,1.25 9,1.25 L15,1.25 Q22.75,1.25 22.75,9 L22.75,12 Q22.75,12.311 22.53,12.53 Q22.311,12.75 22,12.75 Q21.689,12.75 21.47,12.53 Q21.25,12.311 21.25,12 Z"/>
  <path fill="#292D32" d="M10.75,6.25 L10.75,8.25 Q10.75,8.561 10.53,8.78 Q10.311,9 10,9 Q9.689,9 9.47,8.78 Q9.25,8.561 9.25,8.25 L9.25,6.25 Q9.25,5.939 9.47,5.72 Q9.689,5.5 10,5.5 Q10.311,5.5 10.53,5.72 Q10.75,5.939 10.75,6.25 Z"/>
  <path fill="#292D32" d="M6.75,16 L6.75,18 Q6.75,18.311 6.53,18.53 Q6.311,18.75 6,18.75 Q5.689,18.75 5.47,18.53 Q5.25,18.311 5.25,18 L5.25,16 Q5.25,15.689 5.47,15.47 Q5.689,15.25 6,15.25 Q6.311,15.25 6.53,15.47 Q6.75,15.689 6.75,16 Z"/>
  <path fill="#292D32" d="M10.75,16 L10.75,18 Q10.75,18.311 10.53,18.53 Q10.311,18.75 10,18.75 Q9.689,18.75 9.47,18.53 Q9.25,18.311 9.25,18 L9.25,16 Q9.25,15.689 9.47,15.47 Q9.689,15.25 10,15.25 Q10.311,15.25 10.53,15.47 Q10.75,15.689 10.75,16 Z"/>
  <path fill="#292D32" d="M14,6.5 L18,6.5 Q18.311,6.5 18.53,6.72 Q18.75,6.939 18.75,7.25 Q18.75,7.561 18.53,7.78 Q18.311,8 18,8 L14,8 Q13.689,8 13.47,7.78 Q13.25,7.561 13.25,7.25 Q13.25,6.939 13.47,6.72 Q13.689,6.5 14,6.5 Z"/>
  <path fill="#292D32" d="M2,11.25 L18,11.25 Q18.311,11.25 18.53,11.47 Q18.75,11.689 18.75,12 Q18.75,12.311 18.53,12.53 Q18.311,12.75 18,12.75 L2,12.75 Q1.689,12.75 1.47,12.53 Q1.25,12.311 1.25,12 Q1.25,11.689 1.47,11.47 Q1.689,11.25 2,11.25 Z"/>
  <path fill="#292D32" d="M15.278,16.718 Q16.426,14.71 18.749,14.71 Q20.203,14.71 21.249,15.389 L21.249,15.25 Q21.249,14.939 21.469,14.72 Q21.689,14.5 21.999,14.5 Q22.31,14.5 22.53,14.72 Q22.749,14.939 22.749,15.25 L22.749,17.203 Q22.758,17.319 22.727,17.442 Q22.652,17.743 22.385,17.903 Q22.145,18.047 21.876,18 L19.999,18 Q19.689,18 19.469,17.78 Q19.249,17.561 19.249,17.25 Q19.249,16.939 19.469,16.72 Q19.689,16.5 19.999,16.5 L20.14,16.5 Q19.534,16.21 18.749,16.21 Q17.296,16.21 16.581,17.462 Q16.426,17.732 16.127,17.814 Q15.827,17.895 15.557,17.741 Q15.288,17.587 15.206,17.287 Q15.124,16.988 15.278,16.718 Z M22.209,20.705 Q21.057,22.7 18.749,22.7 Q17.546,22.7 16.607,22.061 Q16.588,22.332 16.39,22.53 Q16.17,22.75 15.859,22.75 Q15.549,22.75 15.329,22.53 Q15.109,22.311 15.109,22 L15.109,20.207 Q15.105,20.15 15.111,20.091 Q15.127,19.812 15.329,19.61 Q15.549,19.39 15.859,19.39 L17.859,19.39 Q18.17,19.39 18.39,19.61 Q18.609,19.829 18.609,20.14 Q18.609,20.451 18.39,20.67 Q18.17,20.89 17.859,20.89 L17.584,20.89 Q18.114,21.2 18.749,21.2 Q20.191,21.2 20.91,19.955 Q21.065,19.686 21.365,19.606 Q21.665,19.525 21.934,19.68 Q22.203,19.836 22.284,20.136 Q22.364,20.436 22.209,20.705 Z"/>
</svg>

