<svg xmlns="http://www.w3.org/2000/svg" width="24" height="24" viewBox="0 0 24 24">
  <defs/>
  <path fill="#292D32" d="M19.32,2 L4.68,2 C3.21,2 2,3.21 2,4.68 L2,7.31 C2,8.79 3.21,10 4.68,10 L19.31,10 C20.79,10 22,8.79 22,7.32 L22,4.68 C22,3.21 20.79,2 19.32,2 Z M6.75,7 C6.75,7.41 6.41,7.75 6,7.75 C5.59,7.75 5.25,7.41 5.25,7 L5.25,5 C5.25,4.59 5.59,4.25 6,4.25 C6.41,4.25 6.75,4.59 6.75,5 L6.75,7 Z M10.75,7 C10.75,7.41 10.41,7.75 10,7.75 C9.59,7.75 9.25,7.41 9.25,7 L9.25,5 C9.25,4.59 9.59,4.25 10,4.25 C10.41,4.25 10.75,4.59 10.75,5 L10.75,7 Z M18,6.75 L14,6.75 C13.59,6.75 13.25,6.41 13.25,6 C13.25,5.59 13.59,5.25 14,5.25 L18,5.25 C18.41,5.25 18.75,5.59 18.75,6 C18.75,6.41 18.41,6.75 18,6.75 Z"/>
  <path fill="#292D32" d="M19.32,14 L4.68,14 C3.21,14 2,15.21 2,16.68 L2,19.31 C2,20.79 3.21,22 4.68,22 L19.31,22 C20.79,22 21.99,20.79 21.99,19.32 L21.99,16.69 C22,15.21 20.79,14 19.32,14 Z M6.75,19 C6.75,19.41 6.41,19.75 6,19.75 C5.59,19.75 5.25,19.41 5.25,19 L5.25,17 C5.25,16.59 5.59,16.25 6,16.25 C6.41,16.25 6.75,16.59 6.75,17 L6.75,19 Z M10.75,19 C10.75,19.41 10.41,19.75 10,19.75 C9.59,19.75 9.25,19.41 9.25,19 L9.25,17 C9.25,16.59 9.59,16.25 10,16.25 C10.41,16.25 10.75,16.59 10.75,17 L10.75,19 Z M18,18.75 L14,18.75 C13.59,18.75 13.25,18.41 13.25,18 C13.25,17.59 13.59,17.25 14,17.25 L18,17.25 C18.41,17.25 18.75,17.59 18.75,18 C18.75,18.41 18.41,18.75 18,18.75 Z"/>
</svg>

