<svg xmlns="http://www.w3.org/2000/svg" width="24" height="24" viewBox="0 0 24 24">
  <defs/>
  <path fill="#292D32" d="M6,9 C5.59,9 5.25,8.66 5.25,8.25 L5.25,6.25 C5.25,5.84 5.59,5.5 6,5.5 C6.41,5.5 6.75,5.84 6.75,6.25 L6.75,8.25 C6.75,8.66 6.41,9 6,9 Z"/>
  <path fill="#292D32" d="M12,22.75 L9,22.75 C3.57,22.75 1.25,20.43 1.25,15 L1.25,9 C1.25,3.57 3.57,1.25 9,1.25 L15,1.25 C20.43,1.25 22.75,3.57 22.75,9 L22.75,12 C22.75,12.41 22.41,12.75 22,12.75 C21.59,12.75 21.25,12.41 21.25,12 L21.25,9 C21.25,4.39 19.61,2.75 15,2.75 L9,2.75 C4.39,2.75 2.75,4.39 2.75,9 L2.75,15 C2.75,19.61 4.39,21.25 9,21.25 L12,21.25 C12.41,21.25 12.75,21.59 12.75,22 C12.75,22.41 12.41,22.75 12,22.75 Z"/>
  <path fill="#292D32" d="M10,9 C9.59,9 9.25,8.66 9.25,8.25 L9.25,6.25 C9.25,5.84 9.59,5.5 10,5.5 C10.41,5.5 10.75,5.84 10.75,6.25 L10.75,8.25 C10.75,8.66 10.41,9 10,9 Z"/>
  <path fill="#292D32" d="M6,18.75 C5.59,18.75 5.25,18.41 5.25,18 L5.25,16 C5.25,15.59 5.59,15.25 6,15.25 C6.41,15.25 6.75,15.59 6.75,16 L6.75,18 C6.75,18.41 6.41,18.75 6,18.75 Z"/>
  <path fill="#292D32" d="M10,18.75 C9.59,18.75 9.25,18.41 9.25,18 L9.25,16 C9.25,15.59 9.59,15.25 10,15.25 C10.41,15.25 10.75,15.59 10.75,16 L10.75,18 C10.75,18.41 10.41,18.75 10,18.75 Z"/>
  <path fill="#292D32" d="M18,8 L14,8 C13.59,8 13.25,7.66 13.25,7.25 C13.25,6.84 13.59,6.5 14,6.5 L18,6.5 C18.41,6.5 18.75,6.84 18.75,7.25 C18.75,7.66 18.41,8 18,8 Z"/>
  <path fill="#292D32" d="M22,12.75 L2,12.75 C1.59,12.75 1.25,12.41 1.25,12 C1.25,11.59 1.59,11.25 2,11.25 L22,11.25 C22.41,11.25 22.75,11.59 22.75,12 C22.75,12.41 22.41,12.75 22,12.75 Z"/>
  <path fill="#292D32" d="M15.278,16.718 Q16.426,14.71 18.749,14.71 Q20.203,14.71 21.249,15.389 L21.249,15.25 Q21.249,14.939 21.469,14.72 Q21.689,14.5 21.999,14.5 Q22.31,14.5 22.53,14.72 Q22.749,14.939 22.749,15.25 L22.749,17.203 Q22.758,17.319 22.727,17.442 Q22.652,17.743 22.385,17.903 Q22.145,18.047 21.876,18 L19.999,18 Q19.689,18 19.469,17.78 Q19.249,17.561 19.249,17.25 Q19.249,16.939 19.469,16.72 Q19.689,16.5 19.999,16.5 L20.14,16.5 Q19.534,16.21 18.749,16.21 Q17.296,16.21 16.581,17.462 Q16.426,17.732 16.127,17.814 Q15.827,17.895 15.557,17.741 Q15.288,17.587 15.206,17.287 Q15.124,16.988 15.278,16.718 Z M22.209,20.705 Q21.057,22.7 18.749,22.7 Q17.546,22.7 16.607,22.061 Q16.588,22.332 16.39,22.53 Q16.17,22.75 15.859,22.75 Q15.549,22.75 15.329,22.53 Q15.109,22.311 15.109,22 L15.109,20.207 Q15.105,20.15 15.111,20.091 Q15.127,19.812 15.329,19.61 Q15.549,19.39 15.859,19.39 L17.859,19.39 Q18.17,19.39 18.39,19.61 Q18.609,19.829 18.609,20.14 Q18.609,20.451 18.39,20.67 Q18.17,20.89 17.859,20.89 L17.584,20.89 Q18.114,21.2 18.749,21.2 Q20.191,21.2 20.91,19.955 Q21.065,19.686 21.365,19.606 Q21.665,19.525 21.934,19.68 Q22.203,19.836 22.284,20.136 Q22.364,20.436 22.209,20.705 Z"/>
</svg>

