<svg xmlns="http://www.w3.org/2000/svg" width="24" height="24" viewBox="0 0 24 24">
  <defs/>
  <path fill="#292D32" d="M13.069,1.616 Q13.07,1.617 13.071,1.618 Q20.872,7.645 20.86,13.91 Q20.86,17.567 18.267,20.158 Q15.673,22.75 12.01,22.75 Q8.349,22.75 5.753,20.153 Q3.16,17.557 3.16,13.904 Q3.126,7.574 10.93,1.618 Q11.999,0.786 13.069,1.616 Z M12.15,2.802 Q12,2.686 11.851,2.802 Q4.63,8.313 4.66,13.896 Q4.66,16.936 6.815,19.092 Q8.97,21.25 12.01,21.25 Q15.052,21.25 17.206,19.097 Q19.36,16.945 19.36,13.91 Q19.37,8.38 12.152,2.804 Z"/>
</svg>

