<svg xmlns="http://www.w3.org/2000/svg" width="24" height="24" viewBox="0 0 24 24">
  <defs/>
  <path fill="#292D32" d="M4.65,13.9 Q4.65,16.936 6.805,19.092 Q8.96,21.25 12,21.25 Q15.042,21.25 17.197,19.097 Q19.35,16.945 19.35,13.91 Q19.381,8.388 12.152,2.803 Q11.906,2.614 11.867,2.305 Q11.827,1.997 12.017,1.751 Q12.207,1.506 12.515,1.466 Q12.823,1.427 13.069,1.616 Q20.885,7.654 20.85,13.91 Q20.85,17.567 18.257,20.158 Q15.663,22.75 12,22.75 Q8.339,22.75 5.744,20.153 Q3.15,17.557 3.15,13.9 Q3.15,13.589 3.37,13.37 Q3.59,13.15 3.9,13.15 Q4.211,13.15 4.431,13.37 Q4.65,13.589 4.65,13.9 Z"/>
  <path fill="#292D32" d="M12.15,2.802 Q12.001,2.686 11.851,2.802 Q7.449,6.151 5.637,9.925 Q5.502,10.205 5.209,10.308 Q4.916,10.411 4.636,10.276 Q4.356,10.142 4.253,9.848 Q4.15,9.555 4.285,9.275 Q6.254,5.176 10.931,1.618 Q12.001,0.785 13.071,1.618 Q13.317,1.809 13.355,2.117 Q13.394,2.425 13.203,2.67 Q13.012,2.916 12.704,2.954 Q12.396,2.993 12.15,2.802 Z"/>
</svg>

