<svg xmlns="http://www.w3.org/2000/svg" width="24" height="24" viewBox="0 0 24 24">
  <defs/>
  <path fill="#17191C" d="M12.423,4.38 Q12.533,4.455 12.61,4.564 Q12.791,4.817 12.74,5.123 Q12.689,5.43 12.436,5.61 L6.836,9.61 Q6.41,9.915 5.977,9.62 L1.577,6.62 Q1.467,6.545 1.39,6.436 Q1.209,6.183 1.26,5.877 Q1.311,5.57 1.564,5.39 L7.164,1.39 Q7.59,1.085 8.023,1.38 Z M10.69,5.014 L7.61,2.915 L3.31,5.986 L6.39,8.085 L10.69,5.014 Z"/>
  <path fill="#17191C" d="M11.577,4.38 L15.977,1.38 Q16.41,1.085 16.836,1.39 L22.436,5.39 Q22.689,5.57 22.74,5.877 Q22.791,6.183 22.61,6.436 Q22.533,6.545 22.423,6.62 L18.023,9.62 Q17.59,9.915 17.164,9.61 L11.564,5.61 Q11.311,5.43 11.26,5.123 Q11.209,4.817 11.39,4.564 Q11.467,4.455 11.577,4.38 Z M13.31,5.014 L17.61,8.085 L20.69,5.986 L16.39,2.915 L13.31,5.014 Z"/>
  <path fill="#17191C" d="M12.423,14.62 L8.023,17.62 Q7.59,17.915 7.164,17.61 L1.564,13.61 Q1.311,13.43 1.26,13.123 Q1.209,12.817 1.39,12.564 Q1.467,12.455 1.577,12.38 L5.977,9.38 Q6.41,9.085 6.836,9.39 L12.436,13.39 Q12.689,13.57 12.74,13.877 Q12.791,14.183 12.61,14.436 Q12.533,14.545 12.423,14.62 Z M10.69,13.986 L6.39,10.915 L3.31,13.014 L7.61,16.085 L10.69,13.986 Z"/>
  <path fill="#17191C" d="M11.577,14.62 Q11.467,14.545 11.39,14.436 Q11.209,14.183 11.26,13.877 Q11.311,13.57 11.564,13.39 L17.164,9.39 Q17.59,9.085 18.023,9.38 L22.423,12.38 Q22.533,12.455 22.61,12.564 Q22.791,12.817 22.74,13.123 Q22.689,13.43 22.436,13.61 L16.836,17.61 Q16.41,17.915 15.977,17.62 Z M13.31,13.986 L16.39,16.085 L20.69,13.014 L17.61,10.915 L13.31,13.986 Z"/>
  <path fill="#17191C" d="M19.75,15.5 L19.75,18.8 Q19.75,19.283 19.31,19.483 L12.71,22.483 Q12.675,22.499 12.637,22.512 Q11.872,22.767 11.279,22.478 L4.69,19.483 Q4.25,19.283 4.25,18.8 L4.25,15.5 Q4.25,15.189 4.47,14.97 Q4.689,14.75 5,14.75 Q5.311,14.75 5.53,14.97 Q5.75,15.189 5.75,15.5 L5.75,18.317 L11.91,21.117 Q11.923,21.123 11.935,21.129 Q11.973,21.148 12.128,21.1 L18.25,18.317 L18.25,15.5 Q18.25,15.189 18.47,14.97 Q18.689,14.75 19,14.75 Q19.311,14.75 19.53,14.97 Q19.75,15.189 19.75,15.5 Z"/>
</svg>

