<svg xmlns="http://www.w3.org/2000/svg" width="24" height="24" viewBox="0 0 24 24">
  <defs/>
  <path d="M12.42,4.379 Q12.531,4.453 12.609,4.562 Q12.79,4.814 12.74,5.121 Q12.69,5.427 12.438,5.609 L6.878,9.609 Q6.453,9.914 6.02,9.621 L1.58,6.621 Q1.469,6.547 1.391,6.438 Q1.21,6.186 1.26,5.879 Q1.31,5.573 1.562,5.391 L7.122,1.391 Q7.547,1.086 7.98,1.379 Z M10.689,5.019 L7.573,2.914 L3.311,5.981 L6.427,8.086 L10.689,5.019 Z"/>
  <path d="M11.58,4.379 L16.02,1.379 Q16.453,1.086 16.878,1.391 L22.438,5.391 Q22.69,5.573 22.74,5.879 Q22.79,6.186 22.609,6.438 Q22.531,6.547 22.42,6.621 L17.98,9.621 Q17.547,9.914 17.122,9.609 L11.562,5.609 Q11.31,5.427 11.26,5.121 Q11.21,4.814 11.391,4.562 Q11.469,4.453 11.58,4.379 Z M13.311,5.019 L17.573,8.086 L20.689,5.981 L16.427,2.914 L13.311,5.019 Z"/>
  <path d="M12.42,14.621 L7.98,17.621 Q7.547,17.914 7.122,17.609 L1.562,13.609 Q1.31,13.427 1.26,13.121 Q1.21,12.814 1.391,12.562 Q1.469,12.453 1.58,12.379 L6.02,9.379 Q6.454,9.085 6.879,9.392 L8.959,10.892 L10.577,12.05 L12.438,13.391 Q12.69,13.573 12.74,13.88 Q12.79,14.186 12.609,14.438 Q12.53,14.547 12.42,14.621 Z M10.69,13.98 L9.703,13.27 L8.081,12.108 L6.426,10.915 L3.311,13.019 L7.573,16.086 L10.69,13.98 Z"/>
  <path d="M11.58,14.621 Q11.469,14.547 11.391,14.438 Q11.21,14.186 11.26,13.879 Q11.31,13.573 11.562,13.391 L17.122,9.391 Q17.547,9.086 17.98,9.379 L22.42,12.379 Q22.531,12.453 22.609,12.562 Q22.79,12.814 22.74,13.121 Q22.69,13.427 22.438,13.609 L16.878,17.609 Q16.453,17.914 16.02,17.621 Z M13.311,13.981 L16.427,16.086 L20.689,13.019 L17.573,10.914 L13.311,13.981 Z"/>
  <path d="M4.25,18.77 L4.25,15.5 Q4.25,15.189 4.47,14.97 Q4.689,14.75 5,14.75 Q5.311,14.75 5.53,14.97 Q5.75,15.189 5.75,15.5 L5.75,18.77 Q5.75,19.081 5.53,19.3 Q5.311,19.52 5,19.52 Q4.689,19.52 4.47,19.3 Q4.25,19.081 4.25,18.77 Z"/>
  <path d="M19.75,15.5 L19.75,18.77 Q19.75,19.25 19.314,19.451 L12.734,22.491 Q12,22.817 11.275,22.495 L9.364,21.611 Q9.083,21.48 8.976,21.188 Q8.869,20.897 8.999,20.615 Q9.13,20.333 9.421,20.226 Q9.713,20.119 9.995,20.249 L11.884,21.125 Q12,21.176 12.105,21.129 L18.25,18.29 L18.25,15.5 Q18.25,15.189 18.469,14.97 Q18.689,14.75 19,14.75 Q19.31,14.75 19.53,14.97 Q19.75,15.189 19.75,15.5 Z"/>
</svg>

