<svg xmlns="http://www.w3.org/2000/svg" width="24" height="24" viewBox="0 0 24 24">
  <defs/>
  <path d="M11.999,6.001 L6.439,10.001 L3.189,7.801 C2.609,7.411 2.599,6.571 3.169,6.161 L6.999,3.401 C7.339,3.161 7.799,3.151 8.139,3.381 L11.999,6.001 Z"/>
  <path d="M20.81,7.799 L17.56,9.999 L12,5.999 L15.86,3.389 C16.21,3.159 16.66,3.159 17,3.409 L20.83,6.169 C21.4,6.569 21.39,7.409 20.81,7.799 Z"/>
  <path d="M12,14 L7.56,17 L5,15.16 L3.16,13.84 C2.6,13.43 2.61,12.59 3.18,12.2 L6.43,10 L12,14 Z"/>
  <path d="M20.81,12.2 C21.39,12.59 21.4,13.43 20.83,13.84 L18.99,15.16 L16.43,17 L11.99,14 L17.55,10 L20.81,12.2 Z"/>
  <path d="M18.68,17.338 C18.81,17.238 19,17.338 19,17.498 L19,18.228 C19,18.618 18.77,18.968 18.42,19.138 L12.42,21.908 C12.15,22.028 11.85,22.028 11.58,21.908 L5.58,19.138 C5.23,18.968 5,18.618 5,18.228 L5,17.498 C5,17.338 5.18,17.238 5.32,17.338 L7.25,18.728 C7.42,18.848 7.65,18.858 7.82,18.738 L11.72,16.098 C11.89,15.988 12.11,15.988 12.28,16.098 L16.18,18.738 C16.35,18.858 16.58,18.848 16.75,18.728 L18.68,17.338 Z"/>
</svg>

