<svg xmlns="http://www.w3.org/2000/svg" width="24" height="24" viewBox="0 0 24 24">
  <defs/>
  <path fill="#292D32" d="M16.59,7.41 L6.31,17.69 C5.83,18.17 5.01,18.06 4.72,17.45 C4.2,16.38 3.9,15.17 3.9,13.9 C3.88,8.38 9.48,3.66 11.38,2.21 C11.75,1.93 12.25,1.93 12.61,2.21 C13.48,2.87 15.11,4.24 16.64,6.04 C16.98,6.44 16.96,7.04 16.59,7.41 Z"/>
  <path fill="#292D32" opacity="0.4" d="M20.1,13.91 C20.1,18.37 16.47,22 12,22 C10.21,22 8.54,21.42 7.19,20.42 C6.7,20.06 6.66,19.34 7.09,18.91 L17.16,8.84 C17.63,8.37 18.42,8.47 18.74,9.05 C19.56,10.56 20.11,12.2 20.1,13.91 Z"/>
</svg>

