<svg xmlns="http://www.w3.org/2000/svg" width="24" height="24" viewBox="0 0 24 24">
  <defs/>
  <path fill="white" opacity="0.58" d="M24,0 L0,0 L0,24 L24,24 L24,0 Z"/>
  <path fill="#292D32" opacity="0.4" d="M11.999,6 L6.439,10 L3.189,7.8 C2.609,7.41 2.599,6.57 3.169,6.16 L6.999,3.4 C7.339,3.16 7.799,3.15 8.139,3.38 L11.999,6 Z"/>
  <path fill="#292D32" opacity="0.4" d="M20.81,7.8 L17.56,10 L12,6 L15.86,3.39 C16.21,3.16 16.66,3.16 17,3.41 L20.83,6.17 C21.4,6.57 21.39,7.41 20.81,7.8 Z"/>
  <path fill="#292D32" opacity="0.4" d="M12,14 L7.56,17 L5,15.16 L3.16,13.84 C2.6,13.43 2.61,12.59 3.18,12.2 L6.43,10 L12,14 Z"/>
  <path fill="#292D32" opacity="0.4" d="M20.81,12.2 C21.39,12.59 21.4,13.43 20.83,13.84 L19,15.16 L16.44,17 L12,14 L17.56,10 L20.81,12.2 Z"/>
  <path fill="#292D32" d="M19,15.16 L19,18.13 C19,18.52 18.77,18.87 18.42,19.04 L12.42,21.81 C12.15,21.93 11.85,21.93 11.58,21.81 L5.58,19.04 C5.23,18.88 5,18.52 5,18.13 L5,15.16 L7.56,17 L12,14 L16.44,17 L19,15.16 Z"/>
</svg>

