<svg xmlns="http://www.w3.org/2000/svg" width="24" height="24" viewBox="0 0 24 24">
  <defs/>
  <path fill="#292D32" d="M16.588,7.41 L6.308,17.69 C5.828,18.17 5.008,18.06 4.718,17.45 C4.198,16.38 3.898,15.17 3.898,13.9 C3.878,8.38 9.478,3.66 11.379,2.21 C11.748,1.93 12.248,1.93 12.608,2.21 C13.479,2.87 15.108,4.24 16.639,6.04 C16.979,6.44 16.959,7.04 16.588,7.41 Z"/>
  <path fill="#292D32" d="M20.1,13.91 C20.1,18.37 16.47,22 12,22 C10.21,22 8.54,21.42 7.19,20.42 C6.7,20.06 6.66,19.34 7.09,18.91 L17.16,8.84 C17.63,8.37 18.42,8.47 18.74,9.05 C19.56,10.56 20.11,12.2 20.1,13.91 Z"/>
</svg>

