<svg xmlns="http://www.w3.org/2000/svg" width="24" height="24" viewBox="0 0 24 24">
  <defs/>
  <path d="M6.44,9.75 C6.29,9.75 6.15,9.71 6.02,9.62 L1.58,6.62 C1.38,6.48 1.25,6.25 1.25,6.01 C1.25,5.76 1.36,5.53 1.56,5.39 L7.12,1.39 C7.38,1.21 7.72,1.2 7.98,1.38 L12.42,4.38 C12.62,4.52 12.75,4.75 12.75,4.99 C12.75,5.24 12.64,5.47 12.44,5.61 L6.88,9.61 C6.75,9.7 6.6,9.75 6.44,9.75 Z M3.31,5.98 L6.43,8.09 L10.69,5.02 L7.57,2.91 L3.31,5.98 Z"/>
  <path d="M17.56,9.75 C17.41,9.75 17.25,9.7 17.12,9.61 L11.56,5.61 C11.36,5.47 11.24,5.23 11.25,4.99 C11.25,4.74 11.38,4.52 11.58,4.38 L16.02,1.38 C16.28,1.21 16.62,1.21 16.88,1.39 L22.44,5.39 C22.64,5.53 22.76,5.77 22.75,6.01 C22.75,6.26 22.62,6.48 22.42,6.62 L17.98,9.62 C17.85,9.71 17.7,9.75 17.56,9.75 Z M13.31,5.02 L17.57,8.09 L20.69,5.98 L16.43,2.91 L13.31,5.02 Z"/>
  <path d="M7.56,17.75 C7.41,17.75 7.25,17.7 7.12,17.61 L1.56,13.61 C1.36,13.47 1.24,13.23 1.25,12.99 C1.25,12.74 1.38,12.52 1.58,12.38 L6.02,9.38 C6.28,9.21 6.62,9.21 6.88,9.39 L12.44,13.39 C12.64,13.53 12.76,13.77 12.75,14.01 C12.75,14.26 12.62,14.48 12.42,14.62 L7.98,17.62 C7.85,17.71 7.7,17.75 7.56,17.75 Z M3.31,13.02 L7.57,16.09 L10.69,13.98 L6.43,10.91 L3.31,13.02 Z"/>
  <path d="M16.44,17.75 C16.29,17.75 16.15,17.71 16.02,17.62 L11.58,14.62 C11.38,14.48 11.25,14.25 11.25,14.01 C11.25,13.76 11.36,13.53 11.56,13.39 L17.12,9.39 C17.37,9.21 17.72,9.2 17.98,9.38 L22.42,12.38 C22.62,12.52 22.75,12.75 22.75,12.99 C22.75,13.24 22.64,13.47 22.44,13.61 L16.88,17.61 C16.75,17.7 16.6,17.75 16.44,17.75 Z M13.31,13.98 L16.43,16.09 L20.69,13.02 L17.57,10.91 L13.31,13.98 Z"/>
  <path d="M12,22.65 C11.75,22.65 11.5,22.6 11.27,22.49 L4.69,19.45 C4.42,19.33 4.25,19.06 4.25,18.77 L4.25,15.5 C4.25,15.09 4.59,14.75 5,14.75 C5.41,14.75 5.75,15.09 5.75,15.5 L5.75,18.29 L11.9,21.13 C11.97,21.16 12.04,21.16 12.11,21.13 L18.26,18.29 L18.26,15.5 C18.26,15.09 18.6,14.75 19.01,14.75 C19.42,14.75 19.76,15.09 19.76,15.5 L19.76,18.77 C19.76,19.06 19.59,19.33 19.32,19.45 L12.74,22.49 C12.5,22.6 12.25,22.65 12,22.65 Z"/>
</svg>

