<svg xmlns="http://www.w3.org/2000/svg" width="24" height="24" viewBox="0 0 24 24">
  <defs/>
  <path fill="#292D32" d="M5.54,19.52 C4.93,19.52 4.36,19.31 3.95,18.92 C3.43,18.43 3.18,17.69 3.27,16.89 L3.64,13.65 C3.71,13.04 4.08,12.23 4.51,11.79 L12.72,3.1 C14.77,0.93 16.91,0.87 19.08,2.92 C21.25,4.97 21.31,7.11 19.26,9.28 L11.05,17.97 C10.63,18.42 9.85,18.84 9.24,18.94 L6.02,19.49 C5.85,19.5 5.7,19.52 5.54,19.52 Z M15.93,2.91 C15.16,2.91 14.49,3.39 13.81,4.11 L5.6,12.81 C5.4,13.02 5.17,13.52 5.13,13.81 L4.76,17.05 C4.72,17.38 4.8,17.65 4.98,17.82 C5.16,17.99 5.43,18.05 5.76,18 L8.98,17.45 C9.27,17.4 9.75,17.14 9.95,16.93 L18.16,8.24 C19.4,6.92 19.85,5.7 18.04,4 C17.24,3.23 16.55,2.91 15.93,2.91 Z"/>
  <path fill="#292D32" d="M17.34,10.95 C17.32,10.95 17.29,10.95 17.27,10.95 C14.15,10.64 11.64,8.27 11.16,5.17 C11.1,4.76 11.38,4.38 11.79,4.31 C12.2,4.25 12.58,4.53 12.65,4.94 C13.03,7.36 14.99,9.22 17.43,9.46 C17.84,9.5 18.14,9.87 18.1,10.28 C18.05,10.66 17.72,10.95 17.34,10.95 Z"/>
  <path fill="#292D32" d="M21,22.75 L3,22.75 C2.59,22.75 2.25,22.41 2.25,22 C2.25,21.59 2.59,21.25 3,21.25 L21,21.25 C21.41,21.25 21.75,21.59 21.75,22 C21.75,22.41 21.41,22.75 21,22.75 Z"/>
</svg>

