<svg xmlns="http://www.w3.org/2000/svg" width="24" height="24" viewBox="0 0 24 24">
  <defs/>
  <path fill="#292D32" d="M21,22 L3,22 C2.59,22 2.25,21.66 2.25,21.25 C2.25,20.84 2.59,20.5 3,20.5 L21,20.5 C21.41,20.5 21.75,20.84 21.75,21.25 C21.75,21.66 21.41,22 21,22 Z"/>
  <path fill="#292D32" d="M19.021,3.482 C17.081,1.542 15.181,1.492 13.191,3.482 L11.981,4.692 C11.881,4.792 11.841,4.952 11.881,5.092 C12.641,7.742 14.761,9.862 17.411,10.622 C17.451,10.632 17.491,10.642 17.531,10.642 C17.641,10.642 17.741,10.602 17.821,10.522 L19.021,9.312 C20.011,8.332 20.491,7.382 20.491,6.422 C20.501,5.432 20.021,4.472 19.021,3.482 Z"/>
  <path fill="#292D32" d="M15.61,11.531 C15.32,11.391 15.04,11.251 14.77,11.091 C14.55,10.961 14.34,10.821 14.13,10.671 C13.96,10.561 13.76,10.401 13.57,10.241 C13.55,10.231 13.48,10.171 13.4,10.091 C13.07,9.811 12.7,9.451 12.37,9.051 C12.34,9.031 12.29,8.961 12.22,8.871 C12.12,8.751 11.95,8.551 11.8,8.321 C11.68,8.171 11.54,7.951 11.41,7.731 C11.25,7.461 11.11,7.191 10.97,6.911 C10.949,6.865 10.929,6.82 10.909,6.775 C10.761,6.442 10.326,6.345 10.069,6.602 L4.34,12.331 C4.21,12.461 4.09,12.711 4.06,12.881 L3.52,16.711 C3.42,17.391 3.61,18.031 4.03,18.461 C4.39,18.811 4.89,19.001 5.43,19.001 C5.55,19.001 5.67,18.991 5.79,18.971 L9.63,18.431 C9.81,18.401 10.06,18.281 10.18,18.151 L15.902,12.43 C16.161,12.17 16.063,11.725 15.726,11.58 C15.688,11.564 15.649,11.548 15.61,11.531 Z"/>
</svg>

