<svg xmlns="http://www.w3.org/2000/svg" width="24" height="24" viewBox="0 0 24 24">
  <defs/>
  <path fill="#292D32" d="M22.75,13 L22.75,15 Q22.75,22.75 15,22.75 L9,22.75 Q1.25,22.75 1.25,15 L1.25,13.48 Q1.25,13.169 1.47,12.95 Q1.689,12.73 2,12.73 Q2.311,12.73 2.53,12.95 Q2.75,13.169 2.75,13.48 L2.75,15 Q2.75,21.25 9,21.25 L15,21.25 Q18.439,21.25 19.845,19.845 Q21.25,18.439 21.25,15 L21.25,13 Q21.25,12.689 21.47,12.47 Q21.689,12.25 22,12.25 Q22.311,12.25 22.53,12.47 Q22.75,12.689 22.75,13 Z"/>
  <path fill="#292D32" d="M11,2.75 L9,2.75 Q2.75,2.75 2.75,9 Q2.75,9.311 2.53,9.53 Q2.311,9.75 2,9.75 Q1.689,9.75 1.47,9.53 Q1.25,9.311 1.25,9 Q1.25,1.25 9,1.25 L11,1.25 Q11.311,1.25 11.53,1.47 Q11.75,1.689 11.75,2 Q11.75,2.311 11.53,2.53 Q11.311,2.75 11,2.75 Z"/>
  <path fill="#292D32" d="M19.4,8.48 L20.45,7.43 Q22.389,5.49 20.45,3.55 Q18.51,1.611 16.57,3.55 L8.69,11.43 Q8.315,11.806 8.243,12.324 L7.812,15.336 Q7.747,15.781 7.98,16.014 Q8.217,16.249 8.668,16.187 L11.674,15.758 Q12.182,15.685 12.578,15.301 L15.75,12.13 L16.48,11.4 Q16.699,11.18 17.01,11.18 Q17.321,11.18 17.54,11.4 Q17.76,11.619 17.76,11.93 Q17.76,12.241 17.54,12.46 L16.81,13.19 L13.621,16.379 Q12.875,17.101 11.886,17.242 L8.872,17.673 Q7.685,17.836 6.922,17.076 Q6.153,16.311 6.327,15.124 L6.757,12.116 Q6.899,11.1 7.63,10.37 L15.51,2.49 Q18.51,-0.511 21.51,2.49 Q24.511,5.49 21.51,8.49 L20.46,9.54 Q20.241,9.76 19.93,9.76 Q19.619,9.76 19.4,9.54 Q19.18,9.321 19.18,9.01 Q19.18,8.699 19.4,8.48 Z"/>
  <path fill="#292D32" d="M15.632,3.947 Q16.597,7.389 20.055,8.368 Q20.354,8.453 20.505,8.724 Q20.656,8.995 20.572,9.294 Q20.487,9.593 20.216,9.745 Q19.945,9.896 19.646,9.811 Q15.38,8.603 14.188,4.352 Q14.104,4.053 14.256,3.782 Q14.409,3.512 14.708,3.428 Q15.007,3.344 15.278,3.496 Q15.549,3.648 15.632,3.947 Z"/>
</svg>

