<svg xmlns="http://www.w3.org/2000/svg" width="24" height="24" viewBox="0 0 24 24">
  <defs/>
  <path fill="#292D32" d="M12.715,3.084 Q15.802,-0.176 19.065,2.895 Q20.858,4.591 20.734,6.364 Q20.635,7.787 19.245,9.255 L11.044,17.935 Q10.325,18.724 9.226,18.919 L6.007,19.469 Q4.768,19.683 3.945,18.903 Q3.126,18.126 3.265,16.875 L3.637,13.621 Q3.78,12.547 4.505,11.775 L12.715,3.085 Z M13.805,4.115 L5.595,12.805 Q5.203,13.223 5.123,13.819 L4.755,17.045 Q4.699,17.551 4.977,17.815 Q5.254,18.077 5.753,17.991 L8.974,17.441 Q9.56,17.336 9.936,16.925 L18.155,8.225 Q19.176,7.146 19.238,6.259 Q19.313,5.193 18.035,3.985 Q15.863,1.942 13.805,4.115 Z"/>
  <path fill="#292D32" d="M12.631,4.935 Q13.27,9.036 17.415,9.454 Q17.724,9.485 17.921,9.725 Q18.117,9.966 18.086,10.275 Q18.055,10.584 17.815,10.781 Q17.574,10.977 17.265,10.946 Q11.966,10.413 11.149,5.166 Q11.101,4.859 11.284,4.608 Q11.468,4.357 11.775,4.309 Q12.082,4.261 12.332,4.444 Q12.583,4.628 12.631,4.935 Z"/>
  <path fill="#292D32" d="M3,21.25 L21,21.25 Q21.311,21.25 21.53,21.47 Q21.75,21.689 21.75,22 Q21.75,22.311 21.53,22.53 Q21.311,22.75 21,22.75 L3,22.75 Q2.689,22.75 2.47,22.53 Q2.25,22.311 2.25,22 Q2.25,21.689 2.47,21.47 Q2.689,21.25 3,21.25 Z"/>
</svg>

