<svg xmlns="http://www.w3.org/2000/svg" width="24" height="24" viewBox="0 0 24 24">
  <defs/>
  <path fill="#292D32" d="M16.19,2 L7.81,2 C4.17,2 2,4.17 2,7.81 L2,16.18 C2,19.83 4.17,22 7.81,22 L16.18,22 C19.82,22 21.99,19.83 21.99,16.19 L21.99,7.81 C22,4.17 19.83,2 16.19,2 Z M10.95,17.51 C10.66,17.8 10.11,18.08 9.71,18.14 L7.25,18.49 C7.16,18.5 7.07,18.51 6.98,18.51 C6.57,18.51 6.19,18.37 5.92,18.1 C5.59,17.77 5.45,17.29 5.53,16.76 L5.88,14.3 C5.94,13.89 6.21,13.35 6.51,13.06 L10.97,8.6 C11.05,8.81 11.13,9.02 11.24,9.26 C11.34,9.47 11.45,9.69 11.57,9.89 C11.67,10.06 11.78,10.22 11.87,10.34 C11.98,10.51 12.11,10.67 12.19,10.76 C12.24,10.83 12.28,10.88 12.3,10.9 C12.55,11.2 12.84,11.48 13.09,11.69 C13.16,11.76 13.2,11.8 13.22,11.81 C13.37,11.93 13.52,12.05 13.65,12.14 C13.81,12.26 13.97,12.37 14.14,12.46 C14.34,12.58 14.56,12.69 14.78,12.8 C15.01,12.9 15.22,12.99 15.43,13.06 L10.95,17.51 Z M17.37,11.09 L16.45,12.02 C16.39,12.08 16.31,12.11 16.23,12.11 C16.2,12.11 16.16,12.11 16.14,12.1 C14.11,11.52 12.49,9.9 11.91,7.87 C11.88,7.76 11.91,7.64 11.99,7.57 L12.92,6.64 C14.44,5.12 15.89,5.15 17.38,6.64 C18.14,7.4 18.51,8.13 18.51,8.89 C18.5,9.61 18.13,10.33 17.37,11.09 Z"/>
</svg>

