<svg xmlns="http://www.w3.org/2000/svg" width="24" height="24" viewBox="0 0 24 24">
  <defs/>
  <path fill="#292D32" opacity="0.4" d="M15.48,3 L7.52,3 C4.07,3 2,5.06 2,8.52 L2,16.47 C2,19.94 4.07,22 7.52,22 L15.47,22 C18.93,22 20.99,19.94 20.99,16.48 L20.99,8.52 C21,5.06 18.93,3 15.48,3 Z"/>
  <path fill="#292D32" d="M21.02,2.98 C19.23,1.18 17.48,1.14 15.639,2.98 L14.509,4.1 C14.409,4.2 14.38,4.34 14.419,4.47 C15.12,6.92 17.079,8.88 19.529,9.58 C19.559,9.59 19.61,9.59 19.64,9.59 C19.739,9.59 19.84,9.55 19.91,9.48 L21.02,8.36 C21.93,7.45 22.38,6.58 22.38,5.69 C22.38,4.79 21.93,3.9 21.02,2.98 Z"/>
  <path fill="#292D32" d="M17.859,10.42 C17.589,10.29 17.329,10.16 17.089,10.01 C16.889,9.89 16.689,9.76 16.499,9.62 C16.339,9.52 16.159,9.37 15.979,9.22 C15.959,9.21 15.899,9.16 15.819,9.08 C15.509,8.83 15.179,8.49 14.869,8.12 C14.849,8.1 14.789,8.04 14.739,7.95 C14.639,7.84 14.489,7.65 14.359,7.44 C14.249,7.3 14.119,7.1 13.999,6.89 C13.849,6.64 13.719,6.39 13.599,6.13 C13.469,5.85 13.369,5.59 13.279,5.34 L7.899,10.72 C7.549,11.07 7.209,11.73 7.139,12.22 L6.709,15.2 C6.619,15.83 6.789,16.42 7.179,16.81 C7.509,17.14 7.959,17.31 8.459,17.31 C8.569,17.31 8.679,17.3 8.789,17.29 L11.759,16.87 C12.249,16.8 12.909,16.47 13.259,16.11 L18.639,10.73 C18.389,10.65 18.139,10.54 17.859,10.42 Z"/>
</svg>

