<svg xmlns="http://www.w3.org/2000/svg" width="24" height="24" viewBox="0 0 24 24">
  <defs/>
  <path fill="#292D32" d="M16.824,9.655 L18.164,8.235 Q19.185,7.156 19.247,6.269 Q19.322,5.203 18.044,3.995 Q15.862,1.941 13.804,4.116 L5.595,12.805 Q5.202,13.222 5.123,13.819 L4.755,17.045 Q4.698,17.55 4.977,17.814 Q5.253,18.077 5.752,17.991 L8.973,17.441 Q9.56,17.336 9.935,16.925 L13.894,12.735 Q14.108,12.509 14.418,12.5 Q14.729,12.491 14.955,12.705 Q15.18,12.918 15.189,13.229 Q15.198,13.539 14.985,13.765 L11.044,17.935 Q10.325,18.724 9.226,18.919 L6.007,19.469 Q4.767,19.683 3.945,18.903 Q3.125,18.126 3.264,16.875 L3.636,13.621 Q3.779,12.547 4.504,11.775 L12.715,3.084 Q15.801,-0.176 19.075,2.905 Q20.868,4.601 20.744,6.373 Q20.644,7.797 19.255,9.265 L17.915,10.685 Q17.702,10.911 17.391,10.92 Q17.081,10.929 16.855,10.715 Q16.629,10.502 16.62,10.192 Q16.611,9.881 16.824,9.655 Z"/>
  <path fill="#292D32" d="M12.632,4.935 Q13.271,9.036 17.416,9.454 Q17.725,9.485 17.921,9.725 Q18.118,9.966 18.087,10.275 Q18.056,10.584 17.815,10.781 Q17.575,10.977 17.265,10.946 Q11.967,10.413 11.15,5.166 Q11.102,4.859 11.285,4.608 Q11.468,4.357 11.775,4.309 Q12.082,4.261 12.333,4.444 Q12.584,4.628 12.632,4.935 Z"/>
  <path fill="#292D32" d="M3,21.25 L14,21.25 Q14.311,21.25 14.53,21.47 Q14.75,21.689 14.75,22 Q14.75,22.311 14.53,22.53 Q14.311,22.75 14,22.75 L3,22.75 Q2.689,22.75 2.47,22.53 Q2.25,22.311 2.25,22 Q2.25,21.689 2.47,21.47 Q2.689,21.25 3,21.25 Z"/>
  <path fill="#292D32" d="M18,21.25 L21,21.25 Q21.311,21.25 21.53,21.47 Q21.75,21.689 21.75,22 Q21.75,22.311 21.53,22.53 Q21.311,22.75 21,22.75 L18,22.75 Q17.689,22.75 17.47,22.53 Q17.25,22.311 17.25,22 Q17.25,21.689 17.47,21.47 Q17.689,21.25 18,21.25 Z"/>
</svg>

