<svg xmlns="http://www.w3.org/2000/svg" width="24" height="24" viewBox="0 0 24 24">
  <defs/>
  <path fill="#292D32" d="M12.715,3.085 Q15.801,-0.176 19.065,2.895 Q20.858,4.591 20.734,6.364 Q20.634,7.787 19.245,9.255 L11.044,17.936 Q10.325,18.724 9.226,18.919 L6.007,19.469 Q4.767,19.683 3.945,18.903 Q3.125,18.126 3.264,16.875 L3.636,13.621 Q3.779,12.547 4.504,11.775 L12.714,3.085 Z M13.805,4.115 L5.595,12.805 Q5.202,13.223 5.123,13.819 L4.755,17.045 Q4.698,17.551 4.977,17.815 Q5.253,18.077 5.752,17.991 L8.973,17.441 Q9.56,17.337 9.935,16.925 L18.154,8.225 Q19.175,7.146 19.237,6.259 Q19.312,5.194 18.034,3.985 Q15.863,1.942 13.805,4.115 Z"/>
  <path fill="#292D32" opacity="0.4" d="M12.632,4.934 Q13.271,9.036 17.416,9.454 Q17.725,9.485 17.921,9.725 Q18.118,9.966 18.087,10.275 Q18.056,10.584 17.815,10.781 Q17.575,10.977 17.265,10.946 Q11.967,10.412 11.15,5.165 Q11.102,4.858 11.285,4.607 Q11.468,4.357 11.775,4.309 Q12.082,4.261 12.333,4.444 Q12.584,4.627 12.632,4.934 Z"/>
  <path fill="#292D32" opacity="0.4" d="M3,21.25 L21,21.25 Q21.311,21.25 21.53,21.47 Q21.75,21.689 21.75,22 Q21.75,22.311 21.53,22.53 Q21.311,22.75 21,22.75 L3,22.75 Q2.689,22.75 2.47,22.53 Q2.25,22.311 2.25,22 Q2.25,21.689 2.47,21.47 Q2.689,21.25 3,21.25 Z"/>
</svg>

