<svg xmlns="http://www.w3.org/2000/svg" width="24" height="24" viewBox="0 0 24 24">
  <defs/>
  <path fill="#292D32" opacity="0.4" d="M21,22 L3,22 C2.59,22 2.25,21.66 2.25,21.25 C2.25,20.84 2.59,20.5 3,20.5 L21,20.5 C21.41,20.5 21.75,20.84 21.75,21.25 C21.75,21.66 21.41,22 21,22 Z"/>
  <path fill="#292D32" opacity="0.4" d="M19.021,3.48 C17.081,1.54 15.181,1.49 13.191,3.48 L11.981,4.69 C11.881,4.79 11.841,4.95 11.881,5.09 C12.641,7.74 14.761,9.86 17.411,10.62 C17.451,10.63 17.491,10.64 17.531,10.64 C17.641,10.64 17.741,10.6 17.821,10.52 L19.021,9.31 C20.011,8.33 20.491,7.38 20.491,6.42 C20.501,5.43 20.021,4.47 19.021,3.48 Z"/>
  <path fill="#292D32" d="M15.61,11.53 C15.32,11.39 15.04,11.25 14.77,11.09 C14.55,10.96 14.34,10.82 14.13,10.67 C13.96,10.56 13.76,10.4 13.57,10.24 C13.55,10.23 13.48,10.17 13.4,10.09 C13.07,9.81 12.7,9.45 12.37,9.05 C12.34,9.03 12.29,8.96 12.22,8.87 C12.12,8.75 11.95,8.55 11.8,8.32 C11.68,8.17 11.54,7.95 11.41,7.73 C11.25,7.46 11.11,7.19 10.97,6.91 C10.83,6.61 10.72,6.32 10.62,6.05 L4.34,12.33 C4.21,12.46 4.09,12.71 4.06,12.88 L3.52,16.71 C3.42,17.39 3.61,18.03 4.03,18.46 C4.39,18.81 4.89,19 5.43,19 C5.55,19 5.67,18.99 5.79,18.97 L9.63,18.43 C9.81,18.4 10.06,18.28 10.18,18.15 L16.46,11.87 C16.18,11.77 15.91,11.66 15.61,11.53 Z"/>
</svg>

