<svg xmlns="http://www.w3.org/2000/svg" width="24" height="24" viewBox="0 0 24 24">
  <defs/>
  <path fill="#292D32" d="M15,22.75 L9,22.75 C3.57,22.75 1.25,20.43 1.25,15 L1.25,9 C1.25,3.57 3.57,1.25 9,1.25 L11,1.25 C11.41,1.25 11.75,1.59 11.75,2 C11.75,2.41 11.41,2.75 11,2.75 L9,2.75 C4.39,2.75 2.75,4.39 2.75,9 L2.75,15 C2.75,19.61 4.39,21.25 9,21.25 L15,21.25 C19.61,21.25 21.25,19.61 21.25,15 L21.25,13 C21.25,12.59 21.59,12.25 22,12.25 C22.41,12.25 22.75,12.59 22.75,13 L22.75,15 C22.75,20.43 20.43,22.75 15,22.75 Z"/>
  <path fill="#292D32" d="M8.499,17.69 C7.889,17.69 7.329,17.47 6.919,17.07 C6.429,16.58 6.219,15.87 6.329,15.12 L6.759,12.11 C6.839,11.53 7.219,10.78 7.629,10.37 L15.509,2.49 C17.499,0.5 19.519,0.5 21.509,2.49 C22.599,3.58 23.089,4.69 22.989,5.8 C22.899,6.7 22.419,7.58 21.509,8.48 L13.629,16.36 C13.219,16.77 12.469,17.15 11.889,17.23 L8.879,17.66 C8.749,17.69 8.619,17.69 8.499,17.69 Z M16.569,3.55 L8.689,11.43 C8.499,11.62 8.279,12.06 8.239,12.32 L7.809,15.33 C7.769,15.62 7.829,15.86 7.979,16.01 C8.129,16.16 8.369,16.22 8.659,16.18 L11.669,15.75 C11.929,15.71 12.379,15.49 12.559,15.3 L20.439,7.42 C21.089,6.77 21.429,6.19 21.479,5.65 C21.539,5 21.199,4.31 20.439,3.54 C18.839,1.94 17.739,2.39 16.569,3.55 Z"/>
  <path fill="#292D32" d="M19.85,9.83 C19.78,9.83 19.71,9.82 19.65,9.8 C17.02,9.06 14.93,6.97 14.19,4.34 C14.08,3.94 14.31,3.53 14.71,3.41 C15.11,3.3 15.52,3.53 15.63,3.93 C16.23,6.06 17.92,7.75 20.05,8.35 C20.45,8.46 20.68,8.88 20.57,9.28 C20.48,9.62 20.18,9.83 19.85,9.83 Z"/>
</svg>

