<svg xmlns="http://www.w3.org/2000/svg" width="24" height="24" viewBox="0 0 24 24">
  <defs/>
  <path d="M7.93,5.481 L11.06,8.611 C11.58,9.131 12.43,9.131 12.95,8.611 L16.08,5.481 C16.92,4.641 16.33,3.191 15.13,3.191 L8.87,3.191 C7.68,3.191 7.08,4.641 7.93,5.481 Z"/>
  <path d="M7.93,18.52 L11.06,15.39 C11.58,14.87 12.43,14.87 12.95,15.39 L16.08,18.52 C16.92,19.36 16.33,20.81 15.13,20.81 L8.87,20.81 C7.68,20.81 7.08,19.36 7.93,18.52 Z"/>
  <path d="M2.159,11.43 L4.449,7.83 C4.809,7.26 5.61,7.17 6.09,7.65 L9.689,11.25 C10.1,11.66 10.1,12.33 9.689,12.74 L6.09,16.34 C5.61,16.82 4.819,16.73 4.449,16.16 L2.159,12.56 C1.949,12.22 1.949,11.78 2.159,11.43 Z"/>
  <path d="M21.84,11.43 L19.549,7.83 C19.189,7.26 18.389,7.17 17.909,7.65 L14.309,11.25 C13.899,11.66 13.899,12.33 14.309,12.74 L17.909,16.34 C18.389,16.82 19.179,16.73 19.549,16.16 L21.84,12.56 C22.049,12.22 22.049,11.78 21.84,11.43 Z"/>
</svg>

