<svg xmlns="http://www.w3.org/2000/svg" width="24" height="24" viewBox="0 0 24 24">
  <defs/>
  <path d="M12,8.91 C11.51,8.91 11.03,8.73 10.66,8.36 L7.99,5.69 C7.45,5.15 7.28,4.34 7.58,3.62 C7.87,2.91 8.56,2.45 9.33,2.45 L14.68,2.45 C15.45,2.45 16.14,2.91 16.43,3.62 C16.72,4.33 16.56,5.14 16.02,5.69 L13.35,8.36 C12.97,8.72 12.49,8.91 12,8.91 Z M9.05,4.62 L11.72,7.29 C11.87,7.44 12.12,7.44 12.28,7.29 L14.95,4.62 C15.12,4.45 15.07,4.26 15.03,4.19 C14.99,4.12 14.9,3.95 14.67,3.95 L9.32,3.95 C9.08,3.95 8.99,4.12 8.96,4.19 C8.93,4.26 8.88,4.45 9.05,4.62 Z"/>
  <path d="M14.67,21.56 L9.32,21.56 C8.55,21.56 7.86,21.1 7.57,20.39 C7.28,19.68 7.44,18.87 7.98,18.32 L10.65,15.65 C11.37,14.93 12.61,14.93 13.33,15.65 L16,18.32 C16.54,18.86 16.71,19.68 16.41,20.39 C16.13,21.1 15.44,21.56 14.67,21.56 Z M9.05,19.38 C8.88,19.55 8.93,19.74 8.97,19.81 C9.01,19.88 9.1,20.05 9.33,20.05 L14.68,20.05 C14.92,20.05 15.01,19.88 15.04,19.81 C15.07,19.74 15.12,19.55 14.96,19.38 L12.29,16.71 C12.14,16.56 11.89,16.56 11.73,16.71 L9.05,19.38 Z"/>
  <path d="M5.23,17.25 C5.17,17.25 5.1,17.25 5.03,17.24 C4.49,17.18 4.02,16.89 3.73,16.43 L1.52,12.95 C1.15,12.37 1.15,11.63 1.52,11.05 L3.73,7.57 C4.02,7.12 4.49,6.82 5.03,6.76 C5.56,6.7 6.09,6.89 6.47,7.27 L9.95,10.75 C10.28,11.08 10.47,11.53 10.47,12 C10.47,12.47 10.29,12.92 9.95,13.25 L6.48,16.73 C6.15,17.06 5.7,17.25 5.23,17.25 Z M2.79,11.86 C2.73,11.95 2.73,12.06 2.79,12.15 L5,15.63 C5.06,15.72 5.15,15.75 5.2,15.75 C5.25,15.75 5.34,15.75 5.42,15.67 L8.9,12.19 C8.97,12.12 8.98,12.04 8.98,12 C8.98,11.96 8.97,11.88 8.9,11.81 L5.42,8.33 C5.34,8.25 5.25,8.25 5.2,8.25 C5.15,8.26 5.06,8.28 5,8.37 L2.79,11.86 Z"/>
  <path d="M18.77,17.25 C18.299,17.25 17.86,17.07 17.52,16.73 L14.04,13.25 C13.71,12.92 13.52,12.47 13.52,12 C13.52,11.53 13.7,11.08 14.04,10.75 L17.509,7.27 C17.89,6.89 18.419,6.7 18.95,6.76 C19.489,6.82 19.959,7.11 20.25,7.57 L22.459,11.05 C22.829,11.63 22.829,12.37 22.459,12.95 L20.25,16.43 C19.959,16.89 19.489,17.18 18.95,17.24 C18.899,17.24 18.829,17.25 18.77,17.25 Z M18.77,8.26 C18.72,8.26 18.649,8.27 18.579,8.34 L15.1,11.82 C15.03,11.89 15.02,11.97 15.02,12.01 C15.02,12.05 15.03,12.13 15.1,12.2 L18.579,15.68 C18.66,15.76 18.75,15.76 18.799,15.76 C18.849,15.75 18.939,15.73 19,15.64 L21.209,12.16 C21.27,12.07 21.27,11.96 21.209,11.87 L19,8.39 C18.939,8.3 18.849,8.27 18.799,8.27 C18.79,8.26 18.779,8.26 18.77,8.26 Z"/>
</svg>

