<svg xmlns="http://www.w3.org/2000/svg" width="24" height="24" viewBox="0 0 24 24">
  <defs/>
  <path d="M7.577,3.616 Q8.061,2.437 9.32,2.45 L14.67,2.45 Q15.935,2.45 16.42,3.617 Q16.905,4.785 16.01,5.68 L13.34,8.35 Q12.783,8.907 12,8.907 Q11.217,8.907 10.66,8.35 L7.99,5.68 L7.99,5.68 Q7.097,4.787 7.577,3.616 Z M9.05,4.619 L11.72,7.289 Q11.86,7.429 12,7.429 Q12.14,7.429 12.28,7.289 L14.95,4.619 Q15.135,4.434 15.035,4.192 Q14.934,3.95 14.67,3.95 L9.32,3.95 Q9.063,3.947 8.965,4.186 Q8.864,4.433 9.05,4.619 Z"/>
  <path d="M7.99,18.319 L10.66,15.649 Q11.217,15.092 12,15.092 Q12.783,15.092 13.34,15.649 L16.01,18.319 Q16.905,19.214 16.42,20.382 Q15.935,21.55 14.67,21.55 L9.32,21.55 Q8.061,21.562 7.577,20.383 Q7.097,19.213 7.99,18.319 Z M9.05,19.38 Q8.864,19.567 8.965,19.814 Q9.063,20.052 9.32,20.05 L14.67,20.05 Q14.934,20.05 15.035,19.807 Q15.135,19.566 14.95,19.38 L12.28,16.71 Q12.162,16.592 12,16.592 Q11.838,16.592 11.72,16.71 Z"/>
  <path opacity="0.4" d="M1.527,11.048 L3.737,7.568 Q4.194,6.85 5.04,6.76 Q5.882,6.671 6.481,7.27 L9.961,10.75 Q11.211,12 9.961,13.25 L6.481,16.73 Q5.882,17.329 5.04,17.24 Q4.194,17.15 3.738,16.433 L1.527,12.952 Q0.939,12 1.522,11.056 Z M2.797,11.847 Q2.703,12.001 2.794,12.148 L5.003,15.627 Q5.071,15.734 5.199,15.748 Q5.328,15.762 5.42,15.67 L8.9,12.19 Q9.09,12 8.9,11.81 L5.42,8.33 Q5.328,8.238 5.199,8.252 Q5.071,8.266 5.004,8.372 L2.797,11.847 Z"/>
  <path opacity="0.4" d="M22.478,11.056 Q23.061,12 22.473,12.952 L20.262,16.433 Q19.806,17.15 18.96,17.24 Q18.118,17.329 17.519,16.73 L14.039,13.25 Q12.789,12 14.039,10.75 L17.519,7.27 Q18.118,6.671 18.96,6.76 Q19.806,6.85 20.263,7.568 L22.473,11.048 Z M18.996,8.372 Q18.929,8.266 18.801,8.252 Q18.672,8.238 18.58,8.33 L15.1,11.81 Q14.91,12 15.1,12.19 L18.58,15.67 Q18.672,15.762 18.801,15.748 Q18.929,15.734 18.997,15.627 L21.206,12.148 Q21.297,12.001 21.203,11.847 L18.996,8.372 Z"/>
</svg>

