<svg xmlns="http://www.w3.org/2000/svg" width="24" height="24" viewBox="0 0 24 24">
  <defs/>
  <path d="M7.991,5.68 Q7.098,4.787 7.578,3.616 Q8.062,2.438 9.321,2.45 L14.671,2.45 Q15.936,2.45 16.421,3.617 Q16.906,4.786 16.011,5.68 L13.341,8.35 Q12.001,9.691 10.661,8.35 Z M9.051,4.62 L11.721,7.29 Q12.001,7.569 12.281,7.29 L14.951,4.62 Q15.136,4.434 15.036,4.193 Q14.935,3.95 14.671,3.95 L9.321,3.95 Q9.064,3.948 8.966,4.186 Q8.865,4.433 9.051,4.62 Z"/>
  <path d="M7.991,18.32 L10.661,15.65 Q11.218,15.092 12.001,15.092 Q12.784,15.092 13.341,15.65 L16.011,18.32 Q16.906,19.214 16.421,20.383 Q15.936,21.55 14.671,21.55 L9.321,21.55 Q8.062,21.562 7.578,20.384 Q7.098,19.213 7.991,18.32 Z M9.051,19.38 Q8.865,19.567 8.966,19.814 Q9.064,20.053 9.321,20.05 L14.671,20.05 Q14.935,20.05 15.036,19.807 Q15.136,19.566 14.951,19.38 L12.281,16.71 Q12.001,16.431 11.721,16.71 Z"/>
  <path d="M1.526,11.048 L3.736,7.568 Q4.193,6.85 5.039,6.76 Q5.881,6.671 6.48,7.27 L9.96,10.75 Q11.21,12 9.96,13.25 L6.48,16.73 Q5.881,17.329 5.039,17.24 Q4.193,17.15 3.737,16.433 L1.526,12.952 Q0.938,12 1.521,11.056 Z M2.796,11.847 Q2.702,12.001 2.793,12.148 L5.002,15.627 Q5.07,15.734 5.198,15.748 Q5.327,15.762 5.419,15.67 L8.899,12.19 Q9.089,12 8.899,11.81 L5.419,8.33 Q5.327,8.238 5.198,8.252 Q5.07,8.266 5.003,8.372 L2.796,11.847 Z"/>
  <path d="M17.519,7.27 Q18.118,6.671 18.96,6.76 Q19.806,6.85 20.262,7.567 L22.473,11.048 Q23.075,11.995 22.472,12.943 L20.263,16.422 Q19.806,17.14 18.96,17.23 Q18.118,17.319 17.519,16.72 L14.039,13.24 Q13.52,12.721 13.52,11.99 Q13.52,11.259 14.039,10.74 L14.399,10.38 Q14.619,10.16 14.929,10.16 Q15.24,10.16 15.46,10.38 Q15.679,10.599 15.679,10.91 Q15.679,11.221 15.46,11.44 L15.1,11.8 Q14.91,11.99 15.1,12.18 L18.58,15.66 Q18.672,15.752 18.801,15.738 Q18.929,15.724 18.996,15.618 L21.207,12.137 Q21.297,11.995 21.206,11.852 L18.997,8.373 Q18.929,8.266 18.801,8.252 Q18.672,8.238 18.58,8.33 Q18.36,8.55 18.049,8.55 Q17.739,8.55 17.519,8.33 Q17.299,8.111 17.299,7.8 Q17.299,7.489 17.519,7.27 Z"/>
</svg>

