<svg xmlns="http://www.w3.org/2000/svg" width="24" height="24" viewBox="0 0 24 24">
  <defs/>
  <path fill="#17191C" d="M7.97,5.63 Q7.095,4.756 7.568,3.593 Q8.022,2.474 9.226,2.354 Q9.263,2.35 9.3,2.35 L14.7,2.35 Q15.958,2.35 16.435,3.563 Q16.905,4.756 16.03,5.63 L13.33,8.33 Q12.811,8.85 12,8.85 Q11.189,8.85 10.67,8.33 Z M9.03,4.57 L11.73,7.27 Q12,7.539 12.27,7.27 L14.97,4.57 Q15.149,4.39 15.04,4.112 Q14.936,3.85 14.7,3.85 L9.344,3.85 Q9.066,3.891 8.957,4.157 Q8.859,4.399 9.03,4.57 Z"/>
  <path fill="#17191C" d="M7.97,18.37 L10.67,15.67 Q12,14.339 13.33,15.67 L16.03,18.37 Q16.905,19.244 16.435,20.437 Q15.958,21.65 14.7,21.65 L9.3,21.65 Q9.263,21.65 9.226,21.646 Q8.022,21.526 7.568,20.407 Q7.095,19.244 7.97,18.37 Z M9.03,19.43 Q8.859,19.601 8.957,19.843 Q9.066,20.109 9.344,20.15 L14.7,20.15 Q14.936,20.15 15.04,19.888 Q15.149,19.61 14.97,19.43 L12.27,16.73 Q12.135,16.595 12,16.595 Q11.865,16.595 11.73,16.73 Z"/>
  <path fill="#17191C" d="M1.607,11.035 L3.748,7.629 Q4.154,6.853 5.032,6.743 Q5.896,6.635 6.53,7.27 L10.03,10.77 Q10.55,11.289 10.55,12 Q10.55,12.711 10.03,13.23 L6.53,16.73 Q5.896,17.365 5.066,17.256 Q4.267,17.152 3.776,16.416 Q3.77,16.408 3.765,16.399 L1.607,12.965 Q0.703,12 1.607,11.035 Z M2.835,11.899 Q2.801,11.953 2.759,12 Q2.801,12.047 2.835,12.101 L5.029,15.591 Q5.139,15.753 5.26,15.769 Q5.358,15.782 5.47,15.67 L8.97,12.17 Q9.055,12.085 9.055,12 Q9.055,11.915 8.97,11.83 L5.47,8.33 Q5.354,8.215 5.218,8.232 Q5.116,8.245 5.071,8.336 Q5.055,8.368 5.035,8.399 Z"/>
  <path fill="#17191C" d="M22.396,11.039 Q22.775,11.459 22.775,12 Q22.775,12.541 22.396,12.961 L20.235,16.399 Q20.23,16.408 20.224,16.416 Q19.734,17.152 18.935,17.256 Q18.104,17.365 17.47,16.73 L13.97,13.23 Q13.45,12.711 13.45,12 Q13.45,11.289 13.97,10.77 L17.47,7.27 Q17.499,7.24 17.532,7.214 Q18.154,6.717 18.968,6.818 Q19.83,6.926 20.235,7.601 L22.396,11.039 Z M21.165,11.899 L18.965,8.399 Q18.92,8.324 18.782,8.307 Q18.614,8.286 18.493,8.367 L15.031,11.83 Q14.95,11.911 14.95,12 Q14.95,12.089 15.031,12.17 L18.531,15.67 Q18.642,15.782 18.741,15.769 Q18.861,15.753 18.971,15.591 L21.165,12.101 Q21.199,12.047 21.241,12 Q21.199,11.953 21.165,11.899 Z"/>
</svg>

