<svg xmlns="http://www.w3.org/2000/svg" width="24" height="24" viewBox="0 0 24 24">
  <defs/>
  <path fill="#292D32" d="M13.5,16.75 L10.5,16.75 C7.75,16.75 5.75,14.75 5.75,12 L5.75,6.92 C5.75,5.45 6.95,4.25 8.42,4.25 L15.59,4.25 C17.06,4.25 18.26,5.45 18.26,6.92 L18.26,12 C18.25,14.75 16.25,16.75 13.5,16.75 Z M8.42,5.75 C7.78,5.75 7.25,6.27 7.25,6.92 L7.25,12 C7.25,13.62 8.25,15.25 10.5,15.25 L13.5,15.25 C15.75,15.25 16.75,13.62 16.75,12 L16.75,6.92 C16.75,6.28 16.23,5.75 15.58,5.75 L8.42,5.75 Z"/>
  <path fill="#292D32" d="M9.5,5.75 C9.09,5.75 8.75,5.41 8.75,5 L8.75,2 C8.75,1.59 9.09,1.25 9.5,1.25 C9.91,1.25 10.25,1.59 10.25,2 L10.25,5 C10.25,5.41 9.91,5.75 9.5,5.75 Z"/>
  <path fill="#292D32" d="M14.5,5.75 C14.09,5.75 13.75,5.41 13.75,5 L13.75,2 C13.75,1.59 14.09,1.25 14.5,1.25 C14.91,1.25 15.25,1.59 15.25,2 L15.25,5 C15.25,5.41 14.91,5.75 14.5,5.75 Z"/>
  <path fill="#292D32" d="M12,22.75 C11.59,22.75 11.25,22.41 11.25,22 L11.25,16 C11.25,15.59 11.59,15.25 12,15.25 C12.41,15.25 12.75,15.59 12.75,16 L12.75,22 C12.75,22.41 12.41,22.75 12,22.75 Z"/>
</svg>

