<svg xmlns="http://www.w3.org/2000/svg" width="24" height="24" viewBox="0 0 24 24">
  <defs/>
  <path fill="#292D32" d="M10.5,16.75 Q8.353,16.75 7.019,15.341 Q5.751,14.001 5.76,12 L5.76,6.91 Q5.76,5.812 6.541,5.031 Q7.322,4.25 8.42,4.25 L15.59,4.25 Q16.688,4.25 17.469,5.031 Q18.25,5.812 18.25,6.91 L18.25,12 Q18.25,14.004 16.982,15.341 Q15.645,16.75 13.5,16.75 Z M10.5,15.25 L13.5,15.25 Q16.75,15.25 16.75,12 L16.75,6.91 Q16.75,6.433 16.408,6.092 Q16.067,5.75 15.59,5.75 L8.42,5.75 Q7.943,5.75 7.601,6.092 Q7.26,6.433 7.26,6.91 L7.26,12 Q7.253,13.406 8.108,14.309 Q8.999,15.25 10.5,15.25 Z"/>
  <path fill="#292D32" opacity="0.4" d="M10.25,2 L10.25,5 Q10.25,5.311 10.03,5.53 Q9.811,5.75 9.5,5.75 Q9.189,5.75 8.97,5.53 Q8.75,5.311 8.75,5 L8.75,2 Q8.75,1.689 8.97,1.47 Q9.189,1.25 9.5,1.25 Q9.811,1.25 10.03,1.47 Q10.25,1.689 10.25,2 Z"/>
  <path fill="#292D32" opacity="0.4" d="M15.25,2 L15.25,5 Q15.25,5.311 15.03,5.53 Q14.811,5.75 14.5,5.75 Q14.189,5.75 13.97,5.53 Q13.75,5.311 13.75,5 L13.75,2 Q13.75,1.689 13.97,1.47 Q14.189,1.25 14.5,1.25 Q14.811,1.25 15.03,1.47 Q15.25,1.689 15.25,2 Z"/>
  <path fill="#292D32" opacity="0.4" d="M11.25,22 L11.25,16 Q11.25,15.689 11.47,15.47 Q11.689,15.25 12,15.25 Q12.311,15.25 12.53,15.47 Q12.75,15.689 12.75,16 L12.75,22 Q12.75,22.311 12.53,22.53 Q12.311,22.75 12,22.75 Q11.689,22.75 11.47,22.53 Q11.25,22.311 11.25,22 Z"/>
</svg>

