<svg xmlns="http://www.w3.org/2000/svg" width="24" height="24" viewBox="0 0 24 24">
  <defs/>
  <path fill="#292D32" d="M16.75,7.96 L16.75,6.91 Q16.75,6.433 16.408,6.092 Q16.067,5.75 15.59,5.75 L8.42,5.75 Q7.26,5.75 7.26,6.91 L7.26,12 Q7.26,13.405 8.116,14.309 Q9.009,15.25 10.51,15.25 L13.51,15.25 Q16.76,15.25 16.76,12 Q16.76,11.689 16.979,11.47 Q17.199,11.25 17.51,11.25 Q17.82,11.25 18.04,11.47 Q18.26,11.689 18.26,12 Q18.26,16.75 13.51,16.75 L10.51,16.75 Q8.364,16.75 7.028,15.341 Q5.76,14.004 5.76,12 L5.76,6.91 Q5.76,4.25 8.42,4.25 L15.59,4.25 Q16.688,4.25 17.469,5.031 Q18.25,5.812 18.25,6.91 L18.25,7.96 Q18.25,8.271 18.03,8.49 Q17.81,8.71 17.5,8.71 Q17.189,8.71 16.969,8.49 Q16.75,8.271 16.75,7.96 Z"/>
  <path fill="#292D32" d="M10.25,2 L10.25,5 Q10.25,5.311 10.03,5.53 Q9.811,5.75 9.5,5.75 Q9.189,5.75 8.97,5.53 Q8.75,5.311 8.75,5 L8.75,2 Q8.75,1.689 8.97,1.47 Q9.189,1.25 9.5,1.25 Q9.811,1.25 10.03,1.47 Q10.25,1.689 10.25,2 Z"/>
  <path fill="#292D32" d="M15.25,2 L15.25,5 Q15.25,5.311 15.03,5.53 Q14.811,5.75 14.5,5.75 Q14.189,5.75 13.97,5.53 Q13.75,5.311 13.75,5 L13.75,2 Q13.75,1.689 13.97,1.47 Q14.189,1.25 14.5,1.25 Q14.811,1.25 15.03,1.47 Q15.25,1.689 15.25,2 Z"/>
  <path fill="#292D32" d="M11.25,22 L11.25,16 Q11.25,15.689 11.47,15.47 Q11.689,15.25 12,15.25 Q12.311,15.25 12.53,15.47 Q12.75,15.689 12.75,16 L12.75,22 Q12.75,22.311 12.53,22.53 Q12.311,22.75 12,22.75 Q11.689,22.75 11.47,22.53 Q11.25,22.311 11.25,22 Z"/>
</svg>

