<svg xmlns="http://www.w3.org/2000/svg" width="24" height="24" viewBox="0 0 24 24">
  <defs/>
  <path fill="#292D32" d="M15.59,5 L15.25,5 L15.25,2 C15.25,1.59 14.91,1.25 14.5,1.25 C14.09,1.25 13.75,1.59 13.75,2 L13.75,5 L10.25,5 L10.25,2 C10.25,1.59 9.91,1.25 9.5,1.25 C9.09,1.25 8.75,1.59 8.75,2 L8.75,5 L8.41,5 C7.36,5 6.5,5.86 6.5,6.91 L6.5,12 C6.5,14.2 8,16 10.5,16 L11.25,16 L11.25,22 C11.25,22.41 11.59,22.75 12,22.75 C12.41,22.75 12.75,22.41 12.75,22 L12.75,16 L13.5,16 C16,16 17.5,14.2 17.5,12 L17.5,6.91 C17.5,5.86 16.64,5 15.59,5 Z"/>
</svg>

