<svg xmlns="http://www.w3.org/2000/svg" width="24" height="24" viewBox="0 0 24 24">
  <defs/>
  <path fill="#292D32" opacity="0.4" d="M10.5,16 L13.5,16 C16,16 17.5,14.2 17.5,12 L17.5,6.91 C17.5,5.86 16.64,5 15.59,5 L8.42,5 C7.37,5 6.51,5.86 6.51,6.91 L6.51,12 C6.5,14.2 8,16 10.5,16 Z"/>
  <path fill="#292D32" d="M10.25,2 L10.25,5 L8.75,5 L8.75,2 C8.75,1.59 9.09,1.25 9.5,1.25 C9.91,1.25 10.25,1.59 10.25,2 Z"/>
  <path fill="#292D32" d="M15.25,2 L15.25,5 L13.75,5 L13.75,2 C13.75,1.59 14.09,1.25 14.5,1.25 C14.91,1.25 15.25,1.59 15.25,2 Z"/>
  <path fill="#292D32" d="M12.75,16 L12.75,22 C12.75,22.41 12.41,22.75 12,22.75 C11.59,22.75 11.25,22.41 11.25,22 L11.25,16 L12.75,16 Z"/>
</svg>

