<svg xmlns="http://www.w3.org/2000/svg" width="24" height="24" viewBox="0 0 24 24">
  <defs/>
  <path fill="#292D32" d="M15.73,2.75 Q14.25,2.75 14.25,4.1 L14.25,10.9 Q14.25,11.7 14.533,11.966 Q14.834,12.25 15.73,12.25 L19.77,12.25 Q20.666,12.25 20.967,11.966 Q21.25,11.7 21.25,10.9 L21.25,4.1 Q21.25,2.75 19.77,2.75 Q19.459,2.75 19.24,2.53 Q19.02,2.311 19.02,2 Q19.02,1.689 19.24,1.47 Q19.459,1.25 19.77,1.25 Q21.26,1.25 21.995,1.941 Q22.75,2.651 22.75,4.1 L22.75,10.9 Q22.75,12.349 21.995,13.059 Q21.26,13.75 19.77,13.75 L15.73,13.75 Q12.75,13.75 12.75,10.9 L12.75,4.1 Q12.75,1.25 15.73,1.25 Q16.041,1.25 16.26,1.47 Q16.48,1.689 16.48,2 Q16.48,2.311 16.26,2.53 Q16.041,2.75 15.73,2.75 Z"/>
  <path fill="#292D32" d="M22.75,19.9 Q22.75,21.349 21.995,22.059 Q21.26,22.75 19.77,22.75 L15.73,22.75 Q12.75,22.75 12.75,19.9 L12.75,18.1 Q12.75,15.25 15.73,15.25 L19.77,15.25 Q21.26,15.25 21.995,15.941 Q22.75,16.651 22.75,18.1 Z M21.25,19.9 L21.25,18.1 Q21.25,16.75 19.77,16.75 L15.73,16.75 Q14.25,16.75 14.25,18.1 L14.25,19.9 Q14.25,20.7 14.533,20.966 Q14.834,21.25 15.73,21.25 L19.77,21.25 Q20.666,21.25 20.967,20.966 Q21.25,20.7 21.25,19.9 Z"/>
  <path fill="#292D32" d="M4.23,22.75 Q2.74,22.75 2.005,22.059 Q1.25,21.349 1.25,19.9 L1.25,13.1 Q1.25,10.25 4.23,10.25 L8.27,10.25 Q9.76,10.25 10.495,10.941 Q11.25,11.651 11.25,13.1 L11.25,19.9 Q11.25,22.75 8.27,22.75 Q7.959,22.75 7.74,22.53 Q7.52,22.311 7.52,22 Q7.52,21.689 7.74,21.47 Q7.959,21.25 8.27,21.25 Q9.75,21.25 9.75,19.9 L9.75,13.1 Q9.75,12.3 9.467,12.034 Q9.166,11.75 8.27,11.75 L4.23,11.75 Q2.75,11.75 2.75,13.1 L2.75,19.9 Q2.75,20.7 3.033,20.966 Q3.334,21.25 4.23,21.25 Q4.541,21.25 4.76,21.47 Q4.98,21.689 4.98,22 Q4.98,22.311 4.76,22.53 Q4.541,22.75 4.23,22.75 Z"/>
  <path fill="#292D32" d="M11.25,4.1 L11.25,5.9 Q11.25,8.75 8.27,8.75 L4.23,8.75 Q2.74,8.75 2.005,8.059 Q1.25,7.349 1.25,5.9 L1.25,4.1 Q1.25,1.25 4.23,1.25 L8.27,1.25 Q11.25,1.25 11.25,4.1 Z M9.75,4.1 Q9.75,3.3 9.467,3.034 Q9.166,2.75 8.27,2.75 L4.23,2.75 Q3.334,2.75 3.033,3.034 Q2.75,3.3 2.75,4.1 L2.75,5.9 Q2.75,6.7 3.033,6.966 Q3.334,7.25 4.23,7.25 L8.27,7.25 Q9.166,7.25 9.467,6.966 Q9.75,6.7 9.75,5.9 Z"/>
</svg>

