<svg xmlns="http://www.w3.org/2000/svg" width="24" height="24" viewBox="0 0 24 24">
  <defs/>
  <path fill="#292D32" d="M19.77,11.25 L15.73,11.25 C13.72,11.25 12.75,10.27 12.75,8.27 L12.75,4.23 C12.75,2.22 13.73,1.25 15.73,1.25 L19.77,1.25 C21.78,1.25 22.75,2.23 22.75,4.23 L22.75,8.27 C22.75,10.27 21.77,11.25 19.77,11.25 Z M15.73,2.75 C14.55,2.75 14.25,3.05 14.25,4.23 L14.25,8.27 C14.25,9.45 14.55,9.75 15.73,9.75 L19.77,9.75 C20.95,9.75 21.25,9.45 21.25,8.27 L21.25,4.23 C21.25,3.05 20.95,2.75 19.77,2.75 L15.73,2.75 Z"/>
  <path fill="#292D32" d="M8.27,11.25 L4.23,11.25 C2.22,11.25 1.25,10.36 1.25,8.52 L1.25,3.98 C1.25,2.14 2.23,1.25 4.23,1.25 L8.27,1.25 C10.28,1.25 11.25,2.14 11.25,3.98 L11.25,8.51 C11.25,10.36 10.27,11.25 8.27,11.25 Z M4.23,2.75 C2.89,2.75 2.75,3.13 2.75,3.98 L2.75,8.51 C2.75,9.37 2.89,9.74 4.23,9.74 L8.27,9.74 C9.61,9.74 9.75,9.36 9.75,8.51 L9.75,3.98 C9.75,3.12 9.61,2.75 8.27,2.75 L4.23,2.75 Z"/>
  <path fill="#292D32" d="M8.27,22.75 L4.23,22.75 C2.22,22.75 1.25,21.77 1.25,19.77 L1.25,15.73 C1.25,13.72 2.23,12.75 4.23,12.75 L8.27,12.75 C10.28,12.75 11.25,13.73 11.25,15.73 L11.25,19.77 C11.25,21.77 10.27,22.75 8.27,22.75 Z M4.23,14.25 C3.05,14.25 2.75,14.55 2.75,15.73 L2.75,19.77 C2.75,20.95 3.05,21.25 4.23,21.25 L8.27,21.25 C9.45,21.25 9.75,20.95 9.75,19.77 L9.75,15.73 C9.75,14.55 9.45,14.25 8.27,14.25 L4.23,14.25 Z"/>
  <path fill="#292D32" d="M21,16.25 L15,16.25 C14.59,16.25 14.25,15.91 14.25,15.5 C14.25,15.09 14.59,14.75 15,14.75 L21,14.75 C21.41,14.75 21.75,15.09 21.75,15.5 C21.75,15.91 21.41,16.25 21,16.25 Z"/>
  <path fill="#292D32" d="M21,20.25 L15,20.25 C14.59,20.25 14.25,19.91 14.25,19.5 C14.25,19.09 14.59,18.75 15,18.75 L21,18.75 C21.41,18.75 21.75,19.09 21.75,19.5 C21.75,19.91 21.41,20.25 21,20.25 Z"/>
</svg>

