<svg xmlns="http://www.w3.org/2000/svg" width="24" height="24" viewBox="0 0 24 24">
  <defs/>
  <path fill="#292D32" d="M22.75,8.52 Q22.75,9.916 21.978,10.599 Q21.244,11.249 19.77,11.24 L15.73,11.24 Q12.75,11.24 12.75,8.51 L12.75,3.98 Q12.75,1.25 15.73,1.25 L19.77,1.25 Q22.75,1.25 22.75,3.98 Z M21.25,8.52 L21.25,3.98 Q21.25,2.75 19.77,2.75 L15.73,2.75 Q14.25,2.75 14.25,3.98 L14.25,8.51 Q14.25,9.74 15.73,9.74 L19.77,9.74 Q20.679,9.746 20.984,9.476 Q21.25,9.241 21.25,8.52 Z"/>
  <path fill="#292D32" opacity="0.4" d="M22.75,19.77 Q22.75,21.273 22.012,22.012 Q21.273,22.75 19.77,22.75 L15.73,22.75 Q14.227,22.75 13.488,22.012 Q12.75,21.273 12.75,19.77 L12.75,15.73 Q12.75,12.75 15.73,12.75 L19.77,12.75 Q22.75,12.75 22.75,15.73 Z M21.25,19.77 L21.25,15.73 Q21.25,14.848 20.951,14.549 Q20.652,14.25 19.77,14.25 L15.73,14.25 Q14.848,14.25 14.549,14.549 Q14.25,14.848 14.25,15.73 L14.25,19.77 Q14.25,20.652 14.549,20.951 Q14.848,21.25 15.73,21.25 L19.77,21.25 Q20.652,21.25 20.951,20.951 Q21.25,20.652 21.25,19.77 Z"/>
  <path fill="#292D32" opacity="0.4" d="M11.25,8.52 Q11.25,9.916 10.478,10.599 Q9.744,11.249 8.27,11.24 L4.23,11.24 Q1.25,11.24 1.25,8.51 L1.25,3.98 Q1.25,2.585 2.021,1.901 Q2.753,1.25 4.23,1.25 L8.27,1.25 Q11.25,1.25 11.25,3.98 Z M9.75,8.52 L9.75,3.98 Q9.75,2.75 8.27,2.75 L4.23,2.75 Q2.75,2.75 2.75,3.98 L2.75,8.51 Q2.75,9.74 4.23,9.74 L8.27,9.74 Q9.179,9.746 9.484,9.476 Q9.75,9.241 9.75,8.52 Z"/>
  <path fill="#292D32" d="M11.25,19.77 Q11.25,22.75 8.27,22.75 L4.23,22.75 Q2.727,22.75 1.988,22.012 Q1.25,21.273 1.25,19.77 L1.25,15.73 Q1.25,14.227 1.988,13.488 Q2.727,12.75 4.23,12.75 L8.27,12.75 Q11.25,12.75 11.25,15.73 Z M9.75,19.77 L9.75,15.73 Q9.75,14.25 8.27,14.25 L4.23,14.25 Q2.75,14.25 2.75,15.73 L2.75,19.77 Q2.75,20.652 3.049,20.951 Q3.348,21.25 4.23,21.25 L8.27,21.25 Q9.152,21.25 9.451,20.951 Q9.75,20.652 9.75,19.77 Z"/>
</svg>

