<svg xmlns="http://www.w3.org/2000/svg" width="24" height="24" viewBox="0 0 24 24">
  <defs/>
  <path fill="#292D32" d="M11.25,19.9 Q11.25,22.75 8.27,22.75 L4.23,22.75 Q1.25,22.75 1.25,19.9 L1.25,4.1 Q1.25,2.651 2.005,1.941 Q2.74,1.25 4.23,1.25 L8.27,1.25 Q11.25,1.25 11.25,4.1 Z M9.75,19.9 L9.75,4.1 Q9.75,3.3 9.467,3.034 Q9.166,2.75 8.27,2.75 L4.23,2.75 Q2.75,2.75 2.75,4.1 L2.75,19.9 Q2.75,21.25 4.23,21.25 L8.27,21.25 Q9.166,21.25 9.467,20.966 Q9.75,20.7 9.75,19.9 Z"/>
  <path fill="#292D32" d="M22.75,10.9 Q22.75,12.349 21.995,13.059 Q21.26,13.75 19.77,13.75 L15.73,13.75 Q12.75,13.75 12.75,10.9 L12.75,4.1 Q12.75,1.25 15.73,1.25 L19.77,1.25 Q21.26,1.25 21.995,1.941 Q22.75,2.651 22.75,4.1 Z M21.25,10.9 L21.25,4.1 Q21.25,2.75 19.77,2.75 L15.73,2.75 Q14.25,2.75 14.25,4.1 L14.25,10.9 Q14.25,11.7 14.533,11.966 Q14.834,12.25 15.73,12.25 L19.77,12.25 Q20.666,12.25 20.967,11.966 Q21.25,11.7 21.25,10.9 Z"/>
  <path fill="#292D32" d="M22.75,19.9 Q22.75,21.349 21.995,22.059 Q21.26,22.75 19.77,22.75 L15.73,22.75 Q12.75,22.75 12.75,19.9 L12.75,18.1 Q12.75,15.25 15.73,15.25 L19.77,15.25 Q21.26,15.25 21.995,15.941 Q22.75,16.651 22.75,18.1 Z M21.25,19.9 L21.25,18.1 Q21.25,16.75 19.77,16.75 L15.73,16.75 Q14.25,16.75 14.25,18.1 L14.25,19.9 Q14.25,20.7 14.533,20.966 Q14.834,21.25 15.73,21.25 L19.77,21.25 Q20.666,21.25 20.967,20.966 Q21.25,20.7 21.25,19.9 Z"/>
</svg>

