<svg xmlns="http://www.w3.org/2000/svg" width="24" height="24" viewBox="0 0 24 24">
  <defs/>
  <path fill="#292D32" opacity="0.4" d="M22,8.52 L22,3.98 C22,2.57 21.36,2 19.77,2 L15.73,2 C14.14,2 13.5,2.57 13.5,3.98 L13.5,8.51 C13.5,9.93 14.14,10.49 15.73,10.49 L19.77,10.49 C21.36,10.5 22,9.93 22,8.52 Z"/>
  <path fill="#292D32" d="M22,19.77 L22,15.73 C22,14.14 21.36,13.5 19.77,13.5 L15.73,13.5 C14.14,13.5 13.5,14.14 13.5,15.73 L13.5,19.77 C13.5,21.36 14.14,22 15.73,22 L19.77,22 C21.36,22 22,21.36 22,19.77 Z"/>
  <path fill="#292D32" d="M10.5,8.52 L10.5,3.98 C10.5,2.57 9.86,2 8.27,2 L4.23,2 C2.64,2 2,2.57 2,3.98 L2,8.51 C2,9.93 2.64,10.49 4.23,10.49 L8.27,10.49 C9.86,10.5 10.5,9.93 10.5,8.52 Z"/>
  <path fill="#292D32" opacity="0.4" d="M10.5,19.77 L10.5,15.73 C10.5,14.14 9.86,13.5 8.27,13.5 L4.23,13.5 C2.64,13.5 2,14.14 2,15.73 L2,19.77 C2,21.36 2.64,22 4.23,22 L8.27,22 C9.86,22 10.5,21.36 10.5,19.77 Z"/>
</svg>

