<svg xmlns="http://www.w3.org/2000/svg" width="24" height="24" viewBox="0 0 24 24">
  <defs/>
  <path fill="#292D32" d="M21.5,10.9 L21.5,4.1 C21.5,2.6 20.86,2 19.27,2 L15.23,2 C13.64,2 13,2.6 13,4.1 L13,10.9 C13,12.4 13.64,13 15.23,13 L19.27,13 C20.86,13 21.5,12.4 21.5,10.9 Z"/>
  <path fill="#292D32" d="M11,13.1 L11,19.9 C11,21.4 10.36,22 8.77,22 L4.73,22 C3.14,22 2.5,21.4 2.5,19.9 L2.5,13.1 C2.5,11.6 3.14,11 4.73,11 L8.77,11 C10.36,11 11,11.6 11,13.1 Z"/>
  <path fill="#292D32" d="M21.5,19.9 L21.5,17.1 C21.5,15.6 20.86,15 19.27,15 L15.23,15 C13.64,15 13,15.6 13,17.1 L13,19.9 C13,21.4 13.64,22 15.23,22 L19.27,22 C20.86,22 21.5,21.4 21.5,19.9 Z"/>
  <path fill="#292D32" d="M11,6.9 L11,4.1 C11,2.6 10.36,2 8.77,2 L4.73,2 C3.14,2 2.5,2.6 2.5,4.1 L2.5,6.9 C2.5,8.4 3.14,9 4.73,9 L8.77,9 C10.36,9 11,8.4 11,6.9 Z"/>
</svg>

