<svg xmlns="http://www.w3.org/2000/svg" width="24" height="24" viewBox="0 0 24 24">
  <defs/>
  <path d="M12,2 C6.48,2 2,6.48 2,12 C2,17.52 6.48,22 12,22 C17.52,22 22,17.52 22,12 C22,6.48 17.52,2 12,2 Z M17.25,16 C17.25,16.41 16.91,16.75 16.5,16.75 L7.5,16.75 C7.09,16.75 6.75,16.41 6.75,16 C6.75,15.59 7.09,15.25 7.5,15.25 L15.75,15.25 L15.75,8.75 L13.25,8.75 L13.25,12 C13.25,12.41 12.91,12.75 12.5,12.75 L7.5,12.75 C7.09,12.75 6.75,12.41 6.75,12 C6.75,11.59 7.09,11.25 7.5,11.25 L11.75,11.25 L11.75,8.75 L7.5,8.75 C7.09,8.75 6.75,8.41 6.75,8 C6.75,7.59 7.09,7.25 7.5,7.25 L16.5,7.25 C16.91,7.25 17.25,7.59 17.25,8 L17.25,16 Z"/>
</svg>

