<svg xmlns="http://www.w3.org/2000/svg" width="24" height="24" viewBox="0 0 24 24">
  <defs/>
  <path fill="white" opacity="0.58" d="M24,0 L0,0 L0,24 L24,24 L24,0 Z"/>
  <path fill="#292D32" opacity="0.4" d="M12,22 C17.523,22 22,17.523 22,12 C22,6.477 17.523,2 12,2 C6.477,2 2,6.477 2,12 C2,17.523 6.477,22 12,22 Z"/>
  <path fill="#292D32" d="M16.5,7.25 L7.5,7.25 C7.09,7.25 6.75,7.59 6.75,8 C6.75,8.41 7.09,8.75 7.5,8.75 L11.75,8.75 L11.75,11.25 L7.5,11.25 C7.09,11.25 6.75,11.59 6.75,12 C6.75,12.41 7.09,12.75 7.5,12.75 L12.5,12.75 C12.91,12.75 13.25,12.41 13.25,12 L13.25,8.75 L15.75,8.75 L15.75,15.25 L7.5,15.25 C7.09,15.25 6.75,15.59 6.75,16 C6.75,16.41 7.09,16.75 7.5,16.75 L16.5,16.75 C16.91,16.75 17.25,16.41 17.25,16 L17.25,8 C17.25,7.59 16.91,7.25 16.5,7.25 Z"/>
</svg>

