<svg xmlns="http://www.w3.org/2000/svg" width="24" height="24" viewBox="0 0 24 24">
  <defs/>
  <path d="M7.5,7.25 L16.5,7.25 Q16.811,7.25 17.03,7.47 Q17.25,7.689 17.25,8 L17.25,16 Q17.25,16.311 17.03,16.53 Q16.811,16.75 16.5,16.75 L7.5,16.75 Q7.189,16.75 6.97,16.53 Q6.75,16.311 6.75,16 Q6.75,15.689 6.97,15.47 Q7.189,15.25 7.5,15.25 L15.75,15.25 L15.75,8.75 L7.5,8.75 Q7.189,8.75 6.97,8.53 Q6.75,8.311 6.75,8 Q6.75,7.689 6.97,7.47 Q7.189,7.25 7.5,7.25 Z"/>
  <path d="M7.5,11.25 L11.75,11.25 L11.75,8 Q11.75,7.689 11.97,7.47 Q12.189,7.25 12.5,7.25 Q12.811,7.25 13.03,7.47 Q13.25,7.689 13.25,8 L13.25,12 Q13.25,12.311 13.03,12.53 Q12.811,12.75 12.5,12.75 L7.5,12.75 Q7.189,12.75 6.97,12.53 Q6.75,12.311 6.75,12 Q6.75,11.689 6.97,11.47 Q7.189,11.25 7.5,11.25 Z"/>
  <path fill="#17191C" d="M4.6,6.449 Q2.75,8.922 2.75,12 Q2.75,15.829 5.46,18.54 Q8.171,21.25 12,21.25 Q15.829,21.25 18.54,18.54 Q21.25,15.829 21.25,12 Q21.25,8.171 18.54,5.46 Q15.829,2.75 12,2.75 Q10.031,2.75 8.276,3.535 Q7.993,3.661 7.702,3.551 Q7.412,3.44 7.285,3.156 Q7.158,2.873 7.269,2.582 Q7.38,2.292 7.664,2.165 Q9.711,1.25 12,1.25 Q16.451,1.25 19.6,4.4 Q22.75,7.549 22.75,12 Q22.75,16.451 19.6,19.6 Q16.451,22.75 12,22.75 Q7.549,22.75 4.4,19.6 Q1.25,16.451 1.25,12 Q1.25,8.422 3.4,5.551 Q3.586,5.302 3.893,5.258 Q4.201,5.213 4.449,5.4 Q4.698,5.586 4.742,5.893 Q4.787,6.201 4.6,6.449 Z"/>
</svg>

