<svg xmlns="http://www.w3.org/2000/svg" width="24" height="24" viewBox="0 0 24 24">
  <defs/>
  <path fill="#292D32" d="M16.19,2 L7.81,2 C4.17,2 2,4.17 2,7.81 L2,16.18 C2,19.83 4.17,22 7.81,22 L16.18,22 C19.82,22 21.99,19.83 21.99,16.19 L21.99,7.81 C22,4.17 19.83,2 16.19,2 Z M6.47,7.72 C6.76,7.43 7.24,7.43 7.53,7.72 C8.24,8.43 9.4,8.43 10.11,7.72 C10.4,7.43 10.88,7.43 11.17,7.72 C11.46,8.01 11.46,8.49 11.17,8.78 C10.52,9.43 9.67,9.75 8.82,9.75 C7.97,9.75 7.12,9.43 6.47,8.78 C6.18,8.48 6.18,8.01 6.47,7.72 Z M12,18.78 C9.31,18.78 7.12,16.59 7.12,13.9 C7.12,13.2 7.69,12.62 8.39,12.62 L15.59,12.62 C16.29,12.62 16.86,13.19 16.86,13.9 C16.88,16.59 14.69,18.78 12,18.78 Z M17.53,8.78 C16.88,9.43 16.03,9.75 15.18,9.75 C14.33,9.75 13.48,9.43 12.83,8.78 C12.54,8.49 12.54,8.01 12.83,7.72 C13.12,7.43 13.6,7.43 13.89,7.72 C14.6,8.43 15.76,8.43 16.47,7.72 C16.76,7.43 17.24,7.43 17.53,7.72 C17.82,8.01 17.82,8.48 17.53,8.78 Z"/>
</svg>

