<svg xmlns="http://www.w3.org/2000/svg" width="24" height="24" viewBox="0 0 24 24">
  <defs/>
  <path fill="#292D32" d="M2.75,13 L2.75,15 Q2.75,18.439 4.155,19.845 Q5.561,21.25 9,21.25 L15,21.25 Q18.439,21.25 19.845,19.845 Q21.25,18.439 21.25,15 L21.25,9 Q21.25,2.75 15,2.75 L9,2.75 Q2.75,2.75 2.75,9 Q2.75,9.311 2.53,9.53 Q2.311,9.75 2,9.75 Q1.689,9.75 1.47,9.53 Q1.25,9.311 1.25,9 Q1.25,1.25 9,1.25 L15,1.25 Q22.75,1.25 22.75,9 L22.75,15 Q22.75,22.75 15,22.75 L9,22.75 Q1.25,22.75 1.25,15 L1.25,13 Q1.25,12.689 1.47,12.47 Q1.689,12.25 2,12.25 Q2.311,12.25 2.53,12.47 Q2.75,12.689 2.75,13 Z"/>
  <path fill="#292D32" d="M7.53,7.72 Q8.814,9.003 10.112,7.717 Q10.333,7.498 10.644,7.5 Q10.954,7.502 11.173,7.722 Q11.392,7.943 11.39,8.254 Q11.388,8.564 11.168,8.783 Q8.808,11.119 6.47,8.78 Q6.25,8.561 6.25,8.25 Q6.25,7.939 6.47,7.72 Q6.689,7.5 7,7.5 Q7.311,7.5 7.53,7.72 Z"/>
  <path fill="#292D32" d="M13.89,7.72 Q15.173,9.003 16.472,7.717 Q16.692,7.498 17.003,7.5 Q17.314,7.502 17.532,7.722 Q17.751,7.943 17.749,8.254 Q17.748,8.564 17.527,8.783 Q15.168,11.119 12.829,8.78 Q12.609,8.561 12.609,8.25 Q12.609,7.939 12.829,7.72 Q13.049,7.5 13.359,7.5 Q13.67,7.5 13.89,7.72 Z"/>
  <path fill="#292D32" d="M8.4,12.25 L15.6,12.25 Q17.25,12.25 17.25,13.9 Q17.25,16.078 15.714,17.614 Q14.178,19.15 12,19.15 Q9.822,19.15 8.286,17.614 Q6.75,16.078 6.75,13.9 Q6.75,12.25 8.4,12.25 Z M8.4,13.75 Q8.25,13.75 8.25,13.9 Q8.25,15.457 9.347,16.553 Q10.443,17.65 12,17.65 Q13.557,17.65 14.653,16.553 Q15.75,15.457 15.75,13.9 Q15.75,13.75 15.6,13.75 Z"/>
</svg>

