<svg xmlns="http://www.w3.org/2000/svg" width="24" height="24" viewBox="0 0 24 24">
  <defs/>
  <path fill="#292D32" opacity="0.4" d="M16.19,2 L7.81,2 C4.17,2 2,4.17 2,7.81 L2,16.18 C2,19.83 4.17,22 7.81,22 L16.18,22 C19.82,22 21.99,19.83 21.99,16.19 L21.99,7.81 C22,4.17 19.83,2 16.19,2 Z"/>
  <path fill="#292D32" d="M8.819,9.75 C7.969,9.75 7.119,9.43 6.469,8.78 C6.179,8.49 6.179,8.01 6.469,7.72 C6.759,7.43 7.239,7.43 7.529,7.72 C8.239,8.43 9.399,8.43 10.11,7.72 C10.399,7.43 10.88,7.43 11.169,7.72 C11.46,8.01 11.46,8.49 11.169,8.78 C10.52,9.42 9.669,9.75 8.819,9.75 Z"/>
  <path fill="#292D32" d="M15.181,9.75 C14.331,9.75 13.481,9.43 12.831,8.78 C12.541,8.49 12.541,8.01 12.831,7.72 C13.121,7.43 13.601,7.43 13.891,7.72 C14.601,8.43 15.761,8.43 16.471,7.72 C16.761,7.43 17.241,7.43 17.531,7.72 C17.821,8.01 17.821,8.49 17.531,8.78 C16.881,9.42 16.031,9.75 15.181,9.75 Z"/>
  <path fill="#292D32" d="M15.601,12.62 L8.401,12.62 C7.701,12.62 7.131,13.19 7.131,13.9 C7.131,16.59 9.321,18.78 12.011,18.78 C14.701,18.78 16.891,16.59 16.891,13.9 C16.881,13.2 16.301,12.62 15.601,12.62 Z"/>
</svg>

