<svg xmlns="http://www.w3.org/2000/svg" width="24" height="24" viewBox="0 0 24 24">
  <defs/>
  <path fill="#292D32" d="M2.75,13 L2.75,15 Q2.75,18.439 4.155,19.845 Q5.561,21.25 9,21.25 L15,21.25 Q18.439,21.25 19.845,19.845 Q21.25,18.439 21.25,15 L21.25,9 Q21.25,2.75 15,2.75 L9,2.75 Q2.75,2.75 2.75,9 Q2.75,9.311 2.53,9.53 Q2.311,9.75 2,9.75 Q1.689,9.75 1.47,9.53 Q1.25,9.311 1.25,9 Q1.25,1.25 9,1.25 L15,1.25 Q22.75,1.25 22.75,9 L22.75,15 Q22.75,22.75 15,22.75 L9,22.75 Q1.25,22.75 1.25,15 L1.25,13 Q1.25,12.689 1.47,12.47 Q1.689,12.25 2,12.25 Q2.311,12.25 2.53,12.47 Q2.75,12.689 2.75,13 Z"/>
  <path fill="#292D32" d="M6.47,8.22 Q8.808,5.881 11.168,8.217 Q11.388,8.436 11.39,8.746 Q11.392,9.057 11.173,9.278 Q10.954,9.498 10.644,9.5 Q10.333,9.502 10.112,9.283 Q8.814,7.997 7.53,9.28 Q7.311,9.5 7,9.5 Q6.689,9.5 6.47,9.28 Q6.25,9.061 6.25,8.75 Q6.25,8.439 6.47,8.22 Z"/>
  <path fill="#292D32" d="M12.829,8.22 Q15.168,5.881 17.527,8.217 Q17.748,8.436 17.749,8.746 Q17.751,9.057 17.532,9.278 Q17.314,9.498 17.003,9.5 Q16.692,9.502 16.472,9.283 Q15.173,7.997 13.89,9.28 Q13.67,9.5 13.359,9.5 Q13.049,9.5 12.829,9.28 Q12.609,9.061 12.609,8.75 Q12.609,8.439 12.829,8.22 Z"/>
  <path fill="#292D32" d="M8.4,18.45 Q6.75,18.45 6.75,16.8 Q6.75,14.622 8.286,13.086 Q9.822,11.55 12,11.55 Q14.178,11.55 15.714,13.086 Q17.25,14.622 17.25,16.8 Q17.25,18.45 15.6,18.45 Z M8.4,16.95 L15.6,16.95 Q15.75,16.95 15.75,16.8 Q15.75,15.243 14.653,14.147 Q13.557,13.05 12,13.05 Q10.443,13.05 9.347,14.147 Q8.25,15.243 8.25,16.8 Q8.25,16.95 8.4,16.95 Z"/>
</svg>

