<svg xmlns="http://www.w3.org/2000/svg" width="24" height="24" viewBox="0 0 24 24">
  <defs/>
  <path fill="#292D32" d="M15,22.75 L9,22.75 C3.57,22.75 1.25,20.43 1.25,15 L1.25,9 C1.25,3.57 3.57,1.25 9,1.25 L15,1.25 C20.43,1.25 22.75,3.57 22.75,9 L22.75,15 C22.75,20.43 20.43,22.75 15,22.75 Z M9,2.75 C4.39,2.75 2.75,4.39 2.75,9 L2.75,15 C2.75,19.61 4.39,21.25 9,21.25 L15,21.25 C19.61,21.25 21.25,19.61 21.25,15 L21.25,9 C21.25,4.39 19.61,2.75 15,2.75 L9,2.75 Z"/>
  <path fill="#292D32" d="M8.819,9.75 C7.969,9.75 7.119,9.43 6.469,8.78 C6.179,8.49 6.179,8.01 6.469,7.72 C6.759,7.43 7.239,7.43 7.529,7.72 C8.239,8.43 9.399,8.43 10.11,7.72 C10.399,7.43 10.88,7.43 11.169,7.72 C11.46,8.01 11.46,8.49 11.169,8.78 C10.52,9.42 9.669,9.75 8.819,9.75 Z"/>
  <path fill="#292D32" d="M15.181,9.75 C14.331,9.75 13.481,9.43 12.831,8.78 C12.541,8.49 12.541,8.01 12.831,7.72 C13.121,7.43 13.601,7.43 13.891,7.72 C14.601,8.43 15.761,8.43 16.471,7.72 C16.761,7.43 17.241,7.43 17.531,7.72 C17.821,8.01 17.821,8.49 17.531,8.78 C16.881,9.42 16.031,9.75 15.181,9.75 Z"/>
  <path fill="#292D32" d="M12,19.15 C9.1,19.15 6.75,16.79 6.75,13.9 C6.75,12.99 7.49,12.25 8.4,12.25 L15.6,12.25 C16.51,12.25 17.25,12.99 17.25,13.9 C17.25,16.79 14.9,19.15 12,19.15 Z M8.4,13.75 C8.32,13.75 8.25,13.82 8.25,13.9 C8.25,15.97 9.93,17.65 12,17.65 C14.07,17.65 15.75,15.97 15.75,13.9 C15.75,13.82 15.68,13.75 15.6,13.75 L8.4,13.75 Z"/>
</svg>

