<svg xmlns="http://www.w3.org/2000/svg" width="24" height="24" viewBox="0 0 24 24">
  <defs/>
  <path fill="#292D32" opacity="0.4" d="M16.19,2 L7.81,2 C4.17,2 2,4.17 2,7.81 L2,16.18 C2,19.83 4.17,22 7.81,22 L16.18,22 C19.82,22 21.99,19.83 21.99,16.19 L21.99,7.81 C22,4.17 19.83,2 16.19,2 Z"/>
  <path fill="#292D32" d="M10.639,9.5 C10.45,9.5 10.259,9.43 10.11,9.28 C9.399,8.57 8.239,8.57 7.529,9.28 C7.239,9.57 6.759,9.57 6.469,9.28 C6.179,8.99 6.179,8.51 6.469,8.22 C7.759,6.93 9.869,6.93 11.169,8.22 C11.46,8.51 11.46,8.99 11.169,9.28 C11.02,9.43 10.829,9.5 10.639,9.5 Z"/>
  <path fill="#292D32" d="M13.361,9.5 C13.171,9.5 12.981,9.43 12.831,9.28 C12.541,8.99 12.541,8.51 12.831,8.22 C14.121,6.93 16.231,6.93 17.531,8.22 C17.821,8.51 17.821,8.99 17.531,9.28 C17.241,9.57 16.761,9.57 16.471,9.28 C15.761,8.57 14.601,8.57 13.891,9.28 C13.751,9.43 13.561,9.5 13.361,9.5 Z"/>
  <path fill="#292D32" d="M11.999,11.92 C9.309,11.92 7.119,14.11 7.119,16.8 C7.119,17.5 7.689,18.08 8.389,18.08 L15.589,18.08 C16.289,18.08 16.859,17.51 16.859,16.8 C16.879,14.11 14.689,11.92 11.999,11.92 Z"/>
</svg>

