<svg xmlns="http://www.w3.org/2000/svg" width="24" height="24" viewBox="0 0 24 24">
  <defs/>
  <path fill="#292D32" d="M16.19,2 L7.81,2 C4.17,2 2,4.17 2,7.81 L2,16.18 C2,19.83 4.17,22 7.81,22 L16.18,22 C19.82,22 21.99,19.83 21.99,16.19 L21.99,7.81 C22,4.17 19.83,2 16.19,2 Z M8.5,6.38 C9.53,6.38 10.38,7.22 10.38,8.26 C10.38,9.3 9.54,10.14 8.5,10.14 C7.46,10.14 6.62,9.28 6.62,8.25 C6.62,7.22 7.47,6.38 8.5,6.38 Z M12,19.08 C9.31,19.08 7.12,16.89 7.12,14.2 C7.12,13.5 7.69,12.92 8.39,12.92 L15.59,12.92 C16.29,12.92 16.86,13.49 16.86,14.2 C16.88,16.89 14.69,19.08 12,19.08 Z M15.5,10.12 C14.47,10.12 13.62,9.28 13.62,8.24 C13.62,7.2 14.46,6.36 15.5,6.36 C16.54,6.36 17.38,7.2 17.38,8.24 C17.38,9.28 16.53,10.12 15.5,10.12 Z"/>
</svg>

