<svg xmlns="http://www.w3.org/2000/svg" width="24" height="24" viewBox="0 0 24 24">
  <defs/>
  <path fill="#292D32" d="M15,22.75 L9,22.75 C3.57,22.75 1.25,20.43 1.25,15 L1.25,9 C1.25,3.57 3.57,1.25 9,1.25 L15,1.25 C20.43,1.25 22.75,3.57 22.75,9 L22.75,15 C22.75,20.43 20.43,22.75 15,22.75 Z M9,2.75 C4.39,2.75 2.75,4.39 2.75,9 L2.75,15 C2.75,19.61 4.39,21.25 9,21.25 L15,21.25 C19.61,21.25 21.25,19.61 21.25,15 L21.25,9 C21.25,4.39 19.61,2.75 15,2.75 L9,2.75 Z"/>
  <path fill="#292D32" d="M15.5,10.5 C14.26,10.5 13.25,9.49 13.25,8.25 C13.25,7.01 14.26,6 15.5,6 C16.74,6 17.75,7.01 17.75,8.25 C17.75,9.49 16.74,10.5 15.5,10.5 Z M15.5,7.5 C15.09,7.5 14.75,7.84 14.75,8.25 C14.75,8.66 15.09,9 15.5,9 C15.91,9 16.25,8.66 16.25,8.25 C16.25,7.84 15.91,7.5 15.5,7.5 Z"/>
  <path fill="#292D32" d="M8.5,10.5 C7.26,10.5 6.25,9.49 6.25,8.25 C6.25,7.01 7.26,6 8.5,6 C9.74,6 10.75,7.01 10.75,8.25 C10.75,9.49 9.74,10.5 8.5,10.5 Z M8.5,7.5 C8.09,7.5 7.75,7.84 7.75,8.25 C7.75,8.66 8.09,9 8.5,9 C8.91,9 9.25,8.66 9.25,8.25 C9.25,7.84 8.91,7.5 8.5,7.5 Z"/>
  <path fill="#292D32" d="M12,19.45 C9.1,19.45 6.75,17.09 6.75,14.2 C6.75,13.29 7.49,12.55 8.4,12.55 L15.6,12.55 C16.51,12.55 17.25,13.29 17.25,14.2 C17.25,17.09 14.9,19.45 12,19.45 Z M8.4,14.05 C8.32,14.05 8.25,14.12 8.25,14.2 C8.25,16.27 9.93,17.95 12,17.95 C14.07,17.95 15.75,16.27 15.75,14.2 C15.75,14.12 15.68,14.05 15.6,14.05 L8.4,14.05 Z"/>
</svg>

