<svg xmlns="http://www.w3.org/2000/svg" width="24" height="24" viewBox="0 0 24 24">
  <defs/>
  <path fill="#292D32" d="M15,22.75 L9,22.75 C3.57,22.75 1.25,20.43 1.25,15 L1.25,9 C1.25,3.57 3.57,1.25 9,1.25 L15,1.25 C20.43,1.25 22.75,3.57 22.75,9 L22.75,15 C22.75,20.43 20.43,22.75 15,22.75 Z M9,2.75 C4.39,2.75 2.75,4.39 2.75,9 L2.75,15 C2.75,19.61 4.39,21.25 9,21.25 L15,21.25 C19.61,21.25 21.25,19.61 21.25,15 L21.25,9 C21.25,4.39 19.61,2.75 15,2.75 L9,2.75 Z"/>
  <path fill="#292D32" d="M10.639,9.5 C10.45,9.5 10.259,9.43 10.11,9.28 C9.399,8.57 8.239,8.57 7.529,9.28 C7.239,9.57 6.759,9.57 6.469,9.28 C6.179,8.99 6.179,8.51 6.469,8.22 C7.759,6.93 9.869,6.93 11.169,8.22 C11.46,8.51 11.46,8.99 11.169,9.28 C11.02,9.43 10.829,9.5 10.639,9.5 Z"/>
  <path fill="#292D32" d="M13.361,9.5 C13.171,9.5 12.981,9.43 12.831,9.28 C12.541,8.99 12.541,8.51 12.831,8.22 C14.121,6.93 16.231,6.93 17.531,8.22 C17.821,8.51 17.821,8.99 17.531,9.28 C17.241,9.57 16.761,9.57 16.471,9.28 C15.761,8.57 14.601,8.57 13.891,9.28 C13.751,9.43 13.561,9.5 13.361,9.5 Z"/>
  <path fill="#292D32" d="M15.6,18.45 L8.4,18.45 C7.49,18.45 6.75,17.71 6.75,16.8 C6.75,13.91 9.1,11.55 12,11.55 C14.9,11.55 17.25,13.91 17.25,16.8 C17.25,17.71 16.51,18.45 15.6,18.45 Z M12,13.05 C9.93,13.05 8.25,14.73 8.25,16.8 C8.25,16.88 8.32,16.95 8.4,16.95 L15.6,16.95 C15.68,16.95 15.75,16.88 15.75,16.8 C15.75,14.73 14.07,13.05 12,13.05 Z"/>
</svg>

