<svg xmlns="http://www.w3.org/2000/svg" width="24" height="24" viewBox="0 0 24 24">
  <defs/>
  <path fill="#292D32" d="M18.564,14.087 Q18.13,14.511 18.187,15.109 Q18.286,16.3 19.6,16.3 L21.5,16.3 Q21.811,16.3 22.03,16.52 Q22.25,16.739 22.25,17.05 L22.25,18.24 Q22.25,20.103 20.927,21.427 Q19.603,22.75 17.74,22.75 L7.63,22.75 Q7.319,22.75 7.1,22.53 Q6.88,22.311 6.88,22 Q6.88,21.65 7.148,21.425 Q7.521,21.112 7.772,20.682 Q7.777,20.674 7.782,20.666 Q8.25,19.907 8.25,19 Q8.25,15.75 5,15.75 Q3.866,15.75 2.967,16.466 Q2.725,16.66 2.416,16.625 Q2.107,16.59 1.914,16.347 Q1.75,16.142 1.75,15.88 L1.75,11.51 Q1.75,9.647 3.073,8.323 Q4.397,7 6.26,7 L17.74,7 Q19.603,7 20.927,8.323 Q22.25,9.647 22.25,11.51 L22.25,12.95 Q22.25,13.261 22.03,13.48 Q21.811,13.7 21.5,13.7 L19.48,13.7 Q18.941,13.7 18.577,14.073 Q18.571,14.08 18.564,14.087 Z M17.509,13.02 Q18.313,12.2 19.48,12.2 L20.75,12.2 L20.75,11.51 Q20.75,10.268 19.866,9.384 Q18.982,8.5 17.74,8.5 L6.26,8.5 Q3.25,8.5 3.25,11.51 L3.25,14.578 Q4.07,14.25 5,14.25 Q6.968,14.25 8.359,15.641 Q9.75,17.032 9.75,19 Q9.75,20.212 9.177,21.25 L17.74,21.25 Q18.982,21.25 19.866,20.366 Q20.75,19.482 20.75,18.24 L20.75,17.8 L19.6,17.8 Q16.906,17.8 16.693,15.251 Q16.569,13.943 17.509,13.02 Z"/>
  <path fill="#292D32" d="M1.75,12.41 L1.75,7.84 Q1.75,5.348 4.075,4.469 L12.015,1.468 Q13.313,0.976 14.457,1.768 Q15.6,2.56 15.6,3.95 L15.6,7.75 Q15.6,8.061 15.38,8.28 Q15.161,8.5 14.85,8.5 Q14.539,8.5 14.32,8.28 Q14.1,8.061 14.1,7.75 L14.1,3.95 Q14.1,3.346 13.603,3.002 Q13.107,2.659 12.545,2.872 L4.605,5.872 Q3.25,6.384 3.25,7.84 L3.25,12.41 Q3.25,12.721 3.03,12.94 Q2.811,13.16 2.5,13.16 Q2.189,13.16 1.97,12.94 Q1.75,12.721 1.75,12.41 Z"/>
  <path fill="#292D32" d="M23.309,13.97 L23.309,16.03 Q23.309,17.738 21.586,17.8 Q21.572,17.8 21.559,17.8 L19.599,17.8 Q16.905,17.8 16.691,15.242 Q16.568,13.943 17.508,13.02 Q18.311,12.2 19.479,12.2 L21.559,12.2 Q21.572,12.2 21.586,12.201 Q23.309,12.262 23.309,13.97 Z M21.809,13.97 Q21.809,13.715 21.543,13.7 L19.479,13.7 Q18.94,13.7 18.576,14.073 Q18.57,14.08 18.563,14.087 Q18.128,14.511 18.186,15.118 Q18.285,16.3 19.599,16.3 L21.543,16.3 Q21.809,16.286 21.809,16.03 Z"/>
  <path fill="#292D32" d="M7,11.25 L14,11.25 Q14.311,11.25 14.53,11.47 Q14.75,11.689 14.75,12 Q14.75,12.311 14.53,12.53 Q14.311,12.75 14,12.75 L7,12.75 Q6.689,12.75 6.47,12.53 Q6.25,12.311 6.25,12 Q6.25,11.689 6.47,11.47 Q6.689,11.25 7,11.25 Z"/>
  <path fill="#292D32" d="M9.75,19 Q9.75,20.327 9.063,21.446 Q8.685,22.091 8.122,22.566 Q6.8,23.75 5,23.75 Q2.307,23.75 0.935,21.443 Q0.25,20.332 0.25,19 Q0.25,16.708 2.034,15.292 Q3.342,14.25 5,14.25 Q6.968,14.25 8.359,15.641 Q9.75,17.032 9.75,19 Z M8.25,19 Q8.25,17.653 7.298,16.702 Q6.347,15.75 5,15.75 Q3.866,15.75 2.966,16.468 Q1.75,17.433 1.75,19 Q1.75,19.907 2.225,20.677 Q3.16,22.25 5,22.25 Q6.231,22.25 7.128,21.443 Q7.138,21.434 7.148,21.425 Q7.521,21.112 7.772,20.682 Q7.777,20.674 7.782,20.666 Q8.25,19.907 8.25,19 Z"/>
  <path fill="#292D32" d="M5.541,20.571 L3.421,18.461 Q3.201,18.242 3.2,17.932 Q3.199,17.621 3.418,17.401 Q3.638,17.181 3.948,17.18 Q4.259,17.179 4.479,17.398 L6.599,19.508 Q6.819,19.727 6.82,20.038 Q6.821,20.349 6.602,20.569 Q6.382,20.789 6.072,20.79 Q5.761,20.791 5.541,20.571 Z"/>
  <path fill="#292D32" d="M6.579,18.492 L4.459,20.601 Q4.239,20.821 3.928,20.82 Q3.617,20.819 3.398,20.599 Q3.179,20.379 3.18,20.068 Q3.181,19.757 3.401,19.538 L5.521,17.428 Q5.741,17.209 6.052,17.21 Q6.362,17.211 6.582,17.431 Q6.801,17.651 6.8,17.962 Q6.799,18.272 6.579,18.492 Z"/>
</svg>

