<svg xmlns="http://www.w3.org/2000/svg" width="24" height="24" viewBox="0 0 24 24">
  <defs/>
  <path fill="#292D32" d="M17.74,22.75 L7.63,22.75 C7.31,22.75 7.03,22.55 6.92,22.26 C6.81,21.96 6.9,21.63 7.14,21.43 C7.38,21.23 7.6,20.97 7.76,20.69 C8.08,20.18 8.24,19.6 8.24,19.01 C8.24,17.22 6.78,15.76 4.99,15.76 C4.25,15.76 3.55,16.01 2.96,16.48 C2.74,16.66 2.43,16.69 2.17,16.57 C1.91,16.45 1.75,16.18 1.75,15.89 L1.75,11.52 C1.75,9.03 3.77,7.01 6.26,7.01 L17.74,7.01 C20.23,7.01 22.25,9.03 22.25,11.52 L22.25,12.96 C22.25,13.37 21.91,13.71 21.5,13.71 L19.48,13.71 C19.13,13.71 18.81,13.84 18.58,14.08 L18.57,14.09 C18.29,14.36 18.16,14.73 18.19,15.11 C18.25,15.77 18.88,16.3 19.6,16.3 L21.5,16.3 C21.91,16.3 22.25,16.64 22.25,17.05 L22.25,18.24 C22.25,20.73 20.23,22.75 17.74,22.75 Z M9.18,21.25 L17.74,21.25 C19.4,21.25 20.75,19.9 20.75,18.24 L20.75,17.8 L19.6,17.8 C18.09,17.8 16.81,16.68 16.69,15.24 C16.61,14.42 16.91,13.61 17.51,13.02 C18.03,12.49 18.73,12.2 19.48,12.2 L20.75,12.2 L20.75,11.51 C20.75,9.85 19.4,8.5 17.74,8.5 L6.26,8.5 C4.6,8.5 3.25,9.85 3.25,11.51 L3.25,14.59 C3.81,14.37 4.4,14.25 5,14.25 C7.62,14.25 9.75,16.38 9.75,19 C9.75,19.79 9.55,20.57 9.18,21.25 Z"/>
  <path fill="#292D32" d="M2.5,13.16 C2.09,13.16 1.75,12.82 1.75,12.41 L1.75,7.84 C1.75,6.35 2.69,5 4.08,4.47 L12.02,1.47 C12.84,1.16 13.75,1.27 14.46,1.77 C15.18,2.27 15.6,3.08 15.6,3.95 L15.6,7.75 C15.6,8.16 15.26,8.5 14.85,8.5 C14.44,8.5 14.1,8.16 14.1,7.75 L14.1,3.95 C14.1,3.57 13.92,3.22 13.6,3 C13.28,2.78 12.9,2.73 12.54,2.87 L4.6,5.87 C3.79,6.18 3.24,6.97 3.24,7.84 L3.24,12.41 C3.25,12.83 2.91,13.16 2.5,13.16 Z"/>
  <path fill="#292D32" d="M19.601,17.8 C18.09,17.8 16.811,16.68 16.691,15.24 C16.61,14.41 16.91,13.6 17.511,13.01 C18.02,12.49 18.721,12.2 19.471,12.2 L21.55,12.2 C22.541,12.23 23.3,13.01 23.3,13.97 L23.3,16.03 C23.3,16.99 22.541,17.77 21.581,17.8 L19.601,17.8 Z M21.53,13.7 L19.48,13.7 C19.131,13.7 18.811,13.83 18.581,14.07 C18.291,14.35 18.151,14.73 18.191,15.11 C18.25,15.77 18.881,16.3 19.601,16.3 L21.561,16.3 C21.691,16.3 21.811,16.18 21.811,16.03 L21.811,13.97 C21.811,13.82 21.691,13.71 21.53,13.7 Z"/>
  <path fill="#292D32" d="M14,12.75 L7,12.75 C6.59,12.75 6.25,12.41 6.25,12 C6.25,11.59 6.59,11.25 7,11.25 L14,11.25 C14.41,11.25 14.75,11.59 14.75,12 C14.75,12.41 14.41,12.75 14,12.75 Z"/>
  <path fill="#292D32" d="M5,23.75 C3.34,23.75 1.78,22.87 0.94,21.44 C0.49,20.72 0.25,19.87 0.25,19 C0.25,17.54 0.9,16.19 2.03,15.29 C2.87,14.62 3.93,14.25 5,14.25 C7.62,14.25 9.75,16.38 9.75,19 C9.75,19.87 9.51,20.72 9.06,21.45 C8.82,21.87 8.49,22.25 8.11,22.57 C7.28,23.33 6.17,23.75 5,23.75 Z M5,15.75 C4.26,15.75 3.56,16 2.97,16.47 C2.2,17.08 1.75,18.01 1.75,19 C1.75,19.59 1.91,20.17 2.22,20.67 C2.81,21.67 3.85,22.25 5,22.25 C5.79,22.25 6.55,21.96 7.13,21.44 C7.39,21.22 7.61,20.96 7.77,20.68 C8.09,20.17 8.25,19.59 8.25,19 C8.25,17.21 6.79,15.75 5,15.75 Z"/>
  <path fill="#292D32" d="M4.429,20.74 C4.239,20.74 4.049,20.67 3.899,20.52 L2.909,19.53 C2.619,19.24 2.619,18.76 2.909,18.47 C3.199,18.18 3.679,18.18 3.969,18.47 L4.449,18.95 L6.049,17.47 C6.349,17.19 6.829,17.21 7.109,17.51 C7.389,17.81 7.369,18.29 7.069,18.57 L4.939,20.54 C4.789,20.67 4.609,20.74 4.429,20.74 Z"/>
</svg>

