<svg xmlns="http://www.w3.org/2000/svg" width="24" height="24" viewBox="0 0 24 24">
  <defs/>
  <path fill="#292D32" d="M5,15 C3.98,15 3.04,15.39 2.33,16.03 C2.17,16.17 2.02,16.32 1.89,16.49 C1.33,17.18 1,18.05 1,19 C1,21.21 2.8,23 5,23 C5.96,23 6.83,22.66 7.52,22.11 C8.08,21.64 8.52,21.03 8.76,20.33 C8.92,19.92 9,19.47 9,19 C9,16.8 7.21,15 5,15 Z M7.4,18.23 C7.4,18.51 7.18,18.72 6.91,18.72 C6.64,18.72 6.42,18.51 6.42,18.23 L6.42,18.13 C6.42,18.02 6.34,17.93 6.23,17.93 L4.23,17.93 C4.33,18.12 4.31,18.35 4.15,18.51 C4.06,18.6 3.94,18.65 3.8,18.65 C3.68,18.65 3.55,18.6 3.46,18.51 L2.74,17.79 C2.7,17.75 2.66,17.69 2.63,17.63 C2.59,17.51 2.59,17.38 2.63,17.26 C2.66,17.21 2.69,17.14 2.74,17.1 L3.46,16.39 C3.65,16.19 3.96,16.19 4.14,16.39 C4.3,16.54 4.32,16.78 4.22,16.96 L6.23,16.96 C6.87,16.96 7.39,17.48 7.39,18.13 L7.39,18.23 L7.4,18.23 Z M6.2,21.76 C6.07,21.76 5.94,21.72 5.85,21.62 C5.69,21.47 5.67,21.23 5.77,21.05 L3.76,21.05 C3.12,21.05 2.6,20.53 2.6,19.88 L2.6,19.78 C2.6,19.5 2.82,19.29 3.09,19.29 C3.36,19.29 3.58,19.5 3.58,19.78 L3.58,19.88 C3.58,19.99 3.66,20.08 3.77,20.08 L5.78,20.08 C5.68,19.89 5.7,19.66 5.86,19.5 C6.05,19.31 6.36,19.31 6.54,19.5 L7.26,20.22 C7.3,20.26 7.34,20.32 7.37,20.38 C7.41,20.5 7.41,20.63 7.37,20.75 C7.34,20.8 7.3,20.86 7.26,20.9 L6.54,21.61 C6.45,21.71 6.32,21.76 6.2,21.76 Z"/>
  <path fill="#292D32" d="M14.85,3.951 L14.85,7.751 L13.35,7.751 L13.35,3.951 C13.35,3.681 13.11,3.551 12.95,3.551 C12.9,3.551 12.85,3.561 12.8,3.581 L4.87,6.571 C4.34,6.771 4,7.271 4,7.841 L4,8.511 C3.09,9.191 2.5,10.281 2.5,11.511 L2.5,7.841 C2.5,6.651 3.23,5.591 4.34,5.171 L12.28,2.171 C12.5,2.091 12.73,2.051 12.95,2.051 C13.95,2.051 14.85,2.861 14.85,3.951 Z"/>
  <path fill="#292D32" d="M21.501,14.5 L21.501,15.5 C21.501,15.77 21.291,15.99 21.011,16 L19.551,16 C19.021,16 18.541,15.61 18.501,15.09 C18.471,14.78 18.591,14.49 18.791,14.29 C18.971,14.1 19.221,14 19.491,14 L21.001,14 C21.291,14.01 21.501,14.23 21.501,14.5 Z"/>
  <path fill="#292D32" d="M19.48,12.95 L20.5,12.95 C21.05,12.95 21.5,12.5 21.5,11.95 L21.5,11.51 C21.5,9.44 19.81,7.75 17.74,7.75 L6.26,7.75 C5.41,7.75 4.63,8.03 4,8.51 C3.09,9.19 2.5,10.28 2.5,11.51 L2.5,13.29 C2.5,13.67 2.9,13.91 3.26,13.79 C3.82,13.6 4.41,13.5 5,13.5 C8.03,13.5 10.5,15.97 10.5,19 C10.5,19.72 10.31,20.51 10.01,21.21 C9.85,21.57 10.1,22 10.49,22 L17.74,22 C19.81,22 21.5,20.31 21.5,18.24 L21.5,18.05 C21.5,17.5 21.05,17.05 20.5,17.05 L19.63,17.05 C18.67,17.05 17.75,16.46 17.5,15.53 C17.3,14.77 17.54,14.03 18.04,13.55 C18.41,13.17 18.92,12.95 19.48,12.95 Z M14,12.75 L9,12.75 C8.59,12.75 8.25,12.41 8.25,12 C8.25,11.59 8.59,11.25 9,11.25 L14,11.25 C14.41,11.25 14.75,11.59 14.75,12 C14.75,12.41 14.41,12.75 14,12.75 Z"/>
</svg>

