<svg xmlns="http://www.w3.org/2000/svg" width="25" height="24" viewBox="0 0 25 24">
  <defs/>
  <path fill="#292D32" d="M8.259,21.245 C8.906,20.598 9.277,19.772 9.374,18.919 C9.504,17.783 9.126,16.606 8.259,15.739 C7.742,15.223 7.109,14.879 6.442,14.72 C5.168,14.397 3.757,14.734 2.752,15.739 C2.057,16.434 1.679,17.322 1.631,18.238 C1.596,18.63 1.631,19.036 1.734,19.428 C1.892,20.096 2.236,20.729 2.752,21.245 C4.274,22.766 6.738,22.766 8.259,21.245 Z M6.965,17.776 C7.364,17.776 7.694,18.107 7.694,18.506 C7.687,18.912 7.364,19.235 6.958,19.242 L6.235,19.235 L6.242,19.931 C6.235,20.337 5.912,20.66 5.506,20.667 C5.099,20.66 4.776,20.337 4.769,19.931 L4.776,19.235 L4.053,19.242 C3.647,19.235 3.324,18.912 3.317,18.506 C3.324,18.306 3.406,18.127 3.537,17.997 C3.668,17.866 3.847,17.783 4.046,17.776 L4.776,17.776 L4.776,17.019 C4.776,16.813 4.859,16.634 4.989,16.503 C5.12,16.372 5.299,16.29 5.506,16.29 C5.905,16.29 6.235,16.62 6.235,17.019 L6.235,17.776 L6.965,17.776 Z"/>
  <path fill="#292D32" d="M15.095,3.845 L15.095,7.544 L13.635,7.544 L13.635,3.845 C13.635,3.583 13.402,3.456 13.246,3.456 C13.197,3.456 13.149,3.466 13.1,3.485 L5.381,6.396 C4.865,6.59 4.534,7.077 4.534,7.632 L4.534,8.284 C3.648,8.946 3.074,10.007 3.074,11.204 L3.074,7.632 C3.074,6.474 3.785,5.442 4.865,5.033 L12.594,2.113 C12.808,2.035 13.032,1.996 13.246,1.996 C14.219,1.996 15.095,2.785 15.095,3.845 Z"/>
  <path fill="#292D32" d="M21.569,14.116 L21.569,15.089 C21.569,15.352 21.365,15.566 21.092,15.576 L19.671,15.576 C19.155,15.576 18.688,15.196 18.649,14.69 C18.62,14.388 18.737,14.106 18.931,13.911 C19.107,13.726 19.35,13.629 19.613,13.629 L21.082,13.629 C21.365,13.639 21.569,13.853 21.569,14.116 Z"/>
  <path fill="#292D32" d="M19.602,12.604 L20.595,12.604 C21.13,12.604 21.568,12.166 21.568,11.631 L21.568,11.203 C21.568,9.188 19.923,7.543 17.908,7.543 L6.734,7.543 C5.907,7.543 5.147,7.816 4.534,8.283 C3.648,8.945 3.074,10.006 3.074,11.203 L3.074,12.935 C3.074,13.305 3.464,13.539 3.814,13.422 C4.359,13.237 4.933,13.14 5.508,13.14 C8.457,13.14 10.861,15.544 10.861,18.493 C10.861,19.194 10.676,19.963 10.384,20.644 C10.228,20.995 10.472,21.413 10.851,21.413 L17.908,21.413 C19.923,21.413 21.568,19.768 21.568,17.753 L21.568,17.569 C21.568,17.033 21.13,16.595 20.595,16.595 L19.748,16.595 C18.814,16.595 17.918,16.021 17.675,15.116 C17.48,14.376 17.714,13.656 18.2,13.188 C18.56,12.819 19.057,12.604 19.602,12.604 Z M14.268,12.41 L9.401,12.41 C9.002,12.41 8.671,12.079 8.671,11.68 C8.671,11.281 9.002,10.95 9.401,10.95 L14.268,10.95 C14.667,10.95 14.998,11.281 14.998,11.68 C14.998,12.079 14.667,12.41 14.268,12.41 Z"/>
</svg>

