<svg xmlns="http://www.w3.org/2000/svg" width="24" height="24" viewBox="0 0 24 24">
  <defs/>
  <path fill="#292D32" d="M14.85,3.951 L14.85,7.751 L13.35,7.751 L13.35,3.951 C13.35,3.681 13.11,3.551 12.95,3.551 C12.9,3.551 12.85,3.561 12.8,3.581 L4.87,6.571 C4.34,6.771 4,7.271 4,7.841 L4,8.511 C3.09,9.191 2.5,10.281 2.5,11.511 L2.5,7.841 C2.5,6.651 3.23,5.591 4.34,5.171 L12.28,2.171 C12.5,2.091 12.73,2.051 12.95,2.051 C13.95,2.051 14.85,2.861 14.85,3.951 Z"/>
  <path fill="#292D32" d="M21.501,14.5 L21.501,15.5 C21.501,15.77 21.291,15.99 21.011,16 L19.551,16 C19.021,16 18.541,15.61 18.501,15.09 C18.471,14.78 18.591,14.49 18.791,14.29 C18.971,14.1 19.221,14 19.491,14 L21.001,14 C21.291,14.01 21.501,14.23 21.501,14.5 Z"/>
  <path fill="#292D32" d="M5,15 C4.06,15 3.19,15.33 2.5,15.88 C1.58,16.61 1,17.74 1,19 C1,19.75 1.21,20.46 1.58,21.06 C2.27,22.22 3.54,23 5,23 C6.01,23 6.93,22.63 7.63,22 C7.94,21.74 8.21,21.42 8.42,21.06 C8.79,20.46 9,19.75 9,19 C9,16.79 7.21,15 5,15 Z M3.42,18.46 C3.13,18.17 3.13,17.69 3.42,17.4 C3.72,17.11 4.19,17.11 4.49,17.4 L5.01,17.93 L5.51,17.42 C5.81,17.13 6.28,17.13 6.58,17.42 C6.87,17.72 6.87,18.19 6.58,18.49 L6.07,18.99 L6.6,19.51 C6.89,19.81 6.89,20.28 6.6,20.58 C6.45,20.72 6.26,20.79 6.07,20.79 C5.88,20.79 5.69,20.72 5.54,20.58 L5.01,20.05 L4.46,20.6 C4.31,20.75 4.12,20.82 3.93,20.82 C3.74,20.82 3.55,20.75 3.4,20.6 C3.11,20.31 3.11,19.83 3.4,19.54 L3.95,18.99 L3.42,18.46 Z"/>
  <path fill="#292D32" d="M19.48,12.95 L20.5,12.95 C21.05,12.95 21.5,12.5 21.5,11.95 L21.5,11.51 C21.5,9.44 19.81,7.75 17.74,7.75 L6.26,7.75 C5.41,7.75 4.63,8.03 4,8.51 C3.09,9.19 2.5,10.28 2.5,11.51 L2.5,13.29 C2.5,13.67 2.9,13.91 3.26,13.79 C3.82,13.6 4.41,13.5 5,13.5 C8.03,13.5 10.5,15.97 10.5,19 C10.5,19.72 10.31,20.51 10.01,21.21 C9.85,21.57 10.1,22 10.49,22 L17.74,22 C19.81,22 21.5,20.31 21.5,18.24 L21.5,18.05 C21.5,17.5 21.05,17.05 20.5,17.05 L19.63,17.05 C18.67,17.05 17.75,16.46 17.5,15.53 C17.3,14.77 17.54,14.03 18.04,13.55 C18.41,13.17 18.92,12.95 19.48,12.95 Z M14,12.75 L9,12.75 C8.59,12.75 8.25,12.41 8.25,12 C8.25,11.59 8.59,11.25 9,11.25 L14,11.25 C14.41,11.25 14.75,11.59 14.75,12 C14.75,12.41 14.41,12.75 14,12.75 Z"/>
</svg>

