<svg xmlns="http://www.w3.org/2000/svg" width="25" height="24" viewBox="0 0 25 24">
  <defs/>
  <path fill="#292D32" opacity="0.4" d="M19.942,12.605 L21.908,12.605 L21.908,11.203 C21.908,9.188 20.263,7.543 18.248,7.543 L7.074,7.543 C5.059,7.543 3.414,9.188 3.414,11.203 L3.414,15.457 C4.086,14.921 4.932,14.6 5.847,14.6 C7.999,14.6 9.741,16.343 9.741,18.494 C9.741,19.224 9.536,19.915 9.176,20.499 C8.972,20.849 8.709,21.161 8.407,21.414 L18.248,21.414 C20.263,21.414 21.908,19.769 21.908,17.754 L21.908,16.596 L20.058,16.596 C19.007,16.596 18.044,15.827 17.956,14.775 C17.898,14.162 18.131,13.588 18.54,13.189 C18.9,12.819 19.396,12.605 19.942,12.605 Z"/>
  <path fill="#292D32" d="M15.435,3.845 L15.435,7.543 L7.074,7.543 C5.059,7.543 3.414,9.188 3.414,11.203 L3.414,7.631 C3.414,6.473 4.125,5.441 5.205,5.032 L12.933,2.112 C14.14,1.664 15.435,2.55 15.435,3.845 Z"/>
  <path fill="#292D32" d="M22.942,13.598 L22.942,15.603 C22.942,16.138 22.513,16.576 21.968,16.596 L20.061,16.596 C19.009,16.596 18.046,15.827 17.958,14.775 C17.9,14.162 18.133,13.588 18.542,13.189 C18.902,12.819 19.399,12.605 19.944,12.605 L21.968,12.605 C22.513,12.624 22.942,13.062 22.942,13.598 Z"/>
  <path fill="#292D32" d="M14.608,12.41 L7.794,12.41 C7.395,12.41 7.064,12.079 7.064,11.68 C7.064,11.281 7.395,10.95 7.794,10.95 L14.608,10.95 C15.007,10.95 15.338,11.281 15.338,11.68 C15.338,12.079 15.007,12.41 14.608,12.41 Z"/>
  <path fill="#292D32" d="M8.601,15.741 C7.954,15.094 7.128,14.722 6.274,14.626 C5.139,14.495 3.962,14.874 3.095,15.741 C2.578,16.257 2.234,16.89 2.076,17.558 C1.752,18.831 2.09,20.242 3.095,21.247 C3.79,21.942 4.678,22.321 5.593,22.369 C5.985,22.403 6.391,22.369 6.784,22.266 C7.451,22.107 8.085,21.763 8.601,21.247 C10.122,19.726 10.122,17.262 8.601,15.741 Z M5.132,17.035 C5.132,16.636 5.462,16.305 5.861,16.305 C6.267,16.312 6.591,16.636 6.598,17.042 L6.591,17.764 L7.286,17.757 C7.692,17.764 8.016,18.088 8.023,18.494 C8.016,18.9 7.692,19.224 7.286,19.23 L6.591,19.223 L6.598,19.946 C6.591,20.352 6.267,20.676 5.861,20.683 C5.662,20.676 5.483,20.593 5.352,20.462 C5.221,20.331 5.139,20.153 5.132,19.953 L5.132,19.223 L4.375,19.223 C4.168,19.223 3.989,19.141 3.859,19.01 C3.728,18.879 3.645,18.7 3.645,18.494 C3.645,18.095 3.976,17.764 4.375,17.764 L5.132,17.764 L5.132,17.035 Z"/>
</svg>

