<svg xmlns="http://www.w3.org/2000/svg" width="24" height="24" viewBox="0 0 24 24">
  <defs/>
  <path fill="#292D32" opacity="0.4" d="M19.48,12.95 L21.5,12.95 L21.5,11.51 C21.5,9.44 19.81,7.75 17.74,7.75 L6.26,7.75 C4.19,7.75 2.5,9.44 2.5,11.51 L2.5,15.16 C3.29,14.44 4.35,14 5.5,14 C7.99,14 10,16.02 10,18.5 C10,19.03 9.91,19.53 9.74,20 C9.47,20.79 8.97,21.47 8.34,22 L17.74,22 C19.81,22 21.5,20.31 21.5,18.24 L21.5,17.05 L19.6,17.05 C18.52,17.05 17.53,16.26 17.44,15.18 C17.38,14.55 17.62,13.96 18.04,13.55 C18.41,13.17 18.92,12.95 19.48,12.95 Z"/>
  <path fill="#292D32" d="M5.5,14 C4.35,14 3.29,14.44 2.5,15.16 C2.32,15.32 2.15,15.49 2,15.68 C1.37,16.45 1,17.43 1,18.5 C1,20.99 3.02,23 5.5,23 C6.58,23 7.56,22.62 8.34,22 C8.97,21.47 9.47,20.79 9.74,20 C9.91,19.53 10,19.03 10,18.5 C10,16.02 7.99,14 5.5,14 Z M8.2,17.63 C8.2,17.94 7.95,18.18 7.65,18.18 C7.35,18.18 7.1,17.94 7.1,17.63 L7.1,17.52 C7.1,17.4 7.01,17.3 6.89,17.3 L4.63,17.3 C4.74,17.51 4.72,17.77 4.54,17.95 C4.44,18.05 4.3,18.11 4.15,18.11 C4.01,18.11 3.87,18.05 3.77,17.95 L2.96,17.14 C2.91,17.09 2.87,17.03 2.84,16.96 C2.79,16.83 2.79,16.68 2.84,16.54 C2.87,16.48 2.91,16.41 2.96,16.36 L3.77,15.56 C3.98,15.34 4.33,15.34 4.54,15.56 C4.72,15.73 4.74,16 4.63,16.2 L6.89,16.2 C7.61,16.2 8.2,16.79 8.2,17.52 L8.2,17.63 Z M6.85,21.6 C6.7,21.6 6.56,21.55 6.46,21.44 C6.28,21.27 6.26,21 6.37,20.8 L4.11,20.8 C3.39,20.8 2.8,20.21 2.8,19.48 L2.8,19.37 C2.8,19.06 3.05,18.82 3.35,18.82 C3.65,18.82 3.9,19.06 3.9,19.37 L3.9,19.48 C3.9,19.6 3.99,19.7 4.11,19.7 L6.37,19.7 C6.26,19.49 6.28,19.23 6.46,19.05 C6.67,18.84 7.02,18.84 7.23,19.05 L8.04,19.86 C8.09,19.91 8.13,19.97 8.16,20.04 C8.21,20.17 8.21,20.32 8.16,20.46 C8.13,20.52 8.09,20.59 8.04,20.64 L7.23,21.44 C7.13,21.55 6.99,21.6 6.85,21.6 Z"/>
  <path fill="#292D32" d="M14.85,3.95 L14.85,7.75 L6.26,7.75 C4.19,7.75 2.5,9.44 2.5,11.51 L2.5,7.84 C2.5,6.65 3.23,5.59 4.34,5.17 L12.28,2.17 C13.52,1.71 14.85,2.62 14.85,3.95 Z"/>
  <path fill="#292D32" d="M22.561,13.97 L22.561,16.03 C22.561,16.58 22.121,17.03 21.561,17.05 L19.601,17.05 C18.521,17.05 17.531,16.26 17.441,15.18 C17.381,14.55 17.621,13.96 18.041,13.55 C18.411,13.17 18.921,12.95 19.481,12.95 L21.561,12.95 C22.121,12.97 22.561,13.42 22.561,13.97 Z"/>
  <path fill="#292D32" d="M14,12.75 L7,12.75 C6.59,12.75 6.25,12.41 6.25,12 C6.25,11.59 6.59,11.25 7,11.25 L14,11.25 C14.41,11.25 14.75,11.59 14.75,12 C14.75,12.41 14.41,12.75 14,12.75 Z"/>
</svg>

