<svg xmlns="http://www.w3.org/2000/svg" width="24" height="24" viewBox="0 0 24 24">
  <defs/>
  <path fill="#292D32" opacity="0.4" d="M18.04,13.55 C17.62,13.96 17.38,14.55 17.44,15.18 C17.53,16.26 18.52,17.05 19.6,17.05 L21.5,17.05 L21.5,18.24 C21.5,20.31 19.81,22 17.74,22 L6.26,22 C4.19,22 2.5,20.31 2.5,18.24 L2.5,11.51 C2.5,9.44 4.19,7.75 6.26,7.75 L17.74,7.75 C19.81,7.75 21.5,9.44 21.5,11.51 L21.5,12.95 L19.48,12.95 C18.92,12.95 18.41,13.17 18.04,13.55 Z"/>
  <path fill="#292D32" d="M14.85,3.95 L14.85,7.75 L6.26,7.75 C4.19,7.75 2.5,9.44 2.5,11.51 L2.5,7.84 C2.5,6.65 3.23,5.59 4.34,5.17 L12.28,2.17 C13.52,1.71 14.85,2.62 14.85,3.95 Z"/>
  <path fill="#292D32" d="M22.561,13.97 L22.561,16.03 C22.561,16.58 22.121,17.03 21.561,17.05 L19.601,17.05 C18.521,17.05 17.531,16.26 17.441,15.18 C17.381,14.55 17.621,13.96 18.041,13.55 C18.411,13.17 18.921,12.95 19.481,12.95 L21.561,12.95 C22.121,12.97 22.561,13.42 22.561,13.97 Z"/>
  <path fill="#292D32" d="M14,12.75 L7,12.75 C6.59,12.75 6.25,12.41 6.25,12 C6.25,11.59 6.59,11.25 7,11.25 L14,11.25 C14.41,11.25 14.75,11.59 14.75,12 C14.75,12.41 14.41,12.75 14,12.75 Z"/>
</svg>

