<svg xmlns="http://www.w3.org/2000/svg" width="24" height="24" viewBox="0 0 24 24">
  <defs/>
  <path fill="#292D32" d="M5,15 C4.06,15 3.19,15.33 2.5,15.88 C1.58,16.61 1,17.74 1,19 C1,21.21 2.79,23 5,23 C6.01,23 6.93,22.62 7.64,22 C8.47,21.27 9,20.2 9,19 C9,16.79 7.21,15 5,15 Z M6,19.25 C6,19.51 5.86,19.76 5.64,19.89 L4.39,20.64 C4.27,20.71 4.14,20.75 4,20.75 C3.75,20.75 3.5,20.62 3.36,20.39 C3.15,20.03 3.26,19.57 3.62,19.36 L4.51,18.83 L4.51,17.75 C4.51,17.34 4.85,17 5.26,17 C5.67,17 6.01,17.34 6.01,17.75 L6.01,19.25 L6,19.25 Z"/>
  <path fill="#292D32" opacity="0.4" d="M19.48,12.95 L21.5,12.95 L21.5,11.51 C21.5,9.44 19.81,7.75 17.74,7.75 L6.26,7.75 C4.19,7.75 2.5,9.44 2.5,11.51 L2.5,15.88 C3.19,15.33 4.06,15 5,15 C7.21,15 9,16.79 9,19 C9,19.75 8.79,20.46 8.42,21.06 C8.21,21.42 7.94,21.74 7.63,22 L17.74,22 C19.81,22 21.5,20.31 21.5,18.24 L21.5,17.05 L19.6,17.05 C18.52,17.05 17.53,16.26 17.44,15.18 C17.38,14.55 17.62,13.96 18.04,13.55 C18.41,13.17 18.92,12.95 19.48,12.95 Z"/>
  <path fill="#292D32" d="M14.85,3.95 L14.85,7.75 L6.26,7.75 C4.19,7.75 2.5,9.44 2.5,11.51 L2.5,7.84 C2.5,6.65 3.23,5.59 4.34,5.17 L12.28,2.17 C13.52,1.71 14.85,2.62 14.85,3.95 Z"/>
  <path fill="#292D32" d="M22.561,13.97 L22.561,16.03 C22.561,16.58 22.121,17.03 21.561,17.05 L19.601,17.05 C18.521,17.05 17.531,16.26 17.441,15.18 C17.381,14.55 17.621,13.96 18.041,13.55 C18.411,13.17 18.921,12.95 19.481,12.95 L21.561,12.95 C22.121,12.97 22.561,13.42 22.561,13.97 Z"/>
  <path fill="#292D32" d="M14,12.75 L7,12.75 C6.59,12.75 6.25,12.41 6.25,12 C6.25,11.59 6.59,11.25 7,11.25 L14,11.25 C14.41,11.25 14.75,11.59 14.75,12 C14.75,12.41 14.41,12.75 14,12.75 Z"/>
</svg>

