<svg xmlns="http://www.w3.org/2000/svg" width="24" height="24" viewBox="0 0 24 24">
  <defs/>
  <path fill="#292D32" d="M17.739,22.75 L7.64,22.75 C7.33,22.75 7.05,22.56 6.94,22.26 C6.83,21.96 6.91,21.64 7.15,21.43 C7.85,20.81 8.26,19.92 8.26,18.99 C8.26,17.2 6.8,15.74 5.01,15.74 C4.27,15.74 3.57,15.99 2.98,16.46 C2.75,16.64 2.45,16.67 2.19,16.55 C1.93,16.43 1.77,16.16 1.77,15.87 L1.77,11.5 C1.77,9.01 3.79,6.99 6.28,6.99 L17.759,6.99 C20.25,6.99 22.27,9.01 22.27,11.5 L22.27,12.94 C22.27,13.35 21.93,13.69 21.52,13.69 L19.5,13.69 C19.149,13.69 18.829,13.82 18.599,14.06 L18.59,14.07 C18.309,14.34 18.18,14.71 18.209,15.09 C18.27,15.75 18.899,16.28 19.619,16.28 L21.52,16.28 C21.93,16.28 22.27,16.62 22.27,17.03 L22.27,18.22 C22.25,20.73 20.23,22.75 17.739,22.75 Z M9.18,21.25 L17.739,21.25 C19.399,21.25 20.75,19.9 20.75,18.24 L20.75,17.8 L19.599,17.8 C18.09,17.8 16.809,16.68 16.689,15.24 C16.61,14.42 16.91,13.61 17.509,13.02 C18.029,12.49 18.73,12.2 19.48,12.2 L20.75,12.2 L20.75,11.51 C20.75,9.85 19.399,8.5 17.739,8.5 L6.26,8.5 C4.6,8.5 3.25,9.85 3.25,11.51 L3.25,14.59 C3.81,14.37 4.4,14.25 5,14.25 C7.62,14.25 9.75,16.38 9.75,19 C9.75,19.79 9.55,20.57 9.18,21.25 Z"/>
  <path fill="#292D32" d="M2.5,12.26 C2.09,12.26 1.75,11.92 1.75,11.51 L1.75,7.84 C1.75,6.35 2.68,4.99 4.07,4.47 L12.01,1.47 C12.83,1.17 13.75,1.28 14.46,1.78 C15.17,2.28 15.6,3.09 15.6,3.95 L15.6,7.75 C15.6,8.16 15.26,8.5 14.85,8.5 C14.44,8.5 14.1,8.16 14.1,7.75 L14.1,3.95 C14.1,3.57 13.92,3.23 13.61,3.01 C13.29,2.79 12.9,2.74 12.54,2.87 L4.6,5.87 C3.78,6.18 3.25,6.95 3.25,7.84 L3.25,11.51 C3.25,11.92 2.91,12.26 2.5,12.26 Z"/>
  <path fill="#292D32" d="M19.601,17.8 C18.09,17.8 16.811,16.68 16.691,15.24 C16.61,14.41 16.91,13.6 17.511,13.01 C18.02,12.49 18.721,12.2 19.471,12.2 L21.55,12.2 C22.541,12.23 23.3,13.01 23.3,13.97 L23.3,16.03 C23.3,16.99 22.541,17.77 21.581,17.8 L19.601,17.8 Z M21.53,13.7 L19.48,13.7 C19.131,13.7 18.811,13.83 18.581,14.07 C18.291,14.35 18.151,14.73 18.191,15.11 C18.25,15.77 18.881,16.3 19.601,16.3 L21.561,16.3 C21.691,16.3 21.811,16.18 21.811,16.03 L21.811,13.97 C21.811,13.82 21.691,13.71 21.53,13.7 Z"/>
  <path fill="#292D32" d="M14,12.75 L7,12.75 C6.59,12.75 6.25,12.41 6.25,12 C6.25,11.59 6.59,11.25 7,11.25 L14,11.25 C14.41,11.25 14.75,11.59 14.75,12 C14.75,12.41 14.41,12.75 14,12.75 Z"/>
  <path fill="#292D32" d="M5,23.75 C2.38,23.75 0.25,21.62 0.25,19 C0.25,17.54 0.9,16.19 2.03,15.29 C2.87,14.62 3.93,14.25 5,14.25 C7.62,14.25 9.75,16.38 9.75,19 C9.75,20.36 9.16,21.66 8.14,22.56 C7.26,23.33 6.15,23.75 5,23.75 Z M5,15.75 C4.26,15.75 3.56,16 2.97,16.47 C2.2,17.08 1.75,18.01 1.75,19 C1.75,20.79 3.21,22.25 5,22.25 C5.78,22.25 6.54,21.96 7.15,21.44 C7.85,20.82 8.25,19.94 8.25,19 C8.25,17.21 6.79,15.75 5,15.75 Z"/>
  <path fill="#292D32" d="M4,20.75 C3.75,20.75 3.5,20.62 3.36,20.39 C3.15,20.03 3.26,19.57 3.62,19.36 L4.51,18.83 L4.51,17.75 C4.51,17.34 4.85,17 5.26,17 C5.67,17 6.01,17.34 6.01,17.75 L6.01,19.25 C6.01,19.51 5.87,19.76 5.65,19.89 L4.4,20.64 C4.27,20.72 4.13,20.75 4,20.75 Z"/>
</svg>

