<svg xmlns="http://www.w3.org/2000/svg" width="24" height="24" viewBox="0 0 24 24">
  <defs/>
  <path fill="#292D32" d="M17.74,22.75 L12.26,22.75 C11.85,22.75 11.51,22.41 11.51,22 C11.51,21.59 11.85,21.25 12.26,21.25 L17.74,21.25 C19.4,21.25 20.75,19.9 20.75,18.24 L20.75,17.8 L19.6,17.8 C18.09,17.8 16.81,16.68 16.69,15.24 C16.61,14.41 16.91,13.6 17.51,13.01 C18.02,12.49 18.72,12.2 19.47,12.2 L20.74,12.2 L20.74,11.51 C20.74,9.85 19.39,8.5 17.73,8.5 L6.25,8.5 C4.59,8.5 3.24,9.85 3.24,11.51 L3.24,13.24 C3.24,13.65 2.9,13.99 2.49,13.99 C2.08,13.99 1.74,13.65 1.74,13.24 L1.74,11.51 C1.74,9.02 3.76,7 6.25,7 L17.73,7 C20.22,7 22.24,9.02 22.24,11.51 L22.24,12.95 C22.24,13.36 21.9,13.7 21.49,13.7 L19.47,13.7 C19.12,13.7 18.8,13.83 18.57,14.07 C18.28,14.35 18.14,14.73 18.18,15.11 C18.24,15.77 18.87,16.3 19.59,16.3 L21.49,16.3 C21.9,16.3 22.24,16.64 22.24,17.05 L22.24,18.24 C22.25,20.73 20.23,22.75 17.74,22.75 Z"/>
  <path fill="#292D32" d="M2.5,13.16 C2.09,13.16 1.75,12.82 1.75,12.41 L1.75,7.84 C1.75,6.35 2.69,5 4.08,4.47 L12.02,1.47 C12.84,1.16 13.75,1.27 14.46,1.77 C15.18,2.27 15.6,3.08 15.6,3.95 L15.6,7.75 C15.6,8.16 15.26,8.5 14.85,8.5 C14.44,8.5 14.1,8.16 14.1,7.75 L14.1,3.95 C14.1,3.57 13.92,3.22 13.6,3 C13.28,2.78 12.9,2.73 12.54,2.87 L4.6,5.87 C3.79,6.18 3.24,6.97 3.24,7.84 L3.24,12.41 C3.25,12.83 2.91,13.16 2.5,13.16 Z"/>
  <path fill="#292D32" d="M19.601,17.8 C18.09,17.8 16.811,16.68 16.691,15.24 C16.61,14.41 16.91,13.6 17.511,13.01 C18.02,12.49 18.721,12.2 19.471,12.2 L21.55,12.2 C22.541,12.23 23.3,13.01 23.3,13.97 L23.3,16.03 C23.3,16.99 22.541,17.77 21.581,17.8 L19.601,17.8 Z M21.53,13.7 L19.48,13.7 C19.131,13.7 18.811,13.83 18.581,14.07 C18.291,14.35 18.151,14.73 18.191,15.11 C18.25,15.77 18.881,16.3 19.601,16.3 L21.561,16.3 C21.691,16.3 21.811,16.18 21.811,16.03 L21.811,13.97 C21.811,13.82 21.691,13.71 21.53,13.7 Z"/>
  <path fill="#292D32" d="M14,12.75 L7,12.75 C6.59,12.75 6.25,12.41 6.25,12 C6.25,11.59 6.59,11.25 7,11.25 L14,11.25 C14.41,11.25 14.75,11.59 14.75,12 C14.75,12.41 14.41,12.75 14,12.75 Z"/>
  <path fill="#292D32" d="M9.5,19.69 C9.09,19.69 8.75,19.35 8.75,18.94 L8.75,17.66 C8.75,17.44 8.57,17.25 8.34,17.25 L3,17.25 C2.59,17.25 2.25,16.91 2.25,16.5 C2.25,16.09 2.59,15.75 3,15.75 L8.34,15.75 C9.39,15.75 10.25,16.61 10.25,17.66 L10.25,18.94 C10.25,19.35 9.91,19.69 9.5,19.69 Z"/>
  <path fill="#292D32" d="M4.219,18.47 C4.029,18.47 3.839,18.4 3.689,18.25 L2.469,17.03 C2.179,16.74 2.179,16.26 2.469,15.97 L3.689,14.75 C3.979,14.46 4.459,14.46 4.749,14.75 C5.039,15.04 5.039,15.52 4.749,15.81 L4.059,16.5 L4.749,17.19 C5.039,17.48 5.039,17.96 4.749,18.25 C4.599,18.4 4.409,18.47 4.219,18.47 Z"/>
  <path fill="#292D32" d="M9.5,22.53 L4.16,22.53 C3.11,22.53 2.25,21.67 2.25,20.62 L2.25,19.34 C2.25,18.93 2.59,18.59 3,18.59 C3.41,18.59 3.75,18.93 3.75,19.34 L3.75,20.62 C3.75,20.84 3.93,21.03 4.16,21.03 L9.5,21.03 C9.91,21.03 10.25,21.37 10.25,21.78 C10.25,22.19 9.91,22.53 9.5,22.53 Z"/>
  <path fill="#292D32" d="M8.281,23.75 C8.091,23.75 7.901,23.68 7.751,23.53 C7.461,23.24 7.461,22.76 7.751,22.47 L8.441,21.78 L7.751,21.09 C7.461,20.8 7.461,20.32 7.751,20.03 C8.041,19.74 8.521,19.74 8.811,20.03 L10.031,21.25 C10.321,21.54 10.321,22.02 10.031,22.31 L8.811,23.53 C8.671,23.68 8.471,23.75 8.281,23.75 Z"/>
</svg>

