<svg xmlns="http://www.w3.org/2000/svg" width="24" height="24" viewBox="0 0 24 24">
  <defs/>
  <path fill="#292D32" d="M18.564,14.087 Q18.13,14.511 18.187,15.109 Q18.286,16.3 19.6,16.3 L21.5,16.3 Q21.811,16.3 22.03,16.52 Q22.25,16.739 22.25,17.05 L22.25,18.24 Q22.25,20.103 20.927,21.427 Q19.603,22.75 17.74,22.75 L6.26,22.75 Q4.397,22.75 3.073,21.427 Q1.75,20.103 1.75,18.24 L1.75,11.51 Q1.75,9.647 3.073,8.323 Q4.397,7 6.26,7 L17.74,7 Q19.603,7 20.927,8.323 Q22.25,9.647 22.25,11.51 L22.25,12.95 Q22.25,13.261 22.03,13.48 Q21.811,13.7 21.5,13.7 L19.48,13.7 Q18.941,13.7 18.577,14.073 Q18.571,14.08 18.564,14.087 Z M17.509,13.02 Q18.313,12.2 19.48,12.2 L20.75,12.2 L20.75,11.51 Q20.75,10.268 19.866,9.384 Q18.982,8.5 17.74,8.5 L6.26,8.5 Q3.25,8.5 3.25,11.51 L3.25,18.24 Q3.25,21.25 6.26,21.25 L17.74,21.25 Q18.982,21.25 19.866,20.366 Q20.75,19.482 20.75,18.24 L20.75,17.8 L19.6,17.8 Q16.906,17.8 16.693,15.251 Q16.569,13.943 17.509,13.02 Z"/>
  <path fill="#292D32" opacity="0.4" d="M1.75,12.41 L1.75,7.84 Q1.75,5.348 4.075,4.468 L12.015,1.468 Q13.313,0.976 14.457,1.768 Q15.6,2.56 15.6,3.95 L15.6,7.75 Q15.6,8.06 15.38,8.28 Q15.161,8.5 14.85,8.5 Q14.539,8.5 14.32,8.28 Q14.1,8.06 14.1,7.75 L14.1,3.95 Q14.1,3.345 13.603,3.001 Q13.107,2.658 12.545,2.871 L4.605,5.871 Q3.25,6.384 3.25,7.84 L3.25,12.41 Q3.25,12.72 3.03,12.94 Q2.811,13.16 2.5,13.16 Q2.189,13.16 1.97,12.94 Q1.75,12.72 1.75,12.41 Z"/>
  <path fill="#292D32" d="M23.311,13.97 L23.311,16.03 Q23.311,17.738 21.588,17.8 Q21.574,17.8 21.561,17.8 L19.601,17.8 Q16.907,17.8 16.693,15.242 Q16.57,13.943 17.51,13.02 Q18.313,12.2 19.481,12.2 L21.561,12.2 Q21.574,12.2 21.588,12.201 Q23.311,12.262 23.311,13.97 Z M21.811,13.97 Q21.811,13.715 21.545,13.7 L19.481,13.7 Q18.942,13.7 18.578,14.073 Q18.572,14.08 18.565,14.087 Q18.13,14.511 18.188,15.118 Q18.287,16.3 19.601,16.3 L21.545,16.3 Q21.811,16.286 21.811,16.03 Z"/>
  <path fill="#292D32" opacity="0.4" d="M7,11.25 L14,11.25 Q14.311,11.25 14.53,11.47 Q14.75,11.689 14.75,12 Q14.75,12.311 14.53,12.53 Q14.311,12.75 14,12.75 L7,12.75 Q6.689,12.75 6.47,12.53 Q6.25,12.311 6.25,12 Q6.25,11.689 6.47,11.47 Q6.689,11.25 7,11.25 Z"/>
</svg>

