<svg xmlns="http://www.w3.org/2000/svg" width="24" height="24" viewBox="0 0 24 24">
  <defs/>
  <path fill="#292D32" d="M23.311,13.97 L23.311,16.03 Q23.311,17.738 21.588,17.799 Q21.574,17.8 21.561,17.8 L19.601,17.8 Q16.907,17.8 16.693,15.242 Q16.57,13.943 17.51,13.02 Q18.313,12.2 19.481,12.2 L21.561,12.2 Q21.574,12.2 21.588,12.2 Q23.311,12.262 23.311,13.97 Z M21.811,13.97 Q21.811,13.714 21.545,13.7 L19.481,13.7 Q18.941,13.7 18.578,14.073 Q18.572,14.08 18.565,14.087 Q18.13,14.511 18.188,15.118 Q18.287,16.3 19.601,16.3 L21.545,16.3 Q21.811,16.285 21.811,16.03 Z"/>
  <path fill="#292D32" d="M7,11.25 L14,11.25 Q14.311,11.25 14.53,11.47 Q14.75,11.689 14.75,12 Q14.75,12.311 14.53,12.53 Q14.311,12.75 14,12.75 L7,12.75 Q6.689,12.75 6.47,12.53 Q6.25,12.311 6.25,12 Q6.25,11.689 6.47,11.47 Q6.689,11.25 7,11.25 Z"/>
  <path fill="#292D32" d="M9.75,19 Q9.75,21.143 8.135,22.563 Q6.776,23.75 5,23.75 Q3.032,23.75 1.641,22.359 Q0.25,20.968 0.25,19 Q0.25,16.708 2.034,15.292 Q3.342,14.25 5,14.25 Q6.968,14.25 8.359,15.641 Q9.75,17.032 9.75,19 Z M8.25,19 Q8.25,17.653 7.298,16.702 Q6.347,15.75 5,15.75 Q3.866,15.75 2.966,16.468 Q1.75,17.433 1.75,19 Q1.75,22.25 5,22.25 Q6.213,22.25 7.145,21.437 Q8.25,20.465 8.25,19 Z"/>
  <path fill="#292D32" d="M6,17.75 L6,19.25 Q6,19.675 5.636,19.893 L4.386,20.643 Q4.119,20.803 3.818,20.728 Q3.517,20.652 3.357,20.386 Q3.197,20.119 3.272,19.818 Q3.348,19.517 3.614,19.357 L4.5,18.825 L4.5,17.75 Q4.5,17.439 4.72,17.22 Q4.939,17 5.25,17 Q5.561,17 5.78,17.22 Q6,17.439 6,17.75 Z"/>
  <path fill="#292D32" d="M14,22.75 L7.63,22.75 Q7.319,22.75 7.1,22.53 Q6.88,22.311 6.88,22 Q6.88,21.65 7.148,21.425 Q7.521,21.112 7.772,20.682 Q7.777,20.674 7.782,20.666 Q8.25,19.907 8.25,19 Q8.25,15.75 5,15.75 Q3.866,15.75 2.967,16.466 Q2.725,16.66 2.416,16.625 Q2.107,16.59 1.914,16.347 Q1.75,16.142 1.75,15.88 L1.75,11.51 Q1.75,9.647 3.073,8.323 Q4.397,7 6.26,7 L17.74,7 Q19.603,7 20.927,8.323 Q22.25,9.647 22.25,11.51 L22.25,12.95 Q22.25,13.261 22.03,13.48 Q21.811,13.7 21.5,13.7 L19.48,13.7 Q18.941,13.7 18.577,14.073 Q18.571,14.08 18.564,14.087 Q18.13,14.511 18.187,15.109 Q18.286,16.3 19.6,16.3 L21.5,16.3 Q21.811,16.3 22.03,16.52 Q22.25,16.739 22.25,17.05 L22.25,18.24 Q22.25,20.103 20.927,21.427 Q19.603,22.75 17.74,22.75 Q17.429,22.75 17.21,22.53 Q16.99,22.311 16.99,22 Q16.99,21.689 17.21,21.47 Q17.429,21.25 17.74,21.25 Q18.982,21.25 19.866,20.366 Q20.75,19.482 20.75,18.24 L20.75,17.8 L19.6,17.8 Q16.906,17.8 16.693,15.251 Q16.569,13.943 17.509,13.02 Q18.313,12.2 19.48,12.2 L20.75,12.2 L20.75,11.51 Q20.75,10.268 19.866,9.384 Q18.982,8.5 17.74,8.5 L6.26,8.5 Q3.25,8.5 3.25,11.51 L3.25,14.578 Q4.07,14.25 5,14.25 Q6.968,14.25 8.359,15.641 Q9.75,17.032 9.75,19 Q9.75,20.212 9.177,21.25 L14,21.25 Q14.311,21.25 14.53,21.47 Q14.75,21.689 14.75,22 Q14.75,22.311 14.53,22.53 Q14.311,22.75 14,22.75 Z"/>
  <path fill="#292D32" d="M12.013,1.469 Q13.312,0.976 14.456,1.768 Q15.599,2.56 15.599,3.95 L15.599,7.75 Q15.599,8.061 15.38,8.28 Q15.16,8.5 14.849,8.5 Q14.539,8.5 14.319,8.28 Q14.099,8.061 14.099,7.75 L14.099,3.95 Q14.099,3.346 13.602,3.002 Q13.107,2.659 12.545,2.871 Q12.255,2.981 11.971,2.854 Q11.688,2.726 11.578,2.436 Q11.468,2.145 11.595,1.862 Q11.723,1.579 12.013,1.469 Z"/>
  <path fill="#292D32" d="M1.75,12.41 L1.75,7.84 Q1.75,5.348 4.075,4.468 L8.045,2.968 Q8.336,2.859 8.619,2.986 Q8.902,3.114 9.012,3.405 Q9.121,3.695 8.994,3.979 Q8.866,4.262 8.575,4.372 L4.605,5.871 Q3.25,6.384 3.25,7.84 L3.25,12.41 Q3.25,12.721 3.03,12.94 Q2.811,13.16 2.5,13.16 Q2.189,13.16 1.97,12.94 Q1.75,12.721 1.75,12.41 Z"/>
</svg>

