<svg xmlns="http://www.w3.org/2000/svg" width="24" height="24" viewBox="0 0 24 24">
  <defs/>
  <path fill="#292D32" opacity="0.4" d="M19.48,12.95 L21.5,12.95 L21.5,11.51 C21.5,9.44 19.81,7.75 17.74,7.75 L6.26,7.75 C4.19,7.75 2.5,9.44 2.5,11.51 L2.5,18.24 C2.5,20.31 4.19,22 6.26,22 L17.74,22 C19.81,22 21.5,20.31 21.5,18.24 L21.5,17.05 L19.6,17.05 C18.52,17.05 17.53,16.26 17.44,15.18 C17.38,14.55 17.62,13.96 18.04,13.55 C18.41,13.17 18.92,12.95 19.48,12.95 Z M6.6,20.58 C6.45,20.72 6.26,20.79 6.07,20.79 C5.88,20.79 5.69,20.72 5.54,20.58 L5.01,20.05 L4.46,20.6 C4.31,20.75 4.12,20.82 3.93,20.82 C3.74,20.82 3.55,20.75 3.4,20.6 C3.11,20.31 3.11,19.83 3.4,19.54 L3.95,18.99 L3.42,18.46 C3.13,18.17 3.13,17.69 3.42,17.4 C3.72,17.11 4.19,17.11 4.49,17.4 L5.01,17.93 L5.51,17.42 C5.81,17.13 6.28,17.13 6.58,17.42 C6.87,17.72 6.87,18.19 6.58,18.49 L6.07,18.99 L6.6,19.51 C6.89,19.81 6.89,20.28 6.6,20.58 Z"/>
  <path fill="#292D32" d="M14.85,3.95 L14.85,7.75 L6.26,7.75 C4.19,7.75 2.5,9.44 2.5,11.51 L2.5,7.84 C2.5,6.65 3.23,5.59 4.34,5.17 L12.28,2.17 C13.52,1.71 14.85,2.62 14.85,3.95 Z"/>
  <path fill="#292D32" d="M22.561,13.97 L22.561,16.03 C22.561,16.58 22.121,17.03 21.561,17.05 L19.601,17.05 C18.521,17.05 17.531,16.26 17.441,15.18 C17.381,14.55 17.621,13.96 18.041,13.55 C18.411,13.17 18.921,12.95 19.481,12.95 L21.561,12.95 C22.121,12.97 22.561,13.42 22.561,13.97 Z"/>
  <path fill="#292D32" d="M14,12.75 L7,12.75 C6.59,12.75 6.25,12.41 6.25,12 C6.25,11.59 6.59,11.25 7,11.25 L14,11.25 C14.41,11.25 14.75,11.59 14.75,12 C14.75,12.41 14.41,12.75 14,12.75 Z"/>
  <path fill="#292D32" d="M5,15 C4.06,15 3.19,15.33 2.5,15.88 C1.58,16.61 1,17.74 1,19 C1,19.75 1.21,20.46 1.58,21.06 C2.27,22.22 3.54,23 5,23 C6.01,23 6.93,22.63 7.63,22 C7.94,21.74 8.21,21.42 8.42,21.06 C8.79,20.46 9,19.75 9,19 C9,16.79 7.21,15 5,15 Z M3.42,18.46 C3.13,18.17 3.13,17.69 3.42,17.4 C3.72,17.11 4.19,17.11 4.49,17.4 L5.01,17.93 L5.51,17.42 C5.81,17.13 6.28,17.13 6.58,17.42 C6.87,17.72 6.87,18.19 6.58,18.49 L6.07,18.99 L6.6,19.51 C6.89,19.81 6.89,20.28 6.6,20.58 C6.45,20.72 6.26,20.79 6.07,20.79 C5.88,20.79 5.69,20.72 5.54,20.58 L5.01,20.05 L4.46,20.6 C4.31,20.75 4.12,20.82 3.93,20.82 C3.74,20.82 3.55,20.75 3.4,20.6 C3.11,20.31 3.11,19.83 3.4,19.54 L3.95,18.99 L3.42,18.46 Z"/>
</svg>

