<svg xmlns="http://www.w3.org/2000/svg" width="24" height="24" viewBox="0 0 24 24">
  <defs/>
  <path fill="#292D32" d="M14.85,3.951 L14.85,7.751 L13.35,7.751 L13.35,3.951 C13.35,3.681 13.11,3.551 12.95,3.551 C12.9,3.551 12.85,3.561 12.8,3.581 L4.87,6.571 C4.34,6.771 4,7.271 4,7.841 L4,8.511 C3.09,9.191 2.5,10.281 2.5,11.511 L2.5,7.841 C2.5,6.651 3.23,5.591 4.34,5.171 L12.28,2.171 C12.5,2.091 12.73,2.051 12.95,2.051 C13.95,2.051 14.85,2.861 14.85,3.951 Z"/>
  <path fill="#292D32" d="M21.501,14.5 L21.501,15.5 C21.501,15.77 21.291,15.99 21.011,16 L19.551,16 C19.021,16 18.541,15.61 18.501,15.09 C18.471,14.78 18.591,14.49 18.791,14.29 C18.971,14.1 19.221,14 19.491,14 L21.001,14 C21.291,14.01 21.501,14.23 21.501,14.5 Z"/>
  <path fill="#292D32" d="M19.48,12.95 L20.5,12.95 C21.05,12.95 21.5,12.5 21.5,11.95 L21.5,11.51 C21.5,9.44 19.81,7.75 17.74,7.75 L6.26,7.75 C5.41,7.75 4.63,8.03 4,8.51 C3.09,9.19 2.5,10.28 2.5,11.51 L2.5,18.24 C2.5,20.31 4.19,22 6.26,22 L17.74,22 C19.81,22 21.5,20.31 21.5,18.24 L21.5,18.05 C21.5,17.5 21.05,17.05 20.5,17.05 L19.63,17.05 C18.67,17.05 17.75,16.46 17.5,15.53 C17.29,14.77 17.54,14.04 18.04,13.55 C18.41,13.17 18.92,12.95 19.48,12.95 Z M14,12.75 L7,12.75 C6.59,12.75 6.25,12.41 6.25,12 C6.25,11.59 6.59,11.25 7,11.25 L14,11.25 C14.41,11.25 14.75,11.59 14.75,12 C14.75,12.41 14.41,12.75 14,12.75 Z"/>
</svg>

