<svg xmlns="http://www.w3.org/2000/svg" width="24" height="24" viewBox="0 0 24 24">
  <defs/>
  <path fill="#292D32" d="M17.74,22.75 L6.26,22.75 C3.77,22.75 1.75,20.73 1.75,18.24 L1.75,11.51 C1.75,9.02 3.77,7 6.26,7 L17.74,7 C20.23,7 22.25,9.02 22.25,11.51 L22.25,12.95 C22.25,13.36 21.91,13.7 21.5,13.7 L19.48,13.7 C19.13,13.7 18.81,13.83 18.58,14.07 L18.57,14.08 C18.29,14.35 18.16,14.72 18.19,15.1 C18.25,15.76 18.88,16.29 19.6,16.29 L21.5,16.29 C21.91,16.29 22.25,16.63 22.25,17.04 L22.25,18.23 C22.25,20.73 20.23,22.75 17.74,22.75 Z M6.26,8.5 C4.6,8.5 3.25,9.85 3.25,11.51 L3.25,18.24 C3.25,19.9 4.6,21.25 6.26,21.25 L17.74,21.25 C19.4,21.25 20.75,19.9 20.75,18.24 L20.75,17.8 L19.6,17.8 C18.09,17.8 16.81,16.68 16.69,15.24 C16.61,14.42 16.91,13.61 17.51,13.02 C18.03,12.49 18.73,12.2 19.48,12.2 L20.75,12.2 L20.75,11.51 C20.75,9.85 19.4,8.5 17.74,8.5 L6.26,8.5 Z"/>
  <path fill="#292D32" d="M2.5,13.16 C2.09,13.16 1.75,12.82 1.75,12.41 L1.75,7.84 C1.75,6.35 2.69,5 4.08,4.47 L12.02,1.47 C12.84,1.16 13.75,1.27 14.46,1.77 C15.18,2.27 15.6,3.08 15.6,3.95 L15.6,7.75 C15.6,8.16 15.26,8.5 14.85,8.5 C14.44,8.5 14.1,8.16 14.1,7.75 L14.1,3.95 C14.1,3.57 13.92,3.22 13.6,3 C13.28,2.78 12.9,2.73 12.54,2.87 L4.6,5.87 C3.79,6.18 3.24,6.97 3.24,7.84 L3.24,12.41 C3.25,12.83 2.91,13.16 2.5,13.16 Z"/>
  <path fill="#292D32" d="M19.601,17.8 C18.09,17.8 16.811,16.68 16.691,15.24 C16.61,14.41 16.91,13.6 17.511,13.01 C18.02,12.49 18.721,12.2 19.471,12.2 L21.55,12.2 C22.541,12.23 23.3,13.01 23.3,13.97 L23.3,16.03 C23.3,16.99 22.541,17.77 21.581,17.8 L19.601,17.8 Z M21.53,13.7 L19.48,13.7 C19.131,13.7 18.811,13.83 18.581,14.07 C18.291,14.35 18.151,14.73 18.191,15.11 C18.25,15.77 18.881,16.3 19.601,16.3 L21.561,16.3 C21.691,16.3 21.811,16.18 21.811,16.03 L21.811,13.97 C21.811,13.82 21.691,13.71 21.53,13.7 Z"/>
  <path fill="#292D32" d="M14,12.75 L7,12.75 C6.59,12.75 6.25,12.41 6.25,12 C6.25,11.59 6.59,11.25 7,11.25 L14,11.25 C14.41,11.25 14.75,11.59 14.75,12 C14.75,12.41 14.41,12.75 14,12.75 Z"/>
</svg>

