<svg xmlns="http://www.w3.org/2000/svg" width="24" height="24" viewBox="0 0 24 24">
  <defs/>
  <path d="M12,22.75 C6.07,22.75 1.25,17.93 1.25,12 C1.25,6.07 6.07,1.25 12,1.25 C17.93,1.25 22.75,6.07 22.75,12 C22.75,17.93 17.93,22.75 12,22.75 Z M12,2.75 C6.9,2.75 2.75,6.9 2.75,12 C2.75,17.1 6.9,21.25 12,21.25 C17.1,21.25 21.25,17.1 21.25,12 C21.25,6.9 17.1,2.75 12,2.75 Z"/>
  <path d="M15.75,16.75 L10.75,16.75 C8.68,16.75 7,15.07 7,13 L7,11 C7,8.93 8.68,7.25 10.75,7.25 L15.75,7.25 C16.16,7.25 16.5,7.59 16.5,8 C16.5,8.41 16.16,8.75 15.75,8.75 L10.75,8.75 C9.51,8.75 8.5,9.76 8.5,11 L8.5,13 C8.5,14.24 9.51,15.25 10.75,15.25 L15.75,15.25 C16.16,15.25 16.5,15.59 16.5,16 C16.5,16.41 16.16,16.75 15.75,16.75 Z"/>
  <path d="M15.75,12.75 L7.75,12.75 C7.34,12.75 7,12.41 7,12 C7,11.59 7.34,11.25 7.75,11.25 L15.75,11.25 C16.16,11.25 16.5,11.59 16.5,12 C16.5,12.41 16.16,12.75 15.75,12.75 Z"/>
</svg>

