<svg xmlns="http://www.w3.org/2000/svg" width="24" height="24" viewBox="0 0 24 24">
  <defs/>
  <path fill="white" d="M24,0 L0,0 L0,24 L24,24 L24,0 Z"/>
  <path fill="#292D32" opacity="0.4" d="M12,22 C17.523,22 22,17.523 22,12 C22,6.477 17.523,2 12,2 C6.477,2 2,6.477 2,12 C2,17.523 6.477,22 12,22 Z"/>
  <path fill="#292D32" d="M15.75,12.75 C16.16,12.75 16.5,12.41 16.5,12 C16.5,11.59 16.16,11.25 15.75,11.25 L8.5,11.25 L8.5,11 C8.5,9.76 9.51,8.75 10.75,8.75 L15.75,8.75 C16.16,8.75 16.5,8.41 16.5,8 C16.5,7.59 16.16,7.25 15.75,7.25 L10.75,7.25 C8.68,7.25 7,8.93 7,11 L7,13 C7,15.07 8.68,16.75 10.75,16.75 L15.75,16.75 C16.16,16.75 16.5,16.41 16.5,16 C16.5,15.59 16.16,15.25 15.75,15.25 L10.75,15.25 C9.51,15.25 8.5,14.24 8.5,13 L8.5,12.75 L15.75,12.75 Z"/>
</svg>

