<svg xmlns="http://www.w3.org/2000/svg" width="24" height="24" viewBox="0 0 24 24">
  <defs/>
  <path fill="white" d="M24,0 L0,0 L0,24 L24,24 L24,0 Z"/>
  <path fill="#292D32" d="M16.98,8.09 L16.809,8.52 L12.089,21.75 L11.909,21.75 L7.18,8.5 L7.02,8.1 C7.08,7.95 7.16,7.81 7.24,7.71 L10.85,3.38 C11.479,2.62 12.52,2.62 13.149,3.38 L16.759,7.71 C16.84,7.8 16.919,7.95 16.98,8.09 Z"/>
  <path fill="#292D32" opacity="0.4" d="M11.909,21.75 C11.669,21.74 11.439,21.68 11.259,21.57 L5.939,18.54 C5.419,18.24 5.099,17.52 5.209,16.94 L6.929,8.37 C6.949,8.29 6.979,8.2 7.019,8.1 L7.179,8.5 L11.909,21.75 Z"/>
  <path fill="#292D32" opacity="0.4" d="M18.06,18.54 L12.74,21.57 C12.56,21.68 12.33,21.74 12.09,21.75 L16.81,8.52 L16.98,8.09 C17.02,8.19 17.05,8.29 17.07,8.37 L18.79,16.94 C18.9,17.52 18.58,18.24 18.06,18.54 Z"/>
</svg>

