<svg xmlns="http://www.w3.org/2000/svg" width="24" height="24" viewBox="0 0 24 24">
  <defs/>
  <path fill="#17191C" d="M10.235,2.906 Q10.984,2.05 11.987,2.05 Q13.015,2.05 13.687,2.933 L17.275,7.219 Q17.331,7.286 17.371,7.365 Q17.387,7.398 17.44,7.493 Q17.703,7.97 17.743,8.291 L19.436,16.855 Q19.438,16.866 19.44,16.877 Q19.702,18.453 18.386,19.243 Q18.378,19.248 18.369,19.253 L13.069,22.253 Q13.052,22.262 13.035,22.271 Q11.95,22.814 10.864,22.271 Q10.847,22.262 10.83,22.253 L5.53,19.253 Q5.522,19.248 5.514,19.243 Q4.197,18.453 4.46,16.877 Q4.462,16.866 4.464,16.855 L6.164,8.255 Q6.184,8.155 6.229,8.065 Q6.265,7.993 6.353,7.772 Q6.465,7.493 6.529,7.365 Q6.568,7.286 6.625,7.219 L10.225,2.919 Z M11.369,3.888 L7.838,8.106 Q7.803,8.186 7.746,8.329 Q7.671,8.516 7.618,8.635 L5.938,17.133 Q5.849,17.69 6.279,17.953 L11.55,20.937 Q11.95,21.129 12.349,20.937 L17.621,17.953 Q18.05,17.69 17.962,17.133 L16.264,8.545 Q16.25,8.473 16.25,8.4 L16.127,8.219 Q16.096,8.163 16.073,8.12 L12.525,3.882 Q12.512,3.866 12.5,3.85 Q12.275,3.55 11.987,3.55 Q11.668,3.55 11.369,3.888 Z"/>
  <path fill="#17191C" d="M17.508,8.749 L13.208,20.949 Q13.192,20.994 13.171,21.035 Q12.814,21.75 12.013,21.75 Q11.112,21.75 10.884,20.924 L6.495,8.754 Q6.389,8.462 6.521,8.181 Q6.654,7.9 6.946,7.794 Q7.238,7.689 7.519,7.821 Q7.8,7.953 7.906,8.246 L12.047,19.729 L16.093,8.251 Q16.196,7.958 16.476,7.824 Q16.757,7.689 17.05,7.793 Q17.343,7.896 17.477,8.176 Q17.611,8.456 17.508,8.749 Z"/>
</svg>

