<svg xmlns="http://www.w3.org/2000/svg" width="24" height="24" viewBox="0 0 24 24">
  <defs/>
  <path d="M9.279,20.311 C9.449,20.791 8.929,21.231 8.489,20.971 L5.339,19.181 C4.769,18.851 4.419,18.061 4.539,17.421 L5.479,12.751 C5.589,12.201 6.349,12.151 6.539,12.671 L9.279,20.311 Z"/>
  <path d="M18.661,19.179 L15.501,20.979 C15.061,21.229 14.541,20.799 14.711,20.319 L17.461,12.609 C17.651,12.089 18.411,12.139 18.521,12.689 L19.471,17.419 C19.581,18.059 19.231,18.849 18.661,19.179 Z"/>
  <path d="M17.08,7.32 C17.32,7.62 17.39,8.02 17.26,8.38 L12.52,21.63 C12.35,22.12 11.66,22.12 11.49,21.63 L6.75,8.39 C6.62,8.03 6.69,7.63 6.93,7.33 L10.75,2.63 C11.44,1.8 12.58,1.8 13.28,2.63 L17.08,7.32 Z"/>
</svg>

