<svg xmlns="http://www.w3.org/2000/svg" width="24" height="24" viewBox="0 0 24 24">
  <defs/>
  <path d="M12,22.5 C11.6,22.5 11.2,22.41 10.88,22.23 L5.56,19.19 C4.76,18.73 4.29,17.7 4.47,16.79 L6.18,8.22 C6.25,7.89 6.44,7.48 6.66,7.22 L10.26,2.9 C11.15,1.83 12.83,1.83 13.72,2.9 L17.32,7.22 C17.54,7.48 17.73,7.89 17.8,8.22 L19.51,16.79 C19.69,17.7 19.22,18.73 18.42,19.18 L13.1,22.22 C12.8,22.41 12.4,22.5 12,22.5 Z M12,3.56 C11.79,3.56 11.59,3.67 11.42,3.86 L7.82,8.18 C7.77,8.24 7.68,8.43 7.66,8.51 L5.95,17.08 C5.9,17.35 6.08,17.74 6.31,17.88 L11.63,20.92 C11.81,21.02 12.2,21.02 12.37,20.92 L17.69,17.88 C17.93,17.74 18.11,17.35 18.05,17.08 L16.34,8.51 C16.32,8.43 16.23,8.24 16.18,8.18 L12.58,3.86 C12.41,3.67 12.21,3.56 12,3.56 Z"/>
  <path d="M12,21.76 C11.46,21.76 11,21.43 10.82,20.93 L6.47,8.75 C6.33,8.36 6.53,7.93 6.92,7.79 C7.31,7.65 7.74,7.85 7.88,8.24 L12,19.77 L16.11,8.27 C16.25,7.88 16.68,7.68 17.07,7.82 C17.46,7.96 17.66,8.39 17.52,8.78 L13.18,20.94 C13,21.44 12.54,21.76 12,21.76 Z"/>
</svg>

