<svg xmlns="http://www.w3.org/2000/svg" width="24" height="24" viewBox="0 0 24 24">
  <defs/>
  <path d="M10.273,2.901 L10.274,2.9 Q10.971,2.06 12.004,2.06 Q13.027,2.06 13.756,2.9 L17.351,7.214 Q17.725,7.646 17.836,8.223 L19.547,16.803 Q19.843,18.389 18.452,19.191 L13.127,22.234 Q12.015,22.858 10.898,22.231 L5.575,19.19 Q4.158,18.372 4.484,16.793 L6.193,8.23 Q6.297,7.683 6.674,7.22 Z M11.426,3.86 L7.826,8.18 Q7.7,8.336 7.667,8.51 L5.955,17.087 Q5.846,17.614 6.325,17.89 L11.642,20.929 Q12.015,21.138 12.393,20.926 L17.708,17.889 Q18.174,17.62 18.073,17.078 L16.364,8.517 Q16.327,8.322 16.216,8.194 Q16.21,8.187 16.204,8.18 L12.604,3.86 Q12.343,3.56 12.004,3.56 Q11.675,3.56 11.427,3.859 Z"/>
  <path opacity="0.4" d="M17.516,8.772 L13.176,20.932 Q12.875,21.76 12,21.76 Q11.124,21.76 10.825,20.936 L6.473,8.752 Q6.369,8.46 6.502,8.179 Q6.635,7.898 6.927,7.794 Q7.22,7.689 7.501,7.822 Q7.782,7.955 7.886,8.248 L12,19.766 L16.103,8.268 Q16.208,7.975 16.488,7.842 Q16.769,7.709 17.062,7.814 Q17.354,7.918 17.487,8.199 Q17.62,8.48 17.516,8.772 Z"/>
</svg>

