<svg xmlns="http://www.w3.org/2000/svg" width="24" height="24" viewBox="0 0 24 24">
  <defs/>
  <path d="M6.216,15.765 L5.956,17.085 Q5.846,17.614 6.325,17.89 L11.642,20.929 Q12.015,21.138 12.393,20.926 L17.708,17.889 Q18.174,17.62 18.073,17.078 L16.364,8.517 Q16.327,8.322 16.216,8.194 Q16.21,8.187 16.204,8.18 L12.604,3.86 Q12.355,3.56 12.03,3.56 Q11.705,3.56 11.457,3.859 L7.856,8.18 Q7.73,8.335 7.697,8.51 L7.176,11.127 Q7.115,11.431 6.856,11.604 Q6.598,11.776 6.293,11.716 Q5.989,11.655 5.816,11.397 Q5.644,11.138 5.704,10.834 L6.223,8.23 Q6.327,7.683 6.704,7.22 L10.303,2.901 Q11,2.06 12.03,2.06 Q13.06,2.06 13.756,2.9 L17.351,7.214 Q17.725,7.646 17.836,8.223 L19.547,16.803 Q19.843,18.389 18.452,19.191 L13.127,22.234 Q12.015,22.858 10.898,22.231 L5.575,19.19 Q4.158,18.372 4.484,16.795 L4.744,15.475 Q4.804,15.17 5.062,14.997 Q5.32,14.824 5.625,14.884 Q5.93,14.944 6.103,15.202 Q6.276,15.46 6.216,15.765 Z"/>
  <path d="M17.516,8.772 L13.176,20.932 Q12.875,21.76 12,21.76 Q11.124,21.76 10.825,20.936 L6.473,8.752 Q6.369,8.46 6.502,8.179 Q6.635,7.898 6.927,7.794 Q7.22,7.689 7.501,7.822 Q7.782,7.955 7.886,8.248 L12,19.766 L16.103,8.268 Q16.208,7.975 16.488,7.842 Q16.769,7.709 17.062,7.814 Q17.354,7.918 17.487,8.199 Q17.62,8.48 17.516,8.772 Z"/>
</svg>

