<svg xmlns="http://www.w3.org/2000/svg" width="24" height="24" viewBox="0 0 24 24">
  <defs/>
  <path fill="#292D32" d="M9,22.75 Q1.25,22.75 1.25,15 L1.25,9 Q1.25,1.25 9,1.25 L15,1.25 Q22.75,1.25 22.75,9 L22.75,15 Q22.75,22.75 15,22.75 Z M9,21.25 L15,21.25 Q18.439,21.25 19.845,19.845 Q21.25,18.439 21.25,15 L21.25,9 Q21.25,2.75 15,2.75 L9,2.75 Q2.75,2.75 2.75,9 L2.75,15 Q2.75,18.439 4.155,19.845 Q5.561,21.25 9,21.25 Z"/>
  <path fill="#292D32" d="M6.46,15.61 Q5.752,14.903 5.752,13.906 Q5.752,12.906 6.46,12.21 L12.21,6.46 Q13.91,4.759 15.61,6.46 L17.55,8.4 Q18.25,9.099 18.25,10.1 Q18.25,11.101 17.55,11.8 L11.8,17.55 Q10.1,19.251 8.4,17.55 Z M7.52,14.55 L9.46,16.49 Q10.1,17.129 10.74,16.49 L16.49,10.74 Q16.809,10.42 16.809,10.1 Q16.809,9.78 16.49,9.46 L14.55,7.52 Q14.289,7.26 13.91,7.26 Q13.531,7.26 13.27,7.52 L7.52,13.27 Q7.252,13.534 7.252,13.906 Q7.252,14.282 7.52,14.55 Z"/>
  <path fill="#292D32" d="M9.84,9.89 L14.11,14.16 Q14.33,14.379 14.33,14.69 Q14.33,15.001 14.11,15.22 Q13.891,15.44 13.58,15.44 Q13.269,15.44 13.05,15.22 L8.78,10.95 Q8.56,10.731 8.56,10.42 Q8.56,10.109 8.78,9.89 Q8.999,9.67 9.31,9.67 Q9.621,9.67 9.84,9.89 Z"/>
</svg>

