<svg xmlns="http://www.w3.org/2000/svg" width="24" height="24" viewBox="0 0 24 24">
  <defs/>
  <path fill="#292D32" d="M21,22.75 L9,22.75 C8.59,22.75 8.25,22.41 8.25,22 C8.25,21.59 8.59,21.25 9,21.25 L21,21.25 C21.41,21.25 21.75,21.59 21.75,22 C21.75,22.41 21.41,22.75 21,22.75 Z"/>
  <path fill="#292D32" d="M8.54,22.71 C7.54,22.71 6.59,22.32 5.89,21.61 L2.38,18.1 C0.92,16.64 0.92,14.26 2.38,12.8 L12.81,2.37 C14.22,0.96 16.7,0.96 18.11,2.37 L21.62,5.88 C23.08,7.34 23.08,9.72 21.62,11.18 L11.19,21.61 C10.49,22.33 9.55,22.71 8.54,22.71 Z M3.44,17.05 L6.95,20.56 C7.8,21.41 9.29,21.41 10.13,20.56 L20.56,10.13 C21.44,9.25 21.44,7.83 20.56,6.95 L17.05,3.44 C16.21,2.6 14.72,2.59 13.87,3.44 L3.44,13.87 C2.56,14.74 2.56,16.17 3.44,17.05 Z"/>
  <path fill="#292D32" d="M14.87,17.63 C14.681,17.63 14.491,17.56 14.341,17.41 L6.591,9.66 C6.301,9.37 6.301,8.89 6.591,8.6 C6.881,8.31 7.361,8.31 7.651,8.6 L15.4,16.35 C15.691,16.64 15.691,17.12 15.4,17.41 C15.251,17.56 15.06,17.63 14.87,17.63 Z"/>
  <path fill="#292D32" d="M3.521,18.41 C3.331,18.41 3.141,18.34 2.991,18.19 C2.701,17.9 2.701,17.42 2.991,17.13 L8.651,11.47 C8.941,11.18 9.421,11.18 9.711,11.47 C10.001,11.76 10.001,12.24 9.711,12.53 L4.051,18.19 C3.901,18.34 3.711,18.41 3.521,18.41 Z"/>
  <path fill="#292D32" d="M6.339,21.24 C6.149,21.24 5.959,21.17 5.809,21.02 C5.519,20.73 5.519,20.25 5.809,19.96 L11.469,14.3 C11.759,14.01 12.239,14.01 12.529,14.3 C12.819,14.59 12.819,15.07 12.529,15.36 L6.869,21.02 C6.729,21.16 6.539,21.24 6.339,21.24 Z"/>
</svg>

