<svg xmlns="http://www.w3.org/2000/svg" width="24" height="24" viewBox="0 0 24 24">
  <defs/>
  <path fill="#292D32" d="M9,22.75 Q1.25,22.75 1.25,15 L1.25,9 Q1.25,1.25 9,1.25 L15,1.25 Q22.75,1.25 22.75,9 L22.75,15 Q22.75,22.75 15,22.75 Z M9,21.25 L15,21.25 Q18.439,21.25 19.845,19.845 Q21.25,18.439 21.25,15 L21.25,9 Q21.25,2.75 15,2.75 L9,2.75 Q2.75,2.75 2.75,9 L2.75,15 Q2.75,18.439 4.155,19.845 Q5.561,21.25 9,21.25 Z"/>
  <g opacity="0.4">
    <path fill="#292D32" d="M6.459,15.61 Q5.752,14.903 5.752,13.906 Q5.752,12.906 6.459,12.209 L12.209,6.459 Q13.909,4.759 15.61,6.459 L17.55,8.399 Q18.25,9.099 18.25,10.1 Q18.25,11.1 17.55,11.8 L11.8,17.55 Q10.099,19.25 8.399,17.55 Z M7.52,14.549 L9.46,16.489 Q10.099,17.129 10.739,16.489 L16.489,10.739 Q16.75,10.479 16.75,10.1 Q16.75,9.72 16.489,9.46 L14.549,7.52 Q13.909,6.88 13.27,7.52 L7.52,13.27 Q7.252,13.534 7.252,13.906 Q7.252,14.282 7.52,14.549 Z"/>
    <path fill="#292D32" d="M9.839,9.89 L14.109,14.16 Q14.329,14.379 14.329,14.69 Q14.329,15.001 14.109,15.22 Q13.889,15.44 13.579,15.44 Q13.268,15.44 13.048,15.22 L8.778,10.95 Q8.559,10.731 8.559,10.42 Q8.559,10.109 8.778,9.89 Q8.998,9.67 9.309,9.67 Q9.619,9.67 9.839,9.89 Z"/>
  </g>
</svg>

