<svg xmlns="http://www.w3.org/2000/svg" width="24" height="24" viewBox="0 0 24 24">
  <defs/>
  <path fill="#292D32" opacity="0.4" d="M16.19,2 L7.82,2 C4.18,2 2.01,4.17 2.01,7.81 L2.01,16.18 C2.01,19.82 4.18,21.99 7.82,21.99 L16.19,21.99 C19.83,21.99 22,19.82 22,16.18 L22,7.81 C22,4.17 19.83,2 16.19,2 Z"/>
  <path fill="#292D32" d="M13.579,14.69 L11.259,17.01 C10.619,17.66 9.569,17.66 8.919,17.01 L6.989,15.08 C6.339,14.43 6.339,13.38 6.989,12.74 L9.309,10.42 L13.579,14.69 Z"/>
  <path fill="#292D32" opacity="0.6" d="M17.011,11.26 L13.581,14.69 L9.311,10.42 L12.741,6.99 C13.381,6.34 14.431,6.34 15.081,6.99 L17.011,8.92 C17.66,9.57 17.66,10.62 17.011,11.26 Z"/>
</svg>

