<svg xmlns="http://www.w3.org/2000/svg" width="24" height="24" viewBox="0 0 24 24">
  <defs/>
  <path fill="#292D32" d="M21.03,22 L13.99,22 C13.57,22 13.24,21.66 13.24,21.25 C13.24,20.84 13.58,20.5 13.99,20.5 L21.03,20.5 C21.45,20.5 21.78,20.84 21.78,21.25 C21.78,21.66 21.45,22 21.03,22 Z"/>
  <path fill="#292D32" d="M13.64,16.689 C14.03,17.079 14.03,17.709 13.64,18.109 L10.66,21.089 C9.55,22.199 7.77,22.259 6.59,21.269 C6.52,21.209 6.46,21.149 6.4,21.089 L5.53,20.219 L3.74,18.429 L2.88,17.569 C2.81,17.499 2.75,17.429 2.69,17.359 C1.71,16.179 1.78,14.419 2.88,13.319 L5.86,10.339 C6.25,9.949 6.88,9.949 7.27,10.339 L13.64,16.689 Z"/>
  <path fill="#292D32" d="M21.119,10.641 L16.119,15.641 C15.729,16.031 15.099,16.031 14.709,15.641 L8.339,9.291 C7.949,8.901 7.949,8.271 8.339,7.871 L13.339,2.881 C14.509,1.711 16.429,1.711 17.599,2.881 L21.119,6.391 C22.289,7.561 22.289,9.471 21.119,10.641 Z"/>
</svg>

