<svg xmlns="http://www.w3.org/2000/svg" width="24" height="24" viewBox="0 0 24 24">
  <defs/>
  <path fill="#292D32" d="M9,21.25 L21,21.25 Q21.311,21.25 21.53,21.47 Q21.75,21.689 21.75,22 Q21.75,22.311 21.53,22.53 Q21.311,22.75 21,22.75 L9,22.75 Q8.689,22.75 8.47,22.53 Q8.25,22.311 8.25,22 Q8.25,21.689 8.47,21.47 Q8.689,21.25 9,21.25 Z"/>
  <path fill="#292D32" d="M2.38,18.111 Q1.283,17.013 1.283,15.456 Q1.283,13.898 2.38,12.81 L12.808,2.382 Q13.898,1.283 15.457,1.283 Q17.014,1.283 18.111,2.38 L21.619,5.888 Q22.718,6.978 22.718,8.536 Q22.718,10.093 21.621,11.191 L11.193,21.618 Q10.103,22.718 8.544,22.718 Q6.988,22.718 5.89,21.621 Z M3.441,17.05 L6.951,20.56 Q7.609,21.218 8.544,21.218 Q9.478,21.218 10.128,20.562 L20.56,10.13 Q21.218,9.472 21.218,8.536 Q21.218,7.603 20.563,6.953 L17.05,3.441 Q16.393,2.783 15.457,2.783 Q14.523,2.783 13.873,3.438 L3.441,13.871 Q2.783,14.523 2.783,15.456 Q2.783,16.392 3.441,17.05 Z"/>
  <g opacity="0.4">
    <path fill="#292D32" d="M7.649,8.6 L15.399,16.35 Q15.619,16.569 15.619,16.88 Q15.619,17.191 15.399,17.41 Q15.18,17.63 14.869,17.63 Q14.558,17.63 14.339,17.41 L6.589,9.66 Q6.369,9.441 6.369,9.13 Q6.369,8.819 6.589,8.6 Q6.808,8.38 7.119,8.38 Q7.43,8.38 7.649,8.6 Z"/>
    <path fill="#292D32" d="M2.989,17.13 L8.639,11.47 Q8.858,11.25 9.169,11.25 Q9.479,11.25 9.699,11.469 Q9.919,11.689 9.919,11.999 Q9.92,12.31 9.7,12.53 L4.05,18.19 Q3.831,18.41 3.52,18.41 Q3.21,18.41 2.99,18.191 Q2.77,17.971 2.77,17.661 Q2.769,17.35 2.989,17.13 Z"/>
    <path fill="#292D32" d="M5.81,19.96 L11.469,14.3 Q11.689,14.08 12,14.08 Q12.31,14.08 12.53,14.3 Q12.75,14.519 12.75,14.83 Q12.75,15.141 12.53,15.36 L6.87,21.02 Q6.651,21.24 6.34,21.24 Q6.029,21.24 5.81,21.02 Q5.59,20.801 5.59,20.49 Q5.59,20.179 5.81,19.96 Z"/>
  </g>
</svg>

