<svg xmlns="http://www.w3.org/2000/svg" width="24" height="24" viewBox="0 0 24 24">
  <defs/>
  <path fill="#292D32" d="M16.19,2 L7.81,2 C4.17,2 2,4.17 2,7.81 L2,16.18 C2,19.83 4.17,22 7.81,22 L16.18,22 C19.82,22 21.99,19.83 21.99,16.19 L21.99,7.81 C22,4.17 19.83,2 16.19,2 Z M12.52,15.75 L11.26,17.01 C10.62,17.66 9.57,17.66 8.92,17.01 L6.99,15.08 C6.34,14.43 6.35,13.39 6.99,12.74 L8.26,11.48 C8.46,11.29 8.77,11.29 8.97,11.48 L12.53,15.04 C12.72,15.24 12.72,15.56 12.52,15.75 Z M17.01,11.26 L13.93,14.34 C13.73,14.54 13.42,14.54 13.22,14.34 L9.66,10.78 C9.46,10.58 9.46,10.27 9.66,10.07 L12.74,6.99 C13.38,6.34 14.43,6.34 15.08,6.99 L17.01,8.92 C17.66,9.57 17.66,10.62 17.01,11.26 Z"/>
</svg>

