<svg xmlns="http://www.w3.org/2000/svg" width="24" height="24" viewBox="0 0 24 24">
  <defs/>
  <path fill="#292D32" d="M9,21.25 L21,21.25 Q21.311,21.25 21.53,21.47 Q21.75,21.689 21.75,22 Q21.75,22.311 21.53,22.53 Q21.311,22.75 21,22.75 L9,22.75 Q8.689,22.75 8.47,22.53 Q8.25,22.311 8.25,22 Q8.25,21.689 8.47,21.47 Q8.689,21.25 9,21.25 Z"/>
  <path fill="#292D32" d="M2.38,18.11 Q1.282,17.013 1.282,15.456 Q1.282,13.897 2.38,12.81 L12.807,2.382 Q13.897,1.282 15.456,1.282 Q17.013,1.282 18.11,2.38 L21.618,5.887 Q22.718,6.977 22.718,8.536 Q22.718,10.093 21.62,11.19 L11.193,21.618 Q10.103,22.717 8.544,22.718 Q6.987,22.718 5.89,21.62 Z M3.44,17.05 L6.95,20.56 Q7.608,21.218 8.544,21.218 Q9.477,21.218 10.127,20.562 L20.56,10.13 Q21.218,9.472 21.218,8.536 Q21.218,7.603 20.562,6.953 L17.05,3.44 Q16.392,2.782 15.456,2.782 Q14.523,2.782 13.873,3.438 L3.44,13.87 Q2.782,14.523 2.782,15.456 Q2.782,16.392 3.44,17.05 Z"/>
  <path fill="#292D32" d="M7.65,8.6 L15.4,16.35 Q15.62,16.569 15.62,16.88 Q15.62,17.191 15.4,17.41 Q15.181,17.63 14.87,17.63 Q14.559,17.63 14.34,17.41 L6.59,9.66 Q6.37,9.441 6.37,9.13 Q6.37,8.819 6.59,8.6 Q6.809,8.38 7.12,8.38 Q7.431,8.38 7.65,8.6 Z"/>
  <path fill="#292D32" d="M2.989,17.13 L8.639,11.47 Q8.859,11.25 9.169,11.25 Q9.48,11.25 9.7,11.469 Q9.92,11.689 9.92,11.999 Q9.92,12.31 9.701,12.53 L4.051,18.19 Q3.831,18.41 3.521,18.41 Q3.21,18.41 2.99,18.191 Q2.77,17.971 2.77,17.661 Q2.77,17.35 2.989,17.13 Z"/>
  <path fill="#292D32" d="M5.81,19.96 L11.47,14.3 Q11.689,14.08 12,14.08 Q12.311,14.08 12.53,14.3 Q12.75,14.519 12.75,14.83 Q12.75,15.141 12.53,15.36 L6.87,21.02 Q6.651,21.24 6.34,21.24 Q6.029,21.24 5.81,21.02 Q5.59,20.801 5.59,20.49 Q5.59,20.179 5.81,19.96 Z"/>
</svg>

