<svg xmlns="http://www.w3.org/2000/svg" width="24" height="24" viewBox="0 0 24 24">
  <defs/>
  <path fill="#292D32" d="M15,22.75 L9,22.75 C3.57,22.75 1.25,20.43 1.25,15 L1.25,9 C1.25,3.57 3.57,1.25 9,1.25 L15,1.25 C20.43,1.25 22.75,3.57 22.75,9 L22.75,15 C22.75,20.43 20.43,22.75 15,22.75 Z M9,2.75 C4.39,2.75 2.75,4.39 2.75,9 L2.75,15 C2.75,19.61 4.39,21.25 9,21.25 L15,21.25 C19.61,21.25 21.25,19.61 21.25,15 L21.25,9 C21.25,4.39 19.61,2.75 15,2.75 L9,2.75 Z"/>
  <path fill="#292D32" d="M10.091,18.25 C9.471,18.25 8.861,18.02 8.391,17.55 L6.451,15.61 C5.511,14.67 5.511,13.15 6.451,12.21 L12.201,6.46 C13.141,5.52 14.661,5.52 15.601,6.46 L17.541,8.4 C18.481,9.34 18.481,10.86 17.541,11.8 L11.791,17.55 C11.321,18.01 10.711,18.25 10.091,18.25 Z M7.521,14.55 L9.461,16.49 C9.811,16.84 10.391,16.84 10.741,16.49 L16.491,10.74 C16.841,10.39 16.841,9.81 16.491,9.46 L14.551,7.52 C14.201,7.17 13.621,7.17 13.271,7.52 L7.521,13.27 C7.171,13.62 7.171,14.19 7.521,14.55 Z"/>
  <path fill="#292D32" d="M13.58,15.44 C13.39,15.44 13.2,15.37 13.05,15.22 L8.77,10.94 C8.48,10.65 8.48,10.17 8.77,9.88 C9.06,9.59 9.54,9.59 9.83,9.88 L14.11,14.16 C14.4,14.45 14.4,14.93 14.11,15.22 C13.97,15.37 13.77,15.44 13.58,15.44 Z"/>
</svg>

