<svg xmlns="http://www.w3.org/2000/svg" width="24" height="24" viewBox="0 0 24 24">
  <defs/>
  <path fill="#292D32" d="M21.03,22 L13.99,22 C13.57,22 13.24,21.66 13.24,21.25 C13.24,20.84 13.58,20.5 13.99,20.5 L21.03,20.5 C21.45,20.5 21.78,20.84 21.78,21.25 C21.78,21.66 21.45,22 21.03,22 Z"/>
  <path fill="#292D32" opacity="0.4" d="M15.41,16.34 L10.66,21.09 C9.55,22.2 7.77,22.26 6.59,21.27 C6.52,21.21 6.46,21.15 6.4,21.09 L5.53,20.22 L3.74,18.43 L2.88,17.57 C2.81,17.5 2.75,17.43 2.69,17.36 C1.71,16.18 1.78,14.42 2.88,13.32 L6.57,9.64 L7.63,8.58 L15.41,16.34 Z"/>
  <path fill="#292D32" d="M21.121,10.64 L15.411,16.34 L7.631,8.58 L13.341,2.88 C14.511,1.71 16.431,1.71 17.601,2.88 L21.121,6.39 C22.291,7.56 22.291,9.47 21.121,10.64 Z"/>
</svg>

