<svg xmlns="http://www.w3.org/2000/svg" width="24" height="24" viewBox="0 0 24 24">
  <defs/>
  <path d="M7.205,9.785 Q6.354,10.168 5.779,9.425 Q5.21,8.689 5.778,7.96 Q5.784,7.952 5.79,7.945 L10.787,1.838 Q11.267,1.245 11.99,1.245 Q12.713,1.245 13.191,1.835 L18.194,7.95 Q18.781,8.678 18.212,9.422 Q17.639,10.172 16.785,9.785 L12.012,7.664 Q11.996,7.657 11.975,7.665 L7.207,9.785 L7.205,9.785 Z M7.771,7.892 L11.365,6.295 Q12.01,6.018 12.628,6.296 L16.203,7.885 L12.03,2.785 Q11.997,2.745 11.99,2.745 Q11.983,2.745 11.953,2.782 L7.771,7.892 Z"/>
  <path d="M7.205,14.214 L11.985,16.334 Q12.006,16.344 12.023,16.336 L16.806,14.214 Q17.659,13.829 18.233,14.578 Q18.801,15.322 18.215,16.05 L13.211,22.165 Q12.733,22.755 12.01,22.755 Q11.288,22.755 10.808,22.162 L5.81,16.055 Q5.21,15.335 5.771,14.585 Q6.335,13.83 7.204,14.214 Z M7.802,16.12 L11.973,21.218 Q12.003,21.255 12.01,21.255 Q12.018,21.255 12.05,21.215 L16.225,16.113 L12.638,17.704 Q12.021,17.982 11.376,17.706 L7.802,16.12 Z"/>
  <path d="M15.576,12.007 L12,10.218 L8.437,12 L12,13.781 L12.464,13.549 Q12.742,13.41 13.037,13.508 Q13.332,13.607 13.471,13.884 Q13.609,14.162 13.511,14.457 Q13.413,14.752 13.135,14.891 L12.335,15.291 Q12,15.458 11.664,15.291 L6.424,12.671 Q6.201,12.559 6.089,12.335 Q5.95,12.057 6.048,11.763 Q6.146,11.468 6.424,11.329 L11.664,8.709 Q12,8.541 12.335,8.709 L17.575,11.329 Q17.797,11.44 17.909,11.662 Q18.049,11.94 17.952,12.235 Q17.855,12.53 17.577,12.67 L16.347,13.29 Q16.07,13.429 15.775,13.332 Q15.48,13.235 15.34,12.958 Q15.2,12.68 15.298,12.385 Q15.377,12.144 15.576,12.007 Z"/>
</svg>

