<svg xmlns="http://www.w3.org/2000/svg" width="24" height="24" viewBox="0 0 24 24">
  <defs/>
  <path fill="white" d="M24,0 L0,0 L0,24 L24,24 L24,0 Z"/>
  <path fill="#292D32" opacity="0.4" d="M17.5,11.49 C17.39,11.58 17.28,11.65 17.15,11.71 L16.06,12.26 L12.99,13.79 C12.44,14.07 11.55,14.07 11.01,13.79 L7.94,12.26 L6.85,11.71 C6.73,11.64 6.62,11.58 6.5,11.49 C5.44,10.75 5.25,9.4 6.1,8.33 L10.27,3.13 C10.53,2.81 10.84,2.57 11.16,2.43 C11.7,2.17 12.3,2.17 12.83,2.43 C13.15,2.57 13.47,2.81 13.72,3.13 L17.89,8.33 C18.75,9.41 18.56,10.76 17.5,11.49 Z"/>
  <path fill="#292D32" d="M17.5,11.49 C17.39,11.58 17.28,11.65 17.15,11.71 L16.06,12.26 L12,9.21 L7.94,12.27 L6.85,11.72 C6.73,11.65 6.62,11.59 6.5,11.5 C6.54,11.31 6.64,11.14 6.81,11.02 L11.16,7.75 L11.16,2.44 C11.7,2.18 12.3,2.18 12.83,2.44 L12.83,7.75 L17.18,11.02 C17.35,11.14 17.45,11.3 17.5,11.49 Z"/>
  <path fill="#292D32" d="M8.77,14.43 L10.38,15.15 C11.41,15.61 12.59,15.61 13.63,15.15 L15.24,14.43 C16.68,13.79 18.01,15.53 17.01,16.75 L13.55,20.98 C12.7,22.02 11.31,22.02 10.45,20.98 L7,16.75 C5.99,15.53 7.32,13.79 8.77,14.43 Z"/>
</svg>

