<svg xmlns="http://www.w3.org/2000/svg" width="24" height="24" viewBox="0 0 24 24">
  <defs/>
  <path d="M17.28,9.89 C17.12,9.89 16.95,9.86 16.79,9.79 L12.02,7.67 L7.2,9.79 C6.7,10.01 6.11,9.87 5.77,9.43 C5.43,8.99 5.44,8.38 5.8,7.96 L10.8,1.85 C11.41,1.1 12.59,1.1 13.21,1.85 L18.21,7.96 C18.56,8.39 18.57,8.99 18.24,9.43 C17.99,9.72 17.64,9.89 17.28,9.89 Z M12,6.16 C12.21,6.16 12.43,6.2 12.63,6.29 L16.21,7.88 L12.04,2.79 L7.81,7.87 L11.37,6.29 C11.57,6.2 11.78,6.16 12,6.16 Z"/>
  <path d="M11.999,22.75 C11.54,22.75 11.1,22.54 10.8,22.16 L5.8,16.05 C5.449,15.62 5.44,15.02 5.77,14.58 C6.11,14.14 6.69,13.99 7.2,14.21 L11.979,16.33 L16.799,14.21 C17.309,13.99 17.89,14.14 18.23,14.58 C18.559,15.02 18.549,15.62 18.2,16.05 L13.2,22.16 C12.899,22.54 12.46,22.75 11.999,22.75 Z M7.789,16.12 L11.95,21.21 L16.18,16.13 L12.63,17.71 C12.229,17.89 11.77,17.89 11.37,17.71 L7.789,16.12 Z"/>
  <path d="M12,15.37 C11.88,15.37 11.77,15.34 11.67,15.29 L6.42,12.67 C6.17,12.54 6,12.28 6,12 C6,11.72 6.16,11.46 6.42,11.33 L11.67,8.71 C11.88,8.6 12.13,8.6 12.34,8.71 L17.59,11.33 C17.84,11.46 18.01,11.72 18.01,12 C18.01,12.28 17.85,12.54 17.59,12.67 L12.34,15.29 C12.23,15.35 12.12,15.37 12,15.37 Z M8.43,12 L12,13.78 L15.57,12 L12,10.22 L8.43,12 Z"/>
</svg>

