<svg xmlns="http://www.w3.org/2000/svg" width="24" height="24" viewBox="0 0 24 24">
  <defs/>
  <path d="M8.77,14.43 L10.38,15.15 C11.41,15.61 12.59,15.61 13.63,15.15 L15.24,14.43 C16.68,13.79 18.01,15.53 17.01,16.75 L13.55,20.98 C12.7,22.02 11.31,22.02 10.45,20.98 L7,16.75 C5.99,15.53 7.32,13.79 8.77,14.43 Z"/>
  <path d="M8.569,11.672 C8.269,11.892 8.309,12.352 8.649,12.522 L10.999,13.692 C11.549,13.972 12.439,13.972 12.979,13.692 L15.329,12.522 C15.659,12.352 15.699,11.902 15.409,11.672 L12.299,9.332 C12.119,9.202 11.879,9.202 11.699,9.332 L8.569,11.672 Z"/>
  <path d="M17.88,8.241 L13.71,3.041 C13.63,2.941 13.54,2.851 13.45,2.761 C13.19,2.511 12.82,2.741 12.82,3.101 L12.82,7.401 C12.82,7.561 12.89,7.711 13.02,7.801 L17.17,10.921 L17.35,11.051 C17.53,11.181 17.78,11.181 17.93,11.021 C18.63,10.261 18.62,9.161 17.88,8.241 Z"/>
  <path d="M6.11,8.331 L10.26,3.051 C10.34,2.951 10.42,2.861 10.51,2.771 C10.77,2.521 11.14,2.741 11.14,3.111 L11.14,7.481 C11.14,7.641 11.07,7.781 10.94,7.881 L6.81,11.051 L6.64,11.181 C6.46,11.311 6.21,11.311 6.05,11.141 C5.37,10.371 5.38,9.271 6.11,8.331 Z"/>
</svg>

