<svg xmlns="http://www.w3.org/2000/svg" width="24" height="24" viewBox="0 0 24 24">
  <defs/>
  <path fill="white" d="M24,0 L0,0 L0,24 L24,24 L24,0 Z"/>
  <path fill="#292D32" opacity="0.4" d="M6.9,9.1 L11.67,6.98 C11.88,6.89 12.12,6.89 12.32,6.98 L17.1,9.1 C17.52,9.29 17.91,8.78 17.62,8.42 L12.62,2.31 C12.28,1.89 11.72,1.89 11.38,2.31 L6.38,8.42 C6.09,8.78 6.48,9.29 6.9,9.1 Z"/>
  <path fill="#292D32" opacity="0.4" d="M6.9,14.9 L11.68,17.02 C11.89,17.11 12.13,17.11 12.33,17.02 L17.11,14.9 C17.53,14.71 17.92,15.22 17.63,15.58 L12.63,21.69 C12.29,22.11 11.73,22.11 11.39,21.69 L6.39,15.58 C6.09,15.22 6.47,14.71 6.9,14.9 Z"/>
  <path fill="#292D32" d="M11.78,9.49 L7.65,11.55 C7.28,11.73 7.28,12.26 7.65,12.44 L11.78,14.5 C11.92,14.57 12.09,14.57 12.23,14.5 L16.36,12.44 C16.73,12.26 16.73,11.73 16.36,11.55 L12.23,9.49 C12.08,9.42 11.92,9.42 11.78,9.49 Z"/>
</svg>

