<svg xmlns="http://www.w3.org/2000/svg" width="24" height="24" viewBox="0 0 24 24">
  <defs/>
  <path d="M9.863,2.584 Q9.864,2.582 9.865,2.581 Q10.727,1.498 12,1.498 Q13.275,1.498 14.136,2.581 L17.863,7.238 Q18.727,8.305 18.456,9.546 Q18.185,10.781 16.957,11.401 L13.22,13.274 Q12,13.871 10.774,13.271 L7.047,11.402 Q5.817,10.792 5.545,9.553 Q5.274,8.315 6.135,7.241 Z M11.036,3.519 L7.306,8.179 Q6.893,8.694 7.011,9.232 Q7.128,9.768 7.714,10.058 L11.447,11.93 Q12,12.201 12.56,11.927 L16.284,10.06 Q16.872,9.763 16.99,9.225 Q17.108,8.689 16.697,8.182 L12.965,3.519 Q12.551,2.998 12,2.998 Q11.45,2.998 11.038,3.517 Z"/>
  <path d="M12.75,2.3 L12.75,7.56 Q12.75,7.87 12.53,8.09 Q12.311,8.31 12,8.31 Q11.689,8.31 11.47,8.09 Q11.25,7.87 11.25,7.56 L11.25,2.3 Q11.25,1.989 11.47,1.769 Q11.689,1.55 12,1.55 Q12.311,1.55 12.53,1.769 Q12.75,1.989 12.75,2.3 Z"/>
  <path d="M7.35,10.11 L11.55,6.96 Q12,6.623 12.45,6.96 L16.65,10.11 Q16.898,10.296 16.942,10.604 Q16.986,10.912 16.8,11.16 Q16.613,11.409 16.306,11.453 Q15.998,11.496 15.75,11.31 L12,8.498 L8.25,11.31 Q8.001,11.496 7.694,11.453 Q7.386,11.409 7.2,11.16 Q7.013,10.912 7.057,10.604 Q7.101,10.296 7.35,10.11 Z"/>
  <path opacity="0.4" d="M9.076,13.745 L10.686,14.465 Q11.999,15.052 13.327,14.464 L14.934,13.745 Q16.557,13.024 17.636,14.437 Q18.716,15.852 17.59,17.226 L14.131,21.455 Q13.268,22.51 12.004,22.51 Q10.742,22.51 9.872,21.458 L6.419,17.224 Q5.285,15.854 6.367,14.437 Q7.445,13.025 9.073,13.744 Z M8.467,15.116 Q8.466,15.116 8.464,15.115 Q7.919,14.876 7.559,15.348 Q7.201,15.816 7.581,16.276 L11.028,20.502 Q11.448,21.01 12.004,21.01 Q12.557,21.01 12.97,20.505 L16.43,16.275 Q16.804,15.819 16.444,15.348 Q16.084,14.876 15.546,15.115 L13.933,15.836 Q11.996,16.693 10.074,15.835 Z"/>
</svg>

