<svg xmlns="http://www.w3.org/2000/svg" width="24" height="24" viewBox="0 0 24 24">
  <defs/>
  <path d="M6.9,9.101 L11.67,6.981 C11.88,6.891 12.12,6.891 12.32,6.981 L17.09,9.101 C17.51,9.291 17.9,8.781 17.61,8.421 L12.61,2.311 C12.27,1.891 11.71,1.891 11.37,2.311 L6.37,8.421 C6.09,8.781 6.48,9.291 6.9,9.101 Z"/>
  <path d="M6.901,14.9 L11.681,17.02 C11.89,17.11 12.13,17.11 12.331,17.02 L17.11,14.9 C17.53,14.71 17.921,15.22 17.631,15.581 L12.63,21.691 C12.29,22.11 11.73,22.11 11.39,21.691 L6.391,15.581 C6.091,15.22 6.471,14.71 6.901,14.9 Z"/>
  <path d="M11.781,9.49 L7.651,11.55 C7.281,11.73 7.281,12.26 7.651,12.44 L11.781,14.5 C11.921,14.57 12.091,14.57 12.23,14.5 L16.36,12.44 C16.73,12.26 16.73,11.73 16.36,11.55 L12.23,9.49 C12.081,9.42 11.921,9.42 11.781,9.49 Z"/>
</svg>

