<svg xmlns="http://www.w3.org/2000/svg" width="24" height="24" viewBox="0 0 24 24">
  <defs/>
  <path d="M7.205,9.785 Q6.354,10.168 5.779,9.425 Q5.21,8.689 5.778,7.96 Q5.784,7.952 5.79,7.945 L10.787,1.838 Q11.267,1.245 11.99,1.245 Q12.713,1.245 13.191,1.835 L18.194,7.95 Q18.781,8.678 18.212,9.422 Q17.639,10.172 16.785,9.785 L12.012,7.664 Q11.996,7.657 11.975,7.665 L7.207,9.785 L7.205,9.785 Z M7.771,7.892 L11.365,6.295 Q12.01,6.018 12.628,6.296 L16.203,7.885 L12.03,2.785 Q11.997,2.745 11.99,2.745 Q11.983,2.745 11.953,2.782 L7.771,7.892 Z"/>
  <path d="M7.204,14.214 L11.984,16.334 Q12.005,16.344 12.022,16.336 L16.805,14.214 Q17.658,13.829 18.232,14.578 Q18.801,15.322 18.214,16.05 L13.21,22.165 Q12.732,22.755 12.01,22.755 Q11.287,22.755 10.807,22.162 L5.809,16.055 Q5.209,15.335 5.77,14.585 Q6.334,13.83 7.203,14.214 Z M7.801,16.12 L11.973,21.218 Q12.002,21.255 12.01,21.255 Q12.017,21.255 12.049,21.215 L16.224,16.113 L12.637,17.704 Q12.02,17.982 11.375,17.706 L7.801,16.12 Z"/>
  <path opacity="0.4" d="M11.664,8.709 Q12,8.541 12.335,8.709 L17.575,11.329 Q17.799,11.441 17.911,11.664 Q18.049,11.942 17.951,12.237 Q17.853,12.532 17.575,12.671 L12.335,15.291 Q12,15.458 11.664,15.291 L6.424,12.671 Q6.201,12.559 6.089,12.335 Q5.95,12.057 6.048,11.763 Q6.146,11.468 6.424,11.329 Z M12,10.218 L8.437,12 L12,13.781 L15.563,12 L12,10.218 Z"/>
</svg>

