<svg xmlns="http://www.w3.org/2000/svg" width="24" height="24" viewBox="0 0 24 24">
  <defs/>
  <path fill="#17191C" d="M7.216,9.78 Q6.325,10.214 5.776,9.391 Q5.256,8.61 5.941,7.899 L10.911,1.835 Q11.359,1.25 12.1,1.25 Q12.841,1.25 13.289,1.835 L18.28,7.925 Q18.29,7.937 18.3,7.95 Q18.86,8.696 18.313,9.425 Q17.736,10.194 16.884,9.78 L12.131,7.701 Q12.037,7.67 12.036,7.671 Q12.018,7.679 12.001,7.687 L7.216,9.78 Z M7.94,7.826 L11.385,6.319 Q11.936,6.055 12.637,6.288 Q12.67,6.299 12.701,6.313 L16.316,7.895 L12.12,2.775 Q12.11,2.763 12.1,2.75 Q12.09,2.763 12.08,2.775 L7.94,7.826 Z"/>
  <path fill="#17191C" d="M7.216,14.22 L12.001,16.313 Q12.018,16.321 12.036,16.329 Q12.037,16.33 12.131,16.299 L16.884,14.22 Q17.736,13.806 18.313,14.575 Q18.86,15.304 18.3,16.05 Q18.29,16.063 18.28,16.075 L13.289,22.165 Q12.841,22.75 12.1,22.75 Q11.359,22.75 10.911,22.165 L5.941,16.101 Q5.256,15.39 5.776,14.609 Q6.325,13.786 7.216,14.22 Z M7.94,16.174 L12.08,21.225 Q12.09,21.237 12.1,21.25 Q12.11,21.237 12.12,21.225 L16.316,16.105 L12.701,17.687 Q12.67,17.701 12.637,17.712 Q11.936,17.945 11.385,17.681 L7.94,16.174 Z"/>
  <path fill="#17191C" d="M11.664,8.729 Q12,8.561 12.335,8.729 L17.535,11.329 Q17.759,11.441 17.871,11.664 Q18.01,11.942 17.911,12.237 Q17.813,12.532 17.535,12.671 L12.335,15.271 Q12,15.438 11.664,15.271 L6.464,12.671 Q6.241,12.559 6.129,12.335 Q5.99,12.057 6.088,11.763 Q6.187,11.468 6.464,11.329 Z M12,10.238 L8.477,12 L12,13.761 L15.523,12 L12,10.238 Z"/>
</svg>

