<svg xmlns="http://www.w3.org/2000/svg" width="24" height="24" viewBox="0 0 24 24">
  <defs/>
  <path d="M12,13.53 C11.56,13.53 11.12,13.44 10.77,13.27 L7.04,11.4 C6.26,11.01 5.71,10.33 5.54,9.55 C5.37,8.76 5.58,7.92 6.13,7.24 L9.86,2.58 C10.41,1.89 11.19,1.5 12,1.5 C12.81,1.5 13.59,1.89 14.14,2.58 L17.87,7.25 C18.42,7.93 18.63,8.77 18.46,9.56 C18.29,10.35 17.74,11.02 16.96,11.41 L13.23,13.28 C12.88,13.45 12.44,13.53 12,13.53 Z M11.03,3.52 L7.3,8.18 C7.04,8.51 6.93,8.88 7.01,9.23 C7.09,9.58 7.34,9.87 7.72,10.06 L11.45,11.93 C11.73,12.07 12.28,12.07 12.56,11.93 L16.29,10.06 C16.67,9.87 16.92,9.57 17,9.23 C17.08,8.89 16.97,8.51 16.71,8.18 L12.98,3.52 C12.43,2.85 11.57,2.85 11.03,3.52 Z"/>
  <path d="M12,8.31 C11.59,8.31 11.25,7.97 11.25,7.56 L11.25,2.3 C11.25,1.89 11.59,1.55 12,1.55 C12.41,1.55 12.75,1.89 12.75,2.3 L12.75,7.56 C12.75,7.97 12.41,8.31 12,8.31 Z"/>
  <path d="M16.2,11.46 C16.04,11.46 15.89,11.41 15.75,11.31 L12,8.49 L8.25,11.31 C7.92,11.56 7.45,11.49 7.2,11.16 C6.95,10.83 7.02,10.36 7.35,10.11 L11.55,6.96 C11.82,6.76 12.18,6.76 12.45,6.96 L16.65,10.11 C16.98,10.36 17.05,10.83 16.8,11.16 C16.66,11.36 16.43,11.46 16.2,11.46 Z"/>
  <path d="M12,22.5 C11.2,22.5 10.42,22.12 9.87,21.44 L6.41,17.21 C5.74,16.39 5.72,15.27 6.36,14.42 C7,13.57 8.09,13.3 9.06,13.73 L10.67,14.45 C11.51,14.82 12.47,14.82 13.31,14.45 L14.92,13.73 C15.89,13.3 16.98,13.58 17.62,14.42 C18.27,15.27 18.25,16.39 17.57,17.21 L14.11,21.44 C13.58,22.12 12.8,22.5 12,22.5 Z M8.14,15.04 C7.83,15.04 7.63,15.26 7.56,15.34 C7.48,15.45 7.23,15.84 7.58,16.27 L11.04,20.5 C11.57,21.15 12.44,21.15 12.97,20.5 L16.43,16.27 C16.78,15.84 16.53,15.45 16.45,15.34 C16.37,15.23 16.05,14.89 15.55,15.11 L13.94,15.83 C12.71,16.37 11.31,16.37 10.08,15.83 L8.47,15.11 C8.34,15.06 8.23,15.04 8.14,15.04 Z"/>
</svg>

