<svg xmlns="http://www.w3.org/2000/svg" width="24" height="24" viewBox="0 0 24 24">
  <defs/>
  <path fill="#292D32" d="M18.025,18.564 Q15.628,20.75 12,20.75 Q8.028,20.75 5.581,18.174 Q3.25,15.72 3.25,12 Q3.25,11.689 3.47,11.47 Q3.689,11.25 4,11.25 Q4.311,11.25 4.53,11.47 Q4.75,11.689 4.75,12 Q4.75,15.121 6.669,17.141 Q8.672,19.25 12,19.25 Q15.047,19.25 17.015,17.456 Q17.244,17.246 17.555,17.261 Q17.865,17.275 18.074,17.505 Q18.284,17.734 18.269,18.045 Q18.255,18.355 18.025,18.564 Z"/>
  <path fill="#292D32" d="M20.75,12 Q20.75,13.688 20.218,15.216 Q20.116,15.51 19.836,15.645 Q19.557,15.78 19.263,15.678 Q18.97,15.576 18.835,15.297 Q18.699,15.017 18.801,14.724 Q19.25,13.435 19.25,12 Q19.25,11.689 19.469,11.47 Q19.689,11.25 20,11.25 Q20.31,11.25 20.53,11.47 Q20.75,11.689 20.75,12 Z"/>
  <path fill="#292D32" d="M8.909,5.94 L11.469,3.38 Q11.689,3.16 12,3.16 Q12.31,3.16 12.53,3.38 L15.09,5.94 Q15.309,6.159 15.309,6.47 Q15.309,6.781 15.09,7 Q14.87,7.22 14.559,7.22 Q14.249,7.22 14.029,7 L11.999,4.971 L9.97,7 Q9.75,7.22 9.439,7.22 Q9.129,7.22 8.909,7 Q8.689,6.781 8.689,6.47 Q8.689,6.159 8.909,5.94 Z"/>
  <path fill="#292D32" d="M11.25,9.15 L11.25,3.98 Q11.25,3.669 11.47,3.45 Q11.689,3.23 12,3.23 Q12.311,3.23 12.53,3.45 Q12.75,3.669 12.75,3.98 L12.75,9.15 Q12.75,9.461 12.53,9.68 Q12.311,9.9 12,9.9 Q11.689,9.9 11.47,9.68 Q11.25,9.461 11.25,9.15 Z"/>
  <path fill="#292D32" d="M11.25,14.15 L11.25,12.19 Q11.25,11.879 11.47,11.66 Q11.689,11.44 12,11.44 Q12.311,11.44 12.53,11.66 Q12.75,11.879 12.75,12.19 L12.75,14.15 Q12.75,14.461 12.53,14.68 Q12.311,14.9 12,14.9 Q11.689,14.9 11.47,14.68 Q11.25,14.461 11.25,14.15 Z"/>
</svg>

