<svg xmlns="http://www.w3.org/2000/svg" width="24" height="24" viewBox="0 0 24 24">
  <defs/>
  <path fill="#292D32" d="M12,2 C6.48,2 2,6.48 2,12 C2,17.52 6.48,22 12,22 C17.52,22 22,17.52 22,12 C22,6.48 17.52,2 12,2 Z M17.25,12.33 C17.25,12.74 16.91,13.08 16.5,13.08 C16.09,13.08 15.75,12.74 15.75,12.33 L15.75,9.31 L8.03,17.03 C7.88,17.18 7.69,17.25 7.5,17.25 C7.31,17.25 7.12,17.18 6.97,17.03 C6.68,16.74 6.68,16.26 6.97,15.97 L14.69,8.25 L11.67,8.25 C11.26,8.25 10.92,7.91 10.92,7.5 C10.92,7.09 11.26,6.75 11.67,6.75 L16.5,6.75 C16.91,6.75 17.25,7.09 17.25,7.5 L17.25,12.33 Z"/>
</svg>

