<svg xmlns="http://www.w3.org/2000/svg" width="24" height="24" viewBox="0 0 24 24">
  <defs/>
  <path fill="#292D32" d="M16.505,8.153 Q22.26,8.648 22.26,15.11 L22.26,15.24 Q22.26,22.25 15.25,22.25 L8.74,22.25 Q5.077,22.25 3.404,20.576 Q1.73,18.903 1.73,15.24 L1.73,15.11 Q1.73,8.692 7.401,8.163 Q7.71,8.134 7.949,8.333 Q8.188,8.531 8.217,8.84 Q8.246,9.15 8.048,9.389 Q7.849,9.628 7.54,9.657 Q3.23,10.058 3.23,15.11 L3.23,15.24 Q3.23,20.75 8.74,20.75 L15.25,20.75 Q20.76,20.75 20.76,15.24 L20.76,15.11 Q20.76,10.025 16.376,9.647 Q16.067,9.62 15.867,9.383 Q15.667,9.145 15.693,8.836 Q15.72,8.526 15.958,8.326 Q16.195,8.126 16.505,8.153 Z"/>
  <g opacity="0.4">
    <path fill="#292D32" d="M11.25,15 L11.25,3.62 Q11.25,3.309 11.47,3.09 Q11.689,2.87 12,2.87 Q12.311,2.87 12.53,3.09 Q12.75,3.309 12.75,3.62 L12.75,15 Q12.75,15.311 12.53,15.53 Q12.311,15.75 12,15.75 Q11.689,15.75 11.47,15.53 Q11.25,15.311 11.25,15 Z"/>
    <path fill="#292D32" d="M14.82,6.38 L12,3.561 L9.181,6.38 Q8.961,6.6 8.65,6.6 Q8.34,6.6 8.12,6.38 Q7.9,6.161 7.9,5.85 Q7.9,5.539 8.12,5.32 L11.47,1.97 Q11.69,1.75 12,1.75 Q12.311,1.75 12.531,1.97 L15.881,5.32 Q16.1,5.539 16.1,5.85 Q16.1,6.161 15.881,6.38 Q15.661,6.6 15.35,6.6 Q15.04,6.6 14.82,6.38 Z"/>
  </g>
</svg>

