<svg xmlns="http://www.w3.org/2000/svg" width="24" height="24" viewBox="0 0 24 24">
  <defs/>
  <path fill="#292D32" d="M15.261,22.25 L8.74,22.25 C3.83,22.25 1.73,20.15 1.73,15.24 L1.73,15.11 C1.73,10.67 3.48,8.53 7.4,8.16 C7.8,8.13 8.18,8.43 8.22,8.84 C8.26,9.25 7.96,9.62 7.54,9.66 C4.4,9.95 3.23,11.43 3.23,15.12 L3.23,15.25 C3.23,19.32 4.67,20.76 8.74,20.76 L15.261,20.76 C19.331,20.76 20.77,19.32 20.77,15.25 L20.77,15.12 C20.77,11.41 19.581,9.93 16.381,9.66 C15.97,9.62 15.661,9.26 15.7,8.85 C15.741,8.44 16.09,8.13 16.511,8.17 C20.491,8.51 22.27,10.66 22.27,15.13 L22.27,15.26 C22.27,20.15 20.171,22.25 15.261,22.25 Z"/>
  <path fill="#292D32" d="M12,15.75 C11.59,15.75 11.25,15.41 11.25,15 L11.25,3.62 C11.25,3.21 11.59,2.87 12,2.87 C12.41,2.87 12.75,3.21 12.75,3.62 L12.75,15 C12.75,15.41 12.41,15.75 12,15.75 Z"/>
  <path fill="#292D32" d="M15.35,6.6 C15.16,6.6 14.97,6.53 14.82,6.38 L12,3.56 L9.18,6.38 C8.89,6.67 8.41,6.67 8.12,6.38 C7.83,6.09 7.83,5.61 8.12,5.32 L11.47,1.97 C11.76,1.68 12.24,1.68 12.53,1.97 L15.88,5.32 C16.17,5.61 16.17,6.09 15.88,6.38 C15.74,6.53 15.54,6.6 15.35,6.6 Z"/>
</svg>

