<svg xmlns="http://www.w3.org/2000/svg" width="24" height="24" viewBox="0 0 24 24">
  <defs/>
  <path fill="#292D32" d="M21.14,9.898 L12.75,9.898 L12.75,15.378 C12.75,15.788 12.41,16.128 12,16.128 C11.59,16.128 11.25,15.788 11.25,15.378 L11.25,9.898 L2.86,9.898 C2.38,9.898 2,10.278 2,10.758 C2,16.648 6.11,20.758 12,20.758 C17.89,20.758 22,16.648 22,10.758 C22,10.278 21.62,9.898 21.14,9.898 Z"/>
  <path fill="#292D32" d="M12.748,5.8 L14.308,7.36 C14.598,7.65 15.078,7.65 15.368,7.36 C15.658,7.07 15.658,6.59 15.368,6.3 L12.518,3.46 C12.228,3.17 11.748,3.17 11.458,3.46 L8.618,6.31 C8.478,6.46 8.398,6.65 8.398,6.84 C8.398,7.03 8.468,7.22 8.618,7.37 C8.908,7.66 9.388,7.66 9.678,7.37 L11.238,5.81 L11.238,9.9 L12.738,9.9 L12.738,5.8 L12.748,5.8 Z"/>
</svg>

