<svg xmlns="http://www.w3.org/2000/svg" width="24" height="24" viewBox="0 0 24 24">
  <defs/>
  <path fill="#292D32" d="M12,22.75 C6.07,22.75 1.25,17.93 1.25,12 C1.25,6.07 6.07,1.25 12,1.25 C12.41,1.25 12.75,1.59 12.75,2 C12.75,2.41 12.41,2.75 12,2.75 C6.9,2.75 2.75,6.9 2.75,12 C2.75,17.1 6.9,21.25 12,21.25 C17.1,21.25 21.25,17.1 21.25,12 C21.25,11.59 21.59,11.25 22,11.25 C22.41,11.25 22.75,11.59 22.75,12 C22.75,17.93 17.93,22.75 12,22.75 Z"/>
  <path fill="#292D32" d="M12.999,11.75 C12.809,11.75 12.62,11.68 12.47,11.53 C12.18,11.24 12.18,10.76 12.47,10.47 L20.669,2.27 C20.959,1.98 21.439,1.98 21.73,2.27 C22.02,2.56 22.02,3.04 21.73,3.33 L13.53,11.53 C13.38,11.68 13.19,11.75 12.999,11.75 Z"/>
  <path fill="#292D32" d="M22,7.58 C21.59,7.58 21.25,7.24 21.25,6.83 L21.25,2.75 L17.17,2.75 C16.76,2.75 16.42,2.41 16.42,2 C16.42,1.59 16.76,1.25 17.17,1.25 L22,1.25 C22.41,1.25 22.75,1.59 22.75,2 L22.75,6.83 C22.75,7.24 22.41,7.58 22,7.58 Z"/>
</svg>

