<svg xmlns="http://www.w3.org/2000/svg" width="24" height="24" viewBox="0 0 24 24">
  <defs/>
  <path fill="#292D32" opacity="0.4" d="M16.8,9 L7.2,9 C4,9 2,11 2,14.2 L2,16.79 C2,20 4,22 7.2,22 L16.79,22 C19.99,22 21.99,20 21.99,16.8 L21.99,14.2 C22,11 20,9 16.8,9 Z"/>
  <path fill="#292D32" d="M15.88,5.57 L12.53,2.22 C12.24,1.93 11.76,1.93 11.47,2.22 L8.12,5.57 C7.83,5.86 7.83,6.34 8.12,6.63 C8.41,6.92 8.89,6.92 9.18,6.63 L11.25,4.56 L11.25,15.25 C11.25,15.66 11.59,16 12,16 C12.41,16 12.75,15.66 12.75,15.25 L12.75,4.56 L14.82,6.63 C14.97,6.78 15.16,6.85 15.35,6.85 C15.54,6.85 15.73,6.78 15.88,6.63 C16.18,6.34 16.18,5.87 15.88,5.57 Z"/>
</svg>

