<svg xmlns="http://www.w3.org/2000/svg" width="24" height="24" viewBox="0 0 24 24">
  <defs/>
  <path fill="#292D32" opacity="0.4" d="M12,22 C17.523,22 22,17.523 22,12 C22,6.477 17.523,2 12,2 C6.477,2 2,6.477 2,12 C2,17.523 6.477,22 12,22 Z"/>
  <path fill="#292D32" d="M16.747,7 L11.918,7 C11.508,7 11.168,7.34 11.168,7.75 C11.168,8.16 11.508,8.5 11.918,8.5 L14.938,8.5 L7.218,16.22 C6.928,16.51 6.928,16.99 7.218,17.28 C7.367,17.43 7.558,17.5 7.747,17.5 C7.938,17.5 8.127,17.43 8.277,17.28 L15.998,9.56 L15.998,12.58 C15.998,12.99 16.337,13.33 16.747,13.33 C17.157,13.33 17.497,12.99 17.497,12.58 L17.497,7.75 C17.497,7.34 17.157,7 16.747,7 Z"/>
</svg>

