<svg xmlns="http://www.w3.org/2000/svg" width="24" height="24" viewBox="0 0 24 24">
  <defs/>
  <path fill="#292D32" opacity="0.4" d="M22,10.76 C22,10.29 21.62,9.9 21.14,9.9 L2.86,9.9 C2.38,9.9 2,10.28 2,10.76 C2,16.65 6.11,20.76 12,20.76 C17.89,20.76 22,16.64 22,10.76 Z"/>
  <path fill="#292D32" d="M12.53,3.46 L15.38,6.3 C15.67,6.59 15.67,7.07 15.38,7.36 C15.09,7.65 14.61,7.65 14.32,7.36 L12.75,5.8 L12.75,15.37 C12.75,15.78 12.41,16.12 12,16.12 C11.59,16.12 11.25,15.78 11.25,15.37 L11.25,5.8 L9.69,7.37 C9.4,7.66 8.92,7.66 8.63,7.37 C8.48,7.22 8.4,7.03 8.4,6.84 C8.4,6.65 8.47,6.46 8.62,6.31 L11.47,3.47 C11.76,3.17 12.24,3.17 12.53,3.46 Z"/>
</svg>

