<svg xmlns="http://www.w3.org/2000/svg" width="24" height="24" viewBox="0 0 24 24">
  <defs/>
  <path fill="#292D32" d="M12.999,11.75 C12.809,11.75 12.62,11.68 12.47,11.53 C12.18,11.24 12.18,10.76 12.47,10.47 L20.669,2.27 C20.959,1.98 21.439,1.98 21.73,2.27 C22.02,2.56 22.02,3.04 21.73,3.33 L13.53,11.53 C13.38,11.68 13.19,11.75 12.999,11.75 Z"/>
  <path fill="#292D32" d="M21.999,7.55 C21.589,7.55 21.249,7.21 21.249,6.8 L21.249,2.75 L17.199,2.75 C16.789,2.75 16.449,2.41 16.449,2 C16.449,1.59 16.789,1.25 17.199,1.25 L21.999,1.25 C22.409,1.25 22.749,1.59 22.749,2 L22.749,6.8 C22.749,7.21 22.409,7.55 21.999,7.55 Z"/>
  <path fill="#292D32" d="M15,22.75 L9,22.75 C3.57,22.75 1.25,20.43 1.25,15 L1.25,9 C1.25,3.57 3.57,1.25 9,1.25 L11,1.25 C11.41,1.25 11.75,1.59 11.75,2 C11.75,2.41 11.41,2.75 11,2.75 L9,2.75 C4.39,2.75 2.75,4.39 2.75,9 L2.75,15 C2.75,19.61 4.39,21.25 9,21.25 L15,21.25 C19.61,21.25 21.25,19.61 21.25,15 L21.25,13 C21.25,12.59 21.59,12.25 22,12.25 C22.41,12.25 22.75,12.59 22.75,13 L22.75,15 C22.75,20.43 20.43,22.75 15,22.75 Z"/>
</svg>

