<svg xmlns="http://www.w3.org/2000/svg" width="24" height="24" viewBox="0 0 24 24">
  <defs/>
  <path fill="#292D32" d="M12,2.75 Q8.171,2.75 5.46,5.46 Q2.75,8.171 2.75,12 Q2.75,15.829 5.46,18.54 Q8.171,21.25 12,21.25 Q15.829,21.25 18.54,18.54 Q21.25,15.829 21.25,12 Q21.25,11.689 21.47,11.47 Q21.689,11.25 22,11.25 Q22.311,11.25 22.53,11.47 Q22.75,11.689 22.75,12 Q22.75,16.451 19.6,19.6 Q16.451,22.75 12,22.75 Q7.549,22.75 4.4,19.6 Q1.25,16.451 1.25,12 Q1.25,7.549 4.4,4.4 Q7.549,1.25 12,1.25 Q12.311,1.25 12.53,1.47 Q12.75,1.689 12.75,2 Q12.75,2.311 12.53,2.53 Q12.311,2.75 12,2.75 Z"/>
  <path fill="#292D32" d="M12.47,10.47 L20.67,2.27 Q20.889,2.05 21.2,2.05 Q21.511,2.05 21.73,2.27 Q21.95,2.489 21.95,2.8 Q21.95,3.111 21.73,3.33 L13.53,11.53 Q13.311,11.75 13,11.75 Q12.689,11.75 12.47,11.53 Q12.25,11.311 12.25,11 Q12.25,10.689 12.47,10.47 Z"/>
  <path fill="#292D32" d="M21.25,6.83 L21.25,2.75 L17.17,2.75 Q16.859,2.75 16.64,2.53 Q16.42,2.311 16.42,2 Q16.42,1.689 16.64,1.47 Q16.859,1.25 17.17,1.25 L22,1.25 Q22.311,1.25 22.53,1.47 Q22.75,1.689 22.75,2 L22.75,6.83 Q22.75,7.141 22.53,7.36 Q22.311,7.58 22,7.58 Q21.689,7.58 21.47,7.36 Q21.25,7.141 21.25,6.83 Z"/>
</svg>

