<svg xmlns="http://www.w3.org/2000/svg" width="24" height="24" viewBox="0 0 24 24">
  <defs/>
  <g opacity="0.4">
    <path fill="#292D32" d="M8.79,5.97 L11.35,3.41 Q11.57,3.19 11.88,3.19 Q12.191,3.19 12.411,3.41 L14.971,5.97 Q15.19,6.19 15.19,6.5 Q15.19,6.811 14.971,7.031 Q14.751,7.25 14.44,7.25 Q14.13,7.25 13.91,7.031 L11.88,5.001 L9.851,7.031 Q9.631,7.25 9.32,7.25 Q9.01,7.25 8.79,7.031 Q8.57,6.811 8.57,6.5 Q8.57,6.19 8.79,5.97 Z"/>
    <path fill="#292D32" d="M11.131,14.18 L11.131,4.01 Q11.131,3.699 11.351,3.479 Q11.57,3.26 11.881,3.26 Q12.192,3.26 12.411,3.479 Q12.631,3.699 12.631,4.01 L12.631,14.18 Q12.631,14.49 12.411,14.71 Q12.192,14.93 11.881,14.93 Q11.57,14.93 11.351,14.71 Q11.131,14.49 11.131,14.18 Z"/>
  </g>
  <path fill="#292D32" d="M4.75,12 Q4.75,15.121 6.669,17.141 Q8.672,19.25 12,19.25 Q15.328,19.25 17.331,17.141 Q19.25,15.121 19.25,12 Q19.25,11.689 19.47,11.47 Q19.689,11.25 20,11.25 Q20.311,11.25 20.53,11.47 Q20.75,11.689 20.75,12 Q20.75,15.72 18.419,18.174 Q15.972,20.75 12,20.75 Q8.028,20.75 5.581,18.174 Q3.25,15.72 3.25,12 Q3.25,11.689 3.47,11.47 Q3.689,11.25 4,11.25 Q4.311,11.25 4.53,11.47 Q4.75,11.689 4.75,12 Z"/>
</svg>

