<svg xmlns="http://www.w3.org/2000/svg" width="24" height="24" viewBox="0 0 24 24">
  <defs/>
  <path fill="#292D32" d="M16.8,9 L12.75,9 L12.75,15.25 C12.75,15.66 12.41,16 12,16 C11.59,16 11.25,15.66 11.25,15.25 L11.25,9 L7.2,9 C4,9 2,11 2,14.2 L2,16.79 C2,20 4,22 7.2,22 L16.79,22 C19.99,22 21.99,20 21.99,16.8 L21.99,14.2 C22,11 20,9 16.8,9 Z"/>
  <path fill="#292D32" d="M12.75,4.561 L14.82,6.631 C14.97,6.781 15.16,6.851 15.35,6.851 C15.54,6.851 15.73,6.781 15.88,6.631 C16.17,6.341 16.17,5.861 15.88,5.571 L12.53,2.221 C12.24,1.931 11.76,1.931 11.47,2.221 L8.12,5.571 C7.83,5.861 7.83,6.341 8.12,6.631 C8.41,6.921 8.89,6.921 9.18,6.631 L11.25,4.561 L11.25,9.001 L12.75,9.001 L12.75,4.561 Z"/>
</svg>

