<svg xmlns="http://www.w3.org/2000/svg" width="24" height="24" viewBox="0 0 24 24">
  <defs/>
  <path fill="#292D32" d="M14.44,7.25 C14.25,7.25 14.06,7.18 13.91,7.03 L11.88,5 L9.85,7.03 C9.56,7.32 9.08,7.32 8.79,7.03 C8.5,6.74 8.5,6.26 8.79,5.97 L11.35,3.41 C11.64,3.12 12.12,3.12 12.41,3.41 L14.97,5.97 C15.26,6.26 15.26,6.74 14.97,7.03 C14.82,7.18 14.63,7.25 14.44,7.25 Z"/>
  <path fill="#292D32" d="M11.881,14.93 C11.471,14.93 11.131,14.59 11.131,14.18 L11.131,4.01 C11.131,3.6 11.471,3.26 11.881,3.26 C12.291,3.26 12.631,3.6 12.631,4.01 L12.631,14.18 C12.631,14.6 12.291,14.93 11.881,14.93 Z"/>
  <path fill="#292D32" d="M12,20.75 C6.85,20.75 3.25,17.15 3.25,12 C3.25,11.59 3.59,11.25 4,11.25 C4.41,11.25 4.75,11.59 4.75,12 C4.75,16.27 7.73,19.25 12,19.25 C16.27,19.25 19.25,16.27 19.25,12 C19.25,11.59 19.59,11.25 20,11.25 C20.41,11.25 20.75,11.59 20.75,12 C20.75,17.15 17.15,20.75 12,20.75 Z"/>
</svg>

