<svg xmlns="http://www.w3.org/2000/svg" width="24" height="24" viewBox="0 0 24 24">
  <defs/>
  <path fill="#292D32" d="M17,2 L8,2 C5.79,2 4,3.79 4,6 L4,13.25 C4,13.8 4.45,14.25 5,14.25 L20,14.25 C20.55,14.25 21,13.8 21,13.25 L21,6 C21,3.79 19.21,2 17,2 Z M8,12.75 L7,12.75 C6.59,12.75 6.25,12.41 6.25,12 C6.25,11.59 6.59,11.25 7,11.25 L8,11.25 C8.41,11.25 8.75,11.59 8.75,12 C8.75,12.41 8.41,12.75 8,12.75 Z M8,10.25 L7,10.25 C6.59,10.25 6.25,9.91 6.25,9.5 C6.25,9.09 6.59,8.75 7,8.75 L8,8.75 C8.41,8.75 8.75,9.09 8.75,9.5 C8.75,9.91 8.41,10.25 8,10.25 Z M8,7.75 L7,7.75 C6.59,7.75 6.25,7.41 6.25,7 C6.25,6.59 6.59,6.25 7,6.25 L8,6.25 C8.41,6.25 8.75,6.59 8.75,7 C8.75,7.41 8.41,7.75 8,7.75 Z"/>
  <path fill="#292D32" d="M4,16.75 L4,18 C4,20.21 5.79,22 8,22 L17,22 C19.21,22 21,20.21 21,18 L21,16.75 C21,16.2 20.55,15.75 20,15.75 L5,15.75 C4.45,15.75 4,16.2 4,16.75 Z M17.71,19.46 C17.52,19.64 17.26,19.75 17,19.75 C16.74,19.75 16.48,19.64 16.29,19.46 C16.11,19.27 16,19.01 16,18.75 C16,18.49 16.11,18.23 16.29,18.04 C16.66,17.67 17.33,17.67 17.71,18.04 C17.89,18.23 18,18.49 18,18.75 C18,19.01 17.89,19.27 17.71,19.46 Z"/>
</svg>

