<svg xmlns="http://www.w3.org/2000/svg" width="24" height="24" viewBox="0 0 24 24">
  <defs/>
  <path fill="#292D32" d="M16,22.75 L9,22.75 Q3.25,22.75 3.25,17 L3.25,7 Q3.25,1.25 9,1.25 L16,1.25 Q21.75,1.25 21.75,7 L21.75,17 Q21.75,22.75 16,22.75 Z M16,21.25 Q20.25,21.25 20.25,17 L20.25,7 Q20.25,2.75 16,2.75 L9,2.75 Q4.75,2.75 4.75,7 L4.75,17 Q4.75,21.25 9,21.25 Z"/>
  <path fill="#292D32" d="M4,14.25 L21,14.25 Q21.311,14.25 21.53,14.47 Q21.75,14.689 21.75,15 Q21.75,15.311 21.53,15.53 Q21.311,15.75 21,15.75 L4,15.75 Q3.689,15.75 3.47,15.53 Q3.25,15.311 3.25,15 Q3.25,14.689 3.47,14.47 Q3.689,14.25 4,14.25 Z"/>
  <path fill="#292D32" d="M7,11.25 L8,11.25 Q8.311,11.25 8.53,11.47 Q8.75,11.689 8.75,12 Q8.75,12.311 8.53,12.53 Q8.311,12.75 8,12.75 L7,12.75 Q6.689,12.75 6.47,12.53 Q6.25,12.311 6.25,12 Q6.25,11.689 6.47,11.47 Q6.689,11.25 7,11.25 Z"/>
  <path fill="#292D32" d="M7,8.75 L8,8.75 Q8.311,8.75 8.53,8.97 Q8.75,9.189 8.75,9.5 Q8.75,9.811 8.53,10.03 Q8.311,10.25 8,10.25 L7,10.25 Q6.689,10.25 6.47,10.03 Q6.25,9.811 6.25,9.5 Q6.25,9.189 6.47,8.97 Q6.689,8.75 7,8.75 Z"/>
  <path fill="#292D32" d="M7,6.25 L8,6.25 Q8.311,6.25 8.53,6.47 Q8.75,6.689 8.75,7 Q8.75,7.311 8.53,7.53 Q8.311,7.75 8,7.75 L7,7.75 Q6.689,7.75 6.47,7.53 Q6.25,7.311 6.25,7 Q6.25,6.689 6.47,6.47 Q6.689,6.25 7,6.25 Z"/>
  <path fill="#292D32" d="M16.494,17.25 L16.503,17.25 Q16.918,17.25 17.211,17.543 Q17.503,17.836 17.503,18.25 Q17.503,18.664 17.211,18.957 Q16.918,19.25 16.503,19.25 L16.494,19.25 Q16.08,19.25 15.787,18.957 Q15.494,18.664 15.494,18.25 Q15.494,17.836 15.787,17.543 Q16.08,17.25 16.494,17.25 Z"/>
</svg>

