<svg xmlns="http://www.w3.org/2000/svg" width="24" height="24" viewBox="0 0 24 24">
  <defs/>
  <path fill="#292D32" d="M16,22.75 L9,22.75 C5.56,22.75 3.25,20.44 3.25,17 L3.25,7 C3.25,3.56 5.56,1.25 9,1.25 L16,1.25 C19.44,1.25 21.75,3.56 21.75,7 L21.75,17 C21.75,20.44 19.44,22.75 16,22.75 Z M9,2.75 C6.42,2.75 4.75,4.42 4.75,7 L4.75,17 C4.75,19.58 6.42,21.25 9,21.25 L16,21.25 C18.58,21.25 20.25,19.58 20.25,17 L20.25,7 C20.25,4.42 18.58,2.75 16,2.75 L9,2.75 Z"/>
  <path fill="#292D32" d="M21,15.75 L4,15.75 C3.59,15.75 3.25,15.41 3.25,15 C3.25,14.59 3.59,14.25 4,14.25 L21,14.25 C21.41,14.25 21.75,14.59 21.75,15 C21.75,15.41 21.41,15.75 21,15.75 Z"/>
  <path fill="#292D32" d="M8,12.75 L7,12.75 C6.59,12.75 6.25,12.41 6.25,12 C6.25,11.59 6.59,11.25 7,11.25 L8,11.25 C8.41,11.25 8.75,11.59 8.75,12 C8.75,12.41 8.41,12.75 8,12.75 Z"/>
  <path fill="#292D32" d="M8,10.25 L7,10.25 C6.59,10.25 6.25,9.91 6.25,9.5 C6.25,9.09 6.59,8.75 7,8.75 L8,8.75 C8.41,8.75 8.75,9.09 8.75,9.5 C8.75,9.91 8.41,10.25 8,10.25 Z"/>
  <path fill="#292D32" d="M8,7.75 L7,7.75 C6.59,7.75 6.25,7.41 6.25,7 C6.25,6.59 6.59,6.25 7,6.25 L8,6.25 C8.41,6.25 8.75,6.59 8.75,7 C8.75,7.41 8.41,7.75 8,7.75 Z"/>
  <path fill="#292D32" d="M17,19.5 C16.74,19.5 16.48,19.39 16.29,19.21 C16.11,19.02 16,18.76 16,18.5 C16,18.23 16.11,17.98 16.29,17.79 C16.57,17.51 17.01,17.42 17.38,17.58 C17.5,17.63 17.61,17.7 17.71,17.79 C17.89,17.98 18,18.24 18,18.5 C18,18.76 17.89,19.02 17.71,19.21 C17.61,19.3 17.51,19.37 17.38,19.42 C17.26,19.47 17.13,19.5 17,19.5 Z"/>
</svg>

