<svg xmlns="http://www.w3.org/2000/svg" width="24" height="24" viewBox="0 0 24 24">
  <defs/>
  <path fill="#292D32" opacity="0.4" d="M21.25,9.15 C20.76,8.37 20.2,7.67 19.62,7.04 L15.85,10.81 C15.97,11.18 16.04,11.58 16.04,12 C16.04,14.24 14.23,16.04 12,16.04 C11.58,16.04 11.18,15.97 10.81,15.85 L7.35,19.31 C8.81,20.13 10.39,20.56 12,20.56 C13.78,20.56 15.51,20.04 17.09,19.07 C18.67,18.09 20.09,16.66 21.25,14.84 C22.25,13.28 22.25,10.72 21.25,9.15 Z"/>
  <path fill="#292D32" d="M14.021,9.98 L9.981,14.02 C9.471,13.5 9.141,12.78 9.141,12 C9.141,10.43 10.421,9.14 12.001,9.14 C12.781,9.14 13.501,9.47 14.021,9.98 Z"/>
  <path fill="#292D32" opacity="0.4" d="M18.25,5.75 L14.86,9.14 C14.13,8.4 13.12,7.96 12,7.96 C9.76,7.96 7.96,9.77 7.96,12 C7.96,13.12 8.41,14.13 9.14,14.86 L5.76,18.25 L5.75,18.25 C4.64,17.35 3.62,16.2 2.75,14.84 C1.75,13.27 1.75,10.72 2.75,9.15 C3.91,7.33 5.33,5.9 6.91,4.92 C8.49,3.96 10.22,3.43 12,3.43 C14.23,3.43 16.39,4.25 18.25,5.75 Z"/>
  <path fill="#292D32" d="M14.86,12 C14.86,13.57 13.58,14.86 12,14.86 C11.94,14.86 11.89,14.86 11.83,14.84 L14.84,11.83 C14.86,11.89 14.86,11.94 14.86,12 Z"/>
  <path fill="#292D32" d="M21.771,2.23 C21.471,1.93 20.981,1.93 20.681,2.23 L2.231,20.69 C1.931,20.99 1.931,21.48 2.231,21.78 C2.381,21.92 2.571,22 2.771,22 C2.971,22 3.161,21.92 3.311,21.77 L21.771,3.31 C22.081,3.01 22.081,2.53 21.771,2.23 Z"/>
</svg>

