<svg xmlns="http://www.w3.org/2000/svg" width="24" height="24" viewBox="0 0 24 24">
  <defs/>
  <path fill="#292D32" d="M21.25,9.15 C18.94,5.52 15.56,3.43 12,3.43 C10.22,3.43 8.49,3.95 6.91,4.92 C5.33,5.9 3.91,7.33 2.75,9.15 C1.75,10.72 1.75,13.27 2.75,14.84 C5.06,18.48 8.44,20.56 12,20.56 C13.78,20.56 15.51,20.04 17.09,19.07 C18.67,18.09 20.09,16.66 21.25,14.84 C22.25,13.28 22.25,10.72 21.25,9.15 Z M12,16.04 C9.76,16.04 7.96,14.23 7.96,12 C7.96,9.77 9.76,7.96 12,7.96 C14.24,7.96 16.04,9.77 16.04,12 C16.04,14.23 14.24,16.04 12,16.04 Z"/>
  <path fill="#292D32" d="M11.998,9.141 C10.428,9.141 9.148,10.421 9.148,12.001 C9.148,13.571 10.428,14.851 11.998,14.851 C13.568,14.851 14.858,13.571 14.858,12.001 C14.858,10.431 13.568,9.141 11.998,9.141 Z"/>
</svg>

