<svg xmlns="http://www.w3.org/2000/svg" width="24" height="24" viewBox="0 0 24 24">
  <defs/>
  <path fill="#292D32" d="M15.06,10 L10,15.06 Q9.781,15.28 9.47,15.28 Q9.159,15.28 8.94,15.06 Q7.67,13.791 7.67,12 Q7.67,10.204 8.937,8.937 Q10.204,7.67 12,7.67 Q13.791,7.67 15.06,8.94 Q15.28,9.159 15.28,9.47 Q15.28,9.781 15.06,10 Z M13.403,9.536 Q12.776,9.17 12,9.17 Q9.17,9.17 9.17,12 Q9.17,12.776 9.536,13.403 L13.403,9.536 Z"/>
  <path fill="#292D32" d="M17.368,6.369 Q14.864,4.48 12,4.48 Q6.915,4.48 3.523,9.813 Q2.123,12.005 3.522,14.196 Q4.646,15.96 6.089,17.201 Q6.325,17.404 6.348,17.714 Q6.371,18.023 6.169,18.259 Q5.966,18.495 5.656,18.518 Q5.346,18.541 5.111,18.339 Q3.5,16.953 2.258,15.004 Q0.344,12.005 2.257,9.007 Q6.091,2.98 12,2.98 Q15.367,2.98 18.272,5.171 Q18.52,5.358 18.563,5.666 Q18.606,5.974 18.419,6.222 Q18.232,6.47 17.924,6.513 Q17.616,6.556 17.368,6.369 Z"/>
  <path fill="#292D32" d="M8.711,18.839 Q10.329,19.52 12,19.52 Q17.085,19.52 20.477,14.188 Q21.877,11.995 20.478,9.804 Q20.042,9.116 19.466,8.4 Q19.271,8.158 19.304,7.849 Q19.338,7.54 19.58,7.346 Q19.822,7.151 20.131,7.184 Q20.44,7.218 20.634,7.46 Q21.263,8.242 21.742,8.997 Q23.656,11.995 21.743,14.993 Q17.909,21.02 12,21.02 Q10.026,21.02 8.129,20.221 Q7.843,20.101 7.725,19.813 Q7.608,19.525 7.729,19.239 Q7.849,18.953 8.137,18.836 Q8.425,18.718 8.711,18.839 Z"/>
  <path fill="#292D32" d="M16.247,12.836 Q15.715,15.725 12.826,16.258 Q12.52,16.314 12.265,16.138 Q12.009,15.962 11.952,15.656 Q11.896,15.35 12.072,15.095 Q12.248,14.839 12.554,14.782 Q14.427,14.437 14.772,12.564 Q14.829,12.258 15.085,12.082 Q15.34,11.906 15.646,11.962 Q15.951,12.019 16.128,12.275 Q16.304,12.53 16.247,12.836 Z"/>
  <path fill="#292D32" d="M10,15.06 L2.53,22.53 Q2.311,22.75 2,22.75 Q1.689,22.75 1.47,22.53 Q1.25,22.311 1.25,22 Q1.25,21.689 1.47,21.47 L8.94,14 Q9.159,13.78 9.47,13.78 Q9.781,13.78 10,14 Q10.22,14.219 10.22,14.53 Q10.22,14.841 10,15.06 Z"/>
  <path fill="#292D32" d="M22.53,2.53 L15.06,10 Q14.841,10.22 14.53,10.22 Q14.219,10.22 14,10 Q13.78,9.781 13.78,9.47 Q13.78,9.159 14,8.94 L21.47,1.47 Q21.689,1.25 22,1.25 Q22.311,1.25 22.53,1.47 Q22.75,1.689 22.75,2 Q22.75,2.311 22.53,2.53 Z"/>
</svg>

