<svg xmlns="http://www.w3.org/2000/svg" width="24" height="24" viewBox="0 0 24 24">
  <defs/>
  <path fill="#292D32" d="M8.411,14.424 Q7.67,13.34 7.67,12 Q7.67,10.204 8.937,8.937 Q10.204,7.67 12,7.67 Q13.796,7.67 15.063,8.937 Q16.33,10.204 16.33,12 Q16.33,13.796 15.063,15.063 Q13.796,16.33 12,16.33 Q11.689,16.33 11.47,16.11 Q11.25,15.891 11.25,15.58 Q11.25,15.269 11.47,15.05 Q11.689,14.83 12,14.83 Q13.174,14.83 14.002,14.002 Q14.83,13.174 14.83,12 Q14.83,10.826 14.002,9.998 Q13.174,9.17 12,9.17 Q10.826,9.17 9.998,9.998 Q9.17,10.826 9.17,12 Q9.17,12.876 9.649,13.576 Q9.824,13.833 9.767,14.138 Q9.71,14.444 9.453,14.619 Q9.197,14.794 8.892,14.737 Q8.586,14.68 8.411,14.424 Z"/>
  <path fill="#292D32" d="M17.126,6.192 Q14.715,4.48 12,4.48 Q6.915,4.48 3.523,9.813 Q2.123,12.005 3.522,14.196 Q6.915,19.53 12,19.53 Q17.085,19.53 20.477,14.197 Q21.876,12.005 20.478,9.814 Q20.31,9.552 20.377,9.248 Q20.444,8.945 20.706,8.778 Q20.968,8.611 21.271,8.678 Q21.575,8.745 21.742,9.006 Q23.656,12.005 21.743,15.003 Q17.908,21.03 12,21.03 Q6.091,21.03 2.258,15.004 Q0.344,12.005 2.257,9.007 Q6.091,2.98 12,2.98 Q15.194,2.98 17.994,4.968 Q18.247,5.148 18.299,5.455 Q18.351,5.761 18.171,6.014 Q17.991,6.267 17.685,6.319 Q17.379,6.371 17.126,6.192 Z"/>
</svg>

