<svg xmlns="http://www.w3.org/2000/svg" width="24" height="24" viewBox="0 0 24 24">
  <defs/>
  <path fill="#292D32" d="M21.271,9.178 C20.981,8.718 20.671,8.288 20.351,7.888 C19.981,7.418 19.281,7.378 18.861,7.798 L15.861,10.798 C16.081,11.458 16.121,12.218 15.921,13.008 C15.571,14.418 14.431,15.558 13.021,15.908 C12.231,16.108 11.471,16.068 10.811,15.848 C10.811,15.848 9.381,17.278 8.351,18.308 C7.851,18.808 8.011,19.688 8.681,19.948 C9.751,20.358 10.861,20.568 12.001,20.568 C13.781,20.568 15.511,20.048 17.091,19.078 C18.701,18.078 20.151,16.608 21.321,14.738 C22.271,13.228 22.221,10.688 21.271,9.178 Z"/>
  <path fill="#292D32" d="M14.021,9.981 L9.981,14.021 C9.471,13.501 9.141,12.781 9.141,12.001 C9.141,10.431 10.421,9.141 12.001,9.141 C12.781,9.141 13.501,9.471 14.021,9.981 Z"/>
  <path fill="#292D32" d="M18.25,5.75 L14.86,9.14 C14.13,8.4 13.12,7.96 12,7.96 C9.76,7.96 7.96,9.77 7.96,12 C7.96,13.12 8.41,14.13 9.14,14.86 L5.76,18.25 L5.75,18.25 C4.64,17.35 3.62,16.2 2.75,14.84 C1.75,13.27 1.75,10.72 2.75,9.15 C3.91,7.33 5.33,5.9 6.91,4.92 C8.49,3.96 10.22,3.43 12,3.43 C14.23,3.43 16.39,4.25 18.25,5.75 Z"/>
  <path fill="#292D32" d="M14.858,11.998 C14.858,13.568 13.578,14.858 11.998,14.858 C11.938,14.858 11.888,14.858 11.828,14.838 L14.838,11.828 C14.858,11.888 14.858,11.938 14.858,11.998 Z"/>
  <path fill="#292D32" d="M21.769,2.229 C21.469,1.929 20.979,1.929 20.679,2.229 L2.229,20.689 C1.929,20.989 1.929,21.479 2.229,21.779 C2.379,21.919 2.569,21.999 2.769,21.999 C2.969,21.999 3.159,21.919 3.309,21.769 L21.769,3.309 C22.079,3.009 22.079,2.529 21.769,2.229 Z"/>
</svg>

