<svg xmlns="http://www.w3.org/2000/svg" width="24" height="24" viewBox="0 0 24 24">
  <defs/>
  <path fill="#292D32" d="M12,16.33 C9.61,16.33 7.67,14.39 7.67,12 C7.67,9.61 9.61,7.67 12,7.67 C14.39,7.67 16.33,9.61 16.33,12 C16.33,14.39 14.39,16.33 12,16.33 Z M12,9.17 C10.44,9.17 9.17,10.44 9.17,12 C9.17,13.56 10.44,14.83 12,14.83 C13.56,14.83 14.83,13.56 14.83,12 C14.83,10.44 13.56,9.17 12,9.17 Z"/>
  <path fill="#292D32" d="M12,21.02 C8.24,21.02 4.69,18.82 2.25,15 C1.19,13.35 1.19,10.66 2.25,9 C4.7,5.18 8.25,2.98 12,2.98 C15.75,2.98 19.3,5.18 21.74,9 C22.8,10.65 22.8,13.34 21.74,15 C19.3,18.82 15.75,21.02 12,21.02 Z M12,4.48 C8.77,4.48 5.68,6.42 3.52,9.81 C2.77,10.98 2.77,13.02 3.52,14.19 C5.68,17.58 8.77,19.52 12,19.52 C15.23,19.52 18.32,17.58 20.48,14.19 C21.23,13.02 21.23,10.98 20.48,9.81 C18.32,6.42 15.23,4.48 12,4.48 Z"/>
</svg>

