<svg xmlns="http://www.w3.org/2000/svg" width="24" height="24" viewBox="0 0 24 24">
  <defs/>
  <path fill="white" opacity="0.58" d="M24,0 L0,0 L0,24 L24,24 L24,0 Z"/>
  <path fill="#292D32" opacity="0.4" d="M16.19,2 L7.82,2 C4.18,2 2.01,4.17 2.01,7.81 L2.01,16.18 C2.01,19.82 4.18,21.99 7.82,21.99 L16.19,21.99 C19.83,21.99 22,19.82 22,16.18 L22,7.81 C22,4.17 19.83,2 16.19,2 Z"/>
  <path fill="#292D32" d="M13.921,9.28 L13.97,12.23 L16.601,12.19 C16.791,12.19 16.93,12.36 16.901,12.54 L16.55,14.45 C16.52,14.59 16.401,14.69 16.261,14.7 L14.011,14.74 L14.13,21.99 L11.13,22.04 L11.011,14.79 L9.31,14.82 C9.14,14.82 9.01,14.69 9.01,14.52 L8.98,12.62 C8.98,12.45 9.11,12.32 9.28,12.32 L10.98,12.29 L10.931,9.04 C10.9,7.38 12.22,6.02 13.88,5.99 L16.58,5.95 C16.75,5.95 16.881,6.08 16.881,6.25 L16.921,8.65 C16.921,8.82 16.791,8.95 16.62,8.95 L14.22,8.99 C14.05,8.98 13.921,9.12 13.921,9.28 Z"/>
</svg>

