<svg xmlns="http://www.w3.org/2000/svg" width="24" height="24" viewBox="0 0 24 24">
  <defs/>
  <path d="M14.75,22.75 L10.25,22.75 L10.25,15.5 L9.3,15.5 C8.72,15.5 8.25,15.03 8.25,14.45 L8.25,12.55 C8.25,11.97 8.72,11.5 9.3,11.5 L10.25,11.5 L10.25,9 C10.25,6.93 11.93,5.25 14,5.25 L16.7,5.25 C17.28,5.25 17.75,5.72 17.75,6.3 L17.75,8.7 C17.75,9.28 17.28,9.75 16.7,9.75 L14.75,9.75 L14.75,11.5 L16.63,11.5 C16.95,11.5 17.24,11.64 17.44,11.88 C17.64,12.12 17.72,12.44 17.66,12.75 L17.28,14.65 C17.18,15.14 16.75,15.49 16.25,15.49 L14.75,15.49 L14.75,22.75 Z M11.75,21.25 L13.25,21.25 L13.25,14 L15.89,14 L16.09,13 L13.26,13 L13.26,9.3 C13.26,8.72 13.73,8.25 14.31,8.25 L16.26,8.25 L16.26,6.75 L14,6.75 C12.76,6.75 11.75,7.76 11.75,9 L11.75,13 L9.75,13 L9.75,14 L11.75,14 L11.75,21.25 Z"/>
  <path d="M15,22.75 L9,22.75 C3.57,22.75 1.25,20.43 1.25,15 L1.25,9 C1.25,3.57 3.57,1.25 9,1.25 L15,1.25 C20.43,1.25 22.75,3.57 22.75,9 L22.75,15 C22.75,20.43 20.43,22.75 15,22.75 Z M9,2.75 C4.39,2.75 2.75,4.39 2.75,9 L2.75,15 C2.75,19.61 4.39,21.25 9,21.25 L15,21.25 C19.61,21.25 21.25,19.61 21.25,15 L21.25,9 C21.25,4.39 19.61,2.75 15,2.75 L9,2.75 Z"/>
</svg>

