<svg xmlns="http://www.w3.org/2000/svg" width="24" height="24" viewBox="0 0 24 24">
  <defs/>
  <path d="M14.75,9.75 L14.75,11.5 L16.63,11.5 Q17.13,11.5 17.444,11.886 Q17.757,12.273 17.654,12.765 L17.275,14.657 Q17.095,15.5 16.25,15.5 L14.75,15.5 L14.75,22.75 L10.25,22.75 L10.25,15.5 L9.3,15.5 Q8.25,15.5 8.25,14.45 L8.25,12.55 Q8.25,11.5 9.3,11.5 L10.25,11.5 L10.25,9 Q10.25,5.25 14,5.25 L16.7,5.25 Q17.75,5.25 17.75,6.3 L17.75,8.7 Q17.75,9.75 16.7,9.75 L14.75,9.75 Z M13.25,9.3 Q13.25,8.25 14.3,8.25 L16.25,8.25 L16.25,6.75 L14,6.75 Q11.75,6.75 11.75,9 L11.75,13 L9.75,13 L9.75,14 L11.75,14 L11.75,21.25 L13.25,21.25 L13.25,14 L15.877,14 L16.077,13 L13.25,13 Z"/>
  <path d="M2.75,12.83 L2.75,15 Q2.75,18.439 4.155,19.845 Q5.561,21.25 9,21.25 L15,21.25 Q18.439,21.25 19.845,19.845 Q21.25,18.439 21.25,15 L21.25,9 Q21.25,2.75 15,2.75 L9,2.75 Q2.75,2.75 2.75,9 Q2.75,9.311 2.53,9.53 Q2.311,9.75 2,9.75 Q1.689,9.75 1.47,9.53 Q1.25,9.311 1.25,9 Q1.25,1.25 9,1.25 L15,1.25 Q22.75,1.25 22.75,9 L22.75,15 Q22.75,22.75 15,22.75 L9,22.75 Q1.25,22.75 1.25,15 L1.25,12.83 Q1.25,12.519 1.47,12.3 Q1.689,12.08 2,12.08 Q2.311,12.08 2.53,12.3 Q2.75,12.519 2.75,12.83 Z"/>
</svg>

