<svg xmlns="http://www.w3.org/2000/svg" width="24" height="24" viewBox="0 0 24 24">
  <defs/>
  <path d="M22,16.19 C22,19.83 19.83,22 16.19,22 L15,22 C14.45,22 14,21.55 14,21 L14,15.23 C14,14.96 14.22,14.73 14.49,14.73 L16.25,14.7 C16.39,14.69 16.51,14.59 16.54,14.45 L16.89,12.54 C16.92,12.36 16.78,12.19 16.59,12.19 L14.46,12.22 C14.18,12.22 13.96,12 13.95,11.73 L13.91,9.28 C13.91,9.12 14.04,8.98 14.21,8.98 L16.61,8.94 C16.78,8.94 16.91,8.81 16.91,8.64 L16.87,6.24 C16.87,6.07 16.74,5.94 16.57,5.94 L13.87,5.98 C12.21,6.01 10.89,7.37 10.92,9.03 L10.97,11.78 C10.98,12.06 10.76,12.28 10.48,12.29 L9.28,12.31 C9.11,12.31 8.98,12.44 8.98,12.61 L9.01,14.51 C9.01,14.68 9.14,14.81 9.31,14.81 L10.51,14.79 C10.79,14.79 11.01,15.01 11.02,15.28 L11.11,20.98 C11.12,21.54 10.67,22 10.11,22 L7.81,22 C4.17,22 2,19.83 2,16.18 L2,7.81 C2,4.17 4.17,2 7.81,2 L16.19,2 C19.83,2 22,4.17 22,7.81 L22,16.19 Z"/>
</svg>

