<svg xmlns="http://www.w3.org/2000/svg" width="24" height="24" viewBox="0 0 24 24">
  <defs/>
  <path fill="#292D32" d="M19.9,12.75 Q22.75,12.75 22.75,15.73 L22.75,19.77 Q22.75,21.26 22.059,21.995 Q21.349,22.75 19.9,22.75 L4.1,22.75 Q2.651,22.75 1.941,21.995 Q1.25,21.26 1.25,19.77 L1.25,15.73 Q1.25,12.75 4.1,12.75 Z M19.9,14.25 L4.1,14.25 Q2.75,14.25 2.75,15.73 L2.75,19.77 Q2.75,20.666 3.034,20.967 Q3.3,21.25 4.1,21.25 L19.9,21.25 Q21.25,21.25 21.25,19.77 L21.25,15.73 Q21.25,14.834 20.966,14.533 Q20.7,14.25 19.9,14.25 Z"/>
  <path fill="#292D32" d="M12.9,1.25 Q14.349,1.25 15.059,2.005 Q15.75,2.74 15.75,4.23 L15.75,8.27 Q15.75,11.25 12.9,11.25 L4.1,11.25 Q1.25,11.25 1.25,8.27 L1.25,4.23 Q1.25,1.25 4.1,1.25 Z M12.9,2.75 L4.1,2.75 Q3.3,2.75 3.034,3.033 Q2.75,3.334 2.75,4.23 L2.75,8.27 Q2.75,9.166 3.034,9.467 Q3.3,9.75 4.1,9.75 L12.9,9.75 Q13.7,9.75 13.966,9.467 Q14.25,9.166 14.25,8.27 L14.25,4.23 Q14.25,2.75 12.9,2.75 Z"/>
</svg>

