<svg xmlns="http://www.w3.org/2000/svg" width="24" height="24" viewBox="0 0 24 24">
  <defs/>
  <path fill="#292D32" d="M21.25,13 L21.25,9 Q21.25,2.75 15,2.75 L9,2.75 Q2.75,2.75 2.75,9 L2.75,15 Q2.75,18.439 4.155,19.845 Q5.561,21.25 9,21.25 L13,21.25 Q13.311,21.25 13.53,21.47 Q13.75,21.689 13.75,22 Q13.75,22.311 13.53,22.53 Q13.311,22.75 13,22.75 L9,22.75 Q1.25,22.75 1.25,15 L1.25,9 Q1.25,1.25 9,1.25 L15,1.25 Q22.75,1.25 22.75,9 L22.75,13 Q22.75,13.311 22.53,13.53 Q22.311,13.75 22,13.75 Q21.689,13.75 21.47,13.53 Q21.25,13.311 21.25,13 Z"/>
  <path fill="#292D32" d="M6.736,14.032 L9.116,10.942 Q10.189,9.553 11.579,10.627 L13.414,12.071 Q13.614,12.225 13.772,12.025 L16.077,9.051 Q16.268,8.805 16.576,8.766 Q16.884,8.727 17.13,8.917 Q17.375,9.108 17.414,9.416 Q17.453,9.724 17.263,9.97 L14.948,12.955 Q13.87,14.319 12.486,13.249 L10.662,11.813 Q10.459,11.657 10.304,11.858 L7.924,14.948 Q7.735,15.194 7.427,15.234 Q7.119,15.274 6.872,15.084 Q6.626,14.895 6.586,14.587 Q6.546,14.278 6.736,14.032 Z"/>
  <path fill="#292D32" d="M20.426,17.72 Q19.504,17.566 19.078,16.715 L18.796,16.141 Q18.599,15.742 18.49,15.742 Q18.386,15.742 18.194,16.138 L17.912,16.711 Q17.498,17.539 16.582,17.716 Q16.569,17.719 16.556,17.721 L16.176,17.781 Q15.779,17.847 15.744,17.958 Q15.707,18.073 16.003,18.373 L16.35,18.72 Q17.055,19.456 16.842,20.43 L16.789,20.654 Q16.666,21.199 16.746,21.257 Q16.82,21.311 17.293,21.027 L17.564,20.87 Q18.499,20.327 19.436,20.871 L19.694,21.02 Q20.185,21.316 20.258,21.262 Q20.337,21.204 20.209,20.649 L20.16,20.444 Q20.088,20.141 20.25,19.877 Q20.413,19.612 20.715,19.54 Q21.018,19.468 21.282,19.631 Q21.547,19.794 21.619,20.096 L21.67,20.31 Q22.021,21.827 21.148,22.47 Q20.268,23.118 18.944,22.32 L18.683,22.168 Q18.499,22.062 18.314,22.17 L18.065,22.313 Q16.737,23.11 15.86,22.468 Q14.987,21.829 15.33,20.306 L15.377,20.11 Q15.419,19.916 15.289,19.78 L14.936,19.427 Q14.002,18.482 14.315,17.502 Q14.628,16.518 15.942,16.299 L16.307,16.242 Q16.489,16.203 16.566,16.049 L16.845,15.482 Q17.447,14.242 18.49,14.242 Q19.53,14.242 20.142,15.479 L20.42,16.044 Q20.504,16.212 20.673,16.24 Q20.979,16.291 21.16,16.544 Q21.34,16.797 21.289,17.103 Q21.238,17.41 20.985,17.59 Q20.732,17.771 20.426,17.72 Z"/>
</svg>

