<svg xmlns="http://www.w3.org/2000/svg" width="24" height="24" viewBox="0 0 24 24">
  <defs/>
  <path fill="#292D32" opacity="0.4" d="M22,7.81 L22,15.16 C21.71,15.02 21.39,14.92 21.03,14.86 L20.72,14.81 L20.46,14.27 C19.91,13.15 19.01,12.5 18,12.5 C16.99,12.5 16.09,13.15 15.54,14.27 L15.27,14.81 L14.97,14.86 C13.78,15.06 12.92,15.72 12.61,16.66 C12.31,17.61 12.62,18.65 13.47,19.51 L13.78,19.82 L13.75,19.94 C13.55,20.83 13.63,21.51 13.82,22 L7.81,22 C4.17,22 2,19.83 2,16.19 L2,7.81 C2,4.17 4.17,2 7.81,2 L16.19,2 C19.83,2 22,4.17 22,7.81 Z"/>
  <path fill="#292D32" d="M19.12,14.94 L19.44,15.59 C19.6,15.91 20.01,16.21 20.35,16.27 L20.78,16.34 C22.09,16.56 22.39,17.52 21.46,18.46 L21.06,18.86 C20.79,19.13 20.65,19.65 20.73,20.03 L20.78,20.27 C21.14,21.85 20.3,22.46 18.93,21.63 L18.64,21.45 C18.29,21.24 17.71,21.24 17.36,21.45 L17.07,21.63 C15.69,22.46 14.86,21.85 15.22,20.27 L15.27,20.03 C15.35,19.66 15.21,19.13 14.94,18.86 L14.54,18.46 C13.61,17.51 13.91,16.56 15.22,16.34 L15.65,16.27 C16,16.21 16.4,15.91 16.56,15.59 L16.88,14.94 C17.5,13.69 18.5,13.69 19.12,14.94 Z"/>
  <path fill="#292D32" d="M16.13,7.917 C16.457,8.171 16.517,8.642 16.263,8.969 L13.948,11.955 C13.354,12.707 12.257,12.844 11.492,12.253 L11.486,12.249 L9.66,10.812 C9.547,10.726 9.39,10.748 9.304,10.858 L6.924,13.948 C6.672,14.276 6.201,14.337 5.872,14.084 C5.544,13.831 5.483,13.36 5.736,13.032 L8.117,9.941 C8.711,9.173 9.812,9.034 10.579,9.626 L10.584,9.63 L12.41,11.068 C12.524,11.154 12.685,11.132 12.77,11.026 L15.077,8.05 C15.331,7.723 15.802,7.663 16.13,7.917 Z"/>
</svg>

