<svg xmlns="http://www.w3.org/2000/svg" width="24" height="24" viewBox="0 0 24 24">
  <defs/>
  <path fill="#292D32" d="M13,22.75 L9,22.75 C3.57,22.75 1.25,20.43 1.25,15 L1.25,9 C1.25,3.57 3.57,1.25 9,1.25 L15,1.25 C20.43,1.25 22.75,3.57 22.75,9 L22.75,13 C22.75,13.41 22.41,13.75 22,13.75 C21.59,13.75 21.25,13.41 21.25,13 L21.25,9 C21.25,4.39 19.61,2.75 15,2.75 L9,2.75 C4.39,2.75 2.75,4.39 2.75,9 L2.75,15 C2.75,19.61 4.39,21.25 9,21.25 L13,21.25 C13.41,21.25 13.75,21.59 13.75,22 C13.75,22.41 13.41,22.75 13,22.75 Z"/>
  <path fill="#292D32" d="M7.33,15.24 C7.17,15.24 7.01,15.19 6.87,15.08 C6.54,14.83 6.48,14.36 6.73,14.03 L9.11,10.94 C9.4,10.57 9.81,10.33 10.28,10.27 C10.75,10.21 11.21,10.34 11.58,10.63 L13.41,12.07 C13.48,12.13 13.55,12.12 13.6,12.12 C13.64,12.12 13.71,12.1 13.77,12.02 L16.08,9.04 C16.33,8.71 16.8,8.65 17.13,8.91 C17.46,9.16 17.52,9.63 17.26,9.96 L14.95,12.94 C14.66,13.31 14.25,13.55 13.78,13.6 C13.32,13.66 12.85,13.53 12.49,13.24 L10.66,11.8 C10.59,11.74 10.51,11.74 10.47,11.75 C10.43,11.75 10.36,11.77 10.3,11.85 L7.92,14.94 C7.78,15.14 7.56,15.24 7.33,15.24 Z"/>
  <path fill="#292D32" d="M20.261,22.75 C19.91,22.75 19.46,22.64 18.93,22.32 L18.68,22.17 C18.61,22.13 18.4,22.13 18.33,22.17 L18.08,22.32 C16.93,23.01 16.201,22.72 15.88,22.48 C15.55,22.24 15.04,21.64 15.34,20.32 L15.39,20.11 C15.411,20.03 15.35,19.84 15.3,19.78 L14.95,19.43 C14.361,18.83 14.13,18.13 14.33,17.5 C14.53,16.88 15.12,16.44 15.95,16.3 L16.33,16.24 C16.4,16.22 16.54,16.12 16.58,16.05 L16.86,15.48 C17.25,14.69 17.851,14.24 18.511,14.24 C19.171,14.24 19.77,14.69 20.16,15.48 L20.441,16.04 C20.48,16.11 20.62,16.21 20.691,16.23 L21.07,16.29 C21.901,16.43 22.491,16.87 22.691,17.49 C22.89,18.11 22.671,18.81 22.07,19.42 L21.721,19.77 C21.671,19.83 21.61,20.02 21.631,20.1 L21.68,20.31 C21.98,21.63 21.471,22.23 21.14,22.47 C20.96,22.61 20.671,22.75 20.261,22.75 Z M18.49,15.75 C18.48,15.76 18.34,15.86 18.201,16.15 L17.921,16.72 C17.68,17.21 17.11,17.63 16.58,17.72 L16.201,17.78 C15.88,17.83 15.771,17.94 15.761,17.96 C15.761,17.98 15.79,18.14 16.02,18.37 L16.37,18.72 C16.78,19.14 16.99,19.86 16.86,20.43 L16.81,20.64 C16.72,21.03 16.76,21.2 16.78,21.26 C16.81,21.24 16.98,21.22 17.31,21.02 L17.56,20.87 C18.11,20.54 18.901,20.54 19.451,20.87 L19.701,21.02 C20.11,21.27 20.28,21.24 20.291,21.24 C20.25,21.24 20.3,21.04 20.21,20.64 L20.16,20.43 C20.03,19.85 20.24,19.14 20.65,18.72 L21,18.37 C21.23,18.14 21.261,17.98 21.261,17.95 C21.25,17.93 21.14,17.83 20.82,17.77 L20.441,17.71 C19.901,17.62 19.34,17.2 19.101,16.71 L18.82,16.15 C18.66,15.85 18.52,15.76 18.49,15.75 Z"/>
</svg>

