<svg xmlns="http://www.w3.org/2000/svg" width="24" height="24" viewBox="0 0 24 24">
  <defs/>
  <path fill="#292D32" d="M19.12,14.941 L19.44,15.591 C19.6,15.911 20.01,16.211 20.35,16.271 L20.78,16.341 C22.09,16.561 22.39,17.521 21.46,18.461 L21.06,18.861 C20.79,19.131 20.65,19.651 20.73,20.031 L20.78,20.271 C21.14,21.851 20.3,22.461 18.93,21.631 L18.64,21.451 C18.29,21.241 17.71,21.241 17.36,21.451 L17.07,21.631 C15.69,22.461 14.86,21.851 15.22,20.271 L15.27,20.031 C15.35,19.661 15.21,19.131 14.94,18.861 L14.54,18.461 C13.61,17.511 13.91,16.561 15.22,16.341 L15.65,16.271 C16,16.211 16.4,15.911 16.56,15.591 L16.88,14.941 C17.5,13.691 18.5,13.691 19.12,14.941 Z"/>
  <path fill="#292D32" d="M16.19,2 L7.81,2 C4.17,2 2,4.17 2,7.81 L2,16.19 C2,19.83 4.17,22 7.81,22 L13.09,22 C13.44,22 13.69,21.64 13.65,21.29 C13.61,20.91 13.63,20.46 13.75,19.94 C13.77,19.87 13.75,19.79 13.69,19.73 L13.47,19.51 C12.62,18.65 12.31,17.61 12.61,16.66 C12.92,15.72 13.78,15.06 14.97,14.86 L15.27,14.81 L15.54,14.27 C16.09,13.15 16.99,12.5 18,12.5 C19.01,12.5 19.91,13.15 20.46,14.27 L20.61,14.58 C20.68,14.73 20.82,14.83 20.98,14.86 C21.07,14.88 21.16,14.9 21.25,14.92 C21.6,15.01 22,14.73 22,14.36 L22,7.81 C22,4.17 19.83,2 16.19,2 Z M16.26,8.96 L13.95,11.94 C13.66,12.31 13.25,12.55 12.78,12.6 C12.32,12.66 11.85,12.53 11.49,12.24 L9.66,10.82 C9.59,10.76 9.51,10.76 9.47,10.77 C9.43,10.77 9.36,10.79 9.3,10.87 L6.92,13.96 C6.77,14.15 6.55,14.25 6.32,14.25 C6.16,14.25 6,14.2 5.86,14.09 C5.53,13.84 5.47,13.37 5.72,13.04 L8.1,9.95 C8.39,9.58 8.8,9.34 9.27,9.28 C9.74,9.22 10.2,9.35 10.57,9.64 L12.4,11.08 C12.47,11.14 12.54,11.13 12.59,11.13 C12.63,11.13 12.7,11.11 12.76,11.03 L15.07,8.05 C15.32,7.72 15.79,7.66 16.12,7.92 C16.46,8.17 16.51,8.64 16.26,8.96 Z"/>
</svg>

