<svg xmlns="http://www.w3.org/2000/svg" width="24" height="24" viewBox="0 0 24 24">
  <defs/>
  <path fill="#292D32" d="M21.25,13 L21.25,9 Q21.25,2.75 15,2.75 L9,2.75 Q2.75,2.75 2.75,9 L2.75,15 Q2.75,18.439 4.155,19.845 Q5.561,21.25 9,21.25 L13,21.25 Q13.311,21.25 13.53,21.47 Q13.75,21.689 13.75,22 Q13.75,22.311 13.53,22.53 Q13.311,22.75 13,22.75 L9,22.75 Q1.25,22.75 1.25,15 L1.25,9 Q1.25,1.25 9,1.25 L15,1.25 Q22.75,1.25 22.75,9 L22.75,13 Q22.75,13.311 22.53,13.53 Q22.311,13.75 22,13.75 Q21.689,13.75 21.47,13.53 Q21.25,13.311 21.25,13 Z"/>
  <path fill="#292D32" d="M6.736,14.032 L9.116,10.942 Q10.189,9.553 11.579,10.627 L13.414,12.071 Q13.614,12.225 13.772,12.025 L16.077,9.051 Q16.268,8.805 16.576,8.766 Q16.884,8.727 17.13,8.917 Q17.375,9.108 17.414,9.416 Q17.453,9.724 17.263,9.97 L14.948,12.955 Q13.87,14.319 12.486,13.249 L10.662,11.813 Q10.459,11.657 10.304,11.858 L7.924,14.948 Q7.735,15.194 7.427,15.234 Q7.119,15.274 6.872,15.084 Q6.626,14.895 6.586,14.587 Q6.546,14.278 6.736,14.032 Z"/>
  <path fill="#292D32" d="M20.153,15.489 L20.433,16.059 Q20.51,16.213 20.693,16.252 L21.057,16.309 Q22.371,16.528 22.685,17.512 Q22.997,18.492 22.064,19.437 L21.71,19.79 Q21.58,19.926 21.623,20.12 L21.67,20.316 Q22.012,21.839 21.139,22.478 Q20.262,23.12 18.934,22.323 L18.685,22.18 Q18.5,22.072 18.317,22.178 L18.055,22.33 Q16.732,23.128 15.852,22.48 Q14.978,21.837 15.329,20.32 L15.38,20.107 Q15.42,19.926 15.279,19.779 L14.94,19.44 Q14.003,18.492 14.315,17.512 Q14.629,16.528 15.937,16.31 L16.323,16.249 Q16.485,16.222 16.569,16.054 L16.847,15.489 Q17.46,14.252 18.5,14.252 Q19.54,14.252 20.152,15.487 Z M18.808,16.153 Q18.807,16.152 18.807,16.151 Q18.609,15.752 18.5,15.752 Q18.39,15.752 18.193,16.151 L17.911,16.725 Q17.485,17.576 16.557,17.731 L16.183,17.79 Q15.78,17.857 15.745,17.968 Q15.708,18.083 16,18.38 L16.361,18.741 Q17.056,19.465 16.84,20.453 L16.791,20.659 Q16.662,21.214 16.741,21.272 Q16.814,21.326 17.305,21.03 L17.563,20.881 Q18.5,20.337 19.435,20.88 L19.706,21.037 Q20.18,21.321 20.253,21.267 Q20.333,21.209 20.21,20.664 L20.157,20.44 Q19.944,19.466 20.65,18.73 L20.996,18.383 Q21.292,18.083 21.255,17.968 Q21.22,17.857 20.823,17.791 L20.443,17.731 Q20.43,17.729 20.417,17.726 Q19.501,17.549 19.087,16.721 Z"/>
</svg>

