<svg xmlns="http://www.w3.org/2000/svg" width="24" height="24" viewBox="0 0 24 24">
  <defs/>
  <path d="M12.75,9.42 L8.67,9.42 C6.42,9.42 4.59,7.59 4.59,5.34 C4.59,3.09 6.42,1.26 8.67,1.26 L12.75,1.26 L12.75,9.42 Z M8.67,2.75 C7.25,2.75 6.09,3.91 6.09,5.33 C6.09,6.75 7.25,7.91 8.67,7.91 L11.25,7.91 L11.25,2.74 L8.67,2.74 L8.67,2.75 Z"/>
  <path d="M12.75,16.08 L8.67,16.08 C6.42,16.08 4.59,14.25 4.59,12 C4.59,9.75 6.42,7.92 8.67,7.92 L12.75,7.92 L12.75,16.08 Z M8.67,9.42 C7.25,9.42 6.09,10.58 6.09,12 C6.09,13.42 7.25,14.58 8.67,14.58 L11.25,14.58 L11.25,9.41 L8.67,9.41 L8.67,9.42 Z"/>
  <path d="M8.67,22.75 C6.42,22.75 4.59,20.92 4.59,18.67 C4.59,16.42 6.42,14.59 8.67,14.59 L12.75,14.59 L12.75,18.67 C12.75,20.92 10.92,22.75 8.67,22.75 Z M8.67,16.08 C7.25,16.08 6.09,17.24 6.09,18.66 C6.09,20.08 7.25,21.24 8.67,21.24 C10.09,21.24 11.25,20.08 11.25,18.66 L11.25,16.08 L8.67,16.08 Z"/>
  <path d="M15.33,9.42 L11.25,9.42 L11.25,1.25 L15.33,1.25 C17.58,1.25 19.41,3.08 19.41,5.33 C19.42,7.58 17.58,9.42 15.33,9.42 Z M12.75,7.92 L15.33,7.92 C16.75,7.92 17.91,6.76 17.91,5.34 C17.91,3.92 16.75,2.76 15.33,2.76 L12.75,2.76 L12.75,7.92 Z"/>
  <path d="M15.33,16.08 C13.08,16.08 11.25,14.25 11.25,12 C11.25,9.75 13.08,7.92 15.33,7.92 C17.58,7.92 19.41,9.75 19.41,12 C19.41,14.25 17.58,16.08 15.33,16.08 Z M15.33,9.42 C13.91,9.42 12.75,10.58 12.75,12 C12.75,13.42 13.91,14.58 15.33,14.58 C16.75,14.58 17.91,13.42 17.91,12 C17.91,10.58 16.76,9.42 15.33,9.42 Z"/>
</svg>

