<svg xmlns="http://www.w3.org/2000/svg" width="24" height="24" viewBox="0 0 24 24">
  <defs/>
  <path d="M12.75,1.25 L12.75,9.41 L8.67,9.41 Q6.63,9.41 5.61,8.39 Q4.59,7.37 4.59,5.33 Q4.59,1.25 8.67,1.25 Z M11.25,2.75 L8.67,2.75 Q7.6,2.75 6.845,3.505 Q6.09,4.261 6.09,5.33 Q6.09,6.399 6.845,7.155 Q7.6,7.91 8.67,7.91 L11.25,7.91 L11.25,2.75 Z"/>
  <path d="M12.75,7.92 L12.75,16.08 L8.67,16.08 Q6.63,16.08 5.61,15.06 Q4.59,14.04 4.59,12 Q4.59,7.92 8.67,7.92 Z M11.25,9.42 L8.67,9.42 Q7.6,9.42 6.845,10.175 Q6.09,10.931 6.09,12 Q6.09,13.069 6.845,13.825 Q7.6,14.58 8.67,14.58 L11.25,14.58 L11.25,9.42 Z"/>
  <path d="M12.75,14.58 L12.75,18.66 Q12.75,22.74 8.67,22.74 Q4.59,22.74 4.59,18.66 Q4.59,16.969 5.784,15.775 Q6.979,14.58 8.67,14.58 Z M11.25,16.08 L8.67,16.08 Q7.6,16.08 6.845,16.835 Q6.09,17.591 6.09,18.66 Q6.09,21.24 8.67,21.24 Q11.25,21.24 11.25,18.66 L11.25,16.08 Z"/>
  <g opacity="0.4">
    <path d="M12,1.25 L15.33,1.25 Q19.41,1.25 19.41,5.33 Q19.41,7.021 18.215,8.215 Q17.021,9.41 15.33,9.41 L12,9.41 Q11.689,9.41 11.47,9.19 Q11.25,8.971 11.25,8.66 L11.25,2 Q11.25,1.689 11.47,1.47 Q11.689,1.25 12,1.25 Z M12.75,2.75 L12.75,7.91 L15.33,7.91 Q17.91,7.91 17.91,5.33 Q17.91,4.261 17.155,3.505 Q16.399,2.75 15.33,2.75 L12.75,2.75 Z"/>
    <path d="M15.33,7.92 Q19.41,7.92 19.41,12 Q19.41,16.08 15.33,16.08 Q11.25,16.08 11.25,12 Q11.25,10.309 12.445,9.115 Q13.639,7.92 15.33,7.92 Z M15.33,9.42 Q12.75,9.42 12.75,12 Q12.75,13.069 13.505,13.825 Q14.261,14.58 15.33,14.58 Q16.399,14.58 17.155,13.825 Q17.91,13.069 17.91,12 Q17.91,10.931 17.155,10.175 Q16.399,9.42 15.33,9.42 Z"/>
  </g>
</svg>

