<svg xmlns="http://www.w3.org/2000/svg" width="24" height="24" viewBox="0 0 24 24">
  <defs/>
  <path d="M12.75,10.75 L10,10.75 C8.48,10.75 7.25,9.52 7.25,8 C7.25,6.48 8.48,5.25 10,5.25 L12.75,5.25 L12.75,10.75 Z M10,6.75 C9.31,6.75 8.75,7.31 8.75,8 C8.75,8.69 9.31,9.25 10,9.25 L11.25,9.25 L11.25,6.75 L10,6.75 Z"/>
  <path d="M12.75,14.75 L10,14.75 C8.48,14.75 7.25,13.52 7.25,12 C7.25,10.48 8.48,9.25 10,9.25 L12.75,9.25 L12.75,14.75 Z M10,10.75 C9.31,10.75 8.75,11.31 8.75,12 C8.75,12.69 9.31,13.25 10,13.25 L11.25,13.25 L11.25,10.75 L10,10.75 Z"/>
  <path d="M10,18.75 C8.48,18.75 7.25,17.52 7.25,16 C7.25,14.48 8.48,13.25 10,13.25 L12.75,13.25 L12.75,16 C12.75,17.52 11.52,18.75 10,18.75 Z M10,14.75 C9.31,14.75 8.75,15.31 8.75,16 C8.75,16.69 9.31,17.25 10,17.25 C10.69,17.25 11.25,16.69 11.25,16 L11.25,14.75 L10,14.75 Z"/>
  <path d="M14,10.75 L11.25,10.75 L11.25,5.25 L14,5.25 C15.52,5.25 16.75,6.48 16.75,8 C16.75,9.52 15.52,10.75 14,10.75 Z M12.75,9.25 L14,9.25 C14.69,9.25 15.25,8.69 15.25,8 C15.25,7.31 14.69,6.75 14,6.75 L12.75,6.75 L12.75,9.25 Z"/>
  <path d="M14,14.75 C12.48,14.75 11.25,13.52 11.25,12 C11.25,10.48 12.48,9.25 14,9.25 C15.52,9.25 16.75,10.48 16.75,12 C16.75,13.52 15.52,14.75 14,14.75 Z M14,10.75 C13.31,10.75 12.75,11.31 12.75,12 C12.75,12.69 13.31,13.25 14,13.25 C14.69,13.25 15.25,12.69 15.25,12 C15.25,11.31 14.69,10.75 14,10.75 Z"/>
  <path d="M12,22.75 C6.07,22.75 1.25,17.93 1.25,12 C1.25,6.07 6.07,1.25 12,1.25 C17.93,1.25 22.75,6.07 22.75,12 C22.75,17.93 17.93,22.75 12,22.75 Z M12,2.75 C6.9,2.75 2.75,6.9 2.75,12 C2.75,17.1 6.9,21.25 12,21.25 C17.1,21.25 21.25,17.1 21.25,12 C21.25,6.9 17.1,2.75 12,2.75 Z"/>
</svg>

