<svg xmlns="http://www.w3.org/2000/svg" width="24" height="24" viewBox="0 0 24 24">
  <defs/>
  <path d="M12,2 L8.67,2 C6.83,2 5.34,3.49 5.34,5.33 C5.34,7.17 6.83,8.66 8.67,8.66 L12,8.66 L12,2 Z"/>
  <path d="M12,8.672 L8.67,8.672 C6.83,8.672 5.34,10.162 5.34,12.002 C5.34,13.842 6.83,15.332 8.67,15.332 L12,15.332 L12,8.672 Z"/>
  <path d="M12,15.328 L8.67,15.328 C6.83,15.328 5.34,16.818 5.34,18.658 C5.34,20.498 6.83,21.988 8.67,21.988 C10.51,21.988 12,20.498 12,18.658 L12,15.328 Z"/>
  <path d="M12,2 L15.33,2 C17.17,2 18.66,3.49 18.66,5.33 C18.66,7.17 17.17,8.66 15.33,8.66 L12,8.66 L12,2 Z"/>
  <path d="M15.33,8.672 C17.17,8.672 18.66,10.162 18.66,12.002 C18.66,13.842 17.17,15.332 15.33,15.332 C13.49,15.332 12,13.842 12,12.002 C12,10.162 13.49,8.672 15.33,8.672 Z"/>
</svg>

