<svg xmlns="http://www.w3.org/2000/svg" width="24" height="24" viewBox="0 0 24 24">
  <defs/>
  <path fill="white" opacity="0.58" d="M24,0 L0,0 L0,24 L24,24 L24,0 Z"/>
  <path fill="#292D32" opacity="0.4" d="M12,22 C17.523,22 22,17.523 22,12 C22,6.477 17.523,2 12,2 C6.477,2 2,6.477 2,12 C2,17.523 6.477,22 12,22 Z"/>
  <path fill="#292D32" d="M12,6 L10,6 C8.9,6 8,6.9 8,8 C8,9.1 8.9,10 10,10 L12,10 L12,6 Z"/>
  <path fill="#292D32" opacity="0.4" d="M12,10 L10,10 C8.9,10 8,10.9 8,12 C8,13.1 8.9,14 10,14 L12,14 L12,10 Z"/>
  <path fill="#292D32" d="M12,14 L10,14 C8.9,14 8,14.9 8,16 C8,17.1 8.9,18 10,18 C11.1,18 12,17.1 12,16 L12,14 Z"/>
  <path fill="#292D32" opacity="0.4" d="M12,6 L14,6 C15.1,6 16,6.9 16,8 C16,9.1 15.1,10 14,10 L12,10 L12,6 Z"/>
  <path fill="#292D32" d="M14,10 C15.1,10 16,10.9 16,12 C16,13.1 15.1,14 14,14 C12.9,14 12,13.1 12,12 C12,10.9 12.9,10 14,10 Z"/>
</svg>

