<svg xmlns="http://www.w3.org/2000/svg" width="24" height="24" viewBox="0 0 24 24">
  <defs/>
  <path fill="white" opacity="0.58" d="M24,0 L0,0 L0,24 L24,24 L24,0 Z"/>
  <path fill="#292D32" d="M12,2 L8.67,2 C6.83,2 5.34,3.49 5.34,5.33 C5.34,7.17 6.83,8.66 8.67,8.66 L12,8.66 L12,2 Z"/>
  <path fill="#292D32" opacity="0.4" d="M12,8.67 L8.67,8.67 C6.83,8.67 5.34,10.16 5.34,12 C5.34,13.84 6.83,15.33 8.67,15.33 L12,15.33 L12,8.67 Z"/>
  <path fill="#292D32" d="M12,15.33 L8.67,15.33 C6.83,15.33 5.34,16.82 5.34,18.66 C5.34,20.5 6.83,21.99 8.67,21.99 C10.51,21.99 12,20.5 12,18.66 L12,15.33 Z"/>
  <path fill="#292D32" opacity="0.4" d="M12,2 L15.33,2 C17.17,2 18.66,3.49 18.66,5.33 C18.66,7.17 17.17,8.66 15.33,8.66 L12,8.66 L12,2 Z"/>
  <path fill="#292D32" d="M15.33,8.67 C17.17,8.67 18.66,10.16 18.66,12 C18.66,13.84 17.17,15.33 15.33,15.33 C13.49,15.33 12,13.84 12,12 C12,10.16 13.49,8.67 15.33,8.67 Z"/>
</svg>

