<svg xmlns="http://www.w3.org/2000/svg" width="24" height="24" viewBox="0 0 24 24">
  <defs/>
  <path d="M12,12 C12,10.9 12.9,10 14,10 L12,10 L12,12 Z"/>
  <path d="M12,2 C6.48,2 2,6.48 2,12 C2,17.52 6.48,22 12,22 C17.52,22 22,17.52 22,12 C22,6.48 17.52,2 12,2 Z M16,12 C16,13.1 15.1,14 14,14 C12.9,14 12,13.1 12,12 L12,14 L12,16 C12,17.1 11.1,18 10,18 C8.9,18 8,17.1 8,16 C8,14.9 8.9,14 10,14 C8.9,14 8,13.1 8,12 C8,10.9 8.9,10 10,10 C8.9,10 8,9.1 8,8 C8,6.9 8.9,6 10,6 L12,6 L14,6 C15.1,6 16,6.9 16,8 C16,9.1 15.1,10 14,10 C15.1,10 16,10.9 16,12 Z"/>
</svg>

