<svg xmlns="http://www.w3.org/2000/svg" width="24" height="24" viewBox="0 0 24 24">
  <defs/>
  <path fill="#292D32" d="M16.879,20.25 C15.819,20.25 14.789,19.94 13.909,19.35 C13.219,18.93 12.619,18.31 12.179,17.58 C11.659,16.73 11.379,15.75 11.379,14.75 C11.379,11.72 13.849,9.25 16.879,9.25 C17.299,9.25 17.709,9.3 18.099,9.39 C20.579,9.94 22.379,12.19 22.379,14.75 C22.379,15.76 22.109,16.74 21.589,17.59 C20.609,19.23 18.799,20.25 16.879,20.25 Z M16.879,10.75 C14.669,10.75 12.879,12.54 12.879,14.75 C12.879,15.48 13.079,16.19 13.459,16.81 C13.779,17.34 14.209,17.78 14.709,18.09 C15.369,18.53 16.109,18.75 16.879,18.75 C18.279,18.75 19.589,18.01 20.309,16.81 C20.689,16.19 20.879,15.48 20.879,14.75 C20.879,12.89 19.569,11.25 17.759,10.85 C17.469,10.78 17.179,10.75 16.879,10.75 Z"/>
  <path fill="#292D32" d="M16.199,16.67 C16.009,16.67 15.819,16.6 15.669,16.45 L14.499,15.28 C14.209,14.99 14.209,14.51 14.499,14.22 C14.789,13.93 15.269,13.93 15.559,14.22 L16.219,14.88 L18.229,13.03 C18.539,12.75 19.009,12.77 19.289,13.07 C19.569,13.37 19.549,13.85 19.249,14.13 L16.709,16.47 C16.569,16.6 16.379,16.67 16.199,16.67 Z"/>
  <path fill="#292D32" d="M10.931,22.75 C10.451,22.75 9.971,22.63 9.541,22.39 C8.651,21.89 8.121,20.99 8.121,19.98 L8.121,14.63 C8.121,14.12 7.791,13.37 7.471,12.98 L3.671,8.99 C3.041,8.34 2.551,7.25 2.551,6.45 L2.551,4.12 C2.551,2.51 3.771,1.25 5.321,1.25 L18.661,1.25 C20.191,1.25 21.431,2.49 21.431,4.02 L21.431,6.24 C21.431,7.29 20.811,8.47 20.201,9.09 L18.401,10.68 C18.221,10.84 17.971,10.9 17.731,10.85 C17.461,10.78 17.171,10.75 16.871,10.75 C14.661,10.75 12.871,12.54 12.871,14.75 C12.871,15.48 13.071,16.19 13.451,16.81 C13.771,17.34 14.201,17.78 14.701,18.09 C14.921,18.23 15.061,18.47 15.061,18.73 L15.061,19.07 C15.061,19.86 14.581,20.97 13.781,21.44 L12.401,22.33 C11.961,22.61 11.441,22.75 10.931,22.75 Z M5.331,2.75 C4.621,2.75 4.061,3.35 4.061,4.12 L4.061,6.45 C4.061,6.81 4.361,7.54 4.761,7.94 L8.611,11.99 C9.121,12.62 9.631,13.68 9.631,14.63 L9.631,19.98 C9.631,20.64 10.091,20.97 10.281,21.08 C10.711,21.32 11.221,21.31 11.611,21.07 L13.011,20.17 C13.281,20.01 13.551,19.5 13.571,19.14 C13.021,18.73 12.541,18.2 12.181,17.6 C11.661,16.75 11.381,15.77 11.381,14.77 C11.381,11.74 13.851,9.27 16.881,9.27 C17.161,9.27 17.441,9.29 17.701,9.33 L19.181,8.02 C19.521,7.67 19.941,6.84 19.941,6.25 L19.941,4.03 C19.941,3.33 19.371,2.76 18.671,2.76 L5.331,2.76 L5.331,2.75 Z"/>
</svg>

