<svg xmlns="http://www.w3.org/2000/svg" width="24" height="24" viewBox="0 0 24 24">
  <defs/>
  <path fill="#292D32" d="M16.881,10 C14.261,10 12.131,12.13 12.131,14.75 C12.131,15.64 12.381,16.48 12.821,17.2 C13.641,18.58 15.151,19.5 16.881,19.5 C18.611,19.5 20.121,18.57 20.941,17.2 C21.381,16.49 21.631,15.64 21.631,14.75 C21.631,12.13 19.511,10 16.881,10 Z M18.661,15.48 L17.631,15.48 L17.631,16.55 C17.631,16.96 17.291,17.3 16.881,17.3 C16.471,17.3 16.131,16.96 16.131,16.55 L16.131,15.48 L15.111,15.48 C14.701,15.48 14.361,15.14 14.361,14.73 C14.361,14.32 14.701,13.98 15.111,13.98 L16.131,13.98 L16.131,13 C16.131,12.59 16.471,12.25 16.881,12.25 C17.291,12.25 17.631,12.59 17.631,13 L17.631,13.98 L18.661,13.98 C19.071,13.98 19.411,14.32 19.411,14.73 C19.411,15.14 19.071,15.48 18.661,15.48 Z"/>
  <path fill="#292D32" d="M20.58,4.02 L20.58,6.24 C20.58,7.05 20.08,8.06 19.58,8.57 L19.4,8.73 C19.26,8.86 19.05,8.89 18.87,8.83 C18.67,8.76 18.47,8.71 18.27,8.66 C17.83,8.55 17.36,8.5 16.88,8.5 C13.43,8.5 10.63,11.3 10.63,14.75 C10.63,15.89 10.94,17.01 11.53,17.97 C12.03,18.81 12.73,19.51 13.49,19.98 C13.72,20.13 13.81,20.45 13.61,20.63 C13.54,20.69 13.47,20.74 13.4,20.79 L12,21.7 C10.7,22.51 8.91,21.6 8.91,19.98 L8.91,14.63 C8.91,13.92 8.51,13.01 8.11,12.51 L4.32,8.47 C3.82,7.96 3.42,7.05 3.42,6.45 L3.42,4.12 C3.42,2.91 4.32,2 5.41,2 L18.59,2 C19.68,2 20.58,2.91 20.58,4.02 Z"/>
</svg>

