<svg xmlns="http://www.w3.org/2000/svg" width="24" height="24" viewBox="0 0 24 24">
  <defs/>
  <path fill="#292D32" d="M5.4,1.35 L18.6,1.35 Q19.736,1.35 20.543,2.157 Q21.35,2.964 21.35,4.1 L21.35,6.3 Q21.35,7.911 20.13,9.13 Q20.114,9.147 20.097,9.162 L15.797,12.962 Q15.788,12.969 15.78,12.976 Q15.05,13.585 15.05,14.7 L15.05,19 Q15.05,20.578 13.796,21.337 L12.406,22.231 Q11.041,23.071 9.611,22.313 Q8.15,21.537 8.15,19.9 L8.15,14.6 Q8.15,13.776 7.533,12.992 L3.763,9.023 Q2.65,7.906 2.65,6.5 L2.65,4.2 Q2.65,1.35 5.4,1.35 Z M5.4,2.85 Q4.15,2.85 4.15,4.2 L4.15,6.5 Q4.15,7.289 4.83,7.97 Q4.837,7.976 4.844,7.983 L8.644,11.983 Q8.666,12.007 8.686,12.031 Q9.65,13.237 9.65,14.6 L9.65,19.9 Q9.65,20.635 10.314,20.987 Q10.985,21.344 11.594,20.969 L12.994,20.069 Q13.004,20.063 13.014,20.057 Q13.55,19.735 13.55,19 L13.55,14.7 Q13.55,12.888 14.811,11.831 L19.085,8.054 Q19.85,7.279 19.85,6.3 L19.85,4.1 Q19.85,3.586 19.482,3.218 Q19.114,2.85 18.6,2.85 Z"/>
  <path fill="#292D32" d="M11.566,2.497 L6.636,10.397 Q6.472,10.661 6.169,10.731 Q5.866,10.801 5.603,10.636 Q5.339,10.472 5.269,10.169 Q5.199,9.866 5.364,9.603 L10.294,1.703 Q10.458,1.439 10.761,1.369 Q11.064,1.299 11.327,1.464 Q11.591,1.628 11.661,1.931 Q11.731,2.233 11.566,2.497 Z"/>
</svg>

