<svg xmlns="http://www.w3.org/2000/svg" width="24" height="24" viewBox="0 0 24 24">
  <defs/>
  <path fill="#292D32" d="M10.931,22.75 C10.451,22.75 9.971,22.63 9.531,22.38 C8.641,21.88 8.111,20.99 8.111,19.98 L8.111,14.63 C8.111,14.12 7.781,13.37 7.471,12.98 L3.671,8.99 C3.041,8.36 2.551,7.26 2.551,6.45 L2.551,4.13 C2.551,2.52 3.771,1.26 5.321,1.26 L18.651,1.26 C20.181,1.26 21.421,2.5 21.421,4.03 L21.421,6.25 C21.421,7.3 20.791,8.51 20.191,9.1 C19.901,9.39 19.421,9.39 19.131,9.1 C18.841,8.81 18.841,8.33 19.131,8.04 C19.501,7.67 19.921,6.84 19.921,6.25 L19.921,4.03 C19.921,3.33 19.351,2.76 18.651,2.76 L5.331,2.76 C4.621,2.76 4.061,3.36 4.061,4.13 L4.061,6.45 C4.061,6.82 4.361,7.55 4.751,7.94 L8.601,11.99 C9.111,12.62 9.611,13.68 9.611,14.63 L9.611,19.98 C9.611,20.64 10.061,20.96 10.261,21.07 C10.691,21.31 11.201,21.3 11.601,21.06 L13.001,20.16 C13.351,19.94 13.811,20.04 14.041,20.39 C14.261,20.74 14.161,21.2 13.811,21.43 L12.401,22.34 C11.951,22.61 11.441,22.75 10.931,22.75 Z"/>
  <path fill="#292D32" d="M16.879,20.25 C14.959,20.25 13.149,19.23 12.169,17.58 C11.649,16.74 11.379,15.76 11.379,14.75 C11.379,11.72 13.849,9.25 16.879,9.25 C19.909,9.25 22.379,11.72 22.379,14.75 C22.379,15.76 22.099,16.74 21.579,17.59 C20.609,19.23 18.809,20.25 16.879,20.25 Z M16.879,10.75 C14.669,10.75 12.879,12.54 12.879,14.75 C12.879,15.48 13.079,16.19 13.459,16.8 C14.179,18.01 15.489,18.75 16.879,18.75 C18.299,18.75 19.579,18.03 20.299,16.81 C20.679,16.19 20.879,15.48 20.879,14.75 C20.879,12.54 19.089,10.75 16.879,10.75 Z"/>
  <path fill="#292D32" d="M18.15,16.74 C17.96,16.74 17.77,16.67 17.62,16.52 L15.11,14.01 C14.82,13.72 14.82,13.24 15.11,12.95 C15.4,12.66 15.88,12.66 16.17,12.95 L18.68,15.46 C18.97,15.75 18.97,16.23 18.68,16.52 C18.54,16.67 18.35,16.74 18.15,16.74 Z"/>
  <path fill="#292D32" d="M15.62,16.77 C15.431,16.77 15.241,16.7 15.091,16.55 C14.8,16.26 14.8,15.78 15.091,15.49 L17.601,12.98 C17.89,12.69 18.37,12.69 18.66,12.98 C18.951,13.27 18.951,13.75 18.66,14.04 L16.151,16.55 C16,16.7 15.81,16.77 15.62,16.77 Z"/>
  <path fill="#292D32" d="M10.931,22.75 C10.451,22.75 9.971,22.63 9.541,22.39 C8.651,21.89 8.121,20.99 8.121,19.98 L8.121,14.63 C8.121,14.13 7.791,13.37 7.471,12.98 L3.671,8.99 C3.041,8.34 2.551,7.25 2.551,6.45 L2.551,4.12 C2.551,2.51 3.771,1.25 5.321,1.25 L18.661,1.25 C20.191,1.25 21.431,2.49 21.431,4.02 L21.431,6.24 C21.431,7.29 20.811,8.47 20.211,9.09 L18.411,10.68 C18.231,10.84 17.971,10.9 17.741,10.85 C17.471,10.78 17.181,10.75 16.881,10.75 C14.671,10.75 12.881,12.54 12.881,14.75 C12.881,15.48 13.081,16.19 13.461,16.81 C13.781,17.34 14.211,17.78 14.711,18.09 C14.931,18.23 15.071,18.47 15.071,18.73 L15.071,19.07 C15.071,19.86 14.591,20.97 13.791,21.44 L12.411,22.33 C11.961,22.61 11.441,22.75 10.931,22.75 Z M5.331,2.75 C4.621,2.75 4.061,3.35 4.061,4.12 L4.061,6.45 C4.061,6.81 4.361,7.55 4.761,7.95 L8.611,12 C9.121,12.63 9.631,13.7 9.631,14.64 L9.631,19.99 C9.631,20.65 10.091,20.98 10.281,21.09 C10.711,21.33 11.221,21.32 11.611,21.08 L13.011,20.18 C13.281,20.02 13.551,19.51 13.571,19.15 C13.021,18.74 12.541,18.21 12.181,17.61 C11.661,16.76 11.381,15.78 11.381,14.78 C11.381,11.75 13.851,9.28 16.881,9.28 C17.161,9.28 17.441,9.3 17.701,9.34 L19.181,8.03 C19.521,7.68 19.941,6.85 19.941,6.26 L19.941,4.04 C19.941,3.34 19.371,2.77 18.671,2.77 L5.331,2.77 L5.331,2.75 Z"/>
</svg>

