<svg xmlns="http://www.w3.org/2000/svg" width="24" height="24" viewBox="0 0 24 24">
  <defs/>
  <path fill="#292D32" d="M5.33,1.25 L18.67,1.25 Q21.44,1.25 21.44,4.02 L21.44,6.24 Q21.44,7.861 20.21,9.09 Q19.991,9.31 19.68,9.31 Q19.369,9.31 19.15,9.09 Q18.93,8.871 18.93,8.56 Q18.93,8.249 19.15,8.03 Q19.94,7.239 19.94,6.24 L19.94,4.02 Q19.94,2.75 18.67,2.75 L5.33,2.75 Q5.019,2.75 4.8,2.53 Q4.58,2.311 4.58,2 Q4.58,1.689 4.8,1.47 Q5.019,1.25 5.33,1.25 Z"/>
  <path fill="#292D32" d="M13.817,21.42 L12.407,22.33 Q11.034,23.179 9.592,22.414 Q8.121,21.631 8.121,19.98 L8.121,14.63 Q8.121,13.777 7.497,13.006 L3.683,8.993 Q2.561,7.866 2.561,6.45 Q2.561,6.139 2.78,5.92 Q3,5.7 3.311,5.7 Q3.621,5.7 3.841,5.92 Q4.061,6.139 4.061,6.45 Q4.061,7.249 4.751,7.94 Q4.758,7.946 4.764,7.953 L8.604,11.993 Q8.623,12.013 8.641,12.034 Q9.621,13.23 9.621,14.63 L9.621,19.98 Q9.621,20.73 10.296,21.089 Q10.977,21.451 11.594,21.07 L13.004,20.16 Q13.265,19.991 13.568,20.057 Q13.872,20.122 14.041,20.383 Q14.209,20.644 14.144,20.948 Q14.078,21.252 13.817,21.42 Z"/>
  <path fill="#292D32" d="M16.55,11.36 Q18.19,9.719 19.82,11.35 Q20.696,12.226 20.603,13.173 Q20.529,13.922 19.82,14.63 L16.289,18.162 Q15.89,18.584 15.265,18.683 L13.916,18.872 Q13.178,18.978 12.69,18.49 Q12.202,18.003 12.307,17.265 L12.499,15.903 Q12.592,15.318 13.01,14.9 Z M17.611,12.42 L14.07,15.96 Q13.997,16.033 13.981,16.137 L13.807,17.373 L15.056,17.197 Q15.152,17.182 15.201,17.13 Q15.21,17.119 15.22,17.11 L18.76,13.57 Q19.089,13.241 19.11,13.025 Q19.134,12.784 18.76,12.41 Q18.19,11.841 17.611,12.42 Z"/>
  <path fill="#292D32" d="M17.303,12.189 Q17.672,13.518 19.001,13.887 Q19.3,13.97 19.453,14.241 Q19.606,14.511 19.523,14.811 Q19.439,15.11 19.169,15.263 Q18.899,15.416 18.599,15.333 Q16.454,14.737 15.857,12.591 Q15.774,12.291 15.927,12.021 Q16.08,11.75 16.379,11.667 Q16.679,11.584 16.949,11.737 Q17.22,11.89 17.303,12.189 Z"/>
</svg>

