<svg xmlns="http://www.w3.org/2000/svg" width="24" height="24" viewBox="0 0 24 24">
  <defs/>
  <path fill="#292D32" d="M19.749,15.41 L18.899,14.56 C19.339,13.89 19.599,13.1 19.599,12.24 C19.599,9.9 17.699,8 15.359,8 C13.019,8 11.119,9.9 11.119,12.24 C11.119,14.58 13.019,16.48 15.359,16.48 C16.219,16.48 17.019,16.22 17.679,15.78 L18.529,16.63 C18.699,16.8 18.919,16.88 19.139,16.88 C19.359,16.88 19.579,16.8 19.749,16.63 C20.079,16.29 20.079,15.74 19.749,15.41 Z"/>
  <path fill="#292D32" opacity="0.4" d="M5.41,2 L18.58,2 C19.68,2 20.58,2.91 20.58,4.02 L20.58,6.24 C20.58,7.05 20.08,8.06 19.58,8.56 L15.29,12.4 C14.69,12.91 14.29,13.92 14.29,14.72 L14.29,19.06 C14.29,19.67 13.89,20.47 13.39,20.78 L11.99,21.69 C10.69,22.5 8.9,21.59 8.9,19.97 L8.9,14.62 C8.9,13.91 8.5,13 8.1,12.5 L4.31,8.46 C3.81,7.95 3.41,7.05 3.41,6.44 L3.41,4.12 C3.42,2.91 4.32,2 5.41,2 Z"/>
</svg>

