<svg xmlns="http://www.w3.org/2000/svg" width="24" height="24" viewBox="0 0 24 24">
  <defs/>
  <path fill="#292D32" d="M20.721,18.24 L19.781,17.3 C20.271,16.56 20.561,15.67 20.561,14.71 C20.561,12.11 18.451,10 15.851,10 C13.251,10 11.141,12.11 11.141,14.71 C11.141,17.31 13.251,19.42 15.851,19.42 C16.811,19.42 17.691,19.13 18.441,18.64 L19.381,19.58 C19.571,19.77 19.811,19.86 20.061,19.86 C20.311,19.86 20.551,19.77 20.741,19.58 C21.091,19.22 21.091,18.62 20.721,18.24 Z"/>
  <path fill="#292D32" d="M19.58,4.02 L19.58,6.24 C19.58,7.05 19.08,8.06 18.58,8.57 L18.4,8.73 C18.26,8.86 18.05,8.89 17.87,8.83 C17.67,8.76 17.47,8.71 17.27,8.66 C16.83,8.55 16.36,8.5 15.88,8.5 C12.43,8.5 9.63,11.3 9.63,14.75 C9.63,15.89 9.94,17.01 10.53,17.97 C11.03,18.81 11.73,19.51 12.49,19.98 C12.72,20.13 12.81,20.45 12.61,20.63 C12.54,20.69 12.47,20.74 12.4,20.79 L11,21.7 C9.7,22.51 7.91,21.6 7.91,19.98 L7.91,14.63 C7.91,13.92 7.51,13.01 7.11,12.51 L3.32,8.47 C2.82,7.96 2.42,7.05 2.42,6.45 L2.42,4.12 C2.42,2.91 3.32,2 4.41,2 L17.59,2 C18.68,2 19.58,2.91 19.58,4.02 Z"/>
</svg>

