<svg xmlns="http://www.w3.org/2000/svg" width="24" height="24" viewBox="0 0 24 24">
  <defs/>
  <path fill="#292D32" d="M11.38,18.9 C11.05,18.9 10.72,18.82 10.42,18.65 C9.81,18.31 9.44,17.69 9.44,16.99 L9.44,13.91 C9.44,13.72 9.29,13.35 9.14,13.16 L6.97,10.88 C6.56,10.47 6.25,9.75 6.25,9.2 L6.25,7.87 C6.25,6.76 7.09,5.9 8.16,5.9 L15.83,5.9 C16.88,5.9 17.74,6.76 17.74,7.81 L17.74,9.09 C17.74,9.79 17.34,10.56 16.94,10.96 L14.41,13.2 C14.25,13.34 14.08,13.69 14.08,13.98 L14.08,16.48 C14.08,17.11 13.7,17.81 13.19,18.11 L12.4,18.62 C12.09,18.81 11.74,18.9 11.38,18.9 Z M8.16,7.4 C7.92,7.4 7.75,7.6 7.75,7.87 L7.75,9.2 C7.75,9.33 7.89,9.67 8.05,9.83 L10.27,12.17 C10.61,12.6 10.94,13.29 10.94,13.91 L10.94,16.99 C10.94,17.19 11.07,17.3 11.15,17.34 C11.26,17.4 11.44,17.44 11.6,17.34 L12.4,16.82 C12.48,16.76 12.58,16.56 12.58,16.46 L12.58,13.96 C12.58,13.25 12.93,12.46 13.43,12.05 L15.91,9.85 C16.04,9.72 16.24,9.32 16.24,9.07 L16.24,7.81 C16.24,7.59 16.05,7.4 15.83,7.4 L8.16,7.4 Z"/>
  <path fill="#292D32" d="M15,22.75 L9,22.75 C3.57,22.75 1.25,20.43 1.25,15 L1.25,9 C1.25,3.57 3.57,1.25 9,1.25 L15,1.25 C20.43,1.25 22.75,3.57 22.75,9 L22.75,15 C22.75,20.43 20.43,22.75 15,22.75 Z M9,2.75 C4.39,2.75 2.75,4.39 2.75,9 L2.75,15 C2.75,19.61 4.39,21.25 9,21.25 L15,21.25 C19.61,21.25 21.25,19.61 21.25,15 L21.25,9 C21.25,4.39 19.61,2.75 15,2.75 L9,2.75 Z"/>
</svg>

