<svg xmlns="http://www.w3.org/2000/svg" width="24" height="24" viewBox="0 0 24 24">
  <defs/>
  <path fill="#292D32" d="M22.381,14.75 Q22.381,16.282 21.581,17.591 Q20.001,20.25 16.881,20.25 Q13.772,20.25 12.177,17.585 Q11.381,16.3 11.381,14.75 Q11.381,12.474 12.993,10.862 Q14.605,9.25 16.881,9.25 Q19.157,9.25 20.769,10.862 Q22.381,12.474 22.381,14.75 Z M20.881,14.75 Q20.881,10.75 16.881,10.75 Q15.227,10.75 14.054,11.923 Q12.881,13.096 12.881,14.75 Q12.881,15.873 13.464,16.815 Q14.623,18.75 16.881,18.75 Q19.147,18.75 20.301,16.809 Q20.881,15.86 20.881,14.75 Z"/>
  <path fill="#292D32" d="M18.659,15.48 L15.109,15.48 Q14.799,15.48 14.579,15.26 Q14.359,15.041 14.359,14.73 Q14.359,14.419 14.579,14.2 Q14.799,13.98 15.109,13.98 L18.659,13.98 Q18.97,13.98 19.19,14.2 Q19.409,14.419 19.409,14.73 Q19.409,15.041 19.19,15.26 Q18.97,15.48 18.659,15.48 Z"/>
  <path fill="#292D32" d="M17.629,13 L17.629,16.55 Q17.629,16.861 17.409,17.08 Q17.19,17.3 16.879,17.3 Q16.568,17.3 16.349,17.08 Q16.129,16.861 16.129,16.55 L16.129,13 Q16.129,12.689 16.349,12.47 Q16.568,12.25 16.879,12.25 Q17.19,12.25 17.409,12.47 Q17.629,12.689 17.629,13 Z"/>
  <path fill="#292D32" opacity="0.4" d="M21.441,4.02 L21.441,6.24 Q21.441,7.846 20.216,9.095 Q20.197,9.115 20.176,9.133 L18.416,10.683 Q18.123,10.941 17.744,10.849 Q17.336,10.75 16.881,10.75 Q15.226,10.75 14.053,11.923 Q12.881,13.096 12.881,14.75 Q12.88,15.86 13.46,16.809 Q13.944,17.62 14.712,18.091 Q15.071,18.31 15.071,18.73 L15.071,19.07 Q15.071,20.675 13.805,21.428 L12.407,22.33 Q11.034,23.179 9.592,22.414 Q8.121,21.632 8.121,19.98 L8.121,14.63 Q8.121,13.798 7.494,13.003 L3.677,8.987 Q2.561,7.848 2.561,6.45 L2.561,4.12 Q2.561,2.917 3.365,2.085 Q4.172,1.25 5.331,1.25 L18.67,1.25 Q21.44,1.25 21.441,4.02 Z M19.941,4.02 Q19.94,2.75 18.67,2.75 L5.331,2.75 Q4.809,2.75 4.443,3.128 Q4.061,3.524 4.061,4.12 L4.061,6.45 Q4.061,7.235 4.764,7.953 L8.604,11.993 Q8.626,12.016 8.646,12.041 Q9.621,13.259 9.621,14.63 L9.621,19.98 Q9.621,20.73 10.296,21.089 Q10.977,21.451 11.594,21.07 L13.004,20.16 Q13.017,20.151 13.03,20.144 Q13.549,19.838 13.57,19.129 Q12.732,18.515 12.181,17.591 Q11.38,16.282 11.381,14.75 Q11.38,12.474 12.993,10.862 Q14.605,9.25 16.881,9.25 Q17.303,9.25 17.703,9.313 L19.163,8.026 Q19.941,7.222 19.941,6.24 Z"/>
</svg>

