<svg xmlns="http://www.w3.org/2000/svg" width="24" height="24" viewBox="0 0 24 24">
  <defs/>
  <path fill="#292D32" d="M20.95,4.13 C20.66,3.71 20.29,3.34 19.87,3.05 C18.92,2.36 17.68,2 16.19,2 L7.81,2 C7.61,2 7.41,2.01 7.22,2.03 C3.94,2.24 2,4.37 2,7.81 L2,16.19 C2,17.68 2.36,18.92 3.05,19.87 C3.34,20.29 3.71,20.66 4.13,20.95 C4.95,21.55 5.99,21.9 7.22,21.98 C7.41,21.99 7.61,22 7.81,22 L16.19,22 C19.83,22 22,19.83 22,16.19 L22,7.81 C22,6.32 21.64,5.08 20.95,4.13 Z M8.46,10.68 L7.97,10.17 C7.71,9.91 7.5,9.44 7.5,9.12 L7.5,7.92 C7.5,7.29 7.97,6.82 8.55,6.82 L10.69,6.82 C11.1,6.82 11.35,7.27 11.13,7.62 L9.28,10.6 C9.1,10.89 8.69,10.93 8.46,10.68 Z M16.5,9.02 C16.5,9.44 16.24,9.96 15.98,10.22 L13.73,12.21 C13.42,12.47 13.21,12.99 13.21,13.41 L13.21,15.66 C13.21,15.97 13,16.39 12.74,16.55 L12,17.02 C11.32,17.44 10.38,16.97 10.38,16.13 L10.38,13.36 C10.38,12.99 10.17,12.52 9.96,12.26 L9.72,12 C9.56,11.83 9.53,11.57 9.65,11.36 L12.33,7.06 C12.43,6.91 12.59,6.81 12.77,6.81 L15.45,6.81 C16.03,6.81 16.5,7.28 16.5,7.86 L16.5,9.02 Z"/>
</svg>

