<svg xmlns="http://www.w3.org/2000/svg" width="24" height="24" viewBox="0 0 24 24">
  <defs/>
  <path fill="#292D32" d="M15.07,19.07 Q15.07,20.653 13.809,21.425 L12.407,22.33 Q11.033,23.179 9.592,22.414 Q8.12,21.632 8.12,19.98 L8.12,14.63 Q8.12,13.777 7.497,13.006 L3.683,8.993 Q2.56,7.866 2.56,6.45 L2.56,4.13 Q2.56,1.26 5.33,1.26 L18.67,1.26 Q21.44,1.26 21.44,4.03 L21.44,6.25 Q21.44,7.871 20.21,9.1 Q19.991,9.32 19.68,9.32 Q19.369,9.32 19.15,9.1 Q18.93,8.881 18.93,8.57 Q18.93,8.259 19.15,8.04 Q19.94,7.249 19.94,6.25 L19.94,4.03 Q19.94,2.76 18.67,2.76 L5.33,2.76 Q4.06,2.76 4.06,4.13 L4.06,6.45 Q4.06,7.249 4.75,7.94 Q4.757,7.946 4.764,7.953 L8.604,11.993 Q8.623,12.013 8.64,12.034 Q9.62,13.23 9.62,14.63 L9.62,19.98 Q9.62,20.73 10.296,21.089 Q10.977,21.451 11.593,21.07 L13.003,20.16 Q13.012,20.154 13.02,20.149 Q13.57,19.815 13.57,19.07 Q13.57,18.759 13.79,18.54 Q14.009,18.32 14.32,18.32 Q14.631,18.32 14.85,18.54 Q15.07,18.759 15.07,19.07 Z"/>
  <path fill="#292D32" d="M16.07,17.27 Q12.12,17.27 12.12,13.32 Q12.12,11.684 13.277,10.527 Q14.434,9.37 16.07,9.37 Q17.706,9.37 18.863,10.527 Q20.02,11.684 20.02,13.32 Q20.02,17.27 16.07,17.27 Z M16.07,15.77 Q18.52,15.77 18.52,13.32 Q18.52,10.87 16.07,10.87 Q13.62,10.87 13.62,13.32 Q13.62,14.335 14.338,15.052 Q15.055,15.77 16.07,15.77 Z"/>
  <path fill="#292D32" d="M19.34,17.65 L18.34,16.65 Q18.12,16.431 18.12,16.12 Q18.12,15.809 18.34,15.59 Q18.559,15.37 18.87,15.37 Q19.181,15.37 19.4,15.59 L20.4,16.59 Q20.62,16.809 20.62,17.12 Q20.62,17.431 20.4,17.65 Q20.181,17.87 19.87,17.87 Q19.559,17.87 19.34,17.65 Z"/>
</svg>

