<svg xmlns="http://www.w3.org/2000/svg" width="24" height="24" viewBox="0 0 24 24">
  <defs/>
  <path fill="#292D32" d="M17.921,10.12 C17.591,10.04 17.241,10 16.881,10 C14.261,10 12.131,12.13 12.131,14.75 C12.131,15.64 12.381,16.48 12.821,17.2 C13.191,17.82 13.701,18.35 14.321,18.73 C15.061,19.22 15.941,19.5 16.881,19.5 C18.621,19.5 20.131,18.57 20.951,17.2 C21.391,16.48 21.631,15.64 21.631,14.75 C21.631,12.49 20.051,10.59 17.921,10.12 Z M19.251,14.13 L16.711,16.47 C16.571,16.6 16.381,16.67 16.201,16.67 C16.011,16.67 15.821,16.6 15.671,16.45 L14.501,15.28 C14.211,14.99 14.211,14.51 14.501,14.22 C14.791,13.93 15.271,13.93 15.561,14.22 L16.221,14.88 L18.231,13.03 C18.541,12.75 19.011,12.77 19.291,13.07 C19.571,13.38 19.551,13.85 19.251,14.13 Z"/>
  <path fill="#292D32" d="M20.58,4.02 L20.58,6.24 C20.58,7.05 20.08,8.06 19.58,8.57 L19.4,8.73 C19.26,8.86 19.05,8.89 18.87,8.83 C18.67,8.76 18.47,8.71 18.27,8.66 C17.83,8.55 17.36,8.5 16.88,8.5 C13.43,8.5 10.63,11.3 10.63,14.75 C10.63,15.89 10.94,17.01 11.53,17.97 C12.03,18.81 12.73,19.51 13.49,19.98 C13.72,20.13 13.81,20.45 13.61,20.63 C13.54,20.69 13.47,20.74 13.4,20.79 L12,21.7 C10.7,22.51 8.91,21.6 8.91,19.98 L8.91,14.63 C8.91,13.92 8.51,13.01 8.11,12.51 L4.32,8.47 C3.82,7.96 3.42,7.05 3.42,6.45 L3.42,4.12 C3.42,2.91 4.32,2 5.41,2 L18.59,2 C19.68,2 20.58,2.91 20.58,4.02 Z"/>
</svg>

