<svg xmlns="http://www.w3.org/2000/svg" width="24" height="24" viewBox="0 0 24 24">
  <defs/>
  <path fill="#292D32" d="M20.601,4.102 L20.601,6.302 C20.601,7.102 20.101,8.102 19.601,8.602 L15.301,12.402 C14.701,12.902 14.301,13.902 14.301,14.702 L14.301,19.002 C14.301,19.602 13.901,20.402 13.401,20.702 L12.001,21.602 C10.701,22.402 8.901,21.502 8.901,19.902 L8.901,14.602 C8.901,13.902 8.501,13.002 8.101,12.502 L7.631,12.012 C7.321,11.682 7.261,11.182 7.511,10.792 L12.631,2.572 C12.811,2.282 13.131,2.102 13.481,2.102 L18.601,2.102 C19.701,2.102 20.601,3.002 20.601,4.102 Z"/>
  <path fill="#292D32" d="M10.35,3.632 L6.8,9.322 C6.46,9.872 5.68,9.952 5.23,9.482 L4.3,8.502 C3.8,8.002 3.4,7.102 3.4,6.502 L3.4,4.202 C3.4,3.002 4.3,2.102 5.4,2.102 L9.5,2.102 C10.28,2.102 10.76,2.962 10.35,3.632 Z"/>
</svg>

