<svg xmlns="http://www.w3.org/2000/svg" width="24" height="24" viewBox="0 0 24 24">
  <defs/>
  <path fill="#292D32" d="M16.879,20.25 C14.959,20.25 13.149,19.23 12.169,17.58 C11.649,16.74 11.379,15.76 11.379,14.75 C11.379,11.72 13.849,9.25 16.879,9.25 C19.909,9.25 22.379,11.72 22.379,14.75 C22.379,15.76 22.099,16.74 21.579,17.59 C20.609,19.23 18.809,20.25 16.879,20.25 Z M16.879,10.75 C14.669,10.75 12.879,12.54 12.879,14.75 C12.879,15.48 13.079,16.19 13.459,16.8 C14.179,18.01 15.489,18.75 16.879,18.75 C18.299,18.75 19.579,18.03 20.299,16.81 C20.679,16.19 20.879,15.48 20.879,14.75 C20.879,12.54 19.089,10.75 16.879,10.75 Z"/>
  <path fill="#292D32" d="M18.659,15.48 L15.109,15.48 C14.699,15.48 14.359,15.14 14.359,14.73 C14.359,14.32 14.699,13.98 15.109,13.98 L18.659,13.98 C19.069,13.98 19.409,14.32 19.409,14.73 C19.409,15.14 19.069,15.48 18.659,15.48 Z"/>
  <path fill="#292D32" d="M16.879,17.29 C16.469,17.29 16.129,16.95 16.129,16.54 L16.129,13 C16.129,12.59 16.469,12.25 16.879,12.25 C17.289,12.25 17.629,12.59 17.629,13 L17.629,16.55 C17.629,16.96 17.299,17.29 16.879,17.29 Z"/>
  <path fill="#292D32" d="M10.931,22.75 C10.451,22.75 9.971,22.63 9.541,22.39 C8.651,21.89 8.121,20.99 8.121,19.98 L8.121,14.63 C8.121,14.13 7.791,13.37 7.471,12.98 L3.671,8.99 C3.041,8.34 2.551,7.25 2.551,6.45 L2.551,4.12 C2.551,2.51 3.771,1.25 5.321,1.25 L18.661,1.25 C20.191,1.25 21.431,2.49 21.431,4.02 L21.431,6.24 C21.431,7.29 20.811,8.47 20.211,9.09 L18.411,10.68 C18.231,10.84 17.981,10.9 17.741,10.85 C17.471,10.78 17.181,10.75 16.881,10.75 C14.671,10.75 12.881,12.54 12.881,14.75 C12.881,15.48 13.081,16.19 13.461,16.81 C13.781,17.34 14.211,17.78 14.711,18.09 C14.931,18.23 15.071,18.47 15.071,18.73 L15.071,19.07 C15.071,19.86 14.591,20.97 13.791,21.44 L12.411,22.33 C11.961,22.61 11.441,22.75 10.931,22.75 Z M5.331,2.75 C4.621,2.75 4.061,3.35 4.061,4.12 L4.061,6.45 C4.061,6.81 4.361,7.55 4.761,7.95 L8.611,12 C9.121,12.63 9.631,13.7 9.631,14.64 L9.631,19.99 C9.631,20.65 10.091,20.98 10.281,21.09 C10.711,21.33 11.221,21.32 11.611,21.08 L13.011,20.18 C13.281,20.02 13.551,19.51 13.571,19.15 C13.021,18.74 12.541,18.21 12.181,17.61 C11.661,16.76 11.381,15.78 11.381,14.78 C11.381,11.75 13.851,9.28 16.881,9.28 C17.161,9.28 17.441,9.3 17.701,9.34 L19.181,8.03 C19.521,7.68 19.941,6.85 19.941,6.26 L19.941,4.04 C19.941,3.34 19.371,2.77 18.671,2.77 L5.331,2.77 L5.331,2.75 Z"/>
</svg>

