<svg xmlns="http://www.w3.org/2000/svg" width="24" height="24" viewBox="0 0 24 24">
  <defs/>
  <path fill="#292D32" d="M17.921,6.37 C17.591,6.29 17.241,6.25 16.881,6.25 C14.261,6.25 12.131,8.38 12.131,11 C12.131,11.89 12.381,12.73 12.821,13.45 C13.191,14.07 13.701,14.6 14.321,14.98 C15.061,15.47 15.941,15.75 16.881,15.75 C18.621,15.75 20.131,14.82 20.951,13.45 C21.391,12.73 21.631,11.89 21.631,11 C21.631,8.74 20.051,6.84 17.921,6.37 Z M18.831,10.57 L16.401,13 C16.311,13.09 16.121,13.18 15.991,13.2 L15.061,13.33 C14.721,13.38 14.491,13.14 14.541,12.81 L14.671,11.88 C14.691,11.75 14.781,11.57 14.871,11.47 L16.951,9.39 L17.301,9.04 C17.721,8.62 18.211,8.42 18.821,9.04 C19.431,9.66 19.251,10.15 18.831,10.57 Z"/>
  <path fill="#292D32" d="M20.58,4.02 L20.58,4.98 C20.58,5.39 20.11,5.64 19.74,5.45 C19.28,5.21 18.79,5.03 18.27,4.91 C17.83,4.8 17.36,4.75 16.88,4.75 C13.43,4.75 10.63,7.55 10.63,11 C10.63,12.14 10.94,13.26 11.53,14.22 C12.03,15.06 12.73,15.76 13.49,16.23 C13.66,16.34 13.84,16.44 14.01,16.54 C14.18,16.63 14.3,16.81 14.3,17 L14.3,19.07 C14.3,19.68 13.9,20.49 13.4,20.79 L12,21.7 C10.7,22.51 8.91,21.6 8.91,19.98 L8.91,14.63 C8.91,13.92 8.51,13.01 8.11,12.51 L4.32,8.47 C3.82,7.96 3.42,7.05 3.42,6.45 L3.42,4.12 C3.42,2.91 4.32,2 5.41,2 L18.59,2 C19.68,2 20.58,2.91 20.58,4.02 Z"/>
</svg>

