<svg xmlns="http://www.w3.org/2000/svg" width="24" height="24" viewBox="0 0 24 24">
  <defs/>
  <path fill="#292D32" opacity="0.4" d="M20.6,4.1 L20.6,6.3 C20.6,7.1 20.1,8.1 19.6,8.6 L15.3,12.4 C14.7,12.9 14.3,13.9 14.3,14.7 L14.3,19 C14.3,19.6 13.9,20.4 13.4,20.7 L12,21.6 C10.7,22.4 8.9,21.5 8.9,19.9 L8.9,14.6 C8.9,13.9 8.5,13 8.1,12.5 L7.1,11.45 L12.92,2.1 L18.6,2.1 C19.7,2.1 20.6,3 20.6,4.1 Z"/>
  <path fill="#292D32" d="M11.3,2.1 L6.12,10.41 L4.3,8.5 C3.8,8 3.4,7.1 3.4,6.5 L3.4,4.2 C3.4,3 4.3,2.1 5.4,2.1 L11.3,2.1 Z"/>
</svg>

