<svg xmlns="http://www.w3.org/2000/svg" width="24" height="24" viewBox="0 0 24 24">
  <defs/>
  <path fill="#292D32" d="M17.921,10.12 C17.591,10.04 17.241,10 16.881,10 C14.261,10 12.131,12.13 12.131,14.75 C12.131,15.64 12.381,16.48 12.821,17.2 C13.191,17.82 13.701,18.35 14.321,18.73 C15.061,19.22 15.941,19.5 16.881,19.5 C18.621,19.5 20.131,18.57 20.951,17.2 C21.391,16.48 21.631,15.64 21.631,14.75 C21.631,12.49 20.051,10.59 17.921,10.12 Z M19.251,14.13 L16.711,16.47 C16.571,16.6 16.381,16.67 16.201,16.67 C16.011,16.67 15.821,16.6 15.671,16.45 L14.501,15.28 C14.211,14.99 14.211,14.51 14.501,14.22 C14.791,13.93 15.271,13.93 15.561,14.22 L16.221,14.88 L18.231,13.03 C18.541,12.75 19.011,12.77 19.291,13.07 C19.571,13.38 19.551,13.85 19.251,14.13 Z"/>
  <path fill="#292D32" opacity="0.4" d="M5.41,2 L18.58,2 C19.68,2 20.58,2.91 20.58,4.02 L20.58,6.24 C20.58,7.05 20.08,8.06 19.58,8.56 L15.29,12.4 C14.69,12.91 14.29,13.92 14.29,14.72 L14.29,19.06 C14.29,19.67 13.89,20.47 13.39,20.78 L11.99,21.69 C10.69,22.5 8.9,21.59 8.9,19.97 L8.9,14.62 C8.9,13.91 8.5,13 8.1,12.5 L4.31,8.46 C3.81,7.95 3.41,7.05 3.41,6.44 L3.41,4.12 C3.42,2.91 4.32,2 5.41,2 Z"/>
</svg>

