<svg xmlns="http://www.w3.org/2000/svg" width="24" height="24" viewBox="0 0 24 24">
  <defs/>
  <path fill="#292D32" d="M16.881,10 C14.261,10 12.131,12.13 12.131,14.75 C12.131,15.64 12.381,16.48 12.821,17.2 C13.641,18.58 15.151,19.5 16.881,19.5 C18.611,19.5 20.121,18.57 20.941,17.2 C21.381,16.49 21.631,15.64 21.631,14.75 C21.631,12.13 19.511,10 16.881,10 Z M18.681,16.52 C18.531,16.67 18.341,16.74 18.151,16.74 C17.961,16.74 17.771,16.67 17.621,16.52 L16.901,15.8 L16.151,16.55 C16.001,16.7 15.811,16.77 15.621,16.77 C15.431,16.77 15.241,16.7 15.091,16.55 C14.801,16.26 14.801,15.78 15.091,15.49 L15.841,14.74 L15.121,14.01 C14.831,13.72 14.831,13.24 15.121,12.95 C15.411,12.66 15.891,12.66 16.181,12.95 L16.901,13.67 L17.601,12.97 C17.891,12.68 18.371,12.68 18.661,12.97 C18.951,13.26 18.951,13.74 18.661,14.03 L17.961,14.73 L18.681,15.46 C18.981,15.75 18.981,16.23 18.681,16.52 Z"/>
  <path fill="#292D32" d="M20.58,4.02 L20.58,6.24 C20.58,7.05 20.08,8.06 19.58,8.57 L19.4,8.73 C19.26,8.86 19.05,8.89 18.87,8.83 C18.67,8.76 18.47,8.71 18.27,8.66 C17.83,8.55 17.36,8.5 16.88,8.5 C13.43,8.5 10.63,11.3 10.63,14.75 C10.63,15.89 10.94,17.01 11.53,17.97 C12.03,18.81 12.73,19.51 13.49,19.98 C13.72,20.13 13.81,20.45 13.61,20.63 C13.54,20.69 13.47,20.74 13.4,20.79 L12,21.7 C10.7,22.51 8.91,21.6 8.91,19.98 L8.91,14.63 C8.91,13.92 8.51,13.01 8.11,12.51 L4.32,8.47 C3.82,7.96 3.42,7.05 3.42,6.45 L3.42,4.12 C3.42,2.91 4.32,2 5.41,2 L18.59,2 C19.68,2 20.58,2.91 20.58,4.02 Z"/>
</svg>

