<svg xmlns="http://www.w3.org/2000/svg" width="24" height="24" viewBox="0 0 24 24">
  <defs/>
  <path fill="#292D32" d="M13.817,21.42 L12.407,22.33 Q11.033,23.179 9.592,22.414 Q8.12,21.632 8.12,19.98 L8.12,14.63 Q8.12,13.777 7.497,13.006 L3.683,8.993 Q2.56,7.866 2.56,6.45 L2.56,4.13 Q2.56,1.26 5.33,1.26 L18.67,1.26 Q21.44,1.26 21.44,4.03 L21.44,6.25 Q21.44,7.871 20.21,9.1 Q19.991,9.32 19.68,9.32 Q19.369,9.32 19.15,9.1 Q18.93,8.881 18.93,8.57 Q18.93,8.259 19.15,8.04 Q19.94,7.249 19.94,6.25 L19.94,4.03 Q19.94,2.76 18.67,2.76 L5.33,2.76 Q4.06,2.76 4.06,4.13 L4.06,6.45 Q4.06,7.249 4.75,7.94 Q4.757,7.946 4.764,7.953 L8.604,11.993 Q8.623,12.013 8.64,12.034 Q9.62,13.23 9.62,14.63 L9.62,19.98 Q9.62,20.73 10.296,21.089 Q10.977,21.451 11.593,21.07 L13.003,20.16 Q13.264,19.991 13.568,20.057 Q13.872,20.122 14.04,20.383 Q14.209,20.644 14.143,20.948 Q14.078,21.252 13.817,21.42 Z"/>
  <path fill="#292D32" d="M16.55,11.36 Q17.256,10.653 18.003,10.576 Q18.95,10.479 19.82,11.35 Q20.696,12.226 20.603,13.173 Q20.528,13.922 19.82,14.63 L16.289,18.162 Q15.889,18.584 15.264,18.683 L13.916,18.872 Q13.177,18.978 12.69,18.49 Q12.202,18.003 12.307,17.265 L12.499,15.903 Q12.591,15.318 13.01,14.9 Z M17.61,12.42 L14.07,15.96 Q13.997,16.033 13.981,16.137 L13.807,17.373 L15.055,17.197 Q15.152,17.182 15.2,17.13 Q15.21,17.119 15.22,17.11 L18.76,13.57 Q19.088,13.241 19.11,13.025 Q19.134,12.784 18.76,12.41 Q18.393,12.044 18.157,12.069 Q17.94,12.091 17.61,12.42 Z"/>
  <path fill="#292D32" d="M17.303,12.189 Q17.672,13.518 19.001,13.887 Q19.3,13.971 19.453,14.241 Q19.606,14.511 19.523,14.811 Q19.439,15.11 19.169,15.263 Q18.898,15.416 18.599,15.333 Q16.453,14.737 15.857,12.591 Q15.774,12.291 15.927,12.021 Q16.08,11.751 16.379,11.667 Q16.679,11.584 16.949,11.737 Q17.219,11.89 17.303,12.189 Z"/>
</svg>

