<svg xmlns="http://www.w3.org/2000/svg" width="24" height="24" viewBox="0 0 24 24">
  <defs/>
  <path fill="#292D32" opacity="0.4" d="M22,7.81 L22,16.19 C22,19.83 19.83,22 16.19,22 L7.81,22 C7.61,22 7.41,21.99 7.22,21.98 C5.99,21.9 4.95,21.55 4.13,20.95 C3.71,20.66 3.34,20.29 3.05,19.87 C2.36,18.92 2,17.68 2,16.19 L2,7.81 C2,4.37 3.94,2.24 7.22,2.03 C7.41,2.01 7.61,2 7.81,2 L16.19,2 C17.68,2 18.92,2.36 19.87,3.05 C20.29,3.34 20.66,3.71 20.95,4.13 C21.64,5.08 22,6.32 22,7.81 Z"/>
  <path fill="#292D32" d="M8.16,6.65 L15.83,6.65 C16.47,6.65 16.99,7.17 16.99,7.81 L16.99,9.09 C16.99,9.56 16.7,10.14 16.41,10.43 L13.91,12.64 C13.56,12.93 13.33,13.51 13.33,13.98 L13.33,16.48 C13.33,16.83 13.1,17.29 12.81,17.47 L12,17.98 C11.24,18.45 10.2,17.92 10.2,16.99 L10.2,13.91 C10.2,13.5 9.97,12.98 9.73,12.69 L7.52,10.36 C7.23,10.08 7,9.55 7,9.2 L7,7.87 C7,7.17 7.52,6.65 8.16,6.65 Z"/>
</svg>

