<svg xmlns="http://www.w3.org/2000/svg" width="24" height="24" viewBox="0 0 24 24">
  <defs/>
  <path fill="#292D32" d="M10.931,22.75 C10.451,22.75 9.971,22.63 9.531,22.39 C8.641,21.89 8.111,21 8.111,19.99 L8.111,14.64 C8.111,14.13 7.781,13.38 7.471,12.99 L3.671,9 C3.041,8.37 2.551,7.27 2.551,6.46 L2.551,4.14 C2.551,2.53 3.771,1.27 5.321,1.27 L18.661,1.27 C20.191,1.27 21.431,2.51 21.431,4.04 L21.431,6.26 C21.431,7.31 20.801,8.52 20.201,9.11 C19.911,9.4 19.431,9.4 19.141,9.11 C18.851,8.82 18.851,8.34 19.141,8.05 C19.511,7.68 19.931,6.85 19.931,6.26 L19.931,4.04 C19.931,3.34 19.361,2.77 18.661,2.77 L5.321,2.77 C4.611,2.77 4.051,3.37 4.051,4.14 L4.051,6.46 C4.051,6.83 4.351,7.56 4.741,7.95 L8.591,12 C9.101,12.63 9.601,13.69 9.601,14.64 L9.601,19.99 C9.601,20.65 10.051,20.97 10.251,21.08 C10.681,21.32 11.191,21.31 11.591,21.07 L12.991,20.17 C13.281,20 13.561,19.45 13.561,19.08 C13.561,18.67 13.901,18.33 14.311,18.33 C14.721,18.33 15.061,18.67 15.061,19.08 C15.061,19.98 14.501,21.01 13.791,21.44 L12.401,22.34 C11.951,22.61 11.441,22.75 10.931,22.75 Z"/>
  <path fill="#292D32" d="M16.071,17.27 C13.891,17.27 12.121,15.5 12.121,13.32 C12.121,11.14 13.891,9.37 16.071,9.37 C18.251,9.37 20.021,11.14 20.021,13.32 C20.021,15.5 18.251,17.27 16.071,17.27 Z M16.071,10.87 C14.721,10.87 13.621,11.97 13.621,13.32 C13.621,14.67 14.721,15.77 16.071,15.77 C17.421,15.77 18.521,14.67 18.521,13.32 C18.521,11.97 17.421,10.87 16.071,10.87 Z"/>
  <path fill="#292D32" d="M19.87,17.87 C19.68,17.87 19.491,17.8 19.34,17.65 L18.34,16.65 C18.05,16.36 18.05,15.88 18.34,15.59 C18.631,15.3 19.11,15.3 19.401,15.59 L20.401,16.59 C20.691,16.88 20.691,17.36 20.401,17.65 C20.261,17.79 20.061,17.87 19.87,17.87 Z"/>
</svg>

