<svg xmlns="http://www.w3.org/2000/svg" width="24" height="24" viewBox="0 0 24 24">
  <defs/>
  <path fill="#292D32" opacity="0.4" d="M8.16,5.9 L15.83,5.9 Q17.74,5.9 17.74,7.81 L17.74,9.09 Q17.74,10.161 16.94,10.96 Q16.924,10.977 16.907,10.992 L14.407,13.202 Q14.398,13.21 14.389,13.217 Q14.08,13.473 14.08,13.98 L14.08,16.48 Q14.08,17.564 13.206,18.107 L12.4,18.615 Q11.451,19.201 10.461,18.671 Q9.45,18.13 9.45,16.99 L9.45,13.91 Q9.45,13.537 9.167,13.186 L6.986,10.887 Q6.25,10.168 6.25,9.2 L6.25,7.87 Q6.25,7.047 6.8,6.476 Q7.357,5.9 8.16,5.9 Z M8.16,7.4 Q7.75,7.4 7.75,7.87 L7.75,9.2 Q7.75,9.539 8.041,9.82 Q8.053,9.832 8.064,9.844 L10.274,12.174 Q10.292,12.192 10.308,12.212 Q10.95,12.988 10.95,13.91 L10.95,16.99 Q10.95,17.231 11.169,17.349 Q11.397,17.471 11.6,17.345 L12.414,16.833 Q12.58,16.73 12.58,16.48 L12.58,13.98 Q12.58,12.775 13.421,12.071 L15.894,9.885 Q16.24,9.53 16.24,9.09 L16.24,7.81 Q16.24,7.4 15.83,7.4 Z"/>
  <path fill="#292D32" d="M9,22.75 Q1.25,22.75 1.25,15 L1.25,9 Q1.25,1.25 9,1.25 L15,1.25 Q22.75,1.25 22.75,9 L22.75,15 Q22.75,22.75 15,22.75 Z M9,21.25 L15,21.25 Q18.439,21.25 19.845,19.845 Q21.25,18.439 21.25,15 L21.25,9 Q21.25,2.75 15,2.75 L9,2.75 Q2.75,2.75 2.75,9 L2.75,15 Q2.75,18.439 4.155,19.845 Q5.561,21.25 9,21.25 Z"/>
</svg>

