<svg xmlns="http://www.w3.org/2000/svg" width="24" height="24" viewBox="0 0 24 24">
  <defs/>
  <path fill="#292D32" d="M22.381,14.75 Q22.381,16.298 21.591,17.591 Q19.999,20.25 16.881,20.25 Q15.265,20.25 13.918,19.363 Q12.843,18.7 12.177,17.584 Q11.381,16.282 11.381,14.75 Q11.381,12.474 12.993,10.862 Q14.605,9.25 16.881,9.25 Q17.515,9.25 18.097,9.391 Q22.381,10.336 22.381,14.75 Z M20.881,14.75 Q20.881,11.541 17.744,10.849 Q17.336,10.75 16.881,10.75 Q15.227,10.75 14.054,11.923 Q12.881,13.096 12.881,14.75 Q12.881,15.86 13.465,16.816 Q13.945,17.62 14.713,18.091 Q14.724,18.097 14.735,18.105 Q15.71,18.75 16.881,18.75 Q19.149,18.75 20.311,16.809 Q20.881,15.876 20.881,14.75 Z"/>
  <path fill="#292D32" d="M15.56,14.22 L16.22,14.88 L18.22,13.03 Q18.448,12.819 18.758,12.831 Q19.069,12.843 19.28,13.071 Q19.491,13.299 19.479,13.609 Q19.467,13.92 19.238,14.131 L16.709,16.471 Q16.487,16.676 16.185,16.67 Q15.883,16.664 15.669,16.45 L14.499,15.28 Q14.279,15.061 14.279,14.75 Q14.279,14.439 14.499,14.22 Q14.719,14 15.029,14 Q15.34,14 15.56,14.22 Z"/>
  <path fill="#292D32" d="M5.331,1.25 L18.67,1.25 Q21.441,1.25 21.441,4.02 L21.441,6.24 Q21.441,7.846 20.216,9.095 Q20.197,9.115 20.176,9.133 L18.416,10.683 Q18.123,10.941 17.744,10.849 Q17.336,10.75 16.881,10.75 Q12.881,10.75 12.881,14.75 Q12.881,15.86 13.461,16.809 Q13.945,17.62 14.713,18.091 Q15.071,18.31 15.071,18.73 L15.071,19.07 Q15.071,20.675 13.805,21.428 L12.407,22.33 Q11.034,23.179 9.592,22.414 Q8.121,21.632 8.121,19.98 L8.121,14.63 Q8.121,13.798 7.494,13.003 L3.677,8.987 Q2.561,7.848 2.561,6.45 Q2.561,6.139 2.78,5.92 Q3,5.7 3.311,5.7 Q3.621,5.7 3.841,5.92 Q4.061,6.139 4.061,6.45 Q4.061,7.236 4.764,7.953 L8.604,11.993 Q8.626,12.016 8.646,12.041 Q9.621,13.259 9.621,14.63 L9.621,19.98 Q9.621,20.73 10.296,21.089 Q10.977,21.451 11.594,21.07 L13.004,20.16 Q13.017,20.151 13.03,20.144 Q13.549,19.838 13.57,19.129 Q12.732,18.515 12.181,17.591 Q11.381,16.282 11.381,14.75 Q11.381,12.474 12.993,10.862 Q14.605,9.25 16.881,9.25 Q17.303,9.25 17.703,9.313 L19.163,8.026 Q19.941,7.222 19.941,6.24 L19.941,4.02 Q19.941,2.75 18.67,2.75 L5.331,2.75 Q5.02,2.75 4.8,2.53 Q4.581,2.311 4.581,2 Q4.581,1.689 4.8,1.47 Q5.02,1.25 5.331,1.25 Z"/>
</svg>

