<svg xmlns="http://www.w3.org/2000/svg" width="24" height="24" viewBox="0 0 24 24">
  <defs/>
  <path fill="#292D32" d="M10.931,22.75 C10.451,22.75 9.971,22.63 9.531,22.39 C8.641,21.89 8.111,21 8.111,19.99 L8.111,14.64 C8.111,14.13 7.781,13.38 7.471,12.99 L3.671,9 C3.041,8.37 2.551,7.27 2.551,6.46 L2.551,4.14 C2.551,2.53 3.771,1.27 5.321,1.27 L18.661,1.27 C20.191,1.27 21.431,2.51 21.431,4.04 L21.431,6.26 C21.431,7.31 20.801,8.52 20.201,9.11 C19.911,9.4 19.431,9.4 19.141,9.11 C18.851,8.82 18.851,8.34 19.141,8.05 C19.511,7.68 19.931,6.85 19.931,6.26 L19.931,4.04 C19.931,3.34 19.361,2.77 18.661,2.77 L5.321,2.77 C4.611,2.77 4.051,3.37 4.051,4.14 L4.051,6.46 C4.051,6.83 4.351,7.56 4.741,7.95 L8.591,12 C9.101,12.63 9.601,13.69 9.601,14.64 L9.601,19.99 C9.601,20.65 10.051,20.97 10.251,21.08 C10.681,21.32 11.191,21.31 11.591,21.07 L12.991,20.17 C13.341,19.95 13.801,20.05 14.031,20.4 C14.251,20.75 14.151,21.21 13.811,21.44 L12.401,22.35 C11.951,22.61 11.441,22.75 10.931,22.75 Z"/>
  <path fill="#292D32" d="M13.691,18.89 C13.311,18.89 12.951,18.75 12.691,18.49 C12.381,18.18 12.241,17.73 12.311,17.26 L12.501,15.91 C12.551,15.56 12.761,15.15 13.011,14.9 L16.551,11.36 C17.031,10.88 17.501,10.63 18.011,10.58 C18.631,10.52 19.251,10.78 19.831,11.36 C20.411,11.94 20.671,12.55 20.611,13.18 C20.561,13.68 20.301,14.16 19.831,14.64 L16.291,18.18 C16.041,18.43 15.621,18.64 15.271,18.69 L13.921,18.88 C13.841,18.89 13.771,18.89 13.691,18.89 Z M18.181,12.06 C18.171,12.06 18.161,12.06 18.151,12.06 C18.011,12.07 17.821,12.19 17.611,12.41 L14.071,15.95 C14.041,15.98 13.991,16.08 13.991,16.12 L13.811,17.37 L15.061,17.19 C15.101,17.18 15.201,17.13 15.231,17.1 L18.771,13.56 C18.981,13.35 19.111,13.16 19.121,13.02 C19.141,12.82 18.941,12.58 18.771,12.41 C18.611,12.25 18.381,12.06 18.181,12.06 Z"/>
  <path fill="#292D32" d="M18.79,15.36 C18.72,15.36 18.65,15.35 18.59,15.33 C17.27,14.96 16.22,13.91 15.85,12.59 C15.74,12.19 15.97,11.78 16.37,11.66 C16.77,11.55 17.18,11.78 17.29,12.18 C17.52,13 18.17,13.65 18.99,13.88 C19.39,13.99 19.62,14.41 19.51,14.81 C19.42,15.15 19.12,15.36 18.79,15.36 Z"/>
</svg>

