<svg xmlns="http://www.w3.org/2000/svg" width="24" height="24" viewBox="0 0 24 24">
  <defs/>
  <path fill="#292D32" d="M13.817,21.42 L12.407,22.33 Q11.033,23.179 9.592,22.414 Q8.12,21.632 8.12,19.98 L8.12,14.63 Q8.12,13.777 7.497,13.006 L3.683,8.993 Q2.56,7.866 2.56,6.45 L2.56,4.13 Q2.56,1.26 5.33,1.26 L18.67,1.26 Q21.44,1.26 21.44,4.03 L21.44,6.25 Q21.44,7.871 20.21,9.1 Q19.991,9.32 19.68,9.32 Q19.369,9.32 19.15,9.1 Q18.93,8.881 18.93,8.57 Q18.93,8.259 19.15,8.04 Q19.94,7.249 19.94,6.25 L19.94,4.03 Q19.94,2.76 18.67,2.76 L5.33,2.76 Q4.06,2.76 4.06,4.13 L4.06,6.45 Q4.06,7.249 4.75,7.94 Q4.757,7.946 4.764,7.953 L8.604,11.993 Q8.623,12.013 8.64,12.034 Q9.62,13.23 9.62,14.63 L9.62,19.98 Q9.62,20.73 10.296,21.089 Q10.977,21.451 11.593,21.07 L13.003,20.16 Q13.264,19.991 13.568,20.057 Q13.872,20.122 14.04,20.383 Q14.209,20.644 14.143,20.948 Q14.078,21.252 13.817,21.42 Z"/>
  <path fill="#292D32" d="M22.38,14.75 Q22.38,16.282 21.58,17.591 Q20,20.25 16.88,20.25 Q13.771,20.25 12.176,17.585 Q11.38,16.3 11.38,14.75 Q11.38,12.474 12.992,10.862 Q14.604,9.25 16.88,9.25 Q19.156,9.25 20.768,10.862 Q22.38,12.474 22.38,14.75 Z M20.88,14.75 Q20.88,10.75 16.88,10.75 Q12.88,10.75 12.88,14.75 Q12.88,15.873 13.464,16.815 Q14.622,18.75 16.88,18.75 Q19.147,18.75 20.3,16.809 Q20.88,15.86 20.88,14.75 Z"/>
  <path fill="#292D32" d="M17.62,16.52 L15.11,14.01 Q14.89,13.791 14.89,13.48 Q14.89,13.169 15.11,12.95 Q15.329,12.73 15.64,12.73 Q15.951,12.73 16.17,12.95 L18.68,15.46 Q18.9,15.679 18.9,15.99 Q18.9,16.301 18.68,16.52 Q18.461,16.74 18.15,16.74 Q17.839,16.74 17.62,16.52 Z"/>
  <path fill="#292D32" d="M18.66,14.04 L16.15,16.55 Q15.931,16.77 15.62,16.77 Q15.309,16.77 15.09,16.55 Q14.87,16.331 14.87,16.02 Q14.87,15.709 15.09,15.49 L17.6,12.98 Q17.819,12.76 18.13,12.76 Q18.441,12.76 18.66,12.98 Q18.88,13.199 18.88,13.51 Q18.88,13.821 18.66,14.04 Z"/>
  <path fill="#292D32" d="M21.44,4.02 L21.44,6.24 Q21.44,7.846 20.216,9.095 Q20.196,9.115 20.176,9.133 L18.416,10.683 Q18.123,10.941 17.743,10.849 Q17.335,10.75 16.88,10.75 Q15.226,10.75 14.053,11.923 Q12.88,13.096 12.88,14.75 Q12.88,15.86 13.46,16.809 Q13.944,17.62 14.712,18.091 Q15.07,18.31 15.07,18.73 L15.07,19.07 Q15.07,20.675 13.805,21.428 L12.407,22.33 Q11.033,23.179 9.592,22.414 Q8.12,21.632 8.12,19.98 L8.12,14.63 Q8.12,13.798 7.493,13.003 L3.676,8.987 Q2.56,7.848 2.56,6.45 L2.56,4.12 Q2.56,1.25 5.33,1.25 L18.67,1.25 Q21.44,1.25 21.44,4.02 Z M19.94,4.02 Q19.94,2.75 18.67,2.75 L5.33,2.75 Q4.808,2.75 4.443,3.128 Q4.06,3.524 4.06,4.12 L4.06,6.45 Q4.06,7.235 4.764,7.953 L8.604,11.993 Q8.626,12.016 8.646,12.041 Q9.62,13.259 9.62,14.63 L9.62,19.98 Q9.62,20.73 10.296,21.089 Q10.977,21.451 11.593,21.07 L13.003,20.16 Q13.016,20.151 13.03,20.144 Q13.549,19.838 13.569,19.129 Q12.731,18.515 12.18,17.591 Q11.38,16.282 11.38,14.75 Q11.38,12.474 12.992,10.862 Q14.604,9.25 16.88,9.25 Q17.303,9.25 17.702,9.313 L19.163,8.026 Q19.94,7.222 19.94,6.24 Z"/>
</svg>

