<svg xmlns="http://www.w3.org/2000/svg" width="24" height="24" viewBox="0 0 24 24">
  <defs/>
  <path fill="#292D32" d="M10.94,22.65 C10.46,22.65 9.99,22.53 9.55,22.29 C8.67,21.8 8.14,20.91 8.14,19.91 L8.14,14.61 C8.14,14.11 7.81,13.36 7.5,12.98 L3.76,9.02 C3.13,8.39 2.65,7.31 2.65,6.5 L2.65,4.2 C2.65,2.6 3.86,1.35 5.4,1.35 L18.6,1.35 C20.12,1.35 21.35,2.58 21.35,4.1 L21.35,6.3 C21.35,7.35 20.72,8.54 20.13,9.13 L15.8,12.96 C15.38,13.31 15.05,14.08 15.05,14.7 L15.05,19 C15.05,19.89 14.49,20.92 13.79,21.34 L12.41,22.23 C11.96,22.51 11.45,22.65 10.94,22.65 Z M5.4,2.85 C4.7,2.85 4.15,3.44 4.15,4.2 L4.15,6.5 C4.15,6.87 4.45,7.59 4.83,7.97 L8.64,11.98 C9.15,12.61 9.65,13.66 9.65,14.6 L9.65,19.9 C9.65,20.55 10.1,20.87 10.29,20.97 C10.71,21.2 11.22,21.2 11.61,20.96 L13,20.07 C13.28,19.9 13.56,19.36 13.56,19 L13.56,14.7 C13.56,13.63 14.08,12.45 14.83,11.82 L19.11,8.03 C19.45,7.69 19.86,6.88 19.86,6.29 L19.86,4.1 C19.86,3.41 19.3,2.85 18.61,2.85 L5.4,2.85 Z"/>
  <path fill="#292D32" d="M6,10.75 C5.86,10.75 5.73,10.71 5.6,10.64 C5.25,10.42 5.14,9.95 5.36,9.6 L10.29,1.7 C10.51,1.35 10.97,1.24 11.32,1.46 C11.67,1.68 11.78,2.14 11.56,2.49 L6.63,10.39 C6.49,10.62 6.25,10.75 6,10.75 Z"/>
</svg>

