<svg xmlns="http://www.w3.org/2000/svg" width="24" height="24" viewBox="0 0 24 24">
  <defs/>
  <path fill="#292D32" d="M12,15.63 C10.68,15.63 9.6,14.55 9.6,13.23 L9.6,10.76 C9.6,9.44 10.68,8.36 12,8.36 C13.32,8.36 14.4,9.44 14.4,10.76 L14.4,13.23 C14.4,14.56 13.32,15.63 12,15.63 Z M12,9.87 C11.51,9.87 11.1,10.27 11.1,10.77 L11.1,13.24 C11.1,13.74 11.5,14.14 12,14.14 C12.5,14.14 12.9,13.74 12.9,13.24 L12.9,10.77 C12.9,10.27 12.49,9.87 12,9.87 Z"/>
  <path fill="#292D32" d="M12,18.82 C8.83,18.82 6.25,16.24 6.25,13.07 L6.25,10.93 C6.25,7.76 8.83,5.18 12,5.18 C14.96,5.18 17.42,7.4 17.72,10.34 C17.76,10.75 17.46,11.12 17.05,11.16 C16.64,11.21 16.27,10.9 16.23,10.49 C16.01,8.32 14.19,6.68 12,6.68 C9.66,6.68 7.75,8.59 7.75,10.93 L7.75,13.07 C7.75,15.41 9.66,17.32 12,17.32 C14.2,17.32 16.06,15.6 16.24,13.41 C16.27,13 16.63,12.69 17.05,12.72 C17.46,12.75 17.77,13.11 17.74,13.53 C17.5,16.5 14.98,18.82 12,18.82 Z"/>
  <path fill="#292D32" d="M22,9.75 C21.59,9.75 21.25,9.41 21.25,9 L21.25,7 C21.25,4.42 19.58,2.75 17,2.75 L15,2.75 C14.59,2.75 14.25,2.41 14.25,2 C14.25,1.59 14.59,1.25 15,1.25 L17,1.25 C20.44,1.25 22.75,3.56 22.75,7 L22.75,9 C22.75,9.41 22.41,9.75 22,9.75 Z"/>
  <path fill="#292D32" d="M2,9.75 C1.59,9.75 1.25,9.41 1.25,9 L1.25,7 C1.25,3.56 3.56,1.25 7,1.25 L9,1.25 C9.41,1.25 9.75,1.59 9.75,2 C9.75,2.41 9.41,2.75 9,2.75 L7,2.75 C4.42,2.75 2.75,4.42 2.75,7 L2.75,9 C2.75,9.41 2.41,9.75 2,9.75 Z"/>
  <path fill="#292D32" d="M17,22.75 L15,22.75 C14.59,22.75 14.25,22.41 14.25,22 C14.25,21.59 14.59,21.25 15,21.25 L17,21.25 C19.58,21.25 21.25,19.58 21.25,17 L21.25,15 C21.25,14.59 21.59,14.25 22,14.25 C22.41,14.25 22.75,14.59 22.75,15 L22.75,17 C22.75,20.44 20.44,22.75 17,22.75 Z"/>
  <path fill="#292D32" d="M9,22.75 L7,22.75 C3.56,22.75 1.25,20.44 1.25,17 L1.25,15 C1.25,14.59 1.59,14.25 2,14.25 C2.41,14.25 2.75,14.59 2.75,15 L2.75,17 C2.75,19.58 4.42,21.25 7,21.25 L9,21.25 C9.41,21.25 9.75,21.59 9.75,22 C9.75,22.41 9.41,22.75 9,22.75 Z"/>
</svg>

