<svg xmlns="http://www.w3.org/2000/svg" width="24" height="24" viewBox="0 0 24 24">
  <defs/>
  <path fill="#292D32" opacity="0.4" d="M16.99,10.93 L16.99,13.07 C16.99,14.95 15.95,16.6 14.41,17.45 C14.24,17.54 14.06,17.63 13.87,17.71 C13.59,17.82 13.3,17.91 13,17.97 C12.68,18.03 12.35,18.07 12.01,18.07 C12,18.07 12,18.07 11.99,18.07 C11.65,18.07 11.32,18.03 11,17.97 C10.71,17.91 10.42,17.82 10.14,17.71 L9.59,17.45 C9.46,17.37 9.33,17.3 9.21,17.21 C7.89,16.32 7.01,14.8 7.01,13.07 L7.01,10.93 C7.01,10.07 7.23,9.26 7.61,8.55 C7.69,8.41 7.77,8.27 7.86,8.14 C7.95,8 8.05,7.88 8.15,7.75 C8.25,7.63 8.36,7.51 8.47,7.4 C8.7,7.17 8.95,6.97 9.21,6.79 C9.35,6.7 9.48,6.61 9.63,6.53 C9.75,6.47 9.88,6.4 10.01,6.34 C10.18,6.27 10.35,6.2 10.52,6.16 C10.66,6.11 10.8,6.08 10.94,6.05 C10.97,6.03 11.01,6.03 11.05,6.02 C11.36,5.96 11.67,5.93 11.99,5.93 L12.01,5.93 C12.33,5.93 12.65,5.96 12.96,6.02 C12.97,6.03 12.99,6.03 13,6.03 C13.16,6.07 13.32,6.11 13.48,6.16 C13.64,6.2 13.79,6.26 13.94,6.32 C14.09,6.39 14.24,6.46 14.38,6.53 C14.8,6.77 15.19,7.06 15.53,7.4 C16.43,8.3 16.99,9.55 16.99,10.93 Z"/>
  <path fill="#292D32" d="M22,9.75 C21.59,9.75 21.25,9.41 21.25,9 L21.25,7 C21.25,4.42 19.58,2.75 17,2.75 L15,2.75 C14.59,2.75 14.25,2.41 14.25,2 C14.25,1.59 14.59,1.25 15,1.25 L17,1.25 C20.44,1.25 22.75,3.56 22.75,7 L22.75,9 C22.75,9.41 22.41,9.75 22,9.75 Z"/>
  <path fill="#292D32" d="M2,9.75 C1.59,9.75 1.25,9.41 1.25,9 L1.25,7 C1.25,3.56 3.56,1.25 7,1.25 L9,1.25 C9.41,1.25 9.75,1.59 9.75,2 C9.75,2.41 9.41,2.75 9,2.75 L7,2.75 C4.42,2.75 2.75,4.42 2.75,7 L2.75,9 C2.75,9.41 2.41,9.75 2,9.75 Z"/>
  <path fill="#292D32" d="M17,22.75 L15,22.75 C14.59,22.75 14.25,22.41 14.25,22 C14.25,21.59 14.59,21.25 15,21.25 L17,21.25 C19.58,21.25 21.25,19.58 21.25,17 L21.25,15 C21.25,14.59 21.59,14.25 22,14.25 C22.41,14.25 22.75,14.59 22.75,15 L22.75,17 C22.75,20.44 20.44,22.75 17,22.75 Z"/>
  <path fill="#292D32" d="M9,22.75 L7,22.75 C3.56,22.75 1.25,20.44 1.25,17 L1.25,15 C1.25,14.59 1.59,14.25 2,14.25 C2.41,14.25 2.75,14.59 2.75,15 L2.75,17 C2.75,19.58 4.42,21.25 7,21.25 L9,21.25 C9.41,21.25 9.75,21.59 9.75,22 C9.75,22.41 9.41,22.75 9,22.75 Z"/>
  <path fill="#292D32" d="M12,15.63 C10.68,15.63 9.6,14.55 9.6,13.23 L9.6,10.76 C9.6,9.44 10.68,8.36 12,8.36 C13.32,8.36 14.4,9.44 14.4,10.76 L14.4,13.23 C14.4,14.56 13.32,15.63 12,15.63 Z M12,9.87 C11.51,9.87 11.1,10.27 11.1,10.77 L11.1,13.24 C11.1,13.74 11.5,14.14 12,14.14 C12.5,14.14 12.9,13.74 12.9,13.24 L12.9,10.77 C12.9,10.27 12.49,9.87 12,9.87 Z"/>
</svg>

