<svg xmlns="http://www.w3.org/2000/svg" width="24" height="24" viewBox="0 0 24 24">
  <defs/>
  <path fill="#292D32" d="M12,8.37 Q12.993,8.37 13.696,9.073 Q14.4,9.777 14.4,10.77 L14.4,13.24 Q14.4,14.233 13.696,14.937 Q12.993,15.64 12,15.64 Q9.6,15.64 9.6,13.24 Q9.6,12.929 9.819,12.71 Q10.039,12.49 10.35,12.49 Q10.66,12.49 10.88,12.71 Q11.1,12.929 11.1,13.24 Q11.1,13.612 11.364,13.876 Q11.628,14.14 12,14.14 Q12.371,14.14 12.636,13.876 Q12.9,13.612 12.9,13.24 L12.9,10.77 Q12.9,9.87 12,9.87 Q11.689,9.87 11.469,9.65 Q11.25,9.431 11.25,9.12 Q11.25,8.809 11.469,8.59 Q11.689,8.37 12,8.37 Z"/>
  <path fill="#292D32" d="M17.728,13.528 Q17.555,15.76 15.907,17.287 Q14.255,18.82 12,18.82 Q9.619,18.82 7.935,17.135 Q6.25,15.451 6.25,13.07 L6.25,10.93 Q6.25,8.549 7.935,6.865 Q9.619,5.18 12,5.18 Q14.224,5.18 15.867,6.675 Q17.5,8.16 17.716,10.346 Q17.747,10.655 17.55,10.895 Q17.353,11.136 17.044,11.166 Q16.735,11.197 16.495,11 Q16.254,10.803 16.224,10.494 Q15.845,6.68 12,6.68 Q10.241,6.68 8.995,7.925 Q7.75,9.171 7.75,10.93 L7.75,13.07 Q7.75,14.829 8.995,16.075 Q10.241,17.32 12,17.32 Q15.929,17.32 16.232,13.412 Q16.256,13.102 16.492,12.9 Q16.728,12.698 17.038,12.722 Q17.348,12.746 17.55,12.982 Q17.752,13.218 17.728,13.528 Z"/>
  <path fill="#292D32" d="M15,1.25 L17,1.25 Q22.75,1.25 22.75,7 L22.75,9 Q22.75,9.311 22.53,9.53 Q22.311,9.75 22,9.75 Q21.689,9.75 21.47,9.53 Q21.25,9.311 21.25,9 L21.25,7 Q21.25,2.75 17,2.75 L15,2.75 Q14.689,2.75 14.47,2.53 Q14.25,2.311 14.25,2 Q14.25,1.689 14.47,1.47 Q14.689,1.25 15,1.25 Z"/>
  <path fill="#292D32" d="M1.25,9 L1.25,7 Q1.25,1.25 7,1.25 L9,1.25 Q9.311,1.25 9.53,1.47 Q9.75,1.689 9.75,2 Q9.75,2.311 9.53,2.53 Q9.311,2.75 9,2.75 L7,2.75 Q2.75,2.75 2.75,7 L2.75,9 Q2.75,9.311 2.53,9.53 Q2.311,9.75 2,9.75 Q1.689,9.75 1.47,9.53 Q1.25,9.311 1.25,9 Z"/>
  <path fill="#292D32" d="M15,21.25 L17,21.25 Q21.25,21.25 21.25,17 L21.25,15 Q21.25,14.689 21.47,14.47 Q21.689,14.25 22,14.25 Q22.311,14.25 22.53,14.47 Q22.75,14.689 22.75,15 L22.75,17 Q22.75,22.75 17,22.75 L15,22.75 Q14.689,22.75 14.47,22.53 Q14.25,22.311 14.25,22 Q14.25,21.689 14.47,21.47 Q14.689,21.25 15,21.25 Z"/>
  <path fill="#292D32" d="M2.75,15 L2.75,17 Q2.75,21.25 7,21.25 L9,21.25 Q9.311,21.25 9.53,21.47 Q9.75,21.689 9.75,22 Q9.75,22.311 9.53,22.53 Q9.311,22.75 9,22.75 L7,22.75 Q1.25,22.75 1.25,17 L1.25,15 Q1.25,14.689 1.47,14.47 Q1.689,14.25 2,14.25 Q2.311,14.25 2.53,14.47 Q2.75,14.689 2.75,15 Z"/>
</svg>

