<svg xmlns="http://www.w3.org/2000/svg" width="24" height="24" viewBox="0 0 24 24">
  <defs/>
  <path fill="#292D32" d="M22,9.75 C21.59,9.75 21.25,9.41 21.25,9 L21.25,7 C21.25,4.42 19.58,2.75 17,2.75 L15,2.75 C14.59,2.75 14.25,2.41 14.25,2 C14.25,1.59 14.59,1.25 15,1.25 L17,1.25 C20.44,1.25 22.75,3.56 22.75,7 L22.75,9 C22.75,9.41 22.41,9.75 22,9.75 Z"/>
  <path fill="#292D32" d="M2,9.75 C1.59,9.75 1.25,9.41 1.25,9 L1.25,7 C1.25,3.56 3.56,1.25 7,1.25 L9,1.25 C9.41,1.25 9.75,1.59 9.75,2 C9.75,2.41 9.41,2.75 9,2.75 L7,2.75 C4.42,2.75 2.75,4.42 2.75,7 L2.75,9 C2.75,9.41 2.41,9.75 2,9.75 Z"/>
  <path fill="#292D32" d="M17,22.75 L15,22.75 C14.59,22.75 14.25,22.41 14.25,22 C14.25,21.59 14.59,21.25 15,21.25 L17,21.25 C19.58,21.25 21.25,19.58 21.25,17 L21.25,15 C21.25,14.59 21.59,14.25 22,14.25 C22.41,14.25 22.75,14.59 22.75,15 L22.75,17 C22.75,20.44 20.44,22.75 17,22.75 Z"/>
  <path fill="#292D32" d="M9,22.75 L7,22.75 C3.56,22.75 1.25,20.44 1.25,17 L1.25,15 C1.25,14.59 1.59,14.25 2,14.25 C2.41,14.25 2.75,14.59 2.75,15 L2.75,17 C2.75,19.58 4.42,21.25 7,21.25 L9,21.25 C9.41,21.25 9.75,21.59 9.75,22 C9.75,22.41 9.41,22.75 9,22.75 Z"/>
  <path fill="#292D32" d="M12.002,9.871 C11.512,9.871 11.102,10.271 11.102,10.771 L11.102,13.241 C11.102,13.741 11.502,14.141 12.002,14.141 C12.502,14.141 12.902,13.741 12.902,13.241 L12.902,10.771 C12.902,10.271 12.492,9.871 12.002,9.871 Z"/>
  <path fill="#292D32" d="M15.532,7.4 C15.192,7.06 14.802,6.77 14.382,6.53 C14.242,6.46 14.092,6.39 13.942,6.32 C13.792,6.26 13.642,6.2 13.482,6.16 C13.322,6.11 13.162,6.07 13.002,6.03 C12.992,6.03 12.972,6.03 12.962,6.02 C12.652,5.96 12.332,5.93 12.012,5.93 L11.992,5.93 C11.672,5.93 11.362,5.96 11.052,6.02 C11.012,6.03 10.972,6.03 10.942,6.05 C10.802,6.08 10.662,6.11 10.522,6.16 C10.352,6.2 10.182,6.27 10.012,6.34 C9.882,6.4 9.752,6.47 9.632,6.53 C9.482,6.61 9.352,6.7 9.212,6.79 C8.952,6.97 8.702,7.17 8.472,7.4 C8.362,7.51 8.252,7.63 8.152,7.75 C8.052,7.88 7.952,8 7.862,8.14 C7.772,8.27 7.692,8.41 7.612,8.55 C7.232,9.26 7.012,10.07 7.012,10.93 L7.012,13.07 C7.012,14.8 7.892,16.32 9.212,17.21 C9.332,17.3 9.462,17.37 9.592,17.45 L10.142,17.71 C10.422,17.82 10.712,17.91 11.002,17.97 C11.322,18.03 11.652,18.07 11.992,18.07 C12.002,18.07 12.002,18.07 12.012,18.07 C12.352,18.07 12.682,18.03 13.002,17.97 C13.302,17.91 13.592,17.82 13.872,17.71 C14.062,17.63 14.242,17.54 14.412,17.45 C15.952,16.6 16.992,14.95 16.992,13.07 L16.992,10.93 C16.992,9.55 16.432,8.3 15.532,7.4 Z M14.402,13.24 C14.402,14.56 13.322,15.64 12.002,15.64 C10.682,15.64 9.602,14.56 9.602,13.24 L9.602,10.77 C9.602,9.45 10.682,8.37 12.002,8.37 C13.322,8.37 14.402,9.45 14.402,10.77 L14.402,13.24 Z"/>
</svg>

