<svg xmlns="http://www.w3.org/2000/svg" width="24" height="24" viewBox="0 0 24 24">
  <defs/>
  <path fill="#292D32" d="M12,22.75 C6.07,22.75 1.25,17.93 1.25,12 C1.25,6.07 6.07,1.25 12,1.25 C17.93,1.25 22.75,6.07 22.75,12 C22.75,17.93 17.93,22.75 12,22.75 Z M12,2.75 C6.9,2.75 2.75,6.9 2.75,12 C2.75,17.1 6.9,21.25 12,21.25 C17.1,21.25 21.25,17.1 21.25,12 C21.25,6.9 17.1,2.75 12,2.75 Z"/>
  <path fill="#292D32" d="M12,15.63 C10.68,15.63 9.6,14.55 9.6,13.23 L9.6,10.76 C9.6,9.44 10.68,8.36 12,8.36 C13.32,8.36 14.4,9.44 14.4,10.76 L14.4,13.23 C14.4,14.56 13.32,15.63 12,15.63 Z M12,9.87 C11.51,9.87 11.1,10.27 11.1,10.77 L11.1,13.24 C11.1,13.74 11.5,14.14 12,14.14 C12.5,14.14 12.9,13.74 12.9,13.24 L12.9,10.77 C12.9,10.27 12.49,9.87 12,9.87 Z"/>
  <path fill="#292D32" d="M12,18.82 C8.83,18.82 6.25,16.24 6.25,13.07 L6.25,10.93 C6.25,7.76 8.83,5.18 12,5.18 C14.96,5.18 17.42,7.4 17.72,10.34 C17.76,10.75 17.46,11.12 17.05,11.16 C16.64,11.21 16.27,10.9 16.23,10.49 C16.01,8.32 14.19,6.68 12,6.68 C9.66,6.68 7.75,8.59 7.75,10.93 L7.75,13.07 C7.75,15.41 9.66,17.32 12,17.32 C14.2,17.32 16.06,15.6 16.24,13.41 C16.27,13 16.63,12.69 17.05,12.72 C17.46,12.75 17.77,13.11 17.74,13.53 C17.5,16.5 14.98,18.82 12,18.82 Z"/>
</svg>

