<svg xmlns="http://www.w3.org/2000/svg" width="24" height="24" viewBox="0 0 24 24">
  <defs/>
  <path fill="#292D32" d="M12,7.949 C10.21,7.949 8.75,9.409 8.75,11.199 L8.75,12.799 C8.75,14.589 10.21,16.049 12,16.049 C13.79,16.049 15.25,14.589 15.25,12.799 L15.25,11.199 C15.25,9.409 13.79,7.949 12,7.949 Z M12.9,13.239 C12.9,13.739 12.5,14.139 12,14.139 C11.5,14.139 11.1,13.739 11.1,13.239 L11.1,10.769 C11.1,10.279 11.5,9.869 12,9.869 C12.5,9.869 12.9,10.269 12.9,10.769 L12.9,13.239 Z"/>
  <path fill="#292D32" d="M12,2 C6.48,2 2,6.48 2,12 C2,17.52 6.48,22 12,22 C17.52,22 22,17.52 22,12 C22,6.48 17.52,2 12,2 Z M16.75,12.8 C16.75,15.42 14.62,17.55 12,17.55 C9.38,17.55 7.25,15.42 7.25,12.8 L7.25,11.2 C7.25,8.58 9.38,6.45 12,6.45 C14.62,6.45 16.75,8.58 16.75,11.2 L16.75,12.8 Z"/>
</svg>

