<svg xmlns="http://www.w3.org/2000/svg" width="24" height="24" viewBox="0 0 24 24">
  <defs/>
  <path fill="#292D32" opacity="0.4" d="M12,22 C17.523,22 22,17.523 22,12 C22,6.477 17.523,2 12,2 C6.477,2 2,6.477 2,12 C2,17.523 6.477,22 12,22 Z"/>
  <path fill="#292D32" d="M12,9.87 C11.51,9.87 11.1,10.27 11.1,10.77 L11.1,13.24 C11.1,13.74 11.5,14.14 12,14.14 C12.5,14.14 12.9,13.74 12.9,13.24 L12.9,10.77 C12.9,10.27 12.49,9.87 12,9.87 Z"/>
  <path fill="#292D32" d="M12,17.55 C9.38,17.55 7.25,15.42 7.25,12.8 L7.25,11.2 C7.25,8.58 9.38,6.45 12,6.45 C14.62,6.45 16.75,8.58 16.75,11.2 L16.75,12.8 C16.75,15.42 14.62,17.55 12,17.55 Z M12,7.95 C10.21,7.95 8.75,9.41 8.75,11.2 L8.75,12.8 C8.75,14.59 10.21,16.05 12,16.05 C13.79,16.05 15.25,14.59 15.25,12.8 L15.25,11.2 C15.25,9.41 13.79,7.95 12,7.95 Z"/>
</svg>

