<svg xmlns="http://www.w3.org/2000/svg" width="24" height="24" viewBox="0 0 24 24">
  <defs/>
  <path fill="#292D32" d="M21,5.25 L14,5.25 C13.59,5.25 13.25,4.91 13.25,4.5 C13.25,4.09 13.59,3.75 14,3.75 L21,3.75 C21.41,3.75 21.75,4.09 21.75,4.5 C21.75,4.91 21.41,5.25 21,5.25 Z"/>
  <path fill="#292D32" d="M21,10.25 L14,10.25 C13.59,10.25 13.25,9.91 13.25,9.5 C13.25,9.09 13.59,8.75 14,8.75 L21,8.75 C21.41,8.75 21.75,9.09 21.75,9.5 C21.75,9.91 21.41,10.25 21,10.25 Z"/>
  <path fill="#292D32" d="M21,15.25 L3,15.25 C2.59,15.25 2.25,14.91 2.25,14.5 C2.25,14.09 2.59,13.75 3,13.75 L21,13.75 C21.41,13.75 21.75,14.09 21.75,14.5 C21.75,14.91 21.41,15.25 21,15.25 Z"/>
  <path fill="#292D32" d="M21,20.25 L3,20.25 C2.59,20.25 2.25,19.91 2.25,19.5 C2.25,19.09 2.59,18.75 3,18.75 L21,18.75 C21.41,18.75 21.75,19.09 21.75,19.5 C21.75,19.91 21.41,20.25 21,20.25 Z"/>
  <path fill="#292D32" d="M7.92,10.75 L5.08,10.75 C3.54,10.75 2.75,9.97 2.75,8.42 L2.75,5.58 C2.75,4.04 3.53,3.25 5.08,3.25 L7.93,3.25 C9.47,3.25 10.26,4.03 10.26,5.58 L10.26,8.43 C10.25,9.97 9.47,10.75 7.92,10.75 Z M5.08,4.75 C4.37,4.75 4.25,4.87 4.25,5.58 L4.25,8.43 C4.25,9.14 4.37,9.26 5.08,9.26 L7.93,9.26 C8.64,9.26 8.76,9.14 8.76,8.43 L8.76,5.58 C8.76,4.87 8.64,4.75 7.93,4.75 L5.08,4.75 Z"/>
</svg>

