<svg xmlns="http://www.w3.org/2000/svg" width="24" height="24" viewBox="0 0 24 24">
  <defs/>
  <path fill="#292D32" d="M21,5.25 L14,5.25 C13.59,5.25 13.25,4.91 13.25,4.5 C13.25,4.09 13.59,3.75 14,3.75 L21,3.75 C21.41,3.75 21.75,4.09 21.75,4.5 C21.75,4.91 21.41,5.25 21,5.25 Z"/>
  <path fill="#292D32" d="M21,10.25 L14,10.25 C13.59,10.25 13.25,9.91 13.25,9.5 C13.25,9.09 13.59,8.75 14,8.75 L21,8.75 C21.41,8.75 21.75,9.09 21.75,9.5 C21.75,9.91 21.41,10.25 21,10.25 Z"/>
  <path fill="#292D32" d="M21,15.25 L3,15.25 C2.59,15.25 2.25,14.91 2.25,14.5 C2.25,14.09 2.59,13.75 3,13.75 L21,13.75 C21.41,13.75 21.75,14.09 21.75,14.5 C21.75,14.91 21.41,15.25 21,15.25 Z"/>
  <path fill="#292D32" d="M21,20.25 L3,20.25 C2.59,20.25 2.25,19.91 2.25,19.5 C2.25,19.09 2.59,18.75 3,18.75 L21,18.75 C21.41,18.75 21.75,19.09 21.75,19.5 C21.75,19.91 21.41,20.25 21,20.25 Z"/>
  <path fill="#292D32" d="M7.92,3.5 L5.08,3.5 C3.68,3.5 3,4.18 3,5.58 L3,8.43 C3,9.83 3.68,10.51 5.08,10.51 L7.93,10.51 C9.33,10.51 10.01,9.83 10.01,8.43 L10.01,5.58 C10,4.18 9.32,3.5 7.92,3.5 Z"/>
</svg>

