<svg xmlns="http://www.w3.org/2000/svg" width="24" height="24" viewBox="0 0 24 24">
  <defs/>
  <path fill="#292D32" d="M5.9,2 L5.9,22 Q5.9,22.311 5.681,22.53 Q5.461,22.75 5.15,22.75 Q4.84,22.75 4.62,22.53 Q4.4,22.311 4.4,22 L4.4,2 Q4.4,1.689 4.62,1.47 Q4.84,1.25 5.15,1.25 Q5.461,1.25 5.681,1.47 Q5.9,1.689 5.9,2 Z"/>
  <path fill="#292D32" opacity="0.34" d="M5.15,3.25 L16.35,3.25 Q18.876,3.25 19.47,4.704 Q20.06,6.151 18.281,7.93 L17.081,9.13 Q16.7,9.511 16.7,10.037 Q16.7,10.535 17.044,10.836 Q17.063,10.852 17.081,10.87 L18.281,12.07 Q20.055,13.844 19.427,15.308 Q18.809,16.75 16.35,16.75 L5.15,16.75 Q4.84,16.75 4.62,16.53 Q4.4,16.311 4.4,16 Q4.4,15.689 4.62,15.47 Q4.84,15.25 5.15,15.25 L16.35,15.25 Q17.82,15.25 18.049,14.717 Q18.276,14.186 17.22,13.13 L16.036,11.947 Q15.2,11.201 15.2,10.037 Q15.2,8.889 16.02,8.07 L17.22,6.87 Q18.295,5.795 18.081,5.271 Q17.868,4.75 16.35,4.75 L5.15,4.75 Q4.84,4.75 4.62,4.53 Q4.4,4.311 4.4,4 Q4.4,3.689 4.62,3.47 Q4.84,3.25 5.15,3.25 Z"/>
</svg>

