<svg xmlns="http://www.w3.org/2000/svg" width="24" height="24" viewBox="0 0 24 24">
  <defs/>
  <path fill="#292D32" d="M7.199,2 L7.199,22 Q7.199,22.311 6.98,22.53 Q6.76,22.75 6.449,22.75 Q6.139,22.75 5.919,22.53 Q5.699,22.311 5.699,22 L5.699,2 Q5.699,1.689 5.919,1.47 Q6.139,1.25 6.449,1.25 Q6.76,1.25 6.98,1.47 Q7.199,1.689 7.199,2 Z"/>
  <path fill="#292D32" d="M15.342,6.81 Q18.246,8.042 18.299,10.106 Q18.351,12.143 15.593,13.566 L7.281,17.672 Q7.003,17.81 6.709,17.71 Q6.414,17.611 6.277,17.332 Q6.139,17.054 6.239,16.759 Q6.339,16.465 6.617,16.328 L14.905,12.234 Q16.828,11.241 16.799,10.144 Q16.771,9.045 14.756,8.19 Q14.47,8.069 14.354,7.781 Q14.237,7.493 14.359,7.207 Q14.48,6.921 14.768,6.805 Q15.056,6.688 15.342,6.81 Z"/>
  <path fill="#292D32" d="M7.246,3.311 L11.836,5.291 Q12.122,5.414 12.236,5.703 Q12.351,5.992 12.228,6.277 Q12.105,6.562 11.816,6.677 Q11.527,6.792 11.242,6.669 L6.652,4.689 Q6.367,4.566 6.252,4.277 Q6.138,3.988 6.261,3.703 Q6.384,3.418 6.672,3.303 Q6.961,3.188 7.246,3.311 Z"/>
</svg>

