<svg xmlns="http://www.w3.org/2000/svg" width="24" height="24" viewBox="0 0 24 24">
  <defs/>
  <path fill="#292D32" d="M6.449,22 C6.039,22 5.699,21.66 5.699,21.25 L5.699,2.75 C5.699,2.34 6.039,2 6.449,2 C6.859,2 7.199,2.34 7.199,2.75 L7.199,21.25 C7.199,21.66 6.859,22 6.449,22 Z"/>
  <path fill="#292D32" opacity="0.4" d="M15.2,7.16 L7.1,3.66 C6.98,3.6 6.85,3.62 6.74,3.69 C6.64,3.76 6.58,3.87 6.58,4 L6.58,17 C6.58,17.13 6.65,17.25 6.76,17.32 C6.82,17.36 6.89,17.38 6.96,17.38 C7.02,17.38 7.07,17.37 7.13,17.34 L15.43,13.24 C15.43,13.24 15.43,13.24 15.44,13.24 C17.1,12.38 17.99,11.27 17.94,10.1 C17.88,8.92 16.91,7.88 15.2,7.16 Z"/>
</svg>

