<svg xmlns="http://www.w3.org/2000/svg" width="24" height="24" viewBox="0 0 24 24">
  <defs/>
  <path fill="#292D32" d="M18.02,12.33 L16.8,11.11 C16.51,10.86 16.34,10.49 16.33,10.08 C16.31,9.63 16.49,9.18 16.82,8.85 L18.02,7.65 C19.06,6.61 19.45,5.61 19.12,4.82 C18.8,4.04 17.81,3.61 16.35,3.61 L5.9,3.61 L5.9,2.75 C5.9,2.34 5.56,2 5.15,2 C4.74,2 4.4,2.34 4.4,2.75 L4.4,21.25 C4.4,21.66 4.74,22 5.15,22 C5.56,22 5.9,21.66 5.9,21.25 L5.9,16.37 L16.35,16.37 C17.79,16.37 18.76,15.93 19.09,15.14 C19.42,14.35 19.04,13.36 18.02,12.33 Z"/>
</svg>

