<svg xmlns="http://www.w3.org/2000/svg" width="24" height="24" viewBox="0 0 24 24">
  <defs/>
  <path fill="#292D32" d="M7.2,2 L7.2,22 Q7.2,22.311 6.98,22.53 Q6.761,22.75 6.45,22.75 Q6.139,22.75 5.92,22.53 Q5.7,22.311 5.7,22 L5.7,2 Q5.7,1.689 5.92,1.47 Q6.139,1.25 6.45,1.25 Q6.761,1.25 6.98,1.47 Q7.2,1.689 7.2,2 Z"/>
  <path fill="#292D32" d="M7.247,3.312 L15.347,6.812 Q18.247,8.042 18.3,10.106 Q18.352,12.143 15.594,13.566 L7.282,17.672 Q7.004,17.81 6.709,17.71 Q6.415,17.611 6.278,17.332 Q6.14,17.054 6.24,16.759 Q6.339,16.465 6.618,16.328 L14.906,12.234 Q16.828,11.241 16.8,10.144 Q16.772,9.045 14.753,8.188 L6.653,4.688 Q6.367,4.565 6.253,4.276 Q6.138,3.988 6.262,3.703 Q6.385,3.417 6.674,3.303 Q6.962,3.188 7.247,3.312 Z"/>
</svg>

