<svg xmlns="http://www.w3.org/2000/svg" width="24" height="24" viewBox="0 0 24 24">
  <defs/>
  <path fill="#292D32" d="M5.15,22 C4.74,22 4.4,21.66 4.4,21.25 L4.4,2.75 C4.4,2.34 4.74,2 5.15,2 C5.56,2 5.9,2.34 5.9,2.75 L5.9,21.25 C5.9,21.66 5.56,22 5.15,22 Z"/>
  <path fill="#292D32" opacity="0.4" d="M18.02,12.33 L16.799,11.11 C16.509,10.86 16.34,10.49 16.329,10.08 C16.309,9.63 16.489,9.18 16.82,8.85 L18.02,7.65 C19.059,6.61 19.45,5.61 19.119,4.82 C18.799,4.04 17.809,3.61 16.349,3.61 L5.15,3.61 C4.94,3.62 4.77,3.79 4.77,4 L4.77,16 C4.77,16.21 4.94,16.38 5.15,16.38 L16.349,16.38 C17.79,16.38 18.759,15.94 19.09,15.15 C19.419,14.35 19.04,13.36 18.02,12.33 Z"/>
</svg>

