<svg xmlns="http://www.w3.org/2000/svg" width="24" height="24" viewBox="0 0 24 24">
  <defs/>
  <path fill="#292D32" d="M5.15,22.75 C4.74,22.75 4.4,22.41 4.4,22 L4.4,2 C4.4,1.59 4.74,1.25 5.15,1.25 C5.56,1.25 5.9,1.59 5.9,2 L5.9,22 C5.9,22.41 5.56,22.75 5.15,22.75 Z"/>
  <path fill="#292D32" d="M16.35,16.75 L5.15,16.75 C4.74,16.75 4.4,16.41 4.4,16 C4.4,15.59 4.74,15.25 5.15,15.25 L16.35,15.25 C17.44,15.25 17.95,14.96 18.05,14.71 C18.15,14.46 18,13.9 17.22,13.13 L16.02,11.93 C15.53,11.5 15.23,10.85 15.2,10.13 C15.17,9.37 15.47,8.62 16.02,8.07 L17.22,6.87 C17.96,6.13 18.19,5.53 18.08,5.27 C17.97,5.01 17.4,4.75 16.35,4.75 L5.15,4.75 C4.73,4.75 4.4,4.41 4.4,4 C4.4,3.59 4.74,3.25 5.15,3.25 L16.35,3.25 C18.54,3.25 19.24,4.16 19.47,4.7 C19.69,5.24 19.84,6.38 18.28,7.94 L17.08,9.14 C16.83,9.39 16.69,9.74 16.7,10.09 C16.71,10.39 16.83,10.66 17.04,10.85 L18.28,12.08 C19.81,13.61 19.66,14.75 19.44,15.3 C19.21,15.83 18.5,16.75 16.35,16.75 Z"/>
</svg>

