<svg xmlns="http://www.w3.org/2000/svg" width="24" height="24" viewBox="0 0 24 24">
  <defs/>
  <path fill="#292D32" d="M6.449,22.75 C6.039,22.75 5.699,22.41 5.699,22 L5.699,2 C5.699,1.59 6.039,1.25 6.449,1.25 C6.859,1.25 7.199,1.59 7.199,2 L7.199,22 C7.199,22.41 6.859,22.75 6.449,22.75 Z"/>
  <path fill="#292D32" d="M6.949,17.75 C6.669,17.75 6.409,17.6 6.279,17.33 C6.099,16.96 6.249,16.51 6.619,16.33 L14.919,12.23 C16.139,11.6 16.829,10.84 16.799,10.13 C16.769,9.44 16.029,8.73 14.759,8.19 L6.659,4.69 C6.269,4.52 6.099,4.08 6.259,3.7 C6.419,3.32 6.869,3.14 7.249,3.31 L15.349,6.81 C17.849,7.87 18.269,9.31 18.299,10.07 C18.349,11.4 17.389,12.64 15.599,13.56 L7.289,17.67 C7.179,17.73 7.059,17.75 6.949,17.75 Z"/>
</svg>

