<svg xmlns="http://www.w3.org/2000/svg" width="24" height="24" viewBox="0 0 24 24">
  <defs/>
  <path fill="#292D32" d="M7.199,2 L7.199,22 Q7.199,22.311 6.98,22.53 Q6.76,22.75 6.449,22.75 Q6.139,22.75 5.919,22.53 Q5.699,22.311 5.699,22 L5.699,2 Q5.699,1.689 5.919,1.47 Q6.139,1.25 6.449,1.25 Q6.76,1.25 6.98,1.47 Q7.199,1.689 7.199,2 Z"/>
  <path fill="#292D32" opacity="0.34" d="M7.247,3.312 L15.347,6.812 Q18.246,8.042 18.299,10.106 Q18.351,12.143 15.593,13.566 L7.281,17.672 Q7.003,17.81 6.709,17.71 Q6.414,17.611 6.277,17.332 Q6.139,17.054 6.239,16.759 Q6.339,16.465 6.617,16.328 L14.905,12.234 Q16.828,11.241 16.799,10.144 Q16.771,9.045 14.752,8.188 L6.652,4.688 Q6.367,4.565 6.252,4.276 Q6.138,3.988 6.261,3.703 Q6.384,3.417 6.673,3.303 Q6.962,3.188 7.247,3.312 Z"/>
</svg>

