<svg xmlns="http://www.w3.org/2000/svg" width="24" height="24" viewBox="0 0 24 24">
  <defs/>
  <path fill="#292D32" d="M9.991,22.75 C9.791,22.75 9.631,22.71 9.511,22.66 C9.111,22.51 8.431,22.02 8.431,20.47 L8.431,14.02 L6.091,14.02 C4.751,14.02 4.271,13.39 4.101,13.02 C3.931,12.64 3.781,11.87 4.661,10.86 L12.231,2.26 C13.251,1.1 14.081,1.18 14.481,1.33 C14.881,1.48 15.561,1.97 15.561,3.52 L15.561,9.97 L17.901,9.97 C19.241,9.97 19.721,10.6 19.891,10.97 C20.061,11.35 20.211,12.12 19.331,13.13 L11.761,21.73 C11.051,22.54 10.431,22.75 9.991,22.75 Z M13.931,2.74 C13.901,2.78 13.691,2.88 13.361,3.26 L5.791,11.86 C5.511,12.18 5.471,12.38 5.471,12.42 C5.491,12.43 5.671,12.53 6.091,12.53 L9.181,12.53 C9.591,12.53 9.931,12.87 9.931,13.28 L9.931,20.48 C9.931,20.98 10.021,21.2 10.061,21.26 C10.091,21.22 10.301,21.12 10.631,20.74 L18.201,12.14 C18.481,11.82 18.521,11.62 18.521,11.58 C18.501,11.57 18.321,11.47 17.901,11.47 L14.811,11.47 C14.401,11.47 14.061,11.13 14.061,10.72 L14.061,3.52 C14.071,3.02 13.971,2.81 13.931,2.74 Z"/>
</svg>

