<svg xmlns="http://www.w3.org/2000/svg" width="24" height="24" viewBox="0 0 24 24">
  <defs/>
  <path fill="#292D32" d="M11.069,18.17 C10.899,18.17 10.739,18.14 10.569,18.08 C10.019,17.87 9.659,17.36 9.659,16.77 L9.659,13.47 L8.679,13.47 C8.119,13.47 7.629,13.15 7.399,12.65 C7.169,12.14 7.259,11.57 7.629,11.15 L11.889,6.31 C12.279,5.87 12.879,5.72 13.429,5.93 C13.979,6.14 14.339,6.65 14.339,7.24 L14.339,10.54 L15.329,10.54 C15.889,10.54 16.379,10.86 16.609,11.36 C16.839,11.87 16.749,12.44 16.379,12.86 L12.119,17.7 C11.839,18 11.459,18.17 11.069,18.17 Z M8.899,11.97 L10.409,11.97 C10.819,11.97 11.159,12.31 11.159,12.72 L11.159,16.5 L15.099,12.03 L13.589,12.03 C13.179,12.03 12.839,11.69 12.839,11.28 L12.839,7.5 L8.899,11.97 Z"/>
  <path fill="#292D32" d="M11.971,22.75 C6.051,22.75 1.221,17.93 1.221,12 C1.221,6.07 6.051,1.25 11.971,1.25 C17.891,1.25 22.721,6.07 22.721,12 C22.721,17.93 17.901,22.75 11.971,22.75 Z M11.971,2.75 C6.871,2.75 2.721,6.9 2.721,12 C2.721,17.1 6.871,21.25 11.971,21.25 C17.071,21.25 21.221,17.1 21.221,12 C21.221,6.9 17.071,2.75 11.971,2.75 Z"/>
</svg>

