<svg xmlns="http://www.w3.org/2000/svg" width="24" height="24" viewBox="0 0 24 24">
  <defs/>
  <path fill="#292D32" d="M9.93,18.04 L9.93,20.48 Q9.93,21.22 10.037,21.26 Q10.146,21.301 10.637,20.744 L18.207,12.144 Q18.584,11.718 18.529,11.595 Q18.472,11.47 17.9,11.47 L16.97,11.47 Q16.659,11.47 16.439,11.25 Q16.22,11.031 16.22,10.72 Q16.22,10.409 16.439,10.19 Q16.659,9.97 16.97,9.97 L17.9,9.97 Q19.441,9.97 19.896,10.978 Q20.351,11.986 19.333,13.136 L11.762,21.736 Q10.588,23.069 9.51,22.665 Q8.43,22.259 8.43,20.48 L8.43,18.04 Q8.43,17.729 8.649,17.51 Q8.869,17.29 9.18,17.29 Q9.49,17.29 9.71,17.51 Q9.93,17.729 9.93,18.04 Z"/>
  <path fill="#292D32" d="M10.543,6.455 L5.783,11.865 Q5.406,12.292 5.461,12.415 Q5.518,12.54 6.09,12.54 L9.18,12.54 Q9.491,12.54 9.711,12.76 Q9.93,12.979 9.93,13.29 L9.93,14.47 Q9.93,14.781 9.711,15 Q9.491,15.22 9.18,15.22 Q8.87,15.22 8.65,15 Q8.43,14.781 8.43,14.47 L8.43,14.04 L6.09,14.04 Q4.549,14.04 4.094,13.032 Q3.639,12.024 4.657,10.875 L9.417,5.465 Q9.622,5.231 9.932,5.211 Q10.242,5.192 10.476,5.397 Q10.709,5.602 10.729,5.912 Q10.749,6.222 10.543,6.455 Z"/>
  <path fill="#292D32" d="M14.071,8.84 L14.071,3.52 Q14.071,2.78 13.963,2.74 Q13.854,2.699 13.364,3.256 Q13.158,3.489 12.848,3.508 Q12.538,3.528 12.305,3.323 Q12.072,3.117 12.052,2.807 Q12.033,2.497 12.238,2.264 Q13.413,0.931 14.491,1.335 Q15.571,1.741 15.571,3.52 L15.571,8.84 Q15.571,9.151 15.351,9.37 Q15.131,9.59 14.821,9.59 Q14.51,9.59 14.29,9.37 Q14.071,9.151 14.071,8.84 Z"/>
  <path fill="#292D32" d="M22.53,2.53 L2.53,22.53 Q2.311,22.75 2,22.75 Q1.689,22.75 1.47,22.53 Q1.25,22.311 1.25,22 Q1.25,21.689 1.47,21.47 L21.47,1.47 Q21.689,1.25 22,1.25 Q22.311,1.25 22.53,1.47 Q22.75,1.689 22.75,2 Q22.75,2.311 22.53,2.53 Z"/>
</svg>

