<svg xmlns="http://www.w3.org/2000/svg" width="24" height="24" viewBox="0 0 24 24">
  <defs/>
  <path fill="#292D32" opacity="0.4" d="M12,22 C17.523,22 22,17.523 22,12 C22,6.477 17.523,2 12,2 C6.477,2 2,6.477 2,12 C2,17.523 6.477,22 12,22 Z"/>
  <path fill="#292D32" d="M8.679,11.91 L10.329,12.32 L9.379,16.16 C9.159,17.06 9.599,17.36 10.359,16.83 L15.539,13.24 C16.169,12.8 16.079,12.29 15.329,12.1 L13.679,11.69 L14.629,7.85 C14.849,6.95 14.409,6.65 13.649,7.18 L8.469,10.77 C7.839,11.21 7.929,11.72 8.679,11.91 Z"/>
</svg>

