<svg xmlns="http://www.w3.org/2000/svg" width="24" height="24" viewBox="0 0 24 24">
  <defs/>
  <path fill="#292D32" opacity="0.4" d="M11.971,22 C17.494,22 21.971,17.523 21.971,12 C21.971,6.477 17.494,2 11.971,2 C6.448,2 1.971,6.477 1.971,12 C1.971,17.523 6.448,22 11.971,22 Z"/>
  <path fill="#292D32" d="M15.251,11.3 L13.55,11.3 L13.55,7.34 C13.55,6.42 13.05,6.23 12.441,6.92 L12.001,7.42 L8.28,11.65 C7.77,12.23 7.98,12.7 8.75,12.7 L10.45,12.7 L10.45,16.66 C10.45,17.58 10.95,17.77 11.56,17.08 L12.001,16.58 L15.72,12.35 C16.23,11.77 16.02,11.3 15.251,11.3 Z"/>
</svg>

