<svg xmlns="http://www.w3.org/2000/svg" width="24" height="24" viewBox="0 0 24 24">
  <defs/>
  <path fill="#292D32" d="M6.09,14.03 Q4.556,14.03 4.102,13.027 Q3.648,12.027 4.657,10.864 L12.227,2.264 Q13.402,0.931 14.48,1.335 Q15.56,1.741 15.56,3.52 L15.56,9.97 L17.9,9.97 Q19.441,9.97 19.896,10.978 Q20.351,11.986 19.333,13.136 L11.763,21.736 Q10.588,23.069 9.51,22.665 Q8.43,22.259 8.43,20.48 L8.43,14.03 Z M6.09,12.53 L9.18,12.53 Q9.491,12.53 9.71,12.75 Q9.93,12.969 9.93,13.28 L9.93,20.48 Q9.93,21.22 10.037,21.26 Q10.146,21.301 10.637,20.744 L18.207,12.144 Q18.585,11.718 18.529,11.595 Q18.473,11.47 17.9,11.47 L14.81,11.47 Q14.499,11.47 14.28,11.25 Q14.06,11.031 14.06,10.72 L14.06,3.52 Q14.06,2.78 13.953,2.74 Q13.844,2.699 13.353,3.256 L5.783,11.856 Q5.412,12.283 5.468,12.408 Q5.523,12.53 6.09,12.53 Z"/>
</svg>

