<svg xmlns="http://www.w3.org/2000/svg" width="24" height="24" viewBox="0 0 24 24">
  <defs/>
  <path fill="#292D32" d="M11.971,2 C6.451,2 1.971,6.48 1.971,12 C1.971,17.52 6.451,22 11.971,22 C17.491,22 21.971,17.52 21.971,12 C21.971,6.48 17.501,2 11.971,2 Z M15.721,12.35 L12.001,16.58 L11.561,17.08 C10.951,17.77 10.451,17.59 10.451,16.66 L10.451,12.7 L8.751,12.7 C7.981,12.7 7.771,12.23 8.281,11.65 L12.001,7.42 L12.441,6.92 C13.051,6.23 13.551,6.41 13.551,7.34 L13.551,11.3 L15.251,11.3 C16.021,11.3 16.231,11.77 15.721,12.35 Z"/>
</svg>

