<svg xmlns="http://www.w3.org/2000/svg" width="24" height="24" viewBox="0 0 24 24">
  <defs/>
  <path fill="#292D32" d="M13.57,22.38 C13.34,22.38 13.11,22.34 12.89,22.26 C12.14,21.98 11.66,21.28 11.66,20.48 L11.66,14.03 L9.32,14.03 C8.56,14.03 7.9,13.6 7.59,12.91 C7.28,12.22 7.4,11.44 7.9,10.87 L15.47,2.27 C16,1.67 16.82,1.46 17.57,1.75 C18.32,2.03 18.8,2.73 18.8,3.53 L18.8,9.98 L21.14,9.98 C21.9,9.98 22.56,10.41 22.87,11.1 C23.18,11.79 23.06,12.57 22.56,13.14 L14.99,21.74 C14.62,22.16 14.1,22.38 13.57,22.38 Z M16.88,3.12 C16.79,3.12 16.68,3.15 16.59,3.26 L9.02,11.87 C8.86,12.05 8.92,12.23 8.95,12.3 C8.98,12.37 9.08,12.54 9.32,12.54 L12.41,12.54 C12.82,12.54 13.16,12.88 13.16,13.29 L13.16,20.49 C13.16,20.74 13.34,20.84 13.42,20.87 C13.5,20.9 13.7,20.95 13.86,20.76 L21.43,12.15 C21.59,11.97 21.53,11.79 21.5,11.72 C21.47,11.65 21.37,11.48 21.13,11.48 L18.04,11.48 C17.63,11.48 17.29,11.14 17.29,10.73 L17.29,3.53 C17.29,3.28 17.11,3.18 17.03,3.15 C17,3.13 16.94,3.12 16.88,3.12 Z"/>
  <path fill="#292D32" d="M8.5,4.75 L1.5,4.75 C1.09,4.75 0.75,4.41 0.75,4 C0.75,3.59 1.09,3.25 1.5,3.25 L8.5,3.25 C8.91,3.25 9.25,3.59 9.25,4 C9.25,4.41 8.91,4.75 8.5,4.75 Z"/>
  <path fill="#292D32" d="M7.5,20.75 L1.5,20.75 C1.09,20.75 0.75,20.41 0.75,20 C0.75,19.59 1.09,19.25 1.5,19.25 L7.5,19.25 C7.91,19.25 8.25,19.59 8.25,20 C8.25,20.41 7.91,20.75 7.5,20.75 Z"/>
  <path fill="#292D32" d="M4.5,12.75 L1.5,12.75 C1.09,12.75 0.75,12.41 0.75,12 C0.75,11.59 1.09,11.25 1.5,11.25 L4.5,11.25 C4.91,11.25 5.25,11.59 5.25,12 C5.25,12.41 4.91,12.75 4.5,12.75 Z"/>
</svg>

