<svg xmlns="http://www.w3.org/2000/svg" width="24" height="24" viewBox="0 0 24 24">
  <defs/>
  <path fill="#292D32" d="M12,22.75 C6.07,22.75 1.25,17.93 1.25,12 C1.25,6.07 6.07,1.25 12,1.25 C17.93,1.25 22.75,6.07 22.75,12 C22.75,17.93 17.93,22.75 12,22.75 Z M12,2.75 C6.9,2.75 2.75,6.9 2.75,12 C2.75,17.1 6.9,21.25 12,21.25 C17.1,21.25 21.25,17.1 21.25,12 C21.25,6.9 17.1,2.75 12,2.75 Z"/>
  <path fill="#292D32" d="M9.71,17.84 C9.42,17.84 9.2,17.74 9.07,17.64 C8.8,17.46 8.39,17 8.65,15.97 L9.42,12.86 L8.5,12.63 C7.57,12.4 7.36,11.81 7.32,11.57 C7.28,11.33 7.26,10.7 8.04,10.15 L13.22,6.56 C14.09,5.96 14.66,6.18 14.93,6.36 C15.2,6.54 15.61,7 15.35,8.03 L14.58,11.14 L15.5,11.37 C16.43,11.6 16.64,12.19 16.68,12.44 C16.72,12.69 16.74,13.31 15.96,13.86 L10.78,17.45 C10.35,17.74 10,17.84 9.71,17.84 Z M9.11,11.24 L10.51,11.59 C10.91,11.69 11.16,12.1 11.06,12.5 L10.18,16.04 L14.89,12.77 L13.49,12.42 C13.09,12.32 12.84,11.91 12.94,11.51 L13.82,7.97 L9.11,11.24 Z"/>
</svg>

