<svg xmlns="http://www.w3.org/2000/svg" width="24" height="24" viewBox="0 0 24 24">
  <defs/>
  <path fill="#292D32" d="M9.32,13.281 L12.41,13.281 L12.41,20.481 C12.41,21.541 13.73,22.041 14.43,21.241 L22,12.641 C22.66,11.891 22.13,10.721 21.13,10.721 L18.04,10.721 L18.04,3.521 C18.04,2.461 16.72,1.961 16.02,2.761 L8.45,11.361 C7.8,12.111 8.33,13.281 9.32,13.281 Z"/>
  <path fill="#292D32" d="M8.5,4.75 L1.5,4.75 C1.09,4.75 0.75,4.41 0.75,4 C0.75,3.59 1.09,3.25 1.5,3.25 L8.5,3.25 C8.91,3.25 9.25,3.59 9.25,4 C9.25,4.41 8.91,4.75 8.5,4.75 Z"/>
  <path fill="#292D32" d="M7.5,20.75 L1.5,20.75 C1.09,20.75 0.75,20.41 0.75,20 C0.75,19.59 1.09,19.25 1.5,19.25 L7.5,19.25 C7.91,19.25 8.25,19.59 8.25,20 C8.25,20.41 7.91,20.75 7.5,20.75 Z"/>
  <path fill="#292D32" d="M4.5,12.75 L1.5,12.75 C1.09,12.75 0.75,12.41 0.75,12 C0.75,11.59 1.09,11.25 1.5,11.25 L4.5,11.25 C4.91,11.25 5.25,11.59 5.25,12 C5.25,12.41 4.91,12.75 4.5,12.75 Z"/>
</svg>

