<svg xmlns="http://www.w3.org/2000/svg" width="24" height="24" viewBox="0 0 24 24">
  <defs/>
  <path fill="#292D32" d="M21.437,12.135 Q21.612,11.936 21.505,11.698 Q21.397,11.46 21.13,11.46 L18.04,11.46 Q17.73,11.46 17.51,11.24 Q17.29,11.021 17.29,10.71 L17.29,3.51 Q17.29,3.233 17.028,3.134 Q16.767,3.036 16.585,3.244 L9.013,11.846 Q8.839,12.044 8.946,12.282 Q9.054,12.52 9.32,12.52 L12.41,12.52 Q12.721,12.52 12.941,12.74 Q13.16,12.959 13.16,13.27 L13.16,20.47 Q13.16,20.747 13.423,20.846 Q13.684,20.944 13.866,20.736 L18.497,15.474 Q18.703,15.241 19.013,15.222 Q19.323,15.202 19.556,15.407 Q19.789,15.612 19.809,15.922 Q19.829,16.232 19.623,16.466 L14.995,21.724 Q14.128,22.715 12.893,22.249 Q11.66,21.784 11.66,20.47 L11.66,14.02 L9.32,14.02 Q8.087,14.02 7.58,12.901 Q7.072,11.781 7.887,10.854 L15.456,2.256 Q16.323,1.265 17.558,1.731 Q18.79,2.196 18.79,3.51 L18.79,9.96 L21.13,9.96 Q22.364,9.96 22.871,11.079 Q23.379,12.199 22.563,13.125 Q22.358,13.359 22.048,13.378 Q21.738,13.398 21.505,13.193 Q21.272,12.988 21.252,12.678 Q21.232,12.368 21.437,12.135 Z"/>
  <path fill="#292D32" d="M8.5,4.75 L1.5,4.75 Q1.189,4.75 0.97,4.53 Q0.75,4.311 0.75,4 Q0.75,3.689 0.97,3.47 Q1.189,3.25 1.5,3.25 L8.5,3.25 Q8.811,3.25 9.03,3.47 Q9.25,3.689 9.25,4 Q9.25,4.311 9.03,4.53 Q8.811,4.75 8.5,4.75 Z"/>
  <path fill="#292D32" d="M7.5,20.75 L1.5,20.75 Q1.189,20.75 0.97,20.53 Q0.75,20.311 0.75,20 Q0.75,19.689 0.97,19.47 Q1.189,19.25 1.5,19.25 L7.5,19.25 Q7.811,19.25 8.03,19.47 Q8.25,19.689 8.25,20 Q8.25,20.311 8.03,20.53 Q7.811,20.75 7.5,20.75 Z"/>
  <path fill="#292D32" d="M4.5,12.75 L1.5,12.75 Q1.189,12.75 0.97,12.53 Q0.75,12.311 0.75,12 Q0.75,11.689 0.97,11.47 Q1.189,11.25 1.5,11.25 L4.5,11.25 Q4.811,11.25 5.03,11.47 Q5.25,11.689 5.25,12 Q5.25,12.311 5.03,12.53 Q4.811,12.75 4.5,12.75 Z"/>
</svg>

