<svg xmlns="http://www.w3.org/2000/svg" width="24" height="24" viewBox="0 0 24 24">
  <defs/>
  <path fill="#292D32" d="M14.07,7.02 L14.07,3.52 Q14.07,2.78 13.963,2.74 Q13.854,2.699 13.363,3.256 L5.793,11.855 Q5.415,12.282 5.471,12.405 Q5.527,12.53 6.1,12.53 L9.19,12.53 Q9.501,12.53 9.72,12.75 Q9.94,12.969 9.94,13.28 L9.94,20.48 Q9.94,21.22 10.047,21.26 Q10.156,21.301 10.647,20.744 L18.217,12.144 Q18.595,11.718 18.539,11.595 Q18.483,11.47 17.91,11.47 L14.82,11.47 Q14.509,11.47 14.29,11.25 Q14.07,11.031 14.07,10.72 Q14.07,10.409 14.29,10.19 Q14.509,9.97 14.82,9.97 L17.91,9.97 Q19.451,9.97 19.906,10.977 Q20.361,11.986 19.343,13.135 L11.773,21.736 Q10.598,23.069 9.52,22.665 Q8.44,22.259 8.44,20.48 L8.44,14.03 L6.1,14.03 Q4.559,14.03 4.104,13.022 Q3.649,12.014 4.667,10.864 L12.237,2.264 Q13.412,0.931 14.49,1.335 Q15.57,1.741 15.57,3.52 L15.57,7.02 Q15.57,7.331 15.35,7.55 Q15.131,7.77 14.82,7.77 Q14.509,7.77 14.29,7.55 Q14.07,7.331 14.07,7.02 Z"/>
</svg>

