<svg xmlns="http://www.w3.org/2000/svg" width="24" height="24" viewBox="0 0 24 24">
  <defs/>
  <path fill="#292D32" d="M8.495,12.637 Q7.466,12.376 7.319,11.568 Q7.172,10.761 8.042,10.154 L13.22,6.565 Q14.215,5.871 14.93,6.36 Q15.646,6.849 15.357,8.03 L14.587,11.143 L15.514,11.373 Q16.543,11.634 16.69,12.442 Q16.836,13.249 15.967,13.857 L10.788,17.445 Q9.794,18.139 9.079,17.651 Q8.363,17.161 8.651,15.98 L9.421,12.867 L8.499,12.638 Z M9.104,11.243 L10.51,11.592 Q10.812,11.667 10.972,11.933 Q11.132,12.199 11.057,12.5 L10.182,16.041 L14.905,12.767 L13.499,12.418 Q13.197,12.343 13.037,12.077 Q12.877,11.811 12.951,11.51 L13.827,7.969 L9.104,11.243 Z"/>
  <path fill="#292D32" d="M4.6,6.449 Q2.75,8.922 2.75,12 Q2.75,15.829 5.46,18.54 Q8.171,21.25 12,21.25 Q15.829,21.25 18.54,18.54 Q21.25,15.829 21.25,12 Q21.25,8.171 18.54,5.46 Q15.829,2.75 12,2.75 Q10.031,2.75 8.276,3.535 Q7.993,3.661 7.702,3.551 Q7.412,3.44 7.285,3.156 Q7.159,2.873 7.269,2.582 Q7.38,2.292 7.664,2.165 Q9.711,1.25 12,1.25 Q16.451,1.25 19.6,4.4 Q22.75,7.549 22.75,12 Q22.75,16.451 19.6,19.6 Q16.451,22.75 12,22.75 Q7.549,22.75 4.4,19.6 Q1.25,16.451 1.25,12 Q1.25,8.422 3.4,5.551 Q3.586,5.302 3.893,5.258 Q4.201,5.213 4.449,5.4 Q4.698,5.586 4.742,5.893 Q4.787,6.201 4.6,6.449 Z"/>
</svg>

