<svg xmlns="http://www.w3.org/2000/svg" width="24" height="24" viewBox="0 0 24 24">
  <defs/>
  <path fill="#292D32" d="M9.32,14.03 Q8.094,14.03 7.587,12.911 Q7.081,11.794 7.887,10.864 L15.455,2.266 Q16.323,1.275 17.557,1.741 Q18.79,2.206 18.79,3.52 L18.79,9.97 L21.13,9.97 Q22.363,9.97 22.871,11.089 Q23.378,12.209 22.563,13.136 L14.994,21.734 Q14.127,22.725 12.893,22.259 Q11.66,21.794 11.66,20.48 L11.66,14.03 Z M9.32,12.53 L12.41,12.53 Q12.721,12.53 12.94,12.75 Q13.16,12.969 13.16,13.28 L13.16,20.48 Q13.16,20.757 13.422,20.856 Q13.683,20.954 13.865,20.746 L21.437,12.144 Q21.612,11.946 21.504,11.708 Q21.396,11.47 21.13,11.47 L18.04,11.47 Q17.729,11.47 17.51,11.25 Q17.29,11.031 17.29,10.72 L17.29,3.52 Q17.29,3.243 17.028,3.144 Q16.766,3.046 16.584,3.254 L9.013,11.856 Q8.844,12.051 8.953,12.292 Q9.061,12.53 9.32,12.53 Z"/>
  <path fill="#292D32" d="M8.5,4.75 L1.5,4.75 Q1.189,4.75 0.97,4.53 Q0.75,4.311 0.75,4 Q0.75,3.689 0.97,3.47 Q1.189,3.25 1.5,3.25 L8.5,3.25 Q8.811,3.25 9.03,3.47 Q9.25,3.689 9.25,4 Q9.25,4.311 9.03,4.53 Q8.811,4.75 8.5,4.75 Z"/>
  <path fill="#292D32" d="M7.5,20.75 L1.5,20.75 Q1.189,20.75 0.97,20.53 Q0.75,20.311 0.75,20 Q0.75,19.689 0.97,19.47 Q1.189,19.25 1.5,19.25 L7.5,19.25 Q7.811,19.25 8.03,19.47 Q8.25,19.689 8.25,20 Q8.25,20.311 8.03,20.53 Q7.811,20.75 7.5,20.75 Z"/>
  <path fill="#292D32" d="M4.5,12.75 L1.5,12.75 Q1.189,12.75 0.97,12.53 Q0.75,12.311 0.75,12 Q0.75,11.689 0.97,11.47 Q1.189,11.25 1.5,11.25 L4.5,11.25 Q4.811,11.25 5.03,11.47 Q5.25,11.689 5.25,12 Q5.25,12.311 5.03,12.53 Q4.811,12.75 4.5,12.75 Z"/>
</svg>

