<svg xmlns="http://www.w3.org/2000/svg" width="24" height="24" viewBox="0 0 24 24">
  <defs/>
  <path fill="#292D32" d="M21.771,2.23 C21.471,1.93 20.981,1.93 20.681,2.23 L2.231,20.69 C1.931,20.99 1.931,21.48 2.231,21.78 C2.381,21.92 2.571,22 2.771,22 C2.971,22 3.161,21.92 3.311,21.77 L21.771,3.31 C22.081,3.01 22.081,2.53 21.771,2.23 Z"/>
  <path fill="#292D32" opacity="0.4" d="M14.82,3.52 L14.82,9.18 L9.181,14.82 L9.181,13.28 L6.09,13.28 C4.691,13.28 4.301,12.42 5.231,11.37 L12.001,3.67 L12.8,2.76 C13.911,1.5 14.82,1.84 14.82,3.52 Z"/>
  <path fill="#292D32" opacity="0.4" d="M18.77,12.63 L12,20.33 L11.2,21.24 C10.09,22.5 9.18,22.16 9.18,20.48 L9.18,17.82 L16.28,10.72 L17.91,10.72 C19.31,10.72 19.7,11.58 18.77,12.63 Z"/>
</svg>

