<svg xmlns="http://www.w3.org/2000/svg" width="24" height="24" viewBox="0 0 24 24">
  <defs/>
  <path fill="#292D32" d="M21.771,2.229 C21.471,1.929 20.981,1.929 20.681,2.229 L2.231,20.689 C1.931,20.989 1.931,21.479 2.231,21.779 C2.381,21.919 2.571,21.999 2.771,21.999 C2.971,21.999 3.161,21.919 3.311,21.769 L21.771,3.309 C22.081,3.009 22.081,2.529 21.771,2.229 Z"/>
  <path fill="#292D32" d="M14.82,3.521 L14.82,9.181 L9.181,14.821 L9.181,13.281 L6.09,13.281 C4.691,13.281 4.301,12.421 5.231,11.371 L12.001,3.671 L12.8,2.761 C13.911,1.501 14.82,1.841 14.82,3.521 Z"/>
  <path fill="#292D32" d="M18.77,12.629 L12,20.329 L11.2,21.239 C10.09,22.499 9.18,22.159 9.18,20.479 L9.18,17.819 L16.28,10.719 L17.91,10.719 C19.31,10.719 19.7,11.579 18.77,12.629 Z"/>
</svg>

