<svg xmlns="http://www.w3.org/2000/svg" width="24" height="24" viewBox="0 0 24 24">
  <defs/>
  <path fill="#292D32" d="M9.99,22.75 C9.79,22.75 9.63,22.71 9.51,22.66 C9.11,22.51 8.43,22.02 8.43,20.47 L8.43,18.03 C8.43,17.62 8.77,17.28 9.18,17.28 C9.59,17.28 9.93,17.62 9.93,18.03 L9.93,20.47 C9.93,20.97 10.02,21.19 10.06,21.25 C10.09,21.21 10.3,21.11 10.63,20.73 L18.2,12.13 C18.48,11.81 18.52,11.61 18.52,11.57 C18.5,11.56 18.32,11.46 17.9,11.46 L16.97,11.46 C16.56,11.46 16.22,11.12 16.22,10.71 C16.22,10.3 16.56,9.96 16.97,9.96 L17.9,9.96 C19.24,9.96 19.72,10.59 19.89,10.96 C20.06,11.34 20.21,12.11 19.33,13.12 L11.76,21.72 C11.05,22.54 10.43,22.75 9.99,22.75 Z"/>
  <path fill="#292D32" d="M9.181,15.22 C8.771,15.22 8.431,14.88 8.431,14.47 L8.431,14.04 L6.091,14.04 C4.751,14.04 4.271,13.41 4.101,13.04 C3.931,12.66 3.781,11.89 4.661,10.88 L12.231,2.28 C13.251,1.12 14.081,1.2 14.481,1.35 C14.881,1.5 15.561,1.99 15.561,3.54 L15.561,8.85 C15.561,9.26 15.221,9.6 14.811,9.6 C14.401,9.6 14.061,9.26 14.061,8.85 L14.061,3.52 C14.061,3.02 13.971,2.8 13.931,2.74 C13.901,2.78 13.691,2.88 13.361,3.26 L5.791,11.86 C5.511,12.18 5.471,12.38 5.471,12.42 C5.491,12.43 5.671,12.53 6.091,12.53 L9.181,12.53 C9.591,12.53 9.931,12.87 9.931,13.28 L9.931,14.46 C9.931,14.88 9.591,15.22 9.181,15.22 Z"/>
  <path fill="#292D32" d="M1.999,22.75 C1.809,22.75 1.619,22.68 1.469,22.53 C1.179,22.24 1.179,21.76 1.469,21.47 L21.47,1.47 C21.759,1.18 22.239,1.18 22.529,1.47 C22.82,1.76 22.82,2.24 22.529,2.53 L2.529,22.53 C2.379,22.68 2.189,22.75 1.999,22.75 Z"/>
</svg>

