<svg xmlns="http://www.w3.org/2000/svg" width="24" height="24" viewBox="0 0 24 24">
  <defs/>
  <path fill="#292D32" d="M8.681,13.47 Q7.777,13.47 7.404,12.648 Q7.03,11.823 7.628,11.145 L11.89,6.302 Q12.533,5.579 13.435,5.92 Q14.34,6.261 14.34,7.23 L14.34,10.53 L15.33,10.53 Q16.234,10.53 16.607,11.353 Q16.981,12.177 16.383,12.856 L12.121,17.698 Q11.478,18.421 10.576,18.08 Q9.67,17.739 9.67,16.77 L9.67,13.47 Z M8.899,11.97 L10.42,11.97 Q10.731,11.97 10.951,12.19 Q11.17,12.409 11.17,12.72 L11.17,16.508 L15.112,12.03 L13.59,12.03 Q13.28,12.03 13.06,11.81 Q12.84,11.591 12.84,11.28 L12.84,7.492 L8.899,11.97 Z"/>
  <path fill="#292D32" d="M4.6,6.449 Q2.75,8.922 2.75,12 Q2.75,15.829 5.46,18.54 Q8.171,21.25 12,21.25 Q15.829,21.25 18.54,18.54 Q21.25,15.829 21.25,12 Q21.25,8.171 18.54,5.46 Q15.829,2.75 12,2.75 Q10.031,2.75 8.276,3.535 Q7.993,3.661 7.702,3.551 Q7.412,3.44 7.285,3.156 Q7.159,2.873 7.269,2.582 Q7.38,2.292 7.664,2.165 Q9.711,1.25 12,1.25 Q16.451,1.25 19.6,4.4 Q22.75,7.549 22.75,12 Q22.75,16.451 19.6,19.6 Q16.451,22.75 12,22.75 Q7.549,22.75 4.4,19.6 Q1.25,16.451 1.25,12 Q1.25,8.422 3.4,5.551 Q3.586,5.302 3.893,5.258 Q4.201,5.213 4.449,5.4 Q4.698,5.586 4.742,5.893 Q4.787,6.201 4.6,6.449 Z"/>
</svg>

