<svg xmlns="http://www.w3.org/2000/svg" width="24" height="24" viewBox="0 0 24 24">
  <defs/>
  <path fill="#292D32" opacity="0.34" d="M9.93,18.04 L9.93,20.48 Q9.93,21.22 10.037,21.261 Q10.146,21.302 10.637,20.744 L18.207,12.145 Q18.584,11.718 18.529,11.595 Q18.472,11.47 17.9,11.47 L16.97,11.47 Q16.659,11.47 16.439,11.251 Q16.22,11.031 16.22,10.72 Q16.22,10.41 16.439,10.19 Q16.659,9.97 16.97,9.97 L17.9,9.97 Q19.441,9.97 19.896,10.978 Q20.351,11.986 19.333,13.136 L11.762,21.736 Q10.588,23.069 9.51,22.665 Q8.43,22.259 8.43,20.48 L8.43,18.04 Q8.43,17.73 8.649,17.51 Q8.869,17.29 9.18,17.29 Q9.49,17.29 9.71,17.51 Q9.93,17.73 9.93,18.04 Z"/>
  <path fill="#292D32" d="M14.07,8.84 L14.07,3.52 Q14.07,2.78 13.963,2.74 Q13.854,2.699 13.363,3.256 L5.793,11.855 Q5.415,12.282 5.471,12.405 Q5.527,12.53 6.1,12.53 L9.19,12.53 Q9.501,12.53 9.72,12.75 Q9.94,12.969 9.94,13.28 L9.94,14.46 Q9.94,14.771 9.72,14.99 Q9.501,15.21 9.19,15.21 Q8.879,15.21 8.66,14.99 Q8.44,14.771 8.44,14.46 L8.44,14.03 L6.1,14.03 Q4.559,14.03 4.104,13.022 Q3.649,12.014 4.667,10.864 L12.237,2.264 Q13.412,0.931 14.49,1.335 Q15.57,1.741 15.57,3.52 L15.57,8.84 Q15.57,9.151 15.35,9.37 Q15.131,9.59 14.82,9.59 Q14.509,9.59 14.29,9.37 Q14.07,9.151 14.07,8.84 Z"/>
  <path fill="#292D32" d="M22.53,2.53 L2.53,22.53 Q2.311,22.75 2,22.75 Q1.689,22.75 1.47,22.53 Q1.25,22.311 1.25,22 Q1.25,21.689 1.47,21.47 L21.47,1.47 Q21.689,1.25 22,1.25 Q22.311,1.25 22.53,1.47 Q22.75,1.689 22.75,2 Q22.75,2.311 22.53,2.53 Z"/>
</svg>

