<svg xmlns="http://www.w3.org/2000/svg" width="24" height="24" viewBox="0 0 24 24">
  <defs/>
  <path fill="#292D32" d="M6.089,14.03 Q4.556,14.03 4.101,13.027 Q3.648,12.026 4.656,10.864 L12.226,2.264 Q13.401,0.931 14.479,1.335 Q15.559,1.741 15.559,3.52 L15.559,9.97 L17.899,9.97 Q19.44,9.97 19.895,10.977 Q20.35,11.986 19.332,13.135 L11.762,21.736 Q10.587,23.069 9.509,22.665 Q8.429,22.259 8.429,20.48 L8.429,14.03 Z M6.089,12.53 L9.179,12.53 Q9.49,12.53 9.709,12.75 Q9.929,12.969 9.929,13.28 L9.929,20.48 Q9.929,21.22 10.036,21.26 Q10.146,21.301 10.636,20.744 L18.206,12.144 Q18.584,11.718 18.528,11.595 Q18.472,11.47 17.899,11.47 L14.809,11.47 Q14.498,11.47 14.279,11.25 Q14.059,11.031 14.059,10.72 L14.059,3.52 Q14.059,2.78 13.952,2.74 Q13.843,2.699 13.352,3.256 L5.782,11.855 Q5.411,12.283 5.467,12.408 Q5.523,12.53 6.089,12.53 Z"/>
</svg>

