<svg xmlns="http://www.w3.org/2000/svg" width="24" height="24" viewBox="0 0 24 24">
  <defs/>
  <path fill="#292D32" d="M15.579,19.699 C13.469,19.849 13.469,22.909 15.579,23.059 L20.589,23.059 C21.199,23.059 21.779,22.839 22.229,22.429 C23.709,21.139 22.919,18.539 20.969,18.299 C20.269,14.079 14.159,15.679 15.609,19.699"/>
  <path fill="#292D32" d="M15.579,19.699 C13.469,19.849 13.469,22.909 15.579,23.059 L20.589,23.059 C21.199,23.059 21.779,22.839 22.229,22.429 C23.709,21.139 22.919,18.539 20.969,18.299 C20.269,14.079 14.159,15.679 15.609,19.699"/>
  <path fill="#292D32" d="M22,11.07 L22,15.34 C22,15.66 21.49,15.8 21.27,15.57 C20.8,15.08 20.21,14.71 19.53,14.5 C17.96,14.01 16.15,14.49 15.01,15.67 C14.29,16.44 13.9,17.4 13.88,18.44 C13.88,18.62 13.79,18.78 13.65,18.89 C12.93,19.46 12.49,20.35 12.49,21.37 L12.49,21.38 C12.49,21.7 12.26,21.99 11.94,21.99 L7.34,21.99 C4.4,22 2,19.6 2,16.65 L2,6.42 C2,3.98 3.98,2 6.42,2 L8.74,2 C10.37,2 10.88,2.53 11.53,3.4 L12.93,5.26 C13.24,5.67 13.28,5.72 13.86,5.72 L16.65,5.72 C19.03,5.72 21.05,7.28 21.74,9.44 C21.89,9.89 21.97,10.35 21.99,10.84 C22,10.91 22,11 22,11.07 Z"/>
</svg>

