<svg xmlns="http://www.w3.org/2000/svg" width="24" height="24" viewBox="0 0 24 24">
  <defs/>
  <path fill="#292D32" opacity="0.4" d="M21.99,10.84 C21.97,10.36 21.89,9.89 21.74,9.44 C21.05,7.28 19.03,5.72 16.65,5.72 L13.86,5.72 C13.28,5.72 13.24,5.66 12.93,5.25 L11.53,3.39 C10.88,2.52 10.37,1.99 8.74,1.99 L6.41,1.99 C3.97,1.99 1.99,3.97 1.99,6.41 L1.99,9.43 L1.99,16.64 C1.99,19.59 4.39,21.99 7.34,21.99 L16.64,21.99 C19.59,21.99 21.99,19.59 21.99,16.64 L21.99,11.06 C22,11 22,10.91 21.99,10.84 Z"/>
  <path fill="#292D32" d="M15.581,19.7 C13.47,19.85 13.47,22.91 15.581,23.06 L20.591,23.06 C21.201,23.06 21.78,22.84 22.23,22.43 C23.71,21.14 22.921,18.54 20.971,18.3 C20.27,14.08 14.161,15.68 15.611,19.7"/>
</svg>

