<svg xmlns="http://www.w3.org/2000/svg" width="24" height="24" viewBox="0 0 24 24">
  <defs/>
  <path fill="#292D32" d="M22.418,14.369 L22.018,19.36 Q21.686,22.75 18.291,22.75 L5.711,22.75 Q2.315,22.75 1.984,19.373 L1.583,14.36 Q1.437,12.844 2.394,11.643 L2.42,11.61 L2.446,11.585 Q3.56,10.25 5.311,10.25 L18.691,10.25 Q20.432,10.25 21.542,11.572 Q21.591,11.625 21.628,11.682 Q22.575,12.866 22.418,14.369 Z M20.923,14.24 L20.925,14.22 Q21.023,13.301 20.424,12.579 L20.311,12.444 Q19.668,11.75 18.691,11.75 L5.311,11.75 Q4.25,11.75 3.58,12.566 L3.557,12.594 L3.543,12.609 Q2.99,13.324 3.078,14.24 L3.477,19.227 Q3.676,21.25 5.711,21.25 L18.291,21.25 Q20.326,21.25 20.523,19.24 Z"/>
  <path fill="#292D32" opacity="0.4" d="M2.75,11.43 L2.75,6.28 Q2.75,3.419 3.82,2.349 Q4.889,1.28 7.75,1.28 L9.02,1.28 Q10.67,1.28 11.66,2.6 L12.931,4.301 Q12.931,4.301 12.936,4.307 Q13.219,4.68 13.69,4.68 L16.24,4.68 Q19.101,4.68 20.17,5.749 Q21.24,6.819 21.24,9.68 L21.24,11.47 Q21.24,11.78 21.02,12 Q20.801,12.22 20.49,12.22 Q20.179,12.22 19.96,12 Q19.74,11.78 19.74,11.47 L19.74,9.68 Q19.74,7.44 19.11,6.81 Q18.479,6.18 16.24,6.18 L13.69,6.18 Q12.476,6.18 11.742,5.216 Q11.735,5.207 11.729,5.199 L10.46,3.5 Q9.92,2.78 9.02,2.78 L7.75,2.78 Q5.511,2.78 4.88,3.41 Q4.25,4.04 4.25,6.28 L4.25,11.43 Q4.25,11.74 4.03,11.96 Q3.811,12.18 3.5,12.18 Q3.189,12.18 2.97,11.96 Q2.75,11.74 2.75,11.43 Z"/>
  <path fill="#292D32" opacity="0.4" d="M9.43,16.25 L14.57,16.25 Q14.88,16.25 15.1,16.47 Q15.32,16.689 15.32,17 Q15.32,17.311 15.1,17.53 Q14.88,17.75 14.57,17.75 L9.43,17.75 Q9.119,17.75 8.899,17.53 Q8.68,17.311 8.68,17 Q8.68,16.689 8.899,16.47 Q9.119,16.25 9.43,16.25 Z"/>
</svg>

