<svg xmlns="http://www.w3.org/2000/svg" width="24" height="24" viewBox="0 0 24 24">
  <defs/>
  <path fill="#292D32" d="M11.31,16.5 L11.31,11.5 Q11.31,11.189 11.53,10.97 Q11.749,10.75 12.06,10.75 Q12.371,10.75 12.59,10.97 Q12.81,11.189 12.81,11.5 L12.81,16.5 Q12.81,16.811 12.59,17.03 Q12.371,17.25 12.06,17.25 Q11.749,17.25 11.53,17.03 Q11.31,16.811 11.31,16.5 Z"/>
  <path fill="#292D32" d="M14.5,14.75 L9.5,14.75 Q9.189,14.75 8.97,14.53 Q8.75,14.311 8.75,14 Q8.75,13.689 8.97,13.47 Q9.189,13.25 9.5,13.25 L14.5,13.25 Q14.811,13.25 15.03,13.47 Q15.25,13.689 15.25,14 Q15.25,14.311 15.03,14.53 Q14.811,14.75 14.5,14.75 Z"/>
  <path fill="#292D32" d="M22.75,11 L22.75,17 Q22.75,20.311 21.53,21.53 Q20.311,22.75 17,22.75 L7,22.75 Q3.689,22.75 2.47,21.53 Q1.25,20.311 1.25,17 L1.25,7 Q1.25,3.689 2.47,2.47 Q3.689,1.25 7,1.25 L8.5,1.25 Q10.375,1.25 11.5,2.75 L13,4.75 Q13,4.751 13.006,4.758 Q13.38,5.25 14,5.25 L17,5.25 Q20.311,5.25 21.53,6.47 Q22.75,7.689 22.75,11 Z M21.25,11 Q21.25,8.311 20.47,7.53 Q19.689,6.75 17,6.75 L14,6.75 Q12.636,6.75 11.812,5.666 L11.8,5.65 L10.3,3.65 Q9.625,2.75 8.5,2.75 L7,2.75 Q4.311,2.75 3.53,3.53 Q2.75,4.311 2.75,7 L2.75,17 Q2.75,19.689 3.53,20.47 Q4.311,21.25 7,21.25 L17,21.25 Q19.689,21.25 20.47,20.47 Q21.25,19.689 21.25,17 Z"/>
</svg>

