<svg xmlns="http://www.w3.org/2000/svg" width="24" height="24" viewBox="0 0 24 24">
  <defs/>
  <path fill="#292D32" opacity="0.4" d="M18.75,21 C18.75,21.41 18.41,21.75 18,21.75 L14,21.75 C13.95,21.75 13.91,21.73 13.86,21.72 C13.57,22.47 12.85,23 12,23 C11.15,23 10.43,22.47 10.14,21.72 C10.09,21.73 10.05,21.75 10,21.75 L6,21.75 C5.59,21.75 5.25,21.41 5.25,21 C5.25,20.59 5.59,20.25 6,20.25 L10,20.25 C10.05,20.25 10.09,20.27 10.14,20.28 C10.34,19.76 10.76,19.34 11.28,19.14 C11.27,19.09 11.25,19.05 11.25,19 L11.25,16 L12.75,16 L12.75,19 C12.75,19.05 12.73,19.09 12.72,19.14 C13.24,19.34 13.66,19.76 13.86,20.28 C13.91,20.27 13.95,20.25 14,20.25 L18,20.25 C18.41,20.25 18.75,20.59 18.75,21 Z"/>
  <path fill="#292D32" d="M19,8.3 L19,12.5 C19,15.3 18.3,16 15.5,16 L8.5,16 C5.7,16 5,15.3 5,12.5 L5,5.5 C5,2.7 5.7,2 8.5,2 L9.55,2 C10.6,2 10.83,2.31 11.23,2.84 L12.28,4.24 C12.55,4.59 12.7,4.8 13.4,4.8 L15.5,4.8 C18.3,4.8 19,5.5 19,8.3 Z"/>
</svg>

