<svg xmlns="http://www.w3.org/2000/svg" width="24" height="24" viewBox="0 0 24 24">
  <defs/>
  <path fill="#292D32" opacity="0.4" d="M15.72,2 L8.28,2 C7.9,2 7.58,2.32 7.58,2.7 C7.58,3.08 7.9,3.4 8.28,3.4 L11.54,3.4 L12.94,5.26 C13.25,5.67 13.29,5.73 13.87,5.73 L17.59,5.73 C17.97,5.73 18.34,5.78 18.7,5.88 C18.74,6.06 18.76,6.24 18.76,6.43 L18.76,6.78 C18.76,7.16 19.08,7.48 19.46,7.48 C19.84,7.48 20.16,7.16 20.16,6.78 L20.16,6.42 C20.14,3.98 18.16,2 15.72,2 Z"/>
  <path fill="#292D32" d="M20.14,6.54 C19.71,6.23 19.22,6 18.69,5.87 C18.34,5.77 17.96,5.72 17.58,5.72 L13.86,5.72 C13.28,5.72 13.24,5.66 12.93,5.25 L11.53,3.39 C10.88,2.53 10.37,2 8.74,2 L6.42,2 C3.98,2 2,3.98 2,6.42 L2,17.58 C2,20.02 3.98,22 6.42,22 L17.58,22 C20.02,22 22,20.02 22,17.58 L22,10.14 C22,8.65 21.27,7.34 20.14,6.54 Z M14.33,16 L9.67,16 C9.28,16 8.97,15.69 8.97,15.3 C8.97,14.92 9.28,14.6 9.67,14.6 L14.32,14.6 C14.7,14.6 15.02,14.92 15.02,15.3 C15.02,15.69 14.71,16 14.33,16 Z"/>
</svg>

