<svg xmlns="http://www.w3.org/2000/svg" width="24" height="24" viewBox="0 0 24 24">
  <defs/>
  <path fill="#292D32" d="M9,22.75 L7,22.75 Q3.689,22.75 2.47,21.53 Q1.25,20.311 1.25,17 L1.25,7 Q1.25,3.689 2.47,2.47 Q3.689,1.25 7,1.25 L8.5,1.25 Q10.375,1.25 11.5,2.75 L13,4.75 L13.006,4.758 Q13.38,5.25 14,5.25 L17,5.25 Q20.311,5.25 21.53,6.47 Q22.75,7.689 22.75,11 L22.75,13 Q22.75,13.311 22.53,13.53 Q22.311,13.75 22,13.75 Q21.689,13.75 21.47,13.53 Q21.25,13.311 21.25,13 L21.25,11 Q21.25,8.311 20.47,7.53 Q19.689,6.75 17,6.75 L14,6.75 Q12.636,6.75 11.812,5.666 Q11.805,5.657 11.8,5.65 L10.3,3.65 Q9.625,2.75 8.5,2.75 L7,2.75 Q4.311,2.75 3.53,3.53 Q2.75,4.311 2.75,7 L2.75,17 Q2.75,19.689 3.53,20.47 Q4.311,21.25 7,21.25 L9,21.25 Q9.311,21.25 9.53,21.47 Q9.75,21.689 9.75,22 Q9.75,22.311 9.53,22.53 Q9.311,22.75 9,22.75 Z"/>
  <path fill="#292D32" d="M12.843,17.727 Q12.596,16.329 13.279,15.162 Q14.07,13.811 15.677,13.39 Q17.285,12.968 18.634,13.76 Q19.944,14.528 20.369,16.129 Q22.029,16.571 22.59,18.407 Q23.235,20.521 21.64,21.919 Q20.665,22.81 19.32,22.81 L13.76,22.81 Q13.733,22.81 13.706,22.808 Q11.248,22.63 11.248,20.19 Q11.248,18.224 12.843,17.727 Z M13.706,19.079 Q12.748,19.199 12.748,20.19 Q12.748,21.222 13.789,21.31 L19.32,21.31 Q20.086,21.31 20.633,20.808 Q20.64,20.801 20.647,20.795 Q21.518,20.035 21.155,18.845 Q20.792,17.657 19.647,17.514 Q19.092,17.445 19,16.893 Q18.783,15.586 17.875,15.053 Q17.063,14.577 16.058,14.84 Q15.051,15.104 14.574,15.92 Q14.04,16.831 14.486,18.077 Q14.591,18.37 14.458,18.651 Q14.325,18.931 14.033,19.036 Q13.868,19.095 13.706,19.079 Z"/>
</svg>

