<svg xmlns="http://www.w3.org/2000/svg" width="24" height="24" viewBox="0 0 24 24">
  <defs/>
  <path fill="#292D32" d="M21.017,7.992 C21.415,8.558 20.941,9.25 20.248,9.25 L3,9.25 C2.448,9.25 2,8.802 2,8.25 L2,6.42 C2,3.98 3.98,2 6.42,2 L8.74,2 C10.37,2 10.88,2.53 11.53,3.4 L12.93,5.26 C13.24,5.67 13.28,5.72 13.86,5.72 L16.65,5.72 C18.455,5.72 20.052,6.617 21.017,7.992 Z"/>
  <path fill="#292D32" d="M20.983,10.75 C21.534,10.75 21.982,11.196 21.983,11.747 L22,16.65 C22,19.6 19.6,22 16.65,22 L7.35,22 C4.4,22 2,19.6 2,16.65 L2,11.75 C2,11.198 2.448,10.75 3,10.75 L20.983,10.75 Z"/>
</svg>

