<svg xmlns="http://www.w3.org/2000/svg" width="24" height="24" viewBox="0 0 24 24">
  <defs/>
  <path fill="#292D32" d="M21.017,7.992 C21.415,8.558 20.941,9.25 20.248,9.25 L3,9.25 C2.448,9.25 2,8.802 2,8.25 L2,6.42 C2,3.98 3.98,2 6.42,2 L8.74,2 C10.37,2 10.88,2.53 11.53,3.4 L12.93,5.26 C13.24,5.67 13.28,5.72 13.86,5.72 L16.65,5.72 C18.455,5.72 20.052,6.617 21.017,7.992 Z"/>
  <path fill="#292D32" d="M21.983,11.747 C21.982,11.196 21.534,10.75 20.983,10.75 L3,10.75 C2.448,10.75 2,11.198 2,11.75 L2,16.65 C2,19.6 4.4,22 7.35,22 L16.65,22 C19.6,22 22,19.6 22,16.65 L21.983,11.747 Z M14.5,16.75 L12.81,16.75 L12.81,18.5 C12.81,18.91 12.47,19.25 12.06,19.25 C11.64,19.25 11.31,18.91 11.31,18.5 L11.31,16.75 L9.5,16.75 C9.09,16.75 8.75,16.41 8.75,16 C8.75,15.59 9.09,15.25 9.5,15.25 L11.31,15.25 L11.31,13.5 C11.31,13.09 11.64,12.75 12.06,12.75 C12.47,12.75 12.81,13.09 12.81,13.5 L12.81,15.25 L14.5,15.25 C14.91,15.25 15.25,15.59 15.25,16 C15.25,16.41 14.91,16.75 14.5,16.75 Z"/>
</svg>

