<svg xmlns="http://www.w3.org/2000/svg" width="24" height="24" viewBox="0 0 24 24">
  <defs/>
  <path fill="#292D32" d="M9,22.75 L7,22.75 C2.59,22.75 1.25,21.41 1.25,17 L1.25,7 C1.25,2.59 2.59,1.25 7,1.25 L8.5,1.25 C10.25,1.25 10.8,1.82 11.5,2.75 L13,4.75 C13.33,5.19 13.38,5.25 14,5.25 L17,5.25 C21.41,5.25 22.75,6.59 22.75,11 L22.75,13 C22.75,13.41 22.41,13.75 22,13.75 C21.59,13.75 21.25,13.41 21.25,13 L21.25,11 C21.25,7.43 20.58,6.75 17,6.75 L14,6.75 C12.72,6.75 12.3,6.31 11.8,5.65 L10.3,3.65 C9.78,2.96 9.62,2.75 8.5,2.75 L7,2.75 C3.42,2.75 2.75,3.43 2.75,7 L2.75,17 C2.75,20.57 3.42,21.25 7,21.25 L9,21.25 C9.41,21.25 9.75,21.59 9.75,22 C9.75,22.41 9.41,22.75 9,22.75 Z"/>
  <path fill="#292D32" d="M19.34,22.81 C19.33,22.81 19.32,22.81 19.31,22.81 L13.75,22.81 C12.08,22.69 11.24,21.41 11.24,20.19 C11.24,19.21 11.79,18.18 12.85,17.76 C12.63,16.51 12.95,15.35 13.78,14.48 C14.8,13.41 16.44,12.98 17.86,13.41 C19.1,13.79 19.99,14.77 20.36,16.13 C21.41,16.45 22.24,17.28 22.58,18.41 C22.98,19.72 22.61,21.06 21.62,21.92 C21.02,22.49 20.2,22.81 19.34,22.81 Z M13.79,19.07 C13.03,19.14 12.75,19.71 12.75,20.19 C12.75,20.67 13.03,21.25 13.81,21.31 L19.32,21.31 C19.8,21.35 20.28,21.13 20.64,20.81 C21.29,20.24 21.33,19.43 21.16,18.85 C20.99,18.27 20.49,17.62 19.65,17.51 C19.32,17.47 19.06,17.22 19,16.89 C18.78,15.54 18.02,15.04 17.43,14.85 C16.55,14.58 15.51,14.86 14.88,15.52 C14.45,15.97 14.03,16.78 14.5,18.07 C14.64,18.46 14.44,18.89 14.05,19.03 C13.96,19.06 13.87,19.07 13.79,19.07 Z"/>
</svg>

