<svg xmlns="http://www.w3.org/2000/svg" width="24" height="24" viewBox="0 0 24 24">
  <defs/>
  <path fill="#292D32" opacity="0.4" d="M21.74,9.44 L2,9.44 L2,6.42 C2,3.98 3.98,2 6.42,2 L8.75,2 C10.38,2 10.89,2.53 11.54,3.4 L12.94,5.26 C13.25,5.67 13.29,5.73 13.87,5.73 L16.66,5.73 C19.03,5.72 21.05,7.28 21.74,9.44 Z"/>
  <path fill="#292D32" d="M21.99,10.84 C21.97,10.35 21.89,9.89 21.74,9.44 L2,9.44 L2,16.65 C2,19.6 4.4,22 7.35,22 L16.65,22 C19.6,22 22,19.6 22,16.65 L22,11.07 C22,11 22,10.91 21.99,10.84 Z M14.43,16.3 L9.43,16.3 C9.02,16.3 8.68,15.96 8.68,15.55 C8.68,15.14 9.02,14.8 9.43,14.8 L14.43,14.8 C14.84,14.8 15.18,15.14 15.18,15.55 C15.18,15.96 14.84,16.3 14.43,16.3 Z"/>
</svg>

