<svg xmlns="http://www.w3.org/2000/svg" width="24" height="24" viewBox="0 0 24 24">
  <defs/>
  <path fill="#292D32" d="M21.017,7.992 C21.415,8.558 20.941,9.25 20.248,9.25 L3,9.25 C2.448,9.25 2,8.802 2,8.25 L2,6.42 C2,3.98 3.98,2 6.42,2 L8.74,2 C10.37,2 10.88,2.53 11.53,3.4 L12.93,5.26 C13.24,5.67 13.28,5.72 13.86,5.72 L16.65,5.72 C18.455,5.72 20.052,6.617 21.017,7.992 Z"/>
  <path fill="#292D32" d="M21.983,11.747 C21.982,11.196 21.534,10.75 20.983,10.75 L3,10.75 C2.448,10.75 2,11.198 2,11.75 L2,16.65 C2,19.6 4.4,22 7.35,22 L16.65,22 C19.6,22 22,19.6 22,16.65 L21.983,11.747 Z M14.34,18.28 C14.19,18.42 14,18.5 13.81,18.5 C13.62,18.5 13.42,18.42 13.28,18.28 L12.04,17.04 L10.76,18.32 C10.62,18.46 10.42,18.54 10.23,18.54 C10.04,18.54 9.85,18.46 9.7,18.32 C9.41,18.03 9.41,17.55 9.7,17.26 L10.98,15.98 L9.74,14.74 C9.45,14.45 9.45,13.97 9.74,13.68 C10.04,13.39 10.51,13.39 10.8,13.68 L12.04,14.92 L13.24,13.72 C13.53,13.43 14,13.43 14.3,13.72 C14.59,14.02 14.59,14.49 14.3,14.78 L13.1,15.98 L14.34,17.22 C14.63,17.51 14.63,17.99 14.34,18.28 Z"/>
</svg>

