<svg xmlns="http://www.w3.org/2000/svg" width="24" height="24" viewBox="0 0 24 24">
  <defs/>
  <path fill="#292D32" opacity="0.4" d="M21.74,9.44 L2,9.44 L2,6.42 C2,3.98 3.98,2 6.42,2 L8.75,2 C10.38,2 10.89,2.53 11.54,3.4 L12.94,5.26 C13.25,5.67 13.29,5.73 13.87,5.73 L16.66,5.73 C19.03,5.72 21.05,7.28 21.74,9.44 Z"/>
  <path fill="#292D32" d="M21.99,10.84 C21.97,10.35 21.89,9.89 21.74,9.44 L2,9.44 L2,16.65 C2,19.6 4.4,22 7.35,22 L16.65,22 C19.6,22 22,19.6 22,16.65 L22,11.07 C22,11 22,10.91 21.99,10.84 Z M14.54,15.97 L12.39,17.85 C12.28,17.95 12.14,18 12,18 C11.86,18 11.72,17.95 11.61,17.85 L9.46,15.97 C8.78,15.37 8.69,14.35 9.25,13.64 C9.83,12.92 10.85,12.79 11.59,13.34 L11.99,13.64 L12.39,13.34 C13.13,12.79 14.15,12.92 14.73,13.64 C15.31,14.35 15.22,15.37 14.54,15.97 Z"/>
</svg>

