<svg xmlns="http://www.w3.org/2000/svg" width="24" height="24" viewBox="0 0 24 24">
  <defs/>
  <path fill="#292D32" d="M17,22.75 L7,22.75 C2.59,22.75 1.25,21.41 1.25,17 L1.25,7 C1.25,2.59 2.59,1.25 7,1.25 L8.5,1.25 C10.25,1.25 10.8,1.82 11.5,2.75 L13,4.75 C13.33,5.19 13.38,5.25 14,5.25 L17,5.25 C21.41,5.25 22.75,6.59 22.75,11 L22.75,17 C22.75,21.41 21.41,22.75 17,22.75 Z M7,2.75 C3.43,2.75 2.75,3.43 2.75,7 L2.75,17 C2.75,20.57 3.43,21.25 7,21.25 L17,21.25 C20.57,21.25 21.25,20.57 21.25,17 L21.25,11 C21.25,7.43 20.57,6.75 17,6.75 L14,6.75 C12.72,6.75 12.3,6.31 11.8,5.65 L10.3,3.65 C9.78,2.96 9.63,2.75 8.5,2.75 L7,2.75 Z"/>
</svg>

