<svg xmlns="http://www.w3.org/2000/svg" width="24" height="24" viewBox="0 0 24 24">
  <defs/>
  <path fill="#292D32" d="M12.75,16 L15.5,16 C18.3,16 19,15.3 19,12.5 L19,8.3 C19,5.5 18.3,4.8 15.5,4.8 L13.4,4.8 C12.7,4.8 12.55,4.59 12.28,4.24 L11.23,2.84 C10.83,2.31 10.6,2 9.55,2 L8.5,2 C5.7,2 5,2.7 5,5.5 L5,12.5 C5,15.3 5.7,16 8.5,16 L11.25,16 L11.25,19 C11.25,19.05 11.27,19.09 11.28,19.14 C10.76,19.34 10.34,19.76 10.14,20.28 C10.09,20.27 10.05,20.25 10,20.25 L6,20.25 C5.59,20.25 5.25,20.59 5.25,21 C5.25,21.41 5.59,21.75 6,21.75 L10,21.75 C10.05,21.75 10.09,21.73 10.14,21.72 C10.43,22.47 11.15,23 12,23 C12.85,23 13.57,22.47 13.86,21.72 C13.91,21.73 13.95,21.75 14,21.75 L18,21.75 C18.41,21.75 18.75,21.41 18.75,21 C18.75,20.59 18.41,20.25 18,20.25 L14,20.25 C13.95,20.25 13.91,20.27 13.86,20.28 C13.66,19.76 13.24,19.34 12.72,19.14 C12.73,19.09 12.75,19.05 12.75,19 L12.75,16 Z"/>
</svg>

