<svg xmlns="http://www.w3.org/2000/svg" width="24" height="24" viewBox="0 0 24 24">
  <defs/>
  <path fill="#292D32" opacity="0.4" d="M21.74,9.44 L2,9.44 L2,6.42 C2,3.98 3.98,2 6.42,2 L8.75,2 C10.38,2 10.89,2.53 11.54,3.4 L12.94,5.26 C13.25,5.67 13.29,5.73 13.87,5.73 L16.66,5.73 C19.03,5.72 21.05,7.28 21.74,9.44 Z"/>
  <path fill="#292D32" d="M21.99,10.84 C21.97,10.35 21.89,9.89 21.74,9.44 L2,9.44 L2,16.65 C2,19.6 4.4,22 7.35,22 L16.65,22 C19.6,22 22,19.6 22,16.65 L22,11.07 C22,11 22,10.91 21.99,10.84 Z M14.5,16.25 L12.81,16.25 L12.81,18 C12.81,18.41 12.47,18.75 12.06,18.75 C11.65,18.75 11.31,18.41 11.31,18 L11.31,16.25 L9.5,16.25 C9.09,16.25 8.75,15.91 8.75,15.5 C8.75,15.09 9.09,14.75 9.5,14.75 L11.31,14.75 L11.31,13 C11.31,12.59 11.65,12.25 12.06,12.25 C12.47,12.25 12.81,12.59 12.81,13 L12.81,14.75 L14.5,14.75 C14.91,14.75 15.25,15.09 15.25,15.5 C15.25,15.91 14.91,16.25 14.5,16.25 Z"/>
</svg>

