<svg xmlns="http://www.w3.org/2000/svg" width="24" height="24" viewBox="0 0 24 24">
  <defs/>
  <path fill="#292D32" d="M21.017,7.992 C21.415,8.558 20.941,9.25 20.248,9.25 L3,9.25 C2.448,9.25 2,8.802 2,8.25 L2,6.42 C2,3.98 3.98,2 6.42,2 L8.74,2 C10.37,2 10.88,2.53 11.53,3.4 L12.93,5.26 C13.24,5.67 13.28,5.72 13.86,5.72 L16.65,5.72 C18.455,5.72 20.052,6.617 21.017,7.992 Z"/>
  <path fill="#292D32" d="M21.983,11.747 C21.982,11.196 21.534,10.75 20.983,10.75 L3,10.75 C2.448,10.75 2,11.198 2,11.75 L2,16.65 C2,19.6 4.4,22 7.35,22 L16.65,22 C19.6,22 22,19.6 22,16.65 L21.983,11.747 Z M14.54,16.97 L12.39,18.85 C12.28,18.95 12.14,19 12,19 C11.86,19 11.72,18.95 11.61,18.85 L9.46,16.97 C8.78,16.37 8.69,15.35 9.26,14.64 C9.83,13.92 10.86,13.79 11.6,14.34 L12,14.64 L12.4,14.34 C13.14,13.79 14.17,13.92 14.74,14.64 C15.31,15.35 15.22,16.37 14.54,16.97 Z"/>
</svg>

