<svg xmlns="http://www.w3.org/2000/svg" width="24" height="24" viewBox="0 0 24 24">
  <defs/>
  <path fill="#292D32" d="M22.75,11 L22.75,17 Q22.75,20.311 21.53,21.53 Q20.311,22.75 17,22.75 L7,22.75 Q3.689,22.75 2.47,21.53 Q1.25,20.311 1.25,17 L1.25,7 Q1.25,3.689 2.47,2.47 Q3.689,1.25 7,1.25 L8.5,1.25 Q10.375,1.25 11.5,2.75 L13,4.75 Q13,4.751 13.006,4.758 Q13.38,5.25 14,5.25 L17,5.25 Q20.311,5.25 21.53,6.47 Q22.75,7.689 22.75,11 Z M21.25,11 Q21.25,8.311 20.47,7.53 Q19.689,6.75 17,6.75 L14,6.75 Q12.636,6.75 11.812,5.666 L11.8,5.65 L10.3,3.65 Q9.625,2.75 8.5,2.75 L7,2.75 Q4.311,2.75 3.53,3.53 Q2.75,4.311 2.75,7 L2.75,17 Q2.75,19.689 3.53,20.47 Q4.311,21.25 7,21.25 L17,21.25 Q19.689,21.25 20.47,20.47 Q21.25,19.689 21.25,17 Z"/>
  <path fill="#292D32" opacity="0.4" d="M8,1.25 L17,1.25 Q20.75,1.25 20.75,5 L20.75,6.38 Q20.75,6.691 20.53,6.91 Q20.311,7.13 20,7.13 Q19.689,7.13 19.47,6.91 Q19.25,6.691 19.25,6.38 L19.25,5 Q19.25,2.75 17,2.75 L8,2.75 Q7.689,2.75 7.47,2.53 Q7.25,2.311 7.25,2 Q7.25,1.689 7.47,1.47 Q7.689,1.25 8,1.25 Z"/>
</svg>

