<svg xmlns="http://www.w3.org/2000/svg" width="24" height="24" viewBox="0 0 24 24">
  <defs/>
  <path fill="#292D32" opacity="0.4" d="M21.871,9.44 L2.131,9.44 L2.131,6.42 C2.131,3.98 4.111,2 6.551,2 L8.881,2 C10.511,2 11.021,2.53 11.671,3.4 L13.071,5.26 C13.381,5.67 13.421,5.73 14.001,5.73 L16.791,5.73 C19.161,5.72 21.181,7.28 21.871,9.44 Z"/>
  <path fill="#292D32" d="M21.99,10.84 C21.97,10.36 21.89,9.89 21.74,9.44 L2,9.44 L2,16.65 C2,19.6 4.4,22 7.35,22 L16.65,22 C19.6,22 22,19.6 22,16.65 L22,11.07 C22,11 22,10.91 21.99,10.84 Z M14.34,17.78 C14.19,17.92 14,18 13.81,18 C13.62,18 13.43,17.93 13.28,17.78 L12.04,16.54 L10.76,17.82 C10.61,17.97 10.42,18.04 10.23,18.04 C10.04,18.04 9.85,17.97 9.7,17.82 C9.41,17.53 9.41,17.05 9.7,16.76 L10.98,15.48 L9.74,14.24 C9.45,13.95 9.45,13.47 9.74,13.18 C10.03,12.89 10.51,12.89 10.8,13.18 L12.04,14.42 L13.24,13.22 C13.53,12.93 14.01,12.93 14.3,13.22 C14.59,13.51 14.59,13.99 14.3,14.28 L13.1,15.48 L14.34,16.72 C14.63,17.01 14.63,17.49 14.34,17.78 Z"/>
</svg>

