<svg xmlns="http://www.w3.org/2000/svg" width="24" height="24" viewBox="0 0 24 24">
  <defs/>
  <g opacity="0.4">
    <path fill="#292D32" d="M13.279,16.261 L9.739,12.721 Q9.519,12.501 9.519,12.19 Q9.519,11.88 9.739,11.66 Q9.959,11.44 10.269,11.44 Q10.58,11.44 10.8,11.66 L14.34,15.2 Q14.559,15.42 14.559,15.73 Q14.559,16.041 14.34,16.261 Q14.12,16.48 13.809,16.48 Q13.499,16.48 13.279,16.261 Z"/>
    <path fill="#292D32" d="M14.301,12.761 L10.761,16.301 Q10.541,16.521 10.23,16.521 Q9.92,16.521 9.7,16.301 Q9.481,16.081 9.481,15.77 Q9.481,15.46 9.7,15.24 L13.24,11.7 Q13.46,11.481 13.771,11.481 Q14.081,11.481 14.301,11.7 Q14.52,11.92 14.52,12.23 Q14.52,12.541 14.301,12.761 Z"/>
  </g>
  <path fill="#292D32" d="M22.75,11 L22.75,17 Q22.75,20.311 21.53,21.53 Q20.311,22.75 17,22.75 L7,22.75 Q3.689,22.75 2.47,21.53 Q1.25,20.311 1.25,17 L1.25,7 Q1.25,3.689 2.47,2.47 Q3.689,1.25 7,1.25 L8.5,1.25 Q10.375,1.25 11.5,2.75 L13,4.75 Q13,4.751 13.006,4.758 Q13.38,5.25 14,5.25 L17,5.25 Q20.311,5.25 21.53,6.47 Q22.75,7.689 22.75,11 Z M21.25,11 Q21.25,8.311 20.47,7.53 Q19.689,6.75 17,6.75 L14,6.75 Q12.636,6.75 11.812,5.666 L11.8,5.65 L10.3,3.65 Q9.625,2.75 8.5,2.75 L7,2.75 Q4.311,2.75 3.53,3.53 Q2.75,4.311 2.75,7 L2.75,17 Q2.75,19.689 3.53,20.47 Q4.311,21.25 7,21.25 L17,21.25 Q19.689,21.25 20.47,20.47 Q21.25,19.689 21.25,17 Z"/>
</svg>

