<svg xmlns="http://www.w3.org/2000/svg" width="24" height="24" viewBox="0 0 24 24">
  <defs/>
  <path fill="#292D32" d="M21.06,11.82 L20.9,11.6 C20.62,11.26 20.29,10.99 19.91,10.79 C19.4,10.5 18.82,10.35 18.22,10.35 L5.77,10.35 C5.17,10.35 4.6,10.5 4.08,10.79 C3.69,11 3.34,11.29 3.05,11.65 C2.48,12.38 2.21,13.28 2.3,14.18 L2.67,18.85 C2.8,20.26 2.97,22 6.14,22 L17.86,22 C21.03,22 21.19,20.26 21.33,18.84 L21.7,14.19 C21.79,13.35 21.57,12.51 21.06,11.82 Z M14.39,17.34 L9.6,17.34 C9.21,17.34 8.9,17.02 8.9,16.64 C8.9,16.26 9.21,15.94 9.6,15.94 L14.39,15.94 C14.78,15.94 15.09,16.26 15.09,16.64 C15.09,17.03 14.78,17.34 14.39,17.34 Z"/>
  <path fill="#292D32" opacity="0.4" d="M3.381,11.31 C3.601,11.11 3.821,10.93 4.081,10.79 C4.591,10.5 5.171,10.35 5.771,10.35 L18.231,10.35 C18.831,10.35 19.401,10.5 19.921,10.79 C20.181,10.93 20.411,11.11 20.621,11.32 L20.621,10.79 L20.621,9.82 C20.621,6.25 19.531,5.16 15.961,5.16 L13.581,5.16 C13.141,5.16 13.131,5.15 12.871,4.81 L11.671,3.2 C11.101,2.46 10.651,2 9.221,2 L8.041,2 C4.471,2 3.381,3.09 3.381,6.66 L3.381,10.8 L3.381,11.31 Z"/>
</svg>

