<svg xmlns="http://www.w3.org/2000/svg" width="24" height="24" viewBox="0 0 24 24">
  <defs/>
  <path fill="#292D32" d="M18.291,22.75 L5.711,22.75 C2.311,22.75 2.131,20.88 1.981,19.37 L1.581,14.36 C1.491,13.39 1.771,12.42 2.391,11.64 C3.131,10.74 4.181,10.25 5.311,10.25 L18.691,10.25 C19.801,10.25 20.851,10.74 21.561,11.59 L21.731,11.82 C22.271,12.56 22.511,13.46 22.421,14.37 L22.021,19.36 C21.871,20.88 21.691,22.75 18.291,22.75 Z M5.311,11.75 C4.641,11.75 4.001,12.05 3.581,12.57 L3.511,12.64 C3.191,13.05 3.021,13.63 3.081,14.23 L3.481,19.24 C3.621,20.7 3.681,21.25 5.711,21.25 L18.291,21.25 C20.331,21.25 20.381,20.7 20.521,19.23 L20.921,14.22 C20.981,13.63 20.811,13.04 20.421,12.58 L20.321,12.46 C19.871,11.99 19.301,11.75 18.681,11.75 L5.311,11.75 Z"/>
  <path fill="#292D32" d="M20.5,12.22 C20.09,12.22 19.75,11.88 19.75,11.47 L19.75,9.68 C19.75,6.7 19.23,6.18 16.25,6.18 L13.7,6.18 C12.57,6.18 12.18,5.78 11.75,5.21 L10.46,3.5 C10.02,2.92 9.92,2.78 9.02,2.78 L7.75,2.78 C4.77,2.78 4.25,3.3 4.25,6.28 L4.25,11.43 C4.25,11.84 3.91,12.18 3.5,12.18 C3.09,12.18 2.75,11.84 2.75,11.43 L2.75,6.28 C2.75,2.45 3.92,1.28 7.75,1.28 L9.03,1.28 C10.57,1.28 11.05,1.78 11.67,2.6 L12.95,4.3 C13.22,4.66 13.24,4.68 13.71,4.68 L16.26,4.68 C20.09,4.68 21.26,5.85 21.26,9.68 L21.26,11.47 C21.25,11.88 20.91,12.22 20.5,12.22 Z"/>
  <path fill="#292D32" d="M14.57,17.75 L9.43,17.75 C9.02,17.75 8.68,17.41 8.68,17 C8.68,16.59 9.02,16.25 9.43,16.25 L14.57,16.25 C14.98,16.25 15.32,16.59 15.32,17 C15.32,17.41 14.99,17.75 14.57,17.75 Z"/>
</svg>

