<svg xmlns="http://www.w3.org/2000/svg" width="24" height="24" viewBox="0 0 24 24">
  <defs/>
  <path fill="#292D32" d="M21.058,11.822 L20.898,11.602 C20.618,11.262 20.288,10.992 19.908,10.792 C19.398,10.502 18.818,10.352 18.218,10.352 L5.768,10.352 C5.168,10.352 4.598,10.502 4.078,10.792 C3.688,11.002 3.338,11.292 3.048,11.652 C2.478,12.382 2.208,13.282 2.298,14.182 L2.668,18.852 C2.798,20.262 2.968,22.002 6.138,22.002 L17.858,22.002 C21.028,22.002 21.188,20.262 21.328,18.842 L21.698,14.192 C21.788,13.352 21.568,12.512 21.058,11.822 Z M14.388,17.342 L9.598,17.342 C9.208,17.342 8.898,17.022 8.898,16.642 C8.898,16.262 9.208,15.942 9.598,15.942 L14.388,15.942 C14.778,15.942 15.088,16.262 15.088,16.642 C15.088,17.032 14.778,17.342 14.388,17.342 Z"/>
  <path fill="#292D32" d="M20.56,8.596 C20.598,8.979 20.182,9.236 19.817,9.113 C19.313,8.944 18.781,8.86 18.229,8.86 L5.769,8.86 C5.212,8.86 4.664,8.95 4.152,9.122 C3.792,9.243 3.379,8.995 3.379,8.615 L3.379,6.66 C3.379,3.09 4.469,2 8.039,2 L9.219,2 C10.649,2 11.099,2.46 11.679,3.21 L12.879,4.81 C13.129,5.15 13.139,5.17 13.579,5.17 L15.959,5.17 C19.085,5.17 20.306,6.007 20.56,8.596 Z"/>
</svg>

