<svg xmlns="http://www.w3.org/2000/svg" width="24" height="24" viewBox="0 0 24 24">
  <defs/>
  <path fill="#292D32" d="M1.25,13.02 L1.25,7 Q1.25,3.689 2.47,2.47 Q3.689,1.25 7,1.25 L8.5,1.25 Q10.375,1.25 11.5,2.75 L13,4.75 Q13,4.751 13.006,4.758 Q13.38,5.25 14,5.25 L17,5.25 Q20.311,5.25 21.53,6.47 Q22.75,7.689 22.75,11 Q22.75,11.311 22.53,11.53 Q22.311,11.75 22,11.75 Q21.689,11.75 21.47,11.53 Q21.25,11.311 21.25,11 Q21.25,8.311 20.47,7.53 Q19.689,6.75 17,6.75 L14,6.75 Q12.636,6.75 11.812,5.666 L11.8,5.65 L10.3,3.65 Q9.625,2.75 8.5,2.75 L7,2.75 Q4.311,2.75 3.53,3.53 Q2.75,4.311 2.75,7 L2.75,13.02 Q2.75,13.331 2.53,13.55 Q2.311,13.77 2,13.77 Q1.689,13.77 1.47,13.55 Q1.25,13.331 1.25,13.02 Z"/>
  <path fill="#292D32" d="M22.75,14.99 L22.75,17 Q22.75,20.311 21.53,21.53 Q20.311,22.75 17,22.75 L7,22.75 Q3.689,22.75 2.47,21.53 Q1.25,20.311 1.25,17 Q1.25,16.689 1.47,16.47 Q1.689,16.25 2,16.25 Q2.311,16.25 2.53,16.47 Q2.75,16.689 2.75,17 Q2.75,19.689 3.53,20.47 Q4.311,21.25 7,21.25 L17,21.25 Q19.689,21.25 20.47,20.47 Q21.25,19.689 21.25,17 L21.25,14.99 Q21.25,14.679 21.47,14.46 Q21.689,14.24 22,14.24 Q22.311,14.24 22.53,14.46 Q22.75,14.679 22.75,14.99 Z"/>
</svg>

