<svg xmlns="http://www.w3.org/2000/svg" width="24" height="24" viewBox="0 0 24 24">
  <defs/>
  <path fill="#292D32" d="M19.434,4.034 C19.567,4.242 19.34,4.485 19.1,4.43 C18.63,4.29 18.11,4.22 17.58,4.22 L14.28,4.22 C14.122,4.22 13.974,4.146 13.88,4.02 L12.73,2.49 C12.589,2.29 12.722,2 12.966,2 L15.72,2 C17.281,2 18.656,2.811 19.434,4.034 Z"/>
  <path fill="#292D32" d="M20.14,6.54 C19.71,6.23 19.22,6 18.69,5.87 C18.33,5.77 17.96,5.72 17.58,5.72 L13.86,5.72 C13.28,5.72 13.24,5.67 12.93,5.26 L11.53,3.4 C10.88,2.53 10.37,2 8.74,2 L6.42,2 C3.98,2 2,3.98 2,6.42 L2,17.58 C2,20.02 3.98,22 6.42,22 L17.58,22 C20.02,22 22,20.02 22,17.58 L22,10.14 C22,8.65 21.27,7.34 20.14,6.54 Z M14.39,16.34 L9.6,16.34 C9.21,16.34 8.91,16.03 8.91,15.64 C8.91,15.26 9.21,14.94 9.6,14.94 L14.39,14.94 C14.78,14.94 15.09,15.26 15.09,15.64 C15.09,16.03 14.78,16.34 14.39,16.34 Z"/>
</svg>

