<svg xmlns="http://www.w3.org/2000/svg" width="24" height="24" viewBox="0 0 24 24">
  <defs/>
  <path fill="#292D32" d="M12,17.88 C11.75,17.88 11.49,17.79 11.29,17.61 L8.71,15.35 C7.74,14.5 7.61,13.04 8.42,12.03 C9.24,11.01 10.7,10.82 11.75,11.61 L12,11.8 L12.26,11.6 C13.31,10.81 14.77,11 15.59,12.02 C16.4,13.03 16.27,14.49 15.3,15.34 L12.72,17.6 C12.51,17.79 12.25,17.88 12,17.88 Z M9.69,14.22 L12,16.24 L14.31,14.22 C14.68,13.9 14.73,13.35 14.42,12.97 C14.11,12.58 13.56,12.51 13.16,12.81 L12.45,13.34 C12.18,13.54 11.82,13.54 11.55,13.34 L10.84,12.81 C10.45,12.51 9.89,12.58 9.58,12.97 C9.28,13.35 9.33,13.9 9.69,14.22 Z"/>
  <path fill="#292D32" d="M17,22.75 L7,22.75 C2.59,22.75 1.25,21.41 1.25,17 L1.25,7 C1.25,2.59 2.59,1.25 7,1.25 L8.5,1.25 C10.25,1.25 10.8,1.82 11.5,2.75 L13,4.75 C13.33,5.19 13.38,5.25 14,5.25 L17,5.25 C21.41,5.25 22.75,6.59 22.75,11 L22.75,17 C22.75,21.41 21.41,22.75 17,22.75 Z M7,2.75 C3.42,2.75 2.75,3.43 2.75,7 L2.75,17 C2.75,20.57 3.42,21.25 7,21.25 L17,21.25 C20.58,21.25 21.25,20.57 21.25,17 L21.25,11 C21.25,7.43 20.58,6.75 17,6.75 L14,6.75 C12.72,6.75 12.3,6.31 11.8,5.65 L10.3,3.65 C9.78,2.96 9.62,2.75 8.5,2.75 L7,2.75 Z"/>
</svg>

