<svg xmlns="http://www.w3.org/2000/svg" width="24" height="24" viewBox="0 0 24 24">
  <defs/>
  <path fill="#292D32" d="M12,19.75 C11.59,19.75 11.25,19.41 11.25,19 L11.25,16 C11.25,15.59 11.59,15.25 12,15.25 C12.41,15.25 12.75,15.59 12.75,16 L12.75,19 C12.75,19.41 12.41,19.75 12,19.75 Z"/>
  <path fill="#292D32" d="M12,23.75 C10.48,23.75 9.25,22.52 9.25,21 C9.25,19.48 10.48,18.25 12,18.25 C13.52,18.25 14.75,19.48 14.75,21 C14.75,22.52 13.52,23.75 12,23.75 Z M12,19.75 C11.31,19.75 10.75,20.31 10.75,21 C10.75,21.69 11.31,22.25 12,22.25 C12.69,22.25 13.25,21.69 13.25,21 C13.25,20.31 12.69,19.75 12,19.75 Z"/>
  <path fill="#292D32" d="M18,21.75 L14,21.75 C13.59,21.75 13.25,21.41 13.25,21 C13.25,20.59 13.59,20.25 14,20.25 L18,20.25 C18.41,20.25 18.75,20.59 18.75,21 C18.75,21.41 18.41,21.75 18,21.75 Z"/>
  <path fill="#292D32" d="M10,21.75 L6,21.75 C5.59,21.75 5.25,21.41 5.25,21 C5.25,20.59 5.59,20.25 6,20.25 L10,20.25 C10.41,20.25 10.75,20.59 10.75,21 C10.75,21.41 10.41,21.75 10,21.75 Z"/>
  <path fill="#292D32" d="M15.5,16.75 L8.5,16.75 C5.28,16.75 4.25,15.72 4.25,12.5 L4.25,5.5 C4.25,2.28 5.28,1.25 8.5,1.25 L9.55,1.25 C10.88,1.25 11.31,1.7 11.83,2.39 L12.88,3.79 C13.08,4.05 13.08,4.05 13.4,4.05 L15.5,4.05 C18.72,4.05 19.75,5.08 19.75,8.3 L19.75,12.5 C19.75,15.72 18.72,16.75 15.5,16.75 Z M8.5,2.75 C6.11,2.75 5.75,3.11 5.75,5.5 L5.75,12.5 C5.75,14.89 6.11,15.25 8.5,15.25 L15.5,15.25 C17.89,15.25 18.25,14.89 18.25,12.5 L18.25,8.3 C18.25,5.91 17.89,5.55 15.5,5.55 L13.4,5.55 C12.41,5.55 12.05,5.18 11.69,4.7 L10.63,3.29 C10.28,2.82 10.23,2.75 9.55,2.75 L8.5,2.75 Z"/>
</svg>

