<svg xmlns="http://www.w3.org/2000/svg" width="24" height="24" viewBox="0 0 24 24">
  <defs/>
  <path fill="#292D32" d="M21.017,7.992 C21.415,8.558 20.941,9.25 20.248,9.25 L3,9.25 C2.448,9.25 2,8.802 2,8.25 L2,6.42 C2,3.98 3.98,2 6.42,2 L8.74,2 C10.37,2 10.88,2.53 11.53,3.4 L12.93,5.26 C13.24,5.67 13.28,5.72 13.86,5.72 L16.65,5.72 C18.455,5.72 20.052,6.617 21.017,7.992 Z"/>
  <path fill="#292D32" d="M21.983,11.747 C21.982,11.196 21.534,10.75 20.983,10.75 L3,10.751 C2.448,10.751 2,11.198 2,11.751 L2,16.651 C2,19.601 4.4,22.001 7.35,22.001 L16.65,22.001 C19.6,22.001 22,19.601 22,16.651 L21.983,11.747 Z M14.43,16.751 L9.43,16.751 C9.01,16.751 8.68,16.421 8.68,16.001 C8.68,15.591 9.01,15.251 9.43,15.251 L14.43,15.251 C14.84,15.251 15.18,15.591 15.18,16.001 C15.18,16.421 14.84,16.751 14.43,16.751 Z"/>
</svg>

