<svg xmlns="http://www.w3.org/2000/svg" width="24" height="24" viewBox="0 0 24 24">
  <defs/>
  <path fill="#292D32" d="M12.75,16 L12.75,19 Q12.75,19.311 12.53,19.53 Q12.311,19.75 12,19.75 Q11.689,19.75 11.47,19.53 Q11.25,19.311 11.25,19 L11.25,16 Q11.25,15.689 11.47,15.47 Q11.689,15.25 12,15.25 Q12.311,15.25 12.53,15.47 Q12.75,15.689 12.75,16 Z"/>
  <path fill="#292D32" d="M9.25,21 Q9.25,18.25 12,18.25 Q14.75,18.25 14.75,21 Q14.75,23.75 12,23.75 Q11.689,23.75 11.47,23.53 Q11.25,23.311 11.25,23 Q11.25,22.689 11.47,22.47 Q11.689,22.25 12,22.25 Q13.25,22.25 13.25,21 Q13.25,20.486 12.882,20.118 Q12.514,19.75 12,19.75 Q10.75,19.75 10.75,21 Q10.75,21.311 10.53,21.53 Q10.311,21.75 10,21.75 Q9.689,21.75 9.47,21.53 Q9.25,21.311 9.25,21 Z"/>
  <path fill="#292D32" d="M18,21.75 L14,21.75 Q13.689,21.75 13.47,21.53 Q13.25,21.311 13.25,21 Q13.25,20.689 13.47,20.47 Q13.689,20.25 14,20.25 L18,20.25 Q18.311,20.25 18.53,20.47 Q18.75,20.689 18.75,21 Q18.75,21.311 18.53,21.53 Q18.311,21.75 18,21.75 Z"/>
  <path fill="#292D32" d="M10,21.75 L6,21.75 Q5.689,21.75 5.47,21.53 Q5.25,21.311 5.25,21 Q5.25,20.689 5.47,20.47 Q5.689,20.25 6,20.25 L10,20.25 Q10.311,20.25 10.53,20.47 Q10.75,20.689 10.75,21 Q10.75,21.311 10.53,21.53 Q10.311,21.75 10,21.75 Z"/>
  <path fill="#292D32" d="M4.25,5.5 Q4.25,3.089 5.17,2.17 Q6.089,1.25 8.5,1.25 L9.55,1.25 Q10.97,1.25 11.824,2.382 L11.829,2.388 L12.88,3.79 Q12.88,3.79 12.887,3.8 Q13.081,4.05 13.4,4.05 L15.5,4.05 Q17.911,4.05 18.83,4.97 Q19.75,5.889 19.75,8.3 L19.75,12.5 Q19.75,16.75 15.5,16.75 L8.5,16.75 Q4.25,16.75 4.25,12.5 L4.25,9.34 Q4.25,9.029 4.47,8.81 Q4.689,8.59 5,8.59 Q5.311,8.59 5.53,8.81 Q5.75,9.029 5.75,9.34 L5.75,12.5 Q5.75,14.289 6.23,14.77 Q6.711,15.25 8.5,15.25 L15.5,15.25 Q17.289,15.25 17.77,14.77 Q18.25,14.289 18.25,12.5 L18.25,8.3 Q18.25,6.511 17.77,6.03 Q17.289,5.55 15.5,5.55 L13.4,5.55 Q12.343,5.55 11.699,4.715 Q11.69,4.703 11.68,4.69 L10.631,3.292 L10.627,3.286 Q10.222,2.75 9.55,2.75 L8.5,2.75 Q6.711,2.75 6.23,3.23 Q5.75,3.711 5.75,5.5 Q5.75,5.811 5.53,6.03 Q5.311,6.25 5,6.25 Q4.689,6.25 4.47,6.03 Q4.25,5.811 4.25,5.5 Z"/>
</svg>

