<svg xmlns="http://www.w3.org/2000/svg" width="24" height="24" viewBox="0 0 24 24">
  <defs/>
  <path fill="#292D32" d="M22,11.07 L22,16.65 C22,19.6 19.6,22 16.65,22 L7.35,22 C4.4,22 2,19.6 2,16.65 L2,9.44 L21.74,9.44 C21.89,9.89 21.97,10.35 21.99,10.84 C22,10.91 22,11 22,11.07 Z"/>
  <path fill="#292D32" opacity="0.4" d="M21.74,9.44 L2,9.44 L2,6.42 C2,3.98 3.98,2 6.42,2 L8.75,2 C10.38,2 10.89,2.53 11.54,3.4 L12.94,5.26 C13.25,5.67 13.29,5.73 13.87,5.73 L16.66,5.73 C19.03,5.72 21.05,7.28 21.74,9.44 Z"/>
</svg>

