<svg xmlns="http://www.w3.org/2000/svg" width="24" height="24" viewBox="0 0 24 24">
  <defs/>
  <path fill="#292D32" d="M13.811,16.48 C13.621,16.48 13.431,16.41 13.281,16.26 L9.741,12.72 C9.451,12.43 9.451,11.95 9.741,11.66 C10.031,11.37 10.511,11.37 10.801,11.66 L14.341,15.2 C14.631,15.49 14.631,15.97 14.341,16.26 C14.191,16.4 14.001,16.48 13.811,16.48 Z"/>
  <path fill="#292D32" d="M10.23,16.52 C10.04,16.52 9.85,16.45 9.7,16.3 C9.41,16.01 9.41,15.53 9.7,15.24 L13.24,11.7 C13.53,11.41 14.01,11.41 14.3,11.7 C14.59,11.99 14.59,12.47 14.3,12.76 L10.76,16.3 C10.62,16.44 10.42,16.52 10.23,16.52 Z"/>
  <path fill="#292D32" d="M17,22.75 L7,22.75 C2.59,22.75 1.25,21.41 1.25,17 L1.25,7 C1.25,2.59 2.59,1.25 7,1.25 L8.5,1.25 C10.25,1.25 10.8,1.82 11.5,2.75 L13,4.75 C13.33,5.19 13.38,5.25 14,5.25 L17,5.25 C21.41,5.25 22.75,6.59 22.75,11 L22.75,17 C22.75,21.41 21.41,22.75 17,22.75 Z M7,2.75 C3.43,2.75 2.75,3.43 2.75,7 L2.75,17 C2.75,20.57 3.43,21.25 7,21.25 L17,21.25 C20.57,21.25 21.25,20.57 21.25,17 L21.25,11 C21.25,7.43 20.57,6.75 17,6.75 L14,6.75 C12.72,6.75 12.3,6.31 11.8,5.65 L10.3,3.65 C9.78,2.96 9.63,2.75 8.5,2.75 L7,2.75 Z"/>
</svg>

