<svg xmlns="http://www.w3.org/2000/svg" width="24" height="24" viewBox="0 0 24 24">
  <defs/>
  <path fill="#292D32" d="M17.02,2.88 C16.54,2.4 15.58,2 14.9,2 L9.1,2 C8.42,2 7.46,2.4 6.98,2.88 L2.88,6.98 C2.4,7.46 2,8.42 2,9.1 L2,14.9 C2,15.58 2.4,16.54 2.88,17.02 L4.41,18.55 L18.55,4.41 L17.02,2.88 Z"/>
  <path fill="#292D32" d="M21.121,6.979 L19.611,5.469 L5.471,19.609 L6.981,21.119 C7.461,21.599 8.421,21.999 9.101,21.999 L14.901,21.999 C15.581,21.999 16.541,21.599 17.021,21.119 L21.121,17.019 C21.601,16.539 22.001,15.579 22.001,14.899 L22.001,9.099 C22.001,8.419 21.601,7.459 21.121,6.979 Z"/>
  <path fill="#292D32" d="M2.491,20.471 C2.201,20.761 2.201,21.241 2.491,21.531 C2.641,21.681 2.831,21.751 3.021,21.751 C3.211,21.751 3.401,21.681 3.551,21.531 L5.471,19.611 L4.411,18.551 L2.491,20.471 Z"/>
  <path fill="#292D32" d="M21.531,3.551 C21.821,3.261 21.821,2.781 21.531,2.491 C21.241,2.201 20.761,2.201 20.471,2.491 L18.551,4.411 L19.611,5.471 L21.531,3.551 Z"/>
</svg>

