<svg xmlns="http://www.w3.org/2000/svg" width="24" height="24" viewBox="0 0 24 24">
  <defs/>
  <path fill="#292D32" d="M4.409,18.55 L18.549,4.41 Q18.769,4.19 19.08,4.19 Q19.39,4.19 19.61,4.41 Q19.83,4.629 19.83,4.94 Q19.829,5.251 19.61,5.47 L5.47,19.61 Q5.25,19.83 4.939,19.83 Q4.629,19.83 4.409,19.61 Q4.189,19.391 4.189,19.08 Q4.189,18.769 4.409,18.55 Z"/>
  <path fill="#292D32" d="M2.75,13.02 L2.75,14.9 Q2.75,15.829 3.41,16.49 L7.51,20.59 Q8.171,21.25 9.1,21.25 L14.9,21.25 Q15.829,21.25 16.49,20.59 L20.59,16.49 Q21.25,15.829 21.25,14.9 L21.25,9.1 Q21.25,8.171 20.59,7.51 L16.49,3.41 Q15.829,2.75 14.9,2.75 L9.1,2.75 Q8.171,2.75 7.51,3.41 L3.41,7.51 Q2.75,8.171 2.75,9.1 Q2.75,9.411 2.53,9.63 Q2.311,9.85 2,9.85 Q1.689,9.85 1.47,9.63 Q1.25,9.411 1.25,9.1 Q1.25,7.549 2.35,6.45 L6.45,2.35 Q7.549,1.25 9.1,1.25 L14.9,1.25 Q16.451,1.25 17.55,2.35 L21.65,6.45 Q22.75,7.549 22.75,9.1 L22.75,14.9 Q22.75,16.451 21.65,17.55 L17.55,21.65 Q16.451,22.75 14.9,22.75 L9.1,22.75 Q7.549,22.75 6.45,21.65 L2.35,17.55 Q1.25,16.451 1.25,14.9 L1.25,13.02 Q1.25,12.709 1.47,12.49 Q1.689,12.27 2,12.27 Q2.311,12.27 2.53,12.49 Q2.75,12.709 2.75,13.02 Z"/>
</svg>

