<svg xmlns="http://www.w3.org/2000/svg" width="24" height="24" viewBox="0 0 24 24">
  <defs/>
  <path fill="#292D32" d="M14.9,22.75 L9.1,22.75 C8.21,22.75 7.07,22.28 6.45,21.65 L2.35,17.55 C1.72,16.92 1.25,15.78 1.25,14.9 L1.25,9.1 C1.25,8.21 1.72,7.07 2.35,6.45 L6.45,2.35 C7.08,1.72 8.22,1.25 9.1,1.25 L14.9,1.25 C15.79,1.25 16.93,1.72 17.55,2.35 L21.65,6.45 C22.28,7.08 22.75,8.22 22.75,9.1 L22.75,14.9 C22.75,15.79 22.28,16.93 21.65,17.55 L17.55,21.65 C16.92,22.28 15.79,22.75 14.9,22.75 Z M9.1,2.75 C8.61,2.75 7.85,3.06 7.51,3.41 L3.41,7.51 C3.07,7.86 2.75,8.61 2.75,9.1 L2.75,14.9 C2.75,15.39 3.06,16.15 3.41,16.49 L7.51,20.59 C7.86,20.93 8.61,21.25 9.1,21.25 L14.9,21.25 C15.39,21.25 16.15,20.94 16.49,20.59 L20.59,16.49 C20.93,16.14 21.25,15.39 21.25,14.9 L21.25,9.1 C21.25,8.61 20.94,7.85 20.59,7.51 L16.49,3.41 C16.14,3.07 15.39,2.75 14.9,2.75 L9.1,2.75 Z"/>
  <path fill="#292D32" d="M4.939,19.83 C4.749,19.83 4.559,19.76 4.409,19.61 C4.119,19.32 4.119,18.84 4.409,18.55 L18.549,4.41 C18.839,4.12 19.319,4.12 19.609,4.41 C19.899,4.7 19.899,5.18 19.609,5.47 L5.469,19.61 C5.319,19.76 5.129,19.83 4.939,19.83 Z"/>
</svg>

