<svg xmlns="http://www.w3.org/2000/svg" width="24" height="24" viewBox="0 0 24 24">
  <defs/>
  <path fill="#292D32" opacity="0.4" d="M14.9,2 L9.1,2 C8.42,2 7.46,2.4 6.98,2.88 L2.88,6.98 C2.4,7.46 2,8.42 2,9.1 L2,14.9 C2,15.58 2.4,16.54 2.88,17.02 L6.98,21.12 C7.46,21.6 8.42,22 9.1,22 L14.9,22 C15.58,22 16.54,21.6 17.02,21.12 L21.12,17.02 C21.6,16.54 22,15.58 22,14.9 L22,9.1 C22,8.42 21.6,7.46 21.12,6.98 L17.02,2.88 C16.54,2.4 15.58,2 14.9,2 Z"/>
  <path fill="#292D32" d="M3.021,21.75 C2.831,21.75 2.641,21.68 2.491,21.53 C2.201,21.24 2.201,20.76 2.491,20.47 L20.471,2.49 C20.761,2.2 21.241,2.2 21.531,2.49 C21.821,2.78 21.821,3.26 21.531,3.55 L3.551,21.53 C3.411,21.68 3.221,21.75 3.021,21.75 Z"/>
</svg>

