<svg xmlns="http://www.w3.org/2000/svg" width="24" height="24" viewBox="0 0 24 24">
  <defs/>
  <path fill="#292D32" d="M21.12,6.98 L17.02,2.88 C16.54,2.4 15.58,2 14.9,2 L9.1,2 C8.42,2 7.46,2.4 6.98,2.88 L2.88,6.98 C2.4,7.46 2,8.42 2,9.1 L2,14.9 C2,15.58 2.4,16.54 2.88,17.02 L6.98,21.12 C7.46,21.6 8.42,22 9.1,22 L14.9,22 C15.58,22 16.54,21.6 17.02,21.12 L21.12,17.02 C21.6,16.54 22,15.58 22,14.9 L22,9.1 C22,8.42 21.6,7.46 21.12,6.98 Z M16.03,14.97 C16.32,15.26 16.32,15.74 16.03,16.03 C15.88,16.18 15.69,16.25 15.5,16.25 C15.31,16.25 15.12,16.18 14.97,16.03 L12,13.06 L9.03,16.03 C8.88,16.18 8.69,16.25 8.5,16.25 C8.31,16.25 8.12,16.18 7.97,16.03 C7.68,15.74 7.68,15.26 7.97,14.97 L10.94,12 L7.97,9.03 C7.68,8.74 7.68,8.26 7.97,7.97 C8.26,7.68 8.74,7.68 9.03,7.97 L12,10.94 L14.97,7.97 C15.26,7.68 15.74,7.68 16.03,7.97 C16.32,8.26 16.32,8.74 16.03,9.03 L13.06,12 L16.03,14.97 Z"/>
</svg>

