<svg xmlns="http://www.w3.org/2000/svg" width="24" height="24" viewBox="0 0 24 24">
  <defs/>
  <path fill="#292D32" opacity="0.4" d="M20.75,6.95 L20.75,17.05 Q20.75,17.361 20.53,17.58 Q20.311,17.8 20,17.8 Q19.93,17.8 19.862,17.787 Q19.664,17.75 19.5,17.75 Q18.776,17.75 18.263,18.263 Q17.75,18.776 17.75,19.5 Q17.75,19.664 17.787,19.862 Q17.844,20.167 17.669,20.424 Q17.494,20.68 17.188,20.737 Q17.12,20.75 17.05,20.75 L6.95,20.75 Q6.639,20.75 6.42,20.53 Q6.2,20.311 6.2,20 Q6.2,19.93 6.213,19.862 Q6.25,19.664 6.25,19.5 Q6.25,17.75 4.5,17.75 Q4.336,17.75 4.138,17.787 Q3.833,17.844 3.576,17.669 Q3.32,17.494 3.263,17.188 Q3.25,17.12 3.25,17.05 L3.25,6.95 Q3.25,6.639 3.47,6.42 Q3.689,6.2 4,6.2 Q4.07,6.2 4.138,6.213 Q4.336,6.25 4.5,6.25 Q5.224,6.25 5.737,5.737 Q6.25,5.224 6.25,4.5 Q6.25,4.336 6.213,4.138 Q6.156,3.833 6.331,3.576 Q6.506,3.32 6.812,3.263 Q6.88,3.25 6.95,3.25 L17.05,3.25 Q17.361,3.25 17.58,3.47 Q17.8,3.689 17.8,4 Q17.8,4.07 17.787,4.138 Q17.75,4.336 17.75,4.5 Q17.75,5.224 18.263,5.737 Q18.776,6.25 19.5,6.25 Q19.664,6.25 19.862,6.213 Q20.167,6.156 20.424,6.331 Q20.68,6.506 20.737,6.812 Q20.75,6.88 20.75,6.95 Z M19.25,7.745 Q16.373,7.628 16.255,4.75 L7.742,4.75 Q7.66,5.935 6.798,6.798 Q5.935,7.66 4.75,7.742 L4.75,16.258 Q5.935,16.34 6.798,17.202 Q7.66,18.065 7.742,19.25 L16.255,19.25 Q16.372,16.373 19.25,16.255 L19.25,7.745 Z"/>
  <path fill="#292D32" d="M7.75,4.5 Q7.75,5.846 6.798,6.798 Q5.846,7.75 4.5,7.75 Q4.197,7.75 3.862,7.687 Q1.25,7.16 1.25,4.5 Q1.25,3.154 2.202,2.202 Q3.154,1.25 4.5,1.25 Q7.16,1.25 7.685,3.852 Q7.75,4.197 7.75,4.5 Z M6.25,4.5 Q6.25,4.336 6.215,4.148 Q5.933,2.75 4.5,2.75 Q2.75,2.75 2.75,4.5 Q2.75,5.933 4.138,6.213 Q4.336,6.25 4.5,6.25 Q5.224,6.25 5.737,5.737 Q6.25,5.224 6.25,4.5 Z"/>
  <path fill="#292D32" d="M22.75,4.5 Q22.75,7.16 20.148,7.685 Q19.803,7.75 19.5,7.75 Q18.154,7.75 17.202,6.798 Q16.25,5.846 16.25,4.5 Q16.25,4.197 16.313,3.862 Q16.84,1.25 19.5,1.25 Q21.125,1.25 21.938,2.062 Q22.75,2.875 22.75,4.5 Z M21.25,4.5 Q21.25,3.776 20.737,3.263 Q20.224,2.75 19.5,2.75 Q18.067,2.75 17.787,4.138 Q17.75,4.336 17.75,4.5 Q17.75,6.25 19.5,6.25 Q19.664,6.25 19.852,6.215 Q21.25,5.933 21.25,4.5 Z"/>
  <path fill="#292D32" d="M7.75,19.5 Q7.75,19.803 7.687,20.138 Q7.16,22.75 4.5,22.75 Q3.154,22.75 2.202,21.798 Q1.25,20.846 1.25,19.5 Q1.25,16.84 3.852,16.315 Q4.197,16.25 4.5,16.25 Q7.75,16.25 7.75,19.5 Z M6.25,19.5 Q6.25,18.776 5.737,18.263 Q5.224,17.75 4.5,17.75 Q4.336,17.75 4.148,17.785 Q2.75,18.067 2.75,19.5 Q2.75,21.25 4.5,21.25 Q5.933,21.25 6.213,19.862 Q6.25,19.664 6.25,19.5 Z"/>
  <path fill="#292D32" d="M22.75,19.5 Q22.75,22.75 19.5,22.75 Q16.84,22.75 16.315,20.148 Q16.25,19.803 16.25,19.5 Q16.25,16.25 19.5,16.25 Q19.803,16.25 20.138,16.313 Q22.75,16.84 22.75,19.5 Z M21.25,19.5 Q21.25,18.067 19.862,17.787 Q19.664,17.75 19.5,17.75 Q18.776,17.75 18.263,18.263 Q17.75,18.776 17.75,19.5 Q17.75,19.664 17.785,19.852 Q18.067,21.25 19.5,21.25 Q20.224,21.25 20.737,20.737 Q21.25,20.224 21.25,19.5 Z"/>
</svg>

