<svg xmlns="http://www.w3.org/2000/svg" width="24" height="24" viewBox="0 0 24 24">
  <defs/>
  <path fill="#292D32" d="M21.1,7.87 C21.68,7.23 22,6.4 22,5.53 C22,3.58 20.42,2 18.47,2 C17.6,2 16.78,2.32 16.14,2.9 C14.85,2.3 13.46,2 12,2 C10.57,2 9.15,2.31 7.87,2.9 C7.23,2.32 6.4,2 5.53,2 C3.58,2 2,3.58 2,5.53 C2,6.4 2.32,7.23 2.9,7.87 C2.31,9.15 2,10.57 2,12 C2,13.46 2.3,14.85 2.9,16.14 C2.32,16.78 2,17.6 2,18.47 C2,20.42 3.58,22 5.53,22 C6.4,22 7.23,21.68 7.87,21.1 C9.15,21.69 10.57,22 12,22 C13.46,22 14.85,21.7 16.14,21.1 C16.78,21.68 17.6,22 18.47,22 C20.42,22 22,20.42 22,18.47 C22,17.6 21.68,16.78 21.1,16.14 C21.7,14.85 22,13.46 22,12 C22,10.57 21.69,9.15 21.1,7.87 Z M19.68,15.17 C19.57,15.13 19.46,15.09 19.35,15.06 C19.18,15.02 19,14.99 18.83,14.97 C18.71,14.96 18.59,14.95 18.47,14.95 C16.53,14.95 14.95,16.53 14.95,18.47 C14.95,18.59 14.96,18.71 14.97,18.83 C14.99,19 15.02,19.18 15.06,19.35 C15.09,19.46 15.13,19.57 15.17,19.68 C15.17,19.71 15.18,19.74 15.2,19.77 C15.21,19.8 15.22,19.83 15.23,19.86 C13.22,20.7 10.82,20.71 8.77,19.86 C8.78,19.83 8.79,19.8 8.8,19.77 C8.82,19.74 8.83,19.71 8.83,19.68 C8.87,19.57 8.91,19.46 8.94,19.35 C8.98,19.18 9.01,19 9.03,18.83 C9.04,18.71 9.05,18.59 9.05,18.47 C9.05,16.53 7.47,14.95 5.53,14.95 C5.41,14.95 5.29,14.96 5.17,14.97 C5,14.99 4.82,15.02 4.65,15.06 C4.54,15.09 4.43,15.13 4.32,15.17 C4.29,15.17 4.26,15.18 4.23,15.2 C4.2,15.21 4.17,15.22 4.14,15.23 C3.71,14.22 3.5,13.13 3.5,12 C3.5,10.89 3.72,9.78 4.14,8.77 C4.15,8.77 4.17,8.78 4.18,8.78 C4.06,8.73 3.93,8.67 3.82,8.61 C3.66,8.52 3.5,8.42 3.35,8.3 C3.65,8.53 3.97,8.71 4.32,8.83 C4.44,8.88 4.57,8.92 4.69,8.95 C4.77,8.97 4.84,8.98 4.91,8.99 C5,9.01 5.08,9.02 5.17,9.03 C5.29,9.04 5.41,9.05 5.53,9.05 C7.47,9.05 9.05,7.47 9.05,5.53 C9.05,5.41 9.04,5.29 9.03,5.17 C9.02,5.08 9.01,5 8.99,4.91 C8.98,4.84 8.97,4.77 8.95,4.69 C8.92,4.57 8.88,4.44 8.83,4.32 C8.71,3.97 8.53,3.65 8.3,3.35 C8.42,3.5 8.52,3.66 8.61,3.82 C8.67,3.93 8.73,4.06 8.78,4.18 C8.78,4.17 8.77,4.15 8.77,4.14 C10.81,3.29 13.22,3.3 15.23,4.14 C15.22,4.17 15.21,4.2 15.2,4.23 C15.18,4.26 15.17,4.29 15.17,4.32 C15.13,4.43 15.09,4.54 15.06,4.65 C15.02,4.82 14.99,5 14.97,5.17 C14.96,5.29 14.95,5.41 14.95,5.53 C14.95,7.47 16.53,9.05 18.47,9.05 C18.59,9.05 18.71,9.04 18.83,9.03 C19,9.01 19.18,8.98 19.35,8.94 C19.46,8.91 19.57,8.87 19.68,8.83 C19.71,8.83 19.74,8.82 19.77,8.8 C19.8,8.79 19.83,8.78 19.86,8.77 C20.28,9.78 20.5,10.89 20.5,12 C20.5,13.13 20.29,14.22 19.86,15.23 C19.83,15.22 19.8,15.21 19.77,15.2 C19.74,15.18 19.71,15.17 19.68,15.17 Z"/>
</svg>

