<svg xmlns="http://www.w3.org/2000/svg" width="24" height="24" viewBox="0 0 24 24">
  <defs/>
  <path fill="#292D32" d="M18.651,8.95 C16.661,8.95 15.051,7.33 15.051,5.35 C15.051,4.54 15.321,3.77 15.821,3.13 C15.841,3.1 15.871,3.08 15.891,3.05 C16.571,2.22 17.571,1.75 18.651,1.75 C20.631,1.75 22.251,3.37 22.251,5.35 C22.251,6.46 21.751,7.49 20.871,8.18 C20.231,8.68 19.461,8.95 18.651,8.95 Z M16.951,4.12 C16.691,4.48 16.551,4.9 16.551,5.35 C16.551,6.51 17.491,7.45 18.651,7.45 C19.121,7.45 19.571,7.29 19.941,7 C20.451,6.6 20.751,6 20.751,5.35 C20.751,4.19 19.811,3.25 18.651,3.25 C18.001,3.25 17.401,3.54 17.011,4.05 C16.991,4.08 16.971,4.1 16.951,4.12 Z"/>
  <path fill="#292D32" d="M5.35,8.95 C4.54,8.95 3.77,8.68 3.13,8.18 C2.25,7.49 1.75,6.46 1.75,5.35 C1.75,3.37 3.37,1.75 5.35,1.75 C6.46,1.75 7.49,2.25 8.18,3.13 C8.68,3.77 8.95,4.54 8.95,5.35 C8.95,7.33 7.33,8.95 5.35,8.95 Z M5.35,3.25 C4.19,3.25 3.25,4.19 3.25,5.35 C3.25,6 3.54,6.6 4.06,7 C4.43,7.29 4.88,7.45 5.35,7.45 C6.51,7.45 7.45,6.51 7.45,5.35 C7.45,4.88 7.29,4.43 7,4.06 C6.6,3.54 6,3.25 5.35,3.25 Z"/>
  <path fill="#292D32" d="M18.651,22.25 C17.571,22.25 16.571,21.78 15.891,20.95 C15.861,20.93 15.841,20.9 15.821,20.87 C15.321,20.23 15.051,19.46 15.051,18.65 C15.051,16.66 16.671,15.05 18.651,15.05 C19.461,15.05 20.231,15.32 20.871,15.82 C20.901,15.84 20.921,15.87 20.951,15.89 C21.781,16.57 22.251,17.57 22.251,18.65 C22.251,20.63 20.631,22.25 18.651,22.25 Z M16.951,19.88 C16.971,19.9 16.991,19.92 17.011,19.95 C17.401,20.46 18.001,20.75 18.651,20.75 C19.811,20.75 20.751,19.81 20.751,18.65 C20.751,18 20.461,17.4 19.951,17.01 C19.921,16.99 19.901,16.97 19.881,16.95 C19.521,16.69 19.101,16.55 18.651,16.55 C17.491,16.55 16.551,17.49 16.551,18.65 C16.551,19.1 16.691,19.52 16.951,19.88 Z"/>
  <path fill="#292D32" d="M5.35,22.25 C3.37,22.25 1.75,20.63 1.75,18.65 C1.75,17.57 2.22,16.57 3.05,15.89 C3.07,15.86 3.1,15.84 3.13,15.82 C3.77,15.32 4.54,15.05 5.35,15.05 C7.34,15.05 8.95,16.67 8.95,18.65 C8.95,19.46 8.68,20.23 8.18,20.87 C7.49,21.75 6.46,22.25 5.35,22.25 Z M4.12,16.95 C4.1,16.97 4.08,16.99 4.05,17.01 C3.54,17.4 3.25,18 3.25,18.65 C3.25,19.81 4.19,20.75 5.35,20.75 C6,20.75 6.6,20.46 7,19.94 C7.29,19.57 7.45,19.12 7.45,18.65 C7.45,17.49 6.51,16.55 5.35,16.55 C4.9,16.55 4.48,16.69 4.12,16.95 Z"/>
  <path fill="#292D32" d="M12,22.25 C10.34,22.25 8.69,21.84 7.24,21.07 C7.04,20.97 6.91,20.78 6.86,20.56 C6.81,20.34 6.86,20.12 7,19.94 C7.29,19.57 7.45,19.12 7.45,18.65 C7.45,17.49 6.51,16.55 5.35,16.55 C4.88,16.55 4.43,16.71 4.06,17 C3.89,17.14 3.66,17.19 3.44,17.14 C3.22,17.09 3.04,16.96 2.93,16.76 C2.15,15.29 1.75,13.69 1.75,12 C1.75,10.34 2.16,8.69 2.93,7.24 C3.03,7.04 3.22,6.91 3.44,6.86 C3.66,6.81 3.88,6.87 4.06,7 C4.43,7.29 4.88,7.45 5.35,7.45 C6.51,7.45 7.45,6.51 7.45,5.35 C7.45,4.88 7.29,4.43 7,4.06 C6.86,3.89 6.81,3.66 6.86,3.44 C6.91,3.22 7.04,3.04 7.24,2.93 C8.69,2.16 10.34,1.75 12,1.75 C13.69,1.75 15.29,2.15 16.76,2.93 C16.96,3.03 17.09,3.22 17.14,3.44 C17.19,3.66 17.13,3.88 17,4.06 C16.71,4.43 16.55,4.88 16.55,5.35 C16.55,6.51 17.49,7.45 18.65,7.45 C19.12,7.45 19.57,7.29 19.94,7 C20.11,6.86 20.34,6.81 20.56,6.86 C20.78,6.91 20.96,7.04 21.07,7.24 C21.84,8.69 22.25,10.34 22.25,12 C22.25,13.69 21.85,15.29 21.07,16.76 C20.97,16.96 20.78,17.09 20.56,17.14 C20.34,17.19 20.12,17.13 19.94,17 C19.57,16.71 19.12,16.55 18.65,16.55 C17.49,16.55 16.55,17.49 16.55,18.65 C16.55,19.12 16.71,19.57 17,19.94 C17.14,20.11 17.19,20.34 17.14,20.56 C17.09,20.78 16.96,20.96 16.76,21.07 C15.29,21.85 13.69,22.25 12,22.25 Z M8.65,20.08 C10.77,20.97 13.25,20.96 15.34,20.08 C15.14,19.63 15.04,19.15 15.04,18.65 C15.04,16.66 16.66,15.05 18.64,15.05 C19.14,15.05 19.62,15.15 20.07,15.35 C20.51,14.3 20.74,13.18 20.74,12 C20.74,10.85 20.51,9.7 20.07,8.65 C19.62,8.85 19.14,8.95 18.64,8.95 C16.65,8.95 15.04,7.33 15.04,5.35 C15.04,4.85 15.14,4.37 15.34,3.92 C13.25,3.04 10.76,3.04 8.65,3.92 C8.85,4.37 8.95,4.85 8.95,5.35 C8.95,7.34 7.33,8.95 5.35,8.95 C4.85,8.95 4.37,8.85 3.92,8.65 C3.48,9.7 3.25,10.85 3.25,12 C3.25,13.17 3.47,14.29 3.92,15.35 C4.37,15.15 4.85,15.05 5.35,15.05 C7.34,15.05 8.95,16.67 8.95,18.65 C8.95,19.15 8.85,19.63 8.65,20.08 Z"/>
</svg>

