<svg xmlns="http://www.w3.org/2000/svg" width="24" height="24" viewBox="0 0 24 24">
  <defs/>
  <path fill="#292D32" opacity="0.4" d="M16.31,20.15 C16.27,19.93 16.25,19.72 16.25,19.5 C16.25,19.41 16.25,19.33 16.26,19.25 L7.74,19.25 C7.75,19.33 7.75,19.41 7.75,19.5 C7.75,19.72 7.73,19.93 7.69,20.14 C7.65,20.35 7.58,20.56 7.5,20.75 L16.5,20.75 C16.41,20.56 16.35,20.36 16.31,20.15 Z M3.86,7.69 C3.65,7.65 3.44,7.58 3.25,7.5 L3.25,16.5 C3.44,16.41 3.64,16.35 3.85,16.31 C4.07,16.27 4.28,16.25 4.5,16.25 C4.59,16.25 4.67,16.25 4.75,16.26 L4.75,7.74 C4.67,7.75 4.59,7.75 4.5,7.75 C4.28,7.75 4.07,7.73 3.86,7.69 Z M20.15,7.69 C19.93,7.73 19.72,7.75 19.5,7.75 C19.41,7.75 19.33,7.75 19.25,7.74 L19.25,16.26 C19.33,16.25 19.41,16.25 19.5,16.25 C19.72,16.25 19.93,16.27 20.14,16.31 C20.35,16.35 20.56,16.42 20.75,16.5 L20.75,7.5 C20.56,7.59 20.36,7.65 20.15,7.69 Z M16.5,3.25 L7.5,3.25 C7.59,3.44 7.65,3.64 7.69,3.85 C7.73,4.07 7.75,4.28 7.75,4.5 C7.75,4.59 7.75,4.67 7.74,4.75 L16.26,4.75 C16.25,4.67 16.25,4.59 16.25,4.5 C16.25,4.28 16.27,4.07 16.31,3.86 C16.35,3.65 16.42,3.44 16.5,3.25 Z"/>
  <path fill="#292D32" d="M7.75,4.5 C7.75,4.59 7.75,4.67 7.74,4.75 C7.72,5.01 7.67,5.25 7.59,5.49 C7.57,5.58 7.53,5.68 7.49,5.77 C7.47,5.82 7.44,5.88 7.41,5.94 C7.38,6 7.35,6.06 7.31,6.12 C7.03,6.62 6.62,7.03 6.12,7.31 C6.06,7.35 6,7.38 5.94,7.41 C5.88,7.44 5.82,7.47 5.77,7.49 C5.68,7.53 5.58,7.57 5.49,7.59 C5.25,7.67 5.01,7.72 4.75,7.74 C4.67,7.75 4.59,7.75 4.5,7.75 C4.28,7.75 4.07,7.73 3.86,7.69 C3.65,7.65 3.44,7.58 3.25,7.5 C2.06,7 1.25,5.82 1.25,4.5 C1.25,2.71 2.71,1.25 4.5,1.25 C5.83,1.25 7,2.06 7.5,3.25 C7.59,3.44 7.65,3.64 7.69,3.85 C7.73,4.07 7.75,4.28 7.75,4.5 Z"/>
  <path fill="#292D32" d="M22.75,4.5 C22.75,5.83 21.94,7 20.75,7.5 C20.56,7.59 20.36,7.65 20.15,7.69 C19.93,7.73 19.72,7.75 19.5,7.75 C19.41,7.75 19.33,7.75 19.25,7.74 C18.98,7.72 18.73,7.67 18.48,7.58 C18.4,7.56 18.31,7.53 18.23,7.49 C18.17,7.47 18.12,7.44 18.06,7.41 C18,7.38 17.94,7.35 17.88,7.31 C17.38,7.03 16.97,6.62 16.69,6.12 C16.65,6.06 16.62,6 16.59,5.94 C16.56,5.88 16.53,5.83 16.51,5.77 C16.47,5.69 16.44,5.6 16.42,5.52 C16.33,5.27 16.28,5.02 16.26,4.75 C16.25,4.67 16.25,4.59 16.25,4.5 C16.25,4.28 16.27,4.07 16.31,3.86 C16.35,3.65 16.42,3.44 16.5,3.25 C17,2.06 18.18,1.25 19.5,1.25 C21.29,1.25 22.75,2.71 22.75,4.5 Z"/>
  <path fill="#292D32" d="M7.75,19.5 C7.75,19.72 7.73,19.93 7.69,20.14 C7.65,20.35 7.58,20.56 7.5,20.75 C7,21.94 5.82,22.75 4.5,22.75 C2.71,22.75 1.25,21.29 1.25,19.5 C1.25,18.17 2.06,17 3.25,16.5 C3.44,16.41 3.64,16.35 3.85,16.31 C4.07,16.27 4.28,16.25 4.5,16.25 C4.59,16.25 4.67,16.25 4.75,16.26 C5,16.28 5.24,16.33 5.47,16.4 C5.55,16.42 5.64,16.45 5.72,16.49 C5.79,16.52 5.86,16.55 5.94,16.59 C6,16.62 6.06,16.65 6.12,16.69 C6.62,16.97 7.03,17.38 7.31,17.88 C7.35,17.94 7.38,18 7.41,18.06 C7.45,18.14 7.48,18.21 7.51,18.28 C7.55,18.36 7.58,18.45 7.6,18.53 C7.67,18.76 7.72,19 7.74,19.25 C7.75,19.33 7.75,19.41 7.75,19.5 Z"/>
  <path fill="#292D32" d="M22.75,19.5 C22.75,21.29 21.29,22.75 19.5,22.75 C18.17,22.75 17,21.94 16.5,20.75 C16.41,20.56 16.35,20.36 16.31,20.15 C16.27,19.93 16.25,19.72 16.25,19.5 C16.25,19.41 16.25,19.33 16.26,19.25 C16.26,19.22 16.26,19.19 16.27,19.16 C16.28,19.05 16.3,18.95 16.32,18.84 C16.37,18.57 16.46,18.31 16.59,18.06 C16.62,18 16.65,17.94 16.69,17.88 C16.97,17.38 17.38,16.97 17.88,16.69 C17.94,16.65 18,16.62 18.06,16.59 C18.31,16.46 18.57,16.37 18.84,16.32 C18.95,16.3 19.05,16.28 19.16,16.27 C19.19,16.26 19.22,16.26 19.25,16.26 C19.33,16.25 19.41,16.25 19.5,16.25 C19.72,16.25 19.93,16.27 20.14,16.31 C20.35,16.35 20.56,16.42 20.75,16.5 C21.94,17 22.75,18.18 22.75,19.5 Z"/>
</svg>

