<svg xmlns="http://www.w3.org/2000/svg" width="24" height="24" viewBox="0 0 24 24">
  <defs/>
  <path fill="#292D32" d="M22.25,5.35 Q22.25,7.095 20.874,8.179 Q19.9,8.95 18.65,8.95 Q15.05,8.95 15.05,5.35 Q15.05,4.12 15.817,3.13 Q15.858,3.078 15.903,3.035 Q16.956,1.75 18.65,1.75 Q22.25,1.75 22.25,5.35 Z M20.75,5.35 Q20.75,3.25 18.65,3.25 Q17.631,3.25 17.013,4.049 Q16.981,4.091 16.945,4.127 Q16.55,4.681 16.55,5.35 Q16.55,6.224 17.163,6.837 Q17.776,7.45 18.65,7.45 Q19.379,7.45 19.946,7.001 Q20.75,6.367 20.75,5.35 Z"/>
  <path fill="#292D32" d="M8.95,5.35 Q8.95,8.95 5.35,8.95 Q4.12,8.95 3.13,8.183 Q1.75,7.095 1.75,5.35 Q1.75,1.75 5.35,1.75 Q7.095,1.75 8.179,3.126 Q8.95,4.12 8.95,5.35 Z M7.45,5.35 Q7.45,4.633 7.001,4.054 Q6.367,3.25 5.35,3.25 Q4.476,3.25 3.863,3.863 Q3.25,4.476 3.25,5.35 Q3.25,6.367 4.05,6.997 Q4.633,7.45 5.35,7.45 Q6.224,7.45 6.837,6.837 Q7.45,6.224 7.45,5.35 Z"/>
  <path fill="#292D32" d="M22.25,18.65 Q22.25,22.25 18.65,22.25 Q16.956,22.25 15.902,20.964 Q15.86,20.924 15.822,20.876 Q15.05,19.9 15.05,18.65 Q15.05,15.05 18.65,15.05 Q19.88,15.05 20.87,15.817 Q20.922,15.858 20.965,15.903 Q22.25,16.956 22.25,18.65 Z M20.75,18.65 Q20.75,17.631 19.951,17.013 Q19.909,16.981 19.873,16.945 Q19.319,16.55 18.65,16.55 Q17.776,16.55 17.163,17.163 Q16.55,17.776 16.55,18.65 Q16.55,19.33 16.94,19.868 Q16.978,19.906 17.013,19.951 Q17.631,20.75 18.65,20.75 Q20.75,20.75 20.75,18.65 Z"/>
  <path fill="#292D32" d="M8.95,18.65 Q8.95,19.88 8.183,20.87 Q7.111,22.25 5.35,22.25 Q1.75,22.25 1.75,18.65 Q1.75,16.956 3.036,15.902 Q3.076,15.86 3.124,15.822 Q4.1,15.05 5.35,15.05 Q8.95,15.05 8.95,18.65 Z M7.45,18.65 Q7.45,17.776 6.837,17.163 Q6.224,16.55 5.35,16.55 Q4.67,16.55 4.132,16.94 Q4.094,16.978 4.049,17.013 Q3.25,17.631 3.25,18.65 Q3.25,20.75 5.35,20.75 Q6.377,20.75 6.997,19.95 Q7.45,19.367 7.45,18.65 Z"/>
  <path fill="#292D32" d="M22.25,12 Q22.25,14.541 21.073,16.761 Q20.927,17.036 20.63,17.127 Q20.333,17.218 20.059,17.073 Q19.998,17.041 19.944,16.998 Q19.379,16.55 18.65,16.55 Q17.776,16.55 17.163,17.163 Q16.55,17.776 16.55,18.65 Q16.55,19.367 17.003,19.95 Q17.193,20.196 17.154,20.504 Q17.115,20.812 16.87,21.003 Q16.819,21.042 16.761,21.073 Q14.541,22.25 12,22.25 Q9.459,22.25 7.239,21.073 Q6.964,20.927 6.873,20.63 Q6.782,20.333 6.927,20.059 Q6.959,19.998 7.002,19.944 Q7.45,19.379 7.45,18.65 Q7.45,17.776 6.837,17.163 Q6.224,16.55 5.35,16.55 Q4.633,16.55 4.05,17.003 Q3.804,17.193 3.496,17.154 Q3.188,17.115 2.997,16.87 Q2.958,16.819 2.927,16.761 Q1.75,14.541 1.75,12 Q1.75,9.459 2.927,7.239 Q3.073,6.964 3.37,6.873 Q3.667,6.782 3.941,6.927 Q3.999,6.958 4.05,6.997 Q4.633,7.45 5.35,7.45 Q6.224,7.45 6.837,6.837 Q7.45,6.224 7.45,5.35 Q7.45,4.633 6.997,4.05 Q6.807,3.804 6.846,3.496 Q6.885,3.188 7.13,2.997 Q7.181,2.958 7.239,2.927 Q9.459,1.75 12,1.75 Q14.541,1.75 16.761,2.927 Q17.036,3.073 17.127,3.37 Q17.218,3.667 17.073,3.941 Q17.041,4.002 16.998,4.056 Q16.55,4.621 16.55,5.35 Q16.55,6.224 17.163,6.837 Q17.776,7.45 18.65,7.45 Q19.367,7.45 19.95,6.997 Q20.196,6.807 20.504,6.846 Q20.812,6.885 21.003,7.13 Q21.042,7.181 21.073,7.239 Q22.25,9.459 22.25,12 Z M20.75,12 Q20.75,10.235 20.086,8.654 Q19.414,8.95 18.65,8.95 Q15.05,8.95 15.05,5.35 Q15.05,4.579 15.343,3.913 Q13.763,3.25 12,3.25 Q10.235,3.25 8.654,3.914 Q8.95,4.586 8.95,5.35 Q8.95,8.95 5.35,8.95 Q4.586,8.95 3.914,8.654 Q3.25,10.235 3.25,12 Q3.25,13.765 3.914,15.346 Q4.586,15.05 5.35,15.05 Q8.95,15.05 8.95,18.65 Q8.95,19.421 8.657,20.087 Q10.237,20.75 12,20.75 Q13.765,20.75 15.346,20.086 Q15.05,19.414 15.05,18.65 Q15.05,15.05 18.65,15.05 Q19.421,15.05 20.087,15.343 Q20.75,13.763 20.75,12 Z"/>
</svg>

