<svg xmlns="http://www.w3.org/2000/svg" width="24" height="24" viewBox="0 0 24 24">
  <defs/>
  <path fill="#292D32" d="M9.03,5.17 C9.02,5.08 9.01,5 8.99,4.91 C8.98,4.84 8.97,4.77 8.95,4.69 C8.92,4.57 8.88,4.44 8.83,4.32 C8.71,3.97 8.53,3.65 8.3,3.35 C8.17,3.19 8.03,3.03 7.87,2.9 C7.23,2.32 6.4,2 5.53,2 C3.58,2 2,3.58 2,5.53 C2,6.4 2.32,7.23 2.9,7.87 C3.03,8.03 3.19,8.17 3.35,8.3 C3.65,8.53 3.97,8.71 4.32,8.83 C4.44,8.88 4.57,8.92 4.69,8.95 C4.77,8.97 4.84,8.98 4.91,8.99 C5,9.01 5.08,9.02 5.17,9.03 C5.29,9.04 5.41,9.05 5.53,9.05 C7.47,9.05 9.05,7.47 9.05,5.53 C9.05,5.41 9.04,5.29 9.03,5.17 Z"/>
  <path fill="#292D32" d="M21.099,16.14 C20.999,16.01 20.869,15.88 20.729,15.77 C20.709,15.75 20.679,15.72 20.649,15.7 C20.379,15.49 20.079,15.32 19.769,15.2 C19.739,15.18 19.709,15.17 19.679,15.17 C19.569,15.13 19.459,15.09 19.349,15.06 C19.179,15.02 18.999,14.99 18.829,14.97 C18.709,14.96 18.589,14.95 18.469,14.95 C16.529,14.95 14.949,16.53 14.949,18.47 C14.949,18.59 14.959,18.71 14.969,18.83 C14.989,19 15.019,19.18 15.059,19.35 C15.089,19.46 15.129,19.57 15.169,19.68 C15.169,19.71 15.179,19.74 15.199,19.77 C15.319,20.08 15.489,20.38 15.699,20.65 C15.719,20.68 15.749,20.7 15.769,20.73 C15.879,20.87 16.009,21 16.139,21.1 C16.779,21.68 17.599,22 18.469,22 C20.419,22 21.999,20.42 21.999,18.47 C21.999,17.6 21.679,16.78 21.099,16.14 Z"/>
  <path fill="#292D32" d="M5.53,14.95 C5.41,14.95 5.29,14.96 5.17,14.97 C5,14.99 4.82,15.02 4.65,15.06 C4.54,15.09 4.43,15.13 4.32,15.17 C4.29,15.17 4.26,15.18 4.23,15.2 C3.92,15.32 3.62,15.49 3.35,15.7 C3.32,15.72 3.3,15.75 3.27,15.77 C3.13,15.88 3,16.01 2.9,16.14 C2.32,16.78 2,17.6 2,18.47 C2,20.42 3.58,22 5.53,22 C6.4,22 7.23,21.68 7.87,21.1 C8.03,20.97 8.17,20.81 8.3,20.65 C8.51,20.38 8.68,20.08 8.8,19.77 C8.82,19.74 8.83,19.71 8.83,19.68 C8.87,19.57 8.91,19.46 8.94,19.35 C8.98,19.18 9.01,19 9.03,18.83 C9.04,18.71 9.05,18.59 9.05,18.47 C9.05,16.53 7.47,14.95 5.53,14.95 Z"/>
  <path fill="#292D32" d="M18.469,2 C17.599,2 16.779,2.32 16.139,2.9 C16.009,3 15.879,3.13 15.769,3.27 C15.749,3.29 15.719,3.32 15.699,3.35 C15.489,3.62 15.319,3.92 15.199,4.23 C15.179,4.26 15.169,4.29 15.169,4.32 C15.129,4.43 15.089,4.54 15.059,4.65 C15.019,4.82 14.989,5 14.969,5.17 C14.959,5.29 14.949,5.41 14.949,5.53 C14.949,7.47 16.529,9.05 18.469,9.05 C18.589,9.05 18.709,9.04 18.829,9.03 C18.999,9.01 19.179,8.98 19.349,8.94 C19.459,8.91 19.569,8.87 19.679,8.83 C19.709,8.83 19.739,8.82 19.769,8.8 C20.079,8.68 20.379,8.51 20.649,8.3 C20.809,8.17 20.969,8.03 21.099,7.87 C21.679,7.23 21.999,6.4 21.999,5.53 C21.999,3.58 20.419,2 18.469,2 Z"/>
  <path fill="#292D32" opacity="0.4" d="M15.77,20.73 C15.75,20.7 15.72,20.68 15.7,20.65 C15.49,20.38 15.32,20.08 15.2,19.77 C15.21,19.8 15.22,19.83 15.23,19.86 C13.22,20.7 10.82,20.71 8.77,19.86 C8.78,19.83 8.79,19.8 8.8,19.77 C8.68,20.08 8.51,20.38 8.3,20.65 C8.17,20.81 8.03,20.97 7.87,21.1 C9.15,21.69 10.57,22 12,22 C13.46,22 14.85,21.7 16.14,21.1 C16.01,21 15.88,20.87 15.77,20.73 Z M3.5,12 C3.5,10.89 3.72,9.78 4.14,8.77 C4.15,8.77 4.17,8.78 4.18,8.78 C4.06,8.73 3.93,8.67 3.82,8.61 C3.66,8.52 3.5,8.42 3.35,8.3 C3.19,8.17 3.03,8.03 2.9,7.87 C2.31,9.15 2,10.57 2,12 C2,13.46 2.3,14.85 2.9,16.14 C3,16.01 3.13,15.88 3.27,15.77 C3.3,15.75 3.32,15.72 3.35,15.7 C3.62,15.49 3.92,15.32 4.23,15.2 C4.2,15.21 4.17,15.22 4.14,15.23 C3.71,14.22 3.5,13.13 3.5,12 Z M21.1,7.87 C20.97,8.03 20.81,8.17 20.65,8.3 C20.38,8.51 20.08,8.68 19.77,8.8 C19.8,8.79 19.83,8.78 19.86,8.77 C20.28,9.78 20.5,10.89 20.5,12 C20.5,13.13 20.29,14.22 19.86,15.23 C19.83,15.22 19.8,15.21 19.77,15.2 C20.08,15.32 20.38,15.49 20.65,15.7 C20.68,15.72 20.71,15.75 20.73,15.77 C20.87,15.88 21,16.01 21.1,16.14 C21.7,14.85 22,13.46 22,12 C22,10.57 21.69,9.15 21.1,7.87 Z M12,2 C10.57,2 9.15,2.31 7.87,2.9 C8.03,3.03 8.17,3.19 8.3,3.35 C8.42,3.5 8.52,3.66 8.61,3.82 C8.67,3.93 8.73,4.06 8.78,4.18 C8.78,4.17 8.77,4.15 8.77,4.14 C10.81,3.29 13.22,3.3 15.23,4.14 C15.22,4.17 15.21,4.2 15.2,4.23 C15.32,3.92 15.49,3.62 15.7,3.35 C15.72,3.32 15.75,3.29 15.77,3.27 C15.88,3.13 16.01,3 16.14,2.9 C14.85,2.3 13.46,2 12,2 Z"/>
</svg>

