<svg xmlns="http://www.w3.org/2000/svg" width="24" height="24" viewBox="0 0 24 24">
  <defs/>
  <path fill="#292D32" d="M1.25,8.34 Q1.25,6.778 2.605,6.003 Q3.963,5.225 5.303,6.02 L8.475,7.84 L11.656,9.677 Q12.075,9.928 12.342,10.257 Q12.51,10.464 12.51,10.73 L12.51,13.29 Q12.51,13.556 12.342,13.763 Q12.075,14.092 11.645,14.35 L8.473,16.18 L5.305,18 Q3.955,18.778 2.603,17.998 Q1.25,17.218 1.25,15.66 Z M2.75,8.34 L2.75,15.66 Q2.75,16.352 3.352,16.699 Q3.955,17.047 4.555,16.7 L7.727,14.879 L10.895,13.05 Q10.957,13.013 11.01,12.974 L11.01,11.047 Q10.953,11.004 10.884,10.963 L7.725,9.139 L4.557,7.32 Q3.95,6.961 3.35,7.305 Q2.75,7.648 2.75,8.34 Z"/>
  <path fill="#292D32" d="M14.305,7.3 Q13.705,6.953 13.102,7.301 Q12.5,7.648 12.5,8.34 L12.5,15.66 Q12.5,16.352 13.102,16.699 Q13.705,17.047 14.305,16.7 L17.477,14.88 L20.645,13.051 Q21.245,12.704 21.245,12.014 Q21.245,11.32 20.641,10.968 L18.465,9.709 Q18.196,9.554 18.115,9.254 Q18.035,8.954 18.191,8.685 Q18.346,8.416 18.646,8.336 Q18.946,8.255 19.215,8.411 L21.399,9.673 Q22.745,10.46 22.745,12.014 Q22.745,13.571 21.395,14.35 L18.223,16.181 L15.055,18 Q13.705,18.778 12.353,17.999 Q11,17.218 11,15.66 L11,8.34 Q11,6.782 12.353,6.002 Q13.705,5.222 15.055,6 Q15.324,6.156 15.404,6.456 Q15.485,6.756 15.33,7.025 Q15.174,7.294 14.874,7.374 Q14.574,7.455 14.305,7.3 Z"/>
</svg>

