<svg xmlns="http://www.w3.org/2000/svg" width="24" height="24" viewBox="0 0 24 24">
  <defs/>
  <path fill="#292D32" d="M3.95,18.36 C3.49,18.36 3.02,18.24 2.6,17.99 C1.75,17.5 1.25,16.63 1.25,15.65 L1.25,8.33 C1.25,7.35 1.75,6.48 2.6,5.99 C3.45,5.5 4.46,5.5 5.3,5.99 L11.64,9.65 C11.93,9.82 12.16,10.02 12.34,10.24 C12.45,10.37 12.51,10.54 12.51,10.71 L12.51,13.27 C12.51,13.44 12.45,13.61 12.34,13.74 C12.16,13.96 11.93,14.16 11.66,14.32 L5.3,18 C4.88,18.24 4.42,18.36 3.95,18.36 Z M3.95,7.14 C3.74,7.14 3.54,7.19 3.35,7.3 C2.97,7.52 2.75,7.91 2.75,8.34 L2.75,15.66 C2.75,16.09 2.97,16.48 3.35,16.7 C3.73,16.92 4.17,16.92 4.55,16.7 L10.89,13.04 C10.93,13.02 10.97,12.99 11,12.96 L11,11.03 C10.96,11 10.92,10.97 10.88,10.95 L4.55,7.3 C4.36,7.19 4.16,7.14 3.95,7.14 Z"/>
  <path fill="#292D32" d="M13.71,18.36 C13.25,18.36 12.78,18.24 12.36,17.99 C11.51,17.5 11.01,16.63 11.01,15.65 L11.01,8.33 C11.01,7.35 11.51,6.48 12.36,5.99 C13.21,5.5 14.22,5.5 15.06,5.99 L21.4,9.65 C22.24,10.14 22.75,11.01 22.75,11.99 C22.75,12.97 22.25,13.84 21.4,14.33 L15.06,17.99 C14.64,18.24 14.17,18.36 13.71,18.36 Z M13.71,7.14 C13.5,7.14 13.3,7.19 13.11,7.3 C12.73,7.52 12.51,7.9 12.51,8.34 L12.51,15.66 C12.51,16.09 12.73,16.48 13.11,16.7 C13.49,16.92 13.94,16.92 14.31,16.7 L20.65,13.04 C21.03,12.82 21.25,12.43 21.25,12 C21.25,11.57 21.03,11.18 20.65,10.96 L14.31,7.3 C14.12,7.19 13.92,7.14 13.71,7.14 Z"/>
</svg>

