<svg xmlns="http://www.w3.org/2000/svg" width="24" height="24" viewBox="0 0 24 24">
  <defs/>
  <path fill="#292D32" d="M15.96,11.58 L13.441,11.58 L13.179,12.37 L14.43,12.37 Q15.372,12.37 16.039,13.035 Q16.71,13.703 16.71,14.65 Q16.71,16.93 14.43,16.93 L12.14,16.93 Q11.829,16.93 11.61,16.71 Q11.39,16.491 11.39,16.18 Q11.39,15.869 11.61,15.65 Q11.829,15.43 12.14,15.43 L14.43,15.43 Q15.21,15.43 15.21,14.65 Q15.21,13.87 14.43,13.87 L12.14,13.87 Q12.019,13.87 11.904,13.832 Q11.609,13.734 11.47,13.456 Q11.33,13.179 11.428,12.884 L12.188,10.594 Q12.359,10.08 12.9,10.08 L15.96,10.08 Q16.271,10.08 16.49,10.3 Q16.71,10.519 16.71,10.83 Q16.71,11.141 16.49,11.36 Q16.271,11.58 15.96,11.58 Z"/>
  <path fill="#292D32" d="M8.79,16.17 L8.79,12.787 L8.598,13.001 Q8.39,13.232 8.08,13.249 Q7.77,13.266 7.539,13.058 Q7.308,12.85 7.291,12.54 Q7.274,12.23 7.482,11.999 L8.982,10.329 Q9.206,10.08 9.54,10.08 Q9.851,10.08 10.07,10.3 Q10.29,10.519 10.29,10.83 L10.29,16.17 Q10.29,16.481 10.07,16.7 Q9.851,16.92 9.54,16.92 Q9.229,16.92 9.01,16.7 Q8.79,16.481 8.79,16.17 Z"/>
  <path fill="#292D32" d="M13.395,4.939 L11.415,2.469 Q11.221,2.227 11.255,1.918 Q11.289,1.609 11.531,1.415 Q11.773,1.221 12.082,1.255 Q12.391,1.289 12.585,1.531 L14.565,4.001 Q14.759,4.243 14.725,4.552 Q14.691,4.861 14.449,5.055 Q14.207,5.249 13.898,5.215 Q13.589,5.181 13.395,4.939 Z"/>
  <path fill="#292D32" d="M19.69,7.35 Q21.64,9.95 21.64,13.11 Q21.64,17.103 18.816,19.927 Q15.993,22.75 12,22.75 Q8.007,22.75 5.183,19.927 Q2.36,17.103 2.36,13.11 Q2.36,9.117 5.183,6.293 Q8.007,3.47 12,3.47 Q13.042,3.47 14.151,3.73 Q14.454,3.801 14.617,4.065 Q14.781,4.329 14.71,4.631 Q14.639,4.934 14.375,5.097 Q14.111,5.261 13.809,5.19 Q12.869,4.97 12,4.97 Q8.628,4.97 6.244,7.354 Q3.86,9.738 3.86,13.11 Q3.86,16.482 6.244,18.866 Q8.628,21.25 12,21.25 Q15.372,21.25 17.756,18.866 Q20.14,16.482 20.14,13.11 Q20.14,10.45 18.49,8.25 Q18.304,8.001 18.347,7.694 Q18.391,7.386 18.64,7.2 Q18.888,7.014 19.196,7.058 Q19.504,7.101 19.69,7.35 Z"/>
</svg>

