<svg xmlns="http://www.w3.org/2000/svg" width="24" height="24" viewBox="0 0 24 24">
  <defs/>
  <path fill="#292D32" opacity="0.4" d="M15.961,11.58 L13.442,11.58 L13.18,12.37 L14.431,12.37 Q16.711,12.37 16.711,14.65 Q16.711,15.591 16.046,16.259 Q15.378,16.93 14.431,16.93 L12.141,16.93 Q11.83,16.93 11.61,16.71 Q11.391,16.491 11.391,16.18 Q11.391,15.869 11.61,15.65 Q11.83,15.43 12.141,15.43 L14.431,15.43 Q15.211,15.43 15.211,14.65 Q15.211,13.87 14.431,13.87 L12.141,13.87 Q12.019,13.87 11.904,13.832 Q11.61,13.734 11.47,13.456 Q11.331,13.179 11.429,12.884 L12.189,10.594 Q12.359,10.08 12.901,10.08 L15.961,10.08 Q16.271,10.08 16.491,10.3 Q16.711,10.519 16.711,10.83 Q16.711,11.141 16.491,11.36 Q16.271,11.58 15.961,11.58 Z"/>
  <path fill="#292D32" opacity="0.4" d="M8.789,16.17 L8.789,12.787 L8.597,13.001 Q8.389,13.232 8.079,13.249 Q7.769,13.266 7.538,13.058 Q7.307,12.85 7.29,12.54 Q7.273,12.23 7.481,11.999 L8.981,10.329 Q9.205,10.08 9.539,10.08 Q9.85,10.08 10.069,10.3 Q10.289,10.519 10.289,10.83 L10.289,16.17 Q10.289,16.481 10.069,16.7 Q9.85,16.92 9.539,16.92 Q9.228,16.92 9.009,16.7 Q8.789,16.481 8.789,16.17 Z"/>
  <path fill="#292D32" d="M13.395,4.939 L11.415,2.469 Q11.221,2.227 11.255,1.918 Q11.289,1.609 11.531,1.415 Q11.773,1.221 12.082,1.255 Q12.391,1.289 12.585,1.531 L14.565,4.001 Q14.759,4.243 14.725,4.552 Q14.691,4.861 14.449,5.055 Q14.207,5.249 13.898,5.215 Q13.589,5.181 13.395,4.939 Z"/>
  <path fill="#292D32" d="M19.689,7.35 Q21.639,9.95 21.639,13.11 Q21.639,17.103 18.816,19.926 Q15.993,22.75 11.999,22.75 Q8.006,22.75 5.183,19.926 Q2.359,17.103 2.359,13.11 Q2.359,9.117 5.183,6.293 Q8.006,3.47 11.999,3.47 Q13.042,3.47 14.151,3.73 Q14.453,3.8 14.617,4.064 Q14.781,4.328 14.71,4.631 Q14.639,4.933 14.375,5.097 Q14.111,5.261 13.808,5.19 Q12.868,4.97 11.999,4.97 Q8.628,4.97 6.243,7.354 Q3.859,9.738 3.859,13.11 Q3.859,16.482 6.243,18.866 Q8.628,21.25 11.999,21.25 Q15.371,21.25 17.755,18.866 Q20.139,16.482 20.139,13.11 Q20.139,10.45 18.489,8.25 Q18.303,8.001 18.347,7.694 Q18.391,7.386 18.639,7.2 Q18.888,7.013 19.195,7.057 Q19.503,7.101 19.689,7.35 Z"/>
</svg>

