<svg xmlns="http://www.w3.org/2000/svg" width="24" height="24" viewBox="0 0 24 24">
  <defs/>
  <path fill="#292D32" d="M15,16.13 L10.08,16.13 Q8.494,16.13 7.372,15.008 Q6.25,13.886 6.25,12.3 Q6.25,10.715 7.372,9.592 Q8.494,8.47 10.08,8.47 L16.85,8.47 Q17.161,8.47 17.38,8.69 Q17.6,8.91 17.6,9.22 Q17.6,9.531 17.38,9.751 Q17.161,9.97 16.85,9.97 L10.08,9.97 Q7.75,9.97 7.75,12.3 Q7.75,14.63 10.08,14.63 L15,14.63 Q15.311,14.63 15.53,14.85 Q15.75,15.07 15.75,15.38 Q15.75,15.691 15.53,15.911 Q15.311,16.13 15,16.13 Z"/>
  <path fill="#292D32" d="M14.898,10.241 L15.941,9.192 L14.899,8.15 Q14.68,7.931 14.68,7.62 Q14.68,7.309 14.899,7.09 Q15.119,6.87 15.43,6.87 Q15.74,6.87 15.96,7.09 L17.53,8.66 Q17.749,8.879 17.75,9.189 Q17.75,9.499 17.532,9.719 L15.962,11.299 Q15.743,11.519 15.432,11.52 Q15.121,11.521 14.901,11.302 Q14.681,11.083 14.68,10.772 Q14.679,10.462 14.898,10.241 Z"/>
  <path fill="#292D32" d="M2.75,14 L2.75,15 Q2.75,18.439 4.155,19.845 Q5.561,21.25 9,21.25 L15,21.25 Q18.439,21.25 19.845,19.845 Q21.25,18.439 21.25,15 L21.25,9 Q21.25,2.75 15,2.75 L9,2.75 Q2.75,2.75 2.75,9 Q2.75,9.311 2.53,9.53 Q2.311,9.75 2,9.75 Q1.689,9.75 1.47,9.53 Q1.25,9.311 1.25,9 Q1.25,1.25 9,1.25 L15,1.25 Q22.75,1.25 22.75,9 L22.75,15 Q22.75,22.75 15,22.75 L9,22.75 Q1.25,22.75 1.25,15 L1.25,14 Q1.25,13.689 1.47,13.47 Q1.689,13.25 2,13.25 Q2.311,13.25 2.53,13.47 Q2.75,13.689 2.75,14 Z"/>
</svg>

