<svg xmlns="http://www.w3.org/2000/svg" width="24" height="24" viewBox="0 0 24 24">
  <defs/>
  <path fill="#292D32" opacity="0.4" d="M21.25,5.77 L21.25,9 C21.25,11.29 20.52,12.02 18.23,12.02 L18.131,12.02 L18.131,10.38 C18.131,7.26 16.741,5.87 13.62,5.87 L11.98,5.87 L11.98,5.77 C11.98,3.48 12.71,2.75 15.001,2.75 L18.23,2.75 C20.52,2.75 21.25,3.48 21.25,5.77 Z"/>
  <path fill="#292D32" d="M16.629,10.38 L16.629,13.62 C16.629,15.9 15.899,16.63 13.619,16.63 L10.379,16.63 C8.099,16.63 7.369,15.9 7.369,13.62 L7.369,10.38 C7.369,8.1 8.099,7.37 10.379,7.37 L13.619,7.37 C15.899,7.37 16.629,8.1 16.629,10.38 Z"/>
  <path fill="#292D32" opacity="0.4" d="M12.02,18.13 L12.02,18.23 C12.02,20.52 11.29,21.25 9,21.25 L5.77,21.25 C3.48,21.25 2.75,20.52 2.75,18.23 L2.75,15 C2.75,12.71 3.48,11.98 5.77,11.98 L5.87,11.98 L5.87,13.62 C5.87,16.74 7.26,18.13 10.38,18.13 L12.02,18.13 Z"/>
</svg>

