<svg xmlns="http://www.w3.org/2000/svg" width="24" height="24" viewBox="0 0 24 24">
  <defs/>
  <path fill="#292D32" d="M2,8.34 L2,15.66 C2,17.16 3.63,18.1 4.93,17.35 L8.1,15.52 L11.27,13.69 L11.76,13.41 L11.76,10.59 L11.27,10.31 L8.1,8.48 L4.93,6.65 C3.63,5.9 2,6.84 2,8.34 Z"/>
  <path fill="#292D32" d="M11.762,8.34 L11.762,15.66 C11.762,17.16 13.392,18.1 14.682,17.35 L17.862,15.52 L21.032,13.69 C22.322,12.94 22.322,11.06 21.032,10.31 L17.862,8.48 L14.682,6.65 C13.392,5.9 11.762,6.84 11.762,8.34 Z"/>
</svg>

