<svg xmlns="http://www.w3.org/2000/svg" width="24" height="24" viewBox="0 0 24 24">
  <defs/>
  <path fill="#292D32" opacity="0.4" d="M19.481,7.09 C19.221,6.77 18.751,6.72 18.431,6.98 C18.111,7.24 18.061,7.71 18.321,8.03 C19.451,9.43 20.081,11.09 20.141,12.83 C20.301,17.31 16.781,21.09 12.291,21.24 C7.811,21.4 4.031,17.88 3.881,13.39 C3.731,8.9 7.241,5.13 11.731,4.98 C12.301,4.96 12.901,5.01 13.551,5.14 C13.591,5.15 13.631,5.14 13.671,5.14 C13.771,5.19 13.891,5.22 14.001,5.22 C14.171,5.22 14.331,5.17 14.471,5.05 C14.791,4.79 14.841,4.32 14.591,4 L12.611,1.53 C12.351,1.21 11.881,1.15 11.561,1.41 C11.241,1.67 11.191,2.14 11.441,2.46 L12.271,3.49 C12.081,3.48 11.881,3.47 11.691,3.48 C6.381,3.66 2.211,8.14 2.401,13.45 C2.591,18.76 7.061,22.93 12.371,22.74 C17.681,22.55 21.851,18.08 21.661,12.77 C21.561,10.71 20.821,8.74 19.481,7.09 Z"/>
  <path fill="#292D32" d="M12.381,16.92 L10.091,16.92 C9.681,16.92 9.341,16.58 9.341,16.17 C9.341,15.76 9.681,15.42 10.091,15.42 L12.381,15.42 C12.811,15.42 13.161,15.07 13.161,14.64 C13.161,14.21 12.811,13.86 12.381,13.86 L10.091,13.86 C9.851,13.86 9.621,13.74 9.481,13.55 C9.341,13.36 9.301,13.1 9.381,12.87 L10.141,10.58 C10.241,10.27 10.531,10.07 10.851,10.07 L13.911,10.07 C14.321,10.07 14.661,10.41 14.661,10.82 C14.661,11.23 14.321,11.57 13.911,11.57 L11.391,11.57 L11.131,12.36 L12.381,12.36 C13.641,12.36 14.661,13.38 14.661,14.64 C14.661,15.9 13.641,16.92 12.381,16.92 Z"/>
</svg>

