<svg xmlns="http://www.w3.org/2000/svg" width="24" height="24" viewBox="0 0 24 24">
  <defs/>
  <path fill="#292D32" d="M19.479,7.091 C19.219,6.771 18.749,6.721 18.429,6.981 C18.109,7.241 18.059,7.711 18.319,8.031 C19.449,9.431 20.079,11.091 20.139,12.831 C20.299,17.311 16.779,21.09 12.289,21.241 C7.799,21.401 4.029,17.881 3.869,13.4 C3.709,8.921 7.229,5.141 11.719,4.991 C12.289,4.971 12.889,5.021 13.539,5.151 C13.579,5.161 13.619,5.151 13.659,5.151 C13.759,5.201 13.879,5.231 13.989,5.231 C14.159,5.231 14.319,5.181 14.459,5.061 C14.779,4.801 14.829,4.331 14.579,4.011 L12.599,1.541 C12.339,1.221 11.869,1.161 11.549,1.421 C11.229,1.681 11.179,2.151 11.429,2.471 L12.259,3.501 C12.069,3.491 11.869,3.481 11.679,3.491 C6.369,3.671 2.199,8.151 2.389,13.46 C2.579,18.77 7.049,22.941 12.359,22.75 C17.669,22.561 21.839,18.09 21.649,12.78 C21.559,10.71 20.819,8.741 19.479,7.091 Z"/>
  <path fill="#292D32" d="M12.381,16.92 L10.091,16.92 C9.681,16.92 9.341,16.58 9.341,16.17 C9.341,15.76 9.681,15.42 10.091,15.42 L12.381,15.42 C12.811,15.42 13.161,15.07 13.161,14.64 C13.161,14.21 12.811,13.86 12.381,13.86 L10.091,13.86 C9.851,13.86 9.621,13.74 9.481,13.55 C9.341,13.36 9.301,13.1 9.381,12.87 L10.141,10.58 C10.241,10.27 10.531,10.07 10.851,10.07 L13.911,10.07 C14.321,10.07 14.661,10.41 14.661,10.82 C14.661,11.23 14.321,11.57 13.911,11.57 L11.391,11.57 L11.131,12.36 L12.381,12.36 C13.641,12.36 14.661,13.38 14.661,14.64 C14.661,15.9 13.641,16.92 12.381,16.92 Z"/>
</svg>

