<svg xmlns="http://www.w3.org/2000/svg" width="24" height="24" viewBox="0 0 24 24">
  <defs/>
  <path fill="#292D32" opacity="0.4" d="M19.69,7.35 C19.44,7.02 18.97,6.95 18.64,7.2 C18.31,7.45 18.24,7.92 18.49,8.25 C19.57,9.69 20.14,11.37 20.14,13.11 C20.14,17.6 16.49,21.25 12,21.25 C7.51,21.25 3.86,17.6 3.86,13.11 C3.86,8.62 7.51,4.97 12,4.97 C12.58,4.97 13.17,5.04 13.81,5.19 C13.84,5.2 13.87,5.19 13.91,5.19 C13.93,5.19 13.96,5.21 13.98,5.21 C14.01,5.21 14.03,5.2 14.06,5.2 C14.1,5.2 14.13,5.19 14.16,5.18 C14.21,5.17 14.26,5.15 14.31,5.12 C14.34,5.1 14.38,5.09 14.41,5.07 C14.42,5.06 14.44,5.06 14.45,5.05 C14.48,5.03 14.49,5 14.51,4.98 C14.55,4.94 14.58,4.91 14.61,4.86 C14.64,4.82 14.65,4.77 14.67,4.73 C14.68,4.7 14.7,4.67 14.71,4.64 C14.71,4.62 14.71,4.61 14.71,4.59 C14.72,4.54 14.72,4.49 14.71,4.44 C14.71,4.39 14.71,4.35 14.7,4.3 C14.69,4.26 14.67,4.22 14.65,4.17 C14.63,4.12 14.61,4.07 14.58,4.03 C14.57,4.02 14.57,4 14.56,3.99 L12.58,1.52 C12.32,1.2 11.85,1.15 11.53,1.4 C11.21,1.66 11.16,2.13 11.41,2.45 L12.23,3.47 C12.15,3.47 12.07,3.46 11.99,3.46 C6.68,3.46 2.35,7.78 2.35,13.1 C2.35,18.42 6.67,22.74 11.99,22.74 C17.31,22.74 21.63,18.42 21.63,13.1 C21.64,11.04 20.96,9.05 19.69,7.35 Z"/>
  <path fill="#292D32" d="M9.54,16.67 C9.13,16.67 8.79,16.33 8.79,15.92 L8.79,12.53 L8.6,12.74 C8.32,13.05 7.85,13.07 7.54,12.8 C7.23,12.52 7.21,12.05 7.48,11.74 L8.98,10.07 C9.19,9.84 9.52,9.76 9.81,9.87 C10.1,9.98 10.29,10.26 10.29,10.57 L10.29,15.92 C10.29,16.34 9.96,16.67 9.54,16.67 Z"/>
  <path fill="#292D32" d="M14,16.67 C12.48,16.67 11.25,15.44 11.25,13.92 L11.25,12.57 C11.25,11.05 12.48,9.82 14,9.82 C15.52,9.82 16.75,11.05 16.75,12.57 L16.75,13.92 C16.75,15.44 15.52,16.67 14,16.67 Z M14,11.33 C13.31,11.33 12.75,11.89 12.75,12.58 L12.75,13.93 C12.75,14.62 13.31,15.18 14,15.18 C14.69,15.18 15.25,14.62 15.25,13.93 L15.25,12.58 C15.25,11.89 14.69,11.33 14,11.33 Z"/>
</svg>

