<svg xmlns="http://www.w3.org/2000/svg" width="24" height="24" viewBox="0 0 24 24">
  <defs/>
  <path fill="#292D32" d="M13.98,5.22 C13.76,5.22 13.54,5.12 13.4,4.94 L11.42,2.47 C11.16,2.15 11.21,1.67 11.54,1.42 C11.87,1.17 12.33,1.21 12.59,1.54 L14.57,4.01 C14.83,4.33 14.78,4.81 14.45,5.06 C14.31,5.16 14.14,5.22 13.98,5.22 Z"/>
  <path fill="#292D32" d="M11.999,22.75 C6.689,22.75 2.359,18.43 2.359,13.11 C2.359,7.79 6.679,3.47 11.999,3.47 C12.689,3.47 13.389,3.55 14.149,3.73 C14.549,3.82 14.809,4.23 14.709,4.63 C14.619,5.03 14.219,5.29 13.809,5.19 C13.169,5.04 12.569,4.97 11.999,4.97 C7.509,4.97 3.859,8.62 3.859,13.11 C3.859,17.6 7.509,21.25 11.999,21.25 C16.489,21.25 20.139,17.6 20.139,13.11 C20.139,11.37 19.569,9.69 18.489,8.25 C18.239,7.92 18.309,7.45 18.639,7.2 C18.969,6.95 19.439,7.02 19.689,7.35 C20.969,9.05 21.639,11.04 21.639,13.11 C21.639,18.43 17.309,22.75 11.999,22.75 Z"/>
  <path fill="#292D32" d="M12.381,16.92 L10.091,16.92 C9.681,16.92 9.341,16.58 9.341,16.17 C9.341,15.76 9.681,15.42 10.091,15.42 L12.381,15.42 C12.811,15.42 13.161,15.07 13.161,14.64 C13.161,14.21 12.811,13.86 12.381,13.86 L10.091,13.86 C9.851,13.86 9.621,13.74 9.481,13.55 C9.341,13.36 9.301,13.1 9.381,12.87 L10.141,10.58 C10.241,10.27 10.531,10.07 10.851,10.07 L13.911,10.07 C14.321,10.07 14.661,10.41 14.661,10.82 C14.661,11.23 14.321,11.57 13.911,11.57 L11.391,11.57 L11.131,12.36 L12.381,12.36 C13.641,12.36 14.661,13.38 14.661,14.64 C14.661,15.9 13.641,16.92 12.381,16.92 Z"/>
</svg>

