<svg xmlns="http://www.w3.org/2000/svg" width="24" height="24" viewBox="0 0 24 24">
  <defs/>
  <path fill="#292D32" d="M13.621,18.13 L10.391,18.13 C7.261,18.13 5.871,16.74 5.871,13.61 L5.871,10.38 C5.871,7.25 7.261,5.86 10.391,5.86 L13.621,5.86 C16.751,5.86 18.141,7.25 18.141,10.38 L18.141,13.61 C18.131,16.74 16.741,18.13 13.621,18.13 Z M10.381,7.37 C8.091,7.37 7.361,8.1 7.361,10.39 L7.361,13.62 C7.361,15.91 8.091,16.64 10.381,16.64 L13.611,16.64 C15.901,16.64 16.631,15.91 16.631,13.62 L16.631,10.39 C16.631,8.1 15.901,7.37 13.611,7.37 L10.381,7.37 Z"/>
  <path fill="#292D32" d="M18.23,13.52 L17.381,13.52 C16.971,13.52 16.631,13.18 16.631,12.77 L16.631,10.39 C16.631,8.1 15.9,7.37 13.611,7.37 L11.23,7.37 C10.82,7.37 10.48,7.03 10.48,6.62 L10.48,5.77 C10.48,2.64 11.87,1.25 15.001,1.25 L18.23,1.25 C21.36,1.25 22.75,2.64 22.75,5.77 L22.75,9 C22.75,12.13 21.36,13.52 18.23,13.52 Z M18.131,12.02 L18.23,12.02 C20.52,12.02 21.25,11.29 21.25,9 L21.25,5.77 C21.25,3.48 20.52,2.75 18.23,2.75 L15.001,2.75 C12.71,2.75 11.98,3.48 11.98,5.77 L11.98,5.87 L13.611,5.87 C16.741,5.87 18.131,7.26 18.131,10.39 L18.131,12.02 Z"/>
  <path fill="#292D32" d="M9,22.75 L5.77,22.75 C2.64,22.75 1.25,21.36 1.25,18.23 L1.25,15 C1.25,11.87 2.64,10.48 5.77,10.48 L6.62,10.48 C7.03,10.48 7.37,10.82 7.37,11.23 L7.37,13.61 C7.37,15.9 8.1,16.63 10.39,16.63 L12.77,16.63 C13.18,16.63 13.52,16.97 13.52,17.38 L13.52,18.23 C13.52,21.36 12.13,22.75 9,22.75 Z M5.77,11.98 C3.48,11.98 2.75,12.71 2.75,15 L2.75,18.23 C2.75,20.52 3.48,21.25 5.77,21.25 L9,21.25 C11.29,21.25 12.02,20.52 12.02,18.23 L12.02,18.13 L10.39,18.13 C7.26,18.13 5.87,16.74 5.87,13.61 L5.87,11.98 L5.77,11.98 Z"/>
</svg>

