<svg xmlns="http://www.w3.org/2000/svg" width="24" height="24" viewBox="0 0 24 24">
  <defs/>
  <path fill="#292D32" d="M21.25,5.77 L21.25,9 C21.25,11.115 20.543,11.899 18.631,12.007 C18.355,12.022 18.131,11.796 18.131,11.52 L18.131,10.38 C18.131,7.26 16.741,5.87 13.62,5.87 L12.48,5.87 C12.204,5.87 11.978,5.645 11.994,5.369 C12.101,3.458 12.886,2.75 15.001,2.75 L18.23,2.75 C20.52,2.75 21.25,3.48 21.25,5.77 Z"/>
  <path fill="#292D32" d="M16.629,10.381 L16.629,13.621 C16.629,15.901 15.899,16.631 13.619,16.631 L10.379,16.631 C8.099,16.631 7.369,15.901 7.369,13.621 L7.369,10.381 C7.369,8.101 8.099,7.371 10.379,7.371 L13.619,7.371 C15.899,7.371 16.629,8.101 16.629,10.381 Z"/>
  <path fill="#292D32" d="M11.52,18.131 C11.796,18.131 12.022,18.355 12.007,18.631 C11.899,20.543 11.115,21.25 9,21.25 L5.77,21.25 C3.48,21.25 2.75,20.52 2.75,18.23 L2.75,15.001 C2.75,12.886 3.458,12.101 5.369,11.994 C5.645,11.978 5.87,12.204 5.87,12.48 L5.87,13.62 C5.87,16.741 7.26,18.131 10.38,18.131 L11.52,18.131 Z"/>
</svg>

