<svg xmlns="http://www.w3.org/2000/svg" width="24" height="24" viewBox="0 0 24 24">
  <defs/>
  <path fill="#292D32" d="M5.994,15.117 Q5.859,14.444 5.859,13.61 L5.859,10.38 Q5.859,8.052 6.955,6.956 Q8.051,5.86 10.379,5.86 L13.609,5.86 Q15.938,5.86 17.033,6.956 Q18.129,8.052 18.129,10.38 L18.129,13.61 Q18.129,15.938 17.033,17.034 Q15.938,18.13 13.609,18.13 L10.379,18.13 Q10.069,18.13 9.849,17.91 Q9.629,17.691 9.629,17.38 Q9.629,17.069 9.849,16.85 Q10.069,16.63 10.379,16.63 L13.609,16.63 Q15.316,16.63 15.973,15.973 Q16.629,15.317 16.629,13.61 L16.629,10.38 Q16.629,7.36 13.609,7.36 L10.379,7.36 Q8.673,7.36 8.016,8.016 Q7.359,8.673 7.359,10.38 L7.359,13.61 Q7.359,14.296 7.465,14.823 Q7.526,15.127 7.353,15.386 Q7.181,15.644 6.876,15.705 Q6.572,15.766 6.313,15.594 Q6.055,15.422 5.994,15.117 Z"/>
  <path fill="#292D32" d="M22.75,5.77 L22.75,9 Q22.75,11.328 21.655,12.424 Q20.559,13.52 18.23,13.52 L17.381,13.52 Q17.07,13.52 16.85,13.3 Q16.631,13.081 16.631,12.77 L16.631,10.39 Q16.631,7.37 13.611,7.37 L11.231,7.37 Q10.92,7.37 10.7,7.15 Q10.48,6.931 10.481,6.62 L10.481,5.77 Q10.48,3.442 11.576,2.346 Q12.672,1.25 15,1.25 L18.23,1.25 Q20.559,1.25 21.655,2.346 Q22.75,3.442 22.75,5.77 Z M21.25,5.77 Q21.25,2.75 18.23,2.75 L15,2.75 Q13.294,2.75 12.637,3.407 Q11.981,4.063 11.981,5.77 L11.981,5.87 L13.611,5.87 Q15.939,5.87 17.035,6.966 Q18.131,8.062 18.131,10.39 L18.131,12.02 L18.23,12.02 Q21.25,12.02 21.25,9 Z"/>
  <path fill="#292D32" d="M13.52,17.38 L13.52,18.23 Q13.52,20.558 12.424,21.654 Q11.328,22.75 9,22.75 L5.77,22.75 Q3.442,22.75 2.346,21.654 Q1.25,20.558 1.25,18.23 L1.25,15 Q1.25,12.672 2.346,11.576 Q3.442,10.48 5.77,10.48 L6.62,10.48 Q6.931,10.48 7.15,10.7 Q7.37,10.919 7.37,11.23 Q7.37,11.541 7.15,11.76 Q6.931,11.98 6.62,11.98 L5.77,11.98 Q2.75,11.98 2.75,15 L2.75,18.23 Q2.75,19.937 3.407,20.593 Q4.063,21.25 5.77,21.25 L9,21.25 Q12.02,21.25 12.02,18.23 L12.02,17.38 Q12.02,17.069 12.24,16.85 Q12.459,16.63 12.77,16.63 Q13.081,16.63 13.3,16.85 Q13.52,17.069 13.52,17.38 Z"/>
</svg>

