<svg xmlns="http://www.w3.org/2000/svg" width="24" height="24" viewBox="0 0 24 24">
  <defs/>
  <path fill="#292D32" d="M14.429,16.92 L12.139,16.92 C11.729,16.92 11.389,16.58 11.389,16.17 C11.389,15.76 11.729,15.42 12.139,15.42 L14.429,15.42 C14.859,15.42 15.21,15.07 15.21,14.64 C15.21,14.21 14.859,13.86 14.429,13.86 L12.139,13.86 C11.899,13.86 11.669,13.74 11.53,13.55 C11.389,13.36 11.349,13.1 11.429,12.87 L12.189,10.58 C12.289,10.27 12.579,10.07 12.899,10.07 L15.96,10.07 C16.369,10.07 16.709,10.41 16.709,10.82 C16.709,11.23 16.369,11.57 15.96,11.57 L13.439,11.57 L13.179,12.36 L14.429,12.36 C15.689,12.36 16.709,13.38 16.709,14.64 C16.709,15.9 15.679,16.92 14.429,16.92 Z"/>
  <path fill="#292D32" d="M9.54,16.92 C9.13,16.92 8.79,16.58 8.79,16.17 L8.79,12.78 L8.6,13 C8.32,13.31 7.85,13.33 7.54,13.06 C7.23,12.78 7.21,12.31 7.48,12 L8.98,10.33 C9.19,10.1 9.52,10.02 9.81,10.13 C10.1,10.24 10.29,10.52 10.29,10.83 L10.29,16.18 C10.29,16.59 9.96,16.92 9.54,16.92 Z"/>
  <path fill="#292D32" d="M13.98,5.22 C13.76,5.22 13.54,5.12 13.4,4.94 L11.42,2.47 C11.16,2.15 11.21,1.67 11.54,1.42 C11.86,1.16 12.33,1.21 12.59,1.54 L14.57,4.01 C14.83,4.33 14.78,4.81 14.45,5.06 C14.31,5.16 14.14,5.22 13.98,5.22 Z"/>
  <path fill="#292D32" d="M11.999,22.75 C6.689,22.75 2.359,18.43 2.359,13.11 C2.359,7.79 6.679,3.47 11.999,3.47 C12.689,3.47 13.389,3.55 14.149,3.73 C14.549,3.82 14.809,4.23 14.709,4.63 C14.619,5.03 14.209,5.29 13.809,5.19 C13.169,5.04 12.569,4.97 11.999,4.97 C7.509,4.97 3.859,8.62 3.859,13.11 C3.859,17.6 7.509,21.25 11.999,21.25 C16.489,21.25 20.139,17.6 20.139,13.11 C20.139,11.37 19.569,9.69 18.489,8.25 C18.239,7.92 18.309,7.45 18.639,7.2 C18.969,6.95 19.439,7.02 19.689,7.35 C20.969,9.05 21.639,11.04 21.639,13.11 C21.639,18.43 17.309,22.75 11.999,22.75 Z"/>
</svg>

