<svg xmlns="http://www.w3.org/2000/svg" width="24" height="24" viewBox="0 0 24 24">
  <defs/>
  <path fill="#292D32" d="M13.98,5.22 C13.76,5.22 13.54,5.12 13.4,4.94 L11.42,2.47 C11.16,2.15 11.21,1.67 11.54,1.42 C11.86,1.16 12.33,1.21 12.59,1.54 L14.57,4.01 C14.83,4.33 14.78,4.81 14.45,5.06 C14.31,5.16 14.14,5.22 13.98,5.22 Z"/>
  <path fill="#292D32" d="M11.999,22.75 C6.689,22.75 2.359,18.43 2.359,13.11 C2.359,7.79 6.679,3.47 11.999,3.47 C12.689,3.47 13.389,3.55 14.149,3.73 C14.549,3.82 14.809,4.23 14.709,4.63 C14.619,5.03 14.219,5.29 13.809,5.19 C13.169,5.04 12.569,4.97 11.999,4.97 C7.509,4.97 3.859,8.62 3.859,13.11 C3.859,17.6 7.509,21.25 11.999,21.25 C16.489,21.25 20.139,17.6 20.139,13.11 C20.139,11.37 19.569,9.69 18.489,8.25 C18.239,7.92 18.309,7.45 18.639,7.2 C18.969,6.95 19.439,7.02 19.689,7.35 C20.969,9.05 21.639,11.04 21.639,13.11 C21.639,18.43 17.309,22.75 11.999,22.75 Z"/>
  <path fill="#292D32" d="M9.54,16.67 C9.13,16.67 8.79,16.33 8.79,15.92 L8.79,12.53 L8.6,12.74 C8.32,13.05 7.85,13.07 7.54,12.8 C7.23,12.52 7.21,12.05 7.48,11.74 L8.98,10.07 C9.19,9.84 9.52,9.76 9.81,9.87 C10.1,9.98 10.29,10.26 10.29,10.57 L10.29,15.92 C10.29,16.34 9.96,16.67 9.54,16.67 Z"/>
  <path fill="#292D32" d="M14,16.67 C12.48,16.67 11.25,15.44 11.25,13.92 L11.25,12.57 C11.25,11.05 12.48,9.82 14,9.82 C15.52,9.82 16.75,11.05 16.75,12.57 L16.75,13.92 C16.75,15.44 15.52,16.67 14,16.67 Z M14,11.33 C13.31,11.33 12.75,11.89 12.75,12.58 L12.75,13.93 C12.75,14.62 13.31,15.18 14,15.18 C14.69,15.18 15.25,14.62 15.25,13.93 L15.25,12.58 C15.25,11.89 14.69,11.33 14,11.33 Z"/>
</svg>

