<svg xmlns="http://www.w3.org/2000/svg" width="24" height="24" viewBox="0 0 24 24">
  <defs/>
  <path fill="#292D32" d="M15,22.75 L9,22.75 C3.57,22.75 1.25,20.43 1.25,15 L1.25,9 C1.25,3.57 3.57,1.25 9,1.25 L15,1.25 C20.43,1.25 22.75,3.57 22.75,9 L22.75,15 C22.75,20.43 20.43,22.75 15,22.75 Z M9,2.75 C4.39,2.75 2.75,4.39 2.75,9 L2.75,15 C2.75,19.61 4.39,21.25 9,21.25 L15,21.25 C19.61,21.25 21.25,19.61 21.25,15 L21.25,9 C21.25,4.39 19.61,2.75 15,2.75 L9,2.75 Z"/>
  <path fill="#292D32" d="M15,16.13 L10.08,16.13 C7.97,16.13 6.25,14.41 6.25,12.3 C6.25,10.19 7.97,8.47 10.08,8.47 L16.85,8.47 C17.26,8.47 17.6,8.81 17.6,9.22 C17.6,9.63 17.26,9.97 16.85,9.97 L10.08,9.97 C8.8,9.97 7.75,11.01 7.75,12.3 C7.75,13.59 8.79,14.63 10.08,14.63 L15,14.63 C15.41,14.63 15.75,14.97 15.75,15.38 C15.75,15.79 15.41,16.13 15,16.13 Z"/>
  <path fill="#292D32" d="M15.431,11.52 C15.241,11.52 15.051,11.45 14.901,11.3 C14.611,11.01 14.611,10.53 14.901,10.24 L15.941,9.2 L14.901,8.16 C14.611,7.87 14.611,7.39 14.901,7.1 C15.191,6.81 15.671,6.81 15.961,7.1 L17.531,8.67 C17.821,8.96 17.821,9.44 17.531,9.73 L15.961,11.3 C15.811,11.44 15.621,11.52 15.431,11.52 Z"/>
</svg>

