<svg xmlns="http://www.w3.org/2000/svg" width="24" height="24" viewBox="0 0 24 24">
  <defs/>
  <path fill="#292D32" d="M13.395,4.939 L11.415,2.469 Q11.221,2.227 11.255,1.918 Q11.289,1.609 11.531,1.415 Q11.773,1.221 12.082,1.255 Q12.391,1.289 12.585,1.531 L14.565,4.001 Q14.759,4.243 14.725,4.552 Q14.691,4.861 14.449,5.055 Q14.207,5.249 13.898,5.215 Q13.589,5.181 13.395,4.939 Z"/>
  <path fill="#292D32" d="M20.686,17.284 Q18.063,22.75 11.999,22.75 Q8.006,22.75 5.183,19.927 Q2.359,17.103 2.359,13.11 Q2.359,9.117 5.183,6.293 Q8.006,3.47 11.999,3.47 Q13.042,3.47 14.151,3.73 Q14.453,3.801 14.617,4.065 Q14.781,4.329 14.71,4.631 Q14.639,4.934 14.375,5.097 Q14.111,5.261 13.808,5.19 Q12.868,4.97 11.999,4.97 Q8.628,4.97 6.243,7.354 Q3.859,9.738 3.859,13.11 Q3.859,16.482 6.243,18.866 Q8.628,21.25 11.999,21.25 Q17.119,21.25 19.333,16.636 Q19.468,16.355 19.761,16.252 Q20.054,16.149 20.334,16.284 Q20.614,16.418 20.717,16.711 Q20.82,17.004 20.686,17.284 Z"/>
  <path fill="#292D32" d="M19.69,7.35 Q21.64,9.95 21.64,13.11 Q21.64,13.421 21.42,13.64 Q21.2,13.86 20.89,13.86 Q20.579,13.86 20.359,13.64 Q20.14,13.421 20.14,13.11 Q20.14,10.45 18.49,8.25 Q18.303,8.002 18.347,7.694 Q18.391,7.386 18.64,7.2 Q18.888,7.014 19.196,7.058 Q19.503,7.102 19.69,7.35 Z"/>
  <path fill="#292D32" d="M13.91,11.58 L11.391,11.58 L11.129,12.37 L12.38,12.37 Q13.321,12.37 13.989,13.035 Q14.66,13.703 14.66,14.65 Q14.66,15.591 13.995,16.259 Q13.327,16.93 12.38,16.93 L10.09,16.93 Q9.779,16.93 9.559,16.71 Q9.34,16.491 9.34,16.18 Q9.34,15.869 9.559,15.65 Q9.779,15.43 10.09,15.43 L12.38,15.43 Q13.16,15.43 13.16,14.65 Q13.16,13.87 12.38,13.87 L10.09,13.87 Q9.969,13.87 9.854,13.832 Q9.559,13.734 9.419,13.456 Q9.28,13.179 9.378,12.884 L10.138,10.594 Q10.308,10.08 10.85,10.08 L13.91,10.08 Q14.22,10.08 14.44,10.3 Q14.66,10.519 14.66,10.83 Q14.66,11.141 14.44,11.36 Q14.22,11.58 13.91,11.58 Z"/>
</svg>

