<svg xmlns="http://www.w3.org/2000/svg" width="24" height="24" viewBox="0 0 24 24">
  <defs/>
  <path fill="#292D32" d="M16.19,2 L7.81,2 C4.17,2 2,4.17 2,7.81 L2,16.18 C2,19.83 4.17,22 7.81,22 L16.18,22 C19.82,22 21.99,19.83 21.99,16.19 L21.99,7.81 C22,4.17 19.83,2 16.19,2 Z M17.53,9.72 L15.96,11.29 C15.81,11.44 15.62,11.51 15.43,11.51 C15.24,11.51 15.05,11.44 14.9,11.29 C14.61,11 14.61,10.52 14.9,10.23 L15.16,9.97 L10.08,9.97 C8.8,9.97 7.75,11.01 7.75,12.3 C7.75,13.59 8.79,14.63 10.08,14.63 L15,14.63 C15.41,14.63 15.75,14.97 15.75,15.38 C15.75,15.79 15.41,16.13 15,16.13 L10.08,16.13 C7.97,16.13 6.25,14.41 6.25,12.3 C6.25,10.19 7.97,8.47 10.08,8.47 L15.23,8.47 L14.9,8.15 C14.61,7.86 14.61,7.38 14.9,7.09 C15.19,6.8 15.67,6.8 15.96,7.09 L17.53,8.66 C17.82,8.96 17.82,9.43 17.53,9.72 Z"/>
</svg>

