<svg xmlns="http://www.w3.org/2000/svg" width="24" height="24" viewBox="0 0 24 24">
  <defs/>
  <path fill="#292D32" d="M1.25,8.34 Q1.25,6.778 2.605,6.003 Q3.963,5.225 5.303,6.02 L8.475,7.84 L11.656,9.677 Q12.075,9.928 12.342,10.257 Q12.51,10.464 12.51,10.73 L12.51,13.29 Q12.51,13.556 12.342,13.763 Q12.075,14.092 11.645,14.35 L8.473,16.18 L5.305,18 Q3.955,18.778 2.603,17.998 Q1.25,17.218 1.25,15.66 Z M2.75,8.34 L2.75,15.66 Q2.75,16.352 3.352,16.699 Q3.955,17.047 4.555,16.7 L7.727,14.879 L10.895,13.05 Q10.957,13.013 11.01,12.974 L11.01,11.047 Q10.953,11.004 10.884,10.963 L7.725,9.139 L4.557,7.32 Q3.95,6.961 3.35,7.305 Q2.75,7.648 2.75,8.34 Z"/>
  <path fill="#292D32" d="M11.01,8.34 Q11.01,6.778 12.365,6.003 Q13.723,5.225 15.063,6.02 L18.235,7.84 L21.409,9.673 Q22.755,10.46 22.755,12.014 Q22.755,13.571 21.405,14.35 L18.233,16.18 L15.065,18 Q13.715,18.778 12.363,17.998 Q11.01,17.218 11.01,15.66 Z M12.51,8.34 L12.51,15.66 Q12.51,16.352 13.112,16.699 Q13.715,17.047 14.315,16.7 L17.487,14.879 L20.655,13.05 Q21.255,12.704 21.255,12.014 Q21.255,11.32 20.651,10.967 L17.485,9.139 L14.317,7.32 Q13.71,6.961 13.11,7.305 Q12.51,7.648 12.51,8.34 Z"/>
</svg>

