<svg xmlns="http://www.w3.org/2000/svg" width="24" height="24" viewBox="0 0 24 24">
  <defs/>
  <path fill="#292D32" d="M14.431,16.92 L12.141,16.92 C11.731,16.92 11.391,16.58 11.391,16.17 C11.391,15.76 11.731,15.42 12.141,15.42 L14.431,15.42 C14.861,15.42 15.211,15.07 15.211,14.64 C15.211,14.21 14.861,13.86 14.431,13.86 L12.141,13.86 C11.901,13.86 11.671,13.74 11.531,13.55 C11.391,13.36 11.351,13.1 11.431,12.87 L12.191,10.58 C12.291,10.27 12.581,10.07 12.901,10.07 L15.961,10.07 C16.371,10.07 16.711,10.41 16.711,10.82 C16.711,11.23 16.371,11.57 15.961,11.57 L13.441,11.57 L13.181,12.36 L14.431,12.36 C15.691,12.36 16.711,13.38 16.711,14.64 C16.711,15.9 15.681,16.92 14.431,16.92 Z"/>
  <path fill="#292D32" d="M9.54,16.921 C9.13,16.921 8.79,16.581 8.79,16.171 L8.79,12.781 L8.6,13.001 C8.32,13.311 7.85,13.331 7.54,13.061 C7.24,12.781 7.21,12.311 7.49,12.001 L8.99,10.331 C9.2,10.101 9.53,10.021 9.82,10.131 C10.11,10.241 10.3,10.521 10.3,10.831 L10.3,16.181 C10.29,16.591 9.96,16.921 9.54,16.921 Z"/>
  <path fill="#292D32" d="M19.692,7.349 C19.442,7.019 18.972,6.949 18.642,7.199 C18.312,7.449 18.242,7.919 18.492,8.249 C19.572,9.689 20.142,11.369 20.142,13.109 C20.142,17.599 16.492,21.249 12.002,21.249 C7.512,21.249 3.862,17.599 3.862,13.109 C3.862,8.619 7.512,4.979 12.002,4.979 C12.582,4.979 13.172,5.049 13.812,5.199 C13.842,5.209 13.872,5.199 13.902,5.199 C13.932,5.199 13.952,5.219 13.972,5.219 C14.002,5.219 14.022,5.209 14.052,5.209 C14.082,5.209 14.112,5.199 14.152,5.189 C14.212,5.179 14.262,5.149 14.312,5.129 C14.342,5.109 14.372,5.099 14.402,5.079 C14.412,5.069 14.432,5.069 14.442,5.059 C14.472,5.039 14.482,5.009 14.502,4.989 C14.542,4.949 14.572,4.919 14.602,4.869 C14.632,4.829 14.642,4.779 14.662,4.729 C14.672,4.699 14.692,4.669 14.702,4.639 C14.702,4.619 14.702,4.609 14.702,4.589 C14.712,4.539 14.712,4.489 14.702,4.439 C14.702,4.389 14.702,4.349 14.692,4.299 C14.682,4.259 14.662,4.219 14.642,4.169 C14.622,4.119 14.602,4.069 14.572,4.029 C14.572,4.019 14.572,4.009 14.562,3.999 L12.582,1.529 C12.322,1.209 11.852,1.149 11.532,1.409 C11.212,1.669 11.162,2.139 11.412,2.459 L12.232,3.479 C12.152,3.479 12.072,3.469 11.992,3.469 C6.682,3.469 2.352,7.789 2.352,13.109 C2.352,18.429 6.672,22.749 11.992,22.749 C17.312,22.749 21.632,18.429 21.632,13.109 C21.642,11.039 20.962,9.049 19.692,7.349 Z"/>
</svg>

