<svg xmlns="http://www.w3.org/2000/svg" width="24" height="24" viewBox="0 0 24 24">
  <defs/>
  <path fill="#292D32" d="M13.395,4.939 L11.415,2.469 Q11.221,2.227 11.255,1.918 Q11.289,1.609 11.531,1.415 Q11.773,1.221 12.082,1.255 Q12.391,1.289 12.585,1.531 L14.565,4.001 Q14.759,4.243 14.725,4.552 Q14.691,4.861 14.449,5.055 Q14.207,5.249 13.898,5.215 Q13.589,5.181 13.395,4.939 Z"/>
  <path fill="#292D32" d="M19.689,7.35 Q21.639,9.95 21.639,13.11 Q21.639,17.103 18.816,19.926 Q15.993,22.75 11.999,22.75 Q8.006,22.75 5.183,19.926 Q2.359,17.103 2.359,13.11 Q2.359,9.117 5.183,6.293 Q8.006,3.47 11.999,3.47 Q13.042,3.47 14.151,3.73 Q14.453,3.8 14.617,4.064 Q14.781,4.328 14.71,4.631 Q14.639,4.933 14.375,5.097 Q14.111,5.261 13.808,5.19 Q12.868,4.97 11.999,4.97 Q8.628,4.97 6.243,7.354 Q3.859,9.738 3.859,13.11 Q3.859,16.482 6.243,18.866 Q8.628,21.25 11.999,21.25 Q15.371,21.25 17.755,18.866 Q20.139,16.482 20.139,13.11 Q20.139,10.45 18.489,8.25 Q18.303,8.001 18.347,7.694 Q18.391,7.386 18.639,7.2 Q18.888,7.013 19.195,7.057 Q19.503,7.101 19.689,7.35 Z"/>
  <path fill="#292D32" opacity="0.4" d="M8.789,15.92 L8.789,12.537 L8.597,12.751 Q8.389,12.982 8.079,12.999 Q7.769,13.016 7.538,12.808 Q7.307,12.6 7.29,12.29 Q7.273,11.98 7.481,11.749 L8.981,10.079 Q9.205,9.83 9.539,9.83 Q9.85,9.83 10.069,10.05 Q10.289,10.269 10.289,10.58 L10.289,15.92 Q10.289,16.231 10.069,16.45 Q9.85,16.67 9.539,16.67 Q9.228,16.67 9.009,16.45 Q8.789,16.231 8.789,15.92 Z"/>
  <path fill="#292D32" opacity="0.4" d="M14,9.83 Q16.75,9.83 16.75,12.58 L16.75,13.93 Q16.75,16.68 14,16.68 Q11.25,16.68 11.25,13.93 L11.25,12.58 Q11.25,11.438 12.058,10.633 Q12.863,9.83 14,9.83 Z M14,11.33 Q12.75,11.33 12.75,12.58 L12.75,13.93 Q12.75,14.444 13.118,14.812 Q13.486,15.18 14,15.18 Q15.25,15.18 15.25,13.93 L15.25,12.58 Q15.25,12.066 14.882,11.698 Q14.514,11.33 14,11.33 Z"/>
</svg>

