<svg xmlns="http://www.w3.org/2000/svg" width="24" height="24" viewBox="0 0 24 24">
  <defs/>
  <path fill="#292D32" d="M13.395,4.939 L11.415,2.469 Q11.221,2.227 11.255,1.918 Q11.289,1.609 11.531,1.415 Q11.773,1.221 12.082,1.255 Q12.391,1.289 12.585,1.531 L14.565,4.001 Q14.759,4.243 14.725,4.552 Q14.691,4.861 14.449,5.055 Q14.207,5.249 13.898,5.215 Q13.589,5.181 13.395,4.939 Z"/>
  <path fill="#292D32" d="M19.69,7.35 Q21.64,9.95 21.64,13.11 Q21.64,17.103 18.816,19.927 Q15.993,22.75 12,22.75 Q8.007,22.75 5.183,19.927 Q2.36,17.103 2.36,13.11 Q2.36,9.117 5.183,6.293 Q8.007,3.47 12,3.47 Q13.042,3.47 14.151,3.73 Q14.454,3.801 14.617,4.065 Q14.781,4.329 14.71,4.631 Q14.639,4.934 14.375,5.097 Q14.111,5.261 13.809,5.19 Q12.869,4.97 12,4.97 Q8.628,4.97 6.244,7.354 Q3.86,9.738 3.86,13.11 Q3.86,16.482 6.244,18.866 Q8.628,21.25 12,21.25 Q15.372,21.25 17.756,18.866 Q20.14,16.482 20.14,13.11 Q20.14,10.45 18.49,8.25 Q18.304,8.001 18.347,7.694 Q18.391,7.386 18.64,7.2 Q18.888,7.014 19.196,7.058 Q19.504,7.101 19.69,7.35 Z"/>
  <path fill="#292D32" d="M13.91,11.58 L11.391,11.58 L11.129,12.37 L12.38,12.37 Q14.66,12.37 14.66,14.65 Q14.66,16.93 12.38,16.93 L10.09,16.93 Q9.779,16.93 9.56,16.71 Q9.34,16.491 9.34,16.18 Q9.34,15.869 9.56,15.65 Q9.779,15.43 10.09,15.43 L12.38,15.43 Q13.16,15.43 13.16,14.65 Q13.16,13.87 12.38,13.87 L10.09,13.87 Q9.969,13.87 9.854,13.832 Q9.559,13.734 9.42,13.456 Q9.28,13.179 9.378,12.884 L10.138,10.594 Q10.309,10.08 10.85,10.08 L13.91,10.08 Q14.221,10.08 14.44,10.3 Q14.66,10.519 14.66,10.83 Q14.66,11.141 14.44,11.36 Q14.221,11.58 13.91,11.58 Z"/>
</svg>

