<svg xmlns="http://www.w3.org/2000/svg" width="24" height="24" viewBox="0 0 24 24">
  <defs/>
  <path fill="#292D32" d="M14.429,16.92 L12.139,16.92 C11.729,16.92 11.389,16.58 11.389,16.17 C11.389,15.76 11.729,15.42 12.139,15.42 L14.429,15.42 C14.859,15.42 15.21,15.07 15.21,14.64 C15.21,14.21 14.859,13.86 14.429,13.86 L12.139,13.86 C11.899,13.86 11.669,13.74 11.53,13.55 C11.389,13.36 11.349,13.1 11.429,12.87 L12.189,10.58 C12.289,10.27 12.579,10.07 12.899,10.07 L15.96,10.07 C16.369,10.07 16.709,10.41 16.709,10.82 C16.709,11.23 16.369,11.57 15.96,11.57 L13.439,11.57 L13.179,12.36 L14.429,12.36 C15.689,12.36 16.709,13.38 16.709,14.64 C16.709,15.9 15.679,16.92 14.429,16.92 Z"/>
  <path fill="#292D32" d="M9.54,16.92 C9.13,16.92 8.79,16.58 8.79,16.17 L8.79,12.78 L8.6,13 C8.32,13.31 7.85,13.33 7.54,13.06 C7.23,12.78 7.21,12.31 7.48,12 L8.98,10.33 C9.19,10.1 9.52,10.02 9.81,10.13 C10.1,10.24 10.29,10.52 10.29,10.83 L10.29,16.18 C10.29,16.59 9.96,16.92 9.54,16.92 Z"/>
  <path fill="#292D32" opacity="0.4" d="M19.69,7.35 C19.44,7.02 18.97,6.95 18.64,7.2 C18.31,7.45 18.24,7.92 18.49,8.25 C19.57,9.69 20.14,11.37 20.14,13.11 C20.14,17.6 16.49,21.25 12,21.25 C7.51,21.25 3.86,17.6 3.86,13.11 C3.86,8.62 7.51,4.97 12,4.97 C12.58,4.97 13.17,5.04 13.81,5.19 C13.84,5.2 13.87,5.19 13.9,5.19 C13.93,5.19 13.95,5.21 13.97,5.21 C14,5.21 14.02,5.2 14.05,5.2 C14.08,5.2 14.11,5.19 14.15,5.18 C14.21,5.17 14.26,5.14 14.31,5.12 C14.34,5.1 14.37,5.09 14.4,5.07 C14.41,5.06 14.43,5.06 14.44,5.05 C14.47,5.03 14.48,5 14.5,4.98 C14.54,4.94 14.57,4.91 14.6,4.86 C14.63,4.82 14.64,4.77 14.66,4.72 C14.67,4.69 14.69,4.66 14.7,4.63 C14.7,4.61 14.7,4.6 14.7,4.58 C14.71,4.53 14.71,4.48 14.7,4.43 C14.7,4.38 14.7,4.34 14.69,4.29 C14.68,4.25 14.66,4.21 14.64,4.16 C14.62,4.11 14.6,4.06 14.57,4.02 C14.56,4.01 14.56,3.99 14.55,3.98 L12.57,1.51 C12.31,1.19 11.84,1.13 11.52,1.39 C11.2,1.65 11.15,2.12 11.4,2.44 L12.22,3.46 C12.14,3.46 12.06,3.45 11.98,3.45 C6.67,3.45 2.34,7.77 2.34,13.09 C2.34,18.41 6.66,22.73 11.98,22.73 C17.3,22.73 21.62,18.41 21.62,13.09 C21.64,11.04 20.96,9.05 19.69,7.35 Z"/>
</svg>

