<svg xmlns="http://www.w3.org/2000/svg" width="24" height="24" viewBox="0 0 24 24">
  <defs/>
  <path fill="#292D32" d="M19.692,7.348 C19.442,7.018 18.972,6.948 18.642,7.198 C18.312,7.448 18.242,7.918 18.492,8.248 C19.572,9.688 20.142,11.368 20.142,13.108 C20.142,17.599 16.492,21.248 12.002,21.248 C7.512,21.248 3.862,17.599 3.862,13.108 C3.862,8.618 7.512,4.978 12.002,4.978 C12.582,4.978 13.172,5.048 13.812,5.198 C13.842,5.208 13.872,5.198 13.912,5.198 C13.932,5.198 13.962,5.218 13.982,5.218 C14.012,5.218 14.032,5.208 14.062,5.208 C14.102,5.208 14.132,5.198 14.162,5.188 C14.212,5.178 14.262,5.158 14.312,5.128 C14.342,5.108 14.382,5.098 14.412,5.078 C14.422,5.068 14.442,5.068 14.452,5.058 C14.482,5.038 14.492,5.008 14.512,4.988 C14.552,4.948 14.582,4.918 14.612,4.868 C14.642,4.828 14.652,4.778 14.672,4.738 C14.682,4.708 14.702,4.678 14.712,4.648 C14.712,4.628 14.712,4.618 14.712,4.598 C14.722,4.548 14.722,4.498 14.712,4.448 C14.712,4.398 14.712,4.358 14.702,4.308 C14.692,4.268 14.672,4.228 14.652,4.178 C14.632,4.128 14.612,4.078 14.582,4.038 C14.572,4.018 14.572,4.008 14.562,3.998 L12.582,1.528 C12.322,1.208 11.852,1.158 11.532,1.408 C11.212,1.668 11.162,2.138 11.412,2.458 L12.232,3.478 C12.152,3.478 12.072,3.468 11.992,3.468 C6.682,3.468 2.352,7.788 2.352,13.108 C2.352,18.428 6.672,22.748 11.992,22.748 C17.312,22.748 21.632,18.428 21.632,13.108 C21.642,11.039 20.962,9.048 19.692,7.348 Z"/>
  <path fill="#292D32" d="M9.541,16.671 C9.132,16.671 8.791,16.331 8.791,15.921 L8.791,12.531 L8.601,12.751 C8.322,13.061 7.851,13.081 7.542,12.811 C7.231,12.531 7.212,12.061 7.481,11.751 L8.982,10.081 C9.191,9.851 9.521,9.771 9.812,9.881 C10.101,9.991 10.291,10.271 10.291,10.581 L10.291,15.931 C10.291,16.341 9.961,16.671 9.541,16.671 Z"/>
  <path fill="#292D32" d="M14,16.67 C12.48,16.67 11.25,15.44 11.25,13.92 L11.25,12.57 C11.25,11.05 12.48,9.82 14,9.82 C15.52,9.82 16.75,11.05 16.75,12.57 L16.75,13.92 C16.75,15.44 15.52,16.67 14,16.67 Z M14,11.33 C13.31,11.33 12.75,11.89 12.75,12.58 L12.75,13.93 C12.75,14.62 13.31,15.18 14,15.18 C14.69,15.18 15.25,14.62 15.25,13.93 L15.25,12.58 C15.25,11.89 14.69,11.33 14,11.33 Z"/>
</svg>

