<svg xmlns="http://www.w3.org/2000/svg" width="24" height="24" viewBox="0 0 24 24">
  <defs/>
  <path fill="#292D32" opacity="0.4" d="M16.19,2 L7.82,2 C4.17,2 2,4.17 2,7.81 L2,16.18 C2,19.82 4.17,21.99 7.81,21.99 L16.18,21.99 C19.82,21.99 21.99,19.82 21.99,16.18 L21.99,7.81 C22,4.17 19.83,2 16.19,2 Z"/>
  <path fill="#292D32" d="M17.53,8.66 L15.96,7.09 C15.67,6.8 15.19,6.8 14.9,7.09 C14.61,7.38 14.61,7.86 14.9,8.15 L15.23,8.48 L10.08,8.48 C7.97,8.48 6.25,10.2 6.25,12.31 C6.25,14.42 7.97,16.14 10.08,16.14 L15,16.14 C15.41,16.14 15.75,15.8 15.75,15.39 C15.75,14.98 15.41,14.64 15,14.64 L10.08,14.64 C8.8,14.64 7.75,13.6 7.75,12.31 C7.75,11.02 8.79,9.98 10.08,9.98 L15.16,9.98 L14.9,10.24 C14.61,10.53 14.61,11.01 14.9,11.3 C15.05,11.45 15.24,11.52 15.43,11.52 C15.62,11.52 15.81,11.45 15.96,11.3 L17.53,9.73 C17.82,9.43 17.82,8.96 17.53,8.66 Z"/>
</svg>

