<svg xmlns="http://www.w3.org/2000/svg" width="24" height="24" viewBox="0 0 24 24">
  <defs/>
  <path fill="#292D32" d="M9.42,14.33 Q9.42,14.998 9.862,15.462 Q10.289,15.91 10.89,15.91 L13.4,15.91 Q13.882,15.91 14.229,15.547 Q14.59,15.169 14.59,14.63 Q14.59,13.698 13.769,13.407 L9.744,12.009 Q7.92,11.362 7.92,9.37 Q7.92,6.59 10.61,6.59 L13.12,6.59 Q16.09,6.59 16.09,9.67 Q16.09,9.981 15.87,10.2 Q15.651,10.42 15.34,10.42 Q15.029,10.42 14.81,10.2 Q14.59,9.981 14.59,9.67 Q14.59,8.09 13.12,8.09 L10.61,8.09 Q9.42,8.09 9.42,9.37 Q9.42,10.302 10.236,10.592 L14.27,11.993 Q16.09,12.638 16.09,14.63 Q16.09,15.771 15.313,16.583 Q14.523,17.41 13.4,17.41 L10.89,17.41 Q7.92,17.41 7.92,14.33 Q7.92,14.019 8.14,13.8 Q8.359,13.58 8.67,13.58 Q8.981,13.58 9.2,13.8 Q9.42,14.019 9.42,14.33 Z"/>
  <path fill="#292D32" d="M12.75,6 L12.75,18 Q12.75,18.311 12.53,18.53 Q12.311,18.75 12,18.75 Q11.689,18.75 11.47,18.53 Q11.25,18.311 11.25,18 L11.25,6 Q11.25,5.689 11.47,5.47 Q11.689,5.25 12,5.25 Q12.311,5.25 12.53,5.47 Q12.75,5.689 12.75,6 Z"/>
  <path fill="#292D32" d="M4.6,6.449 Q2.75,8.922 2.75,12 Q2.75,15.829 5.46,18.54 Q8.171,21.25 12,21.25 Q15.829,21.25 18.54,18.54 Q21.25,15.829 21.25,12 Q21.25,8.171 18.54,5.46 Q15.829,2.75 12,2.75 Q10.031,2.75 8.276,3.535 Q7.993,3.661 7.702,3.551 Q7.412,3.44 7.285,3.156 Q7.159,2.873 7.269,2.582 Q7.38,2.292 7.664,2.165 Q9.711,1.25 12,1.25 Q16.451,1.25 19.6,4.4 Q22.75,7.549 22.75,12 Q22.75,16.451 19.6,19.6 Q16.451,22.75 12,22.75 Q7.549,22.75 4.4,19.6 Q1.25,16.451 1.25,12 Q1.25,8.422 3.4,5.551 Q3.586,5.302 3.893,5.258 Q4.201,5.213 4.449,5.4 Q4.698,5.586 4.742,5.893 Q4.787,6.201 4.6,6.449 Z"/>
</svg>

