<svg xmlns="http://www.w3.org/2000/svg" width="24" height="24" viewBox="0 0 24 24">
  <defs/>
  <path fill="#292D32" d="M8.27,21.25 Q9.166,21.25 9.467,20.966 Q9.75,20.7 9.75,19.9 L9.75,4.1 Q9.75,3.3 9.467,3.034 Q9.166,2.75 8.27,2.75 L4.23,2.75 Q2.75,2.75 2.75,4.1 L2.75,19.9 Q2.75,21.25 4.23,21.25 Q4.541,21.25 4.76,21.47 Q4.98,21.689 4.98,22 Q4.98,22.311 4.76,22.53 Q4.541,22.75 4.23,22.75 Q1.25,22.75 1.25,19.9 L1.25,4.1 Q1.25,2.651 2.005,1.941 Q2.74,1.25 4.23,1.25 L8.27,1.25 Q11.25,1.25 11.25,4.1 L11.25,19.9 Q11.25,22.75 8.27,22.75 Q7.959,22.75 7.74,22.53 Q7.52,22.311 7.52,22 Q7.52,21.689 7.74,21.47 Q7.959,21.25 8.27,21.25 Z"/>
  <path fill="#292D32" d="M15.73,2.75 Q14.25,2.75 14.25,3.98 L14.25,8.51 Q14.25,9.74 15.73,9.74 L19.77,9.74 Q20.677,9.74 20.983,9.468 Q21.25,9.231 21.25,8.51 L21.25,3.98 Q21.25,2.75 19.77,2.75 Q19.459,2.75 19.24,2.53 Q19.02,2.311 19.02,2 Q19.02,1.689 19.24,1.47 Q19.459,1.25 19.77,1.25 Q22.75,1.25 22.75,3.98 L22.75,8.51 Q22.75,9.905 21.979,10.589 Q21.247,11.24 19.77,11.24 L15.73,11.24 Q12.75,11.24 12.75,8.51 L12.75,3.98 Q12.75,1.25 15.73,1.25 Q16.041,1.25 16.26,1.47 Q16.48,1.689 16.48,2 Q16.48,2.311 16.26,2.53 Q16.041,2.75 15.73,2.75 Z"/>
  <path fill="#292D32" d="M22.75,19.77 Q22.75,21.273 22.012,22.012 Q21.273,22.75 19.77,22.75 L15.73,22.75 Q14.227,22.75 13.488,22.012 Q12.75,21.273 12.75,19.77 L12.75,15.73 Q12.75,12.75 15.73,12.75 L19.77,12.75 Q22.75,12.75 22.75,15.73 Z M21.25,19.77 L21.25,15.73 Q21.25,14.848 20.951,14.549 Q20.652,14.25 19.77,14.25 L15.73,14.25 Q14.848,14.25 14.549,14.549 Q14.25,14.848 14.25,15.73 L14.25,19.77 Q14.25,20.652 14.549,20.951 Q14.848,21.25 15.73,21.25 L19.77,21.25 Q20.652,21.25 20.951,20.951 Q21.25,20.652 21.25,19.77 Z"/>
</svg>

