<svg xmlns="http://www.w3.org/2000/svg" width="24" height="24" viewBox="0 0 24 24">
  <defs/>
  <path d="M4.5,10.488 L4.5,16.428 C4.5,16.738 4.64,17.038 4.87,17.238 L10.23,21.828 C10.93,22.428 12,21.928 12,21.018 L12,16.918 L16.91,16.918 C17.86,16.918 18.34,15.768 17.67,15.088 L12,9.418 L5.57,9.418 C4.98,9.408 4.5,9.888 4.5,10.488 Z"/>
  <path d="M18.43,1.91 L7.09,1.91 C6.14,1.91 5.66,3.06 6.33,3.74 L12,9.41 L18.43,9.41 C19.02,9.41 19.5,8.93 19.5,8.34 L19.5,2.98 C19.5,2.39 19.02,1.91 18.43,1.91 Z"/>
</svg>

