<svg xmlns="http://www.w3.org/2000/svg" width="24" height="24" viewBox="0 0 24 24">
  <defs/>
  <path fill="#292D32" d="M12.161,11.62 C12.13,11.62 12.111,11.62 12.081,11.62 C12.03,11.61 11.96,11.61 11.9,11.62 C9.001,11.53 6.811,9.25 6.811,6.44 C6.811,3.58 9.141,1.25 12.001,1.25 C14.861,1.25 17.191,3.58 17.191,6.44 C17.18,9.25 14.98,11.53 12.191,11.62 C12.181,11.62 12.171,11.62 12.161,11.62 Z M12.001,2.75 C9.971,2.75 8.311,4.41 8.311,6.44 C8.311,8.44 9.871,10.05 11.861,10.12 C11.911,10.11 12.05,10.11 12.181,10.12 C14.14,10.03 15.681,8.42 15.691,6.44 C15.691,4.41 14.03,2.75 12.001,2.75 Z"/>
  <path fill="#292D32" d="M12.17,22.55 C10.21,22.55 8.24,22.05 6.75,21.05 C5.36,20.13 4.6,18.87 4.6,17.5 C4.6,16.13 5.36,14.86 6.75,13.93 C9.75,11.94 14.61,11.94 17.59,13.93 C18.97,14.85 19.74,16.11 19.74,17.48 C19.74,18.85 18.98,20.12 17.59,21.05 C16.09,22.05 14.13,22.55 12.17,22.55 Z M7.58,15.19 C6.62,15.83 6.1,16.65 6.1,17.51 C6.1,18.36 6.63,19.18 7.58,19.81 C10.07,21.48 14.27,21.48 16.76,19.81 C17.72,19.17 18.24,18.35 18.24,17.49 C18.24,16.64 17.71,15.82 16.76,15.19 C14.27,13.53 10.07,13.53 7.58,15.19 Z"/>
</svg>

