<svg xmlns="http://www.w3.org/2000/svg" width="24" height="24" viewBox="0 0 24 24">
  <defs/>
  <path fill="#292D32" d="M16.504,8.153 Q22.26,8.648 22.26,15.11 L22.26,15.24 Q22.26,22.25 15.25,22.25 L8.74,22.25 Q5.077,22.25 3.403,20.576 Q1.73,18.903 1.73,15.24 L1.73,15.11 Q1.73,8.692 7.4,8.163 Q7.71,8.134 7.949,8.333 Q8.188,8.531 8.217,8.84 Q8.246,9.15 8.047,9.389 Q7.849,9.628 7.54,9.657 Q3.23,10.058 3.23,15.11 L3.23,15.24 Q3.23,20.75 8.74,20.75 L15.25,20.75 Q18.292,20.75 19.526,19.516 Q20.76,18.282 20.76,15.24 L20.76,15.11 Q20.76,10.025 16.376,9.647 Q16.066,9.62 15.866,9.383 Q15.666,9.145 15.693,8.836 Q15.719,8.526 15.957,8.326 Q16.195,8.126 16.504,8.153 Z"/>
  <path fill="#292D32" d="M12.75,2 L12.75,14.88 Q12.75,15.191 12.53,15.41 Q12.311,15.63 12,15.63 Q11.689,15.63 11.47,15.41 Q11.25,15.191 11.25,14.88 L11.25,2 Q11.25,1.689 11.47,1.47 Q11.689,1.25 12,1.25 Q12.311,1.25 12.53,1.47 Q12.75,1.689 12.75,2 Z"/>
  <path fill="#292D32" d="M15.88,13.18 L12.53,16.53 Q12.311,16.75 12,16.75 Q11.689,16.75 11.47,16.53 L8.12,13.18 Q7.9,12.961 7.9,12.65 Q7.9,12.339 8.12,12.12 Q8.339,11.9 8.65,11.9 Q8.961,11.9 9.18,12.12 L12,14.939 L14.82,12.12 Q15.039,11.9 15.35,11.9 Q15.661,11.9 15.88,12.12 Q16.1,12.339 16.1,12.65 Q16.1,12.961 15.88,13.18 Z"/>
</svg>

