<svg xmlns="http://www.w3.org/2000/svg" width="24" height="24" viewBox="0 0 24 24">
  <defs/>
  <path d="M4.47,2.53 Q4.25,2.311 4.25,2 Q4.25,1.689 4.47,1.47 Q4.689,1.25 5,1.25 L19,1.25 Q19.311,1.25 19.53,1.47 Q19.75,1.689 19.75,2 L19.75,9 Q19.75,9.311 19.53,9.53 Q19.311,9.75 19,9.75 L13.811,9.75 L19.53,15.47 Q19.75,15.689 19.75,16 Q19.75,16.311 19.53,16.53 Q19.311,16.75 19,16.75 L5,16.75 Q4.689,16.75 4.47,16.53 Q4.25,16.311 4.25,16 L4.25,9 Q4.25,8.689 4.47,8.47 Q4.689,8.25 5,8.25 L10.189,8.25 Z M12.311,8.25 L18.25,8.25 L18.25,2.75 L6.811,2.75 L12.311,8.25 Z M11.689,9.75 L5.75,9.75 L5.75,15.25 L17.189,15.25 L11.689,9.75 Z"/>
  <path opacity="0.4" d="M12.75,16 L12.75,22 Q12.75,22.311 12.53,22.53 Q12.311,22.75 12,22.75 Q11.723,22.75 11.512,22.569 L4.512,16.569 Q4.276,16.367 4.252,16.058 Q4.228,15.748 4.431,15.512 Q4.655,15.25 5,15.25 L12,15.25 Q12.311,15.25 12.53,15.47 Q12.75,15.689 12.75,16 Z M11.25,16.75 L7.027,16.75 L11.25,20.369 L11.25,16.75 Z"/>
</svg>

