<svg xmlns="http://www.w3.org/2000/svg" width="24" height="24" viewBox="0 0 24 24">
  <defs/>
  <path fill="#292D32" d="M19,8 C20.657,8 22,6.657 22,5 C22,3.343 20.657,2 19,2 C17.343,2 16,3.343 16,5 C16,6.657 17.343,8 19,8 Z"/>
  <path fill="#292D32" d="M17.789,9.339 C16.279,8.939 15.059,7.719 14.659,6.209 C14.399,5.249 14.459,4.329 14.749,3.509 C14.949,2.949 14.609,2.329 14.029,2.209 C12.559,1.899 10.969,1.909 9.309,2.359 C5.529,3.419 2.639,6.689 2.099,10.579 C1.179,17.199 6.789,22.809 13.409,21.899 C17.309,21.359 20.569,18.469 21.619,14.679 C22.079,13.029 22.089,11.439 21.779,9.959 C21.659,9.379 21.039,9.049 20.479,9.239 C19.669,9.529 18.749,9.589 17.789,9.339 Z"/>
</svg>

