<svg xmlns="http://www.w3.org/2000/svg" width="24" height="24" viewBox="0 0 24 24">
  <defs/>
  <path fill="white" opacity="0.58" d="M24,0 L0,0 L0,24 L24,24 L24,0 Z"/>
  <path fill="#292D32" d="M4.5,10.49 L4.5,16.43 C4.5,16.74 4.64,17.04 4.87,17.24 L10.23,21.83 C10.93,22.43 12,21.93 12,21.02 L12,16.92 L16.91,16.92 C17.86,16.92 18.34,15.77 17.67,15.09 L12,9.42 L5.57,9.42 C4.98,9.41 4.5,9.89 4.5,10.49 Z"/>
  <path fill="#292D32" opacity="0.4" d="M18.43,1.91 L7.09,1.91 C6.14,1.91 5.66,3.06 6.33,3.74 L12,9.41 L18.43,9.41 C19.02,9.41 19.5,8.93 19.5,8.34 L19.5,2.98 C19.5,2.39 19.02,1.91 18.43,1.91 Z"/>
</svg>

