<svg xmlns="http://www.w3.org/2000/svg" width="24" height="24" viewBox="0 0 24 24">
  <defs/>
  <path fill="#292D32" d="M8.02,4.621 L6.98,4.621 C5.39,4.621 4.75,5.221 4.75,6.741 L4.75,18.621 L10.25,18.621 L10.25,6.741 C10.24,5.221 9.6,4.621 8.02,4.621 Z"/>
  <path fill="#292D32" d="M16.52,9.621 L15.48,9.621 C13.89,9.621 13.25,10.231 13.25,11.741 L13.25,18.621 L18.75,18.621 L18.75,11.741 C18.75,10.231 18.1,9.621 16.52,9.621 Z"/>
  <path fill="#292D32" d="M2.75,17.879 L21.25,17.879 C21.66,17.879 22,18.219 22,18.629 C22,19.039 21.66,19.379 21.25,19.379 L2.75,19.379 C2.34,19.379 2,19.039 2,18.619 C2,18.199 2.34,17.879 2.75,17.879 Z"/>
</svg>

