<svg xmlns="http://www.w3.org/2000/svg" width="24" height="24" viewBox="0 0 24 24">
  <defs/>
  <path fill="#292D32" d="M22,13.9 L22,16.19 C22,19.83 19.831,22 16.191,22 L7.811,22 C5.261,22 3.421,20.93 2.561,19.03 L2.671,18.95 L7.591,15.65 C8.391,15.11 9.521,15.17 10.23,15.79 L10.57,16.07 C11.351,16.74 12.611,16.74 13.39,16.07 L17.55,12.5 C18.331,11.83 19.59,11.83 20.37,12.5 L22,13.9 Z"/>
  <path fill="#292D32" opacity="0.4" d="M20.97,8 L18.03,8 C16.76,8 16,7.24 16,5.97 L16,3.03 C16,2.63 16.08,2.29 16.22,2 C16.21,2 16.2,2 16.19,2 L7.81,2 C4.17,2 2,4.17 2,7.81 L2,16.19 C2,17.28 2.19,18.23 2.56,19.03 L2.67,18.95 L7.59,15.65 C8.39,15.11 9.52,15.17 10.23,15.79 L10.57,16.07 C11.35,16.74 12.61,16.74 13.39,16.07 L17.55,12.5 C18.33,11.83 19.59,11.83 20.37,12.5 L22,13.9 L22,7.81 C22,7.8 22,7.79 22,7.78 C21.71,7.92 21.37,8 20.97,8 Z"/>
  <path fill="#292D32" d="M8.999,10.38 C10.314,10.38 11.379,9.315 11.379,8 C11.379,6.686 10.314,5.62 8.999,5.62 C7.685,5.62 6.619,6.686 6.619,8 C6.619,9.315 7.685,10.38 8.999,10.38 Z"/>
  <path fill="#292D32" d="M20.97,1 L18.03,1 C16.76,1 16,1.76 16,3.03 L16,5.97 C16,7.24 16.76,8 18.03,8 L20.97,8 C22.24,8 23,7.24 23,5.97 L23,3.03 C23,1.76 22.24,1 20.97,1 Z M21.19,4.31 C21.07,4.43 20.91,4.49 20.75,4.49 C20.59,4.49 20.43,4.43 20.31,4.31 L20.13,4.13 L20.13,6.37 C20.13,6.72 19.85,7 19.5,7 C19.15,7 18.87,6.72 18.87,6.37 L18.87,4.13 L18.69,4.31 C18.45,4.55 18.05,4.55 17.81,4.31 C17.57,4.07 17.57,3.67 17.81,3.43 L19.06,2.18 C19.11,2.13 19.18,2.09 19.25,2.06 C19.27,2.05 19.29,2.05 19.31,2.04 C19.36,2.02 19.41,2.01 19.47,2.01 C19.49,2.01 19.51,2.01 19.53,2.01 C19.6,2.01 19.66,2.02 19.73,2.05 C19.74,2.05 19.74,2.05 19.75,2.05 C19.82,2.08 19.88,2.12 19.93,2.17 C19.94,2.18 19.94,2.18 19.95,2.18 L21.2,3.43 C21.44,3.67 21.44,4.07 21.19,4.31 Z"/>
</svg>

