<svg xmlns="http://www.w3.org/2000/svg" width="24" height="24" viewBox="0 0 24 24">
  <defs/>
  <path fill="#292D32" opacity="0.4" d="M16,20.97 L16,18.03 C16,16.76 16.76,16 18.03,16 L20.97,16 C21.37,16 21.71,16.08 22,16.22 C22,16.21 22,16.2 22,16.18 L22,7.81 C22,4.17 19.83,2 16.19,2 L7.81,2 C4.17,2 2,4.17 2,7.81 L2,16.18 C2,19.83 4.17,22 7.81,22 L16.18,22 C16.19,22 16.2,22 16.22,22 C16.08,21.71 16,21.37 16,20.97 Z"/>
  <path fill="#292D32" d="M7,14.25 C6.59,14.25 6.25,13.91 6.25,13.5 L6.25,10.5 C6.25,10.09 6.59,9.75 7,9.75 C7.41,9.75 7.75,10.09 7.75,10.5 L7.75,13.5 C7.75,13.91 7.41,14.25 7,14.25 Z"/>
  <path fill="#292D32" d="M12,14.25 C11.59,14.25 11.25,13.91 11.25,13.5 L11.25,10.5 C11.25,10.09 11.59,9.75 12,9.75 C12.41,9.75 12.75,10.09 12.75,10.5 L12.75,13.5 C12.75,13.91 12.41,14.25 12,14.25 Z"/>
  <path fill="#292D32" d="M17,14.25 C16.59,14.25 16.25,13.91 16.25,13.5 L16.25,10.5 C16.25,10.09 16.59,9.75 17,9.75 C17.41,9.75 17.75,10.09 17.75,10.5 L17.75,13.5 C17.75,13.91 17.41,14.25 17,14.25 Z"/>
  <path fill="#292D32" d="M20.97,16 L18.03,16 C16.76,16 16,16.76 16,18.03 L16,20.97 C16,22.24 16.76,23 18.03,23 L20.97,23 C22.24,23 23,22.24 23,20.97 L23,18.03 C23,16.76 22.24,16 20.97,16 Z M21.47,20.56 C21.72,20.81 21.72,21.22 21.47,21.47 C21.34,21.59 21.18,21.65 21.01,21.65 C20.85,21.65 20.69,21.59 20.56,21.47 L19.5,20.41 L18.45,21.47 C18.32,21.59 18.16,21.65 17.99,21.65 C17.83,21.65 17.67,21.59 17.54,21.47 C17.29,21.22 17.29,20.81 17.54,20.56 L18.6,19.5 L17.54,18.45 C17.29,18.2 17.29,17.79 17.54,17.54 C17.79,17.29 18.2,17.29 18.45,17.54 L19.5,18.6 L20.56,17.54 C20.81,17.29 21.22,17.29 21.47,17.54 C21.72,17.79 21.72,18.2 21.47,18.45 L20.41,19.5 L21.47,20.56 Z"/>
</svg>

