<svg xmlns="http://www.w3.org/2000/svg" width="24" height="24" viewBox="0 0 24 24">
  <defs/>
  <path fill="#292D32" d="M9.507,8.346 Q12,9.256 14.493,8.346 Q14.785,8.239 15.066,8.37 Q15.348,8.501 15.454,8.793 Q15.561,9.085 15.43,9.366 Q15.299,9.648 15.007,9.755 Q12,10.853 8.993,9.755 Q8.701,9.648 8.57,9.366 Q8.439,9.085 8.546,8.793 Q8.652,8.501 8.934,8.37 Q9.215,8.239 9.507,8.346 Z"/>
  <path fill="#292D32" d="M16.82,1.25 Q18.726,1.25 20.08,2.605 Q21.431,3.955 21.44,5.86 L21.44,19.95 Q21.44,21.736 20.228,22.45 Q19.015,23.164 17.456,22.296 L12.569,19.582 Q12.01,19.264 11.434,19.586 L6.552,22.297 Q4.993,23.156 3.782,22.443 Q2.57,21.729 2.57,19.95 L2.57,5.86 Q2.57,3.958 3.92,2.605 Q5.273,1.25 7.18,1.25 Z M16.82,2.75 L7.18,2.75 Q4.07,2.75 4.07,5.86 L4.07,19.95 Q4.07,20.871 4.543,21.15 Q5.017,21.429 5.828,20.983 L10.706,18.274 Q12.018,17.543 13.311,18.278 L18.184,20.984 Q18.994,21.436 19.467,21.157 Q19.94,20.879 19.94,19.95 L19.94,5.86 Q19.925,2.75 16.82,2.75 Z"/>
  <path fill="#292D32" d="M16.82,1.25 Q18.726,1.25 20.08,2.605 Q21.431,3.955 21.44,5.86 L21.44,19.95 Q21.44,21.736 20.228,22.45 Q19.015,23.164 17.456,22.296 L12.569,19.582 Q12.01,19.264 11.434,19.586 L6.552,22.297 Q4.993,23.156 3.782,22.443 Q2.57,21.729 2.57,19.95 L2.57,5.86 Q2.57,3.958 3.92,2.605 Q5.273,1.25 7.18,1.25 Z M16.82,2.75 L7.18,2.75 Q4.07,2.75 4.07,5.86 L4.07,19.95 Q4.07,20.871 4.543,21.15 Q5.017,21.429 5.828,20.983 L10.706,18.274 Q12.018,17.543 13.311,18.278 L18.184,20.984 Q18.994,21.436 19.467,21.157 Q19.94,20.879 19.94,19.95 L19.94,5.86 Q19.925,2.75 16.82,2.75 Z"/>
</svg>

