<svg xmlns="http://www.w3.org/2000/svg" width="24" height="24" viewBox="0 0 24 24">
  <defs/>
  <path fill="#292D32" d="M16.301,3.54 Q17.189,4.854 17.189,6.44 Q17.18,8.544 15.727,10.046 Q14.274,11.549 12.184,11.62 Q12.134,11.621 12.085,11.616 Q11.999,11.608 11.897,11.617 Q11.851,11.621 11.805,11.62 Q7.338,11.478 6.844,7.033 Q6.589,4.773 8.152,3.013 Q9.718,1.25 11.989,1.25 Q12.3,1.25 12.52,1.47 Q12.739,1.689 12.739,2 Q12.739,2.311 12.52,2.53 Q12.3,2.75 11.989,2.75 Q10.392,2.75 9.274,4.009 Q8.154,5.27 8.335,6.867 Q8.683,10 11.812,10.119 Q12,10.105 12.178,10.119 Q15.674,9.979 15.689,6.44 Q15.689,5.314 15.058,4.38 Q14.884,4.123 14.943,3.818 Q15.002,3.513 15.259,3.339 Q15.517,3.165 15.822,3.224 Q16.127,3.283 16.301,3.54 Z"/>
  <path fill="#292D32" d="M6.577,13.934 Q8.843,12.438 12.011,12.438 Q15.181,12.438 17.416,13.936 Q19.566,15.366 19.566,17.491 Q19.566,19.615 17.418,21.053 Q15.166,22.56 11.996,22.56 Q8.826,22.56 6.575,21.054 Q4.426,19.624 4.426,17.499 Q4.426,15.375 6.574,13.937 Z M7.404,15.186 Q5.926,16.177 5.926,17.499 Q5.926,18.821 7.406,19.806 Q9.281,21.06 11.996,21.06 Q14.711,21.06 16.584,19.807 Q18.066,18.815 18.066,17.491 Q18.066,16.169 16.585,15.184 Q14.725,13.938 12.011,13.938 Q9.295,13.938 7.406,15.184 Q7.405,15.185 7.404,15.186 Z"/>
</svg>

