<svg xmlns="http://www.w3.org/2000/svg" width="24" height="24" viewBox="0 0 24 24">
  <defs/>
  <path fill="#292D32" d="M8.27,22.75 L4.23,22.75 C2.22,22.75 1.25,21.82 1.25,19.9 L1.25,4.1 C1.25,2.18 2.23,1.25 4.23,1.25 L8.27,1.25 C10.28,1.25 11.25,2.18 11.25,4.1 L11.25,19.9 C11.25,21.82 10.27,22.75 8.27,22.75 Z M4.23,2.75 C2.96,2.75 2.75,3.09 2.75,4.1 L2.75,19.9 C2.75,20.91 2.96,21.25 4.23,21.25 L8.27,21.25 C9.54,21.25 9.75,20.91 9.75,19.9 L9.75,4.1 C9.75,3.09 9.54,2.75 8.27,2.75 L4.23,2.75 Z"/>
  <path fill="#292D32" d="M19.77,11.25 L15.73,11.25 C13.72,11.25 12.75,10.36 12.75,8.52 L12.75,3.98 C12.75,2.14 13.73,1.25 15.73,1.25 L19.77,1.25 C21.78,1.25 22.75,2.14 22.75,3.98 L22.75,8.51 C22.75,10.36 21.77,11.25 19.77,11.25 Z M15.73,2.75 C14.39,2.75 14.25,3.13 14.25,3.98 L14.25,8.51 C14.25,9.37 14.39,9.74 15.73,9.74 L19.77,9.74 C21.11,9.74 21.25,9.36 21.25,8.51 L21.25,3.98 C21.25,3.12 21.11,2.75 19.77,2.75 L15.73,2.75 Z"/>
  <path fill="#292D32" d="M19.77,22.75 L15.73,22.75 C13.72,22.75 12.75,21.77 12.75,19.77 L12.75,15.73 C12.75,13.72 13.73,12.75 15.73,12.75 L19.77,12.75 C21.78,12.75 22.75,13.73 22.75,15.73 L22.75,19.77 C22.75,21.77 21.77,22.75 19.77,22.75 Z M15.73,14.25 C14.55,14.25 14.25,14.55 14.25,15.73 L14.25,19.77 C14.25,20.95 14.55,21.25 15.73,21.25 L19.77,21.25 C20.95,21.25 21.25,20.95 21.25,19.77 L21.25,15.73 C21.25,14.55 20.95,14.25 19.77,14.25 L15.73,14.25 Z"/>
</svg>

