<svg xmlns="http://www.w3.org/2000/svg" width="24" height="24" viewBox="0 0 24 24">
  <defs/>
  <path fill="#292D32" d="M19.26,19.65 C18.85,19.65 18.51,19.31 18.51,18.9 L18.51,7.1 C18.51,6.09 18.3,5.75 17.03,5.75 L15.99,5.75 C14.72,5.75 14.51,6.09 14.51,7.1 L14.51,18.9 C14.51,19.31 14.17,19.65 13.76,19.65 C13.35,19.65 13.01,19.31 13.01,18.9 L13.01,7.1 C13.01,5.18 13.99,4.25 15.99,4.25 L17.03,4.25 C19.04,4.25 20.01,5.18 20.01,7.1 L20.01,18.9 C20.01,19.31 19.67,19.65 19.26,19.65 Z"/>
  <path fill="#292D32" d="M10.76,19.65 C10.35,19.65 10.01,19.31 10.01,18.9 L10.01,12.1 C10.01,11.09 9.8,10.75 8.53,10.75 L7.49,10.75 C6.22,10.75 6.01,11.09 6.01,12.1 L6.01,18.9 C6.01,19.31 5.67,19.65 5.26,19.65 C4.85,19.65 4.51,19.31 4.51,18.9 L4.51,12.1 C4.51,10.18 5.49,9.25 7.49,9.25 L8.53,9.25 C10.54,9.25 11.51,10.18 11.51,12.1 L11.51,18.9 C11.51,19.31 11.17,19.65 10.76,19.65 Z"/>
  <path fill="#292D32" d="M22,19.75 L2,19.75 C1.59,19.75 1.25,19.41 1.25,19 C1.25,18.59 1.58,18.25 2,18.25 L22,18.25 C22.41,18.25 22.75,18.59 22.75,19 C22.75,19.41 22.42,19.75 22,19.75 Z"/>
</svg>

