<svg xmlns="http://www.w3.org/2000/svg" width="24" height="24" viewBox="0 0 24 24">
  <defs/>
  <path fill="#292D32" d="M18.51,18.9 L18.51,7.1 Q18.51,6.3 18.227,6.034 Q17.926,5.75 17.03,5.75 L15.99,5.75 Q14.51,5.75 14.51,7.1 L14.51,18.9 Q14.51,19.211 14.29,19.43 Q14.07,19.65 13.76,19.65 Q13.449,19.65 13.229,19.43 Q13.01,19.211 13.01,18.9 L13.01,7.1 Q13.01,5.651 13.765,4.941 Q14.499,4.25 15.99,4.25 L17.03,4.25 Q20.01,4.25 20.01,7.1 L20.01,18.9 Q20.01,19.211 19.79,19.43 Q19.57,19.65 19.26,19.65 Q18.949,19.65 18.729,19.43 Q18.51,19.211 18.51,18.9 Z"/>
  <path fill="#292D32" d="M11.51,12.1 L11.51,18.9 Q11.51,19.211 11.29,19.43 Q11.07,19.65 10.76,19.65 Q10.449,19.65 10.229,19.43 Q10.01,19.211 10.01,18.9 L10.01,12.1 Q10.01,11.789 10.229,11.57 Q10.449,11.35 10.76,11.35 Q11.07,11.35 11.29,11.57 Q11.51,11.789 11.51,12.1 Z"/>
  <path fill="#292D32" d="M4.51,18.9 L4.51,12.1 Q4.51,10.651 5.265,9.941 Q5.999,9.25 7.49,9.25 Q7.8,9.25 8.02,9.47 Q8.24,9.689 8.24,10 Q8.24,10.311 8.02,10.53 Q7.8,10.75 7.49,10.75 Q6.594,10.75 6.292,11.034 Q6.01,11.3 6.01,12.1 L6.01,18.9 Q6.01,19.211 5.79,19.43 Q5.57,19.65 5.26,19.65 Q4.949,19.65 4.729,19.43 Q4.51,19.211 4.51,18.9 Z"/>
  <path fill="#292D32" d="M2,18.25 L22,18.25 Q22.311,18.25 22.53,18.47 Q22.75,18.689 22.75,19 Q22.75,19.311 22.53,19.53 Q22.311,19.75 22,19.75 L2,19.75 Q1.689,19.75 1.47,19.53 Q1.25,19.311 1.25,19 Q1.25,18.689 1.47,18.47 Q1.689,18.25 2,18.25 Z"/>
</svg>

