<svg xmlns="http://www.w3.org/2000/svg" width="24" height="24" viewBox="0 0 24 24">
  <defs/>
  <path fill="#292D32" d="M12,22.76 C10.91,22.76 9.83,22.44 8.98,21.81 L4.68,18.6 C3.54,17.75 2.65,15.98 2.65,14.56 L2.65,7.12 C2.65,5.58 3.78,3.94 5.23,3.4 L10.22,1.53 C11.21,1.16 12.77,1.16 13.76,1.53 L18.76,3.4 C20.21,3.94 21.34,5.58 21.34,7.12 L21.34,14.55 C21.34,15.97 20.45,17.74 19.31,18.59 L15.01,21.8 C14.17,22.44 13.09,22.76 12,22.76 Z M10.75,2.94 L5.76,4.81 C4.9,5.13 4.15,6.21 4.15,7.13 L4.15,14.56 C4.15,15.51 4.82,16.84 5.57,17.4 L9.87,20.61 C11.02,21.47 12.97,21.47 14.12,20.61 L18.42,17.4 C19.18,16.83 19.84,15.5 19.84,14.56 L19.84,7.12 C19.84,6.21 19.09,5.13 18.23,4.8 L13.24,2.93 C12.58,2.69 11.42,2.69 10.75,2.94 Z"/>
  <path fill="#292D32" d="M12,13.25 C10.48,13.25 9.25,12.02 9.25,10.5 C9.25,8.98 10.48,7.75 12,7.75 C13.52,7.75 14.75,8.98 14.75,10.5 C14.75,12.02 13.52,13.25 12,13.25 Z M12,9.25 C11.31,9.25 10.75,9.81 10.75,10.5 C10.75,11.19 11.31,11.75 12,11.75 C12.69,11.75 13.25,11.19 13.25,10.5 C13.25,9.81 12.69,9.25 12,9.25 Z"/>
  <path fill="#292D32" d="M12,16.25 C11.59,16.25 11.25,15.91 11.25,15.5 L11.25,12.5 C11.25,12.09 11.59,11.75 12,11.75 C12.41,11.75 12.75,12.09 12.75,12.5 L12.75,15.5 C12.75,15.91 12.41,16.25 12,16.25 Z"/>
</svg>

