<svg xmlns="http://www.w3.org/2000/svg" width="24" height="24" viewBox="0 0 24 24">
  <defs/>
  <path fill="#292D32" d="M11,19.9 L11,4.1 C11,2.6 10.36,2 8.77,2 L4.73,2 C3.14,2 2.5,2.6 2.5,4.1 L2.5,19.9 C2.5,21.4 3.14,22 4.73,22 L8.77,22 C10.36,22 11,21.4 11,19.9 Z"/>
  <path fill="#292D32" d="M21.5,19.64 L21.5,15.36 C21.5,14.06 20.5,13 19.27,13 L15.23,13 C14,13 13,14.06 13,15.36 L13,19.64 C13,20.94 14,22 15.23,22 L19.27,22 C20.5,22 21.5,20.94 21.5,19.64 Z"/>
  <path fill="#292D32" d="M21.5,8.64 L21.5,4.36 C21.5,3.06 20.5,2 19.27,2 L15.23,2 C14,2 13,3.06 13,4.36 L13,8.64 C13,9.94 14,11 15.23,11 L19.27,11 C20.5,11 21.5,9.94 21.5,8.64 Z"/>
</svg>

