<svg xmlns="http://www.w3.org/2000/svg" width="24" height="24" viewBox="0 0 24 24">
  <defs/>
  <path fill="#292D32" d="M20.41,6.961 L20.41,8.791 C20.41,9.431 20.11,10.031 19.59,10.401 L8.59,18.461 C7.88,18.981 6.91,18.981 6.21,18.451 L4.77,17.371 C4.12,16.881 3.59,15.821 3.59,15.011 L3.59,6.961 C3.59,5.841 4.45,4.601 5.5,4.211 L10.97,2.161 C11.54,1.951 12.46,1.951 13.03,2.161 L18.5,4.211 C19.55,4.601 20.41,5.841 20.41,6.961 Z"/>
  <path fill="#292D32" d="M18.822,12.341 C19.482,11.861 20.412,12.331 20.412,13.151 L20.412,15.031 C20.412,15.841 19.882,16.891 19.232,17.381 L13.762,21.471 C13.282,21.821 12.642,22.001 12.002,22.001 C11.362,22.001 10.722,21.821 10.242,21.461 L9.412,20.841 C8.872,20.441 8.872,19.631 9.422,19.231 L18.822,12.341 Z"/>
</svg>

