<svg xmlns="http://www.w3.org/2000/svg" width="24" height="24" viewBox="0 0 24 24">
  <defs/>
  <path d="M21,7.75 L9,7.75 C8.04,7.75 7.25,6.96 7.25,6 L7.25,3 C7.25,2.04 8.04,1.25 9,1.25 L21,1.25 C21.96,1.25 22.75,2.04 22.75,3 L22.75,6 C22.75,6.96 21.96,7.75 21,7.75 Z M9,2.75 C8.86,2.75 8.75,2.86 8.75,3 L8.75,6 C8.75,6.14 8.86,6.25 9,6.25 L21,6.25 C21.14,6.25 21.25,6.14 21.25,6 L21.25,3 C21.25,2.86 21.14,2.75 21,2.75 L9,2.75 Z"/>
  <path d="M12,22.75 L7,22.75 C6.59,22.75 6.25,22.41 6.25,22 L6.25,17 C6.25,16.59 6.59,16.25 7,16.25 L12,16.25 C12.41,16.25 12.75,16.59 12.75,17 L12.75,22 C12.75,22.41 12.41,22.75 12,22.75 Z M7.75,21.25 L11.25,21.25 L11.25,17.75 L7.75,17.75 L7.75,21.25 Z"/>
  <path d="M7,15.25 L2,15.25 C1.59,15.25 1.25,14.91 1.25,14.5 L1.25,9.5 C1.25,9.09 1.59,8.75 2,8.75 L7,8.75 C7.41,8.75 7.75,9.09 7.75,9.5 L7.75,14.5 C7.75,14.91 7.41,15.25 7,15.25 Z M2.75,13.75 L6.25,13.75 L6.25,10.25 L2.75,10.25 L2.75,13.75 Z"/>
  <path d="M18,15.11 L9.5,15.11 C9.09,15.11 8.75,14.77 8.75,14.36 L8.75,9.64 C8.75,9.23 9.09,8.89 9.5,8.89 L18,8.89 C18.41,8.89 18.75,9.23 18.75,9.64 L18.75,14.36 C18.75,14.78 18.41,15.11 18,15.11 Z M10.25,13.61 L17.25,13.61 L17.25,10.39 L10.25,10.39 L10.25,13.61 Z"/>
</svg>

