<svg xmlns="http://www.w3.org/2000/svg" width="24" height="24" viewBox="0 0 24 24">
  <defs/>
  <path d="M21,1.25 Q22.75,1.25 22.75,3 L22.75,6 Q22.75,6.723 22.237,7.237 Q21.723,7.75 21,7.75 L9,7.75 Q7.25,7.75 7.25,6 L7.25,3 Q7.25,1.25 9,1.25 Z M21,2.75 L9,2.75 Q8.75,2.75 8.75,3 L8.75,6 Q8.75,6.25 9,6.25 L21,6.25 Q21.25,6.25 21.25,6 L21.25,3 Q21.25,2.75 21,2.75 Z"/>
  <path d="M6.25,17 Q6.25,16.689 6.47,16.47 Q6.689,16.25 7,16.25 L12,16.25 Q12.311,16.25 12.53,16.47 Q12.75,16.689 12.75,17 L12.75,22 Q12.75,22.311 12.53,22.53 Q12.311,22.75 12,22.75 L7,22.75 Q6.689,22.75 6.47,22.53 Q6.25,22.311 6.25,22 Z M7.75,17.75 L7.75,21.25 L11.25,21.25 L11.25,17.75 Z"/>
  <path d="M1.25,9.5 Q1.25,9.189 1.47,8.97 Q1.689,8.75 2,8.75 L7,8.75 Q7.311,8.75 7.53,8.97 Q7.75,9.189 7.75,9.5 L7.75,14.5 Q7.75,14.811 7.53,15.03 Q7.311,15.25 7,15.25 L2,15.25 Q1.689,15.25 1.47,15.03 Q1.25,14.811 1.25,14.5 Z M2.75,10.25 L2.75,13.75 L6.25,13.75 L6.25,10.25 Z"/>
  <path d="M17,13.61 L17.25,13.61 L17.25,10.39 L10.25,10.39 L10.25,13.61 L12.92,13.61 Q13.231,13.61 13.45,13.83 Q13.67,14.049 13.67,14.36 Q13.67,14.671 13.45,14.89 Q13.231,15.11 12.92,15.11 L9.5,15.11 Q9.189,15.11 8.97,14.89 Q8.75,14.671 8.75,14.36 L8.75,9.64 Q8.75,9.329 8.97,9.11 Q9.189,8.89 9.5,8.89 L18,8.89 Q18.311,8.89 18.53,9.11 Q18.75,9.329 18.75,9.64 L18.75,14.36 Q18.75,14.671 18.53,14.89 Q18.311,15.11 18,15.11 L17,15.11 Q16.689,15.11 16.47,14.89 Q16.25,14.671 16.25,14.36 Q16.25,14.049 16.47,13.83 Q16.689,13.61 17,13.61 Z"/>
</svg>

