<svg xmlns="http://www.w3.org/2000/svg" width="24" height="24" viewBox="0 0 24 24">
  <defs/>
  <path d="M21,2 L9,2 C8.45,2 8,2.45 8,3 L8,6 C8,6.55 8.45,7 9,7 L21,7 C21.55,7 22,6.55 22,6 L22,3 C22,2.45 21.55,2 21,2 Z"/>
  <path d="M11,17 L8,17 C7.45,17 7,17.45 7,18 L7,21 C7,21.55 7.45,22 8,22 L11,22 C11.55,22 12,21.55 12,21 L12,18 C12,17.45 11.55,17 11,17 Z"/>
  <path d="M6,9.5 L3,9.5 C2.45,9.5 2,9.95 2,10.5 L2,13.5 C2,14.05 2.45,14.5 3,14.5 L6,14.5 C6.55,14.5 7,14.05 7,13.5 L7,10.5 C7,9.95 6.55,9.5 6,9.5 Z"/>
  <path d="M17,9.641 L10.5,9.641 C9.95,9.641 9.5,10.091 9.5,10.641 L9.5,13.361 C9.5,13.911 9.95,14.361 10.5,14.361 L17,14.361 C17.55,14.361 18,13.911 18,13.361 L18,10.641 C18,10.091 17.55,9.641 17,9.641 Z"/>
</svg>

