<svg xmlns="http://www.w3.org/2000/svg" width="24" height="24" viewBox="0 0 24 24">
  <defs/>
  <path fill="#292D32" d="M9,10.75 C7.48,10.75 6.25,9.52 6.25,8 C6.25,6.48 7.48,5.25 9,5.25 C10.52,5.25 11.75,6.48 11.75,8 C11.75,9.52 10.52,10.75 9,10.75 Z M9,6.75 C8.31,6.75 7.75,7.31 7.75,8 C7.75,8.69 8.31,9.25 9,9.25 C9.69,9.25 10.25,8.69 10.25,8 C10.25,7.31 9.69,6.75 9,6.75 Z"/>
  <path fill="#292D32" d="M15,22.75 L9,22.75 C3.57,22.75 1.25,20.43 1.25,15 L1.25,9 C1.25,3.57 3.57,1.25 9,1.25 L13,1.25 C13.41,1.25 13.75,1.59 13.75,2 C13.75,2.41 13.41,2.75 13,2.75 L9,2.75 C4.39,2.75 2.75,4.39 2.75,9 L2.75,15 C2.75,19.61 4.39,21.25 9,21.25 L15,21.25 C19.61,21.25 21.25,19.61 21.25,15 L21.25,10 C21.25,9.59 21.59,9.25 22,9.25 C22.41,9.25 22.75,9.59 22.75,10 L22.75,15 C22.75,20.43 20.43,22.75 15,22.75 Z"/>
  <path fill="#292D32" d="M17.459,7.2 C17.27,7.2 17.079,7.13 16.93,6.98 L15.47,5.52 C15.18,5.23 15.18,4.75 15.47,4.46 C15.759,4.17 16.239,4.17 16.529,4.46 L17.459,5.39 L20.829,2.02 C21.119,1.73 21.599,1.73 21.89,2.02 C22.18,2.31 22.18,2.79 21.89,3.08 L17.989,6.98 C17.849,7.13 17.649,7.2 17.459,7.2 Z"/>
  <path fill="#292D32" d="M2.671,19.7 C2.431,19.7 2.191,19.58 2.051,19.37 C1.821,19.03 1.911,18.56 2.261,18.33 L7.191,15.02 C8.271,14.29 9.761,14.38 10.741,15.21 L11.071,15.5 C11.571,15.93 12.421,15.93 12.911,15.5 L17.071,11.93 C18.131,11.02 19.801,11.02 20.871,11.93 L22.501,13.33 C22.811,13.6 22.851,14.07 22.581,14.39 C22.311,14.7 21.841,14.74 21.521,14.47 L19.891,13.07 C19.391,12.64 18.541,12.64 18.041,13.07 L13.881,16.64 C12.821,17.55 11.151,17.55 10.081,16.64 L9.751,16.35 C9.291,15.96 8.531,15.92 8.021,16.27 L3.091,19.58 C2.961,19.66 2.811,19.7 2.671,19.7 Z"/>
</svg>

