<svg xmlns="http://www.w3.org/2000/svg" width="24" height="24" viewBox="0 0 24 24">
  <defs/>
  <path fill="#292D32" d="M9,10.75 C7.48,10.75 6.25,9.52 6.25,8 C6.25,6.48 7.48,5.25 9,5.25 C10.52,5.25 11.75,6.48 11.75,8 C11.75,9.52 10.52,10.75 9,10.75 Z M9,6.75 C8.31,6.75 7.75,7.31 7.75,8 C7.75,8.69 8.31,9.25 9,9.25 C9.69,9.25 10.25,8.69 10.25,8 C10.25,7.31 9.69,6.75 9,6.75 Z"/>
  <path fill="#292D32" d="M15,22.75 L9,22.75 C3.57,22.75 1.25,20.43 1.25,15 L1.25,9 C1.25,3.57 3.57,1.25 9,1.25 L13,1.25 C13.41,1.25 13.75,1.59 13.75,2 C13.75,2.41 13.41,2.75 13,2.75 L9,2.75 C4.39,2.75 2.75,4.39 2.75,9 L2.75,15 C2.75,19.61 4.39,21.25 9,21.25 L15,21.25 C19.61,21.25 21.25,19.61 21.25,15 L21.25,10 C21.25,9.59 21.59,9.25 22,9.25 C22.41,9.25 22.75,9.59 22.75,10 L22.75,15 C22.75,20.43 20.43,22.75 15,22.75 Z"/>
  <path fill="#292D32" d="M18,8.75 C17.59,8.75 17.25,8.41 17.25,8 L17.25,2 C17.25,1.7 17.43,1.42 17.71,1.31 C17.99,1.2 18.31,1.26 18.53,1.47 L20.53,3.47 C20.82,3.76 20.82,4.24 20.53,4.53 C20.24,4.82 19.76,4.82 19.47,4.53 L18.75,3.81 L18.75,8 C18.75,8.41 18.41,8.75 18,8.75 Z"/>
  <path fill="#292D32" d="M15.999,4.75 C15.809,4.75 15.62,4.68 15.47,4.53 C15.18,4.24 15.18,3.76 15.47,3.47 L17.47,1.47 C17.759,1.18 18.239,1.18 18.529,1.47 C18.82,1.76 18.82,2.24 18.529,2.53 L16.529,4.53 C16.38,4.68 16.189,4.75 15.999,4.75 Z"/>
  <path fill="#292D32" d="M2.669,19.7 C2.429,19.7 2.189,19.58 2.049,19.37 C1.819,19.03 1.909,18.56 2.249,18.33 L7.179,15.02 C8.259,14.3 9.749,14.38 10.729,15.21 L11.059,15.5 C11.559,15.93 12.409,15.93 12.899,15.5 L17.059,11.93 C18.119,11.02 19.789,11.02 20.859,11.93 L22.489,13.33 C22.799,13.6 22.839,14.07 22.569,14.39 C22.299,14.7 21.819,14.74 21.509,14.47 L19.879,13.07 C19.379,12.64 18.539,12.64 18.039,13.07 L13.879,16.64 C12.819,17.55 11.149,17.55 10.079,16.64 L9.749,16.35 C9.289,15.96 8.529,15.92 8.019,16.27 L3.099,19.58 C2.959,19.66 2.809,19.7 2.669,19.7 Z"/>
</svg>

