<svg xmlns="http://www.w3.org/2000/svg" width="24" height="24" viewBox="0 0 24 24">
  <defs/>
  <path fill="#292D32" d="M21.769,2.229 C21.469,1.929 20.979,1.929 20.679,2.229 L2.229,20.689 C1.929,20.989 1.929,21.479 2.229,21.779 C2.379,21.919 2.569,21.999 2.769,21.999 C2.969,21.999 3.159,21.919 3.309,21.769 L21.769,3.309 C22.079,3.009 22.079,2.529 21.769,2.229 Z"/>
  <path fill="#292D32" d="M9.001,10.381 C10.316,10.381 11.381,9.316 11.381,8.001 C11.381,6.687 10.316,5.621 9.001,5.621 C7.687,5.621 6.621,6.687 6.621,8.001 C6.621,9.316 7.687,10.381 9.001,10.381 Z"/>
  <path fill="#292D32" d="M21.608,5.391 L20.388,6.611 C20.468,6.981 20.498,7.381 20.498,7.811 L20.498,12.611 L20.368,12.501 C19.588,11.831 18.328,11.831 17.548,12.501 L13.388,16.071 C12.678,16.681 11.558,16.741 10.778,16.221 L5.398,21.601 C5.438,21.621 5.478,21.631 5.518,21.641 C5.788,21.731 6.058,21.801 6.348,21.861 C6.448,21.881 6.548,21.901 6.658,21.911 C7.028,21.961 7.408,22.001 7.808,22.001 L16.188,22.001 C19.828,22.001 21.998,19.831 21.998,16.191 L21.998,7.811 C21.998,6.911 21.868,6.101 21.608,5.391 Z"/>
  <path fill="#292D32" d="M21.611,5.391 L20.391,6.611 C20.471,6.981 20.501,7.381 20.501,7.811 L20.501,12.611 L20.371,12.501 C19.591,11.831 18.331,11.831 17.551,12.501 L13.391,16.071 C12.681,16.681 11.561,16.741 10.781,16.221 L5.391,21.611 C6.101,21.871 6.911,22.001 7.811,22.001 L16.191,22.001 C19.831,22.001 22.001,19.831 22.001,16.191 L22.001,7.811 C22.001,6.911 21.871,6.101 21.611,5.391 Z"/>
  <path fill="#292D32" d="M20.46,3.54 L19.4,4.6 C18.68,3.87 17.6,3.5 16.19,3.5 L7.81,3.5 C4.99,3.5 3.5,4.99 3.5,7.81 L3.5,16.19 C3.5,16.95 3.63,17.6 3.85,18.16 L7.59,15.65 C7.93,15.42 8.32,15.3 8.71,15.29 L3.54,20.46 C3.14,20.06 2.81,19.58 2.56,19.03 C2.19,18.23 2,17.28 2,16.19 L2,7.81 C2,4.17 4.17,2 7.81,2 L16.19,2 C18.01,2 19.46,2.54 20.46,3.54 Z"/>
</svg>

