<svg xmlns="http://www.w3.org/2000/svg" width="24" height="24" viewBox="0 0 24 24">
  <defs/>
  <path fill="#292D32" d="M2.581,19.011 L2.561,19.031 C2.291,18.441 2.121,17.771 2.051,17.031 C2.121,17.761 2.311,18.421 2.581,19.011 Z"/>
  <path fill="#292D32" d="M9.001,10.381 C10.316,10.381 11.381,9.316 11.381,8.001 C11.381,6.687 10.316,5.621 9.001,5.621 C7.687,5.621 6.621,6.687 6.621,8.001 C6.621,9.316 7.687,10.381 9.001,10.381 Z"/>
  <path fill="#292D32" d="M16.19,2 L7.81,2 C4.17,2 2,4.17 2,7.81 L2,16.19 C2,17.28 2.19,18.23 2.56,19.03 C3.42,20.93 5.26,22 7.81,22 L16.19,22 C19.83,22 22,19.83 22,16.19 L22,13.9 L22,7.81 C22,4.17 19.83,2 16.19,2 Z M20.37,12.5 C19.59,11.83 18.33,11.83 17.55,12.5 L13.39,16.07 C12.61,16.74 11.35,16.74 10.57,16.07 L10.23,15.79 C9.52,15.17 8.39,15.11 7.59,15.65 L3.85,18.16 C3.63,17.6 3.5,16.95 3.5,16.19 L3.5,7.81 C3.5,4.99 4.99,3.5 7.81,3.5 L16.19,3.5 C19.01,3.5 20.5,4.99 20.5,7.81 L20.5,12.61 L20.37,12.5 Z"/>
</svg>

