<svg xmlns="http://www.w3.org/2000/svg" width="24" height="24" viewBox="0 0 24 24">
  <defs/>
  <path fill="#292D32" d="M20.97,1 L18.03,1 C17.16,1 16.52,1.36 16.23,2 C16.07,2.29 16,2.63 16,3.03 L16,5.97 C16,7.24 16.76,8 18.03,8 L20.97,8 C21.37,8 21.71,7.93 22,7.77 C22.64,7.48 23,6.84 23,5.97 L23,3.03 C23,1.76 22.24,1 20.97,1 Z M21.91,4.93 C21.81,5.03 21.66,5.1 21.5,5.11 L20.09,5.11 L20.09,5.62 L20.1,6.5 C20.09,6.67 20.03,6.81 19.91,6.93 C19.81,7.03 19.66,7.1 19.5,7.1 C19.17,7.1 18.9,6.83 18.9,6.5 L18.9,5.1 L17.5,5.11 C17.17,5.11 16.9,4.83 16.9,4.5 C16.9,4.17 17.17,3.9 17.5,3.9 L18.38,3.91 L18.9,3.91 L18.9,2.51 C18.9,2.18 19.17,1.9 19.5,1.9 C19.83,1.9 20.1,2.18 20.1,2.51 L20.09,3.22 L20.09,3.9 L21.5,3.9 C21.83,3.9 22.1,4.17 22.1,4.5 C22.09,4.67 22.02,4.81 21.91,4.93 Z"/>
  <path fill="#292D32" d="M9.001,10.381 C10.316,10.381 11.381,9.316 11.381,8.001 C11.381,6.687 10.316,5.621 9.001,5.621 C7.687,5.621 6.621,6.687 6.621,8.001 C6.621,9.316 7.687,10.381 9.001,10.381 Z"/>
  <path fill="#292D32" d="M20.97,8 L20.5,8 L20.5,12.61 L20.37,12.5 C19.59,11.83 18.33,11.83 17.55,12.5 L13.39,16.07 C12.61,16.74 11.35,16.74 10.57,16.07 L10.23,15.79 C9.52,15.17 8.39,15.11 7.59,15.65 L3.85,18.16 C3.63,17.6 3.5,16.95 3.5,16.19 L3.5,7.81 C3.5,4.99 4.99,3.5 7.81,3.5 L16,3.5 L16,3.03 C16,2.63 16.07,2.29 16.23,2 L7.81,2 C4.17,2 2,4.17 2,7.81 L2,16.19 C2,17.28 2.19,18.23 2.56,19.03 C3.42,20.93 5.26,22 7.81,22 L16.19,22 C19.83,22 22,19.83 22,16.19 L22,7.77 C21.71,7.93 21.37,8 20.97,8 Z"/>
</svg>

