<svg xmlns="http://www.w3.org/2000/svg" width="24" height="24" viewBox="0 0 24 24">
  <defs/>
  <path fill="#292D32" d="M20.97,1 L18.03,1 C16.76,1 16,1.76 16,3.03 L16,5.97 C16,7.24 16.76,8 18.03,8 L20.97,8 C22.24,8 23,7.24 23,5.97 L23,3.03 C23,1.76 22.24,1 20.97,1 Z M19.01,6.57 C18.98,6.6 18.91,6.64 18.86,6.64 L17.82,6.79 C17.79,6.8 17.75,6.8 17.72,6.8 C17.57,6.8 17.44,6.75 17.35,6.65 C17.23,6.53 17.18,6.36 17.21,6.18 L17.36,5.14 C17.37,5.09 17.4,5.02 17.43,4.99 L19.13,3.29 C19.16,3.36 19.19,3.44 19.22,3.52 C19.26,3.6 19.3,3.67 19.34,3.74 C19.37,3.8 19.41,3.86 19.45,3.9 C19.49,3.96 19.53,4.02 19.56,4.05 C19.58,4.08 19.59,4.09 19.6,4.1 C19.69,4.21 19.79,4.31 19.88,4.38 C19.9,4.4 19.92,4.42 19.93,4.42 C19.98,4.46 20.04,4.51 20.08,4.54 C20.14,4.58 20.19,4.62 20.25,4.65 C20.32,4.69 20.4,4.73 20.48,4.77 C20.56,4.81 20.64,4.84 20.71,4.86 L19.01,6.57 Z M21.4,4.18 L21.08,4.5 C21.06,4.53 21.03,4.54 21,4.54 C20.99,4.54 20.98,4.54 20.97,4.54 C20.25,4.33 19.68,3.76 19.47,3.04 C19.46,3 19.47,2.96 19.5,2.93 L19.83,2.6 C20.37,2.06 20.88,2.07 21.41,2.6 C21.68,2.87 21.81,3.13 21.81,3.39 C21.8,3.65 21.67,3.91 21.4,4.18 Z"/>
  <path fill="#292D32" d="M9.001,10.381 C10.316,10.381 11.381,9.316 11.381,8.001 C11.381,6.687 10.316,5.621 9.001,5.621 C7.687,5.621 6.621,6.687 6.621,8.001 C6.621,9.316 7.687,10.381 9.001,10.381 Z"/>
  <path fill="#292D32" d="M20.97,8 L20.5,8 L20.5,12.61 L20.37,12.5 C19.59,11.83 18.33,11.83 17.55,12.5 L13.39,16.07 C12.61,16.74 11.35,16.74 10.57,16.07 L10.23,15.79 C9.52,15.17 8.39,15.11 7.59,15.65 L3.85,18.16 C3.63,17.6 3.5,16.95 3.5,16.19 L3.5,7.81 C3.5,4.99 4.99,3.5 7.81,3.5 L16,3.5 L16,3.03 C16,2.63 16.07,2.29 16.23,2 L7.81,2 C4.17,2 2,4.17 2,7.81 L2,16.19 C2,17.28 2.19,18.23 2.56,19.03 C3.42,20.93 5.26,22 7.81,22 L16.19,22 C19.83,22 22,19.83 22,16.19 L22,7.77 C21.71,7.93 21.37,8 20.97,8 Z"/>
</svg>

