<svg xmlns="http://www.w3.org/2000/svg" width="24" height="24" viewBox="0 0 24 24">
  <defs/>
  <path fill="#292D32" opacity="0.4" d="M22,7.81 L22,13.9 L20.37,12.5 C19.59,11.83 18.33,11.83 17.55,12.5 L13.39,16.07 C12.61,16.74 11.35,16.74 10.57,16.07 L10.23,15.79 C9.52,15.17 8.39,15.11 7.59,15.65 L2.67,18.95 L2.56,19.03 C2.19,18.23 2,17.28 2,16.19 L2,7.81 C2,4.17 4.17,2 7.81,2 L16.19,2 C19.83,2 22,4.17 22,7.81 Z"/>
  <path fill="#292D32" d="M8.999,10.38 C10.314,10.38 11.379,9.315 11.379,8 C11.379,6.686 10.314,5.62 8.999,5.62 C7.685,5.62 6.619,6.686 6.619,8 C6.619,9.315 7.685,10.38 8.999,10.38 Z"/>
  <path fill="#292D32" d="M22,13.9 L22,16.19 C22,19.83 19.831,22 16.191,22 L7.811,22 C5.261,22 3.421,20.93 2.561,19.03 L2.671,18.95 L7.591,15.65 C8.391,15.11 9.521,15.17 10.23,15.79 L10.57,16.07 C11.351,16.74 12.611,16.74 13.39,16.07 L17.55,12.5 C18.331,11.83 19.59,11.83 20.37,12.5 L22,13.9 Z"/>
</svg>

