<svg xmlns="http://www.w3.org/2000/svg" width="24" height="24" viewBox="0 0 24 24">
  <defs/>
  <path fill="#292D32" d="M9,6.75 Q8.486,6.75 8.118,7.118 Q7.75,7.486 7.75,8 Q7.75,8.514 8.118,8.882 Q8.486,9.25 9,9.25 Q10.25,9.25 10.25,8 Q10.25,7.689 10.47,7.47 Q10.689,7.25 11,7.25 Q11.311,7.25 11.53,7.47 Q11.75,7.689 11.75,8 Q11.75,10.75 9,10.75 Q7.864,10.75 7.057,9.943 Q6.25,9.136 6.25,8 Q6.25,6.864 7.057,6.057 Q7.864,5.25 9,5.25 Q9.311,5.25 9.53,5.47 Q9.75,5.689 9.75,6 Q9.75,6.311 9.53,6.53 Q9.311,6.75 9,6.75 Z"/>
  <path fill="#292D32" d="M2.75,12.98 L2.75,15 Q2.75,18.439 4.155,19.845 Q5.561,21.25 9,21.25 L15,21.25 Q18.439,21.25 19.845,19.845 Q21.25,18.439 21.25,15 L21.25,10 Q21.25,9.689 21.47,9.47 Q21.689,9.25 22,9.25 Q22.311,9.25 22.53,9.47 Q22.75,9.689 22.75,10 L22.75,15 Q22.75,22.75 15,22.75 L9,22.75 Q1.25,22.75 1.25,15 L1.25,12.98 Q1.25,12.669 1.47,12.45 Q1.689,12.23 2,12.23 Q2.311,12.23 2.53,12.45 Q2.75,12.669 2.75,12.98 Z"/>
  <path fill="#292D32" d="M13,2.75 L9,2.75 Q2.75,2.75 2.75,9 Q2.75,9.311 2.53,9.53 Q2.311,9.75 2,9.75 Q1.689,9.75 1.47,9.53 Q1.25,9.311 1.25,9 Q1.25,1.25 9,1.25 L13,1.25 Q13.311,1.25 13.53,1.47 Q13.75,1.689 13.75,2 Q13.75,2.311 13.53,2.53 Q13.311,2.75 13,2.75 Z"/>
  <path fill="#292D32" d="M17.25,8 L17.25,2 Q17.25,1.689 17.47,1.47 Q17.689,1.25 18,1.25 Q18.311,1.25 18.53,1.47 L20.53,3.47 Q20.75,3.689 20.75,4 Q20.75,4.311 20.53,4.53 Q20.311,4.75 20,4.75 Q19.689,4.75 19.47,4.53 L18.75,3.811 L18.75,8 Q18.75,8.311 18.53,8.53 Q18.311,8.75 18,8.75 Q17.689,8.75 17.47,8.53 Q17.25,8.311 17.25,8 Z"/>
  <path fill="#292D32" d="M18.53,2.53 L16.53,4.53 Q16.311,4.75 16,4.75 Q15.689,4.75 15.47,4.53 Q15.25,4.311 15.25,4 Q15.25,3.689 15.47,3.47 L17.47,1.47 Q17.689,1.25 18,1.25 Q18.311,1.25 18.53,1.47 Q18.75,1.689 18.75,2 Q18.75,2.311 18.53,2.53 Z"/>
  <path fill="#292D32" d="M2.252,18.327 L7.182,15.017 Q9.047,13.766 10.729,15.211 L11.065,15.507 Q11.98,16.293 12.901,15.501 L17.061,11.931 Q18.96,10.3 20.859,11.931 L22.489,13.331 Q22.724,13.534 22.748,13.843 Q22.771,14.153 22.569,14.389 Q22.366,14.624 22.057,14.648 Q21.747,14.671 21.511,14.469 L19.881,13.069 Q18.96,12.278 18.038,13.069 L13.879,16.639 Q11.98,18.27 10.075,16.633 L9.751,16.349 Q8.935,15.648 8.018,16.263 L3.088,19.573 Q2.83,19.746 2.525,19.686 Q2.22,19.626 2.047,19.368 Q1.874,19.11 1.934,18.805 Q1.994,18.501 2.252,18.327 Z"/>
</svg>

