<svg xmlns="http://www.w3.org/2000/svg" width="24" height="24" viewBox="0 0 24 24">
  <defs/>
  <path fill="#292D32" d="M9,6.75 Q8.486,6.75 8.118,7.118 Q7.75,7.486 7.75,8 Q7.75,8.514 8.118,8.882 Q8.486,9.25 9,9.25 Q10.25,9.25 10.25,8 Q10.25,7.689 10.47,7.47 Q10.689,7.25 11,7.25 Q11.311,7.25 11.53,7.47 Q11.75,7.689 11.75,8 Q11.75,10.75 9,10.75 Q7.864,10.75 7.057,9.943 Q6.25,9.136 6.25,8 Q6.25,6.864 7.057,6.057 Q7.864,5.25 9,5.25 Q9.311,5.25 9.53,5.47 Q9.75,5.689 9.75,6 Q9.75,6.311 9.53,6.53 Q9.311,6.75 9,6.75 Z"/>
  <path fill="#292D32" d="M2.75,12.89 L2.75,15 Q2.75,18.439 4.155,19.845 Q5.561,21.25 9,21.25 L15,21.25 Q18.439,21.25 19.845,19.845 Q21.25,18.439 21.25,15 L21.25,10 Q21.25,9.689 21.47,9.47 Q21.689,9.25 22,9.25 Q22.311,9.25 22.53,9.47 Q22.75,9.689 22.75,10 L22.75,15 Q22.75,22.75 15,22.75 L9,22.75 Q1.25,22.75 1.25,15 L1.25,12.89 Q1.25,12.579 1.47,12.36 Q1.689,12.14 2,12.14 Q2.311,12.14 2.53,12.36 Q2.75,12.579 2.75,12.89 Z"/>
  <path fill="#292D32" d="M13,2.75 L9,2.75 Q2.75,2.75 2.75,9 Q2.75,9.311 2.53,9.53 Q2.311,9.75 2,9.75 Q1.689,9.75 1.47,9.53 Q1.25,9.311 1.25,9 Q1.25,1.25 9,1.25 L13,1.25 Q13.311,1.25 13.53,1.47 Q13.75,1.689 13.75,2 Q13.75,2.311 13.53,2.53 Q13.311,2.75 13,2.75 Z"/>
  <path fill="#292D32" d="M2.252,18.327 L7.182,15.017 Q9.047,13.766 10.729,15.211 L11.065,15.507 Q11.98,16.293 12.901,15.501 L17.061,11.931 Q18.96,10.3 20.859,11.931 L22.489,13.331 Q22.724,13.534 22.748,13.843 Q22.771,14.153 22.569,14.389 Q22.366,14.624 22.057,14.648 Q21.747,14.671 21.511,14.469 L19.881,13.069 Q18.96,12.278 18.038,13.069 L13.879,16.639 Q11.98,18.27 10.075,16.633 L9.751,16.349 Q8.935,15.648 8.018,16.263 L3.088,19.573 Q2.83,19.746 2.525,19.686 Q2.22,19.626 2.047,19.368 Q1.874,19.11 1.934,18.805 Q1.994,18.501 2.252,18.327 Z"/>
  <path fill="#292D32" d="M16.03,5.409 L19.91,1.529 Q20.13,1.31 20.44,1.31 Q20.751,1.31 20.971,1.529 Q21.19,1.749 21.19,2.06 Q21.19,2.37 20.971,2.59 L17.091,6.47 Q16.871,6.69 16.56,6.69 Q16.25,6.69 16.03,6.47 Q15.81,6.25 15.81,5.94 Q15.81,5.629 16.03,5.409 Z"/>
  <path fill="#292D32" d="M19.91,6.47 L16.03,2.59 Q15.81,2.37 15.81,2.06 Q15.81,1.749 16.03,1.529 Q16.25,1.31 16.56,1.31 Q16.871,1.31 17.091,1.529 L20.971,5.409 Q21.19,5.629 21.19,5.94 Q21.19,6.25 20.971,6.47 Q20.751,6.69 20.44,6.69 Q20.13,6.69 19.91,6.47 Z"/>
</svg>

