<svg xmlns="http://www.w3.org/2000/svg" width="24" height="24" viewBox="0 0 24 24">
  <defs/>
  <path fill="#292D32" d="M9,10.75 C7.48,10.75 6.25,9.52 6.25,8 C6.25,6.48 7.48,5.25 9,5.25 C10.52,5.25 11.75,6.48 11.75,8 C11.75,9.52 10.52,10.75 9,10.75 Z M9,6.75 C8.31,6.75 7.75,7.31 7.75,8 C7.75,8.69 8.31,9.25 9,9.25 C9.69,9.25 10.25,8.69 10.25,8 C10.25,7.31 9.69,6.75 9,6.75 Z"/>
  <path fill="#292D32" d="M15,22.75 L9,22.75 C3.57,22.75 1.25,20.43 1.25,15 L1.25,9 C1.25,3.57 3.57,1.25 9,1.25 L13,1.25 C13.41,1.25 13.75,1.59 13.75,2 C13.75,2.41 13.41,2.75 13,2.75 L9,2.75 C4.39,2.75 2.75,4.39 2.75,9 L2.75,15 C2.75,19.61 4.39,21.25 9,21.25 L15,21.25 C19.61,21.25 21.25,19.61 21.25,15 L21.25,10 C21.25,9.59 21.59,9.25 22,9.25 C22.41,9.25 22.75,9.59 22.75,10 L22.75,15 C22.75,20.43 20.43,22.75 15,22.75 Z"/>
  <path fill="#292D32" d="M16.56,7.69 C16.37,7.69 16.18,7.62 16.03,7.47 C15.74,7.18 15.74,6.7 16.03,6.41 L19.92,2.52 C20.21,2.23 20.69,2.23 20.98,2.52 C21.27,2.81 21.27,3.29 20.98,3.58 L17.09,7.47 C16.94,7.62 16.75,7.69 16.56,7.69 Z"/>
  <path fill="#292D32" d="M20.44,7.69 C20.25,7.69 20.06,7.62 19.91,7.47 L16.02,3.58 C15.73,3.29 15.73,2.81 16.02,2.52 C16.31,2.23 16.79,2.23 17.08,2.52 L20.97,6.41 C21.26,6.7 21.26,7.18 20.97,7.47 C20.83,7.62 20.64,7.69 20.44,7.69 Z"/>
  <path fill="#292D32" d="M2.669,19.7 C2.429,19.7 2.189,19.58 2.049,19.37 C1.819,19.03 1.909,18.56 2.249,18.33 L7.179,15.02 C8.259,14.3 9.749,14.38 10.729,15.21 L11.059,15.5 C11.559,15.93 12.409,15.93 12.899,15.5 L17.059,11.93 C18.119,11.02 19.789,11.02 20.859,11.93 L22.489,13.33 C22.799,13.6 22.839,14.07 22.569,14.39 C22.299,14.7 21.829,14.74 21.509,14.47 L19.879,13.07 C19.379,12.64 18.529,12.64 18.039,13.07 L13.879,16.64 C12.819,17.55 11.149,17.55 10.079,16.64 L9.749,16.35 C9.289,15.96 8.529,15.92 8.019,16.27 L3.099,19.58 C2.959,19.66 2.809,19.7 2.669,19.7 Z"/>
</svg>

