<svg xmlns="http://www.w3.org/2000/svg" width="24" height="24" viewBox="0 0 24 24">
  <defs/>
  <path fill="#292D32" d="M22,13.9 L22,16.19 C22,19.83 19.831,22 16.191,22 L7.811,22 C5.261,22 3.421,20.93 2.561,19.03 L2.671,18.95 L7.591,15.65 C8.391,15.11 9.521,15.17 10.23,15.79 L10.57,16.07 C11.351,16.74 12.611,16.74 13.39,16.07 L17.55,12.5 C18.331,11.83 19.59,11.83 20.37,12.5 L22,13.9 Z"/>
  <path fill="#292D32" opacity="0.4" d="M20.97,8 L18.03,8 C16.76,8 16,7.24 16,5.97 L16,3.03 C16,2.63 16.08,2.29 16.22,2 C16.21,2 16.2,2 16.19,2 L7.81,2 C4.17,2 2,4.17 2,7.81 L2,16.19 C2,17.28 2.19,18.23 2.56,19.03 L2.67,18.95 L7.59,15.65 C8.39,15.11 9.52,15.17 10.23,15.79 L10.57,16.07 C11.35,16.74 12.61,16.74 13.39,16.07 L17.55,12.5 C18.33,11.83 19.59,11.83 20.37,12.5 L22,13.9 L22,7.81 C22,7.8 22,7.79 22,7.78 C21.71,7.92 21.37,8 20.97,8 Z"/>
  <path fill="#292D32" d="M8.999,10.38 C10.314,10.38 11.379,9.315 11.379,8 C11.379,6.686 10.314,5.62 8.999,5.62 C7.685,5.62 6.619,6.686 6.619,8 C6.619,9.315 7.685,10.38 8.999,10.38 Z"/>
  <path fill="#292D32" d="M20.97,1 L18.03,1 C16.76,1 16,1.76 16,3.03 L16,5.97 C16,7.24 16.76,8 18.03,8 L20.97,8 C22.24,8 23,7.24 23,5.97 L23,3.03 C23,1.76 22.24,1 20.97,1 Z M21.63,3.45 L19.26,6.22 C19.17,6.33 19.03,6.4 18.89,6.4 C18.88,6.4 18.88,6.4 18.87,6.4 C18.73,6.4 18.6,6.35 18.5,6.25 L17.4,5.17 C17.2,4.97 17.2,4.64 17.4,4.44 C17.6,4.24 17.93,4.23 18.13,4.44 L18.83,5.13 L20.83,2.79 C21.02,2.57 21.34,2.55 21.56,2.73 C21.79,2.91 21.81,3.24 21.63,3.45 Z"/>
</svg>

