<svg xmlns="http://www.w3.org/2000/svg" width="24" height="24" viewBox="0 0 24 24">
  <defs/>
  <path fill="#292D32" d="M20.97,8 L18.03,8 C16.76,8 16,7.24 16,5.97 L16,3.03 C16,1.76 16.76,1 18.03,1 L20.97,1 C22.24,1 23,1.76 23,3.03 L23,5.97 C23,7.24 22.24,8 20.97,8 Z M21.19,4.69 C21.07,4.57 20.91,4.51 20.75,4.51 C20.59,4.51 20.43,4.57 20.31,4.69 L20.13,4.87 L20.13,2.63 C20.13,2.28 19.85,2 19.5,2 C19.15,2 18.87,2.28 18.87,2.63 L18.87,4.87 L18.69,4.69 C18.45,4.45 18.05,4.45 17.81,4.69 C17.57,4.93 17.57,5.33 17.81,5.57 L19.06,6.82 C19.11,6.87 19.18,6.91 19.25,6.94 C19.27,6.95 19.29,6.95 19.31,6.96 C19.36,6.98 19.41,6.99 19.47,6.99 C19.49,6.99 19.51,6.99 19.53,6.99 C19.6,6.99 19.66,6.98 19.73,6.95 C19.74,6.95 19.74,6.95 19.75,6.95 C19.82,6.92 19.88,6.88 19.93,6.83 C19.94,6.82 19.94,6.82 19.95,6.82 L21.2,5.57 C21.44,5.33 21.44,4.93 21.19,4.69 Z"/>
  <path fill="#292D32" d="M9.001,10.381 C10.316,10.381 11.381,9.316 11.381,8.001 C11.381,6.687 10.316,5.621 9.001,5.621 C7.687,5.621 6.621,6.687 6.621,8.001 C6.621,9.316 7.687,10.381 9.001,10.381 Z"/>
  <path fill="#292D32" d="M20.97,8 L20.5,8 L20.5,12.61 L20.37,12.5 C19.59,11.83 18.33,11.83 17.55,12.5 L13.39,16.07 C12.61,16.74 11.35,16.74 10.57,16.07 L10.23,15.79 C9.52,15.17 8.39,15.11 7.59,15.65 L3.85,18.16 C3.63,17.6 3.5,16.95 3.5,16.19 L3.5,7.81 C3.5,4.99 4.99,3.5 7.81,3.5 L16,3.5 L16,3.03 C16,2.63 16.07,2.29 16.23,2 L7.81,2 C4.17,2 2,4.17 2,7.81 L2,16.19 C2,17.28 2.19,18.23 2.56,19.03 C3.42,20.93 5.26,22 7.81,22 L16.19,22 C19.83,22 22,19.83 22,16.19 L22,7.77 C21.71,7.93 21.37,8 20.97,8 Z"/>
</svg>

