<svg xmlns="http://www.w3.org/2000/svg" width="24" height="24" viewBox="0 0 24 24">
  <defs/>
  <path fill="#292D32" opacity="0.4" d="M20.46,3.54 L3.54,20.46 C2.54,19.46 2,18.01 2,16.19 L2,7.81 C2,4.17 4.17,2 7.81,2 L16.19,2 C18.01,2 19.46,2.54 20.46,3.54 Z"/>
  <path fill="#292D32" opacity="0.4" d="M21.999,7.81 L21.999,13.9 L20.369,12.5 C19.589,11.83 18.329,11.83 17.549,12.5 L13.389,16.07 C12.679,16.68 11.559,16.74 10.779,16.22 L21.609,5.39 C21.749,5.77 21.849,6.17 21.909,6.6 C21.969,6.98 21.999,7.39 21.999,7.81 Z"/>
  <path fill="#292D32" d="M22.001,13.9 L22.001,16.19 C22.001,19.83 19.831,22 16.191,22 L7.811,22 C7.391,22 6.981,21.97 6.601,21.91 C6.171,21.85 5.771,21.75 5.391,21.61 L10.781,16.22 C11.561,16.74 12.681,16.68 13.391,16.07 L17.551,12.5 C18.331,11.83 19.591,11.83 20.371,12.5 L22.001,13.9 Z"/>
  <path fill="#292D32" d="M21.771,2.23 C21.471,1.93 20.981,1.93 20.681,2.23 L2.231,20.69 C1.931,20.99 1.931,21.48 2.231,21.78 C2.381,21.92 2.571,22 2.771,22 C2.971,22 3.161,21.92 3.311,21.77 L21.771,3.31 C22.081,3.01 22.081,2.53 21.771,2.23 Z"/>
  <path fill="#292D32" d="M7.999,10.38 C9.314,10.38 10.379,9.315 10.379,8 C10.379,6.686 9.314,5.62 7.999,5.62 C6.685,5.62 5.619,6.686 5.619,8 C5.619,9.315 6.685,10.38 7.999,10.38 Z"/>
</svg>

