<svg xmlns="http://www.w3.org/2000/svg" width="24" height="24" viewBox="0 0 24 24">
  <defs/>
  <path fill="#292D32" d="M9.001,10.381 C10.316,10.381 11.381,9.316 11.381,8.001 C11.381,6.687 10.316,5.621 9.001,5.621 C7.687,5.621 6.621,6.687 6.621,8.001 C6.621,9.316 7.687,10.381 9.001,10.381 Z"/>
  <path fill="#292D32" d="M20.97,8 L20.5,8 L20.5,12.61 L20.37,12.5 C19.59,11.83 18.33,11.83 17.55,12.5 L13.39,16.07 C12.61,16.74 11.35,16.74 10.57,16.07 L10.23,15.79 C9.52,15.17 8.39,15.11 7.59,15.65 L3.85,18.16 C3.63,17.6 3.5,16.95 3.5,16.19 L3.5,7.81 C3.5,4.99 4.99,3.5 7.81,3.5 L16,3.5 L16,3.03 C16,2.63 16.07,2.29 16.23,2 L7.81,2 C4.17,2 2,4.17 2,7.81 L2,16.19 C2,17.28 2.19,18.23 2.56,19.03 C3.42,20.93 5.26,22 7.81,22 L16.19,22 C19.83,22 22,19.83 22,16.19 L22,7.77 C21.71,7.93 21.37,8 20.97,8 Z"/>
  <path fill="#292D32" d="M20.97,1 L18.03,1 C17.16,1 16.52,1.36 16.23,2 C16.07,2.29 16,2.63 16,3.03 L16,3.5 L16,5.97 C16,7.24 16.76,8 18.03,8 L20.5,8 L20.97,8 C21.37,8 21.71,7.93 22,7.77 C22.64,7.48 23,6.84 23,5.97 L23,3.03 C23,1.76 22.24,1 20.97,1 Z M20.3,6.21 C19.98,6.4 19.67,6.5 19.5,6.5 C19.05,6.5 17.77,5.88 17.39,4.68 C17.33,4.5 17.3,4.3 17.3,4.11 C17.3,3.94 17.32,3.77 17.37,3.61 C17.5,3.14 17.81,2.73 18.33,2.56 C18.53,2.5 18.74,2.48 18.93,2.52 C19.13,2.55 19.32,2.63 19.49,2.76 C19.81,2.51 20.25,2.43 20.67,2.56 C21.58,2.86 21.87,3.89 21.61,4.68 C21.57,4.8 21.52,4.92 21.46,5.03 C21.19,5.57 20.73,5.97 20.3,6.21 Z"/>
</svg>

