<svg xmlns="http://www.w3.org/2000/svg" width="24" height="24" viewBox="0 0 24 24">
  <defs/>
  <path fill="#292D32" opacity="0.4" d="M9,10.75 Q7.861,10.75 7.055,9.945 Q6.25,9.139 6.25,8 Q6.25,6.861 7.055,6.055 Q7.861,5.25 9,5.25 Q10.139,5.25 10.945,6.055 Q11.75,6.861 11.75,8 Q11.75,10.75 9,10.75 Z M9,9.25 Q10.25,9.25 10.25,8 Q10.25,7.482 9.884,7.116 Q9.518,6.75 9,6.75 Q8.482,6.75 8.116,7.116 Q7.75,7.482 7.75,8 Q7.75,8.518 8.116,8.884 Q8.482,9.25 9,9.25 Z"/>
  <path fill="#292D32" d="M12,2.75 L9,2.75 Q2.75,2.75 2.75,9 L2.75,15 Q2.75,18.439 4.155,19.845 Q5.561,21.25 9,21.25 L15,21.25 Q18.439,21.25 19.845,19.845 Q21.25,18.439 21.25,15 L21.25,11 Q21.25,10.689 21.47,10.47 Q21.689,10.25 22,10.25 Q22.311,10.25 22.53,10.47 Q22.75,10.689 22.75,11 L22.75,15 Q22.75,22.75 15,22.75 L9,22.75 Q1.25,22.75 1.25,15 L1.25,9 Q1.25,1.25 9,1.25 L12,1.25 Q12.311,1.25 12.53,1.47 Q12.75,1.689 12.75,2 Q12.75,2.311 12.53,2.53 Q12.311,2.75 12,2.75 Z"/>
  <path fill="#292D32" opacity="0.4" d="M15.405,5.337 Q14.515,2.531 17.028,1.716 Q18.131,1.368 18.921,1.892 Q19.71,1.336 20.857,1.718 Q23.376,2.527 22.485,5.337 Q21.526,8.36 18.95,8.36 Q16.37,8.36 15.405,5.338 Z M16.834,4.882 L16.835,4.883 Q17.466,6.86 18.95,6.86 Q20.428,6.86 21.055,4.883 Q21.494,3.498 20.383,3.141 Q19.835,2.959 19.564,3.366 Q19.489,3.478 19.381,3.556 Q19.13,3.739 18.823,3.691 Q18.516,3.642 18.333,3.391 Q18.029,2.973 17.491,3.143 Q16.396,3.498 16.834,4.882 Z"/>
  <path fill="#292D32" opacity="0.4" d="M2.252,18.327 L7.182,15.017 Q9.047,13.766 10.729,15.211 L11.065,15.507 Q11.98,16.293 12.901,15.501 L17.061,11.931 Q18.96,10.3 20.859,11.931 L22.489,13.331 Q22.724,13.534 22.748,13.843 Q22.771,14.153 22.569,14.389 Q22.366,14.624 22.057,14.648 Q21.747,14.671 21.511,14.469 L19.881,13.069 Q18.96,12.278 18.038,13.069 L13.879,16.639 Q11.98,18.27 10.075,16.633 L9.751,16.349 Q8.935,15.648 8.018,16.263 L3.088,19.573 Q2.83,19.746 2.525,19.686 Q2.22,19.626 2.047,19.368 Q1.874,19.11 1.934,18.805 Q1.994,18.501 2.252,18.327 Z"/>
</svg>

