<svg xmlns="http://www.w3.org/2000/svg" width="24" height="24" viewBox="0 0 24 24">
  <defs/>
  <path fill="#292D32" d="M9,10.75 Q7.861,10.75 7.055,9.945 Q6.25,9.139 6.25,8 Q6.25,6.861 7.055,6.055 Q7.861,5.25 9,5.25 Q10.139,5.25 10.945,6.055 Q11.75,6.861 11.75,8 Q11.75,10.75 9,10.75 Z M9,9.25 Q10.25,9.25 10.25,8 Q10.25,7.482 9.884,7.116 Q9.518,6.75 9,6.75 Q8.482,6.75 8.116,7.116 Q7.75,7.482 7.75,8 Q7.75,8.518 8.116,8.884 Q8.482,9.25 9,9.25 Z"/>
  <path fill="#292D32" d="M13,2.75 L9,2.75 Q2.75,2.75 2.75,9 L2.75,15 Q2.75,18.439 4.155,19.845 Q5.561,21.25 9,21.25 L15,21.25 Q18.439,21.25 19.845,19.845 Q21.25,18.439 21.25,15 L21.25,10 Q21.25,9.689 21.47,9.47 Q21.689,9.25 22,9.25 Q22.311,9.25 22.53,9.47 Q22.75,9.689 22.75,10 L22.75,15 Q22.75,22.75 15,22.75 L9,22.75 Q1.25,22.75 1.25,15 L1.25,9 Q1.25,1.25 9,1.25 L13,1.25 Q13.311,1.25 13.53,1.47 Q13.75,1.689 13.75,2 Q13.75,2.311 13.53,2.53 Q13.311,2.75 13,2.75 Z"/>
  <path fill="#292D32" d="M18.61,2.06 Q19.336,1.333 20.095,1.26 Q21.057,1.167 21.95,2.07 Q23.616,3.735 21.95,5.4 L18.32,9.03 Q17.906,9.445 17.287,9.542 L15.894,9.743 Q15.149,9.847 14.656,9.354 Q14.163,8.861 14.268,8.113 L14.466,6.737 Q14.532,6.138 14.98,5.69 Z M19.67,3.12 L16.04,6.75 Q15.964,6.826 15.956,6.905 Q15.955,6.921 15.952,6.937 L15.764,8.246 L17.073,8.058 Q17.19,8.039 17.26,7.97 L20.89,4.34 Q21.494,3.735 20.89,3.13 Q20.492,2.728 20.24,2.753 Q20.016,2.774 19.67,3.12 Z"/>
  <path fill="#292D32" d="M19.342,2.907 Q19.727,4.273 21.094,4.658 Q21.393,4.742 21.544,5.014 Q21.696,5.285 21.612,5.584 Q21.528,5.883 21.257,6.034 Q20.986,6.186 20.687,6.102 Q18.511,5.489 17.898,3.314 Q17.814,3.015 17.966,2.744 Q18.118,2.472 18.417,2.388 Q18.716,2.304 18.987,2.456 Q19.258,2.608 19.342,2.907 Z"/>
  <path fill="#292D32" d="M2.252,18.327 L7.182,15.017 Q9.047,13.766 10.729,15.211 L11.065,15.507 Q11.98,16.293 12.901,15.501 L17.061,11.931 Q18.96,10.3 20.859,11.931 L22.489,13.331 Q22.724,13.534 22.748,13.843 Q22.771,14.153 22.569,14.389 Q22.366,14.624 22.057,14.648 Q21.747,14.671 21.511,14.469 L19.881,13.069 Q18.96,12.278 18.038,13.069 L13.879,16.639 Q11.98,18.27 10.075,16.633 L9.751,16.349 Q8.935,15.648 8.018,16.263 L3.088,19.573 Q2.83,19.746 2.525,19.686 Q2.22,19.626 2.047,19.368 Q1.874,19.11 1.934,18.805 Q1.994,18.501 2.252,18.327 Z"/>
</svg>

