<svg xmlns="http://www.w3.org/2000/svg" width="24" height="24" viewBox="0 0 24 24">
  <defs/>
  <path fill="#292D32" d="M9,22.75 Q1.25,22.75 1.25,15 L1.25,9 Q1.25,1.25 9,1.25 L15,1.25 Q22.75,1.25 22.75,9 L22.75,15 Q22.75,22.75 15,22.75 Z M9,21.25 L15,21.25 Q18.439,21.25 19.845,19.845 Q21.25,18.439 21.25,15 L21.25,9 Q21.25,2.75 15,2.75 L9,2.75 Q2.75,2.75 2.75,9 L2.75,15 Q2.75,18.439 4.155,19.845 Q5.561,21.25 9,21.25 Z"/>
  <path fill="#292D32" d="M9,10.75 Q7.861,10.75 7.055,9.945 Q6.25,9.139 6.25,8 Q6.25,6.861 7.055,6.055 Q7.861,5.25 9,5.25 Q10.139,5.25 10.945,6.055 Q11.75,6.861 11.75,8 Q11.75,10.75 9,10.75 Z M9,9.25 Q10.25,9.25 10.25,8 Q10.25,7.482 9.884,7.116 Q9.518,6.75 9,6.75 Q8.482,6.75 8.116,7.116 Q7.75,7.482 7.75,8 Q7.75,8.518 8.116,8.884 Q8.482,9.25 9,9.25 Z"/>
  <path fill="#292D32" d="M2.252,18.327 L7.182,15.017 Q9.047,13.766 10.729,15.211 L11.065,15.507 Q11.98,16.293 12.901,15.501 L17.062,11.931 Q18.96,10.3 20.859,11.931 L22.489,13.331 Q22.724,13.534 22.748,13.843 Q22.771,14.153 22.569,14.389 Q22.367,14.624 22.057,14.648 Q21.747,14.671 21.511,14.469 L19.881,13.069 Q18.96,12.278 18.038,13.069 L13.879,16.639 Q11.98,18.27 10.075,16.633 L9.751,16.349 Q8.935,15.648 8.018,16.263 L3.088,19.573 Q2.83,19.746 2.525,19.686 Q2.221,19.626 2.047,19.368 Q1.874,19.11 1.934,18.805 Q1.994,18.501 2.252,18.327 Z"/>
</svg>

