<svg xmlns="http://www.w3.org/2000/svg" width="24" height="24" viewBox="0 0 24 24">
  <defs/>
  <path fill="#292D32" d="M1.25,9 Q1.25,1.25 9,1.25 L15,1.25 Q18.552,1.25 20.373,2.633 Q20.621,2.82 20.663,3.128 Q20.705,3.436 20.517,3.683 Q20.33,3.931 20.022,3.973 Q19.714,4.015 19.467,3.827 Q18.047,2.75 15,2.75 L9,2.75 Q2.75,2.75 2.75,9 Q2.75,9.311 2.53,9.53 Q2.311,9.75 2,9.75 Q1.689,9.75 1.47,9.53 Q1.25,9.311 1.25,9 Z"/>
  <path fill="#292D32" d="M2.793,20.58 Q1.25,18.724 1.25,15 L1.25,12.97 Q1.25,12.659 1.47,12.44 Q1.689,12.22 2,12.22 Q2.311,12.22 2.53,12.44 Q2.75,12.659 2.75,12.97 L2.75,15 Q2.75,18.182 3.947,19.62 Q4.145,19.859 4.117,20.169 Q4.088,20.478 3.85,20.677 Q3.611,20.875 3.301,20.847 Q2.992,20.818 2.793,20.58 Z"/>
  <path fill="#292D32" d="M22.719,7.943 Q22.751,8.447 22.751,9 L22.751,15 Q22.751,22.75 15.001,22.75 L9.001,22.75 Q7.769,22.75 6.842,22.6 Q6.535,22.551 6.353,22.299 Q6.171,22.047 6.221,21.741 Q6.27,21.434 6.522,21.252 Q6.774,21.07 7.08,21.12 Q7.889,21.25 9.001,21.25 L15.001,21.25 Q18.44,21.25 19.846,19.845 Q21.251,18.439 21.251,15 L21.251,9 Q21.251,8.493 21.222,8.037 Q21.203,7.727 21.409,7.494 Q21.614,7.261 21.924,7.241 Q22.234,7.222 22.467,7.428 Q22.7,7.633 22.719,7.943 Z"/>
  <path fill="#292D32" d="M8,6.75 Q7.486,6.75 7.118,7.118 Q6.75,7.486 6.75,8 Q6.75,9.25 8,9.25 Q9.25,9.25 9.25,8 Q9.25,7.689 9.47,7.47 Q9.689,7.25 10,7.25 Q10.311,7.25 10.53,7.47 Q10.75,7.689 10.75,8 Q10.75,9.136 9.943,9.943 Q9.136,10.75 8,10.75 Q6.864,10.75 6.057,9.943 Q5.25,9.136 5.25,8 Q5.25,6.864 6.057,6.057 Q6.864,5.25 8,5.25 Q8.311,5.25 8.53,5.47 Q8.75,5.689 8.75,6 Q8.75,6.311 8.53,6.53 Q8.311,6.75 8,6.75 Z"/>
  <path fill="#292D32" d="M22.53,2.53 L2.53,22.53 Q2.311,22.75 2,22.75 Q1.689,22.75 1.47,22.53 Q1.25,22.311 1.25,22 Q1.25,21.689 1.47,21.47 L21.47,1.47 Q21.689,1.25 22,1.25 Q22.311,1.25 22.53,1.47 Q22.75,1.689 22.75,2 Q22.75,2.311 22.53,2.53 Z"/>
  <path fill="#292D32" d="M11.96,15.92 Q11.975,15.934 11.989,15.92 L17.019,10.88 Q17.824,10.075 18.96,10.075 Q20.095,10.075 20.9,10.88 L22.532,12.521 Q22.751,12.742 22.75,13.052 Q22.749,13.363 22.528,13.582 Q22.308,13.801 21.997,13.8 Q21.687,13.799 21.468,13.579 L19.839,11.94 Q18.96,11.061 18.081,11.94 L13.05,16.98 Q11.975,18.056 10.899,16.98 Q10.68,16.761 10.68,16.45 Q10.68,16.139 10.899,15.92 Q11.119,15.7 11.43,15.7 Q11.74,15.7 11.96,15.92 Z"/>
</svg>

