<svg xmlns="http://www.w3.org/2000/svg" width="24" height="24" viewBox="0 0 24 24">
  <defs/>
  <path fill="#292D32" d="M3.38,20.85 C3.17,20.85 2.95,20.76 2.81,20.58 C1.74,19.33 1.25,17.55 1.25,15 L1.25,9 C1.25,3.57 3.57,1.25 9,1.25 L15,1.25 C17.39,1.25 19.14,1.7 20.38,2.63 C20.71,2.88 20.78,3.35 20.53,3.68 C20.28,4.01 19.81,4.08 19.48,3.83 C18.51,3.1 17.05,2.75 15,2.75 L9,2.75 C4.39,2.75 2.75,4.39 2.75,9 L2.75,15 C2.75,17.15 3.14,18.66 3.95,19.62 C4.22,19.94 4.18,20.41 3.86,20.68 C3.72,20.79 3.55,20.85 3.38,20.85 Z"/>
  <path fill="#292D32" d="M14.999,22.75 L8.999,22.75 C8.209,22.75 7.499,22.7 6.849,22.61 C6.439,22.55 6.159,22.17 6.219,21.76 C6.279,21.35 6.669,21.07 7.069,21.13 C7.639,21.21 8.289,21.26 8.999,21.26 L14.999,21.26 C19.609,21.26 21.249,19.62 21.249,15.01 L21.249,9 C21.249,8.67 21.239,8.34 21.219,8.04 C21.189,7.63 21.509,7.27 21.919,7.24 C22.349,7.22 22.689,7.53 22.719,7.94 C22.739,8.28 22.749,8.63 22.749,9 L22.749,15 C22.749,20.43 20.429,22.75 14.999,22.75 Z"/>
  <path fill="#292D32" d="M8,10.75 C6.48,10.75 5.25,9.52 5.25,8 C5.25,6.48 6.48,5.25 8,5.25 C9.52,5.25 10.75,6.48 10.75,8 C10.75,9.52 9.52,10.75 8,10.75 Z M8,6.75 C7.31,6.75 6.75,7.31 6.75,8 C6.75,8.69 7.31,9.25 8,9.25 C8.69,9.25 9.25,8.69 9.25,8 C9.25,7.31 8.69,6.75 8,6.75 Z"/>
  <path fill="#292D32" d="M1.999,22.75 C1.809,22.75 1.619,22.68 1.469,22.53 C1.179,22.24 1.179,21.76 1.469,21.47 L21.47,1.47 C21.759,1.18 22.239,1.18 22.529,1.47 C22.82,1.76 22.82,2.24 22.529,2.53 L2.529,22.53 C2.379,22.68 2.189,22.75 1.999,22.75 Z"/>
  <path fill="#292D32" d="M11.981,17.43 C11.591,17.43 11.201,17.28 10.911,16.99 C10.621,16.7 10.621,16.22 10.911,15.93 C11.201,15.64 11.681,15.64 11.971,15.93 C11.981,15.94 11.991,15.94 12.001,15.93 L17.031,10.89 C18.071,9.85 19.881,9.85 20.911,10.89 L22.541,12.52 C22.831,12.81 22.831,13.29 22.541,13.58 C22.251,13.87 21.771,13.87 21.481,13.58 L19.851,11.95 C19.381,11.48 18.561,11.48 18.091,11.95 L13.061,16.99 C12.761,17.28 12.371,17.43 11.981,17.43 Z"/>
</svg>

