<svg xmlns="http://www.w3.org/2000/svg" width="24" height="24" viewBox="0 0 24 24">
  <defs/>
  <path fill="#292D32" d="M20.97,1 L18.03,1 C16.76,1 16,1.76 16,3.03 L16,5.97 C16,7.24 16.76,8 18.03,8 L20.97,8 C22.24,8 23,7.24 23,5.97 L23,3.03 C23,1.76 22.24,1 20.97,1 Z M21.63,3.45 L19.26,6.22 C19.17,6.33 19.03,6.4 18.89,6.4 C18.88,6.4 18.88,6.4 18.87,6.4 C18.73,6.4 18.6,6.35 18.5,6.25 L17.4,5.17 C17.2,4.97 17.2,4.64 17.4,4.44 C17.6,4.24 17.93,4.23 18.13,4.44 L18.83,5.13 L20.83,2.79 C21.02,2.57 21.34,2.55 21.56,2.73 C21.79,2.91 21.81,3.24 21.63,3.45 Z"/>
  <path fill="#292D32" d="M9.001,10.381 C10.316,10.381 11.381,9.316 11.381,8.001 C11.381,6.687 10.316,5.621 9.001,5.621 C7.687,5.621 6.621,6.687 6.621,8.001 C6.621,9.316 7.687,10.381 9.001,10.381 Z"/>
  <path fill="#292D32" d="M20.97,8 L20.5,8 L20.5,12.61 L20.37,12.5 C19.59,11.83 18.33,11.83 17.55,12.5 L13.39,16.07 C12.61,16.74 11.35,16.74 10.57,16.07 L10.23,15.79 C9.52,15.17 8.39,15.11 7.59,15.65 L3.85,18.16 C3.63,17.6 3.5,16.95 3.5,16.19 L3.5,7.81 C3.5,4.99 4.99,3.5 7.81,3.5 L16,3.5 L16,3.03 C16,2.63 16.07,2.29 16.23,2 L7.81,2 C4.17,2 2,4.17 2,7.81 L2,16.19 C2,17.28 2.19,18.23 2.56,19.03 C3.42,20.93 5.26,22 7.81,22 L16.19,22 C19.83,22 22,19.83 22,16.19 L22,7.77 C21.71,7.93 21.37,8 20.97,8 Z"/>
</svg>

