<svg xmlns="http://www.w3.org/2000/svg" width="24" height="24" viewBox="0 0 24 24">
  <defs/>
  <path fill="#292D32" d="M20.97,1 L18.03,1 C16.76,1 16,1.76 16,3.03 L16,5.97 C16,7.24 16.76,8 18.03,8 L20.97,8 C22.24,8 23,7.24 23,5.97 L23,3.03 C23,1.76 22.24,1 20.97,1 Z M21.47,5.56 C21.72,5.81 21.72,6.22 21.47,6.47 C21.34,6.59 21.18,6.65 21.01,6.65 C20.85,6.65 20.69,6.59 20.56,6.47 L19.5,5.41 L18.45,6.47 C18.32,6.59 18.16,6.65 17.99,6.65 C17.83,6.65 17.67,6.59 17.54,6.47 C17.29,6.22 17.29,5.81 17.54,5.56 L18.6,4.5 L17.54,3.45 C17.29,3.2 17.29,2.79 17.54,2.54 C17.79,2.29 18.2,2.29 18.45,2.54 L19.5,3.6 L20.56,2.54 C20.81,2.29 21.22,2.29 21.47,2.54 C21.72,2.79 21.72,3.2 21.47,3.45 L20.41,4.5 L21.47,5.56 Z"/>
  <path fill="#292D32" d="M9.001,10.381 C10.316,10.381 11.381,9.316 11.381,8.001 C11.381,6.687 10.316,5.621 9.001,5.621 C7.687,5.621 6.621,6.687 6.621,8.001 C6.621,9.316 7.687,10.381 9.001,10.381 Z"/>
  <path fill="#292D32" d="M20.97,8 L20.5,8 L20.5,12.61 L20.37,12.5 C19.59,11.83 18.33,11.83 17.55,12.5 L13.39,16.07 C12.61,16.74 11.35,16.74 10.57,16.07 L10.23,15.79 C9.52,15.17 8.39,15.11 7.59,15.65 L3.85,18.16 C3.63,17.6 3.5,16.95 3.5,16.19 L3.5,7.81 C3.5,4.99 4.99,3.5 7.81,3.5 L16,3.5 L16,3.03 C16,2.63 16.07,2.29 16.23,2 L7.81,2 C4.17,2 2,4.17 2,7.81 L2,16.19 C2,17.28 2.19,18.23 2.56,19.03 C3.42,20.93 5.26,22 7.81,22 L16.19,22 C19.83,22 22,19.83 22,16.19 L22,7.77 C21.71,7.93 21.37,8 20.97,8 Z"/>
</svg>

