<svg xmlns="http://www.w3.org/2000/svg" width="24" height="24" viewBox="0 0 24 24">
  <defs/>
  <path fill="#292D32" d="M22,13.9 L22,16.19 C22,19.83 19.831,22 16.191,22 L7.811,22 C5.261,22 3.421,20.93 2.561,19.03 L2.671,18.95 L7.591,15.65 C8.391,15.11 9.521,15.17 10.23,15.79 L10.57,16.07 C11.351,16.74 12.611,16.74 13.39,16.07 L17.55,12.5 C18.331,11.83 19.59,11.83 20.37,12.5 L22,13.9 Z"/>
  <path fill="#292D32" opacity="0.4" d="M20.97,8 L18.03,8 C16.76,8 16,7.24 16,5.97 L16,3.03 C16,2.63 16.08,2.29 16.22,2 C16.21,2 16.2,2 16.19,2 L7.81,2 C4.17,2 2,4.17 2,7.81 L2,16.19 C2,17.28 2.19,18.23 2.56,19.03 L2.67,18.95 L7.59,15.65 C8.39,15.11 9.52,15.17 10.23,15.79 L10.57,16.07 C11.35,16.74 12.61,16.74 13.39,16.07 L17.55,12.5 C18.33,11.83 19.59,11.83 20.37,12.5 L22,13.9 L22,7.81 C22,7.8 22,7.79 22,7.78 C21.71,7.92 21.37,8 20.97,8 Z"/>
  <path fill="#292D32" d="M8.999,10.38 C10.314,10.38 11.379,9.315 11.379,8 C11.379,6.686 10.314,5.62 8.999,5.62 C7.685,5.62 6.619,6.686 6.619,8 C6.619,9.315 7.685,10.38 8.999,10.38 Z"/>
  <path fill="#292D32" d="M20.97,1 L18.03,1 C16.76,1 16,1.76 16,3.03 L16,5.97 C16,7.24 16.76,8 18.03,8 L20.97,8 C22.24,8 23,7.24 23,5.97 L23,3.03 C23,1.76 22.24,1 20.97,1 Z M19.01,6.57 C18.98,6.6 18.91,6.64 18.86,6.64 L17.82,6.79 C17.79,6.8 17.75,6.8 17.72,6.8 C17.57,6.8 17.44,6.75 17.35,6.65 C17.23,6.53 17.18,6.36 17.21,6.18 L17.36,5.14 C17.37,5.09 17.4,5.02 17.43,4.99 L19.13,3.29 C19.16,3.36 19.19,3.44 19.22,3.52 C19.26,3.6 19.3,3.67 19.34,3.74 C19.37,3.8 19.41,3.86 19.45,3.9 C19.49,3.96 19.53,4.02 19.56,4.05 C19.58,4.08 19.59,4.09 19.6,4.1 C19.69,4.21 19.79,4.31 19.88,4.38 C19.9,4.4 19.92,4.42 19.93,4.42 C19.98,4.46 20.04,4.51 20.08,4.54 C20.14,4.58 20.19,4.62 20.25,4.65 C20.32,4.69 20.4,4.73 20.48,4.77 C20.56,4.81 20.64,4.84 20.71,4.86 L19.01,6.57 Z M21.4,4.18 L21.08,4.5 C21.06,4.53 21.03,4.54 21,4.54 C20.99,4.54 20.98,4.54 20.97,4.54 C20.25,4.33 19.68,3.76 19.47,3.04 C19.46,3 19.47,2.96 19.5,2.93 L19.83,2.6 C20.37,2.06 20.88,2.07 21.41,2.6 C21.68,2.87 21.81,3.13 21.81,3.39 C21.8,3.65 21.67,3.91 21.4,4.18 Z"/>
</svg>

