<svg xmlns="http://www.w3.org/2000/svg" width="24" height="24" viewBox="0 0 24 24">
  <defs/>
  <path fill="#292D32" d="M9,10.75 C7.48,10.75 6.25,9.52 6.25,8 C6.25,6.48 7.48,5.25 9,5.25 C10.52,5.25 11.75,6.48 11.75,8 C11.75,9.52 10.52,10.75 9,10.75 Z M9,6.75 C8.31,6.75 7.75,7.31 7.75,8 C7.75,8.69 8.31,9.25 9,9.25 C9.69,9.25 10.25,8.69 10.25,8 C10.25,7.31 9.69,6.75 9,6.75 Z"/>
  <path fill="#292D32" d="M15,22.75 L9,22.75 C3.57,22.75 1.25,20.43 1.25,15 L1.25,9 C1.25,3.57 3.57,1.25 9,1.25 L12,1.25 C12.41,1.25 12.75,1.59 12.75,2 C12.75,2.41 12.41,2.75 12,2.75 L9,2.75 C4.39,2.75 2.75,4.39 2.75,9 L2.75,15 C2.75,19.61 4.39,21.25 9,21.25 L15,21.25 C19.61,21.25 21.25,19.61 21.25,15 L21.25,11 C21.25,10.59 21.59,10.25 22,10.25 C22.41,10.25 22.75,10.59 22.75,11 L22.75,15 C22.75,20.43 20.43,22.75 15,22.75 Z"/>
  <path fill="#292D32" d="M18.939,8.36 C18.07,8.36 16.029,7.29 15.399,5.34 C14.97,3.99 15.47,2.22 17.029,1.72 C17.689,1.51 18.38,1.6 18.93,1.94 C19.47,1.6 20.18,1.5 20.849,1.72 C22.41,2.22 22.91,3.99 22.48,5.34 C21.849,7.33 19.709,8.36 18.939,8.36 Z M16.829,4.88 C17.259,6.21 18.7,6.83 18.959,6.86 C19.25,6.83 20.66,6.13 21.049,4.88 C21.259,4.21 21.049,3.36 20.39,3.14 C20.11,3.05 19.739,3.1 19.57,3.36 C19.43,3.57 19.2,3.7 18.959,3.7 C18.73,3.7 18.48,3.59 18.34,3.39 C18.13,3.1 17.759,3.06 17.5,3.14 C16.829,3.36 16.619,4.21 16.829,4.88 Z"/>
  <path fill="#292D32" d="M2.671,19.7 C2.431,19.7 2.191,19.58 2.051,19.37 C1.821,19.03 1.911,18.56 2.261,18.33 L7.191,15.02 C8.271,14.29 9.761,14.38 10.741,15.21 L11.071,15.5 C11.571,15.93 12.421,15.93 12.911,15.5 L17.071,11.93 C18.131,11.02 19.801,11.02 20.871,11.93 L22.501,13.33 C22.811,13.6 22.851,14.07 22.581,14.39 C22.311,14.7 21.841,14.74 21.521,14.47 L19.891,13.07 C19.391,12.64 18.541,12.64 18.041,13.07 L13.881,16.64 C12.821,17.55 11.151,17.55 10.081,16.64 L9.751,16.35 C9.291,15.96 8.531,15.92 8.021,16.27 L3.091,19.58 C2.961,19.66 2.811,19.7 2.671,19.7 Z"/>
</svg>

