<svg xmlns="http://www.w3.org/2000/svg" width="24" height="24" viewBox="0 0 24 24">
  <defs/>
  <path fill="#292D32" d="M9,10.75 C7.48,10.75 6.25,9.52 6.25,8 C6.25,6.48 7.48,5.25 9,5.25 C10.52,5.25 11.75,6.48 11.75,8 C11.75,9.52 10.52,10.75 9,10.75 Z M9,6.75 C8.31,6.75 7.75,7.31 7.75,8 C7.75,8.69 8.31,9.25 9,9.25 C9.69,9.25 10.25,8.69 10.25,8 C10.25,7.31 9.69,6.75 9,6.75 Z"/>
  <path fill="#292D32" d="M15,22.75 L9,22.75 C3.57,22.75 1.25,20.43 1.25,15 L1.25,9 C1.25,3.57 3.57,1.25 9,1.25 L13,1.25 C13.41,1.25 13.75,1.59 13.75,2 C13.75,2.41 13.41,2.75 13,2.75 L9,2.75 C4.39,2.75 2.75,4.39 2.75,9 L2.75,15 C2.75,19.61 4.39,21.25 9,21.25 L15,21.25 C19.61,21.25 21.25,19.61 21.25,15 L21.25,10 C21.25,9.59 21.59,9.25 22,9.25 C22.41,9.25 22.75,9.59 22.75,10 L22.75,15 C22.75,20.43 20.43,22.75 15,22.75 Z"/>
  <path fill="#292D32" d="M18,8.75 C17.9,8.75 17.81,8.73 17.71,8.69 C17.43,8.58 17.25,8.3 17.25,8 L17.25,2 C17.25,1.59 17.59,1.25 18,1.25 C18.41,1.25 18.75,1.59 18.75,2 L18.75,6.19 L19.47,5.47 C19.76,5.18 20.24,5.18 20.53,5.47 C20.82,5.76 20.82,6.24 20.53,6.53 L18.53,8.53 C18.39,8.67 18.2,8.75 18,8.75 Z"/>
  <path fill="#292D32" d="M18,8.75 C17.809,8.75 17.619,8.68 17.47,8.53 L15.47,6.53 C15.18,6.24 15.18,5.76 15.47,5.47 C15.759,5.18 16.239,5.18 16.529,5.47 L18.529,7.47 C18.82,7.76 18.82,8.24 18.529,8.53 C18.38,8.68 18.189,8.75 18,8.75 Z"/>
  <path fill="#292D32" d="M2.671,19.7 C2.431,19.7 2.191,19.58 2.051,19.37 C1.821,19.03 1.911,18.56 2.261,18.33 L7.191,15.02 C8.271,14.29 9.761,14.38 10.741,15.21 L11.071,15.5 C11.571,15.93 12.421,15.93 12.911,15.5 L17.071,11.93 C18.131,11.02 19.801,11.02 20.871,11.93 L22.501,13.33 C22.811,13.6 22.851,14.07 22.581,14.39 C22.311,14.7 21.841,14.74 21.521,14.47 L19.891,13.07 C19.391,12.64 18.541,12.64 18.041,13.07 L13.881,16.64 C12.821,17.55 11.151,17.55 10.081,16.64 L9.751,16.35 C9.291,15.96 8.531,15.92 8.021,16.27 L3.091,19.58 C2.961,19.66 2.811,19.7 2.671,19.7 Z"/>
</svg>

