<svg xmlns="http://www.w3.org/2000/svg" width="24" height="24" viewBox="0 0 24 24">
  <defs/>
  <path fill="#292D32" d="M9,10.75 C7.48,10.75 6.25,9.52 6.25,8 C6.25,6.48 7.48,5.25 9,5.25 C10.52,5.25 11.75,6.48 11.75,8 C11.75,9.52 10.52,10.75 9,10.75 Z M9,6.75 C8.31,6.75 7.75,7.31 7.75,8 C7.75,8.69 8.31,9.25 9,9.25 C9.69,9.25 10.25,8.69 10.25,8 C10.25,7.31 9.69,6.75 9,6.75 Z"/>
  <path fill="#292D32" d="M15,22.75 L9,22.75 C3.57,22.75 1.25,20.43 1.25,15 L1.25,9 C1.25,3.57 3.57,1.25 9,1.25 L13,1.25 C13.41,1.25 13.75,1.59 13.75,2 C13.75,2.41 13.41,2.75 13,2.75 L9,2.75 C4.39,2.75 2.75,4.39 2.75,9 L2.75,15 C2.75,19.61 4.39,21.25 9,21.25 L15,21.25 C19.61,21.25 21.25,19.61 21.25,15 L21.25,10 C21.25,9.59 21.59,9.25 22,9.25 C22.41,9.25 22.75,9.59 22.75,10 L22.75,15 C22.75,20.43 20.43,22.75 15,22.75 Z"/>
  <path fill="#292D32" d="M21.25,5.75 L15.75,5.75 C15.34,5.75 15,5.41 15,5 C15,4.59 15.34,4.25 15.75,4.25 L21.25,4.25 C21.66,4.25 22,4.59 22,5 C22,5.41 21.66,5.75 21.25,5.75 Z"/>
  <path fill="#292D32" d="M18.5,8.5 C18.09,8.5 17.75,8.16 17.75,7.75 L17.75,2.25 C17.75,1.84 18.09,1.5 18.5,1.5 C18.91,1.5 19.25,1.84 19.25,2.25 L19.25,7.75 C19.25,8.16 18.91,8.5 18.5,8.5 Z"/>
  <path fill="#292D32" d="M2.669,19.7 C2.429,19.7 2.189,19.58 2.049,19.37 C1.819,19.03 1.909,18.56 2.249,18.33 L7.179,15.02 C8.259,14.3 9.749,14.38 10.729,15.21 L11.059,15.5 C11.559,15.93 12.409,15.93 12.899,15.5 L17.059,11.93 C18.129,11.02 19.789,11.02 20.859,11.93 L22.489,13.33 C22.799,13.6 22.839,14.07 22.569,14.39 C22.299,14.7 21.829,14.74 21.509,14.47 L19.879,13.07 C19.379,12.64 18.529,12.64 18.039,13.07 L13.879,16.64 C12.819,17.55 11.149,17.55 10.079,16.64 L9.749,16.35 C9.289,15.96 8.529,15.92 8.019,16.27 L3.099,19.58 C2.959,19.66 2.809,19.7 2.669,19.7 Z"/>
</svg>

