<svg xmlns="http://www.w3.org/2000/svg" width="24" height="24" viewBox="0 0 24 24">
  <defs/>
  <path fill="#292D32" d="M16.65,5.719 L7.35,5.719 C4.4,5.719 2,8.119 2,11.069 L2,16.649 C2,19.599 4.4,21.999 7.35,21.999 L16.65,21.999 C19.6,21.999 22,19.599 22,16.649 L22,11.069 C22,8.119 19.6,5.719 16.65,5.719 Z M14.5,12.019 C14.5,11.469 14.95,11.019 15.5,11.019 C16.05,11.019 16.5,11.469 16.5,12.019 C16.5,12.569 16.05,13.029 15.5,13.029 C14.95,13.029 14.5,12.589 14.5,12.039 L14.5,12.019 Z M10.13,16.069 C9.98,16.219 9.79,16.289 9.6,16.289 C9.41,16.289 9.22,16.219 9.07,16.069 L8.04,15.039 L7.05,16.029 C6.9,16.179 6.71,16.249 6.52,16.249 C6.33,16.249 6.14,16.179 5.99,16.029 C5.7,15.739 5.7,15.259 5.99,14.969 L6.98,13.979 L6.02,13.019 C5.73,12.729 5.73,12.249 6.02,11.959 C6.31,11.669 6.79,11.669 7.08,11.959 L8.04,12.919 L9.03,11.929 C9.32,11.639 9.8,11.639 10.09,11.929 C10.38,12.219 10.38,12.699 10.09,12.989 L9.1,13.979 L10.13,15.009 C10.42,15.299 10.42,15.779 10.13,16.069 Z M13.54,14.999 C12.99,14.999 12.53,14.549 12.53,13.999 C12.53,13.449 12.97,12.999 13.52,12.999 L13.54,12.999 C14.09,12.999 14.54,13.449 14.54,13.999 C14.54,14.549 14.1,14.999 13.54,14.999 Z M15.5,16.969 C14.95,16.969 14.5,16.529 14.5,15.979 L14.5,15.959 C14.5,15.409 14.95,14.959 15.5,14.959 C16.05,14.959 16.5,15.409 16.5,15.959 C16.5,16.509 16.06,16.969 15.5,16.969 Z M17.48,14.999 C16.93,14.999 16.47,14.549 16.47,13.999 C16.47,13.449 16.91,12.999 17.46,12.999 L17.48,12.999 C18.03,12.999 18.48,13.449 18.48,13.999 C18.48,14.549 18.04,14.999 17.48,14.999 Z"/>
  <path fill="#292D32" d="M13.639,2.71 L13.629,3.65 C13.619,4.53 12.889,5.26 11.999,5.26 C11.849,5.26 11.759,5.36 11.759,5.49 C11.759,5.62 11.859,5.72 11.989,5.72 L10.379,5.72 C10.369,5.65 10.359,5.57 10.359,5.49 C10.359,4.59 11.089,3.86 11.979,3.86 C12.129,3.86 12.229,3.76 12.229,3.63 L12.239,2.69 C12.249,2.31 12.559,2 12.939,2 L12.949,2 C13.339,2 13.639,2.32 13.639,2.71 Z"/>
</svg>

