<svg xmlns="http://www.w3.org/2000/svg" width="24" height="24" viewBox="0 0 24 24">
  <defs/>
  <path fill="#292D32" d="M6.52,16.26 C6.33,16.26 6.14,16.19 5.99,16.04 C5.7,15.75 5.7,15.27 5.99,14.98 L9.04,11.93 C9.33,11.64 9.81,11.64 10.1,11.93 C10.39,12.22 10.39,12.7 10.1,12.99 L7.05,16.04 C6.9,16.18 6.71,16.26 6.52,16.26 Z"/>
  <path fill="#292D32" d="M9.6,16.29 C9.41,16.29 9.22,16.22 9.07,16.07 L6.02,13.02 C5.73,12.73 5.73,12.25 6.02,11.96 C6.31,11.67 6.79,11.67 7.08,11.96 L10.13,15.01 C10.42,15.3 10.42,15.78 10.13,16.07 C9.98,16.22 9.79,16.29 9.6,16.29 Z"/>
  <path fill="#292D32" d="M13.54,15 C12.99,15 12.53,14.55 12.53,14 C12.53,13.45 12.97,13 13.52,13 L13.54,13 C14.09,13 14.54,13.45 14.54,14 C14.54,14.55 14.1,15 13.54,15 Z"/>
  <path fill="#292D32" d="M17.48,15 C16.93,15 16.47,14.55 16.47,14 C16.47,13.45 16.91,13 17.46,13 L17.48,13 C18.03,13 18.48,13.45 18.48,14 C18.48,14.55 18.03,15 17.48,15 Z"/>
  <path fill="#292D32" d="M15.5,16.97 C14.95,16.97 14.5,16.53 14.5,15.98 L14.5,15.96 C14.5,15.41 14.95,14.96 15.5,14.96 C16.05,14.96 16.5,15.41 16.5,15.96 C16.5,16.51 16.06,16.97 15.5,16.97 Z"/>
  <path fill="#292D32" d="M15.5,13.03 C14.95,13.03 14.5,12.59 14.5,12.04 L14.5,12.02 C14.5,11.47 14.95,11.02 15.5,11.02 C16.05,11.02 16.5,11.47 16.5,12.02 C16.5,12.57 16.06,13.03 15.5,13.03 Z"/>
  <path fill="#292D32" d="M15,22.75 L9,22.75 C3.57,22.75 1.25,20.43 1.25,15 L1.25,13 C1.25,7.57 3.57,5.25 9,5.25 L15,5.25 C20.43,5.25 22.75,7.57 22.75,13 L22.75,15 C22.75,20.43 20.43,22.75 15,22.75 Z M9,6.75 C4.39,6.75 2.75,8.39 2.75,13 L2.75,15 C2.75,19.61 4.39,21.25 9,21.25 L15,21.25 C19.61,21.25 21.25,19.61 21.25,15 L21.25,13 C21.25,8.39 19.61,6.75 15,6.75 L9,6.75 Z"/>
  <path fill="#292D32" d="M12.99,6.75 L11.99,6.75 C11.03,6.75 10.24,5.96 10.24,5 C10.24,4.04 11.02,3.25 11.98,3.25 C12.14,3.25 12.25,3.14 12.26,3 L12.27,1.99 C12.28,1.58 12.61,1.25 13.02,1.25 L13.03,1.25 C13.44,1.26 13.78,1.6 13.77,2.01 L13.76,3.02 C13.75,3.97 12.96,4.75 12.01,4.75 C11.85,4.75 11.75,4.86 11.75,5 C11.75,5.14 11.86,5.25 12,5.25 L13,5.25 C13.41,5.25 13.75,5.59 13.75,6 C13.75,6.41 13.4,6.75 12.99,6.75 Z"/>
</svg>

