<svg xmlns="http://www.w3.org/2000/svg" width="24" height="24" viewBox="0 0 24 24">
  <defs/>
  <path fill="#292D32" d="M10.1,12.99 L7.05,16.04 Q6.83,16.26 6.52,16.26 Q6.209,16.26 5.989,16.04 Q5.77,15.821 5.77,15.51 Q5.77,15.199 5.989,14.98 L9.039,11.93 Q9.259,11.71 9.57,11.71 Q9.88,11.71 10.1,11.93 Q10.32,12.149 10.32,12.46 Q10.32,12.771 10.1,12.99 Z"/>
  <path fill="#292D32" d="M7.081,11.96 L10.131,15.01 Q10.351,15.229 10.351,15.54 Q10.351,15.851 10.131,16.07 Q9.911,16.29 9.601,16.29 Q9.29,16.29 9.07,16.07 L6.02,13.02 Q5.801,12.801 5.801,12.49 Q5.801,12.179 6.02,11.96 Q6.24,11.74 6.551,11.74 Q6.861,11.74 7.081,11.96 Z"/>
  <path fill="#292D32" d="M13.529,13 L13.539,13 Q13.954,13 14.246,13.293 Q14.539,13.586 14.539,14 Q14.539,14.414 14.246,14.707 Q13.954,15 13.539,15 L13.529,15 Q13.115,15 12.822,14.707 Q12.529,14.414 12.529,14 Q12.529,13.586 12.822,13.293 Q13.115,13 13.529,13 Z"/>
  <path fill="#292D32" d="M17.471,13 L17.481,13 Q17.895,13 18.188,13.293 Q18.481,13.586 18.481,14 Q18.481,14.414 18.188,14.707 Q17.895,15 17.481,15 L17.471,15 Q17.056,15 16.764,14.707 Q16.471,14.414 16.471,14 Q16.471,13.586 16.764,13.293 Q17.056,13 17.471,13 Z"/>
  <path fill="#292D32" d="M14.5,15.98 L14.5,15.96 Q14.5,15.546 14.793,15.253 Q15.086,14.96 15.5,14.96 Q15.914,14.96 16.207,15.253 Q16.5,15.546 16.5,15.96 L16.5,15.98 Q16.5,16.394 16.207,16.687 Q15.914,16.98 15.5,16.98 Q15.086,16.98 14.793,16.687 Q14.5,16.394 14.5,15.98 Z"/>
  <path fill="#292D32" d="M14.5,12.04 L14.5,12.02 Q14.5,11.606 14.793,11.313 Q15.086,11.02 15.5,11.02 Q15.914,11.02 16.207,11.313 Q16.5,11.606 16.5,12.02 L16.5,12.04 Q16.5,12.454 16.207,12.747 Q15.914,13.04 15.5,13.04 Q15.086,13.04 14.793,12.747 Q14.5,12.454 14.5,12.04 Z"/>
  <path fill="#292D32" d="M2.75,15 Q2.75,18.439 4.155,19.845 Q5.561,21.25 9,21.25 L15,21.25 Q18.439,21.25 19.845,19.845 Q21.25,18.439 21.25,15 L21.25,13 Q21.25,6.75 15,6.75 L9,6.75 Q4.083,6.75 3.109,10.015 Q3.02,10.312 2.746,10.46 Q2.473,10.608 2.175,10.519 Q1.878,10.43 1.73,10.156 Q1.582,9.883 1.671,9.585 Q2.966,5.25 9,5.25 L15,5.25 Q22.75,5.25 22.75,13 L22.75,15 Q22.75,22.75 15,22.75 L9,22.75 Q1.25,22.75 1.25,15 Q1.25,14.689 1.47,14.47 Q1.689,14.25 2,14.25 Q2.311,14.25 2.53,14.47 Q2.75,14.689 2.75,15 Z"/>
  <path fill="#292D32" d="M13.76,2.007 L13.75,3.017 Q13.719,4.75 12,4.75 L11.97,4.75 Q11.731,4.75 11.731,5 Q11.73,5.102 11.805,5.176 Q11.879,5.25 11.981,5.25 L12.981,5.25 Q13.291,5.25 13.511,5.47 Q13.73,5.689 13.73,6 Q13.73,6.311 13.511,6.53 Q13.291,6.75 12.981,6.75 L11.981,6.75 Q10.231,6.75 10.231,5 Q10.231,3.25 11.97,3.25 L12,3.25 Q12.246,3.25 12.251,3.003 L12.261,1.993 Q12.264,1.682 12.485,1.464 Q12.707,1.247 13.018,1.25 Q13.329,1.253 13.546,1.475 Q13.764,1.697 13.76,2.007 Z"/>
</svg>

