<svg xmlns="http://www.w3.org/2000/svg" width="24" height="24" viewBox="0 0 24 24">
  <defs/>
  <path fill="#292D32" d="M17,2 L7,2 C4.8,2 3,3.8 3,6 L3,18 C3,20.2 4.8,22 7,22 L17,22 C19.2,22 21,20.2 21,18 L21,6 C21,3.8 19.2,2 17,2 Z M10.86,18.14 C10.71,18.29 10.52,18.36 10.33,18.36 C10.14,18.36 9.95,18.29 9.8,18.14 L9.15,17.49 L8.53,18.11 C8.38,18.26 8.19,18.33 8,18.33 C7.81,18.33 7.62,18.26 7.47,18.11 C7.18,17.82 7.18,17.34 7.47,17.05 L8.09,16.43 L7.5,15.84 C7.21,15.55 7.21,15.07 7.5,14.78 C7.79,14.49 8.27,14.49 8.56,14.78 L9.15,15.37 L9.77,14.75 C10.06,14.46 10.54,14.46 10.83,14.75 C11.12,15.04 11.12,15.52 10.83,15.81 L10.21,16.43 L10.86,17.08 C11.15,17.37 11.15,17.85 10.86,18.14 Z M14.49,18.49 C13.94,18.49 13.49,18.05 13.49,17.5 L13.49,17.48 C13.49,16.93 13.94,16.48 14.49,16.48 C15.04,16.48 15.49,16.93 15.49,17.48 C15.49,18.03 15.04,18.49 14.49,18.49 Z M16.51,16.33 C15.96,16.33 15.5,15.88 15.5,15.33 C15.5,14.78 15.94,14.33 16.49,14.33 L16.51,14.33 C17.06,14.33 17.51,14.78 17.51,15.33 C17.51,15.88 17.06,16.33 16.51,16.33 Z M18,9.25 C18,10.21 17.21,11 16.25,11 L7.75,11 C6.79,11 6,10.21 6,9.25 L6,6.75 C6,5.79 6.79,5 7.75,5 L16.25,5 C17.21,5 18,5.79 18,6.75 L18,9.25 Z"/>
</svg>

