<svg xmlns="http://www.w3.org/2000/svg" width="24" height="24" viewBox="0 0 24 24">
  <defs/>
  <path fill="#292D32" d="M16,22.75 L8,22.75 C4.35,22.75 2.25,20.65 2.25,17 L2.25,7 C2.25,3.35 4.35,1.25 8,1.25 L16,1.25 C19.65,1.25 21.75,3.35 21.75,7 L21.75,17 C21.75,20.65 19.65,22.75 16,22.75 Z M8,2.75 C5.14,2.75 3.75,4.14 3.75,7 L3.75,17 C3.75,19.86 5.14,21.25 8,21.25 L16,21.25 C18.86,21.25 20.25,19.86 20.25,17 L20.25,7 C20.25,4.14 18.86,2.75 16,2.75 L8,2.75 Z"/>
  <path fill="#292D32" d="M16.25,11.75 L7.75,11.75 C6.37,11.75 5.25,10.63 5.25,9.25 L5.25,6.75 C5.25,5.37 6.37,4.25 7.75,4.25 L16.25,4.25 C17.63,4.25 18.75,5.37 18.75,6.75 L18.75,9.25 C18.75,10.63 17.63,11.75 16.25,11.75 Z M7.75,5.75 C7.2,5.75 6.75,6.2 6.75,6.75 L6.75,9.25 C6.75,9.8 7.2,10.25 7.75,10.25 L16.25,10.25 C16.8,10.25 17.25,9.8 17.25,9.25 L17.25,6.75 C17.25,6.2 16.8,5.75 16.25,5.75 L7.75,5.75 Z"/>
  <path fill="#292D32" d="M7.999,18.33 C7.809,18.33 7.619,18.26 7.469,18.11 C7.179,17.82 7.179,17.34 7.469,17.05 L9.769,14.75 C10.059,14.46 10.539,14.46 10.829,14.75 C11.119,15.04 11.119,15.52 10.829,15.81 L8.529,18.11 C8.379,18.26 8.189,18.33 7.999,18.33 Z"/>
  <path fill="#292D32" d="M10.33,18.36 C10.14,18.36 9.95,18.29 9.8,18.14 L7.5,15.84 C7.21,15.55 7.21,15.07 7.5,14.78 C7.79,14.49 8.27,14.49 8.56,14.78 L10.86,17.08 C11.15,17.37 11.15,17.85 10.86,18.14 C10.71,18.29 10.52,18.36 10.33,18.36 Z"/>
  <path fill="#292D32" d="M16.51,16.33 C15.96,16.33 15.5,15.88 15.5,15.33 C15.5,14.78 15.94,14.33 16.49,14.33 L16.51,14.33 C17.06,14.33 17.51,14.78 17.51,15.33 C17.51,15.88 17.06,16.33 16.51,16.33 Z"/>
  <path fill="#292D32" d="M14.49,18.49 C13.94,18.49 13.49,18.05 13.49,17.5 L13.49,17.48 C13.49,16.93 13.94,16.48 14.49,16.48 C15.04,16.48 15.49,16.93 15.49,17.48 C15.49,18.03 15.04,18.49 14.49,18.49 Z"/>
</svg>

