<svg xmlns="http://www.w3.org/2000/svg" width="24" height="24" viewBox="0 0 24 24">
  <defs/>
  <path fill="#292D32" d="M21.75,7 L21.75,17 Q21.75,22.75 16,22.75 L8,22.75 Q2.25,22.75 2.25,17 L2.25,7 Q2.25,1.25 8,1.25 L16,1.25 Q21.75,1.25 21.75,7 Z M20.25,7 Q20.25,2.75 16,2.75 L8,2.75 Q3.75,2.75 3.75,7 L3.75,17 Q3.75,21.25 8,21.25 L16,21.25 Q20.25,21.25 20.25,17 Z"/>
  <path fill="#292D32" opacity="0.4" d="M16.25,11.75 L7.75,11.75 Q5.25,11.75 5.25,9.25 L5.25,6.75 Q5.25,4.25 7.75,4.25 L16.25,4.25 Q18.75,4.25 18.75,6.75 L18.75,9.25 Q18.75,11.75 16.25,11.75 Z M16.25,10.25 Q17.25,10.25 17.25,9.25 L17.25,6.75 Q17.25,5.75 16.25,5.75 L7.75,5.75 Q6.75,5.75 6.75,6.75 L6.75,9.25 Q6.75,10.25 7.75,10.25 Z"/>
  <path fill="#292D32" d="M10.83,15.811 L8.53,18.111 Q8.311,18.33 8,18.33 Q7.689,18.33 7.47,18.111 Q7.25,17.891 7.25,17.58 Q7.25,17.27 7.47,17.05 L9.77,14.75 Q9.989,14.53 10.3,14.53 Q10.611,14.53 10.83,14.75 Q11.05,14.97 11.05,15.28 Q11.05,15.591 10.83,15.811 Z"/>
  <path fill="#292D32" d="M8.561,14.78 L10.861,17.08 Q11.08,17.299 11.08,17.61 Q11.08,17.921 10.861,18.14 Q10.641,18.36 10.33,18.36 Q10.02,18.36 9.8,18.14 L7.5,15.84 Q7.28,15.621 7.28,15.31 Q7.28,14.999 7.5,14.78 Q7.72,14.56 8.03,14.56 Q8.341,14.56 8.561,14.78 Z"/>
  <path fill="#292D32" opacity="0.4" d="M16.49,14.33 L16.51,14.33 Q16.925,14.33 17.217,14.623 Q17.51,14.916 17.51,15.33 Q17.51,15.744 17.217,16.037 Q16.925,16.33 16.51,16.33 L16.49,16.33 Q16.076,16.33 15.783,16.037 Q15.49,15.744 15.49,15.33 Q15.49,14.916 15.783,14.623 Q16.076,14.33 16.49,14.33 Z"/>
  <path fill="#292D32" opacity="0.4" d="M13.49,17.5 L13.49,17.48 Q13.49,17.066 13.783,16.773 Q14.076,16.48 14.49,16.48 Q14.904,16.48 15.197,16.773 Q15.49,17.066 15.49,17.48 L15.49,17.5 Q15.49,17.914 15.197,18.207 Q14.904,18.5 14.49,18.5 Q14.076,18.5 13.783,18.207 Q13.49,17.914 13.49,17.5 Z"/>
</svg>

