<svg xmlns="http://www.w3.org/2000/svg" width="24" height="24" viewBox="0 0 24 24">
  <defs/>
  <path fill="#292D32" opacity="0.4" d="M17,22 L7,22 C4.8,22 3,20.2 3,18 L3,6 C3,3.8 4.8,2 7,2 L17,2 C19.2,2 21,3.8 21,6 L21,18 C21,20.2 19.2,22 17,22 Z"/>
  <path fill="#292D32" d="M16.25,11 L7.75,11 C6.79,11 6,10.21 6,9.25 L6,6.75 C6,5.79 6.79,5 7.75,5 L16.25,5 C17.21,5 18,5.79 18,6.75 L18,9.25 C18,10.21 17.21,11 16.25,11 Z"/>
  <path fill="#292D32" d="M10.859,17.08 L10.209,16.43 L10.829,15.81 C11.119,15.52 11.119,15.04 10.829,14.75 C10.539,14.46 10.059,14.46 9.769,14.75 L9.149,15.37 L8.559,14.78 C8.269,14.49 7.789,14.49 7.499,14.78 C7.209,15.07 7.209,15.55 7.499,15.84 L8.089,16.43 L7.469,17.05 C7.179,17.34 7.179,17.82 7.469,18.11 C7.619,18.26 7.809,18.33 7.999,18.33 C8.189,18.33 8.379,18.26 8.529,18.11 L9.149,17.49 L9.799,18.14 C9.949,18.29 10.139,18.36 10.329,18.36 C10.519,18.36 10.709,18.29 10.859,18.14 C11.149,17.85 11.149,17.37 10.859,17.08 Z"/>
  <path fill="#292D32" d="M16.51,16.33 C15.96,16.33 15.5,15.88 15.5,15.33 C15.5,14.78 15.94,14.33 16.49,14.33 L16.51,14.33 C17.06,14.33 17.51,14.78 17.51,15.33 C17.51,15.88 17.06,16.33 16.51,16.33 Z"/>
  <path fill="#292D32" d="M14.49,18.49 C13.94,18.49 13.49,18.05 13.49,17.5 L13.49,17.48 C13.49,16.93 13.94,16.48 14.49,16.48 C15.04,16.48 15.49,16.93 15.49,17.48 C15.49,18.03 15.04,18.49 14.49,18.49 Z"/>
</svg>

