<svg xmlns="http://www.w3.org/2000/svg" width="24" height="24" viewBox="0 0 24 24">
  <defs/>
  <path fill="#292D32" d="M10.131,15.01 L9.101,13.98 L10.091,12.99 C10.381,12.7 10.381,12.22 10.091,11.93 C9.801,11.64 9.321,11.64 9.031,11.93 L8.041,12.92 L7.081,11.96 C6.791,11.67 6.311,11.67 6.021,11.96 C5.731,12.25 5.731,12.73 6.021,13.02 L6.981,13.98 L5.991,14.97 C5.701,15.26 5.701,15.74 5.991,16.03 C6.141,16.18 6.331,16.25 6.521,16.25 C6.711,16.25 6.901,16.18 7.051,16.03 L8.041,15.04 L9.071,16.07 C9.221,16.22 9.411,16.29 9.601,16.29 C9.791,16.29 9.981,16.22 10.131,16.07 C10.421,15.78 10.421,15.3 10.131,15.01 Z"/>
  <path fill="#292D32" d="M13.539,15 C12.989,15 12.529,14.55 12.529,14 C12.529,13.45 12.969,13 13.519,13 L13.539,13 C14.089,13 14.539,13.45 14.539,14 C14.539,14.55 14.099,15 13.539,15 Z"/>
  <path fill="#292D32" d="M17.481,15 C16.931,15 16.471,14.55 16.471,14 C16.471,13.45 16.911,13 17.461,13 L17.481,13 C18.031,13 18.481,13.45 18.481,14 C18.481,14.55 18.041,15 17.481,15 Z"/>
  <path fill="#292D32" d="M15.5,16.97 C14.95,16.97 14.5,16.53 14.5,15.98 L14.5,15.96 C14.5,15.41 14.95,14.96 15.5,14.96 C16.05,14.96 16.5,15.41 16.5,15.96 C16.5,16.51 16.06,16.97 15.5,16.97 Z"/>
  <path fill="#292D32" d="M15.5,13.03 C14.95,13.03 14.5,12.59 14.5,12.04 L14.5,12.02 C14.5,11.47 14.95,11.02 15.5,11.02 C16.05,11.02 16.5,11.47 16.5,12.02 C16.5,12.57 16.06,13.03 15.5,13.03 Z"/>
  <path fill="#292D32" opacity="0.4" d="M22,11.07 L22,16.65 C22,19.6 19.6,22 16.65,22 L7.35,22 C4.4,22 2,19.6 2,16.65 L2,11.07 C2,8.12 4.4,5.72 7.35,5.72 L16.65,5.72 C19.6,5.72 22,8.12 22,11.07 Z"/>
  <path fill="#292D32" d="M13.639,2.71 L13.629,3.65 C13.619,4.53 12.889,5.26 11.999,5.26 C11.849,5.26 11.759,5.36 11.759,5.49 C11.759,5.62 11.859,5.72 11.989,5.72 L10.379,5.72 C10.369,5.65 10.359,5.57 10.359,5.49 C10.359,4.59 11.089,3.86 11.979,3.86 C12.129,3.86 12.229,3.76 12.229,3.63 L12.239,2.69 C12.249,2.31 12.559,2 12.939,2 L12.949,2 C13.339,2 13.639,2.32 13.639,2.71 Z"/>
</svg>

