<svg xmlns="http://www.w3.org/2000/svg" width="24" height="24" viewBox="0 0 24 24">
  <defs/>
  <path fill="#292D32" opacity="0.4" d="M3.5,22 L3.5,5 C3.5,3 4.84,2 6.5,2 L14.5,2 C16.16,2 17.5,3 17.5,5 L17.5,22 L3.5,22 Z"/>
  <path fill="#292D32" d="M19,22.75 L2,22.75 C1.59,22.75 1.25,22.41 1.25,22 C1.25,21.59 1.59,21.25 2,21.25 L19,21.25 C19.41,21.25 19.75,21.59 19.75,22 C19.75,22.41 19.41,22.75 19,22.75 Z"/>
  <path fill="#292D32" d="M7.89,10 L13.12,10 C14.16,10 15.01,9.5 15.01,8.11 L15.01,6.88 C15,5.5 14.15,5 13.11,5 L7.88,5 C6.85,5 6,5.5 6,6.89 L6,8.12 C6,9.5 6.85,10 7.89,10 Z"/>
  <path fill="#292D32" d="M9.5,13.75 L6.5,13.75 C6.09,13.75 5.75,13.41 5.75,13 C5.75,12.59 6.09,12.25 6.5,12.25 L9.5,12.25 C9.91,12.25 10.25,12.59 10.25,13 C10.25,13.41 9.91,13.75 9.5,13.75 Z"/>
  <path fill="#292D32" d="M22.75,10 L22.75,16 C22.75,16.41 22.42,16.75 22,16.75 L17.5,16.76 L17.5,15.26 L21.25,15.25 L21.25,10.46 L19.66,9.67 C19.29,9.49 19.14,9.04 19.33,8.66 C19.51,8.29 19.97,8.15 20.34,8.33 L22.34,9.33 C22.59,9.46 22.75,9.72 22.75,10 Z"/>
</svg>

