<svg xmlns="http://www.w3.org/2000/svg" width="24" height="24" viewBox="0 0 24 24">
  <defs/>
  <path fill="#292D32" d="M2.75,5 Q2.75,1.25 6.5,1.25 L14.5,1.25 Q18.25,1.25 18.25,5 L18.25,22 Q18.25,22.311 18.03,22.53 Q17.811,22.75 17.5,22.75 L3.5,22.75 Q3.189,22.75 2.97,22.53 Q2.75,22.311 2.75,22 L2.75,9 Q2.75,8.689 2.97,8.47 Q3.189,8.25 3.5,8.25 Q3.811,8.25 4.03,8.47 Q4.25,8.689 4.25,9 L4.25,21.25 L16.75,21.25 L16.75,5 Q16.75,2.75 14.5,2.75 L6.5,2.75 Q4.25,2.75 4.25,5 Q4.25,5.311 4.03,5.53 Q3.811,5.75 3.5,5.75 Q3.189,5.75 2.97,5.53 Q2.75,5.311 2.75,5 Z"/>
  <path fill="#292D32" d="M2,21.25 L19,21.25 Q19.311,21.25 19.53,21.47 Q19.75,21.689 19.75,22 Q19.75,22.311 19.53,22.53 Q19.311,22.75 19,22.75 L2,22.75 Q1.689,22.75 1.47,22.53 Q1.25,22.311 1.25,22 Q1.25,21.689 1.47,21.47 Q1.689,21.25 2,21.25 Z"/>
  <path fill="#292D32" d="M8.39,10.75 Q5.75,10.75 5.75,8.11 L5.75,6.88 Q5.75,4.24 8.39,4.24 L12.62,4.24 Q13.75,4.24 14.448,4.849 Q15.26,5.557 15.26,6.88 L15.26,8.11 Q15.26,10.75 12.62,10.75 Z M8.39,9.25 L12.62,9.25 Q13.188,9.25 13.462,9.011 Q13.76,8.751 13.76,8.11 L13.76,6.88 Q13.76,6.239 13.462,5.979 Q13.188,5.74 12.62,5.74 L8.39,5.74 Q7.25,5.74 7.25,6.88 L7.25,8.11 Q7.25,8.751 7.548,9.011 Q7.822,9.25 8.39,9.25 Z"/>
  <path fill="#292D32" d="M6.5,12.25 L9.5,12.25 Q9.811,12.25 10.03,12.47 Q10.25,12.689 10.25,13 Q10.25,13.311 10.03,13.53 Q9.811,13.75 9.5,13.75 L6.5,13.75 Q6.189,13.75 5.97,13.53 Q5.75,13.311 5.75,13 Q5.75,12.689 5.97,12.47 Q6.189,12.25 6.5,12.25 Z"/>
  <path fill="#292D32" d="M17.498,15.26 L21.25,15.252 L21.25,10.464 L19.665,9.671 Q19.387,9.532 19.288,9.237 Q19.19,8.942 19.329,8.665 Q19.468,8.387 19.763,8.288 Q20.058,8.19 20.335,8.329 L22.335,9.329 Q22.75,9.536 22.75,10 L22.75,16 Q22.75,16.31 22.531,16.53 Q22.312,16.749 22.002,16.75 L17.502,16.76 Q17.191,16.761 16.971,16.542 Q16.751,16.322 16.75,16.012 Q16.749,15.701 16.968,15.481 Q17.188,15.261 17.498,15.26 Z"/>
</svg>

