<svg xmlns="http://www.w3.org/2000/svg" width="24" height="24" viewBox="0 0 24 24">
  <defs/>
  <path fill="#292D32" d="M22.34,9.33 L20.34,8.33 C19.97,8.15 19.51,8.29 19.33,8.66 C19.14,9.04 19.29,9.49 19.66,9.67 L21.25,10.46 L21.25,15.25 L17.5,15.26 L17.5,5 C17.5,3 16.16,2 14.5,2 L6.5,2 C4.84,2 3.5,3 3.5,5 L3.5,21.25 L2,21.25 C1.59,21.25 1.25,21.59 1.25,22 C1.25,22.41 1.59,22.75 2,22.75 L19,22.75 C19.41,22.75 19.75,22.41 19.75,22 C19.75,21.59 19.41,21.25 19,21.25 L17.5,21.25 L17.5,16.76 L22,16.75 C22.42,16.75 22.75,16.41 22.75,16 L22.75,10 C22.75,9.72 22.59,9.46 22.34,9.33 Z M6,6.89 C6,5.5 6.85,5 7.89,5 L13.12,5 C14.15,5 15,5.5 15,6.89 L15,8.12 C15,9.5 14.15,10 13.11,10 L7.89,10 C6.85,10 6,9.5 6,8.11 L6,6.89 Z M6.5,12.25 L9.5,12.25 C9.91,12.25 10.25,12.59 10.25,13 C10.25,13.41 9.91,13.75 9.5,13.75 L6.5,13.75 C6.09,13.75 5.75,13.41 5.75,13 C5.75,12.59 6.09,12.25 6.5,12.25 Z"/>
</svg>

