<svg xmlns="http://www.w3.org/2000/svg" width="24" height="24" viewBox="0 0 24 24">
  <defs/>
  <path fill="#292D32" d="M17.5,22.75 L3.5,22.75 C3.09,22.75 2.75,22.41 2.75,22 L2.75,5 C2.75,2.76 4.26,1.25 6.5,1.25 L14.5,1.25 C16.74,1.25 18.25,2.76 18.25,5 L18.25,22 C18.25,22.41 17.91,22.75 17.5,22.75 Z M4.25,21.25 L16.75,21.25 L16.75,5 C16.75,3.59 15.91,2.75 14.5,2.75 L6.5,2.75 C5.09,2.75 4.25,3.59 4.25,5 L4.25,21.25 Z"/>
  <path fill="#292D32" d="M19,22.75 L2,22.75 C1.59,22.75 1.25,22.41 1.25,22 C1.25,21.59 1.59,21.25 2,21.25 L19,21.25 C19.41,21.25 19.75,21.59 19.75,22 C19.75,22.41 19.41,22.75 19,22.75 Z"/>
  <path fill="#292D32" d="M12.61,10.75 L8.38,10.75 C6.75,10.75 5.74,9.74 5.74,8.11 L5.74,6.88 C5.74,5.25 6.75,4.24 8.38,4.24 L12.61,4.24 C14.24,4.24 15.25,5.25 15.25,6.88 L15.25,8.11 C15.25,9.74 14.24,10.75 12.61,10.75 Z M8.39,5.75 C7.58,5.75 7.25,6.08 7.25,6.89 L7.25,8.12 C7.25,8.93 7.58,9.26 8.39,9.26 L12.62,9.26 C13.43,9.26 13.76,8.93 13.76,8.12 L13.76,6.89 C13.76,6.08 13.43,5.75 12.62,5.75 L8.39,5.75 Z"/>
  <path fill="#292D32" d="M9.5,13.75 L6.5,13.75 C6.09,13.75 5.75,13.41 5.75,13 C5.75,12.59 6.09,12.25 6.5,12.25 L9.5,12.25 C9.91,12.25 10.25,12.59 10.25,13 C10.25,13.41 9.91,13.75 9.5,13.75 Z"/>
  <path fill="#292D32" d="M17.5,16.76 C17.09,16.76 16.75,16.43 16.75,16.01 C16.75,15.6 17.08,15.26 17.5,15.26 L21.25,15.25 L21.25,10.46 L19.66,9.67 C19.29,9.48 19.14,9.03 19.32,8.66 C19.51,8.29 19.96,8.14 20.33,8.32 L22.33,9.32 C22.58,9.45 22.74,9.71 22.74,9.99 L22.74,15.99 C22.74,16.4 22.41,16.74 21.99,16.74 L17.5,16.76 Z"/>
</svg>

