<svg xmlns="http://www.w3.org/2000/svg" width="24" height="24" viewBox="0 0 24 24">
  <defs/>
  <path fill="#292D32" d="M2.75,16.07 L2.75,20.08 Q2.75,20.542 2.8,20.565 Q2.84,20.583 3.164,20.286 L4.165,19.375 Q5.34,18.296 6.517,19.378 L8.516,21.207 Q8.68,21.357 8.843,21.208 L10.844,19.377 Q12.02,18.296 13.197,19.378 L15.196,21.207 Q15.36,21.357 15.523,21.208 L17.524,19.377 Q18.7,18.296 19.877,19.378 L20.875,20.285 Q21.2,20.583 21.24,20.565 Q21.29,20.542 21.29,20.08 L21.29,12.19 Q21.29,8.297 18.567,5.526 Q15.851,2.76 12.04,2.76 Q8.229,2.76 5.513,5.526 Q2.79,8.297 2.79,12.19 Q2.79,12.501 2.57,12.72 Q2.351,12.94 2.04,12.94 Q1.729,12.94 1.51,12.72 Q1.29,12.501 1.29,12.19 Q1.29,7.683 4.442,4.474 Q7.6,1.26 12.04,1.26 Q16.48,1.26 19.638,4.474 Q22.79,7.683 22.79,12.19 L22.79,20.08 Q22.79,21.508 21.86,21.93 Q20.92,22.358 19.865,21.395 L18.863,20.482 Q18.7,20.333 18.536,20.483 L16.537,22.312 Q15.36,23.394 14.184,22.313 L12.183,20.482 Q12.02,20.333 11.856,20.483 L9.857,22.312 Q8.68,23.394 7.504,22.313 L5.503,20.482 Q5.34,20.333 5.175,20.485 L4.176,21.394 Q3.12,22.358 2.18,21.93 Q1.25,21.508 1.25,20.08 L1.25,16.07 Q1.25,15.759 1.47,15.54 Q1.689,15.32 2,15.32 Q2.311,15.32 2.53,15.54 Q2.75,15.759 2.75,16.07 Z"/>
  <path fill="#292D32" d="M8.45,13.4 Q12,16.066 15.55,13.4 Q15.798,13.214 16.106,13.257 Q16.413,13.301 16.6,13.55 Q16.786,13.798 16.743,14.106 Q16.699,14.413 16.45,14.6 Q12,17.942 7.55,14.6 Q7.301,14.413 7.257,14.106 Q7.214,13.798 7.4,13.55 Q7.587,13.301 7.894,13.257 Q8.202,13.214 8.45,13.4 Z"/>
  <path fill="#292D32" d="M12,11.75 Q9.25,11.75 9.25,9 Q9.25,7.625 9.938,6.938 Q10.625,6.25 12,6.25 Q13.139,6.25 13.945,7.055 Q14.75,7.861 14.75,9 Q14.75,10.139 13.945,10.945 Q13.139,11.75 12,11.75 Z M12,10.25 Q13.25,10.25 13.25,9 Q13.25,8.482 12.884,8.116 Q12.518,7.75 12,7.75 Q11.482,7.75 11.116,8.116 Q10.75,8.482 10.75,9 Q10.75,10.25 12,10.25 Z"/>
</svg>

