<svg xmlns="http://www.w3.org/2000/svg" width="24" height="24" viewBox="0 0 24 24">
  <defs/>
  <path fill="#292D32" opacity="0.4" d="M22,20.07 L22,12.18 C22,6.58 17.5,2 12,2 C6.5,2 2,6.58 2,12.18 L2,20.07 C2,21.33 2.75,21.67 3.67,20.83 L4.67,19.92 C5.04,19.58 5.64,19.58 6.01,19.92 L8.01,21.75 C8.38,22.09 8.98,22.09 9.35,21.75 L11.35,19.92 C11.72,19.58 12.32,19.58 12.69,19.92 L14.69,21.75 C15.06,22.09 15.66,22.09 16.03,21.75 L18.03,19.92 C18.4,19.58 19,19.58 19.37,19.92 L20.37,20.83 C21.25,21.67 22,21.33 22,20.07 Z"/>
  <path fill="#292D32" d="M12,16.07 C10.43,16.07 8.86,15.58 7.55,14.6 C7.22,14.35 7.15,13.88 7.4,13.55 C7.65,13.22 8.12,13.15 8.45,13.4 C10.54,14.97 13.46,14.97 15.55,13.4 C15.88,13.15 16.35,13.22 16.6,13.55 C16.85,13.88 16.78,14.35 16.45,14.6 C15.14,15.58 13.57,16.07 12,16.07 Z"/>
  <path fill="#292D32" d="M11.999,11.38 C13.314,11.38 14.379,10.315 14.379,9 C14.379,7.686 13.314,6.62 11.999,6.62 C10.685,6.62 9.619,7.686 9.619,9 C9.619,10.315 10.685,11.38 11.999,11.38 Z"/>
</svg>

