<svg xmlns="http://www.w3.org/2000/svg" width="24" height="24" viewBox="0 0 24 24">
  <defs/>
  <path fill="#292D32" d="M15.971,22.75 L7.971,22.75 C4.551,22.75 3.221,21.42 3.221,18 L3.221,10 C3.221,9.59 3.561,9.25 3.971,9.25 L19.971,9.25 C20.381,9.25 20.721,9.59 20.721,10 L20.721,18 C20.721,21.42 19.391,22.75 15.971,22.75 Z M4.721,10.75 L4.721,18 C4.721,20.58 5.391,21.25 7.971,21.25 L15.971,21.25 C18.551,21.25 19.221,20.58 19.221,18 L19.221,10.75 L4.721,10.75 Z"/>
  <path fill="#292D32" d="M19.5,10.75 L4.5,10.75 C2.75,10.75 1.75,9.75 1.75,8 L1.75,7 C1.75,5.25 2.75,4.25 4.5,4.25 L19.5,4.25 C21.2,4.25 22.25,5.3 22.25,7 L22.25,8 C22.25,9.7 21.2,10.75 19.5,10.75 Z M4.5,5.75 C3.59,5.75 3.25,6.09 3.25,7 L3.25,8 C3.25,8.91 3.59,9.25 4.5,9.25 L19.5,9.25 C20.38,9.25 20.75,8.88 20.75,8 L20.75,7 C20.75,6.12 20.38,5.75 19.5,5.75 L4.5,5.75 Z"/>
  <path fill="#292D32" d="M11.639,5.75 L6.119,5.75 C5.909,5.75 5.709,5.66 5.569,5.51 C4.959,4.84 4.979,3.81 5.619,3.17 L7.039,1.75 C7.699,1.09 8.789,1.09 9.449,1.75 L12.169,4.47 C12.379,4.68 12.449,5.01 12.329,5.29 C12.219,5.57 11.949,5.75 11.639,5.75 Z M6.669,4.25 L9.839,4.25 L8.389,2.81 C8.309,2.73 8.179,2.73 8.099,2.81 L6.679,4.23 C6.679,4.24 6.669,4.24 6.669,4.25 Z"/>
  <path fill="#292D32" d="M17.87,5.75 L12.35,5.75 C12.05,5.75 11.77,5.57 11.66,5.29 C11.54,5.01 11.61,4.69 11.82,4.47 L14.54,1.75 C15.2,1.09 16.29,1.09 16.95,1.75 L18.37,3.17 C19.01,3.81 19.04,4.84 18.42,5.51 C18.28,5.66 18.08,5.75 17.87,5.75 Z M14.17,4.25 L17.34,4.25 C17.33,4.24 17.33,4.24 17.32,4.23 L15.9,2.81 C15.82,2.73 15.69,2.73 15.61,2.81 L14.17,4.25 Z"/>
  <path fill="#292D32" d="M9.939,16.9 C9.659,16.9 9.369,16.83 9.109,16.69 C8.539,16.38 8.189,15.79 8.189,15.15 L8.189,10 C8.189,9.59 8.529,9.25 8.939,9.25 L14.979,9.25 C15.389,9.25 15.729,9.59 15.729,10 L15.729,15.13 C15.729,15.78 15.38,16.37 14.809,16.67 C14.239,16.98 13.55,16.94 13.009,16.58 L12.12,15.98 C12.04,15.92 11.93,15.92 11.839,15.98 L10.899,16.6 C10.61,16.8 10.27,16.9 9.939,16.9 Z M9.689,10.75 L9.689,15.14 C9.689,15.27 9.769,15.33 9.819,15.36 C9.869,15.39 9.969,15.42 10.079,15.35 L11.02,14.73 C11.61,14.34 12.37,14.34 12.95,14.73 L13.839,15.33 C13.95,15.4 14.05,15.37 14.1,15.34 C14.149,15.31 14.229,15.25 14.229,15.12 L14.229,10.74 L9.689,10.74 L9.689,10.75 Z"/>
</svg>

