<svg xmlns="http://www.w3.org/2000/svg" width="24" height="24" viewBox="0 0 24 24">
  <defs/>
  <path fill="#292D32" d="M19.97,9.25 Q20.281,9.25 20.5,9.47 Q20.72,9.689 20.72,10 L20.72,18 Q20.72,22.75 15.97,22.75 L7.97,22.75 Q3.22,22.75 3.22,18 L3.22,10 Q3.22,9.689 3.44,9.47 Q3.659,9.25 3.97,9.25 Z M19.22,10.75 L4.72,10.75 L4.72,18 Q4.72,21.25 7.97,21.25 L15.97,21.25 Q17.909,21.25 18.565,20.595 Q19.22,19.939 19.22,18 L19.22,10.75 Z"/>
  <path fill="#292D32" d="M22.25,7 L22.25,8 Q22.25,9.179 21.616,9.906 Q20.88,10.75 19.5,10.75 L4.5,10.75 Q3.08,10.75 2.355,9.899 Q1.75,9.188 1.75,8 L1.75,7 Q1.75,4.25 4.5,4.25 L19.5,4.25 Q22.25,4.25 22.25,7 Z M20.75,7 Q20.75,5.75 19.5,5.75 L4.5,5.75 Q3.773,5.75 3.497,6.074 Q3.25,6.364 3.25,7 L3.25,8 Q3.25,8.636 3.497,8.926 Q3.773,9.25 4.5,9.25 L19.5,9.25 Q20.75,9.25 20.75,8 Z"/>
  <path fill="#292D32" d="M11.64,5.75 L6.12,5.75 Q5.791,5.75 5.568,5.507 Q4.473,4.316 5.62,3.17 L7.04,1.75 Q7.537,1.252 8.245,1.252 Q8.953,1.252 9.45,1.75 L12.17,4.47 Q12.39,4.689 12.39,5 Q12.39,5.311 12.17,5.53 Q11.951,5.75 11.64,5.75 Z M9.829,4.25 L8.39,2.81 Q8.245,2.666 8.1,2.81 L6.68,4.23 Q6.671,4.24 6.662,4.25 L9.829,4.25 Z"/>
  <path fill="#292D32" d="M17.87,5.75 L12.35,5.75 Q12.039,5.75 11.82,5.53 Q11.6,5.311 11.6,5 Q11.6,4.689 11.82,4.47 L14.54,1.75 Q15.745,0.544 16.95,1.75 L18.37,3.17 Q19.517,4.316 18.422,5.507 Q18.199,5.75 17.87,5.75 Z M17.328,4.25 Q17.319,4.24 17.31,4.23 L15.89,2.81 Q15.745,2.666 15.6,2.81 L14.161,4.25 L17.328,4.25 Z"/>
  <path fill="#292D32" d="M8.19,10 Q8.19,9.689 8.41,9.47 Q8.629,9.25 8.94,9.25 L14.97,9.25 Q15.281,9.25 15.5,9.47 Q15.72,9.689 15.72,10 L15.72,15.13 Q15.72,16.179 14.795,16.672 Q13.873,17.163 13.001,16.582 L12.114,15.984 Q11.982,15.896 11.843,15.986 L10.895,16.611 Q10.02,17.173 9.108,16.681 Q8.19,16.187 8.19,15.14 Z M9.69,10.75 L9.69,15.14 Q9.69,15.291 9.82,15.361 Q9.953,15.433 10.085,15.349 L11.017,14.734 Q11.994,14.102 12.946,14.736 L13.839,15.338 Q13.959,15.418 14.09,15.348 Q14.22,15.279 14.22,15.13 L14.22,10.75 L9.69,10.75 Z"/>
</svg>

