<svg xmlns="http://www.w3.org/2000/svg" width="24" height="24" viewBox="0 0 24 24">
  <defs/>
  <path fill="#292D32" d="M20,12 L20,18 C20,20.21 18.21,22 16,22 L8,22 C5.79,22 4,20.21 4,18 L4,12 C4,11.45 4.45,11 5,11 L6.97,11 C7.52,11 7.97,11.45 7.97,12 L7.97,15.14 C7.97,15.88 8.38,16.56 9.03,16.91 C9.32,17.07 9.64,17.15 9.97,17.15 C10.35,17.15 10.73,17.04 11.06,16.82 L12.01,16.2 L12.89,16.79 C13.5,17.2 14.28,17.25 14.93,16.9 C15.59,16.55 16,15.88 16,15.13 L16,12 C16,11.45 16.45,11 17,11 L19,11 C19.55,11 20,11.45 20,12 Z"/>
  <path fill="#292D32" d="M21.5,7 L21.5,8 C21.5,9.1 20.97,10 19.5,10 L4.5,10 C2.97,10 2.5,9.1 2.5,8 L2.5,7 C2.5,5.9 2.97,5 4.5,5 L19.5,5 C20.97,5 21.5,5.9 21.5,7 Z"/>
  <path fill="#292D32" d="M11.639,5.001 L6.119,5.001 C5.779,4.631 5.789,4.061 6.149,3.701 L7.569,2.281 C7.939,1.911 8.549,1.911 8.919,2.281 L11.639,5.001 Z"/>
  <path fill="#292D32" d="M17.872,5.001 L12.352,5.001 L15.072,2.281 C15.442,1.911 16.052,1.911 16.422,2.281 L17.842,3.701 C18.202,4.061 18.212,4.631 17.872,5.001 Z"/>
  <path fill="#292D32" d="M13.971,11 C14.521,11 14.971,11.45 14.971,12 L14.971,15.13 C14.971,15.93 14.081,16.41 13.421,15.96 L12.521,15.36 C12.191,15.14 11.761,15.14 11.421,15.36 L10.481,15.98 C9.821,16.42 8.941,15.94 8.941,15.15 L8.941,12 C8.941,11.45 9.391,11 9.941,11 L13.971,11 Z"/>
</svg>

