<svg xmlns="http://www.w3.org/2000/svg" width="24" height="24" viewBox="0 0 24 24">
  <defs/>
  <path fill="#292D32" opacity="0.4" d="M19.971,10 L19.971,18 C19.971,21 18.971,22 15.971,22 L7.971,22 C4.971,22 3.971,21 3.971,18 L3.971,10 L19.971,10 Z"/>
  <path fill="#292D32" d="M21.5,7 L21.5,8 C21.5,9.1 20.97,10 19.5,10 L4.5,10 C2.97,10 2.5,9.1 2.5,8 L2.5,7 C2.5,5.9 2.97,5 4.5,5 L19.5,5 C20.97,5 21.5,5.9 21.5,7 Z"/>
  <path fill="#292D32" opacity="0.4" d="M11.641,5 L6.121,5 C5.781,4.63 5.791,4.06 6.151,3.7 L7.571,2.28 C7.941,1.91 8.551,1.91 8.921,2.28 L11.641,5 Z"/>
  <path fill="#292D32" opacity="0.4" d="M17.87,5 L12.35,5 L15.07,2.28 C15.44,1.91 16.05,1.91 16.42,2.28 L17.84,3.7 C18.2,4.06 18.21,4.63 17.87,5 Z"/>
  <path fill="#292D32" opacity="0.6" d="M8.939,10 L8.939,15.14 C8.939,15.94 9.819,16.41 10.489,15.98 L11.43,15.36 C11.77,15.14 12.2,15.14 12.53,15.36 L13.419,15.96 C14.079,16.4 14.97,15.93 14.97,15.13 L14.97,10 L8.939,10 Z"/>
</svg>

