<svg xmlns="http://www.w3.org/2000/svg" width="24" height="24" viewBox="0 0 24 24">
  <defs/>
  <path fill="#292D32" d="M4.721,18 Q4.721,21.25 7.971,21.25 L15.971,21.25 Q19.221,21.25 19.221,18 L19.221,10.75 L4.721,10.75 L4.721,13.84 Q4.721,14.151 4.501,14.37 Q4.281,14.59 3.971,14.59 Q3.66,14.59 3.44,14.37 Q3.221,14.151 3.221,13.84 L3.221,10 Q3.221,9.689 3.44,9.47 Q3.66,9.25 3.971,9.25 L19.971,9.25 Q20.281,9.25 20.501,9.47 Q20.721,9.689 20.721,10 L20.721,18 Q20.721,20.561 19.626,21.655 Q18.531,22.75 15.971,22.75 L7.971,22.75 Q3.221,22.75 3.221,18 Q3.221,17.689 3.44,17.47 Q3.66,17.25 3.971,17.25 Q4.281,17.25 4.501,17.47 Q4.721,17.689 4.721,18 Z"/>
  <path fill="#292D32" d="M22.25,7 L22.25,8 Q22.25,9.179 21.616,9.906 Q20.88,10.75 19.5,10.75 L4.5,10.75 Q3.08,10.75 2.355,9.899 Q1.75,9.188 1.75,8 L1.75,7 Q1.75,4.25 4.5,4.25 L19.5,4.25 Q22.25,4.25 22.25,7 Z M20.75,7 Q20.75,5.75 19.5,5.75 L4.5,5.75 Q3.773,5.75 3.497,6.074 Q3.25,6.364 3.25,7 L3.25,8 Q3.25,8.636 3.497,8.926 Q3.773,9.25 4.5,9.25 L19.5,9.25 Q20.75,9.25 20.75,8 Z"/>
  <path fill="#292D32" d="M11.641,5.75 L6.121,5.75 Q5.791,5.75 5.569,5.507 Q4.474,4.316 5.62,3.17 L7.04,1.75 Q8.246,0.544 9.451,1.75 L12.171,4.47 Q12.391,4.689 12.391,5 Q12.391,5.311 12.171,5.53 Q11.951,5.75 11.641,5.75 Z M9.83,4.25 L8.39,2.81 Q8.246,2.666 8.101,2.81 L6.681,4.23 Q6.671,4.24 6.663,4.25 L9.83,4.25 Z"/>
  <path fill="#292D32" d="M17.87,5.75 L12.35,5.75 Q12.039,5.75 11.819,5.53 Q11.6,5.311 11.6,5 Q11.6,4.689 11.819,4.47 L14.539,1.75 Q15.036,1.252 15.745,1.252 Q16.453,1.252 16.95,1.75 L18.37,3.17 Q19.516,4.316 18.422,5.507 Q18.199,5.75 17.87,5.75 Z M17.327,4.25 Q17.319,4.24 17.309,4.23 L15.889,2.81 Q15.817,2.738 15.745,2.738 Q15.672,2.738 15.6,2.81 L14.16,4.25 L17.327,4.25 Z"/>
  <path fill="#292D32" d="M8.189,10 Q8.189,9.689 8.409,9.47 Q8.629,9.25 8.939,9.25 L14.969,9.25 Q15.28,9.25 15.5,9.47 Q15.719,9.689 15.719,10 L15.719,15.13 Q15.719,16.179 14.795,16.672 Q13.872,17.163 13,16.582 L12.113,15.984 Q11.982,15.896 11.842,15.986 L10.895,16.611 Q10.019,17.173 9.107,16.681 Q8.189,16.187 8.189,15.14 Z M9.689,10.75 L9.689,15.14 Q9.689,15.291 9.819,15.361 Q9.953,15.433 10.084,15.349 L11.017,14.734 Q11.994,14.102 12.946,14.736 L13.839,15.338 Q13.958,15.418 14.089,15.348 Q14.219,15.279 14.219,15.13 L14.219,10.75 L9.689,10.75 Z"/>
</svg>

