<svg xmlns="http://www.w3.org/2000/svg" width="24" height="24" viewBox="0 0 24 24">
  <defs/>
  <path fill="#292D32" d="M13.191,16.29 L10.81,16.29 L10.81,17.71 L13.191,17.71 L13.191,16.29 Z"/>
  <path fill="#292D32" d="M7.95,2.71 C7.95,3.11 7.63,3.43 7.24,3.43 L6.29,3.43 C4.58,3.43 3.19,4.82 3.19,6.52 L3.19,12.4 C2.34,12.83 1.76,13.71 1.76,14.73 L1.76,6.52 C1.76,4.03 3.79,2 6.29,2 L7.24,2 C7.63,2 7.95,2.32 7.95,2.71 Z"/>
  <path fill="#292D32" d="M22.241,6.52 L22.241,14.73 C22.241,13.71 21.661,12.83 20.811,12.4 L20.811,6.52 C20.811,4.82 19.421,3.43 17.711,3.43 L16.761,3.43 C16.371,3.43 16.051,3.11 16.051,2.71 C16.051,2.32 16.371,2 16.761,2 L17.711,2 C20.211,2 22.241,4.03 22.241,6.52 Z"/>
  <path fill="#292D32" opacity="0.4" d="M10.81,14.73 L10.81,19.38 C10.81,20.83 9.63,22 8.19,22 L4.38,22 C2.94,22 1.76,20.83 1.76,19.38 L1.76,14.73 C1.76,13.71 2.34,12.83 3.19,12.4 C3.55,12.21 3.95,12.11 4.38,12.11 L8.19,12.11 C9.63,12.11 10.81,13.28 10.81,14.73 Z"/>
  <path fill="#292D32" opacity="0.4" d="M22.239,14.73 L22.239,19.38 C22.239,20.83 21.059,22 19.619,22 L15.809,22 C14.37,22 13.19,20.83 13.19,19.38 L13.19,14.73 C13.19,13.28 14.37,12.11 15.809,12.11 L19.619,12.11 C20.049,12.11 20.45,12.21 20.809,12.4 C21.66,12.83 22.239,13.71 22.239,14.73 Z"/>
</svg>

