<svg xmlns="http://www.w3.org/2000/svg" width="24" height="24" viewBox="0 0 24 24">
  <defs/>
  <path fill="#292D32" d="M10,16.75 L14,16.75 Q14.311,16.75 14.53,16.97 Q14.75,17.189 14.75,17.5 Q14.75,17.811 14.53,18.03 Q14.311,18.25 14,18.25 L10,18.25 Q9.689,18.25 9.47,18.03 Q9.25,17.811 9.25,17.5 Q9.25,17.189 9.47,16.97 Q9.689,16.75 10,16.75 Z"/>
  <path fill="#292D32" d="M1.25,17.5 L1.25,7.5 Q1.25,4.189 2.47,2.97 Q3.689,1.75 7,1.75 Q7.311,1.75 7.53,1.97 Q7.75,2.189 7.75,2.5 Q7.75,2.811 7.53,3.03 Q7.311,3.25 7,3.25 Q4.311,3.25 3.53,4.03 Q2.75,4.811 2.75,7.5 L2.75,17.5 Q2.75,17.811 2.53,18.03 Q2.311,18.25 2,18.25 Q1.689,18.25 1.47,18.03 Q1.25,17.811 1.25,17.5 Z"/>
  <path fill="#292D32" d="M21.25,17.5 L21.25,7.5 Q21.25,4.811 20.47,4.03 Q19.689,3.25 17,3.25 Q16.689,3.25 16.47,3.03 Q16.25,2.811 16.25,2.5 Q16.25,2.189 16.47,1.97 Q16.689,1.75 17,1.75 Q20.311,1.75 21.53,2.97 Q22.75,4.189 22.75,7.5 L22.75,17.5 Q22.75,17.811 22.53,18.03 Q22.311,18.25 22,18.25 Q21.689,18.25 21.47,18.03 Q21.25,17.811 21.25,17.5 Z"/>
  <path fill="#292D32" d="M10.75,15.91 L10.75,19.2 Q10.75,22.75 7.2,22.75 L4.8,22.75 Q1.25,22.75 1.25,19.2 L1.25,15.91 Q1.25,12.36 4.8,12.36 L7.2,12.36 Q10.75,12.36 10.75,15.91 Z M9.25,15.91 Q9.25,13.86 7.2,13.86 L4.8,13.86 Q3.611,13.86 3.18,14.29 Q2.75,14.721 2.75,15.91 L2.75,19.2 Q2.75,20.389 3.18,20.82 Q3.611,21.25 4.8,21.25 L7.2,21.25 Q9.25,21.25 9.25,19.2 Z"/>
  <path fill="#292D32" d="M22.75,15.91 L22.75,19.2 Q22.75,22.75 19.2,22.75 L16.8,22.75 Q14.989,22.75 14.12,21.88 Q13.25,21.011 13.25,19.2 L13.25,15.91 Q13.25,12.36 16.8,12.36 L19.2,12.36 Q21.011,12.36 21.88,13.23 Q22.75,14.099 22.75,15.91 Z M21.25,15.91 Q21.25,13.86 19.2,13.86 L16.8,13.86 Q15.611,13.86 15.18,14.29 Q14.75,14.721 14.75,15.91 L14.75,19.2 Q14.75,21.25 16.8,21.25 L19.2,21.25 Q21.25,21.25 21.25,19.2 Z"/>
</svg>

