<svg xmlns="http://www.w3.org/2000/svg" width="24" height="24" viewBox="0 0 24 24">
  <defs/>
  <path fill="#292D32" d="M15.841,21.998 L8.161,21.998 C3.971,21.998 3.141,19.468 4.501,16.388 L5.941,13.118 C5.941,13.118 9.001,12.998 12.001,13.998 C15.001,14.998 17.831,13.108 17.831,13.108 L18.021,12.988 L19.511,16.398 C20.851,19.478 19.971,21.998 15.841,21.998 Z"/>
  <path fill="#292D32" d="M15.44,6.74 L15.28,6.74 L17.41,11.6 L17,11.86 C16.98,11.87 14.72,13.32 12.47,12.58 C10.12,11.79 7.76,11.65 6.6,11.63 L8.74,6.74 L8.44,6.74 C7.79,6.74 7.19,6.48 6.76,6.05 C6.33,5.62 6.07,5.02 6.07,4.37 C6.07,3.07 7.13,2 8.44,2 L15.55,2 C16.21,2 16.8,2.27 17.23,2.7 C17.79,3.26 18.08,4.08 17.86,4.95 C17.6,6.03 16.56,6.74 15.44,6.74 Z"/>
</svg>

