<svg xmlns="http://www.w3.org/2000/svg" width="24" height="24" viewBox="0 0 24 24">
  <defs/>
  <path fill="#292D32" d="M8.161,22.75 Q4.723,22.75 3.597,20.713 Q2.582,18.878 3.815,16.087 L7.644,7.393 Q6.853,7.193 6.24,6.58 Q5.321,5.682 5.321,4.37 Q5.321,3.083 6.233,2.168 Q7.149,1.25 8.441,1.25 L15.551,1.25 Q16.841,1.25 17.761,2.17 Q19.004,3.412 18.59,5.126 Q18.117,7.017 16.386,7.395 L20.188,16.1 Q21.408,18.884 20.379,20.722 Q19.242,22.75 15.831,22.75 Z M8.161,21.25 L15.831,21.25 Q18.363,21.25 19.07,19.988 Q19.735,18.802 18.814,16.7 L14.594,7.04 Q14.531,6.897 14.531,6.74 Q14.531,6.429 14.75,6.21 Q14.97,5.99 15.281,5.99 L15.441,5.99 Q16.828,5.99 17.132,4.774 Q17.348,3.878 16.7,3.23 Q16.22,2.75 15.551,2.75 L8.441,2.75 Q7.771,2.75 7.296,3.227 Q6.821,3.703 6.821,4.37 Q6.821,5.05 7.301,5.52 Q7.771,5.99 8.451,5.99 L8.751,5.99 Q8.909,5.99 9.053,6.054 Q9.337,6.179 9.45,6.468 Q9.562,6.758 9.437,7.042 L5.187,16.693 Q4.255,18.803 4.91,19.987 Q5.608,21.25 8.161,21.25 Z"/>
  <path fill="#292D32" opacity="0.4" d="M5.91,12.37 Q9.107,12.245 12.237,13.288 Q14.888,14.172 17.413,12.486 Q17.671,12.314 17.976,12.374 Q18.281,12.435 18.453,12.693 Q18.626,12.952 18.565,13.256 Q18.504,13.561 18.246,13.734 Q15.111,15.828 11.762,14.711 Q8.892,13.755 5.969,13.869 Q5.658,13.881 5.43,13.671 Q5.202,13.46 5.19,13.149 Q5.178,12.839 5.389,12.611 Q5.6,12.383 5.91,12.37 Z"/>
</svg>

