<svg xmlns="http://www.w3.org/2000/svg" width="24" height="24" viewBox="0 0 24 24">
  <defs/>
  <path fill="#292D32" d="M8.16,22.75 Q4.722,22.75 3.596,20.713 Q2.582,18.878 3.814,16.087 L7.643,7.393 Q6.853,7.193 6.24,6.58 Q5.32,5.682 5.32,4.37 Q5.32,3.083 6.233,2.168 Q7.148,1.25 8.44,1.25 L15.55,1.25 Q16.841,1.25 17.76,2.17 Q19.003,3.412 18.589,5.126 Q18.116,7.017 16.385,7.395 L20.187,16.1 Q21.408,18.884 20.378,20.722 Q19.241,22.75 15.83,22.75 Z M8.16,21.25 L15.83,21.25 Q18.363,21.25 19.069,19.988 Q19.734,18.802 18.813,16.7 L14.593,7.04 Q14.53,6.897 14.53,6.74 Q14.53,6.429 14.75,6.21 Q14.969,5.99 15.28,5.99 L15.44,5.99 Q16.827,5.99 17.131,4.774 Q17.347,3.878 16.7,3.23 Q16.219,2.75 15.55,2.75 L8.44,2.75 Q7.771,2.75 7.295,3.227 Q6.82,3.703 6.82,4.37 Q6.82,5.05 7.3,5.52 Q7.771,5.99 8.45,5.99 L8.75,5.99 Q8.908,5.99 9.052,6.054 Q9.337,6.179 9.449,6.468 Q9.562,6.758 9.436,7.042 L5.186,16.693 Q4.254,18.803 4.909,19.987 Q5.607,21.25 8.16,21.25 Z"/>
  <path fill="#292D32" d="M5.911,12.371 Q9.107,12.245 12.237,13.289 Q14.887,14.172 17.413,12.486 L17.414,12.486 Q17.672,12.314 17.977,12.375 Q18.281,12.435 18.454,12.694 Q18.626,12.952 18.566,13.257 Q18.505,13.561 18.247,13.734 L18.246,13.734 Q15.109,15.827 11.763,14.712 Q8.893,13.755 5.969,13.87 Q5.659,13.882 5.431,13.671 Q5.203,13.46 5.191,13.149 Q5.178,12.839 5.389,12.611 Q5.6,12.383 5.911,12.371 Z"/>
</svg>

