<svg xmlns="http://www.w3.org/2000/svg" width="24" height="24" viewBox="0 0 24 24">
  <defs/>
  <path fill="#292D32" d="M15.839,22.75 L8.159,22.75 C5.479,22.75 4.259,21.75 3.719,20.92 C2.929,19.7 2.959,18.03 3.809,16.09 L7.639,7.39 C7.109,7.25 6.619,6.97 6.229,6.58 C5.659,6 5.319,5.2 5.319,4.37 C5.319,2.65 6.719,1.25 8.439,1.25 L15.549,1.25 C16.379,1.25 17.169,1.58 17.759,2.17 C18.539,2.95 18.849,4.06 18.589,5.13 C18.329,6.2 17.449,7.05 16.369,7.36 L20.189,16.1 C21.029,18.03 21.059,19.7 20.259,20.92 C19.719,21.75 18.499,22.75 15.839,22.75 Z M8.439,2.75 C7.549,2.75 6.819,3.48 6.819,4.37 C6.819,4.8 6.999,5.22 7.289,5.52 C7.589,5.82 8.009,5.99 8.439,5.99 L8.739,5.99 C8.989,5.99 9.229,6.12 9.369,6.33 C9.509,6.54 9.529,6.81 9.429,7.04 L5.179,16.69 C4.549,18.13 4.469,19.34 4.969,20.1 C5.589,21.05 7.039,21.25 8.149,21.25 L15.829,21.25 C16.929,21.25 18.369,21.05 18.999,20.1 C19.499,19.33 19.429,18.13 18.809,16.7 L14.599,7.04 C14.499,6.81 14.519,6.54 14.659,6.33 C14.799,6.12 15.029,5.99 15.289,5.99 L15.449,5.99 C16.249,5.99 16.969,5.48 17.139,4.77 C17.279,4.2 17.119,3.64 16.709,3.23 C16.399,2.92 15.989,2.75 15.559,2.75 L8.439,2.75 Z"/>
  <path fill="#292D32" d="M13.841,15.04 C13.181,15.04 12.471,14.95 11.761,14.71 C8.921,13.76 5.991,13.86 5.961,13.86 C5.561,13.92 5.201,13.55 5.181,13.14 C5.161,12.73 5.491,12.38 5.901,12.36 C6.031,12.35 9.141,12.25 12.231,13.28 C14.831,14.15 17.381,12.5 17.411,12.48 C17.751,12.25 18.221,12.35 18.451,12.69 C18.681,13.03 18.591,13.5 18.241,13.73 C18.151,13.8 16.251,15.04 13.841,15.04 Z"/>
</svg>

