<svg xmlns="http://www.w3.org/2000/svg" width="24" height="24" viewBox="0 0 24 24">
  <defs/>
  <path fill="#292D32" d="M17.71,2 L16.76,2 C16.37,2 16.05,2.32 16.05,2.71 C16.05,3.11 16.37,3.43 16.76,3.43 L17.71,3.43 C19.42,3.43 20.81,4.82 20.81,6.52 L20.81,12.4 C20.45,12.21 20.05,12.11 19.62,12.11 L15.81,12.11 C14.37,12.11 13.19,13.28 13.19,14.73 L13.19,16.29 L10.81,16.29 L10.81,14.73 C10.81,13.28 9.63,12.11 8.19,12.11 L4.38,12.11 C3.95,12.11 3.55,12.21 3.19,12.4 L3.19,6.52 C3.19,4.82 4.58,3.43 6.29,3.43 L7.24,3.43 C7.63,3.43 7.95,3.11 7.95,2.71 C7.95,2.32 7.63,2 7.24,2 L6.29,2 C3.79,2 1.76,4.03 1.76,6.52 L1.76,14.73 L1.76,19.38 C1.76,20.83 2.94,22 4.38,22 L8.19,22 C9.63,22 10.81,20.83 10.81,19.38 L10.81,17.71 L13.19,17.71 L13.19,19.38 C13.19,20.83 14.37,22 15.81,22 L19.62,22 C21.06,22 22.24,20.83 22.24,19.38 L22.24,14.73 L22.24,6.52 C22.24,4.03 20.21,2 17.71,2 Z"/>
</svg>

