<svg xmlns="http://www.w3.org/2000/svg" width="24" height="24" viewBox="0 0 24 24">
  <defs/>
  <path fill="#292D32" d="M7.645,7.394 Q6.854,7.194 6.24,6.58 Q5.321,5.682 5.321,4.37 Q5.321,3.083 6.233,2.168 Q7.149,1.25 8.441,1.25 L15.551,1.25 Q16.841,1.25 17.761,2.17 Q19.004,3.412 18.59,5.126 Q18.117,7.017 16.386,7.395 L20.188,16.1 Q21.408,18.884 20.379,20.722 Q19.242,22.75 15.831,22.75 L8.161,22.75 Q4.723,22.75 3.597,20.713 Q2.582,18.878 3.815,16.087 L5.884,11.388 Q6.01,11.103 6.299,10.991 Q6.589,10.878 6.873,11.004 Q7.157,11.129 7.27,11.418 Q7.382,11.708 7.257,11.992 L5.187,16.693 Q4.255,18.803 4.91,19.987 Q5.608,21.25 8.161,21.25 L15.831,21.25 Q18.363,21.25 19.07,19.988 Q19.735,18.802 18.814,16.7 L14.594,7.04 Q14.531,6.897 14.531,6.74 Q14.531,6.429 14.75,6.21 Q14.97,5.99 15.281,5.99 L15.441,5.99 Q16.828,5.99 17.132,4.774 Q17.348,3.878 16.7,3.23 Q16.22,2.75 15.551,2.75 L8.441,2.75 Q7.771,2.75 7.296,3.227 Q6.821,3.703 6.821,4.37 Q6.821,5.05 7.301,5.52 Q7.771,5.99 8.451,5.99 L8.751,5.99 Q8.91,5.99 9.055,6.054 Q9.339,6.18 9.45,6.47 Q9.562,6.76 9.436,7.044 L9.046,7.924 Q8.921,8.208 8.631,8.32 Q8.341,8.432 8.057,8.306 Q7.773,8.18 7.661,7.89 Q7.564,7.64 7.645,7.394 Z"/>
  <path fill="#292D32" d="M5.91,12.371 Q9.107,12.245 12.237,13.289 Q14.887,14.172 17.413,12.486 L17.413,12.486 Q17.671,12.314 17.976,12.375 Q18.281,12.435 18.453,12.694 Q18.626,12.952 18.565,13.257 Q18.504,13.561 18.246,13.734 L18.246,13.734 Q15.109,15.827 11.762,14.712 Q8.892,13.755 5.969,13.87 Q5.658,13.882 5.43,13.671 Q5.202,13.46 5.19,13.149 Q5.178,12.839 5.389,12.611 Q5.6,12.383 5.91,12.371 Z"/>
</svg>

