<svg xmlns="http://www.w3.org/2000/svg" width="24" height="24" viewBox="0 0 24 24">
  <defs/>
  <path fill="#292D32" d="M14,18.25 L10,18.25 C9.59,18.25 9.25,17.91 9.25,17.5 C9.25,17.09 9.59,16.75 10,16.75 L14,16.75 C14.41,16.75 14.75,17.09 14.75,17.5 C14.75,17.91 14.41,18.25 14,18.25 Z"/>
  <path fill="#292D32" d="M2,18.25 C1.59,18.25 1.25,17.91 1.25,17.5 L1.25,7.5 C1.25,3.09 2.59,1.75 7,1.75 C7.41,1.75 7.75,2.09 7.75,2.5 C7.75,2.91 7.41,3.25 7,3.25 C3.43,3.25 2.75,3.92 2.75,7.5 L2.75,17.5 C2.75,17.91 2.41,18.25 2,18.25 Z"/>
  <path fill="#292D32" d="M22,18.25 C21.59,18.25 21.25,17.91 21.25,17.5 L21.25,7.5 C21.25,3.92 20.57,3.25 17,3.25 C16.59,3.25 16.25,2.91 16.25,2.5 C16.25,2.09 16.59,1.75 17,1.75 C21.41,1.75 22.75,3.09 22.75,7.5 L22.75,17.5 C22.75,17.91 22.41,18.25 22,18.25 Z"/>
  <path fill="#292D32" d="M7.2,22.75 L4.8,22.75 C2.38,22.75 1.25,21.62 1.25,19.2 L1.25,15.91 C1.25,13.49 2.38,12.36 4.8,12.36 L7.2,12.36 C9.62,12.36 10.75,13.49 10.75,15.91 L10.75,19.2 C10.75,21.62 9.62,22.75 7.2,22.75 Z M4.8,13.86 C3.21,13.86 2.75,14.32 2.75,15.91 L2.75,19.2 C2.75,20.79 3.21,21.25 4.8,21.25 L7.2,21.25 C8.79,21.25 9.25,20.79 9.25,19.2 L9.25,15.91 C9.25,14.32 8.79,13.86 7.2,13.86 L4.8,13.86 Z"/>
  <path fill="#292D32" d="M19.2,22.75 L16.8,22.75 C14.38,22.75 13.25,21.62 13.25,19.2 L13.25,15.91 C13.25,13.49 14.38,12.36 16.8,12.36 L19.2,12.36 C21.62,12.36 22.75,13.49 22.75,15.91 L22.75,19.2 C22.75,21.62 21.62,22.75 19.2,22.75 Z M16.8,13.86 C15.21,13.86 14.75,14.32 14.75,15.91 L14.75,19.2 C14.75,20.79 15.21,21.25 16.8,21.25 L19.2,21.25 C20.79,21.25 21.25,20.79 21.25,19.2 L21.25,15.91 C21.25,14.32 20.79,13.86 19.2,13.86 L16.8,13.86 Z"/>
</svg>

