<svg xmlns="http://www.w3.org/2000/svg" width="24" height="24" viewBox="0 0 24 24">
  <defs/>
  <path fill="#292D32" d="M15.841,22 L8.161,22 C3.971,22 3.141,19.47 4.501,16.39 L5.941,13.12 C5.941,13.12 9.001,13 12.001,14 C15.001,15 17.831,13.11 17.831,13.11 L18.021,12.99 L19.511,16.4 C20.851,19.48 19.971,22 15.841,22 Z"/>
  <path fill="#292D32" opacity="0.4" d="M18.02,12.99 L17.829,13.11 C17.829,13.11 14.999,15 11.999,14 C8.999,13 5.939,13.12 5.939,13.12 L8.739,6.74 L8.439,6.74 C7.789,6.74 7.189,6.48 6.759,6.05 C6.329,5.62 6.069,5.02 6.069,4.37 C6.069,3.07 7.129,2 8.439,2 L15.55,2 C16.209,2 16.799,2.27 17.23,2.7 C17.79,3.26 18.079,4.08 17.86,4.95 C17.599,6.03 16.559,6.74 15.44,6.74 L15.28,6.74 L18.02,12.99 Z"/>
</svg>

