<svg xmlns="http://www.w3.org/2000/svg" width="24" height="24" viewBox="0 0 24 24">
  <defs/>
  <path fill="#292D32" d="M18.73,14.671 L14.58,18.821 C14.42,18.981 14.27,19.291 14.23,19.511 L14,21.101 C13.92,21.671 14.32,22.081 14.89,21.991 L16.48,21.761 C16.7,21.731 17.01,21.571 17.17,21.411 L21.32,17.261 C22.03,16.551 22.37,15.711 21.32,14.661 C20.28,13.621 19.45,13.951 18.73,14.671 Z"/>
  <path fill="#292D32" d="M18.141,15.262 C18.491,16.522 19.481,17.502 20.741,17.862 L18.141,15.262 Z"/>
  <path fill="#292D32" d="M2.03,14.629 C2.03,14.659 2.01,14.699 2.01,14.729 C2.93,16.569 4.43,18.079 6.27,18.989 C6.3,18.989 6.34,18.969 6.37,18.969 C6.03,17.809 5.77,16.619 5.58,15.429 C4.38,15.229 3.19,14.969 2.03,14.629 Z"/>
  <path fill="#292D32" d="M19.07,6.431 C18.13,4.461 16.54,2.871 14.58,1.941 C14.94,3.131 15.24,4.351 15.44,5.571 C16.66,5.771 17.88,6.061 19.07,6.431 Z"/>
  <path fill="#292D32" d="M1.93,6.43 C3.13,6.07 4.35,5.77 5.57,5.57 C5.77,4.38 6.02,3.2 6.36,2.04 C6.33,2.04 6.29,2.02 6.26,2.02 C4.38,2.95 2.85,4.52 1.93,6.43 Z"/>
  <path fill="#292D32" d="M13.82,5.36 C13.58,4.06 13.28,2.76 12.85,1.5 C12.83,1.43 12.83,1.37 12.82,1.29 C12.08,1.11 11.3,1 10.5,1 C9.69,1 8.92,1.11 8.17,1.3 C8.16,1.37 8.17,1.43 8.15,1.51 C7.73,2.77 7.42,4.06 7.18,5.36 C9.39,5.12 11.61,5.12 13.82,5.36 Z"/>
  <path fill="#292D32" d="M5.36,7.18 C4.05,7.42 2.77,7.73 1.5,8.15 C1.43,8.17 1.37,8.17 1.3,8.18 C1.11,8.92 1,9.7 1,10.5 C1,11.31 1.11,12.08 1.3,12.83 C1.37,12.84 1.43,12.83 1.51,12.85 C2.77,13.27 4.06,13.58 5.37,13.82 C5.12,11.61 5.12,9.39 5.36,7.18 Z"/>
  <path fill="#292D32" d="M19.701,8.18 C19.631,8.18 19.571,8.17 19.491,8.15 C18.231,7.73 16.931,7.42 15.631,7.18 C15.881,9.39 15.881,11.61 15.631,13.81 C16.931,13.57 18.231,13.27 19.491,12.84 C19.561,12.82 19.621,12.83 19.701,12.82 C19.881,12.07 20.001,11.3 20.001,10.49 C20.001,9.7 19.891,8.93 19.701,8.18 Z"/>
  <path fill="#292D32" d="M7.18,15.639 C7.42,16.949 7.72,18.239 8.15,19.499 C8.17,19.569 8.16,19.629 8.17,19.709 C8.92,19.889 9.69,19.999 10.5,19.999 C11.3,19.999 12.08,19.889 12.82,19.699 C12.83,19.629 12.83,19.569 12.85,19.489 C13.27,18.229 13.58,16.939 13.82,15.629 C12.72,15.749 11.61,15.839 10.5,15.839 C9.39,15.839 8.28,15.759 7.18,15.639 Z"/>
  <path fill="#292D32" d="M6.95,6.952 C6.65,9.312 6.65,11.692 6.95,14.062 C9.31,14.362 11.69,14.362 14.06,14.062 C14.36,11.702 14.36,9.322 14.06,6.952 C11.69,6.652 9.31,6.652 6.95,6.952 Z"/>
</svg>

