<svg xmlns="http://www.w3.org/2000/svg" width="24" height="24" viewBox="0 0 24 24">
  <defs/>
  <path fill="#292D32" d="M12,22.75 C6.07,22.75 1.25,17.93 1.25,12 C1.25,6.07 6.07,1.25 12,1.25 C17.93,1.25 22.75,6.07 22.75,12 C22.75,12.41 22.41,12.75 22,12.75 C21.59,12.75 21.25,12.41 21.25,12 C21.25,6.9 17.1,2.75 12,2.75 C6.9,2.75 2.75,6.9 2.75,12 C2.75,17.1 6.9,21.25 12,21.25 C12.41,21.25 12.75,21.59 12.75,22 C12.75,22.41 12.41,22.75 12,22.75 Z"/>
  <path fill="#292D32" d="M9,21.75 L8,21.75 C7.59,21.75 7.25,21.41 7.25,21 C7.25,20.59 7.57,20.26 7.98,20.25 C6.41,14.89 6.41,9.11 7.98,3.75 C7.58,3.74 7.25,3.41 7.25,3 C7.25,2.59 7.59,2.25 8,2.25 L9,2.25 C9.24,2.25 9.47,2.37 9.61,2.56 C9.75,2.76 9.79,3.01 9.71,3.24 C7.83,8.89 7.83,15.12 9.71,20.77 C9.79,21 9.75,21.25 9.61,21.45 C9.47,21.65 9.24,21.75 9,21.75 Z"/>
  <path fill="#292D32" d="M16.46,12.75 C16.05,12.75 15.71,12.41 15.71,12 C15.71,9.02 15.23,6.07 14.29,3.24 C14.16,2.85 14.37,2.42 14.76,2.29 C15.15,2.16 15.58,2.37 15.71,2.76 C16.7,5.74 17.21,8.85 17.21,12 C17.21,12.41 16.87,12.75 16.46,12.75 Z"/>
  <path fill="#292D32" d="M12,17.21 C9.2,17.21 6.43,16.81 3.75,16.02 C3.74,16.42 3.41,16.75 3,16.75 C2.59,16.75 2.25,16.41 2.25,16 L2.25,15 C2.25,14.76 2.37,14.53 2.56,14.39 C2.75,14.25 3.01,14.21 3.24,14.29 C6.07,15.23 9.02,15.71 12,15.71 C12.41,15.71 12.75,16.05 12.75,16.46 C12.75,16.87 12.41,17.21 12,17.21 Z"/>
  <path fill="#292D32" d="M21.001,9.75 C20.921,9.75 20.841,9.74 20.761,9.71 C15.111,7.83 8.881,7.83 3.231,9.71 C2.841,9.84 2.411,9.63 2.281,9.24 C2.151,8.85 2.361,8.42 2.751,8.29 C8.711,6.3 15.271,6.3 21.221,8.29 C21.611,8.42 21.821,8.85 21.691,9.24 C21.611,9.55 21.311,9.75 21.001,9.75 Z"/>
  <path fill="#292D32" d="M15.82,22.75 C15.44,22.75 15.08,22.61 14.82,22.35 C14.51,22.04 14.37,21.59 14.44,21.12 L14.63,19.77 C14.68,19.42 14.89,19 15.14,18.75 L18.68,15.21 C19.16,14.73 19.63,14.48 20.14,14.43 C20.77,14.37 21.38,14.63 21.96,15.21 C22.54,15.79 22.8,16.4 22.74,17.03 C22.69,17.53 22.43,18.01 21.96,18.49 L18.42,22.03 C18.17,22.28 17.76,22.49 17.41,22.54 L16.06,22.73 C15.97,22.74 15.9,22.75 15.82,22.75 Z M20.31,15.92 C20.3,15.92 20.29,15.92 20.28,15.92 C20.14,15.93 19.95,16.05 19.74,16.27 L16.2,19.81 C16.17,19.84 16.12,19.94 16.12,19.98 L15.94,21.23 L17.19,21.05 C17.23,21.04 17.33,20.99 17.36,20.96 L20.9,17.42 C21.11,17.21 21.24,17.02 21.25,16.88 C21.27,16.68 21.07,16.44 20.9,16.27 C20.74,16.11 20.51,15.92 20.31,15.92 Z"/>
  <path fill="#292D32" d="M20.921,19.22 C20.851,19.22 20.781,19.21 20.721,19.19 C19.401,18.82 18.351,17.77 17.981,16.45 C17.871,16.05 18.101,15.64 18.501,15.53 C18.901,15.42 19.311,15.65 19.431,16.05 C19.661,16.87 20.311,17.52 21.131,17.75 C21.531,17.86 21.761,18.28 21.651,18.67 C21.551,19 21.251,19.22 20.921,19.22 Z"/>
</svg>

