<svg xmlns="http://www.w3.org/2000/svg" width="24" height="24" viewBox="0 0 24 24">
  <defs/>
  <path fill="#292D32" d="M18.73,14.67 L14.58,18.82 C14.42,18.98 14.27,19.29 14.23,19.51 L14,21.1 C13.92,21.67 14.32,22.08 14.89,21.99 L16.48,21.76 C16.7,21.73 17.01,21.57 17.17,21.41 L21.32,17.26 C22.03,16.55 22.37,15.71 21.32,14.66 C20.28,13.62 19.45,13.95 18.73,14.67 Z"/>
  <path fill="#292D32" d="M18.141,15.26 C18.491,16.52 19.481,17.5 20.741,17.86 L18.141,15.26 Z"/>
  <path fill="#292D32" opacity="0.4" d="M2.03,14.63 C2.03,14.66 2.01,14.7 2.01,14.73 C2.93,16.57 4.43,18.08 6.27,18.99 C6.3,18.99 6.34,18.97 6.37,18.97 C6.03,17.81 5.77,16.62 5.58,15.43 C4.38,15.23 3.19,14.97 2.03,14.63 Z"/>
  <path fill="#292D32" opacity="0.4" d="M19.07,6.43 C18.13,4.46 16.54,2.87 14.58,1.94 C14.94,3.13 15.24,4.35 15.44,5.57 C16.66,5.77 17.88,6.06 19.07,6.43 Z"/>
  <path fill="#292D32" opacity="0.4" d="M1.93,6.43 C3.13,6.07 4.35,5.77 5.57,5.57 C5.77,4.38 6.02,3.2 6.36,2.04 C6.33,2.04 6.29,2.02 6.26,2.02 C4.38,2.95 2.85,4.52 1.93,6.43 Z"/>
  <path fill="#292D32" opacity="0.4" d="M13.82,5.36 C13.58,4.06 13.28,2.76 12.85,1.5 C12.83,1.43 12.83,1.37 12.82,1.29 C12.08,1.11 11.3,0.99 10.5,0.99 C9.69,0.99 8.92,1.1 8.17,1.29 C8.16,1.36 8.17,1.42 8.15,1.5 C7.73,2.76 7.42,4.06 7.18,5.36 C9.39,5.12 11.61,5.12 13.82,5.36 Z"/>
  <path fill="#292D32" opacity="0.4" d="M5.36,7.18 C4.05,7.42 2.76,7.72 1.5,8.15 C1.43,8.17 1.37,8.17 1.29,8.18 C1.11,8.92 0.99,9.7 0.99,10.5 C0.99,11.31 1.1,12.08 1.29,12.83 C1.36,12.84 1.42,12.83 1.5,12.85 C2.76,13.27 4.05,13.58 5.36,13.82 C5.12,11.61 5.12,9.39 5.36,7.18 Z"/>
  <path fill="#292D32" opacity="0.4" d="M19.701,8.18 C19.631,8.18 19.571,8.17 19.491,8.15 C18.231,7.73 16.931,7.42 15.631,7.18 C15.881,9.39 15.881,11.61 15.631,13.81 C16.931,13.57 18.231,13.27 19.491,12.84 C19.561,12.82 19.621,12.83 19.701,12.82 C19.881,12.07 20.001,11.3 20.001,10.49 C20.001,9.7 19.891,8.93 19.701,8.18 Z"/>
  <path fill="#292D32" opacity="0.4" d="M7.18,15.64 C7.42,16.95 7.72,18.24 8.15,19.5 C8.17,19.57 8.16,19.63 8.17,19.71 C8.92,19.89 9.69,20.01 10.5,20.01 C11.3,20.01 12.08,19.9 12.82,19.71 C12.83,19.64 12.83,19.58 12.85,19.5 C13.27,18.24 13.58,16.95 13.82,15.64 C12.72,15.76 11.61,15.85 10.5,15.85 C9.39,15.84 8.28,15.76 7.18,15.64 Z"/>
  <path fill="#292D32" opacity="0.4" d="M6.95,6.95 C6.65,9.31 6.65,11.69 6.95,14.06 C9.31,14.36 11.69,14.36 14.06,14.06 C14.36,11.7 14.36,9.32 14.06,6.95 C11.69,6.65 9.31,6.65 6.95,6.95 Z"/>
</svg>

