<svg xmlns="http://www.w3.org/2000/svg" width="24" height="24" viewBox="0 0 24 24">
  <defs/>
  <path fill="#292D32" d="M21.25,12 Q21.25,8.171 18.54,5.46 Q15.829,2.75 12,2.75 Q8.171,2.75 5.46,5.46 Q2.75,8.171 2.75,12 Q2.75,15.829 5.46,18.54 Q8.171,21.25 12,21.25 Q12.311,21.25 12.53,21.47 Q12.75,21.689 12.75,22 Q12.75,22.311 12.53,22.53 Q12.311,22.75 12,22.75 Q7.549,22.75 4.4,19.6 Q1.25,16.451 1.25,12 Q1.25,7.549 4.4,4.4 Q7.549,1.25 12,1.25 Q16.451,1.25 19.6,4.4 Q22.75,7.549 22.75,12 Q22.75,12.311 22.53,12.53 Q22.311,12.75 22,12.75 Q21.689,12.75 21.47,12.53 Q21.25,12.311 21.25,12 Z"/>
  <g opacity="0.4">
    <path fill="#292D32" d="M8,2.25 L9,2.25 Q9.31,2.25 9.53,2.47 Q9.75,2.689 9.75,3 Q9.75,3.122 9.711,3.238 Q6.785,12 9.711,20.762 Q9.809,21.057 9.671,21.335 Q9.532,21.613 9.237,21.711 Q9.122,21.75 9,21.75 L8,21.75 Q7.689,21.75 7.469,21.53 Q7.25,21.311 7.25,21 Q7.25,20.689 7.469,20.47 Q7.681,20.258 7.976,20.25 Q5.516,12 7.976,3.75 Q7.681,3.742 7.469,3.53 Q7.25,3.311 7.25,3 Q7.25,2.689 7.469,2.47 Q7.689,2.25 8,2.25 Z"/>
    <path fill="#292D32" d="M15.712,2.764 Q17.21,7.274 17.21,12 Q17.21,12.311 16.99,12.53 Q16.771,12.75 16.46,12.75 Q16.149,12.75 15.93,12.53 Q15.71,12.311 15.71,12 Q15.71,7.516 14.288,3.236 Q14.19,2.942 14.33,2.664 Q14.469,2.386 14.764,2.288 Q15.058,2.19 15.336,2.33 Q15.614,2.469 15.712,2.764 Z"/>
    <path fill="#292D32" d="M2.25,16 L2.25,15 Q2.25,14.689 2.47,14.47 Q2.689,14.25 3,14.25 Q3.121,14.25 3.236,14.288 Q7.516,15.71 12,15.71 Q12.311,15.71 12.53,15.93 Q12.75,16.149 12.75,16.46 Q12.75,16.771 12.53,16.99 Q12.311,17.21 12,17.21 Q7.789,17.21 3.75,16.021 Q3.743,16.318 3.53,16.53 Q3.311,16.75 3,16.75 Q2.689,16.75 2.47,16.53 Q2.25,16.311 2.25,16 Z"/>
    <path fill="#292D32" d="M2.762,8.289 Q12,5.204 21.238,8.289 Q21.532,8.387 21.671,8.665 Q21.81,8.943 21.711,9.238 Q21.613,9.532 21.335,9.671 Q21.057,9.81 20.762,9.711 Q12,6.786 3.238,9.711 Q2.943,9.81 2.665,9.671 Q2.387,9.532 2.289,9.238 Q2.19,8.943 2.329,8.665 Q2.468,8.387 2.762,8.289 Z"/>
  </g>
  <path fill="#292D32" d="M18.2,22.15 Q16.564,22.15 15.407,20.993 Q14.25,19.836 14.25,18.2 Q14.25,14.25 18.2,14.25 Q19.836,14.25 20.993,15.407 Q22.15,16.564 22.15,18.2 Q22.15,22.15 18.2,22.15 Z M18.2,20.65 Q19.215,20.65 19.932,19.932 Q20.65,19.215 20.65,18.2 Q20.65,17.185 19.932,16.468 Q19.215,15.75 18.2,15.75 Q15.75,15.75 15.75,18.2 Q15.75,19.215 16.468,19.932 Q17.185,20.65 18.2,20.65 Z"/>
  <path fill="#292D32" d="M21.47,22.53 L20.47,21.53 Q20.25,21.311 20.25,21 Q20.25,20.689 20.47,20.47 Q20.689,20.25 21,20.25 Q21.311,20.25 21.53,20.47 L22.53,21.47 Q22.75,21.689 22.75,22 Q22.75,22.311 22.53,22.53 Q22.311,22.75 22,22.75 Q21.689,22.75 21.47,22.53 Z"/>
</svg>

