<svg xmlns="http://www.w3.org/2000/svg" width="24" height="24" viewBox="0 0 24 24">
  <defs/>
  <path fill="#292D32" d="M20.764,9.712 Q16.484,8.29 12,8.29 Q11.689,8.29 11.47,8.07 Q11.25,7.851 11.25,7.54 Q11.25,7.229 11.47,7.01 Q11.689,6.79 12,6.79 Q16.726,6.79 21.236,8.288 Q21.531,8.386 21.67,8.664 Q21.81,8.942 21.712,9.236 Q21.614,9.531 21.336,9.671 Q21.058,9.81 20.764,9.712 Z"/>
  <path fill="#292D32" d="M2.763,8.289 Q5.149,7.493 7.737,7.099 Q8.044,7.052 8.294,7.236 Q8.545,7.42 8.591,7.727 Q8.638,8.034 8.454,8.284 Q8.27,8.535 7.963,8.582 Q5.502,8.957 3.237,9.712 Q2.942,9.81 2.665,9.671 Q2.387,9.532 2.288,9.237 Q2.19,8.943 2.329,8.665 Q2.468,8.387 2.763,8.289 Z"/>
  <path fill="#292D32" d="M21.25,12 Q21.25,8.171 18.54,5.46 Q15.829,2.75 12,2.75 Q8.171,2.75 5.46,5.46 Q2.75,8.171 2.75,12 Q2.75,15.829 5.46,18.54 Q8.171,21.25 12,21.25 Q12.311,21.25 12.53,21.47 Q12.75,21.689 12.75,22 Q12.75,22.311 12.53,22.53 Q12.311,22.75 12,22.75 Q7.549,22.75 4.4,19.6 Q1.25,16.451 1.25,12 Q1.25,7.549 4.4,4.4 Q7.549,1.25 12,1.25 Q16.451,1.25 19.6,4.4 Q22.75,7.549 22.75,12 Q22.75,12.311 22.53,12.53 Q22.311,12.75 22,12.75 Q21.689,12.75 21.47,12.53 Q21.25,12.311 21.25,12 Z"/>
  <path fill="#292D32" d="M8,2.25 L9,2.25 Q9.31,2.25 9.53,2.47 Q9.75,2.689 9.75,3 Q9.75,3.122 9.711,3.238 Q6.785,12 9.711,20.762 Q9.809,21.057 9.671,21.335 Q9.532,21.613 9.237,21.711 Q9.122,21.75 9,21.75 L8,21.75 Q7.689,21.75 7.469,21.53 Q7.25,21.311 7.25,21 Q7.25,20.689 7.469,20.47 Q7.681,20.258 7.976,20.25 Q5.516,12 7.976,3.75 Q7.681,3.742 7.469,3.53 Q7.25,3.311 7.25,3 Q7.25,2.689 7.469,2.47 Q7.689,2.25 8,2.25 Z"/>
  <path fill="#292D32" d="M15.712,2.764 Q17.21,7.274 17.21,12 Q17.21,12.311 16.99,12.53 Q16.771,12.75 16.46,12.75 Q16.149,12.75 15.93,12.53 Q15.71,12.311 15.71,12 Q15.71,7.516 14.288,3.236 Q14.19,2.942 14.33,2.664 Q14.469,2.386 14.764,2.288 Q15.058,2.19 15.336,2.33 Q15.614,2.469 15.712,2.764 Z"/>
  <path fill="#292D32" d="M2.25,16 L2.25,15 Q2.25,14.689 2.47,14.47 Q2.689,14.25 3,14.25 Q3.121,14.25 3.236,14.288 Q7.516,15.71 12,15.71 Q12.311,15.71 12.53,15.93 Q12.75,16.149 12.75,16.46 Q12.75,16.771 12.53,16.99 Q12.311,17.21 12,17.21 Q7.789,17.21 3.75,16.021 Q3.743,16.318 3.53,16.53 Q3.311,16.75 3,16.75 Q2.689,16.75 2.47,16.53 Q2.25,16.311 2.25,16 Z"/>
  <path fill="#292D32" d="M18.679,15.21 Q19.385,14.503 20.132,14.426 Q21.079,14.329 21.949,15.2 Q23.59,16.84 21.949,18.48 L18.418,22.012 Q18.019,22.434 17.394,22.533 L16.045,22.722 Q15.306,22.828 14.819,22.34 Q14.331,21.853 14.436,21.115 L14.628,19.753 Q14.721,19.168 15.139,18.75 Z M19.739,16.27 L16.199,19.81 Q16.126,19.884 16.11,19.987 L15.936,21.223 L17.185,21.047 Q17.281,21.032 17.33,20.98 Q17.339,20.969 17.349,20.96 L20.889,17.42 Q21.468,16.84 20.889,16.26 Q20.609,15.98 20.327,15.978 Q20.034,15.975 19.739,16.27 Z"/>
  <path fill="#292D32" d="M19.422,16.049 Q19.791,17.378 21.12,17.747 Q21.419,17.831 21.572,18.101 Q21.725,18.371 21.642,18.671 Q21.559,18.97 21.288,19.123 Q21.018,19.276 20.718,19.193 Q18.573,18.597 17.977,16.451 Q17.893,16.151 18.046,15.881 Q18.199,15.611 18.498,15.527 Q18.798,15.444 19.068,15.597 Q19.339,15.75 19.422,16.049 Z"/>
</svg>

