<svg xmlns="http://www.w3.org/2000/svg" width="24" height="24" viewBox="0 0 24 24">
  <defs/>
  <path fill="#292D32" d="M7.649,20.91 C7.619,20.91 7.579,20.93 7.549,20.93 C5.609,19.97 4.029,18.38 3.059,16.44 C3.059,16.41 3.079,16.37 3.079,16.34 C4.299,16.7 5.559,16.97 6.809,17.18 C7.029,18.44 7.289,19.69 7.649,20.91 Z"/>
  <path fill="#292D32" d="M20.939,16.45 C19.949,18.44 18.299,20.05 16.289,21.02 C16.669,19.75 16.989,18.47 17.199,17.18 C18.459,16.97 19.699,16.7 20.919,16.34 C20.909,16.38 20.939,16.42 20.939,16.45 Z"/>
  <path fill="#292D32" d="M21.019,7.71 C19.759,7.33 18.489,7.02 17.199,6.8 C16.989,5.51 16.679,4.23 16.289,2.98 C18.359,3.97 20.029,5.64 21.019,7.71 Z"/>
  <path fill="#292D32" d="M7.65,3.089 C7.29,4.309 7.03,5.549 6.82,6.809 C5.53,7.009 4.25,7.329 2.98,7.709 C3.95,5.699 5.56,4.049 7.55,3.059 C7.58,3.059 7.62,3.089 7.65,3.089 Z"/>
  <path fill="#292D32" d="M15.492,6.59 C13.172,6.33 10.832,6.33 8.512,6.59 C8.762,5.22 9.082,3.85 9.532,2.53 C9.552,2.45 9.542,2.39 9.552,2.31 C10.342,2.12 11.152,2 12.002,2 C12.842,2 13.662,2.12 14.442,2.31 C14.452,2.39 14.452,2.45 14.472,2.53 C14.922,3.86 15.242,5.22 15.492,6.59 Z"/>
  <path fill="#292D32" d="M6.59,15.492 C5.21,15.242 3.85,14.922 2.53,14.472 C2.45,14.452 2.39,14.462 2.31,14.452 C2.12,13.662 2,12.852 2,12.002 C2,11.162 2.12,10.342 2.31,9.562 C2.39,9.552 2.45,9.552 2.53,9.532 C3.86,9.092 5.21,8.762 6.59,8.512 C6.34,10.832 6.34,13.172 6.59,15.492 Z"/>
  <path fill="#292D32" d="M22,12.002 C22,12.852 21.88,13.662 21.69,14.452 C21.61,14.462 21.55,14.452 21.47,14.472 C20.14,14.912 18.78,15.242 17.41,15.492 C17.67,13.172 17.67,10.832 17.41,8.512 C18.78,8.762 20.15,9.082 21.47,9.532 C21.55,9.552 21.61,9.562 21.69,9.562 C21.88,10.352 22,11.162 22,12.002 Z"/>
  <path fill="#292D32" d="M15.492,17.41 C15.242,18.79 14.922,20.15 14.472,21.47 C14.452,21.55 14.452,21.61 14.442,21.69 C13.662,21.88 12.842,22 12.002,22 C11.152,22 10.342,21.88 9.552,21.69 C9.542,21.61 9.552,21.55 9.532,21.47 C9.092,20.14 8.762,18.79 8.512,17.41 C9.672,17.54 10.832,17.63 12.002,17.63 C13.172,17.63 14.342,17.54 15.492,17.41 Z"/>
  <path fill="#292D32" d="M15.763,15.763 C13.262,16.079 10.738,16.079 8.237,15.763 C7.921,13.262 7.921,10.738 8.237,8.237 C10.738,7.921 13.262,7.921 15.763,8.237 C16.079,10.738 16.079,13.262 15.763,15.763 Z"/>
</svg>

