<svg xmlns="http://www.w3.org/2000/svg" width="24" height="24" viewBox="0 0 24 24">
  <defs/>
  <path fill="#292D32" d="M12,22.75 C6.07,22.75 1.25,17.93 1.25,12 C1.25,6.07 6.07,1.25 12,1.25 C17.93,1.25 22.75,6.07 22.75,12 C22.75,12.41 22.41,12.75 22,12.75 C21.59,12.75 21.25,12.41 21.25,12 C21.25,6.9 17.1,2.75 12,2.75 C6.9,2.75 2.75,6.9 2.75,12 C2.75,17.1 6.9,21.25 12,21.25 C12.41,21.25 12.75,21.59 12.75,22 C12.75,22.41 12.41,22.75 12,22.75 Z"/>
  <path fill="#292D32" d="M9,21.75 L8,21.75 C7.59,21.75 7.25,21.41 7.25,21 C7.25,20.59 7.57,20.26 7.98,20.25 C6.41,14.89 6.41,9.11 7.98,3.75 C7.58,3.74 7.25,3.41 7.25,3 C7.25,2.59 7.59,2.25 8,2.25 L9,2.25 C9.24,2.25 9.47,2.37 9.61,2.56 C9.75,2.76 9.79,3.01 9.71,3.24 C7.83,8.89 7.83,15.12 9.71,20.77 C9.79,21 9.75,21.25 9.61,21.45 C9.47,21.65 9.24,21.75 9,21.75 Z"/>
  <path fill="#292D32" d="M16.46,12.75 C16.05,12.75 15.71,12.41 15.71,12 C15.71,9.02 15.23,6.07 14.29,3.24 C14.16,2.85 14.37,2.42 14.76,2.29 C15.15,2.16 15.58,2.37 15.71,2.76 C16.7,5.74 17.21,8.85 17.21,12 C17.21,12.41 16.87,12.75 16.46,12.75 Z"/>
  <path fill="#292D32" d="M12,17.21 C9.2,17.21 6.43,16.81 3.75,16.02 C3.74,16.42 3.41,16.75 3,16.75 C2.59,16.75 2.25,16.41 2.25,16 L2.25,15 C2.25,14.76 2.37,14.53 2.56,14.39 C2.75,14.25 3.01,14.21 3.24,14.29 C6.07,15.23 9.02,15.71 12,15.71 C12.41,15.71 12.75,16.05 12.75,16.46 C12.75,16.87 12.41,17.21 12,17.21 Z"/>
  <path fill="#292D32" d="M21.001,9.75 C20.921,9.75 20.841,9.74 20.761,9.71 C15.111,7.83 8.881,7.83 3.231,9.71 C2.841,9.84 2.411,9.63 2.281,9.24 C2.151,8.85 2.361,8.42 2.751,8.29 C8.711,6.3 15.271,6.3 21.221,8.29 C21.611,8.42 21.821,8.85 21.691,9.24 C21.611,9.55 21.311,9.75 21.001,9.75 Z"/>
  <path fill="#292D32" d="M18.26,22.75 C15.78,22.75 13.77,20.73 13.77,18.26 C13.77,15.79 15.79,13.76 18.26,13.76 C18.76,13.76 19.26,13.83 19.73,13.98 C20.13,14.1 20.35,14.52 20.23,14.92 C20.11,15.32 19.69,15.54 19.29,15.42 C18.96,15.32 18.61,15.27 18.26,15.27 C16.61,15.27 15.27,16.61 15.27,18.27 C15.27,19.93 16.61,21.26 18.26,21.26 C19.91,21.26 21.25,19.92 21.25,18.27 C21.25,17.67 21.079,17.1 20.75,16.61 C20.52,16.27 20.61,15.8 20.959,15.57 C21.299,15.34 21.77,15.43 22,15.78 C22.5,16.52 22.76,17.39 22.76,18.28 C22.75,20.73 20.73,22.75 18.26,22.75 Z"/>
  <path fill="#292D32" d="M20.039,15.55 C19.829,15.55 19.619,15.46 19.469,15.29 L18.219,13.86 C17.949,13.55 17.979,13.07 18.289,12.8 C18.599,12.53 19.069,12.56 19.349,12.87 L20.599,14.3 C20.869,14.61 20.839,15.09 20.529,15.36 C20.389,15.49 20.219,15.55 20.039,15.55 Z"/>
  <path fill="#292D32" d="M18.581,16.61 C18.351,16.61 18.12,16.5 17.971,16.3 C17.73,15.97 17.8,15.5 18.131,15.25 L19.59,14.19 C19.921,13.94 20.39,14.02 20.64,14.35 C20.881,14.68 20.811,15.15 20.48,15.4 L19.02,16.46 C18.89,16.56 18.741,16.61 18.581,16.61 Z"/>
</svg>

