<svg xmlns="http://www.w3.org/2000/svg" width="24" height="24" viewBox="0 0 24 24">
  <defs/>
  <path fill="#292D32" d="M22.65,18.13 C22.55,17.73 22.15,17.48 21.75,17.58 C21.35,17.68 21.1,18.08 21.19,18.48 C21.23,18.65 21.25,18.82 21.25,19 C21.25,20.24 20.24,21.25 19,21.25 C17.76,21.25 16.75,20.24 16.75,19 C16.75,17.9 17.54,16.99 18.59,16.79 C18.49,17.02 18.5,17.3 18.66,17.52 C18.81,17.72 19.04,17.83 19.27,17.83 C19.42,17.83 19.58,17.78 19.71,17.69 L20.88,16.84 C20.89,16.83 20.89,16.82 20.9,16.82 C20.91,16.81 20.92,16.81 20.93,16.8 C20.96,16.77 20.98,16.74 21,16.7 C21.03,16.66 21.07,16.63 21.09,16.58 C21.11,16.54 21.12,16.49 21.14,16.45 C21.15,16.4 21.17,16.36 21.18,16.31 C21.19,16.26 21.18,16.22 21.17,16.17 C21.17,16.12 21.17,16.07 21.15,16.02 C21.14,15.97 21.11,15.93 21.09,15.89 C21.07,15.85 21.06,15.81 21.04,15.78 C21.03,15.77 21.02,15.77 21.01,15.76 C21,15.75 21,15.74 20.99,15.73 L19.99,14.58 C19.72,14.27 19.24,14.23 18.93,14.51 C18.71,14.71 18.63,15 18.71,15.27 C16.78,15.42 15.25,17.02 15.25,18.99 C15.25,21.06 16.93,22.74 19,22.74 C21.07,22.74 22.75,21.06 22.75,18.99 C22.75,18.71 22.72,18.41 22.65,18.13 Z"/>
  <path fill="#292D32" opacity="0.4" d="M2.03,14.63 C2.03,14.66 2.01,14.7 2.01,14.73 C2.93,16.57 4.43,18.08 6.27,18.99 C6.3,18.99 6.34,18.97 6.37,18.97 C6.03,17.81 5.77,16.62 5.58,15.43 C4.38,15.23 3.19,14.97 2.03,14.63 Z"/>
  <path fill="#292D32" opacity="0.4" d="M19.07,6.43 C18.13,4.46 16.54,2.87 14.58,1.94 C14.94,3.13 15.24,4.35 15.44,5.57 C16.66,5.77 17.88,6.06 19.07,6.43 Z"/>
  <path fill="#292D32" opacity="0.4" d="M1.93,6.43 C3.13,6.07 4.35,5.77 5.57,5.57 C5.77,4.38 6.02,3.2 6.36,2.04 C6.33,2.04 6.29,2.02 6.26,2.02 C4.38,2.95 2.85,4.52 1.93,6.43 Z"/>
  <path fill="#292D32" opacity="0.4" d="M13.82,5.36 C13.58,4.06 13.28,2.76 12.85,1.5 C12.83,1.43 12.83,1.37 12.82,1.29 C12.08,1.11 11.3,0.99 10.5,0.99 C9.69,0.99 8.92,1.1 8.17,1.29 C8.16,1.36 8.17,1.42 8.15,1.5 C7.73,2.76 7.42,4.06 7.18,5.36 C9.39,5.12 11.61,5.12 13.82,5.36 Z"/>
  <path fill="#292D32" opacity="0.4" d="M5.36,7.18 C4.05,7.42 2.76,7.72 1.5,8.15 C1.43,8.17 1.37,8.17 1.29,8.18 C1.11,8.92 0.99,9.7 0.99,10.5 C0.99,11.31 1.1,12.08 1.29,12.83 C1.36,12.84 1.42,12.83 1.5,12.85 C2.76,13.27 4.05,13.58 5.36,13.82 C5.12,11.61 5.12,9.39 5.36,7.18 Z"/>
  <path fill="#292D32" opacity="0.4" d="M19.701,8.18 C19.631,8.18 19.571,8.17 19.491,8.15 C18.231,7.73 16.931,7.42 15.631,7.18 C15.881,9.39 15.881,11.61 15.631,13.81 C16.931,13.57 18.231,13.27 19.491,12.84 C19.561,12.82 19.621,12.83 19.701,12.82 C19.881,12.07 20.001,11.3 20.001,10.49 C20.001,9.7 19.891,8.93 19.701,8.18 Z"/>
  <path fill="#292D32" opacity="0.4" d="M7.18,15.64 C7.42,16.95 7.72,18.24 8.15,19.5 C8.17,19.57 8.16,19.63 8.17,19.71 C8.92,19.89 9.69,20.01 10.5,20.01 C11.3,20.01 12.08,19.9 12.82,19.71 C12.83,19.64 12.83,19.58 12.85,19.5 C13.27,18.24 13.58,16.95 13.82,15.64 C12.72,15.76 11.61,15.85 10.5,15.85 C9.39,15.84 8.28,15.76 7.18,15.64 Z"/>
  <path fill="#292D32" opacity="0.4" d="M6.95,6.95 C6.65,9.31 6.65,11.69 6.95,14.06 C9.31,14.36 11.69,14.36 14.06,14.06 C14.36,11.7 14.36,9.32 14.06,6.95 C11.69,6.65 9.31,6.65 6.95,6.95 Z"/>
</svg>

