<svg xmlns="http://www.w3.org/2000/svg" width="24" height="24" viewBox="0 0 24 24">
  <defs/>
  <path fill="#292D32" d="M22.652,18.13 C22.552,17.73 22.152,17.48 21.752,17.58 C21.352,17.68 21.102,18.08 21.192,18.48 C21.232,18.65 21.252,18.82 21.252,19 C21.252,20.24 20.242,21.25 19.002,21.25 C17.762,21.25 16.752,20.24 16.752,19 C16.752,17.9 17.542,16.99 18.592,16.79 C18.492,17.02 18.502,17.3 18.662,17.52 C18.812,17.72 19.042,17.83 19.272,17.83 C19.422,17.83 19.582,17.78 19.712,17.69 L20.882,16.84 C20.892,16.83 20.892,16.82 20.902,16.82 C20.912,16.81 20.922,16.81 20.932,16.8 C20.962,16.77 20.982,16.74 21.002,16.7 C21.032,16.66 21.072,16.63 21.092,16.58 C21.112,16.54 21.122,16.49 21.142,16.45 C21.152,16.4 21.172,16.36 21.182,16.31 C21.192,16.26 21.182,16.22 21.172,16.17 C21.172,16.12 21.172,16.07 21.152,16.02 C21.142,15.97 21.112,15.93 21.092,15.89 C21.072,15.85 21.062,15.81 21.042,15.78 C21.032,15.77 21.022,15.77 21.012,15.76 C21.002,15.76 21.002,15.75 21.002,15.74 L20.002,14.59 C19.732,14.28 19.252,14.24 18.942,14.52 C18.722,14.72 18.642,15.01 18.722,15.28 C16.792,15.43 15.262,17.03 15.262,19 C15.262,21.07 16.942,22.75 19.012,22.75 C21.082,22.75 22.762,21.07 22.762,19 C22.752,18.71 22.722,18.41 22.652,18.13 Z"/>
  <path fill="#292D32" d="M2.032,14.629 C2.032,14.659 2.012,14.699 2.012,14.729 C2.932,16.569 4.432,18.079 6.272,18.989 C6.302,18.989 6.342,18.969 6.372,18.969 C6.032,17.809 5.772,16.619 5.582,15.429 C4.382,15.229 3.192,14.969 2.032,14.629 Z"/>
  <path fill="#292D32" d="M19.068,6.431 C18.128,4.461 16.538,2.871 14.578,1.941 C14.938,3.131 15.238,4.351 15.438,5.571 C16.658,5.771 17.878,6.061 19.068,6.431 Z"/>
  <path fill="#292D32" d="M1.93,6.43 C3.13,6.07 4.35,5.77 5.57,5.57 C5.77,4.38 6.02,3.2 6.36,2.04 C6.33,2.04 6.29,2.02 6.26,2.02 C4.38,2.95 2.85,4.52 1.93,6.43 Z"/>
  <path fill="#292D32" d="M13.82,5.36 C13.58,4.06 13.28,2.76 12.85,1.5 C12.83,1.43 12.83,1.37 12.82,1.29 C12.08,1.11 11.3,1 10.5,1 C9.69,1 8.92,1.11 8.17,1.3 C8.16,1.37 8.17,1.43 8.15,1.51 C7.73,2.77 7.42,4.06 7.18,5.36 C9.39,5.12 11.61,5.12 13.82,5.36 Z"/>
  <path fill="#292D32" d="M5.36,7.18 C4.05,7.42 2.77,7.73 1.5,8.15 C1.43,8.17 1.37,8.17 1.3,8.18 C1.11,8.92 1,9.7 1,10.5 C1,11.31 1.11,12.08 1.3,12.83 C1.37,12.84 1.43,12.83 1.51,12.85 C2.77,13.27 4.06,13.58 5.37,13.82 C5.12,11.61 5.12,9.39 5.36,7.18 Z"/>
  <path fill="#292D32" d="M19.699,8.18 C19.629,8.18 19.569,8.17 19.489,8.15 C18.229,7.73 16.929,7.42 15.629,7.18 C15.879,9.39 15.879,11.61 15.629,13.81 C16.929,13.57 18.229,13.27 19.489,12.84 C19.559,12.82 19.619,12.83 19.699,12.82 C19.879,12.07 19.999,11.3 19.999,10.49 C19.999,9.7 19.889,8.93 19.699,8.18 Z"/>
  <path fill="#292D32" d="M7.18,15.639 C7.42,16.949 7.72,18.239 8.15,19.499 C8.17,19.569 8.16,19.629 8.17,19.709 C8.92,19.889 9.69,19.999 10.5,19.999 C11.3,19.999 12.08,19.889 12.82,19.699 C12.83,19.629 12.83,19.569 12.85,19.489 C13.27,18.229 13.58,16.939 13.82,15.629 C12.72,15.749 11.61,15.839 10.5,15.839 C9.39,15.839 8.28,15.759 7.18,15.639 Z"/>
  <path fill="#292D32" d="M6.952,6.952 C6.652,9.312 6.652,11.692 6.952,14.062 C9.312,14.362 11.692,14.362 14.062,14.062 C14.362,11.702 14.362,9.322 14.062,6.952 C11.692,6.652 9.312,6.652 6.952,6.952 Z"/>
</svg>

