<svg xmlns="http://www.w3.org/2000/svg" width="24" height="24" viewBox="0 0 24 24">
  <defs/>
  <path fill="#292D32" opacity="0.4" d="M7.651,20.91 C7.621,20.91 7.581,20.93 7.551,20.93 C5.611,19.97 4.031,18.38 3.061,16.44 C3.061,16.41 3.081,16.37 3.081,16.34 C4.301,16.7 5.561,16.97 6.811,17.18 C7.031,18.44 7.291,19.69 7.651,20.91 Z"/>
  <path fill="#292D32" opacity="0.4" d="M20.939,16.45 C19.949,18.44 18.299,20.05 16.289,21.02 C16.669,19.75 16.989,18.47 17.199,17.18 C18.459,16.97 19.699,16.7 20.919,16.34 C20.909,16.38 20.939,16.42 20.939,16.45 Z"/>
  <path fill="#292D32" opacity="0.4" d="M21.019,7.71 C19.759,7.33 18.489,7.02 17.199,6.8 C16.989,5.51 16.679,4.23 16.289,2.98 C18.359,3.97 20.029,5.64 21.019,7.71 Z"/>
  <path fill="#292D32" opacity="0.4" d="M7.65,3.09 C7.29,4.31 7.03,5.55 6.82,6.81 C5.53,7.01 4.25,7.33 2.98,7.71 C3.95,5.7 5.56,4.05 7.55,3.06 C7.58,3.06 7.62,3.09 7.65,3.09 Z"/>
  <path fill="#292D32" d="M15.49,6.59 C13.17,6.33 10.83,6.33 8.51,6.59 C8.76,5.22 9.08,3.85 9.53,2.53 C9.55,2.45 9.54,2.39 9.55,2.31 C10.34,2.12 11.15,2 12,2 C12.84,2 13.66,2.12 14.44,2.31 C14.45,2.39 14.45,2.45 14.47,2.53 C14.92,3.86 15.24,5.22 15.49,6.59 Z"/>
  <path fill="#292D32" d="M6.59,15.49 C5.21,15.24 3.85,14.92 2.53,14.47 C2.45,14.45 2.39,14.46 2.31,14.45 C2.12,13.66 2,12.85 2,12 C2,11.16 2.12,10.34 2.31,9.56 C2.39,9.55 2.45,9.55 2.53,9.53 C3.86,9.09 5.21,8.76 6.59,8.51 C6.34,10.83 6.34,13.17 6.59,15.49 Z"/>
  <path fill="#292D32" d="M22,12 C22,12.85 21.88,13.66 21.69,14.45 C21.61,14.46 21.55,14.45 21.47,14.47 C20.14,14.91 18.78,15.24 17.41,15.49 C17.67,13.17 17.67,10.83 17.41,8.51 C18.78,8.76 20.15,9.08 21.47,9.53 C21.55,9.55 21.61,9.56 21.69,9.56 C21.88,10.35 22,11.16 22,12 Z"/>
  <path fill="#292D32" d="M15.49,17.41 C15.24,18.79 14.92,20.15 14.47,21.47 C14.45,21.55 14.45,21.61 14.44,21.69 C13.66,21.88 12.84,22 12,22 C11.15,22 10.34,21.88 9.55,21.69 C9.54,21.61 9.55,21.55 9.53,21.47 C9.09,20.14 8.76,18.79 8.51,17.41 C9.67,17.54 10.83,17.63 12,17.63 C13.17,17.63 14.34,17.54 15.49,17.41 Z"/>
  <path fill="#292D32" d="M15.763,15.763 C13.262,16.079 10.738,16.079 8.237,15.763 C7.921,13.262 7.921,10.738 8.237,8.237 C10.738,7.921 13.262,7.921 15.763,8.237 C16.079,10.738 16.079,13.262 15.763,15.763 Z"/>
</svg>

