<svg xmlns="http://www.w3.org/2000/svg" width="24" height="24" viewBox="0 0 24 24">
  <defs/>
  <path d="M12.2,22.75 C8.16,22.75 4.52,20.52 2.66,16.93 C2.63,16.9 2.61,16.86 2.59,16.82 C1.83,15.3 1.44,13.68 1.44,12 C1.44,10.32 1.83,8.7 2.59,7.18 C4.43,3.52 8.11,1.25 12.19,1.25 C14.93,1.25 17.42,2.22 19.39,4.05 C19.54,4.19 19.63,4.38 19.63,4.59 C19.63,4.8 19.55,4.99 19.4,5.14 L16.58,7.9 C16.29,8.18 15.84,8.19 15.54,7.91 C14.91,7.32 13.82,6.62 12.19,6.62 C10.13,6.62 8.24,7.86 7.39,9.79 C7.32,9.95 7.26,10.1 7.2,10.27 C7.01,10.85 6.92,11.44 6.92,12.01 C6.92,12.58 7.02,13.15 7.2,13.72 C7.2,13.73 7.21,13.74 7.21,13.76 C7.93,15.94 9.93,17.4 12.19,17.4 C13.38,17.4 14.4,17.11 15.23,16.53 C15.99,16 16.47,15.29 16.73,14.65 L12.2,14.65 C11.79,14.65 11.45,14.31 11.45,13.9 L11.45,10.19 C11.45,9.78 11.79,9.44 12.2,9.44 L21.59,9.44 C21.94,9.44 22.24,9.68 22.32,10.02 C22.48,10.72 22.55,11.38 22.55,12.23 C22.55,15.41 21.41,18.22 19.33,20.14 C17.48,21.84 15.01,22.75 12.2,22.75 Z M3.88,16.05 C3.91,16.09 3.94,16.14 3.96,16.19 C5.53,19.3 8.69,21.25 12.2,21.25 C14.63,21.25 16.74,20.48 18.31,19.03 C20.08,17.4 21.05,14.98 21.05,12.22 C21.05,11.72 21.03,11.32 20.97,10.93 L12.95,10.93 L12.95,13.14 L17.71,13.14 C17.92,13.14 18.13,13.23 18.27,13.39 C18.41,13.55 18.48,13.77 18.45,13.98 C18.32,15.1 17.62,16.68 16.09,17.75 C15.01,18.5 13.7,18.89 12.19,18.89 C9.3,18.89 6.74,17.03 5.8,14.25 C5.8,14.24 5.79,14.23 5.79,14.22 C5.54,13.49 5.42,12.75 5.42,12.01 C5.42,11.28 5.54,10.54 5.78,9.8 C5.85,9.58 5.93,9.38 6.02,9.18 C7.12,6.71 9.54,5.12 12.19,5.12 C13.9,5.12 15.16,5.72 16.02,6.35 L17.77,4.64 C16.19,3.4 14.27,2.75 12.19,2.75 C8.68,2.75 5.51,4.7 3.93,7.85 C3.28,9.16 2.94,10.56 2.94,12 C2.95,13.41 3.26,14.77 3.88,16.05 Z"/>
</svg>

