<svg xmlns="http://www.w3.org/2000/svg" width="24" height="24" viewBox="0 0 24 24">
  <defs/>
  <path d="M19.41,21.75 L4.59,21.75 C4.33,21.75 4.08,21.61 3.95,21.39 L0.77,16.1 C0.63,15.87 0.63,15.57 0.77,15.34 L8.18,2.63 C8.31,2.4 8.56,2.26 8.83,2.26 L15.18,2.26 C15.45,2.26 15.69,2.4 15.83,2.63 C18.62,7.41 22.83,14.62 23.19,15.18 C23.29,15.31 23.34,15.46 23.34,15.63 C23.34,15.81 23.28,15.97 23.17,16.1 C22.91,16.49 21.15,19.52 20.06,21.38 C19.93,21.61 19.68,21.75 19.41,21.75 Z M5.01,20.25 L18.98,20.25 C20.47,17.69 21.27,16.33 21.76,15.61 C21.19,14.77 20.19,13.07 18.22,9.7 L14.75,3.75 L9.26,3.75 L2.29,15.7 L5.01,20.25 Z"/>
  <path d="M19.41,21.75 C19.15,21.75 18.9,21.62 18.76,21.38 L8.17,3.38 C7.96,3.02 8.08,2.56 8.44,2.35 C8.8,2.14 9.26,2.26 9.47,2.62 L20.06,20.62 C20.27,20.98 20.15,21.44 19.79,21.65 C19.67,21.72 19.54,21.75 19.41,21.75 Z"/>
  <path d="M4.59,21.75 C4.46,21.75 4.33,21.72 4.21,21.65 C3.85,21.44 3.73,20.98 3.94,20.62 L14.53,2.62 C14.74,2.26 15.2,2.14 15.56,2.35 C15.92,2.56 16.04,3.02 15.83,3.38 L5.24,21.38 C5.09,21.62 4.84,21.75 4.59,21.75 Z"/>
  <path d="M22,16.46 L1.5,16.46 C1.09,16.46 0.75,16.12 0.75,15.71 C0.75,15.3 1.09,14.96 1.5,14.96 L22,14.96 C22.41,14.96 22.75,15.3 22.75,15.71 C22.75,16.12 22.41,16.46 22,16.46 Z"/>
</svg>

