<svg xmlns="http://www.w3.org/2000/svg" width="24" height="24" viewBox="0 0 24 24">
  <defs/>
  <path d="M5.941,16.771 L4.281,19.591 C4.161,19.801 3.851,19.801 3.721,19.591 L2.031,16.771 C1.901,16.551 2.061,16.281 2.311,16.281 L5.661,16.281 C5.911,16.281 6.061,16.561 5.941,16.771 Z"/>
  <path d="M11.69,8.408 L7.74,14.878 C7.65,15.028 7.49,15.108 7.32,15.108 L2.25,15.108 C1.87,15.108 1.63,14.709 1.82,14.389 L8.28,3.728 C8.47,3.418 8.94,3.408 9.13,3.728 L11.69,7.938 C11.78,8.078 11.78,8.258 11.69,8.408 Z"/>
  <path d="M13.721,14.489 L10.241,14.489 C10.041,14.489 9.911,14.269 10.011,14.089 L11.751,11.139 C11.851,10.969 12.101,10.969 12.201,11.139 L13.941,14.089 C14.051,14.269 13.921,14.489 13.721,14.489 Z"/>
  <path d="M13.661,3.4 L12.211,5.87 C12.111,6.04 11.851,6.04 11.751,5.87 L10.301,3.4 C10.201,3.22 10.322,3 10.531,3 L13.431,3 C13.641,3 13.761,3.22 13.661,3.4 Z"/>
  <path d="M22.169,14.368 C22.369,14.698 22.119,15.118 21.739,15.118 L16.869,15.118 C16.7,15.118 16.549,15.028 16.459,14.889 L12.649,8.418 C12.559,8.268 12.559,8.088 12.649,7.938 L15.12,3.728 C15.3,3.418 15.759,3.408 15.94,3.728 C17.16,5.838 20.89,12.178 22.169,14.368 Z"/>
  <path d="M21.931,16.77 C21.381,17.7 20.791,18.7 20.251,19.61 C20.121,19.829 19.811,19.82 19.681,19.599 L18.021,16.77 C17.891,16.549 18.051,16.27 18.311,16.27 L21.641,16.27 C21.901,16.279 22.061,16.549 21.931,16.77 Z"/>
  <path d="M18.021,20.999 L5.941,20.999 C5.581,20.999 5.361,20.609 5.541,20.299 L7.871,16.339 C7.951,16.199 8.101,16.109 8.271,16.109 L15.691,16.109 C15.851,16.109 16.011,16.199 16.091,16.339 L18.421,20.299 C18.601,20.609 18.381,20.999 18.021,20.999 Z"/>
</svg>

