<svg xmlns="http://www.w3.org/2000/svg" width="24" height="24" viewBox="0 0 24 24">
  <defs/>
  <path d="M21.399,12.95 L18.619,14.34 C18.43,14.44 18.2,14.4 18.04,14.25 L16.169,12.38 C15.97,12.18 15.97,11.87 16.169,11.67 L18.07,9.77 C18.22,9.62 18.459,9.58 18.649,9.68 L21.399,11.06 C22.189,11.44 22.189,12.56 21.399,12.95 Z"/>
  <path d="M16.301,8.491 C16.611,8.641 16.671,9.051 16.431,9.291 L14.761,10.961 L14.051,11.671 C13.851,11.871 13.541,11.871 13.341,11.671 L6.201,4.531 C5.801,4.131 6.271,3.481 6.781,3.731 L16.301,8.491 Z"/>
  <path d="M2,20.149 L2,3.479 C2,3.039 2.53,2.809 2.85,3.119 L11.62,11.629 C11.83,11.829 11.82,12.159 11.61,12.359 L2.84,20.519 C2.52,20.819 2,20.589 2,20.149 Z"/>
  <path d="M16.271,15.519 L6.881,20.219 C6.371,20.469 5.901,19.819 6.301,19.419 L13.351,12.369 C13.551,12.169 13.861,12.169 14.061,12.369 L16.411,14.719 C16.641,14.959 16.571,15.369 16.271,15.519 Z"/>
</svg>

