<svg xmlns="http://www.w3.org/2000/svg" width="24" height="24" viewBox="0 0 24 24">
  <defs/>
  <path d="M21.735,13.621 L17.215,15.881 Q16.731,16.123 16.349,15.74 L13.159,12.55 Q12.94,12.331 12.94,12.02 Q12.939,11.709 13.159,11.49 L16.379,8.27 Q16.762,7.887 17.246,8.13 L21.736,10.379 Q22.742,10.876 22.742,12 Q22.742,13.122 21.735,13.621 Z M21.067,12.278 Q21.242,12.191 21.242,12 Q21.242,11.809 21.063,11.721 L17.057,9.713 L14.75,12.02 L17.028,14.298 L21.064,12.279 Z"/>
  <path d="M1.25,9.06 L1.25,3.07 Q1.25,2.052 2.111,1.521 Q2.966,0.992 3.878,1.435 L17.256,8.129 Q17.533,8.268 17.632,8.563 Q17.73,8.858 17.591,9.136 Q17.536,9.244 17.45,9.33 L14.23,12.55 L4.65,22.13 Q4.564,22.216 4.455,22.271 L3.875,22.561 Q2.965,23.01 2.108,22.479 Q1.25,21.946 1.25,20.93 L1.25,13.57 Q1.25,13.259 1.47,13.04 Q1.689,12.82 2,12.82 Q2.311,12.82 2.53,13.04 Q2.75,13.259 2.75,13.57 L2.75,20.93 Q2.75,21.111 2.899,21.204 Q3.048,21.296 3.205,21.219 L3.676,20.984 L13.17,11.49 L15.654,9.005 L3.222,2.785 Q3.053,2.702 2.899,2.797 Q2.75,2.889 2.75,3.07 L2.75,9.06 Q2.75,9.371 2.53,9.59 Q2.311,9.81 2,9.81 Q1.689,9.81 1.47,9.59 Q1.25,9.371 1.25,9.06 Z"/>
  <path d="M17.225,15.881 L4.455,22.271 Q4.177,22.41 3.882,22.312 Q3.587,22.213 3.448,21.936 Q3.206,21.452 3.589,21.07 L13.169,11.49 Q13.388,11.27 13.699,11.27 Q14.01,11.27 14.229,11.49 L17.419,14.68 Q17.639,14.899 17.639,15.21 Q17.639,15.521 17.419,15.74 Q17.333,15.826 17.225,15.881 Z M15.623,15.005 L13.699,13.081 L7.921,18.859 L15.623,15.005 Z"/>
  <path d="M13.169,12.55 L3.56,2.94 Q3.34,2.721 3.34,2.41 Q3.34,2.099 3.56,1.88 Q3.779,1.66 4.09,1.66 Q4.401,1.66 4.62,1.88 L14.23,11.49 Q14.45,11.709 14.45,12.02 Q14.45,12.331 14.23,12.55 Q14.01,12.77 13.7,12.77 Q13.389,12.77 13.169,12.55 Z"/>
  <path d="M16.39,15.77 L16.36,15.74 Q16.141,15.521 16.141,15.21 Q16.141,14.899 16.36,14.68 Q16.58,14.46 16.891,14.46 Q17.201,14.46 17.421,14.68 L17.451,14.71 Q17.671,14.929 17.671,15.24 Q17.671,15.551 17.451,15.77 Q17.231,15.99 16.921,15.99 Q16.61,15.99 16.39,15.77 Z"/>
</svg>

