<svg xmlns="http://www.w3.org/2000/svg" width="24" height="24" viewBox="0 0 24 24">
  <defs/>
  <path d="M17.45,9.331 L14.23,12.551 L4.65,22.131 Q4.564,22.217 4.455,22.271 L3.875,22.561 Q2.965,23.01 2.108,22.479 Q1.25,21.946 1.25,20.93 L1.25,3.07 Q1.25,2.053 2.111,1.521 Q2.966,0.993 3.878,1.436 L17.256,8.13 Q17.533,8.269 17.632,8.563 Q17.73,8.858 17.591,9.136 Q17.536,9.245 17.45,9.331 Z M15.654,9.005 L3.222,2.785 Q3.053,2.702 2.899,2.797 Q2.75,2.889 2.75,3.07 L2.75,20.93 Q2.75,21.112 2.899,21.204 Q3.048,21.297 3.205,21.219 L3.676,20.984 L13.17,11.49 L15.654,9.005 Z"/>
  <g opacity="0.4">
    <path d="M21.735,13.621 L17.215,15.881 Q16.731,16.123 16.349,15.741 L13.159,12.551 Q12.94,12.331 12.94,12.02 Q12.94,11.71 13.159,11.49 L16.379,8.27 Q16.762,7.887 17.246,8.13 L21.736,10.38 Q22.742,10.877 22.742,12 Q22.742,13.122 21.735,13.621 Z M21.067,12.278 Q21.242,12.192 21.242,12 Q21.242,11.809 21.063,11.721 L17.057,9.713 L14.75,12.02 L17.028,14.298 L21.064,12.279 Z"/>
    <path d="M17.226,15.881 L4.456,22.271 Q4.178,22.41 3.883,22.312 Q3.588,22.213 3.449,21.936 Q3.207,21.452 3.59,21.07 L13.17,11.49 Q13.389,11.27 13.7,11.27 Q14.011,11.27 14.23,11.49 L17.42,14.68 Q17.64,14.899 17.64,15.21 Q17.64,15.521 17.42,15.74 Q17.334,15.826 17.226,15.881 Z M15.624,15.005 L13.7,13.081 L7.922,18.859 L15.624,15.005 Z"/>
    <path d="M13.169,12.55 L3.56,2.94 Q3.34,2.721 3.34,2.41 Q3.34,2.1 3.56,1.88 Q3.779,1.66 4.09,1.66 Q4.4,1.66 4.62,1.88 L14.23,11.49 Q14.45,11.709 14.45,12.02 Q14.45,12.331 14.23,12.55 Q14.01,12.77 13.7,12.77 Q13.389,12.77 13.169,12.55 Z"/>
  </g>
</svg>

