<svg xmlns="http://www.w3.org/2000/svg" width="24" height="24" viewBox="0 0 24 24">
  <defs/>
  <path d="M21.59,9.43 Q22.19,9.43 22.322,10.015 Q22.55,11.027 22.55,12.21 Q22.55,17.156 19.33,20.12 Q16.505,22.74 12.2,22.74 Q5.641,22.74 2.664,16.924 Q2.628,16.874 2.599,16.816 Q1.45,14.517 1.45,11.99 Q1.45,9.463 2.6,7.164 Q5.571,1.24 12.2,1.24 Q16.391,1.24 19.401,4.041 Q19.414,4.053 19.426,4.066 Q19.643,4.288 19.64,4.598 Q19.637,4.909 19.415,5.126 L16.595,7.886 Q16.38,8.096 16.079,8.1 Q15.779,8.104 15.559,7.899 Q14.175,6.61 12.2,6.61 Q8.807,6.61 7.389,9.79 Q7.305,9.968 7.214,10.241 Q6.93,11.12 6.93,11.99 Q6.93,12.872 7.222,13.735 Q8.427,17.38 12.2,17.38 Q14.009,17.38 15.24,16.516 Q16.36,15.733 16.765,14.64 L12.2,14.64 Q11.89,14.64 11.67,14.421 Q11.45,14.201 11.45,13.89 L11.45,10.18 Q11.45,9.87 11.67,9.65 Q11.89,9.43 12.2,9.43 Z M3.991,16.224 Q6.551,21.24 12.2,21.24 Q15.916,21.24 18.31,19.02 Q21.05,16.498 21.05,12.21 Q21.05,11.533 20.965,10.93 L12.95,10.93 L12.95,13.14 L17.71,13.14 Q18.021,13.14 18.241,13.36 Q18.46,13.58 18.46,13.89 Q18.46,13.935 18.455,13.979 Q18.178,16.291 16.1,17.745 Q14.484,18.88 12.2,18.88 Q7.343,18.88 5.798,14.206 Q5.43,13.119 5.43,11.99 Q5.43,10.884 5.786,9.78 Q5.91,9.41 6.032,9.151 Q7.834,5.11 12.2,5.11 Q14.388,5.11 16.03,6.34 L17.781,4.626 Q15.393,2.74 12.2,2.74 Q6.497,2.74 3.941,7.836 Q2.95,9.817 2.95,11.99 Q2.95,14.092 3.877,16.015 Q3.953,16.112 3.991,16.224 Z"/>
</svg>

