<svg xmlns="http://www.w3.org/2000/svg" width="24" height="24" viewBox="0 0 24 24">
  <defs/>
  <path d="M6.118,9.118 L2.282,15.694 L5.014,20.24 L18.98,20.24 Q19.667,19.064 20.354,17.895 Q21.05,16.709 21.449,16.041 Q21.599,15.79 21.705,15.615 Q21.671,15.557 21.632,15.492 Q21.345,15.011 20.8,14.086 Q19.882,12.528 18.274,9.781 Q16.536,6.812 14.749,3.75 L9.261,3.75 L8.318,5.368 Q8.162,5.636 7.861,5.715 Q7.561,5.794 7.292,5.638 Q7.024,5.481 6.945,5.181 Q6.866,4.881 7.022,4.612 L8.182,2.622 Q8.399,2.25 8.83,2.25 L15.18,2.25 Q15.611,2.25 15.828,2.622 L15.829,2.624 Q17.726,5.876 19.569,9.024 Q21.176,11.769 22.092,13.324 Q22.635,14.245 22.92,14.723 Q23.071,14.977 23.148,15.101 Q23.171,15.139 23.185,15.162 Q23.2,15.182 23.213,15.202 Q23.34,15.392 23.34,15.62 Q23.34,15.892 23.17,16.096 Q23.142,16.139 23.092,16.221 Q22.971,16.418 22.737,16.81 Q22.341,17.474 21.647,18.655 Q20.852,20.007 20.058,21.368 Q19.841,21.74 19.41,21.74 L4.59,21.74 Q4.166,21.74 3.947,21.376 L0.767,16.086 Q0.539,15.706 0.762,15.322 L4.822,8.362 Q4.979,8.094 5.279,8.015 Q5.58,7.936 5.848,8.092 Q6.116,8.249 6.195,8.549 Q6.275,8.85 6.118,9.118 Z M22.115,15.038 Q22.283,14.9 22.503,14.874 Q22.581,14.865 22.653,14.869 Q22.353,14.832 22.115,15.038 Z M22.016,16.104 Q22.206,16.34 22.493,16.367 Q22.426,16.356 22.356,16.333 Q22.181,16.276 22.052,16.144 Q22.034,16.125 22.016,16.104 Z"/>
  <path d="M9.467,2.62 L20.057,20.62 Q20.214,20.887 20.136,21.188 Q20.058,21.489 19.791,21.646 Q19.523,21.804 19.222,21.726 Q18.921,21.648 18.764,21.38 L8.174,3.38 Q8.016,3.113 8.094,2.812 Q8.172,2.511 8.44,2.354 Q8.708,2.196 9.008,2.274 Q9.309,2.352 9.467,2.62 Z"/>
  <path d="M15.826,3.38 L5.236,21.38 Q5.079,21.648 4.778,21.726 Q4.477,21.804 4.21,21.646 Q3.942,21.489 3.864,21.188 Q3.786,20.887 3.943,20.62 L14.533,2.62 Q14.691,2.352 14.992,2.274 Q15.292,2.196 15.56,2.354 Q15.828,2.511 15.906,2.812 Q15.984,3.113 15.826,3.38 Z"/>
  <path d="M1.5,14.96 L22,14.96 Q22.311,14.96 22.53,15.18 Q22.75,15.399 22.75,15.71 Q22.75,16.021 22.53,16.24 Q22.311,16.46 22,16.46 L1.5,16.46 Q1.189,16.46 0.97,16.24 Q0.75,16.021 0.75,15.71 Q0.75,15.399 0.97,15.18 Q1.189,14.96 1.5,14.96 Z"/>
</svg>

