<svg xmlns="http://www.w3.org/2000/svg" width="24" height="24" viewBox="0 0 24 24">
  <defs/>
  <path fill="#17191C" d="M21.707,13.585 L17.241,15.868 Q16.755,16.116 16.37,15.73 L13.17,12.53 Q12.95,12.311 12.95,12 Q12.95,11.689 13.17,11.47 L16.37,8.27 Q16.748,7.891 17.229,8.126 L21.729,10.326 Q22.75,10.836 22.75,11.988 Q22.75,13.17 21.707,13.585 Z M21.059,12.232 Q21.097,12.213 21.137,12.198 Q21.25,12.155 21.25,11.988 Q21.25,11.764 21.071,11.674 L17.052,9.709 L14.761,12 L17.045,14.284 Z"/>
  <path fill="#17191C" d="M17.43,9.33 L4.63,22.13 Q4.544,22.216 4.435,22.271 L3.852,22.562 Q2.935,23.075 2.059,22.466 Q1.25,21.903 1.25,20.9 L1.25,3.1 Q1.25,2.099 2.078,1.559 Q2.896,1.025 3.795,1.411 Q3.816,1.419 3.835,1.429 L17.235,8.129 Q17.513,8.268 17.612,8.563 Q17.71,8.858 17.571,9.135 Q17.516,9.244 17.43,9.33 Z M15.634,9.005 L3.189,2.783 Q3.037,2.725 2.897,2.816 Q2.75,2.912 2.75,3.1 L2.75,20.9 Q2.75,21.119 2.916,21.234 Q3.023,21.309 3.128,21.249 Q3.146,21.238 3.165,21.229 L3.656,20.984 L13.17,11.47 L15.634,9.005 Z"/>
  <path fill="#17191C" d="M17.236,15.871 L4.436,22.271 Q4.158,22.41 3.863,22.312 Q3.568,22.213 3.429,21.935 Q3.188,21.452 3.57,21.07 L13.17,11.47 Q13.389,11.25 13.7,11.25 Q14.011,11.25 14.23,11.47 L17.43,14.67 Q17.65,14.889 17.65,15.2 Q17.65,15.511 17.43,15.73 Q17.344,15.816 17.236,15.871 Z M15.634,14.995 L13.7,13.061 L7.898,18.862 L15.634,14.995 Z"/>
  <path fill="#17191C" d="M13.17,12.53 L3.57,2.93 Q3.35,2.711 3.35,2.4 Q3.35,2.089 3.57,1.87 Q3.789,1.65 4.1,1.65 Q4.411,1.65 4.63,1.87 L14.23,11.47 Q14.45,11.689 14.45,12 Q14.45,12.311 14.23,12.53 Q14.011,12.75 13.7,12.75 Q13.389,12.75 13.17,12.53 Z"/>
</svg>

