<svg xmlns="http://www.w3.org/2000/svg" width="24" height="24" viewBox="0 0 24 24">
  <defs/>
  <path fill="white" opacity="0.58" d="M24,0 L0,0 L0,24 L24,24 L24,0 Z"/>
  <path fill="#292D32" opacity="0.4" d="M21.399,12.95 L16.889,15.21 L13.699,12.02 L16.919,8.8 L21.399,11.05 C22.189,11.44 22.189,12.56 21.399,12.95 Z"/>
  <path fill="#292D32" d="M16.919,8.8 L13.699,12.02 L4.029,2.35 L16.919,8.8 Z"/>
  <path fill="#292D32" opacity="0.4" d="M13.7,12.02 L4.12,21.6 L3.55,21.89 C2.83,22.24 2,21.73 2,20.93 L2,3.07 C2,2.27 2.83,1.76 3.55,2.11 L4.03,2.35 L13.7,12.02 Z"/>
  <path fill="#292D32" d="M16.889,15.21 L4.119,21.6 L13.699,12.02 L16.889,15.21 Z"/>
</svg>

