<svg xmlns="http://www.w3.org/2000/svg" width="24" height="24" viewBox="0 0 24 24">
  <defs/>
  <path fill="#17191C" d="M21.6,9.45 Q21.875,9.45 22.085,9.628 Q22.295,9.805 22.34,10.077 Q22.55,11.337 22.55,12.2 Q22.55,17.246 19.307,20.153 Q16.532,22.75 12.2,22.75 Q5.497,22.75 2.629,16.835 Q1.45,14.477 1.45,12 Q1.45,9.523 2.625,7.173 Q5.497,1.25 12.2,1.25 Q16.35,1.25 19.396,3.938 Q19.414,3.953 19.43,3.97 Q19.65,4.189 19.65,4.5 Q19.65,4.811 19.43,5.03 L16.63,7.83 Q16.421,8.04 16.125,8.05 Q15.829,8.059 15.606,7.864 Q14.104,6.55 12.2,6.55 Q8.737,6.55 7.389,9.695 Q7.332,9.828 7.23,9.93 L7.313,9.848 Q7.259,10.04 7.199,10.176 Q6.95,10.946 6.95,11.9 Q6.95,12.878 7.214,13.671 Q8.391,17.35 12.2,17.35 Q14.117,17.35 15.25,16.5 Q15.261,16.491 15.273,16.483 Q16.37,15.724 16.762,14.65 L12.2,14.65 Q11.889,14.65 11.67,14.43 Q11.45,14.211 11.45,13.9 L11.45,10.2 Q11.45,9.889 11.67,9.67 Q11.889,9.45 12.2,9.45 Z M20.954,10.95 L12.95,10.95 L12.95,13.15 L17.7,13.15 Q18.011,13.15 18.23,13.37 Q18.45,13.589 18.45,13.9 Q18.45,13.942 18.445,13.983 Q18.19,16.282 16.138,17.709 Q14.608,18.85 12.2,18.85 Q7.296,18.85 5.786,14.129 Q5.45,13.122 5.45,11.9 Q5.45,10.678 5.788,9.663 Q5.805,9.612 5.829,9.565 Q5.841,9.541 5.869,9.443 Q5.937,9.199 6.042,9.031 Q7.789,5.05 12.2,5.05 Q14.322,5.05 16.043,6.296 L17.783,4.557 Q15.367,2.75 12.2,2.75 Q6.436,2.75 3.975,7.827 Q2.95,9.877 2.95,12 Q2.95,14.123 3.971,16.165 Q6.436,21.25 12.2,21.25 Q15.943,21.25 18.287,19.053 Q18.293,19.047 18.3,19.041 Q21.05,16.58 21.05,12.2 Q21.05,11.676 20.954,10.95 Z"/>
</svg>

