<svg xmlns="http://www.w3.org/2000/svg" width="24" height="24" viewBox="0 0 24 24">
  <defs/>
  <path d="M21.739,11.07 C21.689,10.56 21.259,10.18 20.749,10.18 L13.199,10.18 C12.649,10.18 12.199,10.63 12.199,11.18 L12.199,12.89 C12.199,13.44 12.649,13.89 13.199,13.89 L17.709,13.89 C17.599,14.81 16.999,16.2 15.669,17.13 C14.819,17.72 13.689,18.13 12.199,18.13 C12.129,18.13 12.069,18.13 11.999,18.12 C9.449,18.04 7.289,16.33 6.509,13.98 C6.299,13.35 6.179,12.69 6.179,12 C6.179,11.31 6.299,10.64 6.499,10.02 C6.559,9.84 6.629,9.66 6.709,9.48 C7.629,7.41 9.639,5.95 11.999,5.88 C12.059,5.87 12.129,5.87 12.199,5.87 C13.629,5.87 14.699,6.34 15.449,6.86 C15.839,7.13 16.359,7.07 16.699,6.74 L18.089,5.38 C18.529,4.95 18.489,4.22 17.989,3.86 C16.399,2.69 14.459,2 12.199,2 C12.129,2 12.069,2 11.999,2.01 C8.169,2.08 4.879,4.3 3.269,7.51 C2.589,8.87 2.199,10.39 2.199,12 C2.199,13.61 2.589,15.13 3.269,16.49 L3.279,16.49 C4.889,19.7 8.179,21.92 11.999,21.99 C12.069,22 12.129,22 12.199,22 C14.899,22 17.169,21.11 18.819,19.58 C20.709,17.83 21.799,15.27 21.799,12.22 C21.799,11.79 21.779,11.42 21.739,11.07 Z"/>
</svg>

