<svg xmlns="http://www.w3.org/2000/svg" width="24" height="24" viewBox="0 0 24 24">
  <defs/>
  <path fill="#17191C" d="M15.2,2.25 Q15.631,2.25 15.848,2.622 L15.848,2.623 Q17.71,5.817 19.562,8.985 Q21.175,11.741 22.095,13.302 Q22.641,14.227 22.927,14.705 Q23.059,14.926 23.134,15.048 Q23.35,15.241 23.35,15.6 Q23.35,16.046 23.082,16.227 Q22.962,16.422 22.744,16.787 Q22.345,17.453 21.647,18.642 Q20.847,20.004 20.048,21.377 Q19.831,21.75 19.4,21.75 L4.6,21.75 Q4.177,21.75 3.958,21.388 L0.758,16.088 Q0.528,15.707 0.752,15.322 L8.152,2.622 Q8.369,2.25 8.8,2.25 Z M21.711,15.594 Q21.678,15.538 21.64,15.476 Q21.351,14.994 20.803,14.064 Q19.881,12.5 18.268,9.742 Q16.522,6.758 14.769,3.75 L9.231,3.75 L2.272,15.693 L5.023,20.25 L18.969,20.25 Q19.66,19.062 20.353,17.883 Q21.055,16.688 21.456,16.017 Q21.605,15.768 21.711,15.594 Z M22.449,14.86 Q21.995,14.916 21.885,15.313 Q21.918,15.26 21.942,15.225 Q21.978,15.171 22.008,15.135 Q22.073,15.054 22.154,14.995 Q22.294,14.891 22.449,14.86 Z M21.897,15.898 Q21.994,16.169 22.291,16.286 Q22.196,16.242 22.111,16.17 Q22.051,16.119 22.002,16.055 Q21.98,16.026 21.954,15.988 Q21.932,15.955 21.897,15.898 Z M22.565,16.35 Q22.626,16.354 22.685,16.348 Q22.647,16.35 22.608,16.351 Q22.586,16.351 22.565,16.35 Z"/>
  <path fill="#17191C" d="M9.446,2.619 L20.046,20.619 Q20.204,20.887 20.126,21.188 Q20.048,21.489 19.78,21.646 Q19.513,21.804 19.212,21.726 Q18.911,21.648 18.754,21.381 L8.154,3.381 Q7.996,3.113 8.074,2.812 Q8.152,2.511 8.419,2.354 Q8.687,2.196 8.988,2.274 Q9.288,2.352 9.446,2.619 Z"/>
  <path fill="#17191C" d="M15.846,3.381 L5.246,21.381 Q5.089,21.648 4.788,21.726 Q4.487,21.804 4.22,21.646 Q3.952,21.489 3.874,21.188 Q3.796,20.887 3.954,20.619 L14.554,2.619 Q14.711,2.352 15.012,2.274 Q15.313,2.196 15.581,2.354 Q15.848,2.511 15.926,2.812 Q16.004,3.113 15.846,3.381 Z"/>
  <path fill="#17191C" d="M1.5,14.95 L22,14.95 Q22.311,14.95 22.53,15.17 Q22.75,15.389 22.75,15.7 Q22.75,16.011 22.53,16.23 Q22.311,16.45 22,16.45 L1.5,16.45 Q1.189,16.45 0.97,16.23 Q0.75,16.011 0.75,15.7 Q0.75,15.389 0.97,15.17 Q1.189,14.95 1.5,14.95 Z"/>
</svg>

