<svg xmlns="http://www.w3.org/2000/svg" width="24" height="24" viewBox="0 0 24 24">
  <defs/>
  <path d="M3.94,7.845 Q2.949,9.827 2.949,12 Q2.949,14.102 3.877,16.025 Q3.952,16.122 3.99,16.233 Q6.55,21.25 12.199,21.25 Q15.915,21.25 18.309,19.03 Q21.049,16.508 21.049,12.22 Q21.049,11.535 20.964,10.93 L12.949,10.93 L12.949,13.14 L17.709,13.14 Q18.02,13.14 18.24,13.36 Q18.459,13.579 18.459,13.89 Q18.459,13.935 18.454,13.979 Q18.177,16.291 16.099,17.745 Q14.483,18.88 12.199,18.88 Q7.342,18.88 5.797,14.205 Q5.429,13.119 5.429,11.99 Q5.429,10.884 5.785,9.78 Q5.909,9.409 6.031,9.151 Q7.833,5.11 12.199,5.11 Q14.387,5.11 16.029,6.34 L17.78,4.626 Q15.392,2.74 12.199,2.74 Q9.261,2.74 6.862,4.433 Q6.608,4.612 6.302,4.559 Q5.995,4.506 5.816,4.252 Q5.637,3.999 5.69,3.692 Q5.743,3.386 5.997,3.207 Q8.785,1.24 12.199,1.24 Q16.39,1.24 19.4,4.041 Q19.413,4.053 19.425,4.065 Q19.642,4.287 19.639,4.598 Q19.636,4.909 19.414,5.126 L16.594,7.886 Q16.379,8.096 16.078,8.1 Q15.778,8.104 15.558,7.899 Q14.174,6.61 12.199,6.61 Q8.806,6.61 7.388,9.789 Q7.304,9.968 7.213,10.24 Q6.929,11.12 6.929,11.99 Q6.929,12.872 7.221,13.735 Q8.426,17.38 12.199,17.38 Q14.008,17.38 15.239,16.515 Q16.359,15.733 16.764,14.64 L12.199,14.64 Q11.889,14.64 11.669,14.42 Q11.449,14.201 11.449,13.89 L11.449,10.18 Q11.449,9.869 11.669,9.65 Q11.889,9.43 12.199,9.43 L21.589,9.43 Q22.189,9.43 22.321,10.015 Q22.549,11.026 22.549,12.22 Q22.549,17.165 19.329,20.13 Q16.504,22.75 12.199,22.75 Q5.64,22.75 2.663,16.934 Q2.627,16.883 2.598,16.825 Q1.449,14.527 1.449,12 Q1.449,9.473 2.598,7.175 Q2.737,6.897 3.032,6.798 Q3.327,6.7 3.605,6.839 Q3.882,6.978 3.981,7.273 Q4.079,7.568 3.94,7.845 Z"/>
</svg>

