<svg xmlns="http://www.w3.org/2000/svg" width="24" height="24" viewBox="0 0 24 24">
  <defs/>
  <path fill="white" opacity="0.58" d="M24,0 L0,0 L0,24 L24,24 L24,0 Z"/>
  <path fill="#292D32" d="M12.2,5.87 C12.13,5.87 12.06,5.87 12,5.88 L12,2.01 C12.07,2 12.13,2 12.2,2 C14.46,2 16.4,2.69 17.99,3.86 C18.49,4.22 18.53,4.95 18.09,5.38 L16.7,6.74 C16.36,7.07 15.84,7.13 15.45,6.86 C14.7,6.34 13.63,5.87 12.2,5.87 Z"/>
  <path fill="#292D32" d="M21.8,12.22 C21.8,15.27 20.71,17.83 18.82,19.58 C17.17,21.11 14.9,22 12.2,22 C12.13,22 12.07,22 12,21.99 L12,18.12 C12.07,18.13 12.13,18.13 12.2,18.13 C13.69,18.13 14.82,17.72 15.67,17.13 C17,16.2 17.6,14.81 17.71,13.89 L13.2,13.89 C12.65,13.89 12.2,13.44 12.2,12.89 L12.2,11.18 C12.2,10.63 12.65,10.18 13.2,10.18 L20.75,10.18 C21.26,10.18 21.69,10.56 21.74,11.07 C21.78,11.42 21.8,11.79 21.8,12.22 Z"/>
  <path fill="#292D32" opacity="0.4" d="M6.499,10.02 C6.299,10.64 6.179,11.31 6.179,12 C6.179,12.69 6.299,13.35 6.509,13.98 C7.289,16.33 9.449,18.04 11.999,18.12 L11.999,21.99 C8.179,21.92 4.889,19.7 3.279,16.49 L3.269,16.49 C2.589,15.13 2.199,13.61 2.199,12 C2.199,10.39 2.589,8.87 3.269,7.51 C4.879,4.3 8.169,2.08 11.999,2.01 L11.999,5.88 C9.639,5.95 7.629,7.41 6.709,9.48 C6.629,9.66 6.559,9.84 6.499,10.02 Z"/>
</svg>

