<svg xmlns="http://www.w3.org/2000/svg" width="24" height="24" viewBox="0 0 24 24">
  <defs/>
  <path d="M15.18,2.25 Q15.611,2.25 15.828,2.622 Q17.685,5.803 19.537,8.966 Q21.16,11.738 22.087,13.31 Q22.636,14.242 22.925,14.726 Q23.079,14.983 23.156,15.11 Q23.18,15.148 23.195,15.172 Q23.209,15.191 23.223,15.212 Q23.35,15.402 23.35,15.63 Q23.35,15.902 23.18,16.106 Q23.152,16.15 23.102,16.231 Q22.981,16.428 22.747,16.82 Q22.351,17.483 21.656,18.665 Q20.862,20.016 20.068,21.378 Q19.851,21.75 19.42,21.75 L4.6,21.75 Q4.176,21.75 3.957,21.386 L0.777,16.096 Q0.548,15.716 0.772,15.332 L8.182,2.622 Q8.399,2.25 8.83,2.25 Z M21.715,15.625 Q21.678,15.564 21.637,15.495 Q21.346,15.008 20.794,14.071 Q19.867,12.498 18.243,9.724 Q16.498,6.744 14.749,3.75 L9.261,3.75 L2.291,15.704 L5.024,20.25 L18.989,20.25 Q19.677,19.073 20.363,17.905 Q21.06,16.719 21.459,16.051 Q21.609,15.8 21.715,15.625 Z M22.666,14.879 Q22.369,14.841 22.131,15.043 Q22.298,14.909 22.513,14.884 Q22.592,14.875 22.666,14.879 Z M22.026,16.114 Q22.215,16.349 22.5,16.377 Q22.431,16.365 22.359,16.341 Q22.188,16.283 22.061,16.152 Q22.043,16.134 22.026,16.114 Z"/>
  <g opacity="0.4">
    <path d="M9.467,2.62 L20.057,20.62 Q20.214,20.887 20.136,21.188 Q20.058,21.489 19.791,21.646 Q19.523,21.804 19.222,21.726 Q18.921,21.648 18.764,21.38 L8.174,3.38 Q8.016,3.113 8.094,2.812 Q8.172,2.511 8.44,2.354 Q8.708,2.196 9.008,2.274 Q9.309,2.352 9.467,2.62 Z"/>
    <path d="M15.826,3.38 L5.236,21.38 Q5.079,21.648 4.778,21.726 Q4.477,21.804 4.21,21.646 Q3.942,21.489 3.864,21.188 Q3.786,20.887 3.943,20.62 L14.533,2.62 Q14.691,2.352 14.992,2.274 Q15.292,2.196 15.56,2.354 Q15.828,2.511 15.906,2.812 Q15.984,3.113 15.826,3.38 Z"/>
    <path d="M1.5,14.96 L22,14.96 Q22.311,14.96 22.53,15.18 Q22.75,15.399 22.75,15.71 Q22.75,16.021 22.53,16.24 Q22.311,16.46 22,16.46 L1.5,16.46 Q1.189,16.46 0.97,16.24 Q0.75,16.021 0.75,15.71 Q0.75,15.399 0.97,15.18 Q1.189,14.96 1.5,14.96 Z"/>
  </g>
</svg>

