<svg xmlns="http://www.w3.org/2000/svg" width="24" height="24" viewBox="0 0 24 24">
  <defs/>
  <path fill="white" opacity="0.58" d="M24,0 L0,0 L0,24 L24,24 L24,0 Z"/>
  <path fill="#292D32" opacity="0.4" d="M7.7,15.71 L4.59,21 L1.41,15.71 L7.7,15.71 Z"/>
  <path fill="#292D32" d="M12,8.41 L7.7,15.71 L1.41,15.71 L8.82,3 L12,8.41 Z"/>
  <path fill="#292D32" opacity="0.4" d="M15.18,3 L12,8.41 L8.82,3 L15.18,3 Z"/>
  <path fill="#292D32" d="M22.59,15.63 C22.59,15.63 22.57,15.66 22.53,15.71 L16.3,15.71 L12,8.41 L15.18,3 C15.18,3 22.54,15.63 22.59,15.63 Z"/>
  <path fill="#292D32" opacity="0.4" d="M22.531,15.71 C22.111,16.37 19.411,21 19.411,21 L16.301,15.71 L22.531,15.71 Z"/>
  <path fill="#292D32" d="M19.41,21 L4.59,21 L7.7,15.71 L16.3,15.71 L19.41,21 Z"/>
  <path fill="#292D32" opacity="0.4" d="M16.299,15.71 L7.699,15.71 L11.999,8.41 L16.299,15.71 Z"/>
</svg>

