<svg xmlns="http://www.w3.org/2000/svg" width="24" height="24" viewBox="0 0 24 24">
  <defs/>
  <path d="M16.89,15.96 C16.7,15.96 16.5,15.88 16.36,15.74 L13.17,12.55 C12.88,12.26 12.88,11.78 13.17,11.49 L16.39,8.27 C16.62,8.04 16.97,7.99 17.26,8.13 L21.75,10.38 C22.37,10.68 22.76,11.3 22.76,12 C22.76,12.7 22.37,13.32 21.75,13.62 L17.24,15.88 C17.12,15.93 17,15.96 16.89,15.96 Z M14.76,12.02 L17.03,14.29 L21.06,12.27 C21.06,12.27 21.06,12.27 21.07,12.27 C21.22,12.2 21.24,12.07 21.24,12 C21.24,11.93 21.22,11.8 21.07,11.73 L17.06,9.72 L14.76,12.02 Z"/>
  <path d="M3.07,22.75 C2.74,22.75 2.4,22.66 2.11,22.47 C1.57,22.14 1.25,21.56 1.25,20.92 L1.25,3.06 C1.25,2.43 1.57,1.85 2.11,1.51 C2.65,1.18 3.31,1.14 3.88,1.43 L17.25,8.12 C17.47,8.23 17.62,8.43 17.65,8.67 C17.68,8.91 17.61,9.15 17.44,9.32 L4.64,22.12 C4.58,22.18 4.52,22.22 4.44,22.26 L3.86,22.55 C3.62,22.69 3.34,22.75 3.07,22.75 Z M3.07,2.75 C3,2.75 2.94,2.78 2.9,2.8 C2.84,2.83 2.75,2.92 2.75,3.07 L2.75,20.93 C2.75,21.09 2.84,21.17 2.9,21.2 C2.96,21.24 3.07,21.28 3.22,21.21 L3.68,20.98 L15.65,9.01 L3.21,2.79 C3.16,2.76 3.11,2.75 3.07,2.75 Z"/>
  <path d="M4.12,22.35 C3.89,22.35 3.66,22.24 3.51,22.04 C3.29,21.74 3.33,21.33 3.59,21.07 L13.17,11.49 C13.31,11.35 13.5,11.27 13.7,11.27 C13.9,11.27 14.09,11.35 14.23,11.49 L17.42,14.68 C17.59,14.85 17.67,15.09 17.63,15.33 C17.59,15.57 17.44,15.77 17.23,15.88 L4.47,22.27 C4.35,22.32 4.24,22.35 4.12,22.35 Z M13.7,13.08 L7.93,18.85 L15.62,15 L13.7,13.08 Z"/>
  <path d="M13.7,12.77 C13.51,12.77 13.32,12.7 13.17,12.55 L3.56,2.94 C3.27,2.65 3.27,2.17 3.56,1.88 C3.85,1.59 4.33,1.59 4.62,1.88 L14.23,11.49 C14.52,11.78 14.52,12.26 14.23,12.55 C14.09,12.7 13.89,12.77 13.7,12.77 Z"/>
  <path d="M16.9,15.98 C16.72,15.98 16.53,15.91 16.39,15.76 L16.36,15.73 C16.07,15.44 16.07,14.96 16.37,14.67 C16.67,14.38 17.14,14.38 17.43,14.68 C17.72,14.97 17.73,15.47 17.44,15.76 C17.28,15.91 17.09,15.98 16.9,15.98 Z"/>
</svg>

