<svg xmlns="http://www.w3.org/2000/svg" width="24" height="24" viewBox="0 0 24 24">
  <defs/>
  <path fill="#292D32" d="M12,20.25 C7.45,20.25 3.75,16.55 3.75,12 C3.75,7.45 7.45,3.75 12,3.75 C16.55,3.75 20.25,7.45 20.25,12 C20.25,16.55 16.55,20.25 12,20.25 Z M12,5.25 C8.28,5.25 5.25,8.28 5.25,12 C5.25,15.72 8.28,18.75 12,18.75 C15.72,18.75 18.75,15.72 18.75,12 C18.75,8.28 15.72,5.25 12,5.25 Z"/>
  <path fill="#292D32" d="M12,15.75 C9.93,15.75 8.25,14.07 8.25,12 C8.25,9.93 9.93,8.25 12,8.25 C14.07,8.25 15.75,9.93 15.75,12 C15.75,14.07 14.07,15.75 12,15.75 Z M12,9.75 C10.76,9.75 9.75,10.76 9.75,12 C9.75,13.24 10.76,14.25 12,14.25 C13.24,14.25 14.25,13.24 14.25,12 C14.25,10.76 13.24,9.75 12,9.75 Z"/>
  <path fill="#292D32" d="M12,4.75 C11.59,4.75 11.25,4.41 11.25,4 L11.25,2 C11.25,1.59 11.59,1.25 12,1.25 C12.41,1.25 12.75,1.59 12.75,2 L12.75,4 C12.75,4.41 12.41,4.75 12,4.75 Z"/>
  <path fill="#292D32" d="M4,12.75 L2,12.75 C1.59,12.75 1.25,12.41 1.25,12 C1.25,11.59 1.59,11.25 2,11.25 L4,11.25 C4.41,11.25 4.75,11.59 4.75,12 C4.75,12.41 4.41,12.75 4,12.75 Z"/>
  <path fill="#292D32" d="M12,22.75 C11.59,22.75 11.25,22.41 11.25,22 L11.25,20 C11.25,19.59 11.59,19.25 12,19.25 C12.41,19.25 12.75,19.59 12.75,20 L12.75,22 C12.75,22.41 12.41,22.75 12,22.75 Z"/>
  <path fill="#292D32" d="M22,12.75 L20,12.75 C19.59,12.75 19.25,12.41 19.25,12 C19.25,11.59 19.59,11.25 20,11.25 L22,11.25 C22.41,11.25 22.75,11.59 22.75,12 C22.75,12.41 22.41,12.75 22,12.75 Z"/>
</svg>

