<svg xmlns="http://www.w3.org/2000/svg" width="24" height="24" viewBox="0 0 24 24">
  <defs/>
  <path fill="#292D32" d="M22.751,11.999 C22.751,12.409 22.411,12.749 22.001,12.749 L19.961,12.749 C19.611,16.559 16.561,19.609 12.751,19.959 L12.751,21.999 C12.751,22.409 12.411,22.749 12.001,22.749 C11.591,22.749 11.251,22.409 11.251,21.999 L11.251,19.959 C10.641,19.909 10.041,19.779 9.471,19.589 C8.761,19.349 8.541,18.449 9.071,17.919 L11.881,15.109 C11.921,15.119 11.951,15.119 11.991,15.119 C13.721,15.119 15.111,13.729 15.111,11.999 C15.111,11.959 15.111,11.929 15.101,11.889 L17.911,9.079 C18.441,8.549 19.341,8.769 19.581,9.479 C19.771,10.049 19.901,10.639 19.951,11.259 L22.001,11.259 C22.411,11.249 22.751,11.589 22.751,11.999 Z"/>
  <path fill="#292D32" d="M21.77,2.23 C21.47,1.93 20.98,1.93 20.68,2.23 L17.07,5.84 C15.87,4.85 14.37,4.2 12.74,4.05 L12.74,2 C12.74,1.59 12.4,1.25 11.99,1.25 C11.58,1.25 11.24,1.59 11.24,2 L11.24,4.04 C7.43,4.4 4.38,7.44 4.03,11.25 L2,11.25 C1.59,11.25 1.25,11.59 1.25,12 C1.25,12.41 1.59,12.75 2,12.75 L4.04,12.75 C4.19,14.38 4.84,15.88 5.83,17.08 L2.22,20.69 C1.92,20.99 1.92,21.48 2.22,21.78 C2.38,21.92 2.57,22 2.77,22 C2.97,22 3.16,21.92 3.31,21.77 L21.77,3.31 C22.08,3.01 22.08,2.53 21.77,2.23 Z M8.88,12 C8.88,10.28 10.28,8.88 12,8.88 C12.58,8.88 13.12,9.05 13.58,9.33 L9.33,13.58 C9.05,13.12 8.88,12.58 8.88,12 Z"/>
</svg>

