<svg xmlns="http://www.w3.org/2000/svg" width="24" height="24" viewBox="0 0 24 24">
  <defs/>
  <path fill="#292D32" d="M22,11.25 L19.96,11.25 C19.6,7.44 16.56,4.39 12.75,4.04 L12.75,2 C12.75,1.59 12.41,1.25 12,1.25 C11.59,1.25 11.25,1.59 11.25,2 L11.25,4.04 C7.44,4.4 4.39,7.44 4.04,11.25 L2,11.25 C1.59,11.25 1.25,11.59 1.25,12 C1.25,12.41 1.59,12.75 2,12.75 L4.04,12.75 C4.4,16.56 7.44,19.61 11.25,19.96 L11.25,22 C11.25,22.41 11.59,22.75 12,22.75 C12.41,22.75 12.75,22.41 12.75,22 L12.75,19.96 C16.56,19.6 19.61,16.56 19.96,12.75 L22,12.75 C22.41,12.75 22.75,12.41 22.75,12 C22.75,11.59 22.41,11.25 22,11.25 Z M12,15.12 C10.28,15.12 8.88,13.72 8.88,12 C8.88,10.28 10.28,8.88 12,8.88 C13.72,8.88 15.12,10.28 15.12,12 C15.12,13.72 13.72,15.12 12,15.12 Z"/>
</svg>

