<svg xmlns="http://www.w3.org/2000/svg" width="24" height="24" viewBox="0 0 24 24">
  <defs/>
  <path fill="#292D32" d="M12,20.25 C10.85,20.25 9.74,20.02 8.7,19.56 C8.32,19.39 8.15,18.95 8.31,18.57 C8.48,18.19 8.92,18.02 9.3,18.18 C10.15,18.55 11.06,18.74 12,18.74 C15.72,18.74 18.75,15.71 18.75,11.99 C18.75,11.05 18.56,10.14 18.19,9.29 C18.02,8.91 18.2,8.47 18.58,8.3 C18.96,8.14 19.4,8.31 19.57,8.69 C20.03,9.73 20.26,10.84 20.26,11.99 C20.25,16.55 16.55,20.25 12,20.25 Z"/>
  <path fill="#292D32" d="M6.58,17.94 C6.38,17.94 6.19,17.86 6.04,17.71 C4.56,16.16 3.75,14.14 3.75,12 C3.75,7.45 7.45,3.75 12,3.75 C14.15,3.75 16.18,4.57 17.73,6.06 C18.03,6.35 18.04,6.82 17.75,7.12 C17.46,7.42 16.99,7.43 16.69,7.14 C15.42,5.92 13.76,5.25 12,5.25 C8.28,5.25 5.25,8.28 5.25,12 C5.25,13.75 5.92,15.41 7.13,16.67 C7.42,16.97 7.41,17.44 7.11,17.73 C6.96,17.87 6.77,17.94 6.58,17.94 Z"/>
  <path fill="#292D32" d="M12,4.75 C11.59,4.75 11.25,4.41 11.25,4 L11.25,2 C11.25,1.59 11.59,1.25 12,1.25 C12.41,1.25 12.75,1.59 12.75,2 L12.75,4 C12.75,4.41 12.41,4.75 12,4.75 Z"/>
  <path fill="#292D32" d="M4,12.75 L2,12.75 C1.59,12.75 1.25,12.41 1.25,12 C1.25,11.59 1.59,11.25 2,11.25 L4,11.25 C4.41,11.25 4.75,11.59 4.75,12 C4.75,12.41 4.41,12.75 4,12.75 Z"/>
  <path fill="#292D32" d="M12,22.75 C11.59,22.75 11.25,22.41 11.25,22 L11.25,20 C11.25,19.59 11.59,19.25 12,19.25 C12.41,19.25 12.75,19.59 12.75,20 L12.75,22 C12.75,22.41 12.41,22.75 12,22.75 Z"/>
  <path fill="#292D32" d="M22,12.75 L20,12.75 C19.59,12.75 19.25,12.41 19.25,12 C19.25,11.59 19.59,11.25 20,11.25 L22,11.25 C22.41,11.25 22.75,11.59 22.75,12 C22.75,12.41 22.41,12.75 22,12.75 Z"/>
  <path fill="#292D32" d="M9.88,14.87 C9.69,14.87 9.5,14.8 9.35,14.65 C8.64,13.94 8.25,13 8.25,12 C8.25,9.93 9.93,8.25 12,8.25 C13,8.25 13.94,8.64 14.65,9.35 C14.94,9.64 14.94,10.12 14.65,10.41 L10.41,14.65 C10.26,14.8 10.07,14.87 9.88,14.87 Z M12,9.75 C10.76,9.75 9.75,10.76 9.75,12 C9.75,12.34 9.83,12.67 9.97,12.97 L12.97,9.97 C12.67,9.83 12.34,9.75 12,9.75 Z"/>
  <path fill="#292D32" d="M1.999,22.75 C1.809,22.75 1.619,22.68 1.469,22.53 C1.179,22.24 1.179,21.76 1.469,21.47 L21.47,1.47 C21.759,1.18 22.239,1.18 22.529,1.47 C22.82,1.76 22.82,2.24 22.529,2.53 L2.529,22.53 C2.379,22.68 2.189,22.75 1.999,22.75 Z"/>
</svg>

