<svg xmlns="http://www.w3.org/2000/svg" width="24" height="24" viewBox="0 0 24 24">
  <defs/>
  <path fill="#292D32" opacity="0.4" d="M18.941,8.06 L15.111,11.89 C15.12,11.93 15.12,11.96 15.12,12 C15.12,13.72 13.72,15.12 12.001,15.12 C11.96,15.12 11.931,15.12 11.89,15.11 L8.061,18.94 C9.221,19.62 10.57,20 12.001,20 C16.41,20 20,16.41 20,12 C20,10.57 19.62,9.22 18.941,8.06 Z"/>
  <path fill="#292D32" opacity="0.4" d="M17.65,6.35 L14.2,9.8 C13.64,9.23 12.86,8.88 12,8.88 C10.28,8.88 8.88,10.28 8.88,12 C8.88,12.86 9.23,13.64 9.8,14.2 L6.35,17.65 C4.9,16.2 4,14.2 4,12 C4,7.59 7.59,4 12,4 C14.2,4 16.2,4.9 17.65,6.35 Z"/>
  <path fill="#292D32" d="M14.201,9.8 L9.801,14.2 C9.231,13.64 8.881,12.86 8.881,12 C8.881,10.28 10.281,8.88 12.001,8.88 C12.861,8.88 13.641,9.23 14.201,9.8 Z"/>
  <path fill="#292D32" d="M12.75,2 L12.75,4.04 L12.74,4.04 C12.5,4.01 12.25,4 12,4 C11.75,4 11.5,4.01 11.26,4.04 L11.25,4.04 L11.25,2 C11.25,1.59 11.59,1.25 12,1.25 C12.41,1.25 12.75,1.59 12.75,2 Z"/>
  <path fill="#292D32" d="M4,12 C4,12.25 4.01,12.51 4.04,12.75 L2,12.75 C1.59,12.75 1.25,12.41 1.25,12 C1.25,11.59 1.59,11.25 2,11.25 L4.04,11.25 C4.01,11.49 4,11.75 4,12 Z"/>
  <path fill="#292D32" d="M12.75,19.96 L12.75,22 C12.75,22.41 12.41,22.75 12,22.75 C11.59,22.75 11.25,22.41 11.25,22 L11.25,19.96 L11.26,19.96 C11.5,19.99 11.75,20 12,20 C12.25,20 12.5,19.99 12.74,19.96 L12.75,19.96 Z"/>
  <path fill="#292D32" d="M22.751,12 C22.751,12.41 22.411,12.75 22.001,12.75 L19.961,12.75 C19.991,12.51 20.001,12.25 20.001,12 C20.001,11.75 19.991,11.49 19.961,11.25 L22.001,11.25 C22.411,11.25 22.751,11.59 22.751,12 Z"/>
  <path fill="#292D32" d="M21.771,2.23 C21.471,1.93 20.981,1.93 20.681,2.23 L2.231,20.69 C1.931,20.99 1.931,21.48 2.231,21.78 C2.381,21.92 2.571,22 2.771,22 C2.971,22 3.161,21.92 3.311,21.77 L21.771,3.31 C22.081,3.01 22.081,2.53 21.771,2.23 Z"/>
</svg>

