<svg xmlns="http://www.w3.org/2000/svg" width="24" height="24" viewBox="0 0 24 24">
  <defs/>
  <path fill="#292D32" opacity="0.4" d="M12,20 C16.418,20 20,16.418 20,12 C20,7.582 16.418,4 12,4 C7.582,4 4,7.582 4,12 C4,16.418 7.582,20 12,20 Z"/>
  <path fill="#292D32" d="M12.001,15.12 C13.724,15.12 15.121,13.723 15.121,12 C15.121,10.277 13.724,8.88 12.001,8.88 C10.278,8.88 8.881,10.277 8.881,12 C8.881,13.723 10.278,15.12 12.001,15.12 Z"/>
  <path fill="#292D32" d="M12.75,2 L12.75,4.04 L12.74,4.04 C12.5,4.01 12.25,4 12,4 C11.75,4 11.5,4.01 11.26,4.04 L11.25,4.04 L11.25,2 C11.25,1.59 11.59,1.25 12,1.25 C12.41,1.25 12.75,1.59 12.75,2 Z"/>
  <path fill="#292D32" d="M4,12 C4,12.25 4.01,12.51 4.04,12.75 L2,12.75 C1.59,12.75 1.25,12.41 1.25,12 C1.25,11.59 1.59,11.25 2,11.25 L4.04,11.25 C4.01,11.49 4,11.75 4,12 Z"/>
  <path fill="#292D32" d="M12.75,19.96 L12.75,22 C12.75,22.41 12.41,22.75 12,22.75 C11.59,22.75 11.25,22.41 11.25,22 L11.25,19.96 L11.26,19.96 C11.5,19.99 11.75,20 12,20 C12.25,20 12.5,19.99 12.74,19.96 L12.75,19.96 Z"/>
  <path fill="#292D32" d="M22.751,12 C22.751,12.41 22.411,12.75 22.001,12.75 L19.961,12.75 C19.991,12.51 20.001,12.25 20.001,12 C20.001,11.75 19.991,11.49 19.961,11.25 L22.001,11.25 C22.411,11.25 22.751,11.59 22.751,12 Z"/>
</svg>

