<svg xmlns="http://www.w3.org/2000/svg" width="24" height="24" viewBox="0 0 24 24">
  <defs/>
  <path fill="#292D32" d="M9.299,18.192 Q10.582,18.75 12,18.75 Q14.794,18.75 16.772,16.772 Q18.75,14.794 18.75,12 Q18.75,10.582 18.192,9.299 Q18.068,9.014 18.182,8.725 Q18.296,8.436 18.581,8.312 Q18.866,8.188 19.155,8.302 Q19.444,8.416 19.568,8.701 Q20.25,10.27 20.25,12 Q20.25,15.416 17.833,17.833 Q15.416,20.25 12,20.25 Q10.27,20.25 8.701,19.568 Q8.416,19.444 8.302,19.155 Q8.188,18.866 8.312,18.581 Q8.436,18.296 8.725,18.182 Q9.014,18.068 9.299,18.192 Z"/>
  <path fill="#292D32" d="M5.491,10.216 Q5.25,11.06 5.25,12 Q5.25,14.713 7.122,16.672 Q7.337,16.896 7.33,17.207 Q7.323,17.518 7.098,17.732 Q6.874,17.947 6.563,17.94 Q6.252,17.933 6.038,17.708 Q3.75,15.314 3.75,12 Q3.75,10.85 4.049,9.804 Q4.134,9.505 4.406,9.354 Q4.677,9.204 4.976,9.289 Q5.275,9.374 5.426,9.646 Q5.576,9.917 5.491,10.216 Z"/>
  <path fill="#292D32" d="M16.69,7.14 Q14.727,5.25 12,5.25 Q9.421,5.25 7.5,6.969 Q7.269,7.176 6.958,7.159 Q6.648,7.142 6.441,6.91 Q6.234,6.679 6.251,6.368 Q6.268,6.058 6.5,5.851 Q8.848,3.75 12,3.75 Q15.332,3.75 17.73,6.06 Q17.954,6.275 17.96,6.586 Q17.966,6.896 17.75,7.12 Q17.535,7.344 17.224,7.35 Q16.914,7.356 16.69,7.14 Z"/>
  <path fill="#292D32" d="M11.25,4 L11.25,2 Q11.25,1.689 11.47,1.47 Q11.689,1.25 12,1.25 Q12.311,1.25 12.53,1.47 Q12.75,1.689 12.75,2 L12.75,4 Q12.75,4.311 12.53,4.53 Q12.311,4.75 12,4.75 Q11.689,4.75 11.47,4.53 Q11.25,4.311 11.25,4 Z"/>
  <path fill="#292D32" d="M4,12.75 L2,12.75 Q1.689,12.75 1.47,12.53 Q1.25,12.311 1.25,12 Q1.25,11.689 1.47,11.47 Q1.689,11.25 2,11.25 L4,11.25 Q4.311,11.25 4.53,11.47 Q4.75,11.689 4.75,12 Q4.75,12.311 4.53,12.53 Q4.311,12.75 4,12.75 Z"/>
  <path fill="#292D32" d="M12.75,20 L12.75,22 Q12.75,22.311 12.53,22.53 Q12.311,22.75 12,22.75 Q11.689,22.75 11.47,22.53 Q11.25,22.311 11.25,22 L11.25,20 Q11.25,19.689 11.47,19.47 Q11.689,19.25 12,19.25 Q12.311,19.25 12.53,19.47 Q12.75,19.689 12.75,20 Z"/>
  <path fill="#292D32" d="M20,11.25 L22,11.25 Q22.311,11.25 22.53,11.47 Q22.75,11.689 22.75,12 Q22.75,12.311 22.53,12.53 Q22.311,12.75 22,12.75 L20,12.75 Q19.689,12.75 19.47,12.53 Q19.25,12.311 19.25,12 Q19.25,11.689 19.47,11.47 Q19.689,11.25 20,11.25 Z"/>
  <path fill="#292D32" d="M14.65,10.41 L10.41,14.65 Q10.191,14.87 9.88,14.87 Q9.569,14.87 9.35,14.65 Q8.25,13.551 8.25,12 Q8.25,8.25 12,8.25 Q13.551,8.25 14.65,9.35 Q14.87,9.569 14.87,9.88 Q14.87,10.191 14.65,10.41 Z M12.974,9.965 Q12.531,9.75 12,9.75 Q9.75,9.75 9.75,12 Q9.75,12.531 9.965,12.974 L12.974,9.965 Z"/>
  <path fill="#292D32" d="M22.53,2.53 L2.53,22.53 Q2.311,22.75 2,22.75 Q1.689,22.75 1.47,22.53 Q1.25,22.311 1.25,22 Q1.25,21.689 1.47,21.47 L21.47,1.47 Q21.689,1.25 22,1.25 Q22.311,1.25 22.53,1.47 Q22.75,1.689 22.75,2 Q22.75,2.311 22.53,2.53 Z"/>
</svg>

