<svg xmlns="http://www.w3.org/2000/svg" width="24" height="24" viewBox="0 0 24 24">
  <defs/>
  <path fill="#292D32" d="M19.11,4.96 C15.2,1.05 8.85,1.05 4.94,4.96 C0.96,8.94 1.03,15.43 5.14,19.33 C8.94,22.92 15.101,22.92 18.901,19.33 C23.02,15.43 23.09,8.94 19.11,4.96 Z M16.381,16.65 C15.181,17.79 13.601,18.36 12.021,18.36 C10.441,18.36 8.86,17.79 7.66,16.65 C7.36,16.36 7.35,15.89 7.63,15.59 C7.92,15.29 8.39,15.28 8.69,15.56 C10.521,17.29 13.511,17.3 15.351,15.56 C15.65,15.28 16.131,15.29 16.41,15.59 C16.701,15.89 16.68,16.36 16.381,16.65 Z"/>
</svg>

