<svg xmlns="http://www.w3.org/2000/svg" width="24" height="24" viewBox="0 0 24 24">
  <defs/>
  <path fill="#292D32" d="M19.601,4.42 L19.602,4.42 Q22.806,7.625 22.747,12.16 Q22.688,16.702 19.387,19.834 Q16.327,22.732 12.004,22.733 Q7.682,22.732 4.616,19.835 Q1.306,16.703 1.247,12.16 Q1.188,7.624 4.401,4.419 Q7.544,1.268 12,1.268 Q16.456,1.268 19.601,4.42 Z M18.54,5.48 Q15.834,2.768 12.001,2.768 Q8.167,2.768 5.46,5.481 Q2.696,8.238 2.747,12.14 Q2.798,16.049 5.646,18.745 Q8.279,21.233 12.004,21.233 Q15.729,21.232 18.354,18.746 Q21.196,16.05 21.247,12.14 Q21.298,8.238 18.54,5.48 Z"/>
  <path fill="#292D32" opacity="0.4" d="M16.355,16.615 Q14.548,18.32 12.001,18.32 Q9.453,18.32 7.654,16.614 Q7.428,16.4 7.42,16.09 Q7.412,15.779 7.626,15.554 Q7.839,15.328 8.15,15.32 Q8.46,15.312 8.686,15.525 Q10.051,16.82 12.001,16.82 Q13.952,16.82 15.325,15.524 Q15.551,15.311 15.862,15.32 Q16.172,15.329 16.385,15.555 Q16.599,15.781 16.59,16.092 Q16.581,16.402 16.355,16.615 Z"/>
</svg>

