<svg xmlns="http://www.w3.org/2000/svg" width="24" height="24" viewBox="0 0 24 24">
  <defs/>
  <path fill="#292D32" d="M12.001,22.72 C9.331,22.72 6.651,21.76 4.621,19.83 C2.491,17.81 1.291,15.09 1.251,12.17 C1.211,9.24 2.331,6.49 4.401,4.42 C8.591,0.23 15.411,0.23 19.601,4.42 C21.671,6.49 22.791,9.24 22.751,12.17 C22.711,15.1 21.511,17.82 19.381,19.83 C17.351,21.76 14.671,22.72 12.001,22.72 Z M12.001,2.78 C9.631,2.78 7.261,3.68 5.461,5.48 C3.681,7.26 2.721,9.63 2.751,12.15 C2.781,14.67 3.811,17.01 5.651,18.74 C9.151,22.06 14.851,22.05 18.351,18.74 C20.181,17.01 21.211,14.66 21.251,12.15 C21.291,9.64 20.321,7.26 18.541,5.48 C16.741,3.68 14.371,2.78 12.001,2.78 Z"/>
  <path fill="#292D32" d="M12.001,18.32 C10.421,18.32 8.851,17.75 7.651,16.62 C7.351,16.33 7.341,15.86 7.621,15.56 C7.911,15.26 8.381,15.25 8.681,15.53 C10.511,17.26 13.491,17.26 15.321,15.53 C15.621,15.25 16.101,15.26 16.381,15.56 C16.661,15.86 16.651,16.34 16.351,16.62 C15.151,17.75 13.581,18.32 12.001,18.32 Z"/>
</svg>

