<svg xmlns="http://www.w3.org/2000/svg" width="24" height="24" viewBox="0 0 24 24">
  <defs/>
  <path fill="#292D32" d="M19.6,4.42 L19.601,4.42 Q22.805,7.625 22.746,12.16 Q22.687,16.702 19.386,19.834 Q16.326,22.732 12.004,22.733 Q7.682,22.732 4.615,19.835 Q1.305,16.703 1.246,12.16 Q1.187,7.624 4.4,4.419 Q7.544,1.268 12,1.268 Q16.456,1.268 19.6,4.42 Z M18.539,5.48 Q15.834,2.768 12,2.768 Q8.166,2.768 5.46,5.481 Q2.696,8.238 2.746,12.14 Q2.797,16.049 5.645,18.745 Q8.278,21.232 12.004,21.233 Q15.729,21.232 18.354,18.746 Q21.196,16.05 21.246,12.14 Q21.297,8.238 18.54,5.48 Z"/>
  <path fill="#292D32" d="M16.355,16.616 Q14.548,18.32 12.001,18.32 Q9.453,18.32 7.654,16.614 Q7.428,16.401 7.42,16.09 Q7.412,15.78 7.626,15.554 Q7.839,15.329 8.15,15.32 Q8.46,15.312 8.686,15.526 Q10.051,16.82 12.001,16.82 Q13.952,16.82 15.325,15.525 Q15.551,15.311 15.862,15.32 Q16.172,15.329 16.385,15.555 Q16.599,15.781 16.59,16.092 Q16.581,16.402 16.355,16.616 Z"/>
</svg>

