<svg xmlns="http://www.w3.org/2000/svg" width="24" height="24" viewBox="0 0 24 24">
  <defs/>
  <path fill="#292D32" opacity="0.4" d="M19.071,4.95 C23.041,8.92 22.971,15.4 18.871,19.29 C15.081,22.88 8.931,22.88 5.131,19.29 C1.021,15.4 0.951,8.92 4.931,4.95 C8.831,1.04 15.171,1.04 19.071,4.95 Z"/>
  <path fill="#292D32" d="M12.001,18.32 C10.421,18.32 8.851,17.75 7.651,16.62 C7.351,16.33 7.341,15.86 7.621,15.56 C7.911,15.26 8.381,15.25 8.681,15.53 C10.511,17.26 13.491,17.26 15.321,15.53 C15.621,15.25 16.101,15.26 16.381,15.56 C16.661,15.86 16.651,16.34 16.351,16.62 C15.151,17.75 13.581,18.32 12.001,18.32 Z"/>
</svg>

