<svg xmlns="http://www.w3.org/2000/svg" width="24" height="24" viewBox="0 0 24 24">
  <defs/>
  <path fill="#292D32" d="M16.069,3.68 Q14.05,3.089 13.348,3.594 Q12.75,4.024 12.75,5.68 L12.75,8.56 Q12.75,10.074 13.307,10.693 Q13.809,11.25 15,11.25 L18.32,11.25 Q19.976,11.25 20.406,10.652 Q20.911,9.95 20.32,7.931 Q20.031,6.958 19.391,6.068 Q19.21,5.815 19.26,5.509 Q19.31,5.202 19.562,5.021 Q19.815,4.84 20.121,4.89 Q20.428,4.94 20.609,5.192 Q21.397,6.288 21.76,7.509 Q22.557,10.232 21.624,11.528 Q20.744,12.75 18.32,12.75 L15,12.75 Q13.141,12.75 12.193,11.697 Q11.25,10.65 11.25,8.56 L11.25,5.68 Q11.25,3.256 12.472,2.376 Q13.768,1.443 16.491,2.24 Q16.789,2.327 16.938,2.6 Q17.087,2.872 17,3.171 Q16.913,3.469 16.64,3.618 Q16.367,3.767 16.069,3.68 Z"/>
  <path fill="#292D32" d="M1.379,14.549 Q0.733,10.528 3.044,7.25 Q5.3,4.052 9.11,3.275 Q9.414,3.213 9.673,3.384 Q9.932,3.556 9.994,3.86 Q10.056,4.165 9.885,4.424 Q9.714,4.683 9.409,4.745 Q6.182,5.403 4.27,8.115 Q2.311,10.893 2.86,14.311 Q2.909,14.618 2.727,14.869 Q2.545,15.121 2.238,15.17 Q1.932,15.22 1.68,15.038 Q1.428,14.856 1.379,14.549 Z"/>
  <path fill="#292D32" d="M20.735,14.848 Q19.967,18.675 16.769,20.941 Q13.489,23.265 9.46,22.61 Q5.797,22.035 3.416,19.081 Q3.221,18.839 3.254,18.53 Q3.287,18.221 3.529,18.026 Q3.771,17.831 4.08,17.864 Q4.389,17.897 4.584,18.139 Q6.602,20.643 9.7,21.13 Q13.123,21.686 15.901,19.717 Q18.613,17.795 19.265,14.552 Q19.326,14.248 19.584,14.076 Q19.843,13.904 20.148,13.965 Q20.452,14.026 20.624,14.284 Q20.796,14.543 20.735,14.848 Z"/>
</svg>

