<svg xmlns="http://www.w3.org/2000/svg" width="24" height="24" viewBox="0 0 24 24">
  <defs/>
  <path fill="#292D32" d="M18.32,12.75 L15,12.75 C12.51,12.75 11.25,11.34 11.25,8.55 L11.25,5.68 C11.25,4.66 11.37,3.2 12.43,2.4 C13.32,1.74 14.6,1.69 16.49,2.24 C18.97,2.96 21.04,5.03 21.76,7.51 C22.31,9.39 22.26,10.68 21.6,11.56 C20.8,12.63 19.34,12.75 18.32,12.75 Z M14.28,3.36 C13.87,3.36 13.55,3.44 13.34,3.6 C12.95,3.89 12.76,4.57 12.76,5.68 L12.76,8.56 C12.76,10.8 13.62,11.26 15.01,11.26 L18.33,11.26 C19.43,11.26 20.11,11.07 20.41,10.68 C20.76,10.22 20.73,9.3 20.34,7.95 C19.76,5.98 18.06,4.27 16.09,3.7 C15.35,3.47 14.75,3.36 14.28,3.36 Z"/>
  <path fill="#292D32" d="M11.07,22.75 C10.54,22.75 10,22.71 9.46,22.62 C5.37,21.96 2.04,18.64 1.38,14.55 C0.53,9.29 3.92,4.33 9.11,3.27 C9.52,3.19 9.91,3.45 10,3.85 C10.08,4.26 9.82,4.65 9.42,4.74 C5.03,5.64 2.15,9.84 2.88,14.31 C3.44,17.77 6.25,20.58 9.71,21.14 C14.2,21.86 18.39,18.97 19.28,14.56 C19.36,14.15 19.76,13.89 20.16,13.97 C20.57,14.05 20.83,14.45 20.75,14.85 C19.8,19.52 15.72,22.75 11.07,22.75 Z"/>
</svg>

