<svg xmlns="http://www.w3.org/2000/svg" width="24" height="24" viewBox="0 0 24 24">
  <defs/>
  <path fill="#292D32" opacity="0.4" d="M18.32,12.75 L15,12.75 Q11.25,12.75 11.25,8.56 L11.25,5.68 Q11.25,3.256 12.472,2.376 Q13.768,1.444 16.492,2.241 Q20.562,3.438 21.76,7.51 Q22.557,10.232 21.624,11.528 Q20.744,12.75 18.32,12.75 Z M18.32,11.25 Q19.976,11.25 20.406,10.652 Q20.911,9.95 20.32,7.931 Q19.354,4.646 16.068,3.68 Q14.05,3.089 13.348,3.594 Q12.75,4.024 12.75,5.68 L12.75,8.56 Q12.75,11.25 15,11.25 Z"/>
  <path fill="#292D32" d="M20.736,14.847 Q19.967,18.674 16.769,20.94 Q13.49,23.264 9.46,22.61 Q2.517,21.493 1.38,14.541 Q0.733,10.524 3.045,7.249 Q5.301,4.052 9.111,3.275 Q9.415,3.213 9.674,3.384 Q9.933,3.556 9.995,3.86 Q10.057,4.164 9.886,4.423 Q9.715,4.683 9.41,4.745 Q6.184,5.403 4.271,8.113 Q2.312,10.889 2.861,14.299 Q3.823,20.184 9.701,21.129 Q13.124,21.685 15.902,19.717 Q18.614,17.795 19.265,14.552 Q19.326,14.248 19.585,14.075 Q19.844,13.903 20.148,13.964 Q20.453,14.026 20.625,14.284 Q20.797,14.543 20.736,14.847 Z"/>
</svg>

