<svg xmlns="http://www.w3.org/2000/svg" width="24" height="24" viewBox="0 0 24 24">
  <defs/>
  <path fill="#292D32" d="M21.67,6.949 C21.03,4.779 19.22,2.969 17.05,2.329 C15.4,1.849 14.26,1.889 13.47,2.479 C12.52,3.189 12.41,4.469 12.41,5.379 L12.41,7.869 C12.41,10.329 13.53,11.579 15.73,11.579 L18.6,11.579 C19.5,11.579 20.79,11.469 21.5,10.519 C22.11,9.739 22.16,8.599 21.67,6.949 Z"/>
  <path fill="#292D32" d="M18.909,13.361 C18.649,13.061 18.269,12.891 17.879,12.891 L14.299,12.891 C12.539,12.891 11.109,11.461 11.109,9.701 L11.109,6.121 C11.109,5.731 10.939,5.351 10.639,5.091 C10.349,4.831 9.949,4.711 9.569,4.761 C7.219,5.061 5.059,6.351 3.649,8.291 C2.229,10.241 1.709,12.621 2.159,15.001 C2.809,18.441 5.559,21.191 9.009,21.841 C9.559,21.951 10.109,22.001 10.659,22.001 C12.469,22.001 14.219,21.441 15.709,20.351 C17.649,18.941 18.939,16.781 19.239,14.431 C19.289,14.041 19.169,13.651 18.909,13.361 Z"/>
</svg>

