<svg xmlns="http://www.w3.org/2000/svg" width="24" height="24" viewBox="0 0 24 24">
  <defs/>
  <path fill="#292D32" d="M18.32,12.75 L15,12.75 Q13.141,12.75 12.193,11.697 Q11.25,10.65 11.25,8.56 L11.25,5.68 Q11.25,3.256 12.472,2.376 Q13.768,1.443 16.492,2.24 Q20.562,3.438 21.76,7.509 Q22.557,10.232 21.624,11.528 Q20.744,12.75 18.32,12.75 Z M18.32,11.25 Q19.976,11.25 20.406,10.652 Q20.911,9.95 20.32,7.931 Q19.354,4.646 16.068,3.679 Q14.05,3.089 13.348,3.594 Q12.75,4.024 12.75,5.68 L12.75,8.56 Q12.75,10.074 13.307,10.693 Q13.809,11.25 15,11.25 Z"/>
  <path fill="#292D32" d="M20.735,14.848 Q19.967,18.675 16.769,20.941 Q13.489,23.265 9.46,22.61 Q2.517,21.493 1.38,14.541 Q0.733,10.524 3.045,7.249 Q5.301,4.052 9.11,3.275 Q9.414,3.213 9.674,3.384 Q9.933,3.556 9.995,3.86 Q10.057,4.165 9.886,4.424 Q9.714,4.683 9.41,4.745 Q6.183,5.403 4.27,8.114 Q2.311,10.89 2.86,14.299 Q3.823,20.184 9.7,21.13 Q13.123,21.686 15.901,19.717 Q18.613,17.795 19.265,14.552 Q19.326,14.248 19.584,14.076 Q19.843,13.904 20.148,13.965 Q20.452,14.026 20.624,14.284 Q20.796,14.543 20.735,14.848 Z"/>
</svg>

