<svg xmlns="http://www.w3.org/2000/svg" width="24" height="24" viewBox="0 0 24 24">
  <defs/>
  <path fill="#292D32" d="M21.67,6.95 C21.03,4.78 19.22,2.97 17.05,2.33 C15.4,1.85 14.26,1.89 13.47,2.48 C12.52,3.19 12.41,4.47 12.41,5.38 L12.41,7.87 C12.41,10.33 13.53,11.58 15.73,11.58 L18.6,11.58 C19.5,11.58 20.79,11.47 21.5,10.52 C22.11,9.74 22.16,8.6 21.67,6.95 Z"/>
  <path fill="#292D32" opacity="0.4" d="M18.909,13.36 C18.649,13.06 18.269,12.89 17.879,12.89 L14.299,12.89 C12.539,12.89 11.109,11.46 11.109,9.7 L11.109,6.12 C11.109,5.73 10.939,5.35 10.639,5.09 C10.349,4.83 9.949,4.71 9.569,4.76 C7.219,5.06 5.059,6.35 3.649,8.29 C2.229,10.24 1.709,12.62 2.159,15 C2.809,18.44 5.559,21.19 9.009,21.84 C9.559,21.95 10.109,22 10.659,22 C12.469,22 14.219,21.44 15.709,20.35 C17.649,18.94 18.939,16.78 19.239,14.43 C19.289,14.04 19.169,13.65 18.909,13.36 Z"/>
</svg>

