<svg xmlns="http://www.w3.org/2000/svg" width="24" height="24" viewBox="0 0 24 24">
  <defs/>
  <path fill="#292D32" d="M7.75,2 L7.75,7.8 L2,7.8 C2,4.19 4.15,2.02 7.75,2 Z"/>
  <path fill="#292D32" d="M22,7.8 L16.25,7.8 L16.25,2 C19.85,2.02 22,4.19 22,7.8 Z"/>
  <path fill="#292D32" d="M22,16.301 C21.96,19.851 19.82,21.981 16.25,22.001 L16.25,16.301 L22,16.301 Z"/>
  <path fill="#292D32" d="M7.75,16.301 L7.75,22.001 C4.18,21.981 2.04,19.851 2,16.301 L7.75,16.301 Z"/>
  <path fill="#292D32" d="M7.75,9.301 L2,9.301 L2,14.801 L7.75,14.801 L7.75,9.301 Z"/>
  <path fill="#292D32" d="M22,9.301 L16.25,9.301 L16.25,14.801 L22,14.801 L22,9.301 Z"/>
  <path fill="#292D32" d="M14.75,9.301 L9.25,9.301 L9.25,14.801 L14.75,14.801 L14.75,9.301 Z"/>
  <path fill="#292D32" d="M14.75,2 L9.25,2 L9.25,7.8 L14.75,7.8 L14.75,2 Z"/>
  <path fill="#292D32" d="M14.75,16.301 L9.25,16.301 L9.25,22.001 L14.75,22.001 L14.75,16.301 Z"/>
</svg>

