<svg xmlns="http://www.w3.org/2000/svg" width="24" height="24" viewBox="0 0 24 24">
  <defs/>
  <path fill="#292D32" d="M9.75,2 L9.75,22 Q9.75,22.311 9.53,22.53 Q9.311,22.75 9,22.75 Q8.689,22.75 8.47,22.53 Q8.25,22.311 8.25,22 L8.25,2 Q8.25,1.689 8.47,1.47 Q8.689,1.25 9,1.25 Q9.311,1.25 9.53,1.47 Q9.75,1.689 9.75,2 Z"/>
  <path fill="#292D32" d="M9,7.75 L22,7.75 Q22.311,7.75 22.53,7.97 Q22.75,8.189 22.75,8.5 Q22.75,8.811 22.53,9.03 Q22.311,9.25 22,9.25 L9,9.25 Q8.689,9.25 8.47,9.03 Q8.25,8.811 8.25,8.5 Q8.25,8.189 8.47,7.97 Q8.689,7.75 9,7.75 Z"/>
  <path fill="#292D32" d="M9,14.75 L22,14.75 Q22.311,14.75 22.53,14.97 Q22.75,15.189 22.75,15.5 Q22.75,15.811 22.53,16.03 Q22.311,16.25 22,16.25 L9,16.25 Q8.689,16.25 8.47,16.03 Q8.25,15.811 8.25,15.5 Q8.25,15.189 8.47,14.97 Q8.689,14.75 9,14.75 Z"/>
  <path fill="#292D32" d="M4.434,3.901 Q2.75,5.276 2.75,9 L2.75,15 Q2.75,18.439 4.155,19.845 Q5.561,21.25 9,21.25 L15,21.25 Q18.439,21.25 19.845,19.845 Q21.25,18.439 21.25,15 L21.25,9 Q21.25,2.75 15,2.75 L9,2.75 Q8.689,2.75 8.47,2.53 Q8.25,2.311 8.25,2 Q8.25,1.689 8.47,1.47 Q8.689,1.25 9,1.25 L15,1.25 Q22.75,1.25 22.75,9 L22.75,15 Q22.75,22.75 15,22.75 L9,22.75 Q1.25,22.75 1.25,15 L1.25,9 Q1.25,4.564 3.486,2.739 Q3.726,2.543 4.036,2.574 Q4.345,2.605 4.541,2.846 Q4.737,3.086 4.706,3.396 Q4.675,3.705 4.434,3.901 Z"/>
</svg>

