<svg xmlns="http://www.w3.org/2000/svg" width="24" height="24" viewBox="0 0 24 24">
  <defs/>
  <path fill="#292D32" d="M15,22.75 L9,22.75 C3.57,22.75 1.25,20.43 1.25,15 L1.25,9 C1.25,3.57 3.57,1.25 9,1.25 L15,1.25 C20.43,1.25 22.75,3.57 22.75,9 L22.75,15 C22.75,20.43 20.43,22.75 15,22.75 Z M9,2.75 C4.39,2.75 2.75,4.39 2.75,9 L2.75,15 C2.75,19.61 4.39,21.25 9,21.25 L15,21.25 C19.61,21.25 21.25,19.61 21.25,15 L21.25,9 C21.25,4.39 19.61,2.75 15,2.75 L9,2.75 Z"/>
  <path fill="#292D32" d="M22,12.75 L2,12.75 C1.59,12.75 1.25,12.41 1.25,12 C1.25,11.59 1.59,11.25 2,11.25 L22,11.25 C22.41,11.25 22.75,11.59 22.75,12 C22.75,12.41 22.41,12.75 22,12.75 Z"/>
  <path fill="#292D32" d="M8.25,22.25 C7.84,22.25 7.5,21.91 7.5,21.5 L7.5,12 C7.5,11.59 7.84,11.25 8.25,11.25 C8.66,11.25 9,11.59 9,12 L9,21.5 C9,21.91 8.66,22.25 8.25,22.25 Z"/>
  <path fill="#292D32" d="M15.75,22.75 C15.34,22.75 15,22.41 15,22 L15,12 C15,11.59 15.34,11.25 15.75,11.25 C16.16,11.25 16.5,11.59 16.5,12 L16.5,22 C16.5,22.41 16.16,22.75 15.75,22.75 Z"/>
  <path fill="#292D32" d="M8.25,12.75 C7.84,12.75 7.5,12.41 7.5,12 L7.5,2 C7.5,1.59 7.84,1.25 8.25,1.25 C8.66,1.25 9,1.59 9,2 L9,12 C9,12.41 8.66,12.75 8.25,12.75 Z"/>
  <path fill="#292D32" d="M15.75,12.75 C15.34,12.75 15,12.41 15,12 L15,2.54 C15,2.13 15.34,1.79 15.75,1.79 C16.16,1.79 16.5,2.13 16.5,2.54 L16.5,12 C16.5,12.41 16.16,12.75 15.75,12.75 Z"/>
</svg>

