<svg xmlns="http://www.w3.org/2000/svg" width="24" height="24" viewBox="0 0 24 24">
  <defs/>
  <path fill="#292D32" d="M16.19,2 L12.75,2 L12.75,8 L12.75,8.75 L12.75,13.75 L22,13.75 L22,8.75 L22,8 L22,7.81 C22,4.17 19.83,2 16.19,2 Z"/>
  <path fill="#292D32" d="M2,10.25 L2,15.25 L2,15.75 L2,16.19 C2,19.83 4.17,22 7.81,22 L11.25,22 L11.25,15.75 L11.25,15.25 L11.25,10.25 L2,10.25 Z"/>
  <path fill="#292D32" d="M11.25,2 L11.25,8.75 L2,8.75 L2,7.81 C2,4.17 4.17,2 7.81,2 L11.25,2 Z"/>
  <path fill="#292D32" d="M22,15.25 L22,16.19 C22,19.83 19.83,22 16.19,22 L12.75,22 L12.75,15.25 L22,15.25 Z"/>
</svg>

