<svg xmlns="http://www.w3.org/2000/svg" width="24" height="24" viewBox="0 0 24 24">
  <defs/>
  <path fill="#292D32" d="M21.33,14.67 C20.28,13.62 19.45,13.96 18.73,14.67 L14.58,18.82 C14.42,18.98 14.27,19.29 14.23,19.51 L14,21.1 C13.92,21.67 14.32,22.08 14.89,21.99 L16.48,21.76 C16.7,21.73 17.01,21.57 17.17,21.41 L21.32,17.26 C22.05,16.55 22.38,15.72 21.33,14.67 Z"/>
  <path fill="#292D32" d="M8.39,2.17 L8.39,8.62 L1.93,8.62 L1.93,7.94 C1.93,4.33 4.08,2.18 7.69,2.18 L8.39,2.18 L8.39,2.17 Z"/>
  <path fill="#292D32" d="M21.77,7.93 C21.77,8.31 21.46,8.61 21.09,8.61 L15.34,8.61 L15.34,2.16 L16.01,2.16 C19.19,2.17 21.77,4.75 21.77,7.93 Z"/>
  <path fill="#292D32" d="M8.389,15.55 L8.389,21.31 C8.389,21.69 8.079,21.99 7.709,21.99 L7.699,21.99 C4.519,21.99 1.939,19.41 1.939,16.23 L1.939,15.55 L8.389,15.55 Z"/>
  <path fill="#292D32" opacity="0.4" d="M8.399,8.61 L1.939,8.61 L1.939,15.55 L8.399,15.55 L8.399,8.61 Z"/>
  <path fill="#292D32" d="M15.331,8.61 L15.331,14.55 C15.331,15.1 14.881,15.55 14.331,15.55 L8.391,15.55 L8.391,8.61 L15.331,8.61 Z"/>
  <path fill="#292D32" opacity="0.4" d="M15.331,2.17 L8.391,2.17 L8.391,8.62 L15.331,8.62 L15.331,2.17 Z"/>
</svg>

