<svg xmlns="http://www.w3.org/2000/svg" width="24" height="24" viewBox="0 0 24 24">
  <defs/>
  <path fill="#292D32" d="M10,22.75 L9,22.75 C3.57,22.75 1.25,20.43 1.25,15 L1.25,9 C1.25,3.57 3.57,1.25 9,1.25 L15,1.25 C20.43,1.25 22.75,3.57 22.75,9 L22.75,11 C22.75,11.41 22.41,11.75 22,11.75 C21.59,11.75 21.25,11.41 21.25,11 L21.25,9 C21.25,4.39 19.61,2.75 15,2.75 L9,2.75 C4.39,2.75 2.75,4.39 2.75,9 L2.75,15 C2.75,19.61 4.39,21.25 9,21.25 L10,21.25 C10.41,21.25 10.75,21.59 10.75,22 C10.75,22.41 10.41,22.75 10,22.75 Z"/>
  <path fill="#292D32" d="M22.001,9.25 L2.031,9.25 C1.621,9.25 1.281,8.91 1.281,8.5 C1.281,8.09 1.621,7.75 2.031,7.75 L22.001,7.75 C22.411,7.75 22.751,8.09 22.751,8.5 C22.751,8.91 22.411,9.25 22.001,9.25 Z"/>
  <path fill="#292D32" d="M12.001,16.25 L2.031,16.25 C1.621,16.25 1.281,15.91 1.281,15.5 C1.281,15.09 1.621,14.75 2.031,14.75 L12.001,14.75 C12.411,14.75 12.751,15.09 12.751,15.5 C12.751,15.91 12.411,16.25 12.001,16.25 Z"/>
  <path fill="#292D32" d="M8.51,22.74 C8.1,22.74 7.76,22.4 7.76,21.99 L7.76,2.02 C7.76,1.61 8.1,1.27 8.51,1.27 C8.92,1.27 9.26,1.61 9.26,2.02 L9.26,21.99 C9.26,22.4 8.93,22.74 8.51,22.74 Z"/>
  <path fill="#292D32" d="M15.51,12.74 C15.1,12.74 14.76,12.4 14.76,11.99 L14.76,2.02 C14.76,1.61 15.1,1.27 15.51,1.27 C15.92,1.27 16.26,1.61 16.26,2.02 L16.26,11.99 C16.26,12.4 15.93,12.74 15.51,12.74 Z"/>
  <path fill="#292D32" d="M15.949,22.75 C15.409,22.75 14.879,22.55 14.459,22.14 L12.869,20.54 C12.059,19.73 12.059,18.4 12.869,17.57 L14.779,15.67 C15.069,15.38 15.549,15.38 15.839,15.67 L19.339,19.17 C19.479,19.31 19.559,19.5 19.559,19.7 C19.559,19.9 19.479,20.09 19.339,20.23 L17.439,22.13 C17.019,22.54 16.489,22.75 15.949,22.75 Z M15.299,17.27 L13.929,18.64 C13.699,18.87 13.699,19.26 13.929,19.49 L15.509,21.08 C15.739,21.31 16.129,21.31 16.359,21.08 L17.739,19.71 L15.299,17.27 Z"/>
  <path fill="#292D32" d="M18.8,20.45 C18.6,20.45 18.41,20.37 18.27,20.23 L14.77,16.73 C14.48,16.44 14.48,15.96 14.77,15.67 L17.58,12.85 C18.4,12.03 19.74,12.03 20.56,12.85 L22.14,14.44 C22.53,14.83 22.75,15.36 22.75,15.93 C22.75,16.5 22.53,17.02 22.14,17.42 L19.34,20.23 C19.19,20.38 19,20.45 18.8,20.45 Z M16.37,16.21 L18.81,18.65 L21.08,16.37 C21.19,16.26 21.25,16.11 21.25,15.94 C21.25,15.78 21.19,15.62 21.08,15.51 L19.5,13.92 C19.27,13.69 18.88,13.69 18.65,13.92 L16.37,16.21 Z"/>
</svg>

