<svg xmlns="http://www.w3.org/2000/svg" width="24" height="24" viewBox="0 0 24 24">
  <defs/>
  <path fill="#292D32" d="M22,7.749 L9.75,7.749 L9.75,1.949 L16.19,1.949 C19.83,1.949 22,4.119 22,7.749 Z"/>
  <path fill="#292D32" d="M22,16.25 C21.95,19.82 19.79,21.95 16.19,21.95 L9.75,21.95 L9.75,16.25 L22,16.25 Z"/>
  <path fill="#292D32" d="M8.25,1.949 L8.25,21.949 L7.81,21.949 C4.17,21.949 2,19.779 2,16.139 L2,7.759 C2,4.119 4.17,1.949 7.81,1.949 L8.25,1.949 Z"/>
  <path fill="#292D32" d="M22,9.25 L9.75,9.25 L9.75,14.75 L22,14.75 L22,9.25 Z"/>
</svg>

