<svg xmlns="http://www.w3.org/2000/svg" width="24" height="24" viewBox="0 0 24 24">
  <defs/>
  <path fill="#292D32" d="M18.8,20.701 L16.9,22.611 C16.38,23.131 15.52,23.131 14.98,22.611 L13.4,21.021 C12.88,20.491 12.88,19.641 13.4,19.101 L15.31,17.211 L18.8,20.701 Z"/>
  <path fill="#292D32" d="M22.61,16.9 L19.8,19.7 L16.311,16.21 L19.11,13.39 C19.64,12.87 20.5,12.87 21.03,13.39 L22.61,14.98 C23.131,15.51 23.131,16.38 22.61,16.9 Z"/>
  <path fill="#292D32" d="M6.747,2.065 C7.297,1.994 7.75,2.451 7.75,3.006 L7.75,6.8 C7.75,7.352 7.302,7.8 6.75,7.8 L3,7.8 C2.448,7.8 1.992,7.35 2.059,6.802 C2.386,4.115 4.072,2.412 6.747,2.065 Z"/>
  <path fill="#292D32" d="M20.93,7.8 L17.25,7.8 C16.698,7.8 16.25,7.352 16.25,6.8 L16.25,3.006 C16.25,2.452 16.704,1.995 17.254,2.066 C19.888,2.41 21.564,4.068 21.93,6.68 C22.01,7.27 21.53,7.8 20.93,7.8 Z"/>
  <path fill="#292D32" d="M6.75,16.301 C7.302,16.301 7.75,16.748 7.75,17.301 L7.75,20.921 C7.75,21.521 7.22,22.001 6.62,21.921 C4.051,21.538 2.43,19.892 2.074,17.311 C1.998,16.759 2.455,16.301 3.013,16.301 L6.75,16.301 Z"/>
  <path fill="#292D32" d="M7.75,10.301 C7.75,9.748 7.302,9.301 6.75,9.301 L3,9.301 C2.448,9.301 2,9.748 2,10.301 L2,13.801 C2,14.353 2.448,14.801 3,14.801 L6.75,14.801 C7.302,14.801 7.75,14.353 7.75,13.801 L7.75,10.301 Z"/>
  <path fill="#292D32" d="M14.75,10.301 C14.75,9.748 14.302,9.301 13.75,9.301 L10.25,9.301 C9.698,9.301 9.25,9.748 9.25,10.301 L9.25,13.801 C9.25,14.353 9.698,14.801 10.25,14.801 L13.75,14.801 C14.3,14.801 14.75,14.351 14.75,13.801 L14.75,10.301 Z"/>
  <path fill="#292D32" d="M14.75,3 C14.75,2.448 14.302,2 13.75,2 L10.25,2 C9.698,2 9.25,2.448 9.25,3 L9.25,6.8 C9.25,7.352 9.698,7.8 10.25,7.8 L13.75,7.8 C14.302,7.8 14.75,7.352 14.75,6.8 L14.75,3 Z"/>
</svg>

