<svg xmlns="http://www.w3.org/2000/svg" width="24" height="24" viewBox="0 0 24 24">
  <defs/>
  <path fill="#292D32" d="M21.25,11 L21.25,9 Q21.25,2.75 15,2.75 L9,2.75 Q2.75,2.75 2.75,9 L2.75,15 Q2.75,18.439 4.155,19.845 Q5.561,21.25 9,21.25 L10,21.25 Q10.311,21.25 10.53,21.47 Q10.75,21.689 10.75,22 Q10.75,22.311 10.53,22.53 Q10.311,22.75 10,22.75 L9,22.75 Q1.25,22.75 1.25,15 L1.25,9 Q1.25,1.25 9,1.25 L15,1.25 Q22.75,1.25 22.75,9 L22.75,11 Q22.75,11.311 22.53,11.53 Q22.311,11.75 22,11.75 Q21.689,11.75 21.47,11.53 Q21.25,11.311 21.25,11 Z"/>
  <g opacity="0.4">
    <path fill="#292D32" d="M2.029,7.75 L21.999,7.75 Q22.31,7.75 22.53,7.97 Q22.749,8.189 22.749,8.5 Q22.749,8.811 22.53,9.03 Q22.31,9.25 21.999,9.25 L2.029,9.25 Q1.719,9.25 1.499,9.03 Q1.279,8.811 1.279,8.5 Q1.279,8.189 1.499,7.97 Q1.719,7.75 2.029,7.75 Z"/>
    <path fill="#292D32" d="M2.029,14.75 L11.999,14.75 Q12.31,14.75 12.53,14.97 Q12.749,15.189 12.749,15.5 Q12.749,15.811 12.53,16.03 Q12.31,16.25 11.999,16.25 L2.029,16.25 Q1.719,16.25 1.499,16.03 Q1.279,15.811 1.279,15.5 Q1.279,15.189 1.499,14.97 Q1.719,14.75 2.029,14.75 Z"/>
    <path fill="#292D32" d="M7.76,21.99 L7.76,2.01 Q7.76,1.699 7.979,1.479 Q8.199,1.26 8.51,1.26 Q8.82,1.26 9.04,1.479 Q9.26,1.699 9.26,2.01 L9.26,21.99 Q9.26,22.3 9.04,22.52 Q8.82,22.74 8.51,22.74 Q8.199,22.74 7.979,22.52 Q7.76,22.3 7.76,21.99 Z"/>
    <path fill="#292D32" d="M14.76,11.99 L14.76,2.01 Q14.76,1.699 14.979,1.479 Q15.199,1.26 15.51,1.26 Q15.82,1.26 16.04,1.479 Q16.26,1.699 16.26,2.01 L16.26,11.99 Q16.26,12.3 16.04,12.52 Q15.82,12.74 15.51,12.74 Q15.199,12.74 14.979,12.52 Q14.76,12.3 14.76,11.99 Z"/>
  </g>
  <path fill="#292D32" d="M14.85,17.2 L14.85,16.4 Q14.85,14.994 15.466,14.23 Q16.257,13.25 18,13.25 Q19.742,13.25 20.533,14.23 Q21.15,14.994 21.15,16.4 L21.15,17.2 Q21.15,17.511 20.93,17.73 Q20.71,17.95 20.4,17.95 Q20.089,17.95 19.869,17.73 Q19.65,17.511 19.65,17.2 L19.65,16.4 Q19.65,14.75 18,14.75 Q16.35,14.75 16.35,16.4 L16.35,17.2 Q16.35,17.511 16.13,17.73 Q15.91,17.95 15.6,17.95 Q15.289,17.95 15.069,17.73 Q14.85,17.511 14.85,17.2 Z"/>
  <path fill="#292D32" d="M20,22.75 L16,22.75 Q14.489,22.75 13.87,22.131 Q13.25,21.511 13.25,20 L13.25,19.2 Q13.25,16.45 16,16.45 L20,16.45 Q22.75,16.45 22.75,19.2 L22.75,20 Q22.75,21.511 22.13,22.131 Q21.511,22.75 20,22.75 Z M20,21.25 Q20.889,21.25 21.07,21.07 Q21.25,20.89 21.25,20 L21.25,19.2 Q21.25,17.95 20,17.95 L16,17.95 Q15.111,17.95 14.93,18.131 Q14.75,18.311 14.75,19.2 L14.75,20 Q14.75,21.25 16,21.25 Z"/>
</svg>

