<svg xmlns="http://www.w3.org/2000/svg" width="24" height="24" viewBox="0 0 24 24">
  <defs/>
  <path fill="#292D32" d="M9,22.75 Q1.25,22.75 1.25,15 L1.25,9 Q1.25,1.25 9,1.25 L15,1.25 Q22.75,1.25 22.75,9 L22.75,15 Q22.75,22.75 15,22.75 Z M9,21.25 L15,21.25 Q18.439,21.25 19.845,19.845 Q21.25,18.439 21.25,15 L21.25,9 Q21.25,2.75 15,2.75 L9,2.75 Q2.75,2.75 2.75,9 L2.75,15 Q2.75,18.439 4.155,19.845 Q5.561,21.25 9,21.25 Z"/>
  <path fill="#292D32" d="M2.03,7.75 L22,7.75 Q22.311,7.75 22.53,7.97 Q22.75,8.189 22.75,8.5 Q22.75,8.811 22.53,9.03 Q22.311,9.25 22,9.25 L2.03,9.25 Q1.719,9.25 1.5,9.03 Q1.28,8.811 1.28,8.5 Q1.28,8.189 1.5,7.97 Q1.719,7.75 2.03,7.75 Z"/>
  <path fill="#292D32" d="M2.03,14.75 L22,14.75 Q22.311,14.75 22.53,14.97 Q22.75,15.189 22.75,15.5 Q22.75,15.811 22.53,16.03 Q22.311,16.25 22,16.25 L2.03,16.25 Q1.719,16.25 1.5,16.03 Q1.28,15.811 1.28,15.5 Q1.28,15.189 1.5,14.97 Q1.719,14.75 2.03,14.75 Z"/>
  <path fill="#292D32" d="M7.76,21.99 L7.76,2.01 Q7.76,1.699 7.98,1.48 Q8.199,1.26 8.51,1.26 Q8.821,1.26 9.04,1.48 Q9.26,1.699 9.26,2.01 L9.26,21.99 Q9.26,22.301 9.04,22.52 Q8.821,22.74 8.51,22.74 Q8.199,22.74 7.98,22.52 Q7.76,22.301 7.76,21.99 Z"/>
  <path fill="#292D32" d="M14.76,21.99 L14.76,2.01 Q14.76,1.699 14.98,1.48 Q15.199,1.26 15.51,1.26 Q15.821,1.26 16.04,1.48 Q16.26,1.699 16.26,2.01 L16.26,21.99 Q16.26,22.301 16.04,22.52 Q15.821,22.74 15.51,22.74 Q15.199,22.74 14.98,22.52 Q14.76,22.301 14.76,21.99 Z"/>
</svg>

