<svg xmlns="http://www.w3.org/2000/svg" width="24" height="24" viewBox="0 0 24 24">
  <defs/>
  <path fill="#292D32" opacity="0.4" d="M22,7.81 L22,8.5 L9,8.5 L9,2 L16.19,2 C19.83,2 22,4.17 22,7.81 Z"/>
  <path fill="#292D32" opacity="0.4" d="M22,15.5 L22,16.19 C22,19.83 19.83,22 16.19,22 L9,22 L9,15.5 L22,15.5 Z"/>
  <path fill="#292D32" d="M9,2 L9,22 L7.81,22 C4.17,22 2,19.83 2,16.19 L2,7.81 C2,4.17 4.17,2 7.81,2 L9,2 Z"/>
  <path fill="#292D32" opacity="0.6" d="M22,8.5 L9,8.5 L9,15.5 L22,15.5 L22,8.5 Z"/>
</svg>

