<svg xmlns="http://www.w3.org/2000/svg" width="24" height="24" viewBox="0 0 24 24">
  <defs/>
  <path fill="#292D32" d="M21.25,11 L21.25,9 Q21.25,2.75 15,2.75 L9,2.75 Q2.75,2.75 2.75,9 L2.75,15 Q2.75,18.439 4.155,19.845 Q5.561,21.25 9,21.25 L10,21.25 Q10.311,21.25 10.53,21.47 Q10.75,21.689 10.75,22 Q10.75,22.311 10.53,22.53 Q10.311,22.75 10,22.75 L9,22.75 Q1.25,22.75 1.25,15 L1.25,9 Q1.25,1.25 9,1.25 L15,1.25 Q22.75,1.25 22.75,9 L22.75,11 Q22.75,11.311 22.53,11.53 Q22.311,11.75 22,11.75 Q21.689,11.75 21.47,11.53 Q21.25,11.311 21.25,11 Z"/>
  <path fill="#292D32" d="M2.03,7.75 L22,7.75 Q22.311,7.75 22.53,7.97 Q22.75,8.189 22.75,8.5 Q22.75,8.811 22.53,9.03 Q22.311,9.25 22,9.25 L2.03,9.25 Q1.719,9.25 1.5,9.03 Q1.28,8.811 1.28,8.5 Q1.28,8.189 1.5,7.97 Q1.719,7.75 2.03,7.75 Z"/>
  <path fill="#292D32" d="M2.03,14.75 L12,14.75 Q12.311,14.75 12.53,14.97 Q12.75,15.189 12.75,15.5 Q12.75,15.811 12.53,16.03 Q12.311,16.25 12,16.25 L2.03,16.25 Q1.719,16.25 1.5,16.03 Q1.28,15.811 1.28,15.5 Q1.28,15.189 1.5,14.97 Q1.719,14.75 2.03,14.75 Z"/>
  <path fill="#292D32" d="M7.76,21.99 L7.76,2.01 Q7.76,1.699 7.98,1.48 Q8.199,1.26 8.51,1.26 Q8.821,1.26 9.04,1.48 Q9.26,1.699 9.26,2.01 L9.26,21.99 Q9.26,22.301 9.04,22.52 Q8.821,22.74 8.51,22.74 Q8.199,22.74 7.98,22.52 Q7.76,22.301 7.76,21.99 Z"/>
  <path fill="#292D32" d="M14.76,11.99 L14.76,2.01 Q14.76,1.699 14.98,1.48 Q15.199,1.26 15.51,1.26 Q15.821,1.26 16.04,1.48 Q16.26,1.699 16.26,2.01 L16.26,11.99 Q16.26,12.301 16.04,12.52 Q15.821,12.74 15.51,12.74 Q15.199,12.74 14.98,12.52 Q14.76,12.301 14.76,11.99 Z"/>
  <path fill="#292D32" d="M19.33,20.23 L17.43,22.13 Q15.959,23.602 14.465,22.135 L12.878,20.539 Q11.408,19.069 12.875,17.575 L14.781,15.678 Q15.001,15.46 15.311,15.46 Q15.621,15.46 15.84,15.68 L19.33,19.17 Q19.55,19.389 19.55,19.7 Q19.55,20.011 19.33,20.23 Z M17.739,19.7 L15.309,17.269 L13.945,18.625 Q13.52,19.059 13.942,19.481 L15.515,21.065 Q15.949,21.49 16.37,21.07 L17.739,19.7 Z"/>
  <path fill="#292D32" d="M22.14,17.43 L19.33,20.24 Q19.111,20.46 18.8,20.46 Q18.489,20.46 18.27,20.24 L14.77,16.74 Q14.55,16.521 14.55,16.211 Q14.55,15.9 14.769,15.681 L17.579,12.861 Q18.189,12.25 19.065,12.25 Q19.941,12.25 20.55,12.86 L22.132,14.451 Q23.626,15.945 22.14,17.43 Z M21.08,16.37 Q21.504,15.945 21.068,15.509 L19.49,13.92 Q19.065,13.496 18.641,13.919 L16.36,16.209 L18.8,18.649 Z"/>
</svg>

