<svg xmlns="http://www.w3.org/2000/svg" width="24" height="24" viewBox="0 0 24 24">
  <defs/>
  <path fill="#292D32" d="M3.223,5.671 Q2.75,6.946 2.75,9 L2.75,15 Q2.75,18.439 4.155,19.845 Q5.561,21.25 9,21.25 L15,21.25 Q18.439,21.25 19.845,19.845 Q21.25,18.439 21.25,15 L21.25,9 Q21.25,2.75 15,2.75 L9,2.75 Q7.33,2.75 6.154,3.065 Q5.854,3.145 5.585,2.989 Q5.316,2.834 5.235,2.534 Q5.155,2.234 5.311,1.965 Q5.466,1.696 5.766,1.615 Q7.133,1.25 9,1.25 L15,1.25 Q22.75,1.25 22.75,9 L22.75,15 Q22.75,22.75 15,22.75 L9,22.75 Q1.25,22.75 1.25,15 L1.25,9 Q1.25,6.676 1.817,5.149 Q1.925,4.858 2.207,4.728 Q2.49,4.599 2.781,4.707 Q3.072,4.815 3.202,5.097 Q3.331,5.38 3.223,5.671 Z"/>
  <path fill="#292D32" d="M2,11.25 L22,11.25 Q22.311,11.25 22.53,11.47 Q22.75,11.689 22.75,12 Q22.75,12.311 22.53,12.53 Q22.311,12.75 22,12.75 L2,12.75 Q1.689,12.75 1.47,12.53 Q1.25,12.311 1.25,12 Q1.25,11.689 1.47,11.47 Q1.689,11.25 2,11.25 Z"/>
  <path fill="#292D32" d="M9,12 L9,18 Q9,18.311 8.78,18.53 Q8.561,18.75 8.25,18.75 Q7.939,18.75 7.72,18.53 Q7.5,18.311 7.5,18 L7.5,12 Q7.5,11.689 7.72,11.47 Q7.939,11.25 8.25,11.25 Q8.561,11.25 8.78,11.47 Q9,11.689 9,12 Z"/>
  <path fill="#292D32" d="M15,22 L15,12 Q15,11.689 15.22,11.47 Q15.439,11.25 15.75,11.25 Q16.061,11.25 16.28,11.47 Q16.5,11.689 16.5,12 L16.5,22 Q16.5,22.311 16.28,22.53 Q16.061,22.75 15.75,22.75 Q15.439,22.75 15.22,22.53 Q15,22.311 15,22 Z"/>
  <path fill="#292D32" d="M7.5,12 L7.5,2 Q7.5,1.689 7.72,1.47 Q7.939,1.25 8.25,1.25 Q8.561,1.25 8.78,1.47 Q9,1.689 9,2 L9,12 Q9,12.311 8.78,12.53 Q8.561,12.75 8.25,12.75 Q7.939,12.75 7.72,12.53 Q7.5,12.311 7.5,12 Z"/>
  <path fill="#292D32" d="M15,12 L15,2.54 Q15,2.229 15.22,2.01 Q15.439,1.79 15.75,1.79 Q16.061,1.79 16.28,2.01 Q16.5,2.229 16.5,2.54 L16.5,12 Q16.5,12.311 16.28,12.53 Q16.061,12.75 15.75,12.75 Q15.439,12.75 15.22,12.53 Q15,12.311 15,12 Z"/>
</svg>

