<svg xmlns="http://www.w3.org/2000/svg" width="24" height="24" viewBox="0 0 24 24">
  <defs/>
  <path fill="#292D32" d="M9,22.75 Q1.25,22.75 1.25,15 L1.25,9 Q1.25,1.25 9,1.25 L15,1.25 Q22.75,1.25 22.75,9 L22.75,15 Q22.75,22.75 15,22.75 Z M9,21.25 L15,21.25 Q18.439,21.25 19.845,19.845 Q21.25,18.439 21.25,15 L21.25,9 Q21.25,2.75 15,2.75 L9,2.75 Q2.75,2.75 2.75,9 L2.75,15 Q2.75,18.439 4.155,19.845 Q5.561,21.25 9,21.25 Z"/>
  <path fill="#292D32" d="M10.75,2 L10.75,22 Q10.75,22.311 10.53,22.53 Q10.311,22.75 10,22.75 Q9.689,22.75 9.47,22.53 Q9.25,22.311 9.25,22 L9.25,2 Q9.25,1.689 9.47,1.47 Q9.689,1.25 10,1.25 Q10.311,1.25 10.53,1.47 Q10.75,1.689 10.75,2 Z"/>
  <path fill="#292D32" d="M10,7.75 L22,7.75 Q22.311,7.75 22.53,7.97 Q22.75,8.189 22.75,8.5 Q22.75,8.811 22.53,9.03 Q22.311,9.25 22,9.25 L10,9.25 Q9.689,9.25 9.47,9.03 Q9.25,8.811 9.25,8.5 Q9.25,8.189 9.47,7.97 Q9.689,7.75 10,7.75 Z"/>
  <path fill="#292D32" d="M10,14.75 L22,14.75 Q22.311,14.75 22.53,14.97 Q22.75,15.189 22.75,15.5 Q22.75,15.811 22.53,16.03 Q22.311,16.25 22,16.25 L10,16.25 Q9.689,16.25 9.47,16.03 Q9.25,15.811 9.25,15.5 Q9.25,15.189 9.47,14.97 Q9.689,14.75 10,14.75 Z"/>
</svg>

