<svg xmlns="http://www.w3.org/2000/svg" width="24" height="24" viewBox="0 0 24 24">
  <defs/>
  <path fill="#292D32" d="M9,22.75 Q1.25,22.75 1.25,15 L1.25,9 Q1.25,1.25 9,1.25 L15,1.25 Q22.75,1.25 22.75,9 L22.75,15 Q22.75,22.75 15,22.75 Z M9,21.25 L15,21.25 Q18.439,21.25 19.845,19.845 Q21.25,18.439 21.25,15 L21.25,9 Q21.25,2.75 15,2.75 L9,2.75 Q2.75,2.75 2.75,9 L2.75,15 Q2.75,18.439 4.155,19.845 Q5.561,21.25 9,21.25 Z"/>
  <path fill="#292D32" d="M12.75,2 L12.75,22 Q12.75,22.311 12.53,22.53 Q12.311,22.75 12,22.75 Q11.689,22.75 11.47,22.53 Q11.25,22.311 11.25,22 L11.25,2 Q11.25,1.689 11.47,1.47 Q11.689,1.25 12,1.25 Q12.311,1.25 12.53,1.47 Q12.75,1.689 12.75,2 Z"/>
  <path fill="#292D32" d="M2,8.75 L12,8.75 Q12.311,8.75 12.53,8.97 Q12.75,9.189 12.75,9.5 Q12.75,9.811 12.53,10.03 Q12.311,10.25 12,10.25 L2,10.25 Q1.689,10.25 1.47,10.03 Q1.25,9.811 1.25,9.5 Q1.25,9.189 1.47,8.97 Q1.689,8.75 2,8.75 Z"/>
  <path fill="#292D32" d="M12,13.75 L22,13.75 Q22.311,13.75 22.53,13.97 Q22.75,14.189 22.75,14.5 Q22.75,14.811 22.53,15.03 Q22.311,15.25 22,15.25 L12,15.25 Q11.689,15.25 11.47,15.03 Q11.25,14.811 11.25,14.5 Q11.25,14.189 11.47,13.97 Q11.689,13.75 12,13.75 Z"/>
</svg>

