<svg xmlns="http://www.w3.org/2000/svg" width="24" height="24" viewBox="0 0 24 24">
  <defs/>
  <path fill="#292D32" opacity="0.4" d="M22,7.81 L22,12 L15.75,12 L15.75,2 L16.19,2 C19.83,2 22,4.17 22,7.81 Z"/>
  <path fill="#292D32" d="M22,12 L22,16.19 C22,19.83 19.83,22 16.19,22 L15.75,22 L15.75,12 L22,12 Z"/>
  <path fill="#292D32" d="M8.25,12 L8.25,22 L7.81,22 C4.17,22 2,19.83 2,16.19 L2,12 L8.25,12 Z"/>
  <path fill="#292D32" opacity="0.4" d="M7.81,2 C4.17,2 2,4.17 2,7.81 L2,12 L8.25,12 L8.25,2 L7.81,2 Z"/>
  <path fill="#292D32" d="M15.75,2 L8.25,2 L8.25,12 L15.75,12 L15.75,2 Z"/>
  <path fill="#292D32" opacity="0.4" d="M15.75,12 L8.25,12 L8.25,22 L15.75,22 L15.75,12 Z"/>
</svg>

