<svg xmlns="http://www.w3.org/2000/svg" width="24" height="24" viewBox="0 0 24 24">
  <defs/>
  <path fill="#292D32" d="M22,7.811 L22,11.251 L16.75,11.251 L16.75,2.031 C20.05,2.231 22,4.361 22,7.811 Z"/>
  <path fill="#292D32" d="M22,12.75 L22,16.19 C22,19.64 20.05,21.77 16.75,21.97 L16.75,12.75 L22,12.75 Z"/>
  <path fill="#292D32" d="M7.25,12.75 L7.25,21.97 C3.95,21.77 2,19.64 2,16.19 L2,12.75 L7.25,12.75 Z"/>
  <path fill="#292D32" d="M7.25,2.031 L7.25,11.251 L2,11.251 L2,7.811 C2,4.361 3.95,2.231 7.25,2.031 Z"/>
  <path fill="#292D32" d="M15.25,2 L8.75,2 L8.75,11.25 L15.25,11.25 L15.25,2 Z"/>
  <path fill="#292D32" d="M15.25,12.75 L8.75,12.75 L8.75,22 L15.25,22 L15.25,12.75 Z"/>
</svg>

