<svg xmlns="http://www.w3.org/2000/svg" width="24" height="24" viewBox="0 0 24 24">
  <defs/>
  <path fill="#292D32" d="M15,22.75 L9,22.75 C3.57,22.75 1.25,20.43 1.25,15 L1.25,9 C1.25,3.57 3.57,1.25 9,1.25 L15,1.25 C20.43,1.25 22.75,3.57 22.75,9 L22.75,15 C22.75,20.43 20.43,22.75 15,22.75 Z M9,2.75 C4.39,2.75 2.75,4.39 2.75,9 L2.75,15 C2.75,19.61 4.39,21.25 9,21.25 L15,21.25 C19.61,21.25 21.25,19.61 21.25,15 L21.25,9 C21.25,4.39 19.61,2.75 15,2.75 L9,2.75 Z"/>
  <path fill="#292D32" d="M10,22.75 C9.59,22.75 9.25,22.41 9.25,22 L9.25,2 C9.25,1.59 9.59,1.25 10,1.25 C10.41,1.25 10.75,1.59 10.75,2 L10.75,22 C10.75,22.41 10.41,22.75 10,22.75 Z"/>
  <path fill="#292D32" d="M22,9.25 L10,9.25 C9.59,9.25 9.25,8.91 9.25,8.5 C9.25,8.09 9.59,7.75 10,7.75 L22,7.75 C22.41,7.75 22.75,8.09 22.75,8.5 C22.75,8.91 22.41,9.25 22,9.25 Z"/>
  <path fill="#292D32" d="M22,16.25 L10,16.25 C9.59,16.25 9.25,15.91 9.25,15.5 C9.25,15.09 9.59,14.75 10,14.75 L22,14.75 C22.41,14.75 22.75,15.09 22.75,15.5 C22.75,15.91 22.41,16.25 22,16.25 Z"/>
</svg>

