<svg xmlns="http://www.w3.org/2000/svg" width="24" height="24" viewBox="0 0 24 24">
  <defs/>
  <path fill="#292D32" d="M10,22.75 L9,22.75 C3.57,22.75 1.25,20.43 1.25,15 L1.25,9 C1.25,3.57 3.57,1.25 9,1.25 L15,1.25 C20.43,1.25 22.75,3.57 22.75,9 L22.75,11 C22.75,11.41 22.41,11.75 22,11.75 C21.59,11.75 21.25,11.41 21.25,11 L21.25,9 C21.25,4.39 19.61,2.75 15,2.75 L9,2.75 C4.39,2.75 2.75,4.39 2.75,9 L2.75,15 C2.75,19.61 4.39,21.25 9,21.25 L10,21.25 C10.41,21.25 10.75,21.59 10.75,22 C10.75,22.41 10.41,22.75 10,22.75 Z"/>
  <path fill="#292D32" d="M22.001,9.25 L2.031,9.25 C1.621,9.25 1.281,8.91 1.281,8.5 C1.281,8.09 1.621,7.75 2.031,7.75 L22.001,7.75 C22.411,7.75 22.751,8.09 22.751,8.5 C22.751,8.91 22.411,9.25 22.001,9.25 Z"/>
  <path fill="#292D32" d="M12.001,16.25 L2.031,16.25 C1.621,16.25 1.281,15.91 1.281,15.5 C1.281,15.09 1.621,14.75 2.031,14.75 L12.001,14.75 C12.411,14.75 12.751,15.09 12.751,15.5 C12.751,15.91 12.411,16.25 12.001,16.25 Z"/>
  <path fill="#292D32" d="M8.51,22.74 C8.1,22.74 7.76,22.4 7.76,21.99 L7.76,2.02 C7.76,1.61 8.1,1.27 8.51,1.27 C8.92,1.27 9.26,1.61 9.26,2.02 L9.26,21.99 C9.26,22.4 8.93,22.74 8.51,22.74 Z"/>
  <path fill="#292D32" d="M15.51,12.74 C15.1,12.74 14.76,12.4 14.76,11.99 L14.76,2.02 C14.76,1.61 15.1,1.27 15.51,1.27 C15.92,1.27 16.26,1.61 16.26,2.02 L16.26,11.99 C16.26,12.4 15.93,12.74 15.51,12.74 Z"/>
  <path fill="#292D32" d="M20.4,17.95 C19.99,17.95 19.65,17.61 19.65,17.2 L19.65,16.4 C19.65,15.28 19.4,14.75 18,14.75 C16.6,14.75 16.35,15.28 16.35,16.4 L16.35,17.2 C16.35,17.61 16.01,17.95 15.6,17.95 C15.19,17.95 14.85,17.61 14.85,17.2 L14.85,16.4 C14.85,14.31 15.91,13.25 18,13.25 C20.09,13.25 21.15,14.31 21.15,16.4 L21.15,17.2 C21.15,17.61 20.81,17.95 20.4,17.95 Z"/>
  <path fill="#292D32" d="M20,22.75 L16,22.75 C14,22.75 13.25,22 13.25,20 L13.25,19.2 C13.25,17.2 14,16.45 16,16.45 L20,16.45 C22,16.45 22.75,17.2 22.75,19.2 L22.75,20 C22.75,22 22,22.75 20,22.75 Z M16,17.95 C14.81,17.95 14.75,18.01 14.75,19.2 L14.75,20 C14.75,21.18 14.82,21.25 16,21.25 L20,21.25 C21.18,21.25 21.25,21.18 21.25,20 L21.25,19.2 C21.25,18.01 21.19,17.95 20,17.95 L16,17.95 Z"/>
</svg>

