<svg xmlns="http://www.w3.org/2000/svg" width="24" height="24" viewBox="0 0 24 24">
  <defs/>
  <path fill="#292D32" d="M21.53,17.31 L21.53,17.15 C21.53,15.22 20.55,14.25 18.63,14.25 C16.71,14.25 15.73,15.23 15.73,17.15 L15.73,17.31 C14.68,17.57 14.26,18.29 14.26,19.73 L14.26,20.47 C14.26,22.32 14.95,23 16.79,23 L20.47,23 C22.32,23 23,22.31 23,20.47 L23,19.73 C23,18.3 22.58,17.57 21.53,17.31 Z M18.62,15.63 C19.91,15.63 20.14,16.12 20.14,17.15 L20.14,17.2 L17.1,17.2 L17.1,17.15 C17.1,16.12 17.33,15.63 18.62,15.63 Z"/>
  <path fill="#292D32" d="M8.39,2.17 L8.39,8.62 L1.93,8.62 L1.93,7.94 C1.93,4.33 4.08,2.18 7.69,2.18 L8.39,2.18 L8.39,2.17 Z"/>
  <path fill="#292D32" d="M21.77,7.93 C21.77,8.31 21.46,8.61 21.09,8.61 L15.34,8.61 L15.34,2.16 L16.01,2.16 C19.19,2.17 21.77,4.75 21.77,7.93 Z"/>
  <path fill="#292D32" d="M8.389,15.55 L8.389,21.31 C8.389,21.69 8.079,21.99 7.709,21.99 L7.699,21.99 C4.519,21.99 1.939,19.41 1.939,16.23 L1.939,15.55 L8.389,15.55 Z"/>
  <path fill="#292D32" opacity="0.4" d="M8.399,8.61 L1.939,8.61 L1.939,15.55 L8.399,15.55 L8.399,8.61 Z"/>
  <path fill="#292D32" d="M15.331,8.61 L15.331,14.55 C15.331,15.1 14.881,15.55 14.331,15.55 L8.391,15.55 L8.391,8.61 L15.331,8.61 Z"/>
  <path fill="#292D32" opacity="0.4" d="M15.331,2.17 L8.391,2.17 L8.391,8.62 L15.331,8.62 L15.331,2.17 Z"/>
</svg>

