<svg xmlns="http://www.w3.org/2000/svg" width="24" height="24" viewBox="0 0 24 24">
  <defs/>
  <path fill="#292D32" d="M15,22.75 L9,22.75 C3.57,22.75 1.25,20.43 1.25,15 L1.25,9 C1.25,3.57 3.57,1.25 9,1.25 L15,1.25 C20.43,1.25 22.75,3.57 22.75,9 L22.75,15 C22.75,20.43 20.43,22.75 15,22.75 Z M9,2.75 C4.39,2.75 2.75,4.39 2.75,9 L2.75,15 C2.75,19.61 4.39,21.25 9,21.25 L15,21.25 C19.61,21.25 21.25,19.61 21.25,15 L21.25,9 C21.25,4.39 19.61,2.75 15,2.75 L9,2.75 Z"/>
  <path fill="#292D32" d="M21.999,9.25 L2.029,9.25 C1.619,9.25 1.279,8.91 1.279,8.5 C1.279,8.09 1.619,7.75 2.029,7.75 L21.999,7.75 C22.409,7.75 22.749,8.09 22.749,8.5 C22.749,8.91 22.409,9.25 21.999,9.25 Z"/>
  <path fill="#292D32" d="M21.999,16.25 L2.029,16.25 C1.619,16.25 1.279,15.91 1.279,15.5 C1.279,15.09 1.619,14.75 2.029,14.75 L21.999,14.75 C22.409,14.75 22.749,15.09 22.749,15.5 C22.749,15.91 22.409,16.25 21.999,16.25 Z"/>
  <path fill="#292D32" d="M8.51,22.74 C8.1,22.74 7.76,22.4 7.76,21.99 L7.76,2.01 C7.76,1.6 8.1,1.26 8.51,1.26 C8.92,1.26 9.26,1.6 9.26,2.01 L9.26,21.98 C9.26,22.4 8.93,22.74 8.51,22.74 Z"/>
  <path fill="#292D32" d="M15.51,22.74 C15.1,22.74 14.76,22.4 14.76,21.99 L14.76,2.01 C14.76,1.6 15.1,1.26 15.51,1.26 C15.92,1.26 16.26,1.6 16.26,2.01 L16.26,21.98 C16.26,22.4 15.93,22.74 15.51,22.74 Z"/>
</svg>

