<svg xmlns="http://www.w3.org/2000/svg" width="24" height="24" viewBox="0 0 24 24">
  <defs/>
  <path fill="#292D32" d="M21.25,11 L21.25,9 Q21.25,2.75 15,2.75 L9,2.75 Q2.75,2.75 2.75,9 L2.75,15 Q2.75,18.439 4.155,19.845 Q5.561,21.25 9,21.25 L10,21.25 Q10.311,21.25 10.53,21.47 Q10.75,21.689 10.75,22 Q10.75,22.311 10.53,22.53 Q10.311,22.75 10,22.75 L9,22.75 Q1.25,22.75 1.25,15 L1.25,9 Q1.25,1.25 9,1.25 L15,1.25 Q22.75,1.25 22.75,9 L22.75,11 Q22.75,11.311 22.53,11.53 Q22.311,11.75 22,11.75 Q21.689,11.75 21.47,11.53 Q21.25,11.311 21.25,11 Z"/>
  <path fill="#292D32" d="M2.03,7.75 L22,7.75 Q22.311,7.75 22.53,7.97 Q22.75,8.189 22.75,8.5 Q22.75,8.811 22.53,9.03 Q22.311,9.25 22,9.25 L2.03,9.25 Q1.719,9.25 1.5,9.03 Q1.28,8.811 1.28,8.5 Q1.28,8.189 1.5,7.97 Q1.719,7.75 2.03,7.75 Z"/>
  <path fill="#292D32" d="M2.03,14.75 L12,14.75 Q12.311,14.75 12.53,14.97 Q12.75,15.189 12.75,15.5 Q12.75,15.811 12.53,16.03 Q12.311,16.25 12,16.25 L2.03,16.25 Q1.719,16.25 1.5,16.03 Q1.28,15.811 1.28,15.5 Q1.28,15.189 1.5,14.97 Q1.719,14.75 2.03,14.75 Z"/>
  <path fill="#292D32" d="M7.76,21.99 L7.76,2.01 Q7.76,1.699 7.98,1.48 Q8.199,1.26 8.51,1.26 Q8.821,1.26 9.04,1.48 Q9.26,1.699 9.26,2.01 L9.26,21.99 Q9.26,22.301 9.04,22.52 Q8.821,22.74 8.51,22.74 Q8.199,22.74 7.98,22.52 Q7.76,22.301 7.76,21.99 Z"/>
  <path fill="#292D32" d="M14.76,11.99 L14.76,2.01 Q14.76,1.699 14.98,1.48 Q15.199,1.26 15.51,1.26 Q15.821,1.26 16.04,1.48 Q16.26,1.699 16.26,2.01 L16.26,11.99 Q16.26,12.301 16.04,12.52 Q15.821,12.74 15.51,12.74 Q15.199,12.74 14.98,12.52 Q14.76,12.301 14.76,11.99 Z"/>
  <path fill="#292D32" d="M18.2,14.14 Q20.03,12.309 21.85,14.13 Q22.83,15.11 22.726,16.161 Q22.644,16.997 21.85,17.79 L17.7,21.94 Q17.225,22.415 16.587,22.502 L15.007,22.731 Q14.202,22.858 13.669,22.321 Q13.145,21.793 13.258,20.993 L13.488,19.403 Q13.49,19.389 13.492,19.376 Q13.61,18.73 14.05,18.29 Z M19.26,15.2 L15.11,19.35 Q15.005,19.456 14.97,19.633 L14.742,21.207 L14.734,21.264 L14.773,21.249 L16.373,21.018 Q16.522,20.997 16.64,20.88 L20.79,16.73 Q21.204,16.316 21.234,16.014 Q21.268,15.669 20.79,15.19 Q20.03,14.431 19.26,15.2 Z"/>
  <path fill="#292D32" d="M18.863,15.059 Q19.31,16.672 20.946,17.139 Q21.245,17.224 21.396,17.496 Q21.546,17.767 21.461,18.066 Q21.376,18.365 21.104,18.516 Q20.833,18.666 20.534,18.581 Q18.09,17.883 17.417,15.461 Q17.334,15.161 17.487,14.891 Q17.64,14.621 17.939,14.537 Q18.239,14.454 18.509,14.607 Q18.779,14.76 18.863,15.059 Z"/>
</svg>

