<svg xmlns="http://www.w3.org/2000/svg" width="24" height="24" viewBox="0 0 24 24">
  <defs/>
  <path fill="#292D32" d="M12.75,2 L12.75,22 Q12.75,22.311 12.53,22.53 Q12.311,22.75 12,22.75 Q11.689,22.75 11.47,22.53 Q11.25,22.311 11.25,22 L11.25,2 Q11.25,1.689 11.47,1.47 Q11.689,1.25 12,1.25 Q12.311,1.25 12.53,1.47 Q12.75,1.689 12.75,2 Z"/>
  <path fill="#292D32" d="M3.223,5.671 Q2.75,6.946 2.75,9 L2.75,15 Q2.75,18.439 4.155,19.845 Q5.561,21.25 9,21.25 L15,21.25 Q18.439,21.25 19.845,19.845 Q21.25,18.439 21.25,15 L21.25,9 Q21.25,2.75 15,2.75 L9,2.75 Q7.33,2.75 6.154,3.065 Q5.854,3.145 5.585,2.989 Q5.316,2.834 5.235,2.534 Q5.155,2.234 5.311,1.965 Q5.466,1.696 5.766,1.615 Q7.133,1.25 9,1.25 L15,1.25 Q22.75,1.25 22.75,9 L22.75,15 Q22.75,22.75 15,22.75 L9,22.75 Q1.25,22.75 1.25,15 L1.25,9 Q1.25,6.676 1.817,5.149 Q1.925,4.858 2.207,4.728 Q2.49,4.599 2.781,4.707 Q3.072,4.815 3.202,5.097 Q3.331,5.38 3.223,5.671 Z"/>
</svg>

