<svg xmlns="http://www.w3.org/2000/svg" width="24" height="24" viewBox="0 0 24 24">
  <defs/>
  <path fill="#292D32" d="M8.39,2.17 L8.39,8.62 L1.93,8.62 L1.93,7.94 C1.93,4.33 4.08,2.18 7.69,2.18 L8.39,2.18 L8.39,2.17 Z"/>
  <path fill="#292D32" d="M21.77,7.93 C21.77,8.31 21.46,8.61 21.09,8.61 L15.34,8.61 L15.34,2.16 L16.01,2.16 C19.19,2.17 21.77,4.75 21.77,7.93 Z"/>
  <path fill="#292D32" d="M8.389,15.55 L8.389,21.31 C8.389,21.69 8.079,21.99 7.709,21.99 L7.699,21.99 C4.519,21.99 1.939,19.41 1.939,16.23 L1.939,15.55 L8.389,15.55 Z"/>
  <path fill="#292D32" opacity="0.4" d="M8.399,8.61 L1.939,8.61 L1.939,15.55 L8.399,15.55 L8.399,8.61 Z"/>
  <path fill="#292D32" d="M15.331,8.61 L15.331,14.87 C15.331,15.25 15.021,15.55 14.651,15.55 L8.391,15.55 L8.391,8.61 L15.331,8.61 Z"/>
  <path fill="#292D32" opacity="0.4" d="M15.331,2.17 L8.391,2.17 L8.391,8.62 L15.331,8.62 L15.331,2.17 Z"/>
  <path fill="#292D32" opacity="0.4" d="M19.8,20.7 L17.9,22.61 C17.38,23.13 16.52,23.13 15.98,22.61 L14.4,21.02 C13.88,20.49 13.88,19.64 14.4,19.1 L16.31,17.21 L19.8,20.7 Z"/>
  <path fill="#292D32" d="M22.61,17.9 L19.8,20.7 L16.311,17.21 L19.11,14.39 C19.64,13.87 20.5,13.87 21.03,14.39 L22.61,15.98 C23.131,16.51 23.131,17.38 22.61,17.9 Z"/>
</svg>

