<svg xmlns="http://www.w3.org/2000/svg" width="24" height="24" viewBox="0 0 24 24">
  <defs/>
  <path fill="#292D32" d="M14.9,1.25 Q16.451,1.25 17.55,2.35 L21.65,6.45 Q22.75,7.549 22.75,9.1 L22.75,14.9 Q22.75,16.451 21.65,17.55 L17.55,21.65 Q16.451,22.75 14.9,22.75 L9.1,22.75 Q7.549,22.75 6.45,21.65 L2.35,17.55 Q1.25,16.451 1.25,14.9 L1.25,9.1 Q1.25,7.549 2.35,6.45 L6.45,2.35 Q7.549,1.25 9.1,1.25 Z M14.9,2.75 L9.1,2.75 Q8.171,2.75 7.51,3.41 L3.41,7.51 Q2.75,8.171 2.75,9.1 L2.75,14.9 Q2.75,15.829 3.41,16.49 L7.51,20.59 Q8.171,21.25 9.1,21.25 L14.9,21.25 Q15.829,21.25 16.49,20.59 L20.59,16.49 Q21.25,15.829 21.25,14.9 L21.25,9.1 Q21.25,8.171 20.59,7.51 L16.49,3.41 Q15.829,2.75 14.9,2.75 Z"/>
  <path fill="#292D32" d="M4.41,18.55 L18.55,4.41 Q18.769,4.19 19.08,4.19 Q19.391,4.19 19.61,4.41 Q19.83,4.629 19.83,4.94 Q19.83,5.251 19.61,5.47 L5.47,19.61 Q5.251,19.83 4.94,19.83 Q4.629,19.83 4.41,19.61 Q4.19,19.391 4.19,19.08 Q4.19,18.769 4.41,18.55 Z"/>
</svg>

