<svg xmlns="http://www.w3.org/2000/svg" width="24" height="24" viewBox="0 0 24 24">
  <defs/>
  <path fill="#292D32" d="M15,3 L15,12 C15,13.1 14.1,14 13,14 L2,14 L2,6 C2,3.79 3.79,2 6,2 L14,2 C14.55,2 15,2.45 15,3 Z"/>
  <path fill="#292D32" opacity="0.4" d="M22,14 L22,17 C22,18.66 20.66,20 19,20 L18,20 C18,18.9 17.1,18 16,18 C14.9,18 14,18.9 14,20 L10,20 C10,18.9 9.1,18 8,18 C6.9,18 6,18.9 6,20 L5,20 C3.34,20 2,18.66 2,17 L2,14 L13,14 C14.1,14 15,13.1 15,12 L15,5 L16.84,5 C17.56,5 18.22,5.39 18.58,6.01 L20.29,9 L19,9 C18.45,9 18,9.45 18,10 L18,13 C18,13.55 18.45,14 19,14 L22,14 Z"/>
  <path fill="#292D32" d="M8,22 C9.105,22 10,21.105 10,20 C10,18.895 9.105,18 8,18 C6.895,18 6,18.895 6,20 C6,21.105 6.895,22 8,22 Z"/>
  <path fill="#292D32" d="M16,22 C17.105,22 18,21.105 18,20 C18,18.895 17.105,18 16,18 C14.895,18 14,18.895 14,20 C14,21.105 14.895,22 16,22 Z"/>
  <path fill="#292D32" d="M22,12.53 L22,14 L19,14 C18.45,14 18,13.55 18,13 L18,10 C18,9.45 18.45,9 19,9 L20.29,9 L21.74,11.54 C21.91,11.84 22,12.18 22,12.53 Z"/>
</svg>

