<svg xmlns="http://www.w3.org/2000/svg" width="24" height="24" viewBox="0 0 24 24">
  <defs/>
  <path fill="#292D32" opacity="0.4" d="M22,14 L22,17 C22,18.66 20.66,20 19,20 L18,20 C18,18.9 17.1,18 16,18 C14.9,18 14,18.9 14,20 L10,20 C10,18.9 9.1,18 8,18 C6.9,18 6,18.9 6,20 L5,20 C3.34,20 2,18.66 2,17 L2,14 L13,14 C14.1,14 15,13.1 15,12 L15,5 L16.84,5 C17.56,5 18.22,5.39 18.58,6.01 L20.29,9 L19,9 C18.45,9 18,9.45 18,10 L18,13 C18,13.55 18.45,14 19,14 L22,14 Z"/>
  <path fill="#292D32" d="M8,22 C9.105,22 10,21.105 10,20 C10,18.895 9.105,18 8,18 C6.895,18 6,18.895 6,20 C6,21.105 6.895,22 8,22 Z"/>
  <path fill="#292D32" d="M16,22 C17.105,22 18,21.105 18,20 C18,18.895 17.105,18 16,18 C14.895,18 14,18.895 14,20 C14,21.105 14.895,22 16,22 Z"/>
  <path fill="#292D32" d="M22,12.53 L22,14 L19,14 C18.45,14 18,13.55 18,13 L18,10 C18,9.45 18.45,9 19,9 L20.29,9 L21.74,11.54 C21.91,11.84 22,12.18 22,12.53 Z"/>
  <path fill="#292D32" d="M14,2 L6,2 C4.05,2 2.43,3.4 2.08,5.25 L7,5.25 C7.41,5.25 7.75,5.59 7.75,6 C7.75,6.41 7.41,6.75 7,6.75 L2,6.75 L2,8.25 L5,8.25 C5.41,8.25 5.75,8.59 5.75,9 C5.75,9.41 5.41,9.75 5,9.75 L2,9.75 L2,11.25 L3,11.25 C3.41,11.25 3.75,11.59 3.75,12 C3.75,12.41 3.41,12.75 3,12.75 L2,12.75 L2,14 L13,14 C14.1,14 15,13.1 15,12 L15,3 C15,2.45 14.55,2 14,2 Z"/>
  <path fill="#292D32" d="M2.08,5.25 L1,5.25 C0.59,5.25 0.25,5.59 0.25,6 C0.25,6.41 0.59,6.75 1,6.75 L2,6.75 L2,6 C2,5.74 2.03,5.49 2.08,5.25 Z"/>
  <path fill="#292D32" d="M1,8.25 C0.59,8.25 0.25,8.59 0.25,9 C0.25,9.41 0.59,9.75 1,9.75 L2,9.75 L2,8.25 L1,8.25 Z"/>
  <path fill="#292D32" d="M1,11.25 C0.59,11.25 0.25,11.59 0.25,12 C0.25,12.41 0.59,12.75 1,12.75 L2,12.75 L2,11.25 L1,11.25 Z"/>
</svg>

