<svg xmlns="http://www.w3.org/2000/svg" width="24" height="24" viewBox="0 0 24 24">
  <defs/>
  <path fill="#292D32" d="M12,13.25 L13,13.25 Q14.25,13.25 14.25,12 L14.25,2.75 L6,2.75 Q4.093,2.75 3.165,4.415 Q3.014,4.686 2.715,4.771 Q2.416,4.856 2.145,4.705 Q1.874,4.554 1.789,4.255 Q1.704,3.956 1.855,3.685 Q3.212,1.25 6,1.25 L15,1.25 Q15.311,1.25 15.53,1.47 Q15.75,1.689 15.75,2 L15.75,12 Q15.75,14.75 13,14.75 L12,14.75 Q11.689,14.75 11.47,14.53 Q11.25,14.311 11.25,14 Q11.25,13.689 11.47,13.47 Q11.689,13.25 12,13.25 Z"/>
  <path fill="#292D32" d="M2.75,17 Q2.75,19.25 5,19.25 L5.31,19.25 Q5.655,17.25 8,17.25 Q9.136,17.25 9.943,18.057 Q10.469,18.584 10.652,19.25 L13.31,19.25 Q13.655,17.25 16,17.25 Q18.345,17.25 18.69,19.25 L19,19.25 Q21.25,19.25 21.25,17 L21.25,14.75 L19,14.75 Q17.25,14.75 17.25,13 L17.25,10 Q17.25,8.251 18.997,8.25 L17.929,6.382 Q17.562,5.75 16.84,5.75 L15.75,5.75 L15.75,12 Q15.75,14.75 13,14.75 L12,14.75 Q11.689,14.75 11.47,14.53 Q11.25,14.311 11.25,14 Q11.25,13.689 11.47,13.47 Q11.689,13.25 12,13.25 L13,13.25 Q13.514,13.25 13.882,12.882 Q14.25,12.514 14.25,12 L14.25,5 Q14.25,4.689 14.47,4.47 Q14.689,4.25 15,4.25 L16.84,4.25 Q18.425,4.25 19.231,5.638 L20.941,8.628 Q21.04,8.801 21.04,9 Q21.04,9.311 20.82,9.53 Q20.601,9.75 20.29,9.75 L19,9.75 Q18.75,9.75 18.75,10 L18.75,13 Q18.75,13.25 19,13.25 L22,13.25 Q22.311,13.25 22.53,13.47 Q22.75,13.689 22.75,14 L22.75,17 Q22.75,20.75 19,20.75 L18,20.75 Q17.689,20.75 17.47,20.53 Q17.25,20.311 17.25,20 Q17.25,18.75 16,18.75 Q15.486,18.75 15.118,19.118 Q14.75,19.486 14.75,20 Q14.75,20.311 14.53,20.53 Q14.311,20.75 14,20.75 L10,20.75 Q9.689,20.75 9.47,20.53 Q9.25,20.311 9.25,20 Q9.25,18.75 8,18.75 Q6.75,18.75 6.75,20 Q6.75,20.311 6.53,20.53 Q6.311,20.75 6,20.75 L5,20.75 Q1.25,20.75 1.25,17 Q1.25,16.689 1.47,16.47 Q1.689,16.25 2,16.25 Q2.311,16.25 2.53,16.47 Q2.75,16.689 2.75,17 Z"/>
  <path fill="#292D32" d="M8,22.75 Q6.625,22.75 5.938,22.062 Q5.25,21.375 5.25,20 Q5.25,18.861 6.055,18.055 Q6.861,17.25 8,17.25 Q10.75,17.25 10.75,20 Q10.75,21.139 9.945,21.945 Q9.139,22.75 8,22.75 Z M8,21.25 Q9.25,21.25 9.25,20 Q9.25,18.75 8,18.75 Q7.482,18.75 7.116,19.116 Q6.75,19.482 6.75,20 Q6.75,21.25 8,21.25 Z"/>
  <path fill="#292D32" d="M16,22.75 Q13.25,22.75 13.25,20 Q13.25,17.25 16,17.25 Q18.75,17.25 18.75,20 Q18.75,21.139 17.945,21.945 Q17.139,22.75 16,22.75 Z M16,21.25 Q17.25,21.25 17.25,20 Q17.25,18.75 16,18.75 Q14.75,18.75 14.75,20 Q14.75,20.518 15.116,20.884 Q15.482,21.25 16,21.25 Z"/>
  <path fill="#292D32" d="M22.75,12 L22.75,14 Q22.75,14.311 22.53,14.53 Q22.311,14.75 22,14.75 L19,14.75 Q17.25,14.75 17.25,13 L17.25,10 Q17.25,8.25 19,8.25 L20.29,8.25 Q20.726,8.25 20.942,8.629 L22.652,11.629 Q22.75,11.801 22.75,12 Z M21.25,12.199 L19.854,9.75 L19,9.75 Q18.75,9.75 18.75,10 L18.75,13 Q18.75,13.25 19,13.25 L21.25,13.25 L21.25,12.199 Z"/>
  <path fill="#292D32" d="M2,7.25 L8,7.25 Q8.311,7.25 8.53,7.47 Q8.75,7.689 8.75,8 Q8.75,8.311 8.53,8.53 Q8.311,8.75 8,8.75 L2,8.75 Q1.689,8.75 1.47,8.53 Q1.25,8.311 1.25,8 Q1.25,7.689 1.47,7.47 Q1.689,7.25 2,7.25 Z"/>
  <path fill="#292D32" d="M2,10.25 L6,10.25 Q6.311,10.25 6.53,10.47 Q6.75,10.689 6.75,11 Q6.75,11.311 6.53,11.53 Q6.311,11.75 6,11.75 L2,11.75 Q1.689,11.75 1.47,11.53 Q1.25,11.311 1.25,11 Q1.25,10.689 1.47,10.47 Q1.689,10.25 2,10.25 Z"/>
  <path fill="#292D32" d="M2,13.25 L4,13.25 Q4.311,13.25 4.53,13.47 Q4.75,13.689 4.75,14 Q4.75,14.311 4.53,14.53 Q4.311,14.75 4,14.75 L2,14.75 Q1.689,14.75 1.47,14.53 Q1.25,14.311 1.25,14 Q1.25,13.689 1.47,13.47 Q1.689,13.25 2,13.25 Z"/>
</svg>

