<svg xmlns="http://www.w3.org/2000/svg" width="24" height="24" viewBox="0 0 24 24">
  <defs/>
  <path d="M11.75,5 L11.75,8 Q11.75,8.311 11.53,8.53 Q11.311,8.75 11,8.75 L9,8.75 Q8.75,8.75 8.75,9 L8.75,11 Q8.75,11.311 8.53,11.53 Q8.311,11.75 8,11.75 L5,11.75 Q4.689,11.75 4.47,11.53 Q4.25,11.311 4.25,11 L4.25,9 Q4.25,7.032 5.641,5.641 Q7.032,4.25 9,4.25 L11,4.25 Q11.311,4.25 11.53,4.47 Q11.75,4.689 11.75,5 Z M10.25,5.75 L9,5.75 Q7.653,5.75 6.702,6.702 Q5.75,7.653 5.75,9 L5.75,10.25 L7.25,10.25 L7.25,9 Q7.25,7.25 9,7.25 L10.25,7.25 L10.25,5.75 Z"/>
  <path d="M12.25,19 L12.25,16 Q12.25,15.689 12.47,15.47 Q12.689,15.25 13,15.25 L15,15.25 Q15.25,15.25 15.25,15 L15.25,13 Q15.25,12.689 15.47,12.47 Q15.689,12.25 16,12.25 L19,12.25 Q19.311,12.25 19.53,12.47 Q19.75,12.689 19.75,13 L19.75,15 Q19.75,16.968 18.359,18.359 Q16.968,19.75 15,19.75 L13,19.75 Q12.689,19.75 12.47,19.53 Q12.25,19.311 12.25,19 Z M13.75,18.25 L15,18.25 Q18.25,18.25 18.25,15 L18.25,13.75 L16.75,13.75 L16.75,15 Q16.75,15.723 16.237,16.237 Q15.723,16.75 15,16.75 L13.75,16.75 L13.75,18.25 Z"/>
  <path d="M2.75,12.83 L2.75,15 Q2.75,18.439 4.155,19.845 Q5.561,21.25 9,21.25 L15,21.25 Q18.439,21.25 19.845,19.845 Q21.25,18.439 21.25,15 L21.25,9 Q21.25,2.75 15,2.75 L9,2.75 Q2.75,2.75 2.75,9 Q2.75,9.311 2.53,9.53 Q2.311,9.75 2,9.75 Q1.689,9.75 1.47,9.53 Q1.25,9.311 1.25,9 Q1.25,1.25 9,1.25 L15,1.25 Q22.75,1.25 22.75,9 L22.75,15 Q22.75,22.75 15,22.75 L9,22.75 Q1.25,22.75 1.25,15 L1.25,12.83 Q1.25,12.519 1.47,12.3 Q1.689,12.08 2,12.08 Q2.311,12.08 2.53,12.3 Q2.75,12.519 2.75,12.83 Z"/>
</svg>

