<svg xmlns="http://www.w3.org/2000/svg" width="24" height="24" viewBox="0 0 24 24">
  <defs/>
  <path fill="#292D32" d="M11.971,22.75 C6.051,22.75 1.221,17.93 1.221,12 C1.221,6.07 6.051,1.25 11.971,1.25 C17.891,1.25 22.721,6.07 22.721,12 C22.721,17.93 17.901,22.75 11.971,22.75 Z M11.971,2.75 C6.871,2.75 2.721,6.9 2.721,12 C2.721,17.1 6.871,21.25 11.971,21.25 C17.071,21.25 21.221,17.1 21.221,12 C21.221,6.9 17.071,2.75 11.971,2.75 Z"/>
  <path fill="#292D32" d="M12,19.25 C9.85,19.25 7.83,18.2 6.6,16.43 C6.36,16.09 6.45,15.62 6.79,15.39 C7.13,15.15 7.6,15.24 7.83,15.58 C8.78,16.94 10.34,17.76 12,17.76 C13.66,17.76 15.22,16.95 16.17,15.58 C16.41,15.24 16.87,15.16 17.21,15.39 C17.55,15.63 17.63,16.09 17.4,16.43 C16.17,18.2 14.15,19.25 12,19.25 Z"/>
</svg>

