<svg xmlns="http://www.w3.org/2000/svg" width="24" height="24" viewBox="0 0 24 24">
  <defs/>
  <path fill="#292D32" opacity="0.4" d="M11.971,22 C17.494,22 21.971,17.523 21.971,12 C21.971,6.477 17.494,2 11.971,2 C6.448,2 1.971,6.477 1.971,12 C1.971,17.523 6.448,22 11.971,22 Z"/>
  <path fill="#292D32" d="M12,19.25 C9.85,19.25 7.83,18.2 6.6,16.43 C6.36,16.09 6.45,15.62 6.79,15.39 C7.13,15.15 7.6,15.24 7.83,15.58 C8.78,16.94 10.34,17.76 12,17.76 C13.66,17.76 15.22,16.95 16.17,15.58 C16.41,15.24 16.87,15.16 17.21,15.39 C17.55,15.63 17.63,16.09 17.4,16.43 C16.17,18.2 14.15,19.25 12,19.25 Z"/>
</svg>

