<svg xmlns="http://www.w3.org/2000/svg" width="24" height="24" viewBox="0 0 24 24">
  <defs/>
  <path fill="#292D32" d="M11.971,2 C6.451,2 1.971,6.48 1.971,12 C1.971,17.52 6.451,22 11.971,22 C17.491,22 21.971,17.52 21.971,12 C21.971,6.48 17.501,2 11.971,2 Z M17.401,16.43 C16.171,18.2 14.151,19.25 12.001,19.25 C9.851,19.25 7.831,18.2 6.601,16.43 C6.361,16.09 6.451,15.62 6.791,15.39 C7.131,15.15 7.601,15.24 7.831,15.58 C8.781,16.94 10.341,17.76 12.001,17.76 C13.661,17.76 15.221,16.95 16.171,15.58 C16.411,15.24 16.871,15.16 17.211,15.39 C17.561,15.62 17.641,16.09 17.401,16.43 Z"/>
</svg>

