<svg xmlns="http://www.w3.org/2000/svg" width="24" height="24" viewBox="0 0 24 24">
  <defs/>
  <path fill="#17191C" d="M22.75,5.7 Q22.75,8.945 20.086,10.543 Q17.498,12.136 14.089,12.545 L13.25,12.645 L13.25,5.7 Q13.25,3.889 14.57,2.57 Q15.889,1.25 17.7,1.25 L18.2,1.25 Q20.074,1.25 21.413,2.565 Q22.75,3.878 22.75,5.7 Z M21.25,5.7 Q21.25,2.75 18.2,2.75 L17.7,2.75 Q16.511,2.75 15.63,3.63 Q14.75,4.511 14.75,5.7 L14.75,10.933 Q17.314,10.488 19.314,9.257 Q21.25,8.095 21.25,5.7 Z"/>
  <path fill="#17191C" d="M22.75,18.3 Q22.75,20.173 21.425,21.473 Q20.124,22.75 18.3,22.75 L17.8,22.75 Q15.927,22.75 14.627,21.425 Q13.35,20.124 13.35,18.3 L13.35,11.239 L14.005,11.156 Q19.191,10.496 21.4,7.55 L22.75,5.75 L22.75,18.3 Z M21.25,9.885 Q18.873,11.91 14.85,12.55 L14.85,18.3 Q14.85,19.511 15.698,20.375 Q16.557,21.25 17.8,21.25 L18.3,21.25 Q19.511,21.25 20.375,20.402 Q21.25,19.543 21.25,18.3 L21.25,9.885 Z"/>
  <path fill="#17191C" d="M1.25,18.3 Q1.25,15.055 3.914,13.457 Q6.502,11.864 9.911,11.455 L10.75,11.355 L10.75,18.3 Q10.75,20.173 9.425,21.473 Q8.124,22.75 6.3,22.75 L5.7,22.75 Q3.889,22.75 2.57,21.43 Q1.25,20.111 1.25,18.3 Z M2.75,18.3 Q2.75,19.489 3.63,20.37 Q4.511,21.25 5.7,21.25 L6.3,21.25 Q9.25,21.25 9.25,18.3 L9.25,13.067 Q6.686,13.512 4.686,14.743 Q2.75,15.905 2.75,18.3 Z"/>
  <path fill="#17191C" d="M1.25,5.7 Q1.25,3.889 2.57,2.57 Q3.889,1.25 5.7,1.25 L6.2,1.25 Q8.074,1.25 9.413,2.565 Q10.75,3.878 10.75,5.7 L10.75,12.762 L10.093,12.844 Q4.809,13.505 2.6,16.45 L1.25,18.25 L1.25,5.7 Z M2.75,14.119 Q5.147,12.087 9.25,11.448 L9.25,5.7 Q9.25,2.75 6.2,2.75 L5.7,2.75 Q4.511,2.75 3.63,3.63 Q2.75,4.511 2.75,5.7 L2.75,14.119 Z"/>
  <path fill="#17191C" d="M9.877,11.36 Q10.538,11.25 12,11.25 Q13.338,11.25 13.877,11.16 L14.123,12.64 Q13.462,12.75 12,12.75 Q10.662,12.75 10.123,12.84 Z"/>
</svg>

