<svg xmlns="http://www.w3.org/2000/svg" width="24" height="24" viewBox="0 0 24 24">
  <defs/>
  <path d="M22.75,5.74 Q22.75,8.931 20.117,10.576 Q17.484,12.237 14.085,12.625 L13.25,12.721 L13.25,5.74 Q13.25,3.884 14.567,2.567 Q15.884,1.25 17.74,1.25 L18.26,1.25 Q20.116,1.25 21.433,2.567 Q22.75,3.884 22.75,5.74 Z M21.25,5.74 Q21.25,2.75 18.26,2.75 L17.74,2.75 Q14.75,2.75 14.75,5.74 L14.75,11.016 Q17.299,10.58 19.323,9.304 Q21.25,8.099 21.25,5.74 Z"/>
  <path d="M22.75,18.26 Q22.75,20.116 21.433,21.433 Q20.116,22.75 18.26,22.75 L17.74,22.75 Q15.884,22.75 14.567,21.433 Q13.25,20.116 13.25,18.26 L13.25,11.212 L13.913,11.135 Q19.173,10.522 21.4,7.55 L22.75,5.748 L22.75,18.26 Z M21.25,9.884 Q18.844,11.93 14.75,12.537 L14.75,18.26 Q14.75,19.494 15.628,20.372 Q16.506,21.25 17.74,21.25 L18.26,21.25 Q21.25,21.25 21.25,18.26 L21.25,9.884 Z"/>
  <path d="M1.25,18.26 Q1.25,15.069 3.883,13.424 Q6.516,11.763 9.915,11.375 L10.75,11.28 L10.75,18.26 Q10.75,20.116 9.433,21.433 Q8.116,22.75 6.26,22.75 L5.74,22.75 Q3.884,22.75 2.567,21.433 Q1.25,20.116 1.25,18.26 Z M2.75,18.26 Q2.75,21.25 5.74,21.25 L6.26,21.25 Q9.25,21.25 9.25,18.26 L9.25,12.984 Q6.701,13.42 4.678,14.696 Q2.75,15.901 2.75,18.26 Z"/>
  <path d="M1.25,5.74 Q1.25,3.884 2.567,2.567 Q3.884,1.25 5.74,1.25 L6.26,1.25 Q8.116,1.25 9.433,2.567 Q10.75,3.884 10.75,5.74 L10.75,12.12 Q10.75,12.405 10.56,12.619 Q10.37,12.832 10.087,12.865 Q4.827,13.478 2.6,16.45 Q2.414,16.698 2.106,16.742 Q1.799,16.786 1.55,16.6 Q1.25,16.375 1.25,16 L1.25,9.68 Q1.25,9.369 1.47,9.15 Q1.689,8.93 2,8.93 Q2.311,8.93 2.53,9.15 Q2.75,9.369 2.75,9.68 L2.75,14.116 Q5.156,12.07 9.25,11.463 L9.25,5.74 Q9.25,2.75 6.26,2.75 L5.74,2.75 Q2.75,2.75 2.75,5.74 Q2.75,6.051 2.53,6.27 Q2.311,6.49 2,6.49 Q1.689,6.49 1.47,6.27 Q1.25,6.051 1.25,5.74 Z"/>
  <path d="M9.929,11.353 Q11.014,11.25 12,11.25 Q13.008,11.25 13.906,11.136 L14.094,12.624 Q13.102,12.75 12,12.75 Q11.086,12.75 10.071,12.847 Z"/>
  <path d="M1.25,18 L1.25,15.23 Q1.25,14.919 1.47,14.7 Q1.689,14.48 2,14.48 Q2.311,14.48 2.53,14.7 Q2.75,14.919 2.75,15.23 L2.75,18 Q2.75,18.311 2.53,18.53 Q2.311,18.75 2,18.75 Q1.689,18.75 1.47,18.53 Q1.25,18.311 1.25,18 Z"/>
</svg>

