<svg xmlns="http://www.w3.org/2000/svg" width="24" height="24" viewBox="0 0 24 24">
  <defs/>
  <path fill="white" opacity="0.58" d="M24,0 L0,0 L0,24 L24,24 L24,0 Z"/>
  <path fill="#292D32" d="M22,5.74 L22,18.26 C22,20.32 20.32,22 18.26,22 L17.74,22 C15.68,22 14,20.32 14,18.26 L14,11.88 C14.35,11.84 14.69,11.79 15.01,11.72 C17.05,11.35 18.6,10.65 19.72,9.94 C21.16,9.04 22,7.44 22,5.74 Z"/>
  <path fill="#292D32" opacity="0.4" d="M22,5.74 C22,7.44 21.16,9.04 19.72,9.94 C18.6,10.65 17.05,11.35 15.01,11.72 C14.69,11.79 14.35,11.84 14,11.88 L14,12.63 C12.81,12.78 11.54,12.7 10.07,12.85 L10,12.86 L10,18.26 C10,20.32 8.32,22 6.26,22 L5.74,22 C3.68,22 2,20.32 2,18.26 C2,18.17 2,18.07 2.02,17.98 C2.1,16.38 2.92,14.91 4.28,14.06 C5.4,13.35 6.95,12.65 8.98,12.28 C9.3,12.21 9.65,12.16 10,12.12 L10,11.35 C11.56,11.21 12.75,11.29 13.91,11.14 L14,11.13 L14,5.74 C14,3.68 15.68,2 17.74,2 L18.26,2 C20.09,2 21.63,3.33 21.94,5.08 C21.98,5.29 22,5.51 22,5.74 Z"/>
  <path fill="#292D32" d="M10,5.74 L10,12.12 C9.65,12.16 9.3,12.21 8.98,12.28 C6.95,12.65 5.4,13.35 4.28,14.06 C2.92,14.91 2.1,16.38 2.02,17.98 C2.01,17.99 2,18 2,18 L2,5.74 C2,3.68 3.68,2 5.74,2 L6.26,2 C8.32,2 10,3.68 10,5.74 Z"/>
</svg>

