<svg xmlns="http://www.w3.org/2000/svg" width="24" height="24" viewBox="0 0 24 24">
  <defs/>
  <path d="M13.25,12.72 L13.25,5.74 C13.25,3.26 15.26,1.25 17.74,1.25 L18.26,1.25 C20.74,1.25 22.75,3.26 22.75,5.74 C22.75,7.73 21.77,9.54 20.12,10.57 C18.37,11.67 16.34,12.36 14.09,12.62 L13.25,12.72 Z M17.74,2.75 C16.09,2.75 14.75,4.09 14.75,5.74 L14.75,11.01 C16.45,10.72 17.98,10.14 19.32,9.3 C20.51,8.55 21.25,7.19 21.25,5.74 C21.25,4.09 19.91,2.75 18.26,2.75 L17.74,2.75 Z"/>
  <path d="M18.26,22.75 L17.74,22.75 C15.26,22.75 13.25,20.74 13.25,18.26 L13.25,11.21 L13.91,11.13 C19.07,10.53 21.38,7.57 21.4,7.54 L22.75,5.77 L22.75,18.25 C22.75,20.74 20.74,22.75 18.26,22.75 Z M14.75,12.53 L14.75,18.26 C14.75,19.91 16.09,21.25 17.74,21.25 L18.26,21.25 C19.91,21.25 21.25,19.91 21.25,18.26 L21.25,9.78 C20.01,10.77 17.89,12.04 14.75,12.53 Z"/>
  <path d="M6.26,22.75 L5.74,22.75 C3.26,22.75 1.25,20.74 1.25,18.26 C1.25,16.27 2.23,14.46 3.88,13.43 C5.63,12.33 7.66,11.64 9.91,11.38 L10.75,11.28 L10.75,18.26 C10.75,20.74 8.74,22.75 6.26,22.75 Z M9.25,12.99 C7.55,13.28 6.02,13.86 4.68,14.7 C3.49,15.45 2.75,16.81 2.75,18.26 C2.75,19.91 4.09,21.25 5.74,21.25 L6.26,21.25 C7.91,21.25 9.25,19.91 9.25,18.26 L9.25,12.99 Z"/>
  <path d="M1.25,18.22 L1.25,5.74 C1.25,3.26 3.26,1.25 5.74,1.25 L6.26,1.25 C8.74,1.25 10.75,3.26 10.75,5.74 L10.75,12.79 L10.09,12.87 C4.93,13.47 2.62,16.43 2.6,16.46 L1.25,18.22 Z M5.74,2.75 C4.09,2.75 2.75,4.09 2.75,5.74 L2.75,14.22 C3.99,13.23 6.11,11.95 9.25,11.46 L9.25,5.73 C9.25,4.08 7.91,2.74 6.26,2.74 L5.74,2.74 L5.74,2.75 Z"/>
  <path d="M10.07,12.85 L9.93,11.36 C11.41,11.22 12.71,11.3 13.91,11.14 L14.1,12.63 C12.87,12.78 11.58,12.7 10.07,12.85 Z"/>
</svg>

