<svg xmlns="http://www.w3.org/2000/svg" width="24" height="24" viewBox="0 0 24 24">
  <defs/>
  <path fill="#292D32" opacity="0.4" d="M16.19,2 L7.81,2 C4.17,2 2,4.17 2,7.81 L2,16.18 C2,19.83 4.17,22 7.81,22 L16.18,22 C19.82,22 21.99,19.83 21.99,16.19 L21.99,7.81 C22,4.17 19.83,2 16.19,2 Z"/>
  <path fill="#292D32" d="M18.819,10.58 C19.219,10.58 19.549,10.25 19.549,9.85 C19.549,9.45 19.219,9.12 18.819,9.12 L15.209,9.12 L15.599,5.62 C15.639,5.22 15.359,4.86 14.949,4.81 C14.549,4.77 14.189,5.05 14.139,5.46 L13.729,9.12 L10.899,9.12 L11.289,5.62 C11.329,5.22 11.049,4.86 10.639,4.81 C10.239,4.77 9.879,5.05 9.829,5.46 L9.429,9.12 L5.899,9.12 C5.499,9.12 5.169,9.45 5.169,9.85 C5.169,10.25 5.499,10.58 5.899,10.58 L9.269,10.58 L8.949,13.43 L5.179,13.43 C4.779,13.43 4.449,13.76 4.449,14.16 C4.449,14.56 4.779,14.89 5.179,14.89 L8.789,14.89 L8.399,18.39 C8.359,18.79 8.639,19.15 9.049,19.2 C9.079,19.2 9.099,19.2 9.129,19.2 C9.499,19.2 9.809,18.92 9.859,18.55 L10.269,14.89 L13.109,14.89 L12.719,18.39 C12.679,18.79 12.959,19.15 13.369,19.2 C13.399,19.2 13.419,19.2 13.449,19.2 C13.819,19.2 14.129,18.92 14.179,18.55 L14.589,14.89 L18.119,14.89 C18.519,14.89 18.849,14.56 18.849,14.16 C18.849,13.76 18.519,13.43 18.119,13.43 L14.749,13.43 L15.069,10.58 L18.819,10.58 Z M13.259,13.42 L10.419,13.42 L10.739,10.57 L13.579,10.57 L13.259,13.42 Z"/>
</svg>

