<svg xmlns="http://www.w3.org/2000/svg" width="24" height="24" viewBox="0 0 24 24">
  <defs/>
  <path fill="#292D32" d="M2.75,12.95 L2.75,15 Q2.75,18.439 4.155,19.845 Q5.561,21.25 9,21.25 L14,21.25 Q14.311,21.25 14.53,21.47 Q14.75,21.689 14.75,22 Q14.75,22.311 14.53,22.53 Q14.311,22.75 14,22.75 L9,22.75 Q1.25,22.75 1.25,15 L1.25,12.95 Q1.25,12.639 1.47,12.42 Q1.689,12.2 2,12.2 Q2.311,12.2 2.53,12.42 Q2.75,12.639 2.75,12.95 Z"/>
  <path fill="#292D32" d="M21.25,13 L21.25,9 Q21.25,2.75 15,2.75 L9,2.75 Q2.75,2.75 2.75,9 Q2.75,9.311 2.53,9.53 Q2.311,9.75 2,9.75 Q1.689,9.75 1.47,9.53 Q1.25,9.311 1.25,9 Q1.25,1.25 9,1.25 L15,1.25 Q22.75,1.25 22.75,9 L22.75,13 Q22.75,13.311 22.53,13.53 Q22.311,13.75 22,13.75 Q21.689,13.75 21.47,13.53 Q21.25,13.311 21.25,13 Z"/>
  <path fill="#292D32" d="M19.75,16 L19.75,20.189 L20.47,19.47 Q20.689,19.25 21,19.25 Q21.311,19.25 21.53,19.47 Q21.75,19.689 21.75,20 Q21.75,20.311 21.53,20.53 L19.53,22.53 Q19.311,22.75 19,22.75 Q18.689,22.75 18.47,22.53 Q18.25,22.311 18.25,22 L18.25,16 Q18.25,15.689 18.47,15.47 Q18.689,15.25 19,15.25 Q19.311,15.25 19.53,15.47 Q19.75,15.689 19.75,16 Z"/>
  <path fill="#292D32" d="M18.47,22.53 L16.47,20.53 Q16.25,20.311 16.25,20 Q16.25,19.689 16.47,19.47 Q16.689,19.25 17,19.25 Q17.311,19.25 17.53,19.47 L19.53,21.47 Q19.75,21.689 19.75,22 Q19.75,22.311 19.53,22.53 Q19.311,22.75 19,22.75 Q18.689,22.75 18.47,22.53 Z"/>
  <path fill="#292D32" d="M10.696,6.343 L9.646,15.813 Q9.612,16.121 9.369,16.316 Q9.127,16.51 8.818,16.475 Q8.509,16.441 8.315,16.199 Q8.121,15.956 8.155,15.647 L9.205,6.177 Q9.239,5.869 9.482,5.674 Q9.724,5.48 10.033,5.515 Q10.342,5.549 10.536,5.791 Q10.73,6.034 10.696,6.343 Z"/>
  <path fill="#292D32" d="M13.856,6.343 L12.806,15.813 Q12.772,16.121 12.529,16.316 Q12.287,16.51 11.978,16.475 Q11.669,16.441 11.475,16.199 Q11.281,15.956 11.315,15.647 L12.365,6.177 Q12.399,5.869 12.642,5.674 Q12.884,5.48 13.193,5.515 Q13.502,5.549 13.696,5.791 Q13.89,6.034 13.856,6.343 Z"/>
  <path fill="#292D32" d="M6.529,8.67 L15.999,8.67 Q16.31,8.67 16.53,8.89 Q16.749,9.109 16.749,9.42 Q16.749,9.731 16.53,9.95 Q16.31,10.17 15.999,10.17 L6.529,10.17 Q6.219,10.17 5.999,9.95 Q5.779,9.731 5.779,9.42 Q5.779,9.109 5.999,8.89 Q6.219,8.67 6.529,8.67 Z"/>
  <path fill="#292D32" d="M6,11.83 L15.47,11.83 Q15.781,11.83 16,12.05 Q16.22,12.269 16.22,12.58 Q16.22,12.891 16,13.11 Q15.781,13.33 15.47,13.33 L6,13.33 Q5.689,13.33 5.47,13.11 Q5.25,12.891 5.25,12.58 Q5.25,12.269 5.47,12.05 Q5.689,11.83 6,11.83 Z"/>
</svg>

