<svg xmlns="http://www.w3.org/2000/svg" width="24" height="24" viewBox="0 0 24 24">
  <defs/>
  <path fill="#292D32" d="M15,22.75 L9,22.75 C3.57,22.75 1.25,20.43 1.25,15 L1.25,9 C1.25,3.57 3.57,1.25 9,1.25 L15,1.25 C20.43,1.25 22.75,3.57 22.75,9 L22.75,13 C22.75,13.41 22.41,13.75 22,13.75 C21.59,13.75 21.25,13.41 21.25,13 L21.25,9 C21.25,4.39 19.61,2.75 15,2.75 L9,2.75 C4.39,2.75 2.75,4.39 2.75,9 L2.75,15 C2.75,19.61 4.39,21.25 9,21.25 L15,21.25 C15.41,21.25 15.75,21.59 15.75,22 C15.75,22.41 15.41,22.75 15,22.75 Z"/>
  <path fill="#292D32" d="M19,22.75 C18.59,22.75 18.25,22.41 18.25,22 L18.25,17.81 L17.529,18.53 C17.239,18.82 16.759,18.82 16.47,18.53 C16.18,18.24 16.18,17.76 16.47,17.47 L18.47,15.47 C18.68,15.26 19.009,15.19 19.29,15.31 C19.57,15.43 19.75,15.7 19.75,16 L19.75,22 C19.75,22.41 19.41,22.75 19,22.75 Z"/>
  <path fill="#292D32" d="M21,18.75 C20.809,18.75 20.619,18.68 20.47,18.53 L18.47,16.53 C18.18,16.24 18.18,15.76 18.47,15.47 C18.759,15.18 19.239,15.18 19.529,15.47 L21.529,17.47 C21.82,17.76 21.82,18.24 21.529,18.53 C21.38,18.68 21.189,18.75 21,18.75 Z"/>
  <path fill="#292D32" d="M8.9,16.49 C8.87,16.49 8.84,16.49 8.82,16.49 C8.41,16.44 8.11,16.07 8.16,15.66 L9.2,6.18 C9.25,5.77 9.62,5.47 10.03,5.52 C10.44,5.57 10.74,5.94 10.69,6.35 L9.64,15.82 C9.6,16.2 9.27,16.49 8.9,16.49 Z"/>
  <path fill="#292D32" d="M12.05,16.49 C12.02,16.49 11.99,16.49 11.97,16.49 C11.56,16.44 11.26,16.07 11.31,15.66 L12.36,6.19 C12.41,5.78 12.78,5.48 13.19,5.53 C13.6,5.58 13.9,5.95 13.85,6.36 L12.8,15.83 C12.76,16.2 12.43,16.49 12.05,16.49 Z"/>
  <path fill="#292D32" d="M15.999,10.17 L6.529,10.17 C6.119,10.17 5.779,9.83 5.779,9.42 C5.779,9.01 6.119,8.67 6.529,8.67 L15.999,8.67 C16.409,8.67 16.749,9.01 16.749,9.42 C16.749,9.83 16.409,10.17 15.999,10.17 Z"/>
  <path fill="#292D32" d="M15.47,13.33 L6,13.33 C5.59,13.33 5.25,12.99 5.25,12.58 C5.25,12.17 5.59,11.83 6,11.83 L15.47,11.83 C15.88,11.83 16.22,12.17 16.22,12.58 C16.22,12.99 15.89,13.33 15.47,13.33 Z"/>
</svg>

