<svg xmlns="http://www.w3.org/2000/svg" width="24" height="24" viewBox="0 0 24 24">
  <defs/>
  <path fill="#292D32" d="M21.25,13 L21.25,9 Q21.25,2.75 15,2.75 L9,2.75 Q2.75,2.75 2.75,9 L2.75,15 Q2.75,18.439 4.155,19.845 Q5.561,21.25 9,21.25 L15,21.25 Q15.311,21.25 15.53,21.47 Q15.75,21.689 15.75,22 Q15.75,22.311 15.53,22.53 Q15.311,22.75 15,22.75 L9,22.75 Q1.25,22.75 1.25,15 L1.25,9 Q1.25,1.25 9,1.25 L15,1.25 Q22.75,1.25 22.75,9 L22.75,13 Q22.75,13.311 22.53,13.53 Q22.311,13.75 22,13.75 Q21.689,13.75 21.47,13.53 Q21.25,13.311 21.25,13 Z"/>
  <path fill="#292D32" d="M18.25,22 L18.25,17.811 L17.53,18.53 Q17.311,18.75 17,18.75 Q16.689,18.75 16.47,18.53 Q16.25,18.311 16.25,18 Q16.25,17.689 16.47,17.47 L18.47,15.47 Q18.689,15.25 19,15.25 Q19.311,15.25 19.53,15.47 Q19.75,15.689 19.75,16 L19.75,22 Q19.75,22.311 19.53,22.53 Q19.311,22.75 19,22.75 Q18.689,22.75 18.47,22.53 Q18.25,22.311 18.25,22 Z"/>
  <path fill="#292D32" d="M19.53,15.47 L21.53,17.47 Q21.75,17.689 21.75,18 Q21.75,18.311 21.53,18.53 Q21.311,18.75 21,18.75 Q20.689,18.75 20.47,18.53 L18.47,16.53 Q18.25,16.311 18.25,16 Q18.25,15.689 18.47,15.47 Q18.689,15.25 19,15.25 Q19.311,15.25 19.53,15.47 Z"/>
  <path fill="#292D32" d="M10.695,6.343 L9.645,15.813 Q9.611,16.121 9.369,16.316 Q9.126,16.51 8.817,16.475 Q8.509,16.441 8.314,16.199 Q8.12,15.956 8.155,15.647 L9.205,6.177 Q9.239,5.869 9.481,5.674 Q9.724,5.48 10.033,5.515 Q10.341,5.549 10.536,5.791 Q10.73,6.034 10.695,6.343 Z"/>
  <path fill="#292D32" d="M13.856,6.343 L12.806,15.813 Q12.771,16.121 12.529,16.316 Q12.286,16.51 11.977,16.475 Q11.669,16.441 11.475,16.199 Q11.28,15.956 11.315,15.647 L12.365,6.177 Q12.399,5.869 12.641,5.674 Q12.884,5.48 13.193,5.515 Q13.502,5.549 13.696,5.791 Q13.89,6.034 13.856,6.343 Z"/>
  <path fill="#292D32" d="M6.53,8.67 L16,8.67 Q16.311,8.67 16.53,8.89 Q16.75,9.109 16.75,9.42 Q16.75,9.731 16.53,9.95 Q16.311,10.17 16,10.17 L6.53,10.17 Q6.219,10.17 6,9.95 Q5.78,9.731 5.78,9.42 Q5.78,9.109 6,8.89 Q6.219,8.67 6.53,8.67 Z"/>
  <path fill="#292D32" d="M6,11.83 L15.47,11.83 Q15.781,11.83 16,12.05 Q16.22,12.269 16.22,12.58 Q16.22,12.891 16,13.11 Q15.781,13.33 15.47,13.33 L6,13.33 Q5.689,13.33 5.47,13.11 Q5.25,12.891 5.25,12.58 Q5.25,12.269 5.47,12.05 Q5.689,11.83 6,11.83 Z"/>
</svg>

