<svg xmlns="http://www.w3.org/2000/svg" width="24" height="24" viewBox="0 0 24 24">
  <defs/>
  <path fill="#292D32" d="M20.97,16 L18.03,16 C16.76,16 16,16.76 16,18.03 L16,20.97 C16,22.24 16.76,23 18.03,23 L20.97,23 C22.24,23 23,22.24 23,20.97 L23,18.03 C23,16.76 22.24,16 20.97,16 Z M21.19,19.31 C21.07,19.43 20.91,19.49 20.75,19.49 C20.59,19.49 20.43,19.43 20.31,19.31 L20.13,19.13 L20.13,21.37 C20.13,21.72 19.85,22 19.5,22 C19.15,22 18.87,21.72 18.87,21.37 L18.87,19.13 L18.69,19.31 C18.45,19.55 18.05,19.55 17.81,19.31 C17.57,19.07 17.57,18.67 17.81,18.43 L19.06,17.18 C19.11,17.13 19.18,17.09 19.25,17.06 C19.27,17.05 19.29,17.05 19.31,17.04 C19.36,17.02 19.41,17.01 19.47,17.01 C19.49,17.01 19.51,17.01 19.53,17.01 C19.6,17.01 19.66,17.02 19.73,17.05 C19.74,17.05 19.74,17.05 19.75,17.05 C19.82,17.08 19.88,17.12 19.93,17.17 C19.94,17.18 19.94,17.18 19.95,17.18 L21.2,18.43 C21.44,18.67 21.44,19.07 21.19,19.31 Z"/>
  <path fill="#292D32" opacity="0.4" d="M16,20.97 L16,18.03 C16,16.76 16.76,16 18.03,16 L20.97,16 C21.37,16 21.71,16.08 22,16.22 C22,16.21 22,16.2 22,16.18 L22,7.81 C22,4.17 19.83,2 16.19,2 L7.81,2 C4.17,2 2,4.17 2,7.81 L2,16.18 C2,19.83 4.17,22 7.81,22 L16.18,22 C16.19,22 16.2,22 16.22,22 C16.08,21.71 16,21.37 16,20.97 Z"/>
  <path fill="#292D32" d="M16,10.17 C16.41,10.17 16.75,9.83 16.75,9.42 C16.75,9.01 16.41,8.67 16,8.67 L13.59,8.67 L13.85,6.35 C13.9,5.94 13.6,5.57 13.19,5.52 C12.78,5.48 12.41,5.77 12.36,6.18 L12.08,8.67 L10.43,8.67 L10.69,6.35 C10.74,5.94 10.44,5.57 10.03,5.52 C9.62,5.47 9.25,5.77 9.2,6.18 L8.92,8.67 L6.52,8.67 C6.11,8.67 5.77,9.01 5.77,9.42 C5.77,9.83 6.11,10.17 6.52,10.17 L8.75,10.17 L8.57,11.83 L6,11.83 C5.59,11.83 5.25,12.17 5.25,12.58 C5.25,12.99 5.59,13.33 6,13.33 L8.41,13.33 L8.15,15.65 C8.1,16.06 8.4,16.43 8.81,16.48 C8.84,16.48 8.87,16.48 8.89,16.48 C9.27,16.48 9.59,16.2 9.63,15.81 L9.91,13.32 L11.56,13.32 L11.3,15.64 C11.25,16.05 11.55,16.42 11.96,16.47 C11.99,16.47 12.02,16.47 12.04,16.47 C12.42,16.47 12.74,16.19 12.78,15.8 L13.06,13.31 L15.46,13.31 C15.87,13.31 16.21,12.97 16.21,12.56 C16.21,12.15 15.87,11.81 15.46,11.81 L13.23,11.81 L13.41,10.15 L16,10.15 L16,10.17 Z M11.73,11.83 L10.08,11.83 L10.26,10.17 L11.91,10.17 L11.73,11.83 Z"/>
</svg>

