<svg xmlns="http://www.w3.org/2000/svg" width="24" height="24" viewBox="0 0 24 24">
  <defs/>
  <path fill="#292D32" d="M10.42,13.418 L13.26,13.418 L13.58,10.578 L10.74,10.578 L10.42,13.418 Z"/>
  <path fill="#292D32" d="M16.19,2 L7.81,2 C4.17,2 2,4.17 2,7.81 L2,16.18 C2,19.83 4.17,22 7.81,22 L16.18,22 C19.82,22 21.99,19.83 21.99,16.19 L21.99,7.81 C22,4.17 19.83,2 16.19,2 Z M18.82,10.58 L15.05,10.58 L14.73,13.43 L18.1,13.43 C18.5,13.43 18.83,13.76 18.83,14.16 C18.83,14.56 18.5,14.89 18.1,14.89 L14.57,14.89 L14.16,18.55 C14.12,18.92 13.8,19.2 13.43,19.2 C13.4,19.2 13.38,19.2 13.35,19.2 C12.95,19.16 12.66,18.79 12.7,18.39 L13.09,14.89 L10.25,14.89 L9.84,18.55 C9.8,18.92 9.48,19.2 9.11,19.2 C9.08,19.2 9.06,19.2 9.03,19.2 C8.63,19.16 8.34,18.79 8.38,18.39 L8.77,14.89 L5.18,14.89 C4.78,14.89 4.45,14.56 4.45,14.16 C4.45,13.76 4.78,13.43 5.18,13.43 L8.95,13.43 L9.27,10.58 L5.9,10.58 C5.5,10.58 5.17,10.25 5.17,9.85 C5.17,9.45 5.5,9.12 5.9,9.12 L9.43,9.12 L9.84,5.46 C9.88,5.06 10.25,4.77 10.65,4.81 C11.05,4.85 11.34,5.22 11.3,5.62 L10.91,9.12 L13.75,9.12 L14.16,5.46 C14.21,5.06 14.57,4.77 14.97,4.81 C15.37,4.85 15.66,5.22 15.62,5.62 L15.23,9.12 L18.84,9.12 C19.24,9.12 19.57,9.45 19.57,9.85 C19.57,10.25 19.22,10.58 18.82,10.58 Z"/>
</svg>

