<svg xmlns="http://www.w3.org/2000/svg" width="24" height="24" viewBox="0 0 24 24">
  <defs/>
  <path fill="#292D32" d="M14,7.75 L10,7.75 Q7.75,7.75 7.75,10 L7.75,14 Q7.75,16.25 10,16.25 L14,16.25 Q16.25,16.25 16.25,14 L16.25,10 Q16.25,9.689 16.47,9.47 Q16.689,9.25 17,9.25 Q17.311,9.25 17.53,9.47 Q17.75,9.689 17.75,10 L17.75,14 Q17.75,17.75 14,17.75 L10,17.75 Q6.25,17.75 6.25,14 L6.25,10 Q6.25,6.25 10,6.25 L14,6.25 Q14.311,6.25 14.53,6.47 Q14.75,6.689 14.75,7 Q14.75,7.311 14.53,7.53 Q14.311,7.75 14,7.75 Z"/>
  <path fill="#292D32" d="M12.75,7 L12.75,17 Q12.75,17.311 12.53,17.53 Q12.311,17.75 12,17.75 Q11.689,17.75 11.47,17.53 Q11.25,17.311 11.25,17 L11.25,7 Q11.25,6.689 11.47,6.47 Q11.689,6.25 12,6.25 Q12.311,6.25 12.53,6.47 Q12.75,6.689 12.75,7 Z"/>
  <path fill="#292D32" d="M7,11.25 L17,11.25 Q17.311,11.25 17.53,11.47 Q17.75,11.689 17.75,12 Q17.75,12.311 17.53,12.53 Q17.311,12.75 17,12.75 L7,12.75 Q6.689,12.75 6.47,12.53 Q6.25,12.311 6.25,12 Q6.25,11.689 6.47,11.47 Q6.689,11.25 7,11.25 Z"/>
  <path fill="#292D32" d="M2.75,12.98 L2.75,15 Q2.75,18.439 4.155,19.845 Q5.561,21.25 9,21.25 L15,21.25 Q18.439,21.25 19.845,19.845 Q21.25,18.439 21.25,15 L21.25,9 Q21.25,2.75 15,2.75 L9,2.75 Q2.75,2.75 2.75,9 Q2.75,9.311 2.53,9.53 Q2.311,9.75 2,9.75 Q1.689,9.75 1.47,9.53 Q1.25,9.311 1.25,9 Q1.25,1.25 9,1.25 L15,1.25 Q22.75,1.25 22.75,9 L22.75,15 Q22.75,22.75 15,22.75 L9,22.75 Q1.25,22.75 1.25,15 L1.25,12.98 Q1.25,12.669 1.47,12.45 Q1.689,12.23 2,12.23 Q2.311,12.23 2.53,12.45 Q2.75,12.669 2.75,12.98 Z"/>
</svg>

