<svg xmlns="http://www.w3.org/2000/svg" width="24" height="24" viewBox="0 0 24 24">
  <defs/>
  <path fill="#292D32" d="M10.745,3.083 L8.745,21.083 Q8.711,21.392 8.469,21.586 Q8.226,21.78 7.917,21.745 Q7.608,21.711 7.414,21.469 Q7.22,21.226 7.255,20.917 L9.255,2.917 Q9.289,2.608 9.531,2.414 Q9.774,2.22 10.083,2.255 Q10.392,2.289 10.586,2.531 Q10.78,2.774 10.745,3.083 Z"/>
  <path fill="#292D32" d="M16.745,3.083 L14.745,21.083 Q14.711,21.392 14.469,21.586 Q14.226,21.78 13.917,21.745 Q13.608,21.711 13.414,21.469 Q13.22,21.226 13.255,20.917 L15.255,2.917 Q15.289,2.608 15.531,2.414 Q15.774,2.22 16.083,2.255 Q16.392,2.289 16.586,2.531 Q16.78,2.774 16.745,3.083 Z"/>
  <path fill="#292D32" opacity="0.4" d="M3.5,8.25 L21.5,8.25 Q21.811,8.25 22.03,8.47 Q22.25,8.689 22.25,9 Q22.25,9.311 22.03,9.53 Q21.811,9.75 21.5,9.75 L3.5,9.75 Q3.189,9.75 2.97,9.53 Q2.75,9.311 2.75,9 Q2.75,8.689 2.97,8.47 Q3.189,8.25 3.5,8.25 Z"/>
  <path fill="#292D32" opacity="0.4" d="M2.5,14.25 L20.5,14.25 Q20.811,14.25 21.03,14.47 Q21.25,14.689 21.25,15 Q21.25,15.311 21.03,15.53 Q20.811,15.75 20.5,15.75 L2.5,15.75 Q2.189,15.75 1.97,15.53 Q1.75,15.311 1.75,15 Q1.75,14.689 1.97,14.47 Q2.189,14.25 2.5,14.25 Z"/>
</svg>

