<svg xmlns="http://www.w3.org/2000/svg" width="24" height="24" viewBox="0 0 24 24">
  <defs/>
  <path fill="#292D32" d="M15,22.75 L9,22.75 C3.57,22.75 1.25,20.43 1.25,15 L1.25,9 C1.25,3.57 3.57,1.25 9,1.25 L15,1.25 C20.43,1.25 22.75,3.57 22.75,9 L22.75,15 C22.75,20.43 20.43,22.75 15,22.75 Z M9,2.75 C4.39,2.75 2.75,4.39 2.75,9 L2.75,15 C2.75,19.61 4.39,21.25 9,21.25 L15,21.25 C19.61,21.25 21.25,19.61 21.25,15 L21.25,9 C21.25,4.39 19.61,2.75 15,2.75 L9,2.75 Z"/>
  <path fill="#292D32" d="M14,17.75 L10,17.75 C7.93,17.75 6.25,16.07 6.25,14 L6.25,10 C6.25,7.93 7.93,6.25 10,6.25 L14,6.25 C16.07,6.25 17.75,7.93 17.75,10 L17.75,14 C17.75,16.07 16.07,17.75 14,17.75 Z M10,7.75 C8.76,7.75 7.75,8.76 7.75,10 L7.75,14 C7.75,15.24 8.76,16.25 10,16.25 L14,16.25 C15.24,16.25 16.25,15.24 16.25,14 L16.25,10 C16.25,8.76 15.24,7.75 14,7.75 L10,7.75 Z"/>
  <path fill="#292D32" d="M12,17.75 C11.59,17.75 11.25,17.41 11.25,17 L11.25,7 C11.25,6.59 11.59,6.25 12,6.25 C12.41,6.25 12.75,6.59 12.75,7 L12.75,17 C12.75,17.41 12.41,17.75 12,17.75 Z"/>
  <path fill="#292D32" d="M17,12.75 L7,12.75 C6.59,12.75 6.25,12.41 6.25,12 C6.25,11.59 6.59,11.25 7,11.25 L17,11.25 C17.41,11.25 17.75,11.59 17.75,12 C17.75,12.41 17.41,12.75 17,12.75 Z"/>
</svg>

