<svg xmlns="http://www.w3.org/2000/svg" width="24" height="24" viewBox="0 0 24 24">
  <defs/>
  <path fill="#292D32" d="M10.08,11.832 L11.73,11.832 L11.92,10.172 L10.27,10.172 L10.08,11.832 Z"/>
  <path fill="#292D32" d="M21.97,7.21 C21.77,4.13 19.87,2.23 16.79,2.03 C16.59,2.01 16.39,2 16.19,2 L7.81,2 C7.61,2 7.41,2.01 7.21,2.03 C4.13,2.23 2.23,4.13 2.03,7.21 C2.01,7.41 2,7.61 2,7.81 L2,16.19 C2,16.39 2.01,16.59 2.03,16.79 C2.23,19.87 4.13,21.77 7.21,21.97 C7.41,21.99 7.61,22 7.81,22 L13.5,22 C14.05,22 14.5,21.55 14.5,21 L14.5,18.03 C14.5,16.08 16.08,14.5 18.03,14.5 L21,14.5 C21.55,14.5 22,14.05 22,13.5 L22,7.81 C22,7.61 21.99,7.41 21.97,7.21 Z M16,10.17 L13.43,10.17 L13.24,11.83 L15.47,11.83 C15.89,11.83 16.22,12.17 16.22,12.58 C16.22,12.99 15.89,13.33 15.47,13.33 L13.08,13.33 L12.8,15.82 C12.76,16.2 12.43,16.49 12.05,16.49 C12.03,16.49 12,16.49 11.97,16.48 C11.56,16.44 11.26,16.07 11.31,15.65 L11.57,13.33 L9.92,13.33 L9.64,15.82 C9.6,16.2 9.27,16.49 8.9,16.49 C8.87,16.49 8.84,16.49 8.81,16.48 C8.4,16.44 8.1,16.07 8.15,15.65 L8.41,13.33 L6,13.33 C5.59,13.33 5.25,12.99 5.25,12.58 C5.25,12.17 5.59,11.83 6,11.83 L8.57,11.83 L8.76,10.17 L6.53,10.17 C6.11,10.17 5.78,9.83 5.78,9.42 C5.78,9.01 6.11,8.67 6.53,8.67 L8.92,8.67 L9.2,6.18 C9.25,5.77 9.62,5.47 10.03,5.52 C10.44,5.56 10.74,5.93 10.69,6.35 L10.43,8.67 L12.08,8.67 L12.36,6.18 C12.41,5.77 12.78,5.47 13.19,5.52 C13.6,5.56 13.9,5.93 13.85,6.35 L13.59,8.67 L16,8.67 C16.41,8.67 16.75,9.01 16.75,9.42 C16.75,9.83 16.41,10.17 16,10.17 Z"/>
  <path fill="#292D32" d="M20.97,16 L18.03,16 C16.76,16 16,16.76 16,18.03 L16,20.97 C16,22.24 16.76,23 18.03,23 L20.97,23 C22.24,23 23,22.24 23,20.97 L23,18.03 C23,16.76 22.24,16 20.97,16 Z M21.19,19.31 C21.07,19.43 20.91,19.49 20.75,19.49 C20.59,19.49 20.43,19.43 20.31,19.31 L20.13,19.13 L20.13,21.37 C20.13,21.72 19.85,22 19.5,22 C19.15,22 18.87,21.72 18.87,21.37 L18.87,19.13 L18.69,19.31 C18.45,19.55 18.05,19.55 17.81,19.31 C17.57,19.07 17.57,18.67 17.81,18.43 L19.06,17.18 C19.11,17.13 19.18,17.09 19.25,17.06 C19.27,17.05 19.29,17.05 19.31,17.04 C19.36,17.02 19.41,17.01 19.47,17.01 C19.49,17.01 19.51,17.01 19.53,17.01 C19.6,17.01 19.66,17.02 19.73,17.05 C19.74,17.05 19.74,17.05 19.75,17.05 C19.82,17.08 19.88,17.12 19.93,17.17 C19.94,17.18 19.94,17.18 19.95,17.18 L21.2,18.43 C21.44,18.67 21.44,19.07 21.19,19.31 Z"/>
</svg>

