<svg xmlns="http://www.w3.org/2000/svg" width="24" height="24" viewBox="0 0 24 24">
  <defs/>
  <path fill="#292D32" d="M8.051,10.141 L8.051,11.301 L11.311,11.301 L11.311,8.051 L10.151,8.051 C8.991,8.051 8.051,8.991 8.051,10.141 Z"/>
  <path fill="#292D32" d="M8.051,13.859 C8.051,15.009 8.991,15.949 10.141,15.949 L11.301,15.949 L11.301,12.699 L8.051,12.699 L8.051,13.859 Z"/>
  <path fill="#292D32" d="M12.699,15.949 L13.859,15.949 C15.009,15.949 15.949,15.009 15.949,13.859 L15.949,12.699 L12.699,12.699 L12.699,15.949 Z"/>
  <path fill="#292D32" d="M16.19,2 L7.81,2 C4.17,2 2,4.17 2,7.81 L2,16.18 C2,19.83 4.17,22 7.81,22 L16.18,22 C19.82,22 21.99,19.83 21.99,16.19 L21.99,7.81 C22,4.17 19.83,2 16.19,2 Z M17.35,13.86 C17.35,15.78 15.78,17.35 13.86,17.35 L10.14,17.35 C8.22,17.35 6.65,15.79 6.65,13.86 L6.65,10.14 C6.65,8.22 8.22,6.65 10.14,6.65 L13.86,6.65 C15.78,6.65 17.35,8.21 17.35,10.14 L17.35,13.86 Z"/>
  <path fill="#292D32" d="M13.859,8.051 L12.699,8.051 L12.699,11.311 L15.959,11.311 L15.959,10.151 C15.949,8.991 15.009,8.051 13.859,8.051 Z"/>
</svg>

