<svg xmlns="http://www.w3.org/2000/svg" width="24" height="24" viewBox="0 0 24 24">
  <defs/>
  <path fill="#292D32" d="M7.999,21.75 C7.969,21.75 7.939,21.75 7.919,21.75 C7.509,21.7 7.209,21.33 7.259,20.92 L9.259,2.92 C9.309,2.51 9.679,2.22 10.089,2.26 C10.499,2.31 10.799,2.68 10.749,3.09 L8.749,21.09 C8.699,21.47 8.379,21.75 7.999,21.75 Z"/>
  <path fill="#292D32" d="M13.999,21.75 C13.969,21.75 13.939,21.75 13.919,21.75 C13.509,21.7 13.209,21.33 13.259,20.92 L15.259,2.92 C15.309,2.51 15.669,2.22 16.089,2.26 C16.499,2.31 16.799,2.68 16.749,3.09 L14.749,21.09 C14.699,21.47 14.379,21.75 13.999,21.75 Z"/>
  <path fill="#292D32" d="M21.5,9.75 L3.5,9.75 C3.09,9.75 2.75,9.41 2.75,9 C2.75,8.59 3.09,8.25 3.5,8.25 L21.5,8.25 C21.91,8.25 22.25,8.59 22.25,9 C22.25,9.41 21.91,9.75 21.5,9.75 Z"/>
  <path fill="#292D32" d="M20.5,15.75 L2.5,15.75 C2.09,15.75 1.75,15.41 1.75,15 C1.75,14.59 2.09,14.25 2.5,14.25 L20.5,14.25 C20.91,14.25 21.25,14.59 21.25,15 C21.25,15.41 20.91,15.75 20.5,15.75 Z"/>
</svg>

