<svg xmlns="http://www.w3.org/2000/svg" width="24" height="24" viewBox="0 0 24 24">
  <defs/>
  <path fill="#292D32" d="M8.5,12.75 C8.09,12.75 7.75,12.41 7.75,12 L7.75,7.22 C7.75,6.81 8.09,6.47 8.5,6.47 C8.91,6.47 9.25,6.81 9.25,7.22 L9.25,12 C9.25,12.41 8.91,12.75 8.5,12.75 Z"/>
  <path fill="#292D32" d="M8.5,22.75 C8.09,22.75 7.75,22.41 7.75,22 L7.75,19 C7.75,18.59 8.09,18.25 8.5,18.25 C8.91,18.25 9.25,18.59 9.25,19 L9.25,22 C9.25,22.41 8.91,22.75 8.5,22.75 Z"/>
  <path fill="#292D32" d="M15.5,22.75 C15.09,22.75 14.75,22.41 14.75,22 L14.75,7.22 C14.75,6.81 15.09,6.47 15.5,6.47 C15.91,6.47 16.25,6.81 16.25,7.22 L16.25,22 C16.25,22.41 15.91,22.75 15.5,22.75 Z"/>
  <path fill="#292D32" d="M8.299,7.85 L6.049,7.85 C5.759,7.85 5.509,7.69 5.379,7.43 C5.249,7.17 5.279,6.87 5.449,6.64 C5.639,6.39 5.749,6.07 5.749,5.74 L5.749,4.84 C5.749,4.52 5.639,4.2 5.449,3.94 C5.279,3.71 5.249,3.41 5.379,3.15 C5.509,2.9 5.769,2.73 6.049,2.73 L8.299,2.73 C9.709,2.73 10.849,3.87 10.849,5.28 C10.849,5.97 10.579,6.61 10.089,7.09 C9.629,7.58 8.989,7.85 8.299,7.85 Z M7.189,6.35 L8.299,6.35 C8.579,6.35 8.839,6.24 9.029,6.05 C9.239,5.85 9.349,5.59 9.349,5.3 C9.349,4.72 8.879,4.25 8.299,4.25 L7.189,4.25 C7.229,4.45 7.249,4.65 7.249,4.85 L7.249,5.75 C7.249,5.95 7.229,6.15 7.189,6.35 Z"/>
  <path fill="#292D32" d="M4.25,8.75 C3.59,8.75 2.71,8.54 1.79,7.72 C1.48,7.44 1.26,6.94 1.26,6.5 L1.26,4.16 C1.26,3.77 1.44,3.31 1.7,3.04 C2.63,2.07 3.59,1.86 4.23,1.85 C4.24,1.85 4.25,1.85 4.26,1.85 C5.05,1.85 5.83,2.17 6.38,2.73 C6.48,2.83 6.58,2.95 6.67,3.07 C7.04,3.56 7.25,4.2 7.25,4.85 L7.25,5.75 C7.25,6.4 7.04,7.04 6.65,7.55 C6.15,8.22 5.38,8.65 4.55,8.73 C4.46,8.74 4.35,8.75 4.25,8.75 Z M4.25,3.35 C4.24,3.35 4.24,3.35 4.23,3.35 C3.72,3.36 3.22,3.61 2.77,4.08 C2.77,4.08 2.75,4.15 2.75,4.18 L2.75,6.51 C2.75,6.53 2.78,6.6 2.8,6.63 C3.31,7.08 3.87,7.31 4.4,7.25 C4.82,7.21 5.19,7 5.45,6.66 C5.64,6.41 5.75,6.09 5.75,5.76 L5.75,4.86 C5.75,4.54 5.64,4.22 5.45,3.96 C5.4,3.88 5.35,3.84 5.31,3.79 C5.03,3.51 4.65,3.35 4.25,3.35 Z"/>
  <path fill="#292D32" d="M17.95,7.85 L15.7,7.85 C15.01,7.85 14.37,7.58 13.89,7.09 C13.42,6.63 13.15,5.99 13.15,5.3 C13.15,3.89 14.29,2.75 15.7,2.75 L17.95,2.75 C18.23,2.75 18.49,2.91 18.62,3.17 C18.75,3.42 18.72,3.73 18.55,3.96 C18.36,4.21 18.25,4.53 18.25,4.86 L18.25,5.76 C18.25,6.09 18.36,6.4 18.55,6.66 C18.72,6.89 18.75,7.19 18.62,7.45 C18.5,7.69 18.24,7.85 17.95,7.85 Z M15.7,4.25 C15.12,4.25 14.65,4.72 14.65,5.3 C14.65,5.58 14.76,5.84 14.95,6.03 C15.15,6.24 15.41,6.35 15.7,6.35 L16.81,6.35 C16.77,6.15 16.75,5.95 16.75,5.75 L16.75,4.85 C16.75,4.65 16.77,4.45 16.81,4.25 L15.7,4.25 Z"/>
  <path fill="#292D32" d="M19.75,8.75 C19.64,8.75 19.54,8.74 19.44,8.74 C18.61,8.66 17.85,8.23 17.34,7.56 C16.95,7.05 16.74,6.41 16.74,5.76 L16.74,4.86 C16.74,4.21 16.95,3.57 17.34,3.06 C17.41,2.96 17.51,2.84 17.61,2.74 C18.17,2.18 18.94,1.86 19.73,1.86 C19.74,1.86 19.75,1.86 19.76,1.86 C20.4,1.87 21.36,2.08 22.29,3.05 C22.55,3.32 22.73,3.78 22.73,4.17 L22.73,6.51 C22.73,6.95 22.51,7.45 22.2,7.72 C21.29,8.54 20.41,8.75 19.75,8.75 Z M19.75,3.35 C19.35,3.35 18.96,3.51 18.69,3.79 C18.65,3.83 18.61,3.88 18.57,3.93 C18.36,4.21 18.25,4.53 18.25,4.85 L18.25,5.75 C18.25,6.08 18.36,6.39 18.55,6.65 C18.81,6.99 19.18,7.2 19.6,7.25 C20.13,7.31 20.69,7.08 21.23,6.61 C21.23,6.61 21.25,6.54 21.26,6.51 L21.26,4.18 C21.26,4.16 21.23,4.09 21.22,4.07 C20.79,3.62 20.29,3.37 19.78,3.37 C19.76,3.35 19.76,3.35 19.75,3.35 Z"/>
  <path fill="#292D32" d="M8.5,19.75 C7.26,19.75 6.25,18.74 6.25,17.5 L6.25,13.5 C6.25,12.26 7.26,11.25 8.5,11.25 C9.74,11.25 10.75,12.26 10.75,13.5 L10.75,17.5 C10.75,18.74 9.74,19.75 8.5,19.75 Z M8.5,12.75 C8.09,12.75 7.75,13.09 7.75,13.5 L7.75,17.5 C7.75,17.91 8.09,18.25 8.5,18.25 C8.91,18.25 9.25,17.91 9.25,17.5 L9.25,13.5 C9.25,13.09 8.91,12.75 8.5,12.75 Z"/>
</svg>

