<svg xmlns="http://www.w3.org/2000/svg" width="24" height="24" viewBox="0 0 24 24">
  <defs/>
  <path fill="#292D32" opacity="0.4" d="M8.5,12.75 C8.09,12.75 7.75,12.41 7.75,12 L7.75,6 C7.75,5.59 8.09,5.25 8.5,5.25 C8.91,5.25 9.25,5.59 9.25,6 L9.25,12 C9.25,12.41 8.91,12.75 8.5,12.75 Z"/>
  <path fill="#292D32" opacity="0.4" d="M8.5,22.75 C8.09,22.75 7.75,22.41 7.75,22 L7.75,18 C7.75,17.59 8.09,17.25 8.5,17.25 C8.91,17.25 9.25,17.59 9.25,18 L9.25,22 C9.25,22.41 8.91,22.75 8.5,22.75 Z"/>
  <path fill="#292D32" d="M15.5,22.75 C15.09,22.75 14.75,22.41 14.75,22 L14.75,6 C14.75,5.59 15.09,5.25 15.5,5.25 C15.91,5.25 16.25,5.59 16.25,6 L16.25,22 C16.25,22.41 15.91,22.75 15.5,22.75 Z"/>
  <path fill="#292D32" d="M10.101,5.3 C10.101,5.79 9.901,6.25 9.571,6.57 C9.251,6.9 8.801,7.1 8.301,7.1 L6.051,7.1 C6.331,6.73 6.501,6.25 6.501,5.75 L6.501,4.85 C6.501,4.35 6.331,3.87 6.051,3.5 L8.301,3.5 C9.291,3.5 10.101,4.31 10.101,5.3 Z"/>
  <path fill="#292D32" d="M6.5,4.85 L6.5,5.75 C6.5,6.25 6.33,6.73 6.05,7.1 C5.29,8.11 3.73,8.45 2.28,7.16 C2.12,7.02 2,6.72 2,6.5 L2,4.16 C2,3.97 2.1,3.69 2.23,3.55 C3.49,2.23 5.01,2.42 5.84,3.25 C5.91,3.32 5.98,3.4 6.05,3.49 C6.33,3.87 6.5,4.35 6.5,4.85 Z"/>
  <path fill="#292D32" d="M13.9,5.3 C13.9,5.79 14.1,6.25 14.43,6.57 C14.75,6.9 15.2,7.1 15.7,7.1 L17.95,7.1 C17.67,6.73 17.5,6.25 17.5,5.75 L17.5,4.85 C17.5,4.35 17.67,3.87 17.95,3.5 L15.7,3.5 C14.71,3.5 13.9,4.31 13.9,5.3 Z"/>
  <path fill="#292D32" d="M17.5,4.85 L17.5,5.75 C17.5,6.25 17.67,6.73 17.95,7.1 C18.71,8.11 20.27,8.45 21.72,7.16 C21.88,7.02 22,6.72 22,6.5 L22,4.16 C22,3.97 21.9,3.69 21.77,3.55 C20.51,2.23 18.99,2.42 18.16,3.25 C18.09,3.32 18.02,3.4 17.95,3.49 C17.67,3.87 17.5,4.35 17.5,4.85 Z"/>
  <path fill="#292D32" d="M10,13.5 L10,17.5 C10,18.33 9.33,19 8.5,19 C7.67,19 7,18.33 7,17.5 L7,13.5 C7,12.67 7.67,12 8.5,12 C9.33,12 10,12.67 10,13.5 Z"/>
</svg>

