<svg xmlns="http://www.w3.org/2000/svg" width="24" height="24" viewBox="0 0 24 24">
  <defs/>
  <path fill="#292D32" d="M5.57,22.7 C3.23,22.7 1.25,20.72 1.25,18.38 L1.25,12.22 C1.2,9.3 2.28,6.55 4.3,4.49 C6.32,2.44 9.03,1.3 11.95,1.3 C17.91,1.3 22.75,6.15 22.75,12.1 L22.75,18.26 C22.75,20.64 20.81,22.58 18.43,22.58 C16.09,22.58 14.11,20.6 14.11,18.26 L14.11,15.45 C14.11,14 15.25,12.86 16.7,12.86 C18.15,12.86 19.29,14 19.29,15.45 L19.29,18.48 C19.29,18.89 18.95,19.23 18.54,19.23 C18.13,19.23 17.79,18.89 17.79,18.48 L17.79,15.45 C17.79,14.77 17.24,14.36 16.7,14.36 C16.02,14.36 15.61,14.91 15.61,15.45 L15.61,18.26 C15.61,19.79 16.9,21.08 18.43,21.08 C19.96,21.08 21.25,19.79 21.25,18.26 L21.25,12.1 C21.25,6.97 17.08,2.8 11.95,2.8 C9.44,2.8 7.11,3.77 5.37,5.54 C3.63,7.31 2.7,9.68 2.75,12.2 L2.75,18.38 C2.75,19.91 4.04,21.2 5.57,21.2 C7.1,21.2 8.39,19.91 8.39,18.38 L8.39,15.57 C8.39,14.89 7.84,14.48 7.3,14.48 C6.62,14.48 6.21,15.03 6.21,15.57 L6.21,18.49 C6.21,18.9 5.87,19.24 5.46,19.24 C5.05,19.24 4.71,18.9 4.71,18.49 L4.71,15.57 C4.71,14.12 5.85,12.98 7.3,12.98 C8.75,12.98 9.89,14.12 9.89,15.57 L9.89,18.38 C9.89,20.72 7.91,22.7 5.57,22.7 Z"/>
</svg>

