<svg xmlns="http://www.w3.org/2000/svg" width="24" height="24" viewBox="0 0 24 24">
  <defs/>
  <path fill="#292D32" d="M1.25,12.235 Q1.162,7.703 4.29,4.503 Q7.421,1.3 11.95,1.3 Q16.458,1.3 19.615,4.486 Q22.75,7.649 22.75,12.11 L22.75,18.27 Q22.75,20.043 21.477,21.317 Q20.203,22.59 18.43,22.59 Q16.657,22.59 15.383,21.317 Q14.11,20.043 14.11,18.27 L14.11,15.46 Q14.11,14.411 14.834,13.657 Q15.589,12.87 16.7,12.87 Q19.29,12.87 19.29,15.46 L19.29,18.49 Q19.29,18.801 19.07,19.02 Q18.851,19.24 18.54,19.24 Q18.229,19.24 18.01,19.02 Q17.79,18.801 17.79,18.49 L17.79,15.46 Q17.79,14.988 17.465,14.676 Q17.145,14.37 16.7,14.37 Q16.228,14.37 15.916,14.695 Q15.61,15.015 15.61,15.46 L15.61,18.27 Q15.61,19.422 16.444,20.256 Q17.278,21.09 18.43,21.09 Q19.582,21.09 20.416,20.256 Q21.25,19.422 21.25,18.27 L21.25,12.11 Q21.25,8.266 18.55,5.542 Q15.832,2.8 11.95,2.8 Q8.053,2.8 5.363,5.552 Q2.674,8.303 2.75,12.205 Q2.756,12.516 2.541,12.74 Q2.325,12.964 2.015,12.97 Q1.704,12.976 1.48,12.761 Q1.256,12.545 1.25,12.235 Z"/>
  <path fill="#292D32" d="M4.71,18.49 L4.71,15.57 Q4.71,12.98 7.3,12.98 Q9.89,12.98 9.89,15.57 L9.89,18.38 Q9.89,20.153 8.617,21.427 Q7.343,22.7 5.57,22.7 Q3.798,22.7 2.523,21.422 Q1.25,20.147 1.25,18.38 L1.25,16 Q1.25,15.689 1.47,15.47 Q1.689,15.25 2,15.25 Q2.311,15.25 2.53,15.47 Q2.75,15.689 2.75,16 L2.75,18.38 Q2.75,21.2 5.57,21.2 Q6.722,21.2 7.556,20.366 Q8.39,19.532 8.39,18.38 L8.39,15.57 Q8.39,15.098 8.065,14.786 Q7.745,14.48 7.3,14.48 Q6.21,14.48 6.21,15.57 L6.21,18.49 Q6.21,18.801 5.99,19.02 Q5.771,19.24 5.46,19.24 Q5.149,19.24 4.93,19.02 Q4.71,18.801 4.71,18.49 Z"/>
</svg>

