<svg xmlns="http://www.w3.org/2000/svg" width="24" height="24" viewBox="0 0 24 24">
  <defs/>
  <path fill="#292D32" d="M8.5,12.75 C8.09,12.75 7.75,12.41 7.75,12 L7.75,6 C7.75,5.59 8.09,5.25 8.5,5.25 C8.91,5.25 9.25,5.59 9.25,6 L9.25,12 C9.25,12.41 8.91,12.75 8.5,12.75 Z"/>
  <path fill="#292D32" d="M8.5,22.75 C8.09,22.75 7.75,22.41 7.75,22 L7.75,18 C7.75,17.59 8.09,17.25 8.5,17.25 C8.91,17.25 9.25,17.59 9.25,18 L9.25,22 C9.25,22.41 8.91,22.75 8.5,22.75 Z"/>
  <path fill="#292D32" d="M15.5,22.75 C15.09,22.75 14.75,22.41 14.75,22 L14.75,6 C14.75,5.59 15.09,5.25 15.5,5.25 C15.91,5.25 16.25,5.59 16.25,6 L16.25,22 C16.25,22.41 15.91,22.75 15.5,22.75 Z"/>
  <path fill="#292D32" d="M10.101,5.3 C10.101,5.79 9.901,6.24 9.571,6.57 C9.241,6.9 8.791,7.1 8.301,7.1 L6.051,7.1 C6.331,6.73 6.501,6.25 6.501,5.75 L6.501,4.85 C6.501,4.35 6.331,3.87 6.051,3.5 L8.301,3.5 C9.291,3.5 10.101,4.31 10.101,5.3 Z"/>
  <path fill="#292D32" d="M6.5,4.848 L6.5,5.748 C6.5,6.248 6.33,6.728 6.05,7.098 C5.29,8.108 3.73,8.448 2.28,7.158 C2.12,7.018 2,6.718 2,6.508 L2,4.168 C2,3.968 2.1,3.698 2.23,3.558 C3.49,2.238 5.01,2.428 5.84,3.258 C5.91,3.328 5.99,3.408 6.05,3.498 C6.33,3.868 6.5,4.348 6.5,4.848 Z"/>
  <path fill="#292D32" d="M13.9,5.3 C13.9,5.79 14.1,6.24 14.43,6.57 C14.76,6.9 15.21,7.1 15.7,7.1 L17.95,7.1 C17.67,6.73 17.5,6.25 17.5,5.75 L17.5,4.85 C17.5,4.35 17.67,3.87 17.95,3.5 L15.7,3.5 C14.71,3.5 13.9,4.31 13.9,5.3 Z"/>
  <path fill="#292D32" d="M17.5,4.848 L17.5,5.748 C17.5,6.248 17.67,6.728 17.95,7.098 C18.71,8.108 20.27,8.448 21.72,7.158 C21.88,7.018 22,6.718 22,6.508 L22,4.168 C22,3.978 21.9,3.698 21.77,3.558 C20.51,2.238 18.99,2.428 18.16,3.258 C18.09,3.328 18.02,3.408 17.95,3.498 C17.67,3.868 17.5,4.348 17.5,4.848 Z"/>
  <path fill="#292D32" d="M10,13.5 L10,17.5 C10,18.33 9.33,19 8.5,19 C7.67,19 7,18.33 7,17.5 L7,13.5 C7,12.67 7.67,12 8.5,12 C9.33,12 10,12.67 10,13.5 Z"/>
</svg>

