<svg xmlns="http://www.w3.org/2000/svg" width="24" height="24" viewBox="0 0 24 24">
  <defs/>
  <path fill="#292D32" d="M7.75,12 L7.75,7.22 Q7.75,6.909 7.97,6.69 Q8.189,6.47 8.5,6.47 Q8.811,6.47 9.03,6.69 Q9.25,6.909 9.25,7.22 L9.25,12 Q9.25,12.311 9.03,12.53 Q8.811,12.75 8.5,12.75 Q8.189,12.75 7.97,12.53 Q7.75,12.311 7.75,12 Z"/>
  <path fill="#292D32" d="M7.75,22 L7.75,19 Q7.75,18.689 7.97,18.47 Q8.189,18.25 8.5,18.25 Q8.811,18.25 9.03,18.47 Q9.25,18.689 9.25,19 L9.25,22 Q9.25,22.311 9.03,22.53 Q8.811,22.75 8.5,22.75 Q8.189,22.75 7.97,22.53 Q7.75,22.311 7.75,22 Z"/>
  <path fill="#292D32" d="M14.75,22 L14.75,7.22 Q14.75,6.909 14.97,6.69 Q15.189,6.47 15.5,6.47 Q15.811,6.47 16.03,6.69 Q16.25,6.909 16.25,7.22 L16.25,22 Q16.25,22.311 16.03,22.53 Q15.811,22.75 15.5,22.75 Q15.189,22.75 14.97,22.53 Q14.75,22.311 14.75,22 Z"/>
  <path fill="#292D32" d="M10.85,5.3 Q10.85,6.368 10.1,7.1 Q9.368,7.85 8.3,7.85 L6.05,7.85 Q5.739,7.85 5.52,7.63 Q5.3,7.411 5.3,7.1 Q5.3,6.848 5.452,6.647 Q5.75,6.254 5.75,5.75 L5.75,4.85 Q5.75,4.346 5.452,3.953 Q5.265,3.705 5.307,3.397 Q5.35,3.089 5.597,2.902 Q5.798,2.75 6.05,2.75 L8.3,2.75 Q10.85,2.75 10.85,5.3 Z M9.35,5.3 Q9.35,4.25 8.3,4.25 L7.193,4.25 Q7.25,4.54 7.25,4.85 L7.25,5.75 Q7.25,6.06 7.193,6.35 L8.3,6.35 Q8.739,6.35 9.032,6.048 Q9.04,6.04 9.048,6.032 Q9.35,5.739 9.35,5.3 Z"/>
  <path fill="#292D32" d="M7.25,4.85 L7.25,5.75 Q7.25,6.757 6.648,7.553 Q5.831,8.639 4.48,8.74 Q3.049,8.848 1.781,7.72 Q1.25,7.255 1.25,6.5 L1.25,4.16 Q1.25,3.503 1.68,3.04 Q2.793,1.874 4.18,1.844 Q5.467,1.816 6.37,2.72 Q6.508,2.858 6.642,3.03 Q6.648,3.037 6.654,3.045 Q7.25,3.854 7.25,4.85 Z M5.75,4.85 Q5.75,4.352 5.452,3.943 Q5.379,3.849 5.31,3.78 Q4.859,3.33 4.212,3.344 Q3.448,3.36 2.78,4.06 Q2.75,4.092 2.75,4.16 L2.75,6.5 Q2.75,6.575 2.779,6.6 Q3.571,7.304 4.368,7.245 Q5.041,7.194 5.452,6.647 Q5.75,6.254 5.75,5.75 Z"/>
  <path fill="#292D32" d="M13.15,5.3 Q13.15,2.75 15.7,2.75 L17.95,2.75 Q18.202,2.75 18.402,2.902 Q18.65,3.089 18.693,3.397 Q18.735,3.705 18.548,3.953 Q18.25,4.346 18.25,4.85 L18.25,5.75 Q18.25,6.254 18.548,6.647 Q18.7,6.848 18.7,7.1 Q18.7,7.411 18.48,7.63 Q18.261,7.85 17.95,7.85 L15.7,7.85 Q14.632,7.85 13.9,7.1 Q13.15,6.368 13.15,5.3 Z M14.65,5.3 Q14.65,5.739 14.952,6.032 Q14.96,6.04 14.968,6.048 Q15.261,6.35 15.7,6.35 L16.807,6.35 Q16.75,6.06 16.75,5.75 L16.75,4.85 Q16.75,4.54 16.807,4.25 L15.7,4.25 Q14.65,4.25 14.65,5.3 Z"/>
  <path fill="#292D32" d="M16.75,4.85 Q16.75,3.854 17.346,3.045 Q17.352,3.037 17.358,3.03 Q17.492,2.858 17.63,2.72 Q18.533,1.816 19.82,1.844 Q21.207,1.874 22.32,3.04 Q22.75,3.503 22.75,4.16 L22.75,6.5 Q22.75,7.255 22.219,7.72 Q20.951,8.848 19.52,8.74 Q18.169,8.639 17.352,7.553 Q16.75,6.757 16.75,5.75 Z M18.25,4.85 L18.25,5.75 Q18.25,6.254 18.548,6.647 Q18.959,7.194 19.632,7.245 Q20.429,7.304 21.221,6.6 Q21.25,6.575 21.25,6.5 L21.25,4.16 Q21.25,4.092 21.22,4.06 Q20.552,3.36 19.788,3.344 Q19.141,3.33 18.69,3.78 Q18.621,3.85 18.548,3.943 Q18.25,4.352 18.25,4.85 Z"/>
  <path fill="#292D32" d="M10.75,13.5 L10.75,17.5 Q10.75,19.75 8.5,19.75 Q6.25,19.75 6.25,17.5 L6.25,13.5 Q6.25,11.25 8.5,11.25 Q10.75,11.25 10.75,13.5 Z M9.25,13.5 Q9.25,12.75 8.5,12.75 Q7.75,12.75 7.75,13.5 L7.75,17.5 Q7.75,18.25 8.5,18.25 Q9.25,18.25 9.25,17.5 Z"/>
</svg>

