<svg xmlns="http://www.w3.org/2000/svg" width="24" height="24" viewBox="0 0 24 24">
  <defs/>
  <path fill="#292D32" d="M22,7.81 L22,12.5 L17.92,12.5 C17.8,12.49 17.54,12.34 17.48,12.23 L16.44,10.26 C16.03,9.48 15.32,9.04 14.56,9.08 C13.8,9.12 13.15,9.63 12.82,10.46 L11.44,13.92 L11.24,13.4 C10.75,12.13 9.35,11.17 7.97,11.17 L2,11.2 L2,7.81 C2,4.17 4.17,2 7.81,2 L16.19,2 C19.83,2 22,4.17 22,7.81 Z"/>
  <path fill="#292D32" d="M22,16.189 L22,13.999 L17.92,13.999 C17.25,13.999 16.46,13.519 16.15,12.929 L15.11,10.959 C14.83,10.429 14.43,10.459 14.21,11.009 L11.91,16.819 C11.66,17.469 11.24,17.469 10.98,16.819 L9.84,13.939 C9.57,13.239 8.73,12.669 7.98,12.669 L2,12.699 L2,16.189 C2,19.769 4.1,21.929 7.63,21.989 C7.74,21.999 7.86,21.999 7.97,21.999 L15.97,21.999 C16.12,21.999 16.27,21.999 16.41,21.989 C19.92,21.909 22,19.759 22,16.189 Z"/>
  <path fill="#292D32" d="M2.001,12.699 L2.001,16.009 C1.981,15.689 1.971,15.349 1.971,14.999 L1.971,12.699 L2.001,12.699 Z"/>
</svg>

