<svg xmlns="http://www.w3.org/2000/svg" width="24" height="24" viewBox="0 0 24 24">
  <defs/>
  <path fill="#292D32" d="M8.97,22.75 Q1.22,22.75 1.22,15 L1.22,9 Q1.22,1.25 8.97,1.25 L14.97,1.25 Q19.031,1.25 20.875,3.095 Q22.72,4.939 22.72,9 L22.72,15 Q22.72,19.061 20.875,20.905 Q19.031,22.75 14.97,22.75 Z M8.97,21.25 L14.97,21.25 Q18.409,21.25 19.815,19.845 Q21.22,18.439 21.22,15 L21.22,9 Q21.22,5.561 19.815,4.155 Q18.409,2.75 14.97,2.75 L8.97,2.75 Q2.72,2.75 2.72,9 L2.72,15 Q2.72,18.439 4.125,19.845 Q5.531,21.25 8.97,21.25 Z"/>
  <path fill="#292D32" d="M1.967,11.95 L7.967,11.93 Q9.84,11.93 10.536,13.672 L11.445,15.966 L13.502,10.745 Q13.843,9.877 14.593,9.837 Q15.339,9.798 15.773,10.62 L16.813,12.59 Q17.165,13.26 17.92,13.26 L21.98,13.26 Q22.291,13.26 22.51,13.48 Q22.73,13.699 22.73,14.01 Q22.73,14.321 22.51,14.54 Q22.291,14.76 21.98,14.76 L17.92,14.76 Q16.259,14.76 15.487,13.29 L14.699,11.799 L12.606,17.109 Q12.223,18.068 11.445,18.068 Q10.667,18.068 10.283,17.106 L9.144,14.229 Q8.824,13.43 7.972,13.43 L1.972,13.45 Q1.662,13.451 1.441,13.232 Q1.221,13.013 1.22,12.703 Q1.219,12.392 1.438,12.172 Q1.657,11.951 1.967,11.95 Z"/>
</svg>

