<svg xmlns="http://www.w3.org/2000/svg" width="24" height="24" viewBox="0 0 24 24">
  <defs/>
  <path fill="#292D32" opacity="0.4" d="M22,7.81 L22,14 L17.92,14 C17.25,14 16.46,13.52 16.15,12.93 L15.11,10.96 C14.83,10.43 14.43,10.46 14.21,11.01 L11.91,16.82 C11.66,17.47 11.24,17.47 10.98,16.82 L9.84,13.94 C9.57,13.24 8.73,12.67 7.98,12.67 L2,12.7 L2,7.81 C2,4.17 4.17,2 7.81,2 L16.19,2 C19.83,2 22,4.17 22,7.81 Z"/>
  <path fill="#292D32" d="M22,16.19 L22,14 L17.92,14 C17.25,14 16.46,13.52 16.15,12.93 L15.11,10.96 C14.83,10.43 14.43,10.46 14.21,11.01 L11.91,16.82 C11.66,17.47 11.24,17.47 10.98,16.82 L9.84,13.94 C9.57,13.24 8.73,12.67 7.98,12.67 L2,12.7 L2,16.19 C2,19.77 4.1,21.93 7.63,21.99 C7.74,22 7.86,22 7.97,22 L15.97,22 C16.12,22 16.27,22 16.41,21.99 C19.92,21.91 22,19.76 22,16.19 Z"/>
  <path fill="#292D32" d="M2.001,12.7 L2.001,16.01 C1.981,15.69 1.971,15.35 1.971,15 L1.971,12.7 L2.001,12.7 Z"/>
</svg>

