<svg xmlns="http://www.w3.org/2000/svg" width="24" height="24" viewBox="0 0 24 24">
  <defs/>
  <path fill="#292D32" d="M14.97,22.75 L8.97,22.75 C3.54,22.75 1.22,20.43 1.22,15 L1.22,9 C1.22,3.57 3.54,1.25 8.97,1.25 L14.97,1.25 C20.4,1.25 22.72,3.57 22.72,9 L22.72,15 C22.72,20.43 20.41,22.75 14.97,22.75 Z M8.97,2.75 C4.36,2.75 2.72,4.39 2.72,9 L2.72,15 C2.72,19.61 4.36,21.25 8.97,21.25 L14.97,21.25 C19.58,21.25 21.22,19.61 21.22,15 L21.22,9 C21.22,4.39 19.58,2.75 14.97,2.75 L8.97,2.75 Z"/>
  <path fill="#292D32" d="M11.45,18.06 C11.21,18.06 10.63,17.97 10.29,17.1 L9.15,14.22 C8.99,13.81 8.42,13.43 7.99,13.43 L1.99,13.45 C1.58,13.45 1.24,13.12 1.24,12.7 C1.24,12.29 1.57,11.95 1.99,11.95 L7.99,11.93 L8,11.93 C9.05,11.93 10.17,12.69 10.56,13.67 L11.47,15.97 L13.53,10.75 C13.84,9.97 14.39,9.86 14.62,9.84 C14.85,9.83 15.41,9.88 15.8,10.62 L16.84,12.59 C17.02,12.93 17.56,13.26 17.95,13.26 L22.01,13.26 C22.42,13.26 22.76,13.6 22.76,14.01 C22.76,14.42 22.42,14.76 22.01,14.76 L17.95,14.76 C17,14.76 15.96,14.13 15.52,13.29 L14.74,11.81 L12.64,17.1 C12.27,17.96 11.68,18.06 11.45,18.06 Z"/>
</svg>

