<svg xmlns="http://www.w3.org/2000/svg" width="24" height="24" viewBox="0 0 24 24">
  <defs/>
  <path fill="#292D32" d="M8.971,2.75 Q2.721,2.75 2.721,9 L2.721,15 Q2.721,18.439 4.126,19.845 Q5.531,21.25 8.971,21.25 L14.971,21.25 Q21.221,21.25 21.221,15 L21.221,9 Q21.221,5.561 19.815,4.155 Q18.41,2.75 14.971,2.75 L12.971,2.75 Q12.66,2.75 12.44,2.53 Q12.221,2.311 12.221,2 Q12.221,1.689 12.44,1.47 Q12.66,1.25 12.971,1.25 L14.971,1.25 Q22.721,1.25 22.721,9 L22.721,15 Q22.721,19.061 20.876,20.905 Q19.031,22.75 14.971,22.75 L8.971,22.75 Q1.221,22.75 1.221,15 L1.221,9 Q1.221,1.25 8.971,1.25 Q9.281,1.25 9.501,1.47 Q9.721,1.689 9.721,2 Q9.721,2.311 9.501,2.53 Q9.281,2.75 8.971,2.75 Z"/>
  <path fill="#292D32" d="M1.968,11.95 L7.968,11.93 Q9.84,11.93 10.537,13.672 L11.445,15.966 L13.503,10.745 Q13.844,9.877 14.593,9.837 Q15.34,9.798 15.774,10.62 L16.814,12.59 Q17.166,13.26 17.921,13.26 L21.981,13.26 Q22.291,13.26 22.511,13.48 Q22.731,13.699 22.731,14.01 Q22.731,14.321 22.511,14.54 Q22.291,14.76 21.981,14.76 L17.921,14.76 Q16.26,14.76 15.487,13.29 L14.7,11.799 L12.607,17.109 Q12.223,18.068 11.446,18.068 Q10.668,18.068 10.283,17.106 L9.144,14.229 Q8.825,13.43 7.973,13.43 L1.973,13.45 Q1.663,13.451 1.442,13.232 Q1.222,13.013 1.221,12.703 Q1.22,12.392 1.439,12.172 Q1.658,11.951 1.968,11.95 Z"/>
</svg>

