<svg xmlns="http://www.w3.org/2000/svg" width="24" height="24" viewBox="0 0 24 24">
  <defs/>
  <path fill="#292D32" d="M20.774,11.775 Q21.25,10.259 21.25,8.69 Q21.25,6.683 19.84,5.265 Q18.431,3.85 16.44,3.85 Q14.041,3.85 12.602,5.787 Q12.417,6.037 12.11,6.082 Q11.802,6.127 11.553,5.942 Q11.464,5.876 11.398,5.787 Q9.959,3.85 7.56,3.85 Q5.569,3.85 4.16,5.265 Q2.75,6.683 2.75,8.69 Q2.75,13.006 6.139,16.481 Q8.694,19.101 11.624,20.111 Q11.763,20.16 12,20.16 Q12.311,20.16 12.53,20.38 Q12.75,20.599 12.75,20.91 Q12.75,21.221 12.53,21.44 Q12.311,21.66 12,21.66 Q11.507,21.66 11.136,21.529 Q7.869,20.403 5.066,17.529 Q1.25,13.617 1.25,8.69 Q1.25,6.064 3.097,4.207 Q4.945,2.35 7.56,2.35 Q10.235,2.35 12,4.18 Q13.765,2.35 16.44,2.35 Q19.055,2.35 20.903,4.207 Q22.75,6.064 22.75,8.69 Q22.75,10.489 22.206,12.225 Q22.113,12.521 21.837,12.665 Q21.562,12.809 21.265,12.716 Q20.969,12.623 20.825,12.347 Q20.681,12.072 20.774,11.775 Z"/>
  <path fill="#292D32" d="M17.74,21.75 Q15.765,21.75 14.778,20.763 Q13.79,19.775 13.79,17.8 Q13.79,16.164 14.947,15.007 Q16.104,13.85 17.74,13.85 Q21.69,13.85 21.69,17.8 Q21.69,21.75 17.74,21.75 Z M17.74,20.25 Q20.19,20.25 20.19,17.8 Q20.19,15.35 17.74,15.35 Q16.725,15.35 16.008,16.068 Q15.29,16.785 15.29,17.8 Q15.29,19.025 15.902,19.637 Q16.515,20.25 17.74,20.25 Z"/>
  <path fill="#292D32" d="M21.01,22.13 L20.01,21.13 Q19.79,20.911 19.79,20.6 Q19.79,20.289 20.01,20.07 Q20.229,19.85 20.54,19.85 Q20.851,19.85 21.07,20.07 L22.07,21.07 Q22.29,21.289 22.29,21.6 Q22.29,21.911 22.07,22.13 Q21.851,22.35 21.54,22.35 Q21.229,22.35 21.01,22.13 Z"/>
</svg>

