<svg xmlns="http://www.w3.org/2000/svg" width="24" height="24" viewBox="0 0 24 24">
  <defs/>
  <path fill="#292D32" opacity="0.4" d="M20.774,11.776 Q21.25,10.26 21.25,8.69 Q21.25,6.683 19.84,5.265 Q18.431,3.85 16.44,3.85 Q14.041,3.85 12.602,5.787 Q12.417,6.037 12.11,6.082 Q11.802,6.127 11.553,5.942 Q11.464,5.876 11.398,5.787 Q9.959,3.85 7.56,3.85 Q5.569,3.85 4.16,5.265 Q2.75,6.683 2.75,8.69 Q2.75,13.007 6.139,16.481 Q8.694,19.101 11.624,20.111 Q11.763,20.16 12,20.16 Q12.311,20.16 12.53,20.38 Q12.75,20.599 12.75,20.91 Q12.75,21.221 12.53,21.44 Q12.311,21.66 12,21.66 Q11.507,21.66 11.136,21.529 Q7.869,20.403 5.066,17.529 Q1.25,13.617 1.25,8.69 Q1.25,6.064 3.097,4.207 Q4.945,2.35 7.56,2.35 Q10.235,2.35 12,4.18 Q13.765,2.35 16.44,2.35 Q19.055,2.35 20.903,4.207 Q22.75,6.064 22.75,8.69 Q22.75,10.489 22.206,12.225 Q22.113,12.521 21.837,12.665 Q21.562,12.809 21.265,12.716 Q20.969,12.623 20.825,12.347 Q20.681,12.072 20.774,11.776 Z"/>
  <path fill="#292D32" d="M18.679,15.21 Q19.385,14.503 20.132,14.426 Q21.079,14.329 21.949,15.2 Q23.59,16.84 21.949,18.48 L18.418,22.012 Q18.019,22.434 17.394,22.533 L16.045,22.722 Q15.306,22.828 14.819,22.34 Q14.331,21.853 14.436,21.115 L14.628,19.753 Q14.721,19.168 15.139,18.75 Z M19.739,16.27 L16.199,19.81 Q16.126,19.884 16.11,19.987 L15.936,21.223 L17.185,21.047 Q17.281,21.032 17.33,20.98 Q17.339,20.969 17.349,20.96 L20.889,17.42 Q21.468,16.84 20.889,16.26 Q20.609,15.98 20.327,15.978 Q20.034,15.975 19.739,16.27 Z"/>
  <path fill="#292D32" d="M19.422,16.049 Q19.791,17.378 21.12,17.747 Q21.419,17.831 21.572,18.101 Q21.725,18.371 21.642,18.671 Q21.559,18.97 21.288,19.123 Q21.018,19.276 20.718,19.193 Q18.573,18.597 17.977,16.451 Q17.893,16.151 18.046,15.881 Q18.199,15.611 18.498,15.527 Q18.798,15.444 19.068,15.597 Q19.339,15.75 19.422,16.049 Z"/>
</svg>

