<svg xmlns="http://www.w3.org/2000/svg" width="24" height="24" viewBox="0 0 24 24">
  <defs/>
  <path fill="#292D32" d="M22.001,8.691 C22.001,9.881 21.811,10.981 21.481,12.001 C19.901,17.001 15.031,19.991 12.621,20.811 C12.281,20.931 11.721,20.931 11.381,20.811 C10.741,20.591 9.931,20.221 9.061,19.701 C8.501,19.371 8.411,18.591 8.871,18.131 L20.151,6.851 C20.691,6.311 21.641,6.541 21.831,7.281 C21.941,7.731 22.001,8.201 22.001,8.691 Z"/>
  <path fill="#292D32" d="M22.529,1.471 C22.239,1.181 21.759,1.181 21.47,1.471 L19.13,3.811 C18.34,3.361 17.419,3.101 16.439,3.101 C14.63,3.101 13.009,3.981 11.999,5.331 C10.989,3.981 9.369,3.101 7.559,3.101 C4.489,3.101 1.999,5.601 1.999,8.691 C1.999,9.881 2.189,10.981 2.519,12.001 C3.169,14.071 4.389,15.801 5.769,17.171 L1.469,21.471 C1.179,21.761 1.179,22.241 1.469,22.531 C1.619,22.681 1.809,22.751 1.999,22.751 C2.189,22.751 2.379,22.681 2.529,22.531 L22.529,2.531 C22.82,2.241 22.82,1.761 22.529,1.471 Z"/>
</svg>

