<svg xmlns="http://www.w3.org/2000/svg" width="24" height="24" viewBox="0 0 24 24">
  <defs/>
  <path fill="#292D32" d="M12,21.65 Q11.507,21.65 11.13,21.517 Q7.874,20.406 5.066,17.526 Q1.25,13.614 1.25,8.68 Q1.25,6.308 2.793,4.529 Q2.997,4.294 3.307,4.272 Q3.617,4.25 3.851,4.453 Q4.086,4.657 4.108,4.967 Q4.13,5.277 3.927,5.511 Q2.75,6.868 2.75,8.68 Q2.75,13.004 6.139,16.479 Q8.698,19.102 11.63,20.103 Q11.763,20.15 12,20.15 Q12.311,20.15 12.53,20.37 Q12.75,20.589 12.75,20.9 Q12.75,21.211 12.53,21.43 Q12.311,21.65 12,21.65 Z"/>
  <path fill="#292D32" d="M20.775,11.775 Q21.25,10.259 21.25,8.69 Q21.25,6.683 19.84,5.265 Q18.432,3.85 16.441,3.85 Q14.041,3.85 12.603,5.787 Q12.417,6.037 12.11,6.082 Q11.803,6.127 11.553,5.942 Q11.464,5.876 11.398,5.787 Q9.96,3.85 7.561,3.85 Q7.25,3.85 7.03,3.63 Q6.811,3.411 6.811,3.1 Q6.811,2.789 7.03,2.57 Q7.25,2.35 7.561,2.35 Q10.236,2.35 12,4.18 Q13.765,2.35 16.441,2.35 Q19.055,2.35 20.903,4.207 Q22.751,6.064 22.75,8.69 Q22.75,10.489 22.206,12.225 Q22.113,12.521 21.838,12.665 Q21.562,12.809 21.266,12.716 Q20.97,12.623 20.826,12.347 Q20.682,12.072 20.775,11.775 Z"/>
  <path fill="#292D32" d="M17.739,21.75 Q16.103,21.75 14.946,20.593 Q13.789,19.436 13.789,17.8 Q13.789,13.85 17.739,13.85 Q19.375,13.85 20.532,15.007 Q21.689,16.164 21.689,17.8 Q21.689,19.436 20.532,20.593 Q19.375,21.75 17.739,21.75 Z M17.739,20.25 Q20.189,20.25 20.189,17.8 Q20.189,16.785 19.472,16.068 Q18.754,15.35 17.739,15.35 Q15.289,15.35 15.289,17.8 Q15.289,20.25 17.739,20.25 Z"/>
  <path fill="#292D32" d="M21.009,22.13 L20.009,21.13 Q19.789,20.911 19.789,20.6 Q19.789,20.289 20.009,20.07 Q20.228,19.85 20.539,19.85 Q20.85,19.85 21.069,20.07 L22.069,21.07 Q22.289,21.289 22.289,21.6 Q22.289,21.911 22.069,22.13 Q21.85,22.35 21.539,22.35 Q21.228,22.35 21.009,22.13 Z"/>
</svg>

