<svg xmlns="http://www.w3.org/2000/svg" width="24" height="24" viewBox="0 0 24 24">
  <defs/>
  <path fill="#292D32" d="M17.2,22.75 C14.14,22.75 11.65,20.26 11.65,17.2 C11.65,14.14 14.14,11.65 17.2,11.65 C20.26,11.65 22.75,14.14 22.75,17.2 C22.75,20.26 20.26,22.75 17.2,22.75 Z M17.2,13.15 C14.97,13.15 13.15,14.97 13.15,17.2 C13.15,19.43 14.97,21.25 17.2,21.25 C19.43,21.25 21.25,19.43 21.25,17.2 C21.25,14.97 19.43,13.15 17.2,13.15 Z"/>
  <path fill="#292D32" d="M18.99,18.01 L15.4,18.01 C14.99,18.01 14.65,17.67 14.65,17.26 C14.65,16.85 14.99,16.51 15.4,16.51 L18.99,16.51 C19.4,16.51 19.74,16.85 19.74,17.26 C19.74,17.67 19.41,18.01 18.99,18.01 Z"/>
  <path fill="#292D32" d="M17.199,19.85 C16.789,19.85 16.449,19.51 16.449,19.1 L16.449,15.51 C16.449,15.1 16.789,14.76 17.199,14.76 C17.609,14.76 17.949,15.1 17.949,15.51 L17.949,19.1 C17.949,19.51 17.609,19.85 17.199,19.85 Z"/>
  <path fill="#292D32" d="M12,21.65 C11.69,21.65 11.38,21.61 11.13,21.52 C8.57,20.65 1.25,16.41 1.25,8.69 C1.25,5.19 4.08,2.35 7.56,2.35 C9.23,2.35 10.83,3.02 12,4.19 C13.17,3.02 14.78,2.35 16.44,2.35 C19.92,2.35 22.75,5.19 22.75,8.69 C22.75,10.64 22.28,12.51 21.35,14.26 C21.24,14.47 21.03,14.62 20.79,14.65 C20.54,14.68 20.31,14.6 20.14,14.42 C19.36,13.6 18.31,13.14 17.19,13.14 C14.96,13.14 13.14,14.96 13.14,17.19 C13.14,18.18 13.51,19.14 14.18,19.89 C14.34,20.07 14.4,20.31 14.35,20.54 C14.3,20.77 14.14,20.97 13.93,21.07 C13.53,21.25 13.17,21.4 12.84,21.51 C12.61,21.61 12.31,21.65 12,21.65 Z M7.56,3.85 C4.91,3.85 2.75,6.02 2.75,8.69 C2.75,15.53 9.32,19.31 11.62,20.1 C11.8,20.17 12.19,20.16 12.37,20.1 C12.4,20.09 12.43,20.08 12.46,20.07 C11.94,19.21 11.65,18.22 11.65,17.2 C11.65,14.14 14.14,11.65 17.2,11.65 C18.38,11.65 19.5,12.02 20.44,12.69 C20.98,11.41 21.25,10.07 21.25,8.69 C21.25,6.02 19.09,3.85 16.44,3.85 C14.94,3.85 13.5,4.57 12.6,5.78 C12.32,6.16 11.68,6.16 11.4,5.78 C10.5,4.57 9.06,3.85 7.56,3.85 Z"/>
</svg>

