<svg xmlns="http://www.w3.org/2000/svg" width="24" height="24" viewBox="0 0 24 24">
  <defs/>
  <path fill="#292D32" d="M12,21.65 C11.78,21.65 11.45,21.63 11.14,21.52 C7.32,20.21 1.25,15.57 1.25,8.69 C1.25,5.19 4.08,2.35 7.56,2.35 C9.25,2.35 10.83,3.01 12,4.19 C13.17,3.01 14.75,2.35 16.44,2.35 C19.92,2.35 22.75,5.19 22.75,8.69 C22.75,9.9 22.57,11.09 22.21,12.23 C22.09,12.62 21.66,12.85 21.27,12.72 C20.87,12.6 20.66,12.17 20.78,11.78 C21.09,10.79 21.25,9.75 21.25,8.7 C21.25,6.03 19.09,3.86 16.44,3.86 C14.92,3.86 13.51,4.57 12.6,5.79 C12.32,6.17 11.68,6.17 11.4,5.79 C10.48,4.56 9.08,3.86 7.56,3.86 C4.91,3.86 2.75,6.03 2.75,8.7 C2.75,15.54 9.32,19.33 11.63,20.12 C11.69,20.14 11.83,20.17 12,20.17 C12.41,20.17 12.75,20.51 12.75,20.92 C12.75,21.33 12.41,21.65 12,21.65 Z"/>
  <path fill="#292D32" d="M15.82,22.75 C15.44,22.75 15.08,22.61 14.82,22.35 C14.51,22.04 14.37,21.59 14.44,21.12 L14.63,19.77 C14.68,19.42 14.89,19 15.14,18.75 L18.68,15.21 C19.16,14.73 19.63,14.48 20.14,14.43 C20.77,14.37 21.38,14.63 21.96,15.21 C22.54,15.79 22.8,16.4 22.74,17.03 C22.69,17.53 22.43,18.01 21.96,18.49 L18.42,22.03 C18.17,22.28 17.76,22.49 17.41,22.54 L16.06,22.73 C15.97,22.74 15.9,22.75 15.82,22.75 Z M20.31,15.92 C20.3,15.92 20.29,15.92 20.28,15.92 C20.14,15.93 19.95,16.05 19.74,16.27 L16.2,19.81 C16.17,19.84 16.12,19.94 16.12,19.98 L15.94,21.23 L17.19,21.05 C17.23,21.04 17.33,20.99 17.36,20.96 L20.9,17.42 C21.11,17.21 21.24,17.02 21.25,16.88 C21.27,16.68 21.07,16.44 20.9,16.27 C20.74,16.11 20.51,15.92 20.31,15.92 Z"/>
  <path fill="#292D32" d="M20.921,19.22 C20.851,19.22 20.781,19.21 20.721,19.19 C19.401,18.82 18.351,17.77 17.981,16.45 C17.871,16.05 18.101,15.64 18.501,15.53 C18.901,15.42 19.311,15.65 19.431,16.05 C19.661,16.87 20.311,17.52 21.131,17.75 C21.531,17.86 21.761,18.28 21.651,18.67 C21.551,19 21.251,19.22 20.921,19.22 Z"/>
</svg>

