<svg xmlns="http://www.w3.org/2000/svg" width="24" height="24" viewBox="0 0 24 24">
  <defs/>
  <path fill="#292D32" opacity="0.4" d="M12,22 C17.523,22 22,17.523 22,12 C22,6.477 17.523,2 12,2 C6.477,2 2,6.477 2,12 C2,17.523 6.477,22 12,22 Z"/>
  <path fill="#292D32" d="M12.33,17 C12.15,17.06 11.84,17.06 11.66,17 C10.1,16.47 6.6,14.24 6.6,10.46 C6.6,8.79 7.94,7.44 9.6,7.44 C10.58,7.44 11.45,7.91 12,8.65 C12.54,7.92 13.42,7.44 14.4,7.44 C16.06,7.44 17.4,8.79 17.4,10.46 C17.4,14.24 13.9,16.47 12.33,17 Z"/>
</svg>

