<svg xmlns="http://www.w3.org/2000/svg" width="24" height="24" viewBox="0 0 24 24">
  <defs/>
  <path fill="#292D32" d="M17.2,22.75 C15.63,22.75 14.13,22.08 13.07,20.9 C12.15,19.87 11.65,18.56 11.65,17.2 C11.65,14.14 14.14,11.65 17.2,11.65 C18.74,11.65 20.17,12.27 21.24,13.39 C21.27,13.42 21.3,13.46 21.32,13.49 C22.26,14.55 22.75,15.84 22.75,17.19 C22.75,20.26 20.26,22.75 17.2,22.75 Z M17.2,13.15 C14.97,13.15 13.15,14.97 13.15,17.2 C13.15,18.19 13.52,19.15 14.19,19.9 C14.96,20.76 16.06,21.25 17.2,21.25 C19.43,21.25 21.25,19.43 21.25,17.2 C21.25,16.17 20.86,15.19 20.14,14.43 C20.12,14.41 20.1,14.38 20.08,14.36 C19.31,13.58 18.29,13.15 17.2,13.15 Z"/>
  <path fill="#292D32" d="M18.479,19.29 C18.289,19.29 18.099,19.22 17.949,19.07 L15.409,16.53 C15.119,16.24 15.119,15.76 15.409,15.47 C15.699,15.18 16.179,15.18 16.469,15.47 L19.009,18.01 C19.299,18.3 19.299,18.78 19.009,19.07 C18.869,19.21 18.669,19.29 18.479,19.29 Z"/>
  <path fill="#292D32" d="M15.919,19.32 C15.729,19.32 15.539,19.25 15.389,19.1 C15.099,18.81 15.099,18.33 15.389,18.04 L17.929,15.5 C18.219,15.21 18.699,15.21 18.989,15.5 C19.279,15.79 19.279,16.27 18.989,16.56 L16.449,19.1 C16.299,19.24 16.109,19.32 15.919,19.32 Z"/>
  <path fill="#292D32" d="M12,21.65 C11.69,21.65 11.38,21.61 11.13,21.52 C8.57,20.65 1.25,16.41 1.25,8.69 C1.25,5.19 4.08,2.35 7.56,2.35 C9.23,2.35 10.83,3.02 12,4.19 C13.17,3.02 14.78,2.35 16.44,2.35 C19.92,2.35 22.75,5.19 22.75,8.69 C22.75,10.64 22.28,12.51 21.35,14.26 C21.24,14.47 21.03,14.62 20.79,14.65 C20.55,14.68 20.31,14.6 20.14,14.42 C19.36,13.6 18.31,13.14 17.19,13.14 C14.96,13.14 13.14,14.96 13.14,17.19 C13.14,18.18 13.51,19.14 14.18,19.89 C14.34,20.07 14.4,20.31 14.35,20.54 C14.3,20.77 14.14,20.97 13.93,21.07 C13.53,21.25 13.17,21.4 12.84,21.51 C12.61,21.61 12.31,21.65 12,21.65 Z M7.56,3.85 C4.91,3.85 2.75,6.02 2.75,8.69 C2.75,15.53 9.32,19.31 11.62,20.1 C11.8,20.17 12.19,20.16 12.37,20.1 C12.4,20.09 12.43,20.08 12.46,20.07 C11.94,19.21 11.65,18.22 11.65,17.2 C11.65,14.14 14.14,11.65 17.2,11.65 C18.38,11.65 19.5,12.02 20.44,12.69 C20.98,11.41 21.25,10.07 21.25,8.69 C21.25,6.02 19.09,3.85 16.44,3.85 C14.94,3.85 13.5,4.57 12.6,5.78 C12.32,6.16 11.68,6.16 11.4,5.78 C10.5,4.57 9.06,3.85 7.56,3.85 Z"/>
</svg>

