<svg xmlns="http://www.w3.org/2000/svg" width="24" height="24" viewBox="0 0 24 24">
  <defs/>
  <path fill="#292D32" d="M12,21.65 C11.78,21.65 11.45,21.63 11.14,21.52 C7.32,20.21 1.25,15.57 1.25,8.69 C1.25,5.19 4.08,2.35 7.56,2.35 C9.25,2.35 10.83,3.01 12,4.19 C13.17,3.01 14.75,2.35 16.44,2.35 C19.92,2.35 22.75,5.19 22.75,8.69 C22.75,9.9 22.57,11.09 22.21,12.23 C22.09,12.62 21.66,12.85 21.27,12.72 C20.87,12.6 20.66,12.17 20.78,11.78 C21.09,10.79 21.25,9.75 21.25,8.7 C21.25,6.03 19.09,3.86 16.44,3.86 C14.92,3.86 13.51,4.57 12.6,5.79 C12.32,6.17 11.68,6.17 11.4,5.79 C10.48,4.56 9.08,3.86 7.56,3.86 C4.91,3.86 2.75,6.03 2.75,8.7 C2.75,15.54 9.32,19.33 11.63,20.12 C11.69,20.14 11.83,20.17 12,20.17 C12.41,20.17 12.75,20.51 12.75,20.92 C12.75,21.33 12.41,21.65 12,21.65 Z"/>
  <path fill="#292D32" d="M17.739,21.75 C15.559,21.75 13.789,19.98 13.789,17.8 C13.789,15.62 15.559,13.85 17.739,13.85 C19.919,13.85 21.689,15.62 21.689,17.8 C21.689,19.98 19.919,21.75 17.739,21.75 Z M17.739,15.35 C16.389,15.35 15.289,16.45 15.289,17.8 C15.289,19.15 16.389,20.25 17.739,20.25 C19.089,20.25 20.189,19.15 20.189,17.8 C20.189,16.45 19.089,15.35 17.739,15.35 Z"/>
  <path fill="#292D32" d="M21.541,22.35 C21.351,22.35 21.16,22.28 21.011,22.13 L20.011,21.13 C19.721,20.84 19.721,20.36 20.011,20.07 C20.3,19.78 20.78,19.78 21.07,20.07 L22.07,21.07 C22.36,21.36 22.36,21.84 22.07,22.13 C21.921,22.27 21.73,22.35 21.541,22.35 Z"/>
</svg>

