<svg xmlns="http://www.w3.org/2000/svg" width="24" height="24" viewBox="0 0 24 24">
  <defs/>
  <path fill="#292D32" d="M21.74,20.508 L20.88,19.648 C21.33,18.968 21.59,18.158 21.59,17.288 C21.59,14.918 19.67,12.988 17.29,12.988 C14.91,12.988 13,14.918 13,17.298 C13,19.678 14.92,21.598 17.3,21.598 C18.17,21.598 18.98,21.338 19.66,20.888 L20.52,21.748 C20.69,21.918 20.91,22.008 21.14,22.008 C21.37,22.008 21.59,21.918 21.76,21.748 C22.09,21.398 22.09,20.848 21.74,20.508 Z"/>
  <path fill="#292D32" d="M22,8.731 C22,9.921 21.81,11.021 21.48,12.041 C21.42,12.251 21.17,12.311 20.99,12.181 C19.9,11.371 18.57,10.941 17.2,10.941 C13.73,10.941 10.9,13.771 10.9,17.241 C10.9,18.321 11.18,19.381 11.71,20.321 C11.87,20.601 11.68,20.961 11.38,20.851 C8.97,20.031 4.1,17.041 2.52,12.041 C2.19,11.021 2,9.921 2,8.731 C2,5.641 4.49,3.141 7.56,3.141 C9.37,3.141 10.99,4.021 12,5.371 C13.01,4.021 14.63,3.141 16.44,3.141 C19.51,3.141 22,5.641 22,8.731 Z"/>
</svg>

