<svg xmlns="http://www.w3.org/2000/svg" width="24" height="24" viewBox="0 0 24 24">
  <defs/>
  <path fill="#292D32" opacity="0.4" d="M22.001,8.69 C22.001,9.88 21.811,10.98 21.481,12 C19.901,17 15.031,19.99 12.621,20.81 C12.281,20.93 11.721,20.93 11.381,20.81 C10.741,20.59 9.931,20.22 9.061,19.7 C8.501,19.37 8.411,18.59 8.871,18.13 L20.151,6.85 C20.691,6.31 21.641,6.54 21.831,7.28 C21.941,7.73 22.001,8.2 22.001,8.69 Z"/>
  <path fill="#292D32" d="M22.529,1.47 C22.239,1.18 21.759,1.18 21.47,1.47 L19.13,3.81 C18.34,3.36 17.419,3.1 16.439,3.1 C14.63,3.1 13.009,3.98 11.999,5.33 C10.989,3.98 9.369,3.1 7.559,3.1 C4.489,3.1 1.999,5.6 1.999,8.69 C1.999,9.88 2.189,10.98 2.519,12 C3.17,14.07 4.389,15.8 5.769,17.17 L1.469,21.47 C1.179,21.76 1.179,22.24 1.469,22.53 C1.619,22.68 1.809,22.75 1.999,22.75 C2.189,22.75 2.38,22.68 2.53,22.53 L22.529,2.53 C22.82,2.24 22.82,1.76 22.529,1.47 Z"/>
</svg>

