<svg xmlns="http://www.w3.org/2000/svg" width="24" height="24" viewBox="0 0 24 24">
  <defs/>
  <path fill="#292D32" d="M22.75,17.2 Q22.75,18.765 21.936,20.067 Q20.334,22.75 17.2,22.75 Q14.046,22.75 12.454,20.051 Q11.65,18.736 11.65,17.2 Q11.65,14.902 13.276,13.276 Q14.902,11.65 17.2,11.65 Q19.498,11.65 21.124,13.276 Q22.75,14.902 22.75,17.2 Z M21.25,17.2 Q21.25,13.15 17.2,13.15 Q13.15,13.15 13.15,17.2 Q13.15,18.314 13.746,19.289 Q14.903,21.25 17.2,21.25 Q19.483,21.25 20.664,19.273 Q21.25,18.335 21.25,17.2 Z"/>
  <path fill="#292D32" d="M15.86,16.67 L16.531,17.34 L18.562,15.469 Q18.79,15.258 19.101,15.271 Q19.411,15.283 19.622,15.512 Q19.832,15.74 19.819,16.05 Q19.807,16.361 19.578,16.571 L17.018,18.931 Q16.797,19.136 16.495,19.13 Q16.193,19.124 15.98,18.91 L14.8,17.73 Q14.58,17.511 14.58,17.2 Q14.58,16.889 14.8,16.67 Q15.019,16.45 15.33,16.45 Q15.641,16.45 15.86,16.67 Z"/>
  <path fill="#292D32" d="M22.75,8.69 Q22.75,11.624 21.353,14.261 Q21.207,14.536 20.91,14.627 Q20.613,14.718 20.339,14.573 Q20.23,14.515 20.145,14.425 Q18.938,13.15 17.2,13.15 Q13.15,13.15 13.15,17.2 Q13.15,18.738 14.189,19.9 Q14.396,20.132 14.379,20.442 Q14.361,20.752 14.13,20.959 Q14.046,21.034 13.943,21.082 Q13.325,21.366 12.857,21.522 Q12,21.824 11.13,21.517 Q7.875,20.406 5.066,17.528 Q1.25,13.618 1.25,8.69 Q1.25,6.064 3.097,4.207 Q4.945,2.35 7.56,2.35 Q10.232,2.35 12,4.174 Q13.768,2.35 16.44,2.35 Q19.055,2.35 20.903,4.207 Q22.75,6.064 22.75,8.69 Z M21.25,8.69 Q21.25,6.683 19.84,5.265 Q18.431,3.85 16.44,3.85 Q14.044,3.85 12.601,5.779 Q12.536,5.866 12.449,5.931 Q12.201,6.117 11.893,6.072 Q11.586,6.028 11.399,5.779 Q9.956,3.85 7.56,3.85 Q5.569,3.85 4.16,5.265 Q2.75,6.683 2.75,8.69 Q2.75,13.007 6.139,16.48 Q8.698,19.102 11.63,20.103 Q12,20.233 12.383,20.098 Q12.416,20.087 12.451,20.075 Q11.65,18.785 11.65,17.2 Q11.65,14.902 13.276,13.276 Q14.902,11.65 17.2,11.65 Q19.039,11.65 20.441,12.688 Q21.25,10.773 21.25,8.69 Z"/>
</svg>

