<svg xmlns="http://www.w3.org/2000/svg" width="24" height="24" viewBox="0 0 24 24">
  <defs/>
  <path fill="#292D32" opacity="0.4" d="M16.44,3.1 C14.63,3.1 13.01,3.98 12,5.33 C10.99,3.98 9.37,3.1 7.56,3.1 C4.49,3.1 2,5.6 2,8.69 C2,9.88 2.19,10.98 2.52,12 C4.1,17 8.97,19.99 11.38,20.81 C11.72,20.93 12.28,20.93 12.62,20.81 C15.03,19.99 19.9,17 21.48,12 C21.81,10.98 22,9.88 22,8.69 C22,5.6 19.51,3.1 16.44,3.1 Z"/>
  <path fill="#292D32" d="M21.77,20.68 L21.01,19.92 C21.41,19.32 21.64,18.6 21.64,17.83 C21.64,15.72 19.93,14.01 17.82,14.01 C15.71,14.01 14,15.72 14,17.83 C14,19.94 15.71,21.65 17.82,21.65 C18.59,21.65 19.31,21.42 19.91,21.02 L20.67,21.78 C20.82,21.93 21.02,22.01 21.22,22.01 C21.42,22.01 21.62,21.93 21.77,21.78 C22.08,21.47 22.08,20.98 21.77,20.68 Z"/>
</svg>

