<svg xmlns="http://www.w3.org/2000/svg" width="24" height="24" viewBox="0 0 24 24">
  <defs/>
  <path fill="#292D32" d="M12,22.75 C6.07,22.75 1.25,17.93 1.25,12 C1.25,6.07 6.07,1.25 12,1.25 C17.93,1.25 22.75,6.07 22.75,12 C22.75,17.93 17.93,22.75 12,22.75 Z M12,2.75 C6.9,2.75 2.75,6.9 2.75,12 C2.75,17.1 6.9,21.25 12,21.25 C17.1,21.25 21.25,17.1 21.25,12 C21.25,6.9 17.1,2.75 12,2.75 Z"/>
  <path fill="#292D32" d="M11.999,18.25 C11.789,18.25 11.589,18.22 11.419,18.16 C9.269,17.43 5.859,14.81 5.859,10.91 C5.859,8.83 7.539,7.14 9.609,7.14 C10.509,7.14 11.339,7.45 12.009,8.01 C12.679,7.45 13.519,7.14 14.399,7.14 C16.469,7.14 18.149,8.83 18.149,10.91 C18.149,14.8 14.739,17.42 12.579,18.16 C12.409,18.22 12.199,18.25 11.999,18.25 Z M9.599,8.65 C8.359,8.65 7.349,9.67 7.349,10.92 C7.349,14.41 10.719,16.35 11.899,16.75 C11.939,16.76 12.039,16.76 12.079,16.75 C13.259,16.35 16.629,14.41 16.629,10.92 C16.629,9.67 15.619,8.65 14.379,8.65 C13.679,8.65 13.009,8.99 12.589,9.56 C12.309,9.94 11.669,9.94 11.389,9.56 C10.969,8.98 10.319,8.65 9.599,8.65 Z"/>
</svg>

