<svg xmlns="http://www.w3.org/2000/svg" width="24" height="24" viewBox="0 0 24 24">
  <defs/>
  <path fill="#292D32" d="M20.68,13.91 L20.68,13.9 C19.8,12.97 18.57,12.4 17.2,12.4 C14.55,12.4 12.4,14.55 12.4,17.2 C12.4,18.43 12.87,19.55 13.63,20.4 C14.51,21.38 15.78,22 17.2,22 C19.85,22 22,19.85 22,17.2 C22,15.93 21.5,14.77 20.68,13.91 Z M18.99,18.01 L17.95,18.01 L17.95,19.1 C17.95,19.51 17.61,19.85 17.2,19.85 C16.79,19.85 16.45,19.51 16.45,19.1 L16.45,18.01 L15.41,18.01 C14.99,18.01 14.66,17.68 14.66,17.26 C14.66,16.85 14.98,16.52 15.4,16.51 L16.45,16.51 L16.45,15.51 C16.45,15.49 16.45,15.47 16.46,15.45 C16.48,15.07 16.81,14.76 17.2,14.76 C17.6,14.76 17.93,15.08 17.95,15.48 L17.95,16.51 L18.99,16.51 C19.41,16.51 19.74,16.85 19.74,17.26 C19.74,17.68 19.41,18.01 18.99,18.01 Z"/>
  <path fill="#292D32" opacity="0.4" d="M22,8.69 C22,9.88 21.81,10.98 21.48,12 C21.27,12.67 21,13.31 20.68,13.9 C19.8,12.97 18.57,12.4 17.2,12.4 C14.55,12.4 12.4,14.55 12.4,17.2 C12.4,18.43 12.87,19.55 13.63,20.4 C13.26,20.57 12.92,20.71 12.62,20.81 C12.28,20.93 11.72,20.93 11.38,20.81 C8.97,19.99 4.1,17 2.52,12 C2.19,10.98 2,9.88 2,8.69 C2,5.6 4.49,3.1 7.56,3.1 C9.37,3.1 10.99,3.98 12,5.33 C13.01,3.98 14.63,3.1 16.44,3.1 C19.51,3.1 22,5.6 22,8.69 Z"/>
</svg>

