<svg xmlns="http://www.w3.org/2000/svg" width="24" height="24" viewBox="0 0 24 24">
  <defs/>
  <path fill="#292D32" opacity="0.4" d="M20.774,11.776 Q21.25,10.26 21.25,8.69 Q21.25,6.683 19.84,5.265 Q18.431,3.85 16.44,3.85 Q14.041,3.85 12.602,5.787 Q12.417,6.037 12.11,6.082 Q11.802,6.127 11.553,5.942 Q11.464,5.876 11.398,5.787 Q9.959,3.85 7.56,3.85 Q5.569,3.85 4.16,5.265 Q2.75,6.683 2.75,8.69 Q2.75,13.007 6.139,16.481 Q8.694,19.101 11.624,20.111 Q11.763,20.16 12,20.16 Q12.311,20.16 12.53,20.38 Q12.75,20.599 12.75,20.91 Q12.75,21.221 12.53,21.44 Q12.311,21.66 12,21.66 Q11.507,21.66 11.136,21.529 Q7.869,20.403 5.066,17.529 Q1.25,13.617 1.25,8.69 Q1.25,6.064 3.097,4.207 Q4.945,2.35 7.56,2.35 Q10.235,2.35 12,4.18 Q13.765,2.35 16.44,2.35 Q19.055,2.35 20.903,4.207 Q22.75,6.064 22.75,8.69 Q22.75,10.489 22.206,12.225 Q22.113,12.521 21.837,12.665 Q21.562,12.809 21.265,12.716 Q20.969,12.623 20.825,12.347 Q20.681,12.072 20.774,11.776 Z"/>
  <path fill="#292D32" d="M17.739,21.75 Q16.103,21.75 14.946,20.593 Q13.789,19.436 13.789,17.8 Q13.789,13.85 17.739,13.85 Q21.689,13.85 21.689,17.8 Q21.689,19.436 20.532,20.593 Q19.375,21.75 17.739,21.75 Z M17.739,20.25 Q18.754,20.25 19.472,19.533 Q20.189,18.815 20.189,17.8 Q20.189,16.785 19.472,16.068 Q18.754,15.35 17.739,15.35 Q15.289,15.35 15.289,17.8 Q15.289,20.25 17.739,20.25 Z"/>
  <path fill="#292D32" d="M21.009,22.13 L20.009,21.13 Q19.789,20.911 19.789,20.6 Q19.789,20.289 20.009,20.07 Q20.228,19.85 20.539,19.85 Q20.85,19.85 21.069,20.07 L22.069,21.07 Q22.289,21.289 22.289,21.6 Q22.289,21.911 22.069,22.13 Q21.85,22.35 21.539,22.35 Q21.228,22.35 21.009,22.13 Z"/>
</svg>

