<svg xmlns="http://www.w3.org/2000/svg" width="24" height="24" viewBox="0 0 24 24">
  <defs/>
  <path fill="#292D32" d="M20.68,13.908 L20.68,13.898 C19.8,12.968 18.57,12.398 17.2,12.398 C14.55,12.398 12.4,14.548 12.4,17.198 C12.4,18.428 12.87,19.548 13.63,20.398 C14.51,21.378 15.78,21.998 17.2,21.998 C19.85,21.998 22,19.848 22,17.198 C22,15.928 21.5,14.768 20.68,13.908 Z M18.99,18.008 L17.95,18.008 L17.95,19.098 C17.95,19.508 17.61,19.848 17.2,19.848 C16.79,19.848 16.45,19.508 16.45,19.098 L16.45,18.008 L15.41,18.008 C14.99,18.008 14.66,17.678 14.66,17.258 C14.66,16.848 14.98,16.518 15.4,16.508 L16.45,16.508 L16.45,15.508 C16.45,15.488 16.45,15.468 16.46,15.448 C16.48,15.068 16.81,14.758 17.2,14.758 C17.6,14.758 17.93,15.078 17.95,15.478 L17.95,16.508 L18.99,16.508 C19.41,16.508 19.74,16.848 19.74,17.258 C19.74,17.678 19.41,18.008 18.99,18.008 Z"/>
  <path fill="#292D32" d="M22,8.731 C22,9.921 21.81,11.021 21.48,12.041 C21.42,12.251 21.17,12.311 20.99,12.181 C19.9,11.371 18.57,10.941 17.2,10.941 C13.73,10.941 10.9,13.771 10.9,17.241 C10.9,18.321 11.18,19.381 11.71,20.321 C11.87,20.601 11.68,20.961 11.38,20.851 C8.97,20.031 4.1,17.041 2.52,12.041 C2.19,11.021 2,9.921 2,8.731 C2,5.641 4.49,3.141 7.56,3.141 C9.37,3.141 10.99,4.021 12,5.371 C13.01,4.021 14.63,3.141 16.44,3.141 C19.51,3.141 22,5.641 22,8.731 Z"/>
</svg>

