<svg xmlns="http://www.w3.org/2000/svg" width="24" height="24" viewBox="0 0 24 24">
  <defs/>
  <path fill="#292D32" opacity="0.4" d="M22,8.69 C22,9.88 21.81,10.98 21.48,12 C21.27,12.67 21,13.31 20.68,13.9 C19.8,12.97 18.57,12.4 17.2,12.4 C14.55,12.4 12.4,14.55 12.4,17.2 C12.4,18.43 12.87,19.55 13.63,20.4 C13.26,20.57 12.92,20.71 12.62,20.81 C12.28,20.93 11.72,20.93 11.38,20.81 C8.97,19.99 4.1,17 2.52,12 C2.19,10.98 2,9.88 2,8.69 C2,5.6 4.49,3.1 7.56,3.1 C9.37,3.1 10.99,3.98 12,5.33 C13.01,3.98 14.63,3.1 16.44,3.1 C19.51,3.1 22,5.6 22,8.69 Z"/>
  <path fill="#292D32" d="M20.69,13.92 C20.68,13.92 20.68,13.91 20.68,13.91 L20.68,13.9 C19.8,12.98 18.57,12.4 17.2,12.4 C14.55,12.4 12.4,14.55 12.4,17.2 C12.4,18.43 12.87,19.55 13.63,20.4 C14.51,21.38 15.78,22 17.2,22 C19.85,22 22,19.85 22,17.2 C22,15.93 21.5,14.78 20.69,13.92 Z M19.01,19.07 C18.87,19.21 18.67,19.29 18.48,19.29 C18.29,19.29 18.1,19.21 17.95,19.07 L17.21,18.33 L16.45,19.1 C16.3,19.24 16.11,19.32 15.92,19.32 C15.82,19.32 15.73,19.3 15.64,19.26 C15.55,19.23 15.46,19.17 15.39,19.1 C15.09,18.8 15.09,18.33 15.39,18.04 L16.15,17.27 L15.42,16.53 C15.12,16.24 15.12,15.76 15.42,15.47 C15.71,15.18 16.18,15.18 16.48,15.47 L17.21,16.21 L17.92,15.5 C18.22,15.21 18.69,15.21 18.98,15.5 C19.15,15.67 19.22,15.89 19.19,16.11 C19.18,16.28 19.11,16.44 18.98,16.56 L18.27,17.27 L19.01,18.01 C19.31,18.3 19.31,18.77 19.01,19.07 Z"/>
</svg>

