<svg xmlns="http://www.w3.org/2000/svg" width="24" height="24" viewBox="0 0 24 24">
  <defs/>
  <path fill="#292D32" opacity="0.4" d="M16.44,3.1 C14.63,3.1 13.01,3.98 12,5.33 C10.99,3.98 9.37,3.1 7.56,3.1 C4.49,3.1 2,5.6 2,8.69 C2,9.88 2.19,10.98 2.52,12 C4.1,17 8.97,19.99 11.38,20.81 C11.72,20.93 12.28,20.93 12.62,20.81 C15.03,19.99 19.9,17 21.48,12 C21.81,10.98 22,9.88 22,8.69 C22,5.6 19.51,3.1 16.44,3.1 Z"/>
  <path fill="#292D32" d="M14.839,9.16 C13.939,8.26 13.229,8.55 12.619,9.16 L9.079,12.7 C8.939,12.84 8.809,13.1 8.779,13.29 L8.589,14.64 C8.519,15.13 8.859,15.47 9.349,15.4 L10.699,15.21 C10.889,15.18 11.159,15.05 11.289,14.91 L14.829,11.37 C15.449,10.77 15.739,10.06 14.839,9.16 Z"/>
</svg>

