<svg xmlns="http://www.w3.org/2000/svg" width="24" height="24" viewBox="0 0 24 24">
  <defs/>
  <path fill="#292D32" d="M22.75,17.2 Q22.75,19.498 21.124,21.124 Q19.499,22.75 17.2,22.75 Q14.733,22.75 13.072,20.901 Q11.65,19.311 11.65,17.2 Q11.65,14.902 13.276,13.276 Q14.902,11.65 17.2,11.65 Q19.584,11.65 21.235,13.395 Q21.276,13.438 21.309,13.484 Q22.75,15.066 22.75,17.2 Z M21.25,17.2 Q21.25,15.612 20.149,14.439 Q20.109,14.398 20.077,14.355 Q18.89,13.15 17.2,13.15 Q15.524,13.15 14.337,14.337 Q13.15,15.523 13.15,17.2 Q13.15,18.738 14.188,19.899 Q15.402,21.25 17.2,21.25 Q21.25,21.25 21.25,17.2 Z M21.418,14.1 Q21.367,14.302 21.206,14.455 Q21.062,14.591 20.882,14.637 Q21.341,14.537 21.418,14.1 Z M21.243,13.412 Q21.232,13.401 21.221,13.39 Q21.229,13.398 21.236,13.406 Q21.24,13.409 21.243,13.412 Z"/>
  <path fill="#292D32" d="M17.948,19.069 L15.418,16.529 Q15.199,16.309 15.199,15.999 Q15.2,15.688 15.42,15.469 Q15.64,15.249 15.951,15.25 Q16.261,15.251 16.481,15.471 L19.011,18.011 Q19.23,18.231 19.229,18.541 Q19.229,18.852 19.008,19.071 Q18.788,19.291 18.478,19.29 Q18.167,19.289 17.948,19.069 Z"/>
  <path fill="#292D32" d="M18.981,16.559 L16.451,19.099 Q16.232,19.319 15.921,19.32 Q15.611,19.321 15.391,19.101 Q15.171,18.882 15.17,18.571 Q15.169,18.261 15.389,18.041 L17.919,15.501 Q18.138,15.281 18.449,15.28 Q18.759,15.279 18.979,15.499 Q19.199,15.718 19.2,16.029 Q19.201,16.339 18.981,16.559 Z"/>
  <path fill="#292D32" d="M7.56,2.35 Q10.232,2.35 12,4.174 Q13.768,2.35 16.44,2.35 Q19.055,2.35 20.903,4.207 Q22.75,6.064 22.75,8.69 Q22.75,11.624 21.353,14.261 Q21.207,14.536 20.91,14.627 Q20.613,14.718 20.339,14.573 Q20.23,14.515 20.145,14.425 Q18.938,13.15 17.2,13.15 Q13.15,13.15 13.15,17.2 Q13.15,18.738 14.189,19.9 Q14.396,20.132 14.379,20.442 Q14.361,20.752 14.13,20.959 Q14.046,21.034 13.943,21.082 Q13.325,21.366 12.857,21.522 Q12,21.824 11.13,21.517 Q7.875,20.406 5.066,17.528 Q1.25,13.618 1.25,8.69 Q1.25,6.049 3.1,4.2 Q3.319,3.98 3.63,3.98 Q3.941,3.98 4.16,4.2 Q4.38,4.419 4.38,4.73 Q4.38,5.041 4.16,5.26 Q2.75,6.671 2.75,8.69 Q2.75,13.007 6.139,16.48 Q8.698,19.102 11.63,20.103 Q12,20.233 12.383,20.098 Q12.416,20.087 12.451,20.075 Q11.65,18.785 11.65,17.2 Q11.65,14.902 13.276,13.276 Q14.902,11.65 17.2,11.65 Q19.039,11.65 20.441,12.688 Q21.25,10.773 21.25,8.69 Q21.25,6.683 19.84,5.265 Q18.431,3.85 16.44,3.85 Q14.044,3.85 12.601,5.779 Q12.536,5.866 12.449,5.931 Q12.201,6.117 11.893,6.072 Q11.586,6.028 11.399,5.779 Q9.956,3.85 7.56,3.85 Q7.249,3.85 7.03,3.63 Q6.81,3.411 6.81,3.1 Q6.81,2.789 7.03,2.57 Q7.249,2.35 7.56,2.35 Z"/>
</svg>

