<svg xmlns="http://www.w3.org/2000/svg" width="24" height="24" viewBox="0 0 24 24">
  <defs/>
  <path fill="#292D32" d="M17.2,22.75 C15.26,22.75 13.44,21.72 12.45,20.05 C11.93,19.21 11.65,18.21 11.65,17.2 C11.65,14.14 14.14,11.65 17.2,11.65 C20.26,11.65 22.75,14.14 22.75,17.2 C22.75,18.22 22.47,19.21 21.94,20.07 C20.96,21.72 19.14,22.75 17.2,22.75 Z M17.2,13.15 C14.97,13.15 13.15,14.97 13.15,17.2 C13.15,17.94 13.35,18.66 13.73,19.28 C14.47,20.52 15.76,21.25 17.2,21.25 C18.64,21.25 19.93,20.52 20.66,19.29 C21.05,18.66 21.25,17.94 21.25,17.2 C21.25,14.97 19.43,13.15 17.2,13.15 Z"/>
  <path fill="#292D32" d="M16.509,19.13 C16.32,19.13 16.13,19.06 15.979,18.91 L14.8,17.73 C14.509,17.44 14.509,16.96 14.8,16.67 C15.089,16.38 15.569,16.38 15.86,16.67 L16.529,17.34 L18.559,15.46 C18.869,15.18 19.34,15.2 19.619,15.5 C19.899,15.8 19.88,16.28 19.579,16.56 L17.02,18.92 C16.88,19.07 16.689,19.13 16.509,19.13 Z"/>
  <path fill="#292D32" d="M12,21.65 C11.69,21.65 11.38,21.61 11.13,21.52 C8.57,20.65 1.25,16.41 1.25,8.69 C1.25,5.19 4.08,2.35 7.56,2.35 C9.22,2.35 10.83,3.02 12,4.19 C13.17,3.02 14.78,2.35 16.44,2.35 C19.92,2.35 22.75,5.19 22.75,8.69 C22.75,10.64 22.28,12.51 21.35,14.26 C21.24,14.47 21.03,14.62 20.79,14.65 C20.55,14.68 20.31,14.6 20.14,14.42 C19.36,13.6 18.32,13.14 17.2,13.14 C14.97,13.14 13.15,14.96 13.15,17.19 C13.15,18.18 13.52,19.14 14.19,19.89 C14.35,20.07 14.41,20.31 14.36,20.54 C14.31,20.77 14.15,20.97 13.94,21.07 C13.54,21.25 13.18,21.4 12.85,21.51 C12.61,21.61 12.31,21.65 12,21.65 Z M7.56,3.85 C4.91,3.85 2.75,6.02 2.75,8.69 C2.75,15.53 9.32,19.31 11.62,20.1 C11.81,20.17 12.19,20.16 12.37,20.1 C12.4,20.09 12.43,20.08 12.46,20.07 C11.93,19.21 11.65,18.22 11.65,17.2 C11.65,14.14 14.14,11.65 17.2,11.65 C18.36,11.65 19.5,12.02 20.44,12.7 C20.98,11.42 21.25,10.08 21.25,8.69 C21.25,6.02 19.09,3.85 16.44,3.85 C14.94,3.85 13.5,4.57 12.6,5.78 C12.32,6.16 11.68,6.16 11.4,5.78 C10.5,4.57 9.06,3.85 7.56,3.85 Z"/>
</svg>

