<svg xmlns="http://www.w3.org/2000/svg" width="24" height="24" viewBox="0 0 24 24">
  <defs/>
  <path fill="#292D32" d="M6.11,18.25 C5.93,18.25 5.74,18.18 5.6,18.05 C3.62,16.19 1.25,13.06 1.25,8.69 C1.25,5.19 4.08,2.35 7.56,2.35 C9.25,2.35 10.83,3.01 12,4.19 C13.17,3.01 14.75,2.35 16.44,2.35 C17.7,2.35 18.92,2.73 19.97,3.43 C20.31,3.66 20.4,4.13 20.17,4.47 C19.94,4.81 19.47,4.9 19.13,4.67 C18.34,4.13 17.41,3.84 16.45,3.84 C14.93,3.84 13.52,4.55 12.61,5.78 C12.33,6.16 11.69,6.16 11.41,5.78 C10.49,4.55 9.09,3.84 7.57,3.84 C4.92,3.84 2.76,6.01 2.76,8.68 C2.76,12.52 4.87,15.29 6.64,16.95 C6.94,17.23 6.96,17.71 6.68,18.01 C6.51,18.17 6.31,18.25 6.11,18.25 Z"/>
  <path fill="#292D32" d="M11.999,21.65 C11.689,21.65 11.389,21.61 11.139,21.52 C10.389,21.26 9.499,20.84 8.639,20.33 C8.279,20.12 8.169,19.66 8.379,19.3 C8.589,18.95 9.049,18.83 9.409,19.04 C10.189,19.5 10.979,19.88 11.629,20.1 C11.809,20.16 12.199,20.16 12.379,20.1 C14.679,19.31 21.259,15.52 21.259,8.68 C21.259,8.18 21.179,7.69 21.039,7.22 C20.919,6.82 21.129,6.4 21.529,6.28 C21.929,6.16 22.349,6.38 22.469,6.77 C22.659,7.39 22.759,8.03 22.759,8.68 C22.759,15.56 16.689,20.2 12.869,21.51 C12.609,21.61 12.309,21.65 11.999,21.65 Z"/>
  <path fill="#292D32" d="M1.999,22.75 C1.809,22.75 1.619,22.68 1.469,22.53 C1.179,22.24 1.179,21.76 1.469,21.47 L21.47,1.47 C21.759,1.18 22.239,1.18 22.529,1.47 C22.82,1.76 22.82,2.24 22.529,2.53 L2.53,22.53 C2.38,22.68 2.189,22.75 1.999,22.75 Z"/>
</svg>

