<svg xmlns="http://www.w3.org/2000/svg" width="24" height="24" viewBox="0 0 24 24">
  <defs/>
  <path fill="#292D32" d="M17.2,12.4 C14.55,12.4 12.4,14.55 12.4,17.2 C12.4,18.1 12.65,18.95 13.1,19.67 C13.93,21.06 15.45,22 17.2,22 C18.95,22 20.48,21.06 21.3,19.67 C21.74,18.95 22,18.1 22,17.2 C22,14.55 19.85,12.4 17.2,12.4 Z M19.58,16.57 L17.02,18.93 C16.88,19.06 16.69,19.13 16.51,19.13 C16.32,19.13 16.13,19.06 15.98,18.91 L14.8,17.73 C14.51,17.44 14.51,16.96 14.8,16.67 C15.09,16.38 15.57,16.38 15.86,16.67 L16.53,17.34 L18.56,15.46 C18.86,15.18 19.34,15.2 19.62,15.5 C19.9,15.81 19.88,16.29 19.58,16.57 Z"/>
  <path fill="#292D32" opacity="0.4" d="M22,8.69 C22,9.88 21.81,10.98 21.48,12 C21.27,12.67 21,13.31 20.68,13.9 C19.8,12.97 18.57,12.4 17.2,12.4 C14.55,12.4 12.4,14.55 12.4,17.2 C12.4,18.43 12.87,19.55 13.63,20.4 C13.26,20.57 12.92,20.71 12.62,20.81 C12.28,20.93 11.72,20.93 11.38,20.81 C8.97,19.99 4.1,17 2.52,12 C2.19,10.98 2,9.88 2,8.69 C2,5.6 4.49,3.1 7.56,3.1 C9.37,3.1 10.99,3.98 12,5.33 C13.01,3.98 14.63,3.1 16.44,3.1 C19.51,3.1 22,5.6 22,8.69 Z"/>
</svg>

