<svg xmlns="http://www.w3.org/2000/svg" width="24" height="24" viewBox="0 0 24 24">
  <defs/>
  <path fill="#292D32" d="M7.561,2.35 Q10.236,2.35 12.001,4.18 Q13.765,2.35 16.441,2.35 Q18.382,2.35 19.975,3.441 Q20.231,3.617 20.288,3.922 Q20.345,4.228 20.169,4.484 Q19.994,4.74 19.688,4.797 Q19.383,4.854 19.126,4.679 Q17.917,3.85 16.441,3.85 Q14.041,3.85 12.603,5.787 Q12.537,5.876 12.448,5.942 Q12.198,6.127 11.891,6.082 Q11.584,6.037 11.398,5.787 Q9.96,3.85 7.561,3.85 Q7.25,3.85 7.03,3.63 Q6.811,3.411 6.811,3.1 Q6.811,2.789 7.03,2.57 Q7.25,2.35 7.561,2.35 Z"/>
  <path fill="#292D32" d="M5.597,18.047 Q1.25,13.975 1.25,8.68 Q1.25,6.049 3.1,4.2 Q3.319,3.98 3.63,3.98 Q3.941,3.98 4.16,4.2 Q4.38,4.419 4.38,4.73 Q4.38,5.041 4.16,5.26 Q2.75,6.671 2.75,8.68 Q2.75,13.325 6.623,16.953 Q6.849,17.165 6.86,17.475 Q6.87,17.786 6.657,18.013 Q6.445,18.239 6.135,18.25 Q5.824,18.26 5.597,18.047 Z"/>
  <path fill="#292D32" d="M22.454,6.771 Q22.75,7.693 22.75,8.69 Q22.75,13.617 18.934,17.529 Q16.131,20.403 12.864,21.529 Q12,21.834 11.13,21.527 Q9.993,21.142 8.636,20.334 Q8.369,20.175 8.293,19.874 Q8.216,19.573 8.375,19.306 Q8.534,19.039 8.835,18.963 Q9.136,18.887 9.403,19.046 Q10.624,19.772 11.629,20.113 Q11.999,20.243 12.375,20.111 Q15.305,19.101 17.86,16.481 Q21.25,13.006 21.25,8.69 Q21.25,7.928 21.025,7.229 Q20.93,6.933 21.073,6.657 Q21.215,6.381 21.51,6.286 Q21.806,6.191 22.083,6.333 Q22.359,6.475 22.454,6.771 Z"/>
  <path fill="#292D32" d="M22.53,2.53 L2.53,22.53 Q2.311,22.75 2,22.75 Q1.689,22.75 1.47,22.53 Q1.25,22.311 1.25,22 Q1.25,21.689 1.47,21.47 L21.47,1.47 Q21.689,1.25 22,1.25 Q22.311,1.25 22.53,1.47 Q22.75,1.689 22.75,2 Q22.75,2.311 22.53,2.53 Z"/>
</svg>

