<svg xmlns="http://www.w3.org/2000/svg" width="24" height="24" viewBox="0 0 24 24">
  <defs/>
  <path fill="#292D32" d="M12.567,18.162 Q11.995,18.352 11.422,18.162 Q9.583,17.537 8.008,15.923 Q5.85,13.711 5.85,10.91 Q5.85,7.14 9.6,7.14 Q11.012,7.14 11.999,7.996 Q12.983,7.14 14.4,7.14 Q18.15,7.14 18.15,10.91 Q18.15,13.713 15.99,15.923 Q14.41,17.539 12.569,18.161 Z M12.09,16.739 L12.092,16.738 Q16.65,15.199 16.65,10.91 Q16.65,9.966 15.99,9.302 Q15.332,8.64 14.4,8.64 Q13.273,8.64 12.603,9.546 Q12.536,9.636 12.447,9.702 Q12.198,9.887 11.89,9.842 Q11.583,9.797 11.398,9.547 Q10.723,8.64 9.6,8.64 Q7.35,8.64 7.35,10.91 Q7.35,15.194 11.897,16.738 Q11.993,16.771 12.09,16.739 Z"/>
  <path fill="#292D32" d="M4.6,6.449 Q2.75,8.922 2.75,12 Q2.75,15.829 5.46,18.54 Q8.171,21.25 12,21.25 Q15.829,21.25 18.54,18.54 Q21.25,15.829 21.25,12 Q21.25,8.171 18.54,5.46 Q15.829,2.75 12,2.75 Q10.031,2.75 8.276,3.535 Q7.993,3.661 7.702,3.551 Q7.412,3.44 7.285,3.156 Q7.159,2.873 7.269,2.582 Q7.38,2.292 7.664,2.165 Q9.711,1.25 12,1.25 Q16.451,1.25 19.6,4.4 Q22.75,7.549 22.75,12 Q22.75,16.451 19.6,19.6 Q16.451,22.75 12,22.75 Q7.549,22.75 4.4,19.6 Q1.25,16.451 1.25,12 Q1.25,8.422 3.4,5.551 Q3.586,5.302 3.893,5.258 Q4.201,5.213 4.449,5.4 Q4.698,5.586 4.742,5.893 Q4.787,6.201 4.6,6.449 Z"/>
</svg>

