<svg xmlns="http://www.w3.org/2000/svg" width="24" height="24" viewBox="0 0 24 24">
  <defs/>
  <path fill="#292D32" d="M20.69,13.918 C20.68,13.918 20.68,13.908 20.68,13.908 L20.68,13.898 C19.8,12.978 18.57,12.398 17.2,12.398 C14.55,12.398 12.4,14.548 12.4,17.198 C12.4,18.428 12.87,19.548 13.63,20.398 C14.51,21.378 15.78,21.998 17.2,21.998 C19.85,21.998 22,19.848 22,17.198 C22,15.928 21.5,14.778 20.69,13.918 Z M19.01,19.068 C18.87,19.208 18.67,19.288 18.48,19.288 C18.29,19.288 18.1,19.208 17.95,19.068 L17.21,18.328 L16.45,19.098 C16.3,19.238 16.11,19.318 15.92,19.318 C15.82,19.318 15.73,19.298 15.64,19.258 C15.55,19.228 15.46,19.168 15.39,19.098 C15.09,18.798 15.09,18.328 15.39,18.038 L16.15,17.268 L15.42,16.528 C15.12,16.238 15.12,15.758 15.42,15.468 C15.71,15.178 16.18,15.178 16.48,15.468 L17.21,16.208 L17.92,15.498 C18.22,15.208 18.69,15.208 18.98,15.498 C19.15,15.668 19.22,15.888 19.19,16.108 C19.18,16.278 19.11,16.438 18.98,16.558 L18.27,17.268 L19.01,18.008 C19.31,18.298 19.31,18.768 19.01,19.068 Z"/>
  <path fill="#292D32" d="M22,8.731 C22,9.921 21.81,11.021 21.48,12.041 C21.42,12.251 21.17,12.311 20.99,12.181 C19.9,11.371 18.57,10.941 17.2,10.941 C13.73,10.941 10.9,13.771 10.9,17.241 C10.9,18.321 11.18,19.381 11.71,20.321 C11.87,20.601 11.68,20.961 11.38,20.851 C8.97,20.031 4.1,17.041 2.52,12.041 C2.19,11.021 2,9.921 2,8.731 C2,5.641 4.49,3.141 7.56,3.141 C9.37,3.141 10.99,4.021 12,5.371 C13.01,4.021 14.63,3.141 16.44,3.141 C19.51,3.141 22,5.641 22,8.731 Z"/>
</svg>

