<svg xmlns="http://www.w3.org/2000/svg" width="24" height="24" viewBox="0 0 24 24">
  <defs/>
  <path fill="#292D32" d="M21.151,4.472 Q22.75,6.271 22.75,8.69 Q22.75,13.617 18.934,17.529 Q16.131,20.403 12.864,21.529 Q12,21.834 11.13,21.527 Q7.869,20.403 5.066,17.529 Q1.25,13.617 1.25,8.69 Q1.25,6.064 3.097,4.207 Q4.945,2.35 7.56,2.35 Q10.235,2.35 12,4.18 Q13.765,2.35 16.44,2.35 Q16.751,2.35 16.97,2.57 Q17.19,2.789 17.19,3.1 Q17.19,3.411 16.97,3.63 Q16.751,3.85 16.44,3.85 Q14.041,3.85 12.602,5.787 Q12.536,5.876 12.447,5.942 Q12.198,6.127 11.89,6.082 Q11.583,6.037 11.398,5.787 Q9.959,3.85 7.56,3.85 Q5.569,3.85 4.16,5.265 Q2.75,6.683 2.75,8.69 Q2.75,13.006 6.139,16.481 Q8.694,19.101 11.63,20.113 Q12,20.243 12.376,20.111 Q15.306,19.101 17.861,16.481 Q21.25,13.006 21.25,8.69 Q21.25,6.841 20.029,5.468 Q19.823,5.236 19.841,4.926 Q19.86,4.616 20.092,4.409 Q20.324,4.203 20.634,4.221 Q20.944,4.24 21.151,4.472 Z"/>
</svg>

