<svg xmlns="http://www.w3.org/2000/svg" width="24" height="24" viewBox="0 0 24 24">
  <defs/>
  <path fill="#292D32" d="M5.597,18.047 Q1.25,13.975 1.25,8.68 Q1.25,6.054 3.097,4.197 Q4.945,2.34 7.56,2.34 Q10.235,2.34 12,4.17 Q13.765,2.34 16.44,2.34 Q18.382,2.34 19.974,3.431 Q20.23,3.607 20.287,3.912 Q20.344,4.218 20.169,4.474 Q19.993,4.73 19.688,4.787 Q19.382,4.844 19.126,4.669 Q17.917,3.84 16.44,3.84 Q14.041,3.84 12.602,5.777 Q12.536,5.866 12.447,5.932 Q12.198,6.117 11.89,6.072 Q11.583,6.027 11.398,5.777 Q9.959,3.84 7.56,3.84 Q5.569,3.84 4.16,5.255 Q2.75,6.673 2.75,8.68 Q2.75,13.325 6.623,16.953 Q6.849,17.165 6.86,17.475 Q6.87,17.786 6.657,18.013 Q6.445,18.239 6.135,18.25 Q5.824,18.26 5.597,18.047 Z"/>
  <path fill="#292D32" d="M22.454,6.771 Q22.75,7.693 22.75,8.69 Q22.75,13.617 18.934,17.529 Q16.131,20.403 12.864,21.529 Q12,21.834 11.13,21.527 Q9.993,21.142 8.636,20.334 Q8.369,20.175 8.293,19.874 Q8.217,19.573 8.376,19.306 Q8.535,19.039 8.836,18.963 Q9.137,18.887 9.404,19.046 Q10.624,19.772 11.63,20.113 Q12,20.243 12.376,20.111 Q15.306,19.101 17.861,16.481 Q21.25,13.006 21.25,8.69 Q21.25,7.928 21.026,7.229 Q20.931,6.933 21.073,6.657 Q21.215,6.381 21.511,6.286 Q21.807,6.191 22.083,6.333 Q22.359,6.475 22.454,6.771 Z"/>
  <path fill="#292D32" d="M22.53,2.53 L2.53,22.53 Q2.311,22.75 2,22.75 Q1.689,22.75 1.47,22.53 Q1.25,22.311 1.25,22 Q1.25,21.689 1.47,21.47 L21.47,1.47 Q21.689,1.25 22,1.25 Q22.311,1.25 22.53,1.47 Q22.75,1.689 22.75,2 Q22.75,2.311 22.53,2.53 Z"/>
</svg>

