<svg xmlns="http://www.w3.org/2000/svg" width="24" height="24" viewBox="0 0 24 24">
  <defs/>
  <path d="M7.5,16.5 L7.5,7.5 Q7.5,7.189 7.72,6.97 Q7.939,6.75 8.25,6.75 Q8.561,6.75 8.78,6.97 Q9,7.189 9,7.5 L9,16.5 Q9,16.811 8.78,17.03 Q8.561,17.25 8.25,17.25 Q7.939,17.25 7.72,17.03 Q7.5,16.811 7.5,16.5 Z"/>
  <path d="M15,16.5 L15,7.5 Q15,7.189 15.22,6.97 Q15.439,6.75 15.75,6.75 Q16.061,6.75 16.28,6.97 Q16.5,7.189 16.5,7.5 L16.5,16.5 Q16.5,16.811 16.28,17.03 Q16.061,17.25 15.75,17.25 Q15.439,17.25 15.22,17.03 Q15,16.811 15,16.5 Z"/>
  <path d="M8.25,9.38 L15.75,9.38 Q16.061,9.38 16.28,9.6 Q16.5,9.819 16.5,10.13 Q16.5,10.441 16.28,10.66 Q16.061,10.88 15.75,10.88 L8.25,10.88 Q7.939,10.88 7.72,10.66 Q7.5,10.441 7.5,10.13 Q7.5,9.819 7.72,9.6 Q7.939,9.38 8.25,9.38 Z"/>
  <path d="M8.25,13.12 L15.75,13.12 Q16.061,13.12 16.28,13.34 Q16.5,13.559 16.5,13.87 Q16.5,14.181 16.28,14.4 Q16.061,14.62 15.75,14.62 L8.25,14.62 Q7.939,14.62 7.72,14.4 Q7.5,14.181 7.5,13.87 Q7.5,13.559 7.72,13.34 Q7.939,13.12 8.25,13.12 Z"/>
  <path fill="#17191C" d="M4.6,6.449 Q2.75,8.922 2.75,12 Q2.75,15.829 5.46,18.54 Q8.171,21.25 12,21.25 Q15.829,21.25 18.54,18.54 Q21.25,15.829 21.25,12 Q21.25,8.171 18.54,5.46 Q15.829,2.75 12,2.75 Q10.031,2.75 8.276,3.535 Q7.993,3.661 7.702,3.551 Q7.412,3.44 7.285,3.156 Q7.158,2.873 7.269,2.582 Q7.38,2.292 7.664,2.165 Q9.711,1.25 12,1.25 Q16.451,1.25 19.6,4.4 Q22.75,7.549 22.75,12 Q22.75,16.451 19.6,19.6 Q16.451,22.75 12,22.75 Q7.549,22.75 4.4,19.6 Q1.25,16.451 1.25,12 Q1.25,8.422 3.4,5.551 Q3.586,5.302 3.893,5.258 Q4.201,5.213 4.449,5.4 Q4.698,5.586 4.742,5.893 Q4.787,6.201 4.6,6.449 Z"/>
</svg>

