<svg xmlns="http://www.w3.org/2000/svg" width="24" height="24" viewBox="0 0 24 24">
  <defs/>
  <path d="M15,10.879 L9,10.879 L9,13.129 L15,13.129 L15,10.879 Z"/>
  <path d="M12,2 C6.48,2 2,6.48 2,12 C2,17.52 6.48,22 12,22 C17.52,22 22,17.52 22,12 C22,6.48 17.52,2 12,2 Z M16.5,16.5 C16.5,16.91 16.16,17.25 15.75,17.25 C15.34,17.25 15,16.91 15,16.5 L15,14.62 L9,14.62 L9,16.5 C9,16.91 8.66,17.25 8.25,17.25 C7.84,17.25 7.5,16.91 7.5,16.5 L7.5,7.5 C7.5,7.09 7.84,6.75 8.25,6.75 C8.66,6.75 9,7.09 9,7.5 L9,9.38 L15,9.38 L15,7.5 C15,7.09 15.34,6.75 15.75,6.75 C16.16,6.75 16.5,7.09 16.5,7.5 L16.5,16.5 Z"/>
</svg>

