<svg xmlns="http://www.w3.org/2000/svg" width="24" height="24" viewBox="0 0 24 24">
  <defs/>
  <path fill="#292D32" d="M6.75,17.4 L6.75,6.6 Q6.75,6.289 6.97,6.07 Q7.189,5.85 7.5,5.85 Q7.811,5.85 8.03,6.07 Q8.25,6.289 8.25,6.6 L8.25,17.4 Q8.25,17.711 8.03,17.93 Q7.811,18.15 7.5,18.15 Q7.189,18.15 6.97,17.93 Q6.75,17.711 6.75,17.4 Z"/>
  <path fill="#292D32" d="M7.5,9.006 L16.5,9.006 Q16.811,9.006 17.03,9.226 Q17.25,9.445 17.25,9.756 Q17.25,10.067 17.03,10.286 Q16.811,10.506 16.5,10.506 L7.5,10.506 Q7.189,10.506 6.97,10.286 Q6.75,10.067 6.75,9.756 Q6.75,9.445 6.97,9.226 Q7.189,9.006 7.5,9.006 Z"/>
  <path fill="#292D32" opacity="0.4" d="M12,24 C18.627,24 24,18.627 24,12 C24,5.373 18.627,0 12,0 C5.373,0 0,5.373 0,12 C0,18.627 5.373,24 12,24 Z"/>
  <path fill="#292D32" d="M16.5,18.3 C16.008,18.3 15.6,17.892 15.6,17.4 L15.6,6.6 C15.6,6.108 16.008,5.7 16.5,5.7 C16.992,5.7 17.4,6.108 17.4,6.6 L17.4,17.4 C17.4,17.892 16.992,18.3 16.5,18.3 Z"/>
  <path fill="#292D32" d="M16.5,15.144 L7.5,15.144 C7.008,15.144 7.6,14.736 7.6,14.244 C7.6,13.752 7.008,13.344 7.5,13.344 L16.5,13.344 C16.992,13.344 17.4,13.752 17.4,14.244 C17.4,14.736 16.992,15.144 16.5,15.144 Z"/>
</svg>

