<svg xmlns="http://www.w3.org/2000/svg" width="24" height="24" viewBox="0 0 24 24">
  <defs/>
  <path d="M8.25,17.25 C7.84,17.25 7.5,16.91 7.5,16.5 L7.5,7.5 C7.5,7.09 7.84,6.75 8.25,6.75 C8.66,6.75 9,7.09 9,7.5 L9,16.5 C9,16.91 8.66,17.25 8.25,17.25 Z"/>
  <path d="M15.75,17.25 C15.34,17.25 15,16.91 15,16.5 L15,7.5 C15,7.09 15.34,6.75 15.75,6.75 C16.16,6.75 16.5,7.09 16.5,7.5 L16.5,16.5 C16.5,16.91 16.16,17.25 15.75,17.25 Z"/>
  <path d="M15.75,10.88 L8.25,10.88 C7.84,10.88 7.5,10.54 7.5,10.13 C7.5,9.72 7.84,9.38 8.25,9.38 L15.75,9.38 C16.16,9.38 16.5,9.72 16.5,10.13 C16.5,10.54 16.16,10.88 15.75,10.88 Z"/>
  <path d="M15.75,14.62 L8.25,14.62 C7.84,14.62 7.5,14.28 7.5,13.87 C7.5,13.46 7.84,13.12 8.25,13.12 L15.75,13.12 C16.16,13.12 16.5,13.46 16.5,13.87 C16.5,14.28 16.16,14.62 15.75,14.62 Z"/>
  <path d="M12,22.75 C6.07,22.75 1.25,17.93 1.25,12 C1.25,6.07 6.07,1.25 12,1.25 C17.93,1.25 22.75,6.07 22.75,12 C22.75,17.93 17.93,22.75 12,22.75 Z M12,2.75 C6.9,2.75 2.75,6.9 2.75,12 C2.75,17.1 6.9,21.25 12,21.25 C17.1,21.25 21.25,17.1 21.25,12 C21.25,6.9 17.1,2.75 12,2.75 Z"/>
</svg>

