<svg xmlns="http://www.w3.org/2000/svg" width="24" height="24" viewBox="0 0 24 24">
  <defs/>
  <path fill="#17191C" d="M17.434,2.55 L22.865,12 L17.434,21.45 L6.566,21.45 L1.135,12 L6.566,2.55 Z M16.566,4.05 L7.434,4.05 L2.865,12 L7.434,19.95 L16.566,19.95 L21.135,12 L16.566,4.05 Z"/>
  <path fill="#17191C" d="M11.334,13.25 L13.662,17.294 L11.34,21.45 L6.56,21.45 L4.238,17.294 L6.566,13.25 Z M10.466,14.75 L7.434,14.75 L5.962,17.306 L7.44,19.95 L10.46,19.95 L11.938,17.306 L10.466,14.75 Z"/>
  <path fill="#17191C" d="M14.729,7.25 L18.868,14.297 L14.733,21.45 L6.561,21.45 L2.538,14.297 L6.565,7.25 Z M13.871,8.75 L7.435,8.75 L4.262,14.303 L7.439,19.95 L13.867,19.95 L17.132,14.303 L13.871,8.75 Z"/>
</svg>

