<svg xmlns="http://www.w3.org/2000/svg" width="24" height="24" viewBox="0 0 24 24">
  <defs/>
  <path d="M17.43,21.41 L6.56,21.41 L1.13,12 L6.56,2.59 L17.43,2.59 L22.86,12 L17.43,21.41 Z M7.43,19.91 L16.56,19.91 L21.13,12 L16.56,4.09 L7.43,4.09 L2.87,12 L7.43,19.91 Z"/>
  <path d="M11.31,21.41 L6.6,21.41 L4.24,17.33 L6.6,13.25 L11.31,13.25 L13.67,17.33 L11.31,21.41 Z M7.46,19.91 L10.44,19.91 L11.93,17.33 L10.44,14.75 L7.46,14.75 L5.97,17.33 L7.46,19.91 Z"/>
  <path d="M14.78,21.41 L6.6,21.41 L2.51,14.33 L6.6,7.25 L14.78,7.25 L18.87,14.33 L14.78,21.41 Z M7.47,19.91 L13.91,19.91 L17.13,14.33 L13.91,8.75 L7.47,8.75 L4.25,14.33 L7.47,19.91 Z"/>
</svg>

