<svg xmlns="http://www.w3.org/2000/svg" width="24" height="24" viewBox="0 0 24 24">
  <defs/>
  <path d="M5.16,8.025 L2.866,12 L7.433,19.91 L16.567,19.91 L21.134,12 L16.567,4.09 L7.433,4.09 L7.279,4.355 Q7.124,4.624 6.824,4.705 Q6.524,4.785 6.255,4.629 Q5.986,4.474 5.905,4.174 Q5.825,3.874 5.981,3.605 L6.351,2.965 Q6.567,2.59 7,2.59 L17,2.59 Q17.433,2.59 17.65,2.965 L22.65,11.625 Q22.866,12 22.65,12.375 L17.65,21.035 Q17.433,21.41 17,21.41 L7,21.41 Q6.567,21.41 6.35,21.035 L1.35,12.375 Q1.134,12 1.35,11.625 L3.86,7.275 Q4.016,7.006 4.316,6.926 Q4.616,6.845 4.885,7 Q5.154,7.156 5.234,7.456 Q5.315,7.756 5.16,8.025 Z"/>
  <path d="M10.87,13.25 Q11.302,13.25 11.518,13.624 L13.448,16.954 Q13.666,17.33 13.448,17.706 L11.518,21.036 Q11.302,21.41 10.87,21.41 L7.03,21.41 Q6.597,21.41 6.381,21.036 L4.451,17.706 Q4.233,17.33 4.451,16.954 L6.381,13.624 Q6.597,13.25 7.03,13.25 Z M10.437,14.75 L7.462,14.75 L5.966,17.33 L7.462,19.91 L10.437,19.91 L11.933,17.33 L10.437,14.75 Z"/>
  <path d="M14.341,7.25 Q14.774,7.25 14.99,7.625 L18.65,13.955 Q18.867,14.33 18.65,14.705 L14.99,21.035 Q14.774,21.41 14.341,21.41 L7.031,21.41 Q6.598,21.41 6.381,21.035 L2.731,14.705 Q2.515,14.33 2.731,13.955 L6.381,7.625 Q6.598,7.25 7.031,7.25 Z M13.908,8.75 L7.464,8.75 L4.247,14.33 L7.464,19.91 L13.908,19.91 L17.135,14.33 L13.908,8.75 Z"/>
</svg>

