<svg xmlns="http://www.w3.org/2000/svg" width="24" height="24" viewBox="0 0 24 24">
  <defs/>
  <path opacity="0.13" d="M10.87,14 L12.8,17.33 L10.88,20.66 L7,20.66 L5.09,17.35 L7.03,14 L10.87,14 Z"/>
  <path d="M10.54,14.078 L7.12,14.078 C6.94,14.078 6.78,14.178 6.69,14.328 L4.98,17.288 C4.89,17.438 4.89,17.638 4.98,17.788 L6.69,20.748 C6.78,20.898 6.94,20.998 7.12,20.998 L10.54,20.998 C10.72,20.998 10.88,20.898 10.97,20.748 L12.68,17.788 C12.77,17.638 12.77,17.438 12.68,17.288 L10.97,14.328 C10.88,14.168 10.72,14.078 10.54,14.078 Z"/>
  <path d="M22.24,11.738 C22.33,11.898 22.33,12.098 22.24,12.258 L17.31,20.788 C17.24,20.918 17.1,20.998 16.95,20.998 C16.63,20.998 16.43,20.648 16.59,20.378 L19.88,14.678 C19.97,14.518 19.97,14.318 19.88,14.158 L15.48,6.538 C15.39,6.378 15.22,6.278 15.03,6.278 L6.22,6.278 C6.03,6.278 5.87,6.378 5.77,6.538 L2.5,12.218 C2.33,12.518 1.9,12.518 1.72,12.218 C1.64,12.078 1.64,11.908 1.72,11.768 L6.64,3.248 C6.72,3.088 6.9,2.988 7.09,2.988 L16.88,2.988 C17.07,2.988 17.23,3.088 17.33,3.248 L22.24,11.738 Z"/>
  <path d="M18.089,14.682 L14.589,20.742 C14.499,20.902 14.329,21.002 14.139,21.002 L13.539,21.002 C13.139,21.002 12.889,20.572 13.089,20.222 L14.489,17.802 C14.579,17.642 14.579,17.442 14.489,17.282 L11.889,12.782 C11.789,12.622 11.609,12.522 11.419,12.522 L6.219,12.522 C6.029,12.522 5.869,12.622 5.769,12.782 L4.369,15.202 C4.169,15.552 3.669,15.552 3.469,15.202 L3.169,14.692 C3.079,14.532 3.079,14.332 3.169,14.172 L6.659,8.112 C6.749,7.952 6.919,7.852 7.109,7.852 L14.099,7.852 C14.289,7.852 14.449,7.952 14.549,8.112 L18.049,14.172 C18.169,14.322 18.169,14.532 18.089,14.682 Z"/>
</svg>

