<svg xmlns="http://www.w3.org/2000/svg" width="24" height="24" viewBox="0 0 24 24">
  <defs/>
  <path d="M17.433,2.59 L22.866,12 L17.433,21.41 L6.567,21.41 L1.134,12 L6.567,2.59 Z M16.567,4.09 L7.433,4.09 L2.866,12 L7.433,19.91 L16.567,19.91 L21.134,12 L16.567,4.09 Z"/>
  <path opacity="0.4" d="M11.302,13.25 L13.666,17.33 L11.302,21.41 L6.597,21.41 L4.233,17.33 L6.597,13.25 Z M10.437,14.75 L7.462,14.75 L5.966,17.33 L7.462,19.91 L10.437,19.91 L11.933,17.33 L10.437,14.75 Z"/>
  <path opacity="0.4" d="M14.773,7.25 L18.866,14.33 L14.773,21.41 L6.597,21.41 L2.514,14.33 L6.597,7.25 Z M13.907,8.75 L7.463,8.75 L4.246,14.33 L7.463,19.91 L13.907,19.91 L17.134,14.33 L13.907,8.75 Z"/>
</svg>

