<svg xmlns="http://www.w3.org/2000/svg" width="24" height="24" viewBox="0 0 24 24">
  <defs/>
  <path fill="#292D32" opacity="0.4" d="M16.19,2 L7.82,2 C4.18,2 2.01,4.17 2.01,7.81 L2.01,16.18 C2.01,19.82 4.18,21.99 7.82,21.99 L16.19,21.99 C19.83,21.99 22,19.82 22,16.18 L22,7.81 C22,4.17 19.83,2 16.19,2 Z"/>
  <path fill="#292D32" d="M8.55,14.55 L8.55,10.26 C9.39,9.95 10,9.15 10,8.2 C10,6.99 9.01,6 7.8,6 C6.59,6 5.6,6.99 5.6,8.2 C5.6,9.15 6.21,9.95 7.05,10.26 L7.05,14.55 C6.29,14.85 5.75,15.59 5.75,16.45 C5.75,17.58 6.67,18.5 7.8,18.5 C8.93,18.5 9.85,17.58 9.85,16.45 C9.85,15.59 9.31,14.85 8.55,14.55 Z"/>
  <path fill="#292D32" d="M17.499,14.55 L17.499,8.75 C17.499,7.79 16.709,7 15.749,7 L14.619,7 L14.829,6.83 C15.149,6.56 15.189,6.09 14.929,5.77 C14.659,5.45 14.189,5.41 13.869,5.67 L12.069,7.17 C11.899,7.31 11.799,7.52 11.799,7.75 C11.799,7.98 11.899,8.18 12.069,8.33 L13.869,9.83 C14.009,9.95 14.179,10 14.349,10 C14.559,10 14.779,9.91 14.929,9.73 C15.199,9.41 15.149,8.94 14.829,8.67 L14.619,8.5 L15.749,8.5 C15.889,8.5 15.999,8.61 15.999,8.75 L15.999,14.55 C15.239,14.85 14.699,15.59 14.699,16.45 C14.699,17.58 15.619,18.5 16.749,18.5 C17.879,18.5 18.799,17.58 18.799,16.45 C18.799,15.59 18.259,14.85 17.499,14.55 Z"/>
</svg>

