<svg xmlns="http://www.w3.org/2000/svg" width="24" height="24" viewBox="0 0 24 24">
  <defs/>
  <path fill="#292D32" d="M5,8 C6.657,8 8,6.657 8,5 C8,3.343 6.657,2 5,2 C3.343,2 2,3.343 2,5 C2,6.657 3.343,8 5,8 Z"/>
  <path fill="#292D32" d="M19,15 C20.657,15 22,13.657 22,12 C22,10.343 20.657,9 19,9 C17.343,9 16,10.343 16,12 C16,13.657 17.343,15 19,15 Z"/>
  <path fill="#292D32" d="M5,22 C6.657,22 8,20.657 8,19 C8,17.343 6.657,16 5,16 C3.343,16 2,17.343 2,19 C2,20.657 3.343,22 5,22 Z"/>
  <path fill="#292D32" d="M5,16.75 C4.59,16.75 4.25,16.41 4.25,16 L4.25,8 C4.25,7.59 4.59,7.25 5,7.25 C5.41,7.25 5.75,7.59 5.75,8 C5.75,10.19 6.81,11.25 9,11.25 L16,11.25 C16.41,11.25 16.75,11.59 16.75,12 C16.75,12.41 16.41,12.75 16,12.75 L9,12.75 C7.64,12.75 6.55,12.4 5.75,11.74 L5.75,16 C5.75,16.41 5.41,16.75 5,16.75 Z"/>
</svg>

