<svg xmlns="http://www.w3.org/2000/svg" width="24" height="24" viewBox="0 0 24 24">
  <defs/>
  <path fill="#292D32" opacity="0.4" d="M16.19,22 L7.82,22 C4.18,22 2.01,19.83 2.01,16.19 L2.01,7.82 C2.01,4.18 4.18,2.01 7.82,2.01 L16.19,2.01 C19.83,2.01 22,4.18 22,7.82 L22,16.19 C22,19.83 19.83,22 16.19,22 Z"/>
  <path fill="#292D32" d="M16.41,9.83 C15.8,11.57 14.16,12.74 12.32,12.74 C12.31,12.74 12.31,12.74 12.3,12.74 L10.24,12.73 C10.24,12.73 10.24,12.73 10.23,12.73 C9.47,12.73 8.81,13.24 8.61,13.97 C9.5,14.25 10.15,15.08 10.15,16.06 C10.15,17.27 9.16,18.26 7.95,18.26 C6.74,18.26 5.75,17.27 5.75,16.06 C5.75,15.17 6.29,14.4 7.05,14.06 L7.05,9.72 C6.29,9.42 5.75,8.68 5.75,7.82 C5.75,6.69 6.67,5.77 7.8,5.77 C8.93,5.77 9.85,6.69 9.85,7.82 C9.85,8.69 9.31,9.42 8.55,9.72 L8.55,11.74 C9.04,11.43 9.62,11.25 10.23,11.25 L10.24,11.25 L12.3,11.26 C13.48,11.3 14.53,10.54 14.95,9.44 C14.46,9.06 14.14,8.48 14.14,7.82 C14.14,6.69 15.06,5.77 16.19,5.77 C17.32,5.77 18.24,6.69 18.24,7.82 C18.25,8.86 17.44,9.72 16.41,9.83 Z"/>
</svg>

