<svg xmlns="http://www.w3.org/2000/svg" width="24" height="24" viewBox="0 0 24 24">
  <defs/>
  <path fill="#292D32" opacity="0.4" d="M16.19,2 L7.82,2 C4.18,2 2.01,4.17 2.01,7.81 L2.01,16.18 C2.01,19.82 4.18,21.99 7.82,21.99 L16.19,21.99 C19.83,21.99 22,19.82 22,16.18 L22,7.81 C22,4.17 19.83,2 16.19,2 Z"/>
  <path fill="#292D32" d="M16.41,14.17 C15.8,12.43 14.16,11.26 12.32,11.26 C12.31,11.26 12.31,11.26 12.3,11.26 L10.24,11.27 C10.24,11.27 10.24,11.27 10.23,11.27 C9.47,11.27 8.81,10.76 8.61,10.03 C9.5,9.75 10.15,8.92 10.15,7.94 C10.15,6.73 9.16,5.74 7.95,5.74 C6.74,5.74 5.75,6.73 5.75,7.94 C5.75,8.83 6.29,9.6 7.05,9.94 L7.05,14.28 C6.29,14.58 5.75,15.32 5.75,16.18 C5.75,17.31 6.67,18.23 7.8,18.23 C8.93,18.23 9.85,17.31 9.85,16.18 C9.85,15.31 9.31,14.58 8.55,14.28 L8.55,12.26 C9.04,12.57 9.62,12.75 10.23,12.75 L10.24,12.75 L12.3,12.74 C13.48,12.7 14.53,13.46 14.95,14.56 C14.46,14.94 14.14,15.52 14.14,16.18 C14.14,17.31 15.06,18.23 16.19,18.23 C17.32,18.23 18.24,17.31 18.24,16.18 C18.25,15.14 17.44,14.28 16.41,14.17 Z"/>
</svg>

