<svg xmlns="http://www.w3.org/2000/svg" width="24" height="24" viewBox="0 0 24 24">
  <defs/>
  <path fill="#292D32" d="M16.19,2 L7.81,2 C4.17,2 2,4.17 2,7.81 L2,16.18 C2,19.83 4.17,22 7.81,22 L16.18,22 C19.82,22 21.99,19.83 21.99,16.19 L21.99,7.81 C22,4.17 19.83,2 16.19,2 Z M16.2,18.25 C15.07,18.25 14.15,17.33 14.15,16.2 C14.15,15.54 14.47,14.96 14.96,14.58 C14.54,13.48 13.49,12.72 12.31,12.76 L10.25,12.77 L10.24,12.77 C9.63,12.77 9.05,12.59 8.56,12.28 L8.56,14.3 C9.32,14.6 9.86,15.34 9.86,16.2 C9.86,17.33 8.94,18.25 7.81,18.25 C6.68,18.25 5.76,17.33 5.76,16.2 C5.76,15.33 6.3,14.6 7.06,14.3 L7.06,9.95 C6.3,9.6 5.76,8.84 5.76,7.95 C5.76,6.74 6.75,5.75 7.96,5.75 C9.17,5.75 10.16,6.74 10.16,7.95 C10.16,8.93 9.51,9.75 8.62,10.04 C8.82,10.77 9.48,11.28 10.24,11.28 C10.24,11.28 10.24,11.28 10.25,11.28 L12.31,11.27 C12.32,11.27 12.32,11.27 12.33,11.27 C14.17,11.27 15.82,12.44 16.42,14.18 C17.45,14.29 18.26,15.15 18.26,16.21 C18.25,17.33 17.33,18.25 16.2,18.25 Z"/>
</svg>

