<svg xmlns="http://www.w3.org/2000/svg" width="24" height="24" viewBox="0 0 24 24">
  <defs/>
  <path fill="#292D32" d="M16.19,2 L7.81,2 C4.17,2 2,4.17 2,7.81 L2,16.18 C2,19.83 4.17,22 7.81,22 L16.18,22 C19.82,22 21.99,19.83 21.99,16.19 L21.99,7.81 C22,4.17 19.83,2 16.19,2 Z M9.85,16.45 C9.85,17.58 8.93,18.5 7.8,18.5 C6.67,18.5 5.75,17.58 5.75,16.45 C5.75,15.58 6.29,14.85 7.05,14.55 L7.05,10.26 C6.21,9.95 5.6,9.15 5.6,8.2 C5.6,6.99 6.59,6 7.8,6 C9.01,6 10,6.99 10,8.2 C10,9.15 9.39,9.95 8.55,10.26 L8.55,14.55 C9.31,14.85 9.85,15.59 9.85,16.45 Z M16.75,18.5 C15.62,18.5 14.7,17.58 14.7,16.45 C14.7,15.58 15.24,14.85 16,14.55 L16,8.75 C16,8.61 15.89,8.5 15.75,8.5 L14.62,8.5 L14.83,8.67 C15.15,8.94 15.19,9.41 14.93,9.73 C14.78,9.91 14.56,10 14.35,10 C14.18,10 14.01,9.94 13.87,9.83 L12.07,8.33 C11.9,8.18 11.8,7.97 11.8,7.75 C11.8,7.53 11.9,7.32 12.07,7.17 L13.87,5.67 C14.19,5.41 14.66,5.45 14.93,5.77 C15.2,6.09 15.15,6.56 14.83,6.83 L14.62,7 L15.75,7 C16.71,7 17.5,7.79 17.5,8.75 L17.5,14.55 C18.26,14.85 18.8,15.59 18.8,16.45 C18.8,17.58 17.88,18.5 16.75,18.5 Z"/>
</svg>

