<svg xmlns="http://www.w3.org/2000/svg" width="24" height="24" viewBox="0 0 24 24">
  <defs/>
  <path fill="#292D32" d="M18.75,22 C20.545,22 22,20.545 22,18.75 C22,16.955 20.545,15.5 18.75,15.5 C16.955,15.5 15.5,16.955 15.5,18.75 C15.5,20.545 16.955,22 18.75,22 Z"/>
  <path fill="#292D32" d="M19,8 C20.657,8 22,6.657 22,5 C22,3.343 20.657,2 19,2 C17.343,2 16,3.343 16,5 C16,6.657 17.343,8 19,8 Z"/>
  <path fill="#292D32" d="M5,8 C6.657,8 8,6.657 8,5 C8,3.343 6.657,2 5,2 C3.343,2 2,3.343 2,5 C2,6.657 3.343,8 5,8 Z"/>
  <path fill="#292D32" opacity="0.4" d="M4.83,8.02 C5.8,10.8 8.42,12.67 11.37,12.67 C11.38,12.67 11.39,12.67 11.4,12.67 L14.93,12.66 C16.45,12.64 17.81,13.67 18.22,15.15 L18.22,17 C18.22,17.42 18.56,17.76 18.98,17.76 C19.4,17.76 19.74,17.42 19.74,17 L19.74,5.78 C19.74,5.36 19.4,5.02 18.98,5.02 C18.56,5.02 18.22,5.36 18.22,5.78 L18.22,12.4 C17.34,11.62 16.19,11.14 14.94,11.14 C14.93,11.14 14.93,11.14 14.92,11.14 L11.39,11.15 C11.38,11.15 11.38,11.15 11.37,11.15 C9.08,11.15 7.03,9.7 6.28,7.53 C6.17,7.21 5.87,7.02 5.56,7.02 C5.48,7.02 5.39,7.03 5.31,7.06 C4.9,7.18 4.69,7.62 4.83,8.02 Z"/>
</svg>

