<svg xmlns="http://www.w3.org/2000/svg" width="24" height="24" viewBox="0 0 24 24">
  <defs/>
  <path fill="#292D32" d="M5.25,8.5 C7.045,8.5 8.5,7.045 8.5,5.25 C8.5,3.455 7.045,2 5.25,2 C3.455,2 2,3.455 2,5.25 C2,7.045 3.455,8.5 5.25,8.5 Z"/>
  <path fill="#292D32" d="M5,22 C6.657,22 8,20.657 8,19 C8,17.343 6.657,16 5,16 C3.343,16 2,17.343 2,19 C2,20.657 3.343,22 5,22 Z"/>
  <path fill="#292D32" d="M19,22 C20.657,22 22,20.657 22,19 C22,17.343 20.657,16 19,16 C17.343,16 16,17.343 16,19 C16,20.657 17.343,22 19,22 Z"/>
  <path fill="#292D32" d="M19.17,15.98 C18.2,13.2 15.58,11.33 12.63,11.33 C12.62,11.33 12.61,11.33 12.6,11.33 L9.07,11.34 C7.55,11.36 6.19,10.33 5.78,8.85 L5.78,7.01 C5.78,6.59 5.44,6.25 5.01,6.25 C4.58,6.25 4.25,6.59 4.25,7.01 L4.25,18.23 C4.25,18.65 4.59,18.99 5.01,18.99 C5.43,18.99 5.78,18.65 5.78,18.23 L5.78,11.61 C6.66,12.39 7.81,12.87 9.06,12.87 C9.07,12.87 9.07,12.87 9.08,12.87 L12.61,12.86 C12.62,12.86 12.62,12.86 12.63,12.86 C14.92,12.86 16.97,14.31 17.72,16.48 C17.84,16.8 18.13,17 18.45,17 C18.53,17 18.62,16.99 18.7,16.96 C19.1,16.82 19.31,16.38 19.17,15.98 Z"/>
</svg>

