<svg xmlns="http://www.w3.org/2000/svg" width="24" height="24" viewBox="0 0 24 24">
  <defs/>
  <path fill="#292D32" d="M5,15.75 C4.59,15.75 4.25,15.41 4.25,15 L4.25,8 C4.25,7.59 4.59,7.25 5,7.25 C5.41,7.25 5.75,7.59 5.75,8 L5.75,15 C5.75,15.41 5.41,15.75 5,15.75 Z"/>
  <path fill="#292D32" d="M5.25,22.75 C3.04,22.75 1.25,20.96 1.25,18.75 C1.25,16.54 3.04,14.75 5.25,14.75 C7.46,14.75 9.25,16.54 9.25,18.75 C9.25,20.96 7.46,22.75 5.25,22.75 Z M5.25,16.25 C3.87,16.25 2.75,17.37 2.75,18.75 C2.75,20.13 3.87,21.25 5.25,21.25 C6.63,21.25 7.75,20.13 7.75,18.75 C7.75,17.37 6.63,16.25 5.25,16.25 Z"/>
  <path fill="#292D32" d="M5,8.75 C2.93,8.75 1.25,7.07 1.25,5 C1.25,2.93 2.93,1.25 5,1.25 C7.07,1.25 8.75,2.93 8.75,5 C8.75,7.07 7.07,8.75 5,8.75 Z M5,2.75 C3.76,2.75 2.75,3.76 2.75,5 C2.75,6.24 3.76,7.25 5,7.25 C6.24,7.25 7.25,6.24 7.25,5 C7.25,3.76 6.24,2.75 5,2.75 Z"/>
  <path fill="#292D32" d="M19,8.75 C16.93,8.75 15.25,7.07 15.25,5 C15.25,2.93 16.93,1.25 19,1.25 C21.07,1.25 22.75,2.93 22.75,5 C22.75,7.07 21.07,8.75 19,8.75 Z M19,2.75 C17.76,2.75 16.75,3.76 16.75,5 C16.75,6.24 17.76,7.25 19,7.25 C20.24,7.25 21.25,6.24 21.25,5 C21.25,3.76 20.24,2.75 19,2.75 Z"/>
  <path fill="#292D32" d="M5.13,15.75 C5.07,15.75 5.01,15.74 4.94,15.73 C4.54,15.63 4.3,15.22 4.4,14.82 C4.95,12.7 6.86,11.22 9.05,11.22 C9.06,11.22 9.06,11.22 9.07,11.22 L12.5,11.23 C12.51,11.23 12.51,11.23 12.52,11.23 C14.74,11.23 16.73,9.82 17.46,7.72 C17.6,7.33 18.02,7.12 18.41,7.26 C18.8,7.4 19.01,7.82 18.87,8.21 C17.93,10.92 15.34,12.7 12.49,12.73 L9.06,12.72 L9.05,12.72 C7.54,12.72 6.23,13.74 5.85,15.2 C5.77,15.53 5.46,15.75 5.13,15.75 Z"/>
</svg>

