<svg xmlns="http://www.w3.org/2000/svg" width="24" height="24" viewBox="0 0 24 24">
  <defs/>
  <path fill="#292D32" d="M18.75,22 C20.545,22 22,20.545 22,18.75 C22,16.955 20.545,15.5 18.75,15.5 C16.955,15.5 15.5,16.955 15.5,18.75 C15.5,20.545 16.955,22 18.75,22 Z"/>
  <path fill="#292D32" d="M19,8 C20.657,8 22,6.657 22,5 C22,3.343 20.657,2 19,2 C17.343,2 16,3.343 16,5 C16,6.657 17.343,8 19,8 Z"/>
  <path fill="#292D32" d="M5,8 C6.657,8 8,6.657 8,5 C8,3.343 6.657,2 5,2 C3.343,2 2,3.343 2,5 C2,6.657 3.343,8 5,8 Z"/>
  <path fill="#292D32" d="M4.83,8.02 C5.8,10.8 8.42,12.67 11.37,12.67 C11.38,12.67 11.39,12.67 11.4,12.67 L14.931,12.66 C16.451,12.64 17.811,13.67 18.221,15.15 L18.221,17 C18.221,17.42 18.561,17.76 18.991,17.76 C19.41,17.76 19.75,17.42 19.75,17 L19.75,5.76 C19.75,5.34 19.41,5 18.991,5 C18.57,5 18.221,5.34 18.221,5.76 L18.221,12.38 C17.34,11.6 16.191,11.12 14.941,11.12 C14.931,11.12 14.931,11.12 14.921,11.12 L11.39,11.13 C11.38,11.13 11.38,11.13 11.37,11.13 C9.08,11.13 7.03,9.68 6.28,7.51 C6.16,7.2 5.87,7 5.55,7 C5.47,7 5.38,7.02 5.3,7.04 C4.9,7.18 4.69,7.62 4.83,8.02 Z"/>
</svg>

