<svg xmlns="http://www.w3.org/2000/svg" width="24" height="24" viewBox="0 0 24 24">
  <defs/>
  <path fill="#292D32" d="M7.801,15.15 C7.391,15.15 7.051,14.81 7.051,14.4 L7.051,10.2 C7.051,9.79 7.391,9.45 7.801,9.45 C8.211,9.45 8.551,9.79 8.551,10.2 L8.551,14.4 C8.551,14.81 8.211,15.15 7.801,15.15 Z"/>
  <path fill="#292D32" d="M7.95,10.65 C6.46,10.65 5.25,9.44 5.25,7.95 C5.25,6.46 6.46,5.25 7.95,5.25 C9.44,5.25 10.65,6.46 10.65,7.95 C10.65,9.44 9.44,10.65 7.95,10.65 Z M7.95,6.75 C7.29,6.75 6.75,7.29 6.75,7.95 C6.75,8.61 7.29,9.15 7.95,9.15 C8.61,9.15 9.15,8.61 9.15,7.95 C9.15,7.29 8.61,6.75 7.95,6.75 Z"/>
  <path fill="#292D32" d="M7.8,18.75 C6.39,18.75 5.25,17.61 5.25,16.2 C5.25,14.79 6.39,13.65 7.8,13.65 C9.21,13.65 10.35,14.79 10.35,16.2 C10.35,17.61 9.21,18.75 7.8,18.75 Z M7.8,15.15 C7.22,15.15 6.75,15.62 6.75,16.2 C6.75,16.78 7.22,17.25 7.8,17.25 C8.38,17.25 8.85,16.78 8.85,16.2 C8.85,15.62 8.38,15.15 7.8,15.15 Z"/>
  <path fill="#292D32" d="M16.2,18.75 C14.79,18.75 13.65,17.61 13.65,16.2 C13.65,14.79 14.79,13.65 16.2,13.65 C17.61,13.65 18.75,14.79 18.75,16.2 C18.75,17.61 17.61,18.75 16.2,18.75 Z M16.2,15.15 C15.62,15.15 15.15,15.62 15.15,16.2 C15.15,16.78 15.62,17.25 16.2,17.25 C16.78,17.25 17.25,16.78 17.25,16.2 C17.25,15.62 16.78,15.15 16.2,15.15 Z"/>
  <path fill="#292D32" d="M15.7,15.17 C15.39,15.17 15.1,14.98 14.99,14.67 C14.59,13.53 13.52,12.77 12.31,12.77 L12.3,12.77 L10.24,12.78 L10.23,12.78 C8.78,12.78 7.51,11.8 7.15,10.4 C7.05,10 7.29,9.59 7.69,9.49 C8.08,9.39 8.5,9.63 8.6,10.03 C8.79,10.77 9.46,11.29 10.23,11.29 C10.23,11.29 10.23,11.29 10.24,11.29 L12.3,11.28 C12.31,11.28 12.31,11.28 12.32,11.28 C14.16,11.28 15.81,12.45 16.42,14.19 C16.56,14.58 16.35,15.01 15.96,15.15 C15.87,15.16 15.78,15.17 15.7,15.17 Z"/>
  <path fill="#292D32" d="M15,22.75 L9,22.75 C3.57,22.75 1.25,20.43 1.25,15 L1.25,9 C1.25,3.57 3.57,1.25 9,1.25 L15,1.25 C20.43,1.25 22.75,3.57 22.75,9 L22.75,15 C22.75,20.43 20.43,22.75 15,22.75 Z M9,2.75 C4.39,2.75 2.75,4.39 2.75,9 L2.75,15 C2.75,19.61 4.39,21.25 9,21.25 L15,21.25 C19.61,21.25 21.25,19.61 21.25,15 L21.25,9 C21.25,4.39 19.61,2.75 15,2.75 L9,2.75 Z"/>
</svg>

