<svg xmlns="http://www.w3.org/2000/svg" width="24" height="24" viewBox="0 0 24 24">
  <defs/>
  <path fill="#292D32" d="M7.801,14.55 C7.391,14.55 7.051,14.21 7.051,13.8 L7.051,9.6 C7.051,9.19 7.391,8.85 7.801,8.85 C8.211,8.85 8.551,9.19 8.551,9.6 L8.551,13.8 C8.551,14.21 8.211,14.55 7.801,14.55 Z"/>
  <path fill="#292D32" d="M7.95,18.75 C6.46,18.75 5.25,17.54 5.25,16.05 C5.25,14.56 6.46,13.35 7.95,13.35 C9.44,13.35 10.65,14.56 10.65,16.05 C10.65,17.54 9.44,18.75 7.95,18.75 Z M7.95,14.85 C7.29,14.85 6.75,15.39 6.75,16.05 C6.75,16.71 7.29,17.25 7.95,17.25 C8.61,17.25 9.15,16.71 9.15,16.05 C9.15,15.39 8.61,14.85 7.95,14.85 Z"/>
  <path fill="#292D32" d="M7.8,10.35 C6.39,10.35 5.25,9.21 5.25,7.8 C5.25,6.39 6.39,5.25 7.8,5.25 C9.21,5.25 10.35,6.39 10.35,7.8 C10.35,9.21 9.21,10.35 7.8,10.35 Z M7.8,6.75 C7.22,6.75 6.75,7.22 6.75,7.8 C6.75,8.38 7.22,8.85 7.8,8.85 C8.38,8.85 8.85,8.38 8.85,7.8 C8.85,7.22 8.38,6.75 7.8,6.75 Z"/>
  <path fill="#292D32" d="M16.2,10.35 C14.79,10.35 13.65,9.21 13.65,7.8 C13.65,6.39 14.79,5.25 16.2,5.25 C17.61,5.25 18.75,6.39 18.75,7.8 C18.75,9.21 17.61,10.35 16.2,10.35 Z M16.2,6.75 C15.62,6.75 15.15,7.22 15.15,7.8 C15.15,8.38 15.62,8.85 16.2,8.85 C16.78,8.85 17.25,8.38 17.25,7.8 C17.25,7.22 16.78,6.75 16.2,6.75 Z"/>
  <path fill="#292D32" d="M7.88,14.55 C7.82,14.55 7.75,14.54 7.69,14.53 C7.29,14.43 7.05,14.02 7.15,13.62 C7.51,12.21 8.78,11.24 10.23,11.24 L10.24,11.24 L12.3,11.25 L12.31,11.25 C13.52,11.25 14.59,10.49 14.99,9.35 C15.13,8.96 15.56,8.75 15.94,8.89 C16.33,9.03 16.54,9.45 16.4,9.85 C15.79,11.6 14.15,12.77 12.29,12.76 L10.23,12.75 C10.23,12.75 10.23,12.75 10.22,12.75 C9.45,12.75 8.78,13.27 8.59,14.01 C8.52,14.33 8.21,14.55 7.88,14.55 Z"/>
  <path fill="#292D32" d="M15,22.75 L9,22.75 C3.57,22.75 1.25,20.43 1.25,15 L1.25,9 C1.25,3.57 3.57,1.25 9,1.25 L15,1.25 C20.43,1.25 22.75,3.57 22.75,9 L22.75,15 C22.75,20.43 20.43,22.75 15,22.75 Z M9,2.75 C4.39,2.75 2.75,4.39 2.75,9 L2.75,15 C2.75,19.61 4.39,21.25 9,21.25 L15,21.25 C19.61,21.25 21.25,19.61 21.25,15 L21.25,9 C21.25,4.39 19.61,2.75 15,2.75 L9,2.75 Z"/>
</svg>

