<svg xmlns="http://www.w3.org/2000/svg" width="24" height="24" viewBox="0 0 24 24">
  <defs/>
  <path fill="#292D32" d="M5,16.75 C4.59,16.75 4.25,16.41 4.25,16 L4.25,9 C4.25,8.59 4.59,8.25 5,8.25 C5.41,8.25 5.75,8.59 5.75,9 L5.75,16 C5.75,16.41 5.41,16.75 5,16.75 Z"/>
  <path fill="#292D32" d="M5.25,9.25 C3.04,9.25 1.25,7.46 1.25,5.25 C1.25,3.04 3.04,1.25 5.25,1.25 C7.46,1.25 9.25,3.04 9.25,5.25 C9.25,7.46 7.46,9.25 5.25,9.25 Z M5.25,2.75 C3.87,2.75 2.75,3.87 2.75,5.25 C2.75,6.63 3.87,7.75 5.25,7.75 C6.63,7.75 7.75,6.63 7.75,5.25 C7.75,3.87 6.63,2.75 5.25,2.75 Z"/>
  <path fill="#292D32" d="M5,22.75 C2.93,22.75 1.25,21.07 1.25,19 C1.25,16.93 2.93,15.25 5,15.25 C7.07,15.25 8.75,16.93 8.75,19 C8.75,21.07 7.07,22.75 5,22.75 Z M5,16.75 C3.76,16.75 2.75,17.76 2.75,19 C2.75,20.24 3.76,21.25 5,21.25 C6.24,21.25 7.25,20.24 7.25,19 C7.25,17.76 6.24,16.75 5,16.75 Z"/>
  <path fill="#292D32" d="M19,22.75 C16.93,22.75 15.25,21.07 15.25,19 C15.25,16.93 16.93,15.25 19,15.25 C21.07,15.25 22.75,16.93 22.75,19 C22.75,21.07 21.07,22.75 19,22.75 Z M19,16.75 C17.76,16.75 16.75,17.76 16.75,19 C16.75,20.24 17.76,21.25 19,21.25 C20.24,21.25 21.25,20.24 21.25,19 C21.25,17.76 20.24,16.75 19,16.75 Z"/>
  <path fill="#292D32" d="M18.17,16.79 C17.86,16.79 17.57,16.6 17.46,16.29 C16.73,14.19 14.75,12.78 12.52,12.78 C12.51,12.78 12.51,12.78 12.5,12.78 L9.07,12.79 C9.06,12.79 9.06,12.79 9.05,12.79 C6.86,12.79 4.95,11.31 4.4,9.19 C4.3,8.79 4.54,8.38 4.94,8.28 C5.34,8.18 5.75,8.42 5.85,8.82 C6.23,10.28 7.54,11.3 9.05,11.3 L9.06,11.3 L12.49,11.29 C12.5,11.29 12.51,11.29 12.52,11.29 C15.38,11.29 17.93,13.1 18.87,15.81 C19.01,16.2 18.8,16.63 18.41,16.76 C18.33,16.77 18.25,16.79 18.17,16.79 Z"/>
</svg>

