<svg xmlns="http://www.w3.org/2000/svg" width="24" height="24" viewBox="0 0 24 24">
  <defs/>
  <path fill="#292D32" d="M16.451,15.15 C16.041,15.15 15.701,14.81 15.701,14.4 L15.701,8.5 C15.701,8.36 15.591,8.25 15.451,8.25 L12.551,8.25 C12.141,8.25 11.801,7.91 11.801,7.5 C11.801,7.09 12.141,6.75 12.551,6.75 L15.451,6.75 C16.411,6.75 17.201,7.54 17.201,8.5 L17.201,14.4 C17.201,14.81 16.861,15.15 16.451,15.15 Z"/>
  <path fill="#292D32" d="M14.05,9.75 C13.88,9.75 13.71,9.69 13.57,9.58 L11.77,8.08 C11.6,7.94 11.5,7.73 11.5,7.5 C11.5,7.27 11.6,7.07 11.77,6.92 L13.57,5.42 C13.89,5.16 14.36,5.2 14.63,5.52 C14.9,5.84 14.85,6.31 14.53,6.58 L13.42,7.5 L14.53,8.42 C14.85,8.69 14.89,9.16 14.63,9.48 C14.48,9.66 14.26,9.75 14.05,9.75 Z"/>
  <path fill="#292D32" d="M7.551,15.15 C7.141,15.15 6.801,14.81 6.801,14.4 L6.801,10.2 C6.801,9.79 7.141,9.45 7.551,9.45 C7.961,9.45 8.301,9.79 8.301,10.2 L8.301,14.4 C8.301,14.81 7.961,15.15 7.551,15.15 Z"/>
  <path fill="#292D32" d="M7.7,10.65 C6.21,10.65 5,9.44 5,7.95 C5,6.46 6.21,5.25 7.7,5.25 C9.19,5.25 10.4,6.46 10.4,7.95 C10.4,9.44 9.19,10.65 7.7,10.65 Z M7.7,6.75 C7.04,6.75 6.5,7.29 6.5,7.95 C6.5,8.61 7.04,9.15 7.7,9.15 C8.36,9.15 8.9,8.61 8.9,7.95 C8.9,7.29 8.36,6.75 7.7,6.75 Z"/>
  <path fill="#292D32" d="M7.55,18.75 C6.14,18.75 5,17.61 5,16.2 C5,14.79 6.14,13.65 7.55,13.65 C8.96,13.65 10.1,14.79 10.1,16.2 C10.1,17.61 8.96,18.75 7.55,18.75 Z M7.55,15.15 C6.97,15.15 6.5,15.62 6.5,16.2 C6.5,16.78 6.97,17.25 7.55,17.25 C8.13,17.25 8.6,16.78 8.6,16.2 C8.6,15.62 8.13,15.15 7.55,15.15 Z"/>
  <path fill="#292D32" d="M16.45,18.75 C15.04,18.75 13.9,17.61 13.9,16.2 C13.9,14.79 15.04,13.65 16.45,13.65 C17.86,13.65 19,14.79 19,16.2 C19,17.61 17.86,18.75 16.45,18.75 Z M16.45,15.15 C15.87,15.15 15.4,15.62 15.4,16.2 C15.4,16.78 15.87,17.25 16.45,17.25 C17.03,17.25 17.5,16.78 17.5,16.2 C17.5,15.62 17.03,15.15 16.45,15.15 Z"/>
  <path fill="#292D32" d="M15,22.75 L9,22.75 C3.57,22.75 1.25,20.43 1.25,15 L1.25,9 C1.25,3.57 3.57,1.25 9,1.25 L15,1.25 C20.43,1.25 22.75,3.57 22.75,9 L22.75,15 C22.75,20.43 20.43,22.75 15,22.75 Z M9,2.75 C4.39,2.75 2.75,4.39 2.75,9 L2.75,15 C2.75,19.61 4.39,21.25 9,21.25 L15,21.25 C19.61,21.25 21.25,19.61 21.25,15 L21.25,9 C21.25,4.39 19.61,2.75 15,2.75 L9,2.75 Z"/>
</svg>

