<svg xmlns="http://www.w3.org/2000/svg" width="24" height="24" viewBox="0 0 24 24">
  <defs/>
  <g opacity="0.4">
    <path fill="#292D32" d="M7.051,13.8 L7.051,9.6 Q7.051,9.289 7.27,9.07 Q7.49,8.85 7.801,8.85 Q8.111,8.85 8.331,9.07 Q8.551,9.289 8.551,9.6 L8.551,13.8 Q8.551,14.111 8.331,14.33 Q8.111,14.55 7.801,14.55 Q7.49,14.55 7.27,14.33 Q7.051,14.111 7.051,13.8 Z"/>
    <path fill="#292D32" d="M7.95,18.75 Q6.832,18.75 6.041,17.959 Q5.25,17.168 5.25,16.05 Q5.25,14.932 6.041,14.141 Q6.832,13.35 7.95,13.35 Q9.068,13.35 9.859,14.141 Q10.65,14.932 10.65,16.05 Q10.65,18.75 7.95,18.75 Z M7.95,17.25 Q9.15,17.25 9.15,16.05 Q9.15,15.553 8.799,15.202 Q8.447,14.85 7.95,14.85 Q6.75,14.85 6.75,16.05 Q6.75,17.25 7.95,17.25 Z"/>
    <path fill="#292D32" d="M7.8,10.35 Q6.525,10.35 5.888,9.713 Q5.25,9.075 5.25,7.8 Q5.25,6.744 5.997,5.997 Q6.744,5.25 7.8,5.25 Q8.856,5.25 9.603,5.997 Q10.35,6.744 10.35,7.8 Q10.35,8.856 9.603,9.603 Q8.856,10.35 7.8,10.35 Z M7.8,8.85 Q8.85,8.85 8.85,7.8 Q8.85,7.365 8.542,7.058 Q8.235,6.75 7.8,6.75 Q7.365,6.75 7.058,7.058 Q6.75,7.365 6.75,7.8 Q6.75,8.325 7.013,8.588 Q7.275,8.85 7.8,8.85 Z"/>
    <path fill="#292D32" d="M16.2,10.35 Q13.65,10.35 13.65,7.8 Q13.65,6.744 14.397,5.997 Q15.144,5.25 16.2,5.25 Q17.257,5.25 18.004,5.997 Q18.75,6.744 18.75,7.8 Q18.75,10.35 16.2,10.35 Z M16.2,8.85 Q17.25,8.85 17.25,7.8 Q17.25,7.365 16.943,7.058 Q16.635,6.75 16.2,6.75 Q15.765,6.75 15.458,7.058 Q15.15,7.365 15.15,7.8 Q15.15,8.325 15.413,8.588 Q15.675,8.85 16.2,8.85 Z"/>
    <path fill="#292D32" d="M7.153,13.613 Q7.771,11.208 10.246,11.23 L12.303,11.24 Q14.324,11.253 14.99,9.334 Q15.092,9.04 15.372,8.905 Q15.652,8.77 15.945,8.872 Q16.239,8.974 16.374,9.253 Q16.509,9.533 16.407,9.826 Q15.388,12.76 12.295,12.74 L10.232,12.73 Q8.931,12.719 8.605,13.987 Q8.528,14.288 8.26,14.446 Q7.993,14.604 7.692,14.526 Q7.391,14.449 7.233,14.182 Q7.075,13.914 7.153,13.613 Z"/>
  </g>
  <path fill="#292D32" d="M9,1.25 L15,1.25 Q22.75,1.25 22.75,9 L22.75,15 Q22.75,22.75 15,22.75 L9,22.75 Q1.25,22.75 1.25,15 L1.25,9 Q1.25,1.25 9,1.25 Z M9,2.75 Q2.75,2.75 2.75,9 L2.75,15 Q2.75,21.25 9,21.25 L15,21.25 Q18.439,21.25 19.845,19.845 Q21.25,18.439 21.25,15 L21.25,9 Q21.25,5.561 19.845,4.155 Q18.439,2.75 15,2.75 Z"/>
</svg>

