<svg xmlns="http://www.w3.org/2000/svg" width="24" height="24" viewBox="0 0 24 24">
  <defs/>
  <path fill="#292D32" d="M16.19,2 L7.81,2 C4.17,2 2,4.17 2,7.81 L2,16.18 C2,19.83 4.17,22 7.81,22 L16.18,22 C19.82,22 21.99,19.83 21.99,16.19 L21.99,7.81 C22,4.17 19.83,2 16.19,2 Z M16.41,9.83 C15.8,11.57 14.16,12.74 12.32,12.74 C12.31,12.74 12.31,12.74 12.3,12.74 L10.24,12.73 C10.24,12.73 10.24,12.73 10.23,12.73 C9.47,12.73 8.81,13.24 8.61,13.97 C9.5,14.25 10.15,15.08 10.15,16.06 C10.15,17.27 9.16,18.26 7.95,18.26 C6.74,18.26 5.75,17.27 5.75,16.06 C5.75,15.17 6.29,14.4 7.05,14.06 L7.05,9.7 C6.29,9.4 5.75,8.66 5.75,7.8 C5.75,6.67 6.67,5.75 7.8,5.75 C8.93,5.75 9.85,6.67 9.85,7.8 C9.85,8.67 9.31,9.4 8.55,9.7 L8.55,11.72 C9.04,11.41 9.62,11.23 10.23,11.23 L10.24,11.23 L12.3,11.24 C13.48,11.28 14.53,10.52 14.95,9.42 C14.46,9.04 14.14,8.46 14.14,7.8 C14.14,6.67 15.06,5.75 16.19,5.75 C17.32,5.75 18.24,6.67 18.24,7.8 C18.25,8.86 17.44,9.72 16.41,9.83 Z"/>
</svg>

