<svg xmlns="http://www.w3.org/2000/svg" width="24" height="24" viewBox="0 0 24 24">
  <defs/>
  <path fill="#292D32" d="M15.7,14.4 L15.7,8.5 Q15.7,8.25 15.45,8.25 L12.55,8.25 Q12.239,8.25 12.02,8.03 Q11.8,7.811 11.8,7.5 Q11.8,7.189 12.02,6.97 Q12.239,6.75 12.55,6.75 L15.45,6.75 Q17.2,6.75 17.2,8.5 L17.2,14.4 Q17.2,14.711 16.98,14.93 Q16.761,15.15 16.45,15.15 Q16.139,15.15 15.92,14.93 Q15.7,14.711 15.7,14.4 Z"/>
  <path fill="#292D32" d="M14.53,6.576 L13.422,7.5 L14.53,8.424 Q14.769,8.623 14.797,8.932 Q14.825,9.241 14.626,9.48 Q14.427,9.719 14.118,9.747 Q13.809,9.775 13.57,9.576 L11.77,8.076 Q11.717,8.033 11.674,7.98 Q11.475,7.741 11.503,7.432 Q11.531,7.123 11.77,6.924 L13.57,5.424 Q13.809,5.225 14.118,5.253 Q14.427,5.281 14.626,5.52 Q14.825,5.759 14.797,6.068 Q14.769,6.377 14.53,6.576 Z"/>
  <path fill="#292D32" d="M8.3,10.2 L8.3,14.4 Q8.3,14.711 8.08,14.93 Q7.861,15.15 7.55,15.15 Q7.239,15.15 7.02,14.93 Q6.8,14.711 6.8,14.4 L6.8,10.2 Q6.8,9.889 7.02,9.67 Q7.239,9.45 7.55,9.45 Q7.861,9.45 8.08,9.67 Q8.3,9.889 8.3,10.2 Z"/>
  <path fill="#292D32" d="M7.7,10.65 Q6.582,10.65 5.791,9.859 Q5,9.068 5,7.95 Q5,5.25 7.7,5.25 Q8.818,5.25 9.609,6.041 Q10.4,6.832 10.4,7.95 Q10.4,10.65 7.7,10.65 Z M7.7,9.15 Q8.197,9.15 8.549,8.799 Q8.9,8.447 8.9,7.95 Q8.9,6.75 7.7,6.75 Q7.203,6.75 6.851,7.101 Q6.5,7.453 6.5,7.95 Q6.5,8.447 6.851,8.799 Q7.203,9.15 7.7,9.15 Z"/>
  <path fill="#292D32" d="M7.55,18.75 Q6.275,18.75 5.638,18.112 Q5,17.475 5,16.2 Q5,13.65 7.55,13.65 Q8.606,13.65 9.353,14.397 Q10.1,15.144 10.1,16.2 Q10.1,17.256 9.353,18.003 Q8.606,18.75 7.55,18.75 Z M7.55,17.25 Q8.6,17.25 8.6,16.2 Q8.6,15.765 8.292,15.457 Q7.985,15.15 7.55,15.15 Q7.115,15.15 6.808,15.457 Q6.5,15.765 6.5,16.2 Q6.5,16.725 6.763,16.987 Q7.025,17.25 7.55,17.25 Z"/>
  <path fill="#292D32" d="M16.45,18.75 Q13.9,18.75 13.9,16.2 Q13.9,13.65 16.45,13.65 Q17.506,13.65 18.253,14.397 Q19,15.144 19,16.2 Q19,18.75 16.45,18.75 Z M16.45,17.25 Q17.5,17.25 17.5,16.2 Q17.5,15.765 17.192,15.457 Q16.885,15.15 16.45,15.15 Q15.4,15.15 15.4,16.2 Q15.4,17.25 16.45,17.25 Z"/>
  <path fill="#292D32" d="M9,22.75 Q1.25,22.75 1.25,15 L1.25,9 Q1.25,1.25 9,1.25 L15,1.25 Q22.75,1.25 22.75,9 L22.75,15 Q22.75,22.75 15,22.75 Z M9,21.25 L15,21.25 Q18.439,21.25 19.845,19.845 Q21.25,18.439 21.25,15 L21.25,9 Q21.25,2.75 15,2.75 L9,2.75 Q2.75,2.75 2.75,9 L2.75,15 Q2.75,18.439 4.155,19.845 Q5.561,21.25 9,21.25 Z"/>
</svg>

