<svg xmlns="http://www.w3.org/2000/svg" width="24" height="24" viewBox="0 0 24 24">
  <defs/>
  <path fill="#292D32" d="M5,8.75 C2.93,8.75 1.25,7.07 1.25,5 C1.25,2.93 2.93,1.25 5,1.25 C7.07,1.25 8.75,2.93 8.75,5 C8.75,7.07 7.07,8.75 5,8.75 Z M5,2.75 C3.76,2.75 2.75,3.76 2.75,5 C2.75,6.24 3.76,7.25 5,7.25 C6.24,7.25 7.25,6.24 7.25,5 C7.25,3.76 6.24,2.75 5,2.75 Z"/>
  <path fill="#292D32" d="M19,15.75 C16.93,15.75 15.25,14.07 15.25,12 C15.25,9.93 16.93,8.25 19,8.25 C21.07,8.25 22.75,9.93 22.75,12 C22.75,14.07 21.07,15.75 19,15.75 Z M19,9.75 C17.76,9.75 16.75,10.76 16.75,12 C16.75,13.24 17.76,14.25 19,14.25 C20.24,14.25 21.25,13.24 21.25,12 C21.25,10.76 20.24,9.75 19,9.75 Z"/>
  <path fill="#292D32" d="M5,22.75 C2.93,22.75 1.25,21.07 1.25,19 C1.25,16.93 2.93,15.25 5,15.25 C7.07,15.25 8.75,16.93 8.75,19 C8.75,21.07 7.07,22.75 5,22.75 Z M5,16.75 C3.76,16.75 2.75,17.76 2.75,19 C2.75,20.24 3.76,21.25 5,21.25 C6.24,21.25 7.25,20.24 7.25,19 C7.25,17.76 6.24,16.75 5,16.75 Z"/>
  <path fill="#292D32" d="M5,16.75 C4.59,16.75 4.25,16.41 4.25,16 L4.25,8 C4.25,7.59 4.59,7.25 5,7.25 C5.41,7.25 5.75,7.59 5.75,8 C5.75,10.19 6.81,11.25 9,11.25 L16,11.25 C16.41,11.25 16.75,11.59 16.75,12 C16.75,12.41 16.41,12.75 16,12.75 L9,12.75 C7.64,12.75 6.55,12.4 5.75,11.74 L5.75,16 C5.75,16.41 5.41,16.75 5,16.75 Z"/>
</svg>

