<svg xmlns="http://www.w3.org/2000/svg" width="24" height="24" viewBox="0 0 24 24">
  <defs/>
  <path fill="#292D32" d="M5.25,8.5 C7.045,8.5 8.5,7.045 8.5,5.25 C8.5,3.455 7.045,2 5.25,2 C3.455,2 2,3.455 2,5.25 C2,7.045 3.455,8.5 5.25,8.5 Z"/>
  <path fill="#292D32" d="M5,22 C6.657,22 8,20.657 8,19 C8,17.343 6.657,16 5,16 C3.343,16 2,17.343 2,19 C2,20.657 3.343,22 5,22 Z"/>
  <path fill="#292D32" d="M19,22 C20.657,22 22,20.657 22,19 C22,17.343 20.657,16 19,16 C17.343,16 16,17.343 16,19 C16,20.657 17.343,22 19,22 Z"/>
  <path fill="#292D32" opacity="0.4" d="M19.17,15.98 C18.2,13.2 15.58,11.33 12.63,11.33 C12.62,11.33 12.61,11.33 12.6,11.33 L9.07,11.34 C7.55,11.36 6.19,10.33 5.78,8.85 L5.78,7 C5.78,6.58 5.44,6.24 5.01,6.24 C4.58,6.24 4.25,6.58 4.25,7 L4.25,18.22 C4.25,18.64 4.59,18.98 5.01,18.98 C5.43,18.98 5.78,18.64 5.78,18.22 L5.78,11.6 C6.66,12.38 7.81,12.86 9.06,12.86 C9.07,12.86 9.07,12.86 9.08,12.86 L12.61,12.85 C12.62,12.85 12.62,12.85 12.63,12.85 C14.92,12.85 16.97,14.3 17.72,16.47 C17.83,16.79 18.13,16.98 18.44,16.98 C18.52,16.98 18.61,16.97 18.69,16.94 C19.1,16.82 19.31,16.38 19.17,15.98 Z"/>
</svg>

