<svg xmlns="http://www.w3.org/2000/svg" width="24" height="24" viewBox="0 0 24 24">
  <defs/>
  <path fill="#292D32" d="M17.79,22.74 L6.21,22.74 C3.47,22.74 1.25,20.51 1.25,17.77 L1.25,10.36 C1.25,9 2.09,7.29 3.17,6.45 L8.56,2.25 C10.18,0.99 12.77,0.93 14.45,2.11 L20.63,6.44 C21.82,7.27 22.75,9.05 22.75,10.5 L22.75,17.78 C22.75,20.51 20.53,22.74 17.79,22.74 Z M9.48,3.43 L4.09,7.63 C3.38,8.19 2.75,9.46 2.75,10.36 L2.75,17.77 C2.75,19.68 4.3,21.24 6.21,21.24 L17.79,21.24 C19.7,21.24 21.25,19.69 21.25,17.78 L21.25,10.5 C21.25,9.54 20.56,8.21 19.77,7.67 L13.59,3.34 C12.45,2.54 10.57,2.58 9.48,3.43 Z"/>
  <path fill="#292D32" d="M13.5,18.75 L10.5,18.75 C8.43,18.75 6.75,17.07 6.75,15 L6.75,12 C6.75,9.93 8.43,8.25 10.5,8.25 L13.5,8.25 C15.57,8.25 17.25,9.93 17.25,12 L17.25,15 C17.25,17.07 15.57,18.75 13.5,18.75 Z M10.5,9.75 C9.26,9.75 8.25,10.76 8.25,12 L8.25,15 C8.25,16.24 9.26,17.25 10.5,17.25 L13.5,17.25 C14.74,17.25 15.75,16.24 15.75,15 L15.75,12 C15.75,10.76 14.74,9.75 13.5,9.75 L10.5,9.75 Z"/>
  <path fill="#292D32" d="M12,18.75 C11.59,18.75 11.25,18.41 11.25,18 L11.25,9 C11.25,8.59 11.59,8.25 12,8.25 C12.41,8.25 12.75,8.59 12.75,9 L12.75,18 C12.75,18.41 12.41,18.75 12,18.75 Z"/>
  <path fill="#292D32" d="M16.5,14.25 L7.5,14.25 C7.09,14.25 6.75,13.91 6.75,13.5 C6.75,13.09 7.09,12.75 7.5,12.75 L16.5,12.75 C16.91,12.75 17.25,13.09 17.25,13.5 C17.25,13.91 16.91,14.25 16.5,14.25 Z"/>
</svg>

