<svg xmlns="http://www.w3.org/2000/svg" width="24" height="24" viewBox="0 0 24 24">
  <defs/>
  <path fill="#292D32" opacity="0.4" d="M10.069,2.82 L3.139,8.37 C2.359,8.99 1.859,10.3 2.029,11.28 L3.359,19.24 C3.599,20.66 4.959,21.81 6.399,21.81 L17.599,21.81 C19.029,21.81 20.399,20.65 20.639,19.24 L21.969,11.28 C22.129,10.3 21.629,8.99 20.859,8.37 L13.929,2.83 C12.859,1.97 11.129,1.97 10.069,2.82 Z"/>
  <path fill="#292D32" d="M14.12,15.13 C13.931,15.13 13.751,15.06 13.601,14.92 C12.63,13.99 11.371,13.99 10.391,14.92 C10.091,15.21 9.621,15.2 9.331,14.9 C9.041,14.6 9.051,14.13 9.351,13.84 C10.9,12.35 13.07,12.35 14.63,13.84 C14.931,14.13 14.941,14.6 14.65,14.9 C14.521,15.05 14.32,15.13 14.12,15.13 Z"/>
  <path fill="#292D32" d="M16.24,13.01 C16.05,13.01 15.86,12.94 15.72,12.8 C15.25,12.34 14.72,11.97 14.16,11.7 C12.76,11.03 11.23,11.03 9.84,11.7 C9.28,11.97 8.76,12.34 8.28,12.8 C7.99,13.09 7.51,13.09 7.22,12.79 C6.93,12.49 6.94,12.02 7.23,11.73 C7.82,11.15 8.48,10.69 9.19,10.35 C11,9.48 13,9.48 14.8,10.35 C15.51,10.69 16.17,11.15 16.76,11.73 C17.06,12.02 17.06,12.49 16.77,12.79 C16.63,12.93 16.44,13.01 16.24,13.01 Z"/>
  <path fill="#292D32" d="M12.001,17.5 C11.741,17.5 11.491,17.4 11.29,17.21 C10.9,16.82 10.9,16.19 11.29,15.8 C11.681,15.41 12.32,15.41 12.71,15.8 C13.101,16.19 13.101,16.82 12.71,17.21 C12.511,17.4 12.261,17.5 12.001,17.5 Z"/>
</svg>

