<svg xmlns="http://www.w3.org/2000/svg" width="24" height="24" viewBox="0 0 24 24">
  <defs/>
  <path fill="#292D32" opacity="0.4" d="M10.069,2.82 L3.139,8.37 C2.359,8.99 1.859,10.3 2.029,11.28 L3.359,19.24 C3.599,20.66 4.959,21.81 6.399,21.81 L17.599,21.81 C19.029,21.81 20.399,20.65 20.639,19.24 L21.969,11.28 C22.129,10.3 21.629,8.99 20.859,8.37 L13.929,2.83 C12.859,1.97 11.129,1.97 10.069,2.82 Z"/>
  <path fill="#292D32" d="M12,15.5 C13.381,15.5 14.5,14.381 14.5,13 C14.5,11.619 13.381,10.5 12,10.5 C10.619,10.5 9.5,11.619 9.5,13 C9.5,14.381 10.619,15.5 12,15.5 Z"/>
</svg>

