<svg xmlns="http://www.w3.org/2000/svg" width="24" height="24" viewBox="0 0 24 24">
  <defs/>
  <path fill="#292D32" opacity="0.4" d="M20.83,8.01 L14.28,2.77 C13,1.75 11,1.74 9.73,2.76 L3.18,8.01 C2.24,8.76 1.67,10.26 1.87,11.44 L3.13,18.98 C3.42,20.67 4.99,22 6.7,22 L17.3,22 C18.99,22 20.59,20.64 20.88,18.97 L22.14,11.43 C22.32,10.26 21.75,8.76 20.83,8.01 Z"/>
  <path fill="#292D32" d="M12,18.75 C11.59,18.75 11.25,18.41 11.25,18 L11.25,15 C11.25,14.59 11.59,14.25 12,14.25 C12.41,14.25 12.75,14.59 12.75,15 L12.75,18 C12.75,18.41 12.41,18.75 12,18.75 Z"/>
</svg>

