<svg xmlns="http://www.w3.org/2000/svg" width="24" height="24" viewBox="0 0 24 24">
  <defs/>
  <path fill="#292D32" d="M20.859,8.37 L13.929,2.83 C12.859,1.97 11.129,1.97 10.069,2.82 L3.139,8.37 C2.359,8.99 1.859,10.3 2.029,11.28 L3.359,19.24 C3.599,20.66 4.959,21.81 6.399,21.81 L17.599,21.81 C19.029,21.81 20.399,20.65 20.639,19.24 L21.969,11.28 C22.129,10.3 21.629,8.99 20.859,8.37 Z M12.709,17.2 C12.509,17.4 12.259,17.5 11.999,17.5 C11.739,17.5 11.489,17.4 11.289,17.21 C10.899,16.82 10.899,16.19 11.289,15.8 C11.679,15.41 12.319,15.41 12.709,15.8 C13.099,16.18 13.099,16.81 12.709,17.2 Z M14.659,14.9 C14.509,15.05 14.319,15.13 14.119,15.13 C13.929,15.13 13.749,15.06 13.599,14.92 C12.629,13.99 11.369,13.99 10.389,14.92 C10.089,15.21 9.619,15.2 9.329,14.9 C9.039,14.6 9.049,14.13 9.349,13.84 C10.899,12.35 13.069,12.35 14.629,13.84 C14.939,14.12 14.949,14.6 14.659,14.9 Z M16.779,12.78 C16.629,12.93 16.439,13.01 16.239,13.01 C16.049,13.01 15.859,12.94 15.719,12.8 C15.249,12.34 14.719,11.97 14.159,11.7 C12.759,11.03 11.229,11.03 9.839,11.7 C9.279,11.97 8.759,12.34 8.279,12.8 C7.989,13.09 7.509,13.09 7.219,12.79 C6.929,12.49 6.939,12.02 7.229,11.73 C7.819,11.15 8.479,10.69 9.189,10.35 C10.999,9.48 12.999,9.48 14.799,10.35 C15.509,10.69 16.169,11.15 16.759,11.73 C17.059,12.01 17.069,12.49 16.779,12.78 Z"/>
</svg>

