<svg xmlns="http://www.w3.org/2000/svg" width="24" height="24" viewBox="0 0 24 24">
  <defs/>
  <path fill="#292D32" opacity="0.4" d="M20.04,6.82 L14.28,2.79 C12.71,1.69 10.3,1.75 8.79,2.92 L3.78,6.83 C2.78,7.61 1.99,9.21 1.99,10.47 L1.99,17.37 C1.99,19.92 4.06,22 6.61,22 L17.39,22 C19.94,22 22.01,19.93 22.01,17.38 L22.01,10.6 C22.01,9.25 21.14,7.59 20.04,6.82 Z"/>
  <path fill="#292D32" d="M16.83,11.27 C16.76,11.1 16.62,10.96 16.45,10.89 C16.36,10.85 16.27,10.84 16.18,10.84 L14.32,10.84 C13.93,10.84 13.62,11.15 13.62,11.54 C13.62,11.93 13.93,12.24 14.32,12.24 L14.5,12.24 L12.39,14.35 L11.37,12.83 C11.25,12.66 11.07,12.54 10.86,12.52 C10.64,12.5 10.45,12.57 10.3,12.72 L7.32,15.7 C7.05,15.97 7.05,16.41 7.32,16.69 C7.46,16.83 7.63,16.89 7.81,16.89 C7.99,16.89 8.17,16.82 8.3,16.69 L10.68,14.31 L11.7,15.83 C11.82,16 12,16.12 12.21,16.14 C12.43,16.16 12.62,16.09 12.77,15.94 L15.49,13.22 L15.49,13.4 C15.49,13.79 15.8,14.1 16.19,14.1 C16.58,14.1 16.89,13.79 16.89,13.4 L16.89,11.54 C16.88,11.44 16.87,11.35 16.83,11.27 Z"/>
</svg>

