<svg xmlns="http://www.w3.org/2000/svg" width="24" height="24" viewBox="0 0 24 24">
  <defs/>
  <path fill="#292D32" d="M1.29,11.408 Q0.905,9.188 2.673,7.783 L9.6,2.234 Q11.996,0.314 14.399,2.245 L21.328,7.784 Q23.071,9.188 22.709,11.401 L21.379,19.364 Q20.835,22.56 17.599,22.56 L6.399,22.56 Q3.16,22.56 2.62,19.365 L1.979,15.503 Q1.929,15.196 2.109,14.943 Q2.29,14.691 2.597,14.64 Q2.903,14.589 3.156,14.77 Q3.408,14.951 3.459,15.257 L4.099,19.115 Q4.428,21.06 6.399,21.06 L17.599,21.06 Q19.569,21.06 19.9,19.116 L21.229,11.159 Q21.45,9.808 20.391,8.956 L13.459,3.414 Q11.995,2.237 10.538,3.405 L3.606,8.957 Q2.535,9.808 2.768,11.152 Q2.821,11.458 2.642,11.712 Q2.464,11.966 2.157,12.019 Q1.851,12.072 1.597,11.893 Q1.343,11.714 1.29,11.408 Z"/>
  <path fill="#292D32" d="M9.364,13.837 Q12.001,11.325 14.638,13.837 Q14.863,14.051 14.871,14.362 Q14.878,14.673 14.664,14.898 Q14.45,15.122 14.139,15.13 Q13.828,15.137 13.603,14.923 Q12.001,13.396 10.398,14.923 Q10.173,15.137 9.863,15.13 Q9.552,15.122 9.338,14.898 Q9.124,14.673 9.131,14.362 Q9.139,14.051 9.364,13.837 Z"/>
  <path fill="#292D32" d="M9.162,12.077 Q8.712,12.373 8.272,12.799 Q8.049,13.015 7.738,13.01 Q7.427,13.005 7.211,12.782 Q6.995,12.559 7,12.248 Q7.005,11.937 7.228,11.721 Q7.77,11.197 8.338,10.823 Q8.598,10.653 8.902,10.716 Q9.206,10.778 9.377,11.038 Q9.547,11.298 9.484,11.602 Q9.422,11.906 9.162,12.077 Z"/>
  <path fill="#292D32" d="M15.715,12.795 Q15.022,12.115 14.153,11.695 Q13.111,11.2 12,11.2 Q11.689,11.2 11.47,10.98 Q11.25,10.761 11.25,10.45 Q11.25,10.139 11.47,9.92 Q11.689,9.7 12,9.7 Q13.449,9.7 14.807,10.345 Q15.897,10.872 16.765,11.725 Q16.987,11.942 16.99,12.253 Q16.993,12.564 16.775,12.785 Q16.558,13.007 16.247,13.01 Q15.936,13.013 15.715,12.795 Z"/>
  <path fill="#292D32" d="M11.995,15.5 L12.005,15.5 Q12.419,15.5 12.712,15.793 Q13.004,16.086 13.004,16.5 Q13.004,16.914 12.712,17.207 Q12.419,17.5 12.005,17.5 L11.995,17.5 Q11.581,17.5 11.288,17.207 Q10.995,16.914 10.995,16.5 Q10.995,16.086 11.288,15.793 Q11.581,15.5 11.995,15.5 Z"/>
</svg>

