<svg xmlns="http://www.w3.org/2000/svg" width="24" height="24" viewBox="0 0 24 24">
  <defs/>
  <path fill="#292D32" d="M12.699,16.88 L13.399,16.88 C14.549,16.88 15.489,15.94 15.489,14.79 L15.489,14.09 L12.699,14.09 L12.699,16.88 Z"/>
  <path fill="#292D32" d="M8.51,14.79 C8.51,15.94 9.45,16.88 10.6,16.88 L11.3,16.88 L11.3,14.09 L8.51,14.09 L8.51,14.79 Z"/>
  <path fill="#292D32" d="M8.51,12 L8.51,12.7 L11.3,12.7 L11.3,9.91 L10.6,9.91 C9.45,9.91 8.51,10.85 8.51,12 Z"/>
  <path fill="#292D32" d="M20.03,6.822 L14.28,2.792 C12.71,1.692 10.31,1.752 8.8,2.922 L3.79,6.832 C2.78,7.612 2,9.212 2,10.472 L2,17.372 C2,19.922 4.07,22.002 6.61,22.002 L17.38,22.002 C19.92,22.002 21.99,19.932 21.99,17.382 L21.99,10.602 C22,9.252 21.13,7.592 20.03,6.822 Z M16.88,14.792 C16.88,16.712 15.31,18.282 13.39,18.282 L10.6,18.282 C8.68,18.282 7.11,16.722 7.11,14.792 L7.11,12.002 C7.11,10.082 8.68,8.512 10.6,8.512 L13.39,8.512 C15.31,8.512 16.88,10.072 16.88,12.002 L16.88,14.792 Z"/>
  <path fill="#292D32" d="M13.399,9.91 L12.699,9.91 L12.699,12.7 L15.489,12.7 L15.489,12 C15.489,10.85 14.549,9.91 13.399,9.91 Z"/>
</svg>

