<svg xmlns="http://www.w3.org/2000/svg" width="24" height="24" viewBox="0 0 24 24">
  <defs/>
  <path fill="#292D32" d="M12,18.75 C11.59,18.75 11.25,18.41 11.25,18 L11.25,15 C11.25,14.59 11.59,14.25 12,14.25 C12.41,14.25 12.75,14.59 12.75,15 L12.75,18 C12.75,18.41 12.41,18.75 12,18.75 Z"/>
  <path fill="#292D32" d="M17.601,22.56 L6.401,22.56 C4.581,22.56 2.921,21.16 2.621,19.37 L1.291,11.4 C1.071,10.16 1.681,8.57 2.671,7.78 L9.601,2.23 C10.941,1.15 13.051,1.16 14.401,2.24 L21.331,7.78 C22.311,8.57 22.911,10.16 22.711,11.4 L21.381,19.36 C21.081,21.13 19.381,22.56 17.601,22.56 Z M11.991,2.93 C11.461,2.93 10.931,3.09 10.541,3.4 L3.611,8.96 C3.051,9.41 2.651,10.45 2.771,11.16 L4.101,19.12 C4.281,20.17 5.331,21.06 6.401,21.06 L17.601,21.06 C18.671,21.06 19.721,20.17 19.901,19.11 L21.231,11.15 C21.341,10.45 20.941,9.39 20.391,8.95 L13.461,3.41 C13.061,3.09 12.521,2.93 11.991,2.93 Z"/>
</svg>

