<svg xmlns="http://www.w3.org/2000/svg" width="24" height="24" viewBox="0 0 24 24">
  <defs/>
  <path fill="#292D32" d="M8.56,2.248 Q11.446,0.003 14.45,2.106 L20.629,6.435 Q22.75,7.913 22.75,10.5 L22.75,17.78 Q22.75,19.824 21.296,21.281 Q19.839,22.74 17.79,22.74 L6.21,22.74 Q4.16,22.74 2.704,21.279 Q1.25,19.821 1.25,17.77 L1.25,10.36 Q1.25,7.941 3.169,6.448 L8.559,2.248 Z M9.481,3.432 L4.091,7.632 Q2.75,8.675 2.75,10.36 L2.75,17.77 Q2.75,21.24 6.21,21.24 L17.79,21.24 Q21.25,21.24 21.25,17.78 L21.25,10.5 Q21.25,8.696 19.771,7.665 L13.59,3.334 Q11.493,1.867 9.481,3.432 Z"/>
  <path fill="#292D32" d="M15.97,17.03 L12.417,13.477 L11.324,15.116 Q11.152,15.375 10.847,15.435 Q10.542,15.496 10.284,15.324 Q10.222,15.283 10.17,15.23 L6.97,12.03 Q6.75,11.811 6.75,11.5 Q6.75,11.189 6.97,10.97 Q7.189,10.75 7.5,10.75 Q7.811,10.75 8.03,10.97 L10.583,13.523 L11.676,11.884 Q11.717,11.822 11.77,11.77 Q11.989,11.55 12.3,11.55 Q12.611,11.55 12.83,11.77 L17.03,15.97 Q17.25,16.189 17.25,16.5 Q17.25,16.811 17.03,17.03 Q16.811,17.25 16.5,17.25 Q16.189,17.25 15.97,17.03 Z"/>
  <path fill="#292D32" d="M14.5,15.75 L15.75,15.75 L15.75,14.5 Q15.75,14.189 15.97,13.97 Q16.189,13.75 16.5,13.75 Q16.811,13.75 17.03,13.97 Q17.25,14.189 17.25,14.5 L17.25,16.5 Q17.25,16.811 17.03,17.03 Q16.811,17.25 16.5,17.25 L14.5,17.25 Q14.189,17.25 13.97,17.03 Q13.75,16.811 13.75,16.5 Q13.75,16.189 13.97,15.97 Q14.189,15.75 14.5,15.75 Z"/>
</svg>

