<svg xmlns="http://www.w3.org/2000/svg" width="24" height="24" viewBox="0 0 24 24">
  <defs/>
  <path fill="#292D32" d="M21.25,10.5 Q21.25,8.696 19.771,7.665 L13.59,3.334 Q11.493,1.867 9.48,3.432 L4.091,7.632 Q2.75,8.675 2.75,10.36 L2.75,17.77 Q2.75,21.24 6.21,21.24 L17.79,21.24 Q21.25,21.24 21.25,17.78 L21.25,14.68 Q21.25,14.369 21.47,14.15 Q21.689,13.93 22,13.93 Q22.311,13.93 22.53,14.15 Q22.75,14.369 22.75,14.68 L22.75,17.78 Q22.75,19.824 21.296,21.281 Q19.839,22.74 17.79,22.74 L6.21,22.74 Q4.16,22.74 2.704,21.279 Q1.25,19.821 1.25,17.77 L1.25,10.36 Q1.25,7.941 3.169,6.448 L8.56,2.248 Q11.446,0.003 14.45,2.106 L20.629,6.435 Q22.75,7.913 22.75,10.5 Q22.75,10.811 22.53,11.03 Q22.311,11.25 22,11.25 Q21.689,11.25 21.47,11.03 Q21.25,10.811 21.25,10.5 Z"/>
  <path fill="#292D32" d="M10.588,14.473 L8.03,17.03 Q7.811,17.25 7.5,17.25 Q7.189,17.25 6.97,17.03 Q6.75,16.811 6.75,16.5 Q6.75,16.189 6.97,15.97 L10.17,12.77 Q10.221,12.718 10.282,12.677 Q10.54,12.504 10.845,12.564 Q11.149,12.624 11.323,12.882 L11.793,13.582 Q11.966,13.84 11.906,14.145 Q11.846,14.449 11.588,14.623 Q11.33,14.796 11.025,14.736 Q10.754,14.683 10.588,14.473 Z"/>
  <path fill="#292D32" d="M17.03,12.03 L14.53,14.53 Q14.311,14.75 14,14.75 Q13.689,14.75 13.47,14.53 Q13.25,14.311 13.25,14 Q13.25,13.689 13.47,13.47 L15.97,10.97 Q16.189,10.75 16.5,10.75 Q16.811,10.75 17.03,10.97 Q17.25,11.189 17.25,11.5 Q17.25,11.811 17.03,12.03 Z"/>
  <path fill="#292D32" d="M14.5,10.75 L16.5,10.75 Q16.811,10.75 17.03,10.97 Q17.25,11.189 17.25,11.5 L17.25,13.5 Q17.25,13.811 17.03,14.03 Q16.811,14.25 16.5,14.25 Q16.189,14.25 15.97,14.03 Q15.75,13.811 15.75,13.5 L15.75,12.25 L14.5,12.25 Q14.189,12.25 13.97,12.03 Q13.75,11.811 13.75,11.5 Q13.75,11.189 13.97,10.97 Q14.189,10.75 14.5,10.75 Z"/>
</svg>

