<svg xmlns="http://www.w3.org/2000/svg" width="24" height="24" viewBox="0 0 24 24">
  <defs/>
  <path fill="#292D32" opacity="0.4" d="M20.03,6.82 L14.28,2.79 C12.71,1.69 10.31,1.75 8.8,2.92 L3.79,6.83 C2.78,7.61 2,9.21 2,10.47 L2,17.37 C2,19.92 4.07,22 6.61,22 L17.38,22 C19.92,22 21.99,19.93 21.99,17.38 L21.99,10.6 C22,9.25 21.13,7.59 20.03,6.82 Z"/>
  <path fill="#292D32" d="M13.399,8.51 L10.599,8.51 C8.679,8.51 7.109,10.07 7.109,12 L7.109,14.79 C7.109,16.71 8.679,18.28 10.599,18.28 L13.389,18.28 C15.309,18.28 16.879,16.72 16.879,14.79 L16.879,12 C16.879,10.08 15.319,8.51 13.399,8.51 Z M15.489,12 L15.489,12.7 L12.699,12.7 L12.699,9.91 L13.399,9.91 C14.549,9.91 15.489,10.85 15.489,12 Z M10.599,9.91 L11.299,9.91 L11.299,12.7 L8.509,12.7 L8.509,12 C8.509,10.85 9.449,9.91 10.599,9.91 Z M8.509,14.79 L8.509,14.09 L11.299,14.09 L11.299,16.88 L10.599,16.88 C9.449,16.88 8.509,15.94 8.509,14.79 Z M13.399,16.88 L12.699,16.88 L12.699,14.09 L15.489,14.09 L15.489,14.79 C15.489,15.94 14.549,16.88 13.399,16.88 Z"/>
</svg>

