<svg xmlns="http://www.w3.org/2000/svg" width="24" height="24" viewBox="0 0 24 24">
  <defs/>
  <path fill="#292D32" d="M9.601,2.235 L9.601,2.235 Q11.997,0.314 14.398,2.244 L21.33,7.786 Q23.072,9.188 22.71,11.404 L21.379,19.366 Q20.836,22.56 17.6,22.56 L6.4,22.56 Q3.161,22.56 2.62,19.364 L1.291,11.408 Q0.906,9.188 2.671,7.785 Z M10.539,3.405 L3.609,8.955 Q2.536,9.808 2.769,11.152 L4.1,19.116 Q4.428,21.06 6.4,21.06 L17.6,21.06 Q19.569,21.06 19.901,19.114 L21.23,11.156 Q21.45,9.808 20.39,8.954 L13.462,3.416 Q11.995,2.237 10.539,3.405 Z"/>
  <path fill="#292D32" d="M9.363,13.837 Q12,11.324 14.637,13.837 Q14.862,14.051 14.87,14.362 Q14.877,14.672 14.663,14.897 Q14.449,15.122 14.138,15.13 Q13.828,15.137 13.603,14.923 Q12,13.396 10.397,14.923 Q10.172,15.137 9.862,15.13 Q9.551,15.122 9.337,14.897 Q9.123,14.672 9.13,14.362 Q9.138,14.051 9.363,13.837 Z"/>
  <path fill="#292D32" d="M15.715,12.795 Q15.022,12.116 14.153,11.695 Q12.002,10.667 9.832,11.698 Q8.994,12.103 8.27,12.8 Q8.047,13.016 7.736,13.01 Q7.426,13.004 7.21,12.781 Q6.994,12.557 7,12.246 Q7.006,11.936 7.23,11.72 Q8.125,10.857 9.188,10.343 Q12.004,9.005 14.807,10.345 Q15.897,10.873 16.765,11.725 Q16.987,11.942 16.99,12.253 Q16.993,12.564 16.775,12.785 Q16.558,13.007 16.247,13.01 Q15.936,13.013 15.715,12.795 Z"/>
  <path fill="#292D32" d="M11.995,16 L12.005,16 Q12.419,16 12.712,16.293 Q13.004,16.586 13.004,17 Q13.004,17.414 12.712,17.707 Q12.419,18 12.005,18 L11.995,18 Q11.581,18 11.288,17.707 Q10.995,17.414 10.995,17 Q10.995,16.586 11.288,16.293 Q11.581,16 11.995,16 Z"/>
</svg>

