<svg xmlns="http://www.w3.org/2000/svg" width="24" height="24" viewBox="0 0 24 24">
  <defs/>
  <path fill="#292D32" d="M11.25,18 L11.25,15 Q11.25,14.689 11.47,14.47 Q11.689,14.25 12,14.25 Q12.311,14.25 12.53,14.47 Q12.75,14.689 12.75,15 L12.75,18 Q12.75,18.311 12.53,18.53 Q12.311,18.75 12,18.75 Q11.689,18.75 11.47,18.53 Q11.25,18.311 11.25,18 Z"/>
  <path fill="#292D32" d="M9.601,2.235 L9.601,2.235 Q11.997,0.314 14.398,2.244 L21.33,7.786 Q23.072,9.188 22.71,11.404 L21.379,19.366 Q20.836,22.56 17.6,22.56 L6.4,22.56 Q3.161,22.56 2.62,19.364 L1.291,11.408 Q0.906,9.188 2.671,7.785 Z M10.539,3.405 L3.609,8.955 Q2.536,9.808 2.769,11.152 L4.1,19.116 Q4.428,21.06 6.4,21.06 L17.6,21.06 Q19.569,21.06 19.901,19.114 L21.23,11.156 Q21.45,9.808 20.39,8.954 L13.462,3.416 Q11.995,2.237 10.539,3.405 Z"/>
</svg>

