<svg xmlns="http://www.w3.org/2000/svg" width="24" height="24" viewBox="0 0 24 24">
  <defs/>
  <path fill="#292D32" d="M17.79,22.75 L6.21,22.75 C3.47,22.75 1.25,20.52 1.25,17.78 L1.25,10.37 C1.25,9.01 2.09,7.3 3.17,6.46 L8.56,2.26 C10.18,1 12.77,0.94 14.45,2.12 L20.63,6.45 C21.82,7.28 22.75,9.06 22.75,10.51 L22.75,17.79 C22.75,20.52 20.53,22.75 17.79,22.75 Z M9.48,3.44 L4.09,7.64 C3.38,8.2 2.75,9.47 2.75,10.37 L2.75,17.78 C2.75,19.69 4.3,21.25 6.21,21.25 L17.79,21.25 C19.7,21.25 21.25,19.7 21.25,17.79 L21.25,10.51 C21.25,9.55 20.56,8.22 19.77,7.68 L13.59,3.35 C12.45,2.55 10.57,2.59 9.48,3.44 Z"/>
  <path fill="#292D32" d="M12,18.75 C11.59,18.75 11.25,18.41 11.25,18 L11.25,15 C11.25,14.59 11.59,14.25 12,14.25 C12.41,14.25 12.75,14.59 12.75,15 L12.75,18 C12.75,18.41 12.41,18.75 12,18.75 Z"/>
</svg>

