<svg xmlns="http://www.w3.org/2000/svg" width="24" height="24" viewBox="0 0 24 24">
  <defs/>
  <path fill="#292D32" opacity="0.4" d="M20.04,6.82 L14.28,2.79 C12.71,1.69 10.3,1.75 8.79,2.92 L3.78,6.83 C2.78,7.61 1.99,9.21 1.99,10.47 L1.99,17.37 C1.99,19.92 4.06,22 6.61,22 L17.39,22 C19.94,22 22.01,19.93 22.01,17.38 L22.01,10.6 C22.01,9.25 21.14,7.59 20.04,6.82 Z"/>
  <path fill="#292D32" d="M16.88,14.33 C16.88,13.94 16.57,13.63 16.18,13.63 C15.79,13.63 15.48,13.94 15.48,14.33 L15.48,14.51 L12.76,11.79 C12.61,11.64 12.41,11.57 12.2,11.59 C11.99,11.61 11.8,11.72 11.69,11.9 L10.67,13.42 L8.29,11.04 C8.02,10.77 7.58,10.77 7.3,11.04 C7.03,11.31 7.03,11.75 7.3,12.03 L10.28,15.01 C10.43,15.16 10.63,15.23 10.84,15.21 C11.05,15.19 11.24,15.08 11.35,14.9 L12.37,13.38 L14.48,15.49 L14.3,15.49 C13.91,15.49 13.6,15.8 13.6,16.19 C13.6,16.58 13.91,16.89 14.3,16.89 L16.16,16.89 C16.25,16.89 16.34,16.87 16.43,16.84 C16.6,16.77 16.74,16.63 16.81,16.46 C16.85,16.37 16.86,16.28 16.86,16.19 L16.86,14.33 L16.88,14.33 Z"/>
</svg>

