<svg xmlns="http://www.w3.org/2000/svg" width="24" height="24" viewBox="0 0 24 24">
  <defs/>
  <path fill="#292D32" d="M8.56,2.248 Q11.446,0.003 14.45,2.106 L20.629,6.435 Q22.75,7.913 22.75,10.5 L22.75,17.78 Q22.75,19.825 21.296,21.281 Q19.839,22.74 17.79,22.74 L6.21,22.74 Q4.16,22.74 2.704,21.279 Q1.25,19.821 1.25,17.77 L1.25,10.36 Q1.25,7.941 3.169,6.448 L8.559,2.248 Z M9.481,3.432 L4.091,7.632 Q2.75,8.675 2.75,10.36 L2.75,17.77 Q2.75,19.201 3.766,20.221 Q4.782,21.24 6.21,21.24 L17.79,21.24 Q21.25,21.24 21.25,17.78 L21.25,10.5 Q21.25,8.696 19.771,7.665 L13.59,3.334 Q11.493,1.867 9.481,3.432 Z"/>
  <path fill="#292D32" d="M11.25,17.99 L11.25,14.99 Q11.25,14.679 11.47,14.46 Q11.689,14.24 12,14.24 Q12.311,14.24 12.53,14.46 Q12.75,14.679 12.75,14.99 L12.75,17.99 Q12.75,18.301 12.53,18.52 Q12.311,18.74 12,18.74 Q11.689,18.74 11.47,18.52 Q11.25,18.301 11.25,17.99 Z"/>
</svg>

