<svg xmlns="http://www.w3.org/2000/svg" width="24" height="24" viewBox="0 0 24 24">
  <defs/>
  <path fill="#292D32" d="M9.6,2.235 L9.6,2.234 Q11.996,0.314 14.398,2.244 L21.33,7.786 Q23.071,9.188 22.709,11.404 L21.379,19.366 Q20.835,22.56 17.599,22.56 L6.399,22.56 Q3.16,22.56 2.62,19.363 L1.29,11.408 Q0.905,9.188 2.67,7.784 Z M10.538,3.405 L3.608,8.955 Q2.535,9.808 2.768,11.152 L4.099,19.116 Q4.428,21.06 6.399,21.06 L17.599,21.06 Q19.569,21.06 19.9,19.114 L21.23,11.156 Q21.45,9.808 20.389,8.954 L13.461,3.416 Q11.995,2.237 10.538,3.405 Z"/>
  <path fill="#292D32" opacity="0.4" d="M9.364,13.837 Q12.001,11.325 14.638,13.837 Q14.863,14.051 14.871,14.362 Q14.878,14.673 14.664,14.898 Q14.45,15.122 14.139,15.13 Q13.828,15.137 13.603,14.923 Q12.001,13.396 10.398,14.923 Q10.173,15.137 9.863,15.13 Q9.552,15.122 9.338,14.898 Q9.124,14.673 9.131,14.362 Q9.139,14.051 9.364,13.837 Z"/>
  <path fill="#292D32" opacity="0.4" d="M15.715,12.795 Q15.022,12.116 14.153,11.695 Q12.002,10.667 9.832,11.698 Q8.994,12.103 8.27,12.8 Q8.047,13.016 7.736,13.01 Q7.426,13.004 7.21,12.781 Q6.994,12.557 7,12.246 Q7.006,11.936 7.23,11.72 Q8.125,10.857 9.188,10.343 Q12.004,9.005 14.807,10.345 Q15.897,10.873 16.765,11.725 Q16.987,11.943 16.99,12.253 Q16.993,12.564 16.775,12.786 Q16.558,13.007 16.247,13.01 Q15.936,13.013 15.715,12.795 Z"/>
  <path fill="#292D32" opacity="0.4" d="M11.995,15.5 L12.005,15.5 Q12.419,15.5 12.712,15.793 Q13.004,16.086 13.004,16.5 Q13.004,16.914 12.712,17.207 Q12.419,17.5 12.005,17.5 L11.995,17.5 Q11.581,17.5 11.288,17.207 Q10.995,16.914 10.995,16.5 Q10.995,16.086 11.288,15.793 Q11.581,15.5 11.995,15.5 Z"/>
</svg>

