<svg xmlns="http://www.w3.org/2000/svg" width="24" height="24" viewBox="0 0 24 24">
  <defs/>
  <path fill="#292D32" d="M17.79,22.74 L6.21,22.74 C3.47,22.74 1.25,20.51 1.25,17.77 L1.25,10.36 C1.25,9 2.09,7.29 3.17,6.45 L8.56,2.25 C10.18,0.99 12.77,0.93 14.45,2.11 L20.63,6.44 C21.82,7.27 22.75,9.05 22.75,10.5 L22.75,17.78 C22.75,20.51 20.53,22.74 17.79,22.74 Z M9.48,3.43 L4.09,7.63 C3.38,8.19 2.75,9.46 2.75,10.36 L2.75,17.77 C2.75,19.68 4.3,21.24 6.21,21.24 L17.79,21.24 C19.7,21.24 21.25,19.69 21.25,17.78 L21.25,10.5 C21.25,9.54 20.56,8.21 19.77,7.67 L13.59,3.34 C12.45,2.54 10.57,2.58 9.48,3.43 Z"/>
  <path fill="#292D32" d="M7.5,17.25 C7.31,17.25 7.12,17.18 6.97,17.03 C6.68,16.74 6.68,16.26 6.97,15.97 L10.17,12.77 C10.33,12.61 10.54,12.53 10.77,12.55 C10.99,12.57 11.19,12.69 11.32,12.88 L12.41,14.52 L15.96,10.97 C16.25,10.68 16.73,10.68 17.02,10.97 C17.31,11.26 17.31,11.74 17.02,12.03 L12.82,16.23 C12.66,16.39 12.45,16.47 12.22,16.45 C12,16.43 11.8,16.31 11.67,16.12 L10.58,14.48 L8.03,17.03 C7.88,17.18 7.69,17.25 7.5,17.25 Z"/>
  <path fill="#292D32" d="M16.5,14.25 C16.09,14.25 15.75,13.91 15.75,13.5 L15.75,12.25 L14.5,12.25 C14.09,12.25 13.75,11.91 13.75,11.5 C13.75,11.09 14.09,10.75 14.5,10.75 L16.5,10.75 C16.91,10.75 17.25,11.09 17.25,11.5 L17.25,13.5 C17.25,13.91 16.91,14.25 16.5,14.25 Z"/>
</svg>

