<svg xmlns="http://www.w3.org/2000/svg" width="24" height="24" viewBox="0 0 24 24">
  <defs/>
  <path fill="#292D32" d="M4.099,19.115 Q4.428,21.06 6.399,21.06 L17.599,21.06 Q19.569,21.06 19.9,19.114 L21.23,11.156 Q21.45,9.808 20.389,8.954 L13.461,3.416 Q11.995,2.237 10.538,3.405 L3.608,8.955 Q2.535,9.808 2.768,11.152 L3.449,15.247 Q3.5,15.554 3.319,15.806 Q3.139,16.059 2.832,16.11 Q2.526,16.161 2.273,15.98 Q2.02,15.8 1.969,15.493 L1.29,11.408 Q0.905,9.188 2.67,7.785 L9.6,2.235 Q11.996,0.314 14.398,2.244 L21.33,7.786 Q23.071,9.188 22.709,11.404 L21.379,19.366 Q20.835,22.56 17.599,22.56 L6.399,22.56 Q3.16,22.56 2.62,19.365 Q2.568,19.059 2.748,18.806 Q2.928,18.552 3.234,18.501 Q3.541,18.449 3.794,18.629 Q4.047,18.809 4.099,19.115 Z"/>
  <path fill="#292D32" d="M12,11.25 Q10.25,11.25 10.25,13 Q10.25,14.75 12,14.75 Q13.75,14.75 13.75,13 Q13.75,12.689 13.97,12.47 Q14.189,12.25 14.5,12.25 Q14.811,12.25 15.03,12.47 Q15.25,12.689 15.25,13 Q15.25,14.346 14.298,15.298 Q13.346,16.25 12,16.25 Q8.75,16.25 8.75,13 Q8.75,9.75 12,9.75 Q12.311,9.75 12.53,9.97 Q12.75,10.189 12.75,10.5 Q12.75,10.811 12.53,11.03 Q12.311,11.25 12,11.25 Z"/>
</svg>

