<svg xmlns="http://www.w3.org/2000/svg" width="24" height="24" viewBox="0 0 24 24">
  <defs/>
  <path fill="#292D32" d="M8.56,2.248 Q11.446,0.003 14.45,2.106 L20.629,6.435 Q22.75,7.913 22.75,10.5 L22.75,17.78 Q22.75,19.824 21.296,21.281 Q19.839,22.74 17.79,22.74 L6.21,22.74 Q4.16,22.74 2.704,21.279 Q1.25,19.821 1.25,17.77 L1.25,10.36 Q1.25,7.941 3.169,6.448 L8.559,2.248 Z M9.481,3.432 L4.091,7.632 Q2.75,8.675 2.75,10.36 L2.75,17.77 Q2.75,21.24 6.21,21.24 L17.79,21.24 Q21.25,21.24 21.25,17.78 L21.25,10.5 Q21.25,8.696 19.771,7.665 L13.59,3.334 Q11.493,1.867 9.481,3.432 Z"/>
  <path fill="#292D32" d="M10.5,18.75 Q6.75,18.75 6.75,15 L6.75,12 Q6.75,8.25 10.5,8.25 L13.5,8.25 Q17.25,8.25 17.25,12 L17.25,15 Q17.25,18.75 13.5,18.75 Z M10.5,17.25 L13.5,17.25 Q15.75,17.25 15.75,15 L15.75,12 Q15.75,9.75 13.5,9.75 L10.5,9.75 Q8.25,9.75 8.25,12 L8.25,15 Q8.25,17.25 10.5,17.25 Z"/>
  <path fill="#292D32" d="M12.75,9 L12.75,18 Q12.75,18.311 12.53,18.53 Q12.311,18.75 12,18.75 Q11.689,18.75 11.47,18.53 Q11.25,18.311 11.25,18 L11.25,9 Q11.25,8.689 11.47,8.47 Q11.689,8.25 12,8.25 Q12.311,8.25 12.53,8.47 Q12.75,8.689 12.75,9 Z"/>
  <path fill="#292D32" d="M7.5,12.75 L16.5,12.75 Q16.811,12.75 17.03,12.97 Q17.25,13.189 17.25,13.5 Q17.25,13.811 17.03,14.03 Q16.811,14.25 16.5,14.25 L7.5,14.25 Q7.189,14.25 6.97,14.03 Q6.75,13.811 6.75,13.5 Q6.75,13.189 6.97,12.97 Q7.189,12.75 7.5,12.75 Z"/>
</svg>

