<svg xmlns="http://www.w3.org/2000/svg" width="24" height="24" viewBox="0 0 24 24">
  <defs/>
  <path fill="#292D32" d="M17.79,22.74 L6.21,22.74 C3.47,22.74 1.25,20.51 1.25,17.77 L1.25,10.36 C1.25,9 2.09,7.29 3.17,6.45 L8.56,2.25 C10.18,0.99 12.77,0.93 14.45,2.11 L20.63,6.44 C21.82,7.27 22.75,9.05 22.75,10.5 L22.75,17.78 C22.75,20.51 20.53,22.74 17.79,22.74 Z M9.48,3.43 L4.09,7.63 C3.38,8.19 2.75,9.46 2.75,10.36 L2.75,17.77 C2.75,19.68 4.3,21.24 6.21,21.24 L17.79,21.24 C19.7,21.24 21.25,19.69 21.25,17.78 L21.25,10.5 C21.25,9.54 20.56,8.21 19.77,7.67 L13.59,3.34 C12.45,2.54 10.57,2.58 9.48,3.43 Z"/>
  <path fill="#292D32" d="M16.5,17.25 C16.31,17.25 16.12,17.18 15.97,17.03 L12.42,13.48 L11.33,15.12 C11.21,15.31 11,15.43 10.78,15.45 C10.55,15.47 10.33,15.39 10.18,15.23 L6.98,12.03 C6.69,11.74 6.69,11.26 6.98,10.97 C7.27,10.68 7.75,10.68 8.04,10.97 L10.59,13.52 L11.68,11.88 C11.8,11.69 12.01,11.57 12.23,11.55 C12.46,11.53 12.68,11.61 12.83,11.77 L17.03,15.97 C17.32,16.26 17.32,16.74 17.03,17.03 C16.88,17.18 16.69,17.25 16.5,17.25 Z"/>
  <path fill="#292D32" d="M16.5,17.25 L14.5,17.25 C14.09,17.25 13.75,16.91 13.75,16.5 C13.75,16.09 14.09,15.75 14.5,15.75 L15.75,15.75 L15.75,14.5 C15.75,14.09 16.09,13.75 16.5,13.75 C16.91,13.75 17.25,14.09 17.25,14.5 L17.25,16.5 C17.25,16.91 16.91,17.25 16.5,17.25 Z"/>
</svg>

