<svg xmlns="http://www.w3.org/2000/svg" width="24" height="24" viewBox="0 0 24 24">
  <defs/>
  <path fill="#292D32" d="M20.04,6.822 L14.28,2.792 C12.71,1.692 10.3,1.752 8.79,2.922 L3.78,6.832 C2.78,7.612 1.99,9.212 1.99,10.472 L1.99,17.372 C1.99,19.922 4.06,22.002 6.61,22.002 L17.39,22.002 C19.94,22.002 22.01,19.932 22.01,17.382 L22.01,10.602 C22.01,9.252 21.14,7.592 20.04,6.822 Z M16.88,13.402 C16.88,13.792 16.57,14.102 16.18,14.102 C15.79,14.102 15.48,13.792 15.48,13.402 L15.48,13.222 L12.76,15.942 C12.61,16.092 12.41,16.162 12.2,16.142 C12,16.122 11.81,16.002 11.7,15.832 L10.68,14.312 L8.3,16.692 C8.16,16.832 7.99,16.892 7.81,16.892 C7.63,16.892 7.45,16.822 7.32,16.692 C7.05,16.422 7.05,15.982 7.32,15.702 L10.3,12.722 C10.45,12.572 10.65,12.502 10.86,12.522 C11.07,12.542 11.26,12.652 11.37,12.832 L12.39,14.352 L14.5,12.242 L14.32,12.242 C13.93,12.242 13.62,11.932 13.62,11.542 C13.62,11.152 13.93,10.842 14.32,10.842 L16.18,10.842 C16.27,10.842 16.36,10.862 16.45,10.892 C16.62,10.962 16.76,11.102 16.83,11.272 C16.87,11.362 16.88,11.452 16.88,11.542 L16.88,13.402 Z"/>
</svg>

