<svg xmlns="http://www.w3.org/2000/svg" width="24" height="24" viewBox="0 0 24 24">
  <defs/>
  <path fill="#292D32" d="M20.04,6.822 L14.28,2.792 C12.71,1.692 10.3,1.752 8.79,2.922 L3.78,6.832 C2.78,7.612 1.99,9.212 1.99,10.472 L1.99,17.372 C1.99,19.922 4.06,22.002 6.61,22.002 L17.39,22.002 C19.94,22.002 22.01,19.932 22.01,17.382 L22.01,10.602 C22.01,9.252 21.14,7.592 20.04,6.822 Z M16.88,16.192 C16.88,16.282 16.86,16.372 16.83,16.462 C16.76,16.632 16.62,16.772 16.45,16.842 C16.36,16.882 16.27,16.892 16.18,16.892 L14.32,16.892 C13.93,16.892 13.62,16.582 13.62,16.192 C13.62,15.802 13.93,15.492 14.32,15.492 L14.5,15.492 L12.39,13.382 L11.37,14.902 C11.25,15.072 11.07,15.192 10.86,15.212 C10.64,15.232 10.45,15.162 10.3,15.012 L7.32,12.032 C7.05,11.762 7.05,11.322 7.32,11.042 C7.59,10.762 8.03,10.772 8.31,11.042 L10.69,13.422 L11.71,11.902 C11.83,11.732 12.01,11.612 12.22,11.592 C12.44,11.572 12.63,11.642 12.78,11.792 L15.5,14.512 L15.5,14.332 C15.5,13.942 15.81,13.632 16.2,13.632 C16.59,13.632 16.9,13.942 16.9,14.332 L16.9,16.192 L16.88,16.192 Z"/>
</svg>

