<svg xmlns="http://www.w3.org/2000/svg" width="24" height="24" viewBox="0 0 24 24">
  <defs/>
  <path fill="#292D32" d="M17.6,22.56 L6.4,22.56 C4.58,22.56 2.92,21.16 2.62,19.36 L1.29,11.4 C1.08,10.16 1.68,8.57 2.67,7.78 L9.6,2.23 C10.94,1.15 13.05,1.16 14.4,2.24 L21.33,7.78 C22.31,8.57 22.91,10.16 22.71,11.4 L21.38,19.36 C21.08,21.13 19.39,22.56 17.6,22.56 Z M11.99,2.94 C11.46,2.94 10.93,3.1 10.54,3.41 L3.61,8.96 C3.04,9.42 2.65,10.44 2.77,11.16 L4.1,19.12 C4.28,20.17 5.33,21.06 6.4,21.06 L17.6,21.06 C18.67,21.06 19.72,20.17 19.9,19.11 L21.23,11.15 C21.35,10.43 20.95,9.4 20.39,8.95 L13.46,3.41 C13.06,3.1 12.53,2.94 11.99,2.94 Z"/>
  <path fill="#292D32" d="M12,16.25 C10.21,16.25 8.75,14.79 8.75,13 C8.75,11.21 10.21,9.75 12,9.75 C13.79,9.75 15.25,11.21 15.25,13 C15.25,14.79 13.79,16.25 12,16.25 Z M12,11.25 C11.04,11.25 10.25,12.04 10.25,13 C10.25,13.96 11.04,14.75 12,14.75 C12.96,14.75 13.75,13.96 13.75,13 C13.75,12.04 12.96,11.25 12,11.25 Z"/>
</svg>

