<svg xmlns="http://www.w3.org/2000/svg" width="24" height="24" viewBox="0 0 24 24">
  <defs/>
  <path fill="#292D32" d="M17.6,22.56 L6.4,22.56 C4.58,22.56 2.92,21.16 2.62,19.36 L1.29,11.4 C1.08,10.16 1.68,8.57 2.67,7.78 L9.6,2.23 C10.94,1.15 13.05,1.16 14.4,2.24 L21.33,7.78 C22.31,8.57 22.91,10.16 22.71,11.4 L21.38,19.36 C21.08,21.13 19.39,22.56 17.6,22.56 Z M11.99,2.94 C11.46,2.94 10.93,3.1 10.54,3.41 L3.61,8.96 C3.04,9.42 2.65,10.44 2.77,11.16 L4.1,19.12 C4.28,20.17 5.33,21.06 6.4,21.06 L17.6,21.06 C18.67,21.06 19.72,20.17 19.9,19.11 L21.23,11.15 C21.35,10.43 20.95,9.4 20.39,8.95 L13.46,3.41 C13.06,3.1 12.53,2.94 11.99,2.94 Z"/>
  <path fill="#292D32" d="M14.12,15.13 C13.931,15.13 13.751,15.06 13.601,14.92 C12.63,13.99 11.371,13.99 10.391,14.92 C10.091,15.21 9.621,15.2 9.331,14.9 C9.041,14.6 9.051,14.13 9.351,13.84 C10.9,12.35 13.07,12.35 14.63,13.84 C14.931,14.13 14.941,14.6 14.65,14.9 C14.521,15.05 14.32,15.13 14.12,15.13 Z"/>
  <path fill="#292D32" d="M16.24,13.01 C16.05,13.01 15.86,12.94 15.72,12.8 C15.25,12.34 14.72,11.97 14.16,11.7 C12.76,11.03 11.23,11.03 9.84,11.7 C9.28,11.97 8.76,12.34 8.28,12.8 C7.99,13.09 7.51,13.09 7.22,12.79 C6.93,12.49 6.94,12.02 7.23,11.73 C7.82,11.15 8.48,10.69 9.19,10.35 C11,9.48 13,9.48 14.8,10.35 C15.51,10.69 16.17,11.15 16.76,11.73 C17.06,12.02 17.06,12.49 16.77,12.79 C16.63,12.93 16.44,13.01 16.24,13.01 Z"/>
  <path fill="#292D32" d="M12.001,17.5 C11.741,17.5 11.491,17.4 11.29,17.21 C10.9,16.82 10.9,16.19 11.29,15.8 C11.681,15.41 12.32,15.41 12.71,15.8 C13.101,16.19 13.101,16.82 12.71,17.21 C12.511,17.4 12.261,17.5 12.001,17.5 Z"/>
</svg>

