<svg xmlns="http://www.w3.org/2000/svg" width="24" height="24" viewBox="0 0 24 24">
  <defs/>
  <path fill="#292D32" d="M20.04,6.822 L14.28,2.792 C12.71,1.692 10.3,1.752 8.79,2.922 L3.78,6.832 C2.78,7.612 1.99,9.212 1.99,10.472 L1.99,17.372 C1.99,19.922 4.06,22.002 6.61,22.002 L17.39,22.002 C19.94,22.002 22.01,19.932 22.01,17.382 L22.01,10.602 C22.01,9.252 21.14,7.592 20.04,6.822 Z M12.75,18.002 C12.75,18.412 12.41,18.752 12,18.752 C11.59,18.752 11.25,18.412 11.25,18.002 L11.25,15.002 C11.25,14.592 11.59,14.252 12,14.252 C12.41,14.252 12.75,14.592 12.75,15.002 L12.75,18.002 Z"/>
</svg>

