<svg xmlns="http://www.w3.org/2000/svg" width="24" height="24" viewBox="0 0 24 24">
  <defs/>
  <path fill="#292D32" opacity="0.4" d="M20.04,6.82 L14.28,2.79 C12.71,1.69 10.3,1.75 8.79,2.92 L3.78,6.83 C2.78,7.61 1.99,9.21 1.99,10.47 L1.99,17.37 C1.99,19.92 4.06,22 6.61,22 L17.39,22 C19.94,22 22.01,19.93 22.01,17.38 L22.01,10.6 C22.01,9.25 21.14,7.59 20.04,6.82 Z"/>
  <path fill="#292D32" d="M12,18.75 C11.59,18.75 11.25,18.41 11.25,18 L11.25,15 C11.25,14.59 11.59,14.25 12,14.25 C12.41,14.25 12.75,14.59 12.75,15 L12.75,18 C12.75,18.41 12.41,18.75 12,18.75 Z"/>
</svg>

