<svg xmlns="http://www.w3.org/2000/svg" width="24" height="24" viewBox="0 0 24 24">
  <defs/>
  <path fill="#292D32" d="M22,21.25 L2,21.25 C1.59,21.25 1.25,21.59 1.25,22 C1.25,22.41 1.59,22.75 2,22.75 L22,22.75 C22.41,22.75 22.75,22.41 22.75,22 C22.75,21.59 22.41,21.25 22,21.25 Z"/>
  <path fill="#292D32" d="M17,2 L7,2 C4,2 3,3.79 3,6 L3,22 L9,22 L9,15.94 C9,15.42 9.42,15 9.94,15 L14.07,15 C14.58,15 15.01,15.42 15.01,15.94 L15.01,22 L21.01,22 L21.01,6 C21,3.79 20,2 17,2 Z M14.5,9.25 L12.75,9.25 L12.75,11 C12.75,11.41 12.41,11.75 12,11.75 C11.59,11.75 11.25,11.41 11.25,11 L11.25,9.25 L9.5,9.25 C9.09,9.25 8.75,8.91 8.75,8.5 C8.75,8.09 9.09,7.75 9.5,7.75 L11.25,7.75 L11.25,6 C11.25,5.59 11.59,5.25 12,5.25 C12.41,5.25 12.75,5.59 12.75,6 L12.75,7.75 L14.5,7.75 C14.91,7.75 15.25,8.09 15.25,8.5 C15.25,8.91 14.91,9.25 14.5,9.25 Z"/>
</svg>

