<svg xmlns="http://www.w3.org/2000/svg" width="24" height="24" viewBox="0 0 24 24">
  <defs/>
  <path fill="#292D32" d="M20.25,6 Q20.25,2.75 17,2.75 L7,2.75 Q3.75,2.75 3.75,6 L3.75,21.25 L20.25,21.25 L20.25,10.02 Q20.25,9.709 20.47,9.49 Q20.689,9.27 21,9.27 Q21.311,9.27 21.53,9.49 Q21.75,9.709 21.75,10.02 L21.75,22 Q21.75,22.311 21.53,22.53 Q21.311,22.75 21,22.75 L3,22.75 Q2.689,22.75 2.47,22.53 Q2.25,22.311 2.25,22 L2.25,6 Q2.25,1.25 7,1.25 L17,1.25 Q21.75,1.25 21.75,6 Q21.75,6.311 21.53,6.53 Q21.311,6.75 21,6.75 Q20.689,6.75 20.47,6.53 Q20.25,6.311 20.25,6 Z"/>
  <path fill="#292D32" d="M2,21.25 L22,21.25 Q22.311,21.25 22.53,21.47 Q22.75,21.689 22.75,22 Q22.75,22.311 22.53,22.53 Q22.311,22.75 22,22.75 L2,22.75 Q1.689,22.75 1.47,22.53 Q1.25,22.311 1.25,22 Q1.25,21.689 1.47,21.47 Q1.689,21.25 2,21.25 Z"/>
  <path fill="#292D32" d="M14.06,14.25 Q14.763,14.25 15.256,14.747 Q15.754,15.248 15.74,15.94 L15.74,22 Q15.74,22.311 15.521,22.53 Q15.301,22.75 14.99,22.75 L8.99,22.75 Q8.68,22.75 8.46,22.53 Q8.24,22.311 8.24,22 L8.24,15.94 Q8.24,14.25 9.93,14.25 Z M14.06,15.75 L9.93,15.75 Q9.855,15.75 9.797,15.807 Q9.74,15.864 9.74,15.94 L9.74,21.25 L14.24,21.25 L14.24,15.94 Q14.242,15.854 14.192,15.803 Q14.139,15.75 14.06,15.75 Z"/>
  <path fill="#292D32" d="M12.75,6 L12.75,11 Q12.75,11.311 12.53,11.53 Q12.311,11.75 12,11.75 Q11.689,11.75 11.47,11.53 Q11.25,11.311 11.25,11 L11.25,6 Q11.25,5.689 11.47,5.47 Q11.689,5.25 12,5.25 Q12.311,5.25 12.53,5.47 Q12.75,5.689 12.75,6 Z"/>
  <path fill="#292D32" d="M9.5,7.75 L14.5,7.75 Q14.811,7.75 15.03,7.97 Q15.25,8.189 15.25,8.5 Q15.25,8.811 15.03,9.03 Q14.811,9.25 14.5,9.25 L9.5,9.25 Q9.189,9.25 8.97,9.03 Q8.75,8.811 8.75,8.5 Q8.75,8.189 8.97,7.97 Q9.189,7.75 9.5,7.75 Z"/>
</svg>

