<svg xmlns="http://www.w3.org/2000/svg" width="24" height="24" viewBox="0 0 24 24">
  <defs/>
  <path fill="#292D32" d="M22,22.75 L2,22.75 C1.59,22.75 1.25,22.41 1.25,22 C1.25,21.59 1.59,21.25 2,21.25 L22,21.25 C22.41,21.25 22.75,21.59 22.75,22 C22.75,22.41 22.41,22.75 22,22.75 Z"/>
  <path fill="#292D32" d="M21,22.75 L3,22.75 C2.59,22.75 2.25,22.41 2.25,22 L2.25,6 C2.25,2.98 3.98,1.25 7,1.25 L17,1.25 C20.02,1.25 21.75,2.98 21.75,6 L21.75,22 C21.75,22.41 21.41,22.75 21,22.75 Z M3.75,21.25 L20.25,21.25 L20.25,6 C20.25,3.78 19.22,2.75 17,2.75 L7,2.75 C4.78,2.75 3.75,3.78 3.75,6 L3.75,21.25 Z"/>
  <path fill="#292D32" d="M15,22.75 L9,22.75 C8.59,22.75 8.25,22.41 8.25,22 L8.25,15.94 C8.25,15.01 9.01,14.25 9.94,14.25 L14.07,14.25 C15,14.25 15.76,15.01 15.76,15.94 L15.76,22 C15.75,22.41 15.41,22.75 15,22.75 Z M9.75,21.25 L14.25,21.25 L14.25,15.94 C14.25,15.84 14.17,15.75 14.06,15.75 L9.93,15.75 C9.83,15.75 9.74,15.83 9.74,15.94 L9.74,21.25 L9.75,21.25 Z"/>
  <path fill="#292D32" d="M12,11.75 C11.59,11.75 11.25,11.41 11.25,11 L11.25,6 C11.25,5.59 11.59,5.25 12,5.25 C12.41,5.25 12.75,5.59 12.75,6 L12.75,11 C12.75,11.41 12.41,11.75 12,11.75 Z"/>
  <path fill="#292D32" d="M14.5,9.25 L9.5,9.25 C9.09,9.25 8.75,8.91 8.75,8.5 C8.75,8.09 9.09,7.75 9.5,7.75 L14.5,7.75 C14.91,7.75 15.25,8.09 15.25,8.5 C15.25,8.91 14.91,9.25 14.5,9.25 Z"/>
</svg>

