<svg xmlns="http://www.w3.org/2000/svg" width="24" height="24" viewBox="0 0 24 24">
  <defs/>
  <path fill="#292D32" d="M2,21.25 L22,21.25 Q22.311,21.25 22.53,21.47 Q22.75,21.689 22.75,22 Q22.75,22.311 22.53,22.53 Q22.311,22.75 22,22.75 L2,22.75 Q1.689,22.75 1.47,22.53 Q1.25,22.311 1.25,22 Q1.25,21.689 1.47,21.47 Q1.689,21.25 2,21.25 Z"/>
  <path fill="#292D32" d="M2.2,21.997 L2.25,9.967 Q2.25,8.647 3.304,7.812 L10.309,2.358 Q11.988,1.052 13.686,2.355 L20.69,7.798 Q21.75,8.62 21.75,9.97 L21.75,22 L20.25,22 L20.25,9.97 Q20.25,9.355 19.77,8.982 L12.773,3.545 Q11.995,2.948 11.231,3.542 L4.235,8.988 Q3.75,9.372 3.75,9.973 L3.7,22.003 Z"/>
  <path fill="#292D32" d="M13,16.25 Q15.25,16.25 15.25,18.5 L15.25,22 Q15.25,22.311 15.03,22.53 Q14.811,22.75 14.5,22.75 L9.5,22.75 Q9.189,22.75 8.97,22.53 Q8.75,22.311 8.75,22 L8.75,18.5 Q8.75,16.25 11,16.25 Z M13,17.75 L11,17.75 Q10.25,17.75 10.25,18.5 L10.25,21.25 L13.75,21.25 L13.75,18.5 Q13.75,17.75 13,17.75 Z"/>
  <path fill="#292D32" d="M9.5,14.5 L7.5,14.5 Q5.75,14.5 5.75,12.75 L5.75,11.25 Q5.75,9.5 7.5,9.5 L9.5,9.5 Q11.25,9.5 11.25,11.25 L11.25,12.75 Q11.25,13.473 10.737,13.987 Q10.223,14.5 9.5,14.5 Z M9.5,13 Q9.75,13 9.75,12.75 L9.75,11.25 Q9.75,11 9.5,11 L7.5,11 Q7.25,11 7.25,11.25 L7.25,12.75 Q7.25,12.852 7.324,12.926 Q7.398,13 7.5,13 Z"/>
  <path fill="#292D32" d="M16.5,14.5 L14.5,14.5 Q12.75,14.5 12.75,12.75 L12.75,11.25 Q12.75,9.5 14.5,9.5 L16.5,9.5 Q17.223,9.5 17.737,10.013 Q18.25,10.527 18.25,11.25 L18.25,12.75 Q18.25,14.5 16.5,14.5 Z M16.5,13 Q16.75,13 16.75,12.75 L16.75,11.25 Q16.75,11 16.5,11 L14.5,11 Q14.398,11 14.324,11.074 Q14.25,11.148 14.25,11.25 L14.25,12.75 Q14.25,13 14.5,13 Z"/>
  <path fill="#292D32" d="M18.25,7.007 L18.228,4.75 L14.57,4.75 Q14.259,4.75 14.04,4.53 Q13.82,4.311 13.82,4 Q13.82,3.689 14.04,3.47 Q14.259,3.25 14.57,3.25 L18.97,3.25 Q19.279,3.25 19.498,3.467 Q19.717,3.684 19.72,3.993 L19.75,6.993 Q19.753,7.303 19.536,7.525 Q19.318,7.747 19.008,7.75 Q18.697,7.753 18.475,7.536 Q18.253,7.318 18.25,7.007 Z"/>
</svg>

