<svg xmlns="http://www.w3.org/2000/svg" width="24" height="24" viewBox="0 0 24 24">
  <defs/>
  <path fill="#292D32" d="M22,22.75 L2,22.75 C1.59,22.75 1.25,22.41 1.25,22 C1.25,21.59 1.59,21.25 2,21.25 L22,21.25 C22.41,21.25 22.75,21.59 22.75,22 C22.75,22.41 22.41,22.75 22,22.75 Z"/>
  <path fill="#292D32" opacity="0.4" d="M20.999,9.98 L20.999,22 L2.949,22 L2.999,9.97 C2.999,9.36 3.279,8.78 3.769,8.4 L10.769,2.96 C11.489,2.39 12.509,2.39 13.229,2.96 L14.569,4 L18.999,7.44 L20.229,8.4 C20.719,8.78 20.999,9.36 20.999,9.98 Z"/>
  <path fill="#292D32" d="M13,17 L11,17 C10.17,17 9.5,17.67 9.5,18.5 L9.5,22 L14.5,22 L14.5,18.5 C14.5,17.67 13.83,17 13,17 Z"/>
  <path fill="#292D32" d="M9.5,13.75 L7.5,13.75 C6.95,13.75 6.5,13.3 6.5,12.75 L6.5,11.25 C6.5,10.7 6.95,10.25 7.5,10.25 L9.5,10.25 C10.05,10.25 10.5,10.7 10.5,11.25 L10.5,12.75 C10.5,13.3 10.05,13.75 9.5,13.75 Z"/>
  <path fill="#292D32" d="M16.5,13.75 L14.5,13.75 C13.95,13.75 13.5,13.3 13.5,12.75 L13.5,11.25 C13.5,10.7 13.95,10.25 14.5,10.25 L16.5,10.25 C17.05,10.25 17.5,10.7 17.5,11.25 L17.5,12.75 C17.5,13.3 17.05,13.75 16.5,13.75 Z"/>
  <path fill="#292D32" d="M19,7.44 L14.57,4 L17.98,4 C18.53,4 18.98,4.44 18.98,4.99 L19,7.44 Z"/>
</svg>

