<svg xmlns="http://www.w3.org/2000/svg" width="24" height="24" viewBox="0 0 24 24">
  <defs/>
  <path fill="#292D32" d="M2,21.25 L22,21.25 Q22.311,21.25 22.53,21.47 Q22.75,21.689 22.75,22 Q22.75,22.311 22.53,22.53 Q22.311,22.75 22,22.75 L2,22.75 Q1.689,22.75 1.47,22.53 Q1.25,22.311 1.25,22 Q1.25,21.689 1.47,21.47 Q1.689,21.25 2,21.25 Z"/>
  <path fill="#292D32" d="M2.25,9.97 Q2.25,8.647 3.304,7.812 L10.309,2.358 Q11.988,1.052 13.686,2.355 L20.69,7.798 Q21.75,8.62 21.75,9.97 L21.75,22 Q21.75,22.311 21.53,22.53 Q21.311,22.75 21,22.75 Q20.689,22.75 20.47,22.53 Q20.25,22.311 20.25,22 L20.25,9.97 Q20.25,9.355 19.77,8.982 L12.774,3.545 Q11.995,2.948 11.231,3.542 L4.236,8.988 Q3.75,9.372 3.75,9.97 Q3.75,10.281 3.53,10.5 Q3.311,10.72 3,10.72 Q2.689,10.72 2.47,10.5 Q2.25,10.281 2.25,9.97 Z"/>
  <path fill="#292D32" d="M2.199,21.997 L2.229,14.027 Q2.23,13.717 2.451,13.498 Q2.671,13.279 2.982,13.28 Q3.293,13.281 3.512,13.502 Q3.73,13.722 3.729,14.033 L3.699,22.003 Q3.698,22.313 3.478,22.532 Q3.257,22.751 2.946,22.75 Q2.636,22.749 2.417,22.528 Q2.198,22.308 2.199,21.997 Z"/>
  <path fill="#292D32" d="M15.5,10.25 Q17.75,10.25 17.75,12.5 L17.75,22 Q17.75,22.311 17.53,22.53 Q17.311,22.75 17,22.75 L7,22.75 Q6.689,22.75 6.47,22.53 Q6.25,22.311 6.25,22 L6.25,12.5 Q6.25,10.25 8.5,10.25 Z M15.5,11.75 L8.5,11.75 Q7.75,11.75 7.75,12.5 L7.75,21.25 L16.25,21.25 L16.25,12.5 Q16.25,11.75 15.5,11.75 Z"/>
  <path fill="#292D32" d="M10.75,16.25 L10.75,17.75 Q10.75,18.061 10.53,18.28 Q10.311,18.5 10,18.5 Q9.689,18.5 9.47,18.28 Q9.25,18.061 9.25,17.75 L9.25,16.25 Q9.25,15.939 9.47,15.72 Q9.689,15.5 10,15.5 Q10.311,15.5 10.53,15.72 Q10.75,15.939 10.75,16.25 Z"/>
  <path fill="#292D32" d="M10.5,6.75 L13.5,6.75 Q13.811,6.75 14.03,6.97 Q14.25,7.189 14.25,7.5 Q14.25,7.811 14.03,8.03 Q13.811,8.25 13.5,8.25 L10.5,8.25 Q10.189,8.25 9.97,8.03 Q9.75,7.811 9.75,7.5 Q9.75,7.189 9.97,6.97 Q10.189,6.75 10.5,6.75 Z"/>
</svg>

