<svg xmlns="http://www.w3.org/2000/svg" width="24" height="24" viewBox="0 0 24 24">
  <defs/>
  <path fill="#292D32" d="M22.75,22 C22.75,22.41 22.41,22.75 22,22.75 L2,22.75 C1.59,22.75 1.25,22.41 1.25,22 C1.25,21.58 1.59,21.25 2,21.25 L22,21.25 C22.41,21.25 22.75,21.58 22.75,22 Z"/>
  <path fill="#292D32" opacity="0.4" d="M20.999,9.98 L20.999,21.25 L2.949,21.25 L2.999,9.97 C2.999,9.36 3.279,8.78 3.769,8.4 L10.769,2.96 C11.489,2.39 12.509,2.39 13.229,2.96 L20.229,8.4 C20.719,8.78 20.999,9.36 20.999,9.98 Z"/>
  <path fill="#292D32" d="M13.5,8.25 L10.5,8.25 C10.09,8.25 9.75,7.91 9.75,7.5 C9.75,7.09 10.09,6.75 10.5,6.75 L13.5,6.75 C13.91,6.75 14.25,7.09 14.25,7.5 C14.25,7.91 13.91,8.25 13.5,8.25 Z"/>
  <path fill="#292D32" d="M15.5,11 L8.5,11 C7.67,11 7,11.67 7,12.5 L7,22 L17,22 L17,12.5 C17,11.67 16.33,11 15.5,11 Z M10.75,17.75 C10.75,18.16 10.41,18.5 10,18.5 C9.59,18.5 9.25,18.16 9.25,17.75 L9.25,16.25 C9.25,15.84 9.59,15.5 10,15.5 C10.41,15.5 10.75,15.84 10.75,16.25 L10.75,17.75 Z"/>
</svg>

