<svg xmlns="http://www.w3.org/2000/svg" width="24" height="24" viewBox="0 0 24 24">
  <defs/>
  <path fill="#292D32" d="M10,15.5 C9.59,15.5 9.25,15.84 9.25,16.25 L9.25,17.75 C9.25,18.16 9.59,18.5 10,18.5 C10.41,18.5 10.75,18.16 10.75,17.75 L10.75,16.25 C10.75,15.84 10.41,15.5 10,15.5 Z"/>
  <path fill="#292D32" d="M22,21.249 L21,21.249 L21,9.979 C21,9.359 20.72,8.779 20.23,8.399 L13.23,2.959 C12.51,2.389 11.49,2.389 10.77,2.959 L3.77,8.399 C3.28,8.779 3,9.359 3,9.969 L2.95,21.249 L2,21.249 C1.59,21.249 1.25,21.579 1.25,21.999 C1.25,22.409 1.59,22.749 2,22.749 L22,22.749 C22.41,22.749 22.75,22.409 22.75,21.999 C22.75,21.579 22.41,21.249 22,21.249 Z M10.5,6.749 L13.5,6.749 C13.91,6.749 14.25,7.089 14.25,7.499 C14.25,7.909 13.91,8.249 13.5,8.249 L10.5,8.249 C10.09,8.249 9.75,7.909 9.75,7.499 C9.75,7.089 10.09,6.749 10.5,6.749 Z M17,21.249 L7,21.249 L7,12.499 C7,11.669 7.67,10.999 8.5,10.999 L15.5,10.999 C16.33,10.999 17,11.669 17,12.499 L17,21.249 Z"/>
</svg>

