<svg xmlns="http://www.w3.org/2000/svg" width="24" height="24" viewBox="0 0 24 24">
  <defs/>
  <path fill="#292D32" d="M22,21.249 L21,21.249 L21,9.979 C21,9.359 20.72,8.779 20.23,8.399 L19,7.439 L18.98,4.989 C18.98,4.439 18.53,3.999 17.98,3.999 L14.57,3.999 L13.23,2.959 C12.51,2.389 11.49,2.389 10.77,2.959 L3.77,8.399 C3.28,8.779 3,9.359 3,9.969 L2.95,21.249 L2,21.249 C1.59,21.249 1.25,21.589 1.25,21.999 C1.25,22.409 1.59,22.749 2,22.749 L22,22.749 C22.41,22.749 22.75,22.409 22.75,21.999 C22.75,21.589 22.41,21.249 22,21.249 Z M6.5,12.749 L6.5,11.249 C6.5,10.699 6.95,10.249 7.5,10.249 L9.5,10.249 C10.05,10.249 10.5,10.699 10.5,11.249 L10.5,12.749 C10.5,13.299 10.05,13.749 9.5,13.749 L7.5,13.749 C6.95,13.749 6.5,13.299 6.5,12.749 Z M14.5,21.249 L9.5,21.249 L9.5,18.499 C9.5,17.669 10.17,16.999 11,16.999 L13,16.999 C13.83,16.999 14.5,17.669 14.5,18.499 L14.5,21.249 Z M17.5,12.749 C17.5,13.299 17.05,13.749 16.5,13.749 L14.5,13.749 C13.95,13.749 13.5,13.299 13.5,12.749 L13.5,11.249 C13.5,10.699 13.95,10.249 14.5,10.249 L16.5,10.249 C17.05,10.249 17.5,10.699 17.5,11.249 L17.5,12.749 Z"/>
</svg>

