<svg xmlns="http://www.w3.org/2000/svg" width="24" height="24" viewBox="0 0 24 24">
  <defs/>
  <path fill="#292D32" d="M22,22.75 L2,22.75 C1.59,22.75 1.25,22.41 1.25,22 C1.25,21.59 1.59,21.25 2,21.25 L22,21.25 C22.41,21.25 22.75,21.59 22.75,22 C22.75,22.41 22.41,22.75 22,22.75 Z"/>
  <path fill="#292D32" d="M3.7,22 L2.2,22 L2.25,9.97 C2.25,9.12 2.64,8.33 3.31,7.81 L10.31,2.36 C11.3,1.59 12.69,1.59 13.69,2.36 L20.69,7.8 C21.35,8.32 21.75,9.13 21.75,9.97 L21.75,22 L20.25,22 L20.25,9.98 C20.25,9.6 20.07,9.23 19.77,8.99 L12.77,3.55 C12.32,3.2 11.69,3.2 11.23,3.55 L4.23,9 C3.93,9.23 3.75,9.6 3.75,9.98 L3.7,22 Z"/>
  <path fill="#292D32" d="M17,22.75 L7,22.75 C6.59,22.75 6.25,22.41 6.25,22 L6.25,12.5 C6.25,11.26 7.26,10.25 8.5,10.25 L15.5,10.25 C16.74,10.25 17.75,11.26 17.75,12.5 L17.75,22 C17.75,22.41 17.41,22.75 17,22.75 Z M7.75,21.25 L16.25,21.25 L16.25,12.5 C16.25,12.09 15.91,11.75 15.5,11.75 L8.5,11.75 C8.09,11.75 7.75,12.09 7.75,12.5 L7.75,21.25 Z"/>
  <path fill="#292D32" d="M10,18.5 C9.59,18.5 9.25,18.16 9.25,17.75 L9.25,16.25 C9.25,15.84 9.59,15.5 10,15.5 C10.41,15.5 10.75,15.84 10.75,16.25 L10.75,17.75 C10.75,18.16 10.41,18.5 10,18.5 Z"/>
  <path fill="#292D32" d="M13.5,8.25 L10.5,8.25 C10.09,8.25 9.75,7.91 9.75,7.5 C9.75,7.09 10.09,6.75 10.5,6.75 L13.5,6.75 C13.91,6.75 14.25,7.09 14.25,7.5 C14.25,7.91 13.91,8.25 13.5,8.25 Z"/>
</svg>

