<svg xmlns="http://www.w3.org/2000/svg" width="24" height="24" viewBox="0 0 24 24">
  <defs/>
  <path fill="#292D32" d="M22,22.75 L2,22.75 C1.59,22.75 1.25,22.41 1.25,22 C1.25,21.59 1.59,21.25 2,21.25 L22,21.25 C22.41,21.25 22.75,21.59 22.75,22 C22.75,22.41 22.41,22.75 22,22.75 Z"/>
  <path fill="#292D32" d="M3.7,22 L2.2,22 L2.25,9.97 C2.25,9.12 2.64,8.33 3.31,7.81 L10.31,2.36 C11.3,1.59 12.69,1.59 13.69,2.36 L20.69,7.8 C21.35,8.32 21.75,9.13 21.75,9.97 L21.75,22 L20.25,22 L20.25,9.98 C20.25,9.6 20.07,9.23 19.77,8.99 L12.77,3.55 C12.32,3.2 11.69,3.2 11.23,3.55 L4.23,9 C3.93,9.23 3.75,9.6 3.75,9.98 L3.7,22 Z"/>
  <path fill="#292D32" d="M14.5,22.75 L9.5,22.75 C9.09,22.75 8.75,22.41 8.75,22 L8.75,18.5 C8.75,17.26 9.76,16.25 11,16.25 L13,16.25 C14.24,16.25 15.25,17.26 15.25,18.5 L15.25,22 C15.25,22.41 14.91,22.75 14.5,22.75 Z M10.25,21.25 L13.75,21.25 L13.75,18.5 C13.75,18.09 13.41,17.75 13,17.75 L11,17.75 C10.59,17.75 10.25,18.09 10.25,18.5 L10.25,21.25 Z"/>
  <path fill="#292D32" d="M9.5,14.5 L7.5,14.5 C6.54,14.5 5.75,13.71 5.75,12.75 L5.75,11.25 C5.75,10.29 6.54,9.5 7.5,9.5 L9.5,9.5 C10.46,9.5 11.25,10.29 11.25,11.25 L11.25,12.75 C11.25,13.71 10.46,14.5 9.5,14.5 Z M7.5,11 C7.36,11 7.25,11.11 7.25,11.25 L7.25,12.75 C7.25,12.89 7.36,13 7.5,13 L9.5,13 C9.64,13 9.75,12.89 9.75,12.75 L9.75,11.25 C9.75,11.11 9.64,11 9.5,11 L7.5,11 Z"/>
  <path fill="#292D32" d="M16.5,14.5 L14.5,14.5 C13.54,14.5 12.75,13.71 12.75,12.75 L12.75,11.25 C12.75,10.29 13.54,9.5 14.5,9.5 L16.5,9.5 C17.46,9.5 18.25,10.29 18.25,11.25 L18.25,12.75 C18.25,13.71 17.46,14.5 16.5,14.5 Z M14.5,11 C14.36,11 14.25,11.11 14.25,11.25 L14.25,12.75 C14.25,12.89 14.36,13 14.5,13 L16.5,13 C16.64,13 16.75,12.89 16.75,12.75 L16.75,11.25 C16.75,11.11 16.64,11 16.5,11 L14.5,11 Z"/>
  <path fill="#292D32" d="M19,7.75 C18.59,7.75 18.25,7.42 18.25,7.01 L18.23,4.75 L14.58,4.75 C14.17,4.75 13.83,4.41 13.83,4 C13.83,3.59 14.17,3.25 14.58,3.25 L18.98,3.25 C19.39,3.25 19.73,3.58 19.73,3.99 L19.76,6.99 C19.75,7.41 19.42,7.75 19,7.75 C19.01,7.75 19,7.75 19,7.75 Z"/>
</svg>

