<svg xmlns="http://www.w3.org/2000/svg" width="24" height="24" viewBox="0 0 24 24">
  <defs/>
  <path d="M4.12,1.25 L19.89,1.25 Q20.676,1.25 21.197,1.835 Q21.717,2.42 21.625,3.198 L19.826,19.413 Q19.709,20.579 18.564,20.902 L12.486,22.641 Q12.005,22.775 11.529,22.643 L5.444,20.901 Q4.331,20.587 4.186,19.423 L2.385,3.193 Q2.293,2.42 2.814,1.835 Q3.334,1.25 4.12,1.25 Z M4.12,2.75 Q4.007,2.75 3.934,2.832 Q3.862,2.913 3.876,3.027 L5.674,19.237 Q5.696,19.414 5.856,19.459 L11.931,21.197 Q12.005,21.218 12.074,21.199 L18.157,19.458 Q18.318,19.413 18.335,19.247 L20.135,3.022 Q20.148,2.913 20.076,2.832 Q20.003,2.75 19.89,2.75 Z"/>
  <g opacity="0.4">
    <path d="M7.502,6.23 L16.502,6.25 Q16.812,6.251 17.032,6.471 Q17.251,6.691 17.25,7.002 Q17.25,7.042 17.245,7.083 L16.245,16.083 Q16.19,16.583 15.706,16.721 L12.206,17.721 Q12,17.78 11.794,17.721 L8.294,16.721 Q7.877,16.602 7.772,16.182 L7.272,14.182 Q7.197,13.881 7.357,13.614 Q7.517,13.348 7.818,13.272 Q8.119,13.197 8.386,13.357 Q8.652,13.517 8.728,13.818 L9.123,15.398 L12,16.22 L14.81,15.417 L15.662,7.748 L7.498,7.73 Q7.188,7.729 6.968,7.509 Q6.749,7.289 6.75,6.978 Q6.751,6.668 6.971,6.448 Q7.191,6.229 7.502,6.23 Z"/>
    <path d="M8,10.25 L16.06,10.25 Q16.371,10.25 16.59,10.47 Q16.81,10.689 16.81,11 Q16.81,11.311 16.59,11.53 Q16.371,11.75 16.06,11.75 L8,11.75 Q7.689,11.75 7.47,11.53 Q7.25,11.311 7.25,11 Q7.25,10.689 7.47,10.47 Q7.689,10.25 8,10.25 Z"/>
  </g>
</svg>

