<svg xmlns="http://www.w3.org/2000/svg" width="24" height="24" viewBox="0 0 24 24">
  <defs/>
  <path fill="#17191C" d="M4.1,1.25 L19.9,1.25 Q20.683,1.25 21.21,1.812 Q21.767,2.406 21.644,3.201 L19.849,19.347 Q19.824,20.327 18.736,20.871 Q18.671,20.903 18.601,20.922 L12.564,22.605 Q11.923,22.896 11.453,22.582 L5.508,20.925 Q4.273,20.611 4.251,19.347 L2.355,3.187 Q2.35,3.144 2.35,3.1 Q2.35,1.25 4.1,1.25 Z M4.1,2.75 Q4,2.75 3.94,2.819 Q3.859,2.911 3.851,3.064 L5.745,19.213 Q5.75,19.256 5.75,19.3 Q5.75,19.439 5.882,19.472 Q5.892,19.475 5.901,19.478 L12.001,21.178 Q12.026,21.184 12.05,21.193 Q12.074,21.184 12.099,21.178 L18.124,19.498 Q18.35,19.377 18.35,19.3 Q18.35,19.258 18.355,19.217 L20.155,3.017 Q20.157,2.997 20.16,2.977 Q20.173,2.9 20.115,2.838 Q20.033,2.75 19.9,2.75 Z M12.132,21.227 Q12.242,21.281 12.33,21.37 Q12.223,21.263 12.132,21.227 Z"/>
  <path fill="#17191C" d="M7.5,6.25 L16.5,6.25 Q16.811,6.25 17.03,6.47 Q17.25,6.689 17.25,7 Q17.25,7.042 17.245,7.083 L16.245,16.083 Q16.19,16.583 15.706,16.721 L12.206,17.721 Q12,17.78 11.794,17.721 L8.294,16.721 Q7.877,16.602 7.772,16.182 L7.272,14.182 Q7.197,13.881 7.357,13.614 Q7.517,13.348 7.818,13.272 Q8.119,13.197 8.386,13.357 Q8.652,13.517 8.728,13.818 L9.123,15.398 L12,16.22 L14.81,15.417 L15.662,7.75 L7.5,7.75 Q7.189,7.75 6.97,7.53 Q6.75,7.311 6.75,7 Q6.75,6.689 6.97,6.47 Q7.189,6.25 7.5,6.25 Z"/>
  <path fill="#17191C" d="M8,10.25 L16.1,10.25 Q16.411,10.25 16.63,10.47 Q16.85,10.689 16.85,11 Q16.85,11.311 16.63,11.53 Q16.411,11.75 16.1,11.75 L8,11.75 Q7.689,11.75 7.47,11.53 Q7.25,11.311 7.25,11 Q7.25,10.689 7.47,10.47 Q7.689,10.25 8,10.25 Z"/>
</svg>

