<svg xmlns="http://www.w3.org/2000/svg" width="24" height="24" viewBox="0 0 24 24">
  <defs/>
  <path d="M2.575,4.993 L2.375,3.193 Q2.283,2.42 2.809,1.833 Q3.332,1.25 4.11,1.25 L19.88,1.25 Q20.666,1.25 21.187,1.835 Q21.707,2.42 21.615,3.198 L19.816,19.413 Q19.699,20.579 18.554,20.902 L12.477,22.641 Q11.995,22.775 11.519,22.643 L5.434,20.901 Q4.322,20.587 4.176,19.423 L3.075,9.493 Q3.041,9.184 3.235,8.941 Q3.429,8.699 3.738,8.665 Q4.046,8.63 4.289,8.824 Q4.531,9.019 4.566,9.327 L5.664,19.237 Q5.687,19.414 5.847,19.459 L11.921,21.197 Q11.995,21.218 12.064,21.199 L18.147,19.458 Q18.308,19.413 18.325,19.247 L20.125,3.022 Q20.138,2.913 20.066,2.832 Q19.993,2.75 19.88,2.75 L4.11,2.75 Q4.002,2.75 3.926,2.834 Q3.853,2.917 3.866,3.027 L4.066,4.827 Q4.1,5.136 3.906,5.379 Q3.712,5.621 3.403,5.655 Q3.094,5.69 2.852,5.496 Q2.609,5.302 2.575,4.993 Z"/>
  <path d="M16.25,7.5 L8.588,7.5 L8.921,10.5 L15.75,10.5 Q16.061,10.5 16.28,10.72 Q16.5,10.939 16.5,11.25 Q16.5,11.287 16.496,11.325 L15.996,16.325 Q15.946,16.831 15.456,16.971 L11.956,17.971 Q11.75,18.03 11.544,17.971 L8.044,16.971 Q7.5,16.816 7.5,16.25 L7.5,14.25 Q7.5,13.939 7.72,13.72 Q7.939,13.5 8.25,13.5 Q8.561,13.5 8.78,13.72 Q9,13.939 9,14.25 L9,15.684 L11.75,16.47 L14.554,15.669 L14.921,12 L8.25,12 Q7.963,12 7.75,11.809 Q7.536,11.618 7.505,11.333 L7.005,6.833 Q7,6.792 7,6.75 Q7,6.439 7.22,6.22 Q7.439,6 7.75,6 L16.25,6 Q16.561,6 16.78,6.22 Q17,6.439 17,6.75 Q17,7.061 16.78,7.28 Q16.561,7.5 16.25,7.5 Z"/>
</svg>

