<svg xmlns="http://www.w3.org/2000/svg" width="24" height="24" viewBox="0 0 24 24">
  <defs/>
  <path d="M12.001,22.71 C11.841,22.71 11.681,22.69 11.521,22.64 L5.44,20.9 C4.75,20.7 4.26,20.12 4.18,19.41 L2.38,3.19 C2.33,2.7 2.48,2.2 2.82,1.83 C3.15,1.46 3.63,1.25 4.12,1.25 L19.89,1.25 C20.39,1.25 20.86,1.46 21.191,1.83 C21.52,2.2 21.68,2.7 21.631,3.19 L19.831,19.41 C19.75,20.12 19.261,20.7 18.57,20.9 L12.491,22.64 C12.32,22.69 12.161,22.71 12.001,22.71 Z M4.12,2.75 C4.02,2.75 3.96,2.8 3.93,2.83 C3.9,2.86 3.86,2.93 3.87,3.02 L5.67,19.24 C5.68,19.34 5.75,19.43 5.85,19.45 L11.931,21.19 C11.97,21.2 12.021,21.2 12.07,21.19 L18.151,19.45 C18.25,19.42 18.32,19.34 18.331,19.24 L20.131,3.02 C20.14,2.92 20.101,2.86 20.07,2.83 C20.041,2.8 19.98,2.75 19.881,2.75 L4.12,2.75 Z"/>
  <path d="M12,17.75 C11.93,17.75 11.86,17.74 11.79,17.72 L8.29,16.72 C8.03,16.65 7.83,16.44 7.77,16.18 L7.27,14.18 C7.17,13.78 7.41,13.37 7.82,13.27 C8.22,13.17 8.63,13.41 8.73,13.82 L9.13,15.4 L12.01,16.22 L14.82,15.42 L15.67,7.75 L7.51,7.73 C7.1,7.73 6.76,7.39 6.76,6.98 C6.76,6.57 7.1,6.23 7.51,6.23 L16.51,6.25 C16.72,6.25 16.93,6.34 17.07,6.5 C17.21,6.66 17.28,6.87 17.26,7.08 L16.26,16.08 C16.23,16.38 16.01,16.63 15.72,16.72 L12.22,17.72 C12.14,17.74 12.07,17.75 12,17.75 Z"/>
  <path d="M16.06,11.75 L8,11.75 C7.59,11.75 7.25,11.41 7.25,11 C7.25,10.59 7.59,10.25 8,10.25 L16.06,10.25 C16.47,10.25 16.81,10.59 16.81,11 C16.81,11.41 16.47,11.75 16.06,11.75 Z"/>
</svg>

