<svg xmlns="http://www.w3.org/2000/svg" width="24" height="24" viewBox="0 0 24 24">
  <defs/>
  <path d="M19.88,2 L4.11,2 C3.51,2 3.05,2.52 3.12,3.11 L4.92,19.33 C4.96,19.73 5.25,20.07 5.64,20.18 L11.72,21.92 C11.9,21.97 12.09,21.97 12.27,21.92 L18.35,20.18 C18.74,20.07 19.02,19.73 19.07,19.33 L20.87,3.11 C20.94,2.52 20.48,2 19.88,2 Z M16.25,7.5 L8.59,7.5 L8.92,10.5 L15.75,10.5 C15.96,10.5 16.16,10.59 16.31,10.75 C16.45,10.91 16.52,11.12 16.5,11.33 L16,16.33 C15.97,16.64 15.76,16.89 15.46,16.98 L11.96,17.98 C11.89,18 11.82,18.01 11.75,18.01 C11.68,18.01 11.61,18 11.54,17.98 L8.04,16.98 C7.72,16.89 7.5,16.59 7.5,16.26 L7.5,14.26 C7.5,13.85 7.84,13.51 8.25,13.51 C8.66,13.51 9,13.85 9,14.26 L9,15.69 L11.75,16.48 L14.55,15.68 L14.92,12.01 L8.25,12.01 C7.87,12.01 7.55,11.72 7.5,11.34 L7,6.84 C6.98,6.63 7.04,6.42 7.19,6.26 C7.33,6.1 7.54,6.01 7.75,6.01 L16.25,6.01 C16.66,6.01 17,6.35 17,6.76 C17,7.17 16.66,7.5 16.25,7.5 Z"/>
</svg>

