<svg xmlns="http://www.w3.org/2000/svg" width="24" height="24" viewBox="0 0 24 24">
  <defs/>
  <path d="M12.001,22.71 C11.841,22.71 11.681,22.69 11.521,22.64 L5.44,20.9 C4.75,20.7 4.26,20.12 4.18,19.41 L2.38,3.19 C2.33,2.7 2.48,2.2 2.82,1.83 C3.15,1.46 3.63,1.25 4.12,1.25 L19.89,1.25 C20.39,1.25 20.86,1.46 21.191,1.83 C21.52,2.2 21.68,2.7 21.631,3.19 L19.831,19.41 C19.75,20.12 19.261,20.7 18.57,20.9 L12.491,22.64 C12.32,22.69 12.161,22.71 12.001,22.71 Z M4.12,2.75 C4.02,2.75 3.96,2.8 3.93,2.83 C3.9,2.86 3.86,2.93 3.87,3.02 L5.67,19.24 C5.68,19.34 5.75,19.43 5.85,19.45 L11.931,21.19 C11.97,21.2 12.021,21.2 12.07,21.19 L18.151,19.45 C18.25,19.42 18.32,19.34 18.331,19.24 L20.131,3.02 C20.14,2.92 20.09,2.86 20.07,2.83 C20.041,2.8 19.98,2.75 19.881,2.75 L4.12,2.75 Z"/>
  <path d="M11.75,18 C11.68,18 11.61,17.99 11.54,17.97 L8.04,16.97 C7.72,16.88 7.5,16.58 7.5,16.25 L7.5,14.25 C7.5,13.84 7.84,13.5 8.25,13.5 C8.66,13.5 9,13.84 9,14.25 L9,15.68 L11.75,16.47 L14.55,15.67 L14.92,12 L8.25,12 C7.87,12 7.55,11.71 7.5,11.33 L7,6.83 C6.98,6.62 7.04,6.41 7.19,6.25 C7.33,6.09 7.54,6 7.75,6 L16.25,6 C16.66,6 17,6.34 17,6.75 C17,7.16 16.66,7.5 16.25,7.5 L8.59,7.5 L8.92,10.5 L15.75,10.5 C15.96,10.5 16.16,10.59 16.31,10.75 C16.45,10.91 16.52,11.12 16.5,11.33 L16,16.33 C15.97,16.64 15.76,16.89 15.46,16.98 L11.96,17.98 C11.89,17.99 11.82,18 11.75,18 Z"/>
</svg>

