<svg xmlns="http://www.w3.org/2000/svg" width="24" height="24" viewBox="0 0 24 24">
  <defs/>
  <path fill="white" opacity="0.58" d="M24,0 L0,0 L0,24 L24,24 L24,0 Z"/>
  <path fill="#292D32" opacity="0.4" d="M4.12,2 L19.89,2 C20.49,2 20.95,2.52 20.88,3.11 L19.08,19.33 C19.04,19.73 18.75,20.07 18.36,20.18 L12.28,21.92 C12.1,21.97 11.91,21.97 11.73,21.92 L5.65,20.18 C5.26,20.07 4.98,19.73 4.93,19.33 L3.13,3.11 C3.06,2.52 3.52,2 4.12,2 Z"/>
  <path fill="#292D32" d="M17.06,6.5 C16.92,6.34 16.72,6.25 16.5,6.25 L7.5,6.23 C7.09,6.23 6.75,6.56 6.75,6.98 C6.75,7.39 7.08,7.73 7.5,7.73 L15.66,7.75 L15.38,10.25 L8,10.25 C7.59,10.25 7.25,10.59 7.25,11 C7.25,11.41 7.59,11.75 8,11.75 L15.22,11.75 L14.81,15.42 L12,16.22 L9.12,15.4 L8.72,13.82 C8.62,13.42 8.21,13.17 7.81,13.27 C7.41,13.37 7.16,13.78 7.26,14.18 L7.76,16.18 C7.82,16.44 8.02,16.65 8.28,16.72 L11.78,17.72 C11.85,17.74 11.92,17.75 11.99,17.75 C12.06,17.75 12.13,17.74 12.2,17.72 L15.7,16.72 C15.99,16.64 16.21,16.39 16.24,16.08 L17.24,7.08 C17.27,6.87 17.2,6.66 17.06,6.5 Z"/>
</svg>

