<svg xmlns="http://www.w3.org/2000/svg" width="24" height="24" viewBox="0 0 24 24">
  <defs/>
  <path d="M4.12,1.25 L19.89,1.25 Q20.676,1.25 21.197,1.835 Q21.717,2.42 21.625,3.198 L19.826,19.413 Q19.709,20.579 18.564,20.902 L12.486,22.641 Q12.005,22.775 11.529,22.643 L5.444,20.901 Q4.331,20.587 4.186,19.423 L2.385,3.193 Q2.293,2.42 2.814,1.835 Q3.334,1.25 4.12,1.25 Z M4.12,2.75 Q4.007,2.75 3.934,2.832 Q3.862,2.913 3.876,3.027 L5.674,19.237 Q5.696,19.414 5.856,19.459 L11.931,21.197 Q12.005,21.218 12.074,21.199 L18.157,19.458 Q18.318,19.413 18.335,19.247 L20.135,3.022 Q20.148,2.913 20.076,2.832 Q20.003,2.75 19.89,2.75 Z"/>
  <path opacity="0.4" d="M16.25,7.5 L8.588,7.5 L8.921,10.5 L15.75,10.5 Q16.061,10.5 16.28,10.72 Q16.5,10.939 16.5,11.25 Q16.5,11.287 16.496,11.325 L15.996,16.325 Q15.946,16.831 15.456,16.971 L11.956,17.971 Q11.75,18.03 11.544,17.971 L8.044,16.971 Q7.5,16.816 7.5,16.25 L7.5,14.25 Q7.5,13.939 7.72,13.72 Q7.939,13.5 8.25,13.5 Q8.561,13.5 8.78,13.72 Q9,13.939 9,14.25 L9,15.684 L11.75,16.47 L14.554,15.669 L14.921,12 L8.25,12 Q7.963,12 7.75,11.809 Q7.536,11.618 7.505,11.333 L7.005,6.833 Q7,6.792 7,6.75 Q7,6.439 7.22,6.22 Q7.439,6 7.75,6 L16.25,6 Q16.561,6 16.78,6.22 Q17,6.439 17,6.75 Q17,7.061 16.78,7.28 Q16.561,7.5 16.25,7.5 Z"/>
</svg>

