<svg xmlns="http://www.w3.org/2000/svg" width="24" height="24" viewBox="0 0 24 24">
  <defs/>
  <path d="M19.88,2 L4.12,2 C3.52,2 3.06,2.52 3.13,3.11 L4.93,19.33 C4.97,19.73 5.26,20.07 5.65,20.18 L11.73,21.92 C11.91,21.97 12.1,21.97 12.28,21.92 L18.36,20.18 C18.75,20.07 19.03,19.73 19.08,19.33 L20.88,3.11 C20.94,2.52 20.48,2 19.88,2 Z M16.25,16.08 C16.22,16.38 16,16.63 15.71,16.72 L12.21,17.72 C12.14,17.74 12.07,17.75 12,17.75 C11.93,17.75 11.86,17.74 11.79,17.72 L8.29,16.72 C8.03,16.65 7.83,16.44 7.77,16.18 L7.27,14.18 C7.17,13.78 7.41,13.37 7.82,13.27 C8.22,13.17 8.63,13.41 8.73,13.82 L9.13,15.4 L12.01,16.22 L14.82,15.42 L15.23,11.75 L8,11.75 C7.59,11.75 7.25,11.41 7.25,11 C7.25,10.59 7.59,10.25 8,10.25 L15.38,10.25 L15.66,7.75 L7.5,7.73 C7.09,7.73 6.75,7.39 6.75,6.98 C6.75,6.57 7.09,6.23 7.5,6.23 L16.5,6.25 C16.71,6.25 16.92,6.34 17.06,6.5 C17.2,6.66 17.27,6.87 17.25,7.08 L16.25,16.08 Z"/>
</svg>

