<svg xmlns="http://www.w3.org/2000/svg" width="24" height="24" viewBox="0 0 24 24">
  <defs/>
  <path fill="#17191C" d="M4.1,1.25 L19.9,1.25 Q20.683,1.25 21.21,1.812 Q21.767,2.406 21.644,3.201 L19.849,19.347 Q19.824,20.327 18.736,20.871 Q18.671,20.903 18.601,20.922 L12.564,22.605 Q11.923,22.896 11.453,22.582 L5.508,20.925 Q4.273,20.611 4.251,19.347 L2.355,3.187 Q2.35,3.144 2.35,3.1 Q2.35,1.25 4.1,1.25 Z M4.1,2.75 Q4,2.75 3.94,2.819 Q3.859,2.911 3.851,3.064 L5.745,19.213 Q5.75,19.256 5.75,19.3 Q5.75,19.439 5.882,19.472 Q5.892,19.475 5.901,19.478 L12.001,21.178 Q12.026,21.184 12.05,21.193 Q12.074,21.184 12.099,21.178 L18.124,19.498 Q18.35,19.377 18.35,19.3 Q18.35,19.258 18.355,19.217 L20.155,3.017 Q20.157,2.997 20.16,2.977 Q20.173,2.9 20.115,2.838 Q20.033,2.75 19.9,2.75 Z M12.132,21.227 Q12.242,21.281 12.33,21.37 Q12.223,21.263 12.132,21.227 Z"/>
  <path fill="#17191C" d="M16.2,7.55 L8.621,7.55 L8.885,10.45 L15.8,10.45 Q16.11,10.45 16.33,10.67 Q16.55,10.889 16.55,11.2 Q16.55,11.245 16.544,11.289 L15.944,16.289 Q15.886,16.78 15.411,16.92 L12.011,17.92 Q11.806,17.98 11.599,17.923 L7.999,16.923 Q7.45,16.77 7.45,16.2 L7.45,14.2 Q7.45,13.889 7.669,13.67 Q7.889,13.45 8.2,13.45 Q8.51,13.45 8.73,13.67 Q8.95,13.889 8.95,14.2 L8.95,15.63 L11.794,16.42 L14.514,15.62 L14.954,11.95 L8.2,11.95 Q7.909,11.95 7.694,11.754 Q7.479,11.558 7.453,11.268 L7.053,6.868 Q7.05,6.834 7.05,6.8 Q7.05,6.489 7.269,6.27 Q7.489,6.05 7.8,6.05 L16.2,6.05 Q16.51,6.05 16.73,6.27 Q16.95,6.489 16.95,6.8 Q16.95,7.111 16.73,7.33 Q16.51,7.55 16.2,7.55 Z"/>
</svg>

