<svg xmlns="http://www.w3.org/2000/svg" width="24" height="24" viewBox="0 0 24 24">
  <defs/>
  <path d="M7.502,6.23 L16.502,6.25 Q16.812,6.251 17.032,6.471 Q17.251,6.691 17.25,7.002 Q17.25,7.042 17.245,7.083 L16.245,16.083 Q16.19,16.583 15.706,16.721 L12.206,17.721 Q12,17.78 11.794,17.721 L8.294,16.721 Q7.877,16.602 7.772,16.182 L7.272,14.182 Q7.197,13.881 7.357,13.614 Q7.517,13.348 7.818,13.272 Q8.119,13.197 8.386,13.357 Q8.652,13.517 8.728,13.818 L9.123,15.398 L12,16.22 L14.81,15.417 L15.662,7.748 L7.498,7.73 Q7.188,7.729 6.968,7.509 Q6.749,7.289 6.75,6.978 Q6.751,6.668 6.971,6.448 Q7.191,6.229 7.502,6.23 Z"/>
  <path d="M8,10.25 L16.06,10.25 Q16.371,10.25 16.59,10.47 Q16.81,10.689 16.81,11 Q16.81,11.311 16.59,11.53 Q16.371,11.75 16.06,11.75 L8,11.75 Q7.689,11.75 7.47,11.53 Q7.25,11.311 7.25,11 Q7.25,10.689 7.47,10.47 Q7.689,10.25 8,10.25 Z"/>
  <path d="M2.575,4.993 L2.375,3.193 Q2.283,2.42 2.809,1.833 Q3.332,1.25 4.11,1.25 L19.88,1.25 Q20.666,1.25 21.187,1.835 Q21.707,2.42 21.615,3.198 L19.816,19.413 Q19.699,20.579 18.554,20.902 L12.477,22.641 Q11.995,22.775 11.519,22.643 L5.434,20.901 Q4.322,20.587 4.176,19.423 L3.075,9.493 Q3.041,9.184 3.235,8.941 Q3.429,8.699 3.738,8.665 Q4.046,8.63 4.289,8.824 Q4.531,9.019 4.566,9.327 L5.664,19.237 Q5.687,19.414 5.847,19.459 L11.921,21.197 Q11.995,21.218 12.064,21.199 L18.147,19.458 Q18.308,19.413 18.325,19.247 L20.125,3.022 Q20.138,2.913 20.066,2.832 Q19.993,2.75 19.88,2.75 L4.11,2.75 Q4.002,2.75 3.926,2.834 Q3.853,2.917 3.866,3.027 L4.066,4.827 Q4.1,5.136 3.906,5.379 Q3.712,5.621 3.403,5.655 Q3.094,5.69 2.852,5.496 Q2.609,5.302 2.575,4.993 Z"/>
</svg>

