<svg xmlns="http://www.w3.org/2000/svg" width="24" height="24" viewBox="0 0 24 24">
  <defs/>
  <path fill="white" opacity="0.58" d="M24,0 L0,0 L0,24 L24,24 L24,0 Z"/>
  <path fill="#292D32" opacity="0.4" d="M4.12,2 L19.89,2 C20.49,2 20.95,2.52 20.88,3.11 L19.08,19.33 C19.04,19.73 18.75,20.07 18.36,20.18 L12.28,21.92 C12.1,21.97 11.91,21.97 11.73,21.92 L5.65,20.18 C5.26,20.07 4.98,19.73 4.93,19.33 L3.13,3.11 C3.06,2.52 3.52,2 4.12,2 Z"/>
  <path fill="#292D32" d="M11.75,18 C11.68,18 11.61,17.99 11.54,17.97 L8.04,16.97 C7.72,16.88 7.5,16.58 7.5,16.25 L7.5,14.25 C7.5,13.84 7.84,13.5 8.25,13.5 C8.66,13.5 9,13.84 9,14.25 L9,15.68 L11.75,16.47 L14.55,15.67 L14.92,12 L8.25,12 C7.87,12 7.55,11.71 7.5,11.33 L7,6.83 C6.98,6.62 7.04,6.41 7.19,6.25 C7.33,6.09 7.54,6 7.75,6 L16.25,6 C16.66,6 17,6.34 17,6.75 C17,7.16 16.66,7.5 16.25,7.5 L8.59,7.5 L8.92,10.5 L15.75,10.5 C15.96,10.5 16.16,10.59 16.31,10.75 C16.45,10.91 16.52,11.12 16.5,11.33 L16,16.33 C15.97,16.64 15.76,16.89 15.46,16.98 L11.96,17.98 C11.89,17.99 11.82,18 11.75,18 Z"/>
</svg>

