<svg xmlns="http://www.w3.org/2000/svg" width="24" height="24" viewBox="0 0 24 24">
  <defs/>
  <path d="M17.224,12.414 Q16.867,11.874 16.391,11.331 Q15.58,12.779 13.502,15.459 Q11.979,17.433 13.171,19.384 Q13.76,20.348 14.772,21.099 Q18.118,18.844 18.281,15.839 Q18.297,15.529 18.529,15.322 Q18.76,15.114 19.07,15.131 Q19.38,15.148 19.588,15.379 Q19.795,15.61 19.778,15.921 Q19.565,19.858 15.209,22.604 Q15.178,22.624 15.145,22.641 Q14.698,22.864 14.296,22.596 Q12.753,21.577 11.891,20.166 Q10.161,17.334 12.317,14.541 Q15.297,10.695 15.418,9.889 Q15.453,9.65 15.622,9.477 Q15.838,9.255 16.149,9.25 Q16.459,9.246 16.682,9.462 Q17.768,10.517 18.475,11.586 Q18.646,11.845 18.584,12.15 Q18.522,12.454 18.263,12.626 Q18.004,12.797 17.7,12.735 Q17.395,12.673 17.224,12.414 Z"/>
  <path d="M14.51,7.79 Q14.51,9.529 12.112,12.634 Q9.569,15.928 9.706,17.718 Q9.837,19.072 10.808,20.769 Q11.31,21.647 11.21,22.063 Q11.05,22.731 10.295,22.735 Q10.027,22.736 9.554,22.611 Q6.215,21.657 4.765,18.098 Q3.137,14.102 5.964,10.435 Q9.306,6.055 10.332,2.208 Q10.52,1.457 11.278,1.294 Q11.975,1.145 12.49,1.66 Q12.528,1.697 12.56,1.74 Q14.51,4.34 14.51,7.79 Z M13.01,7.79 Q13.01,5.113 11.651,3.054 Q10.475,6.995 7.156,11.345 Q4.852,14.335 6.154,17.532 Q7.142,19.955 9.161,20.874 Q8.349,19.263 8.213,17.862 Q8.029,15.468 10.925,11.717 Q13.01,9.017 13.01,7.79 Z"/>
</svg>

