<svg xmlns="http://www.w3.org/2000/svg" width="24" height="24" viewBox="0 0 24 24">
  <defs/>
  <path fill="#17191C" d="M15.464,9.853 Q15.508,9.636 15.662,9.478 Q15.878,9.255 16.189,9.25 Q16.499,9.246 16.722,9.462 Q21.209,13.818 19.251,18.213 Q18.254,20.45 15.544,22.453 Q15.402,22.558 15.38,22.576 Q15.171,22.75 14.9,22.75 L14.8,22.75 Q14.537,22.75 14.331,22.586 Q14.311,22.569 14.226,22.505 Q12.574,21.259 11.841,19.917 Q10.365,17.217 12.4,14.55 Q15.298,10.686 15.464,9.853 Z M16.424,11.321 Q15.621,12.755 13.6,15.45 Q12.148,17.352 13.157,19.198 Q13.677,20.149 14.855,21.094 Q17.081,19.398 17.881,17.602 Q19.247,14.537 16.424,11.321 Z"/>
  <path fill="#17191C" d="M14.55,7.8 Q14.55,9.539 12.152,12.644 Q9.609,15.938 9.746,17.728 Q9.877,19.082 10.848,20.779 Q11.35,21.657 11.25,22.073 Q11.09,22.741 10.335,22.745 Q10.067,22.746 9.594,22.621 Q6.255,21.667 4.805,18.108 Q3.177,14.112 6.004,10.445 Q9.346,6.065 10.372,2.218 Q10.56,1.467 11.318,1.304 Q12.015,1.155 12.53,1.67 Q12.568,1.707 12.6,1.75 Q14.55,4.35 14.55,7.8 Z M13.05,7.8 Q13.05,5.123 11.691,3.064 Q10.515,7.005 7.196,11.355 Q4.892,14.345 6.194,17.542 Q7.182,19.965 9.201,20.884 Q8.389,19.273 8.253,17.872 Q8.069,15.478 10.965,11.727 Q13.05,9.027 13.05,7.8 Z"/>
</svg>

