<svg xmlns="http://www.w3.org/2000/svg" width="24" height="24" viewBox="0 0 24 24">
  <defs/>
  <path d="M16.159,10 C16.159,10 16.009,11 12.909,15 C9.999,18.77 14.21,21.64 14.71,21.97 C14.739,21.99 14.769,21.99 14.809,21.97 C15.489,21.55 23.059,16.68 16.159,10 Z"/>
  <path d="M13.76,7.79 C13.76,5.49 12.86,3.39 11.96,2.19 C11.66,1.89 11.16,1.99 11.06,2.39 C10.66,3.89 9.46,7.09 6.56,10.89 C2.86,15.69 6.26,20.89 9.76,21.89 C11.66,22.39 9.26,20.89 8.96,17.79 C8.66,13.89 13.76,10.99 13.76,7.79 Z"/>
</svg>

