<svg xmlns="http://www.w3.org/2000/svg" width="24" height="24" viewBox="0 0 24 24">
  <defs/>
  <path opacity="0.4" d="M15.419,9.889 Q15.454,9.651 15.622,9.478 Q15.838,9.255 16.148,9.25 Q16.459,9.245 16.682,9.461 Q21.437,14.065 18.991,18.684 Q17.742,21.041 15.205,22.608 Q15.176,22.626 15.146,22.641 Q14.699,22.864 14.297,22.596 Q12.753,21.577 11.892,20.166 Q10.162,17.334 12.318,14.541 Q15.298,10.695 15.419,9.889 Z M16.394,11.329 Q15.582,12.777 13.503,15.459 Q11.98,17.433 13.172,19.384 Q13.761,20.349 14.775,21.101 Q16.696,19.811 17.665,17.981 Q19.385,14.734 16.394,11.329 Z"/>
  <path d="M14.51,7.79 Q14.51,9.529 12.112,12.634 Q9.569,15.928 9.706,17.718 Q9.837,19.072 10.808,20.769 Q11.31,21.647 11.21,22.063 Q11.05,22.731 10.295,22.735 Q10.027,22.736 9.554,22.611 Q6.215,21.657 4.765,18.098 Q3.137,14.102 5.964,10.435 Q9.306,6.055 10.332,2.208 Q10.52,1.457 11.278,1.294 Q11.975,1.145 12.49,1.66 Q12.528,1.697 12.56,1.74 Q14.51,4.34 14.51,7.79 Z M13.01,7.79 Q13.01,5.113 11.651,3.054 Q10.475,6.995 7.156,11.345 Q4.852,14.335 6.154,17.532 Q7.142,19.955 9.161,20.874 Q8.349,19.263 8.213,17.862 Q8.029,15.468 10.925,11.717 Q13.01,9.017 13.01,7.79 Z"/>
</svg>

