<svg xmlns="http://www.w3.org/2000/svg" width="24" height="24" viewBox="0 0 24 24">
  <defs/>
  <path opacity="0.4" d="M20.199,2.3 L20.299,2.3 Q20.921,2.3 21.36,2.739 Q21.799,3.179 21.799,3.8 Q21.799,4.421 21.36,4.861 Q20.921,5.3 20.299,5.3 L20.199,5.3 Q19.578,5.3 19.139,4.861 Q18.699,4.421 18.699,3.8 Q18.699,3.179 19.139,2.739 Q19.578,2.3 20.199,2.3 Z"/>
  <path opacity="0.4" d="M3.699,18.7 L3.799,18.7 Q4.421,18.7 4.86,19.139 Q5.299,19.579 5.299,20.2 Q5.299,20.821 4.86,21.261 Q4.421,21.7 3.799,21.7 L3.699,21.7 Q3.078,21.7 2.639,21.261 Q2.199,20.821 2.199,20.2 Q2.199,19.579 2.639,19.139 Q3.078,18.7 3.699,18.7 Z"/>
  <path d="M15.214,6.643 Q13.726,5.75 12,5.75 Q9.408,5.75 7.579,7.579 Q5.75,9.408 5.75,12 Q5.75,13.759 6.669,15.258 Q6.832,15.523 6.759,15.825 Q6.687,16.127 6.422,16.289 Q6.157,16.452 5.855,16.379 Q5.553,16.307 5.391,16.042 Q4.25,14.182 4.25,12 Q4.25,8.787 6.518,6.518 Q8.787,4.25 12,4.25 Q14.141,4.25 15.986,5.357 Q16.252,5.517 16.328,5.818 Q16.403,6.119 16.243,6.386 Q16.083,6.652 15.782,6.728 Q15.481,6.803 15.214,6.643 Z"/>
  <path d="M18.61,7.958 Q19.751,9.818 19.751,12 Q19.751,14.03 18.764,15.779 Q18.611,16.049 18.312,16.133 Q18.013,16.216 17.742,16.063 Q17.472,15.911 17.388,15.611 Q17.305,15.312 17.458,15.041 Q18.251,13.636 18.251,12 Q18.251,10.241 17.331,8.742 Q17.169,8.477 17.241,8.175 Q17.314,7.873 17.579,7.711 Q17.843,7.548 18.146,7.621 Q18.448,7.693 18.61,7.958 Z"/>
  <path d="M8.729,17.329 Q10.245,18.25 12,18.25 Q13.391,18.25 14.633,17.67 Q14.914,17.539 15.206,17.645 Q15.498,17.751 15.63,18.033 Q15.761,18.314 15.655,18.606 Q15.549,18.898 15.267,19.03 Q13.723,19.75 12,19.75 Q9.825,19.75 7.95,18.611 Q7.685,18.45 7.611,18.148 Q7.538,17.846 7.699,17.581 Q7.86,17.315 8.162,17.241 Q8.464,17.168 8.729,17.329 Z"/>
</svg>

