<svg xmlns="http://www.w3.org/2000/svg" width="24" height="24" viewBox="0 0 24 24">
  <defs/>
  <path fill="#17191C" d="M20.2,2.3 L20.3,2.3 Q20.921,2.3 21.361,2.739 Q21.8,3.179 21.8,3.8 Q21.8,4.421 21.361,4.861 Q20.921,5.3 20.3,5.3 L20.2,5.3 Q19.579,5.3 19.139,4.861 Q18.7,4.421 18.7,3.8 Q18.7,3.179 19.139,2.739 Q19.579,2.3 20.2,2.3 Z"/>
  <path fill="#17191C" d="M3.7,18.7 L3.8,18.7 Q4.421,18.7 4.861,19.139 Q5.3,19.579 5.3,20.2 Q5.3,20.821 4.861,21.261 Q4.421,21.7 3.8,21.7 L3.7,21.7 Q3.079,21.7 2.639,21.261 Q2.2,20.821 2.2,20.2 Q2.2,19.579 2.639,19.139 Q3.079,18.7 3.7,18.7 Z"/>
  <path fill="#17191C" d="M15.241,6.658 Q13.575,5.75 12,5.75 Q9.386,5.75 7.568,7.568 Q5.75,9.386 5.75,12 Q5.75,13.675 6.658,15.341 Q6.807,15.614 6.72,15.912 Q6.632,16.21 6.359,16.358 Q6.086,16.507 5.788,16.42 Q5.49,16.332 5.342,16.059 Q4.25,14.058 4.25,12 Q4.25,8.764 6.507,6.507 Q8.764,4.25 12,4.25 Q13.958,4.25 15.959,5.342 Q16.232,5.49 16.32,5.788 Q16.407,6.086 16.258,6.359 Q16.11,6.632 15.812,6.72 Q15.514,6.807 15.241,6.658 Z"/>
  <path fill="#17191C" d="M8.703,17.367 Q10.09,18.25 12,18.25 Q14.614,18.25 16.432,16.432 Q18.25,14.614 18.25,12 Q18.25,10.325 17.342,8.659 Q17.193,8.386 17.28,8.088 Q17.368,7.79 17.641,7.642 Q17.914,7.493 18.212,7.581 Q18.51,7.668 18.658,7.941 Q19.75,9.942 19.75,12 Q19.75,15.236 17.493,17.493 Q15.236,19.75 12,19.75 Q9.653,19.75 7.897,18.633 Q7.635,18.466 7.568,18.163 Q7.501,17.859 7.667,17.597 Q7.834,17.335 8.137,17.268 Q8.441,17.2 8.703,17.367 Z"/>
</svg>

