<svg xmlns="http://www.w3.org/2000/svg" width="24" height="24" viewBox="0 0 24 24">
  <defs/>
  <path d="M15.214,6.643 Q13.726,5.75 12,5.75 Q9.408,5.75 7.579,7.579 Q5.75,9.408 5.75,12 Q5.75,13.759 6.669,15.258 Q6.832,15.523 6.759,15.825 Q6.687,16.127 6.422,16.289 Q6.157,16.452 5.855,16.379 Q5.553,16.307 5.391,16.042 Q4.25,14.182 4.25,12 Q4.25,8.787 6.518,6.518 Q8.787,4.25 12,4.25 Q14.141,4.25 15.986,5.357 Q16.252,5.517 16.328,5.818 Q16.403,6.119 16.243,6.386 Q16.083,6.652 15.782,6.728 Q15.481,6.803 15.214,6.643 Z"/>
  <path d="M8.729,17.329 Q10.245,18.25 12,18.25 Q14.592,18.25 16.421,16.421 Q18.25,14.592 18.25,12 Q18.25,10.241 17.33,8.742 Q17.168,8.477 17.24,8.175 Q17.313,7.873 17.578,7.711 Q17.843,7.548 18.145,7.621 Q18.447,7.693 18.609,7.958 Q19.75,9.818 19.75,12 Q19.75,15.213 17.481,17.482 Q15.213,19.75 12,19.75 Q9.825,19.75 7.95,18.611 Q7.685,18.45 7.611,18.148 Q7.538,17.846 7.699,17.581 Q7.86,17.315 8.162,17.242 Q8.464,17.168 8.729,17.329 Z"/>
  <path opacity="0.4" d="M20.2,2.3 L20.3,2.3 Q20.922,2.3 21.361,2.739 Q21.8,3.178 21.8,3.8 Q21.8,4.421 21.361,4.86 Q20.922,5.3 20.3,5.3 L20.2,5.3 Q19.579,5.3 19.14,4.86 Q18.7,4.421 18.7,3.8 Q18.7,3.178 19.14,2.739 Q19.579,2.3 20.2,2.3 Z"/>
  <path opacity="0.4" d="M3.7,18.7 L3.8,18.7 Q4.422,18.7 4.861,19.14 Q5.3,19.579 5.3,20.2 Q5.3,20.822 4.861,21.261 Q4.422,21.7 3.8,21.7 L3.7,21.7 Q3.079,21.7 2.64,21.261 Q2.2,20.822 2.2,20.2 Q2.2,19.579 2.64,19.14 Q3.079,18.7 3.7,18.7 Z"/>
</svg>

