<svg xmlns="http://www.w3.org/2000/svg" width="24" height="24" viewBox="0 0 24 24">
  <defs/>
  <path d="M12,12.25 C10.48,12.25 9.25,11.02 9.25,9.5 C9.25,7.98 10.48,6.75 12,6.75 C13.52,6.75 14.75,7.98 14.75,9.5 C14.75,11.02 13.52,12.25 12,12.25 Z M12,8.25 C11.31,8.25 10.75,8.81 10.75,9.5 C10.75,10.19 11.31,10.75 12,10.75 C12.69,10.75 13.25,10.19 13.25,9.5 C13.25,8.81 12.69,8.25 12,8.25 Z"/>
  <path d="M11.991,14.72 C11.191,14.72 10.39,14.54 9.66,14.17 C9.29,13.98 9.141,13.53 9.331,13.16 C9.511,12.79 9.961,12.64 10.341,12.83 C11.38,13.35 12.62,13.35 13.661,12.83 C14.021,12.65 14.48,12.79 14.661,13.15 C14.851,13.51 14.72,13.96 14.361,14.15 C13.611,14.53 12.8,14.72 11.991,14.72 Z"/>
  <path d="M14,17.25 C13.78,17.25 13.559,17.15 13.409,16.97 L12,15.19 L10.59,16.97 C10.34,17.29 9.86,17.35 9.54,17.09 C9.22,16.83 9.16,16.36 9.42,16.04 L11.419,13.51 C11.7,13.15 12.309,13.15 12.6,13.51 L14.6,16.04 C14.86,16.37 14.8,16.84 14.479,17.09 C14.329,17.2 14.16,17.25 14,17.25 Z"/>
  <path d="M12,22.75 C6.07,22.75 1.25,17.93 1.25,12 C1.25,6.07 6.07,1.25 12,1.25 C17.93,1.25 22.75,6.07 22.75,12 C22.75,17.93 17.93,22.75 12,22.75 Z M12,2.75 C6.9,2.75 2.75,6.9 2.75,12 C2.75,17.1 6.9,21.25 12,21.25 C17.1,21.25 21.25,17.1 21.25,12 C21.25,6.9 17.1,2.75 12,2.75 Z"/>
</svg>

