<svg xmlns="http://www.w3.org/2000/svg" width="24" height="24" viewBox="0 0 24 24">
  <defs/>
  <path fill="#292D32" opacity="0.4" d="M15.75,2 L15.75,12 Q15.75,14.75 13,14.75 L2,14.75 Q1.689,14.75 1.47,14.53 Q1.25,14.311 1.25,14 L1.25,7.62 Q1.25,7.309 1.47,7.09 Q1.689,6.87 2,6.87 Q2.35,6.87 2.575,7.138 Q3.539,8.287 5.072,8.25 Q6.306,8.226 7.172,7.398 Q7.189,7.381 7.208,7.365 Q7.555,7.074 7.804,6.626 Q7.809,6.617 7.814,6.609 Q8.274,5.829 8.25,4.93 Q8.214,3.5 7.146,2.564 Q6.912,2.359 6.892,2.049 Q6.871,1.739 7.076,1.506 Q7.3,1.25 7.64,1.25 L15,1.25 Q15.311,1.25 15.53,1.47 Q15.75,1.689 15.75,2 Z M14.25,2.75 L9.201,2.75 Q9.719,3.704 9.75,4.89 Q9.785,6.215 9.111,7.363 Q8.735,8.036 8.191,8.499 Q6.907,9.714 5.108,9.75 Q3.787,9.782 2.75,9.211 L2.75,13.25 L13,13.25 Q13.514,13.25 13.882,12.882 Q14.25,12.514 14.25,12 L14.25,2.75 Z"/>
  <path fill="#292D32" d="M22.75,14 L22.75,17 Q22.75,20.75 19,20.75 L18,20.75 Q17.689,20.75 17.47,20.53 Q17.25,20.311 17.25,20 Q17.25,18.75 16,18.75 Q14.75,18.75 14.75,20 Q14.75,20.311 14.53,20.53 Q14.311,20.75 14,20.75 L10,20.75 Q9.689,20.75 9.47,20.53 Q9.25,20.311 9.25,20 Q9.25,18.75 8,18.75 Q7.486,18.75 7.118,19.118 Q6.75,19.486 6.75,20 Q6.75,20.311 6.53,20.53 Q6.311,20.75 6,20.75 L5,20.75 Q1.25,20.75 1.25,17 L1.25,14 Q1.25,13.689 1.47,13.47 Q1.689,13.25 2,13.25 L13,13.25 Q14.25,13.25 14.25,12 L14.25,5 Q14.25,4.689 14.47,4.47 Q14.689,4.25 15,4.25 L16.84,4.25 Q18.425,4.25 19.229,5.633 L20.941,8.628 Q21.095,8.897 21.014,9.197 Q20.932,9.497 20.662,9.651 Q20.489,9.75 20.29,9.75 L19,9.75 Q18.75,9.75 18.75,10 L18.75,13 Q18.75,13.25 19,13.25 L22,13.25 Q22.311,13.25 22.53,13.47 Q22.75,13.689 22.75,14 Z M21.25,14.75 L19,14.75 Q17.25,14.75 17.25,13 L17.25,10 Q17.25,8.251 18.997,8.25 L17.931,6.387 Q17.562,5.75 16.84,5.75 L15.75,5.75 L15.75,12 Q15.75,14.75 13,14.75 L2.75,14.75 L2.75,17 Q2.75,17.934 3.408,18.592 Q4.066,19.25 5,19.25 L5.348,19.25 Q5.531,18.584 6.057,18.057 Q6.864,17.25 8,17.25 Q10.345,17.25 10.69,19.25 L13.31,19.25 Q13.655,17.25 16,17.25 Q18.345,17.25 18.69,19.25 L19,19.25 Q21.25,19.25 21.25,17 L21.25,14.75 Z"/>
  <path fill="#292D32" d="M8,22.75 Q6.625,22.75 5.938,22.062 Q5.25,21.375 5.25,20 Q5.25,18.861 6.055,18.055 Q6.861,17.25 8,17.25 Q10.75,17.25 10.75,20 Q10.75,21.139 9.945,21.945 Q9.139,22.75 8,22.75 Z M8,21.25 Q9.25,21.25 9.25,20 Q9.25,18.75 8,18.75 Q7.482,18.75 7.116,19.116 Q6.75,19.482 6.75,20 Q6.75,21.25 8,21.25 Z"/>
  <path fill="#292D32" d="M16,22.75 Q13.25,22.75 13.25,20 Q13.25,17.25 16,17.25 Q18.75,17.25 18.75,20 Q18.75,21.139 17.945,21.945 Q17.139,22.75 16,22.75 Z M16,21.25 Q17.25,21.25 17.25,20 Q17.25,18.75 16,18.75 Q14.75,18.75 14.75,20 Q14.75,20.518 15.116,20.884 Q15.482,21.25 16,21.25 Z"/>
  <path fill="#292D32" d="M22.75,12 L22.75,14 Q22.75,14.311 22.53,14.53 Q22.311,14.75 22,14.75 L19,14.75 Q17.25,14.75 17.25,13 L17.25,10 Q17.25,8.25 19,8.25 L20.29,8.25 Q20.726,8.25 20.942,8.629 L22.652,11.629 Q22.75,11.801 22.75,12 Z M21.25,12.199 L19.854,9.75 L19,9.75 Q18.75,9.75 18.75,10 L18.75,13 Q18.75,13.25 19,13.25 L21.25,13.25 L21.25,12.199 Z"/>
  <path fill="#292D32" d="M9.75,5 Q9.75,6.327 9.063,7.446 Q8.685,8.091 8.122,8.566 Q6.8,9.75 5,9.75 Q2.307,9.75 0.935,7.443 Q0.25,6.332 0.25,5 Q0.25,2.708 2.034,1.292 Q3.342,0.25 5,0.25 Q6.968,0.25 8.359,1.641 Q9.75,3.032 9.75,5 Z M8.25,5 Q8.25,1.75 5,1.75 Q3.866,1.75 2.966,2.468 Q1.75,3.433 1.75,5 Q1.75,5.907 2.225,6.677 Q3.161,8.25 5,8.25 Q6.231,8.25 7.128,7.443 Q7.138,7.434 7.148,7.425 Q7.521,7.112 7.772,6.682 Q7.777,6.674 7.782,6.666 Q8.25,5.907 8.25,5 Z"/>
  <g opacity="0.4">
    <path fill="#292D32" d="M5.539,6.57 L3.429,4.461 Q3.209,4.241 3.209,3.93 Q3.209,3.62 3.429,3.4 Q3.648,3.18 3.959,3.18 Q4.27,3.18 4.489,3.4 L6.599,5.51 Q6.819,5.729 6.819,6.04 Q6.819,6.351 6.599,6.57 Q6.38,6.79 6.069,6.79 Q5.758,6.79 5.539,6.57 Z"/>
    <path fill="#292D32" d="M6.57,4.49 L4.46,6.6 Q4.24,6.82 3.93,6.82 Q3.619,6.82 3.399,6.6 Q3.18,6.381 3.18,6.07 Q3.18,5.759 3.399,5.54 L5.509,3.43 Q5.729,3.21 6.04,3.21 Q6.35,3.21 6.57,3.43 Q6.79,3.649 6.79,3.96 Q6.79,4.271 6.57,4.49 Z"/>
  </g>
</svg>

