<svg xmlns="http://www.w3.org/2000/svg" width="24" height="24" viewBox="0 0 24 24">
  <defs/>
  <path fill="#292D32" d="M12.001,22.75 C7.121,22.75 3.151,18.78 3.151,13.9 C3.121,8.17 8.581,3.4 10.931,1.61 C11.56,1.13 12.441,1.13 13.07,1.61 C15.421,3.43 20.881,8.26 20.851,13.91 C20.851,18.78 16.881,22.75 12.001,22.75 Z M12.001,2.75 C11.95,2.75 11.89,2.77 11.841,2.81 C10.15,4.1 4.631,8.71 4.661,13.9 C4.661,17.96 7.961,21.25 12.011,21.25 C16.061,21.25 19.36,17.96 19.36,13.91 C19.39,8.79 13.861,4.12 12.161,2.81 C12.101,2.77 12.05,2.75 12.001,2.75 Z"/>
</svg>

