<svg xmlns="http://www.w3.org/2000/svg" width="24" height="24" viewBox="0 0 24 24">
  <defs/>
  <path d="M16.19,2 L7.82,2 C4.18,2 2.01,4.17 2.01,7.81 L2.01,16.18 C2.01,19.82 4.18,21.99 7.82,21.99 L16.19,21.99 C19.83,21.99 22,19.82 22,16.18 L22,7.81 C22,4.17 19.83,2 16.19,2 Z M11,7.5 C11,7.78 10.78,8 10.5,8 L9,8 C8.45,8 8,8.45 8,9 L8,10.5 C8,10.78 7.78,11 7.5,11 L5.5,11 C5.22,11 5,10.78 5,10.5 L5,9 C5,6.79 6.79,5 9,5 L10.5,5 C10.78,5 11,5.22 11,5.5 L11,7.5 Z M19,15 C19,17.21 17.21,19 15,19 L13.5,19 C13.22,19 13,18.78 13,18.5 L13,16.5 C13,16.22 13.22,16 13.5,16 L15,16 C15.55,16 16,15.55 16,15 L16,13.5 C16,13.22 16.22,13 16.5,13 L18.5,13 C18.78,13 19,13.22 19,13.5 L19,15 Z"/>
</svg>

