<svg xmlns="http://www.w3.org/2000/svg" width="24" height="24" viewBox="0 0 24 24">
  <defs/>
  <path d="M20.26,5.25 C19.43,5.25 18.76,4.58 18.76,3.75 C18.76,2.92 19.43,2.25 20.26,2.25 L20.27,2.25 C21.1,2.25 21.77,2.92 21.77,3.75 C21.77,4.58 21.09,5.25 20.26,5.25 Z"/>
  <path d="M3.76,21.75 C2.93,21.75 2.26,21.08 2.26,20.25 C2.26,19.42 2.93,18.75 3.76,18.75 L3.77,18.75 C4.6,18.75 5.27,19.42 5.27,20.25 C5.27,21.08 4.59,21.75 3.76,21.75 Z"/>
  <path d="M6.03,16.4 C5.78,16.4 5.53,16.27 5.39,16.04 C4.65,14.83 4.25,13.43 4.25,12 C4.25,7.73 7.73,4.25 12,4.25 C13.41,4.25 14.79,4.63 15.99,5.35 C16.34,5.56 16.46,6.02 16.25,6.38 C16.04,6.73 15.58,6.85 15.22,6.64 C14.25,6.06 13.14,5.75 12.01,5.75 C8.56,5.75 5.76,8.55 5.76,12 C5.76,13.15 6.08,14.28 6.68,15.26 C6.9,15.61 6.79,16.07 6.43,16.29 C6.3,16.37 6.16,16.4 6.03,16.4 Z"/>
  <path d="M12,19.75 C10.56,19.75 9.16,19.35 7.95,18.61 C7.6,18.39 7.49,17.93 7.7,17.58 C7.92,17.23 8.38,17.12 8.73,17.33 C9.71,17.93 10.84,18.25 12,18.25 C15.45,18.25 18.25,15.45 18.25,12 C18.25,10.85 17.93,9.72 17.33,8.74 C17.11,8.39 17.22,7.93 17.58,7.71 C17.93,7.5 18.39,7.6 18.61,7.96 C19.35,9.18 19.75,10.57 19.75,12.01 C19.75,16.27 16.27,19.75 12,19.75 Z"/>
</svg>

