<svg xmlns="http://www.w3.org/2000/svg" width="24" height="24" viewBox="0 0 24 24">
  <defs/>
  <path d="M12,2 C6.48,2 2,6.48 2,12 C2,17.52 6.48,22 12,22 C17.52,22 22,17.52 22,12 C22,6.48 17.52,2 12,2 Z M12,7.12 C13.31,7.12 14.38,8.19 14.38,9.5 C14.38,10.81 13.31,11.88 12,11.88 C10.69,11.88 9.62,10.81 9.62,9.5 C9.62,8.19 10.69,7.12 12,7.12 Z M14.47,17.09 C14.33,17.2 14.17,17.25 14.01,17.25 C13.79,17.25 13.57,17.15 13.42,16.97 L12.01,15.19 L10.6,16.97 C10.35,17.29 9.87,17.35 9.55,17.09 C9.23,16.83 9.17,16.36 9.43,16.04 L10.62,14.53 C10.3,14.44 9.98,14.33 9.68,14.18 C9.31,13.99 9.16,13.54 9.35,13.17 C9.53,12.8 9.98,12.65 10.36,12.84 C11.4,13.36 12.64,13.36 13.68,12.84 C14.04,12.66 14.5,12.8 14.68,13.16 C14.87,13.52 14.74,13.97 14.38,14.16 C14.07,14.32 13.74,14.43 13.41,14.52 L14.61,16.03 C14.84,16.36 14.79,16.83 14.47,17.09 Z"/>
</svg>

