<svg xmlns="http://www.w3.org/2000/svg" width="24" height="24" viewBox="0 0 24 24">
  <defs/>
  <path fill="white" opacity="0.58" d="M24,0 L0,0 L0,24 L24,24 L24,0 Z"/>
  <path fill="#292D32" opacity="0.4" d="M16.19,2 L7.81,2 C4.17,2 2,4.17 2,7.81 L2,16.18 C2,19.82 4.17,21.99 7.81,21.99 L16.18,21.99 C19.82,21.99 21.99,19.82 21.99,16.18 L21.99,7.81 C22,4.17 19.83,2 16.19,2 Z"/>
  <path fill="#292D32" d="M10.89,7.8 C10.79,7.51 10.521,7.3 10.21,7.29 C9.89,7.27 9.61,7.45 9.49,7.73 L5.96,15.66 C5.79,16.04 5.96,16.48 6.34,16.65 C6.72,16.82 7.16,16.65 7.33,16.27 L8.31,14.07 L11.39,14.07 L12.101,16.2 C12.2,16.51 12.501,16.71 12.81,16.71 C12.89,16.71 12.97,16.7 13.05,16.67 C13.441,16.54 13.65,16.11 13.521,15.72 L10.89,7.8 Z M8.98,12.57 L10.081,10.1 L10.9,12.57 L8.98,12.57 Z"/>
  <path fill="#292D32" d="M16.35,9.93 C15.94,9.93 15.6,10.27 15.6,10.68 L15.6,15.97 C15.6,16.38 15.94,16.72 16.35,16.72 C16.76,16.72 17.1,16.38 17.1,15.97 L17.1,10.68 C17.1,10.26 16.76,9.93 16.35,9.93 Z"/>
  <path fill="#292D32" d="M17.27,7.65 C17.22,7.53 17.15,7.42 17.05,7.33 C16.78,7.05 16.33,6.96 15.96,7.11 C15.84,7.16 15.73,7.23 15.64,7.33 C15.55,7.42 15.48,7.53 15.42,7.65 C15.37,7.77 15.35,7.9 15.35,8.03 C15.35,8.17 15.37,8.29 15.42,8.42 C15.47,8.54 15.55,8.65 15.64,8.74 C15.83,8.93 16.08,9.03 16.35,9.03 C16.48,9.03 16.61,9.01 16.73,8.96 C16.85,8.91 16.96,8.83 17.05,8.74 C17.15,8.65 17.22,8.54 17.27,8.42 C17.32,8.3 17.35,8.17 17.35,8.03 C17.35,7.9 17.32,7.77 17.27,7.65 Z"/>
</svg>

