<svg xmlns="http://www.w3.org/2000/svg" width="24" height="24" viewBox="0 0 24 24">
  <defs/>
  <path d="M16.19,2 L7.81,2 C4.17,2 2,4.17 2,7.81 L2,16.18 C2,19.82 4.17,21.99 7.81,21.99 L16.18,21.99 C19.82,21.99 21.99,19.82 21.99,16.18 L21.99,7.81 C22,4.17 19.83,2 16.19,2 Z M13.06,16.68 C12.98,16.71 12.9,16.72 12.82,16.72 C12.51,16.72 12.21,16.52 12.11,16.21 L11.4,14.08 L8.32,14.08 L7.34,16.28 C7.17,16.66 6.73,16.83 6.35,16.66 C5.97,16.49 5.8,16.05 5.97,15.67 L9.5,7.74 C9.63,7.46 9.9,7.27 10.22,7.3 C10.53,7.31 10.8,7.52 10.9,7.81 L13.54,15.74 C13.66,16.12 13.45,16.55 13.06,16.68 Z M17.1,15.97 C17.1,16.38 16.76,16.72 16.35,16.72 C15.94,16.72 15.6,16.38 15.6,15.97 L15.6,10.68 C15.6,10.27 15.94,9.93 16.35,9.93 C16.76,9.93 17.1,10.27 17.1,10.68 L17.1,15.97 Z M17.27,8.42 C17.22,8.54 17.15,8.65 17.05,8.74 C16.96,8.83 16.85,8.91 16.73,8.96 C16.61,9.01 16.48,9.03 16.35,9.03 C16.08,9.03 15.83,8.93 15.64,8.74 C15.55,8.65 15.47,8.54 15.42,8.42 C15.37,8.29 15.35,8.17 15.35,8.03 C15.35,7.9 15.37,7.77 15.42,7.65 C15.48,7.53 15.55,7.42 15.64,7.33 C15.73,7.23 15.84,7.16 15.96,7.11 C16.33,6.96 16.78,7.05 17.05,7.33 C17.15,7.42 17.22,7.53 17.27,7.65 C17.32,7.77 17.35,7.9 17.35,8.03 C17.35,8.17 17.32,8.3 17.27,8.42 Z"/>
  <path d="M8.98,12.569 L10.9,12.569 L10.081,10.109 L8.98,12.569 Z"/>
</svg>

