<svg xmlns="http://www.w3.org/2000/svg" width="24" height="24" viewBox="0 0 24 24">
  <defs/>
  <path d="M12.82,16.72 C12.51,16.72 12.21,16.52 12.11,16.21 L10.08,10.11 L7.34,16.28 C7.17,16.66 6.73,16.83 6.35,16.66 C5.97,16.49 5.8,16.05 5.97,15.67 L9.5,7.74 C9.63,7.46 9.9,7.27 10.22,7.3 C10.53,7.31 10.8,7.52 10.9,7.81 L13.54,15.74 C13.67,16.13 13.46,16.56 13.07,16.69 C12.98,16.7 12.9,16.72 12.82,16.72 Z"/>
  <path d="M11.94,12.57 L7.53,12.57 L7.53,14.07 L11.94,14.07 L11.94,12.57 Z"/>
  <path d="M16.35,16.72 C15.94,16.72 15.6,16.38 15.6,15.97 L15.6,10.68 C15.6,10.27 15.94,9.93 16.35,9.93 C16.76,9.93 17.1,10.27 17.1,10.68 L17.1,15.97 C17.1,16.38 16.76,16.72 16.35,16.72 Z"/>
  <path d="M16.35,9.03 C16.08,9.03 15.83,8.93 15.64,8.74 C15.55,8.65 15.47,8.54 15.42,8.42 C15.37,8.29 15.35,8.17 15.35,8.03 C15.35,7.9 15.37,7.77 15.42,7.65 C15.48,7.53 15.55,7.42 15.64,7.33 C15.73,7.23 15.84,7.16 15.96,7.11 C16.33,6.96 16.78,7.05 17.05,7.33 C17.15,7.42 17.22,7.53 17.27,7.65 C17.32,7.77 17.35,7.9 17.35,8.03 C17.35,8.17 17.32,8.3 17.27,8.42 C17.22,8.54 17.15,8.65 17.05,8.74 C16.96,8.83 16.85,8.91 16.73,8.96 C16.61,9.01 16.48,9.03 16.35,9.03 Z"/>
  <path d="M15,22.75 L9,22.75 C3.57,22.75 1.25,20.43 1.25,15 L1.25,9 C1.25,3.57 3.57,1.25 9,1.25 L15,1.25 C20.43,1.25 22.75,3.57 22.75,9 L22.75,15 C22.75,20.43 20.43,22.75 15,22.75 Z M9,2.75 C4.39,2.75 2.75,4.39 2.75,9 L2.75,15 C2.75,19.61 4.39,21.25 9,21.25 L15,21.25 C19.61,21.25 21.25,19.61 21.25,15 L21.25,9 C21.25,4.39 19.61,2.75 15,2.75 L9,2.75 Z"/>
</svg>

