<svg xmlns="http://www.w3.org/2000/svg" width="24" height="24" viewBox="0 0 24 24">
  <defs/>
  <path fill="#292D32" opacity="0.4" d="M22.021,16.82 L18.891,9.5 C18.321,8.16 17.471,7.4 16.501,7.35 C15.541,7.3 14.611,7.97 13.901,9.25 L12.001,12.66 C11.601,13.38 11.031,13.81 10.411,13.86 C9.781,13.92 9.151,13.59 8.641,12.94 L8.421,12.66 C7.711,11.77 6.831,11.34 5.931,11.43 C5.031,11.52 4.261,12.14 3.751,13.15 L2.021,16.6 C1.401,17.85 1.461,19.3 2.191,20.48 C2.921,21.66 4.191,22.37 5.581,22.37 L18.341,22.37 C19.681,22.37 20.931,21.7 21.671,20.58 C22.431,19.46 22.551,18.05 22.021,16.82 Z"/>
  <path fill="#292D32" d="M6.97,8.38 C8.837,8.38 10.35,6.867 10.35,5 C10.35,3.133 8.837,1.62 6.97,1.62 C5.103,1.62 3.59,3.133 3.59,5 C3.59,6.867 5.103,8.38 6.97,8.38 Z"/>
</svg>

