<svg xmlns="http://www.w3.org/2000/svg" width="24" height="24" viewBox="0 0 24 24">
  <defs/>
  <path fill="#292D32" d="M22.371,16.666 Q23.294,18.829 21.999,20.79 Q20.704,22.75 18.351,22.75 L5.591,22.75 Q3.161,22.75 1.884,20.679 Q0.605,18.606 1.7,16.435 L3.421,12.983 Q4.302,11.229 5.896,11.058 Q7.494,10.886 8.721,12.427 L8.937,12.702 Q9.617,13.552 10.389,13.488 Q11.159,13.424 11.685,12.477 L13.575,9.066 Q14.785,6.887 16.523,6.976 Q18.262,7.065 19.24,9.355 L22.37,16.665 Z M20.991,17.255 L17.861,9.945 Q17.25,8.515 16.446,8.474 Q15.642,8.433 14.887,9.794 L12.997,13.204 Q12.082,14.852 10.513,14.983 Q8.945,15.113 7.765,13.639 L7.541,13.353 Q6.834,12.466 6.056,12.55 Q5.276,12.633 4.761,13.657 L3.042,17.105 Q2.322,18.532 3.161,19.891 Q3.998,21.25 5.591,21.25 L18.351,21.25 Q19.897,21.25 20.748,19.963 Q21.598,18.676 20.991,17.255 Z"/>
  <path fill="#292D32" opacity="0.4" d="M6.971,8.75 Q5.096,8.75 4.158,7.812 Q3.221,6.875 3.221,5 Q3.221,3.447 4.319,2.348 Q5.417,1.25 6.971,1.25 Q10.721,1.25 10.721,5 Q10.721,6.553 9.622,7.652 Q8.524,8.75 6.971,8.75 Z M6.971,7.25 Q7.903,7.25 8.562,6.591 Q9.221,5.932 9.221,5 Q9.221,4.068 8.562,3.409 Q7.903,2.75 6.971,2.75 Q4.721,2.75 4.721,5 Q4.721,6.125 5.283,6.688 Q5.846,7.25 6.971,7.25 Z"/>
</svg>

