<svg xmlns="http://www.w3.org/2000/svg" width="24" height="24" viewBox="0 0 24 24">
  <defs/>
  <path fill="#292D32" d="M22.37,16.666 Q23.293,18.829 21.998,20.79 Q20.703,22.75 18.35,22.75 L5.59,22.75 Q3.16,22.75 1.883,20.679 Q0.605,18.606 1.699,16.435 L3.42,12.983 Q4.301,11.229 5.895,11.058 Q7.493,10.886 8.72,12.427 L8.936,12.701 Q9.616,13.552 10.388,13.487 Q11.158,13.423 11.684,12.476 L13.574,9.066 Q14.784,6.887 16.522,6.976 Q18.261,7.065 19.239,9.355 L22.369,16.665 Z M20.99,17.255 L17.86,9.945 Q17.249,8.515 16.445,8.474 Q15.641,8.433 14.886,9.794 L12.996,13.203 Q12.081,14.852 10.512,14.982 Q8.944,15.113 7.764,13.638 L7.54,13.353 Q6.833,12.466 6.055,12.549 Q5.275,12.633 4.76,13.657 L3.041,17.105 Q2.321,18.532 3.16,19.891 Q3.997,21.25 5.59,21.25 L18.35,21.25 Q19.896,21.25 20.747,19.963 Q21.597,18.676 20.99,17.255 Z"/>
  <path fill="#292D32" d="M6.97,8.75 Q5.417,8.75 4.318,7.652 Q3.22,6.553 3.22,5 Q3.22,1.25 6.97,1.25 Q8.523,1.25 9.622,2.348 Q10.72,3.447 10.72,5 Q10.72,8.75 6.97,8.75 Z M6.97,7.25 Q9.22,7.25 9.22,5 Q9.22,4.068 8.561,3.409 Q7.902,2.75 6.97,2.75 Q4.72,2.75 4.72,5 Q4.72,7.25 6.97,7.25 Z"/>
</svg>

