<svg xmlns="http://www.w3.org/2000/svg" width="24" height="24" viewBox="0 0 24 24">
  <defs/>
  <path fill="#292D32" d="M12.986,13.204 Q12.071,14.852 10.502,14.982 Q8.933,15.113 7.754,13.638 L7.53,13.353 Q6.823,12.466 6.045,12.549 Q5.264,12.633 4.75,13.657 L3.031,17.105 Q2.318,18.531 3.158,19.891 Q3.998,21.25 5.59,21.25 L18.35,21.25 Q19.889,21.25 20.737,19.963 Q21.587,18.675 20.98,17.254 L17.85,9.945 Q17.239,8.515 16.435,8.474 Q15.631,8.433 14.876,9.794 Q14.725,10.065 14.426,10.151 Q14.127,10.236 13.856,10.086 Q13.584,9.935 13.499,9.636 Q13.413,9.338 13.564,9.066 Q14.773,6.887 16.512,6.976 Q18.25,7.065 19.229,9.355 L22.36,16.666 Q23.283,18.828 21.99,20.789 Q20.697,22.75 18.35,22.75 L5.59,22.75 Q3.161,22.75 1.882,20.679 Q0.602,18.608 1.689,16.435 L3.41,12.983 Q4.291,11.229 5.885,11.058 Q7.483,10.886 8.71,12.427 L8.925,12.701 Q9.606,13.552 10.378,13.487 Q11.148,13.423 11.674,12.476 Q11.825,12.204 12.123,12.119 Q12.422,12.033 12.694,12.184 Q12.965,12.335 13.051,12.634 Q13.136,12.932 12.986,13.204 Z"/>
  <path fill="#292D32" d="M10.721,5 Q10.721,8.75 6.971,8.75 Q5.415,8.75 4.318,7.653 Q3.221,6.556 3.221,5 Q3.221,1.25 6.971,1.25 Q7.656,1.25 8.251,1.481 Q8.541,1.593 8.667,1.877 Q8.792,2.161 8.68,2.451 Q8.568,2.74 8.284,2.866 Q8,2.992 7.71,2.879 Q7.376,2.75 6.971,2.75 Q6.036,2.75 5.379,3.408 Q4.721,4.066 4.721,5 Q4.721,7.25 6.971,7.25 Q7.905,7.25 8.563,6.592 Q9.221,5.934 9.221,5 Q9.221,4.689 9.44,4.47 Q9.66,4.25 9.971,4.25 Q10.281,4.25 10.501,4.47 Q10.721,4.689 10.721,5 Z"/>
</svg>

