<svg xmlns="http://www.w3.org/2000/svg" width="24" height="24" viewBox="0 0 24 24">
  <defs/>
  <path fill="#292D32" d="M22.019,16.82 L18.889,9.5 C18.319,8.16 17.469,7.4 16.499,7.35 C15.539,7.3 14.609,7.97 13.899,9.25 L11.999,12.66 C11.599,13.38 11.029,13.81 10.409,13.86 C9.779,13.92 9.149,13.59 8.639,12.94 L8.419,12.66 C7.709,11.77 6.829,11.34 5.929,11.43 C5.029,11.52 4.259,12.14 3.749,13.15 L2.019,16.6 C1.399,17.85 1.459,19.3 2.189,20.48 C2.919,21.66 4.189,22.37 5.579,22.37 L18.339,22.37 C19.679,22.37 20.929,21.7 21.669,20.58 C22.429,19.46 22.549,18.05 22.019,16.82 Z"/>
  <path fill="#292D32" d="M6.97,8.381 C8.837,8.381 10.35,6.868 10.35,5.001 C10.35,3.134 8.837,1.621 6.97,1.621 C5.103,1.621 3.59,3.134 3.59,5.001 C3.59,6.868 5.103,8.381 6.97,8.381 Z"/>
</svg>

