<svg xmlns="http://www.w3.org/2000/svg" width="24" height="24" viewBox="0 0 24 24">
  <defs/>
  <path fill="#292D32" d="M18.361,22.75 L5.591,22.75 C4.071,22.75 2.681,21.98 1.881,20.68 C1.081,19.38 1.011,17.8 1.691,16.43 L3.411,12.98 C3.971,11.86 4.871,11.16 5.881,11.05 C6.891,10.94 7.921,11.44 8.701,12.41 L8.921,12.69 C9.361,13.23 9.871,13.52 10.371,13.47 C10.871,13.43 11.331,13.07 11.671,12.46 L13.561,9.05 C14.341,7.64 15.381,6.91 16.511,6.96 C17.631,7.02 18.591,7.86 19.231,9.34 L22.361,16.65 C22.941,18 22.801,19.54 21.991,20.77 C21.191,22.02 19.831,22.75 18.361,22.75 Z M6.161,12.55 C6.121,12.55 6.081,12.55 6.041,12.56 C5.541,12.61 5.081,13.01 4.751,13.66 L3.031,17.11 C2.581,18 2.631,19.05 3.151,19.9 C3.671,20.75 4.591,21.26 5.591,21.26 L18.351,21.26 C19.331,21.26 20.201,20.79 20.741,19.97 C21.281,19.15 21.371,18.17 20.981,17.27 L17.851,9.96 C17.471,9.06 16.941,8.51 16.431,8.49 C15.961,8.46 15.351,8.96 14.871,9.81 L12.981,13.22 C12.401,14.26 11.491,14.91 10.501,15 C9.511,15.08 8.501,14.6 7.751,13.66 L7.531,13.38 C7.111,12.83 6.631,12.55 6.161,12.55 Z"/>
  <path fill="#292D32" d="M6.971,8.75 C4.911,8.75 3.221,7.07 3.221,5 C3.221,2.93 4.901,1.25 6.971,1.25 C9.041,1.25 10.721,2.93 10.721,5 C10.721,7.07 9.041,8.75 6.971,8.75 Z M6.971,2.75 C5.731,2.75 4.721,3.76 4.721,5 C4.721,6.24 5.731,7.25 6.971,7.25 C8.211,7.25 9.221,6.24 9.221,5 C9.221,3.76 8.211,2.75 6.971,2.75 Z"/>
</svg>

