<svg xmlns="http://www.w3.org/2000/svg" width="24" height="24" viewBox="0 0 24 24">
  <defs/>
  <path fill="#292D32" d="M13.8,10.95 C13.61,10.95 13.42,10.88 13.27,10.73 C12.98,10.44 12.98,9.96 13.27,9.67 L21.47,1.47 C21.76,1.18 22.24,1.18 22.53,1.47 C22.82,1.76 22.82,2.24 22.53,2.53 L14.33,10.73 C14.19,10.87 14,10.95 13.8,10.95 Z"/>
  <path fill="#292D32" d="M17.83,11.75 L13,11.75 C12.59,11.75 12.25,11.41 12.25,11 L12.25,6.17 C12.25,5.76 12.59,5.42 13,5.42 C13.41,5.42 13.75,5.76 13.75,6.17 L13.75,10.25 L17.83,10.25 C18.24,10.25 18.58,10.59 18.58,11 C18.58,11.41 18.24,11.75 17.83,11.75 Z"/>
  <path fill="#292D32" d="M15,22.75 L9,22.75 C3.57,22.75 1.25,20.43 1.25,15 L1.25,9 C1.25,3.57 3.57,1.25 9,1.25 L11,1.25 C11.41,1.25 11.75,1.59 11.75,2 C11.75,2.41 11.41,2.75 11,2.75 L9,2.75 C4.39,2.75 2.75,4.39 2.75,9 L2.75,15 C2.75,19.61 4.39,21.25 9,21.25 L15,21.25 C19.61,21.25 21.25,19.61 21.25,15 L21.25,13 C21.25,12.59 21.59,12.25 22,12.25 C22.41,12.25 22.75,12.59 22.75,13 L22.75,15 C22.75,20.43 20.43,22.75 15,22.75 Z"/>
</svg>

