<svg xmlns="http://www.w3.org/2000/svg" width="24" height="24" viewBox="0 0 24 24">
  <defs/>
  <path fill="#292D32" d="M12,2 C6.48,2 2,6.48 2,12 C2,17.52 6.48,22 12,22 C17.52,22 22,17.52 22,12 C22,6.48 17.52,2 12,2 Z M17.53,7.53 L9.81,15.25 L12.83,15.25 C13.24,15.25 13.58,15.59 13.58,16 C13.58,16.41 13.24,16.75 12.83,16.75 L8,16.75 C7.59,16.75 7.25,16.41 7.25,16 L7.25,11.17 C7.25,10.76 7.59,10.42 8,10.42 C8.41,10.42 8.75,10.76 8.75,11.17 L8.75,14.19 L16.47,6.47 C16.62,6.32 16.81,6.25 17,6.25 C17.19,6.25 17.38,6.32 17.53,6.47 C17.82,6.76 17.82,7.24 17.53,7.53 Z"/>
</svg>

