<svg xmlns="http://www.w3.org/2000/svg" width="24" height="24" viewBox="0 0 24 24">
  <defs/>
  <path fill="#292D32" d="M21.14,9.898 L12.68,9.898 L12.68,13.568 L14.25,11.998 C14.54,11.708 15.02,11.708 15.31,11.998 C15.6,12.288 15.6,12.768 15.31,13.058 L12.46,15.898 C12.17,16.188 11.69,16.188 11.4,15.898 L8.55,13.058 C8.4,12.908 8.33,12.718 8.33,12.528 C8.33,12.338 8.41,12.148 8.56,11.998 C8.85,11.708 9.33,11.708 9.62,11.998 L11.18,13.558 L11.18,9.898 L2.86,9.898 C2.38,9.898 2,10.278 2,10.758 C2,16.648 6.11,20.758 12,20.758 C17.89,20.758 22,16.648 22,10.758 C22,10.278 21.62,9.898 21.14,9.898 Z"/>
  <path fill="#292D32" d="M12.68,3.988 C12.68,3.578 12.34,3.238 11.93,3.238 C11.52,3.238 11.18,3.578 11.18,3.988 L11.18,9.888 L12.68,9.888 L12.68,3.988 Z"/>
</svg>

