<svg xmlns="http://www.w3.org/2000/svg" width="24" height="24" viewBox="0 0 24 24">
  <defs/>
  <path fill="#292D32" opacity="0.4" d="M22,10.76 C22,10.29 21.62,9.9 21.14,9.9 L2.86,9.9 C2.38,9.9 2,10.28 2,10.76 C2,16.65 6.11,20.76 12,20.76 C17.89,20.76 22,16.64 22,10.76 Z"/>
  <path fill="#292D32" d="M12.46,15.9 L15.31,13.06 C15.6,12.77 15.6,12.29 15.31,12 C15.02,11.71 14.54,11.71 14.25,12 L12.69,13.56 L12.69,3.99 C12.69,3.58 12.35,3.24 11.94,3.24 C11.53,3.24 11.19,3.58 11.19,3.99 L11.19,13.56 L9.62,12 C9.33,11.71 8.85,11.71 8.56,12 C8.41,12.15 8.34,12.34 8.34,12.53 C8.34,12.72 8.41,12.91 8.56,13.06 L11.41,15.9 C11.7,16.2 12.17,16.2 12.46,15.9 Z"/>
</svg>

