<svg xmlns="http://www.w3.org/2000/svg" width="24" height="24" viewBox="0 0 24 24">
  <defs/>
  <path fill="#292D32" d="M9.85,11.15 L11.88,13.179 L13.91,11.15 Q14.129,10.93 14.44,10.93 Q14.751,10.93 14.97,11.15 Q15.19,11.369 15.19,11.68 Q15.19,11.991 14.97,12.21 L12.41,14.77 Q12.191,14.99 11.88,14.99 Q11.569,14.99 11.35,14.77 L8.79,12.21 Q8.57,11.991 8.57,11.68 Q8.57,11.369 8.79,11.15 Q9.009,10.93 9.32,10.93 Q9.631,10.93 9.85,11.15 Z"/>
  <path fill="#292D32" d="M12.63,4 L12.63,14.17 Q12.63,14.481 12.41,14.7 Q12.191,14.92 11.88,14.92 Q11.569,14.92 11.35,14.7 Q11.13,14.481 11.13,14.17 L11.13,4 Q11.13,3.689 11.35,3.47 Q11.569,3.25 11.88,3.25 Q12.191,3.25 12.41,3.47 Q12.63,3.689 12.63,4 Z"/>
  <path fill="#292D32" d="M20.75,12.18 Q20.75,15.9 18.419,18.354 Q15.972,20.93 12,20.93 Q8.028,20.93 5.581,18.354 Q3.25,15.9 3.25,12.18 Q3.25,11.869 3.47,11.65 Q3.689,11.43 4,11.43 Q4.311,11.43 4.53,11.65 Q4.75,11.869 4.75,12.18 Q4.75,15.301 6.669,17.321 Q8.672,19.43 12,19.43 Q15.328,19.43 17.331,17.321 Q19.25,15.301 19.25,12.18 Q19.25,11.869 19.47,11.65 Q19.689,11.43 20,11.43 Q20.311,11.43 20.53,11.65 Q20.75,11.869 20.75,12.18 Z"/>
</svg>

