<svg xmlns="http://www.w3.org/2000/svg" width="24" height="24" viewBox="0 0 24 24">
  <defs/>
  <path fill="#292D32" d="M9.97,11.15 L11.999,13.179 L14.029,11.15 Q14.249,10.93 14.559,10.93 Q14.87,10.93 15.09,11.15 Q15.309,11.369 15.309,11.68 Q15.309,11.991 15.09,12.21 L12.53,14.77 Q12.31,14.99 12,14.99 Q11.689,14.99 11.469,14.77 L8.909,12.21 Q8.689,11.991 8.689,11.68 Q8.689,11.369 8.909,11.15 Q9.129,10.93 9.439,10.93 Q9.75,10.93 9.97,11.15 Z"/>
  <path fill="#292D32" d="M12.75,9 L12.75,14.17 Q12.75,14.481 12.53,14.7 Q12.311,14.92 12,14.92 Q11.689,14.92 11.47,14.7 Q11.25,14.481 11.25,14.17 L11.25,9 Q11.25,8.689 11.47,8.47 Q11.689,8.25 12,8.25 Q12.311,8.25 12.53,8.47 Q12.75,8.689 12.75,9 Z"/>
  <path fill="#292D32" d="M12.75,4 L12.75,5.96 Q12.75,6.271 12.53,6.49 Q12.311,6.71 12,6.71 Q11.689,6.71 11.47,6.49 Q11.25,6.271 11.25,5.96 L11.25,4 Q11.25,3.689 11.47,3.47 Q11.689,3.25 12,3.25 Q12.311,3.25 12.53,3.47 Q12.75,3.689 12.75,4 Z"/>
  <path fill="#292D32" d="M18.025,18.564 Q15.628,20.75 12,20.75 Q8.028,20.75 5.581,18.174 Q3.25,15.72 3.25,12 Q3.25,11.689 3.47,11.47 Q3.689,11.25 4,11.25 Q4.311,11.25 4.53,11.47 Q4.75,11.689 4.75,12 Q4.75,15.121 6.669,17.141 Q8.672,19.25 12,19.25 Q15.047,19.25 17.015,17.456 Q17.244,17.246 17.555,17.261 Q17.865,17.275 18.074,17.505 Q18.284,17.734 18.269,18.045 Q18.255,18.355 18.025,18.564 Z"/>
  <path fill="#292D32" d="M20.75,12 Q20.75,13.688 20.218,15.216 Q20.116,15.51 19.836,15.645 Q19.557,15.78 19.263,15.678 Q18.97,15.576 18.835,15.297 Q18.699,15.017 18.801,14.724 Q19.25,13.435 19.25,12 Q19.25,11.689 19.469,11.47 Q19.689,11.25 20,11.25 Q20.31,11.25 20.53,11.47 Q20.75,11.689 20.75,12 Z"/>
</svg>

