<svg xmlns="http://www.w3.org/2000/svg" width="24" height="24" viewBox="0 0 24 24">
  <defs/>
  <path fill="#292D32" d="M11.88,14.99 C11.69,14.99 11.5,14.92 11.35,14.77 L8.79,12.21 C8.5,11.92 8.5,11.44 8.79,11.15 C9.08,10.86 9.56,10.86 9.85,11.15 L11.88,13.18 L13.91,11.15 C14.2,10.86 14.68,10.86 14.97,11.15 C15.26,11.44 15.26,11.92 14.97,12.21 L12.41,14.77 C12.26,14.92 12.07,14.99 11.88,14.99 Z"/>
  <path fill="#292D32" d="M11.881,14.92 C11.471,14.92 11.131,14.58 11.131,14.17 L11.131,4 C11.131,3.59 11.471,3.25 11.881,3.25 C12.291,3.25 12.631,3.59 12.631,4 L12.631,14.17 C12.631,14.58 12.291,14.92 11.881,14.92 Z"/>
  <path fill="#292D32" d="M12,20.93 C6.85,20.93 3.25,17.33 3.25,12.18 C3.25,11.77 3.59,11.43 4,11.43 C4.41,11.43 4.75,11.77 4.75,12.18 C4.75,16.45 7.73,19.43 12,19.43 C16.27,19.43 19.25,16.45 19.25,12.18 C19.25,11.77 19.59,11.43 20,11.43 C20.41,11.43 20.75,11.77 20.75,12.18 C20.75,17.33 17.15,20.93 12,20.93 Z"/>
</svg>

