<svg xmlns="http://www.w3.org/2000/svg" width="24" height="24" viewBox="0 0 24 24">
  <defs/>
  <path fill="#292D32" d="M12,2.75 Q8.171,2.75 5.46,5.46 Q2.75,8.171 2.75,12 Q2.75,15.829 5.46,18.54 Q8.171,21.25 12,21.25 Q15.829,21.25 18.54,18.54 Q21.25,15.829 21.25,12 Q21.25,11.689 21.47,11.47 Q21.689,11.25 22,11.25 Q22.311,11.25 22.53,11.47 Q22.75,11.689 22.75,12 Q22.75,16.451 19.6,19.6 Q16.451,22.75 12,22.75 Q7.549,22.75 4.4,19.6 Q1.25,16.451 1.25,12 Q1.25,7.549 4.4,4.4 Q7.549,1.25 12,1.25 Q12.311,1.25 12.53,1.47 Q12.75,1.689 12.75,2 Q12.75,2.311 12.53,2.53 Q12.311,2.75 12,2.75 Z"/>
  <g opacity="0.4">
    <path fill="#292D32" d="M22.531,2.53 L14.331,10.73 Q14.111,10.95 13.801,10.95 Q13.49,10.95 13.27,10.73 Q13.051,10.511 13.051,10.2 Q13.051,9.889 13.27,9.67 L21.47,1.47 Q21.69,1.25 22.001,1.25 Q22.311,1.25 22.531,1.47 Q22.751,1.689 22.751,2 Q22.751,2.311 22.531,2.53 Z"/>
    <path fill="#292D32" d="M13.75,6.17 L13.75,10.25 L17.83,10.25 Q18.141,10.25 18.36,10.47 Q18.58,10.689 18.58,11 Q18.58,11.311 18.36,11.53 Q18.141,11.75 17.83,11.75 L13,11.75 Q12.689,11.75 12.47,11.53 Q12.25,11.311 12.25,11 L12.25,6.17 Q12.25,5.859 12.47,5.64 Q12.689,5.42 13,5.42 Q13.311,5.42 13.53,5.64 Q13.75,5.859 13.75,6.17 Z"/>
  </g>
</svg>

