<svg xmlns="http://www.w3.org/2000/svg" width="24" height="24" viewBox="0 0 24 24">
  <defs/>
  <path fill="#292D32" d="M16.19,2 L7.81,2 C4.17,2 2,4.17 2,7.81 L2,16.18 C2,19.83 4.17,22 7.81,22 L16.18,22 C19.82,22 21.99,19.83 21.99,16.19 L21.99,7.81 C22,4.17 19.83,2 16.19,2 Z M17.53,7.53 L9.81,15.25 L12.83,15.25 C13.24,15.25 13.58,15.59 13.58,16 C13.58,16.41 13.24,16.75 12.83,16.75 L8,16.75 C7.59,16.75 7.25,16.41 7.25,16 L7.25,11.17 C7.25,10.76 7.59,10.42 8,10.42 C8.41,10.42 8.75,10.76 8.75,11.17 L8.75,14.19 L16.47,6.47 C16.62,6.32 16.81,6.25 17,6.25 C17.19,6.25 17.38,6.32 17.53,6.47 C17.82,6.76 17.82,7.24 17.53,7.53 Z"/>
</svg>

