<svg xmlns="http://www.w3.org/2000/svg" width="24" height="24" viewBox="0 0 24 24">
  <defs/>
  <g opacity="0.4">
    <path fill="#292D32" d="M9.851,11.149 L11.88,13.179 L13.91,11.149 Q14.13,10.93 14.44,10.93 Q14.751,10.93 14.971,11.149 Q15.19,11.369 15.19,11.68 Q15.19,11.99 14.971,12.21 L12.411,14.77 Q12.191,14.99 11.88,14.99 Q11.57,14.99 11.35,14.77 L8.79,12.21 Q8.57,11.99 8.57,11.68 Q8.57,11.369 8.79,11.149 Q9.01,10.93 9.32,10.93 Q9.631,10.93 9.851,11.149 Z"/>
    <path fill="#292D32" d="M12.631,4 L12.631,14.17 Q12.631,14.481 12.411,14.7 Q12.192,14.92 11.881,14.92 Q11.57,14.92 11.351,14.7 Q11.131,14.481 11.131,14.17 L11.131,4 Q11.131,3.689 11.351,3.47 Q11.57,3.25 11.881,3.25 Q12.192,3.25 12.411,3.47 Q12.631,3.689 12.631,4 Z"/>
  </g>
  <path fill="#292D32" d="M20.75,12.18 Q20.75,15.9 18.419,18.354 Q15.972,20.93 12,20.93 Q8.028,20.93 5.581,18.354 Q3.25,15.9 3.25,12.18 Q3.25,11.87 3.47,11.65 Q3.689,11.43 4,11.43 Q4.311,11.43 4.53,11.65 Q4.75,11.87 4.75,12.18 Q4.75,15.301 6.669,17.321 Q8.672,19.43 12,19.43 Q15.328,19.43 17.331,17.321 Q19.25,15.301 19.25,12.18 Q19.25,11.87 19.47,11.65 Q19.689,11.43 20,11.43 Q20.311,11.43 20.53,11.65 Q20.75,11.87 20.75,12.18 Z"/>
</svg>

