<svg xmlns="http://www.w3.org/2000/svg" width="24" height="24" viewBox="0 0 24 24">
  <defs/>
  <path fill="#292D32" d="M16.8,9 L12.75,9 L12.75,13.44 L14.82,11.37 C14.97,11.22 15.16,11.15 15.35,11.15 C15.54,11.15 15.73,11.22 15.88,11.37 C16.17,11.66 16.17,12.14 15.88,12.43 L12.53,15.78 C12.24,16.07 11.76,16.07 11.47,15.78 L8.12,12.43 C7.83,12.14 7.83,11.66 8.12,11.37 C8.41,11.08 8.89,11.08 9.18,11.37 L11.25,13.44 L11.25,9 L7.2,9 C4,9 2,11 2,14.2 L2,16.79 C2,20 4,22 7.2,22 L16.79,22 C19.99,22 21.99,20 21.99,16.8 L21.99,14.2 C22,11 20,9 16.8,9 Z"/>
  <path fill="#292D32" d="M12.75,2.75 C12.75,2.34 12.41,2 12,2 C11.59,2 11.25,2.34 11.25,2.75 L11.25,9 L12.75,9 L12.75,2.75 Z"/>
</svg>

