<svg xmlns="http://www.w3.org/2000/svg" width="24" height="24" viewBox="0 0 24 24">
  <defs/>
  <path fill="#292D32" opacity="0.4" d="M16.19,2 L7.81,2 C4.17,2 2,4.17 2,7.81 L2,16.18 C2,19.83 4.17,22 7.81,22 L16.18,22 C19.82,22 21.99,19.83 21.99,16.19 L21.99,7.81 C22,4.17 19.83,2 16.19,2 Z"/>
  <path fill="#292D32" d="M7.75,17.5 L12.58,17.5 C12.99,17.5 13.33,17.16 13.33,16.75 C13.33,16.34 12.99,16 12.58,16 L9.56,16 L17.28,8.28 C17.57,7.99 17.57,7.51 17.28,7.22 C17.13,7.07 16.94,7 16.75,7 C16.56,7 16.37,7.07 16.22,7.22 L8.5,14.94 L8.5,11.92 C8.5,11.51 8.16,11.17 7.75,11.17 C7.34,11.17 7,11.51 7,11.92 L7,16.75 C7,17.16 7.34,17.5 7.75,17.5 Z"/>
</svg>

