<svg xmlns="http://www.w3.org/2000/svg" width="24" height="24" viewBox="0 0 24 24">
  <defs/>
  <path fill="#292D32" d="M15.261,22.25 L8.74,22.25 C3.83,22.25 1.73,20.15 1.73,15.24 L1.73,15.11 C1.73,10.67 3.48,8.53 7.4,8.16 C7.8,8.13 8.18,8.43 8.22,8.84 C8.26,9.25 7.96,9.62 7.54,9.66 C4.4,9.95 3.23,11.43 3.23,15.12 L3.23,15.25 C3.23,19.32 4.67,20.76 8.74,20.76 L15.261,20.76 C19.331,20.76 20.77,19.32 20.77,15.25 L20.77,15.12 C20.77,11.41 19.581,9.93 16.381,9.66 C15.97,9.62 15.661,9.26 15.7,8.85 C15.741,8.44 16.09,8.13 16.511,8.17 C20.491,8.51 22.27,10.66 22.27,15.13 L22.27,15.26 C22.27,20.15 20.171,22.25 15.261,22.25 Z"/>
  <path fill="#292D32" d="M12,15.63 C11.59,15.63 11.25,15.29 11.25,14.88 L11.25,2 C11.25,1.59 11.59,1.25 12,1.25 C12.41,1.25 12.75,1.59 12.75,2 L12.75,14.88 C12.75,15.3 12.41,15.63 12,15.63 Z"/>
  <path fill="#292D32" d="M12,16.75 C11.81,16.75 11.62,16.68 11.47,16.53 L8.12,13.18 C7.83,12.89 7.83,12.41 8.12,12.12 C8.41,11.83 8.89,11.83 9.18,12.12 L12,14.94 L14.82,12.12 C15.11,11.83 15.59,11.83 15.88,12.12 C16.17,12.41 16.17,12.89 15.88,13.18 L12.53,16.53 C12.38,16.68 12.19,16.75 12,16.75 Z"/>
</svg>

