<svg xmlns="http://www.w3.org/2000/svg" width="24" height="24" viewBox="0 0 24 24">
  <defs/>
  <path fill="#292D32" d="M22.53,2.53 L14.33,10.73 Q14.111,10.95 13.8,10.95 Q13.489,10.95 13.27,10.73 Q13.05,10.511 13.05,10.2 Q13.05,9.889 13.27,9.67 L21.47,1.47 Q21.689,1.25 22,1.25 Q22.311,1.25 22.53,1.47 Q22.75,1.689 22.75,2 Q22.75,2.311 22.53,2.53 Z"/>
  <path fill="#292D32" d="M13.75,6.17 L13.75,10.25 L17.83,10.25 Q18.141,10.25 18.36,10.47 Q18.58,10.689 18.58,11 Q18.58,11.311 18.36,11.53 Q18.141,11.75 17.83,11.75 L13,11.75 Q12.689,11.75 12.47,11.53 Q12.25,11.311 12.25,11 L12.25,6.17 Q12.25,5.859 12.47,5.64 Q12.689,5.42 13,5.42 Q13.311,5.42 13.53,5.64 Q13.75,5.859 13.75,6.17 Z"/>
  <path fill="#292D32" d="M11,2.75 L9,2.75 Q2.75,2.75 2.75,9 L2.75,15 Q2.75,18.439 4.155,19.845 Q5.561,21.25 9,21.25 L15,21.25 Q18.439,21.25 19.845,19.845 Q21.25,18.439 21.25,15 L21.25,13 Q21.25,12.689 21.47,12.47 Q21.689,12.25 22,12.25 Q22.311,12.25 22.53,12.47 Q22.75,12.689 22.75,13 L22.75,15 Q22.75,22.75 15,22.75 L9,22.75 Q1.25,22.75 1.25,15 L1.25,9 Q1.25,1.25 9,1.25 L11,1.25 Q11.311,1.25 11.53,1.47 Q11.75,1.689 11.75,2 Q11.75,2.311 11.53,2.53 Q11.311,2.75 11,2.75 Z"/>
</svg>

