<svg xmlns="http://www.w3.org/2000/svg" width="24" height="24" viewBox="0 0 24 24">
  <defs/>
  <path fill="#292D32" d="M12,22.75 C6.07,22.75 1.25,17.93 1.25,12 C1.25,6.07 6.07,1.25 12,1.25 C17.93,1.25 22.75,6.07 22.75,12 C22.75,17.93 17.93,22.75 12,22.75 Z M12,2.75 C6.9,2.75 2.75,6.9 2.75,12 C2.75,17.1 6.9,21.25 12,21.25 C17.1,21.25 21.25,17.1 21.25,12 C21.25,6.9 17.1,2.75 12,2.75 Z"/>
  <path fill="#292D32" d="M12,13.75 C11.59,13.75 11.25,13.41 11.25,13 L11.25,8 C11.25,7.59 11.59,7.25 12,7.25 C12.41,7.25 12.75,7.59 12.75,8 L12.75,13 C12.75,13.41 12.41,13.75 12,13.75 Z"/>
  <path fill="#292D32" d="M12,17 C11.87,17 11.74,16.97 11.62,16.92 C11.5,16.87 11.39,16.8 11.29,16.71 C11.2,16.61 11.13,16.51 11.08,16.38 C11.03,16.26 11,16.13 11,16 C11,15.87 11.03,15.74 11.08,15.62 C11.13,15.5 11.2,15.39 11.29,15.29 C11.39,15.2 11.5,15.13 11.62,15.08 C11.86,14.98 12.14,14.98 12.38,15.08 C12.5,15.13 12.61,15.2 12.71,15.29 C12.8,15.39 12.87,15.5 12.92,15.62 C12.97,15.74 13,15.87 13,16 C13,16.13 12.97,16.26 12.92,16.38 C12.87,16.51 12.8,16.61 12.71,16.71 C12.61,16.8 12.5,16.87 12.38,16.92 C12.26,16.97 12.13,17 12,17 Z"/>
</svg>

