<svg xmlns="http://www.w3.org/2000/svg" width="24" height="24" viewBox="0 0 24 24">
  <defs/>
  <path fill="#292D32" opacity="0.4" d="M10.751,2.45 C11.451,1.86 12.581,1.86 13.261,2.45 L14.841,3.8 C15.141,4.05 15.711,4.26 16.111,4.26 L17.811,4.26 C18.871,4.26 19.741,5.13 19.741,6.19 L19.741,7.89 C19.741,8.29 19.951,8.85 20.201,9.15 L21.551,10.73 C22.141,11.43 22.141,12.56 21.551,13.24 L20.201,14.82 C19.951,15.12 19.741,15.68 19.741,16.08 L19.741,17.78 C19.741,18.84 18.871,19.71 17.811,19.71 L16.111,19.71 C15.711,19.71 15.151,19.92 14.851,20.17 L13.271,21.52 C12.571,22.11 11.441,22.11 10.761,21.52 L9.181,20.17 C8.881,19.92 8.311,19.71 7.921,19.71 L6.171,19.71 C5.111,19.71 4.241,18.84 4.241,17.78 L4.241,16.07 C4.241,15.68 4.041,15.11 3.791,14.82 L2.441,13.23 C1.861,12.54 1.861,11.42 2.441,10.73 L3.791,9.14 C4.041,8.84 4.241,8.28 4.241,7.89 L4.241,6.2 C4.241,5.14 5.111,4.27 6.171,4.27 L7.901,4.27 C8.301,4.27 8.861,4.06 9.161,3.81 L10.751,2.45 Z"/>
  <path fill="#292D32" d="M12,16.87 C11.45,16.87 11,16.42 11,15.87 C11,15.32 11.44,14.87 12,14.87 C12.55,14.87 13,15.32 13,15.87 C13,16.42 12.56,16.87 12,16.87 Z"/>
  <path fill="#292D32" d="M12,13.72 C11.59,13.72 11.25,13.38 11.25,12.97 L11.25,8.13 C11.25,7.72 11.59,7.38 12,7.38 C12.41,7.38 12.75,7.72 12.75,8.13 L12.75,12.96 C12.75,13.38 12.42,13.72 12,13.72 Z"/>
</svg>

