<svg xmlns="http://www.w3.org/2000/svg" width="24" height="24" viewBox="0 0 24 24">
  <defs/>
  <path fill="#292D32" d="M12.75,8 L12.75,13 Q12.75,13.311 12.53,13.53 Q12.311,13.75 12,13.75 Q11.689,13.75 11.47,13.53 Q11.25,13.311 11.25,13 L11.25,8 Q11.25,7.689 11.47,7.47 Q11.689,7.25 12,7.25 Q12.311,7.25 12.53,7.47 Q12.75,7.689 12.75,8 Z"/>
  <path fill="#292D32" d="M4.6,6.449 Q2.75,8.922 2.75,12 Q2.75,15.829 5.46,18.54 Q8.171,21.25 12,21.25 Q15.829,21.25 18.54,18.54 Q21.25,15.829 21.25,12 Q21.25,8.171 18.54,5.46 Q15.829,2.75 12,2.75 Q10.031,2.75 8.276,3.535 Q7.993,3.661 7.702,3.551 Q7.412,3.44 7.285,3.156 Q7.159,2.873 7.269,2.582 Q7.38,2.292 7.664,2.165 Q9.711,1.25 12,1.25 Q16.451,1.25 19.6,4.4 Q22.75,7.549 22.75,12 Q22.75,16.451 19.6,19.6 Q16.451,22.75 12,22.75 Q7.549,22.75 4.4,19.6 Q1.25,16.451 1.25,12 Q1.25,8.422 3.4,5.551 Q3.586,5.302 3.893,5.258 Q4.201,5.213 4.449,5.4 Q4.698,5.586 4.742,5.893 Q4.787,6.201 4.6,6.449 Z"/>
  <path fill="#292D32" d="M11.994,15 L12.003,15 Q12.417,15 12.71,15.293 Q13.003,15.586 13.003,16 Q13.003,16.414 12.71,16.707 Q12.417,17 12.003,17 L11.994,17 Q11.58,17 11.287,16.707 Q10.994,16.414 10.994,16 Q10.994,15.586 11.287,15.293 Q11.58,15 11.994,15 Z"/>
</svg>

