<svg xmlns="http://www.w3.org/2000/svg" width="24" height="24" viewBox="0 0 24 24">
  <defs/>
  <path fill="#292D32" d="M10.268,1.876 Q12.031,0.39 13.752,1.883 L15.328,3.23 Q15.664,3.51 16.111,3.51 L17.811,3.51 Q20.491,3.51 20.491,6.19 L20.491,7.89 Q20.491,8.326 20.777,8.67 L22.121,10.243 Q23.611,12.01 22.117,13.731 L20.771,15.307 Q20.491,15.643 20.491,16.08 L20.491,17.78 Q20.491,20.46 17.811,20.46 L16.111,20.46 Q15.674,20.46 15.331,20.746 L13.758,22.09 Q11.991,23.58 10.269,22.086 L8.694,20.74 Q8.357,20.46 7.921,20.46 L6.171,20.46 Q5.065,20.46 4.278,19.673 Q3.491,18.885 3.491,17.78 L3.491,16.07 Q3.491,15.62 3.223,15.31 L1.869,13.715 Q0.41,11.98 1.867,10.247 L3.219,8.654 Q3.491,8.328 3.491,7.89 L3.491,6.2 Q3.491,3.52 6.171,3.52 L7.901,3.52 Q8.337,3.52 8.681,3.234 L10.263,1.88 Z M9.641,4.386 Q8.88,5.02 7.901,5.02 L6.171,5.02 Q4.991,5.02 4.991,6.2 L4.991,7.89 Q4.991,8.871 4.363,9.625 L3.015,11.212 Q2.37,11.98 3.013,12.744 L4.359,14.33 Q4.991,15.063 4.991,16.07 L4.991,17.78 Q4.991,18.96 6.171,18.96 L7.921,18.96 Q8.9,18.96 9.668,19.6 L11.252,20.953 Q12.005,21.606 12.784,20.95 L14.371,19.594 Q15.131,18.96 16.111,18.96 L17.811,18.96 Q18.295,18.96 18.643,18.612 Q18.991,18.264 18.991,17.78 L18.991,16.08 Q18.991,15.1 19.631,14.333 L20.984,12.748 Q21.637,11.996 20.981,11.217 L19.625,9.63 Q18.991,8.869 18.991,7.89 L18.991,6.19 Q18.991,5.01 17.811,5.01 L16.111,5.01 Q15.121,5.01 14.354,4.37 L12.769,3.016 Q12.018,2.364 11.236,3.022 L9.641,4.386 Z"/>
  <g opacity="0.4">
    <path fill="#292D32" d="M12.75,8.13 L12.75,12.96 Q12.75,13.271 12.53,13.49 Q12.311,13.71 12,13.71 Q11.689,13.71 11.47,13.49 Q11.25,13.271 11.25,12.96 L11.25,8.13 Q11.25,7.819 11.47,7.6 Q11.689,7.38 12,7.38 Q12.311,7.38 12.53,7.6 Q12.75,7.819 12.75,8.13 Z"/>
    <path fill="#292D32" d="M11.994,15 L12.003,15 Q12.417,15 12.71,15.293 Q13.003,15.586 13.003,16 Q13.003,16.414 12.71,16.707 Q12.417,17 12.003,17 L11.994,17 Q11.58,17 11.287,16.707 Q10.994,16.414 10.994,16 Q10.994,15.586 11.287,15.293 Q11.58,15 11.994,15 Z"/>
  </g>
</svg>

