<svg xmlns="http://www.w3.org/2000/svg" width="24" height="24" viewBox="0 0 24 24">
  <defs/>
  <path fill="#292D32" opacity="0.4" d="M16.19,2 L7.81,2 C4.17,2 2,4.17 2,7.81 L2,16.18 C2,19.83 4.17,22 7.81,22 L16.18,22 C19.82,22 21.99,19.83 21.99,16.19 L21.99,7.81 C22,4.17 19.83,2 16.19,2 Z"/>
  <path fill="#292D32" d="M11.999,15.88 C14.142,15.88 15.879,14.143 15.879,12 C15.879,9.857 14.142,8.12 11.999,8.12 C9.856,8.12 8.119,9.857 8.119,12 C8.119,14.143 9.856,15.88 11.999,15.88 Z"/>
  <path fill="#292D32" d="M17,7.5 C16.73,7.5 16.48,7.4 16.29,7.21 C16.2,7.11 16.13,7 16.08,6.88 C16.03,6.76 16,6.63 16,6.5 C16,6.37 16.03,6.24 16.08,6.12 C16.13,5.99 16.2,5.89 16.29,5.79 C16.52,5.56 16.87,5.45 17.19,5.52 C17.26,5.53 17.32,5.55 17.38,5.58 C17.44,5.6 17.5,5.63 17.56,5.67 C17.61,5.7 17.66,5.75 17.71,5.79 C17.8,5.89 17.87,5.99 17.92,6.12 C17.97,6.24 18,6.37 18,6.5 C18,6.63 17.97,6.76 17.92,6.88 C17.87,7 17.8,7.11 17.71,7.21 C17.61,7.3 17.5,7.37 17.38,7.42 C17.26,7.47 17.13,7.5 17,7.5 Z"/>
</svg>

