<svg xmlns="http://www.w3.org/2000/svg" width="24" height="24" viewBox="0 0 24 24">
  <defs/>
  <path fill="#292D32" d="M15,22.75 L9,22.75 C3.57,22.75 1.25,20.43 1.25,15 L1.25,9 C1.25,3.57 3.57,1.25 9,1.25 L15,1.25 C20.43,1.25 22.75,3.57 22.75,9 L22.75,15 C22.75,20.43 20.43,22.75 15,22.75 Z M9,2.75 C4.39,2.75 2.75,4.39 2.75,9 L2.75,15 C2.75,19.61 4.39,21.25 9,21.25 L15,21.25 C19.61,21.25 21.25,19.61 21.25,15 L21.25,9 C21.25,4.39 19.61,2.75 15,2.75 L9,2.75 Z"/>
  <path fill="#292D32" d="M12,16.25 C9.66,16.25 7.75,14.34 7.75,12 C7.75,9.66 9.66,7.75 12,7.75 C14.34,7.75 16.25,9.66 16.25,12 C16.25,14.34 14.34,16.25 12,16.25 Z M12,9.25 C10.48,9.25 9.25,10.48 9.25,12 C9.25,13.52 10.48,14.75 12,14.75 C13.52,14.75 14.75,13.52 14.75,12 C14.75,10.48 13.52,9.25 12,9.25 Z"/>
  <path fill="#292D32" d="M17,7.5 C16.87,7.5 16.74,7.47 16.62,7.42 C16.5,7.37 16.39,7.3 16.29,7.21 C16.2,7.11 16.12,7 16.07,6.88 C16.02,6.76 16,6.63 16,6.5 C16,6.37 16.02,6.24 16.07,6.12 C16.13,5.99 16.2,5.89 16.29,5.79 C16.34,5.75 16.39,5.7 16.44,5.67 C16.5,5.63 16.56,5.6 16.62,5.58 C16.68,5.55 16.74,5.53 16.81,5.52 C17.13,5.45 17.47,5.56 17.71,5.79 C17.8,5.89 17.87,5.99 17.92,6.12 C17.97,6.24 18,6.37 18,6.5 C18,6.63 17.97,6.76 17.92,6.88 C17.87,7 17.8,7.11 17.71,7.21 C17.61,7.3 17.5,7.37 17.38,7.42 C17.26,7.47 17.13,7.5 17,7.5 Z"/>
</svg>

