<svg xmlns="http://www.w3.org/2000/svg" width="24" height="24" viewBox="0 0 24 24">
  <defs/>
  <path d="M12,22.43 C11.52,22.43 11.04,22.3 10.61,22.05 L4.11,18.23 C3.27,17.74 2.75,16.83 2.75,15.86 L2.75,8.15 C2.75,7.18 3.27,6.27 4.11,5.78 L10.61,1.96 C11.47,1.45 12.54,1.45 13.4,1.96 L19.9,5.78 C20.74,6.27 21.26,7.18 21.26,8.15 L21.26,15.86 C21.26,16.83 20.74,17.74 19.9,18.23 L13.4,22.05 C12.96,22.3 12.48,22.43 12,22.43 Z M11.37,3.24 L4.87,7.06 C4.49,7.28 4.25,7.7 4.25,8.14 L4.25,15.85 C4.25,16.29 4.49,16.7 4.87,16.93 L11.37,20.75 C11.76,20.98 12.25,20.98 12.64,20.75 L19.14,16.93 C19.52,16.71 19.76,16.29 19.76,15.85 L19.76,8.14 C19.76,7.7 19.52,7.29 19.14,7.06 L12.64,3.24 C12.24,3.01 11.76,3.01 11.37,3.24 Z"/>
  <path d="M12,18.75 C11.87,18.75 11.73,18.71 11.61,18.64 L6.61,15.64 C6.25,15.43 6.14,14.97 6.35,14.61 C6.56,14.25 7.02,14.14 7.38,14.35 L11.99,17.12 L15.53,14.99 L6.6,9.63 C6.37,9.49 6.24,9.25 6.24,8.99 C6.24,8.73 6.38,8.48 6.6,8.35 L11.6,5.35 C11.84,5.21 12.14,5.21 12.37,5.35 L17.37,8.35 C17.73,8.56 17.84,9.02 17.63,9.38 C17.42,9.73 16.96,9.85 16.6,9.64 L11.99,6.87 L8.45,9 L17.38,14.36 C17.61,14.5 17.74,14.74 17.74,15 C17.74,15.26 17.6,15.51 17.38,15.64 L12.38,18.64 C12.27,18.71 12.13,18.75 12,18.75 Z"/>
  <path d="M9.499,12.75 C9.309,12.75 9.119,12.68 8.969,12.53 C8.679,12.24 8.679,11.76 8.969,11.47 L10.97,9.47 C11.259,9.18 11.739,9.18 12.03,9.47 C12.319,9.76 12.319,10.24 12.03,10.53 L10.03,12.53 C9.88,12.68 9.689,12.75 9.499,12.75 Z"/>
  <path d="M12.499,14.75 C12.309,14.75 12.12,14.68 11.97,14.53 C11.68,14.24 11.68,13.76 11.97,13.47 L13.97,11.47 C14.259,11.18 14.739,11.18 15.03,11.47 C15.319,11.76 15.319,12.24 15.03,12.53 L13.03,14.53 C12.88,14.68 12.69,14.75 12.499,14.75 Z"/>
</svg>

