<svg xmlns="http://www.w3.org/2000/svg" width="24" height="24" viewBox="0 0 24 24">
  <defs/>
  <path d="M4.25,12.87 L4.25,15.85 Q4.25,16.557 4.871,16.924 L11.37,20.743 Q12.005,21.116 12.64,20.743 L19.14,16.923 Q19.76,16.557 19.76,15.85 L19.76,8.14 Q19.76,7.433 19.139,7.066 L12.64,3.247 Q12.005,2.874 11.37,3.247 L4.87,7.067 Q4.25,7.433 4.25,8.14 Q4.25,8.451 4.03,8.67 Q3.811,8.89 3.5,8.89 Q3.189,8.89 2.97,8.67 Q2.75,8.451 2.75,8.14 Q2.75,6.576 4.11,5.773 L10.61,1.953 Q12.005,1.134 13.4,1.953 L19.901,5.774 Q21.26,6.576 21.26,8.14 L21.26,15.85 Q21.26,17.414 19.9,18.217 L13.4,22.037 Q12.005,22.856 10.61,22.037 L4.109,18.216 Q2.75,17.414 2.75,15.85 L2.75,12.87 Q2.75,12.559 2.97,12.34 Q3.189,12.12 3.5,12.12 Q3.811,12.12 4.03,12.34 Q4.25,12.559 4.25,12.87 Z"/>
  <path d="M16.614,9.643 L12,6.875 L8.458,9 L17.386,14.357 Q17.652,14.517 17.728,14.818 Q17.803,15.119 17.643,15.386 Q17.547,15.547 17.386,15.643 L12.386,18.643 Q12,18.875 11.614,18.643 L6.614,15.643 Q6.348,15.483 6.272,15.182 Q6.197,14.881 6.357,14.614 Q6.517,14.348 6.818,14.272 Q7.119,14.197 7.386,14.357 L12,17.125 L15.542,15 L6.614,9.643 Q6.453,9.547 6.357,9.386 Q6.197,9.119 6.272,8.818 Q6.348,8.517 6.614,8.357 L11.614,5.357 Q12,5.125 12.386,5.357 L17.386,8.357 Q17.652,8.517 17.728,8.818 Q17.803,9.119 17.643,9.386 Q17.483,9.652 17.182,9.728 Q16.881,9.803 16.614,9.643 Z"/>
  <path d="M12.03,10.53 L10.03,12.53 Q9.811,12.75 9.5,12.75 Q9.189,12.75 8.97,12.53 Q8.75,12.311 8.75,12 Q8.75,11.689 8.97,11.47 L10.97,9.47 Q11.189,9.25 11.5,9.25 Q11.811,9.25 12.03,9.47 Q12.25,9.689 12.25,10 Q12.25,10.311 12.03,10.53 Z"/>
  <path d="M15.03,12.53 L13.03,14.53 Q12.811,14.75 12.5,14.75 Q12.189,14.75 11.97,14.53 Q11.75,14.311 11.75,14 Q11.75,13.689 11.97,13.47 L13.97,11.47 Q14.189,11.25 14.5,11.25 Q14.811,11.25 15.03,11.47 Q15.25,11.689 15.25,12 Q15.25,12.311 15.03,12.53 Z"/>
</svg>

