<svg xmlns="http://www.w3.org/2000/svg" width="24" height="24" viewBox="0 0 24 24">
  <defs/>
  <path fill="white" opacity="0.58" d="M24,0 L0,0 L0,24 L24,24 L24,0 Z"/>
  <path fill="#292D32" opacity="0.4" d="M10.99,2.6 L4.49,6.42 C3.88,6.78 3.5,7.44 3.5,8.14 L3.5,15.85 C3.5,16.56 3.88,17.21 4.49,17.57 L10.99,21.39 C11.62,21.76 12.39,21.76 13.02,21.39 L19.52,17.57 C20.13,17.21 20.51,16.55 20.51,15.85 L20.51,8.14 C20.51,7.43 20.13,6.78 19.52,6.42 L13.02,2.6 C12.39,2.23 11.61,2.23 10.99,2.6 Z"/>
  <path fill="#292D32" d="M17.39,14.36 L14.78,12.79 L15.04,12.53 C15.33,12.24 15.33,11.76 15.04,11.47 C14.75,11.18 14.27,11.18 13.98,11.47 L13.46,11.99 L11.66,10.91 L12.04,10.53 C12.33,10.24 12.33,9.76 12.04,9.47 C11.75,9.18 11.27,9.18 10.98,9.47 L10.33,10.12 L8.46,9 L12,6.87 L16.61,9.64 C16.97,9.85 17.43,9.74 17.64,9.38 C17.85,9.03 17.74,8.56 17.38,8.35 L12.38,5.35 C12.14,5.21 11.84,5.21 11.61,5.35 L6.61,8.35 C6.38,8.49 6.25,8.73 6.25,8.99 C6.25,9.25 6.39,9.5 6.61,9.63 L9.22,11.2 L8.96,11.46 C8.67,11.75 8.67,12.23 8.96,12.52 C9.11,12.67 9.3,12.74 9.49,12.74 C9.68,12.74 9.87,12.67 10.02,12.52 L10.54,12 L12.34,13.08 L11.96,13.46 C11.67,13.75 11.67,14.23 11.96,14.52 C12.11,14.67 12.3,14.74 12.49,14.74 C12.68,14.74 12.87,14.67 13.02,14.52 L13.67,13.87 L15.53,14.99 L12,17.13 L7.39,14.36 C7.03,14.15 6.57,14.26 6.36,14.62 C6.15,14.98 6.26,15.44 6.62,15.65 L11.62,18.65 C11.74,18.72 11.87,18.76 12.01,18.76 C12.15,18.76 12.28,18.72 12.4,18.65 L17.4,15.65 C17.63,15.51 17.76,15.27 17.76,15.01 C17.76,14.75 17.61,14.49 17.39,14.36 Z"/>
</svg>

