<svg xmlns="http://www.w3.org/2000/svg" width="24" height="24" viewBox="0 0 24 24">
  <defs/>
  <path d="M19.51,6.422 L13.01,2.602 C12.38,2.232 11.61,2.232 10.98,2.602 L4.48,6.422 C3.87,6.782 3.49,7.442 3.49,8.142 L3.49,15.852 C3.49,16.562 3.87,17.212 4.48,17.572 L10.98,21.392 C11.61,21.762 12.38,21.762 13.01,21.392 L19.51,17.572 C20.12,17.212 20.5,16.552 20.5,15.852 L20.5,8.142 C20.5,7.442 20.12,6.782 19.51,6.422 Z M17.39,15.642 L12.39,18.642 C12.27,18.712 12.14,18.752 12,18.752 C11.86,18.752 11.73,18.712 11.61,18.642 L6.61,15.642 C6.25,15.432 6.14,14.972 6.35,14.612 C6.56,14.252 7.02,14.142 7.38,14.352 L11.99,17.122 L15.53,14.992 L13.67,13.872 L13.02,14.522 C12.87,14.672 12.68,14.742 12.49,14.742 C12.3,14.742 12.11,14.672 11.96,14.522 C11.67,14.232 11.67,13.752 11.96,13.462 L12.34,13.082 L10.54,12.002 L10.02,12.522 C9.87,12.672 9.68,12.742 9.49,12.742 C9.3,12.742 9.11,12.672 8.96,12.522 C8.67,12.232 8.67,11.752 8.96,11.462 L9.22,11.202 L6.61,9.632 C6.38,9.492 6.25,9.252 6.25,8.992 C6.25,8.732 6.39,8.482 6.61,8.352 L11.61,5.352 C11.85,5.212 12.15,5.212 12.38,5.352 L17.38,8.352 C17.74,8.562 17.85,9.022 17.64,9.382 C17.43,9.732 16.97,9.852 16.61,9.642 L12,6.872 L8.46,9.002 L10.32,10.122 L10.97,9.472 C11.26,9.182 11.74,9.182 12.03,9.472 C12.32,9.762 12.32,10.242 12.03,10.532 L11.65,10.912 L13.45,11.992 L13.97,11.472 C14.26,11.182 14.74,11.182 15.03,11.472 C15.32,11.762 15.32,12.242 15.03,12.532 L14.77,12.792 L17.38,14.362 C17.61,14.502 17.74,14.742 17.74,15.002 C17.74,15.262 17.61,15.512 17.39,15.642 Z"/>
</svg>

