<svg xmlns="http://www.w3.org/2000/svg" width="24" height="24" viewBox="0 0 24 24">
  <defs/>
  <path fill="#17191C" d="M10.603,1.963 Q12,1.045 13.397,1.963 L19.859,5.741 Q21.25,6.45 21.25,8.1 L21.25,15.8 Q21.25,17.235 19.916,18.124 Q19.898,18.136 19.879,18.147 L13.397,21.937 Q12,22.855 10.603,21.937 L4.141,18.159 Q2.75,17.45 2.75,15.8 L2.75,8.1 Q2.75,6.665 4.084,5.776 Q4.102,5.764 4.121,5.753 L10.603,1.963 Z M11.379,3.248 L4.899,7.036 Q4.25,7.476 4.25,8.1 L4.25,15.8 Q4.25,16.536 4.835,16.829 Q4.857,16.84 4.879,16.853 L11.379,20.653 Q11.398,20.664 11.416,20.676 Q12,21.065 12.584,20.676 Q12.602,20.664 12.621,20.653 L19.101,16.864 Q19.75,16.424 19.75,15.8 L19.75,8.1 Q19.75,7.364 19.165,7.071 Q19.143,7.06 19.121,7.048 L12.621,3.248 Q12.602,3.236 12.584,3.224 Q12,2.835 11.416,3.224 Q11.398,3.236 11.379,3.248 Z"/>
  <path fill="#17191C" d="M16.614,9.643 L12,6.875 L8.458,9 L17.386,14.357 Q17.652,14.517 17.728,14.818 Q17.803,15.119 17.643,15.386 Q17.547,15.547 17.386,15.643 L12.386,18.643 Q12,18.875 11.614,18.643 L6.614,15.643 Q6.348,15.483 6.272,15.182 Q6.197,14.881 6.357,14.614 Q6.517,14.348 6.818,14.272 Q7.119,14.197 7.386,14.357 L12,17.125 L15.542,15 L6.614,9.643 Q6.453,9.547 6.357,9.386 Q6.197,9.119 6.272,8.818 Q6.348,8.517 6.614,8.357 L11.614,5.357 Q12,5.125 12.386,5.357 L17.386,8.357 Q17.652,8.517 17.728,8.818 Q17.803,9.119 17.643,9.386 Q17.483,9.652 17.182,9.728 Q16.881,9.803 16.614,9.643 Z"/>
  <path fill="#17191C" d="M12.03,10.53 L10.03,12.53 Q9.811,12.75 9.5,12.75 Q9.189,12.75 8.97,12.53 Q8.75,12.311 8.75,12 Q8.75,11.689 8.97,11.47 L10.97,9.47 Q11.189,9.25 11.5,9.25 Q11.811,9.25 12.03,9.47 Q12.25,9.689 12.25,10 Q12.25,10.311 12.03,10.53 Z"/>
  <path fill="#17191C" d="M15.03,12.53 L13.03,14.53 Q12.811,14.75 12.5,14.75 Q12.189,14.75 11.97,14.53 Q11.75,14.311 11.75,14 Q11.75,13.689 11.97,13.47 L13.97,11.47 Q14.189,11.25 14.5,11.25 Q14.811,11.25 15.03,11.47 Q15.25,11.689 15.25,12 Q15.25,12.311 15.03,12.53 Z"/>
</svg>

