<svg xmlns="http://www.w3.org/2000/svg" width="24" height="24" viewBox="0 0 24 24">
  <defs/>
  <path d="M12.001,22.71 C11.841,22.71 11.681,22.69 11.521,22.64 L5.44,20.9 C4.75,20.7 4.26,20.12 4.18,19.41 L2.38,3.19 C2.33,2.7 2.48,2.2 2.82,1.83 C3.15,1.46 3.63,1.25 4.12,1.25 L19.89,1.25 C20.39,1.25 20.86,1.46 21.191,1.83 C21.52,2.2 21.68,2.7 21.631,3.19 L19.831,19.41 C19.75,20.12 19.261,20.7 18.57,20.9 L12.491,22.64 C12.32,22.69 12.161,22.71 12.001,22.71 Z M4.12,2.75 C4.02,2.75 3.96,2.8 3.93,2.83 C3.9,2.86 3.86,2.93 3.87,3.02 L5.67,19.24 C5.68,19.34 5.75,19.43 5.85,19.45 L11.931,21.19 C11.98,21.2 12.021,21.2 12.07,21.19 L18.151,19.45 C18.25,19.42 18.32,19.34 18.331,19.24 L20.131,3.02 C20.14,2.92 20.09,2.86 20.07,2.83 C20.041,2.8 19.98,2.75 19.881,2.75 L4.12,2.75 Z"/>
  <path d="M10.62,16.74 C10.55,16.74 10.48,16.73 10.41,16.71 L7.29,15.81 C6.89,15.69 6.66,15.28 6.78,14.88 C6.89,14.48 7.31,14.26 7.71,14.37 L9.87,14.99 L9.87,7.01 C9.87,6.6 10.21,6.26 10.62,6.26 C11.03,6.26 11.37,6.6 11.37,7.01 L11.37,15.98 C11.37,16.22 11.26,16.44 11.07,16.58 C10.94,16.68 10.78,16.74 10.62,16.74 Z"/>
  <path d="M12.9,16.75 C12.56,16.75 12.26,16.52 12.17,16.18 C12.07,15.78 12.31,15.37 12.72,15.27 L15.75,14.51 L15.75,12.81 L13.46,13.14 C13.24,13.17 13.03,13.11 12.86,12.96 C12.7,12.82 12.6,12.61 12.6,12.39 L12.6,7.44 C12.6,7.07 12.87,6.75 13.24,6.7 L16.39,6.25 C16.8,6.19 17.18,6.48 17.24,6.89 C17.3,7.3 17.01,7.68 16.6,7.74 L14.09,8.1 L14.09,11.53 L16.38,11.2 C16.6,11.17 16.81,11.23 16.98,11.38 C17.14,11.52 17.24,11.73 17.24,11.95 L17.24,15.1 C17.24,15.44 17.01,15.74 16.67,15.83 L13.07,16.73 C13.02,16.74 12.96,16.75 12.9,16.75 Z"/>
</svg>

