<svg xmlns="http://www.w3.org/2000/svg" width="24" height="24" viewBox="0 0 24 24">
  <defs/>
  <path fill="white" opacity="0.58" d="M24,0 L0,0 L0,24 L24,24 L24,0 Z"/>
  <path fill="#292D32" opacity="0.4" d="M4.12,2 L19.89,2 C20.49,2 20.95,2.52 20.88,3.11 L19.08,19.33 C19.04,19.73 18.75,20.07 18.36,20.18 L12.28,21.92 C12.1,21.97 11.91,21.97 11.73,21.92 L5.65,20.18 C5.26,20.07 4.98,19.73 4.93,19.33 L3.13,3.11 C3.06,2.52 3.52,2 4.12,2 Z"/>
  <path fill="#292D32" d="M10.62,16.74 C10.55,16.74 10.48,16.73 10.41,16.71 L7.29,15.81 C6.89,15.69 6.66,15.28 6.78,14.88 C6.89,14.48 7.31,14.26 7.71,14.37 L9.87,14.99 L9.87,7.01 C9.87,6.6 10.21,6.26 10.62,6.26 C11.03,6.26 11.37,6.6 11.37,7.01 L11.37,15.98 C11.37,16.22 11.26,16.44 11.07,16.58 C10.94,16.68 10.78,16.74 10.62,16.74 Z"/>
  <path fill="#292D32" d="M12.9,16.75 C12.56,16.75 12.26,16.52 12.17,16.18 C12.07,15.78 12.31,15.37 12.72,15.27 L15.75,14.51 L15.75,12.81 L13.46,13.14 C13.24,13.17 13.03,13.11 12.86,12.96 C12.7,12.82 12.6,12.61 12.6,12.39 L12.6,7.45 C12.6,7.08 12.87,6.76 13.24,6.71 L16.39,6.26 C16.8,6.2 17.18,6.49 17.24,6.9 C17.3,7.31 17.01,7.69 16.6,7.75 L14.1,8.1 L14.1,11.53 L16.39,11.2 C16.61,11.17 16.82,11.23 16.99,11.38 C17.15,11.52 17.25,11.73 17.25,11.95 L17.25,15.1 C17.25,15.44 17.02,15.74 16.68,15.83 L13.08,16.73 C13.02,16.74 12.96,16.75 12.9,16.75 Z"/>
</svg>

