<svg xmlns="http://www.w3.org/2000/svg" width="24" height="24" viewBox="0 0 24 24">
  <defs/>
  <path d="M19.88,2 L4.11,2 C3.51,2 3.05,2.52 3.12,3.11 L4.92,19.33 C4.96,19.73 5.25,20.07 5.64,20.18 L11.72,21.92 C11.9,21.97 12.09,21.97 12.27,21.92 L18.35,20.18 C18.74,20.07 19.02,19.73 19.07,19.33 L20.87,3.11 C20.94,2.52 20.48,2 19.88,2 Z M11.37,15.99 C11.37,16.23 11.26,16.45 11.07,16.59 C10.94,16.69 10.78,16.74 10.62,16.74 C10.55,16.74 10.48,16.73 10.41,16.71 L7.29,15.81 C6.89,15.69 6.66,15.28 6.78,14.88 C6.89,14.48 7.31,14.26 7.71,14.37 L9.87,14.99 L9.87,7.01 C9.87,6.6 10.21,6.26 10.62,6.26 C11.03,6.26 11.37,6.6 11.37,7.01 L11.37,15.99 Z M17.25,15.1 C17.25,15.44 17.02,15.74 16.68,15.83 L13.08,16.73 C13.02,16.75 12.96,16.75 12.9,16.75 C12.56,16.75 12.26,16.52 12.17,16.18 C12.07,15.78 12.31,15.37 12.72,15.27 L15.75,14.51 L15.75,12.81 L13.46,13.14 C13.24,13.17 13.03,13.11 12.86,12.96 C12.7,12.82 12.6,12.61 12.6,12.39 L12.6,7.44 C12.6,7.07 12.87,6.75 13.24,6.7 L16.39,6.25 C16.8,6.19 17.18,6.48 17.24,6.89 C17.3,7.3 17.01,7.68 16.6,7.74 L14.09,8.1 L14.09,11.53 L16.38,11.2 C16.6,11.17 16.81,11.23 16.98,11.38 C17.14,11.52 17.24,11.73 17.24,11.95 L17.24,15.1 L17.25,15.1 Z"/>
</svg>

