<svg xmlns="http://www.w3.org/2000/svg" width="24" height="24" viewBox="0 0 24 24">
  <defs/>
  <path fill="#17191C" d="M4.1,1.25 L19.9,1.25 Q20.683,1.25 21.21,1.812 Q21.767,2.406 21.644,3.201 L19.849,19.347 Q19.824,20.327 18.736,20.871 Q18.671,20.903 18.601,20.922 L12.564,22.605 Q11.923,22.896 11.453,22.582 L5.508,20.925 Q4.273,20.611 4.251,19.347 L2.355,3.187 Q2.35,3.144 2.35,3.1 Q2.35,1.25 4.1,1.25 Z M4.1,2.75 Q4,2.75 3.94,2.819 Q3.859,2.911 3.851,3.064 L5.745,19.213 Q5.75,19.256 5.75,19.3 Q5.75,19.439 5.882,19.472 Q5.892,19.475 5.901,19.478 L12.001,21.178 Q12.026,21.184 12.05,21.193 Q12.074,21.184 12.099,21.178 L18.124,19.498 Q18.35,19.377 18.35,19.3 Q18.35,19.258 18.355,19.217 L20.155,3.017 Q20.157,2.997 20.16,2.977 Q20.173,2.9 20.115,2.838 Q20.033,2.75 19.9,2.75 Z M12.132,21.227 Q12.242,21.281 12.33,21.37 Q12.223,21.263 12.132,21.227 Z"/>
  <path fill="#17191C" d="M11.35,7 L11.35,16 Q11.35,16.311 11.13,16.53 Q10.911,16.75 10.6,16.75 Q10.493,16.75 10.391,16.72 L7.291,15.82 Q6.993,15.734 6.843,15.461 Q6.693,15.189 6.78,14.891 Q6.866,14.593 7.139,14.443 Q7.411,14.293 7.709,14.38 L9.85,15.001 L9.85,7 Q9.85,6.689 10.07,6.47 Q10.289,6.25 10.6,6.25 Q10.911,6.25 11.13,6.47 Q11.35,6.689 11.35,7 Z"/>
  <path fill="#17191C" d="M16.596,7.744 L14.15,8.059 L14.15,11.519 L16.38,11.16 Q16.687,11.11 16.939,11.292 Q17.191,11.474 17.24,11.781 Q17.25,11.84 17.25,11.9 L17.25,15.1 Q17.25,15.686 16.682,15.828 L13.082,16.728 Q12.78,16.803 12.514,16.643 Q12.248,16.483 12.172,16.182 Q12.097,15.881 12.257,15.614 Q12.417,15.348 12.718,15.272 L15.75,14.514 L15.75,12.781 L13.519,13.14 Q13.46,13.15 13.4,13.15 Q13.089,13.15 12.87,12.93 Q12.65,12.711 12.65,12.4 L12.65,7.4 Q12.65,7.117 12.837,6.905 Q13.023,6.692 13.304,6.656 L16.404,6.256 Q16.712,6.216 16.958,6.406 Q17.204,6.596 17.244,6.904 Q17.283,7.212 17.094,7.458 Q16.904,7.704 16.596,7.744 Z"/>
</svg>

