<svg xmlns="http://www.w3.org/2000/svg" width="24" height="24" viewBox="0 0 24 24">
  <defs/>
  <path d="M11.37,7.01 L11.37,15.99 Q11.37,16.301 11.15,16.52 Q10.931,16.74 10.62,16.74 Q10.514,16.74 10.412,16.711 L7.292,15.811 Q6.994,15.725 6.843,15.453 Q6.693,15.181 6.779,14.882 Q6.865,14.584 7.137,14.433 Q7.409,14.283 7.708,14.369 L9.87,14.993 L9.87,7.01 Q9.87,6.699 10.09,6.48 Q10.309,6.26 10.62,6.26 Q10.931,6.26 11.15,6.48 Q11.37,6.699 11.37,7.01 Z"/>
  <path d="M16.606,7.742 L14.1,8.1 L14.1,11.535 L16.394,11.208 Q16.702,11.164 16.95,11.35 Q17.199,11.536 17.243,11.844 Q17.25,11.897 17.25,11.95 L17.25,15.1 Q17.25,15.686 16.682,15.828 L13.082,16.728 Q12.781,16.803 12.515,16.643 Q12.248,16.483 12.173,16.182 Q12.097,15.881 12.257,15.614 Q12.417,15.348 12.718,15.272 L15.75,14.514 L15.75,12.815 L13.456,13.142 Q13.404,13.15 13.35,13.15 Q13.04,13.15 12.82,12.93 Q12.6,12.711 12.6,12.4 L12.6,7.45 Q12.6,7.17 12.784,6.959 Q12.967,6.747 13.244,6.708 L16.394,6.258 Q16.702,6.214 16.95,6.4 Q17.199,6.586 17.243,6.894 Q17.287,7.201 17.1,7.45 Q16.914,7.699 16.606,7.742 Z"/>
  <path d="M2.575,4.993 L2.375,3.193 Q2.283,2.42 2.809,1.833 Q3.332,1.25 4.11,1.25 L19.88,1.25 Q20.666,1.25 21.187,1.835 Q21.707,2.42 21.615,3.198 L19.816,19.413 Q19.699,20.579 18.554,20.902 L12.477,22.641 Q11.995,22.775 11.519,22.643 L5.434,20.901 Q4.322,20.587 4.176,19.423 L3.075,9.493 Q3.041,9.184 3.235,8.941 Q3.429,8.699 3.738,8.665 Q4.046,8.63 4.289,8.824 Q4.531,9.019 4.566,9.327 L5.664,19.237 Q5.687,19.414 5.847,19.459 L11.921,21.197 Q11.995,21.218 12.064,21.199 L18.147,19.458 Q18.308,19.413 18.325,19.247 L20.125,3.022 Q20.138,2.913 20.066,2.832 Q19.993,2.75 19.88,2.75 L4.11,2.75 Q4.002,2.75 3.926,2.834 Q3.853,2.917 3.866,3.027 L4.066,4.827 Q4.1,5.136 3.906,5.379 Q3.712,5.621 3.403,5.655 Q3.094,5.69 2.852,5.496 Q2.609,5.302 2.575,4.993 Z"/>
</svg>

