<svg xmlns="http://www.w3.org/2000/svg" width="24" height="24" viewBox="0 0 24 24">
  <defs/>
  <path d="M4.12,1.25 L19.89,1.25 Q20.676,1.25 21.197,1.835 Q21.717,2.42 21.625,3.198 L19.826,19.413 Q19.709,20.579 18.564,20.902 L12.486,22.641 Q12.005,22.775 11.529,22.643 L5.444,20.901 Q4.331,20.587 4.186,19.423 L2.385,3.193 Q2.293,2.42 2.814,1.835 Q3.334,1.25 4.12,1.25 Z M4.12,2.75 Q4.007,2.75 3.934,2.832 Q3.862,2.913 3.876,3.027 L5.674,19.237 Q5.696,19.414 5.856,19.459 L11.931,21.197 Q12.005,21.218 12.074,21.199 L18.157,19.458 Q18.318,19.413 18.335,19.247 L20.135,3.022 Q20.148,2.913 20.076,2.832 Q20.003,2.75 19.89,2.75 Z"/>
  <path opacity="0.4" d="M11.37,7.01 L11.37,15.99 Q11.37,16.3 11.15,16.52 Q10.931,16.74 10.62,16.74 Q10.514,16.74 10.412,16.71 L7.292,15.81 Q6.994,15.724 6.843,15.452 Q6.693,15.18 6.779,14.882 Q6.865,14.583 7.137,14.433 Q7.409,14.283 7.708,14.369 L9.87,14.993 L9.87,7.01 Q9.87,6.699 10.09,6.479 Q10.309,6.26 10.62,6.26 Q10.931,6.26 11.15,6.479 Q11.37,6.699 11.37,7.01 Z"/>
  <path opacity="0.4" d="M16.606,7.742 L14.1,8.1 L14.1,11.535 L16.394,11.208 Q16.702,11.164 16.95,11.35 Q17.199,11.536 17.243,11.844 Q17.25,11.897 17.25,11.95 L17.25,15.1 Q17.25,15.686 16.682,15.828 L13.082,16.728 Q12.781,16.803 12.515,16.643 Q12.248,16.483 12.173,16.182 Q12.097,15.881 12.257,15.614 Q12.417,15.348 12.718,15.272 L15.75,14.514 L15.75,12.815 L13.456,13.142 Q13.404,13.15 13.35,13.15 Q13.04,13.15 12.82,12.93 Q12.6,12.711 12.6,12.4 L12.6,7.45 Q12.6,7.17 12.784,6.959 Q12.967,6.747 13.244,6.708 L16.394,6.258 Q16.702,6.214 16.95,6.4 Q17.199,6.586 17.243,6.894 Q17.287,7.201 17.1,7.45 Q16.914,7.699 16.606,7.742 Z"/>
</svg>

