<svg xmlns="http://www.w3.org/2000/svg" width="24" height="24" viewBox="0 0 24 24">
  <defs/>
  <path fill="white" opacity="0.58" d="M24,0 L0,0 L0,24 L24,24 L24,0 Z"/>
  <path fill="#292D32" d="M12,22.61 C11.71,22.61 11.42,22.54 11.15,22.39 L9.67,21.68 C9.3,21.5 9.14,21.05 9.32,20.68 C9.5,20.31 9.94,20.15 10.32,20.33 L11.83,21.06 C11.94,21.12 12.04,21.12 12.11,21.08 L20.11,16.64 C20.19,16.6 20.24,16.51 20.24,16.42 L20.24,7.6 C20.24,7.51 20.19,7.43 20.11,7.38 L12.11,2.94 C12.03,2.9 11.94,2.9 11.87,2.94 L3.87,7.38 C3.79,7.42 3.74,7.51 3.74,7.6 L3.74,16.42 C3.74,16.51 3.79,16.59 3.87,16.64 L6.38,18.03 C6.77,18.25 7.23,18.24 7.62,18.01 C8.01,17.78 8.24,17.38 8.24,16.93 L8.25,9 C8.25,8.59 8.59,8.25 9,8.25 C9.41,8.25 9.75,8.59 9.75,9 L9.74,16.93 C9.74,17.91 9.23,18.8 8.38,19.3 C7.53,19.8 6.51,19.81 5.65,19.33 L3.14,17.94 C2.58,17.63 2.24,17.04 2.24,16.41 L2.24,7.59 C2.24,6.96 2.58,6.37 3.14,6.06 L11.14,1.62 C11.67,1.32 12.31,1.32 12.84,1.62 L20.84,6.06 C21.4,6.37 21.74,6.96 21.74,7.59 L21.74,16.41 C21.74,17.04 21.4,17.63 20.84,17.94 L12.84,22.38 C12.58,22.53 12.29,22.61 12,22.61 Z"/>
  <path fill="#292D32" opacity="0.4" d="M15.25,16.75 L13.5,16.75 C12.12,16.75 11,15.63 11,14.25 C11,13.84 11.34,13.5 11.75,13.5 C12.16,13.5 12.5,13.84 12.5,14.25 C12.5,14.8 12.95,15.25 13.5,15.25 L15.25,15.25 C15.8,15.25 16.25,14.8 16.25,14.25 C16.25,13.7 15.8,13.25 15.25,13.25 L13.5,13.25 C12.12,13.25 11,12.13 11,10.75 C11,9.37 12.12,8.25 13.5,8.25 L15.25,8.25 C16.63,8.25 17.75,9.37 17.75,10.75 C17.75,11.16 17.41,11.5 17,11.5 C16.59,11.5 16.25,11.16 16.25,10.75 C16.25,10.2 15.8,9.75 15.25,9.75 L13.5,9.75 C12.95,9.75 12.5,10.2 12.5,10.75 C12.5,11.3 12.95,11.75 13.5,11.75 L15.25,11.75 C16.63,11.75 17.75,12.87 17.75,14.25 C17.75,15.63 16.63,16.75 15.25,16.75 Z"/>
</svg>

