<svg xmlns="http://www.w3.org/2000/svg" width="24" height="24" viewBox="0 0 24 24">
  <defs/>
  <path d="M11.14,1.618 Q11.995,1.133 12.85,1.618 L20.844,6.054 Q21.74,6.558 21.74,7.58 L21.74,16.4 Q21.74,17.435 20.841,17.928 L12.844,22.366 Q12.009,22.839 11.168,22.378 L9.681,21.679 Q9.4,21.547 9.294,21.254 Q9.189,20.962 9.321,20.681 Q9.453,20.4 9.746,20.295 Q10.038,20.189 10.319,20.321 L11.829,21.031 Q11.855,21.044 11.88,21.058 Q11.995,21.123 12.116,21.054 L20.119,16.612 Q20.24,16.546 20.24,16.4 L20.24,7.58 Q20.24,7.436 20.116,7.366 L12.11,2.923 Q11.995,2.857 11.88,2.923 Q11.609,3.076 11.31,2.993 Q11.011,2.91 10.857,2.64 Q10.704,2.37 10.787,2.07 Q10.87,1.771 11.14,1.618 Z"/>
  <path d="M9.75,9.001 L9.74,16.931 Q9.74,18.499 8.385,19.298 Q7.028,20.099 5.655,19.335 L3.147,17.946 Q2.25,17.442 2.25,16.42 L2.25,7.6 Q2.25,6.566 3.149,6.072 L6.845,4.015 Q7.117,3.864 7.415,3.949 Q7.714,4.034 7.865,4.305 Q8.016,4.577 7.931,4.875 Q7.846,5.174 7.575,5.325 L3.871,7.388 Q3.75,7.454 3.75,7.6 L3.75,16.42 Q3.75,16.564 3.873,16.634 L6.385,18.025 Q7.006,18.37 7.623,18.006 Q8.24,17.642 8.24,16.929 L8.25,8.999 Q8.25,8.688 8.47,8.469 Q8.69,8.25 9.001,8.25 Q9.312,8.25 9.531,8.47 Q9.75,8.69 9.75,9.001 Z"/>
  <path d="M16.25,10.75 Q16.25,9.75 15.25,9.75 L13.5,9.75 Q12.5,9.75 12.5,10.75 Q12.5,11.75 13.5,11.75 L15.25,11.75 Q16.288,11.75 17.019,12.481 Q17.75,13.212 17.75,14.25 Q17.75,16.75 15.25,16.75 L13.5,16.75 Q11,16.75 11,14.25 Q11,13.939 11.22,13.72 Q11.439,13.5 11.75,13.5 Q12.061,13.5 12.28,13.72 Q12.5,13.939 12.5,14.25 Q12.5,15.25 13.5,15.25 L15.25,15.25 Q16.25,15.25 16.25,14.25 Q16.25,13.25 15.25,13.25 L13.5,13.25 Q12.462,13.25 11.731,12.519 Q11,11.788 11,10.75 Q11,8.25 13.5,8.25 L15.25,8.25 Q17.75,8.25 17.75,10.75 Q17.75,11.061 17.53,11.28 Q17.311,11.5 17,11.5 Q16.689,11.5 16.47,11.28 Q16.25,11.061 16.25,10.75 Z"/>
</svg>

