<svg xmlns="http://www.w3.org/2000/svg" width="24" height="24" viewBox="0 0 24 24">
  <defs/>
  <path fill="#17191C" d="M9.75,9 L9.75,16.9 Q9.75,18.47 8.405,19.259 Q7.042,20.059 5.628,19.251 L3.188,17.885 Q2.25,17.53 2.25,16.4 L2.25,7.6 Q2.25,6.632 3.084,6.076 Q3.111,6.058 3.139,6.043 L11.113,1.657 Q12,1.084 12.887,1.657 L20.861,6.043 Q20.889,6.058 20.916,6.076 Q21.75,6.632 21.75,7.6 L21.75,16.4 Q21.75,17.368 20.916,17.924 Q20.889,17.942 20.861,17.957 L12.887,22.343 Q12.012,22.908 11.136,22.358 L9.683,21.68 Q9.401,21.548 9.295,21.256 Q9.189,20.964 9.32,20.683 Q9.452,20.401 9.744,20.295 Q10.036,20.189 10.317,20.32 L11.817,21.02 Q11.869,21.044 11.916,21.076 Q12,21.132 12.084,21.076 Q12.111,21.058 12.139,21.043 L20.105,16.661 Q20.25,16.555 20.25,16.4 L20.25,7.6 Q20.25,7.445 20.105,7.338 L12.139,2.957 Q12.111,2.942 12.084,2.924 Q12,2.868 11.916,2.924 Q11.889,2.942 11.861,2.957 L3.895,7.338 Q3.75,7.445 3.75,7.6 L3.75,16.4 L3.737,16.488 Q3.805,16.511 3.866,16.546 L6.372,17.949 Q7.032,18.326 7.645,17.966 Q8.25,17.611 8.25,16.9 L8.25,9 Q8.25,8.689 8.47,8.47 Q8.689,8.25 9,8.25 Q9.311,8.25 9.53,8.47 Q9.75,8.689 9.75,9 Z"/>
  <path fill="#17191C" d="M16.25,10.8 Q16.25,9.75 15.3,9.75 L13.5,9.75 Q12.55,9.75 12.55,10.7 Q12.55,11.65 13.5,11.65 L15.3,11.65 Q16.352,11.65 17.066,12.393 Q17.75,13.106 17.75,14.1 Q17.75,15.153 17.007,15.866 Q16.294,16.55 15.3,16.55 L13.5,16.55 Q12.447,16.55 11.734,15.807 Q11.05,15.094 11.05,14.1 Q11.05,13.789 11.269,13.57 Q11.489,13.35 11.8,13.35 Q12.11,13.35 12.33,13.57 Q12.55,13.789 12.55,14.1 Q12.55,15.05 13.5,15.05 L15.3,15.05 Q15.691,15.05 15.968,14.784 Q16.25,14.513 16.25,14.1 Q16.25,13.15 15.3,13.15 L13.5,13.15 Q11.05,13.15 11.05,10.7 Q11.05,9.706 11.734,8.993 Q12.447,8.25 13.5,8.25 L15.3,8.25 Q17.75,8.25 17.75,10.8 Q17.75,11.111 17.53,11.33 Q17.31,11.55 17,11.55 Q16.689,11.55 16.469,11.33 Q16.25,11.111 16.25,10.8 Z"/>
</svg>

