<svg xmlns="http://www.w3.org/2000/svg" width="24" height="24" viewBox="0 0 24 24">
  <defs/>
  <path d="M9.75,9.001 L9.74,16.931 Q9.74,18.499 8.385,19.299 Q7.028,20.099 5.655,19.335 L3.147,17.946 Q2.25,17.442 2.25,16.42 L2.25,7.6 Q2.25,6.566 3.149,6.072 L11.146,1.634 Q11.995,1.153 12.85,1.638 L20.844,6.074 Q21.74,6.578 21.74,7.6 L21.74,16.42 Q21.74,17.455 20.841,17.948 L12.844,22.386 Q12.007,22.86 11.164,22.396 L9.674,21.675 Q9.394,21.54 9.292,21.247 Q9.19,20.953 9.325,20.674 Q9.46,20.394 9.753,20.292 Q10.047,20.19 10.326,20.325 L11.836,21.055 Q11.858,21.066 11.88,21.078 Q11.995,21.143 12.116,21.074 L20.119,16.632 Q20.24,16.566 20.24,16.42 L20.24,7.6 Q20.24,7.456 20.116,7.386 L12.11,2.943 Q11.995,2.877 11.874,2.946 L3.871,7.388 Q3.75,7.454 3.75,7.6 L3.75,16.42 Q3.75,16.565 3.873,16.634 L6.385,18.025 Q7.006,18.37 7.623,18.007 Q8.24,17.642 8.24,16.929 L8.25,8.999 Q8.25,8.688 8.47,8.469 Q8.69,8.25 9.001,8.25 Q9.312,8.25 9.531,8.47 Q9.75,8.69 9.75,9.001 Z"/>
  <path opacity="0.4" d="M16.25,10.75 Q16.25,9.75 15.25,9.75 L13.5,9.75 Q12.5,9.75 12.5,10.75 Q12.5,11.75 13.5,11.75 L15.25,11.75 Q16.288,11.75 17.019,12.481 Q17.75,13.212 17.75,14.25 Q17.75,16.75 15.25,16.75 L13.5,16.75 Q11,16.75 11,14.25 Q11,13.939 11.22,13.72 Q11.439,13.5 11.75,13.5 Q12.061,13.5 12.28,13.72 Q12.5,13.939 12.5,14.25 Q12.5,15.25 13.5,15.25 L15.25,15.25 Q16.25,15.25 16.25,14.25 Q16.25,13.25 15.25,13.25 L13.5,13.25 Q12.462,13.25 11.731,12.519 Q11,11.788 11,10.75 Q11,8.25 13.5,8.25 L15.25,8.25 Q17.75,8.25 17.75,10.75 Q17.75,11.061 17.53,11.28 Q17.311,11.5 17,11.5 Q16.689,11.5 16.47,11.28 Q16.25,11.061 16.25,10.75 Z"/>
</svg>

