<svg xmlns="http://www.w3.org/2000/svg" width="24" height="24" viewBox="0 0 24 24">
  <defs/>
  <path fill="#292D32" d="M19.48,19.04 L14.53,14.09 Q14.311,13.871 14.311,13.56 Q14.311,13.249 14.53,13.03 Q14.75,12.81 15.06,12.81 Q15.371,12.81 15.591,13.03 L20.541,17.98 Q20.76,18.199 20.76,18.51 Q20.76,18.821 20.541,19.04 Q20.321,19.26 20.01,19.26 Q19.7,19.26 19.48,19.04 Z"/>
  <path fill="#292D32" d="M19.131,6.67 Q19.936,7.474 19.936,8.615 Q19.936,9.756 19.131,10.56 L15.591,14.1 Q15.371,14.32 15.06,14.32 Q14.75,14.32 14.53,14.1 Q14.31,13.881 14.31,13.57 Q14.311,13.259 14.53,13.04 L18.07,9.5 Q18.436,9.134 18.436,8.615 Q18.436,8.096 18.07,7.73 Q17.851,7.511 17.851,7.2 Q17.851,6.889 18.07,6.67 Q18.29,6.45 18.601,6.45 Q18.911,6.45 19.131,6.67 Z"/>
  <path fill="#292D32" d="M15.591,14.09 L12.051,17.63 Q11.246,18.435 10.105,18.435 Q8.965,18.435 8.16,17.63 L3.92,13.39 Q1.975,11.445 3.92,9.5 L10.99,2.43 Q12.935,0.484 14.881,2.43 L16.341,3.89 Q16.56,4.109 16.56,4.42 Q16.56,4.731 16.341,4.95 Q16.121,5.17 15.81,5.17 Q15.5,5.17 15.28,4.95 L13.82,3.49 Q13.378,3.048 12.935,3.048 Q12.493,3.048 12.051,3.49 L4.981,10.56 Q4.096,11.445 4.981,12.33 L9.221,16.57 Q10.105,17.454 10.99,16.57 L14.53,13.03 Q14.75,12.81 15.06,12.81 Q15.371,12.81 15.591,13.03 Q15.81,13.249 15.81,13.56 Q15.81,13.871 15.591,14.09 Z"/>
  <path fill="#292D32" d="M2,20.25 L8,20.25 Q8.311,20.25 8.53,20.47 Q8.75,20.689 8.75,21 Q8.75,21.311 8.53,21.53 Q8.311,21.75 8,21.75 L2,21.75 Q1.689,21.75 1.47,21.53 Q1.25,21.311 1.25,21 Q1.25,20.689 1.47,20.47 Q1.689,20.25 2,20.25 Z"/>
  <path fill="#292D32" d="M7.091,7.39 L14.161,14.46 Q14.381,14.679 14.381,14.99 Q14.381,15.301 14.161,15.52 Q13.941,15.74 13.631,15.74 Q13.32,15.74 13.1,15.52 L6.03,8.45 Q5.811,8.231 5.811,7.92 Q5.811,7.609 6.03,7.39 Q6.25,7.17 6.561,7.17 Q6.871,7.17 7.091,7.39 Z"/>
</svg>

