<svg xmlns="http://www.w3.org/2000/svg" width="24" height="24" viewBox="0 0 24 24">
  <defs/>
  <path fill="#292D32" d="M20.539,19.041 C20.389,19.191 20.199,19.261 20.009,19.261 C19.819,19.261 19.629,19.191 19.479,19.041 L14.529,14.091 L15.059,13.561 L15.589,13.031 L20.539,17.981 C20.829,18.271 20.829,18.751 20.539,19.041 Z"/>
  <path fill="#292D32" d="M6.469,9.278 L12.269,15.078 C12.659,15.468 12.659,16.098 12.269,16.488 L11.369,17.398 C10.559,18.198 9.279,18.198 8.479,17.398 L4.139,13.058 C3.349,12.268 3.349,10.978 4.139,10.178 L5.049,9.268 C5.439,8.888 6.079,8.888 6.469,9.278 Z"/>
  <path fill="#292D32" d="M18.59,10.19 L14.78,13.99 C14.38,14.39 13.74,14.39 13.34,13.99 L7.56,8.21 C7.16,7.81 7.16,7.17 7.56,6.77 L11.37,2.96 C12.16,2.17 13.45,2.17 14.25,2.96 L18.59,7.3 C19.38,8.1 19.38,9.38 18.59,10.19 Z"/>
  <path fill="#292D32" d="M8,21.75 L2,21.75 C1.59,21.75 1.25,21.41 1.25,21 C1.25,20.59 1.59,20.25 2,20.25 L8,20.25 C8.41,20.25 8.75,20.59 8.75,21 C8.75,21.41 8.41,21.75 8,21.75 Z"/>
</svg>

