<svg xmlns="http://www.w3.org/2000/svg" width="24" height="24" viewBox="0 0 24 24">
  <defs/>
  <path fill="#292D32" d="M19.48,19.04 L14.53,14.09 Q14.31,13.871 14.31,13.56 Q14.31,13.249 14.53,13.03 Q14.749,12.81 15.06,12.81 Q15.371,12.81 15.59,13.03 L20.54,17.98 Q20.76,18.199 20.76,18.51 Q20.76,18.821 20.54,19.04 Q20.321,19.26 20.01,19.26 Q19.699,19.26 19.48,19.04 Z"/>
  <path fill="#292D32" d="M15.59,14.09 L12.05,17.63 Q10.105,19.576 8.16,17.63 L3.92,13.39 Q1.974,11.445 3.92,9.5 L10.99,2.43 Q12.935,0.484 14.88,2.43 L19.12,6.67 Q19.925,7.474 19.925,8.615 Q19.925,9.756 19.12,10.56 Z M14.53,13.03 L18.06,9.5 Q18.425,9.134 18.425,8.615 Q18.425,8.096 18.06,7.73 L13.82,3.49 Q12.935,2.606 12.05,3.49 L4.98,10.56 Q4.538,11.003 4.538,11.445 Q4.538,11.887 4.98,12.33 L9.22,16.57 Q10.105,17.454 10.99,16.57 Z"/>
  <path fill="#292D32" d="M2,20.25 L8,20.25 Q8.311,20.25 8.53,20.47 Q8.75,20.689 8.75,21 Q8.75,21.311 8.53,21.53 Q8.311,21.75 8,21.75 L2,21.75 Q1.689,21.75 1.47,21.53 Q1.25,21.311 1.25,21 Q1.25,20.689 1.47,20.47 Q1.689,20.25 2,20.25 Z"/>
  <path fill="#292D32" d="M7.09,7.39 L14.16,14.46 Q14.38,14.679 14.38,14.99 Q14.38,15.301 14.16,15.52 Q13.941,15.74 13.63,15.74 Q13.319,15.74 13.1,15.52 L6.03,8.45 Q5.81,8.231 5.81,7.92 Q5.81,7.609 6.03,7.39 Q6.249,7.17 6.56,7.17 Q6.871,7.17 7.09,7.39 Z"/>
</svg>

