<svg xmlns="http://www.w3.org/2000/svg" width="24" height="24" viewBox="0 0 24 24">
  <defs/>
  <path fill="#292D32" d="M20.01,19.26 C19.82,19.26 19.63,19.19 19.48,19.04 L14.53,14.09 C14.24,13.8 14.24,13.32 14.53,13.03 C14.82,12.74 15.3,12.74 15.59,13.03 L20.54,17.98 C20.83,18.27 20.83,18.75 20.54,19.04 C20.39,19.19 20.2,19.26 20.01,19.26 Z"/>
  <path fill="#292D32" d="M10.11,18.43 C9.379,18.43 8.679,18.14 8.169,17.62 L3.929,13.38 C2.859,12.31 2.859,10.56 3.929,9.49 L10.999,2.42 C12.069,1.35 13.819,1.35 14.889,2.42 L19.13,6.66 C19.649,7.18 19.939,7.87 19.939,8.6 C19.939,9.33 19.649,10.03 19.13,10.54 L12.059,17.61 C11.54,18.15 10.85,18.43 10.11,18.43 Z M12.94,3.12 C12.62,3.12 12.3,3.24 12.059,3.49 L4.989,10.56 C4.499,11.05 4.499,11.84 4.989,12.33 L9.229,16.57 C9.699,17.04 10.52,17.04 10.999,16.57 L18.07,9.5 C18.309,9.26 18.439,8.95 18.439,8.62 C18.439,8.29 18.309,7.97 18.07,7.74 L13.829,3.5 C13.579,3.24 13.259,3.12 12.94,3.12 Z"/>
  <path fill="#292D32" d="M8,21.75 L2,21.75 C1.59,21.75 1.25,21.41 1.25,21 C1.25,20.59 1.59,20.25 2,20.25 L8,20.25 C8.41,20.25 8.75,20.59 8.75,21 C8.75,21.41 8.41,21.75 8,21.75 Z"/>
  <path fill="#292D32" d="M13.63,15.74 C13.44,15.74 13.25,15.67 13.1,15.52 L6.03,8.45 C5.74,8.16 5.74,7.68 6.03,7.39 C6.32,7.1 6.8,7.1 7.09,7.39 L14.16,14.46 C14.45,14.75 14.45,15.23 14.16,15.52 C14.02,15.67 13.82,15.74 13.63,15.74 Z"/>
</svg>

