<svg xmlns="http://www.w3.org/2000/svg" width="24" height="24" viewBox="0 0 24 24">
  <defs/>
  <path fill="#292D32" d="M20.539,19.04 C20.389,19.19 20.199,19.26 20.009,19.26 C19.819,19.26 19.629,19.19 19.479,19.04 L14.529,14.09 L15.059,13.56 L15.589,13.03 L20.539,17.98 C20.829,18.27 20.829,18.75 20.539,19.04 Z"/>
  <path fill="#292D32" opacity="0.4" d="M6.469,9.28 L12.269,15.08 C12.659,15.47 12.659,16.1 12.269,16.49 L11.369,17.4 C10.559,18.2 9.279,18.2 8.479,17.4 L4.139,13.06 C3.349,12.27 3.349,10.98 4.139,10.18 L5.049,9.27 C5.439,8.89 6.079,8.89 6.469,9.28 Z"/>
  <path fill="#292D32" d="M18.59,10.19 L14.78,13.99 C14.38,14.39 13.739,14.39 13.339,13.99 L7.57,8.22 C7.17,7.82 7.17,7.18 7.57,6.78 L11.38,2.97 C12.169,2.18 13.46,2.18 14.259,2.97 L18.599,7.31 C19.38,8.1 19.38,9.38 18.59,10.19 Z"/>
  <path fill="#292D32" d="M8,21.75 L2,21.75 C1.59,21.75 1.25,21.41 1.25,21 C1.25,20.59 1.59,20.25 2,20.25 L8,20.25 C8.41,20.25 8.75,20.59 8.75,21 C8.75,21.41 8.41,21.75 8,21.75 Z"/>
</svg>

