<svg xmlns="http://www.w3.org/2000/svg" width="24" height="24" viewBox="0 0 24 24">
  <defs/>
  <path fill="#292D32" d="M15,22.75 L9,22.75 C3.57,22.75 1.25,20.43 1.25,15 L1.25,9 C1.25,3.57 3.57,1.25 9,1.25 L15,1.25 C20.43,1.25 22.75,3.57 22.75,9 L22.75,15 C22.75,20.43 20.43,22.75 15,22.75 Z M9,2.75 C4.39,2.75 2.75,4.39 2.75,9 L2.75,15 C2.75,19.61 4.39,21.25 9,21.25 L15,21.25 C19.61,21.25 21.25,19.61 21.25,15 L21.25,9 C21.25,4.39 19.61,2.75 15,2.75 L9,2.75 Z"/>
  <path fill="#292D32" d="M8.81,18.25 C8.74,18.25 8.66,18.25 8.59,18.23 L7.4,18.07 C6.68,17.97 6.05,17.35 5.94,16.61 L5.77,15.4 C5.7,14.92 5.9,14.31 6.25,13.95 L8.53,11.67 C8.19,10.05 8.68,8.37 9.87,7.19 C11.78,5.28 14.9,5.28 16.81,7.19 C17.74,8.12 18.25,9.35 18.25,10.66 C18.25,11.97 17.74,13.21 16.81,14.13 C15.62,15.31 13.94,15.8 12.33,15.46 L10.04,17.74 C9.75,18.05 9.26,18.25 8.81,18.25 Z M13.34,7.25 C12.47,7.25 11.59,7.58 10.93,8.25 C10.03,9.15 9.71,10.46 10.08,11.68 C10.16,11.95 10.09,12.23 9.89,12.43 L7.31,15.01 C7.29,15.04 7.25,15.15 7.25,15.19 L7.42,16.39 C7.43,16.45 7.54,16.56 7.6,16.57 L8.8,16.74 C8.85,16.73 8.95,16.71 8.98,16.68 L11.57,14.09 C11.77,13.89 12.06,13.83 12.32,13.91 C13.53,14.29 14.84,13.97 15.74,13.07 C16.38,12.43 16.74,11.57 16.74,10.66 C16.74,9.75 16.39,8.89 15.74,8.25 C15.09,7.59 14.21,7.25 13.34,7.25 Z"/>
  <path fill="#292D32" d="M10.449,17.03 C10.259,17.03 10.069,16.96 9.919,16.81 L9.059,15.95 C8.769,15.66 8.769,15.18 9.059,14.89 C9.349,14.6 9.829,14.6 10.119,14.89 L10.979,15.75 C11.269,16.04 11.269,16.52 10.979,16.81 C10.839,16.96 10.649,17.03 10.449,17.03 Z"/>
  <path fill="#292D32" d="M13.379,11.8 C13.239,11.8 13.109,11.78 12.989,11.73 C12.869,11.68 12.759,11.6 12.669,11.51 C12.479,11.32 12.369,11.07 12.369,10.8 C12.369,10.54 12.479,10.28 12.669,10.1 C12.899,9.86 13.249,9.75 13.569,9.82 C13.629,9.84 13.699,9.85 13.759,9.88 C13.819,9.91 13.879,9.94 13.929,9.97 C13.979,10.01 14.039,10.05 14.079,10.1 C14.269,10.28 14.379,10.54 14.379,10.8 C14.379,10.94 14.349,11.06 14.299,11.19 C14.249,11.31 14.179,11.42 14.079,11.51 C13.889,11.7 13.639,11.8 13.379,11.8 Z"/>
</svg>

