<svg xmlns="http://www.w3.org/2000/svg" width="24" height="24" viewBox="0 0 24 24">
  <defs/>
  <path fill="#292D32" d="M13.25,12 C13.94,12 14.5,11.44 14.5,10.75 C14.5,10.06 13.94,9.5 13.25,9.5 C12.56,9.5 12,10.06 12,10.75 C12,11.44 12.56,12 13.25,12 Z"/>
  <path fill="#292D32" d="M16.19,2 L7.81,2 C4.17,2 2,4.17 2,7.81 L2,16.18 C2,19.83 4.17,22 7.81,22 L16.18,22 C19.82,22 21.99,19.83 21.99,16.19 L21.99,7.81 C22,4.17 19.83,2 16.19,2 Z M15.89,13.47 C14.86,14.49 13.39,14.81 12.09,14.4 L11.03,15.45 C10.94,15.54 10.78,15.54 10.68,15.45 L9.71,14.48 C9.57,14.34 9.33,14.34 9.18,14.48 C9.03,14.62 9.04,14.86 9.18,15.01 L10.15,15.98 C10.25,16.08 10.25,16.24 10.15,16.33 L9.74,16.74 C9.57,16.92 9.24,17.03 9,17 L7.91,16.85 C7.55,16.8 7.22,16.46 7.16,16.1 L7.01,15.01 C6.97,14.77 7.09,14.44 7.25,14.27 L9.6,11.92 C9.2,10.62 9.51,9.15 10.54,8.12 C12.01,6.65 14.41,6.65 15.89,8.12 C17.37,9.59 17.37,11.99 15.89,13.47 Z"/>
</svg>

