<svg xmlns="http://www.w3.org/2000/svg" width="24" height="24" viewBox="0 0 24 24">
  <defs/>
  <path fill="#292D32" opacity="0.4" d="M16.19,2 L7.81,2 C4.17,2 2,4.17 2,7.81 L2,16.18 C2,19.83 4.17,22 7.81,22 L16.18,22 C19.82,22 21.99,19.83 21.99,16.19 L21.99,7.81 C22,4.17 19.83,2 16.19,2 Z"/>
  <path fill="#292D32" d="M15.89,8.11 C14.41,6.64 12.01,6.64 10.54,8.11 C9.51,9.13 9.2,10.61 9.6,11.91 L7.25,14.26 C7.09,14.43 6.97,14.76 7.01,15 L7.16,16.09 C7.21,16.45 7.55,16.79 7.91,16.84 L9,17 C9.24,17.03 9.57,16.93 9.74,16.75 L10.15,16.34 C10.25,16.25 10.25,16.09 10.15,15.99 L9.18,15.02 C9.04,14.88 9.04,14.64 9.18,14.49 C9.32,14.35 9.56,14.35 9.71,14.49 L10.68,15.46 C10.77,15.55 10.93,15.55 11.03,15.46 L12.09,14.41 C13.38,14.81 14.86,14.5 15.89,13.48 C17.37,11.99 17.37,9.59 15.89,8.11 Z M13.25,12 C12.56,12 12,11.44 12,10.75 C12,10.06 12.56,9.5 13.25,9.5 C13.94,9.5 14.5,10.06 14.5,10.75 C14.5,11.44 13.94,12 13.25,12 Z"/>
</svg>

