<svg xmlns="http://www.w3.org/2000/svg" width="24" height="24" viewBox="0 0 24 24">
  <defs/>
  <path fill="#292D32" opacity="0.4" d="M19.791,4.22 C16.831,1.27 12.031,1.27 9.091,4.22 C7.021,6.27 6.401,9.22 7.201,11.82 L2.501,16.52 C2.171,16.86 1.941,17.53 2.011,18.01 L2.311,20.19 C2.421,20.91 3.091,21.59 3.811,21.69 L5.991,21.99 C6.471,22.06 7.141,21.84 7.481,21.49 L8.301,20.67 C8.501,20.48 8.501,20.16 8.301,19.96 L6.361,18.02 C6.071,17.73 6.071,17.25 6.361,16.96 C6.651,16.67 7.131,16.67 7.421,16.96 L9.371,18.91 C9.561,19.1 9.881,19.1 10.071,18.91 L12.191,16.8 C14.781,17.61 17.731,16.98 19.791,14.93 C22.741,11.98 22.741,7.17 19.791,4.22 Z M14.501,12 C13.121,12 12.001,10.88 12.001,9.5 C12.001,8.12 13.121,7 14.501,7 C15.881,7 17.001,8.12 17.001,9.5 C17.001,10.88 15.881,12 14.501,12 Z"/>
  <path fill="#292D32" d="M14.5,12 C15.881,12 17,10.881 17,9.5 C17,8.119 15.881,7 14.5,7 C13.119,7 12,8.119 12,9.5 C12,10.881 13.119,12 14.5,12 Z"/>
</svg>

