<svg xmlns="http://www.w3.org/2000/svg" width="24" height="24" viewBox="0 0 24 24">
  <defs/>
  <path fill="#292D32" d="M6.179,22.75 C6.079,22.75 5.969,22.74 5.879,22.73 L3.709,22.43 C2.669,22.29 1.729,21.36 1.569,20.3 L1.269,18.11 C1.169,17.41 1.469,16.5 1.969,15.99 L6.359,11.6 C5.649,8.76 6.469,5.76 8.559,3.69 C11.799,0.46 17.069,0.45 20.319,3.69 C21.889,5.26 22.749,7.35 22.749,9.57 C22.749,11.79 21.889,13.88 20.319,15.45 C18.219,17.53 15.229,18.35 12.409,17.63 L8.009,22.02 C7.589,22.46 6.839,22.75 6.179,22.75 Z M14.429,2.76 C12.679,2.76 10.939,3.42 9.609,4.75 C7.809,6.54 7.159,9.16 7.909,11.6 C7.989,11.87 7.919,12.15 7.719,12.35 L3.019,17.05 C2.849,17.22 2.709,17.66 2.739,17.89 L3.039,20.08 C3.099,20.46 3.509,20.89 3.889,20.94 L6.069,21.24 C6.309,21.28 6.749,21.14 6.919,20.97 L11.639,16.26 C11.839,16.06 12.129,16 12.389,16.08 C14.799,16.84 17.429,16.19 19.229,14.39 C20.509,13.11 21.219,11.39 21.219,9.57 C21.219,7.74 20.509,6.03 19.229,4.75 C17.929,3.43 16.179,2.76 14.429,2.76 Z"/>
  <path fill="#292D32" d="M9.19,20.54 C9,20.54 8.81,20.47 8.66,20.32 L6.36,18.02 C6.07,17.73 6.07,17.25 6.36,16.96 C6.65,16.67 7.13,16.67 7.42,16.96 L9.72,19.26 C10.01,19.55 10.01,20.03 9.72,20.32 C9.57,20.47 9.38,20.54 9.19,20.54 Z"/>
  <path fill="#292D32" d="M14.5,11.75 C13.26,11.75 12.25,10.74 12.25,9.5 C12.25,8.26 13.26,7.25 14.5,7.25 C15.74,7.25 16.75,8.26 16.75,9.5 C16.75,10.74 15.74,11.75 14.5,11.75 Z M14.5,8.75 C14.09,8.75 13.75,9.09 13.75,9.5 C13.75,9.91 14.09,10.25 14.5,10.25 C14.91,10.25 15.25,9.91 15.25,9.5 C15.25,9.09 14.91,8.75 14.5,8.75 Z"/>
</svg>

