<svg xmlns="http://www.w3.org/2000/svg" width="24" height="24" viewBox="0 0 24 24">
  <defs/>
  <path fill="#292D32" d="M19.789,4.22 C16.829,1.27 12.029,1.27 9.089,4.22 C7.019,6.27 6.399,9.22 7.199,11.82 L2.499,16.52 C2.169,16.86 1.939,17.53 2.009,18.01 L2.309,20.19 C2.419,20.91 3.089,21.59 3.809,21.69 L5.989,21.99 C6.469,22.06 7.139,21.84 7.479,21.49 L8.299,20.67 C8.499,20.48 8.499,20.16 8.299,19.96 L6.359,18.02 C6.069,17.73 6.069,17.25 6.359,16.96 C6.649,16.67 7.129,16.67 7.419,16.96 L9.369,18.91 C9.559,19.1 9.879,19.1 10.069,18.91 L12.189,16.8 C14.779,17.61 17.729,16.98 19.789,14.93 C22.739,11.98 22.739,7.17 19.789,4.22 Z M14.499,12 C13.119,12 11.999,10.88 11.999,9.5 C11.999,8.12 13.119,7 14.499,7 C15.879,7 16.999,8.12 16.999,9.5 C16.999,10.88 15.879,12 14.499,12 Z"/>
</svg>

