<svg xmlns="http://www.w3.org/2000/svg" width="24" height="24" viewBox="0 0 24 24">
  <defs/>
  <path fill="#292D32" d="M9,22.75 Q1.25,22.75 1.25,15 L1.25,9 Q1.25,1.25 9,1.25 L15,1.25 Q22.75,1.25 22.75,9 L22.75,15 Q22.75,22.75 15,22.75 Z M9,21.25 L15,21.25 Q18.439,21.25 19.845,19.845 Q21.25,18.439 21.25,15 L21.25,9 Q21.25,2.75 15,2.75 L9,2.75 Q2.75,2.75 2.75,9 L2.75,15 Q2.75,18.439 4.155,19.845 Q5.561,21.25 9,21.25 Z"/>
  <g opacity="0.4">
    <path fill="#292D32" d="M16.81,14.14 Q14.872,16.078 12.32,15.478 L10.045,17.744 Q9.454,18.361 8.579,18.232 L7.39,18.073 Q6.127,17.915 5.928,16.624 L5.766,15.409 Q5.641,14.6 6.235,13.974 Q6.242,13.966 6.249,13.959 L8.523,11.685 Q7.934,9.124 9.859,7.199 Q11.294,5.765 13.33,5.765 Q15.366,5.765 16.808,7.198 Q18.244,8.625 18.244,10.662 Q18.244,12.696 16.811,14.138 Z M15.747,13.081 Q15.748,13.08 15.749,13.079 Q16.744,12.077 16.744,10.662 Q16.744,9.249 15.751,8.262 Q13.327,5.853 10.92,8.26 Q9.468,9.712 10.076,11.689 Q10.209,12.121 9.89,12.44 L7.319,15.011 Q7.236,15.102 7.253,15.21 L7.41,16.396 Q7.437,16.567 7.588,16.586 L8.799,16.748 Q8.908,16.764 8.965,16.704 Q8.972,16.696 8.98,16.688 L11.57,14.108 Q11.891,13.788 12.324,13.924 Q14.285,14.541 15.747,13.081 Z"/>
    <path fill="#292D32" d="M9.916,16.807 L9.066,15.947 Q8.848,15.726 8.85,15.416 Q8.851,15.105 9.072,14.886 Q9.293,14.668 9.604,14.67 Q9.915,14.672 10.133,14.893 L10.983,15.753 Q11.201,15.974 11.2,16.284 Q11.198,16.595 10.977,16.813 Q10.756,17.032 10.445,17.03 Q10.135,17.028 9.916,16.807 Z"/>
    <path fill="#292D32" d="M13.395,9.7 L13.404,9.7 Q13.818,9.7 14.111,9.993 Q14.404,10.286 14.404,10.7 Q14.404,11.114 14.111,11.407 Q13.818,11.7 13.404,11.7 L13.395,11.7 Q12.981,11.7 12.688,11.407 Q12.395,11.114 12.395,10.7 Q12.395,10.286 12.688,9.993 Q12.981,9.7 13.395,9.7 Z"/>
  </g>
</svg>

