<svg xmlns="http://www.w3.org/2000/svg" width="24" height="24" viewBox="0 0 24 24">
  <defs/>
  <path fill="#292D32" d="M7.5,3.25 L16.5,3.25 Q17.574,3.25 18.254,3.346 Q22.25,3.794 22.25,9 L22.25,15 Q22.25,20.206 18.254,20.654 Q17.574,20.75 16.5,20.75 L7.5,20.75 Q6.426,20.75 5.746,20.654 Q1.75,20.206 1.75,15 L1.75,9 Q1.75,3.794 5.746,3.346 Q6.426,3.25 7.5,3.25 Z M7.5,4.75 Q6.523,4.75 5.946,4.832 Q5.934,4.834 5.922,4.835 Q3.25,5.13 3.25,9 L3.25,15 Q3.25,18.87 5.922,19.165 Q5.934,19.166 5.946,19.168 Q6.523,19.25 7.5,19.25 L16.5,19.25 Q17.477,19.25 18.054,19.168 Q18.066,19.166 18.078,19.165 Q20.75,18.87 20.75,15 L20.75,9 Q20.75,5.13 18.078,4.835 Q18.066,4.834 18.054,4.832 Q17.477,4.75 16.5,4.75 Z"/>
  <path fill="#292D32" d="M13.5,9.25 L17,9.25 Q17.311,9.25 17.53,9.47 Q17.75,9.689 17.75,10 Q17.75,10.311 17.53,10.53 Q17.311,10.75 17,10.75 L13.5,10.75 Q13.189,10.75 12.97,10.53 Q12.75,10.311 12.75,10 Q12.75,9.689 12.97,9.47 Q13.189,9.25 13.5,9.25 Z"/>
  <path fill="#292D32" d="M7,14.75 L17,14.75 Q17.311,14.75 17.53,14.97 Q17.75,15.189 17.75,15.5 Q17.75,15.811 17.53,16.03 Q17.311,16.25 17,16.25 L7,16.25 Q6.689,16.25 6.47,16.03 Q6.25,15.811 6.25,15.5 Q6.25,15.189 6.47,14.97 Q6.689,14.75 7,14.75 Z"/>
  <path fill="#292D32" d="M10.095,9 L10.104,9 Q10.518,9 10.811,9.293 Q11.104,9.586 11.104,10 Q11.104,10.414 10.811,10.707 Q10.518,11 10.104,11 L10.095,11 Q9.68,11 9.387,10.707 Q9.095,10.414 9.095,10 Q9.095,9.586 9.387,9.293 Q9.68,9 10.095,9 Z"/>
  <path fill="#292D32" d="M7.095,9 L7.104,9 Q7.518,9 7.811,9.293 Q8.104,9.586 8.104,10 Q8.104,10.414 7.811,10.707 Q7.518,11 7.104,11 L7.095,11 Q6.68,11 6.387,10.707 Q6.095,10.414 6.095,10 Q6.095,9.586 6.387,9.293 Q6.68,9 7.095,9 Z"/>
</svg>

