<svg xmlns="http://www.w3.org/2000/svg" width="24" height="24" viewBox="0 0 24 24">
  <defs/>
  <path fill="#292D32" d="M17,22.75 L7,22.75 C6.59,22.75 6.25,22.41 6.25,22 C6.25,21.59 6.59,21.25 7,21.25 L17,21.25 C17.41,21.25 17.75,21.59 17.75,22 C17.75,22.41 17.41,22.75 17,22.75 Z"/>
  <path fill="#292D32" d="M18,2 L6,2 C3.79,2 2,3.79 2,6 L2,15 C2,17.21 3.79,19 6,19 L18,19 C20.21,19 22,17.21 22,15 L22,6 C22,3.79 20.21,2 18,2 Z M9.99,7.32 C10.55,7.32 11,7.77 11,8.32 C11,8.87 10.55,9.32 10,9.32 C9.45,9.32 9,8.87 9,8.32 C9,7.77 9.44,7.32 9.99,7.32 Z M6.84,7.32 C7.4,7.32 7.85,7.77 7.85,8.32 C7.85,8.87 7.4,9.32 6.85,9.32 C6.3,9.32 5.85,8.87 5.85,8.32 C5.85,7.77 6.28,7.32 6.84,7.32 Z M17.26,14.86 L6.76,14.86 C6.34,14.86 6,14.52 6,14.11 C6,13.7 6.33,13.36 6.74,13.36 L17.27,13.36 C17.68,13.36 18.02,13.7 18.02,14.11 C18.02,14.52 17.68,14.86 17.26,14.86 Z M17.26,9.07 L13.58,9.07 C13.17,9.07 12.83,8.73 12.83,8.32 C12.83,7.91 13.17,7.57 13.58,7.57 L17.26,7.57 C17.67,7.57 18.01,7.91 18.01,8.32 C18.01,8.73 17.68,9.07 17.26,9.07 Z"/>
</svg>

