<svg xmlns="http://www.w3.org/2000/svg" width="24" height="24" viewBox="0 0 24 24">
  <defs/>
  <path fill="#292D32" d="M7.26,1.25 L16.73,1.25 Q17.855,1.25 18.572,1.346 Q22.75,1.819 22.75,7.26 L22.75,13.58 Q22.75,19.021 18.572,19.494 Q17.855,19.59 16.73,19.59 L7.26,19.59 Q6.135,19.59 5.418,19.494 Q1.24,19.021 1.24,13.58 L1.24,7.26 Q1.24,1.819 5.418,1.346 Q6.135,1.25 7.26,1.25 Z M7.26,2.75 Q6.229,2.75 5.61,2.833 Q5.602,2.834 5.593,2.835 Q2.74,3.155 2.74,7.26 L2.74,13.58 Q2.74,17.685 5.593,18.005 Q5.602,18.006 5.61,18.007 Q6.229,18.09 7.26,18.09 L16.73,18.09 Q17.761,18.09 18.38,18.007 Q18.388,18.006 18.397,18.005 Q21.25,17.685 21.25,13.58 L21.25,7.26 Q21.25,3.155 18.397,2.835 Q18.388,2.834 18.38,2.833 Q17.761,2.75 16.73,2.75 Z"/>
  <path fill="#292D32" d="M13.58,7.57 L17.26,7.57 Q17.571,7.57 17.79,7.79 Q18.01,8.009 18.01,8.32 Q18.01,8.631 17.79,8.85 Q17.571,9.07 17.26,9.07 L13.58,9.07 Q13.269,9.07 13.05,8.85 Q12.83,8.631 12.83,8.32 Q12.83,8.009 13.05,7.79 Q13.269,7.57 13.58,7.57 Z"/>
  <path fill="#292D32" d="M6.74,13.36 L17.27,13.36 Q17.581,13.36 17.8,13.58 Q18.02,13.799 18.02,14.11 Q18.02,14.421 17.8,14.64 Q17.581,14.86 17.27,14.86 L6.74,14.86 Q6.429,14.86 6.21,14.64 Q5.99,14.421 5.99,14.11 Q5.99,13.799 6.21,13.58 Q6.429,13.36 6.74,13.36 Z"/>
  <path fill="#292D32" d="M7,21.25 L17,21.25 Q17.311,21.25 17.53,21.47 Q17.75,21.689 17.75,22 Q17.75,22.311 17.53,22.53 Q17.311,22.75 17,22.75 L7,22.75 Q6.689,22.75 6.47,22.53 Q6.25,22.311 6.25,22 Q6.25,21.689 6.47,21.47 Q6.689,21.25 7,21.25 Z"/>
  <path fill="#292D32" d="M7.195,7.3 L7.204,7.3 Q7.618,7.3 7.911,7.593 Q8.204,7.886 8.204,8.3 Q8.204,8.714 7.911,9.007 Q7.618,9.3 7.204,9.3 L7.195,9.3 Q6.78,9.3 6.488,9.007 Q6.195,8.714 6.195,8.3 Q6.195,7.886 6.488,7.593 Q6.78,7.3 7.195,7.3 Z"/>
  <path fill="#292D32" d="M10.495,7.3 L10.503,7.3 Q10.918,7.3 11.211,7.593 Q11.503,7.886 11.503,8.3 Q11.503,8.714 11.211,9.007 Q10.918,9.3 10.503,9.3 L10.495,9.3 Q10.08,9.3 9.787,9.007 Q9.495,8.714 9.495,8.3 Q9.495,7.886 9.787,7.593 Q10.08,7.3 10.495,7.3 Z"/>
</svg>

