<svg xmlns="http://www.w3.org/2000/svg" width="24" height="24" viewBox="0 0 24 24">
  <defs/>
  <path fill="#292D32" d="M16.5,20.75 L7.5,20.75 C6.75,20.75 6.2,20.72 5.73,20.65 C2.41,20.29 1.75,18.3 1.75,15 L1.75,9 C1.75,5.7 2.41,3.71 5.76,3.34 C6.2,3.28 6.75,3.25 7.5,3.25 L16.5,3.25 C17.25,3.25 17.8,3.28 18.27,3.35 C21.59,3.71 22.25,5.7 22.25,9 L22.25,15 C22.25,18.3 21.59,20.29 18.24,20.66 C17.8,20.72 17.25,20.75 16.5,20.75 Z M7.5,4.75 C6.82,4.75 6.34,4.78 5.95,4.83 C3.92,5.06 3.25,5.69 3.25,9 L3.25,15 C3.25,18.31 3.92,18.94 5.92,19.17 C6.34,19.23 6.82,19.25 7.5,19.25 L16.5,19.25 C17.18,19.25 17.66,19.22 18.05,19.17 C20.08,18.95 20.75,18.31 20.75,15 L20.75,9 C20.75,5.69 20.08,5.06 18.08,4.83 C17.66,4.77 17.18,4.75 16.5,4.75 L7.5,4.75 Z"/>
  <path fill="#292D32" d="M17,10.75 L13.5,10.75 C13.09,10.75 12.75,10.41 12.75,10 C12.75,9.59 13.09,9.25 13.5,9.25 L17,9.25 C17.41,9.25 17.75,9.59 17.75,10 C17.75,10.41 17.41,10.75 17,10.75 Z"/>
  <path fill="#292D32" d="M10.1,11 C9.55,11 9.1,10.55 9.1,10 C9.1,9.45 9.54,9 10.1,9 L10.11,9 C10.66,9 11.11,9.45 11.11,10 C11.11,10.55 10.66,11 10.1,11 Z"/>
  <path fill="#292D32" d="M7.1,11 C6.55,11 6.1,10.55 6.1,10 C6.1,9.45 6.54,9 7.1,9 C7.65,9 8.1,9.45 8.1,10 C8.1,10.55 7.66,11 7.1,11 Z"/>
  <path fill="#292D32" d="M17,16.25 L7.02,16.25 C6.61,16.25 6.26,15.91 6.26,15.5 C6.26,15.09 6.59,14.75 7,14.75 L17,14.75 C17.41,14.75 17.75,15.09 17.75,15.5 C17.75,15.91 17.41,16.25 17,16.25 Z"/>
</svg>

