<svg xmlns="http://www.w3.org/2000/svg" width="24" height="24" viewBox="0 0 24 24">
  <defs/>
  <path fill="#292D32" opacity="0.4" d="M18.27,3.35 C17.8,3.28 17.26,3.25 16.5,3.25 L7.5,3.25 C6.75,3.25 6.2,3.28 5.76,3.34 C2.41,3.71 1.75,5.7 1.75,9 L1.75,15 C1.75,18.3 2.41,20.29 5.73,20.65 C6.2,20.72 6.74,20.75 7.5,20.75 L16.5,20.75 C17.25,20.75 17.8,20.72 18.24,20.66 C21.59,20.29 22.25,18.31 22.25,15 L22.25,9 C22.25,5.7 21.59,3.71 18.27,3.35 Z"/>
  <path fill="#292D32" d="M17,10.75 L13.5,10.75 C13.09,10.75 12.75,10.41 12.75,10 C12.75,9.59 13.09,9.25 13.5,9.25 L17,9.25 C17.41,9.25 17.75,9.59 17.75,10 C17.75,10.41 17.41,10.75 17,10.75 Z"/>
  <path fill="#292D32" d="M10.1,11 C9.55,11 9.1,10.55 9.1,10 C9.1,9.45 9.54,9 10.1,9 L10.11,9 C10.66,9 11.11,9.45 11.11,10 C11.11,10.55 10.66,11 10.1,11 Z"/>
  <path fill="#292D32" d="M7.1,11 C6.55,11 6.1,10.55 6.1,10 C6.1,9.45 6.54,9 7.1,9 C7.65,9 8.1,9.45 8.1,10 C8.1,10.55 7.66,11 7.1,11 Z"/>
  <path fill="#292D32" d="M17,16.25 L7.02,16.25 C6.61,16.25 6.26,15.91 6.26,15.5 C6.26,15.09 6.59,14.75 7,14.75 L17,14.75 C17.41,14.75 17.75,15.09 17.75,15.5 C17.75,15.91 17.41,16.25 17,16.25 Z"/>
</svg>

