<svg xmlns="http://www.w3.org/2000/svg" width="24" height="24" viewBox="0 0 24 24">
  <defs/>
  <path fill="#292D32" d="M16.74,19.59 L7.27,19.59 C6.48,19.59 5.91,19.56 5.42,19.49 C1.95,19.11 1.26,17.03 1.26,13.58 L1.26,7.26 C1.26,3.81 1.94,1.73 5.44,1.35 C5.92,1.28 6.49,1.25 7.27,1.25 L16.74,1.25 C17.52,1.25 18.09,1.28 18.59,1.35 C22.07,1.73 22.75,3.81 22.75,7.26 L22.75,13.58 C22.75,17.03 22.07,19.11 18.57,19.49 C18.1,19.56 17.53,19.59 16.74,19.59 Z M7.26,2.75 C6.55,2.75 6.04,2.78 5.62,2.84 C3.46,3.08 2.75,3.75 2.75,7.27 L2.75,13.59 C2.75,17.1 3.46,17.78 5.6,18.01 C6.04,18.07 6.55,18.1 7.27,18.1 L16.74,18.1 C17.46,18.1 17.96,18.07 18.38,18.01 C20.54,17.77 21.25,17.1 21.25,13.58 L21.25,7.26 C21.25,3.75 20.54,3.07 18.4,2.84 C17.95,2.78 17.45,2.75 16.73,2.75 L7.26,2.75 Z"/>
  <path fill="#292D32" d="M17.26,9.07 L13.58,9.07 C13.17,9.07 12.83,8.73 12.83,8.32 C12.83,7.91 13.17,7.57 13.58,7.57 L17.26,7.57 C17.67,7.57 18.01,7.91 18.01,8.32 C18.01,8.73 17.68,9.07 17.26,9.07 Z"/>
  <path fill="#292D32" d="M10,9.32 C9.45,9.32 9,8.87 9,8.32 C9,7.77 9.44,7.32 10,7.32 C10.55,7.32 11,7.77 11,8.32 C11,8.87 10.56,9.32 10,9.32 Z"/>
  <path fill="#292D32" d="M6.85,9.32 C6.3,9.32 5.85,8.87 5.85,8.32 C5.85,7.77 6.29,7.32 6.85,7.32 L6.86,7.32 C7.41,7.32 7.86,7.77 7.86,8.32 C7.86,8.87 7.4,9.32 6.85,9.32 Z"/>
  <path fill="#292D32" d="M17.26,14.86 L6.75,14.86 C6.34,14.86 5.99,14.52 5.99,14.11 C5.99,13.7 6.32,13.36 6.73,13.36 L17.26,13.36 C17.67,13.36 18.01,13.7 18.01,14.11 C18.01,14.52 17.68,14.86 17.26,14.86 Z"/>
  <path fill="#292D32" d="M17,22.75 L7,22.75 C6.59,22.75 6.25,22.41 6.25,22 C6.25,21.59 6.59,21.25 7,21.25 L17,21.25 C17.41,21.25 17.75,21.59 17.75,22 C17.75,22.41 17.41,22.75 17,22.75 Z"/>
</svg>

