<svg xmlns="http://www.w3.org/2000/svg" width="24" height="24" viewBox="0 0 24 24">
  <defs/>
  <path fill="#292D32" d="M17,22.75 L7,22.75 C6.59,22.75 6.25,22.41 6.25,22 C6.25,21.59 6.59,21.25 7,21.25 L17,21.25 C17.41,21.25 17.75,21.59 17.75,22 C17.75,22.41 17.41,22.75 17,22.75 Z"/>
  <path fill="#292D32" opacity="0.4" d="M18,19 L6,19 C3.79,19 2,17.21 2,15 L2,6 C2,3.79 3.79,2 6,2 L18,2 C20.21,2 22,3.79 22,6 L22,15 C22,17.21 20.21,19 18,19 Z"/>
  <path fill="#292D32" d="M17.26,9.07 L13.58,9.07 C13.17,9.07 12.83,8.73 12.83,8.32 C12.83,7.91 13.17,7.57 13.58,7.57 L17.26,7.57 C17.67,7.57 18.01,7.91 18.01,8.32 C18.01,8.73 17.68,9.07 17.26,9.07 Z"/>
  <path fill="#292D32" d="M10,9.32 C9.45,9.32 9,8.87 9,8.32 C9,7.77 9.44,7.32 10,7.32 C10.55,7.32 11,7.77 11,8.32 C11,8.87 10.56,9.32 10,9.32 Z"/>
  <path fill="#292D32" d="M6.85,9.32 C6.3,9.32 5.85,8.87 5.85,8.32 C5.85,7.77 6.29,7.32 6.85,7.32 L6.86,7.32 C7.41,7.32 7.86,7.77 7.86,8.32 C7.86,8.87 7.4,9.32 6.85,9.32 Z"/>
  <path fill="#292D32" d="M17.26,14.86 L6.75,14.86 C6.34,14.86 5.99,14.52 5.99,14.11 C5.99,13.7 6.32,13.36 6.73,13.36 L17.26,13.36 C17.67,13.36 18.01,13.7 18.01,14.11 C18.01,14.52 17.68,14.86 17.26,14.86 Z"/>
</svg>

