<svg xmlns="http://www.w3.org/2000/svg" width="24" height="24" viewBox="0 0 24 24">
  <defs/>
  <path d="M5.75,11.7 L5.75,15.97 Q5.75,16.613 6.277,16.991 L11.276,20.56 Q12.005,21.081 12.72,20.563 L17.724,16.99 Q18.25,16.613 18.25,15.97 L18.25,7.16 Q18.25,6.432 17.618,6.071 L12.618,3.211 Q12,2.857 11.383,3.211 L6.382,6.071 Q5.75,6.438 5.75,7.16 Q5.75,7.471 5.53,7.69 Q5.311,7.91 5,7.91 Q4.689,7.91 4.47,7.69 Q4.25,7.471 4.25,7.16 Q4.25,5.575 5.638,4.769 L10.637,1.91 Q12,1.127 13.362,1.909 L18.362,4.769 Q19.75,5.562 19.75,7.16 L19.75,15.97 Q19.75,17.383 18.596,18.21 L13.6,21.777 Q12.012,22.929 10.404,21.78 L5.403,18.21 Q4.25,17.383 4.25,15.97 L4.25,11.7 Q4.25,11.389 4.47,11.17 Q4.689,10.95 5,10.95 Q5.311,10.95 5.53,11.17 Q5.75,11.389 5.75,11.7 Z"/>
  <path d="M12.732,3.163 L10.767,12.008 L12.585,21.083 Q12.646,21.387 12.474,21.646 Q12.302,21.904 11.997,21.965 Q11.693,22.026 11.434,21.854 Q11.176,21.682 11.115,21.377 L9.265,12.147 Q9.233,11.992 9.268,11.837 L11.268,2.837 Q11.335,2.534 11.597,2.367 Q11.859,2.2 12.163,2.268 Q12.466,2.335 12.633,2.597 Q12.8,2.859 12.732,3.163 Z"/>
  <path d="M17.773,17.553 L9.613,12.643 Q9.347,12.482 9.272,12.181 Q9.197,11.88 9.357,11.613 Q9.461,11.442 9.636,11.344 L18.176,6.604 Q18.448,6.453 18.746,6.539 Q19.045,6.624 19.196,6.896 Q19.347,7.168 19.261,7.466 Q19.176,7.765 18.904,7.916 L11.498,12.026 L18.547,16.267 Q18.813,16.428 18.888,16.729 Q18.963,17.03 18.803,17.297 Q18.642,17.563 18.341,17.638 Q18.04,17.713 17.773,17.553 Z"/>
</svg>

