<svg xmlns="http://www.w3.org/2000/svg" width="24" height="24" viewBox="0 0 24 24">
  <defs/>
  <path fill="white" opacity="0.58" d="M24,0 L0,0 L0,24 L24,24 L24,0 Z"/>
  <path fill="#292D32" opacity="0.6" d="M19,7.16 L19,15.97 C19,16.4 18.86,16.81 18.62,17.15 L18.16,16.91 L10,12 L18.54,7.26 L18.99,7.03 C19,7.07 19,7.12 19,7.16 Z"/>
  <path fill="#292D32" d="M18.99,7.03 L18.54,7.26 L10,12 L12,3 L12.14,2.32 C12.43,2.34 12.72,2.42 12.99,2.57 L17.99,5.42 C18.58,5.76 18.95,6.36 18.99,7.03 Z"/>
  <path fill="#292D32" opacity="0.4" d="M12,3 L10,12 L11.85,21.23 L11.9,21.53 C11.52,21.52 11.15,21.4 10.84,21.17 L5.84,17.6 C5.31,17.22 5,16.62 5,15.97 L5,7.16 C5,6.44 5.38,5.78 6.01,5.42 L11.01,2.57 C11.36,2.37 11.75,2.28 12.14,2.32 L12,3 Z"/>
  <path fill="#292D32" d="M18.62,17.15 C18.49,17.32 18.34,17.47 18.16,17.6 L13.16,21.17 C12.79,21.44 12.34,21.56 11.9,21.53 L11.85,21.23 L10,12 L18.16,16.91 L18.62,17.15 Z"/>
</svg>

