<svg xmlns="http://www.w3.org/2000/svg" width="24" height="24" viewBox="0 0 24 24">
  <defs/>
  <path d="M17.821,8.7 C18.531,8.31 19.401,8.82 19.391,9.63 L19.351,15.05 C19.34,15.87 18.451,16.37 17.751,15.95 L13.071,13.15 C12.371,12.73 12.39,11.71 13.101,11.32 L17.821,8.7 Z"/>
  <path d="M19.25,6.281 C19.401,6.661 19.171,7.051 18.811,7.251 L13.181,10.361 C12.38,10.801 11.441,10.091 11.64,9.211 L12.861,3.681 C13.011,2.981 13.8,2.641 14.421,2.991 L18.34,5.231 C18.77,5.481 19.081,5.851 19.25,6.281 Z"/>
  <path d="M12.01,2.672 L9.94,11.972 C9.91,12.112 9.91,12.262 9.94,12.412 L11.67,21.092 C11.79,21.692 11.28,22.262 10.78,21.892 L5.49,18.122 C4.93,17.722 4.6,17.082 4.6,16.402 L4.6,7.092 C4.6,6.332 5,5.632 5.67,5.252 L10.96,2.242 C11.11,2.152 11.27,2.092 11.43,2.042 C11.81,1.912 12.09,2.292 12.01,2.672 Z"/>
  <path d="M17.629,16.81 C18.279,17.2 18.319,18.13 17.709,18.57 L14.239,21.09 C13.619,21.54 12.729,21.2 12.579,20.44 L11.559,15.24 C11.379,14.34 12.349,13.66 13.139,14.13 L17.629,16.81 Z"/>
</svg>

