<svg xmlns="http://www.w3.org/2000/svg" width="24" height="24" viewBox="0 0 24 24">
  <defs/>
  <path d="M12,22.29 C11.44,22.29 10.88,22.12 10.4,21.78 L5.4,18.21 C4.68,17.7 4.25,16.86 4.25,15.97 L4.25,7.16 C4.25,6.18 4.78,5.26 5.64,4.77 L10.64,1.91 C11.48,1.43 12.53,1.43 13.37,1.91 L18.37,4.77 C19.22,5.26 19.76,6.17 19.76,7.16 L19.76,15.97 C19.76,16.86 19.33,17.69 18.61,18.21 L13.61,21.78 C13.12,22.12 12.56,22.29 12,22.29 Z M11.38,3.22 L6.38,6.08 C5.99,6.3 5.75,6.72 5.75,7.16 L5.75,15.97 C5.75,16.37 5.95,16.75 6.27,16.99 L11.27,20.56 C11.71,20.87 12.29,20.87 12.72,20.56 L17.72,16.99 C18.05,16.76 18.24,16.38 18.24,15.97 L18.24,7.16 C18.24,6.71 18,6.3 17.61,6.08 L12.61,3.22 C12.24,3 11.76,3 11.38,3.22 Z"/>
  <path d="M11.85,21.98 C11.5,21.98 11.19,21.73 11.12,21.38 L9.27,12.15 C9.25,12.05 9.25,11.94 9.27,11.84 L11.27,2.84 C11.36,2.44 11.75,2.18 12.17,2.27 C12.57,2.36 12.83,2.76 12.74,3.16 L10.77,12.01 L12.59,21.09 C12.67,21.5 12.41,21.89 12,21.97 C11.94,21.98 11.89,21.98 11.85,21.98 Z"/>
  <path d="M18.16,17.66 C18.03,17.66 17.901,17.63 17.77,17.55 L9.61,12.64 C9.38,12.5 9.241,12.25 9.251,11.98 C9.251,11.71 9.401,11.47 9.641,11.34 L18.18,6.6 C18.541,6.4 19,6.53 19.201,6.89 C19.401,7.25 19.27,7.71 18.91,7.91 L11.501,12.02 L18.55,16.26 C18.901,16.47 19.02,16.93 18.811,17.29 C18.66,17.53 18.421,17.66 18.16,17.66 Z"/>
</svg>

