<svg xmlns="http://www.w3.org/2000/svg" width="24" height="24" viewBox="0 0 24 24">
  <defs/>
  <path fill="#17191C" d="M10.609,1.959 Q12.061,1.008 13.321,1.977 L18.257,4.84 Q19.65,5.55 19.65,7.2 L19.65,16 Q19.65,17.32 18.569,18.186 Q18.554,18.198 18.538,18.209 L13.536,21.81 Q11.95,22.943 10.362,21.809 L5.385,18.226 Q4.25,17.525 4.25,16 L4.25,7.1 Q4.25,5.665 5.584,4.776 Q5.608,4.76 5.634,4.746 L10.609,1.959 Z M11.366,3.254 L6.394,6.039 Q5.75,6.479 5.75,7.1 L5.75,16 Q5.75,16.695 6.186,16.957 Q6.213,16.973 6.238,16.991 L11.238,20.591 Q11.95,21.1 12.664,20.59 L17.645,17.003 Q18.15,16.592 18.15,16 L18.15,7.2 Q18.15,6.464 17.565,6.171 Q17.544,6.16 17.524,6.149 L12.524,3.249 Q12.475,3.221 12.431,3.186 Q11.996,2.837 11.416,3.224 Q11.392,3.24 11.366,3.254 Z"/>
  <path fill="#17191C" d="M12.732,3.163 L10.766,12.01 L12.536,21.056 Q12.596,21.361 12.422,21.619 Q12.249,21.876 11.944,21.936 Q11.639,21.996 11.381,21.822 Q11.124,21.649 11.064,21.344 L9.264,12.144 Q9.234,11.99 9.268,11.837 L11.268,2.837 Q11.335,2.534 11.597,2.367 Q11.859,2.2 12.163,2.268 Q12.466,2.335 12.633,2.597 Q12.8,2.859 12.732,3.163 Z"/>
  <path fill="#17191C" d="M17.815,17.544 L9.615,12.644 Q9.349,12.484 9.273,12.183 Q9.197,11.882 9.356,11.615 Q9.46,11.442 9.637,11.344 L18.137,6.644 Q18.409,6.493 18.707,6.579 Q19.006,6.665 19.156,6.937 Q19.307,7.209 19.221,7.508 Q19.135,7.806 18.863,7.956 L11.504,12.025 L18.585,16.256 Q18.851,16.416 18.927,16.717 Q19.003,17.018 18.844,17.285 Q18.684,17.551 18.383,17.627 Q18.082,17.703 17.815,17.544 Z"/>
</svg>

