<svg xmlns="http://www.w3.org/2000/svg" width="24" height="24" viewBox="0 0 24 24">
  <defs/>
  <path d="M10.637,1.92 L10.638,1.919 Q12,1.138 13.362,1.919 L18.362,4.779 Q19.75,5.572 19.75,7.17 L19.75,15.98 Q19.75,17.393 18.596,18.22 L13.6,21.787 Q12.012,22.939 10.404,21.79 L5.403,18.22 Q4.25,17.393 4.25,15.98 L4.25,7.17 Q4.25,5.585 5.638,4.779 Z M11.382,3.221 L6.382,6.081 Q5.75,6.448 5.75,7.17 L5.75,15.98 Q5.75,16.623 6.277,17.001 L11.276,20.57 Q12.005,21.091 12.72,20.573 L17.724,17 Q18.25,16.623 18.25,15.98 L18.25,7.17 Q18.25,6.442 17.618,6.081 L12.618,3.221 Q12,2.867 11.383,3.221 Z"/>
  <g opacity="0.4">
    <path d="M12.732,3.163 L10.767,12.008 L12.585,21.083 Q12.646,21.387 12.474,21.646 Q12.302,21.904 11.997,21.965 Q11.693,22.026 11.434,21.854 Q11.176,21.682 11.115,21.377 L9.265,12.147 Q9.233,11.992 9.268,11.837 L11.268,2.837 Q11.335,2.534 11.597,2.367 Q11.859,2.2 12.163,2.268 Q12.466,2.335 12.633,2.597 Q12.8,2.859 12.732,3.163 Z"/>
    <path d="M17.773,17.552 L9.613,12.642 Q9.347,12.482 9.272,12.181 Q9.197,11.879 9.357,11.613 Q9.461,11.441 9.636,11.344 L18.176,6.604 Q18.448,6.453 18.746,6.539 Q19.045,6.624 19.196,6.896 Q19.347,7.167 19.261,7.466 Q19.176,7.765 18.904,7.916 L11.498,12.026 L18.547,16.267 Q18.813,16.427 18.888,16.729 Q18.963,17.03 18.803,17.296 Q18.642,17.563 18.341,17.638 Q18.04,17.713 17.773,17.552 Z"/>
  </g>
</svg>

