<svg xmlns="http://www.w3.org/2000/svg" width="24" height="24" viewBox="0 0 24 24">
  <defs/>
  <path fill="#292D32" d="M19.741,5.936 Q21.372,9.214 20.098,12.678 Q19.02,15.61 16.479,17.293 L16.479,18.04 Q16.479,18.053 16.481,18.095 Q16.497,18.708 16.251,19.086 Q15.819,19.75 14.769,19.75 L9.259,19.75 Q8.244,19.75 7.828,19.251 Q7.527,18.891 7.547,18.181 Q7.549,18.085 7.549,18.04 L7.549,17.295 Q3.359,14.573 3.359,9.9 Q3.359,5.787 6.553,3.187 Q9.794,0.55 13.959,1.457 Q15.238,1.747 16.306,2.346 Q16.577,2.498 16.661,2.797 Q16.746,3.096 16.594,3.367 Q16.442,3.638 16.143,3.722 Q15.844,3.806 15.573,3.654 Q14.694,3.162 13.64,2.923 Q10.18,2.169 7.5,4.351 Q4.859,6.5 4.859,9.9 Q4.859,13.925 8.687,16.238 Q9.049,16.457 9.049,16.88 L9.049,18.04 Q9.049,18.106 9.046,18.223 L9.029,18.241 Q9.124,18.25 9.259,18.25 L14.769,18.25 L14.994,18.267 L14.981,18.136 Q14.979,18.073 14.979,18.04 L14.979,16.88 Q14.979,16.457 15.342,16.238 Q17.719,14.803 18.69,12.16 Q19.741,9.303 18.398,6.604 Q18.26,6.326 18.358,6.032 Q18.457,5.737 18.735,5.599 Q19.013,5.46 19.308,5.559 Q19.602,5.658 19.741,5.936 Z"/>
  <path fill="#292D32" d="M12.65,8.264 L11.795,9.75 L12.63,9.75 Q13.425,9.75 13.767,10.351 Q14.106,10.947 13.707,11.629 L12.652,13.481 Q12.498,13.751 12.198,13.833 Q11.899,13.916 11.629,13.762 Q11.359,13.608 11.277,13.308 Q11.195,13.009 11.348,12.739 L12.197,11.25 L11.36,11.25 Q10.574,11.25 10.23,10.654 Q9.883,10.054 10.28,9.376 L11.35,7.516 Q11.505,7.247 11.805,7.166 Q12.105,7.085 12.374,7.24 Q12.643,7.395 12.724,7.695 Q12.805,7.995 12.65,8.264 Z"/>
  <path fill="#292D32" d="M8.295,21.279 Q12,20.227 15.705,21.279 Q16.004,21.363 16.155,21.635 Q16.306,21.906 16.221,22.205 Q16.137,22.504 15.865,22.655 Q15.594,22.806 15.295,22.721 Q12,21.786 8.705,22.721 Q8.406,22.806 8.135,22.655 Q7.863,22.504 7.779,22.205 Q7.694,21.906 7.845,21.635 Q7.996,21.363 8.295,21.279 Z"/>
</svg>

