<svg xmlns="http://www.w3.org/2000/svg" width="24" height="24" viewBox="0 0 24 24">
  <defs/>
  <path fill="#292D32" d="M20.56,3.01 L4.71,18.86 Q4.49,19.08 4.18,19.08 Q3.869,19.08 3.649,18.86 Q3.43,18.641 3.43,18.33 Q3.43,18.019 3.649,17.8 L19.499,1.95 Q19.719,1.73 20.03,1.73 Q20.34,1.73 20.56,1.95 Q20.78,2.169 20.78,2.48 Q20.78,2.791 20.56,3.01 Z"/>
  <path fill="#292D32" d="M13.76,1.437 Q16.175,1.967 17.91,3.84 Q18.121,4.068 18.109,4.379 Q18.097,4.689 17.869,4.9 Q17.641,5.111 17.331,5.099 Q17.02,5.087 16.809,4.859 Q15.394,3.331 13.439,2.903 Q13.136,2.836 12.968,2.574 Q12.8,2.313 12.867,2.009 Q12.934,1.706 13.195,1.538 Q13.457,1.371 13.76,1.437 Z"/>
  <path fill="#292D32" d="M4.562,13.298 Q3.83,11.608 3.83,9.9 Q3.83,3.933 9.1,1.814 Q9.388,1.698 9.674,1.82 Q9.96,1.942 10.076,2.23 Q10.192,2.518 10.07,2.804 Q9.948,3.09 9.66,3.206 Q5.33,4.947 5.33,9.9 Q5.33,11.297 5.938,12.702 Q6.062,12.987 5.947,13.276 Q5.833,13.565 5.548,13.688 Q5.263,13.811 4.974,13.697 Q4.685,13.583 4.562,13.298 Z"/>
  <path fill="#292D32" d="M19.776,7.075 Q20.731,10.114 19.488,13.153 Q18.427,15.746 16.27,17.269 L16.27,18.03 Q16.27,18.043 16.271,18.085 Q16.286,18.685 16.06,19.055 Q15.643,19.74 14.62,19.74 L9.42,19.74 Q8.431,19.74 8.027,19.222 Q7.75,18.867 7.768,18.171 Q7.77,18.075 7.77,18.03 L7.77,17.271 Q7.189,16.859 6.63,16.3 Q6.41,16.08 6.41,15.77 Q6.41,15.459 6.63,15.239 Q6.85,15.02 7.16,15.02 Q7.471,15.02 7.69,15.239 Q8.297,15.846 8.918,16.234 Q9.27,16.454 9.27,16.87 L9.27,18.03 Q9.27,18.094 9.267,18.21 L9.209,18.299 L9.42,18.24 L14.62,18.24 L14.779,18.275 L14.772,18.122 Q14.77,18.061 14.77,18.03 L14.77,16.87 Q14.77,16.46 15.115,16.239 Q17.135,14.943 18.1,12.585 Q19.138,10.047 18.345,7.525 Q18.252,7.228 18.395,6.953 Q18.539,6.678 18.835,6.584 Q19.132,6.491 19.407,6.635 Q19.682,6.778 19.776,7.075 Z"/>
  <path fill="#292D32" d="M8.295,21.279 Q12,20.227 15.705,21.279 Q16.004,21.363 16.155,21.635 Q16.306,21.906 16.221,22.205 Q16.137,22.504 15.865,22.655 Q15.594,22.806 15.295,22.721 Q12,21.786 8.705,22.721 Q8.406,22.806 8.135,22.655 Q7.863,22.504 7.779,22.205 Q7.694,21.906 7.845,21.635 Q7.996,21.363 8.295,21.279 Z"/>
</svg>

