<svg xmlns="http://www.w3.org/2000/svg" width="24" height="24" viewBox="0 0 24 24">
  <defs/>
  <path fill="#292D32" d="M19.211,6.361 C18.171,4.261 16.161,2.711 13.831,2.201 C11.391,1.661 8.891,2.241 6.981,3.781 C5.061,5.311 3.971,7.601 3.971,10.052 C3.971,12.642 5.521,15.351 7.861,16.922 L7.861,17.752 C7.851,18.032 7.841,18.462 8.181,18.811 C8.531,19.172 9.051,19.212 9.461,19.212 L14.591,19.212 C15.131,19.212 15.541,19.061 15.821,18.782 C16.201,18.392 16.191,17.892 16.181,17.622 L16.181,16.922 C19.281,14.832 21.231,10.421 19.211,6.361 Z"/>
  <path fill="#292D32" d="M15.259,21.998 C15.199,21.998 15.129,21.988 15.069,21.968 C13.059,21.398 10.949,21.398 8.939,21.968 C8.569,22.068 8.179,21.858 8.079,21.488 C7.969,21.118 8.189,20.728 8.559,20.628 C10.819,19.988 13.199,19.988 15.459,20.628 C15.829,20.738 16.049,21.118 15.939,21.488 C15.839,21.798 15.559,21.998 15.259,21.998 Z"/>
</svg>

