<svg xmlns="http://www.w3.org/2000/svg" width="24" height="24" viewBox="0 0 24 24">
  <defs/>
  <path fill="#292D32" d="M20.56,3.01 L4.71,18.86 Q4.491,19.08 4.18,19.08 Q3.869,19.08 3.65,18.86 Q3.43,18.641 3.43,18.33 Q3.43,18.019 3.65,17.8 L19.5,1.95 Q19.719,1.73 20.03,1.73 Q20.341,1.73 20.56,1.95 Q20.78,2.169 20.78,2.48 Q20.78,2.791 20.56,3.01 Z"/>
  <path fill="#292D32" d="M4.562,13.298 Q3.83,11.608 3.83,9.9 Q3.83,5.834 6.796,3.236 Q9.83,0.577 13.76,1.437 Q16.175,1.967 17.91,3.84 Q18.121,4.068 18.11,4.379 Q18.098,4.689 17.87,4.9 Q17.642,5.111 17.331,5.099 Q17.021,5.087 16.81,4.859 Q15.395,3.331 13.44,2.903 Q10.249,2.205 7.784,4.364 Q5.33,6.514 5.33,9.9 Q5.33,11.297 5.938,12.702 Q6.062,12.987 5.947,13.276 Q5.833,13.565 5.548,13.688 Q5.263,13.812 4.974,13.697 Q4.685,13.583 4.562,13.298 Z"/>
  <path fill="#292D32" d="M19.775,7.075 Q20.731,10.114 19.488,13.153 Q18.427,15.746 16.27,17.269 L16.27,18.03 Q16.27,18.043 16.271,18.085 Q16.285,18.685 16.06,19.055 Q15.643,19.74 14.62,19.74 L9.42,19.74 Q8.431,19.74 8.027,19.222 Q7.749,18.867 7.767,18.172 Q7.77,18.075 7.77,18.03 L7.77,17.271 Q7.188,16.859 6.63,16.3 Q6.41,16.081 6.41,15.77 Q6.41,15.459 6.63,15.24 Q6.849,15.02 7.16,15.02 Q7.471,15.02 7.69,15.24 Q8.297,15.846 8.917,16.234 Q9.27,16.454 9.27,16.87 L9.27,18.03 Q9.27,18.095 9.267,18.21 L9.209,18.299 L9.42,18.24 L14.62,18.24 L14.779,18.275 L14.771,18.122 Q14.77,18.061 14.77,18.03 L14.77,16.87 Q14.77,16.46 15.115,16.239 Q17.135,14.943 18.099,12.585 Q19.138,10.047 18.344,7.525 Q18.251,7.229 18.395,6.953 Q18.539,6.678 18.835,6.585 Q19.131,6.491 19.407,6.635 Q19.682,6.779 19.775,7.075 Z"/>
  <path fill="#292D32" d="M8.295,21.279 Q12,20.227 15.705,21.279 Q16.004,21.363 16.155,21.635 Q16.306,21.906 16.221,22.205 Q16.137,22.504 15.865,22.655 Q15.594,22.806 15.295,22.721 Q12,21.786 8.705,22.721 Q8.406,22.806 8.135,22.655 Q7.863,22.504 7.779,22.205 Q7.694,21.906 7.845,21.635 Q7.996,21.363 8.295,21.279 Z"/>
</svg>

