<svg xmlns="http://www.w3.org/2000/svg" width="24" height="24" viewBox="0 0 24 24">
  <defs/>
  <path fill="#292D32" d="M12,13.85 C11.87,13.85 11.74,13.82 11.63,13.75 C11.27,13.54 11.15,13.08 11.35,12.73 L12.2,11.25 L11.36,11.25 C10.86,11.25 10.45,11.03 10.23,10.66 C10.01,10.28 10.03,9.82 10.28,9.38 L11.35,7.52 C11.56,7.16 12.02,7.04 12.37,7.24 C12.73,7.45 12.85,7.91 12.65,8.26 L11.8,9.75 L12.64,9.75 C13.14,9.75 13.55,9.97 13.77,10.34 C13.99,10.72 13.97,11.18 13.72,11.62 L12.65,13.48 C12.51,13.72 12.26,13.85 12,13.85 Z"/>
  <path fill="#292D32" d="M14.77,19.75 L9.26,19.75 C8.82,19.75 8.26,19.7 7.89,19.32 C7.53,18.95 7.54,18.49 7.55,18.18 L7.55,17.29 C5.03,15.61 3.37,12.69 3.37,9.91 C3.37,7.28 4.55,4.82 6.6,3.17 C8.65,1.52 11.34,0.9 13.97,1.48 C16.47,2.03 18.63,3.7 19.75,5.95 C21.92,10.32 19.83,15.05 16.49,17.3 L16.49,18.05 C16.5,18.34 16.51,18.87 16.1,19.29 C15.79,19.59 15.35,19.75 14.77,19.75 Z M9.04,18.24 C9.09,18.24 9.16,18.25 9.25,18.25 L14.77,18.25 C14.87,18.25 14.94,18.24 14.98,18.23 C14.98,18.2 14.98,18.16 14.98,18.13 L14.98,16.87 C14.98,16.61 15.12,16.36 15.34,16.23 C18.3,14.44 20.26,10.35 18.39,6.6 C17.47,4.75 15.69,3.38 13.63,2.93 C11.45,2.45 9.22,2.96 7.52,4.33 C5.82,5.7 4.85,7.73 4.85,9.91 C4.85,12.69 6.77,15.09 8.67,16.24 C8.9,16.38 9.03,16.62 9.03,16.88 L9.03,18.23 C9.04,18.23 9.04,18.23 9.04,18.24 Z"/>
  <path fill="#292D32" d="M15.5,22.75 C15.43,22.75 15.36,22.74 15.29,22.72 C13.13,22.1 10.86,22.1 8.7,22.72 C8.3,22.83 7.89,22.6 7.77,22.2 C7.65,21.8 7.89,21.39 8.29,21.27 C10.71,20.58 13.28,20.58 15.7,21.27 C16.1,21.38 16.33,21.8 16.22,22.2 C16.13,22.54 15.83,22.75 15.5,22.75 Z"/>
</svg>

