<svg xmlns="http://www.w3.org/2000/svg" width="24" height="24" viewBox="0 0 24 24">
  <defs/>
  <path fill="#292D32" d="M10.941,2.75 L7.991,2.75 Q6.803,2.75 6.495,3.895 L4.294,11.967 Q4.062,12.81 4.49,13.369 Q4.919,13.93 5.801,13.93 L18.221,13.93 Q19.095,13.93 19.524,13.369 Q19.953,12.808 19.726,11.965 L17.527,3.897 Q17.194,2.75 16.011,2.75 Q15.7,2.75 15.48,2.53 Q15.261,2.311 15.261,2 Q15.261,1.689 15.48,1.47 Q15.7,1.25 16.011,1.25 Q18.32,1.25 18.974,3.503 L21.175,11.575 Q21.594,13.133 20.715,14.281 Q19.835,15.43 18.221,15.43 L5.801,15.43 Q4.178,15.43 3.299,14.281 Q2.418,13.131 2.847,11.573 L5.046,3.505 Q5.653,1.25 7.991,1.25 L10.941,1.25 Q11.251,1.25 11.471,1.47 Q11.691,1.689 11.691,2 Q11.691,2.311 11.471,2.53 Q11.251,2.75 10.941,2.75 Z"/>
  <path fill="#292D32" d="M12.75,15 L12.75,22 Q12.75,22.311 12.53,22.53 Q12.311,22.75 12,22.75 Q11.689,22.75 11.47,22.53 Q11.25,22.311 11.25,22 L11.25,15 Q11.25,14.689 11.47,14.47 Q11.689,14.25 12,14.25 Q12.311,14.25 12.53,14.47 Q12.75,14.689 12.75,15 Z"/>
  <path fill="#292D32" d="M8,21.25 L16,21.25 Q16.311,21.25 16.53,21.47 Q16.75,21.689 16.75,22 Q16.75,22.311 16.53,22.53 Q16.311,22.75 16,22.75 L8,22.75 Q7.689,22.75 7.47,22.53 Q7.25,22.311 7.25,22 Q7.25,21.689 7.47,21.47 Q7.689,21.25 8,21.25 Z"/>
</svg>

