<svg xmlns="http://www.w3.org/2000/svg" width="24" height="24" viewBox="0 0 24 24">
  <defs/>
  <path fill="#292D32" d="M4.18,19.08 C3.99,19.08 3.8,19.01 3.65,18.86 C3.36,18.57 3.36,18.09 3.65,17.8 L19.5,1.95 C19.79,1.66 20.27,1.66 20.56,1.95 C20.85,2.24 20.85,2.72 20.56,3.01 L4.71,18.86 C4.56,19.01 4.37,19.08 4.18,19.08 Z"/>
  <path fill="#292D32" d="M5.25,13.75 C4.96,13.75 4.69,13.58 4.56,13.3 C4.07,12.18 3.82,11.04 3.82,9.9 C3.82,7.18 5,4.67 7.05,3.01 C8.97,1.47 11.35,0.91 13.75,1.44 C15.33,1.79 16.77,2.62 17.9,3.84 C18.18,4.14 18.16,4.62 17.86,4.9 C17.56,5.18 17.08,5.16 16.8,4.86 C15.87,3.86 14.71,3.18 13.43,2.9 C11.48,2.48 9.55,2.93 8,4.18 C6.3,5.55 5.33,7.63 5.33,9.9 C5.33,10.83 5.54,11.77 5.94,12.7 C6.11,13.08 5.93,13.52 5.55,13.69 C5.45,13.73 5.35,13.75 5.25,13.75 Z"/>
  <path fill="#292D32" d="M14.61,19.75 L9.42,19.75 C9.03,19.75 8.48,19.71 8.11,19.33 C7.75,18.96 7.76,18.49 7.77,18.18 L7.77,17.27 C7.37,16.99 6.99,16.67 6.63,16.31 C6.34,16.02 6.34,15.54 6.63,15.25 C6.92,14.96 7.4,14.96 7.69,15.25 C8.08,15.63 8.49,15.97 8.92,16.25 C9.13,16.39 9.27,16.63 9.27,16.88 L9.27,18.22 C9.27,18.23 9.27,18.24 9.27,18.25 C9.31,18.25 9.36,18.25 9.43,18.25 L14.62,18.25 C14.69,18.25 14.74,18.25 14.78,18.24 C14.78,18.2 14.78,18.16 14.78,18.13 L14.78,16.87 C14.78,16.61 14.91,16.38 15.13,16.24 C17.6,14.66 19.5,11.16 18.36,7.53 C18.24,7.13 18.46,6.71 18.85,6.59 C19.24,6.46 19.67,6.69 19.79,7.08 C21.1,11.26 19.06,15.29 16.28,17.27 L16.28,18.04 C16.29,18.35 16.3,18.88 15.89,19.3 C15.58,19.6 15.16,19.75 14.61,19.75 Z"/>
  <path fill="#292D32" d="M15.5,22.75 C15.43,22.75 15.36,22.74 15.29,22.72 C13.13,22.1 10.86,22.1 8.7,22.72 C8.3,22.83 7.89,22.6 7.77,22.2 C7.65,21.8 7.89,21.39 8.29,21.27 C10.71,20.58 13.28,20.58 15.7,21.27 C16.1,21.38 16.33,21.8 16.22,22.2 C16.13,22.54 15.83,22.75 15.5,22.75 Z"/>
</svg>

