<svg xmlns="http://www.w3.org/2000/svg" width="24" height="24" viewBox="0 0 24 24">
  <defs/>
  <path fill="#292D32" d="M5.79,15.44 Q4.172,15.44 3.295,14.288 Q2.419,13.136 2.846,11.573 L5.045,3.505 Q5.652,1.25 7.99,1.25 L16.01,1.25 Q18.337,1.25 18.963,3.513 L21.164,11.585 Q21.583,13.143 20.704,14.291 Q19.824,15.44 18.21,15.44 Z M5.79,13.94 L18.21,13.94 Q19.084,13.94 19.513,13.379 Q19.942,12.818 19.715,11.975 L17.516,3.907 Q17.196,2.75 16.01,2.75 L7.99,2.75 Q6.802,2.75 6.494,3.895 L4.293,11.967 Q4.061,12.817 4.489,13.379 Q4.916,13.94 5.79,13.94 Z"/>
  <g opacity="0.4">
    <path fill="#292D32" d="M12.75,15 L12.75,22 Q12.75,22.311 12.53,22.53 Q12.311,22.75 12,22.75 Q11.689,22.75 11.47,22.53 Q11.25,22.311 11.25,22 L11.25,15 Q11.25,14.689 11.47,14.47 Q11.689,14.25 12,14.25 Q12.311,14.25 12.53,14.47 Q12.75,14.689 12.75,15 Z"/>
    <path fill="#292D32" d="M8,21.25 L16,21.25 Q16.311,21.25 16.53,21.47 Q16.75,21.689 16.75,22 Q16.75,22.311 16.53,22.53 Q16.311,22.75 16,22.75 L8,22.75 Q7.689,22.75 7.47,22.53 Q7.25,22.311 7.25,22 Q7.25,21.689 7.47,21.47 Q7.689,21.25 8,21.25 Z"/>
  </g>
</svg>

