<svg xmlns="http://www.w3.org/2000/svg" width="24" height="24" viewBox="0 0 24 24">
  <defs/>
  <path fill="#292D32" opacity="0.4" d="M20.781,14.18 L20.781,17.12 C20.781,18.22 19.881,19.12 18.781,19.12 L5.221,19.12 C4.121,19.12 3.221,18.22 3.221,17.12 L3.221,14.18 C3.221,9.36 7.121,5.46 11.941,5.46 L12.061,5.46 C16.881,5.45 20.781,9.36 20.781,14.18 Z"/>
  <path fill="#292D32" d="M12.75,2.53 L12.75,5.49 C12.52,5.47 12.29,5.46 12.06,5.46 L11.94,5.46 C11.71,5.46 11.48,5.47 11.25,5.49 L11.25,2.53 C11.25,2.12 11.59,1.78 12,1.78 C12.41,1.78 12.75,2.12 12.75,2.53 Z"/>
  <path fill="#292D32" d="M15.32,19.11 C15.2,20.85 13.76,22.22 12,22.22 C10.24,22.22 8.79,20.85 8.68,19.11 L15.32,19.11 Z"/>
</svg>

