<svg xmlns="http://www.w3.org/2000/svg" width="24" height="24" viewBox="0 0 24 24">
  <defs/>
  <path fill="#292D32" d="M21.531,13.65 L21.531,18.59 Q21.531,18.901 21.311,19.121 Q21.091,19.34 20.781,19.34 L3.221,19.34 Q2.91,19.34 2.69,19.121 Q2.471,18.901 2.471,18.59 L2.471,13.65 Q2.471,9.725 5.243,6.952 Q8.015,4.18 11.941,4.18 L12.061,4.18 Q15.986,4.18 18.759,6.952 Q21.531,9.725 21.531,13.65 Z M20.031,13.65 Q20.031,10.346 17.698,8.013 Q15.365,5.68 12.061,5.68 L11.941,5.68 Q8.636,5.68 6.304,8.013 Q3.971,10.346 3.971,13.65 L3.971,17.84 L20.031,17.84 Z"/>
  <path fill="#292D32" opacity="0.4" d="M12.75,2 L12.75,4.93 Q12.75,5.241 12.53,5.46 Q12.311,5.68 12,5.68 Q11.689,5.68 11.47,5.46 Q11.25,5.241 11.25,4.93 L11.25,2 Q11.25,1.689 11.47,1.47 Q11.689,1.25 12,1.25 Q12.311,1.25 12.53,1.47 Q12.75,1.689 12.75,2 Z"/>
  <path fill="#292D32" opacity="0.4" d="M16.398,18.641 Q16.118,22.75 12,22.75 Q7.881,22.75 7.601,18.641 Q7.58,18.331 7.784,18.097 Q7.989,17.863 8.299,17.842 Q8.324,17.84 8.35,17.84 L15.65,17.84 Q15.96,17.84 16.18,18.059 Q16.4,18.279 16.4,18.59 Q16.4,18.615 16.398,18.641 Z M14.777,19.34 L9.222,19.34 Q9.719,21.25 12,21.25 Q14.28,21.25 14.777,19.34 Z"/>
</svg>

