<svg xmlns="http://www.w3.org/2000/svg" width="24" height="24" viewBox="0 0 24 24">
  <defs/>
  <path fill="#292D32" d="M12.501,5.481 C12.581,5.481 12.661,5.481 12.751,5.491 L12.751,2.531 C12.751,2.121 12.411,1.781 12.001,1.781 C11.591,1.781 11.251,2.121 11.251,2.531 L11.251,5.491 C11.331,5.481 11.411,5.481 11.501,5.481 C6.891,5.711 3.221,9.511 3.221,14.181 L3.221,16.121 C3.221,17.221 4.121,18.121 5.221,18.121 L18.781,18.121 C19.881,18.121 20.781,17.221 20.781,16.121 L20.781,14.181 C20.781,9.511 17.111,5.711 12.501,5.481 Z"/>
  <path fill="#292D32" d="M14.729,19.109 C15.059,19.109 15.299,19.419 15.219,19.739 C14.839,21.169 13.539,22.219 11.999,22.219 C10.459,22.219 9.159,21.169 8.779,19.739 C8.699,19.419 8.939,19.109 9.269,19.109 L14.729,19.109 Z"/>
</svg>

