<svg xmlns="http://www.w3.org/2000/svg" width="24" height="24" viewBox="0 0 24 24">
  <defs/>
  <path fill="#292D32" d="M15.259,22 C15.199,22 15.129,21.99 15.069,21.97 C13.059,21.4 10.949,21.4 8.939,21.97 C8.569,22.07 8.179,21.86 8.079,21.49 C7.969,21.12 8.189,20.73 8.559,20.63 C10.819,19.99 13.199,19.99 15.459,20.63 C15.829,20.74 16.049,21.12 15.939,21.49 C15.839,21.8 15.559,22 15.259,22 Z"/>
  <path fill="#292D32" d="M4.179,19.08 C3.989,19.08 3.799,19.01 3.649,18.86 C3.359,18.57 3.359,18.09 3.649,17.8 L19.499,1.95 C19.789,1.66 20.269,1.66 20.559,1.95 C20.849,2.24 20.849,2.72 20.559,3.01 L4.709,18.86 C4.559,19.01 4.369,19.08 4.179,19.08 Z"/>
  <path fill="#292D32" opacity="0.4" d="M16.631,3.42 L5.491,14.56 C4.531,13.2 3.971,11.6 3.971,10.05 C3.971,7.6 5.061,5.31 6.971,3.77 C8.881,2.23 11.381,1.66 13.831,2.2 C14.841,2.42 15.791,2.84 16.631,3.42 Z"/>
  <path fill="#292D32" opacity="0.4" d="M16.169,16.92 L16.169,17.62 C16.179,17.88 16.199,18.38 15.809,18.78 C15.529,19.06 15.119,19.21 14.579,19.21 L9.449,19.21 C9.039,19.21 8.519,19.16 8.169,18.81 C7.839,18.46 7.849,18.03 7.859,17.75 L7.859,16.92 C7.409,16.62 6.989,16.28 6.609,15.9 L17.949,4.56 C18.449,5.09 18.879,5.7 19.209,6.36 C21.229,10.42 19.279,14.83 16.169,16.92 Z"/>
</svg>

