<svg xmlns="http://www.w3.org/2000/svg" width="24" height="24" viewBox="0 0 24 24">
  <defs/>
  <path fill="#292D32" d="M15.701,4.349 L6.401,13.649 C5.931,14.119 5.111,14.019 4.811,13.419 C4.271,12.349 3.971,11.179 3.971,10.049 C3.971,7.599 5.061,5.309 6.971,3.769 C8.881,2.229 11.381,1.659 13.831,2.199 C14.371,2.319 14.901,2.489 15.401,2.719 C16.041,3.009 16.201,3.849 15.701,4.349 Z"/>
  <path fill="#292D32" d="M15.449,20.628 C13.189,19.988 10.809,19.988 8.549,20.628 C8.179,20.738 7.959,21.118 8.069,21.488 C8.179,21.858 8.559,22.068 8.929,21.968 C10.939,21.398 13.049,21.398 15.059,21.968 C15.119,21.988 15.189,21.998 15.249,21.998 C15.549,21.998 15.829,21.798 15.919,21.488 C16.029,21.118 15.819,20.738 15.449,20.628 Z"/>
  <path fill="#292D32" d="M20.559,1.952 C20.269,1.662 19.789,1.662 19.499,1.952 L3.649,17.802 C3.359,18.092 3.359,18.572 3.649,18.862 C3.799,19.012 3.989,19.082 4.179,19.082 C4.369,19.082 4.559,19.012 4.709,18.862 L7.169,16.402 C7.389,16.582 7.619,16.762 7.859,16.922 L7.859,17.752 C7.849,18.032 7.839,18.462 8.169,18.812 C8.519,19.162 9.039,19.212 9.449,19.212 L14.579,19.212 C15.119,19.212 15.529,19.062 15.809,18.782 C16.199,18.382 16.179,17.882 16.169,17.622 L16.169,16.922 C19.279,14.832 21.229,10.422 19.209,6.362 C18.989,5.932 18.719,5.522 18.419,5.142 L20.549,3.012 C20.849,2.722 20.849,2.242 20.559,1.952 Z"/>
</svg>

