<svg xmlns="http://www.w3.org/2000/svg" width="24" height="24" viewBox="0 0 24 24">
  <defs/>
  <path fill="#292D32" d="M20.431,11.78 L18.231,3.7 C17.981,2.77 16.971,2 16.011,2 L7.991,2 C7.031,2 6.021,2.77 5.771,3.7 L3.571,11.78 C3.131,13.38 4.131,14.69 5.791,14.69 L11.251,14.69 L11.251,20.5 L8.001,20.5 C7.591,20.5 7.251,20.84 7.251,21.25 C7.251,21.66 7.591,22 8.001,22 L16.001,22 C16.411,22 16.751,21.66 16.751,21.25 C16.751,20.84 16.411,20.5 16.001,20.5 L12.751,20.5 L12.751,14.69 L18.211,14.69 C19.871,14.69 20.871,13.38 20.431,11.78 Z"/>
</svg>

