<svg xmlns="http://www.w3.org/2000/svg" width="24" height="24" viewBox="0 0 24 24">
  <defs/>
  <path fill="#292D32" d="M18.21,15.44 L5.79,15.44 C4.76,15.44 3.85,15.02 3.29,14.29 C2.73,13.56 2.57,12.57 2.84,11.58 L5.04,3.5 C5.38,2.24 6.68,1.25 7.99,1.25 L16,1.25 C17.31,1.25 18.6,2.24 18.95,3.5 L21.15,11.58 C21.42,12.57 21.26,13.56 20.7,14.29 C20.14,15.02 19.24,15.44 18.21,15.44 Z M7.99,2.75 C7.36,2.75 6.65,3.29 6.49,3.9 L4.29,11.98 C4.14,12.52 4.21,13.02 4.49,13.39 C4.77,13.76 5.23,13.95 5.79,13.95 L18.21,13.95 C18.77,13.95 19.24,13.75 19.51,13.39 C19.78,13.03 19.86,12.53 19.71,11.98 L17.51,3.9 C17.34,3.29 16.64,2.75 16.01,2.75 L7.99,2.75 Z"/>
  <path fill="#292D32" d="M12,22.75 C11.59,22.75 11.25,22.41 11.25,22 L11.25,15 C11.25,14.59 11.59,14.25 12,14.25 C12.41,14.25 12.75,14.59 12.75,15 L12.75,22 C12.75,22.41 12.41,22.75 12,22.75 Z"/>
  <path fill="#292D32" d="M16,22.75 L8,22.75 C7.59,22.75 7.25,22.41 7.25,22 C7.25,21.59 7.59,21.25 8,21.25 L16,21.25 C16.41,21.25 16.75,21.59 16.75,22 C16.75,22.41 16.41,22.75 16,22.75 Z"/>
</svg>

