<svg xmlns="http://www.w3.org/2000/svg" width="24" height="24" viewBox="0 0 24 24">
  <defs/>
  <path fill="#292D32" opacity="0.4" d="M19.211,6.36 C18.171,4.26 16.161,2.71 13.831,2.2 C11.391,1.66 8.891,2.24 6.981,3.78 C5.061,5.31 3.971,7.6 3.971,10.05 C3.971,12.64 5.521,15.35 7.861,16.92 L7.861,17.75 C7.851,18.03 7.841,18.46 8.181,18.81 C8.531,19.17 9.051,19.21 9.461,19.21 L14.591,19.21 C15.131,19.21 15.541,19.06 15.821,18.78 C16.201,18.39 16.191,17.89 16.181,17.62 L16.181,16.92 C19.281,14.83 21.231,10.42 19.211,6.36 Z"/>
  <path fill="#292D32" d="M15.259,22 C15.199,22 15.129,21.99 15.069,21.97 C13.059,21.4 10.949,21.4 8.939,21.97 C8.569,22.07 8.179,21.86 8.079,21.49 C7.969,21.12 8.189,20.73 8.559,20.63 C10.819,19.99 13.199,19.99 15.459,20.63 C15.829,20.74 16.049,21.12 15.939,21.49 C15.839,21.8 15.559,22 15.259,22 Z"/>
  <path fill="#292D32" d="M12,13.85 C11.87,13.85 11.74,13.82 11.63,13.75 C11.27,13.54 11.15,13.08 11.35,12.73 L12.2,11.25 L11.36,11.25 C10.86,11.25 10.45,11.03 10.23,10.66 C10.01,10.28 10.03,9.82 10.28,9.38 L11.35,7.52 C11.56,7.16 12.02,7.04 12.37,7.24 C12.73,7.45 12.85,7.91 12.65,8.26 L11.8,9.75 L12.64,9.75 C13.14,9.75 13.55,9.97 13.77,10.34 C13.99,10.72 13.97,11.18 13.72,11.62 L12.65,13.48 C12.51,13.72 12.26,13.85 12,13.85 Z"/>
</svg>

