<svg xmlns="http://www.w3.org/2000/svg" width="24" height="24" viewBox="0 0 24 24">
  <defs/>
  <path fill="#292D32" opacity="0.4" d="M18.211,14.69 L5.791,14.69 C4.131,14.69 3.131,13.38 3.571,11.78 L5.771,3.7 C6.021,2.77 7.031,2 7.991,2 L16.011,2 C16.971,2 17.981,2.77 18.231,3.7 L20.431,11.78 C20.871,13.38 19.871,14.69 18.211,14.69 Z"/>
  <path fill="#292D32" d="M16.75,21.25 C16.75,21.66 16.41,22 16,22 L8,22 C7.59,22 7.25,21.66 7.25,21.25 C7.25,20.84 7.59,20.5 8,20.5 L11.25,20.5 L11.25,14.69 L12.75,14.69 L12.75,20.5 L16,20.5 C16.41,20.5 16.75,20.84 16.75,21.25 Z"/>
</svg>

