<svg xmlns="http://www.w3.org/2000/svg" width="24" height="24" viewBox="0 0 24 24">
  <defs/>
  <path fill="#292D32" d="M15.259,21.998 C15.199,21.998 15.129,21.988 15.069,21.968 C13.059,21.398 10.949,21.398 8.939,21.968 C8.569,22.068 8.179,21.858 8.079,21.488 C7.969,21.118 8.189,20.728 8.559,20.628 C10.819,19.988 13.199,19.988 15.459,20.628 C15.829,20.738 16.049,21.118 15.939,21.488 C15.839,21.798 15.559,21.998 15.259,21.998 Z"/>
  <path fill="#292D32" d="M19.211,6.361 C18.171,4.261 16.161,2.711 13.831,2.201 C11.391,1.661 8.891,2.241 6.981,3.781 C5.061,5.311 3.971,7.601 3.971,10.052 C3.971,12.642 5.521,15.351 7.861,16.922 L7.861,17.752 C7.851,18.032 7.841,18.462 8.181,18.811 C8.531,19.172 9.051,19.212 9.461,19.212 L14.591,19.212 C15.131,19.212 15.541,19.061 15.821,18.782 C16.201,18.392 16.191,17.892 16.181,17.622 L16.181,16.922 C19.281,14.832 21.231,10.421 19.211,6.361 Z M13.721,11.621 L12.651,13.482 C12.511,13.722 12.261,13.861 12.001,13.861 C11.871,13.861 11.741,13.832 11.631,13.761 C11.271,13.552 11.151,13.091 11.351,12.742 L12.201,11.261 L11.361,11.261 C10.861,11.261 10.451,11.041 10.231,10.671 C10.011,10.291 10.031,9.831 10.281,9.391 L11.351,7.531 C11.561,7.171 12.021,7.051 12.371,7.251 C12.731,7.461 12.851,7.921 12.651,8.271 L11.801,9.751 L12.641,9.751 C13.141,9.751 13.551,9.971 13.771,10.341 C13.991,10.722 13.971,11.191 13.721,11.621 Z"/>
</svg>

