<svg xmlns="http://www.w3.org/2000/svg" width="24" height="24" viewBox="0 0 24 24">
  <defs/>
  <path fill="#292D32" opacity="0.4" d="M12.65,8.264 L11.795,9.75 L12.63,9.75 Q13.425,9.75 13.767,10.351 Q14.106,10.947 13.707,11.629 L12.652,13.481 Q12.498,13.751 12.198,13.833 Q11.899,13.916 11.629,13.762 Q11.359,13.608 11.277,13.308 Q11.195,13.009 11.348,12.739 L12.197,11.25 L11.36,11.25 Q10.574,11.25 10.23,10.654 Q9.883,10.054 10.28,9.376 L11.35,7.516 Q11.505,7.247 11.805,7.166 Q12.105,7.085 12.374,7.24 Q12.643,7.395 12.724,7.695 Q12.805,7.995 12.65,8.264 Z"/>
  <path fill="#292D32" d="M7.55,18.04 L7.55,17.295 Q3.36,14.573 3.36,9.9 Q3.36,5.787 6.554,3.187 Q9.795,0.55 13.96,1.457 Q17.958,2.342 19.742,5.926 Q21.373,9.204 20.099,12.668 Q19.021,15.6 16.48,17.283 L16.48,18.03 Q16.48,18.043 16.482,18.085 Q16.498,18.698 16.252,19.076 Q15.82,19.74 14.77,19.74 L9.26,19.74 Q8.249,19.749 7.831,19.252 Q7.528,18.892 7.548,18.181 Q7.55,18.085 7.55,18.04 Z M9.05,18.04 Q9.05,18.106 9.047,18.223 L9.035,18.234 Q9.129,18.241 9.26,18.24 L14.77,18.24 L14.995,18.257 L14.982,18.126 Q14.98,18.063 14.98,18.03 L14.98,16.87 Q14.98,16.447 15.343,16.228 Q17.72,14.793 18.691,12.15 Q19.742,9.293 18.399,6.594 Q16.935,3.652 13.641,2.923 Q10.181,2.169 7.501,4.351 Q4.86,6.5 4.86,9.9 Q4.86,13.925 8.688,16.238 Q9.05,16.457 9.05,16.88 Z"/>
  <path fill="#292D32" opacity="0.4" d="M8.295,21.279 Q12,20.227 15.705,21.279 Q16.004,21.364 16.155,21.635 Q16.306,21.906 16.221,22.205 Q16.137,22.504 15.865,22.655 Q15.594,22.807 15.295,22.722 Q12,21.786 8.705,22.722 Q8.406,22.807 8.135,22.655 Q7.863,22.504 7.779,22.205 Q7.694,21.906 7.845,21.635 Q7.996,21.364 8.295,21.279 Z"/>
</svg>

