<svg xmlns="http://www.w3.org/2000/svg" width="24" height="24" viewBox="0 0 24 24">
  <defs/>
  <path fill="#292D32" d="M12,2 C6.48,2 2,6.48 2,12 C2,17.52 6.48,22 12,22 C17.52,22 22,17.52 22,12 C22,6.48 17.52,2 12,2 Z M17,17.47 C15.29,17.47 13.69,16.73 12.41,15.36 C10.96,16.67 9.07,17.47 7,17.47 C6.59,17.47 6.25,17.13 6.25,16.72 C6.25,16.31 6.59,15.97 7,15.97 C10.47,15.97 13.34,13.22 13.71,9.7 L12,9.7 L7.01,9.7 C6.6,9.7 6.26,9.36 6.26,8.95 C6.26,8.54 6.6,8.21 7.01,8.21 L11.25,8.21 L11.25,7.28 C11.25,6.87 11.59,6.53 12,6.53 C12.41,6.53 12.75,6.87 12.75,7.28 L12.75,8.21 L14.44,8.21 C14.46,8.21 14.48,8.2 14.5,8.2 C14.52,8.2 14.54,8.21 14.56,8.21 L16.99,8.21 C17.4,8.21 17.74,8.55 17.74,8.96 C17.74,9.37 17.4,9.71 16.99,9.71 L15.21,9.71 C15.06,11.42 14.42,12.99 13.44,14.27 C14.44,15.38 15.69,15.98 17,15.98 C17.41,15.98 17.75,16.32 17.75,16.73 C17.75,17.14 17.41,17.47 17,17.47 Z"/>
</svg>

