<svg xmlns="http://www.w3.org/2000/svg" width="24" height="24" viewBox="0 0 24 24">
  <defs/>
  <path fill="#292D32" d="M16.99,9.71 L7.01,9.71 C6.6,9.71 6.26,9.37 6.26,8.96 C6.26,8.55 6.6,8.21 7.01,8.21 L16.99,8.21 C17.4,8.21 17.74,8.55 17.74,8.96 C17.74,9.37 17.4,9.71 16.99,9.71 Z"/>
  <path fill="#292D32" d="M12,9.71 C11.59,9.71 11.25,9.37 11.25,8.96 L11.25,7.28 C11.25,6.87 11.59,6.53 12,6.53 C12.41,6.53 12.75,6.87 12.75,7.28 L12.75,8.96 C12.75,9.37 12.41,9.71 12,9.71 Z"/>
  <path fill="#292D32" d="M7,17.47 C6.59,17.47 6.25,17.13 6.25,16.72 C6.25,16.31 6.59,15.97 7,15.97 C10.72,15.97 13.75,12.82 13.75,8.94 C13.75,8.53 14.09,8.19 14.5,8.19 C14.91,8.19 15.25,8.53 15.25,8.94 C15.25,13.65 11.55,17.47 7,17.47 Z"/>
  <path fill="#292D32" d="M17.001,17.47 C15.031,17.47 13.201,16.49 11.861,14.7 C11.611,14.37 11.681,13.9 12.011,13.65 C12.341,13.4 12.811,13.47 13.061,13.8 C14.121,15.2 15.521,15.97 17.011,15.97 C17.421,15.97 17.761,16.31 17.761,16.72 C17.761,17.13 17.411,17.47 17.001,17.47 Z"/>
  <path fill="#292D32" d="M15,22.75 L9,22.75 C3.57,22.75 1.25,20.43 1.25,15 L1.25,9 C1.25,3.57 3.57,1.25 9,1.25 L15,1.25 C20.43,1.25 22.75,3.57 22.75,9 L22.75,15 C22.75,20.43 20.43,22.75 15,22.75 Z M9,2.75 C4.39,2.75 2.75,4.39 2.75,9 L2.75,15 C2.75,19.61 4.39,21.25 9,21.25 L15,21.25 C19.61,21.25 21.25,19.61 21.25,15 L21.25,9 C21.25,4.39 19.61,2.75 15,2.75 L9,2.75 Z"/>
</svg>

