<svg xmlns="http://www.w3.org/2000/svg" width="24" height="24" viewBox="0 0 24 24">
  <defs/>
  <path fill="#292D32" opacity="0.4" d="M12,22 C17.523,22 22,17.523 22,12 C22,6.477 17.523,2 12,2 C6.477,2 2,6.477 2,12 C2,17.523 6.477,22 12,22 Z"/>
  <path fill="#292D32" d="M17,15.97 C15.69,15.97 14.44,15.37 13.44,14.26 C14.43,12.99 15.07,11.42 15.21,9.7 L16.99,9.7 C17.4,9.7 17.74,9.36 17.74,8.95 C17.74,8.54 17.4,8.2 16.99,8.2 L14.56,8.2 C14.54,8.2 14.52,8.19 14.5,8.19 C14.48,8.19 14.46,8.2 14.44,8.2 L12.75,8.2 L12.75,7.27 C12.75,6.86 12.41,6.52 12,6.52 C11.59,6.52 11.25,6.86 11.25,7.27 L11.25,8.2 L7.01,8.2 C6.6,8.2 6.26,8.54 6.26,8.95 C6.26,9.36 6.6,9.7 7.01,9.7 L12,9.7 L13.7,9.7 C13.33,13.22 10.47,15.97 6.99,15.97 C6.58,15.97 6.24,16.31 6.24,16.72 C6.24,17.13 6.58,17.47 6.99,17.47 C9.06,17.47 10.95,16.67 12.4,15.36 C13.67,16.72 15.28,17.47 16.99,17.47 C17.4,17.47 17.74,17.13 17.74,16.72 C17.74,16.31 17.41,15.97 17,15.97 Z"/>
</svg>

