<svg xmlns="http://www.w3.org/2000/svg" width="24" height="24" viewBox="0 0 24 24">
  <defs/>
  <path fill="#292D32" d="M16.99,9.71 L7.01,9.71 Q6.699,9.71 6.479,9.49 Q6.26,9.271 6.26,8.96 Q6.26,8.649 6.479,8.43 Q6.699,8.21 7.01,8.21 L16.99,8.21 Q17.3,8.21 17.52,8.43 Q17.74,8.649 17.74,8.96 Q17.74,9.271 17.52,9.49 Q17.3,9.71 16.99,9.71 Z"/>
  <path fill="#292D32" d="M12.75,7.28 L12.75,8.96 Q12.75,9.271 12.53,9.49 Q12.311,9.71 12,9.71 Q11.689,9.71 11.47,9.49 Q11.25,9.271 11.25,8.96 L11.25,7.28 Q11.25,6.969 11.47,6.75 Q11.689,6.53 12,6.53 Q12.311,6.53 12.53,6.75 Q12.75,6.969 12.75,7.28 Z"/>
  <path fill="#292D32" d="M15.25,8.94 Q15.25,12.467 12.842,14.963 Q10.425,17.47 7,17.47 Q6.689,17.47 6.47,17.25 Q6.25,17.031 6.25,16.72 Q6.25,16.409 6.47,16.19 Q6.689,15.97 7,15.97 Q9.787,15.97 11.763,13.922 Q13.75,11.861 13.75,8.94 Q13.75,8.629 13.97,8.41 Q14.189,8.19 14.5,8.19 Q14.811,8.19 15.03,8.41 Q15.25,8.629 15.25,8.94 Z"/>
  <path fill="#292D32" d="M16.999,17.47 Q13.959,17.47 11.853,14.704 Q11.664,14.457 11.706,14.149 Q11.748,13.842 11.995,13.653 Q12.242,13.465 12.55,13.507 Q12.858,13.548 13.046,13.796 Q14.702,15.97 16.999,15.97 Q17.31,15.97 17.53,16.19 Q17.749,16.409 17.749,16.72 Q17.749,17.031 17.53,17.25 Q17.31,17.47 16.999,17.47 Z"/>
  <path fill="#292D32" d="M2.75,12.83 L2.75,15 Q2.75,18.439 4.155,19.845 Q5.561,21.25 9,21.25 L15,21.25 Q18.439,21.25 19.845,19.845 Q21.25,18.439 21.25,15 L21.25,9 Q21.25,2.75 15,2.75 L9,2.75 Q2.75,2.75 2.75,9 Q2.75,9.311 2.53,9.53 Q2.311,9.75 2,9.75 Q1.689,9.75 1.47,9.53 Q1.25,9.311 1.25,9 Q1.25,1.25 9,1.25 L15,1.25 Q22.75,1.25 22.75,9 L22.75,15 Q22.75,22.75 15,22.75 L9,22.75 Q1.25,22.75 1.25,15 L1.25,12.83 Q1.25,12.519 1.47,12.3 Q1.689,12.08 2,12.08 Q2.311,12.08 2.53,12.3 Q2.75,12.519 2.75,12.83 Z"/>
</svg>

