<svg xmlns="http://www.w3.org/2000/svg" width="24" height="24" viewBox="0 0 24 24">
  <defs/>
  <path fill="#292D32" d="M13.314,2.234 L19.214,4.854 Q20.934,5.613 20.935,6.91 Q20.935,8.206 19.212,8.966 L13.314,11.585 Q11.79,12.268 10.263,11.584 L4.365,8.965 Q2.645,8.206 2.645,6.91 Q2.645,5.613 4.367,4.854 L10.265,2.234 Q11.788,1.552 13.314,2.234 Z M12.703,3.604 Q11.79,3.195 10.874,3.605 L4.972,6.226 Q4.145,6.591 4.145,6.91 Q4.145,7.228 4.974,7.594 L10.876,10.215 Q11.79,10.624 12.705,10.214 L18.607,7.594 Q19.435,7.228 19.435,6.91 Q19.435,6.591 18.605,6.225 L12.705,3.605 Z"/>
  <path fill="#292D32" opacity="0.4" d="M3.75,11 Q3.75,12.043 4.703,12.464 L11.495,15.485 Q12.005,15.71 12.502,15.486 L19.295,12.465 Q20.25,12.043 20.25,11 Q20.25,10.689 20.47,10.47 Q20.689,10.25 21,10.25 Q21.311,10.25 21.53,10.47 Q21.75,10.689 21.75,11 Q21.75,13.021 19.905,13.835 L13.118,16.854 Q12.011,17.353 10.885,16.855 L4.097,13.836 Q2.25,13.021 2.25,11 Q2.25,10.689 2.47,10.47 Q2.689,10.25 3,10.25 Q3.311,10.25 3.53,10.47 Q3.75,10.689 3.75,11 Z"/>
  <path fill="#292D32" opacity="0.4" d="M3.75,16 Q3.75,17.038 4.706,17.465 L11.495,20.485 Q12.005,20.71 12.502,20.486 L19.295,17.465 Q20.25,17.038 20.25,16 Q20.25,15.689 20.47,15.47 Q20.689,15.25 21,15.25 Q21.311,15.25 21.53,15.47 Q21.75,15.689 21.75,16 Q21.75,18.01 19.905,18.835 L13.118,21.854 Q12.011,22.353 10.885,21.855 L4.094,18.835 Q2.25,18.01 2.25,16 Q2.25,15.689 2.47,15.47 Q2.689,15.25 3,15.25 Q3.311,15.25 3.53,15.47 Q3.75,15.689 3.75,16 Z"/>
</svg>

