<svg xmlns="http://www.w3.org/2000/svg" width="24" height="24" viewBox="0 0 24 24">
  <defs/>
  <path fill="#292D32" d="M19.222,4.854 Q20.944,5.614 20.944,6.91 Q20.944,8.206 19.222,8.966 L13.324,11.586 Q11.799,12.268 10.273,11.585 L4.375,8.966 Q2.654,8.206 2.654,6.91 Q2.654,5.614 4.377,4.854 L10.275,2.235 Q11.799,1.552 13.326,2.236 L15.243,3.084 Q15.527,3.21 15.639,3.5 Q15.751,3.79 15.625,4.074 Q15.499,4.358 15.21,4.47 Q14.92,4.582 14.636,4.456 L12.713,3.605 Q11.799,3.196 10.884,3.606 L4.982,6.226 Q4.154,6.591 4.154,6.91 Q4.154,7.229 4.984,7.595 L10.886,10.216 Q11.799,10.625 12.715,10.215 L18.617,7.594 Q19.444,7.229 19.444,6.91 Q19.444,6.591 18.617,6.226 Q18.332,6.101 18.22,5.811 Q18.108,5.522 18.233,5.237 Q18.359,4.953 18.648,4.841 Q18.938,4.728 19.222,4.854 Z"/>
  <path fill="#292D32" d="M3.75,11 Q3.75,12.043 4.703,12.464 L11.495,15.485 Q12.005,15.71 12.502,15.486 L19.295,12.465 Q20.25,12.043 20.25,11 Q20.25,10.689 20.47,10.47 Q20.689,10.25 21,10.25 Q21.311,10.25 21.53,10.47 Q21.75,10.689 21.75,11 Q21.75,13.021 19.905,13.835 L13.118,16.854 Q12.011,17.353 10.885,16.855 L4.097,13.836 Q2.25,13.021 2.25,11 Q2.25,10.689 2.47,10.47 Q2.689,10.25 3,10.25 Q3.311,10.25 3.53,10.47 Q3.75,10.689 3.75,11 Z"/>
  <path fill="#292D32" d="M3.75,16 Q3.75,17.038 4.706,17.465 L11.495,20.485 Q12.005,20.71 12.502,20.486 L19.295,17.465 Q20.25,17.038 20.25,16 Q20.25,15.689 20.47,15.47 Q20.689,15.25 21,15.25 Q21.311,15.25 21.53,15.47 Q21.75,15.689 21.75,16 Q21.75,18.01 19.905,18.835 L13.118,21.854 Q12.011,22.353 10.885,21.855 L4.094,18.835 Q2.25,18.01 2.25,16 Q2.25,15.689 2.47,15.47 Q2.689,15.25 3,15.25 Q3.311,15.25 3.53,15.47 Q3.75,15.689 3.75,16 Z"/>
</svg>

