<svg xmlns="http://www.w3.org/2000/svg" width="24" height="24" viewBox="0 0 24 24">
  <defs/>
  <path fill="#292D32" d="M11.79,11.88 C11.25,11.88 10.7,11.78 10.27,11.59 L4.37,8.97 C2.87,8.3 2.65,7.4 2.65,6.91 C2.65,6.42 2.87,5.52 4.37,4.85 L10.27,2.23 C11.14,1.84 12.45,1.84 13.32,2.23 L19.23,4.85 C20.72,5.51 20.95,6.42 20.95,6.91 C20.95,7.4 20.73,8.3 19.23,8.97 L13.32,11.59 C12.88,11.79 12.34,11.88 11.79,11.88 Z M11.79,3.44 C11.45,3.44 11.12,3.49 10.88,3.6 L4.98,6.22 C4.37,6.5 4.15,6.78 4.15,6.91 C4.15,7.04 4.37,7.33 4.97,7.6 L10.87,10.22 C11.35,10.43 12.22,10.43 12.7,10.22 L18.61,7.6 C19.22,7.33 19.44,7.04 19.44,6.91 C19.44,6.78 19.22,6.49 18.61,6.22 L12.71,3.6 C12.47,3.5 12.13,3.44 11.79,3.44 Z"/>
  <path fill="#292D32" d="M12,17.09 C11.62,17.09 11.24,17.01 10.88,16.85 L4.09,13.83 C3.06,13.38 2.25,12.13 2.25,11 C2.25,10.59 2.59,10.25 3,10.25 C3.41,10.25 3.75,10.59 3.75,11 C3.75,11.55 4.2,12.24 4.7,12.47 L11.49,15.49 C11.81,15.63 12.18,15.63 12.51,15.49 L19.3,12.47 C19.8,12.25 20.25,11.55 20.25,11 C20.25,10.59 20.59,10.25 21,10.25 C21.41,10.25 21.75,10.59 21.75,11 C21.75,12.13 20.94,13.38 19.91,13.84 L13.12,16.86 C12.76,17.01 12.38,17.09 12,17.09 Z"/>
  <path fill="#292D32" d="M12,22.09 C11.62,22.09 11.24,22.01 10.88,21.85 L4.09,18.83 C2.97,18.33 2.25,17.22 2.25,15.99 C2.25,15.58 2.59,15.24 3,15.24 C3.41,15.24 3.75,15.59 3.75,16 C3.75,16.63 4.12,17.21 4.7,17.47 L11.49,20.49 C11.81,20.63 12.18,20.63 12.51,20.49 L19.3,17.47 C19.88,17.21 20.25,16.64 20.25,16 C20.25,15.59 20.59,15.25 21,15.25 C21.41,15.25 21.75,15.59 21.75,16 C21.75,17.23 21.03,18.34 19.91,18.84 L13.12,21.86 C12.76,22.01 12.38,22.09 12,22.09 Z"/>
</svg>

