<svg xmlns="http://www.w3.org/2000/svg" width="24" height="24" viewBox="0 0 24 24">
  <defs/>
  <path fill="#292D32" d="M19.37,4.89 L13.51,2.28 C12.65,1.9 11.35,1.9 10.49,2.28 L4.63,4.89 C3.15,5.55 2.93,6.45 2.93,6.93 C2.93,7.41 3.15,8.31 4.63,8.97 L10.49,11.58 C10.92,11.77 11.46,11.87 12,11.87 C12.54,11.87 13.08,11.77 13.51,11.58 L19.37,8.97 C20.85,8.31 21.07,7.41 21.07,6.93 C21.07,6.45 20.86,5.55 19.37,4.89 Z"/>
  <path fill="#292D32" opacity="0.4" d="M12,17.04 C11.62,17.04 11.24,16.96 10.89,16.81 L4.15,13.81 C3.12,13.35 2.32,12.12 2.32,10.99 C2.32,10.58 2.65,10.25 3.06,10.25 C3.47,10.25 3.8,10.58 3.8,10.99 C3.8,11.53 4.25,12.23 4.75,12.45 L11.49,15.45 C11.81,15.59 12.18,15.59 12.5,15.45 L19.24,12.45 C19.74,12.23 20.19,11.54 20.19,10.99 C20.19,10.58 20.52,10.25 20.93,10.25 C21.34,10.25 21.67,10.58 21.67,10.99 C21.67,12.11 20.87,13.35 19.84,13.81 L13.1,16.81 C12.76,16.96 12.38,17.04 12,17.04 Z"/>
  <path fill="#292D32" opacity="0.4" d="M12,22 C11.62,22 11.24,21.92 10.89,21.77 L4.15,18.77 C3.04,18.28 2.32,17.17 2.32,15.95 C2.32,15.54 2.65,15.21 3.06,15.21 C3.47,15.21 3.8,15.54 3.8,15.95 C3.8,16.58 4.17,17.15 4.75,17.41 L11.49,20.41 C11.81,20.55 12.18,20.55 12.5,20.41 L19.24,17.41 C19.81,17.16 20.19,16.58 20.19,15.95 C20.19,15.54 20.52,15.21 20.93,15.21 C21.34,15.21 21.67,15.54 21.67,15.95 C21.67,17.17 20.95,18.27 19.84,18.77 L13.1,21.77 C12.76,21.92 12.38,22 12,22 Z"/>
</svg>

