<svg xmlns="http://www.w3.org/2000/svg" width="24" height="24" viewBox="0 0 24 24">
  <defs/>
  <path fill="#292D32" d="M19.37,4.891 L13.51,2.281 C12.65,1.901 11.35,1.901 10.49,2.281 L4.63,4.891 C3.15,5.551 2.93,6.451 2.93,6.931 C2.93,7.411 3.15,8.311 4.63,8.971 L10.49,11.581 C10.92,11.771 11.46,11.871 12,11.871 C12.54,11.871 13.08,11.771 13.51,11.581 L19.37,8.971 C20.85,8.311 21.07,7.411 21.07,6.931 C21.07,6.451 20.86,5.551 19.37,4.891 Z"/>
  <path fill="#292D32" d="M12,17.04 C11.62,17.04 11.24,16.96 10.89,16.81 L4.15,13.81 C3.12,13.35 2.32,12.12 2.32,10.99 C2.32,10.58 2.65,10.25 3.06,10.25 C3.47,10.25 3.8,10.58 3.8,10.99 C3.8,11.53 4.25,12.23 4.75,12.45 L11.49,15.45 C11.81,15.59 12.18,15.59 12.5,15.45 L19.24,12.45 C19.74,12.23 20.19,11.54 20.19,10.99 C20.19,10.58 20.52,10.25 20.93,10.25 C21.34,10.25 21.67,10.58 21.67,10.99 C21.67,12.11 20.87,13.35 19.84,13.81 L13.1,16.81 C12.76,16.96 12.38,17.04 12,17.04 Z"/>
  <path fill="#292D32" d="M12,22.001 C11.62,22.001 11.24,21.921 10.89,21.771 L4.15,18.771 C3.04,18.281 2.32,17.171 2.32,15.951 C2.32,15.541 2.65,15.211 3.06,15.211 C3.47,15.211 3.8,15.541 3.8,15.951 C3.8,16.581 4.17,17.151 4.75,17.411 L11.49,20.411 C11.81,20.551 12.18,20.551 12.5,20.411 L19.24,17.411 C19.81,17.161 20.19,16.581 20.19,15.951 C20.19,15.541 20.52,15.211 20.93,15.211 C21.34,15.211 21.67,15.541 21.67,15.951 C21.67,17.171 20.95,18.271 19.84,18.771 L13.1,21.771 C12.76,21.921 12.38,22.001 12,22.001 Z"/>
</svg>

