<svg xmlns="http://www.w3.org/2000/svg" width="24" height="24" viewBox="0 0 24 24">
  <defs/>
  <path fill="#292D32" d="M11.999,22.75 C6.92,22.75 2.49,19.14 1.47,14.17 C1.39,13.76 1.65,13.37 2.05,13.28 C2.46,13.2 2.85,13.46 2.94,13.86 C3.82,18.14 7.63,21.25 11.999,21.25 C16.36,21.25 20.169,18.16 21.059,13.9 C21.14,13.49 21.54,13.23 21.95,13.32 C22.36,13.4 22.619,13.8 22.529,14.21 C21.489,19.15 17.07,22.75 11.999,22.75 Z"/>
  <path fill="#292D32" d="M21.811,10.81 C21.461,10.81 21.151,10.56 21.081,10.2 C20.231,5.88 16.411,2.74 12.001,2.74 C7.621,2.74 3.811,5.85 2.941,10.13 C2.861,10.54 2.461,10.79 2.051,10.71 C1.641,10.63 1.381,10.23 1.471,9.82 C2.491,4.85 6.921,1.24 12.001,1.24 C17.131,1.24 21.561,4.89 22.551,9.91 C22.631,10.32 22.361,10.71 21.961,10.79 C21.911,10.81 21.861,10.81 21.811,10.81 Z"/>
  <path fill="#292D32" d="M12,14.25 C10.76,14.25 9.75,13.24 9.75,12 C9.75,10.76 10.76,9.75 12,9.75 C13.24,9.75 14.25,10.76 14.25,12 C14.25,13.24 13.24,14.25 12,14.25 Z M12,11.25 C11.59,11.25 11.25,11.59 11.25,12 C11.25,12.41 11.59,12.75 12,12.75 C12.41,12.75 12.75,12.41 12.75,12 C12.75,11.59 12.41,11.25 12,11.25 Z"/>
</svg>

