<svg xmlns="http://www.w3.org/2000/svg" width="24" height="24" viewBox="0 0 24 24">
  <defs/>
  <path fill="#292D32" opacity="0.4" d="M12,22 C17.523,22 22,17.523 22,12 C22,6.477 17.523,2 12,2 C6.477,2 2,6.477 2,12 C2,17.523 6.477,22 12,22 Z"/>
  <path fill="#292D32" d="M12,14.25 C13.243,14.25 14.25,13.243 14.25,12 C14.25,10.757 13.243,9.75 12,9.75 C10.757,9.75 9.75,10.757 9.75,12 C9.75,13.243 10.757,14.25 12,14.25 Z"/>
  <path fill="#292D32" d="M7,12.75 L5,12.75 C4.59,12.75 4.25,12.41 4.25,12 C4.25,11.59 4.59,11.25 5,11.25 L7,11.25 C7.41,11.25 7.75,11.59 7.75,12 C7.75,12.41 7.41,12.75 7,12.75 Z"/>
  <path fill="#292D32" d="M19,12.75 L17,12.75 C16.59,12.75 16.25,12.41 16.25,12 C16.25,11.59 16.59,11.25 17,11.25 L19,11.25 C19.41,11.25 19.75,11.59 19.75,12 C19.75,12.41 19.41,12.75 19,12.75 Z"/>
</svg>

