<svg xmlns="http://www.w3.org/2000/svg" width="24" height="24" viewBox="0 0 24 24">
  <defs/>
  <path fill="#292D32" d="M12,2 C6.48,2 2,6.48 2,12 C2,17.52 6.48,22 12,22 C17.52,22 22,17.52 22,12 C22,6.48 17.52,2 12,2 Z M7,12.75 L5,12.75 C4.59,12.75 4.25,12.41 4.25,12 C4.25,11.59 4.59,11.25 5,11.25 L7,11.25 C7.41,11.25 7.75,11.59 7.75,12 C7.75,12.41 7.41,12.75 7,12.75 Z M12,14.25 C10.76,14.25 9.75,13.24 9.75,12 C9.75,10.76 10.76,9.75 12,9.75 C13.24,9.75 14.25,10.76 14.25,12 C14.25,13.24 13.24,14.25 12,14.25 Z M19,12.75 L17,12.75 C16.59,12.75 16.25,12.41 16.25,12 C16.25,11.59 16.59,11.25 17,11.25 L19,11.25 C19.41,11.25 19.75,11.59 19.75,12 C19.75,12.41 19.41,12.75 19,12.75 Z"/>
</svg>

