<svg xmlns="http://www.w3.org/2000/svg" width="24" height="24" viewBox="0 0 24 24">
  <defs/>
  <path fill="#292D32" d="M7.501,12.001 C7.501,11.337 7.649,10.708 7.911,10.138 C8.115,9.696 8.08,9.16 7.736,8.816 L5.159,6.239 C4.749,5.829 4.073,5.851 3.742,6.327 C2.622,7.939 1.971,9.894 1.971,12.001 C1.971,14.105 2.621,16.059 3.733,17.671 C4.063,18.148 4.741,18.171 5.152,17.761 L7.735,15.185 C8.079,14.841 8.115,14.304 7.911,13.862 C7.648,13.293 7.501,12.663 7.501,12.001 Z"/>
  <path fill="#292D32" d="M12.001,7.5 C12.664,7.5 13.294,7.648 13.864,7.911 C14.305,8.114 14.842,8.079 15.185,7.736 L17.735,5.186 C18.144,4.777 18.123,4.103 17.649,3.771 C16.043,2.651 14.085,2 11.971,2 C9.867,2 7.92,2.65 6.311,3.762 C5.833,4.093 5.81,4.77 6.22,5.181 L8.781,7.749 C9.127,8.095 9.669,8.129 10.113,7.921 C10.686,7.652 11.325,7.5 12.001,7.5 Z"/>
  <path fill="#292D32" d="M19.89,5.904 C19.713,5.675 19.375,5.663 19.17,5.868 L15.951,9.078 C15.778,9.251 15.758,9.523 15.882,9.734 C16.272,10.4 16.5,11.171 16.5,11.998 C16.5,12.826 16.272,13.597 15.881,14.263 C15.758,14.474 15.777,14.745 15.95,14.918 L19.17,18.138 C19.375,18.343 19.713,18.331 19.891,18.102 C21.196,16.413 21.97,14.295 21.97,11.998 C21.97,9.701 21.196,7.591 19.89,5.904 Z"/>
  <path fill="#292D32" d="M11.999,16.498 C11.171,16.498 10.4,16.27 9.735,15.879 C9.524,15.756 9.252,15.775 9.079,15.948 L5.83,19.198 C5.624,19.403 5.636,19.741 5.866,19.919 C7.554,21.224 9.672,21.998 11.969,21.998 C14.276,21.998 16.396,21.223 18.077,19.909 C18.305,19.731 18.316,19.395 18.111,19.19 L14.886,15.966 C14.715,15.794 14.445,15.773 14.235,15.895 C13.572,16.277 12.811,16.498 11.999,16.498 Z"/>
</svg>

