<svg xmlns="http://www.w3.org/2000/svg" width="24" height="24" viewBox="0 0 24 24">
  <defs/>
  <path fill="#292D32" opacity="0.4" d="M21.971,12 C21.971,14.49 21.061,16.77 19.551,18.52 C19.221,18.9 18.871,19.26 18.491,19.57 C16.751,21.09 14.471,22 11.971,22 C9.481,22 7.201,21.09 5.451,19.58 C5.071,19.25 4.721,18.9 4.391,18.52 C2.881,16.77 1.971,14.49 1.971,12 C1.971,9.51 2.881,7.23 4.401,5.48 C4.721,5.1 5.081,4.74 5.461,4.42 C7.211,2.91 9.481,2 11.971,2 C14.471,2 16.751,2.91 18.491,4.43 C18.871,4.75 19.231,5.1 19.551,5.49 C21.061,7.24 21.971,9.51 21.971,12 Z"/>
  <path fill="#292D32" d="M15.651,14.62 L19.551,18.52 C19.221,18.9 18.871,19.26 18.491,19.57 L14.591,15.67 C13.851,16.19 12.961,16.5 12.001,16.5 C11.021,16.5 10.121,16.18 9.381,15.65 L5.451,19.58 C5.071,19.25 4.721,18.9 4.391,18.52 L8.331,14.59 C7.811,13.85 7.501,12.96 7.501,12 C7.501,11.04 7.811,10.15 8.331,9.41 L4.401,5.48 C4.721,5.1 5.081,4.74 5.461,4.42 L9.381,8.35 C10.121,7.82 11.021,7.5 12.001,7.5 C12.961,7.5 13.851,7.81 14.591,8.33 L18.491,4.43 C18.871,4.75 19.231,5.1 19.551,5.49 L15.651,9.38 C16.181,10.12 16.501,11.02 16.501,12 C16.501,12.98 16.181,13.88 15.651,14.62 Z"/>
</svg>

