<svg xmlns="http://www.w3.org/2000/svg" width="24" height="24" viewBox="0 0 24 24">
  <defs/>
  <path fill="#292D32" d="M11.971,22.75 C6.051,22.75 1.221,17.93 1.221,12 C1.221,6.07 6.051,1.25 11.971,1.25 C17.891,1.25 22.721,6.07 22.721,12 C22.721,17.93 17.901,22.75 11.971,22.75 Z M11.971,2.75 C6.871,2.75 2.721,6.9 2.721,12 C2.721,17.1 6.871,21.25 11.971,21.25 C17.071,21.25 21.221,17.1 21.221,12 C21.221,6.9 17.071,2.75 11.971,2.75 Z"/>
  <path fill="#292D32" d="M12,17.25 C9.1,17.25 6.75,14.89 6.75,12 C6.75,9.11 9.1,6.75 12,6.75 C14.9,6.75 17.25,9.11 17.25,12 C17.25,14.89 14.9,17.25 12,17.25 Z M12,8.25 C9.93,8.25 8.25,9.93 8.25,12 C8.25,14.07 9.93,15.75 12,15.75 C14.07,15.75 15.75,14.07 15.75,12 C15.75,9.93 14.07,8.25 12,8.25 Z"/>
  <path fill="#292D32" d="M8.44,9.21 C8.25,9.21 8.05,9.14 7.91,9 L4.37,5.46 C4.08,5.17 4.08,4.69 4.37,4.4 C4.66,4.11 5.14,4.11 5.43,4.4 L8.97,7.94 C9.26,8.23 9.26,8.7 8.97,9 C8.82,9.14 8.63,9.21 8.44,9.21 Z"/>
  <path fill="#292D32" d="M4.9,19.82 C4.71,19.82 4.52,19.75 4.37,19.6 C4.08,19.31 4.08,18.83 4.37,18.54 L7.91,15 C8.2,14.71 8.68,14.71 8.97,15 C9.26,15.29 9.26,15.77 8.97,16.06 L5.43,19.6 C5.29,19.75 5.09,19.82 4.9,19.82 Z"/>
  <path fill="#292D32" d="M19.04,19.82 C18.849,19.82 18.66,19.75 18.509,19.6 L14.97,16.06 C14.68,15.77 14.68,15.29 14.97,15 C15.259,14.71 15.739,14.71 16.029,15 L19.57,18.54 C19.86,18.83 19.86,19.31 19.57,19.6 C19.43,19.75 19.239,19.82 19.04,19.82 Z"/>
  <path fill="#292D32" d="M15.509,9.21 C15.319,9.21 15.129,9.14 14.979,8.99 C14.689,8.7 14.689,8.22 14.979,7.93 L18.519,4.39 C18.809,4.1 19.289,4.1 19.579,4.39 C19.869,4.68 19.869,5.16 19.579,5.45 L16.039,9 C15.889,9.14 15.699,9.21 15.509,9.21 Z"/>
</svg>

