<svg xmlns="http://www.w3.org/2000/svg" width="24" height="24" viewBox="0 0 24 24">
  <defs/>
  <path fill="#292D32" opacity="0.4" d="M10.751,2.45 C11.441,1.86 12.571,1.86 13.271,2.45 L14.851,3.81 C15.151,4.07 15.711,4.28 16.111,4.28 L17.811,4.28 C18.871,4.28 19.741,5.15 19.741,6.21 L19.741,7.91 C19.741,8.3 19.951,8.87 20.211,9.17 L21.571,10.75 C22.161,11.44 22.161,12.57 21.571,13.27 L20.211,14.85 C19.951,15.15 19.741,15.71 19.741,16.11 L19.741,17.81 C19.741,18.87 18.871,19.74 17.811,19.74 L16.111,19.74 C15.721,19.74 15.151,19.95 14.851,20.21 L13.271,21.57 C12.581,22.16 11.451,22.16 10.751,21.57 L9.171,20.21 C8.871,19.95 8.311,19.74 7.911,19.74 L6.181,19.74 C5.121,19.74 4.251,18.87 4.251,17.81 L4.251,16.1 C4.251,15.71 4.041,15.15 3.791,14.85 L2.441,13.26 C1.861,12.57 1.861,11.45 2.441,10.76 L3.791,9.17 C4.041,8.87 4.251,8.31 4.251,7.92 L4.251,6.21 C4.251,5.15 5.121,4.28 6.181,4.28 L7.911,4.28 C8.301,4.28 8.871,4.07 9.171,3.81 L10.751,2.45 Z"/>
  <path fill="#292D32" d="M16.58,11.07 C16.39,10.8 16.07,10.65 15.691,10.65 L13.74,10.65 C13.61,10.65 13.491,10.6 13.411,10.5 C13.331,10.4 13.29,10.27 13.31,10.13 L13.55,8.57 C13.65,8.11 13.341,7.58 12.88,7.43 C12.45,7.27 11.94,7.49 11.74,7.79 L9.8,10.67 L9.8,10.31 C9.8,9.61 9.5,9.32 8.76,9.32 L8.27,9.32 C7.53,9.32 7.23,9.61 7.23,10.31 L7.23,15.09 C7.23,15.79 7.53,16.08 8.27,16.08 L8.76,16.08 C9.46,16.08 9.76,15.81 9.79,15.17 L11.261,16.3 C11.46,16.5 11.911,16.61 12.23,16.61 L14.08,16.61 C14.72,16.61 15.361,16.13 15.501,15.54 L16.671,11.98 C16.8,11.66 16.77,11.33 16.58,11.07 Z"/>
</svg>

