<svg xmlns="http://www.w3.org/2000/svg" width="24" height="24" viewBox="0 0 24 24">
  <defs/>
  <path fill="#292D32" d="M9.949,22.75 L7.779,22.75 C7.389,22.75 6.609,22.63 6.159,22.19 L4.459,20.88 L5.379,19.69 L7.149,21.06 C7.279,21.17 7.549,21.25 7.779,21.25 L9.949,21.25 C10.319,21.25 10.739,20.94 10.819,20.62 L12.209,16.39 C12.249,16.29 12.279,16.14 12.209,16.03 C12.149,15.94 12.009,15.89 11.839,15.89 L9.549,15.89 C9.159,15.89 8.799,15.72 8.539,15.43 C8.279,15.13 8.169,14.75 8.229,14.34 L8.519,12.5 C8.559,12.33 8.439,12.12 8.279,12.07 C8.149,12.02 7.929,12.11 7.879,12.18 L5.529,15.67 L4.279,14.83 L6.619,11.34 C7.059,10.68 8.019,10.38 8.759,10.66 C9.609,10.94 10.169,11.9 9.969,12.78 L9.719,14.38 L11.809,14.38 C12.479,14.38 13.059,14.66 13.409,15.16 C13.749,15.64 13.819,16.27 13.599,16.87 L12.229,21.03 C12.029,21.97 11.009,22.75 9.949,22.75 Z"/>
  <path fill="#292D32" d="M3.72,22.12 L3.15,22.12 C1.59,22.12 1.26,21.12 1.26,20.28 L1.26,14.68 C1.26,13.84 1.59,12.84 3.15,12.84 L3.72,12.84 C5.28,12.84 5.61,13.84 5.61,14.68 L5.61,20.28 C5.61,21.12 5.28,22.12 3.72,22.12 Z M2.79,20.58 C2.8,20.58 2.9,20.62 3.14,20.62 L3.71,20.62 C3.97,20.62 4.06,20.58 4.08,20.57 C4.08,20.56 4.11,20.49 4.11,20.28 L4.11,14.68 C4.11,14.47 4.08,14.39 4.07,14.38 C4.07,14.4 3.97,14.34 3.72,14.34 L3.15,14.34 C2.89,14.34 2.8,14.38 2.78,14.39 C2.78,14.4 2.75,14.47 2.75,14.68 L2.75,20.28 C2.75,20.49 2.78,20.57 2.79,20.58 Z"/>
  <path fill="#292D32" d="M15.81,13.44 C15.61,13.44 15.41,13.41 15.22,13.34 C14.37,13.06 13.81,12.1 14.01,11.22 L14.26,9.62 L12.17,9.62 C11.5,9.62 10.92,9.34 10.57,8.84 C10.23,8.36 10.16,7.73 10.38,7.13 L11.75,2.97 C11.98,2.03 13.01,1.25 14.06,1.25 L16.23,1.25 C16.62,1.25 17.4,1.37 17.85,1.81 L19.55,3.12 L18.63,4.31 L16.86,2.94 C16.73,2.83 16.46,2.75 16.23,2.75 L14.06,2.75 C13.69,2.75 13.27,3.06 13.19,3.38 L11.8,7.61 C11.76,7.71 11.73,7.86 11.8,7.97 C11.86,8.06 12,8.11 12.17,8.11 L14.46,8.11 C14.85,8.11 15.21,8.28 15.47,8.57 C15.73,8.87 15.84,9.25 15.78,9.66 L15.49,11.5 C15.45,11.67 15.57,11.88 15.73,11.93 C15.87,11.98 16.08,11.9 16.13,11.82 L18.48,8.33 L19.73,9.17 L17.39,12.66 C17.03,13.14 16.41,13.44 15.81,13.44 Z"/>
  <path fill="#292D32" d="M20.86,11.16 L20.29,11.16 C18.73,11.16 18.4,10.16 18.4,9.32 L18.4,3.72 C18.4,2.88 18.73,1.88 20.29,1.88 L20.86,1.88 C22.42,1.88 22.75,2.88 22.75,3.72 L22.75,9.32 C22.75,10.16 22.42,11.16 20.86,11.16 Z M19.93,9.62 C19.94,9.62 20.04,9.66 20.28,9.66 L20.85,9.66 C21.11,9.66 21.2,9.62 21.22,9.61 C21.22,9.6 21.25,9.53 21.25,9.32 L21.25,3.72 C21.25,3.51 21.22,3.44 21.21,3.42 C21.22,3.46 21.11,3.38 20.86,3.38 L20.29,3.38 C20.03,3.38 19.94,3.42 19.92,3.43 C19.92,3.44 19.89,3.51 19.89,3.72 L19.89,9.32 C19.89,9.53 19.92,9.6 19.93,9.62 Z"/>
</svg>

