<svg xmlns="http://www.w3.org/2000/svg" width="24" height="24" viewBox="0 0 24 24">
  <defs/>
  <path fill="#292D32" opacity="0.4" d="M18,18.86 L17.24,18.86 C16.44,18.86 15.68,19.17 15.12,19.73 L13.41,21.42 C12.63,22.19 11.36,22.19 10.58,21.42 L8.87,19.73 C8.31,19.17 7.54,18.86 6.75,18.86 L6,18.86 C4.34,18.86 3,17.53 3,15.89 L3,4.98 C3,3.34 4.34,2.01 6,2.01 L18,2.01 C19.66,2.01 21,3.34 21,4.98 L21,15.89 C21,17.52 19.66,18.86 18,18.86 Z"/>
  <path fill="#292D32" d="M16.581,9.57 C16.39,9.3 16.07,9.15 15.691,9.15 L13.741,9.15 C13.611,9.15 13.491,9.1 13.411,9 C13.331,8.9 13.29,8.77 13.31,8.63 L13.55,7.07 C13.65,6.61 13.341,6.08 12.88,5.93 C12.45,5.77 11.941,5.99 11.741,6.29 L9.8,9.17 L9.8,8.81 C9.8,8.11 9.5,7.82 8.76,7.82 L8.27,7.82 C7.53,7.82 7.23,8.11 7.23,8.81 L7.23,13.59 C7.23,14.29 7.53,14.58 8.27,14.58 L8.76,14.58 C9.46,14.58 9.76,14.31 9.79,13.67 L11.261,14.8 C11.46,15 11.911,15.11 12.23,15.11 L14.081,15.11 C14.72,15.11 15.361,14.63 15.501,14.04 L16.671,10.48 C16.8,10.16 16.77,9.83 16.581,9.57 Z"/>
</svg>

