<svg xmlns="http://www.w3.org/2000/svg" width="24" height="24" viewBox="0 0 24 24">
  <defs/>
  <path fill="#292D32" d="M16.279,22.1 L12.479,22.1 C11.919,22.1 10.699,21.93 10.049,21.28 L7.019,18.94 L7.939,17.75 L11.039,20.15 C11.289,20.39 11.919,20.59 12.479,20.59 L16.279,20.59 C17.179,20.59 18.149,19.87 18.349,19.06 L20.769,11.71 C20.929,11.27 20.899,10.87 20.689,10.58 C20.469,10.27 20.069,10.09 19.579,10.09 L15.579,10.09 C15.059,10.09 14.579,9.87 14.249,9.49 C13.909,9.1 13.759,8.58 13.839,8.04 L14.339,4.83 C14.459,4.27 14.079,3.64 13.539,3.46 C13.049,3.28 12.419,3.54 12.199,3.86 L8.099,9.96 L6.859,9.13 L10.959,3.03 C11.589,2.09 12.969,1.64 14.049,2.05 C15.299,2.46 16.099,3.84 15.819,5.12 L15.329,8.27 C15.319,8.34 15.319,8.44 15.389,8.52 C15.439,8.57 15.509,8.6 15.589,8.6 L19.589,8.6 C20.569,8.6 21.419,9.01 21.919,9.72 C22.409,10.41 22.509,11.32 22.189,12.2 L19.799,19.48 C19.429,20.93 17.889,22.1 16.279,22.1 Z"/>
  <path fill="#292D32" d="M5.381,21 L4.381,21 C2.531,21 1.631,20.13 1.631,18.35 L1.631,8.55 C1.631,6.77 2.531,5.9 4.381,5.9 L5.381,5.9 C7.231,5.9 8.131,6.77 8.131,8.55 L8.131,18.35 C8.131,20.13 7.231,21 5.381,21 Z M4.381,7.4 C3.291,7.4 3.131,7.66 3.131,8.55 L3.131,18.35 C3.131,19.24 3.291,19.5 4.381,19.5 L5.381,19.5 C6.471,19.5 6.631,19.24 6.631,18.35 L6.631,8.55 C6.631,7.66 6.471,7.4 5.381,7.4 L4.381,7.4 Z"/>
</svg>

