<svg xmlns="http://www.w3.org/2000/svg" width="24" height="24" viewBox="0 0 24 24">
  <defs/>
  <path fill="#292D32" d="M10.348,14.226 L11.836,15.376 L11.869,15.41 Q11.93,15.47 12.229,15.47 L13.999,15.47 Q14.479,15.47 14.581,15.058 L14.588,15.032 L15.719,11.578 L15.722,11.57 Q15.762,11.456 15.728,11.409 Q15.684,11.35 15.539,11.35 L13.669,11.35 Q13.115,11.35 12.753,10.941 Q12.385,10.526 12.455,9.95 L12.456,9.938 L12.691,8.405 L12.696,8.383 Q12.72,8.268 12.582,8.222 L12.568,8.217 L12.554,8.212 Q12.466,8.178 12.41,8.261 L10.491,11.109 L9.247,10.271 L11.169,7.419 Q11.885,6.363 13.07,6.803 Q14.455,7.272 14.167,8.674 L13.987,9.85 L15.539,9.85 Q16.445,9.85 16.938,10.523 Q17.438,11.206 17.139,12.061 L16.03,15.45 Q15.635,16.97 13.999,16.97 L12.229,16.97 Q11.345,16.97 10.849,16.509 L9.431,15.414 Z"/>
  <path fill="#292D32" d="M6.75,14.82 L6.75,10.24 Q6.75,8.6 8.44,8.6 L8.91,8.6 Q9.697,8.6 10.129,8.993 Q10.6,9.422 10.6,10.24 L10.6,14.82 Q10.6,16.46 8.91,16.46 L8.44,16.46 Q6.75,16.46 6.75,14.82 Z M8.25,14.82 L8.23,14.96 L8.44,14.96 L8.91,14.96 Q9.1,14.96 9.1,14.82 L9.1,10.24 L9.119,10.102 Q9.117,10.1 8.91,10.1 L8.44,10.1 Q8.25,10.1 8.25,10.24 Z"/>
  <path fill="#292D32" d="M15.191,20.54 L13.671,22.06 Q12.01,23.721 10.35,22.06 L8.83,20.54 Q8.58,20.29 8.23,20.29 L6.08,20.29 Q3.73,20.29 3.73,17.94 L3.73,15.79 Q3.73,15.441 3.48,15.19 L1.96,13.67 Q1.275,12.986 1.275,12.01 Q1.275,11.034 1.96,10.35 L3.48,8.83 Q3.73,8.579 3.73,8.23 L3.73,6.08 Q3.73,5.109 4.42,4.42 Q5.11,3.73 6.08,3.73 Q6.391,3.73 6.611,3.95 Q6.83,4.169 6.83,4.48 Q6.83,4.791 6.611,5.01 Q6.391,5.23 6.08,5.23 Q5.23,5.23 5.23,6.08 L5.23,8.23 Q5.23,9.201 4.541,9.89 L3.021,11.41 Q2.775,11.656 2.775,12.01 Q2.775,12.364 3.021,12.61 L4.541,14.13 Q5.23,14.819 5.23,15.79 L5.23,17.94 Q5.23,18.79 6.08,18.79 L8.23,18.79 Q9.201,18.79 9.891,19.48 L11.411,21 Q12.01,21.599 12.61,21 L14.13,19.48 Q14.35,19.26 14.66,19.26 Q14.971,19.26 15.191,19.48 Q15.41,19.699 15.41,20.01 Q15.41,20.321 15.191,20.54 Z"/>
  <path fill="#292D32" d="M8.809,3.46 L10.329,1.94 Q11.014,1.255 11.99,1.255 Q12.965,1.255 13.65,1.94 L15.17,3.46 Q15.421,3.71 15.77,3.71 L17.92,3.71 Q20.27,3.71 20.27,6.06 L20.27,8.21 Q20.27,8.559 20.52,8.81 L22.04,10.33 Q22.725,11.014 22.725,11.99 Q22.725,12.966 22.04,13.65 L20.52,15.17 Q20.27,15.421 20.27,15.77 L20.27,17.92 Q20.27,20.27 17.92,20.27 Q17.609,20.27 17.39,20.05 Q17.17,19.831 17.17,19.52 Q17.17,19.209 17.39,18.99 Q17.609,18.77 17.92,18.77 Q18.77,18.77 18.77,17.92 L18.77,15.77 Q18.77,14.799 19.459,14.11 L20.98,12.59 Q21.225,12.344 21.225,11.99 Q21.225,11.636 20.98,11.39 L19.459,9.87 Q18.77,9.181 18.77,8.21 L18.77,6.06 Q18.77,5.21 17.92,5.21 L15.77,5.21 Q14.799,5.21 14.11,4.52 L12.589,3 Q12.344,2.755 11.99,2.755 Q11.635,2.755 11.39,3 L9.87,4.52 Q9.651,4.74 9.34,4.74 Q9.029,4.74 8.81,4.52 Q8.59,4.301 8.59,3.99 Q8.59,3.679 8.809,3.46 Z"/>
</svg>

