<svg xmlns="http://www.w3.org/2000/svg" width="24" height="24" viewBox="0 0 24 24">
  <defs/>
  <path fill="#292D32" d="M12.009,22.75 C11.379,22.75 10.749,22.54 10.259,22.12 L8.679,20.76 C8.519,20.62 8.119,20.48 7.909,20.48 L6.179,20.48 C4.699,20.48 3.499,19.28 3.499,17.8 L3.499,16.09 C3.499,15.88 3.359,15.49 3.219,15.33 L1.869,13.74 C1.049,12.77 1.049,11.24 1.869,10.27 L3.219,8.68 C3.359,8.52 3.499,8.13 3.499,7.92 L3.499,6.21 C3.499,4.73 4.699,3.53 6.179,3.53 L7.909,3.53 C8.119,3.53 8.519,3.38 8.679,3.25 L10.259,1.89 C11.239,1.05 12.769,1.05 13.749,1.89 L15.329,3.25 C15.489,3.39 15.889,3.53 16.099,3.53 L17.799,3.53 C19.279,3.53 20.479,4.73 20.479,6.21 L20.479,7.91 C20.479,8.12 20.629,8.52 20.769,8.68 L22.119,10.26 C22.959,11.24 22.959,12.77 22.119,13.75 L20.769,15.33 C20.629,15.49 20.489,15.89 20.489,16.1 L20.489,17.8 C20.489,19.28 19.289,20.48 17.809,20.48 L16.109,20.48 C15.899,20.48 15.499,20.63 15.339,20.76 L13.759,22.12 C13.259,22.54 12.629,22.75 12.009,22.75 Z M6.179,5.02 C5.529,5.02 4.999,5.55 4.999,6.2 L4.999,7.91 C4.999,8.48 4.729,9.21 4.369,9.64 L3.019,11.23 C2.669,11.64 2.669,12.35 3.019,12.76 L4.369,14.35 C4.739,14.79 5.009,15.52 5.009,16.08 L5.009,17.79 C5.009,18.44 5.539,18.97 6.189,18.97 L7.919,18.97 C8.499,18.97 9.229,19.24 9.669,19.62 L11.249,20.98 C11.659,21.33 12.379,21.33 12.789,20.98 L14.369,19.62 C14.809,19.25 15.539,18.97 16.119,18.97 L17.819,18.97 C18.469,18.97 18.999,18.44 18.999,17.79 L18.999,16.09 C18.999,15.51 19.269,14.78 19.649,14.34 L20.999,12.76 C21.349,12.35 21.349,11.63 20.999,11.22 L19.649,9.64 C19.279,9.2 18.999,8.47 18.999,7.89 L18.999,6.19 C18.999,5.54 18.469,5.01 17.819,5.01 L16.119,5.01 C15.549,5.01 14.809,4.74 14.369,4.36 L12.789,3 C12.379,2.65 11.659,2.65 11.249,3 L9.669,4.36 C9.229,4.73 8.499,5.01 7.919,5.01 L6.179,5.01 L6.179,5.02 Z"/>
  <path fill="#292D32" d="M14,16.97 L12.22,16.97 C11.8,16.97 11.17,16.84 10.8,16.47 L9.42,15.41 L10.34,14.22 L11.79,15.34 C11.89,15.41 12.07,15.46 12.22,15.46 L14,15.46 C14.24,15.46 14.53,15.25 14.58,15.04 L15.72,11.57 C15.75,11.48 15.75,11.42 15.74,11.4 C15.72,11.37 15.65,11.34 15.55,11.34 L13.68,11.34 C13.32,11.34 12.99,11.19 12.75,10.92 C12.52,10.65 12.41,10.29 12.46,9.92 L12.7,8.41 C12.72,8.33 12.66,8.23 12.6,8.21 C12.54,8.2 12.45,8.22 12.42,8.25 L10.51,11.09 L9.26,10.25 L11.18,7.4 C11.58,6.8 12.42,6.54 13.1,6.79 C13.86,7.04 14.35,7.9 14.18,8.68 L14,9.82 L15.55,9.82 C16.14,9.82 16.66,10.07 16.97,10.51 C17.27,10.94 17.34,11.5 17.15,12.03 L16.03,15.43 C15.82,16.29 14.93,16.97 14,16.97 Z"/>
  <path fill="#292D32" d="M8.9,16.46 L8.43,16.46 C6.96,16.46 6.74,15.43 6.74,14.82 L6.74,10.24 C6.74,9.63 6.96,8.6 8.43,8.6 L8.9,8.6 C10.37,8.6 10.59,9.63 10.59,10.24 L10.59,14.82 C10.59,15.43 10.37,16.46 8.9,16.46 Z M8.26,14.95 C8.3,14.96 8.36,14.96 8.44,14.96 L8.91,14.96 C8.99,14.96 9.05,14.96 9.09,14.95 C9.09,14.92 9.1,14.88 9.1,14.82 L9.1,10.24 C9.1,10.18 9.1,10.14 9.09,10.11 C9.05,10.1 8.99,10.1 8.91,10.1 L8.44,10.1 C8.36,10.1 8.3,10.1 8.26,10.11 C8.26,10.14 8.25,10.18 8.25,10.24 L8.25,14.82 C8.25,14.88 8.25,14.92 8.26,14.95 Z"/>
</svg>

