<svg xmlns="http://www.w3.org/2000/svg" width="24" height="24" viewBox="0 0 24 24">
  <defs/>
  <path fill="#292D32" d="M10.263,1.88 Q11.998,0.396 13.754,1.876 L15.34,3.242 Q15.673,3.53 16.111,3.53 L17.811,3.53 Q20.491,3.53 20.491,6.21 L20.491,7.91 Q20.491,8.348 20.778,8.679 L22.139,10.261 Q23.624,11.997 22.144,13.753 L20.779,15.339 Q20.491,15.672 20.491,16.11 L20.491,17.81 Q20.491,20.49 17.811,20.49 L16.111,20.49 Q15.673,20.49 15.342,20.777 L13.76,22.138 Q12.023,23.623 10.268,22.143 L8.682,20.778 Q8.349,20.49 7.911,20.49 L6.181,20.49 Q3.501,20.49 3.501,17.81 L3.501,16.1 Q3.501,15.673 3.215,15.33 L1.869,13.745 Q0.41,12.01 1.867,10.277 L3.219,8.684 Q3.501,8.346 3.501,7.92 L3.501,6.21 Q3.501,5.104 4.288,4.317 Q5.075,3.53 6.181,3.53 L7.911,3.53 Q8.349,3.53 8.68,3.243 L10.262,1.881 Z M11.24,3.018 L9.662,4.377 Q8.908,5.03 7.911,5.03 L6.181,5.03 Q5.696,5.03 5.349,5.378 Q5.001,5.726 5.001,6.21 L5.001,7.92 Q5.001,8.889 4.363,9.655 L3.015,11.242 Q2.37,12.01 3.013,12.774 L4.367,14.37 Q5.001,15.13 5.001,16.1 L5.001,17.81 Q5.001,18.99 6.181,18.99 L7.911,18.99 Q8.908,18.99 9.66,19.641 L11.234,20.996 Q12.016,21.656 12.782,21.001 L14.36,19.643 Q15.113,18.99 16.111,18.99 L17.811,18.99 Q18.295,18.99 18.643,18.642 Q18.991,18.294 18.991,17.81 L18.991,16.11 Q18.991,15.112 19.642,14.36 L20.997,12.787 Q21.657,12.004 21.002,11.239 L19.644,9.661 Q18.991,8.907 18.991,7.91 L18.991,6.21 Q18.991,5.03 17.811,5.03 L16.111,5.03 Q15.113,5.03 14.362,4.378 L12.787,3.023 Q12.006,2.365 11.24,3.018 Z"/>
  <g opacity="0.4">
    <path fill="#292D32" d="M10.35,14.226 L11.838,15.376 L11.871,15.41 Q11.932,15.47 12.231,15.47 L14.001,15.47 Q14.481,15.47 14.583,15.058 L14.59,15.032 L15.721,11.578 L15.724,11.57 Q15.764,11.456 15.73,11.409 Q15.686,11.35 15.541,11.35 L13.671,11.35 Q13.117,11.35 12.755,10.941 Q12.387,10.526 12.457,9.95 L12.458,9.938 L12.693,8.405 L12.698,8.383 Q12.722,8.268 12.584,8.222 L12.57,8.217 L12.556,8.212 Q12.468,8.178 12.412,8.261 L10.493,11.109 L9.249,10.271 L11.17,7.419 Q11.887,6.363 13.072,6.803 Q14.457,7.272 14.169,8.674 L13.989,9.85 L15.541,9.85 Q16.447,9.85 16.94,10.523 Q17.44,11.206 17.141,12.061 L16.032,15.45 Q15.637,16.97 14.001,16.97 L12.231,16.97 Q11.347,16.97 10.851,16.509 L9.433,15.414 Z"/>
    <path fill="#292D32" d="M6.75,14.82 L6.75,10.24 Q6.75,8.6 8.44,8.6 L8.91,8.6 Q10.6,8.6 10.6,10.24 L10.6,14.82 Q10.6,16.46 8.91,16.46 L8.44,16.46 Q6.75,16.46 6.75,14.82 Z M8.25,14.82 Q8.25,14.96 8.44,14.96 L8.91,14.96 Q9.1,14.96 9.1,14.82 L9.1,10.24 Q9.1,10.1 8.91,10.1 L8.44,10.1 Q8.25,10.1 8.25,10.24 Z"/>
  </g>
</svg>

