<svg xmlns="http://www.w3.org/2000/svg" width="24" height="24" viewBox="0 0 24 24">
  <defs/>
  <path fill="#292D32" d="M18,2 L6,2 C4.34,2 3,3.33 3,4.97 L3,15.88 C3,17.52 4.34,18.85 6,18.85 L6.76,18.85 C7.56,18.85 8.32,19.16 8.88,19.72 L10.59,21.41 C11.37,22.18 12.64,22.18 13.42,21.41 L15.13,19.72 C15.69,19.16 16.46,18.85 17.25,18.85 L18,18.85 C19.66,18.85 21,17.52 21,15.88 L21,4.97 C21,3.33 19.66,2 18,2 Z M12.28,14.96 C12.13,15.01 11.88,15.01 11.72,14.96 C10.42,14.51 7.5,12.66 7.5,9.51 C7.51,8.12 8.62,7 10,7 C10.82,7 11.54,7.39 12,8 C12.46,7.39 13.18,7 14,7 C15.38,7 16.5,8.12 16.5,9.51 C16.49,12.66 13.58,14.51 12.28,14.96 Z"/>
</svg>

