<svg xmlns="http://www.w3.org/2000/svg" width="24" height="24" viewBox="0 0 24 24">
  <defs/>
  <path fill="#292D32" opacity="0.4" d="M18,18.86 L17.24,18.86 C16.44,18.86 15.68,19.17 15.12,19.73 L13.41,21.42 C12.63,22.19 11.36,22.19 10.58,21.42 L8.87,19.73 C8.31,19.17 7.54,18.86 6.75,18.86 L6,18.86 C4.34,18.86 3,17.53 3,15.89 L3,4.98 C3,3.34 4.34,2.01 6,2.01 L18,2.01 C19.66,2.01 21,3.34 21,4.98 L21,15.89 C21,17.52 19.66,18.86 18,18.86 Z"/>
  <path fill="#292D32" d="M12.28,14.96 C12.13,15.01 11.88,15.01 11.72,14.96 C10.42,14.51 7.5,12.66 7.5,9.51 C7.5,8.12 8.62,7 10,7 C10.82,7 11.54,7.39 12,8 C12.46,7.39 13.18,7 14,7 C15.38,7 16.5,8.12 16.5,9.51 C16.49,12.66 13.58,14.51 12.28,14.96 Z"/>
</svg>

