<svg xmlns="http://www.w3.org/2000/svg" width="24" height="24" viewBox="0 0 24 24">
  <defs/>
  <path fill="#292D32" opacity="0.4" d="M21.651,10.03 C21.261,9.47 20.571,9.15 19.781,9.15 L15.681,9.15 C15.411,9.15 15.161,9.04 14.991,8.84 C14.811,8.64 14.741,8.36 14.781,8.07 L15.291,4.79 C15.511,3.81 14.861,2.71 13.881,2.38 C12.971,2.04 11.901,2.5 11.471,3.15 L7.251,9.42 L7.131,9.62 L7.131,18.46 L7.281,18.61 L10.451,21.06 C10.871,21.48 11.821,21.71 12.491,21.71 L16.391,21.71 C17.731,21.71 19.081,20.7 19.381,19.47 L21.841,11.98 C22.101,11.27 22.031,10.58 21.651,10.03 Z"/>
  <path fill="#292D32" d="M5.21,6.38 L4.18,6.38 C2.63,6.38 2,6.98 2,8.46 L2,18.52 C2,20 2.63,20.6 4.18,20.6 L5.21,20.6 C6.76,20.6 7.39,20 7.39,18.52 L7.39,8.46 C7.39,6.98 6.76,6.38 5.21,6.38 Z"/>
</svg>

