<svg xmlns="http://www.w3.org/2000/svg" width="24" height="24" viewBox="0 0 24 24">
  <defs/>
  <path fill="#292D32" d="M5.379,19.687 L7.187,21.086 L7.22,21.12 Q7.34,21.24 7.78,21.24 L9.95,21.24 Q10.667,21.24 10.822,20.61 L10.828,20.583 L12.211,16.375 L12.215,16.364 Q12.294,16.144 12.203,16.02 Q12.099,15.88 11.83,15.88 L9.54,15.88 Q8.936,15.88 8.541,15.429 Q8.133,14.964 8.228,14.329 L8.522,12.472 L8.527,12.452 Q8.589,12.163 8.283,12.061 L8.271,12.057 L8.26,12.053 Q8.02,11.965 7.881,12.17 L5.543,15.657 L4.297,14.822 L6.639,11.33 Q7.433,10.155 8.768,10.642 Q10.327,11.168 9.998,12.746 L9.739,14.38 L11.83,14.38 Q12.856,14.38 13.409,15.129 Q13.975,15.895 13.629,16.864 L12.271,20.999 Q11.826,22.74 9.95,22.74 L7.78,22.74 Q6.756,22.74 6.199,22.218 L4.461,20.873 Z"/>
  <path fill="#292D32" d="M1.25,20.28 L1.25,14.68 Q1.25,12.84 3.14,12.84 L3.71,12.84 Q5.6,12.84 5.6,14.68 L5.6,20.28 Q5.6,21.199 5.091,21.673 Q4.613,22.12 3.71,22.12 L3.14,22.12 Q1.25,22.12 1.25,20.28 Z M2.75,20.28 Q2.75,20.62 3.14,20.62 L3.71,20.62 Q4.1,20.62 4.1,20.28 L4.1,14.68 Q4.1,14.34 3.71,14.34 L3.14,14.34 Q2.75,14.34 2.75,14.68 Z"/>
  <g opacity="0.4">
    <path fill="#292D32" d="M18.622,4.313 L16.814,2.914 L16.78,2.88 Q16.66,2.76 16.221,2.76 L14.051,2.76 Q13.334,2.76 13.179,3.389 L13.172,3.417 L11.79,7.625 L11.786,7.635 Q11.706,7.855 11.798,7.979 Q11.902,8.12 12.171,8.12 L14.461,8.12 Q15.064,8.12 15.46,8.57 Q15.868,9.035 15.773,9.671 L15.478,11.528 L15.474,11.548 Q15.412,11.836 15.718,11.938 L15.729,11.942 L15.741,11.946 Q15.981,12.035 16.12,11.83 L18.458,8.342 L19.704,9.177 L17.362,12.67 Q16.567,13.845 15.232,13.358 Q13.674,12.832 14.003,11.253 L14.262,9.62 L12.171,9.62 Q11.145,9.62 10.591,8.87 Q10.025,8.104 10.372,7.136 L11.73,3.001 Q12.174,1.26 14.051,1.26 L16.221,1.26 Q17.245,1.26 17.802,1.781 L19.54,3.127 Z"/>
    <path fill="#292D32" d="M22.75,3.72 L22.75,9.32 Q22.75,11.16 20.86,11.16 L20.29,11.16 Q19.388,11.16 18.909,10.713 Q18.4,10.239 18.4,9.32 L18.4,3.72 Q18.4,1.88 20.29,1.88 L20.86,1.88 Q22.75,1.88 22.75,3.72 Z M21.25,3.72 Q21.25,3.38 20.86,3.38 L20.29,3.38 Q19.9,3.38 19.9,3.72 L19.9,9.32 Q19.9,9.66 20.29,9.66 L20.86,9.66 Q21.25,9.66 21.25,9.32 Z"/>
  </g>
</svg>

