<svg xmlns="http://www.w3.org/2000/svg" width="24" height="24" viewBox="0 0 24 24">
  <defs/>
  <path fill="#292D32" d="M14.229,16.11 L12.249,16.11 C11.789,16.11 11.119,15.97 10.729,15.58 L9.189,14.39 L10.109,13.2 L11.719,14.45 C11.839,14.54 12.059,14.6 12.249,14.6 L14.229,14.6 C14.529,14.6 14.889,14.34 14.959,14.08 L16.219,10.23 C16.249,10.15 16.279,10.04 16.229,9.96 C16.189,9.9 16.079,9.86 15.949,9.86 L13.869,9.86 C13.499,9.86 13.149,9.7 12.899,9.42 C12.659,9.14 12.549,8.76 12.599,8.38 L12.859,6.71 C12.889,6.58 12.799,6.43 12.689,6.39 C12.599,6.36 12.449,6.41 12.409,6.46 L10.279,9.63 L9.029,8.79 L11.159,5.62 C11.579,4.99 12.469,4.7 13.189,4.97 C13.999,5.24 14.519,6.14 14.339,6.98 L14.129,8.35 L15.949,8.35 C16.579,8.35 17.129,8.62 17.459,9.09 C17.779,9.55 17.849,10.14 17.649,10.71 L16.409,14.49 C16.179,15.38 15.219,16.11 14.229,16.11 Z"/>
  <path fill="#292D32" d="M8.56,15.54 L8.04,15.54 C6.48,15.54 6.25,14.45 6.25,13.8 L6.25,8.71 C6.25,8.06 6.48,6.97 8.04,6.97 L8.56,6.97 C10.12,6.97 10.35,8.06 10.35,8.71 L10.35,13.8 C10.35,14.45 10.12,15.54 8.56,15.54 Z M7.78,14.03 C7.81,14.03 7.89,14.04 8.04,14.04 L8.56,14.04 C8.72,14.04 8.81,14.02 8.84,14.01 C8.84,13.99 8.85,13.93 8.85,13.8 L8.85,8.71 C8.85,8.58 8.84,8.51 8.83,8.49 C8.81,8.49 8.73,8.48 8.56,8.48 L8.04,8.48 C7.88,8.48 7.79,8.5 7.76,8.51 C7.76,8.53 7.75,8.59 7.75,8.72 L7.75,13.81 C7.75,13.94 7.76,14.01 7.77,14.04 C7.77,14.03 7.78,14.03 7.78,14.03 Z"/>
  <path fill="#292D32" d="M12,22.75 C11.3,22.75 10.59,22.48 10.06,21.95 L8.35,20.26 C7.92,19.84 7.36,19.61 6.76,19.61 L6,19.61 C3.93,19.61 2.25,17.94 2.25,15.89 L2.25,4.98 C2.25,2.93 3.93,1.26 6,1.26 L18,1.26 C20.07,1.26 21.75,2.93 21.75,4.98 L21.75,15.89 C21.75,17.94 20.07,19.61 18,19.61 L17.24,19.61 C16.64,19.61 16.07,19.84 15.65,20.26 L13.94,21.95 C13.41,22.48 12.7,22.75 12,22.75 Z M6,2.75 C4.76,2.75 3.75,3.75 3.75,4.97 L3.75,15.88 C3.75,17.11 4.76,18.1 6,18.1 L6.76,18.1 C7.76,18.1 8.7,18.49 9.41,19.19 L11.12,20.88 C11.61,21.36 12.4,21.36 12.89,20.88 L14.6,19.19 C15.31,18.49 16.25,18.1 17.25,18.1 L18,18.1 C19.24,18.1 20.25,17.1 20.25,15.88 L20.25,4.97 C20.25,3.74 19.24,2.75 18,2.75 L6,2.75 Z"/>
</svg>

