<svg xmlns="http://www.w3.org/2000/svg" width="24" height="24" viewBox="0 0 24 24">
  <defs/>
  <path fill="#292D32" d="M21.561,10.739 L20.201,9.159 C19.941,8.859 19.731,8.299 19.731,7.899 L19.731,6.199 C19.731,5.139 18.861,4.269 17.801,4.269 L16.101,4.269 C15.711,4.269 15.141,4.059 14.841,3.799 L13.261,2.439 C12.571,1.849 11.441,1.849 10.741,2.439 L9.171,3.809 C8.871,4.059 8.301,4.269 7.911,4.269 L6.181,4.269 C5.121,4.269 4.251,5.139 4.251,6.199 L4.251,7.909 C4.251,8.299 4.041,8.859 3.791,9.159 L2.441,10.749 C1.861,11.439 1.861,12.559 2.441,13.249 L3.791,14.839 C4.041,15.139 4.251,15.699 4.251,16.089 L4.251,17.799 C4.251,18.859 5.121,19.729 6.181,19.729 L7.911,19.729 C8.301,19.729 8.871,19.939 9.171,20.199 L10.751,21.559 C11.441,22.149 12.571,22.149 13.271,21.559 L14.851,20.199 C15.151,19.939 15.711,19.729 16.111,19.729 L17.811,19.729 C18.871,19.729 19.741,18.859 19.741,17.799 L19.741,16.099 C19.741,15.709 19.951,15.139 20.211,14.839 L21.571,13.259 C22.151,12.569 22.151,11.429 21.561,10.739 Z M16.681,11.999 L15.511,15.559 C15.361,16.149 14.731,16.629 14.091,16.629 L12.241,16.629 C11.921,16.629 11.471,16.519 11.271,16.319 L9.801,15.169 C9.771,15.809 9.481,16.079 8.771,16.079 L8.291,16.079 C7.551,16.079 7.251,15.789 7.251,15.089 L7.251,10.309 C7.251,9.609 7.551,9.319 8.291,9.319 L8.781,9.319 C9.521,9.319 9.821,9.609 9.821,10.309 L9.821,10.669 L11.761,7.789 C11.961,7.479 12.471,7.259 12.901,7.429 C13.371,7.589 13.671,8.109 13.571,8.569 L13.331,10.129 C13.311,10.269 13.341,10.399 13.431,10.499 C13.511,10.589 13.631,10.649 13.761,10.649 L15.711,10.649 C16.091,10.649 16.411,10.799 16.601,11.069 C16.771,11.329 16.801,11.659 16.681,11.999 Z"/>
</svg>

