<svg xmlns="http://www.w3.org/2000/svg" width="24" height="24" viewBox="0 0 24 24">
  <defs/>
  <path fill="#292D32" opacity="0.4" d="M13.15,15.37 C12.93,15.05 12.54,14.87 12.09,14.87 L9.76,14.87 C9.61,14.87 9.46,14.81 9.37,14.69 C9.27,14.57 9.23,14.42 9.25,14.25 L9.54,12.39 C9.66,11.84 9.29,11.21 8.74,11.02 C8.22,10.83 7.62,11.09 7.37,11.46 L4.98,15.01 L4.91,15.13 L4.91,20.15 L5,20.24 L6.8,21.63 C7.04,21.87 7.58,22 7.96,22 L10.17,22 C10.93,22 11.69,21.43 11.87,20.73 L13.27,16.48 C13.41,16.07 13.37,15.68 13.15,15.37 Z"/>
  <path fill="#292D32" d="M3.82,13.3 L3.24,13.3 C2.36,13.3 2,13.64 2,14.48 L2,20.19 C2,21.03 2.36,21.37 3.24,21.37 L3.82,21.37 C4.7,21.37 5.06,21.03 5.06,20.19 L5.06,14.48 C5.06,13.64 4.7,13.3 3.82,13.3 Z"/>
  <path fill="#292D32" opacity="0.4" d="M11.2,8.6 C11.42,8.92 11.81,9.1 12.26,9.1 L14.59,9.1 C14.74,9.1 14.89,9.16 14.98,9.28 C15.08,9.4 15.12,9.55 15.1,9.72 L14.81,11.58 C14.69,12.13 15.06,12.76 15.61,12.95 C16.13,13.14 16.73,12.88 16.98,12.51 L19.37,8.96 L19.44,8.84 L19.44,3.82 L19.35,3.73 L17.55,2.34 C17.31,2.1 16.77,1.97 16.39,1.97 L14.18,1.97 C13.42,1.97 12.66,2.54 12.48,3.24 L11.08,7.49 C10.94,7.89 10.98,8.29 11.2,8.6 Z"/>
  <path fill="#292D32" d="M20.529,10.67 L21.109,10.67 C21.989,10.67 22.349,10.33 22.349,9.49 L22.349,3.78 C22.349,2.94 21.989,2.6 21.109,2.6 L20.529,2.6 C19.649,2.6 19.289,2.94 19.289,3.78 L19.289,9.49 C19.289,10.33 19.649,10.67 20.529,10.67 Z"/>
</svg>

