<svg xmlns="http://www.w3.org/2000/svg" width="24" height="24" viewBox="0 0 24 24">
  <defs/>
  <path fill="#292D32" d="M2.25,4.97 Q2.25,1.25 6,1.25 L18,1.25 Q21.75,1.25 21.75,4.97 L21.75,15.88 Q21.75,17.423 20.65,18.513 Q19.553,19.6 18,19.6 L17.24,19.6 Q16.301,19.6 15.65,20.25 L13.937,21.943 Q11.995,23.861 10.053,21.944 L8.343,20.253 Q7.689,19.6 6.75,19.6 L6,19.6 Q2.25,19.6 2.25,15.88 L2.25,9.04 Q2.25,8.729 2.47,8.51 Q2.689,8.29 3,8.29 Q3.311,8.29 3.53,8.51 Q3.75,8.729 3.75,9.04 L3.75,15.88 Q3.75,16.798 4.405,17.447 Q5.064,18.1 6,18.1 L6.75,18.1 Q8.311,18.1 9.397,19.187 L11.107,20.876 Q11.995,21.753 12.883,20.877 L14.59,19.19 Q15.679,18.1 17.24,18.1 L18,18.1 Q20.25,18.1 20.25,15.88 L20.25,4.97 Q20.25,2.75 18,2.75 L6,2.75 Q3.75,2.75 3.75,4.97 Q3.75,5.281 3.53,5.5 Q3.311,5.72 3,5.72 Q2.689,5.72 2.47,5.5 Q2.25,5.281 2.25,4.97 Z"/>
  <path fill="#292D32" d="M12.517,15.672 Q12.016,15.838 11.496,15.676 Q11.485,15.672 11.475,15.669 Q6.75,14.033 6.75,9.51 Q6.75,6.25 10,6.25 Q11.166,6.25 12,6.923 Q12.834,6.25 14,6.25 Q15.62,6.25 16.432,7.06 Q17.25,7.875 17.25,9.51 Q17.25,11.329 16.164,12.88 Q15.986,13.135 15.68,13.189 Q15.374,13.243 15.12,13.064 Q14.865,12.886 14.811,12.58 Q14.757,12.274 14.936,12.02 Q15.75,10.856 15.75,9.51 Q15.75,7.75 14,7.75 Q13.128,7.75 12.599,8.452 Q12.536,8.536 12.452,8.599 Q12.204,8.786 11.896,8.743 Q11.588,8.7 11.401,8.452 Q10.872,7.75 10,7.75 Q9.275,7.75 8.764,8.263 Q8.25,8.778 8.25,9.51 Q8.25,12.959 11.951,14.246 Q12.004,14.261 12.043,14.248 Q12.338,14.15 12.615,14.289 Q12.893,14.428 12.992,14.723 Q13.09,15.018 12.951,15.295 Q12.812,15.573 12.517,15.672 Z"/>
</svg>

