<svg xmlns="http://www.w3.org/2000/svg" width="24" height="24" viewBox="0 0 24 24">
  <defs/>
  <path fill="#292D32" d="M7.939,17.757 L11.077,20.186 L11.11,20.22 Q11.491,20.6 12.48,20.6 L16.28,20.6 Q17.969,20.6 18.352,19.068 L18.359,19.042 L20.77,11.707 L20.774,11.698 Q21.013,11.027 20.676,10.57 Q20.33,10.1 19.58,10.1 L15.58,10.1 Q14.777,10.1 14.255,9.509 Q13.716,8.897 13.838,8.044 L14.343,4.811 L14.348,4.787 Q14.567,3.803 13.543,3.461 L13.53,3.457 L13.517,3.452 Q12.687,3.141 12.204,3.866 L8.102,9.968 L6.858,9.132 L10.956,3.034 Q12.096,1.325 14.03,2.043 Q16.311,2.81 15.817,5.088 L15.322,8.256 Q15.298,8.424 15.38,8.516 Q15.454,8.6 15.58,8.6 L19.58,8.6 Q21.088,8.6 21.884,9.68 Q22.692,10.776 22.19,12.193 L19.801,19.459 Q19.126,22.1 16.28,22.1 L12.48,22.1 Q10.906,22.1 10.087,21.317 L7.021,18.943 Z"/>
  <path fill="#292D32" d="M1.63,18.35 L1.63,8.55 Q1.63,7.185 2.346,6.524 Q3.022,5.9 4.38,5.9 L5.38,5.9 Q8.13,5.9 8.13,8.55 L8.13,18.35 Q8.13,21 5.38,21 L4.38,21 Q1.63,21 1.63,18.35 Z M3.13,18.35 Q3.13,19.5 4.38,19.5 L5.38,19.5 Q6.63,19.5 6.63,18.35 L6.63,8.55 Q6.63,7.4 5.38,7.4 L4.38,7.4 Q3.609,7.4 3.364,7.626 Q3.13,7.842 3.13,8.55 Z"/>
</svg>

