<svg xmlns="http://www.w3.org/2000/svg" width="24" height="24" viewBox="0 0 24 24">
  <defs/>
  <path fill="#292D32" d="M20.774,11.698 Q21.014,11.027 20.677,10.57 Q20.33,10.1 19.58,10.1 L15.58,10.1 Q14.777,10.1 14.256,9.509 Q13.716,8.897 13.838,8.044 L14.339,4.834 Q14.343,4.811 14.348,4.787 Q14.567,3.803 13.543,3.461 Q13.53,3.457 13.517,3.452 Q12.688,3.141 12.205,3.866 L8.103,9.968 Q7.93,10.226 7.625,10.286 Q7.32,10.346 7.062,10.172 Q6.804,9.999 6.744,9.694 Q6.685,9.389 6.858,9.132 L10.956,3.034 Q12.096,1.325 14.031,2.043 Q16.311,2.81 15.818,5.088 L15.323,8.256 Q15.299,8.424 15.38,8.516 Q15.454,8.6 15.58,8.6 L19.58,8.6 Q21.088,8.6 21.884,9.68 Q22.695,10.78 22.187,12.202 Q22.082,12.495 21.802,12.628 Q21.521,12.761 21.228,12.656 Q20.936,12.552 20.803,12.271 Q20.67,11.99 20.774,11.698 Z"/>
  <path fill="#292D32" d="M7.94,17.757 L11.04,20.157 Q11.077,20.186 11.111,20.22 Q11.491,20.6 12.481,20.6 L16.281,20.6 Q17.97,20.6 18.353,19.068 Q18.36,19.042 18.368,19.016 L19.608,15.246 Q19.705,14.951 19.982,14.811 Q20.26,14.67 20.555,14.768 Q20.85,14.865 20.99,15.142 Q21.13,15.419 21.033,15.714 L19.801,19.459 Q19.126,22.1 16.281,22.1 L12.481,22.1 Q10.906,22.1 10.087,21.317 L7.021,18.943 Q6.776,18.753 6.736,18.445 Q6.697,18.137 6.887,17.891 Q7.078,17.645 7.386,17.606 Q7.694,17.567 7.94,17.757 Z"/>
  <path fill="#292D32" d="M1.631,18.35 L1.631,8.55 Q1.631,7.185 2.347,6.524 Q3.023,5.9 4.381,5.9 L5.381,5.9 Q6.739,5.9 7.415,6.524 Q8.131,7.185 8.131,8.55 L8.131,18.35 Q8.131,21 5.381,21 L4.381,21 Q1.631,21 1.631,18.35 Z M3.131,18.35 Q3.131,19.5 4.381,19.5 L5.381,19.5 Q6.152,19.5 6.397,19.274 Q6.631,19.058 6.631,18.35 L6.631,8.55 Q6.631,7.4 5.381,7.4 L4.381,7.4 Q3.61,7.4 3.365,7.626 Q3.131,7.842 3.131,8.55 Z"/>
</svg>

