<svg xmlns="http://www.w3.org/2000/svg" width="24" height="24" viewBox="0 0 24 24">
  <defs/>
  <path fill="#292D32" d="M10.11,13.208 L11.757,14.486 L11.79,14.52 Q11.881,14.61 12.25,14.61 L14.23,14.61 Q14.828,14.61 14.964,14.083 L14.97,14.059 L16.231,10.237 L16.233,10.228 Q16.293,10.06 16.232,9.978 Q16.16,9.88 15.95,9.88 L13.87,9.88 Q13.293,9.88 12.914,9.452 Q12.523,9.012 12.607,8.407 L12.872,6.714 L12.876,6.694 Q12.919,6.494 12.702,6.424 L12.682,6.418 L12.663,6.411 Q12.502,6.35 12.42,6.476 L10.283,9.658 L9.038,8.822 L11.16,5.663 Q11.895,4.524 13.177,5.002 Q14.656,5.484 14.348,6.985 L14.129,8.38 L15.95,8.38 Q16.915,8.38 17.438,9.085 Q17.972,9.806 17.65,10.722 L16.41,14.483 Q15.976,16.11 14.23,16.11 L12.25,16.11 Q11.295,16.11 10.769,15.618 L9.19,14.392 Z"/>
  <path fill="#292D32" d="M6.25,13.8 L6.25,8.71 Q6.25,6.97 8.04,6.97 L8.56,6.97 Q9.409,6.97 9.863,7.391 Q10.35,7.842 10.35,8.71 L10.35,13.8 Q10.35,14.668 9.863,15.119 Q9.409,15.54 8.56,15.54 L8.04,15.54 Q7.191,15.54 6.737,15.119 Q6.25,14.668 6.25,13.8 Z M7.75,13.8 Q7.75,14.013 7.756,14.018 Q7.779,14.04 8.04,14.04 L8.56,14.04 Q8.821,14.04 8.844,14.018 Q8.85,14.013 8.85,13.8 L8.85,8.71 Q8.85,8.47 8.56,8.47 L8.04,8.47 Q7.75,8.47 7.75,8.71 Z"/>
  <path fill="#292D32" d="M18,19.61 L17.24,19.61 Q16.301,19.61 15.65,20.26 L13.937,21.953 Q11.995,23.871 10.053,21.954 L8.343,20.263 Q7.689,19.61 6.75,19.61 L6,19.61 Q2.25,19.61 2.25,15.89 L2.25,4.98 Q2.25,3.437 3.35,2.347 Q4.447,1.26 6,1.26 L18,1.26 Q19.553,1.26 20.65,2.347 Q21.75,3.437 21.75,4.98 L21.75,15.89 Q21.75,19.61 18,19.61 Z M18,18.11 Q20.25,18.11 20.25,15.89 L20.25,4.98 Q20.25,2.76 18,2.76 L6,2.76 Q5.064,2.76 4.405,3.413 Q3.75,4.062 3.75,4.98 L3.75,15.89 Q3.75,18.11 6,18.11 L6.75,18.11 Q8.311,18.11 9.397,19.197 L11.107,20.886 Q11.995,21.763 12.883,20.887 L14.59,19.2 Q15.679,18.11 17.24,18.11 Z"/>
</svg>

