<svg xmlns="http://www.w3.org/2000/svg" width="24" height="24" viewBox="0 0 24 24">
  <defs/>
  <path fill="#292D32" d="M18,19.61 L17.24,19.61 Q16.301,19.61 15.65,20.26 L13.937,21.953 Q11.995,23.87 10.053,21.953 L8.343,20.263 Q7.689,19.61 6.75,19.61 L6,19.61 Q2.25,19.61 2.25,15.89 L2.25,4.98 Q2.25,3.436 3.35,2.347 Q4.447,1.26 6,1.26 L18,1.26 Q21.75,1.26 21.75,4.98 L21.75,15.89 Q21.75,19.61 18,19.61 Z M18,18.11 Q20.25,18.11 20.25,15.89 L20.25,4.98 Q20.25,2.76 18,2.76 L6,2.76 Q5.064,2.76 4.405,3.413 Q3.75,4.062 3.75,4.98 L3.75,15.89 Q3.75,18.11 6,18.11 L6.75,18.11 Q8.311,18.11 9.397,19.196 L11.107,20.886 Q11.995,21.763 12.883,20.886 L14.59,19.199 Q15.679,18.11 17.24,18.11 Z"/>
  <path fill="#292D32" opacity="0.4" d="M12.517,15.672 Q12.016,15.838 11.496,15.676 Q11.485,15.672 11.475,15.669 Q6.75,14.033 6.75,9.51 Q6.75,6.25 10,6.25 Q11.166,6.25 12,6.923 Q12.834,6.25 14,6.25 Q15.62,6.25 16.432,7.06 Q17.25,7.875 17.25,9.51 Q17.236,14.038 12.525,15.669 Z M12.041,14.249 Q15.739,12.966 15.75,9.51 Q15.75,7.75 14,7.75 Q13.128,7.75 12.599,8.452 Q12.536,8.536 12.452,8.599 Q12.204,8.786 11.896,8.743 Q11.588,8.7 11.401,8.452 Q10.872,7.75 10,7.75 Q9.275,7.75 8.764,8.263 Q8.25,8.778 8.25,9.51 Q8.25,12.959 11.951,14.246 Q12.003,14.261 12.041,14.249 Z"/>
</svg>

