<svg xmlns="http://www.w3.org/2000/svg" width="24" height="24" viewBox="0 0 24 24">
  <defs/>
  <path fill="#292D32" d="M10.11,13.208 L11.757,14.486 L11.791,14.52 Q11.881,14.61 12.25,14.61 L14.23,14.61 Q14.828,14.61 14.964,14.083 L14.97,14.059 L16.231,10.237 L16.234,10.228 Q16.294,10.06 16.233,9.978 Q16.16,9.88 15.95,9.88 L13.87,9.88 Q13.293,9.88 12.914,9.452 Q12.524,9.012 12.608,8.407 L12.873,6.714 L12.877,6.694 Q12.919,6.494 12.702,6.424 L12.683,6.418 L12.663,6.411 Q12.503,6.35 12.421,6.476 L10.283,9.658 L9.038,8.822 L11.16,5.663 Q11.895,4.524 13.178,5.002 Q14.657,5.484 14.348,6.985 L14.13,8.38 L15.95,8.38 Q16.916,8.38 17.438,9.085 Q17.973,9.806 17.65,10.722 L16.41,14.483 Q15.977,16.11 14.23,16.11 L12.25,16.11 Q11.296,16.11 10.769,15.618 L9.19,14.392 Z"/>
  <path fill="#292D32" d="M6.25,13.8 L6.25,8.71 Q6.25,6.97 8.04,6.97 L8.56,6.97 Q9.409,6.97 9.863,7.391 Q10.35,7.842 10.35,8.71 L10.35,13.8 Q10.35,14.668 9.863,15.119 Q9.409,15.54 8.56,15.54 L8.04,15.54 Q7.191,15.54 6.737,15.119 Q6.25,14.668 6.25,13.8 Z M7.75,13.8 Q7.75,14.013 7.756,14.018 Q7.779,14.04 8.04,14.04 L8.56,14.04 Q8.821,14.04 8.844,14.018 Q8.85,14.013 8.85,13.8 L8.85,8.71 Q8.85,8.47 8.56,8.47 L8.04,8.47 Q7.75,8.47 7.75,8.71 Z"/>
  <path fill="#292D32" d="M2.25,4.97 Q2.25,1.25 6,1.25 L18,1.25 Q21.75,1.25 21.75,4.97 L21.75,15.88 Q21.75,17.423 20.65,18.513 Q19.553,19.6 18,19.6 L17.24,19.6 Q16.301,19.6 15.65,20.25 L13.937,21.943 Q11.995,23.861 10.053,21.944 L8.343,20.253 Q7.689,19.6 6.75,19.6 L6,19.6 Q2.25,19.6 2.25,15.88 L2.25,9.07 Q2.25,8.759 2.47,8.54 Q2.689,8.32 3,8.32 Q3.311,8.32 3.53,8.54 Q3.75,8.759 3.75,9.07 L3.75,15.88 Q3.75,16.798 4.405,17.447 Q5.064,18.1 6,18.1 L6.75,18.1 Q8.311,18.1 9.397,19.187 L11.107,20.876 Q11.995,21.753 12.883,20.877 L14.59,19.19 Q15.679,18.1 17.24,18.1 L18,18.1 Q20.25,18.1 20.25,15.88 L20.25,4.97 Q20.25,2.75 18,2.75 L6,2.75 Q3.75,2.75 3.75,4.97 Q3.75,5.281 3.53,5.5 Q3.311,5.72 3,5.72 Q2.689,5.72 2.47,5.5 Q2.25,5.281 2.25,4.97 Z"/>
</svg>

