<svg xmlns="http://www.w3.org/2000/svg" width="24" height="24" viewBox="0 0 24 24">
  <defs/>
  <path fill="#292D32" d="M10.263,1.88 Q11.997,0.396 13.753,1.876 L15.339,3.242 Q15.672,3.53 16.11,3.53 L17.81,3.53 Q18.916,3.53 19.703,4.317 Q20.49,5.104 20.49,6.21 L20.49,7.91 Q20.49,8.348 20.777,8.679 L22.138,10.261 Q23.623,11.997 22.143,13.753 L20.778,15.339 Q20.49,15.672 20.49,16.11 L20.49,17.81 Q20.49,20.49 17.81,20.49 L16.11,20.49 Q15.672,20.49 15.341,20.777 L13.759,22.138 Q12.023,23.623 10.267,22.143 L8.681,20.778 Q8.348,20.49 7.91,20.49 L6.18,20.49 Q5.074,20.49 4.287,19.703 Q3.5,18.916 3.5,17.81 L3.5,16.1 Q3.5,15.674 3.214,15.33 L1.868,13.745 Q0.41,12.01 1.866,10.277 L3.218,8.685 Q3.5,8.347 3.5,7.92 L3.5,6.21 Q3.5,5.104 4.287,4.317 Q5.074,3.53 6.18,3.53 L7.91,3.53 Q8.348,3.53 8.679,3.243 L10.261,1.882 Z M11.239,3.018 L9.661,4.377 Q8.908,5.03 7.91,5.03 L6.18,5.03 Q5,5.03 5,6.21 L5,7.92 Q5,8.89 4.362,9.655 L3.014,11.243 Q2.369,12.01 3.012,12.775 L4.366,14.37 Q5,15.13 5,16.1 L5,17.81 Q5,18.99 6.18,18.99 L7.91,18.99 Q8.907,18.99 9.659,19.642 L11.233,20.996 Q12.016,21.656 12.781,21.001 L14.359,19.643 Q15.113,18.99 16.11,18.99 L17.81,18.99 Q18.294,18.99 18.642,18.642 Q18.99,18.294 18.99,17.81 L18.99,16.11 Q18.99,15.113 19.642,14.361 L20.997,12.787 Q21.656,12.004 21.002,11.239 L19.643,9.661 Q18.99,8.908 18.99,7.91 L18.99,6.21 Q18.99,5.03 17.81,5.03 L16.11,5.03 Q15.112,5.03 14.361,4.378 L12.787,3.023 Q12.005,2.365 11.239,3.018 Z"/>
  <path fill="#292D32" d="M10.348,14.226 L11.836,15.376 L11.87,15.41 Q11.931,15.47 12.23,15.47 L14,15.47 Q14.479,15.47 14.582,15.058 L14.589,15.032 L15.72,11.578 L15.723,11.57 Q15.763,11.456 15.729,11.409 Q15.685,11.35 15.54,11.35 L13.67,11.35 Q13.116,11.35 12.754,10.941 Q12.386,10.526 12.455,9.95 L12.457,9.938 L12.692,8.405 L12.697,8.383 Q12.721,8.268 12.583,8.222 L12.569,8.217 L12.555,8.212 Q12.467,8.178 12.411,8.261 L10.492,11.109 L9.248,10.271 L11.169,7.419 Q11.886,6.363 13.071,6.803 Q14.456,7.272 14.168,8.674 L13.988,9.85 L15.54,9.85 Q16.446,9.85 16.939,10.523 Q17.439,11.206 17.14,12.061 L16.031,15.45 Q15.636,16.97 14,16.97 L12.23,16.97 Q11.346,16.97 10.85,16.509 L9.432,15.414 Z"/>
  <path fill="#292D32" d="M6.75,14.82 L6.75,10.24 Q6.75,8.6 8.44,8.6 L8.91,8.6 Q9.697,8.6 10.129,8.993 Q10.6,9.422 10.6,10.24 L10.6,14.82 Q10.6,16.46 8.91,16.46 L8.44,16.46 Q6.75,16.46 6.75,14.82 Z M8.25,14.82 L8.23,14.96 L8.44,14.96 L8.91,14.96 Q9.1,14.96 9.1,14.82 L9.1,10.24 L9.119,10.102 Q9.117,10.1 8.91,10.1 L8.44,10.1 Q8.25,10.1 8.25,10.24 Z"/>
</svg>

