<svg xmlns="http://www.w3.org/2000/svg" width="24" height="24" viewBox="0 0 24 24">
  <defs/>
  <path fill="#292D32" d="M8.391,18.491 L8.391,8.331 C8.391,7.931 8.511,7.541 8.731,7.211 L11.461,3.151 C11.891,2.501 12.961,2.041 13.871,2.381 C14.851,2.711 15.501,3.811 15.291,4.791 L14.771,8.061 C14.731,8.361 14.811,8.631 14.981,8.841 C15.151,9.031 15.401,9.151 15.671,9.151 L19.781,9.151 C20.571,9.151 21.251,9.471 21.651,10.031 C22.031,10.571 22.101,11.271 21.851,11.981 L19.391,19.471 C19.081,20.711 17.731,21.721 16.391,21.721 L12.491,21.721 C11.821,21.721 10.881,21.491 10.451,21.061 L9.171,20.071 C8.681,19.701 8.391,19.111 8.391,18.491 Z"/>
  <path fill="#292D32" d="M5.21,6.379 L4.18,6.379 C2.63,6.379 2,6.979 2,8.459 L2,18.519 C2,19.999 2.63,20.599 4.18,20.599 L5.21,20.599 C6.76,20.599 7.39,19.999 7.39,18.519 L7.39,8.459 C7.39,6.979 6.76,6.379 5.21,6.379 Z"/>
</svg>

