<svg xmlns="http://www.w3.org/2000/svg" width="24" height="24" viewBox="0 0 24 24">
  <defs/>
  <path fill="#292D32" d="M12,22.75 C11.3,22.75 10.59,22.48 10.06,21.95 L8.35,20.26 C7.93,19.84 7.35,19.61 6.76,19.61 L6,19.61 C3.93,19.61 2.25,17.94 2.25,15.89 L2.25,4.98 C2.25,2.93 3.93,1.26 6,1.26 L18,1.26 C20.07,1.26 21.75,2.93 21.75,4.98 L21.75,15.89 C21.75,17.94 20.07,19.61 18,19.61 L17.24,19.61 C16.65,19.61 16.07,19.85 15.65,20.26 L13.94,21.95 C13.41,22.48 12.7,22.75 12,22.75 Z M6,2.75 C4.76,2.75 3.75,3.75 3.75,4.97 L3.75,15.88 C3.75,17.11 4.76,18.1 6,18.1 L6.76,18.1 C7.75,18.1 8.71,18.5 9.41,19.19 L11.12,20.88 C11.61,21.36 12.4,21.36 12.89,20.88 L14.6,19.19 C15.3,18.5 16.26,18.1 17.25,18.1 L18,18.1 C19.24,18.1 20.25,17.1 20.25,15.88 L20.25,4.97 C20.25,3.74 19.24,2.75 18,2.75 L6,2.75 Z"/>
  <path fill="#292D32" d="M12,15.75 C11.82,15.75 11.64,15.72 11.48,15.67 C10.16,15.22 6.76,13.23 6.76,9.51 C6.76,7.71 8.22,6.25 10.01,6.25 C10.74,6.25 11.44,6.5 12.01,6.94 C12.58,6.5 13.28,6.25 14.01,6.25 C15.8,6.25 17.26,7.71 17.26,9.51 C17.26,13.23 13.85,15.22 12.54,15.67 C12.36,15.72 12.18,15.75 12,15.75 Z M10,7.75 C9.04,7.75 8.25,8.54 8.25,9.51 C8.25,12.34 11,13.92 11.96,14.25 C11.97,14.25 12.01,14.25 12.04,14.25 C13.01,13.91 15.74,12.33 15.74,9.52 C15.74,8.55 14.96,7.76 13.99,7.76 C13.44,7.76 12.93,8.02 12.59,8.46 C12.31,8.84 11.67,8.84 11.39,8.46 C11.07,8.01 10.56,7.75 10,7.75 Z"/>
</svg>

