<svg xmlns="http://www.w3.org/2000/svg" width="24" height="24" viewBox="0 0 24 24">
  <defs/>
  <path fill="#292D32" d="M13.15,15.371 C12.93,15.051 12.54,14.871 12.09,14.871 L9.76,14.871 C9.61,14.871 9.46,14.811 9.37,14.691 C9.27,14.571 9.23,14.421 9.25,14.251 L9.54,12.391 C9.66,11.841 9.29,11.211 8.74,11.021 C8.22,10.831 7.62,11.091 7.37,11.461 L5.06,14.901 L5.06,14.471 C5.06,13.631 4.7,13.291 3.82,13.291 L3.24,13.291 C2.36,13.301 2,13.641 2,14.481 L2,20.191 C2,21.031 2.36,21.371 3.24,21.371 L3.82,21.371 C4.66,21.371 5.01,21.041 5.04,20.281 L6.79,21.631 C7.04,21.871 7.57,22.001 7.95,22.001 L10.16,22.001 C10.92,22.001 11.68,21.431 11.86,20.731 L13.26,16.481 C13.41,16.071 13.37,15.681 13.15,15.371 Z"/>
  <path fill="#292D32" d="M21.111,2.61 L20.531,2.61 C19.691,2.61 19.341,2.94 19.301,3.7 L17.551,2.35 C17.311,2.11 16.771,1.98 16.391,1.98 L14.181,1.98 C13.421,1.98 12.661,2.55 12.481,3.25 L11.081,7.5 C10.931,7.91 10.981,8.3 11.191,8.61 C11.411,8.93 11.801,9.11 12.251,9.11 L14.581,9.11 C14.731,9.11 14.881,9.17 14.971,9.29 C15.071,9.41 15.111,9.56 15.091,9.73 L14.801,11.591 C14.681,12.14 15.051,12.771 15.601,12.96 C16.121,13.15 16.721,12.89 16.971,12.521 L19.281,9.08 L19.281,9.51 C19.281,10.351 19.641,10.691 20.521,10.691 L21.101,10.691 C21.981,10.691 22.341,10.351 22.341,9.51 L22.341,3.78 C22.351,2.95 21.991,2.61 21.111,2.61 Z"/>
</svg>

