<svg xmlns="http://www.w3.org/2000/svg" width="24" height="24" viewBox="0 0 24 24">
  <defs/>
  <path fill="#292D32" opacity="0.4" d="M12,22 C17.523,22 22,17.523 22,12 C22,6.477 17.523,2 12,2 C6.477,2 2,6.477 2,12 C2,17.523 6.477,22 12,22 Z"/>
  <path fill="#292D32" d="M7.94,15.26 C7.85,15.26 7.77,15.25 7.68,15.21 C6.87,14.91 6.19,14.32 5.76,13.55 C4.76,11.75 5.38,9.4 7.13,8.31 L9.47,6.86 C10.33,6.33 11.34,6.17 12.3,6.42 C13.26,6.67 14.07,7.3 14.56,8.18 C15.56,9.98 14.94,12.33 13.19,13.42 L12.93,13.61 C12.59,13.85 12.12,13.77 11.88,13.44 C11.64,13.1 11.72,12.63 12.05,12.39 L12.36,12.17 C13.48,11.47 13.86,10.02 13.25,8.91 C12.96,8.39 12.49,8.02 11.93,7.87 C11.37,7.72 10.78,7.81 10.27,8.13 L7.93,9.58 C6.85,10.25 6.47,11.7 7.08,12.82 C7.33,13.27 7.73,13.62 8.21,13.8 C8.6,13.94 8.8,14.37 8.65,14.76 C8.54,15.07 8.25,15.26 7.94,15.26 Z"/>
  <path fill="#292D32" d="M12.66,17.65 C12.36,17.65 12.05,17.61 11.75,17.53 C10.79,17.28 9.98,16.65 9.5,15.77 C8.5,13.97 9.12,11.62 10.87,10.53 L11.13,10.34 C11.47,10.1 11.94,10.18 12.18,10.51 C12.42,10.85 12.34,11.32 12.01,11.56 L11.7,11.78 C10.58,12.48 10.2,13.93 10.81,15.04 C11.1,15.56 11.57,15.93 12.13,16.08 C12.69,16.23 13.28,16.14 13.79,15.82 L16.13,14.37 C17.21,13.7 17.59,12.25 16.98,11.13 C16.73,10.68 16.33,10.33 15.85,10.15 C15.46,10.01 15.26,9.58 15.41,9.19 C15.55,8.8 15.99,8.6 16.37,8.75 C17.18,9.05 17.86,9.64 18.29,10.41 C19.29,12.21 18.67,14.56 16.92,15.65 L14.58,17.1 C13.99,17.46 13.33,17.65 12.66,17.65 Z"/>
</svg>

