<svg xmlns="http://www.w3.org/2000/svg" width="24" height="24" viewBox="0 0 24 24">
  <defs/>
  <path fill="#292D32" d="M7.25,12 C7.25,11.59 7.59,11.25 8,11.25 L11,11.25 L11,7.5 C11,6.95 10.55,6.5 10,6.5 L7.77,6.5 C4.62,6.5 1.88,9.08 2,12.22 C2.06,13.65 2.66,14.94 3.61,15.89 C4.61,16.88 5.98,17.5 7.5,17.5 L10,17.5 C10.55,17.5 11,17.05 11,16.5 L11,12.75 L8,12.75 C7.59,12.75 7.25,12.41 7.25,12 Z"/>
  <path fill="#292D32" d="M20.39,8.11 C19.39,7.12 18.02,6.5 16.5,6.5 L14,6.5 C13.45,6.5 13,6.95 13,7.5 L13,11.25 L16,11.25 C16.41,11.25 16.75,11.59 16.75,12 C16.75,12.41 16.41,12.75 16,12.75 L13,12.75 L13,16.5 C13,17.05 13.45,17.5 14,17.5 L16.23,17.5 C19.38,17.5 22.12,14.92 21.99,11.78 C21.94,10.35 21.33,9.06 20.39,8.11 Z"/>
  <path fill="#292D32" d="M13,11.25 L11,11.25 L11,12.75 L13,12.75 L13,11.25 Z"/>
</svg>

