<svg xmlns="http://www.w3.org/2000/svg" width="24" height="24" viewBox="0 0 24 24">
  <defs/>
  <path fill="#292D32" d="M19.071,14.242 C18.781,14.532 18.321,14.532 18.041,14.242 C17.751,13.952 17.751,13.492 18.041,13.212 C20.041,11.212 20.041,7.962 18.041,5.972 C16.041,3.982 12.791,3.972 10.801,5.972 C8.811,7.972 8.801,11.222 10.801,13.212 C11.091,13.502 11.091,13.962 10.801,14.242 C10.511,14.532 10.051,14.532 9.771,14.242 C7.201,11.672 7.201,7.492 9.771,4.932 C12.341,2.372 16.521,2.362 19.081,4.932 C21.641,7.502 21.641,11.672 19.071,14.242 Z"/>
  <path fill="#292D32" d="M4.929,9.76 C5.219,9.47 5.679,9.47 5.959,9.76 C6.249,10.05 6.249,10.511 5.959,10.79 C3.959,12.79 3.959,16.041 5.959,18.03 C7.959,20.02 11.209,20.03 13.199,18.03 C15.189,16.03 15.199,12.78 13.199,10.79 C12.909,10.501 12.909,10.04 13.199,9.76 C13.489,9.47 13.949,9.47 14.229,9.76 C16.799,12.331 16.799,16.511 14.229,19.07 C11.659,21.631 7.479,21.64 4.919,19.07 C2.359,16.5 2.359,12.331 4.929,9.76 Z"/>
</svg>

