<svg xmlns="http://www.w3.org/2000/svg" width="24" height="24" viewBox="0 0 24 24">
  <defs/>
  <path fill="#292D32" d="M12.5,14.75 L10,14.75 C9.59,14.75 9.25,14.41 9.25,14 C9.25,13.59 9.59,13.25 10,13.25 L12.5,13.25 C15.12,13.25 17.25,11.12 17.25,8.5 C17.25,5.88 15.12,3.75 12.5,3.75 L7.5,3.75 C4.88,3.75 2.75,5.88 2.75,8.5 C2.75,9.6 3.14,10.67 3.84,11.52 C4.1,11.84 4.06,12.31 3.74,12.58 C3.42,12.84 2.95,12.8 2.68,12.48 C1.75,11.36 1.24,9.95 1.24,8.5 C1.24,5.05 4.04,2.25 7.49,2.25 L12.49,2.25 C15.94,2.25 18.74,5.05 18.74,8.5 C18.74,11.95 15.95,14.75 12.5,14.75 Z"/>
  <path fill="#292D32" opacity="0.4" d="M16.5,21.75 L11.5,21.75 C8.05,21.75 5.25,18.95 5.25,15.5 C5.25,12.05 8.05,9.25 11.5,9.25 L14,9.25 C14.41,9.25 14.75,9.59 14.75,10 C14.75,10.41 14.41,10.75 14,10.75 L11.5,10.75 C8.88,10.75 6.75,12.88 6.75,15.5 C6.75,18.12 8.88,20.25 11.5,20.25 L16.5,20.25 C19.12,20.25 21.25,18.12 21.25,15.5 C21.25,14.4 20.86,13.33 20.16,12.48 C19.9,12.16 19.94,11.69 20.26,11.42 C20.58,11.15 21.05,11.2 21.32,11.52 C22.25,12.64 22.76,14.05 22.76,15.5 C22.75,18.95 19.95,21.75 16.5,21.75 Z"/>
</svg>

