<svg xmlns="http://www.w3.org/2000/svg" width="24" height="24" viewBox="0 0 24 24">
  <defs/>
  <path fill="#292D32" d="M14.25,12 Q14.25,14.696 12.348,16.598 Q10.446,18.5 7.75,18.5 Q5.054,18.5 3.152,16.598 Q1.25,14.696 1.25,12 Q1.25,9.304 3.152,7.402 Q5.054,5.5 7.75,5.5 Q8.061,5.5 8.28,5.72 Q8.5,5.939 8.5,6.25 Q8.5,6.561 8.28,6.78 Q8.061,7 7.75,7 Q5.676,7 4.213,8.463 Q2.75,9.926 2.75,12 Q2.75,14.074 4.213,15.537 Q5.676,17 7.75,17 Q9.824,17 11.287,15.537 Q12.75,14.074 12.75,12 Q12.75,11.689 12.97,11.47 Q13.189,11.25 13.5,11.25 Q13.811,11.25 14.03,11.47 Q14.25,11.689 14.25,12 Z"/>
  <path fill="#292D32" opacity="0.4" d="M9.25,12 Q9.25,9.207 11.228,7.228 Q13.207,5.25 16,5.25 Q18.793,5.25 20.772,7.228 Q22.75,9.207 22.75,12 Q22.75,14.793 20.772,16.772 Q18.793,18.75 16,18.75 Q15.689,18.75 15.47,18.53 Q15.25,18.311 15.25,18 Q15.25,17.689 15.47,17.47 Q15.689,17.25 16,17.25 Q18.172,17.25 19.711,15.711 Q21.25,14.172 21.25,12 Q21.25,9.828 19.711,8.289 Q18.172,6.75 16,6.75 Q13.828,6.75 12.289,8.289 Q10.75,9.828 10.75,12 Q10.75,12.311 10.53,12.53 Q10.311,12.75 10,12.75 Q9.689,12.75 9.47,12.53 Q9.25,12.311 9.25,12 Z"/>
</svg>

