<svg xmlns="http://www.w3.org/2000/svg" width="24" height="24" viewBox="0 0 24 24">
  <defs/>
  <path fill="#292D32" d="M19.069,14.24 C18.779,14.53 18.319,14.53 18.039,14.24 C17.749,13.95 17.749,13.49 18.039,13.21 C20.039,11.21 20.039,7.96 18.039,5.97 C16.039,3.98 12.789,3.97 10.799,5.97 C8.809,7.97 8.799,11.22 10.799,13.21 C11.089,13.5 11.089,13.96 10.799,14.24 C10.509,14.53 10.049,14.53 9.769,14.24 C7.199,11.67 7.199,7.49 9.769,4.93 C12.339,2.37 16.519,2.36 19.079,4.93 C21.639,7.5 21.639,11.67 19.069,14.24 Z"/>
  <path fill="#292D32" opacity="0.4" d="M19.07,4.93 C21.64,7.5 21.64,11.67 19.07,14.24 C18.189,15.12 17.11,15.7 15.979,15.98 C16.509,13.82 15.93,11.45 14.239,9.76 C12.55,8.07 10.18,7.49 8.02,8.02 C8.3,6.89 8.87,5.81 9.76,4.93 C12.329,2.36 16.5,2.36 19.07,4.93 Z"/>
  <path fill="#292D32" d="M4.931,9.76 C5.221,9.47 5.681,9.47 5.961,9.76 C6.251,10.05 6.251,10.51 5.961,10.79 C3.961,12.79 3.961,16.04 5.961,18.03 C7.961,20.02 11.211,20.03 13.201,18.03 C15.191,16.03 15.201,12.78 13.201,10.79 C12.911,10.5 12.911,10.04 13.201,9.76 C13.491,9.47 13.951,9.47 14.231,9.76 C16.801,12.33 16.801,16.51 14.231,19.07 C11.661,21.63 7.481,21.64 4.921,19.07 C2.361,16.5 2.361,12.33 4.931,9.76 Z"/>
  <path fill="#292D32" opacity="0.5" d="M14.239,9.76 C15.93,11.45 16.509,13.82 15.979,15.98 C15.7,17.11 15.12,18.19 14.239,19.07 C11.669,21.64 7.499,21.64 4.929,19.07 C2.359,16.5 2.359,12.33 4.929,9.76 C5.809,8.87 6.889,8.3 8.019,8.02 C10.18,7.49 12.55,8.07 14.239,9.76 Z"/>
</svg>

