<svg xmlns="http://www.w3.org/2000/svg" width="24" height="24" viewBox="0 0 24 24">
  <defs/>
  <path fill="#292D32" d="M8.18,16.77 C8.16,16.77 8.13,16.77 8.11,16.77 C7.14,16.68 6.23,16.23 5.55,15.51 C3.95,13.83 3.95,11.1 5.55,9.42 L7.74,7.12 C8.52,6.3 9.57,5.84 10.69,5.84 C11.81,5.84 12.86,6.29 13.64,7.12 C15.24,8.8 15.24,11.53 13.64,13.21 L12.55,14.36 C12.26,14.66 11.79,14.67 11.49,14.39 C11.19,14.1 11.18,13.63 11.46,13.33 L12.55,12.18 C13.61,11.07 13.61,9.26 12.55,8.16 C11.56,7.12 9.82,7.12 8.82,8.16 L6.63,10.46 C5.57,11.57 5.57,13.38 6.63,14.48 C7.06,14.94 7.64,15.22 8.25,15.28 C8.66,15.32 8.96,15.69 8.92,16.1 C8.89,16.48 8.56,16.77 8.18,16.77 Z"/>
  <path fill="#292D32" d="M13.31,18.16 C12.19,18.16 11.14,17.71 10.36,16.88 C8.76,15.2 8.76,12.47 10.36,10.79 L11.45,9.64 C11.74,9.34 12.21,9.33 12.51,9.61 C12.81,9.9 12.82,10.37 12.54,10.67 L11.45,11.82 C10.39,12.93 10.39,14.74 11.45,15.84 C12.44,16.88 14.18,16.89 15.18,15.84 L17.37,13.54 C18.43,12.43 18.43,10.62 17.37,9.52 C16.94,9.06 16.36,8.78 15.75,8.72 C15.34,8.68 15.04,8.31 15.08,7.9 C15.12,7.49 15.48,7.18 15.9,7.23 C16.87,7.33 17.78,7.77 18.46,8.49 C20.06,10.17 20.06,12.9 18.46,14.58 L16.27,16.88 C15.48,17.71 14.43,18.16 13.31,18.16 Z"/>
  <path fill="#292D32" d="M15,22.75 L9,22.75 C3.57,22.75 1.25,20.43 1.25,15 L1.25,9 C1.25,3.57 3.57,1.25 9,1.25 L15,1.25 C20.43,1.25 22.75,3.57 22.75,9 L22.75,15 C22.75,20.43 20.43,22.75 15,22.75 Z M9,2.75 C4.39,2.75 2.75,4.39 2.75,9 L2.75,15 C2.75,19.61 4.39,21.25 9,21.25 L15,21.25 C19.61,21.25 21.25,19.61 21.25,15 L21.25,9 C21.25,4.39 19.61,2.75 15,2.75 L9,2.75 Z"/>
</svg>

