<svg xmlns="http://www.w3.org/2000/svg" width="24" height="24" viewBox="0 0 24 24">
  <defs/>
  <path fill="#292D32" d="M7.68,15.213 Q6.416,14.744 5.763,13.55 Q3.968,10.275 7.136,8.312 L9.476,6.862 Q10.804,6.033 12.304,6.426 Q13.801,6.817 14.557,8.188 Q16.347,11.454 13.206,13.415 L12.915,13.622 Q12.661,13.801 12.355,13.749 Q12.049,13.697 11.869,13.444 Q11.689,13.191 11.741,12.884 Q11.793,12.578 12.047,12.398 L12.357,12.178 Q12.376,12.165 12.396,12.152 Q14.354,10.939 13.244,8.912 Q12.799,8.105 11.925,7.877 Q11.05,7.648 10.266,8.137 L7.926,9.587 Q5.967,10.801 7.079,12.83 Q7.463,13.533 8.202,13.807 Q8.493,13.915 8.622,14.197 Q8.752,14.479 8.644,14.771 Q8.536,15.062 8.253,15.192 Q7.971,15.321 7.68,15.213 Z"/>
  <path fill="#292D32" d="M16.37,8.747 Q17.634,9.216 18.287,10.41 Q20.082,13.685 16.914,15.647 L14.574,17.097 Q13.246,17.927 11.746,17.534 Q10.249,17.143 9.493,15.772 Q7.703,12.506 10.844,10.545 L11.135,10.338 Q11.388,10.159 11.695,10.211 Q12.001,10.263 12.181,10.516 Q12.361,10.769 12.309,11.076 Q12.257,11.382 12.003,11.562 L11.693,11.782 Q11.674,11.795 11.654,11.808 Q9.696,13.021 10.806,15.048 Q11.251,15.854 12.125,16.083 Q13,16.312 13.784,15.822 L16.124,14.372 Q18.083,13.159 16.971,11.13 Q16.587,10.427 15.848,10.153 Q15.557,10.045 15.428,9.763 Q15.298,9.48 15.406,9.189 Q15.514,8.898 15.796,8.768 Q16.079,8.639 16.37,8.747 Z"/>
  <path fill="#292D32" d="M4.6,6.449 Q2.75,8.922 2.75,12 Q2.75,15.829 5.46,18.54 Q8.171,21.25 12,21.25 Q15.829,21.25 18.54,18.54 Q21.25,15.829 21.25,12 Q21.25,8.171 18.54,5.46 Q15.829,2.75 12,2.75 Q10.031,2.75 8.276,3.535 Q7.993,3.661 7.702,3.551 Q7.412,3.44 7.285,3.156 Q7.159,2.873 7.269,2.582 Q7.38,2.292 7.664,2.165 Q9.711,1.25 12,1.25 Q16.451,1.25 19.6,4.4 Q22.75,7.549 22.75,12 Q22.75,16.451 19.6,19.6 Q16.451,22.75 12,22.75 Q7.549,22.75 4.4,19.6 Q1.25,16.451 1.25,12 Q1.25,8.422 3.4,5.551 Q3.586,5.302 3.893,5.258 Q4.201,5.213 4.449,5.4 Q4.698,5.586 4.742,5.893 Q4.787,6.201 4.6,6.449 Z"/>
</svg>

