<svg xmlns="http://www.w3.org/2000/svg" width="24" height="24" viewBox="0 0 24 24">
  <defs/>
  <path fill="#292D32" d="M14.99,16.75 L16.5,16.75 Q18.457,16.75 19.853,15.356 Q21.25,13.96 21.25,12 Q21.25,10.044 19.856,8.647 Q18.46,7.25 16.5,7.25 L14.99,7.25 Q14.68,7.25 14.46,7.03 Q14.24,6.811 14.24,6.5 Q14.24,6.189 14.46,5.97 Q14.68,5.75 14.99,5.75 L16.5,5.75 Q19.082,5.75 20.917,7.588 Q22.75,9.423 22.75,12 Q22.75,14.582 20.913,16.417 Q19.077,18.25 16.5,18.25 L14.99,18.25 Q14.68,18.25 14.46,18.03 Q14.24,17.811 14.24,17.5 Q14.24,17.189 14.46,16.97 Q14.68,16.75 14.99,16.75 Z"/>
  <path fill="#292D32" d="M9,7.25 L7.5,7.25 Q5.538,7.25 4.144,8.644 Q2.75,10.038 2.75,12 Q2.75,13.956 4.144,15.353 Q5.54,16.75 7.5,16.75 L9,16.75 Q9.311,16.75 9.53,16.97 Q9.75,17.189 9.75,17.5 Q9.75,17.811 9.53,18.03 Q9.311,18.25 9,18.25 L7.5,18.25 Q4.918,18.25 3.083,16.412 Q1.25,14.577 1.25,12 Q1.25,9.417 3.083,7.583 Q4.917,5.75 7.5,5.75 L9,5.75 Q9.311,5.75 9.53,5.97 Q9.75,6.189 9.75,6.5 Q9.75,6.811 9.53,7.03 Q9.311,7.25 9,7.25 Z"/>
  <path fill="#292D32" opacity="0.4" d="M8,11.25 L16,11.25 Q16.311,11.25 16.53,11.47 Q16.75,11.689 16.75,12 Q16.75,12.311 16.53,12.53 Q16.311,12.75 16,12.75 L8,12.75 Q7.689,12.75 7.47,12.53 Q7.25,12.311 7.25,12 Q7.25,11.689 7.47,11.47 Q7.689,11.25 8,11.25 Z"/>
</svg>

