<svg xmlns="http://www.w3.org/2000/svg" width="24" height="24" viewBox="0 0 24 24">
  <defs/>
  <path fill="#292D32" opacity="0.4" d="M11,7.5 L11,16.5 C11,17.05 10.55,17.5 10,17.5 L7.5,17.5 C5.98,17.5 4.61,16.88 3.61,15.89 C2.67,14.94 2.06,13.65 2,12.22 C1.88,9.08 4.62,6.5 7.77,6.5 L10,6.5 C10.55,6.5 11,6.95 11,7.5 Z"/>
  <path fill="#292D32" opacity="0.4" d="M22,11.78 C22.13,14.93 19.39,17.5 16.24,17.5 L14.01,17.5 C13.46,17.5 13.01,17.05 13.01,16.5 L13.01,7.5 C13.01,6.95 13.46,6.5 14.01,6.5 L16.51,6.5 C18.03,6.5 19.4,7.12 20.4,8.11 C21.33,9.06 21.94,10.35 22,11.78 Z"/>
  <path fill="#292D32" d="M16,12.75 L8,12.75 C7.59,12.75 7.25,12.41 7.25,12 C7.25,11.59 7.59,11.25 8,11.25 L16,11.25 C16.41,11.25 16.75,11.59 16.75,12 C16.75,12.41 16.41,12.75 16,12.75 Z"/>
</svg>

