<svg xmlns="http://www.w3.org/2000/svg" width="24" height="24" viewBox="0 0 24 24">
  <defs/>
  <path fill="#292D32" d="M8.99,21.5 C7.33,21.5 5.66,20.87 4.39,19.6 C1.86,17.06 1.86,12.94 4.39,10.41 C4.68,10.12 5.16,10.12 5.45,10.41 C5.74,10.7 5.74,11.18 5.45,11.47 C3.5,13.42 3.5,16.59 5.45,18.54 C7.4,20.49 10.57,20.49 12.52,18.54 C13.46,17.6 13.98,16.34 13.98,15 C13.98,13.67 13.46,12.41 12.52,11.46 C12.23,11.17 12.23,10.69 12.52,10.4 C12.81,10.11 13.29,10.11 13.58,10.4 C14.81,11.63 15.48,13.26 15.48,15 C15.48,16.74 14.8,18.37 13.58,19.6 C12.32,20.87 10.66,21.5 8.99,21.5 Z"/>
  <path fill="#292D32" d="M19.07,14.16 C18.88,14.16 18.69,14.09 18.54,13.94 C18.25,13.65 18.25,13.17 18.54,12.88 C20.59,10.83 20.59,7.5 18.54,5.46 C16.49,3.41 13.16,3.41 11.12,5.46 C10.13,6.45 9.58,7.77 9.58,9.17 C9.58,10.57 10.13,11.89 11.12,12.88 C11.41,13.17 11.41,13.65 11.12,13.94 C10.83,14.23 10.35,14.23 10.06,13.94 C8.79,12.67 8.08,10.97 8.08,9.17 C8.08,7.37 8.78,5.67 10.06,4.4 C12.69,1.77 16.97,1.77 19.61,4.4 C22.24,7.03 22.24,11.32 19.61,13.95 C19.46,14.09 19.26,14.16 19.07,14.16 Z"/>
</svg>

