<svg xmlns="http://www.w3.org/2000/svg" width="24" height="24" viewBox="0 0 24 24">
  <defs/>
  <path fill="#292D32" d="M15.41,18.59 C15.01,18.59 14.68,18.26 14.68,17.86 C14.68,17.46 15.01,17.13 15.41,17.13 C18.23,17.13 20.53,14.83 20.53,12.01 C20.53,9.19 18.23,6.89 15.41,6.89 C12.59,6.89 10.29,9.19 10.29,12.01 C10.29,12.41 9.96,12.74 9.56,12.74 C9.16,12.74 8.83,12.41 8.83,12.01 C8.83,8.38 11.78,5.42 15.42,5.42 C19.06,5.42 22,8.37 22,12 C22,15.63 19.05,18.59 15.41,18.59 Z"/>
  <path fill="#292D32" opacity="0.4" d="M22,12 C22,15.64 19.05,18.59 15.41,18.59 C14.16,18.59 12.99,18.24 12,17.63 C13.9,16.48 15.17,14.39 15.17,12 C15.17,9.61 13.9,7.52 12,6.37 C13,5.77 14.17,5.41 15.41,5.41 C19.05,5.41 22,8.36 22,12 Z"/>
  <path fill="#292D32" d="M8.59,5.41 C8.99,5.41 9.32,5.74 9.32,6.14 C9.32,6.54 8.99,6.87 8.59,6.87 C5.77,6.87 3.47,9.17 3.47,11.99 C3.47,14.81 5.77,17.11 8.59,17.11 C11.41,17.11 13.71,14.81 13.71,11.99 C13.71,11.59 14.04,11.26 14.44,11.26 C14.84,11.26 15.17,11.59 15.17,11.99 C15.17,15.62 12.22,18.58 8.58,18.58 C4.94,18.58 2,15.63 2,12 C2,8.37 4.95,5.41 8.59,5.41 Z"/>
  <path fill="#292D32" opacity="0.5" d="M15.17,12 C15.17,14.39 13.9,16.48 12,17.63 C11,18.23 9.83,18.59 8.59,18.59 C4.95,18.59 2,15.64 2,12 C2,8.36 4.95,5.41 8.59,5.41 C9.83,5.41 11,5.77 12,6.37 C13.9,7.52 15.17,9.61 15.17,12 Z"/>
</svg>

