<svg xmlns="http://www.w3.org/2000/svg" width="24" height="24" viewBox="0 0 24 24">
  <defs/>
  <path fill="#292D32" d="M2.693,12.48 Q1.25,10.744 1.25,8.5 Q1.25,5.923 3.083,4.088 Q4.918,2.25 7.5,2.25 L12.5,2.25 Q15.076,2.25 16.913,4.087 Q18.75,5.924 18.75,8.5 Q18.75,11.077 16.917,12.912 Q15.082,14.75 12.5,14.75 L10,14.75 Q9.689,14.75 9.47,14.53 Q9.25,14.311 9.25,14 Q9.25,13.689 9.47,13.47 Q9.689,13.25 10,13.25 L12.5,13.25 Q14.46,13.25 15.856,11.853 Q17.25,10.456 17.25,8.5 Q17.25,6.546 15.852,5.148 Q14.454,3.75 12.5,3.75 L7.5,3.75 Q5.54,3.75 4.144,5.147 Q2.75,6.544 2.75,8.5 Q2.75,10.202 3.847,11.52 Q4.045,11.759 4.017,12.069 Q3.988,12.378 3.75,12.577 Q3.511,12.775 3.201,12.747 Q2.892,12.718 2.693,12.48 Z"/>
  <path fill="#292D32" d="M11.98,21.75 L11.5,21.75 Q8.924,21.75 7.087,19.913 Q5.25,18.076 5.25,15.5 Q5.25,12.923 7.083,11.088 Q8.918,9.25 11.5,9.25 L14,9.25 Q14.311,9.25 14.53,9.47 Q14.75,9.689 14.75,10 Q14.75,10.311 14.53,10.53 Q14.311,10.75 14,10.75 L11.5,10.75 Q9.54,10.75 8.144,12.147 Q6.75,13.544 6.75,15.5 Q6.75,17.454 8.148,18.852 Q9.546,20.25 11.5,20.25 L11.98,20.25 Q12.291,20.25 12.51,20.47 Q12.73,20.689 12.73,21 Q12.73,21.311 12.51,21.53 Q12.291,21.75 11.98,21.75 Z"/>
  <path fill="#292D32" d="M21.307,11.52 Q22.75,13.256 22.75,15.5 Q22.75,18.077 20.917,19.912 Q19.082,21.75 16.5,21.75 Q16.189,21.75 15.97,21.53 Q15.75,21.311 15.75,21 Q15.75,20.689 15.97,20.47 Q16.189,20.25 16.5,20.25 Q18.46,20.25 19.856,18.853 Q21.25,17.456 21.25,15.5 Q21.25,13.798 20.153,12.48 Q19.955,12.241 19.983,11.931 Q20.012,11.622 20.25,11.423 Q20.489,11.225 20.799,11.253 Q21.108,11.282 21.307,11.52 Z"/>
</svg>

