<svg xmlns="http://www.w3.org/2000/svg" width="24" height="24" viewBox="0 0 24 24">
  <defs/>
  <path fill="#292D32" d="M13.59,10.41 Q15.497,12.317 15.497,15.009 Q15.497,17.702 13.589,19.601 Q11.681,21.501 8.992,21.504 Q6.297,21.506 4.398,19.599 Q2.498,17.691 2.496,15.002 Q2.494,12.307 4.401,10.408 Q4.621,10.189 4.932,10.19 Q5.242,10.191 5.461,10.411 Q5.681,10.631 5.68,10.942 Q5.679,11.252 5.459,11.471 Q3.994,12.93 3.996,15.001 Q3.998,17.071 5.461,18.541 Q6.92,20.005 8.99,20.004 Q11.061,20.002 12.531,18.538 Q13.997,17.078 13.997,15.009 Q13.997,12.938 12.529,11.47 Q12.31,11.251 12.31,10.94 Q12.31,10.629 12.529,10.41 Q12.749,10.19 13.06,10.19 Q13.37,10.19 13.59,10.41 Z"/>
  <path fill="#292D32" opacity="0.4" d="M10.061,13.94 Q8.086,11.966 8.086,9.169 Q8.086,6.373 10.059,4.391 Q12.033,2.409 14.833,2.411 Q17.627,2.413 19.61,4.388 Q21.592,6.362 21.59,9.162 Q21.587,11.956 19.612,13.939 Q19.393,14.159 19.082,14.16 Q18.772,14.161 18.552,13.941 Q18.332,13.722 18.331,13.411 Q18.33,13.101 18.549,12.881 Q20.088,11.336 20.09,9.161 Q20.091,6.985 18.552,5.451 Q17.007,3.913 14.832,3.911 Q12.656,3.909 11.122,5.449 Q9.586,6.992 9.586,9.169 Q9.586,11.344 11.121,12.88 Q11.341,13.099 11.341,13.41 Q11.341,13.721 11.121,13.94 Q10.902,14.16 10.591,14.16 Q10.28,14.16 10.061,13.94 Z"/>
</svg>

