<svg xmlns="http://www.w3.org/2000/svg" width="24" height="24" viewBox="0 0 24 24">
  <defs/>
  <path fill="#292D32" d="M15.408,18.592 C15.008,18.592 14.678,18.262 14.678,17.862 C14.678,17.462 15.008,17.132 15.408,17.132 C18.228,17.132 20.528,14.832 20.528,12.012 C20.528,9.192 18.228,6.892 15.408,6.892 C12.588,6.892 10.288,9.192 10.288,12.012 C10.288,12.412 9.958,12.742 9.558,12.742 C9.158,12.742 8.828,12.412 8.828,12.012 C8.828,8.382 11.778,5.422 15.418,5.422 C19.058,5.422 21.998,8.372 21.998,12.002 C21.998,15.632 19.048,18.592 15.408,18.592 Z"/>
  <path fill="#292D32" d="M8.59,5.41 C8.99,5.41 9.32,5.74 9.32,6.14 C9.32,6.54 8.99,6.87 8.59,6.87 C5.77,6.87 3.47,9.17 3.47,11.99 C3.47,14.81 5.77,17.11 8.59,17.11 C11.41,17.11 13.71,14.81 13.71,11.99 C13.71,11.59 14.04,11.26 14.44,11.26 C14.84,11.26 15.17,11.59 15.17,11.99 C15.17,15.62 12.22,18.58 8.58,18.58 C4.94,18.58 2,15.63 2,12 C2,8.37 4.95,5.41 8.59,5.41 Z"/>
</svg>

