<svg xmlns="http://www.w3.org/2000/svg" width="24" height="24" viewBox="0 0 24 24">
  <defs/>
  <path fill="#292D32" d="M13.59,10.41 Q15.497,12.317 15.497,15.009 Q15.497,17.702 13.589,19.601 Q11.681,21.501 8.992,21.504 Q6.297,21.506 4.398,19.599 Q2.498,17.691 2.496,15.002 Q2.494,12.307 4.401,10.408 Q4.621,10.189 4.932,10.19 Q5.242,10.191 5.461,10.411 Q5.681,10.631 5.68,10.942 Q5.679,11.252 5.459,11.471 Q3.994,12.93 3.996,15.001 Q3.998,17.071 5.461,18.541 Q6.92,20.005 8.99,20.004 Q11.061,20.002 12.531,18.538 Q13.997,17.078 13.997,15.009 Q13.997,12.938 12.529,11.47 Q12.31,11.251 12.31,10.94 Q12.31,10.629 12.529,10.41 Q12.749,10.19 13.06,10.19 Q13.37,10.19 13.59,10.41 Z"/>
  <path fill="#292D32" d="M14.986,2.42 Q17.693,2.475 19.603,4.402 Q21.576,6.374 21.576,9.171 Q21.576,11.967 19.602,13.949 Q19.383,14.169 19.072,14.17 Q18.762,14.171 18.542,13.951 Q18.321,13.732 18.321,13.421 Q18.32,13.111 18.539,12.891 Q20.076,11.348 20.076,9.171 Q20.076,6.996 18.538,5.458 Q17.055,3.962 14.956,3.92 Q14.645,3.914 14.43,3.689 Q14.215,3.465 14.221,3.155 Q14.227,2.844 14.451,2.629 Q14.675,2.414 14.986,2.42 Z"/>
  <path fill="#292D32" d="M10.061,13.94 Q8.086,11.966 8.086,9.169 Q8.086,6.373 10.059,4.391 Q10.279,4.171 10.589,4.17 Q10.9,4.169 11.12,4.388 Q11.34,4.608 11.341,4.918 Q11.342,5.229 11.122,5.449 Q9.586,6.992 9.586,9.169 Q9.586,11.344 11.121,12.88 Q11.341,13.099 11.341,13.41 Q11.341,13.721 11.121,13.94 Q10.902,14.16 10.591,14.16 Q10.28,14.16 10.061,13.94 Z"/>
</svg>

