<svg xmlns="http://www.w3.org/2000/svg" width="24" height="24" viewBox="0 0 24 24">
  <defs/>
  <g opacity="0.4">
    <path fill="#292D32" d="M8.111,16.767 Q6.613,16.629 5.546,15.507 Q4.35,14.247 4.35,12.46 Q4.35,10.673 5.546,9.413 L7.736,7.113 Q8.948,5.837 10.686,5.837 Q12.422,5.837 13.641,7.111 Q14.84,8.373 14.84,10.16 Q14.84,11.947 13.643,13.206 L12.554,14.356 Q12.34,14.581 12.03,14.59 Q11.719,14.598 11.494,14.384 Q11.268,14.171 11.26,13.86 Q11.252,13.549 11.465,13.324 L12.556,12.173 Q14.468,10.16 12.558,8.148 Q11.782,7.337 10.686,7.337 Q9.592,7.337 8.823,8.147 L6.633,10.446 Q4.721,12.46 6.633,14.473 Q7.312,15.187 8.248,15.273 Q8.558,15.302 8.756,15.54 Q8.955,15.779 8.926,16.089 Q8.898,16.398 8.659,16.597 Q8.42,16.795 8.111,16.767 Z"/>
    <path fill="#292D32" d="M15.889,7.233 Q17.387,7.371 18.454,8.493 Q19.65,9.753 19.65,11.54 Q19.65,13.327 18.454,14.586 L16.263,16.887 Q15.052,18.163 13.314,18.163 Q11.577,18.163 10.358,16.889 Q9.16,15.627 9.16,13.84 Q9.16,12.053 10.356,10.794 L11.446,9.644 Q11.66,9.419 11.97,9.41 Q12.281,9.402 12.506,9.616 Q12.732,9.829 12.74,10.14 Q12.748,10.45 12.535,10.676 L11.444,11.826 Q9.532,13.84 11.442,15.851 Q12.218,16.662 13.314,16.663 Q14.408,16.662 15.177,15.853 L17.366,13.554 Q19.278,11.54 17.367,9.527 Q16.688,8.813 15.751,8.727 Q15.442,8.698 15.243,8.459 Q15.045,8.221 15.073,7.911 Q15.102,7.602 15.341,7.403 Q15.58,7.205 15.889,7.233 Z"/>
  </g>
  <path fill="#292D32" d="M9,22.75 Q1.25,22.75 1.25,15 L1.25,9 Q1.25,1.25 9,1.25 L15,1.25 Q22.75,1.25 22.75,9 L22.75,15 Q22.75,22.75 15,22.75 Z M9,21.25 L15,21.25 Q18.439,21.25 19.845,19.845 Q21.25,18.439 21.25,15 L21.25,9 Q21.25,2.75 15,2.75 L9,2.75 Q2.75,2.75 2.75,9 L2.75,15 Q2.75,18.439 4.155,19.845 Q5.561,21.25 9,21.25 Z"/>
</svg>

