<svg xmlns="http://www.w3.org/2000/svg" width="24" height="24" viewBox="0 0 24 24">
  <defs/>
  <path fill="#292D32" d="M7.75,18.5 C4.17,18.5 1.25,15.58 1.25,12 C1.25,8.42 4.17,5.5 7.75,5.5 C8.16,5.5 8.5,5.84 8.5,6.25 C8.5,6.66 8.16,7 7.75,7 C4.99,7 2.75,9.24 2.75,12 C2.75,14.76 4.99,17 7.75,17 C10.51,17 12.75,14.76 12.75,12 C12.75,11.59 13.09,11.25 13.5,11.25 C13.91,11.25 14.25,11.59 14.25,12 C14.25,15.58 11.33,18.5 7.75,18.5 Z"/>
  <path fill="#292D32" d="M16,18.75 C15.59,18.75 15.25,18.41 15.25,18 C15.25,17.59 15.59,17.25 16,17.25 C18.89,17.25 21.25,14.89 21.25,12 C21.25,9.11 18.89,6.75 16,6.75 C13.11,6.75 10.75,9.11 10.75,12 C10.75,12.41 10.41,12.75 10,12.75 C9.59,12.75 9.25,12.41 9.25,12 C9.25,8.28 12.28,5.25 16,5.25 C19.72,5.25 22.75,8.28 22.75,12 C22.75,15.72 19.72,18.75 16,18.75 Z"/>
</svg>

