<svg xmlns="http://www.w3.org/2000/svg" width="24" height="24" viewBox="0 0 24 24">
  <defs/>
  <path d="M15.67,17.89 L7.97,17.89 C7.73,17.89 7.51,17.78 7.37,17.59 C7.23,17.4 7.18,17.16 7.25,16.93 L10.33,6.15 C10.42,5.83 10.72,5.61 11.05,5.61 L14.09,5.61 C14.32,5.61 14.54,5.72 14.69,5.9 C14.83,6.09 14.88,6.33 14.82,6.55 L12.95,13.55 L16.2,13.55 C16.42,13.55 16.63,13.65 16.78,13.82 C16.92,13.99 16.98,14.22 16.94,14.43 L16.43,17.27 C16.34,17.63 16.03,17.89 15.67,17.89 Z M8.96,16.39 L15.04,16.39 L15.28,15.05 L11.96,15.05 C11.73,15.05 11.51,14.94 11.36,14.76 C11.22,14.57 11.17,14.33 11.23,14.11 L13.1,7.11 L11.6,7.11 L8.96,16.39 Z"/>
  <path d="M7.32,13.27 C6.97,13.27 6.66,13.02 6.59,12.67 C6.51,12.26 6.77,11.87 7.18,11.79 L14.88,10.25 C15.28,10.17 15.68,10.43 15.76,10.84 C15.84,11.25 15.58,11.64 15.17,11.72 L7.47,13.26 C7.42,13.27 7.37,13.27 7.32,13.27 Z"/>
  <path d="M12,22.75 C6.07,22.75 1.25,17.93 1.25,12 C1.25,6.07 6.07,1.25 12,1.25 C17.93,1.25 22.75,6.07 22.75,12 C22.75,17.93 17.93,22.75 12,22.75 Z M12,2.75 C6.9,2.75 2.75,6.9 2.75,12 C2.75,17.1 6.9,21.25 12,21.25 C17.1,21.25 21.25,17.1 21.25,12 C21.25,6.9 17.1,2.75 12,2.75 Z"/>
</svg>

