<svg xmlns="http://www.w3.org/2000/svg" width="24" height="24" viewBox="0 0 24 24">
  <defs/>
  <path fill="white" d="M24,0 L0,0 L0,24 L24,24 L24,0 Z"/>
  <path fill="#292D32" opacity="0.4" d="M12,22 C17.523,22 22,17.523 22,12 C22,6.477 17.523,2 12,2 C6.477,2 2,6.477 2,12 C2,17.523 6.477,22 12,22 Z"/>
  <path fill="#292D32" d="M12.781,6.36 C13.441,6.36 13.921,6.98 13.751,7.62 L11.961,14.3 L14.991,14.3 C15.611,14.3 16.091,14.86 15.971,15.48 L15.821,16.32 C15.731,16.8 15.321,17.14 14.841,17.14 L9.301,17.14 C8.641,17.14 8.161,16.5 8.341,15.87 L10.951,6.73 C11.011,6.52 11.211,6.37 11.431,6.37 L12.781,6.37 L12.781,6.36 Z"/>
  <path fill="#292D32" d="M7.321,13.27 C6.971,13.27 6.661,13.02 6.591,12.67 C6.511,12.26 6.771,11.87 7.181,11.79 L14.881,10.25 C15.281,10.17 15.681,10.43 15.761,10.84 C15.841,11.25 15.581,11.64 15.171,11.72 L7.471,13.26 C7.421,13.27 7.371,13.27 7.321,13.27 Z"/>
</svg>

