<svg xmlns="http://www.w3.org/2000/svg" width="24" height="24" viewBox="0 0 24 24">
  <defs/>
  <path d="M14.091,5.61 Q14.401,5.61 14.621,5.83 Q14.841,6.049 14.841,6.36 Q14.841,6.459 14.815,6.554 L12.938,13.55 L16.181,13.55 Q16.491,13.55 16.711,13.77 Q16.931,13.989 16.931,14.3 Q16.931,14.367 16.919,14.433 L16.409,17.273 Q16.361,17.541 16.152,17.715 Q15.943,17.89 15.671,17.89 L7.971,17.89 Q7.66,17.89 7.44,17.67 Q7.221,17.451 7.221,17.14 Q7.221,17.035 7.25,16.934 L10.33,6.154 Q10.485,5.61 11.051,5.61 L14.091,5.61 Z M11.616,7.11 L8.965,16.39 L15.043,16.39 L15.284,15.05 L11.961,15.05 Q11.862,15.05 11.766,15.024 Q11.466,14.944 11.311,14.675 Q11.156,14.406 11.236,14.106 L13.113,7.11 L11.616,7.11 Z"/>
  <path d="M15.167,11.715 L7.467,13.255 Q7.163,13.316 6.904,13.144 Q6.646,12.972 6.585,12.667 Q6.524,12.362 6.696,12.104 Q6.869,11.845 7.173,11.785 L14.873,10.245 Q15.178,10.184 15.436,10.356 Q15.695,10.528 15.756,10.833 Q15.817,11.138 15.644,11.396 Q15.472,11.655 15.167,11.715 Z"/>
  <path fill="#17191C" d="M4.6,6.449 Q2.75,8.922 2.75,12 Q2.75,15.829 5.46,18.54 Q8.171,21.25 12,21.25 Q15.829,21.25 18.54,18.54 Q21.25,15.829 21.25,12 Q21.25,8.171 18.54,5.46 Q15.829,2.75 12,2.75 Q10.031,2.75 8.276,3.535 Q7.993,3.661 7.702,3.551 Q7.412,3.44 7.285,3.156 Q7.159,2.873 7.269,2.582 Q7.38,2.292 7.664,2.165 Q9.711,1.25 12,1.25 Q16.451,1.25 19.6,4.4 Q22.75,7.549 22.75,12 Q22.75,16.451 19.6,19.6 Q16.451,22.75 12,22.75 Q7.549,22.75 4.4,19.6 Q1.25,16.451 1.25,12 Q1.25,8.422 3.4,5.551 Q3.586,5.302 3.893,5.258 Q4.201,5.213 4.449,5.4 Q4.698,5.586 4.742,5.893 Q4.787,6.201 4.6,6.449 Z"/>
</svg>

