<svg xmlns="http://www.w3.org/2000/svg" width="24" height="24" viewBox="0 0 24 24">
  <defs/>
  <path d="M12,2 C6.48,2 2,6.48 2,12 C2,17.52 6.48,22 12,22 C17.52,22 22,17.52 22,12 C22,6.48 17.52,2 12,2 Z M15.82,16.32 C15.73,16.8 15.32,17.14 14.84,17.14 L9.3,17.14 C8.64,17.14 8.16,16.5 8.34,15.87 L9.18,12.92 L7.47,13.26 C7.42,13.27 7.37,13.27 7.32,13.27 C6.97,13.27 6.66,13.02 6.59,12.67 C6.51,12.26 6.77,11.87 7.18,11.79 L9.65,11.3 L10.96,6.73 C11.02,6.52 11.22,6.37 11.44,6.37 L12.8,6.37 C13.46,6.37 13.94,6.99 13.77,7.63 L12.96,10.64 L14.89,10.25 C15.29,10.17 15.69,10.43 15.77,10.84 C15.85,11.25 15.59,11.64 15.18,11.72 L12.52,12.25 L11.97,14.3 L15,14.3 C15.62,14.3 16.09,14.86 15.98,15.48 L15.82,16.32 Z"/>
</svg>

