<svg xmlns="http://www.w3.org/2000/svg" width="24" height="24" viewBox="0 0 24 24">
  <defs/>
  <path fill="#292D32" d="M20.619,8.7 C19.579,4.07 15.539,2 11.999,2 C11.999,2 11.999,2 11.989,2 C8.459,2 4.429,4.07 3.379,8.69 C2.199,13.85 5.359,18.22 8.219,20.98 C9.279,22 10.639,22.51 11.999,22.51 C13.359,22.51 14.719,22 15.769,20.98 C18.629,18.22 21.789,13.86 20.619,8.7 Z M15.279,9.53 L11.279,13.53 C11.129,13.68 10.939,13.75 10.749,13.75 C10.559,13.75 10.369,13.68 10.219,13.53 L8.719,12.03 C8.429,11.74 8.429,11.26 8.719,10.97 C9.009,10.68 9.489,10.68 9.779,10.97 L10.749,11.94 L14.219,8.47 C14.509,8.18 14.989,8.18 15.279,8.47 C15.569,8.76 15.569,9.24 15.279,9.53 Z"/>
</svg>

