<svg xmlns="http://www.w3.org/2000/svg" width="24" height="24" viewBox="0 0 24 24">
  <defs/>
  <path fill="#292D32" d="M15.781,20.981 C14.721,22.001 13.361,22.511 12.001,22.511 C10.641,22.511 9.281,21.991 8.221,20.971 C7.861,20.631 7.501,20.251 7.141,19.861 L20.041,6.961 C20.291,7.501 20.481,8.071 20.621,8.701 C21.791,13.861 18.631,18.221 15.781,20.981 Z"/>
  <path fill="#292D32" d="M21.769,2.229 C21.469,1.929 20.979,1.929 20.679,2.229 L2.229,20.689 C1.929,20.989 1.929,21.479 2.229,21.779 C2.379,21.919 2.569,21.999 2.769,21.999 C2.969,21.999 3.159,21.919 3.309,21.769 L21.769,3.309 C22.079,3.009 22.079,2.529 21.769,2.229 Z"/>
  <path fill="#292D32" d="M8.849,10.31 C8.849,8.57 10.259,7.16 11.999,7.16 C13.309,7.16 14.429,7.96 14.909,9.1 L18.889,5.12 C17.119,2.98 14.439,2 11.999,2 C10.229,2 8.339,2.52 6.759,3.61 C5.179,4.71 3.899,6.38 3.379,8.69 C2.539,12.36 3.899,15.64 5.789,18.21 L10.789,13.21 C9.649,12.74 8.849,11.61 8.849,10.31 Z"/>
</svg>

