<svg xmlns="http://www.w3.org/2000/svg" width="24" height="24" viewBox="0 0 24 24">
  <defs/>
  <path fill="#292D32" d="M20.619,8.7 C19.579,4.07 15.539,2 11.999,2 C11.999,2 11.999,2 11.989,2 C8.459,2 4.429,4.07 3.379,8.69 C2.199,13.85 5.359,18.22 8.219,20.98 C9.279,22 10.639,22.51 11.999,22.51 C13.359,22.51 14.719,22 15.769,20.98 C18.629,18.22 21.789,13.86 20.619,8.7 Z M14.529,13.49 C14.379,13.64 14.189,13.71 13.999,13.71 C13.809,13.71 13.619,13.64 13.469,13.49 L12.019,12.04 L10.529,13.53 C10.379,13.68 10.189,13.75 9.999,13.75 C9.809,13.75 9.619,13.68 9.469,13.53 C9.179,13.24 9.179,12.76 9.469,12.47 L10.959,10.98 L9.509,9.53 C9.219,9.24 9.219,8.76 9.509,8.47 C9.799,8.18 10.279,8.18 10.569,8.47 L12.019,9.92 L13.419,8.52 C13.709,8.23 14.189,8.23 14.479,8.52 C14.769,8.81 14.769,9.29 14.479,9.58 L13.079,10.98 L14.529,12.43 C14.819,12.72 14.819,13.19 14.529,13.49 Z"/>
</svg>

