<svg xmlns="http://www.w3.org/2000/svg" width="24" height="24" viewBox="0 0 24 24">
  <defs/>
  <path fill="#292D32" opacity="0.4" d="M20.621,8.7 C19.581,4.07 15.541,2 12.001,2 C12.001,2 12.001,2 11.991,2 C8.461,2 4.431,4.07 3.381,8.69 C2.201,13.85 5.361,18.22 8.221,20.98 C9.281,22 10.641,22.51 12.001,22.51 C13.361,22.51 14.721,22 15.771,20.98 C18.631,18.22 21.791,13.86 20.621,8.7 Z"/>
  <path fill="#292D32" d="M14.75,11.75 L9.25,11.75 C8.84,11.75 8.5,11.41 8.5,11 C8.5,10.59 8.84,10.25 9.25,10.25 L14.75,10.25 C15.16,10.25 15.5,10.59 15.5,11 C15.5,11.41 15.16,11.75 14.75,11.75 Z"/>
</svg>

