<svg xmlns="http://www.w3.org/2000/svg" width="24" height="24" viewBox="0 0 24 24">
  <defs/>
  <path fill="#292D32" d="M12.001,14.17 C9.871,14.17 8.131,12.44 8.131,10.3 C8.131,8.16 9.871,6.44 12.001,6.44 C14.131,6.44 15.871,8.17 15.871,10.31 C15.871,12.45 14.131,14.17 12.001,14.17 Z M12.001,7.94 C10.701,7.94 9.631,9 9.631,10.31 C9.631,11.62 10.691,12.68 12.001,12.68 C13.311,12.68 14.371,11.62 14.371,10.31 C14.371,9 13.301,7.94 12.001,7.94 Z"/>
  <path fill="#292D32" d="M12,22.76 C10.52,22.76 9.03,22.2 7.87,21.09 C4.92,18.25 1.66,13.72 2.89,8.33 C4,3.44 8.27,1.25 12,1.25 C12,1.25 12,1.25 12.01,1.25 C15.74,1.25 20.01,3.44 21.12,8.34 C22.34,13.73 19.08,18.25 16.13,21.09 C14.97,22.2 13.48,22.76 12,22.76 Z M12,2.75 C9.09,2.75 5.35,4.3 4.36,8.66 C3.28,13.37 6.24,17.43 8.92,20 C10.65,21.67 13.36,21.67 15.09,20 C17.76,17.43 20.72,13.37 19.66,8.66 C18.66,4.3 14.91,2.75 12,2.75 Z"/>
</svg>

