<svg xmlns="http://www.w3.org/2000/svg" width="24" height="24" viewBox="0 0 24 24">
  <defs/>
  <path fill="#292D32" d="M12,22.76 C10.52,22.76 9.03,22.2 7.87,21.09 C4.92,18.25 1.66,13.72 2.89,8.33 C4,3.44 8.27,1.25 12,1.25 C12,1.25 12,1.25 12.01,1.25 C15.74,1.25 20.01,3.44 21.12,8.34 C22.34,13.73 19.08,18.25 16.13,21.09 C14.97,22.2 13.48,22.76 12,22.76 Z M12,2.75 C9.09,2.75 5.35,4.3 4.36,8.66 C3.28,13.37 6.24,17.43 8.92,20 C10.65,21.67 13.36,21.67 15.09,20 C17.76,17.43 20.72,13.37 19.66,8.66 C18.66,4.3 14.91,2.75 12,2.75 Z"/>
  <path fill="#292D32" d="M10.749,13.75 C10.559,13.75 10.37,13.68 10.22,13.53 L8.719,12.03 C8.429,11.74 8.429,11.26 8.719,10.97 C9.009,10.68 9.489,10.68 9.779,10.97 L10.749,11.94 L14.22,8.47 C14.509,8.18 14.989,8.18 15.28,8.47 C15.569,8.76 15.569,9.24 15.28,9.53 L11.28,13.53 C11.13,13.68 10.94,13.75 10.749,13.75 Z"/>
</svg>

