<svg xmlns="http://www.w3.org/2000/svg" width="24" height="24" viewBox="0 0 24 24">
  <defs/>
  <path fill="#292D32" d="M2.888,8.324 Q4.499,1.245 12.004,1.25 Q19.509,1.255 21.111,8.334 Q22.59,14.867 16.119,21.081 Q14.395,22.745 11.998,22.745 Q9.603,22.745 7.87,21.081 Q1.41,14.855 2.888,8.324 Z M4.351,8.656 L4.351,8.656 Q3.06,14.362 8.909,19.999 Q12.002,22.97 15.08,19.999 Q20.94,14.372 19.648,8.666 Q18.31,2.754 12.003,2.75 Q5.696,2.746 4.351,8.656 Z"/>
  <g opacity="0.4">
    <path fill="#292D32" d="M13.469,13.49 L9.509,9.53 Q9.289,9.311 9.289,9 Q9.289,8.689 9.509,8.47 Q9.728,8.25 10.039,8.25 Q10.35,8.25 10.569,8.47 L14.529,12.43 Q14.749,12.649 14.749,12.96 Q14.749,13.271 14.529,13.49 Q14.31,13.71 13.999,13.71 Q13.688,13.71 13.469,13.49 Z"/>
    <path fill="#292D32" d="M14.49,9.57 L10.53,13.53 Q10.311,13.75 10,13.75 Q9.689,13.75 9.47,13.53 Q9.25,13.311 9.25,13 Q9.25,12.689 9.47,12.47 L13.43,8.51 Q13.649,8.29 13.96,8.29 Q14.271,8.29 14.49,8.51 Q14.71,8.729 14.71,9.04 Q14.71,9.351 14.49,9.57 Z"/>
  </g>
</svg>

