<svg xmlns="http://www.w3.org/2000/svg" width="24" height="24" viewBox="0 0 24 24">
  <defs/>
  <path fill="#292D32" d="M20.619,8.7 C19.579,4.07 15.539,2 11.999,2 C11.999,2 11.999,2 11.989,2 C8.459,2 4.429,4.07 3.379,8.69 C2.199,13.85 5.359,18.22 8.219,20.98 C9.279,22 10.639,22.51 11.999,22.51 C13.359,22.51 14.719,22 15.769,20.98 C18.629,18.22 21.789,13.86 20.619,8.7 Z M14.749,11.75 L9.249,11.75 C8.839,11.75 8.499,11.41 8.499,11 C8.499,10.59 8.839,10.25 9.249,10.25 L14.749,10.25 C15.159,10.25 15.499,10.59 15.499,11 C15.499,11.41 15.159,11.75 14.749,11.75 Z"/>
</svg>

