<svg xmlns="http://www.w3.org/2000/svg" width="24" height="24" viewBox="0 0 24 24">
  <defs/>
  <path fill="#292D32" d="M15.871,10.31 Q15.871,11.912 14.741,13.045 Q13.608,14.18 12.001,14.18 Q8.131,14.18 8.131,10.31 Q8.131,6.44 12.001,6.44 Q12.643,6.44 13.208,6.628 Q13.503,6.727 13.642,7.005 Q13.781,7.282 13.682,7.577 Q13.584,7.872 13.306,8.011 Q13.028,8.15 12.734,8.051 Q12.399,7.94 12.001,7.94 Q9.631,7.94 9.631,10.31 Q9.631,11.297 10.322,11.988 Q11.014,12.68 12.001,12.68 Q12.986,12.68 13.679,11.985 Q14.371,11.291 14.371,10.31 Q14.371,9.999 14.591,9.78 Q14.81,9.56 15.121,9.56 Q15.432,9.56 15.651,9.78 Q15.871,9.999 15.871,10.31 Z"/>
  <path fill="#292D32" d="M5.467,3.754 Q9.183,0.259 14.414,1.544 Q19.88,2.888 21.112,8.345 Q22.591,14.877 16.12,21.091 Q14.396,22.755 12,22.755 Q9.604,22.755 7.871,21.091 Q1.405,14.835 2.89,8.333 Q2.959,8.03 3.222,7.865 Q3.485,7.7 3.788,7.769 Q4.091,7.838 4.256,8.101 Q4.421,8.364 4.352,8.667 Q3.056,14.345 8.91,20.009 Q12.004,22.98 15.081,20.009 Q20.941,14.382 19.649,8.675 Q18.622,4.123 14.056,3.001 Q9.617,1.91 6.495,4.846 Q6.268,5.059 5.958,5.05 Q5.647,5.04 5.435,4.814 Q5.222,4.588 5.231,4.277 Q5.241,3.967 5.467,3.754 Z"/>
</svg>

