<svg xmlns="http://www.w3.org/2000/svg" width="24" height="24" viewBox="0 0 24 24">
  <defs/>
  <path fill="#292D32" d="M2.888,8.324 Q4.499,1.245 12.004,1.25 Q19.509,1.255 21.111,8.334 Q22.59,14.867 16.119,21.081 Q14.395,22.745 11.998,22.745 Q9.603,22.745 7.87,21.081 Q1.41,14.855 2.888,8.324 Z M4.351,8.656 L4.351,8.656 Q3.06,14.362 8.909,19.999 Q12.002,22.97 15.08,19.999 Q20.94,14.372 19.648,8.666 Q18.31,2.754 12.003,2.75 Q5.696,2.746 4.351,8.656 Z"/>
  <path fill="#292D32" opacity="0.4" d="M9.78,10.97 L10.75,11.939 L14.22,8.47 Q14.439,8.25 14.75,8.25 Q15.061,8.25 15.28,8.47 Q15.5,8.689 15.5,9 Q15.5,9.311 15.28,9.53 L11.28,13.53 Q11.061,13.75 10.75,13.75 Q10.439,13.75 10.22,13.53 L8.72,12.03 Q8.5,11.811 8.5,11.5 Q8.5,11.189 8.72,10.97 Q8.939,10.75 9.25,10.75 Q9.561,10.75 9.78,10.97 Z"/>
</svg>

