<svg xmlns="http://www.w3.org/2000/svg" width="24" height="24" viewBox="0 0 24 24">
  <defs/>
  <path fill="#292D32" opacity="0.4" d="M12.001,14.18 Q10.398,14.18 9.264,13.046 Q8.131,11.913 8.131,10.31 Q8.131,6.44 12.001,6.44 Q13.604,6.44 14.737,7.573 Q15.871,8.707 15.871,10.31 Q15.871,11.913 14.737,13.046 Q13.604,14.18 12.001,14.18 Z M12.001,12.68 Q14.371,12.68 14.371,10.31 Q14.371,7.94 12.001,7.94 Q11.019,7.94 10.325,8.634 Q9.631,9.328 9.631,10.31 Q9.631,12.68 12.001,12.68 Z"/>
  <path fill="#292D32" d="M2.888,8.324 Q4.499,1.245 12.004,1.25 Q19.509,1.255 21.111,8.334 Q22.59,14.867 16.119,21.081 Q14.395,22.745 11.998,22.745 Q9.603,22.745 7.87,21.081 Q1.41,14.855 2.888,8.324 Z M4.351,8.656 L4.351,8.656 Q3.06,14.362 8.909,19.999 Q12.002,22.97 15.08,19.999 Q20.94,14.372 19.648,8.666 Q18.31,2.754 12.003,2.75 Q5.696,2.746 4.351,8.656 Z"/>
</svg>

