<svg xmlns="http://www.w3.org/2000/svg" width="24" height="24" viewBox="0 0 24 24">
  <defs/>
  <path fill="#292D32" d="M10.421,13.75 C10.291,13.75 10.161,13.72 10.041,13.65 C8.861,12.96 8.131,11.68 8.131,10.32 C8.131,8.19 9.861,6.45 12.001,6.45 C13.371,6.45 14.651,7.18 15.341,8.37 C15.551,8.73 15.431,9.19 15.071,9.4 C14.711,9.61 14.251,9.49 14.041,9.13 C13.621,8.39 12.841,7.94 12.001,7.94 C10.701,7.94 9.631,9 9.631,10.31 C9.631,11.15 10.081,11.93 10.801,12.35 C11.161,12.56 11.281,13.02 11.071,13.38 C10.931,13.61 10.681,13.75 10.421,13.75 Z"/>
  <path fill="#292D32" d="M5.991,18.56 C5.761,18.56 5.531,18.45 5.381,18.25 C2.981,14.96 2.141,11.62 2.891,8.32 C3.671,4.89 6.191,2.35 9.631,1.52 C13.231,0.65 17.011,1.82 19.241,4.49 C19.511,4.81 19.461,5.28 19.151,5.55 C18.831,5.82 18.361,5.77 18.091,5.45 C16.221,3.21 13.041,2.24 9.981,2.97 C7.061,3.67 5.011,5.74 4.351,8.64 C3.701,11.5 4.451,14.43 6.591,17.35 C6.831,17.68 6.761,18.15 6.431,18.4 C6.301,18.51 6.141,18.56 5.991,18.56 Z"/>
  <path fill="#292D32" d="M12,22.76 C10.52,22.76 9.03,22.2 7.87,21.09 C7.57,20.8 7.56,20.33 7.85,20.03 C8.14,19.73 8.61,19.72 8.91,20.01 C10.64,21.68 13.35,21.68 15.08,20.01 C17.75,17.44 20.71,13.38 19.65,8.67 C19.56,8.27 19.81,7.86 20.22,7.77 C20.62,7.68 21.03,7.93 21.12,8.34 C22.34,13.73 19.08,18.25 16.13,21.09 C14.97,22.2 13.48,22.76 12,22.76 Z"/>
  <path fill="#292D32" d="M1.999,22.75 C1.809,22.75 1.619,22.68 1.469,22.53 C1.179,22.24 1.179,21.76 1.469,21.47 L21.47,1.47 C21.759,1.18 22.239,1.18 22.529,1.47 C22.82,1.76 22.82,2.24 22.529,2.53 L2.529,22.53 C2.379,22.68 2.189,22.75 1.999,22.75 Z"/>
</svg>

