<svg xmlns="http://www.w3.org/2000/svg" width="24" height="24" viewBox="0 0 24 24">
  <defs/>
  <path fill="#292D32" d="M12,22.76 C10.52,22.76 9.03,22.2 7.87,21.09 C4.92,18.25 1.66,13.72 2.89,8.33 C4,3.44 8.27,1.25 12,1.25 C12,1.25 12,1.25 12.01,1.25 C15.74,1.25 20.01,3.44 21.12,8.34 C22.34,13.73 19.08,18.25 16.13,21.09 C14.97,22.2 13.48,22.76 12,22.76 Z M12,2.75 C9.09,2.75 5.35,4.3 4.36,8.66 C3.28,13.37 6.24,17.43 8.92,20 C10.65,21.67 13.36,21.67 15.09,20 C17.76,17.43 20.72,13.37 19.66,8.66 C18.66,4.3 14.91,2.75 12,2.75 Z"/>
  <path fill="#292D32" d="M14.001,13.71 C13.81,13.71 13.62,13.64 13.47,13.49 L9.51,9.53 C9.22,9.24 9.22,8.76 9.51,8.47 C9.8,8.18 10.28,8.18 10.57,8.47 L14.53,12.43 C14.82,12.72 14.82,13.2 14.53,13.49 C14.38,13.63 14.191,13.71 14.001,13.71 Z"/>
  <path fill="#292D32" d="M9.999,13.75 C9.809,13.75 9.619,13.68 9.469,13.53 C9.179,13.24 9.179,12.76 9.469,12.47 L13.43,8.51 C13.72,8.22 14.2,8.22 14.489,8.51 C14.78,8.8 14.78,9.28 14.489,9.57 L10.53,13.53 C10.38,13.68 10.19,13.75 9.999,13.75 Z"/>
</svg>

