<svg xmlns="http://www.w3.org/2000/svg" width="24" height="24" viewBox="0 0 24 24">
  <defs/>
  <path fill="#292D32" opacity="0.4" d="M18.891,5.11 L5.791,18.21 C3.901,15.64 2.541,12.36 3.381,8.69 C3.901,6.38 5.181,4.71 6.761,3.61 C8.341,2.52 10.231,2 12.001,2 C14.441,2 17.121,2.98 18.891,5.11 Z"/>
  <path fill="#292D32" opacity="0.4" d="M15.781,20.98 C14.721,22 13.361,22.51 12.001,22.51 C10.641,22.51 9.281,21.99 8.221,20.97 C7.861,20.63 7.501,20.25 7.141,19.86 L20.041,6.96 C20.291,7.5 20.481,8.07 20.621,8.7 C21.791,13.86 18.631,18.22 15.781,20.98 Z"/>
  <path fill="#292D32" d="M21.77,2.23 C21.471,1.92 20.991,1.92 20.691,2.23 L15.021,7.9 L14.3,8.62 C13.761,7.88 12.911,7.44 12.001,7.44 C10.421,7.44 9.131,8.73 9.131,10.31 C9.131,11.21 9.571,12.06 10.31,12.61 L2.231,20.69 C1.921,20.99 1.921,21.47 2.231,21.77 C2.381,21.92 2.571,22 2.771,22 C2.971,22 3.161,21.92 3.311,21.77 L21.77,3.31 C22.081,3.01 22.081,2.53 21.77,2.23 Z"/>
</svg>

