<svg xmlns="http://www.w3.org/2000/svg" width="24" height="24" viewBox="0 0 24 24">
  <defs/>
  <path fill="#292D32" opacity="0.4" d="M20.621,8.7 C19.581,4.07 15.541,2 12.001,2 C12.001,2 12.001,2 11.991,2 C8.461,2 4.431,4.07 3.381,8.69 C2.201,13.85 5.361,18.22 8.221,20.98 C9.281,22 10.641,22.51 12.001,22.51 C13.361,22.51 14.721,22 15.771,20.98 C18.631,18.22 21.791,13.86 20.621,8.7 Z"/>
  <path fill="#292D32" d="M14.75,10.25 L12.75,10.25 L12.75,8.25 C12.75,7.84 12.41,7.5 12,7.5 C11.59,7.5 11.25,7.84 11.25,8.25 L11.25,10.25 L9.25,10.25 C8.84,10.25 8.5,10.59 8.5,11 C8.5,11.41 8.84,11.75 9.25,11.75 L11.25,11.75 L11.25,13.75 C11.25,14.16 11.59,14.5 12,14.5 C12.41,14.5 12.75,14.16 12.75,13.75 L12.75,11.75 L14.75,11.75 C15.16,11.75 15.5,11.41 15.5,11 C15.5,10.59 15.16,10.25 14.75,10.25 Z"/>
</svg>

