<svg xmlns="http://www.w3.org/2000/svg" width="24" height="24" viewBox="0 0 24 24">
  <defs/>
  <path fill="#292D32" d="M9.25,10.25 L14.75,10.25 Q15.061,10.25 15.28,10.47 Q15.5,10.689 15.5,11 Q15.5,11.311 15.28,11.53 Q15.061,11.75 14.75,11.75 L9.25,11.75 Q8.939,11.75 8.72,11.53 Q8.5,11.311 8.5,11 Q8.5,10.689 8.72,10.47 Q8.939,10.25 9.25,10.25 Z"/>
  <path fill="#292D32" d="M11.25,13.75 L11.25,8.25 Q11.25,7.939 11.47,7.72 Q11.689,7.5 12,7.5 Q12.311,7.5 12.53,7.72 Q12.75,7.939 12.75,8.25 L12.75,13.75 Q12.75,14.061 12.53,14.28 Q12.311,14.5 12,14.5 Q11.689,14.5 11.47,14.28 Q11.25,14.061 11.25,13.75 Z"/>
  <path fill="#292D32" d="M2.889,8.324 Q4.499,1.245 12.004,1.25 Q19.509,1.255 21.111,8.334 Q22.59,14.867 16.119,21.081 Q14.395,22.745 11.999,22.745 Q9.603,22.745 7.87,21.081 Q1.41,14.855 2.889,8.324 Z M4.352,8.656 L4.351,8.656 Q3.06,14.362 8.91,19.999 Q12.003,22.97 15.081,19.999 Q20.94,14.372 19.648,8.666 Q18.311,2.754 12.003,2.75 Q5.696,2.746 4.352,8.656 Z"/>
</svg>

