<svg xmlns="http://www.w3.org/2000/svg" width="24" height="24" viewBox="0 0 24 24">
  <defs/>
  <path fill="#292D32" d="M10.04,13.647 Q8.13,12.525 8.13,10.31 Q8.13,8.708 9.26,7.575 Q10.393,6.44 12,6.44 Q14.222,6.44 15.339,8.363 Q15.495,8.632 15.415,8.932 Q15.335,9.233 15.067,9.389 Q14.798,9.545 14.498,9.465 Q14.197,9.385 14.041,9.117 Q13.358,7.94 12,7.94 Q9.63,7.94 9.63,10.31 Q9.63,11.667 10.8,12.353 Q11.068,12.51 11.146,12.811 Q11.224,13.112 11.067,13.38 Q10.91,13.647 10.609,13.726 Q10.308,13.804 10.04,13.647 Z"/>
  <path fill="#292D32" d="M5.385,18.254 Q1.762,13.312 2.899,8.324 Q4.208,2.562 10.091,1.431 Q15.779,0.337 19.256,4.499 Q19.455,4.738 19.427,5.047 Q19.399,5.357 19.161,5.556 Q18.922,5.755 18.613,5.727 Q18.304,5.699 18.104,5.461 Q15.194,1.977 10.374,2.904 Q5.454,3.85 4.361,8.657 Q3.377,12.977 6.595,17.367 Q6.779,17.617 6.731,17.924 Q6.684,18.231 6.433,18.415 Q6.183,18.599 5.876,18.551 Q5.569,18.504 5.385,18.254 Z"/>
  <path fill="#292D32" d="M21.111,8.334 Q22.59,14.867 16.119,21.081 Q14.395,22.745 11.999,22.745 Q9.603,22.745 7.87,21.081 Q7.646,20.866 7.64,20.555 Q7.634,20.245 7.849,20.02 Q8.064,19.796 8.375,19.79 Q8.685,19.784 8.91,19.999 Q12.003,22.97 15.081,19.999 Q20.94,14.372 19.649,8.666 Q19.58,8.363 19.746,8.1 Q19.911,7.837 20.214,7.769 Q20.517,7.7 20.78,7.866 Q21.043,8.031 21.111,8.334 Z"/>
  <path fill="#292D32" d="M22.53,2.53 L2.53,22.53 Q2.311,22.75 2,22.75 Q1.689,22.75 1.47,22.53 Q1.25,22.311 1.25,22 Q1.25,21.689 1.47,21.47 L21.47,1.47 Q21.689,1.25 22,1.25 Q22.311,1.25 22.53,1.47 Q22.75,1.689 22.75,2 Q22.75,2.311 22.53,2.53 Z"/>
</svg>

