<svg xmlns="http://www.w3.org/2000/svg" width="24" height="24" viewBox="0 0 24 24">
  <defs/>
  <path fill="#292D32" d="M10.041,13.647 Q8.131,12.525 8.131,10.31 Q8.131,6.44 12.001,6.44 Q14.223,6.44 15.339,8.363 Q15.495,8.632 15.416,8.932 Q15.336,9.233 15.068,9.389 Q14.799,9.545 14.499,9.465 Q14.198,9.385 14.042,9.117 Q13.359,7.94 12.001,7.94 Q9.631,7.94 9.631,10.31 Q9.631,11.667 10.801,12.353 Q11.068,12.51 11.147,12.811 Q11.225,13.112 11.068,13.38 Q10.91,13.647 10.61,13.726 Q10.309,13.804 10.041,13.647 Z"/>
  <path fill="#292D32" d="M5.384,18.254 Q1.762,13.312 2.898,8.324 Q4.207,2.562 10.09,1.431 Q15.778,0.337 19.255,4.499 Q19.454,4.738 19.426,5.047 Q19.398,5.357 19.16,5.556 Q18.922,5.755 18.612,5.727 Q18.303,5.699 18.104,5.461 Q15.193,1.977 10.373,2.904 Q5.453,3.85 4.36,8.657 Q3.376,12.977 6.594,17.367 Q6.778,17.617 6.73,17.924 Q6.683,18.231 6.433,18.415 Q6.182,18.599 5.875,18.551 Q5.568,18.504 5.384,18.254 Z"/>
  <path fill="#292D32" opacity="0.4" d="M21.112,8.334 Q22.591,14.867 16.12,21.081 Q14.396,22.745 11.999,22.745 Q9.604,22.745 7.871,21.081 Q7.647,20.866 7.641,20.555 Q7.635,20.245 7.85,20.02 Q8.065,19.796 8.375,19.79 Q8.686,19.784 8.91,19.999 Q12.003,22.97 15.081,19.999 Q20.941,14.372 19.649,8.666 Q19.581,8.363 19.746,8.1 Q19.912,7.837 20.215,7.769 Q20.518,7.7 20.781,7.866 Q21.043,8.031 21.112,8.334 Z"/>
  <path fill="#292D32" d="M22.53,2.53 L2.53,22.53 Q2.311,22.75 2,22.75 Q1.689,22.75 1.47,22.53 Q1.25,22.311 1.25,22 Q1.25,21.689 1.47,21.47 L21.47,1.47 Q21.689,1.25 22,1.25 Q22.311,1.25 22.53,1.47 Q22.75,1.689 22.75,2 Q22.75,2.311 22.53,2.53 Z"/>
</svg>

