<svg xmlns="http://www.w3.org/2000/svg" width="24" height="24" viewBox="0 0 24 24">
  <defs/>
  <path fill="#292D32" d="M10.041,13.647 Q8.131,12.525 8.131,10.31 Q8.131,6.44 12.001,6.44 Q14.223,6.44 15.339,8.363 Q15.495,8.632 15.416,8.932 Q15.336,9.233 15.068,9.389 Q14.799,9.545 14.499,9.465 Q14.198,9.385 14.042,9.117 Q13.359,7.94 12.001,7.94 Q9.631,7.94 9.631,10.31 Q9.631,11.667 10.801,12.353 Q11.068,12.51 11.147,12.811 Q11.225,13.112 11.068,13.38 Q10.91,13.647 10.61,13.726 Q10.309,13.804 10.041,13.647 Z"/>
  <path fill="#292D32" d="M6.046,3.251 Q8.963,0.952 12.872,1.285 Q16.85,1.624 19.255,4.499 Q19.454,4.737 19.427,5.046 Q19.399,5.356 19.161,5.555 Q18.923,5.755 18.613,5.727 Q18.304,5.699 18.105,5.461 Q16.101,3.066 12.745,2.78 Q9.426,2.497 6.974,4.429 Q6.73,4.621 6.422,4.585 Q6.113,4.548 5.921,4.304 Q5.728,4.06 5.765,3.752 Q5.802,3.443 6.046,3.251 Z"/>
  <path fill="#292D32" d="M5.384,18.253 Q1.762,13.312 2.898,8.323 Q2.967,8.021 3.23,7.855 Q3.493,7.69 3.796,7.759 Q4.099,7.828 4.264,8.091 Q4.429,8.354 4.36,8.657 Q3.376,12.977 6.594,17.367 Q6.778,17.617 6.73,17.924 Q6.683,18.231 6.433,18.415 Q6.182,18.599 5.875,18.551 Q5.568,18.504 5.384,18.253 Z"/>
  <path fill="#292D32" d="M21.112,8.334 Q22.591,14.867 16.12,21.081 Q14.396,22.745 11.999,22.745 Q9.604,22.745 7.871,21.081 Q7.647,20.866 7.641,20.555 Q7.635,20.245 7.85,20.02 Q8.065,19.796 8.375,19.79 Q8.686,19.784 8.91,19.999 Q12.003,22.97 15.081,19.999 Q20.941,14.372 19.649,8.666 Q19.581,8.363 19.746,8.1 Q19.912,7.837 20.215,7.769 Q20.518,7.7 20.781,7.866 Q21.043,8.031 21.112,8.334 Z"/>
  <path fill="#292D32" d="M22.53,2.53 L2.53,22.53 Q2.311,22.75 2,22.75 Q1.689,22.75 1.47,22.53 Q1.25,22.311 1.25,22 Q1.25,21.689 1.47,21.47 L21.47,1.47 Q21.689,1.25 22,1.25 Q22.311,1.25 22.53,1.47 Q22.75,1.689 22.75,2 Q22.75,2.311 22.53,2.53 Z"/>
</svg>

