<svg xmlns="http://www.w3.org/2000/svg" width="24" height="24" viewBox="0 0 24 24">
  <defs/>
  <path fill="#292D32" d="M9.78,10.97 L10.75,11.939 L14.22,8.47 Q14.439,8.25 14.75,8.25 Q15.061,8.25 15.28,8.47 Q15.5,8.689 15.5,9 Q15.5,9.311 15.28,9.53 L11.28,13.53 Q11.061,13.75 10.75,13.75 Q10.439,13.75 10.22,13.53 L8.72,12.03 Q8.5,11.811 8.5,11.5 Q8.5,11.189 8.72,10.97 Q8.939,10.75 9.25,10.75 Q9.561,10.75 9.78,10.97 Z"/>
  <path fill="#292D32" d="M5.467,3.754 Q9.183,0.259 14.414,1.544 Q19.88,2.888 21.112,8.345 Q22.591,14.877 16.12,21.091 Q14.396,22.755 12,22.755 Q9.604,22.755 7.871,21.091 Q1.405,14.835 2.89,8.333 Q2.959,8.03 3.222,7.865 Q3.485,7.7 3.788,7.769 Q4.091,7.838 4.256,8.101 Q4.421,8.364 4.352,8.667 Q3.056,14.345 8.91,20.009 Q12.004,22.98 15.081,20.009 Q20.941,14.382 19.649,8.675 Q18.622,4.123 14.056,3.001 Q9.617,1.91 6.495,4.846 Q6.268,5.059 5.958,5.05 Q5.647,5.04 5.435,4.814 Q5.222,4.588 5.231,4.277 Q5.241,3.967 5.467,3.754 Z"/>
</svg>

