<svg xmlns="http://www.w3.org/2000/svg" width="24" height="24" viewBox="0 0 24 24">
  <defs/>
  <path fill="#292D32" d="M14.75,11.75 L9.25,11.75 C8.84,11.75 8.5,11.41 8.5,11 C8.5,10.59 8.84,10.25 9.25,10.25 L14.75,10.25 C15.16,10.25 15.5,10.59 15.5,11 C15.5,11.41 15.16,11.75 14.75,11.75 Z"/>
  <path fill="#292D32" d="M12,14.5 C11.59,14.5 11.25,14.16 11.25,13.75 L11.25,8.25 C11.25,7.84 11.59,7.5 12,7.5 C12.41,7.5 12.75,7.84 12.75,8.25 L12.75,13.75 C12.75,14.16 12.41,14.5 12,14.5 Z"/>
  <path fill="#292D32" d="M12,22.76 C10.52,22.76 9.03,22.2 7.87,21.09 C4.92,18.25 1.66,13.72 2.89,8.33 C4,3.44 8.27,1.25 12,1.25 C12,1.25 12,1.25 12.01,1.25 C15.74,1.25 20.01,3.44 21.12,8.34 C22.34,13.73 19.08,18.25 16.13,21.09 C14.97,22.2 13.48,22.76 12,22.76 Z M12,2.75 C9.09,2.75 5.35,4.3 4.36,8.66 C3.28,13.37 6.24,17.43 8.92,20 C10.65,21.67 13.36,21.67 15.09,20 C17.76,17.43 20.72,13.37 19.66,8.66 C18.66,4.3 14.91,2.75 12,2.75 Z"/>
</svg>

