<svg xmlns="http://www.w3.org/2000/svg" width="24" height="24" viewBox="0 0 24 24">
  <defs/>
  <path fill="#292D32" d="M12,14.18 Q10.397,14.18 9.264,13.046 Q8.13,11.913 8.13,10.31 Q8.13,6.44 12,6.44 Q13.603,6.44 14.736,7.573 Q15.87,8.707 15.87,10.31 Q15.87,11.913 14.736,13.046 Q13.603,14.18 12,14.18 Z M12,12.68 Q14.37,12.68 14.37,10.31 Q14.37,7.94 12,7.94 Q9.63,7.94 9.63,10.31 Q9.63,11.292 10.324,11.986 Q11.018,12.68 12,12.68 Z"/>
  <path fill="#292D32" d="M2.889,8.324 Q4.499,1.245 12.004,1.25 Q19.509,1.255 21.111,8.334 Q22.59,14.867 16.119,21.081 Q14.395,22.745 11.999,22.745 Q9.603,22.745 7.87,21.081 Q1.41,14.855 2.889,8.324 Z M4.352,8.656 L4.351,8.656 Q3.06,14.362 8.91,19.999 Q12.003,22.97 15.081,19.999 Q20.94,14.372 19.648,8.666 Q18.311,2.754 12.003,2.75 Q5.696,2.746 4.352,8.656 Z"/>
</svg>

