<svg xmlns="http://www.w3.org/2000/svg" width="24" height="24" viewBox="0 0 24 24">
  <defs/>
  <path fill="#292D32" d="M14.53,12.42 L13.079,10.97 L14.479,9.57 C14.77,9.28 14.77,8.8 14.479,8.51 C14.19,8.22 13.71,8.22 13.419,8.51 L12.02,9.91 L10.569,8.46 C10.28,8.17 9.799,8.17 9.509,8.46 C9.219,8.75 9.219,9.23 9.509,9.52 L10.96,10.97 L9.469,12.46 C9.179,12.75 9.179,13.23 9.469,13.52 C9.619,13.67 9.809,13.74 9.999,13.74 C10.19,13.74 10.38,13.67 10.53,13.52 L12.02,12.03 L13.47,13.48 C13.62,13.63 13.809,13.7 13.999,13.7 C14.19,13.7 14.38,13.63 14.53,13.48 C14.819,13.19 14.819,12.72 14.53,12.42 Z"/>
  <path fill="#292D32" opacity="0.4" d="M20.621,8.7 C19.581,4.07 15.541,2 12.001,2 C12.001,2 12.001,2 11.991,2 C8.461,2 4.431,4.07 3.381,8.69 C2.201,13.85 5.361,18.22 8.221,20.98 C9.281,22 10.641,22.51 12.001,22.51 C13.361,22.51 14.721,22 15.771,20.98 C18.631,18.22 21.791,13.86 20.621,8.7 Z"/>
</svg>

