<svg xmlns="http://www.w3.org/2000/svg" width="24" height="24" viewBox="0 0 24 24">
  <defs/>
  <path fill="#292D32" opacity="0.4" d="M20.619,8.45 C19.569,3.83 15.539,1.75 11.999,1.75 C11.999,1.75 11.999,1.75 11.989,1.75 C8.459,1.75 4.419,3.82 3.369,8.44 C2.199,13.6 5.359,17.97 8.219,20.72 C9.279,21.74 10.639,22.25 11.999,22.25 C13.359,22.25 14.719,21.74 15.769,20.72 C18.629,17.97 21.789,13.61 20.619,8.45 Z"/>
  <path fill="#292D32" d="M12,13.46 C13.739,13.46 15.15,12.05 15.15,10.31 C15.15,8.57 13.739,7.16 12,7.16 C10.26,7.16 8.85,8.57 8.85,10.31 C8.85,12.05 10.26,13.46 12,13.46 Z"/>
</svg>

