<svg xmlns="http://www.w3.org/2000/svg" width="24" height="24" viewBox="0 0 24 24">
  <defs/>
  <path fill="#292D32" opacity="0.4" d="M12,22 C17.523,22 22,17.523 22,12 C22,6.477 17.523,2 12,2 C6.477,2 2,6.477 2,12 C2,17.523 6.477,22 12,22 Z"/>
  <path fill="#292D32" d="M15.749,10.73 L15.749,10 C15.749,9.07 15.749,6.25 11.999,6.25 C8.249,6.25 8.249,9.07 8.249,10 L8.249,10.73 C7.029,11 6.619,11.79 6.619,13.5 L6.619,14.5 C6.619,16.7 7.299,17.38 9.499,17.38 L14.499,17.38 C16.699,17.38 17.379,16.7 17.379,14.5 L17.379,13.5 C17.379,11.79 16.969,11 15.749,10.73 Z M11.999,15.1 C11.389,15.1 10.899,14.61 10.899,14 C10.899,13.39 11.389,12.9 11.999,12.9 C12.609,12.9 13.099,13.39 13.099,14 C13.099,14.61 12.609,15.1 11.999,15.1 Z M14.249,10.62 L9.749,10.62 L9.749,10 C9.749,8.54 10.109,7.75 11.999,7.75 C13.889,7.75 14.249,8.54 14.249,10 L14.249,10.62 Z"/>
</svg>

