<svg xmlns="http://www.w3.org/2000/svg" width="24" height="24" viewBox="0 0 24 24">
  <defs/>
  <path fill="#292D32" d="M15,11.75 C14.59,11.75 14.25,11.41 14.25,11 L14.25,10 C14.25,8.54 13.89,7.75 12,7.75 C10.11,7.75 9.75,8.54 9.75,10 L9.75,11 C9.75,11.41 9.41,11.75 9,11.75 C8.59,11.75 8.25,11.41 8.25,11 L8.25,10 C8.25,9.07 8.25,6.25 12,6.25 C15.75,6.25 15.75,9.07 15.75,10 L15.75,11 C15.75,11.41 15.41,11.75 15,11.75 Z"/>
  <path fill="#292D32" d="M12,15.35 C11.26,15.35 10.65,14.74 10.65,14 C10.65,13.26 11.26,12.65 12,12.65 C12.74,12.65 13.35,13.26 13.35,14 C13.35,14.74 12.74,15.35 12,15.35 Z M12,13.85 C11.92,13.85 11.85,13.92 11.85,14 C11.85,14.17 12.15,14.17 12.15,14 C12.15,13.92 12.08,13.85 12,13.85 Z"/>
  <path fill="#292D32" d="M14.5,17.75 L9.5,17.75 C7.1,17.75 6.25,16.9 6.25,14.5 L6.25,13.5 C6.25,11.1 7.1,10.25 9.5,10.25 L14.5,10.25 C16.9,10.25 17.75,11.1 17.75,13.5 L17.75,14.5 C17.75,16.9 16.9,17.75 14.5,17.75 Z M9.5,11.75 C7.91,11.75 7.75,11.91 7.75,13.5 L7.75,14.5 C7.75,16.09 7.91,16.25 9.5,16.25 L14.5,16.25 C16.09,16.25 16.25,16.09 16.25,14.5 L16.25,13.5 C16.25,11.91 16.09,11.75 14.5,11.75 L9.5,11.75 Z"/>
  <path fill="#292D32" d="M12,22.75 C6.07,22.75 1.25,17.93 1.25,12 C1.25,6.07 6.07,1.25 12,1.25 C17.93,1.25 22.75,6.07 22.75,12 C22.75,17.93 17.93,22.75 12,22.75 Z M12,2.75 C6.9,2.75 2.75,6.9 2.75,12 C2.75,17.1 6.9,21.25 12,21.25 C17.1,21.25 21.25,17.1 21.25,12 C21.25,6.9 17.1,2.75 12,2.75 Z"/>
</svg>

