<svg xmlns="http://www.w3.org/2000/svg" width="24" height="24" viewBox="0 0 24 24">
  <defs/>
  <path fill="#292D32" d="M12,7.75 C10.11,7.75 9.75,8.54 9.75,10 L9.75,10.62 L14.25,10.62 L14.25,10 C14.25,8.54 13.89,7.75 12,7.75 Z"/>
  <path fill="#292D32" d="M11.998,15.098 C12.606,15.098 13.098,14.606 13.098,13.998 C13.098,13.391 12.606,12.898 11.998,12.898 C11.391,12.898 10.898,13.391 10.898,13.998 C10.898,14.606 11.391,15.098 11.998,15.098 Z"/>
  <path fill="#292D32" d="M12,2 C6.48,2 2,6.48 2,12 C2,17.52 6.48,22 12,22 C17.52,22 22,17.52 22,12 C22,6.48 17.52,2 12,2 Z M17.38,14.5 C17.38,16.7 16.7,17.38 14.5,17.38 L9.5,17.38 C7.3,17.38 6.62,16.7 6.62,14.5 L6.62,13.5 C6.62,11.79 7.03,11 8.25,10.73 L8.25,10 C8.25,9.07 8.25,6.25 12,6.25 C15.75,6.25 15.75,9.07 15.75,10 L15.75,10.73 C16.97,11 17.38,11.79 17.38,13.5 L17.38,14.5 Z"/>
</svg>

