<svg xmlns="http://www.w3.org/2000/svg" width="24" height="24" viewBox="0 0 24 24">
  <defs/>
  <path fill="#292D32" d="M12,19.25 C10.98,19.25 10.04,18.79 9.42,17.98 C9.17,17.65 9.23,17.18 9.56,16.93 C9.89,16.68 10.36,16.74 10.61,17.07 C10.94,17.51 11.45,17.75 12,17.75 C12.96,17.75 13.75,16.96 13.75,16 C13.75,15.61 13.63,15.24 13.39,14.94 C13.14,14.61 13.2,14.14 13.53,13.89 C13.86,13.64 14.33,13.7 14.58,14.03 C15.02,14.6 15.25,15.28 15.25,16 C15.25,17.79 13.79,19.25 12,19.25 Z"/>
  <path fill="#292D32" d="M17,22.75 L7,22.75 C6.63,22.75 6.28,22.74 5.95,22.72 C5.54,22.7 5.22,22.34 5.24,21.93 C5.26,21.52 5.61,21.22 6.03,21.22 C6.33,21.24 6.65,21.24 6.99,21.24 L16.99,21.24 C20.56,21.24 21.24,20.56 21.24,16.99 L21.24,14.99 C21.24,11.48 20.5,10.91 17.95,10.76 C17.65,10.74 17.33,10.74 16.99,10.74 L7,10.74 C3.43,10.74 2.75,11.42 2.75,14.99 L2.75,16.99 C2.75,18.73 2.95,19.76 3.41,20.32 C3.67,20.64 3.62,21.12 3.29,21.37 C2.97,21.63 2.5,21.58 2.24,21.25 C1.54,20.4 1.25,19.16 1.25,17 L1.25,15 C1.25,10.59 2.59,9.25 7,9.25 L17,9.25 C17.37,9.25 17.72,9.26 18.04,9.28 C22,9.5 22.75,11.46 22.75,15 L22.75,17 C22.75,21.41 21.41,22.75 17,22.75 Z"/>
  <path fill="#292D32" d="M6,10.75 C5.59,10.75 5.25,10.41 5.25,10 L5.25,8 C5.25,5.1 5.95,1.25 12,1.25 C16.07,1.25 18.18,2.58 18.64,5.44 C18.71,5.85 18.43,6.23 18.02,6.3 C17.61,6.37 17.23,6.09 17.16,5.68 C16.91,4.16 16.12,2.75 12,2.75 C7.64,2.75 6.75,4.85 6.75,8 L6.75,10 C6.75,10.41 6.41,10.75 6,10.75 Z"/>
  <path fill="#292D32" d="M1.999,22.75 C1.809,22.75 1.619,22.68 1.469,22.53 C1.179,22.24 1.179,21.76 1.469,21.47 L21.47,1.47 C21.759,1.18 22.239,1.18 22.529,1.47 C22.82,1.76 22.82,2.24 22.529,2.53 L2.529,22.53 C2.379,22.68 2.189,22.75 1.999,22.75 Z"/>
</svg>

