<svg xmlns="http://www.w3.org/2000/svg" width="24" height="24" viewBox="0 0 24 24">
  <defs/>
  <path fill="#292D32" d="M8.25,11 L8.25,10 Q8.25,6.25 12,6.25 Q15.75,6.25 15.75,10 L15.75,11 Q15.75,11.311 15.53,11.53 Q15.311,11.75 15,11.75 Q14.689,11.75 14.47,11.53 Q14.25,11.311 14.25,11 L14.25,10 Q14.25,7.75 12,7.75 Q9.75,7.75 9.75,10 L9.75,11 Q9.75,11.311 9.53,11.53 Q9.311,11.75 9,11.75 Q8.689,11.75 8.47,11.53 Q8.25,11.311 8.25,11 Z"/>
  <path fill="#292D32" d="M12,15.35 Q11.441,15.35 11.046,14.955 Q10.65,14.559 10.65,14 Q10.65,13.441 11.046,13.045 Q11.441,12.65 12,12.65 Q13.35,12.65 13.35,14 Q13.35,14.559 12.955,14.955 Q12.56,15.35 12,15.35 Z M12,13.85 Q11.938,13.85 11.894,13.894 Q11.85,13.938 11.85,14 Q11.85,14.15 12,14.15 Q12.063,14.15 12.106,14.106 Q12.15,14.062 12.15,14 Q12.15,13.938 12.106,13.894 Q12.063,13.85 12,13.85 Z"/>
  <path fill="#292D32" d="M14.5,17.75 L9.5,17.75 Q7.689,17.75 6.97,17.03 Q6.25,16.311 6.25,14.5 L6.25,13.5 Q6.25,10.25 9.5,10.25 L14.5,10.25 Q17.75,10.25 17.75,13.5 L17.75,14.5 Q17.75,16.311 17.03,17.03 Q16.311,17.75 14.5,17.75 Z M14.5,16.25 Q16.25,16.25 16.25,14.5 L16.25,13.5 Q16.25,11.75 14.5,11.75 L9.5,11.75 Q8.311,11.75 8.03,12.03 Q7.75,12.311 7.75,13.5 L7.75,14.5 Q7.75,16.25 9.5,16.25 Z"/>
  <path fill="#292D32" d="M4.6,6.449 Q2.75,8.922 2.75,12 Q2.75,15.829 5.46,18.54 Q8.171,21.25 12,21.25 Q15.829,21.25 18.54,18.54 Q21.25,15.829 21.25,12 Q21.25,8.171 18.54,5.46 Q15.829,2.75 12,2.75 Q10.031,2.75 8.276,3.535 Q7.993,3.661 7.702,3.551 Q7.412,3.44 7.285,3.156 Q7.158,2.873 7.269,2.582 Q7.38,2.292 7.664,2.165 Q9.711,1.25 12,1.25 Q16.451,1.25 19.6,4.4 Q22.75,7.549 22.75,12 Q22.75,16.451 19.6,19.6 Q16.451,22.75 12,22.75 Q7.549,22.75 4.4,19.6 Q1.25,16.451 1.25,12 Q1.25,8.422 3.4,5.551 Q3.586,5.302 3.893,5.258 Q4.201,5.213 4.449,5.4 Q4.698,5.586 4.742,5.893 Q4.787,6.201 4.6,6.449 Z"/>
</svg>

