<svg xmlns="http://www.w3.org/2000/svg" width="24" height="24" viewBox="0 0 24 24">
  <defs/>
  <path fill="#292D32" opacity="0.4" d="M5.25,10 L5.25,8 Q5.25,1.25 12,1.25 Q18.75,1.25 18.75,8 L18.75,10 Q18.75,10.311 18.53,10.53 Q18.311,10.75 18,10.75 Q17.689,10.75 17.47,10.53 Q17.25,10.311 17.25,10 L17.25,8 Q17.25,2.75 12,2.75 Q6.75,2.75 6.75,8 L6.75,10 Q6.75,10.311 6.53,10.53 Q6.311,10.75 6,10.75 Q5.689,10.75 5.47,10.53 Q5.25,10.311 5.25,10 Z"/>
  <path fill="#292D32" d="M17,22.75 L7,22.75 Q3.689,22.75 2.47,21.53 Q1.25,20.311 1.25,17 L1.25,15 Q1.25,11.689 2.47,10.47 Q3.689,9.25 7,9.25 L17,9.25 Q20.311,9.25 21.53,10.47 Q22.75,11.689 22.75,15 L22.75,17 Q22.75,20.311 21.53,21.53 Q20.311,22.75 17,22.75 Z M17,21.25 Q19.689,21.25 20.47,20.47 Q21.25,19.689 21.25,17 L21.25,15 Q21.25,12.311 20.47,11.53 Q19.689,10.75 17,10.75 L7,10.75 Q4.311,10.75 3.53,11.53 Q2.75,12.311 2.75,15 L2.75,17 Q2.75,19.689 3.53,20.47 Q4.311,21.25 7,21.25 Z"/>
  <path fill="#292D32" opacity="0.4" d="M15.997,15 L16.005,15 Q16.42,15 16.713,15.293 Q17.005,15.586 17.005,16 Q17.005,16.414 16.713,16.707 Q16.42,17 16.005,17 L15.997,17 Q15.582,17 15.289,16.707 Q14.997,16.414 14.997,16 Q14.997,15.586 15.289,15.293 Q15.582,15 15.997,15 Z"/>
  <path fill="#292D32" opacity="0.4" d="M11.995,15 L12.003,15 Q12.418,15 12.711,15.293 Q13.003,15.586 13.003,16 Q13.003,16.414 12.711,16.707 Q12.418,17 12.003,17 L11.995,17 Q11.58,17 11.287,16.707 Q10.994,16.414 10.994,16 Q10.994,15.586 11.287,15.293 Q11.58,15 11.995,15 Z"/>
  <path fill="#292D32" opacity="0.4" d="M7.995,15 L8.003,15 Q8.418,15 8.711,15.293 Q9.003,15.586 9.003,16 Q9.003,16.414 8.711,16.707 Q8.418,17 8.003,17 L7.995,17 Q7.58,17 7.287,16.707 Q6.995,16.414 6.995,16 Q6.995,15.586 7.287,15.293 Q7.58,15 7.995,15 Z"/>
</svg>

