<svg xmlns="http://www.w3.org/2000/svg" width="24" height="24" viewBox="0 0 24 24">
  <defs/>
  <path fill="#292D32" d="M5.25,10 L5.25,8 Q5.25,1.25 12,1.25 Q18.75,1.25 18.75,8 L18.75,10 Q18.75,10.311 18.53,10.53 Q18.311,10.75 18,10.75 Q17.689,10.75 17.47,10.53 Q17.25,10.311 17.25,10 L17.25,8 Q17.25,2.75 12,2.75 Q6.75,2.75 6.75,8 L6.75,10 Q6.75,10.311 6.53,10.53 Q6.311,10.75 6,10.75 Q5.689,10.75 5.47,10.53 Q5.25,10.311 5.25,10 Z"/>
  <path fill="#292D32" d="M10.25,16 Q10.25,17.75 12,17.75 Q13.75,17.75 13.75,16 Q13.75,15.276 13.237,14.763 Q12.724,14.25 12,14.25 Q11.689,14.25 11.47,14.03 Q11.25,13.811 11.25,13.5 Q11.25,13.189 11.47,12.97 Q11.689,12.75 12,12.75 Q13.346,12.75 14.298,13.702 Q15.25,14.654 15.25,16 Q15.25,17.346 14.298,18.298 Q13.346,19.25 12,19.25 Q8.75,19.25 8.75,16 Q8.75,15.689 8.97,15.47 Q9.189,15.25 9.5,15.25 Q9.811,15.25 10.03,15.47 Q10.25,15.689 10.25,16 Z"/>
  <path fill="#292D32" d="M21.25,17 L21.25,15 Q21.25,12.311 20.47,11.53 Q19.689,10.75 17,10.75 L7,10.75 Q4.311,10.75 3.53,11.53 Q2.75,12.311 2.75,15 L2.75,17 Q2.75,19.689 3.53,20.47 Q4.311,21.25 7,21.25 L17,21.25 Q19.435,21.25 20.269,20.643 Q20.52,20.461 20.827,20.509 Q21.134,20.558 21.317,20.809 Q21.499,21.06 21.451,21.367 Q21.402,21.674 21.151,21.857 Q19.923,22.75 17,22.75 L7,22.75 Q3.689,22.75 2.47,21.53 Q1.25,20.311 1.25,17 L1.25,15 Q1.25,11.689 2.47,10.47 Q3.689,9.25 7,9.25 L17,9.25 Q20.311,9.25 21.53,10.47 Q22.75,11.689 22.75,15 L22.75,17 Q22.75,17.311 22.53,17.53 Q22.311,17.75 22,17.75 Q21.689,17.75 21.47,17.53 Q21.25,17.311 21.25,17 Z"/>
</svg>

