<svg xmlns="http://www.w3.org/2000/svg" width="24" height="24" viewBox="0 0 24 24">
  <defs/>
  <path fill="#292D32" opacity="0.4" d="M10.611,17.059 Q11.15,17.75 12,17.75 Q13.75,17.75 13.75,16 Q13.75,15.403 13.393,14.935 Q13.205,14.687 13.246,14.38 Q13.288,14.072 13.535,13.883 Q13.782,13.695 14.09,13.737 Q14.398,13.778 14.586,14.025 Q15.25,14.896 15.25,16 Q15.25,19.25 12,19.25 Q10.417,19.25 9.428,17.981 Q9.237,17.736 9.275,17.428 Q9.313,17.12 9.558,16.929 Q9.803,16.738 10.112,16.776 Q10.42,16.814 10.611,17.059 Z"/>
  <path fill="#292D32" d="M2.235,21.269 Q1.25,20.042 1.25,17 L1.25,15 Q1.25,11.689 2.47,10.47 Q3.689,9.25 7,9.25 L17,9.25 Q17.559,9.25 18.048,9.282 Q22.75,9.549 22.75,15 L22.75,17 Q22.75,20.311 21.53,21.53 Q20.311,22.75 17,22.75 L7,22.75 Q6.441,22.75 5.952,22.718 Q5.642,22.698 5.437,22.465 Q5.232,22.232 5.252,21.922 Q5.272,21.612 5.505,21.407 Q5.738,21.202 6.048,21.222 Q6.489,21.25 7,21.25 L17,21.25 Q19.689,21.25 20.47,20.47 Q21.25,19.689 21.25,17 L21.25,15 Q21.25,12.506 20.6,11.682 Q19.978,10.894 17.952,10.778 Q17.511,10.75 17,10.75 L7,10.75 Q4.311,10.75 3.53,11.53 Q2.75,12.311 2.75,15 L2.75,17 Q2.75,19.515 3.405,20.331 Q3.599,20.573 3.566,20.882 Q3.532,21.19 3.289,21.385 Q3.047,21.579 2.738,21.546 Q2.43,21.512 2.235,21.269 Z"/>
  <path fill="#292D32" opacity="0.4" d="M5.25,10 L5.25,8 Q5.25,1.25 12,1.25 Q17.948,1.25 18.64,5.438 Q18.691,5.744 18.51,5.997 Q18.329,6.249 18.022,6.3 Q17.716,6.351 17.463,6.17 Q17.211,5.989 17.16,5.682 Q16.676,2.75 12,2.75 Q6.75,2.75 6.75,8 L6.75,10 Q6.75,10.311 6.53,10.53 Q6.311,10.75 6,10.75 Q5.689,10.75 5.47,10.53 Q5.25,10.311 5.25,10 Z"/>
  <path fill="#292D32" d="M22.53,2.53 L2.53,22.53 Q2.311,22.75 2,22.75 Q1.689,22.75 1.47,22.53 Q1.25,22.311 1.25,22 Q1.25,21.689 1.47,21.47 L21.47,1.47 Q21.689,1.25 22,1.25 Q22.311,1.25 22.53,1.47 Q22.75,1.689 22.75,2 Q22.75,2.311 22.53,2.53 Z"/>
</svg>

