<svg xmlns="http://www.w3.org/2000/svg" width="24" height="24" viewBox="0 0 24 24">
  <defs/>
  <path fill="#292D32" d="M13.631,15.72 C13.631,16.62 12.901,17.35 12.001,17.35 C11.361,17.35 10.811,16.98 10.551,16.45 L12.731,14.27 C13.261,14.53 13.631,15.08 13.631,15.72 Z"/>
  <path fill="#292D32" opacity="0.4" d="M7.35,9.44 C3.25,9.44 2,10.69 2,14.79 L2,16.65 C2,18.7 2.31,20.04 3.14,20.86 L9.1,14.9 C9.38,13.89 10.17,13.1 11.18,12.82 L14.56,9.44 L7.35,9.44 Z"/>
  <path fill="#292D32" d="M18.131,5.87 L16.871,7.13 C16.831,5.35 16.161,3.4 12.001,3.4 C7.951,3.4 7.121,5.35 7.121,8.28 L7.121,9.45 C6.611,9.45 6.141,9.48 5.721,9.53 L5.721,8.28 C5.721,5.58 6.371,2 12.001,2 C15.541,2 17.601,3.3 18.131,5.87 Z"/>
  <path fill="#292D32" opacity="0.4" d="M22,14.79 L22,16.65 C22,20.75 20.75,22 16.65,22 L7.35,22 C6.51,22 5.78,21.95 5.17,21.83 L9.53,17.47 C10.09,18.24 10.98,18.74 12,18.74 C13.67,18.74 15.02,17.39 15.02,15.72 C15.02,14.7 14.52,13.81 13.75,13.25 L17.54,9.46 C20.93,9.65 22,11 22,14.79 Z"/>
  <path fill="#292D32" d="M21.771,2.23 C21.471,1.93 20.981,1.93 20.681,2.23 L2.231,20.69 C1.931,20.99 1.931,21.48 2.231,21.78 C2.381,21.92 2.571,22 2.771,22 C2.971,22 3.161,21.92 3.311,21.77 L21.771,3.31 C22.081,3.01 22.081,2.53 21.771,2.23 Z"/>
</svg>

