<svg xmlns="http://www.w3.org/2000/svg" width="24" height="24" viewBox="0 0 24 24">
  <defs/>
  <path fill="#292D32" d="M13.631,15.72 C13.631,16.619 12.901,17.349 12.001,17.349 C11.361,17.349 10.811,16.98 10.551,16.45 L12.731,14.27 C13.261,14.53 13.631,15.079 13.631,15.72 Z"/>
  <path fill="#292D32" d="M21.771,2.23 C21.471,1.93 20.981,1.93 20.681,2.23 L17.871,5.04 C17.101,3.02 15.131,2 12.001,2 C6.371,2 5.721,5.58 5.721,8.28 L5.721,9.53 C5.731,9.53 5.741,9.53 5.751,9.53 C2.921,9.87 2.001,11.28 2.001,14.79 L2.001,16.65 C2.001,18.25 2.191,19.41 2.671,20.24 L2.221,20.69 C1.921,20.99 1.921,21.48 2.221,21.78 C2.381,21.92 2.571,22 2.771,22 C2.971,22 3.161,21.92 3.311,21.77 L21.771,3.31 C22.081,3.01 22.081,2.53 21.771,2.23 Z M7.351,9.44 C7.271,9.44 7.201,9.44 7.121,9.44 L7.121,8.28 C7.121,5.35 7.951,3.4 12.001,3.4 C15.401,3.4 16.471,4.7 16.771,6.15 L13.481,9.44 L7.351,9.44 Z"/>
  <path fill="#292D32" d="M22,14.789 L22,16.649 C22,20.749 20.75,21.999 16.651,21.999 L7.411,21.999 C6.521,21.999 6.081,20.919 6.711,20.289 L9.531,17.469 C9.601,17.569 9.681,17.659 9.761,17.749 C10.46,18.509 11.501,18.909 12.65,18.669 C12.741,18.649 12.831,18.629 12.921,18.589 C13.011,18.569 13.091,18.539 13.171,18.499 C13.37,18.429 13.56,18.319 13.741,18.189 C13.81,18.149 13.87,18.099 13.921,18.049 C14.07,17.929 14.21,17.789 14.331,17.639 C14.38,17.589 14.431,17.529 14.47,17.459 C14.601,17.279 14.71,17.089 14.78,16.889 C14.82,16.809 14.851,16.729 14.87,16.639 C14.911,16.549 14.931,16.459 14.95,16.369 C15.191,15.219 14.79,14.179 14.03,13.479 C13.95,13.399 13.851,13.319 13.751,13.249 L16.87,10.129 C16.921,10.079 16.96,10.039 17.011,9.999 C17.41,9.669 17.921,9.509 18.43,9.549 C18.52,9.559 18.62,9.569 18.71,9.589 C18.881,9.619 19.05,9.659 19.21,9.699 C19.37,9.739 19.52,9.789 19.671,9.839 C19.96,9.949 20.21,10.079 20.441,10.229 C20.671,10.379 20.86,10.559 21.041,10.769 C21.131,10.879 21.221,10.999 21.291,11.129 C21.36,11.239 21.421,11.359 21.48,11.489 C21.541,11.619 21.59,11.759 21.64,11.899 C21.701,12.069 21.75,12.259 21.791,12.459 C21.831,12.599 21.851,12.749 21.881,12.909 C21.901,13.059 21.921,13.219 21.941,13.389 C21.98,13.809 22,14.279 22,14.789 Z"/>
</svg>

