<svg xmlns="http://www.w3.org/2000/svg" width="24" height="24" viewBox="0 0 24 24">
  <defs/>
  <path fill="#292D32" d="M18,10.75 C17.59,10.75 17.25,10.41 17.25,10 L17.25,8 C17.25,4.85 16.36,2.75 12,2.75 C7.64,2.75 6.75,4.85 6.75,8 L6.75,10 C6.75,10.41 6.41,10.75 6,10.75 C5.59,10.75 5.25,10.41 5.25,10 L5.25,8 C5.25,5.1 5.95,1.25 12,1.25 C18.05,1.25 18.75,5.1 18.75,8 L18.75,10 C18.75,10.41 18.41,10.75 18,10.75 Z"/>
  <path fill="#292D32" d="M17,22.75 L7,22.75 C2.59,22.75 1.25,21.41 1.25,17 L1.25,15 C1.25,10.59 2.59,9.25 7,9.25 L17,9.25 C21.41,9.25 22.75,10.59 22.75,15 L22.75,17 C22.75,21.41 21.41,22.75 17,22.75 Z M7,10.75 C3.42,10.75 2.75,11.43 2.75,15 L2.75,17 C2.75,20.57 3.42,21.25 7,21.25 L17,21.25 C20.58,21.25 21.25,20.57 21.25,17 L21.25,15 C21.25,11.43 20.58,10.75 17,10.75 L7,10.75 Z"/>
  <path fill="#292D32" d="M8,17 C7.87,17 7.74,16.97 7.62,16.92 C7.49,16.87 7.39,16.8 7.29,16.71 C7.11,16.52 7,16.27 7,16 C7,15.87 7.03,15.74 7.08,15.62 C7.13,15.49 7.2,15.39 7.29,15.29 C7.39,15.2 7.49,15.13 7.62,15.08 C7.98,14.92 8.43,15.01 8.71,15.29 C8.8,15.39 8.87,15.5 8.92,15.62 C8.97,15.74 9,15.87 9,16 C9,16.26 8.89,16.52 8.71,16.71 C8.52,16.89 8.26,17 8,17 Z"/>
  <path fill="#292D32" d="M12,17 C11.74,17 11.48,16.89 11.29,16.71 C11.11,16.52 11,16.27 11,16 C11,15.87 11.02,15.74 11.08,15.62 C11.13,15.5 11.2,15.39 11.29,15.29 C11.52,15.06 11.87,14.95 12.19,15.02 C12.26,15.03 12.32,15.05 12.38,15.08 C12.44,15.1 12.5,15.13 12.56,15.17 C12.61,15.2 12.66,15.25 12.71,15.29 C12.8,15.39 12.87,15.5 12.92,15.62 C12.97,15.74 13,15.87 13,16 C13,16.27 12.89,16.52 12.71,16.71 C12.66,16.75 12.61,16.79 12.56,16.83 C12.5,16.87 12.44,16.9 12.38,16.92 C12.32,16.95 12.26,16.97 12.19,16.98 C12.13,16.99 12.06,17 12,17 Z"/>
  <path fill="#292D32" d="M16,17 C15.73,17 15.48,16.89 15.29,16.71 C15.2,16.61 15.13,16.5 15.08,16.38 C15.03,16.26 15,16.13 15,16 C15,15.74 15.11,15.48 15.29,15.29 C15.34,15.25 15.39,15.21 15.44,15.17 C15.5,15.13 15.56,15.1 15.62,15.08 C15.68,15.05 15.74,15.03 15.8,15.02 C16.13,14.95 16.47,15.06 16.71,15.29 C16.89,15.48 17,15.73 17,16 C17,16.13 16.97,16.26 16.92,16.38 C16.87,16.51 16.8,16.61 16.71,16.71 C16.52,16.89 16.26,17 16,17 Z"/>
</svg>

