<svg xmlns="http://www.w3.org/2000/svg" width="24" height="24" viewBox="0 0 24 24">
  <defs/>
  <path fill="#292D32" d="M10.758,2 C10.278,2 9.898,2.38 9.898,2.86 L9.898,11.32 L13.568,11.32 L11.998,9.75 C11.708,9.46 11.708,8.98 11.998,8.69 C12.288,8.4 12.768,8.4 13.058,8.69 L15.898,11.54 C16.188,11.83 16.188,12.31 15.898,12.6 L13.058,15.45 C12.908,15.6 12.718,15.67 12.528,15.67 C12.338,15.67 12.148,15.6 11.998,15.45 C11.708,15.16 11.708,14.68 11.998,14.39 L13.558,12.83 L9.898,12.83 L9.898,21.16 C9.898,21.63 10.278,22.02 10.758,22.02 C16.648,22.02 20.758,17.91 20.758,12.02 C20.758,6.13 16.638,2 10.758,2 Z"/>
  <path fill="#292D32" d="M3.988,11.32 C3.578,11.32 3.238,11.66 3.238,12.07 C3.238,12.48 3.578,12.82 3.988,12.82 L9.888,12.82 L9.888,11.32 L3.988,11.32 Z"/>
</svg>

