<svg xmlns="http://www.w3.org/2000/svg" width="24" height="24" viewBox="0 0 24 24">
  <defs/>
  <path fill="#292D32" d="M16.8,2 L14.2,2 C11,2 9,4 9,7.2 L9,11.25 L13.44,11.25 L11.37,9.18 C11.22,9.03 11.15,8.84 11.15,8.65 C11.15,8.46 11.22,8.27 11.37,8.12 C11.66,7.83 12.14,7.83 12.43,8.12 L15.78,11.47 C16.07,11.76 16.07,12.24 15.78,12.53 L12.43,15.88 C12.14,16.17 11.66,16.17 11.37,15.88 C11.08,15.59 11.08,15.11 11.37,14.82 L13.44,12.75 L9,12.75 L9,16.8 C9,20 11,22 14.2,22 L16.79,22 C19.99,22 21.99,20 21.99,16.8 L21.99,7.2 C22,4 20,2 16.8,2 Z"/>
  <path fill="#292D32" d="M2.75,11.25 C2.34,11.25 2,11.59 2,12 C2,12.41 2.34,12.75 2.75,12.75 L9,12.75 L9,11.25 L2.75,11.25 Z"/>
</svg>

