<svg xmlns="http://www.w3.org/2000/svg" width="24" height="24" viewBox="0 0 24 24">
  <defs/>
  <path fill="#292D32" d="M15.241,22.27 L15.111,22.27 C10.671,22.27 8.53,20.52 8.161,16.6 C8.12,16.19 8.421,15.82 8.841,15.78 C9.251,15.74 9.62,16.05 9.661,16.46 C9.95,19.6 11.431,20.77 15.12,20.77 L15.251,20.77 C19.32,20.77 20.761,19.33 20.761,15.26 L20.761,8.74 C20.761,4.67 19.32,3.23 15.251,3.23 L15.12,3.23 C11.411,3.23 9.931,4.42 9.661,7.62 C9.611,8.03 9.271,8.34 8.841,8.3 C8.421,8.27 8.12,7.9 8.15,7.49 C8.491,3.51 10.64,1.73 15.111,1.73 L15.241,1.73 C20.151,1.73 22.25,3.83 22.25,8.74 L22.25,15.26 C22.25,20.17 20.151,22.27 15.241,22.27 Z"/>
  <path fill="#292D32" d="M14.88,12.75 L2,12.75 C1.59,12.75 1.25,12.41 1.25,12 C1.25,11.59 1.59,11.25 2,11.25 L14.88,11.25 C15.29,11.25 15.63,11.59 15.63,12 C15.63,12.41 15.3,12.75 14.88,12.75 Z"/>
  <path fill="#292D32" d="M12.65,16.1 C12.46,16.1 12.27,16.03 12.12,15.88 C11.83,15.59 11.83,15.11 12.12,14.82 L14.94,12 L12.12,9.18 C11.83,8.89 11.83,8.41 12.12,8.12 C12.41,7.83 12.89,7.83 13.18,8.12 L16.53,11.47 C16.82,11.76 16.82,12.24 16.53,12.53 L13.18,15.88 C13.03,16.03 12.84,16.1 12.65,16.1 Z"/>
</svg>

