<svg xmlns="http://www.w3.org/2000/svg" width="24" height="24" viewBox="0 0 24 24">
  <defs/>
  <path fill="#292D32" opacity="0.4" d="M10.76,2 C10.28,2 9.9,2.38 9.9,2.86 L9.9,21.15 C9.9,21.62 10.28,22.01 10.76,22.01 C16.65,22.01 20.76,17.9 20.76,12.01 C20.76,6.12 16.64,2 10.76,2 Z"/>
  <path fill="#292D32" d="M15.9,11.54 L13.06,8.69 C12.77,8.4 12.29,8.4 12,8.69 C11.71,8.98 11.71,9.46 12,9.75 L13.56,11.31 L3.99,11.31 C3.58,11.31 3.24,11.65 3.24,12.06 C3.24,12.47 3.58,12.81 3.99,12.81 L13.56,12.81 L12,14.38 C11.71,14.67 11.71,15.15 12,15.44 C12.15,15.59 12.34,15.66 12.53,15.66 C12.72,15.66 12.91,15.59 13.06,15.44 L15.9,12.59 C16.2,12.3 16.2,11.83 15.9,11.54 Z"/>
</svg>

