<svg xmlns="http://www.w3.org/2000/svg" width="24" height="24" viewBox="0 0 24 24">
  <defs/>
  <path fill="#292D32" d="M11.149,14.03 L13.179,12 L11.149,9.97 Q10.93,9.751 10.93,9.44 Q10.93,9.129 11.149,8.91 Q11.369,8.69 11.68,8.69 Q11.99,8.69 12.21,8.91 L14.77,11.47 Q14.99,11.689 14.99,12 Q14.99,12.311 14.77,12.53 L12.21,15.09 Q11.99,15.31 11.68,15.31 Q11.369,15.31 11.149,15.09 Q10.93,14.871 10.93,14.56 Q10.93,14.249 11.149,14.03 Z"/>
  <path fill="#292D32" d="M9,11.25 L14.17,11.25 Q14.481,11.25 14.7,11.47 Q14.92,11.689 14.92,12 Q14.92,12.311 14.7,12.53 Q14.481,12.75 14.17,12.75 L9,12.75 Q8.689,12.75 8.47,12.53 Q8.25,12.311 8.25,12 Q8.25,11.689 8.47,11.47 Q8.689,11.25 9,11.25 Z"/>
  <path fill="#292D32" d="M4,11.25 L5.96,11.25 Q6.271,11.25 6.49,11.47 Q6.71,11.689 6.71,12 Q6.71,12.311 6.49,12.53 Q6.271,12.75 5.96,12.75 L4,12.75 Q3.689,12.75 3.47,12.53 Q3.25,12.311 3.25,12 Q3.25,11.689 3.47,11.47 Q3.689,11.25 4,11.25 Z"/>
  <path fill="#292D32" d="M18.564,5.975 Q20.75,8.372 20.75,12 Q20.75,15.972 18.174,18.419 Q15.72,20.75 12,20.75 Q11.689,20.75 11.47,20.53 Q11.25,20.311 11.25,20 Q11.25,19.689 11.47,19.47 Q11.689,19.25 12,19.25 Q15.121,19.25 17.141,17.331 Q19.25,15.328 19.25,12 Q19.25,8.953 17.456,6.985 Q17.246,6.756 17.261,6.445 Q17.275,6.135 17.505,5.926 Q17.734,5.716 18.045,5.731 Q18.355,5.745 18.564,5.975 Z"/>
  <path fill="#292D32" d="M12,3.25 Q13.688,3.25 15.216,3.782 Q15.51,3.884 15.645,4.163 Q15.78,4.443 15.678,4.736 Q15.576,5.03 15.297,5.165 Q15.017,5.3 14.724,5.198 Q13.435,4.75 12,4.75 Q11.689,4.75 11.47,4.53 Q11.25,4.311 11.25,4 Q11.25,3.689 11.47,3.47 Q11.689,3.25 12,3.25 Z"/>
</svg>

