<svg xmlns="http://www.w3.org/2000/svg" width="24" height="24" viewBox="0 0 24 24">
  <defs/>
  <path fill="#292D32" d="M8.153,7.496 Q8.648,1.74 15.11,1.74 L15.24,1.74 Q22.25,1.74 22.25,8.75 L22.25,15.27 Q22.25,22.28 15.24,22.28 L15.11,22.28 Q8.692,22.28 8.163,16.61 Q8.134,16.3 8.333,16.061 Q8.531,15.822 8.84,15.793 Q9.15,15.764 9.389,15.963 Q9.628,16.161 9.657,16.47 Q10.059,20.78 15.11,20.78 L15.24,20.78 Q20.75,20.78 20.75,15.27 L20.75,8.75 Q20.75,3.24 15.24,3.24 L15.11,3.24 Q10.025,3.24 9.647,7.624 Q9.621,7.934 9.383,8.134 Q9.145,8.334 8.836,8.307 Q8.526,8.281 8.326,8.043 Q8.126,7.805 8.153,7.496 Z"/>
  <path fill="#292D32" d="M2,11.25 L14.88,11.25 Q15.191,11.25 15.41,11.47 Q15.63,11.689 15.63,12 Q15.63,12.311 15.41,12.53 Q15.191,12.75 14.88,12.75 L2,12.75 Q1.689,12.75 1.47,12.53 Q1.25,12.311 1.25,12 Q1.25,11.689 1.47,11.47 Q1.689,11.25 2,11.25 Z"/>
  <path fill="#292D32" d="M13.18,8.12 L16.53,11.47 Q16.75,11.689 16.75,12 Q16.75,12.311 16.53,12.53 L13.18,15.88 Q12.961,16.1 12.65,16.1 Q12.339,16.1 12.12,15.88 Q11.9,15.661 11.9,15.35 Q11.9,15.039 12.12,14.82 L14.939,12 L12.12,9.18 Q11.9,8.961 11.9,8.65 Q11.9,8.339 12.12,8.12 Q12.339,7.9 12.65,7.9 Q12.961,7.9 13.18,8.12 Z"/>
</svg>

