<svg xmlns="http://www.w3.org/2000/svg" width="24" height="24" viewBox="0 0 24 24">
  <defs/>
  <path fill="#292D32" d="M11.15,14.09 L13.179,12.06 L11.15,10.03 Q10.93,9.811 10.93,9.5 Q10.93,9.189 11.15,8.97 Q11.369,8.75 11.68,8.75 Q11.991,8.75 12.21,8.97 L14.77,11.53 Q14.99,11.749 14.99,12.06 Q14.99,12.371 14.77,12.59 L12.21,15.15 Q11.991,15.37 11.68,15.37 Q11.369,15.37 11.15,15.15 Q10.93,14.931 10.93,14.62 Q10.93,14.309 11.15,14.09 Z"/>
  <path fill="#292D32" d="M4,11.31 L14.17,11.31 Q14.481,11.31 14.7,11.53 Q14.92,11.749 14.92,12.06 Q14.92,12.371 14.7,12.59 Q14.481,12.81 14.17,12.81 L4,12.81 Q3.689,12.81 3.47,12.59 Q3.25,12.371 3.25,12.06 Q3.25,11.749 3.47,11.53 Q3.689,11.31 4,11.31 Z"/>
  <path fill="#292D32" d="M12,3.25 Q15.72,3.25 18.174,5.581 Q20.75,8.028 20.75,12 Q20.75,15.972 18.174,18.419 Q15.72,20.75 12,20.75 Q11.689,20.75 11.47,20.53 Q11.25,20.311 11.25,20 Q11.25,19.689 11.47,19.47 Q11.689,19.25 12,19.25 Q15.121,19.25 17.141,17.331 Q19.25,15.328 19.25,12 Q19.25,8.672 17.141,6.669 Q15.121,4.75 12,4.75 Q11.689,4.75 11.47,4.53 Q11.25,4.311 11.25,4 Q11.25,3.689 11.47,3.47 Q11.689,3.25 12,3.25 Z"/>
</svg>

