<svg xmlns="http://www.w3.org/2000/svg" width="24" height="24" viewBox="0 0 24 24">
  <defs/>
  <path fill="#292D32" opacity="0.4" d="M13.24,2 C13.71,2 14.1,2.38 14.1,2.86 L14.1,21.15 C14.1,21.62 13.72,22.01 13.24,22.01 C7.35,22.01 3.24,17.9 3.24,12.01 C3.24,6.12 7.36,2 13.24,2 Z"/>
  <path fill="#292D32" d="M20.541,11.54 L17.701,8.69 C17.411,8.4 16.931,8.4 16.641,8.69 C16.351,8.98 16.351,9.46 16.641,9.75 L18.201,11.31 L8.631,11.31 C8.221,11.31 7.881,11.65 7.881,12.06 C7.881,12.47 8.221,12.81 8.631,12.81 L18.201,12.81 L16.641,14.37 C16.351,14.66 16.351,15.14 16.641,15.43 C16.791,15.58 16.981,15.65 17.171,15.65 C17.361,15.65 17.551,15.58 17.701,15.43 L20.541,12.58 C20.831,12.3 20.831,11.83 20.541,11.54 Z"/>
</svg>

