<svg xmlns="http://www.w3.org/2000/svg" width="24" height="24" viewBox="0 0 24 24">
  <defs/>
  <path fill="#292D32" d="M15.241,22.27 L15.111,22.27 C10.671,22.27 8.53,20.52 8.161,16.6 C8.12,16.19 8.421,15.82 8.841,15.78 C9.241,15.74 9.62,16.05 9.661,16.46 C9.95,19.6 11.431,20.77 15.12,20.77 L15.251,20.77 C19.32,20.77 20.761,19.33 20.761,15.26 L20.761,8.74 C20.761,4.67 19.32,3.23 15.251,3.23 L15.12,3.23 C11.411,3.23 9.931,4.42 9.661,7.62 C9.611,8.03 9.261,8.34 8.841,8.3 C8.421,8.27 8.12,7.9 8.15,7.49 C8.491,3.51 10.64,1.73 15.111,1.73 L15.241,1.73 C20.151,1.73 22.25,3.83 22.25,8.74 L22.25,15.26 C22.25,20.17 20.151,22.27 15.241,22.27 Z"/>
  <path fill="#292D32" d="M14.999,12.75 L3.619,12.75 C3.209,12.75 2.869,12.41 2.869,12 C2.869,11.59 3.209,11.25 3.619,11.25 L14.999,11.25 C15.409,11.25 15.749,11.59 15.749,12 C15.749,12.41 15.409,12.75 14.999,12.75 Z"/>
  <path fill="#292D32" d="M5.849,16.1 C5.659,16.1 5.469,16.03 5.319,15.88 L1.969,12.53 C1.679,12.24 1.679,11.76 1.969,11.47 L5.319,8.12 C5.609,7.83 6.089,7.83 6.379,8.12 C6.669,8.41 6.669,8.89 6.379,9.18 L3.559,12 L6.379,14.82 C6.669,15.11 6.669,15.59 6.379,15.88 C6.239,16.03 6.039,16.1 5.849,16.1 Z"/>
</svg>

