<svg xmlns="http://www.w3.org/2000/svg" width="24" height="24" viewBox="0 0 24 24">
  <defs/>
  <path fill="#292D32" d="M8.153,7.496 Q8.648,1.74 15.11,1.74 L15.24,1.74 Q22.25,1.74 22.25,8.75 L22.25,15.27 Q22.25,22.28 15.24,22.28 L15.11,22.28 Q8.692,22.28 8.163,16.61 Q8.134,16.3 8.333,16.061 Q8.531,15.822 8.84,15.793 Q9.15,15.764 9.389,15.963 Q9.628,16.161 9.657,16.47 Q10.059,20.78 15.11,20.78 L15.24,20.78 Q20.75,20.78 20.75,15.27 L20.75,8.75 Q20.75,3.24 15.24,3.24 L15.11,3.24 Q10.025,3.24 9.647,7.624 Q9.621,7.934 9.383,8.134 Q9.145,8.334 8.836,8.307 Q8.526,8.281 8.326,8.043 Q8.126,7.805 8.153,7.496 Z"/>
  <path fill="#292D32" d="M15,12.75 L3.62,12.75 Q3.309,12.75 3.09,12.53 Q2.87,12.311 2.87,12 Q2.87,11.689 3.09,11.47 Q3.309,11.25 3.62,11.25 L15,11.25 Q15.311,11.25 15.53,11.47 Q15.75,11.689 15.75,12 Q15.75,12.311 15.53,12.53 Q15.311,12.75 15,12.75 Z"/>
  <path fill="#292D32" d="M6.38,9.18 L3.561,12 L6.38,14.82 Q6.6,15.039 6.6,15.35 Q6.6,15.661 6.38,15.88 Q6.161,16.1 5.85,16.1 Q5.539,16.1 5.32,15.88 L1.97,12.53 Q1.75,12.311 1.75,12 Q1.75,11.689 1.97,11.47 L5.32,8.12 Q5.539,7.9 5.85,7.9 Q6.161,7.9 6.38,8.12 Q6.6,8.339 6.6,8.65 Q6.6,8.961 6.38,9.18 Z"/>
</svg>

