<svg xmlns="http://www.w3.org/2000/svg" width="24" height="24" viewBox="0 0 24 24">
  <defs/>
  <path fill="#292D32" d="M7.878,12.07 C7.878,11.66 8.218,11.32 8.628,11.32 L14.108,11.32 L14.108,2.86 C14.098,2.38 13.718,2 13.238,2 C7.348,2 3.238,6.11 3.238,12 C3.238,17.89 7.348,22 13.238,22 C13.708,22 14.098,21.62 14.098,21.14 L14.098,12.81 L8.628,12.81 C8.208,12.82 7.878,12.48 7.878,12.07 Z"/>
  <path fill="#292D32" d="M20.542,11.54 L17.702,8.69 C17.412,8.4 16.932,8.4 16.642,8.69 C16.352,8.98 16.352,9.46 16.642,9.75 L18.202,11.31 L14.102,11.31 L14.102,12.81 L18.192,12.81 L16.632,14.37 C16.342,14.66 16.342,15.14 16.632,15.43 C16.782,15.58 16.972,15.65 17.162,15.65 C17.352,15.65 17.542,15.58 17.692,15.43 L20.532,12.58 C20.832,12.3 20.832,11.83 20.542,11.54 Z"/>
</svg>

