<svg xmlns="http://www.w3.org/2000/svg" width="24" height="24" viewBox="0 0 24 24">
  <defs/>
  <path fill="#292D32" d="M6.03,15.09 L3.47,12.53 Q3.25,12.311 3.25,12 Q3.25,11.689 3.47,11.47 L6.03,8.91 Q6.249,8.69 6.56,8.69 Q6.871,8.69 7.09,8.91 Q7.31,9.129 7.31,9.44 Q7.31,9.751 7.09,9.97 L5.061,12 L7.09,14.03 Q7.31,14.249 7.31,14.56 Q7.31,14.871 7.09,15.09 Q6.871,15.31 6.56,15.31 Q6.249,15.31 6.03,15.09 Z"/>
  <path fill="#292D32" d="M9.24,12.75 L4.07,12.75 Q3.76,12.75 3.54,12.53 Q3.32,12.311 3.32,12 Q3.32,11.689 3.54,11.47 Q3.76,11.25 4.07,11.25 L9.24,11.25 Q9.551,11.25 9.771,11.47 Q9.99,11.689 9.99,12 Q9.99,12.311 9.771,12.53 Q9.551,12.75 9.24,12.75 Z"/>
  <path fill="#292D32" d="M14.239,12.75 L12.279,12.75 Q11.969,12.75 11.749,12.53 Q11.529,12.311 11.529,12 Q11.529,11.689 11.749,11.47 Q11.969,11.25 12.279,11.25 L14.239,11.25 Q14.55,11.25 14.77,11.47 Q14.989,11.689 14.989,12 Q14.989,12.311 14.77,12.53 Q14.55,12.75 14.239,12.75 Z"/>
  <path fill="#292D32" d="M18.564,5.975 Q20.75,8.372 20.75,12 Q20.75,15.972 18.174,18.419 Q15.72,20.75 12,20.75 Q11.689,20.75 11.47,20.53 Q11.25,20.311 11.25,20 Q11.25,19.689 11.47,19.47 Q11.689,19.25 12,19.25 Q15.121,19.25 17.141,17.331 Q19.25,15.328 19.25,12 Q19.25,8.953 17.456,6.985 Q17.246,6.756 17.261,6.445 Q17.275,6.135 17.505,5.926 Q17.734,5.716 18.045,5.731 Q18.355,5.745 18.564,5.975 Z"/>
  <path fill="#292D32" d="M12,3.25 Q13.688,3.25 15.216,3.782 Q15.51,3.884 15.645,4.163 Q15.78,4.443 15.678,4.736 Q15.576,5.03 15.297,5.165 Q15.017,5.3 14.724,5.198 Q13.435,4.75 12,4.75 Q11.689,4.75 11.47,4.53 Q11.25,4.311 11.25,4 Q11.25,3.689 11.47,3.47 Q11.689,3.25 12,3.25 Z"/>
</svg>

