<svg xmlns="http://www.w3.org/2000/svg" width="24" height="24" viewBox="0 0 24 24">
  <defs/>
  <path fill="#292D32" opacity="0.4" d="M9,7.2 L9,16.79 C9,20 11,22 14.2,22 L16.79,22 C19.99,22 21.99,20 21.99,16.8 L21.99,7.2 C22,4 20,2 16.8,2 L14.2,2 C11,2 9,4 9,7.2 Z"/>
  <path fill="#292D32" d="M5.569,8.12 L2.219,11.47 C1.929,11.76 1.929,12.24 2.219,12.53 L5.569,15.88 C5.859,16.17 6.339,16.17 6.629,15.88 C6.919,15.59 6.919,15.11 6.629,14.82 L4.559,12.75 L15.249,12.75 C15.659,12.75 15.999,12.41 15.999,12 C15.999,11.59 15.659,11.25 15.249,11.25 L4.559,11.25 L6.629,9.18 C6.779,9.03 6.849,8.84 6.849,8.65 C6.849,8.46 6.779,8.26 6.629,8.12 C6.339,7.82 5.869,7.82 5.569,8.12 Z"/>
</svg>

