<svg xmlns="http://www.w3.org/2000/svg" width="24" height="24" viewBox="0 0 24 24">
  <defs/>
  <path fill="#292D32" d="M17.441,15.37 C17.251,15.37 17.061,15.3 16.911,15.15 C16.621,14.86 16.621,14.38 16.911,14.09 L18.941,12.06 L16.911,10.03 C16.621,9.74 16.621,9.26 16.911,8.97 C17.201,8.68 17.681,8.68 17.971,8.97 L20.531,11.53 C20.821,11.82 20.821,12.3 20.531,12.59 L17.971,15.15 C17.821,15.3 17.631,15.37 17.441,15.37 Z"/>
  <path fill="#292D32" d="M19.93,12.81 L9.76,12.81 C9.35,12.81 9.01,12.47 9.01,12.06 C9.01,11.65 9.35,11.31 9.76,11.31 L19.93,11.31 C20.34,11.31 20.68,11.65 20.68,12.06 C20.68,12.47 20.34,12.81 19.93,12.81 Z"/>
  <path fill="#292D32" d="M11.76,20.75 C6.61,20.75 3.01,17.15 3.01,12 C3.01,6.85 6.61,3.25 11.76,3.25 C12.17,3.25 12.51,3.59 12.51,4 C12.51,4.41 12.17,4.75 11.76,4.75 C7.49,4.75 4.51,7.73 4.51,12 C4.51,16.27 7.49,19.25 11.76,19.25 C12.17,19.25 12.51,19.59 12.51,20 C12.51,20.41 12.17,20.75 11.76,20.75 Z"/>
</svg>

