<svg xmlns="http://www.w3.org/2000/svg" width="24" height="24" viewBox="0 0 24 24">
  <defs/>
  <g opacity="0.4">
    <path fill="#292D32" d="M16.909,14.09 L18.939,12.06 L16.909,10.03 Q16.689,9.811 16.689,9.5 Q16.689,9.189 16.909,8.97 Q17.129,8.75 17.439,8.75 Q17.75,8.75 17.97,8.97 L20.53,11.53 Q20.75,11.749 20.75,12.06 Q20.75,12.371 20.53,12.59 L17.97,15.15 Q17.75,15.37 17.439,15.37 Q17.129,15.37 16.909,15.15 Q16.689,14.931 16.689,14.62 Q16.689,14.309 16.909,14.09 Z"/>
    <path fill="#292D32" d="M9.76,11.31 L19.93,11.31 Q20.24,11.31 20.46,11.529 Q20.68,11.749 20.68,12.06 Q20.68,12.37 20.46,12.59 Q20.24,12.81 19.93,12.81 L9.76,12.81 Q9.449,12.81 9.229,12.59 Q9.01,12.37 9.01,12.06 Q9.01,11.749 9.229,11.529 Q9.449,11.31 9.76,11.31 Z"/>
  </g>
  <path fill="#292D32" d="M11.76,20.75 Q8.04,20.75 5.586,18.419 Q3.01,15.972 3.01,12 Q3.01,8.028 5.586,5.581 Q8.04,3.25 11.76,3.25 Q12.07,3.25 12.29,3.47 Q12.51,3.689 12.51,4 Q12.51,4.311 12.29,4.53 Q12.07,4.75 11.76,4.75 Q8.639,4.75 6.619,6.669 Q4.51,8.672 4.51,12 Q4.51,15.328 6.619,17.331 Q8.639,19.25 11.76,19.25 Q12.07,19.25 12.29,19.47 Q12.51,19.689 12.51,20 Q12.51,20.311 12.29,20.53 Q12.07,20.75 11.76,20.75 Z"/>
</svg>

