<svg xmlns="http://www.w3.org/2000/svg" width="24" height="24" viewBox="0 0 24 24">
  <defs/>
  <path fill="#292D32" d="M16.8,2 L14.2,2 C11,2 9,4 9,7.2 L9,11.25 L15.25,11.25 C15.66,11.25 16,11.59 16,12 C16,12.41 15.66,12.75 15.25,12.75 L9,12.75 L9,16.8 C9,20 11,22 14.2,22 L16.79,22 C19.99,22 21.99,20 21.99,16.8 L21.99,7.2 C22,4 20,2 16.8,2 Z"/>
  <path fill="#292D32" d="M4.561,11.25 L6.631,9.18 C6.781,9.03 6.851,8.84 6.851,8.65 C6.851,8.46 6.781,8.26 6.631,8.12 C6.341,7.83 5.861,7.83 5.571,8.12 L2.221,11.47 C1.931,11.76 1.931,12.24 2.221,12.53 L5.571,15.88 C5.861,16.17 6.341,16.17 6.631,15.88 C6.921,15.59 6.921,15.11 6.631,14.82 L4.561,12.75 L9.001,12.75 L9.001,11.25 L4.561,11.25 Z"/>
</svg>

