<svg xmlns="http://www.w3.org/2000/svg" width="24" height="24" viewBox="0 0 24 24">
  <defs/>
  <path fill="#292D32" d="M10.92,19.75 C10.63,19.75 10.35,19.71 10.12,19.62 C6.7,18.45 1.25,14.27 1.25,8.09 C1.25,4.92 3.81,2.35 6.96,2.35 C8.47,2.35 9.88,2.93 10.93,3.96 C11.99,2.93 13.39,2.35 14.9,2.35 C18.05,2.35 20.61,4.92 20.61,8.09 C20.61,8.52 20.58,8.96 20.52,9.41 C20.49,9.64 20.35,9.85 20.15,9.97 C19.95,10.09 19.7,10.1 19.48,10.01 C18.25,9.48 16.72,9.88 15.92,10.95 C15.78,11.14 15.51,11.24 15.32,11.25 C15.08,11.25 14.86,11.14 14.72,10.95 C14.15,10.19 13.28,9.76 12.34,9.76 C10.71,9.76 9.38,11.1 9.38,12.75 C9.38,15.35 10.87,17.2 12.13,18.31 C12.31,18.47 12.4,18.7 12.38,18.94 C12.36,19.18 12.23,19.39 12.02,19.52 C11.91,19.58 11.82,19.62 11.77,19.63 C11.51,19.71 11.22,19.75 10.92,19.75 Z M6.96,3.85 C4.64,3.85 2.75,5.75 2.75,8.09 C2.75,13.32 7.1,16.54 9.6,17.78 C8.65,16.51 7.87,14.83 7.87,12.74 C7.87,10.26 9.87,8.25 12.33,8.25 C13.45,8.25 14.5,8.66 15.31,9.39 C16.32,8.49 17.76,8.08 19.1,8.33 C19.1,8.25 19.1,8.17 19.1,8.1 C19.1,5.76 17.21,3.86 14.89,3.86 C13.56,3.86 12.33,4.48 11.52,5.55 C11.38,5.74 11.16,5.85 10.92,5.85 C10.68,5.85 10.46,5.74 10.32,5.55 C9.53,4.47 8.3,3.85 6.96,3.85 Z"/>
  <path fill="#292D32" d="M15.321,21.65 C15.091,21.65 14.851,21.62 14.661,21.55 C13.801,21.26 12.411,20.55 11.141,19.42 C9.661,18.11 7.891,15.89 7.891,12.74 C7.891,10.26 9.891,8.25 12.351,8.25 C13.471,8.25 14.521,8.66 15.331,9.39 C16.591,8.26 18.511,7.94 20.091,8.63 C21.711,9.35 22.761,10.97 22.761,12.75 C22.761,17.49 18.601,20.67 15.981,21.56 C15.781,21.62 15.551,21.65 15.321,21.65 Z M12.341,9.75 C10.711,9.75 9.381,11.09 9.381,12.74 C9.381,15.34 10.871,17.19 12.131,18.3 C13.241,19.28 14.411,19.89 15.141,20.13 C15.221,20.16 15.411,20.16 15.481,20.13 C16.981,19.62 21.251,17.17 21.251,12.74 C21.251,11.55 20.551,10.47 19.481,10 C18.271,9.47 16.721,9.87 15.921,10.94 C15.781,11.13 15.511,11.23 15.321,11.24 C15.081,11.24 14.861,11.13 14.721,10.94 C14.151,10.18 13.281,9.75 12.341,9.75 Z"/>
</svg>

