<svg xmlns="http://www.w3.org/2000/svg" width="24" height="24" viewBox="0 0 24 24">
  <defs/>
  <path fill="#292D32" opacity="0.4" d="M19.86,8.09 C19.86,8.24 19.86,8.39 19.85,8.53 C18.32,7.96 16.52,8.31 15.32,9.39 C14.51,8.66 13.46,8.25 12.34,8.25 C9.88,8.25 7.88,10.26 7.88,12.74 C7.88,15.57 9.3,17.64 10.66,18.98 C10.55,18.97 10.46,18.95 10.38,18.92 C7.79,18.03 2,14.35 2,8.09 C2,5.33 4.22,3.1 6.96,3.1 C8.59,3.1 10.03,3.88 10.93,5.09 C11.84,3.88 13.28,3.1 14.9,3.1 C17.64,3.1 19.86,5.33 19.86,8.09 Z"/>
  <path fill="#292D32" d="M18,9.59 C16.93,9.59 15.96,10.11 15.36,10.91 C14.76,10.11 13.8,9.59 12.72,9.59 C10.9,9.59 9.42,11.07 9.42,12.91 C9.42,13.62 9.53,14.27 9.73,14.87 C10.67,17.84 13.56,19.61 14.99,20.1 C15.19,20.17 15.52,20.17 15.73,20.1 C17.16,19.61 20.05,17.84 20.99,14.87 C21.19,14.26 21.3,13.61 21.3,12.91 C21.3,11.07 19.82,9.59 18,9.59 Z"/>
</svg>

