<svg xmlns="http://www.w3.org/2000/svg" width="24" height="24" viewBox="0 0 24 24">
  <defs/>
  <path fill="#292D32" d="M6.96,2.35 Q9.35,2.35 10.932,3.943 Q12.524,2.35 14.9,2.35 Q17.267,2.35 18.939,4.031 Q20.61,5.711 20.61,8.09 Q20.61,8.734 20.524,9.405 Q20.484,9.713 20.239,9.903 Q19.993,10.093 19.685,10.054 Q19.579,10.04 19.481,9.998 Q18.911,9.75 18.29,9.75 Q16.806,9.75 15.922,10.938 Q15.736,11.187 15.429,11.232 Q15.121,11.277 14.872,11.092 Q14.786,11.028 14.722,10.942 Q13.821,9.75 12.34,9.75 Q9.38,9.75 9.38,12.74 Q9.38,15.882 12.125,18.297 Q12.359,18.502 12.378,18.812 Q12.398,19.122 12.193,19.355 Q12.116,19.443 12.016,19.503 Q11.912,19.565 11.767,19.614 L11.759,19.616 Q11.748,19.62 11.738,19.624 Q10.93,19.92 10.122,19.624 Q7.199,18.62 4.682,16.043 Q1.25,12.528 1.25,8.09 Q1.25,6.087 2.481,4.526 Q2.673,4.282 2.982,4.245 Q3.29,4.209 3.534,4.401 Q3.778,4.593 3.815,4.902 Q3.851,5.21 3.659,5.454 Q2.75,6.607 2.75,8.09 Q2.75,11.917 5.755,14.995 Q7.571,16.854 9.61,17.801 Q7.88,15.525 7.88,12.74 Q7.88,10.879 9.184,9.565 Q10.49,8.25 12.34,8.25 Q14.103,8.25 15.317,9.37 Q16.521,8.25 18.29,8.25 Q18.706,8.25 19.107,8.324 Q19.11,8.206 19.11,8.09 Q19.11,6.33 17.876,5.089 Q16.644,3.85 14.9,3.85 Q12.801,3.85 11.529,5.541 Q11.464,5.627 11.378,5.692 Q11.128,5.877 10.821,5.832 Q10.514,5.787 10.328,5.538 Q9.073,3.85 6.96,3.85 Q6.649,3.85 6.43,3.63 Q6.21,3.411 6.21,3.1 Q6.21,2.789 6.43,2.57 Q6.649,2.35 6.96,2.35 Z"/>
  <path fill="#292D32" d="M22.751,12.74 Q22.751,16.136 20.13,18.821 Q18.21,20.789 15.972,21.55 Q15.316,21.778 14.654,21.548 Q12.863,20.944 11.135,19.423 Q7.881,16.56 7.881,12.74 Q7.881,10.879 9.185,9.565 Q10.491,8.25 12.341,8.25 Q14.104,8.25 15.318,9.37 Q16.522,8.25 18.291,8.25 Q19.224,8.25 20.08,8.622 Q20.365,8.746 20.479,9.035 Q20.593,9.324 20.469,9.609 Q20.345,9.894 20.056,10.008 Q19.767,10.122 19.482,9.998 Q18.912,9.75 18.291,9.75 Q16.807,9.75 15.923,10.938 Q15.859,11.024 15.773,11.088 Q15.525,11.276 15.217,11.233 Q14.91,11.19 14.722,10.942 Q13.822,9.75 12.341,9.75 Q9.381,9.75 9.381,12.74 Q9.381,15.882 12.126,18.297 Q13.628,19.619 15.147,20.132 Q15.316,20.19 15.489,20.13 Q17.387,19.484 19.057,17.774 Q21.251,15.526 21.251,12.74 Q21.251,12.429 21.471,12.21 Q21.69,11.99 22.001,11.99 Q22.312,11.99 22.531,12.21 Q22.751,12.429 22.751,12.74 Z"/>
</svg>

