<svg xmlns="http://www.w3.org/2000/svg" width="24" height="24" viewBox="0 0 24 24">
  <defs/>
  <path fill="#292D32" d="M18.801,9.91 C17.671,9.91 16.661,10.46 16.031,11.3 C15.401,10.46 14.391,9.91 13.261,9.91 C11.351,9.91 9.801,11.47 9.801,13.39 C9.801,14.13 9.921,14.82 10.121,15.45 C11.101,18.56 14.141,20.43 15.641,20.94 C15.851,21.01 16.201,21.01 16.411,20.94 C17.911,20.43 20.951,18.57 21.931,15.45 C22.141,14.81 22.251,14.13 22.251,13.39 C22.261,11.47 20.711,9.91 18.801,9.91 Z"/>
  <path fill="#292D32" d="M20.75,8.342 C20.75,8.572 20.52,8.722 20.3,8.662 C18.95,8.312 17.47,8.602 16.35,9.402 C16.13,9.562 15.83,9.562 15.62,9.402 C14.83,8.822 13.87,8.502 12.86,8.502 C10.28,8.502 8.18,10.612 8.18,13.212 C8.18,16.032 9.53,18.142 10.89,19.552 C10.96,19.622 10.9,19.742 10.81,19.702 C8.08,18.772 2,14.912 2,8.342 C2,5.442 4.33,3.102 7.21,3.102 C8.92,3.102 10.43,3.922 11.38,5.192 C12.34,3.922 13.85,3.102 15.55,3.102 C18.42,3.102 20.75,5.442 20.75,8.342 Z"/>
</svg>

