<svg xmlns="http://www.w3.org/2000/svg" width="24" height="24" viewBox="0 0 24 24">
  <defs/>
  <path fill="#292D32" d="M20.61,8.09 Q20.61,8.734 20.524,9.405 Q20.484,9.713 20.239,9.903 Q19.993,10.093 19.685,10.054 Q19.579,10.04 19.481,9.998 Q18.911,9.75 18.29,9.75 Q16.806,9.75 15.922,10.938 Q15.736,11.187 15.429,11.232 Q15.121,11.277 14.872,11.092 Q14.786,11.028 14.722,10.942 Q13.821,9.75 12.34,9.75 Q9.38,9.75 9.38,12.74 Q9.38,15.882 12.125,18.297 Q12.359,18.502 12.378,18.812 Q12.398,19.122 12.193,19.355 Q12.116,19.443 12.016,19.503 Q11.912,19.565 11.767,19.614 L11.759,19.616 Q11.748,19.62 11.738,19.624 Q10.93,19.92 10.122,19.624 Q7.199,18.62 4.682,16.043 Q1.25,12.528 1.25,8.09 Q1.25,5.711 2.921,4.031 Q4.593,2.35 6.96,2.35 Q9.35,2.35 10.932,3.943 Q12.524,2.35 14.9,2.35 Q17.267,2.35 18.939,4.031 Q20.61,5.711 20.61,8.09 Z M19.11,8.09 Q19.11,6.33 17.876,5.089 Q16.644,3.85 14.9,3.85 Q12.801,3.85 11.529,5.541 Q11.464,5.627 11.378,5.692 Q11.128,5.877 10.821,5.832 Q10.514,5.787 10.328,5.538 Q9.073,3.85 6.96,3.85 Q5.216,3.85 3.984,5.089 Q2.75,6.33 2.75,8.09 Q2.75,11.917 5.755,14.995 Q7.571,16.854 9.61,17.801 Q7.88,15.525 7.88,12.74 Q7.88,10.879 9.184,9.565 Q10.49,8.25 12.34,8.25 Q14.103,8.25 15.317,9.37 Q16.521,8.25 18.29,8.25 Q18.706,8.25 19.107,8.324 Q19.11,8.206 19.11,8.09 Z"/>
  <path fill="#292D32" d="M22.75,12.74 Q22.75,16.136 20.129,18.821 Q18.209,20.789 15.972,21.55 Q15.315,21.778 14.654,21.548 Q12.862,20.944 11.134,19.423 Q7.88,16.56 7.88,12.74 Q7.88,10.879 9.184,9.565 Q10.49,8.25 12.34,8.25 Q14.103,8.25 15.317,9.37 Q16.521,8.25 18.29,8.25 Q19.223,8.25 20.079,8.622 Q22.75,9.805 22.75,12.74 Z M21.25,12.74 Q21.25,10.781 19.481,9.998 Q18.911,9.75 18.29,9.75 Q16.806,9.75 15.922,10.938 Q15.858,11.024 15.772,11.088 Q15.524,11.276 15.217,11.233 Q14.909,11.19 14.722,10.942 Q13.821,9.75 12.34,9.75 Q9.38,9.75 9.38,12.74 Q9.38,15.882 12.126,18.297 Q13.627,19.619 15.146,20.132 Q15.315,20.19 15.488,20.13 Q17.386,19.484 19.056,17.774 Q21.25,15.526 21.25,12.74 Z"/>
</svg>

