<svg xmlns="http://www.w3.org/2000/svg" width="24" height="24" viewBox="0 0 24 24">
  <defs/>
  <path fill="#292D32" d="M19.5,7.5 L18.01,8.99 L15.01,5.99 L16.5,4.5 C16.92,4.08 17.46,3.88 18,3.88 C18.54,3.88 19.08,4.08 19.5,4.5 C20.33,5.33 20.33,6.67 19.5,7.5 Z"/>
  <path fill="#292D32" opacity="0.4" d="M18.009,8.99 L6.499,20.5 C5.669,21.33 4.329,21.33 3.499,20.5 C2.669,19.67 2.669,18.33 3.499,17.5 L15.009,5.99 L18.009,8.99 Z"/>
  <path fill="#292D32" d="M9.951,3.5 L10.361,2.11 C10.4,1.98 10.361,1.84 10.271,1.74 C10.181,1.64 10.021,1.6 9.891,1.64 L8.501,2.05 L7.111,1.64 C6.981,1.6 6.841,1.64 6.741,1.73 C6.641,1.83 6.611,1.97 6.651,2.1 L7.051,3.5 L6.641,4.89 C6.601,5.02 6.641,5.16 6.731,5.26 C6.831,5.36 6.971,5.39 7.101,5.35 L8.501,4.95 L9.891,5.36 C9.931,5.37 9.961,5.38 10.001,5.38 C10.101,5.38 10.191,5.34 10.271,5.27 C10.37,5.17 10.4,5.03 10.361,4.9 L9.951,3.5 Z"/>
  <path fill="#292D32" d="M5.951,9.5 L6.361,8.11 C6.401,7.98 6.361,7.84 6.271,7.74 C6.171,7.64 6.031,7.61 5.901,7.65 L4.501,8.05 L3.111,7.64 C2.981,7.6 2.841,7.64 2.741,7.73 C2.641,7.83 2.611,7.97 2.651,8.1 L3.051,9.5 L2.641,10.89 C2.601,11.02 2.641,11.16 2.731,11.26 C2.831,11.36 2.97,11.39 3.1,11.35 L4.49,10.94 L5.881,11.35 C5.911,11.36 5.951,11.36 5.99,11.36 C6.09,11.36 6.181,11.32 6.261,11.25 C6.361,11.15 6.391,11.01 6.351,10.88 L5.951,9.5 Z"/>
  <path fill="#292D32" d="M20.95,14.5 L21.36,13.11 C21.4,12.98 21.36,12.84 21.27,12.74 C21.17,12.64 21.03,12.61 20.9,12.65 L19.51,13.06 L18.12,12.65 C17.99,12.61 17.85,12.65 17.75,12.74 C17.65,12.84 17.62,12.98 17.66,13.11 L18.07,14.5 L17.66,15.89 C17.62,16.02 17.66,16.16 17.75,16.26 C17.85,16.36 17.99,16.39 18.12,16.35 L19.51,15.94 L20.9,16.35 C20.93,16.36 20.97,16.36 21.01,16.36 C21.11,16.36 21.2,16.32 21.28,16.25 C21.38,16.15 21.41,16.01 21.37,15.88 L20.95,14.5 Z"/>
</svg>

