<svg xmlns="http://www.w3.org/2000/svg" width="24" height="24" viewBox="0 0 24 24">
  <defs/>
  <path fill="#292D32" d="M17.29,4.14 L17.22,7.93 C17.21,8.45 17.54,9.14 17.96,9.45 L20.44,11.33 C22.03,12.53 21.77,14 19.87,14.6 L16.64,15.61 C16.1,15.78 15.53,16.37 15.39,16.92 L14.62,19.86 C14.01,22.18 12.49,22.41 11.23,20.37 L9.47,17.52 C9.15,17 8.39,16.61 7.79,16.64 L4.45,16.81 C2.06,16.93 1.38,15.55 2.94,13.73 L4.92,11.43 C5.29,11 5.46,10.2 5.29,9.66 L4.27,6.42 C3.68,4.52 4.74,3.47 6.63,4.09 L9.58,5.06 C10.08,5.22 10.83,5.11 11.25,4.8 L14.33,2.58 C16,1.39 17.33,2.09 17.29,4.14 Z"/>
  <path fill="#292D32" d="M21.44,20.47 L18.41,17.44 C18.12,17.15 17.64,17.15 17.35,17.44 C17.06,17.73 17.06,18.21 17.35,18.5 L20.38,21.53 C20.53,21.68 20.72,21.75 20.91,21.75 C21.1,21.75 21.29,21.68 21.44,21.53 C21.73,21.24 21.73,20.76 21.44,20.47 Z"/>
</svg>

