<svg xmlns="http://www.w3.org/2000/svg" width="24" height="24" viewBox="0 0 24 24">
  <defs/>
  <path fill="#292D32" d="M5.001,21.87 C4.261,21.87 3.531,21.59 2.971,21.03 C2.431,20.49 2.131,19.77 2.131,19 C2.131,18.23 2.431,17.51 2.971,16.97 L15.971,3.97 C17.091,2.85 18.911,2.85 20.031,3.97 C20.571,4.51 20.871,5.23 20.871,6 C20.871,6.77 20.571,7.49 20.031,8.03 L7.031,21.03 C6.471,21.59 5.741,21.87 5.001,21.87 Z M18.001,4.63 C17.651,4.63 17.301,4.76 17.031,5.03 L4.031,18.03 C3.771,18.29 3.631,18.63 3.631,19 C3.631,19.37 3.771,19.71 4.031,19.97 C4.561,20.5 5.441,20.5 5.971,19.97 L18.971,6.97 C19.231,6.71 19.371,6.37 19.371,6 C19.371,5.63 19.231,5.29 18.971,5.03 C18.701,4.76 18.351,4.63 18.001,4.63 Z"/>
  <path fill="#292D32" d="M18.009,9.74 C17.819,9.74 17.629,9.67 17.479,9.52 L14.479,6.52 C14.189,6.23 14.189,5.75 14.479,5.46 C14.769,5.17 15.249,5.17 15.539,5.46 L18.539,8.46 C18.829,8.75 18.829,9.23 18.539,9.52 C18.389,9.67 18.199,9.74 18.009,9.74 Z"/>
  <path fill="#292D32" d="M9.999,5.5 C9.949,5.5 9.909,5.49 9.859,5.48 L8.499,5.08 L7.139,5.48 C6.959,5.53 6.769,5.48 6.649,5.35 C6.519,5.22 6.469,5.04 6.519,4.86 L6.919,3.5 L6.519,2.14 C6.469,1.96 6.519,1.77 6.649,1.65 C6.779,1.52 6.969,1.47 7.139,1.52 L8.499,1.92 L9.859,1.52 C10.039,1.47 10.219,1.52 10.349,1.65 C10.479,1.78 10.529,1.97 10.479,2.14 L10.079,3.5 L10.479,4.86 C10.529,5.04 10.479,5.23 10.349,5.35 C10.259,5.45 10.129,5.5 9.999,5.5 Z M8.499,4.06 C8.549,4.06 8.589,4.07 8.639,4.08 L9.259,4.26 L9.079,3.64 C9.049,3.55 9.049,3.45 9.079,3.36 L9.259,2.74 L8.639,2.92 C8.549,2.95 8.449,2.95 8.359,2.92 L7.739,2.74 L7.919,3.36 C7.949,3.45 7.949,3.55 7.919,3.64 L7.739,4.26 L8.359,4.08 C8.409,4.07 8.449,4.06 8.499,4.06 Z"/>
  <path fill="#292D32" d="M5.999,11.5 C5.949,11.5 5.909,11.49 5.859,11.48 L4.499,11.08 L3.139,11.48 C2.959,11.53 2.779,11.48 2.649,11.35 C2.519,11.22 2.469,11.03 2.519,10.86 L2.919,9.5 L2.519,8.14 C2.469,7.96 2.519,7.77 2.649,7.65 C2.779,7.53 2.969,7.47 3.139,7.52 L4.499,7.92 L5.859,7.52 C6.029,7.47 6.219,7.52 6.349,7.65 C6.479,7.78 6.529,7.97 6.479,8.14 L6.079,9.5 L6.479,10.86 C6.529,11.04 6.479,11.23 6.349,11.35 C6.259,11.45 6.129,11.5 5.999,11.5 Z M4.499,10.06 C4.549,10.06 4.589,10.07 4.639,10.08 L5.259,10.26 L5.079,9.64 C5.049,9.55 5.049,9.45 5.079,9.36 L5.259,8.74 L4.639,8.92 C4.549,8.95 4.449,8.95 4.359,8.92 L3.739,8.74 L3.919,9.36 C3.949,9.45 3.949,9.55 3.919,9.64 L3.739,10.26 L4.359,10.08 C4.409,10.07 4.449,10.06 4.499,10.06 Z"/>
  <path fill="#292D32" d="M20.999,16.5 C20.949,16.5 20.909,16.49 20.859,16.48 L19.499,16.08 L18.139,16.48 C17.959,16.53 17.779,16.48 17.649,16.35 C17.519,16.22 17.469,16.03 17.519,15.86 L17.919,14.5 L17.519,13.14 C17.469,12.96 17.519,12.77 17.649,12.65 C17.779,12.53 17.969,12.47 18.139,12.52 L19.499,12.92 L20.859,12.52 C21.029,12.47 21.219,12.52 21.349,12.65 C21.479,12.78 21.529,12.97 21.479,13.14 L21.079,14.5 L21.479,15.86 C21.529,16.04 21.479,16.23 21.349,16.35 C21.259,16.45 21.129,16.5 20.999,16.5 Z M19.499,15.06 C19.549,15.06 19.589,15.07 19.639,15.08 L20.259,15.26 L20.079,14.64 C20.049,14.55 20.049,14.45 20.079,14.36 L20.259,13.74 L19.639,13.92 C19.549,13.95 19.449,13.95 19.359,13.92 L18.739,13.74 L18.919,14.36 C18.949,14.45 18.949,14.55 18.919,14.64 L18.739,15.26 L19.359,15.08 C19.409,15.07 19.449,15.06 19.499,15.06 Z"/>
</svg>

