<svg xmlns="http://www.w3.org/2000/svg" width="24" height="24" viewBox="0 0 24 24">
  <defs/>
  <path fill="#292D32" d="M13.01,22.5 C12.41,22.5 11.48,22.21 10.59,20.75 L8.83,17.9 C8.66,17.62 8.14,17.35 7.82,17.37 L4.48,17.54 C2.48,17.64 1.78,16.81 1.53,16.31 C1.28,15.81 1.06,14.74 2.36,13.22 L4.34,10.92 C4.54,10.68 4.65,10.16 4.56,9.86 L3.55,6.63 C3.04,5.01 3.61,4.14 3.99,3.76 C4.37,3.38 5.25,2.83 6.87,3.37 L9.82,4.34 C10.09,4.43 10.59,4.35 10.82,4.19 L13.9,1.97 C15.31,0.95 16.33,1.22 16.8,1.47 C17.27,1.72 18.07,2.4 18.04,4.14 L17.97,7.93 C17.96,8.21 18.19,8.67 18.41,8.84 L20.89,10.72 C22.24,11.75 22.29,12.78 22.2,13.31 C22.11,13.84 21.71,14.8 20.09,15.3 L16.86,16.31 C16.56,16.4 16.19,16.79 16.11,17.09 L15.34,20.03 C14.83,21.96 13.83,22.39 13.27,22.47 C13.2,22.49 13.11,22.5 13.01,22.5 Z M7.85,15.87 C8.71,15.87 9.66,16.39 10.1,17.11 L11.86,19.96 C12.36,20.78 12.81,21.03 13.05,20.99 C13.28,20.96 13.64,20.58 13.89,19.66 L14.66,16.72 C14.87,15.92 15.62,15.13 16.41,14.89 L19.64,13.88 C20.26,13.69 20.66,13.38 20.72,13.06 C20.78,12.74 20.5,12.32 19.98,11.92 L17.5,10.04 C16.89,9.58 16.45,8.66 16.46,7.9 L16.53,4.11 C16.54,3.44 16.38,2.94 16.09,2.79 C15.8,2.64 15.31,2.79 14.76,3.18 L11.68,5.4 C11.07,5.84 10.06,6 9.33,5.76 L6.38,4.79 C5.76,4.59 5.26,4.6 5.03,4.83 C4.8,5.06 4.78,5.56 4.97,6.18 L5.98,9.41 C6.23,10.2 6.01,11.27 5.47,11.89 L3.49,14.19 C2.86,14.92 2.76,15.43 2.87,15.64 C2.97,15.85 3.45,16.08 4.4,16.03 L7.74,15.86 C7.78,15.87 7.82,15.87 7.85,15.87 Z"/>
  <path fill="#292D32" d="M21.91,22.75 C21.72,22.75 21.53,22.68 21.38,22.53 L18.35,19.5 C18.06,19.21 18.06,18.73 18.35,18.44 C18.64,18.15 19.12,18.15 19.41,18.44 L22.44,21.47 C22.73,21.76 22.73,22.24 22.44,22.53 C22.29,22.68 22.1,22.75 21.91,22.75 Z"/>
</svg>

