<svg xmlns="http://www.w3.org/2000/svg" width="24" height="24" viewBox="0 0 24 24">
  <defs/>
  <path fill="#292D32" d="M18.04,4.154 L17.97,7.944 Q17.959,8.517 18.405,8.847 L20.893,10.732 Q22.45,11.907 22.203,13.319 Q21.956,14.728 20.096,15.315 L16.864,16.326 Q16.267,16.514 16.117,17.105 L15.346,20.05 Q14.762,22.268 13.281,22.492 Q11.797,22.715 10.592,20.764 L8.832,17.914 Q8.488,17.356 7.827,17.389 L4.488,17.559 Q2.201,17.674 1.541,16.328 Q0.879,14.982 2.371,13.242 L4.352,10.941 Q4.758,10.468 4.575,9.885 L3.564,6.654 Q2.986,4.792 4.003,3.787 Q5.022,2.78 6.874,3.387 L9.824,4.358 Q10.372,4.533 10.815,4.207 L13.901,1.982 Q15.522,0.81 16.801,1.482 Q18.079,2.154 18.04,4.154 Z M16.54,4.125 Q16.561,3.051 16.104,2.81 Q15.647,2.57 14.779,3.198 L11.705,5.413 Q10.646,6.195 9.356,5.782 L6.406,4.813 Q5.424,4.491 5.057,4.853 Q4.689,5.217 4.996,6.206 L6.005,9.435 Q6.44,10.814 5.488,11.919 L3.509,14.218 Q2.661,15.208 2.887,15.667 Q3.113,16.126 4.412,16.061 L7.753,15.891 Q9.3,15.814 10.108,17.126 L11.868,19.976 Q12.553,21.084 13.057,21.008 Q13.563,20.932 13.894,19.67 L14.663,16.735 Q15.02,15.334 16.416,14.894 L19.644,13.885 Q20.635,13.572 20.725,13.061 Q20.814,12.552 19.987,11.928 L17.515,10.053 Q16.444,9.263 16.47,7.916 L16.54,4.126 Z"/>
  <path fill="#292D32" d="M21.38,22.53 L18.35,19.5 Q18.13,19.281 18.13,18.97 Q18.13,18.659 18.35,18.44 Q18.569,18.22 18.88,18.22 Q19.191,18.22 19.41,18.44 L22.44,21.47 Q22.66,21.689 22.66,22 Q22.66,22.311 22.44,22.53 Q22.221,22.75 21.91,22.75 Q21.599,22.75 21.38,22.53 Z"/>
</svg>

