<svg xmlns="http://www.w3.org/2000/svg" width="24" height="24" viewBox="0 0 24 24">
  <defs/>
  <path fill="#292D32" d="M19.5,7.499 L18.01,8.989 L15.01,5.989 L16.5,4.499 C16.92,4.079 17.46,3.879 18,3.879 C18.54,3.879 19.08,4.079 19.5,4.499 C20.33,5.329 20.33,6.669 19.5,7.499 Z"/>
  <path fill="#292D32" d="M17.309,9.699 L6.499,20.499 C5.669,21.329 4.329,21.329 3.499,20.499 C2.669,19.669 2.669,18.329 3.499,17.499 L14.309,6.699 L17.309,9.699 Z"/>
  <path fill="#292D32" d="M9.951,3.501 L10.361,2.111 C10.4,1.981 10.361,1.841 10.271,1.741 C10.181,1.641 10.021,1.601 9.891,1.641 L8.501,2.051 L7.111,1.641 C6.981,1.601 6.841,1.641 6.741,1.731 C6.641,1.831 6.611,1.971 6.651,2.101 L7.051,3.501 L6.641,4.891 C6.601,5.021 6.641,5.161 6.731,5.261 C6.831,5.361 6.971,5.391 7.101,5.351 L8.501,4.951 L9.891,5.361 C9.931,5.371 9.961,5.381 10.001,5.381 C10.101,5.381 10.191,5.341 10.271,5.271 C10.37,5.171 10.4,5.031 10.361,4.901 L9.951,3.501 Z"/>
  <path fill="#292D32" d="M5.951,9.501 L6.361,8.111 C6.401,7.981 6.361,7.841 6.271,7.741 C6.171,7.641 6.031,7.611 5.901,7.651 L4.501,8.051 L3.111,7.641 C2.981,7.601 2.841,7.641 2.741,7.731 C2.641,7.831 2.611,7.971 2.651,8.101 L3.051,9.501 L2.641,10.89 C2.601,11.021 2.641,11.161 2.731,11.261 C2.831,11.361 2.97,11.39 3.1,11.351 L4.49,10.941 L5.881,11.351 C5.911,11.361 5.951,11.361 5.99,11.361 C6.09,11.361 6.181,11.32 6.261,11.251 C6.361,11.15 6.391,11.011 6.351,10.88 L5.951,9.501 Z"/>
  <path fill="#292D32" d="M20.95,14.5 L21.36,13.11 C21.4,12.98 21.36,12.84 21.27,12.74 C21.17,12.64 21.03,12.61 20.9,12.65 L19.51,13.06 L18.12,12.65 C17.99,12.61 17.85,12.65 17.75,12.74 C17.65,12.84 17.62,12.98 17.66,13.11 L18.07,14.5 L17.66,15.89 C17.62,16.02 17.66,16.16 17.75,16.26 C17.85,16.36 17.99,16.39 18.12,16.35 L19.51,15.94 L20.9,16.35 C20.93,16.36 20.97,16.36 21.01,16.36 C21.11,16.36 21.2,16.32 21.28,16.25 C21.38,16.15 21.41,16.01 21.37,15.88 L20.95,14.5 Z"/>
</svg>

