<svg xmlns="http://www.w3.org/2000/svg" width="24" height="24" viewBox="0 0 24 24">
  <defs/>
  <path fill="#292D32" d="M16.449,9.49 L18.969,6.97 Q19.939,6 18.969,5.03 Q18,4.061 17.03,5.03 L4.03,18.03 Q3.06,19 4.03,19.97 Q4.999,20.939 5.969,19.97 L13.969,11.97 Q14.189,11.75 14.5,11.75 Q14.81,11.75 15.03,11.97 Q15.25,12.189 15.25,12.5 Q15.249,12.811 15.03,13.03 L7.03,21.03 Q6.188,21.872 4.999,21.872 Q3.811,21.872 2.969,21.03 Q0.939,19 2.969,16.97 L15.969,3.97 Q17.999,1.939 20.03,3.97 Q20.872,4.812 20.872,6 Q20.872,7.188 20.03,8.03 L17.51,10.55 Q17.29,10.77 16.979,10.77 Q16.669,10.77 16.449,10.55 Q16.229,10.331 16.229,10.02 Q16.229,9.709 16.449,9.49 Z"/>
  <path fill="#292D32" d="M17.479,9.521 L14.479,6.521 Q14.26,6.301 14.26,5.99 Q14.26,5.68 14.479,5.46 Q14.699,5.24 15.01,5.24 Q15.32,5.24 15.54,5.46 L18.54,8.46 Q18.76,8.68 18.76,8.99 Q18.76,9.301 18.54,9.521 Q18.32,9.74 18.01,9.74 Q17.699,9.74 17.479,9.521 Z"/>
  <path fill="#292D32" d="M10.04,3.359 L10.48,4.859 Q10.538,5.058 10.439,5.24 Q10.339,5.421 10.141,5.48 Q10,5.521 9.859,5.48 L8.5,5.081 L7.141,5.48 Q6.942,5.538 6.76,5.439 Q6.579,5.339 6.52,5.141 Q6.479,5 6.52,4.859 L6.919,3.5 L6.52,2.141 Q6.462,1.942 6.561,1.76 Q6.661,1.579 6.859,1.52 Q7,1.479 7.141,1.52 L8.641,1.96 Q8.839,2.019 8.939,2.2 Q9.038,2.382 8.98,2.581 Q8.921,2.779 8.74,2.879 Q8.558,2.978 8.359,2.92 L7.737,2.737 L7.92,3.359 Q7.961,3.5 7.92,3.641 L7.737,4.263 L8.359,4.08 Q8.5,4.039 8.641,4.08 L9.263,4.263 L9.08,3.641 Q9.022,3.442 9.121,3.26 Q9.221,3.079 9.419,3.02 Q9.618,2.962 9.8,3.061 Q9.981,3.161 10.04,3.359 Z"/>
  <path fill="#292D32" d="M4.5,7.919 L5.859,7.52 Q6.058,7.462 6.24,7.561 Q6.421,7.661 6.48,7.859 Q6.521,8 6.48,8.141 L6.081,9.5 L6.48,10.859 Q6.538,11.058 6.439,11.24 Q6.339,11.421 6.141,11.48 Q6,11.521 5.859,11.48 L4.5,11.081 L3.141,11.48 Q2.942,11.538 2.76,11.439 Q2.579,11.339 2.52,11.141 Q2.479,11 2.52,10.859 L2.919,9.5 L2.52,8.141 Q2.462,7.942 2.561,7.76 Q2.661,7.579 2.859,7.52 Q3,7.479 3.141,7.52 L4.5,7.919 Z M4.641,8.92 Q4.5,8.961 4.359,8.92 L3.737,8.737 L3.92,9.359 Q3.961,9.5 3.92,9.641 L3.737,10.263 L4.359,10.08 Q4.5,10.039 4.641,10.08 L5.263,10.263 L5.08,9.641 Q5.039,9.5 5.08,9.359 L5.263,8.737 Z"/>
  <path fill="#292D32" d="M17.96,14.641 L17.52,13.141 Q17.462,12.942 17.561,12.76 Q17.661,12.579 17.859,12.52 Q18,12.479 18.141,12.52 L19.5,12.919 L20.859,12.52 Q21.058,12.462 21.24,12.561 Q21.421,12.661 21.48,12.859 Q21.521,13 21.48,13.141 L21.081,14.5 L21.48,15.859 Q21.538,16.058 21.439,16.24 Q21.339,16.421 21.141,16.48 Q21,16.521 20.859,16.48 L19.359,16.04 Q19.161,15.981 19.061,15.8 Q18.962,15.618 19.02,15.419 Q19.079,15.221 19.26,15.121 Q19.442,15.022 19.641,15.08 L20.263,15.263 L20.08,14.641 Q20.039,14.5 20.08,14.359 L20.263,13.737 L19.641,13.92 Q19.5,13.961 19.359,13.92 L18.737,13.737 L18.92,14.359 Q18.978,14.558 18.879,14.74 Q18.779,14.921 18.581,14.98 Q18.382,15.038 18.2,14.939 Q18.019,14.839 17.96,14.641 Z"/>
</svg>

