<svg xmlns="http://www.w3.org/2000/svg" width="24" height="24" viewBox="0 0 24 24">
  <defs/>
  <path fill="#292D32" d="M3.554,6.642 Q2.976,4.782 3.993,3.777 Q5.012,2.77 6.864,3.377 L9.815,4.348 Q10.363,4.523 10.805,4.197 L13.892,1.972 Q15.521,0.801 16.8,1.472 Q18.079,2.143 18.04,4.145 L17.97,7.934 Q17.959,8.507 18.406,8.837 L20.893,10.722 Q22.45,11.897 22.203,13.309 Q21.956,14.718 20.096,15.305 L16.864,16.316 Q16.268,16.504 16.117,17.095 L15.346,20.04 Q14.763,22.258 13.281,22.482 Q11.797,22.705 10.592,20.754 L8.832,17.904 Q8.489,17.346 7.828,17.379 L4.488,17.549 Q2.202,17.664 1.541,16.318 Q0.88,14.972 2.371,13.232 L4.352,10.931 Q4.504,10.754 4.578,10.42 Q4.644,10.116 4.906,9.949 Q5.167,9.781 5.471,9.847 Q5.774,9.914 5.942,10.175 Q6.109,10.437 6.043,10.74 Q5.888,11.446 5.489,11.909 L3.51,14.208 Q2.662,15.198 2.887,15.657 Q3.113,16.116 4.412,16.051 L7.753,15.881 Q9.301,15.804 10.108,17.116 L11.868,19.966 Q12.553,21.074 13.057,20.998 Q13.563,20.922 13.895,19.66 L14.663,16.725 Q15.02,15.324 16.416,14.884 L19.644,13.875 Q20.636,13.562 20.725,13.051 Q20.814,12.542 19.987,11.918 L17.515,10.043 Q16.444,9.253 16.47,7.906 L16.54,4.115 Q16.561,3.041 16.103,2.8 Q15.644,2.56 14.769,3.188 L11.696,5.403 Q10.636,6.185 9.346,5.772 L6.396,4.803 Q5.415,4.481 5.047,4.843 Q4.679,5.207 4.987,6.198 Q5.079,6.494 4.934,6.769 Q4.789,7.044 4.493,7.136 Q4.196,7.228 3.921,7.084 Q3.646,6.939 3.554,6.642 Z"/>
  <path fill="#292D32" d="M21.38,22.53 L18.351,19.5 Q18.131,19.281 18.131,18.97 Q18.131,18.659 18.351,18.44 Q18.57,18.22 18.881,18.22 Q19.192,18.22 19.411,18.44 L22.441,21.47 Q22.661,21.689 22.661,22 Q22.661,22.311 22.441,22.53 Q22.221,22.75 21.911,22.75 Q21.6,22.75 21.38,22.53 Z"/>
</svg>

