<svg xmlns="http://www.w3.org/2000/svg" width="24" height="24" viewBox="0 0 24 24">
  <defs/>
  <path fill="#292D32" d="M12,22.75 C10.83,22.75 9.74,22.3 8.92,21.48 L2.53,15.09 C1.71,14.27 1.26,13.17 1.26,12.01 C1.26,10.85 1.71,9.75 2.53,8.93 L8.92,2.54 C9.74,1.72 10.84,1.27 12,1.27 C13.16,1.27 14.26,1.72 15.08,2.54 L21.47,8.93 C22.29,9.75 22.74,10.85 22.74,12.01 C22.74,13.17 22.29,14.27 21.47,15.09 L15.08,21.48 C14.26,22.3 13.17,22.75 12,22.75 Z M12,2.75 C11.23,2.75 10.51,3.05 9.98,3.58 L3.59,9.97 C3.05,10.51 2.76,11.23 2.76,11.99 C2.76,12.75 3.06,13.48 3.59,14.01 L9.98,20.4 C11.05,21.47 12.95,21.47 14.02,20.4 L20.41,14.01 C20.95,13.47 21.24,12.76 21.24,11.99 C21.24,11.22 20.94,10.5 20.41,9.97 L14.02,3.58 C13.49,3.05 12.77,2.75 12,2.75 Z"/>
  <path fill="#292D32" d="M17.75,18.5 C17.559,18.5 17.369,18.43 17.22,18.28 L5.719,6.78 C5.429,6.49 5.429,6.01 5.719,5.72 C6.009,5.43 6.489,5.43 6.779,5.72 L18.279,17.22 C18.57,17.51 18.57,17.99 18.279,18.28 C18.13,18.43 17.939,18.5 17.75,18.5 Z"/>
  <path fill="#292D32" d="M6.249,18.5 C6.059,18.5 5.869,18.43 5.719,18.28 C5.429,17.99 5.429,17.51 5.719,17.22 L17.22,5.72 C17.509,5.43 17.989,5.43 18.279,5.72 C18.57,6.01 18.57,6.49 18.279,6.78 L6.779,18.28 C6.629,18.43 6.439,18.5 6.249,18.5 Z"/>
</svg>

