<svg xmlns="http://www.w3.org/2000/svg" width="24" height="24" viewBox="0 0 24 24">
  <defs/>
  <path fill="#292D32" d="M6.209,18.77 L2.529,15.09 Q1.26,13.821 1.26,12.009 Q1.26,10.198 2.528,8.922 L8.919,2.53 Q10.189,1.26 12.001,1.26 Q13.811,1.26 15.088,2.528 L21.48,8.92 Q22.75,10.189 22.75,12.001 Q22.75,13.812 21.482,15.088 L15.09,21.48 Q13.82,22.75 12.009,22.75 Q10.198,22.75 8.921,21.482 Q8.701,21.263 8.7,20.953 Q8.699,20.642 8.918,20.422 Q9.136,20.201 9.447,20.2 Q9.758,20.199 9.978,20.418 Q12.012,22.437 14.029,20.42 L20.418,14.032 Q22.437,11.998 20.419,9.98 L14.031,3.592 Q11.998,1.573 9.98,3.59 L3.592,9.978 Q1.573,12.012 3.59,14.03 L7.27,17.71 Q7.49,17.929 7.49,18.24 Q7.49,18.551 7.27,18.77 Q7.05,18.99 6.74,18.99 Q6.429,18.99 6.209,18.77 Z"/>
  <path fill="#292D32" d="M6.78,5.72 L18.28,17.22 Q18.5,17.439 18.5,17.75 Q18.5,18.061 18.28,18.28 Q18.061,18.5 17.75,18.5 Q17.439,18.5 17.22,18.28 L5.72,6.78 Q5.5,6.561 5.5,6.25 Q5.5,5.939 5.72,5.72 Q5.939,5.5 6.25,5.5 Q6.561,5.5 6.78,5.72 Z"/>
  <path fill="#292D32" d="M16.03,9.03 L6.78,18.28 Q6.561,18.5 6.25,18.5 Q5.939,18.5 5.72,18.28 Q5.5,18.061 5.5,17.75 Q5.5,17.439 5.72,17.22 L14.97,7.97 Q15.189,7.75 15.5,7.75 Q15.811,7.75 16.03,7.97 Q16.25,8.189 16.25,8.5 Q16.25,8.811 16.03,9.03 Z"/>
</svg>

