<svg xmlns="http://www.w3.org/2000/svg" width="24" height="24" viewBox="0 0 24 24">
  <defs/>
  <path fill="#292D32" opacity="0.4" d="M20.95,14.55 L18.28,17.22 L17.22,18.28 L14.55,20.95 C13.15,22.35 10.85,22.35 9.45,20.95 L6.78,18.28 L5.72,17.22 L3.05,14.55 C1.65,13.15 1.65,10.85 3.05,9.45 L5.72,6.78 L6.78,5.72 L9.45,3.05 C10.85,1.65 13.15,1.65 14.55,3.05 L17.22,5.72 L18.28,6.78 L20.95,9.45 C22.35,10.85 22.35,13.15 20.95,14.55 Z"/>
  <path fill="#292D32" d="M13.061,12 L18.281,17.22 L17.221,18.28 L12.001,13.06 L6.781,18.28 L5.721,17.22 L10.941,12 L5.721,6.78 L6.781,5.72 L12.001,10.94 L17.221,5.72 L18.281,6.78 L13.061,12 Z"/>
</svg>

