<svg xmlns="http://www.w3.org/2000/svg" width="24" height="24" viewBox="0 0 24 24">
  <defs/>
  <path fill="#292D32" d="M16.51,5.01 L14.55,3.05 C13.15,1.65 10.85,1.65 9.45,3.05 L7.49,5.01 C7.1,5.4 7.1,6.04 7.49,6.43 L11.3,10.24 C11.69,10.63 12.32,10.63 12.71,10.24 L16.52,6.43 C16.9,6.04 16.9,5.4 16.51,5.01 Z"/>
  <path fill="#292D32" d="M5.01,7.492 L3.05,9.452 C1.65,10.852 1.65,13.152 3.05,14.552 L5.01,16.512 C5.4,16.902 6.03,16.902 6.42,16.512 L10.23,12.702 C10.62,12.312 10.62,11.682 10.23,11.292 L6.43,7.492 C6.04,7.102 5.4,7.102 5.01,7.492 Z"/>
  <path fill="#292D32" d="M20.949,9.452 L18.989,7.492 C18.599,7.102 17.969,7.102 17.579,7.492 L13.769,11.302 C13.379,11.692 13.379,12.322 13.769,12.712 L17.579,16.522 C17.969,16.912 18.599,16.912 18.989,16.522 L20.949,14.562 C22.349,13.152 22.349,10.852 20.949,9.452 Z"/>
  <path fill="#292D32" d="M7.489,18.989 L9.449,20.949 C10.849,22.349 13.149,22.349 14.549,20.949 L16.509,18.989 C16.899,18.599 16.899,17.969 16.509,17.579 L12.699,13.769 C12.309,13.379 11.679,13.379 11.289,13.769 L7.479,17.579 C7.099,17.959 7.099,18.599 7.489,18.989 Z"/>
</svg>

