<svg xmlns="http://www.w3.org/2000/svg" width="24" height="24" viewBox="0 0 24 24">
  <defs/>
  <path d="M5.83,14.5 L5.83,9.5 Q5.83,9.189 6.05,8.97 Q6.269,8.75 6.58,8.75 Q6.788,8.75 6.966,8.857 L11.136,11.357 Q11.5,11.575 11.5,12 L11.5,14.5 Q11.5,14.811 11.28,15.03 Q11.061,15.25 10.75,15.25 Q10.439,15.25 10.22,15.03 Q10,14.811 10,14.5 L10,12.425 L7.33,10.824 L7.33,14.5 Q7.33,14.811 7.11,15.03 Q6.891,15.25 6.58,15.25 Q6.269,15.25 6.05,15.03 Q5.83,14.811 5.83,14.5 Z"/>
  <path d="M16.67,14.5 L16.67,10.824 L14,12.425 L14,14.5 Q14,14.811 13.78,15.03 Q13.561,15.25 13.25,15.25 Q12.939,15.25 12.72,15.03 Q12.5,14.811 12.5,14.5 L12.5,12 Q12.5,11.575 12.864,11.357 L17.034,8.857 Q17.212,8.75 17.42,8.75 Q17.731,8.75 17.95,8.97 Q18.17,9.189 18.17,9.5 L18.17,14.5 Q18.17,14.811 17.95,15.03 Q17.731,15.25 17.42,15.25 Q17.109,15.25 16.89,15.03 Q16.67,14.811 16.67,14.5 Z"/>
  <path fill="#17191C" d="M4.6,6.449 Q2.75,8.922 2.75,12 Q2.75,15.829 5.46,18.54 Q8.171,21.25 12,21.25 Q15.829,21.25 18.54,18.54 Q21.25,15.829 21.25,12 Q21.25,8.171 18.54,5.46 Q15.829,2.75 12,2.75 Q10.031,2.75 8.276,3.535 Q7.993,3.661 7.702,3.551 Q7.412,3.44 7.285,3.156 Q7.158,2.873 7.269,2.582 Q7.38,2.292 7.664,2.165 Q9.711,1.25 12,1.25 Q16.451,1.25 19.6,4.4 Q22.75,7.549 22.75,12 Q22.75,16.451 19.6,19.6 Q16.451,22.75 12,22.75 Q7.549,22.75 4.4,19.6 Q1.25,16.451 1.25,12 Q1.25,8.422 3.4,5.551 Q3.586,5.302 3.893,5.258 Q4.201,5.213 4.449,5.4 Q4.698,5.586 4.742,5.893 Q4.787,6.201 4.6,6.449 Z"/>
</svg>

