<svg xmlns="http://www.w3.org/2000/svg" width="24" height="24" viewBox="0 0 24 24">
  <defs/>
  <path fill="white" d="M24,0 L0,0 L0,24 L24,24 L24,0 Z"/>
  <path fill="#292D32" opacity="0.4" d="M12,22 C17.523,22 22,17.523 22,12 C22,6.477 17.523,2 12,2 C6.477,2 2,6.477 2,12 C2,17.523 6.477,22 12,22 Z"/>
  <path fill="#292D32" d="M10.75,15.25 C10.34,15.25 10,14.91 10,14.5 L10,12.42 L7.33,10.82 L7.33,14.5 C7.33,14.91 6.99,15.25 6.58,15.25 C6.17,15.25 5.83,14.91 5.83,14.5 L5.83,9.5 C5.83,9.23 5.98,8.98 6.21,8.85 C6.44,8.72 6.73,8.72 6.96,8.86 L11.13,11.36 C11.36,11.5 11.49,11.74 11.49,12 L11.49,14.5 C11.5,14.91 11.16,15.25 10.75,15.25 Z"/>
  <path fill="#292D32" d="M17.42,15.25 C17.01,15.25 16.67,14.91 16.67,14.5 L16.67,10.82 L14,12.42 L14,14.5 C14,14.91 13.66,15.25 13.25,15.25 C12.84,15.25 12.5,14.91 12.5,14.5 L12.5,12 C12.5,11.74 12.64,11.49 12.86,11.36 L17.03,8.86 C17.26,8.72 17.55,8.72 17.78,8.85 C18.02,8.98 18.16,9.23 18.16,9.5 L18.16,14.5 C18.17,14.91 17.83,15.25 17.42,15.25 Z"/>
</svg>

