<svg xmlns="http://www.w3.org/2000/svg" width="24" height="24" viewBox="0 0 24 24">
  <defs/>
  <path fill="#292D32" opacity="0.4" d="M18,13.75 C18,18.03 14.53,21.5 10.25,21.5 C5.97,21.5 2.5,18.03 2.5,13.75 C2.5,9.47 5.97,6 10.25,6 C12.12,6 13.83,6.66 15.17,7.77 L15.18,7.77 C15.57,8.09 15.92,8.44 16.23,8.83 C17.34,10.17 18,11.88 18,13.75 Z"/>
  <path fill="#292D32" d="M22.25,2.5 L22.25,9 C22.25,9.41 21.91,9.75 21.5,9.75 C21.09,9.75 20.75,9.41 20.75,9 L20.75,4.31 L16.23,8.83 C15.92,8.44 15.57,8.09 15.18,7.77 L19.69,3.25 L15,3.25 C14.59,3.25 14.25,2.91 14.25,2.5 C14.25,2.09 14.59,1.75 15,1.75 L21.5,1.75 C21.6,1.75 21.69,1.77 21.79,1.81 C21.97,1.88 22.12,2.03 22.19,2.21 C22.23,2.31 22.25,2.4 22.25,2.5 Z"/>
</svg>

