<svg xmlns="http://www.w3.org/2000/svg" width="24" height="24" viewBox="0 0 24 24">
  <defs/>
  <path fill="#292D32" d="M4.848,18.203 Q6.952,20.75 10.25,20.75 Q13.149,20.75 15.2,18.7 Q17.25,16.649 17.25,13.75 Q17.25,10.851 15.2,8.8 Q13.149,6.75 10.25,6.75 Q7.351,6.75 5.3,8.8 Q3.25,10.851 3.25,13.75 Q3.25,14.061 3.03,14.28 Q2.811,14.5 2.5,14.5 Q2.189,14.5 1.97,14.28 Q1.75,14.061 1.75,13.75 Q1.75,10.229 4.24,7.74 Q6.729,5.25 10.25,5.25 Q13.771,5.25 16.26,7.74 Q18.75,10.229 18.75,13.75 Q18.75,17.271 16.26,19.76 Q13.771,22.25 10.25,22.25 Q6.245,22.25 3.692,19.157 Q3.494,18.918 3.523,18.609 Q3.553,18.299 3.793,18.102 Q4.032,17.904 4.341,17.933 Q4.651,17.963 4.848,18.203 Z"/>
  <path fill="#292D32" d="M22.03,3.03 L16.53,8.53 Q16.311,8.75 16,8.75 Q15.689,8.75 15.47,8.53 Q15.25,8.311 15.25,8 Q15.25,7.689 15.47,7.47 L20.97,1.97 Q21.189,1.75 21.5,1.75 Q21.811,1.75 22.03,1.97 Q22.25,2.189 22.25,2.5 Q22.25,2.811 22.03,3.03 Z"/>
  <path fill="#292D32" d="M15,1.75 L21.5,1.75 Q21.811,1.75 22.03,1.97 Q22.25,2.189 22.25,2.5 L22.25,9 Q22.25,9.311 22.03,9.53 Q21.811,9.75 21.5,9.75 Q21.189,9.75 20.97,9.53 Q20.75,9.311 20.75,9 L20.75,3.25 L15,3.25 Q14.689,3.25 14.47,3.03 Q14.25,2.811 14.25,2.5 Q14.25,2.189 14.47,1.97 Q14.689,1.75 15,1.75 Z"/>
</svg>

