<svg xmlns="http://www.w3.org/2000/svg" width="24" height="24" viewBox="0 0 24 24">
  <defs/>
  <path fill="#292D32" d="M10.25,22.25 C5.56,22.25 1.75,18.44 1.75,13.75 C1.75,9.06 5.56,5.25 10.25,5.25 C14.94,5.25 18.75,9.06 18.75,13.75 C18.75,18.44 14.94,22.25 10.25,22.25 Z M10.25,6.75 C6.39,6.75 3.25,9.89 3.25,13.75 C3.25,17.61 6.39,20.75 10.25,20.75 C14.11,20.75 17.25,17.61 17.25,13.75 C17.25,9.89 14.11,6.75 10.25,6.75 Z"/>
  <path fill="#292D32" d="M16,8.75 C15.81,8.75 15.62,8.68 15.47,8.53 C15.18,8.24 15.18,7.76 15.47,7.47 L20.97,1.97 C21.26,1.68 21.74,1.68 22.03,1.97 C22.32,2.26 22.32,2.74 22.03,3.03 L16.53,8.53 C16.38,8.68 16.19,8.75 16,8.75 Z"/>
  <path fill="#292D32" d="M21.5,9.75 C21.09,9.75 20.75,9.41 20.75,9 L20.75,3.25 L15,3.25 C14.59,3.25 14.25,2.91 14.25,2.5 C14.25,2.09 14.59,1.75 15,1.75 L21.5,1.75 C21.91,1.75 22.25,2.09 22.25,2.5 L22.25,9 C22.25,9.41 21.91,9.75 21.5,9.75 Z"/>
</svg>

