<svg xmlns="http://www.w3.org/2000/svg" width="24" height="24" viewBox="0 0 24 24">
  <defs/>
  <path fill="#292D32" d="M22.19,2.21 C22.12,2.03 21.97,1.88 21.79,1.81 C21.69,1.77 21.6,1.75 21.5,1.75 L15,1.75 C14.59,1.75 14.25,2.09 14.25,2.5 C14.25,2.91 14.59,3.25 15,3.25 L19.69,3.25 L15.18,7.77 L15.17,7.77 C13.83,6.66 12.12,6 10.25,6 C5.97,6 2.5,9.47 2.5,13.75 C2.5,18.03 5.97,21.5 10.25,21.5 C14.53,21.5 18,18.03 18,13.75 C18,11.88 17.34,10.17 16.23,8.83 L20.75,4.31 L20.75,9 C20.75,9.41 21.09,9.75 21.5,9.75 C21.91,9.75 22.25,9.41 22.25,9 L22.25,2.5 C22.25,2.4 22.23,2.31 22.19,2.21 Z"/>
</svg>

