<svg xmlns="http://www.w3.org/2000/svg" width="24" height="24" viewBox="0 0 24 24">
  <defs/>
  <path fill="#292D32" d="M22.75,9 L22.75,15 Q22.75,19.054 20.913,20.908 Q20.694,21.129 20.383,21.13 Q20.073,21.131 19.852,20.913 Q19.851,20.912 19.85,20.91 L13.47,14.53 Q13.25,14.311 13.25,14 Q13.25,13.689 13.47,13.47 L21.2,5.74 Q21.419,5.52 21.73,5.52 Q22.041,5.52 22.26,5.74 Q22.413,5.893 22.461,6.103 Q22.75,7.371 22.75,9 Z M21.25,9 Q21.25,8.396 21.207,7.854 L15.061,14 L20.319,19.258 Q21.25,17.8 21.25,15 Z"/>
  <path fill="#292D32" d="M1.25,9 Q1.25,1.25 9,1.25 L15,1.25 Q21.349,1.25 22.461,6.102 Q22.554,6.507 22.26,6.8 L6.8,22.26 Q6.507,22.554 6.102,22.461 Q1.25,21.349 1.25,15 L1.25,12.94 Q1.25,12.629 1.47,12.41 Q1.689,12.19 2,12.19 Q2.311,12.19 2.53,12.41 Q2.75,12.629 2.75,12.94 L2.75,15 Q2.75,19.872 6.046,20.894 L20.894,6.046 Q19.872,2.75 15,2.75 L9,2.75 Q2.75,2.75 2.75,9 Q2.75,9.311 2.53,9.53 Q2.311,9.75 2,9.75 Q1.689,9.75 1.47,9.53 Q1.25,9.311 1.25,9 Z"/>
  <path fill="#292D32" d="M20.907,20.913 Q19.054,22.75 15,22.75 L9,22.75 Q7.37,22.75 6.103,22.461 Q5.8,22.392 5.635,22.129 Q5.469,21.866 5.538,21.563 Q5.586,21.353 5.739,21.2 L13.469,13.47 Q13.689,13.25 13.999,13.25 Q14.31,13.25 14.53,13.47 L20.91,19.85 Q21.129,20.069 21.129,20.38 Q21.129,20.691 20.91,20.91 Q20.909,20.912 20.907,20.913 Z M19.258,20.319 L14,15.061 L7.853,21.207 Q8.396,21.25 9,21.25 L15,21.25 Q17.8,21.25 19.258,20.319 Z"/>
  <path fill="#292D32" d="M5.509,7.81 L5.509,7.81 Q6.154,5.032 9.119,5.032 Q12.085,5.032 12.73,7.81 Q13.297,10.31 10.875,12.604 Q9.132,14.272 7.365,12.606 Q4.93,10.299 5.509,7.81 Z M6.97,8.15 Q6.586,9.801 8.394,11.514 Q9.124,12.203 9.843,11.516 Q11.645,9.809 11.269,8.15 Q10.893,6.532 9.119,6.532 Q7.345,6.532 6.97,8.15 Z"/>
  <path fill="#292D32" d="M9.094,7.7 L9.103,7.7 Q9.517,7.7 9.81,7.993 Q10.103,8.286 10.103,8.7 Q10.103,9.114 9.81,9.407 Q9.517,9.7 9.103,9.7 L9.094,9.7 Q8.68,9.7 8.387,9.407 Q8.094,9.114 8.094,8.7 Q8.094,8.286 8.387,7.993 Q8.68,7.7 9.094,7.7 Z"/>
</svg>

