<svg xmlns="http://www.w3.org/2000/svg" width="24" height="24" viewBox="0 0 24 24">
  <defs/>
  <path fill="#292D32" d="M15.649,21.41 C15.219,21.41 14.789,21.32 14.439,21.15 L9.189,18.52 C8.889,18.37 8.299,18.38 8.009,18.55 L5.649,19.9 C4.629,20.48 3.579,20.56 2.789,20.09 C1.989,19.63 1.539,18.69 1.539,17.51 L1.539,7.79 C1.539,6.88 2.139,5.85 2.929,5.4 L7.259,2.92 C7.989,2.5 9.099,2.47 9.849,2.85 L15.099,5.48 C15.399,5.63 15.979,5.61 16.279,5.45 L18.629,4.11 C19.649,3.53 20.699,3.45 21.489,3.92 C22.289,4.38 22.739,5.32 22.739,6.5 L22.739,16.23 C22.739,17.14 22.139,18.17 21.349,18.62 L17.019,21.1 C16.639,21.3 16.139,21.41 15.649,21.41 Z M8.639,16.92 C9.069,16.92 9.499,17.01 9.849,17.18 L15.099,19.81 C15.399,19.96 15.979,19.94 16.279,19.78 L20.609,17.3 C20.929,17.12 21.239,16.58 21.239,16.22 L21.239,6.49 C21.239,5.86 21.059,5.39 20.729,5.21 C20.409,5.03 19.909,5.1 19.369,5.41 L17.019,6.75 C16.289,7.17 15.179,7.2 14.429,6.82 L9.179,4.19 C8.879,4.04 8.299,4.06 7.999,4.22 L3.669,6.7 C3.349,6.88 3.039,7.42 3.039,7.79 L3.039,17.52 C3.039,18.15 3.219,18.62 3.539,18.8 C3.859,18.99 4.359,18.91 4.909,18.6 L7.259,17.26 C7.649,17.03 8.149,16.92 8.639,16.92 Z"/>
  <path fill="#292D32" d="M8.561,17.75 C8.151,17.75 7.811,17.41 7.811,17 L7.811,4 C7.811,3.59 8.151,3.25 8.561,3.25 C8.971,3.25 9.311,3.59 9.311,4 L9.311,17 C9.311,17.41 8.971,17.75 8.561,17.75 Z"/>
  <path fill="#292D32" d="M15.73,20.75 C15.32,20.75 14.98,20.41 14.98,20 L14.98,6.62 C14.98,6.21 15.32,5.87 15.73,5.87 C16.14,5.87 16.48,6.21 16.48,6.62 L16.48,20 C16.48,20.41 16.14,20.75 15.73,20.75 Z"/>
</svg>

