<svg xmlns="http://www.w3.org/2000/svg" width="24" height="24" viewBox="0 0 24 24">
  <defs/>
  <path fill="#292D32" opacity="0.4" d="M8.559,3.34 L8.559,17.67 C8.219,17.68 7.879,17.76 7.629,17.91 L5.279,19.25 C3.639,20.19 2.289,19.41 2.289,17.51 L2.289,7.78 C2.289,7.15 2.739,6.37 3.299,6.05 L7.629,3.57 C7.879,3.43 8.219,3.35 8.559,3.34 Z"/>
  <path fill="#292D32" d="M15.73,6.33 L15.73,20.66 C15.38,20.67 15.04,20.61 14.771,20.48 L9.521,17.85 C9.251,17.72 8.911,17.66 8.561,17.67 L8.561,3.34 C8.911,3.33 9.251,3.39 9.521,3.52 L14.771,6.15 C15.04,6.28 15.38,6.34 15.73,6.33 Z"/>
  <path fill="#292D32" opacity="0.4" d="M22,6.49 L22,16.22 C22,16.85 21.55,17.63 20.991,17.95 L16.66,20.43 C16.41,20.57 16.07,20.65 15.73,20.66 L15.73,6.33 C16.07,6.32 16.41,6.24 16.66,6.09 L19.011,4.75 C20.651,3.81 22,4.59 22,6.49 Z"/>
</svg>

