<svg xmlns="http://www.w3.org/2000/svg" width="24" height="24" viewBox="0 0 24 24">
  <defs/>
  <path fill="#292D32" d="M7.629,3.57 C7.808,3.472 7.999,3.622 7.999,3.827 L7.999,17.383 C7.999,17.606 7.847,17.795 7.649,17.899 C7.642,17.902 7.636,17.906 7.629,17.91 L5.279,19.25 C3.639,20.19 2.289,19.41 2.289,17.51 L2.289,7.78 C2.289,7.15 2.739,6.37 3.299,6.05 L7.629,3.57 Z"/>
  <path fill="#292D32" d="M14.722,6.103 C14.892,6.187 15,6.361 15,6.551 L15,19.704 C15,20.073 14.615,20.314 14.283,20.155 L10.033,18.107 C9.86,18.024 9.75,17.849 9.75,17.657 L9.75,4.446 C9.75,4.075 10.14,3.834 10.472,3.998 L14.722,6.103 Z"/>
  <path fill="#292D32" d="M22,6.49 L22,16.22 C22,16.85 21.55,17.63 20.99,17.95 L17.499,19.951 C17.165,20.142 16.75,19.901 16.75,19.517 L16.75,6.33 C16.75,6.151 16.846,5.985 17.002,5.896 L19.01,4.75 C20.65,3.81 22,4.59 22,6.49 Z"/>
</svg>

