<svg xmlns="http://www.w3.org/2000/svg" width="24" height="24" viewBox="0 0 24 24">
  <defs/>
  <path fill="#292D32" d="M20.38,21.13 C20.18,21.13 19.989,21.05 19.849,20.91 L13.47,14.53 C13.18,14.24 13.18,13.76 13.47,13.47 L21.2,5.74 C21.39,5.55 21.68,5.48 21.939,5.55 C22.2,5.63 22.399,5.84 22.459,6.1 C22.649,6.95 22.75,7.9 22.75,9 L22.75,15 C22.75,17.77 22.169,19.64 20.91,20.91 C20.77,21.05 20.559,21.08 20.38,21.13 Z M15.059,14 L20.32,19.26 C20.95,18.29 21.25,16.91 21.25,15 L21.25,9 C21.25,8.59 21.239,8.21 21.209,7.85 L15.059,14 Z"/>
  <path fill="#292D32" d="M6.27,22.48 C6.21,22.48 6.16,22.47 6.1,22.46 C2.79,21.7 1.25,19.33 1.25,15 L1.25,9 C1.25,3.57 3.57,1.25 9,1.25 L15,1.25 C19.33,1.25 21.7,2.79 22.46,6.1 C22.52,6.35 22.44,6.62 22.26,6.8 L6.8,22.26 C6.66,22.4 6.47,22.48 6.27,22.48 Z M9,2.75 C4.39,2.75 2.75,4.39 2.75,9 L2.75,15 C2.75,18.47 3.71,20.21 6.04,20.9 L20.89,6.05 C20.21,3.72 18.46,2.76 14.99,2.76 L9,2.76 L9,2.75 Z"/>
  <path fill="#292D32" d="M15,22.75 L9,22.75 C7.9,22.75 6.96,22.66 6.1,22.46 C5.83,22.4 5.62,22.2 5.55,21.94 C5.47,21.68 5.55,21.4 5.74,21.2 L13.47,13.47 C13.76,13.18 14.24,13.18 14.53,13.47 L20.91,19.85 C21.05,19.99 21.13,20.18 21.13,20.38 C21.13,20.58 21.05,20.77 20.91,20.91 C19.64,22.17 17.77,22.75 15,22.75 Z M7.85,21.21 C8.21,21.24 8.59,21.25 9,21.25 L15,21.25 C16.92,21.25 18.29,20.95 19.26,20.32 L14,15.06 L7.85,21.21 Z"/>
  <path fill="#292D32" d="M9.119,13.31 C8.489,13.31 7.859,13.08 7.359,12.61 C5.769,11.1 5.129,9.44 5.509,7.82 C5.889,6.16 7.339,5.04 9.119,5.04 C10.899,5.04 12.349,6.16 12.729,7.82 C13.099,9.45 12.459,11.1 10.869,12.61 C10.379,13.07 9.749,13.31 9.119,13.31 Z M6.969,8.15 C6.649,9.51 7.569,10.73 8.399,11.52 C8.809,11.91 9.439,11.91 9.839,11.52 C10.659,10.74 11.579,9.52 11.269,8.15 C10.999,6.96 9.939,6.53 9.119,6.53 C8.299,6.53 7.249,6.96 6.969,8.15 Z"/>
  <path fill="#292D32" d="M9.15,9.49 C8.6,9.49 8.15,9.04 8.15,8.49 C8.15,7.94 8.59,7.49 9.15,7.49 L9.16,7.49 C9.71,7.49 10.16,7.94 10.16,8.49 C10.16,9.04 9.7,9.49 9.15,9.49 Z"/>
</svg>

