<svg xmlns="http://www.w3.org/2000/svg" width="24" height="24" viewBox="0 0 24 24">
  <defs/>
  <path fill="#292D32" opacity="0.4" d="M19.88,20.94 C18.93,21.64 17.68,22 16.19,22 L7.81,22 C7.57,22 7.33,21.99 7.1,21.96 L14,15.06 L19.88,20.94 Z"/>
  <path fill="#292D32" opacity="0.4" d="M22,7.81 L22,16.19 C22,17.68 21.641,18.93 20.941,19.88 L15.06,14 L21.96,7.1 C21.991,7.33 22,7.57 22,7.81 Z"/>
  <path fill="#292D32" opacity="0.4" d="M15.06,14 L20.94,19.88 C20.65,20.3 20.3,20.65 19.88,20.94 L14,15.06 L7.1,21.96 C6.46,21.92 5.88,21.79 5.35,21.59 C3.21,20.81 2,18.91 2,16.19 L2,7.81 C2,4.17 4.17,2 7.81,2 L16.19,2 C18.91,2 20.81,3.21 21.59,5.35 C21.79,5.88 21.92,6.46 21.96,7.1 L15.06,14 Z"/>
  <path fill="#292D32" d="M15.06,14 L20.94,19.88 C20.65,20.3 20.3,20.65 19.88,20.94 L14,15.06 L7.1,21.96 C6.46,21.92 5.88,21.79 5.35,21.59 L5.74,21.2 L21.59,5.35 C21.79,5.88 21.92,6.46 21.96,7.1 L15.06,14 Z"/>
  <path fill="#292D32" d="M12.241,7.93 C11.861,6.28 10.401,5.54 9.121,5.53 C7.841,5.53 6.381,6.27 6.001,7.92 C5.581,9.75 6.701,11.28 7.711,12.24 C8.111,12.62 8.611,12.8 9.121,12.8 C9.631,12.8 10.131,12.61 10.531,12.24 C11.541,11.28 12.661,9.75 12.241,7.93 Z M9.151,9.49 C8.601,9.49 8.151,9.04 8.151,8.49 C8.151,7.94 8.591,7.49 9.151,7.49 L9.161,7.49 C9.711,7.49 10.161,7.94 10.161,8.49 C10.161,9.04 9.701,9.49 9.151,9.49 Z"/>
</svg>

