<svg xmlns="http://www.w3.org/2000/svg" width="24" height="24" viewBox="0 0 24 24">
  <defs/>
  <path fill="#292D32" d="M1.539,7.78 Q1.539,6.192 2.926,5.399 L7.258,2.918 Q8.526,2.197 9.854,2.849 L15.11,5.472 Q15.7,5.773 16.288,5.438 L18.636,4.099 Q20.242,3.179 21.496,3.906 Q22.749,4.634 22.749,6.49 L22.749,16.22 Q22.749,17.804 21.362,18.611 L17.03,21.092 Q15.762,21.813 14.433,21.161 L9.179,18.528 Q8.588,18.227 8.001,18.562 L5.652,19.901 Q4.046,20.821 2.792,20.094 Q1.539,19.366 1.539,17.51 Z M3.039,7.78 L3.039,17.51 Q3.039,18.502 3.546,18.796 Q4.051,19.09 4.906,18.599 L7.258,17.258 Q8.549,16.524 9.86,17.192 L15.105,19.819 Q15.711,20.117 16.288,19.788 L20.616,17.309 Q21.249,16.941 21.249,16.22 L21.249,6.49 Q21.249,5.498 20.742,5.204 Q20.238,4.91 19.382,5.401 L17.031,6.742 Q15.739,7.476 14.429,6.808 L9.184,4.191 Q8.577,3.893 8,4.222 L3.672,6.701 Q3.039,7.062 3.039,7.78 Z"/>
  <path fill="#292D32" opacity="0.4" d="M9.311,4 L9.311,17 Q9.311,17.311 9.091,17.53 Q8.871,17.75 8.561,17.75 Q8.25,17.75 8.03,17.53 Q7.811,17.311 7.811,17 L7.811,4 Q7.811,3.689 8.03,3.47 Q8.25,3.25 8.561,3.25 Q8.871,3.25 9.091,3.47 Q9.311,3.689 9.311,4 Z"/>
  <path fill="#292D32" opacity="0.4" d="M16.48,6.62 L16.48,20 Q16.48,20.311 16.261,20.53 Q16.041,20.75 15.73,20.75 Q15.42,20.75 15.2,20.53 Q14.981,20.311 14.981,20 L14.981,6.62 Q14.981,6.309 15.2,6.09 Q15.42,5.87 15.73,5.87 Q16.041,5.87 16.261,6.09 Q16.48,6.309 16.48,6.62 Z"/>
</svg>

