<svg xmlns="http://www.w3.org/2000/svg" width="24" height="24" viewBox="0 0 24 24">
  <defs/>
  <path fill="#292D32" d="M9.148,7.488 C8.588,7.488 8.148,7.938 8.148,8.488 C8.148,9.038 8.598,9.488 9.148,9.488 C9.698,9.488 10.148,9.038 10.148,8.488 C10.148,7.938 9.698,7.488 9.148,7.488 Z"/>
  <path fill="#292D32" d="M21.46,5.04 C20.62,3.09 18.77,2 16.19,2 L7.81,2 C4.6,2 2,4.6 2,7.81 L2,16.19 C2,18.77 3.09,20.62 5.04,21.46 C5.23,21.54 5.45,21.49 5.59,21.35 L21.35,5.59 C21.5,5.44 21.55,5.22 21.46,5.04 Z M10.53,12.24 C10.14,12.62 9.63,12.8 9.12,12.8 C8.61,12.8 8.1,12.61 7.71,12.24 C6.69,11.28 5.57,9.75 6,7.93 C6.38,6.28 7.84,5.54 9.12,5.54 C10.4,5.54 11.86,6.28 12.24,7.94 C12.66,9.75 11.54,11.28 10.53,12.24 Z"/>
  <path fill="#292D32" d="M19.469,20.529 C19.689,20.75 19.659,21.11 19.389,21.259 C18.509,21.75 17.439,22 16.189,22 L7.809,22 C7.519,22 7.399,21.66 7.599,21.459 L13.639,15.419 C13.839,15.22 14.149,15.22 14.349,15.419 L19.469,20.529 Z"/>
  <path fill="#292D32" d="M22.002,7.809 L22.002,16.189 C22.002,17.439 21.752,18.519 21.262,19.389 C21.112,19.659 20.752,19.679 20.532,19.469 L15.412,14.349 C15.212,14.149 15.212,13.839 15.412,13.639 L21.452,7.599 C21.662,7.399 22.002,7.519 22.002,7.809 Z"/>
</svg>

