<svg xmlns="http://www.w3.org/2000/svg" width="24" height="24" viewBox="0 0 24 24">
  <defs/>
  <path fill="#292D32" d="M1.54,7.78 Q1.54,6.192 2.927,5.399 L7.259,2.918 Q8.527,2.197 9.855,2.849 L15.11,5.472 Q15.701,5.773 16.288,5.438 L18.637,4.099 Q20.243,3.179 21.497,3.906 Q22.75,4.634 22.75,6.49 L22.75,16.22 Q22.75,17.804 21.363,18.611 L17.031,21.092 Q15.763,21.813 14.434,21.161 L9.18,18.528 Q8.589,18.227 8.001,18.562 L5.653,19.901 Q4.047,20.821 2.793,20.094 Q1.54,19.366 1.54,17.51 Z M3.04,7.78 L3.04,17.51 Q3.04,18.502 3.547,18.796 Q4.052,19.09 4.907,18.599 L7.258,17.258 Q8.55,16.524 9.86,17.192 L15.106,19.819 Q15.712,20.117 16.289,19.788 L20.617,17.309 Q21.25,16.941 21.25,16.22 L21.25,6.49 Q21.25,5.498 20.743,5.204 Q20.238,4.91 19.383,5.401 L17.032,6.742 Q15.74,7.476 14.43,6.808 L9.185,4.191 Q8.578,3.893 8.001,4.222 L3.673,6.701 Q3.04,7.062 3.04,7.78 Z"/>
  <path fill="#292D32" d="M9.31,4 L9.31,17 Q9.31,17.311 9.09,17.53 Q8.871,17.75 8.56,17.75 Q8.249,17.75 8.03,17.53 Q7.81,17.311 7.81,17 L7.81,4 Q7.81,3.689 8.03,3.47 Q8.249,3.25 8.56,3.25 Q8.871,3.25 9.09,3.47 Q9.31,3.689 9.31,4 Z"/>
  <path fill="#292D32" d="M16.48,6.62 L16.48,20 Q16.48,20.311 16.26,20.53 Q16.041,20.75 15.73,20.75 Q15.419,20.75 15.2,20.53 Q14.98,20.311 14.98,20 L14.98,6.62 Q14.98,6.309 15.2,6.09 Q15.419,5.87 15.73,5.87 Q16.041,5.87 16.26,6.09 Q16.48,6.309 16.48,6.62 Z"/>
</svg>

