<svg xmlns="http://www.w3.org/2000/svg" width="24" height="24" viewBox="0 0 24 24">
  <defs/>
  <path fill="#292D32" d="M22.719,12 Q22.719,16.801 19.147,19.971 Q16.123,22.72 11.999,22.72 Q7.564,22.72 4.421,19.578 Q1.279,16.435 1.279,12 Q1.279,7.564 4.421,4.422 Q7.564,1.28 11.999,1.28 Q16.123,1.28 19.154,4.035 Q22.719,7.198 22.719,12 Z M21.219,12 Q21.219,7.873 18.145,5.145 Q15.543,2.78 11.999,2.78 Q8.185,2.78 5.482,5.483 Q2.779,8.185 2.779,12 Q2.779,15.814 5.482,18.517 Q8.185,21.22 11.999,21.22 Q15.543,21.22 18.152,18.849 Q21.219,16.127 21.219,12 Z"/>
  <path fill="#292D32" opacity="0.4" d="M12.719,16.399 Q12.7,18.006 11.554,18.634 Q10.554,19.182 9.291,18.677 Q4.779,16.868 4.779,12 Q4.779,7.141 9.288,5.315 Q10.553,4.809 11.555,5.361 Q12.7,5.992 12.719,7.591 L12.719,16.39 Z M11.219,7.609 Q11.211,6.884 10.831,6.675 Q10.451,6.465 9.851,6.705 Q6.279,8.152 6.279,12 Q6.279,15.853 9.848,17.284 Q10.454,17.526 10.833,17.319 Q11.209,17.112 11.219,16.385 L11.219,7.609 Z"/>
</svg>

