<svg xmlns="http://www.w3.org/2000/svg" width="24" height="24" viewBox="0 0 24 24">
  <defs/>
  <path fill="#292D32" d="M12.719,11.86 L12.719,16.39 Q12.7,18.006 11.554,18.634 Q10.554,19.182 9.291,18.676 Q4.779,16.868 4.779,12 Q4.779,7.141 9.288,5.315 Q10.553,4.809 11.555,5.361 Q12.7,5.991 12.719,7.591 Q12.723,7.901 12.506,8.124 Q12.289,8.346 11.978,8.35 Q11.668,8.354 11.445,8.137 Q11.223,7.92 11.219,7.609 Q11.211,6.883 10.831,6.674 Q10.451,6.465 9.851,6.705 Q6.279,8.152 6.279,12 Q6.279,15.853 9.848,17.284 Q10.454,17.526 10.833,17.319 Q11.211,17.111 11.219,16.39 L11.219,11.86 Q11.219,11.549 11.439,11.33 Q11.659,11.11 11.969,11.11 Q12.28,11.11 12.5,11.33 Q12.719,11.549 12.719,11.86 Z"/>
  <path fill="#292D32" d="M4.6,6.449 Q2.75,8.922 2.75,12 Q2.75,15.829 5.46,18.54 Q8.171,21.25 12,21.25 Q15.829,21.25 18.54,18.54 Q21.25,15.829 21.25,12 Q21.25,8.171 18.54,5.46 Q15.829,2.75 12,2.75 Q10.031,2.75 8.276,3.535 Q7.993,3.661 7.702,3.551 Q7.412,3.44 7.285,3.156 Q7.159,2.873 7.269,2.582 Q7.38,2.292 7.664,2.165 Q9.711,1.25 12,1.25 Q16.451,1.25 19.6,4.4 Q22.75,7.549 22.75,12 Q22.75,16.451 19.6,19.6 Q16.451,22.75 12,22.75 Q7.549,22.75 4.4,19.6 Q1.25,16.451 1.25,12 Q1.25,8.422 3.4,5.551 Q3.586,5.302 3.893,5.258 Q4.201,5.213 4.449,5.4 Q4.698,5.586 4.742,5.893 Q4.787,6.201 4.6,6.449 Z"/>
</svg>

