<svg xmlns="http://www.w3.org/2000/svg" width="24" height="24" viewBox="0 0 24 24">
  <defs/>
  <path fill="#292D32" opacity="0.4" d="M22,12 C22,17.04 18.26,21.21 13.41,21.9 C12.95,21.97 12.48,22 12,22 C9.24,22 6.74,20.88 4.93,19.07 C3.12,17.26 2,14.76 2,12 C2,6.48 6.48,2 12,2 C14.76,2 17.26,3.12 19.07,4.93 C20.88,6.74 22,9.24 22,12 Z"/>
  <path fill="#292D32" d="M14.83,10.23 L12.35,12.71 L18.88,19.24 C18.52,19.59 18.13,19.91 17.72,20.2 L11.29,13.77 L8.82,16.24 L13.94,21.37 C14.05,21.48 14.12,21.62 14.15,21.76 C14.15,21.76 14.15,21.76 14.15,21.77 C13.91,21.82 13.66,21.87 13.41,21.9 C13.09,21.95 12.77,21.98 12.44,21.99 L7.76,17.3 L5.48,19.58 C5.29,19.42 5.11,19.25 4.93,19.07 C4.75,18.89 4.58,18.71 4.42,18.52 L18.52,4.42 C18.71,4.58 18.89,4.75 19.07,4.93 C19.25,5.11 19.42,5.29 19.58,5.48 L15.89,9.17 L21.58,14.86 C21.42,15.39 21.22,15.89 20.98,16.38 L14.83,10.23 Z"/>
</svg>

