<svg xmlns="http://www.w3.org/2000/svg" width="24" height="24" viewBox="0 0 24 24">
  <defs/>
  <path fill="#292D32" d="M2.75,12 Q2.75,15.449 4.949,17.99 L17.99,4.949 Q15.449,2.75 12,2.75 Q6.263,2.75 3.702,7.904 Q3.563,8.182 3.269,8.281 Q2.974,8.38 2.696,8.242 Q2.418,8.103 2.319,7.809 Q2.22,7.514 2.358,7.236 Q5.333,1.25 12,1.25 Q16.451,1.25 19.6,4.4 Q19.82,4.619 19.82,4.93 Q19.82,5.241 19.6,5.46 L5.46,19.6 Q5.241,19.82 4.93,19.82 Q4.619,19.82 4.4,19.6 Q1.25,16.451 1.25,12 Q1.25,11.689 1.47,11.47 Q1.689,11.25 2,11.25 Q2.311,11.25 2.53,11.47 Q2.75,11.689 2.75,12 Z"/>
  <path fill="#292D32" d="M22.75,12 Q22.75,16.451 19.6,19.6 Q16.45,22.75 12,22.75 Q7.549,22.75 4.399,19.6 Q4.18,19.381 4.18,19.07 Q4.18,18.759 4.399,18.54 L18.539,4.4 Q18.759,4.18 19.07,4.18 Q19.38,4.18 19.6,4.4 Q22.75,7.549 22.75,12 Z M21.25,12 Q21.25,8.551 19.051,6.009 L6.009,19.051 Q8.551,21.25 12,21.25 Q15.829,21.25 18.539,18.54 Q21.25,15.829 21.25,12 Z"/>
  <path fill="#292D32" d="M8.291,15.71 L13.941,21.37 Q14.16,21.59 14.16,21.901 Q14.159,22.211 13.94,22.431 Q13.72,22.65 13.409,22.65 Q13.098,22.65 12.879,22.43 L7.229,16.77 Q7.009,16.55 7.01,16.239 Q7.01,15.929 7.23,15.709 Q7.45,15.49 7.76,15.49 Q8.071,15.49 8.291,15.71 Z"/>
  <path fill="#292D32" d="M11.819,12.179 L18.399,18.749 Q18.619,18.969 18.619,19.279 Q18.619,19.59 18.4,19.81 Q18.18,20.03 17.87,20.03 Q17.559,20.03 17.339,19.811 L10.759,13.241 Q10.539,13.021 10.539,12.711 Q10.539,12.4 10.758,12.18 Q10.978,11.96 11.289,11.96 Q11.599,11.96 11.819,12.179 Z"/>
  <path fill="#292D32" d="M15.361,8.64 L21.651,14.94 Q21.87,15.16 21.87,15.47 Q21.87,15.781 21.65,16.001 Q21.43,16.22 21.12,16.22 Q20.809,16.22 20.589,16 L14.299,9.7 Q14.08,9.48 14.08,9.169 Q14.08,8.859 14.3,8.639 Q14.52,8.42 14.831,8.42 Q15.141,8.42 15.361,8.64 Z"/>
</svg>

