<svg xmlns="http://www.w3.org/2000/svg" width="24" height="24" viewBox="0 0 24 24">
  <defs/>
  <path fill="#292D32" d="M4.4,19.6 Q1.25,16.451 1.25,12 Q1.25,7.549 4.4,4.4 Q7.549,1.25 12,1.25 Q16.451,1.25 19.6,4.4 Q19.82,4.619 19.82,4.93 Q19.82,5.241 19.6,5.46 Q19.381,5.68 19.07,5.68 Q18.759,5.68 18.54,5.46 Q15.829,2.75 12,2.75 Q8.171,2.75 5.46,5.46 Q2.75,8.171 2.75,12 Q2.75,15.829 5.46,18.54 Q5.68,18.759 5.68,19.07 Q5.68,19.381 5.46,19.6 Q5.241,19.82 4.93,19.82 Q4.619,19.82 4.4,19.6 Z"/>
  <path fill="#292D32" d="M19.6,4.4 Q22.75,7.55 22.75,12 Q22.75,16.451 19.6,19.601 Q16.45,22.75 12,22.75 Q7.549,22.75 4.399,19.601 Q4.18,19.381 4.18,19.07 Q4.18,18.76 4.399,18.54 Q4.619,18.32 4.93,18.32 Q5.24,18.32 5.46,18.54 Q8.17,21.25 12,21.25 Q15.829,21.25 18.539,18.54 Q21.25,15.83 21.25,12 Q21.25,8.171 18.539,5.461 Q18.32,5.241 18.32,4.93 Q18.32,4.62 18.539,4.4 Q18.759,4.18 19.07,4.18 Q19.38,4.18 19.6,4.4 Z"/>
  <g opacity="0.4">
    <path fill="#292D32" d="M19.6,5.461 L5.46,19.601 Q5.24,19.82 4.93,19.82 Q4.619,19.82 4.399,19.601 Q4.18,19.381 4.18,19.07 Q4.18,18.76 4.399,18.54 L18.539,4.4 Q18.759,4.18 19.07,4.18 Q19.38,4.18 19.6,4.4 Q19.82,4.62 19.82,4.93 Q19.82,5.241 19.6,5.461 Z"/>
    <path fill="#292D32" d="M8.291,15.71 L13.941,21.37 Q14.16,21.59 14.16,21.901 Q14.159,22.212 13.94,22.431 Q13.72,22.65 13.409,22.65 Q13.098,22.65 12.879,22.43 L7.229,16.77 Q7.009,16.55 7.01,16.24 Q7.01,15.929 7.23,15.709 Q7.45,15.49 7.76,15.49 Q8.071,15.49 8.291,15.71 Z"/>
    <path fill="#292D32" d="M11.819,12.179 L18.399,18.749 Q18.619,18.969 18.619,19.279 Q18.619,19.59 18.4,19.81 Q18.18,20.03 17.87,20.03 Q17.559,20.03 17.339,19.811 L10.759,13.241 Q10.539,13.021 10.539,12.711 Q10.539,12.4 10.758,12.18 Q10.978,11.96 11.289,11.96 Q11.599,11.96 11.819,12.179 Z"/>
    <path fill="#292D32" d="M15.361,8.64 L21.651,14.94 Q21.87,15.16 21.87,15.47 Q21.87,15.781 21.65,16.001 Q21.43,16.22 21.12,16.22 Q20.809,16.22 20.589,16 L14.299,9.7 Q14.08,9.48 14.08,9.169 Q14.08,8.859 14.3,8.639 Q14.52,8.42 14.831,8.42 Q15.141,8.42 15.361,8.64 Z"/>
  </g>
</svg>

