<svg xmlns="http://www.w3.org/2000/svg" width="24" height="24" viewBox="0 0 24 24">
  <defs/>
  <path fill="#292D32" d="M4.93,19.82 C4.73,19.82 4.54,19.74 4.4,19.6 C2.37,17.57 1.25,14.87 1.25,12 C1.25,6.07 6.07,1.25 12,1.25 C14.87,1.25 17.57,2.37 19.6,4.4 C19.74,4.54 19.82,4.73 19.82,4.93 C19.82,5.13 19.74,5.32 19.6,5.46 L5.46,19.6 C5.32,19.74 5.13,19.82 4.93,19.82 Z M12,2.75 C6.9,2.75 2.75,6.9 2.75,12 C2.75,14.22 3.53,16.32 4.95,17.99 L17.99,4.95 C16.32,3.53 14.22,2.75 12,2.75 Z"/>
  <path fill="#292D32" d="M12,22.75 C9.13,22.75 6.43,21.63 4.4,19.6 C4.26,19.46 4.18,19.27 4.18,19.07 C4.18,18.87 4.26,18.68 4.4,18.54 L18.54,4.4 C18.83,4.11 19.31,4.11 19.6,4.4 C21.63,6.43 22.75,9.13 22.75,12 C22.75,17.93 17.93,22.75 12,22.75 Z M6.01,19.05 C7.68,20.47 9.78,21.25 12,21.25 C17.1,21.25 21.25,17.1 21.25,12 C21.25,9.78 20.47,7.68 19.05,6.01 L6.01,19.05 Z"/>
  <path fill="#292D32" d="M13.409,22.65 C13.22,22.65 13.03,22.58 12.88,22.43 L7.219,16.77 C6.929,16.48 6.929,16 7.219,15.71 C7.509,15.42 7.99,15.42 8.28,15.71 L13.94,21.37 C14.229,21.66 14.229,22.14 13.94,22.43 C13.8,22.58 13.61,22.65 13.409,22.65 Z"/>
  <path fill="#292D32" d="M17.87,20.03 C17.68,20.03 17.491,19.96 17.34,19.81 L10.761,13.23 C10.47,12.94 10.47,12.46 10.761,12.17 C11.05,11.88 11.53,11.88 11.82,12.17 L18.401,18.75 C18.691,19.04 18.691,19.52 18.401,19.81 C18.25,19.96 18.061,20.03 17.87,20.03 Z"/>
  <path fill="#292D32" d="M21.119,16.22 C20.93,16.22 20.74,16.15 20.59,16 L14.3,9.71 C14.009,9.42 14.009,8.94 14.3,8.65 C14.589,8.36 15.069,8.36 15.36,8.65 L21.65,14.94 C21.94,15.23 21.94,15.71 21.65,16 C21.51,16.14 21.32,16.22 21.119,16.22 Z"/>
</svg>

