<svg xmlns="http://www.w3.org/2000/svg" width="24" height="24" viewBox="0 0 24 24">
  <defs/>
  <path fill="#292D32" d="M19.6,5.46 L5.46,19.6 Q5.241,19.82 4.93,19.82 Q4.619,19.82 4.4,19.6 Q1.25,16.451 1.25,12 Q1.25,7.549 4.4,4.4 Q7.549,1.25 12,1.25 Q16.451,1.25 19.6,4.4 Q19.82,4.619 19.82,4.93 Q19.82,5.241 19.6,5.46 Z M17.99,4.949 Q15.449,2.75 12,2.75 Q8.171,2.75 5.46,5.46 Q2.75,8.171 2.75,12 Q2.75,15.449 4.949,17.99 L17.99,4.949 Z"/>
  <path fill="#292D32" d="M22.75,12 Q22.75,16.451 19.6,19.6 Q16.451,22.75 12,22.75 Q7.549,22.75 4.4,19.6 Q4.18,19.381 4.18,19.07 Q4.18,18.759 4.4,18.54 L18.54,4.4 Q18.759,4.18 19.07,4.18 Q19.381,4.18 19.6,4.4 Q22.75,7.549 22.75,12 Z M21.25,12 Q21.25,8.551 19.051,6.009 L6.01,19.051 Q8.551,21.25 12,21.25 Q15.829,21.25 18.54,18.54 Q21.25,15.829 21.25,12 Z"/>
  <path fill="#292D32" d="M8.291,15.71 L13.941,21.37 Q14.16,21.59 14.16,21.901 Q14.16,22.211 13.94,22.431 Q13.72,22.65 13.409,22.65 Q13.099,22.65 12.879,22.43 L7.229,16.77 Q7.01,16.55 7.01,16.239 Q7.01,15.929 7.23,15.709 Q7.45,15.49 7.761,15.49 Q8.071,15.49 8.291,15.71 Z"/>
  <path fill="#292D32" d="M11.82,12.179 L18.4,18.749 Q18.62,18.969 18.62,19.279 Q18.62,19.59 18.401,19.81 Q18.181,20.03 17.871,20.03 Q17.56,20.03 17.34,19.811 L10.76,13.241 Q10.54,13.021 10.54,12.711 Q10.54,12.4 10.759,12.18 Q10.979,11.96 11.289,11.96 Q11.6,11.96 11.82,12.179 Z"/>
  <path fill="#292D32" d="M15.361,8.64 L21.651,14.94 Q21.87,15.16 21.87,15.47 Q21.87,15.781 21.65,16.001 Q21.43,16.22 21.119,16.22 Q20.809,16.22 20.589,16 L14.299,9.7 Q14.08,9.48 14.08,9.169 Q14.08,8.859 14.3,8.639 Q14.52,8.42 14.831,8.42 Q15.141,8.42 15.361,8.64 Z"/>
</svg>

