<svg xmlns="http://www.w3.org/2000/svg" width="24" height="24" viewBox="0 0 24 24">
  <defs/>
  <path fill="#292D32" opacity="0.4" d="M21.969,12 C21.969,14.94 20.689,17.6 18.649,19.41 C16.889,21.01 14.559,21.97 11.999,21.97 C6.499,21.97 2.029,17.5 2.029,12 C2.029,6.5 6.499,2.03 11.999,2.03 C14.559,2.03 16.889,2.99 18.649,4.59 C20.689,6.4 21.969,9.06 21.969,12 Z"/>
  <path fill="#292D32" d="M11.969,16.39 C11.949,18.04 10.719,18.44 9.569,17.98 C7.199,17.03 5.529,14.71 5.529,12 C5.529,9.29 7.199,6.97 9.569,6.01 C10.719,5.55 11.949,5.96 11.969,7.6 L11.969,16.39 Z"/>
</svg>

