<svg xmlns="http://www.w3.org/2000/svg" width="24" height="24" viewBox="0 0 24 24">
  <defs/>
  <path fill="#292D32" d="M12,22.75 C6.07,22.75 1.25,17.93 1.25,12 C1.25,6.07 6.07,1.25 12,1.25 C17.93,1.25 22.75,6.07 22.75,12 C22.75,17.93 17.93,22.75 12,22.75 Z M12,2.75 C6.9,2.75 2.75,6.9 2.75,12 C2.75,17.1 6.9,21.25 12,21.25 C17.1,21.25 21.25,17.1 21.25,12 C21.25,6.9 17.1,2.75 12,2.75 Z"/>
  <path fill="#292D32" d="M12,17.75 C11.59,17.75 11.25,17.41 11.25,17 L11.25,7 C11.25,6.59 11.59,6.25 12,6.25 C15.17,6.25 17.75,8.83 17.75,12 C17.75,15.17 15.17,17.75 12,17.75 Z M12.75,7.82 L12.75,16.19 C14.74,15.84 16.25,14.09 16.25,12.01 C16.25,9.93 14.74,8.17 12.75,7.82 Z"/>
  <path fill="#292D32" d="M12,17.75 C8.83,17.75 6.25,15.17 6.25,12 C6.25,8.83 8.83,6.25 12,6.25 C12.41,6.25 12.75,6.59 12.75,7 L12.75,17 C12.75,17.41 12.41,17.75 12,17.75 Z M11.25,7.82 C9.26,8.17 7.75,9.92 7.75,12 C7.75,14.08 9.26,15.83 11.25,16.18 L11.25,7.82 Z"/>
  <path fill="#292D32" d="M12,22.75 C11.59,22.75 11.25,22.41 11.25,22 L11.25,17 C11.25,16.59 11.59,16.25 12,16.25 C12.41,16.25 12.75,16.59 12.75,17 L12.75,22 C12.75,22.41 12.41,22.75 12,22.75 Z"/>
  <path fill="#292D32" d="M12,7.75 C11.59,7.75 11.25,7.41 11.25,7 L11.25,2 C11.25,1.59 11.59,1.25 12,1.25 C12.41,1.25 12.75,1.59 12.75,2 L12.75,7 C12.75,7.41 12.41,7.75 12,7.75 Z"/>
</svg>

