<svg xmlns="http://www.w3.org/2000/svg" width="24" height="24" viewBox="0 0 24 24">
  <defs/>
  <path fill="#292D32" d="M11.999,22.72 C6.089,22.72 1.279,17.91 1.279,12 C1.279,6.09 6.089,1.28 11.999,1.28 C14.649,1.28 17.189,2.26 19.149,4.03 C21.419,6.04 22.719,8.95 22.719,12 C22.719,15.05 21.419,17.96 19.139,19.98 C17.189,21.75 14.649,22.72 11.999,22.72 Z M11.999,2.78 C6.909,2.78 2.779,6.92 2.779,12 C2.779,17.08 6.919,21.22 11.999,21.22 C14.279,21.22 16.459,20.38 18.149,18.85 C20.109,17.11 21.229,14.62 21.229,11.99 C21.229,9.36 20.109,6.87 18.159,5.14 C16.459,3.62 14.279,2.78 11.999,2.78 Z"/>
  <path fill="#292D32" d="M10.439,18.91 C10.069,18.91 9.679,18.83 9.299,18.68 C6.559,17.58 4.779,14.95 4.779,12 C4.779,9.05 6.549,6.42 9.299,5.32 C10.169,4.97 11.049,5.02 11.709,5.46 C12.349,5.89 12.709,6.65 12.729,7.6 L12.729,16.39 L12.729,16.4 C12.719,17.35 12.359,18.12 11.709,18.54 C11.339,18.79 10.899,18.91 10.439,18.91 Z M10.439,6.59 C10.259,6.59 10.059,6.63 9.859,6.71 C7.679,7.58 6.279,9.66 6.279,12 C6.279,14.34 7.679,16.42 9.859,17.29 C10.259,17.45 10.639,17.45 10.879,17.3 C11.159,17.11 11.219,16.7 11.229,16.39 L11.229,7.61 C11.229,7.31 11.159,6.89 10.879,6.7 C10.759,6.63 10.609,6.59 10.439,6.59 Z"/>
</svg>

