<svg xmlns="http://www.w3.org/2000/svg" width="24" height="24" viewBox="0 0 24 24">
  <defs/>
  <path fill="#292D32" d="M17.75,12 Q17.75,14.381 16.065,16.065 Q14.381,17.75 12,17.75 Q11.689,17.75 11.47,17.53 Q11.25,17.311 11.25,17 L11.25,7 Q11.25,6.689 11.47,6.47 Q11.689,6.25 12,6.25 Q14.269,6.25 15.932,7.802 Q16.159,8.014 16.17,8.324 Q16.18,8.635 15.968,8.862 Q15.756,9.089 15.446,9.1 Q15.135,9.11 14.908,8.898 Q13.962,8.015 12.75,7.811 L12.75,16.19 Q14.034,15.976 15.005,15.005 Q16.25,13.759 16.25,12 Q16.25,11.689 16.47,11.47 Q16.689,11.25 17,11.25 Q17.311,11.25 17.53,11.47 Q17.75,11.689 17.75,12 Z"/>
  <path fill="#292D32" d="M12.75,7 L12.75,17 Q12.75,17.311 12.53,17.53 Q12.311,17.75 12,17.75 Q9.619,17.75 7.935,16.065 Q6.25,14.381 6.25,12 Q6.25,9.619 7.935,7.935 Q9.619,6.25 12,6.25 Q12.311,6.25 12.53,6.47 Q12.75,6.689 12.75,7 Z M11.25,7.81 Q9.966,8.024 8.995,8.995 Q7.75,10.241 7.75,12 Q7.75,13.759 8.995,15.005 Q9.966,15.976 11.25,16.19 L11.25,7.81 Z"/>
  <path fill="#292D32" d="M11.25,22 L11.25,17 Q11.25,16.689 11.47,16.47 Q11.689,16.25 12,16.25 Q12.311,16.25 12.53,16.47 Q12.75,16.689 12.75,17 L12.75,22 Q12.75,22.311 12.53,22.53 Q12.311,22.75 12,22.75 Q11.689,22.75 11.47,22.53 Q11.25,22.311 11.25,22 Z"/>
  <path fill="#292D32" d="M11.25,7 L11.25,2 Q11.25,1.689 11.47,1.47 Q11.689,1.25 12,1.25 Q12.311,1.25 12.53,1.47 Q12.75,1.689 12.75,2 L12.75,7 Q12.75,7.311 12.53,7.53 Q12.311,7.75 12,7.75 Q11.689,7.75 11.47,7.53 Q11.25,7.311 11.25,7 Z"/>
  <path fill="#292D32" d="M4.6,6.449 Q2.75,8.922 2.75,12 Q2.75,15.829 5.46,18.54 Q8.171,21.25 12,21.25 Q15.829,21.25 18.54,18.54 Q21.25,15.829 21.25,12 Q21.25,8.171 18.54,5.46 Q15.829,2.75 12,2.75 Q10.031,2.75 8.276,3.535 Q7.993,3.661 7.702,3.551 Q7.412,3.44 7.285,3.156 Q7.159,2.873 7.269,2.582 Q7.38,2.292 7.664,2.165 Q9.711,1.25 12,1.25 Q16.451,1.25 19.6,4.4 Q22.75,7.549 22.75,12 Q22.75,16.451 19.6,19.6 Q16.451,22.75 12,22.75 Q7.549,22.75 4.4,19.6 Q1.25,16.451 1.25,12 Q1.25,8.422 3.4,5.551 Q3.586,5.302 3.893,5.258 Q4.201,5.213 4.449,5.4 Q4.698,5.586 4.742,5.893 Q4.787,6.201 4.6,6.449 Z"/>
</svg>

