<svg xmlns="http://www.w3.org/2000/svg" width="24" height="24" viewBox="0 0 24 24">
  <defs/>
  <path fill="#292D32" d="M16.24,9.52 L20.95,14.23 C21.23,14.51 21.72,14.36 21.8,13.97 C21.93,13.33 22,12.67 22,12 C22,9.71 21.22,7.6 19.93,5.92 C19.75,5.68 19.39,5.67 19.18,5.88 L16.24,8.82 C16.05,9.01 16.05,9.33 16.24,9.52 Z"/>
  <path fill="#292D32" d="M14.48,10.58 L12.71,12.35 C12.511,12.55 12.511,12.86 12.71,13.06 L18.53,18.88 C18.73,19.08 19.05,19.08 19.241,18.88 C19.86,18.23 20.39,17.5 20.82,16.71 C20.921,16.52 20.881,16.27 20.73,16.12 L15.191,10.58 C14.991,10.39 14.671,10.39 14.48,10.58 Z"/>
  <path fill="#292D32" d="M10.939,14.12 L9.179,15.88 C8.979,16.08 8.979,16.39 9.179,16.59 L14.099,21.52 C14.229,21.65 14.419,21.7 14.589,21.65 C15.519,21.4 16.399,21.02 17.199,20.52 C17.469,20.35 17.509,19.97 17.279,19.74 L11.649,14.11 C11.449,13.93 11.129,13.93 10.939,14.12 Z"/>
  <path fill="#292D32" d="M18.08,4.07 C16.1,2.54 13.53,1.74 10.77,2.07 C6.26,2.61 2.61,6.27 2.07,10.77 C1.74,13.53 2.54,16.09 4.07,18.08 C4.25,18.32 4.61,18.33 4.82,18.12 L18.12,4.82 C18.33,4.61 18.32,4.25 18.08,4.07 Z"/>
  <path fill="#292D32" d="M7.4,17.669 L5.88,19.189 C5.67,19.399 5.68,19.759 5.92,19.939 C7.43,21.11 9.28,21.849 11.31,21.989 C11.74,22.02 11.95,21.509 11.64,21.2 L8.11,17.669 C7.92,17.47 7.6,17.47 7.4,17.669 Z"/>
</svg>

