<svg xmlns="http://www.w3.org/2000/svg" width="24" height="24" viewBox="0 0 24 24">
  <defs/>
  <path fill="#292D32" d="M18.649,4.591 C16.889,2.991 14.559,2.031 11.999,2.031 C6.499,2.031 2.029,6.501 2.029,12.001 C2.029,17.501 6.499,21.971 11.999,21.971 C14.559,21.971 16.889,21.011 18.649,19.411 C20.689,17.601 21.969,14.941 21.969,12.001 C21.969,9.061 20.689,6.401 18.649,4.591 Z M11.969,16.391 C11.949,18.041 10.719,18.441 9.569,17.981 C7.199,17.031 5.529,14.711 5.529,12.001 C5.529,9.291 7.199,6.971 9.569,6.011 C10.719,5.551 11.949,5.961 11.969,7.601 L11.969,16.391 Z"/>
</svg>

