<svg xmlns="http://www.w3.org/2000/svg" width="24" height="24" viewBox="0 0 24 24">
  <defs/>
  <path fill="#292D32" d="M14.42,4.89 L21.7,4.89 Q22.011,4.89 22.23,5.109 Q22.45,5.329 22.45,5.64 Q22.45,5.95 22.23,6.17 Q22.011,6.39 21.7,6.39 L14.42,6.39 Q14.109,6.39 13.89,6.17 Q13.67,5.95 13.67,5.64 Q13.67,5.329 13.89,5.109 Q14.109,4.89 14.42,4.89 Z"/>
  <path fill="#292D32" opacity="0.4" d="M2.299,4.89 L9.579,4.89 Q9.889,4.89 10.109,5.11 Q10.329,5.329 10.329,5.64 Q10.329,5.951 10.109,6.17 Q9.889,6.39 9.579,6.39 L2.299,6.39 Q1.988,6.39 1.768,6.17 Q1.549,5.951 1.549,5.64 Q1.549,5.329 1.768,5.11 Q1.988,4.89 2.299,4.89 Z"/>
  <path fill="#292D32" opacity="0.4" d="M14.42,14.58 L21.7,14.58 Q22.011,14.58 22.23,14.8 Q22.45,15.019 22.45,15.33 Q22.45,15.641 22.23,15.86 Q22.011,16.08 21.7,16.08 L14.42,16.08 Q14.109,16.08 13.89,15.86 Q13.67,15.641 13.67,15.33 Q13.67,15.019 13.89,14.8 Q14.109,14.58 14.42,14.58 Z"/>
  <path fill="#292D32" opacity="0.4" d="M14.42,20.64 L21.7,20.64 Q22.011,20.64 22.23,20.859 Q22.45,21.079 22.45,21.39 Q22.45,21.7 22.23,21.92 Q22.011,22.14 21.7,22.14 L14.42,22.14 Q14.109,22.14 13.89,21.92 Q13.67,21.7 13.67,21.39 Q13.67,21.079 13.89,20.859 Q14.109,20.64 14.42,20.64 Z"/>
  <path fill="#292D32" d="M17.34,9.27 L17.34,2 Q17.34,1.689 17.559,1.47 Q17.779,1.25 18.09,1.25 Q18.4,1.25 18.62,1.47 Q18.84,1.689 18.84,2 L18.84,9.27 Q18.84,9.581 18.62,9.8 Q18.4,10.02 18.09,10.02 Q17.779,10.02 17.559,9.8 Q17.34,9.581 17.34,9.27 Z"/>
  <path fill="#292D32" d="M1.769,21.469 L9.049,14.199 Q9.269,13.98 9.579,13.98 Q9.89,13.98 10.11,14.2 Q10.329,14.42 10.329,14.731 Q10.329,15.041 10.109,15.261 L2.829,22.531 Q2.609,22.75 2.298,22.75 Q1.988,22.75 1.768,22.53 Q1.549,22.31 1.549,21.999 Q1.549,21.689 1.769,21.469 Z"/>
  <path fill="#292D32" d="M9.049,22.531 L1.769,15.261 Q1.549,15.041 1.549,14.731 Q1.549,14.42 1.768,14.2 Q1.988,13.98 2.298,13.98 Q2.609,13.98 2.829,14.199 L10.109,21.469 Q10.329,21.689 10.329,21.999 Q10.329,22.31 10.11,22.53 Q9.89,22.75 9.579,22.75 Q9.269,22.75 9.049,22.531 Z"/>
</svg>

