<svg xmlns="http://www.w3.org/2000/svg" width="24" height="24" viewBox="0 0 24 24">
  <defs/>
  <path fill="#292D32" d="M2.301,4.89 L9.581,4.89 Q9.891,4.89 10.111,5.11 Q10.331,5.329 10.331,5.64 Q10.331,5.951 10.111,6.17 Q9.891,6.39 9.581,6.39 L2.301,6.39 Q1.99,6.39 1.77,6.17 Q1.551,5.951 1.551,5.64 Q1.551,5.329 1.77,5.11 Q1.99,4.89 2.301,4.89 Z"/>
  <path fill="#292D32" d="M14.42,14.58 L21.7,14.58 Q22.011,14.58 22.23,14.8 Q22.45,15.019 22.45,15.33 Q22.45,15.641 22.23,15.86 Q22.011,16.08 21.7,16.08 L14.42,16.08 Q14.109,16.08 13.89,15.86 Q13.67,15.641 13.67,15.33 Q13.67,15.019 13.89,14.8 Q14.109,14.58 14.42,14.58 Z"/>
  <path fill="#292D32" d="M14.42,20.64 L21.7,20.64 Q22.011,20.64 22.23,20.86 Q22.45,21.079 22.45,21.39 Q22.45,21.701 22.23,21.92 Q22.011,22.14 21.7,22.14 L14.42,22.14 Q14.109,22.14 13.89,21.92 Q13.67,21.701 13.67,21.39 Q13.67,21.079 13.89,20.86 Q14.109,20.64 14.42,20.64 Z"/>
  <path fill="#292D32" d="M20.961,4.89 L21.701,4.89 Q22.012,4.89 22.231,5.11 Q22.451,5.329 22.451,5.64 Q22.451,5.951 22.231,6.17 Q22.012,6.39 21.701,6.39 L20.961,6.39 Q20.65,6.39 20.431,6.17 Q20.211,5.951 20.211,5.64 Q20.211,5.329 20.431,5.11 Q20.65,4.89 20.961,4.89 Z"/>
  <path fill="#292D32" d="M14.42,4.89 L17.69,4.89 Q18.001,4.89 18.22,5.11 Q18.44,5.329 18.44,5.64 Q18.44,5.951 18.22,6.17 Q18.001,6.39 17.69,6.39 L14.42,6.39 Q14.109,6.39 13.89,6.17 Q13.67,5.951 13.67,5.64 Q13.67,5.329 13.89,5.11 Q14.109,4.89 14.42,4.89 Z"/>
  <path fill="#292D32" d="M17.34,9.27 L17.34,2 Q17.34,1.689 17.559,1.47 Q17.779,1.25 18.09,1.25 Q18.4,1.25 18.62,1.47 Q18.84,1.689 18.84,2 L18.84,9.27 Q18.84,9.581 18.62,9.8 Q18.4,10.02 18.09,10.02 Q17.779,10.02 17.559,9.8 Q17.34,9.581 17.34,9.27 Z"/>
  <path fill="#292D32" d="M10.109,15.262 L8.679,16.682 Q8.458,16.901 8.148,16.9 Q7.837,16.899 7.618,16.678 Q7.399,16.458 7.4,16.147 Q7.401,15.837 7.622,15.618 L9.052,14.198 Q9.272,13.979 9.583,13.98 Q9.894,13.981 10.113,14.202 Q10.331,14.422 10.33,14.733 Q10.329,15.043 10.109,15.262 Z"/>
  <path fill="#292D32" d="M1.77,21.47 L5.28,17.96 Q5.5,17.74 5.811,17.74 Q6.121,17.74 6.341,17.96 Q6.561,18.179 6.561,18.49 Q6.561,18.801 6.341,19.02 L2.831,22.53 Q2.611,22.75 2.301,22.75 Q1.99,22.75 1.77,22.53 Q1.551,22.311 1.551,22 Q1.551,21.689 1.77,21.47 Z"/>
  <path fill="#292D32" d="M9.051,22.531 L1.771,15.261 Q1.551,15.041 1.551,14.731 Q1.551,14.42 1.77,14.2 Q1.99,13.98 2.3,13.98 Q2.611,13.98 2.831,14.199 L10.111,21.469 Q10.331,21.689 10.331,21.999 Q10.331,22.31 10.111,22.53 Q9.892,22.75 9.581,22.75 Q9.271,22.75 9.051,22.531 Z"/>
</svg>

