<svg xmlns="http://www.w3.org/2000/svg" width="24" height="24" viewBox="0 0 24 24">
  <defs/>
  <path fill="#292D32" d="M21.7,6.39 L14.43,6.39 C14.02,6.39 13.68,6.05 13.68,5.64 C13.68,5.23 14.02,4.89 14.43,4.89 L21.7,4.89 C22.11,4.89 22.45,5.23 22.45,5.64 C22.45,6.05 22.11,6.39 21.7,6.39 Z"/>
  <path fill="#292D32" d="M9.581,6.39 L2.301,6.39 C1.891,6.39 1.551,6.05 1.551,5.64 C1.551,5.23 1.891,4.89 2.301,4.89 L9.571,4.89 C9.981,4.89 10.321,5.23 10.321,5.64 C10.321,6.05 9.991,6.39 9.581,6.39 Z"/>
  <path fill="#292D32" d="M21.7,16.08 L14.43,16.08 C14.02,16.08 13.68,15.74 13.68,15.33 C13.68,14.92 14.02,14.58 14.43,14.58 L21.7,14.58 C22.11,14.58 22.45,14.92 22.45,15.33 C22.45,15.74 22.11,16.08 21.7,16.08 Z"/>
  <path fill="#292D32" d="M21.7,22.14 L14.43,22.14 C14.02,22.14 13.68,21.8 13.68,21.39 C13.68,20.98 14.02,20.64 14.43,20.64 L21.7,20.64 C22.11,20.64 22.45,20.98 22.45,21.39 C22.45,21.8 22.11,22.14 21.7,22.14 Z"/>
  <path fill="#292D32" d="M18.09,10.02 C17.68,10.02 17.34,9.68 17.34,9.27 L17.34,2 C17.34,1.59 17.68,1.25 18.09,1.25 C18.5,1.25 18.84,1.59 18.84,2 L18.84,9.27 C18.84,9.69 18.51,10.02 18.09,10.02 Z"/>
  <path fill="#292D32" d="M2.3,22.75 C2.11,22.75 1.92,22.68 1.77,22.53 C1.48,22.24 1.48,21.76 1.77,21.47 L9.04,14.2 C9.33,13.91 9.81,13.91 10.1,14.2 C10.39,14.49 10.39,14.97 10.1,15.26 L2.83,22.53 C2.69,22.68 2.5,22.75 2.3,22.75 Z"/>
  <path fill="#292D32" d="M9.58,22.75 C9.39,22.75 9.2,22.68 9.05,22.53 L1.78,15.26 C1.49,14.97 1.49,14.49 1.78,14.2 C2.07,13.91 2.55,13.91 2.84,14.2 L10.11,21.47 C10.4,21.76 10.4,22.24 10.11,22.53 C9.96,22.68 9.77,22.75 9.58,22.75 Z"/>
</svg>

