<svg xmlns="http://www.w3.org/2000/svg" width="24" height="24" viewBox="0 0 24 24">
  <defs/>
  <path fill="#292D32" d="M16.19,2 L7.81,2 C4.17,2 2,4.17 2,7.81 L2,16.18 C2,19.83 4.17,22 7.81,22 L16.18,22 C19.82,22 21.99,19.83 21.99,16.19 L21.99,7.81 C22,4.17 19.83,2 16.19,2 Z M11.03,17.66 C11.32,17.95 11.32,18.43 11.03,18.72 C10.88,18.87 10.69,18.94 10.5,18.94 C10.31,18.94 10.12,18.87 9.97,18.72 L8.25,17 L6.53,18.72 C6.38,18.86 6.19,18.94 6,18.94 C5.81,18.94 5.62,18.87 5.47,18.72 C5.18,18.43 5.18,17.95 5.47,17.66 L7.19,15.94 L5.47,14.22 C5.18,13.93 5.18,13.45 5.47,13.16 C5.76,12.87 6.24,12.87 6.53,13.16 L8.25,14.88 L9.97,13.16 C10.26,12.87 10.74,12.87 11.03,13.16 C11.32,13.45 11.32,13.93 11.03,14.22 L9.31,15.94 L11.03,17.66 Z M10.5,8.81 L6,8.81 C5.59,8.81 5.25,8.47 5.25,8.06 C5.25,7.65 5.59,7.31 6,7.31 L10.5,7.31 C10.91,7.31 11.25,7.65 11.25,8.06 C11.25,8.47 10.91,8.81 10.5,8.81 Z M18,18.56 L13.5,18.56 C13.09,18.56 12.75,18.22 12.75,17.81 C12.75,17.4 13.09,17.06 13.5,17.06 L18,17.06 C18.41,17.06 18.75,17.4 18.75,17.81 C18.75,18.22 18.41,18.56 18,18.56 Z M18,14.81 L13.5,14.81 C13.09,14.81 12.75,14.47 12.75,14.06 C12.75,13.65 13.09,13.31 13.5,13.31 L18,13.31 C18.41,13.31 18.75,13.65 18.75,14.06 C18.75,14.47 18.41,14.81 18,14.81 Z M18,8.81 L16.52,8.81 L16.52,10.31 C16.52,10.72 16.18,11.06 15.77,11.06 C15.36,11.06 15.02,10.72 15.02,10.31 L15.02,8.81 L13.5,8.81 C13.09,8.81 12.75,8.47 12.75,8.06 C12.75,7.65 13.09,7.31 13.5,7.31 L15.02,7.31 L15.02,5.81 C15.02,5.4 15.36,5.06 15.77,5.06 C16.18,5.06 16.52,5.4 16.52,5.81 L16.52,7.31 L18,7.31 C18.41,7.31 18.75,7.65 18.75,8.06 C18.75,8.47 18.41,8.81 18,8.81 Z"/>
</svg>

