<svg xmlns="http://www.w3.org/2000/svg" width="24" height="24" viewBox="0 0 24 24">
  <defs/>
  <path fill="#292D32" d="M14.421,4.89 L21.701,4.89 Q22.011,4.89 22.231,5.109 Q22.451,5.329 22.451,5.64 Q22.451,5.95 22.231,6.17 Q22.011,6.39 21.701,6.39 L14.421,6.39 Q14.11,6.39 13.89,6.17 Q13.671,5.95 13.671,5.64 Q13.671,5.329 13.89,5.109 Q14.11,4.89 14.421,4.89 Z"/>
  <path fill="#292D32" d="M2.3,4.89 L9.58,4.89 Q9.89,4.89 10.11,5.11 Q10.33,5.329 10.33,5.64 Q10.33,5.951 10.11,6.17 Q9.89,6.39 9.58,6.39 L2.3,6.39 Q1.989,6.39 1.769,6.17 Q1.55,5.951 1.55,5.64 Q1.55,5.329 1.769,5.11 Q1.989,4.89 2.3,4.89 Z"/>
  <path fill="#292D32" d="M14.421,14.58 L21.701,14.58 Q22.011,14.58 22.231,14.8 Q22.451,15.019 22.451,15.33 Q22.451,15.641 22.231,15.86 Q22.011,16.08 21.701,16.08 L14.421,16.08 Q14.11,16.08 13.89,15.86 Q13.671,15.641 13.671,15.33 Q13.671,15.019 13.89,14.8 Q14.11,14.58 14.421,14.58 Z"/>
  <path fill="#292D32" d="M14.421,20.64 L21.701,20.64 Q22.011,20.64 22.231,20.859 Q22.451,21.079 22.451,21.39 Q22.451,21.7 22.231,21.92 Q22.011,22.14 21.701,22.14 L14.421,22.14 Q14.11,22.14 13.89,21.92 Q13.671,21.7 13.671,21.39 Q13.671,21.079 13.89,20.859 Q14.11,20.64 14.421,20.64 Z"/>
  <path fill="#292D32" d="M17.339,9.27 L17.339,2 Q17.339,1.689 17.559,1.47 Q17.779,1.25 18.089,1.25 Q18.4,1.25 18.62,1.47 Q18.839,1.689 18.839,2 L18.839,9.27 Q18.839,9.581 18.62,9.8 Q18.4,10.02 18.089,10.02 Q17.779,10.02 17.559,9.8 Q17.339,9.581 17.339,9.27 Z"/>
  <path fill="#292D32" d="M1.77,21.469 L9.05,14.199 Q9.269,13.98 9.58,13.98 Q9.891,13.98 10.11,14.2 Q10.33,14.42 10.33,14.731 Q10.329,15.041 10.11,15.261 L2.83,22.531 Q2.61,22.75 2.299,22.75 Q1.988,22.75 1.769,22.53 Q1.549,22.31 1.55,21.999 Q1.55,21.689 1.77,21.469 Z"/>
  <path fill="#292D32" d="M9.05,22.531 L1.77,15.261 Q1.55,15.041 1.55,14.731 Q1.549,14.42 1.769,14.2 Q1.988,13.98 2.299,13.98 Q2.61,13.98 2.83,14.199 L10.11,21.469 Q10.329,21.689 10.33,21.999 Q10.33,22.31 10.11,22.53 Q9.891,22.75 9.58,22.75 Q9.269,22.75 9.05,22.531 Z"/>
</svg>

