<svg xmlns="http://www.w3.org/2000/svg" width="24" height="24" viewBox="0 0 24 24">
  <defs/>
  <path fill="#292D32" opacity="0.4" d="M16.19,2 L7.81,2 C4.17,2 2,4.17 2,7.81 L2,16.18 C2,19.83 4.17,22 7.81,22 L16.18,22 C19.82,22 21.99,19.83 21.99,16.19 L21.99,7.81 C22,4.17 19.83,2 16.19,2 Z"/>
  <path fill="#292D32" d="M2.75,9.97 C2.34,9.97 2,9.64 2,9.22 L2,6.91 C2,4.2 4.2,2 6.91,2 L9.22,2 C9.63,2 9.97,2.34 9.97,2.75 C9.97,3.16 9.64,3.5 9.22,3.5 L6.91,3.5 C5.03,3.5 3.5,5.03 3.5,6.91 L3.5,9.22 C3.5,9.64 3.16,9.97 2.75,9.97 Z"/>
  <path fill="#292D32" d="M21.249,9.97 C20.839,9.97 20.499,9.63 20.499,9.22 L20.499,6.91 C20.499,5.03 18.969,3.5 17.089,3.5 L14.779,3.5 C14.369,3.5 14.029,3.16 14.029,2.75 C14.029,2.34 14.359,2 14.779,2 L17.089,2 C19.799,2 21.999,4.2 21.999,6.91 L21.999,9.22 C21.999,9.64 21.659,9.97 21.249,9.97 Z"/>
  <path fill="#292D32" d="M17.089,22 L15.699,22 C15.289,22 14.949,21.66 14.949,21.25 C14.949,20.84 15.289,20.5 15.699,20.5 L17.089,20.5 C18.969,20.5 20.499,18.97 20.499,17.09 L20.499,15.7 C20.499,15.29 20.839,14.95 21.249,14.95 C21.659,14.95 21.999,15.29 21.999,15.7 L21.999,17.09 C21.999,19.8 19.799,22 17.089,22 Z"/>
  <path fill="#292D32" d="M9.22,22 L6.91,22 C4.2,22 2,19.8 2,17.09 L2,14.78 C2,14.37 2.34,14.03 2.75,14.03 C3.16,14.03 3.5,14.37 3.5,14.78 L3.5,17.09 C3.5,18.97 5.03,20.5 6.91,20.5 L9.22,20.5 C9.63,20.5 9.97,20.84 9.97,21.25 C9.97,21.66 9.64,22 9.22,22 Z"/>
</svg>

