<svg xmlns="http://www.w3.org/2000/svg" width="24" height="24" viewBox="0 0 24 24">
  <defs/>
  <path fill="#292D32" d="M16.19,2 L7.81,2 C4.17,2 2,4.17 2,7.81 L2,16.18 C2,19.83 4.17,22 7.81,22 L16.18,22 C19.82,22 21.99,19.83 21.99,16.19 L21.99,7.81 C22,4.17 19.83,2 16.19,2 Z M18.75,14 C18.75,14.41 18.41,14.75 18,14.75 C17.59,14.75 17.25,14.41 17.25,14 L17.25,12.75 L12.75,12.75 L12.75,17.25 L14,17.25 C14.41,17.25 14.75,17.59 14.75,18 C14.75,18.41 14.41,18.75 14,18.75 L10,18.75 C9.59,18.75 9.25,18.41 9.25,18 C9.25,17.59 9.59,17.25 10,17.25 L11.25,17.25 L11.25,12.75 L6.75,12.75 L6.75,14 C6.75,14.41 6.41,14.75 6,14.75 C5.59,14.75 5.25,14.41 5.25,14 L5.25,10 C5.25,9.59 5.59,9.25 6,9.25 C6.41,9.25 6.75,9.59 6.75,10 L6.75,11.25 L11.25,11.25 L11.25,6.75 L10,6.75 C9.59,6.75 9.25,6.41 9.25,6 C9.25,5.59 9.59,5.25 10,5.25 L14,5.25 C14.41,5.25 14.75,5.59 14.75,6 C14.75,6.41 14.41,6.75 14,6.75 L12.75,6.75 L12.75,11.25 L17.25,11.25 L17.25,10 C17.25,9.59 17.59,9.25 18,9.25 C18.41,9.25 18.75,9.59 18.75,10 L18.75,14 Z"/>
</svg>

