<svg xmlns="http://www.w3.org/2000/svg" width="24" height="24" viewBox="0 0 24 24">
  <defs/>
  <path fill="#292D32" opacity="0.4" d="M22,7.81 L22,16.19 C22,19.83 19.83,22 16.19,22 L7.81,22 C7.61,22 7.41,21.99 7.22,21.98 C5.99,21.9 4.95,21.55 4.13,20.95 C3.71,20.66 3.34,20.29 3.05,19.87 C2.36,18.92 2,17.68 2,16.19 L2,7.81 C2,4.37 3.94,2.24 7.22,2.03 C7.41,2.01 7.61,2 7.81,2 L16.19,2 C17.68,2 18.92,2.36 19.87,3.05 C20.29,3.34 20.66,3.71 20.95,4.13 C21.64,5.08 22,6.32 22,7.81 Z"/>
  <path fill="#292D32" d="M18,10.75 C18.41,10.75 18.75,10.41 18.75,10 L18.75,6 C18.75,5.9 18.73,5.81 18.69,5.71 C18.61,5.53 18.47,5.38 18.28,5.3 C18.19,5.27 18.1,5.25 18,5.25 L14,5.25 C13.59,5.25 13.25,5.59 13.25,6 C13.25,6.41 13.59,6.75 14,6.75 L16.19,6.75 L12,10.94 L7.81,6.75 L10,6.75 C10.41,6.75 10.75,6.41 10.75,6 C10.75,5.59 10.41,5.25 10,5.25 L6,5.25 C5.9,5.25 5.81,5.27 5.71,5.31 C5.53,5.38 5.38,5.53 5.31,5.71 C5.27,5.81 5.25,5.9 5.25,6 L5.25,10 C5.25,10.41 5.59,10.75 6,10.75 C6.41,10.75 6.75,10.41 6.75,10 L6.75,7.81 L10.94,12 L6.75,16.19 L6.75,14 C6.75,13.59 6.41,13.25 6,13.25 C5.59,13.25 5.25,13.59 5.25,14 L5.25,18 C5.25,18.1 5.27,18.19 5.31,18.29 C5.39,18.47 5.53,18.62 5.72,18.7 C5.8,18.73 5.9,18.75 6,18.75 L10,18.75 C10.41,18.75 10.75,18.41 10.75,18 C10.75,17.59 10.41,17.25 10,17.25 L7.81,17.25 L12,13.06 L16.19,17.25 L14,17.25 C13.59,17.25 13.25,17.59 13.25,18 C13.25,18.41 13.59,18.75 14,18.75 L18,18.75 C18.1,18.75 18.2,18.73 18.29,18.69 C18.47,18.61 18.62,18.47 18.7,18.28 C18.74,18.19 18.76,18.09 18.76,17.99 L18.76,13.99 C18.76,13.58 18.42,13.24 18.01,13.24 C17.6,13.24 17.26,13.58 17.26,13.99 L17.26,16.18 L13.06,12 L17.25,7.81 L17.25,10 C17.25,10.41 17.59,10.75 18,10.75 Z"/>
</svg>

