<svg xmlns="http://www.w3.org/2000/svg" width="24" height="24" viewBox="0 0 24 24">
  <defs/>
  <path fill="#292D32" opacity="0.4" d="M16.19,2 L7.81,2 C4.17,2 2,4.17 2,7.81 L2,16.18 C2,19.83 4.17,22 7.81,22 L16.18,22 C19.82,22 21.99,19.83 21.99,16.19 L21.99,7.81 C22,4.17 19.83,2 16.19,2 Z"/>
  <path fill="#292D32" d="M18.689,5.71 C18.61,5.53 18.47,5.38 18.279,5.3 C18.189,5.27 18.099,5.25 18,5.25 L13.999,5.25 C13.589,5.25 13.249,5.59 13.249,6 C13.249,6.41 13.589,6.75 13.999,6.75 L16.189,6.75 L12.47,10.47 C12.18,10.76 12.18,11.24 12.47,11.53 C12.62,11.68 12.809,11.75 12.999,11.75 C13.19,11.75 13.38,11.68 13.53,11.53 L17.25,7.81 L17.25,10 C17.25,10.41 17.59,10.75 18,10.75 C18.41,10.75 18.75,10.41 18.75,10 L18.75,6 C18.75,5.9 18.73,5.81 18.689,5.71 Z"/>
  <path fill="#292D32" d="M11.53,12.47 C11.24,12.18 10.76,12.18 10.47,12.47 L6.75,16.19 L6.75,14 C6.75,13.59 6.41,13.25 6,13.25 C5.59,13.25 5.25,13.59 5.25,14 L5.25,18 C5.25,18.1 5.27,18.19 5.31,18.29 C5.39,18.47 5.53,18.62 5.72,18.7 C5.8,18.73 5.9,18.75 6,18.75 L10,18.75 C10.41,18.75 10.75,18.41 10.75,18 C10.75,17.59 10.41,17.25 10,17.25 L7.81,17.25 L11.53,13.53 C11.82,13.24 11.82,12.76 11.53,12.47 Z"/>
</svg>

