<svg xmlns="http://www.w3.org/2000/svg" width="24" height="24" viewBox="0 0 24 24">
  <defs/>
  <path fill="#292D32" d="M17,2.25 L21,2.25 Q21.311,2.25 21.53,2.47 Q21.75,2.689 21.75,3 L21.75,7 Q21.75,7.311 21.53,7.53 Q21.311,7.75 21,7.75 Q20.689,7.75 20.47,7.53 Q20.25,7.311 20.25,7 L20.25,3.75 L17,3.75 Q16.689,3.75 16.47,3.53 Q16.25,3.311 16.25,3 Q16.25,2.689 16.47,2.47 Q16.689,2.25 17,2.25 Z"/>
  <path fill="#292D32" d="M14.47,8.47 L20.47,2.47 Q20.689,2.25 21,2.25 Q21.311,2.25 21.53,2.47 Q21.75,2.689 21.75,3 Q21.75,3.311 21.53,3.53 L15.53,9.53 Q15.311,9.75 15,9.75 Q14.689,9.75 14.47,9.53 Q14.25,9.311 14.25,9 Q14.25,8.689 14.47,8.47 Z"/>
  <path fill="#292D32" d="M7,21.75 L3,21.75 Q2.689,21.75 2.47,21.53 Q2.25,21.311 2.25,21 L2.25,17 Q2.25,16.689 2.47,16.47 Q2.689,16.25 3,16.25 Q3.311,16.25 3.53,16.47 Q3.75,16.689 3.75,17 L3.75,20.25 L7,20.25 Q7.311,20.25 7.53,20.47 Q7.75,20.689 7.75,21 Q7.75,21.311 7.53,21.53 Q7.311,21.75 7,21.75 Z"/>
  <path fill="#292D32" d="M9.53,15.53 L3.53,21.53 Q3.311,21.75 3,21.75 Q2.689,21.75 2.47,21.53 Q2.25,21.311 2.25,21 Q2.25,20.689 2.47,20.47 L8.47,14.47 Q8.689,14.25 9,14.25 Q9.311,14.25 9.53,14.47 Q9.75,14.689 9.75,15 Q9.75,15.311 9.53,15.53 Z"/>
  <path fill="#292D32" d="M13.873,2.935 Q12.946,2.75 12,2.75 Q8.171,2.75 5.46,5.46 Q2.75,8.171 2.75,12 Q2.75,12.94 2.935,13.851 Q2.997,14.155 2.825,14.414 Q2.654,14.673 2.349,14.735 Q2.045,14.797 1.786,14.625 Q1.527,14.454 1.465,14.149 Q1.25,13.091 1.25,12 Q1.25,7.549 4.4,4.4 Q7.549,1.25 12,1.25 Q13.094,1.25 14.167,1.465 Q14.472,1.525 14.644,1.784 Q14.816,2.042 14.755,2.347 Q14.695,2.652 14.436,2.824 Q14.178,2.996 13.873,2.935 Z"/>
  <path fill="#292D32" d="M10.127,21.065 Q11.054,21.25 12,21.25 Q15.829,21.25 18.54,18.54 Q21.25,15.829 21.25,12 Q21.25,11.074 21.065,10.147 Q21.004,9.842 21.176,9.584 Q21.348,9.325 21.653,9.265 Q21.958,9.204 22.216,9.376 Q22.475,9.548 22.535,9.853 Q22.75,10.926 22.75,12 Q22.75,16.451 19.6,19.6 Q16.451,22.75 12,22.75 Q10.906,22.75 9.833,22.535 Q9.528,22.475 9.356,22.216 Q9.184,21.958 9.245,21.653 Q9.305,21.348 9.564,21.176 Q9.822,21.004 10.127,21.065 Z"/>
</svg>

