<svg xmlns="http://www.w3.org/2000/svg" width="24" height="24" viewBox="0 0 24 24">
  <defs/>
  <path fill="#292D32" d="M15,22.75 L14,22.75 C13.59,22.75 13.25,22.41 13.25,22 C13.25,21.59 13.59,21.25 14,21.25 L15,21.25 C19.61,21.25 21.25,19.61 21.25,15 L21.25,9 C21.25,4.39 19.61,2.75 15,2.75 L9,2.75 C4.39,2.75 2.75,4.39 2.75,9 L2.75,9.98 C2.75,10.39 2.41,10.73 2,10.73 C1.59,10.73 1.25,10.39 1.25,9.98 L1.25,9 C1.25,3.57 3.57,1.25 9,1.25 L15,1.25 C20.43,1.25 22.75,3.57 22.75,9 L22.75,15 C22.75,20.43 20.43,22.75 15,22.75 Z"/>
  <path fill="#292D32" d="M12.999,11.75 C12.809,11.75 12.62,11.68 12.47,11.53 C12.18,11.24 12.18,10.76 12.47,10.47 L16.209,6.72 L13.999,6.72 C13.589,6.72 13.249,6.38 13.249,5.97 C13.249,5.56 13.579,5.22 13.999,5.22 L18.009,5.22 C18.309,5.22 18.59,5.4 18.7,5.68 C18.82,5.96 18.75,6.28 18.54,6.5 L13.53,11.53 C13.38,11.68 13.19,11.75 12.999,11.75 Z"/>
  <path fill="#292D32" d="M18.01,10.74 C17.6,10.74 17.26,10.4 17.26,9.99 L17.26,5.97 C17.26,5.56 17.6,5.22 18.01,5.22 C18.42,5.22 18.76,5.56 18.76,5.97 L18.76,9.98 C18.76,10.4 18.42,10.74 18.01,10.74 Z"/>
  <path fill="#292D32" d="M7.85,22.75 L5.15,22.75 C2.49,22.75 1.25,21.51 1.25,18.85 L1.25,16.15 C1.25,13.49 2.49,12.25 5.15,12.25 L7.85,12.25 C10.51,12.25 11.75,13.49 11.75,16.15 L11.75,18.85 C11.75,21.51 10.51,22.75 7.85,22.75 Z M5.15,13.75 C3.31,13.75 2.75,14.31 2.75,16.15 L2.75,18.85 C2.75,20.69 3.31,21.25 5.15,21.25 L7.85,21.25 C9.69,21.25 10.25,20.69 10.25,18.85 L10.25,16.15 C10.25,14.31 9.69,13.75 7.85,13.75 L5.15,13.75 Z"/>
</svg>

