<svg xmlns="http://www.w3.org/2000/svg" width="24" height="24" viewBox="0 0 24 24">
  <defs/>
  <path fill="#292D32" d="M1.25,9.98 L1.25,9 Q1.25,1.25 9,1.25 L15,1.25 Q22.75,1.25 22.75,9 L22.75,15 Q22.75,22.75 15,22.75 L14,22.75 Q13.689,22.75 13.47,22.53 Q13.25,22.311 13.25,22 Q13.25,21.689 13.47,21.47 Q13.689,21.25 14,21.25 L15,21.25 Q18.439,21.25 19.845,19.845 Q21.25,18.439 21.25,15 L21.25,9 Q21.25,5.561 19.845,4.155 Q18.439,2.75 15,2.75 L9,2.75 Q2.75,2.75 2.75,9 L2.75,9.98 Q2.75,10.291 2.53,10.51 Q2.311,10.73 2,10.73 Q1.689,10.73 1.47,10.51 Q1.25,10.291 1.25,9.98 Z"/>
  <path fill="#292D32" d="M12.469,10.47 L16.202,6.73 L14,6.73 Q13.689,6.73 13.47,6.51 Q13.25,6.291 13.25,5.98 Q13.25,5.669 13.47,5.45 Q13.689,5.23 14,5.23 L18.01,5.23 Q18.32,5.23 18.54,5.449 Q18.76,5.669 18.76,5.979 Q18.76,6.29 18.541,6.51 L13.531,11.53 Q13.311,11.75 13.001,11.75 Q12.69,11.75 12.47,11.531 Q12.25,11.311 12.25,11.001 Q12.25,10.69 12.469,10.47 Z"/>
  <path fill="#292D32" d="M18.76,5.98 L18.76,9.99 Q18.76,10.301 18.54,10.52 Q18.32,10.74 18.01,10.74 Q17.699,10.74 17.479,10.52 Q17.26,10.301 17.26,9.99 L17.26,5.98 Q17.26,5.669 17.479,5.45 Q17.699,5.23 18.01,5.23 Q18.32,5.23 18.54,5.45 Q18.76,5.669 18.76,5.98 Z"/>
  <path fill="#292D32" d="M1.25,18.85 L1.25,16.15 Q1.25,12.25 5.15,12.25 L7.85,12.25 Q11.75,12.25 11.75,16.15 L11.75,18.85 Q11.75,22.75 7.85,22.75 L5.15,22.75 Q4.839,22.75 4.62,22.53 Q4.4,22.311 4.4,22 Q4.4,21.689 4.62,21.47 Q4.839,21.25 5.15,21.25 L7.85,21.25 Q10.25,21.25 10.25,18.85 L10.25,16.15 Q10.25,14.773 9.738,14.262 Q9.227,13.75 7.85,13.75 L5.15,13.75 Q2.75,13.75 2.75,16.15 L2.75,18.85 Q2.75,19.161 2.53,19.38 Q2.311,19.6 2,19.6 Q1.689,19.6 1.47,19.38 Q1.25,19.161 1.25,18.85 Z"/>
</svg>

