<svg xmlns="http://www.w3.org/2000/svg" width="24" height="24" viewBox="0 0 24 24">
  <defs/>
  <path fill="#292D32" opacity="0.4" d="M16.48,2 L8.52,2 C5.07,2 3,4.06 3,7.52 L3,15.47 C3,18.94 5.07,21 8.52,21 L16.47,21 C19.93,21 21.99,18.94 21.99,15.48 L21.99,7.52 C22,4.06 19.93,2 16.48,2 Z"/>
  <path fill="#292D32" d="M11,16.15 L11,18.85 C11,21.1 10.1,22 7.85,22 L5.15,22 C2.9,22 2,21.1 2,18.85 L2,16.15 C2,13.9 2.9,13 5.15,13 L7.85,13 C10.1,13 11,13.9 11,16.15 Z"/>
  <path fill="#292D32" d="M18.75,5.95 C18.75,5.86 18.73,5.78 18.7,5.69 C18.7,5.68 18.689,5.67 18.689,5.67 C18.66,5.6 18.61,5.53 18.559,5.48 C18.54,5.46 18.52,5.44 18.5,5.43 C18.45,5.39 18.399,5.35 18.349,5.33 C18.329,5.32 18.299,5.31 18.279,5.3 C18.2,5.27 18.11,5.25 18.02,5.25 L13.999,5.25 C13.589,5.25 13.249,5.59 13.249,6 C13.249,6.41 13.579,6.72 13.999,6.72 L16.209,6.72 L12.47,10.47 C12.18,10.76 12.18,11.24 12.47,11.53 C12.62,11.68 12.809,11.75 12.999,11.75 C13.19,11.75 13.38,11.68 13.53,11.53 L17.259,7.79 L17.259,9.99 C17.259,10.4 17.599,10.74 18.009,10.74 C18.419,10.74 18.759,10.4 18.759,9.99 L18.759,5.97 C18.759,5.96 18.759,5.96 18.75,5.95 Z"/>
</svg>

