<svg xmlns="http://www.w3.org/2000/svg" width="24" height="24" viewBox="0 0 24 24">
  <defs/>
  <path fill="#292D32" d="M20.25,5 L20.25,3.75 L15,3.75 Q14.689,3.75 14.47,3.53 Q14.25,3.311 14.25,3 Q14.25,2.689 14.47,2.47 Q14.689,2.25 15,2.25 L21,2.25 Q21.311,2.25 21.53,2.47 Q21.75,2.689 21.75,3 L21.75,5 Q21.75,5.311 21.53,5.53 Q21.311,5.75 21,5.75 Q20.689,5.75 20.47,5.53 Q20.25,5.311 20.25,5 Z"/>
  <path fill="#292D32" d="M20.25,9 L20.25,7.97 Q20.25,7.659 20.47,7.44 Q20.689,7.22 21,7.22 Q21.311,7.22 21.53,7.44 Q21.75,7.659 21.75,7.97 L21.75,9 Q21.75,9.311 21.53,9.53 Q21.311,9.75 21,9.75 Q20.689,9.75 20.47,9.53 Q20.25,9.311 20.25,9 Z"/>
  <path fill="#292D32" d="M3.75,19 L3.75,20.25 L9,20.25 Q9.311,20.25 9.53,20.47 Q9.75,20.689 9.75,21 Q9.75,21.311 9.53,21.53 Q9.311,21.75 9,21.75 L3,21.75 Q2.689,21.75 2.47,21.53 Q2.25,21.311 2.25,21 L2.25,19 Q2.25,18.689 2.47,18.47 Q2.689,18.25 3,18.25 Q3.311,18.25 3.53,18.47 Q3.75,18.689 3.75,19 Z"/>
  <path fill="#292D32" d="M3.75,15 L3.75,16.03 Q3.75,16.341 3.53,16.56 Q3.311,16.78 3,16.78 Q2.689,16.78 2.47,16.56 Q2.25,16.341 2.25,16.03 L2.25,15 Q2.25,14.689 2.47,14.47 Q2.689,14.25 3,14.25 Q3.311,14.25 3.53,14.47 Q3.75,14.689 3.75,15 Z"/>
  <path fill="#292D32" d="M21.53,3.53 L14.03,11.03 Q13.811,11.25 13.5,11.25 Q13.189,11.25 12.97,11.03 Q12.75,10.811 12.75,10.5 Q12.75,10.189 12.97,9.97 L20.47,2.47 Q20.689,2.25 21,2.25 Q21.311,2.25 21.53,2.47 Q21.75,2.689 21.75,3 Q21.75,3.311 21.53,3.53 Z"/>
  <path fill="#292D32" d="M11.03,14.03 L3.53,21.53 Q3.311,21.75 3,21.75 Q2.689,21.75 2.47,21.53 Q2.25,21.311 2.25,21 Q2.25,20.689 2.47,20.47 L9.97,12.97 Q10.189,12.75 10.5,12.75 Q10.811,12.75 11.03,12.97 Q11.25,13.189 11.25,13.5 Q11.25,13.811 11.03,14.03 Z"/>
</svg>

