<svg xmlns="http://www.w3.org/2000/svg" width="24" height="24" viewBox="0 0 24 24">
  <defs/>
  <path fill="#292D32" d="M21,7.75 C20.59,7.75 20.25,7.41 20.25,7 L20.25,3.75 L17,3.75 C16.59,3.75 16.25,3.41 16.25,3 C16.25,2.59 16.59,2.25 17,2.25 L21,2.25 C21.41,2.25 21.75,2.59 21.75,3 L21.75,7 C21.75,7.41 21.41,7.75 21,7.75 Z"/>
  <path fill="#292D32" d="M14.999,9.75 C14.809,9.75 14.62,9.68 14.47,9.53 C14.18,9.24 14.18,8.76 14.47,8.47 L20.47,2.47 C20.759,2.18 21.239,2.18 21.529,2.47 C21.82,2.76 21.82,3.24 21.529,3.53 L15.53,9.53 C15.38,9.68 15.19,9.75 14.999,9.75 Z"/>
  <path fill="#292D32" d="M7,21.75 L3,21.75 C2.59,21.75 2.25,21.41 2.25,21 L2.25,17 C2.25,16.59 2.59,16.25 3,16.25 C3.41,16.25 3.75,16.59 3.75,17 L3.75,20.25 L7,20.25 C7.41,20.25 7.75,20.59 7.75,21 C7.75,21.41 7.41,21.75 7,21.75 Z"/>
  <path fill="#292D32" d="M2.999,21.75 C2.809,21.75 2.619,21.68 2.469,21.53 C2.179,21.24 2.179,20.76 2.469,20.47 L8.469,14.47 C8.759,14.18 9.24,14.18 9.53,14.47 C9.82,14.76 9.82,15.24 9.53,15.53 L3.53,21.53 C3.38,21.68 3.189,21.75 2.999,21.75 Z"/>
  <path fill="#292D32" d="M2.2,14.75 C1.85,14.75 1.54,14.5 1.47,14.15 C1.33,13.45 1.25,12.72 1.25,12 C1.25,6.07 6.07,1.25 12,1.25 C12.73,1.25 13.46,1.32 14.17,1.47 C14.58,1.55 14.84,1.95 14.76,2.35 C14.68,2.76 14.27,3.01 13.88,2.94 C13.27,2.82 12.64,2.75 12.01,2.75 C6.91,2.75 2.76,6.9 2.76,12 C2.76,12.62 2.82,13.25 2.95,13.85 C3.03,14.26 2.77,14.65 2.36,14.73 C2.3,14.75 2.25,14.75 2.2,14.75 Z"/>
  <path fill="#292D32" d="M12.001,22.75 C11.271,22.75 10.541,22.68 9.831,22.53 C9.421,22.45 9.161,22.05 9.241,21.65 C9.321,21.24 9.731,20.99 10.121,21.06 C10.731,21.18 11.361,21.25 11.991,21.25 C17.091,21.25 21.241,17.1 21.241,12 C21.241,11.38 21.181,10.76 21.061,10.15 C20.981,9.74 21.241,9.35 21.651,9.27 C22.051,9.19 22.451,9.45 22.531,9.86 C22.671,10.56 22.741,11.28 22.741,12 C22.751,17.93 17.931,22.75 12.001,22.75 Z"/>
</svg>

