<svg xmlns="http://www.w3.org/2000/svg" width="24" height="24" viewBox="0 0 24 24">
  <defs/>
  <path fill="#292D32" d="M2.75,13 L2.75,15 Q2.75,18.439 4.155,19.845 Q5.561,21.25 9,21.25 L15,21.25 Q18.439,21.25 19.845,19.845 Q21.25,18.439 21.25,15 L21.25,9 Q21.25,2.75 15,2.75 L9,2.75 Q2.75,2.75 2.75,9 Q2.75,9.311 2.53,9.53 Q2.311,9.75 2,9.75 Q1.689,9.75 1.47,9.53 Q1.25,9.311 1.25,9 Q1.25,1.25 9,1.25 L15,1.25 Q22.75,1.25 22.75,9 L22.75,15 Q22.75,22.75 15,22.75 L9,22.75 Q1.25,22.75 1.25,15 L1.25,13 Q1.25,12.689 1.47,12.47 Q1.689,12.25 2,12.25 Q2.311,12.25 2.53,12.47 Q2.75,12.689 2.75,13 Z"/>
  <path fill="#292D32" d="M18.53,6.53 L6.53,18.53 Q6.311,18.75 6,18.75 Q5.689,18.75 5.47,18.53 Q5.25,18.311 5.25,18 Q5.25,17.689 5.47,17.47 L17.47,5.47 Q17.689,5.25 18,5.25 Q18.311,5.25 18.53,5.47 Q18.75,5.689 18.75,6 Q18.75,6.311 18.53,6.53 Z"/>
  <path fill="#292D32" d="M17.25,10 L17.25,6.75 L14,6.75 Q13.689,6.75 13.47,6.53 Q13.25,6.311 13.25,6 Q13.25,5.689 13.47,5.47 Q13.689,5.25 14,5.25 L18,5.25 Q18.311,5.25 18.53,5.47 Q18.75,5.689 18.75,6 L18.75,10 Q18.75,10.311 18.53,10.53 Q18.311,10.75 18,10.75 Q17.689,10.75 17.47,10.53 Q17.25,10.311 17.25,10 Z"/>
  <path fill="#292D32" d="M6.75,14 L6.75,17.25 L10,17.25 Q10.311,17.25 10.53,17.47 Q10.75,17.689 10.75,18 Q10.75,18.311 10.53,18.53 Q10.311,18.75 10,18.75 L6,18.75 Q5.689,18.75 5.47,18.53 Q5.25,18.311 5.25,18 L5.25,14 Q5.25,13.689 5.47,13.47 Q5.689,13.25 6,13.25 Q6.311,13.25 6.53,13.47 Q6.75,13.689 6.75,14 Z"/>
  <path fill="#292D32" d="M6.53,5.47 L18.53,17.47 Q18.75,17.689 18.75,18 Q18.75,18.311 18.53,18.53 Q18.311,18.75 18,18.75 Q17.689,18.75 17.47,18.53 L5.47,6.53 Q5.25,6.311 5.25,6 Q5.25,5.689 5.47,5.47 Q5.689,5.25 6,5.25 Q6.311,5.25 6.53,5.47 Z"/>
  <path fill="#292D32" d="M5.25,10 L5.25,6 Q5.25,5.689 5.47,5.47 Q5.689,5.25 6,5.25 L10,5.25 Q10.311,5.25 10.53,5.47 Q10.75,5.689 10.75,6 Q10.75,6.311 10.53,6.53 Q10.311,6.75 10,6.75 L6.75,6.75 L6.75,10 Q6.75,10.311 6.53,10.53 Q6.311,10.75 6,10.75 Q5.689,10.75 5.47,10.53 Q5.25,10.311 5.25,10 Z"/>
  <path fill="#292D32" d="M18.75,14 L18.75,18 Q18.75,18.311 18.53,18.53 Q18.311,18.75 18,18.75 L14,18.75 Q13.689,18.75 13.47,18.53 Q13.25,18.311 13.25,18 Q13.25,17.689 13.47,17.47 Q13.689,17.25 14,17.25 L17.25,17.25 L17.25,14 Q17.25,13.689 17.47,13.47 Q17.689,13.25 18,13.25 Q18.311,13.25 18.53,13.47 Q18.75,13.689 18.75,14 Z"/>
</svg>

