<svg xmlns="http://www.w3.org/2000/svg" width="24" height="24" viewBox="0 0 24 24">
  <defs/>
  <path fill="#292D32" d="M15,22.75 L9,22.75 C3.57,22.75 1.25,20.43 1.25,15 L1.25,9 C1.25,3.57 3.57,1.25 9,1.25 L15,1.25 C20.43,1.25 22.75,3.57 22.75,9 L22.75,15 C22.75,20.43 20.43,22.75 15,22.75 Z M9,2.75 C4.39,2.75 2.75,4.39 2.75,9 L2.75,15 C2.75,19.61 4.39,21.25 9,21.25 L15,21.25 C19.61,21.25 21.25,19.61 21.25,15 L21.25,9 C21.25,4.39 19.61,2.75 15,2.75 L9,2.75 Z"/>
  <path fill="#292D32" d="M5.999,18.75 C5.809,18.75 5.619,18.68 5.469,18.53 C5.179,18.24 5.179,17.76 5.469,17.47 L17.47,5.47 C17.759,5.18 18.239,5.18 18.529,5.47 C18.82,5.76 18.82,6.24 18.529,6.53 L6.529,18.53 C6.379,18.68 6.189,18.75 5.999,18.75 Z"/>
  <path fill="#292D32" d="M18,10.75 C17.59,10.75 17.25,10.41 17.25,10 L17.25,6.75 L14,6.75 C13.59,6.75 13.25,6.41 13.25,6 C13.25,5.59 13.59,5.25 14,5.25 L18,5.25 C18.41,5.25 18.75,5.59 18.75,6 L18.75,10 C18.75,10.41 18.41,10.75 18,10.75 Z"/>
  <path fill="#292D32" d="M10,18.75 L6,18.75 C5.59,18.75 5.25,18.41 5.25,18 L5.25,14 C5.25,13.59 5.59,13.25 6,13.25 C6.41,13.25 6.75,13.59 6.75,14 L6.75,17.25 L10,17.25 C10.41,17.25 10.75,17.59 10.75,18 C10.75,18.41 10.41,18.75 10,18.75 Z"/>
</svg>

