<svg xmlns="http://www.w3.org/2000/svg" width="24" height="24" viewBox="0 0 24 24">
  <defs/>
  <path fill="#292D32" d="M21,9.75 C20.59,9.75 20.25,9.41 20.25,9 L20.25,3.75 L15,3.75 C14.59,3.75 14.25,3.41 14.25,3 C14.25,2.59 14.59,2.25 15,2.25 L21,2.25 C21.41,2.25 21.75,2.59 21.75,3 L21.75,9 C21.75,9.41 21.41,9.75 21,9.75 Z"/>
  <path fill="#292D32" d="M9,21.75 L3,21.75 C2.59,21.75 2.25,21.41 2.25,21 L2.25,15 C2.25,14.59 2.59,14.25 3,14.25 C3.41,14.25 3.75,14.59 3.75,15 L3.75,20.25 L9,20.25 C9.41,20.25 9.75,20.59 9.75,21 C9.75,21.41 9.41,21.75 9,21.75 Z"/>
  <path fill="#292D32" d="M13.499,11.25 C13.309,11.25 13.12,11.18 12.97,11.03 C12.68,10.74 12.68,10.26 12.97,9.97 L20.47,2.47 C20.759,2.18 21.239,2.18 21.529,2.47 C21.82,2.76 21.82,3.24 21.529,3.53 L14.03,11.03 C13.88,11.18 13.69,11.25 13.499,11.25 Z"/>
  <path fill="#292D32" d="M2.999,21.75 C2.809,21.75 2.619,21.68 2.469,21.53 C2.179,21.24 2.179,20.76 2.469,20.47 L9.969,12.97 C10.259,12.68 10.739,12.68 11.03,12.97 C11.319,13.26 11.319,13.74 11.03,14.03 L3.529,21.53 C3.379,21.68 3.189,21.75 2.999,21.75 Z"/>
</svg>

