<svg xmlns="http://www.w3.org/2000/svg" width="24" height="24" viewBox="0 0 24 24">
  <defs/>
  <path fill="#292D32" d="M16.19,2 L7.81,2 C4.17,2 2,4.17 2,7.81 L2,16.18 C2,19.83 4.17,22 7.81,22 L16.18,22 C19.82,22 21.99,19.83 21.99,16.19 L21.99,7.81 C22,4.17 19.83,2 16.19,2 Z M10.22,21 L7.91,21 C5.2,21 3,18.8 3,16.09 L3,13.78 C3,13.37 3.34,13.03 3.75,13.03 C4.16,13.03 4.5,13.37 4.5,13.78 L4.5,16.09 C4.5,17.97 6.03,19.5 7.91,19.5 L10.22,19.5 C10.63,19.5 10.97,19.84 10.97,20.25 C10.97,20.66 10.64,21 10.22,21 Z M10.22,4.5 L7.91,4.5 C6.03,4.5 4.5,6.03 4.5,7.91 L4.5,10.22 C4.5,10.63 4.16,10.97 3.75,10.97 C3.34,10.97 3,10.64 3,10.22 L3,7.91 C3,5.2 5.2,3 7.91,3 L10.22,3 C10.63,3 10.97,3.34 10.97,3.75 C10.97,4.16 10.64,4.5 10.22,4.5 Z M21,16.09 C21,18.8 18.8,21 16.09,21 L14.7,21 C14.29,21 13.95,20.66 13.95,20.25 C13.95,19.84 14.29,19.5 14.7,19.5 L16.09,19.5 C17.97,19.5 19.5,17.97 19.5,16.09 L19.5,14.7 C19.5,14.29 19.84,13.95 20.25,13.95 C20.66,13.95 21,14.29 21,14.7 L21,16.09 Z M21,10.22 C21,10.63 20.66,10.97 20.25,10.97 C19.84,10.97 19.5,10.63 19.5,10.22 L19.5,7.91 C19.5,6.03 17.97,4.5 16.09,4.5 L13.78,4.5 C13.37,4.5 13.03,4.16 13.03,3.75 C13.03,3.34 13.36,3 13.78,3 L16.09,3 C18.8,3 21,5.2 21,7.91 L21,10.22 Z"/>
</svg>

