<svg xmlns="http://www.w3.org/2000/svg" width="24" height="24" viewBox="0 0 24 24">
  <defs/>
  <g opacity="0.4">
    <path fill="#292D32" d="M16.25,3 C16.25,2.586 16.586,2.25 17,2.25 L21,2.25 C21.414,2.25 21.75,2.586 21.75,3 L21.75,7 C21.75,7.414 21.414,7.75 21,7.75 C20.586,7.75 20.25,7.414 20.25,7 L20.25,3.75 L17,3.75 C16.586,3.75 16.25,3.414 16.25,3 Z"/>
    <path fill="#292D32" d="M21.53,2.47 C21.823,2.763 21.823,3.237 21.53,3.53 L15.53,9.53 C15.237,9.823 14.763,9.823 14.47,9.53 C14.177,9.237 14.177,8.763 14.47,8.47 L20.47,2.47 C20.763,2.177 21.237,2.177 21.53,2.47 Z"/>
    <path fill="#292D32" d="M3,16.25 C3.414,16.25 3.75,16.586 3.75,17 L3.75,20.25 L7,20.25 C7.414,20.25 7.75,20.586 7.75,21 C7.75,21.414 7.414,21.75 7,21.75 L3,21.75 C2.586,21.75 2.25,21.414 2.25,21 L2.25,17 C2.25,16.586 2.586,16.25 3,16.25 Z"/>
    <path fill="#292D32" d="M9.53,14.47 C9.823,14.763 9.823,15.237 9.53,15.53 L3.53,21.53 C3.237,21.823 2.763,21.823 2.47,21.53 C2.177,21.237 2.177,20.763 2.47,20.47 L8.47,14.47 C8.763,14.177 9.237,14.177 9.53,14.47 Z"/>
  </g>
  <path fill="#292D32" d="M1.25,12 C1.25,6.066 6.066,1.25 12,1.25 C12.74,1.25 13.47,1.325 14.167,1.465 C14.573,1.546 14.837,1.941 14.755,2.347 C14.674,2.753 14.279,3.017 13.873,2.935 C13.27,2.815 12.64,2.75 12,2.75 C6.894,2.75 2.75,6.894 2.75,12 C2.75,12.639 2.815,13.259 2.935,13.851 C3.017,14.257 2.755,14.653 2.349,14.735 C1.943,14.817 1.547,14.555 1.465,14.149 C1.325,13.461 1.25,12.741 1.25,12 Z"/>
  <path fill="#292D32" d="M21.653,9.265 C22.06,9.183 22.455,9.447 22.536,9.853 C22.675,10.549 22.751,11.269 22.751,12 C22.751,17.934 17.935,22.75 12.001,22.75 C11.26,22.75 10.531,22.675 9.834,22.536 C9.427,22.454 9.164,22.059 9.245,21.653 C9.326,21.247 9.722,20.983 10.128,21.065 C10.73,21.185 11.361,21.25 12.001,21.25 C17.106,21.25 21.251,17.106 21.251,12 C21.251,11.372 21.186,10.751 21.065,10.147 C20.984,9.741 21.247,9.346 21.653,9.265 Z"/>
</svg>

