<svg xmlns="http://www.w3.org/2000/svg" width="24" height="24" viewBox="0 0 24 24">
  <defs/>
  <path fill="#292D32" d="M16.19,2 L7.81,2 C4.17,2 2,4.17 2,7.81 L2,16.18 C2,19.83 4.17,22 7.81,22 L16.18,22 C19.82,22 21.99,19.83 21.99,16.19 L21.99,7.81 C22,4.17 19.83,2 16.19,2 Z M18.75,10 C18.75,10.41 18.41,10.75 18,10.75 C17.59,10.75 17.25,10.41 17.25,10 L17.25,7.81 L7.81,17.25 L10,17.25 C10.41,17.25 10.75,17.59 10.75,18 C10.75,18.41 10.41,18.75 10,18.75 L6,18.75 C5.9,18.75 5.8,18.73 5.71,18.69 C5.53,18.61 5.38,18.47 5.3,18.28 C5.27,18.19 5.25,18.1 5.25,18 L5.25,14 C5.25,13.59 5.59,13.25 6,13.25 C6.41,13.25 6.75,13.59 6.75,14 L6.75,16.19 L16.19,6.75 L14,6.75 C13.59,6.75 13.25,6.41 13.25,6 C13.25,5.59 13.59,5.25 14,5.25 L18,5.25 C18.1,5.25 18.19,5.27 18.29,5.31 C18.47,5.39 18.62,5.53 18.7,5.72 C18.73,5.81 18.75,5.9 18.75,6 L18.75,10 Z"/>
</svg>

