<svg xmlns="http://www.w3.org/2000/svg" width="24" height="24" viewBox="0 0 24 24">
  <defs/>
  <path fill="#292D32" d="M1.25,9 L1.25,6.5 Q1.25,4.322 2.786,2.786 Q4.322,1.25 6.5,1.25 L9,1.25 Q9.311,1.25 9.53,1.47 Q9.75,1.689 9.75,2 Q9.75,2.311 9.53,2.53 Q9.311,2.75 9,2.75 L6.5,2.75 Q2.75,2.75 2.75,6.5 L2.75,9 Q2.75,9.311 2.53,9.53 Q2.311,9.75 2,9.75 Q1.689,9.75 1.47,9.53 Q1.25,9.311 1.25,9 Z"/>
  <path fill="#292D32" d="M15,1.25 L17.5,1.25 Q19.678,1.25 21.214,2.786 Q22.75,4.322 22.75,6.5 L22.75,9 Q22.75,9.311 22.53,9.53 Q22.311,9.75 22,9.75 Q21.689,9.75 21.47,9.53 Q21.25,9.311 21.25,9 L21.25,6.5 Q21.25,2.75 17.5,2.75 L15,2.75 Q14.689,2.75 14.47,2.53 Q14.25,2.311 14.25,2 Q14.25,1.689 14.47,1.47 Q14.689,1.25 15,1.25 Z"/>
  <path fill="#292D32" d="M22.75,16 L22.75,17.5 Q22.75,19.678 21.214,21.214 Q19.678,22.75 17.5,22.75 L16,22.75 Q15.689,22.75 15.47,22.53 Q15.25,22.311 15.25,22 Q15.25,21.689 15.47,21.47 Q15.689,21.25 16,21.25 L17.5,21.25 Q21.25,21.25 21.25,17.5 L21.25,16 Q21.25,15.689 21.47,15.47 Q21.689,15.25 22,15.25 Q22.311,15.25 22.53,15.47 Q22.75,15.689 22.75,16 Z"/>
  <path fill="#292D32" d="M9,22.75 L6.5,22.75 Q4.322,22.75 2.786,21.214 Q1.25,19.678 1.25,17.5 L1.25,15 Q1.25,14.689 1.47,14.47 Q1.689,14.25 2,14.25 Q2.311,14.25 2.53,14.47 Q2.75,14.689 2.75,15 L2.75,17.5 Q2.75,21.25 6.5,21.25 L9,21.25 Q9.311,21.25 9.53,21.47 Q9.75,21.689 9.75,22 Q9.75,22.311 9.53,22.53 Q9.311,22.75 9,22.75 Z"/>
  <path fill="#292D32" d="M6.75,11.25 L17.25,11.25 L17.25,10 Q17.25,9.689 17.47,9.47 Q17.689,9.25 18,9.25 Q18.311,9.25 18.53,9.47 Q18.75,9.689 18.75,10 L18.75,14 Q18.75,14.311 18.53,14.53 Q18.311,14.75 18,14.75 Q17.689,14.75 17.47,14.53 Q17.25,14.311 17.25,14 L17.25,12.75 L6.75,12.75 L6.75,14 Q6.75,14.311 6.53,14.53 Q6.311,14.75 6,14.75 Q5.689,14.75 5.47,14.53 Q5.25,14.311 5.25,14 L5.25,10 Q5.25,9.689 5.47,9.47 Q5.689,9.25 6,9.25 Q6.311,9.25 6.53,9.47 Q6.75,9.689 6.75,10 L6.75,11.25 Z"/>
  <path fill="#292D32" d="M12.75,6.75 L12.75,17.25 L14,17.25 Q14.311,17.25 14.53,17.47 Q14.75,17.689 14.75,18 Q14.75,18.311 14.53,18.53 Q14.311,18.75 14,18.75 L10,18.75 Q9.689,18.75 9.47,18.53 Q9.25,18.311 9.25,18 Q9.25,17.689 9.47,17.47 Q9.689,17.25 10,17.25 L11.25,17.25 L11.25,6.75 L10,6.75 Q9.689,6.75 9.47,6.53 Q9.25,6.311 9.25,6 Q9.25,5.689 9.47,5.47 Q9.689,5.25 10,5.25 L14,5.25 Q14.311,5.25 14.53,5.47 Q14.75,5.689 14.75,6 Q14.75,6.311 14.53,6.53 Q14.311,6.75 14,6.75 L12.75,6.75 Z"/>
</svg>

