<svg xmlns="http://www.w3.org/2000/svg" width="24" height="24" viewBox="0 0 24 24">
  <defs/>
  <path fill="#292D32" d="M21.691,2.71 C21.611,2.53 21.471,2.38 21.281,2.3 C21.191,2.27 21.101,2.25 21.001,2.25 L17.001,2.25 C16.591,2.25 16.251,2.59 16.251,3 C16.251,3.41 16.591,3.75 17.001,3.75 L19.191,3.75 L14.471,8.47 C14.181,8.76 14.181,9.24 14.471,9.53 C14.621,9.68 14.811,9.75 15.001,9.75 C15.191,9.75 15.381,9.68 15.531,9.53 L20.251,4.81 L20.251,7 C20.251,7.41 20.591,7.75 21.001,7.75 C21.411,7.75 21.751,7.41 21.751,7 L21.751,3 C21.751,2.9 21.731,2.81 21.691,2.71 Z"/>
  <path fill="#292D32" d="M8.47,14.471 L3.75,19.191 L3.75,17.001 C3.75,16.591 3.41,16.251 3,16.251 C2.59,16.251 2.25,16.591 2.25,17.001 L2.25,21.001 C2.25,21.101 2.27,21.191 2.31,21.291 C2.39,21.471 2.53,21.621 2.72,21.701 C2.8,21.731 2.9,21.751 3,21.751 L7,21.751 C7.41,21.751 7.75,21.411 7.75,21.001 C7.75,20.591 7.41,20.251 7,20.251 L4.81,20.251 L9.53,15.531 C9.82,15.241 9.82,14.761 9.53,14.471 C9.24,14.181 8.76,14.181 8.47,14.471 Z"/>
  <path fill="#292D32" d="M2.2,14.75 C1.85,14.75 1.54,14.5 1.47,14.15 C1.33,13.45 1.25,12.72 1.25,12 C1.25,6.07 6.07,1.25 12,1.25 C12.73,1.25 13.46,1.32 14.17,1.47 C14.58,1.55 14.84,1.95 14.76,2.35 C14.68,2.76 14.27,3.01 13.88,2.94 C13.25,2.81 12.63,2.75 12,2.75 C6.9,2.75 2.75,6.9 2.75,12 C2.75,12.62 2.81,13.25 2.94,13.85 C3.02,14.26 2.76,14.65 2.35,14.73 C2.3,14.75 2.25,14.75 2.2,14.75 Z"/>
  <path fill="#292D32" d="M12.001,22.748 C11.271,22.748 10.541,22.678 9.831,22.528 C9.421,22.448 9.161,22.048 9.241,21.648 C9.321,21.238 9.731,20.988 10.121,21.058 C10.731,21.178 11.361,21.248 11.991,21.248 C17.091,21.248 21.241,17.098 21.241,11.998 C21.241,11.378 21.181,10.758 21.061,10.148 C20.981,9.738 21.241,9.348 21.651,9.268 C22.061,9.188 22.451,9.448 22.531,9.858 C22.671,10.558 22.741,11.278 22.741,11.998 C22.751,17.928 17.931,22.748 12.001,22.748 Z"/>
</svg>

