<svg xmlns="http://www.w3.org/2000/svg" width="24" height="24" viewBox="0 0 24 24">
  <defs/>
  <path fill="#292D32" d="M11,16.15 L11,18.85 C11,21.1 10.1,22 7.85,22 L5.15,22 C2.9,22 2,21.1 2,18.85 L2,16.15 C2,13.9 2.9,13 5.15,13 L7.85,13 C10.1,13 11,13.9 11,16.15 Z"/>
  <path fill="#292D32" d="M16.48,2 L8.52,2 C5.47,2 3,4.47 3,7.52 L3,10.5 C3,11.05 3.45,11.5 4,11.5 L8.5,11.5 C10.71,11.5 12.5,13.29 12.5,15.5 L12.5,20 C12.5,20.55 12.95,21 13.5,21 L16.48,21 C19.93,21 22,18.94 22,15.48 L22,7.52 C22,4.47 19.53,2 16.48,2 Z M18.76,9.99 C18.76,10.4 18.42,10.74 18.01,10.74 C17.6,10.74 17.26,10.4 17.26,9.99 L17.26,7.79 L13.53,11.53 C13.38,11.68 13.19,11.75 13,11.75 C12.81,11.75 12.62,11.68 12.47,11.53 C12.18,11.24 12.18,10.76 12.47,10.47 L16.2,6.72 L14,6.72 C13.58,6.72 13.25,6.39 13.25,5.97 C13.25,5.56 13.58,5.22 14,5.22 L18.01,5.22 C18.1,5.22 18.19,5.25 18.27,5.28 C18.3,5.29 18.32,5.3 18.34,5.31 C18.4,5.34 18.45,5.37 18.5,5.42 C18.52,5.43 18.54,5.45 18.56,5.47 C18.61,5.53 18.65,5.59 18.69,5.66 C18.69,5.67 18.7,5.68 18.7,5.69 C18.74,5.77 18.75,5.86 18.75,5.95 C18.76,5.96 18.76,5.96 18.76,5.97 L18.76,9.99 Z"/>
</svg>

