<svg xmlns="http://www.w3.org/2000/svg" width="24" height="24" viewBox="0 0 24 24">
  <defs/>
  <path fill="#292D32" d="M12,15.75 C7.86,15.75 4.5,12.5 4.5,8.5 C4.5,4.5 7.86,1.25 12,1.25 C16.14,1.25 19.5,4.5 19.5,8.5 C19.5,12.5 16.14,15.75 12,15.75 Z M12,2.75 C8.69,2.75 6,5.33 6,8.5 C6,11.67 8.69,14.25 12,14.25 C15.31,14.25 18,11.67 18,8.5 C18,5.33 15.31,2.75 12,2.75 Z"/>
  <path fill="#292D32" d="M15.62,22.75 C15.34,22.75 15.06,22.68 14.77,22.55 L12.08,21.28 C12.05,21.27 11.94,21.27 11.9,21.28 L9.23,22.54 C8.64,22.82 8.02,22.81 7.54,22.5 C7.04,22.18 6.75,21.59 6.76,20.89 L6.77,13.51 C6.77,13.1 7.09,12.74 7.52,12.76 C7.93,12.76 8.27,13.1 8.27,13.51 L8.26,20.89 C8.26,21.11 8.32,21.22 8.35,21.23 C8.37,21.24 8.46,21.25 8.6,21.18 L11.28,19.91 C11.71,19.71 12.3,19.71 12.73,19.91 L15.42,21.18 C15.56,21.25 15.65,21.24 15.67,21.23 C15.7,21.21 15.76,21.1 15.76,20.89 L15.76,13.33 C15.76,12.92 16.1,12.58 16.51,12.58 C16.92,12.58 17.26,12.92 17.26,13.33 L17.26,20.89 C17.26,21.6 16.97,22.18 16.47,22.5 C16.21,22.67 15.92,22.75 15.62,22.75 Z"/>
</svg>

