<svg xmlns="http://www.w3.org/2000/svg" width="24" height="24" viewBox="0 0 24 24">
  <defs/>
  <path fill="#292D32" d="M19.75,9 Q19.75,11.362 18.454,13.306 Q16.53,16.157 13.169,16.651 Q12.6,16.75 12,16.75 Q11.4,16.75 10.831,16.651 Q7.47,16.157 5.548,13.31 Q4.25,11.362 4.25,9 Q4.25,5.787 6.518,3.518 Q8.787,1.25 12,1.25 Q15.213,1.25 17.482,3.518 Q19.75,5.787 19.75,9 Z M18.25,9 Q18.25,6.408 16.421,4.579 Q14.592,2.75 12,2.75 Q9.408,2.75 7.579,4.579 Q5.75,6.408 5.75,9 Q5.75,10.908 6.792,12.47 Q8.346,14.773 11.058,15.168 Q11.069,15.169 11.08,15.171 Q11.526,15.25 12,15.25 Q12.474,15.25 12.92,15.171 Q12.931,15.169 12.942,15.168 Q15.654,14.773 17.206,12.474 Q18.25,10.908 18.25,9 Z"/>
  <path fill="#292D32" d="M21.423,19.2 L19.773,19.59 Q19.622,19.627 19.593,19.758 L19.24,21.244 Q18.99,22.294 17.939,22.541 Q16.891,22.788 16.196,21.963 L12.001,17.143 L7.796,21.982 Q7.109,22.798 6.061,22.551 Q5.01,22.304 4.76,21.253 L4.41,19.784 Q4.374,19.632 4.237,19.602 L2.577,19.21 Q1.58,18.974 1.297,17.984 Q1.015,16.994 1.74,16.27 L5.64,12.37 Q5.859,12.15 6.17,12.15 Q6.481,12.15 6.7,12.37 Q6.751,12.421 6.792,12.48 Q8.346,14.783 11.058,15.178 Q11.069,15.179 11.08,15.181 Q11.467,15.25 11.876,15.259 Q11.961,15.245 12.052,15.252 Q12.085,15.254 12.117,15.259 Q12.529,15.25 12.92,15.181 Q12.931,15.179 12.942,15.178 Q15.654,14.783 17.208,12.48 Q17.382,12.223 17.687,12.164 Q17.992,12.105 18.25,12.278 Q18.309,12.319 18.36,12.37 L22.26,16.27 Q22.987,16.983 22.702,17.976 Q22.42,18.964 21.423,19.2 Z M10.483,16.602 Q7.81,16.1 6.09,14.041 L2.8,17.33 Q2.699,17.431 2.74,17.573 Q2.781,17.717 2.922,17.75 L4.563,18.138 Q5.61,18.371 5.87,19.436 L6.22,20.907 Q6.255,21.056 6.404,21.091 Q6.555,21.127 6.664,20.998 L10.483,16.602 Z M21.077,17.74 L21.077,17.74 Q21.219,17.706 21.26,17.564 Q21.299,17.428 21.2,17.33 L17.91,14.041 Q16.19,16.1 13.518,16.602 L17.344,20.997 Q17.445,21.117 17.596,21.081 Q17.745,21.046 17.78,20.896 L18.127,19.442 Q18.354,18.391 19.427,18.13 Z"/>
  <path fill="#292D32" d="M13.251,5.645 L13.817,6.778 L14.844,6.95 Q15.805,7.106 16.048,7.87 Q16.291,8.63 15.6,9.32 L14.812,10.109 L15.04,11.09 Q15.296,12.18 14.615,12.68 Q13.932,13.181 12.965,12.604 L12.02,12.046 L11.071,12.606 Q10.105,13.17 9.428,12.678 Q8.744,12.181 9,11.089 L9.228,10.109 L8.44,9.32 Q7.749,8.63 7.992,7.872 Q8.233,7.12 9.19,6.951 L10.212,6.779 L10.773,5.656 Q11.19,4.75 12.004,4.75 Q12.804,4.75 13.251,5.645 Z M12.015,6.527 L11.531,7.495 Q11.212,8.133 10.514,8.25 L9.638,8.397 L10.33,9.09 Q10.864,9.624 10.7,10.4 L10.516,11.192 L11.299,10.73 Q12.02,10.289 12.731,10.724 L13.524,11.192 L13.342,10.412 Q13.151,9.648 13.71,9.09 L14.402,8.397 L13.533,8.251 Q12.821,8.138 12.499,7.495 L12.015,6.527 Z M12.076,12.013 Q12.079,12.011 12.081,12.01 L12.076,12.013 Z M14.799,10.053 Q14.798,10.05 14.798,10.048 L14.799,10.053 Z M11.972,12.018 L11.969,12.016 Q11.971,12.017 11.972,12.018 Z"/>
</svg>

