<svg xmlns="http://www.w3.org/2000/svg" width="24" height="24" viewBox="0 0 24 24">
  <defs/>
  <path fill="#292D32" d="M21.25,18.47 L19.6,18.86 C19.23,18.95 18.94,19.23 18.86,19.6 L18.51,21.07 C18.32,21.87 17.3,22.12 16.77,21.49 L13.78,18.05 C13.54,17.77 13.67,17.33 14.03,17.24 C15.8,16.81 17.39,15.82 18.56,14.41 C18.75,14.18 19.09,14.15 19.3,14.36 L21.52,16.58 C22.28,17.34 22.01,18.29 21.25,18.47 Z"/>
  <path fill="#292D32" d="M2.699,18.47 L4.349,18.86 C4.719,18.95 5.009,19.23 5.089,19.6 L5.439,21.07 C5.629,21.87 6.649,22.12 7.179,21.49 L10.169,18.05 C10.409,17.77 10.279,17.33 9.919,17.24 C8.149,16.81 6.559,15.82 5.389,14.41 C5.199,14.18 4.859,14.15 4.649,14.36 L2.429,16.58 C1.669,17.34 1.939,18.29 2.699,18.47 Z"/>
  <path fill="#292D32" d="M12,2 C8.13,2 5,5.13 5,9 C5,10.45 5.43,11.78 6.17,12.89 C7.25,14.49 8.96,15.62 10.95,15.91 C11.29,15.97 11.64,16 12,16 C12.36,16 12.71,15.97 13.05,15.91 C15.04,15.62 16.75,14.49 17.83,12.89 C18.57,11.78 19,10.45 19,9 C19,5.13 15.87,2 12,2 Z M15.06,8.78 L14.23,9.61 C14.09,9.75 14.01,10.02 14.06,10.22 L14.3,11.25 C14.49,12.06 14.06,12.38 13.34,11.95 L12.34,11.36 C12.16,11.25 11.86,11.25 11.68,11.36 L10.68,11.95 C9.96,12.37 9.53,12.06 9.72,11.25 L9.96,10.22 C10,10.03 9.93,9.75 9.79,9.61 L8.94,8.78 C8.45,8.29 8.61,7.8 9.29,7.69 L10.36,7.51 C10.54,7.48 10.75,7.32 10.83,7.16 L11.42,5.98 C11.74,5.34 12.26,5.34 12.58,5.98 L13.17,7.16 C13.25,7.32 13.46,7.48 13.65,7.51 L14.72,7.69 C15.39,7.8 15.55,8.29 15.06,8.78 Z"/>
</svg>

