<svg xmlns="http://www.w3.org/2000/svg" width="24" height="24" viewBox="0 0 24 24">
  <defs/>
  <path fill="#292D32" d="M12,15 C15.728,15 18.75,12.09 18.75,8.5 C18.75,4.91 15.728,2 12,2 C8.272,2 5.25,4.91 5.25,8.5 C5.25,12.09 8.272,15 12,15 Z"/>
  <path fill="#292D32" d="M15.79,15.609 C16.12,15.439 16.5,15.689 16.5,16.059 L16.5,20.909 C16.5,21.809 15.87,22.249 15.09,21.879 L12.41,20.609 C12.18,20.509 11.82,20.509 11.59,20.609 L8.91,21.879 C8.13,22.239 7.5,21.799 7.5,20.899 L7.52,16.059 C7.52,15.689 7.91,15.449 8.23,15.609 C9.36,16.179 10.64,16.499 12,16.499 C13.36,16.499 14.65,16.179 15.79,15.609 Z"/>
</svg>

