<svg xmlns="http://www.w3.org/2000/svg" width="24" height="24" viewBox="0 0 24 24">
  <defs/>
  <path fill="#292D32" d="M12,15.75 Q8.902,15.75 6.707,13.636 Q4.5,11.511 4.5,8.5 Q4.5,5.489 6.707,3.364 Q8.902,1.25 12,1.25 Q15.098,1.25 17.293,3.364 Q19.5,5.489 19.5,8.5 Q19.5,11.511 17.293,13.636 Q15.098,15.75 12,15.75 Z M12,14.25 Q14.494,14.25 16.253,12.556 Q18,10.873 18,8.5 Q18,6.127 16.253,4.444 Q14.494,2.75 12,2.75 Q9.506,2.75 7.747,4.444 Q6,6.127 6,8.5 Q6,10.873 7.747,12.556 Q9.506,14.25 12,14.25 Z"/>
  <path fill="#292D32" d="M8.27,13.521 L8.26,20.901 Q8.26,21.183 8.349,21.244 Q8.406,21.284 8.599,21.192 L11.279,19.922 Q12.001,19.561 12.737,19.925 L15.42,21.192 Q15.609,21.28 15.671,21.238 Q15.76,21.177 15.76,20.9 L15.76,13.34 Q15.76,13.029 15.98,12.81 Q16.199,12.59 16.51,12.59 Q16.821,12.59 17.04,12.81 Q17.26,13.029 17.26,13.34 L17.26,20.9 Q17.26,21.969 16.517,22.477 Q15.749,23.001 14.78,22.548 L12.09,21.278 Q12.082,21.275 12.075,21.271 Q12.005,21.236 11.921,21.278 L9.241,22.548 Q8.266,23.01 7.496,22.478 Q6.76,21.969 6.76,20.899 L6.77,13.519 Q6.77,13.208 6.99,12.989 Q7.21,12.77 7.521,12.77 Q7.832,12.77 8.051,12.99 Q8.27,13.21 8.27,13.521 Z"/>
</svg>

