<svg xmlns="http://www.w3.org/2000/svg" width="24" height="24" viewBox="0 0 24 24">
  <defs/>
  <path fill="#292D32" d="M12,16.75 C11.6,16.75 11.2,16.72 10.82,16.65 C8.7,16.34 6.77,15.12 5.55,13.31 C4.7,12.03 4.25,10.54 4.25,9 C4.25,4.73 7.73,1.25 12,1.25 C16.27,1.25 19.75,4.73 19.75,9 C19.75,10.54 19.3,12.03 18.45,13.31 C17.22,15.13 15.29,16.34 13.15,16.66 C12.8,16.72 12.4,16.75 12,16.75 Z M12,2.75 C8.55,2.75 5.75,5.55 5.75,9 C5.75,10.25 6.11,11.45 6.79,12.47 C7.78,13.93 9.33,14.91 11.05,15.16 C11.69,15.27 12.32,15.27 12.91,15.16 C14.66,14.91 16.21,13.92 17.2,12.46 C17.88,11.44 18.24,10.24 18.24,8.99 C18.25,5.55 15.45,2.75 12,2.75 Z"/>
  <path fill="#292D32" d="M6.469,22.59 C6.329,22.59 6.199,22.57 6.059,22.54 C5.409,22.39 4.909,21.89 4.759,21.24 L4.409,19.77 C4.389,19.68 4.319,19.61 4.219,19.58 L2.569,19.19 C1.949,19.04 1.459,18.58 1.289,17.97 C1.119,17.36 1.289,16.7 1.739,16.25 L5.639,12.35 C5.799,12.19 6.019,12.11 6.239,12.13 C6.459,12.15 6.659,12.27 6.789,12.46 C7.779,13.92 9.329,14.91 11.059,15.16 C11.699,15.27 12.329,15.27 12.919,15.16 C14.669,14.91 16.219,13.92 17.209,12.46 C17.329,12.27 17.539,12.15 17.759,12.13 C17.979,12.11 18.199,12.19 18.359,12.35 L22.259,16.25 C22.709,16.7 22.879,17.36 22.709,17.97 C22.539,18.58 22.039,19.05 21.429,19.19 L19.779,19.58 C19.689,19.6 19.619,19.67 19.589,19.77 L19.239,21.24 C19.089,21.89 18.589,22.39 17.939,22.54 C17.289,22.7 16.619,22.47 16.199,21.96 L11.999,17.13 L7.799,21.97 C7.459,22.37 6.979,22.59 6.469,22.59 Z M6.089,14.03 L2.799,17.32 C2.709,17.41 2.719,17.51 2.739,17.57 C2.749,17.62 2.799,17.72 2.919,17.74 L4.569,18.13 C5.219,18.28 5.719,18.78 5.869,19.43 L6.219,20.9 C6.249,21.03 6.349,21.07 6.409,21.09 C6.469,21.1 6.569,21.11 6.659,21.01 L10.489,16.6 C8.789,16.27 7.229,15.36 6.089,14.03 Z M13.509,16.59 L17.339,20.99 C17.429,21.1 17.539,21.1 17.599,21.08 C17.659,21.07 17.749,21.02 17.789,20.89 L18.139,19.42 C18.289,18.77 18.789,18.27 19.439,18.12 L21.089,17.73 C21.209,17.7 21.259,17.61 21.269,17.56 C21.289,17.51 21.299,17.4 21.209,17.31 L17.919,14.02 C16.769,15.35 15.219,16.26 13.509,16.59 Z"/>
  <path fill="#292D32" d="M13.891,12.89 C13.631,12.89 13.321,12.82 12.951,12.6 L12.001,12.03 L11.051,12.59 C10.181,13.11 9.611,12.81 9.401,12.66 C9.191,12.51 8.741,12.06 8.971,11.07 L9.211,10.04 L8.411,9.3 C7.971,8.86 7.811,8.33 7.961,7.85 C8.111,7.37 8.551,7.03 9.171,6.93 L10.241,6.75 L10.751,5.63 C11.041,5.06 11.491,4.74 12.001,4.74 C12.511,4.74 12.971,5.07 13.251,5.64 L13.841,6.82 L14.831,6.94 C15.441,7.04 15.881,7.38 16.041,7.86 C16.191,8.34 16.031,8.87 15.591,9.31 L14.761,10.14 L15.021,11.07 C15.251,12.06 14.801,12.51 14.591,12.66 C14.481,12.75 14.241,12.89 13.891,12.89 Z M9.611,8.39 L10.301,9.08 C10.621,9.4 10.781,9.94 10.681,10.38 L10.491,11.18 L11.291,10.71 C11.721,10.46 12.301,10.46 12.721,10.71 L13.521,11.18 L13.341,10.38 C13.241,9.93 13.391,9.4 13.711,9.08 L14.401,8.39 L13.531,8.24 C13.111,8.17 12.691,7.86 12.501,7.48 L12.001,6.5 L11.501,7.5 C11.321,7.87 10.901,8.19 10.481,8.26 L9.611,8.39 Z"/>
</svg>

