<svg xmlns="http://www.w3.org/2000/svg" width="24" height="24" viewBox="0 0 24 24">
  <defs/>
  <path fill="#292D32" opacity="0.4" d="M19,9 C19,10.45 18.57,11.78 17.83,12.89 C16.75,14.49 15.04,15.62 13.05,15.91 C12.71,15.97 12.36,16 12,16 C11.64,16 11.29,15.97 10.95,15.91 C8.96,15.62 7.25,14.49 6.17,12.89 C5.43,11.78 5,10.45 5,9 C5,5.13 8.13,2 12,2 C15.87,2 19,5.13 19,9 Z"/>
  <path fill="#292D32" d="M21.249,18.47 L19.599,18.86 C19.229,18.95 18.939,19.23 18.859,19.6 L18.509,21.07 C18.319,21.87 17.299,22.11 16.769,21.48 L11.999,16 L7.229,21.49 C6.699,22.12 5.679,21.88 5.489,21.08 L5.139,19.61 C5.049,19.24 4.759,18.95 4.399,18.87 L2.749,18.48 C1.989,18.3 1.719,17.35 2.269,16.8 L6.169,12.9 C7.249,14.5 8.959,15.63 10.949,15.92 C11.289,15.98 11.639,16.01 11.999,16.01 C12.359,16.01 12.709,15.98 13.049,15.92 C15.039,15.63 16.749,14.5 17.829,12.9 L21.729,16.8 C22.279,17.34 22.009,18.29 21.249,18.47 Z"/>
  <path fill="#292D32" d="M12.58,5.98 L13.17,7.16 C13.25,7.32 13.46,7.48 13.65,7.51 L14.72,7.69 C15.4,7.8 15.56,8.3 15.07,8.79 L14.24,9.62 C14.1,9.76 14.02,10.03 14.07,10.23 L14.31,11.26 C14.5,12.07 14.07,12.39 13.35,11.96 L12.35,11.37 C12.17,11.26 11.87,11.26 11.69,11.37 L10.69,11.96 C9.97,12.38 9.54,12.07 9.73,11.26 L9.97,10.23 C10.01,10.04 9.94,9.76 9.8,9.62 L8.97,8.79 C8.48,8.3 8.64,7.81 9.32,7.69 L10.39,7.51 C10.57,7.48 10.78,7.32 10.86,7.16 L11.45,5.98 C11.74,5.34 12.26,5.34 12.58,5.98 Z"/>
</svg>

