<svg xmlns="http://www.w3.org/2000/svg" width="24" height="24" viewBox="0 0 24 24">
  <defs/>
  <path fill="#292D32" d="M22.658,6.941 L19.288,20.471 Q18.746,22.75 16.38,22.75 L3.24,22.75 Q1.727,22.75 0.829,21.521 Q-0.066,20.295 0.384,18.848 L4.594,5.327 Q5.247,3.21 7.45,3.21 L19.75,3.21 Q21.748,3.21 22.51,5.046 Q22.899,5.935 22.659,6.935 Z M21.134,5.643 L21.13,5.635 L21.127,5.626 Q20.749,4.71 19.75,4.71 L7.45,4.71 Q6.354,4.71 6.026,5.773 L1.816,19.292 Q1.591,20.02 2.041,20.636 Q2.489,21.25 3.24,21.25 L16.38,21.25 Q17.561,21.25 17.832,20.109 L21.201,6.585 L21.201,6.582 Q21.323,6.071 21.134,5.643 Z"/>
  <path fill="#292D32" d="M16,21.25 L20.78,21.25 Q21.42,21.25 21.853,20.784 Q22.287,20.316 22.242,19.672 L21.252,6.054 Q21.229,5.745 21.433,5.51 Q21.636,5.274 21.946,5.252 Q22.255,5.229 22.49,5.433 Q22.726,5.636 22.748,5.946 L23.738,19.568 Q23.828,20.86 22.952,21.804 Q22.074,22.75 20.78,22.75 L16,22.75 Q15.689,22.75 15.47,22.53 Q15.25,22.311 15.25,22 Q15.25,21.689 15.47,21.47 Q15.689,21.25 16,21.25 Z"/>
  <path fill="#292D32" d="M8.951,6.204 L9.991,1.885 Q10.064,1.582 10.329,1.42 Q10.594,1.258 10.896,1.331 Q11.198,1.404 11.36,1.669 Q11.522,1.934 11.449,2.236 L10.409,6.556 Q10.336,6.858 10.071,7.02 Q9.806,7.182 9.504,7.109 Q9.202,7.036 9.04,6.771 Q8.878,6.506 8.951,6.204 Z"/>
  <path fill="#292D32" d="M15.647,6.231 L16.587,1.891 Q16.653,1.588 16.914,1.419 Q17.175,1.251 17.479,1.317 Q17.782,1.383 17.951,1.644 Q18.119,1.905 18.053,2.209 L17.113,6.549 Q17.047,6.852 16.786,7.021 Q16.525,7.189 16.221,7.123 Q15.918,7.057 15.749,6.796 Q15.581,6.535 15.647,6.231 Z"/>
  <path fill="#292D32" d="M7.7,11.25 L15.7,11.25 Q16.011,11.25 16.23,11.47 Q16.45,11.689 16.45,12 Q16.45,12.311 16.23,12.53 Q16.011,12.75 15.7,12.75 L7.7,12.75 Q7.389,12.75 7.17,12.53 Q6.95,12.311 6.95,12 Q6.95,11.689 7.17,11.47 Q7.389,11.25 7.7,11.25 Z"/>
  <path fill="#292D32" d="M6.7,15.25 L14.7,15.25 Q15.011,15.25 15.23,15.47 Q15.45,15.689 15.45,16 Q15.45,16.311 15.23,16.53 Q15.011,16.75 14.7,16.75 L6.7,16.75 Q6.389,16.75 6.17,16.53 Q5.95,16.311 5.95,16 Q5.95,15.689 6.17,15.47 Q6.389,15.25 6.7,15.25 Z"/>
</svg>

