<svg xmlns="http://www.w3.org/2000/svg" width="24" height="24" viewBox="0 0 24 24">
  <defs/>
  <path fill="#292D32" opacity="0.4" d="M21.99,6.02 C22.01,6.26 21.99,6.51 21.93,6.76 L18.56,20.29 C18.32,21.3 17.42,22 16.38,22 L3.24,22 C1.73,22 0.66,20.52 1.1,19.07 L5.31,5.54 C5.6,4.6 6.47,3.96 7.45,3.96 L19.75,3.96 C20.71,3.96 21.49,4.53 21.82,5.33 C21.92,5.54 21.97,5.78 21.99,6.02 Z"/>
  <path fill="#292D32" d="M22.991,19.62 C23.091,20.91 22.071,22 20.781,22 L16.381,22 C17.421,22 18.321,21.3 18.561,20.29 L21.931,6.76 C21.991,6.51 22.011,6.26 21.991,6.02 L22.001,6 L22.991,19.62 Z"/>
  <path fill="#292D32" d="M9.68,7.13 C9.62,7.13 9.56,7.12 9.5,7.11 C9.1,7.01 8.85,6.61 8.95,6.2 L9.99,1.88 C10.09,1.48 10.49,1.24 10.9,1.33 C11.3,1.43 11.55,1.83 11.45,2.24 L10.41,6.56 C10.33,6.9 10.02,7.13 9.68,7.13 Z"/>
  <path fill="#292D32" d="M16.38,7.14 C16.329,7.14 16.269,7.14 16.219,7.12 C15.819,7.03 15.559,6.63 15.639,6.23 L16.579,1.89 C16.669,1.48 17.069,1.23 17.469,1.31 C17.869,1.4 18.129,1.8 18.049,2.2 L17.109,6.54 C17.039,6.9 16.73,7.14 16.38,7.14 Z"/>
  <path fill="#292D32" d="M15.699,12.75 L7.699,12.75 C7.289,12.75 6.949,12.41 6.949,12 C6.949,11.59 7.289,11.25 7.699,11.25 L15.699,11.25 C16.109,11.25 16.449,11.59 16.449,12 C16.449,12.41 16.109,12.75 15.699,12.75 Z"/>
  <path fill="#292D32" d="M14.699,16.75 L6.699,16.75 C6.289,16.75 5.949,16.41 5.949,16 C5.949,15.59 6.289,15.25 6.699,15.25 L14.699,15.25 C15.109,15.25 15.449,15.59 15.449,16 C15.449,16.41 15.109,16.75 14.699,16.75 Z"/>
</svg>

