<svg xmlns="http://www.w3.org/2000/svg" width="24" height="24" viewBox="0 0 24 24">
  <defs/>
  <path fill="#292D32" d="M1.818,19.286 Q1.595,20.025 2.044,20.64 Q2.489,21.25 3.24,21.25 L16.38,21.25 Q17.549,21.25 17.832,20.11 L21.202,6.579 Q21.323,6.072 21.134,5.643 Q21.13,5.635 21.126,5.626 Q20.749,4.71 19.75,4.71 L7.45,4.71 Q6.339,4.71 6.029,5.762 L3.396,14.233 Q3.304,14.529 3.029,14.674 Q2.754,14.818 2.457,14.726 Q2.16,14.634 2.016,14.359 Q1.871,14.084 1.964,13.787 L4.59,5.338 Q5.218,3.21 7.45,3.21 L19.75,3.21 Q21.748,3.21 22.51,5.046 Q22.899,5.935 22.657,6.941 L19.288,20.47 Q18.723,22.75 16.38,22.75 L3.24,22.75 Q1.727,22.75 0.833,21.524 Q-0.056,20.306 0.382,18.853 Q0.471,18.556 0.745,18.409 Q1.019,18.262 1.316,18.352 Q1.614,18.441 1.761,18.715 Q1.907,18.989 1.818,19.286 Z"/>
  <path fill="#292D32" d="M16,21.25 L20.78,21.25 Q21.42,21.25 21.853,20.784 Q22.287,20.316 22.242,19.672 L21.252,6.054 Q21.229,5.745 21.433,5.51 Q21.636,5.274 21.946,5.252 Q22.255,5.229 22.49,5.433 Q22.726,5.636 22.748,5.946 L23.738,19.568 Q23.828,20.86 22.952,21.804 Q22.074,22.75 20.78,22.75 L16,22.75 Q15.689,22.75 15.47,22.53 Q15.25,22.311 15.25,22 Q15.25,21.689 15.47,21.47 Q15.689,21.25 16,21.25 Z"/>
  <path fill="#292D32" d="M8.951,6.204 L9.991,1.885 Q10.063,1.582 10.328,1.42 Q10.593,1.258 10.895,1.331 Q11.197,1.404 11.359,1.669 Q11.522,1.934 11.449,2.236 L10.409,6.556 Q10.336,6.858 10.071,7.02 Q9.806,7.182 9.504,7.109 Q9.202,7.036 9.04,6.771 Q8.878,6.506 8.951,6.204 Z"/>
  <path fill="#292D32" d="M15.648,6.231 L16.588,1.891 Q16.654,1.588 16.915,1.419 Q17.176,1.251 17.48,1.317 Q17.783,1.383 17.951,1.644 Q18.12,1.905 18.054,2.209 L17.114,6.549 Q17.048,6.852 16.787,7.021 Q16.526,7.189 16.222,7.123 Q15.919,7.057 15.75,6.796 Q15.582,6.535 15.648,6.231 Z"/>
  <path fill="#292D32" d="M7.699,11.25 L15.699,11.25 Q16.01,11.25 16.23,11.47 Q16.449,11.689 16.449,12 Q16.449,12.311 16.23,12.53 Q16.01,12.75 15.699,12.75 L7.699,12.75 Q7.389,12.75 7.169,12.53 Q6.949,12.311 6.949,12 Q6.949,11.689 7.169,11.47 Q7.389,11.25 7.699,11.25 Z"/>
  <path fill="#292D32" d="M14.7,16.75 L14,16.75 Q13.689,16.75 13.47,16.53 Q13.25,16.311 13.25,16 Q13.25,15.689 13.47,15.47 Q13.689,15.25 14,15.25 L14.7,15.25 Q15.011,15.25 15.23,15.47 Q15.45,15.689 15.45,16 Q15.45,16.311 15.23,16.53 Q15.011,16.75 14.7,16.75 Z"/>
  <path fill="#292D32" d="M6.699,15.25 L10.999,15.25 Q11.31,15.25 11.53,15.47 Q11.749,15.689 11.749,16 Q11.749,16.311 11.53,16.53 Q11.31,16.75 10.999,16.75 L6.699,16.75 Q6.389,16.75 6.169,16.53 Q5.949,16.311 5.949,16 Q5.949,15.689 6.169,15.47 Q6.389,15.25 6.699,15.25 Z"/>
</svg>

