<svg xmlns="http://www.w3.org/2000/svg" width="24" height="24" viewBox="0 0 24 24">
  <defs/>
  <path fill="#292D32" opacity="0.4" d="M16.19,2 L7.81,2 C4.17,2 2,4.17 2,7.81 L2,16.18 C2,19.83 4.17,22 7.81,22 L16.18,22 C19.82,22 21.99,19.83 21.99,16.19 L21.99,7.81 C22,4.17 19.83,2 16.19,2 Z"/>
  <path fill="#292D32" d="M17,8.25 L7,8.25 C6.59,8.25 6.25,7.91 6.25,7.5 C6.25,7.09 6.59,6.75 7,6.75 L17,6.75 C17.41,6.75 17.75,7.09 17.75,7.5 C17.75,7.91 17.41,8.25 17,8.25 Z"/>
  <path fill="#292D32" d="M17,12.75 L7,12.75 C6.59,12.75 6.25,12.41 6.25,12 C6.25,11.59 6.59,11.25 7,11.25 L17,11.25 C17.41,11.25 17.75,11.59 17.75,12 C17.75,12.41 17.41,12.75 17,12.75 Z"/>
  <path fill="#292D32" d="M17,17.25 L7,17.25 C6.59,17.25 6.25,16.91 6.25,16.5 C6.25,16.09 6.59,15.75 7,15.75 L17,15.75 C17.41,15.75 17.75,16.09 17.75,16.5 C17.75,16.91 17.41,17.25 17,17.25 Z"/>
</svg>

