<svg xmlns="http://www.w3.org/2000/svg" width="24" height="24" viewBox="0 0 24 24">
  <defs/>
  <path fill="#292D32" d="M17.54,9.06 Q15.935,9.06 15.133,8.257 Q14.33,7.455 14.33,5.85 Q14.33,4.52 15.27,3.58 Q16.21,2.64 17.54,2.64 Q20.75,2.64 20.75,5.85 Q20.75,7.18 19.81,8.12 Q18.87,9.06 17.54,9.06 Z M17.54,7.56 Q19.25,7.56 19.25,5.85 Q19.25,4.14 17.54,4.14 Q16.832,4.14 16.331,4.641 Q15.83,5.142 15.83,5.85 Q15.83,6.705 16.258,7.132 Q16.685,7.56 17.54,7.56 Z"/>
  <path fill="#292D32" d="M8.17,5.85 Q8.17,4.14 6.46,4.14 Q4.75,4.14 4.75,5.85 Q4.75,7.56 6.46,7.56 Q6.771,7.56 6.99,7.78 Q7.21,7.999 7.21,8.31 Q7.21,8.621 6.99,8.84 Q6.771,9.06 6.46,9.06 Q3.25,9.06 3.25,5.85 Q3.25,4.519 4.19,3.58 Q5.129,2.64 6.46,2.64 Q7.791,2.64 8.73,3.58 Q9.67,4.519 9.67,5.85 Q9.67,6.161 9.45,6.38 Q9.231,6.6 8.92,6.6 Q8.609,6.6 8.39,6.38 Q8.17,6.161 8.17,5.85 Z"/>
  <path fill="#292D32" d="M17.54,19.87 Q19.25,19.87 19.25,18.16 Q19.25,17.451 18.75,16.95 Q18.249,16.45 17.54,16.45 Q16.831,16.45 16.33,16.95 Q15.83,17.451 15.83,18.16 Q15.83,18.471 15.61,18.69 Q15.391,18.91 15.08,18.91 Q14.769,18.91 14.55,18.69 Q14.33,18.471 14.33,18.16 Q14.33,16.829 15.27,15.89 Q16.209,14.95 17.54,14.95 Q18.871,14.95 19.81,15.89 Q20.75,16.829 20.75,18.16 Q20.75,19.491 19.81,20.43 Q18.871,21.37 17.54,21.37 Q17.229,21.37 17.01,21.15 Q16.79,20.931 16.79,20.62 Q16.79,20.309 17.01,20.09 Q17.229,19.87 17.54,19.87 Z"/>
  <path fill="#292D32" d="M6.46,21.36 Q3.25,21.36 3.25,18.15 Q3.25,14.94 6.46,14.94 Q9.67,14.94 9.67,18.15 Q9.67,19.48 8.73,20.42 Q7.79,21.36 6.46,21.36 Z M6.46,19.86 Q8.17,19.86 8.17,18.15 Q8.17,16.44 6.46,16.44 Q5.752,16.44 5.251,16.941 Q4.75,17.442 4.75,18.15 Q4.75,18.858 5.251,19.359 Q5.752,19.86 6.46,19.86 Z"/>
</svg>

