<svg xmlns="http://www.w3.org/2000/svg" width="24" height="24" viewBox="0 0 24 24">
  <defs/>
  <path fill="#292D32" d="M3,6.25 L21,6.25 Q21.311,6.25 21.53,6.47 Q21.75,6.689 21.75,7 Q21.75,7.311 21.53,7.53 Q21.311,7.75 21,7.75 L3,7.75 Q2.689,7.75 2.47,7.53 Q2.25,7.311 2.25,7 Q2.25,6.689 2.47,6.47 Q2.689,6.25 3,6.25 Z"/>
  <path fill="#292D32" opacity="0.34" d="M3,11.25 L21,11.25 Q21.311,11.25 21.53,11.47 Q21.75,11.689 21.75,12 Q21.75,12.311 21.53,12.53 Q21.311,12.75 21,12.75 L3,12.75 Q2.689,12.75 2.47,12.53 Q2.25,12.311 2.25,12 Q2.25,11.689 2.47,11.47 Q2.689,11.25 3,11.25 Z"/>
  <path fill="#292D32" d="M3,16.25 L21,16.25 Q21.311,16.25 21.53,16.47 Q21.75,16.689 21.75,17 Q21.75,17.311 21.53,17.53 Q21.311,17.75 21,17.75 L3,17.75 Q2.689,17.75 2.47,17.53 Q2.25,17.311 2.25,17 Q2.25,16.689 2.47,16.47 Q2.689,16.25 3,16.25 Z"/>
</svg>

