<svg xmlns="http://www.w3.org/2000/svg" width="24" height="24" viewBox="0 0 24 24">
  <defs/>
  <path fill="#292D32" d="M20.901,9.85 L21.491,19.74 C21.511,20.01 21.381,20.19 21.311,20.27 C21.231,20.36 21.061,20.5 20.781,20.5 L18.051,20.5 L20.211,9.85 L20.901,9.85 Z M22.001,6 L21.991,6.02 C22.011,6.26 21.991,6.51 21.931,6.76 L14.561,20.29 C14.321,21.3 13.421,22 12.381,22 L20.781,22 C22.071,22 23.091,20.91 22.991,19.62 L22.001,6 Z"/>
  <path fill="#292D32" d="M11.45,2.241 C11.55,1.841 11.3,1.431 10.9,1.331 C10.5,1.241 10.09,1.481 9.99,1.881 L9.49,3.951 L11.03,3.951 L11.45,2.241 Z"/>
  <path fill="#292D32" d="M18.051,2.209 C18.141,1.799 17.881,1.409 17.471,1.319 C17.071,1.229 16.671,1.489 16.581,1.899 L16.131,3.969 L17.671,3.969 L18.051,2.209 Z"/>
  <path fill="#292D32" d="M21.82,5.331 C21.49,4.531 20.71,3.961 19.75,3.961 L17.67,3.961 L17.11,6.551 C17.03,6.901 16.72,7.141 16.38,7.141 C16.33,7.141 16.27,7.141 16.22,7.121 C15.82,7.031 15.56,6.631 15.64,6.231 L16.13,3.951 L11.03,3.951 L10.4,6.551 C10.32,6.891 10.01,7.121 9.67,7.121 C9.61,7.121 9.55,7.111 9.49,7.101 C9.09,7.001 8.84,6.601 8.94,6.191 L9.48,3.941 L7.45,3.941 C6.47,3.941 5.6,4.581 5.31,5.521 L1.1,19.071 C0.66,20.521 1.73,22.001 3.24,22.001 L16.38,22.001 C17.42,22.001 18.32,21.301 18.56,20.291 L21.93,6.761 C21.99,6.511 22.01,6.261 21.99,6.021 C21.97,5.781 21.92,5.541 21.82,5.331 Z M14.7,16.751 L6.7,16.751 C6.29,16.751 5.95,16.411 5.95,16.001 C5.95,15.591 6.29,15.251 6.7,15.251 L14.7,15.251 C15.11,15.251 15.45,15.591 15.45,16.001 C15.45,16.411 15.11,16.751 14.7,16.751 Z M15.7,12.751 L7.7,12.751 C7.29,12.751 6.95,12.411 6.95,12.001 C6.95,11.591 7.29,11.251 7.7,11.251 L15.7,11.251 C16.11,11.251 16.45,11.591 16.45,12.001 C16.45,12.411 16.11,12.751 15.7,12.751 Z"/>
</svg>

