<svg xmlns="http://www.w3.org/2000/svg" width="24" height="24" viewBox="0 0 24 24">
  <defs/>
  <path fill="#292D32" d="M22.657,6.941 L19.287,20.471 Q18.746,22.75 16.379,22.75 L3.239,22.75 Q1.726,22.75 0.828,21.521 Q-0.066,20.295 0.383,18.848 L4.593,5.327 Q5.246,3.21 7.449,3.21 L19.749,3.21 Q21.747,3.21 22.509,5.046 Q22.899,5.935 22.658,6.935 Z M21.133,5.643 L21.129,5.635 L21.126,5.626 Q20.748,4.71 19.749,4.71 L7.449,4.71 Q6.353,4.71 6.025,5.773 L1.815,19.292 Q1.59,20.02 2.04,20.636 Q2.488,21.25 3.239,21.25 L16.379,21.25 Q17.56,21.25 17.831,20.109 L21.2,6.585 L21.201,6.582 Q21.322,6.071 21.133,5.643 Z"/>
  <path fill="#292D32" opacity="0.4" d="M16,21.25 L20.78,21.25 Q21.42,21.25 21.853,20.784 Q22.287,20.316 22.242,19.672 L21.252,6.054 Q21.229,5.745 21.433,5.51 Q21.636,5.274 21.946,5.252 Q22.255,5.229 22.49,5.433 Q22.726,5.636 22.748,5.946 L23.738,19.568 Q23.828,20.86 22.952,21.804 Q22.074,22.75 20.78,22.75 L16,22.75 Q15.689,22.75 15.47,22.53 Q15.25,22.311 15.25,22 Q15.25,21.689 15.47,21.47 Q15.689,21.25 16,21.25 Z"/>
  <path fill="#292D32" d="M8.951,6.204 L9.991,1.885 Q10.063,1.582 10.328,1.42 Q10.593,1.258 10.895,1.331 Q11.197,1.404 11.359,1.669 Q11.522,1.934 11.449,2.236 L10.409,6.556 Q10.336,6.858 10.071,7.02 Q9.806,7.182 9.504,7.109 Q9.202,7.036 9.04,6.771 Q8.878,6.506 8.951,6.204 Z"/>
  <path fill="#292D32" d="M15.648,6.231 L16.588,1.891 Q16.654,1.587 16.915,1.419 Q17.176,1.251 17.48,1.317 Q17.783,1.383 17.951,1.644 Q18.12,1.905 18.054,2.209 L17.114,6.549 Q17.048,6.852 16.787,7.02 Q16.526,7.189 16.222,7.123 Q15.919,7.057 15.75,6.796 Q15.582,6.535 15.648,6.231 Z"/>
  <path fill="#292D32" opacity="0.4" d="M7.699,11.25 L15.699,11.25 Q16.01,11.25 16.23,11.47 Q16.449,11.689 16.449,12 Q16.449,12.311 16.23,12.53 Q16.01,12.75 15.699,12.75 L7.699,12.75 Q7.389,12.75 7.169,12.53 Q6.949,12.311 6.949,12 Q6.949,11.689 7.169,11.47 Q7.389,11.25 7.699,11.25 Z"/>
  <path fill="#292D32" opacity="0.4" d="M6.699,15.25 L14.699,15.25 Q15.01,15.25 15.23,15.47 Q15.449,15.689 15.449,16 Q15.449,16.311 15.23,16.53 Q15.01,16.75 14.699,16.75 L6.699,16.75 Q6.389,16.75 6.169,16.53 Q5.949,16.311 5.949,16 Q5.949,15.689 6.169,15.47 Q6.389,15.25 6.699,15.25 Z"/>
</svg>

