<svg xmlns="http://www.w3.org/2000/svg" width="24" height="24" viewBox="0 0 24 24">
  <defs/>
  <path fill="#292D32" d="M16.381,22.75 L3.241,22.75 C2.291,22.75 1.411,22.31 0.841,21.54 C0.261,20.76 0.091,19.78 0.381,18.85 L4.591,5.32 C4.971,4.06 6.131,3.2 7.451,3.2 L19.751,3.2 C20.961,3.2 22.051,3.92 22.511,5.04 C22.761,5.62 22.811,6.28 22.661,6.93 L19.291,20.46 C18.971,21.81 17.771,22.75 16.381,22.75 Z M7.461,4.71 C6.811,4.71 6.221,5.14 6.031,5.77 L1.821,19.3 C1.681,19.77 1.761,20.26 2.061,20.66 C2.341,21.04 2.781,21.26 3.251,21.26 L16.391,21.26 C17.081,21.26 17.681,20.79 17.841,20.12 L21.211,6.58 C21.291,6.25 21.271,5.92 21.141,5.63 C20.901,5.06 20.371,4.7 19.761,4.7 L7.461,4.7 L7.461,4.71 Z"/>
  <path fill="#292D32" d="M20.78,22.75 L16,22.75 C15.59,22.75 15.25,22.41 15.25,22 C15.25,21.59 15.59,21.25 16,21.25 L20.78,21.25 C21.19,21.25 21.57,21.08 21.85,20.78 C22.13,20.48 22.27,20.08 22.24,19.67 L21.25,6.05 C21.22,5.64 21.53,5.28 21.94,5.25 C22.35,5.23 22.71,5.53 22.74,5.94 L23.73,19.56 C23.79,20.38 23.5,21.2 22.94,21.8 C22.39,22.41 21.6,22.75 20.78,22.75 Z"/>
  <path fill="#292D32" d="M9.68,7.13 C9.62,7.13 9.56,7.12 9.5,7.11 C9.1,7.01 8.85,6.61 8.95,6.2 L9.99,1.88 C10.09,1.48 10.49,1.23 10.9,1.33 C11.3,1.43 11.55,1.83 11.45,2.24 L10.41,6.56 C10.33,6.9 10.02,7.13 9.68,7.13 Z"/>
  <path fill="#292D32" d="M16.38,7.14 C16.329,7.14 16.269,7.14 16.219,7.12 C15.819,7.03 15.559,6.63 15.639,6.23 L16.579,1.89 C16.669,1.48 17.069,1.23 17.469,1.31 C17.869,1.39 18.129,1.8 18.049,2.2 L17.109,6.54 C17.039,6.9 16.73,7.14 16.38,7.14 Z"/>
  <path fill="#292D32" d="M15.699,12.75 L7.699,12.75 C7.289,12.75 6.949,12.41 6.949,12 C6.949,11.59 7.289,11.25 7.699,11.25 L15.699,11.25 C16.109,11.25 16.449,11.59 16.449,12 C16.449,12.41 16.109,12.75 15.699,12.75 Z"/>
  <path fill="#292D32" d="M14.699,16.75 L6.699,16.75 C6.289,16.75 5.949,16.41 5.949,16 C5.949,15.59 6.289,15.25 6.699,15.25 L14.699,15.25 C15.109,15.25 15.449,15.59 15.449,16 C15.449,16.41 15.109,16.75 14.699,16.75 Z"/>
</svg>

