<svg xmlns="http://www.w3.org/2000/svg" width="24" height="24" viewBox="0 0 24 24">
  <defs/>
  <path fill="#292D32" d="M17.54,9.06 C15.77,9.06 14.33,7.62 14.33,5.85 C14.33,4.08 15.77,2.64 17.54,2.64 C19.31,2.64 20.75,4.08 20.75,5.85 C20.75,7.62 19.31,9.06 17.54,9.06 Z M17.54,4.13 C16.6,4.13 15.83,4.9 15.83,5.84 C15.83,6.78 16.6,7.55 17.54,7.55 C18.48,7.55 19.25,6.78 19.25,5.84 C19.25,4.9 18.48,4.13 17.54,4.13 Z"/>
  <path fill="#292D32" d="M6.46,9.06 C4.69,9.06 3.25,7.62 3.25,5.85 C3.25,4.08 4.69,2.64 6.46,2.64 C8.23,2.64 9.67,4.08 9.67,5.85 C9.67,7.62 8.23,9.06 6.46,9.06 Z M6.46,4.13 C5.52,4.13 4.75,4.9 4.75,5.84 C4.75,6.78 5.52,7.55 6.46,7.55 C7.4,7.55 8.17,6.78 8.17,5.84 C8.17,4.9 7.41,4.13 6.46,4.13 Z"/>
  <path fill="#292D32" d="M17.54,21.37 C15.77,21.37 14.33,19.93 14.33,18.16 C14.33,16.39 15.77,14.95 17.54,14.95 C19.31,14.95 20.75,16.39 20.75,18.16 C20.75,19.93 19.31,21.37 17.54,21.37 Z M17.54,16.44 C16.6,16.44 15.83,17.21 15.83,18.15 C15.83,19.09 16.6,19.86 17.54,19.86 C18.48,19.86 19.25,19.09 19.25,18.15 C19.25,17.21 18.48,16.44 17.54,16.44 Z"/>
  <path fill="#292D32" d="M6.46,21.37 C4.69,21.37 3.25,19.93 3.25,18.16 C3.25,16.39 4.69,14.95 6.46,14.95 C8.23,14.95 9.67,16.39 9.67,18.16 C9.67,19.93 8.23,21.37 6.46,21.37 Z M6.46,16.44 C5.52,16.44 4.75,17.21 4.75,18.15 C4.75,19.09 5.52,19.86 6.46,19.86 C7.4,19.86 8.17,19.09 8.17,18.15 C8.17,17.21 7.41,16.44 6.46,16.44 Z"/>
</svg>

