<svg xmlns="http://www.w3.org/2000/svg" width="24" height="24" viewBox="0 0 24 24">
  <defs/>
  <path fill="#292D32" d="M17,19.18 L13.227,19.18 L8.965,22.015 Q8.097,22.593 7.175,22.102 Q6.25,21.609 6.25,20.56 L6.25,19.154 Q1.25,18.792 1.25,13.43 L1.25,7.43 Q1.25,1.68 7,1.68 L17,1.68 Q19.561,1.68 21.155,3.275 Q22.75,4.87 22.75,7.43 L22.75,13.43 Q22.75,19.18 17,19.18 Z M17,17.68 Q18.939,17.68 20.095,16.525 Q21.25,15.37 21.25,13.43 L21.25,7.43 Q21.25,5.491 20.095,4.336 Q18.939,3.18 17,3.18 L7,3.18 Q2.75,3.18 2.75,7.43 L2.75,13.43 Q2.75,17.68 7,17.68 Q7.311,17.68 7.53,17.9 Q7.75,18.12 7.75,18.43 L7.75,20.56 Q7.75,20.709 7.88,20.778 Q8.011,20.848 8.135,20.766 L12.585,17.806 Q12.773,17.68 13,17.68 Z"/>
  <path fill="#292D32" opacity="0.4" d="M11.25,11.36 L11.25,11.15 Q11.25,10.006 12.414,9.203 Q12.91,8.864 12.91,8.52 Q12.91,8.141 12.644,7.875 Q12.379,7.61 12,7.61 Q11.545,7.61 11.317,7.837 Q11.09,8.065 11.09,8.52 Q11.09,8.831 10.87,9.05 Q10.65,9.27 10.34,9.27 Q10.029,9.27 9.809,9.05 Q9.59,8.831 9.59,8.52 Q9.59,7.519 10.294,6.815 Q10.999,6.11 12,6.11 Q14.41,6.11 14.41,8.52 Q14.41,9.656 13.266,10.437 Q12.75,10.793 12.75,11.15 L12.75,11.36 Q12.75,11.671 12.53,11.89 Q12.31,12.11 12,12.11 Q11.689,12.11 11.469,11.89 Q11.25,11.671 11.25,11.36 Z"/>
  <path fill="#292D32" opacity="0.4" d="M11.995,13 L12.005,13 Q12.315,13 12.535,13.22 Q12.754,13.439 12.754,13.75 Q12.754,14.061 12.535,14.28 Q12.315,14.5 12.005,14.5 L11.995,14.5 Q11.685,14.5 11.465,14.28 Q11.245,14.061 11.245,13.75 Q11.245,13.439 11.465,13.22 Q11.685,13 11.995,13 Z"/>
</svg>

