<svg xmlns="http://www.w3.org/2000/svg" width="24" height="24" viewBox="0 0 24 24">
  <defs/>
  <path fill="#292D32" d="M8,22.32 C7.72,22.32 7.43,22.25 7.17,22.11 C6.6,21.81 6.25,21.21 6.25,20.57 L6.25,19.15 C3.23,18.84 1.25,16.62 1.25,13.44 L1.25,7.44 C1.25,4 3.56,1.69 7,1.69 L17,1.69 C20.44,1.69 22.75,4 22.75,7.44 L22.75,13.44 C22.75,16.88 20.44,19.19 17,19.19 L13.23,19.19 L8.97,22.03 C8.68,22.22 8.34,22.32 8,22.32 Z M7,3.18 C4.42,3.18 2.75,4.85 2.75,7.43 L2.75,13.43 C2.75,16.01 4.42,17.68 7,17.68 C7.41,17.68 7.75,18.02 7.75,18.43 L7.75,20.56 C7.75,20.69 7.83,20.75 7.88,20.78 C7.93,20.81 8.03,20.84 8.14,20.77 L12.59,17.81 C12.71,17.73 12.86,17.68 13.01,17.68 L17.01,17.68 C19.59,17.68 21.26,16.01 21.26,13.43 L21.26,7.43 C21.26,4.85 19.59,3.18 17.01,3.18 L7,3.18 Z"/>
  <path fill="#292D32" d="M12,12.11 C11.59,12.11 11.25,11.77 11.25,11.36 L11.25,11.15 C11.25,9.99 12.1,9.42 12.42,9.2 C12.79,8.95 12.91,8.78 12.91,8.52 C12.91,8.02 12.5,7.61 12,7.61 C11.5,7.61 11.09,8.02 11.09,8.52 C11.09,8.93 10.75,9.27 10.34,9.27 C9.93,9.27 9.59,8.93 9.59,8.52 C9.59,7.19 10.67,6.11 12,6.11 C13.33,6.11 14.41,7.19 14.41,8.52 C14.41,9.66 13.57,10.23 13.26,10.44 C12.87,10.7 12.75,10.87 12.75,11.15 L12.75,11.36 C12.75,11.78 12.41,12.11 12,12.11 Z"/>
  <path fill="#292D32" d="M12,14.6 C11.58,14.6 11.25,14.26 11.25,13.85 C11.25,13.44 11.59,13.1 12,13.1 C12.41,13.1 12.75,13.44 12.75,13.85 C12.75,14.26 12.42,14.6 12,14.6 Z"/>
</svg>

