<svg xmlns="http://www.w3.org/2000/svg" width="24" height="24" viewBox="0 0 24 24">
  <defs/>
  <path fill="#292D32" d="M12,22.81 C11.31,22.81 10.66,22.46 10.2,21.85 L8.7,19.85 C8.67,19.81 8.55,19.76 8.5,19.75 L8,19.75 C3.83,19.75 1.25,18.62 1.25,13 L1.25,8 C1.25,3.58 3.58,1.25 8,1.25 L16,1.25 C20.42,1.25 22.75,3.58 22.75,8 L22.75,13 C22.75,17.42 20.42,19.75 16,19.75 L15.5,19.75 C15.42,19.75 15.35,19.79 15.3,19.85 L13.8,21.85 C13.34,22.46 12.69,22.81 12,22.81 Z M8,2.75 C4.42,2.75 2.75,4.42 2.75,8 L2.75,13 C2.75,17.52 4.3,18.25 8,18.25 L8.5,18.25 C9.01,18.25 9.59,18.54 9.9,18.95 L11.4,20.95 C11.75,21.41 12.25,21.41 12.6,20.95 L14.1,18.95 C14.43,18.51 14.95,18.25 15.5,18.25 L16,18.25 C19.58,18.25 21.25,16.58 21.25,13 L21.25,8 C21.25,4.42 19.58,2.75 16,2.75 L8,2.75 Z"/>
  <path fill="#292D32" d="M17,8.75 L7,8.75 C6.59,8.75 6.25,8.41 6.25,8 C6.25,7.59 6.59,7.25 7,7.25 L17,7.25 C17.41,7.25 17.75,7.59 17.75,8 C17.75,8.41 17.41,8.75 17,8.75 Z"/>
  <path fill="#292D32" d="M13,13.75 L7,13.75 C6.59,13.75 6.25,13.41 6.25,13 C6.25,12.59 6.59,12.25 7,12.25 L13,12.25 C13.41,12.25 13.75,12.59 13.75,13 C13.75,13.41 13.41,13.75 13,13.75 Z"/>
</svg>

