<svg xmlns="http://www.w3.org/2000/svg" width="24" height="24" viewBox="0 0 24 24">
  <defs/>
  <path fill="#292D32" opacity="0.4" d="M17,9 C17,12.87 13.64,16 9.5,16 L8.57,17.12 L8.02,17.78 C7.55,18.34 6.65,18.22 6.34,17.55 L5,14.6 C3.18,13.32 2,11.29 2,9 C2,5.13 5.36,2 9.5,2 C12.52,2 15.13,3.67 16.3,6.07 C16.75,6.96 17,7.95 17,9 Z"/>
  <path fill="#292D32" d="M22,12.86 C22,15.15 20.82,17.18 19,18.46 L17.66,21.41 C17.35,22.08 16.45,22.21 15.98,21.64 L14.5,19.86 C12.08,19.86 9.92,18.79 8.57,17.12 L9.5,16 C13.64,16 17,12.87 17,9 C17,7.95 16.75,6.96 16.3,6.07 C19.57,6.82 22,9.58 22,12.86 Z"/>
  <path fill="#292D32" d="M12,9.75 L7,9.75 C6.59,9.75 6.25,9.41 6.25,9 C6.25,8.59 6.59,8.25 7,8.25 L12,8.25 C12.41,8.25 12.75,8.59 12.75,9 C12.75,9.41 12.41,9.75 12,9.75 Z"/>
</svg>

