<svg xmlns="http://www.w3.org/2000/svg" width="24" height="24" viewBox="0 0 24 24">
  <defs/>
  <path fill="#292D32" opacity="0.4" d="M16,2 L8,2 C4,2 2,4 2,8 L2,21 C2,21.55 2.45,22 3,22 L16,22 C20,22 22,20 22,16 L22,8 C22,4 20,2 16,2 Z"/>
  <path fill="#292D32" d="M17,8.75 L7,8.75 C6.59,8.75 6.25,9.09 6.25,9.5 C6.25,9.91 6.59,10.25 7,10.25 L17,10.25 C17.41,10.25 17.75,9.91 17.75,9.5 C17.75,9.09 17.41,8.75 17,8.75 Z"/>
  <path fill="#292D32" d="M14,13.75 L7,13.75 C6.59,13.75 6.25,14.09 6.25,14.5 C6.25,14.91 6.59,15.25 7,15.25 L14,15.25 C14.41,15.25 14.75,14.91 14.75,14.5 C14.75,14.09 14.41,13.75 14,13.75 Z"/>
</svg>

