<svg xmlns="http://www.w3.org/2000/svg" width="24" height="24" viewBox="0 0 24 24">
  <defs/>
  <path fill="#292D32" d="M13.17,2.75 Q9.806,2.75 7.437,4.962 Q5.265,6.989 5.103,9.784 Q6.223,9.34 7.5,9.34 Q10.076,9.34 11.902,11.047 Q13.75,12.774 13.75,15.23 Q13.75,16.578 13.162,17.73 L13.17,17.73 Q13.376,17.73 13.553,17.835 L17.743,20.325 Q17.878,20.407 18.004,20.324 Q18.134,20.239 18.115,20.08 L17.725,16.922 Q17.67,16.475 18.039,16.216 Q21.25,13.966 21.25,10.24 Q21.25,5.895 17.169,3.733 Q16.894,3.587 16.803,3.29 Q16.712,2.993 16.857,2.719 Q17.003,2.444 17.3,2.353 Q17.597,2.262 17.871,2.407 Q22.75,4.992 22.75,10.24 Q22.75,14.525 19.268,17.176 L19.604,19.9 Q19.735,20.985 18.823,21.581 Q17.907,22.178 16.977,21.615 L12.96,19.228 Q12.328,19.216 11.719,19.133 Q11.501,19.103 11.334,18.961 Q11.097,18.76 11.072,18.45 Q11.047,18.141 11.249,17.904 Q12.25,16.727 12.25,15.23 Q12.25,13.425 10.878,12.143 Q9.484,10.84 7.5,10.84 Q5.999,10.84 4.789,11.628 Q4.643,11.724 4.469,11.745 Q4.161,11.782 3.916,11.59 Q3.672,11.398 3.635,11.089 Q3.59,10.711 3.59,10.24 Q3.59,6.501 6.413,3.865 Q9.215,1.25 13.17,1.25 Q13.48,1.25 13.7,1.47 Q13.92,1.689 13.92,2 Q13.92,2.311 13.7,2.53 Q13.48,2.75 13.17,2.75 Z"/>
  <path fill="#292D32" d="M3.971,10.372 Q5.554,9.34 7.5,9.34 Q10.076,9.34 11.902,11.047 Q13.75,12.774 13.75,15.23 Q13.75,17.279 12.391,18.876 Q10.612,21.032 7.71,21.107 L5.273,22.555 Q4.548,23 3.822,22.525 Q3.106,22.057 3.205,21.212 L3.401,19.671 Q1.25,17.968 1.25,15.23 Q1.25,14.742 1.342,14.228 Q1.396,13.922 1.651,13.745 Q1.906,13.567 2.212,13.622 Q2.518,13.676 2.695,13.931 Q2.873,14.186 2.818,14.492 Q2.75,14.874 2.75,15.23 Q2.75,17.411 4.628,18.714 Q5.001,18.973 4.944,19.425 L4.727,21.135 L7.117,19.715 Q7.294,19.61 7.5,19.61 Q9.841,19.61 11.249,17.904 Q12.25,16.727 12.25,15.23 Q12.25,13.425 10.878,12.143 Q9.484,10.84 7.5,10.84 Q5.999,10.84 4.789,11.628 Q4.529,11.798 4.225,11.734 Q3.921,11.67 3.752,11.41 Q3.582,11.149 3.646,10.845 Q3.71,10.541 3.971,10.372 Z"/>
</svg>

