<svg xmlns="http://www.w3.org/2000/svg" width="24" height="24" viewBox="0 0 24 24">
  <defs/>
  <path fill="#292D32" d="M16,22.75 L3,22.75 C2.04,22.75 1.25,21.96 1.25,21 L1.25,8 C1.25,3.58 3.58,1.25 8,1.25 L16,1.25 C20.42,1.25 22.75,3.58 22.75,8 L22.75,16 C22.75,20.42 20.42,22.75 16,22.75 Z M8,2.75 C4.42,2.75 2.75,4.42 2.75,8 L2.75,21 C2.75,21.14 2.86,21.25 3,21.25 L16,21.25 C19.58,21.25 21.25,19.58 21.25,16 L21.25,8 C21.25,4.42 19.58,2.75 16,2.75 L8,2.75 Z"/>
  <path fill="#292D32" d="M15.5,12.75 L8.5,12.75 C8.09,12.75 7.75,12.41 7.75,12 C7.75,11.59 8.09,11.25 8.5,11.25 L15.5,11.25 C15.91,11.25 16.25,11.59 16.25,12 C16.25,12.41 15.91,12.75 15.5,12.75 Z"/>
</svg>

