<svg xmlns="http://www.w3.org/2000/svg" width="24" height="24" viewBox="0 0 24 24">
  <defs/>
  <path fill="#292D32" d="M20,6.75 C21.519,6.75 22.75,5.519 22.75,4 C22.75,2.481 21.519,1.25 20,1.25 C18.481,1.25 17.25,2.481 17.25,4 C17.25,5.519 18.481,6.75 20,6.75 Z"/>
  <path fill="#292D32" d="M19.04,8.15 C17.47,7.81 16.19,6.53 15.85,4.96 C15.72,4.35 15.71,3.76 15.82,3.2 C15.95,2.58 15.49,2 14.85,2 L7,2 C4.24,2 2,4.24 2,7 L2,13.95 C2,16.71 4.24,18.95 7,18.95 L8.5,18.95 C8.78,18.95 9.14,19.13 9.3,19.35 L10.8,21.34 C11.46,22.22 12.54,22.22 13.2,21.34 L14.7,19.35 C14.89,19.1 15.18,18.95 15.5,18.95 L17.01,18.95 C19.77,18.95 22,16.72 22,13.96 L22,9.15 C22,8.52 21.42,8.06 20.8,8.18 C20.24,8.28 19.65,8.28 19.04,8.15 Z M8,12 C7.44,12 7,11.55 7,11 C7,10.45 7.44,10 8,10 C8.55,10 9,10.45 9,11 C9,11.55 8.56,12 8,12 Z M12,12 C11.44,12 11,11.55 11,11 C11,10.45 11.44,10 12,10 C12.55,10 13,10.45 13,11 C13,11.55 12.56,12 12,12 Z M16,12 C15.44,12 15,11.55 15,11 C15,10.45 15.44,10 16,10 C16.55,10 17,10.45 17,11 C17,11.55 16.56,12 16,12 Z"/>
</svg>

