<svg xmlns="http://www.w3.org/2000/svg" width="24" height="24" viewBox="0 0 24 24">
  <defs/>
  <path fill="#292D32" d="M8.5,19.72 L8,19.72 Q1.25,19.72 1.25,12.97 L1.25,7.97 Q1.25,1.22 8,1.22 L16,1.22 Q22.75,1.22 22.75,7.97 L22.75,12.97 Q22.75,19.72 16,19.72 L15.5,19.72 Q15.376,19.72 15.297,19.824 L13.8,21.82 Q13.08,22.78 12,22.78 Q10.92,22.78 10.2,21.82 L8.7,19.82 Q8.627,19.72 8.5,19.72 Z M8.5,18.22 Q9.391,18.22 9.9,18.92 L11.4,20.92 Q11.67,21.28 12,21.28 Q12.33,21.28 12.6,20.92 L14.103,18.916 Q14.632,18.22 15.5,18.22 L16,18.22 Q18.689,18.22 19.97,16.939 Q21.25,15.659 21.25,12.97 L21.25,7.97 Q21.25,2.72 16,2.72 L8,2.72 Q2.75,2.72 2.75,7.97 L2.75,12.97 Q2.75,16.192 3.994,17.28 Q5.068,18.22 8,18.22 Z"/>
  <path fill="#292D32" opacity="0.4" d="M8.53,9.231 L7.061,10.7 L8.53,12.17 Q8.75,12.39 8.75,12.7 Q8.75,13.011 8.53,13.231 Q8.311,13.45 8,13.45 Q7.689,13.45 7.47,13.231 L5.47,11.231 Q5.25,11.011 5.25,10.7 Q5.25,10.39 5.47,10.17 L7.47,8.17 Q7.689,7.95 8,7.95 Q8.311,7.95 8.53,8.17 Q8.75,8.39 8.75,8.7 Q8.75,9.011 8.53,9.231 Z"/>
  <path fill="#292D32" opacity="0.4" d="M16.53,8.17 L18.53,10.17 Q18.75,10.39 18.75,10.7 Q18.75,11.011 18.53,11.231 L16.53,13.231 Q16.311,13.45 16,13.45 Q15.689,13.45 15.47,13.231 Q15.25,13.011 15.25,12.7 Q15.25,12.39 15.47,12.17 L16.939,10.7 L15.47,9.231 Q15.25,9.011 15.25,8.7 Q15.25,8.39 15.47,8.17 Q15.689,7.95 16,7.95 Q16.311,7.95 16.53,8.17 Z"/>
  <path fill="#292D32" opacity="0.4" d="M13.689,8.666 L11.689,13.326 Q11.567,13.611 11.278,13.727 Q10.99,13.842 10.704,13.719 Q10.419,13.597 10.303,13.308 Q10.188,13.02 10.311,12.734 L12.311,8.074 Q12.433,7.789 12.722,7.674 Q13.01,7.558 13.296,7.681 Q13.581,7.803 13.696,8.092 Q13.812,8.38 13.689,8.666 Z"/>
</svg>

