<svg xmlns="http://www.w3.org/2000/svg" width="24" height="24" viewBox="0 0 24 24">
  <defs/>
  <path fill="#292D32" d="M12,22.78 C11.31,22.78 10.66,22.43 10.2,21.82 L8.7,19.82 C8.67,19.78 8.55,19.72 8.49,19.72 L8,19.72 C3.83,19.72 1.25,18.59 1.25,12.97 L1.25,7.97 C1.25,3.55 3.58,1.22 8,1.22 L16,1.22 C20.42,1.22 22.75,3.55 22.75,7.97 L22.75,12.97 C22.75,13.38 22.41,13.72 22,13.72 C21.59,13.72 21.25,13.38 21.25,12.97 L21.25,7.97 C21.25,4.39 19.58,2.72 16,2.72 L8,2.72 C4.42,2.72 2.75,4.39 2.75,7.97 L2.75,12.97 C2.75,17.49 4.3,18.22 8,18.22 L8.5,18.22 C9.01,18.22 9.6,18.51 9.9,18.92 L11.4,20.92 C11.75,21.38 12.25,21.38 12.6,20.92 C12.85,20.59 13.32,20.52 13.65,20.77 C13.98,21.02 14.05,21.49 13.8,21.82 C13.34,22.43 12.69,22.78 12,22.78 Z"/>
  <path fill="#292D32" d="M12,11.97 C11.44,11.97 11,11.52 11,10.97 C11,10.42 11.45,9.97 12,9.97 C12.55,9.97 13,10.42 13,10.97 C13,11.52 12.56,11.97 12,11.97 Z"/>
  <path fill="#292D32" d="M16,11.97 C15.44,11.97 15,11.52 15,10.97 C15,10.42 15.45,9.97 16,9.97 C16.55,9.97 17,10.42 17,10.97 C17,11.52 16.56,11.97 16,11.97 Z"/>
  <path fill="#292D32" d="M8,11.97 C7.44,11.97 7,11.52 7,10.97 C7,10.42 7.45,9.97 8,9.97 C8.55,9.97 9,10.42 9,10.97 C9,11.52 8.56,11.97 8,11.97 Z"/>
  <path fill="#292D32" d="M18.2,22.15 C16.02,22.15 14.25,20.38 14.25,18.2 C14.25,16.02 16.02,14.25 18.2,14.25 C20.38,14.25 22.15,16.02 22.15,18.2 C22.15,20.38 20.38,22.15 18.2,22.15 Z M18.2,15.75 C16.85,15.75 15.75,16.85 15.75,18.2 C15.75,19.55 16.85,20.65 18.2,20.65 C19.55,20.65 20.65,19.55 20.65,18.2 C20.65,16.85 19.55,15.75 18.2,15.75 Z"/>
  <path fill="#292D32" d="M22,22.75 C21.809,22.75 21.619,22.68 21.47,22.53 L20.47,21.53 C20.18,21.24 20.18,20.76 20.47,20.47 C20.759,20.18 21.239,20.18 21.529,20.47 L22.529,21.47 C22.82,21.76 22.82,22.24 22.529,22.53 C22.38,22.68 22.189,22.75 22,22.75 Z"/>
</svg>

