<svg xmlns="http://www.w3.org/2000/svg" width="24" height="24" viewBox="0 0 24 24">
  <defs/>
  <path fill="#292D32" d="M5,13.5 C2.79,13.5 1,15.29 1,17.5 C1,18.25 1.21,18.96 1.58,19.56 C2.27,20.72 3.54,21.5 5,21.5 C6.46,21.5 7.73,20.72 8.42,19.56 C8.79,18.96 9,18.25 9,17.5 C9,15.29 7.21,13.5 5,13.5 Z M6.97,17.17 L4.84,19.14 C4.7,19.27 4.51,19.34 4.33,19.34 C4.14,19.34 3.95,19.27 3.8,19.12 L2.81,18.13 C2.52,17.84 2.52,17.36 2.81,17.07 C3.1,16.78 3.58,16.78 3.87,17.07 L4.35,17.55 L5.95,16.07 C6.25,15.79 6.73,15.81 7.01,16.11 C7.29,16.41 7.27,16.89 6.97,17.17 Z"/>
  <path fill="#292D32" d="M17.25,2.43 L7.75,2.43 C4.9,2.43 3,4.33 3,7.18 L3,11.64 C3,11.99 3.36,12.24 3.7,12.15 C4.12,12.05 4.55,12 5,12 C7.86,12 10.22,14.32 10.48,17.13 C10.5,17.41 10.73,17.63 11,17.63 L11.55,17.63 L15.78,20.45 C16.4,20.87 17.25,20.41 17.25,19.65 L17.25,17.63 C18.67,17.63 19.86,17.15 20.69,16.33 C21.52,15.49 22,14.3 22,12.88 L22,7.18 C22,4.33 20.1,2.43 17.25,2.43 Z M15.83,10.81 L9.17,10.81 C8.78,10.81 8.46,10.49 8.46,10.1 C8.46,9.7 8.78,9.38 9.17,9.38 L15.83,9.38 C16.22,9.38 16.54,9.7 16.54,10.1 C16.54,10.49 16.22,10.81 15.83,10.81 Z"/>
</svg>

