<svg xmlns="http://www.w3.org/2000/svg" width="24" height="24" viewBox="0 0 24 24">
  <defs/>
  <path fill="#292D32" d="M16,1.969 L8,1.969 C4,1.969 2,3.969 2,7.969 L2,12.969 C2,17.969 4,18.969 8,18.969 L8.5,18.969 C8.78,18.969 9.14,19.149 9.3,19.369 L10.8,21.369 C11.46,22.249 12.54,22.249 13.2,21.369 L14.7,19.369 C14.89,19.119 15.19,18.969 15.5,18.969 L16,18.969 C20,18.969 22,16.969 22,12.969 L22,7.969 C22,3.969 20,1.969 16,1.969 Z M8.53,12.169 C8.82,12.459 8.82,12.939 8.53,13.229 C8.38,13.379 8.19,13.449 8,13.449 C7.81,13.449 7.62,13.379 7.47,13.229 L5.47,11.229 C5.18,10.939 5.18,10.459 5.47,10.169 L7.47,8.169 C7.76,7.879 8.24,7.879 8.53,8.169 C8.82,8.459 8.82,8.939 8.53,9.229 L7.06,10.699 L8.53,12.169 Z M13.69,8.659 L11.69,13.329 C11.57,13.609 11.29,13.779 11,13.779 C10.9,13.779 10.8,13.759 10.7,13.719 C10.32,13.559 10.14,13.119 10.31,12.729 L12.31,8.059 C12.47,7.679 12.91,7.499 13.3,7.669 C13.68,7.839 13.85,8.279 13.69,8.659 Z M18.53,11.229 L16.53,13.229 C16.38,13.379 16.19,13.449 16,13.449 C15.81,13.449 15.62,13.379 15.47,13.229 C15.18,12.939 15.18,12.459 15.47,12.169 L16.94,10.699 L15.47,9.229 C15.18,8.939 15.18,8.459 15.47,8.169 C15.76,7.879 16.24,7.879 16.53,8.169 L18.53,10.169 C18.82,10.459 18.82,10.939 18.53,11.229 Z"/>
</svg>

