<svg xmlns="http://www.w3.org/2000/svg" width="24" height="24" viewBox="0 0 24 24">
  <defs/>
  <path fill="#292D32" d="M15.59,12.4 L15.59,16.47 C15.59,16.83 15.55,17.17 15.46,17.48 C15.09,18.95 13.87,19.87 12.19,19.87 L9.47,19.87 L6.45,21.88 C6,22.19 5.4,21.86 5.4,21.32 L5.4,19.87 C4.38,19.87 3.53,19.53 2.94,18.94 C2.34,18.34 2,17.49 2,16.47 L2,12.4 C2,10.5 3.18,9.19 5,9.02 C5.13,9.01 5.26,9 5.4,9 L12.19,9 C14.23,9 15.59,10.36 15.59,12.4 Z"/>
  <path fill="#292D32" d="M17.75,15.6 C19.02,15.6 20.09,15.18 20.83,14.43 C21.58,13.69 22,12.62 22,11.35 L22,6.25 C22,3.9 20.1,2 17.75,2 L9.25,2 C6.9,2 5,3.9 5,6.25 L5,7 C5,7.28 5.22,7.5 5.5,7.5 L12.19,7.5 C14.9,7.5 17.09,9.69 17.09,12.4 L17.09,15.1 C17.09,15.38 17.31,15.6 17.59,15.6 L17.75,15.6 Z"/>
</svg>

