<svg xmlns="http://www.w3.org/2000/svg" width="24" height="24" viewBox="0 0 24 24">
  <defs/>
  <path fill="#292D32" opacity="0.4" d="M16,2 L8,2 C4,2 2,4 2,8 L2,21 C2,21.55 2.45,22 3,22 L16,22 C20,22 22,20 22,16 L22,8 C22,4 20,2 16,2 Z"/>
  <path fill="#292D32" d="M16.551,7.46 C15.291,6.2 14.071,6.17 12.781,7.46 L11.991,8.25 C11.921,8.32 11.901,8.42 11.921,8.51 C12.411,10.23 13.781,11.6 15.501,12.09 C15.521,12.1 15.551,12.1 15.581,12.1 C15.651,12.1 15.721,12.07 15.771,12.02 L16.551,11.24 C17.191,10.6 17.501,9.99 17.501,9.37 C17.501,8.72 17.191,8.1 16.551,7.46 Z"/>
  <path fill="#292D32" d="M14.34,12.67 C14.15,12.58 13.97,12.49 13.8,12.38 C13.66,12.3 13.52,12.21 13.39,12.11 C13.28,12.04 13.15,11.94 13.02,11.83 C13,11.82 12.96,11.79 12.91,11.73 C12.7,11.55 12.46,11.31 12.24,11.06 C12.22,11.05 12.19,11 12.15,10.94 C12.08,10.86 11.98,10.73 11.88,10.59 C11.8,10.49 11.71,10.35 11.63,10.21 C11.53,10.04 11.43,9.86 11.35,9.68 C11.26,9.48 11.19,9.3 11.12,9.12 L7.35,12.89 C7.1,13.14 6.87,13.6 6.82,13.94 L6.53,16.02 C6.46,16.46 6.59,16.87 6.86,17.15 C7.09,17.38 7.41,17.5 7.76,17.5 C7.84,17.5 7.91,17.49 7.99,17.48 L10.07,17.19 C10.41,17.14 10.87,16.91 11.12,16.66 L14.89,12.89 C14.71,12.82 14.53,12.75 14.34,12.67 Z"/>
</svg>

