<svg xmlns="http://www.w3.org/2000/svg" width="24" height="24" viewBox="0 0 24 24">
  <defs/>
  <path d="M5.68,22.75 C5.55,22.75 5.42,22.72 5.3,22.65 C5.07,22.52 4.93,22.27 4.93,22 L4.93,18.8 C2.58,16.89 1.25,14.17 1.25,11.26 C1.25,5.74 6.07,1.25 12,1.25 C17.93,1.25 22.75,5.74 22.75,11.26 C22.75,16.78 17.93,21.27 12,21.27 C11.03,21.27 10.07,21.15 9.14,20.91 L6.05,22.65 C5.94,22.72 5.81,22.75 5.68,22.75 Z M12,2.75 C6.9,2.75 2.75,6.57 2.75,11.26 C2.75,13.82 3.98,16.22 6.14,17.84 C6.33,17.98 6.44,18.2 6.44,18.44 L6.44,20.72 L8.68,19.46 C8.85,19.36 9.06,19.34 9.25,19.39 C10.14,19.64 11.07,19.77 12,19.77 C17.1,19.77 21.25,15.95 21.25,11.26 C21.25,6.57 17.1,2.75 12,2.75 Z"/>
  <path d="M7.5,14.5 C7.25,14.5 7,14.37 6.86,14.15 C6.69,13.87 6.71,13.52 6.92,13.27 L10.7,8.77 C10.93,8.5 11.31,8.42 11.62,8.59 L13.07,9.36 L16.3,8.53 C16.62,8.45 16.95,8.58 17.12,8.86 C17.29,9.14 17.27,9.49 17.06,9.74 L13.3,14.24 C13.07,14.52 12.66,14.59 12.35,14.41 L11.06,13.66 L7.66,14.49 C7.62,14.49 7.56,14.5 7.5,14.5 Z M11.19,12.1 C11.32,12.1 11.45,12.13 11.57,12.2 L12.57,12.78 L14.43,10.55 L13.17,10.87 C12.99,10.92 12.8,10.89 12.63,10.81 L11.46,10.19 L9.54,12.47 L11,12.11 C11.07,12.11 11.13,12.1 11.19,12.1 Z"/>
</svg>

