<svg xmlns="http://www.w3.org/2000/svg" width="24" height="24" viewBox="0 0 24 24">
  <defs/>
  <path fill="#17191C" d="M4.95,18.771 Q1.25,15.86 1.25,11.3 Q1.25,7.087 4.428,4.149 Q7.566,1.25 12,1.25 Q16.424,1.25 19.569,4.135 Q22.75,7.052 22.75,11.2 Q22.75,15.413 19.572,18.351 Q16.434,21.25 12,21.25 Q10.313,21.25 9.093,20.912 L6.074,22.65 Q5.9,22.75 5.7,22.75 Q5.389,22.75 5.17,22.53 Q4.95,22.311 4.95,22 L4.95,18.771 Z M6.45,18.4 L6.45,20.703 L8.626,19.45 Q8.918,19.282 9.237,19.388 Q10.322,19.75 12,19.75 Q15.847,19.75 18.553,17.249 Q21.25,14.757 21.25,11.2 Q21.25,7.712 18.556,5.24 Q15.841,2.75 12,2.75 Q8.153,2.75 5.447,5.251 Q2.75,7.743 2.75,11.3 Q2.75,15.287 6.146,17.797 Q6.45,18.022 6.45,18.4 Z"/>
  <path fill="#17191C" d="M10.727,8.716 Q11.117,8.254 11.651,8.537 L13.094,9.301 L16.313,8.474 Q16.688,8.377 16.984,8.627 Q17.221,8.827 17.247,9.137 Q17.273,9.446 17.073,9.684 L13.273,14.184 Q13.095,14.395 12.823,14.44 Q12.551,14.485 12.314,14.343 L11.078,13.602 L7.677,14.429 Q7.307,14.519 7.016,14.273 Q6.779,14.073 6.753,13.763 Q6.727,13.453 6.927,13.216 Z M11.483,10.146 L9.556,12.428 L11.023,12.071 Q11.322,11.998 11.586,12.157 L12.539,12.729 L14.411,10.512 L13.187,10.826 Q12.906,10.899 12.649,10.763 L11.483,10.146 Z"/>
</svg>

