<svg xmlns="http://www.w3.org/2000/svg" width="24" height="24" viewBox="0 0 24 24">
  <defs/>
  <path fill="#292D32" d="M11.999,19.35 C11.479,19.35 10.989,19.09 10.639,18.63 L9.729,17.42 L9.479,17.42 C6.769,17.42 4.969,16.65 4.969,12.91 L4.969,9.77 C4.969,7.09 6.339,5.5 8.829,5.29 C9.019,5.27 9.249,5.26 9.479,5.26 L14.509,5.26 C17.419,5.26 19.019,6.86 19.019,9.77 L19.019,12.91 C19.019,13.15 19.009,13.37 18.979,13.59 C18.769,16.05 17.179,17.42 14.499,17.42 L14.249,17.42 L13.339,18.63 C13.009,19.09 12.519,19.35 11.999,19.35 Z M9.489,6.75 C9.319,6.75 9.149,6.76 8.989,6.78 C7.239,6.93 6.469,7.85 6.469,9.77 L6.469,12.91 C6.469,15.49 7.219,15.92 9.479,15.92 L9.789,15.92 C10.189,15.92 10.639,16.14 10.889,16.46 L11.839,17.73 C11.899,17.81 11.959,17.85 11.989,17.85 C12.019,17.85 12.079,17.81 12.139,17.73 L13.079,16.47 C13.339,16.12 13.749,15.92 14.179,15.92 L14.489,15.92 C16.409,15.92 17.329,15.15 17.479,13.43 C17.499,13.24 17.509,13.08 17.509,12.9 L17.509,9.76 C17.509,7.68 16.579,6.75 14.499,6.75 L9.489,6.75 Z"/>
  <path fill="#292D32" d="M15,22.75 L9,22.75 C3.57,22.75 1.25,20.43 1.25,15 L1.25,9 C1.25,3.57 3.57,1.25 9,1.25 L15,1.25 C20.43,1.25 22.75,3.57 22.75,9 L22.75,15 C22.75,20.43 20.43,22.75 15,22.75 Z M9,2.75 C4.39,2.75 2.75,4.39 2.75,9 L2.75,15 C2.75,19.61 4.39,21.25 9,21.25 L15,21.25 C19.61,21.25 21.25,19.61 21.25,15 L21.25,9 C21.25,4.39 19.61,2.75 15,2.75 L9,2.75 Z"/>
</svg>

