<svg xmlns="http://www.w3.org/2000/svg" width="24" height="24" viewBox="0 0 24 24">
  <defs/>
  <path fill="#292D32" opacity="0.4" d="M7,18.43 L11,18.43 L15.45,21.39 C16.11,21.83 17,21.36 17,20.56 L17,18.43 C20,18.43 22,16.43 22,13.43 L22,7.43 C22,4.43 20,2.43 17,2.43 L7,2.43 C4,2.43 2,4.43 2,7.43 L2,13.43 C2,16.43 4,18.43 7,18.43 Z"/>
  <path fill="#292D32" d="M15.5,11.25 L8.5,11.25 C8.09,11.25 7.75,10.91 7.75,10.5 C7.75,10.09 8.09,9.75 8.5,9.75 L15.5,9.75 C15.91,9.75 16.25,10.09 16.25,10.5 C16.25,10.91 15.91,11.25 15.5,11.25 Z"/>
</svg>

