<svg xmlns="http://www.w3.org/2000/svg" width="24" height="24" viewBox="0 0 24 24">
  <defs/>
  <path fill="#292D32" d="M22.75,6.25 L22.75,11.35 Q22.75,13.589 21.357,14.964 Q20.226,16.11 18.5,16.308 L18.5,17.41 Q18.5,18.368 17.656,18.823 Q16.805,19.281 16.009,18.741 L15.047,18.106 Q14.586,17.802 14.74,17.271 Q14.84,16.926 14.84,16.47 L14.84,12.4 Q14.84,9.75 12.19,9.75 L5.4,9.75 Q5.289,9.75 5.058,9.768 L5.058,9.768 Q4.748,9.792 4.512,9.589 Q4.276,9.387 4.252,9.078 Q4.25,9.049 4.25,9.02 L4.25,6.25 Q4.25,4.027 5.638,2.638 Q7.027,1.25 9.25,1.25 L17.75,1.25 Q22.75,1.25 22.75,6.25 Z M21.25,6.25 Q21.25,2.75 17.75,2.75 L9.25,2.75 Q5.75,2.75 5.75,6.25 L5.75,8.25 L12.19,8.25 Q16.34,8.25 16.34,12.4 L16.34,16.47 Q16.34,16.818 16.297,17.134 L16.851,17.499 Q16.895,17.529 16.944,17.502 Q17,17.472 17,17.41 L17,15.6 Q17,15.289 17.22,15.07 Q17.439,14.85 17.75,14.85 Q19.362,14.85 20.303,13.896 Q21.25,12.962 21.25,11.35 Z"/>
  <path fill="#292D32" d="M16.34,12.4 L16.34,16.47 Q16.34,17.131 16.184,17.676 Q15.436,20.62 12.19,20.62 L9.697,20.62 L6.866,22.504 Q6.161,22.989 5.4,22.579 Q4.65,22.174 4.65,21.32 L4.65,20.568 Q3.315,20.376 2.41,19.47 Q1.25,18.311 1.25,16.47 L1.25,12.4 Q1.25,8.617 4.93,8.273 L4.943,8.272 Q5.231,8.25 5.4,8.25 L12.19,8.25 Q16.34,8.25 16.34,12.4 Z M14.84,12.4 Q14.84,9.75 12.19,9.75 L5.4,9.75 Q5.29,9.75 5.064,9.767 Q2.75,9.987 2.75,12.4 L2.75,16.47 Q2.75,17.689 3.47,18.41 Q4.181,19.12 5.4,19.12 Q5.711,19.12 5.93,19.34 Q6.15,19.559 6.15,19.87 L6.15,21.179 L9.054,19.246 Q9.243,19.12 9.47,19.12 L12.19,19.12 Q14.274,19.12 14.733,17.297 Q14.736,17.284 14.74,17.271 Q14.84,16.926 14.84,16.47 Z"/>
</svg>

