<svg xmlns="http://www.w3.org/2000/svg" width="24" height="24" viewBox="0 0 24 24">
  <defs/>
  <path fill="#292D32" d="M17,2 L7,2 C4.24,2 2,4.23 2,6.98 L2,12.96 L2,13.96 C2,16.71 4.24,18.94 7,18.94 L8.5,18.94 C8.77,18.94 9.13,19.12 9.3,19.34 L10.8,21.33 C11.46,22.21 12.54,22.21 13.2,21.33 L14.7,19.34 C14.89,19.09 15.19,18.94 15.5,18.94 L17,18.94 C19.76,18.94 22,16.71 22,13.96 L22,6.98 C22,4.23 19.76,2 17,2 Z M8,12 C7.44,12 7,11.55 7,11 C7,10.45 7.45,10 8,10 C8.55,10 9,10.45 9,11 C9,11.55 8.56,12 8,12 Z M12,12 C11.44,12 11,11.55 11,11 C11,10.45 11.45,10 12,10 C12.55,10 13,10.45 13,11 C13,11.55 12.56,12 12,12 Z M16,12 C15.44,12 15,11.55 15,11 C15,10.45 15.45,10 16,10 C16.55,10 17,10.45 17,11 C17,11.55 16.56,12 16,12 Z"/>
</svg>

