<svg xmlns="http://www.w3.org/2000/svg" width="24" height="24" viewBox="0 0 24 24">
  <defs/>
  <path fill="#292D32" d="M5,13.5 C4.06,13.5 3.19,13.83 2.5,14.38 C1.58,15.11 1,16.24 1,17.5 C1,19.71 2.79,21.5 5,21.5 C6.01,21.5 6.93,21.12 7.64,20.5 C8.47,19.77 9,18.7 9,17.5 C9,15.29 7.21,13.5 5,13.5 Z M6,17.75 C6,18.01 5.86,18.26 5.64,18.39 L4.39,19.14 C4.27,19.22 4.13,19.25 4,19.25 C3.75,19.25 3.5,19.12 3.36,18.89 C3.15,18.53 3.26,18.07 3.62,17.86 L4.51,17.33 L4.51,16.25 C4.51,15.84 4.85,15.5 5.26,15.5 C5.67,15.5 6,15.84 6,16.25 L6,17.75 Z"/>
  <path fill="#292D32" d="M17.25,2.43 L7.75,2.43 C4.9,2.43 3,4.33 3,7.18 L3,11.64 C3,11.99 3.36,12.24 3.7,12.15 C4.12,12.05 4.55,12 5,12 C7.86,12 10.22,14.32 10.48,17.13 C10.5,17.41 10.73,17.63 11,17.63 L11.55,17.63 L15.78,20.45 C16.4,20.87 17.25,20.41 17.25,19.65 L17.25,17.63 C18.67,17.63 19.86,17.15 20.69,16.33 C21.52,15.49 22,14.3 22,12.88 L22,7.18 C22,4.33 20.1,2.43 17.25,2.43 Z M15.83,10.81 L9.17,10.81 C8.78,10.81 8.46,10.49 8.46,10.1 C8.46,9.7 8.78,9.38 9.17,9.38 L15.83,9.38 C16.22,9.38 16.54,9.7 16.54,10.1 C16.54,10.49 16.22,10.81 15.83,10.81 Z"/>
</svg>

