<svg xmlns="http://www.w3.org/2000/svg" width="24" height="24" viewBox="0 0 24 24">
  <defs/>
  <path fill="#292D32" d="M1.25,8 Q1.25,1.25 8,1.25 L16,1.25 Q22.75,1.25 22.75,8 L22.75,13 Q22.75,19.75 16,19.75 L15.5,19.75 Q15.376,19.75 15.297,19.854 L13.8,21.85 Q13.08,22.81 12,22.81 Q10.92,22.81 10.2,21.85 L8.7,19.85 Q8.627,19.75 8.5,19.75 L8,19.75 Q1.25,19.75 1.25,13 L1.25,12 Q1.25,11.689 1.47,11.47 Q1.689,11.25 2,11.25 Q2.311,11.25 2.53,11.47 Q2.75,11.689 2.75,12 L2.75,13 Q2.75,16.222 3.994,17.311 Q5.068,18.25 8,18.25 L8.5,18.25 Q9.391,18.25 9.9,18.95 L11.4,20.95 Q11.67,21.31 12,21.31 Q12.33,21.31 12.6,20.95 L14.103,18.946 Q14.632,18.25 15.5,18.25 L16,18.25 Q21.25,18.25 21.25,13 L21.25,8 Q21.25,2.75 16,2.75 L8,2.75 Q2.75,2.75 2.75,8 Q2.75,8.311 2.53,8.53 Q2.311,8.75 2,8.75 Q1.689,8.75 1.47,8.53 Q1.25,8.311 1.25,8 Z"/>
  <path fill="#292D32" d="M15.99,7.25 L17,7.25 Q17.311,7.25 17.531,7.47 Q17.75,7.689 17.75,8 Q17.75,8.311 17.531,8.53 Q17.311,8.75 17,8.75 L15.99,8.75 Q15.68,8.75 15.46,8.53 Q15.24,8.311 15.24,8 Q15.24,7.689 15.46,7.47 Q15.68,7.25 15.99,7.25 Z"/>
  <path fill="#292D32" d="M7,7.25 L12.51,7.25 Q12.821,7.25 13.04,7.47 Q13.26,7.689 13.26,8 Q13.26,8.311 13.04,8.53 Q12.821,8.75 12.51,8.75 L7,8.75 Q6.689,8.75 6.47,8.53 Q6.25,8.311 6.25,8 Q6.25,7.689 6.47,7.47 Q6.689,7.25 7,7.25 Z"/>
  <path fill="#292D32" d="M7,12.25 L13,12.25 Q13.311,12.25 13.53,12.47 Q13.75,12.689 13.75,13 Q13.75,13.311 13.53,13.53 Q13.311,13.75 13,13.75 L7,13.75 Q6.689,13.75 6.47,13.53 Q6.25,13.311 6.25,13 Q6.25,12.689 6.47,12.47 Q6.689,12.25 7,12.25 Z"/>
</svg>

