<svg xmlns="http://www.w3.org/2000/svg" width="24" height="24" viewBox="0 0 24 24">
  <defs/>
  <path fill="#292D32" d="M7.26,18.89 C7.18,18.89 7.1,18.88 7.02,18.87 C6.42,18.79 5.91,18.41 5.66,17.87 L4.4,15.1 C2.4,13.62 1.25,11.41 1.25,9.01 C1.25,4.74 4.95,1.26 9.5,1.26 C12.71,1.26 15.64,3.02 16.97,5.75 C17.48,6.76 17.75,7.86 17.75,9.01 C17.75,13.17 14.24,16.58 9.86,16.75 L8.6,18.27 C8.26,18.66 7.77,18.89 7.26,18.89 Z M9.5,2.75 C5.78,2.75 2.75,5.55 2.75,9 C2.75,10.97 3.73,12.79 5.43,13.99 C5.54,14.07 5.63,14.17 5.68,14.29 L7.02,17.24 C7.07,17.35 7.17,17.38 7.22,17.38 C7.27,17.39 7.37,17.38 7.44,17.3 L8.92,15.52 C9.06,15.35 9.27,15.25 9.5,15.25 C13.22,15.25 16.25,12.45 16.25,9 C16.25,8.09 16.04,7.22 15.63,6.41 C14.55,4.18 12.14,2.75 9.5,2.75 Z"/>
  <path fill="#292D32" d="M16.74,22.75 C16.22,22.75 15.74,22.52 15.4,22.12 L14.14,20.61 C11.72,20.51 9.44,19.4 7.98,17.6 C7.75,17.32 7.76,16.92 7.99,16.65 L8.92,15.53 C9.06,15.36 9.27,15.26 9.5,15.26 C13.22,15.26 16.25,12.46 16.25,9.01 C16.25,8.1 16.04,7.23 15.63,6.42 C15.5,6.16 15.53,5.85 15.71,5.62 C15.89,5.39 16.19,5.29 16.47,5.35 C20.17,6.2 22.75,9.29 22.75,12.87 C22.75,15.27 21.6,17.48 19.6,18.96 L18.34,21.73 C18.08,22.29 17.57,22.67 16.96,22.74 C16.89,22.75 16.81,22.75 16.74,22.75 Z M9.56,17.1 C10.81,18.37 12.61,19.11 14.5,19.11 C14.72,19.11 14.93,19.21 15.08,19.38 L16.56,21.16 C16.63,21.25 16.72,21.26 16.78,21.25 C16.82,21.25 16.93,21.22 16.99,21.1 L18.33,18.15 C18.39,18.03 18.47,17.92 18.58,17.85 C20.28,16.65 21.26,14.83 21.26,12.86 C21.26,10.46 19.79,8.33 17.55,7.28 C17.69,7.84 17.76,8.41 17.76,9 C17.76,13.16 14.25,16.57 9.87,16.74 L9.56,17.1 Z"/>
  <path fill="#292D32" d="M12,9.75 L7,9.75 C6.59,9.75 6.25,9.41 6.25,9 C6.25,8.59 6.59,8.25 7,8.25 L12,8.25 C12.41,8.25 12.75,8.59 12.75,9 C12.75,9.41 12.41,9.75 12,9.75 Z"/>
</svg>

