<svg xmlns="http://www.w3.org/2000/svg" width="24" height="24" viewBox="0 0 24 24">
  <defs/>
  <path fill="#292D32" d="M22.75,11.54 L22.75,13.43 Q22.75,15.991 21.15,17.59 Q19.8,18.94 17.75,19.144 L17.75,20.56 Q17.75,21.606 16.829,22.105 Q15.905,22.605 15.034,22.024 L10.773,19.18 L8.88,19.18 Q8.569,19.18 8.35,18.96 Q8.13,18.741 8.13,18.43 Q8.13,18.332 8.155,18.237 Q8.25,17.882 8.25,17.5 Q8.25,16.261 7.413,15.332 Q6.463,14.25 5,14.25 Q3.624,14.25 2.667,15.233 Q2.451,15.456 2.14,15.46 Q1.83,15.464 1.607,15.247 Q1.447,15.092 1.398,14.875 Q1.25,14.216 1.25,13.43 L1.25,7.43 Q1.25,4.869 2.845,3.275 Q4.439,1.68 7,1.68 L17,1.68 Q22.75,1.68 22.75,7.43 Q22.75,7.741 22.53,7.96 Q22.311,8.18 22,8.18 Q21.689,8.18 21.47,7.96 Q21.25,7.741 21.25,7.43 Q21.25,5.491 20.095,4.335 Q18.939,3.18 17,3.18 L7,3.18 Q2.75,3.18 2.75,7.43 L2.75,13.299 Q3.758,12.75 5,12.75 Q7.142,12.75 8.527,14.328 Q9.75,15.685 9.75,17.5 Q9.75,17.59 9.746,17.68 L11,17.68 Q11.227,17.68 11.416,17.806 L15.866,20.776 Q15.986,20.856 16.116,20.785 Q16.25,20.713 16.25,20.56 L16.25,18.43 Q16.25,18.119 16.47,17.9 Q16.689,17.68 17,17.68 Q18.939,17.68 20.09,16.53 Q21.25,15.369 21.25,13.43 L21.25,11.54 Q21.25,11.229 21.47,11.01 Q21.689,10.79 22,10.79 Q22.311,10.79 22.53,11.01 Q22.75,11.229 22.75,11.54 Z"/>
  <path fill="#292D32" d="M9.75,17.5 Q9.75,19.643 8.135,21.063 Q6.776,22.25 5,22.25 Q3.032,22.25 1.641,20.859 Q0.25,19.468 0.25,17.5 Q0.25,15.208 2.034,13.792 Q3.342,12.75 5,12.75 Q6.968,12.75 8.359,14.141 Q9.75,15.532 9.75,17.5 Z M8.25,17.5 Q8.25,14.25 5,14.25 Q3.866,14.25 2.966,14.968 Q1.75,15.933 1.75,17.5 Q1.75,20.75 5,20.75 Q6.213,20.75 7.145,19.937 Q8.25,18.965 8.25,17.5 Z"/>
  <path fill="#292D32" d="M6,16.25 L6,17.75 Q6,18.175 5.636,18.393 L4.386,19.143 Q4.119,19.303 3.818,19.228 Q3.517,19.152 3.357,18.886 Q3.197,18.619 3.272,18.318 Q3.348,18.017 3.614,17.857 L4.5,17.325 L4.5,16.25 Q4.5,15.939 4.72,15.72 Q4.939,15.5 5.25,15.5 Q5.561,15.5 5.78,15.72 Q6,15.939 6,16.25 Z"/>
  <path fill="#292D32" d="M8.5,9.75 L15.5,9.75 Q15.811,9.75 16.03,9.97 Q16.25,10.189 16.25,10.5 Q16.25,10.811 16.03,11.03 Q15.811,11.25 15.5,11.25 L8.5,11.25 Q8.189,11.25 7.97,11.03 Q7.75,10.811 7.75,10.5 Q7.75,10.189 7.97,9.97 Q8.189,9.75 8.5,9.75 Z"/>
</svg>

