<svg xmlns="http://www.w3.org/2000/svg" width="24" height="24" viewBox="0 0 24 24">
  <defs/>
  <path d="M12,2 C6.48,2 2,6.15 2,11.26 C2,14.16 3.44,16.74 5.68,18.44 L5.68,20.29 C5.68,21.06 6.5,21.54 7.17,21.16 L9.03,20.11 C9.97,20.38 10.96,20.52 11.99,20.52 C17.51,20.52 21.99,16.37 21.99,11.26 C22,6.15 17.52,2 12,2 Z M15.51,10.44 L13.01,13.43 C12.85,13.62 12.59,13.66 12.38,13.54 L11.37,12.95 C11.26,12.89 11.13,12.87 11,12.9 L8.99,13.39 C8.52,13.5 8.18,12.95 8.49,12.58 L11.03,9.56 C11.18,9.38 11.44,9.33 11.65,9.44 L12.83,10.06 C12.94,10.12 13.07,10.13 13.19,10.1 L15.01,9.63 C15.47,9.51 15.82,10.07 15.51,10.44 Z"/>
</svg>

