<svg xmlns="http://www.w3.org/2000/svg" width="24" height="24" viewBox="0 0 24 24">
  <defs/>
  <path fill="#292D32" opacity="0.4" d="M16,2 L8,2 C4,2 2,4 2,8 L2,21 C2,21.55 2.45,22 3,22 L16,22 C20,22 22,20 22,16 L22,8 C22,4 20,2 16,2 Z"/>
  <path fill="#292D32" d="M15.5,11.25 L12.75,11.25 L12.75,8.5 C12.75,8.09 12.41,7.75 12,7.75 C11.59,7.75 11.25,8.09 11.25,8.5 L11.25,11.25 L8.5,11.25 C8.09,11.25 7.75,11.59 7.75,12 C7.75,12.41 8.09,12.75 8.5,12.75 L11.25,12.75 L11.25,15.5 C11.25,15.91 11.59,16.25 12,16.25 C12.41,16.25 12.75,15.91 12.75,15.5 L12.75,12.75 L15.5,12.75 C15.91,12.75 16.25,12.41 16.25,12 C16.25,11.59 15.91,11.25 15.5,11.25 Z"/>
</svg>

