<svg xmlns="http://www.w3.org/2000/svg" width="24" height="24" viewBox="0 0 24 24">
  <defs/>
  <path fill="#292D32" d="M7.97,14.83 C7.25,14.01 6.18,13.5 5,13.5 C2.79,13.5 1,15.29 1,17.5 C1,18.25 1.21,18.96 1.58,19.56 C1.78,19.9 2.04,20.21 2.34,20.47 C3.04,21.11 3.97,21.5 5,21.5 C6.46,21.5 7.73,20.72 8.42,19.56 C8.79,18.96 9,18.25 9,17.5 C9,16.48 8.61,15.54 7.97,14.83 Z M6.6,19.08 C6.45,19.23 6.26,19.3 6.07,19.3 C5.88,19.3 5.69,19.23 5.54,19.08 L5.01,18.55 L4.46,19.1 C4.31,19.25 4.12,19.32 3.93,19.32 C3.74,19.32 3.55,19.25 3.4,19.1 C3.11,18.81 3.11,18.33 3.4,18.04 L3.95,17.49 L3.42,16.96 C3.13,16.67 3.13,16.19 3.42,15.9 C3.71,15.61 4.19,15.61 4.48,15.9 L5.01,16.43 L5.51,15.93 C5.8,15.64 6.28,15.64 6.57,15.93 C6.86,16.22 6.86,16.7 6.57,16.99 L6.07,17.49 L6.6,18.02 C6.89,18.31 6.89,18.78 6.6,19.08 Z"/>
  <path fill="#292D32" d="M17.25,2.43 L7.75,2.43 C4.9,2.43 3,4.33 3,7.18 L3,11.64 C3,11.99 3.36,12.24 3.7,12.15 C4.12,12.05 4.55,12 5,12 C7.86,12 10.22,14.32 10.48,17.13 C10.5,17.41 10.73,17.63 11,17.63 L11.55,17.63 L15.78,20.45 C16.4,20.87 17.25,20.41 17.25,19.65 L17.25,17.63 C18.67,17.63 19.86,17.15 20.69,16.33 C21.52,15.49 22,14.3 22,12.88 L22,7.18 C22,4.33 20.1,2.43 17.25,2.43 Z M15.83,10.81 L9.17,10.81 C8.78,10.81 8.46,10.49 8.46,10.1 C8.46,9.7 8.78,9.38 9.17,9.38 L15.83,9.38 C16.22,9.38 16.54,9.7 16.54,10.1 C16.54,10.49 16.22,10.81 15.83,10.81 Z"/>
</svg>

