<svg xmlns="http://www.w3.org/2000/svg" width="24" height="24" viewBox="0 0 24 24">
  <defs/>
  <path fill="#292D32" d="M17,2 L7,2 C4.24,2 2,4.23 2,6.98 L2,12.96 L2,13.96 C2,16.71 4.24,18.94 7,18.94 L8.5,18.94 C8.77,18.94 9.13,19.12 9.3,19.34 L10.8,21.33 C11.46,22.21 12.54,22.21 13.2,21.33 L14.7,19.34 C14.89,19.09 15.19,18.94 15.5,18.94 L17,18.94 C19.76,18.94 22,16.71 22,13.96 L22,6.98 C22,4.23 19.76,2 17,2 Z M13,13.75 L7,13.75 C6.59,13.75 6.25,13.41 6.25,13 C6.25,12.59 6.59,12.25 7,12.25 L13,12.25 C13.41,12.25 13.75,12.59 13.75,13 C13.75,13.41 13.41,13.75 13,13.75 Z M17,8.75 L7,8.75 C6.59,8.75 6.25,8.41 6.25,8 C6.25,7.59 6.59,7.25 7,7.25 L17,7.25 C17.41,7.25 17.75,7.59 17.75,8 C17.75,8.41 17.41,8.75 17,8.75 Z"/>
</svg>

