<svg xmlns="http://www.w3.org/2000/svg" width="24" height="24" viewBox="0 0 24 24">
  <defs/>
  <path fill="#292D32" d="M13.19,6 L6.79,6 C6.53,6 6.28,6.01 6.04,6.04 C3.35,6.27 2,7.86 2,10.79 L2,14.79 C2,18.79 3.6,19.58 6.79,19.58 L7.19,19.58 C7.41,19.58 7.7,19.73 7.83,19.9 L9.03,21.5 C9.56,22.21 10.42,22.21 10.95,21.5 L12.15,19.9 C12.3,19.7 12.54,19.58 12.79,19.58 L13.19,19.58 C16.12,19.58 17.71,18.24 17.94,15.54 C17.97,15.3 17.98,15.05 17.98,14.79 L17.98,10.79 C17.98,7.6 16.38,6 13.19,6 Z M6.5,14 C5.94,14 5.5,13.55 5.5,13 C5.5,12.45 5.95,12 6.5,12 C7.05,12 7.5,12.45 7.5,13 C7.5,13.55 7.05,14 6.5,14 Z M9.99,14 C9.43,14 8.99,13.55 8.99,13 C8.99,12.45 9.44,12 9.99,12 C10.54,12 10.99,12.45 10.99,13 C10.99,13.55 10.55,14 9.99,14 Z M13.49,14 C12.93,14 12.49,13.55 12.49,13 C12.49,12.45 12.94,12 13.49,12 C14.04,12 14.49,12.45 14.49,13 C14.49,13.55 14.04,14 13.49,14 Z"/>
  <path fill="#292D32" d="M21.98,6.79 L21.98,10.79 C21.98,12.79 21.36,14.15 20.12,14.9 C19.82,15.08 19.47,14.84 19.47,14.49 L19.48,10.79 C19.48,6.79 17.19,4.5 13.19,4.5 L7.1,4.51 C6.75,4.51 6.51,4.16 6.69,3.86 C7.44,2.62 8.8,2 10.79,2 L17.19,2 C20.38,2 21.98,3.6 21.98,6.79 Z"/>
</svg>

