<svg xmlns="http://www.w3.org/2000/svg" width="24" height="24" viewBox="0 0 24 24">
  <defs/>
  <path fill="#292D32" opacity="0.4" d="M8.5,18.97 L8,18.97 C4,18.97 2,17.97 2,12.97 L2,7.97 C2,3.97 4,1.97 8,1.97 L16,1.97 C20,1.97 22,3.97 22,7.97 L22,12.97 C22,16.97 20,18.97 16,18.97 L15.5,18.97 C15.19,18.97 14.89,19.12 14.7,19.37 L13.2,21.37 C12.54,22.25 11.46,22.25 10.8,21.37 L9.3,19.37 C9.14,19.15 8.78,18.97 8.5,18.97 Z"/>
  <path fill="#292D32" d="M7.999,13.45 C7.809,13.45 7.619,13.38 7.469,13.23 L5.469,11.23 C5.179,10.94 5.179,10.46 5.469,10.17 L7.469,8.17 C7.759,7.88 8.239,7.88 8.529,8.17 C8.819,8.46 8.819,8.94 8.529,9.23 L7.059,10.7 L8.529,12.17 C8.819,12.46 8.819,12.94 8.529,13.23 C8.379,13.38 8.189,13.45 7.999,13.45 Z"/>
  <path fill="#292D32" d="M15.999,13.45 C15.809,13.45 15.62,13.38 15.47,13.23 C15.18,12.94 15.18,12.46 15.47,12.17 L16.939,10.7 L15.47,9.23 C15.18,8.94 15.18,8.46 15.47,8.17 C15.759,7.88 16.239,7.88 16.529,8.17 L18.529,10.17 C18.82,10.46 18.82,10.94 18.529,11.23 L16.529,13.23 C16.38,13.38 16.189,13.45 15.999,13.45 Z"/>
  <path fill="#292D32" d="M11,13.78 C10.9,13.78 10.8,13.76 10.7,13.72 C10.32,13.56 10.14,13.12 10.31,12.73 L12.31,8.06 C12.47,7.68 12.91,7.5 13.3,7.67 C13.68,7.83 13.86,8.27 13.69,8.66 L11.69,13.33 C11.57,13.61 11.29,13.78 11,13.78 Z"/>
</svg>

