<svg xmlns="http://www.w3.org/2000/svg" width="24" height="24" viewBox="0 0 24 24">
  <defs/>
  <path fill="#292D32" d="M16,22.75 L3,22.75 C2.04,22.75 1.25,21.96 1.25,21 L1.25,8 C1.25,3.58 3.58,1.25 8,1.25 L16,1.25 C20.42,1.25 22.75,3.58 22.75,8 L22.75,16 C22.75,20.42 20.42,22.75 16,22.75 Z M8,2.75 C4.42,2.75 2.75,4.42 2.75,8 L2.75,21 C2.75,21.14 2.86,21.25 3,21.25 L16,21.25 C19.58,21.25 21.25,19.58 21.25,16 L21.25,8 C21.25,4.42 19.58,2.75 16,2.75 L8,2.75 Z"/>
  <path fill="#292D32" d="M7.95,17.75 C7.48,17.75 7.05,17.58 6.73,17.27 C6.35,16.89 6.18,16.35 6.27,15.77 L6.55,13.79 C6.61,13.36 6.88,12.81 7.19,12.5 L12.38,7.31 C14.16,5.53 15.71,6.33 16.69,7.31 C17.46,8.08 17.81,8.89 17.73,9.7 C17.67,10.36 17.32,10.98 16.69,11.62 L11.5,16.81 C11.19,17.12 10.65,17.39 10.21,17.46 L8.23,17.74 C8.14,17.74 8.04,17.75 7.95,17.75 Z M14.53,7.75 C14.16,7.75 13.83,7.99 13.45,8.36 L8.26,13.55 C8.18,13.63 8.06,13.88 8.04,13.99 L7.76,15.97 C7.75,16.07 7.76,16.16 7.8,16.2 C7.84,16.24 7.93,16.25 8.03,16.24 L10.01,15.96 C10.13,15.94 10.37,15.82 10.45,15.74 L15.64,10.55 C16.02,10.17 16.22,9.84 16.25,9.54 C16.28,9.2 16.08,8.8 15.64,8.36 C15.2,7.94 14.85,7.75 14.53,7.75 Z"/>
  <path fill="#292D32" d="M15.419,12.58 C15.349,12.58 15.279,12.57 15.219,12.55 C13.409,12.04 11.959,10.6 11.449,8.78 C11.339,8.38 11.569,7.97 11.969,7.85 C12.369,7.74 12.779,7.97 12.889,8.37 C13.259,9.68 14.309,10.73 15.619,11.1 C16.019,11.21 16.249,11.63 16.139,12.03 C16.049,12.36 15.749,12.58 15.419,12.58 Z"/>
</svg>

