<svg xmlns="http://www.w3.org/2000/svg" width="24" height="24" viewBox="0 0 24 24">
  <defs/>
  <path fill="#292D32" d="M21.25,8 Q21.25,2.75 16,2.75 L8,2.75 Q2.75,2.75 2.75,8 L2.75,21 Q2.75,21.25 3,21.25 L16,21.25 Q21.25,21.25 21.25,16 L21.25,12 Q21.25,11.689 21.47,11.47 Q21.689,11.25 22,11.25 Q22.311,11.25 22.53,11.47 Q22.75,11.689 22.75,12 L22.75,16 Q22.75,22.75 16,22.75 L3,22.75 Q2.277,22.75 1.763,22.237 Q1.25,21.723 1.25,21 L1.25,8 Q1.25,1.25 8,1.25 L16,1.25 Q22.75,1.25 22.75,8 Q22.75,8.311 22.53,8.53 Q22.311,8.75 22,8.75 Q21.689,8.75 21.47,8.53 Q21.25,8.311 21.25,8 Z"/>
  <path fill="#292D32" d="M14.98,11.21 L15.63,10.56 Q15.681,10.509 15.695,10.492 Q15.714,10.468 15.735,10.446 Q16.691,9.431 15.63,8.37 Q14.536,7.276 13.441,8.37 L8.251,13.56 Q8.071,13.74 8.033,14.006 L7.753,15.985 Q7.73,16.154 7.794,16.217 Q7.857,16.281 8.028,16.257 L10.006,15.977 Q10.271,15.94 10.45,15.76 L12.39,13.82 Q12.61,13.6 12.921,13.6 Q13.231,13.6 13.451,13.82 Q13.671,14.039 13.671,14.35 Q13.671,14.661 13.451,14.88 L11.511,16.82 Q10.978,17.354 10.216,17.463 L8.234,17.743 Q7.324,17.869 6.733,17.278 Q6.142,16.687 6.268,15.775 L6.548,13.794 Q6.657,13.033 7.19,12.5 L12.38,7.31 Q14.536,5.154 16.691,7.31 Q18.771,9.39 16.844,11.456 Q16.783,11.528 16.691,11.62 L16.691,11.62 L16.041,12.27 Q15.821,12.49 15.511,12.49 Q15.2,12.49 14.98,12.27 Q14.761,12.051 14.761,11.74 Q14.761,11.429 14.98,11.21 Z"/>
  <path fill="#292D32" d="M12.892,8.378 Q13.491,10.514 15.621,11.108 Q15.92,11.191 16.073,11.461 Q16.226,11.732 16.142,12.031 Q16.059,12.331 15.789,12.483 Q15.518,12.636 15.219,12.553 Q12.275,11.733 11.448,8.782 Q11.364,8.483 11.516,8.213 Q11.668,7.942 11.968,7.858 Q12.267,7.774 12.537,7.926 Q12.808,8.079 12.892,8.378 Z"/>
</svg>

