<svg xmlns="http://www.w3.org/2000/svg" width="24" height="24" viewBox="0 0 24 24">
  <defs/>
  <path fill="#292D32" opacity="0.4" d="M22,7.43 L22,13.43 C22,14.93 21.5,16.18 20.62,17.06 C19.75,17.93 18.5,18.43 17,18.43 L17,20.56 C17,21.36 16.11,21.84 15.45,21.4 L11,18.43 L8.88,18.43 C8.96,18.13 9,17.82 9,17.5 C9,16.48 8.61,15.54 7.97,14.83 C7.25,14.01 6.18,13.5 5,13.5 C3.88,13.5 2.86,13.96 2.13,14.71 C2.04,14.31 2,13.88 2,13.43 L2,7.43 C2,4.43 4,2.43 7,2.43 L17,2.43 C20,2.43 22,4.43 22,7.43 Z"/>
  <path fill="#292D32" d="M15.5,11.25 L8.5,11.25 C8.09,11.25 7.75,10.91 7.75,10.5 C7.75,10.09 8.09,9.75 8.5,9.75 L15.5,9.75 C15.91,9.75 16.25,10.09 16.25,10.5 C16.25,10.91 15.91,11.25 15.5,11.25 Z"/>
  <path fill="#292D32" d="M5,13.5 C2.79,13.5 1,15.29 1,17.5 C1,18.25 1.21,18.96 1.58,19.56 C2.27,20.72 3.54,21.5 5,21.5 C6.46,21.5 7.73,20.72 8.42,19.56 C8.79,18.96 9,18.25 9,17.5 C9,15.29 7.21,13.5 5,13.5 Z M6.97,17.17 L4.84,19.14 C4.7,19.27 4.51,19.34 4.33,19.34 C4.14,19.34 3.95,19.27 3.8,19.12 L2.81,18.13 C2.52,17.84 2.52,17.36 2.81,17.07 C3.1,16.78 3.58,16.78 3.87,17.07 L4.35,17.55 L5.95,16.07 C6.25,15.79 6.73,15.81 7.01,16.11 C7.29,16.41 7.27,16.89 6.97,17.17 Z"/>
</svg>

