<svg xmlns="http://www.w3.org/2000/svg" width="24" height="24" viewBox="0 0 24 24">
  <defs/>
  <path fill="#292D32" opacity="0.4" d="M2,12.97 L2,6.99 C2,4.23 4.24,2 7,2 L17,2 C19.76,2 22,4.23 22,6.99 L22,13.97 C22,16.72 19.76,18.95 17,18.95 L15.5,18.95 C15.19,18.95 14.89,19.1 14.7,19.35 L13.2,21.34 C12.54,22.22 11.46,22.22 10.8,21.34 L9.3,19.35 C9.14,19.13 8.78,18.95 8.5,18.95 L7,18.95 C4.24,18.95 2,16.72 2,13.97 L2,12.97 Z"/>
  <path fill="#292D32" d="M12,12 C11.44,12 11,11.55 11,11 C11,10.45 11.45,10 12,10 C12.55,10 13,10.45 13,11 C13,11.55 12.56,12 12,12 Z"/>
  <path fill="#292D32" d="M16,12 C15.44,12 15,11.55 15,11 C15,10.45 15.45,10 16,10 C16.55,10 17,10.45 17,11 C17,11.55 16.56,12 16,12 Z"/>
  <path fill="#292D32" d="M8,12 C7.44,12 7,11.55 7,11 C7,10.45 7.45,10 8,10 C8.55,10 9,10.45 9,11 C9,11.55 8.56,12 8,12 Z"/>
</svg>

