<svg xmlns="http://www.w3.org/2000/svg" width="24" height="24" viewBox="0 0 24 24">
  <defs/>
  <path fill="#292D32" d="M2.75,13.02 L2.75,15 Q2.75,18.439 4.155,19.845 Q5.561,21.25 9,21.25 L15,21.25 Q18.439,21.25 19.845,19.845 Q21.25,18.439 21.25,15 L21.25,9 Q21.25,2.75 15,2.75 L9,2.75 Q2.75,2.75 2.75,9 Q2.75,9.311 2.53,9.53 Q2.311,9.75 2,9.75 Q1.689,9.75 1.47,9.53 Q1.25,9.311 1.25,9 Q1.25,1.25 9,1.25 L15,1.25 Q22.75,1.25 22.75,9 L22.75,15 Q22.75,22.75 15,22.75 L9,22.75 Q1.25,22.75 1.25,15 L1.25,13.02 Q1.25,12.709 1.47,12.49 Q1.689,12.27 2,12.27 Q2.311,12.27 2.53,12.49 Q2.75,12.709 2.75,13.02 Z"/>
  <path fill="#292D32" d="M19.03,9.76 L19.03,12.9 Q19.03,13.244 18.996,13.569 Q18.669,17.42 14.52,17.42 L14.273,17.42 L13.371,18.629 Q12.83,19.35 12.015,19.35 Q11.2,19.35 10.66,18.63 L9.757,17.42 L9.51,17.42 Q7.211,17.42 6.195,16.532 Q5,15.487 5,12.91 L5,9.77 Q5,5.621 8.867,5.293 Q9.176,5.26 9.52,5.26 L14.55,5.26 Q16.714,5.251 17.873,6.415 Q19.03,7.577 19.03,9.76 Z M17.53,9.76 Q17.53,8.196 16.81,7.473 Q16.093,6.754 14.55,6.76 L9.52,6.76 Q9.254,6.76 8.993,6.787 Q6.5,6.999 6.5,9.77 L6.5,12.91 Q6.5,15.92 9.51,15.92 L9.82,15.92 Q10.497,15.92 10.921,16.472 L11.86,17.73 Q11.95,17.85 12.015,17.85 Q12.08,17.85 12.169,17.732 L13.102,16.481 Q13.496,15.92 14.21,15.92 L14.52,15.92 Q17.291,15.92 17.504,13.411 Q17.53,13.166 17.53,12.9 Z"/>
</svg>

