<svg xmlns="http://www.w3.org/2000/svg" width="24" height="24" viewBox="0 0 24 24">
  <defs/>
  <path fill="#292D32" d="M18.28,9.76 L18.28,12.9 C18.28,13.1 18.27,13.3 18.25,13.49 C18.07,15.61 16.82,16.67 14.52,16.67 L14.21,16.67 C14.01,16.67 13.82,16.76 13.71,16.92 L12.77,18.18 C12.35,18.74 11.68,18.74 11.26,18.18 L10.32,16.92 C10.22,16.79 9.99,16.67 9.82,16.67 L9.51,16.67 C7,16.67 5.75,16.05 5.75,12.91 L5.75,9.77 C5.75,7.47 6.81,6.22 8.93,6.04 C9.12,6.02 9.32,6.01 9.52,6.01 L14.55,6.01 C17.02,6 18.28,7.26 18.28,9.76 Z"/>
  <path fill="#292D32" opacity="0.4" d="M16.19,2 L7.82,2 C4.18,2 2.01,4.17 2.01,7.81 L2.01,16.18 C2.01,19.82 4.18,21.99 7.82,21.99 L16.19,21.99 C19.83,21.99 22,19.82 22,16.18 L22,7.81 C22,4.17 19.83,2 16.19,2 Z"/>
</svg>

