<svg xmlns="http://www.w3.org/2000/svg" width="24" height="24" viewBox="0 0 24 24">
  <defs/>
  <path fill="#292D32" d="M16,1.25 Q22.75,1.25 22.75,8 L22.75,16 Q22.75,22.75 16,22.75 L3,22.75 Q2.277,22.75 1.763,22.237 Q1.25,21.723 1.25,21 L1.25,8 Q1.25,1.25 8,1.25 Z M16,2.75 L8,2.75 Q2.75,2.75 2.75,8 L2.75,21 Q2.75,21.25 3,21.25 L16,21.25 Q21.25,21.25 21.25,16 L21.25,8 Q21.25,2.75 16,2.75 Z"/>
  <path fill="#292D32" d="M12.38,7.31 Q13.334,6.355 14.311,6.262 Q15.535,6.145 16.7,7.32 Q18.856,9.475 16.7,11.63 L11.51,16.82 Q10.977,17.354 10.215,17.463 L8.233,17.743 Q7.324,17.869 6.732,17.278 Q6.141,16.686 6.267,15.775 L6.548,13.794 Q6.656,13.033 7.19,12.5 Z M13.44,8.37 L8.25,13.56 Q8.07,13.74 8.033,14.006 L7.753,15.985 Q7.729,16.153 7.793,16.217 Q7.856,16.281 8.027,16.257 L10.005,15.977 Q10.27,15.939 10.45,15.76 L15.64,10.57 Q16.734,9.475 15.64,8.38 Q14.97,7.706 14.454,7.755 Q14.013,7.797 13.44,8.37 Z"/>
  <path fill="#292D32" d="M12.892,8.377 Q13.491,10.514 15.621,11.107 Q15.92,11.191 16.073,11.461 Q16.226,11.732 16.143,12.031 Q16.059,12.33 15.789,12.483 Q15.518,12.636 15.219,12.552 Q12.275,11.732 11.448,8.782 Q11.364,8.483 11.516,8.212 Q11.668,7.941 11.968,7.858 Q12.267,7.774 12.538,7.926 Q12.808,8.078 12.892,8.377 Z"/>
</svg>

