<svg xmlns="http://www.w3.org/2000/svg" width="24" height="24" viewBox="0 0 24 24">
  <defs/>
  <path fill="#292D32" opacity="0.4" d="M18.47,16.83 L18.86,19.99 C18.96,20.82 18.07,21.4 17.36,20.97 L13.17,18.48 C12.71,18.48 12.26,18.45 11.82,18.39 C12.56,17.52 13,16.42 13,15.23 C13,12.39 10.54,10.09 7.5,10.09 C6.34,10.09 5.27,10.42 4.38,11 C4.35,10.75 4.34,10.5 4.34,10.24 C4.34,5.69 8.29,2 13.17,2 C18.05,2 22,5.69 22,10.24 C22,12.94 20.61,15.33 18.47,16.83 Z"/>
  <path fill="#292D32" d="M13,15.23 C13,16.42 12.56,17.52 11.82,18.39 C10.83,19.59 9.26,20.36 7.5,20.36 L4.89,21.91 C4.45,22.18 3.89,21.81 3.95,21.3 L4.2,19.33 C2.86,18.4 2,16.91 2,15.23 C2,13.47 2.94,11.92 4.38,11 C5.27,10.42 6.34,10.09 7.5,10.09 C10.54,10.09 13,12.39 13,15.23 Z"/>
</svg>

