<svg xmlns="http://www.w3.org/2000/svg" width="24" height="24" viewBox="0 0 24 24">
  <defs/>
  <path fill="#292D32" d="M18,10.18 L18,12.81 Q18,13.099 17.966,13.378 Q17.677,16.7 14.1,16.7 L13.952,16.7 L13.229,17.661 Q12.744,18.312 12,18.312 Q11.256,18.312 10.768,17.658 L10.048,16.7 L9.9,16.7 Q6,16.7 6,12.8 L6,10.17 Q6,6.595 9.322,6.304 Q9.601,6.27 9.89,6.27 L14.09,6.27 Q18,6.307 18,10.18 Z M16.5,10.18 Q16.5,7.793 14.09,7.77 L9.89,7.77 Q9.687,7.77 9.493,7.794 Q9.478,7.796 9.464,7.797 Q7.5,7.965 7.5,10.17 L7.5,12.8 Q7.5,14.332 8.031,14.796 Q8.493,15.2 9.9,15.2 L10.16,15.2 Q10.764,15.2 11.16,15.685 Q11.17,15.697 11.179,15.709 L11.972,16.762 L12,16.812 L12.031,16.759 L12.826,15.703 Q13.212,15.2 13.84,15.2 L14.1,15.2 Q16.306,15.2 16.473,13.237 Q16.474,13.222 16.476,13.207 Q16.5,13.013 16.5,12.81 Z"/>
  <path fill="#292D32" d="M4.6,6.449 Q2.75,8.922 2.75,12 Q2.75,15.829 5.46,18.54 Q8.171,21.25 12,21.25 Q15.829,21.25 18.54,18.54 Q21.25,15.829 21.25,12 Q21.25,8.171 18.54,5.46 Q15.829,2.75 12,2.75 Q10.031,2.75 8.276,3.535 Q7.993,3.661 7.702,3.551 Q7.412,3.44 7.285,3.156 Q7.159,2.873 7.269,2.582 Q7.38,2.292 7.664,2.165 Q9.711,1.25 12,1.25 Q16.451,1.25 19.6,4.4 Q22.75,7.549 22.75,12 Q22.75,16.451 19.6,19.6 Q16.451,22.75 12,22.75 Q7.549,22.75 4.4,19.6 Q1.25,16.451 1.25,12 Q1.25,8.422 3.4,5.551 Q3.586,5.302 3.893,5.258 Q4.201,5.213 4.449,5.4 Q4.698,5.586 4.742,5.893 Q4.787,6.201 4.6,6.449 Z"/>
</svg>

