<svg xmlns="http://www.w3.org/2000/svg" width="24" height="24" viewBox="0 0 24 24">
  <defs/>
  <path fill="#292D32" opacity="0.4" d="M22.75,7.43 L22.75,13.43 Q22.75,15.991 21.15,17.591 Q19.8,18.941 17.75,19.144 L17.75,20.56 Q17.75,21.607 16.829,22.105 Q15.905,22.605 15.034,22.024 L10.773,19.18 L8.88,19.18 Q8.569,19.18 8.35,18.961 Q8.13,18.741 8.13,18.43 Q8.13,18.332 8.155,18.237 Q8.25,17.882 8.25,17.5 Q8.25,16.261 7.413,15.332 Q6.463,14.25 5,14.25 Q3.624,14.25 2.667,15.233 Q2.451,15.456 2.14,15.46 Q1.83,15.464 1.607,15.248 Q1.447,15.092 1.398,14.875 Q1.25,14.216 1.25,13.43 L1.25,7.43 Q1.25,1.68 7,1.68 L17,1.68 Q19.561,1.68 21.155,3.275 Q22.75,4.87 22.75,7.43 Z M21.25,7.43 Q21.25,5.491 20.095,4.336 Q18.939,3.18 17,3.18 L7,3.18 Q2.75,3.18 2.75,7.43 L2.75,13.299 Q3.758,12.75 5,12.75 Q7.142,12.75 8.527,14.328 Q9.75,15.685 9.75,17.5 Q9.75,17.591 9.746,17.68 L11,17.68 Q11.227,17.68 11.416,17.806 L15.866,20.776 Q15.986,20.856 16.116,20.786 Q16.25,20.713 16.25,20.56 L16.25,18.43 Q16.25,18.12 16.47,17.9 Q16.689,17.68 17,17.68 Q18.939,17.68 20.09,16.53 Q21.25,15.37 21.25,13.43 Z"/>
  <path fill="#292D32" d="M9.75,17.5 Q9.75,18.828 9.063,19.946 Q8.685,20.591 8.122,21.066 Q6.8,22.25 5,22.25 Q2.307,22.25 0.935,19.943 Q0.25,18.832 0.25,17.5 Q0.25,15.208 2.034,13.792 Q3.342,12.75 5,12.75 Q6.968,12.75 8.359,14.141 Q9.75,15.532 9.75,17.5 Z M8.25,17.5 Q8.25,14.25 5,14.25 Q3.866,14.25 2.966,14.968 Q1.75,15.933 1.75,17.5 Q1.75,18.407 2.225,19.177 Q3.16,20.75 5,20.75 Q6.231,20.75 7.128,19.943 Q7.138,19.934 7.148,19.925 Q7.521,19.612 7.772,19.182 Q7.777,19.174 7.782,19.166 Q8.25,18.407 8.25,17.5 Z"/>
  <path fill="#292D32" d="M3.97,16.97 L4.45,17.45 L6.05,15.969 Q6.278,15.758 6.589,15.771 Q6.899,15.783 7.11,16.011 Q7.321,16.239 7.309,16.549 Q7.297,16.86 7.069,17.071 L4.939,19.041 Q4.717,19.246 4.415,19.24 Q4.113,19.234 3.899,19.02 L2.909,18.03 Q2.689,17.811 2.689,17.5 Q2.689,17.189 2.909,16.97 Q3.129,16.75 3.439,16.75 Q3.75,16.75 3.97,16.97 Z"/>
  <path fill="#292D32" d="M8.5,9.75 L15.5,9.75 Q15.811,9.75 16.03,9.97 Q16.25,10.189 16.25,10.5 Q16.25,10.811 16.03,11.03 Q15.811,11.25 15.5,11.25 L8.5,11.25 Q8.189,11.25 7.97,11.03 Q7.75,10.811 7.75,10.5 Q7.75,10.189 7.97,9.97 Q8.189,9.75 8.5,9.75 Z"/>
</svg>

