<svg xmlns="http://www.w3.org/2000/svg" width="24" height="24" viewBox="0 0 24 24">
  <defs/>
  <path fill="#292D32" d="M17.75,9 Q17.75,12.228 15.314,14.5 Q13.029,16.631 9.857,16.744 L9.147,17.599 L8.596,18.26 Q7.976,18.999 7.019,18.869 Q6.064,18.74 5.659,17.865 L4.4,15.092 Q1.25,12.78 1.25,9 Q1.25,5.772 3.686,3.5 Q6.098,1.25 9.5,1.25 Q14.785,1.25 16.974,5.741 Q17.75,7.276 17.75,9 Z M16.25,9 Q16.25,7.633 15.626,6.399 Q13.847,2.75 9.5,2.75 Q6.689,2.75 4.709,4.597 Q2.75,6.425 2.75,9 Q2.75,12.101 5.431,13.987 Q5.598,14.104 5.683,14.29 L7.021,17.235 Q7.08,17.364 7.221,17.383 Q7.358,17.402 7.444,17.3 L7.993,16.641 L8.923,15.521 Q9.148,15.25 9.5,15.25 Q12.311,15.25 14.291,13.403 Q16.25,11.575 16.25,9 Z"/>
  <path fill="#292D32" d="M22.75,12.86 Q22.75,16.64 19.6,18.952 L18.343,21.72 Q17.936,22.6 16.984,22.733 Q16.02,22.867 15.401,22.117 L14.143,20.604 Q10.319,20.477 7.987,17.592 Q7.818,17.383 7.82,17.115 Q7.822,16.847 7.993,16.641 L8.923,15.521 Q9.148,15.25 9.5,15.25 Q12.311,15.25 14.291,13.403 Q16.25,11.576 16.25,9 Q16.25,7.633 15.631,6.408 Q15.491,6.131 15.587,5.836 Q15.684,5.541 15.962,5.401 Q16.203,5.278 16.468,5.339 Q22.75,6.78 22.75,12.86 Z M21.25,12.86 Q21.25,8.696 17.532,7.229 Q17.75,8.089 17.75,9 Q17.75,12.228 15.314,14.5 Q13.029,16.631 9.857,16.744 L9.556,17.107 Q11.472,19.11 14.5,19.11 Q14.852,19.11 15.077,19.381 L16.559,21.163 Q16.643,21.266 16.776,21.247 Q16.918,21.227 16.977,21.1 L18.317,18.15 Q18.402,17.964 18.569,17.847 Q21.25,15.961 21.25,12.86 Z"/>
  <path fill="#292D32" d="M7,8.25 L12,8.25 Q12.311,8.25 12.53,8.47 Q12.75,8.689 12.75,9 Q12.75,9.311 12.53,9.53 Q12.311,9.75 12,9.75 L7,9.75 Q6.689,9.75 6.47,9.53 Q6.25,9.311 6.25,9 Q6.25,8.689 6.47,8.47 Q6.689,8.25 7,8.25 Z"/>
</svg>

