<svg xmlns="http://www.w3.org/2000/svg" width="24" height="24" viewBox="0 0 24 24">
  <defs/>
  <path d="M4.702,6.035 Q2.75,8.339 2.75,11.26 Q2.75,15.275 6.133,17.843 Q6.43,18.068 6.43,18.44 L6.43,20.718 L8.672,19.456 Q8.946,19.303 9.247,19.389 Q10.573,19.77 12,19.77 Q15.846,19.77 18.56,17.256 Q21.25,14.765 21.25,11.26 Q21.25,7.755 18.56,5.264 Q15.846,2.75 12,2.75 Q10.101,2.75 8.385,3.428 Q8.097,3.542 7.812,3.418 Q7.527,3.294 7.412,3.006 Q7.298,2.717 7.422,2.432 Q7.546,2.147 7.834,2.032 Q9.816,1.25 12,1.25 Q16.434,1.25 19.58,4.163 Q22.75,7.1 22.75,11.26 Q22.75,15.42 19.58,18.357 Q16.434,21.27 12,21.27 Q10.526,21.27 9.14,20.914 L6.048,22.654 Q5.876,22.75 5.68,22.75 Q5.369,22.75 5.15,22.53 Q4.93,22.311 4.93,22 L4.93,18.805 Q1.25,15.839 1.25,11.26 Q1.25,7.789 3.558,5.065 Q3.759,4.828 4.068,4.803 Q4.378,4.777 4.615,4.978 Q4.852,5.179 4.877,5.488 Q4.903,5.798 4.702,6.035 Z"/>
  <path d="M10.706,8.768 Q11.094,8.305 11.629,8.586 L13.084,9.352 L16.314,8.524 Q16.686,8.428 16.981,8.674 Q17.219,8.874 17.247,9.183 Q17.275,9.492 17.076,9.731 L13.316,14.231 Q13.14,14.441 12.87,14.489 Q12.6,14.536 12.363,14.399 L11.074,13.65 L7.678,14.479 Q7.309,14.569 7.018,14.324 Q6.78,14.124 6.753,13.815 Q6.726,13.505 6.926,13.268 Z M11.466,10.195 L9.547,12.479 L11.012,12.121 Q11.306,12.05 11.567,12.201 L12.57,12.784 L14.433,10.554 L13.176,10.876 Q12.896,10.948 12.641,10.814 L11.466,10.195 Z"/>
</svg>

