<svg xmlns="http://www.w3.org/2000/svg" width="24" height="24" viewBox="0 0 24 24">
  <defs/>
  <path fill="#292D32" d="M8.5,9.75 L15.5,9.75 Q15.811,9.75 16.03,9.97 Q16.25,10.189 16.25,10.5 Q16.25,10.811 16.03,11.03 Q15.811,11.25 15.5,11.25 L8.5,11.25 Q8.189,11.25 7.97,11.03 Q7.75,10.811 7.75,10.5 Q7.75,10.189 7.97,9.97 Q8.189,9.75 8.5,9.75 Z"/>
  <path fill="#292D32" d="M7,19.18 Q4.439,19.18 2.845,17.585 Q1.25,15.991 1.25,13.43 L1.25,7.43 Q1.25,1.68 7,1.68 L17,1.68 Q19.561,1.68 21.155,3.275 Q22.75,4.869 22.75,7.43 L22.75,13.43 Q22.75,15.991 21.155,17.585 Q19.801,18.94 17.75,19.144 L17.75,20.56 Q17.75,21.609 16.825,22.102 Q15.903,22.593 15.035,22.014 L10.773,19.18 Z M7,17.68 L11,17.68 Q11.227,17.68 11.415,17.805 L15.865,20.766 Q15.989,20.848 16.12,20.778 Q16.25,20.709 16.25,20.56 L16.25,18.43 Q16.25,18.119 16.47,17.9 Q16.689,17.68 17,17.68 Q18.939,17.68 20.095,16.525 Q21.25,15.369 21.25,13.43 L21.25,7.43 Q21.25,3.18 17,3.18 L7,3.18 Q5.061,3.18 3.905,4.335 Q2.75,5.491 2.75,7.43 L2.75,13.43 Q2.75,15.369 3.905,16.525 Q5.061,17.68 7,17.68 Z"/>
</svg>

