<svg xmlns="http://www.w3.org/2000/svg" width="24" height="24" viewBox="0 0 24 24">
  <defs/>
  <path fill="#292D32" d="M15.5,11.25 L8.5,11.25 C8.09,11.25 7.75,10.91 7.75,10.5 C7.75,10.09 8.09,9.75 8.5,9.75 L15.5,9.75 C15.91,9.75 16.25,10.09 16.25,10.5 C16.25,10.91 15.91,11.25 15.5,11.25 Z"/>
  <path fill="#292D32" d="M16,22.32 C15.66,22.32 15.32,22.22 15.03,22.03 L10.77,19.19 L7,19.19 C3.56,19.19 1.25,16.88 1.25,13.44 L1.25,7.44 C1.25,4 3.56,1.69 7,1.69 L17,1.69 C20.44,1.69 22.75,4 22.75,7.44 L22.75,13.44 C22.75,16.62 20.77,18.84 17.75,19.15 L17.75,20.57 C17.75,21.22 17.4,21.81 16.83,22.11 C16.57,22.25 16.28,22.32 16,22.32 Z M7,3.18 C4.42,3.18 2.75,4.85 2.75,7.43 L2.75,13.43 C2.75,16.01 4.42,17.68 7,17.68 L11,17.68 C11.15,17.68 11.29,17.72 11.42,17.81 L15.87,20.77 C15.98,20.84 16.08,20.81 16.13,20.78 C16.18,20.75 16.26,20.69 16.26,20.56 L16.26,18.43 C16.26,18.02 16.6,17.68 17.01,17.68 C19.59,17.68 21.26,16.01 21.26,13.43 L21.26,7.43 C21.26,4.85 19.59,3.18 17.01,3.18 L7,3.18 Z"/>
</svg>

