<svg xmlns="http://www.w3.org/2000/svg" width="24" height="24" viewBox="0 0 24 24">
  <defs/>
  <path fill="#292D32" opacity="0.4" d="M17.98,10.79 L17.98,14.79 C17.98,15.05 17.97,15.3 17.94,15.54 C17.71,18.24 16.12,19.58 13.19,19.58 L12.79,19.58 C12.54,19.58 12.3,19.7 12.15,19.9 L10.95,21.5 C10.42,22.21 9.56,22.21 9.03,21.5 L7.83,19.9 C7.7,19.73 7.41,19.58 7.19,19.58 L6.79,19.58 C3.6,19.58 2,18.79 2,14.79 L2,10.79 C2,7.86 3.35,6.27 6.04,6.04 C6.28,6.01 6.53,6 6.79,6 L13.19,6 C16.38,6 17.98,7.6 17.98,10.79 Z"/>
  <path fill="#292D32" d="M9.99,14 C9.43,14 8.99,13.55 8.99,13 C8.99,12.45 9.44,12 9.99,12 C10.54,12 10.99,12.45 10.99,13 C10.99,13.55 10.55,14 9.99,14 Z"/>
  <path fill="#292D32" d="M13.49,14 C12.93,14 12.49,13.55 12.49,13 C12.49,12.45 12.94,12 13.49,12 C14.04,12 14.49,12.45 14.49,13 C14.49,13.55 14.04,14 13.49,14 Z"/>
  <path fill="#292D32" d="M6.5,14 C5.94,14 5.5,13.55 5.5,13 C5.5,12.45 5.95,12 6.5,12 C7.05,12 7.5,12.45 7.5,13 C7.5,13.55 7.05,14 6.5,14 Z"/>
  <path fill="#292D32" d="M21.979,6.79 L21.979,10.79 C21.979,13.73 20.629,15.31 17.939,15.54 C17.969,15.3 17.979,15.05 17.979,14.79 L17.979,10.79 C17.979,7.6 16.379,6 13.189,6 L6.789,6 C6.529,6 6.279,6.01 6.039,6.04 C6.269,3.35 7.859,2 10.789,2 L17.189,2 C20.379,2 21.979,3.6 21.979,6.79 Z"/>
</svg>

