<svg xmlns="http://www.w3.org/2000/svg" width="24" height="24" viewBox="0 0 24 24">
  <defs/>
  <path fill="#292D32" d="M22.53,21.47 L21.79,20.73 C22.17,20.15 22.4,19.45 22.4,18.7 C22.4,16.66 20.74,15 18.7,15 C16.66,15 15,16.66 15,18.7 C15,20.74 16.66,22.4 18.7,22.4 C19.45,22.4 20.15,22.17 20.73,21.79 L21.47,22.53 C21.62,22.68 21.81,22.75 22,22.75 C22.19,22.75 22.38,22.68 22.53,22.53 C22.82,22.24 22.82,21.76 22.53,21.47 Z"/>
  <path fill="#292D32" opacity="0.4" d="M2,12.97 L2,6.99 C2,4.24 4.24,2.01 7,2.01 L17,2.01 C19.76,2.01 22,4.24 22,7 L22,13.98 C22,16.73 19.76,18.96 17,18.96 L15.5,18.96 C15.19,18.96 14.89,19.11 14.7,19.36 L13.2,21.35 C12.54,22.23 11.46,22.23 10.8,21.35 L9.3,19.36 C9.13,19.14 8.78,18.96 8.5,18.96 L7,18.96 C4.24,18.96 2,16.73 2,13.98 L2,12.97 Z"/>
  <path fill="#292D32" d="M12,12 C11.44,12 10.99,11.55 10.99,11 C10.99,10.45 11.44,10 11.99,10 C12.54,10 12.99,10.45 12.99,11 C12.99,11.55 12.56,12 12,12 Z"/>
  <path fill="#292D32" d="M16,12 C15.44,12 14.99,11.55 14.99,11 C14.99,10.45 15.44,10 15.99,10 C16.54,10 16.99,10.45 16.99,11 C16.99,11.55 16.56,12 16,12 Z"/>
  <path fill="#292D32" d="M8,12 C7.44,12 6.99,11.55 6.99,11 C6.99,10.45 7.44,10 7.99,10 C8.54,10 8.99,10.45 8.99,11 C8.99,11.55 8.56,12 8,12 Z"/>
</svg>

