<svg xmlns="http://www.w3.org/2000/svg" width="24" height="24" viewBox="0 0 24 24">
  <defs/>
  <path fill="#292D32" d="M8.5,19.75 L8,19.75 Q1.25,19.75 1.25,13 L1.25,8 Q1.25,1.25 8,1.25 L16,1.25 Q22.75,1.25 22.75,8 L22.75,13 Q22.75,19.75 16,19.75 L15.5,19.75 Q15.376,19.75 15.297,19.854 L13.8,21.85 Q13.08,22.81 12,22.81 Q10.92,22.81 10.2,21.85 L8.7,19.85 Q8.627,19.75 8.5,19.75 Z M8.5,18.25 Q9.391,18.25 9.9,18.95 L11.4,20.95 Q11.67,21.31 12,21.31 Q12.33,21.31 12.6,20.95 L14.103,18.946 Q14.632,18.25 15.5,18.25 L16,18.25 Q21.25,18.25 21.25,13 L21.25,8 Q21.25,2.75 16,2.75 L8,2.75 Q2.75,2.75 2.75,8 L2.75,13 Q2.75,16.222 3.994,17.311 Q5.068,18.25 8,18.25 Z"/>
  <path fill="#292D32" opacity="0.4" d="M15.997,10 L16.005,10 Q16.42,10 16.713,10.293 Q17.005,10.586 17.005,11 Q17.005,11.414 16.713,11.707 Q16.42,12 16.005,12 L15.997,12 Q15.582,12 15.289,11.707 Q14.997,11.414 14.997,11 Q14.997,10.586 15.289,10.293 Q15.582,10 15.997,10 Z"/>
  <path fill="#292D32" opacity="0.4" d="M11.995,10 L12.003,10 Q12.418,10 12.711,10.293 Q13.003,10.586 13.003,11 Q13.003,11.414 12.711,11.707 Q12.418,12 12.003,12 L11.995,12 Q11.58,12 11.287,11.707 Q10.994,11.414 10.994,11 Q10.994,10.586 11.287,10.293 Q11.58,10 11.995,10 Z"/>
  <path fill="#292D32" opacity="0.4" d="M7.995,10 L8.003,10 Q8.418,10 8.711,10.293 Q9.003,10.586 9.003,11 Q9.003,11.414 8.711,11.707 Q8.418,12 8.003,12 L7.995,12 Q7.58,12 7.287,11.707 Q6.995,11.414 6.995,11 Q6.995,10.586 7.287,10.293 Q7.58,10 7.995,10 Z"/>
</svg>

