<svg xmlns="http://www.w3.org/2000/svg" width="24" height="24" viewBox="0 0 24 24">
  <defs/>
  <path fill="#292D32" d="M16,22.32 C15.66,22.32 15.33,22.22 15.04,22.03 L10.78,19.19 L8.89,19.19 C8.66,19.19 8.44,19.08 8.3,18.9 C8.16,18.71 8.11,18.47 8.17,18.25 C8.23,18.01 8.26,17.77 8.26,17.51 C8.26,16.71 7.96,15.94 7.42,15.34 C6.81,14.65 5.94,14.26 5.01,14.26 C4.12,14.26 3.3,14.61 2.68,15.24 C2.49,15.44 2.2,15.51 1.94,15.44 C1.68,15.36 1.47,15.15 1.41,14.88 C1.31,14.44 1.26,13.96 1.26,13.44 L1.26,7.44 C1.26,4 3.57,1.69 7.01,1.69 L17.01,1.69 C20.45,1.69 22.76,4 22.76,7.44 L22.76,13.44 C22.76,15.11 22.21,16.55 21.16,17.6 C20.28,18.48 19.11,19.01 17.76,19.15 L17.76,20.57 C17.76,21.22 17.4,21.81 16.83,22.12 C16.56,22.25 16.28,22.32 16,22.32 Z M9.75,17.68 L11,17.68 C11.15,17.68 11.29,17.72 11.42,17.81 L15.87,20.78 C15.98,20.85 16.07,20.82 16.12,20.79 C16.17,20.76 16.26,20.7 16.26,20.56 L16.26,18.43 C16.26,18.02 16.6,17.68 17.01,17.68 C18.28,17.68 19.35,17.28 20.1,16.53 C20.86,15.77 21.26,14.7 21.26,13.43 L21.26,7.43 C21.26,4.85 19.59,3.18 17.01,3.18 L7.01,3.18 C4.43,3.18 2.76,4.85 2.76,7.43 L2.76,13.31 C3.44,12.94 4.21,12.75 5.01,12.75 C6.37,12.75 7.66,13.33 8.54,14.33 C9.32,15.2 9.76,16.32 9.76,17.5 C9.75,17.56 9.75,17.62 9.75,17.68 Z"/>
  <path fill="#292D32" d="M5,22.25 C3.34,22.25 1.78,21.37 0.94,19.94 C0.49,19.22 0.25,18.37 0.25,17.5 C0.25,16.04 0.9,14.69 2.03,13.79 C2.87,13.12 3.93,12.75 5,12.75 C7.62,12.75 9.75,14.88 9.75,17.5 C9.75,18.37 9.51,19.22 9.06,19.95 C8.81,20.37 8.49,20.75 8.11,21.07 C7.28,21.83 6.17,22.25 5,22.25 Z M5,14.25 C4.26,14.25 3.56,14.5 2.97,14.97 C2.2,15.58 1.75,16.51 1.75,17.5 C1.75,18.09 1.91,18.67 2.22,19.17 C2.8,20.15 3.87,20.75 5,20.75 C5.79,20.75 6.55,20.46 7.13,19.94 C7.39,19.72 7.61,19.46 7.77,19.18 C8.09,18.67 8.25,18.09 8.25,17.5 C8.25,15.71 6.79,14.25 5,14.25 Z"/>
  <path fill="#292D32" d="M4.429,19.24 C4.239,19.24 4.049,19.17 3.899,19.02 L2.909,18.03 C2.619,17.74 2.619,17.26 2.909,16.97 C3.199,16.68 3.679,16.68 3.969,16.97 L4.449,17.45 L6.049,15.97 C6.349,15.69 6.829,15.71 7.109,16.01 C7.389,16.31 7.369,16.79 7.069,17.07 L4.939,19.04 C4.789,19.17 4.609,19.24 4.429,19.24 Z"/>
  <path fill="#292D32" d="M15.5,11.25 L8.5,11.25 C8.09,11.25 7.75,10.91 7.75,10.5 C7.75,10.09 8.09,9.75 8.5,9.75 L15.5,9.75 C15.91,9.75 16.25,10.09 16.25,10.5 C16.25,10.91 15.91,11.25 15.5,11.25 Z"/>
</svg>

