<svg xmlns="http://www.w3.org/2000/svg" width="24" height="24" viewBox="0 0 24 24">
  <defs/>
  <path fill="#292D32" d="M17,2 L7,2 C4.24,2 2,4.23 2,6.98 L2,12.96 L2,13.96 C2,16.71 4.24,18.94 7,18.94 L8.5,18.94 C8.77,18.94 9.13,19.12 9.3,19.34 L10.8,21.33 C11.46,22.21 12.54,22.21 13.2,21.33 L14.7,19.34 C14.89,19.09 15.19,18.94 15.5,18.94 L17,18.94 C19.76,18.94 22,16.71 22,13.96 L22,6.98 C22,4.23 19.76,2 17,2 Z M15.66,14.53 C15.51,14.68 15.32,14.75 15.13,14.75 C14.94,14.75 14.75,14.68 14.6,14.53 L13.86,13.79 C13.28,14.17 12.58,14.4 11.83,14.4 C9.79,14.4 8.13,12.74 8.13,10.7 C8.13,8.66 9.78,7 11.83,7 C13.88,7 15.53,8.66 15.53,10.7 C15.53,11.45 15.3,12.15 14.92,12.73 L15.66,13.47 C15.95,13.76 15.95,14.24 15.66,14.53 Z"/>
</svg>

