<svg xmlns="http://www.w3.org/2000/svg" width="24" height="24" viewBox="0 0 24 24">
  <defs/>
  <path fill="#292D32" d="M22.75,8 L22.75,13 Q22.75,19.75 16,19.75 L15.5,19.75 Q15.376,19.75 15.297,19.854 L13.8,21.85 Q13.08,22.81 12,22.81 Q10.92,22.81 10.2,21.85 L8.7,19.85 Q8.627,19.75 8.5,19.75 L8,19.75 Q1.25,19.75 1.25,13 L1.25,8 Q1.25,1.25 8,1.25 L12,1.25 Q12.311,1.25 12.53,1.47 Q12.75,1.689 12.75,2 Q12.75,2.311 12.53,2.53 Q12.311,2.75 12,2.75 L8,2.75 Q2.75,2.75 2.75,8 L2.75,13 Q2.75,16.222 3.994,17.311 Q5.068,18.25 8,18.25 L8.5,18.25 Q9.391,18.25 9.9,18.95 L11.4,20.95 Q11.67,21.31 12,21.31 Q12.33,21.31 12.6,20.95 L14.103,18.946 Q14.632,18.25 15.5,18.25 L16,18.25 Q21.25,18.25 21.25,13 L21.25,8 Q21.25,7.689 21.47,7.47 Q21.689,7.25 22,7.25 Q22.311,7.25 22.53,7.47 Q22.75,7.689 22.75,8 Z"/>
  <path fill="#292D32" d="M14.488,4.857 Q14.142,3.817 14.546,2.819 Q14.998,1.706 16.115,1.355 Q17.202,1.025 17.984,1.531 Q18.754,1.011 19.878,1.352 Q21,1.695 21.454,2.816 Q21.859,3.816 21.512,4.857 Q20.572,7.75 18,7.75 Q15.459,7.75 14.489,4.859 Z M15.911,4.382 L15.912,4.383 Q16.538,6.25 18,6.25 Q19.482,6.25 20.088,4.383 Q20.261,3.866 20.064,3.379 Q19.878,2.921 19.442,2.788 Q18.879,2.617 18.617,2.996 Q18.548,3.096 18.452,3.169 Q18.204,3.356 17.896,3.313 Q17.589,3.27 17.401,3.022 Q17.1,2.623 16.565,2.785 Q16.122,2.925 15.936,3.383 Q15.74,3.867 15.911,4.382 Z"/>
  <path fill="#292D32" d="M15.997,10 L16.005,10 Q16.42,10 16.713,10.293 Q17.005,10.586 17.005,11 Q17.005,11.414 16.713,11.707 Q16.42,12 16.005,12 L15.997,12 Q15.582,12 15.289,11.707 Q14.997,11.414 14.997,11 Q14.997,10.586 15.289,10.293 Q15.582,10 15.997,10 Z"/>
  <path fill="#292D32" d="M11.995,10 L12.005,10 Q12.419,10 12.712,10.293 Q13.004,10.586 13.004,11 Q13.004,11.414 12.712,11.707 Q12.419,12 12.005,12 L11.995,12 Q11.581,12 11.288,11.707 Q10.995,11.414 10.995,11 Q10.995,10.586 11.288,10.293 Q11.581,10 11.995,10 Z"/>
  <path fill="#292D32" d="M7.995,10 L8.003,10 Q8.418,10 8.711,10.293 Q9.003,10.586 9.003,11 Q9.003,11.414 8.711,11.707 Q8.418,12 8.003,12 L7.995,12 Q7.58,12 7.287,11.707 Q6.995,11.414 6.995,11 Q6.995,10.586 7.287,10.293 Q7.58,10 7.995,10 Z"/>
</svg>

