<svg xmlns="http://www.w3.org/2000/svg" width="24" height="24" viewBox="0 0 24 24">
  <defs/>
  <path fill="#292D32" d="M12,22.78 C11.31,22.78 10.66,22.43 10.2,21.82 L8.7,19.82 C8.67,19.78 8.55,19.73 8.5,19.72 L8,19.72 C3.83,19.72 1.25,18.59 1.25,12.97 L1.25,7.97 C1.25,3.55 3.58,1.22 8,1.22 L16,1.22 C20.42,1.22 22.75,3.55 22.75,7.97 L22.75,12.97 C22.75,17.39 20.42,19.72 16,19.72 L15.5,19.72 C15.42,19.72 15.35,19.76 15.3,19.82 L13.8,21.82 C13.34,22.43 12.69,22.78 12,22.78 Z M8,2.72 C4.42,2.72 2.75,4.39 2.75,7.97 L2.75,12.97 C2.75,17.49 4.3,18.22 8,18.22 L8.5,18.22 C9.01,18.22 9.59,18.51 9.9,18.92 L11.4,20.92 C11.75,21.38 12.25,21.38 12.6,20.92 L14.1,18.92 C14.43,18.48 14.95,18.22 15.5,18.22 L16,18.22 C19.58,18.22 21.25,16.55 21.25,12.97 L21.25,7.97 C21.25,4.39 19.58,2.72 16,2.72 L8,2.72 Z"/>
  <path fill="#292D32" d="M7.999,13.45 C7.809,13.45 7.619,13.38 7.469,13.23 L5.469,11.23 C5.179,10.94 5.179,10.46 5.469,10.17 L7.469,8.17 C7.759,7.88 8.239,7.88 8.529,8.17 C8.819,8.46 8.819,8.94 8.529,9.23 L7.059,10.7 L8.529,12.17 C8.819,12.46 8.819,12.94 8.529,13.23 C8.379,13.38 8.189,13.45 7.999,13.45 Z"/>
  <path fill="#292D32" d="M15.999,13.45 C15.809,13.45 15.62,13.38 15.47,13.23 C15.18,12.94 15.18,12.46 15.47,12.17 L16.939,10.7 L15.47,9.23 C15.18,8.94 15.18,8.46 15.47,8.17 C15.759,7.88 16.239,7.88 16.529,8.17 L18.529,10.17 C18.82,10.46 18.82,10.94 18.529,11.23 L16.529,13.23 C16.38,13.38 16.189,13.45 15.999,13.45 Z"/>
  <path fill="#292D32" d="M11,13.78 C10.9,13.78 10.8,13.76 10.7,13.72 C10.32,13.56 10.14,13.12 10.31,12.73 L12.31,8.06 C12.47,7.68 12.91,7.5 13.3,7.67 C13.68,7.83 13.86,8.27 13.69,8.66 L11.69,13.33 C11.57,13.61 11.29,13.78 11,13.78 Z"/>
</svg>

