<svg xmlns="http://www.w3.org/2000/svg" width="24" height="24" viewBox="0 0 24 24">
  <defs/>
  <path fill="#292D32" d="M16,22.75 L3,22.75 C2.04,22.75 1.25,21.96 1.25,21 L1.25,8 C1.25,3.58 3.58,1.25 8,1.25 L16,1.25 C20.42,1.25 22.75,3.58 22.75,8 L22.75,16 C22.75,20.42 20.42,22.75 16,22.75 Z M8,2.75 C4.42,2.75 2.75,4.42 2.75,8 L2.75,21 C2.75,21.14 2.86,21.25 3,21.25 L16,21.25 C19.58,21.25 21.25,19.58 21.25,16 L21.25,8 C21.25,4.42 19.58,2.75 16,2.75 L8,2.75 Z"/>
  <path fill="#292D32" d="M17,10.25 L7,10.25 C6.59,10.25 6.25,9.91 6.25,9.5 C6.25,9.09 6.59,8.75 7,8.75 L17,8.75 C17.41,8.75 17.75,9.09 17.75,9.5 C17.75,9.91 17.41,10.25 17,10.25 Z"/>
  <path fill="#292D32" d="M14,15.25 L7,15.25 C6.59,15.25 6.25,14.91 6.25,14.5 C6.25,14.09 6.59,13.75 7,13.75 L14,13.75 C14.41,13.75 14.75,14.09 14.75,14.5 C14.75,14.91 14.41,15.25 14,15.25 Z"/>
</svg>

