<svg xmlns="http://www.w3.org/2000/svg" width="24" height="24" viewBox="0 0 24 24">
  <defs/>
  <path fill="#292D32" opacity="0.4" d="M17,18.43 L13,18.43 L8.55,21.39 C7.89,21.83 7,21.36 7,20.56 L7,18.43 C4,18.43 2,16.43 2,13.43 L2,7.43 C2,4.43 4,2.43 7,2.43 L17,2.43 C20,2.43 22,4.43 22,7.43 L22,13.43 C22,16.43 20,18.43 17,18.43 Z"/>
  <path fill="#292D32" d="M12,12.11 C11.59,12.11 11.25,11.77 11.25,11.36 L11.25,11.15 C11.25,9.99 12.1,9.42 12.42,9.2 C12.79,8.95 12.91,8.78 12.91,8.52 C12.91,8.02 12.5,7.61 12,7.61 C11.5,7.61 11.09,8.02 11.09,8.52 C11.09,8.93 10.75,9.27 10.34,9.27 C9.93,9.27 9.59,8.93 9.59,8.52 C9.59,7.19 10.67,6.11 12,6.11 C13.33,6.11 14.41,7.19 14.41,8.52 C14.41,9.66 13.57,10.23 13.26,10.44 C12.87,10.7 12.75,10.87 12.75,11.15 L12.75,11.36 C12.75,11.78 12.41,12.11 12,12.11 Z"/>
  <path fill="#292D32" d="M12,14.6 C11.58,14.6 11.25,14.26 11.25,13.85 C11.25,13.44 11.59,13.1 12,13.1 C12.41,13.1 12.75,13.44 12.75,13.85 C12.75,14.26 12.42,14.6 12,14.6 Z"/>
</svg>

