<svg xmlns="http://www.w3.org/2000/svg" width="24" height="24" viewBox="0 0 24 24">
  <defs/>
  <path fill="#292D32" d="M21.25,8 Q21.25,2.75 16,2.75 L8,2.75 Q2.75,2.75 2.75,8 L2.75,21 Q2.75,21.25 3,21.25 L16,21.25 Q21.25,21.25 21.25,16 L21.25,12 Q21.25,11.689 21.47,11.47 Q21.689,11.25 22,11.25 Q22.311,11.25 22.53,11.47 Q22.75,11.689 22.75,12 L22.75,16 Q22.75,22.75 16,22.75 L3,22.75 Q2.277,22.75 1.763,22.237 Q1.25,21.723 1.25,21 L1.25,8 Q1.25,1.25 8,1.25 L16,1.25 Q22.75,1.25 22.75,8 Q22.75,8.311 22.53,8.53 Q22.311,8.75 22,8.75 Q21.689,8.75 21.47,8.53 Q21.25,8.311 21.25,8 Z"/>
  <path fill="#292D32" d="M14.5,11.25 L15.5,11.25 Q15.811,11.25 16.03,11.47 Q16.25,11.689 16.25,12 Q16.25,12.311 16.03,12.53 Q15.811,12.75 15.5,12.75 L14.5,12.75 Q14.189,12.75 13.97,12.53 Q13.75,12.311 13.75,12 Q13.75,11.689 13.97,11.47 Q14.189,11.25 14.5,11.25 Z"/>
  <path fill="#292D32" d="M8.5,11.25 L12,11.25 Q12.311,11.25 12.53,11.47 Q12.75,11.689 12.75,12 Q12.75,12.311 12.53,12.53 Q12.311,12.75 12,12.75 L8.5,12.75 Q8.189,12.75 7.97,12.53 Q7.75,12.311 7.75,12 Q7.75,11.689 7.97,11.47 Q8.189,11.25 8.5,11.25 Z"/>
</svg>

