<svg xmlns="http://www.w3.org/2000/svg" width="24" height="24" viewBox="0 0 24 24">
  <defs/>
  <path fill="#292D32" d="M5.21,13.512 C4.12,13.442 3,13.842 2.17,14.672 C0.61,16.232 0.61,18.762 2.17,20.332 C2.7,20.862 3.35,21.212 4.04,21.382 C4.42,21.482 4.82,21.512 5.22,21.492 C6.17,21.452 7.1,21.072 7.83,20.342 C8.86,19.312 9.21,17.862 8.88,16.552 C8.72,15.862 8.36,15.212 7.83,14.682 C7.11,13.952 6.17,13.562 5.21,13.512 Z M7.24,17.482 C7.24,17.692 7.16,17.872 7.02,18.012 C6.88,18.152 6.7,18.232 6.49,18.232 L5.75,18.232 L5.75,19.012 C5.75,19.222 5.67,19.402 5.53,19.542 C5.39,19.682 5.21,19.762 5,19.762 C4.59,19.762 4.25,19.422 4.25,19.012 L4.25,18.232 L3.5,18.232 C3.09,18.232 2.75,17.892 2.75,17.482 C2.75,17.072 3.09,16.732 3.5,16.732 L4.25,16.732 L4.25,16.022 C4.25,15.612 4.59,15.272 5,15.272 C5.41,15.272 5.75,15.612 5.75,16.022 L5.75,16.732 L6.49,16.732 C6.91,16.732 7.24,17.072 7.24,17.482 Z"/>
  <path fill="#292D32" d="M17.25,2.43 L7.75,2.43 C4.9,2.43 3,4.33 3,7.18 L3,11.64 C3,11.99 3.36,12.24 3.7,12.15 C4.12,12.05 4.55,12 5,12 C7.86,12 10.22,14.32 10.48,17.13 C10.5,17.41 10.73,17.63 11,17.63 L11.55,17.63 L15.78,20.45 C16.4,20.87 17.25,20.41 17.25,19.65 L17.25,17.63 C18.67,17.63 19.86,17.15 20.69,16.33 C21.52,15.49 22,14.3 22,12.88 L22,7.18 C22,4.33 20.1,2.43 17.25,2.43 Z M15.83,10.81 L9.17,10.81 C8.78,10.81 8.46,10.49 8.46,10.1 C8.46,9.7 8.78,9.38 9.17,9.38 L15.83,9.38 C16.22,9.38 16.54,9.7 16.54,10.1 C16.54,10.49 16.22,10.81 15.83,10.81 Z"/>
</svg>

