<svg xmlns="http://www.w3.org/2000/svg" width="24" height="24" viewBox="0 0 24 24">
  <defs/>
  <path fill="#292D32" opacity="0.4" d="M22,7.43 L22,13.43 C22,14.93 21.5,16.18 20.62,17.06 C19.75,17.93 18.5,18.43 17,18.43 L17,20.56 C17,21.36 16.11,21.84 15.45,21.4 L11,18.43 L8.88,18.43 C8.96,18.13 9,17.82 9,17.5 C9,16.48 8.61,15.54 7.97,14.83 C7.25,14.01 6.18,13.5 5,13.5 C3.88,13.5 2.86,13.96 2.13,14.71 C2.04,14.31 2,13.88 2,13.43 L2,7.43 C2,4.43 4,2.43 7,2.43 L17,2.43 C20,2.43 22,4.43 22,7.43 Z"/>
  <path fill="#292D32" d="M15.5,11.25 L8.5,11.25 C8.09,11.25 7.75,10.91 7.75,10.5 C7.75,10.09 8.09,9.75 8.5,9.75 L15.5,9.75 C15.91,9.75 16.25,10.09 16.25,10.5 C16.25,10.91 15.91,11.25 15.5,11.25 Z"/>
  <path fill="#292D32" d="M5,13.5 C4.06,13.5 3.19,13.83 2.5,14.38 C1.58,15.11 1,16.24 1,17.5 C1,19.71 2.79,21.5 5,21.5 C6.01,21.5 6.93,21.12 7.64,20.5 C8.47,19.77 9,18.7 9,17.5 C9,15.29 7.21,13.5 5,13.5 Z M6,17.75 C6,18.01 5.86,18.26 5.64,18.39 L4.39,19.14 C4.27,19.21 4.14,19.25 4,19.25 C3.75,19.25 3.5,19.12 3.36,18.89 C3.15,18.53 3.26,18.07 3.62,17.86 L4.51,17.33 L4.51,16.25 C4.51,15.84 4.85,15.5 5.26,15.5 C5.67,15.5 6.01,15.84 6.01,16.25 L6.01,17.75 L6,17.75 Z"/>
</svg>

