<svg xmlns="http://www.w3.org/2000/svg" width="24" height="24" viewBox="0 0 24 24">
  <defs/>
  <path fill="#292D32" d="M18.73,10.79 L18.73,14.79 Q18.73,15.257 18.686,15.618 Q18.277,20.33 13.19,20.33 L12.79,20.33 Q12.765,20.33 12.75,20.35 L11.55,21.95 Q10.929,22.782 9.99,22.782 Q9.051,22.782 8.429,21.949 L7.23,20.35 Q7.215,20.33 7.19,20.33 L6.79,20.33 Q3.942,20.33 2.705,19.25 Q1.25,17.979 1.25,14.79 L1.25,10.79 Q1.25,5.705 5.962,5.294 Q6.323,5.25 6.79,5.25 L13.19,5.25 Q18.73,5.25 18.73,10.79 Z M17.23,10.79 Q17.23,6.75 13.19,6.75 L6.79,6.75 Q6.407,6.75 6.133,6.784 Q6.118,6.786 6.104,6.787 Q2.75,7.074 2.75,10.79 L2.75,14.79 Q2.75,17.297 3.692,18.12 Q4.505,18.83 6.79,18.83 L7.19,18.83 Q7.956,18.83 8.43,19.45 L9.631,21.051 Q9.804,21.282 9.99,21.282 Q10.176,21.282 10.35,21.05 L11.55,19.45 Q12.015,18.83 12.79,18.83 L13.19,18.83 Q16.907,18.83 17.193,15.476 Q17.194,15.462 17.196,15.447 Q17.23,15.173 17.23,14.79 Z"/>
  <path fill="#292D32" d="M22.73,6.79 L22.73,10.79 Q22.73,15.883 18.004,16.287 Q17.694,16.314 17.457,16.114 Q17.219,15.913 17.193,15.604 Q17.186,15.525 17.196,15.447 Q17.23,15.173 17.23,14.79 L17.23,10.79 Q17.23,6.75 13.19,6.75 L6.79,6.75 Q6.407,6.75 6.133,6.784 Q5.825,6.823 5.58,6.632 Q5.334,6.441 5.296,6.133 Q5.286,6.055 5.293,5.976 Q5.697,1.25 10.79,1.25 L17.19,1.25 Q19.893,1.25 21.312,2.668 Q22.73,4.087 22.73,6.79 Z M21.23,6.79 Q21.23,4.708 20.251,3.729 Q19.272,2.75 17.19,2.75 L10.79,2.75 Q7.582,2.75 6.93,5.25 L13.19,5.25 Q18.73,5.25 18.73,10.79 L18.73,14.65 Q21.23,13.998 21.23,10.79 Z"/>
  <path fill="#292D32" d="M13.495,12.25 L13.505,12.25 Q13.919,12.25 14.212,12.543 Q14.504,12.836 14.504,13.25 Q14.504,13.664 14.212,13.957 Q13.919,14.25 13.505,14.25 L13.495,14.25 Q13.081,14.25 12.788,13.957 Q12.495,13.664 12.495,13.25 Q12.495,12.836 12.788,12.543 Q13.081,12.25 13.495,12.25 Z"/>
  <path fill="#292D32" d="M9.995,12.25 L10.005,12.25 Q10.419,12.25 10.712,12.543 Q11.005,12.836 11.005,13.25 Q11.005,13.664 10.712,13.957 Q10.419,14.25 10.005,14.25 L9.995,14.25 Q9.581,14.25 9.288,13.957 Q8.995,13.664 8.995,13.25 Q8.995,12.836 9.288,12.543 Q9.581,12.25 9.995,12.25 Z"/>
  <path fill="#292D32" d="M6.496,12.25 L6.504,12.25 Q6.919,12.25 7.212,12.543 Q7.504,12.836 7.504,13.25 Q7.504,13.664 7.212,13.957 Q6.919,14.25 6.504,14.25 L6.496,14.25 Q6.081,14.25 5.788,13.957 Q5.495,13.664 5.495,13.25 Q5.495,12.836 5.788,12.543 Q6.081,12.25 6.496,12.25 Z"/>
</svg>

