<svg xmlns="http://www.w3.org/2000/svg" width="24" height="24" viewBox="0 0 24 24">
  <defs/>
  <path fill="#292D32" d="M2.75,11.56 L2.75,13.43 Q2.75,17.68 7,17.68 L11,17.68 Q11.227,17.68 11.415,17.806 L15.865,20.766 Q15.989,20.848 16.12,20.778 Q16.25,20.709 16.25,20.56 L16.25,18.43 Q16.25,18.119 16.47,17.9 Q16.689,17.68 17,17.68 Q21.25,17.68 21.25,13.43 L21.25,7.43 Q21.25,3.18 17,3.18 L7,3.18 Q5.061,3.18 3.905,4.335 Q2.75,5.491 2.75,7.43 Q2.75,7.741 2.53,7.96 Q2.311,8.18 2,8.18 Q1.689,8.18 1.47,7.96 Q1.25,7.741 1.25,7.43 Q1.25,1.68 7,1.68 L17,1.68 Q19.561,1.68 21.155,3.275 Q22.75,4.869 22.75,7.43 L22.75,13.43 Q22.75,18.792 17.75,19.154 L17.75,20.56 Q17.75,21.609 16.825,22.102 Q15.903,22.593 15.035,22.014 L10.773,19.18 L7,19.18 Q1.25,19.18 1.25,13.43 L1.25,11.56 Q1.25,11.249 1.47,11.03 Q1.689,10.81 2,10.81 Q2.311,10.81 2.53,11.03 Q2.75,11.249 2.75,11.56 Z"/>
  <path fill="#292D32" d="M11.25,11.36 L11.25,11.15 Q11.25,10.006 12.414,9.203 Q12.91,8.864 12.91,8.52 Q12.91,8.141 12.644,7.875 Q12.379,7.61 12,7.61 Q11.62,7.61 11.355,7.875 Q11.09,8.141 11.09,8.52 Q11.09,8.831 10.87,9.05 Q10.65,9.27 10.34,9.27 Q10.029,9.27 9.809,9.05 Q9.59,8.831 9.59,8.52 Q9.59,7.519 10.294,6.815 Q10.999,6.11 12,6.11 Q13,6.11 13.705,6.815 Q14.41,7.519 14.41,8.52 Q14.41,9.656 13.266,10.437 Q12.75,10.794 12.75,11.15 L12.75,11.36 Q12.75,11.671 12.53,11.89 Q12.31,12.11 12,12.11 Q11.689,12.11 11.469,11.89 Q11.25,11.671 11.25,11.36 Z"/>
  <path fill="#292D32" d="M11.995,13 L12.005,13 Q12.315,13 12.535,13.22 Q12.754,13.439 12.754,13.75 Q12.754,14.061 12.535,14.28 Q12.315,14.5 12.005,14.5 L11.995,14.5 Q11.685,14.5 11.465,14.28 Q11.245,14.061 11.245,13.75 Q11.245,13.439 11.465,13.22 Q11.685,13 11.995,13 Z"/>
</svg>

