<svg xmlns="http://www.w3.org/2000/svg" width="24" height="24" viewBox="0 0 24 24">
  <defs/>
  <path fill="#292D32" d="M16,1.25 Q22.75,1.25 22.75,8 L22.75,16 Q22.75,22.75 16,22.75 L3,22.75 Q2.277,22.75 1.763,22.237 Q1.25,21.723 1.25,21 L1.25,8 Q1.25,1.25 8,1.25 Z M16,2.75 L8,2.75 Q2.75,2.75 2.75,8 L2.75,21 Q2.75,21.25 3,21.25 L16,21.25 Q21.25,21.25 21.25,16 L21.25,8 Q21.25,2.75 16,2.75 Z"/>
  <g opacity="0.4">
    <path fill="#292D32" d="M12.378,7.31 Q13.333,6.355 14.31,6.262 Q15.534,6.146 16.699,7.32 Q17.866,8.487 17.744,9.711 Q17.646,10.683 16.699,11.631 L11.509,16.821 Q10.976,17.354 10.214,17.463 L8.232,17.743 Q7.322,17.869 6.731,17.278 Q6.14,16.687 6.266,15.775 L6.546,13.794 Q6.655,13.033 7.188,12.5 Z M13.439,8.37 L8.249,13.561 Q8.069,13.74 8.031,14.006 L7.751,15.985 Q7.728,16.154 7.792,16.217 Q7.855,16.281 8.026,16.257 L10.004,15.978 Q10.269,15.94 10.448,15.76 L15.638,10.57 Q16.733,9.475 15.638,8.38 Q14.969,7.706 14.452,7.756 Q14.012,7.798 13.439,8.37 Z"/>
    <path fill="#292D32" d="M12.89,8.378 Q13.489,10.514 15.619,11.108 Q15.918,11.191 16.071,11.461 Q16.224,11.732 16.141,12.031 Q16.057,12.331 15.787,12.483 Q15.516,12.636 15.217,12.553 Q12.273,11.733 11.446,8.782 Q11.362,8.483 11.514,8.213 Q11.666,7.942 11.966,7.858 Q12.265,7.774 12.536,7.926 Q12.806,8.079 12.89,8.378 Z"/>
  </g>
</svg>

