<svg xmlns="http://www.w3.org/2000/svg" width="24" height="24" viewBox="0 0 24 24">
  <defs/>
  <path fill="#292D32" d="M17.87,21.87 C17.56,21.87 17.25,21.79 16.97,21.62 L12.96,19.24 C12.54,19.23 12.12,19.2 11.72,19.14 C11.45,19.1 11.22,18.92 11.12,18.66 C11.02,18.4 11.07,18.12 11.25,17.91 C11.91,17.14 12.25,16.22 12.25,15.24 C12.25,12.82 10.12,10.85 7.5,10.85 C6.52,10.85 5.58,11.12 4.79,11.64 C4.57,11.78 4.3,11.8 4.06,11.69 C3.83,11.58 3.66,11.36 3.63,11.1 C3.6,10.82 3.58,10.54 3.58,10.25 C3.58,5.29 7.88,1.26 13.16,1.26 C18.44,1.26 22.74,5.29 22.74,10.25 C22.74,12.97 21.48,15.47 19.26,17.18 L19.6,19.9 C19.68,20.58 19.38,21.22 18.81,21.59 C18.53,21.77 18.2,21.87 17.87,21.87 Z M13.15,17.73 C13.29,17.72 13.43,17.76 13.55,17.84 L17.74,20.33 C17.85,20.4 17.94,20.37 18,20.33 C18.05,20.3 18.13,20.22 18.11,20.08 L17.72,16.92 C17.69,16.64 17.81,16.37 18.03,16.21 C20.07,14.78 21.24,12.6 21.24,10.23 C21.24,6.1 17.62,2.74 13.16,2.74 C8.87,2.74 5.35,5.86 5.09,9.78 C5.84,9.49 6.65,9.33 7.49,9.33 C10.94,9.33 13.74,11.97 13.74,15.22 C13.75,16.1 13.54,16.95 13.15,17.73 Z"/>
  <path fill="#292D32" d="M4.58,22.75 C4.32,22.75 4.07,22.68 3.84,22.53 C3.39,22.24 3.15,21.74 3.21,21.21 L3.41,19.67 C2.06,18.57 1.26,16.94 1.26,15.23 C1.26,13.28 2.28,11.46 3.99,10.37 C5.02,9.7 6.24,9.34 7.51,9.34 C10.96,9.34 13.76,11.98 13.76,15.23 C13.76,16.55 13.28,17.85 12.4,18.88 C11.27,20.25 9.58,21.05 7.72,21.11 L5.28,22.56 C5.06,22.69 4.82,22.75 4.58,22.75 Z M7.5,10.84 C6.52,10.84 5.58,11.11 4.79,11.63 C3.51,12.45 2.75,13.79 2.75,15.23 C2.75,16.62 3.43,17.89 4.63,18.71 C4.86,18.87 4.98,19.14 4.95,19.42 L4.73,21.13 L7.12,19.71 C7.24,19.64 7.37,19.6 7.5,19.6 C8.97,19.6 10.36,18.97 11.24,17.9 C11.9,17.12 12.25,16.2 12.25,15.22 C12.25,12.81 10.12,10.84 7.5,10.84 Z"/>
</svg>

