<svg xmlns="http://www.w3.org/2000/svg" width="24" height="24" viewBox="0 0 24 24">
  <defs/>
  <path fill="#292D32" opacity="0.4" d="M22,7.43 L22,13.43 C22,14.93 21.5,16.18 20.62,17.06 C19.75,17.93 18.5,18.43 17,18.43 L17,20.56 C17,21.36 16.11,21.84 15.45,21.4 L11,18.43 L8.88,18.43 C8.96,18.13 9,17.82 9,17.5 C9,16.48 8.61,15.54 7.97,14.83 C7.25,14.01 6.18,13.5 5,13.5 C3.88,13.5 2.86,13.96 2.13,14.71 C2.04,14.31 2,13.88 2,13.43 L2,7.43 C2,4.43 4,2.43 7,2.43 L17,2.43 C20,2.43 22,4.43 22,7.43 Z"/>
  <path fill="#292D32" d="M15.5,11.25 L8.5,11.25 C8.09,11.25 7.75,10.91 7.75,10.5 C7.75,10.09 8.09,9.75 8.5,9.75 L15.5,9.75 C15.91,9.75 16.25,10.09 16.25,10.5 C16.25,10.91 15.91,11.25 15.5,11.25 Z"/>
  <path fill="#292D32" d="M7.97,14.83 C7.25,14.01 6.18,13.5 5,13.5 C2.79,13.5 1,15.29 1,17.5 C1,18.25 1.21,18.96 1.58,19.56 C1.78,19.9 2.04,20.21 2.34,20.47 C3.04,21.11 3.97,21.5 5,21.5 C6.46,21.5 7.73,20.72 8.42,19.56 C8.79,18.96 9,18.25 9,17.5 C9,16.48 8.61,15.54 7.97,14.83 Z M6.6,19.08 C6.45,19.23 6.26,19.3 6.07,19.3 C5.88,19.3 5.69,19.23 5.54,19.08 L5.01,18.55 L4.46,19.1 C4.31,19.25 4.12,19.32 3.93,19.32 C3.74,19.32 3.55,19.25 3.4,19.1 C3.11,18.81 3.11,18.33 3.4,18.04 L3.95,17.49 L3.42,16.96 C3.13,16.67 3.13,16.19 3.42,15.9 C3.71,15.61 4.19,15.61 4.48,15.9 L5.01,16.43 L5.51,15.93 C5.8,15.64 6.28,15.64 6.57,15.93 C6.86,16.22 6.86,16.7 6.57,16.99 L6.07,17.49 L6.6,18.02 C6.89,18.31 6.89,18.78 6.6,19.08 Z"/>
</svg>

