<svg xmlns="http://www.w3.org/2000/svg" width="24" height="24" viewBox="0 0 24 24">
  <defs/>
  <path fill="#292D32" opacity="0.4" d="M22.75,7.43 L22.75,13.43 Q22.75,15.991 21.15,17.591 Q19.8,18.941 17.75,19.144 L17.75,20.56 Q17.75,21.607 16.829,22.105 Q15.905,22.605 15.034,22.024 L10.773,19.18 L8.88,19.18 Q8.569,19.18 8.35,18.961 Q8.13,18.741 8.13,18.43 Q8.13,18.332 8.155,18.237 Q8.25,17.882 8.25,17.5 Q8.25,16.261 7.413,15.332 Q6.463,14.25 5,14.25 Q3.624,14.25 2.667,15.233 Q2.451,15.456 2.14,15.46 Q1.83,15.464 1.607,15.248 Q1.447,15.092 1.398,14.875 Q1.25,14.216 1.25,13.43 L1.25,7.43 Q1.25,1.68 7,1.68 L17,1.68 Q19.561,1.68 21.155,3.275 Q22.75,4.87 22.75,7.43 Z M21.25,7.43 Q21.25,5.491 20.095,4.336 Q18.939,3.18 17,3.18 L7,3.18 Q2.75,3.18 2.75,7.43 L2.75,13.299 Q3.758,12.75 5,12.75 Q7.142,12.75 8.527,14.328 Q9.75,15.685 9.75,17.5 Q9.75,17.591 9.746,17.68 L11,17.68 Q11.227,17.68 11.416,17.806 L15.866,20.776 Q15.986,20.856 16.116,20.786 Q16.25,20.713 16.25,20.56 L16.25,18.43 Q16.25,18.12 16.47,17.9 Q16.689,17.68 17,17.68 Q18.939,17.68 20.09,16.53 Q21.25,15.37 21.25,13.43 Z"/>
  <path fill="#292D32" d="M9.75,17.5 Q9.75,18.071 9.608,18.609 Q9.444,19.329 9.058,19.954 Q7.693,22.25 5,22.25 Q3.18,22.25 1.841,21.03 Q1.295,20.555 0.934,19.94 Q0.25,18.832 0.25,17.5 Q0.25,15.568 1.592,14.187 Q2.991,12.75 5,12.75 Q7.142,12.75 8.534,14.335 Q9.75,15.685 9.75,17.5 Z M8.25,17.5 Q8.25,16.261 7.406,15.325 Q6.463,14.25 5,14.25 Q3.624,14.25 2.668,15.233 Q1.75,16.177 1.75,17.5 Q1.75,18.407 2.226,19.18 Q2.466,19.586 2.831,19.903 Q2.839,19.91 2.846,19.916 Q3.758,20.75 5,20.75 Q6.84,20.75 7.782,19.166 Q8.04,18.749 8.148,18.265 Q8.152,18.251 8.155,18.237 Q8.25,17.882 8.25,17.5 Z"/>
  <path fill="#292D32" d="M5.54,19.072 L3.42,16.962 Q3.2,16.743 3.199,16.432 Q3.198,16.121 3.418,15.901 Q3.637,15.681 3.947,15.68 Q4.258,15.679 4.478,15.899 L6.598,18.009 Q6.818,18.228 6.819,18.538 Q6.82,18.849 6.601,19.069 Q6.382,19.289 6.071,19.29 Q5.76,19.291 5.54,19.072 Z"/>
  <path fill="#292D32" d="M6.579,16.992 L4.459,19.101 Q4.239,19.321 3.928,19.32 Q3.617,19.319 3.398,19.099 Q3.179,18.879 3.18,18.568 Q3.18,18.257 3.401,18.038 L5.521,15.928 Q5.741,15.709 6.051,15.71 Q6.362,15.711 6.581,15.931 Q6.8,16.151 6.8,16.462 Q6.799,16.772 6.579,16.992 Z"/>
  <path fill="#292D32" d="M8.5,9.75 L15.5,9.75 Q15.811,9.75 16.03,9.97 Q16.25,10.189 16.25,10.5 Q16.25,10.811 16.03,11.03 Q15.811,11.25 15.5,11.25 L8.5,11.25 Q8.189,11.25 7.97,11.03 Q7.75,10.811 7.75,10.5 Q7.75,10.189 7.97,9.97 Q8.189,9.75 8.5,9.75 Z"/>
</svg>

