<svg xmlns="http://www.w3.org/2000/svg" width="24" height="24" viewBox="0 0 24 24">
  <defs/>
  <path fill="#292D32" opacity="0.4" d="M12,22 C17.523,22 22,17.523 22,12 C22,6.477 17.523,2 12,2 C6.477,2 2,6.477 2,12 C2,17.523 6.477,22 12,22 Z"/>
  <path fill="#292D32" d="M17.25,10.18 L17.25,12.81 C17.25,12.98 17.24,13.14 17.22,13.3 C17.07,15.07 16.02,15.95 14.1,15.95 L13.84,15.95 C13.68,15.95 13.52,16.03 13.42,16.16 L12.63,17.21 C12.28,17.68 11.72,17.68 11.37,17.21 L10.58,16.16 C10.49,16.05 10.3,15.95 10.16,15.95 L9.9,15.95 C7.8,15.95 6.75,15.43 6.75,12.8 L6.75,10.17 C6.75,8.25 7.64,7.2 9.4,7.05 C9.56,7.03 9.72,7.02 9.89,7.02 L14.09,7.02 C16.2,7.04 17.25,8.09 17.25,10.18 Z"/>
</svg>

