<svg xmlns="http://www.w3.org/2000/svg" width="24" height="24" viewBox="0 0 24 24">
  <defs/>
  <path fill="#292D32" d="M9.99,22.78 C9.39,22.78 8.82,22.48 8.43,21.95 L7.23,20.35 C7.23,20.36 7.18,20.33 7.16,20.33 L6.79,20.33 C3.37,20.33 1.25,19.4 1.25,14.79 L1.25,10.79 C1.25,6.58 3.82,5.48 5.98,5.29 C6.22,5.26 6.5,5.25 6.79,5.25 L13.19,5.25 C16.81,5.25 18.73,7.17 18.73,10.79 L18.73,14.79 C18.73,15.08 18.72,15.36 18.68,15.63 C18.5,17.76 17.4,20.33 13.19,20.33 L12.79,20.33 L11.55,21.95 C11.16,22.48 10.59,22.78 9.99,22.78 Z M6.79,6.75 C6.56,6.75 6.34,6.76 6.13,6.78 C3.81,6.98 2.75,8.25 2.75,10.79 L2.75,14.79 C2.75,18.22 3.81,18.83 6.79,18.83 L7.19,18.83 C7.64,18.83 8.15,19.08 8.43,19.44 L9.63,21.05 C9.85,21.35 10.13,21.35 10.35,21.05 L11.55,19.45 C11.84,19.06 12.3,18.83 12.79,18.83 L13.19,18.83 C15.73,18.83 17,17.76 17.19,15.48 C17.22,15.24 17.23,15.02 17.23,14.79 L17.23,10.79 C17.23,8 15.98,6.75 13.19,6.75 L6.79,6.75 Z"/>
  <path fill="#292D32" d="M9.99,14.19 C9.43,14.19 8.99,13.74 8.99,13.19 C8.99,12.64 9.44,12.19 9.99,12.19 C10.54,12.19 10.99,12.64 10.99,13.19 C10.99,13.74 10.55,14.19 9.99,14.19 Z"/>
  <path fill="#292D32" d="M13.19,14.19 C12.63,14.19 12.19,13.74 12.19,13.19 C12.19,12.64 12.639,12.19 13.19,12.19 C13.739,12.19 14.19,12.64 14.19,13.19 C14.19,13.74 13.739,14.19 13.19,14.19 Z"/>
  <path fill="#292D32" d="M6.801,14.19 C6.241,14.19 5.801,13.74 5.801,13.19 C5.801,12.64 6.251,12.19 6.801,12.19 C7.351,12.19 7.801,12.64 7.801,13.19 C7.801,13.74 7.351,14.19 6.801,14.19 Z"/>
  <path fill="#292D32" d="M17.94,16.29 C17.74,16.29 17.54,16.21 17.4,16.06 C17.24,15.9 17.17,15.67 17.2,15.45 C17.23,15.24 17.24,15.02 17.24,14.79 L17.24,10.79 C17.24,8 15.99,6.75 13.2,6.75 L6.8,6.75 C6.57,6.75 6.35,6.76 6.14,6.78 C5.92,6.81 5.69,6.73 5.53,6.58 C5.37,6.42 5.28,6.2 5.3,5.98 C5.48,3.82 6.59,1.25 10.8,1.25 L17.2,1.25 C20.82,1.25 22.74,3.17 22.74,6.79 L22.74,10.79 C22.74,15 20.17,16.1 18.01,16.29 C17.98,16.29 17.96,16.29 17.94,16.29 Z M6.92,5.25 L13.19,5.25 C16.81,5.25 18.73,7.17 18.73,10.79 L18.73,14.66 C20.43,14.24 21.23,12.99 21.23,10.79 L21.23,6.79 C21.23,4 19.98,2.75 17.19,2.75 L10.79,2.75 C8.59,2.75 7.35,3.55 6.92,5.25 Z"/>
</svg>

