<svg xmlns="http://www.w3.org/2000/svg" width="24" height="24" viewBox="0 0 24 24">
  <defs/>
  <path fill="#292D32" d="M16.19,2 L7.81,2 C4.17,2 2,4.17 2,7.81 L2,16.18 C2,19.83 4.17,22 7.81,22 L16.18,22 C19.82,22 21.99,19.83 21.99,16.19 L21.99,7.81 C22,4.17 19.83,2 16.19,2 Z M18.28,12.91 C18.28,13.11 18.27,13.31 18.25,13.5 C18.07,15.62 16.82,16.68 14.52,16.68 L14.2,16.68 C14,16.68 13.81,16.77 13.7,16.93 L12.76,18.19 C12.34,18.75 11.67,18.75 11.25,18.19 L10.31,16.93 C10.21,16.8 9.98,16.68 9.81,16.68 L9.49,16.68 C6.98,16.68 5.73,16.06 5.73,12.92 L5.73,9.76 C5.73,7.46 6.79,6.21 8.91,6.03 C9.08,6.01 9.28,6 9.49,6 L14.52,6 C17.03,6 18.28,7.26 18.28,9.76 L18.28,12.91 Z"/>
</svg>

