<svg xmlns="http://www.w3.org/2000/svg" width="24" height="24" viewBox="0 0 24 24">
  <defs/>
  <path fill="#292D32" d="M19.268,17.176 L19.604,19.898 Q19.735,20.985 18.824,21.581 Q17.908,22.178 16.971,21.612 L12.961,19.228 Q12.328,19.216 11.719,19.133 Q11.411,19.091 11.223,18.844 Q11.035,18.596 11.077,18.289 Q11.107,18.071 11.249,17.904 Q12.25,16.727 12.25,15.23 Q12.25,13.425 10.878,12.143 Q9.484,10.84 7.5,10.84 Q5.999,10.84 4.789,11.628 Q4.529,11.798 4.225,11.734 Q3.921,11.67 3.752,11.409 Q3.656,11.263 3.635,11.089 Q3.59,10.712 3.59,10.24 Q3.59,6.501 6.413,3.865 Q9.215,1.25 13.17,1.25 Q17.125,1.25 19.927,3.865 Q22.75,6.501 22.75,10.24 Q22.75,14.525 19.268,17.176 Z M17.726,16.922 Q17.67,16.475 18.04,16.216 Q21.25,13.966 21.25,10.24 Q21.25,7.153 18.903,4.962 Q16.534,2.75 13.17,2.75 Q9.806,2.75 7.437,4.962 Q5.265,6.989 5.103,9.784 Q6.223,9.34 7.5,9.34 Q10.076,9.34 11.902,11.047 Q13.75,12.774 13.75,15.23 Q13.75,16.578 13.162,17.73 L13.17,17.73 Q13.376,17.73 13.553,17.835 L17.749,20.328 Q17.878,20.407 18.004,20.324 Q18.135,20.239 18.116,20.082 Z"/>
  <path fill="#292D32" d="M13.75,15.23 Q13.75,17.279 12.391,18.876 Q10.612,21.032 7.71,21.107 L5.273,22.555 Q4.548,23 3.822,22.525 Q3.106,22.057 3.205,21.212 L3.401,19.671 Q1.25,17.968 1.25,15.23 Q1.25,12.11 3.976,10.368 Q5.554,9.34 7.5,9.34 Q10.076,9.34 11.902,11.047 Q13.75,12.774 13.75,15.23 Z M12.25,15.23 Q12.25,13.425 10.878,12.143 Q9.484,10.84 7.5,10.84 Q5.999,10.84 4.784,11.632 Q2.75,12.931 2.75,15.23 Q2.75,17.411 4.628,18.714 Q5.001,18.973 4.944,19.425 L4.727,21.135 L7.117,19.715 Q7.294,19.61 7.5,19.61 Q9.841,19.61 11.249,17.904 Q12.25,16.727 12.25,15.23 Z"/>
</svg>

