<svg xmlns="http://www.w3.org/2000/svg" width="24" height="24" viewBox="0 0 24 24">
  <defs/>
  <path fill="#292D32" d="M21.999,12.86 C21.999,15.149 20.819,17.18 18.999,18.459 L17.659,21.41 C17.349,22.079 16.449,22.209 15.979,21.64 L14.499,19.86 C12.639,19.86 10.929,19.23 9.629,18.18 L10.229,17.47 C14.849,17.119 18.499,13.46 18.499,9 C18.499,8.24 18.389,7.49 18.189,6.77 C20.459,7.97 21.999,10.249 21.999,12.86 Z"/>
  <path fill="#292D32" d="M16.3,6.07 C15.13,3.67 12.52,2 9.5,2 C5.36,2 2,5.13 2,9 C2,11.29 3.18,13.32 5,14.6 L6.34,17.55 C6.65,18.22 7.55,18.34 8.02,17.78 L8.57,17.12 L9.5,16 C13.64,16 17,12.87 17,9 C17,7.95 16.75,6.96 16.3,6.07 Z M12,9.75 L7,9.75 C6.59,9.75 6.25,9.41 6.25,9 C6.25,8.59 6.59,8.25 7,8.25 L12,8.25 C12.41,8.25 12.75,8.59 12.75,9 C12.75,9.41 12.41,9.75 12,9.75 Z"/>
</svg>

