<svg xmlns="http://www.w3.org/2000/svg" width="24" height="24" viewBox="0 0 24 24">
  <defs/>
  <path fill="#292D32" d="M12,22.81 C11.31,22.81 10.66,22.46 10.2,21.85 L8.7,19.85 C8.67,19.81 8.55,19.75 8.49,19.75 L8,19.75 C3.83,19.75 1.25,18.62 1.25,13 L1.25,8 C1.25,3.58 3.58,1.25 8,1.25 L12,1.25 C12.41,1.25 12.75,1.59 12.75,2 C12.75,2.41 12.41,2.75 12,2.75 L8,2.75 C4.42,2.75 2.75,4.42 2.75,8 L2.75,13 C2.75,17.52 4.3,18.25 8,18.25 L8.5,18.25 C9.01,18.25 9.59,18.54 9.9,18.95 L11.4,20.95 C11.75,21.41 12.25,21.41 12.6,20.95 L14.1,18.95 C14.43,18.51 14.95,18.25 15.5,18.25 L16,18.25 C19.58,18.25 21.25,16.58 21.25,13 L21.25,8 C21.25,7.59 21.59,7.25 22,7.25 C22.41,7.25 22.75,7.59 22.75,8 L22.75,13 C22.75,17.42 20.42,19.75 16,19.75 L15.5,19.75 C15.42,19.75 15.35,19.79 15.3,19.85 L13.8,21.85 C13.34,22.46 12.69,22.81 12,22.81 Z"/>
  <path fill="#292D32" d="M12,12 C11.44,12 11,11.55 11,11 C11,10.45 11.45,10 12,10 C12.55,10 13,10.45 13,11 C13,11.55 12.56,12 12,12 Z"/>
  <path fill="#292D32" d="M16,12 C15.44,12 15,11.55 15,11 C15,10.45 15.45,10 16,10 C16.55,10 17,10.45 17,11 C17,11.55 16.56,12 16,12 Z"/>
  <path fill="#292D32" d="M8,12 C7.44,12 7,11.55 7,11 C7,10.45 7.45,10 8,10 C8.55,10 9,10.45 9,11 C9,11.55 8.56,12 8,12 Z"/>
  <path fill="#292D32" d="M18,7.75 C17.14,7.75 15.11,6.73 14.49,4.86 C14.24,4.12 14.3,3.27 14.65,2.6 C14.96,2 15.48,1.56 16.12,1.36 C16.77,1.16 17.46,1.25 18,1.58 C18.54,1.25 19.23,1.16 19.89,1.36 C20.53,1.56 21.05,2 21.36,2.6 C21.71,3.27 21.77,4.12 21.52,4.86 C20.89,6.76 18.77,7.75 18,7.75 Z M15.91,4.38 C16.33,5.64 17.76,6.22 18.02,6.25 C18.31,6.22 19.71,5.57 20.1,4.39 C20.22,4.03 20.19,3.6 20.03,3.29 C19.9,3.04 19.71,2.88 19.45,2.8 C19.17,2.7 18.79,2.75 18.62,3 C18.48,3.2 18.26,3.32 18.02,3.33 C17.78,3.33 17.55,3.22 17.4,3.03 C17.19,2.76 16.82,2.72 16.55,2.8 C16.29,2.88 16.1,3.04 15.97,3.29 C15.82,3.6 15.79,4.02 15.91,4.38 Z"/>
</svg>

