<svg xmlns="http://www.w3.org/2000/svg" width="24" height="24" viewBox="0 0 24 24">
  <defs/>
  <path fill="#292D32" d="M16.9,19.01 C16.59,19.01 16.28,18.92 16.01,18.74 L15.05,18.11 C14.78,17.93 14.65,17.59 14.74,17.28 C14.81,17.05 14.84,16.78 14.84,16.48 L14.84,12.41 C14.84,10.78 13.82,9.76 12.19,9.76 L5.4,9.76 C5.28,9.76 5.17,9.77 5.06,9.78 C4.85,9.79 4.65,9.72 4.49,9.58 C4.33,9.44 4.25,9.24 4.25,9.03 L4.25,6.26 C4.25,3.32 6.31,1.26 9.25,1.26 L17.75,1.26 C20.69,1.26 22.75,3.32 22.75,6.26 L22.75,11.36 C22.75,12.81 22.26,14.09 21.36,14.97 C20.64,15.7 19.64,16.17 18.5,16.31 L18.5,17.42 C18.5,18.02 18.17,18.56 17.65,18.84 C17.41,18.95 17.15,19.01 16.9,19.01 Z M16.3,17.13 L16.95,17.5 C17.01,17.47 17.01,17.42 17.01,17.41 L17.01,15.6 C17.01,15.19 17.35,14.85 17.76,14.85 C18.81,14.85 19.7,14.52 20.31,13.9 C20.94,13.28 21.26,12.4 21.26,11.35 L21.26,6.25 C21.26,4.12 19.89,2.75 17.76,2.75 L9.26,2.75 C7.13,2.75 5.76,4.12 5.76,6.25 L5.76,8.25 L12.2,8.25 C14.64,8.25 16.35,9.96 16.35,12.4 L16.35,16.47 C16.34,16.7 16.33,16.92 16.3,17.13 Z"/>
  <path fill="#292D32" d="M6.07,22.75 C5.85,22.75 5.62,22.7 5.41,22.59 C4.94,22.34 4.65,21.86 4.65,21.32 L4.65,20.56 C3.77,20.42 2.99,20.05 2.41,19.47 C1.65,18.71 1.25,17.67 1.25,16.47 L1.25,12.4 C1.25,10.14 2.73,8.48 4.93,8.27 C5.09,8.26 5.24,8.25 5.4,8.25 L12.19,8.25 C14.63,8.25 16.34,9.96 16.34,12.4 L16.34,16.47 C16.34,16.91 16.29,17.32 16.18,17.69 C15.73,19.49 14.2,20.62 12.19,20.62 L9.7,20.62 L6.87,22.5 C6.63,22.67 6.35,22.75 6.07,22.75 Z M5.4,9.75 C5.28,9.75 5.17,9.76 5.06,9.77 C3.62,9.9 2.75,10.89 2.75,12.4 L2.75,16.47 C2.75,17.27 3,17.94 3.47,18.41 C3.93,18.87 4.6,19.12 5.4,19.12 C5.81,19.12 6.15,19.46 6.15,19.87 L6.15,21.18 L9.05,19.25 C9.17,19.17 9.32,19.12 9.47,19.12 L12.19,19.12 C13.51,19.12 14.44,18.46 14.73,17.3 C14.8,17.05 14.84,16.77 14.84,16.47 L14.84,12.4 C14.84,10.77 13.82,9.75 12.19,9.75 L5.4,9.75 Z"/>
</svg>

