<svg xmlns="http://www.w3.org/2000/svg" width="24" height="24" viewBox="0 0 24 24">
  <defs/>
  <path fill="#292D32" d="M17,2.43 L7,2.43 C4,2.43 2,4.43 2,7.43 L2,13.43 C2,16.43 4,18.43 7,18.43 L7,20.56 C7,21.36 7.89,21.84 8.55,21.39 L13,18.43 L17,18.43 C20,18.43 22,16.43 22,13.43 L22,7.43 C22,4.43 20,2.43 17,2.43 Z M12,14.6 C11.58,14.6 11.25,14.26 11.25,13.85 C11.25,13.44 11.58,13.1 12,13.1 C12.42,13.1 12.75,13.44 12.75,13.85 C12.75,14.26 12.42,14.6 12,14.6 Z M13.26,10.45 C12.87,10.71 12.75,10.88 12.75,11.16 L12.75,11.37 C12.75,11.78 12.41,12.12 12,12.12 C11.59,12.12 11.25,11.78 11.25,11.37 L11.25,11.16 C11.25,10 12.1,9.43 12.42,9.21 C12.79,8.96 12.91,8.79 12.91,8.53 C12.91,8.03 12.5,7.62 12,7.62 C11.5,7.62 11.09,8.03 11.09,8.53 C11.09,8.94 10.75,9.28 10.34,9.28 C9.93,9.28 9.59,8.94 9.59,8.53 C9.59,7.2 10.67,6.12 12,6.12 C13.33,6.12 14.41,7.2 14.41,8.53 C14.41,9.67 13.57,10.24 13.26,10.45 Z"/>
</svg>

