<svg xmlns="http://www.w3.org/2000/svg" width="24" height="24" viewBox="0 0 24 24">
  <defs/>
  <path fill="#292D32" d="M12,18.31 C11.53,18.31 11.08,18.07 10.77,17.66 L10.05,16.7 L9.9,16.7 C7.88,16.7 6,16.23 6,12.8 L6,10.17 C6,7.86 7.19,6.49 9.34,6.3 C9.5,6.28 9.69,6.27 9.9,6.27 L14.1,6.27 C16.61,6.27 18,7.65 18,10.17 L18,12.8 C18,13 17.99,13.2 17.97,13.38 C17.79,15.5 16.42,16.69 14.11,16.69 L13.96,16.69 L13.24,17.65 C12.92,18.08 12.47,18.31 12,18.31 Z M9.9,7.79 C9.76,7.79 9.63,7.79 9.5,7.81 C8.09,7.93 7.5,8.64 7.5,10.19 L7.5,12.82 C7.5,14.89 8.07,15.22 9.9,15.22 L10.16,15.22 C10.54,15.22 10.95,15.42 11.18,15.72 L11.97,16.78 L12.82,15.73 C13.06,15.41 13.44,15.22 13.84,15.22 L14.1,15.22 C15.65,15.22 16.35,14.63 16.47,13.25 C16.49,13.09 16.49,12.96 16.49,12.82 L16.49,10.19 C16.49,8.51 15.77,7.79 14.09,7.79 L9.9,7.79 Z"/>
  <path fill="#292D32" d="M12,22.75 C6.07,22.75 1.25,17.93 1.25,12 C1.25,6.07 6.07,1.25 12,1.25 C17.93,1.25 22.75,6.07 22.75,12 C22.75,17.93 17.93,22.75 12,22.75 Z M12,2.75 C6.9,2.75 2.75,6.9 2.75,12 C2.75,17.1 6.9,21.25 12,21.25 C17.1,21.25 21.25,17.1 21.25,12 C21.25,6.9 17.1,2.75 12,2.75 Z"/>
</svg>

