<svg xmlns="http://www.w3.org/2000/svg" width="24" height="24" viewBox="0 0 24 24">
  <defs/>
  <path fill="#292D32" d="M20.97,1 L18.03,1 C16.76,1 16,1.76 16,3.03 L16,5.97 C16,7.24 16.76,8 18.03,8 L20.97,8 C22.24,8 23,7.24 23,5.97 L23,3.03 C23,1.76 22.24,1 20.97,1 Z M21.61,4.68 C21.24,5.86 19.95,6.5 19.5,6.5 C19.05,6.5 17.77,5.88 17.39,4.68 C17.33,4.5 17.3,4.3 17.3,4.11 C17.3,3.46 17.63,2.79 18.32,2.57 C18.73,2.44 19.17,2.51 19.48,2.77 C19.8,2.52 20.24,2.44 20.66,2.57 C21.58,2.86 21.87,3.89 21.61,4.68 Z"/>
  <path fill="#292D32" d="M18.03,9.5 C16.08,9.5 14.5,7.92 14.5,5.97 L14.5,3 C14.5,2.45 14.05,2 13.5,2 L7,2 C4.24,2 2,4.23 2,6.98 L2,13.95 C2,16.71 4.24,18.95 7,18.95 L8.5,18.95 C8.78,18.95 9.14,19.13 9.3,19.35 L10.8,21.34 C11.46,22.22 12.54,22.22 13.2,21.34 L14.7,19.35 C14.89,19.1 15.19,18.95 15.5,18.95 L17.01,18.95 C19.77,18.95 22,16.72 22,13.96 L22,10.5 C22,9.95 21.55,9.5 21,9.5 L18.03,9.5 Z M8,12 C7.44,12 7,11.55 7,11 C7,10.45 7.44,10 8,10 C8.55,10 9,10.45 9,11 C9,11.55 8.56,12 8,12 Z M12,12 C11.44,12 11,11.55 11,11 C11,10.45 11.44,10 12,10 C12.55,10 13,10.45 13,11 C13,11.55 12.56,12 12,12 Z"/>
</svg>

