<svg xmlns="http://www.w3.org/2000/svg" width="24" height="24" viewBox="0 0 24 24">
  <defs/>
  <path fill="#292D32" d="M16,1.25 Q22.75,1.25 22.75,8 L22.75,16 Q22.75,22.75 16,22.75 L3,22.75 Q2.277,22.75 1.763,22.237 Q1.25,21.723 1.25,21 L1.25,8 Q1.25,1.25 8,1.25 Z M16,2.75 L8,2.75 Q2.75,2.75 2.75,8 L2.75,21 Q2.75,21.25 3,21.25 L16,21.25 Q21.25,21.25 21.25,16 L21.25,8 Q21.25,2.75 16,2.75 Z"/>
  <path fill="#292D32" d="M7,8.75 L17,8.75 Q17.311,8.75 17.53,8.97 Q17.75,9.189 17.75,9.5 Q17.75,9.811 17.53,10.03 Q17.311,10.25 17,10.25 L7,10.25 Q6.689,10.25 6.47,10.03 Q6.25,9.811 6.25,9.5 Q6.25,9.189 6.47,8.97 Q6.689,8.75 7,8.75 Z"/>
  <path fill="#292D32" d="M7,13.75 L14,13.75 Q14.311,13.75 14.53,13.97 Q14.75,14.189 14.75,14.5 Q14.75,14.811 14.53,15.03 Q14.311,15.25 14,15.25 L7,15.25 Q6.689,15.25 6.47,15.03 Q6.25,14.811 6.25,14.5 Q6.25,14.189 6.47,13.97 Q6.689,13.75 7,13.75 Z"/>
</svg>

