<svg xmlns="http://www.w3.org/2000/svg" width="24" height="24" viewBox="0 0 24 24">
  <defs/>
  <path fill="#292D32" opacity="0.4" d="M2,12.97 L2,6.99 C2,4.23 4.24,2 7,2 L17,2 C19.76,2 22,4.23 22,6.99 L22,13.97 C22,16.72 19.76,18.95 17,18.95 L15.5,18.95 C15.19,18.95 14.89,19.1 14.7,19.35 L13.2,21.34 C12.54,22.22 11.46,22.22 10.8,21.34 L9.3,19.35 C9.14,19.13 8.78,18.95 8.5,18.95 L7,18.95 C4.24,18.95 2,16.72 2,13.97 L2,12.97 Z"/>
  <path fill="#292D32" d="M17,8.75 L7,8.75 C6.59,8.75 6.25,8.41 6.25,8 C6.25,7.59 6.59,7.25 7,7.25 L17,7.25 C17.41,7.25 17.75,7.59 17.75,8 C17.75,8.41 17.41,8.75 17,8.75 Z"/>
  <path fill="#292D32" d="M13,13.75 L7,13.75 C6.59,13.75 6.25,13.41 6.25,13 C6.25,12.59 6.59,12.25 7,12.25 L13,12.25 C13.41,12.25 13.75,12.59 13.75,13 C13.75,13.41 13.41,13.75 13,13.75 Z"/>
</svg>

