<svg xmlns="http://www.w3.org/2000/svg" width="24" height="24" viewBox="0 0 24 24">
  <defs/>
  <path fill="white" opacity="0.58" d="M24,0 L0,0 L0,24 L24,24 L24,0 Z"/>
  <path fill="#292D32" opacity="0.4" d="M5.68,18.44 L5.68,20.29 C5.68,21.06 6.5,21.54 7.17,21.16 L9.03,20.11 C9.97,20.38 10.96,20.52 11.99,20.52 C17.51,20.52 21.99,16.37 21.99,11.26 C21.99,6.15 17.51,2 11.99,2 C6.47,2 1.99,6.15 1.99,11.26 C2,14.15 3.44,16.74 5.68,18.44 Z"/>
  <path fill="#292D32" d="M11.021,9.56 L8.481,12.58 C8.171,12.95 8.511,13.5 8.981,13.39 L10.991,12.9 C11.12,12.87 11.251,12.89 11.361,12.95 L12.37,13.54 C12.581,13.66 12.851,13.62 13.001,13.43 L15.501,10.44 C15.81,10.07 15.46,9.51 14.991,9.64 L13.171,10.11 C13.05,10.14 12.921,10.13 12.81,10.07 L11.63,9.45 C11.431,9.33 11.171,9.38 11.021,9.56 Z"/>
</svg>

