<svg xmlns="http://www.w3.org/2000/svg" width="24" height="24" viewBox="0 0 24 24">
  <defs/>
  <path fill="#292D32" d="M16.418,6.422 L16.418,7.582 L9.138,14.862 C8.178,13.992 7.578,12.712 7.578,11.342 L7.578,6.422 C7.578,4.362 8.978,2.652 10.878,2.162 C11.068,2.112 11.248,2.272 11.248,2.462 L11.248,4.002 C11.248,4.412 11.588,4.752 11.998,4.752 C12.408,4.752 12.748,4.412 12.748,4.002 L12.748,2.462 C12.748,2.272 12.928,2.112 13.118,2.162 C15.018,2.652 16.418,4.362 16.418,6.422 Z"/>
  <path fill="#292D32" d="M19.812,9.811 L19.812,11.401 C19.812,15.471 16.682,18.821 12.702,19.171 L12.702,21.301 C12.702,21.691 12.392,22.001 12.002,22.001 C11.612,22.001 11.302,21.691 11.302,21.301 L11.302,19.171 C10.212,19.071 9.182,18.751 8.262,18.241 L9.292,17.211 C10.112,17.591 11.032,17.811 12.002,17.811 C15.542,17.811 18.422,14.931 18.422,11.401 L18.422,9.811 C18.422,9.431 18.732,9.121 19.122,9.121 C19.502,9.121 19.812,9.431 19.812,9.811 Z"/>
  <path fill="#292D32" d="M16.418,10.078 L16.418,11.528 C16.418,14.108 14.198,16.178 11.558,15.928 C11.278,15.898 10.998,15.848 10.738,15.758 L16.418,10.078 Z"/>
  <path fill="#292D32" d="M21.771,2.229 C21.471,1.929 20.981,1.929 20.681,2.229 L7.231,15.679 C6.201,14.549 5.581,13.049 5.581,11.399 L5.581,9.809 C5.581,9.429 5.271,9.119 4.881,9.119 C4.501,9.119 4.191,9.429 4.191,9.809 L4.191,11.399 C4.191,13.429 4.971,15.279 6.241,16.669 L2.221,20.689 C1.921,20.989 1.921,21.479 2.221,21.779 C2.381,21.919 2.571,21.999 2.771,21.999 C2.971,21.999 3.161,21.919 3.311,21.769 L21.771,3.309 C22.081,3.009 22.081,2.529 21.771,2.229 Z"/>
</svg>

