<svg xmlns="http://www.w3.org/2000/svg" width="24" height="24" viewBox="0 0 24 24">
  <defs/>
  <path fill="#292D32" d="M16.42,6.42 L16.42,7.58 L9.14,14.86 C8.18,13.99 7.58,12.71 7.58,11.34 L7.58,6.42 C7.58,4.36 8.98,2.65 10.88,2.16 C11.07,2.11 11.25,2.27 11.25,2.46 L11.25,4 C11.25,4.41 11.59,4.75 12,4.75 C12.41,4.75 12.75,4.41 12.75,4 L12.75,2.46 C12.75,2.27 12.93,2.11 13.12,2.16 C15.02,2.65 16.42,4.36 16.42,6.42 Z"/>
  <path fill="#292D32" opacity="0.4" d="M7.779,16.22 L6.789,17.21 C5.199,15.78 4.189,13.71 4.189,11.4 L4.189,9.81 C4.189,9.43 4.499,9.12 4.879,9.12 C5.269,9.12 5.579,9.43 5.579,9.81 L5.579,11.4 C5.579,13.32 6.429,15.05 7.779,16.22 Z"/>
  <path fill="#292D32" opacity="0.4" d="M19.81,9.81 L19.81,11.4 C19.81,15.47 16.68,18.82 12.7,19.17 L12.7,21.3 C12.7,21.69 12.39,22 12,22 C11.61,22 11.3,21.69 11.3,21.3 L11.3,19.17 C10.21,19.07 9.18,18.75 8.26,18.24 L9.29,17.21 C10.11,17.59 11.03,17.81 12,17.81 C15.54,17.81 18.42,14.93 18.42,11.4 L18.42,9.81 C18.42,9.43 18.73,9.12 19.12,9.12 C19.5,9.12 19.81,9.43 19.81,9.81 Z"/>
  <path fill="#292D32" opacity="0.4" d="M16.42,10.08 L16.42,11.53 C16.42,14.11 14.2,16.18 11.56,15.93 C11.28,15.9 11,15.85 10.74,15.76 L16.42,10.08 Z"/>
  <path fill="#292D32" d="M21.771,2.23 C21.471,1.93 20.981,1.93 20.681,2.23 L2.231,20.69 C1.931,20.99 1.931,21.48 2.231,21.78 C2.381,21.92 2.571,22 2.771,22 C2.971,22 3.161,21.92 3.311,21.77 L21.771,3.31 C22.081,3.01 22.081,2.53 21.771,2.23 Z"/>
</svg>

