<svg xmlns="http://www.w3.org/2000/svg" width="24" height="24" viewBox="0 0 24 24">
  <defs/>
  <path fill="#292D32" d="M15.03,11.52 C14.79,11.52 14.55,11.4 14.41,11.19 L11.21,6.41 C11.1,6.24 11.06,6.04 11.1,5.85 C11.14,5.66 11.25,5.48 11.42,5.37 L17.08,1.58 C17.52,1.28 18.05,1.18 18.57,1.28 C19.09,1.38 19.54,1.68 19.84,2.12 L21.66,4.83 C22.27,5.74 22.03,6.98 21.11,7.59 L15.46,11.38 C15.32,11.48 15.18,11.52 15.03,11.52 Z M12.88,6.2 L15.24,9.73 L20.27,6.36 C20.5,6.21 20.56,5.9 20.4,5.68 L18.58,2.97 C18.51,2.86 18.4,2.79 18.27,2.76 C18.14,2.73 18.01,2.76 17.9,2.83 L12.88,6.2 Z"/>
  <path fill="#292D32" d="M9.94,14.24 C9.7,14.24 9.46,14.12 9.32,13.91 L6.76,10.09 C6.53,9.75 6.62,9.28 6.97,9.05 L11.75,5.85 C11.92,5.74 12.12,5.7 12.31,5.74 C12.51,5.78 12.68,5.89 12.79,6.06 L15.35,9.88 C15.58,10.22 15.49,10.69 15.14,10.92 L10.36,14.12 C10.23,14.2 10.08,14.24 9.94,14.24 Z M8.42,9.88 L10.14,12.45 L13.67,10.09 L11.95,7.51 L8.42,9.88 Z"/>
  <path fill="#292D32" d="M5.28,16.82 C4.72,16.82 4.16,16.55 3.82,16.04 L2.69,14.36 C2.43,13.97 2.34,13.51 2.43,13.05 C2.52,12.59 2.78,12.2 3.17,11.94 L7.12,9.3 C7.46,9.07 7.93,9.16 8.16,9.51 L10.4,12.85 C10.63,13.19 10.54,13.66 10.19,13.89 L6.24,16.53 C5.95,16.72 5.61,16.82 5.28,16.82 Z M7.33,10.95 L4.01,13.17 C3.9,13.25 3.86,13.4 3.94,13.52 L5.07,15.2 C5.15,15.31 5.3,15.35 5.42,15.27 L8.74,13.05 L7.33,10.95 Z"/>
  <path fill="#292D32" d="M7.56,22.75 C7.46,22.75 7.35,22.73 7.25,22.68 C6.87,22.51 6.71,22.06 6.88,21.69 L11.37,11.89 C11.54,11.51 11.99,11.35 12.36,11.52 C12.74,11.69 12.9,12.14 12.73,12.51 L8.24,22.31 C8.11,22.59 7.84,22.75 7.56,22.75 Z"/>
  <path fill="#292D32" d="M16.44,22.75 C16.15,22.75 15.88,22.59 15.76,22.31 L11.32,12.51 C11.15,12.13 11.32,11.69 11.69,11.52 C12.06,11.35 12.51,11.52 12.68,11.89 L17.12,21.69 C17.29,22.07 17.12,22.51 16.75,22.68 C16.65,22.73 16.55,22.75 16.44,22.75 Z"/>
</svg>

