<svg xmlns="http://www.w3.org/2000/svg" width="24" height="24" viewBox="0 0 24 24">
  <defs/>
  <path fill="#292D32" d="M19.12,9.119 C18.73,9.119 18.42,9.429 18.42,9.819 L18.42,11.399 C18.42,14.939 15.54,17.819 12,17.819 C8.46,17.819 5.58,14.939 5.58,11.399 L5.58,9.809 C5.58,9.419 5.27,9.109 4.88,9.109 C4.49,9.109 4.18,9.419 4.18,9.809 L4.18,11.389 C4.18,15.459 7.31,18.809 11.3,19.169 L11.3,21.299 C11.3,21.689 11.61,21.999 12,21.999 C12.39,21.999 12.7,21.689 12.7,21.299 L12.7,19.169 C16.68,18.819 19.82,15.459 19.82,11.389 L19.82,9.809 C19.81,9.429 19.5,9.119 19.12,9.119 Z"/>
  <path fill="#292D32" d="M11.998,2 C9.558,2 7.578,3.98 7.578,6.42 L7.578,11.54 C7.578,13.98 9.558,15.96 11.998,15.96 C14.438,15.96 16.418,13.98 16.418,11.54 L16.418,6.42 C16.418,3.98 14.438,2 11.998,2 Z M13.308,8.95 C13.238,9.21 13.008,9.38 12.748,9.38 C12.698,9.38 12.648,9.37 12.598,9.36 C12.208,9.25 11.798,9.25 11.408,9.36 C11.088,9.45 10.778,9.26 10.698,8.95 C10.608,8.64 10.798,8.32 11.108,8.24 C11.698,8.08 12.318,8.08 12.908,8.24 C13.208,8.32 13.388,8.64 13.308,8.95 Z M13.838,7.01 C13.748,7.25 13.528,7.39 13.288,7.39 C13.218,7.39 13.158,7.38 13.088,7.36 C12.388,7.1 11.608,7.1 10.908,7.36 C10.608,7.47 10.268,7.31 10.158,7.01 C10.048,6.71 10.208,6.37 10.508,6.27 C11.468,5.92 12.528,5.92 13.488,6.27 C13.788,6.38 13.948,6.71 13.838,7.01 Z"/>
</svg>

