<svg xmlns="http://www.w3.org/2000/svg" width="24" height="24" viewBox="0 0 24 24">
  <defs/>
  <path fill="#292D32" opacity="0.4" d="M17.621,5.72 L7.011,16.33 C6.281,15.34 5.881,14.13 5.881,12.82 L5.881,8.11 C5.881,6.27 6.701,4.62 8.001,3.5 L8.001,7.64 C8.001,8.03 8.321,8.35 8.701,8.35 C9.091,8.35 9.411,8.03 9.411,7.64 L9.411,2.57 C9.871,2.34 10.361,2.18 10.871,2.09 L10.871,5.75 C10.871,6.15 11.191,6.46 11.581,6.46 C11.971,6.46 12.291,6.15 12.291,5.75 L12.291,2 C14.681,2.11 16.741,3.61 17.621,5.72 Z"/>
  <path fill="#292D32" d="M18.12,8.88 L18.12,12.82 C18.12,16.19 15.37,18.94 12,18.94 C11.82,18.94 11.64,18.93 11.46,18.91 C11.38,18.91 11.3,18.9 11.23,18.89 C11.1,18.87 10.97,18.85 10.85,18.83 C10.8,18.83 10.76,18.81 10.7,18.8 C10.56,18.77 10.42,18.73 10.29,18.69 C10.07,18.63 9.86,18.55 9.66,18.47 C9.53,18.42 9.41,18.37 9.29,18.3 C9.26,18.29 9.24,18.27 9.21,18.26 C9.11,18.21 9.01,18.16 8.91,18.09 L18.12,8.88 Z"/>
  <path fill="#292D32" d="M21.75,11 L21.75,13 C21.75,18.38 17.38,22.75 12,22.75 C9.88,22.75 7.85,22.07 6.18,20.82 L7.26,19.74 C8.64,20.72 10.28,21.25 12,21.25 C16.55,21.25 20.25,17.55 20.25,13 L20.25,11 C20.25,10.59 20.59,10.25 21,10.25 C21.41,10.25 21.75,10.59 21.75,11 Z"/>
  <path fill="#292D32" d="M21.771,2.23 C21.471,1.93 20.981,1.93 20.681,2.23 L2.231,20.69 C1.931,20.99 1.931,21.48 2.231,21.78 C2.381,21.92 2.571,22 2.771,22 C2.971,22 3.161,21.92 3.311,21.77 L21.771,3.31 C22.081,3.01 22.081,2.53 21.771,2.23 Z"/>
</svg>

