<svg xmlns="http://www.w3.org/2000/svg" width="24" height="24" viewBox="0 0 24 24">
  <defs/>
  <path fill="#292D32" d="M15.447,11.393 Q15.189,11.566 14.885,11.506 Q14.58,11.446 14.407,11.188 L11.207,6.418 L11.207,6.417 Q11.034,6.159 11.094,5.854 Q11.155,5.55 11.413,5.377 L17.069,1.589 Q17.748,1.128 18.562,1.288 Q19.376,1.447 19.833,2.132 L21.651,4.839 Q22.112,5.518 21.952,6.332 Q21.793,7.146 21.107,7.603 Z M15.235,9.73 L20.273,6.357 Q20.441,6.245 20.48,6.043 Q20.52,5.843 20.409,5.681 L18.587,2.968 Q18.475,2.799 18.273,2.76 Q18.073,2.721 17.911,2.831 L12.871,6.206 L15.235,9.73 Z"/>
  <path fill="#292D32" d="M11.757,5.856 Q12.015,5.683 12.319,5.743 Q12.624,5.804 12.797,6.062 L15.357,9.884 Q15.53,10.142 15.47,10.447 Q15.409,10.752 15.151,10.924 L10.373,14.124 Q10.115,14.297 9.811,14.237 Q9.506,14.177 9.333,13.919 L6.773,10.096 Q6.6,9.838 6.66,9.534 Q6.721,9.229 6.979,9.056 Z M11.968,7.52 L8.437,9.885 L10.162,12.461 L13.693,10.096 L11.968,7.52 Z"/>
  <path fill="#292D32" d="M6.24,16.528 Q4.781,17.479 3.828,16.048 L2.698,14.369 Q2.292,13.767 2.43,13.056 Q2.568,12.344 3.173,11.936 L7.123,9.296 Q7.381,9.124 7.686,9.184 Q7.99,9.244 8.163,9.502 L10.403,12.842 L10.404,12.843 Q10.576,13.101 10.516,13.406 Q10.455,13.711 10.197,13.883 L6.247,16.523 Z M5.418,15.274 L8.739,13.054 L7.334,10.96 L4.007,13.183 Q3.801,13.322 3.942,13.531 L5.072,15.211 Q5.205,15.41 5.418,15.274 Z"/>
  <path fill="#292D32" d="M12.732,12.512 L8.242,22.312 Q8.112,22.595 7.821,22.703 Q7.53,22.811 7.248,22.682 Q6.965,22.552 6.857,22.261 Q6.749,21.97 6.878,21.688 L11.368,11.888 Q11.498,11.605 11.789,11.497 Q12.08,11.389 12.362,11.518 Q12.645,11.648 12.753,11.939 Q12.861,12.23 12.732,12.512 Z"/>
  <path fill="#292D32" d="M12.683,11.89 L17.123,21.69 Q17.251,21.973 17.142,22.264 Q17.032,22.555 16.75,22.683 Q16.467,22.811 16.176,22.702 Q15.885,22.592 15.757,22.309 L11.317,12.51 Q11.189,12.227 11.298,11.936 Q11.408,11.645 11.69,11.517 Q11.973,11.389 12.264,11.498 Q12.555,11.608 12.683,11.89 Z"/>
</svg>

