<svg xmlns="http://www.w3.org/2000/svg" width="24" height="24" viewBox="0 0 24 24">
  <defs/>
  <path fill="#292D32" d="M12,19.75 C8.28,19.75 5.25,16.72 5.25,13 L5.25,8 C5.25,4.28 8.28,1.25 12,1.25 C15.72,1.25 18.75,4.28 18.75,8 L18.75,13 C18.75,16.72 15.72,19.75 12,19.75 Z M12,2.75 C9.11,2.75 6.75,5.1 6.75,8 L6.75,13 C6.75,15.9 9.11,18.25 12,18.25 C14.89,18.25 17.25,15.9 17.25,13 L17.25,8 C17.25,5.1 14.89,2.75 12,2.75 Z"/>
  <path fill="#292D32" d="M12,22.75 C6.62,22.75 2.25,18.38 2.25,13 L2.25,11 C2.25,10.59 2.59,10.25 3,10.25 C3.41,10.25 3.75,10.59 3.75,11 L3.75,13 C3.75,17.55 7.45,21.25 12,21.25 C16.55,21.25 20.25,17.55 20.25,13 L20.25,11 C20.25,10.59 20.59,10.25 21,10.25 C21.41,10.25 21.75,10.59 21.75,11 L21.75,13 C21.75,18.38 17.38,22.75 12,22.75 Z"/>
  <path fill="#292D32" d="M14.61,8.23 C14.53,8.23 14.44,8.22 14.35,8.19 C12.74,7.61 10.97,7.61 9.36,8.19 C8.98,8.33 8.55,8.13 8.41,7.74 C8.27,7.35 8.47,6.92 8.86,6.78 C10.8,6.08 12.93,6.08 14.87,6.78 C15.26,6.92 15.46,7.35 15.32,7.74 C15.21,8.05 14.92,8.23 14.61,8.23 Z"/>
  <path fill="#292D32" d="M13.7,11.23 C13.64,11.23 13.57,11.22 13.5,11.2 C12.43,10.91 11.3,10.91 10.23,11.2 C9.82,11.31 9.42,11.07 9.31,10.67 C9.2,10.27 9.44,9.86 9.84,9.75 C11.17,9.39 12.57,9.39 13.9,9.75 C14.3,9.86 14.54,10.27 14.43,10.67 C14.33,11.02 14.03,11.23 13.7,11.23 Z"/>
</svg>

