<svg xmlns="http://www.w3.org/2000/svg" width="24" height="24" viewBox="0 0 24 24">
  <defs/>
  <path fill="#292D32" opacity="0.4" d="M19.12,9.12 C18.73,9.12 18.42,9.43 18.42,9.82 L18.42,11.4 C18.42,14.94 15.54,17.82 12,17.82 C8.46,17.82 5.58,14.94 5.58,11.4 L5.58,9.81 C5.58,9.42 5.27,9.11 4.88,9.11 C4.49,9.11 4.18,9.42 4.18,9.81 L4.18,11.39 C4.18,15.46 7.31,18.81 11.3,19.17 L11.3,21.3 C11.3,21.69 11.61,22 12,22 C12.39,22 12.7,21.69 12.7,21.3 L12.7,19.17 C16.68,18.82 19.82,15.46 19.82,11.39 L19.82,9.81 C19.81,9.43 19.5,9.12 19.12,9.12 Z"/>
  <path fill="#292D32" d="M12,2 C9.56,2 7.58,3.98 7.58,6.42 L7.58,11.54 C7.58,13.98 9.56,15.96 12,15.96 C14.44,15.96 16.42,13.98 16.42,11.54 L16.42,6.42 C16.42,3.98 14.44,2 12,2 Z M13.31,8.95 C13.24,9.21 13.01,9.38 12.75,9.38 C12.7,9.38 12.65,9.37 12.6,9.36 C12.21,9.25 11.8,9.25 11.41,9.36 C11.09,9.45 10.78,9.26 10.7,8.95 C10.61,8.64 10.8,8.32 11.11,8.24 C11.7,8.08 12.32,8.08 12.91,8.24 C13.21,8.32 13.39,8.64 13.31,8.95 Z M13.84,7.01 C13.75,7.25 13.53,7.39 13.29,7.39 C13.22,7.39 13.16,7.38 13.09,7.36 C12.39,7.1 11.61,7.1 10.91,7.36 C10.61,7.47 10.27,7.31 10.16,7.01 C10.05,6.71 10.21,6.37 10.51,6.27 C11.47,5.92 12.53,5.92 13.49,6.27 C13.79,6.38 13.95,6.71 13.84,7.01 Z"/>
</svg>

