<svg xmlns="http://www.w3.org/2000/svg" width="24" height="24" viewBox="0 0 24 24">
  <defs/>
  <path fill="#292D32" d="M14.839,10.9 L20.499,7.11 C21.069,6.73 21.219,5.95 20.839,5.39 L19.019,2.68 C18.639,2.11 17.859,1.96 17.299,2.34 L11.639,6.13 L14.839,10.9 Z"/>
  <path fill="#292D32" d="M14.52,10.42 L12.76,11.6 L10.09,13.39 L9.74,13.62 L9.58,13.38 L7.34,10.04 L7.18,9.8 L11.96,6.6 L14.52,10.42 Z"/>
  <path fill="#292D32" d="M5.639,16.02 L9.589,13.38 L7.349,10.04 L3.399,12.68 C2.939,12.99 2.819,13.61 3.129,14.07 L4.259,15.75 C4.559,16.21 5.179,16.33 5.639,16.02 Z"/>
  <path fill="#292D32" opacity="0.4" d="M16.559,21.81 C16.459,21.85 16.349,21.88 16.249,21.88 C15.959,21.88 15.689,21.71 15.559,21.43 L11.829,13.19 L8.049,21.44 C7.919,21.71 7.649,21.88 7.359,21.88 C7.259,21.88 7.149,21.85 7.049,21.81 C6.679,21.63 6.509,21.19 6.679,20.81 L10.089,13.39 L12.759,11.6 L16.929,20.82 C17.099,21.19 16.929,21.64 16.559,21.81 Z"/>
</svg>

