<svg xmlns="http://www.w3.org/2000/svg" width="24" height="24" viewBox="0 0 24 24">
  <defs/>
  <path fill="#292D32" d="M14.457,5.143 L12.87,6.206 L15.236,9.739 L20.273,6.367 Q20.441,6.255 20.48,6.053 Q20.52,5.853 20.409,5.691 L18.587,2.978 Q18.475,2.809 18.273,2.77 Q18.073,2.731 17.911,2.841 Q17.654,3.015 17.349,2.957 Q17.044,2.898 16.869,2.641 Q16.695,2.384 16.753,2.079 Q16.812,1.774 17.069,1.599 Q17.748,1.138 18.562,1.298 Q19.376,1.457 19.833,2.142 L21.651,4.849 Q22.112,5.528 21.952,6.342 Q21.793,7.156 21.107,7.613 L15.447,11.403 Q15.189,11.576 14.884,11.516 Q14.58,11.455 14.407,11.197 L11.207,6.417 Q11.034,6.159 11.094,5.854 Q11.155,5.55 11.413,5.377 L13.623,3.897 Q13.881,3.724 14.186,3.784 Q14.49,3.845 14.663,4.103 Q14.836,4.361 14.776,4.666 Q14.716,4.97 14.457,5.143 Z"/>
  <path fill="#292D32" d="M11.757,5.856 Q12.015,5.683 12.32,5.744 Q12.624,5.804 12.797,6.062 L15.357,9.884 Q15.53,10.142 15.47,10.447 Q15.41,10.752 15.151,10.925 L10.374,14.124 Q10.116,14.297 9.811,14.237 Q9.506,14.177 9.333,13.919 L6.773,10.097 Q6.6,9.838 6.661,9.534 Q6.721,9.229 6.979,9.056 Z M11.968,7.52 L8.437,9.885 L10.162,12.461 L13.694,10.096 L11.968,7.52 Z"/>
  <path fill="#292D32" d="M6.24,16.528 Q4.782,17.479 3.828,16.048 L2.699,14.369 Q2.293,13.767 2.431,13.056 Q2.569,12.344 3.174,11.936 L7.124,9.296 Q7.382,9.124 7.686,9.184 Q7.991,9.244 8.163,9.502 L10.403,12.842 L10.404,12.843 Q10.577,13.101 10.516,13.406 Q10.456,13.711 10.197,13.883 L6.247,16.523 Z M5.418,15.274 L8.739,13.054 L7.335,10.96 L4.007,13.183 Q3.923,13.24 3.903,13.342 Q3.883,13.443 3.942,13.531 L5.073,15.211 Q5.205,15.41 5.418,15.274 Z"/>
  <path fill="#292D32" d="M12.732,12.512 L8.242,22.312 Q8.113,22.595 7.822,22.703 Q7.531,22.811 7.248,22.682 Q6.966,22.552 6.858,22.261 Q6.749,21.97 6.879,21.688 L11.369,11.888 Q11.498,11.605 11.789,11.497 Q12.081,11.389 12.363,11.518 Q12.645,11.648 12.754,11.939 Q12.862,12.23 12.732,12.512 Z"/>
  <path fill="#292D32" d="M12.683,11.89 L17.123,21.69 Q17.251,21.973 17.142,22.264 Q17.032,22.555 16.75,22.683 Q16.467,22.811 16.176,22.702 Q15.885,22.592 15.757,22.309 L11.317,12.51 Q11.189,12.227 11.298,11.936 Q11.408,11.645 11.69,11.517 Q11.973,11.389 12.264,11.498 Q12.555,11.608 12.683,11.89 Z"/>
</svg>

