<svg xmlns="http://www.w3.org/2000/svg" width="24" height="24" viewBox="0 0 24 24">
  <defs/>
  <path fill="#292D32" d="M17.619,5.72 L7.009,16.33 C6.279,15.34 5.879,14.13 5.879,12.82 L5.879,8.11 C5.879,6.27 6.699,4.62 7.999,3.5 L7.999,7.64 C7.999,8.03 8.319,8.35 8.699,8.35 C9.089,8.35 9.409,8.03 9.409,7.64 L9.409,2.57 C9.869,2.34 10.359,2.18 10.869,2.09 L10.869,5.75 C10.869,6.15 11.189,6.46 11.579,6.46 C11.969,6.46 12.289,6.15 12.289,5.75 L12.289,2 C14.679,2.11 16.739,3.61 17.619,5.72 Z"/>
  <path fill="#292D32" d="M18.12,8.879 L18.12,12.819 C18.12,16.189 15.37,18.939 12,18.939 C11.82,18.939 11.64,18.929 11.46,18.909 C11.38,18.909 11.3,18.899 11.23,18.889 C11.1,18.869 10.97,18.849 10.85,18.829 C10.8,18.829 10.76,18.809 10.7,18.799 C10.56,18.769 10.42,18.729 10.29,18.689 C10.07,18.629 9.86,18.549 9.66,18.469 C9.53,18.419 9.41,18.369 9.29,18.299 C9.26,18.289 9.24,18.269 9.21,18.259 C9.11,18.209 9.01,18.159 8.91,18.089 L18.12,8.879 Z"/>
  <path fill="#292D32" d="M21.75,11 L21.75,13 C21.75,18.38 17.38,22.75 12,22.75 C9.88,22.75 7.85,22.07 6.18,20.82 L7.26,19.74 C8.64,20.72 10.28,21.25 12,21.25 C16.55,21.25 20.25,17.55 20.25,13 L20.25,11 C20.25,10.59 20.59,10.25 21,10.25 C21.41,10.25 21.75,10.59 21.75,11 Z"/>
  <path fill="#292D32" d="M21.769,2.229 C21.469,1.929 20.979,1.929 20.679,2.229 L2.229,20.689 C1.929,20.989 1.929,21.479 2.229,21.779 C2.379,21.919 2.569,21.999 2.769,21.999 C2.969,21.999 3.159,21.919 3.309,21.769 L21.769,3.309 C22.079,3.009 22.079,2.529 21.769,2.229 Z"/>
</svg>

