<svg xmlns="http://www.w3.org/2000/svg" width="24" height="24" viewBox="0 0 24 24">
  <defs/>
  <path fill="#292D32" d="M12.002,21.929 C6.962,21.929 2.852,17.829 2.852,12.779 L2.852,10.899 C2.852,10.509 3.172,10.199 3.552,10.199 C3.932,10.199 4.252,10.519 4.252,10.899 L4.252,12.779 C4.252,17.049 7.722,20.519 11.992,20.519 C16.262,20.519 19.732,17.049 19.732,12.779 L19.732,10.899 C19.732,10.509 20.052,10.199 20.432,10.199 C20.812,10.199 21.132,10.519 21.132,10.899 L21.132,12.779 C21.152,17.829 17.042,21.929 12.002,21.929 Z"/>
  <path fill="#292D32" d="M11.998,2 C8.638,2 5.898,4.74 5.898,8.1 L5.898,12.79 C5.898,16.15 8.638,18.89 11.998,18.89 C15.358,18.89 18.098,16.15 18.098,12.79 L18.098,8.1 C18.098,4.74 15.358,2 11.998,2 Z M14.178,10.59 C14.108,10.86 13.858,11.04 13.588,11.04 C13.538,11.04 13.478,11.03 13.428,11.02 C12.408,10.74 11.328,10.74 10.308,11.02 C9.978,11.11 9.648,10.92 9.558,10.59 C9.468,10.27 9.658,9.93 9.988,9.84 C11.218,9.5 12.518,9.5 13.748,9.84 C14.078,9.93 14.268,10.26 14.178,10.59 Z M15.028,7.82 C14.938,8.07 14.708,8.22 14.458,8.22 C14.388,8.22 14.318,8.21 14.248,8.18 C12.718,7.62 11.038,7.62 9.508,8.18 C9.188,8.3 8.838,8.14 8.718,7.82 C8.608,7.51 8.768,7.16 9.088,7.04 C10.888,6.39 12.868,6.39 14.658,7.04 C14.978,7.16 15.138,7.51 15.028,7.82 Z"/>
</svg>

