<svg xmlns="http://www.w3.org/2000/svg" width="24" height="24" viewBox="0 0 24 24">
  <defs/>
  <path fill="#292D32" d="M15.446,11.393 Q15.188,11.566 14.884,11.506 Q14.579,11.446 14.406,11.188 L11.206,6.418 L11.206,6.418 Q11.033,6.159 11.093,5.855 Q11.154,5.55 11.412,5.377 L17.068,1.59 Q17.747,1.129 18.561,1.288 Q19.375,1.448 19.832,2.132 L21.65,4.839 Q22.111,5.519 21.951,6.332 Q21.792,7.147 21.106,7.603 Z M15.234,9.73 L20.272,6.357 Q20.44,6.245 20.479,6.043 Q20.519,5.844 20.408,5.681 L18.586,2.968 Q18.474,2.799 18.272,2.76 Q18.072,2.721 17.91,2.831 L12.87,6.206 L15.234,9.73 Z"/>
  <path fill="#292D32" d="M11.756,5.856 Q12.014,5.683 12.319,5.744 Q12.623,5.804 12.796,6.062 L15.356,9.884 Q15.529,10.142 15.469,10.447 Q15.409,10.752 15.15,10.925 L10.373,14.124 Q10.115,14.297 9.81,14.237 Q9.505,14.177 9.332,13.919 L6.772,10.097 Q6.599,9.838 6.66,9.534 Q6.72,9.229 6.978,9.056 Z M11.967,7.52 L8.436,9.885 L10.161,12.461 L13.693,10.096 L11.967,7.52 Z"/>
  <path fill="#292D32" d="M6.239,16.529 Q4.781,17.48 3.827,16.049 L2.698,14.37 Q2.209,13.644 2.327,13.036 Q2.445,12.427 3.173,11.937 L7.123,9.297 Q7.381,9.124 7.685,9.185 Q7.99,9.245 8.162,9.503 L10.402,12.843 L10.403,12.844 Q10.576,13.102 10.515,13.407 Q10.455,13.711 10.196,13.884 L6.246,16.524 Z M5.417,15.274 L8.738,13.054 L7.334,10.96 L4.006,13.184 Q3.801,13.322 3.941,13.531 L5.072,15.212 Q5.205,15.411 5.417,15.274 Z"/>
  <path fill="#292D32" opacity="0.4" d="M12.731,12.513 L8.241,22.313 Q8.112,22.595 7.821,22.703 Q7.53,22.811 7.247,22.682 Q6.965,22.553 6.857,22.261 Q6.748,21.97 6.878,21.688 L11.368,11.888 Q11.497,11.605 11.788,11.497 Q12.08,11.389 12.362,11.518 Q12.644,11.648 12.753,11.939 Q12.861,12.23 12.731,12.513 Z"/>
  <path fill="#292D32" opacity="0.4" d="M12.683,11.891 L17.123,21.691 Q17.251,21.974 17.142,22.264 Q17.032,22.555 16.75,22.683 Q16.467,22.812 16.176,22.702 Q15.885,22.593 15.757,22.31 L11.317,12.51 Q11.189,12.227 11.298,11.936 Q11.408,11.645 11.69,11.517 Q11.973,11.389 12.264,11.498 Q12.555,11.608 12.683,11.891 Z"/>
</svg>

