<svg xmlns="http://www.w3.org/2000/svg" width="24" height="24" viewBox="0 0 24 24">
  <defs/>
  <path fill="#292D32" d="M7.39,17.59 C7.18,17.59 6.96,17.5 6.81,17.32 C5.8,16.11 5.25,14.58 5.25,13 L5.25,8 C5.25,4.28 8.28,1.25 12,1.25 C15.1,1.25 17.79,3.35 18.55,6.35 C18.65,6.75 18.41,7.16 18.01,7.26 C17.62,7.36 17.2,7.12 17.1,6.72 C16.5,4.38 14.41,2.75 12,2.75 C9.11,2.75 6.75,5.1 6.75,8 L6.75,13 C6.75,14.23 7.18,15.42 7.96,16.36 C8.23,16.68 8.18,17.15 7.86,17.42 C7.73,17.53 7.56,17.59 7.39,17.59 Z"/>
  <path fill="#292D32" d="M12,19.75 C11.19,19.75 10.4,19.61 9.66,19.33 C9.27,19.19 9.07,18.75 9.22,18.37 C9.36,17.98 9.8,17.78 10.18,17.93 C10.76,18.15 11.38,18.26 12,18.26 C14.89,18.26 17.25,15.91 17.25,13.01 L17.25,9.98 C17.25,9.57 17.59,9.23 18,9.23 C18.41,9.23 18.75,9.57 18.75,9.98 L18.75,13 C18.75,16.72 15.72,19.75 12,19.75 Z"/>
  <path fill="#292D32" d="M11.999,22.75 C9.519,22.75 7.159,21.82 5.349,20.13 C5.049,19.85 5.029,19.37 5.309,19.07 C5.589,18.77 6.069,18.75 6.369,19.03 C7.899,20.46 9.899,21.24 11.989,21.24 C16.539,21.24 20.239,17.54 20.239,12.99 L20.239,10.99 C20.239,10.58 20.579,10.24 20.989,10.24 C21.399,10.24 21.739,10.58 21.739,10.99 L21.739,12.99 C21.749,18.38 17.379,22.75 11.999,22.75 Z"/>
  <path fill="#292D32" d="M2.499,22.74 C2.309,22.74 2.119,22.67 1.969,22.52 C1.679,22.23 1.679,21.75 1.969,21.46 L20.97,2.46 C21.259,2.17 21.739,2.17 22.029,2.46 C22.32,2.75 22.32,3.23 22.029,3.52 L3.029,22.52 C2.879,22.67 2.689,22.74 2.499,22.74 Z"/>
  <path fill="#292D32" d="M11.551,6.25 C11.141,6.25 10.801,5.91 10.801,5.5 L10.801,2.26 C10.801,1.85 11.141,1.51 11.551,1.51 C11.961,1.51 12.301,1.85 12.301,2.26 L12.301,5.5 C12.301,5.92 11.961,6.25 11.551,6.25 Z"/>
  <path fill="#292D32" d="M8.5,8.25 C8.09,8.25 7.75,7.91 7.75,7.5 L7.75,3.5 C7.75,3.09 8.09,2.75 8.5,2.75 C8.91,2.75 9.25,3.09 9.25,3.5 L9.25,7.5 C9.25,7.91 8.91,8.25 8.5,8.25 Z"/>
</svg>

