<svg xmlns="http://www.w3.org/2000/svg" width="24" height="24" viewBox="0 0 24 24">
  <defs/>
  <path fill="#292D32" d="M15.25,6.3 L15.25,6 Q15.25,2.75 12,2.75 Q8.75,2.75 8.75,6 L8.75,11 Q8.75,11.311 8.53,11.53 Q8.311,11.75 8,11.75 Q7.689,11.75 7.47,11.53 Q7.25,11.311 7.25,11 L7.25,6 Q7.25,4.032 8.641,2.641 Q10.032,1.25 12,1.25 Q13.968,1.25 15.359,2.641 Q16.75,4.032 16.75,6 L16.75,6.3 Q16.75,6.611 16.53,6.83 Q16.311,7.05 16,7.05 Q15.689,7.05 15.47,6.83 Q15.25,6.611 15.25,6.3 Z"/>
  <path fill="#292D32" d="M5.1,9.65 L5.1,11.35 Q5.1,12.762 5.64,14.037 Q5.761,14.323 5.645,14.611 Q5.528,14.899 5.242,15.02 Q4.956,15.142 4.668,15.025 Q4.38,14.909 4.259,14.623 Q3.6,13.067 3.6,11.35 L3.6,9.65 Q3.6,9.339 3.819,9.12 Q4.039,8.9 4.35,8.9 Q4.66,8.9 4.88,9.12 Q5.1,9.339 5.1,9.65 Z"/>
  <path fill="#292D32" d="M20.6,3.37 L4.46,19.52 Q4.241,19.74 3.93,19.74 Q3.619,19.74 3.4,19.52 Q3.18,19.301 3.18,18.99 Q3.18,18.679 3.399,18.46 L19.539,2.31 Q19.759,2.09 20.069,2.09 Q20.38,2.09 20.6,2.309 Q20.82,2.529 20.82,2.84 Q20.82,3.15 20.6,3.37 Z"/>
  <path fill="#292D32" d="M11.75,3 L11.75,6 Q11.75,6.311 11.53,6.53 Q11.311,6.75 11,6.75 Q10.689,6.75 10.47,6.53 Q10.25,6.311 10.25,6 L10.25,3 Q10.25,2.689 10.47,2.47 Q10.689,2.25 11,2.25 Q11.311,2.25 11.53,2.47 Q11.75,2.689 11.75,3 Z"/>
  <g opacity="0.4">
    <path fill="#292D32" d="M9.596,13.688 Q10.553,14.75 11.999,14.75 Q15.249,14.75 15.249,11.5 L15.249,11 Q15.249,10.689 15.469,10.47 Q15.688,10.25 15.999,10.25 Q16.31,10.25 16.529,10.47 Q16.749,10.689 16.749,11 L16.749,11.5 Q16.749,13.468 15.358,14.859 Q13.967,16.25 11.999,16.25 Q9.886,16.25 8.482,14.692 Q8.274,14.461 8.29,14.151 Q8.306,13.841 8.537,13.633 Q8.768,13.425 9.078,13.441 Q9.388,13.457 9.596,13.688 Z"/>
    <path fill="#292D32" d="M7.289,16.4 Q9.285,18.25 11.999,18.25 Q14.854,18.25 16.876,16.228 Q18.899,14.205 18.899,11.35 L18.899,9.65 Q18.899,9.34 19.119,9.12 Q19.339,8.9 19.649,8.9 Q19.96,8.9 20.18,9.12 Q20.399,9.34 20.399,9.65 L20.399,11.35 Q20.399,14.826 17.937,17.288 Q15.475,19.75 11.999,19.75 Q8.697,19.75 6.269,17.5 Q6.042,17.289 6.03,16.979 Q6.018,16.668 6.229,16.441 Q6.44,16.213 6.751,16.201 Q7.061,16.189 7.289,16.4 Z"/>
    <path fill="#292D32" d="M12.75,19 L12.75,22 Q12.75,22.311 12.53,22.53 Q12.311,22.75 12,22.75 Q11.689,22.75 11.47,22.53 Q11.25,22.311 11.25,22 L11.25,19 Q11.25,18.689 11.47,18.47 Q11.689,18.25 12,18.25 Q12.311,18.25 12.53,18.47 Q12.75,18.689 12.75,19 Z"/>
  </g>
</svg>

