<svg xmlns="http://www.w3.org/2000/svg" width="24" height="24" viewBox="0 0 24 24">
  <defs/>
  <path fill="#292D32" d="M12,16.25 C9.38,16.25 7.25,14.12 7.25,11.5 L7.25,6 C7.25,3.38 9.38,1.25 12,1.25 C14.62,1.25 16.75,3.38 16.75,6 L16.75,11.5 C16.75,14.12 14.62,16.25 12,16.25 Z M12,2.75 C10.21,2.75 8.75,4.21 8.75,6 L8.75,11.5 C8.75,13.29 10.21,14.75 12,14.75 C13.79,14.75 15.25,13.29 15.25,11.5 L15.25,6 C15.25,4.21 13.79,2.75 12,2.75 Z"/>
  <path fill="#292D32" d="M12,19.75 C7.37,19.75 3.6,15.98 3.6,11.35 L3.6,9.65 C3.6,9.24 3.94,8.9 4.35,8.9 C4.76,8.9 5.1,9.24 5.1,9.65 L5.1,11.35 C5.1,15.15 8.2,18.25 12,18.25 C15.8,18.25 18.9,15.15 18.9,11.35 L18.9,9.65 C18.9,9.24 19.24,8.9 19.65,8.9 C20.06,8.9 20.4,9.24 20.4,9.65 L20.4,11.35 C20.4,15.98 16.63,19.75 12,19.75 Z"/>
  <path fill="#292D32" d="M13.39,7.18 C13.31,7.18 13.22,7.17 13.13,7.14 C12.4,6.87 11.6,6.87 10.87,7.14 C10.48,7.28 10.05,7.08 9.91,6.69 C9.77,6.3 9.97,5.87 10.36,5.73 C11.42,5.35 12.59,5.35 13.65,5.73 C14.04,5.87 14.24,6.3 14.1,6.69 C13.98,6.99 13.69,7.18 13.39,7.18 Z"/>
  <path fill="#292D32" d="M12.8,9.3 C12.73,9.3 12.67,9.29 12.6,9.27 C12.2,9.16 11.79,9.16 11.39,9.27 C10.99,9.38 10.58,9.14 10.47,8.74 C10.36,8.35 10.6,7.94 11,7.83 C11.65,7.65 12.35,7.65 13,7.83 C13.4,7.94 13.64,8.35 13.53,8.75 C13.44,9.08 13.13,9.3 12.8,9.3 Z"/>
  <path fill="#292D32" d="M12,22.75 C11.59,22.75 11.25,22.41 11.25,22 L11.25,19 C11.25,18.59 11.59,18.25 12,18.25 C12.41,18.25 12.75,18.59 12.75,19 L12.75,22 C12.75,22.41 12.41,22.75 12,22.75 Z"/>
</svg>

