<svg xmlns="http://www.w3.org/2000/svg" width="24" height="24" viewBox="0 0 24 24">
  <defs/>
  <path fill="#292D32" d="M8,11.75 C7.59,11.75 7.25,11.41 7.25,11 L7.25,6 C7.25,3.38 9.38,1.25 12,1.25 C14.62,1.25 16.75,3.38 16.75,6 L16.75,6.3 C16.75,6.71 16.41,7.05 16,7.05 C15.59,7.05 15.25,6.71 15.25,6.3 L15.25,6 C15.25,4.21 13.79,2.75 12,2.75 C10.21,2.75 8.75,4.21 8.75,6 L8.75,11 C8.75,11.41 8.41,11.75 8,11.75 Z"/>
  <path fill="#292D32" d="M12.001,16.25 C10.661,16.25 9.381,15.68 8.481,14.69 C8.201,14.38 8.231,13.91 8.531,13.63 C8.841,13.35 9.311,13.38 9.591,13.68 C10.201,14.36 11.081,14.75 12.001,14.75 C13.791,14.75 15.251,13.29 15.251,11.5 L15.251,11 C15.251,10.59 15.591,10.25 16.001,10.25 C16.411,10.25 16.751,10.59 16.751,11 L16.751,11.5 C16.751,14.12 14.621,16.25 12.001,16.25 Z"/>
  <path fill="#292D32" d="M11.999,19.75 C9.869,19.75 7.829,18.95 6.269,17.5 C5.969,17.22 5.949,16.74 6.229,16.44 C6.519,16.13 6.999,16.12 7.299,16.4 C8.579,17.59 10.249,18.25 11.999,18.25 C15.799,18.25 18.899,15.15 18.899,11.35 L18.899,9.65 C18.899,9.24 19.239,8.9 19.649,8.9 C20.059,8.9 20.399,9.24 20.399,9.65 L20.399,11.35 C20.399,15.98 16.629,19.75 11.999,19.75 Z"/>
  <path fill="#292D32" d="M4.95,15.08 C4.66,15.08 4.38,14.91 4.26,14.62 C3.82,13.58 3.6,12.49 3.6,11.35 L3.6,9.65 C3.6,9.24 3.94,8.9 4.35,8.9 C4.76,8.9 5.1,9.24 5.1,9.65 L5.1,11.35 C5.1,12.28 5.28,13.18 5.64,14.03 C5.8,14.41 5.62,14.85 5.24,15.01 C5.15,15.06 5.05,15.08 4.95,15.08 Z"/>
  <path fill="#292D32" d="M3.919,19.74 C3.729,19.74 3.539,19.67 3.389,19.52 C3.099,19.23 3.099,18.75 3.389,18.46 L19.539,2.31 C19.829,2.02 20.309,2.02 20.599,2.31 C20.889,2.6 20.889,3.08 20.599,3.37 L4.459,19.52 C4.309,19.67 4.119,19.74 3.919,19.74 Z"/>
  <path fill="#292D32" d="M11,6.75 C10.59,6.75 10.25,6.41 10.25,6 L10.25,3 C10.25,2.59 10.59,2.25 11,2.25 C11.41,2.25 11.75,2.59 11.75,3 L11.75,6 C11.75,6.41 11.41,6.75 11,6.75 Z"/>
  <path fill="#292D32" d="M12,22.75 C11.59,22.75 11.25,22.41 11.25,22 L11.25,19 C11.25,18.59 11.59,18.25 12,18.25 C12.41,18.25 12.75,18.59 12.75,19 L12.75,22 C12.75,22.41 12.41,22.75 12,22.75 Z"/>
</svg>

