<svg xmlns="http://www.w3.org/2000/svg" width="24" height="24" viewBox="0 0 24 24">
  <defs/>
  <path fill="#292D32" opacity="0.4" d="M12,21.93 C6.96,21.93 2.85,17.83 2.85,12.78 L2.85,10.9 C2.85,10.51 3.17,10.2 3.55,10.2 C3.93,10.2 4.25,10.52 4.25,10.9 L4.25,12.78 C4.25,17.05 7.72,20.52 11.99,20.52 C16.26,20.52 19.73,17.05 19.73,12.78 L19.73,10.9 C19.73,10.51 20.05,10.2 20.43,10.2 C20.81,10.2 21.13,10.52 21.13,10.9 L21.13,12.78 C21.15,17.83 17.04,21.93 12,21.93 Z"/>
  <path fill="#292D32" d="M12,2 C8.64,2 5.9,4.74 5.9,8.1 L5.9,12.79 C5.9,16.15 8.64,18.89 12,18.89 C15.36,18.89 18.1,16.15 18.1,12.79 L18.1,8.1 C18.1,4.74 15.36,2 12,2 Z M14.18,10.59 C14.11,10.86 13.86,11.04 13.59,11.04 C13.54,11.04 13.48,11.03 13.43,11.02 C12.41,10.74 11.33,10.74 10.31,11.02 C9.98,11.11 9.65,10.92 9.56,10.59 C9.47,10.27 9.66,9.93 9.99,9.84 C11.22,9.5 12.52,9.5 13.75,9.84 C14.08,9.93 14.27,10.26 14.18,10.59 Z M15.03,7.82 C14.94,8.07 14.71,8.22 14.46,8.22 C14.39,8.22 14.32,8.21 14.25,8.18 C12.72,7.62 11.04,7.62 9.51,8.18 C9.19,8.3 8.84,8.14 8.72,7.82 C8.61,7.51 8.77,7.16 9.09,7.04 C10.89,6.39 12.87,6.39 14.66,7.04 C14.98,7.16 15.14,7.51 15.03,7.82 Z"/>
</svg>

