<svg xmlns="http://www.w3.org/2000/svg" width="24" height="24" viewBox="0 0 24 24">
  <defs/>
  <path fill="#292D32" d="M6.75,12 L6.75,13 Q6.75,15.172 8.289,16.711 Q9.828,18.25 12,18.25 Q14.172,18.25 15.711,16.711 Q17.25,15.172 17.25,13 L17.25,8 Q17.25,5.828 15.711,4.289 Q14.172,2.75 12,2.75 Q9.828,2.75 8.289,4.289 Q6.75,5.828 6.75,8 Q6.75,8.311 6.53,8.53 Q6.311,8.75 6,8.75 Q5.689,8.75 5.47,8.53 Q5.25,8.311 5.25,8 Q5.25,5.207 7.228,3.228 Q9.207,1.25 12,1.25 Q14.793,1.25 16.772,3.228 Q18.75,5.207 18.75,8 L18.75,13 Q18.75,15.793 16.772,17.772 Q14.793,19.75 12,19.75 Q9.207,19.75 7.228,17.772 Q5.25,15.793 5.25,13 L5.25,12 Q5.25,11.689 5.47,11.47 Q5.689,11.25 6,11.25 Q6.311,11.25 6.53,11.47 Q6.75,11.689 6.75,12 Z"/>
  <path fill="#292D32" d="M3.75,11 L3.75,13 Q3.75,16.417 6.167,18.833 Q8.583,21.25 12,21.25 Q15.417,21.25 17.833,18.833 Q20.25,16.417 20.25,13 L20.25,11 Q20.25,10.689 20.47,10.47 Q20.689,10.25 21,10.25 Q21.311,10.25 21.53,10.47 Q21.75,10.689 21.75,11 L21.75,13 Q21.75,17.038 18.894,19.894 Q16.038,22.75 12,22.75 Q7.962,22.75 5.106,19.894 Q2.25,17.038 2.25,13 L2.25,11 Q2.25,10.689 2.47,10.47 Q2.689,10.25 3,10.25 Q3.311,10.25 3.53,10.47 Q3.75,10.689 3.75,11 Z"/>
  <path fill="#292D32" d="M8.852,6.776 Q11.859,5.678 14.867,6.776 Q15.158,6.882 15.289,7.164 Q15.42,7.446 15.314,7.737 Q15.207,8.029 14.926,8.16 Q14.644,8.291 14.352,8.185 Q11.859,7.274 9.367,8.185 Q9.075,8.291 8.793,8.16 Q8.511,8.029 8.405,7.737 Q8.298,7.446 8.429,7.164 Q8.56,6.882 8.852,6.776 Z"/>
  <path fill="#292D32" d="M9.83,9.757 Q11.864,9.197 13.898,9.757 Q14.198,9.839 14.351,10.109 Q14.505,10.379 14.422,10.679 Q14.34,10.978 14.07,11.132 Q13.8,11.285 13.5,11.203 Q11.864,10.753 10.228,11.203 Q9.929,11.285 9.659,11.132 Q9.389,10.978 9.306,10.679 Q9.224,10.379 9.377,10.109 Q9.531,9.839 9.83,9.757 Z"/>
</svg>

