<svg xmlns="http://www.w3.org/2000/svg" width="24" height="24" viewBox="0 0 24 24">
  <defs/>
  <path fill="#292D32" d="M6.75,12 L6.75,13 Q6.75,14.906 7.965,16.359 Q8.165,16.597 8.137,16.906 Q8.11,17.216 7.871,17.415 Q7.633,17.615 7.324,17.587 Q7.014,17.56 6.815,17.321 Q5.25,15.451 5.25,13 L5.25,12 Q5.25,11.689 5.47,11.47 Q5.689,11.25 6,11.25 Q6.311,11.25 6.53,11.47 Q6.75,11.689 6.75,12 Z"/>
  <path fill="#292D32" d="M17.093,6.715 Q16.087,2.75 12,2.75 Q9.828,2.75 8.289,4.289 Q6.75,5.828 6.75,8 Q6.75,8.311 6.53,8.53 Q6.311,8.75 6,8.75 Q5.689,8.75 5.47,8.53 Q5.25,8.311 5.25,8 Q5.25,5.207 7.228,3.228 Q9.207,1.25 12,1.25 Q17.253,1.25 18.547,6.345 Q18.623,6.647 18.465,6.914 Q18.306,7.181 18.005,7.257 Q17.703,7.333 17.436,7.175 Q17.169,7.016 17.093,6.715 Z"/>
  <path fill="#292D32" d="M18.75,9.98 L18.75,13 Q18.75,15.793 16.771,17.772 Q14.793,19.75 12,19.75 Q10.771,19.75 9.657,19.332 Q9.366,19.223 9.237,18.94 Q9.109,18.658 9.218,18.367 Q9.327,18.076 9.61,17.947 Q9.892,17.819 10.183,17.928 Q11.043,18.25 12,18.25 Q14.172,18.25 15.711,16.711 Q17.25,15.172 17.25,13 L17.25,9.98 Q17.25,9.669 17.47,9.45 Q17.689,9.23 18,9.23 Q18.311,9.23 18.53,9.45 Q18.75,9.669 18.75,9.98 Z"/>
  <path fill="#292D32" d="M6.371,19.031 Q8.752,21.25 11.999,21.25 Q15.416,21.25 17.833,18.833 Q20.249,16.417 20.249,13 L20.249,11 Q20.249,10.689 20.469,10.47 Q20.689,10.25 20.999,10.25 Q21.31,10.25 21.53,10.47 Q21.749,10.689 21.749,11 L21.749,13 Q21.749,17.038 18.893,19.894 Q16.038,22.75 11.999,22.75 Q8.162,22.75 5.348,20.129 Q5.121,19.917 5.11,19.607 Q5.099,19.296 5.311,19.069 Q5.522,18.841 5.833,18.83 Q6.143,18.819 6.371,19.031 Z"/>
  <path fill="#292D32" d="M22.03,3.521 L3.03,22.521 Q2.811,22.74 2.5,22.74 Q2.189,22.74 1.97,22.521 Q1.75,22.301 1.75,21.99 Q1.75,21.68 1.97,21.46 L20.97,2.46 Q21.189,2.24 21.5,2.24 Q21.811,2.24 22.03,2.46 Q22.25,2.68 22.25,2.99 Q22.25,3.301 22.03,3.521 Z"/>
  <path fill="#292D32" d="M10.801,5.5 L10.801,2.26 Q10.801,1.949 11.02,1.729 Q11.24,1.51 11.551,1.51 Q11.861,1.51 12.081,1.729 Q12.301,1.949 12.301,2.26 L12.301,5.5 Q12.301,5.81 12.081,6.03 Q11.861,6.25 11.551,6.25 Q11.24,6.25 11.02,6.03 Q10.801,5.81 10.801,5.5 Z"/>
  <path fill="#292D32" d="M9.25,3.5 L9.25,7.5 Q9.25,7.811 9.03,8.03 Q8.811,8.25 8.5,8.25 Q8.189,8.25 7.97,8.03 Q7.75,7.811 7.75,7.5 L7.75,3.5 Q7.75,3.189 7.97,2.97 Q8.189,2.75 8.5,2.75 Q8.811,2.75 9.03,2.97 Q9.25,3.189 9.25,3.5 Z"/>
</svg>

