<svg xmlns="http://www.w3.org/2000/svg" width="24" height="24" viewBox="0 0 24 24">
  <defs/>
  <path fill="#292D32" d="M12,16.25 Q10.032,16.25 8.641,14.859 Q7.25,13.468 7.25,11.5 L7.25,6 Q7.25,4.032 8.641,2.641 Q10.032,1.25 12,1.25 Q13.968,1.25 15.359,2.641 Q16.75,4.032 16.75,6 L16.75,11.5 Q16.75,13.468 15.359,14.859 Q13.968,16.25 12,16.25 Z M12,14.75 Q13.347,14.75 14.298,13.798 Q15.25,12.847 15.25,11.5 L15.25,6 Q15.25,2.75 12,2.75 Q8.75,2.75 8.75,6 L8.75,11.5 Q8.75,14.75 12,14.75 Z"/>
  <path fill="#292D32" d="M5.1,9.65 L5.1,11.35 Q5.1,14.204 7.123,16.227 Q9.146,18.25 12,18.25 Q14.854,18.25 16.877,16.227 Q18.9,14.204 18.9,11.35 L18.9,9.65 Q18.9,9.339 19.12,9.12 Q19.339,8.9 19.65,8.9 Q19.961,8.9 20.18,9.12 Q20.4,9.339 20.4,9.65 L20.4,11.35 Q20.4,14.826 17.938,17.288 Q15.476,19.75 12,19.75 Q8.524,19.75 6.062,17.288 Q3.6,14.826 3.6,11.35 L3.6,9.65 Q3.6,9.339 3.82,9.12 Q4.039,8.9 4.35,8.9 Q4.661,8.9 4.88,9.12 Q5.1,9.339 5.1,9.65 Z"/>
  <path fill="#292D32" d="M10.352,5.726 Q12,5.122 13.648,5.726 Q13.94,5.833 14.071,6.115 Q14.201,6.397 14.094,6.688 Q13.987,6.98 13.705,7.111 Q13.424,7.241 13.132,7.134 Q12,6.719 10.868,7.134 Q10.577,7.241 10.295,7.111 Q10.013,6.98 9.906,6.688 Q9.799,6.397 9.93,6.115 Q10.06,5.833 10.352,5.726 Z"/>
  <path fill="#292D32" d="M11.008,7.825 Q12.005,7.562 13.002,7.825 Q13.302,7.904 13.458,8.173 Q13.614,8.441 13.535,8.742 Q13.456,9.042 13.187,9.198 Q12.919,9.355 12.618,9.275 Q12.005,9.113 11.392,9.275 Q11.091,9.355 10.823,9.198 Q10.554,9.042 10.475,8.742 Q10.396,8.441 10.552,8.173 Q10.708,7.904 11.008,7.825 Z"/>
  <path fill="#292D32" d="M12.75,19 L12.75,22 Q12.75,22.311 12.53,22.53 Q12.311,22.75 12,22.75 Q11.689,22.75 11.47,22.53 Q11.25,22.311 11.25,22 L11.25,19 Q11.25,18.689 11.47,18.47 Q11.689,18.25 12,18.25 Q12.311,18.25 12.53,18.47 Q12.75,18.689 12.75,19 Z"/>
</svg>

