<svg xmlns="http://www.w3.org/2000/svg" width="24" height="24" viewBox="0 0 24 24">
  <defs/>
  <path fill="#292D32" d="M14.841,10.899 L20.501,7.109 C21.071,6.729 21.221,5.949 20.841,5.389 L19.021,2.679 C18.641,2.109 17.861,1.959 17.301,2.339 L11.641,6.129 L14.841,10.899 Z"/>
  <path fill="#292D32" d="M14.52,10.422 L12.76,11.602 L10.09,13.392 L9.74,13.622 L9.58,13.382 L7.34,10.042 L7.18,9.802 L11.96,6.602 L14.52,10.422 Z"/>
  <path fill="#292D32" d="M5.639,16.019 L9.589,13.379 L7.349,10.039 L3.399,12.679 C2.939,12.989 2.819,13.609 3.129,14.069 L4.259,15.749 C4.559,16.209 5.179,16.329 5.639,16.019 Z"/>
  <path fill="#292D32" d="M16.559,21.812 C16.459,21.852 16.349,21.882 16.249,21.882 C15.959,21.882 15.689,21.712 15.559,21.432 L11.829,13.192 L8.049,21.442 C7.919,21.712 7.649,21.882 7.359,21.882 C7.259,21.882 7.149,21.852 7.049,21.812 C6.679,21.632 6.509,21.192 6.679,20.812 L10.089,13.392 L12.759,11.602 L16.929,20.822 C17.099,21.192 16.929,21.642 16.559,21.812 Z"/>
</svg>

