<svg xmlns="http://www.w3.org/2000/svg" width="24" height="24" viewBox="0 0 24 24">
  <defs/>
  <path fill="#292D32" d="M15,22.75 L9,22.75 C6.93,22.75 5.25,21.07 5.25,19 L5.25,13.98 C5.25,13.78 5.33,13.59 5.47,13.45 C5.61,13.31 5.8,13.23 6,13.23 L9.89,13.25 C10.73,13.25 11.57,13.45 12.33,13.83 C12.89,14.11 13.49,14.25 14.12,14.25 L18,14.25 C18.41,14.25 18.75,14.59 18.75,15 L18.75,19 C18.75,21.07 17.07,22.75 15,22.75 Z M6.75,14.73 L6.75,19 C6.75,20.24 7.76,21.25 9,21.25 L15,21.25 C16.24,21.25 17.25,20.24 17.25,19 L17.25,15.75 L14.12,15.75 C13.26,15.75 12.43,15.56 11.66,15.17 C11.1,14.89 10.5,14.75 9.89,14.75 L6.75,14.73 Z"/>
  <path fill="#292D32" d="M18,15.75 L14.12,15.75 C13.26,15.75 12.43,15.56 11.66,15.17 C11.1,14.89 10.5,14.75 9.89,14.75 L6,14.73 C5.59,14.73 5.25,14.39 5.25,13.98 L5.25,10.83 C5.25,10.17 5.59,9.35 6.06,8.88 L8.18,6.76 C8.22,6.72 8.25,6.65 8.25,6.59 L8.25,5 C8.25,4.59 8.59,4.25 9,4.25 L15,4.25 C15.41,4.25 15.75,4.59 15.75,5 L15.75,6.59 C15.75,6.65 15.78,6.72 15.82,6.76 L17.94,8.88 C18.41,9.35 18.75,10.17 18.75,10.83 L18.75,15 C18.75,15.41 18.41,15.75 18,15.75 Z M6.75,13.23 L9.89,13.25 C10.73,13.25 11.57,13.45 12.33,13.83 C12.89,14.11 13.49,14.25 14.12,14.25 L17.25,14.25 L17.25,10.83 C17.25,10.57 17.07,10.13 16.88,9.94 L14.76,7.82 C14.44,7.5 14.25,7.05 14.25,6.59 L14.25,5.75 L9.75,5.75 L9.75,6.59 C9.75,7.05 9.56,7.5 9.24,7.82 L7.12,9.94 C6.93,10.13 6.75,10.57 6.75,10.83 L6.75,13.23 Z"/>
  <path fill="#292D32" d="M18,16.75 C17.59,16.75 17.25,16.41 17.25,16 L17.25,15 C17.25,14.59 17.59,14.25 18,14.25 C18.41,14.25 18.75,14.59 18.75,15 L18.75,16 C18.75,16.41 18.41,16.75 18,16.75 Z"/>
  <path fill="#292D32" d="M6,15.73 C5.59,15.73 5.25,15.39 5.25,14.98 L5.25,13.98 C5.25,13.57 5.59,13.23 6,13.23 C6.41,13.23 6.75,13.57 6.75,13.98 L6.75,14.98 C6.75,15.39 6.41,15.73 6,15.73 Z"/>
  <path fill="#292D32" d="M14.5,5.75 L9.5,5.75 C8.26,5.75 7.25,4.74 7.25,3.5 C7.25,2.26 8.26,1.25 9.5,1.25 L14.5,1.25 C15.74,1.25 16.75,2.26 16.75,3.5 C16.75,4.74 15.74,5.75 14.5,5.75 Z M9.5,2.75 C9.09,2.75 8.75,3.09 8.75,3.5 C8.75,3.91 9.09,4.25 9.5,4.25 L14.5,4.25 C14.91,4.25 15.25,3.91 15.25,3.5 C15.25,3.09 14.91,2.75 14.5,2.75 L9.5,2.75 Z"/>
</svg>

