<svg xmlns="http://www.w3.org/2000/svg" width="24" height="24" viewBox="0 0 24 24">
  <defs/>
  <path fill="#292D32" d="M18,15 L18,19 C18,20.65 16.65,22 15,22 L9,22 C7.35,22 6,20.65 6,19 L6,13.98 L9.89,14 C10.62,14 11.34,14.17 12,14.5 C12.66,14.83 13.38,15 14.12,15 L18,15 Z"/>
  <path fill="#292D32" opacity="0.4" d="M18,10.83 L18,15 L14.12,15 C13.38,15 12.66,14.83 12,14.5 C11.34,14.17 10.62,14 9.89,14 L6,13.98 L6,10.83 C6,10.37 6.26,9.74 6.59,9.41 L8.71,7.29 C8.89,7.11 9,6.85 9,6.59 L9,4.91 C9.16,4.97 9.32,5 9.5,5 L14.5,5 C14.68,5 14.84,4.97 15,4.91 L15,6.59 C15,6.85 15.11,7.11 15.29,7.29 L17.41,9.41 C17.74,9.74 18,10.37 18,10.83 Z"/>
  <path fill="#292D32" d="M14.5,2 L9.5,2 C8.67,2 8,2.67 8,3.5 C8,4.15 8.42,4.71 9,4.91 C9.16,4.97 9.32,5 9.5,5 L14.5,5 C14.68,5 14.84,4.97 15,4.91 C15.58,4.71 16,4.15 16,3.5 C16,2.67 15.33,2 14.5,2 Z"/>
</svg>

