<svg xmlns="http://www.w3.org/2000/svg" width="24" height="24" viewBox="0 0 24 24">
  <defs/>
  <path fill="#292D32" d="M18,15.998 L18,18.998 C18,20.648 16.65,21.998 15,21.998 L9,21.998 C7.35,21.998 6,20.648 6,18.998 L6,14.988 C6,14.438 6.45,13.988 7.01,13.988 L9.89,13.998 C10.58,13.998 11.26,14.148 11.89,14.448 C12.58,14.768 13.31,14.998 14.08,14.998 L17,14.998 C17.55,14.998 18,15.448 18,15.998 Z"/>
  <path fill="#292D32" d="M17.41,9.41 L15.29,7.29 C15.1,7.1 15,6.85 15,6.59 L15,4.91 C15.58,4.71 16,4.15 16,3.5 C16,2.67 15.33,2 14.5,2 L9.5,2 C8.67,2 8,2.67 8,3.5 C8,4.15 8.42,4.71 9,4.91 L9,6.59 C9,6.85 8.9,7.1 8.71,7.29 L6.59,9.41 C6.27,9.73 6,10.38 6,10.83 L6,11.48 C6,12.03 6.44,12.48 6.99,12.48 L9.9,12.5 C10.88,12.5 11.87,12.74 12.75,13.2 C13.17,13.42 13.65,13.5 14.12,13.5 L17,13.5 C17.55,13.5 18,13.05 18,12.5 L18,10.83 C18,10.38 17.73,9.73 17.41,9.41 Z"/>
</svg>

