<svg xmlns="http://www.w3.org/2000/svg" width="24" height="24" viewBox="0 0 24 24">
  <defs/>
  <path fill="#292D32" d="M18.75,15 L18.75,19 Q18.75,22.75 15,22.75 L9,22.75 Q5.25,22.75 5.25,19 L5.25,13.98 Q5.25,13.669 5.47,13.45 Q5.689,13.23 6,13.23 L6.004,13.23 L9.894,13.25 Q11.177,13.25 12.335,13.829 Q13.177,14.25 14.12,14.25 L18,14.25 Q18.311,14.25 18.53,14.47 Q18.75,14.689 18.75,15 Z M17.25,15.75 L14.12,15.75 Q12.823,15.75 11.665,15.171 Q10.823,14.75 9.886,14.75 L6.75,14.734 L6.75,19 Q6.75,21.25 9,21.25 L15,21.25 Q17.25,21.25 17.25,19 L17.25,15.75 Z"/>
  <path fill="#292D32" d="M18.75,10.83 L18.75,15 Q18.75,15.311 18.53,15.53 Q18.311,15.75 18,15.75 L14.12,15.75 Q12.823,15.75 11.665,15.171 Q10.823,14.75 9.89,14.75 L5.996,14.73 Q5.687,14.728 5.468,14.509 Q5.25,14.29 5.25,13.98 L5.25,10.83 Q5.25,9.689 6.06,8.88 L8.18,6.76 Q8.25,6.689 8.25,6.59 L8.25,5 Q8.25,4.689 8.47,4.47 Q8.689,4.25 9,4.25 L15,4.25 Q15.311,4.25 15.53,4.47 Q15.75,4.689 15.75,5 L15.75,6.59 Q15.75,6.689 15.82,6.76 L17.94,8.88 Q18.75,9.689 18.75,10.83 Z M17.25,10.83 Q17.25,10.311 16.88,9.94 L14.76,7.82 Q14.25,7.311 14.25,6.59 L14.25,5.75 L9.75,5.75 L9.75,6.59 Q9.75,7.311 9.24,7.82 L7.12,9.94 Q6.75,10.311 6.75,10.83 L6.75,13.234 L9.89,13.25 Q11.177,13.25 12.335,13.829 Q13.177,14.25 14.12,14.25 L17.25,14.25 Z"/>
  <path fill="#292D32" d="M17.25,16 L17.25,15 Q17.25,14.689 17.47,14.47 Q17.689,14.25 18,14.25 Q18.311,14.25 18.53,14.47 Q18.75,14.689 18.75,15 L18.75,16 Q18.75,16.311 18.53,16.53 Q18.311,16.75 18,16.75 Q17.689,16.75 17.47,16.53 Q17.25,16.311 17.25,16 Z"/>
  <path fill="#292D32" d="M5.25,14.98 L5.25,13.98 Q5.25,13.669 5.47,13.45 Q5.689,13.23 6,13.23 Q6.311,13.23 6.53,13.45 Q6.75,13.669 6.75,13.98 L6.75,14.98 Q6.75,15.291 6.53,15.51 Q6.311,15.73 6,15.73 Q5.689,15.73 5.47,15.51 Q5.25,15.291 5.25,14.98 Z"/>
  <path fill="#292D32" d="M14.5,5.75 L9.5,5.75 Q7.25,5.75 7.25,3.5 Q7.25,1.25 9.5,1.25 L14.5,1.25 Q16.75,1.25 16.75,3.5 Q16.75,5.75 14.5,5.75 Z M14.5,4.25 Q15.25,4.25 15.25,3.5 Q15.25,2.75 14.5,2.75 L9.5,2.75 Q8.75,2.75 8.75,3.5 Q8.75,4.25 9.5,4.25 Z"/>
</svg>

