<svg xmlns="http://www.w3.org/2000/svg" width="24" height="24" viewBox="0 0 24 24">
  <defs/>
  <path fill="#292D32" opacity="0.4" d="M20.71,17.52 C20.34,18.74 19.61,19.68 18.57,20.26 C18.53,20.1 18.51,19.93 18.51,19.76 C18.51,18.54 19.5,17.54 20.71,17.52 Z"/>
  <path fill="#292D32" opacity="0.4" d="M21,7.52 L21,15.48 C21,15.7 20.99,15.91 20.98,16.12 L17.53,17.07 L17.53,20.71 C17.06,20.86 16.55,20.95 15.99,20.98 C16.02,20.91 16.03,20.84 16.03,20.76 C16.03,20.35 15.69,20.02 15.29,20.02 C14.88,20.02 14.54,20.35 14.54,20.76 C14.54,20.84 14.55,20.93 14.59,21 L7.52,21 C4.07,21 2,18.94 2,15.48 L2,7.52 C2,4.06 4.07,2 7.52,2 L15.48,2 C18.93,2 21,4.06 21,7.52 Z"/>
  <path fill="#292D32" d="M22.309,12.25 C22.049,12.06 21.629,11.86 20.999,11.92 C20.839,11.93 20.669,11.96 20.479,12.01 L17.499,12.83 C16.609,13.06 16.029,13.81 16.029,14.74 L16.029,18.65 C15.799,18.57 15.549,18.52 15.289,18.52 C14.049,18.52 13.039,19.52 13.039,20.76 C13.039,20.84 13.039,20.92 13.049,21 C13.169,22.12 14.129,23 15.289,23 C16.509,23 17.499,22.01 17.519,20.8 C17.519,20.78 17.529,20.77 17.529,20.76 L17.529,17.07 L20.979,16.12 L21.499,15.98 L21.499,17.66 C21.269,17.58 21.019,17.52 20.749,17.52 L20.709,17.52 C19.499,17.54 18.509,18.54 18.509,19.76 C18.509,19.93 18.529,20.1 18.569,20.26 C18.799,21.26 19.689,22.01 20.749,22.01 C21.979,22.01 22.969,21.02 22.989,19.8 C22.989,19.79 22.999,19.78 22.999,19.76 L22.999,13.93 C22.999,13.17 22.769,12.61 22.309,12.25 Z M15.289,21.5 C14.959,21.5 14.679,21.29 14.589,21 C14.549,20.93 14.539,20.84 14.539,20.76 C14.539,20.35 14.879,20.02 15.289,20.02 C15.689,20.02 16.029,20.35 16.029,20.76 C16.029,20.84 16.019,20.91 15.989,20.98 C15.899,21.28 15.619,21.5 15.289,21.5 Z M20.749,20.51 C20.349,20.51 20.009,20.17 20.009,19.76 C20.009,19.36 20.349,19.02 20.749,19.02 C21.159,19.02 21.499,19.36 21.499,19.76 C21.499,20.17 21.159,20.51 20.749,20.51 Z"/>
</svg>

