<svg xmlns="http://www.w3.org/2000/svg" width="24" height="24" viewBox="0 0 24 24">
  <defs/>
  <path fill="#292D32" opacity="0.4" d="M20.712,17.52 C20.342,18.739 19.612,19.68 18.572,20.259 C18.532,20.099 18.512,19.93 18.512,19.759 C18.512,18.54 19.502,17.54 20.712,17.52 Z"/>
  <path fill="#292D32" d="M21,7.52 L21,9.484 C21,10.007 20.586,10.429 20.08,10.56 L17.13,11.38 C15.57,11.78 14.53,13.13 14.53,14.74 L14.53,16.285 C14.53,16.759 14.187,17.156 13.761,17.364 C12.746,17.862 11.97,18.871 11.677,20.011 C11.54,20.546 11.102,21 10.55,21 L7.52,21 C4.07,21 2,18.94 2,15.48 L2,7.52 C2,4.06 4.07,2 7.52,2 L15.48,2 C18.93,2 21,4.06 21,7.52 Z"/>
  <path fill="#292D32" d="M22.309,12.251 C22.049,12.061 21.629,11.861 20.999,11.921 C20.839,11.931 20.669,11.961 20.479,12.011 L17.499,12.831 C16.609,13.061 16.029,13.811 16.029,14.741 L16.029,18.651 C15.799,18.571 15.549,18.521 15.289,18.521 C14.049,18.521 13.039,19.521 13.039,20.761 C13.039,20.841 13.039,20.921 13.049,21.001 C13.169,22.121 14.129,23.001 15.289,23.001 C16.509,23.001 17.499,22.011 17.519,20.801 C17.519,20.781 17.529,20.771 17.529,20.761 L17.529,17.071 L20.979,16.121 L21.499,15.981 L21.499,17.661 C21.269,17.581 21.019,17.521 20.749,17.521 L20.709,17.521 C19.499,17.541 18.509,18.541 18.509,19.761 C18.509,19.931 18.529,20.101 18.569,20.261 C18.799,21.261 19.689,22.011 20.749,22.011 C21.979,22.011 22.969,21.021 22.989,19.801 C22.989,19.791 22.999,19.781 22.999,19.761 L22.999,13.931 C22.999,13.171 22.769,12.611 22.309,12.251 Z M15.289,21.501 C14.959,21.501 14.679,21.291 14.589,21.001 C14.549,20.931 14.539,20.841 14.539,20.761 C14.539,20.351 14.879,20.021 15.289,20.021 C15.689,20.021 16.029,20.351 16.029,20.761 C16.029,20.841 16.019,20.911 15.989,20.981 C15.899,21.281 15.619,21.501 15.289,21.501 Z M20.749,20.511 C20.349,20.511 20.009,20.171 20.009,19.761 C20.009,19.361 20.349,19.021 20.749,19.021 C21.159,19.021 21.499,19.361 21.499,19.761 C21.499,20.171 21.159,20.511 20.749,20.511 Z"/>
</svg>

