<svg xmlns="http://www.w3.org/2000/svg" width="24" height="24" viewBox="0 0 24 24">
  <defs/>
  <path fill="#292D32" d="M11,22.75 L9,22.75 C3.57,22.75 1.25,20.43 1.25,15 L1.25,9 C1.25,3.57 3.57,1.25 9,1.25 L15,1.25 C20.43,1.25 22.75,3.57 22.75,9 L22.75,10 C22.75,10.41 22.41,10.75 22,10.75 C21.59,10.75 21.25,10.41 21.25,10 L21.25,9 C21.25,4.39 19.61,2.75 15,2.75 L9,2.75 C4.39,2.75 2.75,4.39 2.75,9 L2.75,15 C2.75,19.61 4.39,21.25 9,21.25 L11,21.25 C11.41,21.25 11.75,21.59 11.75,22 C11.75,22.41 11.41,22.75 11,22.75 Z"/>
  <path fill="#292D32" d="M15.27,22.75 C14.06,22.75 13.08,21.77 13.08,20.56 C13.08,19.35 14.06,18.37 15.27,18.37 C16.48,18.37 17.46,19.35 17.46,20.56 C17.46,21.77 16.48,22.75 15.27,22.75 Z M15.27,19.86 C14.89,19.86 14.58,20.17 14.58,20.55 C14.58,20.93 14.89,21.24 15.27,21.24 C15.65,21.24 15.96,20.93 15.96,20.55 C15.96,20.17 15.65,19.86 15.27,19.86 Z"/>
  <path fill="#292D32" d="M16.711,21.31 C16.301,21.31 15.961,20.97 15.961,20.56 L15.961,14.74 C15.961,13.83 16.521,13.09 17.401,12.86 L20.291,12.07 C21.191,11.82 21.751,12.06 22.071,12.3 C22.381,12.54 22.751,13.02 22.751,13.95 L22.751,19.59 C22.751,20 22.411,20.34 22.001,20.34 C21.591,20.34 21.251,20 21.251,19.59 L21.251,13.95 C21.251,13.63 21.181,13.51 21.151,13.49 C21.121,13.47 20.981,13.43 20.671,13.51 L17.781,14.3 C17.481,14.38 17.451,14.59 17.451,14.74 L17.451,20.56 C17.461,20.97 17.121,21.31 16.711,21.31 Z"/>
  <path fill="#292D32" d="M20.561,21.79 C19.351,21.79 18.371,20.81 18.371,19.6 C18.371,18.39 19.351,17.41 20.561,17.41 C21.771,17.41 22.751,18.39 22.751,19.6 C22.751,20.81 21.771,21.79 20.561,21.79 Z M20.561,18.9 C20.181,18.9 19.871,19.21 19.871,19.59 C19.871,19.97 20.181,20.28 20.561,20.28 C20.941,20.28 21.251,19.97 21.251,19.59 C21.251,19.21 20.941,18.9 20.561,18.9 Z"/>
  <path fill="#292D32" d="M16.71,17.18 C16.38,17.18 16.08,16.96 15.99,16.63 C15.88,16.23 16.12,15.82 16.52,15.71 L21.81,14.27 C22.21,14.16 22.62,14.4 22.73,14.8 C22.84,15.2 22.6,15.61 22.2,15.72 L16.91,17.16 C16.84,17.17 16.77,17.18 16.71,17.18 Z"/>
</svg>

