<svg xmlns="http://www.w3.org/2000/svg" width="24" height="24" viewBox="0 0 24 24">
  <defs/>
  <path fill="#292D32" d="M8,11.25 L16,11.25 Q16.311,11.25 16.53,11.47 Q16.75,11.689 16.75,12 Q16.75,12.311 16.53,12.53 Q16.311,12.75 16,12.75 L8,12.75 Q7.689,12.75 7.47,12.53 Q7.25,12.311 7.25,12 Q7.25,11.689 7.47,11.47 Q7.689,11.25 8,11.25 Z"/>
  <path fill="#292D32" d="M9,22.75 Q1.25,22.75 1.25,15 L1.25,9 Q1.25,1.25 9,1.25 L15,1.25 Q22.75,1.25 22.75,9 L22.75,15 Q22.75,22.75 15,22.75 Z M9,21.25 L15,21.25 Q18.439,21.25 19.845,19.845 Q21.25,18.439 21.25,15 L21.25,9 Q21.25,2.75 15,2.75 L9,2.75 Q2.75,2.75 2.75,9 L2.75,15 Q2.75,18.439 4.155,19.845 Q5.561,21.25 9,21.25 Z"/>
</svg>

