<svg xmlns="http://www.w3.org/2000/svg" width="24" height="24" viewBox="0 0 24 24">
  <defs/>
  <path fill="#292D32" d="M16,11.25 L18,11.25 Q18.311,11.25 18.53,11.47 Q18.75,11.689 18.75,12 Q18.75,12.311 18.53,12.53 Q18.311,12.75 18,12.75 L16,12.75 Q15.689,12.75 15.47,12.53 Q15.25,12.311 15.25,12 Q15.25,11.689 15.47,11.47 Q15.689,11.25 16,11.25 Z"/>
  <path fill="#292D32" d="M6,11.25 L11.66,11.25 Q11.971,11.25 12.19,11.47 Q12.41,11.689 12.41,12 Q12.41,12.311 12.19,12.53 Q11.971,12.75 11.66,12.75 L6,12.75 Q5.689,12.75 5.47,12.53 Q5.25,12.311 5.25,12 Q5.25,11.689 5.47,11.47 Q5.689,11.25 6,11.25 Z"/>
</svg>

