<svg xmlns="http://www.w3.org/2000/svg" width="24" height="24" viewBox="0 0 24 24">
  <defs/>
  <path fill="#292D32" d="M11.92,22.75 C6,22.75 1.17,17.93 1.17,12 C1.17,6.07 6,1.25 11.92,1.25 C17.84,1.25 22.67,6.07 22.67,12 C22.67,17.93 17.85,22.75 11.92,22.75 Z M11.92,2.75 C6.82,2.75 2.67,6.9 2.67,12 C2.67,17.1 6.82,21.25 11.92,21.25 C17.02,21.25 21.17,17.1 21.17,12 C21.17,6.9 17.02,2.75 11.92,2.75 Z"/>
  <path fill="#292D32" d="M15.92,12.75 L7.92,12.75 C7.51,12.75 7.17,12.41 7.17,12 C7.17,11.59 7.51,11.25 7.92,11.25 L15.92,11.25 C16.33,11.25 16.67,11.59 16.67,12 C16.67,12.41 16.34,12.75 15.92,12.75 Z"/>
</svg>

