<svg xmlns="http://www.w3.org/2000/svg" width="24" height="24" viewBox="0 0 24 24">
  <defs/>
  <path fill="#292D32" d="M1.25,9 L1.25,8 Q1.25,2.25 7,2.25 L17,2.25 Q22.75,2.25 22.75,8 L22.75,16 Q22.75,21.75 17,21.75 L16,21.75 Q15.689,21.75 15.47,21.53 Q15.25,21.311 15.25,21 Q15.25,20.689 15.47,20.47 Q15.689,20.25 16,20.25 L17,20.25 Q21.25,20.25 21.25,16 L21.25,8 Q21.25,3.75 17,3.75 L7,3.75 Q2.75,3.75 2.75,8 L2.75,9 Q2.75,9.311 2.53,9.53 Q2.311,9.75 2,9.75 Q1.689,9.75 1.47,9.53 Q1.25,9.311 1.25,9 Z"/>
  <path fill="#292D32" d="M3.785,10.966 Q11.977,12.012 13.044,20.223 Q13.084,20.531 12.894,20.778 Q12.705,21.024 12.396,21.064 Q12.088,21.104 11.842,20.914 Q11.596,20.725 11.556,20.417 Q10.639,13.354 3.595,12.454 Q3.287,12.415 3.097,12.169 Q2.907,11.923 2.946,11.615 Q2.985,11.307 3.231,11.117 Q3.477,10.927 3.785,10.966 Z"/>
  <path fill="#292D32" d="M2.714,14.326 Q8.881,15.108 9.684,21.293 Q9.724,21.602 9.534,21.848 Q9.345,22.094 9.037,22.134 Q8.728,22.174 8.482,21.984 Q8.236,21.795 8.196,21.487 Q7.543,16.45 2.526,15.814 Q2.217,15.775 2.027,15.529 Q1.837,15.284 1.876,14.976 Q1.915,14.667 2.161,14.477 Q2.406,14.287 2.714,14.326 Z"/>
  <path fill="#292D32" d="M2.077,18.116 Q5.448,18.555 5.884,21.924 Q5.924,22.232 5.734,22.478 Q5.544,22.724 5.236,22.764 Q4.928,22.804 4.682,22.614 Q4.436,22.424 4.396,22.116 Q4.109,19.893 1.883,19.604 Q1.575,19.564 1.386,19.317 Q1.196,19.071 1.236,18.763 Q1.276,18.455 1.523,18.266 Q1.769,18.076 2.077,18.116 Z"/>
</svg>

