<svg xmlns="http://www.w3.org/2000/svg" width="24" height="24" viewBox="0 0 24 24">
  <defs/>
  <path fill="#292D32" d="M17,21.75 L16,21.75 C15.59,21.75 15.25,21.41 15.25,21 C15.25,20.59 15.59,20.25 16,20.25 L17,20.25 C19.58,20.25 21.25,18.58 21.25,16 L21.25,8 C21.25,5.42 19.58,3.75 17,3.75 L7,3.75 C4.42,3.75 2.75,5.42 2.75,8 L2.75,9 C2.75,9.41 2.41,9.75 2,9.75 C1.59,9.75 1.25,9.41 1.25,9 L1.25,8 C1.25,4.56 3.56,2.25 7,2.25 L17,2.25 C20.44,2.25 22.75,4.56 22.75,8 L22.75,16 C22.75,19.44 20.44,21.75 17,21.75 Z"/>
  <path fill="#292D32" d="M12.29,21.06 C11.92,21.06 11.6,20.78 11.55,20.41 C11,16.13 7.88,13 3.59,12.45 C3.18,12.4 2.89,12.02 2.94,11.61 C2.99,11.2 3.37,10.91 3.78,10.96 C8.76,11.6 12.4,15.23 13.03,20.21 C13.08,20.62 12.79,21 12.38,21.05 C12.36,21.06 12.32,21.06 12.29,21.06 Z"/>
  <path fill="#292D32" d="M8.93,22.13 C8.56,22.13 8.24,21.85 8.19,21.48 C7.8,18.43 5.57,16.2 2.52,15.81 C2.11,15.76 1.82,15.38 1.87,14.97 C1.92,14.56 2.3,14.27 2.71,14.32 C6.46,14.8 9.19,17.54 9.67,21.28 C9.72,21.69 9.43,22.07 9.02,22.12 C8.99,22.13 8.96,22.13 8.93,22.13 Z"/>
  <path fill="#292D32" d="M5.13,22.77 C4.76,22.77 4.44,22.49 4.39,22.12 C4.22,20.77 3.23,19.78 1.88,19.61 C1.47,19.56 1.18,19.18 1.23,18.77 C1.28,18.36 1.66,18.07 2.07,18.12 C4.09,18.38 5.62,19.91 5.88,21.93 C5.93,22.34 5.64,22.72 5.23,22.77 C5.2,22.77 5.17,22.77 5.13,22.77 Z"/>
</svg>

