<svg xmlns="http://www.w3.org/2000/svg" width="24" height="24" viewBox="0 0 24 24">
  <defs/>
  <path fill="#292D32" opacity="0.4" d="M2,9 L2,8 C2,5.24 4.24,3 7,3 L17,3 C19.76,3 22,5.24 22,8 L22,16 C22,18.76 19.76,21 17,21 L16,21 L7,21 C4.24,21 2,18.76 2,16 L2,9 Z"/>
  <path fill="#292D32" d="M16.138,15.44 C15.768,15.44 15.448,15.16 15.398,14.79 C14.968,11.41 12.508,8.95 9.128,8.52 C8.718,8.47 8.428,8.09 8.478,7.68 C8.528,7.27 8.908,6.98 9.318,7.03 C13.388,7.55 16.358,10.52 16.888,14.6 C16.938,15.01 16.648,15.39 16.238,15.44 C16.208,15.44 16.178,15.44 16.138,15.44 Z"/>
  <path fill="#292D32" d="M13.439,16.3 C13.069,16.3 12.749,16.02 12.699,15.65 C12.389,13.27 10.659,11.53 8.269,11.22 C7.859,11.17 7.569,10.79 7.619,10.38 C7.669,9.97 8.049,9.68 8.459,9.73 C11.539,10.13 13.789,12.37 14.189,15.46 C14.239,15.87 13.949,16.25 13.539,16.3 C13.509,16.3 13.469,16.3 13.439,16.3 Z"/>
  <path fill="#292D32" d="M10.389,16.81 C10.019,16.81 9.699,16.53 9.649,16.16 C9.519,15.14 8.779,14.4 7.759,14.27 C7.349,14.22 7.059,13.84 7.109,13.43 C7.159,13.02 7.539,12.73 7.949,12.78 C9.639,13 10.919,14.28 11.139,15.97 C11.189,16.38 10.899,16.76 10.489,16.81 C10.459,16.81 10.419,16.81 10.389,16.81 Z"/>
</svg>

