<svg xmlns="http://www.w3.org/2000/svg" width="24" height="24" viewBox="0 0 24 24">
  <defs/>
  <path fill="#292D32" d="M17,3 L7,3 C4.24,3 2,5.24 2,8 L2,9 L2,16 C2,18.76 4.24,21 7,21 L16,21 L17,21 C19.76,21 22,18.76 22,16 L22,8 C22,5.24 19.76,3 17,3 Z M10.49,16.81 C10.46,16.81 10.43,16.82 10.39,16.82 C10.02,16.82 9.7,16.54 9.65,16.17 C9.52,15.15 8.78,14.41 7.76,14.28 C7.35,14.23 7.06,13.85 7.11,13.44 C7.16,13.03 7.54,12.74 7.95,12.79 C9.64,13.01 10.92,14.29 11.14,15.98 C11.19,16.38 10.9,16.76 10.49,16.81 Z M13.54,16.3 C13.51,16.3 13.48,16.31 13.44,16.31 C13.07,16.31 12.75,16.03 12.7,15.66 C12.39,13.28 10.66,11.54 8.27,11.23 C7.86,11.18 7.57,10.8 7.62,10.39 C7.67,9.98 8.05,9.69 8.46,9.74 C11.54,10.14 13.79,12.38 14.19,15.47 C14.24,15.87 13.95,16.24 13.54,16.3 Z M16.24,15.43 C16.21,15.43 16.18,15.44 16.14,15.44 C15.77,15.44 15.45,15.16 15.4,14.79 C14.97,11.41 12.51,8.95 9.13,8.52 C8.72,8.47 8.43,8.09 8.48,7.68 C8.53,7.27 8.91,6.98 9.32,7.03 C13.39,7.55 16.36,10.52 16.89,14.6 C16.94,15.01 16.65,15.38 16.24,15.43 Z"/>
</svg>

