<svg xmlns="http://www.w3.org/2000/svg" width="24" height="24" viewBox="0 0 24 24">
  <defs/>
  <path fill="#292D32" d="M12,1.25 Q15.626,1.25 18.188,3.812 Q20.75,6.374 20.75,10 Q20.75,13.626 18.188,16.188 Q15.626,18.75 12,18.75 Q8.374,18.75 5.812,16.188 Q3.25,13.626 3.25,10 Q3.25,5.443 6.98,2.835 Q7.235,2.657 7.541,2.712 Q7.847,2.766 8.025,3.02 Q8.203,3.275 8.148,3.581 Q8.094,3.887 7.84,4.065 Q4.75,6.224 4.75,10 Q4.75,13.004 6.873,15.127 Q8.996,17.25 12,17.25 Q15.004,17.25 17.127,15.127 Q19.25,13.004 19.25,10 Q19.25,6.996 17.127,4.873 Q15.004,2.75 12,2.75 Q11.689,2.75 11.47,2.53 Q11.25,2.311 11.25,2 Q11.25,1.689 11.47,1.47 Q11.689,1.25 12,1.25 Z"/>
  <path fill="#292D32" d="M16,21.25 L18,21.25 Q18.311,21.25 18.53,21.47 Q18.75,21.689 18.75,22 Q18.75,22.311 18.53,22.53 Q18.311,22.75 18,22.75 L16,22.75 Q15.689,22.75 15.47,22.53 Q15.25,22.311 15.25,22 Q15.25,21.689 15.47,21.47 Q15.689,21.25 16,21.25 Z"/>
  <path fill="#292D32" d="M6,21.25 L13,21.25 Q13.311,21.25 13.53,21.47 Q13.75,21.689 13.75,22 Q13.75,22.311 13.53,22.53 Q13.311,22.75 13,22.75 L6,22.75 Q5.689,22.75 5.47,22.53 Q5.25,22.311 5.25,22 Q5.25,21.689 5.47,21.47 Q5.689,21.25 6,21.25 Z"/>
</svg>

