<svg xmlns="http://www.w3.org/2000/svg" width="24" height="24" viewBox="0 0 24 24">
  <defs/>
  <path fill="#292D32" d="M13.499,5.75 L10.479,5.75 C9.259,5.75 8.249,4.76 8.229,3.54 L8.199,2.01 C8.189,1.6 8.519,1.25 8.929,1.24 C8.939,1.24 8.939,1.24 8.949,1.24 C9.359,1.24 9.689,1.57 9.699,1.97 L9.729,3.5 C9.739,3.9 10.079,4.24 10.479,4.24 L13.499,4.24 C13.919,4.24 14.249,3.9 14.249,3.49 L14.249,2 C14.249,1.59 14.589,1.25 14.999,1.25 C15.409,1.25 15.749,1.59 15.749,2 L15.749,3.5 C15.749,4.74 14.739,5.75 13.499,5.75 Z"/>
  <path fill="#292D32" d="M17,21.75 C16.809,21.75 16.619,21.68 16.47,21.53 L14.47,19.53 C14.18,19.24 14.18,18.76 14.47,18.47 L16.47,16.47 C16.759,16.18 17.239,16.18 17.529,16.47 C17.82,16.76 17.82,17.24 17.529,17.53 L16.059,19 L17.529,20.47 C17.82,20.76 17.82,21.24 17.529,21.53 C17.38,21.68 17.189,21.75 17,21.75 Z"/>
  <path fill="#292D32" d="M20,21.75 C19.809,21.75 19.619,21.68 19.47,21.53 C19.18,21.24 19.18,20.76 19.47,20.47 L20.939,19 L19.47,17.53 C19.18,17.24 19.18,16.76 19.47,16.47 C19.759,16.18 20.239,16.18 20.529,16.47 L22.529,18.47 C22.82,18.76 22.82,19.24 22.529,19.53 L20.529,21.53 C20.38,21.68 20.189,21.75 20,21.75 Z"/>
  <path fill="#292D32" d="M13,22.75 L8,22.75 C4.35,22.75 2.25,20.65 2.25,17 L2.25,7 C2.25,3.35 4.35,1.25 8,1.25 L16,1.25 C19.65,1.25 21.75,3.35 21.75,7 L21.75,14 C21.75,14.41 21.41,14.75 21,14.75 C20.59,14.75 20.25,14.41 20.25,14 L20.25,7 C20.25,4.14 18.86,2.75 16,2.75 L8,2.75 C5.14,2.75 3.75,4.14 3.75,7 L3.75,17 C3.75,19.86 5.14,21.25 8,21.25 L13,21.25 C13.41,21.25 13.75,21.59 13.75,22 C13.75,22.41 13.41,22.75 13,22.75 Z"/>
</svg>

