<svg xmlns="http://www.w3.org/2000/svg" width="24" height="24" viewBox="0 0 24 24">
  <defs/>
  <path fill="#292D32" d="M18,13 C15.24,13 13,15.24 13,18 C13,20.76 15.24,23 18,23 C20.76,23 23,20.76 23,18 C23,15.24 20.76,13 18,13 Z M17.16,19.27 C17.41,19.52 17.41,19.93 17.16,20.19 C17.03,20.32 16.87,20.38 16.7,20.38 C16.53,20.38 16.37,20.32 16.24,20.19 L14.51,18.46 C14.26,18.21 14.26,17.8 14.51,17.54 L16.24,15.81 C16.49,15.56 16.9,15.56 17.16,15.81 C17.41,16.06 17.41,16.47 17.16,16.73 L15.89,18 L17.16,19.27 Z M21.48,18.46 L19.75,20.19 C19.62,20.32 19.46,20.38 19.29,20.38 C19.12,20.38 18.96,20.32 18.83,20.19 C18.58,19.94 18.58,19.53 18.83,19.27 L20.1,18 L18.83,16.73 C18.58,16.48 18.58,16.07 18.83,15.81 C19.08,15.56 19.49,15.56 19.75,15.81 L21.48,17.54 C21.73,17.8 21.73,18.2 21.48,18.46 Z"/>
  <path fill="#292D32" opacity="0.4" d="M21,7 L21,14 C20.17,13.37 19.13,13 18,13 C15.24,13 13,15.24 13,18 C13,19.63 13.79,21.09 15,22 L8,22 C4.5,22 3,20 3,17 L3,7 C3,4 4.5,2 8,2 L8.93,2 L8.97,3.53 C8.99,4.34 9.66,5 10.47,5 L13.5,5 C14.32,5 15,4.32 15,3.5 L15,2 L16,2 C19.5,2 21,4 21,7 Z"/>
  <path fill="#292D32" d="M15,2 L15,3.5 C15,4.32 14.32,5 13.5,5 L10.47,5 C9.66,5 8.99,4.34 8.97,3.53 L8.93,2 L15,2 Z"/>
</svg>

