<svg xmlns="http://www.w3.org/2000/svg" width="24" height="24" viewBox="0 0 24 24">
  <defs/>
  <path fill="#292D32" d="M18,13 C15.24,13 13,15.24 13,18 C13,20.76 15.24,23 18,23 C20.76,23 23,20.76 23,18 C23,15.24 20.76,13 18,13 Z M17.16,19.27 C17.41,19.52 17.41,19.93 17.16,20.19 C17.03,20.32 16.87,20.38 16.7,20.38 C16.53,20.38 16.37,20.32 16.24,20.19 L14.51,18.46 C14.26,18.21 14.26,17.8 14.51,17.54 L16.24,15.81 C16.49,15.56 16.9,15.56 17.16,15.81 C17.41,16.06 17.41,16.47 17.16,16.73 L15.89,18 L17.16,19.27 Z M21.48,18.46 L19.75,20.19 C19.62,20.32 19.46,20.38 19.29,20.38 C19.12,20.38 18.96,20.32 18.83,20.19 C18.58,19.94 18.58,19.53 18.83,19.27 L20.11,18 L18.84,16.73 C18.59,16.48 18.59,16.07 18.84,15.81 C19.09,15.56 19.5,15.56 19.76,15.81 L21.49,17.54 C21.73,17.8 21.73,18.2 21.48,18.46 Z"/>
  <path fill="#292D32" d="M21,7.001 L21,11.471 C21,11.821 20.66,12.061 20.34,11.941 C19.23,11.511 17.99,11.371 16.69,11.631 C14.09,12.151 12.02,14.281 11.59,16.901 C11.33,18.501 11.65,20.011 12.38,21.241 C12.58,21.581 12.34,22.001 11.95,22.001 L8,22.001 C4.5,22.001 3,20.001 3,17.001 L3,7.001 C3,4.341 4.18,2.471 6.89,2.081 C7.18,2.041 7.44,2.271 7.45,2.571 L7.48,3.581 C7.51,5.181 8.86,6.501 10.48,6.501 L13.5,6.501 C15.15,6.501 16.5,5.151 16.5,3.501 L16.5,2.571 C16.5,2.271 16.76,2.031 17.05,2.071 C19.8,2.441 21,4.321 21,7.001 Z"/>
  <path fill="#292D32" d="M15,3 L15,3.5 C15,4.32 14.32,5 13.5,5 L10.47,5 C9.66,5 8.99,4.35 8.97,3.54 L8.96,3.03 C8.94,2.46 9.39,2 9.96,2 L14,2 C14.55,2 15,2.45 15,3 Z"/>
</svg>

