<svg xmlns="http://www.w3.org/2000/svg" width="24" height="24" viewBox="0 0 24 24">
  <defs/>
  <path fill="#292D32" d="M15,22.75 L9,22.75 C4.59,22.75 3.25,21.41 3.25,17 L3.25,7 C3.25,2.59 4.59,1.25 9,1.25 L15,1.25 C19.41,1.25 20.75,2.59 20.75,7 L20.75,17 C20.75,21.41 19.41,22.75 15,22.75 Z M9,2.75 C5.42,2.75 4.75,3.43 4.75,7 L4.75,17 C4.75,20.57 5.42,21.25 9,21.25 L15,21.25 C18.58,21.25 19.25,20.57 19.25,17 L19.25,7 C19.25,3.43 18.58,2.75 15,2.75 L9,2.75 Z"/>
  <path fill="#292D32" d="M14,6.25 L10,6.25 C9.59,6.25 9.25,5.91 9.25,5.5 C9.25,5.09 9.59,4.75 10,4.75 L14,4.75 C14.41,4.75 14.75,5.09 14.75,5.5 C14.75,5.91 14.41,6.25 14,6.25 Z"/>
  <path fill="#292D32" d="M12,19.86 C10.73,19.86 9.7,18.83 9.7,17.56 C9.7,16.29 10.73,15.26 12,15.26 C13.27,15.26 14.3,16.29 14.3,17.56 C14.3,18.83 13.27,19.86 12,19.86 Z M12,16.75 C11.56,16.75 11.2,17.11 11.2,17.55 C11.2,17.99 11.56,18.35 12,18.35 C12.44,18.35 12.8,17.99 12.8,17.55 C12.8,17.11 12.44,16.75 12,16.75 Z"/>
</svg>

