<svg xmlns="http://www.w3.org/2000/svg" width="24" height="24" viewBox="0 0 24 24">
  <defs/>
  <path fill="#292D32" d="M16.24,2 L7.76,2 C5,2 4,3 4,5.81 L4,18.19 C4,21 5,22 7.76,22 L16.23,22 C19,22 20,21 20,18.19 L20,5.81 C20,3 19,2 16.24,2 Z M12,19.3 C11.04,19.3 10.25,18.51 10.25,17.55 C10.25,16.59 11.04,15.8 12,15.8 C12.96,15.8 13.75,16.59 13.75,17.55 C13.75,18.51 12.96,19.3 12,19.3 Z M14,6.25 L10,6.25 C9.59,6.25 9.25,5.91 9.25,5.5 C9.25,5.09 9.59,4.75 10,4.75 L14,4.75 C14.41,4.75 14.75,5.09 14.75,5.5 C14.75,5.91 14.41,6.25 14,6.25 Z"/>
</svg>

