<svg xmlns="http://www.w3.org/2000/svg" width="24" height="24" viewBox="0 0 24 24">
  <defs/>
  <path fill="#292D32" d="M9.68,1.985 L9.71,3.515 Q9.728,4.25 10.46,4.25 L13.48,4.25 Q14.23,4.25 14.23,3.5 L14.23,2 Q14.23,1.689 14.45,1.47 Q14.669,1.25 14.98,1.25 Q15.291,1.25 15.51,1.47 Q15.73,1.689 15.73,2 L15.73,3.5 Q15.73,5.75 13.48,5.75 L10.46,5.75 Q8.265,5.75 8.21,3.545 L8.18,2.015 Q8.174,1.704 8.389,1.48 Q8.605,1.256 8.915,1.25 Q9.226,1.244 9.45,1.459 Q9.674,1.675 9.68,1.985 Z"/>
  <path fill="#292D32" d="M17.53,17.53 L16.061,19 L17.53,20.47 Q17.75,20.689 17.75,21 Q17.75,21.311 17.53,21.53 Q17.311,21.75 17,21.75 Q16.689,21.75 16.47,21.53 L14.47,19.53 Q14.25,19.311 14.25,19 Q14.25,18.689 14.47,18.47 L16.47,16.47 Q16.689,16.25 17,16.25 Q17.311,16.25 17.53,16.47 Q17.75,16.689 17.75,17 Q17.75,17.311 17.53,17.53 Z"/>
  <path fill="#292D32" d="M20.53,16.47 L22.53,18.47 Q22.75,18.689 22.75,19 Q22.75,19.311 22.53,19.53 L20.53,21.53 Q20.311,21.75 20,21.75 Q19.689,21.75 19.47,21.53 Q19.25,21.311 19.25,21 Q19.25,20.689 19.47,20.47 L20.939,19 L19.47,17.53 Q19.25,17.311 19.25,17 Q19.25,16.689 19.47,16.47 Q19.689,16.25 20,16.25 Q20.311,16.25 20.53,16.47 Z"/>
  <path fill="#292D32" d="M13,22.75 L8,22.75 Q2.25,22.75 2.25,17 L2.25,7 Q2.25,1.25 8,1.25 L16,1.25 Q21.75,1.25 21.75,7 L21.75,14 Q21.75,14.311 21.53,14.53 Q21.311,14.75 21,14.75 Q20.689,14.75 20.47,14.53 Q20.25,14.311 20.25,14 L20.25,7 Q20.25,2.75 16,2.75 L8,2.75 Q3.75,2.75 3.75,7 L3.75,17 Q3.75,21.25 8,21.25 L13,21.25 Q13.311,21.25 13.53,21.47 Q13.75,21.689 13.75,22 Q13.75,22.311 13.53,22.53 Q13.311,22.75 13,22.75 Z"/>
</svg>

