<svg xmlns="http://www.w3.org/2000/svg" width="24" height="24" viewBox="0 0 24 24">
  <defs/>
  <path fill="#292D32" d="M17,20.75 L12,20.75 C11.59,20.75 11.25,20.41 11.25,20 C11.25,19.59 11.59,19.25 12,19.25 L17,19.25 C19.86,19.25 21.25,17.86 21.25,15 L21.25,9 C21.25,6.14 19.86,4.75 17,4.75 L7,4.75 C4.14,4.75 2.75,6.14 2.75,9 L2.75,11 C2.75,11.41 2.41,11.75 2,11.75 C1.59,11.75 1.25,11.41 1.25,11 L1.25,9 C1.25,5.35 3.35,3.25 7,3.25 L17,3.25 C20.65,3.25 22.75,5.35 22.75,9 L22.75,15 C22.75,18.65 20.65,20.75 17,20.75 Z"/>
  <path fill="#292D32" d="M12,15.25 C10.21,15.25 8.75,13.79 8.75,12 C8.75,10.21 10.21,8.75 12,8.75 C13.79,8.75 15.25,10.21 15.25,12 C15.25,13.79 13.79,15.25 12,15.25 Z M12,10.25 C11.04,10.25 10.25,11.04 10.25,12 C10.25,12.96 11.04,13.75 12,13.75 C12.96,13.75 13.75,12.96 13.75,12 C13.75,11.04 12.96,10.25 12,10.25 Z"/>
  <path fill="#292D32" d="M18.5,15.25 C18.09,15.25 17.75,14.91 17.75,14.5 L17.75,9.5 C17.75,9.09 18.09,8.75 18.5,8.75 C18.91,8.75 19.25,9.09 19.25,9.5 L19.25,14.5 C19.25,14.91 18.91,15.25 18.5,15.25 Z"/>
  <path fill="#292D32" d="M8.5,18.69 C8.09,18.69 7.75,18.35 7.75,17.94 L7.75,16.66 C7.75,16.44 7.57,16.25 7.34,16.25 L2,16.25 C1.59,16.25 1.25,15.91 1.25,15.5 C1.25,15.09 1.59,14.75 2,14.75 L7.34,14.75 C8.39,14.75 9.25,15.61 9.25,16.66 L9.25,17.94 C9.25,18.35 8.91,18.69 8.5,18.69 Z"/>
  <path fill="#292D32" d="M3.219,17.47 C3.029,17.47 2.839,17.4 2.689,17.25 L1.469,16.03 C1.179,15.74 1.179,15.26 1.469,14.97 L2.689,13.75 C2.979,13.46 3.459,13.46 3.749,13.75 C4.039,14.04 4.039,14.52 3.749,14.81 L3.059,15.5 L3.749,16.19 C4.039,16.48 4.039,16.96 3.749,17.25 C3.599,17.4 3.409,17.47 3.219,17.47 Z"/>
  <path fill="#292D32" d="M8.5,21.53 L3.16,21.53 C2.11,21.53 1.25,20.67 1.25,19.62 L1.25,18.34 C1.25,17.93 1.59,17.59 2,17.59 C2.41,17.59 2.75,17.93 2.75,18.34 L2.75,19.62 C2.75,19.84 2.93,20.03 3.16,20.03 L8.5,20.03 C8.91,20.03 9.25,20.37 9.25,20.78 C9.25,21.19 8.91,21.53 8.5,21.53 Z"/>
  <path fill="#292D32" d="M7.279,22.75 C7.089,22.75 6.899,22.68 6.749,22.53 C6.459,22.24 6.459,21.76 6.749,21.47 L7.439,20.78 L6.749,20.09 C6.459,19.8 6.459,19.32 6.749,19.03 C7.039,18.74 7.519,18.74 7.809,19.03 L9.029,20.25 C9.319,20.54 9.319,21.02 9.029,21.31 L7.809,22.53 C7.669,22.68 7.469,22.75 7.279,22.75 Z"/>
</svg>

