<svg xmlns="http://www.w3.org/2000/svg" width="24" height="24" viewBox="0 0 24 24">
  <defs/>
  <path fill="#292D32" d="M17,21.25 L7,21.25 C3.35,21.25 1.25,19.15 1.25,15.5 L1.25,8.5 C1.25,4.85 3.35,2.75 7,2.75 L17,2.75 C20.65,2.75 22.75,4.85 22.75,8.5 L22.75,15.5 C22.75,19.15 20.65,21.25 17,21.25 Z M7,4.25 C4.14,4.25 2.75,5.64 2.75,8.5 L2.75,15.5 C2.75,18.36 4.14,19.75 7,19.75 L17,19.75 C19.86,19.75 21.25,18.36 21.25,15.5 L21.25,8.5 C21.25,5.64 19.86,4.25 17,4.25 L7,4.25 Z"/>
  <path fill="#292D32" d="M12,15.75 C9.93,15.75 8.25,14.07 8.25,12 C8.25,9.93 9.93,8.25 12,8.25 C14.07,8.25 15.75,9.93 15.75,12 C15.75,14.07 14.07,15.75 12,15.75 Z M12,9.75 C10.76,9.75 9.75,10.76 9.75,12 C9.75,13.24 10.76,14.25 12,14.25 C13.24,14.25 14.25,13.24 14.25,12 C14.25,10.76 13.24,9.75 12,9.75 Z"/>
  <path fill="#292D32" d="M4.5,10.75 C4.09,10.75 3.75,10.41 3.75,10 L3.75,8.5 C3.75,6.71 5.21,5.25 7,5.25 L8.5,5.25 C8.91,5.25 9.25,5.59 9.25,6 C9.25,6.41 8.91,6.75 8.5,6.75 L7,6.75 C6.04,6.75 5.25,7.54 5.25,8.5 L5.25,10 C5.25,10.41 4.91,10.75 4.5,10.75 Z"/>
  <path fill="#292D32" d="M19.5,10.75 C19.09,10.75 18.75,10.41 18.75,10 L18.75,8.5 C18.75,7.54 17.96,6.75 17,6.75 L15.5,6.75 C15.09,6.75 14.75,6.41 14.75,6 C14.75,5.59 15.09,5.25 15.5,5.25 L17,5.25 C18.79,5.25 20.25,6.71 20.25,8.5 L20.25,10 C20.25,10.41 19.91,10.75 19.5,10.75 Z"/>
  <path fill="#292D32" d="M8.5,18.75 L7,18.75 C5.21,18.75 3.75,17.29 3.75,15.5 L3.75,14 C3.75,13.59 4.09,13.25 4.5,13.25 C4.91,13.25 5.25,13.59 5.25,14 L5.25,15.5 C5.25,16.46 6.04,17.25 7,17.25 L8.5,17.25 C8.91,17.25 9.25,17.59 9.25,18 C9.25,18.41 8.91,18.75 8.5,18.75 Z"/>
  <path fill="#292D32" d="M17,18.75 L15.5,18.75 C15.09,18.75 14.75,18.41 14.75,18 C14.75,17.59 15.09,17.25 15.5,17.25 L17,17.25 C17.96,17.25 18.75,16.46 18.75,15.5 L18.75,14 C18.75,13.59 19.09,13.25 19.5,13.25 C19.91,13.25 20.25,13.59 20.25,14 L20.25,15.5 C20.25,17.29 18.79,18.75 17,18.75 Z"/>
</svg>

