<svg xmlns="http://www.w3.org/2000/svg" width="24" height="24" viewBox="0 0 24 24">
  <defs/>
  <path fill="#292D32" d="M17,4 L7,4 C4,4 2,5.5 2,9 L2,12.56 C2,12.93 2.38,13.16 2.71,13.01 C3.69,12.56 4.82,12.39 6.01,12.6 C8.64,13.07 10.57,15.51 10.5,18.18 C10.49,18.6 10.43,19.01 10.32,19.41 C10.24,19.72 10.49,20.01 10.81,20.01 L17,20.01 C20,20.01 22,18.51 22,15.01 L22,9 C22,5.5 20,4 17,4 Z M12,14.5 C10.62,14.5 9.5,13.38 9.5,12 C9.5,10.62 10.62,9.5 12,9.5 C13.38,9.5 14.5,10.62 14.5,12 C14.5,13.38 13.38,14.5 12,14.5 Z M19.25,14 C19.25,14.41 18.91,14.75 18.5,14.75 C18.09,14.75 17.75,14.41 17.75,14 L17.75,10 C17.75,9.59 18.09,9.25 18.5,9.25 C18.91,9.25 19.25,9.59 19.25,10 L19.25,14 Z"/>
  <path fill="#292D32" d="M5,14 C3.75,14 2.62,14.59 1.89,15.49 C1.33,16.18 1,17.05 1,18 C1,20.21 2.8,22 5,22 C6.74,22 8.23,20.89 8.77,19.33 C8.92,18.92 9,18.47 9,18 C9,15.8 7.21,14 5,14 Z M7.36,19.74 C7.34,19.8 7.3,19.86 7.26,19.9 L6.54,20.61 C6.45,20.71 6.33,20.75 6.2,20.75 C6.07,20.75 5.94,20.71 5.85,20.61 C5.69,20.46 5.67,20.22 5.77,20.04 L3.76,20.04 C3.12,20.04 2.6,19.52 2.6,18.87 L2.6,18.77 C2.6,18.49 2.82,18.28 3.09,18.28 C3.36,18.28 3.58,18.49 3.58,18.77 L3.58,18.87 C3.58,18.98 3.66,19.07 3.77,19.07 L5.78,19.07 C5.68,18.88 5.7,18.65 5.86,18.49 C6.05,18.3 6.36,18.3 6.54,18.49 L7.26,19.21 C7.3,19.25 7.34,19.31 7.37,19.37 C7.41,19.48 7.41,19.62 7.36,19.74 Z M7.4,17.23 C7.4,17.51 7.18,17.72 6.91,17.72 C6.64,17.72 6.42,17.51 6.42,17.23 L6.42,17.13 C6.42,17.02 6.34,16.93 6.23,16.93 L4.23,16.93 C4.33,17.12 4.31,17.35 4.15,17.51 C4.06,17.6 3.94,17.65 3.8,17.65 C3.68,17.65 3.55,17.6 3.46,17.51 L2.74,16.79 C2.7,16.75 2.66,16.69 2.63,16.63 C2.59,16.51 2.59,16.38 2.63,16.26 C2.66,16.21 2.69,16.14 2.74,16.1 L3.46,15.39 C3.65,15.19 3.96,15.19 4.14,15.39 C4.3,15.54 4.32,15.78 4.22,15.96 L6.23,15.96 C6.87,15.96 7.39,16.48 7.39,17.13 L7.39,17.23 L7.4,17.23 Z"/>
</svg>

