<svg xmlns="http://www.w3.org/2000/svg" width="24" height="24" viewBox="0 0 24 24">
  <defs/>
  <path fill="#292D32" opacity="0.4" d="M22,9 L22,15 C22,18.5 20,20 17,20 L8.45,20 C8.8,19.41 9,18.73 9,18 C9,15.79 7.21,14 5,14 C3.8,14 2.73,14.53 2,15.36 L2,9 C2,5.5 4,4 7,4 L17,4 C20,4 22,5.5 22,9 Z"/>
  <path fill="#292D32" d="M12,14.5 C13.381,14.5 14.5,13.381 14.5,12 C14.5,10.619 13.381,9.5 12,9.5 C10.619,9.5 9.5,10.619 9.5,12 C9.5,13.381 10.619,14.5 12,14.5 Z"/>
  <path fill="#292D32" d="M18.5,14.75 C18.09,14.75 17.75,14.41 17.75,14 L17.75,10 C17.75,9.59 18.09,9.25 18.5,9.25 C18.91,9.25 19.25,9.59 19.25,10 L19.25,14 C19.25,14.41 18.91,14.75 18.5,14.75 Z"/>
  <path fill="#292D32" d="M5,14 C3.8,14 2.73,14.53 2,15.36 C1.38,16.07 1,16.99 1,18 C1,18.75 1.21,19.46 1.58,20.06 C2.27,21.22 3.54,22 5,22 C6.01,22 6.93,21.63 7.63,21 C7.94,20.74 8.21,20.42 8.42,20.06 C8.79,19.46 9,18.75 9,18 C9,15.79 7.21,14 5,14 Z M6.6,19.58 C6.45,19.73 6.26,19.8 6.07,19.8 C5.88,19.8 5.69,19.73 5.54,19.58 L5.01,19.05 L4.46,19.6 C4.31,19.75 4.12,19.82 3.93,19.82 C3.74,19.82 3.55,19.75 3.4,19.6 C3.11,19.31 3.11,18.83 3.4,18.54 L3.95,17.99 L3.42,17.46 C3.13,17.17 3.13,16.69 3.42,16.4 C3.71,16.11 4.19,16.11 4.48,16.4 L5.01,16.93 L5.51,16.43 C5.8,16.14 6.28,16.14 6.57,16.43 C6.86,16.72 6.86,17.2 6.57,17.49 L6.07,17.99 L6.6,18.52 C6.89,18.81 6.89,19.28 6.6,19.58 Z"/>
</svg>

