<svg xmlns="http://www.w3.org/2000/svg" width="24" height="24" viewBox="0 0 24 24">
  <defs/>
  <path fill="#292D32" d="M10.25,10.03 C10.25,10.57 10.4,10.65 10.74,10.77 L11.25,10.95 L11.25,9.25 L10.95,9.25 C10.57,9.25 10.25,9.6 10.25,10.03 Z"/>
  <path fill="#292D32" d="M12.75,14.751 L13.05,14.751 C13.44,14.751 13.75,14.401 13.75,13.971 C13.75,13.431 13.6,13.351 13.26,13.231 L12.75,13.051 L12.75,14.751 Z"/>
  <path fill="#292D32" d="M19.58,5.48 L17.53,7.53 C17.38,7.68 17.19,7.75 17,7.75 C16.81,7.75 16.62,7.68 16.47,7.53 C16.18,7.24 16.18,6.76 16.47,6.47 L18.52,4.42 C16.76,2.92 14.49,2 12,2 C6.48,2 2,6.48 2,12 C2,17.52 6.48,22 12,22 C17.52,22 22,17.52 22,12 C22,9.51 21.08,7.24 19.58,5.48 Z M13.75,11.82 C14.39,12.05 15.25,12.51 15.25,13.98 C15.25,15.23 14.26,16.26 13.05,16.26 L12.75,16.26 L12.75,16.51 C12.75,16.92 12.41,17.26 12,17.26 C11.59,17.26 11.25,16.92 11.25,16.51 L11.25,16.26 L11.17,16.26 C9.84,16.26 8.75,15.14 8.75,13.76 C8.75,13.34 9.09,13 9.5,13 C9.91,13 10.25,13.34 10.25,13.75 C10.25,14.3 10.66,14.75 11.17,14.75 L11.25,14.75 L11.25,12.53 L10.25,12.18 C9.61,11.95 8.75,11.49 8.75,10.02 C8.75,8.77 9.74,7.74 10.95,7.74 L11.25,7.74 L11.25,7.5 C11.25,7.09 11.59,6.75 12,6.75 C12.41,6.75 12.75,7.09 12.75,7.5 L12.75,7.75 L12.83,7.75 C14.16,7.75 15.25,8.87 15.25,10.25 C15.25,10.66 14.91,11 14.5,11 C14.09,11 13.75,10.66 13.75,10.25 C13.75,9.7 13.34,9.25 12.83,9.25 L12.75,9.25 L12.75,11.47 L13.75,11.82 Z"/>
  <path fill="#292D32" d="M22.69,1.71 C22.61,1.53 22.47,1.38 22.28,1.3 C22.19,1.27 22.1,1.25 22,1.25 L18,1.25 C17.59,1.25 17.25,1.59 17.25,2 C17.25,2.41 17.59,2.75 18,2.75 L20.19,2.75 L18.52,4.42 C18.9,4.75 19.25,5.1 19.58,5.48 L21.25,3.81 L21.25,6 C21.25,6.41 21.59,6.75 22,6.75 C22.41,6.75 22.75,6.41 22.75,6 L22.75,2 C22.75,1.9 22.73,1.81 22.69,1.71 Z"/>
</svg>

