<svg xmlns="http://www.w3.org/2000/svg" width="24" height="24" viewBox="0 0 24 24">
  <defs/>
  <path fill="#292D32" d="M0.949,7.92 Q0.949,5.362 2.399,4.015 Q3.74,2.77 6.099,2.77 L14.889,2.77 Q19.167,2.77 19.905,6.494 Q20.039,7.149 20.039,7.92 L20.039,13.07 Q20.039,18.22 14.889,18.22 L6.099,18.22 Q5.327,18.22 4.677,18.077 Q4.282,18.011 3.853,17.855 Q0.949,16.771 0.949,13.07 L0.949,12 Q0.949,11.689 1.169,11.47 Q1.389,11.25 1.699,11.25 Q2.01,11.25 2.23,11.47 Q2.449,11.689 2.449,12 L2.449,13.07 Q2.449,15.73 4.365,16.445 Q4.673,16.557 4.938,16.599 Q4.961,16.603 4.984,16.608 Q5.48,16.72 6.099,16.72 L14.889,16.72 Q18.539,16.72 18.539,13.07 L18.539,7.92 Q18.539,7.301 18.434,6.786 Q17.935,4.27 14.889,4.27 L6.099,4.27 Q2.449,4.27 2.449,7.92 Q2.449,8.231 2.23,8.45 Q2.01,8.67 1.699,8.67 Q1.389,8.67 1.169,8.45 Q0.949,8.231 0.949,7.92 Z"/>
  <path fill="#292D32" d="M23.05,15.01 L23.05,16.07 Q23.05,21.22 17.9,21.22 L9.11,21.22 Q7.826,21.22 6.854,20.851 Q4.597,20.017 4.094,17.486 Q4.034,17.182 4.207,16.923 Q4.379,16.665 4.684,16.604 Q4.84,16.574 4.995,16.608 Q5.491,16.72 6.11,16.72 L14.9,16.72 Q18.55,16.72 18.55,13.07 L18.55,7.92 Q18.55,7.301 18.445,6.791 Q18.383,6.487 18.554,6.227 Q18.725,5.968 19.029,5.905 Q19.18,5.875 19.33,5.905 Q23.05,6.665 23.05,10.92 Q23.05,11.231 22.83,11.45 Q22.611,11.67 22.3,11.67 Q21.989,11.67 21.77,11.45 Q21.55,11.231 21.55,10.92 Q21.55,8.581 20.048,7.74 Q20.05,7.829 20.05,7.92 L20.05,13.07 Q20.05,15.629 18.6,16.975 Q17.259,18.22 14.9,18.22 L6.11,18.22 Q6.018,18.22 5.927,18.218 Q6.407,19.087 7.386,19.449 Q8.101,19.72 9.11,19.72 L17.9,19.72 Q21.55,19.72 21.55,16.07 L21.55,15.01 Q21.55,14.699 21.77,14.48 Q21.989,14.26 22.3,14.26 Q22.611,14.26 22.83,14.48 Q23.05,14.699 23.05,15.01 Z"/>
  <path fill="#292D32" d="M12.389,10.5 Q12.389,8.61 10.499,8.61 Q8.609,8.61 8.609,10.5 Q8.609,12.39 10.499,12.39 Q10.81,12.39 11.03,12.61 Q11.249,12.829 11.249,13.14 Q11.249,13.451 11.03,13.67 Q10.81,13.89 10.499,13.89 Q9.094,13.89 8.102,12.898 Q7.109,11.906 7.109,10.5 Q7.109,7.11 10.499,7.11 Q13.889,7.11 13.889,10.5 Q13.889,10.811 13.67,11.03 Q13.45,11.25 13.139,11.25 Q12.829,11.25 12.609,11.03 Q12.389,10.811 12.389,10.5 Z"/>
  <path fill="#292D32" d="M5.529,8.3 L5.529,12.7 Q5.529,13.011 5.31,13.23 Q5.09,13.45 4.779,13.45 Q4.469,13.45 4.249,13.23 Q4.029,13.011 4.029,12.7 L4.029,8.3 Q4.029,7.989 4.249,7.77 Q4.469,7.55 4.779,7.55 Q5.09,7.55 5.31,7.77 Q5.529,7.989 5.529,8.3 Z"/>
  <path fill="#292D32" d="M16.969,8.3 L16.969,12.7 Q16.969,13.011 16.749,13.23 Q16.529,13.45 16.219,13.45 Q15.908,13.45 15.688,13.23 Q15.469,13.011 15.469,12.7 L15.469,8.3 Q15.469,7.989 15.688,7.77 Q15.908,7.55 16.219,7.55 Q16.529,7.55 16.749,7.77 Q16.969,7.989 16.969,8.3 Z"/>
</svg>

