<svg xmlns="http://www.w3.org/2000/svg" width="24" height="24" viewBox="0 0 24 24">
  <defs/>
  <path fill="#292D32" d="M13.75,12 Q13.75,10.25 12,10.25 Q10.25,10.25 10.25,12 Q10.25,13.75 12,13.75 Q12.311,13.75 12.53,13.97 Q12.75,14.189 12.75,14.5 Q12.75,14.811 12.53,15.03 Q12.311,15.25 12,15.25 Q10.654,15.25 9.702,14.298 Q8.75,13.346 8.75,12 Q8.75,8.75 12,8.75 Q15.25,8.75 15.25,12 Q15.25,12.311 15.03,12.53 Q14.811,12.75 14.5,12.75 Q14.189,12.75 13.97,12.53 Q13.75,12.311 13.75,12 Z"/>
  <path fill="#292D32" d="M22.75,13.14 L22.75,15 Q22.75,20.75 17,20.75 L12,20.75 Q11.689,20.75 11.47,20.53 Q11.25,20.311 11.25,20 Q11.25,19.689 11.47,19.47 Q11.689,19.25 12,19.25 L17,19.25 Q21.25,19.25 21.25,15 L21.25,13.14 Q21.25,12.829 21.47,12.61 Q21.689,12.39 22,12.39 Q22.311,12.39 22.53,12.61 Q22.75,12.829 22.75,13.14 Z"/>
  <path fill="#292D32" d="M1.25,11 L1.25,9 Q1.25,3.25 7,3.25 L17,3.25 Q22.75,3.25 22.75,9 Q22.75,9.311 22.53,9.53 Q22.311,9.75 22,9.75 Q21.689,9.75 21.47,9.53 Q21.25,9.311 21.25,9 Q21.25,4.75 17,4.75 L7,4.75 Q2.75,4.75 2.75,9 L2.75,11 Q2.75,11.311 2.53,11.53 Q2.311,11.75 2,11.75 Q1.689,11.75 1.47,11.53 Q1.25,11.311 1.25,11 Z"/>
  <path fill="#292D32" d="M19.25,9.5 L19.25,14.5 Q19.25,14.811 19.03,15.03 Q18.811,15.25 18.5,15.25 Q18.189,15.25 17.97,15.03 Q17.75,14.811 17.75,14.5 L17.75,9.5 Q17.75,9.189 17.97,8.97 Q18.189,8.75 18.5,8.75 Q18.811,8.75 19.03,8.97 Q19.25,9.189 19.25,9.5 Z"/>
  <path fill="#292D32" d="M2,14.75 L7.34,14.75 Q8.131,14.75 8.69,15.31 Q9.25,15.869 9.25,16.66 L9.25,17.94 Q9.25,18.251 9.03,18.47 Q8.811,18.69 8.5,18.69 Q8.189,18.69 7.97,18.47 Q7.75,18.251 7.75,17.94 L7.75,16.66 Q7.75,16.25 7.34,16.25 L2,16.25 Q1.689,16.25 1.47,16.03 Q1.25,15.811 1.25,15.5 Q1.25,15.189 1.47,14.97 Q1.689,14.75 2,14.75 Z"/>
  <path fill="#292D32" d="M3.75,14.81 L3.061,15.5 L3.75,16.19 Q3.97,16.409 3.97,16.72 Q3.97,17.031 3.75,17.25 Q3.531,17.47 3.22,17.47 Q2.909,17.47 2.69,17.25 L1.47,16.03 Q1.25,15.811 1.25,15.5 Q1.25,15.189 1.47,14.97 L2.69,13.75 Q2.909,13.53 3.22,13.53 Q3.531,13.53 3.75,13.75 Q3.97,13.969 3.97,14.28 Q3.97,14.591 3.75,14.81 Z"/>
  <path fill="#292D32" d="M8.5,21.53 L3.16,21.53 Q2.369,21.53 1.81,20.97 Q1.25,20.411 1.25,19.62 L1.25,18.34 Q1.25,18.029 1.47,17.81 Q1.689,17.59 2,17.59 Q2.311,17.59 2.53,17.81 Q2.75,18.029 2.75,18.34 L2.75,19.62 Q2.75,20.03 3.16,20.03 L8.5,20.03 Q8.811,20.03 9.03,20.25 Q9.25,20.469 9.25,20.78 Q9.25,21.091 9.03,21.31 Q8.811,21.53 8.5,21.53 Z"/>
  <path fill="#292D32" d="M6.749,21.47 L7.439,20.78 L6.749,20.09 Q6.529,19.871 6.529,19.56 Q6.529,19.249 6.749,19.03 Q6.969,18.81 7.279,18.81 Q7.59,18.81 7.81,19.03 L9.03,20.25 Q9.249,20.469 9.249,20.78 Q9.249,21.091 9.03,21.31 L7.81,22.53 Q7.59,22.75 7.279,22.75 Q6.969,22.75 6.749,22.53 Q6.529,22.311 6.529,22 Q6.529,21.689 6.749,21.47 Z"/>
</svg>

