<svg xmlns="http://www.w3.org/2000/svg" width="24" height="24" viewBox="0 0 24 24">
  <defs/>
  <path fill="#292D32" d="M17,3.5 L7,3.5 C4,3.5 2,5 2,8.5 L2,15.5 C2,19 4,20.5 7,20.5 L17,20.5 C20,20.5 22,19 22,15.5 L22,8.5 C22,5 20,3.5 17,3.5 Z M8,17.75 L5,17.75 C4.59,17.75 4.25,17.41 4.25,17 C4.25,16.59 4.59,16.25 5,16.25 L8,16.25 C8.41,16.25 8.75,16.59 8.75,17 C8.75,17.41 8.41,17.75 8,17.75 Z M12,15 C10.34,15 9,13.66 9,12 C9,10.34 10.34,9 12,9 C13.66,9 15,10.34 15,12 C15,13.66 13.66,15 12,15 Z M19,7.75 L16,7.75 C15.59,7.75 15.25,7.41 15.25,7 C15.25,6.59 15.59,6.25 16,6.25 L19,6.25 C19.41,6.25 19.75,6.59 19.75,7 C19.75,7.41 19.41,7.75 19,7.75 Z"/>
</svg>

