<svg xmlns="http://www.w3.org/2000/svg" width="24" height="24" viewBox="0 0 24 24">
  <defs/>
  <path fill="#292D32" d="M2.75,12.53 L2.75,15.5 Q2.75,19.75 7,19.75 L17,19.75 Q21.25,19.75 21.25,15.5 L21.25,8.5 Q21.25,4.25 17,4.25 L7.75,4.25 L7.75,5 Q7.75,9.75 3,9.75 L2,9.75 Q1.689,9.75 1.47,9.53 Q1.25,9.311 1.25,9 L1.25,8.5 Q1.25,2.75 7,2.75 L17,2.75 Q22.75,2.75 22.75,8.5 L22.75,15.5 Q22.75,21.25 17,21.25 L7,21.25 Q1.25,21.25 1.25,15.5 L1.25,12.53 Q1.25,12.219 1.47,12 Q1.689,11.78 2,11.78 Q2.311,11.78 2.53,12 Q2.75,12.219 2.75,12.53 Z M6.25,4.286 Q2.865,4.631 2.754,8.25 L3,8.25 Q6.25,8.25 6.25,5 L6.25,4.286 Z"/>
  <path fill="#292D32" d="M14.25,12 Q14.25,9.75 12,9.75 Q9.75,9.75 9.75,12 Q9.75,14.25 12,14.25 Q12.311,14.25 12.53,14.47 Q12.75,14.689 12.75,15 Q12.75,15.311 12.53,15.53 Q12.311,15.75 12,15.75 Q8.25,15.75 8.25,12 Q8.25,8.25 12,8.25 Q15.75,8.25 15.75,12 Q15.75,12.311 15.53,12.53 Q15.311,12.75 15,12.75 Q14.689,12.75 14.47,12.53 Q14.25,12.311 14.25,12 Z"/>
  <path fill="#292D32" d="M22,9.75 L21,9.75 Q16.25,9.75 16.25,5 L16.25,4 Q16.25,3.689 16.47,3.47 Q16.689,3.25 17,3.25 Q17.311,3.25 17.53,3.47 Q17.75,3.689 17.75,4 L17.75,5 Q17.75,8.25 21,8.25 L22,8.25 Q22.311,8.25 22.53,8.47 Q22.75,8.689 22.75,9 Q22.75,9.311 22.53,9.53 Q22.311,9.75 22,9.75 Z"/>
  <path fill="#292D32" d="M2,14.25 L3,14.25 Q7.75,14.25 7.75,19 L7.75,20 Q7.75,20.311 7.53,20.53 Q7.311,20.75 7,20.75 Q6.689,20.75 6.47,20.53 Q6.25,20.311 6.25,20 L6.25,19 Q6.25,17.061 5.595,16.405 Q4.939,15.75 3,15.75 L2,15.75 Q1.689,15.75 1.47,15.53 Q1.25,15.311 1.25,15 Q1.25,14.689 1.47,14.47 Q1.689,14.25 2,14.25 Z"/>
  <path fill="#292D32" d="M22,15.75 L21,15.75 Q19.061,15.75 18.405,16.405 Q17.75,17.061 17.75,19 L17.75,20 Q17.75,20.311 17.53,20.53 Q17.311,20.75 17,20.75 Q16.689,20.75 16.47,20.53 Q16.25,20.311 16.25,20 L16.25,19 Q16.25,14.25 21,14.25 L22,14.25 Q22.311,14.25 22.53,14.47 Q22.75,14.689 22.75,15 Q22.75,15.311 22.53,15.53 Q22.311,15.75 22,15.75 Z"/>
</svg>

