<svg xmlns="http://www.w3.org/2000/svg" width="24" height="24" viewBox="0 0 24 24">
  <defs/>
  <path fill="#292D32" d="M12,15.25 C10.21,15.25 8.75,13.79 8.75,12 C8.75,10.21 10.21,8.75 12,8.75 C13.79,8.75 15.25,10.21 15.25,12 C15.25,13.79 13.79,15.25 12,15.25 Z M12,10.25 C11.04,10.25 10.25,11.04 10.25,12 C10.25,12.96 11.04,13.75 12,13.75 C12.96,13.75 13.75,12.96 13.75,12 C13.75,11.04 12.96,10.25 12,10.25 Z"/>
  <path fill="#292D32" d="M18.5,15.25 C18.09,15.25 17.75,14.91 17.75,14.5 L17.75,9.5 C17.75,9.09 18.09,8.75 18.5,8.75 C18.91,8.75 19.25,9.09 19.25,9.5 L19.25,14.5 C19.25,14.91 18.91,15.25 18.5,15.25 Z"/>
  <path fill="#292D32" d="M5,22.75 C2.38,22.75 0.25,20.62 0.25,18 C0.25,15.38 2.38,13.25 5,13.25 C7.62,13.25 9.75,15.38 9.75,18 C9.75,20.62 7.62,22.75 5,22.75 Z M5,14.75 C3.21,14.75 1.75,16.21 1.75,18 C1.75,19.79 3.21,21.25 5,21.25 C6.79,21.25 8.25,19.79 8.25,18 C8.25,16.21 6.79,14.75 5,14.75 Z"/>
  <path fill="#292D32" d="M4,19.75 C3.75,19.75 3.5,19.62 3.36,19.39 C3.15,19.04 3.26,18.57 3.62,18.36 L4.38,17.9 C4.45,17.86 4.5,17.77 4.5,17.69 L4.5,16.76 C4.5,16.35 4.84,16.01 5.25,16.01 C5.66,16.01 6,16.35 6,16.76 L6,17.69 C6,18.3 5.67,18.88 5.15,19.19 L4.39,19.65 C4.27,19.72 4.13,19.75 4,19.75 Z"/>
  <path fill="#292D32" d="M17,20.75 L8.5,20.75 C8.09,20.75 7.75,20.41 7.75,20 C7.75,19.59 8.09,19.25 8.5,19.25 L17,19.25 C19.86,19.25 21.25,17.86 21.25,15 L21.25,9 C21.25,6.14 19.86,4.75 17,4.75 L7,4.75 C4.14,4.75 2.75,6.14 2.75,9 L2.75,15.2 C2.75,15.61 2.41,15.95 2,15.95 C1.59,15.95 1.25,15.61 1.25,15.2 L1.25,9 C1.25,5.35 3.35,3.25 7,3.25 L17,3.25 C20.65,3.25 22.75,5.35 22.75,9 L22.75,15 C22.75,18.65 20.65,20.75 17,20.75 Z"/>
</svg>

