<svg xmlns="http://www.w3.org/2000/svg" width="24" height="24" viewBox="0 0 24 24">
  <defs/>
  <path fill="#292D32" d="M20.05,7.92 L20.05,13.07 Q20.05,18.22 14.9,18.22 L6.11,18.22 Q5.338,18.22 4.688,18.077 Q4.293,18.011 3.864,17.855 Q0.96,16.771 0.96,13.07 L0.96,7.92 Q0.96,5.362 2.41,4.015 Q3.751,2.77 6.11,2.77 L14.9,2.77 Q19.178,2.77 19.916,6.494 Q19.917,6.502 19.919,6.511 Q20.05,7.261 20.05,7.92 Z M18.55,7.92 Q18.55,7.394 18.443,6.778 Q17.941,4.27 14.9,4.27 L6.11,4.27 Q4.34,4.27 3.43,5.115 Q2.46,6.016 2.46,7.92 L2.46,13.07 Q2.46,15.73 4.376,16.445 Q4.684,16.557 4.948,16.599 Q4.972,16.603 4.995,16.608 Q5.491,16.72 6.11,16.72 L14.9,16.72 Q16.67,16.72 17.58,15.875 Q18.55,14.974 18.55,13.07 Z"/>
  <path fill="#292D32" d="M23.051,10.92 L23.051,16.07 Q23.051,18.629 21.601,19.975 Q20.26,21.22 17.901,21.22 L9.111,21.22 Q7.827,21.22 6.855,20.851 Q4.598,20.017 4.095,17.486 Q4.035,17.182 4.208,16.923 Q4.38,16.665 4.685,16.604 Q4.841,16.574 4.996,16.608 Q5.492,16.72 6.111,16.72 L14.901,16.72 Q18.551,16.72 18.551,13.07 L18.551,7.92 Q18.551,7.301 18.446,6.791 Q18.384,6.487 18.555,6.227 Q18.726,5.968 19.03,5.905 Q19.183,5.874 19.336,5.906 Q23.051,6.688 23.051,10.92 Z M21.551,10.92 Q21.551,8.595 20.049,7.747 Q20.051,7.833 20.051,7.92 L20.051,13.07 Q20.051,18.22 14.901,18.22 L6.111,18.22 Q6.018,18.22 5.928,18.218 Q6.408,19.087 7.387,19.449 Q8.102,19.72 9.111,19.72 L17.901,19.72 Q19.671,19.72 20.581,18.876 Q21.551,17.974 21.551,16.07 Z"/>
  <path fill="#292D32" d="M10.498,13.89 Q8.803,13.89 7.956,13.042 Q7.108,12.195 7.108,10.5 Q7.108,9.096 8.101,8.103 Q9.094,7.11 10.498,7.11 Q13.888,7.11 13.888,10.5 Q13.888,11.904 12.895,12.897 Q11.903,13.89 10.498,13.89 Z M10.498,12.39 Q12.388,12.39 12.388,10.5 Q12.388,8.61 10.498,8.61 Q9.716,8.61 9.162,9.163 Q8.608,9.717 8.608,10.5 Q8.608,11.445 9.081,11.917 Q9.553,12.39 10.498,12.39 Z"/>
  <path fill="#292D32" d="M5.53,8.3 L5.53,12.7 Q5.53,13.011 5.31,13.23 Q5.091,13.45 4.78,13.45 Q4.469,13.45 4.25,13.23 Q4.03,13.011 4.03,12.7 L4.03,8.3 Q4.03,7.989 4.25,7.77 Q4.469,7.55 4.78,7.55 Q5.091,7.55 5.31,7.77 Q5.53,7.989 5.53,8.3 Z"/>
  <path fill="#292D32" d="M16.972,8.3 L16.972,12.7 Q16.972,13.011 16.752,13.231 Q16.532,13.45 16.222,13.45 Q15.911,13.45 15.691,13.231 Q15.472,13.011 15.472,12.7 L15.472,8.3 Q15.472,7.99 15.691,7.77 Q15.911,7.55 16.222,7.55 Q16.532,7.55 16.752,7.77 Q16.972,7.99 16.972,8.3 Z"/>
</svg>

