<svg xmlns="http://www.w3.org/2000/svg" width="24" height="24" viewBox="0 0 24 24">
  <defs/>
  <g opacity="0.4">
    <path fill="#292D32" d="M10.25,13.75 Q10.25,14.75 11.17,14.75 L13.05,14.75 Q13.75,14.75 13.75,13.97 Q13.75,13.402 13.259,13.227 L10.253,12.178 Q8.76,11.647 8.76,10.02 Q8.76,7.74 10.96,7.74 L12.84,7.74 Q15.26,7.74 15.26,10.24 Q15.26,10.551 15.04,10.771 Q14.821,10.99 14.51,10.99 Q14.199,10.99 13.98,10.771 Q13.76,10.551 13.76,10.24 Q13.76,9.24 12.84,9.24 L10.96,9.24 Q10.26,9.24 10.26,10.02 Q10.26,10.589 10.747,10.762 L13.761,11.814 Q15.25,12.343 15.25,13.97 Q15.25,14.906 14.619,15.571 Q13.973,16.25 13.05,16.25 L11.17,16.25 Q8.75,16.25 8.75,13.75 Q8.75,13.44 8.97,13.22 Q9.189,13 9.5,13 Q9.811,13 10.03,13.22 Q10.25,13.44 10.25,13.75 Z"/>
    <path fill="#292D32" d="M12.75,7.5 L12.75,16.5 Q12.75,16.811 12.53,17.03 Q12.311,17.25 12,17.25 Q11.689,17.25 11.47,17.03 Q11.25,16.811 11.25,16.5 L11.25,7.5 Q11.25,7.189 11.47,6.97 Q11.689,6.75 12,6.75 Q12.311,6.75 12.53,6.97 Q12.75,7.189 12.75,7.5 Z"/>
  </g>
  <path fill="#292D32" d="M22.75,12 Q22.75,16.451 19.6,19.6 Q16.451,22.75 12,22.75 Q7.549,22.75 4.4,19.6 Q1.25,16.451 1.25,12 Q1.25,7.549 4.4,4.4 Q7.549,1.25 12,1.25 Q12.311,1.25 12.53,1.47 Q12.75,1.689 12.75,2 Q12.75,2.311 12.53,2.53 Q12.311,2.75 12,2.75 Q8.171,2.75 5.46,5.46 Q2.75,8.171 2.75,12 Q2.75,15.829 5.46,18.54 Q8.171,21.25 12,21.25 Q15.829,21.25 18.54,18.54 Q21.25,15.829 21.25,12 Q21.25,11.689 21.47,11.47 Q21.689,11.25 22,11.25 Q22.311,11.25 22.53,11.47 Q22.75,11.689 22.75,12 Z"/>
  <path fill="#292D32" d="M21.25,6 L21.25,2.75 L18,2.75 Q17.689,2.75 17.47,2.53 Q17.25,2.311 17.25,2 Q17.25,1.689 17.47,1.47 Q17.689,1.25 18,1.25 L22,1.25 Q22.311,1.25 22.53,1.47 Q22.75,1.689 22.75,2 L22.75,6 Q22.75,6.311 22.53,6.53 Q22.311,6.75 22,6.75 Q21.689,6.75 21.47,6.53 Q21.25,6.311 21.25,6 Z"/>
  <path fill="#292D32" d="M16.47,6.47 L21.47,1.47 Q21.689,1.25 22,1.25 Q22.311,1.25 22.53,1.47 Q22.75,1.689 22.75,2 Q22.75,2.311 22.53,2.53 L17.53,7.53 Q17.311,7.75 17,7.75 Q16.689,7.75 16.47,7.53 Q16.25,7.311 16.25,7 Q16.25,6.689 16.47,6.47 Z"/>
</svg>

