<svg xmlns="http://www.w3.org/2000/svg" width="24" height="24" viewBox="0 0 24 24">
  <defs/>
  <path fill="#292D32" d="M19.171,6.64 C18.741,4.47 17.131,3.52 14.891,3.52 L6.111,3.52 C3.471,3.52 1.711,4.84 1.711,7.92 L1.711,13.069 C1.711,15.29 2.621,16.59 4.121,17.149 C4.341,17.23 4.581,17.299 4.831,17.34 C5.231,17.43 5.661,17.47 6.111,17.47 L14.901,17.47 C17.541,17.47 19.301,16.149 19.301,13.069 L19.301,7.92 C19.301,7.45 19.261,7.03 19.171,6.64 Z M5.531,11.999 C5.531,12.409 5.191,12.749 4.781,12.749 C4.371,12.749 4.031,12.409 4.031,11.999 L4.031,9 C4.031,8.59 4.371,8.25 4.781,8.25 C5.191,8.25 5.531,8.59 5.531,9 L5.531,11.999 Z M10.501,13.139 C9.041,13.139 7.861,11.96 7.861,10.499 C7.861,9.04 9.041,7.86 10.501,7.86 C11.961,7.86 13.141,9.04 13.141,10.499 C13.141,11.96 11.961,13.139 10.501,13.139 Z M16.961,11.999 C16.961,12.409 16.621,12.749 16.211,12.749 C15.801,12.749 15.461,12.409 15.461,11.999 L15.461,9 C15.461,8.59 15.801,8.25 16.211,8.25 C16.621,8.25 16.961,8.59 16.961,9 L16.961,11.999 Z"/>
  <path fill="#292D32" d="M22.302,10.918 L22.302,16.068 C22.302,19.148 20.542,20.478 17.892,20.478 L9.112,20.478 C8.362,20.478 7.692,20.368 7.112,20.148 C6.642,19.978 6.232,19.728 5.902,19.408 C5.722,19.238 5.862,18.968 6.112,18.968 L14.892,18.968 C18.592,18.968 20.792,16.768 20.792,13.078 L20.792,7.918 C20.792,7.678 21.062,7.528 21.232,7.708 C21.912,8.428 22.302,9.478 22.302,10.918 Z"/>
</svg>

