<svg xmlns="http://www.w3.org/2000/svg" width="24" height="24" viewBox="0 0 24 24">
  <defs/>
  <path fill="#292D32" opacity="0.4" d="M22,9 L22,15 C22,18.5 20,20 17,20 L9.74,20 C9.91,19.53 10,19.03 10,18.5 C10,16.02 7.99,14 5.5,14 C4.09,14 2.82,14.66 2,15.68 L2,9 C2,5.5 4,4 7,4 L17,4 C20,4 22,5.5 22,9 Z"/>
  <path fill="#292D32" d="M12,14.5 C13.381,14.5 14.5,13.381 14.5,12 C14.5,10.619 13.381,9.5 12,9.5 C10.619,9.5 9.5,10.619 9.5,12 C9.5,13.381 10.619,14.5 12,14.5 Z"/>
  <path fill="#292D32" d="M18.5,14.75 C18.09,14.75 17.75,14.41 17.75,14 L17.75,10 C17.75,9.59 18.09,9.25 18.5,9.25 C18.91,9.25 19.25,9.59 19.25,10 L19.25,14 C19.25,14.41 18.91,14.75 18.5,14.75 Z"/>
  <path fill="#292D32" d="M5.5,14 C4.09,14 2.82,14.66 2,15.68 C1.37,16.45 1,17.43 1,18.5 C1,20.99 3.02,23 5.5,23 C7.46,23 9.13,21.75 9.74,20 C9.91,19.53 10,19.03 10,18.5 C10,16.02 7.99,14 5.5,14 Z M8.16,20.46 C8.13,20.52 8.09,20.59 8.04,20.64 L7.23,21.44 C7.13,21.55 6.99,21.6 6.85,21.6 C6.7,21.6 6.56,21.55 6.46,21.44 C6.28,21.27 6.26,21 6.37,20.8 L4.11,20.8 C3.39,20.8 2.8,20.21 2.8,19.48 L2.8,19.37 C2.8,19.06 3.05,18.82 3.35,18.82 C3.65,18.82 3.9,19.06 3.9,19.37 L3.9,19.48 C3.9,19.6 3.99,19.7 4.11,19.7 L6.37,19.7 C6.26,19.49 6.28,19.23 6.46,19.05 C6.67,18.84 7.02,18.84 7.23,19.05 L8.04,19.86 C8.09,19.91 8.13,19.97 8.16,20.04 C8.21,20.17 8.21,20.32 8.16,20.46 Z M8.2,17.63 C8.2,17.94 7.95,18.18 7.65,18.18 C7.35,18.18 7.1,17.94 7.1,17.63 L7.1,17.52 C7.1,17.4 7.01,17.3 6.89,17.3 L4.63,17.3 C4.74,17.51 4.72,17.77 4.54,17.95 C4.44,18.05 4.3,18.11 4.15,18.11 C4.01,18.11 3.87,18.05 3.77,17.95 L2.96,17.14 C2.91,17.09 2.87,17.03 2.84,16.96 C2.79,16.83 2.79,16.68 2.84,16.54 C2.87,16.48 2.91,16.41 2.96,16.36 L3.77,15.56 C3.98,15.34 4.33,15.34 4.54,15.56 C4.72,15.73 4.74,16 4.63,16.2 L6.89,16.2 C7.61,16.2 8.2,16.79 8.2,17.52 L8.2,17.63 Z"/>
</svg>

