<svg xmlns="http://www.w3.org/2000/svg" width="24" height="24" viewBox="0 0 24 24">
  <defs/>
  <path fill="#292D32" opacity="0.4" d="M17,20.5 L7,20.5 C4,20.5 2,19 2,15.5 L2,8.5 C2,5 4,3.5 7,3.5 L17,3.5 C20,3.5 22,5 22,8.5 L22,15.5 C22,19 20,20.5 17,20.5 Z"/>
  <path fill="#292D32" d="M12,15 C13.657,15 15,13.657 15,12 C15,10.343 13.657,9 12,9 C10.343,9 9,10.343 9,12 C9,13.657 10.343,15 12,15 Z"/>
  <path fill="#292D32" d="M5.5,15.25 C5.09,15.25 4.75,14.91 4.75,14.5 L4.75,9.5 C4.75,9.09 5.09,8.75 5.5,8.75 C5.91,8.75 6.25,9.09 6.25,9.5 L6.25,14.5 C6.25,14.91 5.91,15.25 5.5,15.25 Z"/>
  <path fill="#292D32" d="M18.5,15.25 C18.09,15.25 17.75,14.91 17.75,14.5 L17.75,9.5 C17.75,9.09 18.09,8.75 18.5,8.75 C18.91,8.75 19.25,9.09 19.25,9.5 L19.25,14.5 C19.25,14.91 18.91,15.25 18.5,15.25 Z"/>
</svg>

