<svg xmlns="http://www.w3.org/2000/svg" width="24" height="24" viewBox="0 0 24 24">
  <defs/>
  <path fill="#292D32" d="M17,21.25 L7,21.25 C3.35,21.25 1.25,19.15 1.25,15.5 L1.25,8.5 C1.25,4.85 3.35,2.75 7,2.75 L17,2.75 C20.65,2.75 22.75,4.85 22.75,8.5 L22.75,15.5 C22.75,19.15 20.65,21.25 17,21.25 Z M7,4.25 C4.14,4.25 2.75,5.64 2.75,8.5 L2.75,15.5 C2.75,18.36 4.14,19.75 7,19.75 L17,19.75 C19.86,19.75 21.25,18.36 21.25,15.5 L21.25,8.5 C21.25,5.64 19.86,4.25 17,4.25 L7,4.25 Z"/>
  <path fill="#292D32" d="M12,15.75 C9.93,15.75 8.25,14.07 8.25,12 C8.25,9.93 9.93,8.25 12,8.25 C14.07,8.25 15.75,9.93 15.75,12 C15.75,14.07 14.07,15.75 12,15.75 Z M12,9.75 C10.76,9.75 9.75,10.76 9.75,12 C9.75,13.24 10.76,14.25 12,14.25 C13.24,14.25 14.25,13.24 14.25,12 C14.25,10.76 13.24,9.75 12,9.75 Z"/>
  <path fill="#292D32" d="M3,9.75 L2,9.75 C1.59,9.75 1.25,9.41 1.25,9 C1.25,8.59 1.59,8.25 2,8.25 L3,8.25 C5.58,8.25 6.25,7.58 6.25,5 L6.25,4 C6.25,3.59 6.59,3.25 7,3.25 C7.41,3.25 7.75,3.59 7.75,4 L7.75,5 C7.75,8.42 6.42,9.75 3,9.75 Z"/>
  <path fill="#292D32" d="M22,9.75 L21,9.75 C17.58,9.75 16.25,8.42 16.25,5 L16.25,4 C16.25,3.59 16.59,3.25 17,3.25 C17.41,3.25 17.75,3.59 17.75,4 L17.75,5 C17.75,7.58 18.42,8.25 21,8.25 L22,8.25 C22.41,8.25 22.75,8.59 22.75,9 C22.75,9.41 22.41,9.75 22,9.75 Z"/>
  <path fill="#292D32" d="M7,20.75 C6.59,20.75 6.25,20.41 6.25,20 L6.25,19 C6.25,16.42 5.58,15.75 3,15.75 L2,15.75 C1.59,15.75 1.25,15.41 1.25,15 C1.25,14.59 1.59,14.25 2,14.25 L3,14.25 C6.42,14.25 7.75,15.58 7.75,19 L7.75,20 C7.75,20.41 7.41,20.75 7,20.75 Z"/>
  <path fill="#292D32" d="M17,20.75 C16.59,20.75 16.25,20.41 16.25,20 L16.25,19 C16.25,15.58 17.58,14.25 21,14.25 L22,14.25 C22.41,14.25 22.75,14.59 22.75,15 C22.75,15.41 22.41,15.75 22,15.75 L21,15.75 C18.42,15.75 17.75,16.42 17.75,19 L17.75,20 C17.75,20.41 17.41,20.75 17,20.75 Z"/>
</svg>

