<svg xmlns="http://www.w3.org/2000/svg" width="24" height="24" viewBox="0 0 24 24">
  <defs/>
  <path fill="#292D32" d="M1.25,8.5 Q1.25,2.75 7,2.75 L17,2.75 Q22.75,2.75 22.75,8.5 L22.75,15.5 Q22.75,21.25 17,21.25 L7,21.25 Q1.25,21.25 1.25,15.5 L1.25,12.53 Q1.25,12.219 1.47,12 Q1.689,11.78 2,11.78 Q2.311,11.78 2.53,12 Q2.75,12.219 2.75,12.53 L2.75,15.5 Q2.75,19.75 7,19.75 L17,19.75 Q21.25,19.75 21.25,15.5 L21.25,8.5 Q21.25,4.25 17,4.25 L7,4.25 Q2.75,4.25 2.75,8.5 Q2.75,8.811 2.53,9.03 Q2.311,9.25 2,9.25 Q1.689,9.25 1.47,9.03 Q1.25,8.811 1.25,8.5 Z"/>
  <path fill="#292D32" d="M14.25,12 Q14.25,9.75 12,9.75 Q9.75,9.75 9.75,12 Q9.75,14.25 12,14.25 Q12.311,14.25 12.53,14.47 Q12.75,14.689 12.75,15 Q12.75,15.311 12.53,15.53 Q12.311,15.75 12,15.75 Q8.25,15.75 8.25,12 Q8.25,8.25 12,8.25 Q15.75,8.25 15.75,12 Q15.75,12.311 15.53,12.53 Q15.311,12.75 15,12.75 Q14.689,12.75 14.47,12.53 Q14.25,12.311 14.25,12 Z"/>
  <path fill="#292D32" d="M19,7.75 L16,7.75 Q15.689,7.75 15.47,7.53 Q15.25,7.311 15.25,7 Q15.25,6.689 15.47,6.47 Q15.689,6.25 16,6.25 L19,6.25 Q19.311,6.25 19.53,6.47 Q19.75,6.689 19.75,7 Q19.75,7.311 19.53,7.53 Q19.311,7.75 19,7.75 Z"/>
  <path fill="#292D32" d="M8,17.75 L5,17.75 Q4.689,17.75 4.47,17.53 Q4.25,17.311 4.25,17 Q4.25,16.689 4.47,16.47 Q4.689,16.25 5,16.25 L8,16.25 Q8.311,16.25 8.53,16.47 Q8.75,16.689 8.75,17 Q8.75,17.311 8.53,17.53 Q8.311,17.75 8,17.75 Z"/>
</svg>

