<svg xmlns="http://www.w3.org/2000/svg" width="24" height="24" viewBox="0 0 24 24">
  <defs/>
  <path fill="#292D32" d="M1.25,8.5 Q1.25,2.75 7,2.75 L17,2.75 Q22.75,2.75 22.75,8.5 L22.75,15.5 Q22.75,21.25 17,21.25 L7,21.25 Q1.25,21.25 1.25,15.5 L1.25,12.53 Q1.25,12.219 1.47,12 Q1.689,11.78 2,11.78 Q2.311,11.78 2.53,12 Q2.75,12.219 2.75,12.53 L2.75,15.5 Q2.75,19.75 7,19.75 L17,19.75 Q21.25,19.75 21.25,15.5 L21.25,8.5 Q21.25,4.25 17,4.25 L7,4.25 Q2.75,4.25 2.75,8.5 Q2.75,8.811 2.53,9.03 Q2.311,9.25 2,9.25 Q1.689,9.25 1.47,9.03 Q1.25,8.811 1.25,8.5 Z"/>
  <path fill="#292D32" d="M14.25,12 Q14.25,9.75 12,9.75 Q9.75,9.75 9.75,12 Q9.75,14.25 12,14.25 Q12.32,14.25 12.56,14.18 Q12.858,14.093 13.131,14.242 Q13.403,14.392 13.49,14.69 Q13.577,14.988 13.428,15.261 Q13.278,15.533 12.98,15.62 Q12.534,15.75 12,15.75 Q8.25,15.75 8.25,12 Q8.25,8.25 12,8.25 Q15.75,8.25 15.75,12 Q15.75,12.311 15.53,12.53 Q15.311,12.75 15,12.75 Q14.689,12.75 14.47,12.53 Q14.25,12.311 14.25,12 Z"/>
  <path fill="#292D32" d="M6.25,9.5 L6.25,14.5 Q6.25,14.811 6.03,15.03 Q5.811,15.25 5.5,15.25 Q5.189,15.25 4.97,15.03 Q4.75,14.811 4.75,14.5 L4.75,9.5 Q4.75,9.189 4.97,8.97 Q5.189,8.75 5.5,8.75 Q5.811,8.75 6.03,8.97 Q6.25,9.189 6.25,9.5 Z"/>
  <path fill="#292D32" d="M19.25,9.5 L19.25,14.5 Q19.25,14.811 19.03,15.03 Q18.811,15.25 18.5,15.25 Q18.189,15.25 17.97,15.03 Q17.75,14.811 17.75,14.5 L17.75,9.5 Q17.75,9.189 17.97,8.97 Q18.189,8.75 18.5,8.75 Q18.811,8.75 19.03,8.97 Q19.25,9.189 19.25,9.5 Z"/>
</svg>

