<svg xmlns="http://www.w3.org/2000/svg" width="24" height="24" viewBox="0 0 24 24">
  <defs/>
  <path d="M3.181,15.029 C2.831,15.029 2.581,15.379 2.711,15.699 C4.181,19.399 7.791,21.999 12.001,21.999 C16.221,21.999 19.831,19.379 21.301,15.669 C21.431,15.349 21.171,14.999 20.831,14.999 L17.501,14.999 C17.221,14.999 17.001,14.779 17.001,14.499 L17.001,11.759 C17.001,10.839 15.851,10.409 15.251,11.109 L12.381,14.539 C12.181,14.779 11.811,14.779 11.611,14.539 L8.741,11.109 C8.151,10.409 7.001,10.839 7.001,11.759 L7.001,14.499 C7.001,14.779 6.781,14.999 6.501,14.999 L3.181,15.029 Z"/>
  <path d="M22,12.14 C22,12.45 21.98,12.76 21.94,13.06 C21.91,13.31 21.69,13.5 21.43,13.5 L19,13.5 C18.72,13.5 18.5,13.28 18.5,13 L18.5,11.9 C18.5,10.89 17.96,9.91 17.04,9.49 C16.01,9.02 14.84,9.28 14.1,10.15 L12.38,12.2 C12.18,12.44 11.81,12.44 11.61,12.2 L9.88,10.13 C9.16,9.28 8,9.02 6.96,9.49 C6.04,9.91 5.5,10.89 5.5,11.9 L5.5,12.88 C5.5,13.3 5.28,13.52 5,13.52 L2.56,13.53 C2.31,13.53 2.08,13.34 2.05,13.09 C2.02,12.73 2,12.37 2,12 C2,5.95 7.39,1.14 13.63,2.13 C18.46,2.89 22.07,7.24 22,12.14 Z"/>
</svg>

