<svg xmlns="http://www.w3.org/2000/svg" width="24" height="24" viewBox="0 0 24 24">
  <defs/>
  <path fill="#292D32" d="M12,15.25 C10.21,15.25 8.75,13.79 8.75,12 C8.75,10.21 10.21,8.75 12,8.75 C13.79,8.75 15.25,10.21 15.25,12 C15.25,13.79 13.79,15.25 12,15.25 Z M12,10.25 C11.04,10.25 10.25,11.04 10.25,12 C10.25,12.96 11.04,13.75 12,13.75 C12.96,13.75 13.75,12.96 13.75,12 C13.75,11.04 12.96,10.25 12,10.25 Z"/>
  <path fill="#292D32" d="M18.5,15.25 C18.09,15.25 17.75,14.91 17.75,14.5 L17.75,9.5 C17.75,9.09 18.09,8.75 18.5,8.75 C18.91,8.75 19.25,9.09 19.25,9.5 L19.25,14.5 C19.25,14.91 18.91,15.25 18.5,15.25 Z"/>
  <path fill="#292D32" d="M5,22.75 C3.34,22.75 1.78,21.87 0.94,20.44 C0.49,19.72 0.25,18.87 0.25,18 C0.25,15.38 2.38,13.25 5,13.25 C7.62,13.25 9.75,15.38 9.75,18 C9.75,18.87 9.51,19.72 9.06,20.45 C8.22,21.87 6.66,22.75 5,22.75 Z M5,14.75 C3.21,14.75 1.75,16.21 1.75,18 C1.75,18.59 1.91,19.17 2.22,19.67 C2.8,20.65 3.87,21.25 5,21.25 C6.13,21.25 7.2,20.65 7.78,19.68 C8.09,19.17 8.25,18.6 8.25,18 C8.25,16.21 6.79,14.75 5,14.75 Z"/>
  <path fill="#292D32" d="M6.5,18.73 L3.51,18.73 C3.1,18.73 2.76,18.39 2.76,17.98 C2.76,17.57 3.1,17.23 3.51,17.23 L6.5,17.23 C6.91,17.23 7.25,17.57 7.25,17.98 C7.25,18.39 6.91,18.73 6.5,18.73 Z"/>
  <path fill="#292D32" d="M5,20.26 C4.59,20.26 4.25,19.92 4.25,19.51 L4.25,16.52 C4.25,16.11 4.59,15.77 5,15.77 C5.41,15.77 5.75,16.11 5.75,16.52 L5.75,19.51 C5.75,19.93 5.41,20.26 5,20.26 Z"/>
  <path fill="#292D32" d="M17,20.75 L8.5,20.75 C8.09,20.75 7.75,20.41 7.75,20 C7.75,19.59 8.09,19.25 8.5,19.25 L17,19.25 C19.86,19.25 21.25,17.86 21.25,15 L21.25,9 C21.25,6.14 19.86,4.75 17,4.75 L7,4.75 C4.14,4.75 2.75,6.14 2.75,9 L2.75,15.3 C2.75,15.71 2.41,16.05 2,16.05 C1.59,16.05 1.25,15.71 1.25,15.3 L1.25,9 C1.25,5.35 3.35,3.25 7,3.25 L17,3.25 C20.65,3.25 22.75,5.35 22.75,9 L22.75,15 C22.75,18.65 20.65,20.75 17,20.75 Z"/>
</svg>

