<svg xmlns="http://www.w3.org/2000/svg" width="24" height="24" viewBox="0 0 24 24">
  <defs/>
  <path fill="#292D32" d="M14.889,18.22 L6.099,18.22 C5.579,18.22 5.089,18.17 4.649,18.07 C4.419,18.04 4.139,17.96 3.849,17.85 C2.519,17.35 0.949,16.12 0.949,13.06 L0.949,7.91 C0.949,4.64 2.829,2.76 6.099,2.76 L14.889,2.76 C17.649,2.76 19.429,4.08 19.909,6.48 C19.999,6.92 20.039,7.39 20.039,7.91 L20.039,13.06 C20.039,16.35 18.169,18.22 14.889,18.22 Z M6.109,4.28 C3.649,4.28 2.459,5.47 2.459,7.93 L2.459,13.08 C2.459,14.87 3.089,15.97 4.379,16.46 C4.579,16.53 4.769,16.58 4.949,16.61 C5.329,16.69 5.699,16.73 6.109,16.73 L14.899,16.73 C17.359,16.73 18.549,15.54 18.549,13.08 L18.549,7.93 C18.549,7.51 18.519,7.14 18.449,6.8 C18.109,5.1 16.949,4.28 14.899,4.28 L6.109,4.28 Z"/>
  <path fill="#292D32" d="M17.891,21.22 L9.101,21.22 C8.251,21.22 7.491,21.1 6.841,20.85 C5.371,20.3 4.411,19.14 4.081,17.48 C4.031,17.23 4.111,16.97 4.291,16.8 C4.471,16.62 4.731,16.55 4.981,16.61 C5.311,16.68 5.681,16.72 6.101,16.72 L14.891,16.72 C17.351,16.72 18.541,15.53 18.541,13.07 L18.541,7.92 C18.541,7.5 18.511,7.13 18.441,6.79 C18.391,6.54 18.471,6.29 18.641,6.11 C18.821,5.93 19.071,5.85 19.321,5.91 C21.721,6.4 23.041,8.18 23.041,10.92 L23.041,16.07 C23.041,19.35 21.171,21.22 17.891,21.22 Z M5.921,18.22 C6.241,18.8 6.721,19.21 7.381,19.45 C7.861,19.63 8.441,19.72 9.111,19.72 L17.901,19.72 C20.361,19.72 21.551,18.53 21.551,16.07 L21.551,10.92 C21.551,9.34 21.061,8.29 20.051,7.74 C20.051,7.8 20.051,7.86 20.051,7.92 L20.051,13.07 C20.051,16.34 18.171,18.22 14.901,18.22 L6.111,18.22 C6.041,18.22 5.981,18.22 5.921,18.22 Z"/>
  <path fill="#292D32" d="M10.499,13.89 C8.629,13.89 7.109,12.37 7.109,10.5 C7.109,8.63 8.629,7.11 10.499,7.11 C12.369,7.11 13.889,8.63 13.889,10.5 C13.889,12.37 12.369,13.89 10.499,13.89 Z M10.499,8.61 C9.459,8.61 8.609,9.46 8.609,10.5 C8.609,11.54 9.459,12.39 10.499,12.39 C11.539,12.39 12.389,11.54 12.389,10.5 C12.389,9.46 11.539,8.61 10.499,8.61 Z"/>
  <path fill="#292D32" d="M4.781,13.45 C4.371,13.45 4.031,13.11 4.031,12.7 L4.031,8.3 C4.031,7.89 4.371,7.55 4.781,7.55 C5.191,7.55 5.531,7.89 5.531,8.3 L5.531,12.7 C5.531,13.11 5.201,13.45 4.781,13.45 Z"/>
  <path fill="#292D32" d="M16.211,13.45 C15.801,13.45 15.461,13.11 15.461,12.7 L15.461,8.3 C15.461,7.89 15.801,7.55 16.211,7.55 C16.621,7.55 16.961,7.89 16.961,8.3 L16.961,12.7 C16.961,13.11 16.631,13.45 16.211,13.45 Z"/>
</svg>

