<svg xmlns="http://www.w3.org/2000/svg" width="24" height="24" viewBox="0 0 24 24">
  <defs/>
  <path d="M12,22.75 C7.3,22.75 3.18,19.74 1.76,15.27 C1.69,15.04 1.73,14.8 1.87,14.6 C2.01,14.41 2.23,14.29 2.47,14.29 L6.26,14.26 L6.26,9 C6.26,8.68 6.46,8.4 6.75,8.29 C7.05,8.18 7.38,8.27 7.58,8.52 L12,13.83 L16.42,8.52 C16.62,8.28 16.96,8.19 17.25,8.29 C17.55,8.4 17.74,8.68 17.74,9 L17.74,14.25 L21.53,14.25 C21.77,14.25 21.99,14.36 22.13,14.56 C22.27,14.75 22.31,15 22.24,15.23 C20.84,19.73 16.71,22.75 12,22.75 Z M3.55,15.78 C5.03,19.09 8.3,21.25 12,21.25 C15.71,21.25 18.99,19.08 20.46,15.75 L17,15.75 C16.59,15.75 16.25,15.41 16.25,15 L16.25,11.07 L12.58,15.48 C12.29,15.82 11.71,15.82 11.43,15.48 L7.76,11.07 L7.76,15 C7.76,15.41 7.43,15.75 7.02,15.75 L3.55,15.78 Z"/>
  <path d="M2.47,15.79 C2.14,15.79 1.85,15.58 1.75,15.26 C1.42,14.19 1.25,13.09 1.25,12 C1.25,6.07 6.07,1.25 12,1.25 C17.93,1.25 22.75,6.07 22.75,12 C22.75,13.1 22.58,14.19 22.26,15.23 C22.16,15.54 21.87,15.75 21.54,15.75 L17,15.75 C16.59,15.75 16.25,15.41 16.25,15 L16.25,11.07 L12.58,15.48 C12.29,15.82 11.71,15.82 11.43,15.48 L7.76,11.07 L7.76,15 C7.76,15.41 7.43,15.75 7.02,15.75 L2.47,15.79 Z M12,2.75 C6.9,2.75 2.75,6.9 2.75,12 C2.75,12.76 2.85,13.53 3.04,14.29 L6.25,14.26 L6.25,9 C6.25,8.68 6.45,8.4 6.74,8.29 C7.04,8.18 7.37,8.27 7.57,8.52 L12,13.83 L16.42,8.52 C16.62,8.28 16.96,8.19 17.25,8.29 C17.55,8.4 17.74,8.68 17.74,9 L17.74,14.25 L20.96,14.25 C21.14,13.52 21.24,12.76 21.24,12 C21.25,6.9 17.1,2.75 12,2.75 Z"/>
</svg>

