<svg xmlns="http://www.w3.org/2000/svg" width="24" height="24" viewBox="0 0 24 24">
  <defs/>
  <path fill="#292D32" d="M17,3.5 L7,3.5 C4,3.5 2,5 2,8.5 L2,15.5 C2,19 4,20.5 7,20.5 L17,20.5 C20,20.5 22,19 22,15.5 L22,8.5 C22,5 20,3.5 17,3.5 Z M6.25,14.5 C6.25,14.91 5.91,15.25 5.5,15.25 C5.09,15.25 4.75,14.91 4.75,14.5 L4.75,9.5 C4.75,9.09 5.09,8.75 5.5,8.75 C5.91,8.75 6.25,9.09 6.25,9.5 L6.25,14.5 Z M12,15 C10.34,15 9,13.66 9,12 C9,10.34 10.34,9 12,9 C13.66,9 15,10.34 15,12 C15,13.66 13.66,15 12,15 Z M19.25,14.5 C19.25,14.91 18.91,15.25 18.5,15.25 C18.09,15.25 17.75,14.91 17.75,14.5 L17.75,9.5 C17.75,9.09 18.09,8.75 18.5,8.75 C18.91,8.75 19.25,9.09 19.25,9.5 L19.25,14.5 Z"/>
</svg>

