<svg xmlns="http://www.w3.org/2000/svg" width="24" height="24" viewBox="0 0 24 24">
  <defs/>
  <path d="M22.256,15.226 Q21.211,18.539 18.415,20.624 Q15.564,22.75 12.001,22.75 Q8.446,22.75 5.6,20.637 Q2.809,18.566 1.756,15.268 Q1.662,14.972 1.804,14.696 Q1.947,14.42 2.243,14.326 Q2.351,14.291 2.464,14.29 L6.251,14.257 L6.251,9 Q6.251,8.689 6.47,8.47 Q6.69,8.25 7.001,8.25 Q7.352,8.25 7.577,8.52 L12.001,13.828 L16.425,8.52 Q16.623,8.281 16.933,8.253 Q17.242,8.225 17.481,8.424 Q17.751,8.649 17.751,9 L17.751,14.25 L21.541,14.25 Q21.851,14.25 22.071,14.47 Q22.291,14.689 22.291,15 Q22.291,15.115 22.256,15.226 Z M20.476,15.75 L17.001,15.75 Q16.69,15.75 16.47,15.53 Q16.251,15.311 16.251,15 L16.251,11.072 L12.577,15.48 Q12.533,15.533 12.481,15.576 Q12.242,15.775 11.933,15.747 Q11.623,15.719 11.425,15.48 L7.751,11.072 L7.751,15 Q7.751,15.309 7.533,15.528 Q7.316,15.747 7.007,15.75 L3.536,15.781 Q5.77,21.25 12.001,21.25 Q18.252,21.25 20.476,15.75 Z"/>
  <path d="M21.541,15.75 L17.001,15.75 Q16.69,15.75 16.47,15.53 Q16.251,15.311 16.251,15 L16.251,11.072 L12.577,15.48 Q12.378,15.719 12.069,15.747 Q11.759,15.775 11.521,15.576 Q11.468,15.533 11.425,15.48 L7.751,11.072 L7.751,15 Q7.751,15.309 7.533,15.528 Q7.316,15.747 7.007,15.75 L2.477,15.79 Q2.167,15.793 1.945,15.575 Q1.723,15.357 1.721,15.047 Q1.718,14.736 1.936,14.514 Q2.153,14.293 2.464,14.29 L6.251,14.257 L6.251,9 Q6.251,8.649 6.521,8.424 Q6.759,8.225 7.069,8.253 Q7.378,8.281 7.577,8.52 L12.001,13.828 L16.425,8.52 Q16.649,8.25 17.001,8.25 Q17.311,8.25 17.531,8.47 Q17.751,8.689 17.751,9 L17.751,14.25 L21.541,14.25 Q21.851,14.25 22.071,14.47 Q22.291,14.689 22.291,15 Q22.291,15.311 22.071,15.53 Q21.851,15.75 21.541,15.75 Z"/>
  <path fill="#17191C" d="M4.6,6.449 Q2.75,8.922 2.75,12 Q2.75,15.829 5.46,18.54 Q8.171,21.25 12,21.25 Q15.829,21.25 18.54,18.54 Q21.25,15.829 21.25,12 Q21.25,8.171 18.54,5.46 Q15.829,2.75 12,2.75 Q10.031,2.75 8.276,3.535 Q7.993,3.661 7.702,3.551 Q7.412,3.44 7.285,3.156 Q7.159,2.873 7.269,2.582 Q7.38,2.292 7.664,2.165 Q9.711,1.25 12,1.25 Q16.451,1.25 19.6,4.4 Q22.75,7.549 22.75,12 Q22.75,16.451 19.6,19.6 Q16.451,22.75 12,22.75 Q7.549,22.75 4.4,19.6 Q1.25,16.451 1.25,12 Q1.25,8.422 3.4,5.551 Q3.586,5.302 3.893,5.258 Q4.201,5.213 4.449,5.4 Q4.698,5.586 4.742,5.893 Q4.787,6.201 4.6,6.449 Z"/>
</svg>

