<svg xmlns="http://www.w3.org/2000/svg" width="24" height="24" viewBox="0 0 24 24">
  <defs/>
  <path fill="#292D32" opacity="0.4" d="M17,7.75 C16.81,7.75 16.62,7.68 16.47,7.53 C16.18,7.24 16.18,6.76 16.47,6.47 L18.52,4.42 C16.76,2.92 14.49,2 12,2 C6.48,2 2,6.48 2,12 C2,17.52 6.48,22 12,22 C17.52,22 22,17.52 22,12 C22,9.51 21.08,7.24 19.58,5.48 L17.53,7.53 C17.38,7.68 17.19,7.75 17,7.75 Z"/>
  <path fill="#292D32" d="M13.75,11.82 L12.75,11.47 L12.75,9.25 L12.83,9.25 C13.34,9.25 13.75,9.7 13.75,10.25 C13.75,10.66 14.09,11 14.5,11 C14.91,11 15.25,10.66 15.25,10.25 C15.25,8.87 14.17,7.75 12.83,7.75 L12.75,7.75 L12.75,7.5 C12.75,7.09 12.41,6.75 12,6.75 C11.59,6.75 11.25,7.09 11.25,7.5 L11.25,7.75 L10.95,7.75 C9.74,7.75 8.75,8.77 8.75,10.03 C8.75,11.49 9.6,11.96 10.25,12.19 L11.25,12.54 L11.25,14.76 L11.17,14.76 C10.66,14.76 10.25,14.31 10.25,13.76 C10.25,13.35 9.91,13.01 9.5,13.01 C9.09,13.01 8.75,13.35 8.75,13.76 C8.75,15.14 9.83,16.26 11.17,16.26 L11.25,16.26 L11.25,16.51 C11.25,16.92 11.59,17.26 12,17.26 C12.41,17.26 12.75,16.92 12.75,16.51 L12.75,16.26 L13.05,16.26 C14.26,16.26 15.25,15.24 15.25,13.98 C15.25,12.51 14.4,12.04 13.75,11.82 Z M10.74,10.76 C10.4,10.64 10.25,10.57 10.25,10.02 C10.25,9.59 10.57,9.24 10.95,9.24 L11.25,9.24 L11.25,10.93 L10.74,10.76 Z M13.05,14.75 L12.75,14.75 L12.75,13.06 L13.26,13.24 C13.6,13.36 13.75,13.43 13.75,13.98 C13.75,14.4 13.43,14.75 13.05,14.75 Z"/>
  <path fill="#292D32" d="M22.69,1.71 C22.61,1.53 22.47,1.38 22.28,1.3 C22.19,1.26 22.09,1.24 21.99,1.24 L17.99,1.24 C17.58,1.24 17.24,1.58 17.24,1.99 C17.24,2.4 17.58,2.74 17.99,2.74 L20.18,2.74 L18.51,4.41 C18.89,4.74 19.24,5.09 19.57,5.47 L21.24,3.8 L21.24,6 C21.24,6.41 21.58,6.75 21.99,6.75 C22.4,6.75 22.74,6.41 22.74,6 L22.74,2 C22.75,1.9 22.73,1.81 22.69,1.71 Z"/>
</svg>

