<svg xmlns="http://www.w3.org/2000/svg" width="24" height="24" viewBox="0 0 24 24">
  <defs/>
  <path fill="#292D32" d="M5,14 C2.79,14 1,15.79 1,18 C1,20.21 2.79,22 5,22 C7.21,22 9,20.21 9,18 C9,15.79 7.21,14 5,14 Z M6,17.68 C6,18.29 5.67,18.87 5.15,19.18 L4.39,19.64 C4.27,19.72 4.13,19.75 4,19.75 C3.75,19.75 3.5,19.62 3.36,19.39 C3.15,19.04 3.26,18.57 3.62,18.36 L4.38,17.9 C4.45,17.86 4.5,17.77 4.5,17.69 L4.5,16.76 C4.5,16.34 4.84,16 5.25,16 C5.66,16 6,16.34 6,16.75 L6,17.68 Z"/>
  <path fill="#292D32" d="M17,4 L7,4 C4,4 2,5.5 2,9 L2,12.56 C2,12.93 2.38,13.16 2.71,13.01 C3.69,12.56 4.82,12.39 6.01,12.6 C8.64,13.07 10.57,15.51 10.5,18.18 C10.49,18.6 10.43,19.01 10.32,19.41 C10.24,19.72 10.49,20.01 10.81,20.01 L17,20.01 C20,20.01 22,18.51 22,15.01 L22,9 C22,5.5 20,4 17,4 Z M12,14.5 C10.62,14.5 9.5,13.38 9.5,12 C9.5,10.62 10.62,9.5 12,9.5 C13.38,9.5 14.5,10.62 14.5,12 C14.5,13.38 13.38,14.5 12,14.5 Z M19.25,14 C19.25,14.41 18.91,14.75 18.5,14.75 C18.09,14.75 17.75,14.41 17.75,14 L17.75,10 C17.75,9.59 18.09,9.25 18.5,9.25 C18.91,9.25 19.25,9.59 19.25,10 L19.25,14 Z"/>
</svg>

