<svg xmlns="http://www.w3.org/2000/svg" width="24" height="24" viewBox="0 0 24 24">
  <defs/>
  <path fill="#292D32" opacity="0.4" d="M22,9 L22,15 L21,15 C18,15 17,16 17,19 L17,20.5 L7,20.5 L7,19 C7,16 6,15 3,15 L2,15 L2,9 L3,9 C6,9 7,8 7,5 L7,3.5 L17,3.5 L17,5 C17,8 18,9 21,9 L22,9 Z"/>
  <path fill="#292D32" d="M12,15 C13.657,15 15,13.657 15,12 C15,10.343 13.657,9 12,9 C10.343,9 9,10.343 9,12 C9,13.657 10.343,15 12,15 Z"/>
  <path fill="#292D32" d="M7,3.5 L7,5 C7,8 6,9 3,9 L2,9 L2,8.5 C2,5 4,3.5 7,3.5 Z"/>
  <path fill="#292D32" d="M22,8.5 L22,9 L21,9 C18,9 17,8 17,5 L17,3.5 C20,3.5 22,5 22,8.5 Z"/>
  <path fill="#292D32" d="M7,19 L7,20.5 C4,20.5 2,19 2,15.5 L2,15 L3,15 C6,15 7,16 7,19 Z"/>
  <path fill="#292D32" d="M22,15 L22,15.5 C22,19 20,20.5 17,20.5 L17,19 C17,16 18,15 21,15 L22,15 Z"/>
</svg>

