<svg xmlns="http://www.w3.org/2000/svg" width="24" height="24" viewBox="0 0 24 24">
  <defs/>
  <path fill="#292D32" d="M17,21.25 L7,21.25 C3.35,21.25 1.25,19.15 1.25,15.5 L1.25,8.5 C1.25,4.85 3.35,2.75 7,2.75 L17,2.75 C20.65,2.75 22.75,4.85 22.75,8.5 L22.75,15.5 C22.75,19.15 20.65,21.25 17,21.25 Z M7,4.25 C4.14,4.25 2.75,5.64 2.75,8.5 L2.75,15.5 C2.75,18.36 4.14,19.75 7,19.75 L17,19.75 C19.86,19.75 21.25,18.36 21.25,15.5 L21.25,8.5 C21.25,5.64 19.86,4.25 17,4.25 L7,4.25 Z"/>
  <path fill="#292D32" d="M12,15.75 C9.93,15.75 8.25,14.07 8.25,12 C8.25,9.93 9.93,8.25 12,8.25 C14.07,8.25 15.75,9.93 15.75,12 C15.75,14.07 14.07,15.75 12,15.75 Z M12,9.75 C10.76,9.75 9.75,10.76 9.75,12 C9.75,13.24 10.76,14.25 12,14.25 C13.24,14.25 14.25,13.24 14.25,12 C14.25,10.76 13.24,9.75 12,9.75 Z"/>
  <path fill="#292D32" d="M5.5,15.25 C5.09,15.25 4.75,14.91 4.75,14.5 L4.75,9.5 C4.75,9.09 5.09,8.75 5.5,8.75 C5.91,8.75 6.25,9.09 6.25,9.5 L6.25,14.5 C6.25,14.91 5.91,15.25 5.5,15.25 Z"/>
  <path fill="#292D32" d="M18.5,15.25 C18.09,15.25 17.75,14.91 17.75,14.5 L17.75,9.5 C17.75,9.09 18.09,8.75 18.5,8.75 C18.91,8.75 19.25,9.09 19.25,9.5 L19.25,14.5 C19.25,14.91 18.91,15.25 18.5,15.25 Z"/>
</svg>

