<svg xmlns="http://www.w3.org/2000/svg" width="24" height="24" viewBox="0 0 24 24">
  <defs/>
  <path fill="#292D32" opacity="0.4" d="M22,9 L22,15 C22,18.5 20,20 17,20 L8.45,20 C8.8,19.41 9,18.73 9,18 C9,15.79 7.21,14 5,14 C3.8,14 2.73,14.53 2,15.36 L2,9 C2,5.5 4,4 7,4 L17,4 C20,4 22,5.5 22,9 Z"/>
  <path fill="#292D32" d="M12,14.5 C13.381,14.5 14.5,13.381 14.5,12 C14.5,10.619 13.381,9.5 12,9.5 C10.619,9.5 9.5,10.619 9.5,12 C9.5,13.381 10.619,14.5 12,14.5 Z"/>
  <path fill="#292D32" d="M18.5,14.75 C18.09,14.75 17.75,14.41 17.75,14 L17.75,10 C17.75,9.59 18.09,9.25 18.5,9.25 C18.91,9.25 19.25,9.59 19.25,10 L19.25,14 C19.25,14.41 18.91,14.75 18.5,14.75 Z"/>
  <path fill="#292D32" d="M5,14 C2.79,14 1,15.79 1,18 C1,18.75 1.21,19.46 1.58,20.06 C2.27,21.22 3.54,22 5,22 C6.46,22 7.73,21.22 8.42,20.06 C8.79,19.46 9,18.75 9,18 C9,15.79 7.21,14 5,14 Z M6.49,18.73 L5.75,18.73 L5.75,19.51 C5.75,19.92 5.41,20.26 5,20.26 C4.59,20.26 4.25,19.92 4.25,19.51 L4.25,18.73 L3.51,18.73 C3.1,18.73 2.76,18.39 2.76,17.98 C2.76,17.57 3.1,17.23 3.51,17.23 L4.25,17.23 L4.25,16.52 C4.25,16.11 4.59,15.77 5,15.77 C5.41,15.77 5.75,16.11 5.75,16.52 L5.75,17.23 L6.49,17.23 C6.9,17.23 7.24,17.57 7.24,17.98 C7.24,18.39 6.91,18.73 6.49,18.73 Z"/>
</svg>

