<svg xmlns="http://www.w3.org/2000/svg" width="24" height="24" viewBox="0 0 24 24">
  <defs/>
  <path fill="#292D32" d="M12,15 C13.657,15 15,13.657 15,12 C15,10.343 13.657,9 12,9 C10.343,9 9,10.343 9,12 C9,13.657 10.343,15 12,15 Z"/>
  <path fill="#292D32" d="M17,3.5 L7,3.5 C4,3.5 2,5 2,8.5 L2,9 L2,15 L2,15.5 C2,19 4,20.5 7,20.5 L17,20.5 C20,20.5 22,19 22,15.5 L22,15 L22,9 L22,8.5 C22,5 20,3.5 17,3.5 Z M7,19 C7,16.18 6.09,15.14 3.5,15.02 L3.5,15 L3.5,9 L3.5,8.98 C6.09,8.86 7,7.82 7,5 L17,5 C17,7.82 17.91,8.86 20.5,8.98 L20.5,9 L20.5,15 L20.5,15.02 C17.91,15.14 17,16.18 17,19 L7,19 Z"/>
</svg>

