<svg xmlns="http://www.w3.org/2000/svg" width="24" height="24" viewBox="0 0 24 24">
  <defs/>
  <path fill="#292D32" d="M13.05,16.25 L11.17,16.25 C9.84,16.25 8.75,15.13 8.75,13.75 C8.75,13.34 9.09,13 9.5,13 C9.91,13 10.25,13.34 10.25,13.75 C10.25,14.3 10.66,14.75 11.17,14.75 L13.05,14.75 C13.44,14.75 13.75,14.4 13.75,13.97 C13.75,13.43 13.6,13.35 13.26,13.23 L10.25,12.18 C9.61,11.95 8.75,11.49 8.75,10.02 C8.75,8.77 9.74,7.74 10.95,7.74 L12.83,7.74 C14.16,7.74 15.25,8.86 15.25,10.24 C15.25,10.65 14.91,10.99 14.5,10.99 C14.09,10.99 13.75,10.65 13.75,10.24 C13.75,9.69 13.34,9.24 12.83,9.24 L10.95,9.24 C10.56,9.24 10.25,9.59 10.25,10.02 C10.25,10.56 10.4,10.64 10.74,10.76 L13.75,11.81 C14.39,12.04 15.25,12.5 15.25,13.97 C15.25,15.23 14.26,16.25 13.05,16.25 Z"/>
  <path fill="#292D32" d="M12,17.25 C11.59,17.25 11.25,16.91 11.25,16.5 L11.25,7.5 C11.25,7.09 11.59,6.75 12,6.75 C12.41,6.75 12.75,7.09 12.75,7.5 L12.75,16.5 C12.75,16.91 12.41,17.25 12,17.25 Z"/>
  <path fill="#292D32" d="M12,22.75 C6.07,22.75 1.25,17.93 1.25,12 C1.25,6.07 6.07,1.25 12,1.25 C12.41,1.25 12.75,1.59 12.75,2 C12.75,2.41 12.41,2.75 12,2.75 C6.9,2.75 2.75,6.9 2.75,12 C2.75,17.1 6.9,21.25 12,21.25 C17.1,21.25 21.25,17.1 21.25,12 C21.25,11.59 21.59,11.25 22,11.25 C22.41,11.25 22.75,11.59 22.75,12 C22.75,17.93 17.93,22.75 12,22.75 Z"/>
  <path fill="#292D32" d="M22,6.75 C21.59,6.75 21.25,6.41 21.25,6 L21.25,2.75 L18,2.75 C17.59,2.75 17.25,2.41 17.25,2 C17.25,1.59 17.59,1.25 18,1.25 L22,1.25 C22.41,1.25 22.75,1.59 22.75,2 L22.75,6 C22.75,6.41 22.41,6.75 22,6.75 Z"/>
  <path fill="#292D32" d="M17,7.75 C16.809,7.75 16.619,7.68 16.47,7.53 C16.18,7.24 16.18,6.76 16.47,6.47 L21.47,1.47 C21.759,1.18 22.239,1.18 22.529,1.47 C22.82,1.76 22.82,2.24 22.529,2.53 L17.529,7.53 C17.38,7.68 17.189,7.75 17,7.75 Z"/>
</svg>

