<svg xmlns="http://www.w3.org/2000/svg" width="24" height="24" viewBox="0 0 24 24">
  <defs/>
  <path fill="#292D32" d="M1.25,8.5 Q1.25,2.75 7,2.75 L17,2.75 Q22.75,2.75 22.75,8.5 L22.75,15.5 Q22.75,21.25 17,21.25 L7,21.25 Q1.25,21.25 1.25,15.5 L1.25,12.53 Q1.25,12.219 1.47,12 Q1.689,11.78 2,11.78 Q2.311,11.78 2.53,12 Q2.75,12.219 2.75,12.53 L2.75,15.5 Q2.75,19.75 7,19.75 L17,19.75 Q21.25,19.75 21.25,15.5 L21.25,8.5 Q21.25,4.25 17,4.25 L7,4.25 Q2.75,4.25 2.75,8.5 Q2.75,8.811 2.53,9.03 Q2.311,9.25 2,9.25 Q1.689,9.25 1.47,9.03 Q1.25,8.811 1.25,8.5 Z"/>
  <path fill="#292D32" d="M14.25,12 Q14.25,9.75 12,9.75 Q9.75,9.75 9.75,12 Q9.75,14.25 12,14.25 Q12.311,14.25 12.53,14.47 Q12.75,14.689 12.75,15 Q12.75,15.311 12.53,15.53 Q12.311,15.75 12,15.75 Q8.25,15.75 8.25,12 Q8.25,8.25 12,8.25 Q15.75,8.25 15.75,12 Q15.75,12.311 15.53,12.53 Q15.311,12.75 15,12.75 Q14.689,12.75 14.47,12.53 Q14.25,12.311 14.25,12 Z"/>
  <path fill="#292D32" d="M8.5,6.75 L7,6.75 Q5.25,6.75 5.25,8.5 L5.25,10 Q5.25,10.311 5.03,10.53 Q4.811,10.75 4.5,10.75 Q4.189,10.75 3.97,10.53 Q3.75,10.311 3.75,10 L3.75,8.5 Q3.75,5.25 7,5.25 L8.5,5.25 Q8.811,5.25 9.03,5.47 Q9.25,5.689 9.25,6 Q9.25,6.311 9.03,6.53 Q8.811,6.75 8.5,6.75 Z"/>
  <path fill="#292D32" d="M15.5,5.25 L17,5.25 Q18.346,5.25 19.298,6.202 Q20.25,7.154 20.25,8.5 L20.25,10 Q20.25,10.311 20.03,10.53 Q19.811,10.75 19.5,10.75 Q19.189,10.75 18.97,10.53 Q18.75,10.311 18.75,10 L18.75,8.5 Q18.75,6.75 17,6.75 L15.5,6.75 Q15.189,6.75 14.97,6.53 Q14.75,6.311 14.75,6 Q14.75,5.689 14.97,5.47 Q15.189,5.25 15.5,5.25 Z"/>
  <path fill="#292D32" d="M8.5,18.75 L7,18.75 Q3.75,18.75 3.75,15.5 L3.75,14 Q3.75,13.689 3.97,13.47 Q4.189,13.25 4.5,13.25 Q4.811,13.25 5.03,13.47 Q5.25,13.689 5.25,14 L5.25,15.5 Q5.25,16.224 5.763,16.737 Q6.276,17.25 7,17.25 L8.5,17.25 Q8.811,17.25 9.03,17.47 Q9.25,17.689 9.25,18 Q9.25,18.311 9.03,18.53 Q8.811,18.75 8.5,18.75 Z"/>
  <path fill="#292D32" d="M15.5,17.25 L17,17.25 Q17.724,17.25 18.237,16.737 Q18.75,16.224 18.75,15.5 L18.75,14 Q18.75,13.689 18.97,13.47 Q19.189,13.25 19.5,13.25 Q19.811,13.25 20.03,13.47 Q20.25,13.689 20.25,14 L20.25,15.5 Q20.25,16.846 19.298,17.798 Q18.346,18.75 17,18.75 L15.5,18.75 Q15.189,18.75 14.97,18.53 Q14.75,18.311 14.75,18 Q14.75,17.689 14.97,17.47 Q15.189,17.25 15.5,17.25 Z"/>
</svg>

