<svg xmlns="http://www.w3.org/2000/svg" width="24" height="24" viewBox="0 0 24 24">
  <defs/>
  <path fill="#292D32" d="M5,14 C2.79,14 1,15.79 1,18 C1,20.21 2.79,22 5,22 C7.21,22 9,20.21 9,18 C9,15.79 7.21,14 5,14 Z M6,17.68 C6,18.29 5.67,18.87 5.15,19.18 L4.39,19.64 C4.27,19.71 4.14,19.75 4.01,19.75 C3.76,19.75 3.51,19.62 3.37,19.39 C3.16,19.04 3.27,18.57 3.63,18.36 L4.39,17.9 C4.46,17.86 4.51,17.77 4.51,17.69 L4.51,16.76 C4.51,16.35 4.85,16.01 5.26,16.01 C5.67,16.01 6.01,16.35 6.01,16.76 L6.01,17.68 L6,17.68 Z"/>
  <path fill="#292D32" opacity="0.4" d="M22,9 L22,15 C22,18.5 20,20 17,20 L8.45,20 C8.8,19.41 9,18.73 9,18 C9,15.79 7.21,14 5,14 C3.8,14 2.73,14.53 2,15.36 L2,9 C2,5.5 4,4 7,4 L17,4 C20,4 22,5.5 22,9 Z"/>
  <path fill="#292D32" d="M12,14.5 C13.381,14.5 14.5,13.381 14.5,12 C14.5,10.619 13.381,9.5 12,9.5 C10.619,9.5 9.5,10.619 9.5,12 C9.5,13.381 10.619,14.5 12,14.5 Z"/>
  <path fill="#292D32" d="M18.5,14.75 C18.09,14.75 17.75,14.41 17.75,14 L17.75,10 C17.75,9.59 18.09,9.25 18.5,9.25 C18.91,9.25 19.25,9.59 19.25,10 L19.25,14 C19.25,14.41 18.91,14.75 18.5,14.75 Z"/>
</svg>

