<svg xmlns="http://www.w3.org/2000/svg" width="24" height="24" viewBox="0 0 24 24">
  <defs/>
  <path fill="#292D32" opacity="0.4" d="M19.301,7.92 L19.301,13.07 C19.301,16.15 17.541,17.47 14.901,17.47 L6.111,17.47 C5.661,17.47 5.231,17.43 4.831,17.34 C4.581,17.3 4.341,17.23 4.121,17.15 C2.621,16.59 1.711,15.29 1.711,13.07 L1.711,7.92 C1.711,4.84 3.471,3.52 6.111,3.52 L14.901,3.52 C17.141,3.52 18.751,4.47 19.181,6.64 C19.251,7.04 19.301,7.45 19.301,7.92 Z"/>
  <path fill="#292D32" d="M22.3,10.92 L22.3,16.07 C22.3,19.15 20.54,20.47 17.9,20.47 L9.11,20.47 C8.37,20.47 7.7,20.37 7.12,20.15 C5.93,19.71 5.12,18.8 4.83,17.34 C5.23,17.43 5.66,17.47 6.11,17.47 L14.9,17.47 C17.54,17.47 19.3,16.15 19.3,13.07 L19.3,7.92 C19.3,7.45 19.26,7.03 19.18,6.64 C21.08,7.04 22.3,8.38 22.3,10.92 Z"/>
  <path fill="#292D32" d="M10.499,13.14 C11.957,13.14 13.139,11.958 13.139,10.5 C13.139,9.042 11.957,7.86 10.499,7.86 C9.041,7.86 7.859,9.042 7.859,10.5 C7.859,11.958 9.041,13.14 10.499,13.14 Z"/>
  <path fill="#292D32" d="M4.779,8.25 C4.369,8.25 4.029,8.59 4.029,9 L4.029,12 C4.029,12.41 4.369,12.75 4.779,12.75 C5.189,12.75 5.529,12.41 5.529,12 L5.529,9 C5.529,8.59 5.199,8.25 4.779,8.25 Z"/>
  <path fill="#292D32" d="M16.211,8.25 C15.801,8.25 15.461,8.59 15.461,9 L15.461,12 C15.461,12.41 15.801,12.75 16.211,12.75 C16.621,12.75 16.961,12.41 16.961,12 L16.961,9 C16.961,8.59 16.631,8.25 16.211,8.25 Z"/>
</svg>

