<svg xmlns="http://www.w3.org/2000/svg" width="24" height="24" viewBox="0 0 24 24">
  <defs/>
  <path fill="#292D32" d="M17,21.25 L7,21.25 C3.35,21.25 1.25,19.15 1.25,15.5 L1.25,8.5 C1.25,4.85 3.35,2.75 7,2.75 L17,2.75 C20.65,2.75 22.75,4.85 22.75,8.5 L22.75,15.5 C22.75,19.15 20.65,21.25 17,21.25 Z M7,4.25 C4.14,4.25 2.75,5.64 2.75,8.5 L2.75,15.5 C2.75,18.36 4.14,19.75 7,19.75 L17,19.75 C19.86,19.75 21.25,18.36 21.25,15.5 L21.25,8.5 C21.25,5.64 19.86,4.25 17,4.25 L7,4.25 Z"/>
  <path fill="#292D32" d="M12,15.75 C9.93,15.75 8.25,14.07 8.25,12 C8.25,9.93 9.93,8.25 12,8.25 C14.07,8.25 15.75,9.93 15.75,12 C15.75,14.07 14.07,15.75 12,15.75 Z M12,9.75 C10.76,9.75 9.75,10.76 9.75,12 C9.75,13.24 10.76,14.25 12,14.25 C13.24,14.25 14.25,13.24 14.25,12 C14.25,10.76 13.24,9.75 12,9.75 Z"/>
  <path fill="#292D32" d="M19,7.75 L16,7.75 C15.59,7.75 15.25,7.41 15.25,7 C15.25,6.59 15.59,6.25 16,6.25 L19,6.25 C19.41,6.25 19.75,6.59 19.75,7 C19.75,7.41 19.41,7.75 19,7.75 Z"/>
  <path fill="#292D32" d="M8,17.75 L5,17.75 C4.59,17.75 4.25,17.41 4.25,17 C4.25,16.59 4.59,16.25 5,16.25 L8,16.25 C8.41,16.25 8.75,16.59 8.75,17 C8.75,17.41 8.41,17.75 8,17.75 Z"/>
</svg>

