<svg xmlns="http://www.w3.org/2000/svg" width="24" height="24" viewBox="0 0 24 24">
  <defs/>
  <path fill="#292D32" d="M22.75,13.14 L22.75,15 Q22.75,20.75 17,20.75 L8.5,20.75 Q8.189,20.75 7.97,20.53 Q7.75,20.311 7.75,20 Q7.75,19.689 7.97,19.47 Q8.189,19.25 8.5,19.25 L17,19.25 Q21.25,19.25 21.25,15 L21.25,13.14 Q21.25,12.829 21.47,12.61 Q21.689,12.39 22,12.39 Q22.311,12.39 22.53,12.61 Q22.75,12.829 22.75,13.14 Z"/>
  <path fill="#292D32" d="M1.25,15.3 L1.25,9 Q1.25,3.25 7,3.25 L17,3.25 Q22.75,3.25 22.75,9 Q22.75,9.311 22.53,9.53 Q22.311,9.75 22,9.75 Q21.689,9.75 21.47,9.53 Q21.25,9.311 21.25,9 Q21.25,4.75 17,4.75 L7,4.75 Q2.75,4.75 2.75,9 L2.75,15.3 Q2.75,15.611 2.53,15.83 Q2.311,16.05 2,16.05 Q1.689,16.05 1.47,15.83 Q1.25,15.611 1.25,15.3 Z"/>
  <path fill="#292D32" d="M13.75,12 Q13.75,10.25 12,10.25 Q10.25,10.25 10.25,12 Q10.25,13.75 12,13.75 Q12.311,13.75 12.53,13.97 Q12.75,14.189 12.75,14.5 Q12.75,14.811 12.53,15.03 Q12.311,15.25 12,15.25 Q10.654,15.25 9.702,14.298 Q8.75,13.346 8.75,12 Q8.75,8.75 12,8.75 Q15.25,8.75 15.25,12 Q15.25,12.311 15.03,12.53 Q14.811,12.75 14.5,12.75 Q14.189,12.75 13.97,12.53 Q13.75,12.311 13.75,12 Z"/>
  <path fill="#292D32" d="M19.25,9.5 L19.25,14.5 Q19.25,14.811 19.03,15.03 Q18.811,15.25 18.5,15.25 Q18.189,15.25 17.97,15.03 Q17.75,14.811 17.75,14.5 L17.75,9.5 Q17.75,9.189 17.97,8.97 Q18.189,8.75 18.5,8.75 Q18.811,8.75 19.03,8.97 Q19.25,9.189 19.25,9.5 Z"/>
  <path fill="#292D32" d="M9.75,18 Q9.75,19.332 9.058,20.454 Q7.693,22.75 5,22.75 Q2.307,22.75 0.935,20.443 Q0.25,19.332 0.25,18 Q0.25,16.032 1.641,14.641 Q3.032,13.25 5,13.25 Q6.968,13.25 8.359,14.641 Q9.75,16.032 9.75,18 Z M8.25,18 Q8.25,14.75 5,14.75 Q1.75,14.75 1.75,18 Q1.75,18.907 2.225,19.677 Q3.16,21.25 5,21.25 Q6.84,21.25 7.782,19.666 Q8.25,18.907 8.25,18 Z"/>
  <path fill="#292D32" d="M6.49,18.73 L3.51,18.73 Q3.199,18.73 2.979,18.51 Q2.76,18.291 2.76,17.98 Q2.76,17.669 2.979,17.45 Q3.199,17.23 3.51,17.23 L6.49,17.23 Q6.8,17.23 7.02,17.45 Q7.24,17.669 7.24,17.98 Q7.24,18.291 7.02,18.51 Q6.8,18.73 6.49,18.73 Z"/>
  <path fill="#292D32" d="M5.75,16.52 L5.75,19.51 Q5.75,19.821 5.53,20.04 Q5.311,20.26 5,20.26 Q4.689,20.26 4.47,20.04 Q4.25,19.821 4.25,19.51 L4.25,16.52 Q4.25,16.209 4.47,15.99 Q4.689,15.77 5,15.77 Q5.311,15.77 5.53,15.99 Q5.75,16.209 5.75,16.52 Z"/>
</svg>

