<svg xmlns="http://www.w3.org/2000/svg" width="24" height="24" viewBox="0 0 24 24">
  <defs/>
  <path fill="#292D32" opacity="0.4" d="M18.811,6.25 L20.171,6.25 C19.981,5.98 19.781,5.73 19.571,5.48 L18.811,6.25 Z"/>
  <path fill="#292D32" opacity="0.4" d="M18.52,4.42 C18.27,4.21 18.02,4.01 17.75,3.82 L17.75,5.18 L18.52,4.42 Z"/>
  <path fill="#292D32" opacity="0.4" d="M17,7.75 C16.9,7.75 16.81,7.73 16.71,7.69 C16.53,7.61 16.38,7.47 16.3,7.28 C16.26,7.19 16.24,7.09 16.24,6.99 L16.24,2.99 C16.24,2.98 16.25,2.97 16.25,2.95 C14.96,2.35 13.52,2 12,2 C6.48,2 2,6.48 2,12 C2,17.52 6.48,22 12,22 C17.52,22 22,17.52 22,12 C22,10.48 21.65,9.04 21.04,7.74 C21.03,7.74 21.02,7.75 21,7.75 L17,7.75 Z"/>
  <path fill="#292D32" d="M19.579,5.48 L22.529,2.53 C22.82,2.24 22.82,1.76 22.529,1.47 C22.239,1.18 21.759,1.18 21.47,1.47 L18.52,4.42 C18.899,4.75 19.25,5.11 19.579,5.48 Z"/>
  <path fill="#292D32" d="M17.75,3 C17.75,2.59 17.41,2.25 17,2.25 C16.6,2.25 16.28,2.57 16.26,2.96 C16.78,3.21 17.28,3.49 17.75,3.82 L17.75,3 Z"/>
  <path fill="#292D32" d="M21.75,7 C21.75,6.59 21.41,6.25 21,6.25 L20.17,6.25 C20.5,6.72 20.79,7.22 21.03,7.74 C21.43,7.72 21.75,7.4 21.75,7 Z"/>
  <path fill="#292D32" d="M13.75,11.82 L12.75,11.47 L12.75,9.25 L12.83,9.25 C13.34,9.25 13.75,9.7 13.75,10.25 C13.75,10.66 14.09,11 14.5,11 C14.91,11 15.25,10.66 15.25,10.25 C15.25,8.87 14.17,7.75 12.83,7.75 L12.75,7.75 L12.75,7.5 C12.75,7.09 12.41,6.75 12,6.75 C11.59,6.75 11.25,7.09 11.25,7.5 L11.25,7.75 L10.95,7.75 C9.74,7.75 8.75,8.77 8.75,10.03 C8.75,11.49 9.6,11.96 10.25,12.19 L11.25,12.54 L11.25,14.76 L11.17,14.76 C10.66,14.76 10.25,14.31 10.25,13.76 C10.25,13.35 9.91,13.01 9.5,13.01 C9.09,13.01 8.75,13.35 8.75,13.76 C8.75,15.14 9.83,16.26 11.17,16.26 L11.25,16.26 L11.25,16.51 C11.25,16.92 11.59,17.26 12,17.26 C12.41,17.26 12.75,16.92 12.75,16.51 L12.75,16.26 L13.05,16.26 C14.26,16.26 15.25,15.24 15.25,13.98 C15.25,12.51 14.4,12.04 13.75,11.82 Z M10.74,10.76 C10.4,10.64 10.25,10.57 10.25,10.02 C10.25,9.59 10.57,9.24 10.95,9.24 L11.25,9.24 L11.25,10.93 L10.74,10.76 Z M13.05,14.75 L12.75,14.75 L12.75,13.06 L13.26,13.24 C13.6,13.36 13.75,13.43 13.75,13.98 C13.75,14.4 13.43,14.75 13.05,14.75 Z"/>
</svg>

