<svg xmlns="http://www.w3.org/2000/svg" width="24" height="24" viewBox="0 0 24 24">
  <defs/>
  <path fill="#292D32" d="M1.7,20.24 C1.71,20.23 1.71,20.22 1.71,20.22 L7.21,14.72 C7.22,14.71 7.23,14.71 7.24,14.7 C6.6,14.26 5.82,14 4.99,14 C2.78,14 0.99,15.79 0.99,18 C0.99,18.75 1.2,19.46 1.57,20.06 C1.62,20.12 1.66,20.18 1.7,20.24 Z"/>
  <path fill="#292D32" d="M8.3,15.75 C8.29,15.76 8.29,15.77 8.28,15.78 L2.78,21.28 C2.77,21.29 2.76,21.29 2.75,21.3 C3.39,21.74 4.16,22 5,22 C6.46,22 7.73,21.22 8.42,20.06 C8.79,19.46 9,18.75 9,18 C9,17.16 8.74,16.39 8.3,15.75 Z"/>
  <path fill="#292D32" opacity="0.4" d="M22,9 L22,15 C22,18.5 20,20 17,20 L8.45,20 C8.8,19.41 9,18.73 9,18 C9,15.79 7.21,14 5,14 C3.8,14 2.73,14.53 2,15.36 L2,9 C2,5.5 4,4 7,4 L17,4 C20,4 22,5.5 22,9 Z"/>
  <path fill="#292D32" d="M12,14.5 C13.381,14.5 14.5,13.381 14.5,12 C14.5,10.619 13.381,9.5 12,9.5 C10.619,9.5 9.5,10.619 9.5,12 C9.5,13.381 10.619,14.5 12,14.5 Z"/>
  <path fill="#292D32" d="M18.5,14.75 C18.09,14.75 17.75,14.41 17.75,14 L17.75,10 C17.75,9.59 18.09,9.25 18.5,9.25 C18.91,9.25 19.25,9.59 19.25,10 L19.25,14 C19.25,14.41 18.91,14.75 18.5,14.75 Z"/>
</svg>

