<svg xmlns="http://www.w3.org/2000/svg" width="24" height="24" viewBox="0 0 24 24">
  <defs/>
  <path fill="#292D32" d="M18.809,6.25 L20.169,6.25 C19.979,5.98 19.779,5.73 19.569,5.48 L18.809,6.25 Z"/>
  <path fill="#292D32" d="M18.52,4.42 C18.27,4.21 18.02,4.01 17.75,3.82 L17.75,5.18 L18.52,4.42 Z"/>
  <path fill="#292D32" d="M19.579,5.481 L22.529,2.531 C22.82,2.241 22.82,1.761 22.529,1.471 C22.239,1.181 21.759,1.181 21.47,1.471 L18.52,4.421 C18.899,4.751 19.25,5.111 19.579,5.481 Z"/>
  <path fill="#292D32" d="M17.752,3 C17.752,2.59 17.412,2.25 17.002,2.25 C16.602,2.25 16.282,2.57 16.262,2.96 C16.782,3.21 17.282,3.49 17.752,3.82 L17.752,3 Z"/>
  <path fill="#292D32" d="M21.752,7 C21.752,6.59 21.412,6.25 21.002,6.25 L20.172,6.25 C20.502,6.72 20.792,7.22 21.032,7.74 C21.432,7.72 21.752,7.4 21.752,7 Z"/>
  <path fill="#292D32" d="M12.75,14.751 L13.05,14.751 C13.44,14.751 13.75,14.401 13.75,13.971 C13.75,13.431 13.6,13.351 13.26,13.231 L12.75,13.051 L12.75,14.751 Z"/>
  <path fill="#292D32" d="M21.04,7.74 C21.03,7.74 21.02,7.75 21,7.75 L17,7.75 C16.9,7.75 16.81,7.73 16.71,7.69 C16.53,7.61 16.38,7.47 16.3,7.28 C16.27,7.19 16.25,7.1 16.25,7 L16.25,3 C16.25,2.99 16.26,2.98 16.26,2.96 C14.96,2.35 13.52,2 12,2 C6.48,2 2,6.48 2,12 C2,17.52 6.48,22 12,22 C17.52,22 22,17.52 22,12 C22,10.48 21.65,9.04 21.04,7.74 Z M13.75,11.82 C14.39,12.04 15.25,12.51 15.25,13.98 C15.25,15.23 14.26,16.26 13.05,16.26 L12.75,16.26 L12.75,16.51 C12.75,16.92 12.41,17.26 12,17.26 C11.59,17.26 11.25,16.92 11.25,16.51 L11.25,16.26 L11.17,16.26 C9.84,16.26 8.75,15.14 8.75,13.76 C8.75,13.34 9.09,13 9.5,13 C9.91,13 10.25,13.34 10.25,13.75 C10.25,14.3 10.66,14.75 11.17,14.75 L11.25,14.75 L11.25,12.53 L10.25,12.18 C9.61,11.96 8.75,11.49 8.75,10.02 C8.75,8.77 9.74,7.74 10.95,7.74 L11.25,7.74 L11.25,7.5 C11.25,7.09 11.59,6.75 12,6.75 C12.41,6.75 12.75,7.09 12.75,7.5 L12.75,7.75 L12.83,7.75 C14.16,7.75 15.25,8.87 15.25,10.25 C15.25,10.66 14.91,11 14.5,11 C14.09,11 13.75,10.66 13.75,10.25 C13.75,9.7 13.34,9.25 12.83,9.25 L12.75,9.25 L12.75,11.47 L13.75,11.82 Z"/>
  <path fill="#292D32" d="M10.25,10.03 C10.25,10.57 10.4,10.65 10.74,10.77 L11.25,10.95 L11.25,9.25 L10.95,9.25 C10.57,9.25 10.25,9.6 10.25,10.03 Z"/>
</svg>

