<svg xmlns="http://www.w3.org/2000/svg" width="24" height="24" viewBox="0 0 24 24">
  <defs/>
  <path fill="#292D32" d="M17,3.5 L7,3.5 C4,3.5 2,5 2,8.5 L2,15.5 C2,19 4,20.5 7,20.5 L17,20.5 C20,20.5 22,19 22,15.5 L22,8.5 C22,5 20,3.5 17,3.5 Z M3.75,8.5 C3.75,6.71 5.21,5.25 7,5.25 L8.5,5.25 C8.91,5.25 9.25,5.59 9.25,6 C9.25,6.41 8.91,6.75 8.5,6.75 L7,6.75 C6.04,6.75 5.25,7.54 5.25,8.5 L5.25,10 C5.25,10.41 4.91,10.75 4.5,10.75 C4.09,10.75 3.75,10.41 3.75,10 L3.75,8.5 Z M8.5,18.75 L7,18.75 C5.21,18.75 3.75,17.29 3.75,15.5 L3.75,14 C3.75,13.59 4.09,13.25 4.5,13.25 C4.91,13.25 5.25,13.59 5.25,14 L5.25,15.5 C5.25,16.46 6.04,17.25 7,17.25 L8.5,17.25 C8.91,17.25 9.25,17.59 9.25,18 C9.25,18.41 8.91,18.75 8.5,18.75 Z M12,15 C10.34,15 9,13.66 9,12 C9,10.34 10.34,9 12,9 C13.66,9 15,10.34 15,12 C15,13.66 13.66,15 12,15 Z M20.25,15.5 C20.25,17.29 18.79,18.75 17,18.75 L15.5,18.75 C15.09,18.75 14.75,18.41 14.75,18 C14.75,17.59 15.09,17.25 15.5,17.25 L17,17.25 C17.96,17.25 18.75,16.46 18.75,15.5 L18.75,14 C18.75,13.59 19.09,13.25 19.5,13.25 C19.91,13.25 20.25,13.59 20.25,14 L20.25,15.5 Z M20.25,10 C20.25,10.41 19.91,10.75 19.5,10.75 C19.09,10.75 18.75,10.41 18.75,10 L18.75,8.5 C18.75,7.54 17.96,6.75 17,6.75 L15.5,6.75 C15.09,6.75 14.75,6.41 14.75,6 C14.75,5.59 15.09,5.25 15.5,5.25 L17,5.25 C18.79,5.25 20.25,6.71 20.25,8.5 L20.25,10 Z"/>
</svg>

