<svg xmlns="http://www.w3.org/2000/svg" width="24" height="24" viewBox="0 0 24 24">
  <defs/>
  <path fill="#292D32" d="M17.56,17.97 L6.44,17.97 C2.46,17.97 1.25,16.76 1.25,12.78 L1.25,6.44 C1.25,2.46 2.46,1.25 6.44,1.25 L8,1.25 C8.41,1.25 8.75,1.59 8.75,2 C8.75,2.41 8.41,2.75 8,2.75 L6.44,2.75 C3.3,2.75 2.75,3.3 2.75,6.44 L2.75,12.77 C2.75,15.91 3.3,16.46 6.44,16.46 L17.55,16.46 C20.69,16.46 21.24,15.91 21.24,12.77 L21.24,11.88 C21.24,11.47 21.58,11.13 21.99,11.13 C22.4,11.13 22.74,11.47 22.74,11.88 L22.74,12.77 C22.75,16.76 21.54,17.97 17.56,17.97 Z"/>
  <path fill="#292D32" d="M12,22.75 C11.59,22.75 11.25,22.41 11.25,22 L11.25,17.22 C11.25,16.81 11.59,16.47 12,16.47 C12.41,16.47 12.75,16.81 12.75,17.22 L12.75,22 C12.75,22.41 12.41,22.75 12,22.75 Z"/>
  <path fill="#292D32" d="M22,13.75 L2,13.75 C1.59,13.75 1.25,13.41 1.25,13 C1.25,12.59 1.59,12.25 2,12.25 L22,12.25 C22.41,12.25 22.75,12.59 22.75,13 C22.75,13.41 22.41,13.75 22,13.75 Z"/>
  <path fill="#292D32" d="M16.5,22.75 L7.5,22.75 C7.09,22.75 6.75,22.41 6.75,22 C6.75,21.59 7.09,21.25 7.5,21.25 L16.5,21.25 C16.91,21.25 17.25,21.59 17.25,22 C17.25,22.41 16.91,22.75 16.5,22.75 Z"/>
  <path fill="#292D32" d="M17.86,10.12 L13.1,10.12 C11.53,10.12 10.51,9.1 10.51,7.53 L10.51,4.01 C10.51,2.49 11.74,1.26 13.26,1.26 L17.86,1.26 C19.29,1.26 20.45,2.42 20.45,3.85 L20.45,7.53 C20.45,8.96 19.29,10.12 17.86,10.12 Z M13.26,2.76 C12.57,2.76 12.01,3.32 12.01,4.01 L12.01,7.53 C12.01,8.51 12.63,8.62 13.1,8.62 L17.86,8.62 C18.46,8.62 18.95,8.13 18.95,7.53 L18.95,3.85 C18.95,3.25 18.46,2.76 17.86,2.76 L13.26,2.76 Z"/>
  <path fill="#292D32" d="M21.45,8.87 C21.13,8.87 20.8,8.76 20.48,8.53 L19.27,7.68 C19.07,7.54 18.95,7.31 18.95,7.07 L18.95,4.31 C18.95,4.07 19.07,3.84 19.27,3.7 L20.48,2.85 C21,2.48 21.56,2.41 22.02,2.65 C22.48,2.89 22.74,3.39 22.74,4.03 L22.74,7.36 C22.74,8 22.48,8.5 22.02,8.74 C21.85,8.83 21.66,8.87 21.45,8.87 Z M20.45,6.68 L21.25,7.24 L21.25,4.14 L20.45,4.7 L20.45,6.68 Z"/>
</svg>

