<svg xmlns="http://www.w3.org/2000/svg" width="24" height="24" viewBox="0 0 24 24">
  <defs/>
  <path fill="#292D32" d="M20.99,9.71 C20.65,9.57 20.2,9.5 19.64,9.5 L14.36,9.5 C12.62,9.5 12,10.12 12,11.88 L12,19.62 C12,20.2 12.07,20.65 12.22,21 C12.53,21.72 13.19,22 14.36,22 L19.64,22 C21.38,22 22,21.37 22,19.62 L22,11.88 C22,10.69 21.72,10.02 20.99,9.71 Z M18,19.75 L16,19.75 C15.98,19.75 15.95,19.75 15.93,19.74 C15.78,19.73 15.65,19.68 15.54,19.58 C15.36,19.45 15.25,19.24 15.25,19 C15.25,18.59 15.59,18.25 16,18.25 L18,18.25 C18.41,18.25 18.75,18.59 18.75,19 C18.75,19.41 18.41,19.75 18,19.75 Z"/>
  <path fill="#292D32" d="M20.99,6.19 L20.99,7 C20.99,7.55 20.54,8 19.99,8 L14.36,8 C11.8,8 10.5,9.31 10.5,11.88 L10.5,21 C10.5,21.55 10.05,22 9.5,22 L7.55,22 C7.15,22 6.83,21.68 6.83,21.29 C6.83,20.89 7.15,20.58 7.55,20.58 L9.5,20.58 L9.5,16.75 L6,16.75 C3.78,16.64 2.01,14.81 2.01,12.56 L2.01,6.19 C2.01,3.88 3.89,2 6.21,2 L16.8,2 C19.11,2 20.99,3.88 20.99,6.19 Z"/>
</svg>

