<svg xmlns="http://www.w3.org/2000/svg" width="24" height="24" viewBox="0 0 24 24">
  <defs/>
  <path fill="#292D32" d="M10,17.7 L6.21,17.7 Q3.372,17.7 2.311,16.639 Q1.25,15.578 1.25,12.74 L1.25,6.74 Q1.25,3.902 2.311,2.841 Q3.372,1.78 6.21,1.78 L16.74,1.78 Q19.578,1.78 20.639,2.841 Q21.7,3.902 21.7,6.74 Q21.7,7.05 21.48,7.27 Q21.261,7.49 20.95,7.49 Q20.639,7.49 20.42,7.27 Q20.2,7.05 20.2,6.74 Q20.2,4.523 19.578,3.901 Q18.957,3.28 16.74,3.28 L6.21,3.28 Q3.993,3.28 3.372,3.901 Q2.75,4.523 2.75,6.74 L2.75,12.74 Q2.75,14.957 3.372,15.578 Q3.993,16.2 6.21,16.2 L10,16.2 Q10.311,16.2 10.53,16.419 Q10.75,16.639 10.75,16.95 Q10.75,17.26 10.53,17.48 Q10.311,17.7 10,17.7 Z"/>
  <path fill="#292D32" d="M9.25,21.47 L9.25,16.95 Q9.25,16.64 9.47,16.42 Q9.689,16.2 10,16.2 Q10.311,16.2 10.53,16.42 Q10.75,16.64 10.75,16.95 L10.75,21.47 Q10.75,21.781 10.53,22.001 Q10.311,22.22 10,22.22 Q9.689,22.22 9.47,22.001 Q9.25,21.781 9.25,21.47 Z"/>
  <path fill="#292D32" opacity="0.4" d="M2,12.2 L10,12.2 Q10.311,12.2 10.53,12.42 Q10.75,12.64 10.75,12.95 Q10.75,13.261 10.53,13.481 Q10.311,13.7 10,13.7 L2,13.7 Q1.689,13.7 1.47,13.481 Q1.25,13.261 1.25,12.95 Q1.25,12.64 1.47,12.42 Q1.689,12.2 2,12.2 Z"/>
  <path fill="#292D32" d="M6.74,20.72 L10,20.72 Q10.311,20.72 10.531,20.94 Q10.75,21.16 10.75,21.47 Q10.75,21.781 10.531,22.001 Q10.311,22.22 10,22.22 L6.74,22.22 Q6.43,22.22 6.21,22.001 Q5.99,21.781 5.99,21.47 Q5.99,21.16 6.21,20.94 Q6.43,20.72 6.74,20.72 Z"/>
  <path fill="#292D32" d="M22.75,12.8 L22.75,18.51 Q22.75,20.598 21.939,21.409 Q21.128,22.22 19.04,22.22 L15.49,22.22 Q13.402,22.22 12.591,21.409 Q11.78,20.598 11.78,18.51 L11.78,12.8 Q11.78,9.09 15.49,9.09 L19.04,9.09 Q22.75,9.09 22.75,12.8 Z M21.25,12.8 Q21.25,11.333 20.879,10.961 Q20.507,10.59 19.04,10.59 L15.49,10.59 Q14.023,10.59 13.652,10.961 Q13.28,11.333 13.28,12.8 L13.28,18.51 Q13.28,19.977 13.652,20.348 Q14.023,20.72 15.49,20.72 L19.04,20.72 Q20.507,20.72 20.879,20.348 Q21.25,19.977 21.25,18.51 Z"/>
  <path fill="#292D32" opacity="0.4" d="M17.244,17.25 L17.253,17.25 Q17.668,17.25 17.961,17.543 Q18.253,17.836 18.253,18.25 Q18.253,18.664 17.961,18.957 Q17.668,19.25 17.253,19.25 L17.244,19.25 Q16.83,19.25 16.537,18.957 Q16.244,18.664 16.244,18.25 Q16.244,17.836 16.537,17.543 Q16.83,17.25 17.244,17.25 Z"/>
</svg>

