<svg xmlns="http://www.w3.org/2000/svg" width="24" height="24" viewBox="0 0 24 24">
  <defs/>
  <path fill="#292D32" d="M17.56,17.97 L6.44,17.97 C2.46,17.97 1.25,16.76 1.25,12.78 L1.25,6.44 C1.25,2.46 2.46,1.25 6.44,1.25 L17.55,1.25 C21.53,1.25 22.74,2.46 22.74,6.44 L22.74,12.77 C22.75,16.76 21.54,17.97 17.56,17.97 Z M6.44,2.75 C3.3,2.75 2.75,3.3 2.75,6.44 L2.75,12.77 C2.75,15.91 3.3,16.46 6.44,16.46 L17.55,16.46 C20.69,16.46 21.24,15.91 21.24,12.77 L21.24,6.44 C21.24,3.3 20.69,2.75 17.55,2.75 L6.44,2.75 Z"/>
  <path fill="#292D32" d="M12,22.75 C11.59,22.75 11.25,22.41 11.25,22 L11.25,17.22 C11.25,16.81 11.59,16.47 12,16.47 C12.41,16.47 12.75,16.81 12.75,17.22 L12.75,22 C12.75,22.41 12.41,22.75 12,22.75 Z"/>
  <path fill="#292D32" d="M22,13.75 L2,13.75 C1.59,13.75 1.25,13.41 1.25,13 C1.25,12.59 1.59,12.25 2,12.25 L22,12.25 C22.41,12.25 22.75,12.59 22.75,13 C22.75,13.41 22.41,13.75 22,13.75 Z"/>
  <path fill="#292D32" d="M16.5,22.75 L7.5,22.75 C7.09,22.75 6.75,22.41 6.75,22 C6.75,21.59 7.09,21.25 7.5,21.25 L16.5,21.25 C16.91,21.25 17.25,21.59 17.25,22 C17.25,22.41 16.91,22.75 16.5,22.75 Z"/>
</svg>

