<svg xmlns="http://www.w3.org/2000/svg" width="24" height="24" viewBox="0 0 24 24">
  <defs/>
  <path fill="#292D32" opacity="0.4" d="M16.8,2 L6.21,2 C3.89,2 2.01,3.88 2.01,6.19 L2.01,12.37 L2.01,12.56 C2.01,14.88 3.89,16.75 6.2,16.75 L9.8,16.75 C10.35,16.75 10.8,17.2 10.8,17.75 L10.8,18.57 C10.8,19.12 10.35,19.57 9.8,19.57 L7.55,19.57 C7.16,19.57 6.84,19.89 6.84,20.28 C6.84,20.67 7.16,20.99 7.55,20.99 L15.48,20.99 C15.87,20.99 16.19,20.67 16.19,20.28 C16.19,19.89 15.87,19.57 15.48,19.57 L13.23,19.57 C12.68,19.57 12.23,19.12 12.23,18.57 L12.23,17.75 C12.23,17.2 12.68,16.75 13.23,16.75 L16.8,16.75 C19.12,16.75 20.99,14.87 20.99,12.56 L20.99,12.37 L20.99,6.19 C20.99,3.88 19.11,2 16.8,2 Z"/>
  <path fill="#292D32" d="M19.64,9.5 L14.35,9.5 C12.62,9.5 11.99,10.13 11.99,11.88 L11.99,19.61 C11.99,21.37 12.61,21.99 14.35,21.99 L19.64,21.99 C21.37,21.99 22,21.36 22,19.61 L22,11.88 C22,10.12 21.38,9.5 19.64,9.5 Z M17,20.32 C16.39,20.32 15.9,19.83 15.9,19.22 C15.9,18.61 16.39,18.12 17,18.12 C17.61,18.12 18.1,18.61 18.1,19.22 C18.1,19.83 17.61,20.32 17,20.32 Z"/>
  <path fill="#292D32" opacity="0.4" d="M18.1,19.22 C18.1,19.83 17.61,20.32 17,20.32 C16.39,20.32 15.9,19.83 15.9,19.22 C15.9,18.61 16.39,18.12 17,18.12 C17.61,18.12 18.1,18.62 18.1,19.22 Z"/>
</svg>

