<svg xmlns="http://www.w3.org/2000/svg" width="24" height="24" viewBox="0 0 24 24">
  <defs/>
  <path fill="#292D32" d="M10,17.7 L6.21,17.7 C2.41,17.7 1.25,16.54 1.25,12.74 L1.25,6.74 C1.25,2.94 2.41,1.78 6.21,1.78 L16.74,1.78 C20.54,1.78 21.7,2.94 21.7,6.74 C21.7,7.15 21.36,7.49 20.95,7.49 C20.54,7.49 20.2,7.15 20.2,6.74 C20.2,3.8 19.68,3.28 16.74,3.28 L6.21,3.28 C3.27,3.28 2.75,3.8 2.75,6.74 L2.75,12.74 C2.75,15.68 3.27,16.2 6.21,16.2 L10,16.2 C10.41,16.2 10.75,16.54 10.75,16.95 C10.75,17.36 10.41,17.7 10,17.7 Z"/>
  <path fill="#292D32" d="M10,22.22 C9.59,22.22 9.25,21.88 9.25,21.47 L9.25,16.94 C9.25,16.53 9.59,16.19 10,16.19 C10.41,16.19 10.75,16.53 10.75,16.94 L10.75,21.47 C10.75,21.89 10.41,22.22 10,22.22 Z"/>
  <path fill="#292D32" d="M10,13.7 L2,13.7 C1.59,13.7 1.25,13.36 1.25,12.95 C1.25,12.54 1.59,12.2 2,12.2 L10,12.2 C10.41,12.2 10.75,12.54 10.75,12.95 C10.75,13.36 10.41,13.7 10,13.7 Z"/>
  <path fill="#292D32" d="M10,22.22 L6.74,22.22 C6.33,22.22 5.99,21.88 5.99,21.47 C5.99,21.06 6.33,20.72 6.74,20.72 L10,20.72 C10.41,20.72 10.75,21.06 10.75,21.47 C10.75,21.88 10.41,22.22 10,22.22 Z"/>
  <path fill="#292D32" d="M19.04,22.22 L15.49,22.22 C12.72,22.22 11.78,21.28 11.78,18.51 L11.78,12.8 C11.78,10.03 12.72,9.09 15.49,9.09 L19.04,9.09 C21.81,9.09 22.75,10.03 22.75,12.8 L22.75,18.51 C22.75,21.29 21.81,22.22 19.04,22.22 Z M15.49,10.59 C13.53,10.59 13.28,10.84 13.28,12.8 L13.28,18.51 C13.28,20.47 13.53,20.72 15.49,20.72 L19.04,20.72 C21,20.72 21.25,20.47 21.25,18.51 L21.25,12.8 C21.25,10.84 21,10.59 19.04,10.59 L15.49,10.59 Z"/>
  <path fill="#292D32" d="M17.3,18.97 C17.04,18.97 16.78,18.87 16.59,18.68 C16.5,18.59 16.43,18.48 16.38,18.36 C16.33,18.23 16.3,18.1 16.3,17.97 C16.3,17.71 16.41,17.45 16.59,17.27 C16.82,17.04 17.17,16.93 17.5,16.99 C17.56,17.01 17.62,17.03 17.68,17.05 C17.74,17.08 17.8,17.11 17.85,17.14 C17.91,17.18 17.96,17.22 18.01,17.27 C18.19,17.45 18.3,17.71 18.3,17.97 C18.3,18.1 18.27,18.23 18.22,18.36 C18.17,18.48 18.1,18.59 18.01,18.68 C17.96,18.73 17.91,18.77 17.85,18.8 C17.8,18.84 17.74,18.87 17.68,18.9 C17.62,18.92 17.56,18.94 17.5,18.95 C17.43,18.97 17.37,18.97 17.3,18.97 Z"/>
</svg>

