<svg xmlns="http://www.w3.org/2000/svg" width="24" height="24" viewBox="0 0 24 24">
  <defs/>
  <path fill="#292D32" d="M22.75,11.89 L22.75,12.78 Q22.75,15.759 21.641,16.866 Q20.535,17.97 17.56,17.97 L6.44,17.97 Q3.467,17.97 2.358,16.862 Q1.25,15.753 1.25,12.78 L1.25,6.44 Q1.25,3.467 2.358,2.358 Q3.467,1.25 6.44,1.25 L8,1.25 Q8.311,1.25 8.53,1.47 Q8.75,1.689 8.75,2 Q8.75,2.311 8.53,2.53 Q8.311,2.75 8,2.75 L6.44,2.75 Q4.088,2.75 3.419,3.419 Q2.75,4.088 2.75,6.44 L2.75,12.78 Q2.75,15.132 3.419,15.801 Q4.088,16.47 6.44,16.47 L17.56,16.47 Q19.914,16.47 20.581,15.804 Q21.25,15.137 21.25,12.78 L21.25,11.89 Q21.25,11.579 21.47,11.36 Q21.689,11.14 22,11.14 Q22.311,11.14 22.53,11.36 Q22.75,11.579 22.75,11.89 Z"/>
  <path fill="#292D32" opacity="0.4" d="M12.75,17.22 L12.75,22 Q12.75,22.311 12.53,22.531 Q12.311,22.75 12,22.75 Q11.689,22.75 11.47,22.531 Q11.25,22.311 11.25,22 L11.25,17.22 Q11.25,16.91 11.47,16.69 Q11.689,16.47 12,16.47 Q12.311,16.47 12.53,16.69 Q12.75,16.91 12.75,17.22 Z"/>
  <path fill="#292D32" opacity="0.4" d="M2,12.25 L22,12.25 Q22.311,12.25 22.53,12.47 Q22.75,12.689 22.75,13 Q22.75,13.311 22.53,13.53 Q22.311,13.75 22,13.75 L2,13.75 Q1.689,13.75 1.47,13.53 Q1.25,13.311 1.25,13 Q1.25,12.689 1.47,12.47 Q1.689,12.25 2,12.25 Z"/>
  <path fill="#292D32" d="M7.5,21.25 L16.5,21.25 Q16.811,21.25 17.03,21.47 Q17.25,21.689 17.25,22 Q17.25,22.311 17.03,22.53 Q16.811,22.75 16.5,22.75 L7.5,22.75 Q7.189,22.75 6.97,22.53 Q6.75,22.311 6.75,22 Q6.75,21.689 6.97,21.47 Q7.189,21.25 7.5,21.25 Z"/>
  <path fill="#292D32" d="M17.86,10.12 L13.1,10.12 Q10.51,10.12 10.51,7.53 L10.51,4.01 Q10.51,2.874 11.317,2.067 Q12.124,1.26 13.26,1.26 L17.86,1.26 Q20.45,1.26 20.45,3.85 L20.45,7.53 Q20.45,10.12 17.86,10.12 Z M17.86,8.62 Q18.314,8.62 18.632,8.302 Q18.95,7.984 18.95,7.53 L18.95,3.85 Q18.95,2.76 17.86,2.76 L13.26,2.76 Q12.745,2.76 12.378,3.128 Q12.01,3.495 12.01,4.01 L12.01,7.53 Q12.01,8.62 13.1,8.62 Z"/>
  <path fill="#292D32" d="M20.479,8.534 L19.269,7.684 Q18.95,7.46 18.95,7.07 L18.95,4.31 Q18.95,3.92 19.269,3.696 L20.479,2.846 Q21.308,2.28 22.026,2.652 Q22.75,3.028 22.75,4.03 L22.75,7.36 Q22.75,8.366 22.022,8.739 Q21.301,9.109 20.48,8.534 Z M21.25,7.242 L21.25,4.138 L20.45,4.7 L20.45,6.68 L21.25,7.242 Z"/>
</svg>

