<svg xmlns="http://www.w3.org/2000/svg" width="24" height="24" viewBox="0 0 24 24">
  <defs/>
  <path fill="#292D32" d="M1.25,6.74 Q1.25,3.902 2.311,2.841 Q3.372,1.78 6.21,1.78 L16.74,1.78 Q19.578,1.78 20.639,2.841 Q21.7,3.902 21.7,6.74 Q21.7,7.051 21.48,7.27 Q21.261,7.49 20.95,7.49 Q20.639,7.49 20.42,7.27 Q20.2,7.051 20.2,6.74 Q20.2,4.523 19.578,3.902 Q18.957,3.28 16.74,3.28 L6.21,3.28 Q3.993,3.28 3.372,3.902 Q2.75,4.523 2.75,6.74 Q2.75,7.051 2.53,7.27 Q2.311,7.49 2,7.49 Q1.689,7.49 1.47,7.27 Q1.25,7.051 1.25,6.74 Z"/>
  <path fill="#292D32" d="M10,17.7 L6.21,17.7 Q3.372,17.7 2.311,16.639 Q1.25,15.578 1.25,12.74 L1.25,10.85 Q1.25,10.539 1.47,10.32 Q1.689,10.1 2,10.1 Q2.311,10.1 2.53,10.32 Q2.75,10.539 2.75,10.85 L2.75,12.74 Q2.75,14.957 3.372,15.579 Q3.993,16.2 6.21,16.2 L10,16.2 Q10.311,16.2 10.53,16.42 Q10.75,16.639 10.75,16.95 Q10.75,17.261 10.53,17.48 Q10.311,17.7 10,17.7 Z"/>
  <path fill="#292D32" d="M9.25,21.47 L9.25,16.95 Q9.25,16.639 9.47,16.42 Q9.689,16.2 10,16.2 Q10.311,16.2 10.53,16.42 Q10.75,16.639 10.75,16.95 L10.75,21.47 Q10.75,21.781 10.53,22 Q10.311,22.22 10,22.22 Q9.689,22.22 9.47,22 Q9.25,21.781 9.25,21.47 Z"/>
  <path fill="#292D32" d="M2,12.2 L10,12.2 Q10.311,12.2 10.53,12.42 Q10.75,12.639 10.75,12.95 Q10.75,13.261 10.53,13.48 Q10.311,13.7 10,13.7 L2,13.7 Q1.689,13.7 1.47,13.48 Q1.25,13.261 1.25,12.95 Q1.25,12.639 1.47,12.42 Q1.689,12.2 2,12.2 Z"/>
  <path fill="#292D32" d="M6.74,20.72 L10,20.72 Q10.311,20.72 10.531,20.94 Q10.75,21.159 10.75,21.47 Q10.75,21.781 10.531,22 Q10.311,22.22 10,22.22 L6.74,22.22 Q6.43,22.22 6.21,22 Q5.99,21.781 5.99,21.47 Q5.99,21.159 6.21,20.94 Q6.43,20.72 6.74,20.72 Z"/>
  <path fill="#292D32" d="M21.249,12.8 Q21.249,11.333 20.878,10.962 Q20.506,10.59 19.039,10.59 L15.489,10.59 Q14.022,10.59 13.651,10.962 Q13.279,11.333 13.279,12.8 L13.279,18.51 Q13.279,19.977 13.651,20.349 Q14.022,20.72 15.489,20.72 L19.039,20.72 Q20.506,20.72 20.878,20.349 Q21.249,19.977 21.249,18.51 L21.249,16.94 Q21.249,16.629 21.469,16.41 Q21.689,16.19 21.999,16.19 Q22.31,16.19 22.53,16.41 Q22.749,16.629 22.749,16.94 L22.749,18.51 Q22.749,22.22 19.039,22.22 L15.489,22.22 Q11.779,22.22 11.779,18.51 L11.779,12.8 Q11.779,10.712 12.59,9.901 Q13.401,9.09 15.489,9.09 L19.039,9.09 Q21.127,9.09 21.938,9.901 Q22.749,10.712 22.749,12.8 Q22.749,13.111 22.53,13.33 Q22.31,13.55 21.999,13.55 Q21.689,13.55 21.469,13.33 Q21.249,13.111 21.249,12.8 Z"/>
  <path fill="#292D32" d="M17.244,17.25 L17.253,17.25 Q17.668,17.25 17.961,17.543 Q18.253,17.836 18.253,18.25 Q18.253,18.664 17.961,18.957 Q17.668,19.25 17.253,19.25 L17.244,19.25 Q16.83,19.25 16.537,18.957 Q16.244,18.664 16.244,18.25 Q16.244,17.836 16.537,17.543 Q16.83,17.25 17.244,17.25 Z"/>
</svg>

