<svg xmlns="http://www.w3.org/2000/svg" width="24" height="24" viewBox="0 0 24 24">
  <defs/>
  <path fill="#292D32" opacity="0.4" d="M21.97,6.41 L21.97,12.91 L2,12.91 L2,6.41 C2,3.98 3.98,2 6.41,2 L17.56,2 C19.99,2 21.97,3.98 21.97,6.41 Z"/>
  <path fill="#292D32" d="M2,12.92 L2,13.12 C2,15.56 3.98,17.53 6.41,17.53 L10.25,17.53 C10.8,17.53 11.25,17.98 11.25,18.53 L11.25,19.5 C11.25,20.05 10.8,20.5 10.25,20.5 L7.83,20.5 C7.42,20.5 7.08,20.84 7.08,21.25 C7.08,21.66 7.41,22 7.83,22 L16.18,22 C16.59,22 16.93,21.66 16.93,21.25 C16.93,20.84 16.59,20.5 16.18,20.5 L13.76,20.5 C13.21,20.5 12.76,20.05 12.76,19.5 L12.76,18.53 C12.76,17.98 13.21,17.53 13.76,17.53 L17.57,17.53 C20.01,17.53 21.98,15.55 21.98,13.12 L21.98,12.92 L2,12.92 Z"/>
</svg>

