<svg xmlns="http://www.w3.org/2000/svg" width="24" height="24" viewBox="0 0 24 24">
  <defs/>
  <path fill="#292D32" d="M20.97,10.37 L20.97,13.56 C20.97,15.88 19.09,17.76 16.77,17.76 L13.21,17.76 C12.66,17.76 12.21,18.2 12.21,18.76 L12.21,19.58 C12.21,20.13 12.66,20.58 13.21,20.58 L15.47,20.58 C15.86,20.58 16.18,20.89 16.18,21.29 C16.18,21.68 15.86,22 15.47,22 L7.53,22 C7.14,22 6.82,21.68 6.82,21.29 C6.82,20.89 7.14,20.58 7.53,20.58 L9.79,20.58 C10.34,20.58 10.79,20.13 10.79,19.58 L10.79,18.76 C10.79,18.2 10.34,17.76 9.79,17.76 L6.19,17.76 C3.88,17.76 2,15.88 2,13.56 L2,7.19 C2,4.88 3.88,3 6.19,3 L10.5,3 C11.05,3 11.5,3.45 11.5,4 L11.5,6.15 C11.5,8.08 12.79,9.37 14.71,9.37 L19.97,9.37 C20.52,9.37 20.97,9.82 20.97,10.37 Z"/>
  <path fill="#292D32" d="M21.99,2.36 L20.86,3.15 L20.86,2.73 C20.86,1.78 20.09,1.02 19.15,1.02 L14.87,1.02 C13.84,1.01 13,1.85 13,2.88 L13,6.16 C13,7.02 13.43,7.87 14.71,7.87 L19.14,7.87 C20.09,7.87 20.85,7.1 20.85,6.16 L20.85,5.73 L21.98,6.52 C22.55,6.91 23,6.67 23,5.99 L23,2.89 C23,2.21 22.55,1.98 21.99,2.36 Z"/>
</svg>

