<svg xmlns="http://www.w3.org/2000/svg" width="24" height="24" viewBox="0 0 24 24">
  <defs/>
  <path fill="#292D32" d="M17.56,2 L6.41,2 C3.98,2 2,3.98 2,6.41 L2,12.91 L2,13.11 C2,15.55 3.98,17.52 6.41,17.52 L10.25,17.52 C10.8,17.52 11.25,17.97 11.25,18.52 L11.25,19.49 C11.25,20.04 10.8,20.49 10.25,20.49 L7.83,20.49 C7.42,20.49 7.08,20.83 7.08,21.24 C7.08,21.65 7.41,22 7.83,22 L16.18,22 C16.59,22 16.93,21.66 16.93,21.25 C16.93,20.84 16.59,20.5 16.18,20.5 L13.76,20.5 C13.21,20.5 12.76,20.05 12.76,19.5 L12.76,18.53 C12.76,17.98 13.21,17.53 13.76,17.53 L17.57,17.53 C20.01,17.53 21.98,15.55 21.98,13.12 L21.98,12.92 L21.98,6.42 C21.97,3.98 19.99,2 17.56,2 Z"/>
</svg>

