<svg xmlns="http://www.w3.org/2000/svg" width="24" height="24" viewBox="0 0 24 24">
  <defs/>
  <path fill="#292D32" opacity="0.4" d="M20.97,7.19 L20.97,13.37 L2,13.37 L2,7.19 C2,4.88 3.88,3 6.19,3 L16.78,3 C19.09,3 20.97,4.88 20.97,7.19 Z"/>
  <path fill="#292D32" d="M2,13.37 L2,13.56 C2,15.88 3.88,17.75 6.19,17.75 L9.79,17.75 C10.34,17.75 10.79,18.2 10.79,18.75 L10.79,19.57 C10.79,20.12 10.34,20.57 9.79,20.57 L7.53,20.57 C7.14,20.57 6.82,20.89 6.82,21.28 C6.82,21.67 7.14,21.99 7.53,21.99 L15.46,21.99 C15.85,21.99 16.17,21.67 16.17,21.28 C16.17,20.89 15.85,20.57 15.46,20.57 L13.21,20.57 C12.66,20.57 12.21,20.12 12.21,19.57 L12.21,18.75 C12.21,18.2 12.66,17.75 13.21,17.75 L16.78,17.75 C19.1,17.75 20.97,15.87 20.97,13.56 L20.97,13.37 L2,13.37 Z"/>
  <path fill="#292D32" d="M21.99,2.36 L20.86,3.15 L20.86,2.73 C20.86,1.78 20.09,1.02 19.15,1.02 L14.87,1.02 C13.84,1.01 13,1.85 13,2.88 L13,6.16 C13,7.02 13.43,7.87 14.71,7.87 L19.14,7.87 C20.09,7.87 20.85,7.1 20.85,6.16 L20.85,5.73 L21.98,6.52 C22.55,6.91 23,6.67 23,5.99 L23,2.89 C23,2.21 22.55,1.98 21.99,2.36 Z"/>
</svg>

