<svg xmlns="http://www.w3.org/2000/svg" width="24" height="24" viewBox="0 0 24 24">
  <defs/>
  <path fill="#292D32" d="M6.44,1.25 L17.55,1.25 Q20.53,1.25 21.64,2.358 Q22.75,3.466 22.75,6.44 L22.75,12.77 Q22.75,15.749 21.641,16.856 Q20.535,17.96 17.56,17.96 L6.44,17.96 Q3.469,17.968 2.359,16.861 Q1.25,15.754 1.25,12.78 L1.25,6.44 Q1.25,3.467 2.358,2.358 Q3.467,1.25 6.44,1.25 Z M6.44,2.75 Q4.088,2.75 3.419,3.419 Q2.75,4.088 2.75,6.44 L2.75,12.78 Q2.75,15.132 3.419,15.799 Q4.087,16.467 6.44,16.46 L17.56,16.46 Q19.914,16.46 20.581,15.794 Q21.25,15.127 21.25,12.77 L21.25,6.44 Q21.25,4.088 20.58,3.42 Q19.909,2.75 17.55,2.75 Z"/>
  <path fill="#292D32" opacity="0.4" d="M12.75,17.22 L12.75,22 Q12.75,22.311 12.53,22.531 Q12.311,22.75 12,22.75 Q11.689,22.75 11.47,22.531 Q11.25,22.311 11.25,22 L11.25,17.22 Q11.25,16.91 11.47,16.69 Q11.689,16.47 12,16.47 Q12.311,16.47 12.53,16.69 Q12.75,16.91 12.75,17.22 Z"/>
  <path fill="#292D32" opacity="0.4" d="M2,12.25 L22,12.25 Q22.311,12.25 22.53,12.47 Q22.75,12.689 22.75,13 Q22.75,13.311 22.53,13.53 Q22.311,13.75 22,13.75 L2,13.75 Q1.689,13.75 1.47,13.53 Q1.25,13.311 1.25,13 Q1.25,12.689 1.47,12.47 Q1.689,12.25 2,12.25 Z"/>
  <path fill="#292D32" d="M7.5,21.25 L16.5,21.25 Q16.811,21.25 17.03,21.47 Q17.25,21.689 17.25,22 Q17.25,22.311 17.03,22.53 Q16.811,22.75 16.5,22.75 L7.5,22.75 Q7.189,22.75 6.97,22.53 Q6.75,22.311 6.75,22 Q6.75,21.689 6.97,21.47 Q7.189,21.25 7.5,21.25 Z"/>
</svg>

