<svg xmlns="http://www.w3.org/2000/svg" width="24" height="24" viewBox="0 0 24 24">
  <defs/>
  <path fill="#292D32" d="M1.281,12.474 L1.281,12.472 Q0.714,4.604 8.076,1.499 Q9.468,0.909 10.234,1.63 Q11.031,2.379 10.416,3.791 Q9.716,5.392 9.729,7.137 Q9.743,10.455 12.144,12.912 Q14.549,15.373 17.92,15.511 Q18.891,15.551 19.834,15.382 Q21.365,15.103 21.925,16.019 Q22.479,16.925 21.565,18.162 Q18.028,23.003 11.956,22.739 Q7.749,22.554 4.663,19.591 Q1.572,16.622 1.281,12.474 Z M2.777,12.368 Q3.027,15.94 5.702,18.509 Q8.38,21.081 12.022,21.241 Q17.291,21.469 20.354,17.278 Q20.673,16.846 20.645,16.801 Q20.622,16.763 20.104,16.858 Q18.993,17.057 17.858,17.009 Q13.893,16.847 11.071,13.96 Q8.245,11.069 8.229,7.143 Q8.213,5.084 9.042,3.189 Q9.234,2.748 9.207,2.723 Q9.153,2.672 8.662,2.88 Q2.286,5.569 2.777,12.366 Z"/>
</svg>

