<svg xmlns="http://www.w3.org/2000/svg" width="24" height="24" viewBox="0 0 24 24">
  <defs/>
  <path fill="#292D32" d="M4.77,5.844 Q2.518,8.708 2.779,12.367 Q3.029,15.94 5.704,18.509 Q8.382,21.081 12.024,21.241 Q17.293,21.469 20.355,17.278 Q20.674,16.846 20.647,16.801 Q20.624,16.763 20.105,16.858 Q18.995,17.057 17.859,17.009 Q13.894,16.847 11.073,13.96 Q8.247,11.069 8.231,7.143 Q8.215,5.084 9.044,3.189 Q9.236,2.748 9.208,2.723 Q9.155,2.672 8.664,2.88 Q8.377,3.002 8.089,2.885 Q7.802,2.769 7.68,2.483 Q7.559,2.197 7.675,1.909 Q7.792,1.621 8.078,1.499 Q9.47,0.909 10.236,1.63 Q11.033,2.379 10.418,3.791 Q9.717,5.392 9.731,7.137 Q9.744,10.455 12.146,12.912 Q14.551,15.373 17.922,15.511 Q18.893,15.551 19.836,15.382 Q21.367,15.103 21.927,16.019 Q22.481,16.925 21.566,18.162 Q18.03,23.003 11.958,22.739 Q7.751,22.554 4.665,19.591 Q1.573,16.622 1.283,12.473 Q0.98,8.237 3.591,4.916 Q3.783,4.672 4.092,4.635 Q4.4,4.598 4.644,4.79 Q4.889,4.982 4.925,5.291 Q4.962,5.599 4.77,5.844 Z"/>
</svg>

