<svg xmlns="http://www.w3.org/2000/svg" width="24" height="24" viewBox="0 0 24 24">
  <defs/>
  <path fill="#292D32" d="M9.001,19 C9.001,19.84 9.131,20.66 9.371,21.42 C5.531,20.09 2.631,16.56 2.331,12.43 C2.031,8.04 4.561,3.94 8.651,2.22 C9.711,1.78 10.251,2.1 10.481,2.33 C10.701,2.55 11.011,3.08 10.571,4.09 C10.121,5.13 9.901,6.23 9.901,7.37 C9.911,9.41 10.711,11.3 12.011,12.75 C10.181,14.21 9.001,16.47 9.001,19 Z"/>
  <path fill="#292D32" opacity="0.4" d="M21.21,17.72 C19.23,20.41 16.09,21.99 12.74,21.99 C12.58,21.99 12.42,21.98 12.26,21.97 C11.26,21.93 10.29,21.74 9.37,21.42 C9.13,20.66 9,19.84 9,19 C9,16.47 10.18,14.21 12.01,12.75 C13.48,14.4 15.59,15.47 17.92,15.57 C18.55,15.6 19.18,15.55 19.8,15.44 C20.92,15.24 21.37,15.66 21.53,15.93 C21.7,16.2 21.88,16.79 21.21,17.72 Z"/>
</svg>

