<svg xmlns="http://www.w3.org/2000/svg" width="24" height="24" viewBox="0 0 24 24">
  <defs/>
  <path fill="#292D32" d="M12.46,22.75 C12.29,22.75 12.12,22.75 11.95,22.74 C6.35,22.49 1.67,17.98 1.28,12.48 C0.94,7.76 3.67,3.35 8.07,1.5 C9.32,0.98 9.98,1.38 10.26,1.67 C10.54,1.95 10.93,2.6 10.41,3.79 C9.95,4.85 9.72,5.98 9.73,7.14 C9.75,11.57 13.43,15.33 17.92,15.51 C18.57,15.54 19.21,15.49 19.83,15.38 C21.15,15.14 21.7,15.67 21.91,16.01 C22.12,16.35 22.36,17.08 21.56,18.16 C19.44,21.06 16.07,22.75 12.46,22.75 Z M2.77,12.37 C3.11,17.13 7.17,21.03 12.01,21.24 C15.3,21.4 18.42,19.9 20.34,17.28 C20.49,17.07 20.56,16.92 20.59,16.84 C20.5,16.83 20.34,16.82 20.09,16.87 C19.36,17 18.6,17.05 17.85,17.02 C12.57,16.81 8.25,12.38 8.22,7.16 C8.22,5.78 8.49,4.45 9.04,3.2 C9.14,2.98 9.16,2.83 9.17,2.75 C9.08,2.75 8.92,2.77 8.66,2.88 C4.85,4.48 2.49,8.3 2.77,12.37 Z"/>
</svg>

