<svg xmlns="http://www.w3.org/2000/svg" width="24" height="24" viewBox="0 0 24 24">
  <defs/>
  <path fill="#292D32" d="M21.529,15.929 C21.369,15.659 20.919,15.239 19.799,15.439 C19.179,15.549 18.549,15.599 17.919,15.569 C15.589,15.469 13.479,14.399 12.009,12.749 C10.709,11.299 9.909,9.409 9.899,7.369 C9.899,6.229 10.119,5.129 10.569,4.089 C11.009,3.079 10.699,2.549 10.479,2.329 C10.249,2.099 9.709,1.779 8.649,2.219 C4.559,3.939 2.029,8.039 2.329,12.429 C2.629,16.559 5.529,20.089 9.369,21.419 C10.289,21.739 11.259,21.929 12.259,21.969 C12.419,21.979 12.579,21.989 12.739,21.989 C16.089,21.989 19.229,20.409 21.209,17.719 C21.879,16.789 21.699,16.199 21.529,15.929 Z"/>
</svg>

