<svg xmlns="http://www.w3.org/2000/svg" width="24" height="24" viewBox="0 0 24 24">
  <defs/>
  <path fill="#292D32" d="M1.282,12.474 L1.282,12.472 Q0.715,4.604 8.077,1.499 Q9.469,0.909 10.235,1.63 Q11.032,2.379 10.417,3.791 Q9.717,5.392 9.73,7.137 Q9.744,10.455 12.145,12.912 Q14.55,15.373 17.921,15.511 Q18.892,15.551 19.835,15.382 Q21.366,15.103 21.926,16.019 Q22.48,16.925 21.566,18.162 Q18.029,23.003 11.957,22.739 Q7.75,22.554 4.664,19.591 Q1.573,16.622 1.282,12.474 Z M2.778,12.368 Q3.028,15.94 5.703,18.509 Q8.381,21.081 12.023,21.241 Q17.292,21.469 20.355,17.278 Q20.674,16.846 20.646,16.801 Q20.623,16.763 20.105,16.858 Q18.994,17.057 17.859,17.009 Q13.894,16.847 11.072,13.96 Q8.246,11.069 8.23,7.143 Q8.214,5.084 9.043,3.189 Q9.235,2.748 9.208,2.723 Q9.154,2.672 8.663,2.88 Q2.287,5.569 2.778,12.366 Z"/>
</svg>

