<svg xmlns="http://www.w3.org/2000/svg" width="24" height="24" viewBox="0 0 24 24">
  <defs/>
  <path fill="#292D32" d="M15,22.75 L9,22.75 C3.57,22.75 1.25,20.43 1.25,15 L1.25,9 C1.25,3.57 3.57,1.25 9,1.25 L15,1.25 C20.43,1.25 22.75,3.57 22.75,9 L22.75,15 C22.75,20.43 20.43,22.75 15,22.75 Z M9,2.75 C4.39,2.75 2.75,4.39 2.75,9 L2.75,15 C2.75,19.61 4.39,21.25 9,21.25 L15,21.25 C19.61,21.25 21.25,19.61 21.25,15 L21.25,9 C21.25,4.39 19.61,2.75 15,2.75 L9,2.75 Z"/>
  <path fill="#292D32" d="M12,13 C11.44,13 11,12.55 11,12 C11,11.45 11.45,11 12,11 C12.55,11 13,11.45 13,12 C13,12.55 12.56,13 12,13 Z"/>
  <path fill="#292D32" d="M16,13 C15.44,13 15,12.55 15,12 C15,11.45 15.45,11 16,11 C16.55,11 17,11.45 17,12 C17,12.55 16.56,13 16,13 Z"/>
  <path fill="#292D32" d="M8,13 C7.44,13 7,12.55 7,12 C7,11.45 7.45,11 8,11 C8.55,11 9,11.45 9,12 C9,12.55 8.56,13 8,13 Z"/>
</svg>

