<svg xmlns="http://www.w3.org/2000/svg" width="24" height="24" viewBox="0 0 24 24">
  <defs/>
  <path fill="#292D32" opacity="0.4" d="M16.19,2 L7.81,2 C4.17,2 2,4.17 2,7.81 L2,16.18 C2,19.83 4.17,22 7.81,22 L16.18,22 C19.82,22 21.99,19.83 21.99,16.19 L21.99,7.81 C22,4.17 19.83,2 16.19,2 Z"/>
  <path fill="#292D32" d="M12,13 C11.44,13 11,12.55 11,12 C11,11.45 11.45,11 12,11 C12.55,11 13,11.45 13,12 C13,12.55 12.56,13 12,13 Z"/>
  <path fill="#292D32" d="M16,13 C15.44,13 15,12.55 15,12 C15,11.45 15.45,11 16,11 C16.55,11 17,11.45 17,12 C17,12.55 16.56,13 16,13 Z"/>
  <path fill="#292D32" d="M8,13 C7.44,13 7,12.55 7,12 C7,11.45 7.45,11 8,11 C8.55,11 9,11.45 9,12 C9,12.55 8.56,13 8,13 Z"/>
</svg>

