<svg xmlns="http://www.w3.org/2000/svg" width="24" height="24" viewBox="0 0 24 24">
  <defs/>
  <path fill="#292D32" opacity="0.4" d="M16.19,2 L7.81,2 C4.17,2 2,4.17 2,7.81 L2,16.18 C2,19.83 4.17,22 7.81,22 L16.18,22 C19.82,22 21.99,19.83 21.99,16.19 L21.99,7.81 C22,4.17 19.83,2 16.19,2 Z"/>
  <path fill="#292D32" opacity="0.97" d="M11.999,10.31 C12.723,10.31 13.309,9.723 13.309,9 C13.309,8.276 12.723,7.69 11.999,7.69 C11.276,7.69 10.69,8.276 10.69,9 C10.69,9.723 11.276,10.31 11.999,10.31 Z"/>
  <path fill="#292D32" opacity="0.97" d="M8.31,13.69 C7.59,13.69 7,14.28 7,15 C7,15.72 7.59,16.31 8.31,16.31 C9.03,16.31 9.62,15.72 9.62,15 C9.62,14.28 9.03,13.69 8.31,13.69 Z"/>
  <path fill="#292D32" opacity="0.97" d="M15.691,13.69 C14.971,13.69 14.381,14.28 14.381,15 C14.381,15.72 14.971,16.31 15.691,16.31 C16.411,16.31 17.001,15.72 17.001,15 C17.001,14.28 16.411,13.69 15.691,13.69 Z"/>
</svg>

