<svg xmlns="http://www.w3.org/2000/svg" width="24" height="24" viewBox="0 0 24 24">
  <defs/>
  <path fill="#292D32" d="M10.59,7.16 Q10.59,8.57 12,8.57 Q13.41,8.57 13.41,7.16 Q13.41,6.578 12.996,6.164 Q12.582,5.75 12,5.75 Q11.689,5.75 11.469,5.53 Q11.25,5.311 11.25,5 Q11.25,4.689 11.469,4.47 Q11.689,4.25 12,4.25 Q13.203,4.25 14.056,5.103 Q14.91,5.957 14.91,7.16 Q14.91,8.363 14.056,9.217 Q13.203,10.07 12,10.07 Q9.09,10.07 9.09,7.16 Q9.09,6.849 9.31,6.63 Q9.529,6.41 9.84,6.41 Q10.15,6.41 10.37,6.63 Q10.59,6.849 10.59,7.16 Z"/>
  <path fill="#292D32" d="M6.791,19.75 Q5.581,19.75 4.73,18.896 Q3.881,18.044 3.881,16.84 Q3.881,15.637 4.734,14.783 Q5.588,13.93 6.791,13.93 Q7.994,13.93 8.847,14.783 Q9.701,15.637 9.701,16.84 Q9.701,18.043 8.847,18.896 Q7.994,19.75 6.791,19.75 Z M6.791,18.25 Q7.373,18.25 7.787,17.836 Q8.201,17.422 8.201,16.84 Q8.201,16.258 7.787,15.844 Q7.373,15.43 6.791,15.43 Q6.209,15.43 5.795,15.844 Q5.381,16.258 5.381,16.84 Q5.381,17.424 5.792,17.837 Q6.204,18.25 6.791,18.25 Z"/>
  <path fill="#292D32" d="M17.211,19.75 Q14.301,19.75 14.301,16.84 Q14.301,15.385 15.028,14.657 Q15.756,13.93 17.211,13.93 Q18.414,13.93 19.267,14.783 Q20.121,15.637 20.121,16.84 Q20.121,18.043 19.267,18.896 Q18.414,19.75 17.211,19.75 Z M17.211,18.25 Q17.793,18.25 18.207,17.836 Q18.621,17.422 18.621,16.84 Q18.621,16.258 18.207,15.844 Q17.793,15.43 17.211,15.43 Q16.506,15.43 16.153,15.782 Q15.801,16.135 15.801,16.84 Q15.801,17.422 16.215,17.836 Q16.629,18.25 17.211,18.25 Z"/>
</svg>

