<svg xmlns="http://www.w3.org/2000/svg" width="24" height="24" viewBox="0 0 24 24">
  <defs/>
  <path fill="#292D32" d="M12,10.07 Q9.09,10.07 9.09,7.16 Q9.09,4.25 12,4.25 Q13.203,4.25 14.056,5.103 Q14.91,5.957 14.91,7.16 Q14.91,8.363 14.056,9.217 Q13.203,10.07 12,10.07 Z M12,8.57 Q13.41,8.57 13.41,7.16 Q13.41,6.578 12.996,6.164 Q12.582,5.75 12,5.75 Q11.418,5.75 11.004,6.164 Q10.59,6.578 10.59,7.16 Q10.59,8.57 12,8.57 Z"/>
  <path fill="#292D32" opacity="0.4" d="M6.79,19.75 Q5.58,19.75 4.729,18.896 Q3.88,18.044 3.88,16.84 Q3.88,15.637 4.733,14.784 Q5.587,13.93 6.79,13.93 Q9.7,13.93 9.7,16.84 Q9.7,18.043 8.846,18.897 Q7.993,19.75 6.79,19.75 Z M6.79,18.25 Q7.372,18.25 7.786,17.836 Q8.2,17.422 8.2,16.84 Q8.2,15.43 6.79,15.43 Q5.38,15.43 5.38,16.84 Q5.38,18.25 6.79,18.25 Z"/>
  <path fill="#292D32" d="M17.21,19.75 Q16.007,19.75 15.153,18.897 Q14.3,18.043 14.3,16.84 Q14.3,15.637 15.153,14.784 Q16.007,13.93 17.21,13.93 Q20.12,13.93 20.12,16.84 Q20.12,19.75 17.21,19.75 Z M17.21,18.25 Q18.62,18.25 18.62,16.84 Q18.62,15.43 17.21,15.43 Q16.628,15.43 16.214,15.844 Q15.8,16.258 15.8,16.84 Q15.8,17.545 16.152,17.898 Q16.505,18.25 17.21,18.25 Z"/>
</svg>

