<svg xmlns="http://www.w3.org/2000/svg" width="24" height="24" viewBox="0 0 24 24">
  <defs/>
  <path fill="#292D32" d="M9,22.75 Q1.25,22.75 1.25,15 L1.25,9 Q1.25,1.25 9,1.25 L15,1.25 Q22.75,1.25 22.75,9 L22.75,15 Q22.75,22.75 15,22.75 Z M9,21.25 L15,21.25 Q18.439,21.25 19.845,19.845 Q21.25,18.439 21.25,15 L21.25,9 Q21.25,2.75 15,2.75 L9,2.75 Q2.75,2.75 2.75,9 L2.75,15 Q2.75,18.439 4.155,19.845 Q5.561,21.25 9,21.25 Z"/>
  <path fill="#292D32" opacity="0.34" d="M15.997,11 L16.005,11 Q16.42,11 16.713,11.293 Q17.005,11.586 17.005,12 Q17.005,12.414 16.713,12.707 Q16.42,13 16.005,13 L15.997,13 Q15.582,13 15.289,12.707 Q14.997,12.414 14.997,12 Q14.997,11.586 15.289,11.293 Q15.582,11 15.997,11 Z"/>
  <path fill="#292D32" opacity="0.34" d="M11.995,11 L12.003,11 Q12.418,11 12.711,11.293 Q13.003,11.586 13.003,12 Q13.003,12.414 12.711,12.707 Q12.418,13 12.003,13 L11.995,13 Q11.58,13 11.287,12.707 Q10.994,12.414 10.994,12 Q10.994,11.586 11.287,11.293 Q11.58,11 11.995,11 Z"/>
  <path fill="#292D32" opacity="0.34" d="M7.995,11 L8.003,11 Q8.418,11 8.711,11.293 Q9.003,11.586 9.003,12 Q9.003,12.414 8.711,12.707 Q8.418,13 8.003,13 L7.995,13 Q7.58,13 7.287,12.707 Q6.995,12.414 6.995,12 Q6.995,11.586 7.287,11.293 Q7.58,11 7.995,11 Z"/>
</svg>

