<svg xmlns="http://www.w3.org/2000/svg" width="24" height="24" viewBox="0 0 24 24">
  <defs/>
  <path fill="#292D32" d="M16.19,2 L7.81,2 C4.17,2 2,4.17 2,7.81 L2,16.18 C2,19.83 4.17,22 7.81,22 L16.18,22 C19.82,22 21.99,19.83 21.99,16.19 L21.99,7.81 C22,4.17 19.83,2 16.19,2 Z M7,13.31 C6.28,13.31 5.69,12.72 5.69,12 C5.69,11.28 6.28,10.69 7,10.69 C7.72,10.69 8.31,11.28 8.31,12 C8.31,12.72 7.72,13.31 7,13.31 Z M12,13.31 C11.28,13.31 10.69,12.72 10.69,12 C10.69,11.28 11.28,10.69 12,10.69 C12.72,10.69 13.31,11.28 13.31,12 C13.31,12.72 12.72,13.31 12,13.31 Z M17,13.31 C16.28,13.31 15.69,12.72 15.69,12 C15.69,11.28 16.28,10.69 17,10.69 C17.72,10.69 18.31,11.28 18.31,12 C18.31,12.72 17.72,13.31 17,13.31 Z"/>
</svg>

