<svg xmlns="http://www.w3.org/2000/svg" width="24" height="24" viewBox="0 0 24 24">
  <defs/>
  <path fill="#292D32" opacity="0.4" d="M16.19,2 L7.81,2 C4.17,2 2,4.17 2,7.81 L2,16.18 C2,19.83 4.17,22 7.81,22 L16.18,22 C19.82,22 21.99,19.83 21.99,16.19 L21.99,7.81 C22,4.17 19.83,2 16.19,2 Z"/>
  <path fill="#292D32" d="M11.999,10.69 C11.28,10.69 10.69,11.28 10.69,12 C10.69,12.72 11.28,13.31 11.999,13.31 C12.72,13.31 13.309,12.72 13.309,12 C13.309,11.28 12.72,10.69 11.999,10.69 Z"/>
  <path fill="#292D32" d="M6.999,10.69 C6.279,10.69 5.689,11.28 5.689,12 C5.689,12.72 6.279,13.31 6.999,13.31 C7.719,13.31 8.309,12.72 8.309,12 C8.309,11.28 7.719,10.69 6.999,10.69 Z"/>
  <path fill="#292D32" d="M17,10.69 C16.279,10.69 15.69,11.28 15.69,12 C15.69,12.72 16.279,13.31 17,13.31 C17.72,13.31 18.309,12.72 18.309,12 C18.309,11.28 17.72,10.69 17,10.69 Z"/>
</svg>

