<svg xmlns="http://www.w3.org/2000/svg" width="24" height="24" viewBox="0 0 24 24">
  <defs/>
  <path fill="#292D32" d="M4.6,6.449 Q2.75,8.922 2.75,12 Q2.75,15.829 5.46,18.54 Q8.171,21.25 12,21.25 Q15.829,21.25 18.54,18.54 Q21.25,15.829 21.25,12 Q21.25,8.171 18.54,5.46 Q15.829,2.75 12,2.75 Q10.031,2.75 8.276,3.535 Q7.993,3.661 7.702,3.551 Q7.412,3.44 7.285,3.156 Q7.159,2.873 7.269,2.582 Q7.38,2.292 7.664,2.165 Q9.711,1.25 12,1.25 Q16.451,1.25 19.6,4.4 Q22.75,7.549 22.75,12 Q22.75,16.451 19.6,19.6 Q16.451,22.75 12,22.75 Q7.549,22.75 4.4,19.6 Q1.25,16.451 1.25,12 Q1.25,8.422 3.4,5.551 Q3.586,5.302 3.893,5.258 Q4.201,5.213 4.449,5.4 Q4.698,5.586 4.742,5.893 Q4.787,6.201 4.6,6.449 Z"/>
  <path fill="#292D32" d="M15.997,11 L16.005,11 Q16.42,11 16.713,11.293 Q17.005,11.586 17.005,12 Q17.005,12.414 16.713,12.707 Q16.42,13 16.005,13 L15.997,13 Q15.582,13 15.289,12.707 Q14.997,12.414 14.997,12 Q14.997,11.586 15.289,11.293 Q15.582,11 15.997,11 Z"/>
  <path fill="#292D32" d="M11.995,11 L12.003,11 Q12.418,11 12.711,11.293 Q13.003,11.586 13.003,12 Q13.003,12.414 12.711,12.707 Q12.418,13 12.003,13 L11.995,13 Q11.58,13 11.287,12.707 Q10.994,12.414 10.994,12 Q10.994,11.586 11.287,11.293 Q11.58,11 11.995,11 Z"/>
  <path fill="#292D32" d="M7.995,11 L8.003,11 Q8.418,11 8.711,11.293 Q9.003,11.586 9.003,12 Q9.003,12.414 8.711,12.707 Q8.418,13 8.003,13 L7.995,13 Q7.58,13 7.287,12.707 Q6.995,12.414 6.995,12 Q6.995,11.586 7.287,11.293 Q7.58,11 7.995,11 Z"/>
</svg>

