<svg xmlns="http://www.w3.org/2000/svg" width="24" height="24" viewBox="0 0 24 24">
  <defs/>
  <path fill="#292D32" d="M5,14.75 C3.48,14.75 2.25,13.52 2.25,12 C2.25,10.48 3.48,9.25 5,9.25 C6.52,9.25 7.75,10.48 7.75,12 C7.75,13.52 6.52,14.75 5,14.75 Z M5,10.75 C4.31,10.75 3.75,11.31 3.75,12 C3.75,12.69 4.31,13.25 5,13.25 C5.69,13.25 6.25,12.69 6.25,12 C6.25,11.31 5.69,10.75 5,10.75 Z"/>
  <path fill="#292D32" d="M19,14.75 C17.48,14.75 16.25,13.52 16.25,12 C16.25,10.48 17.48,9.25 19,9.25 C20.52,9.25 21.75,10.48 21.75,12 C21.75,13.52 20.52,14.75 19,14.75 Z M19,10.75 C18.31,10.75 17.75,11.31 17.75,12 C17.75,12.69 18.31,13.25 19,13.25 C19.69,13.25 20.25,12.69 20.25,12 C20.25,11.31 19.69,10.75 19,10.75 Z"/>
  <path fill="#292D32" d="M12,14.75 C10.48,14.75 9.25,13.52 9.25,12 C9.25,10.48 10.48,9.25 12,9.25 C13.52,9.25 14.75,10.48 14.75,12 C14.75,13.52 13.52,14.75 12,14.75 Z M12,10.75 C11.31,10.75 10.75,11.31 10.75,12 C10.75,12.69 11.31,13.25 12,13.25 C12.69,13.25 13.25,12.69 13.25,12 C13.25,11.31 12.69,10.75 12,10.75 Z"/>
</svg>

