<svg xmlns="http://www.w3.org/2000/svg" width="24" height="24" viewBox="0 0 24 24">
  <defs/>
  <path fill="#292D32" opacity="0.97" d="M16.19,2 L7.81,2 C4.17,2 2,4.17 2,7.81 L2,16.18 C2,19.83 4.17,22 7.81,22 L16.18,22 C19.82,22 21.99,19.83 21.99,16.19 L21.99,7.81 C22,4.17 19.83,2 16.19,2 Z M8.31,16.31 C7.59,16.31 7,15.72 7,15 C7,14.28 7.59,13.69 8.31,13.69 C9.03,13.69 9.62,14.28 9.62,15 C9.62,15.72 9.03,16.31 8.31,16.31 Z M12,10.31 C11.28,10.31 10.69,9.72 10.69,9 C10.69,8.28 11.28,7.69 12,7.69 C12.72,7.69 13.31,8.28 13.31,9 C13.31,9.72 12.72,10.31 12,10.31 Z M15.69,16.31 C14.97,16.31 14.38,15.72 14.38,15 C14.38,14.28 14.97,13.69 15.69,13.69 C16.41,13.69 17,14.28 17,15 C17,15.72 16.41,16.31 15.69,16.31 Z"/>
</svg>

