<svg xmlns="http://www.w3.org/2000/svg" width="24" height="24" viewBox="0 0 24 24">
  <defs/>
  <path fill="#292D32" d="M16.388,13.541 L14.658,14.121 Q14.255,14.255 14.121,14.657 L13.541,16.388 Q13.003,18.022 11.285,18.002 Q9.57,17.982 9.063,16.341 L7.113,10.062 Q6.697,8.693 7.694,7.69 Q8.694,6.684 10.051,7.103 L16.342,9.054 Q17.982,9.571 17.998,11.285 Q18.015,13.001 16.388,13.541 Z M15.914,12.118 Q16.505,11.922 16.498,11.3 Q16.492,10.674 15.898,10.486 L9.608,8.536 Q9.118,8.385 8.758,8.747 Q8.393,9.114 8.546,9.617 L10.496,15.899 Q10.68,16.495 11.302,16.502 Q11.922,16.51 12.119,15.911 L12.698,14.183 Q13.069,13.069 14.181,12.699 L15.911,12.119 Z"/>
  <path fill="#292D32" d="M4.6,6.449 Q2.75,8.922 2.75,12 Q2.75,15.829 5.46,18.54 Q8.171,21.25 12,21.25 Q15.829,21.25 18.54,18.54 Q21.25,15.829 21.25,12 Q21.25,8.171 18.54,5.46 Q15.829,2.75 12,2.75 Q10.031,2.75 8.276,3.535 Q7.993,3.661 7.702,3.551 Q7.412,3.44 7.285,3.156 Q7.159,2.873 7.269,2.582 Q7.38,2.292 7.664,2.165 Q9.711,1.25 12,1.25 Q16.451,1.25 19.6,4.4 Q22.75,7.549 22.75,12 Q22.75,16.451 19.6,19.6 Q16.451,22.75 12,22.75 Q7.549,22.75 4.4,19.6 Q1.25,16.451 1.25,12 Q1.25,8.422 3.4,5.551 Q3.586,5.302 3.893,5.258 Q4.201,5.213 4.449,5.4 Q4.698,5.586 4.742,5.893 Q4.787,6.201 4.6,6.449 Z"/>
</svg>

