<svg xmlns="http://www.w3.org/2000/svg" width="24" height="24" viewBox="0 0 24 24">
  <defs/>
  <path fill="#292D32" d="M21,7.52 L21,13.4 C21,13.74 20.67,13.98 20.35,13.88 L16.42,12.66 C15.34,12.33 14.18,12.61 13.39,13.4 C12.59,14.2 12.3,15.37 12.64,16.45 L13.85,20.35 C13.95,20.67 13.71,21 13.37,21 L7.52,21 C4.07,21 2,18.94 2,15.48 L2,7.52 C2,4.06 4.07,2 7.52,2 L15.48,2 C18.93,2 21,4.06 21,7.52 Z"/>
  <path fill="#292D32" d="M21.96,18.838 L20.33,19.389 C19.88,19.538 19.52,19.889 19.37,20.349 L18.82,21.979 C18.35,23.389 16.37,23.358 15.93,21.948 L14.08,15.998 C13.72,14.819 14.81,13.719 15.98,14.088 L21.94,15.938 C23.34,16.378 23.36,18.369 21.96,18.838 Z"/>
</svg>

