<svg xmlns="http://www.w3.org/2000/svg" width="24" height="24" viewBox="0 0 24 24">
  <defs/>
  <path fill="#292D32" opacity="0.4" d="M19.5,9.5 L19.5,14.5 C19.5,18.63 16.13,22 12,22 C7.87,22 4.5,18.63 4.5,14.5 L4.5,9.5 C4.5,7.44 5.34,5.56 6.7,4.2 C7.89,3.01 9.48,2.22 11.25,2.04 C11.49,2.01 11.75,2 12,2 C12.25,2 12.51,2.01 12.75,2.04 C16.53,2.42 19.5,5.62 19.5,9.5 Z"/>
  <path fill="#292D32" d="M13.869,7.5 L13.869,9.5 C13.869,10.53 13.029,11.38 11.999,11.38 C10.959,11.38 10.119,10.53 10.119,9.5 L10.119,7.5 C10.119,6.73 10.589,6.07 11.249,5.78 L11.249,2.04 C11.489,2.01 11.749,2 11.999,2 C12.249,2 12.509,2.01 12.749,2.04 L12.749,5.78 C13.409,6.07 13.869,6.73 13.869,7.5 Z"/>
</svg>

