<svg xmlns="http://www.w3.org/2000/svg" width="24" height="24" viewBox="0 0 24 24">
  <defs/>
  <path fill="#292D32" d="M16.369,22.77 C16.359,22.77 16.359,22.77 16.349,22.77 C15.339,22.76 14.499,22.14 14.199,21.17 L12.349,15.22 C12.099,14.4 12.309,13.52 12.919,12.93 C13.519,12.34 14.389,12.12 15.189,12.37 L21.149,14.22 C22.109,14.52 22.739,15.36 22.749,16.37 C22.759,17.37 22.149,18.22 21.189,18.54 L19.559,19.09 C19.329,19.17 19.149,19.34 19.079,19.57 L18.519,21.21 C18.209,22.16 17.369,22.77 16.369,22.77 Z M14.509,13.77 C14.239,13.77 14.059,13.92 13.979,13.99 C13.769,14.2 13.699,14.49 13.789,14.78 L15.639,20.73 C15.799,21.24 16.239,21.26 16.379,21.27 C16.519,21.27 16.949,21.23 17.109,20.74 L17.669,19.1 C17.889,18.43 18.429,17.9 19.099,17.67 L20.729,17.12 C21.229,16.96 21.259,16.52 21.259,16.39 C21.259,16.26 21.219,15.82 20.719,15.66 L14.759,13.81 C14.659,13.78 14.579,13.77 14.509,13.77 Z"/>
  <path fill="#292D32" d="M12,22.75 C6.07,22.75 1.25,17.93 1.25,12 C1.25,6.07 6.07,1.25 12,1.25 C17.93,1.25 22.75,6.07 22.75,12 C22.75,12.41 22.41,12.75 22,12.75 C21.59,12.75 21.25,12.41 21.25,12 C21.25,6.9 17.1,2.75 12,2.75 C6.9,2.75 2.75,6.9 2.75,12 C2.75,17.1 6.9,21.25 12,21.25 C12.41,21.25 12.75,21.59 12.75,22 C12.75,22.41 12.41,22.75 12,22.75 Z"/>
</svg>

