<svg xmlns="http://www.w3.org/2000/svg" width="24" height="24" viewBox="0 0 24 24">
  <defs/>
  <path fill="#292D32" d="M20.96,17.838 L19.33,18.389 C18.88,18.538 18.52,18.889 18.37,19.349 L17.82,20.979 C17.35,22.389 15.37,22.358 14.93,20.948 L13.08,14.998 C12.72,13.819 13.81,12.719 14.98,13.088 L20.94,14.938 C22.34,15.379 22.36,17.369 20.96,17.838 Z"/>
  <path fill="#292D32" d="M20.999,11.499 C20.999,11.929 20.969,12.359 20.919,12.779 C20.879,13.079 20.569,13.259 20.279,13.169 L15.429,11.659 C14.349,11.329 13.199,11.609 12.399,12.399 C11.599,13.199 11.309,14.369 11.649,15.449 L13.149,20.279 C13.239,20.569 13.049,20.879 12.749,20.919 C12.329,20.969 11.919,20.999 11.499,20.999 C6.159,20.999 1.859,16.609 1.999,11.229 C2.139,6.269 6.269,2.139 11.229,1.999 C16.609,1.859 20.999,6.159 20.999,11.499 Z"/>
</svg>

