<svg xmlns="http://www.w3.org/2000/svg" width="24" height="24" viewBox="0 0 24 24">
  <defs/>
  <path fill="#292D32" d="M20.96,17.84 L19.33,18.39 C18.88,18.54 18.52,18.89 18.37,19.35 L17.82,20.98 C17.35,22.39 15.37,22.36 14.93,20.95 L13.08,15 C12.72,13.82 13.81,12.72 14.98,13.09 L20.94,14.94 C22.34,15.38 22.36,17.37 20.96,17.84 Z"/>
  <path fill="#292D32" opacity="0.4" d="M11.5,21 C16.747,21 21,16.747 21,11.5 C21,6.253 16.747,2 11.5,2 C6.253,2 2,6.253 2,11.5 C2,16.747 6.253,21 11.5,21 Z"/>
</svg>

