<svg xmlns="http://www.w3.org/2000/svg" width="24" height="24" viewBox="0 0 24 24">
  <defs/>
  <path fill="#292D32" d="M11.311,18 C11.301,18 11.301,18 11.291,18 C10.251,17.99 9.371,17.34 9.061,16.35 L7.111,10.07 C6.851,9.22 7.071,8.31 7.701,7.69 C8.321,7.07 9.221,6.85 10.061,7.11 L16.351,9.06 C17.351,9.37 18.001,10.25 18.011,11.29 C18.021,12.33 17.391,13.21 16.401,13.54 L14.681,14.12 C14.421,14.21 14.231,14.4 14.141,14.65 L13.551,16.38 C13.221,17.37 12.341,18 11.311,18 Z M9.341,8.5 C9.041,8.5 8.841,8.66 8.751,8.75 C8.521,8.98 8.441,9.31 8.541,9.62 L10.491,15.9 C10.661,16.45 11.151,16.5 11.301,16.5 C11.421,16.49 11.931,16.46 12.111,15.91 L12.701,14.18 C12.931,13.49 13.491,12.93 14.181,12.7 L15.901,12.12 C15.901,12.12 15.901,12.12 15.911,12.12 C16.461,11.94 16.501,11.45 16.501,11.31 C16.501,11.16 16.451,10.67 15.901,10.5 L9.611,8.55 C9.511,8.51 9.421,8.5 9.341,8.5 Z"/>
  <path fill="#292D32" d="M12,22.75 C6.07,22.75 1.25,17.93 1.25,12 C1.25,6.07 6.07,1.25 12,1.25 C17.93,1.25 22.75,6.07 22.75,12 C22.75,17.93 17.93,22.75 12,22.75 Z M12,2.75 C6.9,2.75 2.75,6.9 2.75,12 C2.75,17.1 6.9,21.25 12,21.25 C17.1,21.25 21.25,17.1 21.25,12 C21.25,6.9 17.1,2.75 12,2.75 Z"/>
</svg>

