<svg xmlns="http://www.w3.org/2000/svg" width="24" height="24" viewBox="0 0 24 24">
  <defs/>
  <path fill="#292D32" opacity="0.4" d="M15.48,2 L7.53,2 C4.07,2 2.01,4.06 2.01,7.52 L2.01,15.47 C2.01,18.93 4.08,20.99 7.53,20.99 L15.48,20.99 C18.94,20.99 21,18.93 21,15.47 L21,7.52 C21,4.06 18.93,2 15.48,2 Z"/>
  <path fill="#292D32" d="M21.96,18.84 L20.33,19.39 C19.88,19.54 19.52,19.89 19.37,20.35 L18.82,21.98 C18.35,23.39 16.37,23.36 15.93,21.95 L14.08,16 C13.72,14.82 14.81,13.72 15.98,14.09 L21.94,15.94 C23.34,16.38 23.36,18.37 21.96,18.84 Z"/>
</svg>

