<svg xmlns="http://www.w3.org/2000/svg" width="24" height="24" viewBox="0 0 24 24">
  <defs/>
  <path fill="#292D32" d="M2.75,13.02 L2.75,15 Q2.75,18.439 4.155,19.845 Q5.561,21.25 9,21.25 L12,21.25 Q12.311,21.25 12.53,21.47 Q12.75,21.689 12.75,22 Q12.75,22.311 12.53,22.53 Q12.311,22.75 12,22.75 L9,22.75 Q1.25,22.75 1.25,15 L1.25,13.02 Q1.25,12.709 1.47,12.49 Q1.689,12.27 2,12.27 Q2.311,12.27 2.53,12.49 Q2.75,12.709 2.75,13.02 Z"/>
  <path fill="#292D32" d="M21.25,12 L21.25,9 Q21.25,2.75 15,2.75 L9,2.75 Q2.75,2.75 2.75,9 Q2.75,9.311 2.53,9.53 Q2.311,9.75 2,9.75 Q1.689,9.75 1.47,9.53 Q1.25,9.311 1.25,9 Q1.25,1.25 9,1.25 L15,1.25 Q22.75,1.25 22.75,9 L22.75,12 Q22.75,12.311 22.53,12.53 Q22.311,12.75 22,12.75 Q21.689,12.75 21.47,12.53 Q21.25,12.311 21.25,12 Z"/>
  <path fill="#292D32" d="M21.199,18.551 L19.569,19.101 Q19.2,19.224 19.083,19.583 L18.53,21.22 Q18.006,22.793 16.354,22.772 Q14.706,22.752 14.214,21.173 L12.364,15.223 Q11.961,13.904 12.924,12.935 Q13.893,11.96 15.206,12.375 L21.162,14.224 Q22.736,14.718 22.75,16.373 Q22.763,18.025 21.199,18.551 Z M20.721,17.129 Q21.254,16.95 21.25,16.385 Q21.245,15.822 20.717,15.656 L14.754,13.805 Q14.313,13.666 13.988,13.992 Q13.658,14.325 13.796,14.777 L15.646,20.727 Q15.814,21.266 16.373,21.273 Q16.929,21.279 17.109,20.74 L17.657,19.117 Q18.008,18.04 19.09,17.679 L20.72,17.129 Z"/>
</svg>

