<svg xmlns="http://www.w3.org/2000/svg" width="24" height="24" viewBox="0 0 24 24">
  <defs/>
  <path fill="#292D32" d="M21.199,18.551 L19.569,19.101 Q19.2,19.224 19.083,19.583 L18.53,21.22 Q18.006,22.793 16.354,22.772 Q14.706,22.752 14.214,21.173 L12.364,15.223 Q11.961,13.904 12.924,12.935 Q13.893,11.96 15.206,12.375 L21.162,14.224 Q22.736,14.718 22.75,16.373 Q22.763,18.025 21.199,18.551 Z M20.721,17.129 Q21.254,16.95 21.25,16.385 Q21.245,15.822 20.717,15.656 L14.754,13.805 Q14.313,13.666 13.988,13.992 Q13.658,14.325 13.796,14.777 L15.646,20.727 Q15.814,21.266 16.373,21.273 Q16.929,21.279 17.109,20.74 L17.657,19.117 Q18.008,18.04 19.09,17.679 L20.72,17.129 Z"/>
  <path fill="#292D32" d="M4.582,6.477 Q2.75,8.945 2.75,12 Q2.75,15.829 5.46,18.54 Q8.171,21.25 12,21.25 Q12.311,21.25 12.53,21.47 Q12.75,21.689 12.75,22 Q12.75,22.311 12.53,22.53 Q12.311,22.75 12,22.75 Q7.549,22.75 4.4,19.6 Q1.25,16.451 1.25,12 Q1.25,8.449 3.378,5.583 Q3.563,5.333 3.87,5.288 Q4.178,5.243 4.427,5.428 Q4.677,5.613 4.722,5.92 Q4.767,6.228 4.582,6.477 Z"/>
  <path fill="#292D32" d="M21.25,12 Q21.25,8.171 18.539,5.46 Q15.829,2.75 12,2.75 Q9.947,2.75 8.076,3.62 Q7.794,3.751 7.503,3.645 Q7.211,3.538 7.08,3.256 Q6.949,2.975 7.055,2.683 Q7.162,2.391 7.443,2.26 Q9.615,1.25 12,1.25 Q16.45,1.25 19.6,4.4 Q22.75,7.549 22.75,12 Q22.75,12.311 22.53,12.53 Q22.31,12.75 22,12.75 Q21.689,12.75 21.469,12.53 Q21.25,12.311 21.25,12 Z"/>
</svg>

