<svg xmlns="http://www.w3.org/2000/svg" width="24" height="24" viewBox="0 0 24 24">
  <defs/>
  <path fill="#292D32" d="M13.298,2.115 C13.006,2.063 12.75,2.296 12.75,2.592 L12.75,5.453 C12.75,5.651 12.871,5.826 13.036,5.936 C13.539,6.272 13.87,6.846 13.87,7.499 L13.87,9.499 C13.87,10.529 13.03,11.379 12,11.379 C10.96,11.379 10.12,10.529 10.12,9.499 L10.12,7.499 C10.12,6.846 10.458,6.272 10.964,5.936 C11.129,5.826 11.25,5.651 11.25,5.453 L11.25,2.592 C11.25,2.296 10.993,2.064 10.702,2.115 C9.152,2.388 7.766,3.133 6.7,4.199 C5.34,5.559 4.5,7.439 4.5,9.499 L4.5,14.499 C4.5,18.629 7.87,21.999 12,21.999 C16.13,21.999 19.5,18.629 19.5,14.499 L19.5,9.499 C19.5,5.809 16.813,2.733 13.298,2.115 Z"/>
</svg>

