<svg xmlns="http://www.w3.org/2000/svg" width="24" height="24" viewBox="0 0 24 24">
  <defs/>
  <path fill="#292D32" d="M5.25,13.63 L5.25,14.5 Q5.25,17.281 7.232,19.265 Q9.215,21.25 12,21.25 Q14.781,21.25 16.765,19.268 Q18.75,17.285 18.75,14.5 L18.75,9.5 Q18.75,6.713 16.768,4.732 Q14.787,2.75 12,2.75 Q9.213,2.75 7.232,4.732 Q5.25,6.713 5.25,9.5 Q5.25,9.811 5.03,10.03 Q4.811,10.25 4.5,10.25 Q4.189,10.25 3.97,10.03 Q3.75,9.811 3.75,9.5 Q3.75,6.092 6.171,3.671 Q8.592,1.25 12,1.25 Q15.408,1.25 17.829,3.671 Q20.25,6.092 20.25,9.5 L20.25,14.5 Q20.25,17.907 17.825,20.329 Q15.402,22.75 12,22.75 Q8.593,22.75 6.171,20.325 Q3.75,17.902 3.75,14.5 L3.75,13.63 Q3.75,13.319 3.97,13.1 Q4.189,12.88 4.5,12.88 Q4.811,12.88 5.03,13.1 Q5.25,13.319 5.25,13.63 Z"/>
  <path fill="#292D32" d="M12,11.75 Q9.75,11.75 9.75,9.5 L9.75,7.5 Q9.75,5.25 12,5.25 Q14.25,5.25 14.25,7.5 L14.25,9.5 Q14.25,11.75 12,11.75 Z M12,10.25 Q12.75,10.25 12.75,9.5 L12.75,7.5 Q12.75,6.75 12,6.75 Q11.25,6.75 11.25,7.5 L11.25,9.5 Q11.25,10.25 12,10.25 Z"/>
  <path fill="#292D32" d="M11.25,6 L11.25,2 Q11.25,1.689 11.47,1.47 Q11.689,1.25 12,1.25 Q12.311,1.25 12.53,1.47 Q12.75,1.689 12.75,2 L12.75,6 Q12.75,6.311 12.53,6.53 Q12.311,6.75 12,6.75 Q11.689,6.75 11.47,6.53 Q11.25,6.311 11.25,6 Z"/>
</svg>

