<svg xmlns="http://www.w3.org/2000/svg" width="24" height="24" viewBox="0 0 24 24">
  <defs/>
  <path fill="#292D32" d="M17,22.75 L7,22.75 C3.35,22.75 1.25,20.65 1.25,17 L1.25,12 C1.25,8.35 3.35,6.25 7,6.25 L17,6.25 C20.65,6.25 22.75,8.35 22.75,12 L22.75,17 C22.75,20.65 20.65,22.75 17,22.75 Z M7,7.75 C4.14,7.75 2.75,9.14 2.75,12 L2.75,17 C2.75,19.86 4.14,21.25 7,21.25 L17,21.25 C19.86,21.25 21.25,19.86 21.25,17 L21.25,12 C21.25,9.14 19.86,7.75 17,7.75 L7,7.75 Z"/>
  <path fill="#292D32" d="M18,5.25 L6,5.25 C5.59,5.25 5.25,4.91 5.25,4.5 C5.25,4.09 5.59,3.75 6,3.75 L18,3.75 C18.41,3.75 18.75,4.09 18.75,4.5 C18.75,4.91 18.41,5.25 18,5.25 Z"/>
  <path fill="#292D32" d="M15,2.75 L9,2.75 C8.59,2.75 8.25,2.41 8.25,2 C8.25,1.59 8.59,1.25 9,1.25 L15,1.25 C15.41,1.25 15.75,1.59 15.75,2 C15.75,2.41 15.41,2.75 15,2.75 Z"/>
  <path fill="#292D32" d="M8.89,19.86 C7.72,19.86 6.77,18.91 6.77,17.74 C6.77,16.57 7.72,15.62 8.89,15.62 C10.059,15.62 11.009,16.57 11.009,17.74 C11.009,18.91 10.059,19.86 8.89,19.86 Z M8.89,17.12 C8.55,17.12 8.27,17.4 8.27,17.74 C8.27,18.08 8.55,18.36 8.89,18.36 C9.23,18.36 9.51,18.08 9.51,17.74 C9.51,17.4 9.23,17.12 8.89,17.12 Z"/>
  <path fill="#292D32" d="M10.26,18.49 C9.85,18.49 9.51,18.15 9.51,17.74 L9.51,12.23 C9.51,11.35 10.06,10.64 10.9,10.41 L13.64,9.66 C14.51,9.42 15.06,9.65 15.36,9.89 C15.66,10.12 16.02,10.59 16.02,11.48 L16.02,16.83 C16.02,17.24 15.68,17.58 15.27,17.58 C14.86,17.58 14.52,17.24 14.52,16.83 L14.52,11.48 C14.52,11.2 14.46,11.09 14.44,11.08 C14.42,11.07 14.3,11.03 14.02,11.11 L11.29,11.86 C11.04,11.93 11,12.1 11,12.24 L11,17.75 C11.01,18.15 10.67,18.49 10.26,18.49 Z"/>
  <path fill="#292D32" d="M13.909,18.95 C12.739,18.95 11.789,18 11.789,16.83 C11.789,15.66 12.739,14.71 13.909,14.71 C15.079,14.71 16.029,15.66 16.029,16.83 C16.029,18 15.079,18.95 13.909,18.95 Z M13.909,16.21 C13.569,16.21 13.289,16.49 13.289,16.83 C13.289,17.17 13.569,17.45 13.909,17.45 C14.249,17.45 14.529,17.17 14.529,16.83 C14.529,16.49 14.249,16.21 13.909,16.21 Z"/>
  <path fill="#292D32" d="M10.26,14.58 C9.93,14.58 9.63,14.36 9.54,14.03 C9.43,13.63 9.67,13.22 10.07,13.11 L15.08,11.74 C15.49,11.63 15.89,11.87 16,12.27 C16.11,12.67 15.87,13.08 15.47,13.19 L10.46,14.56 C10.39,14.57 10.33,14.58 10.26,14.58 Z"/>
</svg>

