<svg xmlns="http://www.w3.org/2000/svg" width="24" height="24" viewBox="0 0 24 24">
  <defs/>
  <path fill="#292D32" d="M1.27,12.235 Q1.181,7.703 4.31,4.503 Q7.441,1.3 11.97,1.3 Q16.477,1.3 19.635,4.486 Q22.77,7.649 22.77,12.11 L22.77,18.27 Q22.77,20.043 21.496,21.317 Q20.223,22.59 18.45,22.59 Q16.676,22.59 15.403,21.317 Q14.13,20.043 14.13,18.27 L14.13,15.46 Q14.13,12.87 16.72,12.87 Q17.768,12.87 18.523,13.594 Q19.31,14.349 19.31,15.46 L19.31,18.49 Q19.31,18.801 19.09,19.02 Q18.87,19.24 18.56,19.24 Q18.249,19.24 18.029,19.02 Q17.81,18.801 17.81,18.49 L17.81,15.46 Q17.81,14.37 16.72,14.37 Q15.63,14.37 15.63,15.46 L15.63,18.27 Q15.63,21.09 18.45,21.09 Q21.27,21.09 21.27,18.27 L21.27,12.11 Q21.27,8.266 18.569,5.542 Q15.852,2.8 11.97,2.8 Q8.072,2.8 5.382,5.552 Q2.693,8.303 2.769,12.205 Q2.776,12.516 2.56,12.74 Q2.345,12.964 2.034,12.97 Q1.724,12.976 1.5,12.761 Q1.276,12.545 1.27,12.235 Z"/>
  <path fill="#292D32" d="M4.73,18.49 L4.73,15.57 Q4.73,12.98 7.32,12.98 Q9.91,12.98 9.91,15.57 L9.91,18.38 Q9.91,20.153 8.636,21.427 Q7.363,22.7 5.59,22.7 Q3.818,22.7 2.542,21.422 Q1.27,20.147 1.27,18.38 L1.27,16.01 Q1.27,15.699 1.489,15.48 Q1.709,15.26 2.02,15.26 Q2.33,15.26 2.55,15.48 Q2.77,15.699 2.77,16.01 L2.77,18.38 Q2.77,21.2 5.59,21.2 Q6.741,21.2 7.575,20.366 Q8.41,19.532 8.41,18.38 L8.41,15.57 Q8.41,14.48 7.32,14.48 Q6.23,14.48 6.23,15.57 L6.23,18.49 Q6.23,18.801 6.01,19.02 Q5.79,19.24 5.48,19.24 Q5.169,19.24 4.949,19.02 Q4.73,18.801 4.73,18.49 Z"/>
  <path fill="#292D32" d="M10.87,8.525 L10.802,8.389 L10.38,9.167 Q10.01,9.87 9.201,9.87 L8.471,9.87 Q8.16,9.87 7.94,9.65 Q7.721,9.431 7.721,9.12 Q7.721,8.809 7.94,8.59 Q8.16,8.37 8.471,8.37 L9.106,8.37 L9.896,6.912 Q10.195,6.342 10.839,6.358 Q11.457,6.373 11.752,6.935 L12.212,7.855 Q12.35,8.132 12.252,8.427 Q12.154,8.722 11.876,8.861 Q11.598,9 11.304,8.902 Q11.009,8.803 10.87,8.525 Z M11.217,7.624 Q11.221,7.616 11.225,7.608 L11.217,7.624 Z M9.064,8.448 Q9.063,8.45 9.061,8.453 L9.064,8.448 Z"/>
  <path fill="#292D32" d="M15.53,9.87 L14.814,9.87 L14.111,11.276 Q13.821,11.855 13.175,11.855 Q12.529,11.855 12.239,11.276 Q12.1,10.998 12.199,10.703 Q12.297,10.408 12.575,10.269 Q12.771,10.171 12.976,10.191 L13.527,9.091 Q13.906,8.37 14.72,8.37 L15.53,8.37 Q15.841,8.37 16.061,8.59 Q16.28,8.809 16.28,9.12 Q16.28,9.431 16.061,9.65 Q15.841,9.87 15.53,9.87 Z"/>
</svg>

