<svg xmlns="http://www.w3.org/2000/svg" width="24" height="24" viewBox="0 0 24 24">
  <defs/>
  <path fill="#292D32" d="M6.28,22.75 Q4.677,22.75 3.544,21.616 Q2.41,20.483 2.41,18.88 Q2.41,15.01 6.28,15.01 Q10.15,15.01 10.15,18.88 Q10.15,20.483 9.017,21.616 Q7.883,22.75 6.28,22.75 Z M6.28,21.25 Q8.65,21.25 8.65,18.88 Q8.65,16.51 6.28,16.51 Q5.298,16.51 4.604,17.204 Q3.91,17.898 3.91,18.88 Q3.91,21.25 6.28,21.25 Z"/>
  <path fill="#292D32" d="M17.72,20.67 Q13.85,20.67 13.85,16.8 Q13.85,12.93 17.72,12.93 Q21.59,12.93 21.59,16.8 Q21.59,18.403 20.456,19.537 Q19.323,20.67 17.72,20.67 Z M17.72,19.17 Q20.09,19.17 20.09,16.8 Q20.09,14.43 17.72,14.43 Q16.738,14.43 16.044,15.124 Q15.35,15.818 15.35,16.8 Q15.35,19.17 17.72,19.17 Z"/>
  <g opacity="0.4">
    <path fill="#292D32" d="M20.09,16.8 L20.09,4.6 Q20.09,3.229 19.441,2.849 Q18.864,2.512 17.758,2.814 L11.518,4.514 Q10.15,4.886 10.15,6.3 L10.15,18.87 Q10.15,19.181 9.931,19.401 Q9.711,19.62 9.4,19.62 Q9.09,19.62 8.87,19.401 Q8.65,19.181 8.65,18.87 L8.65,6.3 Q8.65,3.739 11.123,3.067 L17.363,1.367 Q19.077,0.899 20.198,1.554 Q21.59,2.368 21.59,4.6 L21.59,16.8 Q21.59,17.111 21.371,17.331 Q21.151,17.55 20.84,17.55 Q20.53,17.55 20.31,17.331 Q20.09,17.111 20.09,16.8 Z"/>
    <path fill="#292D32" d="M9.203,8.797 L20.643,5.677 Q20.943,5.595 21.213,5.749 Q21.482,5.903 21.564,6.203 Q21.646,6.503 21.492,6.772 Q21.337,7.042 21.038,7.124 L9.598,10.244 Q9.298,10.326 9.028,10.172 Q8.759,10.017 8.677,9.718 Q8.595,9.418 8.749,9.148 Q8.903,8.879 9.203,8.797 Z"/>
  </g>
</svg>

