<svg xmlns="http://www.w3.org/2000/svg" width="24" height="24" viewBox="0 0 24 24">
  <defs/>
  <path fill="#292D32" opacity="0.4" d="M2.58,9.42 C2.5,9.42 2.41,9.41 2.33,9.38 C1.94,9.24 1.74,8.81 1.87,8.42 C2.54,6.54 3.7,4.89 5.25,3.64 C5.57,3.38 6.04,3.43 6.3,3.75 C6.56,4.07 6.51,4.54 6.19,4.81 C4.86,5.88 3.86,7.3 3.29,8.92 C3.18,9.23 2.89,9.42 2.58,9.42 Z"/>
  <path fill="#292D32" opacity="0.4" d="M2.58,16.08 C2.27,16.08 1.98,15.89 1.87,15.58 C1.46,14.41 1.25,13.21 1.25,12 C1.25,11.59 1.59,11.25 2,11.25 C2.41,11.25 2.75,11.59 2.75,12 C2.75,13.04 2.93,14.08 3.29,15.08 C3.43,15.47 3.22,15.9 2.83,16.04 C2.75,16.07 2.66,16.08 2.58,16.08 Z"/>
  <path fill="#292D32" opacity="0.4" d="M12.001,22.75 C10.941,22.75 9.891,22.59 8.871,22.28 C8.471,22.16 8.251,21.74 8.371,21.34 C8.491,20.94 8.911,20.72 9.311,20.84 C10.181,21.11 11.091,21.24 12.001,21.24 C17.101,21.24 21.251,17.09 21.251,11.99 C21.251,11.47 21.201,10.93 21.101,10.36 C21.031,9.95 21.301,9.56 21.711,9.49 C22.111,9.42 22.511,9.69 22.581,10.1 C22.701,10.76 22.761,11.38 22.761,12 C22.751,17.93 17.931,22.75 12.001,22.75 Z"/>
  <path fill="#292D32" opacity="0.4" d="M5.72,20.5 C5.55,20.5 5.39,20.45 5.25,20.33 C4.68,19.87 4.22,19.43 3.83,18.98 C3.56,18.67 3.6,18.19 3.91,17.92 C4.23,17.65 4.7,17.69 4.97,18 C5.3,18.38 5.7,18.76 6.19,19.16 C6.51,19.42 6.56,19.89 6.3,20.21 C6.16,20.4 5.94,20.5 5.72,20.5 Z"/>
  <path fill="#292D32" opacity="0.4" d="M20.24,7.09 C20,7.09 19.77,6.98 19.62,6.76 C17.89,4.24 15.04,2.74 12,2.74 C11.09,2.74 10.18,2.87 9.31,3.14 C8.92,3.26 8.5,3.04 8.37,2.64 C8.24,2.24 8.47,1.82 8.87,1.7 C9.89,1.39 10.94,1.23 12,1.23 C15.54,1.23 18.85,2.98 20.86,5.9 C21.09,6.24 21.01,6.71 20.67,6.94 C20.54,7.05 20.39,7.09 20.24,7.09 Z"/>
  <path fill="#292D32" d="M16.03,6.5 C15.7,6.25 15.1,6 14.14,6.26 L10.95,7.12 C10.03,7.38 9.43,8.16 9.43,9.12 L9.43,10.76 L9.43,13.34 C9.17,13.24 8.89,13.18 8.59,13.18 C7.3,13.18 6.25,14.23 6.25,15.52 C6.25,16.81 7.3,17.86 8.59,17.86 C9.87,17.86 10.9,16.83 10.92,15.56 C10.92,15.55 10.93,15.54 10.93,15.52 L10.93,11.33 L15.25,10.15 L15.25,12.28 C14.99,12.18 14.71,12.12 14.41,12.12 C13.12,12.12 12.07,13.17 12.07,14.46 C12.07,15.75 13.12,16.8 14.41,16.8 C15.7,16.8 16.75,15.75 16.75,14.46 L16.75,9.17 L16.75,8.25 C16.75,7.45 16.51,6.86 16.03,6.5 Z M8.59,16.36 C8.13,16.36 7.75,15.98 7.75,15.52 C7.75,15.06 8.13,14.68 8.59,14.68 C9.05,14.68 9.43,15.06 9.43,15.52 C9.43,15.98 9.05,16.36 8.59,16.36 Z M14.41,15.3 C13.95,15.3 13.57,14.92 13.57,14.46 C13.57,14 13.95,13.62 14.41,13.62 C14.87,13.62 15.25,14 15.25,14.46 C15.25,14.92 14.87,15.3 14.41,15.3 Z"/>
</svg>

