<svg xmlns="http://www.w3.org/2000/svg" width="24" height="24" viewBox="0 0 24 24">
  <defs/>
  <path fill="#292D32" d="M22.75,15 Q22.75,22.75 15,22.75 L9,22.75 Q1.25,22.75 1.25,15 L1.25,9 Q1.25,1.25 9,1.25 L15,1.25 Q22.75,1.25 22.75,9 Z M21.25,15 L21.25,9 Q21.25,2.75 15,2.75 L9,2.75 Q2.75,2.75 2.75,9 L2.75,15 Q2.75,18.439 4.155,19.845 Q5.561,21.25 9,21.25 L15,21.25 Q18.439,21.25 19.845,19.845 Q21.25,18.439 21.25,15 Z"/>
  <g opacity="0.4">
    <path fill="#292D32" d="M8.42,17.86 Q7.459,17.86 6.779,17.18 Q6.1,16.501 6.1,15.54 Q6.1,14.579 6.779,13.899 Q7.459,13.22 8.42,13.22 Q10.74,13.22 10.74,15.54 Q10.74,17.86 8.42,17.86 Z M8.42,16.36 Q9.24,16.36 9.24,15.54 Q9.24,14.72 8.42,14.72 Q8.08,14.72 7.84,14.96 Q7.6,15.2 7.6,15.54 Q7.6,15.95 7.805,16.155 Q8.01,16.36 8.42,16.36 Z"/>
    <path fill="#292D32" d="M15,14.49 L15,8.35 Q15,7.873 14.859,7.79 Q14.705,7.7 14.3,7.813 L11.158,8.673 Q10.75,8.788 10.75,9.21 L10.75,15.55 Q10.75,15.86 10.53,16.08 Q10.311,16.3 10,16.3 Q9.689,16.3 9.47,16.08 Q9.25,15.86 9.25,15.55 L9.25,9.21 Q9.25,7.651 10.762,7.226 L13.9,6.367 Q14.914,6.086 15.614,6.494 Q16.5,7.011 16.5,8.35 L16.5,14.49 Q16.5,14.8 16.28,15.02 Q16.061,15.24 15.75,15.24 Q15.439,15.24 15.22,15.02 Q15,14.8 15,14.49 Z"/>
    <path fill="#292D32" d="M14.179,16.81 Q13.218,16.81 12.539,16.13 Q11.859,15.451 11.859,14.49 Q11.859,13.529 12.539,12.849 Q13.218,12.17 14.179,12.17 Q16.499,12.17 16.499,14.49 Q16.499,16.81 14.179,16.81 Z M14.179,15.31 Q14.519,15.31 14.759,15.07 Q14.999,14.83 14.999,14.49 Q14.999,13.67 14.179,13.67 Q13.359,13.67 13.359,14.49 Q13.359,15.31 14.179,15.31 Z"/>
    <path fill="#292D32" d="M9.793,10.316 L15.553,8.746 Q15.853,8.664 16.122,8.819 Q16.392,8.973 16.474,9.273 Q16.555,9.572 16.401,9.842 Q16.247,10.112 15.947,10.193 L10.187,11.763 Q9.888,11.845 9.618,11.691 Q9.348,11.537 9.267,11.237 Q9.185,10.937 9.339,10.667 Q9.493,10.398 9.793,10.316 Z"/>
  </g>
</svg>

