<svg xmlns="http://www.w3.org/2000/svg" width="24" height="24" viewBox="0 0 24 24">
  <defs/>
  <path fill="#292D32" d="M22.79,21.76 L22.07,21.04 C22.44,20.48 22.66,19.8 22.66,19.08 C22.66,17.1 21.06,15.5 19.08,15.5 C17.1,15.5 15.5,17.1 15.5,19.08 C15.5,21.06 17.1,22.66 19.08,22.66 C19.81,22.66 20.48,22.44 21.04,22.07 L21.76,22.79 C21.9,22.93 22.09,23 22.27,23 C22.46,23 22.64,22.93 22.78,22.79 C23.07,22.5 23.07,22.04 22.79,21.76 Z"/>
  <path fill="#292D32" opacity="0.4" d="M16.19,2 L7.82,2 C4.18,2 2.01,4.17 2.01,7.81 L2.01,16.18 C2.01,19.82 4.18,21.99 7.82,21.99 L16.19,21.99 C19.83,21.99 22,19.82 22,16.18 L22,7.81 C22,4.17 19.83,2 16.19,2 Z"/>
  <path fill="#292D32" d="M13.779,5.3 C13.459,5.05 12.879,4.81 11.959,5.06 L8.979,5.88 C8.089,6.11 7.509,6.86 7.509,7.8 L7.509,9.55 L7.509,11.71 C7.279,11.63 7.029,11.57 6.769,11.57 C5.529,11.57 4.529,12.58 4.529,13.81 C4.529,15.04 5.539,16.05 6.769,16.05 C7.989,16.05 8.989,15.06 9.009,13.85 C9.009,13.84 9.019,13.83 9.019,13.82 L9.019,10.12 L12.989,9.04 L12.989,10.72 C12.759,10.64 12.509,10.58 12.239,10.58 C10.999,10.58 9.999,11.59 9.999,12.82 C9.999,14.06 11.009,15.06 12.239,15.06 C13.459,15.06 14.459,14.07 14.479,12.85 C14.479,12.84 14.489,12.83 14.489,12.81 L14.489,8.05 L14.489,6.98 C14.479,6.22 14.239,5.65 13.779,5.3 Z M6.759,14.55 C6.349,14.55 6.019,14.22 6.019,13.81 C6.019,13.4 6.349,13.07 6.759,13.07 C7.169,13.07 7.499,13.4 7.499,13.81 C7.499,14.22 7.169,14.55 6.759,14.55 Z M12.229,13.55 C11.819,13.55 11.489,13.22 11.489,12.81 C11.489,12.4 11.819,12.07 12.229,12.07 C12.639,12.07 12.969,12.4 12.969,12.81 C12.969,13.22 12.639,13.55 12.229,13.55 Z"/>
</svg>

