<svg xmlns="http://www.w3.org/2000/svg" width="24" height="24" viewBox="0 0 24 24">
  <defs/>
  <path fill="#292D32" d="M19,7 L19,8.13 C18.68,8.04 18.35,8 18,8 L6,8 C5.65,8 5.32,8.04 5,8.13 L5,7 C5,5.9 5.9,5 7,5 L17,5 C18.1,5 19,5.9 19,7 Z"/>
  <path fill="#292D32" opacity="0.4" d="M16,3.51 L16,5 L8,5 L8,3.51 C8,2.68 8.68,2 9.51,2 L14.49,2 C15.32,2 16,2.68 16,3.51 Z"/>
  <path fill="#292D32" opacity="0.4" d="M22,12 L22,18 C22,20.2 20.2,22 18,22 L6,22 C3.8,22 2,20.2 2,18 L2,12 C2,10.15 3.28,8.58 5,8.13 C5.32,8.04 5.65,8 6,8 L18,8 C18.35,8 18.68,8.04 19,8.13 C20.72,8.58 22,10.15 22,12 Z"/>
  <path fill="#292D32" d="M15.35,10.51 C15.05,10.28 14.51,10.06 13.66,10.29 L11.01,11.02 C10.18,11.24 9.65,11.94 9.65,12.8 L9.65,14.35 L9.65,16.15 C9.47,16.1 9.27,16.06 9.07,16.06 C7.93,16.06 7,16.99 7,18.13 C7,19.27 7.93,20.2 9.07,20.2 C10.21,20.2 11.13,19.28 11.14,18.15 C11.14,18.14 11.15,18.13 11.15,18.12 L11.15,14.91 L14.5,14 L14.5,15.26 C14.32,15.21 14.13,15.17 13.93,15.17 C12.79,15.17 11.86,16.1 11.86,17.24 C11.86,18.38 12.79,19.31 13.93,19.31 C15.07,19.31 16,18.38 16,17.24 L16,13.02 L16,12.07 C16,11.2 15.64,10.74 15.35,10.51 Z M9.07,18.71 C8.75,18.71 8.5,18.45 8.5,18.14 C8.5,17.83 8.76,17.57 9.07,17.57 C9.38,17.57 9.64,17.83 9.64,18.14 C9.64,18.45 9.39,18.71 9.07,18.71 Z M13.93,17.82 C13.61,17.82 13.36,17.56 13.36,17.25 C13.36,16.94 13.62,16.68 13.93,16.68 C14.24,16.68 14.5,16.94 14.5,17.25 C14.5,17.56 14.24,17.82 13.93,17.82 Z"/>
</svg>

