<svg xmlns="http://www.w3.org/2000/svg" width="24" height="24" viewBox="0 0 24 24">
  <defs/>
  <path fill="#292D32" d="M15,22.75 L9,22.75 C3.57,22.75 1.25,20.43 1.25,15 L1.25,9 C1.25,3.57 3.57,1.25 9,1.25 L15,1.25 C20.43,1.25 22.75,3.57 22.75,9 L22.75,15 C22.75,20.43 20.43,22.75 15,22.75 Z M9,2.75 C4.39,2.75 2.75,4.39 2.75,9 L2.75,15 C2.75,19.61 4.39,21.25 9,21.25 L15,21.25 C19.61,21.25 21.25,19.61 21.25,15 L21.25,9 C21.25,4.39 19.61,2.75 15,2.75 L9,2.75 Z"/>
  <path fill="#292D32" d="M8.42,17.86 C7.14,17.86 6.1,16.82 6.1,15.54 C6.1,14.26 7.14,13.22 8.42,13.22 C9.7,13.22 10.74,14.26 10.74,15.54 C10.74,16.82 9.7,17.86 8.42,17.86 Z M8.42,14.72 C7.97,14.72 7.6,15.09 7.6,15.54 C7.6,15.99 7.97,16.36 8.42,16.36 C8.87,16.36 9.24,15.99 9.24,15.54 C9.24,15.09 8.87,14.72 8.42,14.72 Z"/>
  <path fill="#292D32" d="M9.99,16.29 C9.58,16.29 9.24,15.95 9.24,15.54 L9.24,9.21 C9.24,8.25 9.84,7.47 10.76,7.22 L13.9,6.36 C14.85,6.1 15.45,6.35 15.78,6.6 C16.26,6.97 16.5,7.55 16.5,8.34 L16.5,14.48 C16.5,14.89 16.16,15.23 15.75,15.23 C15.34,15.23 15,14.89 15,14.48 L15,8.34 C15,8.01 14.93,7.83 14.87,7.79 C14.82,7.75 14.64,7.71 14.29,7.8 L11.15,8.66 C10.87,8.74 10.74,8.91 10.74,9.2 L10.74,15.53 C10.74,15.95 10.4,16.29 9.99,16.29 Z"/>
  <path fill="#292D32" d="M14.179,16.81 C12.899,16.81 11.859,15.77 11.859,14.49 C11.859,13.21 12.899,12.17 14.179,12.17 C15.459,12.17 16.499,13.21 16.499,14.49 C16.499,15.77 15.459,16.81 14.179,16.81 Z M14.179,13.67 C13.729,13.67 13.359,14.04 13.359,14.49 C13.359,14.94 13.729,15.31 14.179,15.31 C14.629,15.31 14.999,14.94 14.999,14.49 C14.999,14.04 14.629,13.67 14.179,13.67 Z"/>
  <path fill="#292D32" d="M9.989,11.79 C9.659,11.79 9.359,11.57 9.269,11.24 C9.159,10.84 9.399,10.43 9.799,10.32 L15.559,8.75 C15.969,8.64 16.369,8.88 16.479,9.28 C16.589,9.68 16.349,10.09 15.949,10.2 L10.189,11.77 C10.119,11.78 10.049,11.79 9.989,11.79 Z"/>
</svg>

