<svg xmlns="http://www.w3.org/2000/svg" width="24" height="24" viewBox="0 0 24 24">
  <defs/>
  <path fill="#292D32" d="M14.35,21.75 L8.65,21.75 C3.46,21.75 1.25,19.54 1.25,14.35 L1.25,8.65 C1.25,3.46 3.46,1.25 8.65,1.25 L14.35,1.25 C19.54,1.25 21.75,3.46 21.75,8.65 L21.75,14.35 C21.75,14.71 21.74,15.05 21.72,15.38 C21.7,15.68 21.5,15.94 21.21,16.04 C20.92,16.14 20.61,16.05 20.4,15.83 C19.8,15.15 18.92,14.75 17.99,14.75 C16.2,14.75 14.74,16.21 14.74,18 C14.74,18.59 14.9,19.17 15.21,19.67 C15.37,19.95 15.58,20.2 15.82,20.41 C16.05,20.61 16.14,20.93 16.04,21.21 C15.94,21.5 15.68,21.7 15.38,21.72 C15.06,21.74 14.72,21.75 14.35,21.75 Z M8.65,2.75 C4.29,2.75 2.75,4.29 2.75,8.65 L2.75,14.35 C2.75,18.71 4.29,20.25 8.65,20.25 L13.82,20.25 C13.45,19.57 13.25,18.8 13.25,18 C13.25,15.38 15.38,13.25 18,13.25 C18.8,13.25 19.57,13.45 20.25,13.81 L20.25,8.65 C20.25,4.29 18.71,2.75 14.35,2.75 L8.65,2.75 Z"/>
  <path fill="#292D32" d="M6.72,15.17 C5.51,15.17 4.52,14.18 4.52,12.97 C4.52,11.76 5.51,10.77 6.72,10.77 C7.93,10.77 8.92,11.76 8.92,12.97 C8.92,14.18 7.93,15.17 6.72,15.17 Z M6.72,12.27 C6.34,12.27 6.02,12.58 6.02,12.97 C6.02,13.35 6.33,13.67 6.72,13.67 C7.11,13.67 7.42,13.36 7.42,12.97 C7.42,12.58 7.11,12.27 6.72,12.27 Z"/>
  <path fill="#292D32" d="M8.17,13.72 C7.76,13.72 7.42,13.38 7.42,12.97 L7.42,7.14 C7.42,6.23 7.99,5.49 8.86,5.25 L11.76,4.46 C12.66,4.21 13.23,4.45 13.54,4.69 C13.85,4.93 14.23,5.41 14.23,6.34 L14.23,12 C14.23,12.41 13.89,12.75 13.48,12.75 C13.07,12.75 12.73,12.41 12.73,12 L12.73,6.34 C12.73,6.02 12.66,5.9 12.63,5.88 C12.6,5.86 12.45,5.82 12.15,5.9 L9.26,6.69 C8.96,6.77 8.92,6.98 8.92,7.13 L8.92,12.96 C8.92,13.38 8.58,13.72 8.17,13.72 Z"/>
  <path fill="#292D32" d="M12.03,14.2 C10.82,14.2 9.83,13.21 9.83,12 C9.83,10.79 10.82,9.8 12.03,9.8 C13.24,9.8 14.23,10.79 14.23,12 C14.23,13.22 13.24,14.2 12.03,14.2 Z M12.03,11.31 C11.65,11.31 11.33,11.62 11.33,12.01 C11.33,12.39 11.64,12.71 12.03,12.71 C12.42,12.71 12.73,12.4 12.73,12.01 C12.73,11.62 12.41,11.31 12.03,11.31 Z"/>
  <path fill="#292D32" d="M8.171,9.58 C7.841,9.58 7.541,9.36 7.451,9.03 C7.341,8.63 7.581,8.22 7.981,8.11 L13.29,6.66 C13.691,6.56 14.101,6.79 14.21,7.19 C14.32,7.59 14.081,8 13.681,8.11 L8.371,9.56 C8.301,9.57 8.231,9.58 8.171,9.58 Z"/>
  <path fill="#292D32" d="M18,22.75 C16.82,22.75 15.7,22.31 14.83,21.52 C14.48,21.22 14.17,20.85 13.93,20.44 C13.49,19.72 13.25,18.87 13.25,18 C13.25,15.38 15.38,13.25 18,13.25 C19.36,13.25 20.65,13.83 21.53,14.83 C22.31,15.7 22.75,16.82 22.75,18 C22.75,18.87 22.51,19.72 22.06,20.45 C21.22,21.87 19.66,22.75 18,22.75 Z M18,14.75 C16.21,14.75 14.75,16.21 14.75,18 C14.75,18.59 14.91,19.17 15.22,19.67 C15.38,19.95 15.59,20.2 15.83,20.41 C16.43,20.96 17.2,21.26 18,21.26 C19.15,21.26 20.19,20.67 20.78,19.69 C21.09,19.18 21.25,18.61 21.25,18.01 C21.25,17.21 20.95,16.44 20.41,15.84 C19.81,15.14 18.93,14.75 18,14.75 Z"/>
  <path fill="#292D32" d="M19.07,19.79 C18.88,19.79 18.69,19.72 18.54,19.57 L16.43,17.46 C16.14,17.17 16.14,16.69 16.43,16.4 C16.72,16.11 17.2,16.11 17.49,16.4 L19.6,18.51 C19.89,18.8 19.89,19.28 19.6,19.57 C19.45,19.72 19.26,19.79 19.07,19.79 Z"/>
  <path fill="#292D32" d="M16.931,19.82 C16.741,19.82 16.551,19.75 16.401,19.6 C16.111,19.31 16.111,18.83 16.401,18.54 L18.511,16.43 C18.801,16.14 19.281,16.14 19.571,16.43 C19.861,16.72 19.861,17.2 19.571,17.49 L17.461,19.6 C17.311,19.75 17.121,19.82 16.931,19.82 Z"/>
</svg>

