<svg xmlns="http://www.w3.org/2000/svg" width="24" height="24" viewBox="0 0 24 24">
  <defs/>
  <path fill="#292D32" d="M10.289,10.34 L10.289,18.41 C10.289,20.39 8.669,22 6.699,22 C4.719,22 3.109,20.39 3.109,18.41 C3.109,16.44 4.719,14.83 6.699,14.83 C7.529,14.83 8.279,15.12 8.889,15.59 L8.889,10.74 L10.289,10.34 Z"/>
  <path fill="#292D32" d="M20.891,7.32 L20.891,16.48 C20.891,18.46 19.281,20.07 17.301,20.07 C15.331,20.07 13.711,18.46 13.711,16.48 C13.711,14.51 15.331,12.9 17.301,12.9 C18.141,12.9 18.891,13.19 19.501,13.67 L19.501,7.72 L20.891,7.32 Z"/>
  <path fill="#292D32" opacity="0.4" d="M20.891,5.18 L20.891,7.32 L8.891,10.74 L8.891,6.75 C8.891,5.28 9.781,4.14 11.191,3.76 L16.971,2.18 C18.141,1.86 19.131,1.97 19.831,2.51 C20.541,3.04 20.891,3.94 20.891,5.18 Z"/>
</svg>

