<svg xmlns="http://www.w3.org/2000/svg" width="24" height="24" viewBox="0 0 24 24">
  <defs/>
  <path fill="#292D32" d="M1.873,8.421 Q2.878,5.566 5.248,3.647 Q5.489,3.452 5.798,3.484 Q6.107,3.517 6.303,3.758 Q6.498,3.999 6.466,4.308 Q6.434,4.617 6.192,4.813 Q4.152,6.465 3.287,8.919 Q3.184,9.212 2.904,9.346 Q2.624,9.481 2.331,9.377 Q2.038,9.274 1.904,8.994 Q1.769,8.714 1.873,8.421 Z"/>
  <path fill="#292D32" d="M2.75,12 Q2.75,13.57 3.287,15.079 Q3.391,15.371 3.257,15.652 Q3.124,15.932 2.831,16.037 Q2.539,16.141 2.258,16.007 Q1.978,15.874 1.873,15.581 Q1.25,13.829 1.25,12 Q1.25,11.689 1.47,11.47 Q1.689,11.25 2,11.25 Q2.311,11.25 2.53,11.47 Q2.75,11.689 2.75,12 Z"/>
  <path fill="#292D32" d="M9.308,20.852 Q10.614,21.25 12,21.25 Q15.829,21.25 18.539,18.54 Q21.25,15.829 21.25,12 Q21.25,11.217 21.101,10.37 Q21.047,10.064 21.226,9.809 Q21.404,9.555 21.71,9.501 Q22.016,9.448 22.271,9.626 Q22.525,9.804 22.579,10.11 Q22.75,11.087 22.75,12 Q22.75,16.451 19.6,19.6 Q16.45,22.75 12,22.75 Q10.391,22.75 8.871,22.288 Q8.574,22.197 8.428,21.923 Q8.282,21.649 8.372,21.352 Q8.463,21.054 8.737,20.908 Q9.011,20.762 9.308,20.852 Z"/>
  <path fill="#292D32" d="M5.249,20.333 Q4.442,19.681 3.834,18.982 Q3.631,18.748 3.652,18.438 Q3.674,18.128 3.908,17.924 Q4.143,17.72 4.453,17.742 Q4.762,17.763 4.966,17.998 Q5.488,18.597 6.192,19.167 Q6.434,19.362 6.466,19.671 Q6.499,19.98 6.304,20.222 Q6.108,20.463 5.799,20.496 Q5.49,20.529 5.249,20.333 Z"/>
  <path fill="#292D32" d="M19.622,6.765 Q16.863,2.75 12,2.75 Q10.614,2.75 9.308,3.147 Q9.011,3.238 8.737,3.092 Q8.463,2.946 8.372,2.648 Q8.282,2.351 8.428,2.077 Q8.574,1.803 8.871,1.712 Q10.391,1.25 12,1.25 Q17.653,1.25 20.858,5.915 Q21.034,6.171 20.977,6.477 Q20.921,6.782 20.664,6.958 Q20.408,7.134 20.103,7.077 Q19.798,7.021 19.622,6.765 Z"/>
  <path fill="#292D32" d="M8.59,17.86 Q6.25,17.86 6.25,15.52 Q6.25,13.18 8.59,13.18 Q9.559,13.18 10.245,13.866 Q10.93,14.551 10.93,15.52 Q10.93,17.86 8.59,17.86 Z M8.59,16.36 Q9.43,16.36 9.43,15.52 Q9.43,15.172 9.184,14.926 Q8.938,14.68 8.59,14.68 Q7.75,14.68 7.75,15.52 Q7.75,16.36 8.59,16.36 Z"/>
  <path fill="#292D32" d="M15.25,14.46 L15.25,8.25 Q15.25,7.764 15.1,7.675 Q14.939,7.581 14.528,7.693 L11.348,8.564 Q10.92,8.682 10.92,9.12 L10.92,15.52 Q10.92,15.831 10.7,16.051 Q10.481,16.27 10.17,16.27 Q9.859,16.27 9.64,16.051 Q9.42,15.831 9.42,15.52 L9.42,9.12 Q9.42,7.539 10.952,7.117 L14.132,6.247 Q15.154,5.967 15.86,6.382 Q16.75,6.906 16.75,8.25 L16.75,14.46 Q16.75,14.771 16.53,14.991 Q16.311,15.21 16,15.21 Q15.689,15.21 15.47,14.991 Q15.25,14.771 15.25,14.46 Z"/>
  <path fill="#292D32" d="M14.41,16.8 Q12.07,16.8 12.07,14.46 Q12.07,13.491 12.756,12.805 Q13.441,12.12 14.41,12.12 Q15.38,12.12 16.065,12.805 Q16.75,13.491 16.75,14.46 Q16.75,16.8 14.41,16.8 Z M14.41,15.3 Q14.758,15.3 15.004,15.054 Q15.25,14.808 15.25,14.46 Q15.25,13.62 14.41,13.62 Q13.57,13.62 13.57,14.46 Q13.57,14.808 13.816,15.054 Q14.062,15.3 14.41,15.3 Z"/>
  <path fill="#292D32" d="M9.982,10.037 L15.802,8.447 Q16.102,8.365 16.372,8.519 Q16.641,8.673 16.723,8.973 Q16.805,9.272 16.651,9.542 Q16.497,9.812 16.197,9.894 L10.377,11.484 Q10.078,11.566 9.808,11.412 Q9.538,11.258 9.456,10.958 Q9.374,10.658 9.528,10.388 Q9.682,10.119 9.982,10.037 Z"/>
</svg>

