<svg xmlns="http://www.w3.org/2000/svg" width="24" height="24" viewBox="0 0 24 24">
  <defs/>
  <path fill="#292D32" d="M21.97,16.33 C21.25,15.51 20.18,15 19,15 C16.79,15 15,16.79 15,19 C15,19.75 15.21,20.46 15.58,21.06 C15.78,21.4 16.04,21.71 16.34,21.97 C17.04,22.61 17.97,23 19,23 C20.46,23 21.73,22.22 22.42,21.06 C22.79,20.46 23,19.75 23,19 C23,17.98 22.61,17.04 21.97,16.33 Z M20.6,20.58 C20.45,20.73 20.26,20.8 20.07,20.8 C19.88,20.8 19.69,20.73 19.54,20.58 L19.01,20.05 L18.46,20.6 C18.31,20.75 18.12,20.82 17.93,20.82 C17.74,20.82 17.55,20.75 17.4,20.6 C17.11,20.31 17.11,19.83 17.4,19.54 L17.95,18.99 L17.42,18.46 C17.13,18.17 17.13,17.69 17.42,17.4 C17.71,17.11 18.19,17.11 18.48,17.4 L19.01,17.93 L19.51,17.43 C19.8,17.14 20.28,17.14 20.57,17.43 C20.86,17.72 20.86,18.2 20.57,18.49 L20.07,18.99 L20.6,19.52 C20.89,19.81 20.89,20.28 20.6,20.58 Z"/>
  <path fill="#292D32" d="M12.228,12.07 C11.818,12.07 11.488,12.4 11.488,12.81 C11.488,13.22 11.818,13.55 12.228,13.55 C12.638,13.55 12.968,13.22 12.968,12.81 C12.968,12.4 12.638,12.07 12.228,12.07 Z"/>
  <path fill="#292D32" d="M6.76,13.059 C6.35,13.059 6.02,13.389 6.02,13.799 C6.02,14.209 6.35,14.539 6.76,14.539 C7.17,14.539 7.5,14.209 7.5,13.799 C7.5,13.389 7.17,13.059 6.76,13.059 Z"/>
  <path fill="#292D32" d="M16.19,2 L7.81,2 C7.53,2 7.26,2.01 7,2.05 C3.85,2.34 2,4.45 2,7.81 L2,16.19 C2,19.55 3.85,21.66 7,21.95 C7.26,21.99 7.53,22 7.81,22 L13.5,22 C13.89,22 14.14,21.56 13.99,21.2 C13.7,20.51 13.5,19.71 13.5,19 C13.5,15.97 15.97,13.5 19,13.5 C19.76,13.5 20.5,13.65 21.18,13.95 C21.55,14.11 22,13.86 22,13.46 L22,7.81 C22,4.17 19.83,2 16.19,2 Z M14.48,8.05 L14.48,12.81 C14.48,12.82 14.47,12.83 14.47,12.85 C14.45,14.07 13.46,15.06 12.23,15.06 C10.99,15.06 9.99,14.05 9.99,12.82 C9.99,11.58 11,10.58 12.23,10.58 C12.49,10.58 12.74,10.63 12.98,10.72 L12.98,9.03 L9.01,10.11 L9.01,13.81 C9.01,13.82 9,13.83 9,13.84 C8.98,15.06 7.99,16.04 6.76,16.04 C5.52,16.04 4.52,15.03 4.52,13.8 C4.52,12.57 5.53,11.56 6.76,11.56 C7.02,11.56 7.27,11.61 7.5,11.7 L7.5,9.54 L7.5,7.79 C7.5,6.86 8.08,6.11 8.97,5.87 L11.95,5.05 C12.88,4.8 13.45,5.05 13.77,5.29 C14.23,5.64 14.46,6.21 14.46,6.97 L14.46,8.05 L14.48,8.05 Z"/>
</svg>

