<svg xmlns="http://www.w3.org/2000/svg" width="24" height="24" viewBox="0 0 24 24">
  <defs/>
  <path fill="#292D32" d="M13.181,11.86 C12.781,11.86 12.421,11.64 12.251,11.28 L10.801,8.39 L10.381,9.17 C10.151,9.6 9.691,9.87 9.201,9.87 L8.471,9.87 C8.061,9.87 7.721,9.53 7.721,9.12 C7.721,8.71 8.061,8.37 8.471,8.37 L9.111,8.37 L9.901,6.91 C10.091,6.57 10.471,6.34 10.831,6.36 C11.221,6.36 11.571,6.59 11.751,6.93 L13.181,9.79 L13.521,9.1 C13.751,8.64 14.201,8.36 14.721,8.36 L15.531,8.36 C15.941,8.36 16.281,8.7 16.281,9.11 C16.281,9.52 15.941,9.86 15.531,9.86 L14.821,9.86 L14.111,11.27 C13.931,11.64 13.581,11.86 13.181,11.86 Z"/>
  <path fill="#292D32" opacity="0.4" d="M2.75,18.65 C2.34,18.65 2,18.31 2,17.9 L2,12.2 C1.95,9.49 2.96,6.93 4.84,5.01 C6.72,3.1 9.24,2.05 11.95,2.05 C17.49,2.05 22,6.56 22,12.1 L22,17.8 C22,18.21 21.66,18.55 21.25,18.55 C20.84,18.55 20.5,18.21 20.5,17.8 L20.5,12.1 C20.5,7.39 16.67,3.55 11.95,3.55 C9.64,3.55 7.5,4.44 5.91,6.06 C4.31,7.69 3.46,9.86 3.5,12.18 L3.5,17.89 C3.5,18.31 3.17,18.65 2.75,18.65 Z"/>
  <path fill="#292D32" d="M5.94,12.45 L5.81,12.45 C3.71,12.45 2,14.16 2,16.26 L2,18.14 C2,20.24 3.71,21.95 5.81,21.95 L5.94,21.95 C8.04,21.95 9.75,20.24 9.75,18.14 L9.75,16.26 C9.75,14.16 8.04,12.45 5.94,12.45 Z"/>
  <path fill="#292D32" d="M18.19,12.45 L18.06,12.45 C15.96,12.45 14.25,14.16 14.25,16.26 L14.25,18.14 C14.25,20.24 15.96,21.95 18.06,21.95 L18.19,21.95 C20.29,21.95 22,20.24 22,18.14 L22,16.26 C22,14.16 20.29,12.45 18.19,12.45 Z"/>
</svg>

