<svg xmlns="http://www.w3.org/2000/svg" width="24" height="24" viewBox="0 0 24 24">
  <defs/>
  <path fill="#292D32" d="M14.541,13.672 C14.181,13.672 13.891,13.962 13.891,14.322 C13.891,14.682 14.181,14.972 14.541,14.972 C14.901,14.972 15.191,14.682 15.191,14.322 C15.181,13.962 14.891,13.672 14.541,13.672 Z"/>
  <path fill="#292D32" d="M9.06,14.66 C8.7,14.66 8.41,14.95 8.41,15.31 C8.41,15.67 8.7,15.96 9.06,15.96 C9.42,15.96 9.71,15.67 9.71,15.31 C9.71,14.95 9.42,14.66 9.06,14.66 Z"/>
  <path fill="#292D32" d="M16.19,2 L7.81,2 C4.17,2 2,4.17 2,7.81 L2,16.18 C2,19.83 4.17,22 7.81,22 L16.18,22 C19.82,22 21.99,19.83 21.99,16.19 L21.99,7.81 C22,4.17 19.83,2 16.19,2 Z M16.88,9.55 L16.88,14.31 C16.88,15.6 15.83,16.65 14.54,16.65 C13.25,16.65 12.2,15.6 12.2,14.31 C12.2,13.02 13.25,11.97 14.54,11.97 C14.77,11.97 14.98,12.01 15.19,12.07 L15.19,10.65 L11.41,11.68 L11.41,15.3 C11.41,15.31 11.4,15.32 11.4,15.33 C11.39,16.61 10.34,17.64 9.06,17.64 C7.77,17.64 6.72,16.59 6.72,15.3 C6.72,14.01 7.77,12.96 9.06,12.96 C9.29,12.96 9.5,13 9.71,13.06 L9.71,11.03 L9.71,9.29 C9.71,8.32 10.31,7.53 11.25,7.28 L14.24,6.46 C15.2,6.2 15.8,6.45 16.14,6.71 C16.47,6.97 16.88,7.48 16.88,8.48 L16.88,9.55 Z"/>
</svg>

