<svg xmlns="http://www.w3.org/2000/svg" width="24" height="24" viewBox="0 0 24 24">
  <defs/>
  <path fill="#292D32" opacity="0.4" d="M22,3.75 L2,3.75 C1.59,3.75 1.25,3.41 1.25,3 C1.25,2.59 1.59,2.25 2,2.25 L22,2.25 C22.41,2.25 22.75,2.59 22.75,3 C22.75,3.41 22.41,3.75 22,3.75 Z"/>
  <path fill="#292D32" opacity="0.4" d="M11,9.75 L2,9.75 C1.59,9.75 1.25,9.41 1.25,9 C1.25,8.59 1.59,8.25 2,8.25 L11,8.25 C11.41,8.25 11.75,8.59 11.75,9 C11.75,9.41 11.41,9.75 11,9.75 Z"/>
  <path fill="#292D32" opacity="0.4" d="M8,15.75 L2,15.75 C1.59,15.75 1.25,15.41 1.25,15 C1.25,14.59 1.59,14.25 2,14.25 L8,14.25 C8.41,14.25 8.75,14.59 8.75,15 C8.75,15.41 8.41,15.75 8,15.75 Z"/>
  <path fill="#292D32" opacity="0.4" d="M6,21.75 L2,21.75 C1.59,21.75 1.25,21.41 1.25,21 C1.25,20.59 1.59,20.25 2,20.25 L6,20.25 C6.41,20.25 6.75,20.59 6.75,21 C6.75,21.41 6.41,21.75 6,21.75 Z"/>
  <path fill="#292D32" d="M21.86,7.68 C21.27,7.23 20.46,7.14 19.51,7.4 L15.16,8.58 C13.99,8.9 13.27,9.85 13.27,11.05 L13.27,13.6 L13.27,17.28 C12.85,17.04 12.36,16.89 11.84,16.89 C10.23,16.89 8.91,18.2 8.91,19.82 C8.91,21.43 10.22,22.75 11.84,22.75 C13.46,22.75 14.77,21.44 14.77,19.82 L14.77,14.17 L21.25,12.4 L21.25,15.83 C20.83,15.59 20.34,15.44 19.82,15.44 C18.21,15.44 16.89,16.75 16.89,18.37 C16.89,19.98 18.2,21.3 19.82,21.3 C21.44,21.3 22.75,19.99 22.75,18.37 L22.75,11.42 L22.75,9.87 C22.75,8.86 22.45,8.12 21.86,7.68 Z M11.84,21.25 C11.05,21.25 10.41,20.61 10.41,19.82 C10.41,19.03 11.05,18.39 11.84,18.39 C12.63,18.39 13.27,19.03 13.27,19.82 C13.27,20.61 12.63,21.25 11.84,21.25 Z M19.82,19.8 C19.03,19.8 18.39,19.16 18.39,18.37 C18.39,17.58 19.03,16.94 19.82,16.94 C20.61,16.94 21.25,17.58 21.25,18.37 C21.25,19.16 20.61,19.8 19.82,19.8 Z"/>
</svg>

