<svg xmlns="http://www.w3.org/2000/svg" width="24" height="24" viewBox="0 0 24 24">
  <defs/>
  <path fill="#292D32" d="M15,22.75 L9,22.75 C3.57,22.75 1.25,20.43 1.25,15 L1.25,9 C1.25,3.57 3.57,1.25 9,1.25 L15,1.25 C20.43,1.25 22.75,3.57 22.75,9 L22.75,15 C22.75,20.43 20.43,22.75 15,22.75 Z M9,2.75 C4.39,2.75 2.75,4.39 2.75,9 L2.75,15 C2.75,19.61 4.39,21.25 9,21.25 L15,21.25 C19.61,21.25 21.25,19.61 21.25,15 L21.25,9 C21.25,4.39 19.61,2.75 15,2.75 L9,2.75 Z"/>
  <path fill="#292D32" d="M7,22.25 C6.59,22.25 6.25,21.91 6.25,21.5 L6.25,2.5 C6.25,2.09 6.59,1.75 7,1.75 C7.41,1.75 7.75,2.09 7.75,2.5 L7.75,21.5 C7.75,21.91 7.41,22.25 7,22.25 Z"/>
  <path fill="#292D32" d="M11.47,17.55 C10.23,17.55 9.23,16.54 9.23,15.31 C9.23,14.08 10.241,13.07 11.47,13.07 C12.7,13.07 13.71,14.08 13.71,15.31 C13.71,16.54 12.7,17.55 11.47,17.55 Z M11.47,14.56 C11.06,14.56 10.73,14.89 10.73,15.3 C10.73,15.71 11.06,16.04 11.47,16.04 C11.88,16.04 12.21,15.71 12.21,15.3 C12.21,14.89 11.87,14.56 11.47,14.56 Z"/>
  <path fill="#292D32" d="M12.961,16.06 C12.551,16.06 12.211,15.72 12.211,15.31 L12.211,9.3 C12.211,8.38 12.791,7.62 13.681,7.38 L16.661,6.57 C17.581,6.32 18.161,6.56 18.481,6.81 C18.941,7.16 19.181,7.73 19.181,8.5 L19.181,14.33 C19.181,14.74 18.841,15.08 18.431,15.08 C18.021,15.08 17.681,14.74 17.681,14.33 L17.681,8.5 C17.681,8.17 17.611,8.03 17.571,8.01 C17.521,7.97 17.351,7.95 17.061,8.03 L14.081,8.84 C13.841,8.91 13.721,9.06 13.721,9.32 L13.721,15.33 C13.711,15.72 13.371,16.06 12.961,16.06 Z"/>
  <path fill="#292D32" d="M16.93,16.55 C15.69,16.55 14.69,15.54 14.69,14.31 C14.69,13.07 15.7,12.07 16.93,12.07 C18.16,12.07 19.169,13.08 19.169,14.31 C19.18,15.55 18.169,16.55 16.93,16.55 Z M16.93,13.57 C16.52,13.57 16.189,13.9 16.189,14.31 C16.189,14.72 16.52,15.05 16.93,15.05 C17.34,15.05 17.669,14.72 17.669,14.31 C17.669,13.9 17.34,13.57 16.93,13.57 Z"/>
  <path fill="#292D32" d="M12.96,11.79 C12.63,11.79 12.33,11.57 12.24,11.24 C12.13,10.84 12.37,10.43 12.77,10.32 L18.24,8.83 C18.64,8.72 19.05,8.96 19.16,9.36 C19.27,9.76 19.03,10.17 18.63,10.28 L13.16,11.77 C13.09,11.78 13.02,11.79 12.96,11.79 Z"/>
</svg>

