<svg xmlns="http://www.w3.org/2000/svg" width="24" height="24" viewBox="0 0 24 24">
  <defs/>
  <path fill="#292D32" d="M17,22.75 L7,22.75 C3.35,22.75 1.25,20.65 1.25,17 L1.25,13 C1.25,9.4 3.17,8.06 4.78,7.56 C5.43,7.35 6.18,7.25 7,7.25 L17,7.25 C17.82,7.25 18.57,7.36 19.23,7.57 C20.83,8.06 22.75,9.41 22.75,13 L22.75,17 C22.75,20.65 20.65,22.75 17,22.75 Z M7,8.75 C6.34,8.75 5.74,8.83 5.23,9 C3.56,9.51 2.75,10.82 2.75,13 L2.75,17 C2.75,19.86 4.14,21.25 7,21.25 L17,21.25 C19.86,21.25 21.25,19.86 21.25,17 L21.25,13 C21.25,10.82 20.44,9.51 18.78,9 C18.26,8.83 17.66,8.75 17,8.75 L7,8.75 Z"/>
  <path fill="#292D32" d="M19,9.03 C18.92,9.03 18.85,9.02 18.77,8.99 C18.26,8.83 17.66,8.74 17,8.74 L7,8.74 C6.34,8.74 5.74,8.82 5.23,8.99 C5,9.06 4.75,9.02 4.56,8.88 C4.37,8.74 4.25,8.51 4.25,8.27 L4.25,7 C4.25,5.48 5.48,4.25 7,4.25 L17,4.25 C18.52,4.25 19.75,5.48 19.75,7 L19.75,8.28 C19.75,8.52 19.64,8.74 19.44,8.89 C19.31,8.98 19.16,9.03 19,9.03 Z M7,5.75 C6.31,5.75 5.75,6.31 5.75,7 L5.75,7.34 C6.14,7.28 6.56,7.25 7,7.25 L17,7.25 C17.44,7.25 17.86,7.28 18.25,7.34 L18.25,7 C18.25,6.31 17.69,5.75 17,5.75 L7,5.75 Z"/>
  <path fill="#292D32" d="M16,5.75 L8,5.75 C7.59,5.75 7.25,5.41 7.25,5 L7.25,3.51 C7.25,2.26 8.26,1.25 9.51,1.25 L14.49,1.25 C15.74,1.25 16.75,2.26 16.75,3.51 L16.75,5 C16.75,5.41 16.41,5.75 16,5.75 Z M8.75,4.25 L15.25,4.25 L15.25,3.51 C15.25,3.09 14.91,2.75 14.49,2.75 L9.51,2.75 C9.09,2.75 8.75,3.09 8.75,3.51 L8.75,4.25 Z"/>
  <path fill="#292D32" d="M9.07,20.21 C7.93,20.21 7,19.28 7,18.14 C7,17 7.93,16.07 9.07,16.07 C10.21,16.07 11.14,17 11.14,18.14 C11.14,19.28 10.22,20.21 9.07,20.21 Z M9.07,17.56 C8.75,17.56 8.5,17.82 8.5,18.13 C8.5,18.44 8.76,18.7 9.07,18.7 C9.38,18.7 9.64,18.44 9.64,18.13 C9.64,17.82 9.39,17.56 9.07,17.56 Z"/>
  <path fill="#292D32" d="M10.4,18.88 C9.99,18.88 9.65,18.54 9.65,18.13 L9.65,12.8 C9.65,11.94 10.19,11.24 11.02,11.01 L13.67,10.29 C14.52,10.06 15.06,10.28 15.36,10.51 C15.66,10.74 16.01,11.19 16.01,12.07 L16.01,17.24 C16.01,17.65 15.67,17.99 15.26,17.99 C14.85,17.99 14.51,17.65 14.51,17.24 L14.51,12.07 C14.51,11.82 14.46,11.72 14.44,11.7 C14.42,11.69 14.3,11.67 14.06,11.73 L11.41,12.45 C11.18,12.51 11.15,12.66 11.15,12.79 L11.15,18.12 C11.15,18.55 10.81,18.88 10.4,18.88 Z"/>
  <path fill="#292D32" d="M13.929,19.32 C12.789,19.32 11.859,18.39 11.859,17.25 C11.859,16.11 12.789,15.18 13.929,15.18 C15.069,15.18 15.999,16.11 15.999,17.25 C15.999,18.39 15.069,19.32 13.929,19.32 Z M13.929,16.68 C13.609,16.68 13.359,16.94 13.359,17.25 C13.359,17.56 13.619,17.82 13.929,17.82 C14.239,17.82 14.499,17.56 14.499,17.25 C14.499,16.94 14.239,16.68 13.929,16.68 Z"/>
  <path fill="#292D32" d="M10.399,15.1 C10.069,15.1 9.769,14.88 9.679,14.55 C9.569,14.15 9.809,13.74 10.209,13.63 L15.059,12.31 C15.459,12.2 15.869,12.44 15.979,12.84 C16.089,13.24 15.849,13.65 15.449,13.76 L10.599,15.08 C10.529,15.09 10.459,15.1 10.399,15.1 Z"/>
</svg>

