<svg xmlns="http://www.w3.org/2000/svg" width="24" height="24" viewBox="0 0 24 24">
  <defs/>
  <path fill="#292D32" d="M2.58,9.42 C2.5,9.42 2.41,9.41 2.33,9.38 C1.94,9.24 1.74,8.81 1.87,8.42 C2.54,6.54 3.7,4.89 5.25,3.64 C5.57,3.38 6.04,3.43 6.3,3.75 C6.56,4.07 6.51,4.54 6.19,4.81 C4.86,5.88 3.86,7.3 3.29,8.92 C3.18,9.23 2.89,9.42 2.58,9.42 Z"/>
  <path fill="#292D32" d="M2.58,16.08 C2.27,16.08 1.98,15.89 1.87,15.58 C1.46,14.41 1.25,13.21 1.25,12 C1.25,11.59 1.59,11.25 2,11.25 C2.41,11.25 2.75,11.59 2.75,12 C2.75,13.04 2.93,14.08 3.29,15.08 C3.43,15.47 3.22,15.9 2.83,16.04 C2.75,16.07 2.66,16.08 2.58,16.08 Z"/>
  <path fill="#292D32" d="M12.001,22.75 C10.941,22.75 9.891,22.59 8.871,22.28 C8.471,22.16 8.251,21.74 8.371,21.34 C8.491,20.94 8.911,20.72 9.311,20.84 C10.181,21.11 11.091,21.24 12.001,21.24 C17.101,21.24 21.251,17.09 21.251,11.99 C21.251,11.47 21.201,10.93 21.101,10.36 C21.031,9.95 21.301,9.56 21.711,9.49 C22.121,9.42 22.511,9.69 22.581,10.1 C22.701,10.76 22.761,11.38 22.761,12 C22.751,17.93 17.931,22.75 12.001,22.75 Z"/>
  <path fill="#292D32" d="M5.72,20.5 C5.55,20.5 5.39,20.45 5.25,20.33 C4.68,19.87 4.22,19.43 3.83,18.98 C3.56,18.67 3.6,18.19 3.91,17.92 C4.22,17.65 4.7,17.69 4.97,18 C5.3,18.38 5.7,18.76 6.19,19.16 C6.51,19.42 6.56,19.89 6.3,20.21 C6.16,20.4 5.94,20.5 5.72,20.5 Z"/>
  <path fill="#292D32" d="M20.24,7.09 C20,7.09 19.77,6.98 19.62,6.76 C17.89,4.24 15.04,2.74 12,2.74 C11.09,2.74 10.18,2.87 9.31,3.14 C8.92,3.26 8.5,3.04 8.37,2.64 C8.24,2.24 8.47,1.82 8.87,1.7 C9.89,1.39 10.94,1.23 12,1.23 C15.54,1.23 18.85,2.98 20.86,5.9 C21.09,6.24 21.01,6.71 20.67,6.94 C20.54,7.05 20.39,7.09 20.24,7.09 Z"/>
  <path fill="#292D32" d="M8.59,17.86 C7.3,17.86 6.25,16.81 6.25,15.52 C6.25,14.23 7.3,13.18 8.59,13.18 C9.88,13.18 10.93,14.23 10.93,15.52 C10.93,16.81 9.88,17.86 8.59,17.86 Z M8.59,14.68 C8.13,14.68 7.75,15.06 7.75,15.52 C7.75,15.98 8.13,16.36 8.59,16.36 C9.05,16.36 9.43,15.98 9.43,15.52 C9.43,15.06 9.05,14.68 8.59,14.68 Z"/>
  <path fill="#292D32" d="M10.18,16.27 C9.77,16.27 9.43,15.93 9.43,15.52 L9.43,9.12 C9.43,8.16 10.03,7.37 10.96,7.12 L14.14,6.25 C15.1,5.99 15.7,6.24 16.03,6.49 C16.51,6.86 16.75,7.45 16.75,8.25 L16.75,14.46 C16.75,14.87 16.41,15.21 16,15.21 C15.59,15.21 15.25,14.87 15.25,14.46 L15.25,8.25 C15.25,7.91 15.18,7.73 15.11,7.69 C15.04,7.64 14.83,7.62 14.52,7.7 L11.34,8.57 C11.06,8.65 10.92,8.83 10.92,9.12 L10.92,15.52 C10.93,15.93 10.59,16.27 10.18,16.27 Z"/>
  <path fill="#292D32" d="M14.41,16.8 C13.12,16.8 12.07,15.75 12.07,14.46 C12.07,13.17 13.12,12.12 14.41,12.12 C15.7,12.12 16.75,13.17 16.75,14.46 C16.75,15.75 15.7,16.8 14.41,16.8 Z M14.41,13.62 C13.95,13.62 13.57,14 13.57,14.46 C13.57,14.92 13.95,15.3 14.41,15.3 C14.87,15.3 15.25,14.92 15.25,14.46 C15.25,14 14.87,13.62 14.41,13.62 Z"/>
  <path fill="#292D32" d="M10.18,11.5 C9.85,11.5 9.55,11.28 9.46,10.95 C9.35,10.55 9.59,10.14 9.99,10.03 L15.81,8.44 C16.21,8.33 16.62,8.57 16.73,8.97 C16.84,9.37 16.6,9.78 16.2,9.89 L10.38,11.48 C10.31,11.5 10.24,11.5 10.18,11.5 Z"/>
</svg>

