<svg xmlns="http://www.w3.org/2000/svg" width="24" height="24" viewBox="0 0 24 24">
  <defs/>
  <path fill="#292D32" d="M5.59,22.7 C3.25,22.7 1.27,20.72 1.27,18.38 L1.27,12.22 C1.21,9.31 2.3,6.56 4.32,4.49 C6.34,2.43 9.06,1.3 11.97,1.3 C17.93,1.3 22.77,6.15 22.77,12.11 L22.77,18.27 C22.77,20.65 20.83,22.59 18.45,22.59 C16.07,22.59 14.13,20.65 14.13,18.27 L14.13,15.46 C14.13,14.03 15.29,12.87 16.72,12.87 C18.15,12.87 19.31,14.03 19.31,15.46 L19.31,18.49 C19.31,18.9 18.97,19.24 18.56,19.24 C18.15,19.24 17.81,18.9 17.81,18.49 L17.81,15.46 C17.81,14.78 17.26,14.37 16.72,14.37 C16.04,14.37 15.63,14.92 15.63,15.46 L15.63,18.27 C15.63,19.8 16.92,21.09 18.45,21.09 C19.98,21.09 21.27,19.8 21.27,18.27 L21.27,12.11 C21.27,6.98 17.1,2.8 11.97,2.8 C9.46,2.8 7.13,3.77 5.39,5.54 C3.65,7.31 2.72,9.68 2.77,12.2 L2.77,18.37 C2.77,19.9 4.06,21.19 5.59,21.19 C7.12,21.19 8.41,19.9 8.41,18.37 L8.41,15.56 C8.41,14.88 7.86,14.47 7.32,14.47 C6.64,14.47 6.23,15.02 6.23,15.56 L6.23,18.48 C6.23,18.89 5.89,19.23 5.48,19.23 C5.07,19.23 4.73,18.89 4.73,18.48 L4.73,15.56 C4.73,14.11 5.87,12.97 7.32,12.97 C8.75,12.97 9.91,14.13 9.91,15.56 L9.91,18.37 C9.91,20.76 7.97,22.7 5.59,22.7 Z"/>
  <path fill="#292D32" d="M13.18,11.86 C12.78,11.86 12.42,11.64 12.25,11.28 L10.8,8.39 L10.38,9.17 C10.15,9.6 9.69,9.87 9.2,9.87 L8.47,9.87 C8.06,9.87 7.72,9.53 7.72,9.12 C7.72,8.71 8.06,8.37 8.47,8.37 L9.11,8.37 L9.9,6.91 C10.09,6.57 10.44,6.39 10.83,6.36 C11.22,6.36 11.57,6.59 11.75,6.93 L13.18,9.79 L13.52,9.1 C13.75,8.64 14.2,8.36 14.72,8.36 L15.53,8.36 C15.94,8.36 16.28,8.7 16.28,9.11 C16.28,9.52 15.94,9.86 15.53,9.86 L14.82,9.86 L14.11,11.27 C13.93,11.64 13.58,11.86 13.18,11.86 Z"/>
</svg>

