<svg xmlns="http://www.w3.org/2000/svg" width="24" height="24" viewBox="0 0 24 24">
  <defs/>
  <path fill="#292D32" d="M19.21,15.01 C18.12,14.94 17,15.34 16.17,16.17 C14.61,17.73 14.61,20.26 16.17,21.83 C16.7,22.36 17.35,22.71 18.04,22.88 C18.42,22.98 18.82,23.01 19.22,22.99 C20.17,22.95 21.1,22.57 21.83,21.84 C22.86,20.81 23.21,19.36 22.88,18.05 C22.72,17.36 22.36,16.71 21.83,16.18 C21.11,15.45 20.17,15.06 19.21,15.01 Z M21.24,18.98 C21.24,19.19 21.16,19.37 21.02,19.51 C20.88,19.65 20.7,19.73 20.49,19.73 L19.75,19.73 L19.75,20.51 C19.75,20.72 19.67,20.9 19.53,21.04 C19.39,21.18 19.21,21.26 19,21.26 C18.59,21.26 18.25,20.92 18.25,20.51 L18.25,19.73 L17.5,19.73 C17.09,19.73 16.75,19.39 16.75,18.98 C16.75,18.57 17.09,18.23 17.5,18.23 L18.25,18.23 L18.25,17.52 C18.25,17.11 18.59,16.77 19,16.77 C19.41,16.77 19.75,17.11 19.75,17.52 L19.75,18.23 L20.49,18.23 C20.91,18.23 21.24,18.57 21.24,18.98 Z"/>
  <path fill="#292D32" opacity="0.4" d="M16.34,21.97 C16.04,21.71 15.78,21.4 15.58,21.06 C15.21,20.46 15,19.75 15,19 C15,16.79 16.79,15 19,15 C20.18,15 21.25,15.51 21.97,16.33 C21.98,16.34 21.98,16.35 21.99,16.35 C21.99,16.29 22,16.24 22,16.19 L22,7.81 C22,4.17 19.83,2 16.19,2 L7.81,2 C7.53,2 7.26,2.01 7,2.05 C3.85,2.34 2,4.45 2,7.81 L2,16.19 C2,19.55 3.85,21.66 7,21.95 C7.26,21.99 7.53,22 7.81,22 L16.19,22 C16.25,22 16.3,21.99 16.36,21.99 C16.36,21.98 16.35,21.98 16.34,21.97 Z"/>
  <path fill="#292D32" d="M13.779,5.3 C13.459,5.05 12.879,4.81 11.959,5.06 L8.979,5.88 C8.089,6.11 7.509,6.86 7.509,7.8 L7.509,9.55 L7.509,11.71 C7.279,11.63 7.029,11.57 6.769,11.57 C5.529,11.57 4.529,12.58 4.529,13.81 C4.529,15.04 5.539,16.05 6.769,16.05 C7.989,16.05 8.989,15.06 9.009,13.85 C9.009,13.84 9.019,13.83 9.019,13.82 L9.019,10.12 L12.989,9.04 L12.989,10.72 C12.759,10.64 12.509,10.58 12.239,10.58 C10.999,10.58 9.999,11.59 9.999,12.82 C9.999,14.06 11.009,15.06 12.239,15.06 C13.459,15.06 14.459,14.07 14.479,12.85 C14.479,12.84 14.489,12.83 14.489,12.81 L14.489,8.05 L14.489,6.98 C14.479,6.22 14.239,5.65 13.779,5.3 Z M6.759,14.55 C6.349,14.55 6.019,14.22 6.019,13.81 C6.019,13.4 6.349,13.07 6.759,13.07 C7.169,13.07 7.499,13.4 7.499,13.81 C7.499,14.22 7.169,14.55 6.759,14.55 Z M12.229,13.55 C11.819,13.55 11.489,13.22 11.489,12.81 C11.489,12.4 11.819,12.07 12.229,12.07 C12.639,12.07 12.969,12.4 12.969,12.81 C12.969,13.22 12.639,13.55 12.229,13.55 Z"/>
</svg>

