<svg xmlns="http://www.w3.org/2000/svg" width="24" height="24" viewBox="0 0 24 24">
  <defs/>
  <path fill="#292D32" d="M22,3.75 L2,3.75 C1.59,3.75 1.25,3.41 1.25,3 C1.25,2.59 1.59,2.25 2,2.25 L22,2.25 C22.41,2.25 22.75,2.59 22.75,3 C22.75,3.41 22.41,3.75 22,3.75 Z"/>
  <path fill="#292D32" d="M11,9.75 L2,9.75 C1.59,9.75 1.25,9.41 1.25,9 C1.25,8.59 1.59,8.25 2,8.25 L11,8.25 C11.41,8.25 11.75,8.59 11.75,9 C11.75,9.41 11.41,9.75 11,9.75 Z"/>
  <path fill="#292D32" d="M8,15.75 L2,15.75 C1.59,15.75 1.25,15.41 1.25,15 C1.25,14.59 1.59,14.25 2,14.25 L8,14.25 C8.41,14.25 8.75,14.59 8.75,15 C8.75,15.41 8.41,15.75 8,15.75 Z"/>
  <path fill="#292D32" d="M6,21.75 L2,21.75 C1.59,21.75 1.25,21.41 1.25,21 C1.25,20.59 1.59,20.25 2,20.25 L6,20.25 C6.41,20.25 6.75,20.59 6.75,21 C6.75,21.41 6.41,21.75 6,21.75 Z"/>
  <path fill="#292D32" d="M21.86,7.678 C21.27,7.228 20.46,7.138 19.51,7.398 L15.16,8.578 C13.99,8.898 13.27,9.848 13.27,11.048 L13.27,13.598 L13.27,17.278 C12.85,17.038 12.36,16.888 11.84,16.888 C10.23,16.888 8.91,18.198 8.91,19.818 C8.91,21.428 10.22,22.748 11.84,22.748 C13.46,22.748 14.77,21.438 14.77,19.818 L14.77,14.168 L21.25,12.398 L21.25,15.828 C20.83,15.588 20.34,15.438 19.82,15.438 C18.21,15.438 16.89,16.748 16.89,18.368 C16.89,19.978 18.2,21.298 19.82,21.298 C21.44,21.298 22.75,19.988 22.75,18.368 L22.75,11.418 L22.75,9.868 C22.75,8.858 22.45,8.118 21.86,7.678 Z M11.84,21.248 C11.05,21.248 10.41,20.608 10.41,19.818 C10.41,19.028 11.05,18.388 11.84,18.388 C12.63,18.388 13.27,19.028 13.27,19.818 C13.27,20.608 12.63,21.248 11.84,21.248 Z M19.82,19.798 C19.03,19.798 18.39,19.158 18.39,18.368 C18.39,17.578 19.03,16.938 19.82,16.938 C20.61,16.938 21.25,17.578 21.25,18.368 C21.25,19.158 20.61,19.798 19.82,19.798 Z"/>
</svg>

