<svg xmlns="http://www.w3.org/2000/svg" width="24" height="24" viewBox="0 0 24 24">
  <defs/>
  <path fill="#292D32" d="M19.21,15.012 C18.12,14.942 17,15.342 16.17,16.172 C14.61,17.732 14.61,20.262 16.17,21.832 C16.7,22.362 17.35,22.712 18.04,22.882 C18.42,22.982 18.82,23.012 19.22,22.992 C20.17,22.952 21.1,22.572 21.83,21.842 C22.86,20.812 23.21,19.362 22.88,18.052 C22.72,17.362 22.36,16.712 21.83,16.182 C21.11,15.452 20.17,15.062 19.21,15.012 Z M21.24,18.982 C21.24,19.192 21.16,19.372 21.02,19.512 C20.88,19.652 20.7,19.732 20.49,19.732 L19.75,19.732 L19.75,20.512 C19.75,20.722 19.67,20.902 19.53,21.042 C19.39,21.182 19.21,21.262 19,21.262 C18.59,21.262 18.25,20.922 18.25,20.512 L18.25,19.732 L17.5,19.732 C17.09,19.732 16.75,19.392 16.75,18.982 C16.75,18.572 17.09,18.232 17.5,18.232 L18.25,18.232 L18.25,17.522 C18.25,17.112 18.59,16.772 19,16.772 C19.41,16.772 19.75,17.112 19.75,17.522 L19.75,18.232 L20.49,18.232 C20.91,18.232 21.24,18.572 21.24,18.982 Z"/>
  <path fill="#292D32" d="M12.228,12.07 C11.818,12.07 11.488,12.4 11.488,12.81 C11.488,13.22 11.818,13.55 12.228,13.55 C12.638,13.55 12.968,13.22 12.968,12.81 C12.968,12.4 12.638,12.07 12.228,12.07 Z"/>
  <path fill="#292D32" d="M6.76,13.059 C6.35,13.059 6.02,13.389 6.02,13.799 C6.02,14.209 6.35,14.539 6.76,14.539 C7.17,14.539 7.5,14.209 7.5,13.799 C7.5,13.389 7.17,13.059 6.76,13.059 Z"/>
  <path fill="#292D32" d="M16.19,2 L7.81,2 C7.53,2 7.26,2.01 7,2.05 C3.85,2.34 2,4.45 2,7.81 L2,16.19 C2,19.55 3.85,21.66 7,21.95 C7.26,21.99 7.53,22 7.81,22 L13.5,22 C13.89,22 14.14,21.56 13.99,21.2 C13.7,20.51 13.5,19.71 13.5,19 C13.5,15.97 15.97,13.5 19,13.5 C19.76,13.5 20.5,13.65 21.18,13.95 C21.55,14.11 22,13.86 22,13.46 L22,7.81 C22,4.17 19.83,2 16.19,2 Z M14.48,8.05 L14.48,12.81 C14.48,12.82 14.47,12.83 14.47,12.85 C14.45,14.07 13.46,15.06 12.23,15.06 C10.99,15.06 9.99,14.05 9.99,12.82 C9.99,11.58 11,10.58 12.23,10.58 C12.49,10.58 12.74,10.63 12.98,10.72 L12.98,9.03 L9.01,10.11 L9.01,13.81 C9.01,13.82 9,13.83 9,13.84 C8.98,15.06 7.99,16.04 6.76,16.04 C5.52,16.04 4.52,15.03 4.52,13.8 C4.52,12.57 5.53,11.56 6.76,11.56 C7.02,11.56 7.27,11.61 7.5,11.7 L7.5,9.54 L7.5,7.79 C7.5,6.86 8.08,6.11 8.97,5.87 L11.95,5.05 C12.88,4.8 13.45,5.05 13.77,5.29 C14.23,5.64 14.46,6.21 14.46,6.97 L14.46,8.05 L14.48,8.05 Z"/>
</svg>

