<svg xmlns="http://www.w3.org/2000/svg" width="24" height="24" viewBox="0 0 24 24">
  <defs/>
  <path fill="#292D32" opacity="0.4" d="M19.261,2.87 L14.841,1.4 C13.921,1.09 12.991,1.2 12.31,1.7 C11.62,2.2 11.23,3.04 11.23,4.01 L11.23,7.78 L18.11,10.07 C18.451,10.19 18.8,10.24 19.131,10.24 C19.691,10.24 20.21,10.08 20.64,9.77 C21.331,9.27 21.721,8.43 21.721,7.46 L21.721,6.28 C21.721,4.85 20.62,3.32 19.261,2.87 Z"/>
  <path fill="#292D32" d="M12.721,8.27 L12.721,18 C12.721,20.62 10.591,22.75 7.971,22.75 C5.351,22.75 3.221,20.62 3.221,18 C3.221,15.38 5.351,13.25 7.971,13.25 C9.231,13.25 10.371,13.75 11.221,14.55 L11.221,7.77 L12.721,8.27 Z"/>
</svg>

