<svg xmlns="http://www.w3.org/2000/svg" width="24" height="24" viewBox="0 0 24 24">
  <defs/>
  <path fill="#292D32" d="M18,5.25 L6,5.25 C5.59,5.25 5.25,4.91 5.25,4.5 C5.25,4.09 5.59,3.75 6,3.75 L18,3.75 C18.41,3.75 18.75,4.09 18.75,4.5 C18.75,4.91 18.41,5.25 18,5.25 Z"/>
  <path fill="#292D32" d="M15,2.75 L9,2.75 C8.59,2.75 8.25,2.41 8.25,2 C8.25,1.59 8.59,1.25 9,1.25 L15,1.25 C15.41,1.25 15.75,1.59 15.75,2 C15.75,2.41 15.41,2.75 15,2.75 Z"/>
  <path fill="#292D32" opacity="0.4" d="M18,7 L6,7 C3.8,7 2,8.8 2,11 L2,18 C2,20.2 3.8,22 6,22 L18,22 C20.2,22 22,20.2 22,18 L22,11 C22,8.8 20.2,7 18,7 Z"/>
  <path fill="#292D32" d="M15.37,9.89 C15.069,9.65 14.52,9.42 13.639,9.65 L10.909,10.4 C10.059,10.62 9.51,11.34 9.51,12.23 L9.51,13.83 L9.51,15.73 C9.31,15.67 9.11,15.63 8.89,15.63 C7.72,15.63 6.77,16.58 6.77,17.75 C6.77,18.92 7.72,19.87 8.89,19.87 C10.059,19.87 11.009,18.92 11.009,17.75 L11.009,17.74 L11.009,14.41 L14.53,13.45 L14.53,14.82 C14.329,14.76 14.13,14.72 13.909,14.72 C12.739,14.72 11.79,15.67 11.79,16.84 C11.79,18.01 12.739,18.96 13.909,18.96 C15.059,18.96 15.999,18.04 16.02,16.89 C16.02,16.87 16.029,16.86 16.029,16.84 L16.029,12.47 L16.029,11.49 C16.029,10.59 15.669,10.12 15.37,9.89 Z M8.89,18.36 C8.55,18.36 8.27,18.08 8.27,17.74 C8.27,17.4 8.55,17.12 8.89,17.12 C9.23,17.12 9.5,17.39 9.51,17.73 C9.51,18.08 9.23,18.36 8.89,18.36 Z M13.909,17.45 C13.569,17.45 13.29,17.17 13.29,16.83 C13.29,16.49 13.569,16.21 13.909,16.21 C14.249,16.21 14.53,16.49 14.53,16.83 C14.53,17.17 14.249,17.45 13.909,17.45 Z"/>
</svg>

