<svg xmlns="http://www.w3.org/2000/svg" width="24" height="24" viewBox="0 0 24 24">
  <defs/>
  <path fill="#292D32" d="M22.79,21.76 L22.07,21.04 C22.44,20.48 22.66,19.8 22.66,19.08 C22.66,17.1 21.06,15.5 19.08,15.5 C17.1,15.5 15.5,17.1 15.5,19.08 C15.5,21.06 17.1,22.66 19.08,22.66 C19.81,22.66 20.48,22.44 21.04,22.07 L21.76,22.79 C21.9,22.93 22.09,23 22.27,23 C22.46,23 22.64,22.93 22.78,22.79 C23.07,22.5 23.07,22.04 22.79,21.76 Z"/>
  <path fill="#292D32" d="M12.228,12.07 C11.818,12.07 11.488,12.4 11.488,12.81 C11.488,13.22 11.818,13.55 12.228,13.55 C12.638,13.55 12.968,13.22 12.968,12.81 C12.968,12.4 12.638,12.07 12.228,12.07 Z"/>
  <path fill="#292D32" d="M6.76,13.059 C6.35,13.059 6.02,13.389 6.02,13.799 C6.02,14.209 6.35,14.539 6.76,14.539 C7.17,14.539 7.5,14.209 7.5,13.799 C7.5,13.389 7.17,13.059 6.76,13.059 Z"/>
  <path fill="#292D32" d="M16.19,2 L7.81,2 C7.53,2 7.26,2.01 7,2.05 C3.85,2.34 2,4.45 2,7.81 L2,16.19 C2,19.55 3.85,21.66 7,21.95 C7.26,21.99 7.53,22 7.81,22 L13.5,22 C13.89,22 14.14,21.56 13.99,21.2 C13.7,20.51 13.5,19.71 13.5,19 C13.5,15.97 15.97,13.5 19,13.5 C19.76,13.5 20.5,13.65 21.18,13.95 C21.55,14.11 22,13.86 22,13.46 L22,7.81 C22,4.17 19.83,2 16.19,2 Z M14.48,8.05 L14.48,12.81 C14.48,12.82 14.47,12.83 14.47,12.85 C14.45,14.07 13.46,15.06 12.23,15.06 C10.99,15.06 9.99,14.05 9.99,12.82 C9.99,11.58 11,10.58 12.23,10.58 C12.49,10.58 12.74,10.63 12.98,10.72 L12.98,9.03 L9.01,10.11 L9.01,13.81 C9.01,13.82 9,13.83 9,13.84 C8.98,15.06 7.99,16.04 6.76,16.04 C5.52,16.04 4.52,15.03 4.52,13.8 C4.52,12.57 5.53,11.56 6.76,11.56 C7.02,11.56 7.27,11.61 7.5,11.7 L7.5,9.54 L7.5,7.79 C7.5,6.86 8.08,6.11 8.97,5.87 L11.95,5.05 C12.88,4.8 13.45,5.05 13.77,5.29 C14.23,5.64 14.46,6.21 14.46,6.97 L14.46,8.05 L14.48,8.05 Z"/>
</svg>

