<svg xmlns="http://www.w3.org/2000/svg" width="24" height="24" viewBox="0 0 24 24">
  <defs/>
  <path fill="#292D32" d="M17,4.75 L16,4.75 L16,3.26 C16,2.43 15.32,1.75 14.49,1.75 L9.51,1.75 C8.68,1.75 8,2.43 8,3.26 L8,4.75 L7,4.75 C5.9,4.75 5,5.65 5,6.75 L5,6.88 C5.32,6.79 5.65,6.75 6,6.75 L18,6.75 C18.35,6.75 18.68,6.79 19,6.88 L19,6.75 C19,5.65 18.1,4.75 17,4.75 Z"/>
  <path fill="#292D32" d="M13.929,16.93 C13.609,16.93 13.359,17.19 13.359,17.5 C13.359,17.81 13.619,18.07 13.929,18.07 C14.239,18.07 14.499,17.81 14.499,17.5 C14.499,17.19 14.239,16.93 13.929,16.93 Z"/>
  <path fill="#292D32" d="M9.07,17.809 C8.75,17.809 8.5,18.069 8.5,18.379 C8.5,18.689 8.76,18.949 9.07,18.949 C9.38,18.949 9.64,18.689 9.64,18.379 C9.64,18.069 9.39,17.809 9.07,17.809 Z"/>
  <path fill="#292D32" d="M19,8.38 C18.68,8.29 18.35,8.25 18,8.25 L6,8.25 C5.65,8.25 5.32,8.29 5,8.38 C3.28,8.83 2,10.4 2,12.25 L2,18.25 C2,20.45 3.8,22.25 6,22.25 L18,22.25 C20.2,22.25 22,20.45 22,18.25 L22,12.25 C22,10.4 20.72,8.83 19,8.38 Z M16,13.28 L16,17.5 C16,18.64 15.07,19.57 13.93,19.57 C12.79,19.57 11.86,18.64 11.86,17.5 C11.86,16.36 12.79,15.43 13.93,15.43 C14.13,15.43 14.32,15.47 14.5,15.52 L14.5,14.26 L11.15,15.17 L11.15,18.38 C11.15,18.39 11.15,18.4 11.14,18.41 C11.13,19.54 10.2,20.46 9.07,20.46 C7.93,20.46 7,19.53 7,18.38 C7,17.23 7.93,16.31 9.07,16.31 C9.27,16.31 9.46,16.35 9.65,16.4 L9.65,14.6 L9.65,13.05 C9.65,12.19 10.19,11.49 11.01,11.27 L13.66,10.54 C14.51,10.31 15.05,10.53 15.35,10.76 C15.65,10.99 16,11.44 16,12.33 L16,13.28 Z"/>
</svg>

