<svg xmlns="http://www.w3.org/2000/svg" width="24" height="24" viewBox="0 0 24 24">
  <defs/>
  <path fill="#292D32" opacity="0.4" d="M16.19,2 L7.82,2 C4.18,2 2.01,4.17 2.01,7.81 L2.01,16.18 C2.01,19.82 4.18,21.99 7.82,21.99 L16.19,21.99 C19.83,21.99 22,19.82 22,16.18 L22,7.81 C22,4.17 19.83,2 16.19,2 Z"/>
  <path fill="#292D32" d="M16.141,6.71 C15.801,6.45 15.201,6.2 14.241,6.46 L11.251,7.28 C10.321,7.53 9.711,8.32 9.711,9.29 L9.711,11.04 L9.711,13.07 C9.501,13.01 9.291,12.97 9.061,12.97 C7.771,12.97 6.721,14.02 6.721,15.31 C6.721,16.6 7.771,17.65 9.061,17.65 C10.341,17.65 11.381,16.61 11.401,15.34 C11.401,15.33 11.411,15.32 11.411,15.31 L11.411,11.69 L15.191,10.66 L15.191,12.08 C14.981,12.02 14.771,11.98 14.541,11.98 C13.251,11.98 12.201,13.03 12.201,14.32 C12.201,15.61 13.251,16.66 14.541,16.66 C15.831,16.66 16.881,15.61 16.881,14.32 L16.881,9.56 L16.881,8.49 C16.881,7.49 16.471,6.97 16.141,6.71 Z M9.061,15.96 C8.701,15.96 8.411,15.67 8.411,15.31 C8.411,14.95 8.701,14.66 9.061,14.66 C9.421,14.66 9.711,14.95 9.711,15.31 C9.711,15.67 9.421,15.96 9.061,15.96 Z M14.541,14.96 C14.181,14.96 13.891,14.67 13.891,14.31 C13.891,13.95 14.181,13.66 14.541,13.66 C14.901,13.66 15.191,13.95 15.191,14.31 C15.181,14.67 14.891,14.96 14.541,14.96 Z"/>
</svg>

