<svg xmlns="http://www.w3.org/2000/svg" width="24" height="24" viewBox="0 0 24 24">
  <defs/>
  <path fill="#292D32" d="M2,2.25 L22,2.25 Q22.311,2.25 22.53,2.47 Q22.75,2.689 22.75,3 Q22.75,3.311 22.53,3.53 Q22.311,3.75 22,3.75 L2,3.75 Q1.689,3.75 1.47,3.53 Q1.25,3.311 1.25,3 Q1.25,2.689 1.47,2.47 Q1.689,2.25 2,2.25 Z"/>
  <path fill="#292D32" d="M2,8.25 L11,8.25 Q11.311,8.25 11.53,8.47 Q11.75,8.689 11.75,9 Q11.75,9.311 11.53,9.53 Q11.311,9.75 11,9.75 L2,9.75 Q1.689,9.75 1.47,9.53 Q1.25,9.311 1.25,9 Q1.25,8.689 1.47,8.47 Q1.689,8.25 2,8.25 Z"/>
  <path fill="#292D32" d="M2,14.25 L8,14.25 Q8.311,14.25 8.53,14.47 Q8.75,14.689 8.75,15 Q8.75,15.311 8.53,15.53 Q8.311,15.75 8,15.75 L2,15.75 Q1.689,15.75 1.47,15.53 Q1.25,15.311 1.25,15 Q1.25,14.689 1.47,14.47 Q1.689,14.25 2,14.25 Z"/>
  <path fill="#292D32" d="M2,20.25 L6,20.25 Q6.311,20.25 6.53,20.47 Q6.75,20.689 6.75,21 Q6.75,21.311 6.53,21.53 Q6.311,21.75 6,21.75 L2,21.75 Q1.689,21.75 1.47,21.53 Q1.25,21.311 1.25,21 Q1.25,20.689 1.47,20.47 Q1.689,20.25 2,20.25 Z"/>
  <path fill="#292D32" d="M11.84,22.75 Q8.91,22.75 8.91,19.82 Q8.91,18.606 9.768,17.748 Q10.626,16.89 11.84,16.89 Q13.054,16.89 13.912,17.748 Q14.77,18.606 14.77,19.82 Q14.77,22.75 11.84,22.75 Z M11.84,21.25 Q12.432,21.25 12.851,20.831 Q13.27,20.412 13.27,19.82 Q13.27,19.228 12.851,18.809 Q12.432,18.39 11.84,18.39 Q10.41,18.39 10.41,19.82 Q10.41,21.25 11.84,21.25 Z"/>
  <path fill="#292D32" d="M21.25,18.37 L21.25,9.86 Q21.25,9.037 20.908,8.838 Q20.587,8.65 19.905,8.834 L15.558,10.023 Q14.77,10.243 14.77,11.05 L14.77,19.82 Q14.77,20.131 14.55,20.35 Q14.331,20.57 14.02,20.57 Q13.709,20.57 13.49,20.35 Q13.27,20.131 13.27,19.82 L13.27,11.05 Q13.27,9.103 15.162,8.577 L19.515,7.386 Q20.801,7.039 21.664,7.542 Q22.75,8.175 22.75,9.86 L22.75,18.37 Q22.75,18.681 22.53,18.9 Q22.311,19.12 22,19.12 Q21.689,19.12 21.47,18.9 Q21.25,18.681 21.25,18.37 Z"/>
  <path fill="#292D32" d="M19.82,21.3 Q18.606,21.3 17.748,20.442 Q16.89,19.584 16.89,18.37 Q16.89,15.44 19.82,15.44 Q22.75,15.44 22.75,18.37 Q22.75,21.3 19.82,21.3 Z M19.82,19.8 Q20.412,19.8 20.831,19.381 Q21.25,18.962 21.25,18.37 Q21.25,17.778 20.831,17.359 Q20.412,16.94 19.82,16.94 Q18.39,16.94 18.39,18.37 Q18.39,19.8 19.82,19.8 Z"/>
  <path fill="#292D32" d="M13.822,12.876 L21.802,10.696 Q22.102,10.615 22.372,10.769 Q22.642,10.923 22.723,11.222 Q22.805,11.522 22.651,11.792 Q22.497,12.062 22.198,12.143 L14.218,14.323 Q13.918,14.405 13.648,14.251 Q13.378,14.097 13.297,13.798 Q13.215,13.498 13.369,13.228 Q13.523,12.958 13.822,12.876 Z"/>
</svg>

