<svg xmlns="http://www.w3.org/2000/svg" width="24" height="24" viewBox="0 0 24 24">
  <defs/>
  <path fill="#292D32" d="M7,3.252 L7,20.752 C7,21.392 6.39,21.902 5.77,21.732 C3.37,21.052 2,19.092 2,16.192 L2,7.812 C2,4.912 3.37,2.952 5.77,2.272 C6.39,2.102 7,2.602 7,3.252 Z"/>
  <path fill="#292D32" d="M12.469,14.371 C12.089,14.371 11.789,14.681 11.789,15.051 C11.789,15.421 12.099,15.731 12.469,15.731 C12.849,15.731 13.159,15.421 13.159,15.051 C13.159,14.681 12.849,14.371 12.469,14.371 Z"/>
  <path fill="#292D32" d="M17.518,13.449 C17.138,13.449 16.828,13.759 16.828,14.139 C16.828,14.519 17.138,14.819 17.518,14.819 C17.898,14.819 18.208,14.509 18.208,14.139 C18.208,13.769 17.898,13.449 17.518,13.449 Z"/>
  <path fill="#292D32" d="M16.19,2 L9.5,2 C8.95,2 8.5,2.45 8.5,3 L8.5,21 C8.5,21.55 8.95,22 9.5,22 L16.19,22 C19.4,22 22,19.4 22,16.19 L22,7.81 C22,4.6 19.4,2 16.19,2 Z M19.6,9.74 L19.6,14.14 C19.6,14.15 19.59,14.16 19.59,14.17 C19.57,15.3 18.65,16.21 17.52,16.21 C16.38,16.21 15.45,15.28 15.45,14.14 C15.45,13 16.38,12.07 17.52,12.07 C17.76,12.07 17.99,12.12 18.21,12.2 L18.21,10.65 L14.54,11.65 L14.54,15.07 C14.54,15.08 14.53,15.09 14.53,15.1 C14.51,16.23 13.59,17.14 12.46,17.14 C11.32,17.14 10.39,16.21 10.39,15.07 C10.39,13.93 11.32,13 12.46,13 C12.7,13 12.93,13.05 13.15,13.13 L13.15,11.13 L13.15,9.5 C13.15,8.64 13.68,7.94 14.51,7.73 L17.26,6.97 C18.12,6.74 18.65,6.97 18.95,7.2 C19.38,7.53 19.59,8.05 19.59,8.75 L19.59,9.74 L19.6,9.74 Z"/>
</svg>

