<svg xmlns="http://www.w3.org/2000/svg" width="24" height="24" viewBox="0 0 24 24">
  <defs/>
  <path fill="#292D32" d="M7.971,22.75 C5.351,22.75 3.221,20.62 3.221,18 C3.221,15.38 5.351,13.25 7.971,13.25 C10.591,13.25 12.721,15.38 12.721,18 C12.721,20.62 10.591,22.75 7.971,22.75 Z M7.971,14.75 C6.181,14.75 4.721,16.21 4.721,18 C4.721,19.79 6.181,21.25 7.971,21.25 C9.761,21.25 11.221,19.79 11.221,18 C11.221,16.21 9.771,14.75 7.971,14.75 Z"/>
  <path fill="#292D32" d="M11.971,18.75 C11.561,18.75 11.221,18.41 11.221,18 L11.221,4 C11.221,3.59 11.561,3.25 11.971,3.25 C12.381,3.25 12.721,3.59 12.721,4 L12.721,18 C12.721,18.41 12.391,18.75 11.971,18.75 Z"/>
  <path fill="#292D32" d="M19.131,10.23 C18.8,10.23 18.451,10.17 18.11,10.06 L13.691,8.59 C12.31,8.13 11.23,6.63 11.23,5.18 L11.23,4 C11.23,3.03 11.63,2.19 12.31,1.69 C13.001,1.19 13.921,1.09 14.841,1.39 L19.261,2.86 C20.64,3.32 21.721,4.82 21.721,6.27 L21.721,7.44 C21.721,8.41 21.32,9.25 20.64,9.75 C20.21,10.08 19.68,10.23 19.131,10.23 Z M13.82,2.72 C13.581,2.72 13.361,2.78 13.191,2.91 C12.89,3.12 12.73,3.51 12.73,4 L12.73,5.17 C12.73,5.97 13.4,6.9 14.161,7.16 L18.581,8.63 C19.041,8.79 19.471,8.75 19.761,8.54 C20.061,8.33 20.221,7.94 20.221,7.45 L20.221,6.28 C20.221,5.48 19.55,4.55 18.791,4.29 L14.37,2.82 C14.181,2.75 13.991,2.72 13.82,2.72 Z"/>
</svg>

