<svg xmlns="http://www.w3.org/2000/svg" width="24" height="24" viewBox="0 0 24 24">
  <defs/>
  <path fill="#292D32" d="M22,3.75 L2,3.75 C1.59,3.75 1.25,3.41 1.25,3 C1.25,2.59 1.59,2.25 2,2.25 L22,2.25 C22.41,2.25 22.75,2.59 22.75,3 C22.75,3.41 22.41,3.75 22,3.75 Z"/>
  <path fill="#292D32" d="M11,9.75 L2,9.75 C1.59,9.75 1.25,9.41 1.25,9 C1.25,8.59 1.59,8.25 2,8.25 L11,8.25 C11.41,8.25 11.75,8.59 11.75,9 C11.75,9.41 11.41,9.75 11,9.75 Z"/>
  <path fill="#292D32" d="M8,15.75 L2,15.75 C1.59,15.75 1.25,15.41 1.25,15 C1.25,14.59 1.59,14.25 2,14.25 L8,14.25 C8.41,14.25 8.75,14.59 8.75,15 C8.75,15.41 8.41,15.75 8,15.75 Z"/>
  <path fill="#292D32" d="M6,21.75 L2,21.75 C1.59,21.75 1.25,21.41 1.25,21 C1.25,20.59 1.59,20.25 2,20.25 L6,20.25 C6.41,20.25 6.75,20.59 6.75,21 C6.75,21.41 6.41,21.75 6,21.75 Z"/>
  <path fill="#292D32" d="M11.84,22.75 C10.23,22.75 8.91,21.44 8.91,19.82 C8.91,18.21 10.22,16.89 11.84,16.89 C13.46,16.89 14.77,18.2 14.77,19.82 C14.77,21.44 13.46,22.75 11.84,22.75 Z M11.84,18.4 C11.05,18.4 10.41,19.04 10.41,19.83 C10.41,20.62 11.05,21.26 11.84,21.26 C12.63,21.26 13.27,20.62 13.27,19.83 C13.27,19.04 12.63,18.4 11.84,18.4 Z"/>
  <path fill="#292D32" d="M14.02,20.57 C13.61,20.57 13.27,20.23 13.27,19.82 L13.27,11.05 C13.27,9.84 13.989,8.89 15.159,8.58 L19.509,7.39 C20.459,7.13 21.279,7.23 21.86,7.68 C22.439,8.13 22.739,8.86 22.739,9.87 L22.739,18.38 C22.739,18.79 22.399,19.13 21.989,19.13 C21.579,19.13 21.239,18.79 21.239,18.38 L21.239,9.87 C21.239,9.37 21.14,9.02 20.95,8.88 C20.759,8.73 20.369,8.72 19.899,8.85 L15.55,10.04 C15.259,10.12 14.77,10.36 14.77,11.07 L14.77,19.84 C14.77,20.24 14.43,20.57 14.02,20.57 Z"/>
  <path fill="#292D32" d="M19.821,21.3 C18.211,21.3 16.891,19.99 16.891,18.37 C16.891,16.76 18.201,15.44 19.821,15.44 C21.441,15.44 22.751,16.75 22.751,18.37 C22.751,19.99 21.441,21.3 19.821,21.3 Z M19.821,16.95 C19.031,16.95 18.391,17.59 18.391,18.38 C18.391,19.17 19.031,19.81 19.821,19.81 C20.611,19.81 21.251,19.17 21.251,18.38 C21.251,17.59 20.611,16.95 19.821,16.95 Z"/>
  <path fill="#292D32" d="M14.02,14.35 C13.69,14.35 13.39,14.13 13.3,13.8 C13.19,13.4 13.43,12.99 13.83,12.88 L21.81,10.7 C22.21,10.59 22.62,10.83 22.73,11.23 C22.84,11.63 22.6,12.04 22.2,12.15 L14.22,14.33 C14.15,14.34 14.08,14.35 14.02,14.35 Z"/>
</svg>

