<svg xmlns="http://www.w3.org/2000/svg" width="24" height="24" viewBox="0 0 24 24">
  <defs/>
  <path fill="#292D32" d="M13.181,11.861 C12.781,11.861 12.421,11.641 12.251,11.281 L10.801,8.391 L10.381,9.171 C10.151,9.601 9.691,9.871 9.201,9.871 L8.471,9.871 C8.061,9.871 7.721,9.531 7.721,9.121 C7.721,8.711 8.061,8.371 8.471,8.371 L9.111,8.371 L9.901,6.911 C10.091,6.571 10.471,6.341 10.831,6.361 C11.221,6.361 11.571,6.591 11.751,6.931 L13.181,9.791 L13.521,9.101 C13.751,8.641 14.201,8.361 14.721,8.361 L15.531,8.361 C15.941,8.361 16.281,8.701 16.281,9.111 C16.281,9.521 15.941,9.861 15.531,9.861 L14.821,9.861 L14.111,11.271 C13.931,11.641 13.581,11.861 13.181,11.861 Z"/>
  <path fill="#292D32" d="M2.75,18.651 C2.34,18.651 2,18.311 2,17.901 L2,12.201 C1.95,9.491 2.96,6.931 4.84,5.011 C6.72,3.101 9.24,2.051 11.95,2.051 C17.49,2.051 22,6.561 22,12.101 L22,17.801 C22,18.211 21.66,18.551 21.25,18.551 C20.84,18.551 20.5,18.211 20.5,17.801 L20.5,12.101 C20.5,7.391 16.67,3.551 11.95,3.551 C9.64,3.551 7.5,4.441 5.91,6.061 C4.31,7.691 3.46,9.861 3.5,12.181 L3.5,17.891 C3.5,18.311 3.17,18.651 2.75,18.651 Z"/>
  <path fill="#292D32" d="M5.94,12.449 L5.81,12.449 C3.71,12.449 2,14.159 2,16.259 L2,18.139 C2,20.239 3.71,21.949 5.81,21.949 L5.94,21.949 C8.04,21.949 9.75,20.239 9.75,18.139 L9.75,16.259 C9.75,14.159 8.04,12.449 5.94,12.449 Z"/>
  <path fill="#292D32" d="M18.19,12.449 L18.06,12.449 C15.96,12.449 14.25,14.159 14.25,16.259 L14.25,18.139 C14.25,20.239 15.96,21.949 18.06,21.949 L18.19,21.949 C20.29,21.949 22,20.239 22,18.139 L22,16.259 C22,14.159 20.29,12.449 18.19,12.449 Z"/>
</svg>

