<svg xmlns="http://www.w3.org/2000/svg" width="24" height="24" viewBox="0 0 24 24">
  <defs/>
  <path fill="#292D32" d="M18,5.25 L6,5.25 C5.59,5.25 5.25,4.91 5.25,4.5 C5.25,4.09 5.59,3.75 6,3.75 L18,3.75 C18.41,3.75 18.75,4.09 18.75,4.5 C18.75,4.91 18.41,5.25 18,5.25 Z"/>
  <path fill="#292D32" d="M15,2.75 L9,2.75 C8.59,2.75 8.25,2.41 8.25,2 C8.25,1.59 8.59,1.25 9,1.25 L15,1.25 C15.41,1.25 15.75,1.59 15.75,2 C15.75,2.41 15.41,2.75 15,2.75 Z"/>
  <path fill="#292D32" d="M13.909,16.211 C13.569,16.211 13.289,16.491 13.289,16.831 C13.289,17.171 13.569,17.451 13.909,17.451 C14.249,17.451 14.529,17.171 14.529,16.831 C14.529,16.491 14.249,16.211 13.909,16.211 Z"/>
  <path fill="#292D32" d="M9.51,17.739 C9.51,17.399 9.23,17.129 8.89,17.129 C8.55,17.129 8.27,17.409 8.27,17.749 C8.27,18.089 8.55,18.369 8.89,18.369 C9.23,18.359 9.51,18.079 9.51,17.739 Z"/>
  <path fill="#292D32" d="M18,7 L6,7 C3.8,7 2,8.8 2,11 L2,18 C2,20.2 3.8,22 6,22 L18,22 C20.2,22 22,20.2 22,18 L22,11 C22,8.8 20.2,7 18,7 Z M16.03,12.46 L16.03,16.83 C16.03,16.85 16.02,16.86 16.02,16.88 C15.99,18.02 15.06,18.95 13.91,18.95 C12.74,18.95 11.79,18 11.79,16.83 C11.79,15.66 12.74,14.71 13.91,14.71 C14.13,14.71 14.33,14.75 14.53,14.81 L14.53,13.44 L11.01,14.4 L11.01,17.73 L11.01,17.74 C11.01,18.91 10.06,19.86 8.89,19.86 C7.72,19.86 6.77,18.91 6.77,17.74 C6.77,16.57 7.72,15.62 8.89,15.62 C9.11,15.62 9.31,15.66 9.51,15.72 L9.51,13.82 L9.51,12.22 C9.51,11.33 10.06,10.61 10.91,10.39 L13.64,9.64 C14.52,9.41 15.06,9.64 15.37,9.88 C15.67,10.11 16.03,10.58 16.03,11.47 L16.03,12.46 Z"/>
</svg>

