<svg xmlns="http://www.w3.org/2000/svg" width="24" height="24" viewBox="0 0 24 24">
  <defs/>
  <path fill="#292D32" d="M12.35,21.75 L8.65,21.75 C3.46,21.75 1.25,19.54 1.25,14.35 L1.25,8.65 C1.25,3.46 3.46,1.25 8.65,1.25 L14.35,1.25 C19.54,1.25 21.75,3.46 21.75,8.65 L21.75,12.35 C21.75,12.76 21.41,13.1 21,13.1 C20.59,13.1 20.25,12.76 20.25,12.35 L20.25,8.65 C20.25,4.29 18.71,2.75 14.35,2.75 L8.65,2.75 C4.29,2.75 2.75,4.29 2.75,8.65 L2.75,14.35 C2.75,18.71 4.29,20.25 8.65,20.25 L12.35,20.25 C12.76,20.25 13.1,20.59 13.1,21 C13.1,21.41 12.76,21.75 12.35,21.75 Z"/>
  <path fill="#292D32" d="M6.72,15.17 C5.51,15.17 4.52,14.18 4.52,12.97 C4.52,11.76 5.51,10.77 6.72,10.77 C7.93,10.77 8.92,11.76 8.92,12.97 C8.92,14.18 7.93,15.17 6.72,15.17 Z M6.72,12.27 C6.34,12.27 6.02,12.58 6.02,12.97 C6.02,13.35 6.33,13.67 6.72,13.67 C7.11,13.67 7.42,13.36 7.42,12.97 C7.42,12.58 7.11,12.27 6.72,12.27 Z"/>
  <path fill="#292D32" d="M8.17,13.72 C7.76,13.72 7.42,13.38 7.42,12.97 L7.42,7.14 C7.42,6.23 7.99,5.49 8.86,5.25 L11.76,4.46 C12.66,4.21 13.23,4.45 13.54,4.69 C13.85,4.93 14.23,5.41 14.23,6.34 L14.23,12 C14.23,12.41 13.89,12.75 13.48,12.75 C13.07,12.75 12.73,12.41 12.73,12 L12.73,6.34 C12.73,6.02 12.66,5.9 12.63,5.88 C12.6,5.86 12.46,5.82 12.15,5.9 L9.26,6.69 C8.96,6.77 8.92,6.98 8.92,7.13 L8.92,12.96 C8.92,13.38 8.58,13.72 8.17,13.72 Z"/>
  <path fill="#292D32" d="M12.03,14.2 C10.82,14.2 9.83,13.21 9.83,12 C9.83,10.79 10.82,9.8 12.03,9.8 C13.24,9.8 14.23,10.79 14.23,12 C14.23,13.22 13.24,14.2 12.03,14.2 Z M12.03,11.31 C11.65,11.31 11.33,11.62 11.33,12.01 C11.33,12.39 11.64,12.71 12.03,12.71 C12.42,12.71 12.73,12.4 12.73,12.01 C12.73,11.62 12.41,11.31 12.03,11.31 Z"/>
  <path fill="#292D32" d="M8.171,9.58 C7.841,9.58 7.541,9.36 7.451,9.03 C7.341,8.63 7.581,8.22 7.981,8.11 L13.29,6.66 C13.691,6.56 14.101,6.79 14.211,7.19 C14.321,7.59 14.081,8 13.681,8.11 L8.371,9.56 C8.301,9.57 8.231,9.58 8.171,9.58 Z"/>
  <path fill="#292D32" d="M17.94,22.03 C15.76,22.03 13.99,20.26 13.99,18.08 C13.99,15.9 15.76,14.13 17.94,14.13 C20.12,14.13 21.89,15.9 21.89,18.08 C21.89,20.26 20.12,22.03 17.94,22.03 Z M17.94,15.63 C16.59,15.63 15.49,16.73 15.49,18.08 C15.49,19.43 16.59,20.53 17.94,20.53 C19.29,20.53 20.39,19.43 20.39,18.08 C20.39,16.73 19.29,15.63 17.94,15.63 Z"/>
  <path fill="#292D32" d="M21.74,22.63 C21.55,22.63 21.36,22.56 21.21,22.41 L20.21,21.41 C19.92,21.12 19.92,20.64 20.21,20.35 C20.5,20.06 20.98,20.06 21.27,20.35 L22.27,21.35 C22.56,21.64 22.56,22.12 22.27,22.41 C22.12,22.55 21.93,22.63 21.74,22.63 Z"/>
</svg>

