<svg xmlns="http://www.w3.org/2000/svg" width="24" height="24" viewBox="0 0 24 24">
  <defs/>
  <path fill="#292D32" d="M21.97,16.33 C21.25,15.51 20.18,15 19,15 C16.79,15 15,16.79 15,19 C15,19.75 15.21,20.46 15.58,21.06 C15.78,21.4 16.04,21.71 16.34,21.97 C17.04,22.61 17.97,23 19,23 C20.46,23 21.73,22.22 22.42,21.06 C22.79,20.46 23,19.75 23,19 C23,17.98 22.61,17.04 21.97,16.33 Z M20.6,20.58 C20.45,20.73 20.26,20.8 20.07,20.8 C19.88,20.8 19.69,20.73 19.54,20.58 L19.01,20.05 L18.46,20.6 C18.31,20.75 18.12,20.82 17.93,20.82 C17.74,20.82 17.55,20.75 17.4,20.6 C17.11,20.31 17.11,19.83 17.4,19.54 L17.95,18.99 L17.42,18.46 C17.13,18.17 17.13,17.69 17.42,17.4 C17.71,17.11 18.19,17.11 18.48,17.4 L19.01,17.93 L19.51,17.43 C19.8,17.14 20.28,17.14 20.57,17.43 C20.86,17.72 20.86,18.2 20.57,18.49 L20.07,18.99 L20.6,19.52 C20.89,19.81 20.89,20.28 20.6,20.58 Z"/>
  <path fill="#292D32" opacity="0.4" d="M16.34,21.97 C16.04,21.71 15.78,21.4 15.58,21.06 C15.21,20.46 15,19.75 15,19 C15,16.79 16.79,15 19,15 C20.18,15 21.25,15.51 21.97,16.33 C21.98,16.34 21.98,16.35 21.99,16.35 C21.99,16.29 22,16.24 22,16.19 L22,7.81 C22,4.17 19.83,2 16.19,2 L7.81,2 C7.53,2 7.26,2.01 7,2.05 C3.85,2.34 2,4.45 2,7.81 L2,16.19 C2,19.55 3.85,21.66 7,21.95 C7.26,21.99 7.53,22 7.81,22 L16.19,22 C16.25,22 16.3,21.99 16.36,21.99 C16.36,21.98 16.35,21.98 16.34,21.97 Z"/>
  <path fill="#292D32" d="M13.779,5.3 C13.459,5.05 12.879,4.81 11.959,5.06 L8.979,5.88 C8.089,6.11 7.509,6.86 7.509,7.8 L7.509,9.55 L7.509,11.71 C7.279,11.63 7.029,11.57 6.769,11.57 C5.529,11.57 4.529,12.58 4.529,13.81 C4.529,15.04 5.539,16.05 6.769,16.05 C7.989,16.05 8.989,15.06 9.009,13.85 C9.009,13.84 9.019,13.83 9.019,13.82 L9.019,10.12 L12.989,9.04 L12.989,10.72 C12.759,10.64 12.509,10.58 12.239,10.58 C10.999,10.58 9.999,11.59 9.999,12.82 C9.999,14.06 11.009,15.06 12.239,15.06 C13.459,15.06 14.459,14.07 14.479,12.85 C14.479,12.84 14.489,12.83 14.489,12.81 L14.489,8.05 L14.489,6.98 C14.479,6.22 14.239,5.65 13.779,5.3 Z M6.759,14.55 C6.349,14.55 6.019,14.22 6.019,13.81 C6.019,13.4 6.349,13.07 6.759,13.07 C7.169,13.07 7.499,13.4 7.499,13.81 C7.499,14.22 7.169,14.55 6.759,14.55 Z M12.229,13.55 C11.819,13.55 11.489,13.22 11.489,12.81 C11.489,12.4 11.819,12.07 12.229,12.07 C12.639,12.07 12.969,12.4 12.969,12.81 C12.969,13.22 12.639,13.55 12.229,13.55 Z"/>
</svg>

