<svg xmlns="http://www.w3.org/2000/svg" width="24" height="24" viewBox="0 0 24 24">
  <defs/>
  <path fill="#292D32" d="M14.35,21.75 L8.65,21.75 C3.46,21.75 1.25,19.54 1.25,14.35 L1.25,8.65 C1.25,3.46 3.46,1.25 8.65,1.25 L14.35,1.25 C19.54,1.25 21.75,3.46 21.75,8.65 L21.75,14.35 C21.75,14.71 21.74,15.05 21.72,15.38 C21.7,15.68 21.5,15.94 21.21,16.04 C20.92,16.14 20.61,16.05 20.4,15.83 C19.8,15.15 18.92,14.75 17.99,14.75 C16.2,14.75 14.74,16.21 14.74,18 C14.74,18.59 14.9,19.17 15.21,19.67 C15.37,19.95 15.58,20.2 15.82,20.41 C16.05,20.61 16.14,20.93 16.04,21.21 C15.94,21.5 15.68,21.7 15.38,21.72 C15.06,21.74 14.72,21.75 14.35,21.75 Z M8.65,2.75 C4.29,2.75 2.75,4.29 2.75,8.65 L2.75,14.35 C2.75,18.71 4.29,20.25 8.65,20.25 L13.82,20.25 C13.45,19.57 13.25,18.8 13.25,18 C13.25,15.38 15.38,13.25 18,13.25 C18.8,13.25 19.57,13.45 20.25,13.81 L20.25,8.65 C20.25,4.29 18.71,2.75 14.35,2.75 L8.65,2.75 Z"/>
  <path fill="#292D32" d="M6.72,15.17 C5.51,15.17 4.52,14.18 4.52,12.97 C4.52,11.76 5.51,10.77 6.72,10.77 C7.93,10.77 8.92,11.76 8.92,12.97 C8.92,14.18 7.93,15.17 6.72,15.17 Z M6.72,12.27 C6.34,12.27 6.02,12.58 6.02,12.97 C6.02,13.35 6.33,13.67 6.72,13.67 C7.11,13.67 7.42,13.36 7.42,12.97 C7.42,12.58 7.11,12.27 6.72,12.27 Z"/>
  <path fill="#292D32" d="M8.17,13.72 C7.76,13.72 7.42,13.38 7.42,12.97 L7.42,7.14 C7.42,6.23 7.99,5.49 8.86,5.25 L11.76,4.46 C12.66,4.21 13.23,4.45 13.54,4.69 C13.85,4.93 14.23,5.41 14.23,6.34 L14.23,12 C14.23,12.41 13.89,12.75 13.48,12.75 C13.07,12.75 12.73,12.41 12.73,12 L12.73,6.34 C12.73,6.02 12.66,5.9 12.63,5.88 C12.6,5.86 12.46,5.82 12.15,5.9 L9.26,6.69 C8.96,6.77 8.92,6.98 8.92,7.13 L8.92,12.96 C8.92,13.38 8.58,13.72 8.17,13.72 Z"/>
  <path fill="#292D32" d="M12.03,14.2 C10.82,14.2 9.83,13.21 9.83,12 C9.83,10.79 10.82,9.8 12.03,9.8 C13.24,9.8 14.23,10.79 14.23,12 C14.23,13.22 13.24,14.2 12.03,14.2 Z M12.03,11.31 C11.65,11.31 11.33,11.62 11.33,12.01 C11.33,12.39 11.64,12.71 12.03,12.71 C12.42,12.71 12.73,12.4 12.73,12.01 C12.73,11.62 12.41,11.31 12.03,11.31 Z"/>
  <path fill="#292D32" d="M8.171,9.58 C7.841,9.58 7.541,9.36 7.451,9.03 C7.341,8.63 7.581,8.22 7.981,8.11 L13.29,6.66 C13.691,6.56 14.101,6.79 14.211,7.19 C14.321,7.59 14.081,8 13.681,8.11 L8.371,9.56 C8.301,9.57 8.231,9.58 8.171,9.58 Z"/>
  <path fill="#292D32" d="M18,22.75 C16.34,22.75 14.78,21.87 13.94,20.44 C13.49,19.72 13.25,18.87 13.25,18 C13.25,15.38 15.38,13.25 18,13.25 C20.62,13.25 22.75,15.38 22.75,18 C22.75,18.87 22.51,19.72 22.06,20.45 C21.22,21.87 19.66,22.75 18,22.75 Z M18,14.75 C16.21,14.75 14.75,16.21 14.75,18 C14.75,18.59 14.91,19.17 15.22,19.67 C15.81,20.67 16.85,21.25 18,21.25 C19.15,21.25 20.19,20.66 20.78,19.68 C21.09,19.17 21.25,18.6 21.25,18 C21.25,16.21 19.79,14.75 18,14.75 Z"/>
  <path fill="#292D32" d="M19.49,18.73 L16.5,18.73 C16.09,18.73 15.75,18.39 15.75,17.98 C15.75,17.57 16.09,17.23 16.5,17.23 L19.49,17.23 C19.9,17.23 20.24,17.57 20.24,17.98 C20.24,18.39 19.91,18.73 19.49,18.73 Z"/>
  <path fill="#292D32" d="M18,20.26 C17.59,20.26 17.25,19.92 17.25,19.51 L17.25,16.52 C17.25,16.11 17.59,15.77 18,15.77 C18.41,15.77 18.75,16.11 18.75,16.52 L18.75,19.51 C18.75,19.93 18.41,20.26 18,20.26 Z"/>
</svg>

