<svg xmlns="http://www.w3.org/2000/svg" width="24" height="24" viewBox="0 0 24 24">
  <defs/>
  <path fill="#292D32" d="M7,2.05 L7,21.95 C3.85,21.66 2,19.55 2,16.19 L2,7.81 C2,4.45 3.85,2.34 7,2.05 Z"/>
  <path fill="#292D32" opacity="0.4" d="M22,7.81 L22,16.19 C22,19.83 19.83,22 16.19,22 L7.81,22 C7.53,22 7.26,21.99 7,21.95 L7,2.05 C7.26,2.01 7.53,2 7.81,2 L16.19,2 C19.83,2 22,4.17 22,7.81 Z"/>
  <path fill="#292D32" d="M18.49,6.8 C18.17,6.55 17.59,6.31 16.67,6.56 L13.69,7.38 C12.8,7.61 12.22,8.36 12.22,9.3 L12.22,11.05 L12.22,13.21 C11.99,13.13 11.74,13.07 11.48,13.07 C10.24,13.07 9.24,14.08 9.24,15.31 C9.24,16.54 10.25,17.55 11.48,17.55 C12.7,17.55 13.7,16.56 13.72,15.35 C13.72,15.34 13.73,15.33 13.73,15.32 L13.73,11.62 L17.7,10.54 L17.7,12.22 C17.47,12.14 17.22,12.08 16.95,12.08 C15.71,12.08 14.71,13.09 14.71,14.32 C14.71,15.56 15.72,16.56 16.95,16.56 C18.17,16.56 19.17,15.57 19.19,14.35 C19.19,14.34 19.2,14.33 19.2,14.31 L19.2,9.55 L19.2,8.48 C19.18,7.72 18.95,7.16 18.49,6.8 Z M11.47,16.05 C11.06,16.05 10.73,15.72 10.73,15.31 C10.73,14.9 11.06,14.57 11.47,14.57 C11.88,14.57 12.21,14.9 12.21,15.31 C12.21,15.72 11.87,16.05 11.47,16.05 Z M16.93,15.05 C16.52,15.05 16.19,14.72 16.19,14.31 C16.19,13.9 16.52,13.57 16.93,13.57 C17.34,13.57 17.67,13.9 17.67,14.31 C17.67,14.72 17.34,15.05 16.93,15.05 Z"/>
</svg>

