<svg xmlns="http://www.w3.org/2000/svg" width="24" height="24" viewBox="0 0 24 24">
  <defs/>
  <path fill="#292D32" d="M21.719,6.279 L21.719,7.449 C21.719,8.429 21.329,9.269 20.639,9.759 C20.209,10.079 19.679,10.229 19.129,10.229 C18.789,10.229 18.449,10.179 18.099,10.059 L12.719,8.269 L12.719,17.999 C12.719,20.619 10.589,22.749 7.969,22.749 C5.349,22.749 3.219,20.619 3.219,17.999 C3.219,15.379 5.349,13.249 7.969,13.249 C9.229,13.249 10.369,13.749 11.219,14.549 L11.219,3.999 C11.219,3.029 11.619,2.189 12.309,1.689 C12.999,1.199 13.919,1.089 14.839,1.389 L19.259,2.869 C20.619,3.319 21.719,4.849 21.719,6.279 Z"/>
</svg>

