<svg xmlns="http://www.w3.org/2000/svg" width="24" height="24" viewBox="0 0 24 24">
  <defs/>
  <path fill="#292D32" d="M4.73,18.49 L4.73,15.57 Q4.73,12.98 7.32,12.98 Q9.91,12.98 9.91,15.57 L9.91,18.38 Q9.91,20.153 8.637,21.427 Q7.363,22.7 5.59,22.7 Q3.818,22.7 2.543,21.422 Q1.27,20.147 1.27,18.38 L1.27,12.22 Q1.182,7.703 4.31,4.503 Q7.441,1.3 11.97,1.3 Q16.478,1.3 19.635,4.486 Q22.77,7.649 22.77,12.11 L22.77,18.27 Q22.77,20.043 21.497,21.317 Q20.223,22.59 18.45,22.59 Q16.677,22.59 15.404,21.317 Q14.13,20.043 14.13,18.27 L14.13,15.46 Q14.13,12.87 16.72,12.87 Q17.769,12.87 18.523,13.594 Q19.31,14.349 19.31,15.46 L19.31,18.49 Q19.31,18.801 19.09,19.02 Q18.871,19.24 18.56,19.24 Q18.249,19.24 18.03,19.02 Q17.81,18.801 17.81,18.49 L17.81,15.46 Q17.81,14.37 16.72,14.37 Q15.63,14.37 15.63,15.46 L15.63,18.27 Q15.63,21.09 18.45,21.09 Q21.27,21.09 21.27,18.27 L21.27,12.11 Q21.27,8.266 18.57,5.542 Q15.853,2.8 11.97,2.8 Q8.073,2.8 5.383,5.552 Q2.694,8.303 2.77,12.22 L2.77,18.38 Q2.77,21.2 5.59,21.2 Q8.41,21.2 8.41,18.38 L8.41,15.57 Q8.41,14.48 7.32,14.48 Q6.849,14.48 6.536,14.806 Q6.23,15.125 6.23,15.57 L6.23,18.49 Q6.23,18.801 6.01,19.02 Q5.791,19.24 5.48,19.24 Q5.169,19.24 4.95,19.02 Q4.73,18.801 4.73,18.49 Z"/>
  <path fill="#292D32" d="M15.53,9.87 L14.813,9.87 L14.111,11.275 Q13.821,11.855 13.175,11.855 Q12.529,11.855 12.239,11.275 L10.792,8.388 L10.369,9.167 Q10,9.87 9.19,9.87 L8.46,9.87 Q8.149,9.87 7.93,9.65 Q7.71,9.431 7.71,9.12 Q7.71,8.809 7.93,8.59 Q8.149,8.37 8.46,8.37 L9.095,8.37 L9.886,6.912 Q10.184,6.342 10.828,6.358 Q11.447,6.373 11.74,6.934 L13.174,9.794 L13.526,9.091 Q13.906,8.37 14.72,8.37 L15.53,8.37 Q15.841,8.37 16.06,8.59 Q16.28,8.809 16.28,9.12 Q16.28,9.431 16.06,9.65 Q15.841,9.87 15.53,9.87 Z M11.206,7.624 Q11.21,7.616 11.214,7.608 L11.206,7.624 Z M9.053,8.448 Q9.052,8.45 9.051,8.453 L9.053,8.448 Z"/>
</svg>

