<svg xmlns="http://www.w3.org/2000/svg" width="24" height="24" viewBox="0 0 24 24">
  <defs/>
  <path fill="#292D32" d="M2.582,9.419 C2.502,9.419 2.412,9.409 2.332,9.379 C1.942,9.239 1.742,8.809 1.872,8.419 C2.542,6.539 3.702,4.889 5.252,3.639 C5.572,3.379 6.042,3.429 6.302,3.749 C6.562,4.069 6.512,4.539 6.192,4.809 C4.872,5.879 3.862,7.299 3.292,8.919 C3.182,9.229 2.892,9.419 2.582,9.419 Z"/>
  <path fill="#292D32" d="M2.58,16.08 C2.27,16.08 1.98,15.89 1.87,15.58 C1.46,14.42 1.25,13.21 1.25,12 C1.25,11.59 1.59,11.25 2,11.25 C2.41,11.25 2.75,11.59 2.75,12 C2.75,13.04 2.93,14.08 3.29,15.08 C3.43,15.47 3.22,15.9 2.83,16.04 C2.75,16.07 2.66,16.08 2.58,16.08 Z"/>
  <path fill="#292D32" d="M11.999,22.752 C10.939,22.752 9.889,22.591 8.869,22.282 C8.469,22.162 8.249,21.741 8.369,21.341 C8.489,20.942 8.909,20.721 9.309,20.841 C10.179,21.111 11.089,21.241 11.999,21.241 C17.099,21.241 21.249,17.091 21.249,11.992 C21.249,11.472 21.199,10.931 21.099,10.361 C21.029,9.952 21.299,9.562 21.709,9.492 C22.109,9.422 22.509,9.692 22.579,10.101 C22.699,10.761 22.759,11.382 22.759,12.002 C22.749,17.931 17.929,22.752 11.999,22.752 Z"/>
  <path fill="#292D32" d="M5.718,20.498 C5.548,20.498 5.388,20.448 5.248,20.328 C4.678,19.868 4.218,19.428 3.828,18.978 C3.558,18.668 3.598,18.188 3.908,17.918 C4.228,17.648 4.698,17.688 4.968,17.998 C5.298,18.378 5.698,18.758 6.188,19.158 C6.508,19.418 6.558,19.888 6.298,20.208 C6.158,20.398 5.938,20.498 5.718,20.498 Z"/>
  <path fill="#292D32" d="M20.238,7.09 C19.998,7.09 19.768,6.98 19.618,6.76 C17.898,4.25 15.038,2.75 11.998,2.75 C11.088,2.75 10.178,2.88 9.308,3.15 C8.918,3.27 8.498,3.05 8.368,2.65 C8.238,2.25 8.468,1.83 8.868,1.71 C9.888,1.41 10.938,1.25 11.998,1.25 C15.538,1.25 18.848,3 20.858,5.92 C21.088,6.26 21.008,6.73 20.668,6.96 C20.538,7.05 20.388,7.09 20.238,7.09 Z"/>
  <path fill="#292D32" d="M16.03,6.499 C15.7,6.249 15.1,5.999 14.14,6.259 L10.95,7.119 C10.03,7.379 9.43,8.159 9.43,9.119 L9.43,10.758 L9.43,13.338 C9.17,13.239 8.89,13.178 8.59,13.178 C7.3,13.178 6.25,14.229 6.25,15.518 C6.25,16.808 7.3,17.858 8.59,17.858 C9.87,17.858 10.9,16.828 10.92,15.559 C10.92,15.549 10.93,15.539 10.93,15.518 L10.93,11.329 L15.25,10.149 L15.25,12.278 C14.99,12.178 14.71,12.118 14.41,12.118 C13.12,12.118 12.07,13.168 12.07,14.459 C12.07,15.748 13.12,16.799 14.41,16.799 C15.7,16.799 16.75,15.748 16.75,14.459 L16.75,9.169 L16.75,8.249 C16.75,7.449 16.51,6.859 16.03,6.499 Z M8.59,16.358 C8.13,16.358 7.75,15.979 7.75,15.518 C7.75,15.059 8.13,14.678 8.59,14.678 C9.05,14.678 9.43,15.059 9.43,15.518 C9.43,15.979 9.05,16.358 8.59,16.358 Z M14.41,15.299 C13.95,15.299 13.57,14.918 13.57,14.459 C13.57,13.998 13.95,13.618 14.41,13.618 C14.87,13.618 15.25,13.998 15.25,14.459 C15.25,14.918 14.87,15.299 14.41,15.299 Z"/>
</svg>

