<svg xmlns="http://www.w3.org/2000/svg" width="24" height="24" viewBox="0 0 24 24">
  <defs/>
  <path fill="#292D32" d="M4.833,17.183 Q4.721,17.581 4.721,18 Q4.721,21.25 7.971,21.25 Q11.221,21.25 11.221,18 Q11.221,14.75 7.971,14.75 Q7.563,14.75 7.133,14.858 Q6.831,14.933 6.565,14.773 Q6.298,14.613 6.223,14.312 Q6.148,14.011 6.308,13.744 Q6.467,13.478 6.769,13.402 Q7.378,13.25 7.971,13.25 Q9.939,13.25 11.33,14.641 Q12.721,16.032 12.721,18 Q12.721,19.968 11.33,21.359 Q9.939,22.75 7.971,22.75 Q6.003,22.75 4.612,21.359 Q3.221,19.968 3.221,18 Q3.221,17.374 3.389,16.777 Q3.473,16.478 3.744,16.326 Q4.015,16.174 4.314,16.258 Q4.613,16.342 4.765,16.613 Q4.917,16.884 4.833,17.183 Z"/>
  <path fill="#292D32" d="M11.221,18 L11.221,4 Q11.221,3.689 11.44,3.47 Q11.66,3.25 11.971,3.25 Q12.281,3.25 12.501,3.47 Q12.721,3.689 12.721,4 L12.721,18 Q12.721,18.311 12.501,18.53 Q12.281,18.75 11.971,18.75 Q11.66,18.75 11.44,18.53 Q11.221,18.311 11.221,18 Z"/>
  <path fill="#292D32" d="M14.847,1.398 L19.267,2.868 Q21.73,3.697 21.73,6.28 L21.73,7.45 Q21.73,8.981 20.648,9.762 Q19.567,10.543 18.115,10.062 L13.694,8.592 Q11.23,7.763 11.231,5.18 L11.231,4 Q11.22,2.477 12.31,1.693 Q13.397,0.91 14.847,1.398 Z M14.37,2.821 Q13.649,2.577 13.186,2.91 Q12.726,3.242 12.731,4 L12.731,5.18 Q12.731,6.685 14.167,7.168 L18.586,8.638 Q19.31,8.878 19.77,8.546 Q20.23,8.213 20.23,7.45 L20.23,6.28 Q20.23,4.775 18.794,4.292 L14.374,2.822 Z"/>
</svg>

