<svg xmlns="http://www.w3.org/2000/svg" width="24" height="24" viewBox="0 0 24 24">
  <defs/>
  <path fill="#292D32" d="M20.889,5.179 L20.889,16.479 C20.889,18.459 19.279,20.069 17.299,20.069 C15.329,20.069 13.709,18.459 13.709,16.479 C13.709,14.509 15.329,12.899 17.299,12.899 C18.139,12.899 18.889,13.189 19.499,13.669 L19.499,7.719 L10.289,10.339 L10.289,18.409 C10.289,20.389 8.669,21.999 6.699,21.999 C4.719,21.999 3.109,20.389 3.109,18.409 C3.109,16.439 4.719,14.829 6.699,14.829 C7.529,14.829 8.279,15.119 8.889,15.589 L8.889,6.749 C8.889,5.279 9.779,4.139 11.189,3.759 L16.969,2.179 C18.139,1.859 19.129,1.969 19.829,2.509 C20.539,3.039 20.889,3.939 20.889,5.179 Z"/>
</svg>

