<svg xmlns="http://www.w3.org/2000/svg" width="24" height="24" viewBox="0 0 24 24">
  <defs/>
  <path fill="#292D32" d="M2,2.25 L5,2.25 Q5.311,2.25 5.53,2.47 Q5.75,2.689 5.75,3 Q5.75,3.311 5.53,3.53 Q5.311,3.75 5,3.75 L2,3.75 Q1.689,3.75 1.47,3.53 Q1.25,3.311 1.25,3 Q1.25,2.689 1.47,2.47 Q1.689,2.25 2,2.25 Z"/>
  <path fill="#292D32" d="M8,2.25 L22,2.25 Q22.311,2.25 22.53,2.47 Q22.75,2.689 22.75,3 Q22.75,3.311 22.53,3.53 Q22.311,3.75 22,3.75 L8,3.75 Q7.689,3.75 7.47,3.53 Q7.25,3.311 7.25,3 Q7.25,2.689 7.47,2.47 Q7.689,2.25 8,2.25 Z"/>
  <path fill="#292D32" d="M2,8.25 L11,8.25 Q11.311,8.25 11.53,8.47 Q11.75,8.689 11.75,9 Q11.75,9.311 11.53,9.53 Q11.311,9.75 11,9.75 L2,9.75 Q1.689,9.75 1.47,9.53 Q1.25,9.311 1.25,9 Q1.25,8.689 1.47,8.47 Q1.689,8.25 2,8.25 Z"/>
  <path fill="#292D32" d="M2,14.25 L8,14.25 Q8.311,14.25 8.53,14.47 Q8.75,14.689 8.75,15 Q8.75,15.311 8.53,15.53 Q8.311,15.75 8,15.75 L2,15.75 Q1.689,15.75 1.47,15.53 Q1.25,15.311 1.25,15 Q1.25,14.689 1.47,14.47 Q1.689,14.25 2,14.25 Z"/>
  <path fill="#292D32" d="M2,20.25 L6,20.25 Q6.311,20.25 6.53,20.47 Q6.75,20.689 6.75,21 Q6.75,21.311 6.53,21.53 Q6.311,21.75 6,21.75 L2,21.75 Q1.689,21.75 1.47,21.53 Q1.25,21.311 1.25,21 Q1.25,20.689 1.47,20.47 Q1.689,20.25 2,20.25 Z"/>
  <path fill="#292D32" d="M11.84,22.75 Q8.91,22.75 8.91,19.82 Q8.91,18.606 9.768,17.748 Q10.627,16.89 11.84,16.89 Q13.054,16.89 13.912,17.748 Q14.77,18.606 14.77,19.82 Q14.77,21.034 13.912,21.892 Q13.054,22.75 11.84,22.75 Z M11.84,21.25 Q12.432,21.25 12.851,20.831 Q13.27,20.412 13.27,19.82 Q13.27,19.228 12.851,18.809 Q12.432,18.39 11.84,18.39 Q11.248,18.39 10.829,18.809 Q10.41,19.228 10.41,19.82 Q10.41,21.25 11.84,21.25 Z"/>
  <path fill="#292D32" d="M21.25,18.37 L21.25,9.86 Q21.25,9.037 20.908,8.838 Q20.586,8.65 19.905,8.834 L15.557,10.023 Q14.769,10.243 14.769,11.05 L14.769,19.82 Q14.769,20.131 14.55,20.35 Q14.33,20.57 14.019,20.57 Q13.709,20.57 13.489,20.35 Q13.269,20.131 13.269,19.82 L13.269,11.05 Q13.27,9.103 15.162,8.577 L19.514,7.386 Q20.801,7.039 21.664,7.542 Q22.749,8.175 22.75,9.86 L22.75,18.37 Q22.749,18.681 22.53,18.9 Q22.31,19.12 21.999,19.12 Q21.689,19.12 21.469,18.9 Q21.249,18.681 21.25,18.37 Z"/>
  <path fill="#292D32" d="M19.821,21.3 Q18.607,21.3 17.749,20.442 Q16.891,19.584 16.891,18.37 Q16.891,15.44 19.821,15.44 Q22.751,15.44 22.751,18.37 Q22.751,19.584 21.892,20.442 Q21.034,21.3 19.821,21.3 Z M19.821,19.8 Q20.413,19.8 20.832,19.381 Q21.251,18.962 21.251,18.37 Q21.251,16.94 19.821,16.94 Q18.391,16.94 18.391,18.37 Q18.391,19.8 19.821,19.8 Z"/>
  <path fill="#292D32" d="M20.172,11.147 L21.802,10.697 Q22.101,10.614 22.371,10.768 Q22.641,10.921 22.724,11.22 Q22.807,11.52 22.653,11.79 Q22.5,12.06 22.201,12.143 L20.571,12.593 Q20.271,12.676 20.001,12.522 Q19.731,12.369 19.648,12.069 Q19.565,11.77 19.719,11.5 Q19.872,11.23 20.172,11.147 Z"/>
  <path fill="#292D32" d="M13.822,12.876 L16.172,12.236 Q16.472,12.155 16.742,12.309 Q17.012,12.463 17.093,12.763 Q17.175,13.063 17.021,13.332 Q16.866,13.602 16.567,13.684 L14.217,14.324 Q13.917,14.405 13.647,14.251 Q13.377,14.097 13.296,13.797 Q13.214,13.497 13.368,13.228 Q13.523,12.958 13.822,12.876 Z"/>
</svg>

