<svg xmlns="http://www.w3.org/2000/svg" width="24" height="24" viewBox="0 0 24 24">
  <defs/>
  <path fill="white" opacity="0.58" d="M24,0 L0,0 L0,24 L24,24 L24,0 Z"/>
  <path fill="#292D32" opacity="0.4" d="M12,22 C17.523,22 22,17.523 22,12 C22,6.477 17.523,2 12,2 C6.477,2 2,6.477 2,12 C2,17.523 6.477,22 12,22 Z"/>
  <path fill="#292D32" d="M14.5,10.75 L14.09,10.96 L14.08,10.96 L9.4,13.38 L10.47,10.04 L13.55,8.65 L14.5,10.75 Z"/>
  <path fill="#292D32" d="M13.551,8.65 L10.471,10.04 L12.001,5.25 L13.551,8.65 Z"/>
  <path fill="#292D32" d="M10.47,10.04 L9.4,13.38 L6,12.25 L8.18,11.16 L10,10.25 L10.47,10.04 Z"/>
  <path fill="#292D32" d="M18,12.25 L13.5,14.75 L13.19,14.65 L13.1,14.62 L9.4,13.38 L14.08,10.96 L14.09,10.96 L18,12.25 Z"/>
  <path fill="#292D32" d="M13.19,14.65 L13,15.25 L12,18.25 L9.5,13.57 L9.4,13.38 L13.1,14.62 L13.19,14.65 Z"/>
</svg>

