<svg xmlns="http://www.w3.org/2000/svg" width="24" height="24" viewBox="0 0 24 24">
  <defs/>
  <path d="M9.501,14 C9.331,14 9.151,13.94 9.011,13.82 C8.781,13.62 8.69,13.31 8.78,13.03 L11.28,5.03 C11.37,4.73 11.64,4.52 11.95,4.51 C12.271,4.49 12.55,4.67 12.681,4.95 L15.181,10.45 C15.351,10.82 15.191,11.25 14.831,11.43 L9.83,13.93 C9.73,13.97 9.611,14 9.501,14 Z M12.13,7.35 L10.741,11.79 L13.521,10.4 L12.13,7.35 Z"/>
  <path d="M13.5,15.5 C13.42,15.5 13.34,15.49 13.26,15.46 L5.76,12.96 C5.47,12.86 5.27,12.6 5.25,12.3 C5.23,12 5.39,11.71 5.66,11.58 L9.66,9.58 C10.03,9.4 10.48,9.55 10.67,9.92 C10.86,10.29 10.71,10.74 10.33,10.93 L7.95,12.12 L13.42,13.94 L16.14,12.43 L13.85,11.67 C13.46,11.54 13.24,11.12 13.37,10.72 C13.5,10.33 13.92,10.11 14.32,10.24 L18.24,11.53 C18.52,11.62 18.72,11.88 18.75,12.17 C18.78,12.47 18.63,12.75 18.37,12.9 L13.87,15.4 C13.75,15.47 13.63,15.5 13.5,15.5 Z"/>
  <path d="M12,19 C11.72,19 11.47,18.85 11.34,18.6 L8.84,13.92 C8.64,13.55 8.78,13.1 9.15,12.9 C9.52,12.7 9.97,12.84 10.17,13.21 L11.85,16.35 L12.3,15 C12.43,14.61 12.86,14.4 13.25,14.53 C13.64,14.66 13.85,15.09 13.72,15.48 L12.72,18.48 C12.63,18.76 12.37,18.96 12.07,18.99 C12.04,19 12.02,19 12,19 Z"/>
  <path d="M12,22.75 C6.07,22.75 1.25,17.93 1.25,12 C1.25,6.07 6.07,1.25 12,1.25 C17.93,1.25 22.75,6.07 22.75,12 C22.75,17.93 17.93,22.75 12,22.75 Z M12,2.75 C6.9,2.75 2.75,6.9 2.75,12 C2.75,17.1 6.9,21.25 12,21.25 C17.1,21.25 21.25,17.1 21.25,12 C21.25,6.9 17.1,2.75 12,2.75 Z"/>
</svg>

