<svg xmlns="http://www.w3.org/2000/svg" width="24" height="24" viewBox="0 0 24 24">
  <defs/>
  <path d="M11.284,5.026 Q11.384,4.706 11.69,4.567 Q11.972,4.439 12.263,4.548 Q12.554,4.657 12.683,4.94 L15.183,10.44 Q15.308,10.715 15.207,11 Q15.106,11.286 14.835,11.421 L9.835,13.921 Q9.565,14.056 9.276,13.966 Q8.98,13.873 8.836,13.598 Q8.691,13.323 8.784,13.026 Z M12.13,7.348 L10.742,11.791 L13.518,10.402 L12.13,7.348 Z"/>
  <path d="M14.314,10.248 L18.234,11.538 Q18.53,11.635 18.67,11.912 Q18.81,12.189 18.712,12.484 Q18.621,12.763 18.364,12.906 L13.864,15.406 Q13.579,15.564 13.268,15.463 L12.868,15.333 L5.763,12.961 Q5.468,12.863 5.329,12.585 Q5.19,12.307 5.289,12.013 Q5.387,11.718 5.665,11.579 L9.665,9.579 Q9.942,9.44 10.237,9.538 Q10.532,9.637 10.671,9.915 Q10.81,10.192 10.712,10.487 Q10.613,10.782 10.335,10.921 L7.954,12.112 L13.332,13.907 L13.421,13.936 L16.138,12.427 L13.846,11.672 Q13.55,11.575 13.41,11.298 Q13.27,11.021 13.368,10.726 Q13.465,10.43 13.742,10.29 Q14.019,10.15 14.314,10.248 Z"/>
  <path d="M13.712,15.487 L12.712,18.487 Q12.613,18.782 12.335,18.921 Q12.058,19.06 11.763,18.962 Q11.479,18.867 11.338,18.603 L8.838,13.923 Q8.692,13.649 8.782,13.352 Q8.873,13.055 9.147,12.909 Q9.421,12.762 9.718,12.852 Q10.015,12.943 10.162,13.217 L11.84,16.359 L12.288,15.013 Q12.387,14.718 12.665,14.579 Q12.942,14.44 13.237,14.539 Q13.532,14.637 13.671,14.915 Q13.81,15.193 13.712,15.487 Z"/>
  <path fill="#17191C" d="M4.6,6.449 Q2.75,8.922 2.75,12 Q2.75,15.829 5.46,18.54 Q8.171,21.25 12,21.25 Q15.829,21.25 18.54,18.54 Q21.25,15.829 21.25,12 Q21.25,8.171 18.54,5.46 Q15.829,2.75 12,2.75 Q10.031,2.75 8.276,3.535 Q7.993,3.661 7.702,3.551 Q7.412,3.44 7.285,3.156 Q7.159,2.873 7.269,2.582 Q7.38,2.292 7.664,2.165 Q9.711,1.25 12,1.25 Q16.451,1.25 19.6,4.4 Q22.75,7.549 22.75,12 Q22.75,16.451 19.6,19.6 Q16.451,22.75 12,22.75 Q7.549,22.75 4.4,19.6 Q1.25,16.451 1.25,12 Q1.25,8.422 3.4,5.551 Q3.586,5.302 3.893,5.258 Q4.201,5.213 4.449,5.4 Q4.698,5.586 4.742,5.893 Q4.787,6.201 4.6,6.449 Z"/>
</svg>

