<svg xmlns="http://www.w3.org/2000/svg" width="24" height="24" viewBox="0 0 24 24">
  <defs/>
  <path d="M15.071,17.879 L14.061,20.099 C13.801,20.659 13.421,21.149 12.911,21.489 C12.391,21.839 11.711,21.869 11.171,21.529 C9.531,20.489 5.951,17.819 3.781,13.189 C3.701,13.029 3.921,12.869 4.061,12.969 C4.631,13.369 5.241,13.649 5.911,13.809 C6.321,13.899 6.741,13.939 7.141,13.939 C9.001,13.939 10.681,12.989 11.801,12.169 C12.131,11.929 12.571,11.879 12.911,12.089 C14.031,12.789 14.781,13.629 15.151,14.579 C15.791,16.259 15.091,17.809 15.071,17.879 Z"/>
  <path d="M16.849,18.05 C16.769,18.14 16.609,18.04 16.649,17.93 C17.089,16.47 17.659,12.62 12.559,10.18 C12.249,10.03 12.019,9.75 11.979,9.41 C11.359,3.85 16.149,2.85 16.149,2.85 C16.539,2.77 16.949,2.77 17.329,2.88 C18.409,3.17 19.509,3.57 20.619,4.11 C21.569,4.57 22.119,5.57 21.979,6.62 C21.649,9.1 20.549,13.88 16.849,18.05 Z"/>
  <path d="M10.56,10.21 L10.59,10.411 C10.66,10.79 10.5,11.181 10.18,11.38 C8.03,12.73 4.51,13.751 2.36,7.84 C2.16,7.3 2.04,6.9 2,6.32 C1.95,5.56 2.38,4.69 3.06,4.37 C4.82,3.55 8.54,2.12 13.03,2.25 C13.23,2.26 13.3,2.52 13.14,2.63 C11.41,3.95 9.92,6.33 10.56,10.21 Z"/>
</svg>

