<svg xmlns="http://www.w3.org/2000/svg" width="24" height="24" viewBox="0 0 24 24">
  <defs/>
  <path d="M1.614,4.357 Q4.226,2.79 8.103,2.015 Q15.887,0.458 22.386,4.357 L22.75,4.576 L22.75,5 Q22.75,7.88 21.456,11.502 Q18.866,18.755 12.386,22.643 L12.033,22.855 L11.665,22.671 Q9.039,21.358 6.445,18.505 Q1.25,12.79 1.25,5 L1.25,4.576 Z M2.754,5.431 Q2.894,12.369 7.555,17.496 Q9.776,19.939 11.971,21.138 Q17.706,17.544 20.044,10.998 Q21.153,7.891 21.242,5.426 Q15.39,2.087 8.397,3.486 Q5.049,4.155 2.754,5.431 Z"/>
  <g opacity="0.4">
    <path d="M2.816,6.849 Q4.55,12.468 8.032,11.588 Q9.756,11.152 11.202,9.741 Q10.688,5.859 13.16,3.661 Q14.452,2.513 15.916,2.206 L15.916,2.206 L16.522,2.093 Q16.828,2.036 17.084,2.212 Q17.34,2.387 17.397,2.693 Q17.454,2.998 17.278,3.254 Q17.102,3.51 16.797,3.567 L16.223,3.674 L16.223,3.674 Q15.15,3.899 14.157,4.782 Q12.183,6.536 12.739,9.877 Q12.801,10.246 12.543,10.517 Q10.696,12.461 8.4,13.042 Q3.537,14.272 1.383,7.291 Q1.291,6.994 1.437,6.72 Q1.582,6.445 1.878,6.353 Q2.175,6.262 2.45,6.407 Q2.725,6.552 2.816,6.849 Z"/>
    <path d="M15.674,18.185 Q16.242,17.005 16.055,15.47 Q15.682,12.394 11.705,10.689 Q11.419,10.567 11.304,10.279 Q11.188,9.99 11.311,9.705 Q11.433,9.419 11.721,9.304 Q12.01,9.188 12.295,9.311 Q17.068,11.356 17.545,15.29 Q17.783,17.26 17.026,18.835 Q16.891,19.115 16.598,19.218 Q16.305,19.321 16.025,19.186 Q15.745,19.051 15.642,18.758 Q15.539,18.465 15.674,18.185 Z"/>
  </g>
</svg>

