<svg xmlns="http://www.w3.org/2000/svg" width="24" height="24" viewBox="0 0 24 24">
  <defs/>
  <path d="M12.03,22.85 L11.66,22.67 C11.56,22.62 1.24,17.32 1.24,5 L1.24,4.58 L1.6,4.36 C1.7,4.3 12.11,-1.8 22.37,4.36 L22.73,4.58 L22.73,5 C22.73,5.47 22.61,16.5 12.37,22.64 L12.03,22.85 Z M2.75,5.44 C2.96,15.28 10.27,20.13 11.98,21.13 C20.06,16.05 21.1,7.42 21.23,5.42 C12.92,0.7 4.59,4.49 2.75,5.44 Z"/>
  <path d="M7.1,13.21 C6.76,13.21 6.42,13.17 6.07,13.09 C3.99,12.6 2.42,10.65 1.38,7.29 C1.26,6.89 1.48,6.47 1.88,6.35 C2.28,6.23 2.7,6.45 2.82,6.85 C3.69,9.66 4.9,11.27 6.42,11.63 C8.23,12.05 10.29,10.58 11.2,9.73 C10.38,3.44 15.86,2.21 15.92,2.2 L16.52,2.08 C16.92,2 17.32,2.27 17.4,2.67 C17.48,3.07 17.21,3.47 16.81,3.55 L16.22,3.66 C16.06,3.7 11.88,4.67 12.74,9.86 C12.78,10.09 12.71,10.33 12.54,10.5 C12.43,10.64 9.95,13.21 7.1,13.21 Z"/>
  <path d="M16.35,19.26 C16.24,19.26 16.13,19.24 16.03,19.19 C15.66,19.01 15.5,18.57 15.68,18.19 C15.69,18.17 16.54,16.33 15.79,14.36 C15.21,12.84 13.84,11.61 11.71,10.69 C11.33,10.53 11.15,10.09 11.32,9.71 C11.49,9.33 11.92,9.15 12.31,9.32 C14.84,10.4 16.48,11.93 17.21,13.86 C18.18,16.44 17.09,18.75 17.04,18.85 C16.9,19.1 16.63,19.26 16.35,19.26 Z"/>
</svg>

