<svg xmlns="http://www.w3.org/2000/svg" width="24" height="24" viewBox="0 0 24 24">
  <defs/>
  <path fill="white" d="M24,0 L0,0 L0,24 L24,24 L24,0 Z"/>
  <path fill="#292D32" opacity="0.6" d="M16.36,18.49 C16.35,18.5 16.35,18.51 16.35,18.51 C15.16,19.77 13.73,20.96 12,22 C12,22 3.16,17.58 2.1,7.08 C5.21,17.15 12,10 12,10 C18.76,12.9 16.52,18.14 16.36,18.49 Z"/>
  <path fill="#292D32" opacity="0.4" d="M16.36,18.49 C16.52,18.14 18.76,12.9 12,10 C11,4 16.07,2.94 16.07,2.94 L16.66,2.82 L16.67,2.82 C18.41,3.23 20.2,3.92 22,5 C22,5 22,12.5 16.36,18.49 Z"/>
  <path fill="#292D32" d="M16.66,2.82 L16.07,2.94 C16.07,2.94 11,4 12,10 C12,10 5.21,17.15 2.1,7.08 L2.1,7.07 C2.04,6.41 2,5.71 2,5 C2,5 8.72,0.97 16.66,2.82 Z"/>
</svg>

