<svg xmlns="http://www.w3.org/2000/svg" width="24" height="24" viewBox="0 0 24 24">
  <defs/>
  <path d="M22,6.28 L22,17.71 C22,17.89 21.91,18.05 21.76,18.14 L18.87,19.87 C18.71,19.96 18.52,19.96 18.36,19.87 L8.75,14.28 C8.6,14.19 8.5,14.03 8.5,13.85 L8.5,12.52 C8.5,12.13 8.92,11.89 9.26,12.09 L17.75,17.18 C18.08,17.38 18.51,17.14 18.51,16.75 L18.51,8.42 C18.51,8.24 18.42,8.08 18.27,7.99 L14.19,5.54 C13.87,5.35 13.87,4.88 14.19,4.68 L16.76,3.13 C16.92,3.03 17.12,3.03 17.28,3.13 L21.78,5.83 C21.91,5.94 22,6.11 22,6.28 Z"/>
  <path d="M11.29,18.431 L7.26,20.851 C7.1,20.951 6.9,20.951 6.75,20.851 L2.25,18.151 C2.1,18.061 2.01,17.901 2.01,17.721 L2.01,6.291 C2.01,6.111 2.1,5.951 2.25,5.861 L6.75,3.161 C6.91,3.061 7.11,3.061 7.26,3.161 L16.76,8.861 C16.91,8.951 17,9.111 17,9.291 L17,14.121 C17,14.511 16.58,14.751 16.24,14.551 L7.75,9.461 C7.42,9.261 6.99,9.501 6.99,9.891 L6.99,14.721 C6.99,14.901 7.08,15.061 7.23,15.151 L11.27,17.581 C11.61,17.771 11.61,18.231 11.29,18.431 Z"/>
</svg>

