<svg xmlns="http://www.w3.org/2000/svg" width="24" height="24" viewBox="0 0 24 24">
  <defs/>
  <path d="M11.614,5.357 L16.614,2.357 Q17,2.125 17.386,2.357 L22.386,5.357 Q22.75,5.575 22.75,6 L22.75,18 Q22.75,18.425 22.386,18.643 L17.386,21.643 Q17,21.875 16.614,21.643 L6.614,15.643 Q6.25,15.425 6.25,15 L6.25,9 Q6.25,8.689 6.47,8.47 Q6.689,8.25 7,8.25 Q7.208,8.25 7.386,8.357 L16.25,13.675 L16.25,9.425 L11.614,6.643 Q11.348,6.483 11.272,6.182 Q11.197,5.881 11.357,5.614 Q11.453,5.453 11.614,5.357 Z M13.458,6 L17.386,8.357 Q17.75,8.575 17.75,9 L17.75,15 Q17.75,15.208 17.643,15.386 Q17.483,15.652 17.182,15.728 Q16.881,15.803 16.614,15.643 L7.75,10.325 L7.75,14.575 L17,20.125 L21.25,17.575 L21.25,6.425 L17,3.875 L13.458,6 Z"/>
  <path d="M2.75,12 L2.75,17.575 L6.979,20.113 L11.284,17.246 Q11.543,17.074 11.847,17.135 Q12.152,17.196 12.324,17.454 Q12.496,17.713 12.435,18.017 Q12.374,18.322 12.116,18.494 L7.416,21.624 Q7.021,21.887 6.614,21.643 L1.614,18.643 Q1.25,18.425 1.25,18 L1.25,12 Q1.25,11.689 1.47,11.47 Q1.689,11.25 2,11.25 Q2.311,11.25 2.53,11.47 Q2.75,11.689 2.75,12 Z"/>
  <path d="M11.614,6.643 L7,3.875 L2.75,6.425 L2.75,8.05 Q2.75,8.361 2.53,8.58 Q2.311,8.8 2,8.8 Q1.689,8.8 1.47,8.58 Q1.25,8.361 1.25,8.05 L1.25,6 Q1.25,5.575 1.614,5.357 L6.614,2.357 Q7,2.125 7.386,2.357 L12.386,5.357 Q12.652,5.517 12.728,5.818 Q12.803,6.119 12.643,6.386 Q12.483,6.652 12.182,6.728 Q11.881,6.803 11.614,6.643 Z"/>
</svg>

