<svg xmlns="http://www.w3.org/2000/svg" width="24" height="24" viewBox="0 0 24 24">
  <defs/>
  <path d="M17,21.75 C16.87,21.75 16.73,21.71 16.61,21.64 L6.61,15.64 C6.38,15.5 6.25,15.26 6.25,15 L6.25,9 C6.25,8.73 6.4,8.48 6.63,8.35 C6.87,8.22 7.15,8.22 7.39,8.36 L16.25,13.68 L16.25,9.43 L11.61,6.65 C11.38,6.51 11.25,6.27 11.25,6.01 C11.25,5.75 11.39,5.5 11.61,5.37 L16.61,2.37 C16.85,2.23 17.14,2.23 17.38,2.37 L22.38,5.37 C22.61,5.51 22.74,5.75 22.74,6.01 L22.74,18.01 C22.74,18.27 22.6,18.52 22.38,18.65 L17.38,21.65 C17.27,21.71 17.13,21.75 17,21.75 Z M7.75,14.58 L17,20.13 L21.25,17.58 L21.25,6.43 L17,3.88 L13.46,6.01 L17.39,8.37 C17.62,8.51 17.75,8.75 17.75,9.01 L17.75,15.01 C17.75,15.28 17.6,15.53 17.37,15.66 C17.14,15.79 16.85,15.79 16.61,15.65 L7.75,10.33 L7.75,14.58 Z"/>
  <path d="M7,21.75 C6.87,21.75 6.73,21.71 6.61,21.64 L1.61,18.64 C1.38,18.5 1.25,18.26 1.25,18 L1.25,6 C1.25,5.74 1.39,5.49 1.61,5.36 L6.61,2.36 C6.85,2.22 7.14,2.22 7.38,2.36 L12.38,5.36 C12.74,5.57 12.85,6.03 12.64,6.39 C12.43,6.75 11.97,6.86 11.61,6.65 L7,3.88 L2.75,6.43 L2.75,17.58 L6.98,20.12 L11.29,17.25 C11.63,17.02 12.1,17.11 12.33,17.46 C12.56,17.81 12.47,18.27 12.12,18.5 L7.42,21.63 C7.29,21.71 7.15,21.75 7,21.75 Z"/>
</svg>

