<svg xmlns="http://www.w3.org/2000/svg" width="24" height="24" viewBox="0 0 24 24">
  <defs/>
  <path fill="#292D32" opacity="0.4" d="M3.76,7.22 L3.76,16.79 C3.76,18.75 5.89,19.98 7.59,19 L11.74,16.61 L15.89,14.21 C17.59,13.23 17.59,10.78 15.89,9.8 L11.74,7.4 L7.59,5.01 C5.89,4.03 3.76,5.25 3.76,7.22 Z"/>
  <path fill="#292D32" d="M20.24,18.93 C19.83,18.93 19.49,18.59 19.49,18.18 L19.49,5.82 C19.49,5.41 19.83,5.07 20.24,5.07 C20.65,5.07 20.99,5.41 20.99,5.82 L20.99,18.18 C20.99,18.59 20.66,18.93 20.24,18.93 Z"/>
</svg>

