<svg xmlns="http://www.w3.org/2000/svg" width="24" height="24" viewBox="0 0 24 24">
  <defs/>
  <path fill="#292D32" d="M3.762,7.22 L3.762,16.79 C3.762,18.75 5.892,19.98 7.592,19 L11.742,16.61 L15.892,14.21 C17.592,13.23 17.592,10.78 15.892,9.8 L11.742,7.4 L7.592,5.01 C5.892,4.03 3.762,5.25 3.762,7.22 Z"/>
  <path fill="#292D32" d="M20.238,18.93 C19.828,18.93 19.488,18.59 19.488,18.18 L19.488,5.82 C19.488,5.41 19.828,5.07 20.238,5.07 C20.648,5.07 20.988,5.41 20.988,5.82 L20.988,18.18 C20.988,18.59 20.658,18.93 20.238,18.93 Z"/>
</svg>

