<svg xmlns="http://www.w3.org/2000/svg" width="24" height="24" viewBox="0 0 24 24">
  <defs/>
  <path fill="#292D32" d="M6.31,20.09 C5.74,20.09 5.18,19.94 4.66,19.64 C3.62,19.04 3.01,17.98 3.01,16.78 L3.01,7.21 C3.01,6.02 3.63,4.95 4.66,4.35 C5.7,3.75 6.93,3.75 7.96,4.35 L16.25,9.13 C17.28,9.73 17.9,10.8 17.9,11.99 C17.9,13.18 17.28,14.25 16.25,14.85 L7.96,19.63 C7.44,19.94 6.88,20.09 6.31,20.09 Z M6.31,5.41 C6,5.41 5.69,5.49 5.41,5.65 C4.85,5.98 4.51,6.56 4.51,7.21 L4.51,16.78 C4.51,17.43 4.85,18.01 5.41,18.34 C5.97,18.66 6.65,18.67 7.21,18.34 L15.5,13.56 C16.06,13.23 16.4,12.65 16.4,12 C16.4,11.35 16.06,10.77 15.5,10.44 L7.21,5.66 C6.93,5.5 6.62,5.41 6.31,5.41 Z"/>
  <path fill="#292D32" d="M20.24,18.93 C19.83,18.93 19.49,18.59 19.49,18.18 L19.49,5.82 C19.49,5.41 19.83,5.07 20.24,5.07 C20.65,5.07 20.99,5.41 20.99,5.82 L20.99,18.18 C20.99,18.59 20.66,18.93 20.24,18.93 Z"/>
</svg>

