<svg xmlns="http://www.w3.org/2000/svg" width="24" height="24" viewBox="0 0 24 24">
  <defs/>
  <path fill="#292D32" d="M11.356,8.04 L7.206,5.65 Q6.303,5.13 5.402,5.649 Q4.5,6.168 4.5,7.21 L4.5,16.78 Q4.5,17.817 5.402,18.338 Q6.305,18.859 7.205,18.34 L11.356,15.95 L15.505,13.551 Q16.405,13.032 16.405,11.995 Q16.405,10.958 15.505,10.44 Q15.236,10.285 15.156,9.985 Q15.075,9.685 15.23,9.415 Q15.385,9.146 15.685,9.066 Q15.985,8.985 16.255,9.14 Q17.905,10.092 17.905,11.995 Q17.905,13.898 16.255,14.849 L12.104,17.25 L7.955,19.64 Q6.305,20.591 4.652,19.637 Q3,18.683 3,16.78 L3,7.21 Q3,5.3 4.653,4.349 Q6.304,3.399 7.954,4.35 L12.104,6.74 Q12.374,6.895 12.454,7.195 Q12.535,7.495 12.38,7.764 Q12.225,8.034 11.925,8.114 Q11.625,8.195 11.356,8.04 Z"/>
  <path fill="#292D32" d="M19.49,18.18 L19.49,17 Q19.49,16.689 19.71,16.47 Q19.93,16.25 20.24,16.25 Q20.551,16.25 20.771,16.47 Q20.99,16.689 20.99,17 L20.99,18.18 Q20.99,18.491 20.771,18.71 Q20.551,18.93 20.24,18.93 Q19.93,18.93 19.71,18.71 Q19.49,18.491 19.49,18.18 Z"/>
  <path fill="#292D32" d="M19.49,14 L19.49,5.82 Q19.49,5.509 19.71,5.29 Q19.93,5.07 20.24,5.07 Q20.551,5.07 20.771,5.29 Q20.99,5.509 20.99,5.82 L20.99,14 Q20.99,14.311 20.771,14.53 Q20.551,14.75 20.24,14.75 Q19.93,14.75 19.71,14.53 Q19.49,14.311 19.49,14 Z"/>
</svg>

