<svg xmlns="http://www.w3.org/2000/svg" width="24" height="24" viewBox="0 0 24 24">
  <defs/>
  <path fill="#292D32" d="M3.01,7.22 Q3.01,5.31 4.663,4.359 Q6.314,3.409 7.964,4.36 L12.115,6.751 L16.265,9.15 Q17.915,10.102 17.915,12.005 Q17.915,13.908 16.265,14.859 L12.114,17.26 L7.965,19.65 Q6.315,20.601 4.662,19.647 Q3.01,18.693 3.01,16.79 Z M4.51,7.22 L4.51,16.79 Q4.51,17.827 5.412,18.348 Q6.315,18.869 7.215,18.35 L11.366,15.96 L15.515,13.561 Q16.415,13.042 16.415,12.005 Q16.415,10.968 15.515,10.45 L11.365,8.049 L7.216,5.66 Q6.313,5.14 5.412,5.659 Q4.51,6.178 4.51,7.22 Z"/>
  <path fill="#292D32" d="M19.49,18.18 L19.49,5.82 Q19.49,5.509 19.71,5.29 Q19.929,5.07 20.24,5.07 Q20.551,5.07 20.77,5.29 Q20.99,5.509 20.99,5.82 L20.99,18.18 Q20.99,18.491 20.77,18.71 Q20.551,18.93 20.24,18.93 Q19.929,18.93 19.71,18.71 Q19.49,18.491 19.49,18.18 Z"/>
</svg>

