<svg xmlns="http://www.w3.org/2000/svg" width="24" height="24" viewBox="0 0 24 24">
  <defs/>
  <path fill="#292D32" d="M5.97,1 L3.03,1 C1.76,1 1,1.76 1,3.03 L1,5.97 C1,7.24 1.76,8 3.03,8 L5.97,8 C7.24,8 8,7.24 8,5.97 L8,3.03 C8,1.76 7.24,1 5.97,1 Z M6.47,5.56 C6.72,5.81 6.72,6.22 6.47,6.47 C6.34,6.59 6.17,6.65 6.01,6.65 C5.85,6.65 5.69,6.59 5.56,6.47 L4.49,5.41 L3.45,6.47 C3.32,6.59 3.16,6.65 2.98,6.65 C2.82,6.65 2.66,6.59 2.53,6.47 C2.28,6.22 2.28,5.81 2.53,5.56 L3.6,4.5 L2.54,3.45 C2.29,3.2 2.29,2.79 2.54,2.54 C2.79,2.29 3.2,2.29 3.45,2.54 L4.49,3.6 L5.55,2.54 C5.8,2.29 6.21,2.29 6.46,2.54 C6.71,2.79 6.71,3.2 6.46,3.45 L5.41,4.5 L6.47,5.56 Z"/>
  <path fill="#292D32" opacity="0.4" d="M16.63,2 L7.78,2 C7.92,2.29 8,2.63 8,3.03 L8,5.97 C8,7.24 7.24,8 5.97,8 L3.03,8 C2.84,8 2.67,7.98 2.5,7.94 L2.5,17.13 C2.5,19.82 4.68,22 7.37,22 L15.34,22 C15.51,22 15.68,21.94 15.81,21.8 C17.29,20.31 19.87,17.71 21.32,16.25 C21.45,16.12 21.5,15.97 21.5,15.82 L21.5,6.87 C21.5,4.18 19.32,2 16.63,2 Z"/>
  <path fill="#292D32" d="M21.5,15.82 C21.5,15.97 21.45,16.12 21.32,16.25 C19.869,17.71 17.29,20.31 15.809,21.8 C15.68,21.94 15.509,22 15.339,22 C15.009,22 14.69,21.74 14.69,21.36 L14.69,17.86 C14.69,16.4 15.93,15.19 17.45,15.19 C18.399,15.18 19.72,15.18 20.849,15.18 C21.239,15.18 21.5,15.49 21.5,15.82 Z"/>
  <path fill="#292D32" d="M14.779,12.71 L7.359,12.71 C6.939,12.71 6.609,12.37 6.609,11.96 C6.609,11.55 6.949,11.21 7.359,11.21 L14.779,11.21 C15.199,11.21 15.529,11.55 15.529,11.96 C15.529,12.37 15.199,12.71 14.779,12.71 Z"/>
  <path fill="#292D32" d="M11.999,16.42 L7.359,16.42 C6.939,16.42 6.609,16.08 6.609,15.67 C6.609,15.25 6.949,14.92 7.359,14.92 L11.999,14.92 C12.419,14.92 12.749,15.26 12.749,15.67 C12.749,16.08 12.419,16.42 11.999,16.42 Z"/>
</svg>

