<svg xmlns="http://www.w3.org/2000/svg" width="24" height="24" viewBox="0 0 24 24">
  <defs/>
  <path fill="#292D32" opacity="0.4" d="M7.37,22 L16.62,22 C19.31,22 21.49,19.82 21.49,17.13 L21.49,8.37 C21.49,5.68 19.31,3.5 16.62,3.5 L7.37,3.5 C4.68,3.5 2.5,5.68 2.5,8.37 L2.5,17.12 C2.5,19.82 4.68,22 7.37,22 Z"/>
  <path fill="#292D32" d="M8.289,6.29 C7.869,6.29 7.539,5.95 7.539,5.54 L7.539,2.75 C7.539,2.34 7.869,2 8.289,2 C8.709,2 9.039,2.34 9.039,2.75 L9.039,5.53 C9.039,5.95 8.709,6.29 8.289,6.29 Z"/>
  <path fill="#292D32" d="M15.711,6.29 C15.291,6.29 14.961,5.95 14.961,5.54 L14.961,2.75 C14.961,2.33 15.301,2 15.711,2 C16.131,2 16.461,2.34 16.461,2.75 L16.461,5.53 C16.461,5.95 16.131,6.29 15.711,6.29 Z"/>
  <path fill="#292D32" d="M14.779,13.71 L7.359,13.71 C6.939,13.71 6.609,13.37 6.609,12.96 C6.609,12.55 6.949,12.21 7.359,12.21 L14.779,12.21 C15.199,12.21 15.529,12.55 15.529,12.96 C15.529,13.37 15.199,13.71 14.779,13.71 Z"/>
  <path fill="#292D32" d="M11.999,17.42 L7.359,17.42 C6.939,17.42 6.609,17.08 6.609,16.67 C6.609,16.25 6.949,15.92 7.359,15.92 L11.999,15.92 C12.419,15.92 12.749,16.26 12.749,16.67 C12.749,17.08 12.419,17.42 11.999,17.42 Z"/>
</svg>

