<svg xmlns="http://www.w3.org/2000/svg" width="24" height="24" viewBox="0 0 24 24">
  <defs/>
  <path fill="#292D32" d="M11,22.75 L9,22.75 C3.57,22.75 1.25,20.43 1.25,15 L1.25,9 C1.25,3.57 3.57,1.25 9,1.25 L15,1.25 C20.43,1.25 22.75,3.57 22.75,9 L22.75,10 C22.75,10.41 22.41,10.75 22,10.75 C21.59,10.75 21.25,10.41 21.25,10 L21.25,9 C21.25,4.39 19.61,2.75 15,2.75 L9,2.75 C4.39,2.75 2.75,4.39 2.75,9 L2.75,15 C2.75,19.61 4.39,21.25 9,21.25 L11,21.25 C11.41,21.25 11.75,21.59 11.75,22 C11.75,22.41 11.41,22.75 11,22.75 Z"/>
  <path fill="#292D32" d="M15.51,22.75 C14,22.75 12.76,21.52 12.76,20 C12.76,18.48 13.99,17.25 15.51,17.25 C17.03,17.25 18.26,18.48 18.26,20 C18.26,21.52 17.02,22.75 15.51,22.75 Z M15.51,18.76 C14.82,18.76 14.26,19.32 14.26,20.01 C14.26,20.7 14.82,21.26 15.51,21.26 C16.2,21.26 16.76,20.7 16.76,20.01 C16.76,19.32 16.2,18.76 15.51,18.76 Z"/>
  <path fill="#292D32" d="M17.51,20.75 C17.1,20.75 16.76,20.41 16.76,20 L16.76,13.01 C16.76,12.6 17.1,12.26 17.51,12.26 C17.92,12.26 18.26,12.6 18.26,13.01 L18.26,20 C18.26,20.42 17.92,20.75 17.51,20.75 Z"/>
  <path fill="#292D32" d="M21.08,16.5 C20.87,16.5 20.66,16.47 20.45,16.39 L18.24,15.66 C17.39,15.38 16.76,14.49 16.76,13.6 L16.76,13.01 C16.76,12.4 17.01,11.87 17.46,11.55 C17.91,11.23 18.49,11.16 19.06,11.35 L21.27,12.09 C22.12,12.37 22.75,13.26 22.75,14.15 L22.75,14.74 C22.75,15.35 22.5,15.88 22.05,16.2 C21.77,16.4 21.43,16.5 21.08,16.5 Z M18.43,12.75 C18.39,12.75 18.35,12.76 18.33,12.77 C18.29,12.8 18.26,12.87 18.26,13.01 L18.26,13.6 C18.26,13.84 18.49,14.16 18.72,14.24 L20.93,14.97 C21.06,15.01 21.15,15 21.18,14.98 C21.22,14.95 21.26,14.88 21.26,14.74 L21.26,14.15 C21.26,13.91 21.03,13.59 20.8,13.51 L18.59,12.78 C18.52,12.76 18.47,12.75 18.43,12.75 Z"/>
</svg>

