<svg xmlns="http://www.w3.org/2000/svg" width="24" height="24" viewBox="0 0 24 24">
  <defs/>
  <path fill="#292D32" d="M8.75,2 L8.75,5 Q8.75,5.311 8.53,5.53 Q8.311,5.75 8,5.75 Q7.689,5.75 7.47,5.53 Q7.25,5.311 7.25,5 L7.25,2 Q7.25,1.689 7.47,1.47 Q7.689,1.25 8,1.25 Q8.311,1.25 8.53,1.47 Q8.75,1.689 8.75,2 Z"/>
  <path fill="#292D32" d="M16.75,2 L16.75,5 Q16.75,5.311 16.53,5.53 Q16.311,5.75 16,5.75 Q15.689,5.75 15.47,5.53 Q15.25,5.311 15.25,5 L15.25,2 Q15.25,1.689 15.47,1.47 Q15.689,1.25 16,1.25 Q16.311,1.25 16.53,1.47 Q16.75,1.689 16.75,2 Z"/>
  <path fill="#292D32" d="M7,12.25 L15,12.25 Q15.311,12.25 15.53,12.47 Q15.75,12.689 15.75,13 Q15.75,13.311 15.53,13.53 Q15.311,13.75 15,13.75 L7,13.75 Q6.689,13.75 6.47,13.53 Q6.25,13.311 6.25,13 Q6.25,12.689 6.47,12.47 Q6.689,12.25 7,12.25 Z"/>
  <path fill="#292D32" d="M7,16.25 L12,16.25 Q12.311,16.25 12.53,16.47 Q12.75,16.689 12.75,17 Q12.75,17.311 12.53,17.53 Q12.311,17.75 12,17.75 L7,17.75 Q6.689,17.75 6.47,17.53 Q6.25,17.311 6.25,17 Q6.25,16.689 6.47,16.47 Q6.689,16.25 7,16.25 Z"/>
  <path fill="#292D32" d="M2.25,9.65 Q2.25,3.077 7.957,2.751 Q7.979,2.75 8,2.75 L16,2.75 Q16.02,2.75 16.04,2.751 Q21.75,3.06 21.75,9.65 L21.75,15.83 Q21.75,19.416 20.447,20.951 Q18.909,22.76 15,22.76 L9,22.76 Q2.25,22.76 2.25,15.83 L2.25,13.81 Q2.25,13.499 2.47,13.28 Q2.689,13.06 3,13.06 Q3.311,13.06 3.53,13.28 Q3.75,13.499 3.75,13.81 L3.75,15.83 Q3.75,18.865 4.697,19.979 Q5.784,21.26 9,21.26 L15,21.26 Q18.216,21.26 19.303,19.979 Q20.25,18.865 20.25,15.83 L20.25,9.65 Q20.25,4.493 15.979,4.25 L8.022,4.25 Q3.75,4.506 3.75,9.65 Q3.75,9.961 3.53,10.18 Q3.311,10.4 3,10.4 Q2.689,10.4 2.47,10.18 Q2.25,9.961 2.25,9.65 Z"/>
</svg>

