<svg xmlns="http://www.w3.org/2000/svg" width="24" height="24" viewBox="0 0 24 24">
  <defs/>
  <path fill="#292D32" d="M5.97,1 L3.03,1 C1.76,1 1,1.76 1,3.03 L1,5.97 C1,7.24 1.76,8 3.03,8 L5.97,8 C7.24,8 8,7.24 8,5.97 L8,3.03 C8,1.76 7.24,1 5.97,1 Z M6.47,5.56 C6.72,5.81 6.72,6.22 6.47,6.47 C6.34,6.59 6.17,6.65 6.01,6.65 C5.85,6.65 5.69,6.59 5.56,6.47 L4.49,5.41 L3.45,6.47 C3.32,6.59 3.16,6.65 2.98,6.65 C2.82,6.65 2.66,6.59 2.53,6.47 C2.28,6.22 2.28,5.81 2.53,5.56 L3.6,4.5 L2.54,3.45 C2.29,3.2 2.29,2.79 2.54,2.54 C2.79,2.29 3.2,2.29 3.45,2.54 L4.49,3.6 L5.55,2.54 C5.8,2.29 6.21,2.29 6.46,2.54 C6.71,2.79 6.71,3.2 6.46,3.45 L5.41,4.5 L6.47,5.56 Z"/>
  <path fill="#292D32" d="M21.5,15.82 C21.5,15.97 21.45,16.12 21.32,16.25 C19.869,17.71 17.29,20.31 15.809,21.8 C15.68,21.94 15.509,22 15.339,22 C15.009,22 14.69,21.74 14.69,21.36 L14.69,17.86 C14.69,16.4 15.93,15.19 17.45,15.19 C18.399,15.18 19.72,15.18 20.849,15.18 C21.239,15.18 21.5,15.49 21.5,15.82 Z"/>
  <path fill="#292D32" d="M21.5,15.82 C21.5,15.97 21.45,16.12 21.32,16.25 C19.869,17.71 17.29,20.31 15.809,21.8 C15.68,21.94 15.509,22 15.339,22 C15.009,22 14.69,21.74 14.69,21.36 L14.69,17.86 C14.69,16.4 15.93,15.19 17.45,15.19 C18.399,15.18 19.72,15.18 20.849,15.18 C21.239,15.18 21.5,15.49 21.5,15.82 Z"/>
  <path fill="#292D32" d="M16.63,2 L10.5,2 C9.95,2 9.5,2.45 9.5,3 L9.5,6.5 C9.5,8.16 8.16,9.5 6.5,9.5 L3.5,9.5 C2.95,9.5 2.5,9.95 2.5,10.5 L2.5,17.13 C2.5,19.82 4.68,22 7.37,22 L12.19,22 C12.74,22 13.19,21.55 13.19,21 L13.19,17.86 C13.19,15.56 15.1,13.69 17.45,13.69 C17.98,13.68 19.27,13.68 20.5,13.68 C21.05,13.68 21.5,13.24 21.5,12.68 L21.5,6.87 C21.5,4.18 19.32,2 16.63,2 Z M8.72,17.01 L6.08,17.01 C5.67,17.01 5.33,16.67 5.33,16.26 C5.33,15.84 5.67,15.5 6.08,15.5 L8.72,15.5 C9.15,15.5 9.47,15.84 9.47,16.26 C9.47,16.67 9.15,17.01 8.72,17.01 Z M11.51,13.3 L6.08,13.3 C5.67,13.3 5.33,12.96 5.33,12.55 C5.33,12.13 5.67,11.79 6.08,11.79 L11.51,11.79 C11.92,11.79 12.27,12.13 12.27,12.55 C12.27,12.96 11.92,13.3 11.51,13.3 Z"/>
</svg>

