<svg xmlns="http://www.w3.org/2000/svg" width="24" height="24" viewBox="0 0 24 24">
  <defs/>
  <path fill="#292D32" d="M8.75,2 L8.75,5 Q8.75,5.311 8.53,5.53 Q8.311,5.75 8,5.75 Q7.689,5.75 7.47,5.53 Q7.25,5.311 7.25,5 L7.25,2 Q7.25,1.689 7.47,1.47 Q7.689,1.25 8,1.25 Q8.311,1.25 8.53,1.47 Q8.75,1.689 8.75,2 Z"/>
  <path fill="#292D32" d="M16.75,2 L16.75,5 Q16.75,5.311 16.53,5.53 Q16.311,5.75 16,5.75 Q15.689,5.75 15.47,5.53 Q15.25,5.311 15.25,5 L15.25,2 Q15.25,1.689 15.47,1.47 Q15.689,1.25 16,1.25 Q16.311,1.25 16.53,1.47 Q16.75,1.689 16.75,2 Z"/>
  <path fill="#292D32" d="M21.75,8.5 L21.75,13.63 Q21.75,13.941 21.53,14.16 Q21.311,14.38 21,14.38 Q20.737,14.38 20.532,14.216 Q19.321,13.25 17.75,13.25 Q16.166,13.25 14.942,14.242 Q13.25,15.571 13.25,17.75 Q13.25,19.003 13.899,20.057 Q14.391,20.868 15.118,21.391 Q15.37,21.573 15.42,21.879 Q15.47,22.186 15.289,22.438 Q15.064,22.75 14.68,22.75 L8,22.75 Q2.25,22.75 2.25,17 L2.25,8.5 Q2.25,2.75 8,2.75 L16,2.75 Q21.75,2.75 21.75,8.5 Z M20.25,8.5 Q20.25,4.25 16,4.25 L8,4.25 Q3.75,4.25 3.75,8.5 L3.75,17 Q3.75,21.25 8,21.25 L12.89,21.25 Q12.749,21.054 12.621,20.843 Q11.75,19.427 11.75,17.75 Q11.75,14.842 13.998,13.078 Q15.634,11.75 17.75,11.75 Q19.098,11.75 20.25,12.285 Z"/>
  <path fill="#292D32" d="M7,10.25 L13,10.25 Q13.311,10.25 13.53,10.47 Q13.75,10.689 13.75,11 Q13.75,11.311 13.53,11.53 Q13.311,11.75 13,11.75 L7,11.75 Q6.689,11.75 6.47,11.53 Q6.25,11.311 6.25,11 Q6.25,10.689 6.47,10.47 Q6.689,10.25 7,10.25 Z"/>
  <path fill="#292D32" d="M7,15.25 L9.62,15.25 Q9.931,15.25 10.15,15.47 Q10.37,15.689 10.37,16 Q10.37,16.311 10.15,16.53 Q9.931,16.75 9.62,16.75 L7,16.75 Q6.689,16.75 6.47,16.53 Q6.25,16.311 6.25,16 Q6.25,15.689 6.47,15.47 Q6.689,15.25 7,15.25 Z"/>
  <path fill="#292D32" d="M23.75,17.75 Q23.75,19.423 22.883,20.836 Q22.395,21.67 21.689,22.259 Q20.009,23.75 17.75,23.75 Q15.8,23.75 14.237,22.605 Q13.267,21.907 12.619,20.839 Q11.75,19.427 11.75,17.75 Q11.75,14.842 14.007,13.07 Q15.634,11.75 17.75,11.75 Q19.846,11.75 21.468,13.044 Q23.75,14.84 23.75,17.75 Z M22.25,17.75 Q22.25,15.568 20.532,14.216 Q19.321,13.25 17.75,13.25 Q16.166,13.25 14.933,14.25 Q13.25,15.571 13.25,17.75 Q13.25,19.003 13.901,20.061 Q14.391,20.868 15.123,21.395 Q16.29,22.25 17.75,22.25 Q19.445,22.25 20.701,21.13 Q20.711,21.121 20.721,21.113 Q21.232,20.689 21.592,20.072 Q21.597,20.064 21.601,20.057 Q22.25,19.003 22.25,17.75 Z"/>
  <path fill="#292D32" d="M17,20.25 Q17,19.526 16.487,19.013 Q15.974,18.5 15.25,18.5 Q14.939,18.5 14.72,18.28 Q14.5,18.061 14.5,17.75 Q14.5,17.439 14.72,17.22 Q14.939,17 15.25,17 Q17,17 17,15.25 Q17,14.939 17.22,14.72 Q17.439,14.5 17.75,14.5 Q18.061,14.5 18.28,14.72 Q18.5,14.939 18.5,15.25 Q18.5,17 20.25,17 Q20.561,17 20.78,17.22 Q21,17.439 21,17.75 Q21,18.061 20.78,18.28 Q20.561,18.5 20.25,18.5 Q19.526,18.5 19.013,19.013 Q18.5,19.526 18.5,20.25 Q18.5,20.561 18.28,20.78 Q18.061,21 17.75,21 Q17.439,21 17.22,20.78 Q17,20.561 17,20.25 Z M17.75,17.878 Q17.878,17.739 18.028,17.622 Q17.99,17.586 17.952,17.548 Q17.845,17.441 17.75,17.329 Q17.655,17.441 17.548,17.548 Q17.51,17.586 17.472,17.622 Q17.622,17.739 17.75,17.878 Z"/>
</svg>

