<svg xmlns="http://www.w3.org/2000/svg" width="24" height="24" viewBox="0 0 24 24">
  <defs/>
  <path fill="#292D32" d="M16,22.75 L8,22.75 C4.98,22.75 3.25,21.02 3.25,18 L3.25,8.25 C3.25,5.1 4.85,3.5 8,3.5 C8.41,3.5 8.75,3.84 8.75,4.25 C8.75,4.65 8.91,5.03 9.19,5.31 C9.47,5.59 9.85,5.75 10.25,5.75 L13.75,5.75 C14.58,5.75 15.25,5.08 15.25,4.25 C15.25,3.84 15.59,3.5 16,3.5 C19.15,3.5 20.75,5.1 20.75,8.25 L20.75,18 C20.75,21.02 19.02,22.75 16,22.75 Z M7.35,5.02 C5.77,5.15 4.75,5.86 4.75,8.25 L4.75,18 C4.75,20.22 5.78,21.25 8,21.25 L16,21.25 C18.22,21.25 19.25,20.22 19.25,18 L19.25,8.25 C19.25,5.86 18.23,5.16 16.65,5.02 C16.31,6.3 15.14,7.25 13.75,7.25 L10.25,7.25 C9.45,7.25 8.7,6.94 8.13,6.37 C7.75,5.99 7.49,5.53 7.35,5.02 Z"/>
  <path fill="#292D32" d="M13.75,7.25 L10.25,7.25 C9.45,7.25 8.7,6.94 8.13,6.37 C7.56,5.8 7.25,5.05 7.25,4.25 C7.25,2.6 8.6,1.25 10.25,1.25 L13.75,1.25 C14.55,1.25 15.3,1.56 15.87,2.13 C16.44,2.7 16.75,3.45 16.75,4.25 C16.75,5.9 15.4,7.25 13.75,7.25 Z M10.25,2.75 C9.42,2.75 8.75,3.42 8.75,4.25 C8.75,4.65 8.91,5.03 9.19,5.31 C9.47,5.59 9.85,5.75 10.25,5.75 L13.75,5.75 C14.58,5.75 15.25,5.08 15.25,4.25 C15.25,3.85 15.09,3.47 14.81,3.19 C14.53,2.91 14.15,2.75 13.75,2.75 L10.25,2.75 Z"/>
  <path fill="#292D32" d="M12,13.75 L8,13.75 C7.59,13.75 7.25,13.41 7.25,13 C7.25,12.59 7.59,12.25 8,12.25 L12,12.25 C12.41,12.25 12.75,12.59 12.75,13 C12.75,13.41 12.41,13.75 12,13.75 Z"/>
  <path fill="#292D32" d="M16,17.75 L8,17.75 C7.59,17.75 7.25,17.41 7.25,17 C7.25,16.59 7.59,16.25 8,16.25 L16,16.25 C16.41,16.25 16.75,16.59 16.75,17 C16.75,17.41 16.41,17.75 16,17.75 Z"/>
</svg>

