<svg xmlns="http://www.w3.org/2000/svg" width="24" height="24" viewBox="0 0 24 24">
  <defs/>
  <path fill="#292D32" d="M22.39,10.611 L21.41,14.791 Q20.053,20.624 14.988,20.137 Q14.191,20.073 13.264,19.849 L11.586,19.45 Q5.01,17.888 6.55,11.319 L7.53,7.129 Q7.863,5.712 8.327,4.769 Q10.243,0.806 15.673,2.09 L17.341,2.48 Q20.785,3.285 21.991,5.23 Q23.197,7.172 22.39,10.611 Z M20.93,10.269 Q21.594,7.435 20.717,6.02 Q19.838,4.604 17,3.94 L15.327,3.55 Q11.07,2.543 9.673,5.431 Q9.284,6.221 8.99,7.471 L8.01,11.661 Q6.811,16.774 11.934,17.99 L13.616,18.391 Q14.429,18.587 15.132,18.643 Q18.89,19.005 19.95,14.449 Z"/>
  <path fill="#292D32" d="M15.481,20.011 Q14.501,20.674 12.943,21.183 L11.364,21.702 Q5.101,23.722 3.067,17.462 L1.786,13.511 Q-0.237,7.234 6.02,5.216 L7.596,4.698 Q8.339,4.462 8.861,4.363 Q9.166,4.305 9.422,4.48 Q9.679,4.655 9.737,4.961 Q9.783,5.206 9.673,5.431 Q9.284,6.221 8.99,7.472 L8.01,11.661 Q6.811,16.774 11.933,17.99 L13.614,18.39 Q14.429,18.587 15.12,18.642 Q15.429,18.667 15.631,18.904 Q15.832,19.14 15.808,19.45 Q15.779,19.809 15.481,20.011 Z M12.644,19.701 L11.587,19.45 Q5.01,17.888 6.55,11.319 L7.53,7.128 Q7.643,6.646 7.772,6.219 L6.48,6.644 Q1.65,8.201 3.213,13.049 L4.493,16.998 Q6.065,21.835 10.896,20.278 L12.477,19.757 Q12.562,19.729 12.644,19.701 Z"/>
  <path fill="#292D32" d="M12.824,7.803 L17.674,9.033 Q17.975,9.109 18.134,9.376 Q18.293,9.643 18.217,9.944 Q18.141,10.246 17.874,10.404 Q17.607,10.563 17.306,10.487 L12.456,9.257 Q12.155,9.181 11.996,8.914 Q11.837,8.647 11.913,8.346 Q11.989,8.045 12.256,7.886 Q12.523,7.727 12.824,7.803 Z"/>
  <path fill="#292D32" d="M11.845,11.673 L14.745,12.413 Q15.046,12.49 15.205,12.757 Q15.364,13.024 15.287,13.325 Q15.21,13.626 14.943,13.785 Q14.676,13.944 14.375,13.867 L11.475,13.127 Q11.174,13.05 11.015,12.783 Q10.856,12.516 10.933,12.215 Q11.01,11.914 11.277,11.755 Q11.544,11.596 11.845,11.673 Z"/>
</svg>

