<svg xmlns="http://www.w3.org/2000/svg" width="24" height="24" viewBox="0 0 24 24">
  <defs/>
  <path fill="#292D32" d="M8,5.75 C7.59,5.75 7.25,5.41 7.25,5 L7.25,2 C7.25,1.59 7.59,1.25 8,1.25 C8.41,1.25 8.75,1.59 8.75,2 L8.75,5 C8.75,5.41 8.41,5.75 8,5.75 Z"/>
  <path fill="#292D32" d="M16,5.75 C15.59,5.75 15.25,5.41 15.25,5 L15.25,2 C15.25,1.59 15.59,1.25 16,1.25 C16.41,1.25 16.75,1.59 16.75,2 L16.75,5 C16.75,5.41 16.41,5.75 16,5.75 Z"/>
  <path fill="#292D32" opacity="0.4" d="M21,8.5 L21,17 C21,20 19.5,22 16,22 L8,22 C4.5,22 3,20 3,17 L3,8.5 C3,5.5 4.5,3.5 8,3.5 L16,3.5 C19.5,3.5 21,5.5 21,8.5 Z"/>
  <path fill="#292D32" d="M16,11.75 L8,11.75 C7.59,11.75 7.25,11.41 7.25,11 C7.25,10.59 7.59,10.25 8,10.25 L16,10.25 C16.41,10.25 16.75,10.59 16.75,11 C16.75,11.41 16.41,11.75 16,11.75 Z"/>
  <path fill="#292D32" d="M12,16.75 L8,16.75 C7.59,16.75 7.25,16.41 7.25,16 C7.25,15.59 7.59,15.25 8,15.25 L12,15.25 C12.41,15.25 12.75,15.59 12.75,16 C12.75,16.41 12.41,16.75 12,16.75 Z"/>
</svg>

