<svg xmlns="http://www.w3.org/2000/svg" width="24" height="24" viewBox="0 0 24 24">
  <defs/>
  <path fill="#292D32" d="M7,5.75 C6.59,5.75 6.25,5.41 6.25,5 L6.25,2 C6.25,1.59 6.59,1.25 7,1.25 C7.41,1.25 7.75,1.59 7.75,2 L7.75,5 C7.75,5.41 7.41,5.75 7,5.75 Z"/>
  <path fill="#292D32" d="M15,5.75 C14.59,5.75 14.25,5.41 14.25,5 L14.25,2 C14.25,1.59 14.59,1.25 15,1.25 C15.41,1.25 15.75,1.59 15.75,2 L15.75,5 C15.75,5.41 15.41,5.75 15,5.75 Z"/>
  <path fill="#292D32" opacity="0.4" d="M20,8.5 L20,17 C20,20 18.5,22 15,22 L7,22 C3.5,22 2,20 2,17 L2,8.5 C2,5.5 3.5,3.5 7,3.5 L15,3.5 C18.5,3.5 20,5.5 20,8.5 Z"/>
  <path fill="#292D32" d="M13,11.75 L7,11.75 C6.59,11.75 6.25,11.41 6.25,11 C6.25,10.59 6.59,10.25 7,10.25 L13,10.25 C13.41,10.25 13.75,10.59 13.75,11 C13.75,11.41 13.41,11.75 13,11.75 Z"/>
  <path fill="#292D32" d="M10,16.75 L7,16.75 C6.59,16.75 6.25,16.41 6.25,16 C6.25,15.59 6.59,15.25 7,15.25 L10,15.25 C10.41,15.25 10.75,15.59 10.75,16 C10.75,16.41 10.41,16.75 10,16.75 Z"/>
  <path fill="#292D32" d="M21,13.63 C20.11,12.92 18.98,12.5 17.75,12.5 C16.52,12.5 15.37,12.93 14.47,13.66 C13.26,14.61 12.5,16.1 12.5,17.75 C12.5,18.73 12.78,19.67 13.26,20.45 C13.63,21.06 14.11,21.59 14.68,22 C15.54,22.63 16.6,23 17.75,23 C19.08,23 20.28,22.51 21.2,21.69 C21.61,21.35 21.96,20.93 22.24,20.45 C22.72,19.67 23,18.73 23,17.75 C23,16.08 22.22,14.59 21,13.63 Z M17.75,20.25 C17.75,18.87 16.63,17.75 15.25,17.75 C16.63,17.75 17.75,16.63 17.75,15.25 C17.75,16.63 18.87,17.75 20.25,17.75 C18.87,17.75 17.75,18.87 17.75,20.25 Z"/>
</svg>

