<svg xmlns="http://www.w3.org/2000/svg" width="24" height="24" viewBox="0 0 24 24">
  <defs/>
  <path fill="#292D32" d="M8,5.75 C7.59,5.75 7.25,5.41 7.25,5 L7.25,2 C7.25,1.59 7.59,1.25 8,1.25 C8.41,1.25 8.75,1.59 8.75,2 L8.75,5 C8.75,5.41 8.41,5.75 8,5.75 Z"/>
  <path fill="#292D32" d="M16,5.75 C15.59,5.75 15.25,5.41 15.25,5 L15.25,2 C15.25,1.59 15.59,1.25 16,1.25 C16.41,1.25 16.75,1.59 16.75,2 L16.75,5 C16.75,5.41 16.41,5.75 16,5.75 Z"/>
  <path fill="#292D32" d="M15,13.75 L7,13.75 C6.59,13.75 6.25,13.41 6.25,13 C6.25,12.59 6.59,12.25 7,12.25 L15,12.25 C15.41,12.25 15.75,12.59 15.75,13 C15.75,13.41 15.41,13.75 15,13.75 Z"/>
  <path fill="#292D32" d="M12,17.75 L7,17.75 C6.59,17.75 6.25,17.41 6.25,17 C6.25,16.59 6.59,16.25 7,16.25 L12,16.25 C12.41,16.25 12.75,16.59 12.75,17 C12.75,17.41 12.41,17.75 12,17.75 Z"/>
  <path fill="#292D32" d="M15,22.75 L9,22.75 C3.38,22.75 2.25,20.1 2.25,15.82 L2.25,9.65 C2.25,4.91 3.85,2.98 7.96,2.75 L16,2.75 C16.01,2.75 16.03,2.75 16.04,2.75 C20.15,2.98 21.75,4.91 21.75,9.65 L21.75,15.82 C21.75,20.1 20.62,22.75 15,22.75 Z M8,4.25 C5.2,4.41 3.75,5.29 3.75,9.65 L3.75,15.82 C3.75,19.65 4.48,21.25 9,21.25 L15,21.25 C19.52,21.25 20.25,19.65 20.25,15.82 L20.25,9.65 C20.25,5.3 18.81,4.41 15.98,4.25 L8,4.25 Z"/>
</svg>

