<svg xmlns="http://www.w3.org/2000/svg" width="24" height="24" viewBox="0 0 24 24">
  <defs/>
  <path fill="#292D32" opacity="0.4" d="M21.66,10.44 L20.68,14.62 C19.84,18.23 18.18,19.69 15.06,19.39 C14.56,19.35 14.02,19.26 13.44,19.12 L11.76,18.72 C7.59,17.73 6.3,15.67 7.28,11.49 L8.26,7.3 C8.46,6.45 8.7,5.71 9,5.1 C10.17,2.68 12.16,2.03 15.5,2.82 L17.17,3.21 C21.36,4.19 22.64,6.26 21.66,10.44 Z"/>
  <path fill="#292D32" d="M15.06,19.39 C14.44,19.81 13.66,20.16 12.71,20.47 L11.13,20.99 C7.16,22.27 5.07,21.2 3.78,17.23 L2.5,13.28 C1.22,9.31 2.28,7.21 6.25,5.93 L7.83,5.41 C8.24,5.28 8.63,5.17 9,5.1 C8.7,5.71 8.46,6.45 8.26,7.3 L7.28,11.49 C6.3,15.67 7.59,17.73 11.76,18.72 L13.44,19.12 C14.02,19.26 14.56,19.35 15.06,19.39 Z"/>
  <path fill="#292D32" d="M17.489,10.51 C17.429,10.51 17.369,10.5 17.299,10.49 L12.449,9.26 C12.049,9.16 11.809,8.75 11.909,8.35 C12.009,7.95 12.419,7.71 12.819,7.81 L17.669,9.04 C18.069,9.14 18.309,9.55 18.209,9.95 C18.129,10.28 17.819,10.51 17.489,10.51 Z"/>
  <path fill="#292D32" d="M14.559,13.89 C14.499,13.89 14.439,13.88 14.369,13.87 L11.459,13.13 C11.059,13.03 10.819,12.62 10.919,12.22 C11.019,11.82 11.429,11.58 11.829,11.68 L14.739,12.42 C15.139,12.52 15.379,12.93 15.279,13.33 C15.199,13.67 14.899,13.89 14.559,13.89 Z"/>
</svg>

