<svg xmlns="http://www.w3.org/2000/svg" width="24" height="24" viewBox="0 0 24 24">
  <defs/>
  <path fill="#292D32" opacity="0.4" d="M21.66,10.44 L20.68,14.62 C19.84,18.23 18.18,19.69 15.06,19.39 C14.56,19.35 14.02,19.26 13.44,19.12 L11.76,18.72 C7.59,17.73 6.3,15.67 7.28,11.49 L8.26,7.3 C8.46,6.45 8.7,5.71 9,5.1 C10.17,2.68 12.16,2.03 15.5,2.82 L17.17,3.21 C21.36,4.19 22.64,6.26 21.66,10.44 Z"/>
  <path fill="#292D32" d="M15.06,19.39 C14.44,19.81 13.66,20.16 12.71,20.47 L11.13,20.99 C7.16,22.27 5.07,21.2 3.78,17.23 L2.5,13.28 C1.22,9.31 2.28,7.21 6.25,5.93 L7.83,5.41 C8.24,5.28 8.63,5.17 9,5.1 C8.7,5.71 8.46,6.45 8.26,7.3 L7.28,11.49 C6.3,15.67 7.59,17.73 11.76,18.72 L13.44,19.12 C14.02,19.26 14.56,19.35 15.06,19.39 Z"/>
</svg>

