<svg xmlns="http://www.w3.org/2000/svg" width="24" height="24" viewBox="0 0 24 24">
  <defs/>
  <path fill="#292D32" d="M8,5.75 C7.59,5.75 7.25,5.41 7.25,5 L7.25,2 C7.25,1.59 7.59,1.25 8,1.25 C8.41,1.25 8.75,1.59 8.75,2 L8.75,5 C8.75,5.41 8.41,5.75 8,5.75 Z"/>
  <path fill="#292D32" d="M16,5.75 C15.59,5.75 15.25,5.41 15.25,5 L15.25,2 C15.25,1.59 15.59,1.25 16,1.25 C16.41,1.25 16.75,1.59 16.75,2 L16.75,5 C16.75,5.41 16.41,5.75 16,5.75 Z"/>
  <path fill="#292D32" d="M16,22.75 L8,22.75 C4.35,22.75 2.25,20.65 2.25,17 L2.25,8.5 C2.25,4.85 4.35,2.75 8,2.75 L16,2.75 C19.65,2.75 21.75,4.85 21.75,8.5 L21.75,17 C21.75,20.65 19.65,22.75 16,22.75 Z M8,4.25 C5.14,4.25 3.75,5.64 3.75,8.5 L3.75,17 C3.75,19.86 5.14,21.25 8,21.25 L16,21.25 C18.86,21.25 20.25,19.86 20.25,17 L20.25,8.5 C20.25,5.64 18.86,4.25 16,4.25 L8,4.25 Z"/>
  <path fill="#292D32" d="M16,11.75 L8,11.75 C7.59,11.75 7.25,11.41 7.25,11 C7.25,10.59 7.59,10.25 8,10.25 L16,10.25 C16.41,10.25 16.75,10.59 16.75,11 C16.75,11.41 16.41,11.75 16,11.75 Z"/>
  <path fill="#292D32" d="M12,16.75 L8,16.75 C7.59,16.75 7.25,16.41 7.25,16 C7.25,15.59 7.59,15.25 8,15.25 L12,15.25 C12.41,15.25 12.75,15.59 12.75,16 C12.75,16.41 12.41,16.75 12,16.75 Z"/>
</svg>

