<svg xmlns="http://www.w3.org/2000/svg" width="24" height="24" viewBox="0 0 24 24">
  <defs/>
  <path fill="#292D32" d="M7,13.25 L12,13.25 Q12.311,13.25 12.53,13.47 Q12.75,13.689 12.75,14 Q12.75,14.311 12.53,14.53 Q12.311,14.75 12,14.75 L7,14.75 Q6.689,14.75 6.47,14.53 Q6.25,14.311 6.25,14 Q6.25,13.689 6.47,13.47 Q6.689,13.25 7,13.25 Z"/>
  <path fill="#292D32" d="M6.47,6.49 L2.72,2.74 Q2.5,2.521 2.5,2.21 Q2.5,1.899 2.72,1.68 Q2.939,1.46 3.25,1.46 Q3.561,1.46 3.78,1.68 L7.53,5.43 Q7.75,5.649 7.75,5.96 Q7.75,6.271 7.53,6.49 Q7.311,6.71 7,6.71 Q6.689,6.71 6.47,6.49 Z"/>
  <path fill="#292D32" d="M7.491,2.78 L3.741,6.53 Q3.522,6.75 3.211,6.75 Q2.9,6.75 2.681,6.53 Q2.461,6.311 2.461,6 Q2.461,5.689 2.681,5.47 L6.431,1.72 Q6.65,1.5 6.961,1.5 Q7.272,1.5 7.491,1.72 Q7.711,1.939 7.711,2.25 Q7.711,2.561 7.491,2.78 Z"/>
  <path fill="#292D32" d="M7,9.25 L15,9.25 Q15.311,9.25 15.53,9.47 Q15.75,9.689 15.75,10 Q15.75,10.311 15.53,10.53 Q15.311,10.75 15,10.75 L7,10.75 Q6.689,10.75 6.47,10.53 Q6.25,10.311 6.25,10 Q6.25,9.689 6.47,9.47 Q6.689,9.25 7,9.25 Z"/>
  <path fill="#292D32" d="M21.75,12 L21.75,16 Q21.75,16.311 21.53,16.53 Q21.311,16.75 21,16.75 Q20.689,16.75 20.47,16.53 Q20.25,16.311 20.25,16 L20.25,12 Q20.25,11.689 20.47,11.47 Q20.689,11.25 21,11.25 Q21.311,11.25 21.53,11.47 Q21.75,11.689 21.75,12 Z"/>
  <path fill="#292D32" d="M10,1.25 L16,1.25 Q16.02,1.25 16.04,1.251 Q21.75,1.56 21.75,7.99 Q21.75,8.301 21.53,8.52 Q21.311,8.74 21,8.74 Q20.689,8.74 20.47,8.52 Q20.25,8.301 20.25,7.99 Q20.25,2.992 15.979,2.75 L10,2.75 Q9.689,2.75 9.47,2.53 Q9.25,2.311 9.25,2 Q9.25,1.689 9.47,1.47 Q9.689,1.25 10,1.25 Z"/>
  <path fill="#292D32" d="M3.75,9.01 L3.75,15.98 Q3.75,18.922 4.69,20.001 Q5.779,21.25 9,21.25 L15,21.25 Q15.311,21.25 15.53,21.47 Q15.75,21.689 15.75,22 Q15.75,22.311 15.53,22.53 Q15.311,22.75 15,22.75 L9,22.75 Q2.25,22.75 2.25,15.98 L2.25,9.01 Q2.25,8.699 2.47,8.48 Q2.689,8.26 3,8.26 Q3.311,8.26 3.53,8.48 Q3.75,8.699 3.75,9.01 Z"/>
  <path fill="#292D32" d="M21.53,16.53 L15.53,22.53 Q15.311,22.75 15,22.75 Q14.689,22.75 14.47,22.53 Q14.25,22.311 14.25,22 L14.25,19 Q14.25,15.25 18,15.25 L21,15.25 Q21.311,15.25 21.53,15.47 Q21.75,15.689 21.75,16 Q21.75,16.311 21.53,16.53 Z M19.189,16.75 L18,16.75 Q15.75,16.75 15.75,19 L15.75,20.189 L19.189,16.75 Z"/>
</svg>

