<svg xmlns="http://www.w3.org/2000/svg" width="24" height="24" viewBox="0 0 24 24">
  <defs/>
  <path fill="#292D32" d="M8.75,3.5 L8.75,2 C8.75,1.59 8.41,1.25 8,1.25 C7.59,1.25 7.25,1.59 7.25,2 L7.25,3.56 C7.5,3.53 7.73,3.5 8,3.5 L8.75,3.5 Z"/>
  <path fill="#292D32" d="M16.75,3.56 L16.75,2 C16.75,1.59 16.41,1.25 16,1.25 C15.59,1.25 15.25,1.59 15.25,2 L15.25,3.5 L16,3.5 C16.27,3.5 16.5,3.53 16.75,3.56 Z"/>
  <path fill="#292D32" d="M16.75,3.56 L16.75,5 C16.75,5.41 16.41,5.75 16,5.75 C15.59,5.75 15.25,5.41 15.25,5 L15.25,3.5 L8.75,3.5 L8.75,5 C8.75,5.41 8.41,5.75 8,5.75 C7.59,5.75 7.25,5.41 7.25,5 L7.25,3.56 C4.3,3.83 3,5.73 3,8.5 L3,17 C3,20 4.5,22 8,22 L16,22 C19.5,22 21,20 21,17 L21,8.5 C21,5.73 19.7,3.83 16.75,3.56 Z M12,16.75 L8,16.75 C7.59,16.75 7.25,16.41 7.25,16 C7.25,15.59 7.59,15.25 8,15.25 L12,15.25 C12.41,15.25 12.75,15.59 12.75,16 C12.75,16.41 12.41,16.75 12,16.75 Z M16,11.75 L8,11.75 C7.59,11.75 7.25,11.41 7.25,11 C7.25,10.59 7.59,10.25 8,10.25 L16,10.25 C16.41,10.25 16.75,10.59 16.75,11 C16.75,11.41 16.41,11.75 16,11.75 Z"/>
</svg>

