<svg xmlns="http://www.w3.org/2000/svg" width="24" height="24" viewBox="0 0 24 24">
  <defs/>
  <path fill="#292D32" d="M21.619,12.099 L20.999,11.889 L19.329,11.339 C18.749,11.149 18.159,11.219 17.709,11.539 C17.269,11.869 17.009,12.399 17.009,13.019 L17.009,17.809 C16.609,17.589 16.159,17.449 15.669,17.449 C14.129,17.449 12.879,18.709 12.879,20.249 C12.879,20.509 12.919,20.759 12.979,20.999 C13.309,22.189 14.389,23.049 15.669,23.049 C17.199,23.049 18.439,21.829 18.469,20.309 L18.469,15.699 C18.489,15.699 18.499,15.709 18.519,15.719 L20.799,16.479 C20.839,16.489 20.889,16.509 20.929,16.509 C21.109,16.559 21.269,16.579 21.439,16.579 C21.799,16.579 22.139,16.479 22.419,16.269 C22.869,15.949 23.119,15.419 23.119,14.799 L23.119,14.199 C23.119,13.289 22.479,12.389 21.619,12.099 Z M15.669,21.589 C15.209,21.589 14.809,21.359 14.569,20.999 C14.419,20.789 14.339,20.529 14.339,20.249 C14.339,19.519 14.939,18.919 15.669,18.919 C16.409,18.919 17.009,19.519 17.009,20.249 C17.009,20.479 16.949,20.689 16.849,20.869 C16.629,21.299 16.179,21.589 15.669,21.589 Z"/>
  <path fill="#292D32" d="M23.119,14.199 L23.119,14.799 C23.119,15.419 22.869,15.949 22.419,16.269 C22.139,16.479 21.799,16.579 21.439,16.579 C21.269,16.579 21.109,16.559 20.929,16.509 C20.889,16.509 20.839,16.489 20.799,16.479 L18.519,15.719 C18.499,15.709 18.489,15.699 18.469,15.699 L18.469,20.309 C18.439,21.829 17.199,23.049 15.669,23.049 C14.389,23.049 13.309,22.189 12.979,20.999 C12.919,20.759 12.879,20.509 12.879,20.249 C12.879,18.709 14.129,17.449 15.669,17.449 C16.159,17.449 16.609,17.589 17.009,17.809 L17.009,13.019 C17.009,12.399 17.269,11.869 17.709,11.539 C18.159,11.219 18.749,11.149 19.329,11.339 L20.999,11.889 L21.619,12.099 C22.479,12.389 23.119,13.289 23.119,14.199 Z"/>
  <path fill="#292D32" d="M21,7.52 L21,9.62 C21,9.96 20.67,10.2 20.34,10.09 L19.8,9.91 C18.75,9.58 17.68,9.72 16.81,10.34 C15.98,10.96 15.51,11.94 15.51,13.02 L15.51,15.47 C15.51,15.74 15.3,15.96 15.03,16 C12.97,16.31 11.38,18.1 11.38,20.25 C11.38,20.3 11.38,20.35 11.38,20.4 C11.39,20.71 11.16,21 10.84,21 L7.52,21 C4.07,21 2,18.94 2,15.48 L2,7.52 C2,4.06 4.07,2 7.52,2 L15.48,2 C18.93,2 21,4.06 21,7.52 Z"/>
</svg>

