<svg xmlns="http://www.w3.org/2000/svg" width="24" height="24" viewBox="0 0 24 24">
  <defs/>
  <path fill="#292D32" d="M8.75,2 L8.75,5 Q8.75,5.311 8.53,5.53 Q8.311,5.75 8,5.75 Q7.689,5.75 7.47,5.53 Q7.25,5.311 7.25,5 L7.25,2 Q7.25,1.689 7.47,1.47 Q7.689,1.25 8,1.25 Q8.311,1.25 8.53,1.47 Q8.75,1.689 8.75,2 Z"/>
  <path fill="#292D32" d="M16.75,2 L16.75,5 Q16.75,5.311 16.53,5.53 Q16.311,5.75 16,5.75 Q15.689,5.75 15.47,5.53 Q15.25,5.311 15.25,5 L15.25,2 Q15.25,1.689 15.47,1.47 Q15.689,1.25 16,1.25 Q16.311,1.25 16.53,1.47 Q16.75,1.689 16.75,2 Z"/>
  <path fill="#292D32" d="M21.75,8.5 L21.75,17 Q21.75,22.75 16,22.75 L8,22.75 Q2.25,22.75 2.25,17 L2.25,8.5 Q2.25,2.75 8,2.75 L16,2.75 Q21.75,2.75 21.75,8.5 Z M20.25,8.5 Q20.25,4.25 16,4.25 L8,4.25 Q3.75,4.25 3.75,8.5 L3.75,17 Q3.75,21.25 8,21.25 L16,21.25 Q20.25,21.25 20.25,17 Z"/>
  <path fill="#292D32" opacity="0.4" d="M8,10.25 L16,10.25 Q16.311,10.25 16.53,10.47 Q16.75,10.689 16.75,11 Q16.75,11.311 16.53,11.53 Q16.311,11.75 16,11.75 L8,11.75 Q7.689,11.75 7.47,11.53 Q7.25,11.311 7.25,11 Q7.25,10.689 7.47,10.47 Q7.689,10.25 8,10.25 Z"/>
  <path fill="#292D32" opacity="0.4" d="M8,15.25 L12,15.25 Q12.311,15.25 12.53,15.47 Q12.75,15.689 12.75,16 Q12.75,16.311 12.53,16.53 Q12.311,16.75 12,16.75 L8,16.75 Q7.689,16.75 7.47,16.53 Q7.25,16.311 7.25,16 Q7.25,15.689 7.47,15.47 Q7.689,15.25 8,15.25 Z"/>
</svg>

