<svg xmlns="http://www.w3.org/2000/svg" width="24" height="24" viewBox="0 0 24 24">
  <defs/>
  <g opacity="0.4">
    <path fill="#292D32" d="M8.811,18 L8.811,13 Q8.811,12.689 9.03,12.47 Q9.25,12.25 9.561,12.25 Q9.871,12.25 10.091,12.47 Q10.311,12.689 10.311,13 L10.311,18 Q10.311,18.311 10.091,18.53 Q9.871,18.75 9.561,18.75 Q9.25,18.75 9.03,18.53 Q8.811,18.311 8.811,18 Z"/>
    <path fill="#292D32" d="M12,16.25 L7,16.25 Q6.689,16.25 6.47,16.03 Q6.25,15.811 6.25,15.5 Q6.25,15.189 6.47,14.97 Q6.689,14.75 7,14.75 L12,14.75 Q12.311,14.75 12.53,14.97 Q12.75,15.189 12.75,15.5 Q12.75,15.811 12.53,16.03 Q12.311,16.25 12,16.25 Z"/>
  </g>
  <path fill="#292D32" d="M8.75,2 L8.75,5 Q8.75,5.311 8.53,5.53 Q8.311,5.75 8,5.75 Q7.689,5.75 7.47,5.53 Q7.25,5.311 7.25,5 L7.25,2 Q7.25,1.689 7.47,1.47 Q7.689,1.25 8,1.25 Q8.311,1.25 8.53,1.47 Q8.75,1.689 8.75,2 Z"/>
  <path fill="#292D32" d="M16.75,2 L16.75,5 Q16.75,5.311 16.53,5.53 Q16.311,5.75 16,5.75 Q15.689,5.75 15.47,5.53 Q15.25,5.311 15.25,5 L15.25,2 Q15.25,1.689 15.47,1.47 Q15.689,1.25 16,1.25 Q16.311,1.25 16.53,1.47 Q16.75,1.689 16.75,2 Z"/>
  <path fill="#292D32" d="M15.837,2.67 Q21.55,2.876 21.69,9.454 L21.82,15.624 Q21.889,19.211 20.621,20.767 Q19.125,22.604 15.216,22.69 L9.215,22.81 Q5.306,22.888 3.733,21.111 Q2.4,19.604 2.33,16.024 L2.19,9.847 Q2.05,3.262 7.754,2.832 Q7.774,2.83 7.795,2.83 L15.795,2.67 Q15.816,2.67 15.837,2.67 Z M15.803,4.17 L7.846,4.329 Q3.58,4.663 3.69,9.813 L3.83,15.995 Q3.889,19.023 4.856,20.117 Q5.97,21.374 9.185,21.31 L15.183,21.19 Q18.4,21.119 19.458,19.82 Q20.379,18.69 20.32,15.656 L20.19,9.486 Q20.08,4.336 15.803,4.17 Z"/>
</svg>

