<svg xmlns="http://www.w3.org/2000/svg" width="24" height="24" viewBox="0 0 24 24">
  <defs/>
  <path fill="#292D32" d="M12.676,19.959 C12.951,20.023 12.976,20.383 12.708,20.472 L11.128,20.992 C7.158,22.272 5.068,21.202 3.778,17.232 L2.498,13.282 C1.218,9.312 2.278,7.212 6.248,5.932 L6.772,5.758 C7.175,5.625 7.567,6.029 7.453,6.438 C7.396,6.64 7.342,6.852 7.288,7.072 L6.308,11.262 C5.208,15.972 6.818,18.572 11.528,19.692 L12.676,19.959 Z"/>
  <path fill="#292D32" d="M17.17,3.209 L15.5,2.819 C12.16,2.029 10.17,2.679 9,5.099 C8.7,5.709 8.46,6.449 8.26,7.299 L7.28,11.489 C6.3,15.668 7.59,17.729 11.76,18.718 L13.44,19.119 C14.02,19.259 14.56,19.349 15.06,19.389 C18.18,19.689 19.84,18.229 20.68,14.618 L21.66,10.438 C22.64,6.259 21.36,4.189 17.17,3.209 Z M15.29,13.329 C15.2,13.668 14.9,13.889 14.56,13.889 C14.5,13.889 14.44,13.879 14.37,13.868 L11.46,13.129 C11.06,13.028 10.82,12.618 10.92,12.219 C11.02,11.819 11.43,11.579 11.83,11.678 L14.74,12.418 C15.15,12.518 15.39,12.928 15.29,13.329 Z M18.22,9.949 C18.13,10.289 17.83,10.508 17.49,10.508 C17.43,10.508 17.37,10.498 17.3,10.489 L12.45,9.259 C12.05,9.159 11.81,8.749 11.91,8.349 C12.01,7.949 12.42,7.709 12.82,7.809 L17.67,9.039 C18.08,9.129 18.32,9.539 18.22,9.949 Z"/>
</svg>

