<svg xmlns="http://www.w3.org/2000/svg" width="24" height="24" viewBox="0 0 24 24">
  <defs/>
  <path fill="#292D32" d="M16,4.25 C16,5.49 14.99,6.5 13.75,6.5 L10.25,6.5 C9.63,6.5 9.07,6.25 8.66,5.84 C8.25,5.43 8,4.87 8,4.25 C8,3.01 9.01,2 10.25,2 L13.75,2 C14.37,2 14.93,2.25 15.34,2.66 C15.75,3.07 16,3.63 16,4.25 Z"/>
  <path fill="#292D32" d="M18.83,5.029 C18.6,4.839 18.34,4.689 18.06,4.579 C17.77,4.469 17.48,4.699 17.42,4.999 C17.08,6.709 15.57,7.999 13.75,7.999 L10.25,7.999 C9.25,7.999 8.31,7.609 7.6,6.899 C7.08,6.379 6.72,5.719 6.58,5.009 C6.52,4.709 6.22,4.469 5.93,4.589 C4.77,5.059 4,6.119 4,8.249 L4,17.999 C4,20.999 5.79,21.999 8,21.999 L16,21.999 C18.21,21.999 20,20.999 20,17.999 L20,8.249 C20,6.619 19.55,5.619 18.83,5.029 Z M8,12.249 L12,12.249 C12.41,12.249 12.75,12.589 12.75,12.999 C12.75,13.409 12.41,13.749 12,13.749 L8,13.749 C7.59,13.749 7.25,13.409 7.25,12.999 C7.25,12.589 7.59,12.249 8,12.249 Z M16,17.749 L8,17.749 C7.59,17.749 7.25,17.409 7.25,16.999 C7.25,16.589 7.59,16.249 8,16.249 L16,16.249 C16.41,16.249 16.75,16.589 16.75,16.999 C16.75,17.409 16.41,17.749 16,17.749 Z"/>
</svg>

