<svg xmlns="http://www.w3.org/2000/svg" width="24" height="24" viewBox="0 0 24 24">
  <defs/>
  <path fill="#292D32" d="M8.289,6.29 C7.869,6.29 7.539,5.95 7.539,5.54 L7.539,2.75 C7.539,2.34 7.869,2 8.289,2 C8.709,2 9.039,2.34 9.039,2.75 L9.039,5.53 C9.039,5.95 8.709,6.29 8.289,6.29 Z"/>
  <path fill="#292D32" d="M15.711,6.29 C15.291,6.29 14.961,5.95 14.961,5.54 L14.961,2.75 C14.961,2.33 15.301,2 15.711,2 C16.131,2 16.461,2.34 16.461,2.75 L16.461,5.53 C16.461,5.95 16.131,6.29 15.711,6.29 Z"/>
  <path fill="#292D32" d="M19.57,4.5 C18.91,4.01 17.96,4.48 17.96,5.31 L17.96,5.41 C17.96,6.58 17.12,7.66 15.95,7.78 C14.6,7.92 13.46,6.86 13.46,5.54 L13.46,4.5 C13.46,3.95 13.01,3.5 12.46,3.5 L11.54,3.5 C10.99,3.5 10.54,3.95 10.54,4.5 L10.54,5.54 C10.54,6.33 10.13,7.03 9.51,7.42 C9.42,7.48 9.32,7.53 9.22,7.58 C9.13,7.63 9.03,7.67 8.92,7.7 C8.8,7.74 8.67,7.77 8.53,7.78 C8.37,7.8 8.21,7.8 8.05,7.78 C7.91,7.77 7.78,7.74 7.66,7.7 C7.56,7.67 7.46,7.63 7.36,7.58 C7.26,7.53 7.16,7.48 7.07,7.42 C6.44,6.98 6.04,6.22 6.04,5.41 L6.04,5.31 C6.04,4.54 5.22,4.08 4.57,4.41 C4.56,4.42 4.55,4.42 4.54,4.43 C4.5,4.45 4.47,4.47 4.43,4.5 C4.4,4.53 4.36,4.55 4.33,4.58 C4.05,4.8 3.8,5.05 3.59,5.32 C3.48,5.44 3.39,5.57 3.31,5.7 C3.3,5.71 3.29,5.72 3.28,5.74 C3.19,5.87 3.11,6.02 3.04,6.16 C3.02,6.18 3.01,6.19 3.01,6.21 C2.95,6.33 2.89,6.45 2.85,6.58 C2.82,6.63 2.81,6.67 2.79,6.72 C2.73,6.87 2.69,7.02 2.65,7.17 C2.61,7.31 2.58,7.46 2.56,7.61 C2.54,7.72 2.53,7.83 2.52,7.95 C2.51,8.09 2.5,8.23 2.5,8.37 L2.5,17.13 C2.5,19.82 4.68,22 7.37,22 L16.63,22 C19.32,22 21.5,19.82 21.5,17.13 L21.5,8.37 C21.5,6.78 20.74,5.39 19.57,4.5 Z M12,16.25 L10.31,16.25 L10.31,18 C10.31,18.41 9.97,18.75 9.56,18.75 C9.14,18.75 8.81,18.41 8.81,18 L8.81,16.25 L7,16.25 C6.59,16.25 6.25,15.91 6.25,15.5 C6.25,15.09 6.59,14.75 7,14.75 L8.81,14.75 L8.81,13 C8.81,12.59 9.14,12.25 9.56,12.25 C9.97,12.25 10.31,12.59 10.31,13 L10.31,14.75 L12,14.75 C12.41,14.75 12.75,15.09 12.75,15.5 C12.75,15.91 12.41,16.25 12,16.25 Z"/>
</svg>

