<svg xmlns="http://www.w3.org/2000/svg" width="24" height="24" viewBox="0 0 24 24">
  <defs/>
  <path fill="#292D32" d="M22.39,10.611 L21.41,14.791 Q20.053,20.624 14.988,20.137 Q14.192,20.073 13.264,19.849 L11.586,19.45 Q5.01,17.888 6.55,11.319 L7.53,7.129 Q7.863,5.712 8.327,4.769 Q10.243,0.806 15.673,2.09 L17.341,2.48 Q20.785,3.285 21.991,5.23 Q23.197,7.172 22.39,10.611 Z M20.93,10.269 Q21.594,7.435 20.717,6.02 Q19.838,4.604 17,3.94 L15.328,3.55 Q11.07,2.543 9.673,5.431 Q9.284,6.221 8.99,7.471 L8.01,11.661 Q6.812,16.774 11.934,17.99 L13.616,18.391 Q14.429,18.587 15.132,18.643 Q18.89,19.005 19.95,14.449 Z"/>
  <path fill="#292D32" opacity="0.4" d="M15.481,20.011 Q14.502,20.675 12.943,21.183 L11.365,21.703 Q5.101,23.722 3.067,17.462 L1.787,13.511 Q0.731,10.236 1.738,8.256 Q2.749,6.271 6.02,5.216 L7.596,4.698 Q8.34,4.462 8.861,4.363 Q9.166,4.305 9.423,4.48 Q9.68,4.655 9.737,4.961 Q9.784,5.207 9.673,5.431 Q9.285,6.222 8.99,7.472 L8.011,11.661 Q6.812,16.774 11.934,17.99 L13.614,18.39 Q14.429,18.587 15.12,18.642 Q15.43,18.667 15.631,18.904 Q15.833,19.14 15.808,19.45 Q15.779,19.809 15.481,20.011 Z M12.644,19.702 L11.587,19.45 Q5.01,17.888 6.55,11.319 L7.53,7.128 Q7.644,6.646 7.772,6.219 L6.48,6.644 Q3.802,7.507 3.075,8.937 Q2.348,10.364 3.214,13.049 L4.494,16.998 Q6.065,21.835 10.896,20.278 L12.478,19.757 Q12.562,19.73 12.644,19.702 Z"/>
</svg>

