<svg xmlns="http://www.w3.org/2000/svg" width="24" height="24" viewBox="0 0 24 24">
  <defs/>
  <path fill="#292D32" d="M13.55,20.162 C13.29,20.272 13.01,20.372 12.71,20.472 L11.13,20.992 C7.16,22.272 5.07,21.202 3.78,17.232 L2.5,13.282 C1.22,9.312 2.28,7.212 6.25,5.932 L7.79,5.422 C7.6,5.902 7.44,6.452 7.29,7.072 L6.31,11.262 C5.21,15.972 6.82,18.572 11.53,19.692 L13.21,20.092 C13.32,20.122 13.44,20.142 13.55,20.162 Z"/>
  <path fill="#292D32" d="M17.17,3.209 L15.5,2.819 C12.16,2.029 10.17,2.679 9,5.099 C8.7,5.709 8.46,6.449 8.26,7.299 L7.28,11.489 C6.3,15.668 7.59,17.729 11.76,18.718 L13.44,19.119 C14.02,19.259 14.56,19.349 15.06,19.389 C18.18,19.689 19.84,18.229 20.68,14.618 L21.66,10.438 C22.64,6.259 21.36,4.189 17.17,3.209 Z"/>
</svg>

