<svg xmlns="http://www.w3.org/2000/svg" width="24" height="24" viewBox="0 0 24 24">
  <defs/>
  <path fill="#292D32" d="M20.75,8.25 L20.75,18 Q20.75,22.75 16,22.75 L8,22.75 Q5.905,22.75 4.681,21.693 Q3.25,20.457 3.25,18 L3.25,8.25 Q3.25,3.5 8,3.5 Q8.311,3.5 8.53,3.72 Q8.75,3.939 8.75,4.25 Q8.75,4.869 9.19,5.31 Q9.631,5.75 10.25,5.75 L13.75,5.75 Q15.25,5.75 15.25,4.25 Q15.25,3.939 15.47,3.72 Q15.689,3.5 16,3.5 Q20.75,3.5 20.75,8.25 Z M19.25,8.25 Q19.25,5.365 16.69,5.041 Q16.324,7.25 13.75,7.25 L10.25,7.25 Q9.009,7.25 8.13,6.37 Q7.54,5.781 7.346,5.029 Q6.231,5.132 5.647,5.611 Q4.75,6.347 4.75,8.25 L4.75,18 Q4.75,21.25 8,21.25 L16,21.25 Q19.25,21.25 19.25,18 Z"/>
  <path fill="#292D32" d="M16.75,4.25 Q16.75,7.25 13.75,7.25 L10.25,7.25 Q9.009,7.25 8.13,6.37 Q7.25,5.491 7.25,4.25 Q7.25,1.25 10.25,1.25 L13.75,1.25 Q14.991,1.25 15.87,2.13 Q16.75,3.009 16.75,4.25 Z M15.25,4.25 Q15.25,3.631 14.81,3.19 Q14.369,2.75 13.75,2.75 L10.25,2.75 Q8.75,2.75 8.75,4.25 Q8.75,4.869 9.19,5.31 Q9.631,5.75 10.25,5.75 L13.75,5.75 Q15.25,5.75 15.25,4.25 Z"/>
  <path fill="#292D32" opacity="0.4" d="M8,12.25 L12,12.25 Q12.311,12.25 12.53,12.47 Q12.75,12.689 12.75,13 Q12.75,13.311 12.53,13.53 Q12.311,13.75 12,13.75 L8,13.75 Q7.689,13.75 7.47,13.53 Q7.25,13.311 7.25,13 Q7.25,12.689 7.47,12.47 Q7.689,12.25 8,12.25 Z"/>
  <path fill="#292D32" opacity="0.4" d="M8,16.25 L16,16.25 Q16.311,16.25 16.53,16.47 Q16.75,16.689 16.75,17 Q16.75,17.311 16.53,17.53 Q16.311,17.75 16,17.75 L8,17.75 Q7.689,17.75 7.47,17.53 Q7.25,17.311 7.25,17 Q7.25,16.689 7.47,16.47 Q7.689,16.25 8,16.25 Z"/>
</svg>

