<svg xmlns="http://www.w3.org/2000/svg" width="24" height="24" viewBox="0 0 24 24">
  <defs/>
  <path fill="#292D32" opacity="0.4" d="M7.37,22 L16.62,22 C19.31,22 21.49,19.82 21.49,17.13 L21.49,8.37 C21.49,5.68 19.31,3.5 16.62,3.5 L7.37,3.5 C4.68,3.5 2.5,5.68 2.5,8.37 L2.5,17.12 C2.5,19.82 4.68,22 7.37,22 Z"/>
  <path fill="#292D32" d="M8.289,6.29 C7.869,6.29 7.539,5.95 7.539,5.54 L7.539,2.75 C7.539,2.34 7.869,2 8.289,2 C8.709,2 9.039,2.34 9.039,2.75 L9.039,5.53 C9.039,5.95 8.709,6.29 8.289,6.29 Z"/>
  <path fill="#292D32" d="M15.711,6.29 C15.291,6.29 14.961,5.95 14.961,5.54 L14.961,2.75 C14.961,2.33 15.301,2 15.711,2 C16.131,2 16.461,2.34 16.461,2.75 L16.461,5.53 C16.461,5.95 16.131,6.29 15.711,6.29 Z"/>
  <path fill="#292D32" d="M12,14.75 L10.31,14.75 L10.31,13 C10.31,12.59 9.97,12.25 9.56,12.25 C9.15,12.25 8.81,12.59 8.81,13 L8.81,14.75 L7,14.75 C6.59,14.75 6.25,15.09 6.25,15.5 C6.25,15.91 6.59,16.25 7,16.25 L8.81,16.25 L8.81,18 C8.81,18.41 9.15,18.75 9.56,18.75 C9.97,18.75 10.31,18.41 10.31,18 L10.31,16.25 L12,16.25 C12.41,16.25 12.75,15.91 12.75,15.5 C12.75,15.09 12.41,14.75 12,14.75 Z"/>
</svg>

