<svg xmlns="http://www.w3.org/2000/svg" width="24" height="24" viewBox="0 0 24 24">
  <defs/>
  <path fill="#292D32" opacity="0.4" d="M20,8.25 L20,18 C20,21 18.21,22 16,22 L8,22 C5.79,22 4,21 4,18 L4,8.25 C4,5 5.79,4.25 8,4.25 C8,4.87 8.25,5.43 8.66,5.84 C9.07,6.25 9.63,6.5 10.25,6.5 L13.75,6.5 C14.99,6.5 16,5.49 16,4.25 C18.21,4.25 20,5 20,8.25 Z"/>
  <path fill="#292D32" d="M16,4.25 C16,5.49 14.99,6.5 13.75,6.5 L10.25,6.5 C9.63,6.5 9.07,6.25 8.66,5.84 C8.25,5.43 8,4.87 8,4.25 C8,3.01 9.01,2 10.25,2 L13.75,2 C14.37,2 14.93,2.25 15.34,2.66 C15.75,3.07 16,3.63 16,4.25 Z"/>
  <path fill="#292D32" d="M12,13.75 L8,13.75 C7.59,13.75 7.25,13.41 7.25,13 C7.25,12.59 7.59,12.25 8,12.25 L12,12.25 C12.41,12.25 12.75,12.59 12.75,13 C12.75,13.41 12.41,13.75 12,13.75 Z"/>
  <path fill="#292D32" d="M16,17.75 L8,17.75 C7.59,17.75 7.25,17.41 7.25,17 C7.25,16.59 7.59,16.25 8,16.25 L16,16.25 C16.41,16.25 16.75,16.59 16.75,17 C16.75,17.41 16.41,17.75 16,17.75 Z"/>
</svg>

