<svg xmlns="http://www.w3.org/2000/svg" width="24" height="24" viewBox="0 0 24 24">
  <defs/>
  <path fill="#292D32" opacity="0.4" d="M21,7.52 L21,15.48 C21,15.84 20.98,16.19 20.93,16.51 C20.89,16.51 20.84,16.49 20.8,16.48 L18.52,15.72 C18.5,15.71 18.49,15.7 18.47,15.7 L18.47,20.31 C17.99,20.58 17.45,20.77 16.85,20.87 C16.95,20.69 17.01,20.48 17.01,20.25 C17.01,19.52 16.41,18.92 15.67,18.92 C14.94,18.92 14.34,19.52 14.34,20.25 C14.34,20.53 14.42,20.79 14.57,21 L7.52,21 C4.07,21 2,18.94 2,15.48 L2,7.52 C2,4.06 4.07,2 7.52,2 L15.48,2 C18.93,2 21,4.06 21,7.52 Z"/>
  <path fill="#292D32" d="M21.621,12.1 L21.001,11.89 L19.331,11.34 C18.751,11.15 18.161,11.22 17.711,11.54 C17.271,11.87 17.011,12.4 17.011,13.02 L17.011,17.81 C16.611,17.59 16.161,17.45 15.671,17.45 C14.131,17.45 12.881,18.71 12.881,20.25 C12.881,20.51 12.921,20.76 12.981,21 C13.311,22.19 14.391,23.05 15.671,23.05 C17.201,23.05 18.441,21.83 18.471,20.31 L18.471,15.7 C18.491,15.7 18.501,15.71 18.521,15.72 L20.801,16.48 C20.841,16.49 20.891,16.51 20.931,16.51 C21.111,16.56 21.271,16.58 21.441,16.58 C21.801,16.58 22.141,16.48 22.421,16.27 C22.871,15.95 23.121,15.42 23.121,14.8 L23.121,14.2 C23.121,13.29 22.481,12.39 21.621,12.1 Z M15.671,21.59 C15.211,21.59 14.811,21.36 14.571,21 C14.421,20.79 14.341,20.53 14.341,20.25 C14.341,19.52 14.941,18.92 15.671,18.92 C16.411,18.92 17.011,19.52 17.011,20.25 C17.011,20.48 16.951,20.69 16.851,20.87 C16.631,21.3 16.181,21.59 15.671,21.59 Z"/>
</svg>

