<svg xmlns="http://www.w3.org/2000/svg" width="24" height="24" viewBox="0 0 24 24">
  <defs/>
  <path fill="#292D32" d="M9.561,18.75 C9.151,18.75 8.811,18.41 8.811,18 L8.811,13 C8.811,12.59 9.151,12.25 9.561,12.25 C9.971,12.25 10.31,12.59 10.31,13 L10.31,18 C10.31,18.41 9.971,18.75 9.561,18.75 Z"/>
  <path fill="#292D32" d="M12,16.25 L7,16.25 C6.59,16.25 6.25,15.91 6.25,15.5 C6.25,15.09 6.59,14.75 7,14.75 L12,14.75 C12.41,14.75 12.75,15.09 12.75,15.5 C12.75,15.91 12.41,16.25 12,16.25 Z"/>
  <path fill="#292D32" d="M8,5.75 C7.59,5.75 7.25,5.41 7.25,5 L7.25,2 C7.25,1.59 7.59,1.25 8,1.25 C8.41,1.25 8.75,1.59 8.75,2 L8.75,5 C8.75,5.41 8.41,5.75 8,5.75 Z"/>
  <path fill="#292D32" d="M16,5.75 C15.59,5.75 15.25,5.41 15.25,5 L15.25,2 C15.25,1.59 15.59,1.25 16,1.25 C16.41,1.25 16.75,1.59 16.75,2 L16.75,5 C16.75,5.41 16.41,5.75 16,5.75 Z"/>
  <path fill="#292D32" d="M8.85,22.81 C6.38,22.81 4.75,22.27 3.73,21.11 C2.55,19.78 2.36,17.79 2.32,16.02 L2.19,9.85 C2.09,5.12 3.66,3.15 7.76,2.84 L15.8,2.68 C15.82,2.68 15.83,2.68 15.84,2.68 C19.95,2.82 21.59,4.72 21.69,9.46 L21.81,15.63 C21.85,17.4 21.73,19.4 20.61,20.77 C19.59,22.02 17.87,22.63 15.2,22.69 L9.2,22.81 C9.08,22.81 8.96,22.81 8.85,22.81 Z M15.8,4.17 L7.83,4.33 C5.03,4.55 3.6,5.45 3.69,9.82 L3.82,15.99 C3.86,18.11 4.17,19.35 4.85,20.12 C5.61,20.98 6.98,21.36 9.18,21.31 L15.18,21.19 C17.37,21.15 18.73,20.71 19.46,19.82 C20.11,19.03 20.37,17.78 20.32,15.66 L20.2,9.49 C20.1,5.13 18.64,4.27 15.8,4.17 Z"/>
</svg>

