<svg xmlns="http://www.w3.org/2000/svg" width="24" height="24" viewBox="0 0 24 24">
  <defs/>
  <path fill="#292D32" opacity="0.4" d="M20.399,16.33 C20.119,17.08 19.529,17.65 18.759,17.91 C17.679,18.27 16.569,18.54 15.449,18.73 C15.339,18.75 15.229,18.77 15.119,18.78 C14.939,18.81 14.759,18.83 14.579,18.85 C14.359,18.88 14.129,18.9 13.899,18.92 C13.269,18.97 12.649,19 12.019,19 C11.379,19 10.739,18.97 10.109,18.91 C9.839,18.89 9.579,18.86 9.319,18.82 C9.169,18.8 9.019,18.78 8.879,18.76 C8.769,18.74 8.659,18.73 8.549,18.71 C7.439,18.53 6.339,18.26 5.269,17.9 C4.469,17.63 3.859,17.06 3.589,16.33 C3.319,15.61 3.419,14.77 3.849,14.05 L4.979,12.17 C5.219,11.76 5.439,10.97 5.439,10.49 L5.439,8.63 C5.439,5 8.389,2.05 12.019,2.05 C15.639,2.05 18.589,5 18.589,8.63 L18.589,10.49 C18.589,10.97 18.809,11.76 19.059,12.17 L20.189,14.05 C20.599,14.75 20.679,15.57 20.399,16.33 Z"/>
  <path fill="#292D32" d="M12,10.76 C11.58,10.76 11.24,10.42 11.24,10 L11.24,6.9 C11.24,6.48 11.58,6.14 12,6.14 C12.42,6.14 12.76,6.48 12.76,6.9 L12.76,10 C12.75,10.42 12.41,10.76 12,10.76 Z"/>
  <path fill="#292D32" d="M14.83,20.01 C14.41,21.17 13.3,22 12,22 C11.21,22 10.43,21.68 9.88,21.11 C9.56,20.81 9.32,20.41 9.18,20 C9.31,20.02 9.44,20.03 9.58,20.05 C9.81,20.08 10.05,20.11 10.29,20.13 C10.86,20.18 11.44,20.21 12.02,20.21 C12.59,20.21 13.16,20.18 13.72,20.13 C13.93,20.11 14.14,20.1 14.34,20.07 C14.5,20.05 14.66,20.03 14.83,20.01 Z"/>
</svg>

