<svg xmlns="http://www.w3.org/2000/svg" width="24" height="24" viewBox="0 0 24 24">
  <defs/>
  <path fill="#292D32" d="M19,8 C20.657,8 22,6.657 22,5 C22,3.343 20.657,2 19,2 C17.343,2 16,3.343 16,5 C16,6.657 17.343,8 19,8 Z"/>
  <path fill="#292D32" opacity="0.4" d="M19,9.5 C16.52,9.5 14.5,7.48 14.5,5 C14.5,4.09 14.77,3.25 15.24,2.55 C14.22,2.2 13.13,2 12,2 C6.49,2 2,6.49 2,12 C2,17.51 6.49,22 12,22 C17.51,22 22,17.51 22,12 C22,10.87 21.8,9.78 21.45,8.76 C20.75,9.23 19.91,9.5 19,9.5 Z"/>
</svg>

