<svg xmlns="http://www.w3.org/2000/svg" width="24" height="24" viewBox="0 0 24 24">
  <defs/>
  <path fill="#292D32" d="M19,8 C20.657,8 22,6.657 22,5 C22,3.343 20.657,2 19,2 C17.343,2 16,3.343 16,5 C16,6.657 17.343,8 19,8 Z"/>
  <path fill="#292D32" d="M19.8,9.42 C19.78,9.42 19.76,9.43 19.74,9.43 C19.64,9.45 19.54,9.46 19.43,9.48 C19.01,9.52 18.56,9.5 18.1,9.41 C17.98,9.38 17.88,9.36 17.77,9.32 C17.44,9.24 17.13,9.11 16.84,8.94 C16.72,8.88 16.6,8.8 16.49,8.73 C16.01,8.4 15.6,7.99 15.27,7.51 C15.2,7.4 15.12,7.28 15.06,7.16 C14.89,6.87 14.76,6.56 14.68,6.23 C14.64,6.12 14.62,6.02 14.59,5.9 C14.5,5.44 14.48,4.99 14.52,4.57 C14.54,4.46 14.55,4.36 14.57,4.26 C14.57,4.24 14.58,4.22 14.58,4.2 C14.7,3.58 14.24,3 13.6,3 L7.52,3 C7.38,3 7.24,3.01 7.11,3.02 C6.99,3.03 6.88,3.04 6.76,3.06 C6.64,3.07 6.52,3.09 6.41,3.11 C4,3.46 2.46,4.99 2.11,7.41 C2.09,7.52 2.07,7.64 2.06,7.76 C2.04,7.88 2.03,7.99 2.02,8.11 C2.01,8.24 2,8.38 2,8.52 L2,16.48 C2,16.62 2.01,16.76 2.02,16.89 C2.03,17.01 2.04,17.12 2.06,17.24 C2.07,17.36 2.09,17.48 2.11,17.59 C2.46,20.01 4,21.54 6.41,21.89 C6.52,21.91 6.64,21.93 6.76,21.94 C6.88,21.96 6.99,21.97 7.11,21.98 C7.24,21.99 7.38,22 7.52,22 L15.48,22 C15.62,22 15.76,21.99 15.89,21.98 C16.01,21.97 16.12,21.96 16.24,21.94 C16.36,21.93 16.48,21.91 16.59,21.89 C19,21.54 20.54,20.01 20.89,17.59 C20.91,17.48 20.93,17.36 20.94,17.24 C20.96,17.12 20.97,17.01 20.98,16.89 C20.99,16.76 21,16.62 21,16.48 L21,10.4 C21,9.76 20.42,9.3 19.8,9.42 Z M6.75,12.5 L11.75,12.5 C12.16,12.5 12.5,12.84 12.5,13.25 C12.5,13.66 12.16,14 11.75,14 L6.75,14 C6.34,14 6,13.66 6,13.25 C6,12.84 6.34,12.5 6.75,12.5 Z M15.75,18 L6.75,18 C6.34,18 6,17.66 6,17.25 C6,16.84 6.34,16.5 6.75,16.5 L15.75,16.5 C16.16,16.5 16.5,16.84 16.5,17.25 C16.5,17.66 16.16,18 15.75,18 Z"/>
</svg>

