<svg xmlns="http://www.w3.org/2000/svg" width="24" height="24" viewBox="0 0 24 24">
  <defs/>
  <path fill="#292D32" d="M19,8.75 C16.93,8.75 15.25,7.07 15.25,5 C15.25,2.93 16.93,1.25 19,1.25 C21.07,1.25 22.75,2.93 22.75,5 C22.75,7.07 21.07,8.75 19,8.75 Z M19,2.75 C17.76,2.75 16.75,3.76 16.75,5 C16.75,6.24 17.76,7.25 19,7.25 C20.24,7.25 21.25,6.24 21.25,5 C21.25,3.76 20.24,2.75 19,2.75 Z"/>
  <path fill="#292D32" d="M12,13.75 L7,13.75 C6.59,13.75 6.25,13.41 6.25,13 C6.25,12.59 6.59,12.25 7,12.25 L12,12.25 C12.41,12.25 12.75,12.59 12.75,13 C12.75,13.41 12.41,13.75 12,13.75 Z"/>
  <path fill="#292D32" d="M16,17.75 L7,17.75 C6.59,17.75 6.25,17.41 6.25,17 C6.25,16.59 6.59,16.25 7,16.25 L16,16.25 C16.41,16.25 16.75,16.59 16.75,17 C16.75,17.41 16.41,17.75 16,17.75 Z"/>
  <path fill="#292D32" d="M15,22.75 L9,22.75 C3.57,22.75 1.25,20.43 1.25,15 L1.25,9 C1.25,3.57 3.57,1.25 9,1.25 L14,1.25 C14.41,1.25 14.75,1.59 14.75,2 C14.75,2.41 14.41,2.75 14,2.75 L9,2.75 C4.39,2.75 2.75,4.39 2.75,9 L2.75,15 C2.75,19.61 4.39,21.25 9,21.25 L15,21.25 C19.61,21.25 21.25,19.61 21.25,15 L21.25,10 C21.25,9.59 21.59,9.25 22,9.25 C22.41,9.25 22.75,9.59 22.75,10 L22.75,15 C22.75,20.43 20.43,22.75 15,22.75 Z"/>
</svg>

