<svg xmlns="http://www.w3.org/2000/svg" width="24" height="24" viewBox="0 0 24 24">
  <defs/>
  <path fill="#292D32" d="M17.271,11.8 L17.271,8.91 Q17.271,6.746 15.728,5.203 Q14.185,3.66 12.021,3.66 Q9.849,3.66 8.31,5.199 Q6.771,6.738 6.771,8.91 L6.771,11.8 Q6.771,13.111 6.095,14.244 L4.943,16.157 Q4.597,16.732 4.79,17.252 Q4.983,17.774 5.621,17.99 Q12.016,20.126 18.413,17.989 Q18.98,17.801 19.188,17.238 Q19.397,16.672 19.087,16.156 Q18.928,15.89 19.003,15.588 Q19.078,15.287 19.345,15.127 Q19.611,14.967 19.913,15.043 Q20.214,15.118 20.374,15.384 Q21.053,16.517 20.595,17.758 Q20.137,18.999 18.888,19.412 Q12.016,21.708 5.14,19.411 Q3.825,18.965 3.383,17.773 Q2.94,16.576 3.658,15.383 L4.806,13.476 Q5.271,12.697 5.271,11.8 L5.271,8.91 Q5.271,6.117 7.249,4.139 Q9.227,2.16 12.021,2.16 Q14.806,2.16 16.788,4.142 Q18.771,6.124 18.771,8.91 L18.771,11.8 Q18.771,12.111 18.551,12.331 Q18.331,12.55 18.021,12.55 Q17.71,12.55 17.49,12.331 Q17.271,12.111 17.271,11.8 Z"/>
  <path fill="#292D32" d="M13.661,3.92 Q13.225,3.794 12.82,3.744 Q11.536,3.584 10.379,3.92 Q10.081,4.007 9.809,3.857 Q9.536,3.708 9.45,3.409 Q9.378,3.164 9.472,2.926 Q10.152,1.19 12.02,1.19 Q13.888,1.19 14.568,2.926 Q14.682,3.216 14.557,3.5 Q14.433,3.785 14.144,3.898 Q13.906,3.991 13.661,3.92 Z"/>
  <path fill="#292D32" d="M15.769,19.06 Q15.77,20.608 14.669,21.709 Q13.568,22.81 12.019,22.81 Q10.469,22.81 9.369,21.71 Q8.27,20.611 8.27,19.06 L9.77,19.06 Q9.77,19.989 10.43,20.65 Q11.09,21.31 12.019,21.31 Q14.269,21.31 14.269,19.06 Z"/>
</svg>

