<svg xmlns="http://www.w3.org/2000/svg" width="24" height="24" viewBox="0 0 24 24">
  <defs/>
  <path fill="#292D32" d="M19,8 C20.657,8 22,6.657 22,5 C22,3.343 20.657,2 19,2 C17.343,2 16,3.343 16,5 C16,6.657 17.343,8 19,8 Z"/>
  <path fill="#292D32" d="M21,10.4 L21,16.48 C21,16.62 20.99,16.76 20.98,16.89 C20.97,17.01 20.96,17.12 20.94,17.24 C20.93,17.36 20.91,17.48 20.89,17.59 C20.54,20.01 19,21.54 16.59,21.89 C16.48,21.91 16.36,21.93 16.24,21.94 C16.12,21.96 16.01,21.97 15.89,21.98 C15.76,21.99 15.62,22 15.48,22 L7.52,22 C7.38,22 7.24,21.99 7.11,21.98 C6.99,21.97 6.88,21.96 6.76,21.94 C6.64,21.93 6.52,21.91 6.41,21.89 C4,21.54 2.46,20.01 2.11,17.59 C2.09,17.48 2.07,17.36 2.06,17.24 C2.04,17.12 2.03,17.01 2.02,16.89 C2.01,16.76 2,16.62 2,16.48 L2,8.52 C2,8.38 2.01,8.24 2.02,8.11 C2.03,7.99 2.04,7.88 2.06,7.76 C2.07,7.64 2.09,7.52 2.11,7.41 C2.46,4.99 4,3.46 6.41,3.11 C6.52,3.09 6.64,3.07 6.76,3.06 C6.88,3.04 6.99,3.03 7.11,3.02 C7.24,3.01 7.38,3 7.52,3 L13.6,3 C14.24,3 14.7,3.58 14.58,4.2 C14.58,4.22 14.57,4.24 14.57,4.26 C14.55,4.36 14.54,4.46 14.52,4.57 C14.48,4.99 14.5,5.44 14.59,5.9 C14.62,6.02 14.64,6.12 14.68,6.23 C14.76,6.56 14.89,6.87 15.06,7.16 C15.12,7.28 15.2,7.4 15.27,7.51 C15.6,7.99 16.01,8.4 16.49,8.73 C16.6,8.8 16.72,8.88 16.84,8.94 C17.13,9.11 17.44,9.24 17.77,9.32 C17.88,9.36 17.98,9.38 18.1,9.41 C18.56,9.5 19.01,9.52 19.43,9.48 C19.54,9.46 19.64,9.45 19.74,9.43 C19.76,9.43 19.78,9.42 19.8,9.42 C20.42,9.3 21,9.76 21,10.4 Z"/>
</svg>

