<svg xmlns="http://www.w3.org/2000/svg" width="24" height="24" viewBox="0 0 24 24">
  <defs/>
  <path fill="#292D32" d="M12.75,6.44 L12.75,9.77 Q12.75,10.081 12.53,10.3 Q12.311,10.52 12,10.52 Q11.689,10.52 11.47,10.3 Q11.25,10.081 11.25,9.77 L11.25,6.44 Q11.25,6.129 11.47,5.91 Q11.689,5.69 12,5.69 Q12.311,5.69 12.53,5.91 Q12.75,6.129 12.75,6.44 Z"/>
  <path fill="#292D32" d="M21.233,14.785 Q21.965,16.008 21.473,17.343 Q20.98,18.68 19.627,19.132 Q12.024,21.66 4.423,19.132 Q2.999,18.657 2.52,17.367 Q2.039,16.073 2.817,14.783 L4.086,12.665 Q4.609,11.797 4.609,10.77 L4.609,8.67 Q4.609,5.593 6.779,3.421 Q8.948,1.25 12.019,1.25 Q15.075,1.25 17.252,3.427 Q19.429,5.604 19.429,8.66 L19.429,10.76 Q19.429,10.947 19.472,11.244 Q19.516,11.551 19.329,11.8 Q19.143,12.049 18.835,12.092 Q18.528,12.136 18.279,11.95 Q18.031,11.764 17.987,11.456 Q17.929,11.053 17.929,10.76 L17.929,8.66 Q17.929,6.226 16.192,4.488 Q14.454,2.75 12.019,2.75 Q9.57,2.75 7.84,4.481 Q6.109,6.214 6.109,8.67 L6.109,10.77 Q6.109,12.215 5.373,13.435 L4.102,15.557 Q3.697,16.228 3.926,16.845 Q4.155,17.461 4.896,17.708 Q12.024,20.079 19.152,17.708 Q19.822,17.485 20.066,16.824 Q20.309,16.163 19.946,15.555 Q19.786,15.289 19.862,14.987 Q19.938,14.686 20.204,14.526 Q20.471,14.367 20.772,14.443 Q21.073,14.518 21.233,14.785 Z"/>
  <path fill="#292D32" d="M16.08,18.82 Q16.08,20.503 14.881,21.702 Q13.683,22.9 12,22.9 Q10.319,22.9 9.12,21.7 Q7.92,20.501 7.92,18.82 L9.42,18.82 Q9.42,19.879 10.18,20.64 Q10.941,21.4 12,21.4 Q13.062,21.4 13.821,20.641 Q14.58,19.882 14.58,18.82 Z"/>
</svg>

