<svg xmlns="http://www.w3.org/2000/svg" width="24" height="24" viewBox="0 0 24 24">
  <defs/>
  <path fill="#292D32" d="M19,2.75 Q16.75,2.75 16.75,5 Q16.75,7.25 19,7.25 Q21.25,7.25 21.25,5 Q21.25,4.595 21.121,4.261 Q21.008,3.971 21.134,3.687 Q21.26,3.403 21.549,3.291 Q21.839,3.178 22.123,3.304 Q22.407,3.43 22.519,3.719 Q22.75,4.315 22.75,5 Q22.75,8.75 19,8.75 Q15.25,8.75 15.25,5 Q15.25,1.25 19,1.25 Q19.311,1.25 19.53,1.47 Q19.75,1.689 19.75,2 Q19.75,2.311 19.53,2.53 Q19.311,2.75 19,2.75 Z"/>
  <path fill="#292D32" d="M6.096,15.157 Q5.161,12.218 7.803,11.375 Q8.964,10.995 9.803,11.581 Q10.618,10.992 11.827,11.375 Q14.47,12.218 13.535,15.157 Q13.098,16.547 11.753,17.523 Q10.628,18.34 9.82,18.34 Q7.11,18.29 6.097,15.161 Z M7.524,14.699 L7.525,14.702 Q8.209,16.81 9.82,16.84 Q11.434,16.84 12.106,14.702 Q12.587,13.192 11.374,12.805 Q10.746,12.606 10.448,13.061 Q10.373,13.175 10.262,13.256 Q10.011,13.439 9.704,13.391 Q9.397,13.343 9.214,13.092 Q8.861,12.607 8.258,12.804 Q7.046,13.191 7.524,14.699 Z"/>
  <path fill="#292D32" d="M2.75,14.97 L2.75,15 Q2.75,18.439 4.155,19.845 Q5.561,21.25 9,21.25 L15,21.25 Q18.439,21.25 19.845,19.845 Q21.25,18.439 21.25,15 L21.25,10 Q21.25,9.689 21.47,9.47 Q21.689,9.25 22,9.25 Q22.311,9.25 22.53,9.47 Q22.75,9.689 22.75,10 L22.75,15 Q22.75,22.75 15,22.75 L9,22.75 Q1.25,22.75 1.25,15 L1.25,14.97 Q1.25,14.659 1.47,14.44 Q1.689,14.22 2,14.22 Q2.311,14.22 2.53,14.44 Q2.75,14.659 2.75,14.97 Z"/>
  <path fill="#292D32" d="M14,2.75 L9,2.75 Q2.75,2.75 2.75,9 L2.75,11 Q2.75,11.311 2.53,11.53 Q2.311,11.75 2,11.75 Q1.689,11.75 1.47,11.53 Q1.25,11.311 1.25,11 L1.25,9 Q1.25,1.25 9,1.25 L14,1.25 Q14.311,1.25 14.53,1.47 Q14.75,1.689 14.75,2 Q14.75,2.311 14.53,2.53 Q14.311,2.75 14,2.75 Z"/>
</svg>

