<svg xmlns="http://www.w3.org/2000/svg" width="24" height="24" viewBox="0 0 24 24">
  <defs/>
  <path fill="#292D32" d="M19,8 C20.657,8 22,6.657 22,5 C22,3.343 20.657,2 19,2 C17.343,2 16,3.343 16,5 C16,6.657 17.343,8 19,8 Z"/>
  <path fill="#292D32" opacity="0.4" d="M19,9.5 C16.52,9.5 14.5,7.48 14.5,5 C14.5,4.28 14.69,3.61 14.99,3 L7.52,3 C4.07,3 2,5.06 2,8.52 L2,16.47 C2,19.94 4.07,22 7.52,22 L15.47,22 C18.93,22 20.99,19.94 20.99,16.48 L20.99,9.01 C20.39,9.31 19.72,9.5 19,9.5 Z"/>
  <path fill="#292D32" d="M10.9,12.36 C10.33,12.18 9.72,12.28 9.29,12.62 C8.85,12.28 8.25,12.18 7.69,12.36 C6.46,12.76 6.07,14.16 6.42,15.24 C6.95,16.88 8.68,17.73 9.3,17.73 C9.91,17.73 11.67,16.86 12.18,15.24 C12.53,14.16 12.13,12.76 10.9,12.36 Z"/>
</svg>

