<svg xmlns="http://www.w3.org/2000/svg" width="24" height="24" viewBox="0 0 24 24">
  <defs/>
  <path fill="#292D32" d="M19,8 C20.657,8 22,6.657 22,5 C22,3.343 20.657,2 19,2 C17.343,2 16,3.343 16,5 C16,6.657 17.343,8 19,8 Z"/>
  <path fill="#292D32" opacity="0.4" d="M19,9.5 C16.52,9.5 14.5,7.48 14.5,5 C14.5,4.28 14.69,3.61 14.99,3 L7.52,3 C4.07,3 2,5.06 2,8.52 L2,16.47 C2,19.94 4.07,22 7.52,22 L15.47,22 C18.93,22 20.99,19.94 20.99,16.48 L20.99,9.01 C20.39,9.31 19.72,9.5 19,9.5 Z"/>
  <path fill="#292D32" d="M11.75,14 L6.75,14 C6.34,14 6,13.66 6,13.25 C6,12.84 6.34,12.5 6.75,12.5 L11.75,12.5 C12.16,12.5 12.5,12.84 12.5,13.25 C12.5,13.66 12.16,14 11.75,14 Z"/>
  <path fill="#292D32" d="M15.75,18 L6.75,18 C6.34,18 6,17.66 6,17.25 C6,16.84 6.34,16.5 6.75,16.5 L15.75,16.5 C16.16,16.5 16.5,16.84 16.5,17.25 C16.5,17.66 16.16,18 15.75,18 Z"/>
</svg>

