<svg xmlns="http://www.w3.org/2000/svg" width="24" height="24" viewBox="0 0 24 24">
  <defs/>
  <path fill="#292D32" d="M20.189,14.061 L19.059,12.181 C18.809,11.771 18.589,10.981 18.589,10.501 L18.589,8.631 C18.589,5.001 15.639,2.051 12.019,2.051 C8.389,2.061 5.439,5.001 5.439,8.631 L5.439,10.491 C5.439,10.971 5.219,11.761 4.979,12.171 L3.849,14.051 C3.419,14.781 3.319,15.611 3.589,16.331 C3.859,17.061 4.469,17.641 5.269,17.901 C6.349,18.261 7.439,18.521 8.549,18.711 C8.659,18.731 8.769,18.741 8.879,18.761 C9.019,18.781 9.169,18.801 9.319,18.821 C9.579,18.861 9.839,18.891 10.109,18.911 C10.739,18.971 11.379,19.001 12.019,19.001 C12.649,19.001 13.279,18.971 13.899,18.911 C14.129,18.891 14.359,18.871 14.579,18.841 C14.759,18.821 14.939,18.801 15.119,18.771 C15.229,18.761 15.339,18.741 15.449,18.721 C16.569,18.541 17.679,18.261 18.759,17.901 C19.529,17.641 20.119,17.061 20.399,16.321 C20.679,15.571 20.599,14.751 20.189,14.061 Z M12.749,10.001 C12.749,10.421 12.409,10.761 11.989,10.761 C11.569,10.761 11.229,10.421 11.229,10.001 L11.229,6.901 C11.229,6.481 11.569,6.141 11.989,6.141 C12.409,6.141 12.749,6.481 12.749,6.901 L12.749,10.001 Z"/>
  <path fill="#292D32" d="M14.83,20.01 C14.41,21.17 13.3,22 12,22 C11.21,22 10.43,21.68 9.88,21.11 C9.56,20.81 9.32,20.41 9.18,20 C9.31,20.02 9.44,20.03 9.58,20.05 C9.81,20.08 10.05,20.11 10.29,20.13 C10.86,20.18 11.44,20.21 12.02,20.21 C12.59,20.21 13.16,20.18 13.72,20.13 C13.93,20.11 14.14,20.1 14.34,20.07 C14.5,20.05 14.66,20.03 14.83,20.01 Z"/>
</svg>

