<svg xmlns="http://www.w3.org/2000/svg" width="24" height="24" viewBox="0 0 24 24">
  <defs/>
  <path fill="#292D32" d="M3.694,16.071 Q6.221,21.25 12,21.25 Q15.829,21.25 18.539,18.539 Q21.249,15.829 21.25,12 Q21.25,11.07 21.065,10.159 Q21.003,9.855 21.174,9.596 Q21.346,9.337 21.65,9.275 Q21.955,9.213 22.214,9.385 Q22.473,9.556 22.534,9.861 Q22.75,10.919 22.75,12 Q22.749,16.45 19.6,19.6 Q16.45,22.75 12,22.75 Q5.283,22.75 2.345,16.729 Q2.209,16.45 2.31,16.156 Q2.411,15.862 2.691,15.726 Q2.97,15.59 3.264,15.691 Q3.557,15.792 3.694,16.071 Z"/>
  <path fill="#292D32" d="M13.875,2.936 Q12.931,2.75 12,2.75 Q8.171,2.75 5.46,5.46 Q2.75,8.171 2.75,12 Q2.75,12.311 2.53,12.53 Q2.311,12.75 2,12.75 Q1.689,12.75 1.47,12.53 Q1.25,12.311 1.25,12 Q1.25,7.549 4.4,4.4 Q7.549,1.25 12,1.25 Q13.078,1.25 14.165,1.464 Q14.47,1.524 14.643,1.782 Q14.816,2.04 14.756,2.345 Q14.696,2.65 14.438,2.823 Q14.18,2.996 13.875,2.936 Z"/>
  <path fill="#292D32" d="M19,2.75 Q16.75,2.75 16.75,5 Q16.75,7.25 19,7.25 Q21.25,7.25 21.25,5 Q21.25,4.595 21.121,4.261 Q21.008,3.971 21.134,3.687 Q21.26,3.403 21.549,3.291 Q21.839,3.178 22.123,3.304 Q22.407,3.43 22.519,3.719 Q22.75,4.315 22.75,5 Q22.75,8.75 19,8.75 Q15.25,8.75 15.25,5 Q15.25,1.25 19,1.25 Q19.311,1.25 19.53,1.47 Q19.75,1.689 19.75,2 Q19.75,2.311 19.53,2.53 Q19.311,2.75 19,2.75 Z"/>
</svg>

