<svg xmlns="http://www.w3.org/2000/svg" width="24" height="24" viewBox="0 0 24 24">
  <defs/>
  <path fill="#292D32" d="M12,10.52 C11.59,10.52 11.25,10.18 11.25,9.77 L11.25,6.44 C11.25,6.03 11.59,5.69 12,5.69 C12.41,5.69 12.75,6.03 12.75,6.44 L12.75,9.77 C12.75,10.19 12.41,10.52 12,10.52 Z"/>
  <path fill="#292D32" d="M12.02,20.35 C9.44,20.35 6.87,19.94 4.42,19.12 C3.51,18.82 2.82,18.17 2.52,17.35 C2.22,16.53 2.32,15.59 2.81,14.77 L4.08,12.65 C4.36,12.18 4.61,11.3 4.61,10.75 L4.61,8.65 C4.61,4.56 7.93,1.24 12.02,1.24 C16.11,1.24 19.43,4.56 19.43,8.65 L19.43,10.75 C19.43,11.29 19.68,12.18 19.96,12.65 L21.23,14.77 C21.7,15.55 21.78,16.48 21.47,17.33 C21.16,18.18 20.48,18.83 19.62,19.12 C17.17,19.95 14.6,20.35 12.02,20.35 Z M12.02,2.75 C8.76,2.75 6.11,5.4 6.11,8.66 L6.11,10.76 C6.11,11.57 5.79,12.74 5.37,13.43 L4.1,15.56 C3.84,15.99 3.78,16.45 3.93,16.85 C4.08,17.25 4.42,17.55 4.9,17.71 C9.5,19.24 14.56,19.24 19.16,17.71 C19.59,17.57 19.92,17.25 20.07,16.83 C20.23,16.41 20.18,15.95 19.95,15.56 L18.68,13.44 C18.26,12.75 17.94,11.58 17.94,10.77 L17.94,8.67 C17.93,5.4 15.28,2.75 12.02,2.75 Z"/>
  <path fill="#292D32" d="M12,22.9 C10.93,22.9 9.88,22.46 9.12,21.7 C8.36,20.94 7.92,19.89 7.92,18.82 L9.42,18.82 C9.42,19.5 9.7,20.16 10.18,20.64 C10.66,21.12 11.32,21.4 12,21.4 C13.42,21.4 14.58,20.24 14.58,18.82 L16.08,18.82 C16.08,21.07 14.25,22.9 12,22.9 Z"/>
</svg>

