<svg xmlns="http://www.w3.org/2000/svg" width="24" height="24" viewBox="0 0 24 24">
  <defs/>
  <path d="M12,4.749 C11.9,4.749 11.8,4.739 11.71,4.719 C11.61,4.699 11.52,4.669 11.43,4.639 C11.34,4.599 11.25,4.549 11.17,4.499 C11.09,4.439 11.01,4.379 10.94,4.309 C10.66,4.029 10.5,3.649 10.5,3.249 C10.5,2.849 10.66,2.469 10.94,2.189 C11.01,2.119 11.09,2.059 11.17,1.999 C11.25,1.949 11.34,1.899 11.43,1.869 C11.52,1.829 11.61,1.799 11.71,1.779 C12.19,1.679 12.71,1.839 13.06,2.189 C13.34,2.469 13.5,2.849 13.5,3.249 C13.5,3.649 13.34,4.029 13.06,4.309 C12.78,4.589 12.39,4.749 12,4.749 Z"/>
  <path d="M12,9.25 C11.9,9.25 11.8,9.24 11.71,9.22 C11.61,9.2 11.52,9.17 11.43,9.14 C11.34,9.1 11.25,9.05 11.17,9 C11.09,8.94 11.01,8.88 10.94,8.81 C10.66,8.53 10.5,8.15 10.5,7.75 C10.5,7.35 10.66,6.97 10.94,6.69 C11.01,6.62 11.09,6.56 11.17,6.5 C11.25,6.45 11.34,6.4 11.43,6.37 C11.52,6.33 11.61,6.3 11.71,6.28 C11.9,6.24 12.1,6.24 12.29,6.28 C12.39,6.3 12.48,6.33 12.57,6.37 C12.66,6.4 12.75,6.45 12.83,6.5 C12.91,6.56 12.99,6.62 13.06,6.69 C13.34,6.97 13.5,7.35 13.5,7.75 C13.5,8.15 13.34,8.53 13.06,8.81 C12.99,8.88 12.91,8.94 12.83,9 C12.75,9.05 12.66,9.1 12.57,9.14 C12.48,9.17 12.39,9.2 12.29,9.22 C12.2,9.24 12.1,9.25 12,9.25 Z"/>
  <path d="M12,13.249 C11.9,13.249 11.8,13.239 11.71,13.219 C11.61,13.199 11.52,13.169 11.43,13.139 C11.34,13.099 11.25,13.049 11.17,12.999 C11.09,12.939 11.01,12.879 10.94,12.809 C10.87,12.739 10.81,12.669 10.75,12.579 C10.7,12.499 10.65,12.409 10.61,12.319 C10.58,12.229 10.55,12.139 10.53,12.039 C10.51,11.949 10.5,11.849 10.5,11.749 C10.5,11.349 10.66,10.969 10.94,10.689 C11.01,10.619 11.09,10.559 11.17,10.499 C11.25,10.449 11.34,10.399 11.43,10.359 C11.52,10.329 11.61,10.299 11.71,10.279 C12.19,10.179 12.71,10.339 13.06,10.689 C13.34,10.969 13.5,11.349 13.5,11.749 C13.5,11.849 13.49,11.949 13.47,12.039 C13.45,12.139 13.42,12.229 13.38,12.319 C13.35,12.409 13.3,12.499 13.25,12.579 C13.19,12.669 13.13,12.739 13.06,12.809 C12.99,12.879 12.91,12.939 12.83,12.999 C12.75,13.049 12.66,13.099 12.57,13.139 C12.48,13.169 12.39,13.199 12.29,13.219 C12.2,13.239 12.1,13.249 12,13.249 Z"/>
  <path d="M12,16.751 C11.74,16.751 11.48,16.641 11.29,16.461 C11.11,16.271 11,16.011 11,15.751 C11,15.491 11.11,15.231 11.29,15.041 C11.52,14.811 11.87,14.711 12.19,14.771 C12.26,14.781 12.32,14.801 12.38,14.831 C12.44,14.851 12.5,14.881 12.55,14.921 C12.61,14.961 12.66,15.001 12.71,15.041 C12.89,15.231 13,15.491 13,15.751 C13,16.011 12.89,16.271 12.71,16.461 C12.66,16.501 12.61,16.541 12.55,16.581 C12.5,16.621 12.44,16.651 12.38,16.671 C12.32,16.701 12.26,16.721 12.19,16.731 C12.13,16.741 12.06,16.751 12,16.751 Z"/>
  <path d="M12,20 C11.9,20 11.8,19.98 11.71,19.94 C11.62,19.9 11.54,19.85 11.47,19.78 C11.4,19.71 11.34,19.63 11.31,19.54 C11.27,19.45 11.25,19.35 11.25,19.25 C11.25,19.05 11.33,18.86 11.47,18.72 C11.54,18.65 11.62,18.6 11.71,18.56 C11.9,18.48 12.1,18.48 12.29,18.56 C12.38,18.6 12.46,18.65 12.53,18.72 C12.6,18.79 12.65,18.87 12.69,18.96 C12.73,19.05 12.75,19.15 12.75,19.25 C12.75,19.35 12.73,19.45 12.69,19.54 C12.65,19.63 12.6,19.71 12.53,19.78 C12.46,19.85 12.38,19.9 12.29,19.94 C12.19,19.98 12.1,20 12,20 Z"/>
  <path d="M12,22.071 C11.87,22.071 11.74,22.021 11.65,21.921 C11.55,21.831 11.5,21.701 11.5,21.571 C11.5,21.441 11.55,21.311 11.65,21.221 C11.83,21.031 12.17,21.031 12.35,21.221 C12.45,21.311 12.5,21.441 12.5,21.571 C12.5,21.701 12.45,21.831 12.35,21.921 C12.26,22.021 12.13,22.071 12,22.071 Z"/>
  <path d="M3.5,9.25 C3.1,9.25 2.72,9.09 2.44,8.81 C2.16,8.53 2,8.15 2,7.75 C2,7.36 2.16,6.97 2.44,6.69 C2.99,6.13 4,6.13 4.56,6.69 C4.84,6.97 5,7.36 5,7.75 C5,8.15 4.84,8.53 4.56,8.81 C4.49,8.88 4.41,8.94 4.33,9 C4.25,9.05 4.16,9.1 4.07,9.13 C3.98,9.17 3.89,9.2 3.79,9.22 C3.7,9.24 3.6,9.25 3.5,9.25 Z"/>
  <path d="M20.5,9.25 C20.11,9.25 19.72,9.09 19.44,8.81 C19.16,8.53 19,8.14 19,7.75 C19,7.65 19.01,7.55 19.03,7.46 C19.05,7.36 19.08,7.27 19.11,7.18 C19.15,7.09 19.2,7 19.25,6.92 C19.31,6.84 19.37,6.76 19.44,6.69 C19.51,6.62 19.59,6.56 19.67,6.5 C19.75,6.45 19.84,6.4 19.93,6.37 C20.02,6.33 20.11,6.3 20.21,6.28 C20.4,6.24 20.6,6.24 20.79,6.28 C20.89,6.3 20.98,6.33 21.07,6.37 C21.16,6.4 21.25,6.45 21.33,6.5 C21.41,6.56 21.49,6.62 21.56,6.69 C21.63,6.76 21.69,6.84 21.75,6.92 C21.8,7 21.85,7.09 21.88,7.18 C21.92,7.27 21.95,7.36 21.97,7.46 C21.99,7.55 22,7.65 22,7.75 C22,8.15 21.84,8.53 21.56,8.81 C21.49,8.88 21.41,8.94 21.33,9 C21.25,9.05 21.16,9.1 21.07,9.14 C20.98,9.17 20.89,9.2 20.79,9.22 C20.69,9.24 20.6,9.25 20.5,9.25 Z"/>
  <path d="M20.5,12.749 C20.44,12.749 20.37,12.739 20.31,12.729 C20.24,12.719 20.18,12.699 20.12,12.669 C20.06,12.649 20,12.619 19.94,12.579 C19.89,12.549 19.84,12.499 19.79,12.459 C19.75,12.409 19.7,12.359 19.67,12.309 C19.63,12.249 19.6,12.189 19.58,12.129 C19.55,12.069 19.53,12.009 19.52,11.949 C19.51,11.879 19.5,11.819 19.5,11.749 C19.5,11.489 19.61,11.229 19.79,11.039 C19.84,10.999 19.89,10.959 19.94,10.919 C20,10.879 20.06,10.849 20.12,10.829 C20.18,10.799 20.24,10.779 20.31,10.769 C20.43,10.739 20.56,10.739 20.69,10.769 C20.76,10.779 20.82,10.799 20.88,10.829 C20.94,10.849 21,10.879 21.05,10.919 C21.11,10.959 21.16,10.999 21.21,11.039 C21.39,11.229 21.5,11.489 21.5,11.749 C21.5,11.819 21.49,11.879 21.48,11.949 C21.47,12.009 21.45,12.069 21.42,12.129 C21.4,12.189 21.37,12.249 21.33,12.309 C21.29,12.359 21.25,12.409 21.21,12.459 C21.16,12.499 21.11,12.549 21.05,12.579 C21,12.619 20.94,12.649 20.88,12.669 C20.82,12.699 20.76,12.719 20.69,12.729 C20.63,12.739 20.56,12.749 20.5,12.749 Z"/>
  <path d="M3.5,12.749 C3.24,12.749 2.98,12.639 2.79,12.459 C2.61,12.269 2.5,12.009 2.5,11.749 C2.5,11.489 2.61,11.229 2.79,11.039 C3.07,10.759 3.51,10.669 3.88,10.829 C4.01,10.879 4.11,10.949 4.21,11.039 C4.39,11.229 4.5,11.489 4.5,11.749 C4.5,12.009 4.39,12.269 4.21,12.459 C4.02,12.639 3.76,12.749 3.5,12.749 Z"/>
  <path d="M20.5,15.498 C20.3,15.498 20.11,15.418 19.97,15.278 C19.83,15.139 19.75,14.948 19.75,14.748 C19.75,14.649 19.77,14.559 19.81,14.459 C19.85,14.368 19.9,14.289 19.97,14.219 C20.18,14.008 20.51,13.938 20.79,14.059 C20.88,14.098 20.96,14.149 21.03,14.219 C21.1,14.289 21.15,14.368 21.19,14.459 C21.23,14.559 21.25,14.649 21.25,14.748 C21.25,14.948 21.17,15.139 21.03,15.278 C20.96,15.348 20.88,15.399 20.79,15.438 C20.69,15.479 20.6,15.498 20.5,15.498 Z"/>
  <path d="M3.5,15.502 C3.3,15.502 3.11,15.422 2.97,15.282 C2.9,15.212 2.84,15.132 2.81,15.042 C2.77,14.952 2.75,14.852 2.75,14.752 C2.75,14.652 2.77,14.562 2.81,14.462 C2.84,14.372 2.9,14.292 2.97,14.222 C3.24,13.942 3.75,13.942 4.03,14.222 C4.1,14.292 4.15,14.372 4.19,14.462 C4.23,14.562 4.25,14.652 4.25,14.752 C4.25,14.852 4.23,14.952 4.19,15.042 C4.15,15.132 4.1,15.212 4.03,15.282 C3.89,15.422 3.7,15.502 3.5,15.502 Z"/>
  <path d="M20.5,18 C20.43,18 20.37,17.99 20.31,17.96 C20.25,17.94 20.19,17.9 20.15,17.85 C20.05,17.76 20,17.63 20,17.5 C20,17.37 20.05,17.24 20.15,17.15 C20.33,16.96 20.67,16.96 20.85,17.15 C20.95,17.24 21,17.37 21,17.5 C21,17.63 20.95,17.76 20.85,17.85 C20.76,17.95 20.63,18 20.5,18 Z"/>
  <path d="M3.5,18 C3.37,18 3.24,17.95 3.15,17.85 C3.05,17.76 3,17.63 3,17.5 C3,17.37 3.05,17.24 3.15,17.15 C3.33,16.96 3.67,16.96 3.85,17.15 C3.95,17.24 4,17.37 4,17.5 C4,17.63 3.95,17.76 3.85,17.85 C3.76,17.95 3.63,18 3.5,18 Z"/>
  <path d="M7.75,7 C7.65,7 7.55,6.99 7.46,6.97 C7.36,6.95 7.27,6.92 7.18,6.88 C7.08,6.85 7,6.8 6.92,6.75 C6.83,6.69 6.76,6.63 6.69,6.56 C6.41,6.28 6.25,5.89 6.25,5.5 C6.25,5.11 6.41,4.72 6.69,4.44 C7.25,3.88 8.25,3.88 8.81,4.44 C9.09,4.72 9.25,5.1 9.25,5.5 C9.25,5.9 9.09,6.28 8.81,6.56 C8.74,6.63 8.66,6.69 8.58,6.75 C8.5,6.8 8.41,6.85 8.32,6.88 C8.23,6.92 8.14,6.95 8.04,6.97 C7.95,6.99 7.85,7 7.75,7 Z"/>
  <path d="M16.25,7 C16.15,7 16.05,6.99 15.96,6.97 C15.86,6.95 15.77,6.92 15.68,6.88 C15.59,6.85 15.5,6.8 15.42,6.75 C15.34,6.69 15.26,6.63 15.19,6.56 C15.12,6.49 15.06,6.41 15,6.33 C14.95,6.25 14.9,6.16 14.86,6.07 C14.83,5.98 14.8,5.89 14.78,5.79 C14.76,5.7 14.75,5.6 14.75,5.5 C14.75,5.11 14.91,4.72 15.19,4.44 C15.26,4.37 15.34,4.31 15.42,4.25 C15.5,4.2 15.59,4.15 15.68,4.12 C15.77,4.08 15.86,4.05 15.96,4.03 C16.15,3.99 16.35,3.99 16.54,4.03 C16.64,4.05 16.73,4.08 16.82,4.12 C16.91,4.15 17,4.2 17.08,4.25 C17.16,4.31 17.24,4.37 17.31,4.44 C17.59,4.72 17.75,5.11 17.75,5.5 C17.75,5.6 17.74,5.7 17.72,5.79 C17.7,5.89 17.67,5.98 17.64,6.07 C17.6,6.16 17.55,6.25 17.5,6.33 C17.44,6.41 17.38,6.49 17.31,6.56 C17.24,6.63 17.16,6.69 17.08,6.75 C17,6.8 16.91,6.85 16.82,6.88 C16.73,6.92 16.64,6.95 16.54,6.97 C16.45,6.99 16.35,7 16.25,7 Z"/>
  <path d="M7.75,11.249 C7.65,11.249 7.55,11.239 7.46,11.22 C7.36,11.2 7.27,11.169 7.18,11.139 C7.09,11.1 7,11.05 6.92,10.999 C6.83,10.94 6.76,10.88 6.69,10.809 C6.41,10.53 6.25,10.139 6.25,9.75 C6.25,9.35 6.41,8.97 6.69,8.69 C7.25,8.13 8.25,8.13 8.81,8.69 C9.09,8.97 9.25,9.35 9.25,9.75 C9.25,10.149 9.09,10.53 8.81,10.809 C8.53,11.089 8.14,11.249 7.75,11.249 Z"/>
  <path d="M16.25,11.25 C16.15,11.25 16.05,11.24 15.96,11.22 C15.86,11.2 15.77,11.17 15.68,11.13 C15.59,11.1 15.5,11.05 15.42,11 C15.34,10.94 15.26,10.88 15.19,10.81 C15.12,10.74 15.06,10.66 15,10.58 C14.95,10.5 14.9,10.41 14.86,10.32 C14.83,10.23 14.8,10.14 14.78,10.04 C14.76,9.95 14.75,9.85 14.75,9.75 C14.75,9.36 14.91,8.97 15.19,8.69 C15.26,8.62 15.34,8.56 15.42,8.5 C15.5,8.45 15.59,8.4 15.68,8.37 C15.77,8.33 15.86,8.3 15.96,8.28 C16.15,8.24 16.35,8.24 16.54,8.28 C16.64,8.3 16.73,8.33 16.82,8.37 C16.91,8.4 17,8.45 17.08,8.5 C17.16,8.56 17.24,8.62 17.31,8.69 C17.59,8.97 17.75,9.36 17.75,9.75 C17.75,9.85 17.74,9.95 17.72,10.04 C17.7,10.14 17.67,10.23 17.64,10.32 C17.6,10.41 17.55,10.5 17.5,10.58 C17.44,10.66 17.38,10.74 17.31,10.81 C17.24,10.88 17.16,10.94 17.08,11 C17,11.05 16.91,11.1 16.82,11.13 C16.73,11.17 16.64,11.2 16.54,11.22 C16.45,11.24 16.35,11.25 16.25,11.25 Z"/>
  <path d="M7.75,14.749 C7.62,14.749 7.49,14.719 7.37,14.669 C7.24,14.619 7.13,14.549 7.04,14.459 C6.95,14.359 6.88,14.249 6.83,14.129 C6.78,14.009 6.75,13.879 6.75,13.749 C6.75,13.489 6.86,13.229 7.04,13.039 C7.41,12.669 8.09,12.669 8.46,13.039 C8.64,13.229 8.75,13.489 8.75,13.749 C8.75,13.879 8.72,14.009 8.67,14.129 C8.62,14.249 8.55,14.359 8.46,14.459 C8.27,14.639 8.01,14.749 7.75,14.749 Z"/>
  <path d="M16.25,14.749 C15.99,14.749 15.73,14.639 15.54,14.459 C15.36,14.269 15.25,14.009 15.25,13.749 C15.25,13.489 15.36,13.229 15.54,13.039 C15.91,12.669 16.58,12.669 16.96,13.039 C17.14,13.229 17.25,13.489 17.25,13.749 C17.25,13.819 17.24,13.879 17.23,13.949 C17.22,14.009 17.2,14.069 17.17,14.129 C17.15,14.189 17.12,14.249 17.08,14.299 C17.04,14.359 17,14.409 16.96,14.459 C16.77,14.639 16.51,14.749 16.25,14.749 Z"/>
  <path d="M7.75,17.75 C7.55,17.75 7.36,17.67 7.22,17.53 C7.15,17.46 7.1,17.38 7.06,17.29 C7.02,17.2 7,17.1 7,17 C7,16.9 7.02,16.81 7.06,16.71 C7.1,16.62 7.15,16.54 7.22,16.47 C7.29,16.4 7.37,16.35 7.46,16.31 C7.64,16.23 7.85,16.23 8.04,16.31 C8.13,16.35 8.21,16.4 8.28,16.47 C8.42,16.61 8.5,16.8 8.5,17 C8.5,17.1 8.48,17.2 8.44,17.29 C8.4,17.38 8.35,17.46 8.28,17.53 C8.14,17.67 7.95,17.75 7.75,17.75 Z"/>
  <path d="M16.25,17.75 C16.15,17.75 16.05,17.73 15.96,17.69 C15.87,17.65 15.79,17.6 15.72,17.53 C15.65,17.46 15.59,17.38 15.56,17.29 C15.52,17.2 15.5,17.1 15.5,17 C15.5,16.9 15.52,16.8 15.56,16.71 C15.6,16.62 15.65,16.54 15.72,16.47 C15.79,16.4 15.87,16.35 15.96,16.31 C16.14,16.23 16.35,16.23 16.54,16.31 C16.63,16.35 16.71,16.4 16.78,16.47 C16.85,16.54 16.9,16.62 16.94,16.71 C16.98,16.8 17,16.9 17,17 C17,17.1 16.98,17.2 16.94,17.29 C16.9,17.38 16.85,17.46 16.78,17.53 C16.64,17.67 16.45,17.75 16.25,17.75 Z"/>
  <path d="M7.75,20 C7.62,20 7.49,19.95 7.4,19.85 C7.3,19.76 7.25,19.63 7.25,19.5 C7.25,19.37 7.3,19.24 7.4,19.15 C7.58,18.96 7.92,18.96 8.1,19.15 C8.2,19.24 8.25,19.37 8.25,19.5 C8.25,19.63 8.2,19.76 8.1,19.85 C8.01,19.95 7.88,20 7.75,20 Z"/>
  <path d="M16.25,20 C16.18,20 16.12,19.99 16.06,19.96 C16,19.94 15.94,19.9 15.9,19.85 C15.85,19.81 15.81,19.75 15.79,19.69 C15.76,19.63 15.75,19.57 15.75,19.5 C15.75,19.37 15.8,19.24 15.9,19.15 C16.08,18.96 16.42,18.96 16.6,19.15 C16.7,19.24 16.75,19.37 16.75,19.5 C16.75,19.57 16.74,19.63 16.71,19.69 C16.69,19.75 16.65,19.81 16.6,19.85 C16.51,19.95 16.38,20 16.25,20 Z"/>
</svg>

