<svg xmlns="http://www.w3.org/2000/svg" width="24" height="24" viewBox="0 0 24 24">
  <defs/>
  <path d="M13.5,3.2 L13.5,3.21 Q13.5,3.831 13.061,4.271 Q12.621,4.71 12,4.71 Q11.379,4.71 10.939,4.271 Q10.5,3.831 10.5,3.21 L10.5,3.2 Q10.5,2.579 10.939,2.139 Q11.379,1.7 12,1.7 Q12.621,1.7 13.061,2.139 Q13.5,2.579 13.5,3.2 Z"/>
  <path d="M13.5,7.7 L13.5,7.71 Q13.5,8.331 13.061,8.771 Q12.621,9.21 12,9.21 Q11.379,9.21 10.939,8.771 Q10.5,8.331 10.5,7.71 L10.5,7.7 Q10.5,7.079 10.939,6.639 Q11.379,6.2 12,6.2 Q12.621,6.2 13.061,6.639 Q13.5,7.079 13.5,7.7 Z"/>
  <path d="M13.5,11.7 L13.5,11.71 Q13.5,12.331 13.061,12.771 Q12.621,13.21 12,13.21 Q11.379,13.21 10.939,12.771 Q10.5,12.331 10.5,11.71 L10.5,11.7 Q10.5,11.079 10.939,10.639 Q11.379,10.2 12,10.2 Q12.621,10.2 13.061,10.639 Q13.5,11.079 13.5,11.7 Z"/>
  <path d="M13,15.7 L13,15.71 Q13,16.124 12.707,16.417 Q12.414,16.71 12,16.71 Q11.586,16.71 11.293,16.417 Q11,16.124 11,15.71 L11,15.7 Q11,15.286 11.293,14.993 Q11.586,14.7 12,14.7 Q12.414,14.7 12.707,14.993 Q13,15.286 13,15.7 Z"/>
  <path d="M12.75,19.2 L12.75,19.21 Q12.75,19.521 12.53,19.74 Q12.311,19.96 12,19.96 Q11.689,19.96 11.47,19.74 Q11.25,19.521 11.25,19.21 L11.25,19.2 Q11.25,18.889 11.47,18.67 Q11.689,18.45 12,18.45 Q12.311,18.45 12.53,18.67 Q12.75,18.889 12.75,19.2 Z"/>
  <path d="M12.5,22.2 L12.5,22.21 Q12.5,22.417 12.354,22.564 Q12.207,22.71 12,22.71 Q11.793,22.71 11.646,22.564 Q11.5,22.417 11.5,22.21 L11.5,22.2 Q11.5,21.993 11.646,21.846 Q11.793,21.7 12,21.7 Q12.207,21.7 12.354,21.846 Q12.5,21.993 12.5,22.2 Z"/>
  <path d="M5,7.7 L5,7.71 Q5,8.331 4.561,8.771 Q4.121,9.21 3.5,9.21 Q2.879,9.21 2.439,8.771 Q2,8.331 2,7.71 L2,7.7 Q2,7.079 2.439,6.639 Q2.879,6.2 3.5,6.2 Q4.121,6.2 4.561,6.639 Q5,7.079 5,7.7 Z"/>
  <path d="M22,7.7 L22,7.71 Q22,8.331 21.561,8.771 Q21.121,9.21 20.5,9.21 Q19.879,9.21 19.439,8.771 Q19,8.331 19,7.71 L19,7.7 Q19,7.079 19.439,6.639 Q19.879,6.2 20.5,6.2 Q21.121,6.2 21.561,6.639 Q22,7.079 22,7.7 Z"/>
  <path d="M21.5,11.7 L21.5,11.71 Q21.5,12.124 21.207,12.417 Q20.914,12.71 20.5,12.71 Q20.086,12.71 19.793,12.417 Q19.5,12.124 19.5,11.71 L19.5,11.7 Q19.5,11.286 19.793,10.993 Q20.086,10.7 20.5,10.7 Q20.914,10.7 21.207,10.993 Q21.5,11.286 21.5,11.7 Z"/>
  <path d="M4.5,11.7 L4.5,11.71 Q4.5,12.124 4.207,12.417 Q3.914,12.71 3.5,12.71 Q3.086,12.71 2.793,12.417 Q2.5,12.124 2.5,11.71 L2.5,11.7 Q2.5,11.286 2.793,10.993 Q3.086,10.7 3.5,10.7 Q3.914,10.7 4.207,10.993 Q4.5,11.286 4.5,11.7 Z"/>
  <path d="M21.25,14.7 L21.25,14.71 Q21.25,15.021 21.03,15.24 Q20.811,15.46 20.5,15.46 Q20.189,15.46 19.97,15.24 Q19.75,15.021 19.75,14.71 L19.75,14.7 Q19.75,14.389 19.97,14.17 Q20.189,13.95 20.5,13.95 Q20.811,13.95 21.03,14.17 Q21.25,14.389 21.25,14.7 Z"/>
  <path d="M21,17.7 L21,17.71 Q21,17.917 20.854,18.064 Q20.707,18.21 20.5,18.21 Q20.293,18.21 20.146,18.064 Q20,17.917 20,17.71 L20,17.7 Q20,17.493 20.146,17.346 Q20.293,17.2 20.5,17.2 Q20.707,17.2 20.854,17.346 Q21,17.493 21,17.7 Z"/>
  <path d="M4.25,14.7 L4.25,14.71 Q4.25,15.021 4.03,15.24 Q3.811,15.46 3.5,15.46 Q3.189,15.46 2.97,15.24 Q2.75,15.021 2.75,14.71 L2.75,14.7 Q2.75,14.389 2.97,14.17 Q3.189,13.95 3.5,13.95 Q3.811,13.95 4.03,14.17 Q4.25,14.389 4.25,14.7 Z"/>
  <path d="M4,17.7 L4,17.71 Q4,17.917 3.854,18.064 Q3.707,18.21 3.5,18.21 Q3.293,18.21 3.146,18.064 Q3,17.917 3,17.71 L3,17.7 Q3,17.493 3.146,17.346 Q3.293,17.2 3.5,17.2 Q3.707,17.2 3.854,17.346 Q4,17.493 4,17.7 Z"/>
  <path d="M9.301,9.7 L9.301,9.71 Q9.301,10.331 8.861,10.771 Q8.422,11.21 7.801,11.21 Q7.179,11.21 6.74,10.771 Q6.301,10.331 6.301,9.71 L6.301,9.7 Q6.301,9.079 6.74,8.639 Q7.179,8.2 7.801,8.2 Q8.422,8.2 8.861,8.639 Q9.301,9.079 9.301,9.7 Z"/>
  <path d="M9.25,5.5 L9.25,5.51 Q9.25,6.131 8.811,6.571 Q8.371,7.01 7.75,7.01 Q7.129,7.01 6.689,6.571 Q6.25,6.131 6.25,5.51 L6.25,5.5 Q6.25,4.879 6.689,4.439 Q7.129,4 7.75,4 Q8.371,4 8.811,4.439 Q9.25,4.879 9.25,5.5 Z"/>
  <path d="M17.699,9.7 L17.699,9.71 Q17.699,10.331 17.26,10.771 Q16.821,11.21 16.199,11.21 Q15.578,11.21 15.139,10.771 Q14.699,10.331 14.699,9.71 L14.699,9.7 Q14.699,9.079 15.139,8.639 Q15.578,8.2 16.199,8.2 Q16.821,8.2 17.26,8.639 Q17.699,9.079 17.699,9.7 Z"/>
  <path d="M17.75,5.5 L17.75,5.51 Q17.75,6.131 17.311,6.571 Q16.871,7.01 16.25,7.01 Q15.629,7.01 15.189,6.571 Q14.75,6.131 14.75,5.51 L14.75,5.5 Q14.75,4.879 15.189,4.439 Q15.629,4 16.25,4 Q16.871,4 17.311,4.439 Q17.75,4.879 17.75,5.5 Z"/>
  <path d="M8.801,13.7 L8.801,13.71 Q8.801,14.124 8.508,14.417 Q8.215,14.71 7.801,14.71 Q7.387,14.71 7.094,14.417 Q6.801,14.124 6.801,13.71 L6.801,13.7 Q6.801,13.286 7.094,12.993 Q7.387,12.7 7.801,12.7 Q8.215,12.7 8.508,12.993 Q8.801,13.286 8.801,13.7 Z"/>
  <path d="M8.551,16.7 L8.551,16.71 Q8.551,17.021 8.331,17.24 Q8.111,17.46 7.801,17.46 Q7.49,17.46 7.27,17.24 Q7.051,17.021 7.051,16.71 L7.051,16.7 Q7.051,16.389 7.27,16.17 Q7.49,15.95 7.801,15.95 Q8.111,15.95 8.331,16.17 Q8.551,16.389 8.551,16.7 Z"/>
  <path d="M8.301,19.7 L8.301,19.71 Q8.301,19.917 8.154,20.064 Q8.008,20.21 7.801,20.21 Q7.594,20.21 7.447,20.064 Q7.301,19.917 7.301,19.71 L7.301,19.7 Q7.301,19.493 7.447,19.346 Q7.594,19.2 7.801,19.2 Q8.008,19.2 8.154,19.346 Q8.301,19.493 8.301,19.7 Z"/>
  <path d="M17.199,13.7 L17.199,13.71 Q17.199,14.124 16.906,14.417 Q16.613,14.71 16.199,14.71 Q15.785,14.71 15.492,14.417 Q15.199,14.124 15.199,13.71 L15.199,13.7 Q15.199,13.286 15.492,12.993 Q15.785,12.7 16.199,12.7 Q16.613,12.7 16.906,12.993 Q17.199,13.286 17.199,13.7 Z"/>
  <path d="M16.949,16.7 L16.949,16.71 Q16.949,17.021 16.73,17.24 Q16.51,17.46 16.199,17.46 Q15.889,17.46 15.669,17.24 Q15.449,17.021 15.449,16.71 L15.449,16.7 Q15.449,16.389 15.669,16.17 Q15.889,15.95 16.199,15.95 Q16.51,15.95 16.73,16.17 Q16.949,16.389 16.949,16.7 Z"/>
  <path d="M16.699,19.7 L16.699,19.71 Q16.699,19.917 16.553,20.064 Q16.406,20.21 16.199,20.21 Q15.992,20.21 15.846,20.064 Q15.699,19.917 15.699,19.71 L15.699,19.7 Q15.699,19.493 15.846,19.346 Q15.992,19.2 16.199,19.2 Q16.406,19.2 16.553,19.346 Q16.699,19.493 16.699,19.7 Z"/>
</svg>

