<svg xmlns="http://www.w3.org/2000/svg" width="24" height="24" viewBox="0 0 24 24">
  <defs/>
  <path fill="white" d="M24,0 L0,0 L0,24 L24,24 L24,0 Z"/>
  <path fill="#292D32" opacity="0.4" d="M22,12 C22,14.76 19.76,17 17,17 C17,14.24 14.76,12 12,12 C14.76,12 17,9.76 17,7 C19.76,7 22,9.24 22,12 Z"/>
  <path fill="#292D32" d="M17,17 C14.24,17 12,14.76 12,12 C14.76,12 17,14.24 17,17 Z"/>
  <path fill="#292D32" opacity="0.4" d="M17,17 C17,19.76 14.76,22 12,22 C9.24,22 7,19.76 7,17 C9.76,17 12,14.76 12,12 C12,14.76 14.24,17 17,17 Z"/>
  <path fill="#292D32" d="M17,7 C17,9.76 14.76,12 12,12 C12,9.24 14.24,7 17,7 Z"/>
  <path fill="#292D32" opacity="0.4" d="M17,7 C14.24,7 12,9.24 12,12 C12,9.24 9.76,7 7,7 C7,4.24 9.24,2 12,2 C14.76,2 17,4.24 17,7 Z"/>
  <path fill="#292D32" d="M12,12 C12,14.76 9.76,17 7,17 C7,14.24 9.24,12 12,12 Z"/>
  <path fill="#292D32" d="M12,12 C9.24,12 7,9.76 7,7 C9.76,7 12,9.24 12,12 Z"/>
  <path fill="#292D32" opacity="0.4" d="M12,12 C9.24,12 7,14.24 7,17 C4.24,17 2,14.76 2,12 C2,9.24 4.24,7 7,7 C7,9.76 9.24,12 12,12 Z"/>
</svg>

