<svg xmlns="http://www.w3.org/2000/svg" width="24" height="24" viewBox="0 0 24 24">
  <defs/>
  <path d="M17,7 C17,9.76 14.76,12 12,12 C14.76,12 17,14.24 17,17 C19.76,17 22,14.76 22,12 C22,9.24 19.76,7 17,7 Z"/>
  <path d="M12,12 C12,14.76 9.76,17 7,17 C7,19.76 9.24,22 12,22 C14.76,22 17,19.76 17,17 C14.24,17 12,14.76 12,12 Z"/>
  <path d="M12,12 C12,9.24 14.24,7 17,7 C17,4.24 14.76,2 12,2 C9.24,2 7,4.24 7,7 C9.76,7 12,9.24 12,12 Z"/>
  <path d="M12,12 C9.24,12 7,9.76 7,7 C4.24,7 2,9.24 2,12 C2,14.76 4.24,17 7,17 C7,14.24 9.24,12 12,12 Z"/>
</svg>

