<svg xmlns="http://www.w3.org/2000/svg" width="24" height="24" viewBox="0 0 24 24">
  <defs/>
  <path fill="#292D32" d="M22.75,15 Q22.75,22.75 15,22.75 L9,22.75 Q1.25,22.75 1.25,15 L1.25,9 Q1.25,1.25 9,1.25 L15,1.25 Q22.75,1.25 22.75,9 Z M21.25,15 L21.25,9 Q21.25,2.75 15,2.75 L9,2.75 Q2.75,2.75 2.75,9 L2.75,15 Q2.75,18.439 4.155,19.845 Q5.561,21.25 9,21.25 L15,21.25 Q18.439,21.25 19.845,19.845 Q21.25,18.439 21.25,15 Z"/>
  <path fill="#292D32" opacity="0.4" d="M17,17.5 L13.9,17.5 Q13.589,17.5 13.37,17.28 Q13.15,17.061 13.15,16.75 Q13.15,16.461 13.344,16.247 L14.964,14.457 Q16.01,13.293 16.01,11.78 Q16.01,10.228 14.852,9.122 Q13.677,8 12,8 Q10.336,8 9.145,9.125 Q7.99,10.228 7.99,11.78 Q7.99,13.306 9.035,14.455 L10.656,16.247 Q10.865,16.477 10.849,16.787 Q10.834,17.098 10.603,17.306 Q10.389,17.5 10.1,17.5 L7,17.5 Q6.689,17.5 6.47,17.28 Q6.25,17.061 6.25,16.75 Q6.25,16.439 6.47,16.22 Q6.689,16 7,16 L8.41,16 L7.925,15.465 Q6.49,13.886 6.49,11.78 Q6.49,9.587 8.115,8.035 Q9.74,6.5 12,6.5 Q14.278,6.5 15.888,8.038 Q17.51,9.587 17.51,11.78 Q17.51,13.868 16.076,15.463 L15.59,16 L17,16 Q17.311,16 17.53,16.22 Q17.75,16.439 17.75,16.75 Q17.75,17.061 17.53,17.28 Q17.311,17.5 17,17.5 Z"/>
</svg>

