<svg xmlns="http://www.w3.org/2000/svg" width="24" height="24" viewBox="0 0 24 24">
  <defs/>
  <path fill="#292D32" opacity="0.4" d="M12,22 C17.523,22 22,17.523 22,12 C22,6.477 17.523,2 12,2 C6.477,2 2,6.477 2,12 C2,17.523 6.477,22 12,22 Z"/>
  <path fill="#292D32" d="M17,17.25 L13.9,17.25 C13.6,17.25 13.33,17.08 13.21,16.8 C13.09,16.52 13.14,16.21 13.34,15.99 L14.96,14.2 C15.63,13.45 16.01,12.5 16.01,11.52 C16.01,10.52 15.6,9.58 14.85,8.87 C14.1,8.16 13.06,7.75 12,7.75 C10.94,7.75 9.9,8.16 9.15,8.87 C8.4,9.58 7.99,10.52 7.99,11.52 C7.99,12.5 8.36,13.45 9.04,14.2 L10.66,15.99 C10.86,16.21 10.91,16.53 10.79,16.8 C10.67,17.07 10.4,17.25 10.1,17.25 L7,17.25 C6.59,17.25 6.25,16.91 6.25,16.5 C6.25,16.09 6.59,15.75 7,15.75 L8.41,15.75 L7.92,15.21 C7,14.19 6.49,12.88 6.49,11.52 C6.49,10.13 7.08,8.76 8.12,7.78 C9.16,6.79 10.54,6.25 12,6.25 C13.46,6.25 14.84,6.79 15.88,7.78 C16.91,8.76 17.51,10.13 17.51,11.52 C17.51,12.87 17,14.18 16.08,15.21 L15.59,15.75 L17,15.75 C17.41,15.75 17.75,16.09 17.75,16.5 C17.75,16.91 17.41,17.25 17,17.25 Z"/>
</svg>

