<svg xmlns="http://www.w3.org/2000/svg" width="24" height="24" viewBox="0 0 24 24">
  <defs/>
  <path fill="#292D32" d="M15,22.75 L9,22.75 C3.57,22.75 1.25,20.43 1.25,15 L1.25,9 C1.25,3.57 3.57,1.25 9,1.25 L15,1.25 C20.43,1.25 22.75,3.57 22.75,9 L22.75,15 C22.75,20.43 20.43,22.75 15,22.75 Z M9,2.75 C4.39,2.75 2.75,4.39 2.75,9 L2.75,15 C2.75,19.61 4.39,21.25 9,21.25 L15,21.25 C19.61,21.25 21.25,19.61 21.25,15 L21.25,9 C21.25,4.39 19.61,2.75 15,2.75 L9,2.75 Z"/>
  <path fill="#292D32" d="M17,17.5 L13.9,17.5 C13.6,17.5 13.33,17.33 13.21,17.05 C13.09,16.77 13.14,16.46 13.34,16.24 L14.96,14.45 C15.63,13.7 16.01,12.75 16.01,11.77 C16.01,10.77 15.6,9.83 14.85,9.12 C14.1,8.41 13.06,8 12,8 C10.94,8 9.9,8.41 9.15,9.12 C8.4,9.83 7.99,10.77 7.99,11.77 C7.99,12.75 8.36,13.7 9.04,14.45 L10.66,16.24 C10.86,16.46 10.91,16.78 10.79,17.05 C10.67,17.32 10.4,17.5 10.1,17.5 L7,17.5 C6.59,17.5 6.25,17.16 6.25,16.75 C6.25,16.34 6.59,16 7,16 L8.41,16 L7.92,15.46 C7,14.44 6.49,13.13 6.49,11.77 C6.49,10.38 7.08,9.01 8.12,8.03 C9.16,7.04 10.54,6.5 12,6.5 C13.46,6.5 14.84,7.04 15.88,8.03 C16.91,9.01 17.51,10.38 17.51,11.77 C17.51,13.12 17,14.43 16.08,15.46 L15.59,16 L17,16 C17.41,16 17.75,16.34 17.75,16.75 C17.75,17.16 17.41,17.5 17,17.5 Z"/>
</svg>

