<svg xmlns="http://www.w3.org/2000/svg" width="24" height="24" viewBox="0 0 24 24">
  <defs/>
  <path fill="#292D32" d="M17,17.25 L13.9,17.25 Q13.589,17.25 13.37,17.03 Q13.15,16.811 13.15,16.5 Q13.15,16.211 13.344,15.997 L14.964,14.207 Q16.01,13.043 16.01,11.53 Q16.01,9.978 14.852,8.872 Q13.677,7.75 12,7.75 Q10.336,7.75 9.145,8.875 Q7.99,9.978 7.99,11.53 Q7.99,13.056 9.035,14.205 L10.656,15.997 Q10.865,16.227 10.849,16.537 Q10.834,16.848 10.603,17.056 Q10.389,17.25 10.1,17.25 L7,17.25 Q6.689,17.25 6.47,17.03 Q6.25,16.811 6.25,16.5 Q6.25,16.189 6.47,15.97 Q6.689,15.75 7,15.75 L8.41,15.75 L7.925,15.215 Q6.49,13.636 6.49,11.53 Q6.49,9.337 8.115,7.785 Q9.74,6.25 12,6.25 Q14.278,6.25 15.888,7.788 Q17.51,9.337 17.51,11.53 Q17.51,13.618 16.076,15.213 L15.59,15.75 L17,15.75 Q17.311,15.75 17.53,15.97 Q17.75,16.189 17.75,16.5 Q17.75,16.811 17.53,17.03 Q17.311,17.25 17,17.25 Z"/>
  <path fill="#292D32" d="M4.6,6.449 Q2.75,8.922 2.75,12 Q2.75,15.829 5.46,18.54 Q8.171,21.25 12,21.25 Q15.829,21.25 18.54,18.54 Q21.25,15.829 21.25,12 Q21.25,8.171 18.54,5.46 Q15.829,2.75 12,2.75 Q10.031,2.75 8.276,3.535 Q7.993,3.661 7.702,3.551 Q7.412,3.44 7.285,3.156 Q7.158,2.873 7.269,2.582 Q7.38,2.292 7.664,2.165 Q9.711,1.25 12,1.25 Q16.451,1.25 19.6,4.4 Q22.75,7.549 22.75,12 Q22.75,16.451 19.6,19.6 Q16.451,22.75 12,22.75 Q7.549,22.75 4.4,19.6 Q1.25,16.451 1.25,12 Q1.25,8.422 3.4,5.551 Q3.586,5.302 3.893,5.258 Q4.201,5.213 4.449,5.4 Q4.698,5.586 4.742,5.893 Q4.787,6.201 4.6,6.449 Z"/>
</svg>

