<svg xmlns="http://www.w3.org/2000/svg" width="24" height="24" viewBox="0 0 24 24">
  <defs/>
  <path fill="#17191C" d="M18.396,20.262 Q15.395,22.91 11.37,22.75 Q7.205,22.67 4.299,19.521 Q1.45,16.435 1.45,12.2 L1.45,5.2 Q1.45,4.424 2.165,4.067 Q2.889,3.704 3.55,4.2 Q3.594,4.233 3.632,4.272 L18.432,19.172 Q18.651,19.392 18.65,19.703 Q18.649,20.013 18.429,20.232 Q18.413,20.248 18.396,20.262 Z M16.783,19.64 L2.95,5.713 L2.95,12.2 Q2.95,15.849 5.401,18.504 Q7.873,21.182 11.43,21.251 Q14.446,21.371 16.783,19.64 Z"/>
  <path fill="#17191C" d="M5.704,3.738 Q8.708,1.087 12.631,1.251 Q16.735,1.331 19.612,4.427 Q22.45,7.482 22.45,11.7 L22.45,18.7 Q22.45,19.476 21.735,19.833 Q21.011,20.196 20.35,19.7 Q20.305,19.666 20.266,19.627 L5.666,4.827 Q5.448,4.606 5.45,4.295 Q5.452,3.984 5.673,3.766 Q5.688,3.751 5.704,3.738 Z M7.314,4.361 L20.95,18.184 L20.95,11.7 Q20.95,8.071 18.513,5.448 Q16.07,2.818 12.569,2.749 Q9.642,2.627 7.314,4.361 Z"/>
</svg>

