<svg xmlns="http://www.w3.org/2000/svg" width="24" height="24" viewBox="0 0 24 24">
  <defs/>
  <path d="M1.471,6.98 L1.471,5.2 Q1.471,4.36 2.245,4.042 Q3.023,3.723 3.609,4.328 L18.431,19.15 Q18.651,19.369 18.651,19.68 Q18.651,19.991 18.431,20.21 Q18.413,20.228 18.394,20.245 Q15.393,22.862 11.4,22.75 Q7.238,22.637 4.333,19.517 Q1.471,16.443 1.471,12.24 L1.471,11.08 Q1.471,10.769 1.69,10.55 Q1.91,10.33 2.221,10.33 Q2.531,10.33 2.751,10.55 Q2.971,10.769 2.971,11.08 L2.971,12.24 Q2.971,15.853 5.431,18.495 Q7.907,21.155 11.442,21.25 Q14.439,21.335 16.779,19.619 L2.971,5.811 L2.971,6.98 Q2.971,7.291 2.751,7.51 Q2.531,7.73 2.221,7.73 Q1.91,7.73 1.69,7.51 Q1.471,7.291 1.471,6.98 Z M2.54,5.38 L2.532,5.372 Q2.536,5.376 2.54,5.38 Z"/>
  <path d="M5.728,3.735 Q8.708,1.138 12.672,1.25 Q16.804,1.363 19.684,4.458 Q22.521,7.507 22.521,11.68 L22.521,18.64 Q22.521,19.48 21.747,19.798 Q20.968,20.117 20.382,19.512 L5.691,4.83 Q5.471,4.611 5.471,4.3 Q5.471,3.99 5.69,3.77 Q5.708,3.752 5.728,3.735 Z M7.343,4.362 L21.021,18.03 L21.021,11.68 Q21.021,8.097 18.585,5.48 Q16.134,2.845 12.629,2.75 Q9.662,2.666 7.343,4.362 Z M21.451,18.46 L21.459,18.468 Q21.455,18.464 21.451,18.46 Z"/>
</svg>

