<svg xmlns="http://www.w3.org/2000/svg" width="24" height="24" viewBox="0 0 24 24">
  <defs/>
  <path d="M11.7,22.75 C11.601,22.75 11.511,22.75 11.411,22.75 C5.93,22.6 1.48,17.88 1.48,12.24 L1.48,5.21 C1.48,4.7 1.78,4.25 2.25,4.06 C2.72,3.87 3.25,3.97 3.61,4.33 L18.441,19.16 C18.59,19.31 18.671,19.51 18.66,19.72 C18.651,19.93 18.561,20.12 18.401,20.26 C16.541,21.87 14.171,22.75 11.7,22.75 Z M2.98,5.81 L2.98,12.24 C2.98,17.08 6.78,21.12 11.45,21.25 C13.38,21.29 15.251,20.73 16.78,19.62 L2.98,5.81 Z"/>
  <path d="M21.27,19.9 C20.95,19.9 20.63,19.77 20.39,19.53 L5.69,4.83 C5.54,4.68 5.46,4.48 5.47,4.27 C5.48,4.06 5.57,3.87 5.73,3.73 C7.64,2.06 10.11,1.17 12.67,1.25 C18.1,1.4 22.52,6.08 22.52,11.68 L22.52,18.64 C22.52,19.15 22.22,19.6 21.75,19.79 C21.6,19.86 21.44,19.9 21.27,19.9 Z M7.35,4.37 L21.03,18.05 L21.03,11.69 C21.03,6.9 17.26,2.89 12.63,2.76 C10.72,2.72 8.87,3.27 7.35,4.37 Z"/>
</svg>

