<svg xmlns="http://www.w3.org/2000/svg" width="24" height="24" viewBox="0 0 24 24">
  <defs/>
  <path opacity="0.4" d="M18.393,20.245 Q15.392,22.862 11.399,22.75 Q7.237,22.637 4.332,19.517 Q1.47,16.443 1.47,12.24 L1.47,5.21 Q1.47,4.37 2.244,4.052 Q3.022,3.733 3.608,4.338 L18.43,19.149 Q18.65,19.369 18.65,19.68 Q18.65,19.99 18.43,20.21 Q18.412,20.228 18.393,20.245 Z M16.778,19.619 L2.97,5.82 L2.97,12.24 Q2.97,15.853 5.43,18.495 Q7.906,21.155 11.441,21.25 Q14.437,21.335 16.778,19.619 Z M2.539,5.39 L2.531,5.382 Q2.535,5.386 2.539,5.39 Z"/>
  <path d="M5.727,3.735 Q8.707,1.138 12.671,1.25 Q16.803,1.363 19.683,4.458 Q22.52,7.507 22.52,11.68 L22.52,18.64 Q22.52,19.48 21.746,19.798 Q20.967,20.117 20.381,19.512 L5.69,4.83 Q5.47,4.611 5.47,4.3 Q5.47,3.99 5.689,3.77 Q5.708,3.752 5.727,3.735 Z M7.342,4.362 L21.02,18.03 L21.02,11.68 Q21.02,8.097 18.584,5.48 Q16.133,2.845 12.628,2.75 Q9.661,2.666 7.342,4.362 Z M21.45,18.46 L21.458,18.468 Q21.454,18.464 21.45,18.46 Z"/>
</svg>

