<svg xmlns="http://www.w3.org/2000/svg" width="24" height="24" viewBox="0 0 24 24">
  <defs/>
  <path fill="white" opacity="0.58" d="M24,0 L0,0 L0,24 L24,24 L24,0 Z"/>
  <path fill="#292D32" opacity="0.4" d="M17.901,19.68 C16.181,21.18 13.911,22.07 11.421,22 C6.251,21.86 2.221,17.41 2.221,12.24 L2.221,5.21 C2.221,4.76 2.761,4.54 3.071,4.86 L17.901,19.68 Z"/>
  <path fill="#292D32" d="M6.221,4.3 C7.931,2.81 10.181,1.93 12.651,2 C17.781,2.14 21.771,6.55 21.771,11.68 L21.771,18.64 C21.771,19.09 21.231,19.31 20.921,18.99 L6.221,4.3 Z"/>
</svg>

