<svg xmlns="http://www.w3.org/2000/svg" width="24" height="24" viewBox="0 0 24 24">
  <defs/>
  <path fill="#292D32" d="M14.47,4.86 Q12.901,3.291 11.998,3.378 Q11.285,3.446 9.871,4.86 L4.301,10.43 Q2.672,12.059 2.653,12.675 Q2.631,13.354 4.302,15.031 L7.761,18.49 Q9.353,20.082 10.067,20.078 Q10.77,20.073 12.361,18.489 L17.93,12.92 Q19.294,11.555 19.351,10.751 Q19.418,9.808 17.93,8.32 Q17.711,8.101 17.711,7.79 Q17.711,7.479 17.93,7.26 Q18.15,7.04 18.461,7.04 Q18.771,7.04 18.991,7.26 Q22.351,10.62 18.991,13.98 L13.42,19.551 Q11.393,21.569 10.076,21.577 Q8.736,21.586 6.7,19.55 L3.239,16.089 Q1.112,13.953 1.153,12.628 Q1.192,11.418 3.24,9.37 L8.81,3.8 Q10.606,2.004 11.855,1.885 Q13.462,1.731 15.531,3.8 Q15.751,4.019 15.751,4.33 Q15.751,4.641 15.531,4.86 Q15.311,5.08 15.001,5.08 Q14.69,5.08 14.47,4.86 Z"/>
  <path fill="#292D32" d="M18.558,16.402 Q19.158,15.395 20.136,15.395 Q21.112,15.395 21.721,16.402 L22.383,17.494 Q23.305,19.032 22.619,20.241 Q21.934,21.45 20.139,21.45 Q18.345,21.45 17.66,20.241 Q16.974,19.032 17.898,17.492 L18.556,16.404 Q18.557,16.403 18.558,16.402 Z M19.841,17.178 L19.181,18.268 Q18.71,19.053 18.964,19.501 Q19.219,19.95 20.139,19.95 Q21.06,19.95 21.315,19.501 Q21.569,19.053 21.096,18.266 L20.438,17.178 Q20.267,16.895 20.136,16.895 Q20.009,16.895 19.845,17.173 Z"/>
  <path fill="#292D32" d="M1.803,11.516 Q10.494,9.156 19.186,11.383 L19.689,11.514 Q19.989,11.592 20.147,11.86 Q20.304,12.128 20.226,12.429 Q20.148,12.729 19.88,12.887 Q19.612,13.044 19.311,12.966 L18.814,12.836 Q10.505,10.707 2.197,12.964 Q1.897,13.045 1.627,12.891 Q1.358,12.736 1.276,12.436 Q1.195,12.137 1.349,11.867 Q1.504,11.597 1.803,11.516 Z"/>
</svg>

