<svg xmlns="http://www.w3.org/2000/svg" width="24" height="24" viewBox="0 0 24 24">
  <defs/>
  <path fill="#292D32" d="M10.06,21.58 C9.06,21.58 8.05,20.9 6.7,19.56 L3.24,16.1 C0.3,13.16 0.6,12.03 3.24,9.38 L8.81,3.8 C10.78,1.83 12.411,0.68 15.53,3.8 L18.991,7.26 C21.8,10.07 21.12,11.85 18.991,13.98 L13.421,19.55 C12.07,20.9 11.07,21.58 10.06,21.58 Z M4.3,15.03 L7.76,18.49 C9.88,20.61 10.23,20.62 12.361,18.49 L17.93,12.92 C19.601,11.25 20.03,10.42 17.93,8.32 L14.47,4.86 C12.28,2.67 11.62,3.12 9.87,4.86 L4.3,10.43 C2.18,12.56 2,12.73 4.3,15.03 Z"/>
  <path fill="#292D32" d="M20.141,21.46 C19.001,21.46 18.101,21.02 17.661,20.25 C17.221,19.48 17.311,18.48 17.901,17.5 L18.561,16.41 C18.951,15.77 19.521,15.4 20.141,15.4 C20.761,15.4 21.341,15.77 21.721,16.41 L22.381,17.5 C22.971,18.48 23.051,19.48 22.621,20.25 C22.191,21.02 21.271,21.46 20.141,21.46 Z M20.141,16.9 C20.091,16.9 19.971,16.98 19.841,17.18 L19.181,18.27 C18.881,18.77 18.801,19.22 18.961,19.51 C19.121,19.8 19.551,19.96 20.131,19.96 C20.711,19.96 21.141,19.8 21.301,19.51 C21.461,19.22 21.381,18.78 21.081,18.27 L20.421,17.18 C20.311,16.97 20.191,16.9 20.141,16.9 Z"/>
  <path fill="#292D32" d="M2.001,12.99 C1.671,12.99 1.371,12.77 1.281,12.44 C1.171,12.04 1.411,11.63 1.811,11.52 C7.481,9.98 13.491,9.93 19.191,11.39 L19.691,11.52 C20.091,11.62 20.331,12.03 20.231,12.43 C20.131,12.83 19.721,13.07 19.321,12.97 L18.821,12.84 C13.371,11.44 7.631,11.49 2.211,12.97 C2.131,12.99 2.061,12.99 2.001,12.99 Z"/>
</svg>

