<svg xmlns="http://www.w3.org/2000/svg" width="24" height="24" viewBox="0 0 24 24">
  <defs/>
  <path fill="#292D32" d="M19.11,7.471 L15.59,3.951 C12.43,0.801 10.77,1.961 8.77,3.951 L3.11,9.611 C1.96,10.761 1.33,11.502 1.1,12.322 C1.1,12.332 1.09,12.332 1.09,12.332 C1.09,12.341 1.09,12.341 1.09,12.341 C1.09,12.351 1.09,12.351 1.09,12.351 L1.09,12.382 C0.68,13.841 1.76,15.082 3.11,16.431 L6.64,19.942 C7.9,21.212 8.92,22.002 10.05,22.002 C11.18,22.002 12.15,21.241 13.45,19.942 L19.11,14.291 C19.6,13.791 19.96,13.382 20.24,12.992 C20.24,12.982 20.24,12.982 20.24,12.982 C20.24,12.982 20.24,12.982 20.25,12.982 C21.53,11.191 21.19,9.541 19.11,7.471 Z M18.08,11.371 L18.07,11.371 C17.77,11.302 17.46,11.242 17.15,11.181 C17.13,11.181 17.11,11.171 17.08,11.171 C16.38,11.041 15.67,10.931 14.95,10.841 L14.91,10.841 C14.19,10.752 13.46,10.681 12.73,10.642 L12.65,10.642 C12.01,10.601 11.36,10.582 10.72,10.582 C9.94,10.582 9.16,10.621 8.39,10.671 C8.26,10.681 8.14,10.691 8.02,10.701 C7.44,10.742 6.86,10.802 6.29,10.871 C6.13,10.892 5.98,10.912 5.83,10.931 C5.25,11.021 4.68,11.111 4.11,11.222 C3.98,11.252 3.86,11.271 3.73,11.291 C3.68,11.302 3.62,11.312 3.57,11.322 C3.75,11.121 3.96,10.912 4.19,10.681 L9.84,5.031 C11.66,3.231 12.28,2.801 14.52,5.031 L18.03,8.551 C18.57,9.081 18.93,9.531 19.15,9.921 C19.15,9.921 19.15,9.931 19.16,9.931 C19.58,10.662 18.9,11.531 18.08,11.371 Z"/>
  <path fill="#292D32" d="M20.95,16.87 C20.57,16.4 20.24,16 19.5,16 C18.76,16 18.43,16.4 18.06,16.87 C17.26,17.86 16.9,18.94 17.03,19.98 C17.18,21.17 18.2,22 19.5,22 C20.8,22 21.82,21.17 21.97,19.97 C22.1,18.93 21.75,17.86 20.95,16.87 Z"/>
</svg>

