<svg xmlns="http://www.w3.org/2000/svg" width="24" height="24" viewBox="0 0 24 24">
  <defs/>
  <path fill="#292D32" opacity="0.4" d="M19.11,7.47 L15.59,3.95 C12.43,0.8 10.77,1.96 8.77,3.95 L3.11,9.61 C1.96,10.76 1.33,11.5 1.1,12.32 C1.1,12.33 1.09,12.33 1.09,12.33 C1.09,12.34 1.09,12.34 1.09,12.34 C1.09,12.35 1.09,12.35 1.09,12.35 L1.09,12.38 C0.68,13.84 1.76,15.08 3.11,16.43 L6.64,19.94 C7.9,21.21 8.92,22 10.05,22 C11.18,22 12.15,21.24 13.45,19.94 L19.11,14.29 C19.6,13.79 19.96,13.38 20.24,12.99 C20.24,12.98 20.24,12.98 20.24,12.98 C20.24,12.98 20.24,12.98 20.25,12.98 C21.53,11.19 21.19,9.54 19.11,7.47 Z M19.15,9.92 C19.58,10.65 18.9,11.55 18.07,11.37 C17.76,11.3 17.46,11.24 17.15,11.18 C17.13,11.18 17.11,11.17 17.08,11.17 C16.38,11.04 15.67,10.93 14.95,10.84 L14.91,10.84 C14.19,10.75 13.46,10.68 12.73,10.64 L12.65,10.64 C12.01,10.6 11.36,10.58 10.72,10.58 C9.94,10.58 9.16,10.62 8.39,10.67 C8.26,10.68 8.14,10.69 8.02,10.7 C7.44,10.74 6.86,10.8 6.29,10.87 C6.13,10.89 5.98,10.91 5.83,10.93 C5.25,11.02 4.68,11.11 4.11,11.22 C3.98,11.25 3.86,11.27 3.73,11.29 C3.68,11.3 3.62,11.31 3.57,11.32 C3.75,11.12 3.96,10.91 4.19,10.68 L9.84,5.03 C11.66,3.23 12.28,2.8 14.52,5.03 L18.03,8.55 C18.57,9.08 18.93,9.53 19.15,9.92 Z"/>
  <path fill="#292D32" d="M19.15,9.92 C19.58,10.65 18.9,11.55 18.07,11.37 C17.76,11.3 17.46,11.24 17.15,11.18 C17.13,11.18 17.11,11.17 17.08,11.17 C16.38,11.04 15.67,10.93 14.95,10.84 L14.91,10.84 C14.19,10.75 13.46,10.68 12.73,10.64 L12.65,10.64 C12.01,10.6 11.36,10.58 10.72,10.58 C9.94,10.58 9.16,10.62 8.39,10.67 C8.26,10.68 8.14,10.69 8.02,10.7 C7.44,10.74 6.86,10.8 6.29,10.87 C6.13,10.89 5.98,10.91 5.83,10.93 C5.25,11.02 4.68,11.11 4.11,11.22 C3.98,11.25 3.86,11.27 3.73,11.29 C3.68,11.3 3.62,11.31 3.57,11.32 C3.75,11.12 3.96,10.91 4.19,10.68 L9.84,5.03 C11.66,3.23 12.28,2.8 14.52,5.03 L18.03,8.55 C18.57,9.08 18.93,9.53 19.15,9.92 Z"/>
  <path fill="#292D32" d="M20.95,16.87 C20.57,16.4 20.24,16 19.5,16 C18.76,16 18.43,16.4 18.06,16.87 C17.26,17.86 16.9,18.94 17.03,19.98 C17.18,21.17 18.2,22 19.5,22 C20.8,22 21.82,21.17 21.97,19.97 C22.1,18.93 21.75,17.86 20.95,16.87 Z"/>
</svg>

