<svg xmlns="http://www.w3.org/2000/svg" width="24" height="24" viewBox="0 0 24 24">
  <defs/>
  <path fill="#292D32" d="M12.86,12.68 L10.39,15.15 Q8.446,17.095 10.39,19.04 Q11.198,19.847 12.335,19.847 Q13.472,19.847 14.28,19.04 L18.17,15.15 Q19.997,13.322 19.997,10.73 Q19.997,8.138 18.17,6.31 Q16.342,4.482 13.75,4.482 Q11.158,4.482 9.33,6.31 L5.09,10.55 Q3.555,12.086 3.555,14.261 Q3.555,16.438 5.091,17.981 Q5.311,18.201 5.31,18.511 Q5.309,18.822 5.089,19.041 Q4.869,19.261 4.558,19.26 Q4.248,19.259 4.028,19.039 Q2.055,17.057 2.055,14.261 Q2.055,11.464 4.03,9.49 L8.27,5.25 Q10.537,2.982 13.75,2.982 Q16.963,2.982 19.23,5.25 Q21.497,7.517 21.497,10.73 Q21.497,13.943 19.23,16.21 L15.34,20.1 Q14.093,21.347 12.335,21.347 Q10.577,21.347 9.33,20.1 Q8.082,18.853 8.082,17.095 Q8.082,15.337 9.33,14.09 L11.8,11.62 Q12.019,11.4 12.33,11.4 Q12.641,11.4 12.86,11.62 Q13.08,11.839 13.08,12.15 Q13.08,12.461 12.86,12.68 Z"/>
</svg>

