<svg xmlns="http://www.w3.org/2000/svg" width="24" height="24" viewBox="0 0 24 24">
  <defs/>
  <path fill="#292D32" d="M10.971,22.75 C7.251,22.75 4.221,19.72 4.221,16 L4.221,10 C4.221,5.73 7.701,2.25 11.971,2.25 C16.241,2.25 19.721,5.73 19.721,10 L19.721,15.5 C19.721,17.84 17.811,19.75 15.471,19.75 C13.131,19.75 11.221,17.84 11.221,15.5 L11.221,12 C11.221,11.59 11.561,11.25 11.971,11.25 C12.381,11.25 12.721,11.59 12.721,12 L12.721,15.5 C12.721,17.02 13.951,18.25 15.471,18.25 C16.991,18.25 18.221,17.02 18.221,15.5 L18.221,10 C18.221,6.55 15.421,3.75 11.971,3.75 C8.521,3.75 5.721,6.55 5.721,10 L5.721,16 C5.721,18.89 8.071,21.25 10.971,21.25 C11.381,21.25 11.721,21.59 11.721,22 C11.721,22.41 11.391,22.75 10.971,22.75 Z"/>
</svg>

