<svg xmlns="http://www.w3.org/2000/svg" width="24" height="24" viewBox="0 0 24 24">
  <defs/>
  <path fill="#292D32" d="M12.721,12 L12.721,15.5 Q12.721,18.25 15.471,18.25 Q16.608,18.25 17.414,17.443 Q18.221,16.637 18.221,15.5 L18.221,10 Q18.221,7.408 16.392,5.579 Q14.563,3.75 11.971,3.75 Q9.379,3.75 7.55,5.579 Q5.721,7.408 5.721,10 L5.721,16 Q5.721,18.172 7.26,19.711 Q8.799,21.25 10.971,21.25 Q11.281,21.25 11.501,21.47 Q11.721,21.689 11.721,22 Q11.721,22.311 11.501,22.53 Q11.281,22.75 10.971,22.75 Q8.178,22.75 6.199,20.772 Q4.221,18.793 4.221,16 L4.221,10 Q4.221,6.787 6.489,4.518 Q8.758,2.25 11.971,2.25 Q15.184,2.25 17.452,4.518 Q19.721,6.787 19.721,10 L19.721,15.5 Q19.721,17.258 18.475,18.504 Q17.229,19.75 15.471,19.75 Q13.713,19.75 12.467,18.504 Q11.221,17.258 11.221,15.5 L11.221,12 Q11.221,11.689 11.44,11.47 Q11.66,11.25 11.971,11.25 Q12.281,11.25 12.501,11.47 Q12.721,11.689 12.721,12 Z"/>
</svg>

