<svg xmlns="http://www.w3.org/2000/svg" width="24" height="24" viewBox="0 0 24 24">
  <defs/>
  <path fill="#292D32" opacity="0.4" d="M16.19,2 L7.81,2 C4.17,2 2,4.17 2,7.81 L2,16.18 C2,19.83 4.17,22 7.81,22 L16.18,22 C19.82,22 21.99,19.83 21.99,16.19 L21.99,7.81 C22,4.17 19.83,2 16.19,2 Z"/>
  <path fill="#292D32" d="M11.43,18.18 C9.13,18.18 7.25,16.3 7.25,14 L7.25,10.57 C7.25,7.95 9.38,5.82 12,5.82 C14.62,5.82 16.75,7.95 16.75,10.57 L16.75,13.71 C16.75,15.23 15.52,16.46 14,16.46 C12.48,16.46 11.25,15.23 11.25,13.71 L11.25,11.71 C11.25,11.3 11.59,10.96 12,10.96 C12.41,10.96 12.75,11.3 12.75,11.71 L12.75,13.71 C12.75,14.4 13.31,14.96 14,14.96 C14.69,14.96 15.25,14.4 15.25,13.71 L15.25,10.57 C15.25,8.78 13.79,7.32 12,7.32 C10.21,7.32 8.75,8.78 8.75,10.57 L8.75,14 C8.75,15.48 9.95,16.68 11.43,16.68 C11.84,16.68 12.18,17.02 12.18,17.43 C12.18,17.84 11.84,18.18 11.43,18.18 Z"/>
</svg>

