<svg xmlns="http://www.w3.org/2000/svg" width="24" height="24" viewBox="0 0 24 24">
  <defs/>
  <path fill="#292D32" d="M12.329,21.34 C11.239,21.34 10.149,20.93 9.319,20.1 C7.659,18.44 7.659,15.75 9.319,14.09 L11.799,11.62 C12.089,11.33 12.569,11.33 12.859,11.62 C13.149,11.91 13.149,12.39 12.859,12.68 L10.379,15.15 C9.309,16.22 9.309,17.97 10.379,19.04 C11.449,20.11 13.199,20.11 14.269,19.04 L18.159,15.15 C19.339,13.97 19.989,12.4 19.989,10.73 C19.989,9.06 19.339,7.49 18.159,6.31 C15.719,3.87 11.759,3.87 9.319,6.31 L5.079,10.55 C4.089,11.54 3.539,12.86 3.539,14.26 C3.539,15.66 4.089,16.98 5.079,17.97 C5.369,18.26 5.369,18.74 5.079,19.03 C4.789,19.32 4.309,19.32 4.019,19.03 C2.749,17.75 2.039,16.06 2.039,14.26 C2.039,12.46 2.739,10.76 4.019,9.49 L8.259,5.25 C11.279,2.23 16.199,2.23 19.219,5.25 C20.679,6.71 21.489,8.66 21.489,10.73 C21.489,12.8 20.679,14.75 19.219,16.21 L15.329,20.1 C14.499,20.93 13.419,21.34 12.329,21.34 Z"/>
</svg>

