<svg xmlns="http://www.w3.org/2000/svg" width="24" height="24" viewBox="0 0 24 24">
  <defs/>
  <path fill="#292D32" opacity="0.4" d="M16.19,2 L7.81,2 C4.17,2 2,4.17 2,7.81 L2,16.18 C2,19.83 4.17,22 7.81,22 L16.18,22 C19.82,22 21.99,19.83 21.99,16.19 L21.99,7.81 C22,4.17 19.83,2 16.19,2 Z"/>
  <path fill="#292D32" d="M12.2,17.66 C11.5,17.66 10.79,17.39 10.26,16.86 C9.19,15.79 9.19,14.04 10.26,12.97 L11.67,11.56 C11.96,11.27 12.44,11.27 12.73,11.56 C13.02,11.85 13.02,12.33 12.73,12.62 L11.32,14.03 C10.83,14.52 10.83,15.31 11.32,15.8 C11.81,16.29 12.6,16.29 13.09,15.8 L15.31,13.58 C15.92,12.97 16.26,12.15 16.26,11.28 C16.26,10.41 15.92,9.6 15.31,8.98 C14.08,7.75 11.94,7.75 10.71,8.98 L8.29,11.4 C7.25,12.44 7.25,14.14 8.29,15.19 C8.58,15.48 8.58,15.96 8.29,16.25 C8,16.54 7.52,16.54 7.23,16.25 C5.6,14.62 5.6,11.97 7.23,10.34 L9.65,7.92 C10.55,7.02 11.74,6.53 13.01,6.53 C14.28,6.53 15.47,7.02 16.37,7.92 C17.27,8.82 17.76,10.01 17.76,11.28 C17.76,12.55 17.27,13.74 16.37,14.64 L14.15,16.86 C13.61,17.39 12.91,17.66 12.2,17.66 Z"/>
</svg>

