<svg xmlns="http://www.w3.org/2000/svg" width="24" height="24" viewBox="0 0 24 24">
  <defs/>
  <path fill="#292D32" d="M6.29,9.34 L5.08,10.55 Q3.545,12.086 3.545,14.261 Q3.545,16.438 5.081,17.981 Q5.301,18.201 5.3,18.512 Q5.299,18.822 5.079,19.042 Q4.859,19.261 4.548,19.26 Q4.238,19.259 4.018,19.039 Q2.045,17.057 2.045,14.261 Q2.045,11.464 4.02,9.49 L5.23,8.28 Q5.449,8.06 5.76,8.06 Q6.071,8.06 6.29,8.28 Q6.51,8.499 6.51,8.81 Q6.51,9.121 6.29,9.34 Z"/>
  <path fill="#292D32" d="M12.861,12.68 L10.391,15.15 Q8.446,17.095 10.391,19.04 Q12.336,20.984 14.28,19.04 L18.17,15.15 Q19.998,13.322 19.998,10.73 Q19.998,8.138 18.17,6.31 Q16.343,4.482 13.751,4.482 Q11.159,4.482 9.331,6.31 Q9.111,6.53 8.801,6.53 Q8.49,6.53 8.27,6.31 Q8.051,6.091 8.051,5.78 Q8.051,5.469 8.27,5.25 Q10.538,2.982 13.751,2.982 Q16.964,2.982 19.231,5.25 Q21.498,7.517 21.498,10.73 Q21.498,13.943 19.231,16.21 L15.341,20.1 Q14.094,21.347 12.336,21.347 Q10.578,21.347 9.33,20.1 Q8.083,18.853 8.083,17.095 Q8.083,15.337 9.33,14.09 L11.8,11.62 Q12.02,11.4 12.331,11.4 Q12.641,11.4 12.861,11.62 Q13.081,11.839 13.081,12.15 Q13.081,12.461 12.861,12.68 Z"/>
</svg>

