<svg xmlns="http://www.w3.org/2000/svg" width="24" height="24" viewBox="0 0 24 24">
  <defs/>
  <path fill="#292D32" d="M11.02,20.25 L7.5,20.25 C6.75,20.25 6.2,20.22 5.73,20.15 C2.4,19.78 1.75,17.8 1.75,14.5 L1.75,9.5 C1.75,6.2 2.41,4.21 5.76,3.84 C6.2,3.78 6.75,3.75 7.5,3.75 L10.96,3.75 C11.37,3.75 11.71,4.09 11.71,4.5 C11.71,4.91 11.37,5.25 10.96,5.25 L7.5,5.25 C6.82,5.25 6.34,5.28 5.95,5.33 C3.92,5.55 3.25,6.19 3.25,9.5 L3.25,14.5 C3.25,17.81 3.92,18.44 5.92,18.67 C6.34,18.73 6.82,18.75 7.5,18.75 L11.02,18.75 C11.43,18.75 11.77,19.09 11.77,19.5 C11.77,19.91 11.43,20.25 11.02,20.25 Z"/>
  <path fill="#292D32" d="M16.5,20.25 L15.02,20.25 C14.61,20.25 14.27,19.91 14.27,19.5 C14.27,19.09 14.61,18.75 15.02,18.75 L16.5,18.75 C17.18,18.75 17.66,18.72 18.049,18.67 C20.079,18.45 20.75,17.81 20.75,14.5 L20.75,9.5 C20.75,6.19 20.079,5.56 18.079,5.33 C17.66,5.27 17.18,5.25 16.5,5.25 L15.02,5.25 C14.61,5.25 14.27,4.91 14.27,4.5 C14.27,4.09 14.61,3.75 15.02,3.75 L16.5,3.75 C17.25,3.75 17.799,3.78 18.27,3.85 C21.599,4.22 22.25,6.2 22.25,9.5 L22.25,14.5 C22.25,17.8 21.59,19.79 18.239,20.16 C17.799,20.22 17.25,20.25 16.5,20.25 Z"/>
  <path fill="#292D32" d="M15,22.75 C14.59,22.75 14.25,22.41 14.25,22 L14.25,2 C14.25,1.59 14.59,1.25 15,1.25 C15.41,1.25 15.75,1.59 15.75,2 L15.75,22 C15.75,22.41 15.41,22.75 15,22.75 Z"/>
  <path fill="#292D32" d="M6.699,13 C6.569,13 6.439,12.97 6.319,12.92 C6.199,12.87 6.089,12.8 5.989,12.71 C5.899,12.61 5.819,12.5 5.769,12.38 C5.719,12.26 5.699,12.13 5.699,12 C5.699,11.74 5.809,11.48 5.989,11.29 C6.359,10.92 7.029,10.92 7.409,11.29 C7.589,11.48 7.699,11.74 7.699,12 C7.699,12.13 7.669,12.26 7.619,12.38 C7.569,12.5 7.499,12.61 7.409,12.71 C7.309,12.8 7.199,12.87 7.079,12.92 C6.959,12.97 6.829,13 6.699,13 Z"/>
  <path fill="#292D32" d="M10.699,13 C10.569,13 10.439,12.97 10.319,12.92 C10.199,12.87 10.089,12.8 9.989,12.71 C9.899,12.61 9.829,12.5 9.769,12.38 C9.729,12.26 9.699,12.13 9.699,12 C9.699,11.74 9.809,11.48 9.989,11.29 C10.359,10.92 11.039,10.92 11.409,11.29 C11.589,11.48 11.699,11.74 11.699,12 C11.699,12.13 11.669,12.26 11.619,12.38 C11.569,12.5 11.499,12.61 11.409,12.71 C11.309,12.8 11.199,12.87 11.079,12.92 C10.959,12.97 10.829,13 10.699,13 Z"/>
</svg>

