<svg xmlns="http://www.w3.org/2000/svg" width="24" height="24" viewBox="0 0 24 24">
  <defs/>
  <path fill="#292D32" d="M18,4 L15.75,4 L15.75,2.75 C15.75,2.34 15.41,2 15,2 C14.59,2 14.25,2.34 14.25,2.75 L14.25,21.25 C14.25,21.66 14.59,22 15,22 C15.41,22 15.75,21.66 15.75,21.25 L15.75,20 L18,20 C20.21,20 22,18.21 22,16 L22,8 C22,5.79 20.21,4 18,4 Z"/>
  <path fill="#292D32" d="M6.5,4 C4.29,4 2.5,5.79 2.5,8 L2.5,16 C2.5,18.21 4.29,20 6.5,20 L11.5,20 C12.05,20 12.5,19.55 12.5,19 L12.5,5 C12.5,4.45 12.05,4 11.5,4 L6.5,4 Z M6.67,12.38 C6.62,12.5 6.55,12.61 6.46,12.71 C6.36,12.8 6.25,12.87 6.13,12.92 C6.01,12.97 5.88,13 5.75,13 C5.62,13 5.49,12.97 5.37,12.92 C5.25,12.87 5.14,12.8 5.04,12.71 C4.95,12.61 4.88,12.5 4.82,12.38 C4.77,12.26 4.75,12.13 4.75,12 C4.75,11.74 4.86,11.48 5.04,11.29 C5.09,11.25 5.14,11.21 5.19,11.17 C5.25,11.13 5.31,11.1 5.37,11.08 C5.43,11.05 5.49,11.03 5.55,11.02 C5.89,10.95 6.23,11.06 6.46,11.29 C6.64,11.48 6.75,11.74 6.75,12 C6.75,12.13 6.72,12.26 6.67,12.38 Z M10.17,12.38 C10.12,12.5 10.05,12.61 9.96,12.71 C9.86,12.8 9.75,12.87 9.63,12.92 C9.51,12.97 9.38,13 9.25,13 C9.12,13 8.99,12.97 8.87,12.92 C8.75,12.87 8.64,12.8 8.54,12.71 C8.35,12.52 8.25,12.27 8.25,12 C8.25,11.87 8.28,11.74 8.33,11.62 C8.38,11.49 8.45,11.39 8.54,11.29 C8.91,10.92 9.58,10.92 9.96,11.29 C10.14,11.48 10.25,11.74 10.25,12 C10.25,12.13 10.22,12.26 10.17,12.38 Z"/>
</svg>

