<svg xmlns="http://www.w3.org/2000/svg" width="24" height="24" viewBox="0 0 24 24">
  <defs/>
  <path fill="#292D32" opacity="0.4" d="M11.02,20.25 L7.5,20.25 Q6.426,20.25 5.746,20.154 Q1.75,19.706 1.75,14.5 L1.75,9.5 Q1.75,4.294 5.746,3.846 Q6.426,3.75 7.5,3.75 L10.96,3.75 Q11.271,3.75 11.49,3.97 Q11.71,4.189 11.71,4.5 Q11.71,4.811 11.49,5.03 Q11.271,5.25 10.96,5.25 L7.5,5.25 Q6.523,5.25 5.946,5.332 Q5.934,5.334 5.922,5.335 Q3.25,5.63 3.25,9.5 L3.25,14.5 Q3.25,18.37 5.922,18.665 Q5.934,18.666 5.946,18.668 Q6.523,18.75 7.5,18.75 L11.02,18.75 Q11.331,18.75 11.55,18.97 Q11.77,19.189 11.77,19.5 Q11.77,19.811 11.55,20.03 Q11.331,20.25 11.02,20.25 Z"/>
  <path fill="#292D32" d="M15.019,3.75 L16.5,3.75 Q17.573,3.75 18.254,3.846 Q22.249,4.294 22.25,9.5 L22.25,14.5 Q22.249,19.706 18.254,20.154 Q17.573,20.25 16.5,20.25 L15.019,20.25 Q14.709,20.25 14.489,20.03 Q14.269,19.811 14.269,19.5 Q14.269,19.189 14.489,18.97 Q14.709,18.75 15.019,18.75 L16.5,18.75 Q17.476,18.75 18.053,18.668 Q18.065,18.666 18.077,18.665 Q20.75,18.37 20.75,14.5 L20.75,9.5 Q20.75,5.63 18.077,5.335 Q18.065,5.334 18.053,5.332 Q17.476,5.25 16.5,5.25 L15.019,5.25 Q14.709,5.25 14.489,5.03 Q14.269,4.811 14.269,4.5 Q14.269,4.189 14.489,3.97 Q14.709,3.75 15.019,3.75 Z"/>
  <path fill="#292D32" d="M15.75,2 L15.75,22 Q15.75,22.311 15.53,22.53 Q15.311,22.75 15,22.75 Q14.689,22.75 14.47,22.53 Q14.25,22.311 14.25,22 L14.25,2 Q14.25,1.689 14.47,1.47 Q14.689,1.25 15,1.25 Q15.311,1.25 15.53,1.47 Q15.75,1.689 15.75,2 Z"/>
  <path fill="#292D32" opacity="0.4" d="M11.094,11 L11.103,11 Q11.517,11 11.81,11.293 Q12.103,11.586 12.103,12 Q12.103,12.414 11.81,12.707 Q11.517,13 11.103,13 L11.094,13 Q10.68,13 10.387,12.707 Q10.094,12.414 10.094,12 Q10.094,11.586 10.387,11.293 Q10.68,11 11.094,11 Z"/>
  <path fill="#292D32" opacity="0.4" d="M7.094,11 L7.103,11 Q7.517,11 7.81,11.293 Q8.103,11.586 8.103,12 Q8.103,12.414 7.81,12.707 Q7.517,13 7.103,13 L7.094,13 Q6.68,13 6.387,12.707 Q6.094,12.414 6.094,12 Q6.094,11.586 6.387,11.293 Q6.68,11 7.094,11 Z"/>
</svg>

