<svg xmlns="http://www.w3.org/2000/svg" width="24" height="24" viewBox="0 0 24 24">
  <defs/>
  <path fill="#292D32" d="M20.02,10.7 L17.9,12.04 C17.5,12.29 16.99,12.23 16.66,11.9 L12.13,7.37 C11.8,7.04 11.74,6.53 11.99,6.13 L13.33,4.01 C14.15,2.72 15.79,2.66 17,3.86 L20.18,7.04 C21.3,8.17 21.23,9.93 20.02,10.7 Z"/>
  <path fill="#292D32" d="M14.711,19.95 L5.991,20.97 C5.913,20.98 5.836,20.987 5.761,20.992 C5.076,21.032 4.906,20.225 5.391,19.739 L7.981,17.15 C8.301,16.84 8.301,16.35 7.981,16.04 C7.681,15.73 7.191,15.73 6.871,16.04 L4.281,18.629 C3.796,19.115 2.996,18.944 3.032,18.259 C3.036,18.187 3.042,18.114 3.051,18.04 L4.081,9.32 C4.341,7.14 5.141,6.42 7.441,6.56 L8.941,6.65 C9.431,6.68 9.891,6.89 10.241,7.24 L16.791,13.79 C17.141,14.14 17.351,14.6 17.371,15.09 L17.461,16.59 C17.691,18.9 16.901,19.7 14.711,19.95 Z"/>
</svg>

