<svg xmlns="http://www.w3.org/2000/svg" width="24" height="24" viewBox="0 0 24 24">
  <defs/>
  <path fill="#292D32" d="M14.149,22.75 L9.869,22.75 C8.849,22.75 7.909,22.32 7.309,21.56 C6.779,20.9 6.589,20.06 6.769,19.26 L7.459,16.18 C7.539,15.84 7.839,15.6 8.189,15.6 L15.829,15.6 C16.179,15.6 16.479,15.84 16.559,16.18 L17.259,19.26 C17.449,20.12 17.269,20.95 16.749,21.6 C16.169,22.33 15.219,22.75 14.149,22.75 Z M8.789,17.1 L8.229,19.6 C8.149,19.96 8.239,20.32 8.479,20.63 C8.789,21.02 9.309,21.25 9.869,21.25 L14.159,21.25 C14.769,21.25 15.289,21.04 15.579,20.67 C15.819,20.38 15.889,20 15.799,19.6 L15.239,17.1 L8.789,17.1 Z"/>
  <path fill="#292D32" d="M8.19,17.1 C8.01,17.1 7.83,17.04 7.69,16.91 L4.75,14.3 C2.82,12.71 2.66,11.17 4.25,9.15 L9.44,2.57 C10.11,1.72 11.03,1.25 12.01,1.25 C13,1.25 13.91,1.72 14.58,2.57 L19.77,9.15 C21.34,11.14 21.2,12.59 19.27,14.3 L16.33,16.91 C16.02,17.18 15.54,17.16 15.27,16.85 C15,16.54 15.02,16.07 15.33,15.79 L18.27,13.18 C19.59,12.01 19.65,11.43 18.59,10.08 L13.41,3.5 C12.65,2.53 11.38,2.53 10.62,3.5 L5.43,10.08 C4.34,11.46 4.39,12.07 5.72,13.16 L8.68,15.79 C8.99,16.06 9.02,16.54 8.74,16.85 C8.6,17.01 8.4,17.1 8.19,17.1 Z"/>
  <path fill="#292D32" d="M12.01,7.72 C11.6,7.72 11.26,7.38 11.26,6.97 L11.26,2.67 C11.26,2.26 11.6,1.92 12.01,1.92 C12.42,1.92 12.76,2.26 12.76,2.67 L12.76,6.97 C12.76,7.38 12.42,7.72 12.01,7.72 Z"/>
  <path fill="#292D32" d="M14.149,22.75 L9.869,22.75 C8.849,22.75 7.909,22.32 7.309,21.56 C6.779,20.9 6.589,20.06 6.769,19.26 L7.459,16.18 C7.539,15.84 7.839,15.6 8.189,15.6 L15.829,15.6 C16.179,15.6 16.479,15.84 16.559,16.18 L17.259,19.26 C17.449,20.12 17.269,20.95 16.749,21.6 C16.169,22.33 15.219,22.75 14.149,22.75 Z M8.789,17.1 L8.229,19.6 C8.149,19.96 8.239,20.32 8.479,20.63 C8.789,21.02 9.309,21.25 9.869,21.25 L14.159,21.25 C14.769,21.25 15.289,21.04 15.579,20.67 C15.819,20.38 15.889,20 15.799,19.6 L15.239,17.1 L8.789,17.1 Z"/>
  <path fill="#292D32" d="M8.19,17.1 C8.01,17.1 7.83,17.04 7.69,16.91 L4.75,14.3 C2.82,12.71 2.66,11.17 4.25,9.15 L9.44,2.57 C10.11,1.72 11.03,1.25 12.01,1.25 C13,1.25 13.91,1.72 14.58,2.57 L19.77,9.15 C21.34,11.14 21.2,12.59 19.27,14.3 L16.33,16.91 C16.02,17.18 15.54,17.16 15.27,16.85 C15,16.54 15.02,16.07 15.33,15.79 L18.27,13.18 C19.59,12.01 19.65,11.43 18.59,10.08 L13.41,3.5 C12.65,2.53 11.38,2.53 10.62,3.5 L5.43,10.08 C4.34,11.46 4.39,12.07 5.72,13.16 L8.68,15.79 C8.99,16.06 9.02,16.54 8.74,16.85 C8.6,17.01 8.4,17.1 8.19,17.1 Z"/>
  <path fill="#292D32" d="M12.01,7.72 C11.6,7.72 11.26,7.38 11.26,6.97 L11.26,2.67 C11.26,2.26 11.6,1.92 12.01,1.92 C12.42,1.92 12.76,2.26 12.76,2.67 L12.76,6.97 C12.76,7.38 12.42,7.72 12.01,7.72 Z"/>
</svg>

