<svg xmlns="http://www.w3.org/2000/svg" width="24" height="24" viewBox="0 0 24 24">
  <defs/>
  <g opacity="0.4">
    <path fill="#292D32" d="M17.276,8.586 Q17.279,8.588 17.281,8.59 Q18.009,9.31 17.968,10.29 Q17.925,11.339 17.061,11.874 L15.431,12.904 Q14.924,13.224 14.5,12.8 L11.21,9.51 Q10.786,9.086 11.106,8.579 L12.137,6.948 Q12.701,6.06 13.72,6.021 Q14.674,5.983 15.431,6.74 Z M16.22,9.65 L14.37,7.8 Q14.077,7.508 13.778,7.519 Q13.545,7.528 13.403,7.752 L12.695,8.874 L15.137,11.316 L16.26,10.606 Q16.459,10.482 16.47,10.228 Q16.483,9.909 16.224,9.654 Z"/>
    <path fill="#292D32" d="M11.696,9.729 L9.306,9.589 Q8.263,9.527 8.144,10.528 L7.544,15.598 Q7.491,16.038 7.734,16.28 Q7.98,16.525 8.426,16.475 L13.491,15.875 Q14.531,15.753 14.433,14.743 Q14.432,14.728 14.431,14.714 L14.291,12.324 Q14.273,12.014 14.479,11.782 Q14.686,11.55 14.996,11.531 Q15.306,11.513 15.538,11.72 Q15.77,11.926 15.788,12.236 L15.927,14.613 Q16.158,17.071 13.668,17.365 L8.593,17.966 Q7.431,18.096 6.675,17.343 Q5.913,16.584 6.055,15.422 L6.655,10.352 Q6.939,7.945 9.393,8.091 L11.783,8.231 Q12.093,8.25 12.3,8.482 Q12.506,8.714 12.488,9.024 Q12.47,9.334 12.238,9.541 Q12.006,9.747 11.696,9.729 Z"/>
    <path fill="#292D32" d="M6.96,15.99 L8.81,14.14 Q9.03,13.92 9.34,13.92 Q9.651,13.92 9.871,14.14 Q10.09,14.359 10.09,14.67 Q10.09,14.981 9.871,15.2 L8.021,17.05 Q7.801,17.27 7.49,17.27 Q7.18,17.27 6.96,17.05 Q6.74,16.831 6.74,16.52 Q6.74,16.209 6.96,15.99 Z"/>
  </g>
  <path fill="#292D32" d="M9,22.75 Q1.25,22.75 1.25,15 L1.25,9 Q1.25,1.25 9,1.25 L15,1.25 Q22.75,1.25 22.75,9 L22.75,15 Q22.75,22.75 15,22.75 Z M9,21.25 L15,21.25 Q18.439,21.25 19.845,19.845 Q21.25,18.439 21.25,15 L21.25,9 Q21.25,2.75 15,2.75 L9,2.75 Q2.75,2.75 2.75,9 L2.75,15 Q2.75,18.439 4.155,19.845 Q5.561,21.25 9,21.25 Z"/>
</svg>

