<svg xmlns="http://www.w3.org/2000/svg" width="24" height="24" viewBox="0 0 24 24">
  <defs/>
  <path fill="#292D32" d="M9.87,22.75 Q8.393,22.75 7.448,21.721 Q6.457,20.643 6.778,19.266 L7.468,16.186 Q7.6,15.6 8.2,15.6 L15.84,15.6 Q16.441,15.6 16.572,16.186 L17.262,19.264 Q17.589,20.706 16.624,21.752 Q15.704,22.75 14.16,22.75 Z M9.87,21.25 L14.16,21.25 Q15.047,21.25 15.521,20.735 Q15.951,20.269 15.799,19.596 L15.24,17.1 L8.801,17.1 L8.242,19.594 Q8.098,20.212 8.552,20.706 Q9.052,21.25 9.87,21.25 Z"/>
  <path fill="#292D32" d="M15.331,15.789 L18.271,13.179 Q19.896,11.732 18.59,10.074 L13.4,3.495 Q12.808,2.745 12.008,2.745 Q11.205,2.745 10.606,3.498 L5.428,10.074 Q4.071,11.797 5.726,13.161 Q5.737,13.17 5.747,13.179 L8.687,15.789 Q8.919,15.995 8.938,16.306 Q8.956,16.616 8.75,16.848 Q8.544,17.08 8.234,17.099 Q7.924,17.117 7.691,16.911 L4.761,14.31 Q1.989,12.015 4.25,9.146 L9.433,2.563 Q10.483,1.245 12.008,1.245 Q13.535,1.245 14.578,2.566 L19.768,9.146 Q21.949,11.914 19.267,14.301 L16.327,16.911 Q16.095,17.117 15.785,17.099 Q15.475,17.08 15.268,16.848 Q15.062,16.616 15.081,16.306 Q15.099,15.995 15.331,15.789 Z"/>
  <path fill="#292D32" opacity="0.4" d="M12.76,2.67 L12.76,6.97 Q12.76,7.281 12.54,7.5 Q12.32,7.72 12.01,7.72 Q11.699,7.72 11.479,7.5 Q11.26,7.281 11.26,6.97 L11.26,2.67 Q11.26,2.359 11.479,2.14 Q11.699,1.92 12.01,1.92 Q12.32,1.92 12.54,2.14 Q12.76,2.359 12.76,2.67 Z"/>
</svg>

