<svg xmlns="http://www.w3.org/2000/svg" width="24" height="24" viewBox="0 0 24 24">
  <defs/>
  <path fill="#292D32" d="M14.15,22 L9.83,22 C8.29,22 7.15,20.75 7.45,19.42 L7.97,17.1 C8.07,16.64 8.48,16.32 8.95,16.32 L15.04,16.32 C15.511,16.32 15.911,16.64 16.02,17.1 L16.541,19.41 C16.86,20.84 15.79,22 14.15,22 Z"/>
  <path fill="#292D32" d="M18.82,13.69 L17.75,14.63 C17.38,14.95 16.91,15.13 16.43,15.13 L7.59,15.13 C7.1,15.13 6.62,14.95 6.26,14.62 L5.21,13.68 C3.49,12.27 3.48,11.19 4.8,9.53 L10.03,2.92 C10.066,2.871 10.104,2.824 10.142,2.778 C10.583,2.257 11.27,2.705 11.27,3.387 L11.27,6.86 C11.26,7.29 11.6,7.63 12.02,7.62 C12.44,7.63 12.77,7.29 12.78,6.86 L12.78,3.387 C12.78,2.705 13.456,2.268 13.909,2.778 C13.946,2.821 13.983,2.865 14.02,2.91 L19.23,9.53 C20.53,11.19 20.48,12.22 18.82,13.69 Z"/>
</svg>

