<svg xmlns="http://www.w3.org/2000/svg" width="24" height="24" viewBox="0 0 24 24">
  <defs/>
  <path fill="#292D32" d="M20.02,10.7 L17.221,12.47 L11.56,6.81 L13.32,4.01 C14.14,2.72 15.78,2.66 16.991,3.86 L20.171,7.04 C21.3,8.17 21.23,9.93 20.02,10.7 Z"/>
  <path fill="#292D32" opacity="0.4" d="M14.71,19.95 L6,20.98 C5.4,21.05 4.86,20.96 4.41,20.74 C3.92,20.5 3.54,20.12 3.3,19.63 C3.08,19.18 3,18.64 3.06,18.05 L4.1,9.33 C4.35,7.15 5.16,6.44 7.46,6.57 L11.58,6.82 L17.24,12.48 L17.48,16.6 C17.69,18.9 16.9,19.7 14.71,19.95 Z"/>
  <path fill="#292D32" d="M7.979,17.15 L4.399,20.73 C3.909,20.49 3.529,20.11 3.289,19.62 L6.879,16.03 C7.189,15.73 7.689,15.73 7.989,16.03 C8.299,16.35 8.299,16.84 7.979,17.15 Z"/>
</svg>

