<svg xmlns="http://www.w3.org/2000/svg" width="24" height="24" viewBox="0 0 24 24">
  <defs/>
  <path fill="#292D32" opacity="0.4" d="M16.19,2 L7.81,2 C4.17,2 2,4.17 2,7.81 L2,16.18 C2,19.83 4.17,22 7.81,22 L16.18,22 C19.82,22 21.99,19.83 21.99,16.19 L21.99,7.81 C22,4.17 19.83,2 16.19,2 Z"/>
  <path fill="#292D32" d="M16.66,11.25 L15.04,12.27 L11.74,8.98 L12.77,7.35 C13.24,6.61 14.2,6.57 14.9,7.27 L16.75,9.12 C17.41,9.77 17.37,10.8 16.66,11.25 Z"/>
  <path fill="#292D32" opacity="0.6" d="M13.58,16.62 L8.51,17.22 C8.29,17.25 8.09,17.24 7.9,17.18 C7.35,17.06 6.96,16.67 6.84,16.12 C6.78,15.93 6.77,15.73 6.8,15.51 L7.39,10.44 C7.55,9.17 8.01,8.76 9.35,8.84 L11.74,8.98 L15.04,12.27 L15.18,14.67 C15.31,16.01 14.85,16.47 13.58,16.62 Z"/>
  <path fill="#292D32" d="M9.88,15.2 L7.9,17.18 C7.35,17.06 6.96,16.67 6.84,16.12 L8.81,14.14 C9.11,13.85 9.58,13.85 9.88,14.14 C10.17,14.43 10.17,14.91 9.88,15.2 Z"/>
</svg>

