<svg xmlns="http://www.w3.org/2000/svg" width="24" height="24" viewBox="0 0 24 24">
  <defs/>
  <path fill="#292D32" d="M20.32,6.74 Q21.362,7.782 21.306,9.177 Q21.247,10.635 20.051,11.394 L17.381,13.084 Q16.874,13.405 16.45,12.98 L11.05,7.58 Q10.625,7.156 10.946,6.649 L12.634,3.982 Q13.422,2.724 14.843,2.668 Q16.195,2.615 17.29,3.71 Z M19.26,7.8 L16.23,4.77 Q15.599,4.139 14.902,4.167 Q14.273,4.192 13.906,4.778 L12.535,6.944 L17.086,11.495 L19.249,10.126 Q19.78,9.79 19.807,9.116 Q19.837,8.378 19.26,7.8 Z"/>
  <path fill="#292D32" d="M11.534,7.799 L7.604,7.559 Q5.436,7.43 5.195,9.526 L4.215,17.848 Q4.101,18.798 4.668,19.364 Q5.235,19.93 6.18,19.816 L14.502,18.836 Q16.687,18.574 16.474,16.455 Q16.472,16.44 16.471,16.424 L16.241,12.494 Q16.223,12.184 16.43,11.952 Q16.636,11.72 16.946,11.702 Q17.256,11.684 17.488,11.89 Q17.721,12.096 17.739,12.407 L17.968,16.321 Q18.318,19.89 14.678,20.325 L6.36,21.305 Q4.692,21.506 3.609,20.426 Q2.525,19.345 2.725,17.673 L3.705,9.355 Q4.107,5.849 7.696,6.062 L11.626,6.302 Q11.936,6.321 12.142,6.553 Q12.348,6.786 12.329,7.096 Q12.31,7.406 12.077,7.612 Q11.844,7.818 11.534,7.799 Z"/>
  <path fill="#292D32" opacity="0.4" d="M4.078,18.89 L7.108,15.85 Q7.327,15.63 7.638,15.63 Q7.949,15.629 8.169,15.849 Q8.389,16.068 8.389,16.379 Q8.39,16.689 8.171,16.909 L5.141,19.949 Q4.921,20.169 4.611,20.17 Q4.3,20.17 4.08,19.951 Q3.86,19.732 3.859,19.421 Q3.859,19.11 4.078,18.89 Z"/>
</svg>

