<svg xmlns="http://www.w3.org/2000/svg" width="24" height="24" viewBox="0 0 24 24">
  <defs/>
  <path fill="#292D32" d="M14.151,22 L9.871,22 C8.341,22 7.201,20.76 7.491,19.43 L8.191,16.35 L15.831,16.35 L16.531,19.43 C16.851,20.84 15.781,22 14.151,22 Z"/>
  <path fill="#292D32" opacity="0.4" d="M18.769,13.74 L15.829,16.35 L8.189,16.35 L5.249,13.74 C3.539,12.34 3.539,11.26 4.839,9.61 L10.029,3.04 C10.389,2.59 10.809,2.28 11.259,2.12 C11.749,1.95 12.269,1.95 12.759,2.12 C13.209,2.28 13.629,2.59 13.989,3.04 L19.179,9.61 C20.479,11.26 20.419,12.28 18.769,13.74 Z"/>
  <path fill="#292D32" d="M12.76,2.12 L12.76,6.97 C12.76,7.38 12.42,7.72 12.01,7.72 C11.6,7.72 11.26,7.38 11.26,6.97 L11.26,2.12 C11.75,1.95 12.27,1.95 12.76,2.12 Z"/>
</svg>

