<svg xmlns="http://www.w3.org/2000/svg" width="24" height="24" viewBox="0 0 24 24">
  <defs/>
  <path fill="#292D32" d="M16.979,13.2 C16.789,13.2 16.589,13.12 16.449,12.98 L11.049,7.57 C10.799,7.32 10.759,6.94 10.949,6.64 L12.639,3.97 C13.109,3.23 13.819,2.77 14.649,2.68 C15.579,2.59 16.539,2.95 17.289,3.7 L20.319,6.73 C21.039,7.45 21.399,8.42 21.289,9.38 C21.199,10.22 20.749,10.95 20.049,11.39 L17.379,13.08 C17.259,13.16 17.119,13.2 16.979,13.2 Z M12.529,6.94 L17.089,11.5 L19.259,10.13 C19.569,9.93 19.769,9.61 19.809,9.22 C19.869,8.72 19.659,8.19 19.269,7.8 L16.239,4.77 C15.809,4.34 15.289,4.11 14.819,4.18 C14.439,4.22 14.129,4.43 13.909,4.78 L12.529,6.94 Z"/>
  <path fill="#292D32" d="M5.89,21.34 C5,21.34 4.2,21.02 3.6,20.43 C2.9,19.73 2.59,18.76 2.72,17.68 L3.7,9.35 C4,6.83 5.11,5.91 7.7,6.06 L11.62,6.29 C12.03,6.32 12.35,6.67 12.32,7.08 C12.29,7.49 11.94,7.81 11.53,7.78 L7.61,7.56 C5.83,7.45 5.39,7.8 5.19,9.53 L4.21,17.85 C4.14,18.46 4.3,19 4.66,19.36 C5.03,19.72 5.57,19.89 6.18,19.81 L14.5,18.83 C16.25,18.62 16.64,18.16 16.47,16.44 L16.23,12.49 C16.21,12.08 16.52,11.72 16.93,11.7 C17.34,11.67 17.7,11.99 17.72,12.4 L17.95,16.32 C18.19,18.81 17.21,20.01 14.66,20.32 L6.34,21.3 C6.2,21.33 6.04,21.34 5.89,21.34 Z"/>
  <path fill="#292D32" d="M4.611,20.17 C4.421,20.17 4.231,20.1 4.081,19.95 C3.791,19.66 3.791,19.18 4.081,18.89 L7.121,15.85 C7.411,15.56 7.891,15.56 8.181,15.85 C8.471,16.14 8.471,16.62 8.181,16.91 L5.141,19.95 C4.991,20.1 4.801,20.17 4.611,20.17 Z"/>
</svg>

