<svg xmlns="http://www.w3.org/2000/svg" width="24" height="24" viewBox="0 0 24 24">
  <defs/>
  <path fill="#292D32" d="M17.276,8.586 Q17.278,8.588 17.28,8.59 Q18.009,9.31 17.968,10.29 Q17.925,11.339 17.061,11.874 L15.431,12.904 Q14.924,13.224 14.5,12.8 L11.21,9.51 Q10.786,9.086 11.106,8.579 L12.137,6.948 Q12.701,6.06 13.72,6.021 Q14.674,5.983 15.43,6.74 Z M16.22,9.65 L14.37,7.8 Q14.077,7.508 13.778,7.519 Q13.545,7.528 13.403,7.752 L12.694,8.874 L15.136,11.316 L16.259,10.606 Q16.459,10.482 16.469,10.228 Q16.483,9.909 16.224,9.654 Z"/>
  <path fill="#292D32" d="M11.696,9.729 L9.306,9.589 Q8.263,9.526 8.145,10.528 L7.545,15.598 Q7.491,16.038 7.734,16.28 Q7.98,16.525 8.426,16.475 L13.492,15.875 Q14.531,15.752 14.434,14.742 Q14.432,14.728 14.431,14.714 L14.291,12.324 Q14.273,12.014 14.48,11.781 Q14.686,11.549 14.996,11.531 Q15.306,11.513 15.538,11.719 Q15.771,11.926 15.789,12.236 L15.928,14.612 Q16.159,17.071 13.668,17.365 L8.594,17.965 Q7.432,18.096 6.676,17.343 Q5.914,16.584 6.055,15.422 L6.655,10.352 Q6.94,7.945 9.394,8.091 L11.784,8.231 Q12.094,8.249 12.3,8.482 Q12.507,8.714 12.489,9.024 Q12.471,9.334 12.238,9.54 Q12.006,9.747 11.696,9.729 Z"/>
  <path fill="#292D32" d="M6.96,15.99 L8.81,14.14 Q9.029,13.92 9.34,13.92 Q9.651,13.92 9.87,14.14 Q10.09,14.359 10.09,14.67 Q10.09,14.981 9.87,15.2 L8.02,17.05 Q7.801,17.27 7.49,17.27 Q7.179,17.27 6.96,17.05 Q6.74,16.831 6.74,16.52 Q6.74,16.209 6.96,15.99 Z"/>
  <path fill="#292D32" d="M9,22.75 Q1.25,22.75 1.25,15 L1.25,9 Q1.25,1.25 9,1.25 L15,1.25 Q22.75,1.25 22.75,9 L22.75,15 Q22.75,22.75 15,22.75 Z M9,21.25 L15,21.25 Q18.439,21.25 19.845,19.845 Q21.25,18.439 21.25,15 L21.25,9 Q21.25,2.75 15,2.75 L9,2.75 Q2.75,2.75 2.75,9 L2.75,15 Q2.75,18.439 4.155,19.845 Q5.561,21.25 9,21.25 Z"/>
</svg>

