<svg xmlns="http://www.w3.org/2000/svg" width="24" height="24" viewBox="0 0 24 24">
  <defs/>
  <path fill="#292D32" d="M15.039,13.02 C14.849,13.02 14.649,12.94 14.509,12.8 L11.219,9.51 C10.969,9.26 10.929,8.88 11.119,8.58 L12.149,6.95 C12.479,6.42 12.999,6.09 13.589,6.03 C14.239,5.96 14.919,6.22 15.439,6.74 L17.289,8.59 C17.789,9.09 18.039,9.77 17.969,10.44 C17.899,11.04 17.579,11.56 17.079,11.88 L15.449,12.91 C15.309,12.99 15.169,13.02 15.039,13.02 Z M12.699,8.87 L15.149,11.32 L16.269,10.61 C16.409,10.52 16.459,10.38 16.469,10.27 C16.489,10.06 16.399,9.82 16.219,9.64 L14.369,7.8 C14.169,7.6 13.939,7.5 13.749,7.52 C13.609,7.54 13.499,7.61 13.409,7.75 L12.699,8.87 Z"/>
  <path fill="#292D32" d="M8.29,17.98 C7.67,17.98 7.09,17.75 6.68,17.34 C6.2,16.86 5.97,16.16 6.06,15.42 L6.66,10.35 C6.86,8.66 7.68,7.98 9.4,8.09 L11.79,8.23 C12.2,8.26 12.52,8.61 12.49,9.02 C12.46,9.43 12.11,9.75 11.7,9.72 L9.3,9.59 C8.33,9.53 8.24,9.68 8.14,10.53 L7.54,15.6 C7.51,15.88 7.58,16.13 7.73,16.28 C7.89,16.44 8.13,16.51 8.41,16.47 L13.48,15.87 C14.4,15.76 14.51,15.62 14.43,14.74 L14.28,12.32 C14.26,11.91 14.57,11.55 14.98,11.53 C15.39,11.5 15.75,11.82 15.77,12.23 L15.91,14.62 C16.08,16.3 15.38,17.16 13.65,17.36 L8.58,17.96 C8.49,17.98 8.39,17.98 8.29,17.98 Z"/>
  <path fill="#292D32" d="M7.49,17.27 C7.3,17.27 7.11,17.2 6.96,17.05 C6.67,16.76 6.67,16.28 6.96,15.99 L8.81,14.14 C9.1,13.85 9.58,13.85 9.87,14.14 C10.16,14.43 10.16,14.91 9.87,15.2 L8.02,17.05 C7.88,17.2 7.69,17.27 7.49,17.27 Z"/>
  <path fill="#292D32" d="M15,22.75 L9,22.75 C3.57,22.75 1.25,20.43 1.25,15 L1.25,9 C1.25,3.57 3.57,1.25 9,1.25 L15,1.25 C20.43,1.25 22.75,3.57 22.75,9 L22.75,15 C22.75,20.43 20.43,22.75 15,22.75 Z M9,2.75 C4.39,2.75 2.75,4.39 2.75,9 L2.75,15 C2.75,19.61 4.39,21.25 9,21.25 L15,21.25 C19.61,21.25 21.25,19.61 21.25,15 L21.25,9 C21.25,4.39 19.61,2.75 15,2.75 L9,2.75 Z"/>
</svg>

