<svg xmlns="http://www.w3.org/2000/svg" width="24" height="24" viewBox="0 0 24 24">
  <defs/>
  <path fill="#292D32" d="M11.969,2 C6.449,2 1.969,6.48 1.969,12 C1.969,17.52 6.449,22 11.969,22 C17.489,22 21.969,17.52 21.969,12 C21.969,6.48 17.499,2 11.969,2 Z M10.719,15.03 C10.719,15.51 10.519,15.7 10.009,15.7 L8.709,15.7 C8.199,15.7 7.999,15.51 7.999,15.03 L7.999,8.97 C7.999,8.49 8.199,8.3 8.709,8.3 L9.999,8.3 C10.509,8.3 10.709,8.49 10.709,8.97 L10.709,15.03 L10.719,15.03 Z M15.999,15.03 C15.999,15.51 15.799,15.7 15.289,15.7 L13.999,15.7 C13.489,15.7 13.289,15.51 13.289,15.03 L13.289,8.97 C13.289,8.49 13.489,8.3 13.999,8.3 L15.289,8.3 C15.799,8.3 15.999,8.49 15.999,8.97 L15.999,15.03 Z"/>
</svg>

