<svg xmlns="http://www.w3.org/2000/svg" width="24" height="24" viewBox="0 0 24 24">
  <defs/>
  <path fill="#292D32" d="M10.65,19.11 L10.65,4.89 C10.65,3.54 10.08,3 8.64,3 L5.01,3 C3.57,3 3,3.54 3,4.89 L3,19.11 C3,20.46 3.57,21 5.01,21 L8.64,21 C10.08,21 10.65,20.46 10.65,19.11 Z"/>
  <path fill="#292D32" opacity="0.4" d="M21,19.11 L21,4.89 C21,3.54 20.43,3 18.99,3 L15.36,3 C13.93,3 13.35,3.54 13.35,4.89 L13.35,19.11 C13.35,20.46 13.92,21 15.36,21 L18.99,21 C20.43,21 21,20.46 21,19.11 Z"/>
</svg>

