<svg xmlns="http://www.w3.org/2000/svg" width="24" height="24" viewBox="0 0 24 24">
  <defs/>
  <path fill="#292D32" d="M8.64,21.75 L5.01,21.75 C3.15,21.75 2.25,20.89 2.25,19.11 L2.25,4.89 C2.25,3.11 3.15,2.25 5.01,2.25 L8.64,2.25 C10.5,2.25 11.4,3.11 11.4,4.89 L11.4,19.11 C11.4,20.89 10.5,21.75 8.64,21.75 Z M5.01,3.75 C3.93,3.75 3.75,4.02 3.75,4.89 L3.75,19.11 C3.75,19.98 3.92,20.25 5.01,20.25 L8.64,20.25 C9.72,20.25 9.9,19.98 9.9,19.11 L9.9,4.89 C9.9,4.02 9.73,3.75 8.64,3.75 L5.01,3.75 Z"/>
  <path fill="#292D32" d="M18.99,21.75 L15.36,21.75 C13.5,21.75 12.6,20.89 12.6,19.11 L12.6,4.89 C12.6,3.11 13.5,2.25 15.36,2.25 L18.99,2.25 C20.85,2.25 21.75,3.11 21.75,4.89 L21.75,19.11 C21.75,20.89 20.85,21.75 18.99,21.75 Z M15.36,3.75 C14.28,3.75 14.1,4.02 14.1,4.89 L14.1,19.11 C14.1,19.98 14.27,20.25 15.36,20.25 L18.99,20.25 C20.07,20.25 20.25,19.98 20.25,19.11 L20.25,4.89 C20.25,4.02 20.08,3.75 18.99,3.75 L15.36,3.75 Z"/>
</svg>

