<svg xmlns="http://www.w3.org/2000/svg" width="24" height="24" viewBox="0 0 24 24">
  <defs/>
  <path fill="#292D32" opacity="0.4" d="M11.971,22 C17.494,22 21.971,17.523 21.971,12 C21.971,6.477 17.494,2 11.971,2 C6.448,2 1.971,6.477 1.971,12 C1.971,17.523 6.448,22 11.971,22 Z"/>
  <path fill="#292D32" d="M10.72,15.03 L10.72,8.97 C10.72,8.49 10.52,8.3 10.01,8.3 L8.71,8.3 C8.2,8.3 8,8.49 8,8.97 L8,15.03 C8,15.51 8.2,15.7 8.71,15.7 L10,15.7 C10.52,15.7 10.72,15.51 10.72,15.03 Z"/>
  <path fill="#292D32" d="M15.999,15.03 L15.999,8.97 C15.999,8.49 15.799,8.3 15.289,8.3 L13.999,8.3 C13.489,8.3 13.289,8.49 13.289,8.97 L13.289,15.03 C13.289,15.51 13.489,15.7 13.999,15.7 L15.289,15.7 C15.799,15.7 15.999,15.51 15.999,15.03 Z"/>
</svg>

