<svg xmlns="http://www.w3.org/2000/svg" width="24" height="24" viewBox="0 0 24 24">
  <defs/>
  <path fill="#292D32" d="M4.6,6.449 Q2.75,8.922 2.75,12 Q2.75,15.829 5.46,18.54 Q8.171,21.25 12,21.25 Q15.829,21.25 18.54,18.54 Q21.25,15.829 21.25,12 Q21.25,8.171 18.54,5.46 Q15.829,2.75 12,2.75 Q10.031,2.75 8.276,3.535 Q7.993,3.661 7.702,3.551 Q7.412,3.44 7.285,3.156 Q7.159,2.873 7.269,2.582 Q7.38,2.292 7.664,2.165 Q9.711,1.25 12,1.25 Q16.451,1.25 19.6,4.4 Q22.75,7.549 22.75,12 Q22.75,16.451 19.6,19.6 Q16.451,22.75 12,22.75 Q7.549,22.75 4.4,19.6 Q1.25,16.451 1.25,12 Q1.25,8.422 3.4,5.551 Q3.586,5.302 3.893,5.258 Q4.201,5.213 4.449,5.4 Q4.698,5.586 4.742,5.893 Q4.787,6.201 4.6,6.449 Z"/>
  <path fill="#292D32" d="M11.499,14.43 Q11.499,15.85 10.039,15.85 L8.749,15.85 Q8.068,15.85 7.688,15.49 Q7.289,15.113 7.289,14.43 L7.289,9.37 Q7.289,7.95 8.749,7.95 L10.039,7.95 Q11.499,7.95 11.499,9.37 Z M9.999,14.35 L9.999,9.45 L8.789,9.45 L8.789,14.35 L9.999,14.35 Z"/>
  <path fill="#292D32" d="M15.28,14.43 L15.28,9.45 L14.07,9.45 L14.07,14.351 Q14.355,14.364 14.561,14.57 Q14.78,14.789 14.78,15.1 Q14.78,15.411 14.561,15.63 Q14.341,15.85 14.03,15.85 Q12.57,15.85 12.57,14.43 L12.57,9.37 Q12.57,7.95 14.03,7.95 L15.32,7.95 Q16.78,7.95 16.78,9.37 L16.78,14.43 Q16.78,14.741 16.561,14.96 Q16.341,15.18 16.03,15.18 Q15.72,15.18 15.5,14.96 Q15.28,14.741 15.28,14.43 Z"/>
</svg>

