<svg xmlns="http://www.w3.org/2000/svg" width="24" height="24" viewBox="0 0 24 24">
  <defs/>
  <path fill="#292D32" d="M11.4,19.11 Q11.4,21.75 8.64,21.75 L5.01,21.75 Q2.25,21.75 2.25,19.11 L2.25,4.89 Q2.25,3.553 2.951,2.893 Q3.633,2.25 5.01,2.25 L8.64,2.25 Q11.4,2.25 11.4,4.89 Z M9.9,19.11 L9.9,4.89 Q9.9,4.201 9.671,3.985 Q9.422,3.75 8.64,3.75 L5.01,3.75 Q4.228,3.75 3.979,3.985 Q3.75,4.201 3.75,4.89 L3.75,19.11 Q3.75,20.25 5.01,20.25 L8.64,20.25 Q9.422,20.25 9.671,20.015 Q9.9,19.799 9.9,19.11 Z"/>
  <path fill="#292D32" d="M21.75,19.11 Q21.75,21.75 18.99,21.75 L15.36,21.75 Q12.6,21.75 12.6,19.11 L12.6,4.89 Q12.6,3.554 13.306,2.892 Q13.99,2.25 15.36,2.25 L18.99,2.25 Q20.367,2.25 21.049,2.893 Q21.75,3.553 21.75,4.89 Z M20.25,19.11 L20.25,4.89 Q20.25,4.201 20.021,3.985 Q19.772,3.75 18.99,3.75 L15.36,3.75 Q14.1,3.75 14.1,4.89 L14.1,19.11 Q14.1,19.799 14.329,20.015 Q14.578,20.25 15.36,20.25 L18.99,20.25 Q20.25,20.25 20.25,19.11 Z"/>
</svg>

