<svg xmlns="http://www.w3.org/2000/svg" width="24" height="24" viewBox="0 0 24 24">
  <defs/>
  <path fill="#292D32" d="M10.65,19.11 L10.65,4.89 C10.65,3.54 10.08,3 8.64,3 L5.01,3 C3.57,3 3,3.54 3,4.89 L3,19.11 C3,20.46 3.57,21 5.01,21 L8.64,21 C10.08,21 10.65,20.46 10.65,19.11 Z"/>
  <path fill="#292D32" d="M21.002,19.11 L21.002,4.89 C21.002,3.54 20.432,3 18.992,3 L15.362,3 C13.932,3 13.352,3.54 13.352,4.89 L13.352,19.11 C13.352,20.46 13.922,21 15.362,21 L18.992,21 C20.432,21 21.002,20.46 21.002,19.11 Z"/>
</svg>

