<svg xmlns="http://www.w3.org/2000/svg" width="24" height="24" viewBox="0 0 24 24">
  <defs/>
  <path fill="#292D32" d="M5.01,3.75 Q4.228,3.75 3.979,3.985 Q3.75,4.201 3.75,4.89 L3.75,19.11 Q3.75,20.25 5.01,20.25 L8.64,20.25 Q9.417,20.25 9.668,20.014 Q9.9,19.797 9.9,19.11 L9.9,4.89 Q9.9,4.201 9.671,3.985 Q9.422,3.75 8.64,3.75 Q8.329,3.75 8.11,3.53 Q7.89,3.311 7.89,3 Q7.89,2.689 8.11,2.47 Q8.329,2.25 8.64,2.25 Q11.4,2.25 11.4,4.89 L11.4,19.11 Q11.4,21.75 8.64,21.75 L5.01,21.75 Q2.25,21.75 2.25,19.11 L2.25,4.89 Q2.25,3.553 2.951,2.893 Q3.633,2.25 5.01,2.25 Q5.321,2.25 5.54,2.47 Q5.76,2.689 5.76,3 Q5.76,3.311 5.54,3.53 Q5.321,3.75 5.01,3.75 Z"/>
  <path fill="#292D32" d="M18.99,20.25 Q20.25,20.25 20.25,19.11 L20.25,4.89 Q20.25,4.201 20.02,3.985 Q19.771,3.75 18.99,3.75 L15.36,3.75 Q14.1,3.75 14.1,4.89 L14.1,19.11 Q14.1,20.25 15.36,20.25 Q15.67,20.25 15.89,20.47 Q16.11,20.689 16.11,21 Q16.11,21.311 15.89,21.53 Q15.67,21.75 15.36,21.75 Q12.6,21.75 12.6,19.11 L12.6,4.89 Q12.6,3.554 13.305,2.892 Q13.989,2.25 15.36,2.25 L18.99,2.25 Q21.75,2.25 21.75,4.89 L21.75,19.11 Q21.75,21.75 18.99,21.75 Q18.679,21.75 18.459,21.53 Q18.24,21.311 18.24,21 Q18.24,20.689 18.459,20.47 Q18.679,20.25 18.99,20.25 Z"/>
</svg>

