<svg xmlns="http://www.w3.org/2000/svg" width="24" height="24" viewBox="0 0 24 24">
  <defs/>
  <path d="M5.429,6.857 L5.839,4.387 Q6.359,1.25 9.539,1.25 L13.999,1.25 Q16.38,1.25 18.065,2.935 Q19.749,4.619 19.749,7 Q19.749,7.302 19.716,7.595 Q19.508,10.05 17.767,11.773 Q15.808,13.75 12.999,13.75 L9.869,13.75 Q9.653,13.75 9.622,13.966 L8.862,19.247 Q8.691,20.356 7.653,20.661 Q7.418,20.75 7.129,20.75 L5.179,20.75 Q4.368,20.75 3.844,20.136 Q3.318,19.52 3.449,18.719 L4.689,11.257 Q4.74,10.951 4.993,10.77 Q5.246,10.589 5.552,10.64 Q5.859,10.691 6.039,10.944 Q6.22,11.197 6.169,11.503 L4.929,18.961 Q4.911,19.075 4.985,19.162 Q5.06,19.25 5.179,19.25 L7.129,19.25 L7.105,19.265 Q7.158,19.241 7.214,19.226 Q7.353,19.188 7.377,19.033 L8.137,13.754 Q8.352,12.25 9.869,12.25 L12.999,12.25 Q15.183,12.25 16.712,10.707 Q18.064,9.369 18.222,7.458 Q18.223,7.445 18.224,7.432 Q18.249,7.221 18.249,7 Q18.249,5.241 17.004,3.995 Q15.759,2.75 13.999,2.75 L9.539,2.75 Q7.631,2.75 7.319,4.633 L6.909,7.103 Q6.858,7.409 6.606,7.59 Q6.353,7.771 6.046,7.72 Q5.74,7.669 5.559,7.416 Q5.379,7.164 5.429,6.857 Z"/>
  <path d="M21.75,11 Q21.75,13.372 20.073,15.067 Q18.372,16.75 16,16.75 L13.849,16.75 Q13.634,16.75 13.6,16.961 L12.879,21.283 Q12.64,22.75 11.149,22.75 L8.219,22.75 Q7.391,22.75 6.867,22.106 Q6.346,21.467 6.503,20.657 L6.765,19.347 L7.214,19.226 Q7.353,19.188 7.378,19.026 L8.137,13.753 Q8.352,12.25 9.869,12.25 L13,12.25 Q15.183,12.25 16.707,10.712 Q18.064,9.369 18.222,7.458 L18.319,6.286 L19.341,6.869 Q21.75,8.242 21.75,11 Z M20.25,11 Q20.25,9.721 19.49,8.876 Q19.036,10.517 17.772,11.768 Q15.808,13.75 13,13.75 L9.869,13.75 Q9.653,13.75 9.622,13.967 L8.861,19.254 Q8.728,20.115 8.067,20.489 L7.976,20.943 Q7.952,21.064 8.03,21.159 Q8.104,21.25 8.219,21.25 L11.149,21.25 Q11.365,21.25 11.4,21.037 L12.119,16.719 Q12.359,15.25 13.849,15.25 L16,15.25 Q17.755,15.25 19.006,14.013 Q20.25,12.756 20.25,11 Z"/>
</svg>

