<svg xmlns="http://www.w3.org/2000/svg" width="24" height="24" viewBox="0 0 24 24">
  <defs/>
  <path d="M7.13,20.75 L5.18,20.75 C4.66,20.75 4.18,20.53 3.84,20.13 C3.51,19.74 3.36,19.22 3.45,18.72 L5.84,4.39 C6.14,2.57 7.7,1.25 9.54,1.25 L13.999,1.25 C17.169,1.25 19.75,3.83 19.75,7 C19.75,7.21 19.739,7.41 19.709,7.61 C19.579,9.17 18.89,10.66 17.76,11.78 C16.5,13.05 14.8,13.76 12.989,13.76 L9.86,13.76 C9.74,13.76 9.63,13.85 9.61,13.98 L8.85,19.26 C8.75,19.93 8.28,20.48 7.65,20.67 C7.45,20.74 7.26,20.75 7.13,20.75 Z M9.54,2.75 C8.43,2.75 7.5,3.54 7.32,4.63 L4.93,18.96 C4.91,19.06 4.96,19.13 4.99,19.16 C5.02,19.19 5.08,19.25 5.18,19.25 L7.13,19.25 C7.3,19.2 7.36,19.12 7.38,19.03 L8.14,13.76 C8.26,12.9 9.01,12.26 9.87,12.26 L12.999,12.26 C14.409,12.26 15.72,11.71 16.709,10.72 C17.59,9.85 18.12,8.7 18.23,7.47 C18.25,7.3 18.26,7.16 18.26,7.01 C18.26,4.67 16.35,2.76 14.01,2.76 L9.54,2.76 L9.54,2.75 Z"/>
  <path d="M11.15,22.75 L8.22,22.75 C7.7,22.75 7.21,22.52 6.87,22.11 C6.53,21.7 6.4,21.17 6.5,20.65 L6.76,19.34 L7.21,19.22 C7.29,19.2 7.36,19.12 7.38,19.02 L8.14,13.75 C8.26,12.89 9.01,12.25 9.87,12.25 L13,12.25 C14.41,12.25 15.72,11.7 16.71,10.71 C17.59,9.84 18.12,8.69 18.23,7.46 L18.33,6.29 L19.35,6.87 C20.84,7.72 21.76,9.3 21.76,11 C21.76,12.53 21.16,13.97 20.08,15.07 C18.98,16.16 17.54,16.75 16.01,16.75 L13.86,16.75 C13.73,16.75 13.63,16.84 13.61,16.96 L12.89,21.28 C12.74,22.13 12.01,22.75 11.15,22.75 Z M8.07,20.47 L7.97,20.95 C7.95,21.05 8,21.13 8.03,21.16 C8.06,21.2 8.12,21.25 8.22,21.25 L11.15,21.25 C11.28,21.25 11.38,21.16 11.4,21.04 L12.12,16.72 C12.26,15.87 12.99,15.25 13.85,15.25 L16,15.25 C17.13,15.25 18.2,14.81 19.01,14.01 C19.81,13.21 20.25,12.13 20.25,11 C20.25,10.22 19.97,9.48 19.47,8.9 C19.16,9.98 18.57,10.98 17.76,11.78 C16.5,13.05 14.8,13.76 12.99,13.76 L9.86,13.76 C9.74,13.76 9.63,13.85 9.61,13.98 L8.85,19.26 C8.78,19.76 8.49,20.2 8.07,20.47 Z"/>
</svg>

