<svg xmlns="http://www.w3.org/2000/svg" width="24" height="24" viewBox="0 0 24 24">
  <defs/>
  <path d="M18.999,7 C18.999,7.18 18.989,7.35 18.969,7.52 C18.849,8.97 18.209,10.28 17.239,11.24 C16.159,12.33 14.659,13 12.999,13 L9.869,13 C9.369,13 8.949,13.37 8.879,13.86 L8.119,19.14 C8.059,19.53 7.779,19.85 7.409,19.95 C7.319,19.99 7.229,20 7.129,20 L5.179,20 C4.559,20 4.089,19.45 4.189,18.84 L6.579,4.51 C6.819,3.06 8.069,2 9.539,2 L13.999,2 C16.759,2 18.999,4.24 18.999,7 Z"/>
  <path d="M21.001,11 C21.001,12.38 20.441,13.63 19.541,14.54 C18.631,15.44 17.381,16 16.001,16 L13.851,16 C13.361,16 12.941,16.35 12.861,16.84 L12.141,21.16 C12.061,21.65 11.641,22 11.151,22 L8.221,22 C8.041,22 7.881,21.96 7.741,21.88 C7.521,21.76 7.661,21.47 7.901,21.37 C8.801,21.08 9.461,20.31 9.601,19.35 L10.241,14.93 C10.281,14.68 10.491,14.5 10.731,14.5 L13.001,14.5 C15.011,14.5 16.901,13.72 18.301,12.31 C19.131,11.49 19.751,10.48 20.111,9.39 C20.191,9.14 20.521,9.09 20.631,9.32 C20.871,9.84 21.001,10.4 21.001,11 Z"/>
</svg>

