<svg xmlns="http://www.w3.org/2000/svg" width="24" height="24" viewBox="0 0 24 24">
  <defs/>
  <path fill="#17191C" d="M19.75,7 L19.75,7.525 L19.748,7.55 Q19.587,9.974 17.83,11.73 Q15.811,13.75 13,13.75 L9.9,13.75 Q9.7,13.75 9.639,14.032 L8.836,19.347 L8.828,19.382 Q8.552,20.485 7.582,20.728 L7.492,20.75 L5.2,20.75 Q4.397,20.75 3.875,20.159 Q3.336,19.547 3.458,18.694 L3.459,18.685 L5.859,4.385 Q6.311,1.25 9.5,1.25 L14,1.25 Q16.411,1.25 18.08,2.92 Q19.75,4.589 19.75,7 Z M18.25,7 Q18.25,2.75 14,2.75 L9.5,2.75 Q7.608,2.75 7.343,4.606 L7.341,4.615 L4.942,18.913 Q4.92,19.076 5,19.166 Q5.074,19.25 5.2,19.25 L7.261,19.25 Q7.322,19.2 7.364,19.048 L8.161,13.77 L8.165,13.753 Q8.465,12.25 9.9,12.25 L13,12.25 Q15.189,12.25 16.77,10.67 Q18.119,9.321 18.25,7.474 Z"/>
  <path fill="#17191C" d="M21.75,11 Q21.75,13.311 20.03,15.03 Q18.311,16.75 16,16.75 L13.9,16.75 Q13.68,16.75 13.638,16.938 L12.938,21.234 L12.936,21.247 Q12.655,22.65 11.2,22.65 L8.2,22.65 Q7.399,22.65 6.861,22.005 Q6.329,21.366 6.46,20.577 L6.467,20.535 L6.798,19.377 L7.218,19.272 Q7.35,19.239 7.35,19.2 L7.35,19.144 L8.161,13.77 L8.165,13.753 Q8.465,12.25 9.9,12.25 L13,12.25 Q15.232,12.25 16.645,10.695 L16.657,10.682 L16.67,10.67 Q18.018,9.321 18.152,7.447 L18.235,6.29 L19.256,6.84 Q21.75,8.183 21.75,11 Z M20.25,11 Q20.25,9.674 19.438,8.826 Q19.002,10.452 17.743,11.718 Q15.886,13.75 13,13.75 L9.9,13.75 Q9.7,13.75 9.639,14.032 L8.849,19.262 Q8.824,20.195 8.015,20.576 L7.937,20.851 Q7.933,20.948 8.014,21.045 Q8.101,21.15 8.2,21.15 L11.2,21.15 Q11.42,21.15 11.463,20.962 L12.162,16.666 L12.165,16.653 Q12.445,15.25 13.9,15.25 L16,15.25 Q17.689,15.25 18.97,13.97 Q20.25,12.689 20.25,11 Z"/>
</svg>

