<svg xmlns="http://www.w3.org/2000/svg" width="24" height="24" viewBox="0 0 24 24">
  <defs/>
  <path fill="white" opacity="0.58" d="M24,0 L0,0 L0,24 L24,24 L24,0 Z"/>
  <path fill="#292D32" d="M18.999,7 C18.999,7.18 18.989,7.35 18.969,7.52 C18.849,8.97 18.209,10.28 17.239,11.24 C16.159,12.33 14.659,13 12.999,13 L9.869,13 C9.369,13 8.949,13.37 8.879,13.86 L8.119,19.14 C8.059,19.53 7.779,19.85 7.409,19.95 C7.319,19.99 7.229,20 7.129,20 L5.179,20 C4.559,20 4.089,19.45 4.189,18.84 L6.579,4.51 C6.819,3.06 8.069,2 9.539,2 L13.999,2 C16.759,2 18.999,4.24 18.999,7 Z"/>
  <path fill="#292D32" opacity="0.4" d="M21,11 C21,12.38 20.439,13.63 19.54,14.54 C18.63,15.44 17.38,16 15.999,16 L13.85,16 C13.36,16 12.94,16.35 12.86,16.84 L12.139,21.16 C12.059,21.65 11.639,22 11.149,22 L8.22,22 C7.59,22 7.119,21.42 7.239,20.8 L7.41,19.95 C7.779,19.85 8.059,19.53 8.119,19.14 L8.88,13.86 C8.95,13.37 9.369,13 9.869,13 L12.999,13 C14.659,13 16.16,12.33 17.239,11.24 C18.209,10.28 18.849,8.97 18.97,7.52 C20.18,8.21 21,9.51 21,11 Z"/>
</svg>

