<svg xmlns="http://www.w3.org/2000/svg" width="24" height="24" viewBox="0 0 24 24">
  <defs/>
  <path fill="#292D32" d="M13.27,23.25 L10.75,23.25 C10.05,23.25 9.42,22.95 9,22.44 C8.63,21.98 8.49,21.39 8.62,20.83 L9.03,19.02 C9.11,18.68 9.41,18.44 9.76,18.44 L14.26,18.44 C14.61,18.44 14.91,18.68 14.99,19.02 L15.4,20.83 C15.53,21.43 15.41,22.01 15.04,22.47 C14.63,22.96 13.99,23.25 13.27,23.25 Z M10.36,19.92 L10.08,21.15 C10.05,21.3 10.11,21.42 10.17,21.49 C10.3,21.65 10.51,21.74 10.75,21.74 L13.27,21.74 C13.53,21.74 13.75,21.66 13.87,21.51 C13.95,21.41 13.97,21.29 13.94,21.14 L13.66,19.91 L10.36,19.91 L10.36,19.92 Z"/>
  <path fill="#292D32" d="M14.259,19.92 C14.05,19.92 13.85,19.84 13.7,19.67 C13.43,19.36 13.45,18.89 13.759,18.61 L15.489,17.07 C16.18,16.46 16.149,16.31 15.639,15.67 L12.589,11.8 C12.419,11.59 12.22,11.47 12.009,11.47 C11.8,11.47 11.6,11.59 11.43,11.8 L8.38,15.67 C7.84,16.36 7.85,16.51 8.51,17.05 L10.259,18.61 C10.569,18.88 10.6,19.36 10.319,19.67 C10.04,19.98 9.57,20.01 9.26,19.73 L7.53,18.19 C6.27,17.16 6.16,16.06 7.2,14.74 L10.249,10.87 C10.7,10.3 11.339,9.97 12.009,9.97 C12.68,9.97 13.319,10.3 13.77,10.87 L16.82,14.74 C17.849,16.04 17.75,17.08 16.489,18.19 L14.759,19.73 C14.61,19.86 14.43,19.92 14.259,19.92 Z"/>
  <path fill="#292D32" d="M12.01,14.4 C11.6,14.4 11.26,14.06 11.26,13.65 L11.26,11.12 C11.26,10.71 11.6,10.37 12.01,10.37 C12.42,10.37 12.76,10.71 12.76,11.12 L12.76,13.65 C12.76,14.07 12.42,14.4 12.01,14.4 Z"/>
  <path fill="#292D32" d="M11.999,6.29 C11.499,6.29 10.999,6.1 10.62,5.72 L9.84,4.94 C9.08,4.18 9.08,2.94 9.84,2.18 L10.62,1.4 C11.38,0.64 12.62,0.64 13.38,1.4 L14.159,2.18 C14.919,2.94 14.919,4.18 14.159,4.94 L13.38,5.72 C12.999,6.1 12.499,6.29 11.999,6.29 Z M11.999,2.33 C11.88,2.33 11.77,2.37 11.68,2.46 L10.899,3.24 C10.819,3.32 10.77,3.44 10.77,3.56 C10.77,3.68 10.819,3.79 10.899,3.88 L11.68,4.66 C11.85,4.83 12.149,4.83 12.319,4.66 L13.1,3.88 C13.18,3.8 13.229,3.68 13.229,3.56 C13.229,3.44 13.18,3.33 13.1,3.24 L12.319,2.46 C12.229,2.38 12.12,2.33 11.999,2.33 Z"/>
  <path fill="#292D32" d="M20.55,14.06 L19.45,14.06 C18.37,14.06 17.5,13.18 17.5,12.11 L17.5,11.01 C17.5,9.93 18.38,9.06 19.45,9.06 L20.55,9.06 C21.63,9.06 22.5,9.94 22.5,11.01 L22.5,12.11 C22.5,13.19 21.62,14.06 20.55,14.06 Z M19.45,10.56 C19.2,10.56 19,10.76 19,11.01 L19,12.11 C19,12.36 19.2,12.56 19.45,12.56 L20.55,12.56 C20.8,12.56 21,12.36 21,12.11 L21,11.01 C21,10.76 20.8,10.56 20.55,10.56 L19.45,10.56 Z"/>
  <path fill="#292D32" d="M4.55,14.06 L3.45,14.06 C2.37,14.06 1.5,13.18 1.5,12.11 L1.5,11.01 C1.5,9.93 2.38,9.06 3.45,9.06 L4.55,9.06 C5.63,9.06 6.5,9.94 6.5,11.01 L6.5,12.11 C6.5,13.19 5.62,14.06 4.55,14.06 Z M3.45,10.56 C3.2,10.56 3,10.76 3,11.01 L3,12.11 C3,12.36 3.2,12.56 3.45,12.56 L4.55,12.56 C4.8,12.56 5,12.36 5,12.11 L5,11.01 C5,10.76 4.8,10.56 4.55,10.56 L3.45,10.56 Z"/>
  <path fill="#292D32" d="M18.54,10.85 C18.35,10.85 18.16,10.78 18.01,10.63 L12.71,5.33 C12.42,5.04 12.42,4.56 12.71,4.27 C13,3.98 13.48,3.98 13.77,4.27 L19.07,9.57 C19.36,9.86 19.36,10.34 19.07,10.63 C18.92,10.78 18.73,10.85 18.54,10.85 Z"/>
  <path fill="#292D32" d="M5.46,10.85 C5.27,10.85 5.08,10.78 4.93,10.63 C4.64,10.34 4.64,9.86 4.93,9.57 L10.23,4.27 C10.52,3.98 11,3.98 11.29,4.27 C11.58,4.56 11.58,5.04 11.29,5.33 L5.99,10.63 C5.84,10.78 5.65,10.85 5.46,10.85 Z"/>
</svg>

