<svg xmlns="http://www.w3.org/2000/svg" width="24" height="24" viewBox="0 0 24 24">
  <defs/>
  <path fill="#292D32" d="M18.251,14.22 C18.061,14.22 17.861,14.14 17.721,14 L12.051,8.33 C11.801,8.08 11.761,7.7 11.951,7.4 L13.721,4.6 C14.201,3.83 14.951,3.36 15.811,3.26 C16.761,3.15 17.771,3.54 18.551,4.32 L21.731,7.5 C22.481,8.25 22.851,9.25 22.741,10.25 C22.641,11.12 22.181,11.87 21.461,12.33 L18.661,14.1 C18.531,14.18 18.391,14.22 18.251,14.22 Z M13.541,7.7 L18.361,12.52 L20.651,11.07 C20.991,10.86 21.201,10.51 21.241,10.09 C21.301,9.56 21.081,8.99 20.661,8.57 L17.481,5.39 C17.021,4.93 16.471,4.7 15.971,4.76 C15.571,4.8 15.231,5.03 14.991,5.41 L13.541,7.7 Z"/>
  <path fill="#292D32" d="M6.629,22.75 C5.689,22.75 4.859,22.42 4.239,21.8 C3.519,21.08 3.199,20.07 3.329,18.95 L4.309,10.67 C4.359,10.26 4.729,9.97 5.139,10.01 C5.549,10.06 5.849,10.43 5.799,10.84 L4.819,19.12 C4.739,19.77 4.909,20.34 5.299,20.73 C5.689,21.12 6.269,21.3 6.929,21.22 L15.649,20.19 C17.509,19.97 17.919,19.47 17.739,17.65 L17.499,13.5 C17.479,13.09 17.789,12.73 18.209,12.71 C18.619,12.69 18.979,13 18.999,13.42 L19.239,17.54 C19.499,20.12 18.479,21.37 15.829,21.69 L7.109,22.72 C6.949,22.74 6.789,22.75 6.629,22.75 Z"/>
  <path fill="#292D32" d="M12.58,8.56 C12.56,8.56 12.55,8.56 12.53,8.56 L10.78,8.45 C10.37,8.42 10.05,8.07 10.08,7.65 C10.11,7.23 10.46,6.92 10.88,6.95 L12.63,7.06 C13.04,7.09 13.36,7.44 13.33,7.86 C13.3,8.25 12.97,8.56 12.58,8.56 Z"/>
  <path fill="#292D32" d="M5.281,21.53 C5.091,21.53 4.901,21.46 4.751,21.31 C4.461,21.02 4.461,20.54 4.751,20.25 L7.931,17.07 C8.221,16.78 8.701,16.78 8.991,17.07 C9.281,17.36 9.281,17.84 8.991,18.13 L5.811,21.31 C5.661,21.46 5.471,21.53 5.281,21.53 Z"/>
  <path fill="#292D32" d="M6.5,11.75 C5.91,11.75 5.34,11.65 4.81,11.47 C3.65,11.08 2.65,10.28 2.01,9.21 C1.51,8.39 1.25,7.45 1.25,6.5 C1.25,4.88 1.97,3.39 3.23,2.4 C4.15,1.66 5.31,1.25 6.5,1.25 C9.4,1.25 11.75,3.61 11.75,6.5 C11.75,6.97 11.68,7.46 11.55,7.91 C11.42,8.37 11.24,8.79 10.99,9.21 C10.7,9.69 10.35,10.1 9.94,10.45 C9,11.29 7.78,11.75 6.5,11.75 Z M6.5,2.75 C5.65,2.75 4.82,3.04 4.16,3.57 C3.26,4.28 2.75,5.34 2.75,6.5 C2.75,7.17 2.94,7.84 3.29,8.43 C3.75,9.19 4.46,9.77 5.29,10.04 C6.51,10.47 7.95,10.2 8.96,9.31 C9.25,9.06 9.5,8.76 9.71,8.43 C9.89,8.13 10.02,7.83 10.11,7.5 C10.2,7.17 10.25,6.83 10.25,6.5 C10.25,4.43 8.57,2.75 6.5,2.75 Z"/>
  <path fill="#292D32" d="M8.161,7.25 L4.801,7.25 C4.391,7.25 4.051,6.91 4.051,6.5 C4.051,6.09 4.391,5.75 4.801,5.75 L8.161,5.75 C8.571,5.75 8.911,6.09 8.911,6.5 C8.911,6.91 8.581,7.25 8.161,7.25 Z"/>
</svg>

