<svg xmlns="http://www.w3.org/2000/svg" width="24" height="24" viewBox="0 0 24 24">
  <defs/>
  <path fill="#292D32" d="M12.52,1.5 L11.52,1.5 C10.69,1.5 10.02,2.17 10.02,3 L10.02,4 C10.02,4.83 10.69,5.5 11.52,5.5 L12.52,5.5 C13.35,5.5 14.02,4.83 14.02,4 L14.02,3 C14.02,2.17 13.35,1.5 12.52,1.5 Z"/>
  <path fill="#292D32" d="M4.27,10.67 L3.27,10.67 C2.44,10.67 1.77,11.34 1.77,12.17 L1.77,13.17 C1.77,14 2.44,14.67 3.27,14.67 L4.27,14.67 C5.1,14.67 5.77,14 5.77,13.17 L5.77,12.17 C5.77,11.34 5.09,10.67 4.27,10.67 Z"/>
  <path fill="#292D32" d="M20.73,10.67 L19.73,10.67 C18.901,10.67 18.23,11.34 18.23,12.17 L18.23,13.17 C18.23,14 18.901,14.67 19.73,14.67 L20.73,14.67 C21.561,14.67 22.23,14 22.23,13.17 L22.23,12.17 C22.23,11.34 21.561,10.67 20.73,10.67 Z"/>
  <path fill="#292D32" d="M3.75,11.92 C3.34,11.92 3,11.58 3,11.17 C3,6.9 6.2,3.31 10.44,2.81 C10.84,2.77 11.22,3.06 11.27,3.47 C11.32,3.88 11.02,4.25 10.61,4.3 C7.13,4.71 4.5,7.66 4.5,11.17 C4.5,11.58 4.16,11.92 3.75,11.92 Z"/>
  <path fill="#292D32" d="M20.249,11.92 C19.839,11.92 19.499,11.58 19.499,11.17 C19.499,7.68 16.889,4.73 13.429,4.31 C13.019,4.26 12.729,3.89 12.779,3.48 C12.829,3.07 13.209,2.78 13.619,2.83 C17.829,3.34 21.009,6.93 21.009,11.18 C20.999,11.58 20.669,11.92 20.249,11.92 Z"/>
  <path fill="#292D32" d="M13.29,22.01 L10.72,22.01 C9.8,22.01 9.12,21.27 9.29,20.47 L9.71,18.62 L14.3,18.62 L14.72,20.47 C14.91,21.32 14.27,22.01 13.29,22.01 Z"/>
  <path fill="#292D32" opacity="0.4" d="M16.07,17.05 L14.3,18.62 L9.71,18.62 L7.94,17.05 C6.91,16.21 6.91,15.56 7.69,14.57 L10.81,10.63 C11.03,10.36 11.28,10.17 11.55,10.08 C11.84,9.98 12.16,9.98 12.45,10.08 C12.72,10.18 12.97,10.36 13.19,10.63 L16.31,14.57 C17.09,15.56 17.06,16.18 16.07,17.05 Z"/>
</svg>

