<svg xmlns="http://www.w3.org/2000/svg" width="24" height="24" viewBox="0 0 24 24">
  <defs/>
  <path fill="#292D32" d="M13.27,23.25 L10.75,23.25 C10.05,23.25 9.42,22.95 9,22.44 C8.63,21.98 8.49,21.39 8.62,20.83 L9.03,19.02 C9.11,18.68 9.41,18.44 9.76,18.44 L14.26,18.44 C14.61,18.44 14.91,18.68 14.99,19.02 L15.4,20.83 C15.53,21.43 15.41,22.01 15.04,22.47 C14.63,22.96 13.99,23.25 13.27,23.25 Z M10.36,19.92 L10.08,21.15 C10.05,21.3 10.11,21.42 10.17,21.49 C10.3,21.65 10.51,21.74 10.75,21.74 L13.27,21.74 C13.53,21.74 13.75,21.66 13.87,21.51 C13.95,21.41 13.97,21.29 13.94,21.14 L13.66,19.91 L10.36,19.91 L10.36,19.92 Z"/>
  <path fill="#292D32" d="M14.259,19.92 C14.05,19.92 13.85,19.84 13.7,19.67 C13.43,19.36 13.45,18.89 13.759,18.61 L15.489,17.07 C16.18,16.46 16.149,16.31 15.639,15.67 L12.589,11.8 C12.419,11.59 12.22,11.47 12.009,11.47 C11.8,11.47 11.6,11.59 11.43,11.8 L8.38,15.67 C7.84,16.36 7.85,16.51 8.51,17.05 L10.259,18.61 C10.569,18.88 10.6,19.36 10.319,19.67 C10.04,19.98 9.57,20.01 9.26,19.73 L7.53,18.19 C6.27,17.16 6.16,16.06 7.2,14.74 L10.249,10.87 C10.7,10.3 11.339,9.97 12.009,9.97 C12.68,9.97 13.319,10.3 13.77,10.87 L16.82,14.74 C17.849,16.04 17.75,17.08 16.489,18.19 L14.759,19.73 C14.61,19.86 14.43,19.92 14.259,19.92 Z"/>
  <path fill="#292D32" d="M12.01,14.4 C11.6,14.4 11.26,14.06 11.26,13.65 L11.26,11.12 C11.26,10.71 11.6,10.37 12.01,10.37 C12.42,10.37 12.76,10.71 12.76,11.12 L12.76,13.65 C12.76,14.07 12.42,14.4 12.01,14.4 Z"/>
  <path fill="#292D32" d="M12.52,5.75 L11.52,5.75 C10.559,5.75 9.77,4.96 9.77,4 L9.77,3 C9.77,2.04 10.559,1.25 11.52,1.25 L12.52,1.25 C13.479,1.25 14.27,2.04 14.27,3 L14.27,4 C14.27,4.96 13.489,5.75 12.52,5.75 Z M11.52,2.75 C11.38,2.75 11.27,2.86 11.27,3 L11.27,4 C11.27,4.14 11.38,4.25 11.52,4.25 L12.52,4.25 C12.659,4.25 12.77,4.14 12.77,4 L12.77,3 C12.77,2.86 12.659,2.75 12.52,2.75 L11.52,2.75 Z"/>
  <path fill="#292D32" d="M4.27,14.92 L3.27,14.92 C2.31,14.92 1.52,14.13 1.52,13.17 L1.52,12.17 C1.52,11.21 2.31,10.42 3.27,10.42 L4.27,10.42 C5.23,10.42 6.02,11.21 6.02,12.17 L6.02,13.17 C6.02,14.13 5.23,14.92 4.27,14.92 Z M3.27,11.92 C3.13,11.92 3.02,12.03 3.02,12.17 L3.02,13.17 C3.02,13.31 3.13,13.42 3.27,13.42 L4.27,13.42 C4.41,13.42 4.52,13.31 4.52,13.17 L4.52,12.17 C4.52,12.03 4.41,11.92 4.27,11.92 L3.27,11.92 Z"/>
  <path fill="#292D32" d="M20.73,14.92 L19.73,14.92 C18.77,14.92 17.98,14.13 17.98,13.17 L17.98,12.17 C17.98,11.21 18.77,10.42 19.73,10.42 L20.73,10.42 C21.691,10.42 22.48,11.21 22.48,12.17 L22.48,13.17 C22.48,14.13 21.701,14.92 20.73,14.92 Z M19.73,11.92 C19.59,11.92 19.48,12.03 19.48,12.17 L19.48,13.17 C19.48,13.31 19.59,13.42 19.73,13.42 L20.73,13.42 C20.87,13.42 20.98,13.31 20.98,13.17 L20.98,12.17 C20.98,12.03 20.87,11.92 20.73,11.92 L19.73,11.92 Z"/>
  <path fill="#292D32" d="M3.75,11.92 C3.34,11.92 3,11.58 3,11.17 C3,6.9 6.2,3.31 10.44,2.81 C10.85,2.77 11.22,3.06 11.27,3.47 C11.32,3.88 11.02,4.25 10.61,4.3 C7.13,4.71 4.5,7.66 4.5,11.17 C4.5,11.58 4.16,11.92 3.75,11.92 Z"/>
  <path fill="#292D32" d="M20.249,11.92 C19.839,11.92 19.499,11.58 19.499,11.17 C19.499,7.68 16.889,4.73 13.429,4.31 C13.019,4.26 12.729,3.89 12.779,3.48 C12.829,3.07 13.199,2.77 13.619,2.83 C17.829,3.34 21.009,6.93 21.009,11.18 C20.999,11.58 20.669,11.92 20.249,11.92 Z"/>
</svg>

