<svg xmlns="http://www.w3.org/2000/svg" width="24" height="24" viewBox="0 0 24 24">
  <defs/>
  <path fill="#292D32" d="M11.15,5.19 L10.37,4.41 C9.9,3.94 9.9,3.18 10.37,2.71 L11.15,1.93 C11.62,1.46 12.38,1.46 12.85,1.93 L13.63,2.71 C14.1,3.18 14.1,3.94 13.63,4.41 L12.85,5.19 C12.38,5.66 11.62,5.66 11.15,5.19 Z"/>
  <path fill="#292D32" d="M12,5.91 C11.6,5.91 11.19,5.76 10.89,5.45 L10.11,4.67 C9.5,4.06 9.5,3.06 10.11,2.44 L10.89,1.66 C11.48,1.06 12.52,1.07 13.12,1.66 L13.9,2.44 C14.51,3.05 14.51,4.05 13.9,4.67 L13.12,5.45 C12.81,5.76 12.4,5.91 12,5.91 Z M12,1.96 C11.79,1.96 11.58,2.04 11.42,2.2 L10.64,2.98 C10.32,3.3 10.32,3.83 10.64,4.15 L11.42,4.93 C11.74,5.25 12.26,5.25 12.59,4.93 L13.37,4.15 C13.69,3.83 13.69,3.31 13.37,2.98 L12.59,2.2 C12.42,2.04 12.21,1.96 12,1.96 Z"/>
  <path fill="#292D32" d="M19.45,9.81 L20.55,9.81 C21.21,9.81 21.75,10.35 21.75,11.01 L21.75,12.11 C21.75,12.77 21.21,13.31 20.55,13.31 L19.45,13.31 C18.79,13.31 18.25,12.77 18.25,12.11 L18.25,11.01 C18.25,10.35 18.79,9.81 19.45,9.81 Z"/>
  <path fill="#292D32" d="M20.549,13.69 L19.449,13.69 C18.579,13.69 17.869,12.98 17.869,12.11 L17.869,11.01 C17.869,10.14 18.579,9.43 19.449,9.43 L20.549,9.43 C21.419,9.43 22.129,10.14 22.129,11.01 L22.129,12.11 C22.119,12.98 21.419,13.69 20.549,13.69 Z M19.449,10.19 C18.989,10.19 18.619,10.56 18.619,11.02 L18.619,12.12 C18.619,12.58 18.989,12.95 19.449,12.95 L20.549,12.95 C21.009,12.95 21.379,12.58 21.379,12.12 L21.379,11.02 C21.379,10.56 21.009,10.19 20.549,10.19 L19.449,10.19 Z"/>
  <path fill="#292D32" d="M4.55,9.81 L3.45,9.81 C2.79,9.81 2.25,10.35 2.25,11.01 L2.25,12.11 C2.25,12.77 2.79,13.31 3.45,13.31 L4.55,13.31 C5.21,13.31 5.75,12.77 5.75,12.11 L5.75,11.01 C5.75,10.35 5.21,9.81 4.55,9.81 Z"/>
  <path fill="#292D32" d="M4.549,13.69 L3.449,13.69 C2.579,13.69 1.869,12.98 1.869,12.11 L1.869,11.01 C1.869,10.14 2.579,9.43 3.449,9.43 L4.549,9.43 C5.419,9.43 6.129,10.14 6.129,11.01 L6.129,12.11 C6.119,12.98 5.419,13.69 4.549,13.69 Z M3.449,10.19 C2.989,10.19 2.619,10.56 2.619,11.02 L2.619,12.12 C2.619,12.58 2.989,12.95 3.449,12.95 L4.549,12.95 C5.009,12.95 5.379,12.58 5.379,12.12 L5.379,11.02 C5.379,10.56 5.009,10.19 4.549,10.19 L3.449,10.19 Z"/>
  <path fill="#292D32" d="M12.71,4.269 C13.003,3.977 13.478,3.977 13.771,4.269 L19.071,9.569 C19.364,9.862 19.364,10.337 19.071,10.63 C18.778,10.923 18.303,10.923 18.01,10.63 L12.71,5.33 C12.417,5.037 12.417,4.562 12.71,4.269 Z"/>
  <path fill="#292D32" d="M11.291,4.269 C11.584,4.562 11.584,5.037 11.291,5.33 L5.991,10.63 C5.698,10.923 5.223,10.923 4.931,10.63 C4.638,10.337 4.638,9.862 4.931,9.569 L10.231,4.269 C10.524,3.977 10.998,3.977 11.291,4.269 Z"/>
  <path fill="#292D32" d="M13.26,22.01 L10.7,22.01 C9.78,22.01 9.1,21.27 9.27,20.47 L9.69,18.62 L14.28,18.62 L14.7,20.47 C14.89,21.32 14.24,22.01 13.26,22.01 Z"/>
  <path fill="#292D32" opacity="0.4" d="M16.041,17.05 L14.271,18.62 L9.681,18.62 L7.911,17.05 C6.881,16.21 6.881,15.56 7.661,14.57 L10.78,10.63 C11.001,10.36 11.251,10.17 11.521,10.08 C11.81,9.98 12.13,9.98 12.421,10.08 C12.691,10.18 12.941,10.36 13.161,10.63 L16.28,14.57 C17.07,15.56 17.03,16.18 16.041,17.05 Z"/>
</svg>

