<svg xmlns="http://www.w3.org/2000/svg" width="24" height="24" viewBox="0 0 24 24">
  <defs/>
  <g opacity="0.4">
    <path fill="#292D32" d="M10.749,23.25 Q9.747,23.25 9.095,22.548 Q8.394,21.794 8.618,20.824 L9.028,19.015 Q9.16,18.43 9.759,18.43 L14.259,18.43 Q14.858,18.43 14.991,19.014 L15.402,20.831 Q15.62,21.836 14.948,22.565 Q14.316,23.25 13.269,23.25 Z M10.749,21.75 L13.269,21.75 Q13.659,21.75 13.846,21.548 Q13.989,21.392 13.936,21.149 L13.66,19.93 L10.358,19.93 L10.081,21.156 Q10.035,21.356 10.194,21.527 Q10.401,21.75 10.749,21.75 Z"/>
    <path fill="#292D32" d="M13.762,18.61 L15.492,17.07 Q16.235,16.411 15.643,15.666 L12.591,11.794 Q12.337,11.473 12.016,11.473 Q11.694,11.473 11.439,11.795 L8.39,15.664 Q7.774,16.44 8.517,17.051 Q8.528,17.06 8.539,17.07 L10.269,18.61 Q10.501,18.817 10.519,19.127 Q10.537,19.437 10.331,19.669 Q10.124,19.901 9.814,19.919 Q9.504,19.937 9.272,19.73 L7.552,18.2 Q5.687,16.657 7.212,14.736 L10.262,10.865 Q10.967,9.973 12.016,9.973 Q13.064,9.973 13.77,10.866 L16.818,14.734 Q18.293,16.591 16.489,18.19 L14.759,19.73 Q14.527,19.937 14.217,19.919 Q13.907,19.901 13.7,19.669 Q13.494,19.437 13.512,19.127 Q13.53,18.817 13.762,18.61 Z"/>
    <path fill="#292D32" d="M12.76,11.12 L12.76,13.65 Q12.76,13.961 12.54,14.18 Q12.32,14.4 12.01,14.4 Q11.699,14.4 11.479,14.18 Q11.26,13.961 11.26,13.65 L11.26,11.12 Q11.26,10.809 11.479,10.59 Q11.699,10.37 12.01,10.37 Q12.32,10.37 12.54,10.59 Q12.76,10.809 12.76,11.12 Z"/>
  </g>
  <path fill="#292D32" d="M12.519,5.75 L11.519,5.75 Q9.769,5.75 9.769,4 L9.769,3 Q9.769,2.277 10.283,1.763 Q10.796,1.25 11.519,1.25 L12.519,1.25 Q13.243,1.25 13.756,1.763 Q14.269,2.277 14.269,3 L14.269,4 Q14.269,5.75 12.519,5.75 Z M12.519,4.25 Q12.769,4.25 12.769,4 L12.769,3 Q12.769,2.75 12.519,2.75 L11.519,2.75 Q11.269,2.75 11.269,3 L11.269,4 Q11.269,4.102 11.344,4.176 Q11.418,4.25 11.519,4.25 Z"/>
  <path fill="#292D32" d="M3.27,14.92 Q2.546,14.92 2.033,14.407 Q1.52,13.893 1.52,13.17 L1.52,12.17 Q1.52,10.42 3.27,10.42 L4.27,10.42 Q6.02,10.42 6.02,12.17 L6.02,13.17 Q6.02,14.92 4.27,14.92 Z M3.27,13.42 L4.27,13.42 Q4.52,13.42 4.52,13.17 L4.52,12.17 Q4.52,12.068 4.445,11.994 Q4.371,11.92 4.27,11.92 L3.27,11.92 Q3.168,11.92 3.094,11.994 Q3.02,12.068 3.02,12.17 L3.02,13.17 Q3.02,13.272 3.094,13.346 Q3.168,13.42 3.27,13.42 Z"/>
  <path fill="#292D32" d="M20.73,14.92 L19.73,14.92 Q17.98,14.92 17.98,13.17 L17.98,12.17 Q17.98,10.42 19.73,10.42 L20.73,10.42 Q22.48,10.42 22.48,12.17 L22.48,13.17 Q22.48,13.893 21.967,14.407 Q21.454,14.92 20.73,14.92 Z M20.73,13.42 Q20.98,13.42 20.98,13.17 L20.98,12.17 Q20.98,12.068 20.906,11.994 Q20.832,11.92 20.73,11.92 L19.73,11.92 Q19.629,11.92 19.555,11.994 Q19.48,12.068 19.48,12.17 L19.48,13.17 Q19.48,13.42 19.73,13.42 Z"/>
  <path fill="#292D32" d="M10.608,4.305 Q8.015,4.611 6.264,6.561 Q4.5,8.527 4.5,11.17 Q4.5,11.481 4.28,11.7 Q4.061,11.92 3.75,11.92 Q3.439,11.92 3.22,11.7 Q3,11.481 3,11.17 Q3,7.952 5.148,5.559 Q7.276,3.188 10.432,2.815 Q10.741,2.779 10.984,2.971 Q11.228,3.164 11.265,3.472 Q11.301,3.781 11.109,4.025 Q10.916,4.268 10.608,4.305 Z"/>
  <path fill="#292D32" d="M19.5,11.17 Q19.499,8.534 17.746,6.571 Q16.008,4.624 13.427,4.304 Q13.119,4.266 12.928,4.021 Q12.737,3.776 12.775,3.468 Q12.813,3.159 13.058,2.968 Q13.304,2.778 13.612,2.816 Q16.752,3.205 18.865,5.572 Q20.999,7.962 21,11.17 Q20.999,11.481 20.78,11.7 Q20.56,11.92 20.249,11.92 Q19.939,11.92 19.719,11.7 Q19.499,11.481 19.5,11.17 Z"/>
</svg>

