<svg xmlns="http://www.w3.org/2000/svg" width="24" height="24" viewBox="0 0 24 24">
  <defs/>
  <path fill="#292D32" d="M21.711,11.35 L18.701,13.25 L12.621,7.17 L14.511,4.16 C15.391,2.77 17.161,2.71 18.451,4 L21.861,7.41 C23.081,8.64 23.001,10.53 21.711,11.35 Z"/>
  <path fill="#292D32" opacity="0.4" d="M16,21.29 L6.64,22.39 C5.99,22.47 5.41,22.37 4.92,22.13 C4.4,21.87 3.99,21.47 3.73,20.94 C3.49,20.45 3.4,19.88 3.47,19.24 L4.51,10.53 C4.68,10.62 4.87,10.7 5.06,10.76 C5.51,10.92 5.99,11 6.5,11 C7.64,11 8.67,10.58 9.46,9.88 C9.81,9.58 10.11,9.22 10.35,8.82 C10.56,8.47 10.72,8.1 10.83,7.7 C10.89,7.5 10.93,7.29 10.96,7.07 L12.62,7.17 L18.7,13.26 L18.96,17.68 C19.21,20.16 18.35,21.02 16,21.29 Z"/>
  <path fill="#292D32" d="M8.78,18.28 L4.93,22.13 C4.4,21.87 4,21.47 3.74,20.94 L7.59,17.09 C7.93,16.76 8.46,16.76 8.78,17.09 C9.11,17.42 9.11,17.95 8.78,18.28 Z"/>
  <path fill="#292D32" d="M6.5,2 C5.44,2 4.46,2.37 3.69,2.99 C2.65,3.81 2,5.08 2,6.5 C2,7.34 2.24,8.14 2.65,8.82 C3.09,9.55 3.73,10.15 4.51,10.53 C4.68,10.62 4.87,10.7 5.06,10.76 C5.51,10.92 5.99,11 6.5,11 C7.64,11 8.67,10.58 9.46,9.88 C9.81,9.58 10.11,9.22 10.35,8.82 C10.56,8.47 10.72,8.1 10.83,7.7 C10.89,7.5 10.93,7.29 10.96,7.07 C10.99,6.88 11,6.69 11,6.5 C11,4.01 8.99,2 6.5,2 Z M8.23,8.21 C8.08,8.36 7.89,8.43 7.7,8.43 C7.51,8.43 7.32,8.36 7.17,8.21 L6.51,7.55 L5.82,8.24 C5.67,8.39 5.48,8.46 5.29,8.46 C5.1,8.46 4.91,8.39 4.76,8.24 C4.47,7.95 4.47,7.47 4.76,7.18 L5.45,6.49 L4.79,5.83 C4.5,5.54 4.5,5.06 4.79,4.77 C5.08,4.48 5.56,4.48 5.85,4.77 L6.51,5.43 L7.14,4.8 C7.43,4.51 7.91,4.51 8.2,4.8 C8.49,5.09 8.49,5.57 8.2,5.86 L7.57,6.49 L8.23,7.15 C8.53,7.44 8.53,7.91 8.23,8.21 Z"/>
</svg>

