<svg xmlns="http://www.w3.org/2000/svg" width="24" height="24" viewBox="0 0 24 24">
  <defs/>
  <g opacity="0.4">
    <path fill="#292D32" d="M21.718,7.507 Q21.719,7.508 21.72,7.51 Q22.807,8.588 22.751,10.039 Q22.692,11.554 21.451,12.344 L18.651,14.114 Q18.144,14.434 17.72,14.01 L12.05,8.34 Q11.626,7.916 11.946,7.409 L13.715,4.611 Q14.532,3.31 16.004,3.252 Q17.407,3.196 18.54,4.33 Z M20.66,8.57 L17.48,5.39 Q16.811,4.721 16.063,4.751 Q15.382,4.778 14.985,5.409 L13.535,7.704 L18.356,12.525 L20.649,11.076 Q21.224,10.71 21.252,9.981 Q21.283,9.188 20.662,8.573 Z"/>
    <path fill="#292D32" d="M18.999,13.426 L19.238,17.531 Q19.602,21.245 15.829,21.694 L7.109,22.725 Q5.366,22.923 4.248,21.805 Q3.127,20.685 3.336,18.95 L4.316,10.672 Q4.352,10.363 4.596,10.171 Q4.84,9.978 5.149,10.015 Q5.457,10.052 5.65,10.295 Q5.842,10.539 5.805,10.848 L4.825,19.129 Q4.704,20.14 5.308,20.744 Q5.915,21.351 6.933,21.235 L15.652,20.205 Q17.971,19.928 17.744,17.664 Q17.743,17.649 17.742,17.633 L17.502,13.513 Q17.484,13.203 17.69,12.971 Q17.897,12.739 18.207,12.721 Q18.517,12.703 18.749,12.909 Q18.981,13.116 18.999,13.426 Z"/>
    <path fill="#292D32" d="M12.533,8.559 L10.783,8.449 Q10.473,8.429 10.268,8.196 Q10.062,7.963 10.082,7.653 Q10.101,7.343 10.334,7.138 Q10.567,6.932 10.877,6.952 L12.627,7.062 Q12.937,7.081 13.143,7.314 Q13.348,7.547 13.329,7.857 Q13.309,8.167 13.076,8.373 Q12.843,8.578 12.533,8.559 Z"/>
    <path fill="#292D32" d="M4.75,20.25 L7.93,17.06 Q8.149,16.84 8.46,16.84 Q8.771,16.839 8.991,17.059 Q9.211,17.278 9.211,17.589 Q9.212,17.899 8.992,18.119 L5.812,21.309 Q5.593,21.529 5.282,21.53 Q4.972,21.53 4.752,21.311 Q4.532,21.092 4.531,20.781 Q4.531,20.47 4.75,20.25 Z"/>
  </g>
  <path fill="#292D32" d="M11.75,6.5 Q11.75,7.219 11.55,7.909 Q11.363,8.589 10.993,9.206 Q10.563,9.922 9.948,10.449 Q8.48,11.75 6.5,11.75 Q5.606,11.75 4.809,11.467 Q3.002,10.865 2.007,9.206 Q1.25,7.951 1.25,6.5 Q1.25,3.959 3.226,2.401 Q4.655,1.25 6.5,1.25 Q8.678,1.25 10.214,2.786 Q11.75,4.322 11.75,6.5 Z M10.25,6.5 Q10.25,2.75 6.5,2.75 Q5.184,2.75 4.154,3.579 Q2.75,4.686 2.75,6.5 Q2.75,7.533 3.293,8.434 Q4.003,9.617 5.311,10.053 Q5.864,10.25 6.5,10.25 Q7.912,10.25 8.972,9.311 Q9.402,8.942 9.707,8.434 Q9.972,7.993 10.11,7.491 Q10.25,7.006 10.25,6.5 Z"/>
  <path fill="#292D32" d="M8.161,7.25 L4.801,7.25 Q4.49,7.25 4.27,7.03 Q4.051,6.811 4.051,6.5 Q4.051,6.189 4.27,5.97 Q4.49,5.75 4.801,5.75 L8.161,5.75 Q8.471,5.75 8.691,5.97 Q8.911,6.189 8.911,6.5 Q8.911,6.811 8.691,7.03 Q8.471,7.25 8.161,7.25 Z"/>
</svg>

