<svg xmlns="http://www.w3.org/2000/svg" width="24" height="24" viewBox="0 0 24 24">
  <defs/>
  <path fill="#292D32" d="M20.549,9.439 L19.449,9.439 C19.299,9.439 19.149,9.469 19.009,9.509 L14.019,4.519 C14.499,3.899 14.459,3.009 13.889,2.449 L13.109,1.669 C12.519,1.079 11.479,1.079 10.879,1.669 L10.099,2.449 C9.539,3.009 9.499,3.899 9.979,4.519 L4.989,9.509 C4.849,9.469 4.699,9.439 4.549,9.439 L3.449,9.439 C2.579,9.439 1.869,10.149 1.869,11.019 L1.869,12.119 C1.869,12.989 2.579,13.699 3.449,13.699 L4.549,13.699 C5.419,13.699 6.129,12.989 6.129,12.119 L6.129,11.019 C6.129,10.869 6.099,10.719 6.059,10.579 L11.049,5.589 C11.319,5.799 11.659,5.909 11.999,5.909 C12.339,5.909 12.679,5.789 12.959,5.579 L17.949,10.569 C17.909,10.709 17.879,10.859 17.879,11.009 L17.879,12.109 C17.879,12.979 18.589,13.689 19.459,13.689 L20.559,13.689 C21.429,13.689 22.139,12.979 22.139,12.109 L22.139,11.009 C22.119,10.139 21.419,9.439 20.549,9.439 Z"/>
  <path fill="#292D32" d="M15.749,16.549 L14.109,17.999 L9.849,17.999 L8.209,16.549 C7.259,15.769 7.259,15.169 7.979,14.249 L10.869,10.589 C11.069,10.339 11.299,10.169 11.559,10.079 C11.829,9.989 12.119,9.989 12.399,10.079 C12.649,10.169 12.879,10.339 13.089,10.589 L15.979,14.249 C16.699,15.159 16.669,15.729 15.749,16.549 Z"/>
  <path fill="#292D32" d="M13.291,22 L10.701,22 C9.781,22 9.091,21.25 9.271,20.45 L9.581,19.06 C9.641,18.78 9.891,18.59 10.171,18.59 L13.821,18.59 C14.101,18.59 14.341,18.78 14.411,19.06 L14.721,20.45 C14.921,21.3 14.271,22 13.291,22 Z"/>
</svg>

