<svg xmlns="http://www.w3.org/2000/svg" width="24" height="24" viewBox="0 0 24 24">
  <defs/>
  <path fill="#292D32" d="M6.5,2 C5.44,2 4.46,2.37 3.69,2.99 C2.65,3.81 2,5.08 2,6.5 C2,7.34 2.24,8.14 2.65,8.82 C3.19,9.72 4.04,10.42 5.06,10.76 C5.51,10.92 5.99,11 6.5,11 C7.64,11 8.67,10.58 9.46,9.88 C9.81,9.58 10.11,9.22 10.35,8.82 C10.56,8.47 10.72,8.1 10.83,7.7 C10.94,7.32 11,6.91 11,6.5 C11,4.01 8.99,2 6.5,2 Z M8.16,7.25 L4.8,7.25 C4.39,7.25 4.05,6.91 4.05,6.5 C4.05,6.09 4.39,5.75 4.8,5.75 L8.16,5.75 C8.57,5.75 8.91,6.09 8.91,6.5 C8.91,6.91 8.58,7.25 8.16,7.25 Z"/>
  <path fill="#292D32" d="M16,21.29 L6.64,22.39 C5.99,22.47 5.41,22.37 4.92,22.13 C4.4,21.87 3.99,21.47 3.73,20.94 C3.49,20.45 3.4,19.88 3.47,19.24 L4.32,12.09 C4.4,12.12 4.48,12.15 4.56,12.17 C5.17,12.39 5.82,12.5 6.5,12.5 C7.96,12.5 9.37,11.97 10.44,11.02 C10.9,10.62 11.31,10.14 11.64,9.59 C11.92,9.12 12.13,8.62 12.27,8.13 C12.34,7.87 12.4,7.59 12.44,7.31 C12.45,7.26 12.45,7.21 12.45,7.16 L12.62,7.17 L18.7,13.26 L18.96,17.68 C19.21,20.16 18.35,21.02 16,21.29 Z"/>
  <path fill="#292D32" d="M22.001,10.282 L19.931,11.592 C19.541,11.832 19.041,11.782 18.721,11.452 L14.291,7.022 C13.971,6.702 13.911,6.202 14.151,5.812 L15.461,3.742 C16.261,2.482 17.861,2.422 19.051,3.592 L22.161,6.702 C23.251,7.812 23.181,9.532 22.001,10.282 Z"/>
</svg>

