<svg xmlns="http://www.w3.org/2000/svg" width="24" height="24" viewBox="0 0 24 24">
  <defs/>
  <path fill="#292D32" d="M20.98,10.7 C20.759,6.8 17.869,3.55 14.009,2.89 C13.95,2.12 13.309,1.5 12.52,1.5 L11.52,1.5 C10.729,1.5 10.1,2.11 10.03,2.88 C6.15,3.52 3.24,6.78 3.02,10.7 C2.31,10.82 1.77,11.43 1.77,12.17 L1.77,13.17 C1.77,14 2.44,14.67 3.27,14.67 L4.27,14.67 C5.1,14.67 5.77,14 5.77,13.17 L5.77,12.17 C5.77,11.43 5.23,10.82 4.52,10.7 C4.73,7.58 7.02,4.99 10.079,4.39 C10.249,5.03 10.829,5.5 11.52,5.5 L12.52,5.5 C13.21,5.5 13.78,5.03 13.96,4.4 C17,5.01 19.27,7.6 19.48,10.7 C18.77,10.82 18.23,11.43 18.23,12.17 L18.23,13.17 C18.23,14 18.899,14.67 19.73,14.67 L20.73,14.67 C21.559,14.67 22.23,14 22.23,13.17 L22.23,12.17 C22.23,11.43 21.689,10.81 20.98,10.7 Z"/>
  <path fill="#292D32" d="M15.77,16.549 L14.13,17.999 L9.88,17.999 L8.24,16.549 C7.29,15.769 7.29,15.169 8.01,14.249 L10.9,10.589 C11.1,10.339 11.33,10.169 11.59,10.079 C11.86,9.989 12.15,9.989 12.43,10.079 C12.68,10.169 12.91,10.339 13.12,10.589 L16,14.239 C16.73,15.159 16.69,15.729 15.77,16.549 Z"/>
  <path fill="#292D32" d="M13.32,22 L10.73,22 C9.81,22 9.12,21.25 9.3,20.45 L9.61,19.06 C9.67,18.78 9.92,18.59 10.2,18.59 L13.85,18.59 C14.13,18.59 14.37,18.78 14.44,19.06 L14.75,20.45 C14.94,21.3 14.3,22 13.32,22 Z"/>
</svg>

