<svg xmlns="http://www.w3.org/2000/svg" width="24" height="24" viewBox="0 0 24 24">
  <defs/>
  <g opacity="0.4">
    <path fill="#292D32" d="M10.749,23.25 Q9.747,23.25 9.095,22.548 Q8.394,21.794 8.618,20.824 L9.028,19.014 Q9.16,18.43 9.759,18.43 L14.259,18.43 Q14.859,18.43 14.991,19.015 L15.402,20.831 Q15.62,21.836 14.948,22.565 Q14.316,23.25 13.269,23.25 Z M10.749,21.75 L13.269,21.75 Q13.659,21.75 13.846,21.548 Q13.989,21.392 13.936,21.149 L13.66,19.93 L10.358,19.93 L10.081,21.156 Q10.035,21.356 10.194,21.527 Q10.401,21.75 10.749,21.75 Z"/>
    <path fill="#292D32" d="M13.762,18.61 L15.492,17.07 Q16.235,16.411 15.643,15.666 L12.591,11.794 Q12.337,11.473 12.016,11.473 Q11.694,11.473 11.439,11.795 L8.39,15.664 Q7.774,16.44 8.517,17.051 Q8.528,17.06 8.539,17.07 L10.269,18.61 Q10.501,18.817 10.519,19.127 Q10.537,19.437 10.331,19.669 Q10.124,19.901 9.814,19.919 Q9.504,19.937 9.272,19.73 L7.552,18.2 Q5.687,16.657 7.211,14.736 L10.262,10.865 Q10.967,9.973 12.016,9.973 Q13.064,9.973 13.77,10.866 L16.818,14.734 Q18.293,16.591 16.489,18.19 L14.759,19.73 Q14.527,19.937 14.217,19.919 Q13.907,19.901 13.7,19.669 Q13.494,19.437 13.512,19.127 Q13.53,18.817 13.762,18.61 Z"/>
    <path fill="#292D32" d="M12.76,11.12 L12.76,13.65 Q12.76,13.961 12.54,14.18 Q12.32,14.4 12.01,14.4 Q11.699,14.4 11.479,14.18 Q11.26,13.961 11.26,13.65 L11.26,11.12 Q11.26,10.809 11.479,10.59 Q11.699,10.37 12.01,10.37 Q12.32,10.37 12.54,10.59 Q12.76,10.809 12.76,11.12 Z"/>
  </g>
  <path fill="#292D32" d="M10.62,5.72 L9.84,4.94 Q9.268,4.368 9.268,3.56 Q9.268,2.752 9.84,2.18 L10.62,1.4 Q12,0.019 13.38,1.4 L14.16,2.18 Q15.541,3.56 14.16,4.94 L13.38,5.72 Q12.808,6.293 12,6.293 Q11.192,6.293 10.62,5.72 Z M11.68,4.66 Q11.813,4.793 12,4.793 Q12.187,4.793 12.32,4.66 L13.1,3.88 Q13.419,3.56 13.1,3.24 L12.32,2.46 Q12,2.141 11.68,2.46 L10.9,3.241 Q10.768,3.373 10.768,3.56 Q10.768,3.747 10.9,3.88 Z"/>
  <path fill="#292D32" d="M19.45,9.06 L20.55,9.06 Q22.5,9.06 22.5,11.01 L22.5,12.11 Q22.5,12.916 21.928,13.488 Q21.356,14.06 20.55,14.06 L19.45,14.06 Q18.644,14.06 18.072,13.488 Q17.5,12.916 17.5,12.11 L17.5,11.01 Q17.5,9.06 19.45,9.06 Z M19.45,10.56 Q19,10.56 19,11.01 L19,12.11 Q19,12.56 19.45,12.56 L20.55,12.56 Q21,12.56 21,12.11 L21,11.01 Q21,10.56 20.55,10.56 Z"/>
  <path fill="#292D32" d="M4.55,9.06 Q6.5,9.06 6.5,11.01 L6.5,12.11 Q6.5,12.916 5.928,13.488 Q5.356,14.06 4.55,14.06 L3.45,14.06 Q2.644,14.06 2.072,13.488 Q1.5,12.916 1.5,12.11 L1.5,11.01 Q1.5,9.06 3.45,9.06 Z M4.55,10.56 L3.45,10.56 Q3,10.56 3,11.01 L3,12.11 Q3,12.56 3.45,12.56 L4.55,12.56 Q5,12.56 5,12.11 L5,11.01 Q5,10.56 4.55,10.56 Z"/>
  <path fill="#292D32" d="M18.01,10.63 L12.71,5.33 Q12.49,5.11 12.49,4.8 Q12.49,4.489 12.71,4.269 Q12.93,4.05 13.24,4.05 Q13.551,4.05 13.771,4.269 L19.071,9.569 Q19.29,9.789 19.29,10.1 Q19.29,10.41 19.071,10.63 Q18.851,10.85 18.54,10.85 Q18.23,10.85 18.01,10.63 Z"/>
  <path fill="#292D32" d="M4.931,9.569 L10.231,4.269 Q10.45,4.05 10.761,4.05 Q11.072,4.05 11.291,4.269 Q11.511,4.489 11.511,4.8 Q11.511,5.11 11.291,5.33 L5.991,10.63 Q5.772,10.85 5.461,10.85 Q5.15,10.85 4.931,10.63 Q4.711,10.41 4.711,10.1 Q4.711,9.789 4.931,9.569 Z"/>
</svg>

