<svg xmlns="http://www.w3.org/2000/svg" width="24" height="24" viewBox="0 0 24 24">
  <defs/>
  <path fill="#292D32" d="M10.62,5.72 L9.84,4.94 Q9.268,4.368 9.268,3.56 Q9.268,2.752 9.84,2.18 L10.62,1.4 Q12,0.019 13.38,1.4 L14.16,2.18 Q15.541,3.56 14.16,4.94 L13.38,5.72 Q12.808,6.293 12,6.293 Q11.192,6.293 10.62,5.72 Z M11.68,4.66 Q11.813,4.793 12,4.793 Q12.187,4.793 12.32,4.66 L13.1,3.88 Q13.419,3.56 13.1,3.24 L12.32,2.46 Q12,2.141 11.68,2.46 L10.9,3.241 Q10.768,3.373 10.768,3.56 Q10.768,3.747 10.9,3.88 Z"/>
  <path fill="#292D32" d="M19.45,9.06 L20.55,9.06 Q22.5,9.06 22.5,11.01 L22.5,12.11 Q22.5,12.916 21.928,13.488 Q21.356,14.06 20.55,14.06 L19.45,14.06 Q18.644,14.06 18.072,13.488 Q17.5,12.916 17.5,12.11 L17.5,11.01 Q17.5,9.06 19.45,9.06 Z M19.45,10.56 Q19,10.56 19,11.01 L19,12.11 Q19,12.56 19.45,12.56 L20.55,12.56 Q21,12.56 21,12.11 L21,11.01 Q21,10.56 20.55,10.56 Z"/>
  <path fill="#292D32" d="M4.55,9.06 Q6.5,9.06 6.5,11.01 L6.5,12.11 Q6.5,12.916 5.928,13.488 Q5.356,14.06 4.55,14.06 L3.45,14.06 Q2.644,14.06 2.072,13.488 Q1.5,12.916 1.5,12.11 L1.5,11.01 Q1.5,9.06 3.45,9.06 Z M4.55,10.56 L3.45,10.56 Q3,10.56 3,11.01 L3,12.11 Q3,12.56 3.45,12.56 L4.55,12.56 Q5,12.56 5,12.11 L5,11.01 Q5,10.56 4.55,10.56 Z"/>
  <path fill="#292D32" d="M18.01,10.63 L12.71,5.33 Q12.49,5.11 12.49,4.8 Q12.49,4.489 12.71,4.269 Q12.93,4.05 13.24,4.05 Q13.551,4.05 13.771,4.269 L19.071,9.569 Q19.29,9.789 19.29,10.1 Q19.29,10.41 19.071,10.63 Q18.851,10.85 18.54,10.85 Q18.23,10.85 18.01,10.63 Z"/>
  <path fill="#292D32" d="M4.931,9.57 L7.581,6.92 Q7.8,6.7 8.111,6.7 Q8.422,6.7 8.641,6.92 Q8.861,7.14 8.861,7.45 Q8.861,7.761 8.641,7.981 L5.991,10.631 Q5.772,10.85 5.461,10.85 Q5.15,10.85 4.931,10.631 Q4.711,10.411 4.711,10.1 Q4.711,9.79 4.931,9.57 Z"/>
  <path fill="#292D32" d="M10.751,23.25 Q9.749,23.25 9.097,22.548 Q8.396,21.793 8.62,20.824 L9.03,19.014 Q9.162,18.43 9.761,18.43 L14.261,18.43 Q14.86,18.43 14.993,19.014 L15.404,20.831 Q15.622,21.836 14.95,22.565 Q14.318,23.25 13.271,23.25 Z M10.751,21.75 L13.271,21.75 Q13.661,21.75 13.848,21.548 Q13.991,21.392 13.938,21.149 L13.662,19.93 L10.36,19.93 L10.083,21.156 Q10.037,21.356 10.196,21.527 Q10.403,21.75 10.751,21.75 Z"/>
  <path fill="#292D32" d="M13.632,13.135 L12.582,11.805 Q12.328,11.482 12.006,11.482 Q11.684,11.482 11.429,11.805 L8.38,15.674 Q7.764,16.45 8.507,17.06 Q8.518,17.07 8.529,17.08 L10.259,18.62 Q10.491,18.826 10.51,19.136 Q10.528,19.447 10.321,19.679 Q10.114,19.911 9.804,19.929 Q9.494,19.947 9.262,19.74 L7.543,18.21 Q5.677,16.666 7.202,14.746 L10.252,10.875 Q10.958,9.982 12.006,9.982 Q13.054,9.982 13.759,10.875 L14.809,12.205 Q15.002,12.449 14.966,12.758 Q14.929,13.066 14.686,13.259 Q14.442,13.451 14.133,13.415 Q13.825,13.378 13.632,13.135 Z"/>
  <path fill="#292D32" d="M13.763,18.61 L15.493,17.07 Q16.236,16.411 15.644,15.666 Q15.451,15.423 15.487,15.114 Q15.522,14.805 15.765,14.612 Q16.009,14.419 16.317,14.455 Q16.626,14.49 16.819,14.733 Q18.294,16.591 16.49,18.19 L14.76,19.73 Q14.528,19.937 14.218,19.919 Q13.908,19.901 13.701,19.668 Q13.495,19.436 13.513,19.126 Q13.531,18.816 13.763,18.61 Z"/>
  <path fill="#292D32" d="M12.762,11.12 L12.762,13.65 Q12.762,13.961 12.542,14.18 Q12.322,14.4 12.012,14.4 Q11.701,14.4 11.481,14.18 Q11.262,13.961 11.262,13.65 L11.262,11.12 Q11.262,10.809 11.481,10.59 Q11.701,10.37 12.012,10.37 Q12.322,10.37 12.542,10.59 Q12.762,10.809 12.762,11.12 Z"/>
</svg>

