<svg xmlns="http://www.w3.org/2000/svg" width="24" height="24" viewBox="0 0 24 24">
  <defs/>
  <path fill="#292D32" d="M10.751,23.25 Q9.749,23.25 9.097,22.548 Q8.396,21.793 8.62,20.824 L9.03,19.014 Q9.162,18.43 9.761,18.43 L14.261,18.43 Q14.86,18.43 14.993,19.014 L15.404,20.831 Q15.622,21.836 14.95,22.565 Q14.318,23.25 13.271,23.25 Z M10.751,21.75 L13.271,21.75 Q13.661,21.75 13.848,21.548 Q13.991,21.392 13.938,21.149 L13.662,19.93 L10.36,19.93 L10.083,21.156 Q10.037,21.356 10.196,21.527 Q10.403,21.75 10.751,21.75 Z"/>
  <path fill="#292D32" d="M13.632,13.135 L12.582,11.805 Q12.328,11.482 12.006,11.482 Q11.684,11.482 11.429,11.805 L8.38,15.674 Q7.764,16.45 8.507,17.06 Q8.518,17.07 8.529,17.08 L10.259,18.62 Q10.491,18.826 10.51,19.136 Q10.528,19.447 10.321,19.679 Q10.114,19.911 9.804,19.929 Q9.494,19.947 9.262,19.74 L7.543,18.21 Q5.677,16.666 7.202,14.746 L10.252,10.875 Q10.958,9.982 12.006,9.982 Q13.054,9.982 13.759,10.875 L14.809,12.205 Q15.002,12.449 14.966,12.758 Q14.929,13.066 14.686,13.259 Q14.442,13.451 14.133,13.415 Q13.825,13.378 13.632,13.135 Z"/>
  <path fill="#292D32" d="M13.763,18.61 L15.493,17.07 Q16.236,16.411 15.644,15.666 Q15.451,15.423 15.487,15.114 Q15.522,14.805 15.765,14.612 Q16.009,14.419 16.317,14.455 Q16.626,14.49 16.819,14.733 Q18.294,16.591 16.49,18.19 L14.76,19.73 Q14.528,19.937 14.218,19.919 Q13.908,19.901 13.701,19.668 Q13.495,19.436 13.513,19.126 Q13.531,18.816 13.763,18.61 Z"/>
  <path fill="#292D32" d="M12.762,11.12 L12.762,13.65 Q12.762,13.961 12.542,14.18 Q12.322,14.4 12.012,14.4 Q11.701,14.4 11.481,14.18 Q11.262,13.961 11.262,13.65 L11.262,11.12 Q11.262,10.809 11.481,10.59 Q11.701,10.37 12.012,10.37 Q12.322,10.37 12.542,10.59 Q12.762,10.809 12.762,11.12 Z"/>
  <path fill="#292D32" d="M12.519,5.75 L11.519,5.75 Q9.769,5.75 9.769,4 L9.769,3 Q9.769,2.277 10.283,1.763 Q10.796,1.25 11.519,1.25 L12.519,1.25 Q13.243,1.25 13.756,1.763 Q14.269,2.277 14.269,3 L14.269,4 Q14.269,5.75 12.519,5.75 Z M12.519,4.25 Q12.769,4.25 12.769,4 L12.769,3 Q12.769,2.75 12.519,2.75 L11.519,2.75 Q11.269,2.75 11.269,3 L11.269,4 Q11.269,4.102 11.344,4.176 Q11.418,4.25 11.519,4.25 Z"/>
  <path fill="#292D32" d="M3.27,14.92 Q2.546,14.92 2.033,14.407 Q1.52,13.893 1.52,13.17 L1.52,12.17 Q1.52,10.42 3.27,10.42 L4.27,10.42 Q6.02,10.42 6.02,12.17 L6.02,13.17 Q6.02,14.92 4.27,14.92 Z M3.27,13.42 L4.27,13.42 Q4.52,13.42 4.52,13.17 L4.52,12.17 Q4.52,12.068 4.445,11.994 Q4.371,11.92 4.27,11.92 L3.27,11.92 Q3.168,11.92 3.094,11.994 Q3.02,12.068 3.02,12.17 L3.02,13.17 Q3.02,13.272 3.094,13.346 Q3.168,13.42 3.27,13.42 Z"/>
  <path fill="#292D32" d="M20.73,14.92 L19.73,14.92 Q17.98,14.92 17.98,13.17 L17.98,12.17 Q17.98,10.42 19.73,10.42 L20.73,10.42 Q22.48,10.42 22.48,12.17 L22.48,13.17 Q22.48,13.893 21.967,14.407 Q21.454,14.92 20.73,14.92 Z M20.73,13.42 Q20.98,13.42 20.98,13.17 L20.98,12.17 Q20.98,12.068 20.906,11.994 Q20.832,11.92 20.73,11.92 L19.73,11.92 Q19.629,11.92 19.555,11.994 Q19.48,12.068 19.48,12.17 L19.48,13.17 Q19.48,13.42 19.73,13.42 Z"/>
  <path fill="#292D32" d="M3,11.17 Q3,7.948 5.152,5.549 Q5.359,5.318 5.669,5.301 Q5.98,5.284 6.211,5.492 Q6.442,5.699 6.459,6.009 Q6.476,6.32 6.268,6.551 Q4.5,8.522 4.5,11.17 Q4.5,11.481 4.28,11.7 Q4.061,11.92 3.75,11.92 Q3.439,11.92 3.22,11.7 Q3,11.481 3,11.17 Z"/>
  <path fill="#292D32" d="M10.613,4.304 Q9.732,4.414 8.932,4.713 Q8.641,4.821 8.358,4.692 Q8.076,4.563 7.967,4.272 Q7.859,3.981 7.988,3.698 Q8.117,3.416 8.408,3.307 Q9.372,2.948 10.427,2.816 Q10.735,2.777 10.98,2.968 Q11.226,3.159 11.264,3.467 Q11.303,3.775 11.112,4.021 Q10.921,4.266 10.613,4.304 Z"/>
  <path fill="#292D32" d="M19.5,11.17 Q19.499,8.534 17.746,6.571 Q16.008,4.624 13.427,4.304 Q13.119,4.266 12.928,4.021 Q12.737,3.776 12.775,3.468 Q12.813,3.159 13.058,2.968 Q13.304,2.778 13.612,2.816 Q16.752,3.205 18.865,5.572 Q20.999,7.962 21,11.17 Q20.999,11.481 20.78,11.7 Q20.56,11.92 20.249,11.92 Q19.939,11.92 19.719,11.7 Q19.499,11.481 19.5,11.17 Z"/>
</svg>

