<svg xmlns="http://www.w3.org/2000/svg" width="24" height="24" viewBox="0 0 24 24">
  <defs/>
  <path fill="#292D32" d="M17.529,7.77 C17.459,7.76 17.389,7.76 17.319,7.77 C15.769,7.72 14.539,6.45 14.539,4.89 C14.539,3.3 15.829,2 17.429,2 C19.019,2 20.319,3.29 20.319,4.89 C20.309,6.45 19.079,7.72 17.529,7.77 Z"/>
  <path fill="#292D32" d="M20.792,14.7 C19.672,15.45 18.102,15.73 16.652,15.54 C17.032,14.72 17.232,13.81 17.242,12.85 C17.242,11.85 17.022,10.9 16.602,10.07 C18.082,9.87 19.652,10.15 20.782,10.9 C22.362,11.94 22.362,13.65 20.792,14.7 Z"/>
  <path fill="#292D32" d="M6.44,7.77 C6.51,7.76 6.58,7.76 6.65,7.77 C8.2,7.72 9.43,6.45 9.43,4.89 C9.43,3.29 8.14,2 6.54,2 C4.95,2 3.66,3.29 3.66,4.89 C3.66,6.45 4.89,7.72 6.44,7.77 Z"/>
  <path fill="#292D32" d="M6.551,12.851 C6.551,13.821 6.761,14.741 7.141,15.571 C5.731,15.721 4.261,15.421 3.181,14.711 C1.601,13.661 1.601,11.951 3.181,10.901 C4.251,10.181 5.761,9.891 7.181,10.051 C6.771,10.891 6.551,11.841 6.551,12.851 Z"/>
  <path fill="#292D32" d="M12.121,15.87 C12.041,15.86 11.951,15.86 11.861,15.87 C10.021,15.81 8.551,14.3 8.551,12.44 C8.561,10.54 10.091,9 12.001,9 C13.901,9 15.441,10.54 15.441,12.44 C15.431,14.3 13.971,15.81 12.121,15.87 Z"/>
  <path fill="#292D32" d="M8.871,17.941 C7.361,18.951 7.361,20.611 8.871,21.611 C10.591,22.761 13.411,22.761 15.131,21.611 C16.641,20.601 16.641,18.941 15.131,17.941 C13.421,16.791 10.601,16.791 8.871,17.941 Z"/>
</svg>

