<svg xmlns="http://www.w3.org/2000/svg" width="24" height="24" viewBox="0 0 24 24">
  <defs/>
  <path fill="#292D32" d="M18,7.91 C17.97,7.91 17.95,7.91 17.92,7.91 L17.87,7.91 C15.98,7.85 14.57,6.39 14.57,4.59 C14.57,2.75 16.07,1.26 17.9,1.26 C19.73,1.26 21.23,2.76 21.23,4.59 C21.22,6.4 19.81,7.86 18.01,7.92 C18.01,7.91 18.01,7.91 18,7.91 Z M17.9,2.75 C16.89,2.75 16.07,3.57 16.07,4.58 C16.07,5.57 16.84,6.37 17.83,6.41 C17.84,6.4 17.92,6.4 18.01,6.41 C18.98,6.36 19.73,5.56 19.74,4.58 C19.74,3.57 18.92,2.75 17.9,2.75 Z"/>
  <path fill="#292D32" d="M18.011,15.28 C17.62,15.28 17.23,15.25 16.84,15.18 C16.43,15.11 16.16,14.72 16.23,14.31 C16.3,13.9 16.691,13.63 17.101,13.7 C18.331,13.91 19.631,13.68 20.5,13.1 C20.971,12.79 21.221,12.4 21.221,12.01 C21.221,11.62 20.96,11.24 20.5,10.93 C19.631,10.35 18.311,10.12 17.07,10.34 C16.66,10.42 16.27,10.14 16.201,9.73 C16.131,9.32 16.401,8.93 16.811,8.86 C18.441,8.57 20.131,8.88 21.331,9.68 C22.21,10.27 22.721,11.11 22.721,12.01 C22.721,12.9 22.221,13.75 21.331,14.35 C20.421,14.95 19.241,15.28 18.011,15.28 Z"/>
  <path fill="#292D32" d="M5.97,7.91 C5.96,7.91 5.95,7.91 5.95,7.91 C4.15,7.85 2.74,6.39 2.73,4.59 C2.73,2.75 4.23,1.25 6.06,1.25 C7.89,1.25 9.39,2.75 9.39,4.58 C9.39,6.39 7.98,7.85 6.18,7.91 L5.97,7.16 L6.04,7.91 C6.02,7.91 5.99,7.91 5.97,7.91 Z M6.07,6.41 C6.13,6.41 6.18,6.41 6.24,6.42 C7.13,6.38 7.91,5.58 7.91,4.59 C7.91,3.58 7.09,2.76 6.08,2.76 C5.07,2.76 4.25,3.58 4.25,4.59 C4.25,5.57 5.01,6.36 5.98,6.42 C5.99,6.41 6.03,6.41 6.07,6.41 Z"/>
  <path fill="#292D32" d="M5.96,15.28 C4.73,15.28 3.55,14.95 2.64,14.35 C1.76,13.76 1.25,12.91 1.25,12.01 C1.25,11.12 1.76,10.27 2.64,9.68 C3.84,8.88 5.53,8.57 7.16,8.86 C7.57,8.93 7.84,9.32 7.77,9.73 C7.7,10.14 7.31,10.42 6.9,10.34 C5.66,10.12 4.35,10.35 3.47,10.93 C3,11.24 2.75,11.62 2.75,12.01 C2.75,12.4 3.01,12.79 3.47,13.1 C4.34,13.68 5.64,13.91 6.87,13.7 C7.28,13.63 7.67,13.91 7.74,14.31 C7.81,14.72 7.54,15.11 7.13,15.18 C6.74,15.25 6.35,15.28 5.96,15.28 Z"/>
  <path fill="#292D32" d="M12,15.38 C11.97,15.38 11.95,15.38 11.92,15.38 L11.87,15.38 C9.98,15.32 8.57,13.86 8.57,12.06 C8.57,10.22 10.07,8.73 11.9,8.73 C13.73,8.73 15.23,10.23 15.23,12.06 C15.22,13.87 13.81,15.33 12.01,15.39 C12.01,15.38 12.01,15.38 12,15.38 Z M11.9,10.22 C10.89,10.22 10.07,11.04 10.07,12.05 C10.07,13.04 10.84,13.84 11.83,13.88 C11.84,13.87 11.92,13.87 12.01,13.88 C12.98,13.83 13.73,13.03 13.74,12.05 C13.74,11.05 12.92,10.22 11.9,10.22 Z"/>
  <path fill="#292D32" d="M11.999,22.76 C10.799,22.76 9.599,22.45 8.669,21.82 C7.789,21.23 7.279,20.39 7.279,19.49 C7.279,18.6 7.779,17.74 8.669,17.15 C10.539,15.91 13.469,15.91 15.329,17.15 C16.209,17.74 16.719,18.58 16.719,19.48 C16.719,20.37 16.219,21.23 15.329,21.82 C14.399,22.44 13.199,22.76 11.999,22.76 Z M9.499,18.41 C9.029,18.72 8.779,19.11 8.779,19.5 C8.779,19.89 9.039,20.27 9.499,20.58 C10.849,21.49 13.139,21.49 14.489,20.58 C14.959,20.27 15.209,19.88 15.209,19.49 C15.209,19.1 14.949,18.72 14.489,18.41 C13.149,17.5 10.859,17.51 9.499,18.41 Z"/>
</svg>

