<svg xmlns="http://www.w3.org/2000/svg" width="24" height="24" viewBox="0 0 24 24">
  <defs/>
  <path fill="#292D32" d="M17.905,7.904 Q17.844,7.912 17.783,7.91 Q14.58,7.793 14.58,4.58 Q14.58,3.197 15.554,2.223 Q16.527,1.25 17.91,1.25 Q19.292,1.25 20.267,2.228 Q21.24,3.203 21.24,4.58 Q21.217,7.794 18.027,7.91 Q17.966,7.912 17.905,7.904 Z M18.03,6.408 Q19.728,6.318 19.74,4.58 Q19.74,2.75 17.91,2.75 Q16.995,2.75 16.538,3.208 Q16.08,3.665 16.08,4.58 Q16.08,6.318 17.78,6.408 Q17.905,6.396 18.03,6.408 Z"/>
  <path fill="#292D32" d="M17.094,13.7 Q19.091,14.036 20.492,13.097 Q21.217,12.614 21.217,12.01 Q21.217,11.406 20.493,10.924 Q19.068,9.978 17.069,10.329 Q16.763,10.382 16.509,10.204 Q16.254,10.025 16.201,9.719 Q16.147,9.413 16.326,9.159 Q16.504,8.905 16.81,8.851 Q19.399,8.398 21.326,9.676 Q22.717,10.604 22.717,12.01 Q22.717,13.416 21.327,14.343 Q19.43,15.613 16.845,15.18 Q16.539,15.128 16.359,14.875 Q16.178,14.622 16.23,14.316 Q16.281,14.009 16.534,13.829 Q16.787,13.649 17.094,13.7 Z"/>
  <path fill="#292D32" d="M6.064,7.904 Q6.003,7.912 5.941,7.91 Q2.751,7.794 2.729,4.58 Q2.729,3.203 3.701,2.228 Q4.676,1.25 6.059,1.25 Q7.442,1.25 8.415,2.223 Q9.389,3.197 9.389,4.58 Q9.389,7.793 6.186,7.91 Q6.124,7.912 6.064,7.904 Z M5.939,6.408 Q6.064,6.396 6.188,6.408 Q7.889,6.318 7.889,4.58 Q7.889,2.75 6.059,2.75 Q4.229,2.75 4.229,4.58 Q4.241,6.318 5.939,6.408 Z"/>
  <path fill="#292D32" d="M7.124,15.18 Q4.539,15.613 2.642,14.343 Q1.252,13.416 1.252,12.01 Q1.252,10.604 2.643,9.676 Q4.57,8.398 7.159,8.851 Q7.465,8.905 7.643,9.159 Q7.822,9.413 7.768,9.719 Q7.715,10.025 7.46,10.204 Q7.206,10.382 6.9,10.329 Q4.901,9.978 3.475,10.924 Q2.752,11.406 2.752,12.01 Q2.752,12.614 3.477,13.097 Q4.878,14.036 6.875,13.7 Q7.182,13.649 7.435,13.829 Q7.688,14.009 7.739,14.316 Q7.791,14.622 7.61,14.875 Q7.43,15.128 7.124,15.18 Z"/>
  <path fill="#292D32" d="M11.905,15.374 Q11.844,15.382 11.783,15.38 Q8.58,15.263 8.58,12.05 Q8.58,8.72 11.91,8.72 Q15.24,8.72 15.24,12.05 Q15.217,15.287 12.022,15.38 Q11.963,15.381 11.905,15.374 Z M12.033,13.878 Q13.728,13.801 13.74,12.05 Q13.74,11.293 13.205,10.757 Q12.67,10.22 11.91,10.22 Q11.148,10.22 10.614,10.754 Q10.08,11.288 10.08,12.05 Q10.08,13.788 11.78,13.878 Q11.907,13.866 12.033,13.878 Z"/>
  <path fill="#292D32" d="M14.495,18.404 Q12.009,16.747 9.505,18.405 Q8.783,18.886 8.783,19.49 Q8.783,20.094 9.507,20.576 Q12.001,22.244 14.494,20.576 Q14.752,20.404 15.057,20.464 Q15.361,20.525 15.534,20.783 Q15.707,21.041 15.646,21.346 Q15.586,21.651 15.328,21.823 Q12.001,24.048 8.675,21.824 Q7.283,20.896 7.283,19.49 Q7.283,18.084 8.676,17.155 Q12.011,14.945 15.327,17.156 Q15.585,17.328 15.646,17.633 Q15.707,17.937 15.535,18.196 Q15.362,18.454 15.058,18.515 Q14.753,18.576 14.495,18.404 Z"/>
</svg>

