<svg xmlns="http://www.w3.org/2000/svg" width="24" height="24" viewBox="0 0 24 24">
  <defs/>
  <path fill="#292D32" opacity="0.4" d="M17.903,7.904 Q17.842,7.912 17.781,7.91 Q14.578,7.793 14.578,4.58 Q14.578,1.25 17.908,1.25 Q21.238,1.25 21.238,4.58 Q21.215,7.794 18.025,7.91 Q17.964,7.912 17.903,7.904 Z M18.028,6.408 Q19.726,6.318 19.738,4.58 Q19.738,2.75 17.908,2.75 Q17.146,2.75 16.612,3.284 Q16.078,3.818 16.078,4.58 Q16.078,6.318 17.778,6.408 Q17.903,6.396 18.028,6.408 Z"/>
  <path fill="#292D32" opacity="0.4" d="M17.092,13.701 Q19.089,14.036 20.49,13.097 Q21.215,12.614 21.215,12.01 Q21.215,11.407 20.491,10.924 Q19.066,9.979 17.067,10.329 Q16.761,10.383 16.507,10.204 Q16.252,10.026 16.199,9.72 Q16.145,9.414 16.324,9.159 Q16.502,8.905 16.808,8.851 Q19.397,8.398 21.324,9.676 Q22.715,10.604 22.715,12.01 Q22.715,13.417 21.325,14.343 Q19.428,15.614 16.843,15.18 Q16.537,15.128 16.357,14.875 Q16.176,14.622 16.228,14.316 Q16.279,14.01 16.532,13.829 Q16.785,13.649 17.092,13.701 Z"/>
  <path fill="#292D32" opacity="0.4" d="M6.062,7.904 Q6.001,7.912 5.939,7.91 Q2.749,7.794 2.727,4.58 Q2.727,1.25 6.057,1.25 Q7.44,1.25 8.413,2.223 Q9.387,3.197 9.387,4.58 Q9.387,7.793 6.184,7.91 Q6.122,7.912 6.062,7.904 Z M5.937,6.408 Q6.062,6.396 6.186,6.408 Q7.887,6.318 7.887,4.58 Q7.887,2.75 6.057,2.75 Q4.227,2.75 4.227,4.58 Q4.239,6.318 5.937,6.408 Z"/>
  <path fill="#292D32" opacity="0.4" d="M7.122,15.18 Q4.537,15.614 2.64,14.343 Q1.25,13.417 1.25,12.01 Q1.25,10.604 2.641,9.676 Q4.568,8.398 7.157,8.851 Q7.463,8.905 7.641,9.159 Q7.82,9.414 7.766,9.72 Q7.713,10.026 7.458,10.204 Q7.204,10.383 6.898,10.329 Q4.899,9.979 3.474,10.924 Q2.75,11.407 2.75,12.01 Q2.75,12.614 3.475,13.097 Q4.876,14.036 6.873,13.701 Q7.18,13.649 7.433,13.829 Q7.686,14.01 7.737,14.316 Q7.789,14.622 7.608,14.875 Q7.428,15.128 7.122,15.18 Z"/>
  <path fill="#292D32" d="M11.905,15.374 Q11.844,15.382 11.783,15.38 Q8.58,15.264 8.58,12.05 Q8.58,10.667 9.554,9.694 Q10.527,8.72 11.91,8.72 Q13.292,8.72 14.267,9.698 Q15.24,10.673 15.24,12.05 Q15.217,15.287 12.022,15.38 Q11.963,15.382 11.905,15.374 Z M12.033,13.878 Q13.728,13.802 13.74,12.05 Q13.74,11.294 13.205,10.757 Q12.67,10.22 11.91,10.22 Q11.148,10.22 10.614,10.754 Q10.08,11.288 10.08,12.05 Q10.08,13.788 11.78,13.878 Q11.907,13.866 12.033,13.878 Z"/>
  <path fill="#292D32" d="M8.676,17.155 Q12.011,14.946 15.327,17.156 Q16.718,18.084 16.718,19.49 Q16.718,20.897 15.328,21.824 Q12.001,24.049 8.675,21.824 Q7.283,20.897 7.283,19.49 Q7.283,18.084 8.675,17.156 Z M9.507,18.404 Q9.506,18.405 9.505,18.406 Q8.783,18.888 8.783,19.49 Q8.783,20.094 9.507,20.576 Q12.001,22.244 14.494,20.577 Q15.218,20.094 15.218,19.49 Q15.218,18.887 14.495,18.404 Q12.009,16.748 9.507,18.404 Z"/>
</svg>

