<svg xmlns="http://www.w3.org/2000/svg" width="24" height="24" viewBox="0 0 24 24">
  <defs/>
  <path fill="#292D32" opacity="0.4" d="M17.529,7.77 C17.459,7.76 17.389,7.76 17.319,7.77 C15.769,7.72 14.539,6.45 14.539,4.89 C14.539,3.3 15.829,2 17.429,2 C19.019,2 20.319,3.29 20.319,4.89 C20.309,6.45 19.079,7.72 17.529,7.77 Z"/>
  <path fill="#292D32" opacity="0.4" d="M20.79,14.7 C19.67,15.45 18.1,15.73 16.65,15.54 C17.03,14.72 17.23,13.81 17.24,12.85 C17.24,11.85 17.02,10.9 16.6,10.07 C18.08,9.87 19.65,10.15 20.78,10.9 C22.36,11.94 22.36,13.65 20.79,14.7 Z"/>
  <path fill="#292D32" opacity="0.4" d="M6.44,7.77 C6.51,7.76 6.58,7.76 6.65,7.77 C8.2,7.72 9.43,6.45 9.43,4.89 C9.43,3.3 8.14,2 6.54,2 C4.95,2 3.65,3.29 3.65,4.89 C3.66,6.45 4.89,7.72 6.44,7.77 Z"/>
  <path fill="#292D32" opacity="0.4" d="M6.549,12.85 C6.549,13.82 6.759,14.74 7.139,15.57 C5.729,15.72 4.259,15.42 3.179,14.71 C1.599,13.66 1.599,11.95 3.179,10.9 C4.249,10.18 5.759,9.89 7.179,10.05 C6.769,10.89 6.549,11.84 6.549,12.85 Z"/>
  <path fill="#292D32" d="M12.121,15.87 C12.041,15.86 11.951,15.86 11.861,15.87 C10.021,15.81 8.551,14.3 8.551,12.44 C8.551,10.54 10.081,9 11.991,9 C13.891,9 15.431,10.54 15.431,12.44 C15.431,14.3 13.971,15.81 12.121,15.87 Z"/>
  <path fill="#292D32" d="M8.871,17.94 C7.361,18.95 7.361,20.61 8.871,21.61 C10.591,22.76 13.411,22.76 15.131,21.61 C16.641,20.6 16.641,18.94 15.131,17.94 C13.421,16.79 10.601,16.79 8.871,17.94 Z"/>
</svg>

