<svg xmlns="http://www.w3.org/2000/svg" width="24" height="24" viewBox="0 0 24 24">
  <defs/>
  <path fill="#292D32" d="M15,22.75 L9,22.75 C3.57,22.75 1.25,20.43 1.25,15 L1.25,9 C1.25,3.57 3.57,1.25 9,1.25 L15,1.25 C20.43,1.25 22.75,3.57 22.75,9 L22.75,15 C22.75,20.43 20.43,22.75 15,22.75 Z M9,2.75 C4.39,2.75 2.75,4.39 2.75,9 L2.75,15 C2.75,19.61 4.39,21.25 9,21.25 L15,21.25 C19.61,21.25 21.25,19.61 21.25,15 L21.25,9 C21.25,4.39 19.61,2.75 15,2.75 L9,2.75 Z"/>
  <path fill="#292D32" d="M8.57,16.02 C8.38,16.02 8.19,15.95 8.04,15.8 C7.75,15.51 7.75,15.03 8.04,14.74 L14.59,8.19 C14.88,7.9 15.36,7.9 15.65,8.19 C15.94,8.48 15.94,8.96 15.65,9.25 L9.1,15.8 C8.95,15.95 8.76,16.02 8.57,16.02 Z"/>
  <path fill="#292D32" d="M8.98,11.11 C7.89,11.11 7,10.22 7,9.13 C7,8.04 7.89,7.15 8.98,7.15 C10.07,7.15 10.96,8.04 10.96,9.13 C10.96,10.22 10.07,11.11 8.98,11.11 Z M8.98,8.66 C8.72,8.66 8.5,8.87 8.5,9.14 C8.5,9.41 8.71,9.62 8.98,9.62 C9.25,9.62 9.46,9.41 9.46,9.14 C9.46,8.87 9.24,8.66 8.98,8.66 Z"/>
  <path fill="#292D32" d="M15.519,16.84 C14.429,16.84 13.539,15.95 13.539,14.86 C13.539,13.77 14.429,12.88 15.519,12.88 C16.609,12.88 17.499,13.77 17.499,14.86 C17.499,15.95 16.609,16.84 15.519,16.84 Z M15.519,14.39 C15.259,14.39 15.039,14.6 15.039,14.87 C15.039,15.14 15.249,15.35 15.519,15.35 C15.789,15.35 15.999,15.14 15.999,14.87 C15.999,14.6 15.789,14.39 15.519,14.39 Z"/>
</svg>

