<svg xmlns="http://www.w3.org/2000/svg" width="24" height="24" viewBox="0 0 24 24">
  <defs/>
  <path fill="#292D32" d="M16.19,2 L7.81,2 C4.17,2 2,4.17 2,7.81 L2,16.18 C2,19.83 4.17,22 7.81,22 L16.18,22 C19.82,22 21.99,19.83 21.99,16.19 L21.99,7.81 C22,4.17 19.83,2 16.19,2 Z M7.75,9.14 C7.75,8.33 8.41,7.66 9.23,7.66 C10.04,7.66 10.71,8.32 10.71,9.14 C10.71,9.95 10.05,10.62 9.23,10.62 C8.41,10.61 7.75,9.95 7.75,9.14 Z M8.82,16.02 C8.63,16.02 8.44,15.95 8.29,15.8 C8,15.51 8,15.04 8.29,14.74 L14.84,8.19 C15.13,7.9 15.61,7.9 15.9,8.19 C16.19,8.48 16.19,8.96 15.9,9.25 L9.35,15.8 C9.2,15.95 9.01,16.02 8.82,16.02 Z M15.77,16.34 C14.96,16.34 14.29,15.68 14.29,14.86 C14.29,14.05 14.95,13.38 15.77,13.38 C16.58,13.38 17.25,14.04 17.25,14.86 C17.25,15.68 16.59,16.34 15.77,16.34 Z"/>
</svg>

