<svg xmlns="http://www.w3.org/2000/svg" width="24" height="24" viewBox="0 0 24 24">
  <defs/>
  <path fill="#292D32" opacity="0.4" d="M16.19,2 L7.82,2 C4.18,2 2.01,4.17 2.01,7.81 L2.01,16.18 C2.01,19.82 4.18,21.99 7.82,21.99 L16.19,21.99 C19.83,21.99 22,19.82 22,16.18 L22,7.81 C22,4.17 19.83,2 16.19,2 Z"/>
  <path fill="#292D32" d="M8.82,16.02 C8.63,16.02 8.44,15.95 8.29,15.8 C8,15.51 8,15.03 8.29,14.74 L14.84,8.19 C15.13,7.9 15.61,7.9 15.9,8.19 C16.19,8.48 16.19,8.96 15.9,9.25 L9.35,15.8 C9.2,15.95 9.01,16.02 8.82,16.02 Z"/>
  <path fill="#292D32" d="M9.23,7.66 C8.42,7.66 7.75,8.32 7.75,9.14 C7.75,9.95 8.41,10.62 9.23,10.62 C10.04,10.62 10.71,9.96 10.71,9.14 C10.7,8.32 10.04,7.66 9.23,7.66 Z"/>
  <path fill="#292D32" d="M15.769,13.39 C14.959,13.39 14.289,14.05 14.289,14.87 C14.289,15.68 14.949,16.35 15.769,16.35 C16.579,16.35 17.249,15.69 17.249,14.87 C17.249,14.05 16.589,13.39 15.769,13.39 Z"/>
</svg>

