<svg xmlns="http://www.w3.org/2000/svg" width="24" height="24" viewBox="0 0 24 24">
  <defs/>
  <path fill="#292D32" d="M12,2 C6.48,2 2,6.48 2,12 C2,17.52 6.48,22 12,22 C17.52,22 22,17.52 22,12 C22,6.48 17.52,2 12,2 Z M8.73,7.66 C9.54,7.66 10.21,8.32 10.21,9.14 C10.21,9.95 9.55,10.62 8.73,10.62 C7.92,10.62 7.25,9.96 7.25,9.14 C7.25,8.32 7.91,7.66 8.73,7.66 Z M8.85,15.8 C8.7,15.95 8.51,16.02 8.32,16.02 C8.13,16.02 7.94,15.95 7.79,15.8 C7.5,15.51 7.5,15.03 7.79,14.74 L14.34,8.19 C14.63,7.9 15.11,7.9 15.4,8.19 C15.69,8.48 15.69,8.96 15.4,9.25 L8.85,15.8 Z M15.27,16.34 C14.46,16.34 13.79,15.68 13.79,14.86 C13.79,14.05 14.45,13.38 15.27,13.38 C16.08,13.38 16.75,14.04 16.75,14.86 C16.75,15.68 16.09,16.34 15.27,16.34 Z"/>
</svg>

