<svg xmlns="http://www.w3.org/2000/svg" width="24" height="24" viewBox="0 0 24 24">
  <defs/>
  <path fill="#292D32" opacity="0.4" d="M12,22 C17.523,22 22,17.523 22,12 C22,6.477 17.523,2 12,2 C6.477,2 2,6.477 2,12 C2,17.523 6.477,22 12,22 Z"/>
  <path fill="#292D32" d="M8.32,16.02 C8.13,16.02 7.94,15.95 7.79,15.8 C7.5,15.51 7.5,15.03 7.79,14.74 L14.34,8.19 C14.63,7.9 15.11,7.9 15.4,8.19 C15.69,8.48 15.69,8.96 15.4,9.25 L8.85,15.8 C8.7,15.95 8.51,16.02 8.32,16.02 Z"/>
  <path fill="#292D32" d="M8.73,7.66 C7.92,7.66 7.25,8.32 7.25,9.14 C7.25,9.95 7.91,10.62 8.73,10.62 C9.54,10.62 10.21,9.96 10.21,9.14 C10.2,8.32 9.54,7.66 8.73,7.66 Z"/>
  <path fill="#292D32" d="M15.269,13.39 C14.459,13.39 13.789,14.05 13.789,14.87 C13.789,15.68 14.449,16.35 15.269,16.35 C16.079,16.35 16.749,15.69 16.749,14.87 C16.749,14.05 16.089,13.39 15.269,13.39 Z"/>
</svg>

