<svg xmlns="http://www.w3.org/2000/svg" width="24" height="24" viewBox="0 0 24 24">
  <defs/>
  <path fill="#292D32" d="M18,3 L6,3 C3.79,3 2,4.78 2,6.97 L2,17.03 C2,19.22 3.79,21 6,21 L18,21 C20.21,21 22,19.22 22,17.03 L22,6.97 C22,4.78 20.21,3 18,3 Z M8.5,7.17 C9.77,7.17 10.81,8.21 10.81,9.48 C10.81,10.75 9.77,11.79 8.5,11.79 C7.23,11.79 6.19,10.75 6.19,9.48 C6.19,8.21 7.23,7.17 8.5,7.17 Z M12.37,16.66 C12.28,16.76 12.14,16.82 12,16.82 L5,16.82 C4.86,16.82 4.72,16.76 4.63,16.66 C4.54,16.56 4.49,16.42 4.5,16.28 C4.67,14.6 6.01,13.27 7.69,13.11 C8.22,13.06 8.77,13.06 9.3,13.11 C10.98,13.27 12.33,14.6 12.49,16.28 C12.51,16.42 12.46,16.56 12.37,16.66 Z M19,16.75 L17,16.75 C16.59,16.75 16.25,16.41 16.25,16 C16.25,15.59 16.59,15.25 17,15.25 L19,15.25 C19.41,15.25 19.75,15.59 19.75,16 C19.75,16.41 19.41,16.75 19,16.75 Z M19,12.75 L15,12.75 C14.59,12.75 14.25,12.41 14.25,12 C14.25,11.59 14.59,11.25 15,11.25 L19,11.25 C19.41,11.25 19.75,11.59 19.75,12 C19.75,12.41 19.41,12.75 19,12.75 Z M19,8.75 L14,8.75 C13.59,8.75 13.25,8.41 13.25,8 C13.25,7.59 13.59,7.25 14,7.25 L19,7.25 C19.41,7.25 19.75,7.59 19.75,8 C19.75,8.41 19.41,8.75 19,8.75 Z"/>
</svg>

