<svg xmlns="http://www.w3.org/2000/svg" width="24" height="24" viewBox="0 0 24 24">
  <defs/>
  <path fill="#292D32" d="M17,21.75 L7,21.75 C2.59,21.75 1.25,20.41 1.25,16 L1.25,8 C1.25,3.59 2.59,2.25 7,2.25 L17,2.25 C21.41,2.25 22.75,3.59 22.75,8 L22.75,16 C22.75,20.41 21.41,21.75 17,21.75 Z M7,3.75 C3.42,3.75 2.75,4.43 2.75,8 L2.75,16 C2.75,19.57 3.42,20.25 7,20.25 L17,20.25 C20.58,20.25 21.25,19.57 21.25,16 L21.25,8 C21.25,4.43 20.58,3.75 17,3.75 L7,3.75 Z"/>
  <path fill="#292D32" d="M19,8.75 L14,8.75 C13.59,8.75 13.25,8.41 13.25,8 C13.25,7.59 13.59,7.25 14,7.25 L19,7.25 C19.41,7.25 19.75,7.59 19.75,8 C19.75,8.41 19.41,8.75 19,8.75 Z"/>
  <path fill="#292D32" d="M19,12.75 L15,12.75 C14.59,12.75 14.25,12.41 14.25,12 C14.25,11.59 14.59,11.25 15,11.25 L19,11.25 C19.41,11.25 19.75,11.59 19.75,12 C19.75,12.41 19.41,12.75 19,12.75 Z"/>
  <path fill="#292D32" d="M19,16.75 L17,16.75 C16.59,16.75 16.25,16.41 16.25,16 C16.25,15.59 16.59,15.25 17,15.25 L19,15.25 C19.41,15.25 19.75,15.59 19.75,16 C19.75,16.41 19.41,16.75 19,16.75 Z"/>
  <path fill="#292D32" d="M8.5,12.04 C7.09,12.04 5.94,10.89 5.94,9.48 C5.94,8.07 7.09,6.92 8.5,6.92 C9.91,6.92 11.06,8.07 11.06,9.48 C11.06,10.89 9.91,12.04 8.5,12.04 Z M8.5,8.42 C7.92,8.42 7.44,8.9 7.44,9.48 C7.44,10.06 7.92,10.54 8.5,10.54 C9.08,10.54 9.56,10.06 9.56,9.48 C9.56,8.9 9.08,8.42 8.5,8.42 Z"/>
  <path fill="#292D32" d="M12,17.08 C11.62,17.08 11.29,16.79 11.25,16.4 C11.14,15.32 10.27,14.45 9.18,14.35 C8.72,14.31 8.26,14.31 7.8,14.35 C6.71,14.45 5.84,15.31 5.73,16.4 C5.69,16.81 5.32,17.12 4.91,17.07 C4.5,17.03 4.2,16.66 4.24,16.25 C4.42,14.45 5.85,13.02 7.66,12.86 C8.21,12.81 8.77,12.81 9.32,12.86 C11.12,13.03 12.56,14.46 12.74,16.25 C12.78,16.66 12.48,17.03 12.07,17.07 C12.05,17.08 12.02,17.08 12,17.08 Z"/>
</svg>

