<svg xmlns="http://www.w3.org/2000/svg" width="24" height="24" viewBox="0 0 24 24">
  <defs/>
  <path fill="#292D32" d="M1.25,8 Q1.25,4.689 2.47,3.47 Q3.689,2.25 7,2.25 L17,2.25 Q20.311,2.25 21.53,3.47 Q22.75,4.689 22.75,8 L22.75,16 Q22.75,19.311 21.53,20.53 Q20.311,21.75 17,21.75 L7,21.75 Q3.689,21.75 2.47,20.53 Q1.25,19.311 1.25,16 L1.25,12.4 Q1.25,12.089 1.47,11.87 Q1.689,11.65 2,11.65 Q2.311,11.65 2.53,11.87 Q2.75,12.089 2.75,12.4 L2.75,16 Q2.75,18.689 3.53,19.47 Q4.311,20.25 7,20.25 L17,20.25 Q19.689,20.25 20.47,19.47 Q21.25,18.689 21.25,16 L21.25,8 Q21.25,5.311 20.47,4.53 Q19.689,3.75 17,3.75 L7,3.75 Q4.311,3.75 3.53,4.53 Q2.75,5.311 2.75,8 Q2.75,8.311 2.53,8.53 Q2.311,8.75 2,8.75 Q1.689,8.75 1.47,8.53 Q1.25,8.311 1.25,8 Z"/>
  <path fill="#292D32" d="M14,7.25 L19,7.25 Q19.311,7.25 19.53,7.47 Q19.75,7.689 19.75,8 Q19.75,8.311 19.53,8.53 Q19.311,8.75 19,8.75 L14,8.75 Q13.689,8.75 13.47,8.53 Q13.25,8.311 13.25,8 Q13.25,7.689 13.47,7.47 Q13.689,7.25 14,7.25 Z"/>
  <path fill="#292D32" d="M15,11.25 L19,11.25 Q19.311,11.25 19.53,11.47 Q19.75,11.689 19.75,12 Q19.75,12.311 19.53,12.53 Q19.311,12.75 19,12.75 L15,12.75 Q14.689,12.75 14.47,12.53 Q14.25,12.311 14.25,12 Q14.25,11.689 14.47,11.47 Q14.689,11.25 15,11.25 Z"/>
  <path fill="#292D32" d="M17,15.25 L19,15.25 Q19.311,15.25 19.53,15.47 Q19.75,15.689 19.75,16 Q19.75,16.311 19.53,16.53 Q19.311,16.75 19,16.75 L17,16.75 Q16.689,16.75 16.47,16.53 Q16.25,16.311 16.25,16 Q16.25,15.689 16.47,15.47 Q16.689,15.25 17,15.25 Z"/>
  <path fill="#292D32" d="M8.499,12.04 Q7.439,12.04 6.689,11.29 Q5.939,10.54 5.939,9.48 Q5.939,8.42 6.689,7.67 Q7.439,6.92 8.499,6.92 Q11.059,6.92 11.059,9.48 Q11.059,12.04 8.499,12.04 Z M8.499,10.54 Q9.559,10.54 9.559,9.48 Q9.559,8.42 8.499,8.42 Q8.06,8.42 7.75,8.73 Q7.439,9.041 7.439,9.48 Q7.439,10.01 7.704,10.275 Q7.969,10.54 8.499,10.54 Z"/>
  <path fill="#292D32" d="M11.253,16.402 Q11.072,14.525 9.193,14.357 Q8.507,14.288 7.813,14.356 Q5.926,14.539 5.747,16.402 Q5.717,16.711 5.477,16.909 Q5.237,17.106 4.928,17.077 Q4.619,17.047 4.421,16.807 Q4.224,16.567 4.253,16.258 Q4.552,13.164 7.667,12.864 Q8.508,12.781 9.327,12.863 Q12.446,13.143 12.747,16.258 Q12.776,16.567 12.579,16.807 Q12.381,17.047 12.072,17.077 Q11.763,17.106 11.523,16.909 Q11.283,16.711 11.253,16.402 Z"/>
</svg>

