<svg xmlns="http://www.w3.org/2000/svg" width="24" height="24" viewBox="0 0 24 24">
  <defs/>
  <path fill="#292D32" opacity="0.4" d="M18,3 L6,3 C3.79,3 2,4.78 2,6.97 L2,17.03 C2,19.22 3.79,21 6,21 L18,21 C20.21,21 22,19.22 22,17.03 L22,6.97 C22,4.78 20.21,3 18,3 Z"/>
  <path fill="#292D32" d="M19,8.75 L14,8.75 C13.59,8.75 13.25,8.41 13.25,8 C13.25,7.59 13.59,7.25 14,7.25 L19,7.25 C19.41,7.25 19.75,7.59 19.75,8 C19.75,8.41 19.41,8.75 19,8.75 Z"/>
  <path fill="#292D32" d="M19,12.75 L15,12.75 C14.59,12.75 14.25,12.41 14.25,12 C14.25,11.59 14.59,11.25 15,11.25 L19,11.25 C19.41,11.25 19.75,11.59 19.75,12 C19.75,12.41 19.41,12.75 19,12.75 Z"/>
  <path fill="#292D32" d="M19,16.75 L17,16.75 C16.59,16.75 16.25,16.41 16.25,16 C16.25,15.59 16.59,15.25 17,15.25 L19,15.25 C19.41,15.25 19.75,15.59 19.75,16 C19.75,16.41 19.41,16.75 19,16.75 Z"/>
  <path fill="#292D32" d="M8.499,11.79 C9.775,11.79 10.809,10.756 10.809,9.48 C10.809,8.204 9.775,7.17 8.499,7.17 C7.224,7.17 6.189,8.204 6.189,9.48 C6.189,10.756 7.224,11.79 8.499,11.79 Z"/>
  <path fill="#292D32" d="M9.3,13.11 C8.77,13.06 8.22,13.06 7.69,13.11 C6.01,13.27 4.66,14.6 4.5,16.28 C4.49,16.42 4.53,16.56 4.63,16.66 C4.73,16.76 4.86,16.83 5,16.83 L11.999,16.83 C12.139,16.83 12.28,16.77 12.37,16.67 C12.46,16.57 12.509,16.43 12.499,16.29 C12.329,14.6 10.989,13.27 9.3,13.11 Z"/>
</svg>

