<svg xmlns="http://www.w3.org/2000/svg" width="24" height="24" viewBox="0 0 24 24">
  <defs/>
  <path fill="#292D32" d="M14.039,22.75 L9.249,22.75 C7.629,22.75 6.159,22.12 5.099,20.96 C4.039,19.81 3.529,18.29 3.669,16.68 C4.009,12.58 7.629,9.25 11.749,9.25 C15.539,9.25 19.119,12.29 19.749,16.02 C20.049,17.8 19.609,19.48 18.529,20.76 C17.429,22.04 15.839,22.75 14.039,22.75 Z M11.739,10.75 C8.389,10.75 5.439,13.47 5.159,16.81 C5.059,18 5.429,19.11 6.199,19.95 C6.969,20.79 8.049,21.25 9.239,21.25 L14.029,21.25 C15.379,21.25 16.569,20.73 17.359,19.8 C18.149,18.87 18.469,17.61 18.249,16.27 C17.749,13.23 14.829,10.75 11.739,10.75 Z"/>
  <path fill="#292D32" d="M10.471,8.25 C8.681,8.25 7.221,6.79 7.221,5 C7.221,3.21 8.681,1.75 10.471,1.75 C12.261,1.75 13.721,3.21 13.721,5 C13.721,6.79 12.271,8.25 10.471,8.25 Z M10.471,3.25 C9.511,3.25 8.721,4.04 8.721,5 C8.721,5.96 9.511,6.75 10.471,6.75 C11.431,6.75 12.221,5.96 12.221,5 C12.221,4.04 11.441,3.25 10.471,3.25 Z"/>
  <path fill="#292D32" d="M17.301,9.45 C15.781,9.45 14.551,8.22 14.551,6.7 C14.551,5.18 15.781,3.95 17.301,3.95 C18.821,3.95 20.051,5.18 20.051,6.7 C20.051,8.22 18.821,9.45 17.301,9.45 Z M17.301,5.45 C16.611,5.45 16.051,6.01 16.051,6.7 C16.051,7.39 16.611,7.95 17.301,7.95 C17.991,7.95 18.551,7.39 18.551,6.7 C18.551,6.01 17.991,5.45 17.301,5.45 Z"/>
  <path fill="#292D32" d="M21,13.45 C19.76,13.45 18.75,12.44 18.75,11.2 C18.75,9.96 19.76,8.95 21,8.95 C22.24,8.95 23.25,9.96 23.25,11.2 C23.25,12.44 22.24,13.45 21,13.45 Z M21,10.45 C20.59,10.45 20.25,10.79 20.25,11.2 C20.25,11.61 20.59,11.95 21,11.95 C21.41,11.95 21.75,11.61 21.75,11.2 C21.75,10.79 21.41,10.45 21,10.45 Z"/>
  <path fill="#292D32" d="M3.971,11.45 C2.451,11.45 1.221,10.22 1.221,8.7 C1.221,7.18 2.451,5.95 3.971,5.95 C5.491,5.95 6.721,7.18 6.721,8.7 C6.721,10.22 5.491,11.45 3.971,11.45 Z M3.971,7.45 C3.281,7.45 2.721,8.01 2.721,8.7 C2.721,9.39 3.281,9.95 3.971,9.95 C4.661,9.95 5.221,9.39 5.221,8.7 C5.221,8.01 4.661,7.45 3.971,7.45 Z"/>
</svg>

