<svg xmlns="http://www.w3.org/2000/svg" width="24" height="24" viewBox="0 0 24 24">
  <defs/>
  <path fill="#292D32" opacity="0.4" d="M19.08,15.72 C18.49,12.19 15.1,9.32 11.52,9.32 C7.63,9.32 4.21,12.47 3.88,16.35 C3.75,17.85 4.23,19.27 5.22,20.34 C6.2,21.41 7.58,22 9.08,22 L13.76,22 C15.45,22 16.93,21.34 17.94,20.15 C18.95,18.96 19.35,17.38 19.08,15.72 Z"/>
  <path fill="#292D32" d="M10.28,7.86 C11.898,7.86 13.21,6.548 13.21,4.93 C13.21,3.312 11.898,2 10.28,2 C8.661,2 7.35,3.312 7.35,4.93 C7.35,6.548 8.661,7.86 10.28,7.86 Z"/>
  <path fill="#292D32" d="M16.94,9.03 C18.288,9.03 19.38,7.937 19.38,6.59 C19.38,5.242 18.288,4.15 16.94,4.15 C15.592,4.15 14.5,5.242 14.5,6.59 C14.5,7.937 15.592,9.03 16.94,9.03 Z"/>
  <path fill="#292D32" d="M20.55,12.93 C21.627,12.93 22.5,12.057 22.5,10.98 C22.5,9.903 21.627,9.03 20.55,9.03 C19.473,9.03 18.6,9.903 18.6,10.98 C18.6,12.057 19.473,12.93 20.55,12.93 Z"/>
  <path fill="#292D32" d="M3.94,10.98 C5.288,10.98 6.38,9.888 6.38,8.54 C6.38,7.193 5.288,6.1 3.94,6.1 C2.592,6.1 1.5,7.193 1.5,8.54 C1.5,9.888 2.592,10.98 3.94,10.98 Z"/>
</svg>

