<svg xmlns="http://www.w3.org/2000/svg" width="24" height="24" viewBox="0 0 24 24">
  <defs/>
  <path fill="#292D32" d="M21,22.75 L3,22.75 C2.59,22.75 2.25,22.41 2.25,22 C2.25,21.59 2.59,21.25 3,21.25 L21,21.25 C21.41,21.25 21.75,21.59 21.75,22 C21.75,22.41 21.41,22.75 21,22.75 Z"/>
  <path fill="#292D32" d="M21,2.75 L3,2.75 C2.59,2.75 2.25,2.41 2.25,2 C2.25,1.59 2.59,1.25 3,1.25 L21,1.25 C21.41,1.25 21.75,1.59 21.75,2 C21.75,2.41 21.41,2.75 21,2.75 Z"/>
  <path fill="#292D32" d="M14.299,15.358 L12.749,16.908 L12.749,6.698 L14.299,8.248 C14.449,8.398 14.639,8.468 14.829,8.468 C15.019,8.468 15.209,8.398 15.359,8.248 C15.649,7.958 15.649,7.478 15.359,7.188 L12.529,4.358 C12.249,4.078 11.749,4.078 11.469,4.358 L8.639,7.188 C8.349,7.478 8.349,7.958 8.639,8.248 C8.929,8.538 9.409,8.538 9.699,8.248 L11.249,6.698 L11.249,16.908 L9.699,15.358 C9.409,15.068 8.929,15.068 8.639,15.358 C8.349,15.648 8.349,16.128 8.639,16.418 L11.469,19.248 C11.609,19.388 11.799,19.468 11.999,19.468 C12.199,19.468 12.389,19.388 12.529,19.248 L15.359,16.418 C15.649,16.128 15.649,15.648 15.359,15.358 C15.069,15.068 14.589,15.068 14.299,15.358 Z"/>
</svg>

