<svg xmlns="http://www.w3.org/2000/svg" width="24" height="24" viewBox="0 0 24 24">
  <defs/>
  <path fill="#292D32" opacity="0.4" d="M21,22.75 L3,22.75 C2.59,22.75 2.25,22.41 2.25,22 C2.25,21.59 2.59,21.25 3,21.25 L21,21.25 C21.41,21.25 21.75,21.59 21.75,22 C21.75,22.41 21.41,22.75 21,22.75 Z"/>
  <path fill="#292D32" opacity="0.4" d="M21,2.75 L3,2.75 C2.59,2.75 2.25,2.41 2.25,2 C2.25,1.59 2.59,1.25 3,1.25 L21,1.25 C21.41,1.25 21.75,1.59 21.75,2 C21.75,2.41 21.41,2.75 21,2.75 Z"/>
  <path fill="#292D32" d="M14.299,15.36 L12.749,16.91 L12.749,6.7 L14.299,8.25 C14.449,8.4 14.639,8.47 14.829,8.47 C15.019,8.47 15.209,8.4 15.359,8.25 C15.649,7.96 15.649,7.48 15.359,7.19 L12.529,4.36 C12.249,4.08 11.749,4.08 11.469,4.36 L8.639,7.19 C8.349,7.48 8.349,7.96 8.639,8.25 C8.929,8.54 9.409,8.54 9.699,8.25 L11.249,6.7 L11.249,16.91 L9.699,15.36 C9.409,15.07 8.929,15.07 8.639,15.36 C8.349,15.65 8.349,16.13 8.639,16.42 L11.469,19.25 C11.609,19.39 11.799,19.47 11.999,19.47 C12.199,19.47 12.389,19.39 12.529,19.25 L15.359,16.42 C15.649,16.13 15.649,15.65 15.359,15.36 C15.069,15.07 14.589,15.07 14.299,15.36 Z"/>
</svg>

