<svg xmlns="http://www.w3.org/2000/svg" width="24" height="24" viewBox="0 0 24 24">
  <defs/>
  <path fill="#292D32" d="M3,21.25 L21,21.25 Q21.311,21.25 21.53,21.47 Q21.75,21.689 21.75,22 Q21.75,22.311 21.53,22.53 Q21.311,22.75 21,22.75 L3,22.75 Q2.689,22.75 2.47,22.53 Q2.25,22.311 2.25,22 Q2.25,21.689 2.47,21.47 Q2.689,21.25 3,21.25 Z"/>
  <path fill="#292D32" d="M3,1.25 L21,1.25 Q21.311,1.25 21.53,1.47 Q21.75,1.689 21.75,2 Q21.75,2.311 21.53,2.53 Q21.311,2.75 21,2.75 L3,2.75 Q2.689,2.75 2.47,2.53 Q2.25,2.311 2.25,2 Q2.25,1.689 2.47,1.47 Q2.689,1.25 3,1.25 Z"/>
  <g opacity="0.4">
    <path fill="#292D32" d="M12.75,6 L12.75,18 Q12.75,18.311 12.53,18.53 Q12.311,18.75 12,18.75 Q11.689,18.75 11.47,18.53 Q11.25,18.311 11.25,18 L11.25,6 Q11.25,5.689 11.47,5.47 Q11.689,5.25 12,5.25 Q12.311,5.25 12.53,5.47 Q12.75,5.689 12.75,6 Z"/>
    <path fill="#292D32" d="M14.3,8.25 L12,5.95 L9.7,8.25 Q9.481,8.47 9.17,8.47 Q8.859,8.47 8.64,8.25 Q8.42,8.03 8.42,7.72 Q8.42,7.409 8.64,7.189 L11.47,4.359 Q11.689,4.14 12,4.14 Q12.311,4.14 12.53,4.359 L15.36,7.189 Q15.58,7.409 15.58,7.72 Q15.58,8.03 15.36,8.25 Q15.141,8.47 14.83,8.47 Q14.519,8.47 14.3,8.25 Z"/>
    <path fill="#292D32" d="M15.36,16.42 L12.53,19.25 Q12.311,19.47 12,19.47 Q11.689,19.47 11.47,19.25 L8.64,16.42 Q8.42,16.2 8.42,15.89 Q8.42,15.579 8.64,15.359 Q8.859,15.14 9.17,15.14 Q9.481,15.14 9.7,15.359 L12,17.659 L14.3,15.359 Q14.519,15.14 14.83,15.14 Q15.141,15.14 15.36,15.359 Q15.58,15.579 15.58,15.89 Q15.58,16.2 15.36,16.42 Z"/>
  </g>
</svg>

