<svg xmlns="http://www.w3.org/2000/svg" width="24" height="24" viewBox="0 0 24 24">
  <defs/>
  <path fill="#292D32" d="M21,22.75 L3,22.75 C2.59,22.75 2.25,22.41 2.25,22 C2.25,21.59 2.59,21.25 3,21.25 L21,21.25 C21.41,21.25 21.75,21.59 21.75,22 C21.75,22.41 21.41,22.75 21,22.75 Z"/>
  <path fill="#292D32" d="M21,2.75 L3,2.75 C2.59,2.75 2.25,2.41 2.25,2 C2.25,1.59 2.59,1.25 3,1.25 L21,1.25 C21.41,1.25 21.75,1.59 21.75,2 C21.75,2.41 21.41,2.75 21,2.75 Z"/>
  <path fill="#292D32" d="M12,18.75 C11.59,18.75 11.25,18.41 11.25,18 L11.25,6 C11.25,5.59 11.59,5.25 12,5.25 C12.41,5.25 12.75,5.59 12.75,6 L12.75,18 C12.75,18.41 12.41,18.75 12,18.75 Z"/>
  <path fill="#292D32" d="M14.829,8.47 C14.639,8.47 14.449,8.4 14.299,8.25 L11.999,5.95 L9.699,8.25 C9.409,8.54 8.929,8.54 8.639,8.25 C8.349,7.96 8.349,7.48 8.639,7.19 L11.469,4.36 C11.749,4.08 12.249,4.08 12.529,4.36 L15.359,7.19 C15.649,7.48 15.649,7.96 15.359,8.25 C15.209,8.4 15.019,8.47 14.829,8.47 Z"/>
  <path fill="#292D32" d="M11.999,19.47 C11.799,19.47 11.609,19.39 11.469,19.25 L8.639,16.42 C8.349,16.13 8.349,15.65 8.639,15.36 C8.929,15.07 9.409,15.07 9.699,15.36 L11.999,17.66 L14.299,15.36 C14.589,15.07 15.069,15.07 15.359,15.36 C15.649,15.65 15.649,16.13 15.359,16.42 L12.529,19.25 C12.389,19.39 12.199,19.47 11.999,19.47 Z"/>
</svg>

