<svg xmlns="http://www.w3.org/2000/svg" width="24" height="24" viewBox="0 0 24 24">
  <defs/>
  <path fill="#17191C" d="M15,22.75 L9,22.75 Q1.25,22.75 1.25,15 L1.25,9 Q1.25,1.25 9,1.25 L15,1.25 Q22.75,1.25 22.75,9 L22.75,15 Q22.75,22.75 15,22.75 Z M15,21.25 Q18.439,21.25 19.845,19.845 Q21.25,18.439 21.25,15 L21.25,9 Q21.25,5.561 19.845,4.155 Q18.439,2.75 15,2.75 L9,2.75 Q2.75,2.75 2.75,9 L2.75,15 Q2.75,21.25 9,21.25 Z"/>
  <path fill="#17191C" d="M6.75,16 L6.75,8 Q6.75,7.689 6.97,7.47 Q7.189,7.25 7.5,7.25 L9.5,7.25 Q10.636,7.25 11.443,8.057 Q12.25,8.864 12.25,10 Q12.25,12.75 9.5,12.75 L8.25,12.75 L8.25,16 Q8.25,16.311 8.03,16.53 Q7.811,16.75 7.5,16.75 Q7.189,16.75 6.97,16.53 Q6.75,16.311 6.75,16 Z M8.25,11.25 L9.5,11.25 Q10.75,11.25 10.75,10 Q10.75,8.75 9.5,8.75 L8.25,8.75 L8.25,11.25 Z"/>
  <path fill="#17191C" d="M16.5,11.75 L15.2,11.75 Q14.75,11.75 14.75,12.2 Q14.75,12.65 15.2,12.65 Q17.15,12.65 17.15,14.6 Q17.15,16.55 15.2,16.55 L14,16.55 Q13.689,16.55 13.47,16.33 Q13.25,16.111 13.25,15.8 Q13.25,15.489 13.47,15.27 Q13.689,15.05 14,15.05 L15.2,15.05 Q15.65,15.05 15.65,14.6 Q15.65,14.15 15.2,14.15 Q13.25,14.15 13.25,12.2 Q13.25,10.25 15.2,10.25 L16.5,10.25 Q16.811,10.25 17.03,10.47 Q17.25,10.689 17.25,11 Q17.25,11.311 17.03,11.53 Q16.811,11.75 16.5,11.75 Z"/>
</svg>

