<svg xmlns="http://www.w3.org/2000/svg" width="24" height="24" viewBox="0 0 24 24">
  <defs/>
  <path d="M15,22.75 L9,22.75 Q1.25,22.75 1.25,15 L1.25,9 Q1.25,1.25 9,1.25 L15,1.25 Q22.75,1.25 22.75,9 L22.75,15 Q22.75,22.75 15,22.75 Z M15,21.25 Q18.439,21.25 19.845,19.845 Q21.25,18.439 21.25,15 L21.25,9 Q21.25,5.561 19.845,4.155 Q18.439,2.75 15,2.75 L9,2.75 Q2.75,2.75 2.75,9 L2.75,15 Q2.75,21.25 9,21.25 Z"/>
  <path opacity="0.4" d="M6.75,16 L6.75,8 Q6.75,7.689 6.97,7.47 Q7.189,7.25 7.5,7.25 L9.5,7.25 Q10.636,7.25 11.443,8.057 Q12.25,8.864 12.25,10 Q12.25,12.75 9.5,12.75 L8.25,12.75 L8.25,16 Q8.25,16.311 8.03,16.53 Q7.811,16.75 7.5,16.75 Q7.189,16.75 6.97,16.53 Q6.75,16.311 6.75,16 Z M8.25,11.25 L9.5,11.25 Q10.75,11.25 10.75,10 Q10.75,8.75 9.5,8.75 L8.25,8.75 L8.25,11.25 Z"/>
  <path opacity="0.4" d="M16.5,11.75 L15.25,11.75 Q14.75,11.75 14.75,12.25 Q14.75,12.75 15.25,12.75 Q16.078,12.75 16.664,13.336 Q17.25,13.922 17.25,14.75 Q17.25,16.75 15.25,16.75 L14,16.75 Q13.689,16.75 13.47,16.53 Q13.25,16.311 13.25,16 Q13.25,15.689 13.47,15.47 Q13.689,15.25 14,15.25 L15.25,15.25 Q15.75,15.25 15.75,14.75 Q15.75,14.25 15.25,14.25 Q13.25,14.25 13.25,12.25 Q13.25,10.25 15.25,10.25 L16.5,10.25 Q16.811,10.25 17.03,10.47 Q17.25,10.689 17.25,11 Q17.25,11.311 17.03,11.53 Q16.811,11.75 16.5,11.75 Z"/>
</svg>

