<svg xmlns="http://www.w3.org/2000/svg" width="24" height="24" viewBox="0 0 24 24">
  <defs/>
  <path d="M15,22.75 L9,22.75 C3.57,22.75 1.25,20.43 1.25,15 L1.25,9 C1.25,3.57 3.57,1.25 9,1.25 L15,1.25 C20.43,1.25 22.75,3.57 22.75,9 L22.75,15 C22.75,20.43 20.43,22.75 15,22.75 Z M9,2.75 C4.39,2.75 2.75,4.39 2.75,9 L2.75,15 C2.75,19.61 4.39,21.25 9,21.25 L15,21.25 C19.61,21.25 21.25,19.61 21.25,15 L21.25,9 C21.25,4.39 19.61,2.75 15,2.75 L9,2.75 Z"/>
  <path d="M7.5,16.75 C7.09,16.75 6.75,16.41 6.75,16 L6.75,8 C6.75,7.59 7.09,7.25 7.5,7.25 L9.5,7.25 C11.02,7.25 12.25,8.48 12.25,10 C12.25,11.52 11.02,12.75 9.5,12.75 L8.25,12.75 L8.25,16 C8.25,16.41 7.91,16.75 7.5,16.75 Z M8.25,11.25 L9.5,11.25 C10.19,11.25 10.75,10.69 10.75,10 C10.75,9.31 10.19,8.75 9.5,8.75 L8.25,8.75 L8.25,11.25 Z"/>
  <path d="M15.25,16.75 L14,16.75 C13.59,16.75 13.25,16.41 13.25,16 C13.25,15.59 13.59,15.25 14,15.25 L15.25,15.25 C15.53,15.25 15.75,15.03 15.75,14.75 C15.75,14.47 15.53,14.25 15.25,14.25 C14.15,14.25 13.25,13.35 13.25,12.25 C13.25,11.15 14.15,10.25 15.25,10.25 L16.5,10.25 C16.91,10.25 17.25,10.59 17.25,11 C17.25,11.41 16.91,11.75 16.5,11.75 L15.25,11.75 C14.97,11.75 14.75,11.97 14.75,12.25 C14.75,12.53 14.97,12.75 15.25,12.75 C16.35,12.75 17.25,13.65 17.25,14.75 C17.25,15.85 16.35,16.75 15.25,16.75 Z"/>
</svg>

