<svg xmlns="http://www.w3.org/2000/svg" width="24" height="24" viewBox="0 0 24 24">
  <defs/>
  <path fill="#292D32" d="M15,22.75 L9,22.75 C3.57,22.75 1.25,20.43 1.25,15 L1.25,9 C1.25,3.57 3.57,1.25 9,1.25 L15,1.25 C20.43,1.25 22.75,3.57 22.75,9 L22.75,15 C22.75,20.43 20.43,22.75 15,22.75 Z M9,2.75 C4.39,2.75 2.75,4.39 2.75,9 L2.75,15 C2.75,19.61 4.39,21.25 9,21.25 L15,21.25 C19.61,21.25 21.25,19.61 21.25,15 L21.25,9 C21.25,4.39 19.61,2.75 15,2.75 L9,2.75 Z"/>
  <path fill="#292D32" d="M13.95,22.75 C13.61,22.75 13.31,22.52 13.22,22.18 L8.27,2.18 C8.17,1.78 8.42,1.37 8.82,1.27 C9.22,1.17 9.63,1.41 9.73,1.82 L14.68,21.82 C14.78,22.22 14.53,22.63 14.13,22.73 C14.07,22.74 14.01,22.75 13.95,22.75 Z"/>
  <path fill="#292D32" d="M2,15.75 C1.67,15.75 1.38,15.54 1.28,15.21 C1.16,14.81 1.39,14.4 1.79,14.28 L11.32,11.5 C11.72,11.38 12.13,11.61 12.25,12.01 C12.37,12.41 12.14,12.82 11.74,12.94 L2.21,15.72 C2.14,15.74 2.07,15.75 2,15.75 Z"/>
</svg>

