<svg xmlns="http://www.w3.org/2000/svg" width="24" height="24" viewBox="0 0 24 24">
  <defs/>
  <path fill="#292D32" d="M21.25,11 L21.25,9 Q21.25,2.75 15,2.75 L9,2.75 Q2.75,2.75 2.75,9 L2.75,15 Q2.75,18.439 4.155,19.845 Q5.561,21.25 9,21.25 L15,21.25 Q18.439,21.25 19.845,19.845 Q21.25,18.439 21.25,15 Q21.25,14.689 21.47,14.47 Q21.689,14.25 22,14.25 Q22.311,14.25 22.53,14.47 Q22.75,14.689 22.75,15 Q22.75,22.75 15,22.75 L9,22.75 Q1.25,22.75 1.25,15 L1.25,9 Q1.25,1.25 9,1.25 L15,1.25 Q22.75,1.25 22.75,9 L22.75,11 Q22.75,11.311 22.53,11.53 Q22.311,11.75 22,11.75 Q21.689,11.75 21.47,11.53 Q21.25,11.311 21.25,11 Z"/>
  <path fill="#292D32" d="M9.728,1.82 L14.678,21.82 Q14.753,22.121 14.592,22.387 Q14.432,22.653 14.13,22.728 Q13.829,22.803 13.563,22.642 Q13.297,22.482 13.222,22.18 L8.272,2.18 Q8.197,1.879 8.358,1.613 Q8.518,1.347 8.82,1.272 Q9.121,1.197 9.387,1.358 Q9.653,1.518 9.728,1.82 Z"/>
  <path fill="#292D32" d="M11.74,12.94 L2.21,15.72 Q1.912,15.807 1.639,15.658 Q1.367,15.508 1.28,15.21 Q1.193,14.912 1.342,14.639 Q1.492,14.367 1.79,14.28 L11.32,11.5 Q11.618,11.413 11.891,11.562 Q12.163,11.712 12.25,12.01 Q12.337,12.308 12.188,12.581 Q12.038,12.853 11.74,12.94 Z"/>
</svg>

