<svg xmlns="http://www.w3.org/2000/svg" width="24" height="24" viewBox="0 0 24 24">
  <defs/>
  <path fill="#292D32" d="M10.51,11.22 L8.31,2.39 C8.26,2.16 8.05,2 7.81,2 C4.6,2 2,4.6 2,7.81 L2,13.51 C2,13.85 2.33,14.1 2.66,14 L10.16,11.83 C10.42,11.76 10.58,11.49 10.51,11.22 Z"/>
  <path fill="#292D32" d="M11.12,13.679 C11.05,13.399 10.76,13.229 10.48,13.309 L2.37,15.669 C2.15,15.739 2,15.939 2,16.169 L2,16.189 C2,19.399 4.6,21.999 7.81,21.999 L12.53,21.999 C12.86,21.999 13.11,21.689 13.03,21.359 L11.12,13.679 Z"/>
  <path fill="#292D32" d="M16.191,2 L10.441,2 C10.111,2 9.861,2.31 9.941,2.64 L14.681,21.61 C14.741,21.84 14.941,22 15.181,22 L16.181,22 C19.401,22 22.001,19.4 22.001,16.19 L22.001,7.81 C22.001,4.6 19.401,2 16.191,2 Z"/>
</svg>

