<svg xmlns="http://www.w3.org/2000/svg" width="24" height="24" viewBox="0 0 24 24">
  <defs/>
  <path fill="#292D32" d="M7.87,21.28 C7.08,21.28 6.33,21.09 5.67,20.71 C4.11,19.81 3.25,17.98 3.25,15.57 L3.25,8.44 C3.25,6.02 4.11,4.2 5.67,3.3 C7.23,2.4 9.24,2.57 11.34,3.78 L17.51,7.34 C19.6,8.55 20.76,10.21 20.76,12.01 C20.76,13.81 19.61,15.47 17.51,16.68 L11.34,20.24 C10.13,20.93 8.95,21.28 7.87,21.28 Z M7.87,4.22 C7.33,4.22 6.85,4.34 6.42,4.59 C5.34,5.21 4.75,6.58 4.75,8.44 L4.75,15.56 C4.75,17.42 5.34,18.78 6.42,19.41 C7.5,20.04 8.98,19.86 10.59,18.93 L16.76,15.37 C18.37,14.44 19.26,13.25 19.26,12 C19.26,10.75 18.37,9.56 16.76,8.63 L10.59,5.07 C9.61,4.51 8.69,4.22 7.87,4.22 Z"/>
</svg>

