<svg xmlns="http://www.w3.org/2000/svg" width="24" height="24" viewBox="0 0 24 24">
  <defs/>
  <path fill="#292D32" d="M3.25,8.44 Q3.25,4.692 5.669,3.294 Q8.088,1.897 11.335,3.77 L14.424,5.55 L17.514,7.33 Q20.763,9.204 20.763,12 Q20.763,14.796 17.515,16.67 L14.424,18.45 L11.334,20.23 Q8.088,22.103 5.669,20.706 Q3.25,19.308 3.25,15.56 L3.25,8.44 Z M4.75,15.56 Q4.75,18.442 6.419,19.407 Q8.088,20.371 10.586,18.93 L13.676,17.15 L16.765,15.37 Q19.263,13.929 19.262,12 Q19.262,10.071 16.766,8.63 L13.676,6.85 L10.585,5.07 Q8.088,3.629 6.419,4.593 Q4.75,5.557 4.75,8.44 L4.75,15.56 Z"/>
</svg>

