<svg xmlns="http://www.w3.org/2000/svg" width="24" height="24" viewBox="0 0 24 24">
  <defs/>
  <path fill="#292D32" d="M19.072,19.821 C18.882,19.821 18.692,19.751 18.542,19.601 C18.252,19.311 18.252,18.831 18.542,18.541 C22.152,14.931 22.152,9.061 18.542,5.461 C18.252,5.171 18.252,4.691 18.542,4.401 C18.832,4.111 19.312,4.111 19.602,4.401 C23.792,8.591 23.792,15.411 19.602,19.601 C19.452,19.751 19.262,19.821 19.072,19.821 Z"/>
  <path fill="#292D32" d="M4.93,19.821 C4.74,19.821 4.55,19.751 4.4,19.601 C0.21,15.411 0.21,8.591 4.4,4.401 C4.69,4.111 5.17,4.111 5.46,4.401 C5.75,4.691 5.75,5.171 5.46,5.461 C1.85,9.071 1.85,14.941 5.46,18.541 C5.75,18.831 5.75,19.311 5.46,19.601 C5.31,19.751 5.12,19.821 4.93,19.821 Z"/>
  <path fill="#292D32" d="M11.999,22.712 C10.749,22.702 9.559,22.502 8.449,22.112 C8.059,21.972 7.849,21.542 7.989,21.152 C8.129,20.762 8.549,20.552 8.949,20.692 C9.909,21.022 10.929,21.202 12.009,21.202 C13.079,21.202 14.109,21.022 15.059,20.692 C15.449,20.562 15.879,20.762 16.019,21.152 C16.159,21.542 15.949,21.972 15.559,22.112 C14.439,22.502 13.249,22.712 11.999,22.712 Z"/>
  <path fill="#292D32" d="M15.299,3.339 C15.219,3.339 15.129,3.329 15.049,3.299 C14.099,2.959 13.069,2.789 11.999,2.789 C10.929,2.789 9.909,2.969 8.949,3.299 C8.549,3.429 8.129,3.229 7.989,2.839 C7.849,2.449 8.059,2.019 8.449,1.879 C9.569,1.489 10.759,1.289 11.999,1.289 C13.239,1.289 14.439,1.489 15.549,1.879 C15.939,2.019 16.149,2.449 16.009,2.839 C15.899,3.149 15.609,3.339 15.299,3.339 Z"/>
  <path fill="#292D32" d="M8.738,12 L8.738,10.33 C8.738,8.25 10.208,7.4 12.008,8.44 L13.458,9.28 L14.908,10.12 C16.708,11.16 16.708,12.86 14.908,13.9 L13.458,14.74 L12.008,15.58 C10.208,16.62 8.738,15.77 8.738,13.69 L8.738,12 Z"/>
</svg>

