<svg xmlns="http://www.w3.org/2000/svg" width="24" height="24" viewBox="0 0 24 24">
  <defs/>
  <path fill="#292D32" opacity="0.4" d="M22.75,12 Q22.75,14.106 21.974,16.004 Q21.857,16.291 21.57,16.412 Q21.284,16.532 20.996,16.414 Q20.92,16.383 20.853,16.337 Q20.006,15.75 19,15.75 Q17.866,15.75 16.967,16.466 Q15.75,17.433 15.75,19 Q15.75,19.907 16.218,20.666 Q16.225,20.677 16.231,20.688 Q16.256,20.731 16.299,20.782 Q16.502,21.018 16.478,21.328 Q16.454,21.637 16.218,21.839 Q16.126,21.918 16.014,21.964 Q14.091,22.75 12,22.75 Q7.549,22.75 4.4,19.6 Q1.25,16.451 1.25,12 Q1.25,7.549 4.4,4.4 Q7.549,1.25 12,1.25 Q16.451,1.25 19.6,4.4 Q22.75,7.549 22.75,12 Z M21.25,12 Q21.25,8.171 18.54,5.46 Q15.829,2.75 12,2.75 Q8.171,2.75 5.46,5.46 Q2.75,8.171 2.75,12 Q2.75,15.829 5.46,18.54 Q8.171,21.25 12,21.25 Q13.358,21.25 14.632,20.865 Q14.25,19.991 14.25,19 Q14.25,16.708 16.033,15.294 Q17.342,14.25 19,14.25 Q19.989,14.25 20.87,14.634 Q21.25,13.37 21.25,12 Z"/>
  <path fill="#292D32" d="M8.631,10.61 Q8.631,8.888 9.801,8.209 Q10.973,7.529 12.466,8.391 L13.665,9.08 L14.865,9.77 Q16.358,10.632 16.358,11.985 Q16.358,13.338 14.866,14.2 L13.665,14.89 L12.465,15.58 Q10.972,16.442 9.802,15.766 Q8.631,15.089 8.631,13.36 L8.631,10.61 Z M10.131,13.36 Q10.131,14.224 10.552,14.467 Q10.973,14.71 11.717,14.28 L12.917,13.59 L14.116,12.901 Q14.858,12.472 14.858,11.985 Q14.858,11.498 14.117,11.07 L12.917,10.38 L11.716,9.69 Q10.975,9.262 10.553,9.506 Q10.131,9.751 10.131,10.61 L10.131,13.36 Z"/>
  <path fill="#292D32" d="M23.75,19 Q23.75,20.328 23.063,21.446 Q22.685,22.091 22.122,22.566 Q20.8,23.75 19,23.75 Q16.516,23.75 15.131,21.723 Q15.018,21.586 14.936,21.444 Q14.25,20.326 14.25,19 Q14.25,16.708 16.034,15.292 Q17.342,14.25 19,14.25 Q20.474,14.25 21.707,15.103 Q23.75,16.518 23.75,19 Z M22.25,19 Q22.25,17.304 20.853,16.337 Q20.006,15.75 19,15.75 Q17.866,15.75 16.966,16.468 Q15.75,17.433 15.75,19 Q15.75,19.907 16.218,20.666 Q16.225,20.677 16.231,20.688 Q16.256,20.731 16.299,20.782 Q16.328,20.815 16.352,20.851 Q17.294,22.25 19,22.25 Q20.231,22.25 21.128,21.443 Q21.138,21.434 21.148,21.425 Q21.521,21.112 21.772,20.682 Q21.777,20.674 21.782,20.666 Q22.25,19.907 22.25,19 Z"/>
  <g opacity="0.4">
    <path fill="#292D32" d="M19.54,20.572 L17.42,18.462 Q17.2,18.243 17.199,17.932 Q17.198,17.621 17.418,17.401 Q17.637,17.181 17.947,17.18 Q18.258,17.179 18.478,17.399 L20.598,19.509 Q20.818,19.728 20.819,20.038 Q20.82,20.349 20.601,20.569 Q20.382,20.789 20.071,20.79 Q19.76,20.791 19.54,20.572 Z"/>
    <path fill="#292D32" d="M20.579,18.492 L18.459,20.601 Q18.239,20.821 17.928,20.82 Q17.617,20.819 17.398,20.599 Q17.179,20.379 17.18,20.068 Q17.18,19.757 17.401,19.538 L19.521,17.428 Q19.741,17.209 20.051,17.21 Q20.362,17.211 20.581,17.431 Q20.8,17.651 20.8,17.962 Q20.799,18.272 20.579,18.492 Z"/>
  </g>
</svg>

