<svg xmlns="http://www.w3.org/2000/svg" width="24" height="24" viewBox="0 0 24 24">
  <defs/>
  <path fill="#292D32" d="M22.75,12 Q22.75,14.106 21.974,16.004 Q21.857,16.291 21.57,16.412 Q21.284,16.532 20.996,16.414 Q20.92,16.383 20.853,16.337 Q20.006,15.75 19,15.75 Q17.866,15.75 16.967,16.466 Q15.75,17.433 15.75,19 Q15.75,19.907 16.218,20.666 Q16.225,20.677 16.231,20.688 Q16.256,20.731 16.299,20.782 Q16.502,21.018 16.478,21.328 Q16.454,21.637 16.218,21.839 Q16.126,21.918 16.014,21.964 Q14.091,22.75 12,22.75 Q7.549,22.75 4.4,19.6 Q1.25,16.451 1.25,12 Q1.25,7.549 4.4,4.4 Q7.549,1.25 12,1.25 Q16.451,1.25 19.6,4.4 Q22.75,7.549 22.75,12 Z M21.25,12 Q21.25,8.171 18.54,5.46 Q15.829,2.75 12,2.75 Q8.171,2.75 5.46,5.46 Q2.75,8.171 2.75,12 Q2.75,15.829 5.46,18.54 Q8.171,21.25 12,21.25 Q13.358,21.25 14.632,20.865 Q14.25,19.991 14.25,19 Q14.25,16.708 16.033,15.294 Q17.342,14.25 19,14.25 Q19.989,14.25 20.87,14.634 Q21.25,13.37 21.25,12 Z"/>
  <path fill="#292D32" d="M8.63,10.61 Q8.63,8.888 9.8,8.209 Q10.972,7.529 12.465,8.391 L13.664,9.08 L14.864,9.77 Q16.358,10.632 16.358,11.985 Q16.358,13.338 14.865,14.2 L13.664,14.89 L12.464,15.58 Q10.971,16.442 9.801,15.766 Q8.63,15.089 8.63,13.36 L8.63,10.61 Z M10.13,13.36 Q10.13,14.224 10.551,14.467 Q10.972,14.71 11.716,14.28 L12.916,13.59 L14.115,12.901 Q14.858,12.472 14.858,11.985 Q14.858,11.498 14.116,11.07 L12.916,10.38 L11.715,9.69 Q10.974,9.262 10.553,9.506 Q10.13,9.751 10.13,10.61 L10.13,13.36 Z"/>
  <path fill="#292D32" d="M23.75,19 Q23.75,20.328 23.063,21.446 Q22.685,22.091 22.122,22.566 Q20.8,23.75 19,23.75 Q16.307,23.75 14.935,21.443 Q14.25,20.332 14.25,19 Q14.25,16.708 16.034,15.292 Q17.342,14.25 19,14.25 Q20.968,14.25 22.359,15.641 Q23.75,17.032 23.75,19 Z M22.25,19 Q22.25,17.653 21.298,16.702 Q20.347,15.75 19,15.75 Q17.866,15.75 16.966,16.468 Q15.75,17.433 15.75,19 Q15.75,19.907 16.225,20.677 Q17.16,22.25 19,22.25 Q20.231,22.25 21.128,21.443 Q21.138,21.434 21.148,21.425 Q21.521,21.112 21.772,20.682 Q21.777,20.674 21.782,20.666 Q22.25,19.907 22.25,19 Z"/>
  <path fill="#292D32" d="M20.49,19.73 L17.51,19.73 Q17.199,19.73 16.98,19.51 Q16.76,19.291 16.76,18.98 Q16.76,18.669 16.98,18.45 Q17.199,18.23 17.51,18.23 L20.49,18.23 Q20.801,18.23 21.02,18.45 Q21.24,18.669 21.24,18.98 Q21.24,19.291 21.02,19.51 Q20.801,19.73 20.49,19.73 Z"/>
  <path fill="#292D32" d="M19.75,17.52 L19.75,20.51 Q19.75,20.821 19.53,21.04 Q19.311,21.26 19,21.26 Q18.689,21.26 18.47,21.04 Q18.25,20.821 18.25,20.51 L18.25,17.52 Q18.25,17.209 18.47,16.99 Q18.689,16.77 19,16.77 Q19.311,16.77 19.53,16.99 Q19.75,17.209 19.75,17.52 Z"/>
</svg>

