<svg xmlns="http://www.w3.org/2000/svg" width="24" height="24" viewBox="0 0 24 24">
  <defs/>
  <path fill="#292D32" d="M12,22.75 C6.07,22.75 1.25,17.93 1.25,12 C1.25,6.07 6.07,1.25 12,1.25 C17.93,1.25 22.75,6.07 22.75,12 C22.75,13.4 22.49,14.74 21.97,16 C21.88,16.21 21.71,16.37 21.49,16.43 C21.27,16.5 21.04,16.46 20.85,16.33 C19.67,15.52 18.08,15.58 16.96,16.46 C16.19,17.07 15.74,18 15.74,18.99 C15.74,19.58 15.9,20.16 16.21,20.66 C16.24,20.71 16.26,20.74 16.29,20.77 C16.45,20.95 16.51,21.2 16.46,21.44 C16.41,21.68 16.24,21.87 16.01,21.96 C14.74,22.49 13.39,22.75 12,22.75 Z M12,2.75 C6.9,2.75 2.75,6.9 2.75,12 C2.75,17.1 6.9,21.25 12,21.25 C12.9,21.25 13.78,21.12 14.63,20.86 C14.38,20.28 14.25,19.65 14.25,19 C14.25,17.54 14.9,16.19 16.03,15.29 C17.39,14.21 19.3,13.96 20.86,14.63 C21.11,13.79 21.24,12.9 21.24,11.99 C21.25,6.9 17.1,2.75 12,2.75 Z"/>
  <path fill="#292D32" d="M10.879,16.07 C10.489,16.07 10.119,15.98 9.799,15.79 C9.059,15.36 8.629,14.49 8.629,13.39 L8.629,10.61 C8.629,9.51 9.059,8.64 9.799,8.21 C10.549,7.78 11.519,7.85 12.469,8.4 L14.869,9.79 C15.819,10.34 16.359,11.15 16.359,12 C16.359,12.85 15.819,13.67 14.869,14.21 L12.469,15.6 C11.929,15.91 11.389,16.07 10.879,16.07 Z M10.889,9.43 C10.759,9.43 10.649,9.46 10.549,9.51 C10.279,9.67 10.129,10.07 10.129,10.61 L10.129,13.39 C10.129,13.93 10.279,14.34 10.549,14.49 C10.819,14.64 11.239,14.58 11.719,14.3 L14.119,12.91 C14.589,12.64 14.859,12.3 14.859,11.99 C14.859,11.68 14.589,11.35 14.119,11.07 L11.719,9.68 C11.409,9.52 11.129,9.43 10.889,9.43 Z"/>
  <path fill="#292D32" d="M19,23.75 C17.34,23.75 15.78,22.87 14.94,21.44 C14.49,20.72 14.25,19.87 14.25,19 C14.25,17.54 14.9,16.19 16.03,15.29 C16.87,14.62 17.93,14.25 19,14.25 C21.62,14.25 23.75,16.38 23.75,19 C23.75,19.87 23.51,20.72 23.06,21.45 C22.81,21.87 22.49,22.25 22.11,22.57 C21.28,23.33 20.17,23.75 19,23.75 Z M19,15.75 C18.26,15.75 17.56,16 16.97,16.47 C16.2,17.08 15.75,18.01 15.75,19 C15.75,19.59 15.91,20.17 16.22,20.67 C16.8,21.65 17.87,22.25 19,22.25 C19.79,22.25 20.55,21.96 21.13,21.44 C21.39,21.22 21.61,20.96 21.77,20.68 C22.09,20.17 22.25,19.59 22.25,19 C22.25,17.21 20.79,15.75 19,15.75 Z"/>
  <path fill="#292D32" d="M20.5,19.73 L17.51,19.73 C17.1,19.73 16.76,19.39 16.76,18.98 C16.76,18.57 17.1,18.23 17.51,18.23 L20.5,18.23 C20.91,18.23 21.25,18.57 21.25,18.98 C21.25,19.39 20.91,19.73 20.5,19.73 Z"/>
  <path fill="#292D32" d="M19,21.26 C18.59,21.26 18.25,20.92 18.25,20.51 L18.25,17.52 C18.25,17.11 18.59,16.77 19,16.77 C19.41,16.77 19.75,17.11 19.75,17.52 L19.75,20.51 C19.75,20.93 19.41,21.26 19,21.26 Z"/>
</svg>

