<svg xmlns="http://www.w3.org/2000/svg" width="24" height="24" viewBox="0 0 24 24">
  <defs/>
  <path fill="#292D32" d="M14.535,13.471 Q15.51,12.907 15.51,12.23 Q15.51,11.553 14.535,10.989 L13.084,10.149 L11.634,9.309 Q10.66,8.746 10.076,9.084 Q9.49,9.423 9.49,10.55 L9.49,13.89 Q9.49,14.809 9.902,15.22 Q10.242,15.558 10.839,15.444 Q11.144,15.385 11.401,15.559 Q11.658,15.733 11.717,16.038 Q11.775,16.344 11.601,16.601 Q11.427,16.858 11.122,16.917 Q9.745,17.181 8.843,16.283 Q7.99,15.432 7.99,13.89 L7.99,10.55 Q7.99,8.557 9.325,7.786 Q10.66,7.014 12.386,8.011 L13.836,8.851 L15.285,9.691 Q17.01,10.687 17.01,12.23 Q17.01,13.773 15.285,14.769 Q15.016,14.925 14.716,14.845 Q14.416,14.764 14.261,14.495 Q14.105,14.226 14.186,13.926 Q14.266,13.626 14.535,13.471 Z"/>
  <path fill="#292D32" d="M4.6,6.449 Q2.75,8.922 2.75,12 Q2.75,15.829 5.46,18.54 Q8.171,21.25 12,21.25 Q15.829,21.25 18.54,18.54 Q21.25,15.829 21.25,12 Q21.25,8.171 18.54,5.46 Q15.829,2.75 12,2.75 Q10.031,2.75 8.276,3.535 Q7.993,3.661 7.702,3.551 Q7.412,3.44 7.285,3.156 Q7.159,2.873 7.269,2.582 Q7.38,2.292 7.664,2.165 Q9.711,1.25 12,1.25 Q16.451,1.25 19.6,4.4 Q22.75,7.549 22.75,12 Q22.75,16.451 19.6,19.6 Q16.451,22.75 12,22.75 Q7.549,22.75 4.4,19.6 Q1.25,16.451 1.25,12 Q1.25,8.422 3.4,5.551 Q3.586,5.302 3.893,5.258 Q4.201,5.213 4.449,5.4 Q4.698,5.586 4.742,5.893 Q4.787,6.201 4.6,6.449 Z"/>
</svg>

