<svg xmlns="http://www.w3.org/2000/svg" width="24" height="24" viewBox="0 0 24 24">
  <defs/>
  <path fill="#292D32" d="M17.505,7.33 Q20.753,9.204 20.753,12 Q20.752,14.796 17.505,16.67 L14.414,18.45 L11.324,20.23 Q8.085,22.104 5.667,20.705 Q3.25,19.307 3.25,15.56 L3.25,8.44 Q3.25,4.692 5.669,3.294 Q8.088,1.897 11.335,3.77 L13.585,5.071 Q13.854,5.226 13.935,5.526 Q14.015,5.826 13.859,6.095 Q13.704,6.364 13.404,6.444 Q13.104,6.525 12.835,6.369 L10.585,5.07 Q8.088,3.629 6.419,4.593 Q4.75,5.557 4.75,8.44 L4.75,15.56 Q4.75,18.442 6.418,19.407 Q8.085,20.371 10.576,18.93 L13.666,17.15 L16.755,15.37 Q19.252,13.929 19.252,12 Q19.252,10.071 16.755,8.63 Q16.486,8.474 16.406,8.174 Q16.325,7.874 16.48,7.605 Q16.636,7.336 16.936,7.256 Q17.236,7.175 17.505,7.33 Z"/>
</svg>

