<svg xmlns="http://www.w3.org/2000/svg" width="24" height="24" viewBox="0 0 24 24">
  <defs/>
  <path fill="#292D32" d="M17.49,9.6 L5.6,16.77 C4.9,17.19 4,16.69 4,15.87 L4,7.87 C4,4.38 7.77,2.2 10.8,3.94 L15.39,6.58 L17.48,7.78 C18.17,8.19 18.18,9.19 17.49,9.6 Z"/>
  <path fill="#292D32" d="M18.089,15.461 L14.039,17.801 L9.999,20.131 C8.549,20.961 6.909,20.791 5.719,19.951 C5.139,19.551 5.209,18.661 5.819,18.301 L18.529,10.681 C19.129,10.321 19.919,10.661 20.029,11.351 C20.279,12.901 19.639,14.571 18.089,15.461 Z"/>
</svg>

