<svg xmlns="http://www.w3.org/2000/svg" width="24" height="24" viewBox="0 0 24 24">
  <defs/>
  <path fill="#292D32" d="M11.971,22.75 C6.051,22.75 1.221,17.93 1.221,12 C1.221,6.07 6.051,1.25 11.971,1.25 C17.891,1.25 22.721,6.07 22.721,12 C22.721,17.93 17.901,22.75 11.971,22.75 Z M11.971,2.75 C6.871,2.75 2.721,6.9 2.721,12 C2.721,17.1 6.871,21.25 11.971,21.25 C17.071,21.25 21.221,17.1 21.221,12 C21.221,6.9 17.071,2.75 11.971,2.75 Z"/>
  <path fill="#292D32" d="M10.56,16.99 C10.12,16.99 9.7,16.88 9.33,16.67 C8.47,16.17 7.99,15.19 7.99,13.91 L7.99,10.56 C7.99,9.28 8.46,8.3 9.32,7.8 C10.18,7.3 11.27,7.38 12.38,8.02 L15.28,9.69 C16.39,10.33 17,11.23 17,12.23 C17,13.22 16.39,14.13 15.28,14.77 L12.38,16.44 C11.76,16.81 11.13,16.99 10.56,16.99 Z M10.56,8.97 C10.38,8.97 10.21,9.01 10.08,9.09 C9.7,9.31 9.49,9.84 9.49,10.56 L9.49,13.91 C9.49,14.62 9.7,15.16 10.08,15.37 C10.45,15.59 11.02,15.5 11.64,15.15 L14.54,13.48 C15.16,13.12 15.51,12.67 15.51,12.24 C15.51,11.81 15.15,11.36 14.54,11 L11.64,9.33 C11.24,9.09 10.87,8.97 10.56,8.97 Z"/>
</svg>

