<svg xmlns="http://www.w3.org/2000/svg" width="24" height="24" viewBox="0 0 24 24">
  <defs/>
  <path fill="#292D32" d="M21.851,10.251 C21.071,5.801 17.241,2.351 12.731,2.031 C6.631,1.591 1.591,6.641 2.031,12.731 C2.351,17.241 5.801,21.061 10.251,21.841 C11.401,22.041 12.521,22.041 13.591,21.861 C13.901,21.811 14.081,21.471 13.961,21.191 C13.661,20.511 13.501,19.761 13.501,18.991 C13.501,17.301 14.251,15.741 15.571,14.701 C16.541,13.921 17.761,13.491 19.001,13.491 C19.781,13.491 20.521,13.651 21.191,13.951 C21.481,14.081 21.811,13.891 21.871,13.581 C22.051,12.521 22.051,11.401 21.851,10.251 Z M14.501,13.571 L13.301,14.261 L12.101,14.951 C10.611,15.811 9.391,15.111 9.391,13.381 L9.391,12.001 L9.391,10.611 C9.391,8.891 10.611,8.181 12.101,9.041 L13.301,9.731 L14.501,10.421 C15.991,11.301 15.991,12.701 14.501,13.571 Z"/>
  <path fill="#292D32" d="M19,15 C18.06,15 17.19,15.33 16.5,15.88 C15.58,16.61 15,17.74 15,19 C15,19.75 15.21,20.46 15.58,21.06 C16.27,22.22 17.54,23 19,23 C20.01,23 20.93,22.63 21.63,22 C21.94,21.74 22.21,21.42 22.42,21.06 C22.79,20.46 23,19.75 23,19 C23,16.79 21.21,15 19,15 Z M20.5,19.73 L19.75,19.73 L19.75,20.51 C19.75,20.92 19.41,21.26 19,21.26 C18.59,21.26 18.25,20.92 18.25,20.51 L18.25,19.73 L17.5,19.73 C17.09,19.73 16.75,19.39 16.75,18.98 C16.75,18.57 17.09,18.23 17.5,18.23 L18.25,18.23 L18.25,17.52 C18.25,17.11 18.59,16.77 19,16.77 C19.41,16.77 19.75,17.11 19.75,17.52 L19.75,18.23 L20.5,18.23 C20.91,18.23 21.25,18.57 21.25,18.98 C21.25,19.39 20.91,19.73 20.5,19.73 Z"/>
</svg>

