<svg xmlns="http://www.w3.org/2000/svg" width="24" height="24" viewBox="0 0 24 24">
  <defs/>
  <path fill="#292D32" d="M11.969,2 C6.449,2 1.969,6.48 1.969,12 C1.969,17.52 6.449,22 11.969,22 C17.489,22 21.969,17.52 21.969,12 C21.969,6.48 17.499,2 11.969,2 Z M14.969,14.23 L12.069,15.9 C11.709,16.11 11.309,16.21 10.919,16.21 C10.519,16.21 10.129,16.11 9.769,15.9 C9.049,15.48 8.619,14.74 8.619,13.9 L8.619,10.55 C8.619,9.72 9.049,8.97 9.769,8.55 C10.489,8.13 11.349,8.13 12.079,8.55 L14.979,10.22 C15.699,10.64 16.129,11.38 16.129,12.22 C16.129,13.06 15.699,13.81 14.969,14.23 Z"/>
</svg>

