<svg xmlns="http://www.w3.org/2000/svg" width="24" height="24" viewBox="0 0 24 24">
  <defs/>
  <path fill="#292D32" d="M8.631,10.61 Q8.631,8.888 9.801,8.209 Q10.973,7.529 12.466,8.391 L13.665,9.08 L14.865,9.77 Q16.358,10.632 16.358,11.985 Q16.358,13.338 14.866,14.2 L13.665,14.89 L12.465,15.58 Q10.972,16.442 9.802,15.766 Q8.631,15.089 8.631,13.36 L8.631,10.61 Z M10.131,13.36 Q10.131,14.224 10.552,14.467 Q10.973,14.71 11.717,14.28 L12.917,13.59 L14.116,12.901 Q14.858,12.472 14.858,11.985 Q14.858,11.498 14.117,11.07 L12.917,10.38 L11.716,9.69 Q10.975,9.262 10.553,9.506 Q10.131,9.751 10.131,10.61 L10.131,13.36 Z"/>
  <path fill="#292D32" d="M19.54,20.571 L17.42,18.461 Q17.2,18.242 17.199,17.932 Q17.198,17.621 17.418,17.401 Q17.637,17.181 17.947,17.18 Q18.258,17.179 18.478,17.398 L20.598,19.508 Q20.818,19.727 20.819,20.038 Q20.82,20.349 20.601,20.569 Q20.382,20.789 20.071,20.79 Q19.76,20.791 19.54,20.571 Z"/>
  <path fill="#292D32" d="M20.579,18.492 L18.459,20.601 Q18.239,20.821 17.928,20.82 Q17.617,20.819 17.398,20.599 Q17.179,20.379 17.18,20.068 Q17.18,19.757 17.401,19.538 L19.521,17.428 Q19.741,17.209 20.051,17.21 Q20.362,17.211 20.581,17.431 Q20.8,17.651 20.8,17.962 Q20.799,18.272 20.579,18.492 Z"/>
  <path fill="#292D32" d="M23.75,19 Q23.75,20.328 23.063,21.446 Q22.685,22.091 22.122,22.566 Q20.8,23.75 19,23.75 Q16.516,23.75 15.131,21.723 Q15.018,21.586 14.936,21.444 Q14.25,20.326 14.25,19 Q14.25,16.708 16.034,15.292 Q17.342,14.25 19,14.25 Q20.474,14.25 21.707,15.103 Q23.75,16.518 23.75,19 Z M22.25,19 Q22.25,17.304 20.853,16.337 Q20.006,15.75 19,15.75 Q17.866,15.75 16.966,16.468 Q15.75,17.433 15.75,19 Q15.75,19.907 16.218,20.666 Q16.225,20.677 16.231,20.688 Q16.256,20.731 16.299,20.782 Q16.328,20.815 16.352,20.851 Q17.294,22.25 19,22.25 Q20.231,22.25 21.128,21.443 Q21.138,21.434 21.148,21.425 Q21.521,21.112 21.772,20.682 Q21.777,20.674 21.782,20.666 Q22.25,19.907 22.25,19 Z"/>
  <path fill="#292D32" d="M7.665,2.165 Q9.712,1.25 12.001,1.25 Q16.451,1.25 19.601,4.4 Q22.751,7.549 22.751,12 Q22.751,14.106 21.975,16.004 Q21.857,16.291 21.571,16.412 Q21.285,16.532 20.997,16.414 Q20.709,16.297 20.589,16.01 Q20.469,15.724 20.586,15.436 Q21.251,13.811 21.251,12 Q21.251,8.171 18.54,5.46 Q15.83,2.75 12.001,2.75 Q10.032,2.75 8.277,3.535 Q7.993,3.661 7.703,3.551 Q7.413,3.44 7.286,3.156 Q7.159,2.873 7.27,2.582 Q7.381,2.292 7.665,2.165 Z"/>
  <path fill="#292D32" d="M4.6,6.449 Q2.75,8.922 2.75,12 Q2.75,15.829 5.46,18.54 Q8.171,21.25 12,21.25 Q13.796,21.25 15.446,20.576 Q15.734,20.458 16.02,20.578 Q16.307,20.699 16.424,20.986 Q16.542,21.274 16.422,21.56 Q16.301,21.847 16.014,21.964 Q14.091,22.75 12,22.75 Q7.549,22.75 4.4,19.6 Q1.25,16.451 1.25,12 Q1.25,8.422 3.4,5.551 Q3.586,5.302 3.893,5.258 Q4.201,5.213 4.449,5.4 Q4.698,5.586 4.742,5.893 Q4.787,6.201 4.6,6.449 Z"/>
</svg>

