<svg xmlns="http://www.w3.org/2000/svg" width="24" height="24" viewBox="0 0 24 24">
  <defs/>
  <path fill="#292D32" opacity="0.4" d="M22,12 C22,13.31 21.75,14.57 21.28,15.72 C20.63,15.27 19.84,15 19,15 C18.06,15 17.19,15.33 16.5,15.88 C15.58,16.61 15,17.74 15,19 C15,19.75 15.21,20.46 15.58,21.06 C15.62,21.13 15.67,21.2 15.73,21.27 C14.58,21.74 13.32,22 12,22 C6.48,22 2,17.52 2,12 C2,6.48 6.48,2 12,2 C17.52,2 22,6.48 22,12 Z"/>
  <path fill="#292D32" d="M9.381,12 L9.381,10.61 C9.381,8.89 10.601,8.18 12.091,9.04 L13.291,9.73 L14.491,10.42 C15.981,11.28 15.981,12.69 14.491,13.55 L13.291,14.24 L12.091,14.93 C10.601,15.79 9.381,15.09 9.381,13.36 L9.381,12 Z"/>
  <path fill="#292D32" d="M19,15 C18.06,15 17.19,15.33 16.5,15.88 C15.58,16.61 15,17.74 15,19 C15,19.75 15.21,20.46 15.58,21.06 C16.27,22.22 17.54,23 19,23 C20.01,23 20.93,22.63 21.63,22 C21.94,21.74 22.21,21.42 22.42,21.06 C22.79,20.46 23,19.75 23,19 C23,16.79 21.21,15 19,15 Z M20.5,19.73 L19.75,19.73 L19.75,20.51 C19.75,20.92 19.41,21.26 19,21.26 C18.59,21.26 18.25,20.92 18.25,20.51 L18.25,19.73 L17.5,19.73 C17.09,19.73 16.75,19.39 16.75,18.98 C16.75,18.57 17.09,18.23 17.5,18.23 L18.25,18.23 L18.25,17.52 C18.25,17.11 18.59,16.77 19,16.77 C19.41,16.77 19.75,17.11 19.75,17.52 L19.75,18.23 L20.5,18.23 C20.91,18.23 21.25,18.57 21.25,18.98 C21.25,19.39 20.91,19.73 20.5,19.73 Z"/>
</svg>

