<svg xmlns="http://www.w3.org/2000/svg" width="24" height="24" viewBox="0 0 24 24">
  <defs/>
  <path fill="#292D32" opacity="0.4" d="M11.971,22 C17.494,22 21.971,17.523 21.971,12 C21.971,6.477 17.494,2 11.971,2 C6.448,2 1.971,6.477 1.971,12 C1.971,17.523 6.448,22 11.971,22 Z"/>
  <path fill="#292D32" d="M14.969,10.23 L12.069,8.56 C11.349,8.14 10.479,8.14 9.759,8.56 C9.039,8.98 8.609,9.72 8.609,10.56 L8.609,13.91 C8.609,14.74 9.039,15.49 9.759,15.91 C10.119,16.12 10.519,16.22 10.909,16.22 C11.309,16.22 11.699,16.12 12.059,15.91 L14.959,14.24 C15.679,13.82 16.109,13.08 16.109,12.24 C16.129,11.4 15.699,10.65 14.969,10.23 Z"/>
</svg>

