<svg xmlns="http://www.w3.org/2000/svg" width="24" height="24" viewBox="0 0 24 24">
  <defs/>
  <path fill="#292D32" d="M23.75,19 Q23.75,20.328 23.063,21.446 Q22.685,22.091 22.122,22.566 Q20.8,23.75 19,23.75 Q16.307,23.75 14.935,21.443 Q14.25,20.332 14.25,19 Q14.25,16.708 16.034,15.292 Q17.342,14.25 19,14.25 Q20.968,14.25 22.359,15.641 Q23.75,17.032 23.75,19 Z M22.25,19 Q22.25,17.653 21.298,16.702 Q20.347,15.75 19,15.75 Q17.866,15.75 16.966,16.468 Q15.75,17.433 15.75,19 Q15.75,19.907 16.225,20.677 Q17.16,22.25 19,22.25 Q20.231,22.25 21.128,21.443 Q21.138,21.434 21.148,21.425 Q21.521,21.112 21.772,20.682 Q21.777,20.674 21.782,20.666 Q22.25,19.907 22.25,19 Z"/>
  <path fill="#292D32" d="M20.49,19.73 L17.51,19.73 Q17.199,19.73 16.979,19.51 Q16.76,19.291 16.76,18.98 Q16.76,18.669 16.979,18.45 Q17.199,18.23 17.51,18.23 L20.49,18.23 Q20.8,18.23 21.02,18.45 Q21.24,18.669 21.24,18.98 Q21.24,19.291 21.02,19.51 Q20.8,19.73 20.49,19.73 Z"/>
  <path fill="#292D32" d="M19.75,17.52 L19.75,20.51 Q19.75,20.821 19.53,21.04 Q19.311,21.26 19,21.26 Q18.689,21.26 18.47,21.04 Q18.25,20.821 18.25,20.51 L18.25,17.52 Q18.25,17.209 18.47,16.99 Q18.689,16.77 19,16.77 Q19.311,16.77 19.53,16.99 Q19.75,17.209 19.75,17.52 Z"/>
  <path fill="#292D32" d="M7.665,2.165 Q9.712,1.25 12.001,1.25 Q16.451,1.25 19.601,4.4 Q22.751,7.549 22.751,12 Q22.751,14.106 21.975,16.004 Q21.857,16.291 21.571,16.412 Q21.285,16.532 20.997,16.414 Q20.709,16.297 20.589,16.01 Q20.469,15.724 20.586,15.436 Q21.251,13.811 21.251,12 Q21.251,8.171 18.54,5.46 Q15.83,2.75 12.001,2.75 Q10.032,2.75 8.277,3.535 Q7.993,3.661 7.703,3.551 Q7.413,3.44 7.286,3.156 Q7.159,2.873 7.27,2.582 Q7.381,2.292 7.665,2.165 Z"/>
  <path fill="#292D32" d="M4.6,6.449 Q2.75,8.922 2.75,12 Q2.75,15.829 5.46,18.54 Q8.171,21.25 12,21.25 Q13.796,21.25 15.446,20.576 Q15.734,20.458 16.02,20.578 Q16.307,20.699 16.424,20.986 Q16.542,21.274 16.422,21.56 Q16.301,21.847 16.014,21.964 Q14.091,22.75 12,22.75 Q7.549,22.75 4.4,19.6 Q1.25,16.451 1.25,12 Q1.25,8.422 3.4,5.551 Q3.586,5.302 3.893,5.258 Q4.201,5.213 4.449,5.4 Q4.698,5.586 4.742,5.893 Q4.787,6.201 4.6,6.449 Z"/>
</svg>

