<svg xmlns="http://www.w3.org/2000/svg" width="24" height="24" viewBox="0 0 24 24">
  <defs/>
  <path fill="#292D32" d="M18.54,18.54 Q21.253,15.827 21.253,11.996 Q21.253,8.166 18.541,5.461 Q18.321,5.242 18.32,4.931 Q18.32,4.62 18.539,4.401 Q18.759,4.181 19.069,4.18 Q19.38,4.18 19.6,4.399 Q22.753,7.544 22.753,11.996 Q22.753,16.448 19.601,19.601 Q19.381,19.82 19.07,19.82 Q18.76,19.82 18.54,19.601 Q18.32,19.381 18.32,19.07 Q18.32,18.76 18.54,18.54 Z"/>
  <path fill="#292D32" d="M5.461,5.461 Q2.748,8.173 2.748,12.004 Q2.748,15.834 5.46,18.539 Q5.68,18.759 5.681,19.069 Q5.681,19.38 5.462,19.6 Q5.242,19.82 4.932,19.82 Q4.621,19.821 4.401,19.601 Q1.248,16.456 1.248,12.004 Q1.248,7.552 4.4,4.4 Q4.62,4.18 4.931,4.18 Q5.241,4.18 5.461,4.4 Q5.681,4.62 5.681,4.93 Q5.681,5.241 5.461,5.461 Z"/>
  <path fill="#292D32" d="M8.944,20.701 Q10.416,21.21 11.999,21.21 Q13.625,21.196 15.054,20.701 Q15.348,20.6 15.627,20.736 Q15.906,20.871 16.008,21.165 Q16.11,21.459 15.974,21.738 Q15.838,22.017 15.544,22.119 Q13.883,22.693 11.999,22.71 Q10.164,22.71 8.454,22.119 Q8.161,22.017 8.025,21.738 Q7.889,21.459 7.99,21.165 Q8.092,20.871 8.371,20.736 Q8.651,20.6 8.944,20.701 Z"/>
  <path fill="#292D32" d="M8.454,1.881 Q10.164,1.29 11.999,1.29 Q13.835,1.29 15.544,1.881 Q15.838,1.983 15.974,2.262 Q16.11,2.542 16.008,2.835 Q15.906,3.129 15.627,3.265 Q15.348,3.4 15.054,3.299 Q13.583,2.79 11.999,2.79 Q10.416,2.79 8.944,3.299 Q8.651,3.4 8.371,3.265 Q8.092,3.129 7.99,2.835 Q7.889,2.542 8.025,2.262 Q8.161,1.983 8.454,1.881 Z"/>
  <path fill="#292D32" opacity="0.4" d="M7.99,10.33 Q7.99,8.337 9.325,7.566 Q10.66,6.794 12.386,7.791 L13.836,8.631 L15.286,9.471 Q17.01,10.467 17.01,12.01 Q17.01,13.553 15.285,14.55 L13.836,15.389 L12.386,16.229 Q10.66,17.226 9.325,16.454 Q7.99,15.683 7.99,13.69 L7.99,10.33 Z M9.49,13.69 Q9.49,14.817 10.076,15.156 Q10.66,15.494 11.634,14.931 L13.084,14.091 L14.535,13.251 Q15.51,12.687 15.51,12.01 Q15.51,11.333 14.534,10.769 L13.084,9.929 L11.635,9.09 Q10.66,8.526 10.076,8.864 Q9.49,9.203 9.49,10.33 L9.49,13.69 Z"/>
</svg>

