<svg xmlns="http://www.w3.org/2000/svg" width="24" height="24" viewBox="0 0 24 24">
  <defs/>
  <path fill="#292D32" d="M21.28,15.72 C20.63,15.27 19.84,15 19,15 C18.06,15 17.19,15.33 16.5,15.88 C15.58,16.61 15,17.74 15,19 C15,19.75 15.21,20.46 15.58,21.06 C15.62,21.13 15.67,21.2 15.73,21.27 C16.43,22.31 17.63,23 19,23 C20.01,23 20.93,22.63 21.63,22 C21.94,21.74 22.21,21.42 22.42,21.06 C22.79,20.46 23,19.75 23,19 C23,17.64 22.32,16.44 21.28,15.72 Z M20.6,20.58 C20.45,20.73 20.26,20.8 20.07,20.8 C19.88,20.8 19.69,20.73 19.54,20.58 L19.01,20.05 L18.46,20.6 C18.31,20.75 18.12,20.82 17.93,20.82 C17.74,20.82 17.55,20.75 17.4,20.6 C17.11,20.31 17.11,19.83 17.4,19.54 L17.95,18.99 L17.42,18.46 C17.13,18.17 17.13,17.69 17.42,17.4 C17.71,17.11 18.19,17.11 18.48,17.4 L19.01,17.93 L19.51,17.43 C19.8,17.14 20.28,17.14 20.57,17.43 C20.86,17.72 20.86,18.2 20.57,18.49 L20.07,18.99 L20.6,19.52 C20.89,19.81 20.89,20.28 20.6,20.58 Z"/>
  <path fill="#292D32" opacity="0.4" d="M22,12 C22,13.31 21.75,14.57 21.28,15.72 C20.63,15.27 19.84,15 19,15 C18.06,15 17.19,15.33 16.5,15.88 C15.58,16.61 15,17.74 15,19 C15,19.75 15.21,20.46 15.58,21.06 C15.62,21.13 15.67,21.2 15.73,21.27 C14.58,21.74 13.32,22 12,22 C6.48,22 2,17.52 2,12 C2,6.48 6.48,2 12,2 C17.52,2 22,6.48 22,12 Z"/>
  <path fill="#292D32" d="M9.381,12 L9.381,10.61 C9.381,8.89 10.601,8.18 12.091,9.04 L13.291,9.73 L14.491,10.42 C15.981,11.28 15.981,12.69 14.491,13.55 L13.291,14.24 L12.091,14.93 C10.601,15.79 9.381,15.09 9.381,13.36 L9.381,12 Z"/>
</svg>

