<svg xmlns="http://www.w3.org/2000/svg" width="24" height="24" viewBox="0 0 24 24">
  <defs/>
  <path fill="#292D32" opacity="0.4" d="M19.07,19.82 C18.88,19.82 18.69,19.75 18.54,19.6 C18.25,19.31 18.25,18.83 18.54,18.54 C22.15,14.93 22.15,9.06 18.54,5.46 C18.25,5.17 18.25,4.69 18.54,4.4 C18.83,4.11 19.31,4.11 19.6,4.4 C23.79,8.59 23.79,15.41 19.6,19.6 C19.45,19.75 19.26,19.82 19.07,19.82 Z"/>
  <path fill="#292D32" opacity="0.4" d="M4.93,19.82 C4.74,19.82 4.55,19.75 4.4,19.6 C0.21,15.41 0.21,8.59 4.4,4.4 C4.69,4.11 5.17,4.11 5.46,4.4 C5.75,4.69 5.75,5.17 5.46,5.46 C1.85,9.07 1.85,14.94 5.46,18.54 C5.75,18.83 5.75,19.31 5.46,19.6 C5.31,19.75 5.12,19.82 4.93,19.82 Z"/>
  <path fill="#292D32" opacity="0.4" d="M12.001,22.71 C10.751,22.7 9.561,22.5 8.451,22.11 C8.061,21.97 7.851,21.54 7.991,21.15 C8.131,20.76 8.551,20.55 8.951,20.69 C9.911,21.02 10.931,21.2 12.011,21.2 C13.081,21.2 14.111,21.02 15.061,20.69 C15.451,20.56 15.881,20.76 16.021,21.15 C16.161,21.54 15.951,21.97 15.561,22.11 C14.441,22.5 13.251,22.71 12.001,22.71 Z"/>
  <path fill="#292D32" opacity="0.4" d="M15.301,3.34 C15.221,3.34 15.131,3.33 15.051,3.3 C14.091,2.97 13.061,2.79 11.991,2.79 C10.921,2.79 9.901,2.97 8.941,3.3 C8.551,3.43 8.121,3.23 7.981,2.84 C7.841,2.45 8.051,2.02 8.441,1.88 C9.551,1.49 10.751,1.29 11.991,1.29 C13.231,1.29 14.431,1.49 15.541,1.88 C15.931,2.02 16.141,2.45 16.001,2.84 C15.901,3.15 15.611,3.34 15.301,3.34 Z"/>
  <path fill="#292D32" d="M8.74,12 L8.74,10.33 C8.74,8.25 10.21,7.4 12.01,8.44 L13.46,9.28 L14.91,10.12 C16.71,11.16 16.71,12.86 14.91,13.9 L13.46,14.74 L12.01,15.58 C10.21,16.62 8.74,15.77 8.74,13.69 L8.74,12 Z"/>
</svg>

