<svg xmlns="http://www.w3.org/2000/svg" width="24" height="24" viewBox="0 0 24 24">
  <defs/>
  <path fill="#292D32" d="M18.54,18.54 Q21.253,15.827 21.253,11.996 Q21.253,8.166 18.54,5.461 Q18.32,5.242 18.32,4.931 Q18.32,4.62 18.539,4.4 Q18.758,4.18 19.069,4.18 Q19.38,4.18 19.6,4.399 Q22.753,7.544 22.753,11.996 Q22.753,16.448 19.6,19.6 Q19.381,19.82 19.07,19.82 Q18.759,19.82 18.54,19.6 Q18.32,19.381 18.32,19.07 Q18.32,18.759 18.54,18.54 Z"/>
  <path fill="#292D32" d="M5.46,5.46 Q2.748,8.173 2.748,12.004 Q2.748,15.834 5.46,18.539 Q5.68,18.758 5.68,19.069 Q5.68,19.38 5.461,19.6 Q5.242,19.82 4.931,19.82 Q4.62,19.82 4.4,19.601 Q1.248,16.456 1.248,12.004 Q1.248,7.552 4.4,4.4 Q4.619,4.18 4.93,4.18 Q5.241,4.18 5.46,4.4 Q5.68,4.619 5.68,4.93 Q5.68,5.241 5.46,5.46 Z"/>
  <path fill="#292D32" d="M8.945,20.701 Q10.417,21.21 12,21.21 Q13.625,21.195 15.055,20.701 Q15.348,20.6 15.628,20.735 Q15.907,20.871 16.009,21.165 Q16.11,21.458 15.974,21.738 Q15.839,22.017 15.545,22.119 Q13.884,22.693 12,22.71 Q10.165,22.71 8.455,22.119 Q8.161,22.017 8.025,21.738 Q7.89,21.458 7.991,21.165 Q8.093,20.871 8.372,20.735 Q8.651,20.6 8.945,20.701 Z"/>
  <path fill="#292D32" d="M8.455,1.881 Q10.165,1.29 12,1.29 Q13.835,1.29 15.545,1.881 Q15.839,1.983 15.974,2.262 Q16.11,2.542 16.009,2.835 Q15.907,3.129 15.628,3.265 Q15.348,3.4 15.055,3.299 Q13.583,2.79 12,2.79 Q10.417,2.79 8.945,3.299 Q8.651,3.4 8.372,3.265 Q8.093,3.129 7.991,2.835 Q7.89,2.542 8.025,2.262 Q8.161,1.983 8.455,1.881 Z"/>
  <path fill="#292D32" d="M7.99,10.33 Q7.99,8.337 9.325,7.566 Q10.66,6.794 12.385,7.791 L13.836,8.631 L15.286,9.471 Q17.01,10.467 17.01,12.01 Q17.01,13.553 15.285,14.55 L13.836,15.389 L12.386,16.229 Q10.66,17.226 9.325,16.454 Q7.99,15.683 7.99,13.69 L7.99,10.33 Z M9.49,13.69 Q9.49,14.817 10.075,15.156 Q10.66,15.494 11.634,14.931 L13.084,14.091 L14.535,13.251 Q15.51,12.687 15.51,12.01 Q15.51,11.333 14.534,10.769 L13.084,9.929 L11.635,9.09 Q10.66,8.526 10.075,8.864 Q9.49,9.203 9.49,10.33 L9.49,13.69 Z"/>
</svg>

