<svg xmlns="http://www.w3.org/2000/svg" width="24" height="24" viewBox="0 0 24 24">
  <defs/>
  <path fill="#292D32" d="M19.07,19.82 C18.88,19.82 18.69,19.75 18.54,19.6 C18.25,19.31 18.25,18.83 18.54,18.54 C22.15,14.93 22.15,9.06 18.54,5.46 C18.25,5.17 18.25,4.69 18.54,4.4 C18.83,4.11 19.31,4.11 19.6,4.4 C23.79,8.59 23.79,15.41 19.6,19.6 C19.45,19.75 19.26,19.82 19.07,19.82 Z"/>
  <path fill="#292D32" d="M4.93,19.82 C4.74,19.82 4.55,19.75 4.4,19.6 C0.21,15.41 0.21,8.59 4.4,4.4 C4.69,4.11 5.17,4.11 5.46,4.4 C5.75,4.69 5.75,5.17 5.46,5.46 C1.85,9.07 1.85,14.94 5.46,18.54 C5.75,18.83 5.75,19.31 5.46,19.6 C5.31,19.75 5.12,19.82 4.93,19.82 Z"/>
  <path fill="#292D32" d="M11.999,22.71 C10.749,22.7 9.559,22.5 8.449,22.11 C8.059,21.97 7.849,21.54 7.989,21.15 C8.129,20.76 8.549,20.55 8.949,20.69 C9.909,21.02 10.929,21.2 12.009,21.2 C13.079,21.2 14.109,21.02 15.059,20.69 C15.449,20.56 15.879,20.76 16.019,21.15 C16.159,21.54 15.949,21.97 15.559,22.11 C14.439,22.5 13.249,22.71 11.999,22.71 Z"/>
  <path fill="#292D32" d="M15.301,3.34 C15.221,3.34 15.131,3.33 15.051,3.3 C14.091,2.97 13.061,2.79 11.991,2.79 C10.921,2.79 9.901,2.97 8.941,3.3 C8.551,3.43 8.121,3.23 7.981,2.84 C7.841,2.45 8.051,2.02 8.441,1.88 C9.551,1.49 10.751,1.29 11.991,1.29 C13.231,1.29 14.431,1.49 15.541,1.88 C15.931,2.02 16.141,2.45 16.001,2.84 C15.901,3.15 15.611,3.34 15.301,3.34 Z"/>
  <path fill="#292D32" d="M10.56,16.76 C10.12,16.76 9.7,16.65 9.33,16.44 C8.47,15.94 7.99,14.96 7.99,13.68 L7.99,10.33 C7.99,9.05 8.46,8.07 9.33,7.57 C10.19,7.07 11.28,7.15 12.39,7.79 L15.29,9.46 C16.4,10.1 17.01,11 17.01,12 C17.01,13 16.4,13.9 15.29,14.54 L12.39,16.21 C11.76,16.58 11.13,16.76 10.56,16.76 Z M10.56,8.74 C10.38,8.74 10.21,8.78 10.08,8.86 C9.71,9.08 9.49,9.61 9.49,10.32 L9.49,13.67 C9.49,14.38 9.7,14.92 10.08,15.13 C10.45,15.34 11.02,15.26 11.64,14.91 L14.54,13.24 C15.16,12.88 15.51,12.43 15.51,12 C15.51,11.57 15.16,11.12 14.54,10.76 L11.64,9.09 C11.24,8.86 10.87,8.74 10.56,8.74 Z"/>
</svg>

