<svg xmlns="http://www.w3.org/2000/svg" width="24" height="24" viewBox="0 0 24 24">
  <defs/>
  <path fill="white" d="M24,0 L0,0 L0,24 L24,24 L24,0 Z"/>
  <path fill="#292D32" d="M8,21.75 C7.98,21.75 7.96,21.75 7.95,21.75 C7.56,21.72 7.25,21.4 7.25,21 C7.25,20.43 7.32,19.9 7.47,19.41 L9.26,6.89 C9.32,6.48 9.7,6.2 10.11,6.25 C10.52,6.31 10.81,6.69 10.75,7.1 L9.33,17.01 C10.57,16.26 11.92,16.25 12,16.25 C15.72,16.25 18.75,13.22 18.75,9.5 C18.75,5.78 15.72,2.75 12,2.75 C8.28,2.75 5.25,5.78 5.25,9.5 C5.25,10.6 5.52,11.69 6.03,12.65 C6.22,13.02 6.08,13.47 5.72,13.66 C5.35,13.85 4.9,13.71 4.71,13.35 C4.09,12.17 3.76,10.84 3.76,9.5 C3.76,4.95 7.46,1.25 12.01,1.25 C16.56,1.25 20.26,4.95 20.26,9.5 C20.26,14.05 16.56,17.75 12.01,17.75 C11.92,17.75 9.8,17.79 9.04,19.5 C9.01,19.58 8.97,19.66 8.95,19.74 L8.76,21.1 C8.69,21.48 8.37,21.75 8,21.75 Z"/>
  <path fill="#292D32" opacity="0.16" d="M14,22 C13.74,22 13.48,21.89 13.29,21.71 C13.11,21.52 13,21.26 13,21 C13,20.87 13.03,20.74 13.08,20.62 C13.13,20.49 13.2,20.39 13.29,20.29 C13.57,20.01 14.01,19.92 14.38,20.08 C14.51,20.13 14.61,20.2 14.71,20.29 C14.8,20.39 14.87,20.49 14.92,20.62 C14.97,20.74 15,20.87 15,21 C15,21.26 14.89,21.52 14.71,21.71 C14.61,21.8 14.51,21.87 14.38,21.92 C14.26,21.97 14.13,22 14,22 Z"/>
</svg>

