<svg xmlns="http://www.w3.org/2000/svg" width="24" height="24" viewBox="0 0 24 24">
  <defs/>
  <path d="M9.5,2.5 L14.5,2.5 Q17.698,2.5 19.974,4.776 Q22.25,7.052 22.25,10.25 Q22.25,13.448 19.974,15.724 Q17.698,18 14.5,18 L3.5,18 Q3.189,18 2.97,17.78 Q2.75,17.561 2.75,17.25 Q2.75,16.939 2.97,16.72 Q3.189,16.5 3.5,16.5 L14.5,16.5 Q17.077,16.5 18.913,14.663 Q20.75,12.827 20.75,10.25 Q20.75,7.673 18.913,5.837 Q17.077,4 14.5,4 L9.5,4 Q9.189,4 8.97,3.78 Q8.75,3.561 8.75,3.25 Q8.75,2.939 8.97,2.72 Q9.189,2.5 9.5,2.5 Z"/>
  <path opacity="0.4" d="M3.17,6 L13.81,6 Q15.643,6 16.946,7.303 Q18.25,8.607 18.25,10.44 Q18.25,12.273 16.946,13.577 Q15.643,14.88 13.81,14.88 L8,14.88 Q7.689,14.88 7.47,14.66 Q7.25,14.441 7.25,14.13 Q7.25,13.819 7.47,13.6 Q7.689,13.38 8,13.38 L13.81,13.38 Q16.75,13.38 16.75,10.44 Q16.75,7.5 13.81,7.5 L3.17,7.5 Q2.859,7.5 2.64,7.28 Q2.42,7.061 2.42,6.75 Q2.42,6.439 2.64,6.22 Q2.859,6 3.17,6 Z"/>
  <path opacity="0.4" d="M8.5,11.5 L5.5,11.5 Q5.189,11.5 4.97,11.28 Q4.75,11.061 4.75,10.75 Q4.75,10.439 4.97,10.22 Q5.189,10 5.5,10 L8.5,10 Q8.811,10 9.03,10.22 Q9.25,10.439 9.25,10.75 Q9.25,11.061 9.03,11.28 Q8.811,11.5 8.5,11.5 Z"/>
  <path opacity="0.4" d="M6.5,21.5 L2.5,21.5 Q2.189,21.5 1.97,21.28 Q1.75,21.061 1.75,20.75 Q1.75,20.439 1.97,20.22 Q2.189,20 2.5,20 L6.5,20 Q6.811,20 7.03,20.22 Q7.25,20.439 7.25,20.75 Q7.25,21.061 7.03,21.28 Q6.811,21.5 6.5,21.5 Z"/>
</svg>

