<svg xmlns="http://www.w3.org/2000/svg" width="24" height="24" viewBox="0 0 24 24">
  <defs/>
  <path fill="white" d="M24,0 L0,0 L0,24 L24,24 L24,0 Z"/>
  <path fill="#292D32" d="M21.38,11.45 L16.88,8.85 C16.65,8.72 16.36,8.72 16.13,8.85 L11.63,11.45 C11.63,11.45 11.63,11.46 11.62,11.46 L7.5,13.84 L3.75,11.67 L3.75,7.33 L7.5,5.16 L11.25,7.33 L11.25,8.47 C11.25,8.88 11.59,9.22 12,9.22 C12.41,9.22 12.75,8.88 12.75,8.47 L12.75,6.9 C12.75,6.63 12.61,6.38 12.37,6.25 L7.87,3.65 C7.64,3.52 7.35,3.52 7.12,3.65 L2.62,6.25 C2.39,6.38 2.24,6.63 2.24,6.9 L2.24,12.1 C2.24,12.37 2.38,12.62 2.62,12.75 L7.12,15.35 C7.24,15.42 7.37,15.45 7.5,15.45 C7.63,15.45 7.76,15.42 7.88,15.35 L12.38,12.75 C12.38,12.75 12.38,12.74 12.39,12.74 L16.51,10.36 L20.26,12.53 L20.26,16.86 L16.51,19.03 L12.76,16.86 L12.76,15.64 C12.76,15.23 12.42,14.89 12.01,14.89 C11.6,14.89 11.26,15.23 11.26,15.64 L11.26,17.29 C11.26,17.56 11.4,17.81 11.64,17.94 L16.14,20.54 C16.26,20.61 16.39,20.64 16.52,20.64 C16.65,20.64 16.78,20.61 16.9,20.54 L21.4,17.94 C21.63,17.81 21.78,17.56 21.78,17.29 L21.78,12.09 C21.75,11.83 21.61,11.58 21.38,11.45 Z"/>
  <path fill="#292D32" opacity="0.4" d="M4.5,8.35 L4.5,10.66 C4.5,11.02 4.69,11.35 5,11.53 L7,12.68 C7.31,12.86 7.69,12.86 8,12.68 L10,11.53 C10.31,11.35 10.5,11.02 10.5,10.66 L10.5,8.35 C10.5,7.99 10.31,7.66 10,7.48 L8,6.33 C7.69,6.15 7.31,6.15 7,6.33 L5,7.48 C4.69,7.66 4.5,7.99 4.5,8.35 Z"/>
  <path fill="#292D32" opacity="0.4" d="M13.5,13.55 L13.5,15.86 C13.5,16.22 13.69,16.55 14,16.73 L16,17.88 C16.31,18.06 16.69,18.06 17,17.88 L19,16.73 C19.31,16.55 19.5,16.22 19.5,15.86 L19.5,13.55 C19.5,13.19 19.31,12.86 19,12.68 L17,11.53 C16.69,11.35 16.31,11.35 16,11.53 L14,12.68 C13.69,12.86 13.5,13.19 13.5,13.55 Z"/>
</svg>

