<svg xmlns="http://www.w3.org/2000/svg" width="24" height="24" viewBox="0 0 24 24">
  <defs/>
  <path fill="#17191C" d="M12.375,12.749 L7.875,15.349 Q7.5,15.566 7.125,15.349 L2.625,12.749 Q2.25,12.533 2.25,12.1 L2.25,6.9 Q2.25,6.467 2.625,6.251 L7.125,3.651 Q7.5,3.434 7.875,3.651 L12.375,6.251 Q12.75,6.467 12.75,6.9 L12.75,8.5 Q12.75,8.811 12.53,9.03 Q12.311,9.25 12,9.25 Q11.689,9.25 11.47,9.03 Q11.25,8.811 11.25,8.5 L11.25,7.333 L7.5,5.166 L3.75,7.333 L3.75,11.667 L7.5,13.834 L11.625,11.451 Q11.894,11.295 12.194,11.375 Q12.494,11.456 12.649,11.725 Q12.805,11.994 12.725,12.294 Q12.644,12.594 12.375,12.749 Z"/>
  <path fill="#17191C" d="M11.625,11.451 L16.125,8.851 Q16.5,8.634 16.875,8.851 L21.375,11.451 Q21.75,11.667 21.75,12.1 L21.75,17.3 Q21.75,17.733 21.375,17.949 L16.875,20.549 Q16.5,20.766 16.125,20.549 L11.625,17.949 Q11.25,17.733 11.25,17.3 L11.25,15.6 Q11.25,15.289 11.47,15.07 Q11.689,14.85 12,14.85 Q12.311,14.85 12.53,15.07 Q12.75,15.289 12.75,15.6 L12.75,16.867 L16.5,19.034 L20.25,16.867 L20.25,12.533 L16.5,10.366 L12.375,12.749 Q12.106,12.905 11.806,12.825 Q11.506,12.744 11.351,12.475 Q11.195,12.206 11.275,11.906 Q11.356,11.606 11.625,11.451 Z"/>
</svg>

