<svg xmlns="http://www.w3.org/2000/svg" width="24" height="24" viewBox="0 0 24 24">
  <defs/>
  <path fill="#17191C" d="M9.5,2.45 L14.5,2.45 Q17.676,2.45 19.953,4.705 Q22.25,6.979 22.25,10.2 Q22.25,13.376 19.995,15.653 Q17.721,17.95 14.5,17.95 L3.5,17.95 Q3.189,17.95 2.97,17.73 Q2.75,17.511 2.75,17.2 Q2.75,16.889 2.97,16.67 Q3.189,16.45 3.5,16.45 L14.5,16.45 Q17.095,16.45 18.93,14.597 Q20.75,12.759 20.75,10.2 Q20.75,7.605 18.897,5.77 Q17.059,3.95 14.5,3.95 L9.5,3.95 Q9.189,3.95 8.97,3.73 Q8.75,3.511 8.75,3.2 Q8.75,2.889 8.97,2.67 Q9.189,2.45 9.5,2.45 Z"/>
  <path fill="#17191C" d="M3.2,6.05 L13.8,6.05 Q15.611,6.05 16.931,7.37 Q18.25,8.689 18.25,10.5 Q18.25,12.311 16.931,13.63 Q15.611,14.95 13.8,14.95 L8,14.95 Q7.69,14.95 7.47,14.73 Q7.25,14.511 7.25,14.2 Q7.25,13.889 7.47,13.67 Q7.69,13.45 8,13.45 L13.8,13.45 Q16.75,13.45 16.75,10.5 Q16.75,7.55 13.8,7.55 L3.2,7.55 Q2.89,7.55 2.67,7.33 Q2.45,7.111 2.45,6.8 Q2.45,6.489 2.67,6.27 Q2.89,6.05 3.2,6.05 Z"/>
  <path fill="#17191C" d="M8.5,11.55 L5.5,11.55 Q5.189,11.55 4.97,11.33 Q4.75,11.111 4.75,10.8 Q4.75,10.489 4.97,10.27 Q5.189,10.05 5.5,10.05 L8.5,10.05 Q8.811,10.05 9.03,10.27 Q9.25,10.489 9.25,10.8 Q9.25,11.111 9.03,11.33 Q8.811,11.55 8.5,11.55 Z"/>
  <path fill="#17191C" d="M6.5,21.55 L2.5,21.55 Q2.189,21.55 1.97,21.33 Q1.75,21.111 1.75,20.8 Q1.75,20.489 1.97,20.27 Q2.189,20.05 2.5,20.05 L6.5,20.05 Q6.811,20.05 7.03,20.27 Q7.25,20.489 7.25,20.8 Q7.25,21.111 7.03,21.33 Q6.811,21.55 6.5,21.55 Z"/>
</svg>

