<svg xmlns="http://www.w3.org/2000/svg" width="24" height="24" viewBox="0 0 24 24">
  <defs/>
  <path d="M7.5,15.45 C7.37,15.45 7.24,15.42 7.12,15.35 L2.62,12.75 C2.39,12.62 2.24,12.37 2.24,12.1 L2.24,6.9 C2.24,6.63 2.38,6.38 2.62,6.25 L7.12,3.65 C7.35,3.52 7.64,3.52 7.87,3.65 L12.37,6.25 C12.6,6.38 12.75,6.63 12.75,6.9 L12.75,8.47 C12.75,8.88 12.41,9.22 12,9.22 C11.59,9.22 11.25,8.88 11.25,8.47 L11.25,7.33 L7.5,5.16 L3.75,7.33 L3.75,11.66 L7.5,13.83 L11.62,11.45 C11.98,11.24 12.44,11.37 12.64,11.72 C12.85,12.08 12.72,12.54 12.37,12.74 L7.87,15.34 C7.76,15.41 7.63,15.45 7.5,15.45 Z"/>
  <path d="M16.5,20.64 C16.37,20.64 16.24,20.61 16.12,20.54 L11.62,17.94 C11.39,17.81 11.24,17.56 11.24,17.29 L11.24,15.64 C11.24,15.23 11.58,14.89 11.99,14.89 C12.4,14.89 12.74,15.23 12.74,15.64 L12.74,16.86 L16.49,19.03 L20.24,16.86 L20.24,12.53 L16.49,10.36 L12.37,12.74 C12.01,12.95 11.55,12.82 11.35,12.47 C11.14,12.11 11.27,11.65 11.62,11.45 L16.12,8.85 C16.35,8.72 16.64,8.72 16.87,8.85 L21.37,11.45 C21.6,11.58 21.75,11.83 21.75,12.1 L21.75,17.3 C21.75,17.57 21.61,17.82 21.37,17.95 L16.87,20.55 C16.76,20.61 16.63,20.64 16.5,20.64 Z"/>
</svg>

