<svg xmlns="http://www.w3.org/2000/svg" width="24" height="24" viewBox="0 0 24 24">
  <defs/>
  <path d="M14.5,18 L3.5,18 C3.09,18 2.75,17.66 2.75,17.25 C2.75,16.84 3.09,16.5 3.5,16.5 L14.5,16.5 C17.95,16.5 20.75,13.7 20.75,10.25 C20.75,6.8 17.95,4 14.5,4 L9.5,4 C9.09,4 8.75,3.66 8.75,3.25 C8.75,2.84 9.09,2.5 9.5,2.5 L14.5,2.5 C18.77,2.5 22.25,5.98 22.25,10.25 C22.25,14.52 18.77,18 14.5,18 Z"/>
  <path d="M13.81,14.892 L8,14.892 C7.59,14.892 7.25,14.552 7.25,14.142 C7.25,13.732 7.59,13.392 8,13.392 L13.81,13.392 C15.43,13.392 16.75,12.072 16.75,10.452 C16.75,8.832 15.43,7.512 13.81,7.512 L3.17,7.512 C2.76,7.512 2.42,7.172 2.42,6.762 C2.42,6.352 2.76,6.012 3.17,6.012 L13.81,6.012 C16.26,6.012 18.25,8.002 18.25,10.452 C18.25,12.902 16.26,14.892 13.81,14.892 Z"/>
  <path d="M8.5,11.5 L5.5,11.5 C5.09,11.5 4.75,11.16 4.75,10.75 C4.75,10.34 5.09,10 5.5,10 L8.5,10 C8.91,10 9.25,10.34 9.25,10.75 C9.25,11.16 8.91,11.5 8.5,11.5 Z"/>
  <path d="M6.5,21.5 L2.5,21.5 C2.09,21.5 1.75,21.16 1.75,20.75 C1.75,20.34 2.09,20 2.5,20 L6.5,20 C6.91,20 7.25,20.34 7.25,20.75 C7.25,21.16 6.91,21.5 6.5,21.5 Z"/>
</svg>

