<svg xmlns="http://www.w3.org/2000/svg" width="24" height="24" viewBox="0 0 24 24">
  <defs/>
  <path d="M21.38,11.448 L16.88,8.848 C16.65,8.718 16.36,8.718 16.13,8.848 L11.63,11.448 C11.63,11.448 11.63,11.458 11.62,11.458 L7.5,13.838 L3.75,11.668 L3.75,7.338 L7.5,5.168 L11.25,7.338 L11.25,8.478 C11.25,8.888 11.59,9.228 12,9.228 C12.41,9.228 12.75,8.888 12.75,8.478 L12.75,6.898 C12.75,6.628 12.61,6.378 12.37,6.248 L7.87,3.648 C7.64,3.518 7.35,3.518 7.12,3.648 L2.62,6.248 C2.39,6.378 2.24,6.628 2.24,6.898 L2.24,12.098 C2.24,12.368 2.38,12.618 2.62,12.748 L7.12,15.348 C7.24,15.418 7.37,15.448 7.5,15.448 C7.63,15.448 7.76,15.418 7.88,15.348 L12.38,12.748 C12.38,12.748 12.38,12.738 12.39,12.738 L16.51,10.358 L20.26,12.528 L20.26,16.858 L16.51,19.028 L12.76,16.858 L12.76,15.638 C12.76,15.228 12.42,14.888 12.01,14.888 C11.6,14.888 11.26,15.228 11.26,15.638 L11.26,17.288 C11.26,17.558 11.4,17.808 11.64,17.938 L16.14,20.538 C16.26,20.608 16.39,20.638 16.52,20.638 C16.65,20.638 16.78,20.608 16.9,20.538 L21.4,17.938 C21.63,17.808 21.78,17.558 21.78,17.288 L21.78,12.088 C21.75,11.828 21.61,11.578 21.38,11.448 Z"/>
  <path d="M4.5,8.35 L4.5,10.66 C4.5,11.02 4.69,11.35 5,11.53 L7,12.68 C7.31,12.86 7.69,12.86 8,12.68 L10,11.53 C10.31,11.35 10.5,11.02 10.5,10.66 L10.5,8.35 C10.5,7.99 10.31,7.66 10,7.48 L8,6.33 C7.69,6.15 7.31,6.15 7,6.33 L5,7.48 C4.69,7.66 4.5,7.99 4.5,8.35 Z"/>
  <path d="M13.5,13.55 L13.5,15.86 C13.5,16.22 13.69,16.549 14,16.73 L16,17.88 C16.31,18.059 16.69,18.059 17,17.88 L19,16.73 C19.31,16.549 19.5,16.22 19.5,15.86 L19.5,13.55 C19.5,13.19 19.31,12.86 19,12.68 L17,11.53 C16.69,11.35 16.31,11.35 16,11.53 L14,12.68 C13.69,12.86 13.5,13.19 13.5,13.55 Z"/>
</svg>

