<svg xmlns="http://www.w3.org/2000/svg" width="24" height="24" viewBox="0 0 24 24">
  <defs/>
  <path d="M12.375,12.749 L7.875,15.349 Q7.5,15.566 7.125,15.349 L2.625,12.749 Q2.25,12.533 2.25,12.1 L2.25,6.9 Q2.25,6.467 2.625,6.25 L7.125,3.65 Q7.5,3.434 7.875,3.65 L12.375,6.25 Q12.75,6.467 12.75,6.9 L12.75,8.47 Q12.75,8.78 12.53,9 Q12.311,9.22 12,9.22 Q11.689,9.22 11.47,9 Q11.25,8.78 11.25,8.47 L11.25,7.333 L7.5,5.166 L3.75,7.333 L3.75,11.667 L7.5,13.834 L11.625,11.45 Q11.894,11.295 12.194,11.375 Q12.494,11.456 12.649,11.725 Q12.805,11.994 12.725,12.294 Q12.644,12.594 12.375,12.749 Z"/>
  <path opacity="0.4" d="M11.625,11.451 L16.125,8.851 Q16.5,8.634 16.875,8.851 L21.375,11.451 Q21.75,11.667 21.75,12.1 L21.75,17.29 Q21.75,17.723 21.375,17.939 L16.875,20.539 Q16.5,20.756 16.125,20.539 L11.625,17.939 Q11.25,17.723 11.25,17.29 L11.25,15.64 Q11.25,15.329 11.47,15.11 Q11.689,14.89 12,14.89 Q12.311,14.89 12.53,15.11 Q12.75,15.329 12.75,15.64 L12.75,16.857 L16.5,19.024 L20.25,16.857 L20.25,12.533 L16.5,10.366 L12.375,12.749 Q12.106,12.905 11.806,12.825 Q11.506,12.744 11.351,12.475 Q11.195,12.206 11.275,11.906 Q11.356,11.606 11.625,11.451 Z"/>
</svg>

