<svg xmlns="http://www.w3.org/2000/svg" width="24" height="24" viewBox="0 0 24 24">
  <defs/>
  <path fill="#292D32" d="M22,2.75 L2,2.75 C1.59,2.75 1.25,2.41 1.25,2 C1.25,1.59 1.59,1.25 2,1.25 L22,1.25 C22.41,1.25 22.75,1.59 22.75,2 C22.75,2.41 22.41,2.75 22,2.75 Z"/>
  <path fill="#292D32" d="M16.67,22.34 C16.54,22.6 16.27,22.75 16,22.75 C15.89,22.75 15.77,22.72 15.67,22.67 L12,20.84 L8.33,22.67 C8.23,22.72 8.11,22.75 8,22.75 C7.73,22.75 7.46,22.6 7.33,22.34 C7.14,21.96 7.29,21.51 7.67,21.33 L11.25,19.54 L11.25,17 L12.75,17 L12.75,19.54 L16.33,21.33 C16.71,21.51 16.86,21.96 16.67,22.34 Z"/>
  <path fill="#292D32" d="M3,2 L3,14.1 C3,16 4,17 5.9,17 L18.1,17 C20,17 21,16 21,14.1 L21,2 L3,2 Z M16.98,8.58 L13.83,11.21 C13.54,11.45 13.17,11.55 12.82,11.49 C12.46,11.43 12.15,11.21 11.96,10.89 L10.91,9.14 L7.98,11.58 C7.84,11.7 7.67,11.75 7.5,11.75 C7.29,11.75 7.07,11.66 6.92,11.48 C6.65,11.16 6.7,10.69 7.02,10.42 L10.17,7.79 C10.46,7.55 10.83,7.45 11.18,7.51 C11.54,7.57 11.85,7.79 12.04,8.11 L13.09,9.86 L16.02,7.42 C16.34,7.15 16.81,7.2 17.08,7.52 C17.34,7.84 17.3,8.31 16.98,8.58 Z"/>
</svg>

