<svg xmlns="http://www.w3.org/2000/svg" width="24" height="24" viewBox="0 0 24 24">
  <defs/>
  <path fill="#292D32" d="M5.9,17.75 Q2.259,17.75 2.24,14.1 L2.24,2 Q2.24,1.689 2.46,1.47 Q2.679,1.25 2.99,1.25 L20.99,1.25 Q21.301,1.25 21.52,1.47 Q21.74,1.689 21.74,2 L21.74,14.1 Q21.74,17.75 18.09,17.75 Z M5.9,16.25 L18.09,16.25 Q20.24,16.25 20.24,14.1 L20.24,2.75 L3.74,2.75 L3.74,14.1 Q3.751,16.25 5.9,16.25 Z"/>
  <path fill="#292D32" d="M2,1.25 L22,1.25 Q22.311,1.25 22.53,1.47 Q22.75,1.689 22.75,2 Q22.75,2.311 22.53,2.53 Q22.311,2.75 22,2.75 L2,2.75 Q1.689,2.75 1.47,2.53 Q1.25,2.311 1.25,2 Q1.25,1.689 1.47,1.47 Q1.689,1.25 2,1.25 Z"/>
  <path fill="#292D32" d="M7.665,21.329 L11.25,19.536 L11.25,17 Q11.25,16.689 11.47,16.47 Q11.689,16.25 12,16.25 Q12.311,16.25 12.53,16.47 Q12.75,16.689 12.75,17 L12.75,20 Q12.75,20.464 12.335,20.671 L8.335,22.671 Q8.058,22.81 7.763,22.712 Q7.468,22.613 7.329,22.335 Q7.19,22.058 7.288,21.763 Q7.387,21.468 7.665,21.329 Z"/>
  <path fill="#292D32" d="M15.665,22.671 L11.665,20.671 Q11.387,20.532 11.288,20.237 Q11.19,19.942 11.329,19.665 Q11.468,19.387 11.763,19.288 Q12.058,19.19 12.335,19.329 L16.335,21.329 Q16.613,21.468 16.712,21.763 Q16.81,22.058 16.671,22.335 Q16.532,22.613 16.237,22.712 Q15.942,22.81 15.665,22.671 Z"/>
  <path fill="#292D32" d="M7.019,10.424 L10.169,7.794 Q10.622,7.414 11.185,7.513 Q11.737,7.61 12.041,8.111 L13.095,9.866 L16.019,7.424 Q16.258,7.225 16.567,7.253 Q16.877,7.281 17.076,7.519 Q17.275,7.758 17.247,8.067 Q17.219,8.377 16.981,8.576 L13.819,11.216 Q13.368,11.576 12.822,11.485 Q12.264,11.392 11.957,10.886 L10.906,9.134 L7.981,11.576 Q7.742,11.775 7.433,11.747 Q7.123,11.719 6.924,11.481 Q6.725,11.242 6.753,10.933 Q6.781,10.623 7.019,10.424 Z"/>
</svg>

