<svg xmlns="http://www.w3.org/2000/svg" width="24" height="24" viewBox="0 0 24 24">
  <defs/>
  <path fill="#292D32" opacity="0.4" d="M21,2 L21,14.1 C21,16 20,17 18.1,17 L5.9,17 C4,17 3,16 3,14.1 L3,2 L21,2 Z"/>
  <path fill="#292D32" d="M22,2.75 L2,2.75 C1.59,2.75 1.25,2.41 1.25,2 C1.25,1.59 1.59,1.25 2,1.25 L22,1.25 C22.41,1.25 22.75,1.59 22.75,2 C22.75,2.41 22.41,2.75 22,2.75 Z"/>
  <path fill="#292D32" d="M16.67,22.34 C16.54,22.6 16.27,22.75 16,22.75 C15.89,22.75 15.77,22.72 15.67,22.67 L12,20.84 L8.33,22.67 C8.23,22.72 8.11,22.75 8,22.75 C7.73,22.75 7.46,22.6 7.33,22.34 C7.14,21.96 7.29,21.51 7.67,21.33 L11.25,19.54 L11.25,17 L12.75,17 L12.75,19.54 L16.33,21.33 C16.71,21.51 16.86,21.96 16.67,22.34 Z"/>
  <path fill="#292D32" d="M7.501,11.75 C7.291,11.75 7.071,11.66 6.921,11.48 C6.651,11.16 6.701,10.69 7.021,10.42 L10.171,7.79 C10.461,7.55 10.831,7.45 11.181,7.51 C11.541,7.57 11.851,7.79 12.041,8.11 L13.091,9.86 L16.021,7.42 C16.341,7.15 16.811,7.2 17.081,7.52 C17.351,7.84 17.301,8.31 16.981,8.58 L13.831,11.21 C13.541,11.45 13.171,11.55 12.821,11.49 C12.461,11.43 12.151,11.21 11.961,10.89 L10.911,9.14 L7.981,11.58 C7.841,11.69 7.671,11.75 7.501,11.75 Z"/>
</svg>

