<svg xmlns="http://www.w3.org/2000/svg" width="24" height="24" viewBox="0 0 24 24">
  <defs/>
  <path fill="#292D32" d="M20.991,7.22 L20.991,16.79 Q20.991,18.693 19.338,19.647 Q17.686,20.601 16.036,19.65 L11.887,17.26 L7.735,14.859 Q6.086,13.908 6.086,12.005 Q6.086,10.102 7.736,9.15 L11.886,6.751 L16.037,4.36 Q17.687,3.409 19.338,4.359 Q20.991,5.31 20.991,7.22 Z M19.491,7.22 Q19.491,6.178 18.589,5.659 Q17.688,5.14 16.785,5.66 L12.636,8.049 L8.485,10.45 Q7.586,10.968 7.586,12.005 Q7.586,13.042 8.486,13.561 L12.635,15.96 L16.786,18.35 Q17.686,18.869 18.589,18.348 Q19.491,17.827 19.491,16.79 Z"/>
  <path fill="#292D32" opacity="0.4" d="M3.01,18.18 L3.01,5.82 Q3.01,5.509 3.229,5.289 Q3.449,5.07 3.76,5.07 Q4.07,5.07 4.29,5.289 Q4.51,5.509 4.51,5.82 L4.51,18.18 Q4.51,18.49 4.29,18.71 Q4.07,18.93 3.76,18.93 Q3.449,18.93 3.229,18.71 Q3.01,18.49 3.01,18.18 Z"/>
</svg>

