<svg xmlns="http://www.w3.org/2000/svg" width="24" height="24" viewBox="0 0 24 24">
  <defs/>
  <path fill="#292D32" d="M11.896,6.74 L16.046,4.35 Q17.697,3.399 19.347,4.349 Q21.001,5.3 21.001,7.21 L21.001,16.78 Q21.001,18.683 19.348,19.637 Q17.696,20.591 16.046,19.64 L11.896,17.25 L7.745,14.849 Q6.096,13.898 6.096,11.995 Q6.096,10.092 7.746,9.14 Q8.015,8.985 8.315,9.066 Q8.615,9.146 8.77,9.415 Q8.926,9.685 8.845,9.985 Q8.764,10.285 8.495,10.44 Q7.596,10.958 7.596,11.995 Q7.596,13.032 8.496,13.551 L12.645,15.95 L16.795,18.34 Q17.695,18.859 18.598,18.338 Q19.501,17.817 19.501,16.78 L19.501,7.21 Q19.501,6.168 18.599,5.649 Q17.697,5.13 16.795,5.65 L12.645,8.04 Q12.376,8.195 12.076,8.114 Q11.776,8.034 11.621,7.764 Q11.466,7.495 11.546,7.195 Q11.627,6.895 11.896,6.74 Z"/>
  <path fill="#292D32" d="M3.01,18.18 L3.01,17 Q3.01,16.689 3.229,16.47 Q3.449,16.25 3.76,16.25 Q4.07,16.25 4.29,16.47 Q4.51,16.689 4.51,17 L4.51,18.18 Q4.51,18.491 4.29,18.71 Q4.07,18.93 3.76,18.93 Q3.449,18.93 3.229,18.71 Q3.01,18.491 3.01,18.18 Z"/>
  <path fill="#292D32" d="M3.01,14 L3.01,5.82 Q3.01,5.509 3.229,5.29 Q3.449,5.07 3.76,5.07 Q4.07,5.07 4.29,5.29 Q4.51,5.509 4.51,5.82 L4.51,14 Q4.51,14.311 4.29,14.53 Q4.07,14.75 3.76,14.75 Q3.449,14.75 3.229,14.53 Q3.01,14.311 3.01,14 Z"/>
</svg>

