<svg xmlns="http://www.w3.org/2000/svg" width="24" height="24" viewBox="0 0 24 24">
  <defs/>
  <path fill="#292D32" d="M20.99,7.22 L20.99,16.79 Q20.99,18.693 19.338,19.647 Q17.685,20.601 16.035,19.65 L11.886,17.26 L7.734,14.859 Q6.085,13.908 6.085,12.005 Q6.085,10.102 7.735,9.15 L11.885,6.751 L16.036,4.36 Q17.686,3.409 19.337,4.359 Q20.99,5.31 20.99,7.22 Z M19.49,7.22 Q19.49,6.178 18.588,5.659 Q17.687,5.14 16.784,5.66 L12.635,8.049 L8.485,10.45 Q7.585,10.968 7.585,12.005 Q7.585,13.042 8.485,13.561 L12.634,15.96 L16.785,18.35 Q17.685,18.869 18.588,18.348 Q19.49,17.827 19.49,16.79 Z"/>
  <path fill="#292D32" d="M3.01,18.18 L3.01,5.82 Q3.01,5.509 3.23,5.29 Q3.449,5.07 3.76,5.07 Q4.071,5.07 4.29,5.29 Q4.51,5.509 4.51,5.82 L4.51,18.18 Q4.51,18.491 4.29,18.71 Q4.071,18.93 3.76,18.93 Q3.449,18.93 3.23,18.71 Q3.01,18.491 3.01,18.18 Z"/>
</svg>

