<svg xmlns="http://www.w3.org/2000/svg" width="24" height="24" viewBox="0 0 24 24">
  <defs/>
  <path fill="#292D32" opacity="0.4" d="M20.241,7.22 L20.241,16.79 C20.241,18.75 18.111,19.98 16.411,19 L12.261,16.61 L8.111,14.21 C6.411,13.23 6.411,10.78 8.111,9.8 L12.261,7.4 L16.411,5.01 C18.111,4.03 20.241,5.25 20.241,7.22 Z"/>
  <path fill="#292D32" d="M3.76,18.93 C3.35,18.93 3.01,18.59 3.01,18.18 L3.01,5.82 C3.01,5.41 3.35,5.07 3.76,5.07 C4.17,5.07 4.51,5.41 4.51,5.82 L4.51,18.18 C4.51,18.59 4.17,18.93 3.76,18.93 Z"/>
</svg>

