<svg xmlns="http://www.w3.org/2000/svg" width="24" height="24" viewBox="0 0 24 24">
  <defs/>
  <path fill="#292D32" opacity="0.4" d="M7.25,7.75 Q6.939,7.75 6.72,7.53 Q6.5,7.311 6.5,7 L6.5,5 Q6.5,1.25 10.25,1.25 L13.75,1.25 Q17.5,1.25 17.5,5 L17.5,7 Q17.5,7.311 17.28,7.53 Q17.061,7.75 16.75,7.75 Z M8,6.25 L16,6.25 L16,5 Q16,2.75 13.75,2.75 L10.25,2.75 Q8,2.75 8,5 L8,6.25 Z"/>
  <path fill="#292D32" d="M12.97,14.25 L16,14.25 Q16.311,14.25 16.531,14.47 Q16.75,14.689 16.75,15 L16.75,19 Q16.75,22.75 13,22.75 L11,22.75 Q7.833,22.75 7.332,19.994 Q7.277,19.689 7.454,19.433 Q7.63,19.178 7.936,19.122 Q8.242,19.067 8.497,19.243 Q8.753,19.42 8.808,19.726 Q9.085,21.25 11,21.25 L13,21.25 Q14.19,21.25 14.72,20.72 Q15.25,20.189 15.25,19 L15.25,15.75 L12.97,15.75 Q12.66,15.75 12.44,15.53 Q12.22,15.311 12.22,15 Q12.22,14.689 12.44,14.47 Q12.66,14.25 12.97,14.25 Z"/>
  <path fill="#292D32" d="M6,18.75 Q2.25,18.75 2.25,15 L2.25,10 Q2.25,6.25 6,6.25 L16.59,6.25 Q16.901,6.25 17.12,6.47 Q17.34,6.689 17.34,7 Q17.34,7.311 17.12,7.53 Q16.901,7.75 16.59,7.75 L6,7.75 Q3.75,7.75 3.75,10 L3.75,15 Q3.75,17.25 6,17.25 Q6.311,17.25 6.53,17.47 Q6.75,17.689 6.75,18 Q6.75,18.311 6.53,18.53 Q6.311,18.75 6,18.75 Z"/>
  <path fill="#292D32" d="M20.398,6.904 Q21.75,7.845 21.75,10 L21.75,15 Q21.75,18.75 18,18.75 L16,18.75 Q15.689,18.75 15.47,18.53 Q15.25,18.311 15.25,18 L15.25,15.75 L13,15.75 Q12.689,15.75 12.47,15.53 Q12.25,15.311 12.25,15 Q12.25,14.689 12.47,14.47 Q12.689,14.25 13,14.25 L16,14.25 Q16.311,14.25 16.53,14.47 Q16.75,14.689 16.75,15 L16.75,17.25 L18,17.25 Q20.25,17.25 20.25,15 L20.25,10 Q20.25,8.628 19.542,8.136 Q19.287,7.958 19.232,7.653 Q19.177,7.347 19.354,7.092 Q19.532,6.837 19.837,6.782 Q20.143,6.727 20.398,6.904 Z"/>
  <path fill="#292D32" d="M17,15.75 L15.79,15.75 Q15.479,15.75 15.26,15.53 Q15.04,15.311 15.04,15 Q15.04,14.689 15.26,14.47 Q15.479,14.25 15.79,14.25 L17,14.25 Q17.311,14.25 17.53,14.47 Q17.75,14.689 17.75,15 Q17.75,15.311 17.53,15.53 Q17.311,15.75 17,15.75 Z"/>
  <path fill="#292D32" opacity="0.4" d="M7,10.25 L9,10.25 Q9.311,10.25 9.53,10.47 Q9.75,10.689 9.75,11 Q9.75,11.311 9.53,11.53 Q9.311,11.75 9,11.75 L7,11.75 Q6.689,11.75 6.47,11.53 Q6.25,11.311 6.25,11 Q6.25,10.689 6.47,10.47 Q6.689,10.25 7,10.25 Z"/>
  <path fill="#292D32" d="M22.53,2.53 L2.53,22.53 Q2.311,22.75 2,22.75 Q1.689,22.75 1.47,22.53 Q1.25,22.311 1.25,22 Q1.25,21.689 1.47,21.47 L21.47,1.47 Q21.689,1.25 22,1.25 Q22.311,1.25 22.53,1.47 Q22.75,1.689 22.75,2 Q22.75,2.311 22.53,2.53 Z"/>
</svg>

