<svg xmlns="http://www.w3.org/2000/svg" width="24" height="24" viewBox="0 0 24 24">
  <defs/>
  <path fill="#292D32" d="M6,7 C4,7 3,8 3,10 L3,15 C3,17 4,18 6,18 L8,16 L8,15 L9,15 L17,7 L6,7 Z M7,11.75 C6.59,11.75 6.25,11.41 6.25,11 C6.25,10.59 6.59,10.25 7,10.25 L9,10.25 C9.41,10.25 9.75,10.59 9.75,11 C9.75,11.41 9.41,11.75 9,11.75 L7,11.75 Z"/>
  <path fill="#292D32" d="M9,15 L8,16 L8,15 L9,15 Z"/>
  <path fill="#292D32" d="M17,5 L17,7 L7,7 L7,5 C7,3.34 8.34,2 10,2 L14,2 C15.66,2 17,3.34 17,5 Z"/>
  <path fill="#292D32" d="M22.529,1.471 C22.239,1.181 21.759,1.181 21.47,1.471 L1.469,21.471 C1.179,21.761 1.179,22.241 1.469,22.531 C1.619,22.681 1.809,22.751 1.999,22.751 C2.189,22.751 2.379,22.681 2.529,22.531 L22.529,2.531 C22.82,2.241 22.82,1.761 22.529,1.471 Z"/>
  <path fill="#292D32" d="M17,14.25 L12.957,14.25 C12.825,14.25 12.697,14.303 12.604,14.396 L12,15 L11.25,15.75 L8.8,18.2 C8.16,18.84 8.03,20 8.55,20.74 C9.09,21.5 9.99,22 11,22 L13,22 C14.66,22 16,20.66 16,19 L16,15.75 L17,15.75 C17.41,15.75 17.75,15.41 17.75,15 C17.75,14.59 17.41,14.25 17,14.25 Z"/>
  <path fill="#292D32" d="M19.02,7.979 L15.46,11.539 C14.83,12.169 15.28,13.249 16.17,13.249 L16.91,13.249 C17.78,13.249 18.59,13.839 18.73,14.699 C18.881,15.614 18.313,16.438 17.493,16.679 C17.228,16.756 17,16.973 17,17.249 L17,17.499 C17,17.775 17.224,17.999 17.5,17.999 L18,17.999 C19.66,17.999 21,16.659 21,14.999 L21,9.999 C21,9.209 20.84,8.569 20.53,8.089 C20.19,7.579 19.45,7.549 19.02,7.979 Z"/>
</svg>

