<svg xmlns="http://www.w3.org/2000/svg" width="24" height="24" viewBox="0 0 24 24">
  <defs/>
  <path fill="#292D32" d="M16,15 L16,19 C16,20.66 14.66,22 13,22 L11,22 C9.34,22 8,20.66 8,19 L8,15 L16,15 Z"/>
  <path fill="#292D32" d="M7,7 L7,5 C7,3.34 8.34,2 10,2 L14,2 C15.66,2 17,3.34 17,5 L17,7 L7,7 Z"/>
  <path fill="#292D32" opacity="0.4" d="M18,7 L6,7 C4,7 3,8 3,10 L3,15 C3,17 4,18 6,18 L8,18 L8,15 L16,15 L16,18 L18,18 C20,18 21,17 21,15 L21,10 C21,8 20,7 18,7 Z M10,11.75 L7,11.75 C6.59,11.75 6.25,11.41 6.25,11 C6.25,10.59 6.59,10.25 7,10.25 L10,10.25 C10.41,10.25 10.75,10.59 10.75,11 C10.75,11.41 10.41,11.75 10,11.75 Z"/>
  <path fill="#292D32" d="M10.75,11 C10.75,11.41 10.41,11.75 10,11.75 L7,11.75 C6.59,11.75 6.25,11.41 6.25,11 C6.25,10.59 6.59,10.25 7,10.25 L10,10.25 C10.41,10.25 10.75,10.59 10.75,11 Z"/>
  <path fill="#292D32" d="M17,15.75 L7,15.75 C6.59,15.75 6.25,15.41 6.25,15 C6.25,14.59 6.59,14.25 7,14.25 L17,14.25 C17.41,14.25 17.75,14.59 17.75,15 C17.75,15.41 17.41,15.75 17,15.75 Z"/>
</svg>

