<svg xmlns="http://www.w3.org/2000/svg" width="24" height="24" viewBox="0 0 24 24">
  <defs/>
  <path fill="#292D32" opacity="0.4" d="M6,7 C4,7 3,8 3,10 L3,15 C3,17 4,18 6,18 L8,16 L8,15 L9,15 L17,7 L6,7 Z M7,11.75 C6.59,11.75 6.25,11.41 6.25,11 C6.25,10.59 6.59,10.25 7,10.25 L9,10.25 C9.41,10.25 9.75,10.59 9.75,11 C9.75,11.41 9.41,11.75 9,11.75 L7,11.75 Z"/>
  <path fill="#292D32" d="M9,15 L8,16 L8,15 L9,15 Z"/>
  <path fill="#292D32" d="M17,5 L17,7 L7,7 L7,5 C7,3.34 8.34,2 10,2 L14,2 C15.66,2 17,3.34 17,5 Z"/>
  <path fill="#292D32" d="M22.53,1.47 C22.823,1.763 22.823,2.237 22.53,2.53 L2.53,22.53 C2.237,22.823 1.763,22.823 1.47,22.53 C1.177,22.237 1.177,21.763 1.47,21.47 L21.47,1.47 C21.763,1.177 22.237,1.177 22.53,1.47 Z"/>
  <path fill="#292D32" d="M9.75,11 C9.75,11.41 9.41,11.75 9,11.75 L7,11.75 C6.59,11.75 6.25,11.41 6.25,11 C6.25,10.59 6.59,10.25 7,10.25 L9,10.25 C9.41,10.25 9.75,10.59 9.75,11 Z"/>
  <path fill="#292D32" d="M17.75,15 C17.75,15.41 17.41,15.75 17,15.75 L11.25,15.75 L12.75,14.25 L17,14.25 C17.41,14.25 17.75,14.59 17.75,15 Z"/>
  <path fill="#292D32" d="M16,15 L16,19 C16,20.66 14.66,22 13,22 L11,22 C9.34,22 8,20.66 8,19 L12,15 L16,15 Z"/>
  <path fill="#292D32" opacity="0.4" d="M21,10 L21,15 C21,17 20,18 18,18 L16,18 L16,15 L12,15 L19.67,7.33 C20.56,7.78 21,8.67 21,10 Z"/>
</svg>

