<svg xmlns="http://www.w3.org/2000/svg" width="24" height="24" viewBox="0 0 24 24">
  <defs/>
  <path fill="#292D32" d="M16.75,7.75 L7.25,7.75 C6.84,7.75 6.5,7.41 6.5,7 L6.5,5 C6.5,2.44 7.69,1.25 10.25,1.25 L13.75,1.25 C16.31,1.25 17.5,2.44 17.5,5 L17.5,7 C17.5,7.41 17.16,7.75 16.75,7.75 Z M8,6.25 L16,6.25 L16,5 C16,3.3 15.45,2.75 13.75,2.75 L10.25,2.75 C8.55,2.75 8,3.3 8,5 L8,6.25 Z"/>
  <path fill="#292D32" d="M13,22.75 L11,22.75 C8.96,22.75 7.66,21.77 7.33,19.99 C7.26,19.58 7.52,19.19 7.93,19.12 C8.33,19.04 8.73,19.31 8.8,19.72 C8.93,20.43 9.3,21.25 10.99,21.25 L12.99,21.25 C14.57,21.25 15.24,20.58 15.24,19 L15.24,15.75 L12.96,15.75 C12.55,15.75 12.21,15.41 12.21,15 C12.21,14.59 12.55,14.25 12.96,14.25 L16,14.25 C16.41,14.25 16.75,14.59 16.75,15 L16.75,19 C16.75,21.42 15.42,22.75 13,22.75 Z"/>
  <path fill="#292D32" d="M6,18.75 C3.58,18.75 2.25,17.42 2.25,15 L2.25,10 C2.25,7.58 3.58,6.25 6,6.25 L16.59,6.25 C17,6.25 17.34,6.59 17.34,7 C17.34,7.41 17,7.75 16.59,7.75 L6,7.75 C4.42,7.75 3.75,8.42 3.75,10 L3.75,15 C3.75,16.58 4.42,17.25 6,17.25 C6.41,17.25 6.75,17.59 6.75,18 C6.75,18.41 6.41,18.75 6,18.75 Z"/>
  <path fill="#292D32" d="M18,18.75 L16,18.75 C15.59,18.75 15.25,18.41 15.25,18 L15.25,15.75 L13,15.75 C12.59,15.75 12.25,15.41 12.25,15 C12.25,14.59 12.59,14.25 13,14.25 L16,14.25 C16.41,14.25 16.75,14.59 16.75,15 L16.75,17.25 L18,17.25 C19.58,17.25 20.25,16.58 20.25,15 L20.25,10 C20.25,9.08 20.02,8.47 19.54,8.13 C19.2,7.89 19.12,7.42 19.36,7.09 C19.6,6.75 20.07,6.67 20.41,6.91 C21.3,7.54 21.75,8.58 21.75,10 L21.75,15 C21.75,17.42 20.42,18.75 18,18.75 Z"/>
  <path fill="#292D32" d="M17,15.75 L15.79,15.75 C15.38,15.75 15.04,15.41 15.04,15 C15.04,14.59 15.38,14.25 15.79,14.25 L17,14.25 C17.41,14.25 17.75,14.59 17.75,15 C17.75,15.41 17.41,15.75 17,15.75 Z"/>
  <path fill="#292D32" d="M9,11.75 L7,11.75 C6.59,11.75 6.25,11.41 6.25,11 C6.25,10.59 6.59,10.25 7,10.25 L9,10.25 C9.41,10.25 9.75,10.59 9.75,11 C9.75,11.41 9.41,11.75 9,11.75 Z"/>
  <path fill="#292D32" d="M2,22.75 C1.81,22.75 1.62,22.68 1.47,22.53 C1.18,22.24 1.18,21.76 1.47,21.47 L21.47,1.47 C21.76,1.18 22.24,1.18 22.53,1.47 C22.82,1.76 22.82,2.24 22.53,2.53 L2.53,22.53 C2.38,22.68 2.19,22.75 2,22.75 Z"/>
</svg>

