<svg xmlns="http://www.w3.org/2000/svg" width="24" height="24" viewBox="0 0 24 24">
  <defs/>
  <path fill="#292D32" d="M7.25,7.75 Q6.939,7.75 6.72,7.53 Q6.5,7.311 6.5,7 L6.5,5 Q6.5,1.25 10.25,1.25 L13.75,1.25 Q17.5,1.25 17.5,5 L17.5,7 Q17.5,7.311 17.28,7.53 Q17.061,7.75 16.75,7.75 Z M8,6.25 L16,6.25 L16,5 Q16,2.75 13.75,2.75 L10.25,2.75 Q8,2.75 8,5 L8,6.25 Z"/>
  <path fill="#292D32" d="M16.75,15 L16.75,19 Q16.75,22.75 13,22.75 L11,22.75 Q7.25,22.75 7.25,19 L7.25,15 Q7.25,14.689 7.47,14.47 Q7.689,14.25 8,14.25 L16,14.25 Q16.311,14.25 16.53,14.47 Q16.75,14.689 16.75,15 Z M15.25,15.75 L8.75,15.75 L8.75,19 Q8.75,21.25 11,21.25 L13,21.25 Q15.25,21.25 15.25,19 L15.25,15.75 Z"/>
  <path fill="#292D32" d="M21.75,10 L21.75,15 Q21.75,18.75 18,18.75 L16,18.75 Q15.689,18.75 15.47,18.53 Q15.25,18.311 15.25,18 L15.25,15.75 L8.75,15.75 L8.75,18 Q8.75,18.311 8.53,18.53 Q8.311,18.75 8,18.75 L6,18.75 Q2.25,18.75 2.25,15 L2.25,10 Q2.25,6.25 6,6.25 L18,6.25 Q21.75,6.25 21.75,10 Z M20.25,10 Q20.25,7.75 18,7.75 L6,7.75 Q3.75,7.75 3.75,10 L3.75,15 Q3.75,17.25 6,17.25 L7.25,17.25 L7.25,15 Q7.25,14.689 7.47,14.47 Q7.689,14.25 8,14.25 L16,14.25 Q16.311,14.25 16.53,14.47 Q16.75,14.689 16.75,15 L16.75,17.25 L18,17.25 Q20.25,17.25 20.25,15 Z"/>
  <path fill="#292D32" d="M17,15.75 L7,15.75 Q6.689,15.75 6.47,15.53 Q6.25,15.311 6.25,15 Q6.25,14.689 6.47,14.47 Q6.689,14.25 7,14.25 L17,14.25 Q17.311,14.25 17.53,14.47 Q17.75,14.689 17.75,15 Q17.75,15.311 17.53,15.53 Q17.311,15.75 17,15.75 Z"/>
  <path fill="#292D32" d="M7,10.25 L10,10.25 Q10.311,10.25 10.53,10.47 Q10.75,10.689 10.75,11 Q10.75,11.311 10.53,11.53 Q10.311,11.75 10,11.75 L7,11.75 Q6.689,11.75 6.47,11.53 Q6.25,11.311 6.25,11 Q6.25,10.689 6.47,10.47 Q6.689,10.25 7,10.25 Z"/>
</svg>

