<svg xmlns="http://www.w3.org/2000/svg" width="24" height="24" viewBox="0 0 24 24">
  <defs/>
  <path fill="#292D32" d="M7,5 C7,3.34 8.34,2 10,2 L14,2 C15.66,2 17,3.34 17,5 C17,5.55 16.55,6 16,6 L8,6 C7.45,6 7,5.55 7,5 Z"/>
  <path fill="#292D32" d="M17.75,15 C17.75,15.41 17.41,15.75 17,15.75 L16,15.75 L16,19 C16,20.66 14.66,22 13,22 L11,22 C9.34,22 8,20.66 8,19 L8,15.75 L7,15.75 C6.59,15.75 6.25,15.41 6.25,15 C6.25,14.59 6.59,14.25 7,14.25 L17,14.25 C17.41,14.25 17.75,14.59 17.75,15 Z"/>
  <path fill="#292D32" d="M18,7 L6,7 C4,7 3,8 3,10 L3,15 C3,17 4,18 6,18 L6.375,18 C6.72,18 7,17.72 7,17.375 C7,17.03 6.711,16.76 6.388,16.638 C5.726,16.388 5.25,15.745 5.25,15 C5.25,14.04 6.04,13.25 7,13.25 L17,13.25 C17.96,13.25 18.75,14.04 18.75,15 C18.75,15.745 18.274,16.388 17.612,16.638 C17.289,16.76 17,17.03 17,17.375 C17,17.72 17.28,18 17.625,18 L18,18 C20,18 21,17 21,15 L21,10 C21,8 20,7 18,7 Z M10,11.75 L7,11.75 C6.59,11.75 6.25,11.41 6.25,11 C6.25,10.59 6.59,10.25 7,10.25 L10,10.25 C10.41,10.25 10.75,10.59 10.75,11 C10.75,11.41 10.41,11.75 10,11.75 Z"/>
</svg>

