<svg xmlns="http://www.w3.org/2000/svg" width="24" height="24" viewBox="0 0 24 24">
  <defs/>
  <path fill="#292D32" opacity="0.4" d="M9,2 C6.38,2 4.25,4.13 4.25,6.75 C4.25,9.32 6.26,11.4 8.88,11.49 C8.96,11.48 9.04,11.48 9.1,11.49 C9.12,11.49 9.13,11.49 9.15,11.49 C9.16,11.49 9.16,11.49 9.17,11.49 C11.73,11.4 13.74,9.32 13.75,6.75 C13.75,4.13 11.62,2 9,2 Z"/>
  <path fill="#292D32" d="M14.081,14.15 C11.291,12.29 6.741,12.29 3.931,14.15 C2.661,15 1.961,16.15 1.961,17.38 C1.961,18.61 2.661,19.75 3.921,20.59 C5.321,21.53 7.161,22 9.001,22 C10.841,22 12.681,21.53 14.081,20.59 C15.341,19.74 16.041,18.6 16.041,17.36 C16.031,16.13 15.341,14.99 14.081,14.15 Z"/>
  <path fill="#292D32" opacity="0.4" d="M19.989,7.34 C20.149,9.28 18.769,10.98 16.859,11.21 C16.849,11.21 16.849,11.21 16.839,11.21 L16.809,11.21 C16.749,11.21 16.689,11.21 16.639,11.23 C15.669,11.28 14.779,10.97 14.109,10.4 C15.139,9.48 15.729,8.1 15.609,6.6 C15.539,5.79 15.259,5.05 14.839,4.42 C15.219,4.23 15.659,4.11 16.109,4.07 C18.069,3.9 19.819,5.36 19.989,7.34 Z"/>
  <path fill="#292D32" d="M21.99,16.59 C21.91,17.56 21.29,18.4 20.25,18.97 C19.25,19.52 17.99,19.78 16.74,19.75 C17.46,19.1 17.88,18.29 17.96,17.43 C18.06,16.19 17.47,15 16.29,14.05 C15.62,13.52 14.84,13.1 13.99,12.79 C16.2,12.15 18.98,12.58 20.69,13.96 C21.61,14.7 22.08,15.63 21.99,16.59 Z"/>
</svg>

