<svg xmlns="http://www.w3.org/2000/svg" width="24" height="24" viewBox="0 0 24 24">
  <defs/>
  <path fill="#292D32" d="M19.5,19.75 L15.5,19.75 Q15.189,19.75 14.97,19.53 Q14.75,19.311 14.75,19 Q14.75,18.689 14.97,18.47 Q15.189,18.25 15.5,18.25 L19.5,18.25 Q19.811,18.25 20.03,18.47 Q20.25,18.689 20.25,19 Q20.25,19.311 20.03,19.53 Q19.811,19.75 19.5,19.75 Z"/>
  <path fill="#292D32" d="M12.075,11.616 Q11.989,11.608 11.888,11.617 Q11.841,11.621 11.795,11.62 Q9.705,11.549 8.253,10.046 Q6.8,8.541 6.8,6.44 Q6.8,4.29 8.317,2.771 Q9.836,1.25 11.99,1.25 Q14.138,1.25 15.659,2.771 Q17.18,4.292 17.18,6.44 Q17.171,8.544 15.718,10.046 Q14.264,11.549 12.175,11.62 Q12.125,11.621 12.075,11.616 Z M12.169,10.119 Q15.665,9.979 15.68,6.44 Q15.68,2.75 11.99,2.75 Q10.458,2.75 9.378,3.831 Q8.3,4.911 8.3,6.44 Q8.3,9.98 11.803,10.119 Q11.991,10.105 12.169,10.119 Z"/>
  <path fill="#292D32" d="M11.99,22.56 Q8.823,22.56 6.564,21.054 Q4.415,19.616 4.415,17.491 Q4.415,15.366 6.565,13.936 Q8.815,12.43 11.985,12.43 Q15.155,12.43 17.407,13.937 Q17.665,14.11 17.726,14.414 Q17.786,14.719 17.613,14.977 Q17.441,15.235 17.136,15.296 Q16.831,15.356 16.573,15.183 Q14.7,13.93 11.985,13.93 Q9.27,13.93 7.395,15.185 Q5.915,16.169 5.915,17.491 Q5.915,18.815 7.396,19.806 Q9.277,21.06 11.99,21.06 Q12.301,21.06 12.52,21.28 Q12.74,21.499 12.74,21.81 Q12.74,22.121 12.52,22.34 Q12.301,22.56 11.99,22.56 Z"/>
</svg>

