<svg xmlns="http://www.w3.org/2000/svg" width="24" height="24" viewBox="0 0 24 24">
  <defs/>
  <path fill="#292D32" d="M12,2 C9.38,2 7.25,4.13 7.25,6.75 C7.25,9.32 9.26,11.4 11.88,11.49 C11.96,11.48 12.04,11.48 12.1,11.49 C12.12,11.49 12.13,11.49 12.15,11.49 C12.16,11.49 12.16,11.49 12.17,11.49 C14.73,11.4 16.74,9.32 16.75,6.75 C16.75,4.13 14.62,2 12,2 Z"/>
  <path fill="#292D32" opacity="0.4" d="M17.081,14.15 C14.291,12.29 9.741,12.29 6.931,14.15 C5.661,15 4.961,16.15 4.961,17.38 C4.961,18.61 5.661,19.75 6.921,20.59 C8.321,21.53 10.161,22 12.001,22 C13.841,22 15.681,21.53 17.081,20.59 C18.341,19.74 19.041,18.6 19.041,17.36 C19.031,16.13 18.341,14.99 17.081,14.15 Z"/>
  <path fill="#292D32" d="M13.059,17.38 L13.939,16.5 C14.229,16.21 14.229,15.73 13.939,15.44 C13.649,15.15 13.169,15.15 12.879,15.44 L11.999,16.32 L11.119,15.44 C10.829,15.15 10.349,15.15 10.059,15.44 C9.769,15.73 9.769,16.21 10.059,16.5 L10.939,17.38 L10.059,18.26 C9.769,18.55 9.769,19.03 10.059,19.32 C10.209,19.47 10.399,19.54 10.589,19.54 C10.779,19.54 10.969,19.47 11.119,19.32 L11.999,18.44 L12.879,19.32 C13.029,19.47 13.219,19.54 13.409,19.54 C13.599,19.54 13.789,19.47 13.939,19.32 C14.229,19.03 14.229,18.55 13.939,18.26 L13.059,17.38 Z"/>
</svg>

