<svg xmlns="http://www.w3.org/2000/svg" width="24" height="24" viewBox="0 0 24 24">
  <defs/>
  <path fill="#292D32" d="M15.589,21.66 C15.399,21.66 15.209,21.59 15.059,21.44 C14.769,21.15 14.769,20.67 15.059,20.38 L17.879,17.56 C18.169,17.27 18.649,17.27 18.939,17.56 C19.229,17.85 19.229,18.33 18.939,18.62 L16.119,21.44 C15.969,21.59 15.779,21.66 15.589,21.66 Z"/>
  <path fill="#292D32" d="M18.409,21.66 C18.219,21.66 18.029,21.59 17.879,21.44 L15.059,18.62 C14.769,18.33 14.769,17.85 15.059,17.56 C15.349,17.27 15.829,17.27 16.119,17.56 L18.939,20.38 C19.229,20.67 19.229,21.15 18.939,21.44 C18.789,21.59 18.599,21.66 18.409,21.66 Z"/>
  <path fill="#292D32" d="M12.161,11.62 C12.13,11.62 12.111,11.62 12.081,11.62 C12.03,11.61 11.96,11.61 11.9,11.62 C9.001,11.53 6.811,9.25 6.811,6.44 C6.811,3.58 9.141,1.25 12.001,1.25 C14.861,1.25 17.191,3.58 17.191,6.44 C17.18,9.25 14.98,11.53 12.191,11.62 C12.181,11.62 12.171,11.62 12.161,11.62 Z M12.001,2.75 C9.971,2.75 8.311,4.41 8.311,6.44 C8.311,8.44 9.871,10.05 11.861,10.12 C11.921,10.11 12.05,10.11 12.181,10.12 C14.14,10.03 15.681,8.42 15.691,6.44 C15.691,4.41 14.03,2.75 12.001,2.75 Z"/>
  <path fill="#292D32" d="M12,22.56 C9.96,22.56 8.03,22.03 6.57,21.05 C5.18,20.12 4.42,18.85 4.42,17.48 C4.42,16.11 5.19,14.85 6.57,13.93 C9.56,11.93 14.42,11.93 17.41,13.93 C17.75,14.16 17.85,14.63 17.62,14.97 C17.39,15.32 16.92,15.41 16.58,15.18 C14.09,13.52 9.89,13.52 7.4,15.18 C6.44,15.82 5.92,16.63 5.92,17.48 C5.92,18.33 6.45,19.16 7.4,19.8 C8.61,20.61 10.24,21.05 11.99,21.05 C12.4,21.05 12.74,21.39 12.74,21.8 C12.74,22.21 12.41,22.56 12,22.56 Z"/>
</svg>

