<svg xmlns="http://www.w3.org/2000/svg" width="24" height="24" viewBox="0 0 24 24">
  <defs/>
  <path fill="#292D32" d="M18.94,18.62 L16.12,21.44 Q15.9,21.66 15.59,21.66 Q15.279,21.66 15.059,21.44 Q14.84,21.221 14.84,20.91 Q14.84,20.599 15.059,20.38 L17.879,17.56 Q18.099,17.34 18.41,17.34 Q18.72,17.34 18.94,17.56 Q19.16,17.779 19.16,18.09 Q19.16,18.401 18.94,18.62 Z"/>
  <path fill="#292D32" d="M17.879,21.44 L15.059,18.62 Q14.84,18.401 14.84,18.09 Q14.84,17.779 15.059,17.56 Q15.279,17.34 15.59,17.34 Q15.9,17.34 16.12,17.56 L18.94,20.38 Q19.16,20.599 19.16,20.91 Q19.16,21.221 18.94,21.44 Q18.72,21.66 18.41,21.66 Q18.099,21.66 17.879,21.44 Z"/>
  <path fill="#292D32" d="M12.001,22.56 Q8.834,22.56 6.575,21.054 Q4.426,19.615 4.426,17.491 Q4.426,15.366 6.575,13.935 Q8.826,12.43 11.996,12.43 Q15.166,12.43 17.418,13.937 Q17.676,14.109 17.736,14.414 Q17.797,14.719 17.624,14.977 Q17.451,15.235 17.147,15.296 Q16.842,15.356 16.584,15.183 Q14.711,13.93 11.996,13.93 Q9.281,13.93 7.406,15.184 Q5.926,16.169 5.926,17.491 Q5.926,18.814 7.407,19.806 Q9.288,21.06 12.001,21.06 Q12.311,21.06 12.531,21.28 Q12.751,21.499 12.751,21.81 Q12.751,22.121 12.531,22.34 Q12.311,22.56 12.001,22.56 Z"/>
  <path fill="#292D32" d="M16.302,3.54 Q17.19,4.854 17.191,6.44 Q17.182,8.544 15.728,10.046 Q14.275,11.549 12.186,11.62 Q12.136,11.621 12.086,11.616 Q12,11.608 11.898,11.617 Q11.852,11.621 11.805,11.62 Q9.715,11.549 8.263,10.046 Q6.811,8.541 6.811,6.44 Q6.811,4.29 8.327,2.771 Q9.846,1.25 12,1.25 Q12.311,1.25 12.531,1.47 Q12.75,1.689 12.75,2 Q12.75,2.311 12.531,2.53 Q12.311,2.75 12,2.75 Q10.156,2.75 9.233,3.672 Q8.311,4.595 8.311,6.44 Q8.311,9.98 11.814,10.119 Q12.001,10.105 12.179,10.119 Q15.676,9.979 15.691,6.44 Q15.69,5.314 15.059,4.38 Q14.885,4.123 14.944,3.818 Q15.003,3.513 15.26,3.339 Q15.518,3.165 15.823,3.224 Q16.128,3.283 16.302,3.54 Z"/>
</svg>

