<svg xmlns="http://www.w3.org/2000/svg" width="24" height="24" viewBox="0 0 24 24">
  <defs/>
  <path fill="#292D32" opacity="0.4" d="M12,22.01 C17.523,22.01 22,17.533 22,12.01 C22,6.487 17.523,2.01 12,2.01 C6.477,2.01 2,6.487 2,12.01 C2,17.533 6.477,22.01 12,22.01 Z"/>
  <path fill="#292D32" d="M12,6.94 C9.93,6.94 8.25,8.62 8.25,10.69 C8.25,12.72 9.84,14.37 11.95,14.43 C11.98,14.43 12.02,14.43 12.04,14.43 C12.06,14.43 12.09,14.43 12.11,14.43 C12.12,14.43 12.13,14.43 12.13,14.43 C14.15,14.36 15.74,12.72 15.75,10.69 C15.75,8.62 14.07,6.94 12,6.94 Z"/>
  <path fill="#292D32" d="M18.781,19.36 C17.001,21 14.621,22.01 12.001,22.01 C9.381,22.01 7.001,21 5.221,19.36 C5.461,18.45 6.111,17.62 7.061,16.98 C9.791,15.16 14.231,15.16 16.941,16.98 C17.901,17.62 18.541,18.45 18.781,19.36 Z"/>
</svg>

