<svg xmlns="http://www.w3.org/2000/svg" width="24" height="24" viewBox="0 0 24 24">
  <defs/>
  <path fill="#292D32" d="M15.611,7.705 Q16.041,8.563 16.041,9.51 Q16.018,13.42 12.152,13.53 Q12.088,13.532 12.024,13.522 Q12.012,13.521 11.984,13.524 Q11.924,13.532 11.865,13.53 Q7.98,13.397 7.98,9.51 Q7.98,7.841 9.157,6.661 Q10.336,5.48 12.01,5.48 Q12.321,5.48 12.541,5.7 Q12.76,5.919 12.76,6.23 Q12.76,6.541 12.541,6.76 Q12.321,6.98 12.01,6.98 Q10.958,6.98 10.219,7.721 Q9.48,8.461 9.48,9.51 Q9.48,11.922 11.866,12.028 Q12.017,12.015 12.16,12.029 Q14.527,11.936 14.54,9.51 Q14.54,8.917 14.27,8.375 Q14.131,8.098 14.229,7.803 Q14.327,7.508 14.605,7.369 Q14.883,7.23 15.178,7.328 Q15.472,7.427 15.611,7.705 Z"/>
  <path fill="#292D32" d="M19.246,19.933 Q16.17,22.75 12,22.75 Q7.829,22.75 4.753,19.933 Q4.474,19.677 4.514,19.301 Q4.71,17.457 6.611,16.178 Q8.858,14.685 12.007,14.685 Q15.158,14.685 17.387,16.177 Q19.289,17.457 19.486,19.301 Q19.526,19.677 19.246,19.933 Z M17.924,19.099 Q17.661,18.169 16.553,17.423 Q14.702,16.185 12.007,16.185 Q9.311,16.185 7.448,17.422 Q6.339,18.169 6.075,19.099 Q8.62,21.25 12,21.25 Q15.38,21.25 17.924,19.099 Z"/>
  <path fill="#292D32" d="M4.6,6.449 Q2.75,8.922 2.75,12 Q2.75,15.829 5.46,18.54 Q8.171,21.25 12,21.25 Q15.829,21.25 18.54,18.54 Q21.25,15.829 21.25,12 Q21.25,8.171 18.54,5.46 Q15.829,2.75 12,2.75 Q10.031,2.75 8.276,3.535 Q7.993,3.661 7.702,3.551 Q7.412,3.44 7.285,3.156 Q7.159,2.873 7.269,2.582 Q7.38,2.292 7.664,2.165 Q9.711,1.25 12,1.25 Q16.451,1.25 19.6,4.4 Q22.75,7.549 22.75,12 Q22.75,16.451 19.6,19.6 Q16.451,22.75 12,22.75 Q7.549,22.75 4.4,19.6 Q1.25,16.451 1.25,12 Q1.25,8.422 3.4,5.551 Q3.586,5.302 3.893,5.258 Q4.201,5.213 4.449,5.4 Q4.698,5.586 4.742,5.893 Q4.787,6.201 4.6,6.449 Z"/>
</svg>

