<svg xmlns="http://www.w3.org/2000/svg" width="24" height="24" viewBox="0 0 24 24">
  <defs/>
  <path fill="#292D32" d="M9.161,11.62 C9.131,11.62 9.111,11.62 9.081,11.62 C9.031,11.61 8.961,11.61 8.901,11.62 C6.001,11.53 3.811,9.25 3.811,6.44 C3.811,3.58 6.141,1.25 9.001,1.25 C11.861,1.25 14.191,3.58 14.191,6.44 C14.181,9.25 11.98,11.53 9.191,11.62 C9.181,11.62 9.171,11.62 9.161,11.62 Z M9.001,2.75 C6.971,2.75 5.311,4.41 5.311,6.44 C5.311,8.44 6.871,10.05 8.861,10.12 C8.921,10.11 9.051,10.11 9.181,10.12 C11.14,10.03 12.681,8.42 12.691,6.44 C12.691,4.41 11.03,2.75 9.001,2.75 Z"/>
  <path fill="#292D32" d="M16.54,11.75 C16.51,11.75 16.48,11.75 16.45,11.74 C16.04,11.78 15.62,11.49 15.58,11.08 C15.54,10.67 15.79,10.3 16.2,10.25 C16.32,10.24 16.45,10.24 16.56,10.24 C18.02,10.16 19.16,8.96 19.16,7.49 C19.16,5.97 17.93,4.74 16.41,4.74 C16,4.75 15.66,4.41 15.66,4 C15.66,3.59 16,3.25 16.41,3.25 C18.75,3.25 20.66,5.16 20.66,7.5 C20.66,9.8 18.86,11.66 16.57,11.75 C16.56,11.75 16.55,11.75 16.54,11.75 Z"/>
  <path fill="#292D32" d="M9.17,22.55 C7.21,22.55 5.24,22.05 3.75,21.05 C2.36,20.13 1.6,18.87 1.6,17.5 C1.6,16.13 2.36,14.86 3.75,13.93 C6.75,11.94 11.61,11.94 14.59,13.93 C15.97,14.85 16.74,16.11 16.74,17.48 C16.74,18.85 15.98,20.12 14.59,21.05 C13.09,22.05 11.13,22.55 9.17,22.55 Z M4.58,15.19 C3.62,15.83 3.1,16.65 3.1,17.51 C3.1,18.36 3.63,19.18 4.58,19.81 C7.07,21.48 11.27,21.48 13.76,19.81 C14.72,19.17 15.24,18.35 15.24,17.49 C15.24,16.64 14.71,15.82 13.76,15.19 C11.27,13.53 7.07,13.53 4.58,15.19 Z"/>
  <path fill="#292D32" d="M18.34,20.75 C17.99,20.75 17.68,20.51 17.61,20.15 C17.53,19.74 17.79,19.35 18.19,19.26 C18.82,19.13 19.4,18.88 19.85,18.53 C20.42,18.1 20.73,17.56 20.73,16.99 C20.73,16.42 20.42,15.88 19.86,15.46 C19.42,15.12 18.87,14.88 18.22,14.73 C17.82,14.64 17.56,14.24 17.65,13.83 C17.74,13.43 18.14,13.17 18.55,13.26 C19.41,13.45 20.16,13.79 20.77,14.26 C21.7,14.96 22.23,15.95 22.23,16.99 C22.23,18.03 21.69,19.02 20.76,19.73 C20.14,20.21 19.36,20.56 18.5,20.73 C18.44,20.75 18.39,20.75 18.34,20.75 Z"/>
</svg>

