<svg xmlns="http://www.w3.org/2000/svg" width="24" height="24" viewBox="0 0 24 24">
  <defs/>
  <path fill="#292D32" d="M18.5,20.25 L14.5,20.25 C14.09,20.25 13.75,19.91 13.75,19.5 C13.75,19.09 14.09,18.75 14.5,18.75 L18.5,18.75 C18.91,18.75 19.25,19.09 19.25,19.5 C19.25,19.91 18.91,20.25 18.5,20.25 Z"/>
  <path fill="#292D32" d="M16.5,22.25 C16.09,22.25 15.75,21.91 15.75,21.5 L15.75,17.5 C15.75,17.09 16.09,16.75 16.5,16.75 C16.91,16.75 17.25,17.09 17.25,17.5 L17.25,21.5 C17.25,21.91 16.91,22.25 16.5,22.25 Z"/>
  <path fill="#292D32" d="M12.161,11.62 C12.131,11.62 12.111,11.62 12.081,11.62 C12.031,11.61 11.961,11.61 11.901,11.62 C9.001,11.53 6.811,9.25 6.811,6.44 C6.801,5.06 7.341,3.76 8.321,2.78 C9.301,1.8 10.601,1.25 11.991,1.25 C14.851,1.25 17.181,3.58 17.181,6.44 C17.181,9.25 14.991,11.52 12.191,11.62 C12.181,11.62 12.171,11.62 12.161,11.62 Z M11.991,2.75 C11.001,2.75 10.081,3.14 9.381,3.83 C8.691,4.53 8.311,5.45 8.311,6.43 C8.311,8.43 9.871,10.05 11.861,10.11 C11.921,10.1 12.051,10.1 12.181,10.11 C14.151,10.02 15.681,8.41 15.681,6.43 C15.681,4.41 14.021,2.75 11.991,2.75 Z"/>
  <path fill="#292D32" d="M11.99,22.56 C9.95,22.56 8.02,22.03 6.56,21.05 C5.17,20.12 4.41,18.85 4.41,17.48 C4.41,16.11 5.18,14.85 6.56,13.93 C9.55,11.93 14.41,11.93 17.4,13.93 C17.74,14.16 17.84,14.63 17.61,14.97 C17.38,15.32 16.91,15.41 16.57,15.18 C14.08,13.52 9.88,13.52 7.39,15.18 C6.43,15.82 5.91,16.63 5.91,17.48 C5.91,18.33 6.43,19.16 7.39,19.8 C8.6,20.61 10.23,21.05 11.98,21.05 C12.39,21.05 12.73,21.39 12.73,21.8 C12.73,22.21 12.4,22.56 11.99,22.56 Z"/>
</svg>

