<svg xmlns="http://www.w3.org/2000/svg" width="24" height="24" viewBox="0 0 24 24">
  <defs/>
  <path fill="#292D32" opacity="0.4" d="M14.97,18.519 L15.96,19.509 L18.469,16.999 Q18.689,16.78 19,16.78 Q19.31,16.78 19.53,16.999 Q19.75,17.219 19.75,17.53 Q19.75,17.84 19.53,18.06 L16.49,21.1 Q16.27,21.32 15.96,21.32 Q15.649,21.32 15.429,21.1 L13.909,19.58 Q13.689,19.36 13.689,19.05 Q13.689,18.739 13.909,18.519 Q14.129,18.3 14.439,18.3 Q14.75,18.3 14.97,18.519 Z"/>
  <path fill="#292D32" opacity="0.4" d="M12.086,11.616 Q12,11.608 11.899,11.617 Q11.852,11.621 11.805,11.62 Q9.715,11.549 8.264,10.046 Q6.811,8.541 6.811,6.44 Q6.802,4.294 8.322,2.771 Q9.841,1.25 11.991,1.25 Q14.139,1.25 15.66,2.771 Q17.181,4.292 17.181,6.44 Q17.181,8.54 15.723,10.046 Q14.27,11.549 12.186,11.62 Q12.136,11.621 12.086,11.616 Z M12.179,10.119 Q15.681,9.979 15.681,6.44 Q15.681,2.75 11.991,2.75 Q10.463,2.75 9.384,3.831 Q8.304,4.912 8.311,6.44 Q8.311,9.98 11.814,10.119 Q12.001,10.105 12.179,10.119 Z"/>
  <path fill="#292D32" d="M11.989,22.56 Q8.822,22.56 6.563,21.054 Q4.414,19.616 4.414,17.491 Q4.414,15.366 6.564,13.936 Q8.814,12.43 11.984,12.43 Q15.154,12.43 17.406,13.937 Q17.664,14.11 17.725,14.414 Q17.785,14.719 17.612,14.977 Q17.44,15.235 17.135,15.296 Q16.83,15.356 16.572,15.184 Q14.699,13.93 11.984,13.93 Q9.269,13.93 7.394,15.185 Q5.914,16.17 5.914,17.491 Q5.914,18.815 7.395,19.806 Q9.276,21.06 11.989,21.06 Q12.3,21.06 12.519,21.28 Q12.739,21.5 12.739,21.81 Q12.739,22.121 12.519,22.341 Q12.3,22.56 11.989,22.56 Z"/>
</svg>

