<svg xmlns="http://www.w3.org/2000/svg" width="24" height="24" viewBox="0 0 24 24">
  <defs/>
  <path fill="#292D32" d="M12,2 C9.38,2 7.25,4.13 7.25,6.75 C7.25,9.32 9.26,11.4 11.88,11.49 C11.96,11.48 12.04,11.48 12.1,11.49 C12.12,11.49 12.13,11.49 12.15,11.49 C12.16,11.49 12.16,11.49 12.17,11.49 C14.73,11.4 16.74,9.32 16.75,6.75 C16.75,4.13 14.62,2 12,2 Z"/>
  <path fill="#292D32" opacity="0.4" d="M17.081,14.15 C14.291,12.29 9.741,12.29 6.931,14.15 C5.661,15 4.961,16.15 4.961,17.38 C4.961,18.61 5.661,19.75 6.921,20.59 C8.321,21.53 10.161,22 12.001,22 C13.841,22 15.681,21.53 17.081,20.59 C18.341,19.74 19.041,18.6 19.041,17.36 C19.031,16.13 18.341,14.99 17.081,14.15 Z"/>
  <path fill="#292D32" d="M14,16.63 L12.75,16.63 L12.75,15.38 C12.75,14.97 12.41,14.63 12,14.63 C11.59,14.63 11.25,14.97 11.25,15.38 L11.25,16.63 L10,16.63 C9.59,16.63 9.25,16.97 9.25,17.38 C9.25,17.79 9.59,18.13 10,18.13 L11.25,18.13 L11.25,19.38 C11.25,19.79 11.59,20.13 12,20.13 C12.41,20.13 12.75,19.79 12.75,19.38 L12.75,18.13 L14,18.13 C14.41,18.13 14.75,17.79 14.75,17.38 C14.75,16.97 14.41,16.63 14,16.63 Z"/>
</svg>

