<svg xmlns="http://www.w3.org/2000/svg" width="24" height="24" viewBox="0 0 24 24">
  <defs/>
  <path fill="#292D32" d="M14.97,18.52 L15.96,19.509 L18.47,17 Q18.689,16.78 19,16.78 Q19.311,16.78 19.53,17 Q19.75,17.219 19.75,17.53 Q19.75,17.841 19.53,18.06 L16.49,21.1 Q16.271,21.32 15.96,21.32 Q15.649,21.32 15.43,21.1 L13.91,19.58 Q13.69,19.361 13.69,19.05 Q13.69,18.739 13.91,18.52 Q14.129,18.3 14.44,18.3 Q14.751,18.3 14.97,18.52 Z"/>
  <path fill="#292D32" d="M12.085,11.616 Q11.999,11.608 11.898,11.617 Q11.851,11.621 11.805,11.62 Q9.714,11.549 8.263,10.046 Q6.81,8.541 6.81,6.44 Q6.801,4.294 8.322,2.771 Q9.841,1.25 11.99,1.25 Q14.138,1.25 15.659,2.771 Q17.18,4.292 17.18,6.44 Q17.18,8.54 15.723,10.046 Q14.27,11.549 12.185,11.62 Q12.135,11.621 12.085,11.616 Z M12.179,10.119 Q15.68,9.979 15.68,6.44 Q15.68,2.75 11.99,2.75 Q10.463,2.75 9.383,3.831 Q8.304,4.912 8.31,6.44 Q8.31,9.98 11.813,10.119 Q12.001,10.105 12.179,10.119 Z"/>
  <path fill="#292D32" d="M11.99,22.56 Q8.823,22.56 6.564,21.054 Q4.415,19.616 4.415,17.491 Q4.415,15.366 6.565,13.936 Q8.815,12.43 11.985,12.43 Q15.155,12.43 17.407,13.937 Q17.665,14.11 17.726,14.414 Q17.786,14.719 17.613,14.977 Q17.441,15.235 17.136,15.296 Q16.831,15.356 16.573,15.183 Q14.7,13.93 11.985,13.93 Q9.27,13.93 7.395,15.185 Q5.915,16.169 5.915,17.491 Q5.915,18.815 7.396,19.806 Q9.277,21.06 11.99,21.06 Q12.301,21.06 12.52,21.28 Q12.74,21.499 12.74,21.81 Q12.74,22.121 12.52,22.34 Q12.301,22.56 11.99,22.56 Z"/>
</svg>

