<svg xmlns="http://www.w3.org/2000/svg" width="24" height="24" viewBox="0 0 24 24">
  <defs/>
  <path fill="#292D32" d="M12,2 C9.38,2 7.25,4.13 7.25,6.75 C7.25,9.32 9.26,11.4 11.88,11.49 C11.96,11.48 12.04,11.48 12.1,11.49 C12.12,11.49 12.13,11.49 12.15,11.49 C12.16,11.49 12.16,11.49 12.17,11.49 C14.73,11.4 16.74,9.32 16.75,6.75 C16.75,4.13 14.62,2 12,2 Z"/>
  <path fill="#292D32" d="M17.081,14.161 C14.291,12.301 9.741,12.301 6.931,14.161 C5.661,15.001 4.961,16.151 4.961,17.381 C4.961,18.611 5.661,19.751 6.921,20.591 C8.321,21.531 10.161,22.001 12.001,22.001 C13.841,22.001 15.681,21.531 17.081,20.591 C18.341,19.741 19.041,18.601 19.041,17.361 C19.031,16.141 18.341,14.991 17.081,14.161 Z M13.831,18.071 L10.181,18.071 C9.801,18.071 9.491,17.761 9.491,17.381 C9.491,17.001 9.801,16.691 10.181,16.691 L13.831,16.691 C14.211,16.691 14.521,17.001 14.521,17.381 C14.521,17.761 14.211,18.071 13.831,18.071 Z"/>
</svg>

