<svg xmlns="http://www.w3.org/2000/svg" width="24" height="24" viewBox="0 0 24 24">
  <defs/>
  <path fill="#292D32" d="M12.085,11.616 Q12,11.608 11.898,11.617 Q11.852,11.621 11.805,11.62 Q9.715,11.549 8.263,10.046 Q6.81,8.541 6.81,6.44 Q6.81,4.29 8.327,2.771 Q9.846,1.25 12,1.25 Q14.148,1.25 15.669,2.771 Q17.19,4.292 17.19,6.44 Q17.181,8.544 15.728,10.046 Q14.274,11.549 12.185,11.62 Q12.135,11.621 12.085,11.616 Z M12.179,10.119 Q15.675,9.979 15.69,6.44 Q15.69,4.913 14.609,3.832 Q13.527,2.75 12,2.75 Q10.468,2.75 9.388,3.831 Q8.31,4.911 8.31,6.44 Q8.31,9.98 11.814,10.119 Q12.001,10.105 12.179,10.119 Z"/>
  <path fill="#292D32" d="M6.746,13.935 Q9.004,12.438 12.172,12.438 Q15.342,12.438 17.585,13.936 Q19.735,15.366 19.735,17.491 Q19.735,19.615 17.587,21.053 Q15.335,22.56 12.165,22.56 Q8.995,22.56 6.745,21.054 Q4.595,19.624 4.595,17.499 Q4.595,15.375 6.743,13.937 Z M7.577,15.183 L7.574,15.185 Q6.095,16.177 6.095,17.499 Q6.095,18.821 7.575,19.806 Q9.45,21.06 12.165,21.06 Q14.88,21.06 16.753,19.807 Q18.235,18.815 18.235,17.491 Q18.235,16.169 16.755,15.184 Q14.888,13.938 12.172,13.938 Q9.458,13.938 7.577,15.183 Z"/>
</svg>

