<svg xmlns="http://www.w3.org/2000/svg" width="24" height="24" viewBox="0 0 24 24">
  <defs/>
  <path fill="#292D32" d="M12.12,13.53 C12.101,13.53 12.07,13.53 12.05,13.53 C12.021,13.53 11.98,13.53 11.95,13.53 C9.68,13.46 7.98,11.69 7.98,9.51 C7.98,7.29 9.79,5.48 12.011,5.48 C14.23,5.48 16.041,7.29 16.041,9.51 C16.03,11.7 14.32,13.46 12.15,13.53 C12.13,13.53 12.13,13.53 12.12,13.53 Z M12.001,6.97 C10.601,6.97 9.47,8.11 9.47,9.5 C9.47,10.87 10.54,11.98 11.9,12.03 C11.931,12.02 12.03,12.02 12.13,12.03 C13.47,11.96 14.521,10.86 14.53,9.5 C14.53,8.11 13.4,6.97 12.001,6.97 Z"/>
  <path fill="#292D32" d="M12.001,22.75 C9.311,22.75 6.741,21.75 4.751,19.93 C4.571,19.77 4.491,19.53 4.511,19.3 C4.641,18.11 5.381,17 6.611,16.18 C9.591,14.2 14.421,14.2 17.391,16.18 C18.621,17.01 19.361,18.11 19.491,19.3 C19.521,19.54 19.431,19.77 19.251,19.93 C17.261,21.75 14.691,22.75 12.001,22.75 Z M6.081,19.1 C7.741,20.49 9.831,21.25 12.001,21.25 C14.171,21.25 16.261,20.49 17.921,19.1 C17.741,18.49 17.261,17.9 16.551,17.42 C14.091,15.78 9.921,15.78 7.441,17.42 C6.731,17.9 6.261,18.49 6.081,19.1 Z"/>
  <path fill="#292D32" d="M12,22.75 C6.07,22.75 1.25,17.93 1.25,12 C1.25,6.07 6.07,1.25 12,1.25 C17.93,1.25 22.75,6.07 22.75,12 C22.75,17.93 17.93,22.75 12,22.75 Z M12,2.75 C6.9,2.75 2.75,6.9 2.75,12 C2.75,17.1 6.9,21.25 12,21.25 C17.1,21.25 21.25,17.1 21.25,12 C21.25,6.9 17.1,2.75 12,2.75 Z"/>
</svg>

