<svg xmlns="http://www.w3.org/2000/svg" width="24" height="24" viewBox="0 0 24 24">
  <defs/>
  <path fill="#292D32" opacity="0.4" d="M12.086,11.616 Q12,11.608 11.898,11.617 Q11.852,11.621 11.805,11.62 Q9.715,11.549 8.263,10.046 Q6.811,8.541 6.811,6.44 Q6.811,4.29 8.327,2.771 Q9.846,1.25 12,1.25 Q14.149,1.25 15.67,2.771 Q17.191,4.292 17.191,6.44 Q17.182,8.544 15.728,10.046 Q14.275,11.549 12.186,11.62 Q12.136,11.621 12.086,11.616 Z M12.179,10.119 Q15.676,9.979 15.691,6.44 Q15.69,2.75 12,2.75 Q10.156,2.75 9.233,3.672 Q8.311,4.595 8.311,6.44 Q8.311,9.98 11.814,10.119 Q12.001,10.105 12.179,10.119 Z"/>
  <path fill="#292D32" d="M6.746,13.935 Q9.005,12.438 12.173,12.438 Q15.343,12.438 17.586,13.936 Q19.736,15.366 19.736,17.491 Q19.736,19.615 17.588,21.053 Q15.336,22.56 12.166,22.56 Q8.995,22.56 6.745,21.054 Q4.596,19.624 4.596,17.499 Q4.596,15.375 6.743,13.937 Z M7.578,15.183 L7.575,15.185 Q6.096,16.177 6.096,17.499 Q6.096,18.821 7.576,19.806 Q9.451,21.06 12.166,21.06 Q14.88,21.06 16.754,19.807 Q18.236,18.815 18.236,17.491 Q18.236,16.169 16.755,15.184 Q14.888,13.938 12.173,13.938 Q9.459,13.938 7.578,15.183 Z"/>
</svg>

