<svg xmlns="http://www.w3.org/2000/svg" width="24" height="24" viewBox="0 0 24 24">
  <defs/>
  <path fill="#292D32" d="M18.94,18.62 L16.12,21.44 Q15.901,21.66 15.59,21.66 Q15.279,21.66 15.06,21.44 Q14.84,21.221 14.84,20.91 Q14.84,20.599 15.06,20.38 L17.88,17.56 Q18.099,17.34 18.41,17.34 Q18.721,17.34 18.94,17.56 Q19.16,17.779 19.16,18.09 Q19.16,18.401 18.94,18.62 Z"/>
  <path fill="#292D32" d="M17.88,21.44 L15.06,18.62 Q14.84,18.401 14.84,18.09 Q14.84,17.779 15.06,17.56 Q15.279,17.34 15.59,17.34 Q15.901,17.34 16.12,17.56 L18.94,20.38 Q19.16,20.599 19.16,20.91 Q19.16,21.221 18.94,21.44 Q18.721,21.66 18.41,21.66 Q18.099,21.66 17.88,21.44 Z"/>
  <path fill="#292D32" d="M12.085,11.616 Q12,11.608 11.898,11.617 Q11.852,11.621 11.805,11.62 Q9.715,11.549 8.263,10.046 Q6.81,8.541 6.81,6.44 Q6.81,4.29 8.327,2.771 Q9.846,1.25 12,1.25 Q14.148,1.25 15.669,2.771 Q17.19,4.292 17.19,6.44 Q17.181,8.544 15.728,10.046 Q14.274,11.549 12.185,11.62 Q12.135,11.621 12.085,11.616 Z M12.179,10.119 Q15.675,9.979 15.69,6.44 Q15.69,4.913 14.609,3.832 Q13.527,2.75 12,2.75 Q10.468,2.75 9.388,3.831 Q8.31,4.911 8.31,6.44 Q8.31,9.98 11.814,10.119 Q12.001,10.105 12.179,10.119 Z"/>
  <path fill="#292D32" d="M12,22.56 Q8.833,22.56 6.574,21.054 Q4.425,19.616 4.425,17.491 Q4.425,15.366 6.575,13.936 Q8.825,12.43 11.995,12.43 Q15.165,12.43 17.417,13.937 Q17.675,14.11 17.736,14.414 Q17.796,14.719 17.623,14.977 Q17.451,15.235 17.146,15.296 Q16.841,15.356 16.583,15.183 Q14.71,13.93 11.995,13.93 Q9.28,13.93 7.405,15.185 Q5.925,16.169 5.925,17.491 Q5.925,18.815 7.406,19.806 Q9.287,21.06 12,21.06 Q12.311,21.06 12.53,21.28 Q12.75,21.499 12.75,21.81 Q12.75,22.121 12.53,22.34 Q12.311,22.56 12,22.56 Z"/>
</svg>

