<svg xmlns="http://www.w3.org/2000/svg" width="24" height="24" viewBox="0 0 24 24">
  <defs/>
  <path fill="#292D32" d="M12,2 C9.38,2 7.25,4.13 7.25,6.75 C7.25,9.32 9.26,11.4 11.88,11.49 C11.96,11.48 12.04,11.48 12.1,11.49 C12.12,11.49 12.13,11.49 12.15,11.49 C12.16,11.49 12.16,11.49 12.17,11.49 C14.73,11.4 16.74,9.32 16.75,6.75 C16.75,4.13 14.62,2 12,2 Z"/>
  <path fill="#292D32" d="M17.081,14.149 C14.291,12.289 9.741,12.289 6.931,14.149 C5.661,14.999 4.961,16.149 4.961,17.379 C4.961,18.609 5.661,19.749 6.921,20.589 C8.321,21.529 10.161,21.999 12.001,21.999 C13.841,21.999 15.681,21.529 17.081,20.589 C18.341,19.739 19.041,18.599 19.041,17.359 C19.031,16.129 18.341,14.989 17.081,14.149 Z M14.001,18.129 L12.751,18.129 L12.751,19.379 C12.751,19.789 12.411,20.129 12.001,20.129 C11.591,20.129 11.251,19.789 11.251,19.379 L11.251,18.129 L10.001,18.129 C9.591,18.129 9.251,17.789 9.251,17.379 C9.251,16.969 9.591,16.629 10.001,16.629 L11.251,16.629 L11.251,15.379 C11.251,14.969 11.591,14.629 12.001,14.629 C12.411,14.629 12.751,14.969 12.751,15.379 L12.751,16.629 L14.001,16.629 C14.411,16.629 14.751,16.969 14.751,17.379 C14.751,17.789 14.411,18.129 14.001,18.129 Z"/>
</svg>

