<svg xmlns="http://www.w3.org/2000/svg" width="24" height="24" viewBox="0 0 24 24">
  <defs/>
  <path fill="#292D32" d="M19.5,19.75 L15.5,19.75 C15.09,19.75 14.75,19.41 14.75,19 C14.75,18.59 15.09,18.25 15.5,18.25 L19.5,18.25 C19.91,18.25 20.25,18.59 20.25,19 C20.25,19.41 19.91,19.75 19.5,19.75 Z"/>
  <path fill="#292D32" d="M12.151,11.62 C12.121,11.62 12.101,11.62 12.071,11.62 C12.011,11.61 11.951,11.62 11.891,11.62 C8.991,11.53 6.801,9.25 6.801,6.44 C6.801,3.58 9.131,1.25 11.991,1.25 C14.851,1.25 17.181,3.58 17.181,6.44 C17.171,9.25 14.971,11.53 12.181,11.62 C12.171,11.62 12.161,11.62 12.151,11.62 Z M11.991,2.75 C9.961,2.75 8.301,4.41 8.301,6.44 C8.301,8.44 9.861,10.05 11.851,10.12 C11.911,10.11 12.041,10.11 12.171,10.12 C14.131,10.03 15.671,8.42 15.681,6.44 C15.681,4.41 14.021,2.75 11.991,2.75 Z"/>
  <path fill="#292D32" d="M11.99,22.56 C9.95,22.56 8.02,22.03 6.56,21.05 C5.17,20.12 4.41,18.85 4.41,17.48 C4.41,16.11 5.18,14.85 6.56,13.93 C9.55,11.93 14.41,11.93 17.4,13.93 C17.74,14.16 17.84,14.63 17.61,14.97 C17.38,15.32 16.91,15.41 16.57,15.18 C14.08,13.52 9.88,13.52 7.39,15.18 C6.43,15.82 5.91,16.63 5.91,17.48 C5.91,18.33 6.43,19.16 7.39,19.8 C8.6,20.61 10.23,21.05 11.98,21.05 C12.39,21.05 12.73,21.39 12.73,21.8 C12.73,22.21 12.4,22.56 11.99,22.56 Z"/>
</svg>

