<svg xmlns="http://www.w3.org/2000/svg" width="24" height="24" viewBox="0 0 24 24">
  <defs/>
  <path fill="#292D32" d="M18.5,20.25 L14.5,20.25 Q14.189,20.25 13.97,20.03 Q13.75,19.811 13.75,19.5 Q13.75,19.189 13.97,18.97 Q14.189,18.75 14.5,18.75 L18.5,18.75 Q18.811,18.75 19.03,18.97 Q19.25,19.189 19.25,19.5 Q19.25,19.811 19.03,20.03 Q18.811,20.25 18.5,20.25 Z"/>
  <path fill="#292D32" d="M15.75,21.5 L15.75,17.5 Q15.75,17.189 15.97,16.97 Q16.189,16.75 16.5,16.75 Q16.811,16.75 17.03,16.97 Q17.25,17.189 17.25,17.5 L17.25,21.5 Q17.25,21.811 17.03,22.03 Q16.811,22.25 16.5,22.25 Q16.189,22.25 15.97,22.03 Q15.75,21.811 15.75,21.5 Z"/>
  <path fill="#292D32" d="M12.085,11.616 Q11.999,11.608 11.898,11.617 Q11.851,11.621 11.805,11.62 Q9.714,11.549 8.263,10.046 Q6.81,8.541 6.81,6.44 Q6.801,4.294 8.322,2.771 Q9.841,1.25 11.99,1.25 Q14.138,1.25 15.659,2.771 Q17.18,4.292 17.18,6.44 Q17.18,8.54 15.723,10.046 Q14.27,11.549 12.185,11.62 Q12.135,11.621 12.085,11.616 Z M12.179,10.119 Q15.68,9.979 15.68,6.44 Q15.68,2.75 11.99,2.75 Q10.463,2.75 9.383,3.831 Q8.304,4.912 8.31,6.44 Q8.31,9.98 11.813,10.119 Q12.001,10.105 12.179,10.119 Z"/>
  <path fill="#292D32" d="M11.99,22.56 Q8.823,22.56 6.564,21.054 Q4.415,19.616 4.415,17.491 Q4.415,15.366 6.565,13.936 Q8.815,12.43 11.985,12.43 Q15.155,12.43 17.407,13.937 Q17.665,14.11 17.726,14.414 Q17.786,14.719 17.613,14.977 Q17.441,15.235 17.136,15.296 Q16.831,15.356 16.573,15.183 Q14.7,13.93 11.985,13.93 Q9.27,13.93 7.395,15.185 Q5.915,16.169 5.915,17.491 Q5.915,18.815 7.396,19.806 Q9.277,21.06 11.99,21.06 Q12.301,21.06 12.52,21.28 Q12.74,21.499 12.74,21.81 Q12.74,22.121 12.52,22.34 Q12.301,22.56 11.99,22.56 Z"/>
</svg>

