<svg xmlns="http://www.w3.org/2000/svg" width="24" height="24" viewBox="0 0 24 24">
  <defs/>
  <path fill="#292D32" d="M22,12 C22,6.49 17.51,2 12,2 C6.49,2 2,6.49 2,12 C2,14.9 3.25,17.51 5.23,19.34 C5.23,19.35 5.23,19.35 5.22,19.36 C5.32,19.46 5.44,19.54 5.54,19.63 C5.6,19.68 5.65,19.73 5.71,19.77 C5.89,19.92 6.09,20.06 6.28,20.2 C6.35,20.25 6.41,20.29 6.48,20.34 C6.67,20.47 6.87,20.59 7.08,20.7 C7.15,20.74 7.23,20.79 7.3,20.83 C7.5,20.94 7.71,21.04 7.93,21.13 C8.01,21.17 8.09,21.21 8.17,21.24 C8.39,21.33 8.61,21.41 8.83,21.48 C8.91,21.51 8.99,21.54 9.07,21.56 C9.31,21.63 9.55,21.69 9.79,21.75 C9.86,21.77 9.93,21.79 10.01,21.8 C10.29,21.86 10.57,21.9 10.86,21.93 C10.9,21.93 10.94,21.94 10.98,21.95 C11.32,21.98 11.66,22 12,22 C12.34,22 12.68,21.98 13.01,21.95 C13.05,21.95 13.09,21.94 13.13,21.93 C13.42,21.9 13.7,21.86 13.98,21.8 C14.05,21.79 14.12,21.76 14.2,21.75 C14.44,21.69 14.69,21.64 14.92,21.56 C15,21.53 15.08,21.5 15.16,21.48 C15.38,21.4 15.61,21.33 15.82,21.24 C15.9,21.21 15.98,21.17 16.06,21.13 C16.27,21.04 16.48,20.94 16.69,20.83 C16.77,20.79 16.84,20.74 16.91,20.7 C17.11,20.58 17.31,20.47 17.51,20.34 C17.58,20.3 17.64,20.25 17.71,20.2 C17.91,20.06 18.1,19.92 18.28,19.77 C18.34,19.72 18.39,19.67 18.45,19.63 C18.56,19.54 18.67,19.45 18.77,19.36 C18.77,19.35 18.77,19.35 18.76,19.34 C20.75,17.51 22,14.9 22,12 Z M16.94,16.97 C14.23,15.15 9.79,15.15 7.06,16.97 C6.62,17.26 6.26,17.6 5.96,17.97 C4.44,16.43 3.5,14.32 3.5,12 C3.5,7.31 7.31,3.5 12,3.5 C16.69,3.5 20.5,7.31 20.5,12 C20.5,14.32 19.56,16.43 18.04,17.97 C17.75,17.6 17.38,17.26 16.94,16.97 Z"/>
  <path fill="#292D32" d="M12,6.93 C9.93,6.93 8.25,8.61 8.25,10.68 C8.25,12.71 9.84,14.36 11.95,14.42 C11.98,14.42 12.02,14.42 12.04,14.42 C12.06,14.42 12.09,14.42 12.11,14.42 C12.12,14.42 12.13,14.42 12.13,14.42 C14.15,14.35 15.74,12.71 15.75,10.68 C15.75,8.61 14.07,6.93 12,6.93 Z"/>
</svg>

