<svg xmlns="http://www.w3.org/2000/svg" width="24" height="24" viewBox="0 0 24 24">
  <defs/>
  <path fill="#292D32" d="M12,2 C9.38,2 7.25,4.13 7.25,6.75 C7.25,9.32 9.26,11.4 11.88,11.49 C11.96,11.48 12.04,11.48 12.1,11.49 C12.12,11.49 12.13,11.49 12.15,11.49 C12.16,11.49 12.16,11.49 12.17,11.49 C14.73,11.4 16.74,9.32 16.75,6.75 C16.75,4.13 14.62,2 12,2 Z"/>
  <path fill="#292D32" opacity="0.4" d="M17.081,14.16 C14.291,12.3 9.741,12.3 6.931,14.16 C5.661,15 4.961,16.15 4.961,17.38 C4.961,18.61 5.661,19.75 6.921,20.59 C8.321,21.53 10.161,22 12.001,22 C13.841,22 15.681,21.53 17.081,20.59 C18.341,19.74 19.041,18.6 19.041,17.36 C19.031,16.14 18.341,14.99 17.081,14.16 Z"/>
  <path fill="#292D32" d="M13.83,18.07 L10.18,18.07 C9.8,18.07 9.49,17.76 9.49,17.38 C9.49,17 9.8,16.69 10.18,16.69 L13.83,16.69 C14.21,16.69 14.52,17 14.52,17.38 C14.51,17.76 14.21,18.07 13.83,18.07 Z"/>
</svg>

