<svg xmlns="http://www.w3.org/2000/svg" width="24" height="24" viewBox="0 0 24 24">
  <defs/>
  <path fill="#292D32" d="M12,2 C9.38,2 7.25,4.13 7.25,6.75 C7.25,9.32 9.26,11.4 11.88,11.49 C11.96,11.48 12.04,11.48 12.1,11.49 C12.12,11.49 12.13,11.49 12.15,11.49 C12.16,11.49 12.16,11.49 12.17,11.49 C14.73,11.4 16.74,9.32 16.75,6.75 C16.75,4.13 14.62,2 12,2 Z"/>
  <path fill="#292D32" d="M17.081,14.149 C14.291,12.289 9.741,12.289 6.931,14.149 C5.661,14.999 4.961,16.149 4.961,17.379 C4.961,18.609 5.661,19.749 6.921,20.589 C8.321,21.529 10.161,21.999 12.001,21.999 C13.841,21.999 15.681,21.529 17.081,20.589 C18.341,19.739 19.041,18.599 19.041,17.359 C19.031,16.129 18.341,14.989 17.081,14.149 Z M13.941,18.259 C14.231,18.549 14.231,19.029 13.941,19.319 C13.791,19.469 13.601,19.539 13.411,19.539 C13.221,19.539 13.031,19.469 12.881,19.319 L12.001,18.439 L11.121,19.319 C10.971,19.469 10.781,19.539 10.591,19.539 C10.401,19.539 10.211,19.469 10.061,19.319 C9.771,19.029 9.771,18.549 10.061,18.259 L10.941,17.379 L10.061,16.499 C9.771,16.209 9.771,15.729 10.061,15.439 C10.351,15.149 10.831,15.149 11.121,15.439 L12.001,16.319 L12.881,15.439 C13.171,15.149 13.651,15.149 13.941,15.439 C14.231,15.729 14.231,16.209 13.941,16.499 L13.061,17.379 L13.941,18.259 Z"/>
</svg>

