<svg xmlns="http://www.w3.org/2000/svg" width="24" height="24" viewBox="0 0 24 24">
  <defs/>
  <path fill="#292D32" d="M12,2 C9.38,2 7.25,4.13 7.25,6.75 C7.25,9.32 9.26,11.4 11.88,11.49 C11.96,11.48 12.04,11.48 12.1,11.49 C12.12,11.49 12.13,11.49 12.15,11.49 C12.16,11.49 12.16,11.49 12.17,11.49 C14.73,11.4 16.74,9.32 16.75,6.75 C16.75,4.13 14.62,2 12,2 Z"/>
  <path fill="#292D32" d="M17.081,14.161 C14.291,12.301 9.741,12.301 6.931,14.161 C5.661,15.001 4.961,16.151 4.961,17.381 C4.961,18.611 5.661,19.751 6.921,20.591 C8.321,21.531 10.161,22.001 12.001,22.001 C13.841,22.001 15.681,21.531 17.081,20.591 C18.341,19.741 19.041,18.601 19.041,17.361 C19.031,16.141 18.341,14.991 17.081,14.161 Z M14.331,16.561 L11.811,19.081 C11.691,19.201 11.531,19.261 11.371,19.261 C11.211,19.261 11.051,19.191 10.931,19.081 L9.671,17.821 C9.431,17.581 9.431,17.181 9.671,16.941 C9.911,16.701 10.311,16.701 10.551,16.941 L11.371,17.761 L13.451,15.681 C13.691,15.441 14.091,15.441 14.331,15.681 C14.581,15.921 14.581,16.321 14.331,16.561 Z"/>
</svg>

