<svg xmlns="http://www.w3.org/2000/svg" width="24" height="24" viewBox="0 0 24 24">
  <defs/>
  <path fill="#292D32" d="M9.086,11.616 Q9,11.608 8.898,11.617 Q8.852,11.621 8.805,11.62 Q6.715,11.549 5.263,10.046 Q3.811,8.541 3.811,6.44 Q3.811,4.29 5.327,2.771 Q6.846,1.25 9.001,1.25 Q11.149,1.25 12.67,2.771 Q14.191,4.292 14.191,6.44 Q14.182,8.544 12.728,10.046 Q11.275,11.549 9.186,11.62 Q9.136,11.621 9.086,11.616 Z M9.179,10.119 Q12.676,9.979 12.691,6.44 Q12.691,4.913 11.609,3.832 Q10.527,2.75 9.001,2.75 Q7.468,2.75 6.389,3.831 Q5.311,4.911 5.311,6.44 Q5.311,9.98 8.814,10.119 Q9.001,10.105 9.179,10.119 Z"/>
  <path fill="#292D32" opacity="0.4" d="M16.409,3.25 Q18.174,3.25 19.418,4.496 Q20.659,5.741 20.659,7.5 Q20.659,11.596 16.567,11.749 Q16.507,11.752 16.446,11.744 Q16.412,11.74 16.362,11.745 Q16.053,11.78 15.811,11.586 Q15.568,11.392 15.534,11.083 Q15.5,10.774 15.694,10.531 Q15.888,10.289 16.196,10.255 Q16.384,10.234 16.561,10.248 Q19.159,10.126 19.159,7.5 Q19.159,6.361 18.356,5.556 Q17.551,4.75 16.409,4.75 Q16.099,4.75 15.879,4.53 Q15.659,4.311 15.659,4 Q15.659,3.689 15.879,3.47 Q16.099,3.25 16.409,3.25 Z"/>
  <path fill="#292D32" d="M3.746,13.935 Q6.005,12.438 9.173,12.438 Q12.343,12.438 14.586,13.936 Q16.736,15.366 16.736,17.491 Q16.736,19.615 14.588,21.053 Q12.336,22.56 9.166,22.56 Q5.995,22.56 3.745,21.054 Q1.596,19.624 1.596,17.499 Q1.596,15.375 3.743,13.937 Z M4.578,15.183 L4.575,15.185 Q3.096,16.177 3.096,17.499 Q3.096,18.821 4.576,19.806 Q6.451,21.06 9.166,21.06 Q11.88,21.06 13.754,19.807 Q15.236,18.815 15.236,17.491 Q15.236,16.169 13.755,15.184 Q11.888,13.938 9.173,13.938 Q6.459,13.938 4.578,15.183 Z"/>
  <path fill="#292D32" opacity="0.4" d="M18.187,19.266 Q19.154,19.064 19.843,18.535 Q20.72,17.877 20.72,16.995 Q20.72,16.112 19.85,15.46 Q19.185,14.953 18.205,14.732 Q17.902,14.663 17.736,14.401 Q17.57,14.138 17.638,13.835 Q17.706,13.532 17.969,13.366 Q18.232,13.2 18.535,13.268 Q19.835,13.561 20.75,14.26 Q22.22,15.362 22.22,16.995 Q22.22,18.627 20.757,19.725 Q19.795,20.463 18.493,20.734 Q18.189,20.798 17.929,20.627 Q17.669,20.457 17.606,20.153 Q17.542,19.849 17.712,19.589 Q17.883,19.329 18.187,19.266 Z"/>
</svg>

