<svg xmlns="http://www.w3.org/2000/svg" width="24" height="24" viewBox="0 0 24 24">
  <defs/>
  <path fill="#292D32" d="M5.75,16.11 L5.75,7.89 C7.04,7.56 8,6.4 8,5 C8,3.34 6.66,2 5,2 C3.34,2 2,3.34 2,5 C2,6.4 2.96,7.56 4.25,7.89 L4.25,16.1 C2.96,16.44 2,17.6 2,19 C2,20.66 3.34,22 5,22 C6.66,22 8,20.66 8,19 C8,17.6 7.04,16.44 5.75,16.11 Z"/>
  <path fill="#292D32" d="M19.75,16.111 L19.75,6.501 C19.75,4.981 18.52,3.751 17,3.751 L14.07,3.751 L15.48,2.581 C15.8,2.311 15.84,1.841 15.58,1.521 C15.31,1.201 14.84,1.161 14.52,1.421 L11.52,3.921 C11.35,4.061 11.25,4.271 11.25,4.501 C11.25,4.731 11.35,4.931 11.52,5.081 L14.52,7.581 C14.66,7.701 14.83,7.751 15,7.751 C15.21,7.751 15.43,7.661 15.58,7.481 C15.85,7.161 15.8,6.691 15.48,6.421 L14.07,5.251 L17,5.251 C17.69,5.251 18.25,5.811 18.25,6.501 L18.25,16.111 C16.96,16.441 16,17.601 16,19.001 C16,20.661 17.34,22.001 19,22.001 C20.66,22.001 22,20.661 22,19.001 C22,17.601 21.04,16.441 19.75,16.111 Z"/>
</svg>

