<svg xmlns="http://www.w3.org/2000/svg" width="24" height="24" viewBox="0 0 24 24">
  <defs/>
  <path fill="#292D32" opacity="0.4" d="M17,3.75 L13.07,3.75 L14.48,2.58 C14.8,2.31 14.84,1.84 14.58,1.52 C14.31,1.2 13.84,1.16 13.52,1.42 L10.52,3.92 C10.35,4.06 10.25,4.27 10.25,4.5 C10.25,4.73 10.35,4.93 10.52,5.08 L13.52,7.58 C13.66,7.7 13.83,7.75 14,7.75 C14.21,7.75 14.43,7.66 14.58,7.48 C14.85,7.16 14.8,6.69 14.48,6.42 L13.07,5.25 L17,5.25 C17.69,5.25 18.25,5.81 18.25,6.5 L18.25,16 C18.25,16.41 18.59,16.75 19,16.75 C19.41,16.75 19.75,16.41 19.75,16 L19.75,6.5 C19.75,4.98 18.52,3.75 17,3.75 Z"/>
  <path fill="#292D32" d="M19,22 C20.657,22 22,20.657 22,19 C22,17.343 20.657,16 19,16 C17.343,16 16,17.343 16,19 C16,20.657 17.343,22 19,22 Z"/>
  <path fill="#292D32" opacity="0.4" d="M13.48,18.92 L10.48,16.42 C10.16,16.15 9.69,16.2 9.42,16.52 C9.15,16.84 9.2,17.31 9.52,17.58 L10.93,18.75 L7,18.75 C6.31,18.75 5.75,18.19 5.75,17.5 L5.75,8 C5.75,7.59 5.41,7.25 5,7.25 C4.59,7.25 4.25,7.59 4.25,8 L4.25,17.5 C4.25,19.02 5.48,20.25 7,20.25 L10.93,20.25 L9.52,21.42 C9.2,21.69 9.16,22.16 9.42,22.48 C9.57,22.66 9.78,22.75 10,22.75 C10.17,22.75 10.34,22.69 10.48,22.58 L13.48,20.08 C13.65,19.94 13.75,19.73 13.75,19.5 C13.75,19.27 13.65,19.07 13.48,18.92 Z"/>
  <path fill="#292D32" d="M5,8 C6.657,8 8,6.657 8,5 C8,3.343 6.657,2 5,2 C3.343,2 2,3.343 2,5 C2,6.657 3.343,8 5,8 Z"/>
</svg>

