<svg xmlns="http://www.w3.org/2000/svg" width="24" height="24" viewBox="0 0 24 24">
  <defs/>
  <path fill="#292D32" d="M19,16.75 C18.59,16.75 18.25,16.41 18.25,16 L18.25,6.5 C18.25,5.81 17.69,5.25 17,5.25 L11.5,5.25 C11.09,5.25 10.75,4.91 10.75,4.5 C10.75,4.09 11.09,3.75 11.5,3.75 L17,3.75 C18.52,3.75 19.75,4.98 19.75,6.5 L19.75,16 C19.75,16.41 19.41,16.75 19,16.75 Z"/>
  <path fill="#292D32" d="M14,7.75 C13.83,7.75 13.66,7.69 13.52,7.58 L10.52,5.08 C10.35,4.94 10.25,4.73 10.25,4.5 C10.25,4.27 10.35,4.07 10.52,3.92 L13.52,1.42 C13.84,1.15 14.31,1.2 14.58,1.52 C14.85,1.84 14.8,2.31 14.48,2.58 L12.17,4.5 L14.48,6.42 C14.8,6.69 14.84,7.16 14.58,7.48 C14.43,7.66 14.21,7.75 14,7.75 Z"/>
  <path fill="#292D32" d="M19,22.75 C16.93,22.75 15.25,21.07 15.25,19 C15.25,16.93 16.93,15.25 19,15.25 C21.07,15.25 22.75,16.93 22.75,19 C22.75,21.07 21.07,22.75 19,22.75 Z M19,16.75 C17.76,16.75 16.75,17.76 16.75,19 C16.75,20.24 17.76,21.25 19,21.25 C20.24,21.25 21.25,20.24 21.25,19 C21.25,17.76 20.24,16.75 19,16.75 Z"/>
  <path fill="#292D32" d="M12.5,20.25 L7,20.25 C5.48,20.25 4.25,19.02 4.25,17.5 L4.25,8 C4.25,7.59 4.59,7.25 5,7.25 C5.41,7.25 5.75,7.59 5.75,8 L5.75,17.5 C5.75,18.19 6.31,18.75 7,18.75 L12.5,18.75 C12.91,18.75 13.25,19.09 13.25,19.5 C13.25,19.91 12.91,20.25 12.5,20.25 Z"/>
  <path fill="#292D32" d="M10.001,22.75 C9.791,22.75 9.571,22.66 9.421,22.48 C9.151,22.16 9.201,21.69 9.521,21.42 L11.831,19.5 L9.521,17.58 C9.201,17.31 9.161,16.84 9.421,16.52 C9.691,16.2 10.161,16.16 10.481,16.42 L13.481,18.92 C13.651,19.06 13.751,19.27 13.751,19.5 C13.751,19.73 13.651,19.93 13.481,20.08 L10.481,22.58 C10.341,22.69 10.171,22.75 10.001,22.75 Z"/>
  <path fill="#292D32" d="M5,8.75 C2.93,8.75 1.25,7.07 1.25,5 C1.25,2.93 2.93,1.25 5,1.25 C7.07,1.25 8.75,2.93 8.75,5 C8.75,7.07 7.07,8.75 5,8.75 Z M5,2.75 C3.76,2.75 2.75,3.76 2.75,5 C2.75,6.24 3.76,7.25 5,7.25 C6.24,7.25 7.25,6.24 7.25,5 C7.25,3.76 6.24,2.75 5,2.75 Z"/>
</svg>

