<svg xmlns="http://www.w3.org/2000/svg" width="24" height="24" viewBox="0 0 24 24">
  <defs/>
  <path fill="#292D32" opacity="0.4" d="M5.75,16.11 L5.75,7.9 C7.04,7.57 8,6.4 8,5.01 C8,3.35 6.66,2.01 5,2.01 C3.34,2.01 2,3.35 2,5.01 C2,6.41 2.96,7.57 4.25,7.9 L4.25,16.11 C2.96,16.44 2,17.61 2,19 C2,20.66 3.34,22 5,22 C6.66,22 8,20.66 8,19 C8,17.6 7.04,16.44 5.75,16.11 Z"/>
  <path fill="#292D32" d="M19.75,16.11 L19.75,6.5 C19.75,4.98 18.52,3.75 17,3.75 L14.07,3.75 L15.48,2.58 C15.8,2.31 15.84,1.84 15.58,1.52 C15.31,1.2 14.84,1.16 14.52,1.42 L11.52,3.92 C11.35,4.06 11.25,4.27 11.25,4.5 C11.25,4.73 11.35,4.93 11.52,5.08 L14.52,7.58 C14.66,7.7 14.83,7.75 15,7.75 C15.21,7.75 15.43,7.66 15.58,7.48 C15.85,7.16 15.8,6.69 15.48,6.42 L14.07,5.25 L17,5.25 C17.69,5.25 18.25,5.81 18.25,6.5 L18.25,16.11 C16.96,16.44 16,17.61 16,19 C16,20.66 17.34,22 19,22 C20.66,22 22,20.66 22,19 C22,17.6 21.04,16.44 19.75,16.11 Z"/>
</svg>

