<svg xmlns="http://www.w3.org/2000/svg" width="24" height="24" viewBox="0 0 24 24">
  <defs/>
  <path fill="#292D32" d="M19,16.75 C18.59,16.75 18.25,16.41 18.25,16 L18.25,6.5 C18.25,5.81 17.69,5.25 17,5.25 L12.5,5.25 C12.09,5.25 11.75,4.91 11.75,4.5 C11.75,4.09 12.09,3.75 12.5,3.75 L17,3.75 C18.52,3.75 19.75,4.98 19.75,6.5 L19.75,16 C19.75,16.41 19.41,16.75 19,16.75 Z"/>
  <path fill="#292D32" d="M15,7.75 C14.83,7.75 14.66,7.69 14.52,7.58 L11.52,5.08 C11.35,4.94 11.25,4.73 11.25,4.5 C11.25,4.27 11.35,4.07 11.52,3.92 L14.52,1.42 C14.84,1.15 15.31,1.2 15.58,1.52 C15.85,1.84 15.8,2.31 15.48,2.58 L13.17,4.5 L15.48,6.42 C15.8,6.69 15.84,7.16 15.58,7.48 C15.43,7.66 15.21,7.75 15,7.75 Z"/>
  <path fill="#292D32" d="M5,16.75 C4.59,16.75 4.25,16.41 4.25,16 L4.25,9 C4.25,8.59 4.59,8.25 5,8.25 C5.41,8.25 5.75,8.59 5.75,9 L5.75,16 C5.75,16.41 5.41,16.75 5,16.75 Z"/>
  <path fill="#292D32" d="M5.25,9.25 C3.04,9.25 1.25,7.46 1.25,5.25 C1.25,3.04 3.04,1.25 5.25,1.25 C7.46,1.25 9.25,3.04 9.25,5.25 C9.25,7.46 7.46,9.25 5.25,9.25 Z M5.25,2.75 C3.87,2.75 2.75,3.87 2.75,5.25 C2.75,6.63 3.87,7.75 5.25,7.75 C6.63,7.75 7.75,6.63 7.75,5.25 C7.75,3.87 6.63,2.75 5.25,2.75 Z"/>
  <path fill="#292D32" d="M5,22.75 C2.93,22.75 1.25,21.07 1.25,19 C1.25,16.93 2.93,15.25 5,15.25 C7.07,15.25 8.75,16.93 8.75,19 C8.75,21.07 7.07,22.75 5,22.75 Z M5,16.75 C3.76,16.75 2.75,17.76 2.75,19 C2.75,20.24 3.76,21.25 5,21.25 C6.24,21.25 7.25,20.24 7.25,19 C7.25,17.76 6.24,16.75 5,16.75 Z"/>
  <path fill="#292D32" d="M19,22.75 C16.93,22.75 15.25,21.07 15.25,19 C15.25,16.93 16.93,15.25 19,15.25 C21.07,15.25 22.75,16.93 22.75,19 C22.75,21.07 21.07,22.75 19,22.75 Z M19,16.75 C17.76,16.75 16.75,17.76 16.75,19 C16.75,20.24 17.76,21.25 19,21.25 C20.24,21.25 21.25,20.24 21.25,19 C21.25,17.76 20.24,16.75 19,16.75 Z"/>
</svg>

