<svg xmlns="http://www.w3.org/2000/svg" width="24" height="24" viewBox="0 0 24 24">
  <defs/>
  <path fill="#292D32" d="M19.73,16.101 C19.73,16.071 19.75,16.041 19.75,16.001 L19.75,6.501 C19.75,4.981 18.52,3.751 17,3.751 L13.07,3.751 L14.48,2.581 C14.8,2.311 14.84,1.841 14.58,1.521 C14.31,1.201 13.84,1.161 13.52,1.421 L10.52,3.921 C10.35,4.061 10.25,4.271 10.25,4.501 C10.25,4.731 10.35,4.931 10.52,5.081 L13.52,7.581 C13.66,7.701 13.83,7.751 14,7.751 C14.21,7.751 14.43,7.661 14.58,7.481 C14.85,7.161 14.8,6.691 14.48,6.421 L13.07,5.251 L17,5.251 C17.69,5.251 18.25,5.811 18.25,6.501 L18.25,16.001 C18.25,16.041 18.27,16.071 18.27,16.101 C16.97,16.431 16,17.601 16,19.001 C16,20.661 17.34,22.001 19,22.001 C20.66,22.001 22,20.661 22,19.001 C22,17.601 21.03,16.431 19.73,16.101 Z"/>
  <path fill="#292D32" d="M13.48,18.92 L10.48,16.42 C10.16,16.15 9.69,16.2 9.42,16.52 C9.15,16.84 9.2,17.31 9.52,17.58 L10.93,18.75 L7,18.75 C6.31,18.75 5.75,18.19 5.75,17.5 L5.75,8 C5.75,7.96 5.73,7.93 5.73,7.9 C7.03,7.57 8,6.4 8,5 C8,3.34 6.66,2 5,2 C3.34,2 2,3.34 2,5 C2,6.4 2.97,7.57 4.27,7.9 C4.27,7.93 4.25,7.96 4.25,8 L4.25,17.5 C4.25,19.02 5.48,20.25 7,20.25 L10.93,20.25 L9.52,21.42 C9.2,21.69 9.16,22.16 9.42,22.48 C9.57,22.66 9.78,22.75 10,22.75 C10.17,22.75 10.34,22.69 10.48,22.58 L13.48,20.08 C13.65,19.94 13.75,19.73 13.75,19.5 C13.75,19.27 13.65,19.07 13.48,18.92 Z"/>
</svg>

