<svg xmlns="http://www.w3.org/2000/svg" width="24" height="24" viewBox="0 0 24 24">
  <defs/>
  <path d="M15.021,2.229 C13.021,1.919 10.98,1.919 8.981,2.229 C8.161,2.359 7.561,3.059 7.561,3.879 L7.561,7.559 L3.881,7.559 C3.061,7.559 2.361,8.159 2.231,8.979 C1.921,10.979 1.921,13.019 2.231,15.019 C2.361,15.839 3.061,16.439 3.881,16.439 L5.561,16.439 C5.841,16.439 6.061,16.219 6.061,15.939 L6.061,14.219 C6.061,12.169 7.731,10.499 9.781,10.499 L14.22,10.499 C14.62,10.499 14.941,10.179 14.941,9.779 L14.941,6.559 C14.941,6.279 15.161,6.059 15.441,6.059 L15.941,6.059 C16.221,6.059 16.441,5.839 16.441,5.559 L16.441,3.879 C16.441,3.059 15.841,2.359 15.021,2.229 Z M10.331,5.579 C9.921,5.579 9.531,5.189 9.531,4.779 C9.531,4.359 9.921,3.969 10.331,3.969 C10.53,3.969 10.751,4.059 10.891,4.199 C11.041,4.339 11.141,4.569 11.141,4.779 C11.141,5.189 10.751,5.579 10.331,5.579 Z"/>
  <path d="M21.77,8.979 C21.64,8.159 20.941,7.559 20.12,7.559 L16.941,7.559 C16.661,7.559 16.441,7.779 16.441,8.059 L16.441,9.779 C16.441,10.999 15.451,11.999 14.221,11.999 L9.781,11.999 C8.551,11.999 7.561,12.989 7.561,14.219 L7.561,20.119 C7.561,20.939 8.161,21.639 8.981,21.769 C10.981,22.079 13.021,22.079 15.021,21.769 C15.841,21.639 16.441,20.939 16.441,20.119 L16.441,16.439 L20.12,16.439 C20.941,16.439 21.64,15.839 21.77,15.019 C22.081,13.019 22.081,10.979 21.77,8.979 Z M13.671,20.029 C13.261,20.029 12.861,19.639 12.861,19.219 C12.861,18.799 13.251,18.409 13.671,18.409 C13.861,18.409 14.091,18.499 14.231,18.629 C14.381,18.769 14.481,19.009 14.481,19.209 C14.471,19.639 14.081,20.029 13.671,20.029 Z"/>
</svg>

