<svg xmlns="http://www.w3.org/2000/svg" width="24" height="24" viewBox="0 0 24 24">
  <defs/>
  <path fill="white" opacity="0.58" d="M24,0 L0,0 L0,24 L24,24 L24,0 Z"/>
  <path fill="#292D32" d="M15.021,2.23 C13.021,1.92 10.98,1.92 8.981,2.23 C8.161,2.36 7.561,3.06 7.561,3.88 L7.561,7.56 L3.881,7.56 C3.061,7.56 2.361,8.16 2.231,8.98 C1.921,10.98 1.921,13.02 2.231,15.02 C2.361,15.84 3.061,16.44 3.881,16.44 L7.561,16.44 L7.561,14.22 C7.561,12.99 8.551,12 9.781,12 L14.22,12 C15.45,12 16.441,11 16.441,9.78 L16.441,3.88 C16.441,3.06 15.841,2.36 15.021,2.23 Z M10.331,5.58 C9.921,5.58 9.521,5.19 9.521,4.77 C9.521,4.35 9.911,3.97 10.331,3.97 C10.521,3.97 10.751,4.06 10.891,4.19 C11.041,4.33 11.141,4.57 11.141,4.77 C11.141,5.19 10.751,5.58 10.331,5.58 Z"/>
  <path fill="#292D32" opacity="0.4" d="M21.77,8.98 C21.64,8.16 20.941,7.56 20.12,7.56 L16.441,7.56 L16.441,9.78 C16.441,11 15.451,12 14.221,12 L9.781,12 C8.551,12 7.561,12.99 7.561,14.22 L7.561,20.12 C7.561,20.94 8.161,21.64 8.981,21.77 C10.981,22.08 13.021,22.08 15.021,21.77 C15.841,21.64 16.441,20.94 16.441,20.12 L16.441,16.44 L20.12,16.44 C20.941,16.44 21.64,15.84 21.77,15.02 C22.081,13.02 22.081,10.98 21.77,8.98 Z M13.671,20.03 C13.261,20.03 12.861,19.64 12.861,19.22 C12.861,18.8 13.251,18.41 13.671,18.41 C13.861,18.41 14.091,18.5 14.231,18.63 C14.381,18.77 14.481,19.01 14.481,19.21 C14.471,19.64 14.081,20.03 13.671,20.03 Z"/>
</svg>

