<svg xmlns="http://www.w3.org/2000/svg" width="24" height="24" viewBox="0 0 24 24">
  <defs/>
  <path d="M6.811,7.56 L6.811,3.89 Q6.811,1.829 8.862,1.5 Q12.001,1.013 15.135,1.499 Q17.191,1.825 17.191,3.89 L17.191,9.78 Q17.191,11.013 16.322,11.882 Q15.454,12.75 14.221,12.75 L9.781,12.75 Q9.169,12.75 8.74,13.179 Q8.311,13.608 8.311,14.22 L8.311,20.11 Q8.311,20.893 9.099,21.02 Q12.001,21.469 14.906,21.019 Q15.691,20.894 15.691,20.11 L15.691,16.44 Q15.691,16.129 15.91,15.91 Q16.13,15.69 16.441,15.69 Q16.751,15.69 16.971,15.91 Q17.191,16.129 17.191,16.44 L17.191,20.11 Q17.191,22.175 15.135,22.501 Q12.001,22.987 8.862,22.501 Q6.811,22.171 6.811,20.11 L6.811,14.22 Q6.811,12.987 7.679,12.119 Q8.547,11.25 9.781,11.25 L14.221,11.25 Q15.691,11.25 15.691,9.78 L15.691,3.89 Q15.691,3.106 14.906,2.981 Q12.001,2.531 9.099,2.981 Q8.311,3.107 8.311,3.89 L8.311,7.56 Q8.311,7.871 8.091,8.09 Q7.871,8.31 7.561,8.31 Q7.25,8.31 7.03,8.09 Q6.811,7.871 6.811,7.56 Z"/>
  <path d="M16.44,6.81 L20.11,6.81 Q22.171,6.81 22.501,8.861 Q22.987,12 22.501,15.135 Q22.175,17.19 20.11,17.19 L12,17.19 Q11.689,17.19 11.47,16.97 Q11.25,16.751 11.25,16.44 Q11.25,16.129 11.47,15.91 Q11.689,15.69 12,15.69 L20.11,15.69 Q20.894,15.69 21.019,14.905 Q21.469,12 21.019,9.099 Q20.893,8.31 20.11,8.31 L16.44,8.31 Q16.129,8.31 15.91,8.09 Q15.69,7.871 15.69,7.56 Q15.69,7.249 15.91,7.03 Q16.129,6.81 16.44,6.81 Z"/>
  <path d="M2.769,12.947 Q2.812,13.923 2.97,14.9 Q3.095,15.69 3.88,15.69 L7.55,15.69 Q7.86,15.69 8.08,15.91 Q8.3,16.129 8.3,16.44 Q8.3,16.751 8.08,16.97 Q7.86,17.19 7.55,17.19 L3.88,17.19 Q1.814,17.19 1.489,15.14 Q1.317,14.076 1.27,13.013 Q1.257,12.703 1.466,12.474 Q1.676,12.244 1.986,12.231 Q2.297,12.217 2.526,12.427 Q2.755,12.637 2.769,12.947 Z"/>
  <path d="M12,8.31 L3.88,8.31 Q3.098,8.31 2.971,9.099 Q2.922,9.406 2.67,9.588 Q2.418,9.77 2.112,9.721 Q1.805,9.671 1.623,9.42 Q1.441,9.168 1.49,8.861 Q1.819,6.81 3.88,6.81 L12,6.81 Q12.311,6.81 12.531,7.03 Q12.75,7.249 12.75,7.56 Q12.75,7.871 12.531,8.09 Q12.311,8.31 12,8.31 Z"/>
  <path d="M11.14,4.78 Q11.14,5.59 10.33,5.59 Q9.519,5.59 9.519,4.78 Q9.519,3.97 10.33,3.97 Q10.66,3.97 10.9,4.21 L10.9,4.21 Q11.14,4.449 11.14,4.78 Z M9.64,4.78 Q9.64,5.071 9.839,5.27 L9.839,5.27 Q10.039,5.47 10.33,5.47 Q11.019,5.47 11.019,4.78 Q11.019,4.499 10.815,4.295 Q10.61,4.09 10.33,4.09 Q10.022,4.09 9.815,4.322 Q9.64,4.519 9.64,4.78 Z"/>
  <path d="M14.47,19.22 Q14.47,20.03 13.66,20.03 Q12.85,20.03 12.85,19.22 Q12.85,18.41 13.66,18.41 Q13.925,18.41 14.133,18.565 Q14.47,18.785 14.47,19.22 Z M12.97,19.22 Q12.97,19.653 13.364,19.851 Q13.255,19.796 13.169,19.71 Q13.369,19.91 13.66,19.91 Q13.968,19.91 14.175,19.677 Q14.35,19.481 14.35,19.22 Q14.35,18.875 14.177,18.702 L13.7,19.18 L13.997,18.586 Q13.856,18.53 13.66,18.53 Q12.97,18.53 12.97,19.22 Z"/>
</svg>

