<svg xmlns="http://www.w3.org/2000/svg" width="24" height="24" viewBox="0 0 24 24">
  <defs/>
  <path d="M12,22.75 C10.95,22.75 9.9,22.67 8.86,22.51 C7.67,22.33 6.81,21.32 6.8,20.12 L6.8,14.22 C6.8,12.58 8.13,11.25 9.77,11.25 L14.21,11.25 C15.02,11.25 15.68,10.59 15.68,9.78 L15.68,3.89 C15.68,3.43 15.35,3.05 14.89,2.98 C12.96,2.68 11.01,2.68 9.08,2.98 C8.63,3.05 8.29,3.44 8.29,3.9 L8.29,7.57 C8.29,7.98 7.95,8.32 7.54,8.32 C7.13,8.32 6.79,7.98 6.79,7.57 L6.79,3.9 C6.8,2.7 7.66,1.69 8.85,1.51 C10.93,1.19 13.04,1.19 15.12,1.51 C16.31,1.69 17.17,2.7 17.18,3.9 L17.18,9.8 C17.18,11.44 15.85,12.77 14.21,12.77 L9.77,12.77 C8.96,12.77 8.3,13.43 8.3,14.24 L8.3,20.13 C8.3,20.59 8.63,20.97 9.09,21.04 C11.02,21.34 12.97,21.34 14.9,21.04 C15.35,20.97 15.69,20.58 15.69,20.12 L15.69,16.45 C15.69,16.04 16.03,15.7 16.44,15.7 C16.85,15.7 17.19,16.04 17.19,16.45 L17.19,20.12 C17.18,21.32 16.32,22.33 15.13,22.51 C14.1,22.67 13.05,22.75 12,22.75 Z"/>
  <path d="M12,17.19 C11.59,17.19 11.25,16.85 11.25,16.44 C11.25,16.03 11.59,15.69 12,15.69 L20.12,15.69 C20.58,15.69 20.96,15.36 21.03,14.9 C21.33,12.97 21.33,11.02 21.03,9.09 C20.96,8.63 20.58,8.3 20.12,8.3 L16.45,8.3 C16.04,8.3 15.7,7.96 15.7,7.55 C15.7,7.14 16.04,6.8 16.45,6.8 L20.12,6.8 C21.32,6.81 22.33,7.67 22.51,8.86 C22.83,10.94 22.83,13.05 22.51,15.13 C22.33,16.32 21.32,17.18 20.12,17.19 L12,17.19 Z"/>
  <path d="M7.56,17.19 L3.89,17.19 C2.69,17.18 1.68,16.32 1.5,15.13 C1.18,13.05 1.18,10.94 1.5,8.86 C1.68,7.67 2.69,6.81 3.89,6.8 L12,6.8 C12.41,6.8 12.75,7.14 12.75,7.55 C12.75,7.96 12.41,8.3 12,8.3 L3.88,8.3 C3.42,8.3 3.04,8.63 2.97,9.09 C2.67,11.02 2.67,12.97 2.97,14.9 C3.04,15.36 3.42,15.69 3.88,15.69 L7.55,15.69 C7.96,15.69 8.3,16.03 8.3,16.44 C8.3,16.85 7.97,17.19 7.56,17.19 Z"/>
  <path d="M10.329,5.58 C9.92,5.58 9.52,5.19 9.52,4.77 C9.52,4.35 9.91,3.97 10.329,3.97 C10.52,3.97 10.75,4.06 10.89,4.19 C11.04,4.33 11.14,4.57 11.14,4.77 C11.14,5.19 10.749,5.58 10.329,5.58 Z"/>
  <path d="M13.67,20.03 C13.26,20.03 12.86,19.64 12.86,19.22 C12.86,18.8 13.25,18.41 13.67,18.41 C13.86,18.41 14.09,18.5 14.23,18.63 C14.38,18.77 14.48,19.01 14.48,19.21 C14.47,19.64 14.08,20.03 13.67,20.03 Z"/>
</svg>

