<svg xmlns="http://www.w3.org/2000/svg" width="24" height="24" viewBox="0 0 24 24">
  <defs/>
  <path fill="#17191C" d="M11.636,1.344 Q12,1.142 12.364,1.344 L21.364,6.344 Q21.75,6.559 21.75,7 L21.75,12 Q21.75,12.39 21.43,12.614 L18.417,14.723 L21.361,16.343 Q21.75,16.557 21.75,17 L21.75,22 Q21.75,22.215 21.636,22.397 Q21.471,22.661 21.169,22.731 Q20.866,22.801 20.603,22.636 L16.959,20.359 L12.335,22.671 Q11.982,22.848 11.636,22.656 L2.636,17.656 Q2.25,17.441 2.25,17 L2.25,7 Q2.25,6.559 2.636,6.344 Z M12,2.858 L3.75,7.441 L3.75,16.559 L12.018,21.152 L16.665,18.829 Q17.041,18.641 17.397,18.864 L20.25,20.647 L20.25,17.443 L16.639,15.457 Q16.366,15.307 16.28,15.009 Q16.193,14.711 16.343,14.439 Q16.427,14.286 16.57,14.186 L20.25,11.61 L20.25,7.441 L12,2.858 Z"/>
  <path fill="#17191C" d="M11.634,5.746 Q12,5.54 12.366,5.746 L17.366,8.546 Q17.75,8.76 17.75,9.2 L17.75,14.8 Q17.75,15.239 17.366,15.454 L12.366,18.254 Q12,18.459 11.634,18.254 L6.634,15.454 Q6.25,15.239 6.25,14.8 L6.25,9.2 Q6.25,8.76 6.634,8.546 Z M12,7.259 L7.75,9.639 L7.75,14.36 L12,16.74 L16.25,14.36 L16.25,9.639 L12,7.259 Z"/>
  <path fill="#17191C" d="M3.361,6.343 L7.361,8.543 Q7.634,8.693 7.72,8.991 Q7.807,9.289 7.657,9.561 Q7.507,9.834 7.209,9.92 Q6.911,10.007 6.639,9.857 L2.639,7.657 Q2.366,7.507 2.28,7.209 Q2.193,6.911 2.343,6.639 Q2.493,6.366 2.791,6.28 Q3.089,6.193 3.361,6.343 Z"/>
  <path fill="#17191C" d="M2.639,16.343 L6.639,14.143 Q6.911,13.993 7.209,14.08 Q7.507,14.166 7.657,14.439 Q7.807,14.711 7.72,15.009 Q7.634,15.307 7.361,15.457 L3.361,17.657 Q3.089,17.807 2.791,17.72 Q2.493,17.634 2.343,17.361 Q2.193,17.089 2.28,16.791 Q2.366,16.493 2.639,16.343 Z"/>
  <path fill="#17191C" d="M21.361,7.657 L17.361,9.857 Q17.089,10.007 16.791,9.92 Q16.493,9.834 16.343,9.561 Q16.193,9.289 16.28,8.991 Q16.366,8.693 16.639,8.543 L20.639,6.343 Q20.911,6.193 21.209,6.28 Q21.507,6.366 21.657,6.639 Q21.807,6.911 21.72,7.209 Q21.634,7.507 21.361,7.657 Z"/>
  <path fill="#17191C" d="M11.25,6 L11.25,2 Q11.25,1.689 11.47,1.47 Q11.689,1.25 12,1.25 Q12.311,1.25 12.53,1.47 Q12.75,1.689 12.75,2 L12.75,6 Q12.75,6.311 12.53,6.53 Q12.311,6.75 12,6.75 Q11.689,6.75 11.47,6.53 Q11.25,6.311 11.25,6 Z"/>
  <path fill="#17191C" d="M11.25,22 L11.25,18 Q11.25,17.689 11.47,17.47 Q11.689,17.25 12,17.25 Q12.311,17.25 12.53,17.47 Q12.75,17.689 12.75,18 L12.75,22 Q12.75,22.311 12.53,22.53 Q12.311,22.75 12,22.75 Q11.689,22.75 11.47,22.53 Q11.25,22.311 11.25,22 Z"/>
  <path fill="#17191C" d="M16.25,20 L16.25,15 L17.75,15 L17.75,20 L16.25,20 Z"/>
</svg>

