<svg xmlns="http://www.w3.org/2000/svg" width="24" height="24" viewBox="0 0 24 24">
  <defs/>
  <path d="M6.615,5.845 L3.75,7.441 L3.75,16.559 L12.018,21.152 L16.665,18.829 Q17.041,18.641 17.397,18.864 L20.25,20.647 L20.25,17.442 L16.636,15.436 Q16.364,15.285 16.279,14.986 Q16.193,14.688 16.344,14.416 Q16.429,14.264 16.572,14.164 L20.25,11.608 L20.25,7.441 L11.999,2.858 L10.323,3.786 Q10.052,3.937 9.753,3.851 Q9.454,3.765 9.304,3.493 Q9.153,3.222 9.239,2.923 Q9.325,2.624 9.597,2.474 L11.637,1.344 Q12.001,1.142 12.364,1.344 L21.364,6.344 Q21.75,6.559 21.75,7 L21.75,12 Q21.75,12.392 21.428,12.616 L18.417,14.709 L21.364,16.344 Q21.75,16.558 21.75,17 L21.75,22 Q21.75,22.215 21.636,22.397 Q21.471,22.661 21.169,22.731 Q20.866,22.801 20.603,22.636 L16.959,20.359 L12.335,22.671 Q11.982,22.848 11.636,22.656 L2.636,17.656 Q2.25,17.441 2.25,17 L2.25,7 Q2.25,6.559 2.635,6.345 L5.885,4.535 Q6.156,4.384 6.455,4.469 Q6.754,4.554 6.905,4.825 Q7.056,5.096 6.971,5.395 Q6.886,5.694 6.615,5.845 Z"/>
  <path d="M11.636,5.784 Q12,5.582 12.364,5.784 L17.364,8.564 Q17.75,8.779 17.75,9.22 L17.75,14.78 Q17.75,15.221 17.364,15.435 L12.364,18.215 Q12,18.418 11.636,18.215 L6.636,15.435 Q6.25,15.221 6.25,14.78 L6.25,9.22 Q6.25,8.779 6.636,8.564 Z M12,7.298 L7.75,9.661 L7.75,14.339 L12,16.702 L16.25,14.339 L16.25,9.661 L12,7.298 Z"/>
  <path d="M3.365,6.345 L7.365,8.575 Q7.637,8.726 7.721,9.025 Q7.806,9.324 7.655,9.595 Q7.504,9.867 7.205,9.951 Q6.906,10.036 6.635,9.885 L2.635,7.655 Q2.363,7.504 2.279,7.205 Q2.194,6.906 2.345,6.635 Q2.496,6.363 2.795,6.279 Q3.094,6.194 3.365,6.345 Z"/>
  <path d="M2.635,16.345 L6.635,14.115 Q6.906,13.964 7.205,14.049 Q7.504,14.133 7.655,14.405 Q7.806,14.676 7.721,14.975 Q7.637,15.274 7.365,15.425 L3.365,17.655 Q3.094,17.806 2.795,17.721 Q2.496,17.637 2.345,17.365 Q2.194,17.094 2.279,16.795 Q2.363,16.496 2.635,16.345 Z"/>
  <path d="M21.365,7.655 L17.365,9.885 Q17.094,10.036 16.795,9.951 Q16.496,9.867 16.345,9.595 Q16.194,9.324 16.279,9.025 Q16.363,8.726 16.635,8.575 L20.635,6.345 Q20.906,6.194 21.205,6.279 Q21.504,6.363 21.655,6.635 Q21.806,6.906 21.721,7.205 Q21.637,7.504 21.365,7.655 Z"/>
  <path d="M11.25,6 L11.25,2 Q11.25,1.689 11.47,1.47 Q11.689,1.25 12,1.25 Q12.311,1.25 12.53,1.47 Q12.75,1.689 12.75,2 L12.75,6 Q12.75,6.311 12.53,6.53 Q12.311,6.75 12,6.75 Q11.689,6.75 11.47,6.53 Q11.25,6.311 11.25,6 Z"/>
  <path d="M11.25,22 L11.25,18 Q11.25,17.689 11.47,17.47 Q11.689,17.25 12,17.25 Q12.311,17.25 12.53,17.47 Q12.75,17.689 12.75,18 L12.75,22 Q12.75,22.311 12.53,22.53 Q12.311,22.75 12,22.75 Q11.689,22.75 11.47,22.53 Q11.25,22.311 11.25,22 Z"/>
  <path d="M16.25,20 L16.25,15 L17.75,15 L17.75,20 L16.25,20 Z"/>
</svg>

