<svg xmlns="http://www.w3.org/2000/svg" width="24" height="24" viewBox="0 0 24 24">
  <defs/>
  <path d="M20.49,6.708 L12.49,2.268 C12.19,2.098 11.82,2.098 11.52,2.268 L3.52,6.708 C3.2,6.888 3.01,7.218 3.01,7.578 L3.01,16.398 C3.01,16.758 3.21,17.098 3.52,17.268 L11.54,21.728 C11.83,21.888 12.18,21.898 12.47,21.748 L16.5,19.738 C16.81,19.578 17.18,19.598 17.48,19.788 L19.47,21.038 C20.14,21.458 21,20.978 21,20.188 L21,17.578 C21,17.218 20.8,16.878 20.49,16.708 L17.49,15.048 C17.19,14.878 16.82,14.878 16.52,15.048 L12.49,17.288 C12.19,17.458 11.82,17.458 11.52,17.288 L7.52,15.068 C7.2,14.888 7.01,14.558 7.01,14.198 L7.01,9.818 C7.01,9.458 7.21,9.118 7.52,8.948 L11.52,6.728 C11.82,6.558 12.19,6.558 12.49,6.728 L16.49,8.948 C16.81,9.128 17,9.458 17,9.818 L17,12.878 C17,13.688 17.91,14.158 18.57,13.698 L20.57,12.308 C20.84,12.118 21,11.818 21,11.488 L21,7.598 C21,7.228 20.8,6.888 20.49,6.708 Z"/>
  <path d="M15.861,10.422 L15.861,13.572 C15.861,13.922 15.671,14.242 15.361,14.412 L12.471,16.022 C12.181,16.182 11.821,16.182 11.531,16.022 L8.641,14.412 C8.331,14.242 8.141,13.922 8.141,13.572 L8.141,10.422 C8.141,10.072 8.331,9.752 8.641,9.582 L11.531,7.972 C11.821,7.812 12.181,7.812 12.471,7.972 L15.361,9.582 C15.671,9.752 15.861,10.072 15.861,10.422 Z"/>
</svg>

