<svg xmlns="http://www.w3.org/2000/svg" width="24" height="24" viewBox="0 0 24 24">
  <defs/>
  <path d="M12,22.75 C11.87,22.75 11.75,22.72 11.64,22.66 L2.64,17.66 C2.4,17.53 2.25,17.28 2.25,17 L2.25,7 C2.25,6.73 2.4,6.48 2.64,6.34 L11.64,1.34 C11.87,1.21 12.14,1.21 12.37,1.34 L21.37,6.34 C21.61,6.47 21.76,6.72 21.76,7 L21.76,12 C21.76,12.25 21.64,12.48 21.44,12.62 L18.43,14.71 L21.38,16.35 C21.62,16.48 21.77,16.73 21.77,17.01 L21.77,22.01 C21.77,22.28 21.62,22.53 21.38,22.67 C21.14,22.8 20.85,22.8 20.62,22.65 L16.98,20.37 L12.36,22.68 C12.23,22.72 12.12,22.75 12,22.75 Z M3.75,16.56 L12.02,21.15 L16.67,18.83 C16.9,18.71 17.18,18.73 17.4,18.86 L20.25,20.64 L20.25,17.43 L16.64,15.42 C16.41,15.29 16.27,15.06 16.26,14.8 C16.25,14.54 16.37,14.29 16.58,14.15 L20.26,11.6 L20.26,7.43 L12.01,2.85 L3.76,7.43 L3.76,16.56 L3.75,16.56 Z"/>
  <path d="M12,18.31 C11.87,18.31 11.75,18.28 11.64,18.22 L6.64,15.44 C6.4,15.31 6.25,15.06 6.25,14.78 L6.25,9.22 C6.25,8.95 6.4,8.7 6.64,8.56 L11.64,5.78 C11.87,5.65 12.14,5.65 12.37,5.78 L17.37,8.56 C17.61,8.69 17.76,8.94 17.76,9.22 L17.76,14.78 C17.76,15.05 17.61,15.3 17.37,15.44 L12.37,18.22 C12.25,18.27 12.13,18.31 12,18.31 Z M7.75,14.34 L12,16.7 L16.25,14.34 L16.25,9.67 L12,7.3 L7.75,9.66 L7.75,14.34 Z"/>
  <path d="M7,9.98 C6.88,9.98 6.75,9.95 6.64,9.89 L2.64,7.66 C2.28,7.46 2.15,7 2.35,6.64 C2.55,6.28 3,6.15 3.37,6.35 L7.37,8.58 C7.73,8.78 7.86,9.24 7.66,9.6 C7.51,9.84 7.26,9.98 7,9.98 Z"/>
  <path d="M3,17.75 C2.74,17.75 2.48,17.61 2.34,17.36 C2.14,17 2.27,16.54 2.63,16.34 L6.63,14.11 C7,13.91 7.45,14.04 7.65,14.4 C7.85,14.76 7.72,15.22 7.36,15.42 L3.36,17.65 C3.25,17.72 3.12,17.75 3,17.75 Z"/>
  <path d="M17,9.98 C16.74,9.98 16.48,9.84 16.34,9.59 C16.14,9.23 16.27,8.77 16.63,8.57 L20.63,6.34 C21,6.14 21.45,6.27 21.65,6.63 C21.85,6.99 21.72,7.45 21.36,7.65 L17.36,9.88 C17.25,9.95 17.13,9.98 17,9.98 Z"/>
  <path d="M12,6.75 C11.59,6.75 11.25,6.41 11.25,6 L11.25,2 C11.25,1.59 11.59,1.25 12,1.25 C12.41,1.25 12.75,1.59 12.75,2 L12.75,6 C12.75,6.41 12.41,6.75 12,6.75 Z"/>
  <path d="M12,22.75 C11.59,22.75 11.25,22.41 11.25,22 L11.25,18 C11.25,17.59 11.59,17.25 12,17.25 C12.41,17.25 12.75,17.59 12.75,18 L12.75,22 C12.75,22.41 12.41,22.75 12,22.75 Z"/>
  <path d="M17.75,15 L16.25,15 L16.25,20 L17.75,20 L17.75,15 Z"/>
</svg>

