<svg xmlns="http://www.w3.org/2000/svg" width="24" height="24" viewBox="0 0 24 24">
  <defs/>
  <path fill="#292D32" d="M17.001,12.59 L14.321,12.59 Q13.48,12.59 12.92,12.01 Q12.381,11.451 12.381,10.65 L12.381,9.16 Q12.381,8.359 12.92,7.8 Q13.48,7.22 14.321,7.22 L15.811,7.22 Q16.609,7.22 17.18,7.791 Q17.751,8.362 17.751,9.16 L17.751,11.84 Q17.751,12.151 17.531,12.37 Q17.312,12.59 17.001,12.59 Z M16.251,11.09 L16.251,9.16 Q16.251,8.72 15.811,8.72 L14.321,8.72 Q14.117,8.72 13.999,8.842 Q13.881,8.965 13.881,9.16 L13.881,10.65 Q13.881,11.09 14.321,11.09 L16.251,11.09 Z"/>
  <path fill="#292D32" d="M17.75,11.84 Q17.75,15.22 15.292,16.675 Q15.025,16.834 14.724,16.757 Q14.423,16.68 14.265,16.412 Q14.107,16.145 14.184,15.844 Q14.261,15.543 14.528,15.385 Q16.25,14.365 16.25,11.84 Q16.25,11.529 16.47,11.31 Q16.69,11.09 17,11.09 Q17.311,11.09 17.531,11.31 Q17.75,11.529 17.75,11.84 Z"/>
  <path fill="#292D32" d="M10.86,12.59 L8.18,12.59 Q6.24,12.59 6.24,10.65 L6.24,9.16 Q6.24,8.359 6.779,7.8 Q7.34,7.22 8.18,7.22 L9.67,7.22 Q10.468,7.22 11.039,7.791 Q11.61,8.362 11.61,9.16 L11.61,11.84 Q11.61,12.151 11.391,12.37 Q11.171,12.59 10.86,12.59 Z M10.11,11.09 L10.11,9.16 Q10.11,8.72 9.67,8.72 L8.18,8.72 Q7.976,8.72 7.859,8.842 Q7.74,8.965 7.74,9.16 L7.74,10.65 Q7.74,11.09 8.18,11.09 L10.11,11.09 Z"/>
  <path fill="#292D32" d="M11.609,11.84 Q11.61,15.22 9.152,16.675 Q8.884,16.834 8.584,16.757 Q8.283,16.68 8.124,16.412 Q7.966,16.145 8.043,15.844 Q8.12,15.543 8.387,15.385 Q10.11,14.365 10.109,11.84 Q10.109,11.529 10.329,11.31 Q10.549,11.09 10.859,11.09 Q11.17,11.09 11.39,11.31 Q11.609,11.529 11.609,11.84 Z"/>
  <path fill="#292D32" d="M4.6,6.449 Q2.75,8.922 2.75,12 Q2.75,15.829 5.46,18.54 Q8.171,21.25 12,21.25 Q15.829,21.25 18.54,18.54 Q21.25,15.829 21.25,12 Q21.25,8.171 18.54,5.46 Q15.829,2.75 12,2.75 Q10.031,2.75 8.276,3.535 Q7.993,3.661 7.702,3.551 Q7.412,3.44 7.285,3.156 Q7.159,2.873 7.269,2.582 Q7.38,2.292 7.664,2.165 Q9.711,1.25 12,1.25 Q16.451,1.25 19.6,4.4 Q22.75,7.549 22.75,12 Q22.75,16.451 19.6,19.6 Q16.451,22.75 12,22.75 Q7.549,22.75 4.4,19.6 Q1.25,16.451 1.25,12 Q1.25,8.422 3.4,5.551 Q3.586,5.302 3.893,5.258 Q4.201,5.213 4.449,5.4 Q4.698,5.586 4.742,5.893 Q4.787,6.201 4.6,6.449 Z"/>
</svg>

