<svg xmlns="http://www.w3.org/2000/svg" width="47" height="46" viewBox="0 0 47 46">
  <defs/>
  <path fill="#292D32" d="M11.88,3.86 Q11.88,0.53 15.21,0.53 L18.42,0.53 Q21.75,0.53 21.75,3.86 L21.75,9.66 Q21.75,10.41 21,10.41 Q20.25,10.41 20.25,9.66 L20.25,3.86 Q20.25,2.03 18.42,2.03 L15.21,2.03 Q13.38,2.03 13.38,3.86 Q13.38,4.61 12.63,4.61 Q11.88,4.61 11.88,3.86 Z"/>
  <path fill="#292D32" d="M21,10.4 L15.2,10.4 Q13.356,10.4 12.408,8.913 Q12.004,8.281 12.637,7.878 Q13.269,7.474 13.672,8.107 Q14.178,8.9 15.2,8.9 L21,8.9 Q21.75,8.9 21.75,9.65 Q21.75,10.4 21,10.4 Z"/>
  <path fill="#292D32" d="M21.75,9.65 Q21.75,14.131 20.664,16.064 Q19.789,17.621 16.853,19.365 Q16.208,19.748 15.825,19.103 Q15.442,18.458 16.087,18.075 Q18.678,16.536 19.356,15.329 Q20.25,13.739 20.25,9.65 Q20.25,8.9 21,8.9 Q21.75,8.9 21.75,9.65 Z"/>
  <path fill="#292D32" d="M9.371,10.4 L3.571,10.4 Q2.125,10.4 1.169,9.415 Q0.241,8.459 0.241,7.07 L0.241,3.85 Q0.241,0.52 3.571,0.52 L6.801,0.52 Q10.131,0.52 10.131,3.85 L10.131,9.65 Q10.131,10.4 9.381,10.4 L9.376,10.4 Z M8.631,8.9 L8.631,3.85 Q8.631,3.096 8.093,2.558 Q7.555,2.02 6.801,2.02 L3.571,2.02 Q1.741,2.02 1.741,3.85 L1.741,7.07 Q1.741,8.9 3.571,8.9 L8.631,8.9 Z"/>
  <path fill="#292D32" d="M10.121,9.65 Q10.121,14.131 9.035,16.064 Q8.16,17.621 5.224,19.365 Q4.902,19.556 4.645,19.491 Q4.388,19.425 4.196,19.103 Q3.813,18.458 4.458,18.075 Q7.049,16.536 7.727,15.329 Q8.621,13.739 8.621,9.65 Q8.621,8.9 9.371,8.9 Q10.121,8.9 10.121,9.65 Z"/>
</svg>

