<svg xmlns="http://www.w3.org/2000/svg" width="24" height="24" viewBox="0 0 24 24">
  <defs/>
  <path fill="#292D32" d="M21.999,12.4 L16.199,12.4 Q12.869,12.4 12.869,9.07 L12.869,5.85 Q12.869,4.461 13.797,3.505 Q14.753,2.52 16.199,2.52 L19.419,2.52 Q20.795,2.52 21.772,3.497 Q22.749,4.474 22.749,5.85 L22.749,11.65 Q22.749,11.961 22.529,12.18 Q22.31,12.4 21.999,12.4 Z M21.249,10.9 L21.249,5.85 Q21.249,4.02 19.419,4.02 L16.199,4.02 Q14.369,4.02 14.369,5.85 L14.369,9.07 Q14.369,9.85 14.874,10.37 Q15.388,10.9 16.199,10.9 L21.249,10.9 Z"/>
  <path fill="#292D32" d="M22.749,11.65 Q22.749,16.131 21.663,18.064 Q20.788,19.62 17.852,21.365 Q17.585,21.523 17.284,21.447 Q16.983,21.37 16.824,21.103 Q16.665,20.836 16.742,20.535 Q16.819,20.234 17.086,20.075 Q19.676,18.536 20.355,17.329 Q21.249,15.738 21.249,11.65 Q21.249,11.339 21.468,11.12 Q21.688,10.9 21.999,10.9 Q22.309,10.9 22.529,11.12 Q22.749,11.339 22.749,11.65 Z"/>
  <g opacity="0.4">
    <path fill="#292D32" d="M10.37,12.4 L4.57,12.4 Q1.24,12.4 1.24,9.07 L1.24,5.85 Q1.24,4.461 2.168,3.505 Q3.124,2.52 4.57,2.52 L7.8,2.52 Q9.176,2.52 10.153,3.497 Q11.13,4.474 11.13,5.85 L11.13,11.65 Q11.13,11.961 10.911,12.18 Q10.691,12.4 10.38,12.4 L10.375,12.4 Z M9.63,10.9 L9.63,5.85 Q9.63,4.02 7.8,4.02 L4.57,4.02 Q2.74,4.02 2.74,5.85 L2.74,9.07 Q2.74,9.85 3.245,10.37 Q3.759,10.9 4.57,10.9 L9.63,10.9 Z"/>
    <path fill="#292D32" d="M11.12,11.65 Q11.12,16.131 10.034,18.064 Q9.159,19.62 6.223,21.365 Q5.956,21.523 5.655,21.447 Q5.354,21.37 5.195,21.103 Q5.036,20.836 5.113,20.535 Q5.19,20.234 5.457,20.075 Q8.047,18.536 8.726,17.329 Q9.62,15.738 9.62,11.65 Q9.62,11.339 9.839,11.12 Q10.059,10.9 10.37,10.9 Q10.68,10.9 10.9,11.12 Q11.12,11.339 11.12,11.65 Z"/>
  </g>
</svg>

