<svg xmlns="http://www.w3.org/2000/svg" width="24" height="24" viewBox="0 0 24 24">
  <defs/>
  <path fill="#292D32" d="M7,11.41 L9.68,11.41 Q11.62,11.41 11.62,13.35 L11.62,14.84 Q11.62,15.641 11.081,16.2 Q10.521,16.78 9.68,16.78 L8.19,16.78 Q6.25,16.78 6.25,14.84 L6.25,12.16 Q6.25,11.849 6.47,11.63 Q6.689,11.41 7,11.41 Z M7.75,12.91 L7.75,14.84 Q7.75,15.28 8.19,15.28 L9.68,15.28 Q10.12,15.28 10.12,14.84 L10.12,13.35 Q10.12,12.91 9.68,12.91 L7.75,12.91 Z"/>
  <path fill="#292D32" d="M6.25,12.16 Q6.25,8.781 8.708,7.325 Q8.975,7.166 9.276,7.243 Q9.577,7.32 9.735,7.588 Q9.894,7.855 9.817,8.156 Q9.74,8.457 9.472,8.615 Q7.75,9.635 7.75,12.16 Q7.75,12.471 7.53,12.69 Q7.311,12.91 7,12.91 Q6.689,12.91 6.47,12.69 Q6.25,12.471 6.25,12.16 Z"/>
  <path fill="#292D32" d="M13.141,11.41 L15.821,11.41 Q17.761,11.41 17.761,13.35 L17.761,14.84 Q17.761,15.641 17.221,16.2 Q16.661,16.78 15.821,16.78 L14.331,16.78 Q12.391,16.78 12.391,14.84 L12.391,12.16 Q12.391,11.849 12.61,11.63 Q12.83,11.41 13.141,11.41 Z M13.891,12.91 L13.891,14.84 Q13.891,15.28 14.331,15.28 L15.821,15.28 Q16.261,15.28 16.261,14.84 L16.261,13.35 Q16.261,12.91 15.821,12.91 L13.891,12.91 Z"/>
  <path fill="#292D32" d="M12.391,12.16 Q12.391,8.781 14.848,7.325 Q15.116,7.166 15.417,7.243 Q15.718,7.32 15.876,7.588 Q16.034,7.855 15.957,8.156 Q15.88,8.457 15.613,8.615 Q13.891,9.635 13.891,12.16 Q13.891,12.471 13.671,12.69 Q13.451,12.91 13.141,12.91 Q12.83,12.91 12.61,12.69 Q12.391,12.471 12.391,12.16 Z"/>
  <path fill="#292D32" d="M4.6,6.449 Q2.75,8.922 2.75,12 Q2.75,15.829 5.46,18.54 Q8.171,21.25 12,21.25 Q15.829,21.25 18.54,18.54 Q21.25,15.829 21.25,12 Q21.25,8.171 18.54,5.46 Q15.829,2.75 12,2.75 Q10.031,2.75 8.276,3.535 Q7.993,3.661 7.702,3.551 Q7.412,3.44 7.285,3.156 Q7.159,2.873 7.269,2.582 Q7.38,2.292 7.664,2.165 Q9.711,1.25 12,1.25 Q16.451,1.25 19.6,4.4 Q22.75,7.549 22.75,12 Q22.75,16.451 19.6,19.6 Q16.451,22.75 12,22.75 Q7.549,22.75 4.4,19.6 Q1.25,16.451 1.25,12 Q1.25,8.422 3.4,5.551 Q3.586,5.302 3.893,5.258 Q4.201,5.213 4.449,5.4 Q4.698,5.586 4.742,5.893 Q4.787,6.201 4.6,6.449 Z"/>
</svg>

