<svg xmlns="http://www.w3.org/2000/svg" width="24" height="24" viewBox="0 0 24 24">
  <defs/>
  <path fill="#292D32" d="M2,11.6 L7.8,11.6 Q11.13,11.6 11.13,14.93 L11.13,18.15 Q11.13,19.539 10.202,20.495 Q9.246,21.48 7.8,21.48 L4.58,21.48 Q3.204,21.48 2.227,20.503 Q1.25,19.526 1.25,18.15 L1.25,12.35 Q1.25,12.039 1.47,11.82 Q1.689,11.6 2,11.6 Z M2.75,13.1 L2.75,18.15 Q2.75,18.904 3.288,19.442 Q3.826,19.98 4.58,19.98 L7.8,19.98 Q9.63,19.98 9.63,18.15 L9.63,14.93 Q9.63,14.15 9.126,13.63 Q8.611,13.1 7.8,13.1 L2.75,13.1 Z"/>
  <path fill="#292D32" d="M1.25,12.35 Q1.25,7.869 2.336,5.936 Q3.211,4.379 6.147,2.635 Q6.414,2.477 6.715,2.553 Q7.016,2.63 7.175,2.897 Q7.333,3.164 7.257,3.465 Q7.18,3.766 6.913,3.925 Q4.322,5.464 3.644,6.671 Q2.75,8.261 2.75,12.35 Q2.75,12.661 2.53,12.88 Q2.311,13.1 2,13.1 Q1.689,13.1 1.47,12.88 Q1.25,12.661 1.25,12.35 Z"/>
  <path fill="#292D32" d="M13.63,11.6 L19.43,11.6 Q20.876,11.6 21.832,12.585 Q22.76,13.541 22.76,14.93 L22.76,18.15 Q22.76,19.539 21.832,20.495 Q20.876,21.48 19.43,21.48 L16.21,21.48 Q14.834,21.48 13.857,20.503 Q12.88,19.526 12.88,18.15 L12.88,12.35 Q12.88,12.039 13.1,11.82 Q13.319,11.6 13.63,11.6 Z M14.38,13.1 L14.38,18.15 Q14.38,19.98 16.21,19.98 L19.43,19.98 Q21.26,19.98 21.26,18.15 L21.26,14.93 Q21.26,13.1 19.43,13.1 L14.38,13.1 Z"/>
  <path fill="#292D32" d="M12.88,12.35 Q12.88,7.869 13.966,5.936 Q14.841,4.379 17.777,2.635 Q18.044,2.477 18.345,2.553 Q18.646,2.63 18.805,2.897 Q18.963,3.164 18.887,3.465 Q18.81,3.766 18.543,3.925 Q15.952,5.464 15.274,6.671 Q14.38,8.261 14.38,12.35 Q14.38,12.661 14.16,12.88 Q13.941,13.1 13.63,13.1 Q13.319,13.1 13.1,12.88 Q12.88,12.661 12.88,12.35 Z"/>
</svg>

