<svg xmlns="http://www.w3.org/2000/svg" width="24" height="24" viewBox="0 0 24 24">
  <defs/>
  <path fill="#292D32" d="M9,22.75 Q1.25,22.75 1.25,15 L1.25,9 Q1.25,1.25 9,1.25 L15,1.25 Q22.75,1.25 22.75,9 L22.75,15 Q22.75,22.75 15,22.75 Z M9,21.25 L15,21.25 Q18.439,21.25 19.845,19.845 Q21.25,18.439 21.25,15 L21.25,9 Q21.25,2.75 15,2.75 L9,2.75 Q2.75,2.75 2.75,9 L2.75,15 Q2.75,18.439 4.155,19.845 Q5.561,21.25 9,21.25 Z"/>
  <path fill="#292D32" d="M17,12.59 L14.32,12.59 Q13.479,12.59 12.919,12.01 Q12.38,11.451 12.38,10.65 L12.38,9.16 Q12.38,8.359 12.919,7.8 Q13.479,7.22 14.32,7.22 L15.81,7.22 Q17.75,7.22 17.75,9.16 L17.75,11.84 Q17.75,12.151 17.53,12.37 Q17.311,12.59 17,12.59 Z M16.25,11.09 L16.25,9.16 Q16.25,8.72 15.81,8.72 L14.32,8.72 Q14.116,8.72 13.998,8.842 Q13.88,8.965 13.88,9.16 L13.88,10.65 Q13.88,11.09 14.32,11.09 L16.25,11.09 Z"/>
  <path fill="#292D32" d="M17.75,11.84 Q17.75,15.22 15.292,16.675 Q15.025,16.834 14.724,16.757 Q14.423,16.68 14.265,16.412 Q14.106,16.145 14.183,15.844 Q14.26,15.543 14.528,15.385 Q16.25,14.365 16.25,11.84 Q16.25,11.529 16.47,11.31 Q16.689,11.09 17,11.09 Q17.311,11.09 17.53,11.31 Q17.75,11.529 17.75,11.84 Z"/>
  <path fill="#292D32" d="M10.86,12.59 L8.18,12.59 Q7.339,12.59 6.779,12.01 Q6.24,11.451 6.24,10.65 L6.24,9.16 Q6.24,8.359 6.779,7.8 Q7.339,7.22 8.18,7.22 L9.67,7.22 Q11.61,7.22 11.61,9.16 L11.61,11.84 Q11.61,12.151 11.39,12.37 Q11.171,12.59 10.86,12.59 Z M10.11,11.09 L10.11,9.16 Q10.11,8.72 9.67,8.72 L8.18,8.72 Q7.976,8.72 7.858,8.842 Q7.74,8.965 7.74,9.16 L7.74,10.65 Q7.74,11.09 8.18,11.09 L10.11,11.09 Z"/>
  <path fill="#292D32" d="M11.61,11.84 Q11.61,15.22 9.152,16.675 Q8.885,16.834 8.584,16.757 Q8.283,16.68 8.125,16.412 Q7.966,16.145 8.043,15.844 Q8.12,15.543 8.388,15.385 Q10.11,14.365 10.11,11.84 Q10.11,11.529 10.33,11.31 Q10.549,11.09 10.86,11.09 Q11.171,11.09 11.39,11.31 Q11.61,11.529 11.61,11.84 Z"/>
</svg>

