<svg xmlns="http://www.w3.org/2000/svg" width="24" height="24" viewBox="0 0 24 24">
  <defs/>
  <path fill="#292D32" d="M15.908,12.371 L20.598,12.371 C20.518,17.041 19.598,17.811 16.728,19.511 C16.398,19.711 16.288,20.131 16.488,20.471 C16.688,20.801 17.108,20.911 17.448,20.711 C20.828,18.711 22.008,17.491 22.008,11.671 L22.008,6.281 C22.008,4.571 20.618,3.191 18.918,3.191 L15.918,3.191 C14.158,3.191 12.828,4.521 12.828,6.281 L12.828,9.281 C12.818,11.041 14.148,12.371 15.908,12.371 Z"/>
  <path fill="#292D32" d="M5.09,12.371 L9.78,12.371 C9.7,17.041 8.78,17.811 5.91,19.511 C5.58,19.711 5.47,20.131 5.67,20.471 C5.87,20.801 6.29,20.911 6.63,20.711 C10.01,18.711 11.19,17.491 11.19,11.671 L11.19,6.281 C11.19,4.571 9.8,3.191 8.1,3.191 L5.1,3.191 C3.33,3.191 2,4.521 2,6.281 L2,9.281 C2,11.041 3.33,12.371 5.09,12.371 Z"/>
</svg>

