<svg xmlns="http://www.w3.org/2000/svg" width="24" height="24" viewBox="0 0 24 24">
  <defs/>
  <path fill="#292D32" d="M22,12.4 L16.2,12.4 Q14.754,12.4 13.798,11.415 Q12.87,10.459 12.87,9.07 L12.87,5.85 Q12.87,4.461 13.798,3.505 Q14.754,2.52 16.2,2.52 L19.42,2.52 Q20.796,2.52 21.773,3.497 Q22.75,4.474 22.75,5.85 L22.75,11.65 Q22.75,11.961 22.53,12.18 Q22.311,12.4 22,12.4 Z M21.25,10.9 L21.25,5.85 Q21.25,4.02 19.42,4.02 L16.2,4.02 Q14.37,4.02 14.37,5.85 L14.37,9.07 Q14.37,9.85 14.874,10.37 Q15.389,10.9 16.2,10.9 L21.25,10.9 Z"/>
  <path fill="#292D32" d="M22.75,11.65 Q22.75,16.131 21.664,18.064 Q20.789,19.62 17.853,21.365 Q17.586,21.523 17.285,21.447 Q16.984,21.37 16.825,21.103 Q16.667,20.836 16.743,20.535 Q16.82,20.234 17.087,20.075 Q19.678,18.536 20.356,17.329 Q21.25,15.738 21.25,11.65 Q21.25,11.339 21.47,11.12 Q21.689,10.9 22,10.9 Q22.311,10.9 22.53,11.12 Q22.75,11.339 22.75,11.65 Z"/>
  <path fill="#292D32" d="M10.37,12.4 L4.57,12.4 Q1.24,12.4 1.24,9.07 L1.24,5.85 Q1.24,4.461 2.168,3.505 Q3.124,2.52 4.57,2.52 L7.8,2.52 Q9.176,2.52 10.153,3.497 Q11.13,4.474 11.13,5.85 L11.13,11.65 Q11.13,11.961 10.91,12.18 Q10.691,12.4 10.38,12.4 L10.375,12.4 Z M9.63,10.9 L9.63,5.85 Q9.63,5.096 9.092,4.558 Q8.554,4.02 7.8,4.02 L4.57,4.02 Q2.74,4.02 2.74,5.85 L2.74,9.07 Q2.74,9.85 3.244,10.37 Q3.759,10.9 4.57,10.9 L9.63,10.9 Z"/>
  <path fill="#292D32" d="M11.12,11.65 Q11.12,16.131 10.034,18.064 Q9.159,19.62 6.223,21.365 Q5.956,21.523 5.655,21.447 Q5.354,21.37 5.195,21.103 Q5.037,20.836 5.113,20.535 Q5.19,20.234 5.457,20.075 Q8.048,18.536 8.726,17.329 Q9.62,15.738 9.62,11.65 Q9.62,11.339 9.84,11.12 Q10.059,10.9 10.37,10.9 Q10.681,10.9 10.9,11.12 Q11.12,11.339 11.12,11.65 Z"/>
</svg>

