<svg xmlns="http://www.w3.org/2000/svg" width="24" height="24" viewBox="0 0 24 24">
  <defs/>
  <path fill="#292D32" d="M9.68,16.78 L8.19,16.78 C7.12,16.78 6.25,15.91 6.25,14.84 L6.25,12.17 C6.25,11.76 6.59,11.42 7,11.42 L9.68,11.42 C10.77,11.42 11.62,12.27 11.62,13.36 L11.62,14.85 C11.61,15.92 10.76,16.78 9.68,16.78 Z M7.75,12.91 L7.75,14.83 C7.75,15.07 7.95,15.27 8.19,15.27 L9.68,15.27 C10,15.27 10.12,15.03 10.12,14.83 L10.12,13.34 C10.12,13.14 10.01,12.9 9.68,12.9 L7.75,12.9 L7.75,12.91 Z"/>
  <path fill="#292D32" d="M7,12.91 C6.59,12.91 6.25,12.57 6.25,12.16 C6.25,9.08 6.92,8.39 8.71,7.33 C9.06,7.12 9.53,7.24 9.74,7.59 C9.95,7.94 9.83,8.41 9.48,8.62 C8.12,9.43 7.75,9.64 7.75,12.16 C7.75,12.58 7.41,12.91 7,12.91 Z"/>
  <path fill="#292D32" d="M15.809,16.78 L14.319,16.78 C13.249,16.78 12.379,15.91 12.379,14.84 L12.379,12.17 C12.379,11.76 12.719,11.42 13.129,11.42 L15.809,11.42 C16.899,11.42 17.749,12.27 17.749,13.36 L17.749,14.85 C17.749,15.92 16.899,16.78 15.809,16.78 Z M13.889,12.91 L13.889,14.83 C13.889,15.07 14.089,15.27 14.329,15.27 L15.819,15.27 C16.139,15.27 16.259,15.03 16.259,14.83 L16.259,13.34 C16.259,13.14 16.149,12.9 15.819,12.9 L13.889,12.9 L13.889,12.91 Z"/>
  <path fill="#292D32" d="M13.141,12.91 C12.731,12.91 12.391,12.57 12.391,12.16 C12.391,9.08 13.061,8.39 14.851,7.33 C15.211,7.12 15.671,7.24 15.881,7.59 C16.091,7.95 15.971,8.41 15.621,8.62 C14.261,9.43 13.891,9.64 13.891,12.16 C13.891,12.58 13.551,12.91 13.141,12.91 Z"/>
  <path fill="#292D32" d="M12,22.75 C6.07,22.75 1.25,17.93 1.25,12 C1.25,6.07 6.07,1.25 12,1.25 C17.93,1.25 22.75,6.07 22.75,12 C22.75,17.93 17.93,22.75 12,22.75 Z M12,2.75 C6.9,2.75 2.75,6.9 2.75,12 C2.75,17.1 6.9,21.25 12,21.25 C17.1,21.25 21.25,17.1 21.25,12 C21.25,6.9 17.1,2.75 12,2.75 Z"/>
</svg>

