<svg xmlns="http://www.w3.org/2000/svg" width="24" height="24" viewBox="0 0 24 24">
  <defs/>
  <g opacity="0.4">
    <path fill="#292D32" d="M2,11.6 L7.8,11.6 Q11.13,11.6 11.13,14.93 L11.13,18.15 Q11.13,19.539 10.202,20.495 Q9.246,21.48 7.8,21.48 L4.58,21.48 Q3.204,21.48 2.227,20.503 Q1.25,19.526 1.25,18.15 L1.25,12.35 Q1.25,12.039 1.47,11.82 Q1.689,11.6 2,11.6 Z M2.75,13.1 L2.75,18.15 Q2.75,18.904 3.288,19.442 Q3.826,19.98 4.58,19.98 L7.8,19.98 Q9.63,19.98 9.63,18.15 L9.63,14.93 Q9.63,14.15 9.126,13.63 Q8.611,13.1 7.8,13.1 L2.75,13.1 Z"/>
    <path fill="#292D32" d="M1.25,12.35 Q1.25,7.869 2.336,5.937 Q3.211,4.38 6.147,2.635 Q6.414,2.477 6.715,2.553 Q7.016,2.63 7.175,2.897 Q7.333,3.164 7.257,3.465 Q7.18,3.766 6.913,3.925 Q4.322,5.464 3.644,6.671 Q2.75,8.262 2.75,12.35 Q2.75,12.661 2.53,12.881 Q2.311,13.1 2,13.1 Q1.689,13.1 1.47,12.881 Q1.25,12.661 1.25,12.35 Z"/>
  </g>
  <path fill="#292D32" d="M13.631,11.6 L19.431,11.6 Q22.761,11.6 22.761,14.93 L22.761,18.15 Q22.761,19.539 21.833,20.495 Q20.877,21.48 19.431,21.48 L16.211,21.48 Q14.835,21.48 13.858,20.503 Q12.881,19.526 12.881,18.15 L12.881,12.35 Q12.881,12.039 13.101,11.82 Q13.32,11.6 13.631,11.6 Z M14.381,13.1 L14.381,18.15 Q14.381,18.904 14.919,19.442 Q15.457,19.98 16.211,19.98 L19.431,19.98 Q20.242,19.98 20.756,19.45 Q21.261,18.93 21.261,18.15 L21.261,14.93 Q21.261,13.1 19.431,13.1 L14.381,13.1 Z"/>
  <path fill="#292D32" d="M12.881,12.35 Q12.881,7.869 13.967,5.937 Q14.842,4.38 17.778,2.635 Q18.045,2.477 18.346,2.553 Q18.647,2.63 18.806,2.897 Q18.964,3.164 18.888,3.465 Q18.811,3.766 18.544,3.925 Q15.953,5.464 15.275,6.671 Q14.381,8.262 14.381,12.35 Q14.381,12.661 14.161,12.881 Q13.942,13.1 13.631,13.1 Q13.32,13.1 13.101,12.881 Q12.881,12.661 12.881,12.35 Z"/>
</svg>

