<svg xmlns="http://www.w3.org/2000/svg" width="24" height="24" viewBox="0 0 24 24">
  <defs/>
  <path fill="#292D32" opacity="0.4" d="M16.19,2 L7.82,2 C4.18,2 2.01,4.17 2.01,7.81 L2.01,16.18 C2.01,19.82 4.18,21.99 7.82,21.99 L16.19,21.99 C19.83,21.99 22,19.82 22,16.18 L22,7.81 C22,4.17 19.83,2 16.19,2 Z"/>
  <path fill="#292D32" d="M15.811,7.22 L14.321,7.22 C13.231,7.22 12.381,8.07 12.381,9.16 L12.381,10.65 C12.381,11.74 13.231,12.59 14.321,12.59 L16.231,12.59 C16.151,14.4 15.731,14.67 14.521,15.38 C14.161,15.59 14.051,16.05 14.261,16.41 C14.401,16.65 14.651,16.78 14.911,16.78 C15.041,16.78 15.171,16.75 15.291,16.68 C17.081,15.62 17.751,14.93 17.751,11.85 L17.751,9.18 C17.751,8.09 16.881,7.22 15.811,7.22 Z"/>
  <path fill="#292D32" d="M9.68,7.22 L8.19,7.22 C7.1,7.22 6.25,8.07 6.25,9.16 L6.25,10.65 C6.25,11.74 7.1,12.59 8.19,12.59 L10.1,12.59 C10.02,14.4 9.6,14.67 8.39,15.38 C8.03,15.59 7.92,16.05 8.13,16.41 C8.27,16.65 8.52,16.78 8.78,16.78 C8.91,16.78 9.04,16.75 9.16,16.68 C10.95,15.62 11.62,14.93 11.62,11.85 L11.62,9.18 C11.61,8.09 10.74,7.22 9.68,7.22 Z"/>
</svg>

