<svg xmlns="http://www.w3.org/2000/svg" width="24" height="24" viewBox="0 0 24 24">
  <defs/>
  <path fill="#292D32" d="M16.999,12.59 L14.319,12.59 C13.229,12.59 12.379,11.74 12.379,10.65 L12.379,9.16 C12.379,8.07 13.229,7.22 14.319,7.22 L15.809,7.22 C16.879,7.22 17.749,8.09 17.749,9.16 L17.749,11.83 C17.749,12.25 17.409,12.59 16.999,12.59 Z M14.319,8.72 C13.999,8.72 13.879,8.96 13.879,9.16 L13.879,10.65 C13.879,10.85 13.989,11.09 14.319,11.09 L16.249,11.09 L16.249,9.17 C16.249,8.93 16.049,8.73 15.809,8.73 L14.319,8.73 L14.319,8.72 Z"/>
  <path fill="#292D32" d="M14.91,16.78 C14.65,16.78 14.4,16.65 14.26,16.41 C14.05,16.05 14.17,15.59 14.52,15.38 C15.88,14.57 16.25,14.36 16.25,11.84 C16.25,11.43 16.59,11.09 17,11.09 C17.41,11.09 17.75,11.43 17.75,11.84 C17.75,14.92 17.08,15.61 15.29,16.67 C15.17,16.74 15.04,16.78 14.91,16.78 Z"/>
  <path fill="#292D32" d="M10.86,12.59 L8.18,12.59 C7.09,12.59 6.24,11.74 6.24,10.65 L6.24,9.16 C6.24,8.07 7.09,7.22 8.18,7.22 L9.67,7.22 C10.74,7.22 11.61,8.09 11.61,9.16 L11.61,11.83 C11.61,12.25 11.28,12.59 10.86,12.59 Z M8.19,8.72 C7.87,8.72 7.75,8.96 7.75,9.16 L7.75,10.65 C7.75,10.85 7.86,11.09 8.19,11.09 L10.12,11.09 L10.12,9.17 C10.12,8.93 9.92,8.73 9.68,8.73 L8.19,8.73 L8.19,8.72 Z"/>
  <path fill="#292D32" d="M8.769,16.78 C8.509,16.78 8.259,16.65 8.119,16.41 C7.909,16.05 8.029,15.59 8.379,15.38 C9.739,14.57 10.109,14.36 10.109,11.84 C10.109,11.43 10.449,11.09 10.859,11.09 C11.269,11.09 11.609,11.43 11.609,11.84 C11.609,14.92 10.939,15.61 9.149,16.67 C9.029,16.74 8.899,16.78 8.769,16.78 Z"/>
  <path fill="#292D32" d="M12,22.75 C6.07,22.75 1.25,17.93 1.25,12 C1.25,6.07 6.07,1.25 12,1.25 C17.93,1.25 22.75,6.07 22.75,12 C22.75,17.93 17.93,22.75 12,22.75 Z M12,2.75 C6.9,2.75 2.75,6.9 2.75,12 C2.75,17.1 6.9,21.25 12,21.25 C17.1,21.25 21.25,17.1 21.25,12 C21.25,6.9 17.1,2.75 12,2.75 Z"/>
</svg>

