<svg xmlns="http://www.w3.org/2000/svg" width="24" height="24" viewBox="0 0 24 24">
  <defs/>
  <path fill="#292D32" d="M7.8,21.47 L4.58,21.47 C2.75,21.47 1.25,19.98 1.25,18.14 L1.25,12.34 C1.25,11.93 1.59,11.59 2,11.59 L7.8,11.59 C9.7,11.59 11.13,13.02 11.13,14.92 L11.13,18.14 C11.12,20.04 9.69,21.47 7.8,21.47 Z M2.75,13.1 L2.75,18.15 C2.75,19.16 3.57,19.98 4.58,19.98 L7.8,19.98 C8.86,19.98 9.63,19.21 9.63,18.15 L9.63,14.93 C9.63,13.87 8.86,13.1 7.8,13.1 L2.75,13.1 Z"/>
  <path fill="#292D32" d="M2,13.1 C1.59,13.1 1.25,12.76 1.25,12.35 C1.25,6.1 2.52,4.79 6.15,2.64 C6.51,2.43 6.97,2.55 7.18,2.9 C7.39,3.26 7.27,3.72 6.92,3.93 C3.68,5.85 2.75,6.65 2.75,12.35 C2.75,12.76 2.41,13.1 2,13.1 Z"/>
  <path fill="#292D32" d="M19.421,21.47 L16.201,21.47 C14.371,21.47 12.871,19.98 12.871,18.14 L12.871,12.34 C12.871,11.93 13.211,11.59 13.621,11.59 L19.421,11.59 C21.321,11.59 22.751,13.02 22.751,14.92 L22.751,18.14 C22.751,20.04 21.321,21.47 19.421,21.47 Z M14.381,13.1 L14.381,18.15 C14.381,19.16 15.201,19.98 16.211,19.98 L19.431,19.98 C20.491,19.98 21.261,19.21 21.261,18.15 L21.261,14.93 C21.261,13.87 20.491,13.1 19.431,13.1 L14.381,13.1 Z"/>
  <path fill="#292D32" d="M13.629,13.1 C13.219,13.1 12.879,12.76 12.879,12.35 C12.879,6.1 14.149,4.79 17.779,2.64 C18.139,2.43 18.599,2.55 18.809,2.9 C19.019,3.26 18.899,3.72 18.549,3.93 C15.309,5.85 14.379,6.65 14.379,12.35 C14.379,12.76 14.039,13.1 13.629,13.1 Z"/>
</svg>

