<svg xmlns="http://www.w3.org/2000/svg" width="24" height="24" viewBox="0 0 24 24">
  <defs/>
  <path fill="#292D32" d="M12,2 C6.48,2 2,6.48 2,12 C2,17.52 6.48,22 12,22 C17.52,22 22,17.52 22,12 C22,6.48 17.52,2 12,2 Z M11.61,14.84 C11.61,15.93 10.76,16.78 9.67,16.78 L8.19,16.78 C7.12,16.78 6.25,15.91 6.25,14.84 L6.25,12.17 C6.25,9.09 6.92,8.4 8.71,7.34 C8.83,7.27 8.96,7.24 9.09,7.24 C9.35,7.24 9.6,7.37 9.74,7.61 C9.95,7.97 9.83,8.43 9.48,8.64 C8.27,9.34 7.85,9.6 7.77,11.41 L9.68,11.41 C10.77,11.41 11.62,12.26 11.62,13.35 L11.62,14.84 L11.61,14.84 Z M17.75,14.84 C17.75,15.93 16.9,16.78 15.81,16.78 L14.32,16.78 C13.25,16.78 12.38,15.91 12.38,14.84 L12.38,12.17 C12.38,9.09 13.05,8.4 14.84,7.34 C14.96,7.27 15.09,7.24 15.22,7.24 C15.48,7.24 15.73,7.37 15.87,7.61 C16.08,7.97 15.96,8.43 15.61,8.64 C14.4,9.36 13.98,9.62 13.9,11.43 L15.81,11.43 C16.9,11.43 17.75,12.28 17.75,13.37 L17.75,14.84 Z"/>
</svg>

