<svg xmlns="http://www.w3.org/2000/svg" width="24" height="24" viewBox="0 0 24 24">
  <defs/>
  <path fill="#292D32" d="M15.91,12.37 L20.6,12.37 C20.52,17.04 19.6,17.81 16.73,19.51 C16.4,19.71 16.29,20.13 16.49,20.47 C16.69,20.8 17.11,20.91 17.45,20.71 C20.83,18.71 22.01,17.49 22.01,11.67 L22.01,6.28 C22.01,4.57 20.62,3.19 18.92,3.19 L15.92,3.19 C14.16,3.19 12.83,4.52 12.83,6.28 L12.83,9.28 C12.82,11.04 14.15,12.37 15.91,12.37 Z"/>
  <path fill="#292D32" opacity="0.4" d="M5.09,12.37 L9.78,12.37 C9.7,17.04 8.78,17.81 5.91,19.51 C5.58,19.71 5.47,20.13 5.67,20.47 C5.87,20.8 6.29,20.91 6.63,20.71 C10.01,18.71 11.19,17.49 11.19,11.67 L11.19,6.28 C11.19,4.57 9.8,3.19 8.1,3.19 L5.1,3.19 C3.34,3.19 2.01,4.52 2.01,6.28 L2.01,9.28 C2,11.04 3.33,12.37 5.09,12.37 Z"/>
</svg>

