<svg xmlns="http://www.w3.org/2000/svg" width="24" height="24" viewBox="0 0 24 24">
  <defs/>
  <path fill="#292D32" d="M8.09,11.63 L3.4,11.63 C3.48,6.96 4.4,6.19 7.27,4.49 C7.6,4.29 7.71,3.87 7.51,3.53 C7.31,3.2 6.89,3.09 6.55,3.29 C3.17,5.29 1.99,6.51 1.99,12.33 L1.99,17.72 C1.99,19.43 3.38,20.81 5.08,20.81 L8.08,20.81 C9.84,20.81 11.17,19.48 11.17,17.72 L11.17,14.72 C11.18,12.96 9.85,11.63 8.09,11.63 Z"/>
  <path fill="#292D32" opacity="0.4" d="M18.91,11.63 L14.22,11.63 C14.3,6.96 15.221,6.19 18.091,4.49 C18.421,4.29 18.531,3.87 18.331,3.53 C18.131,3.2 17.71,3.09 17.37,3.29 C13.991,5.29 12.81,6.51 12.81,12.33 L12.81,17.72 C12.81,19.43 14.201,20.81 15.901,20.81 L18.901,20.81 C20.661,20.81 21.991,19.48 21.991,17.72 L21.991,14.72 C22,12.96 20.671,11.63 18.91,11.63 Z"/>
</svg>

