<svg xmlns="http://www.w3.org/2000/svg" width="24" height="24" viewBox="0 0 24 24">
  <defs/>
  <path fill="#292D32" d="M22.001,12.4 L16.201,12.4 C14.301,12.4 12.871,10.97 12.871,9.07 L12.871,5.85 C12.871,3.95 14.301,2.52 16.201,2.52 L19.421,2.52 C21.251,2.52 22.751,4.01 22.751,5.85 L22.751,11.65 C22.751,12.07 22.411,12.4 22.001,12.4 Z M16.201,4.03 C15.141,4.03 14.371,4.8 14.371,5.86 L14.371,9.08 C14.371,10.14 15.141,10.91 16.201,10.91 L21.251,10.91 L21.251,5.86 C21.251,4.85 20.431,4.03 19.421,4.03 L16.201,4.03 Z"/>
  <path fill="#292D32" d="M17.471,21.47 C17.21,21.47 16.96,21.34 16.82,21.1 C16.61,20.74 16.73,20.28 17.081,20.07 C20.311,18.15 21.25,17.35 21.25,11.65 C21.25,11.24 21.59,10.9 22,10.9 C22.41,10.9 22.75,11.24 22.75,11.65 C22.75,17.9 21.48,19.21 17.851,21.36 C17.73,21.44 17.601,21.47 17.471,21.47 Z"/>
  <path fill="#292D32" d="M10.37,12.4 L4.57,12.4 C2.67,12.4 1.24,10.97 1.24,9.07 L1.24,5.85 C1.24,3.95 2.67,2.52 4.57,2.52 L7.8,2.52 C9.63,2.52 11.13,4.01 11.13,5.85 L11.13,11.65 C11.12,12.07 10.79,12.4 10.37,12.4 Z M4.58,4.03 C3.52,4.03 2.75,4.8 2.75,5.86 L2.75,9.08 C2.75,10.14 3.52,10.91 4.58,10.91 L9.63,10.91 L9.63,5.86 C9.63,4.85 8.81,4.03 7.8,4.03 L4.58,4.03 Z"/>
  <path fill="#292D32" d="M5.84,21.47 C5.58,21.47 5.33,21.34 5.19,21.1 C4.98,20.74 5.1,20.28 5.45,20.07 C8.68,18.15 9.62,17.35 9.62,11.65 C9.62,11.24 9.96,10.9 10.37,10.9 C10.78,10.9 11.12,11.24 11.12,11.65 C11.12,17.9 9.85,19.21 6.22,21.36 C6.1,21.44 5.97,21.47 5.84,21.47 Z"/>
</svg>

