<svg xmlns="http://www.w3.org/2000/svg" width="24" height="24" viewBox="0 0 24 24">
  <defs/>
  <path fill="#292D32" d="M8.09,11.631 L3.4,11.631 C3.48,6.961 4.4,6.191 7.27,4.491 C7.6,4.291 7.71,3.871 7.51,3.531 C7.32,3.201 6.89,3.091 6.56,3.291 C3.18,5.291 2,6.511 2,12.321 L2,17.711 C2,19.421 3.39,20.801 5.09,20.801 L8.09,20.801 C9.85,20.801 11.18,19.471 11.18,17.711 L11.18,14.711 C11.18,12.961 9.85,11.631 8.09,11.631 Z"/>
  <path fill="#292D32" d="M18.909,11.631 L14.219,11.631 C14.299,6.961 15.219,6.191 18.089,4.491 C18.419,4.291 18.529,3.871 18.329,3.531 C18.129,3.201 17.709,3.091 17.369,3.291 C13.989,5.291 12.809,6.511 12.809,12.331 L12.809,17.721 C12.809,19.431 14.199,20.811 15.899,20.811 L18.899,20.811 C20.659,20.811 21.989,19.481 21.989,17.721 L21.989,14.721 C21.999,12.961 20.669,11.631 18.909,11.631 Z"/>
</svg>

