<svg xmlns="http://www.w3.org/2000/svg" width="24" height="24" viewBox="0 0 24 24">
  <defs/>
  <path fill="#292D32" opacity="0.4" d="M12,22 C17.523,22 22,17.523 22,12 C22,6.477 17.523,2 12,2 C6.477,2 2,6.477 2,12 C2,17.523 6.477,22 12,22 Z"/>
  <path fill="#292D32" d="M8.19,16.78 L9.68,16.78 C10.77,16.78 11.62,15.93 11.62,14.84 L11.62,13.35 C11.62,12.26 10.77,11.41 9.68,11.41 L7.77,11.41 C7.85,9.6 8.27,9.33 9.48,8.62 C9.84,8.41 9.95,7.95 9.74,7.59 C9.6,7.35 9.35,7.22 9.09,7.22 C8.96,7.22 8.83,7.25 8.71,7.32 C6.92,8.38 6.25,9.07 6.25,12.15 L6.25,14.82 C6.25,15.91 7.12,16.78 8.19,16.78 Z"/>
  <path fill="#292D32" d="M14.321,16.78 L15.811,16.78 C16.901,16.78 17.751,15.93 17.751,14.84 L17.751,13.35 C17.751,12.26 16.901,11.41 15.811,11.41 L13.901,11.41 C13.981,9.6 14.401,9.33 15.611,8.62 C15.971,8.41 16.081,7.95 15.871,7.59 C15.731,7.35 15.481,7.22 15.221,7.22 C15.091,7.22 14.961,7.25 14.841,7.32 C13.051,8.38 12.381,9.07 12.381,12.15 L12.381,14.82 C12.391,15.91 13.261,16.78 14.321,16.78 Z"/>
</svg>

