<svg xmlns="http://www.w3.org/2000/svg" width="24" height="24" viewBox="0 0 24 24">
  <defs/>
  <path fill="#292D32" d="M11.12,18.14 Q11.12,19.529 10.192,20.485 Q9.236,21.47 7.79,21.47 L4.57,21.47 Q3.195,21.47 2.217,20.493 Q1.24,19.516 1.24,18.14 L1.24,12.34 Q1.24,12.029 1.46,11.81 Q1.68,11.59 1.99,11.59 Q2.301,11.59 2.521,11.81 Q2.74,12.029 2.74,12.34 L2.74,18.14 Q2.74,18.894 3.278,19.432 Q3.816,19.97 4.57,19.97 L7.79,19.97 Q8.602,19.97 9.116,19.44 Q9.62,18.921 9.62,18.14 Q9.62,17.829 9.84,17.61 Q10.06,17.39 10.37,17.39 Q10.681,17.39 10.901,17.61 Q11.12,17.829 11.12,18.14 Z"/>
  <path fill="#292D32" d="M2,11.6 L7.8,11.6 Q9.644,11.6 10.592,13.087 Q10.759,13.349 10.692,13.652 Q10.625,13.955 10.363,14.122 Q10.101,14.289 9.798,14.222 Q9.495,14.155 9.328,13.893 Q8.822,13.1 7.8,13.1 L2,13.1 Q1.689,13.1 1.47,12.88 Q1.25,12.661 1.25,12.35 Q1.25,12.039 1.47,11.82 Q1.689,11.6 2,11.6 Z"/>
  <path fill="#292D32" d="M1.25,12.35 Q1.25,7.869 2.336,5.936 Q3.211,4.379 6.147,2.635 Q6.414,2.477 6.715,2.553 Q7.016,2.63 7.175,2.897 Q7.333,3.164 7.257,3.465 Q7.18,3.766 6.913,3.925 Q4.322,5.464 3.644,6.671 Q2.75,8.261 2.75,12.35 Q2.75,12.661 2.53,12.88 Q2.311,13.1 2,13.1 Q1.689,13.1 1.47,12.88 Q1.25,12.661 1.25,12.35 Z"/>
  <path fill="#292D32" d="M13.631,11.6 L19.431,11.6 Q22.761,11.6 22.761,14.93 L22.761,18.15 Q22.761,19.539 21.833,20.495 Q20.877,21.48 19.431,21.48 L16.211,21.48 Q14.835,21.48 13.858,20.503 Q12.881,19.526 12.881,18.15 L12.881,12.35 Q12.881,12.039 13.101,11.82 Q13.32,11.6 13.631,11.6 Z M14.381,13.1 L14.381,18.15 Q14.381,18.904 14.919,19.442 Q15.457,19.98 16.211,19.98 L19.431,19.98 Q20.242,19.98 20.756,19.45 Q21.261,18.93 21.261,18.15 L21.261,14.93 Q21.261,13.1 19.431,13.1 L14.381,13.1 Z"/>
  <path fill="#292D32" d="M12.881,12.35 Q12.881,7.869 13.967,5.936 Q14.842,4.379 17.778,2.635 Q18.045,2.477 18.346,2.553 Q18.647,2.63 18.806,2.897 Q18.964,3.164 18.888,3.465 Q18.811,3.766 18.544,3.925 Q15.953,5.464 15.275,6.671 Q14.381,8.261 14.381,12.35 Q14.381,12.661 14.161,12.88 Q13.942,13.1 13.631,13.1 Q13.32,13.1 13.101,12.88 Q12.881,12.661 12.881,12.35 Z"/>
</svg>

