<svg xmlns="http://www.w3.org/2000/svg" width="24" height="24" viewBox="0 0 24 24">
  <defs/>
  <path fill="#292D32" d="M9,22.75 Q1.25,22.75 1.25,15 L1.25,9 Q1.25,1.25 9,1.25 L15,1.25 Q22.75,1.25 22.75,9 L22.75,15 Q22.75,22.75 15,22.75 Z M9,21.25 L15,21.25 Q18.439,21.25 19.845,19.845 Q21.25,18.439 21.25,15 L21.25,9 Q21.25,2.75 15,2.75 L9,2.75 Q2.75,2.75 2.75,9 L2.75,15 Q2.75,18.439 4.155,19.845 Q5.561,21.25 9,21.25 Z"/>
  <g opacity="0.4">
    <path fill="#292D32" d="M7,11.41 L9.68,11.41 Q11.62,11.41 11.62,13.35 L11.62,14.84 Q11.62,15.641 11.081,16.199 Q10.521,16.78 9.68,16.78 L8.19,16.78 Q7.392,16.78 6.821,16.209 Q6.25,15.638 6.25,14.84 L6.25,12.16 Q6.25,11.849 6.47,11.629 Q6.689,11.41 7,11.41 Z M7.75,12.91 L7.75,14.84 Q7.75,15.28 8.19,15.28 L9.68,15.28 Q10.12,15.28 10.12,14.84 L10.12,13.35 Q10.12,12.91 9.68,12.91 L7.75,12.91 Z"/>
    <path fill="#292D32" d="M6.25,12.16 Q6.25,8.78 8.708,7.324 Q8.975,7.166 9.276,7.243 Q9.577,7.32 9.735,7.587 Q9.894,7.855 9.817,8.156 Q9.74,8.457 9.472,8.615 Q7.75,9.635 7.75,12.16 Q7.75,12.47 7.53,12.69 Q7.311,12.91 7,12.91 Q6.689,12.91 6.47,12.69 Q6.25,12.47 6.25,12.16 Z"/>
    <path fill="#292D32" d="M13.141,11.41 L15.821,11.41 Q17.761,11.41 17.761,13.35 L17.761,14.84 Q17.761,16.78 15.821,16.78 L14.331,16.78 Q13.532,16.78 12.962,16.209 Q12.391,15.638 12.391,14.84 L12.391,12.16 Q12.391,11.849 12.61,11.629 Q12.83,11.41 13.141,11.41 Z M13.891,12.91 L13.891,14.84 Q13.891,15.28 14.331,15.28 L15.821,15.28 Q16.261,15.28 16.261,14.84 L16.261,13.35 Q16.261,12.91 15.821,12.91 L13.891,12.91 Z"/>
    <path fill="#292D32" d="M12.391,12.16 Q12.391,8.78 14.848,7.324 Q15.116,7.166 15.417,7.243 Q15.718,7.32 15.876,7.587 Q16.034,7.855 15.957,8.156 Q15.88,8.457 15.613,8.615 Q13.891,9.635 13.891,12.16 Q13.891,12.47 13.671,12.69 Q13.451,12.91 13.141,12.91 Q12.83,12.91 12.61,12.69 Q12.391,12.47 12.391,12.16 Z"/>
  </g>
</svg>

