<svg xmlns="http://www.w3.org/2000/svg" width="24" height="24" viewBox="0 0 24 24">
  <defs/>
  <path fill="#292D32" d="M11.999,14.38 C13.314,14.38 14.379,13.315 14.379,12 C14.379,10.686 13.314,9.62 11.999,9.62 C10.685,9.62 9.619,10.686 9.619,12 C9.619,13.315 10.685,14.38 11.999,14.38 Z"/>
  <path fill="#292D32" opacity="0.4" d="M20,18.75 C19.84,18.75 19.69,18.7 19.55,18.6 C19.22,18.35 19.15,17.88 19.4,17.55 C20.61,15.94 21.25,14.02 21.25,12 C21.25,9.98 20.61,8.06 19.4,6.45 C19.15,6.12 19.22,5.65 19.55,5.4 C19.88,5.15 20.35,5.22 20.6,5.55 C22.01,7.42 22.75,9.65 22.75,12 C22.75,14.35 22.01,16.58 20.6,18.45 C20.45,18.65 20.23,18.75 20,18.75 Z"/>
  <path fill="#292D32" opacity="0.4" d="M4,18.75 C3.77,18.75 3.55,18.65 3.4,18.45 C1.99,16.58 1.25,14.35 1.25,12 C1.25,9.65 1.99,7.42 3.4,5.55 C3.65,5.22 4.12,5.15 4.45,5.4 C4.78,5.65 4.85,6.12 4.6,6.45 C3.39,8.06 2.75,9.98 2.75,12 C2.75,14.02 3.39,15.94 4.6,17.55 C4.85,17.88 4.78,18.35 4.45,18.6 C4.32,18.7 4.16,18.75 4,18.75 Z"/>
  <path fill="#292D32" opacity="0.4" d="M16.799,16.35 C16.639,16.35 16.489,16.3 16.349,16.2 C16.019,15.95 15.949,15.48 16.199,15.15 C16.889,14.24 17.249,13.15 17.249,12 C17.249,10.85 16.889,9.76 16.199,8.85 C15.949,8.52 16.019,8.05 16.349,7.8 C16.679,7.55 17.149,7.62 17.399,7.95 C18.279,9.13 18.749,10.53 18.749,12 C18.749,13.47 18.279,14.88 17.399,16.05 C17.249,16.25 17.029,16.35 16.799,16.35 Z"/>
  <path fill="#292D32" opacity="0.4" d="M7.2,16.35 C6.97,16.35 6.75,16.25 6.6,16.05 C5.72,14.87 5.25,13.47 5.25,12 C5.25,10.53 5.72,9.12 6.6,7.95 C6.85,7.62 7.32,7.55 7.65,7.8 C7.98,8.05 8.05,8.52 7.8,8.85 C7.11,9.76 6.75,10.85 6.75,12 C6.75,13.15 7.11,14.24 7.8,15.15 C8.05,15.48 7.98,15.95 7.65,16.2 C7.52,16.3 7.36,16.35 7.2,16.35 Z"/>
</svg>

