<svg xmlns="http://www.w3.org/2000/svg" width="24" height="24" viewBox="0 0 24 24">
  <defs/>
  <path fill="#292D32" d="M12,14.75 C10.48,14.75 9.25,13.52 9.25,12 C9.25,10.48 10.48,9.25 12,9.25 C13.52,9.25 14.75,10.48 14.75,12 C14.75,13.52 13.52,14.75 12,14.75 Z M12,10.75 C11.31,10.75 10.75,11.31 10.75,12 C10.75,12.69 11.31,13.25 12,13.25 C12.69,13.25 13.25,12.69 13.25,12 C13.25,11.31 12.69,10.75 12,10.75 Z"/>
  <path fill="#292D32" d="M20,18.75 C19.84,18.75 19.69,18.7 19.55,18.6 C19.22,18.35 19.15,17.88 19.4,17.55 C20.61,15.94 21.25,14.02 21.25,12 C21.25,9.98 20.61,8.06 19.4,6.45 C19.15,6.12 19.22,5.65 19.55,5.4 C19.88,5.15 20.35,5.22 20.6,5.55 C22.01,7.42 22.75,9.65 22.75,12 C22.75,14.35 22.01,16.58 20.6,18.45 C20.45,18.65 20.23,18.75 20,18.75 Z"/>
  <path fill="#292D32" d="M4,18.75 C3.77,18.75 3.55,18.65 3.4,18.45 C1.99,16.58 1.25,14.35 1.25,12 C1.25,9.65 1.99,7.42 3.4,5.55 C3.65,5.22 4.12,5.15 4.45,5.4 C4.78,5.65 4.85,6.12 4.6,6.45 C3.39,8.06 2.75,9.98 2.75,12 C2.75,14.02 3.39,15.94 4.6,17.55 C4.85,17.88 4.78,18.35 4.45,18.6 C4.32,18.7 4.16,18.75 4,18.75 Z"/>
  <path fill="#292D32" d="M16.801,16.35 C16.641,16.35 16.491,16.3 16.351,16.2 C16.021,15.95 15.951,15.48 16.201,15.15 C16.891,14.24 17.251,13.15 17.251,12 C17.251,10.85 16.891,9.76 16.201,8.85 C15.951,8.52 16.021,8.05 16.351,7.8 C16.681,7.55 17.151,7.62 17.401,7.95 C18.281,9.13 18.751,10.53 18.751,12 C18.751,13.47 18.281,14.88 17.401,16.05 C17.251,16.25 17.031,16.35 16.801,16.35 Z"/>
  <path fill="#292D32" d="M7.2,16.35 C6.97,16.35 6.75,16.25 6.6,16.05 C5.72,14.87 5.25,13.47 5.25,12 C5.25,10.53 5.72,9.12 6.6,7.95 C6.85,7.62 7.32,7.55 7.65,7.8 C7.98,8.05 8.05,8.52 7.8,8.85 C7.11,9.76 6.75,10.85 6.75,12 C6.75,13.15 7.11,14.24 7.8,15.15 C8.05,15.48 7.98,15.95 7.65,16.2 C7.52,16.3 7.36,16.35 7.2,16.35 Z"/>
</svg>

