<svg xmlns="http://www.w3.org/2000/svg" width="24" height="24" viewBox="0 0 24 24">
  <defs/>
  <path fill="#292D32" d="M20.944,6.044 Q22.75,8.753 22.75,12 Q22.75,16.451 19.6,19.6 Q16.451,22.75 12,22.75 Q7.549,22.75 4.4,19.6 Q1.25,16.451 1.25,12 Q1.25,9.119 2.681,6.645 Q2.836,6.376 3.135,6.296 Q3.435,6.215 3.704,6.37 L12.374,11.35 Q12.643,11.504 12.724,11.804 Q12.805,12.104 12.65,12.374 Q12.496,12.643 12.196,12.724 Q11.896,12.805 11.626,12.65 L3.63,8.057 Q2.75,9.902 2.75,12 Q2.75,15.829 5.46,18.54 Q8.171,21.25 12,21.25 Q15.829,21.25 18.54,18.54 Q21.25,15.829 21.25,12 Q21.25,9.207 19.696,6.876 Q19.524,6.617 19.585,6.313 Q19.645,6.008 19.904,5.836 Q20.162,5.664 20.467,5.725 Q20.772,5.785 20.944,6.044 Z"/>
  <path fill="#292D32" d="M5.551,3.4 Q8.422,1.25 12,1.25 Q15.081,1.25 17.647,2.854 Q17.911,3.019 17.981,3.321 Q18.051,3.624 17.886,3.887 Q17.721,4.151 17.419,4.221 Q17.116,4.291 16.853,4.126 Q14.651,2.75 12,2.75 Q8.922,2.75 6.449,4.6 Q6.201,4.787 5.893,4.742 Q5.586,4.698 5.4,4.449 Q5.213,4.201 5.258,3.893 Q5.302,3.586 5.551,3.4 Z"/>
</svg>

