<svg xmlns="http://www.w3.org/2000/svg" width="24" height="24" viewBox="0 0 24 24">
  <defs/>
  <path fill="#292D32" d="M12.001,14.381 C13.316,14.381 14.381,13.316 14.381,12.001 C14.381,10.687 13.316,9.621 12.001,9.621 C10.687,9.621 9.621,10.687 9.621,12.001 C9.621,13.316 10.687,14.381 12.001,14.381 Z"/>
  <path fill="#292D32" d="M20,18.75 C19.84,18.75 19.69,18.7 19.55,18.6 C19.22,18.35 19.15,17.88 19.4,17.55 C20.61,15.94 21.25,14.02 21.25,12 C21.25,9.98 20.61,8.06 19.4,6.45 C19.15,6.12 19.22,5.65 19.55,5.4 C19.88,5.15 20.35,5.22 20.6,5.55 C22.01,7.42 22.75,9.65 22.75,12 C22.75,14.35 22.01,16.58 20.6,18.45 C20.45,18.65 20.23,18.75 20,18.75 Z"/>
  <path fill="#292D32" d="M4,18.75 C3.77,18.75 3.55,18.65 3.4,18.45 C1.99,16.58 1.25,14.35 1.25,12 C1.25,9.65 1.99,7.42 3.4,5.55 C3.65,5.22 4.12,5.15 4.45,5.4 C4.78,5.65 4.85,6.12 4.6,6.45 C3.39,8.06 2.75,9.98 2.75,12 C2.75,14.02 3.39,15.94 4.6,17.55 C4.85,17.88 4.78,18.35 4.45,18.6 C4.32,18.7 4.16,18.75 4,18.75 Z"/>
  <path fill="#292D32" d="M16.801,16.349 C16.641,16.349 16.491,16.299 16.351,16.199 C16.021,15.949 15.951,15.479 16.201,15.149 C16.891,14.239 17.251,13.149 17.251,11.999 C17.251,10.849 16.891,9.759 16.201,8.849 C15.951,8.519 16.021,8.049 16.351,7.799 C16.681,7.549 17.151,7.619 17.401,7.949 C18.281,9.129 18.751,10.529 18.751,11.999 C18.751,13.469 18.281,14.879 17.401,16.049 C17.251,16.249 17.031,16.349 16.801,16.349 Z"/>
  <path fill="#292D32" d="M7.2,16.349 C6.97,16.349 6.75,16.249 6.6,16.049 C5.72,14.879 5.25,13.469 5.25,11.999 C5.25,10.529 5.72,9.119 6.6,7.949 C6.85,7.619 7.32,7.549 7.65,7.799 C7.98,8.049 8.05,8.519 7.8,8.849 C7.11,9.759 6.75,10.849 6.75,11.999 C6.75,13.149 7.11,14.239 7.8,15.149 C8.05,15.479 7.98,15.949 7.65,16.199 C7.52,16.299 7.36,16.349 7.2,16.349 Z"/>
</svg>

