<svg xmlns="http://www.w3.org/2000/svg" width="24" height="24" viewBox="0 0 24 24">
  <defs/>
  <path fill="#292D32" opacity="0.4" d="M12,22 C17.523,22 22,17.523 22,12 C22,6.477 17.523,2 12,2 C6.477,2 2,6.477 2,12 C2,17.523 6.477,22 12,22 Z"/>
  <path fill="#292D32" d="M12,19.75 C7.73,19.75 4.25,16.27 4.25,12 C4.25,10.64 4.61,9.31 5.28,8.14 C5.49,7.78 5.95,7.66 6.3,7.86 L12.37,11.35 C12.73,11.56 12.85,12.01 12.65,12.37 C12.44,12.73 11.99,12.85 11.63,12.65 L6.25,9.56 C5.93,10.33 5.76,11.16 5.76,12 C5.76,15.45 8.56,18.25 12.01,18.25 C15.46,18.25 18.26,15.45 18.26,12 C18.26,8.55 15.46,5.75 12.01,5.75 C10.65,5.75 9.35,6.18 8.26,7 C7.93,7.25 7.46,7.18 7.21,6.85 C6.96,6.52 7.03,6.05 7.36,5.8 C8.71,4.79 10.32,4.25 12.01,4.25 C16.28,4.25 19.76,7.73 19.76,12 C19.76,16.27 16.27,19.75 12,19.75 Z"/>
</svg>

