<svg xmlns="http://www.w3.org/2000/svg" width="24" height="24" viewBox="0 0 24 24">
  <defs/>
  <path fill="#292D32" d="M12,22.75 C6.07,22.75 1.25,17.93 1.25,12 C1.25,10.12 1.74,8.27 2.68,6.64 C2.89,6.28 3.34,6.16 3.7,6.36 L12.37,11.34 C12.73,11.55 12.85,12 12.65,12.36 C12.44,12.72 11.99,12.84 11.63,12.64 L3.63,8.05 C3.05,9.28 2.75,10.62 2.75,11.99 C2.75,17.09 6.9,21.24 12,21.24 C17.1,21.24 21.25,17.09 21.25,11.99 C21.25,6.89 17.1,2.74 12,2.74 C9.98,2.74 8.06,3.38 6.45,4.59 C6.12,4.84 5.65,4.77 5.4,4.44 C5.15,4.11 5.22,3.64 5.55,3.39 C7.42,1.99 9.65,1.24 12,1.24 C17.93,1.24 22.75,6.06 22.75,11.99 C22.75,17.92 17.93,22.75 12,22.75 Z"/>
</svg>

