<svg xmlns="http://www.w3.org/2000/svg" width="24" height="24" viewBox="0 0 24 24">
  <defs/>
  <path fill="#292D32" d="M12,10.75 Q10.75,10.75 10.75,12 Q10.75,13.25 12,13.25 Q13.25,13.25 13.25,12 Q13.25,11.689 13.47,11.47 Q13.689,11.25 14,11.25 Q14.311,11.25 14.53,11.47 Q14.75,11.689 14.75,12 Q14.75,14.75 12,14.75 Q9.25,14.75 9.25,12 Q9.25,9.25 12,9.25 Q12.311,9.25 12.53,9.47 Q12.75,9.689 12.75,10 Q12.75,10.311 12.53,10.53 Q12.311,10.75 12,10.75 Z"/>
  <path fill="#292D32" d="M19.401,17.548 Q21.25,15.098 21.25,12 Q21.25,8.902 19.401,6.452 Q19.214,6.204 19.257,5.896 Q19.3,5.588 19.548,5.401 Q19.796,5.214 20.104,5.257 Q20.412,5.3 20.599,5.548 Q22.75,8.4 22.75,12 Q22.75,15.6 20.599,18.452 Q20.412,18.7 20.104,18.743 Q19.796,18.786 19.548,18.599 Q19.3,18.412 19.257,18.104 Q19.214,17.796 19.401,17.548 Z"/>
  <path fill="#292D32" d="M3.401,18.452 Q1.25,15.6 1.25,12 Q1.25,11.761 1.271,11.343 Q1.286,11.032 1.517,10.824 Q1.747,10.615 2.057,10.631 Q2.368,10.646 2.576,10.877 Q2.785,11.107 2.769,11.417 Q2.75,11.799 2.75,12 Q2.75,15.098 4.599,17.548 Q4.786,17.796 4.743,18.104 Q4.7,18.412 4.452,18.599 Q4.204,18.786 3.896,18.743 Q3.588,18.7 3.401,18.452 Z"/>
  <path fill="#292D32" d="M4.601,6.448 Q4.053,7.185 3.675,7.966 Q3.54,8.246 3.247,8.348 Q2.954,8.45 2.674,8.315 Q2.394,8.18 2.292,7.887 Q2.19,7.594 2.325,7.314 Q2.764,6.403 3.399,5.552 Q3.584,5.303 3.892,5.258 Q4.199,5.213 4.448,5.399 Q4.697,5.584 4.742,5.892 Q4.787,6.199 4.601,6.448 Z"/>
  <path fill="#292D32" d="M16.201,15.15 Q17.251,13.75 17.251,12 Q17.251,10.25 16.201,8.85 Q16.014,8.601 16.058,8.294 Q16.102,7.986 16.351,7.8 Q16.599,7.614 16.907,7.658 Q17.214,7.701 17.401,7.95 Q18.751,9.75 18.751,12 Q18.751,14.25 17.401,16.05 Q17.214,16.299 16.907,16.342 Q16.599,16.386 16.351,16.2 Q16.102,16.014 16.058,15.706 Q16.014,15.399 16.201,15.15 Z"/>
  <path fill="#292D32" d="M7.8,8.85 Q6.75,10.25 6.75,12 Q6.75,13.75 7.8,15.15 Q7.986,15.399 7.942,15.706 Q7.899,16.014 7.65,16.2 Q7.401,16.386 7.094,16.342 Q6.786,16.299 6.6,16.05 Q5.25,14.25 5.25,12 Q5.25,9.75 6.6,7.95 Q6.786,7.701 7.094,7.658 Q7.401,7.614 7.65,7.8 Q7.899,7.986 7.942,8.294 Q7.986,8.601 7.8,8.85 Z"/>
</svg>

