<svg xmlns="http://www.w3.org/2000/svg" width="24" height="24" viewBox="0 0 24 24">
  <defs/>
  <path fill="#292D32" opacity="0.4" d="M12,22 C17.523,22 22,17.523 22,12 C22,6.477 17.523,2 12,2 C6.477,2 2,6.477 2,12 C2,17.523 6.477,22 12,22 Z"/>
  <path fill="#292D32" d="M12,4.25 C10.31,4.25 8.7,4.79 7.35,5.8 C7.02,6.05 6.95,6.52 7.2,6.85 C7.45,7.18 7.92,7.25 8.25,7 C9.34,6.18 10.63,5.75 12,5.75 C15.45,5.75 18.25,8.55 18.25,12 C18.25,15.45 15.45,18.25 12,18.25 C8.55,18.25 5.75,15.45 5.75,12 C5.75,11.16 5.92,10.33 6.24,9.56 L7.38,10.21 C7.16,10.78 7.04,11.38 7.04,12 C7.04,14.73 9.26,16.95 11.99,16.95 C14.72,16.95 16.94,14.73 16.94,12 C16.94,9.27 14.72,7.05 11.99,7.05 C11.25,7.05 10.54,7.21 9.88,7.52 C9.51,7.7 9.34,8.14 9.52,8.52 C9.7,8.89 10.14,9.05 10.52,8.88 C10.98,8.66 11.47,8.55 11.99,8.55 C13.89,8.55 15.44,10.1 15.44,12 C15.44,13.9 13.89,15.45 11.99,15.45 C10.09,15.45 8.54,13.9 8.54,12 C8.54,11.65 8.61,11.31 8.71,10.98 L11.62,12.65 C11.98,12.86 12.44,12.73 12.64,12.37 C12.85,12.01 12.72,11.55 12.36,11.35 L6.29,7.86 C5.93,7.65 5.47,7.78 5.27,8.14 C4.6,9.31 4.24,10.64 4.24,12 C4.24,16.27 7.72,19.75 11.99,19.75 C16.26,19.75 19.74,16.27 19.74,12 C19.74,7.73 16.27,4.25 12,4.25 Z"/>
</svg>

