<svg xmlns="http://www.w3.org/2000/svg" width="24" height="24" viewBox="0 0 24 24">
  <defs/>
  <path fill="#292D32" d="M12,2 C6.48,2 2,6.48 2,12 C2,17.52 6.48,22 12,22 C17.52,22 22,17.52 22,12 C22,6.48 17.52,2 12,2 Z M12,19.75 C7.73,19.75 4.25,16.27 4.25,12 C4.25,10.64 4.61,9.31 5.28,8.14 C5.48,7.78 5.94,7.66 6.3,7.86 L12.37,11.35 C12.73,11.56 12.85,12.01 12.65,12.37 C12.44,12.73 11.99,12.85 11.63,12.65 L6.24,9.56 C5.92,10.33 5.75,11.16 5.75,12 C5.75,15.45 8.55,18.25 12,18.25 C15.45,18.25 18.25,15.45 18.25,12 C18.25,8.55 15.45,5.75 12,5.75 C10.64,5.75 9.34,6.18 8.25,7 C7.92,7.25 7.45,7.18 7.2,6.85 C6.95,6.52 7.02,6.05 7.35,5.8 C8.7,4.79 10.31,4.25 12,4.25 C16.27,4.25 19.75,7.73 19.75,12 C19.75,16.27 16.27,19.75 12,19.75 Z"/>
</svg>

