<svg xmlns="http://www.w3.org/2000/svg" width="24" height="24" viewBox="0 0 24 24">
  <defs/>
  <path fill="#292D32" d="M11.626,12.65 L3.633,8.059 Q2.75,9.922 2.75,12 Q2.75,15.829 5.46,18.54 Q8.171,21.25 12,21.25 Q15.829,21.25 18.54,18.54 Q21.25,15.829 21.25,12 Q21.25,9.192 19.697,6.878 Q19.524,6.62 19.584,6.315 Q19.644,6.01 19.902,5.837 Q20.16,5.664 20.465,5.724 Q20.77,5.784 20.943,6.042 Q22.75,8.736 22.75,12 Q22.75,16.451 19.6,19.6 Q16.451,22.75 12,22.75 Q7.549,22.75 4.4,19.6 Q1.25,16.451 1.25,12 Q1.25,9.148 2.679,6.648 L2.68,6.646 Q2.834,6.377 3.134,6.296 Q3.434,6.215 3.704,6.37 L12.374,11.35 Q12.643,11.504 12.724,11.804 Q12.805,12.104 12.65,12.374 Q12.496,12.643 12.196,12.724 Q11.896,12.805 11.626,12.65 Z"/>
  <path fill="#292D32" d="M5.551,3.4 Q8.422,1.25 12,1.25 Q14.971,1.25 17.516,2.777 Q17.782,2.937 17.858,3.238 Q17.933,3.539 17.773,3.806 Q17.613,4.072 17.312,4.148 Q17.011,4.223 16.744,4.063 Q14.556,2.75 12,2.75 Q8.922,2.75 6.449,4.6 Q6.201,4.787 5.893,4.742 Q5.586,4.698 5.4,4.449 Q5.213,4.201 5.258,3.893 Q5.302,3.586 5.551,3.4 Z"/>
  <path fill="#292D32" d="M7.474,9.344 Q6.75,10.56 6.75,12 Q6.75,14.172 8.289,15.711 Q9.828,17.25 12,17.25 Q14.172,17.25 15.711,15.711 Q17.25,14.172 17.25,12 Q17.25,9.828 15.711,8.289 Q14.172,6.75 12,6.75 Q10.807,6.75 9.775,7.246 Q9.495,7.381 9.202,7.278 Q8.909,7.175 8.774,6.895 Q8.639,6.615 8.742,6.322 Q8.845,6.029 9.125,5.894 Q10.465,5.25 12,5.25 Q14.793,5.25 16.772,7.228 Q18.75,9.207 18.75,12 Q18.75,14.793 16.772,16.772 Q14.793,18.75 12,18.75 Q9.207,18.75 7.228,16.772 Q5.25,14.793 5.25,12 Q5.25,10.147 6.186,8.576 Q6.345,8.309 6.646,8.233 Q6.947,8.157 7.214,8.316 Q7.481,8.475 7.557,8.776 Q7.633,9.077 7.474,9.344 Z"/>
</svg>

