<svg xmlns="http://www.w3.org/2000/svg" width="24" height="24" viewBox="0 0 24 24">
  <defs/>
  <path fill="#292D32" d="M12,22.75 C6.07,22.75 1.25,17.93 1.25,12 C1.25,10.12 1.74,8.27 2.68,6.64 C2.89,6.28 3.34,6.16 3.7,6.36 L12.37,11.34 C12.73,11.55 12.85,12 12.65,12.36 C12.44,12.72 11.99,12.84 11.63,12.64 L3.63,8.05 C3.05,9.28 2.75,10.62 2.75,11.99 C2.75,17.09 6.9,21.24 12,21.24 C17.1,21.24 21.25,17.09 21.25,11.99 C21.25,6.89 17.1,2.74 12,2.74 C9.98,2.74 8.06,3.38 6.45,4.59 C6.12,4.84 5.65,4.77 5.4,4.44 C5.15,4.11 5.22,3.64 5.55,3.39 C7.42,1.99 9.65,1.24 12,1.24 C17.93,1.24 22.75,6.06 22.75,11.99 C22.75,17.92 17.93,22.75 12,22.75 Z"/>
  <path fill="#292D32" d="M12,18.75 C8.28,18.75 5.25,15.72 5.25,12 C5.25,10.8 5.57,9.61 6.18,8.58 C6.39,8.22 6.85,8.1 7.21,8.31 C7.57,8.52 7.69,8.98 7.48,9.34 C7.01,10.14 6.76,11.06 6.76,12 C6.76,14.9 9.12,17.25 12.01,17.25 C14.9,17.25 17.26,14.9 17.26,12 C17.26,9.1 14.9,6.75 12.01,6.75 C11.23,6.75 10.48,6.92 9.77,7.25 C9.39,7.42 8.95,7.26 8.77,6.89 C8.59,6.51 8.75,6.07 9.13,5.89 C10.03,5.47 11,5.25 12,5.25 C15.72,5.25 18.75,8.28 18.75,12 C18.75,15.72 15.72,18.75 12,18.75 Z"/>
</svg>

