<svg xmlns="http://www.w3.org/2000/svg" width="24" height="24" viewBox="0 0 24 24">
  <defs/>
  <path fill="#292D32" d="M7.75,2 L7.75,5 L7,5 C6.74,5 6.49,5.01 6.25,5.05 L6.25,2 C6.25,1.59 6.59,1.25 7,1.25 C7.41,1.25 7.75,1.59 7.75,2 Z"/>
  <path fill="#292D32" d="M17,5 L7,5 C6.74,5 6.49,5.01 6.25,5.05 C3.67,5.35 2,7.26 2,10 L2,17 C2,20 4,22 7,22 L17,22 C20,22 22,20 22,17 L22,10 C22,7 20,5 17,5 Z M7.88,16 C6.5,16 5.38,14.88 5.38,13.5 C5.38,12.12 6.5,11 7.88,11 C9.26,11 10.38,12.12 10.38,13.5 C10.38,14.88 9.26,16 7.88,16 Z M14.38,16.25 L13.88,16.25 C13.47,16.25 13.13,15.91 13.13,15.5 C13.13,15.09 13.47,14.75 13.88,14.75 L14.38,14.75 C14.79,14.75 15.13,15.09 15.13,15.5 C15.13,15.91 14.79,16.25 14.38,16.25 Z M17.88,16.25 L17.38,16.25 C16.97,16.25 16.63,15.91 16.63,15.5 C16.63,15.09 16.97,14.75 17.38,14.75 L17.88,14.75 C18.29,14.75 18.63,15.09 18.63,15.5 C18.63,15.91 18.29,16.25 17.88,16.25 Z M17.88,12.25 L13.88,12.25 C13.47,12.25 13.13,11.91 13.13,11.5 C13.13,11.09 13.47,10.75 13.88,10.75 L17.88,10.75 C18.29,10.75 18.63,11.09 18.63,11.5 C18.63,11.91 18.29,12.25 17.88,12.25 Z"/>
</svg>

