<svg xmlns="http://www.w3.org/2000/svg" width="24" height="24" viewBox="0 0 24 24">
  <defs/>
  <path fill="#292D32" opacity="0.4" d="M22,10 L22,17 C22,20 20,22 17,22 L7,22 C4,22 2,20 2,17 L2,10 C2,7.26 3.67,5.35 6.25,5.05 C6.49,5.01 6.74,5 7,5 L17,5 C20,5 22,7 22,10 Z"/>
  <path fill="#292D32" d="M7.75,2 L7.75,5 L7,5 C6.74,5 6.49,5.01 6.25,5.05 L6.25,2 C6.25,1.59 6.59,1.25 7,1.25 C7.41,1.25 7.75,1.59 7.75,2 Z"/>
  <path fill="#292D32" d="M7.881,16 C9.262,16 10.381,14.881 10.381,13.5 C10.381,12.119 9.262,11 7.881,11 C6.5,11 5.381,12.119 5.381,13.5 C5.381,14.881 6.5,16 7.881,16 Z"/>
  <path fill="#292D32" d="M17.881,12.25 L13.881,12.25 C13.471,12.25 13.131,11.91 13.131,11.5 C13.131,11.09 13.471,10.75 13.881,10.75 L17.881,10.75 C18.291,10.75 18.631,11.09 18.631,11.5 C18.631,11.91 18.291,12.25 17.881,12.25 Z"/>
  <path fill="#292D32" d="M14.381,16.25 L13.881,16.25 C13.471,16.25 13.131,15.91 13.131,15.5 C13.131,15.09 13.471,14.75 13.881,14.75 L14.381,14.75 C14.791,14.75 15.131,15.09 15.131,15.5 C15.131,15.91 14.791,16.25 14.381,16.25 Z"/>
  <path fill="#292D32" d="M17.881,16.25 L17.381,16.25 C16.971,16.25 16.631,15.91 16.631,15.5 C16.631,15.09 16.971,14.75 17.381,14.75 L17.881,14.75 C18.291,14.75 18.631,15.09 18.631,15.5 C18.631,15.91 18.291,16.25 17.881,16.25 Z"/>
</svg>

