<svg xmlns="http://www.w3.org/2000/svg" width="24" height="24" viewBox="0 0 24 24">
  <defs/>
  <path fill="#292D32" d="M17,4.25 Q22.75,4.25 22.75,10 L22.75,17 Q22.75,22.75 17,22.75 L7,22.75 Q1.25,22.75 1.25,17 L1.25,10 Q1.25,4.25 7,4.25 Z M17,5.75 L7,5.75 Q2.75,5.75 2.75,10 L2.75,17 Q2.75,21.25 7,21.25 L17,21.25 Q21.25,21.25 21.25,17 L21.25,10 Q21.25,5.75 17,5.75 Z"/>
  <path fill="#292D32" d="M7.75,2 L7.75,5 Q7.75,5.311 7.53,5.53 Q7.311,5.75 7,5.75 Q6.689,5.75 6.47,5.53 Q6.25,5.311 6.25,5 L6.25,2 Q6.25,1.689 6.47,1.47 Q6.689,1.25 7,1.25 Q7.311,1.25 7.53,1.47 Q7.75,1.689 7.75,2 Z"/>
  <path fill="#292D32" d="M8.5,16.75 Q6.875,16.75 6.062,15.938 Q5.25,15.125 5.25,13.5 Q5.25,12.154 6.202,11.202 Q7.154,10.25 8.5,10.25 Q11.75,10.25 11.75,13.5 Q11.75,14.846 10.798,15.798 Q9.846,16.75 8.5,16.75 Z M8.5,15.25 Q10.25,15.25 10.25,13.5 Q10.25,11.75 8.5,11.75 Q7.775,11.75 7.263,12.263 Q6.75,12.775 6.75,13.5 Q6.75,14.225 7.263,14.737 Q7.775,15.25 8.5,15.25 Z"/>
  <path fill="#292D32" d="M14.5,10.25 L18.5,10.25 Q18.811,10.25 19.03,10.47 Q19.25,10.689 19.25,11 Q19.25,11.311 19.03,11.53 Q18.811,11.75 18.5,11.75 L14.5,11.75 Q14.189,11.75 13.97,11.53 Q13.75,11.311 13.75,11 Q13.75,10.689 13.97,10.47 Q14.189,10.25 14.5,10.25 Z"/>
  <path fill="#292D32" d="M14.5,14.25 L15,14.25 Q15.311,14.25 15.53,14.47 Q15.75,14.689 15.75,15 Q15.75,15.311 15.53,15.53 Q15.311,15.75 15,15.75 L14.5,15.75 Q14.189,15.75 13.97,15.53 Q13.75,15.311 13.75,15 Q13.75,14.689 13.97,14.47 Q14.189,14.25 14.5,14.25 Z"/>
  <path fill="#292D32" d="M18,14.25 L18.5,14.25 Q18.811,14.25 19.03,14.47 Q19.25,14.689 19.25,15 Q19.25,15.311 19.03,15.53 Q18.811,15.75 18.5,15.75 L18,15.75 Q17.689,15.75 17.47,15.53 Q17.25,15.311 17.25,15 Q17.25,14.689 17.47,14.47 Q17.689,14.25 18,14.25 Z"/>
</svg>

