<svg xmlns="http://www.w3.org/2000/svg" width="24" height="24" viewBox="0 0 24 24">
  <defs/>
  <path fill="#292D32" d="M17,22.75 L7,22.75 C3.56,22.75 1.25,20.44 1.25,17 L1.25,10 C1.25,6.56 3.56,4.25 7,4.25 L17,4.25 C20.44,4.25 22.75,6.56 22.75,10 L22.75,17 C22.75,20.44 20.44,22.75 17,22.75 Z M7,5.75 C4.42,5.75 2.75,7.42 2.75,10 L2.75,17 C2.75,19.58 4.42,21.25 7,21.25 L17,21.25 C19.58,21.25 21.25,19.58 21.25,17 L21.25,10 C21.25,7.42 19.58,5.75 17,5.75 L7,5.75 Z"/>
  <path fill="#292D32" d="M7,5.75 C6.59,5.75 6.25,5.41 6.25,5 L6.25,2 C6.25,1.59 6.59,1.25 7,1.25 C7.41,1.25 7.75,1.59 7.75,2 L7.75,5 C7.75,5.41 7.41,5.75 7,5.75 Z"/>
  <path fill="#292D32" d="M8.5,16.75 C6.71,16.75 5.25,15.29 5.25,13.5 C5.25,11.71 6.71,10.25 8.5,10.25 C10.29,10.25 11.75,11.71 11.75,13.5 C11.75,15.29 10.29,16.75 8.5,16.75 Z M8.5,11.75 C7.54,11.75 6.75,12.54 6.75,13.5 C6.75,14.46 7.54,15.25 8.5,15.25 C9.46,15.25 10.25,14.46 10.25,13.5 C10.25,12.54 9.46,11.75 8.5,11.75 Z"/>
  <path fill="#292D32" d="M18.5,11.75 L14.5,11.75 C14.09,11.75 13.75,11.41 13.75,11 C13.75,10.59 14.09,10.25 14.5,10.25 L18.5,10.25 C18.91,10.25 19.25,10.59 19.25,11 C19.25,11.41 18.91,11.75 18.5,11.75 Z"/>
  <path fill="#292D32" d="M15,15.75 L14.5,15.75 C14.09,15.75 13.75,15.41 13.75,15 C13.75,14.59 14.09,14.25 14.5,14.25 L15,14.25 C15.41,14.25 15.75,14.59 15.75,15 C15.75,15.41 15.41,15.75 15,15.75 Z"/>
  <path fill="#292D32" d="M18.5,15.75 L18,15.75 C17.59,15.75 17.25,15.41 17.25,15 C17.25,14.59 17.59,14.25 18,14.25 L18.5,14.25 C18.91,14.25 19.25,14.59 19.25,15 C19.25,15.41 18.91,15.75 18.5,15.75 Z"/>
</svg>

