<svg xmlns="http://www.w3.org/2000/svg" width="24" height="24" viewBox="0 0 24 24">
  <defs/>
  <path fill="#292D32" d="M15.5,22.75 L8.5,22.75 C4.79,22.75 2.75,20.71 2.75,17 L2.75,7 C2.75,3.29 4.79,1.25 8.5,1.25 L15.5,1.25 C19.15,1.25 21.25,3.35 21.25,7 L21.25,8 C21.25,8.96 20.46,9.75 19.5,9.75 C19.36,9.75 19.25,9.86 19.25,10 L19.25,12.17 C19.25,12.5 19.38,12.82 19.62,13.05 L20.45,13.88 C20.97,14.4 21.26,15.09 21.26,15.82 L21.26,17 C21.25,20.65 19.15,22.75 15.5,22.75 Z M8.5,2.75 C5.64,2.75 4.25,4.14 4.25,7 L4.25,17 C4.25,19.86 5.64,21.25 8.5,21.25 L15.5,21.25 C18.32,21.25 19.75,19.82 19.75,17 L19.75,15.83 C19.75,15.5 19.62,15.18 19.38,14.95 L18.55,14.12 C18.03,13.6 17.74,12.91 17.74,12.18 L17.74,10 C17.74,9.04 18.53,8.25 19.49,8.25 C19.63,8.25 19.74,8.14 19.74,8 L19.74,7 C19.74,4.18 18.31,2.75 15.49,2.75 L8.5,2.75 Z"/>
  <path fill="#292D32" d="M16.011,22.72 C15.601,22.72 15.261,22.39 15.261,21.98 L15.23,18.99 C15.23,18.3 14.661,17.75 13.98,17.75 L9.98,17.75 C9.65,17.75 9.33,17.88 9.09,18.12 C8.86,18.35 8.73,18.67 8.73,19 L8.74,21.97 C8.74,22.38 8.41,22.72 7.99,22.72 C7.58,22.72 7.24,22.39 7.24,21.97 L7.23,19 C7.23,18.26 7.51,17.57 8.03,17.05 C8.55,16.53 9.24,16.24 9.98,16.24 L13.991,16.24 C15.501,16.24 16.73,17.47 16.741,18.97 L16.77,21.95 C16.77,22.38 16.43,22.72 16.011,22.72 C16.02,22.72 16.011,22.72 16.011,22.72 Z"/>
  <path fill="#292D32" d="M8.94,5.7 L8.93,5.7 C8.51,5.69 8.18,5.35 8.19,4.93 L8.24,2.04 C8.25,1.63 8.58,1.3 8.99,1.3 L9,1.3 C9.41,1.31 9.74,1.65 9.74,2.06 L9.69,4.96 C9.68,5.37 9.35,5.7 8.94,5.7 Z"/>
  <path fill="#292D32" d="M11.94,5.7 L11.93,5.7 C11.52,5.69 11.19,5.35 11.19,4.94 L11.24,2.05 C11.25,1.64 11.58,1.31 11.99,1.31 L12,1.31 C12.41,1.32 12.74,1.66 12.74,2.07 L12.69,4.96 C12.68,5.37 12.35,5.7 11.94,5.7 Z"/>
  <path fill="#292D32" d="M14.94,5.67 L14.93,5.67 C14.52,5.66 14.19,5.32 14.19,4.91 L14.24,2.02 C14.25,1.61 14.58,1.28 14.99,1.28 L15,1.28 C15.41,1.29 15.74,1.63 15.74,2.04 L15.69,4.93 C15.68,5.34 15.35,5.67 14.94,5.67 Z"/>
</svg>

