<svg xmlns="http://www.w3.org/2000/svg" width="24" height="24" viewBox="0 0 24 24">
  <defs/>
  <path fill="#292D32" d="M4.25,11 L4.25,17 Q4.25,19.059 5.227,20.116 Q6.275,21.25 8.5,21.25 L15.5,21.25 Q19.75,21.25 19.75,17 L19.75,15.83 Q19.75,15.311 19.387,14.957 L18.55,14.12 Q17.74,13.311 17.74,12.18 L17.74,10 Q17.74,8.25 19.49,8.25 Q19.74,8.25 19.74,8 L19.74,7 Q19.74,2.75 15.49,2.75 L8.49,2.75 Q4.24,2.75 4.24,7 Q4.24,7.311 4.021,7.53 Q3.801,7.75 3.49,7.75 Q3.18,7.75 2.96,7.53 Q2.74,7.311 2.74,7 Q2.74,1.25 8.49,1.25 L15.49,1.25 Q18.335,1.25 19.84,2.863 Q21.24,4.365 21.24,7 L21.24,8 Q21.24,9.75 19.49,9.75 Q19.24,9.75 19.24,10 L19.24,12.18 Q19.24,12.689 19.611,13.06 L20.433,13.883 Q21.25,14.678 21.25,15.83 L21.25,17 Q21.25,19.635 19.85,21.137 Q18.345,22.75 15.5,22.75 L8.5,22.75 Q5.619,22.75 4.126,21.134 Q2.75,19.646 2.75,17 L2.75,11 Q2.75,10.689 2.97,10.47 Q3.19,10.25 3.5,10.25 Q3.811,10.25 4.031,10.47 Q4.25,10.689 4.25,11 Z"/>
  <path fill="#292D32" d="M7.24,21.973 L7.23,19.003 Q7.23,16.25 9.98,16.25 L13.991,16.25 Q16.716,16.25 16.74,18.983 L16.77,21.972 Q16.774,22.283 16.556,22.505 Q16.339,22.727 16.028,22.73 Q15.717,22.733 15.496,22.516 Q15.274,22.298 15.271,21.988 L15.241,18.997 Q15.229,17.75 13.991,17.75 L9.98,17.75 Q8.73,17.75 8.73,18.997 L8.74,21.967 Q8.742,22.278 8.523,22.499 Q8.304,22.719 7.993,22.72 Q7.682,22.721 7.462,22.502 Q7.242,22.283 7.24,21.973 Z"/>
  <path fill="#292D32" d="M13.971,8.53 L7.971,8.53 Q7.66,8.53 7.44,8.31 Q7.221,8.091 7.221,7.78 Q7.221,7.469 7.44,7.25 Q7.66,7.03 7.971,7.03 L13.971,7.03 Q14.281,7.03 14.501,7.25 Q14.721,7.469 14.721,7.78 Q14.721,8.091 14.501,8.31 Q14.281,8.53 13.971,8.53 Z"/>
</svg>

