<svg xmlns="http://www.w3.org/2000/svg" width="24" height="24" viewBox="0 0 24 24">
  <defs/>
  <path fill="#292D32" opacity="0.4" d="M18.5,10 L18.5,12.17 C18.5,12.7 18.71,13.21 19.09,13.59 L19.91,14.41 C20.29,14.79 20.5,15.3 20.5,15.83 L20.5,17 C20.5,20 18.97,22 15.5,22 L8.5,22 C4.97,22 3.5,20 3.5,17 L3.5,7 C3.5,4.08 4.9,2.1 8.24,2.01 C8.32,2 8.41,2 8.5,2 L15.5,2 C15.58,2 15.66,2 15.74,2.01 C19.04,2.09 20.5,4.07 20.5,7 L20.5,8 C20.5,8.55 20.05,9 19.5,9 C18.95,9 18.5,9.45 18.5,10 Z"/>
  <path fill="#292D32" d="M9.74,2 L9.69,4.96 C9.68,5.37 9.35,5.7 8.94,5.7 L8.93,5.7 C8.51,5.69 8.18,5.35 8.19,4.93 L8.24,2.01 C8.32,2 8.41,2 8.5,2 L9.74,2 Z"/>
  <path fill="#292D32" d="M12.74,2 L12.69,4.95 C12.68,5.35 12.35,5.68 11.94,5.68 L11.93,5.68 C11.51,5.67 11.18,5.33 11.19,4.92 L11.24,2 L12.74,2 Z"/>
  <path fill="#292D32" d="M15.74,2.01 L15.69,4.89 C15.68,5.3 15.35,5.63 14.94,5.63 L14.93,5.63 C14.51,5.62 14.18,5.28 14.19,4.87 L14.24,2 L15.5,2 C15.58,2 15.66,2 15.74,2.01 Z"/>
  <path fill="#292D32" d="M16.02,21.98 C15.851,21.99 15.681,22 15.511,22 L8.51,22 C8.33,22 8.16,22 8,21.98 L7.98,19 C7.98,17.9 8.87,17 9.98,17 L13.991,17 C15.091,17 15.98,17.89 15.991,18.99 L16.02,21.98 Z"/>
</svg>

