<svg xmlns="http://www.w3.org/2000/svg" width="24" height="24" viewBox="0 0 24 24">
  <defs/>
  <path fill="#292D32" d="M19.5,9 C20.05,9 20.5,8.55 20.5,8 L20.5,7 C20.5,4 18.97,2 15.5,2 L8.5,2 C4.97,2 3.5,4 3.5,7 L3.5,17 C3.5,19.314 4.378,21.026 6.395,21.684 C6.696,21.782 6.989,21.542 6.988,21.225 L6.98,19 C6.98,17.34 8.33,16 9.98,16 L13.99,16 C15.63,16 16.98,17.34 16.99,18.98 L17.006,21.227 C17.008,21.544 17.302,21.78 17.602,21.679 C19.59,21.013 20.5,19.303 20.5,17 L20.5,15.83 C20.5,15.3 20.29,14.79 19.91,14.41 L19.09,13.59 C18.71,13.21 18.5,12.7 18.5,12.17 L18.5,10 C18.5,9.45 18.95,9 19.5,9 Z M13.97,8.53 L7.97,8.53 C7.56,8.53 7.22,8.19 7.22,7.78 C7.22,7.37 7.56,7.03 7.97,7.03 L13.97,7.03 C14.38,7.03 14.72,7.37 14.72,7.78 C14.72,8.19 14.39,8.53 13.97,8.53 Z"/>
  <path fill="#292D32" d="M16.01,20.97 C16.016,21.526 15.567,21.98 15.01,21.98 L8.994,21.98 C8.444,21.98 7.997,21.536 7.994,20.987 L7.98,19 C7.98,17.9 8.87,17 9.98,17 L13.991,17 C15.091,17 15.98,17.89 15.991,18.99 L16.01,20.97 Z"/>
</svg>

