<svg xmlns="http://www.w3.org/2000/svg" width="24" height="24" viewBox="0 0 24 24">
  <defs/>
  <path fill="#292D32" opacity="0.4" d="M18.5,10 L18.5,12.17 C18.5,12.7 18.71,13.21 19.09,13.59 L19.91,14.41 C20.29,14.79 20.5,15.3 20.5,15.83 L20.5,17 C20.5,19.85 19.12,21.8 16.01,21.98 L15.99,18.99 C15.98,17.89 15.09,17 13.99,17 L9.98,17 C8.87,17 7.98,17.9 7.98,19 L7.99,21.98 C4.83,21.8 3.5,19.85 3.5,17 L3.5,7 C3.5,4 4.97,2 8.5,2 L15.5,2 C18.97,2 20.5,4 20.5,7 L20.5,8 C20.5,8.55 20.05,9 19.5,9 C18.95,9 18.5,9.45 18.5,10 Z"/>
  <path fill="#292D32" d="M16.011,21.98 C15.851,21.99 15.681,22 15.501,22 L8.5,22 C8.32,22 8.15,22 7.99,21.98 L7.98,19 C7.98,17.9 8.87,17 9.98,17 L13.991,17 C15.091,17 15.98,17.89 15.991,18.99 L16.011,21.98 Z"/>
  <path fill="#292D32" d="M13.971,8.53 L7.971,8.53 C7.561,8.53 7.221,8.19 7.221,7.78 C7.221,7.37 7.561,7.03 7.971,7.03 L13.971,7.03 C14.381,7.03 14.721,7.37 14.721,7.78 C14.721,8.19 14.391,8.53 13.971,8.53 Z"/>
</svg>

