<svg xmlns="http://www.w3.org/2000/svg" width="24" height="24" viewBox="0 0 24 24">
  <defs/>
  <path fill="#292D32" d="M2.75,7 Q2.75,4.355 4.124,2.866 Q5.616,1.25 8.49,1.25 L15.49,1.25 Q18.335,1.25 19.84,2.863 Q21.24,4.365 21.24,7 L21.24,8 Q21.24,8.723 20.727,9.237 Q20.213,9.75 19.49,9.75 Q19.24,9.75 19.24,10 L19.24,12.18 Q19.24,12.689 19.61,13.06 L20.433,13.883 Q21.25,14.678 21.25,15.83 L21.25,17 Q21.25,22.75 15.5,22.75 L8.5,22.75 Q2.75,22.75 2.75,17 Z M4.25,7 L4.25,17 Q4.25,21.25 8.5,21.25 L15.5,21.25 Q19.75,21.25 19.75,17 L19.75,15.83 Q19.75,15.311 19.387,14.957 L18.55,14.12 Q17.74,13.311 17.74,12.18 L17.74,10 Q17.74,9.277 18.253,8.763 Q18.767,8.25 19.49,8.25 Q19.74,8.25 19.74,8 L19.74,7 Q19.74,2.75 15.49,2.75 L8.49,2.75 Q6.272,2.75 5.226,3.884 Q4.25,4.941 4.25,7 Z"/>
  <path fill="#292D32" d="M7.24,21.973 L7.23,19.003 Q7.23,16.25 9.98,16.25 L13.99,16.25 Q16.715,16.25 16.74,18.983 L16.77,21.972 Q16.773,22.283 16.556,22.505 Q16.338,22.727 16.028,22.73 Q15.717,22.733 15.495,22.516 Q15.273,22.298 15.27,21.988 L15.24,18.997 Q15.229,17.75 13.99,17.75 L9.98,17.75 Q8.73,17.75 8.73,18.997 L8.74,21.967 Q8.741,22.278 8.522,22.499 Q8.303,22.719 7.993,22.72 Q7.682,22.721 7.461,22.502 Q7.241,22.283 7.24,21.973 Z"/>
  <path fill="#292D32" d="M8.19,4.937 L8.24,2.047 Q8.245,1.736 8.469,1.521 Q8.692,1.305 9.003,1.31 Q9.314,1.316 9.529,1.539 Q9.745,1.762 9.74,2.073 L9.69,4.963 Q9.684,5.274 9.461,5.489 Q9.238,5.705 8.927,5.7 Q8.616,5.695 8.401,5.471 Q8.185,5.248 8.19,4.937 Z"/>
  <path fill="#292D32" d="M11.19,4.937 L11.24,2.047 Q11.245,1.736 11.469,1.521 Q11.692,1.305 12.003,1.31 Q12.313,1.316 12.529,1.539 Q12.745,1.762 12.74,2.073 L12.69,4.963 Q12.684,5.274 12.461,5.489 Q12.238,5.705 11.927,5.7 Q11.616,5.695 11.4,5.471 Q11.185,5.248 11.19,4.937 Z"/>
  <path fill="#292D32" d="M14.19,4.907 L14.24,2.027 Q14.245,1.716 14.469,1.501 Q14.692,1.285 15.003,1.29 Q15.314,1.296 15.529,1.519 Q15.745,1.742 15.74,2.053 L15.69,4.933 Q15.684,5.244 15.461,5.459 Q15.237,5.675 14.927,5.67 Q14.616,5.665 14.4,5.441 Q14.185,5.218 14.19,4.907 Z"/>
</svg>

