<svg xmlns="http://www.w3.org/2000/svg" width="24" height="24" viewBox="0 0 24 24">
  <defs/>
  <path fill="#292D32" d="M2.75,7 Q2.75,4.355 4.124,2.866 Q5.616,1.25 8.49,1.25 L15.49,1.25 Q18.335,1.25 19.84,2.863 Q21.24,4.365 21.24,7 L21.24,8 Q21.24,8.723 20.727,9.237 Q20.213,9.75 19.49,9.75 Q19.24,9.75 19.24,10 L19.24,12.18 Q19.24,12.689 19.61,13.06 L20.433,13.883 Q21.25,14.678 21.25,15.83 L21.25,17 Q21.25,22.75 15.5,22.75 L8.5,22.75 Q2.75,22.75 2.75,17 Z M4.25,7 L4.25,17 Q4.25,21.25 8.5,21.25 L15.5,21.25 Q19.75,21.25 19.75,17 L19.75,15.83 Q19.75,15.311 19.387,14.957 L18.55,14.12 Q17.74,13.311 17.74,12.18 L17.74,10 Q17.74,9.277 18.253,8.763 Q18.767,8.25 19.49,8.25 Q19.74,8.25 19.74,8 L19.74,7 Q19.74,2.75 15.49,2.75 L8.49,2.75 Q6.272,2.75 5.226,3.884 Q4.25,4.941 4.25,7 Z"/>
  <path fill="#292D32" opacity="0.4" d="M7.24,21.973 L7.23,19.003 Q7.23,16.25 9.98,16.25 L13.991,16.25 Q16.716,16.25 16.74,18.983 L16.77,21.972 Q16.774,22.283 16.556,22.505 Q16.339,22.727 16.028,22.73 Q15.717,22.733 15.496,22.516 Q15.274,22.298 15.271,21.988 L15.241,18.997 Q15.229,17.75 13.991,17.75 L9.98,17.75 Q8.73,17.75 8.73,18.997 L8.74,21.967 Q8.742,22.278 8.523,22.499 Q8.304,22.719 7.993,22.72 Q7.682,22.721 7.462,22.502 Q7.242,22.283 7.24,21.973 Z"/>
  <path fill="#292D32" opacity="0.4" d="M13.97,8.53 L7.97,8.53 Q7.659,8.53 7.439,8.31 Q7.22,8.09 7.22,7.78 Q7.22,7.469 7.439,7.249 Q7.659,7.03 7.97,7.03 L13.97,7.03 Q14.28,7.03 14.5,7.249 Q14.72,7.469 14.72,7.78 Q14.72,8.09 14.5,8.31 Q14.28,8.53 13.97,8.53 Z"/>
</svg>

