<svg xmlns="http://www.w3.org/2000/svg" width="24" height="24" viewBox="0 0 24 24">
  <defs/>
  <path fill="#292D32" d="M16.01,20.97 C16.016,21.526 15.567,21.98 15.01,21.98 L8.994,21.98 C8.444,21.98 7.997,21.536 7.994,20.987 L7.98,19 C7.98,17.9 8.87,17 9.98,17 L13.991,17 C15.091,17 15.98,17.89 15.991,18.99 L16.01,20.97 Z"/>
  <path fill="#292D32" d="M18.5,9.999 L18.5,12.169 C18.5,12.699 18.71,13.209 19.09,13.589 L19.91,14.409 C20.29,14.789 20.5,15.299 20.5,15.829 L20.5,16.999 C20.5,19.3 19.591,20.993 17.606,21.666 C17.305,21.768 17.009,21.53 17.008,21.212 L17,18.979 C16.98,17.339 15.63,15.999 14,15.999 L9.99,15.999 C8.33,15.999 6.99,17.349 6.99,18.999 L6.99,21.224 C6.99,21.541 6.696,21.78 6.395,21.68 C4.386,21.015 3.5,19.312 3.5,16.999 L3.5,6.999 C3.5,4.593 4.452,2.833 6.645,2.236 C6.946,2.154 7.226,2.396 7.221,2.707 L7.19,4.899 C7.18,5.369 7.35,5.819 7.67,6.159 C8,6.499 8.43,6.689 8.94,6.699 C9.454,6.699 9.912,6.487 10.225,6.14 C10.337,6.016 10.552,6.011 10.67,6.129 C10.99,6.469 11.43,6.669 11.94,6.679 C12.454,6.679 12.924,6.453 13.244,6.089 C13.349,5.97 13.564,5.96 13.67,6.079 C13.99,6.419 14.43,6.619 14.94,6.629 C15.9,6.629 16.67,5.879 16.69,4.909 L16.73,2.686 C16.735,2.382 17.011,2.151 17.305,2.229 C19.509,2.815 20.5,4.587 20.5,6.999 L20.5,7.999 C20.5,8.549 20.05,8.999 19.5,8.999 C18.95,8.999 18.5,9.449 18.5,9.999 Z"/>
  <path fill="#292D32" d="M9.228,2.003 C9.509,2.001 9.736,2.231 9.731,2.512 L9.69,4.96 C9.68,5.37 9.35,5.7 8.94,5.7 L8.93,5.7 C8.51,5.69 8.18,5.35 8.19,4.93 L8.19,2.507 C8.19,2.232 8.412,2.009 8.686,2.007 L9.228,2.003 Z"/>
  <path fill="#292D32" d="M12.231,2 C12.511,2 12.736,2.229 12.731,2.508 L12.69,4.95 C12.68,5.35 12.35,5.68 11.94,5.68 L11.93,5.68 C11.51,5.67 11.18,5.33 11.19,4.92 L11.19,2.5 C11.19,2.224 11.414,2 11.69,2 L12.231,2 Z"/>
  <path fill="#292D32" d="M15.234,2.007 C15.512,2.008 15.736,2.237 15.731,2.515 L15.69,4.89 C15.68,5.3 15.35,5.63 14.94,5.63 L14.93,5.63 C14.51,5.62 14.18,5.28 14.19,4.87 L14.19,2.503 C14.19,2.226 14.415,2.001 14.693,2.003 L15.234,2.007 Z"/>
</svg>

