<svg xmlns="http://www.w3.org/2000/svg" width="24" height="24" viewBox="0 0 24 24">
  <defs/>
  <path fill="#292D32" d="M13.3,8.11 L14.62,10.75 C14.8,11.11 15.28,11.47 15.68,11.53 L18.07,11.93 C19.6,12.19 19.96,13.29 18.86,14.39 L17,16.25 C16.69,16.56 16.51,17.17 16.61,17.61 L17.14,19.92 C17.56,21.74 16.59,22.45 14.98,21.5 L12.74,20.17 C12.33,19.93 11.67,19.93 11.26,20.17 L9.02,21.5 C7.41,22.45 6.44,21.74 6.86,19.92 L7.39,17.61 C7.49,17.18 7.31,16.57 7,16.25 L5.14,14.39 C4.04,13.29 4.4,12.18 5.93,11.93 L8.32,11.53 C8.72,11.46 9.2,11.11 9.38,10.75 L10.7,8.11 C11.41,6.68 12.59,6.68 13.3,8.11 Z"/>
  <path fill="#292D32" opacity="0.4" d="M6,9.75 C5.59,9.75 5.25,9.41 5.25,9 L5.25,2 C5.25,1.59 5.59,1.25 6,1.25 C6.41,1.25 6.75,1.59 6.75,2 L6.75,9 C6.75,9.41 6.41,9.75 6,9.75 Z"/>
  <path fill="#292D32" opacity="0.4" d="M18,9.75 C17.59,9.75 17.25,9.41 17.25,9 L17.25,2 C17.25,1.59 17.59,1.25 18,1.25 C18.41,1.25 18.75,1.59 18.75,2 L18.75,9 C18.75,9.41 18.41,9.75 18,9.75 Z"/>
  <path fill="#292D32" opacity="0.4" d="M12,4.75 C11.59,4.75 11.25,4.41 11.25,4 L11.25,2 C11.25,1.59 11.59,1.25 12,1.25 C12.41,1.25 12.75,1.59 12.75,2 L12.75,4 C12.75,4.41 12.41,4.75 12,4.75 Z"/>
</svg>

