<svg xmlns="http://www.w3.org/2000/svg" width="24" height="24" viewBox="0 0 24 24">
  <defs/>
  <path fill="#292D32" d="M6.67,14 L4,14 C2.9,14 2,14.9 2,16 L2,21 C2,21.55 2.45,22 3,22 L6.67,22 C7.22,22 7.67,21.55 7.67,21 L7.67,15 C7.67,14.45 7.22,14 6.67,14 Z"/>
  <path fill="#292D32" d="M13.33,10 L10.66,10 C9.56,10 8.66,10.9 8.66,12 L8.66,21 C8.66,21.55 9.11,22 9.66,22 L14.33,22 C14.88,22 15.33,21.55 15.33,21 L15.33,12 C15.33,10.9 14.44,10 13.33,10 Z"/>
  <path fill="#292D32" d="M20,17 L17.33,17 C16.78,17 16.33,17.45 16.33,18 L16.33,21 C16.33,21.55 16.78,22 17.33,22 L21,22 C21.55,22 22,21.55 22,21 L22,19 C22,17.9 21.1,17 20,17 Z"/>
  <path fill="#292D32" d="M15.009,4.85 C15.319,4.54 15.44,4.17 15.339,3.85 C15.239,3.53 14.93,3.3 14.489,3.23 L13.53,3.07 C13.489,3.07 13.399,3 13.38,2.96 L12.85,1.9 C12.45,1.09 11.54,1.09 11.139,1.9 L10.61,2.96 C10.6,3 10.509,3.07 10.47,3.07 L9.509,3.23 C9.069,3.3 8.769,3.53 8.659,3.85 C8.559,4.17 8.679,4.54 8.989,4.85 L9.729,5.6 C9.769,5.63 9.799,5.75 9.789,5.79 L9.579,6.71 C9.419,7.4 9.679,7.71 9.849,7.83 C10.02,7.95 10.389,8.11 10.999,7.75 L11.899,7.22 C11.94,7.19 12.069,7.19 12.11,7.22 L12.999,7.75 C13.28,7.92 13.509,7.97 13.69,7.97 C13.899,7.97 14.05,7.89 14.139,7.83 C14.309,7.71 14.569,7.4 14.409,6.71 L14.2,5.79 C14.19,5.74 14.22,5.63 14.259,5.6 L15.009,4.85 Z"/>
</svg>

