<svg xmlns="http://www.w3.org/2000/svg" width="24" height="24" viewBox="0 0 24 24">
  <defs/>
  <path fill="#292D32" opacity="0.4" d="M8.67,14 L4,14 C2.9,14 2,14.9 2,16 L2,22 L8.67,22 L8.67,14 Z"/>
  <path fill="#292D32" d="M13.33,10 L10.66,10 C9.56,10 8.66,10.9 8.66,12 L8.66,22 L15.33,22 L15.33,12 C15.33,10.9 14.44,10 13.33,10 Z"/>
  <path fill="#292D32" opacity="0.4" d="M20,17 L15.33,17 L15.33,22 L22,22 L22,19 C22,17.9 21.1,17 20,17 Z"/>
  <path fill="#292D32" d="M15.01,4.85 C15.32,4.54 15.44,4.17 15.34,3.85 C15.24,3.53 14.93,3.3 14.49,3.23 L13.53,3.07 C13.49,3.06 13.4,3 13.38,2.96 L12.85,1.9 C12.45,1.09 11.54,1.09 11.14,1.9 L10.61,2.96 C10.59,3 10.5,3.06 10.46,3.07 L9.5,3.23 C9.06,3.3 8.76,3.53 8.65,3.85 C8.55,4.17 8.67,4.54 8.98,4.85 L9.72,5.6 C9.75,5.63 9.79,5.75 9.78,5.79 L9.57,6.71 C9.41,7.39 9.67,7.7 9.84,7.83 C10.01,7.95 10.38,8.11 10.99,7.75 L11.89,7.22 C11.93,7.19 12.06,7.19 12.1,7.22 L13,7.75 C13.28,7.92 13.51,7.97 13.69,7.97 C13.9,7.97 14.05,7.89 14.14,7.83 C14.31,7.71 14.57,7.4 14.41,6.71 L14.2,5.79 C14.19,5.74 14.22,5.63 14.26,5.6 L15.01,4.85 Z"/>
</svg>

