<svg xmlns="http://www.w3.org/2000/svg" width="24" height="24" viewBox="0 0 24 24">
  <defs/>
  <path fill="#292D32" d="M8.67,13.25 Q8.981,13.25 9.2,13.47 Q9.42,13.689 9.42,14 L9.42,22 Q9.42,22.311 9.2,22.53 Q8.981,22.75 8.67,22.75 L2,22.75 Q1.689,22.75 1.47,22.53 Q1.25,22.311 1.25,22 L1.25,16 Q1.25,13.25 4,13.25 Z M7.92,14.75 L4,14.75 Q3.486,14.75 3.118,15.118 Q2.75,15.486 2.75,16 L2.75,21.25 L7.92,21.25 L7.92,14.75 Z"/>
  <path fill="#292D32" d="M13.33,9.25 Q14.472,9.25 15.277,10.058 Q16.08,10.863 16.08,12 L16.08,22 Q16.08,22.311 15.86,22.53 Q15.641,22.75 15.33,22.75 L8.66,22.75 Q8.349,22.75 8.13,22.53 Q7.91,22.311 7.91,22 L7.91,12 Q7.91,10.864 8.717,10.057 Q9.524,9.25 10.66,9.25 Z M13.33,10.75 L10.66,10.75 Q9.41,10.75 9.41,12 L9.41,21.25 L14.58,21.25 L14.58,12 Q14.58,10.75 13.33,10.75 Z"/>
  <path fill="#292D32" d="M20,16.25 Q21.136,16.25 21.943,17.057 Q22.75,17.864 22.75,19 L22.75,22 Q22.75,22.311 22.53,22.53 Q22.311,22.75 22,22.75 L15.33,22.75 Q15.019,22.75 14.8,22.53 Q14.58,22.311 14.58,22 L14.58,17 Q14.58,16.689 14.8,16.47 Q15.019,16.25 15.33,16.25 Z M20,17.75 L16.08,17.75 L16.08,21.25 L21.25,21.25 L21.25,19 Q21.25,17.75 20,17.75 Z"/>
  <path fill="#292D32" d="M13.191,1.735 L13.681,2.715 L14.553,2.86 Q15.458,3.009 15.696,3.732 Q15.938,4.468 15.274,5.116 L14.593,5.798 L14.781,6.623 Q15.02,7.651 14.365,8.128 Q13.713,8.603 12.807,8.065 L11.995,7.587 L11.181,8.066 Q10.277,8.603 9.625,8.128 Q8.97,7.651 9.21,6.62 L9.397,5.798 L8.72,5.12 Q8.065,4.465 8.299,3.741 Q8.533,3.018 9.451,2.87 L10.319,2.725 L10.809,1.745 Q11.232,0.899 11.995,0.894 Q12.76,0.889 13.188,1.73 Z M12.002,2.712 L11.621,3.475 Q11.327,4.064 10.653,4.19 L10.017,4.296 L10.511,4.791 Q11.054,5.302 10.881,6.037 L10.759,6.574 L11.312,6.248 Q11.995,5.827 12.678,6.248 L13.231,6.574 L13.11,6.042 Q12.942,5.328 13.47,4.8 L13.983,4.286 L13.36,4.182 Q12.675,4.089 12.375,3.458 L12.002,2.712 Z"/>
</svg>

