<svg xmlns="http://www.w3.org/2000/svg" width="24" height="24" viewBox="0 0 24 24">
  <defs/>
  <path fill="#292D32" d="M15.964,22.654 Q15.316,22.57 14.604,22.143 L12.367,20.815 Q12.01,20.606 11.649,20.817 L9.413,22.145 Q7.778,23.109 6.746,22.354 Q5.713,21.598 6.139,19.751 L6.669,17.442 Q6.756,17.066 6.471,16.772 L4.619,14.92 Q3.471,13.772 3.845,12.611 Q4.218,11.451 5.819,11.19 L8.206,10.79 Q8.562,10.728 8.719,10.415 L10.039,7.775 Q10.788,6.287 12.013,6.287 Q13.242,6.287 13.981,7.776 L15.301,10.415 Q15.462,10.737 15.801,10.788 L18.204,11.19 Q19.802,11.462 20.175,12.614 Q20.549,13.772 19.4,14.92 L17.54,16.78 Q17.263,17.057 17.351,17.444 Q17.42,17.747 17.254,18.01 Q17.089,18.273 16.786,18.341 Q16.483,18.41 16.22,18.245 Q15.957,18.079 15.888,17.776 Q15.617,16.582 16.479,15.72 L18.339,13.86 Q18.839,13.36 18.747,13.076 Q18.655,12.788 17.956,12.67 L15.578,12.272 Q14.469,12.105 13.959,11.085 L12.638,8.444 Q12.312,7.787 12.013,7.787 Q11.712,7.787 11.381,8.445 L10.061,11.085 Q9.566,12.075 8.454,12.27 L6.061,12.67 Q5.365,12.784 5.272,13.071 Q5.18,13.359 5.68,13.86 L7.548,15.728 Q8.402,16.61 8.131,17.778 L7.601,20.089 Q7.397,20.972 7.631,21.143 Q7.867,21.316 8.647,20.855 L10.891,19.523 Q12.01,18.868 13.133,19.525 L15.376,20.857 Q15.819,21.123 16.156,21.166 Q16.464,21.206 16.654,21.452 Q16.843,21.698 16.804,22.006 Q16.764,22.314 16.518,22.504 Q16.272,22.694 15.964,22.654 Z"/>
  <path fill="#292D32" d="M5.25,9 L5.25,2 Q5.25,1.689 5.47,1.47 Q5.689,1.25 6,1.25 Q6.311,1.25 6.53,1.47 Q6.75,1.689 6.75,2 L6.75,9 Q6.75,9.311 6.53,9.53 Q6.311,9.75 6,9.75 Q5.689,9.75 5.47,9.53 Q5.25,9.311 5.25,9 Z"/>
  <path fill="#292D32" d="M17.25,9 L17.25,2 Q17.25,1.689 17.47,1.47 Q17.689,1.25 18,1.25 Q18.311,1.25 18.53,1.47 Q18.75,1.689 18.75,2 L18.75,9 Q18.75,9.311 18.53,9.53 Q18.311,9.75 18,9.75 Q17.689,9.75 17.47,9.53 Q17.25,9.311 17.25,9 Z"/>
  <path fill="#292D32" d="M11.25,4 L11.25,2 Q11.25,1.689 11.47,1.47 Q11.689,1.25 12,1.25 Q12.311,1.25 12.53,1.47 Q12.75,1.689 12.75,2 L12.75,4 Q12.75,4.311 12.53,4.53 Q12.311,4.75 12,4.75 Q11.689,4.75 11.47,4.53 Q11.25,4.311 11.25,4 Z"/>
</svg>

