<svg xmlns="http://www.w3.org/2000/svg" width="24" height="24" viewBox="0 0 24 24">
  <defs/>
  <path fill="#292D32" d="M16.241,22.67 C15.811,22.67 15.271,22.54 14.601,22.14 L12.361,20.81 C12.191,20.71 11.811,20.71 11.641,20.81 L9.401,22.14 C7.981,22.98 7.121,22.63 6.741,22.35 C6.361,22.07 5.761,21.35 6.131,19.75 L6.661,17.44 C6.701,17.26 6.601,16.92 6.471,16.78 L4.611,14.92 C3.611,13.92 3.691,13.05 3.831,12.61 C3.971,12.17 4.411,11.42 5.801,11.18 L8.191,10.78 C8.361,10.75 8.631,10.55 8.701,10.4 L10.021,7.76 C10.671,6.47 11.531,6.27 11.991,6.27 C12.451,6.27 13.311,6.46 13.961,7.76 L15.281,10.4 C15.361,10.55 15.631,10.75 15.791,10.78 L18.181,11.18 C19.571,11.41 20.011,12.17 20.151,12.61 C20.291,13.05 20.371,13.92 19.371,14.92 L17.511,16.78 C17.381,16.91 17.281,17.26 17.321,17.44 L17.851,19.74 C18.221,21.35 17.631,22.06 17.241,22.34 C17.061,22.5 16.721,22.67 16.241,22.67 Z M12.001,19.24 C12.401,19.24 12.801,19.33 13.121,19.52 L15.361,20.85 C15.951,21.2 16.301,21.2 16.371,21.14 C16.451,21.08 16.551,20.75 16.401,20.09 L15.871,17.79 C15.711,17.11 15.971,16.23 16.461,15.74 L18.321,13.88 C18.691,13.51 18.771,13.22 18.731,13.09 C18.691,12.96 18.461,12.77 17.941,12.69 L15.551,12.29 C14.911,12.18 14.231,11.68 13.941,11.1 L12.621,8.46 C12.391,8.01 12.141,7.8 11.991,7.8 C11.841,7.8 11.591,8 11.361,8.46 L10.041,11.1 C9.751,11.68 9.071,12.18 8.431,12.29 L6.041,12.69 C5.521,12.78 5.291,12.96 5.251,13.09 C5.211,13.22 5.291,13.51 5.661,13.88 L7.521,15.74 C8.011,16.23 8.271,17.12 8.111,17.79 L7.581,20.1 C7.431,20.77 7.531,21.1 7.611,21.15 C7.691,21.21 8.041,21.21 8.621,20.86 L10.861,19.53 C11.201,19.34 11.601,19.24 12.001,19.24 Z"/>
  <path fill="#292D32" d="M6,9.75 C5.59,9.75 5.25,9.41 5.25,9 L5.25,2 C5.25,1.59 5.59,1.25 6,1.25 C6.41,1.25 6.75,1.59 6.75,2 L6.75,9 C6.75,9.41 6.41,9.75 6,9.75 Z"/>
  <path fill="#292D32" d="M18,9.75 C17.59,9.75 17.25,9.41 17.25,9 L17.25,2 C17.25,1.59 17.59,1.25 18,1.25 C18.41,1.25 18.75,1.59 18.75,2 L18.75,9 C18.75,9.41 18.41,9.75 18,9.75 Z"/>
  <path fill="#292D32" d="M12,4.75 C11.59,4.75 11.25,4.41 11.25,4 L11.25,2 C11.25,1.59 11.59,1.25 12,1.25 C12.41,1.25 12.75,1.59 12.75,2 L12.75,4 C12.75,4.41 12.41,4.75 12,4.75 Z"/>
</svg>

