<svg xmlns="http://www.w3.org/2000/svg" width="24" height="24" viewBox="0 0 24 24">
  <defs/>
  <path fill="#292D32" d="M8.67,22.75 L2,22.75 C1.59,22.75 1.25,22.41 1.25,22 L1.25,16 C1.25,14.48 2.48,13.25 4,13.25 L8.67,13.25 C9.08,13.25 9.42,13.59 9.42,14 L9.42,22 C9.42,22.41 9.08,22.75 8.67,22.75 Z M2.75,21.25 L7.92,21.25 L7.92,14.75 L4,14.75 C3.31,14.75 2.75,15.31 2.75,16 L2.75,21.25 Z"/>
  <path fill="#292D32" d="M15.33,22.75 L8.66,22.75 C8.25,22.75 7.91,22.41 7.91,22 L7.91,12 C7.91,10.48 9.14,9.25 10.66,9.25 L13.33,9.25 C14.85,9.25 16.08,10.48 16.08,12 L16.08,22 C16.08,22.41 15.75,22.75 15.33,22.75 Z M9.42,21.25 L14.59,21.25 L14.59,12 C14.59,11.31 14.03,10.75 13.34,10.75 L10.67,10.75 C9.98,10.75 9.42,11.31 9.42,12 L9.42,21.25 Z"/>
  <path fill="#292D32" d="M22,22.75 L15.33,22.75 C14.92,22.75 14.58,22.41 14.58,22 L14.58,17 C14.58,16.59 14.92,16.25 15.33,16.25 L20,16.25 C21.52,16.25 22.75,17.48 22.75,19 L22.75,22 C22.75,22.41 22.41,22.75 22,22.75 Z M16.08,21.25 L21.25,21.25 L21.25,19 C21.25,18.31 20.69,17.75 20,17.75 L16.08,17.75 L16.08,21.25 Z"/>
  <path fill="#292D32" d="M13.699,8.35 C13.459,8.35 13.159,8.28 12.819,8.08 L11.999,7.59 L11.189,8.07 C10.369,8.56 9.829,8.27 9.629,8.13 C9.429,7.99 8.999,7.55 9.209,6.63 L9.399,5.8 L8.719,5.12 C8.299,4.7 8.149,4.2 8.299,3.74 C8.449,3.28 8.859,2.96 9.439,2.86 L10.309,2.71 L10.799,1.73 C11.339,0.66 12.649,0.66 13.179,1.73 L13.669,2.71 L14.539,2.86 C15.119,2.96 15.539,3.28 15.679,3.74 C15.829,4.2 15.669,4.7 15.259,5.12 L14.579,5.8 L14.769,6.63 C14.979,7.56 14.549,7.99 14.349,8.14 C14.259,8.22 14.029,8.35 13.699,8.35 Z M11.999,6.08 C12.239,6.08 12.479,6.14 12.679,6.26 L13.239,6.59 L13.119,6.05 C13.019,5.63 13.169,5.12 13.479,4.81 L13.989,4.3 L13.359,4.19 C12.959,4.12 12.569,3.83 12.389,3.47 L11.999,2.72 L11.619,3.47 C11.439,3.83 11.049,4.12 10.649,4.19 L10.019,4.29 L10.529,4.8 C10.839,5.11 10.979,5.62 10.889,6.04 L10.769,6.58 L11.329,6.25 C11.519,6.13 11.759,6.08 11.999,6.08 Z"/>
</svg>

