<svg xmlns="http://www.w3.org/2000/svg" width="24" height="24" viewBox="0 0 24 24">
  <defs/>
  <path fill="#292D32" d="M9,22.75 Q1.25,22.75 1.25,15 L1.25,9 Q1.25,1.25 9,1.25 L15,1.25 Q22.75,1.25 22.75,9 L22.75,15 Q22.75,22.75 15,22.75 Z M9,21.25 L15,21.25 Q18.439,21.25 19.845,19.845 Q21.25,18.439 21.25,15 L21.25,9 Q21.25,2.75 15,2.75 L9,2.75 Q2.75,2.75 2.75,9 L2.75,15 Q2.75,18.439 4.155,19.845 Q5.561,21.25 9,21.25 Z"/>
  <path fill="#292D32" opacity="0.4" d="M9.448,17.043 Q8.31,18.257 7.265,17.812 Q6.251,17.38 6.24,15.72 L6.24,9.09 Q6.24,7.016 7.001,6.207 Q7.78,5.38 9.77,5.38 L14.21,5.38 Q16.201,5.38 16.979,6.207 Q17.74,7.016 17.74,9.09 L17.74,15.72 Q17.74,17.391 16.732,17.827 Q15.691,18.277 14.544,17.054 Q14.423,16.925 14.289,16.933 Q14.155,16.94 14.051,17.079 L13.461,17.868 Q12.884,18.642 12,18.642 Q11.117,18.642 10.54,17.87 L9.937,17.065 Q9.831,16.922 9.702,16.915 Q9.572,16.908 9.451,17.039 Z M9.784,15.417 Q10.619,15.463 11.144,16.175 L11.74,16.97 Q11.869,17.142 12,17.142 Q12.132,17.142 12.259,16.971 L12.849,16.181 Q13.375,15.48 14.207,15.435 Q15.037,15.389 15.636,16.026 Q16.064,16.482 16.136,16.45 Q16.24,16.405 16.24,15.72 L16.24,9.09 Q16.24,7.611 15.886,7.235 Q15.552,6.88 14.21,6.88 L9.77,6.88 Q8.428,6.88 8.094,7.235 Q7.74,7.611 7.74,9.09 L7.74,15.72 Q7.745,16.386 7.853,16.432 Q7.932,16.466 8.349,16.021 Q8.35,16.02 8.351,16.019 Q8.352,16.018 8.353,16.017 Q8.951,15.372 9.784,15.417 Z"/>
</svg>

