<svg xmlns="http://www.w3.org/2000/svg" width="24" height="24" viewBox="0 0 24 24">
  <defs/>
  <path fill="#292D32" d="M2.75,13.05 L2.75,15 Q2.75,18.439 4.155,19.845 Q5.561,21.25 9,21.25 L15,21.25 Q18.439,21.25 19.845,19.845 Q21.25,18.439 21.25,15 L21.25,9 Q21.25,2.75 15,2.75 L9,2.75 Q2.75,2.75 2.75,9 Q2.75,9.311 2.53,9.53 Q2.311,9.75 2,9.75 Q1.689,9.75 1.47,9.53 Q1.25,9.311 1.25,9 Q1.25,1.25 9,1.25 L15,1.25 Q22.75,1.25 22.75,9 L22.75,15 Q22.75,22.75 15,22.75 L9,22.75 Q1.25,22.75 1.25,15 L1.25,13.05 Q1.25,12.739 1.47,12.52 Q1.689,12.3 2,12.3 Q2.311,12.3 2.53,12.52 Q2.75,12.739 2.75,13.05 Z"/>
  <path fill="#292D32" d="M10.59,12.59 L14.08,12.59 L14.08,9.1 Q14.08,8.789 14.299,8.57 Q14.519,8.35 14.83,8.35 Q15.14,8.35 15.36,8.57 Q15.58,8.789 15.58,9.1 L15.58,13.34 Q15.58,13.65 15.36,13.87 Q15.14,14.09 14.83,14.09 L10.59,14.09 Q10.279,14.09 10.059,13.87 Q9.84,13.65 9.84,13.34 Q9.84,13.029 10.059,12.809 Q10.279,12.59 10.59,12.59 Z"/>
  <path fill="#292D32" d="M14.3,13.87 L8.64,8.21 Q8.42,7.991 8.42,7.68 Q8.42,7.369 8.64,7.15 Q8.859,6.93 9.17,6.93 Q9.481,6.93 9.7,7.15 L15.36,12.81 Q15.58,13.029 15.58,13.34 Q15.58,13.651 15.36,13.87 Q15.141,14.09 14.83,14.09 Q14.519,14.09 14.3,13.87 Z"/>
  <path fill="#292D32" d="M6.238,15.799 Q12,17.724 17.762,15.799 Q18.057,15.7 18.335,15.839 Q18.613,15.978 18.711,16.272 Q18.81,16.567 18.671,16.845 Q18.532,17.123 18.238,17.221 Q12,19.306 5.762,17.221 Q5.468,17.123 5.329,16.845 Q5.19,16.567 5.289,16.272 Q5.387,15.978 5.665,15.839 Q5.943,15.7 6.238,15.799 Z"/>
</svg>

