<svg xmlns="http://www.w3.org/2000/svg" width="24" height="24" viewBox="0 0 24 24">
  <defs/>
  <path fill="#292D32" d="M19.75,11.3 L19.75,7.04 Q19.75,4.312 19.01,3.521 Q18.288,2.75 15.78,2.75 L8.22,2.75 Q5.712,2.75 4.99,3.521 Q4.25,4.312 4.25,7.04 L4.25,18.3 Q4.25,19.802 4.748,20.016 Q5.214,20.217 6.181,19.179 Q6.19,19.169 6.199,19.16 L6.202,19.157 Q7.053,18.26 8.212,18.324 Q9.378,18.387 10.121,19.381 L11.131,20.731 Q11.317,20.979 11.272,21.287 Q11.228,21.594 10.979,21.781 Q10.731,21.967 10.423,21.922 Q10.116,21.878 9.929,21.629 L8.919,20.279 Q8.596,19.847 8.13,19.821 Q7.661,19.796 7.286,20.194 Q7.278,20.202 7.271,20.21 L7.27,20.211 Q5.587,22.011 4.155,21.394 Q2.75,20.789 2.75,18.3 L2.75,7.04 Q2.75,3.72 3.895,2.496 Q5.061,1.25 8.22,1.25 L15.78,1.25 Q18.939,1.25 20.105,2.496 Q21.25,3.72 21.25,7.04 L21.25,11.3 Q21.25,11.611 21.03,11.83 Q20.811,12.05 20.5,12.05 Q20.189,12.05 19.97,11.83 Q19.75,11.611 19.75,11.3 Z"/>
  <path fill="#292D32" d="M18.2,22.15 Q16.564,22.15 15.407,20.993 Q14.25,19.836 14.25,18.2 Q14.25,14.25 18.2,14.25 Q19.836,14.25 20.993,15.407 Q22.15,16.564 22.15,18.2 Q22.15,22.15 18.2,22.15 Z M18.2,20.65 Q19.215,20.65 19.932,19.932 Q20.65,19.215 20.65,18.2 Q20.65,17.185 19.932,16.468 Q19.215,15.75 18.2,15.75 Q15.75,15.75 15.75,18.2 Q15.75,19.215 16.468,19.932 Q17.185,20.65 18.2,20.65 Z"/>
  <path fill="#292D32" d="M21.47,22.53 L20.47,21.53 Q20.25,21.311 20.25,21 Q20.25,20.689 20.47,20.47 Q20.689,20.25 21,20.25 Q21.311,20.25 21.53,20.47 L22.53,21.47 Q22.75,21.689 22.75,22 Q22.75,22.311 22.53,22.53 Q22.311,22.75 22,22.75 Q21.689,22.75 21.47,22.53 Z"/>
  <path fill="#292D32" d="M8,6.25 L16,6.25 Q16.311,6.25 16.53,6.47 Q16.75,6.689 16.75,7 Q16.75,7.311 16.53,7.53 Q16.311,7.75 16,7.75 L8,7.75 Q7.689,7.75 7.47,7.53 Q7.25,7.311 7.25,7 Q7.25,6.689 7.47,6.47 Q7.689,6.25 8,6.25 Z"/>
  <path fill="#292D32" d="M9,10.25 L15,10.25 Q15.311,10.25 15.53,10.47 Q15.75,10.689 15.75,11 Q15.75,11.311 15.53,11.53 Q15.311,11.75 15,11.75 L9,11.75 Q8.689,11.75 8.47,11.53 Q8.25,11.311 8.25,11 Q8.25,10.689 8.47,10.47 Q8.689,10.25 9,10.25 Z"/>
</svg>

