<svg xmlns="http://www.w3.org/2000/svg" width="24" height="24" viewBox="0 0 24 24">
  <defs/>
  <path fill="#292D32" d="M2.75,13.05 L2.75,15 Q2.75,18.439 4.155,19.845 Q5.561,21.25 9,21.25 L15,21.25 Q18.439,21.25 19.845,19.845 Q21.25,18.439 21.25,15 L21.25,9 Q21.25,2.75 15,2.75 L9,2.75 Q2.75,2.75 2.75,9 Q2.75,9.311 2.53,9.53 Q2.311,9.75 2,9.75 Q1.689,9.75 1.47,9.53 Q1.25,9.311 1.25,9 Q1.25,1.25 9,1.25 L15,1.25 Q22.75,1.25 22.75,9 L22.75,15 Q22.75,22.75 15,22.75 L9,22.75 Q1.25,22.75 1.25,15 L1.25,13.05 Q1.25,12.739 1.47,12.52 Q1.689,12.3 2,12.3 Q2.311,12.3 2.53,12.52 Q2.75,12.739 2.75,13.05 Z"/>
  <path fill="#292D32" d="M9.53,10.98 L12,13.449 L14.47,10.98 Q14.689,10.76 15,10.76 Q15.311,10.76 15.53,10.98 Q15.75,11.199 15.75,11.51 Q15.75,11.821 15.53,12.04 L12.53,15.04 Q12.311,15.26 12,15.26 Q11.689,15.26 11.47,15.04 L8.47,12.04 Q8.25,11.821 8.25,11.51 Q8.25,11.199 8.47,10.98 Q8.689,10.76 9,10.76 Q9.311,10.76 9.53,10.98 Z"/>
  <path fill="#292D32" d="M11.25,14.51 L11.25,6.51 Q11.25,6.199 11.47,5.98 Q11.689,5.76 12,5.76 Q12.311,5.76 12.53,5.98 Q12.75,6.199 12.75,6.51 L12.75,14.51 Q12.75,14.821 12.53,15.04 Q12.311,15.26 12,15.26 Q11.689,15.26 11.47,15.04 Q11.25,14.821 11.25,14.51 Z"/>
  <path fill="#292D32" d="M6.238,15.799 Q12,17.724 17.762,15.799 Q18.057,15.7 18.335,15.839 Q18.613,15.978 18.711,16.272 Q18.81,16.567 18.671,16.845 Q18.532,17.123 18.238,17.221 Q12,19.306 5.762,17.221 Q5.468,17.123 5.329,16.845 Q5.19,16.567 5.289,16.272 Q5.387,15.978 5.665,15.839 Q5.943,15.7 6.238,15.799 Z"/>
</svg>

