<svg xmlns="http://www.w3.org/2000/svg" width="24" height="24" viewBox="0 0 24 24">
  <defs/>
  <path fill="#292D32" d="M15,22.75 L9,22.75 C3.57,22.75 1.25,20.43 1.25,15 L1.25,9 C1.25,3.57 3.57,1.25 9,1.25 L15,1.25 C20.43,1.25 22.75,3.57 22.75,9 L22.75,15 C22.75,20.43 20.43,22.75 15,22.75 Z M9,2.75 C4.39,2.75 2.75,4.39 2.75,9 L2.75,15 C2.75,19.61 4.39,21.25 9,21.25 L15,21.25 C19.61,21.25 21.25,19.61 21.25,15 L21.25,9 C21.25,4.39 19.61,2.75 15,2.75 L9,2.75 Z"/>
  <path fill="#292D32" d="M14.83,14.09 L10.59,14.09 C10.18,14.09 9.84,13.75 9.84,13.34 C9.84,12.93 10.18,12.59 10.59,12.59 L14.08,12.59 L14.08,9.1 C14.08,8.69 14.42,8.35 14.83,8.35 C15.24,8.35 15.58,8.69 15.58,9.1 L15.58,13.34 C15.58,13.76 15.24,14.09 14.83,14.09 Z"/>
  <path fill="#292D32" d="M14.829,14.09 C14.639,14.09 14.449,14.02 14.299,13.87 L8.639,8.21 C8.349,7.92 8.349,7.44 8.639,7.15 C8.929,6.86 9.409,6.86 9.699,7.15 L15.359,12.81 C15.649,13.1 15.649,13.58 15.359,13.87 C15.209,14.02 15.019,14.09 14.829,14.09 Z"/>
  <path fill="#292D32" d="M12,18.23 C9.89,18.23 7.77,17.89 5.76,17.22 C5.37,17.09 5.16,16.66 5.29,16.27 C5.42,15.88 5.85,15.66 6.24,15.8 C9.96,17.04 14.05,17.04 17.77,15.8 C18.16,15.67 18.59,15.88 18.72,16.27 C18.85,16.66 18.64,17.09 18.25,17.22 C16.23,17.9 14.11,18.23 12,18.23 Z"/>
</svg>

