<svg xmlns="http://www.w3.org/2000/svg" width="24" height="24" viewBox="0 0 24 24">
  <defs/>
  <path fill="#292D32" d="M2,7 L2,21 C2,21.83 2.94,22.3 3.6,21.8 L5.31,20.52 C5.71,20.22 6.27,20.26 6.63,20.62 L8.29,22.29 C8.68,22.68 9.32,22.68 9.71,22.29 L11.39,20.61 C11.74,20.26 12.3,20.22 12.69,20.52 L14.4,21.8 C15.06,22.29 16,21.82 16,21 L16,4 C16,2.9 16.9,2 18,2 L7,2 L6,2 C3,2 2,3.79 2,6 L2,7 Z"/>
  <path fill="#292D32" d="M18.01,2 L18.01,3.5 C18.67,3.5 19.3,3.77 19.76,4.22 C20.24,4.71 20.5,5.34 20.5,6 L20.5,8.42 C20.5,9.16 20.17,9.5 19.42,9.5 L17.5,9.5 L17.5,4.01 C17.5,3.73 17.73,3.5 18.01,3.5 L18.01,2 Z M18.01,2 C16.9,2 16,2.9 16,4.01 L16,11 L19.42,11 C21,11 22,10 22,8.42 L22,6 C22,4.9 21.55,3.9 20.83,3.17 C20.1,2.45 19.11,2.01 18.01,2 C18.02,2 18.01,2 18.01,2 Z"/>
</svg>

