<svg xmlns="http://www.w3.org/2000/svg" width="24" height="24" viewBox="0 0 24 24">
  <defs/>
  <path fill="#292D32" opacity="0.4" d="M6.73,19.7 C7.55,18.82 8.8,18.89 9.52,19.85 L10.53,21.2 C11.34,22.27 12.65,22.27 13.46,21.2 L14.47,19.85 C15.19,18.89 16.44,18.82 17.26,19.7 C19.04,21.6 20.49,20.97 20.49,18.31 L20.49,7.05 C20.49,3.02 19.55,2.01 15.77,2.01 L8.21,2.01 C4.43,2.01 3.49,3.02 3.49,7.05 L3.49,18.31 C3.5,20.97 4.96,21.59 6.73,19.7 Z"/>
  <path fill="#292D32" d="M14.841,9.99 L14.341,10.5 L14.331,10.5 L11.301,13.53 C11.171,13.66 10.901,13.8 10.711,13.82 L9.361,14.02 C8.871,14.09 8.531,13.74 8.601,13.26 L8.791,11.9 C8.821,11.71 8.951,11.45 9.081,11.31 L12.121,8.28 L12.621,7.77 C12.951,7.44 13.321,7.2 13.721,7.2 C14.061,7.2 14.431,7.36 14.841,7.77 C15.741,8.67 15.451,9.38 14.841,9.99 Z"/>
</svg>

