<svg xmlns="http://www.w3.org/2000/svg" width="24" height="24" viewBox="0 0 24 24">
  <defs/>
  <path fill="#292D32" d="M19.75,7.04 Q19.75,4.312 19.01,3.521 Q18.288,2.75 15.78,2.75 L8.22,2.75 Q5.712,2.75 4.99,3.521 Q4.25,4.312 4.25,7.04 L4.25,18.3 Q4.25,19.802 4.748,20.016 Q5.214,20.217 6.181,19.179 Q6.19,19.169 6.2,19.16 L6.202,19.157 Q7.053,18.26 8.212,18.324 Q9.378,18.387 10.121,19.381 L11.131,20.731 Q11.51,21.233 11.995,21.233 Q12.48,21.233 12.862,20.727 L13.869,19.381 Q14.62,18.38 15.787,18.316 Q16.955,18.252 17.809,19.169 Q18.781,20.207 19.245,20.006 Q19.74,19.793 19.74,18.29 L19.74,11.02 Q19.74,10.709 19.96,10.49 Q20.179,10.27 20.49,10.27 Q20.801,10.27 21.02,10.49 Q21.24,10.709 21.24,11.02 L21.24,18.29 Q21.24,20.779 19.84,21.384 Q18.407,22.002 16.711,20.191 Q16.336,19.788 15.868,19.814 Q15.4,19.839 15.071,20.279 L14.058,21.633 Q13.225,22.733 11.995,22.733 Q10.765,22.733 9.929,21.629 L8.919,20.279 Q8.596,19.847 8.13,19.821 Q7.661,19.796 7.286,20.194 Q7.278,20.202 7.27,20.21 L7.27,20.211 Q5.587,22.011 4.155,21.394 Q2.75,20.789 2.75,18.3 L2.75,7.04 Q2.75,3.72 3.895,2.496 Q5.061,1.25 8.22,1.25 L15.78,1.25 Q18.939,1.25 20.105,2.496 Q21.25,3.72 21.25,7.04 Q21.25,7.351 21.03,7.57 Q20.811,7.79 20.5,7.79 Q20.189,7.79 19.97,7.57 Q19.75,7.351 19.75,7.04 Z"/>
  <path fill="#292D32" d="M8.101,13.27 L14.831,6.54 Q15.05,6.32 15.361,6.32 Q15.672,6.32 15.891,6.54 Q16.111,6.759 16.111,7.07 Q16.111,7.381 15.891,7.6 L9.161,14.33 Q8.942,14.55 8.631,14.55 Q8.32,14.55 8.101,14.33 Q7.881,14.111 7.881,13.8 Q7.881,13.489 8.101,13.27 Z"/>
  <path fill="#292D32" d="M8.47,12.47 L14.47,6.47 Q14.689,6.25 15,6.25 Q15.311,6.25 15.53,6.47 Q15.75,6.689 15.75,7 Q15.75,7.311 15.53,7.53 L9.53,13.53 Q9.311,13.75 9,13.75 Q8.689,13.75 8.47,13.53 Q8.25,13.311 8.25,13 Q8.25,12.689 8.47,12.47 Z"/>
  <path fill="#292D32" d="M14.995,12 L15.003,12 Q15.418,12 15.711,12.293 Q16.003,12.586 16.003,13 Q16.003,13.414 15.711,13.707 Q15.418,14 15.003,14 L14.995,14 Q14.58,14 14.287,13.707 Q13.994,13.414 13.994,13 Q13.994,12.586 14.287,12.293 Q14.58,12 14.995,12 Z"/>
  <path fill="#292D32" d="M8.995,6.5 L9.003,6.5 Q9.418,6.5 9.711,6.793 Q10.003,7.086 10.003,7.5 Q10.003,7.914 9.711,8.207 Q9.418,8.5 9.003,8.5 L8.995,8.5 Q8.58,8.5 8.287,8.207 Q7.995,7.914 7.995,7.5 Q7.995,7.086 8.287,6.793 Q8.58,6.5 8.995,6.5 Z"/>
</svg>

