<svg xmlns="http://www.w3.org/2000/svg" width="24" height="24" viewBox="0 0 24 24">
  <defs/>
  <path fill="#292D32" opacity="0.4" d="M6.73,19.7 C7.55,18.82 8.8,18.89 9.52,19.85 L10.53,21.2 C11.34,22.27 12.65,22.27 13.46,21.2 L14.47,19.85 C15.19,18.89 16.44,18.82 17.26,19.7 C19.04,21.6 20.49,20.97 20.49,18.31 L20.49,7.05 C20.49,3.02 19.55,2.01 15.77,2.01 L8.21,2.01 C4.43,2.01 3.49,3.02 3.49,7.05 L3.49,18.31 C3.5,20.97 4.96,21.59 6.73,19.7 Z"/>
  <path fill="#292D32" d="M15.661,13.47 L14.921,12.73 C15.301,12.15 15.531,11.45 15.531,10.7 C15.531,8.66 13.871,7 11.831,7 C9.791,7 8.131,8.66 8.131,10.7 C8.131,12.74 9.791,14.4 11.831,14.4 C12.581,14.4 13.281,14.17 13.861,13.79 L14.601,14.53 C14.751,14.68 14.941,14.75 15.131,14.75 C15.321,14.75 15.511,14.68 15.661,14.53 C15.951,14.24 15.951,13.76 15.661,13.47 Z"/>
</svg>

