<svg xmlns="http://www.w3.org/2000/svg" width="24" height="24" viewBox="0 0 24 24">
  <defs/>
  <path fill="#292D32" opacity="0.4" d="M16.19,2 L7.82,2 C4.18,2 2.01,4.17 2.01,7.81 L2.01,16.18 C2.01,19.82 4.18,21.99 7.82,21.99 L16.19,21.99 C19.83,21.99 22,19.82 22,16.18 L22,7.81 C22,4.17 19.83,2 16.19,2 Z"/>
  <path fill="#292D32" d="M13.021,12.59 L10.591,12.59 C10.181,12.59 9.841,12.93 9.841,13.34 C9.841,13.75 10.181,14.09 10.591,14.09 L14.831,14.09 C14.931,14.09 15.021,14.07 15.121,14.03 C15.301,13.95 15.451,13.81 15.531,13.62 C15.571,13.53 15.591,13.43 15.591,13.33 L15.591,9.1 C15.591,8.69 15.251,8.35 14.841,8.35 C14.431,8.35 14.091,8.69 14.091,9.1 L14.091,11.53 L9.711,7.15 C9.421,6.86 8.941,6.86 8.651,7.15 C8.361,7.44 8.361,7.92 8.651,8.21 L13.021,12.59 Z"/>
  <path fill="#292D32" d="M18.711,16.28 C18.581,15.89 18.161,15.68 17.761,15.81 C14.041,17.05 9.951,17.05 6.231,15.81 C5.841,15.68 5.411,15.89 5.281,16.28 C5.151,16.67 5.361,17.1 5.751,17.23 C7.761,17.9 9.871,18.24 11.991,18.24 C14.111,18.24 16.221,17.9 18.231,17.23 C18.631,17.09 18.841,16.67 18.711,16.28 Z"/>
</svg>

