<svg xmlns="http://www.w3.org/2000/svg" width="24" height="24" viewBox="0 0 24 24">
  <defs/>
  <path fill="#292D32" d="M16.059,5.38 L18.469,2.97 Q18.689,2.75 19,2.75 Q19.31,2.75 19.53,2.97 Q19.75,3.189 19.75,3.5 Q19.75,3.811 19.53,4.03 L17.12,6.44 Q16.9,6.66 16.59,6.66 Q16.279,6.66 16.059,6.44 Q15.84,6.221 15.84,5.91 Q15.84,5.599 16.059,5.38 Z"/>
  <path fill="#292D32" d="M4.47,16.97 L12.85,8.59 Q13.069,8.37 13.38,8.37 Q13.691,8.37 13.91,8.59 Q14.13,8.809 14.13,9.12 Q14.13,9.431 13.91,9.65 L5.53,18.03 Q5.311,18.25 5,18.25 Q4.689,18.25 4.47,18.03 Q4.25,17.811 4.25,17.5 Q4.25,17.189 4.47,16.97 Z"/>
  <path fill="#292D32" d="M5.75,7.23 L5.75,16.75 L15.27,16.75 Q15.581,16.75 15.8,16.97 Q16.02,17.189 16.02,17.5 Q16.02,17.811 15.8,18.03 Q15.581,18.25 15.27,18.25 L5,18.25 Q4.689,18.25 4.47,18.03 Q4.25,17.811 4.25,17.5 L4.25,7.23 Q4.25,6.919 4.47,6.7 Q4.689,6.48 5,6.48 Q5.311,6.48 5.53,6.7 Q5.75,6.919 5.75,7.23 Z"/>
  <path fill="#292D32" d="M3.5,21.25 L20.5,21.25 Q20.811,21.25 21.03,21.47 Q21.25,21.689 21.25,22 Q21.25,22.311 21.03,22.53 Q20.811,22.75 20.5,22.75 L3.5,22.75 Q3.189,22.75 2.97,22.53 Q2.75,22.311 2.75,22 Q2.75,21.689 2.97,21.47 Q3.189,21.25 3.5,21.25 Z"/>
</svg>

