<svg xmlns="http://www.w3.org/2000/svg" width="24" height="24" viewBox="0 0 24 24">
  <defs/>
  <path fill="#292D32" d="M4.998,18.2 C4.798,18.2 4.598,18.1 4.498,18 C4.198,17.7 4.198,17.2 4.498,16.9 L18.498,2.9 C18.798,2.6 19.298,2.6 19.598,2.9 C19.898,3.2 19.898,3.7 19.598,4 L5.598,18 C5.398,18.2 5.198,18.2 4.998,18.2 Z"/>
  <path fill="#292D32" d="M15.299,18.2 L4.999,18.2 C4.599,18.2 4.199,17.9 4.199,17.4 L4.199,7.2 C4.199,6.8 4.499,6.4 4.999,6.4 C5.499,6.4 5.799,6.7 5.799,7.2 L5.799,16.7 L15.299,16.7 C15.699,16.7 16.099,17 16.099,17.5 C16.099,18 15.699,18.2 15.299,18.2 Z"/>
  <path fill="#292D32" opacity="0.4" d="M20.499,22.8 L3.499,22.8 C3.099,22.8 2.699,22.5 2.699,22 C2.699,21.5 2.999,21.2 3.499,21.2 L20.499,21.2 C20.899,21.2 21.299,21.5 21.299,22 C21.299,22.5 20.899,22.8 20.499,22.8 Z"/>
</svg>

