<svg xmlns="http://www.w3.org/2000/svg" width="24" height="24" viewBox="0 0 24 24">
  <defs/>
  <path fill="#292D32" d="M10.54,21.94 C10.31,21.94 10.089,21.84 9.94,21.64 L8.93,20.29 C8.72,20.01 8.44,19.85 8.14,19.83 C7.83,19.81 7.54,19.95 7.3,20.2 C5.85,21.75 4.75,21.62 4.22,21.42 C3.68,21.21 2.77,20.52 2.77,18.3 L2.77,7.04 C2.77,2.6 4.05,1.25 8.24,1.25 L15.79,1.25 C19.98,1.25 21.26,2.6 21.26,7.04 L21.26,11.3 C21.26,11.71 20.92,12.05 20.51,12.05 C20.1,12.05 19.76,11.71 19.76,11.3 L19.76,7.04 C19.76,3.43 19.13,2.75 15.79,2.75 L8.24,2.75 C4.9,2.75 4.27,3.43 4.27,7.04 L4.27,18.3 C4.27,19.35 4.53,19.93 4.77,20.02 C4.95,20.09 5.44,19.99 6.2,19.18 C6.75,18.6 7.47,18.29 8.22,18.33 C8.96,18.37 9.66,18.76 10.13,19.39 L11.149,20.74 C11.399,21.07 11.329,21.54 10.999,21.79 C10.85,21.9 10.69,21.94 10.54,21.94 Z"/>
  <path fill="#292D32" d="M16,7.75 L8,7.75 C7.59,7.75 7.25,7.41 7.25,7 C7.25,6.59 7.59,6.25 8,6.25 L16,6.25 C16.41,6.25 16.75,6.59 16.75,7 C16.75,7.41 16.41,7.75 16,7.75 Z"/>
  <path fill="#292D32" d="M15,11.75 L9,11.75 C8.59,11.75 8.25,11.41 8.25,11 C8.25,10.59 8.59,10.25 9,10.25 L15,10.25 C15.41,10.25 15.75,10.59 15.75,11 C15.75,11.41 15.41,11.75 15,11.75 Z"/>
  <path fill="#292D32" d="M14.82,21.78 C14.44,21.78 14.08,21.64 13.82,21.38 C13.51,21.07 13.37,20.62 13.44,20.15 L13.63,18.8 C13.68,18.45 13.89,18.03 14.14,17.78 L17.68,14.24 C18.16,13.76 18.63,13.51 19.14,13.46 C19.76,13.4 20.38,13.66 20.96,14.24 C21.54,14.82 21.8,15.43 21.74,16.06 C21.69,16.56 21.43,17.04 20.96,17.52 L17.42,21.06 C17.17,21.31 16.75,21.52 16.4,21.57 L15.05,21.76 C14.97,21.77 14.9,21.78 14.82,21.78 Z M19.31,14.95 C19.3,14.95 19.29,14.95 19.28,14.95 C19.14,14.96 18.95,15.09 18.74,15.3 L15.2,18.84 C15.17,18.87 15.12,18.97 15.12,19.01 L14.94,20.26 L16.19,20.08 C16.23,20.07 16.329,20.02 16.36,19.99 L19.9,16.45 C20.11,16.23 20.24,16.05 20.25,15.91 C20.27,15.71 20.07,15.47 19.9,15.3 C19.74,15.14 19.51,14.95 19.31,14.95 Z"/>
  <path fill="#292D32" d="M19.921,18.25 C19.851,18.25 19.781,18.24 19.721,18.22 C18.401,17.85 17.351,16.8 16.981,15.48 C16.871,15.08 17.101,14.67 17.501,14.55 C17.901,14.44 18.311,14.67 18.421,15.07 C18.651,15.89 19.301,16.54 20.121,16.77 C20.521,16.88 20.751,17.3 20.641,17.7 C20.551,18.03 20.251,18.25 19.921,18.25 Z"/>
</svg>

