<svg xmlns="http://www.w3.org/2000/svg" width="24" height="24" viewBox="0 0 24 24">
  <defs/>
  <path fill="#292D32" d="M7.277,20.213 Q5.588,22.016 4.155,21.399 Q2.75,20.794 2.75,18.3 L2.75,7.04 Q2.75,3.72 3.895,2.496 Q5.061,1.25 8.22,1.25 L15.78,1.25 Q18.94,1.25 20.104,2.497 Q21.248,3.722 21.24,7.04 L21.24,18.31 Q21.24,20.799 19.84,21.404 Q18.407,22.022 16.711,20.211 Q16.336,19.808 15.868,19.834 Q15.4,19.859 15.071,20.299 L14.058,21.653 Q13.225,22.753 11.995,22.753 Q10.765,22.753 9.929,21.649 L8.92,20.3 Q8.59,19.859 8.122,19.834 Q7.654,19.808 7.279,20.211 Z M6.181,19.189 L6.183,19.187 Q7.036,18.273 8.203,18.336 Q9.37,18.4 10.12,19.4 L11.131,20.751 Q11.51,21.253 11.995,21.253 Q12.48,21.253 12.862,20.747 L13.869,19.401 Q14.62,18.4 15.787,18.336 Q16.955,18.272 17.809,19.189 Q18.781,20.227 19.245,20.026 Q19.74,19.813 19.74,18.31 L19.74,7.04 Q19.747,4.312 19.008,3.521 Q18.288,2.75 15.78,2.75 L8.22,2.75 Q5.712,2.75 4.99,3.521 Q4.25,4.312 4.25,7.04 L4.25,18.3 Q4.25,19.807 4.748,20.021 Q5.213,20.222 6.181,19.189 Z"/>
  <path fill="#292D32" opacity="0.4" d="M8.096,10 L8.105,10 Q8.519,10 8.812,10.293 Q9.105,10.586 9.105,11 Q9.105,11.414 8.812,11.707 Q8.519,12 8.105,12 L8.096,12 Q7.682,12 7.389,11.707 Q7.096,11.414 7.096,11 Q7.096,10.586 7.389,10.293 Q7.682,10 8.096,10 Z"/>
  <path fill="#292D32" opacity="0.4" d="M10.898,10.25 L16.398,10.25 Q16.709,10.25 16.929,10.47 Q17.148,10.689 17.148,11 Q17.148,11.311 16.929,11.53 Q16.709,11.75 16.398,11.75 L10.898,11.75 Q10.588,11.75 10.368,11.53 Q10.148,11.311 10.148,11 Q10.148,10.689 10.368,10.47 Q10.588,10.25 10.898,10.25 Z"/>
  <path fill="#292D32" opacity="0.4" d="M8.096,6 L8.105,6 Q8.519,6 8.812,6.293 Q9.105,6.586 9.105,7 Q9.105,7.414 8.812,7.707 Q8.519,8 8.105,8 L8.096,8 Q7.682,8 7.389,7.707 Q7.096,7.414 7.096,7 Q7.096,6.586 7.389,6.293 Q7.682,6 8.096,6 Z"/>
  <path fill="#292D32" opacity="0.4" d="M10.898,6.25 L16.398,6.25 Q16.709,6.25 16.929,6.47 Q17.148,6.689 17.148,7 Q17.148,7.311 16.929,7.53 Q16.709,7.75 16.398,7.75 L10.898,7.75 Q10.588,7.75 10.368,7.53 Q10.148,7.311 10.148,7 Q10.148,6.689 10.368,6.47 Q10.588,6.25 10.898,6.25 Z"/>
</svg>

