<svg xmlns="http://www.w3.org/2000/svg" width="24" height="24" viewBox="0 0 24 24">
  <defs/>
  <path fill="#292D32" d="M2.75,11 L2.75,21 Q2.75,21.159 2.888,21.228 Q3.024,21.296 3.147,21.202 L4.861,19.92 Q6.078,19.007 7.16,20.09 L8.822,21.761 Q8.893,21.833 9,21.833 Q9.107,21.832 9.18,21.76 L10.86,20.08 Q11.941,18.998 13.147,19.926 L14.849,21.2 Q14.972,21.291 15.112,21.22 Q15.25,21.151 15.25,21 L15.25,4 Q15.25,3.281 15.438,2.75 L6,2.75 Q2.75,2.75 2.75,6 L2.75,7 Q2.75,7.311 2.53,7.53 Q2.311,7.75 2,7.75 Q1.689,7.75 1.47,7.53 Q1.25,7.311 1.25,7 L1.25,6 Q1.25,1.25 6,1.25 L18,1.25 Q18.311,1.25 18.53,1.47 Q18.75,1.689 18.75,2 Q18.75,2.311 18.53,2.53 Q18.311,2.75 18,2.75 Q16.75,2.75 16.75,4 L16.75,21 Q16.75,22.079 15.783,22.562 Q14.818,23.044 13.951,22.4 L12.233,21.114 Q12.071,20.99 11.92,21.14 L10.24,22.82 Q9,24.061 7.758,22.819 L6.1,21.15 Q5.937,20.987 5.759,21.12 L4.053,22.398 Q3.186,23.054 2.217,22.57 Q1.25,22.086 1.25,21 L1.25,11 Q1.25,10.689 1.47,10.47 Q1.689,10.25 2,10.25 Q2.311,10.25 2.53,10.47 Q2.75,10.689 2.75,11 Z"/>
  <path fill="#292D32" d="M22.75,6 L22.75,8.42 Q22.75,9.916 21.833,10.833 Q20.916,11.75 19.42,11.75 L16,11.75 Q15.689,11.75 15.47,11.53 Q15.25,11.311 15.25,11 L15.25,4.01 Q15.25,1.25 18.02,1.25 Q19.989,1.268 21.36,2.64 Q22.75,4.049 22.75,6 Z M21.25,6 Q21.25,4.664 20.3,3.7 Q19.362,2.762 18.02,2.75 Q16.75,2.75 16.75,4.01 L16.75,10.25 L19.42,10.25 Q21.25,10.25 21.25,8.42 Z"/>
  <path fill="#292D32" d="M10.981,8.25 L12,8.25 Q12.311,8.25 12.531,8.47 Q12.75,8.689 12.75,9 Q12.75,9.311 12.531,9.53 Q12.311,9.75 12,9.75 L10.981,9.75 Q10.67,9.75 10.45,9.53 Q10.23,9.311 10.23,9 Q10.23,8.689 10.45,8.47 Q10.67,8.25 10.981,8.25 Z"/>
  <path fill="#292D32" d="M6,8.25 L7.96,8.25 Q8.271,8.25 8.49,8.47 Q8.71,8.689 8.71,9 Q8.71,9.311 8.49,9.53 Q8.271,9.75 7.96,9.75 L6,9.75 Q5.689,9.75 5.47,9.53 Q5.25,9.311 5.25,9 Q5.25,8.689 5.47,8.47 Q5.689,8.25 6,8.25 Z"/>
  <path fill="#292D32" d="M6.75,12.25 L11.25,12.25 Q11.561,12.25 11.78,12.47 Q12,12.689 12,13 Q12,13.311 11.78,13.53 Q11.561,13.75 11.25,13.75 L6.75,13.75 Q6.439,13.75 6.22,13.53 Q6,13.311 6,13 Q6,12.689 6.22,12.47 Q6.439,12.25 6.75,12.25 Z"/>
</svg>

