<svg xmlns="http://www.w3.org/2000/svg" width="24" height="24" viewBox="0 0 24 24">
  <defs/>
  <path fill="#292D32" d="M2.75,12.94 L2.75,15 Q2.75,18.439 4.155,19.845 Q5.561,21.25 9,21.25 L15,21.25 Q18.439,21.25 19.845,19.845 Q21.25,18.439 21.25,15 L21.25,9 Q21.25,2.75 15,2.75 L9,2.75 Q2.75,2.75 2.75,9 Q2.75,9.311 2.53,9.53 Q2.311,9.75 2,9.75 Q1.689,9.75 1.47,9.53 Q1.25,9.311 1.25,9 Q1.25,1.25 9,1.25 L15,1.25 Q22.75,1.25 22.75,9 L22.75,15 Q22.75,22.75 15,22.75 L9,22.75 Q1.25,22.75 1.25,15 L1.25,12.94 Q1.25,12.629 1.47,12.41 Q1.689,12.19 2,12.19 Q2.311,12.19 2.53,12.41 Q2.75,12.629 2.75,12.94 Z"/>
  <path fill="#292D32" d="M17.75,13.04 L17.75,15.7 Q17.75,17.371 16.737,17.808 Q15.691,18.259 14.55,17.03 Q14.432,16.905 14.298,16.913 Q14.165,16.92 14.06,17.06 L13.46,17.86 Q12.883,18.633 12,18.633 Q11.116,18.633 10.539,17.859 L9.949,17.069 Q9.845,16.93 9.711,16.923 Q9.577,16.915 9.456,17.044 Q8.309,18.268 7.268,17.817 Q6.26,17.381 6.26,15.71 L6.26,9.08 Q6.26,5.37 9.79,5.37 L14.23,5.37 Q17.76,5.37 17.76,9.08 Q17.76,9.391 17.54,9.61 Q17.32,9.83 17.01,9.83 Q16.699,9.83 16.479,9.61 Q16.26,9.391 16.26,9.08 Q16.26,7.601 15.906,7.225 Q15.572,6.87 14.23,6.87 L9.79,6.87 Q8.448,6.87 8.114,7.225 Q7.76,7.601 7.76,9.08 L7.76,15.71 Q7.76,16.395 7.864,16.441 Q7.936,16.472 8.364,16.016 Q8.963,15.38 9.793,15.425 Q10.625,15.47 11.151,16.171 L11.741,16.962 Q11.868,17.133 12,17.133 Q12.131,17.133 12.26,16.96 L12.86,16.16 Q13.384,15.46 14.216,15.415 Q15.047,15.37 15.649,16.01 Q16.069,16.462 16.143,16.43 Q16.25,16.384 16.25,15.7 L16.25,13.04 Q16.25,12.729 16.469,12.51 Q16.689,12.29 17,12.29 Q17.31,12.29 17.53,12.51 Q17.75,12.729 17.75,13.04 Z"/>
</svg>

