<svg xmlns="http://www.w3.org/2000/svg" width="24" height="24" viewBox="0 0 24 24">
  <defs/>
  <path fill="#292D32" d="M22,6 L22,8.42 C22,10 21,11 19.42,11 L16,11 L16,4.01 C16,2.9 16.91,1.99 18.02,2 C19.11,2.01 20.11,2.45 20.83,3.17 C21.55,3.9 22,4.9 22,6 Z"/>
  <path fill="#292D32" opacity="0.4" d="M2,7 L2,21 C2,21.83 2.94,22.3 3.6,21.8 L5.31,20.52 C5.71,20.22 6.27,20.26 6.63,20.62 L8.29,22.29 C8.68,22.68 9.32,22.68 9.71,22.29 L11.39,20.61 C11.74,20.26 12.3,20.22 12.69,20.52 L14.4,21.8 C15.06,22.29 16,21.82 16,21 L16,4 C16,2.9 16.9,2 18,2 L7,2 L6,2 C3,2 2,3.79 2,6 L2,7 Z"/>
  <path fill="#292D32" d="M11.432,12.08 C10.882,12.08 10.432,12.53 10.432,13.08 C10.432,13.63 10.882,14.08 11.432,14.08 C11.982,14.08 12.432,13.63 12.432,13.08 C12.432,12.53 11.982,12.08 11.432,12.08 Z"/>
  <path fill="#292D32" d="M6.57,10.03 C7.13,10.03 7.57,9.58 7.57,9.03 C7.57,8.48 7.12,8.03 6.57,8.03 C6.02,8.03 5.57,8.48 5.57,9.03 C5.57,9.58 6.02,10.03 6.57,10.03 Z"/>
  <path fill="#292D32" d="M12.261,7.74 C11.971,7.45 11.491,7.45 11.201,7.74 L5.741,13.2 C5.451,13.49 5.451,13.97 5.741,14.26 C5.891,14.41 6.081,14.48 6.271,14.48 C6.461,14.48 6.651,14.41 6.801,14.26 L12.261,8.8 C12.551,8.51 12.551,8.03 12.261,7.74 Z"/>
</svg>

