<svg xmlns="http://www.w3.org/2000/svg" width="24" height="24" viewBox="0 0 24 24">
  <defs/>
  <path fill="#292D32" d="M22.75,6 L22.75,8.42 Q22.75,9.916 21.833,10.833 Q20.916,11.75 19.42,11.75 L16,11.75 Q15.689,11.75 15.47,11.53 Q15.25,11.311 15.25,11 L15.25,4.01 Q15.25,1.25 18.02,1.25 Q19.989,1.268 21.36,2.64 Q22.75,4.049 22.75,6 Z M21.25,6 Q21.25,4.664 20.3,3.7 Q19.362,2.762 18.02,2.75 Q16.75,2.75 16.75,4.01 L16.75,10.25 L19.42,10.25 Q21.25,10.25 21.25,8.42 Z"/>
  <path fill="#292D32" d="M1.25,6 Q1.25,1.25 6,1.25 L18,1.25 Q18.311,1.25 18.53,1.47 Q18.75,1.689 18.75,2 Q18.75,2.311 18.53,2.53 Q18.311,2.75 18,2.75 Q16.75,2.75 16.75,4 L16.75,21 Q16.75,22.079 15.783,22.562 Q14.818,23.044 13.951,22.4 L12.233,21.114 Q12.071,20.99 11.92,21.14 L10.24,22.82 Q9,24.061 7.758,22.819 L6.1,21.15 Q5.937,20.987 5.759,21.12 L4.053,22.398 Q3.186,23.054 2.217,22.57 Q1.25,22.086 1.25,21 L1.25,6 Z M15.438,2.75 L6,2.75 Q2.75,2.75 2.75,6 L2.75,21 Q2.75,21.159 2.888,21.228 Q3.024,21.296 3.147,21.202 L4.861,19.92 Q6.078,19.007 7.16,20.09 L8.822,21.761 Q9,21.939 9.18,21.76 L10.86,20.08 Q11.941,18.998 13.147,19.926 L14.849,21.2 Q14.972,21.291 15.112,21.22 Q15.25,21.151 15.25,21 L15.25,4 Q15.25,3.281 15.438,2.75 Z"/>
  <path fill="#292D32" d="M5.74,13.2 L11.2,7.74 Q11.419,7.52 11.73,7.52 Q12.041,7.52 12.26,7.74 Q12.48,7.959 12.48,8.27 Q12.48,8.581 12.26,8.8 L6.8,14.26 Q6.581,14.48 6.27,14.48 Q5.959,14.48 5.74,14.26 Q5.52,14.041 5.52,13.73 Q5.52,13.419 5.74,13.2 Z"/>
  <path fill="#292D32" d="M11.925,12.5 L11.934,12.5 Q12.348,12.5 12.641,12.793 Q12.934,13.086 12.934,13.5 Q12.934,13.914 12.641,14.207 Q12.348,14.5 11.934,14.5 L11.925,14.5 Q11.51,14.5 11.218,14.207 Q10.925,13.914 10.925,13.5 Q10.925,13.086 11.218,12.793 Q11.51,12.5 11.925,12.5 Z"/>
  <path fill="#292D32" d="M6.195,7.5 L6.204,7.5 Q6.618,7.5 6.911,7.793 Q7.204,8.086 7.204,8.5 Q7.204,8.914 6.911,9.207 Q6.618,9.5 6.204,9.5 L6.195,9.5 Q5.78,9.5 5.488,9.207 Q5.195,8.914 5.195,8.5 Q5.195,8.086 5.488,7.793 Q5.78,7.5 6.195,7.5 Z"/>
</svg>

