<svg xmlns="http://www.w3.org/2000/svg" width="24" height="24" viewBox="0 0 24 24">
  <defs/>
  <path fill="#292D32" d="M15.78,2 L8.22,2 C4.44,2 3.5,3.01 3.5,7.04 L3.5,18.3 C3.5,20.96 4.96,21.59 6.73,19.69 L6.74,19.68 C7.56,18.81 8.81,18.88 9.52,19.83 L10.53,21.18 C11.34,22.25 12.65,22.25 13.46,21.18 L14.47,19.83 C15.19,18.87 16.44,18.8 17.26,19.68 C19.04,21.58 20.49,20.95 20.49,18.29 L20.49,7.04 C20.5,3.01 19.56,2 15.78,2 Z M7.78,12 C7.23,12 6.78,11.55 6.78,11 C6.78,10.45 7.23,10 7.78,10 C8.33,10 8.78,10.45 8.78,11 C8.78,11.55 8.33,12 7.78,12 Z M7.78,8 C7.23,8 6.78,7.55 6.78,7 C6.78,6.45 7.23,6 7.78,6 C8.33,6 8.78,6.45 8.78,7 C8.78,7.55 8.33,8 7.78,8 Z M16.23,11.75 L10.73,11.75 C10.32,11.75 9.98,11.41 9.98,11 C9.98,10.59 10.32,10.25 10.73,10.25 L16.23,10.25 C16.64,10.25 16.98,10.59 16.98,11 C16.98,11.41 16.64,11.75 16.23,11.75 Z M16.23,7.75 L10.73,7.75 C10.32,7.75 9.98,7.41 9.98,7 C9.98,6.59 10.32,6.25 10.73,6.25 L16.23,6.25 C16.64,6.25 16.98,6.59 16.98,7 C16.98,7.41 16.64,7.75 16.23,7.75 Z"/>
</svg>

