<svg xmlns="http://www.w3.org/2000/svg" width="24" height="24" viewBox="0 0 24 24">
  <defs/>
  <path fill="#292D32" d="M22.75,6 L22.75,8.42 Q22.75,9.916 21.833,10.833 Q20.916,11.75 19.42,11.75 L16,11.75 Q15.689,11.75 15.47,11.53 Q15.25,11.311 15.25,11 L15.25,4.01 Q15.25,1.25 18.02,1.25 Q19.989,1.268 21.36,2.64 Q22.75,4.049 22.75,6 Z M21.25,6 Q21.25,4.664 20.3,3.7 Q19.362,2.762 18.02,2.75 Q16.75,2.75 16.75,4.01 L16.75,10.25 L19.42,10.25 Q21.25,10.25 21.25,8.42 Z"/>
  <path fill="#292D32" d="M1.25,6 Q1.25,1.25 6,1.25 L18,1.25 Q18.311,1.25 18.53,1.47 Q18.75,1.689 18.75,2 Q18.75,2.311 18.53,2.53 Q18.311,2.75 18,2.75 Q16.75,2.75 16.75,4 L16.75,21 Q16.75,22.079 15.783,22.562 Q14.818,23.044 13.951,22.4 L12.233,21.114 Q12.071,20.99 11.92,21.14 L10.24,22.82 Q9,24.061 7.758,22.819 L6.1,21.15 Q5.937,20.987 5.759,21.12 L4.053,22.398 Q3.186,23.054 2.217,22.57 Q1.25,22.086 1.25,21 L1.25,6 Z M15.438,2.75 L6,2.75 Q2.75,2.75 2.75,6 L2.75,21 Q2.75,21.159 2.888,21.228 Q3.024,21.296 3.147,21.202 L4.861,19.92 Q6.078,19.007 7.16,20.09 L8.822,21.761 Q9,21.939 9.18,21.76 L10.86,20.08 Q11.941,18.998 13.147,19.926 L14.849,21.2 Q14.972,21.291 15.112,21.22 Q15.25,21.151 15.25,21 L15.25,4 Q15.25,3.281 15.438,2.75 Z"/>
  <path fill="#292D32" d="M9,12.26 L12,12.26 Q12.311,12.26 12.53,12.48 Q12.75,12.699 12.75,13.01 Q12.75,13.321 12.53,13.54 Q12.311,13.76 12,13.76 L9,13.76 Q8.689,13.76 8.47,13.54 Q8.25,13.321 8.25,13.01 Q8.25,12.699 8.47,12.48 Q8.689,12.26 9,12.26 Z"/>
  <path fill="#292D32" d="M9,8.26 L12,8.26 Q12.311,8.26 12.53,8.48 Q12.75,8.699 12.75,9.01 Q12.75,9.321 12.53,9.54 Q12.311,9.76 12,9.76 L9,9.76 Q8.689,9.76 8.47,9.54 Q8.25,9.321 8.25,9.01 Q8.25,8.699 8.47,8.48 Q8.689,8.26 9,8.26 Z"/>
  <path fill="#292D32" d="M5.996,12 L6.005,12 Q6.419,12 6.712,12.293 Q7.005,12.586 7.005,13 Q7.005,13.414 6.712,13.707 Q6.419,14 6.005,14 L5.996,14 Q5.581,14 5.289,13.707 Q4.996,13.414 4.996,13 Q4.996,12.586 5.289,12.293 Q5.581,12 5.996,12 Z"/>
  <path fill="#292D32" d="M5.996,8 L6.005,8 Q6.419,8 6.712,8.293 Q7.005,8.586 7.005,9 Q7.005,9.414 6.712,9.707 Q6.419,10 6.005,10 L5.996,10 Q5.581,10 5.289,9.707 Q4.996,9.414 4.996,9 Q4.996,8.586 5.289,8.293 Q5.581,8 5.996,8 Z"/>
</svg>

