<svg xmlns="http://www.w3.org/2000/svg" width="24" height="24" viewBox="0 0 24 24">
  <defs/>
  <path fill="#292D32" d="M11.5,22.75 C10.71,22.75 9.96,22.34 9.44,21.64 L8.42,20.3 C8.21,20.02 7.93,19.86 7.63,19.84 C7.34,19.82 7.03,19.96 6.78,20.21 C5.92,21.13 5.08,21.57 4.29,21.55 C3.75,21.53 3.28,21.29 2.92,20.85 C2.88,20.8 2.84,20.73 2.81,20.66 C2.42,19.82 2.24,18.68 2.24,16.97 L2.24,7.05 C2.24,5.34 2.42,4.21 2.81,3.36 C2.84,3.3 2.87,3.24 2.92,3.19 C3.27,2.74 3.74,2.5 4.28,2.47 C5.08,2.44 5.93,2.9 6.77,3.8 C7.02,4.07 7.32,4.2 7.62,4.18 C7.92,4.16 8.2,4 8.41,3.72 L9.43,2.37 C9.95,1.67 10.7,1.26 11.49,1.26 C12.28,1.26 13.03,1.67 13.55,2.37 L14.56,3.71 C14.77,4 15.06,4.16 15.37,4.18 C15.66,4.2 15.97,4.06 16.22,3.8 C17.04,2.92 17.85,2.47 18.63,2.47 C19.19,2.47 19.71,2.72 20.07,3.19 C20.11,3.24 20.15,3.3 20.18,3.37 C20.57,4.21 20.75,5.35 20.75,7.06 L20.75,16.98 C20.75,18.69 20.57,19.82 20.18,20.67 C20.14,20.76 20.09,20.84 20.02,20.91 C19.71,21.31 19.2,21.56 18.63,21.56 C17.85,21.56 17.04,21.11 16.22,20.23 C15.98,19.97 15.65,19.83 15.37,19.85 C15.06,19.87 14.78,20.03 14.56,20.32 L13.55,21.66 C13.04,22.34 12.29,22.75 11.5,22.75 Z M7.58,18.33 C7.62,18.33 7.67,18.33 7.71,18.33 C8.45,18.37 9.14,18.76 9.61,19.39 L10.63,20.74 C11.12,21.4 11.86,21.4 12.35,20.75 L13.36,19.41 C13.84,18.77 14.54,18.39 15.28,18.35 C16.02,18.31 16.76,18.62 17.3,19.2 C18.04,19.99 18.49,20.05 18.61,20.05 C18.69,20.05 18.76,20.03 18.83,19.97 C19.11,19.34 19.23,18.39 19.23,16.97 L19.23,7.05 C19.23,5.65 19.1,4.7 18.83,4.07 C18.75,3.98 18.67,3.97 18.61,3.97 C18.49,3.97 18.04,4.03 17.3,4.82 C16.76,5.4 16.02,5.71 15.28,5.67 C14.53,5.63 13.83,5.24 13.35,4.61 L12.34,3.27 C11.85,2.61 11.11,2.61 10.62,3.27 L9.6,4.63 C9.13,5.26 8.44,5.64 7.7,5.68 C6.96,5.72 6.22,5.41 5.68,4.84 C5.07,4.18 4.6,3.96 4.34,3.97 C4.28,3.97 4.21,3.99 4.13,4.07 C3.86,4.7 3.73,5.65 3.73,7.05 L3.73,16.97 C3.73,18.38 3.86,19.33 4.13,19.96 C4.22,20.04 4.28,20.05 4.34,20.06 C4.59,20.07 5.06,19.85 5.67,19.2 C6.2,18.63 6.89,18.33 7.58,18.33 Z"/>
  <path fill="#292D32" d="M16,11 L8,11 C7.59,11 7.25,10.66 7.25,10.25 C7.25,9.84 7.59,9.5 8,9.5 L16,9.5 C16.41,9.5 16.75,9.84 16.75,10.25 C16.75,10.66 16.41,11 16,11 Z"/>
  <path fill="#292D32" d="M14,14.5 L8,14.5 C7.59,14.5 7.25,14.16 7.25,13.75 C7.25,13.34 7.59,13 8,13 L14,13 C14.41,13 14.75,13.34 14.75,13.75 C14.75,14.16 14.41,14.5 14,14.5 Z"/>
</svg>

