<svg xmlns="http://www.w3.org/2000/svg" width="24" height="24" viewBox="0 0 24 24">
  <defs/>
  <path fill="#292D32" d="M16.19,2 L7.81,2 C4.17,2 2,4.17 2,7.81 L2,16.18 C2,19.83 4.17,22 7.81,22 L16.18,22 C19.82,22 21.99,19.83 21.99,16.19 L21.99,7.81 C22,4.17 19.83,2 16.19,2 Z M8.64,7.15 C8.93,6.86 9.41,6.86 9.7,7.15 L14.08,11.53 L14.08,9.1 C14.08,8.69 14.42,8.35 14.83,8.35 C15.24,8.35 15.58,8.69 15.58,9.1 L15.58,13.34 C15.58,13.44 15.56,13.53 15.52,13.63 C15.44,13.81 15.3,13.96 15.11,14.04 C15.02,14.08 14.92,14.1 14.82,14.1 L10.58,14.1 C10.17,14.1 9.83,13.76 9.83,13.35 C9.83,12.94 10.17,12.6 10.58,12.6 L13.01,12.6 L8.64,8.21 C8.35,7.92 8.35,7.45 8.64,7.15 Z M18.24,17.22 C16.23,17.89 14.12,18.23 12,18.23 C9.88,18.23 7.77,17.89 5.76,17.22 C5.37,17.09 5.16,16.66 5.29,16.27 C5.42,15.88 5.84,15.66 6.24,15.8 C9.96,17.04 14.05,17.04 17.77,15.8 C18.16,15.67 18.59,15.88 18.72,16.27 C18.84,16.67 18.63,17.09 18.24,17.22 Z"/>
</svg>

