<svg xmlns="http://www.w3.org/2000/svg" width="24" height="24" viewBox="0 0 24 24">
  <defs/>
  <path fill="#292D32" d="M15.78,2 L8.22,2 C4.44,2 3.5,3.01 3.5,7.04 L3.5,18.3 C3.5,20.96 4.96,21.59 6.73,19.69 L6.74,19.68 C7.56,18.81 8.81,18.88 9.52,19.83 L10.53,21.18 C11.34,22.25 12.65,22.25 13.46,21.18 L14.47,19.83 C15.19,18.87 16.44,18.8 17.26,19.68 C19.04,21.58 20.49,20.95 20.49,18.29 L20.49,7.04 C20.5,3.01 19.56,2 15.78,2 Z M9,7 C9.55,7 10,7.45 10,8 C10,8.55 9.56,9 9,9 C8.44,9 8,8.55 8,8 C8,7.45 8.44,7 9,7 Z M15,14 C14.44,14 14,13.55 14,13 C14,12.45 14.45,12 15,12 C15.55,12 16,12.45 16,13 C16,13.55 15.56,14 15,14 Z M15.9,7.59 L9.17,14.32 C9.02,14.47 8.83,14.54 8.64,14.54 C8.45,14.54 8.26,14.47 8.11,14.32 C7.82,14.03 7.82,13.55 8.11,13.26 L14.84,6.53 C15.13,6.24 15.61,6.24 15.9,6.53 C16.19,6.82 16.19,7.3 15.9,7.59 Z"/>
</svg>

