<svg xmlns="http://www.w3.org/2000/svg" width="24" height="24" viewBox="0 0 24 24">
  <defs/>
  <path fill="#292D32" d="M8.9,16.53 C9.38,16.01 10.12,16.05 10.54,16.62 L11.14,17.42 C11.61,18.05 12.39,18.05 12.86,17.42 L13.45,16.63 C13.87,16.07 14.61,16.03 15.09,16.54 C16.14,17.66 16.99,17.29 16.99,15.72 L16.99,9.09 C16.99,6.72 16.43,6.13 14.21,6.13 L9.77,6.13 C7.55,6.13 6.99,6.72 6.99,9.09 L6.99,15.72 C7,17.27 7.86,17.64 8.9,16.53 Z"/>
  <path fill="#292D32" opacity="0.4" d="M16.19,2 L7.82,2 C4.18,2 2.01,4.17 2.01,7.81 L2.01,16.18 C2.01,19.82 4.18,21.99 7.82,21.99 L16.19,21.99 C19.83,21.99 22,19.82 22,16.18 L22,7.81 C22,4.17 19.83,2 16.19,2 Z"/>
</svg>

