<svg xmlns="http://www.w3.org/2000/svg" width="24" height="24" viewBox="0 0 24 24">
  <defs/>
  <path fill="#292D32" d="M4.71,18.191 C4.81,18.231 4.9,18.251 5,18.251 L15.27,18.251 C15.68,18.251 16.02,17.911 16.02,17.501 C16.02,17.091 15.68,16.751 15.27,16.751 L6.81,16.751 L19.53,4.031 C19.82,3.741 19.82,3.261 19.53,2.971 C19.24,2.681 18.76,2.681 18.47,2.971 L5.75,15.691 L5.75,7.231 C5.75,6.821 5.41,6.481 5,6.481 C4.59,6.481 4.25,6.821 4.25,7.231 L4.25,17.501 C4.25,17.601 4.27,17.691 4.31,17.791 C4.38,17.971 4.53,18.121 4.71,18.191 Z"/>
  <path fill="#292D32" d="M20.5,21.25 L3.5,21.25 C3.09,21.25 2.75,21.59 2.75,22 C2.75,22.41 3.09,22.75 3.5,22.75 L20.5,22.75 C20.91,22.75 21.25,22.41 21.25,22 C21.25,21.59 20.91,21.25 20.5,21.25 Z"/>
</svg>

