<svg xmlns="http://www.w3.org/2000/svg" width="24" height="24" viewBox="0 0 24 24">
  <defs/>
  <path fill="#292D32" d="M20.75,7.04 L20.75,16.96 Q20.75,19.348 20.215,20.568 Q20.167,20.726 20.05,20.859 Q19.499,21.54 18.63,21.54 Q17.46,21.54 16.221,20.211 Q15.846,19.808 15.373,19.834 Q14.9,19.86 14.57,20.3 L13.559,21.641 Q12.738,22.75 11.5,22.75 Q10.262,22.75 9.437,21.636 L8.422,20.292 Q8.096,19.857 7.63,19.831 Q7.161,19.806 6.786,20.204 Q6.778,20.213 6.77,20.221 L6.769,20.222 Q5.784,21.273 4.836,21.49 Q3.688,21.753 2.954,20.863 Q2.834,20.729 2.785,20.568 Q2.25,19.348 2.25,16.96 L2.25,7.04 Q2.25,4.674 2.775,3.455 Q2.829,3.233 3.005,3.085 Q3.718,2.26 4.83,2.511 Q5.783,2.726 6.769,3.778 L6.77,3.779 Q6.778,3.787 6.786,3.796 Q7.161,4.194 7.63,4.169 Q8.096,4.143 8.419,3.711 L9.442,2.358 Q10.262,1.25 11.5,1.25 Q12.738,1.25 13.563,2.364 L14.569,3.699 Q14.9,4.14 15.373,4.166 Q15.846,4.192 16.221,3.789 Q17.46,2.46 18.63,2.46 Q19.448,2.46 19.992,3.083 Q20.17,3.231 20.225,3.455 Q20.75,4.674 20.75,7.04 Z M19.25,7.04 Q19.25,4.99 18.854,4.061 Q18.754,3.96 18.63,3.96 Q18.112,3.96 17.319,4.811 Q16.465,5.727 15.292,5.664 Q14.12,5.6 13.371,4.601 L12.357,3.256 Q11.982,2.75 11.5,2.75 Q11.018,2.75 10.638,3.262 L9.621,4.609 Q8.878,5.603 7.712,5.666 Q6.553,5.73 5.702,4.833 L5.7,4.831 Q5.691,4.821 5.682,4.812 Q5.006,4.088 4.5,3.974 Q4.283,3.925 4.146,4.062 Q3.75,4.99 3.75,7.04 L3.75,16.96 Q3.75,19.023 4.151,19.95 Q4.291,20.076 4.501,20.028 Q5.006,19.912 5.682,19.188 Q5.691,19.179 5.7,19.169 L5.702,19.167 Q6.553,18.27 7.712,18.334 Q8.878,18.397 9.618,19.388 L10.643,20.744 Q11.018,21.25 11.5,21.25 Q11.982,21.25 12.361,20.739 L13.37,19.4 Q14.12,18.4 15.292,18.336 Q16.465,18.273 17.319,19.189 Q18.112,20.04 18.63,20.04 Q18.755,20.04 18.847,19.954 Q19.25,19.028 19.25,16.96 Z M4.149,4.056 Q4.25,3.895 4.25,3.67 Q4.25,3.837 4.179,3.988 Q4.164,4.021 4.149,4.056 Z M18.851,4.056 Q18.836,4.021 18.821,3.988 Q18.75,3.837 18.75,3.67 Q18.75,3.895 18.851,4.056 Z M18.857,4.065 Q18.955,4.216 19.145,4.311 Q18.994,4.236 18.89,4.103 Q18.874,4.082 18.857,4.065 Z M4.143,4.065 Q4.127,4.082 4.111,4.102 Q4.007,4.235 3.855,4.311 Q4.045,4.216 4.143,4.065 Z M4.21,20.089 Q4.25,20.205 4.25,20.33 Q4.25,20.201 4.21,20.089 Z M18.789,20.09 Q18.75,20.201 18.75,20.33 Q18.75,20.205 18.789,20.09 Z"/>
  <path fill="#292D32" d="M8,9.5 L16,9.5 Q16.311,9.5 16.53,9.72 Q16.75,9.939 16.75,10.25 Q16.75,10.561 16.53,10.78 Q16.311,11 16,11 L8,11 Q7.689,11 7.47,10.78 Q7.25,10.561 7.25,10.25 Q7.25,9.939 7.47,9.72 Q7.689,9.5 8,9.5 Z"/>
  <path fill="#292D32" d="M8,13 L14,13 Q14.311,13 14.53,13.22 Q14.75,13.439 14.75,13.75 Q14.75,14.061 14.53,14.28 Q14.311,14.5 14,14.5 L8,14.5 Q7.689,14.5 7.47,14.28 Q7.25,14.061 7.25,13.75 Q7.25,13.439 7.47,13.22 Q7.689,13 8,13 Z"/>
</svg>

