<svg xmlns="http://www.w3.org/2000/svg" width="24" height="24" viewBox="0 0 24 24">
  <defs/>
  <path fill="#292D32" d="M15,22.75 L9,22.75 C3.57,22.75 1.25,20.43 1.25,15 L1.25,9 C1.25,3.57 3.57,1.25 9,1.25 L15,1.25 C20.43,1.25 22.75,3.57 22.75,9 L22.75,15 C22.75,20.43 20.43,22.75 15,22.75 Z M9,2.75 C4.39,2.75 2.75,4.39 2.75,9 L2.75,15 C2.75,19.61 4.39,21.25 9,21.25 L15,21.25 C19.61,21.25 21.25,19.61 21.25,15 L21.25,9 C21.25,4.39 19.61,2.75 15,2.75 L9,2.75 Z"/>
  <path fill="#292D32" d="M12,18.63 C11.44,18.63 10.91,18.35 10.54,17.86 L9.94,17.06 C9.87,16.97 9.79,16.92 9.7,16.91 C9.61,16.91 9.53,16.95 9.45,17.03 L8.9,16.52 L9.45,17.03 C8.48,18.07 7.69,17.97 7.3,17.82 C6.91,17.66 6.25,17.18 6.25,15.7 L6.25,9.07 C6.25,6.29 7.14,5.36 9.78,5.36 L14.23,5.36 C16.87,5.36 17.76,6.3 17.76,9.07 L17.76,15.7 C17.76,17.18 17.1,17.67 16.71,17.82 C16.33,17.97 15.54,18.07 14.56,17.03 C14.48,16.95 14.39,16.91 14.3,16.91 C14.21,16.91 14.13,16.97 14.06,17.06 L13.47,17.85 C13.09,18.35 12.56,18.63 12,18.63 Z M9.69,15.41 C9.72,15.41 9.75,15.41 9.78,15.41 C10.31,15.44 10.8,15.71 11.13,16.16 L11.73,16.96 C11.9,17.18 12.09,17.18 12.25,16.96 L12.84,16.17 C13.17,15.72 13.67,15.45 14.2,15.42 C14.72,15.38 15.25,15.61 15.63,16.02 C15.91,16.32 16.09,16.4 16.16,16.42 C16.15,16.37 16.24,16.17 16.24,15.71 L16.24,9.08 C16.24,7.03 15.93,6.87 14.21,6.87 L9.76,6.87 C8.04,6.87 7.73,7.03 7.73,9.08 L7.73,15.71 C7.73,16.17 7.82,16.37 7.85,16.43 C7.88,16.39 8.06,16.31 8.33,16.01 C8.33,16 8.34,16 8.35,15.99 C8.72,15.63 9.2,15.41 9.69,15.41 Z"/>
</svg>

