<svg xmlns="http://www.w3.org/2000/svg" width="24" height="24" viewBox="0 0 24 24">
  <defs/>
  <path fill="#292D32" d="M4.999,18.25 C4.809,18.25 4.619,18.18 4.469,18.03 C4.179,17.74 4.179,17.26 4.469,16.97 L18.47,2.97 C18.759,2.68 19.239,2.68 19.529,2.97 C19.82,3.26 19.82,3.74 19.529,4.03 L5.529,18.03 C5.379,18.18 5.189,18.25 4.999,18.25 Z"/>
  <path fill="#292D32" d="M15.27,18.25 L5,18.25 C4.59,18.25 4.25,17.91 4.25,17.5 L4.25,7.23 C4.25,6.82 4.59,6.48 5,6.48 C5.41,6.48 5.75,6.82 5.75,7.23 L5.75,16.75 L15.27,16.75 C15.68,16.75 16.02,17.09 16.02,17.5 C16.02,17.91 15.68,18.25 15.27,18.25 Z"/>
  <path fill="#292D32" d="M20.5,22.75 L3.5,22.75 C3.09,22.75 2.75,22.41 2.75,22 C2.75,21.59 3.09,21.25 3.5,21.25 L20.5,21.25 C20.91,21.25 21.25,21.59 21.25,22 C21.25,22.41 20.91,22.75 20.5,22.75 Z"/>
</svg>

