<svg xmlns="http://www.w3.org/2000/svg" width="24" height="24" viewBox="0 0 24 24">
  <defs/>
  <path fill="#292D32" d="M16.19,2 L7.81,2 C4.17,2 2,4.17 2,7.81 L2,16.18 C2,19.83 4.17,22 7.81,22 L16.18,22 C19.82,22 21.99,19.83 21.99,16.19 L21.99,7.81 C22,4.17 19.83,2 16.19,2 Z M17,15.71 C17,17.28 16.14,17.65 15.1,16.53 C14.62,16.02 13.88,16.06 13.46,16.62 L12.87,17.41 C12.4,18.04 11.62,18.04 11.15,17.41 L10.55,16.61 C10.13,16.05 9.39,16.01 8.91,16.52 C7.86,17.64 7,17.27 7,15.71 L7,9.08 C7,6.71 7.56,6.12 9.78,6.12 L14.22,6.12 C16.44,6.12 17,6.71 17,9.08 L17,15.71 Z"/>
</svg>

