<svg xmlns="http://www.w3.org/2000/svg" width="24" height="24" viewBox="0 0 24 24">
  <defs/>
  <path fill="#292D32" d="M22,6 L22,8.42 C22,10 21,11 19.42,11 L16,11 L16,4.01 C16,2.9 16.91,2 18.02,2 C19.11,2.01 20.11,2.45 20.83,3.17 C21.55,3.9 22,4.9 22,6 Z"/>
  <path fill="#292D32" opacity="0.4" d="M2,7 L2,21 C2,21.83 2.94,22.3 3.6,21.8 L5.31,20.52 C5.71,20.22 6.27,20.26 6.63,20.62 L8.29,22.29 C8.68,22.68 9.32,22.68 9.71,22.29 L11.39,20.61 C11.74,20.26 12.3,20.22 12.69,20.52 L14.4,21.8 C15.06,22.29 16,21.82 16,21 L16,4 C16,2.9 16.9,2 18,2 L7,2 L6,2 C3,2 2,3.79 2,6 L2,7 Z"/>
  <path fill="#292D32" d="M11.75,9.25 L9.75,9.25 L9.75,7.25 C9.75,6.84 9.41,6.5 9,6.5 C8.59,6.5 8.25,6.84 8.25,7.25 L8.25,9.25 L6.25,9.25 C5.84,9.25 5.5,9.59 5.5,10 C5.5,10.41 5.84,10.75 6.25,10.75 L8.25,10.75 L8.25,12.75 C8.25,13.16 8.59,13.5 9,13.5 C9.41,13.5 9.75,13.16 9.75,12.75 L9.75,10.75 L11.75,10.75 C12.16,10.75 12.5,10.41 12.5,10 C12.5,9.59 12.16,9.25 11.75,9.25 Z"/>
</svg>

