<svg xmlns="http://www.w3.org/2000/svg" width="24" height="24" viewBox="0 0 24 24">
  <defs/>
  <path fill="#292D32" opacity="0.4" d="M6.73,19.7 C7.55,18.82 8.8,18.89 9.52,19.85 L10.53,21.2 C11.34,22.27 12.65,22.27 13.46,21.2 L14.47,19.85 C15.19,18.89 16.44,18.82 17.26,19.7 C19.04,21.6 20.49,20.97 20.49,18.31 L20.49,7.04 C20.5,3.01 19.56,2 15.78,2 L8.22,2 C4.44,2 3.5,3.01 3.5,7.04 L3.5,18.3 C3.5,20.97 4.96,21.59 6.73,19.7 Z"/>
  <path fill="#292D32" d="M16.23,11.75 L10.73,11.75 C10.32,11.75 9.98,11.41 9.98,11 C9.98,10.59 10.32,10.25 10.73,10.25 L16.23,10.25 C16.64,10.25 16.98,10.59 16.98,11 C16.98,11.41 16.64,11.75 16.23,11.75 Z"/>
  <path fill="#292D32" d="M16.23,7.75 L10.73,7.75 C10.32,7.75 9.98,7.41 9.98,7 C9.98,6.59 10.32,6.25 10.73,6.25 L16.23,6.25 C16.64,6.25 16.98,6.59 16.98,7 C16.98,7.41 16.64,7.75 16.23,7.75 Z"/>
  <path fill="#292D32" d="M7.779,8 C7.229,8 6.779,7.55 6.779,7 C6.779,6.45 7.229,6 7.779,6 C8.329,6 8.779,6.45 8.779,7 C8.779,7.55 8.329,8 7.779,8 Z"/>
  <path fill="#292D32" d="M7.779,12 C7.229,12 6.779,11.55 6.779,11 C6.779,10.45 7.229,10 7.779,10 C8.329,10 8.779,10.45 8.779,11 C8.779,11.55 8.329,12 7.779,12 Z"/>
</svg>

