<svg xmlns="http://www.w3.org/2000/svg" width="24" height="24" viewBox="0 0 24 24">
  <defs/>
  <path fill="#292D32" d="M15,22.75 L9,22.75 C3.57,22.75 1.25,20.43 1.25,15 L1.25,9 C1.25,3.57 3.57,1.25 9,1.25 L15,1.25 C20.43,1.25 22.75,3.57 22.75,9 L22.75,15 C22.75,20.43 20.43,22.75 15,22.75 Z M9,2.75 C4.39,2.75 2.75,4.39 2.75,9 L2.75,15 C2.75,19.61 4.39,21.25 9,21.25 L15,21.25 C19.61,21.25 21.25,19.61 21.25,15 L21.25,9 C21.25,4.39 19.61,2.75 15,2.75 L9,2.75 Z"/>
  <path fill="#292D32" d="M11.999,15.26 C11.809,15.26 11.62,15.19 11.47,15.04 L8.469,12.04 C8.179,11.75 8.179,11.27 8.469,10.98 C8.759,10.69 9.239,10.69 9.529,10.98 L11.999,13.45 L14.47,10.98 C14.759,10.69 15.239,10.69 15.53,10.98 C15.819,11.27 15.819,11.75 15.53,12.04 L12.53,15.04 C12.38,15.19 12.19,15.26 11.999,15.26 Z"/>
  <path fill="#292D32" d="M12,15.26 C11.59,15.26 11.25,14.92 11.25,14.51 L11.25,6.51 C11.25,6.1 11.59,5.76 12,5.76 C12.41,5.76 12.75,6.1 12.75,6.51 L12.75,14.51 C12.75,14.93 12.41,15.26 12,15.26 Z"/>
  <path fill="#292D32" d="M12,18.23 C9.89,18.23 7.77,17.89 5.76,17.22 C5.37,17.09 5.16,16.66 5.29,16.27 C5.42,15.88 5.84,15.66 6.24,15.8 C9.96,17.04 14.05,17.04 17.77,15.8 C18.16,15.67 18.59,15.88 18.72,16.27 C18.85,16.66 18.64,17.09 18.25,17.22 C16.23,17.9 14.11,18.23 12,18.23 Z"/>
</svg>

