<svg xmlns="http://www.w3.org/2000/svg" width="24" height="24" viewBox="0 0 24 24">
  <defs/>
  <path fill="#292D32" d="M22,6 L22,8.42 C22,10 21,11 19.42,11 L16,11 L16,4.01 C16,2.9 16.91,1.99 18.02,2 C19.11,2.01 20.11,2.45 20.83,3.17 C21.55,3.9 22,4.9 22,6 Z"/>
  <path fill="#292D32" opacity="0.4" d="M2,7 L2,21 C2,21.83 2.94,22.3 3.6,21.8 L5.31,20.52 C5.71,20.22 6.27,20.26 6.63,20.62 L8.29,22.29 C8.68,22.68 9.32,22.68 9.71,22.29 L11.39,20.61 C11.74,20.26 12.3,20.22 12.69,20.52 L14.4,21.8 C15.06,22.29 16,21.82 16,21 L16,4 C16,2.9 16.9,2 18,2 L7,2 L6,2 C3,2 2,3.79 2,6 L2,7 Z"/>
  <path fill="#292D32" d="M12,12.26 L9,12.26 C8.59,12.26 8.25,12.6 8.25,13.01 C8.25,13.42 8.59,13.76 9,13.76 L12,13.76 C12.41,13.76 12.75,13.42 12.75,13.01 C12.75,12.6 12.41,12.26 12,12.26 Z"/>
  <path fill="#292D32" d="M9,9.76 L12,9.76 C12.41,9.76 12.75,9.42 12.75,9.01 C12.75,8.6 12.41,8.26 12,8.26 L9,8.26 C8.59,8.26 8.25,8.6 8.25,9.01 C8.25,9.42 8.59,9.76 9,9.76 Z"/>
  <path fill="#292D32" d="M5.971,8.01 C5.411,8.01 4.971,8.46 4.971,9.01 C4.971,9.56 5.421,10.01 5.971,10.01 C6.521,10.01 6.971,9.56 6.971,9.01 C6.971,8.46 6.521,8.01 5.971,8.01 Z"/>
  <path fill="#292D32" d="M5.971,12.01 C5.411,12.01 4.971,12.46 4.971,13.01 C4.971,13.56 5.421,14.01 5.971,14.01 C6.521,14.01 6.971,13.56 6.971,13.01 C6.971,12.46 6.521,12.01 5.971,12.01 Z"/>
</svg>

