<svg xmlns="http://www.w3.org/2000/svg" width="24" height="24" viewBox="0 0 24 24">
  <defs/>
  <path fill="#292D32" d="M19.75,11.3 L19.75,7.04 Q19.75,4.312 19.01,3.521 Q18.288,2.75 15.78,2.75 L8.22,2.75 Q5.712,2.75 4.99,3.521 Q4.25,4.312 4.25,7.04 L4.25,18.3 Q4.25,19.802 4.748,20.016 Q5.214,20.217 6.181,19.179 Q6.19,19.169 6.199,19.16 L6.202,19.157 Q7.053,18.26 8.212,18.324 Q9.378,18.387 10.121,19.381 L11.131,20.731 Q11.317,20.979 11.272,21.287 Q11.228,21.594 10.979,21.781 Q10.731,21.967 10.423,21.922 Q10.116,21.878 9.929,21.629 L8.919,20.279 Q8.596,19.847 8.13,19.821 Q7.661,19.796 7.286,20.194 Q7.278,20.202 7.271,20.21 L7.27,20.211 Q5.587,22.011 4.155,21.394 Q2.75,20.789 2.75,18.3 L2.75,7.04 Q2.75,3.72 3.895,2.496 Q5.061,1.25 8.22,1.25 L15.78,1.25 Q18.939,1.25 20.105,2.496 Q21.25,3.72 21.25,7.04 L21.25,11.3 Q21.25,11.611 21.03,11.83 Q20.811,12.05 20.5,12.05 Q20.189,12.05 19.97,11.83 Q19.75,11.611 19.75,11.3 Z"/>
  <path fill="#292D32" d="M8,6.25 L16,6.25 Q16.311,6.25 16.53,6.47 Q16.75,6.689 16.75,7 Q16.75,7.311 16.53,7.53 Q16.311,7.75 16,7.75 L8,7.75 Q7.689,7.75 7.47,7.53 Q7.25,7.311 7.25,7 Q7.25,6.689 7.47,6.47 Q7.689,6.25 8,6.25 Z"/>
  <path fill="#292D32" d="M9,10.25 L15,10.25 Q15.311,10.25 15.53,10.47 Q15.75,10.689 15.75,11 Q15.75,11.311 15.53,11.53 Q15.311,11.75 15,11.75 L9,11.75 Q8.689,11.75 8.47,11.53 Q8.25,11.311 8.25,11 Q8.25,10.689 8.47,10.47 Q8.689,10.25 9,10.25 Z"/>
  <path fill="#292D32" d="M17.681,14.24 Q18.387,13.533 19.134,13.457 Q20.081,13.359 20.951,14.23 Q22.592,15.87 20.951,17.511 L17.42,21.042 Q17.021,21.464 16.396,21.563 L15.047,21.753 Q14.308,21.858 13.821,21.371 Q13.333,20.883 13.438,20.146 L13.63,18.783 Q13.723,18.198 14.141,17.78 Z M18.741,15.301 L15.201,18.841 Q15.128,18.914 15.112,19.017 L14.938,20.253 L16.186,20.078 Q16.283,20.062 16.331,20.01 Q16.341,20 16.351,19.99 L19.891,16.45 Q20.22,16.121 20.241,15.905 Q20.265,15.665 19.891,15.291 Q19.525,14.925 19.288,14.949 Q19.071,14.971 18.741,15.301 Z"/>
  <path fill="#292D32" d="M18.422,15.08 Q18.791,16.409 20.12,16.778 Q20.419,16.861 20.572,17.131 Q20.725,17.402 20.642,17.701 Q20.559,18 20.288,18.153 Q20.018,18.306 19.718,18.223 Q17.573,17.627 16.977,15.481 Q16.893,15.182 17.046,14.911 Q17.199,14.641 17.498,14.558 Q17.798,14.475 18.068,14.627 Q18.339,14.78 18.422,15.08 Z"/>
</svg>

