<svg xmlns="http://www.w3.org/2000/svg" width="24" height="24" viewBox="0 0 24 24">
  <defs/>
  <path fill="#292D32" opacity="0.4" d="M20,7.04 L20,16.96 C20,18.48 19.86,19.56 19.5,20.33 C19.5,20.34 19.49,20.36 19.48,20.37 C19.26,20.65 18.97,20.79 18.63,20.79 C18.1,20.79 17.46,20.44 16.77,19.7 C15.95,18.82 14.69,18.89 13.97,19.85 L12.96,21.19 C12.56,21.73 12.03,22 11.5,22 C10.97,22 10.44,21.73 10.04,21.19 L9.02,19.84 C8.31,18.89 7.06,18.82 6.24,19.69 L6.23,19.7 C5.1,20.91 4.1,21.09 3.52,20.37 C3.51,20.36 3.5,20.34 3.5,20.33 C3.14,19.56 3,18.48 3,16.96 L3,7.04 C3,5.52 3.14,4.44 3.5,3.67 C3.5,3.66 3.5,3.65 3.52,3.64 C4.09,2.91 5.1,3.09 6.23,4.3 L6.24,4.31 C7.06,5.18 8.31,5.11 9.02,4.16 L10.04,2.81 C10.44,2.27 10.97,2 11.5,2 C12.03,2 12.56,2.27 12.96,2.81 L13.97,4.15 C14.69,5.11 15.95,5.18 16.77,4.3 C17.46,3.56 18.1,3.21 18.63,3.21 C18.97,3.21 19.26,3.36 19.48,3.64 C19.5,3.65 19.5,3.66 19.5,3.67 C19.86,4.44 20,5.52 20,7.04 Z"/>
  <path fill="#292D32" d="M16,11 L8,11 C7.59,11 7.25,10.66 7.25,10.25 C7.25,9.84 7.59,9.5 8,9.5 L16,9.5 C16.41,9.5 16.75,9.84 16.75,10.25 C16.75,10.66 16.41,11 16,11 Z"/>
  <path fill="#292D32" d="M14,14.5 L8,14.5 C7.59,14.5 7.25,14.16 7.25,13.75 C7.25,13.34 7.59,13 8,13 L14,13 C14.41,13 14.75,13.34 14.75,13.75 C14.75,14.16 14.41,14.5 14,14.5 Z"/>
</svg>

