<svg xmlns="http://www.w3.org/2000/svg" width="24" height="24" viewBox="0 0 24 24">
  <defs/>
  <path fill="#292D32" d="M15.78,2 L8.22,2 C4.44,2 3.5,3.01 3.5,7.04 L3.5,18.3 C3.5,20.96 4.96,21.59 6.73,19.69 L6.74,19.68 C7.56,18.81 8.81,18.88 9.52,19.83 L10.53,21.18 C11.34,22.25 12.65,22.25 13.46,21.18 L14.47,19.83 C15.19,18.87 16.44,18.8 17.26,19.68 C19.04,21.58 20.49,20.95 20.49,18.29 L20.49,7.04 C20.5,3.01 19.56,2 15.78,2 Z M15.66,14.53 C15.51,14.68 15.32,14.75 15.13,14.75 C14.94,14.75 14.75,14.68 14.6,14.53 L13.86,13.79 C13.28,14.17 12.58,14.4 11.83,14.4 C9.79,14.4 8.13,12.74 8.13,10.7 C8.13,8.66 9.78,7 11.83,7 C13.88,7 15.53,8.66 15.53,10.7 C15.53,11.45 15.3,12.15 14.92,12.73 L15.66,13.47 C15.95,13.76 15.95,14.24 15.66,14.53 Z"/>
</svg>

