<svg xmlns="http://www.w3.org/2000/svg" width="24" height="24" viewBox="0 0 24 24">
  <defs/>
  <path fill="#292D32" d="M10.54,21.94 C10.31,21.94 10.089,21.84 9.94,21.64 L8.93,20.29 C8.72,20.01 8.44,19.85 8.14,19.83 C7.84,19.81 7.54,19.95 7.3,20.2 C5.85,21.75 4.75,21.62 4.22,21.42 C3.68,21.21 2.77,20.52 2.77,18.3 L2.77,7.04 C2.77,2.6 4.05,1.25 8.24,1.25 L15.79,1.25 C19.98,1.25 21.26,2.6 21.26,7.04 L21.26,11.3 C21.26,11.71 20.92,12.05 20.51,12.05 C20.1,12.05 19.76,11.71 19.76,11.3 L19.76,7.04 C19.76,3.43 19.13,2.75 15.79,2.75 L8.24,2.75 C4.9,2.75 4.27,3.43 4.27,7.04 L4.27,18.3 C4.27,19.35 4.53,19.93 4.77,20.02 C4.95,20.09 5.44,19.99 6.2,19.18 C6.75,18.6 7.47,18.29 8.22,18.33 C8.96,18.37 9.66,18.76 10.13,19.39 L11.149,20.74 C11.399,21.07 11.329,21.54 10.999,21.79 C10.85,21.9 10.69,21.94 10.54,21.94 Z"/>
  <path fill="#292D32" d="M18.2,22.15 C16.02,22.15 14.25,20.38 14.25,18.2 C14.25,16.02 16.02,14.25 18.2,14.25 C20.38,14.25 22.15,16.02 22.15,18.2 C22.15,20.38 20.38,22.15 18.2,22.15 Z M18.2,15.75 C16.85,15.75 15.75,16.85 15.75,18.2 C15.75,19.55 16.85,20.65 18.2,20.65 C19.55,20.65 20.65,19.55 20.65,18.2 C20.65,16.85 19.55,15.75 18.2,15.75 Z"/>
  <path fill="#292D32" d="M22,22.75 C21.809,22.75 21.619,22.68 21.47,22.53 L20.47,21.53 C20.18,21.24 20.18,20.76 20.47,20.47 C20.759,20.18 21.239,20.18 21.529,20.47 L22.529,21.47 C22.82,21.76 22.82,22.24 22.529,22.53 C22.38,22.68 22.189,22.75 22,22.75 Z"/>
  <path fill="#292D32" d="M16,7.75 L8,7.75 C7.59,7.75 7.25,7.41 7.25,7 C7.25,6.59 7.59,6.25 8,6.25 L16,6.25 C16.41,6.25 16.75,6.59 16.75,7 C16.75,7.41 16.41,7.75 16,7.75 Z"/>
  <path fill="#292D32" d="M15,11.75 L9,11.75 C8.59,11.75 8.25,11.41 8.25,11 C8.25,10.59 8.59,10.25 9,10.25 L15,10.25 C15.41,10.25 15.75,10.59 15.75,11 C15.75,11.41 15.41,11.75 15,11.75 Z"/>
</svg>

