<svg xmlns="http://www.w3.org/2000/svg" width="24" height="24" viewBox="0 0 24 24">
  <defs/>
  <path fill="#292D32" d="M19.75,7.04 Q19.75,4.312 19.01,3.521 Q18.288,2.75 15.78,2.75 L8.22,2.75 Q5.712,2.75 4.99,3.521 Q4.25,4.312 4.25,7.04 L4.25,18.3 Q4.25,19.802 4.748,20.016 Q5.214,20.217 6.181,19.179 Q6.19,19.169 6.2,19.16 L6.202,19.157 Q7.053,18.26 8.212,18.324 Q9.378,18.387 10.121,19.381 L11.131,20.731 Q11.51,21.233 11.995,21.233 Q12.48,21.233 12.862,20.727 L13.869,19.381 Q14.62,18.38 15.787,18.316 Q16.955,18.252 17.809,19.169 Q18.781,20.207 19.245,20.006 Q19.74,19.793 19.74,18.29 L19.74,11 Q19.74,10.689 19.96,10.47 Q20.179,10.25 20.49,10.25 Q20.801,10.25 21.02,10.47 Q21.24,10.689 21.24,11 L21.24,18.29 Q21.24,20.779 19.84,21.384 Q18.407,22.002 16.711,20.191 Q16.336,19.788 15.868,19.814 Q15.4,19.839 15.071,20.279 L14.058,21.633 Q13.225,22.733 11.995,22.733 Q10.765,22.733 9.929,21.629 L8.919,20.279 Q8.596,19.847 8.13,19.821 Q7.661,19.796 7.286,20.194 Q7.278,20.202 7.27,20.21 L7.27,20.211 Q5.587,22.011 4.155,21.394 Q2.75,20.789 2.75,18.3 L2.75,7.04 Q2.75,3.72 3.895,2.496 Q5.061,1.25 8.22,1.25 L15.78,1.25 Q18.939,1.25 20.105,2.496 Q21.25,3.72 21.25,7.04 Q21.25,7.351 21.03,7.57 Q20.811,7.79 20.5,7.79 Q20.189,7.79 19.97,7.57 Q19.75,7.351 19.75,7.04 Z"/>
  <path fill="#292D32" d="M10.731,10.25 L16.23,10.25 Q16.541,10.25 16.761,10.47 Q16.98,10.689 16.98,11 Q16.98,11.311 16.761,11.53 Q16.541,11.75 16.23,11.75 L10.731,11.75 Q10.42,11.75 10.2,11.53 Q9.98,11.311 9.98,11 Q9.98,10.689 10.2,10.47 Q10.42,10.25 10.731,10.25 Z"/>
  <path fill="#292D32" d="M10.731,6.25 L16.23,6.25 Q16.541,6.25 16.761,6.47 Q16.98,6.689 16.98,7 Q16.98,7.311 16.761,7.53 Q16.541,7.75 16.23,7.75 L10.731,7.75 Q10.42,7.75 10.2,7.53 Q9.98,7.311 9.98,7 Q9.98,6.689 10.2,6.47 Q10.42,6.25 10.731,6.25 Z"/>
  <path fill="#292D32" d="M8.094,10 L8.103,10 Q8.517,10 8.81,10.293 Q9.103,10.586 9.103,11 Q9.103,11.414 8.81,11.707 Q8.517,12 8.103,12 L8.094,12 Q7.68,12 7.387,11.707 Q7.094,11.414 7.094,11 Q7.094,10.586 7.387,10.293 Q7.68,10 8.094,10 Z"/>
  <path fill="#292D32" d="M8.094,6 L8.103,6 Q8.517,6 8.81,6.293 Q9.103,6.586 9.103,7 Q9.103,7.414 8.81,7.707 Q8.517,8 8.103,8 L8.094,8 Q7.68,8 7.387,7.707 Q7.094,7.414 7.094,7 Q7.094,6.586 7.387,6.293 Q7.68,6 8.094,6 Z"/>
</svg>

