<svg xmlns="http://www.w3.org/2000/svg" width="24" height="24" viewBox="0 0 24 24">
  <defs/>
  <path fill="#292D32" d="M15.78,2 L8.22,2 C4.44,2 3.5,3.01 3.5,7.04 L3.5,18.3 C3.5,20.96 4.96,21.59 6.73,19.69 L6.74,19.68 C7.56,18.81 8.81,18.88 9.52,19.83 L10.53,21.18 C11.34,22.25 12.65,22.25 13.46,21.18 L14.47,19.83 C15.19,18.87 16.44,18.8 17.26,19.68 C19.04,21.58 20.49,20.95 20.49,18.29 L20.49,7.04 C20.5,3.01 19.56,2 15.78,2 Z M15,11.75 L9,11.75 C8.59,11.75 8.25,11.41 8.25,11 C8.25,10.59 8.59,10.25 9,10.25 L15,10.25 C15.41,10.25 15.75,10.59 15.75,11 C15.75,11.41 15.41,11.75 15,11.75 Z M16,7.75 L8,7.75 C7.59,7.75 7.25,7.41 7.25,7 C7.25,6.59 7.59,6.25 8,6.25 L16,6.25 C16.41,6.25 16.75,6.59 16.75,7 C16.75,7.41 16.41,7.75 16,7.75 Z"/>
</svg>

