<svg xmlns="http://www.w3.org/2000/svg" width="24" height="24" viewBox="0 0 24 24">
  <defs/>
  <path fill="#292D32" d="M22,6 L22,8.42 C22,10 21,11 19.42,11 L16,11 L16,4.01 C16,2.9 16.91,2 18.02,2 C19.11,2.01 20.11,2.45 20.83,3.17 C21.55,3.9 22,4.9 22,6 Z"/>
  <path fill="#292D32" opacity="0.4" d="M2,7 L2,21 C2,21.83 2.94,22.3 3.6,21.8 L5.31,20.52 C5.71,20.22 6.27,20.26 6.63,20.62 L8.29,22.29 C8.68,22.68 9.32,22.68 9.71,22.29 L11.39,20.61 C11.74,20.26 12.3,20.22 12.69,20.52 L14.4,21.8 C15.06,22.29 16,21.82 16,21 L16,4 C16,2.9 16.9,2 18,2 L7,2 L6,2 C3,2 2,3.79 2,6 L2,7 Z"/>
  <path fill="#292D32" d="M12,9.75 L6,9.75 C5.59,9.75 5.25,9.41 5.25,9 C5.25,8.59 5.59,8.25 6,8.25 L12,8.25 C12.41,8.25 12.75,8.59 12.75,9 C12.75,9.41 12.41,9.75 12,9.75 Z"/>
  <path fill="#292D32" d="M11.25,13.75 L6.75,13.75 C6.34,13.75 6,13.41 6,13 C6,12.59 6.34,12.25 6.75,12.25 L11.25,12.25 C11.66,12.25 12,12.59 12,13 C12,13.41 11.66,13.75 11.25,13.75 Z"/>
</svg>

