<svg xmlns="http://www.w3.org/2000/svg" width="24" height="24" viewBox="0 0 24 24">
  <defs/>
  <path fill="#292D32" d="M19.42,11.75 L16,11.75 C15.59,11.75 15.25,11.41 15.25,11 L15.25,4.01 C15.25,3.27 15.54,2.58 16.06,2.06 C16.58,1.54 17.27,1.25 18.01,1.25 L18.02,1.25 C19.27,1.26 20.45,1.75 21.35,2.64 C22.25,3.55 22.74,4.75 22.74,6 L22.74,8.42 C22.75,10.41 21.41,11.75 19.42,11.75 Z M16.75,10.25 L19.42,10.25 C20.58,10.25 21.25,9.58 21.25,8.42 L21.25,6 C21.25,5.14 20.91,4.32 20.3,3.7 C19.69,3.1 18.87,2.76 18.02,2.75 C18.02,2.75 18.02,2.75 18.01,2.75 C17.68,2.75 17.36,2.88 17.12,3.12 C16.88,3.36 16.75,3.67 16.75,4.01 L16.75,10.25 Z"/>
  <path fill="#292D32" d="M9,23.33 C8.53,23.33 8.09,23.15 7.76,22.81 L6.1,21.14 C6.01,21.05 5.87,21.04 5.77,21.12 L4.05,22.4 C3.52,22.8 2.82,22.87 2.22,22.57 C1.62,22.27 1.25,21.67 1.25,21 L1.25,6 C1.25,2.98 2.98,1.25 6,1.25 L18,1.25 C18.41,1.25 18.75,1.59 18.75,2 C18.75,2.41 18.41,2.75 18,2.75 C17.31,2.75 16.75,3.31 16.75,4 L16.75,21 C16.75,21.67 16.38,22.27 15.78,22.57 C15.18,22.87 14.48,22.81 13.95,22.41 L12.24,21.13 C12.14,21.05 12,21.07 11.92,21.15 L10.24,22.83 C9.91,23.15 9.47,23.33 9,23.33 Z M5.91,19.57 C6.37,19.57 6.82,19.74 7.16,20.09 L8.82,21.76 C8.88,21.82 8.96,21.83 9,21.83 C9.04,21.83 9.12,21.82 9.18,21.76 L10.86,20.08 C11.48,19.46 12.46,19.4 13.15,19.93 L14.85,21.2 C14.96,21.28 15.06,21.25 15.11,21.22 C15.16,21.19 15.25,21.13 15.25,21 L15.25,4 C15.25,3.55 15.36,3.12 15.55,2.75 L6,2.75 C3.78,2.75 2.75,3.78 2.75,6 L2.75,21 C2.75,21.14 2.84,21.2 2.89,21.23 C2.95,21.26 3.05,21.28 3.15,21.2 L4.86,19.92 C5.17,19.69 5.54,19.57 5.91,19.57 Z"/>
  <path fill="#292D32" d="M12,13.76 L9,13.76 C8.59,13.76 8.25,13.42 8.25,13.01 C8.25,12.6 8.59,12.26 9,12.26 L12,12.26 C12.41,12.26 12.75,12.6 12.75,13.01 C12.75,13.42 12.41,13.76 12,13.76 Z"/>
  <path fill="#292D32" d="M12,9.76 L9,9.76 C8.59,9.76 8.25,9.42 8.25,9.01 C8.25,8.6 8.59,8.26 9,8.26 L12,8.26 C12.41,8.26 12.75,8.6 12.75,9.01 C12.75,9.42 12.41,9.76 12,9.76 Z"/>
  <path fill="#292D32" d="M5.971,10.01 C5.421,10.01 4.971,9.56 4.971,9.01 C4.971,8.46 5.421,8.01 5.971,8.01 C6.521,8.01 6.971,8.46 6.971,9.01 C6.971,9.56 6.521,10.01 5.971,10.01 Z"/>
  <path fill="#292D32" d="M5.971,14.01 C5.421,14.01 4.971,13.56 4.971,13.01 C4.971,12.46 5.421,12.01 5.971,12.01 C6.521,12.01 6.971,12.46 6.971,13.01 C6.971,13.56 6.521,14.01 5.971,14.01 Z"/>
</svg>

