<svg xmlns="http://www.w3.org/2000/svg" width="24" height="24" viewBox="0 0 24 24">
  <defs/>
  <path fill="#292D32" opacity="0.4" d="M6.73,19.7 C7.55,18.82 8.8,18.89 9.52,19.85 L10.53,21.2 C11.34,22.27 12.65,22.27 13.46,21.2 L14.47,19.85 C15.19,18.89 16.44,18.82 17.26,19.7 C19.04,21.6 20.49,20.97 20.49,18.31 L20.49,7.04 C20.5,3.01 19.56,2 15.78,2 L8.22,2 C4.44,2 3.5,3.01 3.5,7.04 L3.5,18.3 C3.5,20.97 4.96,21.59 6.73,19.7 Z"/>
  <path fill="#292D32" d="M15,14 C14.44,14 14,13.55 14,13 C14,12.45 14.45,12 15,12 C15.55,12 16,12.45 16,13 C16,13.55 15.56,14 15,14 Z"/>
  <path fill="#292D32" d="M9,9 C8.44,9 8,8.55 8,8 C8,7.45 8.45,7 9,7 C9.55,7 10,7.45 10,8 C10,8.55 9.56,9 9,9 Z"/>
  <path fill="#292D32" d="M8.63,14.55 C8.44,14.55 8.25,14.48 8.1,14.33 C7.81,14.04 7.81,13.56 8.1,13.27 L14.83,6.54 C15.12,6.25 15.6,6.25 15.89,6.54 C16.18,6.83 16.18,7.31 15.89,7.6 L9.16,14.33 C9.02,14.48 8.82,14.55 8.63,14.55 Z"/>
</svg>

