<svg xmlns="http://www.w3.org/2000/svg" width="24" height="24" viewBox="0 0 24 24">
  <defs/>
  <path fill="#292D32" d="M12,22.75 C11.21,22.75 10.46,22.35 9.94,21.64 L8.93,20.29 C8.72,20.01 8.44,19.85 8.14,19.83 C7.84,19.81 7.54,19.95 7.3,20.2 L6.73,19.7 L7.28,20.21 C5.83,21.75 4.73,21.63 4.2,21.42 C3.66,21.21 2.75,20.52 2.75,18.3 L2.75,7.04 C2.75,2.6 4.03,1.25 8.22,1.25 L15.77,1.25 C19.96,1.25 21.24,2.6 21.24,7.04 L21.24,18.3 C21.24,20.51 20.33,21.2 19.79,21.42 C19.26,21.63 18.16,21.75 16.71,20.21 C16.47,19.95 16.16,19.82 15.86,19.84 C15.56,19.86 15.27,20.02 15.06,20.3 L14.05,21.65 C13.54,22.35 12.79,22.75 12,22.75 Z M8.08,18.33 C8.12,18.33 8.17,18.33 8.21,18.33 C8.95,18.37 9.65,18.76 10.12,19.39 L11.14,20.74 C11.63,21.39 12.38,21.39 12.87,20.74 L13.88,19.39 C14.35,18.76 15.05,18.37 15.8,18.33 C16.55,18.29 17.28,18.6 17.82,19.18 C18.58,19.99 19.07,20.09 19.25,20.02 C19.49,19.92 19.75,19.34 19.75,18.3 L19.75,7.04 C19.75,3.43 19.12,2.75 15.78,2.75 L8.22,2.75 C4.88,2.75 4.25,3.43 4.25,7.04 L4.25,18.3 C4.25,19.35 4.51,19.93 4.75,20.02 C4.93,20.09 5.42,19.99 6.18,19.18 C6.7,18.63 7.38,18.33 8.08,18.33 Z"/>
  <path fill="#292D32" d="M15,14 C14.44,14 14,13.55 14,13 C14,12.45 14.45,12 15,12 C15.55,12 16,12.45 16,13 C16,13.55 15.56,14 15,14 Z"/>
  <path fill="#292D32" d="M9,9 C8.44,9 8,8.55 8,8 C8,7.45 8.45,7 9,7 C9.55,7 10,7.45 10,8 C10,8.55 9.56,9 9,9 Z"/>
  <path fill="#292D32" d="M8.63,14.55 C8.44,14.55 8.25,14.48 8.1,14.33 C7.81,14.04 7.81,13.56 8.1,13.27 L14.83,6.54 C15.12,6.25 15.6,6.25 15.89,6.54 C16.18,6.83 16.18,7.31 15.89,7.6 L9.16,14.33 C9.02,14.48 8.83,14.55 8.63,14.55 Z"/>
</svg>

