<svg xmlns="http://www.w3.org/2000/svg" width="24" height="24" viewBox="0 0 24 24">
  <defs/>
  <path fill="#292D32" d="M12,22.75 C11.22,22.75 10.46,22.35 9.94,21.65 L8.93,20.3 C8.72,20.02 8.44,19.86 8.14,19.84 C7.84,19.83 7.54,19.96 7.3,20.21 L6.73,19.7 L7.28,20.21 C5.84,21.75 4.73,21.63 4.2,21.42 C3.66,21.21 2.75,20.52 2.75,18.3 L2.75,7.04 C2.75,2.6 4.03,1.25 8.22,1.25 L15.78,1.25 C19.97,1.25 21.25,2.6 21.25,7.04 L21.25,18.3 C21.25,20.51 20.34,21.2 19.8,21.42 C19.27,21.63 18.17,21.75 16.72,20.21 C16.48,19.95 16.19,19.81 15.87,19.84 C15.57,19.86 15.28,20.02 15.07,20.3 L14.06,21.65 C13.54,22.35 12.78,22.75 12,22.75 Z M8.08,18.33 C8.12,18.33 8.17,18.33 8.21,18.33 C8.95,18.37 9.65,18.76 10.12,19.39 L11.13,20.74 C11.62,21.39 12.37,21.39 12.86,20.74 L13.87,19.39 C14.35,18.76 15.04,18.37 15.79,18.33 C16.53,18.29 17.27,18.6 17.81,19.18 C18.57,19.99 19.07,20.09 19.24,20.02 C19.48,19.92 19.74,19.34 19.74,18.3 L19.74,7.04 C19.74,3.43 19.11,2.75 15.77,2.75 L8.22,2.75 C4.88,2.75 4.25,3.43 4.25,7.04 L4.25,18.3 C4.25,19.35 4.51,19.93 4.75,20.02 C4.92,20.09 5.42,19.99 6.18,19.18 C6.72,18.63 7.39,18.33 8.08,18.33 Z"/>
  <path fill="#292D32" d="M16,7.75 L8,7.75 C7.59,7.75 7.25,7.41 7.25,7 C7.25,6.59 7.59,6.25 8,6.25 L16,6.25 C16.41,6.25 16.75,6.59 16.75,7 C16.75,7.41 16.41,7.75 16,7.75 Z"/>
  <path fill="#292D32" d="M15,11.75 L9,11.75 C8.59,11.75 8.25,11.41 8.25,11 C8.25,10.59 8.59,10.25 9,10.25 L15,10.25 C15.41,10.25 15.75,10.59 15.75,11 C15.75,11.41 15.41,11.75 15,11.75 Z"/>
</svg>

