<svg xmlns="http://www.w3.org/2000/svg" width="24" height="24" viewBox="0 0 24 24">
  <defs/>
  <path fill="#292D32" opacity="0.4" d="M16.19,2 L7.82,2 C4.17,2 2,4.17 2,7.81 L2,16.18 C2,19.82 4.17,21.99 7.81,21.99 L16.18,21.99 C19.82,21.99 21.99,19.82 21.99,16.18 L21.99,7.81 C22,4.17 19.83,2 16.19,2 Z"/>
  <path fill="#292D32" d="M11.471,15.04 C11.541,15.11 11.621,15.16 11.711,15.2 C11.801,15.24 11.901,15.26 12.001,15.26 C12.101,15.26 12.191,15.24 12.291,15.2 C12.381,15.16 12.461,15.11 12.531,15.04 L15.531,12.04 C15.821,11.75 15.821,11.27 15.531,10.98 C15.241,10.69 14.761,10.69 14.471,10.98 L12.751,12.7 L12.751,6.51 C12.751,6.1 12.411,5.76 12.001,5.76 C11.591,5.76 11.251,6.1 11.251,6.51 L11.251,12.7 L9.531,10.98 C9.241,10.69 8.761,10.69 8.471,10.98 C8.181,11.27 8.181,11.75 8.471,12.04 L11.471,15.04 Z"/>
  <path fill="#292D32" d="M18.711,16.28 C18.581,15.89 18.161,15.68 17.761,15.81 C14.041,17.05 9.951,17.05 6.231,15.81 C5.841,15.68 5.411,15.89 5.281,16.28 C5.151,16.67 5.361,17.1 5.751,17.23 C7.761,17.9 9.871,18.24 11.991,18.24 C14.111,18.24 16.221,17.9 18.231,17.23 C18.631,17.09 18.841,16.67 18.711,16.28 Z"/>
</svg>

