<svg xmlns="http://www.w3.org/2000/svg" width="24" height="24" viewBox="0 0 24 24">
  <defs/>
  <path fill="#292D32" d="M16.19,2 L7.81,2 C4.17,2 2,4.17 2,7.81 L2,16.18 C2,19.83 4.17,22 7.81,22 L16.18,22 C19.82,22 21.99,19.83 21.99,16.19 L21.99,7.81 C22,4.17 19.83,2 16.19,2 Z M8.47,10.98 C8.76,10.69 9.24,10.69 9.53,10.98 L11.25,12.7 L11.25,6.51 C11.25,6.1 11.59,5.76 12,5.76 C12.41,5.76 12.75,6.1 12.75,6.51 L12.75,12.7 L14.47,10.98 C14.76,10.69 15.24,10.69 15.53,10.98 C15.82,11.27 15.82,11.75 15.53,12.04 L12.53,15.04 C12.46,15.11 12.38,15.16 12.29,15.2 C12.2,15.24 12.1,15.26 12,15.26 C11.9,15.26 11.81,15.24 11.71,15.2 C11.62,15.16 11.54,15.11 11.47,15.04 L8.47,12.04 C8.18,11.75 8.18,11.28 8.47,10.98 Z M18.24,17.22 C16.23,17.89 14.12,18.23 12,18.23 C9.88,18.23 7.77,17.89 5.76,17.22 C5.37,17.09 5.16,16.66 5.29,16.27 C5.42,15.88 5.84,15.66 6.24,15.8 C9.96,17.04 14.05,17.04 17.77,15.8 C18.16,15.67 18.59,15.88 18.72,16.27 C18.84,16.67 18.63,17.09 18.24,17.22 Z"/>
</svg>

