<svg xmlns="http://www.w3.org/2000/svg" width="24" height="24" viewBox="0 0 24 24">
  <defs/>
  <path fill="#292D32" d="M19.75,11.3 L19.75,7.04 Q19.75,4.312 19.01,3.521 Q18.288,2.75 15.78,2.75 L8.22,2.75 Q5.712,2.75 4.99,3.521 Q4.25,4.312 4.25,7.04 L4.25,18.3 Q4.25,19.802 4.748,20.016 Q5.214,20.217 6.181,19.179 Q6.19,19.169 6.199,19.16 L6.202,19.157 Q7.053,18.26 8.212,18.324 Q9.378,18.387 10.121,19.381 L11.131,20.731 Q11.317,20.979 11.272,21.287 Q11.228,21.594 10.979,21.781 Q10.731,21.967 10.423,21.922 Q10.116,21.878 9.929,21.629 L8.919,20.279 Q8.596,19.847 8.13,19.821 Q7.661,19.796 7.286,20.194 Q7.278,20.202 7.271,20.21 L7.27,20.211 Q5.587,22.011 4.155,21.394 Q2.75,20.789 2.75,18.3 L2.75,7.04 Q2.75,3.72 3.895,2.496 Q5.061,1.25 8.22,1.25 L15.78,1.25 Q18.939,1.25 20.105,2.496 Q21.25,3.72 21.25,7.04 L21.25,11.3 Q21.25,11.611 21.03,11.83 Q20.811,12.05 20.5,12.05 Q20.189,12.05 19.97,11.83 Q19.75,11.611 19.75,11.3 Z"/>
  <path fill="#292D32" opacity="0.4" d="M8,6.25 L16,6.25 Q16.311,6.25 16.53,6.47 Q16.75,6.689 16.75,7 Q16.75,7.311 16.53,7.53 Q16.311,7.75 16,7.75 L8,7.75 Q7.689,7.75 7.47,7.53 Q7.25,7.311 7.25,7 Q7.25,6.689 7.47,6.47 Q7.689,6.25 8,6.25 Z"/>
  <path fill="#292D32" opacity="0.4" d="M9,10.25 L15,10.25 Q15.311,10.25 15.53,10.47 Q15.75,10.689 15.75,11 Q15.75,11.311 15.53,11.53 Q15.311,11.75 15,11.75 L9,11.75 Q8.689,11.75 8.47,11.53 Q8.25,11.311 8.25,11 Q8.25,10.689 8.47,10.47 Q8.689,10.25 9,10.25 Z"/>
  <path fill="#292D32" d="M17.679,14.239 Q18.385,13.533 19.132,13.456 Q20.079,13.359 20.949,14.229 Q21.825,15.105 21.732,16.052 Q21.658,16.802 20.949,17.51 L17.418,21.042 Q17.019,21.464 16.394,21.562 L15.045,21.752 Q14.306,21.858 13.819,21.37 Q13.331,20.882 13.436,20.145 L13.628,18.783 Q13.721,18.198 14.139,17.779 Z M18.739,15.3 L15.199,18.84 Q15.126,18.913 15.11,19.017 L14.936,20.253 L16.185,20.077 Q16.281,20.062 16.33,20.009 Q16.339,19.999 16.349,19.989 L19.889,16.449 Q20.218,16.121 20.239,15.905 Q20.263,15.664 19.889,15.29 Q19.523,14.924 19.286,14.948 Q19.069,14.971 18.739,15.3 Z"/>
  <path fill="#292D32" d="M18.422,15.079 Q18.791,16.408 20.12,16.777 Q20.419,16.86 20.572,17.131 Q20.725,17.401 20.642,17.701 Q20.559,18 20.288,18.153 Q20.018,18.306 19.718,18.222 Q17.573,17.626 16.977,15.481 Q16.893,15.181 17.046,14.911 Q17.199,14.64 17.498,14.557 Q17.798,14.474 18.068,14.627 Q18.339,14.78 18.422,15.079 Z"/>
</svg>

