<svg xmlns="http://www.w3.org/2000/svg" width="24" height="24" viewBox="0 0 24 24">
  <defs/>
  <path fill="#292D32" d="M7.277,20.213 Q5.588,22.016 4.155,21.399 Q2.75,20.794 2.75,18.3 L2.75,7.04 Q2.75,3.72 3.895,2.496 Q5.061,1.25 8.22,1.25 L15.78,1.25 Q18.94,1.25 20.104,2.497 Q21.248,3.722 21.24,7.04 L21.24,18.31 Q21.24,20.799 19.84,21.404 Q18.407,22.022 16.711,20.211 Q16.336,19.808 15.868,19.834 Q15.4,19.859 15.071,20.299 L14.058,21.653 Q13.225,22.753 11.995,22.753 Q10.765,22.753 9.929,21.649 L8.92,20.3 Q8.59,19.859 8.122,19.834 Q7.654,19.808 7.279,20.211 Z M6.181,19.189 L6.183,19.187 Q7.036,18.273 8.203,18.336 Q9.37,18.4 10.12,19.4 L11.131,20.751 Q11.51,21.253 11.995,21.253 Q12.48,21.253 12.862,20.747 L13.869,19.401 Q14.62,18.4 15.787,18.336 Q16.955,18.272 17.809,19.189 Q18.781,20.227 19.245,20.026 Q19.74,19.813 19.74,18.31 L19.74,7.04 Q19.747,4.312 19.008,3.521 Q18.288,2.75 15.78,2.75 L8.22,2.75 Q5.712,2.75 4.99,3.521 Q4.25,4.312 4.25,7.04 L4.25,18.3 Q4.25,19.807 4.748,20.021 Q5.213,20.222 6.181,19.189 Z"/>
  <path fill="#292D32" d="M8.47,12.47 L14.47,6.47 Q14.689,6.25 15,6.25 Q15.311,6.25 15.53,6.47 Q15.75,6.689 15.75,7 Q15.75,7.311 15.53,7.53 L9.53,13.53 Q9.311,13.75 9,13.75 Q8.689,13.75 8.47,13.53 Q8.25,13.311 8.25,13 Q8.25,12.689 8.47,12.47 Z"/>
  <path fill="#292D32" d="M14.995,12 L15.003,12 Q15.418,12 15.711,12.293 Q16.003,12.586 16.003,13 Q16.003,13.414 15.711,13.707 Q15.418,14 15.003,14 L14.995,14 Q14.58,14 14.287,13.707 Q13.994,13.414 13.994,13 Q13.994,12.586 14.287,12.293 Q14.58,12 14.995,12 Z"/>
  <path fill="#292D32" d="M8.995,6.5 L9.003,6.5 Q9.418,6.5 9.711,6.793 Q10.003,7.086 10.003,7.5 Q10.003,7.914 9.711,8.207 Q9.418,8.5 9.003,8.5 L8.995,8.5 Q8.58,8.5 8.287,8.207 Q7.995,7.914 7.995,7.5 Q7.995,7.086 8.287,6.793 Q8.58,6.5 8.995,6.5 Z"/>
</svg>

