<svg xmlns="http://www.w3.org/2000/svg" width="24" height="24" viewBox="0 0 24 24">
  <defs/>
  <path fill="#292D32" d="M6.276,15.909 Q6.451,17.75 8.689,17.75 L11.419,17.75 Q13.859,17.75 13.859,15.31 L13.859,12.58 Q13.859,10.15 11.419,10.15 L8.689,10.15 Q6.432,10.15 6.277,12.061 Q6.252,12.37 6.015,12.571 Q5.778,12.773 5.469,12.747 Q5.159,12.722 4.958,12.486 Q4.757,12.249 4.782,11.939 Q5.048,8.65 8.689,8.65 L11.419,8.65 Q13.439,8.65 14.399,9.608 Q15.359,10.566 15.359,12.58 L15.359,15.31 Q15.359,17.331 14.4,18.29 Q13.44,19.25 11.419,19.25 L8.689,19.25 Q5.086,19.25 4.783,16.051 Q4.753,15.742 4.951,15.502 Q5.149,15.263 5.458,15.233 Q5.768,15.204 6.007,15.402 Q6.247,15.6 6.276,15.909 Z"/>
  <path fill="#292D32" d="M19.25,8.68 L19.25,11.41 Q19.25,15.35 15.31,15.35 L14.6,15.35 Q14.29,15.35 14.07,15.13 Q13.85,14.911 13.85,14.6 L13.85,12.58 Q13.85,11.188 13.331,10.67 Q12.81,10.15 11.41,10.15 L9.4,10.15 Q9.09,10.15 8.87,9.93 Q8.65,9.711 8.65,9.4 L8.65,8.68 Q8.65,4.75 12.59,4.75 L15.32,4.75 Q19.25,4.75 19.25,8.68 Z M17.75,8.68 Q17.75,6.25 15.32,6.25 L12.59,6.25 Q10.165,6.25 10.15,8.65 L11.41,8.65 Q15.35,8.65 15.35,12.58 L15.35,13.85 Q16.717,13.843 17.23,13.33 Q17.75,12.809 17.75,11.41 Z"/>
  <path fill="#292D32" d="M22.75,15 Q22.75,18.213 20.482,20.482 Q18.213,22.75 15,22.75 Q14.689,22.75 14.47,22.53 Q14.25,22.311 14.25,22 Q14.25,21.792 14.357,21.614 L15.407,19.864 Q15.567,19.598 15.868,19.522 Q16.169,19.447 16.436,19.607 Q16.702,19.767 16.778,20.068 Q16.853,20.369 16.693,20.636 L16.414,21.102 Q18.112,20.729 19.421,19.421 Q21.25,17.592 21.25,15 Q21.25,14.689 21.47,14.47 Q21.689,14.25 22,14.25 Q22.311,14.25 22.53,14.47 Q22.75,14.689 22.75,15 Z"/>
  <path fill="#292D32" d="M1.25,9 Q1.25,5.787 3.518,3.518 Q5.787,1.25 9,1.25 Q9.311,1.25 9.53,1.47 Q9.75,1.689 9.75,2 Q9.75,2.208 9.643,2.386 L8.593,4.136 Q8.433,4.402 8.132,4.478 Q7.831,4.553 7.564,4.393 Q7.298,4.233 7.222,3.932 Q7.147,3.631 7.307,3.364 L7.586,2.898 Q5.888,3.271 4.579,4.579 Q2.75,6.408 2.75,9 Q2.75,9.311 2.53,9.53 Q2.311,9.75 2,9.75 Q1.689,9.75 1.47,9.53 Q1.25,9.311 1.25,9 Z"/>
</svg>

