<svg xmlns="http://www.w3.org/2000/svg" width="24" height="24" viewBox="0 0 24 24">
  <defs/>
  <path fill="#292D32" d="M15.479,12 Q15.48,10.556 14.462,9.538 Q13.444,8.52 12,8.52 Q8.52,8.52 8.52,12 Q8.52,13.444 9.537,14.462 Q10.555,15.48 12,15.48 Q12.693,15.48 13.316,15.226 Q13.604,15.108 13.89,15.229 Q14.176,15.349 14.294,15.637 Q14.411,15.924 14.291,16.211 Q14.171,16.497 13.883,16.614 Q12.987,16.98 12,16.98 Q9.934,16.98 8.477,15.523 Q7.02,14.066 7.02,12 Q7.02,9.934 8.477,8.477 Q9.934,7.02 12,7.02 Q14.065,7.02 15.522,8.477 Q16.979,9.934 16.979,12 Q16.979,12.311 16.76,12.53 Q16.54,12.75 16.229,12.75 Q15.919,12.75 15.699,12.53 Q15.479,12.311 15.479,12 Z"/>
  <path fill="#292D32" d="M4.6,6.449 Q2.75,8.922 2.75,12 Q2.75,15.829 5.46,18.54 Q8.171,21.25 12,21.25 Q15.829,21.25 18.54,18.54 Q21.25,15.829 21.25,12 Q21.25,8.171 18.54,5.46 Q15.829,2.75 12,2.75 Q10.031,2.75 8.276,3.535 Q7.993,3.661 7.702,3.551 Q7.412,3.44 7.285,3.156 Q7.159,2.873 7.269,2.582 Q7.38,2.292 7.664,2.165 Q9.711,1.25 12,1.25 Q16.451,1.25 19.6,4.4 Q22.75,7.549 22.75,12 Q22.75,16.451 19.6,19.6 Q16.451,22.75 12,22.75 Q7.549,22.75 4.4,19.6 Q1.25,16.451 1.25,12 Q1.25,8.422 3.4,5.551 Q3.586,5.302 3.893,5.258 Q4.201,5.213 4.449,5.4 Q4.698,5.586 4.742,5.893 Q4.787,6.201 4.6,6.449 Z"/>
</svg>

