<svg xmlns="http://www.w3.org/2000/svg" width="24" height="24" viewBox="0 0 24 24">
  <defs/>
  <path fill="#292D32" d="M15,22.75 C14.73,22.75 14.48,22.6 14.35,22.37 C14.22,22.13 14.22,21.85 14.36,21.61 L15.41,19.86 C15.62,19.5 16.09,19.39 16.44,19.6 C16.8,19.81 16.91,20.27 16.7,20.63 L16.43,21.08 C19.19,20.43 21.26,17.95 21.26,14.99 C21.26,14.58 21.6,14.24 22.01,14.24 C22.42,14.24 22.76,14.58 22.76,14.99 C22.75,19.27 19.27,22.75 15,22.75 Z"/>
  <path fill="#292D32" d="M2,9.75 C1.59,9.75 1.25,9.41 1.25,9 C1.25,4.73 4.73,1.25 9,1.25 C9.27,1.25 9.52,1.4 9.65,1.63 C9.78,1.87 9.78,2.15 9.64,2.39 L8.59,4.14 C8.38,4.49 7.92,4.61 7.56,4.39 C7.21,4.18 7.09,3.72 7.31,3.36 L7.58,2.91 C4.81,3.56 2.75,6.04 2.75,9 C2.75,9.41 2.41,9.75 2,9.75 Z"/>
  <path fill="#292D32" opacity="0.4" d="M14.8,12.63 L14.8,15.57 C14.8,18.02 13.82,19 11.37,19 L8.43,19 C5.98,19 5,18.02 5,15.57 L5,12.63 C5,10.18 5.98,9.2 8.43,9.2 L11.37,9.2 C13.82,9.2 14.8,10.18 14.8,12.63 Z"/>
  <path fill="#292D32" opacity="0.4" d="M15.571,5 L12.631,5 C10.221,5 9.241,5.96 9.211,8.32 L11.371,8.32 C14.311,8.32 15.671,9.69 15.671,12.62 L15.671,14.78 C18.041,14.75 18.991,13.77 18.991,11.36 L18.991,8.43 C19.001,5.98 18.021,5 15.571,5 Z"/>
</svg>

