<svg xmlns="http://www.w3.org/2000/svg" width="24" height="24" viewBox="0 0 24 24">
  <defs/>
  <path fill="#292D32" d="M5.813,6.536 Q3.75,8.878 3.75,12 Q3.75,15.417 6.167,17.833 Q8.583,20.25 12,20.25 Q15.417,20.25 17.833,17.833 Q20.25,15.417 20.25,12 Q20.25,8.583 17.833,6.167 Q15.417,3.75 12,3.75 Q11.02,3.75 10.117,3.969 Q9.815,4.042 9.55,3.88 Q9.284,3.719 9.211,3.417 Q9.138,3.115 9.3,2.85 Q9.461,2.584 9.763,2.511 Q10.84,2.25 12,2.25 Q16.038,2.25 18.894,5.106 Q21.75,7.962 21.75,12 Q21.75,16.038 18.894,18.894 Q16.038,21.75 12,21.75 Q7.962,21.75 5.106,18.894 Q2.25,16.038 2.25,12 Q2.25,8.312 4.687,5.544 Q4.892,5.311 5.202,5.292 Q5.512,5.272 5.746,5.477 Q5.979,5.682 5.998,5.992 Q6.018,6.302 5.813,6.536 Z"/>
</svg>

