<svg xmlns="http://www.w3.org/2000/svg" width="24" height="24" viewBox="0 0 24 24">
  <defs/>
  <path fill="#292D32" d="M19.63,7.238 C19.93,7.708 19.77,8.338 19.29,8.628 L18.7,8.978 L5.59,16.838 C5.11,17.128 4.48,16.968 4.2,16.478 C3.2,14.738 2.75,12.618 3.14,10.398 C3.8,6.628 6.9,3.628 10.69,3.088 C14.44,2.558 17.83,4.358 19.63,7.238 Z"/>
  <path fill="#292D32" d="M20.889,13.431 C20.209,17.681 16.449,20.931 12.139,21.001 C10.239,21.031 8.479,20.481 7.019,19.491 C6.399,19.081 6.419,18.161 7.059,17.781 L19.469,10.491 C20.119,10.111 20.919,10.551 20.979,11.301 C21.029,12.001 20.999,12.711 20.889,13.431 Z"/>
</svg>

