<svg xmlns="http://www.w3.org/2000/svg" width="24" height="24" viewBox="0 0 24 24">
  <defs/>
  <path fill="#292D32" d="M11.971,22.75 C6.051,22.75 1.221,17.93 1.221,12 C1.221,6.07 6.051,1.25 11.971,1.25 C17.891,1.25 22.721,6.07 22.721,12 C22.721,17.93 17.901,22.75 11.971,22.75 Z M11.971,2.75 C6.871,2.75 2.721,6.9 2.721,12 C2.721,17.1 6.871,21.25 11.971,21.25 C17.071,21.25 21.221,17.1 21.221,12 C21.221,6.9 17.071,2.75 11.971,2.75 Z"/>
  <path fill="#292D32" d="M11.999,16.98 C9.25,16.98 7.02,14.75 7.02,12 C7.02,9.25 9.25,7.02 11.999,7.02 C14.749,7.02 16.98,9.25 16.98,12 C16.98,14.75 14.749,16.98 11.999,16.98 Z M11.999,8.52 C10.079,8.52 8.52,10.08 8.52,12 C8.52,13.92 10.079,15.48 11.999,15.48 C13.919,15.48 15.479,13.92 15.479,12 C15.479,10.08 13.919,8.52 11.999,8.52 Z"/>
</svg>

