<svg xmlns="http://www.w3.org/2000/svg" width="22" height="22" viewBox="0 0 22 22">
  <defs/>
  <path fill="#292D32" d="M14.35,11.58 L14.35,14.31 Q14.35,18.25 10.41,18.25 L7.69,18.25 Q3.75,18.25 3.75,14.31 L3.75,11.58 Q3.75,7.65 7.69,7.65 L10.42,7.65 Q12.433,7.65 13.392,8.608 Q14.35,9.567 14.35,11.58 Z M12.85,11.58 Q12.85,10.188 12.331,9.669 Q11.812,9.15 10.42,9.15 L7.69,9.15 Q5.25,9.15 5.25,11.58 L5.25,14.31 Q5.25,16.75 7.69,16.75 L10.41,16.75 Q12.85,16.75 12.85,14.31 Z"/>
  <path fill="#292D32" d="M18.25,7.68 L18.25,10.41 Q18.25,12.431 17.29,13.39 Q16.331,14.35 14.31,14.35 L13.6,14.35 Q13.289,14.35 13.07,14.13 Q12.85,13.911 12.85,13.6 L12.85,11.58 Q12.85,9.15 10.41,9.15 L8.4,9.15 Q8.089,9.15 7.87,8.93 Q7.65,8.711 7.65,8.4 L7.65,7.68 Q7.65,3.75 11.59,3.75 L14.32,3.75 Q16.333,3.75 17.292,4.708 Q18.25,5.667 18.25,7.68 Z M16.75,7.68 Q16.75,5.25 14.32,5.25 L11.59,5.25 Q9.165,5.25 9.15,7.65 L10.41,7.65 Q12.43,7.65 13.39,8.608 Q14.35,9.566 14.35,11.58 L14.35,12.85 Q15.717,12.843 16.23,12.33 Q16.75,11.809 16.75,10.41 Z"/>
  <path fill="#292D32" d="M21.75,14 Q21.75,17.213 19.482,19.482 Q17.213,21.75 14,21.75 Q13.689,21.75 13.47,21.53 Q13.25,21.311 13.25,21 Q13.25,20.792 13.357,20.614 L14.407,18.864 Q14.567,18.598 14.868,18.522 Q15.169,18.447 15.436,18.607 Q15.702,18.767 15.778,19.068 Q15.853,19.369 15.693,19.636 L15.414,20.102 Q17.112,19.729 18.421,18.421 Q20.25,16.592 20.25,14 Q20.25,13.689 20.47,13.47 Q20.689,13.25 21,13.25 Q21.311,13.25 21.53,13.47 Q21.75,13.689 21.75,14 Z"/>
  <path fill="#292D32" d="M0.25,8 Q0.25,4.787 2.518,2.518 Q4.787,0.25 8,0.25 Q8.311,0.25 8.53,0.47 Q8.75,0.689 8.75,1 Q8.75,1.208 8.643,1.386 L7.593,3.136 Q7.433,3.402 7.132,3.478 Q6.831,3.553 6.564,3.393 Q6.298,3.233 6.222,2.932 Q6.147,2.631 6.307,2.364 L6.586,1.898 Q4.888,2.271 3.579,3.579 Q1.75,5.408 1.75,8 Q1.75,8.311 1.53,8.53 Q1.311,8.75 1,8.75 Q0.689,8.75 0.47,8.53 Q0.25,8.311 0.25,8 Z"/>
</svg>

