<svg xmlns="http://www.w3.org/2000/svg" width="24" height="24" viewBox="0 0 24 24">
  <defs/>
  <path fill="#292D32" d="M11.42,19.25 L8.69,19.25 C6,19.25 4.75,18 4.75,15.31 L4.75,12.58 C4.75,9.9 6,8.65 8.69,8.65 L11.42,8.65 C14.1,8.65 15.36,9.9 15.36,12.59 L15.36,15.32 C15.35,18 14.1,19.25 11.42,19.25 Z M8.69,10.15 C6.82,10.15 6.25,10.72 6.25,12.59 L6.25,15.32 C6.25,17.19 6.82,17.76 8.69,17.76 L11.42,17.76 C13.29,17.76 13.86,17.19 13.86,15.32 L13.86,12.59 C13.86,10.72 13.29,10.15 11.42,10.15 L8.69,10.15 Z"/>
  <path fill="#292D32" d="M15.31,15.35 L14.6,15.35 C14.19,15.35 13.85,15.01 13.85,14.6 L13.85,12.58 C13.85,10.71 13.28,10.14 11.41,10.14 L9.4,10.14 C8.99,10.14 8.65,9.8 8.65,9.39 L8.65,8.69 C8.65,6.01 9.9,4.75 12.59,4.75 L15.32,4.75 C18,4.75 19.26,6 19.26,8.69 L19.26,11.42 C19.25,14.1 18,15.35 15.31,15.35 Z M10.15,8.65 L11.42,8.65 C14.1,8.65 15.36,9.9 15.36,12.59 L15.36,13.86 C17.2,13.85 17.76,13.28 17.76,11.42 L17.76,8.69 C17.76,6.82 17.19,6.25 15.32,6.25 L12.59,6.25 C10.73,6.25 10.16,6.81 10.15,8.65 Z"/>
  <path fill="#292D32" d="M15,22.75 C14.73,22.75 14.48,22.6 14.35,22.37 C14.22,22.13 14.22,21.85 14.36,21.61 L15.41,19.86 C15.62,19.5 16.08,19.39 16.44,19.6 C16.8,19.81 16.91,20.27 16.7,20.63 L16.43,21.08 C19.19,20.43 21.26,17.95 21.26,14.99 C21.26,14.58 21.6,14.24 22.01,14.24 C22.42,14.24 22.76,14.58 22.76,14.99 C22.75,19.27 19.27,22.75 15,22.75 Z"/>
  <path fill="#292D32" d="M2,9.75 C1.59,9.75 1.25,9.41 1.25,9 C1.25,4.73 4.73,1.25 9,1.25 C9.27,1.25 9.52,1.4 9.65,1.63 C9.78,1.87 9.78,2.15 9.64,2.39 L8.59,4.14 C8.38,4.49 7.92,4.61 7.56,4.39 C7.21,4.18 7.09,3.72 7.31,3.36 L7.58,2.91 C4.81,3.56 2.75,6.04 2.75,9 C2.75,9.41 2.41,9.75 2,9.75 Z"/>
</svg>

