<svg xmlns="http://www.w3.org/2000/svg" width="24" height="24" viewBox="0 0 24 24">
  <defs/>
  <path fill="#292D32" d="M16.869,19.06 L8.869,19.06 C5.699,19.06 3.119,16.48 3.119,13.31 C3.119,10.14 5.699,7.56 8.869,7.56 L19.869,7.56 C20.279,7.56 20.619,7.9 20.619,8.31 C20.619,8.72 20.279,9.06 19.869,9.06 L8.869,9.06 C6.529,9.06 4.619,10.97 4.619,13.31 C4.619,15.65 6.529,17.56 8.869,17.56 L16.869,17.56 C17.279,17.56 17.619,17.9 17.619,18.31 C17.619,18.72 17.289,19.06 16.869,19.06 Z"/>
  <path fill="#292D32" d="M17.57,11.56 C17.38,11.56 17.19,11.49 17.04,11.34 C16.75,11.05 16.75,10.57 17.04,10.28 L19.07,8.25 L17.04,6.22 C16.75,5.93 16.75,5.45 17.04,5.16 C17.33,4.87 17.81,4.87 18.1,5.16 L20.66,7.72 C20.95,8.01 20.95,8.49 20.66,8.78 L18.1,11.34 C17.95,11.49 17.76,11.56 17.57,11.56 Z"/>
</svg>

