<svg xmlns="http://www.w3.org/2000/svg" width="24" height="24" viewBox="0 0 24 24">
  <defs/>
  <path fill="#292D32" d="M16.19,2 L7.81,2 C4.17,2 2,4.17 2,7.81 L2,16.18 C2,19.83 4.17,22 7.81,22 L16.18,22 C19.82,22 21.99,19.83 21.99,16.19 L21.99,7.81 C22,4.17 19.83,2 16.19,2 Z M17.53,10.22 L15.96,11.79 C15.81,11.94 15.62,12.01 15.43,12.01 C15.24,12.01 15.05,11.94 14.9,11.79 C14.61,11.5 14.61,11.02 14.9,10.73 L15.16,10.47 L10.08,10.47 C8.8,10.47 7.75,11.51 7.75,12.8 C7.75,14.09 8.79,15.13 10.08,15.13 L15,15.13 C15.41,15.13 15.75,15.47 15.75,15.88 C15.75,16.29 15.41,16.63 15,16.63 L10.08,16.63 C7.97,16.63 6.25,14.91 6.25,12.8 C6.25,10.69 7.97,8.97 10.08,8.97 L15.23,8.97 L14.9,8.65 C14.61,8.36 14.61,7.88 14.9,7.59 C15.19,7.3 15.67,7.3 15.96,7.59 L17.53,9.16 C17.82,9.46 17.82,9.93 17.53,10.22 Z"/>
</svg>

