<svg xmlns="http://www.w3.org/2000/svg" width="24" height="24" viewBox="0 0 24 24">
  <defs/>
  <path fill="#292D32" opacity="0.4" d="M16.869,19.06 L8.869,19.06 Q6.488,19.06 4.804,17.375 Q3.119,15.691 3.119,13.31 Q3.119,10.929 4.804,9.245 Q6.488,7.56 8.869,7.56 L19.869,7.56 Q20.18,7.56 20.399,7.78 Q20.619,7.999 20.619,8.31 Q20.619,8.621 20.399,8.84 Q20.18,9.06 19.869,9.06 L8.869,9.06 Q7.11,9.06 5.864,10.305 Q4.619,11.551 4.619,13.31 Q4.619,15.069 5.864,16.315 Q7.11,17.56 8.869,17.56 L16.869,17.56 Q17.18,17.56 17.399,17.78 Q17.619,17.999 17.619,18.31 Q17.619,18.621 17.399,18.84 Q17.18,19.06 16.869,19.06 Z"/>
  <path fill="#292D32" d="M17.04,10.28 L19.07,8.25 L17.04,6.22 Q16.82,6.001 16.82,5.69 Q16.82,5.379 17.04,5.16 Q17.26,4.94 17.57,4.94 Q17.881,4.94 18.101,5.16 L20.661,7.72 Q20.88,7.939 20.88,8.25 Q20.88,8.561 20.661,8.78 L18.101,11.34 Q17.881,11.56 17.57,11.56 Q17.26,11.56 17.04,11.34 Q16.82,11.121 16.82,10.81 Q16.82,10.499 17.04,10.28 Z"/>
</svg>

