<svg xmlns="http://www.w3.org/2000/svg" width="24" height="24" viewBox="0 0 24 24">
  <defs/>
  <path fill="#292D32" opacity="0.4" d="M7.81,2 L16.18,2 C19.83,2 22,4.17 22,7.81 L22,16.18 C22,19.82 19.83,21.99 16.19,21.99 L7.81,21.99 C4.17,22 2,19.83 2,16.19 L2,7.81 C2,4.17 4.17,2 7.81,2 Z"/>
  <path fill="#292D32" d="M17.53,9.16 L15.96,7.59 C15.67,7.3 15.19,7.3 14.9,7.59 C14.61,7.88 14.61,8.36 14.9,8.65 L15.23,8.98 L10.08,8.98 C7.97,8.98 6.25,10.7 6.25,12.81 C6.25,14.92 7.97,16.64 10.08,16.64 L15,16.64 C15.41,16.64 15.75,16.3 15.75,15.89 C15.75,15.48 15.41,15.14 15,15.14 L10.08,15.14 C8.8,15.14 7.75,14.1 7.75,12.81 C7.75,11.52 8.79,10.48 10.08,10.48 L15.16,10.48 L14.9,10.74 C14.61,11.03 14.61,11.51 14.9,11.8 C15.05,11.95 15.24,12.02 15.43,12.02 C15.62,12.02 15.81,11.95 15.96,11.8 L17.53,10.23 C17.82,9.93 17.82,9.46 17.53,9.16 Z"/>
</svg>

