<svg xmlns="http://www.w3.org/2000/svg" width="24" height="24" viewBox="0 0 24 24">
  <defs/>
  <path fill="#292D32" d="M9,22.75 Q1.25,22.75 1.25,15 L1.25,9 Q1.25,1.25 9,1.25 L15,1.25 Q22.75,1.25 22.75,9 L22.75,15 Q22.75,22.75 15,22.75 Z M9,21.25 L15,21.25 Q18.439,21.25 19.845,19.845 Q21.25,18.439 21.25,15 L21.25,9 Q21.25,2.75 15,2.75 L9,2.75 Q2.75,2.75 2.75,9 L2.75,15 Q2.75,18.439 4.155,19.845 Q5.561,21.25 9,21.25 Z"/>
  <g opacity="0.4">
    <path fill="#292D32" d="M13.454,8.229 Q12.727,8.01 12,8.01 Q10.241,8.01 8.995,9.256 Q7.75,10.501 7.75,12.26 Q7.75,14.02 8.995,15.265 Q10.241,16.51 12,16.51 Q13.759,16.51 15.005,15.265 Q16.25,14.02 16.25,12.26 Q16.25,10.974 15.535,9.894 Q15.363,9.635 15.425,9.331 Q15.487,9.027 15.746,8.855 Q16.005,8.683 16.309,8.745 Q16.614,8.807 16.785,9.066 Q17.75,10.522 17.75,12.26 Q17.75,14.641 16.065,16.326 Q14.381,18.01 12,18.01 Q9.619,18.01 7.935,16.326 Q6.25,14.641 6.25,12.26 Q6.25,9.88 7.935,8.195 Q9.619,6.51 12,6.51 Q12.947,6.51 13.886,6.792 Q14.183,6.881 14.33,7.155 Q14.478,7.428 14.388,7.726 Q14.299,8.023 14.026,8.171 Q13.752,8.318 13.454,8.229 Z"/>
    <path fill="#292D32" d="M13.815,8.142 L12.155,6.232 Q11.951,5.998 11.973,5.688 Q11.994,5.378 12.229,5.174 Q12.463,4.97 12.773,4.992 Q13.083,5.014 13.287,5.248 L14.947,7.158 Q15.151,7.393 15.129,7.703 Q15.107,8.013 14.873,8.216 Q14.638,8.42 14.328,8.398 Q14.018,8.377 13.815,8.142 Z"/>
    <path fill="#292D32" d="M14.822,8.256 L12.882,9.676 Q12.632,9.859 12.325,9.812 Q12.018,9.764 11.834,9.513 Q11.651,9.263 11.698,8.956 Q11.746,8.649 11.997,8.465 L13.937,7.045 Q14.187,6.862 14.494,6.909 Q14.801,6.957 14.985,7.207 Q15.168,7.458 15.121,7.765 Q15.073,8.072 14.822,8.256 Z"/>
  </g>
</svg>

