<svg xmlns="http://www.w3.org/2000/svg" width="24" height="24" viewBox="0 0 24 24">
  <defs/>
  <path fill="#292D32" opacity="0.4" d="M16.19,2 L7.82,2 C4.17,2 2,4.17 2,7.81 L2,16.18 C2,19.82 4.17,21.99 7.81,21.99 L16.18,21.99 C19.82,21.99 21.99,19.82 21.99,16.18 L21.99,7.81 C22,4.17 19.83,2 16.19,2 Z"/>
  <path fill="#292D32" d="M18,11.27 C17.58,11.27 17.25,11.6 17.25,12.02 C17.24,13.42 16.7,14.73 15.72,15.71 C14.73,16.7 13.41,17.25 12.01,17.25 C10.61,17.25 9.29,16.7 8.3,15.71 C8.27,15.68 8.25,15.65 8.22,15.62 L9.05,15.62 C9.46,15.62 9.8,15.28 9.8,14.87 C9.8,14.46 9.46,14.12 9.05,14.12 L6.4,14.12 C5.99,14.12 5.65,14.46 5.65,14.87 L5.65,17.52 C5.65,17.93 5.99,18.27 6.4,18.27 C6.81,18.27 7.15,17.93 7.15,17.52 L7.15,16.67 C7.18,16.7 7.21,16.74 7.24,16.78 C8.51,18.05 10.21,18.76 12.01,18.76 C13.81,18.76 15.51,18.06 16.78,16.78 C18.04,15.52 18.74,13.83 18.75,12.03 C18.75,11.61 18.41,11.28 18,11.27 Z"/>
  <path fill="#292D32" d="M6,12.65 C6.41,12.65 6.74,12.32 6.75,11.91 C6.77,10.54 7.32,9.25 8.28,8.28 C9.27,7.29 10.59,6.74 11.99,6.74 C13.39,6.74 14.71,7.29 15.7,8.28 C15.73,8.31 15.75,8.34 15.78,8.37 L14.95,8.37 C14.54,8.37 14.2,8.71 14.2,9.12 C14.2,9.53 14.54,9.87 14.95,9.87 L17.6,9.87 C18.01,9.87 18.35,9.53 18.35,9.12 L18.35,6.48 C18.35,6.07 18.01,5.73 17.6,5.73 C17.19,5.73 16.85,6.07 16.85,6.48 L16.85,7.34 C16.82,7.31 16.79,7.27 16.76,7.23 C15.49,5.96 13.79,5.25 11.99,5.25 C10.19,5.25 8.49,5.95 7.22,7.23 C5.97,8.47 5.27,10.13 5.25,11.89 C5.24,12.3 5.57,12.64 5.99,12.65 C6,12.65 6,12.65 6,12.65 Z"/>
</svg>

