<svg xmlns="http://www.w3.org/2000/svg" width="24" height="24" viewBox="0 0 24 24">
  <defs/>
  <path fill="#292D32" d="M14.55,22.42 C14.22,22.42 13.91,22.2 13.82,21.86 C13.71,21.46 13.95,21.05 14.36,20.94 C18.42,19.87 21.25,16.19 21.25,11.99 C21.25,6.89 17.1,2.74 12,2.74 C7.67,2.74 4.83,5.27 3.5,6.8 L6.44,6.8 C6.85,6.8 7.19,7.14 7.19,7.55 C7.19,7.96 6.86,8.31 6.44,8.31 L2.01,8.31 C1.96,8.31 1.87,8.3 1.8,8.28 C1.71,8.25 1.63,8.21 1.56,8.16 C1.47,8.1 1.4,8.02 1.35,7.93 C1.3,7.84 1.26,7.73 1.25,7.62 C1.25,7.59 1.25,7.57 1.25,7.54 L1.25,3 C1.25,2.59 1.59,2.25 2,2.25 C2.41,2.25 2.75,2.59 2.75,3 L2.75,5.39 C4.38,3.64 7.45,1.25 12,1.25 C17.93,1.25 22.75,6.07 22.75,12 C22.75,16.88 19.46,21.16 14.74,22.4 C14.68,22.41 14.61,22.42 14.55,22.42 Z"/>
  <path fill="#292D32" d="M11.29,22.73 C11.27,22.73 11.25,22.72 11.24,22.72 C10.16,22.65 9.1,22.41 8.1,22.02 C7.81,21.91 7.61,21.62 7.62,21.31 C7.62,21.22 7.64,21.13 7.67,21.05 C7.82,20.67 8.27,20.48 8.64,20.62 C9.51,20.96 10.42,21.16 11.34,21.23 C11.73,21.25 12.04,21.59 12.04,21.99 L12.03,22.03 C12.01,22.42 11.68,22.73 11.29,22.73 Z M5.78,20.58 C5.61,20.58 5.45,20.52 5.31,20.42 C4.47,19.74 3.73,18.95 3.13,18.07 C3.04,17.94 2.99,17.8 2.99,17.65 C2.99,17.4 3.11,17.17 3.32,17.03 C3.65,16.8 4.13,16.89 4.36,17.21 C4.36,17.22 4.36,17.22 4.36,17.22 C4.37,17.23 4.38,17.25 4.39,17.26 C4.91,18.01 5.54,18.68 6.25,19.24 C6.42,19.38 6.53,19.59 6.53,19.82 C6.53,19.99 6.48,20.16 6.37,20.3 C6.22,20.48 6.01,20.58 5.78,20.58 Z M2.44,15.7 C2.11,15.7 1.82,15.49 1.73,15.18 C1.41,14.15 1.25,13.08 1.25,12 L1.25,11.99 C1.26,11.58 1.59,11.25 2,11.25 C2.41,11.25 2.75,11.59 2.75,12 C2.75,12.94 2.89,13.86 3.16,14.73 C3.18,14.81 3.19,14.88 3.19,14.96 C3.19,15.28 2.98,15.57 2.66,15.67 C2.59,15.69 2.52,15.7 2.44,15.7 Z"/>
</svg>

