<svg xmlns="http://www.w3.org/2000/svg" width="24" height="24" viewBox="0 0 24 24">
  <defs/>
  <path fill="#292D32" opacity="0.4" d="M12,22 C17.523,22 22,17.523 22,12 C22,6.477 17.523,2 12,2 C6.477,2 2,6.477 2,12 C2,17.523 6.477,22 12,22 Z"/>
  <path fill="#292D32" d="M16.759,11.93 C16.339,11.86 15.969,12.16 15.909,12.57 C15.789,13.44 15.399,14.22 14.799,14.82 C13.419,16.2 11.279,16.34 9.729,15.27 L10.479,15.27 C10.889,15.27 11.229,14.93 11.229,14.52 C11.229,14.11 10.889,13.77 10.479,13.77 L7.809,13.77 C7.399,13.77 7.059,14.11 7.059,14.52 L7.059,17.19 C7.059,17.6 7.399,17.94 7.809,17.94 C8.219,17.94 8.559,17.6 8.559,17.19 L8.559,16.25 C9.559,17.06 10.769,17.49 11.989,17.49 C13.389,17.49 14.789,16.96 15.859,15.89 C16.689,15.06 17.219,13.99 17.389,12.79 C17.459,12.36 17.169,11.98 16.759,11.93 Z"/>
  <path fill="#292D32" d="M7.339,12.08 C7.709,12.08 8.029,11.81 8.079,11.44 C8.199,10.57 8.589,9.79 9.189,9.19 C10.569,7.81 12.71,7.67 14.259,8.74 L13.509,8.74 C13.1,8.74 12.759,9.08 12.759,9.49 C12.759,9.9 13.1,10.24 13.509,10.24 L16.179,10.24 C16.589,10.24 16.929,9.9 16.929,9.49 L16.929,6.82 C16.929,6.41 16.589,6.07 16.179,6.07 C15.769,6.07 15.429,6.41 15.429,6.82 L15.429,7.76 C13.279,6.02 10.13,6.13 8.139,8.12 C7.309,8.95 6.779,10.02 6.609,11.22 C6.549,11.63 6.839,12.01 7.249,12.07 C7.269,12.08 7.309,12.08 7.339,12.08 Z"/>
</svg>

