<svg xmlns="http://www.w3.org/2000/svg" width="24" height="24" viewBox="0 0 24 24">
  <defs/>
  <path fill="#292D32" d="M5.581,3.369 Q8.418,1.25 12,1.25 Q16.439,1.25 19.979,4.202 Q20.684,4.789 21.25,5.381 L21.25,2.56 Q21.25,2.249 21.47,2.03 Q21.689,1.81 22,1.81 Q22.311,1.81 22.53,2.03 Q22.75,2.249 22.75,2.56 L22.75,7.503 Q22.755,7.576 22.745,7.652 Q22.728,7.803 22.654,7.931 Q22.583,8.06 22.462,8.152 Q22.343,8.247 22.2,8.285 Q22.082,8.319 21.957,8.31 L17.56,8.31 Q17.249,8.31 17.03,8.09 Q16.81,7.871 16.81,7.56 Q16.81,7.249 17.03,7.03 Q17.249,6.81 17.56,6.81 L20.524,6.81 Q19.896,6.086 19.019,5.354 Q15.896,2.75 12,2.75 Q8.916,2.75 6.479,4.571 Q6.23,4.757 5.923,4.712 Q5.615,4.668 5.429,4.419 Q5.243,4.17 5.288,3.863 Q5.332,3.555 5.581,3.369 Z M18.462,20.589 Q15.597,22.75 12,22.75 Q8.261,22.75 4.982,19.777 Q4.37,19.221 3.86,18.662 L3.86,21.44 Q3.86,21.751 3.64,21.97 Q3.421,22.19 3.11,22.19 Q2.799,22.19 2.58,21.97 Q2.36,21.751 2.36,21.44 L2.36,16.497 Q2.355,16.425 2.365,16.35 Q2.381,16.199 2.455,16.071 Q2.526,15.942 2.647,15.849 Q2.765,15.754 2.908,15.716 Q3.027,15.681 3.152,15.69 L7.63,15.69 Q7.941,15.69 8.16,15.91 Q8.38,16.129 8.38,16.44 Q8.38,16.751 8.16,16.97 Q7.941,17.19 7.63,17.19 L4.511,17.19 Q7.497,21.25 12,21.25 Q15.095,21.25 17.558,19.391 Q17.806,19.204 18.114,19.247 Q18.422,19.29 18.609,19.538 Q18.796,19.786 18.753,20.094 Q18.71,20.402 18.462,20.589 Z M22.75,12 Q22.75,14.884 21.309,17.375 Q21.154,17.644 20.854,17.725 Q20.554,17.805 20.285,17.649 Q20.016,17.494 19.935,17.194 Q19.855,16.894 20.011,16.625 Q21.25,14.481 21.25,12 Q21.25,11.689 21.47,11.47 Q21.689,11.25 22,11.25 Q22.311,11.25 22.53,11.47 Q22.75,11.689 22.75,12 Z M1.25,12 Q1.25,9.099 2.681,6.625 Q2.836,6.356 3.136,6.275 Q3.436,6.195 3.705,6.351 Q3.974,6.506 4.055,6.806 Q4.135,7.106 3.979,7.375 Q2.75,9.501 2.75,12 Q2.75,12.311 2.53,12.53 Q2.311,12.75 2,12.75 Q1.689,12.75 1.47,12.53 Q1.25,12.311 1.25,12 Z"/>
</svg>

