<svg xmlns="http://www.w3.org/2000/svg" width="24" height="24" viewBox="0 0 24 24">
  <defs/>
  <path fill="#292D32" d="M16.19,2 L7.81,2 C4.17,2 2,4.17 2,7.81 L2,16.18 C2,19.83 4.17,22 7.81,22 L16.18,22 C19.82,22 21.99,19.83 21.99,16.19 L21.99,7.81 C22,4.17 19.83,2 16.19,2 Z M12,18.01 C8.83,18.01 6.25,15.43 6.25,12.26 C6.25,9.09 8.83,6.51 12,6.51 C12.14,6.51 12.29,6.53 12.43,6.54 L12.15,6.22 C11.88,5.91 11.91,5.43 12.22,5.16 C12.53,4.89 13.01,4.92 13.28,5.23 L14.95,7.14 C14.96,7.15 14.96,7.16 14.97,7.17 C14.98,7.18 14.99,7.18 14.99,7.19 C15.01,7.22 15.02,7.26 15.04,7.3 C15.06,7.35 15.09,7.39 15.1,7.44 C15.11,7.49 15.11,7.53 15.12,7.58 C15.12,7.63 15.13,7.67 15.13,7.72 C15.13,7.77 15.11,7.81 15.09,7.86 C15.07,7.91 15.06,7.96 15.04,8 C15.02,8.04 14.98,8.08 14.95,8.12 C14.92,8.15 14.91,8.19 14.88,8.21 C14.87,8.22 14.86,8.22 14.85,8.23 C14.84,8.24 14.84,8.25 14.83,8.25 L12.89,9.67 C12.76,9.77 12.6,9.81 12.45,9.81 C12.22,9.81 11.99,9.7 11.84,9.5 C11.6,9.17 11.67,8.7 12,8.45 L12.56,8.04 C12.37,8.03 12.19,8.01 12,8.01 C9.66,8.01 7.75,9.92 7.75,12.26 C7.75,14.6 9.66,16.51 12,16.51 C14.34,16.51 16.25,14.6 16.25,12.26 C16.25,11.41 16,10.6 15.54,9.9 C15.31,9.56 15.4,9.09 15.75,8.86 C16.09,8.63 16.56,8.72 16.79,9.07 C17.42,10.02 17.76,11.12 17.76,12.26 C17.75,15.44 15.17,18.01 12,18.01 Z"/>
</svg>

