<svg xmlns="http://www.w3.org/2000/svg" width="24" height="24" viewBox="0 0 24 24">
  <defs/>
  <path fill="#292D32" d="M14.359,20.945 Q17.367,20.152 19.293,17.689 Q21.25,15.186 21.25,12 Q21.25,8.163 18.554,5.46 Q15.852,2.75 12,2.75 Q8.104,2.75 4.981,5.354 Q4.104,6.086 3.476,6.81 L6.44,6.81 Q6.751,6.81 6.97,7.03 Q7.19,7.249 7.19,7.56 Q7.19,7.871 6.97,8.09 Q6.751,8.31 6.44,8.31 L2.043,8.31 Q1.918,8.319 1.8,8.285 Q1.657,8.247 1.538,8.152 Q1.417,8.06 1.346,7.931 Q1.272,7.803 1.255,7.652 Q1.245,7.576 1.25,7.503 L1.25,3 Q1.25,2.689 1.47,2.47 Q1.689,2.25 2,2.25 Q2.311,2.25 2.53,2.47 Q2.75,2.689 2.75,3 L2.75,5.381 Q3.316,4.789 4.021,4.202 Q7.561,1.25 12,1.25 Q16.474,1.25 19.616,4.4 Q22.75,7.543 22.75,12 Q22.75,15.703 20.475,18.613 Q18.238,21.474 14.741,22.395 Q14.441,22.474 14.172,22.318 Q13.904,22.161 13.825,21.861 Q13.746,21.561 13.902,21.292 Q14.059,21.024 14.359,20.945 Z"/>
  <path fill="#292D32" d="M2.75,12 Q2.75,13.424 3.172,14.769 Q3.265,15.066 3.121,15.341 Q2.977,15.617 2.681,15.71 Q2.385,15.803 2.109,15.659 Q1.834,15.515 1.741,15.219 Q1.25,13.654 1.25,12 Q1.25,11.689 1.47,11.47 Q1.689,11.25 2,11.25 Q2.311,11.25 2.53,11.47 Q2.75,11.689 2.75,12 Z M8.706,20.646 Q10.014,21.145 11.417,21.232 Q11.727,21.251 11.933,21.484 Q12.139,21.717 12.119,22.027 Q12.1,22.337 11.867,22.543 Q11.634,22.748 11.324,22.729 Q9.692,22.628 8.172,22.047 Q7.881,21.937 7.754,21.653 Q7.627,21.369 7.738,21.079 Q7.849,20.789 8.132,20.662 Q8.416,20.535 8.706,20.646 Z M4.389,17.257 Q5.187,18.409 6.289,19.275 Q6.533,19.467 6.57,19.776 Q6.607,20.084 6.415,20.329 Q6.223,20.573 5.915,20.61 Q5.606,20.647 5.362,20.455 Q4.082,19.448 3.156,18.111 Q2.979,17.855 3.035,17.549 Q3.09,17.244 3.346,17.067 Q3.601,16.89 3.907,16.946 Q4.213,17.001 4.389,17.257 Z"/>
</svg>

