<svg xmlns="http://www.w3.org/2000/svg" width="24" height="24" viewBox="0 0 24 24">
  <defs/>
  <g opacity="0.4">
    <path fill="#292D32" d="M10.114,6.792 Q11.053,6.51 12,6.51 Q14.381,6.51 16.065,8.195 Q17.75,9.88 17.75,12.26 Q17.75,14.641 16.065,16.326 Q14.381,18.01 12,18.01 Q9.619,18.01 7.935,16.326 Q6.25,14.641 6.25,12.26 Q6.25,10.522 7.215,9.066 Q7.386,8.807 7.691,8.745 Q7.995,8.683 8.254,8.855 Q8.513,9.027 8.575,9.331 Q8.637,9.635 8.465,9.894 Q7.75,10.974 7.75,12.26 Q7.75,14.02 8.995,15.265 Q10.241,16.51 12,16.51 Q13.759,16.51 15.005,15.265 Q16.25,14.02 16.25,12.26 Q16.25,10.501 15.005,9.256 Q13.759,8.01 12,8.01 Q11.273,8.01 10.546,8.229 Q10.248,8.318 9.974,8.171 Q9.701,8.023 9.612,7.726 Q9.522,7.428 9.67,7.155 Q9.817,6.881 10.114,6.792 Z"/>
    <path fill="#292D32" d="M9.055,7.158 L10.715,5.248 Q10.919,5.014 11.229,4.992 Q11.539,4.97 11.773,5.174 Q12.008,5.378 12.029,5.688 Q12.051,5.998 11.847,6.232 L10.187,8.142 Q9.983,8.377 9.673,8.398 Q9.364,8.42 9.129,8.216 Q8.895,8.013 8.873,7.703 Q8.851,7.393 9.055,7.158 Z"/>
    <path fill="#292D32" d="M10.064,7.045 L12.004,8.465 Q12.255,8.649 12.302,8.956 Q12.35,9.263 12.166,9.513 Q11.983,9.764 11.676,9.812 Q11.369,9.859 11.118,9.676 L9.178,8.256 Q8.927,8.072 8.88,7.765 Q8.832,7.458 9.016,7.207 Q9.199,6.957 9.506,6.909 Q9.813,6.862 10.064,7.045 Z"/>
  </g>
  <path fill="#292D32" d="M9,22.75 Q1.25,22.75 1.25,15 L1.25,9 Q1.25,1.25 9,1.25 L15,1.25 Q22.75,1.25 22.75,9 L22.75,15 Q22.75,22.75 15,22.75 Z M9,21.25 L15,21.25 Q18.439,21.25 19.845,19.845 Q21.25,18.439 21.25,15 L21.25,9 Q21.25,2.75 15,2.75 L9,2.75 Q2.75,2.75 2.75,9 L2.75,15 Q2.75,18.439 4.155,19.845 Q5.561,21.25 9,21.25 Z"/>
</svg>

