<svg xmlns="http://www.w3.org/2000/svg" width="24" height="24" viewBox="0 0 24 24">
  <defs/>
  <path fill="#292D32" d="M1.25,12 Q1.25,7.543 4.384,4.4 Q7.526,1.25 12,1.25 Q16.439,1.25 19.979,4.202 Q20.684,4.789 21.25,5.381 L21.25,2.56 Q21.25,2.249 21.47,2.03 Q21.689,1.81 22,1.81 Q22.311,1.81 22.53,2.03 Q22.75,2.249 22.75,2.56 L22.75,7.503 Q22.755,7.576 22.745,7.652 Q22.728,7.803 22.654,7.931 Q22.583,8.06 22.462,8.152 Q22.343,8.247 22.2,8.285 Q22.082,8.319 21.957,8.31 L17.56,8.31 Q17.249,8.31 17.03,8.09 Q16.81,7.871 16.81,7.56 Q16.81,7.249 17.03,7.03 Q17.249,6.81 17.56,6.81 L20.524,6.81 Q19.896,6.086 19.019,5.354 Q15.896,2.75 12,2.75 Q8.148,2.75 5.446,5.46 Q2.75,8.163 2.75,12 Q2.75,12.311 2.53,12.53 Q2.311,12.75 2,12.75 Q1.689,12.75 1.47,12.53 Q1.25,12.311 1.25,12 Z"/>
  <path fill="#292D32" opacity="0.4" d="M22.64,12 Q22.64,16.451 19.49,19.6 Q16.341,22.75 11.89,22.75 Q8.151,22.75 4.871,19.776 Q4.259,19.22 3.75,18.663 L3.75,21.44 Q3.75,21.751 3.53,21.97 Q3.311,22.19 3,22.19 Q2.689,22.19 2.47,21.97 Q2.25,21.751 2.25,21.44 L2.25,16.497 Q2.245,16.425 2.255,16.35 Q2.271,16.199 2.345,16.071 Q2.416,15.942 2.537,15.849 Q2.655,15.754 2.798,15.716 Q2.917,15.681 3.042,15.69 L7.52,15.69 Q7.831,15.69 8.05,15.91 Q8.27,16.129 8.27,16.44 Q8.27,16.751 8.05,16.97 Q7.831,17.19 7.52,17.19 L4.401,17.19 Q7.385,21.25 11.89,21.25 Q15.719,21.25 18.43,18.54 Q21.14,15.829 21.14,12 Q21.14,11.689 21.36,11.47 Q21.579,11.25 21.89,11.25 Q22.201,11.25 22.42,11.47 Q22.64,11.689 22.64,12 Z"/>
</svg>

