<svg xmlns="http://www.w3.org/2000/svg" width="24" height="24" viewBox="0 0 24 24">
  <defs/>
  <path fill="#292D32" d="M12,2 C6.48,2 2,6.48 2,12 C2,17.52 6.48,22 12,22 C17.52,22 22,17.52 22,12 C22,6.48 17.52,2 12,2 Z M6.6,11.23 C6.77,10.04 7.3,8.97 8.13,8.13 C10.13,6.14 13.28,6.03 15.42,7.77 L15.42,6.82 C15.42,6.41 15.76,6.07 16.17,6.07 C16.58,6.07 16.92,6.41 16.92,6.82 L16.92,9.49 C16.92,9.9 16.58,10.24 16.17,10.24 L13.5,10.24 C13.09,10.24 12.75,9.9 12.75,9.49 C12.75,9.08 13.09,8.74 13.5,8.74 L14.25,8.74 C12.7,7.66 10.56,7.81 9.18,9.19 C8.58,9.79 8.2,10.57 8.07,11.44 C8.02,11.81 7.7,12.08 7.33,12.08 C7.29,12.08 7.26,12.08 7.22,12.07 C6.83,12.02 6.54,11.64 6.6,11.23 Z M15.87,15.87 C14.8,16.94 13.4,17.47 12,17.47 C10.78,17.47 9.57,17.04 8.57,16.23 L8.57,17.17 C8.57,17.58 8.23,17.92 7.82,17.92 C7.41,17.92 7.07,17.58 7.07,17.17 L7.07,14.5 C7.07,14.09 7.41,13.75 7.82,13.75 L10.49,13.75 C10.9,13.75 11.24,14.09 11.24,14.5 C11.24,14.91 10.9,15.25 10.49,15.25 L9.74,15.25 C11.29,16.33 13.43,16.18 14.81,14.8 C15.41,14.2 15.79,13.42 15.92,12.55 C15.98,12.14 16.35,11.85 16.77,11.91 C17.18,11.97 17.46,12.35 17.41,12.76 C17.23,13.97 16.7,15.04 15.87,15.87 Z"/>
</svg>

