<svg xmlns="http://www.w3.org/2000/svg" width="24" height="24" viewBox="0 0 24 24">
  <defs/>
  <path fill="#292D32" d="M8.653,14.124 Q8.876,14.495 9.19,14.81 Q11.992,17.612 14.811,14.808 Q15.725,13.894 15.917,12.563 Q15.962,12.255 16.211,12.069 Q16.459,11.883 16.767,11.928 Q17.074,11.972 17.26,12.221 Q17.446,12.47 17.402,12.777 Q17.139,14.602 15.869,15.872 Q14.262,17.47 11.996,17.47 Q9.729,17.47 8.129,15.87 Q7.684,15.425 7.367,14.896 Q7.207,14.629 7.282,14.328 Q7.358,14.027 7.624,13.867 Q7.89,13.707 8.192,13.782 Q8.493,13.858 8.653,14.124 Z"/>
  <path fill="#292D32" d="M6.597,11.224 Q6.858,9.401 8.13,8.13 Q9.729,6.53 11.996,6.53 Q14.262,6.53 15.869,8.128 Q16.287,8.546 16.627,9.095 Q16.791,9.358 16.72,9.661 Q16.649,9.963 16.385,10.127 Q16.121,10.291 15.819,10.22 Q15.516,10.15 15.353,9.886 Q15.104,9.485 14.811,9.192 Q11.992,6.388 9.19,9.19 Q8.272,10.109 8.082,11.436 Q8.038,11.744 7.79,11.93 Q7.541,12.116 7.234,12.073 Q6.926,12.029 6.74,11.78 Q6.553,11.532 6.597,11.224 Z"/>
  <path fill="#292D32" d="M7.07,17.18 L7.07,14.51 Q7.07,14.199 7.29,13.98 Q7.51,13.76 7.82,13.76 L10.49,13.76 Q10.801,13.76 11.021,13.98 Q11.24,14.199 11.24,14.51 Q11.24,14.821 11.021,15.04 Q10.801,15.26 10.49,15.26 L8.57,15.26 L8.57,17.18 Q8.57,17.491 8.351,17.71 Q8.131,17.93 7.82,17.93 Q7.51,17.93 7.29,17.71 Q7.07,17.491 7.07,17.18 Z"/>
  <path fill="#292D32" d="M16.93,6.82 L16.93,9.49 Q16.93,9.801 16.71,10.02 Q16.49,10.24 16.18,10.24 L13.51,10.24 Q13.199,10.24 12.979,10.02 Q12.76,9.801 12.76,9.49 Q12.76,9.179 12.979,8.96 Q13.199,8.74 13.51,8.74 L15.43,8.74 L15.43,6.82 Q15.43,6.509 15.649,6.29 Q15.869,6.07 16.18,6.07 Q16.49,6.07 16.71,6.29 Q16.93,6.509 16.93,6.82 Z"/>
  <path fill="#292D32" d="M4.6,6.449 Q2.75,8.922 2.75,12 Q2.75,15.829 5.46,18.54 Q8.171,21.25 12,21.25 Q15.829,21.25 18.54,18.54 Q21.25,15.829 21.25,12 Q21.25,8.171 18.54,5.46 Q15.829,2.75 12,2.75 Q10.031,2.75 8.276,3.535 Q7.993,3.661 7.702,3.551 Q7.412,3.44 7.285,3.156 Q7.159,2.873 7.269,2.582 Q7.38,2.292 7.664,2.165 Q9.711,1.25 12,1.25 Q16.451,1.25 19.6,4.4 Q22.75,7.549 22.75,12 Q22.75,16.451 19.6,19.6 Q16.451,22.75 12,22.75 Q7.549,22.75 4.4,19.6 Q1.25,16.451 1.25,12 Q1.25,8.422 3.4,5.551 Q3.586,5.302 3.893,5.258 Q4.201,5.213 4.449,5.4 Q4.698,5.586 4.742,5.893 Q4.787,6.201 4.6,6.449 Z"/>
</svg>

