<svg xmlns="http://www.w3.org/2000/svg" width="24" height="24" viewBox="0 0 24 24">
  <defs/>
  <path fill="#292D32" opacity="0.4" d="M16.19,2 L7.82,2 C4.17,2 2,4.17 2,7.81 L2,16.18 C2,19.82 4.17,21.99 7.81,21.99 L16.18,21.99 C19.82,21.99 21.99,19.82 21.99,16.18 L21.99,7.81 C22,4.17 19.83,2 16.19,2 Z"/>
  <path fill="#292D32" d="M12,6.51 C11.86,6.51 11.71,6.53 11.57,6.54 L11.85,6.22 C12.12,5.91 12.09,5.43 11.78,5.16 C11.47,4.89 10.99,4.92 10.72,5.23 L9.05,7.14 C9.04,7.15 9.04,7.16 9.03,7.17 C9.02,7.18 9.01,7.18 9.01,7.19 C8.99,7.22 8.98,7.26 8.96,7.3 C8.94,7.35 8.91,7.39 8.9,7.44 C8.89,7.49 8.89,7.53 8.88,7.58 C8.88,7.63 8.87,7.67 8.87,7.72 C8.87,7.77 8.89,7.81 8.91,7.86 C8.92,7.91 8.94,7.95 8.96,7.99 C8.98,8.03 9.02,8.07 9.05,8.11 C9.08,8.14 9.09,8.18 9.12,8.2 C9.13,8.21 9.14,8.21 9.15,8.22 C9.16,8.23 9.16,8.24 9.17,8.24 L11.11,9.66 C11.24,9.76 11.4,9.8 11.55,9.8 C11.78,9.8 12.01,9.69 12.16,9.49 C12.4,9.16 12.33,8.69 12,8.44 L11.44,8.03 C11.62,8.01 11.81,7.99 12,7.99 C14.34,7.99 16.25,9.9 16.25,12.24 C16.25,14.58 14.34,16.49 12,16.49 C9.66,16.49 7.75,14.58 7.75,12.24 C7.75,11.39 8,10.58 8.46,9.88 C8.69,9.54 8.6,9.07 8.25,8.84 C7.91,8.61 7.44,8.7 7.21,9.05 C6.58,10 6.24,11.1 6.24,12.24 C6.24,15.41 8.82,17.99 11.99,17.99 C15.16,17.99 17.74,15.41 17.74,12.24 C17.74,9.07 15.17,6.51 12,6.51 Z"/>
</svg>

