<svg xmlns="http://www.w3.org/2000/svg" width="24" height="24" viewBox="0 0 24 24">
  <defs/>
  <path fill="#292D32" d="M12,18.01 C8.83,18.01 6.25,15.43 6.25,12.26 C6.25,11.12 6.58,10.01 7.22,9.07 C7.45,8.73 7.92,8.63 8.26,8.86 C8.6,9.09 8.7,9.56 8.47,9.9 C8,10.6 7.76,11.42 7.76,12.26 C7.76,14.6 9.67,16.51 12.01,16.51 C14.35,16.51 16.26,14.6 16.26,12.26 C16.26,9.92 14.35,8.01 12.01,8.01 C11.51,8.01 11.03,8.08 10.56,8.22 C10.17,8.34 9.75,8.12 9.62,7.72 C9.5,7.32 9.72,6.9 10.12,6.78 C10.73,6.59 11.36,6.5 12.01,6.5 C15.18,6.5 17.76,9.08 17.76,12.25 C17.76,15.42 15.17,18.01 12,18.01 Z"/>
  <path fill="#292D32" d="M9.619,8.4 C9.449,8.4 9.269,8.34 9.129,8.22 C8.819,7.95 8.789,7.47 9.059,7.16 L10.729,5.25 C10.999,4.94 11.479,4.9 11.789,5.18 C12.099,5.45 12.129,5.93 11.859,6.24 L10.189,8.15 C10.029,8.31 9.829,8.4 9.619,8.4 Z"/>
  <path fill="#292D32" d="M11.56,9.82 C11.41,9.82 11.25,9.77 11.12,9.68 L9.18,8.26 C8.85,8.02 8.77,7.55 9.02,7.21 C9.26,6.88 9.73,6.8 10.07,7.05 L12.01,8.47 C12.34,8.71 12.42,9.18 12.17,9.52 C12.02,9.71 11.79,9.82 11.56,9.82 Z"/>
  <path fill="#292D32" d="M15,22.75 L9,22.75 C3.57,22.75 1.25,20.43 1.25,15 L1.25,9 C1.25,3.57 3.57,1.25 9,1.25 L15,1.25 C20.43,1.25 22.75,3.57 22.75,9 L22.75,15 C22.75,20.43 20.43,22.75 15,22.75 Z M9,2.75 C4.39,2.75 2.75,4.39 2.75,9 L2.75,15 C2.75,19.61 4.39,21.25 9,21.25 L15,21.25 C19.61,21.25 21.25,19.61 21.25,15 L21.25,9 C21.25,4.39 19.61,2.75 15,2.75 L9,2.75 Z"/>
</svg>

