<svg xmlns="http://www.w3.org/2000/svg" width="24" height="24" viewBox="0 0 24 24">
  <defs/>
  <path fill="#292D32" opacity="0.4" d="M16.19,2 L7.82,2 C4.17,2 2,4.17 2,7.81 L2,16.18 C2,19.82 4.17,21.99 7.81,21.99 L16.18,21.99 C19.82,21.99 21.99,19.82 21.99,16.18 L21.99,7.81 C22,4.17 19.83,2 16.19,2 Z"/>
  <path fill="#292D32" d="M16.78,9.07 C16.55,8.72 16.08,8.63 15.74,8.86 C15.4,9.09 15.3,9.56 15.53,9.9 C16,10.6 16.24,11.42 16.24,12.26 C16.24,14.6 14.33,16.51 11.99,16.51 C9.65,16.51 7.74,14.6 7.74,12.26 C7.74,9.92 9.65,8.01 11.99,8.01 C12.18,8.01 12.36,8.03 12.55,8.05 L12,8.46 C11.67,8.7 11.59,9.17 11.84,9.51 C11.99,9.71 12.22,9.82 12.45,9.82 C12.6,9.82 12.76,9.77 12.89,9.68 L14.83,8.26 C14.84,8.25 14.84,8.24 14.85,8.24 C14.86,8.23 14.87,8.23 14.88,8.22 C14.91,8.19 14.93,8.16 14.95,8.13 C14.98,8.09 15.02,8.06 15.04,8.01 C15.06,7.97 15.07,7.92 15.09,7.88 C15.1,7.83 15.12,7.79 15.13,7.74 C15.14,7.69 15.13,7.65 15.12,7.6 C15.12,7.55 15.12,7.51 15.1,7.46 C15.09,7.41 15.06,7.37 15.04,7.32 C15.02,7.29 15.02,7.25 14.99,7.21 C14.98,7.2 14.97,7.2 14.97,7.19 C14.96,7.18 14.96,7.17 14.95,7.16 L13.28,5.25 C13.01,4.94 12.53,4.9 12.22,5.18 C11.91,5.45 11.88,5.93 12.15,6.24 L12.43,6.56 C12.29,6.55 12.15,6.53 12,6.53 C8.83,6.53 6.25,9.11 6.25,12.28 C6.25,15.45 8.83,18.03 12,18.03 C15.17,18.03 17.75,15.45 17.75,12.28 C17.75,11.12 17.42,10.02 16.78,9.07 Z"/>
</svg>

