<svg xmlns="http://www.w3.org/2000/svg" width="24" height="24" viewBox="0 0 24 24">
  <defs/>
  <path fill="#292D32" d="M15,22.75 L9,22.75 C3.57,22.75 1.25,20.43 1.25,15 L1.25,9 C1.25,3.57 3.57,1.25 9,1.25 L15,1.25 C20.43,1.25 22.75,3.57 22.75,9 L22.75,15 C22.75,20.43 20.43,22.75 15,22.75 Z M9,2.75 C4.39,2.75 2.75,4.39 2.75,9 L2.75,15 C2.75,19.61 4.39,21.25 9,21.25 L15,21.25 C19.61,21.25 21.25,19.61 21.25,15 L21.25,9 C21.25,4.39 19.61,2.75 15,2.75 L9,2.75 Z"/>
  <path fill="#292D32" d="M12,18.01 C8.83,18.01 6.25,15.43 6.25,12.26 C6.25,9.09 8.83,6.51 12,6.51 C12.64,6.51 13.28,6.6 13.89,6.79 C14.29,6.91 14.51,7.33 14.39,7.73 C14.27,8.13 13.85,8.35 13.45,8.23 C12.99,8.09 12.5,8.02 12,8.02 C9.66,8.02 7.75,9.93 7.75,12.27 C7.75,14.61 9.66,16.52 12,16.52 C14.34,16.52 16.25,14.61 16.25,12.27 C16.25,11.42 16,10.61 15.54,9.91 C15.31,9.57 15.4,9.1 15.75,8.87 C16.09,8.64 16.56,8.73 16.79,9.08 C17.42,10.03 17.76,11.13 17.76,12.27 C17.75,15.44 15.17,18.01 12,18.01 Z"/>
  <path fill="#292D32" d="M14.381,8.4 C14.171,8.4 13.961,8.31 13.811,8.14 L12.141,6.23 C11.871,5.92 11.901,5.44 12.211,5.17 C12.521,4.9 13.001,4.93 13.271,5.24 L14.941,7.15 C15.211,7.46 15.181,7.94 14.871,8.21 C14.731,8.34 14.561,8.4 14.381,8.4 Z"/>
  <path fill="#292D32" d="M12.44,9.82 C12.21,9.82 11.98,9.71 11.83,9.51 C11.59,9.18 11.66,8.71 11.99,8.46 L13.93,7.04 C14.26,6.8 14.73,6.87 14.98,7.2 C15.22,7.53 15.15,8 14.82,8.25 L12.88,9.67 C12.75,9.77 12.59,9.82 12.44,9.82 Z"/>
</svg>

