<svg xmlns="http://www.w3.org/2000/svg" width="24" height="24" viewBox="0 0 24 24">
  <defs/>
  <path fill="#292D32" d="M16.19,2 L7.81,2 C4.17,2 2,4.17 2,7.81 L2,16.18 C2,19.83 4.17,22 7.81,22 L16.18,22 C19.82,22 21.99,19.83 21.99,16.19 L21.99,7.81 C22,4.17 19.83,2 16.19,2 Z M12,18.25 C10.21,18.25 8.81,17.36 7.86,16.48 L7.86,17.19 C7.86,17.6 7.52,17.94 7.11,17.94 C6.7,17.94 6.36,17.6 6.36,17.19 L6.36,14.44 C6.36,14.03 6.7,13.69 7.11,13.69 L9.59,13.69 C10,13.69 10.34,14.03 10.34,14.44 C10.34,14.85 10,15.19 9.59,15.19 L8.69,15.19 C9.43,15.93 10.58,16.75 12,16.75 C14.62,16.75 16.75,14.62 16.75,12 C16.75,11.59 17.09,11.25 17.5,11.25 C17.91,11.25 18.25,11.59 18.25,12 C18.25,15.45 15.45,18.25 12,18.25 Z M18.25,9.54 C18.25,9.57 18.25,9.6 18.25,9.62 C18.24,9.73 18.21,9.83 18.16,9.92 C18.11,10.01 18.04,10.09 17.95,10.16 C17.88,10.21 17.8,10.25 17.71,10.28 C17.64,10.3 17.57,10.31 17.5,10.31 L15.07,10.31 C14.66,10.31 14.32,9.97 14.32,9.56 C14.32,9.15 14.66,8.81 15.07,8.81 L15.9,8.81 C15.1,8.07 13.81,7.25 12.02,7.25 C9.4,7.25 7.27,9.38 7.27,12 C7.27,12.41 6.93,12.75 6.52,12.75 C6.11,12.75 5.75,12.41 5.75,12 C5.75,8.55 8.55,5.75 12,5.75 C14.15,5.75 15.73,6.68 16.75,7.57 L16.75,6.81 C16.75,6.4 17.09,6.06 17.5,6.06 C17.91,6.06 18.25,6.4 18.25,6.81 L18.25,9.54 Z"/>
</svg>

