<svg xmlns="http://www.w3.org/2000/svg" width="24" height="24" viewBox="0 0 24 24">
  <defs/>
  <path fill="#292D32" d="M16.19,2 L7.81,2 C4.17,2 2,4.17 2,7.81 L2,16.18 C2,19.83 4.17,22 7.81,22 L16.18,22 C19.82,22 21.99,19.83 21.99,16.19 L21.99,7.81 C22,4.17 19.83,2 16.19,2 Z M5.25,11.89 C5.28,10.13 5.98,8.47 7.22,7.23 C8.5,5.95 10.2,5.25 12,5.25 C13.8,5.25 15.5,5.95 16.77,7.23 C16.8,7.26 16.83,7.3 16.86,7.34 L16.86,6.48 C16.86,6.07 17.2,5.73 17.61,5.73 C18.02,5.73 18.36,6.07 18.36,6.48 L18.36,9.13 C18.36,9.54 18.02,9.88 17.61,9.88 L14.96,9.88 C14.55,9.88 14.21,9.54 14.21,9.13 C14.21,8.72 14.55,8.38 14.96,8.38 L15.79,8.38 C15.76,8.35 15.74,8.32 15.71,8.29 C14.72,7.3 13.4,6.75 12,6.75 C10.6,6.75 9.28,7.3 8.29,8.29 C7.32,9.26 6.78,10.55 6.76,11.92 C6.75,12.32 6.41,12.65 6,12.65 L5.99,12.65 C5.58,12.65 5.25,12.3 5.25,11.89 Z M16.77,16.77 C15.5,18.04 13.8,18.75 12,18.75 C10.2,18.75 8.5,18.05 7.23,16.77 C7.2,16.74 7.17,16.7 7.14,16.66 L7.14,17.51 C7.14,17.92 6.8,18.26 6.39,18.26 C5.98,18.26 5.64,17.92 5.64,17.51 L5.64,14.86 C5.64,14.45 5.98,14.11 6.39,14.11 L9.04,14.11 C9.45,14.11 9.79,14.45 9.79,14.86 C9.79,15.27 9.45,15.61 9.04,15.61 L8.21,15.61 C8.24,15.64 8.26,15.67 8.29,15.7 C9.28,16.69 10.6,17.24 12,17.24 C13.4,17.24 14.72,16.69 15.71,15.7 C16.69,14.72 17.24,13.41 17.24,12.01 C17.24,11.6 17.58,11.26 17.99,11.26 C18.4,11.26 18.74,11.6 18.74,12.01 C18.74,13.82 18.04,15.51 16.77,16.77 Z"/>
</svg>

