<svg xmlns="http://www.w3.org/2000/svg" width="24" height="24" viewBox="0 0 24 24">
  <defs/>
  <path fill="#292D32" d="M16.19,2 L7.81,2 C4.17,2 2,4.17 2,7.81 L2,16.18 C2,19.83 4.17,22 7.81,22 L16.18,22 C19.82,22 21.99,19.83 21.99,16.19 L21.99,7.81 C22,4.17 19.83,2 16.19,2 Z M12,18.01 C8.83,18.01 6.25,15.43 6.25,12.26 C6.25,11.12 6.58,10.01 7.22,9.07 C7.45,8.72 7.92,8.63 8.26,8.86 C8.6,9.09 8.7,9.56 8.46,9.9 C8,10.6 7.75,11.42 7.75,12.26 C7.75,14.6 9.66,16.51 12,16.51 C14.34,16.51 16.25,14.6 16.25,12.26 C16.25,9.92 14.34,8.01 12,8.01 C11.81,8.01 11.63,8.03 11.44,8.05 L12,8.46 C12.33,8.7 12.41,9.17 12.16,9.51 C12.01,9.71 11.78,9.82 11.55,9.82 C11.4,9.82 11.24,9.77 11.11,9.68 L9.17,8.25 C9.17,8.25 9.16,8.24 9.15,8.23 C9.14,8.22 9.13,8.22 9.12,8.21 C9.09,8.19 9.08,8.15 9.05,8.12 C9.02,8.08 8.99,8.05 8.96,8 C8.94,7.96 8.93,7.91 8.91,7.87 C8.9,7.82 8.88,7.78 8.88,7.73 C8.88,7.68 8.88,7.64 8.89,7.59 C8.89,7.54 8.89,7.5 8.91,7.45 C8.91,7.4 8.94,7.36 8.96,7.31 C8.98,7.28 8.98,7.24 9.01,7.2 C9.02,7.2 9.03,7.19 9.04,7.18 C9.05,7.17 9.05,7.16 9.06,7.15 L10.73,5.24 C11,4.93 11.48,4.89 11.79,5.17 C12.1,5.44 12.13,5.92 11.86,6.23 L11.58,6.55 C11.72,6.54 11.86,6.52 12.01,6.52 C15.18,6.52 17.76,9.1 17.76,12.27 C17.76,15.44 15.17,18.01 12,18.01 Z"/>
</svg>

