<svg xmlns="http://www.w3.org/2000/svg" width="24" height="24" viewBox="0 0 24 24">
  <defs/>
  <path fill="#292D32" d="M12,22.75 C6.07,22.75 1.25,17.93 1.25,12 C1.25,6.07 6.07,1.25 12,1.25 C17.93,1.25 22.75,6.07 22.75,12 C22.75,17.93 17.93,22.75 12,22.75 Z M12,2.75 C6.9,2.75 2.75,6.9 2.75,12 C2.75,17.1 6.9,21.25 12,21.25 C17.1,21.25 21.25,17.1 21.25,12 C21.25,6.9 17.1,2.75 12,2.75 Z"/>
  <path fill="#292D32" d="M11.999,17.47 C10.6,17.47 9.199,16.94 8.129,15.87 C7.849,15.59 7.599,15.28 7.369,14.91 C7.149,14.56 7.259,14.1 7.609,13.88 C7.959,13.66 8.419,13.77 8.639,14.12 C8.809,14.4 8.989,14.62 9.189,14.82 C10.739,16.37 13.259,16.37 14.809,14.82 C15.409,14.22 15.79,13.44 15.919,12.57 C15.979,12.16 16.359,11.86 16.769,11.93 C17.179,11.99 17.459,12.37 17.41,12.78 C17.239,13.97 16.709,15.04 15.88,15.88 C14.8,16.94 13.399,17.47 11.999,17.47 Z"/>
  <path fill="#292D32" d="M7.34,12.08 C7.3,12.08 7.27,12.08 7.23,12.07 C6.82,12.01 6.53,11.63 6.59,11.22 C6.76,10.03 7.29,8.96 8.12,8.12 C10.25,5.99 13.72,5.99 15.86,8.12 C16.14,8.4 16.39,8.71 16.62,9.09 C16.84,9.44 16.73,9.9 16.38,10.12 C16.03,10.34 15.57,10.23 15.35,9.88 C15.18,9.61 15,9.38 14.8,9.18 C13.25,7.63 10.73,7.63 9.18,9.18 C8.58,9.78 8.2,10.56 8.07,11.43 C8.03,11.81 7.71,12.08 7.34,12.08 Z"/>
  <path fill="#292D32" d="M7.82,17.93 C7.41,17.93 7.07,17.59 7.07,17.18 L7.07,14.51 C7.07,14.1 7.41,13.76 7.82,13.76 L10.49,13.76 C10.9,13.76 11.24,14.1 11.24,14.51 C11.24,14.92 10.9,15.26 10.49,15.26 L8.57,15.26 L8.57,17.18 C8.57,17.59 8.24,17.93 7.82,17.93 Z"/>
  <path fill="#292D32" d="M16.18,10.24 L13.51,10.24 C13.1,10.24 12.76,9.9 12.76,9.49 C12.76,9.08 13.1,8.74 13.51,8.74 L15.43,8.74 L15.43,6.82 C15.43,6.41 15.77,6.07 16.18,6.07 C16.59,6.07 16.93,6.41 16.93,6.82 L16.93,9.49 C16.93,9.91 16.59,10.24 16.18,10.24 Z"/>
</svg>

