<svg xmlns="http://www.w3.org/2000/svg" width="24" height="24" viewBox="0 0 24 24">
  <defs/>
  <path fill="#292D32" d="M14.55,22.42 C14.22,22.42 13.91,22.2 13.82,21.86 C13.72,21.46 13.95,21.05 14.35,20.94 C18.41,19.87 21.24,16.19 21.24,11.99 C21.24,6.89 17.09,2.74 11.99,2.74 C7.66,2.74 4.82,5.27 3.49,6.8 L6.43,6.8 C6.84,6.8 7.18,7.14 7.18,7.55 C7.18,7.96 6.86,8.31 6.44,8.31 L2.01,8.31 C1.94,8.31 1.87,8.3 1.8,8.28 C1.71,8.25 1.63,8.21 1.56,8.16 C1.47,8.1 1.4,8.02 1.35,7.93 C1.3,7.83 1.26,7.73 1.25,7.62 C1.25,7.59 1.25,7.57 1.25,7.54 L1.25,3 C1.25,2.59 1.59,2.25 2,2.25 C2.41,2.25 2.75,2.59 2.75,3 L2.75,5.39 C4.38,3.64 7.45,1.25 12,1.25 C17.93,1.25 22.75,6.07 22.75,12 C22.75,16.88 19.46,21.16 14.74,22.4 C14.68,22.41 14.61,22.42 14.55,22.42 Z"/>
  <path fill="#292D32" d="M11.29,22.73 C11.27,22.73 11.24,22.73 11.22,22.72 C10.15,22.65 9.1,22.41 8.1,22.02 C7.81,21.91 7.62,21.62 7.62,21.31 C7.62,21.22 7.64,21.13 7.67,21.05 C7.82,20.67 8.26,20.47 8.64,20.62 C9.5,20.96 10.41,21.16 11.33,21.23 L11.34,21.23 C11.74,21.25 12.04,21.59 12.04,21.99 C12.04,22 12.04,22.02 12.04,22.03 C12.01,22.42 11.68,22.73 11.29,22.73 Z M5.78,20.58 C5.61,20.58 5.45,20.53 5.31,20.42 C4.47,19.75 3.74,18.96 3.13,18.07 C3.04,17.94 2.99,17.8 2.99,17.65 C2.99,17.4 3.11,17.17 3.32,17.03 C3.65,16.8 4.14,16.89 4.36,17.22 C4.89,17.99 5.52,18.67 6.25,19.24 C6.42,19.38 6.53,19.59 6.53,19.82 C6.53,19.99 6.48,20.16 6.37,20.3 C6.23,20.48 6.01,20.58 5.78,20.58 Z M2.44,15.7 C2.11,15.7 1.82,15.49 1.73,15.18 C1.41,14.15 1.25,13.08 1.25,12 C1.25,11.59 1.59,11.25 2,11.25 C2.41,11.25 2.75,11.59 2.75,12 C2.75,12.93 2.89,13.85 3.16,14.73 C3.18,14.8 3.19,14.88 3.19,14.96 C3.19,15.29 2.98,15.57 2.67,15.67 C2.59,15.69 2.52,15.7 2.44,15.7 Z"/>
  <path fill="#292D32" d="M12,16 C14.209,16 16,14.209 16,12 C16,9.791 14.209,8 12,8 C9.791,8 8,9.791 8,12 C8,14.209 9.791,16 12,16 Z"/>
</svg>

