<svg xmlns="http://www.w3.org/2000/svg" width="24" height="24" viewBox="0 0 24 24">
  <defs/>
  <path fill="#292D32" d="M9,22.75 Q1.25,22.75 1.25,15 L1.25,9 Q1.25,1.25 9,1.25 L15,1.25 Q22.75,1.25 22.75,9 L22.75,15 Q22.75,22.75 15,22.75 Z M9,21.25 L15,21.25 Q18.439,21.25 19.845,19.845 Q21.25,18.439 21.25,15 L21.25,9 Q21.25,2.75 15,2.75 L9,2.75 Q2.75,2.75 2.75,9 L2.75,15 Q2.75,18.439 4.155,19.845 Q5.561,21.25 9,21.25 Z"/>
  <path fill="#292D32" opacity="0.4" d="M5.75,12 Q5.75,9.406 7.572,7.58 Q9.397,5.75 12,5.75 Q14.882,5.75 16.75,7.446 L16.75,6.81 Q16.75,6.499 16.97,6.28 Q17.189,6.06 17.5,6.06 Q17.811,6.06 18.03,6.28 Q18.25,6.499 18.25,6.81 L18.25,9.503 Q18.255,9.576 18.245,9.652 Q18.228,9.803 18.154,9.931 Q18.082,10.06 17.961,10.152 Q17.843,10.247 17.7,10.285 Q17.582,10.319 17.457,10.31 L15.06,10.31 Q14.749,10.31 14.53,10.09 Q14.31,9.871 14.31,9.56 Q14.31,9.249 14.53,9.03 Q14.749,8.81 15.06,8.81 L15.992,8.81 Q14.469,7.25 12,7.25 Q10.02,7.25 8.633,8.64 Q7.25,10.027 7.25,12 Q7.25,12.311 7.03,12.53 Q6.811,12.75 6.5,12.75 Q6.189,12.75 5.97,12.53 Q5.75,12.311 5.75,12 Z M18.25,12 Q18.25,14.591 16.42,16.42 Q14.591,18.25 12,18.25 Q9.593,18.25 7.86,16.597 L7.86,17.19 Q7.86,17.501 7.64,17.72 Q7.421,17.94 7.11,17.94 Q6.799,17.94 6.58,17.72 Q6.36,17.501 6.36,17.19 L6.36,14.497 Q6.355,14.424 6.365,14.35 Q6.382,14.198 6.455,14.071 Q6.526,13.942 6.647,13.849 Q6.766,13.754 6.908,13.716 Q7.027,13.681 7.152,13.69 L9.59,13.69 Q9.901,13.69 10.12,13.91 Q10.34,14.129 10.34,14.44 Q10.34,14.751 10.12,14.97 Q9.901,15.19 9.59,15.19 L8.59,15.19 Q10.01,16.75 12,16.75 Q13.969,16.75 15.36,15.36 Q16.75,13.969 16.75,12 Q16.75,11.689 16.97,11.47 Q17.189,11.25 17.5,11.25 Q17.811,11.25 18.03,11.47 Q18.25,11.689 18.25,12 Z"/>
</svg>

