<svg xmlns="http://www.w3.org/2000/svg" width="24" height="24" viewBox="0 0 24 24">
  <defs/>
  <path fill="#292D32" d="M7.5,7.59 L14.9,7.59 Q17.25,7.59 17.25,9.94 L17.25,11.71 Q17.25,12.02 17.03,12.24 Q16.811,12.46 16.5,12.46 Q16.189,12.46 15.97,12.24 Q15.75,12.02 15.75,11.71 L15.75,9.94 Q15.75,9.09 14.9,9.09 L7.5,9.09 Q7.189,9.09 6.97,8.87 Q6.75,8.65 6.75,8.34 Q6.75,8.029 6.97,7.81 Q7.189,7.59 7.5,7.59 Z"/>
  <path fill="#292D32" d="M9.719,7.192 L8.562,8.342 L9.72,9.5 Q9.94,9.719 9.94,10.03 Q9.94,10.341 9.72,10.56 Q9.501,10.78 9.19,10.78 Q8.879,10.78 8.66,10.56 L6.97,8.87 Q6.969,8.87 6.968,8.869 Q6.749,8.648 6.75,8.338 Q6.751,8.027 6.971,7.808 L8.661,6.128 Q8.882,5.909 9.192,5.91 Q9.503,5.911 9.722,6.131 Q9.941,6.351 9.94,6.662 Q9.939,6.973 9.719,7.192 Z"/>
  <path fill="#292D32" d="M16.5,16.41 L9.1,16.41 Q6.75,16.41 6.75,14.06 L6.75,12.29 Q6.75,11.979 6.97,11.76 Q7.189,11.54 7.5,11.54 Q7.811,11.54 8.03,11.76 Q8.25,11.979 8.25,12.29 L8.25,14.06 Q8.25,14.91 9.1,14.91 L16.5,14.91 Q16.811,14.91 17.03,15.13 Q17.25,15.349 17.25,15.66 Q17.25,15.971 17.03,16.19 Q16.811,16.41 16.5,16.41 Z"/>
  <path fill="#292D32" d="M14.282,16.808 L15.438,15.658 L14.28,14.5 Q14.061,14.281 14.061,13.97 Q14.061,13.659 14.28,13.44 Q14.5,13.22 14.81,13.22 Q15.121,13.22 15.341,13.44 L17.031,15.13 L17.032,15.131 Q17.251,15.352 17.25,15.662 Q17.25,15.973 17.029,16.192 L15.339,17.872 Q15.119,18.091 14.808,18.09 Q14.498,18.089 14.279,17.869 Q14.06,17.648 14.061,17.338 Q14.061,17.027 14.282,16.808 Z"/>
  <path fill="#292D32" d="M4.6,6.449 Q2.75,8.922 2.75,12 Q2.75,15.829 5.46,18.54 Q8.171,21.25 12,21.25 Q15.829,21.25 18.54,18.54 Q21.25,15.829 21.25,12 Q21.25,8.171 18.54,5.46 Q15.829,2.75 12,2.75 Q10.031,2.75 8.276,3.535 Q7.993,3.661 7.702,3.551 Q7.412,3.44 7.285,3.156 Q7.159,2.873 7.269,2.582 Q7.38,2.292 7.664,2.165 Q9.711,1.25 12,1.25 Q16.451,1.25 19.6,4.4 Q22.75,7.549 22.75,12 Q22.75,16.451 19.6,19.6 Q16.451,22.75 12,22.75 Q7.549,22.75 4.4,19.6 Q1.25,16.451 1.25,12 Q1.25,8.422 3.4,5.551 Q3.586,5.302 3.893,5.258 Q4.201,5.213 4.449,5.4 Q4.698,5.586 4.742,5.893 Q4.787,6.201 4.6,6.449 Z"/>
</svg>

