<svg xmlns="http://www.w3.org/2000/svg" width="24" height="24" viewBox="0 0 24 24">
  <defs/>
  <path fill="#292D32" d="M3.91,17.181 C3.72,17.181 3.53,17.111 3.38,16.961 C2.01,15.581 1.25,13.761 1.25,11.831 C1.25,7.821 4.5,4.561 8.5,4.561 L14.57,4.581 L13.48,3.541 C13.18,3.251 13.17,2.781 13.46,2.481 C13.75,2.181 14.22,2.171 14.52,2.461 L16.96,4.801 C17.18,5.011 17.25,5.341 17.14,5.621 C17.03,5.901 16.75,6.091 16.44,6.091 L8.5,6.071 C5.33,6.071 2.75,8.661 2.75,11.841 C2.75,13.371 3.35,14.821 4.44,15.911 C4.73,16.201 4.73,16.681 4.44,16.971 C4.29,17.111 4.1,17.181 3.91,17.181 Z"/>
  <path fill="#292D32" d="M10,21.75 C9.81,21.75 9.63,21.68 9.48,21.54 L7.04,19.2 C6.82,18.99 6.75,18.66 6.86,18.38 C6.97,18.1 7.25,17.91 7.56,17.91 L15.51,17.93 C18.68,17.93 21.26,15.34 21.26,12.16 C21.26,10.63 20.66,9.18 19.57,8.09 C19.28,7.8 19.28,7.32 19.57,7.03 C19.86,6.74 20.34,6.74 20.63,7.03 C22,8.41 22.76,10.23 22.76,12.16 C22.76,16.17 19.51,19.43 15.51,19.43 L9.44,19.41 L10.53,20.45 C10.83,20.74 10.84,21.21 10.55,21.51 C10.39,21.67 10.2,21.75 10,21.75 Z"/>
  <path fill="#292D32" d="M9,15.5 L15,15.5 C16.92,15.5 18.5,13.93 18.5,12 C18.5,10.08 16.93,8.5 15,8.5 L9,8.5 C7.08,8.5 5.5,10.07 5.5,12 C5.5,13.93 7.07,15.5 9,15.5 Z"/>
</svg>

