<svg xmlns="http://www.w3.org/2000/svg" width="24" height="24" viewBox="0 0 24 24">
  <defs/>
  <path fill="#292D32" d="M20.42,12.22 C20.01,12.22 19.67,11.88 19.67,11.47 L19.67,8.15 C19.67,6.91 18.66,5.9 17.42,5.9 L3.58,5.9 C3.17,5.9 2.83,5.56 2.83,5.15 C2.83,4.74 3.17,4.4 3.58,4.4 L17.42,4.4 C19.49,4.4 21.17,6.08 21.17,8.15 L21.17,11.47 C21.17,11.89 20.83,12.22 20.42,12.22 Z"/>
  <path fill="#292D32" d="M6.74,9.07 C6.55,9.07 6.36,9 6.21,8.85 L3.05,5.69 C2.91,5.55 2.83,5.36 2.83,5.16 C2.83,4.96 2.91,4.77 3.05,4.63 L6.21,1.47 C6.5,1.18 6.98,1.18 7.27,1.47 C7.56,1.76 7.56,2.24 7.27,2.53 L4.64,5.16 L7.27,7.79 C7.56,8.08 7.56,8.56 7.27,8.85 C7.12,8.99 6.93,9.07 6.74,9.07 Z"/>
  <path fill="#292D32" d="M20.42,19.59 L6.58,19.59 C4.51,19.59 2.83,17.91 2.83,15.84 L2.83,12.52 C2.83,12.11 3.17,11.77 3.58,11.77 C3.99,11.77 4.33,12.11 4.33,12.52 L4.33,15.84 C4.33,17.08 5.34,18.09 6.58,18.09 L20.42,18.09 C20.83,18.09 21.17,18.43 21.17,18.84 C21.17,19.25 20.83,19.59 20.42,19.59 Z"/>
  <path fill="#292D32" d="M17.259,22.75 C17.069,22.75 16.879,22.68 16.729,22.53 C16.439,22.24 16.439,21.76 16.729,21.47 L19.359,18.84 L16.729,16.21 C16.439,15.92 16.439,15.44 16.729,15.15 C17.019,14.86 17.499,14.86 17.789,15.15 L20.949,18.31 C21.089,18.45 21.169,18.64 21.169,18.84 C21.169,19.04 21.089,19.23 20.949,19.37 L17.789,22.53 C17.649,22.68 17.459,22.75 17.259,22.75 Z"/>
</svg>

