<svg xmlns="http://www.w3.org/2000/svg" width="24" height="24" viewBox="0 0 24 24">
  <defs/>
  <path fill="#292D32" d="M17.418,4.411 L5.388,4.411 L7.268,2.531 C7.558,2.241 7.558,1.761 7.268,1.471 C6.978,1.181 6.498,1.181 6.208,1.471 L3.048,4.631 C2.978,4.701 2.928,4.781 2.888,4.871 C2.848,4.961 2.828,5.061 2.828,5.161 C2.828,5.261 2.848,5.361 2.888,5.451 C2.928,5.541 2.978,5.621 3.048,5.691 L6.208,8.851 C6.358,9.001 6.548,9.071 6.738,9.071 C6.928,9.071 7.118,9.001 7.268,8.851 C7.558,8.561 7.558,8.081 7.268,7.791 L5.388,5.911 L17.418,5.911 C18.658,5.911 19.668,6.921 19.668,8.161 L19.668,11.481 C19.668,11.891 20.008,12.231 20.418,12.231 C20.828,12.231 21.168,11.891 21.168,11.481 L21.168,8.161 C21.168,6.091 19.488,4.411 17.418,4.411 Z"/>
  <path fill="#292D32" d="M21.168,18.84 C21.168,18.739 21.148,18.64 21.108,18.549 C21.068,18.459 21.018,18.38 20.948,18.309 L17.788,15.149 C17.498,14.86 17.018,14.86 16.728,15.149 C16.438,15.44 16.438,15.919 16.728,16.209 L18.608,18.09 L6.578,18.09 C5.338,18.09 4.328,17.079 4.328,15.839 L4.328,12.52 C4.328,12.11 3.988,11.77 3.578,11.77 C3.168,11.77 2.828,12.11 2.828,12.52 L2.828,15.839 C2.828,17.91 4.508,19.59 6.578,19.59 L18.608,19.59 L16.728,21.47 C16.438,21.759 16.438,22.239 16.728,22.529 C16.878,22.68 17.068,22.75 17.258,22.75 C17.448,22.75 17.638,22.68 17.788,22.529 L20.948,19.369 C21.018,19.299 21.068,19.22 21.108,19.13 C21.148,19.04 21.168,18.939 21.168,18.84 Z"/>
</svg>

