<svg xmlns="http://www.w3.org/2000/svg" width="24" height="24" viewBox="0 0 24 24">
  <defs/>
  <path fill="#292D32" d="M9.481,21.541 L7.041,19.201 Q6.817,18.986 6.811,18.676 Q6.804,18.365 7.019,18.141 Q7.241,17.909 7.562,17.91 L15.512,17.93 Q17.878,17.93 19.568,16.237 Q21.261,14.541 21.26,12.16 Q21.261,9.781 19.57,8.09 Q19.351,7.871 19.351,7.56 Q19.351,7.249 19.57,7.03 Q19.79,6.81 20.101,6.81 Q20.411,6.81 20.631,7.03 Q22.761,9.159 22.761,12.16 Q22.761,15.161 20.63,17.296 Q18.501,19.43 15.509,19.43 L9.431,19.415 L10.52,20.459 Q10.744,20.674 10.75,20.984 Q10.757,21.295 10.542,21.519 Q10.327,21.743 10.016,21.75 Q9.706,21.756 9.481,21.541 Z"/>
  <path fill="#292D32" d="M9,11.25 L15,11.25 Q15.311,11.25 15.53,11.47 Q15.75,11.689 15.75,12 Q15.75,12.311 15.53,12.53 Q15.311,12.75 15,12.75 L9,12.75 Q8.689,12.75 8.47,12.53 Q8.25,12.311 8.25,12 Q8.25,11.689 8.47,11.47 Q8.689,11.25 9,11.25 Z"/>
  <path fill="#292D32" d="M8.561,5.73 Q6.193,5.73 4.503,7.424 Q2.811,9.119 2.811,11.5 Q2.811,13.879 4.501,15.57 Q4.721,15.789 4.721,16.1 Q4.721,16.411 4.501,16.63 Q4.281,16.85 3.971,16.85 Q3.66,16.85 3.44,16.63 Q1.311,14.501 1.311,11.5 Q1.311,8.499 3.441,6.364 Q5.57,4.23 8.561,4.23 Q8.871,4.23 9.091,4.45 Q9.311,4.669 9.311,4.98 Q9.311,5.291 9.091,5.51 Q8.871,5.73 8.561,5.73 Z"/>
  <path fill="#292D32" d="M14.579,2.119 L17.019,4.459 Q17.244,4.674 17.25,4.984 Q17.257,5.295 17.042,5.519 Q16.819,5.751 16.498,5.75 L12.988,5.74 Q12.677,5.739 12.458,5.519 Q12.239,5.298 12.24,4.988 Q12.241,4.677 12.461,4.458 Q12.682,4.239 12.992,4.24 L14.629,4.245 L13.541,3.201 Q13.317,2.986 13.31,2.676 Q13.304,2.365 13.519,2.141 Q13.734,1.917 14.045,1.91 Q14.355,1.904 14.579,2.119 Z"/>
</svg>

