<svg xmlns="http://www.w3.org/2000/svg" width="24" height="24" viewBox="0 0 24 24">
  <defs/>
  <path fill="#292D32" d="M16.5,12.47 C16.09,12.47 15.75,12.13 15.75,11.72 L15.75,9.95 C15.75,9.48 15.37,9.1 14.9,9.1 L7.5,9.1 C7.09,9.1 6.75,8.76 6.75,8.35 C6.75,7.94 7.09,7.6 7.5,7.6 L14.9,7.6 C16.2,7.6 17.25,8.66 17.25,9.95 L17.25,11.72 C17.25,12.13 16.91,12.47 16.5,12.47 Z"/>
  <path fill="#292D32" d="M9.189,10.78 C8.999,10.78 8.809,10.71 8.659,10.56 L6.969,8.87 C6.679,8.58 6.679,8.1 6.969,7.81 L8.659,6.12 C8.949,5.83 9.429,5.83 9.719,6.12 C10.009,6.41 10.009,6.89 9.719,7.18 L8.559,8.34 L9.719,9.5 C10.009,9.79 10.009,10.27 9.719,10.56 C9.569,10.71 9.379,10.78 9.189,10.78 Z"/>
  <path fill="#292D32" d="M16.5,16.41 L9.1,16.41 C7.8,16.41 6.75,15.35 6.75,14.06 L6.75,12.29 C6.75,11.88 7.09,11.54 7.5,11.54 C7.91,11.54 8.25,11.88 8.25,12.29 L8.25,14.06 C8.25,14.53 8.63,14.91 9.1,14.91 L16.5,14.91 C16.91,14.91 17.25,15.25 17.25,15.66 C17.25,16.07 16.91,16.41 16.5,16.41 Z"/>
  <path fill="#292D32" d="M14.81,18.09 C14.62,18.09 14.43,18.02 14.28,17.87 C13.99,17.58 13.99,17.1 14.28,16.81 L15.44,15.65 L14.28,14.49 C13.99,14.2 13.99,13.72 14.28,13.43 C14.57,13.14 15.05,13.14 15.34,13.43 L17.03,15.12 C17.32,15.41 17.32,15.89 17.03,16.18 L15.34,17.87 C15.2,18.02 15,18.09 14.81,18.09 Z"/>
  <path fill="#292D32" d="M12,22.75 C6.07,22.75 1.25,17.93 1.25,12 C1.25,6.07 6.07,1.25 12,1.25 C17.93,1.25 22.75,6.07 22.75,12 C22.75,17.93 17.93,22.75 12,22.75 Z M12,2.75 C6.9,2.75 2.75,6.9 2.75,12 C2.75,17.1 6.9,21.25 12,21.25 C17.1,21.25 21.25,17.1 21.25,12 C21.25,6.9 17.1,2.75 12,2.75 Z"/>
</svg>

