<svg xmlns="http://www.w3.org/2000/svg" width="24" height="24" viewBox="0 0 24 24">
  <defs/>
  <path fill="#292D32" opacity="0.4" d="M3.91,17.18 C3.72,17.18 3.53,17.11 3.38,16.96 C2.01,15.58 1.25,13.76 1.25,11.83 C1.25,7.82 4.5,4.56 8.5,4.56 L14.57,4.58 L13.48,3.54 C13.18,3.25 13.17,2.78 13.46,2.48 C13.75,2.18 14.22,2.17 14.52,2.46 L16.96,4.8 C17.18,5.01 17.25,5.34 17.14,5.62 C17.03,5.9 16.75,6.09 16.44,6.09 L8.49,6.07 C5.32,6.07 2.74,8.66 2.74,11.84 C2.74,13.37 3.34,14.82 4.43,15.91 C4.72,16.2 4.72,16.68 4.43,16.97 C4.29,17.11 4.1,17.18 3.91,17.18 Z"/>
  <path fill="#292D32" opacity="0.4" d="M10,21.75 C9.81,21.75 9.63,21.68 9.48,21.54 L7.04,19.2 C6.82,18.99 6.75,18.66 6.86,18.38 C6.98,18.1 7.26,17.95 7.56,17.91 L15.51,17.93 C18.68,17.93 21.26,15.34 21.26,12.16 C21.26,10.63 20.66,9.18 19.57,8.09 C19.28,7.8 19.28,7.32 19.57,7.03 C19.86,6.74 20.34,6.74 20.63,7.03 C22,8.41 22.76,10.23 22.76,12.16 C22.76,16.17 19.51,19.43 15.51,19.43 L9.44,19.41 L10.53,20.45 C10.83,20.74 10.84,21.21 10.55,21.51 C10.39,21.67 10.2,21.75 10,21.75 Z"/>
  <path fill="#292D32" d="M12.251,15.42 C11.841,15.42 11.501,15.08 11.501,14.67 L11.501,11.28 L11.31,11.49 C11.03,11.8 10.56,11.82 10.251,11.55 C9.94,11.28 9.92,10.8 10.191,10.49 L11.691,8.82 C11.9,8.59 12.23,8.51 12.521,8.62 C12.81,8.73 13.001,9.01 13.001,9.32 L13.001,14.67 C13.001,15.09 12.661,15.42 12.251,15.42 Z"/>
</svg>

