<svg xmlns="http://www.w3.org/2000/svg" width="24" height="24" viewBox="0 0 24 24">
  <defs/>
  <path fill="#292D32" d="M12,2 C6.48,2 2,6.48 2,12 C2,17.52 6.48,22 12,22 C17.52,22 22,17.52 22,12 C22,6.48 17.52,2 12,2 Z M17.19,15.94 C17.15,16.03 17.1,16.11 17.03,16.18 L15.34,17.87 C15.19,18.02 15,18.09 14.81,18.09 C14.62,18.09 14.43,18.02 14.28,17.87 C13.99,17.58 13.99,17.1 14.28,16.81 L14.69,16.4 L9.1,16.4 C7.8,16.4 6.75,15.34 6.75,14.05 L6.75,12.28 C6.75,11.87 7.09,11.53 7.5,11.53 C7.91,11.53 8.25,11.87 8.25,12.28 L8.25,14.05 C8.25,14.52 8.63,14.9 9.1,14.9 L14.69,14.9 L14.28,14.49 C13.99,14.2 13.99,13.72 14.28,13.43 C14.57,13.14 15.05,13.14 15.34,13.43 L17.03,15.12 C17.1,15.19 17.15,15.27 17.19,15.36 C17.27,15.55 17.27,15.76 17.19,15.94 Z M17.25,11.72 C17.25,12.13 16.91,12.47 16.5,12.47 C16.09,12.47 15.75,12.13 15.75,11.72 L15.75,9.95 C15.75,9.48 15.37,9.1 14.9,9.1 L9.31,9.1 L9.72,9.5 C10.01,9.79 10.01,10.27 9.72,10.56 C9.57,10.71 9.38,10.78 9.19,10.78 C9,10.78 8.81,10.71 8.66,10.56 L6.97,8.87 C6.9,8.8 6.85,8.72 6.81,8.63 C6.73,8.45 6.73,8.24 6.81,8.06 C6.85,7.97 6.9,7.88 6.97,7.81 L8.66,6.12 C8.95,5.83 9.43,5.83 9.72,6.12 C10.01,6.41 10.01,6.89 9.72,7.18 L9.31,7.59 L14.9,7.59 C16.2,7.59 17.25,8.65 17.25,9.94 L17.25,11.72 Z"/>
</svg>

