<svg xmlns="http://www.w3.org/2000/svg" width="24" height="24" viewBox="0 0 24 24">
  <defs/>
  <path fill="#292D32" d="M17.42,4.41 L5.39,4.41 L7.27,2.53 C7.56,2.24 7.56,1.76 7.27,1.47 C6.98,1.18 6.5,1.18 6.21,1.47 L3.05,4.63 C2.98,4.7 2.93,4.78 2.89,4.87 C2.85,4.96 2.83,5.06 2.83,5.16 C2.83,5.26 2.85,5.36 2.89,5.45 C2.93,5.54 2.98,5.62 3.05,5.69 L6.21,8.85 C6.36,9 6.55,9.07 6.74,9.07 C6.93,9.07 7.12,9 7.27,8.85 C7.56,8.56 7.56,8.08 7.27,7.79 L5.39,5.91 L17.42,5.91 C18.66,5.91 19.67,6.92 19.67,8.16 L19.67,11.48 C19.67,11.89 20.01,12.23 20.42,12.23 C20.83,12.23 21.17,11.89 21.17,11.48 L21.17,8.16 C21.17,6.09 19.49,4.41 17.42,4.41 Z"/>
  <path fill="#292D32" opacity="0.4" d="M21.17,18.84 C21.17,18.74 21.15,18.64 21.11,18.55 C21.07,18.46 21.02,18.38 20.95,18.31 L17.79,15.15 C17.5,14.86 17.02,14.86 16.73,15.15 C16.44,15.44 16.44,15.92 16.73,16.21 L18.61,18.09 L6.58,18.09 C5.34,18.09 4.33,17.08 4.33,15.84 L4.33,12.52 C4.33,12.11 3.99,11.77 3.58,11.77 C3.17,11.77 2.83,12.11 2.83,12.52 L2.83,15.84 C2.83,17.91 4.51,19.59 6.58,19.59 L18.61,19.59 L16.73,21.47 C16.44,21.76 16.44,22.24 16.73,22.53 C16.88,22.68 17.07,22.75 17.26,22.75 C17.45,22.75 17.64,22.68 17.79,22.53 L20.95,19.37 C21.02,19.3 21.07,19.22 21.11,19.13 C21.15,19.04 21.17,18.94 21.17,18.84 Z"/>
</svg>

