<svg xmlns="http://www.w3.org/2000/svg" width="24" height="24" viewBox="0 0 24 24">
  <defs/>
  <path fill="#292D32" opacity="0.4" d="M12,22 C17.523,22 22,17.523 22,12 C22,6.477 17.523,2 12,2 C6.477,2 2,6.477 2,12 C2,17.523 6.477,22 12,22 Z"/>
  <path fill="#292D32" d="M14.9,7.59 L9.31,7.59 L9.72,7.18 C10.01,6.89 10.01,6.41 9.72,6.12 C9.43,5.83 8.95,5.83 8.66,6.12 L6.97,7.81 C6.9,7.88 6.85,7.96 6.81,8.05 C6.73,8.23 6.73,8.44 6.81,8.62 C6.85,8.71 6.9,8.79 6.97,8.86 L8.66,10.55 C8.81,10.7 9,10.77 9.19,10.77 C9.38,10.77 9.57,10.7 9.72,10.55 C10.01,10.26 10.01,9.78 9.72,9.49 L9.31,9.08 L14.9,9.08 C15.37,9.08 15.75,9.46 15.75,9.93 L15.75,11.7 C15.75,12.11 16.09,12.45 16.5,12.45 C16.91,12.45 17.25,12.11 17.25,11.7 L17.25,9.93 C17.25,8.65 16.19,7.59 14.9,7.59 Z"/>
  <path fill="#292D32" d="M17.19,15.37 C17.15,15.28 17.1,15.2 17.03,15.13 L15.34,13.44 C15.05,13.15 14.57,13.15 14.28,13.44 C13.99,13.73 13.99,14.21 14.28,14.5 L14.69,14.91 L9.1,14.91 C8.63,14.91 8.25,14.53 8.25,14.06 L8.25,12.29 C8.25,11.88 7.91,11.54 7.5,11.54 C7.09,11.54 6.75,11.88 6.75,12.29 L6.75,14.06 C6.75,15.36 7.81,16.41 9.1,16.41 L14.69,16.41 L14.28,16.82 C13.99,17.11 13.99,17.59 14.28,17.88 C14.43,18.03 14.62,18.1 14.81,18.1 C15,18.1 15.19,18.03 15.34,17.88 L17.03,16.19 C17.1,16.12 17.15,16.04 17.19,15.95 C17.27,15.76 17.27,15.55 17.19,15.37 Z"/>
</svg>

