<svg xmlns="http://www.w3.org/2000/svg" width="24" height="24" viewBox="0 0 24 24">
  <defs/>
  <path fill="#292D32" d="M3.91,17.18 C3.72,17.18 3.53,17.11 3.38,16.96 C2.01,15.58 1.25,13.76 1.25,11.83 C1.25,7.82 4.5,4.56 8.5,4.56 L14.57,4.58 L13.48,3.54 C13.18,3.25 13.17,2.78 13.46,2.48 C13.75,2.18 14.22,2.17 14.52,2.46 L16.96,4.8 C17.18,5.01 17.25,5.34 17.14,5.62 C17.03,5.9 16.75,6.09 16.44,6.09 L8.49,6.07 C5.32,6.07 2.74,8.66 2.74,11.84 C2.74,13.37 3.34,14.82 4.43,15.91 C4.72,16.2 4.72,16.68 4.43,16.97 C4.29,17.11 4.1,17.18 3.91,17.18 Z"/>
  <path fill="#292D32" d="M10,21.75 C9.81,21.75 9.63,21.68 9.48,21.54 L7.04,19.2 C6.82,18.99 6.75,18.66 6.86,18.38 C6.97,18.1 7.25,17.91 7.56,17.91 L15.51,17.93 C18.68,17.93 21.26,15.34 21.26,12.16 C21.26,10.63 20.66,9.18 19.57,8.09 C19.28,7.8 19.28,7.32 19.57,7.03 C19.86,6.74 20.34,6.74 20.63,7.03 C22,8.41 22.76,10.23 22.76,12.16 C22.76,16.17 19.51,19.43 15.51,19.43 L9.44,19.41 L10.53,20.45 C10.83,20.74 10.84,21.21 10.55,21.51 C10.39,21.67 10.2,21.75 10,21.75 Z"/>
  <path fill="#292D32" d="M15,12.75 L9,12.75 C8.59,12.75 8.25,12.41 8.25,12 C8.25,11.59 8.59,11.25 9,11.25 L15,11.25 C15.41,11.25 15.75,11.59 15.75,12 C15.75,12.41 15.41,12.75 15,12.75 Z"/>
</svg>

