<svg xmlns="http://www.w3.org/2000/svg" width="24" height="24" viewBox="0 0 24 24">
  <defs/>
  <path fill="#292D32" d="M17.42,4.41 Q21.17,4.41 21.17,8.16 L21.17,11.48 Q21.17,11.791 20.95,12.01 Q20.731,12.23 20.42,12.23 Q20.109,12.23 19.89,12.01 Q19.67,11.791 19.67,11.48 L19.67,8.16 Q19.67,7.226 19.012,6.568 Q18.354,5.91 17.42,5.91 Q17.109,5.91 16.89,5.69 Q16.67,5.471 16.67,5.16 Q16.67,4.849 16.89,4.63 Q17.109,4.41 17.42,4.41 Z"/>
  <path fill="#292D32" d="M3.58,4.41 L12.99,4.41 Q13.301,4.41 13.52,4.63 Q13.74,4.849 13.74,5.16 Q13.74,5.471 13.52,5.69 Q13.301,5.91 12.99,5.91 L3.58,5.91 Q3.269,5.91 3.05,5.69 Q2.83,5.471 2.83,5.16 Q2.83,4.849 3.05,4.63 Q3.269,4.41 3.58,4.41 Z"/>
  <path fill="#292D32" d="M7.27,2.53 L4.641,5.16 L7.27,7.79 Q7.49,8.009 7.49,8.32 Q7.49,8.631 7.27,8.85 Q7.051,9.07 6.74,9.07 Q6.429,9.07 6.21,8.85 L3.05,5.69 Q2.83,5.471 2.83,5.16 Q2.83,4.849 3.05,4.63 L6.21,1.47 Q6.429,1.25 6.74,1.25 Q7.051,1.25 7.27,1.47 Q7.49,1.689 7.49,2 Q7.49,2.311 7.27,2.53 Z"/>
  <path fill="#292D32" d="M20.42,19.59 L6.58,19.59 Q2.83,19.59 2.83,15.84 L2.83,12.52 Q2.83,12.209 3.05,11.99 Q3.269,11.77 3.58,11.77 Q3.891,11.77 4.11,11.99 Q4.33,12.209 4.33,12.52 L4.33,15.84 Q4.33,18.09 6.58,18.09 L20.42,18.09 Q20.731,18.09 20.95,18.31 Q21.17,18.529 21.17,18.84 Q21.17,19.151 20.95,19.37 Q20.731,19.59 20.42,19.59 Z"/>
  <path fill="#292D32" d="M16.729,21.47 L19.359,18.84 L16.729,16.21 Q16.51,15.991 16.51,15.68 Q16.51,15.369 16.729,15.15 Q16.949,14.93 17.26,14.93 Q17.57,14.93 17.79,15.15 L20.95,18.31 Q21.17,18.529 21.17,18.84 Q21.17,19.151 20.95,19.37 L17.79,22.53 Q17.57,22.75 17.26,22.75 Q16.949,22.75 16.729,22.53 Q16.51,22.311 16.51,22 Q16.51,21.689 16.729,21.47 Z"/>
</svg>

