<svg xmlns="http://www.w3.org/2000/svg" width="24" height="24" viewBox="0 0 24 24">
  <defs/>
  <path fill="#292D32" d="M14.519,2.459 L16.959,4.799 Q17.184,5.014 17.19,5.324 Q17.197,5.635 16.982,5.859 Q16.759,6.091 16.438,6.09 L8.488,6.07 Q6.122,6.07 4.432,7.764 Q2.74,9.459 2.74,11.84 Q2.74,14.219 4.431,15.91 Q4.65,16.129 4.65,16.44 Q4.65,16.751 4.431,16.97 Q4.211,17.19 3.9,17.19 Q3.59,17.19 3.37,16.97 Q1.24,14.841 1.24,11.84 Q1.24,8.839 3.371,6.704 Q5.5,4.57 8.492,4.57 L14.57,4.585 L13.481,3.541 Q13.257,3.326 13.25,3.016 Q13.244,2.705 13.459,2.481 Q13.674,2.257 13.985,2.25 Q14.295,2.244 14.519,2.459 Z"/>
  <path fill="#292D32" d="M9.481,21.541 L7.041,19.201 Q6.817,18.986 6.811,18.676 Q6.804,18.365 7.019,18.141 Q7.241,17.909 7.562,17.91 L15.512,17.93 Q17.879,17.93 19.568,16.237 Q21.261,14.541 21.261,12.16 Q21.261,9.781 19.57,8.09 Q19.351,7.871 19.351,7.56 Q19.351,7.249 19.57,7.03 Q19.79,6.81 20.101,6.81 Q20.411,6.81 20.631,7.03 Q22.761,9.159 22.761,12.16 Q22.761,15.161 20.63,17.296 Q18.501,19.43 15.509,19.43 L9.431,19.415 L10.52,20.459 Q10.744,20.674 10.75,20.984 Q10.757,21.295 10.542,21.519 Q10.327,21.743 10.016,21.75 Q9.706,21.756 9.481,21.541 Z"/>
  <path fill="#292D32" opacity="0.4" d="M11.5,14.67 L11.5,11.287 L11.308,11.501 Q11.1,11.732 10.79,11.749 Q10.48,11.766 10.249,11.558 Q10.018,11.35 10.001,11.04 Q9.984,10.73 10.192,10.499 L11.692,8.829 Q11.916,8.58 12.25,8.58 Q12.561,8.58 12.78,8.8 Q13,9.019 13,9.33 L13,14.67 Q13,14.981 12.78,15.2 Q12.561,15.42 12.25,15.42 Q11.939,15.42 11.72,15.2 Q11.5,14.981 11.5,14.67 Z"/>
</svg>

