<svg xmlns="http://www.w3.org/2000/svg" width="24" height="24" viewBox="0 0 24 24">
  <defs/>
  <path fill="#292D32" d="M18.97,22.75 L4.97,22.75 Q1.22,22.75 1.22,19 L1.22,18 Q1.22,16.25 2.97,16.25 L20.97,16.25 Q21.693,16.25 22.207,16.763 Q22.72,17.277 22.72,18 L22.72,19 Q22.72,20.809 22.212,21.545 Q21.381,22.75 18.97,22.75 Z M18.97,21.25 Q20.593,21.25 20.978,20.693 Q21.22,20.341 21.22,19 L21.22,18 Q21.22,17.75 20.97,17.75 L2.97,17.75 Q2.72,17.75 2.72,18 L2.72,19 Q2.72,20.341 2.962,20.693 Q3.347,21.25 4.97,21.25 Z"/>
  <path fill="#292D32" d="M21.47,13 L21.47,17 Q21.47,17.311 21.25,17.53 Q21.031,17.75 20.72,17.75 L3.27,17.75 Q2.959,17.75 2.74,17.53 Q2.52,17.311 2.52,17 L2.52,13 Q2.52,9.877 4.496,7.464 Q6.444,5.084 9.434,4.446 Q10.318,4.25 11.27,4.25 L12.72,4.25 Q13.682,4.25 14.573,4.448 Q17.558,5.093 19.499,7.468 Q21.47,9.878 21.47,13 Z M19.97,13 Q19.97,7.149 14.247,5.912 Q13.518,5.75 12.72,5.75 L11.27,5.75 Q10.482,5.75 9.746,5.913 Q4.02,7.135 4.02,13 L4.02,16.25 L19.97,16.25 Z"/>
  <path fill="#292D32" d="M15.25,4.5 Q15.25,4.95 15.134,5.377 Q15.055,5.667 14.797,5.822 Q14.54,5.977 14.247,5.912 Q13.518,5.75 12.72,5.75 L11.27,5.75 Q10.482,5.75 9.753,5.912 Q9.46,5.977 9.203,5.822 Q8.945,5.667 8.866,5.377 Q8.75,4.95 8.75,4.5 Q8.75,3.154 9.702,2.202 Q10.654,1.25 12,1.25 Q13.346,1.25 14.298,2.202 Q15.25,3.154 15.25,4.5 Z M13.744,4.308 Q13.651,2.75 12,2.75 Q10.349,2.75 10.256,4.308 Q10.754,4.25 11.27,4.25 L12.72,4.25 Q13.243,4.25 13.744,4.308 Z"/>
  <path fill="#292D32" d="M15,11.75 L9,11.75 Q8.689,11.75 8.47,11.53 Q8.25,11.311 8.25,11 Q8.25,10.689 8.47,10.47 Q8.689,10.25 9,10.25 L15,10.25 Q15.311,10.25 15.53,10.47 Q15.75,10.689 15.75,11 Q15.75,11.311 15.53,11.53 Q15.311,11.75 15,11.75 Z"/>
</svg>

