<svg xmlns="http://www.w3.org/2000/svg" width="24" height="24" viewBox="0 0 24 24">
  <defs/>
  <path fill="#292D32" d="M18.971,22.75 L4.971,22.75 Q2.56,22.75 1.728,21.545 Q1.221,20.809 1.221,19 L1.221,18 Q1.221,16.25 2.971,16.25 L20.971,16.25 Q21.694,16.25 22.207,16.763 Q22.721,17.277 22.721,18 L22.721,19 Q22.721,20.809 22.213,21.545 Q21.382,22.75 18.971,22.75 Z M18.971,21.25 Q20.594,21.25 20.978,20.693 Q21.221,20.341 21.221,19 L21.221,18 Q21.221,17.75 20.971,17.75 L2.971,17.75 Q2.869,17.75 2.795,17.824 Q2.721,17.898 2.721,18 L2.721,19 Q2.721,20.341 2.963,20.693 Q3.347,21.25 4.971,21.25 Z"/>
  <path fill="#292D32" d="M21.469,13 L21.469,17 Q21.469,17.311 21.25,17.53 Q21.03,17.75 20.719,17.75 L3.27,17.75 Q2.959,17.75 2.739,17.53 Q2.52,17.311 2.52,17 L2.52,13 Q2.52,9.877 4.495,7.464 Q6.443,5.084 9.433,4.446 Q10.317,4.25 11.269,4.25 L12.719,4.25 Q13.682,4.25 14.572,4.448 Q17.557,5.093 19.499,7.468 Q21.469,9.878 21.469,13 Z M19.969,13 Q19.969,7.149 14.247,5.912 Q13.517,5.75 12.719,5.75 L11.269,5.75 Q10.482,5.75 9.746,5.913 Q4.02,7.135 4.02,13 L4.02,16.25 L19.969,16.25 Z"/>
  <path fill="#292D32" opacity="0.34" d="M15.25,4.5 Q15.25,4.95 15.134,5.377 Q15.055,5.667 14.797,5.822 Q14.54,5.977 14.247,5.912 Q13.518,5.75 12.72,5.75 L11.27,5.75 Q10.482,5.75 9.753,5.912 Q9.46,5.977 9.203,5.822 Q8.945,5.667 8.866,5.377 Q8.75,4.95 8.75,4.5 Q8.75,3.154 9.702,2.202 Q10.654,1.25 12,1.25 Q13.346,1.25 14.298,2.202 Q15.25,3.154 15.25,4.5 Z M13.744,4.308 Q13.651,2.75 12,2.75 Q10.349,2.75 10.256,4.308 Q10.754,4.25 11.27,4.25 L12.72,4.25 Q13.243,4.25 13.744,4.308 Z"/>
  <path fill="#292D32" opacity="0.34" d="M15,11.75 L9,11.75 Q8.689,11.75 8.47,11.53 Q8.25,11.311 8.25,11 Q8.25,10.689 8.47,10.47 Q8.689,10.25 9,10.25 L15,10.25 Q15.311,10.25 15.53,10.47 Q15.75,10.689 15.75,11 Q15.75,11.311 15.53,11.53 Q15.311,11.75 15,11.75 Z"/>
</svg>

