<svg xmlns="http://www.w3.org/2000/svg" width="24" height="24" viewBox="0 0 24 24">
  <defs/>
  <path fill="#292D32" d="M18.971,22.75 L4.971,22.75 C1.221,22.75 1.221,20.67 1.221,19 L1.221,18 C1.221,17.04 2.011,16.25 2.971,16.25 L20.971,16.25 C21.931,16.25 22.721,17.04 22.721,18 L22.721,19 C22.721,20.67 22.721,22.75 18.971,22.75 Z M2.971,17.75 C2.831,17.75 2.721,17.86 2.721,18 L2.721,19 C2.721,20.64 2.721,21.25 4.971,21.25 L18.971,21.25 C21.221,21.25 21.221,20.64 21.221,19 L21.221,18 C21.221,17.86 21.111,17.75 20.971,17.75 L2.971,17.75 Z"/>
  <path fill="#292D32" d="M20.72,17.75 L3.27,17.75 C2.86,17.75 2.52,17.41 2.52,17 L2.52,13 C2.52,8.9 5.43,5.3 9.43,4.45 C10.02,4.32 10.639,4.25 11.27,4.25 L12.72,4.25 C13.36,4.25 13.979,4.32 14.569,4.45 C18.57,5.31 21.47,8.91 21.47,13 L21.47,17 C21.47,17.41 21.14,17.75 20.72,17.75 Z M4.02,16.25 L19.97,16.25 L19.97,13 C19.97,9.61 17.57,6.63 14.249,5.91 C13.759,5.8 13.249,5.75 12.72,5.75 L11.27,5.75 C10.749,5.75 10.239,5.8 9.75,5.91 C6.43,6.62 4.02,9.6 4.02,13 L4.02,16.25 Z"/>
  <path fill="#292D32" d="M9.59,5.93 C9.26,5.93 8.96,5.71 8.87,5.38 C8.79,5.09 8.75,4.8 8.75,4.5 C8.75,2.71 10.21,1.25 12,1.25 C13.79,1.25 15.25,2.71 15.25,4.5 C15.25,4.8 15.21,5.09 15.13,5.38 C15.03,5.76 14.65,6 14.25,5.91 C13.76,5.8 13.25,5.75 12.72,5.75 L11.27,5.75 C10.75,5.75 10.24,5.8 9.75,5.91 C9.7,5.92 9.65,5.93 9.59,5.93 Z M11.27,4.25 L12.72,4.25 C13.06,4.25 13.41,4.27 13.74,4.31 C13.65,3.43 12.9,2.75 12,2.75 C11.1,2.75 10.36,3.43 10.26,4.31 C10.6,4.27 10.93,4.25 11.27,4.25 Z"/>
  <path fill="#292D32" d="M15,11.75 L9,11.75 C8.59,11.75 8.25,11.41 8.25,11 C8.25,10.59 8.59,10.25 9,10.25 L15,10.25 C15.41,10.25 15.75,10.59 15.75,11 C15.75,11.41 15.41,11.75 15,11.75 Z"/>
</svg>

