<svg xmlns="http://www.w3.org/2000/svg" width="24" height="24" viewBox="0 0 24 24">
  <defs/>
  <path fill="#292D32" d="M21.971,18 L21.971,19 C21.971,20.65 21.971,22 18.971,22 L4.971,22 C1.971,22 1.971,20.65 1.971,19 L1.971,18 C1.971,17.45 2.421,17 2.971,17 L20.971,17 C21.521,17 21.971,17.45 21.971,18 Z"/>
  <path fill="#292D32" opacity="0.4" d="M20.72,13 L20.72,17 L3.27,17 L3.27,13 C3.27,9.16 5.98,5.95 9.59,5.18 C10.13,5.06 10.69,5 11.27,5 L12.72,5 C13.3,5 13.87,5.06 14.409,5.18 C18.02,5.96 20.72,9.16 20.72,13 Z"/>
  <path fill="#292D32" d="M14.5,4.5 C14.5,4.74 14.47,4.96 14.41,5.18 C13.87,5.06 13.3,5 12.72,5 L11.27,5 C10.69,5 10.13,5.06 9.59,5.18 C9.53,4.96 9.5,4.74 9.5,4.5 C9.5,3.12 10.62,2 12,2 C13.38,2 14.5,3.12 14.5,4.5 Z"/>
  <path fill="#292D32" d="M15,11.75 L9,11.75 C8.59,11.75 8.25,11.41 8.25,11 C8.25,10.59 8.59,10.25 9,10.25 L15,10.25 C15.41,10.25 15.75,10.59 15.75,11 C15.75,11.41 15.41,11.75 15,11.75 Z"/>
</svg>

