<svg xmlns="http://www.w3.org/2000/svg" width="24" height="24" viewBox="0 0 24 24">
  <defs/>
  <path fill="#292D32" d="M21.971,18 L21.971,19 C21.971,20.65 21.971,22 18.971,22 L4.971,22 C1.971,22 1.971,20.65 1.971,19 L1.971,18 C1.971,17.45 2.421,17 2.971,17 L20.971,17 C21.521,17 21.971,17.45 21.971,18 Z"/>
  <path fill="#292D32" d="M14.409,5.18 C14.46,4.98 14.489,4.79 14.499,4.58 C14.53,3.42 13.819,2.4 12.7,2.1 C11.02,1.64 9.5,2.9 9.5,4.5 C9.5,4.74 9.53,4.96 9.59,5.18 C5.98,5.95 3.27,9.16 3.27,13 L3.27,14.5 C3.27,15.05 3.72,15.5 4.27,15.5 L19.72,15.5 C20.27,15.5 20.72,15.05 20.72,14.5 L20.72,13 C20.72,9.16 18.02,5.96 14.409,5.18 Z M14.999,11.75 L9,11.75 C8.59,11.75 8.25,11.41 8.25,11 C8.25,10.59 8.59,10.25 9,10.25 L14.999,10.25 C15.409,10.25 15.749,10.59 15.749,11 C15.749,11.41 15.409,11.75 14.999,11.75 Z"/>
</svg>

