<svg xmlns="http://www.w3.org/2000/svg" width="24" height="24" viewBox="0 0 24 24">
  <defs/>
  <path fill="#292D32" d="M21.42,13.33 Q21.42,17.233 18.662,19.991 Q15.903,22.75 12,22.75 Q8.097,22.75 5.339,19.991 Q2.58,17.233 2.58,13.33 Q2.58,10.473 4.166,8.094 Q4.338,7.835 4.643,7.774 Q4.948,7.714 5.206,7.886 Q5.465,8.058 5.526,8.363 Q5.586,8.667 5.414,8.926 Q4.08,10.927 4.08,13.33 Q4.08,16.612 6.399,18.931 Q8.718,21.25 12,21.25 Q15.282,21.25 17.601,18.931 Q19.92,16.612 19.92,13.33 Q19.92,13.019 20.14,12.8 Q20.359,12.58 20.67,12.58 Q20.981,12.58 21.2,12.8 Q21.42,13.019 21.42,13.33 Z M8.895,4.361 Q10.439,3.9 12,3.9 Q17.447,3.9 20.16,8.616 Q20.315,8.885 20.234,9.185 Q20.153,9.485 19.884,9.64 Q19.615,9.795 19.315,9.714 Q19.015,9.633 18.86,9.364 Q16.58,5.4 12,5.4 Q10.659,5.4 9.325,5.798 Q9.027,5.887 8.754,5.74 Q8.48,5.592 8.391,5.295 Q8.303,4.997 8.45,4.724 Q8.598,4.45 8.895,4.361 Z"/>
  <path fill="#292D32" d="M7.303,4.828 L10.193,1.508 Q10.397,1.273 10.707,1.252 Q11.017,1.23 11.252,1.434 Q11.486,1.638 11.507,1.948 Q11.529,2.258 11.325,2.492 L8.435,5.812 Q8.231,6.047 7.921,6.068 Q7.611,6.09 7.377,5.886 Q7.142,5.682 7.121,5.372 Q7.099,5.062 7.303,4.828 Z"/>
  <path fill="#292D32" d="M8.311,4.714 L11.681,7.174 Q11.932,7.357 11.98,7.664 Q12.028,7.971 11.845,8.222 Q11.662,8.473 11.355,8.521 Q11.048,8.569 10.797,8.386 L7.427,5.926 Q7.176,5.743 7.128,5.436 Q7.08,5.129 7.263,4.878 Q7.447,4.627 7.753,4.579 Q8.06,4.531 8.311,4.714 Z"/>
</svg>

