<svg xmlns="http://www.w3.org/2000/svg" width="24" height="24" viewBox="0 0 24 24">
  <defs/>
  <path fill="#292D32" d="M12,22.75 C6.8,22.75 2.58,18.52 2.58,13.33 C2.58,8.14 6.8,3.9 12,3.9 C13.07,3.9 14.11,4.05 15.11,4.36 C15.51,4.48 15.73,4.9 15.61,5.3 C15.49,5.7 15.07,5.92 14.67,5.8 C13.82,5.54 12.92,5.4 12,5.4 C7.63,5.4 4.08,8.95 4.08,13.32 C4.08,17.69 7.63,21.24 12,21.24 C16.37,21.24 19.92,17.69 19.92,13.32 C19.92,11.74 19.46,10.22 18.59,8.92 C18.36,8.58 18.45,8.11 18.8,7.88 C19.14,7.65 19.61,7.74 19.84,8.09 C20.88,9.64 21.43,11.45 21.43,13.33 C21.42,18.52 17.2,22.75 12,22.75 Z"/>
  <path fill="#292D32" d="M16.13,6.07 C15.92,6.07 15.71,5.98 15.56,5.81 L12.67,2.49 C12.4,2.18 12.43,1.7 12.74,1.43 C13.05,1.16 13.53,1.19 13.8,1.5 L16.69,4.82 C16.96,5.13 16.93,5.61 16.62,5.88 C16.49,6.01 16.31,6.07 16.13,6.07 Z"/>
  <path fill="#292D32" d="M12.76,8.53 C12.53,8.53 12.3,8.42 12.15,8.22 C11.91,7.89 11.98,7.42 12.31,7.17 L15.68,4.71 C16.01,4.46 16.48,4.54 16.73,4.87 C16.98,5.2 16.9,5.67 16.57,5.92 L13.2,8.39 C13.07,8.49 12.92,8.53 12.76,8.53 Z"/>
</svg>

