<svg xmlns="http://www.w3.org/2000/svg" width="24" height="24" viewBox="0 0 24 24">
  <defs/>
  <path fill="#292D32" d="M16.75,22 L12.25,22 C8.5,22 7,20.5 7,16.75 L7,12.25 C7,8.5 8.5,7 12.25,7 L16.75,7 C20.5,7 22,8.5 22,12.25 L22,16.75 C22,20.5 20.5,22 16.75,22 Z"/>
  <path fill="#292D32" d="M2.75,10.5 C3.16,10.5 3.5,10.16 3.5,9.75 C3.5,6.79 5.56,4.31 8.33,3.66 L8.06,4.11 C7.85,4.47 7.96,4.93 8.32,5.14 C8.68,5.35 9.14,5.24 9.35,4.88 L10.4,3.13 C10.54,2.9 10.54,2.61 10.41,2.38 C10.27,2.15 10.02,2 9.75,2 C5.48,2 2,5.48 2,9.75 C2,10.16 2.34,10.5 2.75,10.5 Z"/>
</svg>

