<svg xmlns="http://www.w3.org/2000/svg" width="24" height="24" viewBox="0 0 24 24">
  <defs/>
  <path fill="#292D32" d="M8.895,4.361 Q10.439,3.9 12,3.9 Q15.903,3.9 18.662,6.658 Q21.42,9.417 21.42,13.32 Q21.42,17.223 18.662,19.981 Q15.903,22.74 12,22.74 Q8.097,22.74 5.339,19.981 Q2.58,17.223 2.58,13.32 Q2.58,10.463 4.166,8.084 Q4.338,7.825 4.643,7.764 Q4.948,7.704 5.206,7.876 Q5.465,8.048 5.526,8.353 Q5.586,8.657 5.414,8.916 Q4.08,10.917 4.08,13.32 Q4.08,16.602 6.399,18.921 Q8.718,21.24 12,21.24 Q15.282,21.24 17.601,18.921 Q19.92,16.602 19.92,13.32 Q19.92,10.038 17.601,7.719 Q15.282,5.4 12,5.4 Q10.659,5.4 9.325,5.798 Q9.027,5.887 8.754,5.74 Q8.48,5.592 8.391,5.295 Q8.303,4.997 8.45,4.724 Q8.598,4.45 8.895,4.361 Z"/>
  <path fill="#292D32" d="M7.304,4.828 L10.194,1.508 Q10.398,1.273 10.708,1.252 Q11.018,1.23 11.253,1.434 Q11.487,1.638 11.508,1.948 Q11.53,2.258 11.326,2.492 L8.436,5.812 Q8.232,6.047 7.922,6.068 Q7.612,6.09 7.378,5.886 Q7.143,5.682 7.122,5.372 Q7.1,5.062 7.304,4.828 Z"/>
  <path fill="#292D32" d="M8.312,4.714 L11.682,7.174 Q11.933,7.357 11.981,7.664 Q12.029,7.971 11.846,8.222 Q11.663,8.473 11.356,8.521 Q11.049,8.569 10.798,8.386 L7.428,5.926 Q7.177,5.743 7.129,5.436 Q7.081,5.129 7.264,4.878 Q7.448,4.627 7.754,4.579 Q8.061,4.531 8.312,4.714 Z"/>
</svg>

