<svg xmlns="http://www.w3.org/2000/svg" width="24" height="24" viewBox="0 0 24 24">
  <defs/>
  <path fill="#292D32" d="M4.08,13.33 Q4.08,16.612 6.399,18.931 Q8.718,21.25 12,21.25 Q15.282,21.25 17.601,18.931 Q19.92,16.612 19.92,13.33 Q19.92,10.927 18.586,8.926 Q18.414,8.667 18.475,8.363 Q18.536,8.058 18.794,7.886 Q19.053,7.714 19.357,7.774 Q19.662,7.835 19.834,8.094 Q21.42,10.473 21.42,13.33 Q21.42,17.233 18.662,19.991 Q15.903,22.75 12,22.75 Q8.097,22.75 5.339,19.991 Q2.58,17.233 2.58,13.33 Q2.58,13.019 2.8,12.8 Q3.019,12.58 3.33,12.58 Q3.641,12.58 3.86,12.8 Q4.08,13.019 4.08,13.33 Z M14.675,5.798 Q13.342,5.4 12,5.4 Q7.421,5.4 5.14,9.364 Q4.985,9.633 4.685,9.714 Q4.385,9.795 4.116,9.64 Q3.847,9.485 3.766,9.185 Q3.685,8.885 3.84,8.616 Q6.553,3.9 12,3.9 Q13.561,3.9 15.105,4.361 Q15.403,4.45 15.55,4.724 Q15.698,4.997 15.609,5.295 Q15.52,5.592 15.246,5.74 Q14.973,5.887 14.675,5.798 Z"/>
  <path fill="#292D32" d="M14.565,5.812 L11.675,2.492 Q11.471,2.258 11.492,1.948 Q11.513,1.638 11.748,1.434 Q11.982,1.23 12.292,1.252 Q12.602,1.273 12.806,1.508 L15.696,4.828 Q15.9,5.062 15.878,5.372 Q15.857,5.682 15.623,5.886 Q15.388,6.09 15.078,6.068 Q14.768,6.047 14.565,5.812 Z"/>
  <path fill="#292D32" d="M15.572,5.926 L12.202,8.386 Q11.951,8.569 11.644,8.521 Q11.337,8.473 11.154,8.222 Q10.971,7.971 11.019,7.664 Q11.067,7.357 11.318,7.174 L14.688,4.714 Q14.939,4.531 15.245,4.579 Q15.552,4.627 15.736,4.878 Q15.919,5.129 15.871,5.436 Q15.823,5.743 15.572,5.926 Z"/>
</svg>

