<svg xmlns="http://www.w3.org/2000/svg" width="24" height="24" viewBox="0 0 24 24">
  <defs/>
  <path fill="#292D32" d="M7.25,22 L11.75,22 C15.5,22 17,20.5 17,16.75 L17,12.25 C17,8.5 15.5,7 11.75,7 L7.25,7 C3.5,7 2,8.5 2,12.25 L2,16.75 C2,20.5 3.5,22 7.25,22 Z"/>
  <path fill="#292D32" d="M21.25,10.5 C20.84,10.5 20.5,10.16 20.5,9.75 C20.5,6.79 18.44,4.31 15.67,3.66 L15.94,4.11 C16.15,4.47 16.04,4.93 15.68,5.14 C15.32,5.35 14.86,5.24 14.65,4.88 L13.6,3.13 C13.46,2.9 13.46,2.61 13.59,2.38 C13.73,2.15 13.98,2 14.25,2 C18.52,2 22,5.48 22,9.75 C22,10.16 21.66,10.5 21.25,10.5 Z"/>
</svg>

