<svg xmlns="http://www.w3.org/2000/svg" width="24" height="24" viewBox="0 0 24 24">
  <defs/>
  <path fill="#292D32" d="M12,22.75 C6.8,22.75 2.58,18.52 2.58,13.33 C2.58,11.46 3.13,9.65 4.17,8.09 C4.4,7.75 4.87,7.65 5.21,7.88 C5.55,8.11 5.65,8.58 5.42,8.92 C4.55,10.22 4.09,11.75 4.09,13.32 C4.09,17.69 7.64,21.24 12.01,21.24 C16.38,21.24 19.93,17.69 19.93,13.32 C19.93,8.95 16.37,5.4 12,5.4 C11.08,5.4 10.18,5.53 9.33,5.79 C8.93,5.91 8.51,5.69 8.39,5.29 C8.27,4.89 8.49,4.47 8.89,4.35 C9.89,4.05 10.93,3.89 12,3.89 C17.2,3.89 21.42,8.12 21.42,13.31 C21.42,18.5 17.2,22.75 12,22.75 Z"/>
  <path fill="#292D32" d="M7.87,6.07 C7.7,6.07 7.52,6.01 7.38,5.89 C7.06,5.61 7.03,5.14 7.3,4.83 L10.19,1.51 C10.46,1.2 10.94,1.16 11.25,1.44 C11.56,1.71 11.59,2.19 11.32,2.5 L8.43,5.81 C8.28,5.98 8.07,6.07 7.87,6.07 Z"/>
  <path fill="#292D32" d="M11.24,8.53 C11.09,8.53 10.93,8.48 10.8,8.39 L7.42,5.92 C7.09,5.68 7.02,5.21 7.26,4.88 C7.5,4.54 7.97,4.47 8.31,4.71 L11.68,7.17 C12.01,7.41 12.09,7.88 11.84,8.22 C11.7,8.43 11.47,8.53 11.24,8.53 Z"/>
</svg>

