<svg xmlns="http://www.w3.org/2000/svg" width="24" height="24" viewBox="0 0 24 24">
  <defs/>
  <path fill="#292D32" opacity="0.4" d="M7.81,2 L16.18,2 C19.83,2 22,4.17 22,7.81 L22,16.18 C22,19.82 19.83,21.99 16.19,21.99 L7.81,21.99 C4.17,22 2,19.83 2,16.19 L2,7.81 C2,4.17 4.17,2 7.81,2 Z"/>
  <path fill="#292D32" d="M12,18.58 C8.83,18.58 6.25,16 6.25,12.83 C6.25,9.72 8.73,7.19 11.81,7.08 L11.44,6.65 C11.17,6.34 11.2,5.86 11.51,5.59 C11.82,5.32 12.3,5.35 12.57,5.66 L14.23,7.56 C14.25,7.58 14.26,7.6 14.28,7.62 C14.32,7.68 14.36,7.75 14.38,7.82 C14.39,7.86 14.4,7.9 14.41,7.94 C14.43,8.03 14.42,8.13 14.4,8.22 C14.38,8.3 14.35,8.38 14.31,8.46 C14.3,8.48 14.28,8.5 14.27,8.52 C14.23,8.58 14.17,8.63 14.11,8.67 C14.11,8.67 14.1,8.67 14.1,8.68 L12.16,10.1 C11.82,10.34 11.36,10.27 11.11,9.94 C10.87,9.61 10.94,9.14 11.27,8.89 L11.68,8.59 C9.48,8.75 7.74,10.59 7.74,12.83 C7.74,15.17 9.65,17.08 11.99,17.08 C14.33,17.08 16.24,15.17 16.24,12.83 C16.24,11.99 15.99,11.17 15.53,10.47 C15.3,10.13 15.39,9.66 15.74,9.43 C16.09,9.2 16.55,9.29 16.78,9.64 C17.41,10.59 17.75,11.69 17.75,12.83 C17.75,16 15.17,18.58 12,18.58 Z"/>
</svg>

