<svg xmlns="http://www.w3.org/2000/svg" width="24" height="24" viewBox="0 0 24 24">
  <defs/>
  <path fill="#292D32" d="M16.75,22.75 L12.25,22.75 Q6.25,22.75 6.25,16.75 L6.25,12.25 Q6.25,6.25 12.25,6.25 L16.75,6.25 Q22.75,6.25 22.75,12.25 L22.75,16.75 Q22.75,22.75 16.75,22.75 Z M16.75,21.25 Q21.25,21.25 21.25,16.75 L21.25,12.25 Q21.25,7.75 16.75,7.75 L12.25,7.75 Q7.75,7.75 7.75,12.25 L7.75,16.75 Q7.75,21.25 12.25,21.25 Z"/>
  <path fill="#292D32" opacity="0.4" d="M1.25,9 Q1.25,5.787 3.518,3.518 Q5.787,1.25 9,1.25 Q9.311,1.25 9.53,1.47 Q9.75,1.689 9.75,2 Q9.75,2.208 9.643,2.386 L8.593,4.136 Q8.433,4.402 8.132,4.478 Q7.831,4.553 7.564,4.393 Q7.298,4.233 7.222,3.932 Q7.147,3.631 7.307,3.364 L7.586,2.898 Q5.888,3.271 4.579,4.579 Q2.75,6.408 2.75,9 Q2.75,9.311 2.53,9.53 Q2.311,9.75 2,9.75 Q1.689,9.75 1.47,9.53 Q1.25,9.311 1.25,9 Z"/>
</svg>

