<svg xmlns="http://www.w3.org/2000/svg" width="24" height="24" viewBox="0 0 24 24">
  <defs/>
  <path fill="#292D32" d="M7.25,22.75 Q1.25,22.75 1.25,16.75 L1.25,12.25 Q1.25,6.25 7.25,6.25 L11.75,6.25 Q17.75,6.25 17.75,12.25 L17.75,16.75 Q17.75,22.75 11.75,22.75 Z M7.25,21.25 L11.75,21.25 Q16.25,21.25 16.25,16.75 L16.25,12.25 Q16.25,7.75 11.75,7.75 L7.25,7.75 Q2.75,7.75 2.75,12.25 L2.75,16.75 Q2.75,21.25 7.25,21.25 Z"/>
  <path fill="#292D32" opacity="0.4" d="M21.25,9 Q21.25,6.408 19.421,4.579 Q18.112,3.271 16.414,2.898 L16.693,3.364 Q16.853,3.631 16.778,3.932 Q16.702,4.233 16.436,4.393 Q16.169,4.553 15.868,4.478 Q15.567,4.402 15.407,4.136 L14.357,2.386 Q14.25,2.208 14.25,2 Q14.25,1.689 14.47,1.47 Q14.689,1.25 15,1.25 Q18.213,1.25 20.482,3.518 Q22.75,5.787 22.75,9 Q22.75,9.311 22.53,9.53 Q22.311,9.75 22,9.75 Q21.689,9.75 21.47,9.53 Q21.25,9.311 21.25,9 Z"/>
</svg>

