<svg xmlns="http://www.w3.org/2000/svg" width="24" height="24" viewBox="0 0 24 24">
  <defs/>
  <path fill="#292D32" d="M11.75,22.75 L7.25,22.75 C3.1,22.75 1.25,20.9 1.25,16.75 L1.25,12.25 C1.25,8.1 3.1,6.25 7.25,6.25 L11.75,6.25 C15.9,6.25 17.75,8.1 17.75,12.25 L17.75,16.75 C17.75,20.9 15.9,22.75 11.75,22.75 Z M7.25,7.75 C3.93,7.75 2.75,8.93 2.75,12.25 L2.75,16.75 C2.75,20.07 3.93,21.25 7.25,21.25 L11.75,21.25 C15.07,21.25 16.25,20.07 16.25,16.75 L16.25,12.25 C16.25,8.93 15.07,7.75 11.75,7.75 L7.25,7.75 Z"/>
  <path fill="#292D32" d="M22,9.75 C21.59,9.75 21.25,9.41 21.25,9 C21.25,6.04 19.19,3.56 16.42,2.91 L16.69,3.36 C16.9,3.72 16.79,4.18 16.43,4.39 C16.07,4.6 15.61,4.49 15.4,4.13 L14.35,2.38 C14.21,2.15 14.21,1.86 14.34,1.63 C14.48,1.4 14.73,1.25 15,1.25 C19.27,1.25 22.75,4.73 22.75,9 C22.75,9.41 22.41,9.75 22,9.75 Z"/>
</svg>

