<svg xmlns="http://www.w3.org/2000/svg" width="24" height="24" viewBox="0 0 24 24">
  <defs/>
  <path fill="#292D32" opacity="0.4" d="M14.675,5.798 Q13.342,5.4 12,5.4 Q8.718,5.4 6.399,7.719 Q4.08,10.038 4.08,13.32 Q4.08,16.609 6.399,18.93 Q8.718,21.25 12,21.25 Q15.282,21.25 17.601,18.931 Q19.92,16.612 19.92,13.33 Q19.92,10.927 18.586,8.926 Q18.414,8.667 18.475,8.363 Q18.536,8.058 18.794,7.886 Q19.053,7.714 19.357,7.774 Q19.662,7.835 19.834,8.094 Q21.42,10.473 21.42,13.33 Q21.42,17.233 18.662,19.991 Q15.903,22.75 12,22.75 Q8.096,22.75 5.338,19.99 Q2.58,17.23 2.58,13.32 Q2.58,9.417 5.339,6.658 Q8.097,3.9 12,3.9 Q13.561,3.9 15.105,4.361 Q15.403,4.45 15.55,4.724 Q15.698,4.997 15.609,5.295 Q15.52,5.592 15.246,5.74 Q14.973,5.887 14.675,5.798 Z"/>
  <path fill="#292D32" d="M15.565,5.812 L12.675,2.492 Q12.471,2.258 12.492,1.948 Q12.513,1.638 12.748,1.434 Q12.982,1.23 13.292,1.252 Q13.602,1.273 13.806,1.508 L16.696,4.828 Q16.9,5.062 16.878,5.372 Q16.857,5.682 16.623,5.886 Q16.388,6.09 16.078,6.068 Q15.768,6.047 15.565,5.812 Z"/>
  <path fill="#292D32" d="M16.572,5.926 L13.202,8.386 Q12.951,8.569 12.644,8.521 Q12.337,8.473 12.154,8.222 Q11.971,7.971 12.019,7.664 Q12.067,7.357 12.318,7.174 L15.688,4.714 Q15.939,4.531 16.245,4.579 Q16.552,4.627 16.736,4.878 Q16.919,5.129 16.871,5.435 Q16.823,5.742 16.572,5.926 Z"/>
</svg>

