<svg xmlns="http://www.w3.org/2000/svg" width="24" height="24" viewBox="0 0 24 24">
  <defs/>
  <path fill="#292D32" d="M5.51,6.5 C4.96,6.5 4.51,6.05 4.51,5.5 C4.51,4.95 4.95,4.5 5.51,4.5 L5.52,4.5 C6.07,4.5 6.52,4.95 6.52,5.5 C6.52,6.05 6.07,6.5 5.51,6.5 Z"/>
  <path fill="#292D32" d="M18.51,19.5 C17.96,19.5 17.51,19.05 17.51,18.5 C17.51,17.95 17.95,17.5 18.51,17.5 L18.52,17.5 C19.07,17.5 19.52,17.95 19.52,18.5 C19.52,19.05 19.07,19.5 18.51,19.5 Z"/>
  <path fill="#292D32" d="M5.471,9.75 C3.131,9.75 1.221,7.84 1.221,5.5 C1.221,3.16 3.131,1.25 5.471,1.25 C7.811,1.25 9.721,3.16 9.721,5.5 C9.721,7.84 7.821,9.75 5.471,9.75 Z M5.471,2.75 C3.951,2.75 2.721,3.98 2.721,5.5 C2.721,7.02 3.951,8.25 5.471,8.25 C6.991,8.25 8.221,7.02 8.221,5.5 C8.221,3.98 6.991,2.75 5.471,2.75 Z"/>
  <path fill="#292D32" d="M19.971,22.75 L16.971,22.75 C15.451,22.75 14.221,21.52 14.221,20 L14.221,17 C14.221,15.48 15.451,14.25 16.971,14.25 L19.971,14.25 C21.491,14.25 22.721,15.48 22.721,17 L22.721,20 C22.721,21.52 21.491,22.75 19.971,22.75 Z M16.971,15.75 C16.281,15.75 15.721,16.31 15.721,17 L15.721,20 C15.721,20.69 16.281,21.25 16.971,21.25 L19.971,21.25 C20.661,21.25 21.221,20.69 21.221,20 L21.221,17 C21.221,16.31 20.661,15.75 19.971,15.75 L16.971,15.75 Z"/>
  <path fill="#292D32" d="M11.999,19.75 L9.319,19.75 C8.159,19.75 7.149,19.05 6.749,17.97 C6.339,16.89 6.639,15.7 7.509,14.93 L15.499,7.94 C15.979,7.52 15.989,6.95 15.85,6.56 C15.7,6.17 15.319,5.75 14.68,5.75 L11.999,5.75 C11.589,5.75 11.249,5.41 11.249,5 C11.249,4.59 11.589,4.25 11.999,4.25 L14.68,4.25 C15.839,4.25 16.849,4.95 17.25,6.03 C17.66,7.11 17.36,8.3 16.489,9.07 L8.499,16.06 C8.019,16.48 8.009,17.05 8.149,17.44 C8.299,17.83 8.679,18.25 9.319,18.25 L11.999,18.25 C12.409,18.25 12.749,18.59 12.749,19 C12.749,19.41 12.409,19.75 11.999,19.75 Z"/>
</svg>

