<svg xmlns="http://www.w3.org/2000/svg" width="24" height="24" viewBox="0 0 24 24">
  <defs/>
  <path fill="#292D32" d="M18.066,9.272 L15.726,16.812 Q15.143,18.677 13.2,18.699 Q11.253,18.721 10.638,16.866 L9.94,14.8 Q9.751,14.235 9.214,14.065 L7.121,13.361 Q5.275,12.746 5.3,10.792 Q5.325,8.836 7.193,8.272 L14.727,5.924 Q16.274,5.454 17.412,6.595 Q18.553,7.74 18.066,9.272 Z M16.636,8.822 Q16.849,8.155 16.35,7.655 Q15.848,7.151 15.173,7.356 L7.627,9.708 Q6.811,9.954 6.8,10.811 Q6.789,11.669 7.599,11.939 L9.666,12.635 Q10.932,13.035 11.36,14.32 L12.062,16.394 Q12.332,17.208 13.183,17.199 Q14.037,17.189 14.294,16.368 L16.634,8.828 Z"/>
  <path fill="#292D32" d="M9,22.75 Q1.25,22.75 1.25,15 L1.25,9 Q1.25,1.25 9,1.25 L15,1.25 Q22.75,1.25 22.75,9 L22.75,15 Q22.75,22.75 15,22.75 Z M9,21.25 L15,21.25 Q18.439,21.25 19.845,19.845 Q21.25,18.439 21.25,15 L21.25,9 Q21.25,2.75 15,2.75 L9,2.75 Q2.75,2.75 2.75,9 L2.75,15 Q2.75,18.439 4.155,19.845 Q5.561,21.25 9,21.25 Z"/>
</svg>

