<svg xmlns="http://www.w3.org/2000/svg" width="24" height="24" viewBox="0 0 24 24">
  <defs/>
  <path fill="#292D32" opacity="0.4" d="M16.19,2 L7.82,2 C4.17,2 2,4.17 2,7.81 L2,16.18 C2,19.82 4.17,21.99 7.81,21.99 L16.18,21.99 C19.82,21.99 21.99,19.82 21.99,16.18 L21.99,7.81 C22,4.17 19.83,2 16.19,2 Z"/>
  <path fill="#292D32" d="M17.351,9.05 L15.011,16.59 C14.451,18.38 11.941,18.41 11.351,16.63 L10.651,14.56 C10.461,13.99 10.011,13.53 9.441,13.35 L7.361,12.65 C5.591,12.06 5.621,9.53 7.411,8.99 L14.951,6.64 C16.431,6.19 17.821,7.58 17.351,9.05 Z"/>
</svg>

