<svg xmlns="http://www.w3.org/2000/svg" width="24" height="24" viewBox="0 0 24 24">
  <defs/>
  <path fill="#292D32" opacity="0.4" d="M8.88,4.6 C8.08,1.14 2.87,1.13 2.07,4.6 C1.6,6.63 2.89,8.35 4.01,9.42 C4.83,10.19 6.12,10.19 6.94,9.42 C8.06,8.35 9.34,6.63 8.88,4.6 Z M5.51,6.2 C4.96,6.2 4.51,5.75 4.51,5.2 C4.51,4.65 4.95,4.2 5.5,4.2 L5.51,4.2 C6.07,4.2 6.51,4.65 6.51,5.2 C6.51,5.75 6.07,6.2 5.51,6.2 Z"/>
  <path fill="#292D32" d="M6.51,5.2 C6.51,5.75 6.07,6.2 5.51,6.2 C4.96,6.2 4.51,5.75 4.51,5.2 C4.51,4.65 4.95,4.2 5.5,4.2 L5.51,4.2 C6.07,4.2 6.51,4.65 6.51,5.2 Z"/>
  <path fill="#292D32" opacity="0.4" d="M21.91,16.6 C21.11,13.14 15.88,13.13 15.07,16.6 C14.6,18.63 15.89,20.35 17.02,21.42 C17.84,22.19 19.14,22.19 19.96,21.42 C21.09,20.35 22.38,18.63 21.91,16.6 Z M18.53,18.2 C17.98,18.2 17.53,17.75 17.53,17.2 C17.53,16.65 17.97,16.2 18.52,16.2 L18.53,16.2 C19.08,16.2 19.53,16.65 19.53,17.2 C19.53,17.75 19.08,18.2 18.53,18.2 Z"/>
  <path fill="#292D32" d="M19.529,17.2 C19.529,17.75 19.079,18.2 18.529,18.2 C17.979,18.2 17.529,17.75 17.529,17.2 C17.529,16.65 17.969,16.2 18.519,16.2 L18.529,16.2 C19.079,16.2 19.529,16.65 19.529,17.2 Z"/>
  <path fill="#292D32" d="M11.999,19.75 L9.319,19.75 C8.159,19.75 7.149,19.05 6.749,17.97 C6.339,16.89 6.639,15.7 7.509,14.93 L15.499,7.94 C15.979,7.52 15.989,6.95 15.85,6.56 C15.7,6.17 15.319,5.75 14.68,5.75 L11.999,5.75 C11.589,5.75 11.249,5.41 11.249,5 C11.249,4.59 11.589,4.25 11.999,4.25 L14.68,4.25 C15.839,4.25 16.849,4.95 17.25,6.03 C17.66,7.11 17.36,8.3 16.489,9.07 L8.499,16.06 C8.019,16.48 8.009,17.05 8.149,17.44 C8.299,17.83 8.679,18.25 9.319,18.25 L11.999,18.25 C12.409,18.25 12.749,18.59 12.749,19 C12.749,19.41 12.409,19.75 11.999,19.75 Z"/>
</svg>

