<svg xmlns="http://www.w3.org/2000/svg" width="24" height="24" viewBox="0 0 24 24">
  <defs/>
  <path fill="#292D32" d="M8.88,4.599 C8.08,1.139 2.87,1.129 2.07,4.599 C1.6,6.629 2.89,8.349 4.01,9.419 C4.83,10.189 6.12,10.189 6.94,9.419 C8.06,8.349 9.34,6.629 8.88,4.599 Z M5.51,6.199 C4.96,6.199 4.51,5.749 4.51,5.199 C4.51,4.649 4.95,4.199 5.5,4.199 L5.51,4.199 C6.07,4.199 6.51,4.649 6.51,5.199 C6.51,5.749 6.07,6.199 5.51,6.199 Z"/>
  <path fill="#292D32" d="M21.91,16.599 C21.11,13.139 15.88,13.129 15.07,16.599 C14.6,18.629 15.89,20.349 17.02,21.419 C17.84,22.189 19.14,22.189 19.96,21.419 C21.09,20.349 22.38,18.629 21.91,16.599 Z M18.53,18.199 C17.98,18.199 17.53,17.749 17.53,17.199 C17.53,16.649 17.97,16.199 18.52,16.199 L18.53,16.199 C19.08,16.199 19.53,16.649 19.53,17.199 C19.53,17.749 19.08,18.199 18.53,18.199 Z"/>
  <path fill="#292D32" d="M11.999,19.75 L9.319,19.75 C8.159,19.75 7.149,19.05 6.749,17.97 C6.339,16.89 6.639,15.7 7.509,14.93 L15.499,7.94 C15.979,7.52 15.989,6.95 15.85,6.56 C15.7,6.17 15.319,5.75 14.68,5.75 L11.999,5.75 C11.589,5.75 11.249,5.41 11.249,5 C11.249,4.59 11.589,4.25 11.999,4.25 L14.68,4.25 C15.839,4.25 16.849,4.95 17.25,6.03 C17.66,7.11 17.36,8.3 16.489,9.07 L8.499,16.06 C8.019,16.48 8.009,17.05 8.149,17.44 C8.299,17.83 8.679,18.25 9.319,18.25 L11.999,18.25 C12.409,18.25 12.749,18.59 12.749,19 C12.749,19.41 12.409,19.75 11.999,19.75 Z"/>
</svg>

