<svg xmlns="http://www.w3.org/2000/svg" width="24" height="24" viewBox="0 0 24 24">
  <defs/>
  <path fill="#292D32" d="M2.75,13.05 L2.75,15 Q2.75,18.439 4.155,19.845 Q5.561,21.25 9,21.25 L15,21.25 Q18.439,21.25 19.845,19.845 Q21.25,18.439 21.25,15 L21.25,9 Q21.25,2.75 15,2.75 L9,2.75 Q2.75,2.75 2.75,9 Q2.75,9.311 2.53,9.53 Q2.311,9.75 2,9.75 Q1.689,9.75 1.47,9.53 Q1.25,9.311 1.25,9 Q1.25,1.25 9,1.25 L15,1.25 Q22.75,1.25 22.75,9 L22.75,15 Q22.75,22.75 15,22.75 L9,22.75 Q1.25,22.75 1.25,15 L1.25,13.05 Q1.25,12.739 1.47,12.52 Q1.689,12.3 2,12.3 Q2.311,12.3 2.53,12.52 Q2.75,12.739 2.75,13.05 Z"/>
  <path fill="#292D32" d="M18.067,9.272 L15.727,16.812 Q15.144,18.677 13.201,18.699 Q11.254,18.721 10.639,16.866 L9.941,14.8 Q9.752,14.235 9.215,14.065 L7.122,13.361 Q5.276,12.746 5.301,10.792 Q5.326,8.836 7.194,8.272 L14.728,5.924 Q16.275,5.454 17.413,6.595 Q18.554,7.74 18.067,9.272 Z M16.637,8.822 Q16.85,8.155 16.351,7.655 Q15.849,7.151 15.174,7.356 L7.628,9.708 Q6.812,9.954 6.801,10.811 Q6.79,11.669 7.6,11.939 L9.667,12.635 Q10.933,13.035 11.361,14.32 L12.063,16.394 Q12.333,17.208 13.184,17.199 Q14.038,17.189 14.295,16.368 L16.635,8.828 Z"/>
</svg>

