<svg xmlns="http://www.w3.org/2000/svg" width="24" height="24" viewBox="0 0 24 24">
  <defs/>
  <path fill="#292D32" d="M13.181,18.7 C12.011,18.7 11.021,17.98 10.651,16.87 L9.951,14.8 C9.841,14.44 9.561,14.17 9.221,14.06 L7.141,13.36 C6.021,12.98 5.301,11.97 5.321,10.79 C5.341,9.61 6.081,8.62 7.211,8.27 L14.741,5.93 C15.691,5.64 16.721,5.89 17.421,6.6 C18.121,7.31 18.371,8.33 18.081,9.28 L15.741,16.82 C15.391,17.95 14.401,18.69 13.211,18.71 C13.201,18.7 13.191,18.7 13.181,18.7 Z M15.521,7.3 C15.401,7.3 15.291,7.32 15.171,7.35 L7.631,9.7 C7.021,9.89 6.801,10.39 6.801,10.81 C6.791,11.22 7.001,11.74 7.601,11.94 L9.681,12.63 C10.481,12.89 11.111,13.52 11.371,14.33 L12.061,16.39 C12.261,16.99 12.731,17.18 13.191,17.2 C13.601,17.2 14.111,16.98 14.301,16.37 L16.641,8.83 C16.771,8.41 16.661,7.97 16.351,7.66 C16.121,7.42 15.831,7.3 15.521,7.3 Z"/>
  <path fill="#292D32" d="M15,22.75 L9,22.75 C3.57,22.75 1.25,20.43 1.25,15 L1.25,9 C1.25,3.57 3.57,1.25 9,1.25 L15,1.25 C20.43,1.25 22.75,3.57 22.75,9 L22.75,15 C22.75,20.43 20.43,22.75 15,22.75 Z M9,2.75 C4.39,2.75 2.75,4.39 2.75,9 L2.75,15 C2.75,19.61 4.39,21.25 9,21.25 L15,21.25 C19.61,21.25 21.25,19.61 21.25,15 L21.25,9 C21.25,4.39 19.61,2.75 15,2.75 L9,2.75 Z"/>
</svg>

