<svg xmlns="http://www.w3.org/2000/svg" width="24" height="24" viewBox="0 0 24 24">
  <defs/>
  <path fill="#292D32" d="M11.998,19.75 L9.318,19.75 C8.158,19.75 7.147,19.05 6.747,17.97 C6.338,16.89 6.638,15.7 7.508,14.93 L15.498,7.94 C15.977,7.52 15.988,6.95 15.848,6.56 C15.697,6.17 15.318,5.75 14.678,5.75 L11.998,5.75 C11.588,5.75 11.248,5.41 11.248,5 C11.248,4.59 11.588,4.25 11.998,4.25 L14.678,4.25 C15.838,4.25 16.848,4.95 17.247,6.03 C17.657,7.11 17.358,8.3 16.488,9.07 L8.498,16.06 C8.018,16.48 8.008,17.05 8.148,17.44 C8.297,17.83 8.678,18.25 9.318,18.25 L11.998,18.25 C12.408,18.25 12.748,18.59 12.748,19 C12.748,19.41 12.408,19.75 11.998,19.75 Z"/>
  <path fill="#292D32" d="M20,15 L17,15 C15.9,15 15,15.9 15,17 L15,20 C15,21.1 15.9,22 17,22 L20,22 C21.1,22 22,21.1 22,20 L22,17 C22,15.9 21.1,15 20,15 Z M18.51,19.5 C17.96,19.5 17.51,19.05 17.51,18.5 C17.51,17.95 17.95,17.5 18.51,17.5 L18.52,17.5 C19.07,17.5 19.52,17.95 19.52,18.5 C19.52,19.05 19.07,19.5 18.51,19.5 Z"/>
  <path fill="#292D32" d="M5.469,2 C3.539,2 1.969,3.57 1.969,5.5 C1.969,7.43 3.539,9 5.469,9 C7.399,9 8.969,7.43 8.969,5.5 C8.969,3.57 7.409,2 5.469,2 Z M5.509,6.5 C4.959,6.5 4.509,6.05 4.509,5.5 C4.509,4.95 4.949,4.5 5.509,4.5 L5.519,4.5 C6.069,4.5 6.519,4.95 6.519,5.5 C6.519,6.05 6.069,6.5 5.509,6.5 Z"/>
</svg>

