<svg xmlns="http://www.w3.org/2000/svg" width="24" height="24" viewBox="0 0 24 24">
  <defs/>
  <path fill="#292D32" opacity="0.4" d="M5.471,9 C7.404,9 8.971,7.433 8.971,5.5 C8.971,3.567 7.404,2 5.471,2 C3.538,2 1.971,3.567 1.971,5.5 C1.971,7.433 3.538,9 5.471,9 Z"/>
  <path fill="#292D32" opacity="0.4" d="M17,15 L20,15 C21.1,15 22,15.9 22,17 L22,20 C22,21.1 21.1,22 20,22 L17,22 C15.9,22 15,21.1 15,20 L15,17 C15,15.9 15.9,15 17,15 Z"/>
  <path fill="#292D32" d="M11.999,19.75 L9.319,19.75 C8.159,19.75 7.149,19.05 6.749,17.97 C6.339,16.89 6.639,15.7 7.509,14.93 L15.499,7.94 C15.979,7.52 15.989,6.95 15.85,6.56 C15.7,6.17 15.319,5.75 14.68,5.75 L11.999,5.75 C11.589,5.75 11.249,5.41 11.249,5 C11.249,4.59 11.589,4.25 11.999,4.25 L14.68,4.25 C15.839,4.25 16.849,4.95 17.25,6.03 C17.66,7.11 17.36,8.3 16.489,9.07 L8.499,16.06 C8.019,16.48 8.009,17.05 8.149,17.44 C8.299,17.83 8.679,18.25 9.319,18.25 L11.999,18.25 C12.409,18.25 12.749,18.59 12.749,19 C12.749,19.41 12.409,19.75 11.999,19.75 Z"/>
  <path fill="#292D32" d="M18.51,19.5 C17.96,19.5 17.51,19.05 17.51,18.5 C17.51,17.95 17.95,17.5 18.51,17.5 L18.52,17.5 C19.07,17.5 19.52,17.95 19.52,18.5 C19.52,19.05 19.07,19.5 18.51,19.5 Z"/>
  <path fill="#292D32" d="M5.51,6.5 C4.96,6.5 4.51,6.05 4.51,5.5 C4.51,4.95 4.95,4.5 5.51,4.5 L5.52,4.5 C6.07,4.5 6.52,4.95 6.52,5.5 C6.52,6.05 6.07,6.5 5.51,6.5 Z"/>
</svg>

