<svg xmlns="http://www.w3.org/2000/svg" width="24" height="24" viewBox="0 0 24 24">
  <defs/>
  <path fill="#292D32" d="M5.47,10.75 C4.76,10.75 4.04,10.49 3.49,9.96 C1.65,8.21 0.91,6.3 1.34,4.43 C1.85,2.23 3.78,1.25 5.47,1.25 C7.16,1.25 9.1,2.24 9.6,4.43 C10.03,6.3 9.28,8.21 7.45,9.96 C6.9,10.49 6.19,10.75 5.47,10.75 Z M2.8,4.77 C2.42,6.44 3.53,7.92 4.53,8.87 C5.06,9.38 5.89,9.37 6.42,8.87 C7.42,7.92 8.53,6.44 8.14,4.76 C7.8,3.28 6.49,2.75 5.48,2.75 C4.46,2.75 3.15,3.28 2.8,4.77 Z"/>
  <path fill="#292D32" d="M5.51,6.2 C4.96,6.2 4.51,5.75 4.51,5.2 C4.51,4.65 4.95,4.2 5.51,4.2 L5.52,4.2 C6.07,4.2 6.52,4.65 6.52,5.2 C6.52,5.75 6.07,6.2 5.51,6.2 Z"/>
  <path fill="#292D32" d="M18.489,22.75 C17.779,22.75 17.059,22.49 16.499,21.96 C14.649,20.21 13.899,18.3 14.339,16.42 C14.849,14.23 16.789,13.24 18.489,13.24 C20.189,13.24 22.129,14.23 22.639,16.42 C23.069,18.29 22.319,20.21 20.469,21.95 C19.919,22.49 19.209,22.75 18.489,22.75 Z M18.489,14.75 C17.469,14.75 16.149,15.28 15.799,16.77 C15.409,18.44 16.529,19.93 17.529,20.88 C18.059,21.39 18.899,21.39 19.439,20.88 C20.439,19.93 21.559,18.45 21.169,16.78 C20.839,15.28 19.519,14.75 18.489,14.75 Z"/>
  <path fill="#292D32" d="M18.529,18.2 C17.979,18.2 17.529,17.75 17.529,17.2 C17.529,16.65 17.969,16.2 18.529,16.2 L18.539,16.2 C19.089,16.2 19.539,16.65 19.539,17.2 C19.539,17.75 19.079,18.2 18.529,18.2 Z"/>
  <path fill="#292D32" d="M11.999,19.75 L9.319,19.75 C8.159,19.75 7.149,19.05 6.749,17.97 C6.339,16.89 6.639,15.7 7.509,14.93 L15.499,7.94 C15.979,7.52 15.989,6.95 15.85,6.56 C15.7,6.17 15.319,5.75 14.68,5.75 L11.999,5.75 C11.589,5.75 11.249,5.41 11.249,5 C11.249,4.59 11.589,4.25 11.999,4.25 L14.68,4.25 C15.839,4.25 16.849,4.95 17.25,6.03 C17.66,7.11 17.36,8.3 16.489,9.07 L8.499,16.06 C8.019,16.48 8.009,17.05 8.149,17.44 C8.299,17.83 8.679,18.25 9.319,18.25 L11.999,18.25 C12.409,18.25 12.749,18.59 12.749,19 C12.749,19.41 12.409,19.75 11.999,19.75 Z"/>
  <path fill="#292D32" d="M11.999,19.75 L9.319,19.75 C8.159,19.75 7.149,19.05 6.749,17.97 C6.339,16.89 6.639,15.7 7.509,14.93 L15.499,7.94 C15.979,7.52 15.989,6.95 15.85,6.56 C15.7,6.17 15.319,5.75 14.68,5.75 L11.999,5.75 C11.589,5.75 11.249,5.41 11.249,5 C11.249,4.59 11.589,4.25 11.999,4.25 L14.68,4.25 C15.839,4.25 16.849,4.95 17.25,6.03 C17.66,7.11 17.36,8.3 16.489,9.07 L8.499,16.06 C8.019,16.48 8.009,17.05 8.149,17.44 C8.299,17.83 8.679,18.25 9.319,18.25 L11.999,18.25 C12.409,18.25 12.749,18.59 12.749,19 C12.749,19.41 12.409,19.75 11.999,19.75 Z"/>
</svg>

