<svg xmlns="http://www.w3.org/2000/svg" width="24" height="24" viewBox="0 0 24 24">
  <defs/>
  <path fill="#292D32" d="M8.27,22.75 L4.23,22.75 C2.22,22.75 1.25,21.82 1.25,19.9 L1.25,4.1 C1.25,2.18 2.23,1.25 4.23,1.25 L8.27,1.25 C10.28,1.25 11.25,2.18 11.25,4.1 L11.25,19.9 C11.25,21.82 10.27,22.75 8.27,22.75 Z M4.23,2.75 C2.96,2.75 2.75,3.09 2.75,4.1 L2.75,19.9 C2.75,20.91 2.96,21.25 4.23,21.25 L8.27,21.25 C9.54,21.25 9.75,20.91 9.75,19.9 L9.75,4.1 C9.75,3.09 9.54,2.75 8.27,2.75 L4.23,2.75 Z"/>
  <path fill="#292D32" d="M19.77,22.75 L15.73,22.75 C13.72,22.75 12.75,21.82 12.75,19.9 L12.75,4.1 C12.75,2.18 13.73,1.25 15.73,1.25 L19.77,1.25 C21.78,1.25 22.75,2.18 22.75,4.1 L22.75,19.9 C22.75,21.82 21.77,22.75 19.77,22.75 Z M15.73,2.75 C14.46,2.75 14.25,3.09 14.25,4.1 L14.25,19.9 C14.25,20.91 14.46,21.25 15.73,21.25 L19.77,21.25 C21.04,21.25 21.25,20.91 21.25,19.9 L21.25,4.1 C21.25,3.09 21.04,2.75 19.77,2.75 L15.73,2.75 Z"/>
</svg>

