<svg xmlns="http://www.w3.org/2000/svg" width="24" height="24" viewBox="0 0 24 24">
  <defs/>
  <path fill="#292D32" d="M19.9,22.75 L4.1,22.75 C2.18,22.75 1.25,21.77 1.25,19.77 L1.25,15.73 C1.25,13.72 2.18,12.75 4.1,12.75 L19.9,12.75 C21.82,12.75 22.75,13.73 22.75,15.73 L22.75,19.77 C22.75,21.77 21.82,22.75 19.9,22.75 Z M4.1,14.25 C3.09,14.25 2.75,14.46 2.75,15.73 L2.75,19.77 C2.75,21.04 3.09,21.25 4.1,21.25 L19.9,21.25 C20.91,21.25 21.25,21.04 21.25,19.77 L21.25,15.73 C21.25,14.46 20.91,14.25 19.9,14.25 L4.1,14.25 Z"/>
  <path fill="#292D32" d="M19.9,11.25 L4.1,11.25 C2.18,11.25 1.25,10.27 1.25,8.27 L1.25,4.23 C1.25,2.22 2.18,1.25 4.1,1.25 L19.9,1.25 C21.82,1.25 22.75,2.23 22.75,4.23 L22.75,8.27 C22.75,10.27 21.82,11.25 19.9,11.25 Z M4.1,2.75 C3.09,2.75 2.75,2.96 2.75,4.23 L2.75,8.27 C2.75,9.54 3.09,9.75 4.1,9.75 L19.9,9.75 C20.91,9.75 21.25,9.54 21.25,8.27 L21.25,4.23 C21.25,2.96 20.91,2.75 19.9,2.75 L4.1,2.75 Z"/>
</svg>

