<svg xmlns="http://www.w3.org/2000/svg" width="24" height="24" viewBox="0 0 24 24">
  <defs/>
  <path fill="#292D32" d="M18.471,2 L14.471,2 C12.978,2 11.744,3.286 11.511,4.752 C11.467,5.025 11.695,5.25 11.971,5.25 L16.471,5.25 C16.881,5.25 17.221,5.59 17.221,6 C17.221,6.41 16.881,6.75 16.471,6.75 L11.971,6.75 C11.695,6.75 11.471,6.974 11.471,7.25 L11.471,8.75 C11.471,9.026 11.695,9.25 11.971,9.25 L14.281,9.25 C14.691,9.25 15.031,9.59 15.031,10 C15.031,10.41 14.691,10.75 14.281,10.75 L11.971,10.75 C11.695,10.75 11.471,10.974 11.471,11.25 L11.471,12.705 C11.471,12.979 11.691,13.202 11.966,13.205 L16.471,13.25 C16.891,13.25 17.221,13.59 17.221,14.01 C17.211,14.42 16.881,14.75 16.471,14.75 C16.461,14.75 16.461,14.75 16.461,14.75 L11.976,14.705 C11.698,14.702 11.471,14.927 11.471,15.205 L11.471,16.75 C11.471,17.026 11.695,17.25 11.971,17.25 L15.371,17.25 C15.791,17.25 16.121,17.59 16.121,18 C16.121,18.41 15.791,18.75 15.371,18.75 L11.971,18.75 C11.695,18.75 11.467,18.975 11.511,19.248 C11.744,20.714 12.978,22 14.471,22 L18.471,22 C20.121,22 21.471,20.66 21.471,19 L21.471,5 C21.471,3.34 20.121,2 18.471,2 Z"/>
  <path fill="#292D32" d="M8.439,4.95 L8.439,5.75 C8.439,6.026 8.215,6.25 7.939,6.25 L3.029,6.25 C2.753,6.25 2.529,6.026 2.529,5.75 L2.529,4.95 C2.529,3.33 3.859,2 5.489,2 C7.109,2 8.439,3.33 8.439,4.95 Z"/>
  <path fill="#292D32" d="M2.529,17.91 C2.529,18.36 2.719,19.05 2.959,19.43 L3.769,20.79 C4.719,22.37 6.259,22.37 7.199,20.79 L8.019,19.43 C8.249,19.05 8.439,18.36 8.439,17.91 L8.439,8.25 C8.439,7.974 8.215,7.75 7.939,7.75 L3.029,7.75 C2.753,7.75 2.529,7.974 2.529,8.25 L2.529,17.91 Z"/>
</svg>

