<svg xmlns="http://www.w3.org/2000/svg" width="24" height="24" viewBox="0 0 24 24">
  <defs/>
  <path fill="#292D32" opacity="0.4" d="M5,17 L19,17 C20.66,17 22,15.66 22,14 L22,10 C22,8.34 20.66,7 19,7 L5,7 C3.34,7 2,8.34 2,10 L2,14 C2,15.66 3.34,17 5,17 Z"/>
  <path fill="#292D32" d="M18.75,7 L18.75,12 C18.75,12.41 18.41,12.75 18,12.75 C17.59,12.75 17.25,12.41 17.25,12 L17.25,7 L18.75,7 Z"/>
  <path fill="#292D32" d="M6.75,7 L6.75,10.8 C6.75,11.21 6.41,11.55 6,11.55 C5.59,11.55 5.25,11.21 5.25,10.8 L5.25,7 L6.75,7 Z"/>
  <path fill="#292D32" d="M10.79,7 L10.75,12.01 C10.75,12.42 10.41,12.75 10,12.75 C10,12.75 10,12.75 9.99,12.75 C9.58,12.75 9.25,12.41 9.25,11.99 L9.29,7 L10.79,7 Z"/>
  <path fill="#292D32" d="M14.75,7 L14.75,9.6 C14.75,10.01 14.41,10.35 14,10.35 C13.59,10.35 13.25,10.01 13.25,9.6 L13.25,7 L14.75,7 Z"/>
</svg>

