<svg xmlns="http://www.w3.org/2000/svg" width="24" height="24" viewBox="0 0 24 24">
  <defs/>
  <path fill="#292D32" d="M14.471,2.75 Q12.221,2.75 12.221,5 L12.221,19 Q12.221,21.25 14.471,21.25 L18.471,21.25 Q20.721,21.25 20.721,19 L20.721,5 Q20.721,2.75 18.471,2.75 Q18.16,2.75 17.94,2.53 Q17.721,2.311 17.721,2 Q17.721,1.689 17.94,1.47 Q18.16,1.25 18.471,1.25 Q20.281,1.25 21.251,2.22 Q22.221,3.189 22.221,5 L22.221,19 Q22.221,20.811 21.251,21.78 Q20.281,22.75 18.471,22.75 L14.471,22.75 Q12.66,22.75 11.69,21.78 Q10.721,20.811 10.721,19 L10.721,5 Q10.721,3.189 11.69,2.22 Q12.66,1.25 14.471,1.25 Q14.781,1.25 15.001,1.47 Q15.221,1.689 15.221,2 Q15.221,2.311 15.001,2.53 Q14.781,2.75 14.471,2.75 Z"/>
  <path fill="#292D32" d="M11.471,5.25 L16.471,5.25 Q16.781,5.25 17.001,5.47 Q17.221,5.689 17.221,6 Q17.221,6.311 17.001,6.53 Q16.781,6.75 16.471,6.75 L11.471,6.75 Q11.16,6.75 10.94,6.53 Q10.721,6.311 10.721,6 Q10.721,5.689 10.94,5.47 Q11.16,5.25 11.471,5.25 Z"/>
  <path fill="#292D32" d="M11.471,17.25 L15.471,17.25 Q15.781,17.25 16.001,17.47 Q16.221,17.689 16.221,18 Q16.221,18.311 16.001,18.53 Q15.781,18.75 15.471,18.75 L11.471,18.75 Q11.16,18.75 10.94,18.53 Q10.721,18.311 10.721,18 Q10.721,17.689 10.94,17.47 Q11.16,17.25 11.471,17.25 Z"/>
  <path fill="#292D32" d="M11.478,13.2 L16.478,13.25 Q16.789,13.253 17.006,13.475 Q17.224,13.697 17.221,14.007 Q17.218,14.318 16.996,14.536 Q16.774,14.753 16.463,14.75 L11.463,14.7 Q11.153,14.697 10.935,14.475 Q10.718,14.253 10.721,13.942 Q10.724,13.632 10.946,13.414 Q11.168,13.197 11.478,13.2 Z"/>
  <path fill="#292D32" d="M11.471,9.25 L14.471,9.25 Q14.781,9.25 15.001,9.47 Q15.221,9.689 15.221,10 Q15.221,10.311 15.001,10.53 Q14.781,10.75 14.471,10.75 L11.471,10.75 Q11.16,10.75 10.94,10.53 Q10.721,10.311 10.721,10 Q10.721,9.689 10.94,9.47 Q11.16,9.25 11.471,9.25 Z"/>
  <path fill="#292D32" d="M1.779,9.02 L1.779,4.95 Q1.779,3.423 2.868,2.337 Q3.957,1.25 5.489,1.25 Q9.189,1.25 9.189,4.95 L9.189,17.91 Q9.189,18.923 8.665,19.811 L7.842,21.177 Q6.919,22.718 5.484,22.718 Q4.049,22.718 3.126,21.175 L2.307,19.817 Q1.779,18.923 1.779,17.91 L1.779,13.95 Q1.779,13.639 1.999,13.42 Q2.219,13.2 2.529,13.2 Q2.84,13.2 3.06,13.42 Q3.279,13.639 3.279,13.95 L3.279,17.91 Q3.279,18.513 3.592,19.043 L4.413,20.405 Q4.899,21.218 5.484,21.218 Q6.069,21.218 6.557,20.403 L7.373,19.049 Q7.689,18.513 7.689,17.91 L7.689,4.95 Q7.689,2.75 5.489,2.75 Q4.578,2.75 3.928,3.398 Q3.279,4.045 3.279,4.95 L3.279,9.02 Q3.279,9.331 3.06,9.55 Q2.84,9.77 2.529,9.77 Q2.219,9.77 1.999,9.55 Q1.779,9.331 1.779,9.02 Z"/>
  <path fill="#292D32" d="M8.439,7.75 L2.529,7.75 Q2.219,7.75 1.999,7.53 Q1.779,7.311 1.779,7 Q1.779,6.689 1.999,6.47 Q2.219,6.25 2.529,6.25 L8.439,6.25 Q8.75,6.25 8.97,6.47 Q9.189,6.689 9.189,7 Q9.189,7.311 8.97,7.53 Q8.75,7.75 8.439,7.75 Z"/>
</svg>

