<svg xmlns="http://www.w3.org/2000/svg" width="24" height="24" viewBox="0 0 24 24">
  <defs/>
  <path fill="#292D32" d="M5,17.75 Q1.25,17.75 1.25,14 L1.25,10 Q1.25,6.25 5,6.25 L19,6.25 Q22.75,6.25 22.75,10 L22.75,14 Q22.75,17.75 19,17.75 Z M5,16.25 L19,16.25 Q21.25,16.25 21.25,14 L21.25,10 Q21.25,7.75 19,7.75 L5,7.75 Q2.75,7.75 2.75,10 L2.75,14 Q2.75,16.25 5,16.25 Z"/>
  <path fill="#292D32" d="M18.75,7 L18.75,12 Q18.75,12.311 18.53,12.53 Q18.311,12.75 18,12.75 Q17.689,12.75 17.47,12.53 Q17.25,12.311 17.25,12 L17.25,7 Q17.25,6.689 17.47,6.47 Q17.689,6.25 18,6.25 Q18.311,6.25 18.53,6.47 Q18.75,6.689 18.75,7 Z"/>
  <path fill="#292D32" d="M6.75,7 L6.75,11 Q6.75,11.311 6.53,11.53 Q6.311,11.75 6,11.75 Q5.689,11.75 5.47,11.53 Q5.25,11.311 5.25,11 L5.25,7 Q5.25,6.689 5.47,6.47 Q5.689,6.25 6,6.25 Q6.311,6.25 6.53,6.47 Q6.75,6.689 6.75,7 Z"/>
  <path fill="#292D32" d="M10.8,7.007 L10.75,12.007 Q10.747,12.318 10.525,12.536 Q10.303,12.753 9.993,12.75 Q9.682,12.747 9.464,12.525 Q9.247,12.303 9.25,11.993 L9.3,6.993 Q9.303,6.682 9.525,6.464 Q9.747,6.247 10.057,6.25 Q10.368,6.253 10.586,6.475 Q10.803,6.697 10.8,7.007 Z"/>
  <path fill="#292D32" d="M14.75,7 L14.75,10 Q14.75,10.311 14.53,10.53 Q14.311,10.75 14,10.75 Q13.689,10.75 13.47,10.53 Q13.25,10.311 13.25,10 L13.25,7 Q13.25,6.689 13.47,6.47 Q13.689,6.25 14,6.25 Q14.311,6.25 14.53,6.47 Q14.75,6.689 14.75,7 Z"/>
</svg>

