<svg xmlns="http://www.w3.org/2000/svg" width="24" height="24" viewBox="0 0 24 24">
  <defs/>
  <path fill="#292D32" opacity="0.4" d="M21.471,5 L21.471,19 C21.471,20.66 20.121,22 18.471,22 L14.471,22 C12.811,22 11.471,20.66 11.471,19 L11.471,5 C11.471,3.34 12.811,2 14.471,2 L18.471,2 C20.121,2 21.471,3.34 21.471,5 Z"/>
  <path fill="#292D32" d="M17.221,6 C17.221,6.41 16.881,6.75 16.471,6.75 L11.471,6.75 L11.471,5.25 L16.471,5.25 C16.881,5.25 17.221,5.59 17.221,6 Z"/>
  <path fill="#292D32" d="M16.121,18 C16.121,18.41 15.791,18.75 15.371,18.75 L11.471,18.75 L11.471,17.25 L15.371,17.25 C15.791,17.25 16.121,17.59 16.121,18 Z"/>
  <path fill="#292D32" d="M17.221,14.01 C17.211,14.42 16.881,14.75 16.471,14.75 C16.461,14.75 16.461,14.75 16.461,14.75 L11.471,14.7 L11.471,13.2 L16.471,13.25 C16.891,13.25 17.221,13.59 17.221,14.01 Z"/>
  <path fill="#292D32" d="M15.031,10 C15.031,10.41 14.691,10.75 14.281,10.75 L11.471,10.75 L11.471,9.25 L14.281,9.25 C14.691,9.25 15.031,9.59 15.031,10 Z"/>
  <path fill="#292D32" opacity="0.4" d="M8.439,4.95 L8.439,17.91 C8.439,18.36 8.249,19.05 8.019,19.43 L7.199,20.79 C6.259,22.37 4.719,22.37 3.769,20.79 L2.959,19.43 C2.719,19.05 2.529,18.36 2.529,17.91 L2.529,4.95 C2.529,3.33 3.859,2 5.489,2 C7.109,2 8.439,3.33 8.439,4.95 Z"/>
  <path fill="#292D32" d="M8.439,6.25 L2.529,6.25 L2.529,7.75 L8.439,7.75 L8.439,6.25 Z"/>
</svg>

