<svg xmlns="http://www.w3.org/2000/svg" width="24" height="24" viewBox="0 0 24 24">
  <defs/>
  <path fill="#292D32" d="M19,17.75 L5,17.75 C2.58,17.75 1.25,16.42 1.25,14 L1.25,10 C1.25,7.58 2.58,6.25 5,6.25 L19,6.25 C21.42,6.25 22.75,7.58 22.75,10 L22.75,14 C22.75,16.42 21.42,17.75 19,17.75 Z M5,7.75 C3.42,7.75 2.75,8.42 2.75,10 L2.75,14 C2.75,15.58 3.42,16.25 5,16.25 L19,16.25 C20.58,16.25 21.25,15.58 21.25,14 L21.25,10 C21.25,8.42 20.58,7.75 19,7.75 L5,7.75 Z"/>
  <path fill="#292D32" d="M18,12.75 C17.59,12.75 17.25,12.41 17.25,12 L17.25,7 C17.25,6.59 17.59,6.25 18,6.25 C18.41,6.25 18.75,6.59 18.75,7 L18.75,12 C18.75,12.41 18.41,12.75 18,12.75 Z"/>
  <path fill="#292D32" d="M6,11.75 C5.59,11.75 5.25,11.41 5.25,11 L5.25,7 C5.25,6.59 5.59,6.25 6,6.25 C6.41,6.25 6.75,6.59 6.75,7 L6.75,11 C6.75,11.41 6.41,11.75 6,11.75 Z"/>
  <path fill="#292D32" d="M10,12.75 C9.58,12.75 9.25,12.41 9.25,11.99 L9.3,6.99 C9.3,6.58 9.64,6.25 10.05,6.25 C10.05,6.25 10.05,6.25 10.06,6.25 C10.47,6.25 10.81,6.59 10.8,7.01 L10.75,12.01 C10.75,12.42 10.41,12.75 10,12.75 Z"/>
  <path fill="#292D32" d="M14,10.75 C13.59,10.75 13.25,10.41 13.25,10 L13.25,7 C13.25,6.59 13.59,6.25 14,6.25 C14.41,6.25 14.75,6.59 14.75,7 L14.75,10 C14.75,10.41 14.41,10.75 14,10.75 Z"/>
</svg>

