<svg xmlns="http://www.w3.org/2000/svg" width="24" height="24" viewBox="0 0 24 24">
  <defs/>
  <path fill="#292D32" d="M18.471,22.75 L14.471,22.75 C12.051,22.75 10.721,21.42 10.721,19 L10.721,5 C10.721,2.58 12.051,1.25 14.471,1.25 L18.471,1.25 C20.891,1.25 22.221,2.58 22.221,5 L22.221,19 C22.221,21.42 20.881,22.75 18.471,22.75 Z M14.471,2.75 C12.891,2.75 12.221,3.42 12.221,5 L12.221,19 C12.221,20.58 12.891,21.25 14.471,21.25 L18.471,21.25 C20.051,21.25 20.721,20.58 20.721,19 L20.721,5 C20.721,3.42 20.051,2.75 18.471,2.75 L14.471,2.75 Z"/>
  <path fill="#292D32" d="M16.471,6.75 L11.471,6.75 C11.061,6.75 10.721,6.41 10.721,6 C10.721,5.59 11.061,5.25 11.471,5.25 L16.471,5.25 C16.881,5.25 17.221,5.59 17.221,6 C17.221,6.41 16.881,6.75 16.471,6.75 Z"/>
  <path fill="#292D32" d="M15.471,18.75 L11.471,18.75 C11.061,18.75 10.721,18.41 10.721,18 C10.721,17.59 11.061,17.25 11.471,17.25 L15.471,17.25 C15.881,17.25 16.221,17.59 16.221,18 C16.221,18.41 15.881,18.75 15.471,18.75 Z"/>
  <path fill="#292D32" d="M16.471,14.75 C16.461,14.75 16.461,14.75 16.471,14.75 L11.461,14.7 C11.051,14.7 10.711,14.36 10.721,13.94 C10.721,13.53 11.061,13.2 11.471,13.2 C11.471,13.2 11.471,13.2 11.481,13.2 L16.481,13.25 C16.891,13.25 17.231,13.59 17.221,14.01 C17.211,14.42 16.881,14.75 16.471,14.75 Z"/>
  <path fill="#292D32" d="M14.471,10.75 L11.471,10.75 C11.061,10.75 10.721,10.41 10.721,10 C10.721,9.59 11.061,9.25 11.471,9.25 L14.471,9.25 C14.881,9.25 15.221,9.59 15.221,10 C15.221,10.41 14.881,10.75 14.471,10.75 Z"/>
  <path fill="#292D32" d="M5.489,22.72 C4.579,22.72 3.719,22.16 3.129,21.18 L2.309,19.82 C2.009,19.32 1.779,18.5 1.779,17.92 L1.779,4.95 C1.779,2.91 3.439,1.25 5.479,1.25 C7.519,1.25 9.179,2.91 9.179,4.95 L9.179,17.91 C9.179,18.49 8.949,19.31 8.649,19.81 L7.829,21.17 C7.259,22.16 6.399,22.72 5.489,22.72 Z M5.489,2.75 C4.279,2.75 3.289,3.74 3.289,4.95 L3.289,17.91 C3.289,18.22 3.439,18.77 3.599,19.04 L4.419,20.4 C4.729,20.92 5.119,21.21 5.489,21.21 C5.859,21.21 6.249,20.91 6.559,20.4 L7.379,19.04 C7.539,18.77 7.689,18.22 7.689,17.91 L7.689,4.95 C7.689,3.74 6.699,2.75 5.489,2.75 Z"/>
  <path fill="#292D32" d="M8.439,7.75 L2.529,7.75 C2.119,7.75 1.779,7.41 1.779,7 C1.779,6.59 2.119,6.25 2.529,6.25 L8.439,6.25 C8.849,6.25 9.189,6.59 9.189,7 C9.189,7.41 8.849,7.75 8.439,7.75 Z"/>
</svg>

