<svg xmlns="http://www.w3.org/2000/svg" width="24" height="24" viewBox="0 0 24 24">
  <defs/>
  <path fill="#292D32" d="M22.22,19 Q22.22,20.811 21.25,21.78 Q20.281,22.75 18.47,22.75 L14.47,22.75 Q10.72,22.75 10.72,19 L10.72,5 Q10.72,3.189 11.69,2.22 Q12.659,1.25 14.47,1.25 L18.47,1.25 Q20.281,1.25 21.25,2.22 Q22.22,3.189 22.22,5 Z M20.72,19 L20.72,5 Q20.72,2.75 18.47,2.75 L14.47,2.75 Q13.281,2.75 12.75,3.28 Q12.22,3.811 12.22,5 L12.22,19 Q12.22,20.189 12.75,20.72 Q13.281,21.25 14.47,21.25 L18.47,21.25 Q20.72,21.25 20.72,19 Z"/>
  <path fill="#292D32" d="M11.47,5.25 L16.47,5.25 Q16.781,5.25 17,5.47 Q17.22,5.689 17.22,6 Q17.22,6.311 17,6.53 Q16.781,6.75 16.47,6.75 L11.47,6.75 Q11.159,6.75 10.94,6.53 Q10.72,6.311 10.72,6 Q10.72,5.689 10.94,5.47 Q11.159,5.25 11.47,5.25 Z"/>
  <path fill="#292D32" d="M11.47,17.25 L15.47,17.25 Q15.781,17.25 16,17.47 Q16.22,17.689 16.22,18 Q16.22,18.311 16,18.53 Q15.781,18.75 15.47,18.75 L11.47,18.75 Q11.159,18.75 10.94,18.53 Q10.72,18.311 10.72,18 Q10.72,17.689 10.94,17.47 Q11.159,17.25 11.47,17.25 Z"/>
  <path fill="#292D32" d="M11.477,13.2 L16.477,13.25 Q16.788,13.253 17.006,13.475 Q17.223,13.697 17.22,14.007 Q17.217,14.318 16.995,14.536 Q16.773,14.753 16.462,14.75 L11.463,14.7 Q11.152,14.697 10.934,14.475 Q10.717,14.253 10.72,13.942 Q10.723,13.632 10.945,13.414 Q11.167,13.197 11.477,13.2 Z"/>
  <path fill="#292D32" d="M11.47,9.25 L14.47,9.25 Q14.781,9.25 15,9.47 Q15.22,9.689 15.22,10 Q15.22,10.311 15,10.53 Q14.781,10.75 14.47,10.75 L11.47,10.75 Q11.159,10.75 10.94,10.53 Q10.72,10.311 10.72,10 Q10.72,9.689 10.94,9.47 Q11.159,9.25 11.47,9.25 Z"/>
  <path fill="#292D32" d="M5.49,1.25 Q9.19,1.25 9.19,4.95 L9.19,17.91 Q9.19,18.923 8.662,19.817 L7.843,21.175 Q6.92,22.718 5.485,22.718 Q4.05,22.718 3.128,21.177 L2.304,19.811 Q1.78,18.923 1.78,17.91 L1.78,4.95 Q1.78,1.25 5.49,1.25 Z M5.49,2.75 Q3.28,2.75 3.28,4.95 L3.28,17.91 Q3.28,18.513 3.596,19.049 L4.412,20.403 Q4.9,21.218 5.485,21.218 Q6.07,21.218 6.557,20.405 L7.378,19.043 Q7.69,18.513 7.69,17.91 L7.69,4.95 Q7.69,2.75 5.49,2.75 Z"/>
  <path fill="#292D32" d="M8.44,7.75 L2.53,7.75 Q2.219,7.75 2,7.53 Q1.78,7.311 1.78,7 Q1.78,6.689 2,6.47 Q2.219,6.25 2.53,6.25 L8.44,6.25 Q8.751,6.25 8.97,6.47 Q9.19,6.689 9.19,7 Q9.19,7.311 8.97,7.53 Q8.751,7.75 8.44,7.75 Z"/>
</svg>

