<svg xmlns="http://www.w3.org/2000/svg" width="24" height="24" viewBox="0 0 24 24">
  <defs/>
  <path fill="#292D32" d="M23.75,15.37 L23.75,17.56 Q23.75,22.378 19,23.693 Q18.986,23.697 18.972,23.7 Q18.532,23.804 18.108,23.698 Q16.07,23.145 14.75,21.463 Q13.34,19.714 13.34,17.56 L13.34,15.37 Q13.34,14.123 14.489,13.639 L17.275,12.496 Q18.54,11.994 19.797,12.493 L20.805,12.906 L22.593,13.636 Q23.75,14.123 23.75,15.37 Z M22.25,15.37 Q22.25,15.119 22.027,15.024 L20.235,14.294 L19.243,13.887 Q18.54,13.608 17.845,13.884 L15.071,15.021 Q14.84,15.119 14.84,15.37 L14.84,17.56 Q14.84,19.185 15.93,20.537 Q16.943,21.828 18.472,22.242 Q18.538,22.259 18.617,22.242 Q22.25,21.228 22.25,17.56 Z"/>
  <path fill="#292D32" d="M21.69,11.133 L21.26,13.723 Q21.209,14.029 20.956,14.21 Q20.704,14.391 20.397,14.34 Q20.314,14.326 20.235,14.294 L19.235,13.884 Q18.54,13.608 17.837,13.887 L15.065,15.024 Q14.84,15.119 14.84,15.37 L14.84,17.56 Q14.84,19.185 15.924,20.529 Q16.119,20.771 16.086,21.08 Q16.053,21.389 15.811,21.584 Q15.605,21.75 15.34,21.75 L6.18,21.75 Q3.073,21.75 2.551,18.686 L1.29,11.134 Q0.923,9 2.612,7.654 L9.192,2.394 Q11.498,0.545 13.793,2.408 L20.368,7.654 Q22.052,9.015 21.69,11.133 Z M20.211,10.883 Q20.427,9.63 19.432,8.826 L12.847,3.572 Q11.492,2.472 10.128,3.566 L3.548,8.826 Q2.552,9.62 2.77,10.887 L4.029,18.434 Q4.339,20.25 6.18,20.25 L13.967,20.25 Q13.34,18.993 13.34,17.56 L13.34,15.37 Q13.34,14.123 14.495,13.636 L17.283,12.493 Q18.54,11.994 19.805,12.496 L19.934,12.549 L20.21,10.887 Z"/>
</svg>

