<svg xmlns="http://www.w3.org/2000/svg" width="24" height="24" viewBox="0 0 24 24">
  <defs/>
  <path fill="#292D32" d="M23,15.37 L23,17.56 C23,20 21.22,22.3 18.8,22.97 C18.63,23.01 18.45,23.01 18.29,22.97 C17.11,22.65 16.07,21.93 15.34,21 C14.55,20.02 14.09,18.81 14.09,17.56 L14.09,15.37 C14.09,14.95 14.4,14.49 14.78,14.33 L17.56,13.19 C18.19,12.94 18.89,12.94 19.52,13.19 L20.52,13.6 L22.31,14.33 C22.69,14.49 23,14.95 23,15.37 Z"/>
  <path fill="#292D32" opacity="0.4" d="M20.949,11.01 L20.519,13.6 L19.519,13.19 C18.889,12.94 18.189,12.94 17.559,13.19 L14.779,14.33 C14.399,14.49 14.089,14.95 14.089,15.37 L14.089,17.56 C14.089,18.81 14.549,20.02 15.339,21 L6.179,21 C4.809,21 3.519,19.91 3.289,18.56 L2.029,11.01 C1.869,10.08 2.339,8.83 3.079,8.24 L9.659,2.98 C10.669,2.17 12.309,2.17 13.319,2.99 L19.899,8.24 C20.629,8.83 21.109,10.08 20.949,11.01 Z"/>
</svg>

