<svg xmlns="http://www.w3.org/2000/svg" width="24" height="24" viewBox="0 0 24 24">
  <defs/>
  <path fill="#292D32" d="M18.53,23.75 C18.38,23.75 18.24,23.73 18.11,23.7 C16.79,23.34 15.6,22.55 14.75,21.47 C13.84,20.34 13.34,18.96 13.34,17.57 L13.34,15.38 C13.34,14.66 13.82,13.93 14.49,13.65 L17.28,12.51 C18.1,12.19 18.99,12.19 19.8,12.51 L22.6,13.65 C23.27,13.93 23.76,14.66 23.76,15.38 L23.76,17.57 C23.76,20.36 21.76,22.94 19.01,23.7 C18.84,23.73 18.68,23.75 18.53,23.75 Z M18.54,13.75 C18.3,13.75 18.06,13.79 17.83,13.89 L15.06,15.03 C14.96,15.07 14.84,15.26 14.84,15.38 L14.84,17.57 C14.84,18.62 15.22,19.67 15.92,20.54 C16.58,21.38 17.49,21.99 18.48,22.26 C18.51,22.27 18.57,22.27 18.62,22.25 C20.67,21.68 22.24,19.67 22.24,17.57 L22.24,15.38 C22.24,15.26 22.12,15.08 22.01,15.03 L19.23,13.89 C19.01,13.8 18.78,13.75 18.54,13.75 Z"/>
  <path fill="#292D32" d="M15.341,21.75 L6.18,21.75 C4.44,21.75 2.84,20.4 2.55,18.69 L1.29,11.14 C1.08,9.95 1.67,8.42 2.61,7.66 L9.19,2.4 C10.48,1.36 12.501,1.37 13.79,2.41 L20.37,7.66 C21.32,8.42 21.901,9.95 21.691,11.14 L21.261,13.73 C21.221,13.95 21.081,14.15 20.881,14.26 C20.68,14.37 20.441,14.39 20.23,14.3 L19.23,13.89 C18.791,13.71 18.29,13.71 17.83,13.89 L15.06,15.03 C14.96,15.07 14.841,15.26 14.841,15.38 L14.841,17.57 C14.841,18.62 15.22,19.67 15.921,20.54 C16.101,20.76 16.14,21.07 16.011,21.33 C15.89,21.58 15.63,21.75 15.341,21.75 Z M11.48,3.12 C10.991,3.12 10.491,3.27 10.13,3.56 L3.55,8.82 C3.03,9.24 2.66,10.22 2.77,10.88 L4.03,18.43 C4.2,19.41 5.18,20.24 6.18,20.24 L13.98,20.24 C13.56,19.39 13.341,18.47 13.341,17.55 L13.341,15.36 C13.341,14.64 13.82,13.91 14.491,13.63 L17.28,12.49 C18.101,12.17 18.99,12.17 19.8,12.49 L19.941,12.55 L20.221,10.89 C20.331,10.23 19.96,9.25 19.441,8.83 L12.86,3.58 C12.48,3.27 11.98,3.12 11.48,3.12 Z"/>
</svg>

