<svg xmlns="http://www.w3.org/2000/svg" width="24" height="24" viewBox="0 0 24 24">
  <defs/>
  <path fill="#292D32" d="M22.25,17.56 L22.25,15.37 Q22.25,15.119 22.019,15.021 L20.237,14.294 L19.235,13.884 Q18.54,13.608 17.836,13.887 L15.064,15.024 Q14.84,15.119 14.84,15.37 L14.84,17.56 Q14.84,19.185 15.924,20.529 Q16.943,21.828 18.486,22.246 Q18.539,22.259 18.617,22.242 Q19.87,21.896 20.822,20.917 Q21.038,20.694 21.349,20.69 Q21.66,20.686 21.882,20.902 Q22.105,21.119 22.11,21.429 Q22.114,21.74 21.898,21.963 Q20.655,23.241 18.997,23.694 Q18.984,23.697 18.972,23.7 Q18.532,23.804 18.094,23.694 Q16.07,23.145 14.756,21.471 Q13.34,19.714 13.34,17.56 L13.34,15.37 Q13.34,14.123 14.495,13.636 L17.283,12.493 Q18.54,11.994 19.804,12.496 L20.803,12.906 L22.601,13.639 Q23.75,14.123 23.75,15.37 L23.75,17.56 Q23.75,17.871 23.53,18.09 Q23.31,18.31 23,18.31 Q22.689,18.31 22.469,18.09 Q22.25,17.871 22.25,17.56 Z"/>
  <path fill="#292D32" d="M1.29,11.137 Q0.923,9 2.612,7.654 L9.191,2.394 Q11.497,0.545 13.792,2.408 L20.367,7.654 Q22.053,9.017 21.688,11.137 L21.259,13.723 Q21.208,14.029 20.956,14.21 Q20.703,14.391 20.396,14.34 Q20.313,14.326 20.235,14.294 L19.235,13.884 Q18.539,13.608 17.836,13.887 L15.064,15.024 Q14.839,15.119 14.839,15.37 L14.839,17.56 Q14.839,19.185 15.923,20.529 Q16.118,20.771 16.085,21.08 Q16.052,21.389 15.81,21.584 Q15.604,21.75 15.339,21.75 L6.179,21.75 Q3.072,21.75 2.55,18.686 L1.999,15.363 Q1.949,15.056 2.129,14.803 Q2.31,14.551 2.617,14.5 Q2.923,14.449 3.176,14.63 Q3.428,14.811 3.479,15.117 L4.029,18.434 Q4.338,20.25 6.179,20.25 L13.966,20.25 Q13.339,18.993 13.339,17.56 L13.339,15.37 Q13.339,14.123 14.495,13.636 L17.283,12.493 Q18.539,11.994 19.804,12.496 L19.933,12.549 L20.21,10.883 Q20.426,9.63 19.432,8.826 L12.847,3.572 Q11.491,2.472 10.128,3.566 L3.547,8.826 Q2.551,9.62 2.768,10.883 Q2.821,11.189 2.642,11.443 Q2.463,11.697 2.156,11.749 Q1.85,11.802 1.597,11.623 Q1.343,11.443 1.29,11.137 Z"/>
</svg>

