<svg xmlns="http://www.w3.org/2000/svg" width="24" height="24" viewBox="0 0 24 24">
  <defs/>
  <path fill="#292D32" d="M23,15.371 L23,17.561 C23,20.001 21.22,22.301 18.8,22.971 C18.63,23.011 18.45,23.011 18.29,22.971 C17.11,22.651 16.07,21.931 15.34,21.001 C14.55,20.021 14.09,18.811 14.09,17.561 L14.09,15.371 C14.09,14.951 14.4,14.491 14.78,14.331 L17.56,13.191 C18.19,12.941 18.89,12.941 19.52,13.191 L20.52,13.601 L22.31,14.331 C22.69,14.491 23,14.951 23,15.371 Z"/>
  <path fill="#292D32" d="M20.949,11.011 L20.769,12.081 L20.069,11.801 C19.079,11.401 17.999,11.401 16.989,11.801 L14.199,12.951 C13.249,13.351 12.589,14.341 12.589,15.371 L12.589,17.561 C12.589,18.751 12.919,19.941 13.529,21.001 L6.179,21.001 C4.809,21.001 3.519,19.911 3.289,18.561 L2.029,11.011 C1.869,10.081 2.339,8.831 3.079,8.241 L9.659,2.981 C10.669,2.171 12.309,2.171 13.319,2.991 L19.899,8.241 C20.629,8.831 21.109,10.081 20.949,11.011 Z"/>
</svg>

