<svg xmlns="http://www.w3.org/2000/svg" width="24" height="24" viewBox="0 0 24 24">
  <defs/>
  <path fill="#292D32" d="M21,12.75 C20.59,12.75 20.25,12.41 20.25,12 L20.25,3.75 L12,3.75 C11.59,3.75 11.25,3.41 11.25,3 C11.25,2.59 11.59,2.25 12,2.25 L21,2.25 C21.41,2.25 21.75,2.59 21.75,3 L21.75,12 C21.75,12.41 21.41,12.75 21,12.75 Z"/>
  <path fill="#292D32" d="M2.999,21.75 C2.809,21.75 2.619,21.68 2.469,21.53 C2.179,21.24 2.179,20.76 2.469,20.47 L20.47,2.47 C20.759,2.18 21.239,2.18 21.529,2.47 C21.82,2.76 21.82,3.24 21.529,3.53 L3.53,21.53 C3.38,21.68 3.189,21.75 2.999,21.75 Z"/>
  <path fill="#292D32" d="M17.4,18.15 C17.21,18.15 17.02,18.08 16.87,17.93 L6.07,7.13 C5.78,6.84 5.78,6.36 6.07,6.07 C6.36,5.78 6.84,5.78 7.13,6.07 L17.93,16.87 C18.22,17.16 18.22,17.64 17.93,17.93 C17.78,18.08 17.59,18.15 17.4,18.15 Z"/>
</svg>

