<svg xmlns="http://www.w3.org/2000/svg" width="24" height="24" viewBox="0 0 24 24">
  <defs/>
  <path fill="#292D32" d="M21.689,2.71 C21.61,2.53 21.47,2.38 21.279,2.3 C21.189,2.27 21.099,2.25 21,2.25 L11.999,2.25 C11.589,2.25 11.249,2.59 11.249,3 C11.249,3.41 11.589,3.75 11.999,3.75 L19.189,3.75 L2.469,20.47 C2.179,20.76 2.179,21.24 2.469,21.53 C2.619,21.68 2.809,21.75 2.999,21.75 C3.189,21.75 3.379,21.68 3.529,21.53 L20.25,4.81 L20.25,12 C20.25,12.41 20.59,12.75 21,12.75 C21.41,12.75 21.75,12.41 21.75,12 L21.75,3 C21.75,2.9 21.73,2.81 21.689,2.71 Z"/>
  <path fill="#292D32" d="M17.399,18.149 C17.209,18.149 17.019,18.079 16.869,17.929 L6.069,7.129 C5.779,6.839 5.779,6.359 6.069,6.069 C6.359,5.779 6.839,5.779 7.129,6.069 L17.929,16.869 C18.219,17.159 18.219,17.639 17.929,17.929 C17.779,18.079 17.589,18.149 17.399,18.149 Z"/>
</svg>

