<svg xmlns="http://www.w3.org/2000/svg" width="24" height="24" viewBox="0 0 24 24">
  <defs/>
  <path fill="#292D32" d="M12,2.25 L21,2.25 Q21.311,2.25 21.53,2.47 Q21.75,2.689 21.75,3 L21.75,12 Q21.75,12.311 21.53,12.53 Q21.311,12.75 21,12.75 Q20.689,12.75 20.47,12.53 Q20.25,12.311 20.25,12 L20.25,3.75 L12,3.75 Q11.689,3.75 11.47,3.53 Q11.25,3.311 11.25,3 Q11.25,2.689 11.47,2.47 Q11.689,2.25 12,2.25 Z"/>
  <path fill="#292D32" d="M21.53,3.53 L3.53,21.53 Q3.311,21.75 3,21.75 Q2.689,21.75 2.47,21.53 Q2.25,21.311 2.25,21 Q2.25,20.689 2.47,20.47 L20.47,2.47 Q20.689,2.25 21,2.25 Q21.311,2.25 21.53,2.47 Q21.75,2.689 21.75,3 Q21.75,3.311 21.53,3.53 Z"/>
  <path fill="#292D32" d="M7.13,6.07 L17.93,16.87 Q18.15,17.089 18.15,17.4 Q18.15,17.711 17.93,17.93 Q17.711,18.15 17.4,18.15 Q17.089,18.15 16.87,17.93 L6.07,7.13 Q5.85,6.911 5.85,6.6 Q5.85,6.289 6.07,6.07 Q6.289,5.85 6.6,5.85 Q6.911,5.85 7.13,6.07 Z"/>
</svg>

