<svg xmlns="http://www.w3.org/2000/svg" width="24" height="24" viewBox="0 0 24 24">
  <defs/>
  <path fill="#292D32" d="M21.69,2.71 C21.61,2.53 21.47,2.38 21.28,2.3 C21.19,2.26 21.09,2.24 20.99,2.24 L11.99,2.24 C11.58,2.24 11.24,2.58 11.24,2.99 C11.24,3.4 11.58,3.74 11.99,3.74 L19.18,3.74 L2.46,20.46 C2.17,20.75 2.17,21.23 2.46,21.52 C2.61,21.67 2.8,21.74 2.99,21.74 C3.18,21.74 3.37,21.67 3.52,21.52 L20.24,4.8 L20.24,12 C20.24,12.41 20.58,12.75 20.99,12.75 C21.4,12.75 21.74,12.41 21.74,12 L21.74,3 C21.75,2.9 21.73,2.81 21.69,2.71 Z"/>
  <path fill="#292D32" opacity="0.4" d="M17.399,18.15 C17.209,18.15 17.019,18.08 16.869,17.93 L6.069,7.13 C5.779,6.84 5.779,6.36 6.069,6.07 C6.359,5.78 6.839,5.78 7.129,6.07 L17.929,16.87 C18.219,17.16 18.219,17.64 17.929,17.93 C17.779,18.08 17.589,18.15 17.399,18.15 Z"/>
</svg>

