<svg xmlns="http://www.w3.org/2000/svg" width="24" height="24" viewBox="0 0 24 24">
  <defs/>
  <path fill="#292D32" opacity="0.4" d="M16,8.99 L16,20.35 C16,21.8 14.96,22.41 13.69,21.71 L9.76,19.52 C9.34,19.29 8.66,19.29 8.24,19.52 L4.31,21.71 C3.04,22.41 2,21.8 2,20.35 L2,8.99 C2,7.28 3.4,5.88 5.11,5.88 L12.89,5.88 C14.6,5.88 16,7.28 16,8.99 Z"/>
  <path fill="#292D32" d="M10.059,12 L10.939,11.12 C11.229,10.83 11.229,10.35 10.939,10.06 C10.649,9.77 10.169,9.77 9.879,10.06 L8.999,10.94 L8.119,10.06 C7.829,9.77 7.349,9.77 7.059,10.06 C6.769,10.35 6.769,10.83 7.059,11.12 L7.939,12 L7.059,12.88 C6.769,13.17 6.769,13.65 7.059,13.94 C7.209,14.09 7.399,14.16 7.589,14.16 C7.779,14.16 7.969,14.09 8.119,13.94 L8.999,13.06 L9.879,13.94 C10.029,14.09 10.219,14.16 10.409,14.16 C10.599,14.16 10.789,14.09 10.939,13.94 C11.229,13.65 11.229,13.17 10.939,12.88 L10.059,12 Z"/>
  <path fill="#292D32" d="M22,5.11 L22,16.47 C22,17.92 20.96,18.53 19.69,17.83 L16,15.77 L16,8.99 C16,7.28 14.6,5.88 12.89,5.88 L8,5.88 L8,5.11 C8,3.4 9.4,2 11.11,2 L18.89,2 C20.6,2 22,3.4 22,5.11 Z"/>
</svg>

