<svg xmlns="http://www.w3.org/2000/svg" width="24" height="24" viewBox="0 0 24 24">
  <defs/>
  <path fill="#292D32" opacity="0.4" d="M16,8.99 L16,20.35 C16,21.8 14.96,22.41 13.69,21.71 L9.76,19.52 C9.34,19.29 8.66,19.29 8.24,19.52 L4.31,21.71 C3.04,22.41 2,21.8 2,20.35 L2,8.99 C2,7.28 3.4,5.88 5.11,5.88 L12.89,5.88 C14.6,5.88 16,7.28 16,8.99 Z"/>
  <path fill="#292D32" d="M22,5.11 L22,16.47 C22,17.92 20.96,18.53 19.69,17.83 L16,15.77 L16,8.99 C16,7.28 14.6,5.88 12.89,5.88 L8,5.88 L8,5.11 C8,3.4 9.4,2 11.11,2 L18.89,2 C20.6,2 22,3.4 22,5.11 Z"/>
  <path fill="#292D32" d="M11,12.75 L7,12.75 C6.59,12.75 6.25,12.41 6.25,12 C6.25,11.59 6.59,11.25 7,11.25 L11,11.25 C11.41,11.25 11.75,11.59 11.75,12 C11.75,12.41 11.41,12.75 11,12.75 Z"/>
</svg>

