<svg xmlns="http://www.w3.org/2000/svg" width="24" height="24" viewBox="0 0 24 24">
  <defs/>
  <path fill="#292D32" d="M16.75,8.99 L16.75,20.35 Q16.75,21.866 15.701,22.483 Q14.655,23.098 13.328,22.367 L9.395,20.175 Q9,19.959 8.6,20.178 L4.675,22.365 Q3.345,23.098 2.299,22.483 Q1.25,21.866 1.25,20.35 L1.25,8.99 Q1.25,7.397 2.383,6.263 Q3.517,5.13 5.11,5.13 L12.89,5.13 Q16.75,5.13 16.75,8.99 Z M15.25,8.99 Q15.25,6.63 12.89,6.63 L5.11,6.63 Q4.138,6.63 3.444,7.324 Q2.75,8.018 2.75,8.99 L2.75,20.35 Q2.75,21.008 3.059,21.19 Q3.369,21.372 3.945,21.055 L7.88,18.862 Q9,18.249 10.125,18.865 L14.052,21.053 Q14.631,21.372 14.941,21.19 Q15.25,21.008 15.25,20.35 Z"/>
  <path fill="#292D32" d="M22.75,5.11 L22.75,16.47 Q22.75,17.986 21.701,18.603 Q20.655,19.218 19.328,18.487 L15.634,16.425 Q15.25,16.21 15.25,15.77 L15.25,8.99 Q15.25,6.63 12.89,6.63 L8,6.63 Q7.689,6.63 7.47,6.41 Q7.25,6.191 7.25,5.88 L7.25,5.11 Q7.25,1.25 11.11,1.25 L18.89,1.25 Q22.75,1.25 22.75,5.11 Z M21.25,5.11 Q21.25,2.75 18.89,2.75 L11.11,2.75 Q8.75,2.75 8.75,5.11 L8.75,5.13 L12.89,5.13 Q14.483,5.13 15.617,6.263 Q16.75,7.397 16.75,8.99 L16.75,15.33 L20.052,17.173 Q20.631,17.492 20.941,17.31 Q21.25,17.128 21.25,16.47 Z"/>
  <path fill="#292D32" d="M7,11.25 L11,11.25 Q11.311,11.25 11.53,11.47 Q11.75,11.689 11.75,12 Q11.75,12.311 11.53,12.53 Q11.311,12.75 11,12.75 L7,12.75 Q6.689,12.75 6.47,12.53 Q6.25,12.311 6.25,12 Q6.25,11.689 6.47,11.47 Q6.689,11.25 7,11.25 Z"/>
</svg>

