<svg xmlns="http://www.w3.org/2000/svg" width="24" height="24" viewBox="0 0 24 24">
  <defs/>
  <path fill="#292D32" d="M22,5.11 L22,16.47 C22,17.92 20.96,18.53 19.69,17.83 L17.76,16.75 C17.6,16.66 17.5,16.49 17.5,16.31 L17.5,8.99 C17.5,6.45 15.43,4.38 12.89,4.38 L8.82,4.38 C8.45,4.38 8.19,3.99 8.36,3.67 C8.88,2.68 9.92,2 11.11,2 L18.89,2 C20.6,2 22,3.4 22,5.11 Z"/>
  <path fill="#292D32" d="M12.89,5.879 L5.11,5.879 C3.4,5.879 2,7.279 2,8.989 L2,20.349 C2,21.799 3.04,22.409 4.31,21.709 L8.24,19.519 C8.66,19.289 9.34,19.289 9.76,19.519 L13.69,21.709 C14.96,22.409 16,21.799 16,20.349 L16,8.989 C16,7.279 14.6,5.879 12.89,5.879 Z M10.94,12.879 C11.23,13.169 11.23,13.649 10.94,13.939 C10.79,14.089 10.6,14.159 10.41,14.159 C10.22,14.159 10.03,14.089 9.88,13.939 L9,13.059 L8.12,13.939 C7.97,14.089 7.78,14.159 7.59,14.159 C7.4,14.159 7.21,14.089 7.06,13.939 C6.77,13.649 6.77,13.169 7.06,12.879 L7.94,11.999 L7.06,11.119 C6.77,10.829 6.77,10.349 7.06,10.059 C7.35,9.769 7.83,9.769 8.12,10.059 L9,10.939 L9.88,10.059 C10.17,9.769 10.65,9.769 10.94,10.059 C11.23,10.349 11.23,10.829 10.94,11.119 L10.06,11.999 L10.94,12.879 Z"/>
</svg>

