<svg xmlns="http://www.w3.org/2000/svg" width="24" height="24" viewBox="0 0 24 24">
  <defs/>
  <path fill="#292D32" opacity="0.4" d="M12.89,5.88 L5.11,5.88 C3.4,5.88 2,7.28 2,8.99 L2,20.35 C2,21.8 3.04,22.42 4.31,21.71 L8.24,19.52 C8.66,19.29 9.34,19.29 9.75,19.52 L13.68,21.71 C14.95,22.42 15.99,21.8 15.99,20.35 L15.99,8.99 C16,7.28 14.6,5.88 12.89,5.88 Z"/>
  <path fill="#292D32" d="M22,5.11 L22,16.47 C22,17.92 20.96,18.53 19.69,17.83 L16,15.77 L16,8.99 C16,7.28 14.6,5.88 12.89,5.88 L8,5.88 L8,5.11 C8,3.4 9.4,2 11.11,2 L18.89,2 C20.6,2 22,3.4 22,5.11 Z"/>
</svg>

