<svg xmlns="http://www.w3.org/2000/svg" width="24" height="24" viewBox="0 0 24 24">
  <defs/>
  <path fill="#292D32" d="M22,5.11 L22,16.47 C22,17.92 20.96,18.53 19.69,17.83 L17.76,16.75 C17.6,16.66 17.5,16.49 17.5,16.31 L17.5,8.99 C17.5,6.45 15.43,4.38 12.89,4.38 L8.82,4.38 C8.45,4.38 8.19,3.99 8.36,3.67 C8.88,2.68 9.92,2 11.11,2 L18.89,2 C20.6,2 22,3.4 22,5.11 Z"/>
  <path fill="#292D32" d="M12.89,5.879 L5.11,5.879 C3.4,5.879 2,7.279 2,8.989 L2,20.349 C2,21.799 3.04,22.409 4.31,21.709 L8.24,19.519 C8.66,19.289 9.34,19.289 9.76,19.519 L13.69,21.709 C14.96,22.409 16,21.799 16,20.349 L16,8.989 C16,7.279 14.6,5.879 12.89,5.879 Z M11,12.749 L9.75,12.749 L9.75,13.999 C9.75,14.409 9.41,14.749 9,14.749 C8.59,14.749 8.25,14.409 8.25,13.999 L8.25,12.749 L7,12.749 C6.59,12.749 6.25,12.409 6.25,11.999 C6.25,11.589 6.59,11.249 7,11.249 L8.25,11.249 L8.25,9.999 C8.25,9.589 8.59,9.249 9,9.249 C9.41,9.249 9.75,9.589 9.75,9.999 L9.75,11.249 L11,11.249 C11.41,11.249 11.75,11.589 11.75,11.999 C11.75,12.409 11.41,12.749 11,12.749 Z"/>
</svg>

