<svg xmlns="http://www.w3.org/2000/svg" width="24" height="24" viewBox="0 0 24 24">
  <defs/>
  <path fill="#292D32" d="M1.25,9 L1.25,7 Q1.25,1.25 7,1.25 L17,1.25 Q22.75,1.25 22.75,7 L22.75,9 Q22.75,9.311 22.53,9.53 Q22.311,9.75 22,9.75 Q21.689,9.75 21.47,9.53 Q21.25,9.311 21.25,9 L21.25,7 Q21.25,2.75 17,2.75 L7,2.75 Q2.75,2.75 2.75,7 L2.75,9 Q2.75,9.311 2.53,9.53 Q2.311,9.75 2,9.75 Q1.689,9.75 1.47,9.53 Q1.25,9.311 1.25,9 Z"/>
  <path fill="#292D32" d="M2.75,15 L2.75,17 Q2.75,21.25 7,21.25 L17,21.25 Q21.25,21.25 21.25,17 L21.25,15 Q21.25,14.689 21.47,14.47 Q21.689,14.25 22,14.25 Q22.311,14.25 22.53,14.47 Q22.75,14.689 22.75,15 L22.75,17 Q22.75,22.75 17,22.75 L7,22.75 Q1.25,22.75 1.25,17 L1.25,15 Q1.25,14.689 1.47,14.47 Q1.689,14.25 2,14.25 Q2.311,14.25 2.53,14.47 Q2.75,14.689 2.75,15 Z"/>
  <path fill="#292D32" opacity="0.4" d="M2,11.25 L22,11.25 Q22.311,11.25 22.53,11.47 Q22.75,11.689 22.75,12 Q22.75,12.311 22.53,12.53 Q22.311,12.75 22,12.75 L2,12.75 Q1.689,12.75 1.47,12.53 Q1.25,12.311 1.25,12 Q1.25,11.689 1.47,11.47 Q1.689,11.25 2,11.25 Z"/>
</svg>

