<svg xmlns="http://www.w3.org/2000/svg" width="24" height="24" viewBox="0 0 24 24">
  <defs/>
  <path fill="#292D32" d="M2.77,10 C2.34,10 2,9.66 2,9.23 L2,6.92 C2,4.21 4.21,2 6.92,2 L9.23,2 C9.66,2 10,2.34 10,2.77 C10,3.2 9.66,3.54 9.23,3.54 L6.92,3.54 C5.05,3.54 3.54,5.06 3.54,6.92 L3.54,9.23 C3.54,9.66 3.19,10 2.77,10 Z"/>
  <path fill="#292D32" d="M21.23,10 C20.81,10 20.46,9.66 20.46,9.23 L20.46,6.92 C20.46,5.05 18.94,3.54 17.08,3.54 L14.77,3.54 C14.34,3.54 14,3.19 14,2.77 C14,2.35 14.34,2 14.77,2 L17.08,2 C19.79,2 22,4.21 22,6.92 L22,9.23 C22,9.66 21.66,10 21.23,10 Z"/>
  <path fill="#292D32" d="M17.082,22 L15.692,22 C15.272,22 14.922,21.66 14.922,21.23 C14.922,20.81 15.262,20.46 15.692,20.46 L17.082,20.46 C18.952,20.46 20.462,18.94 20.462,17.08 L20.462,15.7 C20.462,15.28 20.802,14.93 21.232,14.93 C21.652,14.93 22.002,15.27 22.002,15.7 L22.002,17.08 C22.002,19.79 19.792,22 17.082,22 Z"/>
  <path fill="#292D32" d="M9.23,22 L6.92,22 C4.21,22 2,19.79 2,17.08 L2,14.77 C2,14.34 2.34,14 2.77,14 C3.2,14 3.54,14.34 3.54,14.77 L3.54,17.08 C3.54,18.95 5.06,20.46 6.92,20.46 L9.23,20.46 C9.65,20.46 10,20.8 10,21.23 C10,21.66 9.66,22 9.23,22 Z"/>
  <path fill="#292D32" d="M18.459,11.23 L17.099,11.23 L6.9,11.23 L5.54,11.23 C5.11,11.23 4.77,11.581 4.77,12.001 C4.77,12.421 5.11,12.771 5.54,12.771 L6.9,12.771 L17.099,12.771 L18.459,12.771 C18.89,12.771 19.23,12.421 19.23,12.001 C19.23,11.581 18.89,11.23 18.459,11.23 Z"/>
  <path fill="#292D32" d="M6.898,13.941 L6.898,14.271 C6.898,15.931 8.238,17.27 9.898,17.27 L14.098,17.27 C15.758,17.27 17.098,15.931 17.098,14.271 L17.098,13.941 C17.098,13.82 17.008,13.73 16.888,13.73 L7.108,13.73 C6.988,13.73 6.898,13.82 6.898,13.941 Z"/>
  <path fill="#292D32" d="M6.898,10.06 L6.898,9.73 C6.898,8.07 8.238,6.73 9.898,6.73 L14.098,6.73 C15.758,6.73 17.098,8.07 17.098,9.73 L17.098,10.06 C17.098,10.181 17.008,10.271 16.888,10.271 L7.108,10.271 C6.988,10.271 6.898,10.181 6.898,10.06 Z"/>
</svg>

