<svg xmlns="http://www.w3.org/2000/svg" width="24" height="24" viewBox="0 0 24 24">
  <defs/>
  <path fill="#292D32" opacity="0.4" d="M2,9.75 C1.59,9.75 1.25,9.41 1.25,9 L1.25,6.5 C1.25,3.6 3.61,1.25 6.5,1.25 L9,1.25 C9.41,1.25 9.75,1.59 9.75,2 C9.75,2.41 9.41,2.75 9,2.75 L6.5,2.75 C4.43,2.75 2.75,4.43 2.75,6.5 L2.75,9 C2.75,9.41 2.41,9.75 2,9.75 Z"/>
  <path fill="#292D32" d="M22,9.75 C21.59,9.75 21.25,9.41 21.25,9 L21.25,6.5 C21.25,4.43 19.57,2.75 17.5,2.75 L15,2.75 C14.59,2.75 14.25,2.41 14.25,2 C14.25,1.59 14.59,1.25 15,1.25 L17.5,1.25 C20.39,1.25 22.75,3.6 22.75,6.5 L22.75,9 C22.75,9.41 22.41,9.75 22,9.75 Z"/>
  <path fill="#292D32" opacity="0.4" d="M17.5,22.75 L16,22.75 C15.59,22.75 15.25,22.41 15.25,22 C15.25,21.59 15.59,21.25 16,21.25 L17.5,21.25 C19.57,21.25 21.25,19.57 21.25,17.5 L21.25,16 C21.25,15.59 21.59,15.25 22,15.25 C22.41,15.25 22.75,15.59 22.75,16 L22.75,17.5 C22.75,20.4 20.39,22.75 17.5,22.75 Z"/>
  <path fill="#292D32" d="M9,22.75 L6.5,22.75 C3.61,22.75 1.25,20.4 1.25,17.5 L1.25,15 C1.25,14.59 1.59,14.25 2,14.25 C2.41,14.25 2.75,14.59 2.75,15 L2.75,17.5 C2.75,19.57 4.43,21.25 6.5,21.25 L9,21.25 C9.41,21.25 9.75,21.59 9.75,22 C9.75,22.41 9.41,22.75 9,22.75 Z"/>
  <path fill="#292D32" d="M8.499,11.38 C10.09,11.38 11.379,10.091 11.379,8.5 C11.379,6.91 10.09,5.62 8.499,5.62 C6.909,5.62 5.619,6.91 5.619,8.5 C5.619,10.091 6.909,11.38 8.499,11.38 Z"/>
  <path fill="#292D32" opacity="0.4" d="M7.499,18.38 C8.537,18.38 9.379,17.538 9.379,16.5 C9.379,15.462 8.537,14.62 7.499,14.62 C6.461,14.62 5.619,15.462 5.619,16.5 C5.619,17.538 6.461,18.38 7.499,18.38 Z"/>
  <path fill="#292D32" opacity="0.4" d="M16.499,9.38 C17.537,9.38 18.379,8.538 18.379,7.5 C18.379,6.462 17.537,5.62 16.499,5.62 C15.461,5.62 14.619,6.462 14.619,7.5 C14.619,8.538 15.461,9.38 16.499,9.38 Z"/>
  <path fill="#292D32" d="M15.499,18.38 C17.09,18.38 18.379,17.091 18.379,15.5 C18.379,13.909 17.09,12.62 15.499,12.62 C13.909,12.62 12.619,13.909 12.619,15.5 C12.619,17.091 13.909,18.38 15.499,18.38 Z"/>
</svg>

