<svg xmlns="http://www.w3.org/2000/svg" width="24" height="24" viewBox="0 0 24 24">
  <defs/>
  <path fill="#292D32" d="M1.25,9 L1.25,6.5 Q1.25,4.322 2.786,2.786 Q4.322,1.25 6.5,1.25 L9,1.25 Q9.311,1.25 9.53,1.47 Q9.75,1.689 9.75,2 Q9.75,2.311 9.53,2.53 Q9.311,2.75 9,2.75 L6.5,2.75 Q2.75,2.75 2.75,6.5 L2.75,9 Q2.75,9.311 2.53,9.53 Q2.311,9.75 2,9.75 Q1.689,9.75 1.47,9.53 Q1.25,9.311 1.25,9 Z"/>
  <path fill="#292D32" d="M15,1.25 L17.5,1.25 Q19.678,1.25 21.214,2.786 Q22.75,4.322 22.75,6.5 L22.75,9 Q22.75,9.311 22.53,9.53 Q22.311,9.75 22,9.75 Q21.689,9.75 21.47,9.53 Q21.25,9.311 21.25,9 L21.25,6.5 Q21.25,2.75 17.5,2.75 L15,2.75 Q14.689,2.75 14.47,2.53 Q14.25,2.311 14.25,2 Q14.25,1.689 14.47,1.47 Q14.689,1.25 15,1.25 Z"/>
  <path fill="#292D32" d="M22.75,16 L22.75,17.5 Q22.75,19.678 21.214,21.214 Q19.678,22.75 17.5,22.75 L16,22.75 Q15.689,22.75 15.47,22.53 Q15.25,22.311 15.25,22 Q15.25,21.689 15.47,21.47 Q15.689,21.25 16,21.25 L17.5,21.25 Q21.25,21.25 21.25,17.5 L21.25,16 Q21.25,15.689 21.47,15.47 Q21.689,15.25 22,15.25 Q22.311,15.25 22.53,15.47 Q22.75,15.689 22.75,16 Z"/>
  <path fill="#292D32" d="M9,22.75 L6.5,22.75 Q4.322,22.75 2.786,21.214 Q1.25,19.678 1.25,17.5 L1.25,15 Q1.25,14.689 1.47,14.47 Q1.689,14.25 2,14.25 Q2.311,14.25 2.53,14.47 Q2.75,14.689 2.75,15 L2.75,17.5 Q2.75,21.25 6.5,21.25 L9,21.25 Q9.311,21.25 9.53,21.47 Q9.75,21.689 9.75,22 Q9.75,22.311 9.53,22.53 Q9.311,22.75 9,22.75 Z"/>
  <path fill="#292D32" opacity="0.4" d="M11.25,7 L11.25,9 Q11.25,11.25 9,11.25 L7,11.25 Q4.75,11.25 4.75,9 L4.75,7 Q4.75,4.75 7,4.75 L9,4.75 Q11.25,4.75 11.25,7 Z M9.75,7 Q9.75,6.25 9,6.25 L7,6.25 Q6.25,6.25 6.25,7 L6.25,9 Q6.25,9.75 7,9.75 L9,9.75 Q9.75,9.75 9.75,9 Z"/>
  <path fill="#292D32" opacity="0.4" d="M19.25,7 L19.25,9 Q19.25,11.25 17,11.25 L15,11.25 Q12.75,11.25 12.75,9 L12.75,7 Q12.75,4.75 15,4.75 L17,4.75 Q19.25,4.75 19.25,7 Z M17.75,7 Q17.75,6.25 17,6.25 L15,6.25 Q14.25,6.25 14.25,7 L14.25,9 Q14.25,9.75 15,9.75 L17,9.75 Q17.75,9.75 17.75,9 Z"/>
  <path fill="#292D32" opacity="0.4" d="M11.25,15 L11.25,17 Q11.25,19.25 9,19.25 L7,19.25 Q4.75,19.25 4.75,17 L4.75,15 Q4.75,12.75 7,12.75 L9,12.75 Q11.25,12.75 11.25,15 Z M9.75,15 Q9.75,14.25 9,14.25 L7,14.25 Q6.25,14.25 6.25,15 L6.25,17 Q6.25,17.75 7,17.75 L9,17.75 Q9.75,17.75 9.75,17 Z"/>
  <path fill="#292D32" opacity="0.4" d="M19.25,15 L19.25,17 Q19.25,19.25 17,19.25 L15,19.25 Q12.75,19.25 12.75,17 L12.75,15 Q12.75,12.75 15,12.75 L17,12.75 Q19.25,12.75 19.25,15 Z M17.75,15 Q17.75,14.25 17,14.25 L15,14.25 Q14.25,14.25 14.25,15 L14.25,17 Q14.25,17.75 15,17.75 L17,17.75 Q17.75,17.75 17.75,17 Z"/>
</svg>

