<svg xmlns="http://www.w3.org/2000/svg" width="24" height="24" viewBox="0 0 24 24">
  <defs/>
  <path fill="#292D32" d="M2,9.75 C1.59,9.75 1.25,9.41 1.25,9 L1.25,6.5 C1.25,3.6 3.61,1.25 6.5,1.25 L9,1.25 C9.41,1.25 9.75,1.59 9.75,2 C9.75,2.41 9.41,2.75 9,2.75 L6.5,2.75 C4.43,2.75 2.75,4.43 2.75,6.5 L2.75,9 C2.75,9.41 2.41,9.75 2,9.75 Z"/>
  <path fill="#292D32" d="M22,9.75 C21.59,9.75 21.25,9.41 21.25,9 L21.25,6.5 C21.25,4.43 19.57,2.75 17.5,2.75 L15,2.75 C14.59,2.75 14.25,2.41 14.25,2 C14.25,1.59 14.59,1.25 15,1.25 L17.5,1.25 C20.39,1.25 22.75,3.6 22.75,6.5 L22.75,9 C22.75,9.41 22.41,9.75 22,9.75 Z"/>
  <path fill="#292D32" d="M17.5,22.75 L16,22.75 C15.59,22.75 15.25,22.41 15.25,22 C15.25,21.59 15.59,21.25 16,21.25 L17.5,21.25 C19.57,21.25 21.25,19.57 21.25,17.5 L21.25,16 C21.25,15.59 21.59,15.25 22,15.25 C22.41,15.25 22.75,15.59 22.75,16 L22.75,17.5 C22.75,20.4 20.39,22.75 17.5,22.75 Z"/>
  <path fill="#292D32" d="M9,22.75 L6.5,22.75 C3.61,22.75 1.25,20.4 1.25,17.5 L1.25,15 C1.25,14.59 1.59,14.25 2,14.25 C2.41,14.25 2.75,14.59 2.75,15 L2.75,17.5 C2.75,19.57 4.43,21.25 6.5,21.25 L9,21.25 C9.41,21.25 9.75,21.59 9.75,22 C9.75,22.41 9.41,22.75 9,22.75 Z"/>
  <path fill="#292D32" d="M14,18.25 L10,18.25 C7.58,18.25 6.25,16.92 6.25,14.5 L6.25,9.5 C6.25,7.08 7.58,5.75 10,5.75 L14,5.75 C16.42,5.75 17.75,7.08 17.75,9.5 L17.75,14.5 C17.75,16.92 16.42,18.25 14,18.25 Z M10,7.25 C8.42,7.25 7.75,7.92 7.75,9.5 L7.75,14.5 C7.75,16.08 8.42,16.75 10,16.75 L14,16.75 C15.58,16.75 16.25,16.08 16.25,14.5 L16.25,9.5 C16.25,7.92 15.58,7.25 14,7.25 L10,7.25 Z"/>
  <path fill="#292D32" d="M19,12.75 L5,12.75 C4.59,12.75 4.25,12.41 4.25,12 C4.25,11.59 4.59,11.25 5,11.25 L19,11.25 C19.41,11.25 19.75,11.59 19.75,12 C19.75,12.41 19.41,12.75 19,12.75 Z"/>
</svg>

