<svg xmlns="http://www.w3.org/2000/svg" width="24" height="24" viewBox="0 0 24 24">
  <defs/>
  <path fill="#292D32" d="M2,9.75 C1.59,9.75 1.25,9.41 1.25,9 L1.25,6.5 C1.25,3.6 3.61,1.25 6.5,1.25 L9,1.25 C9.41,1.25 9.75,1.59 9.75,2 C9.75,2.41 9.41,2.75 9,2.75 L6.5,2.75 C4.43,2.75 2.75,4.43 2.75,6.5 L2.75,9 C2.75,9.41 2.41,9.75 2,9.75 Z"/>
  <path fill="#292D32" d="M22,9.75 C21.59,9.75 21.25,9.41 21.25,9 L21.25,6.5 C21.25,4.43 19.57,2.75 17.5,2.75 L15,2.75 C14.59,2.75 14.25,2.41 14.25,2 C14.25,1.59 14.59,1.25 15,1.25 L17.5,1.25 C20.39,1.25 22.75,3.6 22.75,6.5 L22.75,9 C22.75,9.41 22.41,9.75 22,9.75 Z"/>
  <path fill="#292D32" d="M17.5,22.75 L16,22.75 C15.59,22.75 15.25,22.41 15.25,22 C15.25,21.59 15.59,21.25 16,21.25 L17.5,21.25 C19.57,21.25 21.25,19.57 21.25,17.5 L21.25,16 C21.25,15.59 21.59,15.25 22,15.25 C22.41,15.25 22.75,15.59 22.75,16 L22.75,17.5 C22.75,20.4 20.39,22.75 17.5,22.75 Z"/>
  <path fill="#292D32" d="M9,22.75 L6.5,22.75 C3.61,22.75 1.25,20.4 1.25,17.5 L1.25,15 C1.25,14.59 1.59,14.25 2,14.25 C2.41,14.25 2.75,14.59 2.75,15 L2.75,17.5 C2.75,19.57 4.43,21.25 6.5,21.25 L9,21.25 C9.41,21.25 9.75,21.59 9.75,22 C9.75,22.41 9.41,22.75 9,22.75 Z"/>
  <path fill="#292D32" d="M9,11.25 L7,11.25 C5.59,11.25 4.75,10.41 4.75,9 L4.75,7 C4.75,5.59 5.59,4.75 7,4.75 L9,4.75 C10.41,4.75 11.25,5.59 11.25,7 L11.25,9 C11.25,10.41 10.41,11.25 9,11.25 Z M7,6.25 C6.41,6.25 6.25,6.41 6.25,7 L6.25,9 C6.25,9.59 6.41,9.75 7,9.75 L9,9.75 C9.59,9.75 9.75,9.59 9.75,9 L9.75,7 C9.75,6.41 9.59,6.25 9,6.25 L7,6.25 Z"/>
  <path fill="#292D32" d="M17,11.25 L15,11.25 C13.59,11.25 12.75,10.41 12.75,9 L12.75,7 C12.75,5.59 13.59,4.75 15,4.75 L17,4.75 C18.41,4.75 19.25,5.59 19.25,7 L19.25,9 C19.25,10.41 18.41,11.25 17,11.25 Z M15,6.25 C14.41,6.25 14.25,6.41 14.25,7 L14.25,9 C14.25,9.59 14.41,9.75 15,9.75 L17,9.75 C17.59,9.75 17.75,9.59 17.75,9 L17.75,7 C17.75,6.41 17.59,6.25 17,6.25 L15,6.25 Z"/>
  <path fill="#292D32" d="M9,19.25 L7,19.25 C5.59,19.25 4.75,18.41 4.75,17 L4.75,15 C4.75,13.59 5.59,12.75 7,12.75 L9,12.75 C10.41,12.75 11.25,13.59 11.25,15 L11.25,17 C11.25,18.41 10.41,19.25 9,19.25 Z M7,14.25 C6.41,14.25 6.25,14.41 6.25,15 L6.25,17 C6.25,17.59 6.41,17.75 7,17.75 L9,17.75 C9.59,17.75 9.75,17.59 9.75,17 L9.75,15 C9.75,14.41 9.59,14.25 9,14.25 L7,14.25 Z"/>
  <path fill="#292D32" d="M17,19.25 L15,19.25 C13.59,19.25 12.75,18.41 12.75,17 L12.75,15 C12.75,13.59 13.59,12.75 15,12.75 L17,12.75 C18.41,12.75 19.25,13.59 19.25,15 L19.25,17 C19.25,18.41 18.41,19.25 17,19.25 Z M15,14.25 C14.41,14.25 14.25,14.41 14.25,15 L14.25,17 C14.25,17.59 14.41,17.75 15,17.75 L17,17.75 C17.59,17.75 17.75,17.59 17.75,17 L17.75,15 C17.75,14.41 17.59,14.25 17,14.25 L15,14.25 Z"/>
</svg>

