<svg xmlns="http://www.w3.org/2000/svg" width="24" height="24" viewBox="0 0 24 24">
  <defs/>
  <path fill="#292D32" d="M2,9.75 C1.59,9.75 1.25,9.41 1.25,9 L1.25,6.5 C1.25,3.6 3.61,1.25 6.5,1.25 L9,1.25 C9.41,1.25 9.75,1.59 9.75,2 C9.75,2.41 9.41,2.75 9,2.75 L6.5,2.75 C4.43,2.75 2.75,4.43 2.75,6.5 L2.75,9 C2.75,9.41 2.41,9.75 2,9.75 Z"/>
  <path fill="#292D32" d="M22,9.75 C21.59,9.75 21.25,9.41 21.25,9 L21.25,6.5 C21.25,4.43 19.57,2.75 17.5,2.75 L15,2.75 C14.59,2.75 14.25,2.41 14.25,2 C14.25,1.59 14.59,1.25 15,1.25 L17.5,1.25 C20.39,1.25 22.75,3.6 22.75,6.5 L22.75,9 C22.75,9.41 22.41,9.75 22,9.75 Z"/>
  <path fill="#292D32" d="M17.5,22.75 L16,22.75 C15.59,22.75 15.25,22.41 15.25,22 C15.25,21.59 15.59,21.25 16,21.25 L17.5,21.25 C19.57,21.25 21.25,19.57 21.25,17.5 L21.25,16 C21.25,15.59 21.59,15.25 22,15.25 C22.41,15.25 22.75,15.59 22.75,16 L22.75,17.5 C22.75,20.4 20.39,22.75 17.5,22.75 Z"/>
  <path fill="#292D32" d="M9,22.75 L6.5,22.75 C3.61,22.75 1.25,20.4 1.25,17.5 L1.25,15 C1.25,14.59 1.59,14.25 2,14.25 C2.41,14.25 2.75,14.59 2.75,15 L2.75,17.5 C2.75,19.57 4.43,21.25 6.5,21.25 L9,21.25 C9.41,21.25 9.75,21.59 9.75,22 C9.75,22.41 9.41,22.75 9,22.75 Z"/>
  <path fill="#292D32" d="M8.501,11.381 C10.092,11.381 11.381,10.092 11.381,8.501 C11.381,6.911 10.092,5.621 8.501,5.621 C6.911,5.621 5.621,6.911 5.621,8.501 C5.621,10.092 6.911,11.381 8.501,11.381 Z"/>
  <path fill="#292D32" d="M7.501,18.381 C8.539,18.381 9.381,17.539 9.381,16.501 C9.381,15.463 8.539,14.621 7.501,14.621 C6.463,14.621 5.621,15.463 5.621,16.501 C5.621,17.539 6.463,18.381 7.501,18.381 Z"/>
  <path fill="#292D32" d="M16.501,9.381 C17.539,9.381 18.381,8.539 18.381,7.501 C18.381,6.463 17.539,5.621 16.501,5.621 C15.463,5.621 14.621,6.463 14.621,7.501 C14.621,8.539 15.463,9.381 16.501,9.381 Z"/>
  <path fill="#292D32" d="M15.501,18.381 C17.092,18.381 18.381,17.092 18.381,15.501 C18.381,13.911 17.092,12.621 15.501,12.621 C13.911,12.621 12.621,13.911 12.621,15.501 C12.621,17.092 13.911,18.381 15.501,18.381 Z"/>
</svg>

