<svg xmlns="http://www.w3.org/2000/svg" width="24" height="24" viewBox="0 0 24 24">
  <defs/>
  <path fill="#292D32" d="M22,9.75 C21.59,9.75 21.25,9.41 21.25,9 L21.25,7 C21.25,4.42 19.58,2.75 17,2.75 L7,2.75 C4.42,2.75 2.75,4.42 2.75,7 L2.75,9 C2.75,9.41 2.41,9.75 2,9.75 C1.59,9.75 1.25,9.41 1.25,9 L1.25,7 C1.25,3.56 3.56,1.25 7,1.25 L17,1.25 C20.44,1.25 22.75,3.56 22.75,7 L22.75,9 C22.75,9.41 22.41,9.75 22,9.75 Z"/>
  <path fill="#292D32" d="M17,22.75 L7,22.75 C3.56,22.75 1.25,20.44 1.25,17 L1.25,15 C1.25,14.59 1.59,14.25 2,14.25 C2.41,14.25 2.75,14.59 2.75,15 L2.75,17 C2.75,19.58 4.42,21.25 7,21.25 L17,21.25 C19.58,21.25 21.25,19.58 21.25,17 L21.25,15 C21.25,14.59 21.59,14.25 22,14.25 C22.41,14.25 22.75,14.59 22.75,15 L22.75,17 C22.75,20.44 20.44,22.75 17,22.75 Z"/>
  <path fill="#292D32" d="M22,12.75 L2,12.75 C1.59,12.75 1.25,12.41 1.25,12 C1.25,11.59 1.59,11.25 2,11.25 L22,11.25 C22.41,11.25 22.75,11.59 22.75,12 C22.75,12.41 22.41,12.75 22,12.75 Z"/>
  <path fill="#292D32" opacity="0.4" d="M16.5,9 L7.5,9 C7.22,9 7,8.78 7,8.5 L7,6.5 C7,5.68 7.67,5 8.5,5 L15.5,5 C16.33,5 17,5.68 17,6.5 L17,8.5 C17,8.78 16.78,9 16.5,9 Z"/>
  <path fill="#292D32" opacity="0.4" d="M16.5,15 L7.5,15 C7.22,15 7,15.22 7,15.5 L7,17.5 C7,18.32 7.67,19 8.5,19 L15.5,19 C16.33,19 17,18.32 17,17.5 L17,15.5 C17,15.22 16.78,15 16.5,15 Z"/>
</svg>

