<svg xmlns="http://www.w3.org/2000/svg" width="24" height="24" viewBox="0 0 24 24">
  <defs/>
  <path fill="#292D32" d="M1.25,9 L1.25,6.5 Q1.25,4.322 2.786,2.786 Q4.322,1.25 6.5,1.25 L9,1.25 Q9.311,1.25 9.53,1.47 Q9.75,1.689 9.75,2 Q9.75,2.311 9.53,2.53 Q9.311,2.75 9,2.75 L6.5,2.75 Q2.75,2.75 2.75,6.5 L2.75,9 Q2.75,9.311 2.53,9.53 Q2.311,9.75 2,9.75 Q1.689,9.75 1.47,9.53 Q1.25,9.311 1.25,9 Z"/>
  <path fill="#292D32" d="M15,1.25 L17.5,1.25 Q19.678,1.25 21.214,2.786 Q22.75,4.322 22.75,6.5 L22.75,9 Q22.75,9.311 22.53,9.53 Q22.311,9.75 22,9.75 Q21.689,9.75 21.47,9.53 Q21.25,9.311 21.25,9 L21.25,6.5 Q21.25,2.75 17.5,2.75 L15,2.75 Q14.689,2.75 14.47,2.53 Q14.25,2.311 14.25,2 Q14.25,1.689 14.47,1.47 Q14.689,1.25 15,1.25 Z"/>
  <path fill="#292D32" d="M22.75,16 L22.75,17.5 Q22.75,19.678 21.214,21.214 Q19.678,22.75 17.5,22.75 L16,22.75 Q15.689,22.75 15.47,22.53 Q15.25,22.311 15.25,22 Q15.25,21.689 15.47,21.47 Q15.689,21.25 16,21.25 L17.5,21.25 Q21.25,21.25 21.25,17.5 L21.25,16 Q21.25,15.689 21.47,15.47 Q21.689,15.25 22,15.25 Q22.311,15.25 22.53,15.47 Q22.75,15.689 22.75,16 Z"/>
  <path fill="#292D32" d="M9,22.75 L6.5,22.75 Q4.322,22.75 2.786,21.214 Q1.25,19.678 1.25,17.5 L1.25,15 Q1.25,14.689 1.47,14.47 Q1.689,14.25 2,14.25 Q2.311,14.25 2.53,14.47 Q2.75,14.689 2.75,15 L2.75,17.5 Q2.75,21.25 6.5,21.25 L9,21.25 Q9.311,21.25 9.53,21.47 Q9.75,21.689 9.75,22 Q9.75,22.311 9.53,22.53 Q9.311,22.75 9,22.75 Z"/>
  <path fill="#292D32" d="M17.75,9.5 L17.75,14.5 Q17.75,18.25 14,18.25 L10,18.25 Q6.25,18.25 6.25,14.5 L6.25,9.5 Q6.25,5.75 10,5.75 L14,5.75 Q17.75,5.75 17.75,9.5 Z M16.25,9.5 Q16.25,7.25 14,7.25 L10,7.25 Q7.75,7.25 7.75,9.5 L7.75,14.5 Q7.75,16.75 10,16.75 L14,16.75 Q16.25,16.75 16.25,14.5 Z"/>
  <path fill="#292D32" d="M19,12.75 L5,12.75 Q4.689,12.75 4.47,12.53 Q4.25,12.311 4.25,12 Q4.25,11.689 4.47,11.47 Q4.689,11.25 5,11.25 L19,11.25 Q19.311,11.25 19.53,11.47 Q19.75,11.689 19.75,12 Q19.75,12.311 19.53,12.53 Q19.311,12.75 19,12.75 Z"/>
</svg>

