<svg xmlns="http://www.w3.org/2000/svg" width="24" height="24" viewBox="0 0 24 24">
  <defs/>
  <path fill="#292D32" d="M11.029,1.25 L16.999,1.25 Q22.749,1.25 22.749,7 L22.749,9 Q22.749,9.311 22.53,9.53 Q22.31,9.75 21.999,9.75 Q21.689,9.75 21.469,9.53 Q21.249,9.311 21.249,9 L21.249,7 Q21.249,2.75 16.999,2.75 L11.029,2.75 Q10.719,2.75 10.499,2.53 Q10.279,2.311 10.279,2 Q10.279,1.689 10.499,1.47 Q10.719,1.25 11.029,1.25 Z"/>
  <path fill="#292D32" d="M1.25,9 L1.25,7 Q1.25,1.25 7,1.25 Q7.311,1.25 7.53,1.47 Q7.75,1.689 7.75,2 Q7.75,2.311 7.53,2.53 Q7.311,2.75 7,2.75 Q2.75,2.75 2.75,7 L2.75,9 Q2.75,9.311 2.53,9.53 Q2.311,9.75 2,9.75 Q1.689,9.75 1.47,9.53 Q1.25,9.311 1.25,9 Z"/>
  <path fill="#292D32" d="M2.75,15 L2.75,17 Q2.75,21.25 7,21.25 L17,21.25 Q21.25,21.25 21.25,17 L21.25,15 Q21.25,14.689 21.47,14.47 Q21.689,14.25 22,14.25 Q22.311,14.25 22.53,14.47 Q22.75,14.689 22.75,15 L22.75,17 Q22.75,22.75 17,22.75 L7,22.75 Q1.25,22.75 1.25,17 L1.25,15 Q1.25,14.689 1.47,14.47 Q1.689,14.25 2,14.25 Q2.311,14.25 2.53,14.47 Q2.75,14.689 2.75,15 Z"/>
  <path fill="#292D32" d="M2,11.25 L8,11.25 Q8.311,11.25 8.53,11.47 Q8.75,11.689 8.75,12 Q8.75,12.311 8.53,12.53 Q8.311,12.75 8,12.75 L2,12.75 Q1.689,12.75 1.47,12.53 Q1.25,12.311 1.25,12 Q1.25,11.689 1.47,11.47 Q1.689,11.25 2,11.25 Z"/>
  <path fill="#292D32" d="M11,11.25 L22,11.25 Q22.311,11.25 22.53,11.47 Q22.75,11.689 22.75,12 Q22.75,12.311 22.53,12.53 Q22.311,12.75 22,12.75 L11,12.75 Q10.689,12.75 10.47,12.53 Q10.25,12.311 10.25,12 Q10.25,11.689 10.47,11.47 Q10.689,11.25 11,11.25 Z"/>
</svg>

