<svg xmlns="http://www.w3.org/2000/svg" width="24" height="24" viewBox="0 0 24 24">
  <defs/>
  <path fill="#292D32" opacity="0.4" d="M2.77,10 C2.34,10 2,9.66 2,9.23 L2,6.92 C2,4.21 4.21,2 6.92,2 L9.23,2 C9.66,2 10,2.34 10,2.77 C10,3.2 9.66,3.54 9.23,3.54 L6.92,3.54 C5.05,3.54 3.54,5.06 3.54,6.92 L3.54,9.23 C3.54,9.66 3.19,10 2.77,10 Z"/>
  <path fill="#292D32" opacity="0.4" d="M21.23,10 C20.81,10 20.46,9.66 20.46,9.23 L20.46,6.92 C20.46,5.05 18.94,3.54 17.08,3.54 L14.77,3.54 C14.34,3.54 14,3.19 14,2.77 C14,2.35 14.34,2 14.77,2 L17.08,2 C19.79,2 22,4.21 22,6.92 L22,9.23 C22,9.66 21.66,10 21.23,10 Z"/>
  <path fill="#292D32" d="M17.08,22 L15.69,22 C15.27,22 14.92,21.66 14.92,21.23 C14.92,20.81 15.26,20.46 15.69,20.46 L17.08,20.46 C18.95,20.46 20.46,18.94 20.46,17.08 L20.46,15.7 C20.46,15.28 20.8,14.93 21.23,14.93 C21.65,14.93 22,15.27 22,15.7 L22,17.08 C22,19.79 19.79,22 17.08,22 Z"/>
  <path fill="#292D32" d="M9.23,22 L6.92,22 C4.21,22 2,19.79 2,17.08 L2,14.77 C2,14.34 2.34,14 2.77,14 C3.2,14 3.54,14.34 3.54,14.77 L3.54,17.08 C3.54,18.95 5.06,20.46 6.92,20.46 L9.23,20.46 C9.65,20.46 10,20.8 10,21.23 C10,21.66 9.66,22 9.23,22 Z"/>
  <path fill="#292D32" d="M18.459,11.23 L17.099,11.23 L6.9,11.23 L5.54,11.23 C5.11,11.23 4.77,11.58 4.77,12 C4.77,12.42 5.11,12.77 5.54,12.77 L6.9,12.77 L17.099,12.77 L18.459,12.77 C18.89,12.77 19.23,12.42 19.23,12 C19.23,11.58 18.89,11.23 18.459,11.23 Z"/>
  <path fill="#292D32" d="M6.9,13.94 L6.9,14.27 C6.9,15.93 8.24,17.27 9.9,17.27 L14.1,17.27 C15.76,17.27 17.1,15.93 17.1,14.27 L17.1,13.94 C17.1,13.82 17.01,13.73 16.89,13.73 L7.11,13.73 C6.99,13.73 6.9,13.82 6.9,13.94 Z"/>
  <path fill="#292D32" opacity="0.4" d="M6.9,10.06 L6.9,9.73 C6.9,8.07 8.24,6.73 9.9,6.73 L14.1,6.73 C15.76,6.73 17.1,8.07 17.1,9.73 L17.1,10.06 C17.1,10.18 17.01,10.27 16.89,10.27 L7.11,10.27 C6.99,10.27 6.9,10.18 6.9,10.06 Z"/>
</svg>

