<svg xmlns="http://www.w3.org/2000/svg" width="24" height="24" viewBox="0 0 24 24">
  <defs/>
  <path fill="#292D32" d="M5.5,10 C7.433,10 9,8.433 9,6.5 C9,4.567 7.433,3 5.5,3 C3.567,3 2,4.567 2,6.5 C2,8.433 3.567,10 5.5,10 Z"/>
  <path fill="#292D32" d="M5.5,21 C7.433,21 9,19.433 9,17.5 C9,15.567 7.433,14 5.5,14 C3.567,14 2,15.567 2,17.5 C2,19.433 3.567,21 5.5,21 Z"/>
  <path fill="#292D32" d="M15.249,11.98 L22.449,6.6 C22.779,6.35 22.849,5.88 22.599,5.55 C22.349,5.22 21.879,5.15 21.549,5.4 L13.999,11.05 L8.449,6.89 C8.119,6.65 7.649,6.71 7.399,7.04 C7.149,7.37 7.219,7.84 7.549,8.09 L12.749,11.98 L6.849,16.4 C6.519,16.65 6.449,17.12 6.699,17.45 C6.849,17.65 7.069,17.75 7.299,17.75 C7.459,17.75 7.609,17.7 7.749,17.6 L13.999,12.92 L21.549,18.57 C21.679,18.67 21.839,18.72 21.999,18.72 C22.229,18.72 22.449,18.62 22.599,18.42 C22.849,18.09 22.779,17.62 22.449,17.37 L15.249,11.98 Z"/>
</svg>

