<svg xmlns="http://www.w3.org/2000/svg" width="24" height="24" viewBox="0 0 24 24">
  <defs/>
  <path fill="#292D32" opacity="0.4" d="M16.19,2 L7.82,2 C4.18,2 2.01,4.17 2.01,7.81 L2.01,16.18 C2.01,19.82 4.18,21.99 7.82,21.99 L16.19,21.99 C19.83,21.99 22,19.82 22,16.18 L22,7.81 C22,4.17 19.83,2 16.19,2 Z"/>
  <path fill="#292D32" d="M14.169,11.99 L17.769,9.3 C18.099,9.05 18.169,8.58 17.919,8.25 C17.669,7.92 17.199,7.85 16.869,8.1 L12.919,11.05 L10.519,9.25 C10.529,9.16 10.549,9.07 10.549,8.97 C10.549,7.7 9.519,6.67 8.249,6.67 C6.979,6.67 5.949,7.7 5.949,8.97 C5.949,10.24 6.979,11.27 8.249,11.27 C8.869,11.27 9.429,11.02 9.849,10.62 L11.679,11.99 L9.839,13.37 C9.429,12.98 8.869,12.73 8.259,12.73 C6.989,12.73 5.959,13.76 5.959,15.03 C5.959,16.3 6.989,17.33 8.259,17.33 C9.529,17.33 10.559,16.3 10.559,15.03 C10.559,14.93 10.539,14.83 10.529,14.73 L12.939,12.93 L16.889,15.88 C17.019,15.98 17.179,16.03 17.339,16.03 C17.569,16.03 17.789,15.93 17.939,15.73 C18.189,15.4 18.119,14.93 17.789,14.68 L14.169,11.99 Z"/>
</svg>

