<svg xmlns="http://www.w3.org/2000/svg" width="24" height="24" viewBox="0 0 24 24">
  <defs/>
  <path fill="#292D32" d="M15,22.75 L9,22.75 C3.57,22.75 1.25,20.43 1.25,15 L1.25,9 C1.25,3.57 3.57,1.25 9,1.25 L15,1.25 C20.43,1.25 22.75,3.57 22.75,9 L22.75,15 C22.75,20.43 20.43,22.75 15,22.75 Z M9,2.75 C4.39,2.75 2.75,4.39 2.75,9 L2.75,15 C2.75,19.61 4.39,21.25 9,21.25 L15,21.25 C19.61,21.25 21.25,19.61 21.25,15 L21.25,9 C21.25,4.39 19.61,2.75 15,2.75 L9,2.75 Z"/>
  <path fill="#292D32" d="M8.42,11.65 C6.95,11.65 5.75,10.45 5.75,8.98 C5.75,7.51 6.95,6.3 8.42,6.3 C9.89,6.3 11.09,7.5 11.09,8.98 C11.09,10.46 9.9,11.65 8.42,11.65 Z M8.42,7.8 C7.77,7.8 7.25,8.33 7.25,8.98 C7.25,9.63 7.78,10.15 8.42,10.15 C9.06,10.15 9.59,9.62 9.59,8.98 C9.59,8.34 9.07,7.8 8.42,7.8 Z"/>
  <path fill="#292D32" d="M8.42,17.7 C6.95,17.7 5.75,16.5 5.75,15.02 C5.75,13.54 6.95,12.35 8.42,12.35 C9.89,12.35 11.09,13.55 11.09,15.02 C11.09,16.49 9.9,17.7 8.42,17.7 Z M8.42,13.85 C7.77,13.85 7.25,14.38 7.25,15.02 C7.25,15.66 7.78,16.2 8.42,16.2 C9.06,16.2 9.59,15.67 9.59,15.02 C9.59,14.37 9.07,13.85 8.42,13.85 Z"/>
  <path fill="#292D32" d="M10.16,14.94 C9.93,14.94 9.71,14.84 9.56,14.64 C9.31,14.31 9.38,13.84 9.71,13.59 L17.05,8.1 C17.38,7.85 17.85,7.92 18.1,8.25 C18.35,8.58 18.28,9.05 17.95,9.3 L10.61,14.79 C10.47,14.89 10.32,14.94 10.16,14.94 Z"/>
  <path fill="#292D32" d="M17.5,16.03 C17.34,16.03 17.19,15.98 17.05,15.88 L9.71,10.39 C9.38,10.14 9.31,9.67 9.56,9.34 C9.81,9.01 10.28,8.94 10.61,9.19 L17.95,14.68 C18.28,14.93 18.35,15.4 18.1,15.73 C17.95,15.93 17.73,16.03 17.5,16.03 Z"/>
</svg>

