<svg xmlns="http://www.w3.org/2000/svg" width="24" height="24" viewBox="0 0 24 24">
  <defs/>
  <path fill="#292D32" d="M5.5,10.75 C3.16,10.75 1.25,8.84 1.25,6.5 C1.25,4.16 3.16,2.25 5.5,2.25 C7.84,2.25 9.75,4.16 9.75,6.5 C9.75,8.84 7.84,10.75 5.5,10.75 Z M5.5,3.75 C3.98,3.75 2.75,4.98 2.75,6.5 C2.75,8.02 3.98,9.25 5.5,9.25 C7.02,9.25 8.25,8.02 8.25,6.5 C8.25,4.98 7.02,3.75 5.5,3.75 Z"/>
  <path fill="#292D32" d="M5.5,21.75 C3.16,21.75 1.25,19.84 1.25,17.5 C1.25,15.16 3.16,13.25 5.5,13.25 C7.84,13.25 9.75,15.16 9.75,17.5 C9.75,19.84 7.84,21.75 5.5,21.75 Z M5.5,14.75 C3.98,14.75 2.75,15.98 2.75,17.5 C2.75,19.02 3.98,20.25 5.5,20.25 C7.02,20.25 8.25,19.02 8.25,17.5 C8.25,15.98 7.02,14.75 5.5,14.75 Z"/>
  <path fill="#292D32" d="M8.651,16.73 C8.421,16.73 8.201,16.63 8.051,16.43 C7.801,16.1 7.871,15.63 8.201,15.38 L21.551,5.4 C21.881,5.15 22.351,5.22 22.601,5.55 C22.851,5.88 22.781,6.35 22.451,6.6 L9.101,16.58 C8.971,16.68 8.811,16.73 8.651,16.73 Z"/>
  <path fill="#292D32" d="M22.001,18.72 C21.841,18.72 21.691,18.67 21.551,18.57 L8.201,8.59 C7.871,8.34 7.801,7.87 8.051,7.54 C8.301,7.21 8.771,7.14 9.101,7.39 L22.451,17.37 C22.781,17.62 22.851,18.09 22.601,18.42 C22.451,18.61 22.231,18.72 22.001,18.72 Z"/>
</svg>

