<svg xmlns="http://www.w3.org/2000/svg" width="24" height="24" viewBox="0 0 24 24">
  <defs/>
  <path fill="#292D32" d="M5.5,10 C7.433,10 9,8.433 9,6.5 C9,4.567 7.433,3 5.5,3 C3.567,3 2,4.567 2,6.5 C2,8.433 3.567,10 5.5,10 Z"/>
  <path fill="#292D32" d="M5.5,21 C7.433,21 9,19.433 9,17.5 C9,15.567 7.433,14 5.5,14 C3.567,14 2,15.567 2,17.5 C2,19.433 3.567,21 5.5,21 Z"/>
  <path fill="#292D32" opacity="0.4" d="M15.249,11.98 L22.449,6.6 C22.779,6.35 22.849,5.88 22.599,5.55 C22.349,5.22 21.879,5.15 21.549,5.4 L13.999,11.05 L8.449,6.9 C8.119,6.65 7.649,6.72 7.399,7.05 C7.149,7.38 7.219,7.85 7.549,8.1 L12.749,11.99 L6.849,16.41 C6.519,16.66 6.449,17.13 6.699,17.46 C6.849,17.66 7.069,17.76 7.299,17.76 C7.459,17.76 7.609,17.71 7.749,17.61 L14.009,12.93 L21.559,18.58 C21.689,18.68 21.849,18.73 22.009,18.73 C22.239,18.73 22.459,18.63 22.609,18.43 C22.859,18.1 22.789,17.63 22.459,17.38 L15.249,11.98 Z"/>
</svg>

