<svg xmlns="http://www.w3.org/2000/svg" width="24" height="24" viewBox="0 0 24 24">
  <defs/>
  <path fill="#292D32" d="M15,22.75 L9,22.75 C3.57,22.75 1.25,20.43 1.25,15 L1.25,9 C1.25,3.57 3.57,1.25 9,1.25 L15,1.25 C20.43,1.25 22.75,3.57 22.75,9 L22.75,15 C22.75,20.43 20.43,22.75 15,22.75 Z M9,2.75 C4.39,2.75 2.75,4.39 2.75,9 L2.75,15 C2.75,19.61 4.39,21.25 9,21.25 L15,21.25 C19.61,21.25 21.25,19.61 21.25,15 L21.25,9 C21.25,4.39 19.61,2.75 15,2.75 L9,2.75 Z"/>
  <path fill="#292D32" d="M16.4,19.25 L12.6,19.25 C10.68,19.25 9.75,18.32 9.75,16.4 L9.75,14.6 C9.75,12.68 10.68,11.75 12.6,11.75 L16.4,11.75 C18.32,11.75 19.25,12.68 19.25,14.6 L19.25,16.4 C19.25,18.32 18.32,19.25 16.4,19.25 Z M12.6,13.25 C11.52,13.25 11.25,13.52 11.25,14.6 L11.25,16.4 C11.25,17.48 11.52,17.75 12.6,17.75 L16.4,17.75 C17.48,17.75 17.75,17.48 17.75,16.4 L17.75,14.6 C17.75,13.52 17.48,13.25 16.4,13.25 L12.6,13.25 Z"/>
</svg>

