<svg xmlns="http://www.w3.org/2000/svg" width="24" height="24" viewBox="0 0 24 24">
  <defs/>
  <path fill="#292D32" d="M2.75,12.98 L2.75,15 Q2.75,18.439 4.155,19.845 Q5.561,21.25 9,21.25 L15,21.25 Q18.439,21.25 19.845,19.845 Q21.25,18.439 21.25,15 L21.25,9 Q21.25,2.75 15,2.75 L9,2.75 Q2.75,2.75 2.75,9 Q2.75,9.311 2.53,9.53 Q2.311,9.75 2,9.75 Q1.689,9.75 1.47,9.53 Q1.25,9.311 1.25,9 Q1.25,1.25 9,1.25 L15,1.25 Q22.75,1.25 22.75,9 L22.75,15 Q22.75,22.75 15,22.75 L9,22.75 Q1.25,22.75 1.25,15 L1.25,12.98 Q1.25,12.669 1.47,12.45 Q1.689,12.23 2,12.23 Q2.311,12.23 2.53,12.45 Q2.75,12.669 2.75,12.98 Z"/>
  <path fill="#292D32" d="M12.6,19.25 Q11.164,19.25 10.457,18.543 Q9.75,17.836 9.75,16.4 L9.75,14.6 Q9.75,11.75 12.6,11.75 L16.4,11.75 Q19.25,11.75 19.25,14.6 L19.25,16.4 Q19.25,19.25 16.4,19.25 Z M12.6,17.75 L16.4,17.75 Q17.75,17.75 17.75,16.4 L17.75,14.6 Q17.75,13.25 16.4,13.25 L12.6,13.25 Q11.25,13.25 11.25,14.6 L11.25,16.4 Q11.25,17.75 12.6,17.75 Z"/>
</svg>

