<svg xmlns="http://www.w3.org/2000/svg" width="24" height="24" viewBox="0 0 24 24">
  <defs/>
  <path fill="#292D32" opacity="0.4" d="M16.19,2 L7.81,2 C4.17,2 2,4.17 2,7.81 L2,16.18 C2,19.83 4.17,22 7.81,22 L16.18,22 C19.82,22 21.99,19.83 21.99,16.19 L21.99,7.81 C22,4.17 19.83,2 16.19,2 Z"/>
  <path fill="#292D32" d="M12.6,18.5 L16.4,18.5 C17.9,18.5 18.5,17.9 18.5,16.4 L18.5,14.6 C18.5,13.1 17.9,12.5 16.4,12.5 L12.6,12.5 C11.1,12.5 10.5,13.1 10.5,14.6 L10.5,16.4 C10.5,17.9 11.1,18.5 12.6,18.5 Z"/>
</svg>

