<svg xmlns="http://www.w3.org/2000/svg" width="24" height="24" viewBox="0 0 24 24">
  <defs/>
  <path fill="#292D32" d="M16.19,2 L7.81,2 C4.17,2 2,4.17 2,7.81 L2,16.18 C2,19.83 4.17,22 7.81,22 L16.18,22 C19.82,22 21.99,19.83 21.99,16.19 L21.99,7.81 C22,4.17 19.83,2 16.19,2 Z M10.13,14.5 C10.42,14.79 10.42,15.27 10.13,15.56 C9.98,15.71 9.79,15.78 9.6,15.78 C9.41,15.78 9.22,15.71 9.07,15.56 L6.58,13.07 C5.99,12.48 5.99,11.53 6.58,10.94 L9.07,8.45 C9.36,8.16 9.84,8.16 10.13,8.45 C10.42,8.74 10.42,9.22 10.13,9.51 L7.64,12 L10.13,14.5 Z M17.42,13.06 L14.93,15.55 C14.78,15.7 14.59,15.77 14.4,15.77 C14.21,15.77 14.02,15.7 13.87,15.55 C13.58,15.26 13.58,14.78 13.87,14.49 L16.36,12 L13.87,9.5 C13.58,9.21 13.58,8.73 13.87,8.44 C14.16,8.15 14.64,8.15 14.93,8.44 L17.42,10.93 C18.01,11.52 18.01,12.48 17.42,13.06 Z"/>
</svg>

