<svg xmlns="http://www.w3.org/2000/svg" width="24" height="24" viewBox="0 0 24 24">
  <defs/>
  <path fill="#292D32" d="M9,22.75 Q1.25,22.75 1.25,15 L1.25,9 Q1.25,1.25 9,1.25 L15,1.25 Q22.75,1.25 22.75,9 L22.75,15 Q22.75,22.75 15,22.75 Z M9,21.25 L15,21.25 Q18.439,21.25 19.845,19.845 Q21.25,18.439 21.25,15 L21.25,9 Q21.25,2.75 15,2.75 L9,2.75 Q2.75,2.75 2.75,9 L2.75,15 Q2.75,18.439 4.155,19.845 Q5.561,21.25 9,21.25 Z"/>
  <path fill="#292D32" opacity="0.4" d="M10.13,9.501 L7.64,11.991 Q7.638,11.993 7.638,11.995 Q7.638,11.998 7.64,12 L10.13,14.49 Q10.35,14.71 10.35,15.02 Q10.35,15.331 10.13,15.551 Q9.911,15.77 9.6,15.77 Q9.289,15.77 9.07,15.551 L6.58,13.061 Q6.143,12.623 6.143,11.995 Q6.143,11.367 6.58,10.93 L9.07,8.44 Q9.289,8.22 9.6,8.22 Q9.911,8.22 10.13,8.44 Q10.35,8.66 10.35,8.97 Q10.35,9.281 10.13,9.501 Z"/>
  <path fill="#292D32" opacity="0.4" d="M14.931,8.44 L17.421,10.93 Q17.858,11.367 17.858,11.995 Q17.858,12.623 17.421,13.061 L14.931,15.551 Q14.711,15.77 14.4,15.77 Q14.09,15.77 13.87,15.551 Q13.65,15.331 13.65,15.02 Q13.65,14.71 13.87,14.49 L16.36,12 L16.358,11.995 L16.36,11.991 L13.87,9.501 Q13.65,9.281 13.65,8.97 Q13.65,8.66 13.87,8.44 Q14.09,8.22 14.4,8.22 Q14.711,8.22 14.931,8.44 Z"/>
</svg>

