<svg xmlns="http://www.w3.org/2000/svg" width="24" height="24" viewBox="0 0 24 24">
  <defs/>
  <path fill="#292D32" d="M2.75,12.97 L2.75,15 Q2.75,18.439 4.155,19.845 Q5.561,21.25 9,21.25 L15,21.25 Q18.439,21.25 19.845,19.845 Q21.25,18.439 21.25,15 L21.25,9 Q21.25,2.75 15,2.75 L9,2.75 Q2.75,2.75 2.75,9 Q2.75,9.311 2.53,9.53 Q2.311,9.75 2,9.75 Q1.689,9.75 1.47,9.53 Q1.25,9.311 1.25,9 Q1.25,1.25 9,1.25 L15,1.25 Q22.75,1.25 22.75,9 L22.75,15 Q22.75,22.75 15,22.75 L9,22.75 Q1.25,22.75 1.25,15 L1.25,12.97 Q1.25,12.659 1.47,12.44 Q1.689,12.22 2,12.22 Q2.311,12.22 2.53,12.44 Q2.75,12.659 2.75,12.97 Z"/>
  <path fill="#292D32" d="M10.13,9.5 L7.64,11.99 Q7.638,11.993 7.638,11.995 Q7.638,11.997 7.64,12 L10.13,14.49 Q10.35,14.709 10.35,15.02 Q10.35,15.331 10.13,15.55 Q9.911,15.77 9.6,15.77 Q9.289,15.77 9.07,15.55 L6.58,13.06 Q6.143,12.623 6.143,11.995 Q6.143,11.367 6.58,10.93 L9.07,8.44 Q9.289,8.22 9.6,8.22 Q9.911,8.22 10.13,8.44 Q10.35,8.659 10.35,8.97 Q10.35,9.281 10.13,9.5 Z"/>
  <path fill="#292D32" d="M14.931,8.44 L17.421,10.93 Q17.858,11.367 17.858,11.995 Q17.858,12.623 17.421,13.06 L14.931,15.55 Q14.711,15.77 14.4,15.77 Q14.09,15.77 13.87,15.55 Q13.65,15.331 13.65,15.02 Q13.65,14.709 13.87,14.49 L16.36,12 Q16.365,11.995 16.36,11.99 L13.87,9.5 Q13.65,9.281 13.65,8.97 Q13.65,8.659 13.87,8.44 Q14.09,8.22 14.4,8.22 Q14.711,8.22 14.931,8.44 Z"/>
</svg>

