<svg xmlns="http://www.w3.org/2000/svg" width="24" height="24" viewBox="0 0 24 24">
  <defs/>
  <path fill="#292D32" d="M15,22.75 L9,22.75 C3.57,22.75 1.25,20.43 1.25,15 L1.25,9 C1.25,3.57 3.57,1.25 9,1.25 L15,1.25 C20.43,1.25 22.75,3.57 22.75,9 L22.75,15 C22.75,20.43 20.43,22.75 15,22.75 Z M9,2.75 C4.39,2.75 2.75,4.39 2.75,9 L2.75,15 C2.75,19.61 4.39,21.25 9,21.25 L15,21.25 C19.61,21.25 21.25,19.61 21.25,15 L21.25,9 C21.25,4.39 19.61,2.75 15,2.75 L9,2.75 Z"/>
  <path fill="#292D32" d="M9.599,15.78 C9.409,15.78 9.219,15.71 9.069,15.56 L6.579,13.07 C5.989,12.48 5.989,11.53 6.579,10.94 L9.069,8.45 C9.359,8.16 9.839,8.16 10.129,8.45 C10.419,8.74 10.419,9.22 10.129,9.51 L7.639,12 L10.129,14.5 C10.419,14.79 10.419,15.27 10.129,15.56 C9.979,15.7 9.789,15.78 9.599,15.78 Z"/>
  <path fill="#292D32" d="M14.4,15.78 C14.21,15.78 14.02,15.71 13.87,15.56 C13.58,15.27 13.58,14.79 13.87,14.5 L16.36,12 L13.87,9.5 C13.58,9.21 13.58,8.73 13.87,8.44 C14.16,8.15 14.64,8.15 14.93,8.44 L17.42,10.93 C18.01,11.52 18.01,12.47 17.42,13.06 L14.93,15.55 C14.79,15.7 14.59,15.78 14.4,15.78 Z"/>
</svg>

