<svg xmlns="http://www.w3.org/2000/svg" width="24" height="24" viewBox="0 0 24 24">
  <defs/>
  <path fill="#292D32" opacity="0.4" d="M11,20.01 C15.976,20.01 20.01,15.976 20.01,11 C20.01,6.024 15.976,1.99 11,1.99 C6.024,1.99 1.99,6.024 1.99,11 C1.99,15.976 6.024,20.01 11,20.01 Z"/>
  <path fill="#292D32" d="M12.77,8.29 C12.14,8.09 11.47,8.21 10.99,8.58 C10.5,8.21 9.85,8.09 9.22,8.29 C7.86,8.73 7.43,10.28 7.81,11.46 C8.39,13.27 10.3,14.21 10.99,14.21 C11.66,14.21 13.61,13.25 14.17,11.46 C14.56,10.28 14.13,8.73 12.77,8.29 Z"/>
  <path fill="#292D32" d="M21.99,18.95 C21.66,18.34 20.96,18 20.02,18 C19.31,18 18.7,18.29 18.34,18.79 C17.98,19.29 17.9,19.96 18.12,20.63 C18.55,21.93 19.3,22.22 19.71,22.27 C19.77,22.28 19.83,22.28 19.9,22.28 C20.34,22.28 21.02,22.09 21.68,21.1 C22.21,20.33 22.31,19.56 21.99,18.95 Z"/>
</svg>

