<svg xmlns="http://www.w3.org/2000/svg" width="24" height="24" viewBox="0 0 24 24">
  <defs/>
  <path fill="#292D32" opacity="0.4" d="M11.5,21 C16.747,21 21,16.747 21,11.5 C21,6.253 16.747,2 11.5,2 C6.253,2 2,6.253 2,11.5 C2,16.747 6.253,21 11.5,21 Z"/>
  <path fill="#292D32" d="M21.3,22 C21.12,22 20.941,21.93 20.811,21.8 L18.951,19.94 C18.68,19.67 18.68,19.23 18.951,18.95 C19.221,18.68 19.66,18.68 19.941,18.95 L21.8,20.81 C22.07,21.08 22.07,21.52 21.8,21.8 C21.66,21.93 21.48,22 21.3,22 Z"/>
</svg>

