<svg xmlns="http://www.w3.org/2000/svg" width="24" height="24" viewBox="0 0 24 24">
  <defs/>
  <path fill="#292D32" d="M21.3,21.999 C21.12,21.999 20.941,21.929 20.811,21.799 L18.951,19.939 C18.68,19.669 18.68,19.229 18.951,18.949 C19.221,18.679 19.66,18.679 19.941,18.949 L21.8,20.809 C22.07,21.079 22.07,21.519 21.8,21.799 C21.66,21.929 21.48,21.999 21.3,21.999 Z"/>
  <path fill="#292D32" d="M11.5,2 C6.26,2 2,6.26 2,11.5 C2,16.74 6.26,21 11.5,21 C16.74,21 21,16.74 21,11.5 C21,6.26 16.74,2 11.5,2 Z M14.68,12.06 C14.12,13.84 12.17,14.81 11.5,14.81 C10.81,14.81 8.9,13.88 8.32,12.06 C7.94,10.87 8.37,9.32 9.73,8.89 C10.35,8.69 11.01,8.81 11.5,9.18 C11.98,8.81 12.65,8.69 13.28,8.89 C14.63,9.33 15.06,10.88 14.68,12.06 Z"/>
</svg>

