<svg xmlns="http://www.w3.org/2000/svg" width="24" height="24" viewBox="0 0 24 24">
  <defs/>
  <path fill="#292D32" d="M1.25,11.5 Q1.25,7.252 4.251,4.251 Q7.252,1.25 11.5,1.25 Q11.811,1.25 12.03,1.47 Q12.25,1.689 12.25,2 Q12.25,2.311 12.03,2.53 Q11.811,2.75 11.5,2.75 Q7.873,2.75 5.312,5.312 Q2.75,7.873 2.75,11.5 Q2.75,11.811 2.53,12.03 Q2.311,12.25 2,12.25 Q1.689,12.25 1.47,12.03 Q1.25,11.811 1.25,11.5 Z"/>
  <path fill="#292D32" d="M21.751,11.5 Q21.751,15.748 18.75,18.749 Q15.749,21.75 11.501,21.75 Q5.117,21.75 2.298,16.021 Q2.161,15.742 2.261,15.448 Q2.361,15.154 2.64,15.017 Q2.918,14.88 3.212,14.98 Q3.506,15.08 3.644,15.359 Q6.05,20.25 11.501,20.25 Q15.128,20.25 17.689,17.688 Q20.251,15.127 20.251,11.5 Q20.251,11.189 20.47,10.97 Q20.69,10.75 21.001,10.75 Q21.311,10.75 21.531,10.97 Q21.751,11.189 21.751,11.5 Z"/>
  <path fill="#292D32" d="M14,4.25 L20,4.25 Q20.311,4.25 20.53,4.47 Q20.75,4.689 20.75,5 Q20.75,5.311 20.53,5.53 Q20.311,5.75 20,5.75 L14,5.75 Q13.689,5.75 13.47,5.53 Q13.25,5.311 13.25,5 Q13.25,4.689 13.47,4.47 Q13.689,4.25 14,4.25 Z"/>
  <path fill="#292D32" d="M14,7.25 L17,7.25 Q17.311,7.25 17.53,7.47 Q17.75,7.689 17.75,8 Q17.75,8.311 17.53,8.53 Q17.311,8.75 17,8.75 L14,8.75 Q13.689,8.75 13.47,8.53 Q13.25,8.311 13.25,8 Q13.25,7.689 13.47,7.47 Q13.689,7.25 14,7.25 Z"/>
  <path fill="#292D32" d="M21.47,22.53 L19.47,20.53 Q19.25,20.311 19.25,20 Q19.25,19.689 19.47,19.47 Q19.689,19.25 20,19.25 Q20.311,19.25 20.53,19.47 L22.53,21.47 Q22.75,21.689 22.75,22 Q22.75,22.311 22.53,22.53 Q22.311,22.75 22,22.75 Q21.689,22.75 21.47,22.53 Z"/>
</svg>

