<svg xmlns="http://www.w3.org/2000/svg" width="24" height="24" viewBox="0 0 24 24">
  <defs/>
  <path fill="#292D32" d="M21.75,11.5 Q21.75,15.748 18.749,18.749 Q15.748,21.75 11.5,21.75 Q7.252,21.75 4.251,18.749 Q1.25,15.748 1.25,11.5 Q1.25,7.252 4.251,4.251 Q7.252,1.25 11.5,1.25 Q11.811,1.25 12.03,1.47 Q12.25,1.689 12.25,2 Q12.25,2.311 12.03,2.53 Q11.811,2.75 11.5,2.75 Q7.873,2.75 5.312,5.312 Q2.75,7.873 2.75,11.5 Q2.75,15.127 5.312,17.688 Q7.873,20.25 11.5,20.25 Q15.127,20.25 17.688,17.688 Q20.25,15.127 20.25,11.5 Q20.25,11.189 20.47,10.97 Q20.689,10.75 21,10.75 Q21.311,10.75 21.53,10.97 Q21.75,11.189 21.75,11.5 Z"/>
  <path fill="#292D32" d="M21.47,22.53 L19.47,20.53 Q19.25,20.311 19.25,20 Q19.25,19.689 19.47,19.47 Q19.689,19.25 20,19.25 Q20.311,19.25 20.53,19.47 L22.53,21.47 Q22.75,21.689 22.75,22 Q22.75,22.311 22.53,22.53 Q22.311,22.75 22,22.75 Q21.689,22.75 21.47,22.53 Z"/>
  <path fill="#292D32" d="M13.785,6.357 Q12.85,3.418 15.492,2.575 Q16.653,2.195 17.493,2.781 Q18.308,2.192 19.516,2.575 Q22.16,3.418 21.225,6.357 Q20.788,7.747 19.443,8.723 Q18.317,9.54 17.51,9.54 Q16.695,9.54 15.577,8.731 Q14.238,7.764 13.786,6.36 Z M15.214,5.9 L15.215,5.903 Q15.904,8.04 17.51,8.04 Q19.123,8.04 19.795,5.903 Q20.276,4.392 19.063,4.005 Q18.436,3.806 18.137,4.261 Q18.062,4.376 17.952,4.456 Q17.701,4.639 17.394,4.591 Q17.087,4.543 16.904,4.292 Q16.55,3.807 15.948,4.004 Q14.735,4.391 15.214,5.9 Z"/>
</svg>

