<svg xmlns="http://www.w3.org/2000/svg" width="24" height="24" viewBox="0 0 24 24">
  <defs/>
  <path fill="#292D32" d="M11,20.75 C5.62,20.75 1.25,16.38 1.25,11 C1.25,5.62 5.62,1.25 11,1.25 C16.38,1.25 20.75,5.62 20.75,11 C20.75,16.38 16.38,20.75 11,20.75 Z M11,2.75 C6.45,2.75 2.75,6.45 2.75,11 C2.75,15.55 6.45,19.25 11,19.25 C15.55,19.25 19.25,15.55 19.25,11 C19.25,6.45 15.55,2.75 11,2.75 Z"/>
  <path fill="#292D32" d="M13.5,11.75 L8.5,11.75 C8.09,11.75 7.75,11.41 7.75,11 C7.75,10.59 8.09,10.25 8.5,10.25 L13.5,10.25 C13.91,10.25 14.25,10.59 14.25,11 C14.25,11.41 13.91,11.75 13.5,11.75 Z"/>
  <path fill="#292D32" d="M20.16,22.79 C20.08,22.79 20,22.78 19.93,22.77 C19.46,22.71 18.61,22.39 18.13,20.96 C17.88,20.21 17.97,19.46 18.38,18.89 C18.79,18.32 19.48,18 20.27,18 C21.29,18 22.09,18.39 22.45,19.08 C22.81,19.77 22.71,20.65 22.14,21.5 C21.43,22.57 20.66,22.79 20.16,22.79 Z M19.56,20.49 C19.73,21.01 19.97,21.27 20.13,21.29 C20.29,21.31 20.59,21.12 20.9,20.67 C21.19,20.24 21.21,19.93 21.14,19.79 C21.07,19.65 20.79,19.5 20.27,19.5 C19.96,19.5 19.73,19.6 19.6,19.77 C19.48,19.94 19.46,20.2 19.56,20.49 Z"/>
</svg>

