<svg xmlns="http://www.w3.org/2000/svg" width="24" height="24" viewBox="0 0 24 24">
  <defs/>
  <path fill="#292D32" d="M11,1.988 C6.03,1.988 1.99,6.028 1.99,10.998 C1.99,15.968 6.03,20.008 11,20.008 C15.97,20.008 20.01,15.968 20.01,10.998 C20.01,6.028 15.97,1.988 11,1.988 Z M14.18,11.558 C13.62,13.338 11.67,14.308 11,14.308 C10.31,14.308 8.4,13.378 7.82,11.558 C7.44,10.368 7.87,8.818 9.23,8.388 C9.85,8.188 10.51,8.308 11,8.678 C11.48,8.308 12.15,8.188 12.78,8.388 C14.13,8.828 14.56,10.378 14.18,11.558 Z"/>
  <path fill="#292D32" d="M21.99,18.95 C21.66,18.34 20.96,18 20.02,18 C19.31,18 18.7,18.29 18.34,18.79 C17.98,19.29 17.9,19.96 18.12,20.63 C18.55,21.93 19.3,22.22 19.71,22.27 C19.77,22.28 19.83,22.28 19.9,22.28 C20.34,22.28 21.02,22.09 21.68,21.1 C22.21,20.33 22.31,19.56 21.99,18.95 Z"/>
</svg>

