<svg xmlns="http://www.w3.org/2000/svg" width="24" height="24" viewBox="0 0 24 24">
  <defs/>
  <path fill="#292D32" d="M14.2,12.45 L9.2,12.45 C8.79,12.45 8.45,12.11 8.45,11.7 C8.45,11.29 8.79,10.95 9.2,10.95 L14.2,10.95 C14.61,10.95 14.95,11.29 14.95,11.7 C14.95,12.11 14.61,12.45 14.2,12.45 Z"/>
  <path fill="#292D32" d="M11.7,14.95 C11.29,14.95 10.95,14.61 10.95,14.2 L10.95,9.2 C10.95,8.79 11.29,8.45 11.7,8.45 C12.11,8.45 12.45,8.79 12.45,9.2 L12.45,14.2 C12.45,14.61 12.11,14.95 11.7,14.95 Z"/>
  <path fill="#292D32" d="M11.5,21.75 C5.85,21.75 1.25,17.15 1.25,11.5 C1.25,5.85 5.85,1.25 11.5,1.25 C17.15,1.25 21.75,5.85 21.75,11.5 C21.75,17.15 17.15,21.75 11.5,21.75 Z M11.5,2.75 C6.67,2.75 2.75,6.68 2.75,11.5 C2.75,16.32 6.67,20.25 11.5,20.25 C16.33,20.25 20.25,16.32 20.25,11.5 C20.25,6.68 16.33,2.75 11.5,2.75 Z"/>
  <path fill="#292D32" d="M22,22.75 C21.81,22.75 21.62,22.68 21.47,22.53 L19.47,20.53 C19.18,20.24 19.18,19.76 19.47,19.47 C19.76,19.18 20.24,19.18 20.53,19.47 L22.53,21.47 C22.82,21.76 22.82,22.24 22.53,22.53 C22.38,22.68 22.19,22.75 22,22.75 Z"/>
</svg>

