<svg xmlns="http://www.w3.org/2000/svg" width="24" height="24" viewBox="0 0 24 24">
  <defs/>
  <path fill="#292D32" d="M14.5,10.75 L8.5,10.75 C8.09,10.75 7.75,10.41 7.75,10 C7.75,9.59 8.09,9.25 8.5,9.25 L14.5,9.25 C14.91,9.25 15.25,9.59 15.25,10 C15.25,10.41 14.91,10.75 14.5,10.75 Z"/>
  <path fill="#292D32" d="M11.5,13.75 L8.5,13.75 C8.09,13.75 7.75,13.41 7.75,13 C7.75,12.59 8.09,12.25 8.5,12.25 L11.5,12.25 C11.91,12.25 12.25,12.59 12.25,13 C12.25,13.41 11.91,13.75 11.5,13.75 Z"/>
  <path fill="#292D32" opacity="0.4" d="M11.5,21 C16.747,21 21,16.747 21,11.5 C21,6.253 16.747,2 11.5,2 C6.253,2 2,6.253 2,11.5 C2,16.747 6.253,21 11.5,21 Z"/>
  <path fill="#292D32" d="M21.3,22 C21.12,22 20.941,21.93 20.811,21.8 L18.951,19.94 C18.68,19.67 18.68,19.23 18.951,18.95 C19.221,18.68 19.66,18.68 19.941,18.95 L21.8,20.81 C22.07,21.08 22.07,21.52 21.8,21.8 C21.66,21.93 21.48,22 21.3,22 Z"/>
</svg>

