<svg xmlns="http://www.w3.org/2000/svg" width="24" height="24" viewBox="0 0 24 24">
  <defs/>
  <path fill="#292D32" d="M11.5,2 C6.26,2 2,6.26 2,11.5 C2,16.74 6.26,21 11.5,21 C16.74,21 21,16.74 21,11.5 C21,6.26 16.74,2 11.5,2 Z M11.5,13.75 L8.5,13.75 C8.09,13.75 7.75,13.41 7.75,13 C7.75,12.59 8.09,12.25 8.5,12.25 L11.5,12.25 C11.91,12.25 12.25,12.59 12.25,13 C12.25,13.41 11.91,13.75 11.5,13.75 Z M14.5,10.75 L8.5,10.75 C8.09,10.75 7.75,10.41 7.75,10 C7.75,9.59 8.09,9.25 8.5,9.25 L14.5,9.25 C14.91,9.25 15.25,9.59 15.25,10 C15.25,10.41 14.91,10.75 14.5,10.75 Z"/>
  <path fill="#292D32" d="M21.3,21.999 C21.12,21.999 20.941,21.929 20.811,21.799 L18.951,19.939 C18.68,19.669 18.68,19.229 18.951,18.949 C19.221,18.679 19.66,18.679 19.941,18.949 L21.8,20.809 C22.07,21.079 22.07,21.519 21.8,21.799 C21.66,21.929 21.48,21.999 21.3,21.999 Z"/>
</svg>

