<svg xmlns="http://www.w3.org/2000/svg" width="24" height="24" viewBox="0 0 24 24">
  <defs/>
  <path fill="#292D32" d="M11.5,21 C16.747,21 21,16.747 21,11.5 C21,6.253 16.747,2 11.5,2 C6.253,2 2,6.253 2,11.5 C2,16.747 6.253,21 11.5,21 Z"/>
  <path fill="#292D32" d="M21.3,21.999 C21.12,21.999 20.941,21.929 20.811,21.799 L18.951,19.939 C18.68,19.669 18.68,19.229 18.951,18.949 C19.221,18.679 19.66,18.679 19.941,18.949 L21.8,20.809 C22.07,21.079 22.07,21.519 21.8,21.799 C21.66,21.929 21.48,21.999 21.3,21.999 Z"/>
</svg>

