<svg xmlns="http://www.w3.org/2000/svg" width="24" height="24" viewBox="0 0 24 24">
  <defs/>
  <path fill="#292D32" d="M11,1.25 Q15.038,1.25 17.894,4.106 Q20.75,6.962 20.75,11 Q20.75,15.038 17.894,17.894 Q15.038,20.75 11,20.75 Q6.962,20.75 4.106,17.894 Q1.25,15.038 1.25,11 Q1.25,5.017 6.59,2.301 Q6.867,2.161 7.162,2.257 Q7.458,2.353 7.599,2.63 Q7.739,2.907 7.643,3.202 Q7.547,3.498 7.27,3.639 Q2.75,5.937 2.75,11 Q2.75,14.417 5.167,16.833 Q7.583,19.25 11,19.25 Q14.417,19.25 16.833,16.833 Q19.25,14.417 19.25,11 Q19.25,7.583 16.833,5.167 Q14.417,2.75 11,2.75 Q10.689,2.75 10.47,2.53 Q10.25,2.311 10.25,2 Q10.25,1.689 10.47,1.47 Q10.689,1.25 11,1.25 Z"/>
  <path fill="#292D32" d="M18.359,21.207 L18.359,21.206 Q17.968,20.031 18.612,19.14 Q19.257,18.25 20.501,18.25 Q22.107,18.25 22.683,19.332 Q23.259,20.415 22.366,21.745 Q21.408,23.186 20.156,23.018 Q18.904,22.851 18.359,21.207 Z M19.783,20.734 Q20.033,21.488 20.356,21.532 Q20.678,21.575 21.116,20.915 Q21.512,20.325 21.359,20.038 Q21.206,19.75 20.501,19.75 Q20.023,19.75 19.827,20.02 Q19.634,20.287 19.783,20.733 Z"/>
</svg>

