<svg xmlns="http://www.w3.org/2000/svg" width="24" height="24" viewBox="0 0 24 24">
  <defs/>
  <path fill="#292D32" opacity="0.4" d="M14,4.25 L20,4.25 Q20.311,4.25 20.53,4.47 Q20.75,4.689 20.75,5 Q20.75,5.311 20.53,5.53 Q20.311,5.75 20,5.75 L14,5.75 Q13.689,5.75 13.47,5.53 Q13.25,5.311 13.25,5 Q13.25,4.689 13.47,4.47 Q13.689,4.25 14,4.25 Z"/>
  <path fill="#292D32" opacity="0.4" d="M14,7.25 L17,7.25 Q17.311,7.25 17.53,7.47 Q17.75,7.689 17.75,8 Q17.75,8.311 17.53,8.53 Q17.311,8.75 17,8.75 L14,8.75 Q13.689,8.75 13.47,8.53 Q13.25,8.311 13.25,8 Q13.25,7.689 13.47,7.47 Q13.689,7.25 14,7.25 Z"/>
  <path fill="#292D32" d="M21.75,11.5 Q21.75,15.748 18.749,18.749 Q15.748,21.75 11.5,21.75 Q7.252,21.75 4.251,18.749 Q1.25,15.748 1.25,11.5 Q1.25,7.252 4.251,4.251 Q7.252,1.25 11.5,1.25 Q11.811,1.25 12.03,1.47 Q12.25,1.689 12.25,2 Q12.25,2.311 12.03,2.53 Q11.811,2.75 11.5,2.75 Q7.873,2.75 5.312,5.312 Q2.75,7.873 2.75,11.5 Q2.75,15.127 5.312,17.688 Q7.873,20.25 11.5,20.25 Q15.127,20.25 17.688,17.688 Q20.25,15.127 20.25,11.5 Q20.25,11.189 20.47,10.97 Q20.689,10.75 21,10.75 Q21.311,10.75 21.53,10.97 Q21.75,11.189 21.75,11.5 Z"/>
  <path fill="#292D32" opacity="0.4" d="M21.47,22.53 L19.47,20.53 Q19.25,20.311 19.25,20 Q19.25,19.689 19.47,19.47 Q19.689,19.25 20,19.25 Q20.311,19.25 20.53,19.47 L22.53,21.47 Q22.75,21.689 22.75,22 Q22.75,22.311 22.53,22.53 Q22.311,22.75 22,22.75 Q21.689,22.75 21.47,22.53 Z"/>
</svg>

