<svg xmlns="http://www.w3.org/2000/svg" width="24" height="24" viewBox="0 0 24 24">
  <defs/>
  <path fill="#292D32" d="M11.5,1.25 Q15.748,1.25 18.749,4.251 Q21.75,7.252 21.75,11.5 Q21.75,15.748 18.749,18.749 Q15.748,21.75 11.5,21.75 Q7.252,21.75 4.251,18.749 Q1.25,15.748 1.25,11.5 Q1.25,5.212 6.86,2.361 Q7.137,2.221 7.433,2.317 Q7.728,2.413 7.869,2.69 Q8.009,2.967 7.913,3.263 Q7.817,3.558 7.54,3.699 Q2.75,6.132 2.75,11.5 Q2.75,15.127 5.312,17.688 Q7.873,20.25 11.5,20.25 Q15.127,20.25 17.688,17.688 Q20.25,15.127 20.25,11.5 Q20.25,7.873 17.688,5.312 Q15.127,2.75 11.5,2.75 Q11.189,2.75 10.97,2.53 Q10.75,2.311 10.75,2 Q10.75,1.689 10.97,1.47 Q11.189,1.25 11.5,1.25 Z"/>
  <path fill="#292D32" d="M21.47,22.53 L19.47,20.53 Q19.25,20.311 19.25,20 Q19.25,19.689 19.47,19.47 Q19.689,19.25 20,19.25 Q20.311,19.25 20.53,19.47 L22.53,21.47 Q22.75,21.689 22.75,22 Q22.75,22.311 22.53,22.53 Q22.311,22.75 22,22.75 Q21.689,22.75 21.47,22.53 Z"/>
</svg>

