<svg xmlns="http://www.w3.org/2000/svg" width="24" height="24" viewBox="0 0 24 24">
  <defs/>
  <path fill="#292D32" d="M11,1.988 C6.03,1.988 1.99,6.028 1.99,10.998 C1.99,15.968 6.03,20.008 11,20.008 C15.97,20.008 20.01,15.968 20.01,10.998 C20.01,6.028 15.97,1.988 11,1.988 Z M11,13.248 L8,13.248 C7.59,13.248 7.25,12.908 7.25,12.498 C7.25,12.088 7.59,11.748 8,11.748 L11,11.748 C11.41,11.748 11.75,12.088 11.75,12.498 C11.75,12.908 11.41,13.248 11,13.248 Z M14,10.248 L8,10.248 C7.59,10.248 7.25,9.908 7.25,9.498 C7.25,9.088 7.59,8.748 8,8.748 L14,8.748 C14.41,8.748 14.75,9.088 14.75,9.498 C14.75,9.908 14.41,10.248 14,10.248 Z"/>
  <path fill="#292D32" d="M21.99,18.95 C21.66,18.34 20.96,18 20.02,18 C19.31,18 18.7,18.29 18.34,18.79 C17.98,19.29 17.9,19.96 18.12,20.63 C18.55,21.93 19.3,22.22 19.71,22.27 C19.77,22.28 19.83,22.28 19.9,22.28 C20.34,22.28 21.02,22.09 21.68,21.1 C22.21,20.33 22.31,19.56 21.99,18.95 Z"/>
</svg>

