<svg xmlns="http://www.w3.org/2000/svg" width="24" height="24" viewBox="0 0 24 24">
  <defs/>
  <path fill="#292D32" opacity="0.4" d="M11,20.01 C15.976,20.01 20.01,15.976 20.01,11 C20.01,6.024 15.976,1.99 11,1.99 C6.024,1.99 1.99,6.024 1.99,11 C1.99,15.976 6.024,20.01 11,20.01 Z"/>
  <path fill="#292D32" d="M14,10.25 L8,10.25 C7.59,10.25 7.25,9.91 7.25,9.5 C7.25,9.09 7.59,8.75 8,8.75 L14,8.75 C14.41,8.75 14.75,9.09 14.75,9.5 C14.75,9.91 14.41,10.25 14,10.25 Z"/>
  <path fill="#292D32" d="M11,13.25 L8,13.25 C7.59,13.25 7.25,12.91 7.25,12.5 C7.25,12.09 7.59,11.75 8,11.75 L11,11.75 C11.41,11.75 11.75,12.09 11.75,12.5 C11.75,12.91 11.41,13.25 11,13.25 Z"/>
  <path fill="#292D32" d="M21.99,18.95 C21.66,18.34 20.96,18 20.02,18 C19.31,18 18.7,18.29 18.34,18.79 C17.98,19.29 17.9,19.96 18.12,20.63 C18.55,21.93 19.3,22.22 19.71,22.27 C19.77,22.28 19.83,22.28 19.9,22.28 C20.34,22.28 21.02,22.09 21.68,21.1 C22.21,20.33 22.31,19.56 21.99,18.95 Z"/>
</svg>

