<svg xmlns="http://www.w3.org/2000/svg" width="24" height="24" viewBox="0 0 24 24">
  <defs/>
  <path fill="#292D32" opacity="0.4" d="M11.01,20.02 C15.986,20.02 20.02,15.986 20.02,11.01 C20.02,6.034 15.986,2 11.01,2 C6.034,2 2,6.034 2,11.01 C2,15.986 6.034,20.02 11.01,20.02 Z"/>
  <path fill="#292D32" d="M14.25,11 C14.25,11.41 13.91,11.75 13.5,11.75 L11.75,11.75 L11.75,13.5 C11.75,13.91 11.41,14.25 11,14.25 C10.59,14.25 10.25,13.91 10.25,13.5 L10.25,11.75 L8.5,11.75 C8.09,11.75 7.75,11.41 7.75,11 C7.75,10.59 8.09,10.25 8.5,10.25 L10.25,10.25 L10.25,8.5 C10.25,8.09 10.59,7.75 11,7.75 C11.41,7.75 11.75,8.09 11.75,8.5 L11.75,10.25 L13.5,10.25 C13.91,10.25 14.25,10.59 14.25,11 Z"/>
  <path fill="#292D32" d="M21.99,18.95 C21.66,18.34 20.96,18 20.02,18 C19.31,18 18.7,18.29 18.34,18.79 C17.98,19.29 17.9,19.96 18.12,20.63 C18.55,21.93 19.3,22.22 19.71,22.27 C19.77,22.28 19.83,22.28 19.9,22.28 C20.34,22.28 21.02,22.09 21.68,21.1 C22.21,20.33 22.31,19.56 21.99,18.95 Z"/>
</svg>

