<svg xmlns="http://www.w3.org/2000/svg" width="24" height="24" viewBox="0 0 24 24">
  <defs/>
  <path fill="#292D32" d="M20.75,11 Q20.75,15.038 17.894,17.894 Q15.038,20.75 11,20.75 Q6.962,20.75 4.106,17.894 Q1.25,15.038 1.25,11 Q1.25,6.962 4.106,4.106 Q6.962,1.25 11,1.25 Q11.311,1.25 11.53,1.47 Q11.75,1.689 11.75,2 Q11.75,2.311 11.53,2.53 Q11.311,2.75 11,2.75 Q7.583,2.75 5.167,5.167 Q2.75,7.583 2.75,11 Q2.75,14.417 5.167,16.833 Q7.583,19.25 11,19.25 Q14.417,19.25 16.833,16.833 Q19.25,14.417 19.25,11 Q19.25,10.689 19.47,10.47 Q19.689,10.25 20,10.25 Q20.311,10.25 20.53,10.47 Q20.75,10.689 20.75,11 Z"/>
  <path fill="#292D32" d="M18.218,20.925 Q17.828,19.744 18.469,18.854 Q19.114,17.959 20.35,17.97 Q21.953,17.97 22.532,19.051 Q23.111,20.131 22.225,21.465 Q21.267,22.906 20.015,22.738 Q18.763,22.57 18.218,20.926 Z M19.642,20.454 L19.642,20.455 Q19.892,21.208 20.214,21.251 Q20.537,21.295 20.975,20.635 Q21.365,20.048 21.21,19.759 Q21.055,19.47 20.35,19.47 Q19.877,19.466 19.686,19.731 Q19.492,20 19.642,20.454 Z"/>
  <path fill="#292D32" d="M14,4.25 L20,4.25 Q20.311,4.25 20.53,4.47 Q20.75,4.689 20.75,5 Q20.75,5.311 20.53,5.53 Q20.311,5.75 20,5.75 L14,5.75 Q13.689,5.75 13.47,5.53 Q13.25,5.311 13.25,5 Q13.25,4.689 13.47,4.47 Q13.689,4.25 14,4.25 Z"/>
  <path fill="#292D32" d="M14,7.25 L17,7.25 Q17.311,7.25 17.53,7.47 Q17.75,7.689 17.75,8 Q17.75,8.311 17.53,8.53 Q17.311,8.75 17,8.75 L14,8.75 Q13.689,8.75 13.47,8.53 Q13.25,8.311 13.25,8 Q13.25,7.689 13.47,7.47 Q13.689,7.25 14,7.25 Z"/>
</svg>

