<svg xmlns="http://www.w3.org/2000/svg" width="24" height="24" viewBox="0 0 24 24">
  <defs/>
  <path fill="#292D32" d="M11.5,21.75 C5.85,21.75 1.25,17.15 1.25,11.5 C1.25,5.85 5.85,1.25 11.5,1.25 C11.91,1.25 12.25,1.59 12.25,2 C12.25,2.41 11.91,2.75 11.5,2.75 C6.67,2.75 2.75,6.68 2.75,11.5 C2.75,16.32 6.67,20.25 11.5,20.25 C16.33,20.25 20.25,16.32 20.25,11.5 C20.25,11.09 20.59,10.75 21,10.75 C21.41,10.75 21.75,11.09 21.75,11.5 C21.75,17.15 17.15,21.75 11.5,21.75 Z"/>
  <path fill="#292D32" d="M22,22.75 C21.81,22.75 21.62,22.68 21.47,22.53 L19.47,20.53 C19.18,20.24 19.18,19.76 19.47,19.47 C19.76,19.18 20.24,19.18 20.53,19.47 L22.53,21.47 C22.82,21.76 22.82,22.24 22.53,22.53 C22.38,22.68 22.19,22.75 22,22.75 Z"/>
  <path fill="#292D32" d="M17.5,9.54 C16.58,9.54 14.44,8.42 13.78,6.36 C13.33,4.95 13.85,3.1 15.48,2.57 C16.18,2.34 16.91,2.45 17.49,2.82 C18.06,2.45 18.81,2.35 19.51,2.57 C21.14,3.1 21.67,4.95 21.21,6.36 C20.56,8.46 18.31,9.54 17.5,9.54 Z M15.21,5.91 C15.67,7.36 17.23,8.02 17.51,8.05 C17.83,8.02 19.36,7.28 19.78,5.92 C20.01,5.19 19.78,4.25 19.05,4.01 C18.74,3.91 18.32,3.97 18.12,4.26 C17.98,4.47 17.76,4.59 17.51,4.6 C17.29,4.61 17.03,4.49 16.89,4.29 C16.66,3.96 16.24,3.91 15.94,4 C15.22,4.24 14.98,5.18 15.21,5.91 Z"/>
</svg>

