<svg xmlns="http://www.w3.org/2000/svg" width="24" height="24" viewBox="0 0 24 24">
  <defs/>
  <path fill="#292D32" d="M21.3,21.999 C21.12,21.999 20.941,21.929 20.811,21.799 L18.951,19.939 C18.68,19.669 18.68,19.229 18.951,18.949 C19.221,18.679 19.66,18.679 19.941,18.949 L21.8,20.809 C22.07,21.079 22.07,21.519 21.8,21.799 C21.66,21.929 21.48,21.999 21.3,21.999 Z"/>
  <path fill="#292D32" d="M11.5,2 C6.26,2 2,6.26 2,11.5 C2,16.74 6.26,21 11.5,21 C16.74,21 21,16.74 21,11.5 C21,6.26 16.74,2 11.5,2 Z M14.2,12.45 L12.45,12.45 L12.45,14.2 C12.45,14.61 12.11,14.95 11.7,14.95 C11.29,14.95 10.95,14.61 10.95,14.2 L10.95,12.45 L9.2,12.45 C8.79,12.45 8.45,12.11 8.45,11.7 C8.45,11.29 8.79,10.95 9.2,10.95 L10.95,10.95 L10.95,9.2 C10.95,8.79 11.29,8.45 11.7,8.45 C12.11,8.45 12.45,8.79 12.45,9.2 L12.45,10.95 L14.2,10.95 C14.61,10.95 14.95,11.29 14.95,11.7 C14.95,12.11 14.61,12.45 14.2,12.45 Z"/>
</svg>

