<svg xmlns="http://www.w3.org/2000/svg" width="24" height="24" viewBox="0 0 24 24">
  <defs/>
  <path fill="#292D32" d="M20.75,11 Q20.75,15.038 17.894,17.894 Q15.038,20.75 11,20.75 Q6.962,20.75 4.106,17.894 Q1.25,15.038 1.25,11 Q1.25,6.962 4.106,4.106 Q6.962,1.25 11,1.25 Q11.311,1.25 11.53,1.47 Q11.75,1.689 11.75,2 Q11.75,2.311 11.53,2.53 Q11.311,2.75 11,2.75 Q7.583,2.75 5.167,5.167 Q2.75,7.583 2.75,11 Q2.75,14.417 5.167,16.833 Q7.583,19.25 11,19.25 Q14.417,19.25 16.833,16.833 Q19.25,14.417 19.25,11 Q19.25,10.689 19.47,10.47 Q19.689,10.25 20,10.25 Q20.311,10.25 20.53,10.47 Q20.75,10.689 20.75,11 Z"/>
  <path fill="#292D32" opacity="0.4" d="M12.785,6.357 Q11.85,3.418 14.492,2.576 Q15.653,2.195 16.493,2.781 Q17.308,2.192 18.516,2.575 Q21.16,3.418 20.225,6.357 Q19.788,7.748 18.443,8.723 Q17.317,9.54 16.51,9.54 Q15.695,9.54 14.577,8.732 Q13.238,7.764 12.786,6.36 Z M14.214,5.9 L14.215,5.903 Q14.904,8.04 16.51,8.04 Q18.123,8.04 18.795,5.903 Q19.276,4.392 18.063,4.005 Q17.436,3.806 17.137,4.261 Q17.062,4.376 16.952,4.456 Q16.701,4.639 16.394,4.591 Q16.087,4.543 15.904,4.292 Q15.55,3.807 14.948,4.005 Q13.735,4.391 14.214,5.9 Z"/>
  <path fill="#292D32" opacity="0.4" d="M18.218,20.925 Q17.828,19.744 18.469,18.854 Q19.114,17.959 20.35,17.97 Q21.954,17.97 22.533,19.051 Q23.111,20.131 22.225,21.465 Q21.268,22.906 20.016,22.738 Q18.763,22.57 18.218,20.926 Z M19.642,20.454 L19.643,20.455 Q19.892,21.208 20.215,21.251 Q20.537,21.295 20.976,20.635 Q21.365,20.048 21.211,19.759 Q21.056,19.47 20.35,19.47 Q19.877,19.466 19.686,19.731 Q19.493,20 19.642,20.454 Z"/>
</svg>

