<svg xmlns="http://www.w3.org/2000/svg" width="24" height="24" viewBox="0 0 24 24">
  <defs/>
  <path fill="#292D32" d="M1.25,11 Q1.25,6.962 4.106,4.106 Q6.962,1.25 11,1.25 Q11.311,1.25 11.53,1.47 Q11.75,1.689 11.75,2 Q11.75,2.311 11.53,2.53 Q11.311,2.75 11,2.75 Q7.583,2.75 5.167,5.167 Q2.75,7.583 2.75,11 Q2.75,11.311 2.53,11.53 Q2.311,11.75 2,11.75 Q1.689,11.75 1.47,11.53 Q1.25,11.311 1.25,11 Z"/>
  <path fill="#292D32" d="M20.75,11 Q20.75,15.038 17.894,17.894 Q15.038,20.75 11,20.75 Q4.935,20.75 2.247,15.302 Q2.11,15.023 2.21,14.729 Q2.31,14.435 2.588,14.297 Q2.867,14.16 3.161,14.26 Q3.455,14.36 3.593,14.638 Q5.867,19.25 11,19.25 Q14.417,19.25 16.833,16.833 Q19.25,14.417 19.25,11 Q19.25,10.689 19.47,10.47 Q19.689,10.25 20,10.25 Q20.311,10.25 20.53,10.47 Q20.75,10.689 20.75,11 Z"/>
  <path fill="#292D32" d="M12.785,6.357 Q11.85,3.418 14.492,2.576 Q15.653,2.195 16.493,2.781 Q17.308,2.192 18.516,2.575 Q21.16,3.418 20.225,6.357 Q19.788,7.748 18.443,8.723 Q17.317,9.54 16.51,9.54 Q15.695,9.54 14.577,8.732 Q13.238,7.764 12.786,6.36 Z M14.214,5.9 L14.215,5.903 Q14.904,8.04 16.51,8.04 Q18.123,8.04 18.795,5.903 Q19.276,4.392 18.063,4.005 Q17.436,3.806 17.137,4.261 Q17.062,4.376 16.952,4.456 Q16.701,4.639 16.394,4.591 Q16.087,4.543 15.904,4.292 Q15.55,3.807 14.948,4.005 Q13.735,4.391 14.214,5.9 Z"/>
  <path fill="#292D32" d="M18.359,21.207 L18.359,21.206 Q17.968,20.031 18.612,19.14 Q19.257,18.25 20.501,18.25 Q22.107,18.25 22.683,19.332 Q23.259,20.415 22.366,21.745 Q21.408,23.186 20.156,23.018 Q18.904,22.851 18.359,21.207 Z M19.783,20.734 Q20.033,21.488 20.356,21.532 Q20.678,21.575 21.116,20.915 Q21.512,20.325 21.359,20.038 Q21.206,19.75 20.501,19.75 Q20.023,19.75 19.827,20.02 Q19.634,20.287 19.783,20.733 Z"/>
</svg>

