<svg xmlns="http://www.w3.org/2000/svg" width="24" height="24" viewBox="0 0 24 24">
  <defs/>
  <path fill="#292D32" d="M18.421,17.399 Q19.85,16.331 19.85,14.56 L19.85,7.13 Q19.85,5.412 18.247,4.812 L13.257,2.942 Q12.01,2.477 10.762,2.943 L5.773,4.812 Q4.17,5.412 4.17,7.13 L4.17,14.56 Q4.17,16.331 5.599,17.399 L9.899,20.609 Q12.02,22.204 14.139,20.61 L14.877,20.052 Q15.125,19.864 15.433,19.907 Q15.741,19.95 15.928,20.197 Q16.115,20.445 16.073,20.753 Q16.03,21.061 15.782,21.248 L15.041,21.809 Q12.02,24.08 9.001,21.811 L4.701,18.601 Q2.67,17.083 2.67,14.56 L2.67,7.13 Q2.67,4.371 5.247,3.408 L10.237,1.537 Q12.01,0.875 13.783,1.538 L18.773,3.407 Q21.35,4.371 21.35,7.13 L21.35,14.56 Q21.35,17.083 19.319,18.601 Q19.07,18.787 18.763,18.742 Q18.455,18.698 18.269,18.449 Q18.083,18.2 18.128,17.893 Q18.172,17.585 18.421,17.399 Z"/>
  <path fill="#292D32" d="M12,11.67 L11.87,11.67 Q11.858,11.67 11.846,11.67 Q9.43,11.593 9.43,9.16 Q9.43,8.122 10.166,7.386 Q10.902,6.65 11.94,6.65 Q13.195,6.65 13.822,7.278 Q14.45,7.905 14.45,9.16 Q14.424,11.593 12.024,11.67 Q12.012,11.67 12,11.67 Z M11.987,10.17 Q12.94,10.134 12.95,9.16 Q12.95,8.743 12.653,8.447 Q12.357,8.15 11.94,8.15 Q11.523,8.15 11.226,8.447 Q10.93,8.743 10.93,9.16 Q10.93,10.134 11.883,10.17 L11.987,10.17 Z"/>
  <path fill="#292D32" d="M9.594,13.095 Q12.016,11.488 14.395,13.096 Q15.449,13.799 15.449,14.885 Q15.449,15.971 14.396,16.673 Q11.994,18.282 9.593,16.674 Q8.539,15.971 8.539,14.885 Q8.539,13.799 9.593,13.096 Z M10.425,14.344 L10.424,14.345 Q10.039,14.602 10.039,14.885 Q10.039,15.169 10.425,15.426 Q11.994,16.477 13.562,15.427 Q13.949,15.169 13.949,14.885 Q13.949,14.601 13.563,14.344 Q12.009,13.294 10.425,14.344 Z"/>
</svg>

