<svg xmlns="http://www.w3.org/2000/svg" width="24" height="24" viewBox="0 0 24 24">
  <defs/>
  <path fill="#292D32" opacity="0.4" d="M9.42,2.16 L3.92,4.22 C2.87,4.61 2.01,5.86 2.01,6.98 L2.01,15.08 C2.01,15.89 2.54,16.96 3.19,17.44 L8.69,21.55 C9.66,22.28 11.25,22.28 12.22,21.55 L17.72,17.44 C18.37,16.95 18.9,15.89 18.9,15.08 L18.9,6.98 C18.9,5.86 18.04,4.61 16.99,4.22 L11.49,2.16 C10.92,1.95 9.99,1.95 9.42,2.16 Z"/>
  <path fill="#292D32" d="M19.26,6.76 L12.41,6.76 C12.21,6.76 12.02,6.77 11.84,6.77 C10.12,6.87 9.66,7.5 9.66,9.46 L9.66,9.85 C9.66,10.264 9.996,10.6 10.41,10.6 L21.25,10.6 C21.664,10.6 22,10.264 22,9.85 L22,9.46 C22,7.3 21.45,6.76 19.26,6.76 Z"/>
  <path fill="#292D32" d="M10.42,11.7 C10.006,11.7 9.67,12.036 9.67,12.45 L9.67,14.54 C9.67,16.7 10.22,17.25 12.41,17.25 L19.26,17.25 C21.41,17.25 21.98,16.73 22,14.66 L22,12.45 C22,12.036 21.664,11.7 21.25,11.7 L10.42,11.7 Z M13.27,15.47 L12.02,15.47 C11.72,15.47 11.48,15.23 11.48,14.93 C11.48,14.63 11.72,14.39 12.02,14.39 L13.27,14.39 C13.57,14.39 13.81,14.63 13.81,14.93 C13.81,15.23 13.57,15.47 13.27,15.47 Z M17.32,15.47 L14.83,15.47 C14.53,15.47 14.29,15.23 14.29,14.93 C14.29,14.63 14.53,14.39 14.83,14.39 L17.32,14.39 C17.62,14.39 17.86,14.63 17.86,14.93 C17.87,15.23 17.62,15.47 17.32,15.47 Z"/>
</svg>

