<svg xmlns="http://www.w3.org/2000/svg" width="24" height="24" viewBox="0 0 24 24">
  <defs/>
  <path fill="#292D32" d="M13.491,13.379 L11.001,13.379 C10.701,13.379 10.461,13.619 10.461,13.919 C10.461,14.219 10.701,14.459 11.001,14.459 L13.491,14.459 C13.791,14.459 14.031,14.219 14.031,13.919 C14.031,13.619 13.791,13.379 13.491,13.379 Z"/>
  <path fill="#292D32" d="M9.438,13.379 L8.188,13.379 C7.888,13.379 7.648,13.619 7.648,13.919 C7.648,14.219 7.888,14.459 8.188,14.459 L9.438,14.459 C9.738,14.459 9.978,14.219 9.978,13.919 C9.978,13.619 9.738,13.379 9.438,13.379 Z"/>
  <path fill="#292D32" d="M18.541,4.221 L13.041,2.161 C12.471,1.951 11.541,1.951 10.971,2.161 L5.471,4.221 C4.411,4.621 3.551,5.861 3.551,6.991 L3.551,15.091 C3.551,15.901 4.081,16.971 4.731,17.451 L10.231,21.561 C11.201,22.291 12.791,22.291 13.761,21.561 L19.261,17.451 C19.911,16.961 20.441,15.901 20.441,15.091 L20.441,6.991 C20.451,5.861 19.591,4.621 18.541,4.221 Z M18.171,13.651 C18.151,15.721 17.581,16.241 15.431,16.241 L8.581,16.241 C6.391,16.241 5.841,15.701 5.841,13.531 L5.841,11.201 C5.841,10.921 6.061,10.701 6.341,10.701 L17.671,10.701 C17.951,10.701 18.171,10.921 18.171,11.201 L18.171,13.651 Z M18.171,9.111 C18.171,9.391 17.951,9.611 17.671,9.611 L6.341,9.611 C6.061,9.611 5.841,9.391 5.841,9.111 L5.841,8.471 C5.841,6.511 6.301,5.881 8.011,5.771 C8.191,5.771 8.381,5.761 8.581,5.761 L15.431,5.761 C17.621,5.761 18.171,6.301 18.171,8.471 L18.171,9.111 Z"/>
</svg>

