<svg xmlns="http://www.w3.org/2000/svg" width="24" height="24" viewBox="0 0 24 24">
  <defs/>
  <path fill="#292D32" d="M12,22.76 C10.91,22.76 9.83,22.44 8.98,21.81 L4.68,18.6 C3.54,17.75 2.65,15.97 2.65,14.56 L2.65,7.12 C2.65,5.58 3.78,3.94 5.23,3.4 L10.22,1.53 C11.21,1.16 12.77,1.16 13.76,1.53 L18.75,3.4 C20.2,3.94 21.33,5.58 21.33,7.12 L21.33,14.55 C21.33,15.97 20.44,17.74 19.3,18.59 L15,21.8 C14.17,22.44 13.09,22.76 12,22.76 Z M10.75,2.94 L5.76,4.81 C4.91,5.13 4.16,6.21 4.16,7.13 L4.16,14.56 C4.16,15.51 4.83,16.84 5.58,17.4 L9.88,20.61 C11.03,21.47 12.97,21.47 14.13,20.61 L18.43,17.4 C19.19,16.83 19.85,15.51 19.85,14.56 L19.85,7.12 C19.85,6.21 19.1,5.13 18.25,4.8 L13.26,2.93 C12.58,2.69 11.42,2.69 10.75,2.94 Z"/>
  <path fill="#292D32" d="M12,16.25 C9.38,16.25 7.25,14.12 7.25,11.5 C7.25,8.88 9.38,6.75 12,6.75 C14.62,6.75 16.75,8.88 16.75,11.5 C16.75,14.12 14.62,16.25 12,16.25 Z M12,8.25 C10.21,8.25 8.75,9.71 8.75,11.5 C8.75,13.29 10.21,14.75 12,14.75 C13.79,14.75 15.25,13.29 15.25,11.5 C15.25,9.71 13.79,8.25 12,8.25 Z"/>
  <path fill="#292D32" d="M11,13.25 C10.75,13.25 10.5,13.12 10.36,12.89 C10.15,12.53 10.26,12.07 10.62,11.86 L11.38,11.4 C11.46,11.35 11.5,11.27 11.5,11.19 L11.5,10.26 C11.5,9.85 11.84,9.51 12.25,9.51 C12.66,9.51 13,9.84 13,10.25 L13,11.18 C13,11.79 12.67,12.37 12.15,12.68 L11.38,13.14 C11.27,13.22 11.13,13.25 11,13.25 Z"/>
</svg>

