<svg xmlns="http://www.w3.org/2000/svg" width="24" height="24" viewBox="0 0 24 24">
  <defs/>
  <path fill="#292D32" opacity="0.4" d="M11.74,17 L17.66,17 Q17.971,17 18.19,17.22 Q18.41,17.439 18.41,17.75 Q18.41,18.087 18.158,18.31 Q18.104,18.358 18.005,18.441 Q17.924,18.508 17.888,18.54 Q17.865,18.561 17.84,18.58 L13.57,21.78 Q10.566,24.017 7.544,21.783 L3.261,18.581 Q1.25,17.083 1.25,14.56 L1.25,7.15 Q1.25,4.412 3.805,3.448 L8.786,1.578 Q10.55,0.911 12.315,1.578 L17.284,3.448 Q19.227,4.184 19.758,6.351 Q19.832,6.653 19.671,6.919 Q19.51,7.184 19.209,7.258 Q19.121,7.28 19.03,7.28 L11.73,7.28 Q11.625,7.28 11.421,7.285 Q11.244,7.289 11.145,7.29 Q9.54,7.398 9.54,9.43 L9.54,14.86 Q9.549,17 11.74,17 Z M11.74,18.5 Q8.056,18.5 8.04,14.86 L8.04,9.43 Q8.04,5.972 11.075,5.791 Q11.098,5.79 11.12,5.79 Q11.202,5.79 11.384,5.785 Q11.607,5.78 11.73,5.78 L17.916,5.78 Q17.501,5.134 16.756,4.852 L11.785,2.981 Q10.55,2.515 9.314,2.982 L4.335,4.852 Q2.75,5.449 2.75,7.15 L2.75,14.56 Q2.75,16.33 4.159,17.379 L8.436,20.577 Q10.562,22.149 12.67,20.58 L15.445,18.5 Z"/>
  <path fill="#292D32" d="M8.801,10.47 L22.001,10.47 Q22.311,10.47 22.531,10.69 Q22.751,10.91 22.751,11.22 Q22.751,11.531 22.531,11.751 Q22.311,11.97 22.001,11.97 L8.801,11.97 Q8.49,11.97 8.27,11.751 Q8.051,11.531 8.051,11.22 Q8.051,10.91 8.27,10.69 Q8.49,10.47 8.801,10.47 Z"/>
  <path fill="#292D32" d="M22.751,9.42 L22.751,14.97 Q22.719,18.49 19.061,18.49 L11.741,18.49 Q9.672,18.49 8.862,17.689 Q8.051,16.887 8.051,14.84 L8.051,9.41 Q8.051,5.968 11.082,5.771 Q11.107,5.77 11.131,5.77 Q11.213,5.77 11.395,5.765 Q11.618,5.76 11.741,5.76 L19.061,5.76 Q22.751,5.775 22.751,9.42 Z M21.251,9.42 Q21.251,7.994 20.885,7.632 Q20.515,7.266 19.061,7.26 L11.741,7.26 Q11.636,7.26 11.432,7.265 Q11.257,7.269 11.158,7.27 Q9.551,7.387 9.551,9.41 L9.551,14.84 Q9.551,16.261 9.917,16.623 Q10.288,16.99 11.741,16.99 L19.061,16.99 Q21.233,16.99 21.251,14.97 Z"/>
  <path fill="#292D32" d="M11.32,14.51 L12.65,14.51 Q12.961,14.51 13.181,14.729 Q13.4,14.949 13.4,15.26 Q13.4,15.57 13.181,15.79 Q12.961,16.01 12.65,16.01 L11.32,16.01 Q11.01,16.01 10.79,15.79 Q10.57,15.57 10.57,15.26 Q10.57,14.949 10.79,14.729 Q11.01,14.51 11.32,14.51 Z"/>
  <path fill="#292D32" d="M14.75,14.51 L18.02,14.51 Q18.331,14.51 18.55,14.729 Q18.77,14.949 18.77,15.26 Q18.77,15.57 18.55,15.79 Q18.331,16.01 18.02,16.01 L14.75,16.01 Q14.439,16.01 14.22,15.79 Q14,15.57 14,15.26 Q14,14.949 14.22,14.729 Q14.439,14.51 14.75,14.51 Z"/>
</svg>

