<svg xmlns="http://www.w3.org/2000/svg" width="24" height="24" viewBox="0 0 24 24">
  <defs/>
  <path fill="#292D32" d="M10.56,22.71 C9.48,22.71 8.39,22.4 7.55,21.77 L3.27,18.57 C2.14,17.73 1.26,15.96 1.26,14.54 L1.26,7.13 C1.26,5.6 2.38,3.97 3.82,3.43 L8.8,1.56 C9.79,1.19 11.34,1.19 12.33,1.56 L17.3,3.43 C18.47,3.87 19.46,5.04 19.78,6.34 C19.83,6.56 19.78,6.8 19.64,6.98 C19.5,7.16 19.28,7.27 19.05,7.27 L11.14,7.28 C9.87,7.36 9.56,7.57 9.56,9.42 L9.56,14.85 C9.56,16.76 9.81,17 11.75,17 L17.67,17 C17.98,17 18.26,17.19 18.37,17.48 C18.48,17.77 18.4,18.1 18.17,18.31 C18.06,18.4 17.97,18.49 17.86,18.57 L13.58,21.78 C12.72,22.4 11.64,22.71 10.56,22.71 Z M10.56,2.79 C10.11,2.79 9.65,2.85 9.32,2.98 L4.34,4.85 C3.5,5.17 2.75,6.24 2.75,7.15 L2.75,14.56 C2.75,15.5 3.41,16.82 4.16,17.38 L8.44,20.58 C9.59,21.43 11.52,21.43 12.67,20.58 L15.44,18.51 L11.74,18.51 C8.98,18.51 8.05,17.59 8.05,14.86 L8.05,9.43 C8.05,7.3 8.56,5.95 11.09,5.79 L11.74,5.78 L17.89,5.78 C17.59,5.35 17.19,5.01 16.77,4.85 L11.8,2.98 C11.46,2.85 11.01,2.79 10.56,2.79 Z"/>
  <path fill="#292D32" d="M22.001,11.97 L8.801,11.97 C8.391,11.97 8.051,11.63 8.051,11.22 C8.051,10.81 8.391,10.47 8.801,10.47 L22.001,10.47 C22.411,10.47 22.751,10.81 22.751,11.22 C22.751,11.63 22.411,11.97 22.001,11.97 Z"/>
  <path fill="#292D32" d="M19.061,18.5 L11.741,18.5 C8.981,18.5 8.051,17.58 8.051,14.85 L8.051,9.42 C8.051,7.29 8.561,5.94 11.091,5.78 L11.741,5.77 L19.061,5.77 C21.821,5.77 22.751,6.69 22.751,9.42 L22.751,14.97 C22.731,17.61 21.801,18.5 19.061,18.5 Z M11.741,7.27 L11.131,7.28 C9.861,7.36 9.551,7.57 9.551,9.42 L9.551,14.85 C9.551,16.76 9.801,17 11.741,17 L19.061,17 C20.971,17 21.231,16.75 21.251,14.97 L21.251,9.43 C21.251,7.52 21.001,7.28 19.061,7.28 L11.741,7.28 L11.741,7.27 Z"/>
  <path fill="#292D32" d="M12.65,16.01 L11.31,16.01 C10.9,16.01 10.56,15.67 10.56,15.26 C10.56,14.85 10.9,14.51 11.31,14.51 L12.65,14.51 C13.06,14.51 13.4,14.85 13.4,15.26 C13.4,15.67 13.07,16.01 12.65,16.01 Z"/>
  <path fill="#292D32" d="M18.02,16.01 L14.75,16.01 C14.34,16.01 14,15.67 14,15.26 C14,14.85 14.34,14.51 14.75,14.51 L18.02,14.51 C18.43,14.51 18.77,14.85 18.77,15.26 C18.77,15.67 18.44,16.01 18.02,16.01 Z"/>
</svg>

