<svg xmlns="http://www.w3.org/2000/svg" width="24" height="24" viewBox="0 0 24 24">
  <defs/>
  <path fill="#292D32" opacity="0.4" d="M20.91,11.12 C20.91,16.01 17.36,20.59 12.51,21.93 C12.18,22.02 11.82,22.02 11.49,21.93 C6.64,20.59 3.09,16.01 3.09,11.12 L3.09,6.73 C3.09,5.91 3.71,4.98 4.48,4.67 L10.05,2.39 C11.3,1.88 12.71,1.88 13.96,2.39 L19.53,4.67 C20.29,4.98 20.92,5.91 20.92,6.73 L20.91,11.12 Z"/>
  <path fill="#292D32" d="M14.5,10.5 C14.5,9.12 13.38,8 12,8 C10.62,8 9.5,9.12 9.5,10.5 C9.5,11.62 10.24,12.55 11.25,12.87 L11.25,15.5 C11.25,15.91 11.59,16.25 12,16.25 C12.41,16.25 12.75,15.91 12.75,15.5 L12.75,12.87 C13.76,12.55 14.5,11.62 14.5,10.5 Z"/>
</svg>

