<svg xmlns="http://www.w3.org/2000/svg" width="24" height="24" viewBox="0 0 24 24">
  <defs/>
  <path fill="#292D32" d="M1.25,7.14 Q1.25,4.402 3.806,3.438 L8.787,1.568 Q10.55,0.901 12.315,1.569 L17.284,3.438 Q19.228,4.175 19.759,6.342 Q19.833,6.643 19.672,6.909 Q19.51,7.175 19.209,7.249 Q19.121,7.27 19.03,7.27 L11.73,7.27 Q11.625,7.27 11.421,7.275 Q11.244,7.28 11.145,7.28 Q9.54,7.388 9.54,9.42 L9.54,14.85 Q9.54,17 11.73,17 L17.65,17 Q17.961,17 18.181,17.22 Q18.4,17.439 18.4,17.75 Q18.4,18.087 18.148,18.311 Q18.095,18.359 17.995,18.441 Q17.915,18.509 17.878,18.541 Q17.855,18.561 17.83,18.58 L13.56,21.78 Q10.556,24.017 7.534,21.783 L3.251,18.581 Q1.24,17.083 1.24,14.56 L1.24,11.24 Q1.24,10.929 1.46,10.71 Q1.68,10.49 1.99,10.49 Q2.301,10.49 2.521,10.71 Q2.74,10.929 2.74,11.24 L2.74,14.56 Q2.74,16.33 4.149,17.379 L8.426,20.577 Q10.553,22.15 12.66,20.58 L15.436,18.5 L11.73,18.5 Q8.04,18.5 8.04,14.85 L8.04,9.42 Q8.04,5.962 11.076,5.781 Q11.098,5.78 11.12,5.78 Q11.202,5.78 11.384,5.776 Q11.607,5.77 11.73,5.77 L17.917,5.77 Q17.501,5.124 16.756,4.842 L11.785,2.972 Q10.55,2.505 9.314,2.972 L4.335,4.842 Q2.75,5.44 2.75,7.14 Q2.75,7.451 2.531,7.67 Q2.311,7.89 2,7.89 Q1.69,7.89 1.47,7.67 Q1.25,7.451 1.25,7.14 Z"/>
  <path fill="#292D32" d="M8.801,10.47 L22.001,10.47 Q22.311,10.47 22.531,10.69 Q22.751,10.91 22.751,11.22 Q22.751,11.531 22.531,11.751 Q22.311,11.97 22.001,11.97 L8.801,11.97 Q8.49,11.97 8.27,11.751 Q8.051,11.531 8.051,11.22 Q8.051,10.91 8.27,10.69 Q8.49,10.47 8.801,10.47 Z"/>
  <path fill="#292D32" d="M22.751,9.42 L22.751,14.97 Q22.719,18.49 19.061,18.49 L11.741,18.49 Q8.051,18.49 8.051,14.84 L8.051,9.41 Q8.051,5.968 11.082,5.772 Q11.107,5.77 11.131,5.77 Q11.213,5.77 11.395,5.766 Q11.618,5.76 11.741,5.76 L19.061,5.76 Q22.751,5.776 22.751,9.42 Z M21.251,9.42 Q21.251,7.994 20.885,7.632 Q20.515,7.266 19.061,7.26 L11.741,7.26 Q11.636,7.26 11.432,7.265 Q11.257,7.27 11.158,7.27 Q9.551,7.388 9.551,9.41 L9.551,14.84 Q9.551,16.261 9.917,16.623 Q10.288,16.99 11.741,16.99 L19.061,16.99 Q21.233,16.99 21.251,14.97 Z"/>
  <path fill="#292D32" d="M11.32,14.51 L12.65,14.51 Q12.961,14.51 13.181,14.73 Q13.4,14.95 13.4,15.26 Q13.4,15.571 13.181,15.791 Q12.961,16.01 12.65,16.01 L11.32,16.01 Q11.01,16.01 10.79,15.791 Q10.57,15.571 10.57,15.26 Q10.57,14.95 10.79,14.73 Q11.01,14.51 11.32,14.51 Z"/>
  <path fill="#292D32" d="M14.75,14.51 L18.02,14.51 Q18.331,14.51 18.55,14.73 Q18.77,14.95 18.77,15.26 Q18.77,15.571 18.55,15.791 Q18.331,16.01 18.02,16.01 L14.75,16.01 Q14.439,16.01 14.22,15.791 Q14,15.571 14,15.26 Q14,14.95 14.22,14.73 Q14.439,14.51 14.75,14.51 Z"/>
</svg>

