<svg xmlns="http://www.w3.org/2000/svg" width="24" height="24" viewBox="0 0 24 24">
  <defs/>
  <path fill="#292D32" d="M10.228,1.527 Q11.989,0.87 13.793,1.528 L18.783,3.398 Q21.36,4.361 21.36,7.12 L21.36,14.55 Q21.36,17.073 19.329,18.591 L15.031,21.8 Q12.01,24.07 8.991,21.801 L4.691,18.591 Q2.66,17.073 2.66,14.55 L2.66,7.12 Q2.66,4.361 5.237,3.398 L10.227,1.528 Z M10.753,2.932 L5.763,4.802 Q4.16,5.402 4.16,7.12 L4.16,14.55 Q4.16,16.321 5.589,17.389 L9.889,20.599 Q12.01,22.194 14.129,20.601 L18.432,17.389 Q19.86,16.321 19.86,14.55 L19.86,7.12 Q19.86,5.402 18.257,4.803 L13.267,2.932 Q11.996,2.469 10.753,2.932 Z"/>
  <path fill="#292D32" opacity="0.4" d="M12,11.67 L11.87,11.67 Q11.858,11.67 11.846,11.67 Q9.43,11.592 9.43,9.16 Q9.43,8.122 10.166,7.386 Q10.902,6.65 11.94,6.65 Q13.195,6.65 13.822,7.277 Q14.45,7.905 14.45,9.16 Q14.424,11.593 12.024,11.67 Q12.012,11.67 12,11.67 Z M11.987,10.17 Q12.94,10.134 12.95,9.16 Q12.95,8.743 12.653,8.446 Q12.357,8.15 11.94,8.15 Q11.523,8.15 11.226,8.446 Q10.93,8.743 10.93,9.16 Q10.93,10.134 11.883,10.17 L11.987,10.17 Z"/>
  <path fill="#292D32" opacity="0.4" d="M9.594,13.095 Q12.016,11.488 14.395,13.096 Q15.449,13.799 15.449,14.885 Q15.449,15.971 14.396,16.673 Q11.994,18.282 9.593,16.674 Q8.539,15.971 8.539,14.885 Q8.539,13.799 9.593,13.096 Z M10.425,14.344 L10.424,14.345 Q10.039,14.602 10.039,14.885 Q10.039,15.168 10.425,15.426 Q11.994,16.477 13.562,15.427 Q13.949,15.168 13.949,14.885 Q13.949,14.601 13.563,14.344 Q12.009,13.294 10.425,14.344 Z"/>
</svg>

