<svg xmlns="http://www.w3.org/2000/svg" width="24" height="24" viewBox="0 0 24 24">
  <defs/>
  <path fill="#292D32" d="M18.328,5.67 L6.588,17.41 C6.148,17.85 5.408,17.79 5.048,17.27 C3.808,15.46 3.078,13.32 3.078,11.12 L3.078,6.73 C3.078,5.91 3.698,4.98 4.458,4.67 L10.028,2.39 C11.288,1.87 12.688,1.87 13.948,2.39 L17.998,4.04 C18.658,4.31 18.828,5.17 18.328,5.67 Z"/>
  <path fill="#292D32" d="M19.27,7.042 C19.92,6.492 20.91,6.962 20.91,7.812 L20.91,11.122 C20.91,16.012 17.36,20.592 12.51,21.932 C12.18,22.022 11.82,22.022 11.48,21.932 C10.06,21.532 8.74,20.862 7.61,19.982 C7.13,19.612 7.08,18.912 7.5,18.482 C9.68,16.252 16.06,9.752 19.27,7.042 Z"/>
</svg>

