<svg xmlns="http://www.w3.org/2000/svg" width="24" height="24" viewBox="0 0 24 24">
  <defs/>
  <path fill="#292D32" opacity="0.4" d="M10.961,2.11 L5.461,4.17 C4.411,4.57 3.551,5.81 3.551,6.94 L3.551,15.04 C3.551,15.85 4.081,16.92 4.731,17.4 L10.231,21.51 C11.201,22.24 12.791,22.24 13.761,21.51 L19.261,17.4 C19.911,16.91 20.441,15.85 20.441,15.04 L20.441,6.94 C20.441,5.82 19.581,4.57 18.531,4.18 L13.031,2.12 C12.471,1.9 11.531,1.9 10.961,2.11 Z"/>
  <path fill="#292D32" d="M12,16.25 C9.38,16.25 7.25,14.12 7.25,11.5 C7.25,8.88 9.38,6.75 12,6.75 C14.62,6.75 16.75,8.88 16.75,11.5 C16.75,14.12 14.62,16.25 12,16.25 Z M12,8.25 C10.21,8.25 8.75,9.71 8.75,11.5 C8.75,13.29 10.21,14.75 12,14.75 C13.79,14.75 15.25,13.29 15.25,11.5 C15.25,9.71 13.79,8.25 12,8.25 Z"/>
  <path fill="#292D32" d="M11,13.25 C10.75,13.25 10.5,13.12 10.36,12.89 C10.15,12.53 10.26,12.07 10.62,11.86 L11.38,11.4 C11.46,11.35 11.5,11.27 11.5,11.19 L11.5,10.26 C11.5,9.85 11.84,9.51 12.25,9.51 C12.66,9.51 13,9.84 13,10.25 L13,11.18 C13,11.79 12.67,12.37 12.15,12.68 L11.38,13.14 C11.27,13.22 11.13,13.25 11,13.25 Z"/>
</svg>

