<svg xmlns="http://www.w3.org/2000/svg" width="24" height="24" viewBox="0 0 24 24">
  <defs/>
  <path fill="#292D32" d="M12,22.75 C11.76,22.75 11.52,22.72 11.29,22.65 C6.1,21.22 2.34,16.37 2.34,11.11 L2.34,6.72 C2.34,5.6 3.15,4.39 4.19,3.96 L9.76,1.68 C11.21,1.09 12.8,1.09 14.24,1.68 L19.81,3.96 C20.85,4.39 21.66,5.6 21.66,6.72 L21.66,11.11 C21.66,16.36 17.89,21.21 12.71,22.65 C12.48,22.72 12.24,22.75 12,22.75 Z M12,2.75 C11.43,2.75 10.87,2.86 10.33,3.08 L4.76,5.36 C4.28,5.56 3.84,6.21 3.84,6.73 L3.84,11.12 C3.84,15.71 7.14,19.95 11.69,21.21 C11.89,21.27 12.11,21.27 12.31,21.21 C16.86,19.95 20.16,15.71 20.16,11.12 L20.16,6.73 C20.16,6.21 19.72,5.56 19.24,5.36 L13.67,3.08 C13.13,2.86 12.57,2.75 12,2.75 Z"/>
</svg>

