<svg xmlns="http://www.w3.org/2000/svg" width="24" height="24" viewBox="0 0 24 24">
  <defs/>
  <path fill="#292D32" opacity="0.4" d="M21.66,11.12 L21.66,11.122 Q21.659,15.047 19.121,18.316 Q16.585,21.582 12.71,22.653 Q12,22.846 11.292,22.653 Q7.415,21.582 4.879,18.316 Q2.34,15.046 2.34,11.12 L2.34,6.73 Q2.34,4.723 4.2,3.974 L9.766,1.696 Q12.005,0.782 14.243,1.695 L19.814,3.976 Q21.67,4.733 21.67,6.73 Z M20.16,11.118 L20.17,6.73 Q20.17,5.741 19.246,5.364 L13.676,3.084 Q12.005,2.402 10.334,3.084 L4.76,5.366 Q3.84,5.736 3.84,6.73 L3.84,11.12 Q3.84,14.532 6.063,17.396 Q8.294,20.269 11.687,21.206 Q12,21.292 12.31,21.207 Q15.706,20.269 17.936,17.396 Q20.16,14.532 20.16,11.12 Z"/>
  <path fill="#292D32" d="M9.757,1.695 Q11.995,0.782 14.233,1.695 L19.804,3.976 Q21.66,4.733 21.66,6.73 L21.66,11.12 Q21.66,15.046 19.121,18.316 Q16.585,21.582 12.71,22.653 Q12,22.846 11.292,22.653 Q7.415,21.582 4.879,18.316 Q2.34,15.046 2.34,11.12 Q2.34,10.809 2.56,10.589 Q2.779,10.37 3.09,10.37 Q3.4,10.37 3.62,10.589 Q3.84,10.809 3.84,11.12 Q3.84,14.532 6.063,17.396 Q8.294,20.269 11.687,21.206 Q12,21.292 12.31,21.207 Q15.706,20.269 17.936,17.396 Q20.16,14.532 20.16,11.12 L20.16,6.73 Q20.16,5.741 19.236,5.364 L13.667,3.084 Q11.995,2.402 10.323,3.084 Q10.036,3.202 9.749,3.081 Q9.463,2.961 9.345,2.673 Q9.228,2.386 9.349,2.099 Q9.469,1.813 9.757,1.695 Z"/>
</svg>

