<svg xmlns="http://www.w3.org/2000/svg" width="24" height="24" viewBox="0 0 24 24">
  <defs/>
  <path fill="#292D32" d="M12,22.76 C10.91,22.76 9.83,22.44 8.98,21.81 L4.68,18.6 C3.54,17.75 2.65,15.98 2.65,14.56 L2.65,7.13 C2.65,5.59 3.78,3.95 5.23,3.41 L10.22,1.54 C11.21,1.17 12.77,1.17 13.76,1.54 L18.76,3.41 C20.21,3.95 21.34,5.59 21.34,7.13 L21.34,14.56 C21.34,15.98 20.45,17.75 19.31,18.6 L15.01,21.81 C14.17,22.44 13.09,22.76 12,22.76 Z M10.75,2.94 L5.76,4.81 C4.9,5.13 4.15,6.21 4.15,7.13 L4.15,14.56 C4.15,15.51 4.82,16.84 5.57,17.4 L9.87,20.61 C11.02,21.47 12.97,21.47 14.12,20.61 L18.42,17.4 C19.18,16.83 19.84,15.5 19.84,14.56 L19.84,7.13 C19.84,6.22 19.09,5.14 18.23,4.81 L13.24,2.94 C12.58,2.69 11.42,2.69 10.75,2.94 Z"/>
  <path fill="#292D32" d="M12,11.67 C11.98,11.67 11.96,11.67 11.93,11.67 C10.48,11.63 9.42,10.52 9.42,9.17 C9.42,7.79 10.55,6.66 11.93,6.66 C13.31,6.66 14.44,7.79 14.44,9.17 C14.43,10.53 13.37,11.63 12.02,11.68 C12.01,11.67 12.01,11.67 12,11.67 Z M11.93,8.16 C11.37,8.16 10.92,8.61 10.92,9.17 C10.92,9.72 11.35,10.16 11.89,10.18 C11.89,10.18 11.94,10.18 12,10.18 C12.53,10.15 12.94,9.71 12.94,9.17 C12.95,8.61 12.49,8.16 11.93,8.16 Z"/>
  <path fill="#292D32" d="M12.001,17.35 C11.141,17.35 10.271,17.12 9.601,16.67 C8.931,16.23 8.551,15.58 8.551,14.89 C8.551,14.2 8.931,13.55 9.601,13.1 C10.951,12.2 13.061,12.21 14.401,13.1 C15.071,13.54 15.451,14.19 15.451,14.88 C15.451,15.57 15.071,16.22 14.401,16.67 C13.731,17.12 12.861,17.35 12.001,17.35 Z M10.431,14.34 C10.181,14.5 10.041,14.7 10.051,14.88 C10.051,15.06 10.191,15.26 10.431,15.42 C11.271,15.98 12.731,15.98 13.571,15.42 C13.821,15.26 13.961,15.06 13.961,14.88 C13.961,14.7 13.821,14.5 13.581,14.34 C12.741,13.79 11.271,13.79 10.431,14.34 Z"/>
</svg>

