<svg xmlns="http://www.w3.org/2000/svg" width="24" height="24" viewBox="0 0 24 24">
  <defs/>
  <path fill="#292D32" d="M21.66,11.12 L21.66,11.122 Q21.659,15.047 19.121,18.316 Q16.585,21.582 12.71,22.653 Q12,22.846 11.293,22.654 Q7.415,21.582 4.879,18.316 Q2.34,15.047 2.34,11.12 L2.34,6.73 Q2.34,4.723 4.2,3.974 L9.766,1.696 Q12.005,0.782 14.243,1.696 L19.814,3.976 Q21.67,4.733 21.67,6.73 Z M20.16,11.118 L20.17,6.73 Q20.17,5.741 19.246,5.364 L13.677,3.084 Q12.005,2.402 10.334,3.084 L4.76,5.366 Q3.84,5.736 3.84,6.73 L3.84,11.12 Q3.84,14.533 6.064,17.396 Q8.294,20.269 11.687,21.206 Q12,21.292 12.31,21.207 Q15.706,20.269 17.936,17.396 Q20.16,14.533 20.16,11.12 Z"/>
</svg>

