<svg xmlns="http://www.w3.org/2000/svg" width="24" height="24" viewBox="0 0 24 24">
  <defs/>
  <path fill="#292D32" d="M20.91,11.12 L20.91,6.73 C20.91,5.91 20.29,4.98 19.52,4.67 L13.95,2.39 C12.7,1.88 11.29,1.88 10.04,2.39 L4.47,4.67 C3.71,4.98 3.09,5.91 3.09,6.73 L3.09,11.12 C3.09,16.01 6.64,20.59 11.49,21.93 C11.82,22.02 12.18,22.02 12.51,21.93 C17.36,20.59 20.91,16.01 20.91,11.12 Z M12.75,12.87 L12.75,15.5 C12.75,15.91 12.41,16.25 12,16.25 C11.59,16.25 11.25,15.91 11.25,15.5 L11.25,12.87 C10.24,12.55 9.5,11.61 9.5,10.5 C9.5,9.12 10.62,8 12,8 C13.38,8 14.5,9.12 14.5,10.5 C14.5,11.62 13.76,12.55 12.75,12.87 Z"/>
</svg>

