<svg xmlns="http://www.w3.org/2000/svg" width="24" height="24" viewBox="0 0 24 24">
  <defs/>
  <path fill="#292D32" d="M18.5,4.11 L13.51,2.24 C12.68,1.93 11.32,1.93 10.49,2.24 L5.5,4.11 C4.35,4.54 3.41,5.9 3.41,7.12 L3.41,14.55 C3.41,15.73 4.19,17.28 5.14,17.99 L9.44,21.2 C10.85,22.26 13.17,22.26 14.58,21.2 L18.88,17.99 C19.83,17.28 20.61,15.73 20.61,14.55 L20.61,7.12 C20.59,5.9 19.65,4.54 18.5,4.11 Z M11.93,7.03 C13.11,7.03 14.07,7.99 14.07,9.17 C14.07,10.33 13.16,11.26 12.01,11.3 L11.99,11.3 L11.97,11.3 C11.95,11.3 11.93,11.3 11.91,11.3 C10.71,11.26 9.81,10.33 9.81,9.17 C9.8,7.99 10.76,7.03 11.93,7.03 Z M14.19,16.36 C13.58,16.76 12.79,16.97 12,16.97 C11.21,16.97 10.41,16.77 9.81,16.36 C9.24,15.98 8.93,15.46 8.92,14.89 C8.92,14.33 9.24,13.79 9.81,13.41 C11.02,12.61 12.99,12.61 14.2,13.41 C14.77,13.79 15.09,14.31 15.09,14.88 C15.08,15.44 14.76,15.98 14.19,16.36 Z"/>
</svg>

