<svg xmlns="http://www.w3.org/2000/svg" width="24" height="24" viewBox="0 0 24 24">
  <defs/>
  <path fill="#292D32" opacity="0.4" d="M18.33,5.67 L6.59,17.41 C6.15,17.85 5.41,17.79 5.05,17.27 C3.81,15.46 3.08,13.32 3.08,11.12 L3.08,6.73 C3.08,5.91 3.7,4.98 4.46,4.67 L10.03,2.39 C11.29,1.87 12.69,1.87 13.95,2.39 L17.99,4.04 C18.66,4.31 18.83,5.17 18.33,5.67 Z"/>
  <path fill="#292D32" d="M19.27,7.04 C19.92,6.49 20.91,6.96 20.91,7.81 L20.91,11.12 C20.91,16.01 17.36,20.59 12.51,21.93 C12.18,22.02 11.82,22.02 11.48,21.93 C10.06,21.53 8.74,20.86 7.61,19.98 C7.13,19.61 7.08,18.91 7.5,18.48 C9.68,16.25 16.06,9.75 19.27,7.04 Z"/>
</svg>

