<svg xmlns="http://www.w3.org/2000/svg" width="24" height="24" viewBox="0 0 24 24">
  <defs/>
  <path fill="#292D32" opacity="0.4" d="M10.49,2.23 L5.5,4.1 C4.35,4.53 3.41,5.89 3.41,7.12 L3.41,14.55 C3.41,15.73 4.19,17.28 5.14,17.99 L9.44,21.2 C10.85,22.26 13.17,22.26 14.58,21.2 L18.88,17.99 C19.83,17.28 20.61,15.73 20.61,14.55 L20.61,7.12 C20.61,5.89 19.67,4.53 18.52,4.1 L13.53,2.23 C12.68,1.92 11.32,1.92 10.49,2.23 Z"/>
  <path fill="#292D32" d="M11.899,11.3 C11.919,11.3 11.939,11.3 11.959,11.3 L11.979,11.3 L11.999,11.3 C13.149,11.26 14.049,10.33 14.059,9.17 C14.059,7.99 13.099,7.03 11.919,7.03 C10.739,7.03 9.779,7.99 9.779,9.17 C9.799,10.32 10.699,11.26 11.899,11.3 Z"/>
  <path fill="#292D32" d="M14.19,13.41 C12.98,12.61 11.02,12.61 9.8,13.41 C9.24,13.79 8.91,14.33 8.91,14.89 C8.91,15.46 9.23,15.98 9.8,16.36 C10.41,16.76 11.2,16.97 11.99,16.97 C12.78,16.97 13.58,16.77 14.18,16.36 C14.74,15.98 15.07,15.44 15.07,14.88 C15.08,14.31 14.76,13.79 14.19,13.41 Z"/>
</svg>

