<svg xmlns="http://www.w3.org/2000/svg" width="24" height="24" viewBox="0 0 24 24">
  <defs/>
  <path fill="#292D32" d="M4.16,11.37 L4.16,14.55 Q4.16,16.321 5.589,17.389 L9.889,20.599 Q12.01,22.194 14.129,20.601 L18.432,17.389 Q19.86,16.321 19.86,14.55 L19.86,7.12 Q19.86,5.402 18.257,4.803 L13.267,2.932 Q12.02,2.467 10.773,2.933 L5.783,4.802 Q4.18,5.402 4.18,7.12 Q4.18,7.431 3.96,7.65 Q3.741,7.87 3.43,7.87 Q3.119,7.87 2.9,7.65 Q2.68,7.431 2.68,7.12 Q2.68,4.361 5.257,3.398 L10.248,1.527 Q12.02,0.865 13.793,1.528 L18.783,3.398 Q21.36,4.361 21.36,7.12 L21.36,14.55 Q21.36,17.073 19.329,18.591 L15.031,21.8 Q12.01,24.07 8.992,21.801 L4.691,18.591 Q2.66,17.073 2.66,14.55 L2.66,11.37 Q2.66,11.059 2.88,10.84 Q3.099,10.62 3.41,10.62 Q3.721,10.62 3.94,10.84 Q4.16,11.059 4.16,11.37 Z"/>
  <path fill="#292D32" d="M15.25,11.5 Q15.25,8.25 12,8.25 Q10.653,8.25 9.702,9.202 Q8.75,10.153 8.75,11.5 Q8.75,14.75 12,14.75 Q12.855,14.75 13.579,14.338 Q13.849,14.184 14.149,14.267 Q14.448,14.349 14.602,14.619 Q14.756,14.889 14.673,15.189 Q14.591,15.488 14.321,15.642 Q13.252,16.25 12,16.25 Q10.032,16.25 8.641,14.859 Q7.25,13.468 7.25,11.5 Q7.25,9.532 8.641,8.141 Q10.032,6.75 12,6.75 Q13.968,6.75 15.359,8.141 Q16.75,9.532 16.75,11.5 Q16.75,11.811 16.53,12.03 Q16.311,12.25 16,12.25 Q15.689,12.25 15.47,12.03 Q15.25,11.811 15.25,11.5 Z"/>
  <path fill="#292D32" d="M13,10.25 L13,11.18 Q13,12.187 12.137,12.689 L11.388,13.142 Q11.123,13.302 10.821,13.228 Q10.519,13.154 10.358,12.888 Q10.198,12.623 10.272,12.321 Q10.346,12.019 10.612,11.858 L11.383,11.391 Q11.5,11.324 11.5,11.18 L11.5,10.25 Q11.5,9.939 11.72,9.72 Q11.939,9.5 12.25,9.5 Q12.561,9.5 12.78,9.72 Q13,9.939 13,10.25 Z"/>
</svg>

