<svg xmlns="http://www.w3.org/2000/svg" width="24" height="24" viewBox="0 0 24 24">
  <defs/>
  <path fill="#292D32" d="M12,8.25 C10.21,8.25 8.75,9.71 8.75,11.5 C8.75,13.29 10.21,14.75 12,14.75 C13.79,14.75 15.25,13.29 15.25,11.5 C15.25,9.71 13.79,8.25 12,8.25 Z M13,11.18 C13,11.79 12.67,12.37 12.15,12.68 L11.38,13.14 C11.26,13.21 11.13,13.25 10.99,13.25 C10.74,13.25 10.49,13.12 10.35,12.89 C10.14,12.53 10.25,12.07 10.61,11.86 L11.37,11.4 C11.45,11.35 11.49,11.27 11.49,11.19 L11.49,10.26 C11.49,9.85 11.83,9.51 12.24,9.51 C12.65,9.51 13,9.84 13,10.25 L13,11.18 Z"/>
  <path fill="#292D32" d="M18.541,4.171 L13.041,2.111 C12.471,1.901 11.541,1.901 10.971,2.111 L5.471,4.171 C4.411,4.571 3.551,5.811 3.551,6.941 L3.551,15.041 C3.551,15.851 4.081,16.921 4.731,17.401 L10.231,21.511 C11.201,22.241 12.791,22.241 13.761,21.511 L19.261,17.401 C19.911,16.911 20.441,15.851 20.441,15.041 L20.441,6.941 C20.451,5.811 19.591,4.571 18.541,4.171 Z M12.001,16.251 C9.381,16.251 7.251,14.121 7.251,11.501 C7.251,8.881 9.381,6.751 12.001,6.751 C14.621,6.751 16.751,8.881 16.751,11.501 C16.751,14.121 14.621,16.251 12.001,16.251 Z"/>
</svg>

