<svg xmlns="http://www.w3.org/2000/svg" width="24" height="24" viewBox="0 0 24 24">
  <defs/>
  <path fill="#292D32" d="M16.19,2 L7.81,2 C4.17,2 2,4.17 2,7.81 L2,16.18 C2,19.83 4.17,22 7.81,22 L16.18,22 C19.82,22 21.99,19.83 21.99,16.19 L21.99,7.81 C22,4.17 19.83,2 16.19,2 Z M8.64,12.81 L13.02,8.43 L10.59,8.43 C10.18,8.43 9.84,8.09 9.84,7.68 C9.84,7.27 10.18,6.93 10.59,6.93 L14.83,6.93 C14.93,6.93 15.02,6.95 15.12,6.99 C15.3,7.07 15.45,7.21 15.53,7.4 C15.57,7.49 15.59,7.59 15.59,7.69 L15.59,11.93 C15.59,12.34 15.25,12.68 14.84,12.68 C14.43,12.68 14.09,12.34 14.09,11.93 L14.09,9.5 L9.7,13.87 C9.55,14.02 9.36,14.09 9.17,14.09 C8.98,14.09 8.79,14.02 8.64,13.87 C8.35,13.58 8.35,13.1 8.64,12.81 Z M18.24,17.22 C16.23,17.89 14.12,18.23 12,18.23 C9.88,18.23 7.77,17.89 5.76,17.22 C5.37,17.09 5.16,16.66 5.29,16.27 C5.42,15.88 5.84,15.66 6.24,15.8 C9.96,17.04 14.05,17.04 17.77,15.8 C18.16,15.67 18.59,15.88 18.72,16.27 C18.84,16.67 18.63,17.09 18.24,17.22 Z"/>
</svg>

