<svg xmlns="http://www.w3.org/2000/svg" width="24" height="24" viewBox="0 0 24 24">
  <defs/>
  <path fill="#292D32" opacity="0.4" d="M9.509,4.23 L18.069,8.51 C21.909,10.43 21.909,13.57 18.069,15.49 L9.509,19.77 C3.749,22.65 1.399,20.29 4.279,14.54 L5.149,12.81 C5.399,12.3 5.399,11.71 5.149,11.2 L4.279,9.46 C1.399,3.71 3.759,1.35 9.509,4.23 Z"/>
  <path fill="#292D32" d="M14.839,12.75 L9.439,12.75 C9.029,12.75 8.689,12.41 8.689,12 C8.689,11.59 9.029,11.25 9.439,11.25 L14.839,11.25 C15.249,11.25 15.589,11.59 15.589,12 C15.589,12.41 15.249,12.75 14.839,12.75 Z"/>
</svg>

