<svg xmlns="http://www.w3.org/2000/svg" width="24" height="24" viewBox="0 0 24 24">
  <defs/>
  <path fill="#292D32" d="M16.139,2.959 L7.109,5.959 C1.039,7.989 1.039,11.299 7.109,13.319 L9.789,14.209 L10.679,16.889 C12.699,22.959 16.019,22.959 18.039,16.889 L21.049,7.869 C22.389,3.819 20.189,1.609 16.139,2.959 Z M16.459,8.339 L12.659,12.159 C12.509,12.309 12.319,12.379 12.129,12.379 C11.939,12.379 11.749,12.309 11.599,12.159 C11.309,11.869 11.309,11.389 11.599,11.099 L15.399,7.279 C15.689,6.989 16.169,6.989 16.459,7.279 C16.749,7.569 16.749,8.049 16.459,8.339 Z"/>
</svg>

