<svg xmlns="http://www.w3.org/2000/svg" width="24" height="24" viewBox="0 0 24 24">
  <defs/>
  <path fill="#292D32" d="M20.5,21.25 L3.5,21.25 C3.09,21.25 2.75,21.59 2.75,22 C2.75,22.41 3.09,22.75 3.5,22.75 L20.5,22.75 C20.91,22.75 21.25,22.41 21.25,22 C21.25,21.59 20.91,21.25 20.5,21.25 Z"/>
  <path fill="#292D32" d="M5,14.52 C5.41,14.52 5.75,14.18 5.75,13.77 L5.75,5.31 L18.47,18.03 C18.62,18.18 18.81,18.25 19,18.25 C19.19,18.25 19.38,18.18 19.53,18.03 C19.82,17.74 19.82,17.26 19.53,16.97 L6.81,4.25 L15.27,4.25 C15.68,4.25 16.02,3.91 16.02,3.5 C16.02,3.09 15.68,2.75 15.27,2.75 L5,2.75 C4.9,2.75 4.81,2.77 4.71,2.81 C4.53,2.88 4.38,3.03 4.31,3.21 C4.27,3.31 4.25,3.4 4.25,3.5 L4.25,13.77 C4.25,14.18 4.59,14.52 5,14.52 Z"/>
</svg>

