<svg xmlns="http://www.w3.org/2000/svg" width="24" height="24" viewBox="0 0 24 24">
  <defs/>
  <path fill="#292D32" d="M16.19,2 L7.81,2 C4.17,2 2,4.17 2,7.81 L2,16.18 C2,19.83 4.17,22 7.81,22 L16.18,22 C19.82,22 21.99,19.83 21.99,16.19 L21.99,7.81 C22,4.17 19.83,2 16.19,2 Z M8.47,8.98 L11.47,5.98 C11.54,5.91 11.62,5.86 11.71,5.82 C11.89,5.74 12.1,5.74 12.28,5.82 C12.37,5.86 12.45,5.91 12.52,5.98 L15.52,8.98 C15.81,9.27 15.81,9.75 15.52,10.04 C15.37,10.19 15.18,10.26 14.99,10.26 C14.8,10.26 14.61,10.19 14.46,10.04 L12.74,8.32 L12.74,14.51 C12.74,14.92 12.4,15.26 11.99,15.26 C11.58,15.26 11.24,14.92 11.24,14.51 L11.24,8.32 L9.52,10.04 C9.23,10.33 8.75,10.33 8.46,10.04 C8.17,9.75 8.18,9.28 8.47,8.98 Z M18.24,17.22 C16.23,17.89 14.12,18.23 12,18.23 C9.88,18.23 7.77,17.89 5.76,17.22 C5.37,17.09 5.16,16.66 5.29,16.27 C5.42,15.88 5.85,15.66 6.24,15.8 C9.96,17.04 14.05,17.04 17.77,15.8 C18.16,15.67 18.59,15.88 18.72,16.27 C18.84,16.67 18.63,17.09 18.24,17.22 Z"/>
</svg>

