<svg xmlns="http://www.w3.org/2000/svg" width="24" height="24" viewBox="0 0 24 24">
  <defs/>
  <path fill="#292D32" d="M6.88,6.44 L4.47,4.03 Q4.25,3.811 4.25,3.5 Q4.25,3.189 4.47,2.97 Q4.689,2.75 5,2.75 Q5.311,2.75 5.53,2.97 L7.94,5.38 Q8.16,5.599 8.16,5.91 Q8.16,6.221 7.94,6.44 Q7.721,6.66 7.41,6.66 Q7.099,6.66 6.88,6.44 Z"/>
  <path fill="#292D32" d="M18.469,18.03 L10.089,9.65 Q9.869,9.431 9.869,9.12 Q9.869,8.809 10.089,8.59 Q10.308,8.37 10.619,8.37 Q10.93,8.37 11.149,8.59 L19.529,16.97 Q19.749,17.189 19.749,17.5 Q19.749,17.811 19.529,18.03 Q19.31,18.25 18.999,18.25 Q18.688,18.25 18.469,18.03 Z"/>
  <path fill="#292D32" d="M19.75,7.23 L19.75,17.5 Q19.75,17.811 19.531,18.03 Q19.311,18.25 19,18.25 L8.73,18.25 Q8.42,18.25 8.2,18.03 Q7.98,17.811 7.98,17.5 Q7.98,17.189 8.2,16.97 Q8.42,16.75 8.73,16.75 L18.25,16.75 L18.25,7.23 Q18.25,6.919 18.47,6.7 Q18.69,6.48 19,6.48 Q19.311,6.48 19.531,6.7 Q19.75,6.919 19.75,7.23 Z"/>
  <path fill="#292D32" d="M3.5,21.25 L20.5,21.25 Q20.811,21.25 21.03,21.47 Q21.25,21.689 21.25,22 Q21.25,22.311 21.03,22.53 Q20.811,22.75 20.5,22.75 L3.5,22.75 Q3.189,22.75 2.97,22.53 Q2.75,22.311 2.75,22 Q2.75,21.689 2.97,21.47 Q3.189,21.25 3.5,21.25 Z"/>
</svg>

