<svg xmlns="http://www.w3.org/2000/svg" width="24" height="24" viewBox="0 0 24 24">
  <defs/>
  <path fill="#292D32" opacity="0.4" d="M7.11,5.96 L16.13,2.95 C20.18,1.6 22.38,3.81 21.04,7.86 L18.03,16.88 C16.01,22.95 12.69,22.95 10.67,16.88 L9.78,14.2 L7.1,13.31 C1.04,11.3 1.04,7.99 7.11,5.96 Z"/>
  <path fill="#292D32" d="M12.12,12.38 C11.931,12.38 11.741,12.31 11.591,12.16 C11.3,11.87 11.3,11.39 11.591,11.1 L15.39,7.28 C15.681,6.99 16.16,6.99 16.451,7.28 C16.741,7.57 16.741,8.05 16.451,8.34 L12.65,12.16 C12.501,12.3 12.31,12.38 12.12,12.38 Z"/>
</svg>

