<svg xmlns="http://www.w3.org/2000/svg" width="24" height="24" viewBox="0 0 24 24">
  <defs/>
  <path fill="#292D32" d="M20.5,22.75 L3.5,22.75 C3.09,22.75 2.75,22.41 2.75,22 C2.75,21.59 3.09,21.25 3.5,21.25 L20.5,21.25 C20.91,21.25 21.25,21.59 21.25,22 C21.25,22.41 20.91,22.75 20.5,22.75 Z"/>
  <path fill="#292D32" d="M19,18.25 C18.809,18.25 18.619,18.18 18.47,18.03 L4.469,4.03 C4.179,3.74 4.179,3.26 4.469,2.97 C4.759,2.68 5.239,2.68 5.529,2.97 L19.529,16.97 C19.82,17.26 19.82,17.74 19.529,18.03 C19.38,18.18 19.189,18.25 19,18.25 Z"/>
  <path fill="#292D32" d="M5,14.52 C4.59,14.52 4.25,14.18 4.25,13.77 L4.25,3.5 C4.25,3.09 4.59,2.75 5,2.75 L15.27,2.75 C15.68,2.75 16.02,3.09 16.02,3.5 C16.02,3.91 15.68,4.25 15.27,4.25 L5.75,4.25 L5.75,13.77 C5.75,14.18 5.41,14.52 5,14.52 Z"/>
</svg>

