<svg xmlns="http://www.w3.org/2000/svg" width="24" height="24" viewBox="0 0 24 24">
  <defs/>
  <path fill="#292D32" d="M7.163,5.609 L15.653,2.779 Q18.949,1.68 20.632,3.365 Q22.313,5.048 21.222,8.346 L18.392,16.837 Q16.796,21.632 14.22,21.632 Q11.644,21.632 10.048,16.837 L9.327,14.673 L7.163,13.952 Q2.367,12.356 2.367,9.784 Q2.367,7.213 7.162,5.609 Z M7.638,7.031 L7.637,7.032 Q3.867,8.293 3.867,9.784 Q3.867,11.274 7.637,12.528 L10.157,13.368 Q10.513,13.487 10.632,13.843 L11.472,16.363 Q12.726,20.132 14.22,20.132 Q15.714,20.132 16.968,16.363 L19.798,7.875 Q20.598,5.454 19.571,4.425 Q18.543,3.396 16.127,4.202 Z"/>
  <path fill="#292D32" d="M9.579,13.121 L13.159,9.531 Q13.378,9.311 13.689,9.31 Q14,9.31 14.22,9.529 Q14.44,9.748 14.44,10.059 Q14.44,10.37 14.221,10.59 L10.641,14.18 Q10.422,14.4 10.111,14.4 Q9.8,14.401 9.58,14.181 Q9.36,13.962 9.36,13.651 Q9.36,13.34 9.579,13.121 Z"/>
</svg>

