<svg xmlns="http://www.w3.org/2000/svg" width="24" height="24" viewBox="0 0 24 24">
  <defs/>
  <path fill="#292D32" d="M9.845,3.559 L18.405,7.839 Q21.699,9.487 21.699,12 Q21.699,14.514 18.405,16.161 L9.845,20.441 Q5.042,22.842 3.124,20.921 Q1.206,19.001 3.609,14.204 L4.479,12.473 Q4.713,12.005 4.478,11.536 L3.608,9.796 Q1.206,5 3.128,3.079 Q5.049,1.157 9.845,3.559 Z M9.173,4.901 Q5.345,2.983 4.188,4.139 Q3.032,5.295 4.95,9.125 L5.82,10.865 Q6.39,12.005 5.819,13.147 L4.95,14.876 Q3.031,18.706 4.185,19.862 Q5.339,21.017 9.174,19.099 L17.734,14.819 Q20.199,13.587 20.199,12 Q20.199,10.414 17.734,9.181 L9.174,4.901 Z"/>
  <path fill="#292D32" opacity="0.34" d="M5.439,11.25 L10.84,11.25 Q11.15,11.25 11.37,11.47 Q11.59,11.689 11.59,12 Q11.59,12.311 11.37,12.53 Q11.15,12.75 10.84,12.75 L5.439,12.75 Q5.129,12.75 4.909,12.53 Q4.689,12.311 4.689,12 Q4.689,11.689 4.909,11.47 Q5.129,11.25 5.439,11.25 Z"/>
</svg>

