<svg xmlns="http://www.w3.org/2000/svg" width="24" height="24" viewBox="0 0 24 24">
  <defs/>
  <path fill="#292D32" d="M5.41,21.75 C4.29,21.75 3.58,21.37 3.13,20.92 C2.25,20.04 1.63,18.17 3.61,14.2 L4.48,12.47 C4.59,12.24 4.59,11.76 4.48,11.53 L3.61,9.8 C1.62,5.83 2.25,3.95 3.13,3.08 C4,2.2 5.88,1.57 9.84,3.56 L18.4,7.84 C20.53,8.9 21.7,10.38 21.7,12 C21.7,13.62 20.53,15.1 18.41,16.16 L9.85,20.44 C7.91,21.41 6.47,21.75 5.41,21.75 Z M5.41,3.75 C4.87,3.75 4.45,3.88 4.19,4.14 C3.46,4.86 3.75,6.73 4.95,9.12 L5.82,10.86 C6.14,11.51 6.14,12.49 5.82,13.14 L4.95,14.87 C3.75,17.27 3.46,19.13 4.19,19.85 C4.91,20.58 6.78,20.29 9.18,19.09 L17.74,14.81 C19.31,14.03 20.2,13 20.2,11.99 C20.2,10.98 19.3,9.95 17.73,9.17 L9.17,4.9 C7.65,4.14 6.34,3.75 5.41,3.75 Z"/>
  <path fill="#292D32" d="M10.839,12.75 L5.439,12.75 C5.029,12.75 4.689,12.41 4.689,12 C4.689,11.59 5.029,11.25 5.439,11.25 L10.839,11.25 C11.249,11.25 11.589,11.59 11.589,12 C11.589,12.41 11.249,12.75 10.839,12.75 Z"/>
</svg>

