<svg xmlns="http://www.w3.org/2000/svg" width="24" height="24" viewBox="0 0 24 24">
  <defs/>
  <path fill="#292D32" d="M14.221,21.63 C13.041,21.63 11.371,20.8 10.051,16.83 L9.331,14.67 L7.171,13.95 C3.211,12.63 2.381,10.96 2.381,9.78 C2.381,8.61 3.211,6.93 7.171,5.6 L15.661,2.77 C17.781,2.06 19.551,2.27 20.641,3.35 C21.731,4.43 21.941,6.21 21.231,8.33 L18.401,16.82 C17.071,20.8 15.401,21.63 14.221,21.63 Z M7.641,7.03 C4.861,7.96 3.871,9.06 3.871,9.78 C3.871,10.5 4.861,11.6 7.641,12.52 L10.161,13.36 C10.381,13.43 10.561,13.61 10.631,13.83 L11.471,16.35 C12.391,19.13 13.501,20.12 14.221,20.12 C14.941,20.12 16.041,19.13 16.971,16.35 L19.801,7.86 C20.311,6.32 20.221,5.06 19.571,4.41 C18.921,3.76 17.661,3.68 16.131,4.19 L7.641,7.03 Z"/>
  <path fill="#292D32" d="M10.111,14.4 C9.921,14.4 9.731,14.33 9.581,14.18 C9.291,13.89 9.291,13.41 9.581,13.12 L13.161,9.53 C13.451,9.24 13.931,9.24 14.221,9.53 C14.511,9.82 14.511,10.3 14.221,10.59 L10.641,14.18 C10.501,14.33 10.301,14.4 10.111,14.4 Z"/>
</svg>

