<svg xmlns="http://www.w3.org/2000/svg" width="24" height="24" viewBox="0 0 24 24">
  <defs/>
  <path fill="#292D32" opacity="0.4" d="M16.19,2 L7.82,2 C4.18,2 2.01,4.17 2.01,7.81 L2.01,16.18 C2.01,19.82 4.18,21.99 7.82,21.99 L16.19,21.99 C19.83,21.99 22,19.82 22,16.18 L22,7.81 C22,4.17 19.83,2 16.19,2 Z"/>
  <path fill="#292D32" d="M9.172,14.09 C9.362,14.09 9.552,14.02 9.702,13.87 L14.082,9.49 L14.082,11.92 C14.082,12.33 14.422,12.67 14.832,12.67 C15.242,12.67 15.582,12.33 15.582,11.92 L15.582,7.68 C15.582,7.58 15.562,7.49 15.522,7.39 C15.442,7.21 15.302,7.06 15.112,6.98 C15.022,6.94 14.922,6.92 14.822,6.92 L10.582,6.92 C10.172,6.92 9.832,7.26 9.832,7.67 C9.832,8.08 10.172,8.42 10.582,8.42 L13.012,8.42 L8.632,12.8 C8.342,13.09 8.342,13.57 8.632,13.86 C8.792,14.02 8.982,14.09 9.172,14.09 Z"/>
  <path fill="#292D32" d="M18.711,16.28 C18.581,15.89 18.161,15.68 17.761,15.81 C14.041,17.05 9.951,17.05 6.231,15.81 C5.841,15.68 5.411,15.89 5.281,16.28 C5.151,16.67 5.361,17.1 5.751,17.23 C7.761,17.9 9.871,18.24 11.991,18.24 C14.111,18.24 16.221,17.9 18.231,17.23 C18.631,17.09 18.841,16.67 18.711,16.28 Z"/>
</svg>

