<svg xmlns="http://www.w3.org/2000/svg" width="24" height="24" viewBox="0 0 24 24">
  <defs/>
  <path fill="#292D32" opacity="0.4" d="M20.499,22.8 L3.499,22.8 C3.099,22.8 2.699,22.5 2.699,22 C2.699,21.5 2.999,21.2 3.499,21.2 L20.499,21.2 C20.899,21.2 21.299,21.5 21.299,22 C21.299,22.5 20.899,22.8 20.499,22.8 Z"/>
  <path fill="#292D32" d="M18.998,18.2 C18.798,18.2 18.598,18.1 18.498,18 L4.498,4 C4.198,3.7 4.198,3.3 4.498,3 C4.798,2.7 5.298,2.7 5.598,3 L19.598,17 C19.898,17.3 19.898,17.8 19.598,18.1 C19.398,18.2 19.198,18.2 18.998,18.2 Z"/>
  <path fill="#292D32" d="M4.999,14.5 C4.599,14.5 4.199,14.2 4.199,13.7 L4.199,3.5 C4.199,3.1 4.499,2.7 4.999,2.7 L15.299,2.7 C15.699,2.7 16.099,3 16.099,3.5 C16.099,4 15.799,4.3 15.299,4.3 L5.799,4.3 L5.799,13.8 C5.799,14.2 5.399,14.5 4.999,14.5 Z"/>
</svg>

