<svg xmlns="http://www.w3.org/2000/svg" width="24" height="24" viewBox="0 0 24 24">
  <defs/>
  <path fill="#292D32" opacity="0.4" d="M3.5,21.25 L20.5,21.25 Q20.811,21.25 21.03,21.47 Q21.25,21.689 21.25,22 Q21.25,22.311 21.03,22.53 Q20.811,22.75 20.5,22.75 L3.5,22.75 Q3.189,22.75 2.97,22.53 Q2.75,22.311 2.75,22 Q2.75,21.689 2.97,21.47 Q3.189,21.25 3.5,21.25 Z"/>
  <path fill="#292D32" d="M5.53,2.97 L19.53,16.97 Q19.75,17.189 19.75,17.5 Q19.75,17.811 19.53,18.03 Q19.311,18.25 19,18.25 Q18.689,18.25 18.47,18.03 L4.47,4.03 Q4.25,3.811 4.25,3.5 Q4.25,3.189 4.47,2.97 Q4.689,2.75 5,2.75 Q5.311,2.75 5.53,2.97 Z"/>
  <path fill="#292D32" d="M4.25,13.77 L4.25,3.5 Q4.25,3.189 4.47,2.97 Q4.689,2.75 5,2.75 L15.27,2.75 Q15.581,2.75 15.8,2.97 Q16.02,3.189 16.02,3.5 Q16.02,3.811 15.8,4.03 Q15.581,4.25 15.27,4.25 L5.75,4.25 L5.75,13.77 Q5.75,14.081 5.53,14.3 Q5.311,14.52 5,14.52 Q4.689,14.52 4.47,14.3 Q4.25,14.081 4.25,13.77 Z"/>
</svg>

