<svg xmlns="http://www.w3.org/2000/svg" width="24" height="24" viewBox="0 0 24 24">
  <defs/>
  <path fill="#292D32" opacity="0.4" d="M16.19,2 L7.82,2 C4.18,2 2.01,4.17 2.01,7.81 L2.01,16.18 C2.01,19.82 4.18,21.99 7.82,21.99 L16.19,21.99 C19.83,21.99 22,19.82 22,16.18 L22,7.81 C22,4.17 19.83,2 16.19,2 Z"/>
  <path fill="#292D32" d="M11.47,5.98 C11.763,5.687 12.237,5.687 12.53,5.98 L15.53,8.98 C15.823,9.273 15.823,9.747 15.53,10.04 C15.237,10.333 14.763,10.333 14.47,10.04 L12,7.571 L9.53,10.04 C9.237,10.333 8.763,10.333 8.47,10.04 C8.177,9.747 8.177,9.273 8.47,8.98 Z"/>
  <path fill="#292D32" d="M12,5.76 C12.414,5.76 12.75,6.096 12.75,6.51 L12.75,14.51 C12.75,14.924 12.414,15.26 12,15.26 C11.586,15.26 11.25,14.924 11.25,14.51 L11.25,6.51 C11.25,6.096 11.586,5.76 12,5.76 Z"/>
  <path fill="#292D32" d="M5.289,16.272 C5.42,15.879 5.845,15.667 6.238,15.799 C9.974,17.047 14.027,17.047 17.763,15.799 C18.155,15.667 18.58,15.879 18.712,16.272 C18.843,16.665 18.631,17.09 18.238,17.221 C14.194,18.573 9.807,18.573 5.762,17.221 C5.37,17.09 5.158,16.665 5.289,16.272 Z"/>
</svg>

