<svg xmlns="http://www.w3.org/2000/svg" width="24" height="24" viewBox="0 0 24 24">
  <defs/>
  <path fill="#292D32" d="M18.069,8.509 L9.509,4.229 C3.759,1.349 1.399,3.709 4.279,9.459 L5.149,11.199 C5.399,11.709 5.399,12.299 5.149,12.809 L4.279,14.539 C1.399,20.289 3.749,22.649 9.509,19.769 L18.069,15.489 C21.909,13.569 21.909,10.429 18.069,8.509 Z M14.839,12.749 L9.439,12.749 C9.029,12.749 8.689,12.409 8.689,11.999 C8.689,11.589 9.029,11.249 9.439,11.249 L14.839,11.249 C15.249,11.249 15.589,11.589 15.589,11.999 C15.589,12.409 15.249,12.749 14.839,12.749 Z"/>
</svg>

