<svg xmlns="http://www.w3.org/2000/svg" width="24" height="24" viewBox="0 0 24 24">
  <defs/>
  <path fill="#292D32" d="M9.845,3.559 L18.405,7.839 Q21.7,9.486 21.7,12 Q21.7,14.514 18.405,16.161 L9.845,20.441 Q5.043,22.842 3.124,20.921 Q1.207,19.001 3.609,14.204 L4.48,12.473 Q4.714,12.005 4.479,11.535 L3.609,9.795 Q1.207,5 3.128,3.078 Q5.05,1.157 9.845,3.559 Z M9.174,4.901 Q5.345,2.983 4.189,4.139 Q3.033,5.295 4.951,9.125 L5.821,10.865 Q6.391,12.005 5.82,13.147 L4.951,14.876 Q3.032,18.706 4.186,19.861 Q5.34,21.017 9.175,19.099 L17.735,14.819 Q20.2,13.586 20.2,12 Q20.2,10.414 17.735,9.181 L9.175,4.901 Z"/>
  <path fill="#292D32" d="M5.44,11.25 L10.84,11.25 Q11.151,11.25 11.37,11.47 Q11.59,11.689 11.59,12 Q11.59,12.311 11.37,12.53 Q11.151,12.75 10.84,12.75 L5.44,12.75 Q5.129,12.75 4.91,12.53 Q4.69,12.311 4.69,12 Q4.69,11.689 4.91,11.47 Q5.129,11.25 5.44,11.25 Z"/>
</svg>

