<svg xmlns="http://www.w3.org/2000/svg" width="24" height="24" viewBox="0 0 24 24">
  <defs/>
  <path fill="#292D32" d="M2.75,13.05 L2.75,15 Q2.75,18.439 4.155,19.845 Q5.561,21.25 9,21.25 L15,21.25 Q18.439,21.25 19.845,19.845 Q21.25,18.439 21.25,15 L21.25,9 Q21.25,2.75 15,2.75 L9,2.75 Q2.75,2.75 2.75,9 Q2.75,9.311 2.53,9.53 Q2.311,9.75 2,9.75 Q1.689,9.75 1.47,9.53 Q1.25,9.311 1.25,9 Q1.25,1.25 9,1.25 L15,1.25 Q22.75,1.25 22.75,9 L22.75,15 Q22.75,22.75 15,22.75 L9,22.75 Q1.25,22.75 1.25,15 L1.25,13.05 Q1.25,12.739 1.47,12.52 Q1.689,12.3 2,12.3 Q2.311,12.3 2.53,12.52 Q2.75,12.739 2.75,13.05 Z"/>
  <path fill="#292D32" d="M10.59,6.93 L14.83,6.93 Q15.14,6.93 15.36,7.15 Q15.58,7.369 15.58,7.68 L15.58,11.93 Q15.58,12.241 15.36,12.46 Q15.14,12.68 14.83,12.68 Q14.519,12.68 14.299,12.46 Q14.08,12.241 14.08,11.93 L14.08,8.43 L10.59,8.43 Q10.279,8.43 10.059,8.21 Q9.84,7.991 9.84,7.68 Q9.84,7.369 10.059,7.15 Q10.279,6.93 10.59,6.93 Z"/>
  <path fill="#292D32" d="M15.36,8.21 L9.7,13.87 Q9.481,14.09 9.17,14.09 Q8.859,14.09 8.64,13.87 Q8.42,13.651 8.42,13.34 Q8.42,13.029 8.64,12.81 L14.3,7.15 Q14.519,6.93 14.83,6.93 Q15.141,6.93 15.36,7.15 Q15.58,7.369 15.58,7.68 Q15.58,7.991 15.36,8.21 Z"/>
  <path fill="#292D32" d="M6.238,15.799 Q12,17.724 17.762,15.799 Q18.057,15.7 18.335,15.839 Q18.613,15.978 18.711,16.272 Q18.81,16.567 18.671,16.845 Q18.532,17.123 18.238,17.221 Q12,19.306 5.762,17.221 Q5.468,17.123 5.329,16.845 Q5.19,16.567 5.289,16.272 Q5.387,15.978 5.665,15.839 Q5.943,15.7 6.238,15.799 Z"/>
</svg>

