<svg xmlns="http://www.w3.org/2000/svg" width="24" height="24" viewBox="0 0 24 24">
  <defs/>
  <path fill="#292D32" d="M3.75,13.08 L3.75,14.88 Q3.75,16.269 3.9,16.529 Q4.062,16.811 5.398,17.714 L10.875,20.881 Q12.007,21.535 13.121,20.883 L18.602,17.714 Q19.938,16.81 20.101,16.53 Q20.25,16.271 20.25,14.89 L20.25,9.11 Q20.25,7.729 20.101,7.47 Q19.938,7.19 18.602,6.286 L13.125,3.119 Q12.007,2.465 10.875,3.119 L5.398,6.286 Q4.062,7.19 3.899,7.47 Q3.75,7.729 3.75,9.11 Q3.75,9.421 3.53,9.64 Q3.311,9.86 3,9.86 Q2.689,9.86 2.47,9.64 Q2.25,9.421 2.25,9.11 Q2.25,7.326 2.601,6.72 Q2.937,6.138 4.58,5.028 Q4.602,5.014 4.625,5.001 L10.125,1.821 Q12.011,0.73 13.875,1.821 L19.375,5.001 Q19.398,5.014 19.42,5.028 Q21.063,6.138 21.399,6.72 Q21.75,7.326 21.75,9.11 L21.75,14.89 Q21.75,16.674 21.399,17.28 Q21.063,17.863 19.42,18.972 Q19.398,18.986 19.375,18.999 L13.879,22.177 Q12.011,23.271 10.125,22.179 L4.625,18.999 Q4.602,18.986 4.58,18.972 Q2.937,17.862 2.6,17.278 Q2.25,16.671 2.25,14.88 L2.25,13.08 Q2.25,12.769 2.47,12.55 Q2.689,12.33 3,12.33 Q3.311,12.33 3.53,12.55 Q3.75,12.769 3.75,13.08 Z"/>
  <path fill="#292D32" d="M14.25,12 Q14.25,9.75 12,9.75 Q9.75,9.75 9.75,12 Q9.75,14.25 12,14.25 Q12.471,14.25 12.865,14.075 Q13.149,13.948 13.439,14.06 Q13.729,14.172 13.855,14.455 Q13.982,14.739 13.87,15.029 Q13.758,15.319 13.475,15.445 Q12.789,15.75 12,15.75 Q8.25,15.75 8.25,12 Q8.25,8.25 12,8.25 Q15.75,8.25 15.75,12 Q15.75,12.311 15.53,12.53 Q15.311,12.75 15,12.75 Q14.689,12.75 14.47,12.53 Q14.25,12.311 14.25,12 Z"/>
</svg>

