<svg xmlns="http://www.w3.org/2000/svg" width="24" height="24" viewBox="0 0 24 24">
  <defs/>
  <path fill="#292D32" d="M12,16.5 C14.485,16.5 16.5,14.485 16.5,12 C16.5,9.515 14.485,7.5 12,7.5 C9.515,7.5 7.5,9.515 7.5,12 C7.5,14.485 9.515,16.5 12,16.5 Z"/>
  <path fill="#292D32" d="M10,12.75 L2,12.75 C1.59,12.75 1.25,12.41 1.25,12 C1.25,11.59 1.59,11.25 2,11.25 L10,11.25 C10.41,11.25 10.75,11.59 10.75,12 C10.75,12.41 10.41,12.75 10,12.75 Z"/>
  <path fill="#292D32" d="M22,12.75 L14,12.75 C13.59,12.75 13.25,12.41 13.25,12 C13.25,11.59 13.59,11.25 14,11.25 L22,11.25 C22.41,11.25 22.75,11.59 22.75,12 C22.75,12.41 22.41,12.75 22,12.75 Z"/>
</svg>

