<svg xmlns="http://www.w3.org/2000/svg" width="24" height="24" viewBox="0 0 24 24">
  <defs/>
  <path fill="#292D32" d="M16.19,2 L7.81,2 C4.17,2 2,4.17 2,7.81 L2,16.18 C2,19.83 4.17,22 7.81,22 L16.18,22 C19.82,22 21.99,19.83 21.99,16.19 L21.99,7.81 C22,4.17 19.83,2 16.19,2 Z M7.67,5.5 C7.67,5.09 8.01,4.75 8.42,4.75 C8.83,4.75 9.17,5.09 9.17,5.5 L9.17,9.4 C9.17,9.81 8.83,10.15 8.42,10.15 C8.01,10.15 7.67,9.81 7.67,9.4 L7.67,5.5 Z M9.523,16.431 C9.319,16.522 9.17,16.713 9.17,16.936 L9.17,18.5 C9.17,18.91 8.83,19.25 8.42,19.25 C8.01,19.25 7.67,18.91 7.67,18.5 L7.67,16.936 C7.67,16.713 7.521,16.522 7.317,16.431 C6.363,16.006 5.7,15.058 5.7,13.95 C5.7,12.45 6.92,11.22 8.42,11.22 C9.92,11.22 11.15,12.44 11.15,13.95 C11.15,15.058 10.479,16.007 9.523,16.431 Z M16.33,18.5 C16.33,18.91 15.99,19.25 15.58,19.25 C15.17,19.25 14.83,18.91 14.83,18.5 L14.83,14.6 C14.83,14.19 15.17,13.85 15.58,13.85 C15.99,13.85 16.33,14.19 16.33,14.6 L16.33,18.5 Z M15.58,12.77 C14.08,12.77 12.85,11.55 12.85,10.04 C12.85,8.932 13.521,7.983 14.477,7.559 C14.681,7.468 14.83,7.277 14.83,7.054 L14.83,5.5 C14.83,5.09 15.17,4.75 15.58,4.75 C15.99,4.75 16.33,5.09 16.33,5.5 L16.33,7.064 C16.33,7.287 16.479,7.478 16.683,7.569 C17.637,7.994 18.3,8.942 18.3,10.05 C18.3,11.55 17.08,12.77 15.58,12.77 Z"/>
</svg>

