<svg xmlns="http://www.w3.org/2000/svg" width="24" height="24" viewBox="0 0 24 24">
  <defs/>
  <path fill="#292D32" d="M19,22.75 C18.59,22.75 18.25,22.41 18.25,22 L18.25,11 C18.25,10.59 18.59,10.25 19,10.25 C19.41,10.25 19.75,10.59 19.75,11 L19.75,22 C19.75,22.41 19.41,22.75 19,22.75 Z"/>
  <path fill="#292D32" d="M19,7.75 C18.59,7.75 18.25,7.41 18.25,7 L18.25,2 C18.25,1.59 18.59,1.25 19,1.25 C19.41,1.25 19.75,1.59 19.75,2 L19.75,7 C19.75,7.41 19.41,7.75 19,7.75 Z"/>
  <path fill="#292D32" d="M12,22.75 C11.59,22.75 11.25,22.41 11.25,22 L11.25,17 C11.25,16.59 11.59,16.25 12,16.25 C12.41,16.25 12.75,16.59 12.75,17 L12.75,22 C12.75,22.41 12.41,22.75 12,22.75 Z"/>
  <path fill="#292D32" d="M12,13.75 C11.59,13.75 11.25,13.41 11.25,13 L11.25,2 C11.25,1.59 11.59,1.25 12,1.25 C12.41,1.25 12.75,1.59 12.75,2 L12.75,13 C12.75,13.41 12.41,13.75 12,13.75 Z"/>
  <path fill="#292D32" d="M5,22.75 C4.59,22.75 4.25,22.41 4.25,22 L4.25,11 C4.25,10.59 4.59,10.25 5,10.25 C5.41,10.25 5.75,10.59 5.75,11 L5.75,22 C5.75,22.41 5.41,22.75 5,22.75 Z"/>
  <path fill="#292D32" d="M5,7.75 C4.59,7.75 4.25,7.41 4.25,7 L4.25,2 C4.25,1.59 4.59,1.25 5,1.25 C5.41,1.25 5.75,1.59 5.75,2 L5.75,7 C5.75,7.41 5.41,7.75 5,7.75 Z"/>
  <path fill="#292D32" d="M7,11.75 L3,11.75 C2.59,11.75 2.25,11.41 2.25,11 C2.25,10.59 2.59,10.25 3,10.25 L7,10.25 C7.41,10.25 7.75,10.59 7.75,11 C7.75,11.41 7.41,11.75 7,11.75 Z"/>
  <path fill="#292D32" d="M21,11.75 L17,11.75 C16.59,11.75 16.25,11.41 16.25,11 C16.25,10.59 16.59,10.25 17,10.25 L21,10.25 C21.41,10.25 21.75,10.59 21.75,11 C21.75,11.41 21.41,11.75 21,11.75 Z"/>
  <path fill="#292D32" d="M14,13.75 L10,13.75 C9.59,13.75 9.25,13.41 9.25,13 C9.25,12.59 9.59,12.25 10,12.25 L14,12.25 C14.41,12.25 14.75,12.59 14.75,13 C14.75,13.41 14.41,13.75 14,13.75 Z"/>
</svg>

