<svg xmlns="http://www.w3.org/2000/svg" width="24" height="24" viewBox="0 0 24 24">
  <defs/>
  <path fill="#292D32" opacity="0.4" d="M18.94,5.42 L13.77,2.43 C12.78,1.86 11.23,1.86 10.24,2.43 L5.02,5.44 C2.95,6.84 2.83,7.05 2.83,9.28 L2.83,14.71 C2.83,16.94 2.95,17.16 5.06,18.58 L10.23,21.57 C10.73,21.86 11.37,22 12,22 C12.63,22 13.27,21.86 13.76,21.57 L18.98,18.56 C21.05,17.16 21.17,16.95 21.17,14.72 L21.17,9.28 C21.17,7.05 21.05,6.84 18.94,5.42 Z"/>
  <path fill="#292D32" d="M12,15.25 C13.795,15.25 15.25,13.795 15.25,12 C15.25,10.205 13.795,8.75 12,8.75 C10.205,8.75 8.75,10.205 8.75,12 C8.75,13.795 10.205,15.25 12,15.25 Z"/>
</svg>

