<svg xmlns="http://www.w3.org/2000/svg" width="24" height="24" viewBox="0 0 24 24">
  <defs/>
  <path fill="#292D32" opacity="0.4" d="M21.23,7.62 L15.69,7.62 C15.31,7.62 15,7.31 15,6.92 C15,6.54 15.31,6.23 15.69,6.23 L21.23,6.23 C21.61,6.23 21.92,6.54 21.92,6.92 C21.92,7.31 21.61,7.62 21.23,7.62 Z"/>
  <path fill="#292D32" opacity="0.4" d="M6.46,7.62 L2.77,7.62 C2.39,7.62 2.08,7.31 2.08,6.93 C2.08,6.55 2.39,6.24 2.77,6.24 L6.46,6.24 C6.84,6.24 7.15,6.55 7.15,6.93 C7.15,7.31 6.84,7.62 6.46,7.62 Z"/>
  <path fill="#292D32" d="M10.15,10.84 C12.315,10.84 14.07,9.085 14.07,6.92 C14.07,4.755 12.315,3 10.15,3 C7.986,3 6.23,4.755 6.23,6.92 C6.23,9.085 7.986,10.84 10.15,10.84 Z"/>
  <path fill="#292D32" opacity="0.4" d="M21.23,17.77 L17.54,17.77 C17.16,17.77 16.85,17.46 16.85,17.08 C16.85,16.7 17.16,16.39 17.54,16.39 L21.23,16.39 C21.61,16.39 21.92,16.7 21.92,17.08 C21.92,17.46 21.61,17.77 21.23,17.77 Z"/>
  <path fill="#292D32" opacity="0.4" d="M8.31,17.77 L2.77,17.77 C2.39,17.77 2.08,17.46 2.08,17.08 C2.08,16.7 2.39,16.39 2.77,16.39 L8.31,16.39 C8.69,16.39 9,16.7 9,17.08 C9,17.46 8.69,17.77 8.31,17.77 Z"/>
  <path fill="#292D32" d="M13.85,21 C16.015,21 17.77,19.245 17.77,17.08 C17.77,14.915 16.015,13.16 13.85,13.16 C11.685,13.16 9.93,14.915 9.93,17.08 C9.93,19.245 11.685,21 13.85,21 Z"/>
</svg>

