<svg xmlns="http://www.w3.org/2000/svg" width="24" height="24" viewBox="0 0 24 24">
  <defs/>
  <path fill="#292D32" opacity="0.4" d="M16.19,2 L7.81,2 C4.17,2 2,4.17 2,7.81 L2,16.18 C2,19.83 4.17,22 7.81,22 L16.18,22 C19.82,22 21.99,19.83 21.99,16.19 L21.99,7.81 C22,4.17 19.83,2 16.19,2 Z"/>
  <path fill="#292D32" d="M15.58,19.25 C15.17,19.25 14.83,18.91 14.83,18.5 L14.83,14.6 C14.83,14.19 15.17,13.85 15.58,13.85 C15.99,13.85 16.33,14.19 16.33,14.6 L16.33,18.5 C16.33,18.91 15.99,19.25 15.58,19.25 Z"/>
  <path fill="#292D32" d="M15.58,8.2 C15.17,8.2 14.83,7.86 14.83,7.45 L14.83,5.5 C14.83,5.09 15.17,4.75 15.58,4.75 C15.99,4.75 16.33,5.09 16.33,5.5 L16.33,7.45 C16.33,7.86 15.99,8.2 15.58,8.2 Z"/>
  <path fill="#292D32" d="M8.42,19.25 C8.01,19.25 7.67,18.91 7.67,18.5 L7.67,16.55 C7.67,16.14 8.01,15.8 8.42,15.8 C8.83,15.8 9.17,16.14 9.17,16.55 L9.17,18.5 C9.17,18.91 8.84,19.25 8.42,19.25 Z"/>
  <path fill="#292D32" d="M8.42,10.15 C8.01,10.15 7.67,9.81 7.67,9.4 L7.67,5.5 C7.67,5.09 8.01,4.75 8.42,4.75 C8.83,4.75 9.17,5.09 9.17,5.5 L9.17,9.4 C9.17,9.81 8.84,10.15 8.42,10.15 Z"/>
  <path fill="#292D32" d="M15.58,7.33 C14.08,7.33 12.85,8.55 12.85,10.05 C12.85,11.55 14.07,12.78 15.58,12.78 C17.08,12.78 18.3,11.56 18.3,10.05 C18.3,8.54 17.08,7.33 15.58,7.33 Z"/>
  <path fill="#292D32" d="M8.419,11.23 C6.919,11.23 5.699,12.45 5.699,13.96 C5.699,15.47 6.919,16.68 8.419,16.68 C9.919,16.68 11.149,15.46 11.149,13.96 C11.149,12.46 9.929,11.23 8.419,11.23 Z"/>
</svg>

