<svg xmlns="http://www.w3.org/2000/svg" width="24" height="24" viewBox="0 0 24 24">
  <defs/>
  <path fill="#292D32" d="M21.299,7.58 L15.72,7.58 C15.329,7.58 15.02,7.27 15.02,6.88 C15.02,6.49 15.329,6.18 15.72,6.18 L21.299,6.18 C21.689,6.18 22,6.49 22,6.88 C22,7.27 21.689,7.58 21.299,7.58 Z"/>
  <path fill="#292D32" d="M6.42,7.58 L2.7,7.58 C2.31,7.58 2,7.27 2,6.88 C2,6.49 2.31,6.18 2.7,6.18 L6.42,6.18 C6.81,6.18 7.12,6.49 7.12,6.88 C7.12,7.27 6.8,7.58 6.42,7.58 Z"/>
  <path fill="#292D32" d="M10.139,10.83 C12.321,10.83 14.089,9.061 14.089,6.88 C14.089,4.698 12.321,2.93 10.139,2.93 C7.958,2.93 6.189,4.698 6.189,6.88 C6.189,9.061 7.958,10.83 10.139,10.83 Z"/>
  <path fill="#292D32" d="M21.301,17.81 L17.581,17.81 C17.191,17.81 16.881,17.5 16.881,17.11 C16.881,16.72 17.191,16.41 17.581,16.41 L21.301,16.41 C21.691,16.41 22.001,16.72 22.001,17.11 C22.001,17.5 21.691,17.81 21.301,17.81 Z"/>
  <path fill="#292D32" d="M8.28,17.81 L2.7,17.81 C2.31,17.81 2,17.5 2,17.11 C2,16.72 2.31,16.41 2.7,16.41 L8.28,16.41 C8.67,16.41 8.98,16.72 8.98,17.11 C8.98,17.5 8.66,17.81 8.28,17.81 Z"/>
  <path fill="#292D32" d="M13.86,21.072 C16.042,21.072 17.81,19.303 17.81,17.122 C17.81,14.94 16.042,13.172 13.86,13.172 C11.679,13.172 9.91,14.94 9.91,17.122 C9.91,19.303 11.679,21.072 13.86,21.072 Z"/>
</svg>

