<svg xmlns="http://www.w3.org/2000/svg" width="24" height="24" viewBox="0 0 24 24">
  <defs/>
  <path fill="#292D32" d="M18.25,7 L18.25,2 Q18.25,1.689 18.47,1.47 Q18.689,1.25 19,1.25 Q19.311,1.25 19.53,1.47 Q19.75,1.689 19.75,2 L19.75,7 Q19.75,7.311 19.53,7.53 Q19.311,7.75 19,7.75 Q18.689,7.75 18.47,7.53 Q18.25,7.311 18.25,7 Z"/>
  <path fill="#292D32" d="M11.25,22 L11.25,17 Q11.25,16.689 11.47,16.47 Q11.689,16.25 12,16.25 Q12.311,16.25 12.53,16.47 Q12.75,16.689 12.75,17 L12.75,22 Q12.75,22.311 12.53,22.53 Q12.311,22.75 12,22.75 Q11.689,22.75 11.47,22.53 Q11.25,22.311 11.25,22 Z"/>
  <path fill="#292D32" d="M4.25,7 L4.25,2 Q4.25,1.689 4.47,1.47 Q4.689,1.25 5,1.25 Q5.311,1.25 5.53,1.47 Q5.75,1.689 5.75,2 L5.75,7 Q5.75,7.311 5.53,7.53 Q5.311,7.75 5,7.75 Q4.689,7.75 4.47,7.53 Q4.25,7.311 4.25,7 Z"/>
  <g opacity="0.4">
    <path fill="#292D32" d="M4.25,22 L4.25,11 Q4.25,10.689 4.47,10.47 Q4.689,10.25 5,10.25 Q5.311,10.25 5.53,10.47 Q5.75,10.689 5.75,11 L5.75,22 Q5.75,22.311 5.53,22.53 Q5.311,22.75 5,22.75 Q4.689,22.75 4.47,22.53 Q4.25,22.311 4.25,22 Z"/>
    <path fill="#292D32" d="M3,10.25 L7,10.25 Q7.311,10.25 7.53,10.47 Q7.75,10.689 7.75,11 Q7.75,11.311 7.53,11.53 Q7.311,11.75 7,11.75 L3,11.75 Q2.689,11.75 2.47,11.53 Q2.25,11.311 2.25,11 Q2.25,10.689 2.47,10.47 Q2.689,10.25 3,10.25 Z"/>
  </g>
  <g opacity="0.4">
    <path fill="#292D32" d="M18.25,22 L18.25,11 Q18.25,10.689 18.47,10.47 Q18.689,10.25 19,10.25 Q19.311,10.25 19.53,10.47 Q19.75,10.689 19.75,11 L19.75,22 Q19.75,22.311 19.53,22.53 Q19.311,22.75 19,22.75 Q18.689,22.75 18.47,22.53 Q18.25,22.311 18.25,22 Z"/>
    <path fill="#292D32" d="M17,10.25 L21,10.25 Q21.311,10.25 21.53,10.47 Q21.75,10.689 21.75,11 Q21.75,11.311 21.53,11.53 Q21.311,11.75 21,11.75 L17,11.75 Q16.689,11.75 16.47,11.53 Q16.25,11.311 16.25,11 Q16.25,10.689 16.47,10.47 Q16.689,10.25 17,10.25 Z"/>
  </g>
  <g opacity="0.4">
    <path fill="#292D32" d="M11.25,13 L11.25,2 Q11.25,1.689 11.47,1.47 Q11.689,1.25 12,1.25 Q12.311,1.25 12.53,1.47 Q12.75,1.689 12.75,2 L12.75,13 Q12.75,13.311 12.53,13.53 Q12.311,13.75 12,13.75 Q11.689,13.75 11.47,13.53 Q11.25,13.311 11.25,13 Z"/>
    <path fill="#292D32" d="M10,12.25 L14,12.25 Q14.311,12.25 14.53,12.47 Q14.75,12.689 14.75,13 Q14.75,13.311 14.53,13.53 Q14.311,13.75 14,13.75 L10,13.75 Q9.689,13.75 9.47,13.53 Q9.25,13.311 9.25,13 Q9.25,12.689 9.47,12.47 Q9.689,12.25 10,12.25 Z"/>
  </g>
</svg>

