<svg xmlns="http://www.w3.org/2000/svg" width="24" height="24" viewBox="0 0 24 24">
  <defs/>
  <path fill="#292D32" d="M18.94,5.421 L13.77,2.431 C12.78,1.861 11.23,1.861 10.24,2.431 L5.02,5.441 C2.95,6.841 2.83,7.051 2.83,9.281 L2.83,14.711 C2.83,16.941 2.95,17.161 5.06,18.581 L10.23,21.571 C10.73,21.861 11.37,22.001 12,22.001 C12.63,22.001 13.27,21.861 13.76,21.571 L18.98,18.561 C21.05,17.161 21.17,16.951 21.17,14.721 L21.17,9.281 C21.17,7.051 21.05,6.841 18.94,5.421 Z M12,15.251 C10.21,15.251 8.75,13.791 8.75,12.001 C8.75,10.211 10.21,8.751 12,8.751 C13.79,8.751 15.25,10.211 15.25,12.001 C15.25,13.791 13.79,15.251 12,15.251 Z"/>
</svg>

