<svg xmlns="http://www.w3.org/2000/svg" width="24" height="24" viewBox="0 0 24 24">
  <defs/>
  <path fill="#292D32" d="M12,17.25 C9.11,17.25 6.75,14.9 6.75,12 C6.75,9.1 9.11,6.75 12,6.75 C14.89,6.75 17.25,9.1 17.25,12 C17.25,14.9 14.89,17.25 12,17.25 Z M12,8.25 C9.93,8.25 8.25,9.93 8.25,12 C8.25,14.07 9.93,15.75 12,15.75 C14.07,15.75 15.75,14.07 15.75,12 C15.75,9.93 14.07,8.25 12,8.25 Z"/>
  <path fill="#292D32" d="M7,12.75 L2,12.75 C1.59,12.75 1.25,12.41 1.25,12 C1.25,11.59 1.59,11.25 2,11.25 L7,11.25 C7.41,11.25 7.75,11.59 7.75,12 C7.75,12.41 7.41,12.75 7,12.75 Z"/>
  <path fill="#292D32" d="M22,12.75 L17,12.75 C16.59,12.75 16.25,12.41 16.25,12 C16.25,11.59 16.59,11.25 17,11.25 L22,11.25 C22.41,11.25 22.75,11.59 22.75,12 C22.75,12.41 22.41,12.75 22,12.75 Z"/>
</svg>

