<svg xmlns="http://www.w3.org/2000/svg" width="24" height="24" viewBox="0 0 24 24">
  <defs/>
  <path fill="#292D32" opacity="0.4" d="M18.509,1.8 C18.009,1.8 17.609,2.2 17.609,2.7 L17.609,7.35 C17.609,7.85 18.009,8.25 18.509,8.25 C19.009,8.25 19.409,7.85 19.409,7.35 L19.409,2.7 C19.409,2.2 19.009,1.8 18.509,1.8 Z"/>
  <path fill="#292D32" d="M12,15.75 C11.5,15.75 11.1,16.15 11.1,16.65 L11.1,21.3 C11.1,21.8 11.5,22.2 12,22.2 C12.5,22.2 12.9,21.8 12.9,21.3 L12.9,16.65 C12.9,16.16 12.5,15.75 12,15.75 Z"/>
  <path fill="#292D32" opacity="0.4" d="M5.49,1.8 C4.99,1.8 4.59,2.2 4.59,2.7 L4.59,7.35 C4.59,7.85 4.99,8.25 5.49,8.25 C5.99,8.25 6.39,7.85 6.39,7.35 L6.39,2.7 C6.39,2.2 5.98,1.8 5.49,1.8 Z"/>
  <path fill="#292D32" opacity="0.4" d="M7.35,10.17 L3.63,10.17 C3.13,10.17 2.73,10.57 2.73,11.07 C2.73,11.57 3.13,11.97 3.63,11.97 L4.59,11.97 L4.59,21.3 C4.59,21.8 4.99,22.2 5.49,22.2 C5.99,22.2 6.39,21.8 6.39,21.3 L6.39,11.97 L7.35,11.97 C7.85,11.97 8.25,11.57 8.25,11.07 C8.25,10.57 7.84,10.17 7.35,10.17 Z"/>
  <path fill="#292D32" opacity="0.4" d="M20.37,10.17 L16.65,10.17 C16.15,10.17 15.75,10.57 15.75,11.07 C15.75,11.57 16.15,11.97 16.65,11.97 L17.61,11.97 L17.61,21.3 C17.61,21.8 18.01,22.2 18.51,22.2 C19.01,22.2 19.41,21.8 19.41,21.3 L19.41,11.97 L20.37,11.97 C20.87,11.97 21.27,11.57 21.27,11.07 C21.27,10.57 20.87,10.17 20.37,10.17 Z"/>
  <path fill="#292D32" d="M13.86,12.03 L12.9,12.03 L12.9,2.7 C12.9,2.2 12.5,1.8 12,1.8 C11.5,1.8 11.1,2.2 11.1,2.7 L11.1,12.03 L10.14,12.03 C9.64,12.03 9.24,12.43 9.24,12.93 C9.24,13.43 9.64,13.83 10.14,13.83 L13.86,13.83 C14.36,13.83 14.76,13.43 14.76,12.93 C14.76,12.43 14.36,12.03 13.86,12.03 Z"/>
</svg>

