<svg xmlns="http://www.w3.org/2000/svg" width="24" height="24" viewBox="0 0 24 24">
  <defs/>
  <path fill="#292D32" d="M20.1,9.221 C18.29,9.221 17.55,7.941 18.45,6.371 C18.97,5.461 18.66,4.301 17.75,3.781 L16.02,2.791 C15.23,2.321 14.21,2.601 13.74,3.391 L13.63,3.581 C12.73,5.151 11.25,5.151 10.34,3.581 L10.23,3.391 C9.78,2.601 8.76,2.321 7.97,2.791 L6.24,3.781 C5.33,4.301 5.02,5.471 5.54,6.381 C6.45,7.941 5.71,9.221 3.9,9.221 C2.86,9.221 2,10.071 2,11.121 L2,12.881 C2,13.921 2.85,14.781 3.9,14.781 C5.71,14.781 6.45,16.061 5.54,17.631 C5.02,18.541 5.33,19.701 6.24,20.221 L7.97,21.211 C8.76,21.681 9.78,21.401 10.25,20.611 L10.36,20.421 C11.26,18.851 12.74,18.851 13.65,20.421 L13.76,20.611 C14.23,21.401 15.25,21.681 16.04,21.211 L17.77,20.221 C18.68,19.701 18.99,18.531 18.47,17.631 C17.56,16.061 18.3,14.781 20.11,14.781 C21.15,14.781 22.01,13.931 22.01,12.881 L22.01,11.121 C22,10.081 21.15,9.221 20.1,9.221 Z M12,15.251 C10.21,15.251 8.75,13.791 8.75,12.001 C8.75,10.211 10.21,8.751 12,8.751 C13.79,8.751 15.25,10.211 15.25,12.001 C15.25,13.791 13.79,15.251 12,15.251 Z"/>
</svg>

