<svg xmlns="http://www.w3.org/2000/svg" width="24" height="24" viewBox="0 0 24 24">
  <defs/>
  <path fill="#292D32" d="M9,22.75 Q1.25,22.75 1.25,15 L1.25,9 Q1.25,1.25 9,1.25 L15,1.25 Q22.75,1.25 22.75,9 L22.75,15 Q22.75,22.75 15,22.75 Z M9,21.25 L15,21.25 Q18.439,21.25 19.845,19.845 Q21.25,18.439 21.25,15 L21.25,9 Q21.25,2.75 15,2.75 L9,2.75 Q2.75,2.75 2.75,9 L2.75,15 Q2.75,18.439 4.155,19.845 Q5.561,21.25 9,21.25 Z"/>
  <path fill="#292D32" d="M14.82,18.5 L14.82,14.6 Q14.82,14.289 15.04,14.07 Q15.259,13.85 15.57,13.85 Q15.881,13.85 16.1,14.07 Q16.32,14.289 16.32,14.6 L16.32,18.5 Q16.32,18.811 16.1,19.03 Q15.881,19.25 15.57,19.25 Q15.259,19.25 15.04,19.03 Q14.82,18.811 14.82,18.5 Z"/>
  <path fill="#292D32" d="M14.82,7.45 L14.82,5.5 Q14.82,5.189 15.04,4.97 Q15.259,4.75 15.57,4.75 Q15.881,4.75 16.1,4.97 Q16.32,5.189 16.32,5.5 L16.32,7.45 Q16.32,7.761 16.1,7.98 Q15.881,8.2 15.57,8.2 Q15.259,8.2 15.04,7.98 Q14.82,7.761 14.82,7.45 Z"/>
  <path fill="#292D32" d="M15.57,13.4 Q12.22,13.4 12.22,10.05 Q12.22,6.7 15.57,6.7 Q18.92,6.7 18.92,10.05 Q18.92,11.438 17.939,12.419 Q16.958,13.4 15.57,13.4 Z M15.57,11.9 Q17.42,11.9 17.42,10.05 Q17.42,9.284 16.878,8.742 Q16.336,8.2 15.57,8.2 Q13.72,8.2 13.72,10.05 Q13.72,10.816 14.262,11.358 Q14.804,11.9 15.57,11.9 Z"/>
  <path fill="#292D32" d="M7.68,18.5 L7.68,16.55 Q7.68,16.239 7.9,16.02 Q8.119,15.8 8.43,15.8 Q8.741,15.8 8.96,16.02 Q9.18,16.239 9.18,16.55 L9.18,18.5 Q9.18,18.811 8.96,19.03 Q8.741,19.25 8.43,19.25 Q8.119,19.25 7.9,19.03 Q7.68,18.811 7.68,18.5 Z"/>
  <path fill="#292D32" d="M7.68,9.4 L7.68,5.5 Q7.68,5.189 7.9,4.97 Q8.119,4.75 8.43,4.75 Q8.741,4.75 8.96,4.97 Q9.18,5.189 9.18,5.5 L9.18,9.4 Q9.18,9.711 8.96,9.93 Q8.741,10.15 8.43,10.15 Q8.119,10.15 7.9,9.93 Q7.68,9.711 7.68,9.4 Z"/>
  <path fill="#292D32" d="M8.43,17.3 Q5.08,17.3 5.08,13.95 Q5.08,12.563 6.061,11.581 Q7.042,10.6 8.43,10.6 Q9.818,10.6 10.799,11.581 Q11.78,12.563 11.78,13.95 Q11.78,17.3 8.43,17.3 Z M8.43,15.8 Q9.196,15.8 9.738,15.258 Q10.28,14.716 10.28,13.95 Q10.28,12.1 8.43,12.1 Q6.58,12.1 6.58,13.95 Q6.58,15.8 8.43,15.8 Z"/>
</svg>

