<svg xmlns="http://www.w3.org/2000/svg" width="24" height="24" viewBox="0 0 24 24">
  <defs/>
  <path fill="#292D32" d="M14.25,12 Q14.25,9.75 12,9.75 Q9.75,9.75 9.75,12 Q9.75,14.25 12,14.25 Q12.471,14.25 12.865,14.075 Q13.149,13.948 13.439,14.06 Q13.729,14.172 13.855,14.455 Q13.982,14.739 13.87,15.029 Q13.758,15.319 13.475,15.445 Q12.789,15.75 12,15.75 Q8.25,15.75 8.25,12 Q8.25,8.25 12,8.25 Q15.75,8.25 15.75,12 Q15.75,12.311 15.53,12.53 Q15.311,12.75 15,12.75 Q14.689,12.75 14.47,12.53 Q14.25,12.311 14.25,12 Z"/>
  <path fill="#292D32" d="M7.256,19.931 L8.346,20.561 Q9.13,21.027 9.606,20.227 L9.712,20.044 Q10.601,18.493 12.002,18.493 Q13.401,18.493 14.3,20.044 L14.41,20.234 Q14.882,21.027 15.657,20.566 L17.398,19.569 Q17.809,19.335 17.933,18.873 Q18.057,18.412 17.822,18.005 Q16.922,16.454 17.621,15.242 Q18.319,14.03 20.111,14.03 Q20.583,14.03 20.922,13.693 Q21.261,13.354 21.261,12.88 L21.261,11.12 Q21.261,10.648 20.923,10.309 Q20.585,9.97 20.111,9.97 Q18.056,9.97 17.48,8.457 Q17.045,7.335 17.822,5.994 Q18.057,5.583 17.933,5.124 Q17.81,4.666 17.399,4.431 L16.591,3.972 Q16.32,3.819 16.238,3.519 Q16.155,3.22 16.309,2.95 Q16.462,2.68 16.762,2.597 Q17.061,2.514 17.331,2.668 L18.143,3.129 Q19.096,3.673 19.381,4.734 Q19.666,5.79 19.12,6.746 Q18.704,7.464 18.882,7.923 Q19.09,8.47 20.111,8.47 Q21.208,8.47 21.986,9.251 Q22.761,10.029 22.761,11.12 L22.761,12.88 Q22.761,13.977 21.98,14.755 Q21.202,15.53 20.111,15.53 Q19.186,15.53 18.921,15.991 Q18.655,16.452 19.12,17.255 Q19.667,18.201 19.381,19.262 Q19.095,20.327 18.143,20.871 L16.424,21.855 Q15.408,22.459 14.59,22.258 Q13.745,22.051 13.112,20.986 L13.002,20.796 Q12.536,19.993 12.002,19.993 Q11.47,19.993 11.01,20.796 L10.895,20.994 Q9.652,23.083 7.596,21.859 L6.506,21.229 Q6.237,21.074 6.156,20.774 Q6.076,20.474 6.232,20.205 Q6.387,19.936 6.687,19.856 Q6.987,19.775 7.256,19.931 Z"/>
  <path fill="#292D32" d="M14.291,3.953 Q13.4,5.507 11.999,5.507 Q10.6,5.507 9.701,3.956 L9.591,3.766 Q9.401,3.44 9.035,3.342 Q8.672,3.245 8.353,3.434 L6.613,4.431 Q5.616,5.001 6.191,6.008 Q7.09,7.548 6.389,8.76 Q5.691,9.97 3.9,9.97 Q3.428,9.97 3.089,10.307 Q2.75,10.646 2.75,11.12 L2.75,12.88 Q2.75,14.03 3.9,14.03 Q5.692,14.03 6.39,15.242 Q7.088,16.454 6.189,18.006 Q6.033,18.275 5.733,18.355 Q5.433,18.435 5.164,18.279 Q4.895,18.123 4.815,17.823 Q4.735,17.523 4.891,17.254 Q5.356,16.452 5.09,15.991 Q4.825,15.53 3.9,15.53 Q1.25,15.53 1.25,12.88 L1.25,11.12 Q1.25,10.023 2.031,9.245 Q2.808,8.47 3.9,8.47 Q4.825,8.47 5.091,8.01 Q5.355,7.552 4.889,6.752 Q3.569,4.442 5.867,3.129 L7.587,2.145 Q8.449,1.632 9.423,1.893 Q10.386,2.151 10.889,3.014 L10.999,3.204 Q11.465,4.007 11.999,4.007 Q12.53,4.007 12.989,3.207 Q13.144,2.937 13.444,2.856 Q13.743,2.775 14.013,2.929 Q14.283,3.084 14.364,3.384 Q14.445,3.683 14.291,3.953 Z"/>
</svg>

