<svg xmlns="http://www.w3.org/2000/svg" width="24" height="24" viewBox="0 0 24 24">
  <defs/>
  <path fill="#292D32" d="M15,22.75 L9,22.75 C3.57,22.75 1.25,20.43 1.25,15 L1.25,9 C1.25,3.57 3.57,1.25 9,1.25 L15,1.25 C20.43,1.25 22.75,3.57 22.75,9 L22.75,15 C22.75,20.43 20.43,22.75 15,22.75 Z M9,2.75 C4.39,2.75 2.75,4.39 2.75,9 L2.75,15 C2.75,19.61 4.39,21.25 9,21.25 L15,21.25 C19.61,21.25 21.25,19.61 21.25,15 L21.25,9 C21.25,4.39 19.61,2.75 15,2.75 L9,2.75 Z"/>
  <path fill="#292D32" d="M15.58,19.25 C15.17,19.25 14.83,18.91 14.83,18.5 L14.83,14.6 C14.83,14.19 15.17,13.85 15.58,13.85 C15.99,13.85 16.33,14.19 16.33,14.6 L16.33,18.5 C16.33,18.91 15.99,19.25 15.58,19.25 Z"/>
  <path fill="#292D32" d="M15.58,8.2 C15.17,8.2 14.83,7.86 14.83,7.45 L14.83,5.5 C14.83,5.09 15.17,4.75 15.58,4.75 C15.99,4.75 16.33,5.09 16.33,5.5 L16.33,7.45 C16.33,7.86 15.99,8.2 15.58,8.2 Z"/>
  <path fill="#292D32" d="M15.581,13.4 C13.73,13.4 12.23,11.9 12.23,10.05 C12.23,8.2 13.73,6.7 15.581,6.7 C17.43,6.7 18.93,8.2 18.93,10.05 C18.93,11.9 17.421,13.4 15.581,13.4 Z M15.581,8.2 C14.56,8.2 13.73,9.03 13.73,10.05 C13.73,11.07 14.56,11.9 15.581,11.9 C16.601,11.9 17.43,11.07 17.43,10.05 C17.43,9.03 16.59,8.2 15.581,8.2 Z"/>
  <path fill="#292D32" d="M8.42,19.25 C8.01,19.25 7.67,18.91 7.67,18.5 L7.67,16.55 C7.67,16.14 8.01,15.8 8.42,15.8 C8.83,15.8 9.17,16.14 9.17,16.55 L9.17,18.5 C9.17,18.91 8.84,19.25 8.42,19.25 Z"/>
  <path fill="#292D32" d="M8.42,10.15 C8.01,10.15 7.67,9.81 7.67,9.4 L7.67,5.5 C7.67,5.09 8.01,4.75 8.42,4.75 C8.83,4.75 9.17,5.09 9.17,5.5 L9.17,9.4 C9.17,9.81 8.84,10.15 8.42,10.15 Z"/>
  <path fill="#292D32" d="M8.42,17.3 C6.57,17.3 5.07,15.8 5.07,13.95 C5.07,12.1 6.57,10.6 8.42,10.6 C10.27,10.6 11.77,12.1 11.77,13.95 C11.77,15.8 10.27,17.3 8.42,17.3 Z M8.42,12.1 C7.4,12.1 6.57,12.93 6.57,13.95 C6.57,14.97 7.4,15.8 8.42,15.8 C9.44,15.8 10.27,14.97 10.27,13.95 C10.27,12.93 9.45,12.1 8.42,12.1 Z"/>
</svg>

