<svg xmlns="http://www.w3.org/2000/svg" width="24" height="24" viewBox="0 0 24 24">
  <defs/>
  <path fill="#292D32" d="M12,22.63 C11.33,22.63 10.65,22.48 10.12,22.17 L4.62,19 C2.38,17.49 2.24,17.26 2.24,14.89 L2.24,9.11 C2.24,6.74 2.37,6.51 4.57,5.02 L10.11,1.82 C11.16,1.21 12.81,1.21 13.86,1.82 L19.38,5 C21.62,6.51 21.76,6.74 21.76,9.11 L21.76,14.88 C21.76,17.25 21.63,17.48 19.43,18.97 L13.89,22.17 C13.35,22.48 12.67,22.63 12,22.63 Z M12,2.87 C11.58,2.87 11.17,2.95 10.88,3.12 L5.38,6.3 C3.75,7.4 3.75,7.4 3.75,9.11 L3.75,14.88 C3.75,16.59 3.75,16.59 5.42,17.72 L10.88,20.87 C11.47,21.21 12.54,21.21 13.13,20.87 L18.63,17.69 C20.25,16.59 20.25,16.59 20.25,14.88 L20.25,9.11 C20.25,7.4 20.25,7.4 18.58,6.27 L13.12,3.12 C12.83,2.95 12.42,2.87 12,2.87 Z"/>
  <path fill="#292D32" d="M12,15.75 C9.93,15.75 8.25,14.07 8.25,12 C8.25,9.93 9.93,8.25 12,8.25 C14.07,8.25 15.75,9.93 15.75,12 C15.75,14.07 14.07,15.75 12,15.75 Z M12,9.75 C10.76,9.75 9.75,10.76 9.75,12 C9.75,13.24 10.76,14.25 12,14.25 C13.24,14.25 14.25,13.24 14.25,12 C14.25,10.76 13.24,9.75 12,9.75 Z"/>
</svg>

