<svg xmlns="http://www.w3.org/2000/svg" width="24" height="24" viewBox="0 0 24 24">
  <defs/>
  <path fill="#292D32" d="M18.509,8.251 C19.009,8.251 19.409,7.851 19.409,7.351 L19.409,2.701 C19.409,2.201 19.009,1.801 18.509,1.801 C18.009,1.801 17.609,2.201 17.609,2.701 L17.609,7.351 C17.609,7.841 18.019,8.251 18.509,8.251 Z"/>
  <path fill="#292D32" d="M12,15.75 C11.5,15.75 11.1,16.15 11.1,16.65 L11.1,21.3 C11.1,21.8 11.5,22.2 12,22.2 C12.5,22.2 12.9,21.8 12.9,21.3 L12.9,16.65 C12.9,16.16 12.5,15.75 12,15.75 Z"/>
  <path fill="#292D32" d="M5.49,8.251 C5.99,8.251 6.39,7.851 6.39,7.351 L6.39,2.701 C6.39,2.201 5.99,1.801 5.49,1.801 C4.99,1.801 4.59,2.201 4.59,2.701 L4.59,7.351 C4.59,7.841 4.99,8.251 5.49,8.251 Z"/>
  <path fill="#292D32" d="M7.35,10.172 L3.63,10.172 C3.13,10.172 2.73,10.572 2.73,11.072 C2.73,11.572 3.13,11.972 3.63,11.972 L4.59,11.972 L4.59,21.302 C4.59,21.802 4.99,22.202 5.49,22.202 C5.99,22.202 6.39,21.802 6.39,21.302 L6.39,11.972 L7.35,11.972 C7.85,11.972 8.25,11.572 8.25,11.072 C8.25,10.572 7.84,10.172 7.35,10.172 Z"/>
  <path fill="#292D32" d="M20.37,10.172 L16.65,10.172 C16.15,10.172 15.75,10.572 15.75,11.072 C15.75,11.572 16.15,11.972 16.65,11.972 L17.61,11.972 L17.61,21.302 C17.61,21.802 18.01,22.202 18.51,22.202 C19.01,22.202 19.41,21.802 19.41,21.302 L19.41,11.972 L20.37,11.972 C20.87,11.972 21.27,11.572 21.27,11.072 C21.27,10.572 20.87,10.172 20.37,10.172 Z"/>
  <path fill="#292D32" d="M13.86,12.031 L12.9,12.031 L12.9,2.701 C12.9,2.201 12.5,1.801 12,1.801 C11.5,1.801 11.1,2.201 11.1,2.701 L11.1,12.031 L10.14,12.031 C9.64,12.031 9.24,12.431 9.24,12.931 C9.24,13.431 9.64,13.831 10.14,13.831 L13.86,13.831 C14.36,13.831 14.76,13.431 14.76,12.931 C14.76,12.431 14.36,12.031 13.86,12.031 Z"/>
</svg>

