<svg xmlns="http://www.w3.org/2000/svg" width="24" height="24" viewBox="0 0 24 24">
  <defs/>
  <path fill="#292D32" d="M12,8.25 Q8.25,8.25 8.25,12 Q8.25,15.75 12,15.75 Q15.75,15.75 15.75,12 Q15.75,11.16 15.39,10.387 Q15.259,10.105 15.365,9.813 Q15.472,9.521 15.753,9.39 Q16.035,9.259 16.327,9.365 Q16.619,9.472 16.75,9.753 Q17.25,10.828 17.25,12 Q17.25,14.178 15.714,15.714 Q14.178,17.25 12,17.25 Q9.822,17.25 8.286,15.714 Q6.75,14.178 6.75,12 Q6.75,9.822 8.286,8.286 Q9.822,6.75 12,6.75 Q12.311,6.75 12.53,6.97 Q12.75,7.189 12.75,7.5 Q12.75,7.811 12.53,8.03 Q12.311,8.25 12,8.25 Z"/>
  <path fill="#292D32" d="M2,11.25 L7,11.25 Q7.311,11.25 7.53,11.47 Q7.75,11.689 7.75,12 Q7.75,12.311 7.53,12.53 Q7.311,12.75 7,12.75 L2,12.75 Q1.689,12.75 1.47,12.53 Q1.25,12.311 1.25,12 Q1.25,11.689 1.47,11.47 Q1.689,11.25 2,11.25 Z"/>
  <path fill="#292D32" d="M17,11.25 L22,11.25 Q22.311,11.25 22.53,11.47 Q22.75,11.689 22.75,12 Q22.75,12.311 22.53,12.53 Q22.311,12.75 22,12.75 L17,12.75 Q16.689,12.75 16.47,12.53 Q16.25,12.311 16.25,12 Q16.25,11.689 16.47,11.47 Q16.689,11.25 17,11.25 Z"/>
</svg>

