<svg xmlns="http://www.w3.org/2000/svg" width="24" height="24" viewBox="0 0 24 24">
  <defs/>
  <path fill="#292D32" d="M13.43,15.75 L4.4,15.75 C3.28,15.75 2.26,15.17 1.69,14.2 C1.12,13.23 1.1,12.07 1.64,11.08 L6.15,2.87 C6.71,1.85 7.74,1.24 8.91,1.24 C10.08,1.24 11.11,1.85 11.67,2.87 L16.19,11.08 C16.73,12.06 16.71,13.23 16.14,14.2 C15.57,15.17 14.55,15.75 13.43,15.75 Z M8.91,2.75 C8.3,2.75 7.76,3.07 7.47,3.6 L2.96,11.81 C2.68,12.33 2.69,12.93 2.98,13.44 C3.28,13.95 3.81,14.25 4.4,14.25 L13.43,14.25 C14.02,14.25 14.55,13.95 14.85,13.44 C15.15,12.93 15.16,12.33 14.87,11.81 L10.35,3.6 C10.06,3.07 9.52,2.75 8.91,2.75 Z"/>
  <path fill="#292D32" d="M15.5,22.75 C11.5,22.75 8.25,19.5 8.25,15.5 C8.25,15.32 8.26,15.14 8.27,14.96 C8.29,14.56 8.62,14.25 9.02,14.25 L13.43,14.25 C14.02,14.25 14.55,13.95 14.85,13.44 C15.15,12.93 15.16,12.33 14.87,11.81 L13.59,9.48 C13.47,9.27 13.47,9.02 13.57,8.8 C13.67,8.58 13.87,8.43 14.1,8.38 C14.55,8.29 15.02,8.25 15.5,8.25 C19.5,8.25 22.75,11.5 22.75,15.5 C22.75,19.5 19.5,22.75 15.5,22.75 Z M9.76,15.75 C9.89,18.81 12.42,21.25 15.5,21.25 C18.67,21.25 21.25,18.67 21.25,15.5 C21.25,12.33 18.67,9.75 15.5,9.75 C15.48,9.75 15.47,9.75 15.45,9.75 L16.19,11.09 C16.73,12.07 16.71,13.24 16.14,14.21 C15.57,15.18 14.56,15.76 13.43,15.76 L9.76,15.76 L9.76,15.75 Z"/>
</svg>

