<svg xmlns="http://www.w3.org/2000/svg" width="24" height="24" viewBox="0 0 24 24">
  <defs/>
  <path fill="#292D32" d="M6.154,2.878 Q7.05,1.252 8.91,1.252 Q10.771,1.252 11.667,2.878 L13.857,6.848 L14.908,8.759 L16.188,11.089 Q17.053,12.663 16.138,14.207 Q15.224,15.75 13.43,15.75 L4.4,15.75 Q2.607,15.75 1.693,14.207 Q0.777,12.663 1.643,11.089 L3.973,6.849 Q4.123,6.576 4.421,6.49 Q4.719,6.403 4.992,6.553 Q5.264,6.702 5.351,7.001 Q5.437,7.299 5.288,7.571 L2.958,11.811 Q2.504,12.635 2.983,13.443 Q3.462,14.25 4.4,14.25 L13.43,14.25 Q14.369,14.25 14.848,13.443 Q15.326,12.635 14.873,11.811 L13.593,9.481 L12.544,7.572 L10.354,3.602 Q9.885,2.752 8.91,2.752 Q7.936,2.752 7.467,3.602 Q7.317,3.874 7.019,3.96 Q6.72,4.047 6.448,3.897 Q6.176,3.747 6.09,3.448 Q6.004,3.15 6.154,2.878 Z"/>
  <path fill="#292D32" d="M22.75,15.5 Q22.75,18.503 20.627,20.627 Q18.503,22.75 15.5,22.75 Q12.497,22.75 10.373,20.627 Q8.25,18.503 8.25,15.5 Q8.25,15.317 8.27,14.983 Q8.271,14.967 8.271,14.956 Q8.289,14.659 8.505,14.454 Q8.722,14.25 9.02,14.25 L13.43,14.25 Q14.369,14.25 14.847,13.443 Q15.326,12.635 14.873,11.811 L13.593,9.481 Q13.443,9.209 13.53,8.911 Q13.617,8.612 13.889,8.463 Q13.99,8.407 14.103,8.385 Q14.776,8.25 15.5,8.25 Q18.503,8.25 20.627,10.373 Q22.75,12.497 22.75,15.5 Z M21.25,15.5 Q21.25,13.118 19.566,11.434 Q17.882,9.75 15.5,9.75 Q15.476,9.75 15.452,9.75 L16.187,11.089 Q17.053,12.663 16.138,14.207 Q15.223,15.75 13.43,15.75 L9.755,15.75 Q9.839,17.971 11.434,19.566 Q13.118,21.25 15.5,21.25 Q17.882,21.25 19.566,19.566 Q21.25,17.882 21.25,15.5 Z"/>
</svg>

