<svg xmlns="http://www.w3.org/2000/svg" width="24" height="24" viewBox="0 0 24 24">
  <defs/>
  <path fill="#292D32" d="M13.43,15 L4.4,15 C2.58,15 1.42,13.05 2.3,11.45 L4.63,7.21 L6.81,3.24 C7.72,1.59 10.1,1.59 11.01,3.24 L13.2,7.21 L14.25,9.12 L15.53,11.45 C16.41,13.05 15.25,15 13.43,15 Z"/>
  <path fill="#292D32" opacity="0.4" d="M22,15.5 C22,19.09 19.09,22 15.5,22 C11.91,22 9,19.09 9,15.5 C9,15.33 9.01,15.17 9.02,15 L13.43,15 C15.25,15 16.41,13.05 15.53,11.45 L14.25,9.12 C14.65,9.04 15.07,9 15.5,9 C19.09,9 22,11.91 22,15.5 Z"/>
</svg>

