<svg xmlns="http://www.w3.org/2000/svg" width="24" height="24" viewBox="0 0 24 24">
  <defs/>
  <path fill="#292D32" d="M13.43,15.001 L4.4,15.001 C2.58,15.001 1.42,13.051 2.3,11.451 L4.63,7.211 L6.81,3.241 C7.72,1.591 10.1,1.591 11.01,3.241 L13.2,7.211 L14.25,9.121 L15.53,11.451 C16.41,13.051 15.25,15.001 13.43,15.001 Z"/>
  <path fill="#292D32" d="M22.651,15.999 C22.651,19.589 19.741,22.499 16.151,22.499 C13.101,22.499 10.551,20.409 9.841,17.569 C9.771,17.269 10.001,16.999 10.311,16.999 L14.081,16.999 C15.471,16.999 16.731,16.279 17.441,15.089 C18.141,13.889 18.171,12.449 17.491,11.229 L16.991,10.309 C16.801,9.969 17.071,9.559 17.451,9.629 C20.411,10.229 22.651,12.849 22.651,15.999 Z"/>
</svg>

