<svg xmlns="http://www.w3.org/2000/svg" width="24" height="24" viewBox="0 0 24 24">
  <defs/>
  <path fill="#292D32" d="M11.75,7 L11,7 L7,7 C4.24,7 2,9.24 2,12 L2,17 C2,19.76 4.24,22 7,22 L12,22 C14.76,22 17,19.76 17,17 L17,13 L17,12.25 C17,9.35 14.65,7 11.75,7 Z"/>
  <path fill="#292D32" d="M21.881,6.33 C22.405,8.89 21.163,11.212 19.16,12.306 C18.852,12.474 18.501,12.234 18.501,11.884 L18.501,11.75 C18.501,8.31 15.691,5.5 12.251,5.5 L12.117,5.5 C11.767,5.5 11.527,5.149 11.695,4.841 C12.789,2.838 15.111,1.596 17.671,2.12 C19.761,2.55 21.451,4.24 21.881,6.33 Z"/>
</svg>

