<svg xmlns="http://www.w3.org/2000/svg" width="24" height="24" viewBox="0 0 24 24">
  <defs/>
  <path fill="#292D32" d="M11.721,22.75 L7.221,22.75 C3.071,22.75 1.221,20.9 1.221,16.75 L1.221,12.25 C1.221,8.1 3.071,6.25 7.221,6.25 L11.721,6.25 C15.871,6.25 17.721,8.1 17.721,12.25 L17.721,16.75 C17.721,20.9 15.871,22.75 11.721,22.75 Z M7.221,7.75 C3.901,7.75 2.721,8.93 2.721,12.25 L2.721,16.75 C2.721,20.07 3.901,21.25 7.221,21.25 L11.721,21.25 C15.041,21.25 16.221,20.07 16.221,16.75 L16.221,12.25 C16.221,8.93 15.041,7.75 11.721,7.75 L7.221,7.75 Z"/>
  <path fill="#292D32" d="M16.969,13.72 C16.779,13.72 16.599,13.65 16.459,13.52 C16.299,13.38 16.219,13.18 16.219,12.97 L16.219,12.25 C16.219,8.93 15.039,7.75 11.719,7.75 L10.999,7.75 C10.789,7.75 10.589,7.66 10.449,7.51 C10.309,7.35 10.239,7.15 10.259,6.94 C10.549,3.7 13.219,1.26 16.479,1.26 C19.599,1.26 22.259,3.59 22.659,6.68 C22.699,6.92 22.729,7.21 22.729,7.51 C22.729,10.77 20.289,13.44 17.049,13.73 C17.019,13.72 16.999,13.72 16.969,13.72 Z M11.889,6.25 C15.859,6.3 17.669,8.1 17.719,12.08 C19.759,11.54 21.219,9.69 21.219,7.5 C21.219,7.29 21.199,7.09 21.169,6.9 C20.859,4.52 18.839,2.75 16.469,2.75 C14.279,2.75 12.439,4.21 11.889,6.25 Z"/>
</svg>

