<svg xmlns="http://www.w3.org/2000/svg" width="24" height="24" viewBox="0 0 24 24">
  <defs/>
  <path fill="#292D32" d="M17.72,12.25 L17.72,16.75 Q17.72,19.873 16.282,21.312 Q14.843,22.75 11.72,22.75 L7.22,22.75 Q1.22,22.75 1.22,16.75 L1.22,12.25 Q1.22,6.25 7.22,6.25 L11.72,6.25 Q14.843,6.25 16.282,7.688 Q17.72,9.127 17.72,12.25 Z M16.22,12.25 Q16.22,9.748 15.221,8.749 Q14.222,7.75 11.72,7.75 L7.22,7.75 Q4.718,7.75 3.719,8.749 Q2.72,9.748 2.72,12.25 L2.72,16.75 Q2.72,21.25 7.22,21.25 L11.72,21.25 Q16.22,21.25 16.22,16.75 Z"/>
  <path fill="#292D32" d="M22.72,7.5 Q22.72,9.937 21.076,11.725 Q19.441,13.503 17.036,13.717 Q16.727,13.745 16.489,13.545 Q16.25,13.346 16.223,13.036 Q16.22,13.003 16.22,12.97 L16.22,12.25 Q16.22,7.75 11.72,7.75 L11,7.75 Q10.689,7.75 10.47,7.53 Q10.25,7.311 10.25,7 Q10.25,6.967 10.253,6.934 Q10.467,4.529 12.245,2.894 Q14.033,1.25 16.47,1.25 Q18.836,1.25 20.602,2.811 Q22.348,4.354 22.652,6.658 Q22.72,7.059 22.72,7.5 Z M21.22,7.5 Q21.22,7.18 21.171,6.899 Q21.168,6.883 21.166,6.866 Q20.633,2.75 16.47,2.75 Q12.562,2.75 11.863,6.251 Q14.876,6.283 16.282,7.688 Q17.687,9.094 17.719,12.107 Q21.22,11.408 21.22,7.5 Z"/>
</svg>

