<svg xmlns="http://www.w3.org/2000/svg" width="24" height="24" viewBox="0 0 24 24">
  <defs/>
  <path fill="#292D32" opacity="0.4" d="M20.359,12.73 C19.989,12.73 19.679,12.45 19.639,12.08 C19.399,9.88 18.219,7.9 16.399,6.64 C16.069,6.41 15.989,5.96 16.219,5.63 C16.449,5.3 16.899,5.22 17.229,5.45 C19.399,6.96 20.799,9.32 21.089,11.93 C21.129,12.33 20.839,12.69 20.439,12.73 C20.409,12.73 20.389,12.73 20.359,12.73 Z"/>
  <path fill="#292D32" opacity="0.4" d="M3.739,12.78 C3.719,12.78 3.689,12.78 3.669,12.78 C3.269,12.74 2.979,12.38 3.019,11.98 C3.289,9.37 4.669,7.01 6.819,5.49 C7.139,5.26 7.599,5.34 7.829,5.66 C8.059,5.99 7.979,6.44 7.659,6.67 C5.859,7.95 4.689,9.93 4.469,12.12 C4.429,12.5 4.109,12.78 3.739,12.78 Z"/>
  <path fill="#292D32" opacity="0.4" d="M15.991,21.1 C14.761,21.69 13.441,21.99 12.061,21.99 C10.621,21.99 9.251,21.67 7.971,21.02 C7.611,20.85 7.471,20.41 7.651,20.05 C7.821,19.69 8.261,19.55 8.621,19.72 C9.251,20.04 9.921,20.26 10.601,20.39 C11.521,20.57 12.461,20.58 13.381,20.42 C14.061,20.3 14.731,20.09 15.351,19.79 C15.721,19.62 16.161,19.76 16.321,20.13 C16.501,20.49 16.361,20.93 15.991,21.1 Z"/>
  <path fill="#292D32" d="M12.05,2.01 C10.501,2.01 9.23,3.27 9.23,4.83 C9.23,6.39 10.491,7.65 12.05,7.65 C13.611,7.65 14.87,6.39 14.87,4.83 C14.87,3.27 13.611,2.01 12.05,2.01 Z"/>
  <path fill="#292D32" d="M5.05,13.87 C3.5,13.87 2.23,15.13 2.23,16.69 C2.23,18.25 3.49,19.51 5.05,19.51 C6.61,19.51 7.87,18.25 7.87,16.69 C7.87,15.13 6.6,13.87 5.05,13.87 Z"/>
  <path fill="#292D32" d="M18.951,13.87 C17.401,13.87 16.131,15.13 16.131,16.69 C16.131,18.25 17.391,19.51 18.951,19.51 C20.511,19.51 21.771,18.25 21.771,16.69 C21.771,15.13 20.511,13.87 18.951,13.87 Z"/>
</svg>

