<svg xmlns="http://www.w3.org/2000/svg" width="24" height="24" viewBox="0 0 24 24">
  <defs/>
  <path fill="#292D32" d="M20.359,12.732 C19.989,12.732 19.679,12.451 19.639,12.082 C19.399,9.882 18.219,7.902 16.399,6.642 C16.069,6.412 15.989,5.962 16.219,5.632 C16.449,5.302 16.899,5.222 17.229,5.452 C19.399,6.962 20.799,9.322 21.089,11.931 C21.129,12.332 20.839,12.691 20.439,12.732 C20.409,12.732 20.389,12.732 20.359,12.732 Z"/>
  <path fill="#292D32" d="M3.739,12.781 C3.719,12.781 3.689,12.781 3.669,12.781 C3.269,12.741 2.979,12.381 3.019,11.981 C3.289,9.371 4.669,7.011 6.819,5.491 C7.139,5.261 7.599,5.341 7.829,5.661 C8.059,5.991 7.979,6.441 7.659,6.671 C5.859,7.951 4.689,9.931 4.469,12.121 C4.429,12.501 4.109,12.781 3.739,12.781 Z"/>
  <path fill="#292D32" d="M15.991,21.1 C14.761,21.69 13.441,21.99 12.061,21.99 C10.621,21.99 9.251,21.67 7.971,21.02 C7.611,20.85 7.471,20.41 7.651,20.05 C7.821,19.69 8.261,19.55 8.621,19.72 C9.251,20.04 9.921,20.26 10.601,20.39 C11.521,20.57 12.461,20.58 13.381,20.42 C14.061,20.3 14.731,20.09 15.351,19.79 C15.721,19.62 16.161,19.76 16.321,20.13 C16.501,20.49 16.361,20.93 15.991,21.1 Z"/>
  <path fill="#292D32" d="M12.05,2.012 C10.501,2.012 9.23,3.272 9.23,4.832 C9.23,6.392 10.491,7.652 12.05,7.652 C13.611,7.652 14.87,6.392 14.87,4.832 C14.87,3.272 13.611,2.012 12.05,2.012 Z"/>
  <path fill="#292D32" d="M5.05,13.871 C3.5,13.871 2.23,15.131 2.23,16.691 C2.23,18.251 3.49,19.511 5.05,19.511 C6.61,19.511 7.87,18.251 7.87,16.691 C7.87,15.131 6.6,13.871 5.05,13.871 Z"/>
  <path fill="#292D32" d="M18.951,13.871 C17.401,13.871 16.131,15.131 16.131,16.691 C16.131,18.251 17.391,19.511 18.951,19.511 C20.511,19.511 21.771,18.251 21.771,16.691 C21.771,15.131 20.511,13.871 18.951,13.871 Z"/>
</svg>

