<svg xmlns="http://www.w3.org/2000/svg" width="24" height="24" viewBox="0 0 24 24">
  <defs/>
  <path fill="#292D32" d="M20.62,13.07 C20.24,13.07 19.92,12.78 19.87,12.4 C19.63,10.14 18.41,8.09 16.53,6.79 C16.19,6.55 16.11,6.09 16.34,5.75 C16.58,5.41 17.05,5.33 17.38,5.56 C19.62,7.11 21.06,9.55 21.35,12.24 C21.39,12.65 21.1,13.02 20.68,13.07 C20.67,13.07 20.64,13.07 20.62,13.07 Z"/>
  <path fill="#292D32" d="M3.49,13.12 C3.46,13.12 3.44,13.12 3.41,13.12 C3,13.07 2.7,12.7 2.74,12.29 C3.01,9.6 4.44,7.17 6.65,5.6 C6.99,5.36 7.46,5.44 7.7,5.78 C7.94,6.12 7.86,6.59 7.52,6.83 C5.66,8.14 4.46,10.19 4.23,12.45 C4.2,12.83 3.87,13.12 3.49,13.12 Z"/>
  <path fill="#292D32" d="M12.06,22.61 C10.58,22.61 9.17,22.27 7.85,21.61 C7.48,21.42 7.33,20.97 7.52,20.6 C7.71,20.23 8.16,20.08 8.53,20.27 C10.69,21.36 13.29,21.38 15.47,20.33 C15.84,20.15 16.29,20.31 16.47,20.68 C16.65,21.05 16.49,21.5 16.12,21.68 C14.84,22.3 13.48,22.61 12.06,22.61 Z"/>
  <path fill="#292D32" d="M12.059,8.44 C10.109,8.44 8.529,6.86 8.529,4.91 C8.529,2.96 10.109,1.38 12.059,1.38 C14.009,1.38 15.589,2.96 15.589,4.91 C15.589,6.86 13.999,8.44 12.059,8.44 Z M12.059,2.89 C10.939,2.89 10.029,3.8 10.029,4.92 C10.029,6.04 10.939,6.95 12.059,6.95 C13.179,6.95 14.089,6.04 14.089,4.92 C14.089,3.8 13.169,2.89 12.059,2.89 Z"/>
  <path fill="#292D32" d="M4.831,20.67 C2.881,20.67 1.301,19.09 1.301,17.14 C1.301,15.2 2.881,13.61 4.831,13.61 C6.781,13.61 8.361,15.19 8.361,17.14 C8.361,19.08 6.781,20.67 4.831,20.67 Z M4.831,15.11 C3.711,15.11 2.801,16.02 2.801,17.14 C2.801,18.26 3.711,19.17 4.831,19.17 C5.951,19.17 6.861,18.26 6.861,17.14 C6.861,16.02 5.951,15.11 4.831,15.11 Z"/>
  <path fill="#292D32" d="M19.171,20.67 C17.221,20.67 15.641,19.09 15.641,17.14 C15.641,15.2 17.221,13.61 19.171,13.61 C21.121,13.61 22.701,15.19 22.701,17.14 C22.691,19.08 21.111,20.67 19.171,20.67 Z M19.171,15.11 C18.051,15.11 17.141,16.02 17.141,17.14 C17.141,18.26 18.051,19.17 19.171,19.17 C20.291,19.17 21.201,18.26 21.201,17.14 C21.191,16.02 20.291,15.11 19.171,15.11 Z"/>
</svg>

