<svg xmlns="http://www.w3.org/2000/svg" width="24" height="24" viewBox="0 0 24 24">
  <defs/>
  <path fill="#292D32" d="M17.389,5.554 Q20.9,7.995 21.366,12.238 Q21.4,12.547 21.206,12.789 Q21.012,13.032 20.703,13.065 Q20.394,13.099 20.152,12.905 Q19.909,12.711 19.875,12.402 Q19.484,8.837 16.533,6.786 Q16.278,6.608 16.223,6.303 Q16.168,5.997 16.345,5.742 Q16.522,5.487 16.828,5.432 Q17.134,5.377 17.389,5.554 Z"/>
  <path fill="#292D32" d="M2.744,12.294 Q3.177,8.069 6.657,5.608 Q6.911,5.428 7.217,5.481 Q7.523,5.533 7.703,5.787 Q7.882,6.041 7.829,6.347 Q7.777,6.653 7.523,6.832 Q4.599,8.9 4.236,12.446 Q4.205,12.755 3.964,12.952 Q3.723,13.148 3.414,13.116 Q3.105,13.084 2.909,12.844 Q2.712,12.603 2.744,12.294 Z"/>
  <path fill="#292D32" d="M8.529,20.271 Q10.178,21.11 12.059,21.11 Q13.87,21.11 15.461,20.336 Q15.741,20.2 16.034,20.301 Q16.328,20.402 16.464,20.682 Q16.6,20.961 16.498,21.255 Q16.397,21.548 16.118,21.684 Q14.216,22.61 12.059,22.61 Q9.818,22.61 7.849,21.608 Q7.573,21.468 7.476,21.172 Q7.38,20.877 7.521,20.6 Q7.662,20.323 7.957,20.227 Q8.253,20.131 8.529,20.271 Z"/>
  <path fill="#292D32" d="M10.029,4.92 Q10.029,5.759 10.623,6.354 Q11.217,6.95 12.059,6.95 Q14.089,6.95 14.089,4.92 Q14.089,2.89 12.059,2.89 Q11.749,2.89 11.529,2.67 Q11.309,2.451 11.309,2.14 Q11.309,1.829 11.529,1.61 Q11.749,1.39 12.059,1.39 Q15.589,1.39 15.589,4.92 Q15.589,8.45 12.059,8.45 Q8.529,8.45 8.529,4.92 Q8.529,4.609 8.749,4.39 Q8.969,4.17 9.279,4.17 Q9.59,4.17 9.81,4.39 Q10.029,4.609 10.029,4.92 Z"/>
  <path fill="#292D32" d="M4.831,20.67 Q3.369,20.67 2.335,19.636 Q1.301,18.602 1.301,17.14 Q1.301,15.678 2.335,14.644 Q3.369,13.61 4.831,13.61 Q8.361,13.61 8.361,17.14 Q8.361,20.67 4.831,20.67 Z M4.831,19.17 Q5.672,19.17 6.266,18.576 Q6.861,17.981 6.861,17.14 Q6.861,15.11 4.831,15.11 Q2.801,15.11 2.801,17.14 Q2.801,19.17 4.831,19.17 Z"/>
  <path fill="#292D32" d="M21.191,17.14 Q21.191,16.301 20.597,15.706 Q20.003,15.11 19.161,15.11 Q18.317,15.11 17.724,15.703 Q17.131,16.296 17.131,17.14 Q17.131,19.17 19.161,19.17 Q19.472,19.17 19.691,19.39 Q19.911,19.609 19.911,19.92 Q19.911,20.231 19.691,20.45 Q19.472,20.67 19.161,20.67 Q17.695,20.67 16.663,19.638 Q15.631,18.606 15.631,17.14 Q15.631,15.674 16.663,14.642 Q17.695,13.61 19.161,13.61 Q20.625,13.61 21.659,14.647 Q22.691,15.681 22.691,17.14 Q22.691,17.451 22.471,17.67 Q22.252,17.89 21.941,17.89 Q21.63,17.89 21.411,17.67 Q21.191,17.451 21.191,17.14 Z"/>
</svg>

