<svg xmlns="http://www.w3.org/2000/svg" width="24" height="24" viewBox="0 0 24 24">
  <defs/>
  <path fill="#292D32" d="M12,22.76 C10.91,22.76 9.83,22.44 8.98,21.81 L7.39,20.62 C7.06,20.37 6.99,19.9 7.24,19.57 C7.49,19.24 7.96,19.17 8.29,19.42 L9.88,20.61 C11.03,21.47 12.98,21.47 14.13,20.61 L18.43,17.4 C19.19,16.83 19.85,15.5 19.85,14.56 L19.85,7.12 C19.85,6.71 20.19,6.37 20.6,6.37 C21.01,6.37 21.35,6.71 21.35,7.12 L21.35,14.55 C21.35,15.97 20.46,17.74 19.32,18.59 L15.02,21.8 C14.17,22.44 13.09,22.76 12,22.76 Z"/>
  <path fill="#292D32" d="M5.33,18.9 C5.17,18.9 5.02,18.85 4.88,18.75 L4.68,18.6 C3.54,17.75 2.65,15.97 2.65,14.56 L2.65,7.12 C2.65,5.58 3.78,3.94 5.23,3.4 L10.22,1.53 C11.21,1.16 12.77,1.16 13.76,1.53 L18.76,3.4 C18.97,3.48 19.17,3.58 19.37,3.7 C19.72,3.92 19.83,4.38 19.61,4.73 C19.39,5.08 18.93,5.19 18.58,4.97 C18.47,4.9 18.36,4.84 18.24,4.8 L13.24,2.93 C12.58,2.68 11.41,2.68 10.75,2.93 L5.76,4.81 C4.9,5.13 4.15,6.21 4.15,7.13 L4.15,14.56 C4.15,15.51 4.82,16.84 5.57,17.4 L5.77,17.55 C6.1,17.8 6.17,18.27 5.92,18.6 C5.79,18.79 5.56,18.9 5.33,18.9 Z"/>
  <path fill="#292D32" d="M1.999,22.75 C1.809,22.75 1.619,22.68 1.469,22.53 C1.179,22.24 1.179,21.76 1.469,21.47 L21.47,1.47 C21.759,1.18 22.239,1.18 22.529,1.47 C22.82,1.76 22.82,2.24 22.529,2.53 L2.529,22.53 C2.379,22.68 2.189,22.75 1.999,22.75 Z"/>
</svg>

