<svg xmlns="http://www.w3.org/2000/svg" width="24" height="24" viewBox="0 0 24 24">
  <defs/>
  <path fill="#292D32" d="M19.361,4.64 L5.831,18.17 L4.731,17.35 C4.081,16.86 3.551,15.8 3.551,14.98 L3.551,6.89 C3.551,5.76 4.411,4.52 5.461,4.12 L10.961,2.06 C11.531,1.85 12.471,1.85 13.041,2.06 L18.541,4.12 C18.831,4.23 19.111,4.41 19.361,4.64 Z"/>
  <path fill="#292D32" d="M20.449,14.979 C20.449,15.799 19.919,16.859 19.269,17.349 L13.769,21.459 C12.789,22.179 11.209,22.179 10.229,21.459 L8.469,20.149 C7.979,19.789 7.929,19.069 8.359,18.639 L18.739,8.259 C19.369,7.629 20.449,8.079 20.449,8.969 L20.449,14.979 Z"/>
  <path fill="#292D32" d="M21.769,2.229 C21.469,1.929 20.979,1.929 20.679,2.229 L2.229,20.689 C1.929,20.989 1.929,21.479 2.229,21.779 C2.379,21.919 2.569,21.999 2.769,21.999 C2.969,21.999 3.159,21.919 3.309,21.769 L21.769,3.309 C22.079,3.009 22.079,2.529 21.769,2.229 Z"/>
</svg>

