<svg xmlns="http://www.w3.org/2000/svg" width="24" height="24" viewBox="0 0 24 24">
  <defs/>
  <path fill="#292D32" d="M8.289,19.42 L9.879,20.61 Q12,22.204 14.119,20.611 L18.421,17.399 Q19.85,16.331 19.85,14.56 L19.85,7.12 Q19.85,6.809 20.069,6.59 Q20.289,6.37 20.6,6.37 Q20.91,6.37 21.13,6.59 Q21.35,6.809 21.35,7.12 L21.35,14.56 Q21.35,17.083 19.318,18.601 L15.02,21.809 Q12,24.08 8.98,21.81 L7.39,20.62 Q7.142,20.434 7.097,20.127 Q7.053,19.819 7.239,19.571 Q7.426,19.322 7.733,19.278 Q8.041,19.233 8.289,19.42 Z"/>
  <path fill="#292D32" d="M4.16,11.04 L4.16,14.56 Q4.16,16.331 5.589,17.399 L5.79,17.55 Q6.039,17.736 6.083,18.044 Q6.127,18.351 5.94,18.6 Q5.754,18.849 5.446,18.892 Q5.139,18.936 4.89,18.75 L4.691,18.601 Q2.66,17.083 2.66,14.56 L2.66,11.04 Q2.66,10.729 2.88,10.51 Q3.099,10.29 3.41,10.29 Q3.721,10.29 3.94,10.51 Q4.16,10.729 4.16,11.04 Z"/>
  <path fill="#292D32" d="M18.594,4.983 Q18.431,4.885 18.227,4.795 L13.257,2.932 Q12.01,2.467 10.763,2.933 L5.764,4.812 Q4.16,5.412 4.16,7.12 Q4.16,7.431 3.94,7.65 Q3.721,7.87 3.41,7.87 Q3.099,7.87 2.88,7.65 Q2.66,7.431 2.66,7.12 Q2.66,4.371 5.236,3.408 L10.238,1.527 Q12.01,0.865 13.783,1.528 L18.773,3.398 Q18.792,3.405 18.811,3.413 Q19.113,3.545 19.366,3.697 Q19.632,3.857 19.708,4.158 Q19.783,4.46 19.623,4.726 Q19.463,4.992 19.162,5.068 Q18.861,5.143 18.594,4.983 Z"/>
  <path fill="#292D32" d="M22.53,2.53 L2.53,22.53 Q2.311,22.75 2,22.75 Q1.689,22.75 1.47,22.53 Q1.25,22.311 1.25,22 Q1.25,21.689 1.47,21.47 L21.47,1.47 Q21.689,1.25 22,1.25 Q22.311,1.25 22.53,1.47 Q22.75,1.689 22.75,2 Q22.75,2.311 22.53,2.53 Z"/>
</svg>

