<svg xmlns="http://www.w3.org/2000/svg" width="24" height="24" viewBox="0 0 24 24">
  <defs/>
  <path fill="#292D32" d="M18.541,4.12 L13.041,2.06 C12.471,1.85 11.541,1.85 10.971,2.06 L5.471,4.12 C4.411,4.52 3.551,5.76 3.551,6.89 L3.551,14.99 C3.551,15.8 4.081,16.87 4.731,17.35 L10.231,21.46 C11.201,22.19 12.791,22.19 13.761,21.46 L19.261,17.35 C19.911,16.86 20.441,15.8 20.441,14.99 L20.441,6.89 C20.451,5.76 19.591,4.52 18.541,4.12 Z M14.681,13.97 C14.531,14.12 14.341,14.19 14.151,14.19 C13.961,14.19 13.771,14.12 13.621,13.97 L12.031,12.38 L10.391,14.02 C10.241,14.17 10.051,14.24 9.861,14.24 C9.671,14.24 9.481,14.17 9.331,14.02 C9.041,13.73 9.041,13.25 9.331,12.96 L10.971,11.32 L9.371,9.72 C9.081,9.43 9.081,8.95 9.371,8.66 C9.661,8.37 10.141,8.37 10.431,8.66 L12.021,10.25 L13.571,8.7 C13.861,8.41 14.341,8.41 14.631,8.7 C14.921,8.99 14.921,9.47 14.631,9.76 L13.081,11.31 L14.671,12.9 C14.971,13.2 14.971,13.67 14.681,13.97 Z"/>
</svg>

