<svg xmlns="http://www.w3.org/2000/svg" width="24" height="24" viewBox="0 0 24 24">
  <defs/>
  <path fill="#292D32" d="M10.228,1.527 Q11.989,0.87 13.793,1.528 L18.783,3.398 Q21.36,4.361 21.36,7.12 L21.36,14.55 Q21.36,17.073 19.329,18.591 L15.031,21.8 Q12.01,24.07 8.991,21.801 L4.691,18.591 Q2.66,17.073 2.66,14.55 L2.66,7.12 Q2.66,4.371 5.236,3.408 L10.226,1.528 Z M10.754,2.932 L5.764,4.812 Q4.16,5.412 4.16,7.12 L4.16,14.55 Q4.16,16.321 5.589,17.389 L9.889,20.599 Q12.01,22.194 14.129,20.601 L18.431,17.389 Q19.86,16.321 19.86,14.55 L19.86,7.12 Q19.86,5.402 18.257,4.803 L13.267,2.932 Q11.996,2.469 10.754,2.932 Z"/>
  <path fill="#292D32" d="M9.58,11.34 L10.66,12.419 L14.43,8.65 Q14.649,8.43 14.96,8.43 Q15.271,8.43 15.49,8.65 Q15.71,8.869 15.71,9.18 Q15.71,9.491 15.49,9.71 L11.19,14.01 Q10.971,14.23 10.66,14.23 Q10.349,14.23 10.13,14.01 L8.52,12.4 Q8.3,12.181 8.3,11.87 Q8.3,11.559 8.52,11.34 Q8.739,11.12 9.05,11.12 Q9.361,11.12 9.58,11.34 Z"/>
</svg>

