<svg xmlns="http://www.w3.org/2000/svg" width="24" height="24" viewBox="0 0 24 24">
  <defs/>
  <path fill="#292D32" d="M18.541,4.171 L13.041,2.111 C12.471,1.901 11.541,1.901 10.971,2.111 L5.471,4.171 C4.411,4.571 3.551,5.811 3.551,6.941 L3.551,15.041 C3.551,15.851 4.081,16.921 4.731,17.401 L10.231,21.511 C11.201,22.241 12.791,22.241 13.761,21.511 L19.261,17.401 C19.911,16.911 20.441,15.851 20.441,15.041 L20.441,6.941 C20.451,5.811 19.591,4.571 18.541,4.171 Z M12.751,12.871 L12.751,15.501 C12.751,15.911 12.411,16.251 12.001,16.251 C11.591,16.251 11.251,15.911 11.251,15.501 L11.251,12.871 C10.241,12.551 9.501,11.611 9.501,10.501 C9.501,9.121 10.621,8.001 12.001,8.001 C13.381,8.001 14.501,9.121 14.501,10.501 C14.501,11.621 13.761,12.551 12.751,12.871 Z"/>
</svg>

