<svg xmlns="http://www.w3.org/2000/svg" width="24" height="24" viewBox="0 0 24 24">
  <defs/>
  <path fill="#292D32" opacity="0.4" d="M20.41,6.96 L20.41,9.8 L7.4,19.34 L4.77,17.37 C4.12,16.88 3.59,15.83 3.59,15.02 L3.59,6.96 C3.59,5.84 4.45,4.6 5.5,4.21 L10.97,2.16 C11.54,1.95 12.46,1.95 13.03,2.16 L18.5,4.21 C19.55,4.6 20.41,5.84 20.41,6.96 Z"/>
  <path fill="#292D32" d="M20.41,11.17 L20.41,15.02 C20.41,15.83 19.88,16.88 19.23,17.37 L13.76,21.46 C13.28,21.82 12.64,22 12,22 C11.36,22 10.72,21.82 10.24,21.46 L8.32,20.03 L20.41,11.17 Z"/>
</svg>

