<svg xmlns="http://www.w3.org/2000/svg" width="24" height="24" viewBox="0 0 24 24">
  <defs/>
  <path fill="#292D32" d="M4.16,11.02 L4.16,14.56 Q4.16,16.331 5.589,17.399 L9.889,20.609 Q10.736,21.25 12,21.25 Q12.311,21.25 12.531,21.47 Q12.75,21.689 12.75,22 Q12.75,22.311 12.531,22.53 Q12.311,22.75 12,22.75 Q10.232,22.75 8.992,21.811 L4.691,18.601 Q2.66,17.083 2.66,14.56 L2.66,11.02 Q2.66,10.709 2.88,10.49 Q3.099,10.27 3.41,10.27 Q3.721,10.27 3.94,10.49 Q4.16,10.709 4.16,11.02 Z"/>
  <path fill="#292D32" d="M19.84,10.55 L19.84,7.12 Q19.84,5.402 18.238,4.803 L13.247,2.932 Q12,2.467 10.753,2.933 L5.765,4.812 Q4.16,5.412 4.16,7.12 Q4.16,7.431 3.94,7.65 Q3.721,7.87 3.41,7.87 Q3.099,7.87 2.88,7.65 Q2.66,7.431 2.66,7.12 Q2.66,4.371 5.236,3.408 L10.228,1.527 Q12,0.865 13.773,1.528 L18.763,3.398 Q21.34,4.361 21.34,7.12 L21.34,10.55 Q21.34,10.861 21.121,11.08 Q20.901,11.3 20.59,11.3 Q20.28,11.3 20.06,11.08 Q19.84,10.861 19.84,10.55 Z"/>
  <path fill="#292D32" d="M20.75,16 Q20.75,17.968 19.359,19.359 Q17.968,20.75 16,20.75 Q14.032,20.75 12.641,19.359 Q11.25,17.968 11.25,16 Q11.25,14.71 11.883,13.631 Q13.246,11.26 15.99,11.26 Q17.031,11.26 18.004,11.709 Q18.286,11.839 18.394,12.131 Q18.501,12.422 18.371,12.704 Q18.241,12.986 17.949,13.094 Q17.658,13.201 17.376,13.071 Q16.702,12.76 15.99,12.76 Q14.114,12.76 13.177,14.389 Q12.75,15.118 12.75,16 Q12.75,19.25 16,19.25 Q19.25,19.25 19.25,16 Q19.25,15.689 19.47,15.47 Q19.689,15.25 20,15.25 Q20.311,15.25 20.53,15.47 Q20.75,15.689 20.75,16 Z"/>
  <path fill="#292D32" d="M20.996,20 L21.004,20 Q21.419,20 21.712,20.293 Q22.004,20.586 22.004,21 Q22.004,21.414 21.712,21.707 Q21.419,22 21.004,22 L20.996,22 Q20.581,22 20.288,21.707 Q19.995,21.414 19.995,21 Q19.995,20.586 20.288,20.293 Q20.581,20 20.996,20 Z"/>
</svg>

