<svg xmlns="http://www.w3.org/2000/svg" width="24" height="24" viewBox="0 0 24 24">
  <defs/>
  <path fill="#292D32" d="M19.449,6.941 L19.449,9.451 C19.449,10.161 18.729,10.621 18.059,10.371 C17.219,10.061 16.289,9.941 15.309,10.041 C12.929,10.301 10.489,12.591 10.089,14.961 C9.759,16.931 10.389,18.771 11.599,20.071 C12.149,20.671 11.779,21.641 10.969,21.731 C10.279,21.811 9.599,21.791 9.219,21.511 L3.719,17.401 C3.069,16.911 2.539,15.851 2.539,15.031 L2.539,6.941 C2.539,5.811 3.399,4.571 4.449,4.171 L9.949,2.111 C10.519,1.901 11.459,1.901 12.029,2.111 L17.529,4.171 C18.589,4.571 19.449,5.811 19.449,6.941 Z"/>
  <path fill="#292D32" d="M16,11.512 C13.52,11.512 11.5,13.532 11.5,16.012 C11.5,18.492 13.52,20.512 16,20.512 C18.48,20.512 20.5,18.492 20.5,16.012 C20.5,13.522 18.48,11.512 16,11.512 Z"/>
  <path fill="#292D32" d="M21,22.001 C20.73,22.001 20.48,21.891 20.29,21.711 C20.25,21.661 20.2,21.611 20.17,21.551 C20.13,21.501 20.1,21.441 20.08,21.381 C20.05,21.321 20.03,21.261 20.02,21.201 C20.01,21.131 20,21.071 20,21.001 C20,20.871 20.03,20.741 20.08,20.621 C20.13,20.491 20.2,20.391 20.29,20.291 C20.52,20.061 20.87,19.951 21.19,20.021 C21.26,20.031 21.32,20.051 21.38,20.081 C21.44,20.101 21.5,20.131 21.55,20.171 C21.61,20.201 21.66,20.251 21.71,20.291 C21.8,20.391 21.87,20.491 21.92,20.621 C21.97,20.741 22,20.871 22,21.001 C22,21.261 21.89,21.521 21.71,21.711 C21.66,21.751 21.61,21.791 21.55,21.831 C21.5,21.871 21.44,21.901 21.38,21.921 C21.32,21.951 21.26,21.971 21.19,21.981 C21.13,21.991 21.06,22.001 21,22.001 Z"/>
</svg>

