<svg xmlns="http://www.w3.org/2000/svg" width="24" height="24" viewBox="0 0 24 24">
  <defs/>
  <path fill="#292D32" opacity="0.4" d="M9.961,2.11 L4.461,4.17 C3.411,4.57 2.551,5.81 2.551,6.94 L2.551,15.04 C2.551,15.85 3.081,16.92 3.731,17.4 L9.231,21.51 C10.201,22.24 11.791,22.24 12.761,21.51 L18.261,17.4 C18.911,16.91 19.441,15.85 19.441,15.04 L19.441,6.94 C19.441,5.82 18.581,4.57 17.531,4.18 L12.031,2.12 C11.471,1.9 10.531,1.9 9.961,2.11 Z"/>
  <path fill="#292D32" d="M16,11.51 C13.52,11.51 11.5,13.53 11.5,16.01 C11.5,18.49 13.52,20.51 16,20.51 C18.48,20.51 20.5,18.49 20.5,16.01 C20.5,13.52 18.48,11.51 16,11.51 Z"/>
  <path fill="#292D32" d="M21,22 C20.73,22 20.48,21.89 20.29,21.71 C20.25,21.66 20.2,21.61 20.17,21.55 C20.13,21.5 20.1,21.44 20.08,21.38 C20.05,21.32 20.03,21.26 20.02,21.2 C20.01,21.13 20,21.07 20,21 C20,20.87 20.03,20.74 20.08,20.62 C20.13,20.49 20.2,20.39 20.29,20.29 C20.52,20.06 20.87,19.95 21.19,20.02 C21.26,20.03 21.32,20.05 21.38,20.08 C21.44,20.1 21.5,20.13 21.55,20.17 C21.61,20.2 21.66,20.25 21.71,20.29 C21.8,20.39 21.87,20.49 21.92,20.62 C21.97,20.74 22,20.87 22,21 C22,21.26 21.89,21.52 21.71,21.71 C21.66,21.75 21.61,21.79 21.55,21.83 C21.5,21.87 21.44,21.9 21.38,21.92 C21.32,21.95 21.26,21.97 21.19,21.98 C21.13,21.99 21.06,22 21,22 Z"/>
</svg>

