<svg xmlns="http://www.w3.org/2000/svg" width="24" height="24" viewBox="0 0 24 24">
  <defs/>
  <path fill="#292D32" d="M13.62,13.97 L9.37,9.72 Q9.15,9.501 9.15,9.19 Q9.15,8.879 9.37,8.66 Q9.59,8.44 9.9,8.44 Q10.211,8.44 10.431,8.66 L14.681,12.91 Q14.9,13.129 14.9,13.44 Q14.9,13.751 14.681,13.97 Q14.461,14.19 14.15,14.19 Q13.84,14.19 13.62,13.97 Z"/>
  <path fill="#292D32" d="M14.63,9.77 L10.38,14.02 Q10.16,14.24 9.85,14.24 Q9.539,14.24 9.319,14.02 Q9.1,13.801 9.1,13.49 Q9.1,13.179 9.319,12.96 L13.569,8.71 Q13.789,8.49 14.1,8.49 Q14.41,8.49 14.63,8.71 Q14.85,8.929 14.85,9.24 Q14.85,9.551 14.63,9.77 Z"/>
  <path fill="#292D32" d="M19.84,7.12 Q19.84,5.402 18.238,4.803 L13.247,2.932 Q12,2.467 10.753,2.933 L5.765,4.812 Q4.16,5.412 4.16,7.12 L4.16,14.55 Q4.16,16.321 5.589,17.389 L9.889,20.599 Q12.01,22.194 14.13,20.601 L18.432,17.389 Q19.86,16.321 19.86,14.55 L19.86,11.03 Q19.86,10.719 20.08,10.5 Q20.3,10.28 20.61,10.28 Q20.921,10.28 21.141,10.5 Q21.36,10.719 21.36,11.03 L21.36,14.55 Q21.36,17.073 19.329,18.591 L15.031,21.8 Q12.01,24.07 8.992,21.801 L4.691,18.591 Q2.66,17.073 2.66,14.55 L2.66,7.12 Q2.66,4.371 5.236,3.408 L10.228,1.527 Q12,0.865 13.773,1.528 L18.763,3.398 Q21.34,4.361 21.34,7.12 Q21.34,7.431 21.121,7.65 Q20.901,7.87 20.59,7.87 Q20.28,7.87 20.06,7.65 Q19.84,7.431 19.84,7.12 Z"/>
</svg>

