<svg xmlns="http://www.w3.org/2000/svg" width="24" height="24" viewBox="0 0 24 24">
  <defs/>
  <path fill="#292D32" opacity="0.4" d="M10.961,2.06 L5.461,4.12 C4.411,4.52 3.551,5.76 3.551,6.89 L3.551,14.99 C3.551,15.8 4.081,16.87 4.731,17.35 L10.231,21.46 C11.201,22.19 12.791,22.19 13.761,21.46 L19.261,17.35 C19.911,16.86 20.441,15.8 20.441,14.99 L20.441,6.89 C20.441,5.77 19.581,4.52 18.531,4.13 L13.031,2.07 C12.471,1.85 11.531,1.85 10.961,2.06 Z"/>
  <path fill="#292D32" d="M14.681,12.91 L13.091,11.32 L14.641,9.77 C14.931,9.48 14.931,9 14.641,8.71 C14.351,8.42 13.871,8.42 13.581,8.71 L12.031,10.26 L10.441,8.67 C10.151,8.38 9.671,8.38 9.381,8.67 C9.091,8.96 9.091,9.44 9.381,9.73 L10.971,11.32 L9.331,12.96 C9.041,13.25 9.041,13.73 9.331,14.02 C9.481,14.17 9.671,14.24 9.861,14.24 C10.051,14.24 10.241,14.17 10.391,14.02 L12.031,12.38 L13.621,13.97 C13.771,14.12 13.961,14.19 14.151,14.19 C14.341,14.19 14.531,14.12 14.681,13.97 C14.971,13.67 14.971,13.2 14.681,12.91 Z"/>
</svg>

