<svg xmlns="http://www.w3.org/2000/svg" width="24" height="24" viewBox="0 0 24 24">
  <defs/>
  <path fill="#292D32" d="M12,22.76 C10.91,22.76 9.83,22.44 8.98,21.81 L4.68,18.6 C3.54,17.75 2.65,15.97 2.65,14.56 L2.65,7.12 C2.65,5.58 3.78,3.94 5.23,3.4 L10.22,1.53 C11.21,1.16 12.77,1.16 13.76,1.53 L18.75,3.4 C20.2,3.94 21.33,5.58 21.33,7.12 L21.33,14.55 C21.33,15.97 20.44,17.74 19.3,18.59 L15,21.8 C14.17,22.44 13.09,22.76 12,22.76 Z M10.75,2.94 L5.76,4.81 C4.91,5.13 4.16,6.21 4.16,7.13 L4.16,14.56 C4.16,15.51 4.83,16.84 5.58,17.4 L9.88,20.61 C11.03,21.47 12.97,21.47 14.13,20.61 L18.43,17.4 C19.19,16.83 19.85,15.51 19.85,14.56 L19.85,7.12 C19.85,6.21 19.1,5.13 18.25,4.8 L13.26,2.93 C12.58,2.69 11.42,2.69 10.75,2.94 Z"/>
  <path fill="#292D32" d="M14.15,14.19 C13.96,14.19 13.77,14.12 13.62,13.97 L9.37,9.72 C9.08,9.43 9.08,8.95 9.37,8.66 C9.66,8.37 10.14,8.37 10.43,8.66 L14.68,12.91 C14.97,13.2 14.97,13.68 14.68,13.97 C14.53,14.11 14.34,14.19 14.15,14.19 Z"/>
  <path fill="#292D32" d="M9.849,14.23 C9.659,14.23 9.469,14.16 9.319,14.01 C9.029,13.72 9.029,13.24 9.319,12.95 L13.569,8.7 C13.859,8.41 14.339,8.41 14.629,8.7 C14.919,8.99 14.919,9.47 14.629,9.76 L10.379,14.01 C10.239,14.16 10.039,14.23 9.849,14.23 Z"/>
</svg>

