<svg xmlns="http://www.w3.org/2000/svg" width="24" height="24" viewBox="0 0 24 24">
  <defs/>
  <path fill="#292D32" d="M18.541,4.12 L13.041,2.06 C12.471,1.85 11.541,1.85 10.971,2.06 L5.471,4.12 C4.411,4.52 3.551,5.76 3.551,6.89 L3.551,14.99 C3.551,15.8 4.081,16.87 4.731,17.35 L10.231,21.46 C11.201,22.19 12.791,22.19 13.761,21.46 L19.261,17.35 C19.911,16.86 20.441,15.8 20.441,14.99 L20.441,6.89 C20.451,5.76 19.591,4.52 18.541,4.12 Z M15.481,9.72 L11.181,14.02 C11.031,14.17 10.841,14.24 10.651,14.24 C10.461,14.24 10.271,14.17 10.121,14.02 L8.521,12.4 C8.231,12.11 8.231,11.63 8.521,11.34 C8.811,11.05 9.291,11.05 9.581,11.34 L10.661,12.42 L14.431,8.65 C14.721,8.36 15.201,8.36 15.491,8.65 C15.781,8.94 15.781,9.43 15.481,9.72 Z"/>
</svg>

