<svg xmlns="http://www.w3.org/2000/svg" width="24" height="24" viewBox="0 0 24 24">
  <defs/>
  <path fill="#292D32" opacity="0.4" d="M10.961,2.11 L5.461,4.17 C4.411,4.57 3.551,5.81 3.551,6.94 L3.551,15.04 C3.551,15.85 4.081,16.92 4.731,17.4 L10.231,21.51 C11.201,22.24 12.791,22.24 13.761,21.51 L19.261,17.4 C19.911,16.91 20.441,15.85 20.441,15.04 L20.441,6.94 C20.441,5.82 19.581,4.57 18.531,4.18 L13.031,2.12 C12.471,1.9 11.531,1.9 10.961,2.11 Z"/>
  <path fill="#292D32" d="M14.5,10.5 C14.5,9.12 13.38,8 12,8 C10.62,8 9.5,9.12 9.5,10.5 C9.5,11.62 10.24,12.55 11.25,12.87 L11.25,15.5 C11.25,15.91 11.59,16.25 12,16.25 C12.41,16.25 12.75,15.91 12.75,15.5 L12.75,12.87 C13.76,12.55 14.5,11.62 14.5,10.5 Z"/>
</svg>

