<svg xmlns="http://www.w3.org/2000/svg" width="24" height="24" viewBox="0 0 24 24">
  <defs/>
  <path fill="#292D32" opacity="0.4" d="M10.961,2.06 L5.461,4.12 C4.411,4.52 3.551,5.76 3.551,6.89 L3.551,14.99 C3.551,15.8 4.081,16.87 4.731,17.35 L10.231,21.46 C11.201,22.19 12.791,22.19 13.761,21.46 L19.261,17.35 C19.911,16.86 20.441,15.8 20.441,14.99 L20.441,6.89 C20.441,5.77 19.581,4.52 18.531,4.13 L13.031,2.07 C12.471,1.85 11.531,1.85 10.961,2.06 Z"/>
  <path fill="#292D32" d="M10.66,14.23 C10.47,14.23 10.28,14.16 10.13,14.01 L8.52,12.4 C8.23,12.11 8.23,11.63 8.52,11.34 C8.81,11.05 9.29,11.05 9.58,11.34 L10.66,12.42 L14.43,8.65 C14.72,8.36 15.2,8.36 15.49,8.65 C15.78,8.94 15.78,9.42 15.49,9.71 L11.19,14.01 C11.04,14.16 10.85,14.23 10.66,14.23 Z"/>
</svg>

