<svg xmlns="http://www.w3.org/2000/svg" width="24" height="24" viewBox="0 0 24 24">
  <defs/>
  <path fill="#292D32" d="M12,22.76 C10.91,22.76 9.83,22.44 8.98,21.81 L4.68,18.6 C3.54,17.75 2.65,15.97 2.65,14.56 L2.65,7.12 C2.65,5.58 3.78,3.94 5.23,3.4 L10.22,1.53 C11.21,1.16 12.77,1.16 13.76,1.53 L18.75,3.4 C20.2,3.94 21.33,5.58 21.33,7.12 L21.33,14.55 C21.33,15.97 20.44,17.74 19.3,18.59 L15,21.8 C14.17,22.44 13.09,22.76 12,22.76 Z M10.75,2.94 L5.76,4.81 C4.91,5.13 4.16,6.21 4.16,7.13 L4.16,14.56 C4.16,15.51 4.83,16.84 5.58,17.4 L9.88,20.61 C11.03,21.47 12.97,21.47 14.13,20.61 L18.43,17.4 C19.19,16.83 19.85,15.51 19.85,14.56 L19.85,7.12 C19.85,6.21 19.1,5.13 18.25,4.8 L13.26,2.93 C12.58,2.69 11.42,2.69 10.75,2.94 Z"/>
  <path fill="#292D32" d="M10.66,14.23 C10.47,14.23 10.28,14.16 10.13,14.01 L8.52,12.4 C8.23,12.11 8.23,11.63 8.52,11.34 C8.81,11.05 9.29,11.05 9.58,11.34 L10.66,12.42 L14.43,8.65 C14.72,8.36 15.2,8.36 15.49,8.65 C15.78,8.94 15.78,9.42 15.49,9.71 L11.19,14.01 C11.04,14.16 10.85,14.23 10.66,14.23 Z"/>
</svg>

