<svg xmlns="http://www.w3.org/2000/svg" width="24" height="24" viewBox="0 0 24 24">
  <defs/>
  <path fill="#292D32" opacity="0.4" d="M19.361,4.64 L5.831,18.17 L4.731,17.35 C4.081,16.86 3.551,15.8 3.551,14.98 L3.551,6.89 C3.551,5.76 4.411,4.52 5.461,4.12 L10.961,2.06 C11.531,1.85 12.471,1.85 13.041,2.06 L18.541,4.12 C18.831,4.23 19.111,4.41 19.361,4.64 Z"/>
  <path fill="#292D32" opacity="0.4" d="M20.449,6.89 L20.449,14.98 C20.449,15.8 19.919,16.86 19.269,17.35 L13.769,21.46 C12.789,22.18 11.209,22.18 10.229,21.46 L7.539,19.46 L20.419,6.58 C20.439,6.68 20.449,6.79 20.449,6.89 Z"/>
  <path fill="#292D32" d="M21.771,2.23 C21.471,1.93 20.981,1.93 20.681,2.23 L2.231,20.69 C1.931,20.99 1.931,21.48 2.231,21.78 C2.381,21.92 2.571,22 2.771,22 C2.971,22 3.161,21.92 3.311,21.77 L21.771,3.31 C22.081,3.01 22.081,2.53 21.771,2.23 Z"/>
</svg>

