<svg xmlns="http://www.w3.org/2000/svg" width="24" height="24" viewBox="0 0 24 24">
  <defs/>
  <path fill="#292D32" d="M21.63,14.66 L21.22,16.52 C20.51,19.72 18,22 14.38,22 L9.62,22 C6,22 3.49,19.72 2.78,16.52 L2.37,14.66 C2.17,13.75 2.71,12.72 3.58,12.37 L5,11.8 L10.51,9.59 C10.99,9.4 11.5,9.3 12,9.3 C12.5,9.3 13.01,9.4 13.49,9.59 L19,11.8 L20.42,12.37 C21.29,12.72 21.83,13.75 21.63,14.66 Z"/>
  <path fill="#292D32" opacity="0.4" d="M19,8 L19,11.8 L13.49,9.59 C12.53,9.21 11.47,9.21 10.51,9.59 L5,11.8 L5,8 C5,6.35 6.35,5 8,5 L16,5 C17.65,5 19,6.35 19,8 Z"/>
  <path fill="#292D32" d="M14.5,5 L9.5,5 L9.5,3 C9.5,2.45 9.95,2 10.5,2 L13.5,2 C14.05,2 14.5,2.45 14.5,3 L14.5,5 Z"/>
</svg>

