<svg xmlns="http://www.w3.org/2000/svg" width="24" height="24" viewBox="0 0 24 24">
  <defs/>
  <path fill="#292D32" d="M14.38,22.75 L9.62,22.75 C5.84,22.75 2.87,20.37 2.05,16.68 L1.64,14.82 C1.36,13.54 2.09,12.16 3.3,11.67 L10.23,8.89 C11.37,8.44 12.63,8.44 13.77,8.89 L20.7,11.67 C21.92,12.16 22.65,13.54 22.36,14.82 L21.95,16.68 C21.13,20.37 18.16,22.75 14.38,22.75 Z M12,10.05 C11.59,10.05 11.18,10.13 10.78,10.28 L3.85,13.06 C3.32,13.27 2.97,13.94 3.09,14.49 L3.5,16.35 C4.17,19.37 6.51,21.24 9.61,21.24 L14.37,21.24 C17.47,21.24 19.81,19.37 20.48,16.35 L20.89,14.49 C21.01,13.94 20.66,13.27 20.13,13.06 L13.2,10.28 C12.82,10.13 12.41,10.05 12,10.05 Z"/>
  <path fill="#292D32" d="M12,22.75 C11.59,22.75 11.25,22.41 11.25,22 L11.25,10 C11.25,9.59 11.59,9.25 12,9.25 C12.41,9.25 12.75,9.59 12.75,10 L12.75,22 C12.75,22.41 12.41,22.75 12,22.75 Z"/>
  <path fill="#292D32" d="M19,12.55 C18.91,12.55 18.81,12.53 18.72,12.5 L13.21,10.29 C12.43,9.98 11.57,9.98 10.78,10.29 L5.27,12.5 C5.04,12.59 4.78,12.56 4.57,12.42 C4.36,12.28 4.24,12.05 4.24,11.8 L4.24,8 C4.24,5.93 5.92,4.25 7.99,4.25 L15.99,4.25 C18.06,4.25 19.74,5.93 19.74,8 L19.74,11.8 C19.74,12.05 19.62,12.28 19.41,12.42 C19.29,12.51 19.15,12.55 19,12.55 Z M12,8.55 C12.6,8.55 13.2,8.66 13.77,8.89 L18.25,10.69 L18.25,8 C18.25,6.76 17.24,5.75 16,5.75 L8,5.75 C6.76,5.75 5.75,6.76 5.75,8 L5.75,10.69 L10.23,8.89 C10.8,8.67 11.4,8.55 12,8.55 Z"/>
  <path fill="#292D32" d="M14.5,5.75 L9.5,5.75 C9.09,5.75 8.75,5.41 8.75,5 L8.75,3 C8.75,2.04 9.54,1.25 10.5,1.25 L13.5,1.25 C14.46,1.25 15.25,2.04 15.25,3 L15.25,5 C15.25,5.41 14.91,5.75 14.5,5.75 Z M10.25,4.25 L13.75,4.25 L13.75,3 C13.75,2.86 13.64,2.75 13.5,2.75 L10.5,2.75 C10.36,2.75 10.25,2.86 10.25,3 L10.25,4.25 Z"/>
</svg>

