<svg xmlns="http://www.w3.org/2000/svg" width="24" height="24" viewBox="0 0 24 24">
  <defs/>
  <path fill="#292D32" d="M21.63,14.661 L21.22,16.521 C20.51,19.721 18,22.001 14.38,22.001 L9.62,22.001 C6,22.001 3.49,19.721 2.78,16.521 L2.37,14.661 C2.17,13.751 2.71,12.721 3.58,12.371 L5,11.801 L10.51,9.591 C10.99,9.401 11.5,9.301 12,9.301 C12.5,9.301 13.01,9.401 13.49,9.591 L19,11.801 L20.42,12.371 C21.29,12.721 21.83,13.751 21.63,14.661 Z"/>
  <path fill="#292D32" d="M19,8 L19,9.44 C19,9.79 18.64,10.04 18.31,9.9 L14.04,8.19 C12.73,7.68 11.27,7.68 9.95,8.2 L5.69,9.91 C5.36,10.05 5,9.8 5,9.45 L5,8 C5,6.35 6.35,5 8,5 L16,5 C17.65,5 19,6.35 19,8 Z"/>
  <path fill="#292D32" d="M14.5,5 L9.5,5 L9.5,3 C9.5,2.45 9.95,2 10.5,2 L13.5,2 C14.05,2 14.5,2.45 14.5,3 L14.5,5 Z"/>
</svg>

