<svg xmlns="http://www.w3.org/2000/svg" width="24" height="24" viewBox="0 0 24 24">
  <defs/>
  <path fill="#292D32" d="M4.631,21.037 Q2.66,19.403 2.048,16.685 L1.637,14.821 Q1.137,12.544 3.3,11.674 L4.72,11.104 L10.231,8.894 Q12,8.194 13.766,8.893 L19.279,11.104 L20.699,11.674 Q22.863,12.544 22.362,14.821 L21.952,16.681 Q20.606,22.75 14.38,22.75 L9.62,22.75 Q9.309,22.75 9.089,22.53 Q8.87,22.311 8.87,22 Q8.87,21.689 9.089,21.47 Q9.309,21.25 9.62,21.25 L14.38,21.25 Q19.402,21.25 20.487,16.358 L20.897,14.499 Q21.125,13.462 20.14,13.066 L18.721,12.496 L13.214,10.287 Q12,9.807 10.789,10.286 L5.279,12.496 L3.86,13.066 Q2.874,13.462 3.102,14.498 L3.511,16.355 Q4.011,18.575 5.588,19.883 Q5.828,20.081 5.856,20.39 Q5.885,20.699 5.687,20.939 Q5.489,21.178 5.18,21.207 Q4.87,21.236 4.631,21.037 Z"/>
  <path fill="#292D32" d="M11.25,22 L11.25,10 Q11.25,9.689 11.47,9.47 Q11.689,9.25 12,9.25 Q12.311,9.25 12.53,9.47 Q12.75,9.689 12.75,10 L12.75,22 Q12.75,22.311 12.53,22.53 Q12.311,22.75 12,22.75 Q11.689,22.75 11.47,22.53 Q11.25,22.311 11.25,22 Z"/>
  <path fill="#292D32" d="M19.75,8 L19.75,11.8 Q19.75,12.111 19.53,12.33 Q19.311,12.55 19,12.55 Q18.855,12.55 18.721,12.496 L13.211,10.286 Q12,9.807 10.786,10.287 L5.279,12.496 Q4.991,12.612 4.705,12.49 Q4.42,12.368 4.304,12.079 Q4.25,11.945 4.25,11.8 L4.25,8 Q4.25,4.25 8,4.25 L16,4.25 Q19.75,4.25 19.75,8 Z M18.25,8 Q18.25,5.75 16,5.75 L8,5.75 Q5.75,5.75 5.75,8 L5.75,10.691 L10.234,8.893 Q12,8.194 13.769,8.894 L18.25,10.691 Z"/>
  <path fill="#292D32" d="M14.5,5.75 L9.5,5.75 Q9.189,5.75 8.97,5.53 Q8.75,5.311 8.75,5 L8.75,3 Q8.75,1.25 10.5,1.25 L13.5,1.25 Q14.223,1.25 14.737,1.763 Q15.25,2.277 15.25,3 L15.25,5 Q15.25,5.311 15.03,5.53 Q14.811,5.75 14.5,5.75 Z M13.75,4.25 L13.75,3 Q13.75,2.75 13.5,2.75 L10.5,2.75 Q10.25,2.75 10.25,3 L10.25,4.25 L13.75,4.25 Z"/>
</svg>

