<svg xmlns="http://www.w3.org/2000/svg" width="24" height="24" viewBox="0 0 24 24">
  <defs/>
  <path fill="#292D32" d="M16.49,22.75 L7.5,22.75 C5.78,22.75 4.49,22.29 3.69,21.38 C2.89,20.47 2.58,19.15 2.79,17.44 L3.69,9.94 C3.95,7.73 4.51,5.75 8.41,5.75 L15.61,5.75 C19.5,5.75 20.06,7.73 20.33,9.94 L21.23,17.44 C21.43,19.15 21.13,20.48 20.33,21.38 C19.5,22.29 18.22,22.75 16.49,22.75 Z M8.4,7.25 C5.52,7.25 5.38,8.39 5.17,10.11 L4.27,17.61 C4.12,18.88 4.3,19.81 4.81,20.38 C5.32,20.95 6.22,21.24 7.5,21.24 L16.49,21.24 C17.77,21.24 18.67,20.95 19.18,20.38 C19.69,19.81 19.87,18.88 19.72,17.61 L18.82,10.11 C18.61,8.38 18.48,7.25 15.59,7.25 L8.4,7.25 Z"/>
  <path fill="#292D32" d="M16,8.75 C15.59,8.75 15.25,8.41 15.25,8 L15.25,4.5 C15.25,3.42 14.58,2.75 13.5,2.75 L10.5,2.75 C9.42,2.75 8.75,3.42 8.75,4.5 L8.75,8 C8.75,8.41 8.41,8.75 8,8.75 C7.59,8.75 7.25,8.41 7.25,8 L7.25,4.5 C7.25,2.59 8.59,1.25 10.5,1.25 L13.5,1.25 C15.41,1.25 16.75,2.59 16.75,4.5 L16.75,8 C16.75,8.41 16.41,8.75 16,8.75 Z"/>
  <path fill="#292D32" d="M20.41,17.78 L8,17.78 C7.59,17.78 7.25,17.44 7.25,17.03 C7.25,16.62 7.59,16.28 8,16.28 L20.41,16.28 C20.82,16.28 21.16,16.62 21.16,17.03 C21.16,17.44 20.82,17.78 20.41,17.78 Z"/>
</svg>

