<svg xmlns="http://www.w3.org/2000/svg" width="24" height="24" viewBox="0 0 24 24">
  <defs/>
  <path fill="#292D32" opacity="0.4" d="M21.371,11.39 L21.371,17.38 C21.371,20.14 19.131,22.38 16.371,22.38 L7.631,22.38 C4.871,22.38 2.631,20.14 2.631,17.38 L2.631,11.46 C3.391,12.28 4.471,12.75 5.641,12.75 C6.901,12.75 8.111,12.12 8.871,11.11 C9.551,12.12 10.711,12.75 12.001,12.75 C13.281,12.75 14.421,12.15 15.111,11.15 C15.881,12.14 17.071,12.75 18.311,12.75 C19.521,12.75 20.621,12.26 21.371,11.39 Z"/>
  <path fill="#292D32" d="M14.989,1.25 L8.989,1.25 L8.249,8.61 C8.189,9.29 8.289,9.93 8.539,10.51 C9.119,11.87 10.479,12.75 11.999,12.75 C13.539,12.75 14.869,11.89 15.469,10.52 C15.649,10.09 15.759,9.59 15.769,9.08 L15.769,8.89 L14.989,1.25 Z"/>
  <path fill="#292D32" opacity="0.6" d="M22.36,8.27 L22.07,5.5 C21.65,2.48 20.28,1.25 17.35,1.25 L13.51,1.25 L14.25,8.75 C14.26,8.85 14.27,8.96 14.27,9.15 C14.33,9.67 14.49,10.15 14.73,10.58 C15.45,11.9 16.85,12.75 18.31,12.75 C19.64,12.75 20.84,12.16 21.59,11.12 C22.19,10.32 22.46,9.31 22.36,8.27 Z"/>
  <path fill="#292D32" opacity="0.6" d="M6.59,1.25 C3.65,1.25 2.29,2.48 1.86,5.53 L1.59,8.28 C1.49,9.35 1.78,10.39 2.41,11.2 C3.17,12.19 4.34,12.75 5.64,12.75 C7.1,12.75 8.5,11.9 9.21,10.6 C9.47,10.15 9.64,9.63 9.69,9.09 L10.47,1.26 L6.59,1.26 L6.59,1.25 Z"/>
  <path fill="#292D32" d="M11.349,16.66 C10.079,16.79 9.119,17.87 9.119,19.15 L9.119,22.38 L14.869,22.38 L14.869,19.5 C14.879,17.41 13.649,16.42 11.349,16.66 Z"/>
</svg>

