<svg xmlns="http://www.w3.org/2000/svg" width="24" height="24" viewBox="0 0 24 24">
  <defs/>
  <path fill="#292D32" d="M22.36,8.27 L22.07,5.5 C21.65,2.48 20.28,1.25 17.35,1.25 L14.99,1.25 L13.51,1.25 L10.47,1.25 L8.99,1.25 L6.59,1.25 C3.65,1.25 2.29,2.48 1.86,5.53 L1.59,8.28 C1.49,9.35 1.78,10.39 2.41,11.2 C3.17,12.19 4.34,12.75 5.64,12.75 C6.9,12.75 8.11,12.12 8.87,11.11 C9.55,12.12 10.71,12.75 12,12.75 C13.29,12.75 14.42,12.15 15.11,11.15 C15.88,12.14 17.07,12.75 18.31,12.75 C19.64,12.75 20.84,12.16 21.59,11.12 C22.19,10.32 22.46,9.31 22.36,8.27 Z"/>
  <path fill="#292D32" d="M11.349,16.66 C10.079,16.79 9.119,17.87 9.119,19.15 L9.119,21.89 C9.119,22.16 9.339,22.38 9.609,22.38 L14.379,22.38 C14.649,22.38 14.869,22.16 14.869,21.89 L14.869,19.5 C14.879,17.41 13.649,16.42 11.349,16.66 Z"/>
  <path fill="#292D32" d="M21.371,14.398 L21.371,17.378 C21.371,20.138 19.131,22.378 16.371,22.378 C16.101,22.378 15.881,22.158 15.881,21.888 L15.881,19.498 C15.881,18.218 15.491,17.218 14.731,16.538 C14.061,15.928 13.151,15.628 12.021,15.628 C11.771,15.628 11.521,15.638 11.251,15.668 C9.471,15.848 8.121,17.348 8.121,19.148 L8.121,21.888 C8.121,22.158 7.901,22.378 7.631,22.378 C4.871,22.378 2.631,20.138 2.631,17.378 L2.631,14.418 C2.631,13.718 3.321,13.248 3.971,13.478 C4.241,13.568 4.511,13.638 4.791,13.678 C4.911,13.698 5.041,13.718 5.161,13.718 C5.321,13.738 5.481,13.748 5.641,13.748 C6.801,13.748 7.941,13.318 8.841,12.578 C9.701,13.318 10.821,13.748 12.001,13.748 C13.191,13.748 14.291,13.338 15.151,12.598 C16.051,13.328 17.171,13.748 18.311,13.748 C18.491,13.748 18.671,13.738 18.841,13.718 C18.961,13.708 19.071,13.698 19.181,13.678 C19.491,13.638 19.771,13.548 20.051,13.458 C20.701,13.238 21.371,13.718 21.371,14.398 Z"/>
</svg>

