<svg xmlns="http://www.w3.org/2000/svg" width="24" height="24" viewBox="0 0 24 24">
  <defs/>
  <path fill="#292D32" d="M16.25,22.5 C17.216,22.5 18,21.716 18,20.75 C18,19.784 17.216,19 16.25,19 C15.284,19 14.5,19.784 14.5,20.75 C14.5,21.716 15.284,22.5 16.25,22.5 Z"/>
  <path fill="#292D32" d="M8.25,22.5 C9.216,22.5 10,21.716 10,20.75 C10,19.784 9.216,19 8.25,19 C7.284,19 6.5,19.784 6.5,20.75 C6.5,21.716 7.284,22.5 8.25,22.5 Z"/>
  <path fill="#292D32" opacity="0.4" d="M4.84,3.94 L4.64,6.39 C4.6,6.86 4.97,7.25 5.44,7.25 L20.75,7.25 C21.17,7.25 21.52,6.93 21.55,6.51 C21.68,4.74 20.33,3.3 18.56,3.3 L6.29,3.3 C6.19,2.86 5.99,2.44 5.68,2.09 C5.19,1.56 4.49,1.25 3.77,1.25 L2,1.25 C1.59,1.25 1.25,1.59 1.25,2 C1.25,2.41 1.59,2.75 2,2.75 L3.74,2.75 C4.05,2.75 4.34,2.88 4.55,3.1 C4.76,3.33 4.86,3.63 4.84,3.94 Z"/>
  <path fill="#292D32" d="M20.51,8.75 L5.17,8.75 C4.75,8.75 4.41,9.07 4.37,9.48 L4.01,13.83 C3.87,15.53 5.21,17 6.92,17 L18.04,17 C19.54,17 20.86,15.77 20.97,14.27 L21.3,9.6 C21.34,9.14 20.98,8.75 20.51,8.75 Z"/>
</svg>

