<svg xmlns="http://www.w3.org/2000/svg" width="24" height="24" viewBox="0 0 24 24">
  <defs/>
  <path fill="#292D32" d="M16,8.75 C15.59,8.75 15.25,8.41 15.25,8 L15.25,4.5 C15.25,3.42 14.58,2.75 13.5,2.75 L10.5,2.75 C9.42,2.75 8.75,3.42 8.75,4.5 L8.75,8 C8.75,8.41 8.41,8.75 8,8.75 C7.59,8.75 7.25,8.41 7.25,8 L7.25,4.5 C7.25,2.59 8.59,1.25 10.5,1.25 L13.5,1.25 C15.41,1.25 16.75,2.59 16.75,4.5 L16.75,8 C16.75,8.41 16.41,8.75 16,8.75 Z"/>
  <path fill="#292D32" d="M8.001,17.78 C7.591,17.78 7.251,17.44 7.251,17.03 C7.251,16.61 7.591,16.28 8.001,16.28 L19.761,16.28 C20.061,16.28 20.291,16.02 20.261,15.72 L19.581,10.03 C19.341,8.09 19.001,6.5 15.601,6.5 L8.401,6.5 C5.001,6.5 4.661,8.09 4.431,10.03 L3.531,17.53 C3.241,19.99 4.001,22 7.511,22 L16.491,22 C19.651,22 20.581,20.37 20.531,18.25 C20.521,17.98 20.301,17.78 20.031,17.78 L8.001,17.78 Z"/>
</svg>

