<svg xmlns="http://www.w3.org/2000/svg" width="24" height="24" viewBox="0 0 24 24">
  <defs/>
  <path fill="#292D32" d="M7.93,16.28 C7.83,16.17 7.72,16.06 7.6,15.97 C6.9,15.36 6,15 5,15 C4.29,15 3.62,15.19 3.04,15.52 C2.85,15.62 2.67,15.74 2.5,15.88 C1.58,16.61 1,17.74 1,19 C1,19.75 1.21,20.46 1.58,21.06 C1.67,21.22 1.78,21.37 1.9,21.51 C1.92,21.54 1.95,21.56 1.97,21.59 C2.69,22.45 3.78,23 5,23 C6.01,23 6.93,22.63 7.63,22 C7.67,21.97 7.7,21.94 7.73,21.9 C8,21.67 8.23,21.38 8.42,21.06 C8.79,20.46 9,19.75 9,19 C9,17.95 8.59,17 7.93,16.28 Z M6.5,19.73 L3.51,19.73 C3.1,19.73 2.76,19.39 2.76,18.98 C2.76,18.57 3.1,18.23 3.51,18.23 L6.5,18.23 C6.91,18.23 7.25,18.57 7.25,18.98 C7.25,19.39 6.91,19.73 6.5,19.73 Z"/>
  <path fill="#292D32" opacity="0.4" d="M21.05,11.71 L21.05,17.7 C21.05,20.46 18.811,22.7 16.05,22.7 L7.311,22.7 C7.081,22.7 6.851,22.68 6.631,22.65 C7.001,22.49 7.331,22.27 7.631,22 C7.671,21.97 7.701,21.94 7.731,21.9 C8.001,21.67 8.231,21.38 8.421,21.06 C8.791,20.46 9.001,19.75 9.001,19 C9.001,17.95 8.591,17 7.931,16.28 C7.831,16.17 7.721,16.06 7.601,15.97 C6.901,15.36 6.001,15 5.001,15 C4.291,15 3.621,15.19 3.041,15.52 C2.851,15.62 2.671,15.74 2.501,15.88 C2.431,15.93 2.371,15.99 2.311,16.05 L2.311,11.78 C3.071,12.6 4.151,13.07 5.321,13.07 C6.581,13.07 7.791,12.44 8.551,11.43 C9.231,12.44 10.39,13.07 11.681,13.07 C12.96,13.07 14.101,12.47 14.79,11.47 C15.56,12.46 16.75,13.07 17.991,13.07 C19.201,13.07 20.3,12.58 21.05,11.71 Z"/>
  <path fill="#292D32" d="M14.669,1.57 L8.669,1.57 L7.929,8.93 C7.869,9.61 7.969,10.25 8.219,10.83 C8.799,12.19 10.159,13.07 11.679,13.07 C13.219,13.07 14.549,12.21 15.149,10.84 C15.329,10.41 15.439,9.91 15.449,9.4 L15.449,9.21 L14.669,1.57 Z"/>
  <path fill="#292D32" opacity="0.6" d="M22.039,8.59 L21.759,5.81 C21.339,2.79 19.969,1.56 17.039,1.56 L13.199,1.56 L13.939,9.06 C13.949,9.16 13.959,9.27 13.959,9.46 C14.019,9.98 14.179,10.46 14.419,10.89 C15.139,12.21 16.539,13.06 17.999,13.06 C19.329,13.06 20.529,12.47 21.279,11.43 C21.869,10.64 22.139,9.63 22.039,8.59 Z"/>
  <path fill="#292D32" opacity="0.6" d="M6.269,1.57 C3.329,1.57 1.969,2.8 1.539,5.85 L1.269,8.6 C1.169,9.67 1.459,10.71 2.089,11.52 C2.849,12.51 4.019,13.07 5.319,13.07 C6.779,13.07 8.179,12.22 8.889,10.92 C9.149,10.47 9.319,9.95 9.369,9.41 L10.149,1.58 L6.269,1.58 L6.269,1.57 Z"/>
</svg>

