<svg xmlns="http://www.w3.org/2000/svg" width="24" height="24" viewBox="0 0 24 24">
  <defs/>
  <path fill="#292D32" opacity="0.4" d="M21.76,11.22 L21.76,15.71 Q21.761,19.39 20.084,21.068 Q18.404,22.75 14.72,22.75 L9.331,22.75 Q8.377,22.75 7.624,22.642 Q7.317,22.598 7.13,22.35 Q6.944,22.101 6.988,21.794 Q7.032,21.486 7.28,21.3 Q7.529,21.113 7.837,21.157 Q8.484,21.25 9.331,21.25 L14.72,21.25 Q20.26,21.25 20.26,15.71 L20.26,11.22 Q20.26,10.909 20.48,10.689 Q20.7,10.47 21.01,10.47 Q21.321,10.47 21.541,10.689 Q21.76,10.909 21.76,11.22 Z"/>
  <path fill="#292D32" opacity="0.4" d="M2.289,15.52 L2.289,11.22 Q2.289,10.909 2.509,10.689 Q2.728,10.47 3.039,10.47 Q3.35,10.47 3.569,10.689 Q3.789,10.909 3.789,11.22 L3.789,15.52 Q3.789,15.83 3.569,16.05 Q3.35,16.27 3.039,16.27 Q2.728,16.27 2.509,16.05 Q2.289,15.83 2.289,15.52 Z"/>
  <path fill="#292D32" d="M12.03,12.75 Q10.324,12.75 9.216,11.531 Q8.106,10.309 8.274,8.605 L8.944,1.925 Q8.972,1.638 9.187,1.444 Q9.401,1.25 9.69,1.25 L14.36,1.25 Q14.649,1.25 14.863,1.444 Q15.077,1.638 15.106,1.925 L15.776,8.607 Q15.944,10.309 14.84,11.529 Q13.736,12.75 12.03,12.75 Z M12.03,11.25 Q13.07,11.25 13.727,10.523 Q14.386,9.795 14.284,8.753 L13.681,2.75 L10.368,2.75 L9.766,8.755 Q9.664,9.793 10.326,10.522 Q10.988,11.25 12.03,11.25 Z"/>
  <path fill="#292D32" d="M18.33,12.75 Q14.674,12.75 14.274,9.085 L13.574,2.075 Q13.57,2.037 13.57,2 Q13.57,1.689 13.79,1.47 Q14.01,1.25 14.32,1.25 L17.37,1.25 Q21.505,1.25 22.093,5.497 Q22.095,5.511 22.096,5.524 L22.377,8.276 Q22.56,10.114 21.369,11.432 Q20.178,12.75 18.33,12.75 Z M18.33,11.25 Q19.512,11.25 20.256,10.426 Q21.001,9.602 20.884,8.424 L20.606,5.69 Q20.192,2.75 17.37,2.75 L15.149,2.75 L15.767,8.935 Q16.019,11.25 18.33,11.25 Z"/>
  <path fill="#292D32" d="M5.67,12.75 Q3.822,12.75 2.627,11.433 Q1.431,10.114 1.614,8.274 L1.894,5.524 Q1.895,5.511 1.897,5.497 Q2.485,1.25 6.62,1.25 L9.67,1.25 Q9.707,1.25 9.744,1.254 Q10.054,1.285 10.25,1.525 Q10.447,1.766 10.416,2.075 L9.936,6.874 L9.716,9.082 Q9.361,12.75 5.67,12.75 Z M5.67,11.25 Q7.999,11.25 8.223,8.938 L8.443,6.726 L8.841,2.75 L6.62,2.75 Q3.798,2.75 3.385,5.69 L3.106,8.426 Q2.989,9.6 3.738,10.425 Q4.487,11.25 5.67,11.25 Z"/>
  <path fill="#292D32" d="M9.75,19 Q9.75,20.332 9.058,21.454 Q8.718,22.027 8.269,22.425 Q8.197,22.507 8.111,22.576 Q6.793,23.75 5,23.75 Q2.8,23.75 1.395,22.071 Q1.392,22.068 1.389,22.065 Q1.348,22.022 1.315,21.98 Q1.088,21.712 0.934,21.441 Q0.25,20.325 0.25,19 Q0.25,16.708 2.034,15.292 Q2.333,15.046 2.68,14.862 Q3.762,14.25 5,14.25 Q6.755,14.25 8.073,15.388 Q8.271,15.54 8.485,15.775 Q9.75,17.156 9.75,19 Z M8.25,19 Q8.25,17.739 7.375,16.785 Q7.244,16.641 7.15,16.57 Q7.128,16.554 7.107,16.535 Q6.206,15.75 5,15.75 Q4.152,15.75 3.411,16.172 Q3.4,16.178 3.389,16.184 Q3.172,16.298 2.966,16.468 Q1.75,17.433 1.75,19 Q1.75,19.907 2.218,20.666 Q2.226,20.679 2.234,20.692 Q2.323,20.851 2.469,21.022 Q2.475,21.029 2.481,21.035 Q2.523,21.079 2.557,21.123 Q3.51,22.25 5,22.25 Q6.231,22.25 7.128,21.443 Q7.14,21.432 7.152,21.422 Q7.194,21.372 7.244,21.329 Q7.536,21.08 7.782,20.666 Q8.25,19.907 8.25,19 Z"/>
  <g opacity="0.4">
    <path fill="#292D32" d="M6.49,19.73 L3.51,19.73 Q3.199,19.73 2.979,19.51 Q2.76,19.291 2.76,18.98 Q2.76,18.669 2.979,18.45 Q3.199,18.23 3.51,18.23 L6.49,18.23 Q6.8,18.23 7.02,18.45 Q7.24,18.669 7.24,18.98 Q7.24,19.291 7.02,19.51 Q6.8,19.73 6.49,19.73 Z"/>
    <path fill="#292D32" d="M5.75,17.52 L5.75,20.51 Q5.75,20.821 5.53,21.04 Q5.311,21.26 5,21.26 Q4.689,21.26 4.47,21.04 Q4.25,20.821 4.25,20.51 L4.25,17.52 Q4.25,17.209 4.47,16.99 Q4.689,16.77 5,16.77 Q5.311,16.77 5.53,16.99 Q5.75,17.209 5.75,17.52 Z"/>
  </g>
</svg>

