<svg xmlns="http://www.w3.org/2000/svg" width="24" height="24" viewBox="0 0 24 24">
  <defs/>
  <path fill="#292D32" opacity="0.4" d="M16.491,22 L7.511,22 C4.001,22 3.241,19.99 3.531,17.53 L4.431,10.03 C4.661,8.09 5.001,6.5 8.401,6.5 L15.601,6.5 C19.001,6.5 19.341,8.09 19.571,10.03 L20.321,16.28 L20.471,17.53 C20.481,17.61 20.491,17.69 20.501,17.77 C20.711,20.12 19.891,22 16.491,22 Z"/>
  <path fill="#292D32" d="M16,8.75 C15.59,8.75 15.25,8.41 15.25,8 L15.25,4.5 C15.25,3.42 14.58,2.75 13.5,2.75 L10.5,2.75 C9.42,2.75 8.75,3.42 8.75,4.5 L8.75,8 C8.75,8.41 8.41,8.75 8,8.75 C7.59,8.75 7.25,8.41 7.25,8 L7.25,4.5 C7.25,2.59 8.59,1.25 10.5,1.25 L13.5,1.25 C15.41,1.25 16.75,2.59 16.75,4.5 L16.75,8 C16.75,8.41 16.41,8.75 16,8.75 Z"/>
  <path fill="#292D32" d="M20.5,17.77 C20.47,17.78 20.44,17.78 20.41,17.78 L8,17.78 C7.59,17.78 7.25,17.44 7.25,17.03 C7.25,16.61 7.59,16.28 8,16.28 L20.32,16.28 L20.47,17.53 C20.48,17.61 20.49,17.69 20.5,17.77 Z"/>
</svg>

