<svg xmlns="http://www.w3.org/2000/svg" width="24" height="24" viewBox="0 0 24 24">
  <defs/>
  <path fill="#292D32" d="M3.76,15.71 Q3.76,18.767 5.001,20.008 Q6.243,21.25 9.3,21.25 L14.69,21.25 Q20.23,21.25 20.23,15.71 L20.23,11.22 Q20.23,10.909 20.449,10.69 Q20.669,10.47 20.98,10.47 Q21.29,10.47 21.51,10.69 Q21.73,10.909 21.73,11.22 L21.73,15.71 Q21.73,22.75 14.69,22.75 L9.3,22.75 Q2.26,22.75 2.26,15.71 Q2.26,15.399 2.479,15.18 Q2.699,14.96 3.01,14.96 Q3.32,14.96 3.54,15.18 Q3.76,15.399 3.76,15.71 Z"/>
  <path fill="#292D32" d="M12,12.75 Q10.294,12.75 9.191,11.529 Q8.087,10.309 8.254,8.605 L8.924,1.925 Q8.953,1.638 9.167,1.444 Q9.382,1.25 9.67,1.25 L14.34,1.25 Q14.63,1.25 14.844,1.444 Q15.058,1.638 15.087,1.926 L15.747,8.607 Q15.914,10.309 14.81,11.529 Q13.707,12.75 12,12.75 Z M12,11.25 Q13.041,11.25 13.698,10.523 Q14.357,9.795 14.254,8.753 L13.661,2.75 L10.349,2.75 L9.747,8.755 Q9.644,9.795 10.303,10.523 Q10.96,11.25 12,11.25 Z"/>
  <path fill="#292D32" d="M18.311,12.75 Q14.632,12.75 14.255,9.085 L13.555,2.075 Q13.551,2.037 13.551,2 Q13.551,1.689 13.77,1.47 Q13.99,1.25 14.301,1.25 L17.351,1.25 Q21.486,1.25 22.074,5.497 Q22.076,5.511 22.077,5.524 L22.357,8.276 Q22.54,10.114 21.35,11.432 Q20.158,12.75 18.311,12.75 Z M18.311,11.25 Q19.492,11.25 20.237,10.426 Q20.982,9.602 20.864,8.424 L20.586,5.69 Q20.173,2.75 17.351,2.75 L15.129,2.75 L15.747,8.935 Q15.986,11.25 18.311,11.25 Z"/>
  <path fill="#292D32" d="M5.64,12.75 Q3.793,12.75 2.601,11.432 Q1.411,10.114 1.594,8.277 L1.864,5.527 Q1.865,5.512 1.867,5.497 Q2.456,1.25 6.59,1.25 L9.64,1.25 Q9.678,1.25 9.715,1.254 Q10.024,1.285 10.221,1.525 Q10.418,1.766 10.387,2.075 L9.907,6.874 L9.687,9.082 Q9.331,12.75 5.64,12.75 Z M5.64,11.25 Q7.97,11.25 8.194,8.938 L8.414,6.726 L8.812,2.75 L6.59,2.75 Q3.769,2.75 3.355,5.688 L3.087,8.423 Q2.97,9.602 3.714,10.426 Q4.459,11.25 5.64,11.25 Z"/>
  <path fill="#292D32" d="M12,16.25 Q15.25,16.25 15.25,19.5 L15.25,22 Q15.25,22.311 15.03,22.53 Q14.811,22.75 14.5,22.75 L9.5,22.75 Q9.189,22.75 8.97,22.53 Q8.75,22.311 8.75,22 L8.75,19.5 Q8.75,16.25 12,16.25 Z M12,17.75 Q11.058,17.75 10.654,18.154 Q10.25,18.558 10.25,19.5 L10.25,21.25 L13.75,21.25 L13.75,19.5 Q13.75,17.75 12,17.75 Z"/>
</svg>

