<svg xmlns="http://www.w3.org/2000/svg" width="24" height="24" viewBox="0 0 24 24">
  <defs/>
  <path fill="#292D32" d="M14.72,22.75 L9.331,22.75 C8.691,22.75 8.131,22.71 7.621,22.64 C7.211,22.58 6.921,22.2 6.981,21.79 C7.041,21.38 7.411,21.08 7.831,21.15 C8.271,21.21 8.761,21.24 9.321,21.24 L14.711,21.24 C18.801,21.24 20.25,19.79 20.25,15.7 L20.25,11.21 C20.25,10.8 20.59,10.46 21,10.46 C21.41,10.46 21.75,10.8 21.75,11.21 L21.75,15.7 C21.761,20.64 19.651,22.75 14.72,22.75 Z"/>
  <path fill="#292D32" d="M3.039,16.27 C2.629,16.27 2.289,15.93 2.289,15.52 L2.289,11.22 C2.289,10.81 2.629,10.47 3.039,10.47 C3.449,10.47 3.789,10.81 3.789,11.22 L3.789,15.52 C3.789,15.93 3.449,16.27 3.039,16.27 Z"/>
  <path fill="#292D32" d="M12.03,12.75 C10.93,12.75 9.93,12.32 9.22,11.53 C8.51,10.74 8.18,9.71 8.29,8.61 L8.96,1.93 C9,1.55 9.32,1.25 9.71,1.25 L14.38,1.25 C14.77,1.25 15.09,1.54 15.13,1.93 L15.8,8.61 C15.91,9.71 15.58,10.74 14.87,11.53 C14.13,12.32 13.13,12.75 12.03,12.75 Z M10.37,2.75 L9.77,8.76 C9.7,9.43 9.9,10.06 10.32,10.52 C11.17,11.46 12.87,11.46 13.72,10.52 C14.14,10.05 14.34,9.42 14.27,8.76 L13.67,2.75 L10.37,2.75 Z"/>
  <path fill="#292D32" d="M18.329,12.75 C16.299,12.75 14.489,11.11 14.28,9.09 L13.579,2.08 C13.559,1.87 13.63,1.66 13.77,1.5 C13.909,1.34 14.11,1.25 14.329,1.25 L17.38,1.25 C20.32,1.25 21.689,2.48 22.099,5.5 L22.38,8.28 C22.5,9.46 22.14,10.58 21.369,11.43 C20.599,12.28 19.52,12.75 18.329,12.75 Z M15.159,2.75 L15.78,8.94 C15.909,10.19 17.079,11.25 18.329,11.25 C19.09,11.25 19.77,10.96 20.259,10.43 C20.739,9.9 20.959,9.19 20.89,8.43 L20.61,5.68 C20.299,3.42 19.57,2.75 17.38,2.75 L15.159,2.75 Z"/>
  <path fill="#292D32" d="M5.67,12.75 C4.48,12.75 3.4,12.28 2.63,11.43 C1.86,10.58 1.5,9.46 1.62,8.28 L1.9,5.53 C2.32,2.48 3.69,1.25 6.63,1.25 L9.68,1.25 C9.89,1.25 10.09,1.34 10.24,1.5 C10.38,1.66 10.45,1.87 10.43,2.08 L9.73,9.09 C9.51,11.11 7.69,12.75 5.67,12.75 Z M6.62,2.75 C4.43,2.75 3.7,3.41 3.38,5.7 L3.11,8.42 C3.03,9.18 3.26,9.89 3.74,10.42 C4.22,10.95 4.91,11.24 5.67,11.24 C6.93,11.24 8.1,10.18 8.22,8.93 L8.84,2.74 L6.62,2.74 L6.62,2.75 Z"/>
  <path fill="#292D32" d="M5,23.75 C3.6,23.75 2.29,23.14 1.39,22.07 C1.38,22.06 1.34,22.02 1.31,21.97 C1.16,21.79 1.03,21.61 0.93,21.42 C0.49,20.71 0.25,19.87 0.25,18.99 C0.25,17.53 0.9,16.18 2.03,15.28 C2.23,15.12 2.45,14.97 2.69,14.84 C3.38,14.45 4.19,14.23 5,14.23 C6.16,14.23 7.23,14.63 8.09,15.38 C8.2,15.46 8.35,15.61 8.48,15.75 C9.29,16.64 9.74,17.78 9.74,18.97 C9.74,19.84 9.5,20.69 9.05,21.42 C8.83,21.8 8.56,22.13 8.26,22.39 C8.2,22.45 8.14,22.51 8.07,22.56 C7.28,23.33 6.17,23.75 5,23.75 Z M2.48,21.04 C2.51,21.07 2.56,21.12 2.6,21.19 C3.15,21.84 4.05,22.26 5,22.26 C5.79,22.26 6.55,21.97 7.13,21.45 C7.16,21.41 7.2,21.37 7.25,21.34 C7.45,21.17 7.62,20.95 7.78,20.69 C8.09,20.18 8.26,19.61 8.26,19.01 C8.26,18.2 7.95,17.41 7.39,16.8 C7.32,16.72 7.25,16.64 7.16,16.58 C6.08,15.65 4.6,15.51 3.42,16.18 C3.26,16.27 3.12,16.36 2.99,16.47 C2.21,17.09 1.76,18.01 1.76,19.01 C1.76,19.6 1.92,20.18 2.23,20.68 C2.31,20.82 2.39,20.93 2.48,21.03 C2.47,21.03 2.48,21.03 2.48,21.04 Z"/>
  <path fill="#292D32" d="M6.5,19.73 L3.51,19.73 C3.1,19.73 2.76,19.39 2.76,18.98 C2.76,18.57 3.1,18.23 3.51,18.23 L6.5,18.23 C6.91,18.23 7.25,18.57 7.25,18.98 C7.25,19.39 6.91,19.73 6.5,19.73 Z"/>
  <path fill="#292D32" d="M5,21.26 C4.59,21.26 4.25,20.92 4.25,20.51 L4.25,17.52 C4.25,17.11 4.59,16.77 5,16.77 C5.41,16.77 5.75,17.11 5.75,17.52 L5.75,20.51 C5.75,20.93 5.41,21.26 5,21.26 Z"/>
</svg>

