<svg xmlns="http://www.w3.org/2000/svg" width="24" height="24" viewBox="0 0 24 24">
  <defs/>
  <path fill="#292D32" d="M18.19,17.75 L7.54,17.75 C6.55,17.75 5.6,17.33 4.93,16.6 C4.26,15.87 3.92,14.89 4,13.9 L4.83,3.94 C4.86,3.63 4.75,3.33 4.54,3.1 C4.33,2.87 4.04,2.75 3.73,2.75 L2,2.75 C1.59,2.75 1.25,2.41 1.25,2 C1.25,1.59 1.59,1.25 2,1.25 L3.74,1.25 C4.47,1.25 5.16,1.56 5.65,2.09 C5.92,2.39 6.12,2.74 6.23,3.13 L18.72,3.13 C19.73,3.13 20.66,3.53 21.34,4.25 C22.01,4.98 22.35,5.93 22.27,6.94 L21.73,14.44 C21.62,16.27 20.02,17.75 18.19,17.75 Z M6.28,4.62 L5.5,14.02 C5.45,14.6 5.64,15.15 6.03,15.58 C6.42,16.01 6.96,16.24 7.54,16.24 L18.19,16.24 C19.23,16.24 20.17,15.36 20.25,14.32 L20.79,6.82 C20.83,6.23 20.64,5.67 20.25,5.26 C19.86,4.84 19.32,4.61 18.73,4.61 L6.28,4.61 L6.28,4.62 Z"/>
  <path fill="#292D32" d="M16.25,22.75 C15.15,22.75 14.25,21.85 14.25,20.75 C14.25,19.65 15.15,18.75 16.25,18.75 C17.35,18.75 18.25,19.65 18.25,20.75 C18.25,21.85 17.35,22.75 16.25,22.75 Z M16.25,20.25 C15.97,20.25 15.75,20.47 15.75,20.75 C15.75,21.03 15.97,21.25 16.25,21.25 C16.53,21.25 16.75,21.03 16.75,20.75 C16.75,20.47 16.53,20.25 16.25,20.25 Z"/>
  <path fill="#292D32" d="M8.25,22.75 C7.15,22.75 6.25,21.85 6.25,20.75 C6.25,19.65 7.15,18.75 8.25,18.75 C9.35,18.75 10.25,19.65 10.25,20.75 C10.25,21.85 9.35,22.75 8.25,22.75 Z M8.25,20.25 C7.97,20.25 7.75,20.47 7.75,20.75 C7.75,21.03 7.97,21.25 8.25,21.25 C8.53,21.25 8.75,21.03 8.75,20.75 C8.75,20.47 8.53,20.25 8.25,20.25 Z"/>
  <path fill="#292D32" d="M21,8.75 L9,8.75 C8.59,8.75 8.25,8.41 8.25,8 C8.25,7.59 8.59,7.25 9,7.25 L21,7.25 C21.41,7.25 21.75,7.59 21.75,8 C21.75,8.41 21.41,8.75 21,8.75 Z"/>
</svg>

