<svg xmlns="http://www.w3.org/2000/svg" width="24" height="24" viewBox="0 0 24 24">
  <defs/>
  <path fill="#292D32" d="M21.16,17.063 L21.205,17.439 Q21.491,19.786 20.51,21.13 Q19.328,22.75 16.491,22.75 L7.501,22.75 Q4.672,22.75 3.489,21.13 Q2.509,19.788 2.786,17.442 Q2.789,17.42 2.793,17.397 L2.883,16.897 Q2.931,16.629 3.14,16.455 Q3.349,16.28 3.621,16.28 L19.555,16.28 L18.816,10.119 Q18.476,7.25 15.591,7.25 L8.391,7.25 Q5.506,7.25 5.166,10.118 L4.846,12.789 L4.755,13.522 Q4.717,13.83 4.472,14.021 Q4.227,14.212 3.919,14.174 Q3.611,14.136 3.42,13.891 Q3.228,13.647 3.266,13.338 L3.356,12.611 L3.676,9.942 Q4.173,5.75 8.391,5.75 L15.591,5.75 Q19.809,5.75 20.305,9.941 L21.13,16.809 Q21.161,16.913 21.161,17.03 Q21.161,17.047 21.16,17.063 Z M19.734,17.78 L4.258,17.78 Q4.098,19.419 4.7,20.245 Q5.434,21.25 7.501,21.25 L16.491,21.25 Q18.565,21.25 19.299,20.245 Q19.902,19.419 19.734,17.78 Z"/>
  <path fill="#292D32" d="M7.25,8 L7.25,4.5 Q7.25,3.064 8.157,2.157 Q9.064,1.25 10.5,1.25 L13.5,1.25 Q16.75,1.25 16.75,4.5 L16.75,8 Q16.75,8.311 16.53,8.53 Q16.311,8.75 16,8.75 Q15.689,8.75 15.47,8.53 Q15.25,8.311 15.25,8 L15.25,4.5 Q15.25,3.686 14.782,3.218 Q14.314,2.75 13.5,2.75 L10.5,2.75 Q8.75,2.75 8.75,4.5 L8.75,8 Q8.75,8.311 8.53,8.53 Q8.311,8.75 8,8.75 Q7.689,8.75 7.47,8.53 Q7.25,8.311 7.25,8 Z"/>
</svg>

