<svg xmlns="http://www.w3.org/2000/svg" width="24" height="24" viewBox="0 0 24 24">
  <defs/>
  <path fill="#292D32" d="M14.7,22.75 L9.3,22.75 C4.36,22.75 2.26,20.64 2.26,15.71 L2.26,11.22 C2.26,10.81 2.6,10.47 3.01,10.47 C3.42,10.47 3.76,10.81 3.76,11.22 L3.76,15.71 C3.76,19.8 5.21,21.25 9.3,21.25 L14.69,21.25 C18.78,21.25 20.23,19.8 20.23,15.71 L20.23,11.22 C20.23,10.81 20.57,10.47 20.98,10.47 C21.39,10.47 21.73,10.81 21.73,11.22 L21.73,15.71 C21.74,20.64 19.63,22.75 14.7,22.75 Z"/>
  <path fill="#292D32" d="M11.999,12.75 C10.899,12.75 9.899,12.32 9.189,11.53 C8.479,10.74 8.149,9.71 8.259,8.61 L8.929,1.93 C8.969,1.55 9.289,1.25 9.679,1.25 L14.349,1.25 C14.739,1.25 15.059,1.54 15.099,1.93 L15.769,8.61 C15.879,9.71 15.549,10.74 14.839,11.53 C14.099,12.32 13.099,12.75 11.999,12.75 Z M10.349,2.75 L9.749,8.76 C9.679,9.43 9.879,10.06 10.299,10.52 C11.149,11.46 12.849,11.46 13.699,10.52 C14.119,10.05 14.319,9.42 14.249,8.76 L13.649,2.75 L10.349,2.75 Z"/>
  <path fill="#292D32" d="M18.31,12.75 C16.28,12.75 14.47,11.11 14.26,9.09 L13.56,2.08 C13.54,1.87 13.61,1.66 13.75,1.5 C13.89,1.34 14.09,1.25 14.31,1.25 L17.36,1.25 C20.3,1.25 21.67,2.48 22.08,5.5 L22.36,8.28 C22.48,9.46 22.12,10.58 21.35,11.43 C20.58,12.28 19.5,12.75 18.31,12.75 Z M15.14,2.75 L15.76,8.94 C15.89,10.19 17.05,11.25 18.31,11.25 C19.07,11.25 19.75,10.96 20.24,10.43 C20.72,9.9 20.94,9.19 20.87,8.43 L20.59,5.68 C20.28,3.42 19.55,2.75 17.36,2.75 L15.14,2.75 Z"/>
  <path fill="#292D32" d="M5.639,12.75 C4.449,12.75 3.369,12.28 2.599,11.43 C1.829,10.58 1.469,9.46 1.589,8.28 L1.859,5.53 C2.279,2.48 3.649,1.25 6.589,1.25 L9.639,1.25 C9.849,1.25 10.049,1.34 10.199,1.5 C10.349,1.66 10.409,1.87 10.389,2.08 L9.689,9.09 C9.479,11.11 7.669,12.75 5.639,12.75 Z M6.589,2.75 C4.399,2.75 3.669,3.41 3.349,5.7 L3.079,8.43 C2.999,9.19 3.229,9.9 3.709,10.43 C4.189,10.96 4.869,11.25 5.639,11.25 C6.899,11.25 8.069,10.19 8.189,8.94 L8.809,2.75 L6.589,2.75 Z"/>
  <path fill="#292D32" d="M14.5,22.75 L9.5,22.75 C9.09,22.75 8.75,22.41 8.75,22 L8.75,19.5 C8.75,17.4 9.9,16.25 12,16.25 C14.1,16.25 15.25,17.4 15.25,19.5 L15.25,22 C15.25,22.41 14.91,22.75 14.5,22.75 Z M10.25,21.25 L13.75,21.25 L13.75,19.5 C13.75,18.24 13.26,17.75 12,17.75 C10.74,17.75 10.25,18.24 10.25,19.5 L10.25,21.25 Z"/>
</svg>

