<svg xmlns="http://www.w3.org/2000/svg" width="24" height="24" viewBox="0 0 24 24">
  <defs/>
  <path fill="#292D32" d="M7.8,22.148 C5.15,22.148 2.99,19.998 2.99,17.338 L2.99,14.498 C2.99,13.828 3.65,13.378 4.28,13.598 C4.54,13.688 4.8,13.748 5.07,13.788 C5.19,13.808 5.31,13.828 5.43,13.828 C5.58,13.848 5.74,13.858 5.89,13.858 C7,13.858 8.1,13.448 8.97,12.738 C9.8,13.448 10.87,13.858 12.01,13.858 C13.15,13.858 14.21,13.468 15.04,12.748 C15.9,13.448 16.98,13.858 18.08,13.858 C18.25,13.858 18.43,13.848 18.59,13.828 C18.71,13.818 18.81,13.808 18.92,13.788 C19.22,13.748 19.49,13.668 19.76,13.578 C20.38,13.368 21.03,13.828 21.03,14.478 L21.03,17.338 C21.03,19.988 18.88,22.148 16.22,22.148 L7.8,22.148 Z"/>
  <path fill="#292D32" d="M21.98,8.592 L21.7,5.932 C21.3,3.032 19.98,1.852 17.17,1.852 L6.82,1.852 C4,1.852 2.69,3.032 2.28,5.962 L2.02,8.602 C1.92,9.632 2.2,10.632 2.81,11.412 C3.54,12.362 4.66,12.902 5.91,12.902 C7.12,12.902 8.28,12.292 9.02,11.322 C9.67,12.292 10.78,12.902 12.02,12.902 C13.26,12.902 14.35,12.322 15.01,11.362 C15.75,12.312 16.9,12.902 18.09,12.902 C19.37,12.902 20.52,12.332 21.24,11.332 C21.82,10.562 22.08,9.592 21.98,8.592 Z M13.5,7.732 L10.5,7.732 C10.09,7.732 9.75,7.402 9.75,6.982 C9.75,6.572 10.09,6.232 10.5,6.232 L13.5,6.232 C13.91,6.232 14.25,6.572 14.25,6.982 C14.25,7.402 13.91,7.732 13.5,7.732 Z"/>
</svg>

