<svg xmlns="http://www.w3.org/2000/svg" width="24" height="24" viewBox="0 0 24 24">
  <defs/>
  <path fill="#292D32" d="M8.4,5.75 L15.6,5.75 Q19.818,5.75 20.315,9.942 L21.215,17.441 Q21.491,19.788 20.512,21.13 Q19.329,22.75 16.5,22.75 L7.51,22.75 Q4.673,22.75 3.49,21.13 Q2.509,19.786 2.796,17.439 L3.695,9.941 Q4.171,5.75 8.4,5.75 Z M8.4,7.25 Q5.51,7.25 5.185,10.119 L4.284,17.621 Q4.07,19.379 4.702,20.245 Q5.435,21.25 7.51,21.25 L16.5,21.25 Q18.567,21.25 19.3,20.245 Q19.933,19.379 19.725,17.619 L18.825,10.118 Q18.485,7.25 15.6,7.25 Z"/>
  <path fill="#292D32" d="M7.25,8 L7.25,4.5 Q7.25,3.064 8.157,2.157 Q9.064,1.25 10.5,1.25 L13.5,1.25 Q16.75,1.25 16.75,4.5 L16.75,8 Q16.75,8.311 16.53,8.53 Q16.311,8.75 16,8.75 Q15.689,8.75 15.47,8.53 Q15.25,8.311 15.25,8 L15.25,4.5 Q15.25,3.686 14.782,3.218 Q14.314,2.75 13.5,2.75 L10.5,2.75 Q8.75,2.75 8.75,4.5 L8.75,8 Q8.75,8.311 8.53,8.53 Q8.311,8.75 8,8.75 Q7.689,8.75 7.47,8.53 Q7.25,8.311 7.25,8 Z"/>
  <path fill="#292D32" d="M20.41,17.78 L8,17.78 Q7.689,17.78 7.47,17.56 Q7.25,17.341 7.25,17.03 Q7.25,16.719 7.47,16.5 Q7.689,16.28 8,16.28 L20.41,16.28 Q20.721,16.28 20.94,16.5 Q21.16,16.719 21.16,17.03 Q21.16,17.341 20.94,17.56 Q20.721,17.78 20.41,17.78 Z"/>
</svg>

