<svg xmlns="http://www.w3.org/2000/svg" width="24" height="24" viewBox="0 0 24 24">
  <defs/>
  <path fill="#292D32" d="M16.452,5.25 L21.003,5.27 Q21.313,5.271 21.532,5.492 Q21.751,5.713 21.749,6.023 Q21.748,6.334 21.527,6.553 Q21.307,6.771 20.996,6.77 L16.446,6.75 Q16.135,6.749 15.917,6.528 Q15.698,6.307 15.699,5.997 Q15.701,5.686 15.921,5.467 Q16.142,5.249 16.452,5.25 Z"/>
  <path fill="#292D32" d="M3.003,17.23 L5.553,17.24 Q6.609,17.24 7.186,16.374 L8.366,14.604 L9.126,13.464 L13.046,7.584 Q13.218,7.325 13.523,7.265 Q13.828,7.204 14.086,7.376 Q14.345,7.548 14.405,7.853 Q14.466,8.158 14.294,8.416 L10.374,14.296 L9.614,15.436 L8.434,17.206 Q7.411,18.74 5.547,18.74 L2.997,18.73 Q2.686,18.729 2.468,18.508 Q2.249,18.288 2.25,17.977 Q2.251,17.666 2.472,17.448 Q2.692,17.229 3.003,17.23 Z"/>
  <path fill="#292D32" d="M18.47,19.45 L20.47,17.45 Q20.689,17.23 21,17.23 Q21.311,17.23 21.53,17.45 Q21.75,17.669 21.75,17.98 Q21.75,18.291 21.53,18.51 L19.53,20.51 Q19.311,20.73 19,20.73 Q18.689,20.73 18.47,20.51 Q18.25,20.291 18.25,19.98 Q18.25,19.669 18.47,19.45 Z"/>
  <path fill="#292D32" d="M8.281,9.058 L7.201,7.558 Q6.613,6.738 5.619,6.75 L3.003,6.76 Q2.692,6.761 2.472,6.542 Q2.251,6.323 2.25,6.013 Q2.249,5.702 2.468,5.482 Q2.686,5.261 2.997,5.26 L5.601,5.25 Q7.376,5.23 8.419,6.682 L9.499,8.182 Q9.68,8.434 9.63,8.74 Q9.58,9.047 9.328,9.229 Q9.076,9.41 8.77,9.36 Q8.463,9.31 8.281,9.058 Z"/>
  <path fill="#292D32" d="M13.563,14.92 L14.783,16.49 Q15.37,17.25 16.341,17.25 L21.007,17.23 Q21.318,17.229 21.539,17.447 Q21.759,17.666 21.761,17.977 Q21.762,18.287 21.543,18.508 Q21.325,18.729 21.014,18.73 L16.341,18.75 Q14.634,18.75 13.598,17.41 L12.378,15.84 Q12.188,15.595 12.227,15.287 Q12.265,14.978 12.511,14.788 Q12.756,14.597 13.064,14.636 Q13.372,14.674 13.563,14.92 Z"/>
  <path fill="#292D32" d="M20.47,6.55 L18.47,4.55 Q18.25,4.331 18.25,4.02 Q18.25,3.709 18.47,3.49 Q18.689,3.27 19,3.27 Q19.311,3.27 19.53,3.49 L21.53,5.49 Q21.75,5.709 21.75,6.02 Q21.75,6.331 21.53,6.55 Q21.311,6.77 21,6.77 Q20.689,6.77 20.47,6.55 Z"/>
</svg>

