<svg xmlns="http://www.w3.org/2000/svg" width="24" height="24" viewBox="0 0 24 24">
  <defs/>
  <path fill="#292D32" opacity="0.4" d="M21.751,17.98 C21.751,17.96 21.741,17.94 21.741,17.92 C21.731,17.84 21.721,17.76 21.691,17.69 C21.651,17.6 21.601,17.53 21.541,17.46 C21.541,17.46 21.541,17.45 21.531,17.45 C21.461,17.38 21.381,17.33 21.291,17.29 C21.201,17.25 21.101,17.23 21.001,17.23 L16.331,17.25 C16.331,17.25 16.331,17.25 16.321,17.25 C15.721,17.25 15.141,16.97 14.781,16.49 L13.561,14.92 C13.311,14.59 12.841,14.53 12.511,14.79 C12.181,15.05 12.121,15.51 12.381,15.84 L13.601,17.41 C14.251,18.25 15.271,18.75 16.331,18.75 L16.341,18.75 L19.191,18.74 L18.481,19.45 C18.191,19.74 18.191,20.22 18.481,20.51 C18.631,20.66 18.821,20.73 19.011,20.73 C19.201,20.73 19.391,20.66 19.541,20.51 L21.541,18.51 C21.611,18.44 21.661,18.36 21.701,18.27 C21.731,18.17 21.751,18.07 21.751,17.98 Z"/>
  <path fill="#292D32" opacity="0.4" d="M8.42,6.69 C7.77,5.79 6.73,5.26 5.62,5.26 C5.61,5.26 5.61,5.26 5.6,5.26 L2.99,5.27 C2.58,5.27 2.24,5.61 2.24,6.02 C2.24,6.43 2.58,6.77 2.99,6.77 L5.6,6.76 L5.61,6.76 C6.24,6.76 6.83,7.06 7.19,7.57 L8.27,9.07 C8.42,9.27 8.65,9.38 8.88,9.38 C9.03,9.38 9.19,9.33 9.32,9.24 C9.66,9 9.73,8.53 9.49,8.19 L8.42,6.69 Z"/>
  <path fill="#292D32" d="M21.74,6.08 C21.74,6.06 21.75,6.04 21.75,6.03 C21.75,5.93 21.73,5.83 21.69,5.74 C21.65,5.65 21.6,5.57 21.53,5.5 L19.53,3.5 C19.24,3.21 18.76,3.21 18.47,3.5 C18.18,3.79 18.18,4.27 18.47,4.56 L19.18,5.27 L16.45,5.26 C16.44,5.26 16.44,5.26 16.43,5.26 C15.28,5.26 14.2,5.83 13.56,6.8 L7.17,16.38 C6.81,16.92 6.2,17.25 5.55,17.25 L5.54,17.25 L2.99,17.24 C2.58,17.24 2.24,17.57 2.24,17.99 C2.24,18.4 2.57,18.74 2.99,18.74 L5.54,18.75 C5.55,18.75 5.55,18.75 5.56,18.75 C6.72,18.75 7.79,18.18 8.43,17.21 L14.82,7.63 C15.18,7.09 15.79,6.76 16.44,6.76 L16.45,6.76 L21,6.78 C21.1,6.78 21.19,6.76 21.29,6.72 C21.38,6.68 21.46,6.63 21.53,6.56 C21.53,6.56 21.53,6.55 21.54,6.55 C21.6,6.48 21.66,6.41 21.69,6.32 C21.72,6.24 21.73,6.16 21.74,6.08 Z"/>
</svg>

