<svg xmlns="http://www.w3.org/2000/svg" width="24" height="24" viewBox="0 0 24 24">
  <defs/>
  <path fill="#292D32" d="M5.56,18.74 C5.56,18.74 5.55,18.74 5.54,18.74 L2.99,18.73 C2.58,18.73 2.24,18.39 2.24,17.98 C2.24,17.57 2.58,17.23 2.99,17.23 L5.54,17.24 L5.55,17.24 C6.2,17.24 6.81,16.92 7.17,16.37 L13.56,6.79 C14.2,5.83 15.27,5.25 16.43,5.25 C16.43,5.25 16.44,5.25 16.45,5.25 L21,5.27 C21.41,5.27 21.75,5.61 21.75,6.02 C21.75,6.43 21.41,6.77 21,6.77 L16.45,6.75 L16.44,6.75 C15.79,6.75 15.18,7.07 14.82,7.62 L8.43,17.2 C7.79,18.17 6.72,18.74 5.56,18.74 Z"/>
  <path fill="#292D32" d="M19,20.73 C18.809,20.73 18.619,20.66 18.47,20.51 C18.18,20.22 18.18,19.74 18.47,19.45 L20.47,17.45 C20.759,17.16 21.239,17.16 21.529,17.45 C21.82,17.74 21.82,18.22 21.529,18.51 L19.529,20.51 C19.38,20.66 19.189,20.73 19,20.73 Z"/>
  <path fill="#292D32" d="M8.89,9.38 C8.66,9.38 8.43,9.27 8.28,9.07 L7.2,7.57 C6.83,7.06 6.22,6.76 5.61,6.76 L3,6.77 C2.54,6.76 2.25,6.44 2.25,6.02 C2.25,5.61 2.58,5.27 3,5.27 L5.61,5.26 C5.62,5.26 5.62,5.26 5.63,5.26 C6.74,5.26 7.78,5.8 8.43,6.69 L9.51,8.19 C9.75,8.53 9.68,8.99 9.34,9.24 C9.2,9.33 9.05,9.38 8.89,9.38 Z"/>
  <path fill="#292D32" d="M16.32,18.75 C15.259,18.75 14.239,18.25 13.589,17.41 L12.37,15.84 C12.12,15.51 12.18,15.04 12.499,14.79 C12.829,14.54 13.3,14.6 13.55,14.92 L14.77,16.49 C15.139,16.97 15.729,17.21 16.32,17.25 L20.989,17.23 C21.399,17.23 21.739,17.56 21.739,17.98 C21.739,18.39 21.41,18.73 20.989,18.73 L16.32,18.75 C16.329,18.75 16.32,18.75 16.32,18.75 Z"/>
  <path fill="#292D32" d="M21,6.77 C20.809,6.77 20.619,6.7 20.47,6.55 L18.47,4.55 C18.18,4.26 18.18,3.78 18.47,3.49 C18.759,3.2 19.239,3.2 19.529,3.49 L21.529,5.49 C21.82,5.78 21.82,6.26 21.529,6.55 C21.38,6.7 21.189,6.77 21,6.77 Z"/>
</svg>

