<svg xmlns="http://www.w3.org/2000/svg" width="24" height="24" viewBox="0 0 24 24">
  <defs/>
  <path fill="#292D32" d="M3.003,17.23 L5.553,17.24 Q6.609,17.24 7.186,16.374 L13.576,6.794 Q14.612,5.24 16.468,5.26 L21.013,5.28 Q21.324,5.281 21.543,5.502 Q21.761,5.723 21.76,6.033 Q21.759,6.344 21.538,6.563 Q21.317,6.781 21.007,6.78 L16.452,6.76 Q15.409,6.748 14.824,7.626 L8.434,17.206 Q7.411,18.74 5.547,18.74 L2.997,18.73 Q2.686,18.729 2.468,18.508 Q2.249,18.288 2.25,17.977 Q2.251,17.666 2.472,17.447 Q2.692,17.229 3.003,17.23 Z"/>
  <path fill="#292D32" opacity="0.4" d="M8.281,9.058 L7.201,7.558 Q6.613,6.739 5.619,6.75 L3.003,6.76 Q2.692,6.761 2.472,6.543 Q2.251,6.324 2.25,6.013 Q2.249,5.702 2.468,5.482 Q2.686,5.261 2.997,5.26 L5.601,5.25 Q7.376,5.23 8.419,6.682 L9.499,8.182 Q9.68,8.434 9.63,8.741 Q9.58,9.047 9.328,9.229 Q9.076,9.41 8.77,9.36 Q8.463,9.311 8.281,9.058 Z"/>
  <g opacity="0.4">
    <path fill="#292D32" d="M18.47,19.45 L20.47,17.45 Q20.689,17.23 21,17.23 Q21.311,17.23 21.53,17.45 Q21.75,17.67 21.75,17.98 Q21.75,18.291 21.53,18.511 L19.53,20.511 Q19.311,20.73 19,20.73 Q18.689,20.73 18.47,20.511 Q18.25,20.291 18.25,19.98 Q18.25,19.67 18.47,19.45 Z"/>
    <path fill="#292D32" d="M13.563,14.92 L14.783,16.49 Q15.37,17.25 16.341,17.25 L21.007,17.23 Q21.318,17.229 21.539,17.447 Q21.759,17.666 21.761,17.977 Q21.762,18.287 21.543,18.508 Q21.325,18.729 21.014,18.73 L16.341,18.75 Q14.634,18.75 13.598,17.41 L12.378,15.84 Q12.188,15.595 12.227,15.287 Q12.265,14.978 12.511,14.788 Q12.756,14.597 13.064,14.636 Q13.372,14.674 13.563,14.92 Z"/>
  </g>
  <path fill="#292D32" d="M20.47,6.55 L18.47,4.55 Q18.25,4.331 18.25,4.02 Q18.25,3.709 18.47,3.49 Q18.689,3.27 19,3.27 Q19.311,3.27 19.53,3.49 L21.53,5.49 Q21.75,5.709 21.75,6.02 Q21.75,6.331 21.53,6.55 Q21.311,6.77 21,6.77 Q20.689,6.77 20.47,6.55 Z"/>
</svg>

