<svg xmlns="http://www.w3.org/2000/svg" width="24" height="24" viewBox="0 0 24 24">
  <defs/>
  <path fill="#292D32" d="M21.751,17.981 C21.751,17.961 21.741,17.941 21.741,17.921 C21.731,17.841 21.721,17.761 21.691,17.691 C21.651,17.601 21.601,17.531 21.541,17.461 C21.541,17.461 21.541,17.451 21.531,17.451 C21.461,17.381 21.381,17.331 21.291,17.291 C21.201,17.251 21.101,17.231 21.001,17.231 L16.331,17.251 C16.331,17.251 16.331,17.251 16.321,17.251 C15.721,17.251 15.141,16.971 14.781,16.491 L13.561,14.921 C13.311,14.591 12.841,14.531 12.511,14.791 C12.181,15.051 12.121,15.511 12.381,15.841 L13.601,17.411 C14.251,18.251 15.271,18.751 16.331,18.751 L16.341,18.751 L19.191,18.741 L18.481,19.451 C18.191,19.741 18.191,20.221 18.481,20.511 C18.631,20.661 18.821,20.731 19.011,20.731 C19.201,20.731 19.391,20.661 19.541,20.511 L21.541,18.511 C21.611,18.441 21.661,18.361 21.701,18.271 C21.731,18.171 21.751,18.071 21.751,17.981 Z"/>
  <path fill="#292D32" d="M8.42,6.692 C7.77,5.792 6.73,5.262 5.62,5.262 C5.61,5.262 5.61,5.262 5.6,5.262 L3,5.272 C2.59,5.272 2.25,5.612 2.25,6.022 C2.25,6.432 2.59,6.772 3,6.772 L5.61,6.762 L5.62,6.762 C6.25,6.762 6.84,7.062 7.2,7.572 L8.28,9.072 C8.43,9.272 8.66,9.382 8.89,9.382 C9.04,9.382 9.2,9.332 9.33,9.242 C9.67,8.992 9.74,8.522 9.5,8.192 L8.42,6.692 Z"/>
  <path fill="#292D32" d="M21.74,6.079 C21.74,6.059 21.75,6.039 21.75,6.029 C21.75,5.929 21.73,5.829 21.69,5.739 C21.65,5.649 21.6,5.569 21.53,5.499 L19.53,3.499 C19.24,3.209 18.76,3.209 18.47,3.499 C18.18,3.789 18.18,4.269 18.47,4.559 L19.18,5.269 L16.45,5.259 C16.44,5.259 16.44,5.259 16.43,5.259 C15.28,5.259 14.2,5.829 13.56,6.799 L7.17,16.379 C6.81,16.919 6.2,17.249 5.55,17.249 L5.54,17.249 L3,17.229 C2.59,17.229 2.25,17.559 2.25,17.979 C2.25,18.389 2.58,18.729 3,18.729 L5.55,18.739 C5.56,18.739 5.56,18.739 5.57,18.739 C6.73,18.739 7.8,18.169 8.44,17.199 L14.83,7.619 C15.19,7.079 15.8,6.749 16.45,6.749 L16.46,6.749 L21,6.769 C21.1,6.769 21.19,6.749 21.29,6.709 C21.38,6.669 21.46,6.619 21.53,6.549 C21.53,6.549 21.53,6.539 21.54,6.539 C21.6,6.469 21.66,6.399 21.69,6.309 C21.72,6.239 21.73,6.159 21.74,6.079 Z"/>
</svg>

