<svg xmlns="http://www.w3.org/2000/svg" width="24" height="24" viewBox="0 0 24 24">
  <defs/>
  <path d="M12,22.75 C6.07,22.75 1.25,17.93 1.25,12 C1.25,10.51 1.55,9.08 2.14,7.72 C2.31,7.34 2.75,7.17 3.13,7.33 C3.51,7.5 3.68,7.94 3.52,8.32 C3.02,9.48 2.76,10.72 2.76,12 C2.76,17.1 6.91,21.25 12.01,21.25 C17.11,21.25 21.26,17.1 21.26,12 C21.26,6.9 17.11,2.75 12.01,2.75 C10.72,2.75 9.46,3.01 8.29,3.53 C7.92,3.7 7.47,3.53 7.3,3.15 C7.13,2.77 7.3,2.33 7.68,2.16 C9.05,1.56 10.5,1.25 12.01,1.25 C17.94,1.25 22.76,6.07 22.76,12 C22.76,17.93 17.93,22.75 12,22.75 Z"/>
  <path d="M16,17 L11.75,17 C8.99,17 6.75,14.76 6.75,12 C6.75,9.24 8.99,7 11.75,7 C14.51,7 16.75,9.24 16.75,12 L16.75,16.25 C16.75,16.66 16.41,17 16,17 Z M11.75,8.5 C9.82,8.5 8.25,10.07 8.25,12 C8.25,13.93 9.82,15.5 11.75,15.5 L15.25,15.5 L15.25,12 C15.25,10.07 13.68,8.5 11.75,8.5 Z"/>
  <path d="M5,7.25 C3.76,7.25 2.75,6.24 2.75,5 C2.75,3.76 3.76,2.75 5,2.75 C6.24,2.75 7.25,3.76 7.25,5 C7.25,6.24 6.24,7.25 5,7.25 Z M5,4.25 C4.59,4.25 4.25,4.59 4.25,5 C4.25,5.41 4.59,5.75 5,5.75 C5.41,5.75 5.75,5.41 5.75,5 C5.75,4.59 5.41,4.25 5,4.25 Z"/>
</svg>

