<svg xmlns="http://www.w3.org/2000/svg" width="24" height="24" viewBox="0 0 24 24">
  <defs/>
  <path d="M12,22.75 C6.07,22.75 1.25,17.93 1.25,12 C1.25,10.51 1.55,9.08 2.14,7.72 C2.31,7.34 2.75,7.17 3.13,7.33 C3.51,7.5 3.68,7.94 3.52,8.32 C3.02,9.48 2.76,10.72 2.76,12 C2.76,17.1 6.91,21.25 12.01,21.25 C17.11,21.25 21.26,17.1 21.26,12 C21.26,6.9 17.11,2.75 12.01,2.75 C10.72,2.75 9.46,3.01 8.29,3.53 C7.92,3.7 7.47,3.53 7.3,3.15 C7.13,2.77 7.3,2.33 7.68,2.16 C9.05,1.56 10.5,1.25 12.01,1.25 C17.94,1.25 22.76,6.07 22.76,12 C22.76,17.93 17.93,22.75 12,22.75 Z"/>
  <path d="M16,15.25 L16,12 C16,9.65 14.1,7.75 11.75,7.75 C9.4,7.75 7.5,9.65 7.5,12 C7.5,14.35 9.4,16.25 11.75,16.25 L15,16.25 C15.55,16.25 16,15.8 16,15.25 Z"/>
  <path d="M4.999,6.881 C6.037,6.881 6.879,6.039 6.879,5.001 C6.879,3.963 6.037,3.121 4.999,3.121 C3.961,3.121 3.119,3.963 3.119,5.001 C3.119,6.039 3.961,6.881 4.999,6.881 Z"/>
</svg>

