<svg xmlns="http://www.w3.org/2000/svg" width="24" height="24" viewBox="0 0 24 24">
  <defs/>
  <path fill="#292D32" d="M22.72,15 Q22.72,19.061 20.875,20.905 Q19.031,22.75 14.97,22.75 L8.97,22.75 Q1.22,22.75 1.22,15 L1.22,9 Q1.22,1.25 8.97,1.25 L14.97,1.25 Q19.031,1.25 20.875,3.095 Q22.72,4.939 22.72,9 Z M21.22,15 L21.22,9 Q21.22,5.561 19.815,4.155 Q18.409,2.75 14.97,2.75 L8.97,2.75 Q2.72,2.75 2.72,9 L2.72,15 Q2.72,18.439 4.125,19.845 Q5.531,21.25 8.97,21.25 L14.97,21.25 Q18.409,21.25 19.815,19.845 Q21.22,18.439 21.22,15 Z"/>
  <path fill="#292D32" d="M15.72,2 L15.72,22 Q15.72,22.311 15.5,22.53 Q15.281,22.75 14.97,22.75 Q14.659,22.75 14.44,22.53 Q14.22,22.311 14.22,22 L14.22,2 Q14.22,1.689 14.44,1.47 Q14.659,1.25 14.97,1.25 Q15.281,1.25 15.5,1.47 Q15.72,1.689 15.72,2 Z"/>
  <path fill="#292D32" d="M8.5,8.91 L11.06,11.47 Q11.28,11.689 11.28,12 Q11.28,12.311 11.06,12.53 L8.5,15.09 Q8.281,15.31 7.97,15.31 Q7.659,15.31 7.44,15.09 Q7.22,14.871 7.22,14.56 Q7.22,14.249 7.44,14.03 L9.469,12 L7.44,9.97 Q7.22,9.751 7.22,9.44 Q7.22,9.129 7.44,8.91 Q7.659,8.69 7.97,8.69 Q8.281,8.69 8.5,8.91 Z"/>
</svg>

