<svg xmlns="http://www.w3.org/2000/svg" width="24" height="24" viewBox="0 0 24 24">
  <defs/>
  <path fill="#292D32" d="M14.971,22.75 L8.971,22.75 C3.541,22.75 1.221,20.43 1.221,15 L1.221,9 C1.221,3.57 3.541,1.25 8.971,1.25 L14.971,1.25 C20.401,1.25 22.721,3.57 22.721,9 L22.721,15 C22.721,20.43 20.411,22.75 14.971,22.75 Z M8.971,2.75 C4.361,2.75 2.721,4.39 2.721,9 L2.721,15 C2.721,19.61 4.361,21.25 8.971,21.25 L14.971,21.25 C19.581,21.25 21.221,19.61 21.221,15 L21.221,9 C21.221,4.39 19.581,2.75 14.971,2.75 L8.971,2.75 Z"/>
  <path fill="#292D32" d="M7.971,22.75 C7.561,22.75 7.221,22.41 7.221,22 L7.221,2 C7.221,1.59 7.561,1.25 7.971,1.25 C8.381,1.25 8.721,1.59 8.721,2 L8.721,22 C8.721,22.41 8.391,22.75 7.971,22.75 Z"/>
  <path fill="#292D32" d="M14.97,15.31 C14.78,15.31 14.59,15.24 14.44,15.09 L11.88,12.53 C11.59,12.24 11.59,11.76 11.88,11.47 L14.44,8.91 C14.73,8.62 15.21,8.62 15.5,8.91 C15.79,9.2 15.79,9.68 15.5,9.97 L13.48,12 L15.51,14.03 C15.8,14.32 15.8,14.8 15.51,15.09 C15.36,15.24 15.17,15.31 14.97,15.31 Z"/>
</svg>

