<svg xmlns="http://www.w3.org/2000/svg" width="24" height="24" viewBox="0 0 24 24">
  <defs/>
  <path fill="#292D32" d="M7.81,2 C6.32,2 5.08,2.36 4.13,3.05 C3.71,3.34 3.34,3.71 3.05,4.13 C2.36,5.08 2,6.32 2,7.81 L2,16.19 C2,19.83 4.17,22 7.81,22 L15.28,22 L15.28,2 L7.81,2 Z M12.12,12.53 L9.56,15.09 C9.41,15.24 9.22,15.31 9.03,15.31 C8.84,15.31 8.65,15.24 8.5,15.09 C8.21,14.8 8.21,14.32 8.5,14.03 L10.52,12 L8.5,9.97 C8.2,9.68 8.2,9.2 8.5,8.91 C8.8,8.62 9.27,8.62 9.56,8.91 L12.12,11.47 C12.41,11.76 12.41,12.24 12.12,12.53 Z"/>
  <path fill="#292D32" d="M16.779,2.031 L16.779,21.981 C18.009,21.901 19.049,21.551 19.869,20.951 C20.289,20.661 20.659,20.291 20.949,19.871 C21.639,18.921 21.999,17.681 21.999,16.191 L21.999,7.811 C21.999,4.371 20.059,2.241 16.779,2.031 Z"/>
</svg>

