<svg xmlns="http://www.w3.org/2000/svg" width="24" height="24" viewBox="0 0 24 24">
  <defs/>
  <path fill="#292D32" d="M20.949,4.13 C20.659,3.71 20.289,3.34 19.869,3.05 C18.919,2.36 17.679,2 16.189,2 L7.809,2 C4.369,2 2.239,3.94 2.029,7.22 L21.979,7.22 C21.899,5.99 21.549,4.95 20.949,4.13 Z"/>
  <path fill="#292D32" d="M2,16.189 C2,17.679 2.36,18.919 3.05,19.869 C3.34,20.289 3.71,20.659 4.13,20.949 C5.08,21.639 6.32,21.999 7.81,21.999 L16.19,21.999 C19.83,21.999 22,19.829 22,16.189 L22,8.719 L2,8.719 L2,16.189 Z M8.91,14.439 L11.47,11.879 C11.76,11.589 12.24,11.589 12.53,11.879 L15.09,14.439 C15.24,14.589 15.31,14.779 15.31,14.969 C15.31,15.159 15.24,15.349 15.09,15.499 C14.8,15.789 14.32,15.789 14.03,15.499 L12,13.479 L9.97,15.499 C9.68,15.789 9.2,15.789 8.91,15.499 C8.62,15.209 8.62,14.739 8.91,14.439 Z"/>
</svg>

