<svg xmlns="http://www.w3.org/2000/svg" width="24" height="24" viewBox="0 0 24 24">
  <defs/>
  <path fill="#292D32" d="M2,7.811 L2,16.191 C2,17.681 2.36,18.921 3.05,19.871 C3.34,20.291 3.71,20.661 4.13,20.951 C4.95,21.551 5.99,21.901 7.22,21.981 L7.22,2.031 C3.94,2.241 2,4.371 2,7.811 Z"/>
  <path fill="#292D32" d="M20.951,4.13 C20.661,3.71 20.291,3.34 19.871,3.05 C18.921,2.36 17.681,2 16.191,2 L8.721,2 L8.721,22 L16.191,22 C19.831,22 22.001,19.83 22.001,16.19 L22.001,7.81 C22.001,6.32 21.641,5.08 20.951,4.13 Z M15.501,14.03 C15.791,14.32 15.791,14.8 15.501,15.09 C15.351,15.24 15.161,15.31 14.971,15.31 C14.781,15.31 14.591,15.24 14.441,15.09 L11.881,12.53 C11.591,12.24 11.591,11.76 11.881,11.47 L14.441,8.91 C14.731,8.62 15.211,8.62 15.501,8.91 C15.791,9.2 15.791,9.68 15.501,9.97 L13.481,12 L15.501,14.03 Z"/>
</svg>

