<svg xmlns="http://www.w3.org/2000/svg" width="24" height="24" viewBox="0 0 24 24">
  <defs/>
  <path fill="#292D32" d="M22.72,15 Q22.72,19.061 20.875,20.905 Q19.031,22.75 14.97,22.75 L8.97,22.75 Q1.22,22.75 1.22,15 L1.22,9 Q1.22,1.25 8.97,1.25 L14.97,1.25 Q19.031,1.25 20.875,3.095 Q22.72,4.939 22.72,9 Z M21.22,15 L21.22,9 Q21.22,5.561 19.815,4.155 Q18.409,2.75 14.97,2.75 L8.97,2.75 Q2.72,2.75 2.72,9 L2.72,15 Q2.72,18.439 4.125,19.845 Q5.531,21.25 8.97,21.25 L14.97,21.25 Q18.409,21.25 19.815,19.845 Q21.22,18.439 21.22,15 Z"/>
  <path fill="#292D32" d="M8.72,2 L8.72,22 Q8.72,22.311 8.5,22.53 Q8.281,22.75 7.97,22.75 Q7.659,22.75 7.44,22.53 Q7.22,22.311 7.22,22 L7.22,2 Q7.22,1.689 7.44,1.47 Q7.659,1.25 7.97,1.25 Q8.281,1.25 8.5,1.47 Q8.72,1.689 8.72,2 Z"/>
  <path fill="#292D32" d="M15.5,9.97 L13.471,12 L15.5,14.03 Q15.72,14.249 15.72,14.56 Q15.72,14.871 15.5,15.09 Q15.281,15.31 14.97,15.31 Q14.659,15.31 14.44,15.09 L11.88,12.53 Q11.66,12.311 11.66,12 Q11.66,11.689 11.88,11.47 L14.44,8.91 Q14.659,8.69 14.97,8.69 Q15.281,8.69 15.5,8.91 Q15.72,9.129 15.72,9.44 Q15.72,9.751 15.5,9.97 Z"/>
</svg>

