<svg xmlns="http://www.w3.org/2000/svg" width="24" height="24" viewBox="0 0 24 24">
  <defs/>
  <path fill="#292D32" opacity="0.4" d="M22,7.81 L22,16.19 C22,19.83 19.83,22 16.19,22 L7.81,22 C7.61,22 7.41,21.99 7.22,21.98 C5.99,21.9 4.95,21.55 4.13,20.95 C3.71,20.66 3.34,20.29 3.05,19.87 C2.36,18.92 2,17.68 2,16.19 L2,7.81 C2,4.37 3.94,2.24 7.22,2.03 C7.41,2.01 7.61,2 7.81,2 L16.19,2 C17.68,2 18.92,2.36 19.87,3.05 C20.29,3.34 20.66,3.71 20.95,4.13 C21.64,5.08 22,6.32 22,7.81 Z"/>
  <path fill="#292D32" d="M8.721,2 L8.721,22 L7.811,22 C7.611,22 7.411,21.99 7.221,21.98 L7.221,2.03 C7.411,2.01 7.611,2 7.811,2 L8.721,2 Z"/>
  <path fill="#292D32" d="M14.97,15.31 C14.78,15.31 14.59,15.24 14.44,15.09 L11.88,12.53 C11.59,12.24 11.59,11.76 11.88,11.47 L14.44,8.91 C14.73,8.62 15.21,8.62 15.5,8.91 C15.79,9.2 15.79,9.68 15.5,9.97 L13.48,12 L15.51,14.03 C15.8,14.32 15.8,14.8 15.51,15.09 C15.36,15.24 15.17,15.31 14.97,15.31 Z"/>
</svg>

