<svg xmlns="http://www.w3.org/2000/svg" width="24" height="24" viewBox="0 0 24 24">
  <defs/>
  <path fill="#292D32" opacity="0.4" d="M7.81,22 L16.19,22 C19.83,22 22,19.83 22,16.19 L22,7.81 C22,7.61 21.99,7.41 21.98,7.22 C21.9,5.99 21.55,4.95 20.95,4.13 C20.66,3.71 20.29,3.34 19.87,3.05 C18.92,2.36 17.68,2 16.19,2 L7.81,2 C4.37,2 2.24,3.94 2.03,7.22 C2.01,7.41 2,7.61 2,7.81 L2,16.19 C2,17.68 2.36,18.92 3.05,19.87 C3.34,20.29 3.71,20.66 4.13,20.95 C5.08,21.64 6.32,22 7.81,22 Z"/>
  <path fill="#292D32" d="M2,8.72 L22,8.72 L22,7.81 C22,7.61 21.99,7.41 21.98,7.22 L2.03,7.22 C2.01,7.41 2,7.61 2,7.81 L2,8.72 Z"/>
  <path fill="#292D32" d="M15.311,14.97 C15.311,14.78 15.241,14.59 15.091,14.44 L12.531,11.88 C12.241,11.59 11.761,11.59 11.471,11.88 L8.911,14.44 C8.621,14.73 8.621,15.21 8.911,15.5 C9.201,15.79 9.681,15.79 9.971,15.5 L12.001,13.48 L14.031,15.51 C14.321,15.8 14.801,15.8 15.091,15.51 C15.241,15.36 15.311,15.17 15.311,14.97 Z"/>
</svg>

