<svg xmlns="http://www.w3.org/2000/svg" width="24" height="24" viewBox="0 0 24 24">
  <defs/>
  <path fill="#292D32" d="M2.721,12.98 L2.721,15 Q2.721,18.439 4.126,19.845 Q5.531,21.25 8.971,21.25 L14.971,21.25 Q21.221,21.25 21.221,15 L21.221,9 Q21.221,5.561 19.815,4.155 Q18.41,2.75 14.971,2.75 L8.971,2.75 Q2.721,2.75 2.721,9 Q2.721,9.311 2.501,9.53 Q2.281,9.75 1.971,9.75 Q1.66,9.75 1.44,9.53 Q1.221,9.311 1.221,9 Q1.221,1.25 8.971,1.25 L14.971,1.25 Q22.721,1.25 22.721,9 L22.721,15 Q22.721,19.061 20.876,20.905 Q19.031,22.75 14.971,22.75 L8.971,22.75 Q1.221,22.75 1.221,15 L1.221,12.98 Q1.221,12.669 1.44,12.45 Q1.66,12.23 1.971,12.23 Q2.281,12.23 2.501,12.45 Q2.721,12.669 2.721,12.98 Z"/>
  <path fill="#292D32" d="M15.721,2 L15.721,22 Q15.721,22.311 15.501,22.53 Q15.281,22.75 14.971,22.75 Q14.66,22.75 14.44,22.53 Q14.221,22.311 14.221,22 L14.221,2 Q14.221,1.689 14.44,1.47 Q14.66,1.25 14.971,1.25 Q15.281,1.25 15.501,1.47 Q15.721,1.689 15.721,2 Z"/>
  <path fill="#292D32" d="M8.501,8.91 L11.061,11.47 Q11.281,11.689 11.281,12 Q11.281,12.311 11.061,12.53 L8.501,15.09 Q8.281,15.31 7.971,15.31 Q7.66,15.31 7.44,15.09 Q7.221,14.871 7.221,14.56 Q7.221,14.249 7.44,14.03 L9.47,12 L7.44,9.97 Q7.221,9.751 7.221,9.44 Q7.221,9.129 7.44,8.91 Q7.66,8.69 7.971,8.69 Q8.281,8.69 8.501,8.91 Z"/>
</svg>

