<svg xmlns="http://www.w3.org/2000/svg" width="24" height="24" viewBox="0 0 24 24">
  <defs/>
  <path fill="#292D32" d="M22.721,15 Q22.721,19.061 20.876,20.905 Q19.031,22.75 14.971,22.75 L8.971,22.75 Q1.221,22.75 1.221,15 L1.221,9 Q1.221,1.25 8.971,1.25 L14.971,1.25 Q22.721,1.25 22.721,9 Z M21.221,15 L21.221,9 Q21.221,5.561 19.815,4.155 Q18.41,2.75 14.971,2.75 L8.971,2.75 Q2.721,2.75 2.721,9 L2.721,15 Q2.721,18.439 4.126,19.845 Q5.531,21.25 8.971,21.25 L14.971,21.25 Q21.221,21.25 21.221,15 Z"/>
  <path fill="#292D32" opacity="0.4" d="M22,16.25 L2,16.25 Q1.689,16.25 1.47,16.03 Q1.25,15.811 1.25,15.5 Q1.25,15.189 1.47,14.97 Q1.689,14.75 2,14.75 L22,14.75 Q22.311,14.75 22.53,14.97 Q22.75,15.189 22.75,15.5 Q22.75,15.811 22.53,16.03 Q22.311,16.25 22,16.25 Z"/>
  <path fill="#292D32" opacity="0.4" d="M15.09,9.03 L12.53,11.59 Q12.31,11.81 12,11.81 Q11.689,11.81 11.469,11.59 L8.909,9.03 Q8.689,8.811 8.689,8.5 Q8.689,8.189 8.909,7.97 Q9.129,7.75 9.439,7.75 Q9.75,7.75 9.97,7.97 L11.999,9.999 L14.029,7.97 Q14.249,7.75 14.559,7.75 Q14.87,7.75 15.09,7.97 Q15.309,8.189 15.309,8.5 Q15.309,8.811 15.09,9.03 Z"/>
</svg>

