<svg xmlns="http://www.w3.org/2000/svg" width="24" height="24" viewBox="0 0 24 24">
  <defs/>
  <path fill="#292D32" d="M8.721,2 L8.721,22 Q8.721,22.311 8.501,22.53 Q8.281,22.75 7.971,22.75 Q7.66,22.75 7.44,22.53 Q7.221,22.311 7.221,22 L7.221,2 Q7.221,1.689 7.44,1.47 Q7.66,1.25 7.971,1.25 Q8.281,1.25 8.501,1.47 Q8.721,1.689 8.721,2 Z"/>
  <path fill="#292D32" d="M15.501,9.97 L13.471,12 L15.501,14.03 Q15.72,14.249 15.72,14.56 Q15.72,14.871 15.501,15.09 Q15.281,15.31 14.97,15.31 Q14.66,15.31 14.44,15.09 L11.88,12.53 Q11.66,12.311 11.66,12 Q11.66,11.689 11.88,11.47 L14.44,8.91 Q14.66,8.69 14.97,8.69 Q15.281,8.69 15.501,8.91 Q15.72,9.129 15.72,9.44 Q15.72,9.751 15.501,9.97 Z"/>
  <path fill="#292D32" d="M2.75,13 L2.75,15 Q2.75,18.439 4.155,19.845 Q5.561,21.25 9,21.25 L15,21.25 Q18.439,21.25 19.845,19.845 Q21.25,18.439 21.25,15 L21.25,9 Q21.25,2.75 15,2.75 L9,2.75 Q2.75,2.75 2.75,9 Q2.75,9.311 2.53,9.53 Q2.311,9.75 2,9.75 Q1.689,9.75 1.47,9.53 Q1.25,9.311 1.25,9 Q1.25,1.25 9,1.25 L15,1.25 Q22.75,1.25 22.75,9 L22.75,15 Q22.75,22.75 15,22.75 L9,22.75 Q1.25,22.75 1.25,15 L1.25,13 Q1.25,12.689 1.47,12.47 Q1.689,12.25 2,12.25 Q2.311,12.25 2.53,12.47 Q2.75,12.689 2.75,13 Z"/>
</svg>

