<svg xmlns="http://www.w3.org/2000/svg" width="24" height="24" viewBox="0 0 24 24">
  <defs/>
  <path fill="#292D32" d="M14.971,22.75 L8.971,22.75 C3.541,22.75 1.221,20.43 1.221,15 L1.221,9 C1.221,3.57 3.541,1.25 8.971,1.25 L14.971,1.25 C20.401,1.25 22.721,3.57 22.721,9 L22.721,15 C22.721,20.43 20.411,22.75 14.971,22.75 Z M8.971,2.75 C4.361,2.75 2.721,4.39 2.721,9 L2.721,15 C2.721,19.61 4.361,21.25 8.971,21.25 L14.971,21.25 C19.581,21.25 21.221,19.61 21.221,15 L21.221,9 C21.221,4.39 19.581,2.75 14.971,2.75 L8.971,2.75 Z"/>
  <path fill="#292D32" d="M22,16.25 L2,16.25 C1.59,16.25 1.25,15.91 1.25,15.5 C1.25,15.09 1.59,14.75 2,14.75 L22,14.75 C22.41,14.75 22.75,15.09 22.75,15.5 C22.75,15.91 22.41,16.25 22,16.25 Z"/>
  <path fill="#292D32" d="M12.001,11.81 C11.811,11.81 11.621,11.74 11.471,11.59 L8.911,9.03 C8.621,8.74 8.621,8.26 8.911,7.97 C9.201,7.68 9.681,7.68 9.971,7.97 L12.001,10 L14.031,7.97 C14.321,7.68 14.801,7.68 15.091,7.97 C15.381,8.26 15.381,8.74 15.091,9.03 L12.531,11.59 C12.381,11.74 12.191,11.81 12.001,11.81 Z"/>
</svg>

