<svg xmlns="http://www.w3.org/2000/svg" width="24" height="24" viewBox="0 0 24 24">
  <defs/>
  <path fill="#292D32" d="M14.971,22.75 L8.971,22.75 C3.541,22.75 1.221,20.43 1.221,15 L1.221,9 C1.221,3.57 3.541,1.25 8.971,1.25 L14.971,1.25 C20.401,1.25 22.721,3.57 22.721,9 L22.721,15 C22.721,20.43 20.411,22.75 14.971,22.75 Z M8.971,2.75 C4.361,2.75 2.721,4.39 2.721,9 L2.721,15 C2.721,19.61 4.361,21.25 8.971,21.25 L14.971,21.25 C19.581,21.25 21.221,19.61 21.221,15 L21.221,9 C21.221,4.39 19.581,2.75 14.971,2.75 L8.971,2.75 Z"/>
  <path fill="#292D32" d="M14.971,22.75 C14.561,22.75 14.221,22.41 14.221,22 L14.221,2 C14.221,1.59 14.561,1.25 14.971,1.25 C15.381,1.25 15.721,1.59 15.721,2 L15.721,22 C15.721,22.41 15.391,22.75 14.971,22.75 Z"/>
  <path fill="#292D32" d="M7.97,15.31 C7.78,15.31 7.59,15.24 7.44,15.09 C7.15,14.8 7.15,14.32 7.44,14.03 L9.47,12 L7.44,9.97 C7.15,9.68 7.15,9.2 7.44,8.91 C7.73,8.62 8.21,8.62 8.5,8.91 L11.06,11.47 C11.35,11.76 11.35,12.24 11.06,12.53 L8.5,15.09 C8.36,15.24 8.17,15.31 7.97,15.31 Z"/>
</svg>

