<svg xmlns="http://www.w3.org/2000/svg" width="24" height="24" viewBox="0 0 24 24">
  <defs/>
  <path fill="#292D32" d="M14.971,22.75 L8.971,22.75 C3.541,22.75 1.221,20.43 1.221,15 L1.221,9 C1.221,3.57 3.541,1.25 8.971,1.25 L14.971,1.25 C20.401,1.25 22.721,3.57 22.721,9 L22.721,15 C22.721,20.43 20.411,22.75 14.971,22.75 Z M8.971,2.75 C4.361,2.75 2.721,4.39 2.721,9 L2.721,15 C2.721,19.61 4.361,21.25 8.971,21.25 L14.971,21.25 C19.581,21.25 21.221,19.61 21.221,15 L21.221,9 C21.221,4.39 19.581,2.75 14.971,2.75 L8.971,2.75 Z"/>
  <path fill="#292D32" d="M22,9.25 L2,9.25 C1.59,9.25 1.25,8.91 1.25,8.5 C1.25,8.09 1.59,7.75 2,7.75 L22,7.75 C22.41,7.75 22.75,8.09 22.75,8.5 C22.75,8.91 22.41,9.25 22,9.25 Z"/>
  <path fill="#292D32" d="M14.561,16.25 C14.371,16.25 14.181,16.18 14.031,16.03 L12.001,14 L9.971,16.03 C9.681,16.32 9.201,16.32 8.911,16.03 C8.621,15.74 8.621,15.26 8.911,14.97 L11.471,12.41 C11.761,12.12 12.241,12.12 12.531,12.41 L15.091,14.97 C15.381,15.26 15.381,15.74 15.091,16.03 C14.941,16.18 14.751,16.25 14.561,16.25 Z"/>
</svg>

