<svg xmlns="http://www.w3.org/2000/svg" width="24" height="24" viewBox="0 0 24 24">
  <defs/>
  <path fill="#292D32" d="M3.05,19.871 C3.34,20.291 3.71,20.661 4.13,20.951 C5.08,21.641 6.32,22.001 7.81,22.001 L16.189,22.001 C19.63,22.001 21.759,20.061 21.97,16.781 L2.02,16.781 C2.1,18.011 2.45,19.051 3.05,19.871 Z"/>
  <path fill="#292D32" d="M20.95,4.13 C20.66,3.71 20.29,3.34 19.87,3.05 C18.92,2.36 17.68,2 16.19,2 L7.81,2 C4.17,2 2,4.17 2,7.81 L2,15.28 L22,15.28 L22,7.81 C22,6.32 21.64,5.08 20.95,4.13 Z M15.09,9.56 L12.53,12.12 C12.24,12.41 11.76,12.41 11.47,12.12 L8.91,9.56 C8.76,9.41 8.69,9.22 8.69,9.03 C8.69,8.84 8.76,8.64 8.91,8.5 C9.2,8.2 9.68,8.2 9.97,8.5 L12,10.52 L14.03,8.49 C14.32,8.2 14.8,8.2 15.09,8.49 C15.38,8.78 15.38,9.26 15.09,9.56 Z"/>
</svg>

