<svg xmlns="http://www.w3.org/2000/svg" width="24" height="24" viewBox="0 0 24 24">
  <defs/>
  <path fill="#292D32" d="M22.72,15 Q22.72,19.061 20.875,20.905 Q19.031,22.75 14.97,22.75 L8.97,22.75 Q1.22,22.75 1.22,15 L1.22,9 Q1.22,1.25 8.97,1.25 L14.97,1.25 Q19.031,1.25 20.875,3.095 Q22.72,4.939 22.72,9 Z M21.22,15 L21.22,9 Q21.22,5.561 19.815,4.155 Q18.409,2.75 14.97,2.75 L8.97,2.75 Q2.72,2.75 2.72,9 L2.72,15 Q2.72,18.439 4.125,19.845 Q5.531,21.25 8.97,21.25 L14.97,21.25 Q18.409,21.25 19.815,19.845 Q21.22,18.439 21.22,15 Z"/>
  <path fill="#292D32" d="M22,9.25 L2,9.25 Q1.689,9.25 1.47,9.03 Q1.25,8.811 1.25,8.5 Q1.25,8.189 1.47,7.97 Q1.689,7.75 2,7.75 L22,7.75 Q22.311,7.75 22.53,7.97 Q22.75,8.189 22.75,8.5 Q22.75,8.811 22.53,9.03 Q22.311,9.25 22,9.25 Z"/>
  <path fill="#292D32" d="M14.03,16.03 L12,14.001 L9.97,16.03 Q9.751,16.25 9.44,16.25 Q9.129,16.25 8.91,16.03 Q8.69,15.811 8.69,15.5 Q8.69,15.189 8.91,14.97 L11.47,12.41 Q11.689,12.19 12,12.19 Q12.311,12.19 12.53,12.41 L15.09,14.97 Q15.31,15.189 15.31,15.5 Q15.31,15.811 15.09,16.03 Q14.871,16.25 14.56,16.25 Q14.249,16.25 14.03,16.03 Z"/>
</svg>

