<svg xmlns="http://www.w3.org/2000/svg" width="24" height="24" viewBox="0 0 24 24">
  <defs/>
  <path fill="#292D32" d="M22.721,15 Q22.721,19.061 20.876,20.905 Q19.031,22.75 14.971,22.75 L8.971,22.75 Q1.221,22.75 1.221,15 L1.221,9 Q1.221,1.25 8.971,1.25 L14.971,1.25 Q22.721,1.25 22.721,9 Z M21.221,15 L21.221,9 Q21.221,5.561 19.815,4.155 Q18.41,2.75 14.971,2.75 L8.971,2.75 Q2.721,2.75 2.721,9 L2.721,15 Q2.721,18.439 4.126,19.845 Q5.531,21.25 8.971,21.25 L14.971,21.25 Q21.221,21.25 21.221,15 Z"/>
  <path fill="#292D32" opacity="0.4" d="M8.721,2 L8.721,22 Q8.721,22.311 8.501,22.53 Q8.281,22.75 7.971,22.75 Q7.66,22.75 7.44,22.53 Q7.221,22.311 7.221,22 L7.221,2 Q7.221,1.689 7.44,1.47 Q7.66,1.25 7.971,1.25 Q8.281,1.25 8.501,1.47 Q8.721,1.689 8.721,2 Z"/>
  <path fill="#292D32" opacity="0.4" d="M15.501,9.97 L13.471,12 L15.501,14.03 Q15.72,14.249 15.72,14.56 Q15.72,14.871 15.501,15.09 Q15.281,15.31 14.97,15.31 Q14.66,15.31 14.44,15.09 L11.88,12.53 Q11.66,12.311 11.66,12 Q11.66,11.689 11.88,11.47 L14.44,8.91 Q14.66,8.69 14.97,8.69 Q15.281,8.69 15.501,8.91 Q15.72,9.129 15.72,9.44 Q15.72,9.751 15.501,9.97 Z"/>
</svg>

