<svg xmlns="http://www.w3.org/2000/svg" width="24" height="24" viewBox="0 0 24 24">
  <defs/>
  <path fill="#292D32" opacity="0.4" d="M16.19,2 L7.81,2 C4.17,2 2,4.17 2,7.81 L2,16.19 C2,16.39 2.01,16.59 2.02,16.78 C2.1,18.01 2.45,19.05 3.05,19.87 C3.34,20.29 3.71,20.66 4.13,20.95 C5.08,21.64 6.32,22 7.81,22 L16.19,22 C19.63,22 21.76,20.06 21.97,16.78 C21.99,16.59 22,16.39 22,16.19 L22,7.81 C22,6.32 21.64,5.08 20.95,4.13 C20.66,3.71 20.29,3.34 19.87,3.05 C18.92,2.36 17.68,2 16.19,2 Z"/>
  <path fill="#292D32" d="M22,15.28 L2,15.28 L2,16.19 C2,16.39 2.01,16.59 2.02,16.78 L21.97,16.78 C21.99,16.59 22,16.39 22,16.19 L22,15.28 Z"/>
  <path fill="#292D32" d="M8.689,9.03 C8.689,9.22 8.759,9.41 8.909,9.56 L11.47,12.12 C11.759,12.41 12.239,12.41 12.53,12.12 L15.089,9.56 C15.38,9.27 15.38,8.79 15.089,8.5 C14.8,8.21 14.319,8.21 14.03,8.5 L11.999,10.52 L9.969,8.5 C9.679,8.2 9.199,8.2 8.909,8.5 C8.759,8.64 8.689,8.83 8.689,9.03 Z"/>
</svg>

