<svg xmlns="http://www.w3.org/2000/svg" width="24" height="24" viewBox="0 0 24 24">
  <defs/>
  <path fill="#292D32" d="M22.721,15 Q22.721,19.061 20.876,20.905 Q19.031,22.75 14.971,22.75 L8.971,22.75 Q1.221,22.75 1.221,15 L1.221,9 Q1.221,1.25 8.971,1.25 L14.971,1.25 Q22.721,1.25 22.721,9 Z M21.221,15 L21.221,9 Q21.221,5.561 19.815,4.155 Q18.41,2.75 14.971,2.75 L8.971,2.75 Q2.721,2.75 2.721,9 L2.721,15 Q2.721,18.439 4.126,19.845 Q5.531,21.25 8.971,21.25 L14.971,21.25 Q21.221,21.25 21.221,15 Z"/>
  <path fill="#292D32" opacity="0.4" d="M22,9.25 L2,9.25 Q1.689,9.25 1.47,9.03 Q1.25,8.811 1.25,8.5 Q1.25,8.189 1.47,7.97 Q1.689,7.75 2,7.75 L22,7.75 Q22.311,7.75 22.53,7.97 Q22.75,8.189 22.75,8.5 Q22.75,8.811 22.53,9.03 Q22.311,9.25 22,9.25 Z"/>
  <path fill="#292D32" opacity="0.4" d="M14.029,16.03 L11.999,14.001 L9.97,16.03 Q9.75,16.25 9.439,16.25 Q9.129,16.25 8.909,16.03 Q8.689,15.811 8.689,15.5 Q8.689,15.189 8.909,14.97 L11.469,12.41 Q11.689,12.19 12,12.19 Q12.31,12.19 12.53,12.41 L15.09,14.97 Q15.309,15.189 15.309,15.5 Q15.309,15.811 15.09,16.03 Q14.87,16.25 14.559,16.25 Q14.249,16.25 14.029,16.03 Z"/>
</svg>

