<svg xmlns="http://www.w3.org/2000/svg" width="24" height="24" viewBox="0 0 24 24">
  <defs/>
  <path fill="#292D32" opacity="0.4" d="M2,7.81 L2,16.19 C2,19.83 4.17,22 7.81,22 L16.19,22 C16.39,22 16.59,21.99 16.78,21.98 C18.01,21.9 19.05,21.55 19.87,20.95 C20.29,20.66 20.66,20.29 20.95,19.87 C21.64,18.92 22,17.68 22,16.19 L22,7.81 C22,4.37 20.06,2.24 16.78,2.03 C16.59,2.01 16.39,2 16.19,2 L7.81,2 C6.32,2 5.08,2.36 4.13,3.05 C3.71,3.34 3.34,3.71 3.05,4.13 C2.36,5.08 2,6.32 2,7.81 Z"/>
  <path fill="#292D32" d="M15.279,2 L15.279,22 L16.189,22 C16.389,22 16.589,21.99 16.779,21.98 L16.779,2.03 C16.589,2.01 16.389,2 16.189,2 L15.279,2 Z"/>
  <path fill="#292D32" d="M9.031,15.31 C9.221,15.31 9.411,15.24 9.561,15.09 L12.121,12.53 C12.411,12.24 12.411,11.76 12.121,11.47 L9.561,8.91 C9.271,8.62 8.791,8.62 8.501,8.91 C8.211,9.2 8.211,9.68 8.501,9.97 L10.521,12 L8.501,14.03 C8.211,14.32 8.211,14.8 8.501,15.09 C8.641,15.24 8.831,15.31 9.031,15.31 Z"/>
</svg>

