<svg xmlns="http://www.w3.org/2000/svg" width="24" height="24" viewBox="0 0 24 24">
  <defs/>
  <path fill="#292D32" d="M17.22,9.75 L8.96,9.75 C8.4,9.75 7.84,9.56 7.4,9.2 L5.21,7.45 C4.61,6.97 4.27,6.26 4.27,5.5 C4.27,4.74 4.61,4.02 5.21,3.55 L7.4,1.8 C7.84,1.45 8.4,1.25 8.96,1.25 L17.22,1.25 C18.599,1.25 19.72,2.37 19.72,3.75 L19.72,7.25 C19.72,8.63 18.599,9.75 17.22,9.75 Z M8.96,2.75 C8.73,2.75 8.51,2.83 8.34,2.97 L6.15,4.72 C5.91,4.91 5.77,5.2 5.77,5.5 C5.77,5.8 5.91,6.09 6.15,6.28 L8.34,8.03 C8.52,8.17 8.74,8.25 8.96,8.25 L17.22,8.25 C17.77,8.25 18.22,7.8 18.22,7.25 L18.22,3.75 C18.22,3.2 17.77,2.75 17.22,2.75 L8.96,2.75 Z"/>
  <path fill="#292D32" d="M15.061,19.75 L6.801,19.75 C5.421,19.75 4.301,18.63 4.301,17.25 L4.301,13.75 C4.301,12.37 5.421,11.25 6.801,11.25 L15.061,11.25 C15.631,11.25 16.181,11.44 16.621,11.8 L18.811,13.55 C19.411,14.03 19.751,14.74 19.751,15.5 C19.751,16.26 19.411,16.98 18.811,17.45 L16.621,19.2 C16.181,19.56 15.631,19.75 15.061,19.75 Z M6.801,12.75 C6.251,12.75 5.801,13.2 5.801,13.75 L5.801,17.25 C5.801,17.8 6.251,18.25 6.801,18.25 L15.061,18.25 C15.291,18.25 15.511,18.17 15.681,18.03 L17.871,16.28 C18.111,16.09 18.251,15.8 18.251,15.5 C18.251,15.2 18.111,14.91 17.871,14.72 L15.681,12.97 C15.501,12.83 15.281,12.75 15.061,12.75 L6.801,12.75 Z"/>
  <path fill="#292D32" d="M12,12.75 C11.59,12.75 11.25,12.41 11.25,12 L11.25,9 C11.25,8.59 11.59,8.25 12,8.25 C12.41,8.25 12.75,8.59 12.75,9 L12.75,12 C12.75,12.41 12.41,12.75 12,12.75 Z"/>
  <path fill="#292D32" d="M12,22.75 C11.59,22.75 11.25,22.41 11.25,22 L11.25,19 C11.25,18.59 11.59,18.25 12,18.25 C12.41,18.25 12.75,18.59 12.75,19 L12.75,22 C12.75,22.41 12.41,22.75 12,22.75 Z"/>
  <path fill="#292D32" d="M15,22.75 L9,22.75 C8.59,22.75 8.25,22.41 8.25,22 C8.25,21.59 8.59,21.25 9,21.25 L15,21.25 C15.41,21.25 15.75,21.59 15.75,22 C15.75,22.41 15.41,22.75 15,22.75 Z"/>
</svg>

