<svg xmlns="http://www.w3.org/2000/svg" width="24" height="24" viewBox="0 0 24 24">
  <defs/>
  <path fill="#292D32" d="M18.34,14.13 L16.16,12.38 C15.85,12.14 15.46,12 15.06,12 L12.75,12 L12.75,9 L17.22,9 C18.19,9 18.97,8.22 18.97,7.25 L18.97,3.75 C18.97,2.78 18.19,2 17.22,2 L8.96,2 C8.57,2 8.18,2.14 7.87,2.38 L5.68,4.13 C4.81,4.83 4.81,6.17 5.68,6.87 L7.87,8.62 C8.18,8.86 8.57,9 8.96,9 L11.25,9 L11.25,12 L6.8,12 C5.83,12 5.05,12.78 5.05,13.75 L5.05,17.25 C5.05,18.22 5.83,19 6.8,19 L11.25,19 L11.25,21.25 L9,21.25 C8.59,21.25 8.25,21.59 8.25,22 C8.25,22.41 8.59,22.75 9,22.75 L15,22.75 C15.41,22.75 15.75,22.41 15.75,22 C15.75,21.59 15.41,21.25 15,21.25 L12.75,21.25 L12.75,19 L15.06,19 C15.46,19 15.85,18.86 16.16,18.62 L18.34,16.87 C19.22,16.17 19.22,14.83 18.34,14.13 Z"/>
</svg>

