<svg xmlns="http://www.w3.org/2000/svg" width="24" height="24" viewBox="0 0 24 24">
  <defs/>
  <path fill="#292D32" d="M18.97,3.75 L18.97,7.25 C18.97,8.22 18.19,9 17.22,9 L8.96,9 C8.57,9 8.18,8.86 7.87,8.62 L5.68,6.87 C4.81,6.17 4.81,4.83 5.68,4.13 L7.87,2.38 C8.18,2.14 8.57,2 8.96,2 L17.22,2 C18.19,2 18.97,2.78 18.97,3.75 Z"/>
  <path fill="#292D32" d="M18.341,16.87 L16.161,18.62 C15.851,18.86 15.461,19 15.061,19 L6.801,19 C5.831,19 5.051,18.22 5.051,17.25 L5.051,13.75 C5.051,12.78 5.831,12 6.801,12 L15.061,12 C15.461,12 15.851,12.14 16.161,12.38 L18.341,14.13 C19.221,14.83 19.221,16.17 18.341,16.87 Z"/>
  <path fill="#292D32" opacity="0.4" d="M12.75,9 L11.25,9 L11.25,12 L12.75,12 L12.75,9 Z"/>
  <path fill="#292D32" opacity="0.4" d="M15.75,22 C15.75,22.41 15.41,22.75 15,22.75 L9,22.75 C8.59,22.75 8.25,22.41 8.25,22 C8.25,21.59 8.59,21.25 9,21.25 L11.25,21.25 L11.25,19 L12.75,19 L12.75,21.25 L15,21.25 C15.41,21.25 15.75,21.59 15.75,22 Z"/>
</svg>

