<svg xmlns="http://www.w3.org/2000/svg" width="24" height="24" viewBox="0 0 24 24">
  <defs/>
  <path fill="#292D32" d="M17.22,1.25 Q19.72,1.25 19.72,3.74 L19.72,7.24 Q19.72,8.278 18.989,9.009 Q18.258,9.74 17.22,9.74 L8.96,9.74 Q8.076,9.74 7.402,9.196 L5.213,7.447 Q4.27,6.697 4.27,5.495 Q4.27,4.293 5.212,3.544 L7.411,1.787 Q8.104,1.25 8.96,1.25 Z M17.22,2.75 L8.96,2.75 Q8.617,2.75 8.329,2.973 L6.148,4.716 Q5.77,5.017 5.77,5.495 Q5.77,5.973 6.147,6.273 L8.338,8.024 Q8.606,8.24 8.96,8.24 L17.22,8.24 Q18.22,8.24 18.22,7.24 L18.22,3.74 Q18.22,2.75 17.22,2.75 Z"/>
  <path fill="#292D32" d="M6.8,11.25 L15.06,11.25 Q15.916,11.25 16.609,11.787 L18.808,13.544 Q19.75,14.293 19.75,15.495 Q19.75,16.697 18.807,17.447 L16.618,19.196 Q15.944,19.74 15.06,19.74 L6.8,19.74 Q4.3,19.74 4.3,17.24 L4.3,13.74 Q4.3,11.25 6.8,11.25 Z M6.8,12.75 Q5.8,12.75 5.8,13.74 L5.8,17.24 Q5.8,18.24 6.8,18.24 L15.06,18.24 Q15.414,18.24 15.682,18.024 L17.873,16.273 Q18.25,15.973 18.25,15.495 Q18.25,15.017 17.872,14.716 L15.691,12.973 Q15.403,12.75 15.06,12.75 Z"/>
  <path fill="#292D32" d="M11.25,12 L11.25,9 Q11.25,8.689 11.47,8.47 Q11.689,8.25 12,8.25 Q12.311,8.25 12.53,8.47 Q12.75,8.689 12.75,9 L12.75,12 Q12.75,12.311 12.53,12.53 Q12.311,12.75 12,12.75 Q11.689,12.75 11.47,12.53 Q11.25,12.311 11.25,12 Z"/>
  <path fill="#292D32" d="M11.25,22 L11.25,19 Q11.25,18.689 11.47,18.47 Q11.689,18.25 12,18.25 Q12.311,18.25 12.53,18.47 Q12.75,18.689 12.75,19 L12.75,22 Q12.75,22.311 12.53,22.53 Q12.311,22.75 12,22.75 Q11.689,22.75 11.47,22.53 Q11.25,22.311 11.25,22 Z"/>
  <path fill="#292D32" d="M9,21.25 L15,21.25 Q15.311,21.25 15.53,21.47 Q15.75,21.689 15.75,22 Q15.75,22.311 15.53,22.53 Q15.311,22.75 15,22.75 L9,22.75 Q8.689,22.75 8.47,22.53 Q8.25,22.311 8.25,22 Q8.25,21.689 8.47,21.47 Q8.689,21.25 9,21.25 Z"/>
</svg>

