<svg xmlns="http://www.w3.org/2000/svg" width="24" height="24" viewBox="0 0 24 24">
  <defs/>
  <path fill="#292D32" d="M16.75,12.69 L16.75,18.08 Q16.75,20.144 15.459,21.433 Q14.17,22.72 12.11,22.72 L5.89,22.72 Q3.83,22.72 2.541,21.433 Q1.25,20.144 1.25,18.08 L1.25,10.31 Q1.25,8.246 2.541,6.957 Q3.83,5.67 5.89,5.67 L9.72,5.67 Q11.641,5.67 13,7.03 L15.389,9.409 Q16.75,10.769 16.75,12.69 Z M15.25,12.69 Q15.25,11.391 14.331,10.471 L11.94,8.09 Q11.019,7.17 9.72,7.17 L5.89,7.17 Q4.451,7.17 3.601,8.018 Q2.75,8.868 2.75,10.31 L2.75,18.08 Q2.75,21.22 5.89,21.22 L12.11,21.22 Q13.549,21.22 14.399,20.372 Q15.25,19.522 15.25,18.08 Z"/>
  <path fill="#292D32" d="M22.75,8.25 L22.75,13.64 Q22.75,18.28 18.11,18.28 L16,18.28 Q15.689,18.28 15.47,18.06 Q15.25,17.841 15.25,17.53 L15.25,12.69 Q15.25,11.391 14.33,10.47 L11.941,8.091 Q11.019,7.17 9.72,7.17 L8,7.17 Q7.689,7.17 7.47,6.95 Q7.25,6.731 7.25,6.42 L7.25,5.86 Q7.25,3.802 8.541,2.511 Q9.832,1.22 11.89,1.22 L15.72,1.22 Q17.641,1.22 19,2.58 L21.39,4.97 Q22.75,6.329 22.75,8.25 Z M21.25,8.25 Q21.25,6.951 20.33,6.03 L17.94,3.64 Q17.019,2.72 15.72,2.72 L11.89,2.72 Q8.846,2.72 8.753,5.67 L9.72,5.67 Q11.641,5.67 12.999,7.029 L15.39,9.41 Q16.75,10.769 16.75,12.69 L16.75,16.78 L18.11,16.78 Q19.547,16.78 20.398,15.928 Q21.25,15.077 21.25,13.64 Z"/>
</svg>

