<svg xmlns="http://www.w3.org/2000/svg" width="24" height="24" viewBox="0 0 24 24">
  <defs/>
  <path fill="#292D32" d="M16.75,12.69 L16.75,18.08 Q16.75,20.144 15.459,21.433 Q14.17,22.72 12.11,22.72 L5.89,22.72 Q1.25,22.72 1.25,18.08 L1.25,10.31 Q1.25,5.67 5.89,5.67 L9.72,5.67 Q11.641,5.67 13,7.03 L15.389,9.408 Q16.75,10.769 16.75,12.69 Z M15.25,12.69 Q15.25,11.391 14.331,10.471 L11.94,8.09 Q11.019,7.17 9.72,7.17 L5.89,7.17 Q2.75,7.17 2.75,10.31 L2.75,18.08 Q2.75,19.522 3.601,20.372 Q4.451,21.22 5.89,21.22 L12.11,21.22 Q15.25,21.22 15.25,18.08 Z"/>
  <path fill="#292D32" opacity="0.4" d="M22.75,8.25 L22.75,13.64 Q22.75,15.698 21.459,16.989 Q20.168,18.28 18.11,18.28 L16,18.28 Q15.689,18.28 15.47,18.061 Q15.25,17.841 15.25,17.53 L15.25,12.69 Q15.25,11.391 14.33,10.471 L11.941,8.092 Q11.019,7.17 9.72,7.17 L8,7.17 Q7.689,7.17 7.47,6.951 Q7.25,6.731 7.25,6.42 L7.25,5.86 Q7.25,3.802 8.541,2.511 Q9.832,1.22 11.89,1.22 L15.72,1.22 Q17.641,1.22 19,2.58 L21.39,4.97 Q22.75,6.33 22.75,8.25 Z M21.25,8.25 Q21.25,6.951 20.33,6.031 L17.94,3.641 Q17.019,2.72 15.72,2.72 L11.89,2.72 Q10.453,2.72 9.602,3.572 Q8.807,4.366 8.754,5.67 L9.72,5.67 Q11.641,5.67 12.999,7.029 L15.39,9.41 Q16.75,10.77 16.75,12.69 L16.75,16.78 L18.11,16.78 Q21.25,16.78 21.25,13.64 Z"/>
</svg>

