<svg xmlns="http://www.w3.org/2000/svg" width="24" height="24" viewBox="0 0 24 24">
  <defs/>
  <path fill="#292D32" d="M3.75,11 L3.75,17 Q3.75,21.25 8,21.25 L16,21.25 Q20.25,21.25 20.25,17 L20.25,10.07 Q20.25,8.314 19.007,7.058 L15.94,3.99 Q14.699,2.75 12.93,2.75 L8,2.75 Q3.75,2.75 3.75,7 Q3.75,7.311 3.53,7.53 Q3.311,7.75 3,7.75 Q2.689,7.75 2.47,7.53 Q2.25,7.311 2.25,7 Q2.25,1.25 8,1.25 L12.93,1.25 Q15.321,1.25 17,2.93 L20.073,6.003 Q21.75,7.697 21.75,10.07 L21.75,17 Q21.75,22.75 16,22.75 L8,22.75 Q2.25,22.75 2.25,17 L2.25,11 Q2.25,10.689 2.47,10.47 Q2.689,10.25 3,10.25 Q3.311,10.25 3.53,10.47 Q3.75,10.689 3.75,11 Z"/>
  <path fill="#292D32" d="M10.03,14.53 L8.561,16 L10.03,17.47 Q10.25,17.689 10.25,18 Q10.25,18.311 10.03,18.53 Q9.811,18.75 9.5,18.75 Q9.189,18.75 8.97,18.53 L6.97,16.53 Q6.75,16.311 6.75,16 Q6.75,15.689 6.97,15.47 L8.97,13.47 Q9.189,13.25 9.5,13.25 Q9.811,13.25 10.03,13.47 Q10.25,13.689 10.25,14 Q10.25,14.311 10.03,14.53 Z"/>
  <path fill="#292D32" d="M15.03,13.47 L17.03,15.47 Q17.25,15.689 17.25,16 Q17.25,16.311 17.03,16.53 L15.03,18.53 Q14.811,18.75 14.5,18.75 Q14.189,18.75 13.97,18.53 Q13.75,18.311 13.75,18 Q13.75,17.689 13.97,17.47 L15.439,16 L13.97,14.53 Q13.75,14.311 13.75,14 Q13.75,13.689 13.97,13.47 Q14.189,13.25 14.5,13.25 Q14.811,13.25 15.03,13.47 Z"/>
</svg>

