<svg xmlns="http://www.w3.org/2000/svg" width="24" height="24" viewBox="0 0 24 24">
  <defs/>
  <path fill="#292D32" opacity="0.4" d="M19.54,6.54 L16.47,3.47 C15.53,2.53 14.26,2.01 12.93,2.01 L8,2.01 C5,2.01 3,4.01 3,7.01 L3,17.01 C3,20.01 5,22.01 8,22.01 L16,22.01 C19,22.01 21,20.01 21,17.01 L21,10.08 C21,8.74 20.47,7.47 19.54,6.54 Z"/>
  <path fill="#292D32" d="M9.499,18.75 C9.309,18.75 9.119,18.68 8.969,18.53 L6.969,16.53 C6.679,16.24 6.679,15.76 6.969,15.47 L8.969,13.47 C9.259,13.18 9.739,13.18 10.03,13.47 C10.319,13.76 10.319,14.24 10.03,14.53 L8.559,16 L10.03,17.47 C10.319,17.76 10.319,18.24 10.03,18.53 C9.879,18.68 9.689,18.75 9.499,18.75 Z"/>
  <path fill="#292D32" d="M14.499,18.75 C14.309,18.75 14.12,18.68 13.97,18.53 C13.68,18.24 13.68,17.76 13.97,17.47 L15.44,16 L13.97,14.53 C13.68,14.24 13.68,13.76 13.97,13.47 C14.259,13.18 14.739,13.18 15.03,13.47 L17.029,15.47 C17.32,15.76 17.32,16.24 17.029,16.53 L15.03,18.53 C14.88,18.68 14.69,18.75 14.499,18.75 Z"/>
</svg>

