<svg xmlns="http://www.w3.org/2000/svg" width="24" height="24" viewBox="0 0 24 24">
  <defs/>
  <path fill="#292D32" d="M20.07,6.009 Q21.75,7.689 21.75,10.08 L21.75,17.01 Q21.75,22.76 16,22.76 L8,22.76 Q2.25,22.76 2.25,17.01 L2.25,7.01 Q2.25,4.449 3.845,2.854 Q5.439,1.26 8,1.26 L12.93,1.26 Q15.321,1.26 17,2.939 Z M19.01,7.07 L15.94,4 Q14.699,2.76 12.93,2.76 L8,2.76 Q6.061,2.76 4.905,3.915 Q3.75,5.07 3.75,7.01 L3.75,17.01 Q3.75,21.26 8,21.26 L16,21.26 Q17.939,21.26 19.095,20.104 Q20.25,18.949 20.25,17.01 L20.25,10.08 Q20.25,8.31 19.01,7.07 Z"/>
  <g opacity="0.4">
    <path fill="#292D32" d="M10.03,14.53 L8.561,16 L10.03,17.47 Q10.25,17.689 10.25,18 Q10.25,18.311 10.03,18.53 Q9.811,18.75 9.5,18.75 Q9.189,18.75 8.97,18.53 L6.97,16.53 Q6.75,16.311 6.75,16 Q6.75,15.689 6.97,15.47 L8.97,13.47 Q9.189,13.25 9.5,13.25 Q9.811,13.25 10.03,13.47 Q10.25,13.689 10.25,14 Q10.25,14.311 10.03,14.53 Z"/>
    <path fill="#292D32" d="M15.03,13.47 L17.03,15.47 Q17.25,15.689 17.25,16 Q17.25,16.311 17.03,16.53 L15.03,18.53 Q14.811,18.75 14.5,18.75 Q14.189,18.75 13.97,18.53 Q13.75,18.311 13.75,18 Q13.75,17.689 13.97,17.47 L15.439,16 L13.97,14.53 Q13.75,14.311 13.75,14 Q13.75,13.689 13.97,13.47 Q14.189,13.25 14.5,13.25 Q14.811,13.25 15.03,13.47 Z"/>
  </g>
</svg>

