<svg xmlns="http://www.w3.org/2000/svg" width="24" height="24" viewBox="0 0 24 24">
  <defs/>
  <path fill="#292D32" d="M16,22.75 L8,22.75 C4.56,22.75 2.25,20.44 2.25,17 L2.25,7 C2.25,3.56 4.56,1.25 8,1.25 L12.93,1.25 C14.47,1.25 15.91,1.85 17,2.93 L20.07,6 C21.16,7.08 21.75,8.53 21.75,10.07 L21.75,17 C21.75,20.44 19.44,22.75 16,22.75 Z M8,2.75 C5.42,2.75 3.75,4.42 3.75,7 L3.75,17 C3.75,19.58 5.42,21.25 8,21.25 L16,21.25 C18.58,21.25 20.25,19.58 20.25,17 L20.25,10.07 C20.25,8.93 19.81,7.87 19,7.07 L15.93,4 C15.13,3.2 14.06,2.76 12.92,2.76 L8,2.76 L8,2.75 Z"/>
  <path fill="#292D32" d="M9.499,18.75 C9.309,18.75 9.119,18.68 8.969,18.53 L6.969,16.53 C6.679,16.24 6.679,15.76 6.969,15.47 L8.969,13.47 C9.259,13.18 9.739,13.18 10.03,13.47 C10.319,13.76 10.319,14.24 10.03,14.53 L8.559,16 L10.03,17.47 C10.319,17.76 10.319,18.24 10.03,18.53 C9.879,18.68 9.689,18.75 9.499,18.75 Z"/>
  <path fill="#292D32" d="M14.499,18.75 C14.309,18.75 14.12,18.68 13.97,18.53 C13.68,18.24 13.68,17.76 13.97,17.47 L15.44,16 L13.97,14.53 C13.68,14.24 13.68,13.76 13.97,13.47 C14.259,13.18 14.739,13.18 15.03,13.47 L17.029,15.47 C17.32,15.76 17.32,16.24 17.029,16.53 L15.03,18.53 C14.88,18.68 14.69,18.75 14.499,18.75 Z"/>
</svg>

