<svg xmlns="http://www.w3.org/2000/svg" width="24" height="24" viewBox="0 0 24 24">
  <defs/>
  <path fill="#292D32" d="M16,12.692 L16,18.082 C16,20.422 14.44,21.972 12.11,21.972 L5.89,21.972 C3.56,21.972 2,20.422 2,18.082 L2,10.312 C2,7.972 3.56,6.422 5.89,6.422 L9.72,6.422 C10.75,6.422 11.74,6.832 12.47,7.562 L14.86,9.942 C15.59,10.672 16,11.662 16,12.692 Z"/>
  <path fill="#292D32" d="M22,8.249 L22,13.639 C22,15.969 20.439,17.529 18.11,17.529 L17,17.529 L17,12.689 C17,11.399 16.48,10.139 15.569,9.229 L13.18,6.849 C12.27,5.939 11.009,5.419 9.72,5.419 L8.02,5.419 C8.2,3.339 9.71,1.969 11.889,1.969 L15.72,1.969 C16.75,1.969 17.739,2.379 18.47,3.109 L20.86,5.499 C21.59,6.229 22,7.219 22,8.249 Z"/>
</svg>

