<svg xmlns="http://www.w3.org/2000/svg" width="24" height="24" viewBox="0 0 24 24">
  <defs/>
  <path fill="#292D32" d="M12.11,22.72 L5.89,22.72 C3.16,22.72 1.25,20.81 1.25,18.08 L1.25,10.31 C1.25,7.58 3.16,5.67 5.89,5.67 L9.72,5.67 C10.94,5.67 12.14,6.17 13,7.03 L15.39,9.41 C16.26,10.28 16.75,11.47 16.75,12.69 L16.75,18.08 C16.75,20.81 14.84,22.72 12.11,22.72 Z M5.89,7.17 C3.98,7.17 2.75,8.4 2.75,10.31 L2.75,18.08 C2.75,19.99 3.98,21.22 5.89,21.22 L12.11,21.22 C14.02,21.22 15.25,19.99 15.25,18.08 L15.25,12.69 C15.25,11.86 14.91,11.06 14.33,10.47 L11.94,8.09 C11.35,7.5 10.54,7.17 9.72,7.17 L5.89,7.17 Z"/>
  <path fill="#292D32" d="M18.11,18.28 L16,18.28 C15.59,18.28 15.25,17.94 15.25,17.53 L15.25,12.69 C15.25,11.86 14.91,11.06 14.33,10.47 L11.94,8.09 C11.35,7.5 10.54,7.17 9.72,7.17 L8,7.17 C7.59,7.17 7.25,6.83 7.25,6.42 L7.25,5.86 C7.25,3.13 9.16,1.22 11.89,1.22 L15.72,1.22 C16.94,1.22 18.14,1.72 19,2.58 L21.39,4.97 C22.27,5.85 22.75,7.01 22.75,8.25 L22.75,13.64 C22.75,16.37 20.84,18.28 18.11,18.28 Z M16.75,16.78 L18.11,16.78 C20.02,16.78 21.25,15.55 21.25,13.64 L21.25,8.25 C21.25,7.41 20.92,6.62 20.33,6.03 L17.94,3.64 C17.36,3.06 16.55,2.72 15.72,2.72 L11.89,2.72 C10.05,2.72 8.83,3.87 8.75,5.67 L9.72,5.67 C10.94,5.67 12.14,6.17 13,7.03 L15.39,9.41 C16.26,10.28 16.75,11.47 16.75,12.69 L16.75,16.78 Z"/>
</svg>

