<svg xmlns="http://www.w3.org/2000/svg" width="24" height="24" viewBox="0 0 24 24">
  <defs/>
  <path fill="#292D32" opacity="0.4" d="M19.54,6.54 L16.47,3.47 C15.53,2.53 14.26,2 12.93,2 L8,2 C5,2 3,4 3,7 L3,17 C3,20 5,22 8,22 L16,22 C19,22 21,20 21,17 L21,10.07 C21,8.74 20.47,7.47 19.54,6.54 Z"/>
  <path fill="#292D32" d="M11.5,13.25 L11.5,9.5 L10,9.5 C8.35,9.5 7,10.85 7,12.5 L7,13.5 L11.25,13.5 C11.39,13.5 11.5,13.39 11.5,13.25 Z"/>
  <path fill="#292D32" d="M12.75,13.5 L17,13.5 L17,12.5 C17,10.85 15.65,9.5 14,9.5 L12.5,9.5 L12.5,13.25 C12.5,13.39 12.61,13.5 12.75,13.5 Z"/>
  <path fill="#292D32" d="M11.25,14.5 L7,14.5 L7,15.5 C7,17.15 8.35,18.5 10,18.5 L11.5,18.5 L11.5,14.75 C11.5,14.61 11.39,14.5 11.25,14.5 Z"/>
  <path fill="#292D32" d="M12.5,14.75 L12.5,18.5 L14,18.5 C15.65,18.5 17,17.15 17,15.5 L17,14.5 L12.75,14.5 C12.61,14.5 12.5,14.61 12.5,14.75 Z"/>
</svg>

