<svg xmlns="http://www.w3.org/2000/svg" width="24" height="24" viewBox="0 0 24 24">
  <defs/>
  <path fill="#292D32" d="M3.75,17 Q3.75,21.25 8,21.25 L16,21.25 Q20.25,21.25 20.25,17 L20.25,10.07 Q20.25,8.314 19.007,7.057 L15.94,3.99 Q14.686,2.75 12.93,2.75 L8,2.75 Q3.75,2.75 3.75,7 L3.75,12.98 Q3.75,13.291 3.53,13.51 Q3.311,13.73 3,13.73 Q2.689,13.73 2.47,13.51 Q2.25,13.291 2.25,12.98 L2.25,7 Q2.25,1.25 8,1.25 L12.93,1.25 Q15.303,1.25 17,2.93 L20.073,6.003 Q21.75,7.697 21.75,10.07 L21.75,17 Q21.75,22.75 16,22.75 L8,22.75 Q2.25,22.75 2.25,17 Q2.25,16.689 2.47,16.47 Q2.689,16.25 3,16.25 Q3.311,16.25 3.53,16.47 Q3.75,16.689 3.75,17 Z"/>
  <path fill="#292D32" d="M10,19.25 Q6.25,19.25 6.25,15.5 L6.25,12.5 Q6.25,8.75 10,8.75 L14,8.75 Q17.75,8.75 17.75,12.5 L17.75,15.5 Q17.75,19.25 14,19.25 Z M10,17.75 L14,17.75 Q16.25,17.75 16.25,15.5 L16.25,12.5 Q16.25,10.25 14,10.25 L10,10.25 Q7.75,10.25 7.75,12.5 L7.75,15.5 Q7.75,17.75 10,17.75 Z"/>
  <path fill="#292D32" d="M12.75,9.5 L12.75,18.5 Q12.75,18.811 12.53,19.03 Q12.311,19.25 12,19.25 Q11.689,19.25 11.47,19.03 Q11.25,18.811 11.25,18.5 L11.25,9.5 Q11.25,9.189 11.47,8.97 Q11.689,8.75 12,8.75 Q12.311,8.75 12.53,8.97 Q12.75,9.189 12.75,9.5 Z"/>
  <path fill="#292D32" d="M7.5,13.25 L16.5,13.25 Q16.811,13.25 17.03,13.47 Q17.25,13.689 17.25,14 Q17.25,14.311 17.03,14.53 Q16.811,14.75 16.5,14.75 L7.5,14.75 Q7.189,14.75 6.97,14.53 Q6.75,14.311 6.75,14 Q6.75,13.689 6.97,13.47 Q7.189,13.25 7.5,13.25 Z"/>
</svg>

