<svg xmlns="http://www.w3.org/2000/svg" width="24" height="24" viewBox="0 0 24 24">
  <defs/>
  <path fill="#292D32" opacity="0.4" d="M16,12.69 L16,18.08 C16,20.42 14.44,21.97 12.11,21.97 L5.89,21.97 C3.56,21.97 2,20.42 2,18.08 L2,10.31 C2,7.97 3.56,6.42 5.89,6.42 L9.72,6.42 C10.75,6.42 11.74,6.83 12.47,7.56 L14.86,9.94 C15.59,10.67 16,11.66 16,12.69 Z"/>
  <path fill="#292D32" d="M22,8.25 L22,13.64 C22,15.97 20.44,17.53 18.11,17.53 L16,17.53 L16,12.69 C16,11.66 15.59,10.67 14.86,9.94 L12.47,7.56 C11.74,6.83 10.75,6.42 9.72,6.42 L8,6.42 L8,5.86 C8,3.53 9.56,1.97 11.89,1.97 L15.72,1.97 C16.75,1.97 17.74,2.38 18.47,3.11 L20.86,5.5 C21.59,6.23 22,7.22 22,8.25 Z"/>
</svg>

