<svg xmlns="http://www.w3.org/2000/svg" width="24" height="24" viewBox="0 0 24 24">
  <defs/>
  <path fill="#292D32" d="M16,22.75 L8,22.75 C4.56,22.75 2.25,20.44 2.25,17 L2.25,7 C2.25,3.56 4.56,1.25 8,1.25 L12.93,1.25 C14.47,1.25 15.91,1.85 17,2.93 L20.07,6 C21.16,7.09 21.75,8.53 21.75,10.07 L21.75,17 C21.75,20.44 19.44,22.75 16,22.75 Z M8,2.75 C5.42,2.75 3.75,4.42 3.75,7 L3.75,17 C3.75,19.58 5.42,21.25 8,21.25 L16,21.25 C18.58,21.25 20.25,19.58 20.25,17 L20.25,10.07 C20.25,8.94 19.81,7.87 19,7.06 L15.93,4 C15.13,3.2 14.06,2.75 12.92,2.75 L8,2.75 Z"/>
  <path fill="#292D32" d="M14,19.25 L10,19.25 C7.93,19.25 6.25,17.57 6.25,15.5 L6.25,12.5 C6.25,10.43 7.93,8.75 10,8.75 L14,8.75 C16.07,8.75 17.75,10.43 17.75,12.5 L17.75,15.5 C17.75,17.57 16.07,19.25 14,19.25 Z M10,10.25 C8.76,10.25 7.75,11.26 7.75,12.5 L7.75,15.5 C7.75,16.74 8.76,17.75 10,17.75 L14,17.75 C15.24,17.75 16.25,16.74 16.25,15.5 L16.25,12.5 C16.25,11.26 15.24,10.25 14,10.25 L10,10.25 Z"/>
  <path fill="#292D32" d="M12,19.25 C11.59,19.25 11.25,18.91 11.25,18.5 L11.25,9.5 C11.25,9.09 11.59,8.75 12,8.75 C12.41,8.75 12.75,9.09 12.75,9.5 L12.75,18.5 C12.75,18.91 12.41,19.25 12,19.25 Z"/>
  <path fill="#292D32" d="M16.5,14.75 L7.5,14.75 C7.09,14.75 6.75,14.41 6.75,14 C6.75,13.59 7.09,13.25 7.5,13.25 L16.5,13.25 C16.91,13.25 17.25,13.59 17.25,14 C17.25,14.41 16.91,14.75 16.5,14.75 Z"/>
</svg>

