<svg xmlns="http://www.w3.org/2000/svg" width="24" height="24" viewBox="0 0 24 24">
  <defs/>
  <path fill="#292D32" d="M19.54,6.54 L16.47,3.47 C15.53,2.53 14.26,2 12.93,2 L8,2 C5,2 3,4 3,7 L3,17 C3,20 5,22 8,22 L16,22 C19,22 21,20 21,17 L21,10.07 C21,8.74 20.47,7.47 19.54,6.54 Z M11.5,18 C11.5,18.276 11.276,18.5 11,18.5 L10,18.5 C8.35,18.5 7,17.15 7,15.5 L7,15 C7,14.724 7.224,14.5 7.5,14.5 L11.25,14.5 C11.39,14.5 11.5,14.61 11.5,14.75 L11.5,18 Z M11.5,13.25 C11.5,13.39 11.39,13.5 11.25,13.5 L7.5,13.5 C7.224,13.5 7,13.276 7,13 L7,12.5 C7,10.85 8.35,9.5 10,9.5 L11,9.5 C11.276,9.5 11.5,9.724 11.5,10 L11.5,13.25 Z M17,15.5 C17,17.15 15.65,18.5 14,18.5 L13,18.5 C12.724,18.5 12.5,18.276 12.5,18 L12.5,14.75 C12.5,14.61 12.61,14.5 12.75,14.5 L16.5,14.5 C16.776,14.5 17,14.724 17,15 L17,15.5 Z M17,13 C17,13.276 16.776,13.5 16.5,13.5 L12.75,13.5 C12.61,13.5 12.5,13.39 12.5,13.25 L12.5,10 C12.5,9.724 12.724,9.5 13,9.5 L14,9.5 C15.65,9.5 17,10.85 17,12.5 L17,13 Z"/>
</svg>

