<svg xmlns="http://www.w3.org/2000/svg" width="24" height="24" viewBox="0 0 24 24">
  <defs/>
  <path fill="#292D32" d="M21.971,5.5 L21.971,9.5 C21.971,11.43 20.401,13 18.471,13 L16.971,13 L16.971,12.25 C16.971,9.35 14.621,7 11.721,7 L10.971,7 L10.971,5.5 C10.971,3.57 12.541,2 14.471,2 L18.471,2 C20.411,2 21.971,3.57 21.971,5.5 Z"/>
  <path fill="#292D32" opacity="0.4" d="M11.721,7 L10.971,7 L6.971,7 C4.211,7 1.971,9.24 1.971,12 L1.971,17 C1.971,19.76 4.211,22 6.971,22 L11.971,22 C14.731,22 16.971,19.76 16.971,17 L16.971,13 L16.971,12.25 C16.971,9.35 14.621,7 11.721,7 Z"/>
</svg>

