<svg xmlns="http://www.w3.org/2000/svg" width="24" height="24" viewBox="0 0 24 24">
  <defs/>
  <path fill="#292D32" d="M21.971,5.5 L21.971,9.5 C21.971,11.261 20.671,12.723 18.969,12.965 C18.696,13.004 18.471,12.776 18.471,12.5 L18.471,12.25 C18.471,8.53 15.451,5.5 11.721,5.5 L11.471,5.5 C11.195,5.5 10.967,5.275 11.006,5.002 C11.249,3.307 12.71,2 14.471,2 L18.471,2 C20.411,2 21.971,3.57 21.971,5.5 Z"/>
  <path fill="#292D32" d="M11.721,7 L10.971,7 L6.971,7 C4.211,7 1.971,9.24 1.971,12 L1.971,17 C1.971,19.76 4.211,22 6.971,22 L11.971,22 C14.731,22 16.971,19.76 16.971,17 L16.971,13 L16.971,12.25 C16.971,9.35 14.621,7 11.721,7 Z"/>
</svg>

