<svg xmlns="http://www.w3.org/2000/svg" width="24" height="24" viewBox="0 0 24 24">
  <defs/>
  <path fill="#292D32" d="M17.72,12.25 L17.72,16.75 Q17.72,19.873 16.282,21.312 Q14.843,22.75 11.72,22.75 L7.22,22.75 Q1.22,22.75 1.22,16.75 L1.22,12.25 Q1.22,6.25 7.22,6.25 L11.72,6.25 Q14.843,6.25 16.282,7.688 Q17.72,9.127 17.72,12.25 Z M16.22,12.25 Q16.22,9.748 15.221,8.749 Q14.222,7.75 11.72,7.75 L7.22,7.75 Q4.718,7.75 3.719,8.749 Q2.72,9.748 2.72,12.25 L2.72,16.75 Q2.72,21.25 7.22,21.25 L11.72,21.25 Q16.22,21.25 16.22,16.75 Z"/>
  <path fill="#292D32" d="M22.72,5.85 L22.72,9.15 Q22.72,13.75 18.12,13.75 L16.97,13.75 Q16.659,13.75 16.44,13.53 Q16.22,13.311 16.22,13 L16.22,12.25 Q16.22,7.75 11.72,7.75 L10.97,7.75 Q10.659,7.75 10.44,7.53 Q10.22,7.311 10.22,7 L10.22,5.85 Q10.22,1.25 14.82,1.25 L18.12,1.25 Q20.493,1.25 21.607,2.363 Q22.72,3.477 22.72,5.85 Z M21.22,5.85 Q21.22,2.75 18.12,2.75 L14.82,2.75 Q13.068,2.75 12.394,3.424 Q11.72,4.098 11.72,5.85 L11.72,6.25 Q14.843,6.25 16.282,7.688 Q17.72,9.127 17.72,12.25 L18.12,12.25 Q21.22,12.25 21.22,9.15 Z"/>
</svg>

