<svg xmlns="http://www.w3.org/2000/svg" width="24" height="24" viewBox="0 0 24 24">
  <defs/>
  <path fill="#292D32" d="M17.721,12.25 L17.721,16.75 Q17.721,19.873 16.282,21.312 Q14.844,22.75 11.721,22.75 L7.221,22.75 Q4.098,22.75 2.659,21.312 Q1.221,19.873 1.221,16.75 L1.221,12.25 Q1.221,6.25 7.221,6.25 L11.721,6.25 Q14.844,6.25 16.282,7.688 Q17.721,9.127 17.721,12.25 Z M16.221,12.25 Q16.221,7.75 11.721,7.75 L7.221,7.75 Q4.719,7.75 3.72,8.749 Q2.721,9.748 2.721,12.25 L2.721,16.75 Q2.721,19.252 3.72,20.251 Q4.719,21.25 7.221,21.25 L11.721,21.25 Q16.221,21.25 16.221,16.75 Z"/>
  <path fill="#292D32" opacity="0.4" d="M22.721,5.85 L22.721,9.15 Q22.721,11.523 21.607,12.637 Q20.494,13.75 18.121,13.75 L16.971,13.75 Q16.66,13.75 16.44,13.53 Q16.221,13.311 16.221,13 L16.221,12.25 Q16.221,7.75 11.721,7.75 L10.971,7.75 Q10.66,7.75 10.44,7.53 Q10.221,7.311 10.221,7 L10.221,5.85 Q10.221,1.25 14.821,1.25 L18.121,1.25 Q22.721,1.25 22.721,5.85 Z M21.221,5.85 Q21.221,2.75 18.121,2.75 L14.821,2.75 Q13.069,2.75 12.395,3.424 Q11.721,4.098 11.721,5.85 L11.721,6.25 Q14.844,6.25 16.282,7.688 Q17.721,9.127 17.721,12.25 L18.121,12.25 Q19.873,12.25 20.547,11.576 Q21.221,10.902 21.221,9.15 Z"/>
</svg>

