<svg xmlns="http://www.w3.org/2000/svg" width="24" height="24" viewBox="0 0 24 24">
  <defs/>
  <path fill="#292D32" d="M11.721,22.75 L7.221,22.75 C3.071,22.75 1.221,20.9 1.221,16.75 L1.221,12.25 C1.221,8.1 3.071,6.25 7.221,6.25 L11.721,6.25 C15.871,6.25 17.721,8.1 17.721,12.25 L17.721,16.75 C17.721,20.9 15.871,22.75 11.721,22.75 Z M7.221,7.75 C3.901,7.75 2.721,8.93 2.721,12.25 L2.721,16.75 C2.721,20.07 3.901,21.25 7.221,21.25 L11.721,21.25 C15.041,21.25 16.221,20.07 16.221,16.75 L16.221,12.25 C16.221,8.93 15.041,7.75 11.721,7.75 L7.221,7.75 Z"/>
  <path fill="#292D32" d="M18.121,13.75 L16.971,13.75 C16.561,13.75 16.221,13.41 16.221,13 L16.221,12.25 C16.221,8.93 15.041,7.75 11.721,7.75 L10.971,7.75 C10.561,7.75 10.221,7.41 10.221,7 L10.221,5.85 C10.221,2.67 11.641,1.25 14.821,1.25 L18.121,1.25 C21.301,1.25 22.721,2.67 22.721,5.85 L22.721,9.15 C22.721,12.33 21.301,13.75 18.121,13.75 Z M17.721,12.25 L18.121,12.25 C20.471,12.25 21.221,11.5 21.221,9.15 L21.221,5.85 C21.221,3.5 20.471,2.75 18.121,2.75 L14.821,2.75 C12.471,2.75 11.721,3.5 11.721,5.85 L11.721,6.25 C15.871,6.25 17.721,8.1 17.721,12.25 Z"/>
</svg>

