<svg xmlns="http://www.w3.org/2000/svg" width="24" height="24" viewBox="0 0 24 24">
  <defs/>
  <path d="M14.54,1.51 Q15.623,1.51 16.386,2.273 Q17.15,3.037 17.15,4.12 L17.15,8.76 Q17.15,11.37 14.54,11.37 Q13.457,11.37 12.693,10.607 Q11.93,9.843 11.93,8.76 L11.93,4.12 Q11.93,3.037 12.693,2.273 Q13.457,1.51 14.54,1.51 Z M14.54,3.01 Q14.078,3.01 13.754,3.334 Q13.43,3.658 13.43,4.12 L13.43,8.76 Q13.43,9.87 14.54,9.87 Q15.65,9.87 15.65,8.76 L15.65,4.12 Q15.65,3.658 15.326,3.334 Q15.002,3.01 14.54,3.01 Z"/>
  <path d="M18.619,11.37 Q18.308,11.37 18.089,11.15 Q17.869,10.931 17.869,10.62 L17.869,9.05 Q17.869,6.73 20.189,6.73 Q21.152,6.73 21.831,7.408 Q22.509,8.087 22.509,9.05 Q22.509,11.37 20.189,11.37 Z M19.369,9.87 L20.189,9.87 Q21.009,9.87 21.009,9.05 Q21.009,8.708 20.77,8.469 Q20.531,8.23 20.189,8.23 Q19.779,8.23 19.574,8.435 Q19.369,8.64 19.369,9.05 L19.369,9.87 Z"/>
  <path d="M3.86,8.12 Q3.398,8.12 3.074,8.444 Q2.75,8.768 2.75,9.23 Q2.75,9.692 3.074,10.016 Q3.398,10.34 3.86,10.34 L8.5,10.34 Q9.61,10.34 9.61,9.23 Q9.61,8.12 8.5,8.12 L7.75,8.12 Q7.439,8.12 7.22,7.9 Q7,7.681 7,7.37 Q7,7.059 7.22,6.84 Q7.439,6.62 7.75,6.62 L8.5,6.62 Q11.11,6.62 11.11,9.23 Q11.11,11.84 8.5,11.84 L3.86,11.84 Q2.777,11.84 2.013,11.077 Q1.25,10.313 1.25,9.23 Q1.25,8.147 2.013,7.384 Q2.777,6.62 3.86,6.62 Q4.171,6.62 4.39,6.84 Q4.61,7.059 4.61,7.37 Q4.61,7.681 4.39,7.9 Q4.171,8.12 3.86,8.12 Z"/>
  <path d="M11.111,5.13 Q11.111,5.441 10.891,5.66 Q10.671,5.88 10.361,5.88 L8.791,5.88 Q6.471,5.88 6.471,3.56 Q6.471,1.24 8.791,1.24 Q11.111,1.24 11.111,3.56 Z M9.611,4.38 L9.611,3.56 Q9.611,2.74 8.791,2.74 Q7.971,2.74 7.971,3.56 Q7.971,4.38 8.791,4.38 L9.611,4.38 Z"/>
  <path d="M9.43,22.52 Q8.348,22.52 7.583,21.752 Q6.82,20.986 6.82,19.91 L6.82,15.27 Q6.82,14.187 7.584,13.423 Q8.347,12.66 9.43,12.66 Q10.513,12.66 11.277,13.423 Q12.04,14.187 12.04,15.27 L12.04,19.91 Q12.04,20.993 11.277,21.756 Q10.513,22.52 9.43,22.52 Z M9.43,21.02 Q10.54,21.02 10.54,19.91 L10.54,15.27 Q10.54,14.16 9.43,14.16 Q8.968,14.16 8.644,14.484 Q8.32,14.808 8.32,15.27 L8.32,19.91 Q8.32,21.02 9.43,21.02 Z"/>
  <path d="M5.361,12.66 Q5.671,12.66 5.891,12.88 Q6.111,13.099 6.111,13.41 L6.111,14.98 Q6.111,17.3 3.791,17.3 Q2.828,17.3 2.149,16.621 Q1.471,15.943 1.471,14.98 Q1.471,12.66 3.791,12.66 Z M4.611,14.16 L3.791,14.16 Q2.971,14.16 2.971,14.98 Q2.971,15.8 3.791,15.8 Q4.611,15.8 4.611,14.98 L4.611,14.16 Z"/>
  <path d="M22.719,14.8 Q22.719,15.883 21.956,16.646 Q21.193,17.41 20.109,17.41 L15.469,17.41 Q12.859,17.41 12.859,14.8 Q12.859,12.19 15.469,12.19 L20.109,12.19 Q22.719,12.19 22.719,14.8 Z M21.219,14.8 Q21.219,13.69 20.109,13.69 L15.469,13.69 Q14.359,13.69 14.359,14.8 Q14.359,15.91 15.469,15.91 L20.109,15.91 Q21.219,15.91 21.219,14.8 Z"/>
  <path d="M12.859,18.84 Q12.859,18.529 13.079,18.31 Q13.299,18.09 13.609,18.09 L15.179,18.09 Q16.143,18.09 16.821,18.769 Q17.499,19.447 17.499,20.41 Q17.499,22.73 15.179,22.73 Q14.216,22.73 13.538,22.052 Q12.859,21.373 12.859,20.41 Z M14.359,19.59 L14.359,20.41 Q14.359,21.23 15.179,21.23 Q15.999,21.23 15.999,20.41 Q15.999,20.068 15.76,19.829 Q15.521,19.59 15.179,19.59 L14.359,19.59 Z"/>
</svg>

