<svg xmlns="http://www.w3.org/2000/svg" width="24" height="24" viewBox="0 0 24 24">
  <defs/>
  <path fill="white" opacity="0.58" d="M24,0 L0,0 L0,24 L24,24 L24,0 Z"/>
  <path fill="#292D32" d="M14.54,1.88 C13.31,1.88 12.31,2.88 12.31,4.11 L12.31,8.75 C12.31,9.98 13.31,10.98 14.54,10.98 C15.771,10.98 16.771,9.98 16.771,8.75 L16.771,4.11 C16.771,2.89 15.771,1.88 14.54,1.88 Z"/>
  <path fill="#292D32" opacity="0.4" d="M20.18,7.11 C19.11,7.11 18.24,7.98 18.24,9.05 L18.24,10.62 C18.24,10.83 18.41,11 18.62,11 L20.19,11 C21.26,11 22.13,10.13 22.13,9.06 C22.13,7.99 21.25,7.11 20.18,7.11 Z"/>
  <path fill="#292D32" d="M8.501,6.99 L3.861,6.99 C2.631,6.99 1.631,7.99 1.631,9.22 C1.631,10.45 2.631,11.45 3.861,11.45 L8.501,11.45 C9.731,11.45 10.731,10.45 10.731,9.22 C10.731,7.99 9.731,6.99 8.501,6.99 Z"/>
  <path fill="#292D32" opacity="0.4" d="M8.79,1.62 C7.72,1.62 6.85,2.49 6.85,3.56 C6.85,4.63 7.72,5.5 8.79,5.5 L10.36,5.5 C10.57,5.5 10.74,5.33 10.74,5.12 L10.74,3.55 C10.73,2.5 9.86,1.62 8.79,1.62 Z"/>
  <path fill="#292D32" d="M9.429,13.03 C8.199,13.03 7.199,14.03 7.199,15.26 L7.199,19.9 C7.199,21.13 8.199,22.13 9.429,22.13 C10.659,22.13 11.659,21.13 11.659,19.9 L11.659,15.26 C11.659,14.03 10.659,13.03 9.429,13.03 Z"/>
  <path fill="#292D32" opacity="0.4" d="M5.36,13.03 L3.79,13.03 C2.72,13.03 1.85,13.9 1.85,14.97 C1.85,16.04 2.72,16.91 3.79,16.91 C4.86,16.91 5.73,16.04 5.73,14.97 L5.73,13.4 C5.73,13.2 5.56,13.03 5.36,13.03 Z"/>
  <path fill="#292D32" d="M20.11,12.57 L15.47,12.57 C14.24,12.57 13.24,13.57 13.24,14.8 C13.24,16.03 14.24,17.03 15.47,17.03 L20.11,17.03 C21.34,17.03 22.34,16.03 22.34,14.8 C22.34,13.57 21.34,12.57 20.11,12.57 Z"/>
  <path fill="#292D32" opacity="0.4" d="M15.181,18.47 L13.611,18.47 C13.4,18.47 13.23,18.64 13.23,18.85 L13.23,20.42 C13.23,21.49 14.101,22.36 15.171,22.36 C16.241,22.36 17.11,21.49 17.11,20.42 C17.12,19.34 16.25,18.47 15.181,18.47 Z"/>
</svg>

