<svg xmlns="http://www.w3.org/2000/svg" width="24" height="24" viewBox="0 0 24 24">
  <defs/>
  <path fill="#17191C" d="M14.5,1.55 Q15.62,1.55 16.383,2.285 Q17.15,3.024 17.15,4.1 L17.15,8.8 Q17.15,11.45 14.5,11.45 Q13.373,11.45 12.598,10.646 Q11.85,9.87 11.85,8.8 L11.85,4.2 Q11.85,1.55 14.5,1.55 Z M14.5,3.05 Q13.35,3.05 13.35,4.2 L13.35,8.8 Q13.35,9.95 14.5,9.95 Q14.965,9.95 15.305,9.623 Q15.65,9.289 15.65,8.8 L15.65,4.1 Q15.65,3.662 15.342,3.365 Q15.015,3.05 14.5,3.05 Z"/>
  <path fill="#17191C" d="M18.6,11.35 Q18.289,11.35 18.07,11.13 Q17.85,10.911 17.85,10.6 L17.85,9 Q17.85,8.014 18.532,7.332 Q19.214,6.65 20.2,6.65 Q21.186,6.65 21.868,7.332 Q22.55,8.014 22.55,9 Q22.55,9.986 21.868,10.668 Q21.186,11.35 20.2,11.35 Z M19.35,9.85 L20.2,9.85 Q21.05,9.85 21.05,9 Q21.05,8.636 20.807,8.393 Q20.564,8.15 20.2,8.15 Q19.775,8.15 19.563,8.362 Q19.35,8.575 19.35,9 L19.35,9.85 Z"/>
  <path fill="#17191C" d="M1.25,9.2 Q1.25,6.788 3.832,6.553 Q3.866,6.55 3.9,6.55 L8.5,6.55 Q11.15,6.55 11.15,9.2 Q11.15,11.85 8.5,11.85 L3.9,11.85 Q1.25,11.85 1.25,9.2 Z M2.75,9.2 Q2.75,9.665 3.077,10.004 Q3.411,10.35 3.9,10.35 L8.5,10.35 Q9.65,10.35 9.65,9.2 Q9.65,8.05 8.5,8.05 L3.936,8.05 Q2.75,8.171 2.75,9.2 Z"/>
  <path fill="#17191C" d="M11.15,5.2 Q11.15,5.511 10.93,5.73 Q10.711,5.95 10.4,5.95 L8.8,5.95 Q7.814,5.95 7.132,5.268 Q6.45,4.586 6.45,3.6 Q6.45,1.25 8.8,1.25 Q9.786,1.25 10.468,1.932 Q11.15,2.614 11.15,3.6 L11.15,5.2 Z M9.65,4.45 L9.65,3.6 Q9.65,3.236 9.407,2.993 Q9.164,2.75 8.8,2.75 Q8.436,2.75 8.193,2.993 Q7.95,3.236 7.95,3.6 Q7.95,4.45 8.8,4.45 L9.65,4.45 Z"/>
  <path fill="#17191C" d="M9.4,22.55 Q7.011,22.55 6.754,19.975 Q6.75,19.937 6.75,19.9 L6.75,15.3 Q6.75,14.173 7.554,13.398 Q8.33,12.65 9.4,12.65 Q12.05,12.65 12.05,15.3 L12.05,19.9 Q12.05,22.55 9.4,22.55 Z M9.4,21.05 Q9.865,21.05 10.204,20.723 Q10.55,20.389 10.55,19.9 L10.55,15.3 Q10.55,14.835 10.223,14.496 Q9.889,14.15 9.4,14.15 Q8.25,14.15 8.25,15.3 L8.25,19.86 Q8.384,21.05 9.4,21.05 Z"/>
  <path fill="#17191C" d="M5.4,12.65 Q5.711,12.65 5.93,12.87 Q6.15,13.089 6.15,13.4 L6.15,15 Q6.15,17.35 3.8,17.35 Q2.814,17.35 2.132,16.668 Q1.45,15.986 1.45,15 Q1.45,12.65 3.8,12.65 Z M4.65,14.15 L3.8,14.15 Q2.95,14.15 2.95,15 Q2.95,15.85 3.8,15.85 Q4.65,15.85 4.65,15 L4.65,14.15 Z"/>
  <path fill="#17191C" d="M22.75,14.8 Q22.75,15.861 21.955,16.655 Q21.161,17.45 20.1,17.45 L15.5,17.45 Q14.373,17.45 13.598,16.646 Q12.85,15.87 12.85,14.8 Q12.85,13.673 13.654,12.898 Q14.43,12.15 15.5,12.15 L20.1,12.15 Q21.227,12.15 22.002,12.954 Q22.75,13.73 22.75,14.8 Z M21.25,14.8 Q21.25,13.65 20.1,13.65 L15.5,13.65 Q15.035,13.65 14.696,13.977 Q14.35,14.311 14.35,14.8 Q14.35,15.375 14.638,15.662 Q14.925,15.95 15.5,15.95 L20.1,15.95 Q21.25,15.95 21.25,14.8 Z"/>
  <path fill="#17191C" d="M12.85,18.8 Q12.85,18.489 13.07,18.27 Q13.289,18.05 13.6,18.05 L15.2,18.05 Q16.186,18.05 16.868,18.732 Q17.55,19.414 17.55,20.4 Q17.55,21.386 16.868,22.068 Q16.186,22.75 15.2,22.75 Q12.85,22.75 12.85,20.4 Z M14.35,19.55 L14.35,20.4 Q14.35,21.25 15.2,21.25 Q16.05,21.25 16.05,20.4 Q16.05,19.55 15.2,19.55 L14.35,19.55 Z"/>
</svg>

