<svg xmlns="http://www.w3.org/2000/svg" width="24" height="24" viewBox="0 0 24 24">
  <defs/>
  <path d="M14.54,1.879 C13.31,1.879 12.31,2.879 12.31,4.109 L12.31,8.749 C12.31,9.979 13.31,10.979 14.54,10.979 C15.771,10.979 16.771,9.979 16.771,8.749 L16.771,4.109 C16.771,2.889 15.771,1.879 14.54,1.879 Z"/>
  <path d="M20.18,7.109 C19.11,7.109 18.24,7.979 18.24,9.049 L18.24,10.619 C18.24,10.829 18.41,10.999 18.62,10.999 L20.19,10.999 C21.26,10.999 22.13,10.129 22.13,9.059 C22.13,7.989 21.25,7.109 20.18,7.109 Z"/>
  <path d="M8.501,6.988 L3.861,6.988 C2.631,6.988 1.631,7.988 1.631,9.218 C1.631,10.448 2.631,11.448 3.861,11.448 L8.501,11.448 C9.731,11.448 10.731,10.448 10.731,9.218 C10.731,7.988 9.731,6.988 8.501,6.988 Z"/>
  <path d="M8.79,1.621 C7.72,1.621 6.85,2.491 6.85,3.561 C6.85,4.631 7.72,5.501 8.79,5.501 L10.36,5.501 C10.57,5.501 10.74,5.331 10.74,5.121 L10.74,3.551 C10.73,2.501 9.86,1.621 8.79,1.621 Z"/>
  <path d="M9.429,13.031 C8.199,13.031 7.199,14.031 7.199,15.261 L7.199,19.901 C7.199,21.131 8.199,22.131 9.429,22.131 C10.659,22.131 11.659,21.131 11.659,19.901 L11.659,15.261 C11.659,14.031 10.659,13.031 9.429,13.031 Z"/>
  <path d="M5.36,13.031 L3.79,13.031 C2.72,13.031 1.85,13.901 1.85,14.971 C1.85,16.041 2.72,16.911 3.79,16.911 C4.86,16.911 5.73,16.041 5.73,14.971 L5.73,13.401 C5.73,13.201 5.56,13.031 5.36,13.031 Z"/>
  <path d="M20.11,12.57 L15.47,12.57 C14.24,12.57 13.24,13.57 13.24,14.8 C13.24,16.03 14.24,17.03 15.47,17.03 L20.11,17.03 C21.34,17.03 22.34,16.03 22.34,14.8 C22.34,13.57 21.34,12.57 20.11,12.57 Z"/>
  <path d="M15.181,18.469 L13.611,18.469 C13.4,18.469 13.23,18.639 13.23,18.849 L13.23,20.419 C13.23,21.489 14.101,22.359 15.171,22.359 C16.241,22.359 17.11,21.489 17.11,20.419 C17.12,19.339 16.25,18.469 15.181,18.469 Z"/>
</svg>

