<svg xmlns="http://www.w3.org/2000/svg" width="24" height="24" viewBox="0 0 24 24">
  <defs/>
  <path d="M14.54,1.51 Q17.15,1.51 17.15,4.12 L17.15,8.76 Q17.15,11.37 14.54,11.37 Q13.457,11.37 12.693,10.606 Q11.93,9.843 11.93,8.76 L11.93,4.12 Q11.93,3.037 12.693,2.273 Q13.457,1.51 14.54,1.51 Z M14.54,3.01 Q14.078,3.01 13.754,3.334 Q13.43,3.658 13.43,4.12 L13.43,8.76 Q13.43,9.87 14.54,9.87 Q15.002,9.87 15.326,9.546 Q15.65,9.222 15.65,8.76 L15.65,4.12 Q15.65,3.01 14.54,3.01 Z"/>
  <path opacity="0.4" d="M18.62,11.37 Q18.309,11.37 18.09,11.15 Q17.87,10.931 17.87,10.62 L17.87,9.05 Q17.87,8.087 18.549,7.408 Q19.227,6.73 20.19,6.73 Q21.153,6.73 21.832,7.408 Q22.51,8.087 22.51,9.05 Q22.51,10.013 21.832,10.692 Q21.153,11.37 20.19,11.37 Z M19.37,9.87 L20.19,9.87 Q21.01,9.87 21.01,9.05 Q21.01,8.708 20.771,8.469 Q20.532,8.23 20.19,8.23 Q19.78,8.23 19.575,8.435 Q19.37,8.64 19.37,9.05 L19.37,9.87 Z"/>
  <path d="M1.25,9.23 Q1.25,8.147 2.013,7.384 Q2.777,6.62 3.86,6.62 L8.5,6.62 Q11.11,6.62 11.11,9.23 Q11.11,11.84 8.5,11.84 L3.86,11.84 Q2.777,11.84 2.013,11.077 Q1.25,10.313 1.25,9.23 Z M2.75,9.23 Q2.75,9.692 3.074,10.016 Q3.398,10.34 3.86,10.34 L8.5,10.34 Q9.61,10.34 9.61,9.23 Q9.61,8.12 8.5,8.12 L3.86,8.12 Q3.398,8.12 3.074,8.444 Q2.75,8.768 2.75,9.23 Z"/>
  <path opacity="0.4" d="M11.11,5.13 Q11.11,5.441 10.89,5.661 Q10.67,5.88 10.36,5.88 L8.79,5.88 Q7.827,5.88 7.148,5.202 Q6.47,4.523 6.47,3.56 Q6.47,1.24 8.79,1.24 Q9.753,1.24 10.431,1.919 Q11.11,2.597 11.11,3.56 Z M9.61,4.38 L9.61,3.56 Q9.61,3.218 9.371,2.979 Q9.132,2.74 8.79,2.74 Q7.97,2.74 7.97,3.56 Q7.97,4.38 8.79,4.38 L9.61,4.38 Z"/>
  <path d="M9.43,22.52 Q8.348,22.52 7.583,21.752 Q6.82,20.987 6.82,19.91 L6.82,15.27 Q6.82,14.187 7.584,13.424 Q8.347,12.66 9.43,12.66 Q10.513,12.66 11.277,13.424 Q12.04,14.187 12.04,15.27 L12.04,19.91 Q12.04,20.993 11.277,21.757 Q10.513,22.52 9.43,22.52 Z M9.43,21.02 Q10.54,21.02 10.54,19.91 L10.54,15.27 Q10.54,14.16 9.43,14.16 Q8.968,14.16 8.644,14.484 Q8.32,14.808 8.32,15.27 L8.32,19.91 Q8.32,21.02 9.43,21.02 Z"/>
  <path opacity="0.4" d="M5.36,12.66 Q5.67,12.66 5.89,12.88 Q6.11,13.1 6.11,13.41 L6.11,14.98 Q6.11,17.3 3.79,17.3 Q2.827,17.3 2.148,16.622 Q1.47,15.943 1.47,14.98 Q1.47,14.017 2.148,13.339 Q2.827,12.66 3.79,12.66 Z M4.61,14.16 L3.79,14.16 Q3.448,14.16 3.209,14.399 Q2.97,14.638 2.97,14.98 Q2.97,15.8 3.79,15.8 Q4.61,15.8 4.61,14.98 L4.61,14.16 Z"/>
  <path d="M22.72,14.8 Q22.72,15.883 21.957,16.646 Q21.194,17.41 20.11,17.41 L15.47,17.41 Q12.86,17.41 12.86,14.8 Q12.86,12.19 15.47,12.19 L20.11,12.19 Q22.72,12.19 22.72,14.8 Z M21.22,14.8 Q21.22,13.69 20.11,13.69 L15.47,13.69 Q14.36,13.69 14.36,14.8 Q14.36,15.91 15.47,15.91 L20.11,15.91 Q20.572,15.91 20.896,15.586 Q21.22,15.262 21.22,14.8 Z"/>
  <path opacity="0.4" d="M12.86,18.84 Q12.86,18.529 13.08,18.309 Q13.3,18.09 13.61,18.09 L15.18,18.09 Q17.5,18.09 17.5,20.41 Q17.5,21.373 16.822,22.051 Q16.143,22.73 15.18,22.73 Q12.86,22.73 12.86,20.41 Z M14.36,19.59 L14.36,20.41 Q14.36,21.23 15.18,21.23 Q16,21.23 16,20.41 Q16,19.59 15.18,19.59 L14.36,19.59 Z"/>
</svg>

