<svg xmlns="http://www.w3.org/2000/svg" width="24" height="24" viewBox="0 0 24 24">
  <defs/>
  <path d="M14.54,11.37 C13.1,11.37 11.93,10.2 11.93,8.76 L11.93,4.12 C11.93,2.68 13.1,1.51 14.54,1.51 C15.98,1.51 17.15,2.68 17.15,4.12 L17.15,8.76 C17.15,10.2 15.98,11.37 14.54,11.37 Z M14.54,3.01 C13.93,3.01 13.43,3.51 13.43,4.12 L13.43,8.76 C13.43,9.37 13.93,9.87 14.54,9.87 C15.15,9.87 15.65,9.37 15.65,8.76 L15.65,4.12 C15.65,3.51 15.15,3.01 14.54,3.01 Z"/>
  <path d="M20.18,11.37 L18.61,11.37 C18.2,11.37 17.86,11.03 17.86,10.62 L17.86,9.05 C17.86,7.77 18.9,6.73 20.18,6.73 C21.46,6.73 22.5,7.77 22.5,9.05 C22.5,10.33 21.46,11.37 20.18,11.37 Z M19.37,9.87 L20.19,9.87 C20.64,9.87 21.01,9.5 21.01,9.05 C21.01,8.6 20.64,8.23 20.19,8.23 C19.74,8.23 19.37,8.6 19.37,9.05 L19.37,9.87 Z"/>
  <path d="M8.5,11.83 L3.86,11.83 C2.42,11.83 1.25,10.66 1.25,9.22 C1.25,7.78 2.42,6.61 3.86,6.61 L8.5,6.61 C9.94,6.61 11.11,7.78 11.11,9.22 C11.11,10.66 9.94,11.83 8.5,11.83 Z M3.86,8.12 C3.25,8.12 2.75,8.62 2.75,9.23 C2.75,9.84 3.25,10.34 3.86,10.34 L8.5,10.34 C9.11,10.34 9.61,9.84 9.61,9.23 C9.61,8.62 9.11,8.12 8.5,8.12 L3.86,8.12 Z"/>
  <path d="M10.36,5.88 L8.79,5.88 C7.51,5.88 6.47,4.84 6.47,3.56 C6.47,2.28 7.51,1.24 8.79,1.24 C10.07,1.24 11.11,2.28 11.11,3.56 L11.11,5.13 C11.11,5.55 10.77,5.88 10.36,5.88 Z M8.79,2.75 C8.34,2.75 7.97,3.12 7.97,3.57 C7.97,4.02 8.34,4.39 8.79,4.39 L9.61,4.39 L9.61,3.57 C9.61,3.12 9.24,2.75 8.79,2.75 Z"/>
  <path d="M9.43,22.52 C7.99,22.52 6.82,21.35 6.82,19.91 L6.82,15.27 C6.82,13.83 7.99,12.66 9.43,12.66 C10.87,12.66 12.04,13.83 12.04,15.27 L12.04,19.91 C12.04,21.35 10.87,22.52 9.43,22.52 Z M9.43,14.16 C8.82,14.16 8.32,14.66 8.32,15.27 L8.32,19.91 C8.32,20.52 8.82,21.02 9.43,21.02 C10.04,21.02 10.54,20.52 10.54,19.91 L10.54,15.27 C10.54,14.65 10.04,14.16 9.43,14.16 Z"/>
  <path d="M3.79,17.29 C2.51,17.29 1.47,16.25 1.47,14.97 C1.47,13.69 2.51,12.65 3.79,12.65 L5.36,12.65 C5.77,12.65 6.11,12.99 6.11,13.4 L6.11,14.97 C6.11,16.25 5.07,17.29 3.79,17.29 Z M3.79,14.16 C3.34,14.16 2.97,14.53 2.97,14.98 C2.97,15.43 3.34,15.8 3.79,15.8 C4.24,15.8 4.61,15.43 4.61,14.98 L4.61,14.16 L3.79,14.16 Z"/>
  <path d="M20.11,17.41 L15.47,17.41 C14.03,17.41 12.86,16.24 12.86,14.8 C12.86,13.36 14.03,12.19 15.47,12.19 L20.11,12.19 C21.55,12.19 22.72,13.36 22.72,14.8 C22.72,16.24 21.55,17.41 20.11,17.41 Z M15.47,13.69 C14.86,13.69 14.36,14.19 14.36,14.8 C14.36,15.41 14.86,15.91 15.47,15.91 L20.11,15.91 C20.72,15.91 21.22,15.41 21.22,14.8 C21.22,14.19 20.72,13.69 20.11,13.69 L15.47,13.69 Z"/>
  <path d="M15.18,22.73 C13.9,22.73 12.86,21.69 12.86,20.41 L12.86,18.84 C12.86,18.43 13.2,18.09 13.61,18.09 L15.18,18.09 C16.46,18.09 17.5,19.13 17.5,20.41 C17.5,21.69 16.45,22.73 15.18,22.73 Z M14.36,19.59 L14.36,20.41 C14.36,20.86 14.73,21.23 15.18,21.23 C15.63,21.23 16,20.86 16,20.41 C16,19.96 15.63,19.59 15.18,19.59 L14.36,19.59 Z"/>
</svg>

