<svg xmlns="http://www.w3.org/2000/svg" width="24" height="24" viewBox="0 0 24 24">
  <defs/>
  <path fill="#292D32" opacity="0.4" d="M19.53,5.53 L5.53,19.53 C5.51,19.55 5.5,19.56 5.48,19.57 C5.1,19.25 4.75,18.9 4.43,18.52 C2.91,16.77 2,14.49 2,12 C2,6.48 6.48,2 12,2 C14.49,2 16.77,2.91 18.52,4.43 C18.9,4.75 19.25,5.1 19.57,5.48 C19.56,5.5 19.55,5.51 19.53,5.53 Z"/>
  <path fill="#292D32" opacity="0.4" d="M22,12 C22,17.52 17.52,22 12,22 C10.01,22 8.16,21.42 6.6,20.4 L20.4,6.6 C21.42,8.16 22,10.01 22,12 Z"/>
  <path fill="#292D32" d="M21.771,2.23 C21.471,1.93 20.981,1.93 20.681,2.23 L2.231,20.69 C1.931,20.99 1.931,21.48 2.231,21.78 C2.381,21.92 2.571,22 2.771,22 C2.971,22 3.161,21.92 3.311,21.77 L21.771,3.31 C22.081,3.01 22.081,2.53 21.771,2.23 Z"/>
</svg>

