<svg xmlns="http://www.w3.org/2000/svg" width="24" height="24" viewBox="0 0 24 24">
  <defs/>
  <path fill="#292D32" d="M19.53,5.53 L5.53,19.53 C5.51,19.55 5.5,19.56 5.48,19.57 C5.1,19.25 4.75,18.9 4.43,18.52 C2.91,16.77 2,14.49 2,12 C2,6.48 6.48,2 12,2 C14.49,2 16.77,2.91 18.52,4.43 C18.9,4.75 19.25,5.1 19.57,5.48 C19.56,5.5 19.55,5.51 19.53,5.53 Z"/>
  <path fill="#292D32" d="M22.001,12.001 C22.001,17.491 17.491,22.001 12.001,22.001 C10.501,22.001 9.081,21.671 7.801,21.071 C7.181,20.781 7.061,19.951 7.541,19.461 L19.461,7.541 C19.941,7.061 20.781,7.181 21.071,7.801 C21.671,9.071 22.001,10.501 22.001,12.001 Z"/>
  <path fill="#292D32" d="M21.771,2.229 C21.471,1.929 20.981,1.929 20.681,2.229 L2.231,20.689 C1.931,20.989 1.931,21.479 2.231,21.779 C2.381,21.919 2.571,21.999 2.771,21.999 C2.971,21.999 3.161,21.919 3.311,21.769 L21.771,3.309 C22.081,3.009 22.081,2.529 21.771,2.229 Z"/>
</svg>

