<svg xmlns="http://www.w3.org/2000/svg" width="24" height="24" viewBox="0 0 24 24">
  <defs/>
  <path fill="#292D32" d="M7,5.25 L17,5.25 Q18.074,5.25 18.754,5.346 Q22.75,5.794 22.75,11 L22.75,13 Q22.75,18.206 18.754,18.654 Q18.074,18.75 17,18.75 L7,18.75 Q5.926,18.75 5.246,18.654 Q1.25,18.206 1.25,13 L1.25,11 Q1.25,5.794 5.246,5.346 Q5.926,5.25 7,5.25 Z M7,6.75 Q6.023,6.75 5.446,6.832 Q5.434,6.834 5.422,6.835 Q2.75,7.13 2.75,11 L2.75,13 Q2.75,16.87 5.422,17.165 Q5.434,17.166 5.446,17.168 Q6.023,17.25 7,17.25 L17,17.25 Q17.977,17.25 18.554,17.168 Q18.566,17.166 18.578,17.165 Q21.25,16.87 21.25,13 L21.25,11 Q21.25,7.13 18.578,6.835 Q18.566,6.834 18.554,6.832 Q17.977,6.75 17,6.75 Z"/>
  <path fill="#292D32" opacity="0.4" d="M17,17.25 Q17.977,17.25 18.554,17.168 Q18.862,17.124 19.11,17.31 Q19.359,17.497 19.403,17.804 Q19.406,17.83 19.408,17.857 Q19.42,18.023 19.42,18.33 L19.42,18.67 Q19.42,22.75 15.33,22.75 L8.67,22.75 Q6.358,22.75 5.469,21.864 Q4.58,20.977 4.58,18.67 L4.58,18.33 Q4.58,18.023 4.592,17.857 Q4.614,17.547 4.849,17.343 Q5.084,17.14 5.394,17.162 Q5.42,17.164 5.446,17.168 Q6.023,17.25 7,17.25 Z M17,18.75 L7,18.75 Q6.497,18.75 6.08,18.729 Q6.088,20.362 6.528,20.802 Q6.978,21.25 8.67,21.25 L15.33,21.25 Q17.022,21.25 17.472,20.802 Q17.912,20.362 17.92,18.729 Q17.503,18.75 17,18.75 Z"/>
  <path fill="#292D32" opacity="0.4" d="M8.67,1.25 L15.33,1.25 Q19.42,1.25 19.42,5.33 L19.42,5.67 Q19.42,5.977 19.408,6.143 Q19.386,6.453 19.151,6.657 Q18.917,6.86 18.607,6.838 Q18.58,6.836 18.554,6.832 Q17.977,6.75 17,6.75 L7,6.75 Q6.023,6.75 5.446,6.832 Q5.139,6.876 4.89,6.69 Q4.642,6.504 4.598,6.196 Q4.594,6.17 4.592,6.143 Q4.58,5.977 4.58,5.67 L4.58,5.33 Q4.58,1.25 8.67,1.25 Z M8.67,2.75 Q6.978,2.75 6.528,3.198 Q6.088,3.638 6.08,5.271 Q6.497,5.25 7,5.25 L17,5.25 Q17.503,5.25 17.92,5.271 Q17.912,3.638 17.472,3.198 Q17.022,2.75 15.33,2.75 Z"/>
</svg>

