<svg xmlns="http://www.w3.org/2000/svg" width="24" height="24" viewBox="0 0 24 24">
  <defs/>
  <path fill="#292D32" d="M19,16.01 L19,18 C19,20.2 17.5,22 15,22 L9,22 C6.5,22 5,20.2 5,18 L5,16.01 L19,16.01 Z"/>
  <path fill="#292D32" opacity="0.4" d="M19,6 L19,16.01 L5,16.01 L5,6 C5,3.8 6.5,2 9,2 L15,2 C17.5,2 19,3.8 19,6 Z"/>
  <path fill="#292D32" d="M3,20.75 C2.59,20.75 2.25,20.41 2.25,20 L2.25,4 C2.25,3.59 2.59,3.25 3,3.25 C3.41,3.25 3.75,3.59 3.75,4 L3.75,20 C3.75,20.41 3.41,20.75 3,20.75 Z"/>
  <path fill="#292D32" d="M21,20.75 C20.59,20.75 20.25,20.41 20.25,20 L20.25,4 C20.25,3.59 20.59,3.25 21,3.25 C21.41,3.25 21.75,3.59 21.75,4 L21.75,20 C21.75,20.41 21.41,20.75 21,20.75 Z"/>
</svg>

