<svg xmlns="http://www.w3.org/2000/svg" width="24" height="24" viewBox="0 0 24 24">
  <defs/>
  <path fill="#292D32" d="M16.5,19.75 L7.5,19.75 C6.75,19.75 6.2,19.72 5.73,19.65 C2.41,19.29 1.75,17.3 1.75,14 L1.75,10 C1.75,6.7 2.41,4.71 5.76,4.34 C6.2,4.28 6.75,4.25 7.5,4.25 L16.5,4.25 C17.25,4.25 17.8,4.28 18.27,4.35 C21.6,4.72 22.25,6.7 22.25,10 L22.25,14 C22.25,17.3 21.59,19.29 18.24,19.66 C17.8,19.72 17.25,19.75 16.5,19.75 Z M7.5,5.75 C6.82,5.75 6.34,5.78 5.95,5.83 C3.92,6.06 3.25,6.69 3.25,10 L3.25,14 C3.25,17.31 3.92,17.94 5.92,18.17 C6.34,18.23 6.82,18.25 7.5,18.25 L16.5,18.25 C17.18,18.25 17.66,18.22 18.05,18.17 C20.08,17.95 20.75,17.31 20.75,14 L20.75,10 C20.75,6.69 20.08,6.06 18.08,5.83 C17.66,5.77 17.18,5.75 16.5,5.75 L7.5,5.75 Z"/>
  <path fill="#292D32" d="M19.5,2.75 L4.5,2.75 C4.09,2.75 3.75,2.41 3.75,2 C3.75,1.59 4.09,1.25 4.5,1.25 L19.5,1.25 C19.91,1.25 20.25,1.59 20.25,2 C20.25,2.41 19.91,2.75 19.5,2.75 Z"/>
  <path fill="#292D32" d="M20,22.75 L5,22.75 C4.59,22.75 4.25,22.41 4.25,22 C4.25,21.59 4.59,21.25 5,21.25 L20,21.25 C20.41,21.25 20.75,21.59 20.75,22 C20.75,22.41 20.41,22.75 20,22.75 Z"/>
</svg>

