<svg xmlns="http://www.w3.org/2000/svg" width="24" height="24" viewBox="0 0 24 24">
  <defs/>
  <path fill="#292D32" d="M4.25,16.5 L4.25,7.5 Q4.25,6.426 4.346,5.746 Q4.794,1.75 10,1.75 L14,1.75 Q19.206,1.75 19.654,5.746 Q19.75,6.426 19.75,7.5 L19.75,16.5 Q19.75,17.574 19.654,18.254 Q19.206,22.25 14,22.25 L10,22.25 Q4.794,22.25 4.346,18.254 Q4.25,17.574 4.25,16.5 Z M5.75,16.5 Q5.75,17.477 5.832,18.054 Q5.834,18.066 5.835,18.078 Q6.13,20.75 10,20.75 L14,20.75 Q17.87,20.75 18.165,18.078 Q18.166,18.066 18.168,18.054 Q18.25,17.477 18.25,16.5 L18.25,7.5 Q18.25,6.523 18.168,5.946 Q18.166,5.934 18.165,5.922 Q17.87,3.25 14,3.25 L10,3.25 Q6.13,3.25 5.835,5.922 Q5.834,5.934 5.832,5.946 Q5.75,6.523 5.75,7.5 Z"/>
  <path fill="#292D32" d="M1.25,19.5 L1.25,4.5 Q1.25,4.189 1.47,3.97 Q1.689,3.75 2,3.75 Q2.311,3.75 2.53,3.97 Q2.75,4.189 2.75,4.5 L2.75,19.5 Q2.75,19.811 2.53,20.03 Q2.311,20.25 2,20.25 Q1.689,20.25 1.47,20.03 Q1.25,19.811 1.25,19.5 Z"/>
  <path fill="#292D32" d="M21.25,19 L21.25,4 Q21.25,3.689 21.47,3.47 Q21.689,3.25 22,3.25 Q22.311,3.25 22.53,3.47 Q22.75,3.689 22.75,4 L22.75,19 Q22.75,19.311 22.53,19.53 Q22.311,19.75 22,19.75 Q21.689,19.75 21.47,19.53 Q21.25,19.311 21.25,19 Z"/>
</svg>

