<svg xmlns="http://www.w3.org/2000/svg" width="24" height="24" viewBox="0 0 24 24">
  <defs/>
  <path fill="#292D32" d="M9,22 L15,22 C16.66,22 18,20.66 18,19 L18,5 C18,3.34 16.66,2 15,2 L9,2 C7.34,2 6,3.34 6,5 L6,19 C6,20.66 7.34,22 9,22 Z"/>
  <path fill="#292D32" d="M4.5,5.929 L4.5,18.069 C4.5,18.389 4.21,18.619 3.9,18.559 C2.42,18.289 2,17.429 2,15.329 L2,8.669 C2,6.569 2.42,5.709 3.9,5.439 C4.21,5.379 4.5,5.609 4.5,5.929 Z"/>
  <path fill="#292D32" d="M22,8.669 L22,15.329 C22,17.429 21.58,18.289 20.1,18.559 C19.79,18.619 19.5,18.379 19.5,18.069 L19.5,5.929 C19.5,5.609 19.79,5.379 20.1,5.439 C21.58,5.709 22,6.569 22,8.669 Z"/>
</svg>

