<svg xmlns="http://www.w3.org/2000/svg" width="24" height="24" viewBox="0 0 24 24">
  <defs/>
  <path fill="#292D32" d="M18.941,3.5 L5.061,3.5 C4.651,3.5 4.311,3.16 4.311,2.75 C4.311,2.34 4.651,2 5.061,2 L18.941,2 C19.351,2 19.691,2.34 19.691,2.75 C19.691,3.16 19.351,3.5 18.941,3.5 Z"/>
  <path fill="#292D32" d="M18.941,22 L5.061,22 C4.651,22 4.311,21.66 4.311,21.25 C4.311,20.84 4.651,20.5 5.061,20.5 L18.941,20.5 C19.351,20.5 19.691,20.84 19.691,21.25 C19.691,21.66 19.351,22 18.941,22 Z"/>
  <path fill="#292D32" d="M2.75,8 L2.75,16 C2.75,17.66 4.09,19 5.75,19 L18.25,19 C19.91,19 21.25,17.66 21.25,16 L21.25,8 C21.25,6.34 19.91,5 18.25,5 L5.75,5 C4.09,5 2.75,6.34 2.75,8 Z"/>
</svg>

