<svg xmlns="http://www.w3.org/2000/svg" width="24" height="24" viewBox="0 0 24 24">
  <defs/>
  <path fill="#292D32" opacity="0.4" d="M15,2 L9,2 C7.34,2 6,3.34 6,5 L6,19 C6,20.66 7.34,22 9,22 L15,22 C16.66,22 18,20.66 18,19 L18,5 C18,3.34 16.66,2 15,2 Z"/>
  <path fill="#292D32" d="M18.671,5.33 L18.331,5.33 C18.21,5.33 18.101,5.33 17.98,5.34 C17.991,5.39 18,5.44 18,5.5 L18,7 L18,17 L18,18.5 C18,18.56 17.991,18.61 17.98,18.66 C18.09,18.67 18.201,18.67 18.331,18.67 L18.671,18.67 C21.331,18.67 22,18 22,15.33 L22,8.67 C22,6 21.331,5.33 18.671,5.33 Z"/>
  <path fill="#292D32" d="M6,18.5 L6,17 L6,7 L6,5.5 C6,5.44 6.01,5.39 6.02,5.34 C5.9,5.33 5.79,5.33 5.67,5.33 L5.33,5.33 C2.67,5.33 2,6 2,8.67 L2,15.33 C2,18 2.67,18.67 5.33,18.67 L5.67,18.67 C5.79,18.67 5.9,18.67 6.02,18.66 C6.01,18.61 6,18.56 6,18.5 Z"/>
</svg>

