<svg xmlns="http://www.w3.org/2000/svg" width="24" height="24" viewBox="0 0 24 24">
  <defs/>
  <path fill="#292D32" d="M18.75,7 L18.75,17 Q18.75,18.074 18.654,18.754 Q18.206,22.75 13,22.75 L11,22.75 Q5.794,22.75 5.346,18.754 Q5.25,18.074 5.25,17 L5.25,7 Q5.25,5.926 5.346,5.246 Q5.794,1.25 11,1.25 L13,1.25 Q18.206,1.25 18.654,5.246 Q18.75,5.926 18.75,7 Z M17.25,7 Q17.25,6.023 17.168,5.446 Q17.166,5.434 17.165,5.422 Q16.87,2.75 13,2.75 L11,2.75 Q7.13,2.75 6.835,5.422 Q6.834,5.434 6.832,5.446 Q6.75,6.023 6.75,7 L6.75,17 Q6.75,17.977 6.832,18.554 Q6.834,18.566 6.835,18.578 Q7.13,21.25 11,21.25 L13,21.25 Q16.87,21.25 17.165,18.578 Q17.166,18.566 17.168,18.554 Q17.25,17.977 17.25,17 Z"/>
  <path fill="#292D32" d="M6.75,17 Q6.75,17.977 6.832,18.554 Q6.876,18.862 6.69,19.11 Q6.504,19.359 6.196,19.403 Q6.17,19.406 6.143,19.408 Q5.977,19.42 5.67,19.42 L5.33,19.42 Q1.25,19.42 1.25,15.33 L1.25,8.67 Q1.25,4.58 5.33,4.58 L5.67,4.58 Q5.977,4.58 6.143,4.592 Q6.453,4.614 6.657,4.849 Q6.86,5.084 6.838,5.394 Q6.836,5.42 6.832,5.446 Q6.75,6.023 6.75,7 Z M5.25,17 L5.25,7 Q5.25,6.497 5.271,6.08 Q3.638,6.088 3.198,6.528 Q2.75,6.978 2.75,8.67 L2.75,15.33 Q2.75,17.022 3.198,17.472 Q3.638,17.912 5.271,17.92 Q5.25,17.503 5.25,17 Z"/>
  <path fill="#292D32" d="M22.75,8.67 L22.75,15.33 Q22.75,19.42 18.67,19.42 L18.33,19.42 Q18.023,19.42 17.857,19.408 Q17.547,19.386 17.343,19.151 Q17.14,18.917 17.162,18.607 Q17.164,18.58 17.168,18.554 Q17.25,17.977 17.25,17 L17.25,7 Q17.25,6.023 17.168,5.446 Q17.124,5.139 17.31,4.89 Q17.496,4.642 17.804,4.598 Q17.83,4.594 17.857,4.592 Q18.023,4.58 18.33,4.58 L18.67,4.58 Q22.75,4.58 22.75,8.67 Z M21.25,8.67 Q21.25,6.978 20.802,6.528 Q20.362,6.088 18.729,6.08 Q18.75,6.497 18.75,7 L18.75,17 Q18.75,17.503 18.729,17.92 Q20.362,17.912 20.802,17.472 Q21.25,17.022 21.25,15.33 Z"/>
</svg>

