<svg xmlns="http://www.w3.org/2000/svg" width="24" height="24" viewBox="0 0 24 24">
  <defs/>
  <path fill="#292D32" d="M13,22.75 L11,22.75 C7.7,22.75 5.71,22.09 5.34,18.74 C5.28,18.29 5.25,17.75 5.25,17 L5.25,7 C5.25,6.25 5.28,5.71 5.35,5.23 C5.71,1.91 7.7,1.25 11,1.25 L13,1.25 C16.3,1.25 18.29,1.91 18.66,5.26 C18.72,5.71 18.75,6.25 18.75,7 L18.75,17 C18.75,17.75 18.72,18.29 18.65,18.77 C18.29,22.09 16.3,22.75 13,22.75 Z M11,2.75 C7.69,2.75 7.06,3.42 6.84,5.42 C6.78,5.85 6.75,6.32 6.75,7 L6.75,17 C6.75,17.68 6.78,18.15 6.83,18.55 C7.05,20.58 7.69,21.25 11,21.25 L13,21.25 C16.31,21.25 16.94,20.58 17.16,18.58 C17.22,18.16 17.25,17.68 17.25,17 L17.25,7 C17.25,6.33 17.22,5.85 17.17,5.45 C16.95,3.42 16.31,2.75 13,2.75 L11,2.75 Z"/>
  <path fill="#292D32" d="M5.67,19.42 L5.33,19.42 C2.24,19.42 1.25,18.43 1.25,15.33 L1.25,8.67 C1.25,5.57 2.24,4.58 5.33,4.58 L5.67,4.58 C5.84,4.58 5.98,4.58 6.14,4.59 C6.35,4.6 6.54,4.7 6.67,4.87 C6.8,5.04 6.86,5.24 6.83,5.45 C6.78,5.85 6.75,6.32 6.75,7 L6.75,17 C6.75,17.68 6.78,18.15 6.83,18.55 C6.86,18.76 6.8,18.97 6.67,19.13 C6.54,19.29 6.35,19.39 6.14,19.41 C5.98,19.42 5.84,19.42 5.67,19.42 Z M5.27,6.08 C3.08,6.09 2.75,6.44 2.75,8.67 L2.75,15.33 C2.75,17.56 3.08,17.91 5.27,17.92 C5.26,17.65 5.25,17.35 5.25,17 L5.25,7 C5.25,6.65 5.26,6.35 5.27,6.08 Z"/>
  <path fill="#292D32" d="M18.67,19.42 L18.33,19.42 C18.16,19.42 18.02,19.42 17.86,19.41 C17.65,19.4 17.46,19.3 17.33,19.13 C17.2,18.97 17.14,18.76 17.17,18.55 C17.23,18.15 17.25,17.67 17.25,17 L17.25,7 C17.25,6.33 17.22,5.85 17.17,5.45 C17.14,5.24 17.2,5.03 17.33,4.87 C17.46,4.71 17.65,4.61 17.86,4.59 C18.02,4.58 18.16,4.58 18.33,4.58 L18.67,4.58 C21.76,4.58 22.75,5.57 22.75,8.67 L22.75,15.33 C22.75,18.43 21.76,19.42 18.67,19.42 Z M18.73,6.08 C18.74,6.35 18.75,6.65 18.75,7 L18.75,17 C18.75,17.35 18.74,17.65 18.73,17.92 C20.92,17.91 21.25,17.56 21.25,15.33 L21.25,8.67 C21.25,6.44 20.92,6.09 18.73,6.08 Z"/>
</svg>

