<svg xmlns="http://www.w3.org/2000/svg" width="24" height="24" viewBox="0 0 24 24">
  <defs/>
  <path fill="#292D32" d="M3.5,5.06 L3.5,18.94 C3.5,19.35 3.16,19.69 2.75,19.69 C2.34,19.69 2,19.35 2,18.94 L2,5.06 C2,4.65 2.34,4.31 2.75,4.31 C3.16,4.31 3.5,4.65 3.5,5.06 Z"/>
  <path fill="#292D32" d="M22,5.06 L22,18.94 C22,19.35 21.66,19.69 21.25,19.69 C20.84,19.69 20.5,19.35 20.5,18.94 L20.5,5.06 C20.5,4.65 20.84,4.31 21.25,4.31 C21.66,4.31 22,4.65 22,5.06 Z"/>
  <path fill="#292D32" opacity="0.4" d="M7.6,21.25 L16.4,21.25 C18.06,21.25 19.4,19.91 19.4,18.25 L19.4,5.75 C19.4,4.09 18.06,2.75 16.4,2.75 L7.6,2.75 C5.94,2.75 4.6,4.09 4.6,5.75 L4.6,18.25 C4.6,19.91 5.94,21.25 7.6,21.25 Z"/>
</svg>

