<svg xmlns="http://www.w3.org/2000/svg" width="24" height="24" viewBox="0 0 24 24">
  <defs/>
  <path fill="#292D32" d="M22,15 L22,9 C22,7.34 20.66,6 19,6 L5,6 C3.34,6 2,7.34 2,9 L2,15 C2,16.66 3.34,18 5,18 L19,18 C20.66,18 22,16.66 22,15 Z"/>
  <path fill="#292D32" d="M5.929,19.5 L18.069,19.5 C18.389,19.5 18.619,19.79 18.559,20.1 C18.289,21.58 17.419,22 15.329,22 L8.669,22 C6.569,22 5.709,21.58 5.439,20.1 C5.379,19.79 5.609,19.5 5.929,19.5 Z"/>
  <path fill="#292D32" d="M8.669,2 L15.329,2 C17.429,2 18.289,2.42 18.559,3.9 C18.619,4.21 18.379,4.5 18.069,4.5 L5.929,4.5 C5.609,4.5 5.379,4.21 5.439,3.9 C5.709,2.42 6.569,2 8.669,2 Z"/>
</svg>

