<svg xmlns="http://www.w3.org/2000/svg" width="24" height="24" viewBox="0 0 24 24">
  <defs/>
  <path fill="#292D32" opacity="0.4" d="M2,9 L2,15 C2,16.66 3.34,18 5,18 L19,18 C20.66,18 22,16.66 22,15 L22,9 C22,7.34 20.66,6 19,6 L5,6 C3.34,6 2,7.34 2,9 Z"/>
  <path fill="#292D32" d="M5.33,5.33 L5.33,5.67 C5.33,5.79 5.33,5.9 5.34,6.02 C5.39,6.01 5.44,6 5.5,6 L7,6 L17,6 L18.5,6 C18.56,6 18.61,6.01 18.66,6.02 C18.67,5.91 18.67,5.8 18.67,5.67 L18.67,5.33 C18.67,2.67 18,2 15.33,2 L8.67,2 C6,2 5.33,2.67 5.33,5.33 Z"/>
  <path fill="#292D32" d="M18.5,18 L17,18 L7,18 L5.5,18 C5.44,18 5.39,17.99 5.34,17.98 C5.33,18.09 5.33,18.2 5.33,18.33 L5.33,18.67 C5.33,21.33 6,22 8.67,22 L15.33,22 C18,22 18.67,21.33 18.67,18.67 L18.67,18.33 C18.67,18.21 18.67,18.1 18.66,17.98 C18.61,17.99 18.56,18 18.5,18 Z"/>
</svg>

