<svg xmlns="http://www.w3.org/2000/svg" width="24" height="24" viewBox="0 0 24 24">
  <defs/>
  <path fill="#292D32" d="M15,22.75 L9,22.75 Q6.854,22.75 5.518,21.341 Q4.25,20.004 4.25,18 L4.25,6 Q4.25,1.25 9,1.25 L15,1.25 Q19.75,1.25 19.75,6 L19.75,18 Q19.75,22.75 15,22.75 Z M15,21.25 Q18.25,21.25 18.25,18 L18.25,6 Q18.25,2.75 15,2.75 L9,2.75 Q5.75,2.75 5.75,6 L5.75,18 Q5.75,19.405 6.607,20.309 Q7.499,21.25 9,21.25 Z"/>
  <path fill="#292D32" d="M5,15.26 L19,15.26 Q19.311,15.26 19.53,15.48 Q19.75,15.699 19.75,16.01 Q19.75,16.321 19.53,16.54 Q19.311,16.76 19,16.76 L5,16.76 Q4.689,16.76 4.47,16.54 Q4.25,16.321 4.25,16.01 Q4.25,15.699 4.47,15.48 Q4.689,15.26 5,15.26 Z"/>
  <path fill="#292D32" d="M2.75,4 L2.75,20 Q2.75,20.311 2.53,20.53 Q2.311,20.75 2,20.75 Q1.689,20.75 1.47,20.53 Q1.25,20.311 1.25,20 L1.25,4 Q1.25,3.689 1.47,3.47 Q1.689,3.25 2,3.25 Q2.311,3.25 2.53,3.47 Q2.75,3.689 2.75,4 Z"/>
  <path fill="#292D32" d="M22.75,4 L22.75,20 Q22.75,20.311 22.53,20.53 Q22.311,20.75 22,20.75 Q21.689,20.75 21.47,20.53 Q21.25,20.311 21.25,20 L21.25,4 Q21.25,3.689 21.47,3.47 Q21.689,3.25 22,3.25 Q22.311,3.25 22.53,3.47 Q22.75,3.689 22.75,4 Z"/>
</svg>

