<svg xmlns="http://www.w3.org/2000/svg" width="24" height="24" viewBox="0 0 24 24">
  <defs/>
  <path fill="#292D32" d="M3.5,5.059 L3.5,18.939 C3.5,19.349 3.16,19.689 2.75,19.689 C2.34,19.689 2,19.349 2,18.939 L2,5.059 C2,4.649 2.34,4.309 2.75,4.309 C3.16,4.309 3.5,4.649 3.5,5.059 Z"/>
  <path fill="#292D32" d="M22,5.059 L22,18.939 C22,19.349 21.66,19.689 21.25,19.689 C20.84,19.689 20.5,19.349 20.5,18.939 L20.5,5.059 C20.5,4.649 20.84,4.309 21.25,4.309 C21.66,4.309 22,4.649 22,5.059 Z"/>
  <path fill="#292D32" d="M8,21.25 L16,21.25 C17.66,21.25 19,19.91 19,18.25 L19,5.75 C19,4.09 17.66,2.75 16,2.75 L8,2.75 C6.34,2.75 5,4.09 5,5.75 L5,18.25 C5,19.91 6.34,21.25 8,21.25 Z"/>
</svg>

