<svg xmlns="http://www.w3.org/2000/svg" width="24" height="24" viewBox="0 0 24 24">
  <defs/>
  <path fill="#292D32" d="M15,22.75 L9,22.75 C6.25,22.75 4.25,20.75 4.25,18 L4.25,6 C4.25,3.25 6.25,1.25 9,1.25 L15,1.25 C17.75,1.25 19.75,3.25 19.75,6 L19.75,18 C19.75,20.75 17.75,22.75 15,22.75 Z M9,2.75 C6.75,2.75 5.75,4.38 5.75,6 L5.75,18 C5.75,19.62 6.75,21.25 9,21.25 L15,21.25 C17.25,21.25 18.25,19.62 18.25,18 L18.25,6 C18.25,4.38 17.25,2.75 15,2.75 L9,2.75 Z"/>
  <path fill="#292D32" d="M19,16.76 L5,16.76 C4.59,16.76 4.25,16.42 4.25,16.01 C4.25,15.6 4.59,15.26 5,15.26 L19,15.26 C19.41,15.26 19.75,15.6 19.75,16.01 C19.75,16.42 19.41,16.76 19,16.76 Z"/>
  <path fill="#292D32" d="M2,20.75 C1.59,20.75 1.25,20.41 1.25,20 L1.25,4 C1.25,3.59 1.59,3.25 2,3.25 C2.41,3.25 2.75,3.59 2.75,4 L2.75,20 C2.75,20.41 2.41,20.75 2,20.75 Z"/>
  <path fill="#292D32" d="M22,20.75 C21.59,20.75 21.25,20.41 21.25,20 L21.25,4 C21.25,3.59 21.59,3.25 22,3.25 C22.41,3.25 22.75,3.59 22.75,4 L22.75,20 C22.75,20.41 22.41,20.75 22,20.75 Z"/>
</svg>

