<svg xmlns="http://www.w3.org/2000/svg" width="24" height="24" viewBox="0 0 24 24">
  <defs/>
  <path fill="#292D32" d="M17,18.75 L7,18.75 C6.25,18.75 5.7,18.72 5.23,18.65 C1.91,18.29 1.25,16.3 1.25,13 L1.25,11 C1.25,7.7 1.91,5.71 5.26,5.34 C5.7,5.28 6.25,5.25 7,5.25 L17,5.25 C17.75,5.25 18.3,5.28 18.77,5.35 C22.1,5.72 22.75,7.7 22.75,11 L22.75,13 C22.75,16.3 22.09,18.29 18.74,18.66 C18.3,18.72 17.75,18.75 17,18.75 Z M7,6.75 C6.32,6.75 5.84,6.78 5.45,6.83 C3.42,7.06 2.75,7.69 2.75,11 L2.75,13 C2.75,16.31 3.42,16.94 5.42,17.17 C5.84,17.23 6.32,17.25 7,17.25 L17,17.25 C17.68,17.25 18.16,17.22 18.55,17.17 C20.58,16.95 21.25,16.31 21.25,13 L21.25,11 C21.25,7.69 20.58,7.06 18.58,6.83 C18.16,6.77 17.68,6.75 17,6.75 L7,6.75 Z"/>
  <path fill="#292D32" d="M15.33,22.75 L8.67,22.75 C5.57,22.75 4.58,21.76 4.58,18.67 L4.58,18.33 C4.58,18.16 4.58,18.01 4.59,17.86 C4.6,17.65 4.7,17.46 4.87,17.33 C5.03,17.2 5.24,17.14 5.45,17.17 C5.85,17.23 6.33,17.25 7,17.25 L17,17.25 C17.68,17.25 18.16,17.22 18.55,17.17 C18.76,17.14 18.97,17.2 19.13,17.33 C19.29,17.46 19.39,17.65 19.41,17.86 C19.42,18.02 19.42,18.16 19.42,18.33 L19.42,18.67 C19.42,21.76 18.43,22.75 15.33,22.75 Z M6.08,18.73 C6.09,20.92 6.44,21.25 8.67,21.25 L15.33,21.25 C17.56,21.25 17.91,20.92 17.92,18.73 C17.65,18.74 17.35,18.75 17,18.75 L7,18.75 C6.65,18.75 6.35,18.74 6.08,18.73 Z"/>
  <path fill="#292D32" d="M18.66,6.84 C18.62,6.84 18.59,6.84 18.55,6.83 C18.15,6.77 17.67,6.75 17,6.75 L7,6.75 C6.32,6.75 5.84,6.78 5.45,6.83 C5.24,6.86 5.03,6.8 4.87,6.67 C4.71,6.54 4.61,6.35 4.59,6.14 C4.58,5.98 4.58,5.84 4.58,5.67 L4.58,5.33 C4.58,2.24 5.57,1.25 8.67,1.25 L15.33,1.25 C18.43,1.25 19.42,2.24 19.42,5.33 L19.42,5.67 C19.42,5.84 19.42,5.99 19.41,6.14 C19.4,6.35 19.3,6.54 19.13,6.67 C19,6.78 18.83,6.84 18.66,6.84 Z M7,5.25 L17,5.25 C17.35,5.25 17.65,5.26 17.92,5.27 C17.91,3.08 17.56,2.75 15.33,2.75 L8.67,2.75 C6.44,2.75 6.09,3.08 6.08,5.27 C6.35,5.26 6.65,5.25 7,5.25 Z"/>
</svg>

