<svg xmlns="http://www.w3.org/2000/svg" width="24" height="24" viewBox="0 0 24 24">
  <defs/>
  <path fill="#292D32" d="M1.24,5.93 L1.24,4.42 Q1.24,1.82 3.84,1.82 L16.76,1.82 Q17.836,1.82 18.598,2.582 Q19.36,3.344 19.36,4.42 L19.36,5.93 Q19.36,6.241 19.14,6.46 Q18.921,6.68 18.61,6.68 Q18.299,6.68 18.08,6.46 Q17.86,6.241 17.86,5.93 L17.86,4.42 Q17.86,3.32 16.76,3.32 L3.84,3.32 Q2.74,3.32 2.74,4.42 L2.74,5.93 Q2.74,6.241 2.52,6.46 Q2.301,6.68 1.99,6.68 Q1.679,6.68 1.46,6.46 Q1.24,6.241 1.24,5.93 Z"/>
  <path fill="#292D32" d="M9.55,18.1 L9.55,3.32 Q9.55,3.009 9.77,2.79 Q9.989,2.57 10.3,2.57 Q10.611,2.57 10.83,2.79 Q11.05,3.009 11.05,3.32 L11.05,18.1 Q11.05,18.411 10.83,18.63 Q10.611,18.85 10.3,18.85 Q9.989,18.85 9.77,18.63 Q9.55,18.411 9.55,18.1 Z"/>
  <path fill="#292D32" d="M6.9,17.35 L12.48,17.35 Q12.791,17.35 13.01,17.57 Q13.23,17.789 13.23,18.1 Q13.23,18.411 13.01,18.63 Q12.791,18.85 12.48,18.85 L6.9,18.85 Q6.589,18.85 6.37,18.63 Q6.15,18.411 6.15,18.1 Q6.15,17.789 6.37,17.57 Q6.589,17.35 6.9,17.35 Z"/>
  <path fill="#292D32" d="M13.68,9.59 L20.69,9.59 Q21.548,9.59 22.154,10.196 Q22.76,10.802 22.76,11.66 L22.76,12.46 Q22.76,12.771 22.54,12.99 Q22.321,13.21 22.01,13.21 Q21.699,13.21 21.48,12.99 Q21.26,12.771 21.26,12.46 L21.26,11.66 Q21.26,11.09 20.69,11.09 L13.68,11.09 Q13.369,11.09 13.15,10.87 Q12.93,10.651 12.93,10.34 Q12.93,10.029 13.15,9.81 Q13.369,9.59 13.68,9.59 Z"/>
  <path fill="#292D32" d="M15.33,21.43 L15.33,10.87 Q15.33,10.559 15.55,10.34 Q15.769,10.12 16.08,10.12 Q16.391,10.12 16.61,10.34 Q16.83,10.559 16.83,10.87 L16.83,21.43 Q16.83,21.741 16.61,21.96 Q16.391,22.18 16.08,22.18 Q15.769,22.18 15.55,21.96 Q15.33,21.741 15.33,21.43 Z"/>
  <path fill="#292D32" d="M13.94,20.68 L18.22,20.68 Q18.531,20.68 18.75,20.9 Q18.97,21.119 18.97,21.43 Q18.97,21.741 18.75,21.96 Q18.531,22.18 18.22,22.18 L13.94,22.18 Q13.629,22.18 13.41,21.96 Q13.19,21.741 13.19,21.43 Q13.19,21.119 13.41,20.9 Q13.629,20.68 13.94,20.68 Z"/>
</svg>

