<svg xmlns="http://www.w3.org/2000/svg" width="24" height="24" viewBox="0 0 24 24">
  <defs/>
  <path fill="#292D32" d="M20.95,4.13 C20.66,3.71 20.29,3.34 19.87,3.05 C18.92,2.36 17.68,2 16.19,2 L7.81,2 C7.61,2 7.41,2.01 7.22,2.03 C3.94,2.24 2,4.37 2,7.81 L2,16.19 C2,17.68 2.36,18.92 3.05,19.87 C3.34,20.29 3.71,20.66 4.13,20.95 C4.95,21.55 5.99,21.9 7.22,21.98 C7.41,21.99 7.61,22 7.81,22 L16.19,22 C19.83,22 22,19.83 22,16.19 L22,7.81 C22,6.32 21.64,5.08 20.95,4.13 Z M11.39,15.88 L8.52,15.88 C8.11,15.88 7.77,15.54 7.77,15.13 C7.77,14.72 8.11,14.38 8.52,14.38 L9.52,14.38 L9.52,7.91 L6.95,7.91 C6.84,7.91 6.75,8 6.75,8.11 L6.75,8.89 C6.75,9.3 6.41,9.63 6,9.63 C5.59,9.63 5.25,9.3 5.25,8.88 L5.25,8.1 C5.25,7.16 6.01,6.4 6.95,6.4 L13.59,6.4 C14.53,6.4 15.29,7.16 15.29,8.1 L15.29,8.88 C15.29,9.29 14.95,9.63 14.54,9.63 C14.13,9.63 13.79,9.29 13.79,8.88 L13.79,8.1 C13.79,7.99 13.7,7.9 13.59,7.9 L11.02,7.9 L11.02,14.38 L11.39,14.38 C11.8,14.38 12.14,14.72 12.14,15.13 C12.14,15.54 11.8,15.88 11.39,15.88 Z M18.75,12.23 C18.75,12.64 18.41,12.98 18,12.98 C17.59,12.98 17.25,12.64 17.25,12.23 L17.25,11.9 L15.7,11.9 L15.7,16.1 L16.05,16.1 C16.46,16.1 16.8,16.44 16.8,16.85 C16.8,17.26 16.46,17.6 16.05,17.6 L13.85,17.6 C13.44,17.6 13.1,17.26 13.1,16.85 C13.1,16.44 13.44,16.1 13.85,16.1 L14.2,16.1 L14.2,11.9 L13.72,11.9 C13.31,11.9 12.97,11.56 12.97,11.15 C12.97,10.74 13.31,10.4 13.72,10.4 L17.32,10.4 C18.11,10.4 18.75,11.04 18.75,11.83 L18.75,12.23 Z"/>
</svg>

