<svg xmlns="http://www.w3.org/2000/svg" width="24" height="24" viewBox="0 0 24 24">
  <defs/>
  <path fill="#292D32" d="M18.61,6.68 C18.2,6.68 17.86,6.34 17.86,5.93 L17.86,4.42 C17.86,3.82 17.37,3.32 16.76,3.32 L3.83,3.32 C3.23,3.32 2.73,3.81 2.73,4.42 L2.73,5.93 C2.73,6.34 2.39,6.68 1.98,6.68 C1.57,6.68 1.24,6.34 1.24,5.93 L1.24,4.42 C1.24,2.99 2.41,1.82 3.84,1.82 L16.76,1.82 C18.19,1.82 19.36,2.98 19.36,4.42 L19.36,5.93 C19.36,6.34 19.02,6.68 18.61,6.68 Z"/>
  <path fill="#292D32" d="M10.301,18.85 C9.891,18.85 9.551,18.51 9.551,18.1 L9.551,3.32 C9.551,2.91 9.891,2.57 10.301,2.57 C10.711,2.57 11.051,2.91 11.051,3.32 L11.051,18.1 C11.051,18.52 10.711,18.85 10.301,18.85 Z"/>
  <path fill="#292D32" d="M12.48,18.85 L6.9,18.85 C6.49,18.85 6.15,18.51 6.15,18.1 C6.15,17.69 6.49,17.35 6.9,17.35 L12.48,17.35 C12.89,17.35 13.23,17.69 13.23,18.1 C13.23,18.51 12.89,18.85 12.48,18.85 Z"/>
  <path fill="#292D32" d="M22.01,13.2 C21.6,13.2 21.26,12.86 21.26,12.45 L21.26,11.65 C21.26,11.34 21,11.08 20.69,11.08 L13.68,11.08 C13.27,11.08 12.93,10.74 12.93,10.33 C12.93,9.92 13.27,9.58 13.68,9.58 L20.69,9.58 C21.83,9.58 22.76,10.51 22.76,11.65 L22.76,12.45 C22.76,12.87 22.43,13.2 22.01,13.2 Z"/>
  <path fill="#292D32" d="M16.08,22.18 C15.67,22.18 15.33,21.84 15.33,21.43 L15.33,10.87 C15.33,10.46 15.67,10.12 16.08,10.12 C16.49,10.12 16.83,10.46 16.83,10.87 L16.83,21.43 C16.83,21.84 16.49,22.18 16.08,22.18 Z"/>
  <path fill="#292D32" d="M18.22,22.18 L13.94,22.18 C13.53,22.18 13.19,21.84 13.19,21.43 C13.19,21.02 13.53,20.68 13.94,20.68 L18.22,20.68 C18.63,20.68 18.97,21.02 18.97,21.43 C18.97,21.84 18.63,22.18 18.22,22.18 Z"/>
</svg>

