<svg xmlns="http://www.w3.org/2000/svg" width="24" height="24" viewBox="0 0 24 24">
  <defs/>
  <path fill="#292D32" opacity="0.4" d="M22,7.81 L22,16.19 C22,19.83 19.83,22 16.19,22 L7.81,22 C7.61,22 7.41,21.99 7.22,21.98 C5.99,21.9 4.95,21.55 4.13,20.95 C3.71,20.66 3.34,20.29 3.05,19.87 C2.36,18.92 2,17.68 2,16.19 L2,7.81 C2,4.37 3.94,2.24 7.22,2.03 C7.41,2.01 7.61,2 7.81,2 L16.19,2 C17.68,2 18.92,2.36 19.87,3.05 C20.29,3.34 20.66,3.71 20.95,4.13 C21.64,5.08 22,6.32 22,7.81 Z"/>
  <path fill="#292D32" d="M11.39,14.38 L11.02,14.38 L11.02,7.91 L13.59,7.91 C13.7,7.91 13.79,8 13.79,8.11 L13.79,8.89 C13.79,9.3 14.13,9.64 14.54,9.64 C14.95,9.64 15.29,9.3 15.29,8.89 L15.29,8.1 C15.29,7.16 14.53,6.4 13.59,6.4 L6.95,6.4 C6.01,6.4 5.25,7.16 5.25,8.1 L5.25,8.88 C5.25,9.3 5.59,9.63 6,9.63 C6.41,9.63 6.75,9.3 6.75,8.88 L6.75,8.1 C6.75,7.99 6.84,7.9 6.95,7.9 L9.52,7.9 L9.52,14.38 L8.52,14.38 C8.11,14.38 7.77,14.72 7.77,15.13 C7.77,15.54 8.11,15.88 8.52,15.88 L11.38,15.88 C11.79,15.88 12.13,15.54 12.13,15.13 C12.13,14.72 11.8,14.38 11.39,14.38 Z"/>
  <path fill="#292D32" d="M17.321,10.4 L13.721,10.4 C13.311,10.4 12.971,10.74 12.971,11.15 C12.971,11.56 13.311,11.9 13.721,11.9 L14.201,11.9 L14.201,16.1 L13.851,16.1 C13.441,16.1 13.101,16.44 13.101,16.85 C13.101,17.26 13.441,17.6 13.851,17.6 L16.051,17.6 C16.461,17.6 16.801,17.26 16.801,16.85 C16.801,16.44 16.461,16.1 16.051,16.1 L15.701,16.1 L15.701,11.9 L17.251,11.9 L17.251,12.24 C17.251,12.65 17.591,12.99 18.001,12.99 C18.411,12.99 18.751,12.65 18.751,12.24 L18.751,11.83 C18.751,11.04 18.111,10.4 17.321,10.4 Z"/>
</svg>

