<svg xmlns="http://www.w3.org/2000/svg" width="24" height="24" viewBox="0 0 24 24">
  <defs/>
  <path fill="#292D32" d="M12.14,6.87 Q14.812,6.87 15.394,9.546 L16.244,13.596 Q16.26,13.672 16.26,13.75 Q16.26,14.061 16.04,14.28 Q15.82,14.5 15.51,14.5 L3.51,14.5 Q3.432,14.5 3.356,14.484 Q3.052,14.42 2.882,14.16 Q2.712,13.9 2.776,13.596 L3.624,9.553 Q4.161,6.87 6.87,6.87 Z M12.14,8.37 L6.87,8.37 Q5.391,8.37 5.095,9.847 L4.434,13 L14.586,13 L13.926,9.854 Q13.603,8.37 12.14,8.37 Z"/>
  <path fill="#292D32" d="M17.737,20.292 Q17.827,21.285 17.148,22.019 Q16.472,22.75 15.47,22.75 L14.06,22.75 Q12.736,22.75 12.292,21.505 L12.284,21.482 L12.129,21.018 L12.128,21.017 Q11.95,20.5 11.41,20.5 L7.57,20.5 Q7.027,20.5 6.85,21.021 L6.703,21.463 L6.702,21.467 Q6.282,22.75 4.92,22.75 L3.51,22.75 Q2.507,22.75 1.829,22.021 Q1.142,21.281 1.244,20.284 L1.663,15.722 Q1.929,12.99 4.7,12.99 L14.27,12.99 Q17.041,12.99 17.307,15.718 L17.737,20.29 Z M16.243,20.43 L15.814,15.863 Q15.68,14.49 14.27,14.49 L4.7,14.49 Q3.29,14.49 3.157,15.859 L2.736,20.437 Q2.703,20.758 2.928,21 Q3.161,21.25 3.51,21.25 L4.92,21.25 Q5.195,21.25 5.277,20.999 L5.279,20.993 L5.43,20.539 Q5.952,19 7.57,19 L11.41,19 Q13.021,19 13.547,20.528 L13.552,20.543 L13.696,20.978 Q13.699,20.986 13.705,21.001 Q13.793,21.25 14.06,21.25 L15.47,21.25 Q15.816,21.25 16.047,21.001 Q16.272,20.757 16.243,20.43 Z"/>
  <path fill="#292D32" d="M3.5,12.25 L2.75,12.25 Q2.439,12.25 2.22,12.03 Q2,11.811 2,11.5 Q2,11.189 2.22,10.97 Q2.439,10.75 2.75,10.75 L3.5,10.75 Q3.811,10.75 4.03,10.97 Q4.25,11.189 4.25,11.5 Q4.25,11.811 4.03,12.03 Q3.811,12.25 3.5,12.25 Z"/>
  <path fill="#292D32" d="M16.25,12.25 L15.5,12.25 Q15.189,12.25 14.97,12.03 Q14.75,11.811 14.75,11.5 Q14.75,11.189 14.97,10.97 Q15.189,10.75 15.5,10.75 L16.25,10.75 Q16.561,10.75 16.78,10.97 Q17,11.189 17,11.5 Q17,11.811 16.78,12.03 Q16.561,12.25 16.25,12.25 Z"/>
  <path fill="#292D32" opacity="0.4" d="M5,16 L7.25,16 Q7.561,16 7.78,16.22 Q8,16.439 8,16.75 Q8,17.061 7.78,17.28 Q7.561,17.5 7.25,17.5 L5,17.5 Q4.689,17.5 4.47,17.28 Q4.25,17.061 4.25,16.75 Q4.25,16.439 4.47,16.22 Q4.689,16 5,16 Z"/>
  <path fill="#292D32" opacity="0.4" d="M11.75,16 L14,16 Q14.311,16 14.53,16.22 Q14.75,16.439 14.75,16.75 Q14.75,17.061 14.53,17.28 Q14.311,17.5 14,17.5 L11.75,17.5 Q11.439,17.5 11.22,17.28 Q11,17.061 11,16.75 Q11,16.439 11.22,16.22 Q11.439,16 11.75,16 Z"/>
  <path fill="#292D32" opacity="0.4" d="M18.02,8.443 Q18.331,7.723 17.748,6.86 Q17.171,5.989 16.38,6 Q16.069,6.004 15.846,5.788 Q15.624,5.571 15.619,5.261 Q15.615,4.95 15.831,4.727 Q16.048,4.505 16.359,4.5 Q17.969,4.478 18.991,6.02 Q20.033,7.563 19.398,9.037 Q19.275,9.322 18.986,9.437 Q18.698,9.552 18.412,9.429 Q18.127,9.306 18.012,9.017 Q17.897,8.729 18.02,8.443 Z"/>
  <path fill="#292D32" opacity="0.4" d="M21.098,9.529 Q21.701,7.361 20.247,5.187 Q18.797,3.018 16.55,2.744 Q16.242,2.707 16.05,2.462 Q15.859,2.218 15.896,1.909 Q15.934,1.601 16.178,1.409 Q16.423,1.218 16.731,1.256 Q19.661,1.612 21.494,4.353 Q23.331,7.1 22.543,9.931 Q22.46,10.23 22.189,10.383 Q21.919,10.536 21.62,10.453 Q21.32,10.369 21.168,10.099 Q21.015,9.828 21.098,9.529 Z"/>
</svg>

