<svg xmlns="http://www.w3.org/2000/svg" width="24" height="24" viewBox="0 0 24 24">
  <defs/>
  <path fill="#292D32" d="M18.709,9.49 C18.609,9.49 18.509,9.47 18.409,9.43 C18.029,9.26 17.859,8.82 18.019,8.44 C18.209,8.01 18.099,7.38 17.749,6.86 C17.399,6.33 16.869,5.98 16.379,6 C15.939,6 15.629,5.67 15.619,5.26 C15.619,4.84 15.949,4.51 16.359,4.5 C17.389,4.48 18.359,5.07 18.989,6.02 C19.629,6.98 19.779,8.13 19.389,9.03 C19.279,9.32 18.999,9.49 18.709,9.49 Z"/>
  <path fill="#292D32" d="M21.82,10.48 C21.75,10.48 21.69,10.47 21.62,10.45 C21.22,10.34 20.99,9.93 21.1,9.53 C21.48,8.17 21.16,6.55 20.25,5.19 C19.34,3.83 17.96,2.92 16.55,2.75 C16.14,2.7 15.85,2.33 15.9,1.92 C15.95,1.51 16.33,1.21 16.73,1.27 C18.56,1.49 20.34,2.65 21.49,4.37 C22.64,6.09 23.03,8.17 22.54,9.95 C22.45,10.26 22.15,10.48 21.82,10.48 Z"/>
  <path fill="#292D32" opacity="0.4" d="M17.52,15.84 C17.41,14.62 17.08,13.31 14.7,13.31 L5.23,13.31 C2.85,13.31 2.53,14.62 2.41,15.84 L1.99,20.36 C1.94,20.92 2.13,21.49 2.51,21.91 C2.9,22.34 3.46,22.59 4.05,22.59 L5.44,22.59 C6.64,22.59 6.87,21.9 7.02,21.45 L7.17,21.01 C7.34,20.5 7.38,20.37 8.05,20.37 L11.85,20.37 C12.51,20.37 12.54,20.44 12.73,21.01 L12.88,21.46 C13.03,21.91 13.26,22.6 14.46,22.6 L15.85,22.6 C16.44,22.6 17,22.35 17.39,21.92 C17.77,21.5 17.96,20.93 17.91,20.37 L17.52,15.84 Z"/>
  <path fill="#292D32" d="M16.65,11.09 L15.91,11.09 C15.9,11.09 15.9,11.09 15.89,11.09 L15.61,9.74 C15.34,8.44 14.79,7.25 12.58,7.25 L10.53,7.25 L9.42,7.25 L7.37,7.25 C5.16,7.25 4.6,8.44 4.34,9.74 L4.06,11.09 C4.05,11.09 4.05,11.09 4.04,11.09 L3.3,11.09 C2.99,11.09 2.74,11.34 2.74,11.65 C2.74,11.96 2.99,12.21 3.3,12.21 L3.83,12.21 L3.52,13.69 C3.92,13.46 4.48,13.32 5.25,13.32 L14.72,13.32 C15.49,13.32 16.05,13.46 16.45,13.69 L16.14,12.21 L16.67,12.21 C16.98,12.21 17.23,11.96 17.23,11.65 C17.21,11.34 16.96,11.09 16.65,11.09 Z"/>
  <path fill="#292D32" d="M7.751,17.39 L5.521,17.39 C5.211,17.39 4.961,17.14 4.961,16.83 C4.961,16.52 5.211,16.27 5.521,16.27 L7.751,16.27 C8.061,16.27 8.311,16.52 8.311,16.83 C8.301,17.14 8.061,17.39 7.751,17.39 Z"/>
  <path fill="#292D32" d="M14.431,17.39 L12.201,17.39 C11.891,17.39 11.641,17.14 11.641,16.83 C11.641,16.52 11.891,16.27 12.201,16.27 L14.431,16.27 C14.741,16.27 14.991,16.52 14.991,16.83 C14.981,17.14 14.731,17.39 14.431,17.39 Z"/>
</svg>

