<svg xmlns="http://www.w3.org/2000/svg" width="24" height="24" viewBox="0 0 24 24">
  <defs/>
  <path fill="#292D32" d="M8.39,8.37 L6.87,8.37 Q5.391,8.37 5.095,9.847 L4.434,13 L14.586,13 L13.926,9.854 Q13.613,8.37 12.15,8.37 Q11.839,8.37 11.619,8.15 Q11.4,7.931 11.4,7.62 Q11.4,7.309 11.619,7.09 Q11.839,6.87 12.15,6.87 Q14.83,6.87 15.394,9.546 L16.244,13.596 Q16.26,13.672 16.26,13.75 Q16.26,14.061 16.04,14.28 Q15.82,14.5 15.51,14.5 L3.51,14.5 Q3.432,14.5 3.356,14.484 Q3.052,14.42 2.882,14.16 Q2.712,13.9 2.776,13.596 L3.624,9.553 Q4.161,6.87 6.87,6.87 L8.39,6.87 Q8.7,6.87 8.92,7.09 Q9.14,7.309 9.14,7.62 Q9.14,7.931 8.92,8.15 Q8.7,8.37 8.39,8.37 Z"/>
  <path fill="#292D32" d="M17.637,19.12 L17.747,20.29 Q17.837,21.285 17.158,22.019 Q16.482,22.75 15.48,22.75 L14.07,22.75 Q12.746,22.75 12.301,21.504 Q12.297,21.491 12.294,21.482 L12.138,21.017 L12.138,21.016 Q11.96,20.5 11.42,20.5 L7.58,20.5 Q7.037,20.5 6.86,21.021 L6.713,21.463 L6.711,21.467 Q6.292,22.75 4.93,22.75 L3.52,22.75 Q2.517,22.75 1.839,22.021 Q1.152,21.281 1.254,20.284 L1.673,15.721 Q1.939,12.99 4.71,12.99 L14.28,12.99 Q17.051,12.99 17.316,15.717 Q17.346,16.027 17.149,16.266 Q16.952,16.506 16.643,16.536 Q16.333,16.567 16.093,16.369 Q15.854,16.172 15.823,15.863 Q15.69,14.49 14.28,14.49 L4.71,14.49 Q3.3,14.49 3.167,15.859 L2.746,20.436 Q2.713,20.757 2.938,20.999 Q3.171,21.25 3.52,21.25 L4.93,21.25 Q5.205,21.25 5.286,20.999 L5.288,20.993 L5.44,20.539 Q5.962,19 7.58,19 L11.42,19 Q13.03,19 13.556,20.528 L13.561,20.543 L13.706,20.978 Q13.709,20.985 13.714,21.001 Q13.803,21.25 14.07,21.25 L15.48,21.25 Q15.826,21.25 16.057,21.001 Q16.283,20.756 16.253,20.43 L16.143,19.26 Q16.114,18.951 16.312,18.712 Q16.51,18.472 16.82,18.443 Q17.129,18.414 17.368,18.612 Q17.608,18.81 17.637,19.12 Z"/>
  <path fill="#292D32" d="M3.5,12.25 L2.75,12.25 Q2.439,12.25 2.22,12.03 Q2,11.811 2,11.5 Q2,11.189 2.22,10.97 Q2.439,10.75 2.75,10.75 L3.5,10.75 Q3.811,10.75 4.03,10.97 Q4.25,11.189 4.25,11.5 Q4.25,11.811 4.03,12.03 Q3.811,12.25 3.5,12.25 Z"/>
  <path fill="#292D32" d="M16.25,12.25 L15.5,12.25 Q15.189,12.25 14.97,12.03 Q14.75,11.811 14.75,11.5 Q14.75,11.189 14.97,10.97 Q15.189,10.75 15.5,10.75 L16.25,10.75 Q16.561,10.75 16.78,10.97 Q17,11.189 17,11.5 Q17,11.811 16.78,12.03 Q16.561,12.25 16.25,12.25 Z"/>
  <path fill="#292D32" d="M5,16 L7.25,16 Q7.561,16 7.78,16.22 Q8,16.439 8,16.75 Q8,17.061 7.78,17.28 Q7.561,17.5 7.25,17.5 L5,17.5 Q4.689,17.5 4.47,17.28 Q4.25,17.061 4.25,16.75 Q4.25,16.439 4.47,16.22 Q4.689,16 5,16 Z"/>
  <path fill="#292D32" d="M11.75,16 L14,16 Q14.311,16 14.53,16.22 Q14.75,16.439 14.75,16.75 Q14.75,17.061 14.53,17.28 Q14.311,17.5 14,17.5 L11.75,17.5 Q11.439,17.5 11.22,17.28 Q11,17.061 11,16.75 Q11,16.439 11.22,16.22 Q11.439,16 11.75,16 Z"/>
  <path fill="#292D32" d="M18.02,8.443 Q18.331,7.723 17.748,6.86 Q17.171,5.989 16.38,6 Q16.069,6.004 15.846,5.788 Q15.624,5.571 15.619,5.26 Q15.615,4.95 15.831,4.727 Q16.048,4.504 16.359,4.5 Q17.969,4.477 18.991,6.02 Q20.033,7.563 19.398,9.037 Q19.275,9.322 18.986,9.437 Q18.698,9.552 18.412,9.429 Q18.127,9.306 18.012,9.017 Q17.897,8.729 18.02,8.443 Z"/>
  <path fill="#292D32" d="M18.05,3.213 Q17.274,2.832 16.551,2.745 Q16.242,2.707 16.051,2.463 Q15.859,2.219 15.896,1.91 Q15.933,1.602 16.178,1.41 Q16.422,1.218 16.73,1.255 Q17.706,1.373 18.711,1.867 Q18.99,2.004 19.09,2.298 Q19.191,2.592 19.054,2.871 Q18.917,3.149 18.623,3.25 Q18.329,3.35 18.05,3.213 Z"/>
  <path fill="#292D32" d="M21.097,9.529 Q21.7,7.361 20.246,5.187 Q20.073,4.929 20.133,4.624 Q20.194,4.319 20.452,4.147 Q20.71,3.974 21.015,4.034 Q21.32,4.095 21.493,4.353 Q23.329,7.1 22.542,9.931 Q22.459,10.23 22.188,10.383 Q21.918,10.536 21.618,10.453 Q21.319,10.369 21.166,10.099 Q21.013,9.828 21.097,9.529 Z"/>
</svg>

