<svg xmlns="http://www.w3.org/2000/svg" width="24" height="24" viewBox="0 0 24 24">
  <defs/>
  <path fill="#292D32" d="M21.229,11.159 Q21.45,9.808 20.389,8.954 L13.461,3.416 Q11.995,2.237 10.538,3.405 L3.608,8.955 Q2.535,9.808 2.768,11.152 L3.049,12.837 Q3.1,13.143 2.92,13.396 Q2.739,13.649 2.433,13.7 Q2.126,13.751 1.873,13.57 Q1.621,13.39 1.569,13.083 L1.29,11.408 Q0.905,9.188 2.67,7.784 L9.6,2.235 Q11.996,0.314 14.398,2.244 L21.33,7.786 Q23.071,9.188 22.709,11.401 Q22.659,11.707 22.407,11.889 Q22.155,12.07 21.848,12.02 Q21.542,11.97 21.36,11.718 Q21.179,11.466 21.229,11.159 Z"/>
  <path fill="#292D32" d="M11.4,21.06 L17.6,21.06 Q19.57,21.06 19.901,19.114 L20.531,15.375 Q20.582,15.069 20.836,14.889 Q21.089,14.709 21.395,14.76 Q21.701,14.812 21.881,15.065 Q22.062,15.318 22.01,15.625 L21.38,19.366 Q20.836,22.56 17.6,22.56 L11.4,22.56 Q11.09,22.56 10.87,22.34 Q10.65,22.121 10.65,21.81 Q10.65,21.499 10.87,21.28 Q11.09,21.06 11.4,21.06 Z"/>
  <path fill="#292D32" d="M2.017,18.25 Q5.667,18.333 5.75,21.983 Q5.757,22.294 5.542,22.518 Q5.328,22.743 5.017,22.75 Q4.706,22.757 4.482,22.542 Q4.257,22.328 4.25,22.017 Q4.2,19.8 1.983,19.75 Q1.672,19.743 1.458,19.518 Q1.243,19.294 1.25,18.983 Q1.257,18.672 1.482,18.458 Q1.706,18.243 2.017,18.25 Z"/>
  <path fill="#292D32" d="M2.014,15.25 Q2.871,15.267 3.668,15.449 Q3.97,15.518 4.135,15.782 Q4.3,16.045 4.231,16.348 Q4.162,16.65 3.898,16.815 Q3.635,16.981 3.332,16.911 Q2.688,16.763 1.986,16.75 Q1.675,16.744 1.46,16.52 Q1.244,16.296 1.25,15.986 Q1.256,15.675 1.48,15.46 Q1.704,15.244 2.014,15.25 Z"/>
  <path fill="#292D32" d="M7.25,22.01 Q7.236,21.018 6.922,20.13 Q6.567,19.13 5.89,18.4 Q5.678,18.173 5.69,17.862 Q5.701,17.552 5.929,17.341 Q6.157,17.129 6.467,17.141 Q6.778,17.152 6.989,17.38 Q7.877,18.336 8.337,19.63 Q8.733,20.751 8.749,21.99 Q8.753,22.301 8.537,22.523 Q8.32,22.746 8.009,22.75 Q7.699,22.754 7.476,22.537 Q7.254,22.321 7.25,22.01 Z"/>
  <path fill="#292D32" d="M1.995,21 L2.004,21 Q2.419,21 2.712,21.293 Q3.004,21.586 3.004,22 Q3.004,22.414 2.712,22.707 Q2.419,23 2.004,23 L1.995,23 Q1.581,23 1.288,22.707 Q0.995,22.414 0.995,22 Q0.995,21.586 1.288,21.293 Q1.581,21 1.995,21 Z"/>
</svg>

