<svg xmlns="http://www.w3.org/2000/svg" width="24" height="24" viewBox="0 0 24 24">
  <defs/>
  <path fill="#292D32" opacity="0.4" d="M10.069,3.01 L3.139,8.56 C2.359,9.18 1.859,10.49 2.029,11.47 L3.359,19.43 C3.599,20.85 4.959,22 6.399,22 L17.599,22 C19.029,22 20.399,20.84 20.639,19.43 L21.969,11.47 C22.129,10.49 21.629,9.18 20.859,8.56 L13.929,3.02 C12.859,2.16 11.129,2.16 10.069,3.01 Z"/>
  <path fill="#292D32" d="M12.371,17.12 C11.961,17.12 11.631,16.79 11.621,16.39 C11.591,15.04 10.701,14.15 9.351,14.12 C8.941,14.11 8.611,13.77 8.621,13.35 C8.631,12.94 8.961,12.62 9.371,12.62 C9.381,12.62 9.381,12.62 9.391,12.62 C11.541,12.67 13.081,14.2 13.121,16.35 C13.131,16.76 12.801,17.11 12.391,17.12 C12.391,17.12 12.381,17.12 12.371,17.12 Z"/>
  <path fill="#292D32" d="M15.371,17.12 C14.961,17.12 14.621,16.79 14.621,16.38 C14.611,15.72 14.501,15.09 14.301,14.5 C13.791,13.04 12.701,11.96 11.241,11.44 C10.651,11.23 10.021,11.12 9.361,11.12 C8.951,11.12 8.611,10.78 8.621,10.36 C8.621,9.95 8.961,9.62 9.371,9.62 L9.381,9.62 C10.211,9.63 11.001,9.77 11.741,10.03 C13.631,10.7 15.041,12.11 15.711,14 C15.971,14.74 16.111,15.54 16.121,16.36 C16.131,16.78 15.801,17.12 15.371,17.12 C15.381,17.12 15.381,17.12 15.371,17.12 Z"/>
  <path fill="#292D32" d="M9.381,17.38 C8.821,17.38 8.381,16.93 8.381,16.38 C8.381,15.83 8.831,15.38 9.381,15.38 C9.931,15.38 10.381,15.83 10.381,16.38 C10.381,16.93 9.931,17.38 9.381,17.38 Z"/>
</svg>

