<svg xmlns="http://www.w3.org/2000/svg" width="24" height="24" viewBox="0 0 24 24">
  <defs/>
  <path fill="#292D32" d="M15.499,14.5 L3.499,14.5 C3.269,14.5 3.059,14.4 2.919,14.22 C2.779,14.05 2.719,13.81 2.769,13.59 L3.619,9.54 C3.899,8.22 4.499,6.87 6.869,6.87 L12.139,6.87 C14.509,6.87 15.109,8.22 15.389,9.54 L16.239,13.59 C16.289,13.81 16.229,14.04 16.089,14.22 C15.939,14.4 15.729,14.5 15.499,14.5 Z M4.419,13 L14.569,13 L13.909,9.85 C13.699,8.84 13.449,8.37 12.129,8.37 L6.859,8.37 C5.539,8.37 5.289,8.84 5.079,9.85 L4.419,13 Z"/>
  <path fill="#292D32" d="M15.47,22.75 L14.06,22.75 C12.71,22.75 12.43,21.92 12.29,21.47 L12.14,21.02 C11.96,20.51 11.96,20.51 11.43,20.51 L7.59,20.51 C7.05,20.51 7.04,20.53 6.88,21.02 L6.73,21.47 C6.58,21.92 6.3,22.76 4.95,22.76 L3.54,22.76 C2.89,22.76 2.28,22.49 1.84,22.01 C1.42,21.55 1.21,20.92 1.27,20.3 L1.69,15.73 C1.82,14.31 2.28,13 4.72,13 L14.29,13 C16.73,13 17.19,14.31 17.32,15.73 L17.74,20.3 C17.8,20.92 17.59,21.54 17.17,22.01 C16.73,22.48 16.12,22.75 15.47,22.75 Z M13.8,21.23 C13.82,21.23 13.9,21.25 14.06,21.25 L15.47,21.25 C15.7,21.25 15.91,21.16 16.06,20.99 C16.2,20.83 16.27,20.64 16.25,20.43 L15.83,15.86 C15.74,14.92 15.7,14.49 14.29,14.49 L4.72,14.49 C3.31,14.49 3.27,14.92 3.18,15.86 L2.76,20.43 C2.74,20.64 2.81,20.84 2.95,20.99 C3.1,21.16 3.31,21.25 3.54,21.25 L4.95,21.25 C5.17,21.25 5.23,21.22 5.24,21.22 C5.24,21.21 5.28,21.09 5.31,21 L5.46,20.55 C5.66,19.94 5.97,19.01 7.6,19.01 L11.44,19.01 C13.05,19.01 13.35,19.89 13.57,20.54 L13.73,21 C13.74,21.08 13.77,21.19 13.8,21.23 Z"/>
  <path fill="#292D32" d="M3.5,12.25 L2.75,12.25 C2.34,12.25 2,11.91 2,11.5 C2,11.09 2.34,10.75 2.75,10.75 L3.5,10.75 C3.91,10.75 4.25,11.09 4.25,11.5 C4.25,11.91 3.91,12.25 3.5,12.25 Z"/>
  <path fill="#292D32" d="M16.25,12.25 L15.5,12.25 C15.09,12.25 14.75,11.91 14.75,11.5 C14.75,11.09 15.09,10.75 15.5,10.75 L16.25,10.75 C16.66,10.75 17,11.09 17,11.5 C17,11.91 16.66,12.25 16.25,12.25 Z"/>
  <path fill="#292D32" d="M7.25,17.5 L5,17.5 C4.59,17.5 4.25,17.16 4.25,16.75 C4.25,16.34 4.59,16 5,16 L7.25,16 C7.66,16 8,16.34 8,16.75 C8,17.16 7.66,17.5 7.25,17.5 Z"/>
  <path fill="#292D32" d="M14,17.5 L11.75,17.5 C11.34,17.5 11,17.16 11,16.75 C11,16.34 11.34,16 11.75,16 L14,16 C14.41,16 14.75,16.34 14.75,16.75 C14.75,17.16 14.41,17.5 14,17.5 Z"/>
  <path fill="#292D32" d="M18.711,9.49 C18.611,9.49 18.511,9.47 18.411,9.43 C18.031,9.26 17.861,8.82 18.021,8.44 C18.211,8.01 18.101,7.38 17.751,6.86 C17.401,6.33 16.871,5.98 16.381,6 L16.371,6 C15.961,6 15.631,5.67 15.621,5.26 C15.621,4.84 15.951,4.51 16.361,4.5 C17.391,4.48 18.361,5.07 18.991,6.02 C19.631,6.98 19.781,8.13 19.391,9.03 C19.281,9.32 19.001,9.49 18.711,9.49 Z"/>
  <path fill="#292D32" d="M21.82,10.48 C21.75,10.48 21.69,10.47 21.62,10.45 C21.22,10.34 20.99,9.93 21.1,9.53 C21.48,8.17 21.16,6.55 20.25,5.19 C19.34,3.83 17.96,2.92 16.55,2.75 C16.14,2.7 15.85,2.33 15.9,1.92 C15.95,1.51 16.33,1.21 16.73,1.27 C18.56,1.49 20.34,2.65 21.49,4.37 C22.64,6.09 23.03,8.17 22.54,9.95 C22.45,10.26 22.15,10.48 21.82,10.48 Z"/>
</svg>

