<svg xmlns="http://www.w3.org/2000/svg" width="24" height="24" viewBox="0 0 24 24">
  <defs/>
  <path fill="#292D32" d="M20.859,8.561 L13.929,3.021 C12.859,2.161 11.129,2.161 10.069,3.011 L3.139,8.561 C2.359,9.181 1.859,10.491 2.029,11.471 L3.359,19.431 C3.599,20.851 4.959,22.001 6.399,22.001 L17.599,22.001 C19.029,22.001 20.399,20.841 20.639,19.431 L21.969,11.471 C22.129,10.491 21.629,9.181 20.859,8.561 Z M9.379,17.381 C8.819,17.381 8.379,16.931 8.379,16.381 C8.379,15.831 8.829,15.381 9.379,15.381 C9.929,15.381 10.379,15.831 10.379,16.381 C10.379,16.931 9.929,17.381 9.379,17.381 Z M12.389,17.121 C12.379,17.121 12.379,17.121 12.369,17.121 C11.959,17.121 11.629,16.791 11.619,16.391 C11.589,15.041 10.699,14.151 9.349,14.121 C8.939,14.111 8.609,13.771 8.619,13.351 C8.629,12.941 8.959,12.621 9.369,12.621 C9.379,12.621 9.379,12.621 9.389,12.621 C11.539,12.671 13.079,14.201 13.119,16.351 C13.129,16.771 12.809,17.121 12.389,17.121 Z M15.379,17.121 C14.959,17.121 14.629,16.791 14.619,16.381 C14.609,15.721 14.499,15.091 14.299,14.501 C13.789,13.041 12.699,11.961 11.239,11.441 C10.649,11.231 10.019,11.121 9.359,11.121 C8.949,11.121 8.609,10.781 8.619,10.361 C8.619,9.951 8.959,9.621 9.369,9.621 L9.379,9.621 C10.209,9.631 10.999,9.771 11.739,10.031 C13.629,10.701 15.039,12.111 15.709,14.001 C15.969,14.741 16.109,15.541 16.119,16.361 C16.129,16.781 15.799,17.121 15.379,17.121 Z"/>
</svg>

