<svg xmlns="http://www.w3.org/2000/svg" width="24" height="24" viewBox="0 0 24 24">
  <defs/>
  <path fill="#292D32" d="M11.399,21.06 L17.599,21.06 Q19.569,21.06 19.9,19.114 L21.23,11.156 Q21.45,9.808 20.389,8.954 L13.461,3.416 Q11.995,2.237 10.538,3.405 L3.608,8.955 Q2.535,9.808 2.768,11.152 L3.049,12.837 Q3.1,13.143 2.92,13.396 Q2.739,13.649 2.433,13.7 Q2.126,13.751 1.873,13.57 Q1.621,13.39 1.569,13.083 L1.29,11.408 Q0.905,9.188 2.67,7.784 L9.6,2.235 Q11.996,0.314 14.398,2.244 L21.33,7.786 Q23.071,9.188 22.709,11.404 L21.379,19.366 Q20.835,22.56 17.599,22.56 L11.399,22.56 Q11.089,22.56 10.869,22.34 Q10.649,22.121 10.649,21.81 Q10.649,21.499 10.869,21.28 Q11.089,21.06 11.399,21.06 Z"/>
  <path fill="#292D32" opacity="0.4" d="M2.017,18.25 Q5.667,18.333 5.75,21.983 Q5.757,22.294 5.542,22.518 Q5.328,22.743 5.017,22.75 Q4.706,22.757 4.482,22.542 Q4.257,22.328 4.25,22.017 Q4.2,19.8 1.983,19.75 Q1.672,19.743 1.458,19.518 Q1.243,19.294 1.25,18.983 Q1.257,18.672 1.482,18.458 Q1.706,18.243 2.017,18.25 Z"/>
  <path fill="#292D32" opacity="0.4" d="M7.25,22.01 Q7.237,21.018 6.923,20.13 Q6.128,17.88 3.869,17.077 Q2.982,16.763 1.99,16.75 Q1.679,16.746 1.463,16.523 Q1.246,16.301 1.25,15.99 Q1.254,15.679 1.477,15.463 Q1.699,15.246 2.01,15.25 Q3.249,15.266 4.371,15.663 Q7.304,16.706 8.337,19.63 Q8.734,20.751 8.75,21.99 Q8.754,22.301 8.537,22.523 Q8.321,22.746 8.01,22.75 Q7.699,22.754 7.477,22.537 Q7.254,22.32 7.25,22.01 Z"/>
  <path fill="#292D32" opacity="0.4" d="M1.995,21 L2.004,21 Q2.419,21 2.712,21.293 Q3.004,21.586 3.004,22 Q3.004,22.414 2.712,22.707 Q2.419,23 2.004,23 L1.995,23 Q1.581,23 1.288,22.707 Q0.995,22.414 0.995,22 Q0.995,21.586 1.288,21.293 Q1.581,21 1.995,21 Z"/>
</svg>

