<svg xmlns="http://www.w3.org/2000/svg" width="24" height="24" viewBox="0 0 24 24">
  <defs/>
  <path fill="#292D32" d="M18.709,9.49 C18.609,9.49 18.509,9.47 18.409,9.43 C18.029,9.26 17.859,8.82 18.019,8.44 C18.209,8.01 18.099,7.38 17.749,6.86 C17.399,6.33 16.869,5.97 16.389,6 C15.949,6 15.639,5.67 15.629,5.26 C15.629,4.84 15.959,4.51 16.369,4.5 C17.399,4.48 18.369,5.07 18.999,6.02 C19.639,6.98 19.789,8.13 19.399,9.03 C19.279,9.32 18.999,9.49 18.709,9.49 Z"/>
  <path fill="#292D32" d="M21.82,10.479 C21.75,10.479 21.69,10.469 21.62,10.449 C21.22,10.339 20.99,9.929 21.1,9.529 C21.48,8.169 21.16,6.549 20.25,5.189 C19.34,3.829 17.96,2.919 16.55,2.749 C16.14,2.699 15.85,2.329 15.9,1.919 C15.95,1.509 16.33,1.209 16.73,1.269 C18.56,1.489 20.34,2.649 21.49,4.369 C22.64,6.089 23.03,8.169 22.54,9.949 C22.45,10.259 22.15,10.479 21.82,10.479 Z"/>
  <path fill="#292D32" d="M17.119,11.781 C17.119,12.081 16.869,12.331 16.569,12.331 L3.429,12.331 C3.129,12.331 2.879,12.081 2.879,11.781 C2.879,11.481 3.129,11.231 3.429,11.231 L4.169,11.231 L4.449,9.911 C4.709,8.631 5.259,7.461 7.439,7.461 L12.569,7.461 C14.749,7.461 15.289,8.641 15.559,9.911 L15.839,11.231 L16.579,11.231 C16.869,11.231 17.119,11.481 17.119,11.781 Z"/>
  <path fill="#292D32" d="M17.43,15.912 C17.32,14.712 17,13.422 14.661,13.422 L5.341,13.422 C3.001,13.422 2.681,14.712 2.571,15.912 L2.161,20.362 C2.111,20.912 2.291,21.472 2.671,21.892 C3.061,22.312 3.601,22.552 4.191,22.552 L5.561,22.552 C6.741,22.552 6.971,21.872 7.121,21.432 L7.271,20.992 C7.441,20.492 7.481,20.362 8.141,20.362 L11.88,20.362 C12.54,20.362 12.56,20.432 12.751,20.992 L12.9,21.432 C13.05,21.882 13.271,22.552 14.46,22.552 L15.831,22.552 C16.41,22.552 16.96,22.312 17.351,21.892 C17.73,21.472 17.91,20.922 17.86,20.362 L17.43,15.912 Z M7.811,17.432 L5.621,17.432 C5.321,17.432 5.071,17.182 5.071,16.882 C5.071,16.582 5.321,16.332 5.621,16.332 L7.811,16.332 C8.111,16.332 8.361,16.582 8.361,16.882 C8.361,17.182 8.111,17.432 7.811,17.432 Z M14.38,17.432 L12.191,17.432 C11.89,17.432 11.64,17.182 11.64,16.882 C11.64,16.582 11.89,16.332 12.191,16.332 L14.38,16.332 C14.681,16.332 14.931,16.582 14.931,16.882 C14.931,17.182 14.681,17.432 14.38,17.432 Z"/>
</svg>

