<svg xmlns="http://www.w3.org/2000/svg" width="24" height="24" viewBox="0 0 24 24">
  <defs/>
  <path fill="#292D32" d="M17.6,22.56 L11.4,22.56 C10.99,22.56 10.65,22.22 10.65,21.81 C10.65,21.4 10.99,21.06 11.4,21.06 L17.6,21.06 C18.67,21.06 19.72,20.17 19.9,19.11 L21.23,11.15 C21.35,10.43 20.95,9.4 20.39,8.95 L13.46,3.41 C12.66,2.77 11.33,2.77 10.54,3.4 L3.61,8.95 C3.04,9.41 2.65,10.43 2.77,11.15 L3.05,12.84 C3.12,13.25 2.84,13.64 2.43,13.7 C2.02,13.78 1.64,13.49 1.57,13.08 L1.29,11.4 C1.08,10.16 1.68,8.57 2.67,7.78 L9.6,2.23 C10.94,1.15 13.05,1.16 14.4,2.24 L21.33,7.78 C22.31,8.57 22.91,10.16 22.71,11.4 L21.38,19.36 C21.08,21.13 19.39,22.56 17.6,22.56 Z"/>
  <path fill="#292D32" d="M5,22.75 C4.59,22.75 4.26,22.42 4.25,22.02 C4.22,20.67 3.33,19.78 1.98,19.75 C1.57,19.74 1.24,19.4 1.25,18.98 C1.26,18.57 1.59,18.25 2,18.25 C2.01,18.25 2.01,18.25 2.02,18.25 C4.17,18.3 5.71,19.83 5.75,21.98 C5.76,22.39 5.43,22.74 5.02,22.75 C5.01,22.75 5.01,22.75 5,22.75 Z"/>
  <path fill="#292D32" d="M8,22.75 C7.59,22.75 7.25,22.42 7.25,22.01 C7.24,21.35 7.13,20.72 6.93,20.13 C6.42,18.67 5.33,17.59 3.87,17.07 C3.28,16.86 2.65,16.75 1.99,16.75 C1.58,16.75 1.24,16.41 1.25,15.99 C1.25,15.58 1.59,15.25 2,15.25 L2.01,15.25 C2.84,15.26 3.63,15.4 4.37,15.66 C6.26,16.33 7.67,17.74 8.34,19.63 C8.6,20.37 8.74,21.17 8.75,21.99 C8.75,22.41 8.42,22.75 8,22.75 C8.01,22.75 8,22.75 8,22.75 Z"/>
  <path fill="#292D32" d="M2,23 C1.44,23 1,22.55 1,22 C1,21.45 1.45,21 2,21 C2.55,21 3,21.45 3,22 C3,22.55 2.56,23 2,23 Z"/>
</svg>

