<svg xmlns="http://www.w3.org/2000/svg" width="24" height="24" viewBox="0 0 24 24">
  <defs/>
  <path fill="#292D32" d="M14.75,6.2 L14.75,10 Q14.75,10.307 14.535,10.526 Q14.32,10.744 14.013,10.75 Q10.807,10.807 10.75,14.013 Q10.744,14.32 10.526,14.535 Q10.307,14.75 10,14.75 L6.2,14.75 Q3.639,14.75 2.445,13.555 Q1.25,12.361 1.25,9.8 L1.25,6.2 Q1.25,3.639 2.445,2.445 Q3.639,1.25 6.2,1.25 L9.8,1.25 Q14.75,1.25 14.75,6.2 Z M13.25,6.2 Q13.25,2.75 9.8,2.75 L6.2,2.75 Q2.75,2.75 2.75,6.2 L2.75,9.8 Q2.75,11.739 3.505,12.495 Q4.261,13.25 6.2,13.25 L9.295,13.25 Q9.679,9.679 13.25,9.295 Z"/>
  <path fill="#292D32" d="M6.539,6.49 Q6.082,6.18 5.637,6.5 Q5.385,6.681 5.078,6.63 Q4.772,6.579 4.59,6.327 Q4.409,6.075 4.46,5.768 Q4.511,5.461 4.763,5.28 Q6.059,4.351 7.381,5.25 Q7.638,5.424 7.697,5.729 Q7.755,6.034 7.58,6.291 Q7.406,6.548 7.101,6.607 Q6.796,6.665 6.539,6.49 Z"/>
  <path fill="#292D32" d="M10.539,6.49 Q10.082,6.18 9.637,6.5 Q9.385,6.681 9.078,6.63 Q8.772,6.579 8.59,6.327 Q8.409,6.075 8.46,5.768 Q8.511,5.461 8.763,5.28 Q10.059,4.351 11.381,5.25 Q11.638,5.424 11.697,5.729 Q11.755,6.034 11.58,6.291 Q11.406,6.548 11.101,6.607 Q10.796,6.665 10.539,6.49 Z"/>
  <path fill="#292D32" d="M8.16,12.17 L5.84,12.17 Q5.304,12.17 4.927,11.793 Q4.55,11.416 4.55,10.88 Q4.55,9.452 5.561,8.441 Q6.572,7.43 8,7.43 Q9.221,7.43 10.16,8.186 Q10.402,8.38 10.436,8.689 Q10.469,8.998 10.274,9.24 Q10.08,9.482 9.771,9.516 Q9.462,9.549 9.22,9.354 Q8.692,8.93 8,8.93 Q6.158,8.93 6.056,10.67 L8.16,10.67 Q8.471,10.67 8.69,10.89 Q8.91,11.109 8.91,11.42 Q8.91,11.731 8.69,11.95 Q8.471,12.17 8.16,12.17 Z"/>
  <path fill="#292D32" d="M22.75,14.2 L22.75,17.8 Q22.75,20.361 21.555,21.555 Q20.361,22.75 17.8,22.75 L14.2,22.75 Q9.25,22.75 9.25,17.8 L9.25,14 Q9.334,9.334 13.987,9.25 L17.8,9.25 Q22.75,9.25 22.75,14.2 Z M21.25,14.2 Q21.25,10.75 17.8,10.75 L14.013,10.75 Q10.807,10.807 10.75,14 L10.75,17.8 Q10.75,21.25 14.2,21.25 L17.8,21.25 Q21.25,21.25 21.25,17.8 Z"/>
  <path fill="#292D32" d="M15.381,14.24 Q14.059,15.139 12.763,14.21 Q12.511,14.029 12.46,13.722 Q12.409,13.415 12.59,13.163 Q12.771,12.911 13.078,12.86 Q13.385,12.809 13.637,12.99 Q14.082,13.31 14.539,13 Q14.796,12.825 15.101,12.883 Q15.406,12.942 15.58,13.199 Q15.755,13.456 15.697,13.761 Q15.638,14.066 15.381,14.24 Z"/>
  <path fill="#292D32" d="M19.381,14.24 Q18.059,15.139 16.763,14.21 Q16.511,14.029 16.46,13.722 Q16.409,13.415 16.59,13.163 Q16.771,12.911 17.078,12.86 Q17.385,12.809 17.637,12.99 Q18.082,13.31 18.539,13 Q18.796,12.825 19.101,12.883 Q19.406,12.942 19.58,13.199 Q19.755,13.456 19.697,13.761 Q19.638,14.066 19.381,14.24 Z"/>
  <path fill="#292D32" d="M13.84,15.43 L18.16,15.43 Q18.696,15.43 19.073,15.807 Q19.45,16.184 19.45,16.72 Q19.45,20.17 16,20.17 Q12.55,20.17 12.55,16.72 Q12.55,15.43 13.84,15.43 Z M14.056,16.93 Q14.158,18.67 16,18.67 Q17.842,18.67 17.944,16.93 L14.056,16.93 Z"/>
</svg>

