<svg xmlns="http://www.w3.org/2000/svg" width="24" height="24" viewBox="0 0 24 24">
  <defs/>
  <path fill="#292D32" d="M10,1 L4,1 C2.34,1 1,2.34 1,4 L1,10 C1,11.66 2.34,13 4,13 L8.5,13 C8.5,10.52 10.52,8.5 13,8.5 L13,4 C13,2.34 11.66,1 10,1 Z M3.77,4.27 C4.54,3.72 5.59,3.71 6.38,4.25 C6.72,4.48 6.81,4.95 6.58,5.29 C6.35,5.63 5.88,5.72 5.54,5.49 C5.27,5.3 4.9,5.3 4.63,5.5 C4.5,5.59 4.35,5.63 4.2,5.63 C3.97,5.63 3.73,5.52 3.59,5.32 C3.35,4.98 3.43,4.51 3.77,4.27 Z M9.27,8.24 C9.01,8.57 8.54,8.62 8.22,8.36 C7.87,8.08 7.45,7.93 7,7.93 C6,7.93 5.17,8.69 5.06,9.67 L7.16,9.67 C7.57,9.67 7.91,10.01 7.91,10.42 C7.91,10.83 7.57,11.17 7.16,11.17 L4.84,11.17 C4.13,11.17 3.55,10.59 3.55,9.88 C3.55,7.98 5.1,6.43 7,6.43 C7.78,6.43 8.55,6.7 9.16,7.19 C9.48,7.45 9.53,7.92 9.27,8.24 Z M10.58,5.29 C10.35,5.63 9.88,5.72 9.54,5.49 C9.27,5.3 8.9,5.3 8.63,5.5 C8.5,5.59 8.35,5.63 8.2,5.63 C7.97,5.63 7.73,5.52 7.59,5.32 C7.35,4.98 7.43,4.51 7.77,4.27 C8.54,3.72 9.59,3.71 10.38,4.25 C10.72,4.48 10.81,4.95 10.58,5.29 Z"/>
  <path fill="#292D32" d="M18.221,16.679 C18.151,16.599 18.051,16.559 17.941,16.559 L14.061,16.559 C13.951,16.559 13.851,16.599 13.781,16.679 C13.711,16.759 13.671,16.869 13.691,16.969 C13.821,18.149 14.811,19.049 16.001,19.049 C17.191,19.049 18.181,18.159 18.311,16.969 C18.321,16.859 18.291,16.759 18.221,16.679 Z"/>
  <path fill="#292D32" d="M19,10 L13,10 C11.35,10 10,11.35 10,13 L10,19 C10,20.65 11.35,22 13,22 L19,22 C20.65,22 22,20.65 22,19 L22,13 C22,11.35 20.65,10 19,10 Z M12.59,13.17 C12.83,12.83 13.3,12.75 13.64,12.99 C13.91,13.18 14.27,13.18 14.54,13 C14.88,12.76 15.35,12.85 15.58,13.2 C15.81,13.54 15.73,14.01 15.38,14.24 C14.99,14.5 14.54,14.64 14.09,14.64 C13.62,14.64 13.16,14.5 12.77,14.22 C12.43,13.97 12.35,13.5 12.59,13.17 Z M16,20.17 C14.1,20.17 12.55,18.62 12.55,16.72 C12.55,16.01 13.13,15.43 13.84,15.43 L18.16,15.43 C18.87,15.43 19.45,16.01 19.45,16.72 C19.45,18.62 17.9,20.17 16,20.17 Z M19.38,14.23 C18.99,14.49 18.54,14.63 18.09,14.63 C17.62,14.63 17.16,14.49 16.77,14.21 C16.43,13.97 16.35,13.5 16.59,13.16 C16.83,12.82 17.3,12.74 17.64,12.98 C17.91,13.17 18.27,13.17 18.54,12.99 C18.88,12.75 19.35,12.84 19.58,13.19 C19.81,13.54 19.72,14 19.38,14.23 Z"/>
</svg>

