<svg xmlns="http://www.w3.org/2000/svg" width="24" height="24" viewBox="0 0 24 24">
  <defs/>
  <path fill="#292D32" d="M10,14.75 L6.2,14.75 C2.78,14.75 1.25,13.22 1.25,9.8 L1.25,6.2 C1.25,2.78 2.78,1.25 6.2,1.25 L9.8,1.25 C13.22,1.25 14.75,2.78 14.75,6.2 L14.75,10 C14.75,10.41 14.42,10.74 14.01,10.75 C11.61,10.79 10.79,11.62 10.75,14.01 C10.74,14.42 10.41,14.75 10,14.75 Z M6.2,2.75 C3.62,2.75 2.75,3.62 2.75,6.2 L2.75,9.8 C2.75,12.38 3.62,13.25 6.2,13.25 L9.29,13.25 C9.53,10.81 10.81,9.54 13.25,9.29 L13.25,6.2 C13.25,3.62 12.38,2.75 9.8,2.75 L6.2,2.75 Z"/>
  <path fill="#292D32" d="M5.2,6.63 C4.97,6.63 4.73,6.52 4.59,6.31 C4.35,5.97 4.43,5.5 4.77,5.26 C5.55,4.71 6.6,4.7 7.39,5.24 C7.73,5.47 7.82,5.94 7.59,6.28 C7.36,6.62 6.89,6.71 6.55,6.48 C6.28,6.3 5.92,6.3 5.65,6.49 C5.5,6.59 5.35,6.63 5.2,6.63 Z"/>
  <path fill="#292D32" d="M9.2,6.63 C8.97,6.63 8.73,6.52 8.59,6.31 C8.35,5.97 8.43,5.5 8.77,5.26 C9.55,4.71 10.6,4.7 11.389,5.24 C11.729,5.47 11.819,5.94 11.589,6.28 C11.36,6.62 10.889,6.71 10.55,6.48 C10.28,6.3 9.92,6.3 9.65,6.49 C9.5,6.59 9.35,6.63 9.2,6.63 Z"/>
  <path fill="#292D32" d="M8.161,12.17 L5.841,12.17 C5.131,12.17 4.551,11.59 4.551,10.88 C4.551,8.98 6.101,7.43 8.001,7.43 C8.781,7.43 9.551,7.7 10.161,8.19 C10.481,8.45 10.541,8.92 10.281,9.24 C10.021,9.56 9.551,9.61 9.231,9.36 C8.881,9.08 8.461,8.93 8.011,8.93 C7.011,8.93 6.181,9.69 6.071,10.67 L8.171,10.67 C8.581,10.67 8.921,11.01 8.921,11.42 C8.921,11.83 8.571,12.17 8.161,12.17 Z"/>
  <path fill="#292D32" d="M17.8,22.75 L14.2,22.75 C10.78,22.75 9.25,21.22 9.25,17.8 L9.25,14 C9.31,10.81 10.81,9.31 13.99,9.25 L17.8,9.25 C21.22,9.25 22.75,10.78 22.75,14.2 L22.75,17.8 C22.75,21.22 21.22,22.75 17.8,22.75 Z M14,10.75 C11.62,10.79 10.79,11.62 10.75,14.01 L10.75,17.8 C10.75,20.38 11.62,21.25 14.2,21.25 L17.8,21.25 C20.38,21.25 21.25,20.38 21.25,17.8 L21.25,14.2 C21.25,11.62 20.38,10.75 17.8,10.75 L14,10.75 Z"/>
  <path fill="#292D32" d="M14.089,14.63 C13.62,14.63 13.159,14.49 12.77,14.21 C12.43,13.97 12.35,13.5 12.589,13.16 C12.829,12.82 13.3,12.74 13.639,12.98 C13.909,13.17 14.27,13.17 14.54,12.99 C14.88,12.76 15.35,12.84 15.579,13.19 C15.809,13.53 15.729,14 15.38,14.23 C14.989,14.5 14.54,14.63 14.089,14.63 Z"/>
  <path fill="#292D32" d="M18.09,14.63 C17.619,14.63 17.16,14.49 16.77,14.21 C16.43,13.97 16.349,13.5 16.59,13.16 C16.829,12.82 17.299,12.74 17.64,12.98 C17.91,13.17 18.27,13.17 18.54,12.99 C18.88,12.76 19.349,12.84 19.579,13.19 C19.809,13.53 19.73,14 19.38,14.23 C18.989,14.5 18.54,14.63 18.09,14.63 Z"/>
  <path fill="#292D32" d="M16.001,20.17 C14.101,20.17 12.551,18.62 12.551,16.72 C12.551,16.01 13.131,15.43 13.841,15.43 L18.161,15.43 C18.871,15.43 19.451,16.01 19.451,16.72 C19.451,18.62 17.901,20.17 16.001,20.17 Z M14.061,16.93 C14.161,17.91 14.991,18.67 16.001,18.67 C17.011,18.67 17.831,17.91 17.941,16.93 L14.061,16.93 Z"/>
</svg>

