<svg xmlns="http://www.w3.org/2000/svg" width="24" height="24" viewBox="0 0 24 24">
  <defs/>
  <path fill="#292D32" opacity="0.4" d="M14.75,6.2 L14.75,10 Q14.75,10.307 14.535,10.526 Q14.32,10.744 14.013,10.75 Q10.807,10.807 10.75,14.013 Q10.744,14.32 10.526,14.535 Q10.307,14.75 10,14.75 L6.2,14.75 Q3.639,14.75 2.445,13.555 Q1.25,12.361 1.25,9.8 L1.25,6.2 Q1.25,3.639 2.445,2.445 Q3.639,1.25 6.2,1.25 L9.8,1.25 Q14.75,1.25 14.75,6.2 Z M13.25,6.2 Q13.25,2.75 9.8,2.75 L6.2,2.75 Q2.75,2.75 2.75,6.2 L2.75,9.8 Q2.75,11.739 3.505,12.495 Q4.261,13.25 6.2,13.25 L9.295,13.25 Q9.679,9.679 13.25,9.295 Z"/>
  <path fill="#292D32" opacity="0.4" d="M6.538,6.49 Q6.081,6.18 5.636,6.5 Q5.384,6.681 5.077,6.63 Q4.771,6.58 4.59,6.327 Q4.409,6.075 4.459,5.768 Q4.51,5.462 4.762,5.281 Q6.058,4.351 7.381,5.25 Q7.638,5.424 7.696,5.729 Q7.754,6.035 7.58,6.291 Q7.405,6.548 7.1,6.607 Q6.795,6.665 6.538,6.49 Z"/>
  <path fill="#292D32" opacity="0.4" d="M10.538,6.49 Q10.081,6.18 9.636,6.5 Q9.384,6.681 9.077,6.63 Q8.771,6.58 8.59,6.327 Q8.409,6.075 8.459,5.768 Q8.51,5.462 8.762,5.281 Q10.058,4.351 11.381,5.25 Q11.638,5.424 11.696,5.729 Q11.754,6.035 11.58,6.291 Q11.405,6.548 11.1,6.607 Q10.795,6.665 10.538,6.49 Z"/>
  <path fill="#292D32" opacity="0.4" d="M8.161,12.17 L5.841,12.17 Q4.551,12.17 4.551,10.88 Q4.551,9.452 5.562,8.441 Q6.573,7.43 8.001,7.43 Q9.222,7.43 10.161,8.186 Q10.403,8.38 10.436,8.689 Q10.47,8.998 10.275,9.24 Q10.08,9.482 9.772,9.516 Q9.463,9.549 9.221,9.355 Q8.693,8.93 8.001,8.93 Q6.159,8.93 6.057,10.67 L8.161,10.67 Q8.471,10.67 8.691,10.89 Q8.911,11.11 8.911,11.42 Q8.911,11.731 8.691,11.951 Q8.471,12.17 8.161,12.17 Z"/>
  <path fill="#292D32" d="M22.75,14.2 L22.75,17.8 Q22.75,20.361 21.555,21.555 Q20.361,22.75 17.8,22.75 L14.2,22.75 Q9.25,22.75 9.25,17.8 L9.25,14 Q9.334,9.334 13.987,9.25 L17.8,9.25 Q22.75,9.25 22.75,14.2 Z M21.25,14.2 Q21.25,10.75 17.8,10.75 L14.013,10.75 Q10.807,10.807 10.75,14 L10.75,17.8 Q10.75,21.25 14.2,21.25 L17.8,21.25 Q21.25,21.25 21.25,17.8 Z"/>
  <path fill="#292D32" d="M15.381,14.241 Q14.058,15.139 12.762,14.21 Q12.51,14.029 12.459,13.722 Q12.409,13.416 12.59,13.163 Q12.771,12.911 13.077,12.86 Q13.384,12.81 13.636,12.991 Q14.081,13.31 14.538,13 Q14.795,12.825 15.1,12.883 Q15.405,12.942 15.58,13.199 Q15.754,13.456 15.696,13.761 Q15.638,14.066 15.381,14.241 Z"/>
  <path fill="#292D32" d="M19.381,14.241 Q18.058,15.139 16.762,14.21 Q16.51,14.029 16.459,13.722 Q16.409,13.416 16.59,13.163 Q16.771,12.911 17.077,12.86 Q17.384,12.81 17.636,12.991 Q18.081,13.31 18.538,13 Q18.795,12.825 19.1,12.883 Q19.405,12.942 19.58,13.199 Q19.754,13.456 19.696,13.761 Q19.638,14.066 19.381,14.241 Z"/>
  <path fill="#292D32" d="M13.841,15.43 L18.161,15.43 Q18.696,15.43 19.074,15.807 Q19.451,16.184 19.451,16.72 Q19.451,20.17 16.001,20.17 Q14.573,20.17 13.562,19.159 Q12.551,18.148 12.551,16.72 Q12.551,16.184 12.928,15.807 Q13.305,15.43 13.841,15.43 Z M14.061,16.93 Q14.127,17.603 14.622,18.099 Q15.194,18.67 16.001,18.67 Q17.843,18.67 17.945,16.93 L14.061,16.93 Z"/>
</svg>

