<svg xmlns="http://www.w3.org/2000/svg" width="24" height="24" viewBox="0 0 24 24">
  <defs/>
  <path fill="#292D32" opacity="0.4" d="M14,5 L14,10 L13,10 C11.35,10 10,11.35 10,13 L10,14 L5,14 C3.34,14 2,12.66 2,11 L2,5 C2,3.34 3.34,2 5,2 L11,2 C12.66,2 14,3.34 14,5 Z"/>
  <path fill="#292D32" d="M5.2,6.63 C4.97,6.63 4.73,6.52 4.59,6.31 C4.35,5.97 4.43,5.5 4.77,5.26 C5.55,4.71 6.6,4.7 7.39,5.24 C7.73,5.47 7.82,5.94 7.59,6.28 C7.36,6.62 6.89,6.71 6.55,6.48 C6.28,6.3 5.92,6.3 5.65,6.49 C5.5,6.59 5.35,6.63 5.2,6.63 Z"/>
  <path fill="#292D32" d="M9.2,6.63 C8.97,6.63 8.73,6.52 8.59,6.31 C8.35,5.97 8.43,5.5 8.77,5.26 C9.55,4.71 10.6,4.7 11.389,5.24 C11.729,5.47 11.819,5.94 11.589,6.28 C11.36,6.62 10.889,6.71 10.55,6.48 C10.28,6.3 9.92,6.3 9.65,6.49 C9.5,6.59 9.35,6.63 9.2,6.63 Z"/>
  <path fill="#292D32" d="M8.161,12.17 L5.841,12.17 C5.131,12.17 4.551,11.59 4.551,10.88 C4.551,8.98 6.101,7.43 8.001,7.43 C8.781,7.43 9.551,7.7 10.161,8.19 C10.481,8.45 10.541,8.92 10.281,9.24 C10.021,9.56 9.551,9.62 9.231,9.36 C8.881,9.08 8.461,8.93 8.011,8.93 C7.011,8.93 6.181,9.69 6.071,10.67 L8.171,10.67 C8.581,10.67 8.921,11.01 8.921,11.42 C8.921,11.83 8.571,12.17 8.161,12.17 Z"/>
  <path fill="#292D32" d="M18.221,16.68 C18.151,16.6 18.051,16.56 17.941,16.56 L14.061,16.56 C13.951,16.56 13.851,16.6 13.781,16.68 C13.711,16.76 13.671,16.87 13.691,16.97 C13.821,18.15 14.811,19.05 16.001,19.05 C17.191,19.05 18.181,18.16 18.311,16.97 C18.321,16.86 18.291,16.76 18.221,16.68 Z"/>
  <path fill="#292D32" d="M19,10 L13,10 C11.35,10 10,11.35 10,13 L10,19 C10,20.65 11.35,22 13,22 L19,22 C20.65,22 22,20.65 22,19 L22,13 C22,11.35 20.65,10 19,10 Z M12.59,13.17 C12.83,12.83 13.3,12.75 13.64,12.99 C13.91,13.18 14.27,13.18 14.54,13 C14.88,12.76 15.35,12.85 15.58,13.2 C15.81,13.54 15.73,14.01 15.38,14.24 C14.99,14.5 14.54,14.64 14.09,14.64 C13.62,14.64 13.16,14.5 12.77,14.22 C12.43,13.97 12.35,13.5 12.59,13.17 Z M16,20.17 C14.1,20.17 12.55,18.62 12.55,16.72 C12.55,16.01 13.13,15.43 13.84,15.43 L18.16,15.43 C18.87,15.43 19.45,16.01 19.45,16.72 C19.45,18.62 17.9,20.17 16,20.17 Z M19.38,14.23 C18.99,14.49 18.54,14.63 18.09,14.63 C17.62,14.63 17.16,14.49 16.77,14.21 C16.43,13.97 16.35,13.5 16.59,13.16 C16.83,12.82 17.3,12.74 17.64,12.98 C17.91,13.17 18.27,13.17 18.54,12.99 C18.88,12.75 19.35,12.84 19.58,13.19 C19.81,13.54 19.72,14 19.38,14.23 Z"/>
</svg>

