<svg xmlns="http://www.w3.org/2000/svg" width="24" height="24" viewBox="0 0 24 24">
  <defs/>
  <path fill="#292D32" d="M1.25,8.5 Q1.25,2.75 7,2.75 L17,2.75 Q22.75,2.75 22.75,8.5 L22.75,11.5 Q22.75,11.811 22.53,12.03 Q22.311,12.25 22,12.25 Q21.689,12.25 21.47,12.03 Q21.25,11.811 21.25,11.5 L21.25,8.5 Q21.25,4.25 17,4.25 L7,4.25 Q2.75,4.25 2.75,8.5 Q2.75,8.811 2.53,9.03 Q2.311,9.25 2,9.25 Q1.689,9.25 1.47,9.03 Q1.25,8.811 1.25,8.5 Z"/>
  <path fill="#292D32" d="M12,21.25 L7,21.25 Q4.359,21.25 2.865,19.862 Q1.25,18.363 1.25,15.5 L1.25,12.44 Q1.25,12.129 1.47,11.91 Q1.689,11.69 2,11.69 Q2.311,11.69 2.53,11.91 Q2.75,12.129 2.75,12.44 L2.75,15.5 Q2.75,19.75 7,19.75 L12,19.75 Q12.311,19.75 12.53,19.97 Q12.75,20.189 12.75,20.5 Q12.75,20.811 12.53,21.03 Q12.311,21.25 12,21.25 Z"/>
  <path fill="#292D32" d="M17.468,9.586 L14.338,12.086 Q11.995,13.951 9.653,12.087 L6.531,9.585 Q6.289,9.391 6.255,9.082 Q6.22,8.773 6.415,8.531 Q6.609,8.289 6.918,8.255 Q7.227,8.22 7.469,8.415 L10.587,10.913 Q11.995,12.034 13.402,10.914 L16.532,8.414 Q16.775,8.22 17.083,8.255 Q17.392,8.289 17.586,8.532 Q17.78,8.775 17.745,9.083 Q17.711,9.392 17.468,9.586 Z"/>
  <path fill="#292D32" d="M18.2,22.15 Q16.564,22.15 15.407,20.993 Q14.25,19.836 14.25,18.2 Q14.25,14.25 18.2,14.25 Q19.836,14.25 20.993,15.407 Q22.15,16.564 22.15,18.2 Q22.15,22.15 18.2,22.15 Z M18.2,20.65 Q19.215,20.65 19.932,19.932 Q20.65,19.215 20.65,18.2 Q20.65,17.185 19.932,16.468 Q19.215,15.75 18.2,15.75 Q15.75,15.75 15.75,18.2 Q15.75,19.215 16.468,19.932 Q17.185,20.65 18.2,20.65 Z"/>
  <path fill="#292D32" d="M21.47,22.53 L20.47,21.53 Q20.25,21.311 20.25,21 Q20.25,20.689 20.47,20.47 Q20.689,20.25 21,20.25 Q21.311,20.25 21.53,20.47 L22.53,21.47 Q22.75,21.689 22.75,22 Q22.75,22.311 22.53,22.53 Q22.311,22.75 22,22.75 Q21.689,22.75 21.47,22.53 Z"/>
</svg>

