<svg xmlns="http://www.w3.org/2000/svg" width="24" height="24" viewBox="0 0 24 24">
  <defs/>
  <path fill="#292D32" d="M19.481,2.819 L19.761,3.389 C19.901,3.669 20.251,3.929 20.561,3.989 L20.941,4.049 C22.081,4.239 22.351,5.079 21.531,5.909 L21.181,6.259 C20.951,6.499 20.821,6.959 20.891,7.279 L20.941,7.489 C21.251,8.869 20.521,9.399 19.321,8.679 L19.061,8.529 C18.751,8.349 18.251,8.349 17.941,8.529 L17.681,8.679 C16.471,9.409 15.741,8.869 16.061,7.489 L16.111,7.279 C16.181,6.959 16.051,6.499 15.821,6.259 L15.471,5.899 C14.651,5.069 14.921,4.229 16.061,4.039 L16.441,3.979 C16.741,3.929 17.101,3.659 17.241,3.379 L17.521,2.809 C18.061,1.729 18.941,1.729 19.481,2.819 Z"/>
  <path fill="#292D32" d="M21.57,10.09 C21.21,10.35 20.2,10.83 18.76,10.09 C18.6,10.01 18.4,10 18.24,10.09 C17.67,10.38 17.15,10.5 16.74,10.5 C16.1,10.5 15.65,10.25 15.43,10.09 C15.06,9.82 14.28,9.05 14.55,7.42 C14.58,7.25 14.53,7.08 14.42,6.95 C13.73,6.16 13.35,5.1 13.62,4.27 C13.72,3.94 13.51,3.5 13.17,3.5 L7,3.5 C4,3.5 2,5 2,8.5 L2,15.5 C2,19 4,20.5 7,20.5 L17,20.5 C20,20.5 22,19 22,15.5 L22,10.27 C22,10.08 21.73,9.98 21.57,10.09 Z M14.34,12.09 C13.68,12.62 12.84,12.88 12,12.88 C11.16,12.88 10.31,12.62 9.66,12.09 L6.53,9.59 C6.21,9.33 6.16,8.85 6.41,8.53 C6.67,8.21 7.14,8.15 7.46,8.41 L10.59,10.91 C11.35,11.52 12.64,11.52 13.4,10.91 C13.72,10.65 14.19,10.7 14.45,11.03 C14.72,11.35 14.67,11.83 14.34,12.09 Z"/>
</svg>

