<svg xmlns="http://www.w3.org/2000/svg" width="24" height="24" viewBox="0 0 24 24">
  <defs/>
  <path fill="#292D32" d="M17,21.25 L7,21.25 C6.59,21.25 6.25,20.91 6.25,20.5 C6.25,20.09 6.59,19.75 7,19.75 L17,19.75 C19.86,19.75 21.25,18.36 21.25,15.5 L21.25,8.5 C21.25,5.64 19.86,4.25 17,4.25 L7,4.25 C4.14,4.25 2.75,5.64 2.75,8.5 C2.75,8.91 2.41,9.25 2,9.25 C1.59,9.25 1.25,8.91 1.25,8.5 C1.25,4.85 3.35,2.75 7,2.75 L17,2.75 C20.65,2.75 22.75,4.85 22.75,8.5 L22.75,15.5 C22.75,19.15 20.65,21.25 17,21.25 Z"/>
  <path fill="#292D32" d="M11.999,12.87 C11.159,12.87 10.309,12.61 9.659,12.08 L6.529,9.58 C6.209,9.32 6.149,8.85 6.409,8.53 C6.669,8.21 7.139,8.15 7.459,8.41 L10.589,10.91 C11.349,11.52 12.639,11.52 13.399,10.91 L16.529,8.41 C16.849,8.15 17.329,8.2 17.579,8.53 C17.839,8.85 17.789,9.33 17.459,9.58 L14.329,12.08 C13.689,12.61 12.839,12.87 11.999,12.87 Z"/>
  <path fill="#292D32" d="M8,17.25 L2,17.25 C1.59,17.25 1.25,16.91 1.25,16.5 C1.25,16.09 1.59,15.75 2,15.75 L8,15.75 C8.41,15.75 8.75,16.09 8.75,16.5 C8.75,16.91 8.41,17.25 8,17.25 Z"/>
  <path fill="#292D32" d="M5,13.25 L2,13.25 C1.59,13.25 1.25,12.91 1.25,12.5 C1.25,12.09 1.59,11.75 2,11.75 L5,11.75 C5.41,11.75 5.75,12.09 5.75,12.5 C5.75,12.91 5.41,13.25 5,13.25 Z"/>
</svg>

