<svg xmlns="http://www.w3.org/2000/svg" width="24" height="24" viewBox="0 0 24 24">
  <defs/>
  <path fill="#292D32" d="M1.25,8.5 Q1.25,2.75 7,2.75 L17,2.75 Q22.75,2.75 22.75,8.5 L22.75,15.5 Q22.75,21.25 17,21.25 L7,21.25 Q6.689,21.25 6.47,21.03 Q6.25,20.811 6.25,20.5 Q6.25,20.189 6.47,19.97 Q6.689,19.75 7,19.75 L17,19.75 Q21.25,19.75 21.25,15.5 L21.25,8.5 Q21.25,4.25 17,4.25 L7,4.25 Q2.75,4.25 2.75,8.5 Q2.75,8.811 2.53,9.03 Q2.311,9.25 2,9.25 Q1.689,9.25 1.47,9.03 Q1.25,8.811 1.25,8.5 Z"/>
  <path fill="#292D32" d="M17.468,9.586 L14.338,12.086 Q11.995,13.951 9.653,12.087 L6.531,9.585 Q6.289,9.391 6.255,9.082 Q6.22,8.773 6.415,8.531 Q6.609,8.289 6.918,8.255 Q7.227,8.22 7.469,8.415 L10.587,10.913 Q11.995,12.034 13.402,10.914 L16.532,8.414 Q16.775,8.22 17.083,8.255 Q17.392,8.289 17.586,8.532 Q17.78,8.775 17.745,9.083 Q17.711,9.392 17.468,9.586 Z"/>
  <path fill="#292D32" d="M2,15.75 L8,15.75 Q8.311,15.75 8.53,15.97 Q8.75,16.189 8.75,16.5 Q8.75,16.811 8.53,17.03 Q8.311,17.25 8,17.25 L2,17.25 Q1.689,17.25 1.47,17.03 Q1.25,16.811 1.25,16.5 Q1.25,16.189 1.47,15.97 Q1.689,15.75 2,15.75 Z"/>
  <path fill="#292D32" d="M2,11.75 L5,11.75 Q5.311,11.75 5.53,11.97 Q5.75,12.189 5.75,12.5 Q5.75,12.811 5.53,13.03 Q5.311,13.25 5,13.25 L2,13.25 Q1.689,13.25 1.47,13.03 Q1.25,12.811 1.25,12.5 Q1.25,12.189 1.47,11.97 Q1.689,11.75 2,11.75 Z"/>
</svg>

