<svg xmlns="http://www.w3.org/2000/svg" width="24" height="24" viewBox="0 0 24 24">
  <defs/>
  <path fill="#292D32" d="M12,21.25 L7,21.25 Q1.25,21.25 1.25,15.5 L1.25,8.5 Q1.25,2.75 7,2.75 L17,2.75 Q22.75,2.75 22.75,8.5 L22.75,11.5 Q22.75,11.811 22.53,12.03 Q22.311,12.25 22,12.25 Q21.689,12.25 21.47,12.03 Q21.25,11.811 21.25,11.5 L21.25,8.5 Q21.25,4.25 17,4.25 L7,4.25 Q2.75,4.25 2.75,8.5 L2.75,15.5 Q2.75,19.75 7,19.75 L12,19.75 Q12.311,19.75 12.53,19.97 Q12.75,20.189 12.75,20.5 Q12.75,20.811 12.53,21.03 Q12.311,21.25 12,21.25 Z"/>
  <path fill="#292D32" d="M17.468,9.586 L14.338,12.086 Q11.995,13.951 9.653,12.087 L6.531,9.585 Q6.289,9.391 6.255,9.082 Q6.22,8.773 6.415,8.531 Q6.609,8.289 6.918,8.255 Q7.227,8.22 7.469,8.415 L10.587,10.913 Q11.995,12.034 13.402,10.914 L16.532,8.414 Q16.775,8.22 17.083,8.255 Q17.392,8.289 17.586,8.532 Q17.78,8.775 17.745,9.083 Q17.711,9.392 17.468,9.586 Z"/>
  <path fill="#292D32" d="M18.68,14.24 Q20.32,12.599 21.95,14.23 Q22.826,15.106 22.733,16.053 Q22.659,16.802 21.95,17.51 L18.419,21.042 Q18.02,21.464 17.395,21.563 L16.046,21.753 Q15.307,21.858 14.82,21.37 Q14.332,20.883 14.437,20.145 L14.629,18.783 Q14.722,18.198 15.14,17.78 Z M19.74,15.3 L16.2,18.84 Q16.127,18.914 16.111,19.017 L15.937,20.253 L17.185,20.077 Q17.282,20.062 17.33,20.01 Q17.34,19.999 17.35,19.99 L20.89,16.45 Q21.219,16.121 21.24,15.905 Q21.264,15.664 20.89,15.29 Q20.32,14.721 19.74,15.3 Z"/>
  <path fill="#292D32" d="M19.423,15.079 Q19.792,16.408 21.121,16.777 Q21.42,16.861 21.573,17.131 Q21.726,17.401 21.643,17.701 Q21.56,18 21.289,18.153 Q21.019,18.306 20.719,18.223 Q18.574,17.627 17.977,15.481 Q17.894,15.181 18.047,14.911 Q18.2,14.641 18.499,14.557 Q18.799,14.474 19.069,14.627 Q19.34,14.78 19.423,15.079 Z"/>
</svg>

