<svg xmlns="http://www.w3.org/2000/svg" width="24" height="24" viewBox="0 0 24 24">
  <defs/>
  <path fill="#292D32" d="M22.75,12.98 L22.75,15.5 Q22.75,21.25 17,21.25 L7,21.25 Q1.25,21.25 1.25,15.5 L1.25,8.5 Q1.25,2.75 7,2.75 L17,2.75 Q22.75,2.75 22.75,8.5 Q22.75,8.811 22.53,9.03 Q22.311,9.25 22,9.25 Q21.689,9.25 21.47,9.03 Q21.25,8.811 21.25,8.5 Q21.25,4.25 17,4.25 L7,4.25 Q2.75,4.25 2.75,8.5 L2.75,15.5 Q2.75,19.75 7,19.75 L17,19.75 Q21.25,19.75 21.25,15.5 L21.25,12.98 Q21.25,12.669 21.47,12.45 Q21.689,12.23 22,12.23 Q22.311,12.23 22.53,12.45 Q22.75,12.669 22.75,12.98 Z"/>
  <path fill="#292D32" d="M17.468,9.586 L14.338,12.086 Q11.995,13.951 9.653,12.087 L6.531,9.585 Q6.289,9.391 6.255,9.082 Q6.22,8.773 6.415,8.531 Q6.609,8.289 6.918,8.255 Q7.227,8.22 7.469,8.415 L10.587,10.913 Q11.995,12.034 13.402,10.914 L16.532,8.414 Q16.775,8.22 17.083,8.255 Q17.392,8.289 17.586,8.532 Q17.78,8.775 17.745,9.083 Q17.711,9.392 17.468,9.586 Z"/>
</svg>

