<svg xmlns="http://www.w3.org/2000/svg" width="24" height="24" viewBox="0 0 24 24">
  <defs/>
  <path fill="#292D32" d="M22.75,11.5 L22.75,15.5 Q22.75,21.25 17,21.25 L7,21.25 Q1.25,21.25 1.25,15.5 L1.25,8.5 Q1.25,2.75 7,2.75 L12,2.75 Q12.311,2.75 12.53,2.97 Q12.75,3.189 12.75,3.5 Q12.75,3.811 12.53,4.03 Q12.311,4.25 12,4.25 L7,4.25 Q2.75,4.25 2.75,8.5 L2.75,15.5 Q2.75,19.75 7,19.75 L17,19.75 Q21.25,19.75 21.25,15.5 L21.25,11.5 Q21.25,11.189 21.47,10.97 Q21.689,10.75 22,10.75 Q22.311,10.75 22.53,10.97 Q22.75,11.189 22.75,11.5 Z"/>
  <path fill="#292D32" opacity="0.4" d="M7.468,8.414 L10.598,10.914 Q12.005,12.034 13.413,10.913 Q13.656,10.72 13.965,10.755 Q14.273,10.79 14.467,11.033 Q14.66,11.276 14.625,11.585 Q14.59,11.893 14.347,12.087 Q12.005,13.951 9.662,12.086 L6.532,9.586 Q6.289,9.392 6.255,9.083 Q6.22,8.775 6.414,8.532 Q6.608,8.289 6.917,8.255 Q7.225,8.22 7.468,8.414 Z"/>
  <path fill="#292D32" opacity="0.4" d="M20.152,2.489 L20.432,3.059 Q20.509,3.213 20.692,3.252 L21.056,3.309 Q22.37,3.528 22.684,4.512 Q22.996,5.492 22.063,6.437 L21.71,6.79 Q21.58,6.926 21.622,7.12 L21.669,7.316 Q22.011,8.839 21.138,9.478 Q20.261,10.12 18.933,9.323 L18.684,9.18 Q18.499,9.072 18.316,9.179 L18.054,9.33 Q16.731,10.128 15.851,9.48 Q14.977,8.837 15.329,7.321 L15.38,7.106 Q15.419,6.926 15.278,6.779 L14.939,6.44 Q14.002,5.492 14.315,4.512 Q14.628,3.528 15.936,3.31 L16.322,3.249 Q16.485,3.222 16.568,3.055 L16.846,2.489 Q17.459,1.252 18.499,1.252 Q19.54,1.252 20.151,2.487 Z M18.807,3.153 Q18.807,3.152 18.806,3.151 Q18.608,2.752 18.499,2.752 Q18.39,2.752 18.192,3.151 L17.91,3.725 Q17.485,4.576 16.556,4.731 L16.182,4.79 Q15.779,4.857 15.744,4.968 Q15.707,5.083 16,5.38 L16.361,5.741 Q17.055,6.466 16.839,7.454 L16.79,7.659 Q16.661,8.214 16.74,8.272 Q16.814,8.326 17.304,8.03 L17.563,7.881 Q18.499,7.338 19.434,7.88 L19.705,8.037 Q20.179,8.321 20.252,8.267 Q20.332,8.209 20.21,7.664 L20.157,7.44 Q19.943,6.466 20.649,5.73 L20.996,5.383 Q21.291,5.083 21.255,4.968 Q21.219,4.857 20.822,4.791 L20.442,4.731 Q20.429,4.729 20.417,4.726 Q19.5,4.549 19.086,3.721 Z"/>
</svg>

