<svg xmlns="http://www.w3.org/2000/svg" width="24" height="24" viewBox="0 0 24 24">
  <defs/>
  <path fill="#292D32" d="M22.75,10.5 L22.75,15.5 Q22.75,21.25 17,21.25 L7,21.25 Q1.25,21.25 1.25,15.5 L1.25,8.5 Q1.25,2.75 7,2.75 L14,2.75 Q14.311,2.75 14.53,2.97 Q14.75,3.189 14.75,3.5 Q14.75,3.811 14.53,4.03 Q14.311,4.25 14,4.25 L7,4.25 Q2.75,4.25 2.75,8.5 L2.75,15.5 Q2.75,19.75 7,19.75 L17,19.75 Q21.25,19.75 21.25,15.5 L21.25,10.5 Q21.25,10.189 21.47,9.97 Q21.689,9.75 22,9.75 Q22.311,9.75 22.53,9.97 Q22.75,10.189 22.75,10.5 Z"/>
  <path fill="#292D32" opacity="0.4" d="M7.468,8.414 L10.598,10.914 Q12.005,12.034 13.413,10.913 L14.593,9.973 Q14.836,9.78 15.144,9.815 Q15.453,9.85 15.647,10.093 Q15.84,10.336 15.805,10.644 Q15.77,10.953 15.527,11.147 L14.347,12.087 Q12.005,13.951 9.662,12.086 L6.532,9.586 Q6.289,9.392 6.255,9.083 Q6.22,8.775 6.414,8.532 Q6.608,8.289 6.917,8.255 Q7.225,8.22 7.468,8.414 Z"/>
  <path fill="#292D32" opacity="0.4" d="M19.5,8.75 Q16.25,8.75 16.25,5.5 Q16.25,4.154 17.202,3.202 Q18.154,2.25 19.5,2.25 Q22.75,2.25 22.75,5.5 Q22.75,8.75 19.5,8.75 Z M19.5,7.25 Q20.225,7.25 20.737,6.737 Q21.25,6.225 21.25,5.5 Q21.25,3.75 19.5,3.75 Q17.75,3.75 17.75,5.5 Q17.75,6.225 18.263,6.737 Q18.775,7.25 19.5,7.25 Z"/>
</svg>

