<svg xmlns="http://www.w3.org/2000/svg" width="24" height="24" viewBox="0 0 24 24">
  <defs/>
  <path fill="#292D32" d="M12,21.25 L7,21.25 C3.35,21.25 1.25,19.15 1.25,15.5 L1.25,8.5 C1.25,4.85 3.35,2.75 7,2.75 L17,2.75 C20.65,2.75 22.75,4.85 22.75,8.5 L22.75,11.5 C22.75,11.91 22.41,12.25 22,12.25 C21.59,12.25 21.25,11.91 21.25,11.5 L21.25,8.5 C21.25,5.64 19.86,4.25 17,4.25 L7,4.25 C4.14,4.25 2.75,5.64 2.75,8.5 L2.75,15.5 C2.75,18.36 4.14,19.75 7,19.75 L12,19.75 C12.41,19.75 12.75,20.09 12.75,20.5 C12.75,20.91 12.41,21.25 12,21.25 Z"/>
  <path fill="#292D32" d="M11.999,12.87 C11.159,12.87 10.309,12.61 9.659,12.08 L6.529,9.58 C6.209,9.32 6.149,8.85 6.409,8.53 C6.669,8.21 7.139,8.16 7.459,8.41 L10.589,10.91 C11.349,11.52 12.639,11.52 13.399,10.91 L16.529,8.41 C16.849,8.15 17.319,8.2 17.579,8.53 C17.839,8.85 17.789,9.33 17.459,9.58 L14.329,12.08 C13.689,12.61 12.839,12.87 11.999,12.87 Z"/>
  <path fill="#292D32" d="M15.82,21.78 C15.44,21.78 15.08,21.64 14.82,21.38 C14.51,21.07 14.37,20.62 14.44,20.15 L14.63,18.8 C14.68,18.45 14.89,18.03 15.14,17.78 L18.68,14.24 C19.16,13.76 19.63,13.51 20.14,13.46 C20.76,13.4 21.38,13.66 21.96,14.24 C22.54,14.82 22.8,15.43 22.74,16.06 C22.69,16.56 22.43,17.04 21.96,17.52 L18.42,21.06 C18.17,21.31 17.75,21.52 17.4,21.57 L16.049,21.76 C15.97,21.77 15.9,21.78 15.82,21.78 Z M20.31,14.95 C20.3,14.95 20.29,14.95 20.28,14.95 C20.14,14.96 19.95,15.09 19.74,15.3 L16.2,18.84 C16.17,18.87 16.12,18.97 16.12,19.01 L15.94,20.26 L17.19,20.08 C17.23,20.07 17.329,20.02 17.36,19.99 L20.9,16.45 C21.11,16.23 21.24,16.05 21.25,15.91 C21.27,15.71 21.07,15.47 20.9,15.3 C20.74,15.14 20.51,14.95 20.31,14.95 Z"/>
  <path fill="#292D32" d="M20.921,18.25 C20.851,18.25 20.781,18.24 20.721,18.22 C19.401,17.85 18.351,16.8 17.981,15.48 C17.871,15.08 18.101,14.67 18.501,14.55 C18.901,14.44 19.311,14.67 19.421,15.07 C19.651,15.89 20.301,16.54 21.121,16.77 C21.521,16.88 21.751,17.3 21.641,17.7 C21.551,18.03 21.251,18.25 20.921,18.25 Z"/>
</svg>

