<svg xmlns="http://www.w3.org/2000/svg" width="24" height="24" viewBox="0 0 24 24">
  <defs/>
  <path fill="#292D32" d="M17,21.25 L7,21.25 C3.35,21.25 1.25,19.15 1.25,15.5 L1.25,8.5 C1.25,4.85 3.35,2.75 7,2.75 L12,2.75 C12.41,2.75 12.75,3.09 12.75,3.5 C12.75,3.91 12.41,4.25 12,4.25 L7,4.25 C4.14,4.25 2.75,5.64 2.75,8.5 L2.75,15.5 C2.75,18.36 4.14,19.75 7,19.75 L17,19.75 C19.86,19.75 21.25,18.36 21.25,15.5 L21.25,11.5 C21.25,11.09 21.59,10.75 22,10.75 C22.41,10.75 22.75,11.09 22.75,11.5 L22.75,15.5 C22.75,19.15 20.65,21.25 17,21.25 Z"/>
  <path fill="#292D32" d="M11.999,12.87 C11.159,12.87 10.309,12.61 9.659,12.08 L6.529,9.58 C6.209,9.32 6.149,8.85 6.409,8.53 C6.669,8.21 7.139,8.15 7.459,8.41 L10.589,10.91 C11.349,11.52 12.639,11.52 13.399,10.91 C13.719,10.65 14.189,10.7 14.449,11.03 C14.709,11.35 14.659,11.83 14.329,12.08 C13.689,12.61 12.839,12.87 11.999,12.87 Z"/>
  <path fill="#292D32" d="M16.741,9.75 C16.331,9.75 16.051,9.61 15.871,9.48 C15.541,9.24 15.031,8.64 15.331,7.32 L15.381,7.11 C15.401,7.03 15.341,6.84 15.291,6.78 L14.941,6.43 C14.351,5.83 14.121,5.13 14.321,4.5 C14.521,3.88 15.111,3.44 15.941,3.3 L16.321,3.24 C16.391,3.22 16.531,3.12 16.571,3.05 L16.851,2.48 C17.241,1.69 17.841,1.24 18.501,1.24 C19.161,1.24 19.761,1.69 20.151,2.48 L20.431,3.05 C20.461,3.11 20.611,3.22 20.681,3.24 L21.061,3.3 C21.891,3.44 22.481,3.88 22.681,4.5 C22.881,5.12 22.661,5.82 22.061,6.43 L21.711,6.78 C21.661,6.84 21.601,7.03 21.621,7.11 L21.671,7.32 C21.971,8.64 21.461,9.24 21.131,9.48 C20.801,9.72 20.081,10.01 18.931,9.32 L18.681,9.17 C18.611,9.13 18.411,9.13 18.341,9.17 L18.081,9.32 C17.541,9.64 17.091,9.75 16.741,9.75 Z M18.491,2.75 C18.481,2.76 18.341,2.86 18.201,3.15 L17.921,3.72 C17.681,4.21 17.111,4.63 16.581,4.72 L16.201,4.78 C15.881,4.83 15.771,4.94 15.761,4.96 C15.761,4.98 15.791,5.14 16.021,5.37 L16.371,5.72 C16.781,6.14 16.991,6.86 16.861,7.43 L16.811,7.64 C16.731,8 16.761,8.19 16.781,8.26 C16.801,8.24 16.981,8.22 17.311,8.02 L17.571,7.87 C18.121,7.54 18.911,7.54 19.461,7.87 L19.711,8.02 C20.041,8.22 20.211,8.24 20.271,8.24 C20.261,8.21 20.301,8.03 20.211,7.64 L20.161,7.43 C20.031,6.85 20.241,6.14 20.651,5.72 L21.001,5.37 C21.231,5.14 21.261,4.98 21.261,4.95 C21.251,4.93 21.141,4.83 20.821,4.77 L20.441,4.71 C19.901,4.62 19.341,4.2 19.101,3.71 L18.821,3.15 C18.661,2.85 18.531,2.76 18.491,2.75 Z"/>
</svg>

