<svg xmlns="http://www.w3.org/2000/svg" width="24" height="24" viewBox="0 0 24 24">
  <defs/>
  <path fill="#292D32" d="M6,13 C3.24,13 1,15.23 1,18 C1,20.77 3.24,23 6,23 C8.76,23 11,20.76 11,18 C11,15.24 8.77,13 6,13 Z M3.96,15.96 L6,15.96 C6.38,15.96 6.68,16.27 6.68,16.64 C6.68,17.01 6.37,17.32 6,17.32 L3.96,17.32 C3.58,17.32 3.28,17.01 3.28,16.64 C3.28,16.27 3.58,15.96 3.96,15.96 Z M8.04,20.04 L3.95,20.04 C3.57,20.04 3.27,19.73 3.27,19.36 C3.27,18.99 3.58,18.68 3.95,18.68 L8.04,18.68 C8.42,18.68 8.72,18.99 8.72,19.36 C8.72,19.73 8.42,20.04 8.04,20.04 Z"/>
  <path fill="#292D32" opacity="0.4" d="M17,3 L7,3 C4,3 2,4.5 2,8 L2,11.14 C2,11.87 2.75,12.33 3.42,12.04 C4.52,11.56 5.77,11.38 7.08,11.59 C9.7,12.02 11.84,14.09 12.37,16.69 C12.52,17.45 12.54,18.19 12.44,18.9 C12.36,19.49 12.84,20.01 13.43,20.01 L17,20.01 C20,20.01 22,18.51 22,15.01 L22,8.01 C22,4.5 20,3 17,3 Z"/>
  <path fill="#292D32" d="M12.001,11.87 C11.161,11.87 10.311,11.61 9.661,11.08 L6.531,8.58 C6.211,8.32 6.151,7.85 6.411,7.53 C6.671,7.21 7.141,7.15 7.461,7.41 L10.591,9.91 C11.351,10.52 12.641,10.52 13.401,9.91 L16.531,7.41 C16.851,7.15 17.331,7.2 17.581,7.53 C17.841,7.85 17.791,8.33 17.461,8.58 L14.331,11.08 C13.691,11.61 12.841,11.87 12.001,11.87 Z"/>
</svg>

