<svg xmlns="http://www.w3.org/2000/svg" width="24" height="24" viewBox="0 0 24 24">
  <defs/>
  <path fill="#292D32" d="M19.479,2.82 L19.759,3.39 C19.899,3.67 20.249,3.93 20.559,3.99 L20.939,4.05 C22.079,4.24 22.349,5.08 21.529,5.91 L21.179,6.26 C20.949,6.5 20.819,6.96 20.889,7.28 L20.939,7.49 C21.249,8.87 20.519,9.4 19.319,8.68 L19.059,8.53 C18.749,8.35 18.249,8.35 17.939,8.53 L17.679,8.68 C16.469,9.41 15.739,8.87 16.059,7.49 L16.109,7.28 C16.179,6.96 16.049,6.5 15.819,6.26 L15.469,5.91 C14.649,5.08 14.919,4.24 16.059,4.05 L16.439,3.99 C16.739,3.94 17.099,3.67 17.239,3.39 L17.519,2.82 C18.059,1.73 18.939,1.73 19.479,2.82 Z"/>
  <path fill="#292D32" opacity="0.4" d="M22,9.67 L22,15.5 C22,19 20,20.5 17,20.5 L7,20.5 C4,20.5 2,19 2,15.5 L2,8.5 C2,5 4,3.5 7,3.5 L14.05,3.5 C13.85,3.72 13.7,3.98 13.61,4.27 C13.32,5.17 13.61,6.15 14.41,6.96 L14.6,7.15 C14.19,8.96 15.04,9.81 15.43,10.09 C15.65,10.25 16.1,10.5 16.74,10.5 C17.21,10.5 17.79,10.36 18.46,9.96 L18.5,9.94 L18.54,9.96 C20.12,10.91 21.19,10.37 21.57,10.09 C21.69,10.01 21.85,9.87 22,9.67 Z"/>
  <path fill="#292D32" d="M12.001,12.87 C11.161,12.87 10.311,12.61 9.661,12.08 L6.531,9.58 C6.211,9.32 6.151,8.85 6.411,8.53 C6.671,8.21 7.141,8.15 7.461,8.41 L10.591,10.91 C11.351,11.52 12.641,11.52 13.401,10.91 C13.721,10.65 14.191,10.7 14.451,11.03 C14.711,11.35 14.661,11.83 14.331,12.08 C13.691,12.61 12.841,12.87 12.001,12.87 Z"/>
</svg>

