<svg xmlns="http://www.w3.org/2000/svg" width="24" height="24" viewBox="0 0 24 24">
  <defs/>
  <path fill="#292D32" opacity="0.4" d="M17,20.5 L7,20.5 C4,20.5 2,19 2,15.5 L2,8.5 C2,5 4,3.5 7,3.5 L17,3.5 C20,3.5 22,5 22,8.5 L22,15.5 C22,19 20,20.5 17,20.5 Z"/>
  <path fill="#292D32" d="M17.586,8.532 C17.844,8.856 17.792,9.328 17.468,9.586 L14.337,12.087 C13.034,13.124 10.956,13.124 9.653,12.087 L9.651,12.085 L6.531,9.585 C6.208,9.326 6.156,8.854 6.415,8.531 C6.674,8.208 7.146,8.156 7.469,8.415 L10.588,10.914 C11.345,11.516 12.646,11.515 13.403,10.913 L16.532,8.414 C16.856,8.156 17.327,8.208 17.586,8.532 Z"/>
  <path fill="#292D32" d="M22.661,21.47 L21.921,20.73 C22.301,20.15 22.531,19.45 22.531,18.7 C22.531,16.66 20.871,15 18.831,15 C16.791,15 15.131,16.66 15.131,18.7 C15.131,20.74 16.791,22.4 18.831,22.4 C19.581,22.4 20.281,22.17 20.861,21.79 L21.601,22.53 C21.751,22.68 21.941,22.75 22.131,22.75 C22.321,22.75 22.511,22.68 22.661,22.53 C22.951,22.24 22.951,21.76 22.661,21.47 Z"/>
</svg>

