<svg xmlns="http://www.w3.org/2000/svg" width="24" height="24" viewBox="0 0 24 24">
  <defs/>
  <path fill="#292D32" d="M17,21.25 L7,21.25 C3.35,21.25 1.25,19.15 1.25,15.5 L1.25,8.5 C1.25,4.85 3.35,2.75 7,2.75 L14,2.75 C14.41,2.75 14.75,3.09 14.75,3.5 C14.75,3.91 14.41,4.25 14,4.25 L7,4.25 C4.14,4.25 2.75,5.64 2.75,8.5 L2.75,15.5 C2.75,18.36 4.14,19.75 7,19.75 L17,19.75 C19.86,19.75 21.25,18.36 21.25,15.5 L21.25,10.5 C21.25,10.09 21.59,9.75 22,9.75 C22.41,9.75 22.75,10.09 22.75,10.5 L22.75,15.5 C22.75,19.15 20.65,21.25 17,21.25 Z"/>
  <path fill="#292D32" d="M11.999,12.87 C11.159,12.87 10.309,12.61 9.659,12.08 L6.529,9.58 C6.209,9.32 6.149,8.85 6.409,8.53 C6.669,8.21 7.139,8.15 7.459,8.41 L10.589,10.91 C11.349,11.52 12.639,11.52 13.399,10.91 L14.579,9.97 C14.899,9.71 15.379,9.76 15.629,10.09 C15.889,10.41 15.839,10.89 15.509,11.14 L14.329,12.08 C13.689,12.61 12.839,12.87 11.999,12.87 Z"/>
  <path fill="#292D32" d="M19.5,8.75 C17.71,8.75 16.25,7.29 16.25,5.5 C16.25,3.71 17.71,2.25 19.5,2.25 C21.29,2.25 22.75,3.71 22.75,5.5 C22.75,7.29 21.29,8.75 19.5,8.75 Z M19.5,3.75 C18.54,3.75 17.75,4.54 17.75,5.5 C17.75,6.46 18.54,7.25 19.5,7.25 C20.46,7.25 21.25,6.46 21.25,5.5 C21.25,4.54 20.46,3.75 19.5,3.75 Z"/>
</svg>

