<svg xmlns="http://www.w3.org/2000/svg" width="24" height="24" viewBox="0 0 24 24">
  <defs/>
  <path fill="#292D32" d="M12,21.25 L7,21.25 Q1.25,21.25 1.25,15.5 L1.25,8.5 Q1.25,2.75 7,2.75 L17,2.75 Q22.75,2.75 22.75,8.5 L22.75,11.5 Q22.75,11.811 22.53,12.03 Q22.311,12.25 22,12.25 Q21.689,12.25 21.47,12.03 Q21.25,11.811 21.25,11.5 L21.25,8.5 Q21.25,4.25 17,4.25 L7,4.25 Q2.75,4.25 2.75,8.5 L2.75,15.5 Q2.75,19.75 7,19.75 L12,19.75 Q12.311,19.75 12.53,19.97 Q12.75,20.189 12.75,20.5 Q12.75,20.811 12.53,21.03 Q12.311,21.25 12,21.25 Z"/>
  <path fill="#292D32" opacity="0.4" d="M17.468,9.586 L14.338,12.086 Q11.995,13.951 9.653,12.087 L6.531,9.585 Q6.289,9.391 6.255,9.082 Q6.22,8.773 6.415,8.531 Q6.609,8.289 6.918,8.255 Q7.227,8.22 7.469,8.415 L10.587,10.913 Q11.995,12.034 13.402,10.914 L16.532,8.414 Q16.775,8.22 17.083,8.255 Q17.392,8.289 17.586,8.532 Q17.78,8.775 17.745,9.083 Q17.711,9.392 17.468,9.586 Z"/>
  <g opacity="0.4">
    <path fill="#292D32" d="M18.679,14.239 Q19.385,13.533 20.132,13.456 Q21.079,13.359 21.949,14.229 Q22.825,15.105 22.732,16.052 Q22.658,16.802 21.949,17.51 L18.418,21.042 Q18.019,21.464 17.394,21.562 L16.045,21.752 Q15.306,21.858 14.819,21.37 Q14.331,20.882 14.436,20.145 L14.628,18.783 Q14.721,18.198 15.139,17.779 Z M19.739,15.3 L16.199,18.84 Q16.126,18.913 16.11,19.017 L15.936,20.253 L17.185,20.077 Q17.281,20.062 17.33,20.009 Q17.339,19.999 17.349,19.989 L20.889,16.449 Q21.218,16.121 21.239,15.905 Q21.263,15.664 20.889,15.29 Q20.523,14.924 20.286,14.948 Q20.069,14.971 19.739,15.3 Z"/>
    <path fill="#292D32" d="M19.422,15.079 Q19.791,16.408 21.12,16.777 Q21.419,16.86 21.572,17.131 Q21.725,17.401 21.642,17.701 Q21.559,18 21.288,18.153 Q21.018,18.306 20.718,18.222 Q18.573,17.626 17.977,15.481 Q17.893,15.181 18.046,14.911 Q18.199,14.64 18.498,14.557 Q18.798,14.474 19.068,14.627 Q19.339,14.78 19.422,15.079 Z"/>
  </g>
</svg>

