<svg xmlns="http://www.w3.org/2000/svg" width="24" height="24" viewBox="0 0 24 24">
  <defs/>
  <path fill="#292D32" opacity="0.4" d="M7,3 L17,3 C20,3 22,4.5 22,8 L22,11.14 C22,11.87 21.25,12.33 20.58,12.04 C19.48,11.56 18.23,11.38 16.92,11.59 C14.3,12.02 12.16,14.09 11.63,16.69 C11.48,17.45 11.46,18.19 11.56,18.9 C11.64,19.49 11.16,20.01 10.57,20.01 L7,20.01 C4,20.01 2,18.51 2,15.01 L2,8.01 C2,4.5 4,3 7,3 Z"/>
  <path fill="#292D32" d="M12.001,11.87 C11.161,11.87 10.311,11.61 9.661,11.08 L6.531,8.58 C6.211,8.32 6.151,7.85 6.411,7.53 C6.671,7.21 7.141,7.15 7.461,7.41 L10.591,9.91 C11.351,10.52 12.641,10.52 13.401,9.91 L16.531,7.41 C16.851,7.15 17.331,7.2 17.581,7.53 C17.841,7.85 17.791,8.33 17.461,8.58 L14.331,11.08 C13.691,11.61 12.841,11.87 12.001,11.87 Z"/>
  <path fill="#292D32" d="M18,13 C15.24,13 13,15.23 13,18 C13,20.76 15.24,23 18,23 C20.77,23 23,20.76 23,18 C23,15.23 20.77,13 18,13 Z M20.05,17.55 L19.68,17.91 L17.51,20.09 C17.41,20.18 17.22,20.28 17.08,20.3 L16.1,20.44 C15.75,20.49 15.5,20.24 15.55,19.89 L15.69,18.91 C15.71,18.77 15.8,18.58 15.9,18.48 L18.08,16.31 L18.44,15.94 C18.68,15.7 18.95,15.54 19.23,15.54 C19.47,15.54 19.74,15.65 20.04,15.94 C20.7,16.6 20.49,17.11 20.05,17.55 Z"/>
</svg>

