<svg xmlns="http://www.w3.org/2000/svg" width="24" height="24" viewBox="0 0 24 24">
  <defs/>
  <path fill="#292D32" d="M17,3.5 L7,3.5 C4,3.5 2,5 2,8.5 L2,15.5 C2,19 4,20.5 7,20.5 L17,20.5 C20,20.5 22,19 22,15.5 L22,8.5 C22,5 20,3.5 17,3.5 Z M17.47,9.59 L14.34,12.09 C13.68,12.62 12.84,12.88 12,12.88 C11.16,12.88 10.31,12.62 9.66,12.09 L6.53,9.59 C6.21,9.33 6.16,8.85 6.41,8.53 C6.67,8.21 7.14,8.15 7.46,8.41 L10.59,10.91 C11.35,11.52 12.64,11.52 13.4,10.91 L16.53,8.41 C16.85,8.15 17.33,8.2 17.58,8.53 C17.84,8.85 17.79,9.33 17.47,9.59 Z"/>
</svg>

