<svg xmlns="http://www.w3.org/2000/svg" width="24" height="24" viewBox="0 0 24 24">
  <defs/>
  <path fill="#292D32" d="M19.5,8 C20.881,8 22,6.881 22,5.5 C22,4.119 20.881,3 19.5,3 C18.119,3 17,4.119 17,5.5 C17,6.881 18.119,8 19.5,8 Z"/>
  <path fill="#292D32" d="M19.5,8 C20.881,8 22,6.881 22,5.5 C22,4.119 20.881,3 19.5,3 C18.119,3 17,4.119 17,5.5 C17,6.881 18.119,8 19.5,8 Z"/>
  <path fill="#292D32" opacity="0.4" d="M20.72,9.31 C21.35,9.11 22,9.6 22,10.27 L22,15.51 C22,19.01 20,20.51 17,20.51 L7,20.51 C4,20.51 2,19.01 2,15.51 L2,8.51 C2,5.01 4,3.51 7,3.51 L14.61,3.51 C15.26,3.51 15.7,4.11 15.58,4.74 C15.46,5.33 15.48,5.96 15.66,6.61 C16.03,7.95 17.12,9.02 18.46,9.37 C19.25,9.57 20.02,9.53 20.72,9.31 Z"/>
  <path fill="#292D32" d="M12.001,12.87 C11.161,12.87 10.311,12.61 9.661,12.08 L6.531,9.58 C6.211,9.32 6.151,8.85 6.411,8.53 C6.671,8.21 7.141,8.15 7.461,8.41 L10.591,10.91 C11.351,11.52 12.641,11.52 13.401,10.91 L14.581,9.97 C14.901,9.71 15.381,9.76 15.631,10.09 C15.891,10.41 15.841,10.89 15.511,11.14 L14.331,12.08 C13.691,12.61 12.841,12.87 12.001,12.87 Z"/>
</svg>

