<svg xmlns="http://www.w3.org/2000/svg" width="24" height="24" viewBox="0 0 24 24">
  <defs/>
  <path fill="#292D32" d="M6,13 C3.24,13 1,15.23 1,18 C1,20.77 3.24,23 6,23 C8.76,23 11,20.76 11,18 C11,15.24 8.77,13 6,13 Z M3.96,15.96 L6,15.96 C6.38,15.96 6.68,16.27 6.68,16.64 C6.68,17.01 6.38,17.32 6,17.32 L3.96,17.32 C3.58,17.32 3.28,17.01 3.28,16.64 C3.28,16.27 3.58,15.96 3.96,15.96 Z M8.04,20.04 L3.96,20.04 C3.58,20.04 3.28,19.73 3.28,19.36 C3.28,18.99 3.59,18.68 3.96,18.68 L8.05,18.68 C8.43,18.68 8.73,18.99 8.73,19.36 C8.73,19.73 8.42,20.04 8.04,20.04 Z"/>
  <path fill="#292D32" d="M17,3 L7,3 C4,3 2,4.5 2,8 L2,11.14 C2,11.87 2.75,12.33 3.42,12.04 C4.52,11.56 5.77,11.38 7.08,11.59 C9.7,12.02 11.84,14.09 12.37,16.69 C12.52,17.45 12.54,18.19 12.44,18.9 C12.36,19.49 12.84,20.01 13.43,20.01 L17,20.01 C20,20.01 22,18.51 22,15.01 L22,8 C22,4.5 20,3 17,3 Z M17.47,8.59 L14.34,11.09 C13.68,11.62 12.84,11.88 12,11.88 C11.16,11.88 10.31,11.62 9.66,11.09 L6.53,8.59 C6.21,8.33 6.16,7.85 6.41,7.53 C6.67,7.21 7.14,7.15 7.46,7.41 L10.59,9.91 C11.35,10.52 12.64,10.52 13.4,9.91 L16.53,7.41 C16.85,7.15 17.33,7.2 17.58,7.53 C17.84,7.85 17.79,8.33 17.47,8.59 Z"/>
</svg>

