<svg xmlns="http://www.w3.org/2000/svg" width="24" height="24" viewBox="0 0 24 24">
  <defs/>
  <path fill="#292D32" d="M12,21.25 L7,21.25 C3.35,21.25 1.25,19.15 1.25,15.5 L1.25,8.5 C1.25,4.85 3.35,2.75 7,2.75 L17,2.75 C20.65,2.75 22.75,4.85 22.75,8.5 L22.75,11.5 C22.75,11.91 22.41,12.25 22,12.25 C21.59,12.25 21.25,11.91 21.25,11.5 L21.25,8.5 C21.25,5.64 19.86,4.25 17,4.25 L7,4.25 C4.14,4.25 2.75,5.64 2.75,8.5 L2.75,15.5 C2.75,18.36 4.14,19.75 7,19.75 L12,19.75 C12.41,19.75 12.75,20.09 12.75,20.5 C12.75,20.91 12.41,21.25 12,21.25 Z"/>
  <path fill="#292D32" d="M11.999,12.87 C11.159,12.87 10.309,12.61 9.659,12.08 L6.529,9.58 C6.209,9.32 6.149,8.85 6.409,8.53 C6.669,8.21 7.139,8.16 7.459,8.41 L10.589,10.91 C11.349,11.52 12.639,11.52 13.399,10.91 L16.529,8.41 C16.849,8.15 17.319,8.2 17.579,8.53 C17.839,8.85 17.789,9.33 17.459,9.58 L14.329,12.08 C13.689,12.61 12.839,12.87 11.999,12.87 Z"/>
  <path fill="#292D32" d="M18.2,22.15 C16.02,22.15 14.25,20.38 14.25,18.2 C14.25,16.02 16.02,14.25 18.2,14.25 C20.38,14.25 22.15,16.02 22.15,18.2 C22.15,20.38 20.38,22.15 18.2,22.15 Z M18.2,15.75 C16.85,15.75 15.75,16.85 15.75,18.2 C15.75,19.55 16.85,20.65 18.2,20.65 C19.55,20.65 20.65,19.55 20.65,18.2 C20.65,16.85 19.55,15.75 18.2,15.75 Z"/>
  <path fill="#292D32" d="M22,22.75 C21.809,22.75 21.619,22.68 21.47,22.53 L20.47,21.53 C20.18,21.24 20.18,20.76 20.47,20.47 C20.759,20.18 21.239,20.18 21.529,20.47 L22.529,21.47 C22.82,21.76 22.82,22.24 22.529,22.53 C22.38,22.68 22.189,22.75 22,22.75 Z"/>
</svg>

