<svg xmlns="http://www.w3.org/2000/svg" width="24" height="24" viewBox="0 0 24 24">
  <defs/>
  <path fill="#292D32" d="M17,3 L7,3 C4,3 2,4.5 2,8 L2,15.96 C2,18.25 3.85,20.1 6.14,20.1 L12.4,20.1 C12.98,20.1 13.48,19.61 13.42,19.03 C13.28,17.5 13.78,15.85 15.14,14.52 C15.7,13.97 16.39,13.55 17.14,13.31 C18.39,12.91 19.6,12.96 20.67,13.33 C21.32,13.55 22,13.08 22,12.39 L22,8 C22,4.5 20,3 17,3 Z M17.47,8.59 L14.34,11.09 C13.68,11.62 12.84,11.88 12,11.88 C11.16,11.88 10.31,11.62 9.66,11.09 L6.53,8.59 C6.21,8.33 6.16,7.86 6.41,7.53 C6.67,7.21 7.14,7.15 7.46,7.41 L10.59,9.91 C11.35,10.52 12.64,10.52 13.4,9.91 L16.53,7.41 C16.85,7.15 17.33,7.2 17.58,7.53 C17.84,7.86 17.79,8.33 17.47,8.59 Z"/>
  <path fill="#292D32" d="M22.65,21.449 L21.9,20.699 C22.29,20.109 22.52,19.399 22.52,18.639 C22.52,16.559 20.84,14.879 18.76,14.879 C16.68,14.879 15,16.559 15,18.629 C15,20.699 16.68,22.389 18.76,22.389 C19.52,22.389 20.23,22.159 20.82,21.769 L21.57,22.519 C21.72,22.669 21.91,22.739 22.11,22.739 C22.31,22.739 22.5,22.669 22.65,22.519 C22.95,22.229 22.95,21.749 22.65,21.449 Z"/>
</svg>

