<svg xmlns="http://www.w3.org/2000/svg" width="24" height="24" viewBox="0 0 24 24">
  <defs/>
  <path fill="#292D32" d="M19.5,8 C20.881,8 22,6.881 22,5.5 C22,4.119 20.881,3 19.5,3 C18.119,3 17,4.119 17,5.5 C17,6.881 18.119,8 19.5,8 Z"/>
  <path fill="#292D32" d="M19.5,8 C20.881,8 22,6.881 22,5.5 C22,4.119 20.881,3 19.5,3 C18.119,3 17,4.119 17,5.5 C17,6.881 18.119,8 19.5,8 Z"/>
  <path fill="#292D32" d="M20.72,9.31 C20.02,9.53 19.25,9.57 18.45,9.37 C17.11,9.02 16.02,7.95 15.65,6.61 C15.47,5.96 15.46,5.32 15.57,4.74 C15.7,4.1 15.25,3.5 14.61,3.5 L7,3.5 C4,3.5 2,5 2,8.5 L2,15.5 C2,19 4,20.5 7,20.5 L17,20.5 C20,20.5 22,19 22,15.5 L22,10.26 C22,9.6 21.36,9.1 20.72,9.31 Z M15.52,11.15 L14.34,12.09 C13.68,12.62 12.84,12.88 12,12.88 C11.16,12.88 10.31,12.62 9.66,12.09 L6.53,9.59 C6.21,9.33 6.16,8.85 6.41,8.53 C6.67,8.21 7.14,8.15 7.46,8.41 L10.59,10.91 C11.35,11.52 12.64,11.52 13.4,10.91 L14.58,9.97 C14.9,9.71 15.38,9.76 15.63,10.09 C15.89,10.41 15.84,10.89 15.52,11.15 Z"/>
</svg>

