<svg xmlns="http://www.w3.org/2000/svg" width="24" height="24" viewBox="0 0 24 24">
  <defs/>
  <path fill="#292D32" d="M17,3 L7,3 C4,3 2,4.5 2,8 L2,15 C2,18.5 4,20 7,20 L10.57,20 C11.16,20 11.64,19.48 11.56,18.89 C11.46,18.18 11.48,17.44 11.63,16.68 C12.16,14.08 14.3,12.01 16.92,11.58 C18.23,11.37 19.48,11.55 20.58,12.03 C21.25,12.32 22,11.86 22,11.13 L22,8 C22,4.5 20,3 17,3 Z M17.47,8.59 L14.34,11.09 C13.68,11.62 12.84,11.88 12,11.88 C11.16,11.88 10.31,11.62 9.66,11.09 L6.53,8.59 C6.21,8.33 6.16,7.86 6.41,7.53 C6.67,7.21 7.14,7.15 7.46,7.41 L10.59,9.91 C11.35,10.52 12.64,10.52 13.4,9.91 L16.53,7.41 C16.85,7.15 17.33,7.2 17.58,7.53 C17.84,7.86 17.79,8.33 17.47,8.59 Z"/>
  <path fill="#292D32" d="M18,13 C15.24,13 13,15.23 13,18 C13,20.76 15.24,23 18,23 C20.77,23 23,20.76 23,18 C23,15.23 20.77,13 18,13 Z M20.05,17.55 L19.68,17.91 L17.5,20.1 C17.4,20.19 17.21,20.29 17.07,20.31 L16.09,20.45 C15.74,20.5 15.49,20.25 15.54,19.9 L15.68,18.92 C15.7,18.78 15.79,18.59 15.89,18.49 L18.07,16.32 L18.43,15.95 C18.67,15.71 18.94,15.55 19.22,15.55 C19.46,15.55 19.73,15.66 20.03,15.95 C20.7,16.6 20.49,17.11 20.05,17.55 Z"/>
</svg>

