<svg xmlns="http://www.w3.org/2000/svg" width="24" height="24" viewBox="0 0 24 24">
  <defs/>
  <path fill="#292D32" opacity="0.4" d="M17,20.5 L7,20.5 C4,20.5 2,19 2,15.5 L2,8.5 C2,5 4,3.5 7,3.5 L17,3.5 C20,3.5 22,5 22,8.5 L22,15.5 C22,19 20,20.5 17,20.5 Z"/>
  <path fill="#292D32" d="M12.001,12.87 C11.161,12.87 10.311,12.61 9.661,12.08 L6.531,9.58 C6.211,9.32 6.151,8.85 6.411,8.53 C6.671,8.21 7.141,8.15 7.461,8.41 L10.591,10.91 C11.351,11.52 12.641,11.52 13.401,10.91 L16.531,8.41 C16.851,8.15 17.331,8.2 17.581,8.53 C17.841,8.85 17.791,9.33 17.461,9.58 L14.331,12.08 C13.691,12.61 12.841,12.87 12.001,12.87 Z"/>
</svg>

