<svg xmlns="http://www.w3.org/2000/svg" width="24" height="24" viewBox="0 0 24 24">
  <defs/>
  <path d="M17.672,15.967 Q17.263,16.192 16.762,16.318 Q16.73,16.325 16.704,16.332 Q16.608,16.731 16.33,16.94 Q16.313,16.953 16.296,16.964 Q16.029,17.142 15.431,17.169 Q15.398,17.171 15.337,17.175 Q14.812,17.207 14.489,17.301 Q14.336,17.361 14.016,17.553 Q13.013,18.18 11.99,18.18 Q10.977,18.18 9.962,17.546 Q9.669,17.356 9.494,17.292 Q9.119,17.178 8.565,17.16 Q7.983,17.134 7.714,16.973 Q7.378,16.763 7.274,16.316 Q7.257,16.311 7.238,16.305 Q7.214,16.298 7.197,16.292 Q6.676,16.16 6.307,15.957 Q5.526,15.52 5.781,14.816 Q5.899,14.49 6.281,14.282 Q6.297,14.273 6.314,14.264 Q7.923,13.489 8.113,12.53 Q7.981,12.442 7.715,12.272 Q7.697,12.26 7.679,12.247 Q7.575,12.171 7.514,12.141 Q7.462,12.115 7.414,12.08 Q6.522,11.443 6.834,10.576 Q7.09,9.85 7.92,9.85 Q8.077,9.85 8.242,9.89 Q8.247,9.891 8.252,9.892 Q8.246,9.441 8.272,9.087 Q8.272,9.078 8.273,9.069 Q8.39,7.844 9.129,7.012 Q10.197,5.81 11.97,5.81 Q13.689,5.81 14.796,6.986 Q14.807,6.998 14.817,7.009 Q15.553,7.86 15.667,9.07 Q15.699,9.451 15.693,9.89 Q15.84,9.85 16.02,9.85 Q16.846,9.85 17.107,10.59 Q17.422,11.43 16.542,12.069 Q16.387,12.19 16.2,12.288 Q16.144,12.325 16.053,12.384 Q15.926,12.468 15.844,12.522 Q16.145,13.542 17.607,14.256 Q18.029,14.434 18.178,14.781 Q18.49,15.51 17.676,15.965 Z M15.946,15.01 Q14.582,14.024 14.322,12.594 Q14.313,12.548 14.311,12.5 Q14.243,11.946 14.635,11.564 Q14.458,11.484 14.33,11.321 Q14.13,11.068 14.15,10.714 L14.15,10.71 Q14.15,10.678 14.153,10.646 Q14.224,9.812 14.173,9.21 Q14.105,8.487 13.693,8.002 Q13.032,7.31 11.97,7.31 Q10.871,7.31 10.25,8.008 Q9.839,8.471 9.767,9.203 Q9.73,9.733 9.776,10.564 Q9.787,10.636 9.789,10.714 Q9.812,11.058 9.621,11.313 Q9.491,11.485 9.311,11.57 Q9.696,11.951 9.629,12.501 Q9.628,12.514 9.627,12.528 Q9.496,13.962 8.028,14.999 Q8.147,15.052 8.234,15.108 Q8.536,15.299 8.662,15.662 Q9.399,15.692 9.953,15.864 Q9.964,15.868 9.976,15.872 Q10.325,15.993 10.757,16.274 Q11.407,16.68 11.99,16.68 Q12.583,16.68 13.244,16.267 Q13.706,15.99 13.993,15.885 Q14.012,15.878 14.031,15.873 Q14.527,15.722 15.245,15.678 Q15.289,15.675 15.317,15.673 Q15.443,15.31 15.744,15.119 Q15.835,15.06 15.946,15.01 Z M16.568,16.373 Q16.567,16.373 16.566,16.374 Q16.554,16.382 16.543,16.389 Q16.556,16.381 16.568,16.373 Z M7.412,16.363 Q7.424,16.371 7.437,16.379 Q7.425,16.372 7.414,16.364 L7.412,16.363 Z"/>
  <path fill="#17191C" d="M4.6,6.449 Q2.75,8.922 2.75,12 Q2.75,15.829 5.46,18.54 Q8.171,21.25 12,21.25 Q15.829,21.25 18.54,18.54 Q21.25,15.829 21.25,12 Q21.25,8.171 18.54,5.46 Q15.829,2.75 12,2.75 Q10.031,2.75 8.276,3.535 Q7.993,3.661 7.702,3.551 Q7.412,3.44 7.285,3.156 Q7.159,2.873 7.269,2.582 Q7.38,2.292 7.664,2.165 Q9.711,1.25 12,1.25 Q16.451,1.25 19.6,4.4 Q22.75,7.549 22.75,12 Q22.75,16.451 19.6,19.6 Q16.451,22.75 12,22.75 Q7.549,22.75 4.4,19.6 Q1.25,16.451 1.25,12 Q1.25,8.422 3.4,5.551 Q3.586,5.302 3.893,5.258 Q4.201,5.213 4.449,5.4 Q4.698,5.586 4.742,5.893 Q4.787,6.201 4.6,6.449 Z"/>
</svg>

