<svg xmlns="http://www.w3.org/2000/svg" width="24" height="24" viewBox="0 0 24 24">
  <defs/>
  <path fill="white" opacity="0.58" d="M24,0 L0,0 L0,24 L24,24 L24,0 Z"/>
  <path fill="#292D32" opacity="0.4" d="M12,22 C17.523,22 22,17.523 22,12 C22,6.477 17.523,2 12,2 C6.477,2 2,6.477 2,12 C2,17.523 6.477,22 12,22 Z"/>
  <path fill="#292D32" d="M17.31,15.31 C17.02,15.47 16.78,15.54 16.58,15.59 C16.41,15.63 16.27,15.67 16.15,15.75 C16.02,15.83 16.01,15.96 15.99,16.08 C15.97,16.19 15.96,16.28 15.88,16.34 C15.79,16.4 15.62,16.41 15.39,16.42 C15.09,16.44 14.71,16.45 14.25,16.59 C14.03,16.67 13.83,16.79 13.63,16.91 C13.23,17.16 12.78,17.43 11.99,17.43 C11.21,17.43 10.76,17.16 10.36,16.91 C10.16,16.78 9.96,16.66 9.73,16.58 C9.28,16.44 8.89,16.42 8.59,16.41 C8.36,16.4 8.2,16.39 8.1,16.33 C8.02,16.28 8.01,16.18 7.99,16.07 C7.97,15.95 7.96,15.82 7.83,15.74 C7.71,15.66 7.56,15.62 7.4,15.57 C7.2,15.52 6.96,15.46 6.67,15.3 C6.33,15.11 6.53,15 6.64,14.94 C8.57,14.01 8.87,12.57 8.88,12.46 L8.88,12.44 C8.9,12.32 8.91,12.22 8.77,12.09 C8.68,12 8.37,11.8 8.12,11.64 C8.01,11.56 7.91,11.5 7.85,11.47 C7.57,11.27 7.45,11.08 7.54,10.83 C7.6,10.66 7.76,10.6 7.92,10.6 C7.97,10.6 8.03,10.61 8.07,10.62 C8.25,10.66 8.43,10.73 8.59,10.79 C8.7,10.84 8.79,10.87 8.86,10.89 C8.88,10.9 8.91,10.9 8.92,10.9 C9.02,10.9 9.05,10.85 9.04,10.75 C9.04,10.72 9.04,10.69 9.03,10.66 C9.01,10.31 8.98,9.7 9.02,9.14 C9.1,8.3 9.37,7.87 9.69,7.51 C9.85,7.33 10.58,6.56 11.97,6.56 C13.36,6.56 14.09,7.33 14.25,7.5 C14.57,7.87 14.84,8.29 14.92,9.14 C14.97,9.73 14.93,10.36 14.9,10.71 L14.9,10.74 C14.89,10.85 14.92,10.89 15.02,10.89 C15.04,10.89 15.06,10.89 15.08,10.88 C15.15,10.86 15.24,10.83 15.35,10.79 C15.5,10.73 15.68,10.66 15.87,10.62 C15.92,10.6 15.97,10.6 16.02,10.6 C16.19,10.6 16.34,10.67 16.4,10.84 C16.49,11.08 16.37,11.27 16.09,11.47 C16.04,11.51 15.94,11.58 15.82,11.64 C15.58,11.8 15.26,12 15.17,12.09 C15.03,12.22 15.04,12.32 15.06,12.44 L15.06,12.46 C15.08,12.57 15.38,14.01 17.3,14.94 C17.45,15 17.65,15.12 17.31,15.31 Z"/>
</svg>

