<svg xmlns="http://www.w3.org/2000/svg" width="24" height="24" viewBox="0 0 24 24">
  <defs/>
  <path d="M12,2 C17.52,2 22,6.48 22,12 C22,17.52 17.52,22 12,22 C6.48,22 2,17.52 2,12 C2,6.48 6.48,2 12,2 Z M17.31,15.31 C17.65,15.12 17.45,15 17.3,14.94 C15.38,14.01 15.08,12.57 15.06,12.46 L15.06,12.44 C15.04,12.32 15.03,12.22 15.17,12.09 C15.26,12 15.58,11.8 15.82,11.64 C15.94,11.58 16.04,11.51 16.09,11.47 C16.37,11.27 16.49,11.08 16.4,10.84 C16.34,10.67 16.19,10.6 16.02,10.6 C15.97,10.6 15.92,10.6 15.87,10.62 C15.68,10.66 15.5,10.73 15.35,10.79 C15.24,10.83 15.15,10.86 15.08,10.88 C15.06,10.89 15.04,10.89 15.02,10.89 C14.92,10.89 14.89,10.85 14.9,10.74 L14.9,10.71 C14.93,10.36 14.97,9.73 14.92,9.14 C14.84,8.29 14.57,7.87 14.25,7.5 C14.09,7.33 13.37,6.56 11.97,6.56 C10.58,6.56 9.85,7.33 9.69,7.51 C9.37,7.87 9.1,8.3 9.02,9.14 C8.98,9.7 9.01,10.31 9.03,10.66 C9.04,10.69 9.04,10.72 9.04,10.75 C9.05,10.85 9.02,10.9 8.92,10.9 C8.91,10.9 8.88,10.9 8.86,10.89 C8.79,10.87 8.7,10.84 8.59,10.79 C8.43,10.73 8.25,10.66 8.07,10.62 C8.03,10.61 7.97,10.6 7.92,10.6 C7.76,10.6 7.6,10.66 7.54,10.83 C7.45,11.08 7.57,11.27 7.85,11.47 C7.91,11.5 8.01,11.56 8.12,11.64 C8.37,11.8 8.68,12 8.77,12.09 C8.91,12.22 8.9,12.32 8.88,12.44 L8.88,12.46 C8.87,12.57 8.57,14.01 6.64,14.94 C6.53,15 6.33,15.11 6.67,15.3 C6.96,15.46 7.2,15.52 7.4,15.57 C7.56,15.62 7.71,15.66 7.83,15.74 C7.96,15.82 7.97,15.95 7.99,16.07 C8.01,16.18 8.02,16.28 8.1,16.33 C8.2,16.39 8.36,16.4 8.59,16.41 C8.89,16.42 9.28,16.44 9.73,16.58 C9.96,16.66 10.16,16.78 10.36,16.91 C10.76,17.16 11.21,17.43 11.99,17.43 C12.78,17.43 13.23,17.16 13.63,16.91 C13.83,16.79 14.03,16.67 14.25,16.59 C14.71,16.45 15.09,16.44 15.39,16.42 C15.62,16.41 15.79,16.4 15.88,16.34 C15.96,16.28 15.97,16.19 15.99,16.08 C16.01,15.96 16.02,15.83 16.15,15.75 C16.27,15.67 16.41,15.63 16.58,15.59 C16.78,15.54 17.02,15.47 17.31,15.31 Z"/>
</svg>

