<svg xmlns="http://www.w3.org/2000/svg" width="24" height="24" viewBox="0 0 24 24">
  <defs/>
  <path d="M12,18.18 C10.98,18.18 10.37,17.8 9.97,17.55 C9.78,17.43 9.64,17.35 9.5,17.3 C9.17,17.19 8.86,17.18 8.59,17.16 C8.28,17.15 7.97,17.14 7.7,16.96 C7.42,16.77 7.33,16.5 7.29,16.32 C7.27,16.31 7.25,16.31 7.23,16.3 C6.97,16.23 6.68,16.15 6.33,15.96 C5.81,15.67 5.75,15.28 5.75,15.07 C5.76,14.87 5.84,14.49 6.34,14.26 C7.55,13.68 7.97,12.87 8.1,12.52 C7.99,12.45 7.86,12.37 7.74,12.29 L7.43,12.09 C6.61,11.52 6.75,10.84 6.85,10.58 C7.01,10.14 7.42,9.87 7.93,9.87 C8.03,9.87 8.12,9.88 8.21,9.9 C8.23,9.9 8.24,9.91 8.26,9.91 C8.26,9.6 8.26,9.33 8.28,9.09 C8.38,8.02 8.76,7.45 9.13,7.03 C9.45,6.67 10.36,5.82 11.98,5.82 C13.09,5.82 14.13,6.25 14.82,7 C15.22,7.47 15.59,8.03 15.68,9.08 C15.7,9.36 15.71,9.64 15.71,9.9 C15.72,9.9 15.72,9.9 15.73,9.9 C15.77,9.88 15.9,9.86 16.03,9.86 C16.54,9.86 16.95,10.14 17.11,10.59 C17.21,10.84 17.35,11.51 16.53,12.09 C16.47,12.13 16.36,12.21 16.22,12.29 C16.09,12.37 15.97,12.45 15.87,12.52 C16.01,12.88 16.44,13.68 17.64,14.27 C18.12,14.53 18.22,14.86 18.22,15.1 C18.22,15.35 18.12,15.7 17.64,15.96 C17.29,16.15 16.99,16.24 16.74,16.31 C16.72,16.31 16.7,16.32 16.67,16.33 C16.62,16.54 16.53,16.78 16.28,16.95 C15.99,17.14 15.69,17.15 15.39,17.16 C15.11,17.17 14.8,17.19 14.45,17.3 C14.33,17.34 14.19,17.43 14.02,17.53 C13.6,17.81 13.01,18.18 12,18.18 Z M8.69,15.67 C9.03,15.69 9.47,15.72 9.97,15.88 C10.27,15.98 10.51,16.12 10.77,16.28 C11.1,16.49 11.41,16.68 12,16.68 C12.58,16.68 12.89,16.49 13.24,16.27 C13.49,16.12 13.73,15.98 14.02,15.88 C14.56,15.71 15.01,15.68 15.32,15.67 C15.38,15.48 15.51,15.28 15.75,15.12 C15.83,15.07 15.9,15.03 15.99,14.99 C14.57,13.91 14.37,12.64 14.36,12.57 C14.36,12.56 14.36,12.54 14.36,12.53 C14.33,12.34 14.3,11.94 14.68,11.57 C14.57,11.52 14.48,11.45 14.42,11.38 C14.3,11.26 14.17,11.04 14.2,10.69 C14.22,10.27 14.26,9.71 14.22,9.21 C14.16,8.54 13.96,8.26 13.73,7.99 C13.51,7.75 12.97,7.31 12.02,7.31 C10.99,7.31 10.44,7.84 10.3,8 C10.08,8.25 9.88,8.54 9.82,9.2 C9.79,9.57 9.79,10.05 9.83,10.6 C9.84,10.65 9.84,10.71 9.84,10.74 C9.86,11.03 9.73,11.25 9.61,11.37 C9.56,11.43 9.47,11.5 9.35,11.56 C9.74,11.93 9.7,12.34 9.67,12.53 C9.67,12.54 9.67,12.55 9.67,12.57 C9.66,12.63 9.46,13.9 8.05,14.98 C8.13,15.02 8.22,15.06 8.3,15.12 C8.51,15.28 8.63,15.49 8.69,15.67 Z M17.31,15.31 L16.96,14.65 C16.96,14.65 16.95,14.65 16.95,14.66 L17.31,15.31 L16.95,14.66 L17.31,15.31 Z"/>
  <path d="M12,22.75 C6.07,22.75 1.25,17.93 1.25,12 C1.25,6.07 6.07,1.25 12,1.25 C17.93,1.25 22.75,6.07 22.75,12 C22.75,17.93 17.93,22.75 12,22.75 Z M12,2.75 C6.9,2.75 2.75,6.9 2.75,12 C2.75,17.1 6.9,21.25 12,21.25 C17.1,21.25 21.25,17.1 21.25,12 C21.25,6.9 17.1,2.75 12,2.75 Z"/>
</svg>

