<svg xmlns="http://www.w3.org/2000/svg" width="24" height="24" viewBox="0 0 24 24">
  <defs/>
  <path d="M19.999,2.75 Q21.078,2.75 21.561,3.717 Q22.044,4.682 21.399,5.55 L19.896,7.554 Q19.367,8.25 18.499,8.25 L3.999,8.25 Q2.921,8.25 2.437,7.283 Q1.955,6.318 2.599,5.45 L4.102,3.446 Q4.631,2.75 5.499,2.75 Z M19.999,4.25 L5.499,4.25 Q5.375,4.25 5.296,4.354 L3.799,6.35 Q3.709,6.472 3.779,6.612 Q3.848,6.75 3.999,6.75 L18.499,6.75 Q18.623,6.75 18.702,6.646 L20.199,4.65 Q20.29,4.528 20.22,4.388 Q20.151,4.25 19.999,4.25 Z"/>
  <path d="M6.939,14.75 L5.499,14.75 Q4.631,14.75 4.102,14.054 L2.599,12.05 Q1.955,11.182 2.437,10.217 Q2.921,9.25 3.999,9.25 L18.499,9.25 Q19.367,9.25 19.896,9.946 L21.399,11.95 Q22.044,12.818 21.561,13.783 Q21.078,14.75 19.999,14.75 L11.359,14.75 Q11.049,14.75 10.829,14.53 Q10.609,14.311 10.609,14 Q10.609,13.689 10.829,13.47 Q11.049,13.25 11.359,13.25 L19.999,13.25 Q20.151,13.25 20.22,13.112 Q20.29,12.972 20.199,12.85 L18.702,10.854 Q18.623,10.75 18.499,10.75 L3.999,10.75 Q3.848,10.75 3.779,10.888 Q3.709,11.028 3.799,11.15 L5.296,13.146 Q5.375,13.25 5.499,13.25 L6.939,13.25 Q7.25,13.25 7.47,13.47 Q7.689,13.689 7.689,14 Q7.689,14.311 7.47,14.53 Q7.25,14.75 6.939,14.75 Z"/>
  <path d="M19.999,15.75 Q21.078,15.75 21.561,16.717 Q22.044,17.682 21.399,18.55 L19.896,20.554 Q19.367,21.25 18.499,21.25 L3.999,21.25 Q2.921,21.25 2.437,20.283 Q1.955,19.318 2.599,18.45 L4.102,16.446 Q4.631,15.75 5.499,15.75 Z M19.999,17.25 L5.499,17.25 Q5.375,17.25 5.296,17.354 L3.799,19.35 Q3.709,19.472 3.779,19.612 Q3.848,19.75 3.999,19.75 L18.499,19.75 Q18.623,19.75 18.702,19.646 L20.199,17.65 Q20.29,17.528 20.22,17.388 Q20.151,17.25 19.999,17.25 Z"/>
</svg>

