<svg xmlns="http://www.w3.org/2000/svg" width="24" height="24" viewBox="0 0 24 24">
  <defs/>
  <path d="M20,2.75 Q21.079,2.75 21.562,3.717 Q22.045,4.682 21.4,5.55 L19.897,7.554 Q19.368,8.25 18.5,8.25 L4,8.25 Q2.922,8.25 2.438,7.283 Q1.956,6.318 2.6,5.45 L4.103,3.446 Q4.632,2.75 5.5,2.75 Z M20,4.25 L5.5,4.25 Q5.376,4.25 5.297,4.354 L3.8,6.35 Q3.71,6.472 3.78,6.612 Q3.849,6.75 4,6.75 L18.5,6.75 Q18.624,6.75 18.703,6.646 L20.2,4.65 Q20.291,4.528 20.221,4.388 Q20.152,4.25 20,4.25 Z"/>
  <path opacity="0.4" d="M4,9.25 L18.5,9.25 Q19.368,9.25 19.897,9.946 L21.4,11.95 Q22.045,12.818 21.562,13.783 Q21.079,14.75 20,14.75 L5.5,14.75 Q4.632,14.75 4.103,14.054 L2.6,12.05 Q1.956,11.182 2.438,10.217 Q2.922,9.25 4,9.25 Z M4,10.75 Q3.849,10.75 3.78,10.888 Q3.71,11.028 3.8,11.15 L5.297,13.146 Q5.376,13.25 5.5,13.25 L20,13.25 Q20.152,13.25 20.221,13.112 Q20.291,12.972 20.2,12.85 L18.703,10.854 Q18.624,10.75 18.5,10.75 Z"/>
  <path d="M20,15.75 Q21.079,15.75 21.562,16.717 Q22.045,17.682 21.4,18.55 L19.897,20.554 Q19.368,21.25 18.5,21.25 L4,21.25 Q2.922,21.25 2.438,20.283 Q1.956,19.318 2.6,18.45 L4.103,16.446 Q4.632,15.75 5.5,15.75 Z M20,17.25 L5.5,17.25 Q5.376,17.25 5.297,17.354 L3.8,19.35 Q3.71,19.472 3.78,19.612 Q3.849,19.75 4,19.75 L18.5,19.75 Q18.624,19.75 18.703,19.646 L20.2,17.65 Q20.291,17.528 20.221,17.388 Q20.152,17.25 20,17.25 Z"/>
</svg>

