<svg xmlns="http://www.w3.org/2000/svg" width="24" height="24" viewBox="0 0 24 24">
  <defs/>
  <path d="M18.5,8.25 L4,8.25 C3.33,8.25 2.73,7.88 2.44,7.28 C2.14,6.68 2.2,5.98 2.6,5.45 L4.1,3.45 C4.43,3.01 4.95,2.75 5.5,2.75 L20,2.75 C20.67,2.75 21.27,3.12 21.56,3.72 C21.86,4.32 21.8,5.02 21.4,5.55 L19.9,7.55 C19.57,7.99 19.05,8.25 18.5,8.25 Z M5.5,4.25 C5.42,4.25 5.35,4.29 5.3,4.35 L3.8,6.35 C3.72,6.46 3.75,6.56 3.78,6.61 C3.81,6.66 3.87,6.75 4,6.75 L18.5,6.75 C18.58,6.75 18.65,6.71 18.7,6.65 L20.2,4.65 C20.28,4.54 20.25,4.44 20.22,4.39 C20.19,4.34 20.13,4.25 20,4.25 L5.5,4.25 Z"/>
  <path d="M20,14.75 L5.5,14.75 C4.95,14.75 4.43,14.49 4.1,14.05 L2.6,12.05 C2.2,11.52 2.14,10.81 2.43,10.22 C2.73,9.62 3.33,9.25 3.99,9.25 L18.49,9.25 C19.04,9.25 19.56,9.51 19.89,9.95 L21.39,11.95 C21.79,12.48 21.85,13.19 21.56,13.78 C21.27,14.38 20.67,14.75 20,14.75 Z M4,10.75 C3.87,10.75 3.8,10.84 3.78,10.89 C3.75,10.94 3.72,11.04 3.8,11.15 L5.3,13.15 C5.35,13.21 5.42,13.25 5.5,13.25 L20,13.25 C20.13,13.25 20.2,13.16 20.22,13.11 C20.25,13.06 20.28,12.96 20.2,12.85 L18.7,10.85 C18.65,10.79 18.58,10.75 18.5,10.75 L4,10.75 Z"/>
  <path d="M18.5,21.25 L4,21.25 C3.33,21.25 2.73,20.88 2.44,20.28 C2.14,19.68 2.2,18.98 2.6,18.45 L4.1,16.45 C4.43,16.01 4.95,15.75 5.5,15.75 L20,15.75 C20.67,15.75 21.27,16.12 21.56,16.72 C21.86,17.32 21.8,18.02 21.4,18.55 L19.9,20.55 C19.57,20.99 19.05,21.25 18.5,21.25 Z M5.5,17.25 C5.42,17.25 5.35,17.29 5.3,17.35 L3.8,19.35 C3.72,19.46 3.75,19.56 3.78,19.61 C3.81,19.66 3.87,19.75 4,19.75 L18.5,19.75 C18.58,19.75 18.65,19.71 18.7,19.65 L20.2,17.65 C20.28,17.54 20.25,17.44 20.22,17.39 C20.19,17.34 20.13,17.25 20,17.25 L5.5,17.25 Z"/>
</svg>

