<svg xmlns="http://www.w3.org/2000/svg" width="24" height="24" viewBox="0 0 24 24">
  <defs/>
  <path fill="#17191C" d="M20,2.75 Q21.064,2.75 21.553,3.691 Q22.048,4.643 21.41,5.536 L21.405,5.543 L19.911,7.535 Q19.423,8.25 18.5,8.25 L4,8.25 Q2.937,8.25 2.447,7.309 Q1.952,6.357 2.59,5.464 L2.595,5.457 L4.089,3.465 Q4.578,2.75 5.5,2.75 Z M20,4.25 L5.5,4.25 Q5.368,4.25 5.324,4.316 L5.313,4.333 L3.807,6.341 Q3.709,6.483 3.778,6.616 Q3.848,6.75 4,6.75 L18.5,6.75 Q18.632,6.75 18.676,6.684 L18.688,6.667 L20.194,4.659 Q20.292,4.517 20.222,4.384 Q20.153,4.25 20,4.25 Z"/>
  <path fill="#17191C" d="M4,9.25 L18.5,9.25 Q19.423,9.25 19.911,9.965 L21.405,11.957 L21.41,11.964 Q22.048,12.857 21.553,13.809 Q21.064,14.75 20,14.75 L5.5,14.75 Q4.578,14.75 4.089,14.035 L2.595,12.043 L2.59,12.036 Q1.952,11.143 2.447,10.191 Q2.937,9.25 4,9.25 Z M4,10.75 Q3.848,10.75 3.778,10.884 Q3.709,11.017 3.807,11.159 L5.313,13.167 L5.324,13.184 Q5.368,13.25 5.5,13.25 L20,13.25 Q20.153,13.25 20.222,13.116 Q20.292,12.983 20.194,12.841 L18.688,10.833 L18.676,10.816 Q18.632,10.75 18.5,10.75 Z"/>
  <path fill="#17191C" d="M20,15.75 Q21.064,15.75 21.553,16.691 Q22.048,17.643 21.41,18.536 L21.405,18.543 L19.911,20.535 Q19.423,21.25 18.5,21.25 L4,21.25 Q2.937,21.25 2.447,20.309 Q1.952,19.357 2.59,18.464 L2.595,18.457 L4.089,16.465 Q4.578,15.75 5.5,15.75 Z M20,17.25 L5.5,17.25 Q5.368,17.25 5.324,17.316 L5.313,17.333 L3.807,19.341 Q3.709,19.483 3.778,19.616 Q3.848,19.75 4,19.75 L18.5,19.75 Q18.632,19.75 18.676,19.684 L18.688,19.667 L20.194,17.659 Q20.292,17.517 20.222,17.384 Q20.153,17.25 20,17.25 Z"/>
</svg>

