<svg xmlns="http://www.w3.org/2000/svg" width="24" height="24" viewBox="0 0 24 24">
  <defs/>
  <path fill="white" d="M24,0 L0,0 L0,24 L24,24 L24,0 Z"/>
  <path fill="#292D32" d="M19.999,3.5 L5.499,3.5 C5.189,3.5 4.889,3.65 4.699,3.9 L3.199,5.9 C2.709,6.56 3.179,7.5 3.999,7.5 L18.499,7.5 C18.809,7.5 19.109,7.35 19.299,7.1 L20.799,5.1 C21.289,4.44 20.819,3.5 19.999,3.5 Z"/>
  <path fill="#292D32" opacity="0.4" d="M3.999,10 L18.499,10 C18.809,10 19.109,10.15 19.299,10.4 L20.799,12.4 C21.289,13.06 20.819,14 19.999,14 L5.499,14 C5.189,14 4.889,13.85 4.699,13.6 L3.199,11.6 C2.709,10.94 3.179,10 3.999,10 Z"/>
  <path fill="#292D32" d="M19.999,16.5 L5.499,16.5 C5.189,16.5 4.889,16.65 4.699,16.9 L3.199,18.9 C2.709,19.56 3.179,20.5 3.999,20.5 L18.499,20.5 C18.809,20.5 19.109,20.35 19.299,20.1 L20.799,18.1 C21.289,17.44 20.819,16.5 19.999,16.5 Z"/>
</svg>

