<svg xmlns="http://www.w3.org/2000/svg" width="24" height="24" viewBox="0 0 24 24">
  <defs/>
  <path fill="#292D32" d="M21,7.75 L3,7.75 C2.59,7.75 2.25,7.41 2.25,7 C2.25,6.59 2.59,6.25 3,6.25 L21,6.25 C21.41,6.25 21.75,6.59 21.75,7 C21.75,7.41 21.41,7.75 21,7.75 Z"/>
  <path fill="#292D32" d="M18,12.75 L6,12.75 C5.59,12.75 5.25,12.41 5.25,12 C5.25,11.59 5.59,11.25 6,11.25 L18,11.25 C18.41,11.25 18.75,11.59 18.75,12 C18.75,12.41 18.41,12.75 18,12.75 Z"/>
  <path fill="#292D32" d="M14,17.75 L10,17.75 C9.59,17.75 9.25,17.41 9.25,17 C9.25,16.59 9.59,16.25 10,16.25 L14,16.25 C14.41,16.25 14.75,16.59 14.75,17 C14.75,17.41 14.41,17.75 14,17.75 Z"/>
</svg>

