<svg xmlns="http://www.w3.org/2000/svg" width="24" height="24" viewBox="0 0 24 24">
  <defs/>
  <path fill="#292D32" d="M3,6.25 L21,6.25 Q21.311,6.25 21.53,6.47 Q21.75,6.689 21.75,7 Q21.75,7.311 21.53,7.53 Q21.311,7.75 21,7.75 L3,7.75 Q2.689,7.75 2.47,7.53 Q2.25,7.311 2.25,7 Q2.25,6.689 2.47,6.47 Q2.689,6.25 3,6.25 Z"/>
  <path fill="#292D32" d="M6,11.25 L18,11.25 Q18.311,11.25 18.53,11.47 Q18.75,11.689 18.75,12 Q18.75,12.311 18.53,12.53 Q18.311,12.75 18,12.75 L6,12.75 Q5.689,12.75 5.47,12.53 Q5.25,12.311 5.25,12 Q5.25,11.689 5.47,11.47 Q5.689,11.25 6,11.25 Z"/>
  <path fill="#292D32" d="M10,16.25 L14,16.25 Q14.311,16.25 14.53,16.47 Q14.75,16.689 14.75,17 Q14.75,17.311 14.53,17.53 Q14.311,17.75 14,17.75 L10,17.75 Q9.689,17.75 9.47,17.53 Q9.25,17.311 9.25,17 Q9.25,16.689 9.47,16.47 Q9.689,16.25 10,16.25 Z"/>
</svg>

