<svg xmlns="http://www.w3.org/2000/svg" width="24" height="24" viewBox="0 0 24 24">
  <defs/>
  <path fill="#292D32" d="M16.19,2 L7.81,2 C4.17,2 2,4.17 2,7.81 L2,16.18 C2,19.83 4.17,22 7.81,22 L16.18,22 C19.82,22 21.99,19.83 21.99,16.19 L21.99,7.81 C22,4.17 19.83,2 16.19,2 Z M13.33,17 L10.66,17 C10.25,17 9.91,16.66 9.91,16.25 C9.91,15.84 10.25,15.5 10.66,15.5 L13.33,15.5 C13.74,15.5 14.08,15.84 14.08,16.25 C14.08,16.66 13.75,17 13.33,17 Z M16,12.75 L8,12.75 C7.59,12.75 7.25,12.41 7.25,12 C7.25,11.59 7.59,11.25 8,11.25 L16,11.25 C16.41,11.25 16.75,11.59 16.75,12 C16.75,12.41 16.41,12.75 16,12.75 Z M18,8.5 L6,8.5 C5.59,8.5 5.25,8.16 5.25,7.75 C5.25,7.34 5.59,7 6,7 L18,7 C18.41,7 18.75,7.34 18.75,7.75 C18.75,8.16 18.41,8.5 18,8.5 Z"/>
</svg>

