<svg xmlns="http://www.w3.org/2000/svg" width="24" height="24" viewBox="0 0 24 24">
  <defs/>
  <path fill="#292D32" d="M3,16.5 C2.59,16.5 2.25,16.16 2.25,15.75 L2.25,8.25 C2.25,7.84 2.59,7.5 3,7.5 C3.41,7.5 3.75,7.84 3.75,8.25 L3.75,15.75 C3.75,16.16 3.41,16.5 3,16.5 Z"/>
  <path fill="#292D32" opacity="0.4" d="M7.5,19 C7.09,19 6.75,18.66 6.75,18.25 L6.75,5.75 C6.75,5.34 7.09,5 7.5,5 C7.91,5 8.25,5.34 8.25,5.75 L8.25,18.25 C8.25,18.66 7.91,19 7.5,19 Z"/>
  <path fill="#292D32" d="M12,21.5 C11.59,21.5 11.25,21.16 11.25,20.75 L11.25,3.25 C11.25,2.84 11.59,2.5 12,2.5 C12.41,2.5 12.75,2.84 12.75,3.25 L12.75,20.75 C12.75,21.16 12.41,21.5 12,21.5 Z"/>
  <path fill="#292D32" opacity="0.4" d="M16.5,19 C16.09,19 15.75,18.66 15.75,18.25 L15.75,5.75 C15.75,5.34 16.09,5 16.5,5 C16.91,5 17.25,5.34 17.25,5.75 L17.25,18.25 C17.25,18.66 16.91,19 16.5,19 Z"/>
  <path fill="#292D32" d="M21,16.5 C20.59,16.5 20.25,16.16 20.25,15.75 L20.25,8.25 C20.25,7.84 20.59,7.5 21,7.5 C21.41,7.5 21.75,7.84 21.75,8.25 L21.75,15.75 C21.75,16.16 21.41,16.5 21,16.5 Z"/>
</svg>

