<svg xmlns="http://www.w3.org/2000/svg" width="24" height="24" viewBox="0 0 24 24">
  <defs/>
  <path fill="#292D32" d="M15,22.75 L9,22.75 C5.58,22.75 4.25,21.42 4.25,18 L4.25,6 C4.25,2.58 5.58,1.25 9,1.25 L15,1.25 C18.42,1.25 19.75,2.58 19.75,6 L19.75,18 C19.75,21.42 18.42,22.75 15,22.75 Z M9,2.75 C6.42,2.75 5.75,3.42 5.75,6 L5.75,18 C5.75,20.58 6.42,21.25 9,21.25 L15,21.25 C17.58,21.25 18.25,20.58 18.25,18 L18.25,6 C18.25,3.42 17.58,2.75 15,2.75 L9,2.75 Z"/>
  <path fill="#292D32" d="M12,18.75 C9.93,18.75 8.25,17.07 8.25,15 C8.25,12.93 9.93,11.25 12,11.25 C14.07,11.25 15.75,12.93 15.75,15 C15.75,17.07 14.07,18.75 12,18.75 Z M12,12.75 C10.76,12.75 9.75,13.76 9.75,15 C9.75,16.24 10.76,17.25 12,17.25 C13.24,17.25 14.25,16.24 14.25,15 C14.25,13.76 13.24,12.75 12,12.75 Z"/>
  <path fill="#292D32" d="M12,9.75 C10.76,9.75 9.75,8.74 9.75,7.5 C9.75,6.26 10.76,5.25 12,5.25 C13.24,5.25 14.25,6.26 14.25,7.5 C14.25,8.74 13.24,9.75 12,9.75 Z M12,6.75 C11.59,6.75 11.25,7.09 11.25,7.5 C11.25,7.91 11.59,8.25 12,8.25 C12.41,8.25 12.75,7.91 12.75,7.5 C12.75,7.09 12.41,6.75 12,6.75 Z"/>
</svg>

