<svg xmlns="http://www.w3.org/2000/svg" width="24" height="24" viewBox="0 0 24 24">
  <defs/>
  <path fill="#292D32" d="M12,18 C13.657,18 15,16.657 15,15 C15,13.343 13.657,12 12,12 C10.343,12 9,13.343 9,15 C9,16.657 10.343,18 12,18 Z"/>
  <path fill="#292D32" d="M12,9 C12.828,9 13.5,8.328 13.5,7.5 C13.5,6.672 12.828,6 12,6 C11.172,6 10.5,6.672 10.5,7.5 C10.5,8.328 11.172,9 12,9 Z"/>
  <path fill="#292D32" opacity="0.4" d="M14.999,1.62 L8.999,1.62 C5.809,1.62 4.619,2.81 4.619,6 L4.619,18 C4.619,21.19 5.809,22.38 8.999,22.38 L14.999,22.38 C18.189,22.38 19.379,21.19 19.379,18 L19.379,6 C19.379,2.81 18.189,1.62 14.999,1.62 Z M11.999,6 C12.829,6 13.499,6.67 13.499,7.5 C13.499,8.33 12.829,9 11.999,9 C11.169,9 10.499,8.33 10.499,7.5 C10.499,6.67 11.169,6 11.999,6 Z M11.999,18 C10.339,18 8.999,16.66 8.999,15 C8.999,13.34 10.339,12 11.999,12 C13.659,12 14.999,13.34 14.999,15 C14.999,16.66 13.659,18 11.999,18 Z"/>
</svg>

