<svg xmlns="http://www.w3.org/2000/svg" width="24" height="24" viewBox="0 0 24 24">
  <defs/>
  <path fill="#292D32" d="M14.999,1.621 L8.999,1.621 C5.809,1.621 4.619,2.811 4.619,6.001 L4.619,18.001 C4.619,21.191 5.809,22.381 8.999,22.381 L14.999,22.381 C18.189,22.381 19.379,21.191 19.379,18.001 L19.379,6.001 C19.379,2.811 18.189,1.621 14.999,1.621 Z M11.999,6.001 C12.829,6.001 13.499,6.671 13.499,7.501 C13.499,8.331 12.829,9.001 11.999,9.001 C11.169,9.001 10.499,8.331 10.499,7.501 C10.499,6.671 11.169,6.001 11.999,6.001 Z M11.999,18.001 C10.339,18.001 8.999,16.661 8.999,15.001 C8.999,13.341 10.339,12.001 11.999,12.001 C13.659,12.001 14.999,13.341 14.999,15.001 C14.999,16.661 13.659,18.001 11.999,18.001 Z"/>
</svg>

