<svg xmlns="http://www.w3.org/2000/svg" width="24" height="24" viewBox="0 0 24 24">
  <defs/>
  <path fill="#292D32" d="M19.14,20.25 C18.95,20.25 18.76,20.18 18.61,20.04 C18.31,19.75 18.31,19.28 18.6,18.98 C20.31,17.24 21.25,14.94 21.25,12.5 C21.25,7.4 17.1,3.25 12,3.25 C6.9,3.25 2.75,7.4 2.75,12.5 C2.75,14.93 3.68,17.22 5.38,18.96 C5.67,19.26 5.66,19.73 5.37,20.02 C5.07,20.31 4.6,20.3 4.31,20.01 C2.34,17.99 1.25,15.32 1.25,12.5 C1.25,6.57 6.07,1.75 12,1.75 C17.93,1.75 22.75,6.57 22.75,12.5 C22.75,15.33 21.66,18.01 19.67,20.03 C19.53,20.18 19.33,20.25 19.14,20.25 Z"/>
  <path fill="#292D32" d="M11.999,22.25 C9.729,22.25 7.879,20.4 7.879,18.13 C7.879,15.86 9.729,14 11.999,14 C14.269,14 16.119,15.85 16.119,18.12 C16.119,20.39 14.269,22.25 11.999,22.25 Z M11.999,15.5 C10.549,15.5 9.379,16.68 9.379,18.12 C9.379,19.56 10.559,20.74 11.999,20.74 C13.439,20.74 14.619,19.56 14.619,18.12 C14.619,16.68 13.449,15.5 11.999,15.5 Z"/>
  <path fill="#292D32" d="M16,12.75 L15.25,12.75 C14.42,12.75 13.75,12.08 13.75,11.25 L13.75,10.5 C13.75,9.26 14.76,8.25 16,8.25 C17.24,8.25 18.25,9.26 18.25,10.5 C18.25,11.74 17.24,12.75 16,12.75 Z M16,9.75 C15.59,9.75 15.25,10.09 15.25,10.5 L15.25,11.25 L16,11.25 C16.41,11.25 16.75,10.91 16.75,10.5 C16.75,10.09 16.41,9.75 16,9.75 Z"/>
</svg>

