<svg xmlns="http://www.w3.org/2000/svg" width="24" height="24" viewBox="0 0 24 24">
  <defs/>
  <path fill="#292D32" opacity="0.4" d="M19.099,20.3 C18.899,20.3 18.699,20.2 18.599,20.1 C18.299,19.8 18.299,19.3 18.599,19 C20.299,17.3 21.199,15 21.199,12.5 C21.199,7.4 17.099,3.3 11.999,3.3 C6.899,3.3 2.799,7.4 2.799,12.5 C2.799,14.9 3.699,17.2 5.399,19 C5.699,19.3 5.699,19.8 5.399,20.1 C5.099,20.4 4.599,20.4 4.299,20.1 C2.299,18.1 1.199,15.4 1.199,12.6 C1.199,6.6 6.099,1.7 11.999,1.7 C17.899,1.7 22.799,6.5 22.799,12.5 C22.799,15.3 21.699,18 19.699,20 C19.499,20.2 19.299,20.3 19.099,20.3 Z"/>
  <path fill="#292D32" d="M12,22 C14.153,22 15.9,20.254 15.9,18.1 C15.9,15.946 14.153,14.2 12,14.2 C9.846,14.2 8.1,15.946 8.1,18.1 C8.1,20.254 9.846,22 12,22 Z"/>
  <path fill="#292D32" d="M16,8.5 C14.9,8.5 14,9.4 14,10.5 L14,11.3 C14,12 14.6,12.5 15.2,12.5 L16,12.5 C17.1,12.5 18,11.6 18,10.5 C18,9.4 17.1,8.5 16,8.5 Z"/>
</svg>

