<svg xmlns="http://www.w3.org/2000/svg" width="24" height="24" viewBox="0 0 24 24">
  <defs/>
  <path fill="#292D32" d="M19.14,20.25 C18.95,20.25 18.76,20.18 18.61,20.04 C18.31,19.75 18.31,19.28 18.6,18.98 C20.31,17.24 21.25,14.94 21.25,12.5 C21.25,7.4 17.1,3.25 12,3.25 C6.9,3.25 2.75,7.4 2.75,12.5 C2.75,14.93 3.68,17.22 5.38,18.96 C5.67,19.26 5.66,19.73 5.37,20.02 C5.07,20.31 4.6,20.3 4.31,20.01 C2.34,17.99 1.25,15.32 1.25,12.5 C1.25,6.57 6.07,1.75 12,1.75 C17.93,1.75 22.75,6.57 22.75,12.5 C22.75,15.33 21.66,18.01 19.67,20.03 C19.53,20.18 19.33,20.25 19.14,20.25 Z"/>
  <path fill="#292D32" d="M11.999,21.998 C14.142,21.998 15.879,20.261 15.879,18.118 C15.879,15.975 14.142,14.238 11.999,14.238 C9.856,14.238 8.119,15.975 8.119,18.118 C8.119,20.261 9.856,21.998 11.999,21.998 Z"/>
  <path fill="#292D32" d="M16,8.5 C14.9,8.5 14,9.4 14,10.5 L14,11.25 C14,11.94 14.56,12.5 15.25,12.5 L16,12.5 C17.1,12.5 18,11.6 18,10.5 C18,9.4 17.1,8.5 16,8.5 Z"/>
</svg>

