<svg xmlns="http://www.w3.org/2000/svg" width="24" height="24" viewBox="0 0 24 24">
  <defs/>
  <path d="M12,22.75 C6.07,22.75 1.25,17.93 1.25,12 C1.25,6.07 6.07,1.25 12,1.25 C17.93,1.25 22.75,6.07 22.75,12 C22.75,17.93 17.93,22.75 12,22.75 Z M12,2.75 C6.9,2.75 2.75,6.9 2.75,12 C2.75,17.1 6.9,21.25 12,21.25 C17.1,21.25 21.25,17.1 21.25,12 C21.25,6.9 17.1,2.75 12,2.75 Z"/>
  <path d="M17.48,11.42 C17.33,11.42 17.18,11.37 17.04,11.28 C14.06,9.14 10.24,8.67 6.84,10.03 C6.45,10.18 6.02,9.99 5.87,9.61 C5.72,9.23 5.91,8.79 6.29,8.64 C10.17,7.1 14.52,7.63 17.92,10.07 C18.26,10.31 18.33,10.78 18.09,11.12 C17.95,11.31 17.72,11.42 17.48,11.42 Z"/>
  <path d="M15.91,14.11 C15.76,14.11 15.61,14.06 15.47,13.97 C13.35,12.45 10.64,12.12 8.21,13.08 C7.83,13.23 7.39,13.04 7.24,12.66 C7.09,12.27 7.28,11.84 7.66,11.69 C10.56,10.54 13.81,10.94 16.34,12.76 C16.68,13 16.75,13.47 16.51,13.81 C16.37,14 16.14,14.11 15.91,14.11 Z"/>
  <path d="M14.81,16.9 C14.661,16.9 14.511,16.85 14.37,16.76 C12.831,15.66 10.861,15.42 9.1,16.11 C8.72,16.26 8.28,16.07 8.13,15.69 C7.98,15.3 8.17,14.87 8.55,14.72 C10.79,13.83 13.29,14.14 15.241,15.54 C15.581,15.78 15.65,16.25 15.411,16.59 C15.28,16.79 15.05,16.9 14.81,16.9 Z"/>
</svg>

