<svg xmlns="http://www.w3.org/2000/svg" width="24" height="24" viewBox="0 0 24 24">
  <defs/>
  <path d="M12,2 C6.48,2 2,6.48 2,12 C2,17.52 6.48,22 12,22 C17.52,22 22,17.52 22,12 C22,6.48 17.52,2 12,2 Z M15.42,16.58 C15.27,16.79 15.04,16.89 14.81,16.89 C14.66,16.89 14.51,16.84 14.37,16.75 C12.83,15.65 10.86,15.41 9.1,16.1 C8.72,16.25 8.28,16.06 8.13,15.68 C7.98,15.29 8.17,14.86 8.55,14.71 C10.79,13.82 13.29,14.13 15.24,15.53 C15.59,15.78 15.66,16.25 15.42,16.58 Z M16.52,13.79 C16.37,14 16.14,14.1 15.91,14.1 C15.76,14.1 15.61,14.05 15.47,13.96 C13.35,12.44 10.64,12.11 8.21,13.07 C7.83,13.22 7.39,13.03 7.24,12.65 C7.09,12.26 7.28,11.83 7.66,11.68 C10.56,10.53 13.81,10.93 16.34,12.75 C16.68,12.99 16.76,13.46 16.52,13.79 Z M18.09,11.11 C17.94,11.32 17.71,11.42 17.48,11.42 C17.33,11.42 17.18,11.37 17.04,11.28 C14.06,9.14 10.24,8.67 6.84,10.03 C6.45,10.18 6.02,9.99 5.87,9.61 C5.72,9.23 5.91,8.79 6.29,8.64 C10.17,7.1 14.52,7.63 17.92,10.07 C18.26,10.3 18.34,10.77 18.09,11.11 Z"/>
</svg>

