<svg xmlns="http://www.w3.org/2000/svg" width="24" height="24" viewBox="0 0 24 24">
  <defs/>
  <path fill="white" opacity="0.58" d="M24,0 L0,0 L0,24 L24,24 L24,0 Z"/>
  <path fill="#292D32" opacity="0.4" d="M12,22 C17.523,22 22,17.523 22,12 C22,6.477 17.523,2 12,2 C6.477,2 2,6.477 2,12 C2,17.523 6.477,22 12,22 Z"/>
  <path fill="#292D32" d="M17.48,11.42 C17.33,11.42 17.18,11.37 17.04,11.28 C14.06,9.14 10.24,8.67 6.84,10.03 C6.45,10.18 6.02,9.99 5.87,9.61 C5.72,9.23 5.91,8.79 6.29,8.64 C10.17,7.1 14.52,7.63 17.92,10.07 C18.26,10.31 18.33,10.78 18.09,11.12 C17.95,11.31 17.72,11.42 17.48,11.42 Z"/>
  <path fill="#292D32" d="M15.911,14.11 C15.761,14.11 15.611,14.06 15.471,13.97 C13.351,12.45 10.641,12.12 8.211,13.08 C7.831,13.23 7.391,13.04 7.241,12.66 C7.091,12.27 7.281,11.84 7.661,11.69 C10.561,10.54 13.811,10.94 16.341,12.76 C16.681,13 16.751,13.47 16.511,13.81 C16.371,14 16.141,14.11 15.911,14.11 Z"/>
  <path fill="#292D32" d="M14.809,16.9 C14.659,16.9 14.509,16.85 14.37,16.76 C12.829,15.66 10.86,15.42 9.1,16.11 C8.72,16.26 8.28,16.07 8.13,15.69 C7.979,15.3 8.169,14.87 8.55,14.72 C10.79,13.83 13.29,14.14 15.239,15.54 C15.579,15.78 15.649,16.25 15.409,16.59 C15.28,16.79 15.05,16.9 14.809,16.9 Z"/>
</svg>

