<svg xmlns="http://www.w3.org/2000/svg" width="24" height="24" viewBox="0 0 24 24">
  <defs/>
  <path d="M6.294,8.633 Q12.486,6.176 17.926,10.06 Q18.179,10.24 18.23,10.547 Q18.281,10.853 18.101,11.106 Q17.92,11.359 17.614,11.41 Q17.307,11.461 17.055,11.281 Q12.28,7.872 6.847,10.027 Q6.558,10.142 6.273,10.019 Q5.988,9.895 5.873,9.607 Q5.759,9.318 5.882,9.033 Q6.005,8.747 6.294,8.633 Z"/>
  <path d="M7.663,11.683 Q12.291,9.849 16.346,12.75 Q16.599,12.931 16.649,13.237 Q16.7,13.544 16.519,13.797 Q16.339,14.049 16.032,14.1 Q15.726,14.151 15.473,13.97 Q12.084,11.545 8.216,13.077 Q7.927,13.192 7.642,13.068 Q7.357,12.945 7.242,12.656 Q7.128,12.368 7.251,12.082 Q7.374,11.797 7.663,11.683 Z"/>
  <path d="M8.553,14.713 Q12.115,13.299 15.245,15.529 Q15.498,15.71 15.55,16.016 Q15.601,16.322 15.421,16.575 Q15.241,16.828 14.934,16.88 Q14.628,16.931 14.375,16.751 Q11.91,14.994 9.107,16.107 Q8.818,16.222 8.533,16.098 Q8.248,15.975 8.133,15.687 Q8.018,15.398 8.141,15.113 Q8.265,14.827 8.553,14.713 Z"/>
  <path fill="#17191C" d="M4.6,6.449 Q2.75,8.922 2.75,12 Q2.75,15.829 5.46,18.54 Q8.171,21.25 12,21.25 Q15.829,21.25 18.54,18.54 Q21.25,15.829 21.25,12 Q21.25,8.171 18.54,5.46 Q15.829,2.75 12,2.75 Q10.031,2.75 8.276,3.535 Q7.993,3.661 7.702,3.551 Q7.412,3.44 7.285,3.156 Q7.159,2.873 7.269,2.582 Q7.38,2.292 7.664,2.165 Q9.711,1.25 12,1.25 Q16.451,1.25 19.6,4.4 Q22.75,7.549 22.75,12 Q22.75,16.451 19.6,19.6 Q16.451,22.75 12,22.75 Q7.549,22.75 4.4,19.6 Q1.25,16.451 1.25,12 Q1.25,8.422 3.4,5.551 Q3.586,5.302 3.893,5.258 Q4.201,5.213 4.449,5.4 Q4.698,5.586 4.742,5.893 Q4.787,6.201 4.6,6.449 Z"/>
</svg>

