<svg xmlns="http://www.w3.org/2000/svg" width="24" height="24" viewBox="0 0 24 24">
  <defs/>
  <path d="M12,2 C6.48,2 2,6.48 2,12 C2,17.52 6.48,22 12,22 C17.52,22 22,17.52 22,12 C22,6.48 17.52,2 12,2 Z M16.5,14.25 L13.45,14.25 L15.44,17.07 C15.68,17.41 15.6,17.88 15.26,18.11 C15.13,18.2 14.98,18.25 14.83,18.25 C14.59,18.25 14.36,18.14 14.22,17.93 L11.92,14.67 L9.62,17.93 C9.47,18.14 9.24,18.25 9.01,18.25 C8.86,18.25 8.71,18.21 8.58,18.11 C8.24,17.87 8.16,17.4 8.4,17.07 L10.39,14.25 L7.52,14.25 C7.11,14.25 6.77,13.91 6.77,13.5 C6.77,13.09 7.11,12.75 7.52,12.75 L16.52,12.75 C16.93,12.75 17.27,13.09 17.27,13.5 C17.27,13.91 16.91,14.25 16.5,14.25 Z M16.5,11.25 L7.5,11.25 C7.09,11.25 6.75,10.91 6.75,10.5 C6.75,10.09 7.09,9.75 7.5,9.75 L10.37,9.75 L8.38,6.93 C8.14,6.59 8.22,6.12 8.56,5.89 C8.9,5.65 9.37,5.73 9.6,6.07 L11.9,9.33 L14.2,6.07 C14.44,5.73 14.91,5.65 15.24,5.89 C15.58,6.13 15.66,6.6 15.42,6.93 L13.43,9.75 L16.48,9.75 C16.89,9.75 17.23,10.09 17.23,10.5 C17.23,10.91 16.91,11.25 16.5,11.25 Z"/>
</svg>

