<svg xmlns="http://www.w3.org/2000/svg" width="24" height="24" viewBox="0 0 24 24">
  <defs/>
  <path d="M7.5,9.75 L16.5,9.75 Q16.811,9.75 17.03,9.97 Q17.25,10.189 17.25,10.5 Q17.25,10.811 17.03,11.03 Q16.811,11.25 16.5,11.25 L7.5,11.25 Q7.189,11.25 6.97,11.03 Q6.75,10.811 6.75,10.5 Q6.75,10.189 6.97,9.97 Q7.189,9.75 7.5,9.75 Z"/>
  <path d="M9.613,6.068 L12.433,10.068 Q12.612,10.322 12.559,10.628 Q12.506,10.934 12.252,11.113 Q11.998,11.292 11.692,11.239 Q11.386,11.186 11.207,10.932 L8.387,6.932 Q8.208,6.678 8.261,6.372 Q8.314,6.066 8.568,5.887 Q8.822,5.708 9.128,5.761 Q9.434,5.814 9.613,6.068 Z"/>
  <path d="M15.433,6.932 L12.613,10.932 Q12.434,11.186 12.128,11.239 Q11.822,11.292 11.568,11.113 Q11.314,10.934 11.261,10.628 Q11.208,10.322 11.387,10.068 L14.207,6.068 Q14.386,5.814 14.692,5.761 Q14.998,5.708 15.252,5.887 Q15.506,6.066 15.559,6.372 Q15.612,6.678 15.433,6.932 Z"/>
  <path d="M7.5,12.75 L16.5,12.75 Q16.811,12.75 17.03,12.97 Q17.25,13.189 17.25,13.5 Q17.25,13.811 17.03,14.03 Q16.811,14.25 16.5,14.25 L7.5,14.25 Q7.189,14.25 6.97,14.03 Q6.75,13.811 6.75,13.5 Q6.75,13.189 6.97,12.97 Q7.189,12.75 7.5,12.75 Z"/>
  <path d="M8.387,17.068 L11.207,13.068 Q11.386,12.814 11.692,12.761 Q11.998,12.708 12.252,12.887 Q12.506,13.066 12.559,13.372 Q12.612,13.678 12.433,13.932 L9.613,17.932 Q9.434,18.186 9.128,18.239 Q8.822,18.292 8.568,18.113 Q8.314,17.934 8.261,17.628 Q8.208,17.322 8.387,17.068 Z"/>
  <path d="M14.207,17.932 L11.387,13.932 Q11.208,13.678 11.261,13.372 Q11.314,13.066 11.568,12.887 Q11.822,12.708 12.128,12.761 Q12.434,12.814 12.613,13.068 L15.433,17.068 Q15.612,17.322 15.559,17.628 Q15.506,17.934 15.252,18.113 Q14.998,18.292 14.692,18.239 Q14.386,18.186 14.207,17.932 Z"/>
  <path fill="#17191C" d="M4.6,6.449 Q2.75,8.922 2.75,12 Q2.75,15.829 5.46,18.54 Q8.171,21.25 12,21.25 Q15.829,21.25 18.54,18.54 Q21.25,15.829 21.25,12 Q21.25,8.171 18.54,5.46 Q15.829,2.75 12,2.75 Q10.031,2.75 8.276,3.535 Q7.993,3.661 7.702,3.551 Q7.412,3.44 7.285,3.156 Q7.159,2.873 7.269,2.582 Q7.38,2.292 7.664,2.165 Q9.711,1.25 12,1.25 Q16.451,1.25 19.6,4.4 Q22.75,7.549 22.75,12 Q22.75,16.451 19.6,19.6 Q16.451,22.75 12,22.75 Q7.549,22.75 4.4,19.6 Q1.25,16.451 1.25,12 Q1.25,8.422 3.4,5.551 Q3.586,5.302 3.893,5.258 Q4.201,5.213 4.449,5.4 Q4.698,5.586 4.742,5.893 Q4.787,6.201 4.6,6.449 Z"/>
</svg>

