<svg xmlns="http://www.w3.org/2000/svg" width="24" height="24" viewBox="0 0 24 24">
  <defs/>
  <path d="M16.5,11.25 L7.5,11.25 C7.09,11.25 6.75,10.91 6.75,10.5 C6.75,10.09 7.09,9.75 7.5,9.75 L16.5,9.75 C16.91,9.75 17.25,10.09 17.25,10.5 C17.25,10.91 16.91,11.25 16.5,11.25 Z"/>
  <path d="M11.82,11.25 C11.58,11.25 11.35,11.14 11.21,10.93 L8.39,6.93 C8.15,6.59 8.23,6.12 8.57,5.89 C8.91,5.65 9.38,5.73 9.61,6.07 L12.43,10.07 C12.67,10.41 12.59,10.88 12.25,11.11 C12.12,11.21 11.97,11.25 11.82,11.25 Z"/>
  <path d="M12,11.25 C11.85,11.25 11.7,11.21 11.57,11.11 C11.23,10.87 11.15,10.4 11.39,10.07 L14.21,6.07 C14.45,5.73 14.92,5.65 15.25,5.89 C15.59,6.13 15.67,6.6 15.43,6.93 L12.61,10.93 C12.47,11.14 12.23,11.25 12,11.25 Z"/>
  <path d="M16.5,14.25 L7.5,14.25 C7.09,14.25 6.75,13.91 6.75,13.5 C6.75,13.09 7.09,12.75 7.5,12.75 L16.5,12.75 C16.91,12.75 17.25,13.09 17.25,13.5 C17.25,13.91 16.91,14.25 16.5,14.25 Z"/>
  <path d="M9,18.25 C8.85,18.25 8.7,18.21 8.57,18.11 C8.23,17.87 8.15,17.4 8.39,17.07 L11.21,13.07 C11.45,12.73 11.92,12.65 12.25,12.89 C12.59,13.13 12.67,13.6 12.43,13.93 L9.61,17.93 C9.47,18.14 9.23,18.25 9,18.25 Z"/>
  <path d="M14.82,18.25 C14.58,18.25 14.35,18.14 14.21,17.93 L11.39,13.93 C11.15,13.59 11.23,13.12 11.57,12.89 C11.91,12.65 12.38,12.73 12.61,13.07 L15.43,17.07 C15.67,17.41 15.59,17.88 15.25,18.11 C15.12,18.21 14.97,18.25 14.82,18.25 Z"/>
  <path d="M12,22.75 C6.07,22.75 1.25,17.93 1.25,12 C1.25,6.07 6.07,1.25 12,1.25 C17.93,1.25 22.75,6.07 22.75,12 C22.75,17.93 17.93,22.75 12,22.75 Z M12,2.75 C6.9,2.75 2.75,6.9 2.75,12 C2.75,17.1 6.9,21.25 12,21.25 C17.1,21.25 21.25,17.1 21.25,12 C21.25,6.9 17.1,2.75 12,2.75 Z"/>
</svg>

