<svg xmlns="http://www.w3.org/2000/svg" width="24" height="24" viewBox="0 0 24 24">
  <defs/>
  <path fill="white" opacity="0.58" d="M24,0 L0,0 L0,24 L24,24 L24,0 Z"/>
  <path fill="#292D32" opacity="0.4" d="M12,22 C17.523,22 22,17.523 22,12 C22,6.477 17.523,2 12,2 C6.477,2 2,6.477 2,12 C2,17.523 6.477,22 12,22 Z"/>
  <path fill="#292D32" d="M7.5,11.25 L16.5,11.25 C16.91,11.25 17.25,10.91 17.25,10.5 C17.25,10.09 16.91,9.75 16.5,9.75 L13.45,9.75 L15.44,6.93 C15.68,6.59 15.6,6.12 15.26,5.89 C14.92,5.65 14.45,5.73 14.22,6.07 L11.92,9.33 L9.62,6.07 C9.38,5.73 8.91,5.65 8.58,5.89 C8.24,6.13 8.16,6.6 8.4,6.93 L10.39,9.75 L7.52,9.75 C7.11,9.75 6.77,10.09 6.77,10.5 C6.77,10.91 7.09,11.25 7.5,11.25 Z"/>
  <path fill="#292D32" d="M16.5,12.751 L7.5,12.751 C7.09,12.751 6.75,13.091 6.75,13.501 C6.75,13.911 7.09,14.251 7.5,14.251 L10.37,14.251 L8.38,17.07 C8.14,17.41 8.22,17.881 8.56,18.11 C8.69,18.201 8.84,18.25 8.99,18.25 C9.23,18.25 9.46,18.14 9.6,17.93 L11.9,14.671 L14.2,17.93 C14.35,18.14 14.58,18.25 14.81,18.25 C14.96,18.25 15.11,18.21 15.24,18.11 C15.58,17.87 15.66,17.401 15.42,17.07 L13.43,14.251 L16.48,14.251 C16.89,14.251 17.23,13.911 17.23,13.501 C17.23,13.091 16.91,12.751 16.5,12.751 Z"/>
</svg>

