<svg xmlns="http://www.w3.org/2000/svg" width="24" height="24" viewBox="0 0 24 24">
  <defs/>
  <path fill="#292D32" d="M9.481,20.69 C8.981,20.69 8.631,20.52 8.421,20.36 C8.021,20.07 7.401,19.32 7.791,17.64 L8.361,15.18 C8.411,14.97 8.301,14.59 8.151,14.43 L6.161,12.44 C5.111,11.39 5.201,10.48 5.341,10.03 C5.481,9.58 5.941,8.79 7.401,8.54 L9.951,8.12 C10.141,8.09 10.451,7.86 10.531,7.69 L11.941,4.87 C12.621,3.51 13.521,3.31 14.001,3.31 C14.481,3.31 15.381,3.51 16.061,4.87 L17.471,7.69 C17.561,7.86 17.861,8.09 18.051,8.12 L20.601,8.54 C22.061,8.78 22.521,9.58 22.661,10.03 C22.801,10.48 22.891,11.39 21.841,12.44 L19.851,14.43 C19.701,14.58 19.591,14.97 19.641,15.18 L20.211,17.64 C20.601,19.33 19.981,20.07 19.581,20.36 C19.181,20.65 18.291,21.02 16.791,20.13 L14.401,18.71 C14.201,18.59 13.781,18.59 13.581,18.71 L11.191,20.13 C10.501,20.55 9.921,20.69 9.481,20.69 Z M14.001,4.81 C13.841,4.81 13.551,5 13.281,5.54 L11.871,8.36 C11.571,8.97 10.861,9.49 10.191,9.6 L7.641,10.02 C7.071,10.12 6.811,10.33 6.761,10.49 C6.711,10.65 6.801,10.97 7.211,11.38 L9.201,13.37 C9.711,13.88 9.981,14.81 9.821,15.51 L9.251,17.97 C9.081,18.68 9.191,19.06 9.301,19.15 C9.411,19.23 9.811,19.22 10.431,18.84 L12.831,17.42 C13.501,17.02 14.511,17.02 15.171,17.42 L17.561,18.84 C18.191,19.21 18.591,19.23 18.701,19.15 C18.811,19.07 18.921,18.69 18.751,17.97 L18.181,15.51 C18.021,14.8 18.281,13.88 18.801,13.37 L20.791,11.38 C21.201,10.97 21.291,10.64 21.241,10.49 C21.191,10.34 20.931,10.12 20.361,10.02 L17.811,9.6 C17.141,9.49 16.431,8.97 16.131,8.36 L14.721,5.54 C14.451,5 14.161,4.81 14.001,4.81 Z"/>
  <path fill="#292D32" d="M8,5.75 L2,5.75 C1.59,5.75 1.25,5.41 1.25,5 C1.25,4.59 1.59,4.25 2,4.25 L8,4.25 C8.41,4.25 8.75,4.59 8.75,5 C8.75,5.41 8.41,5.75 8,5.75 Z"/>
  <path fill="#292D32" d="M5,19.75 L2,19.75 C1.59,19.75 1.25,19.41 1.25,19 C1.25,18.59 1.59,18.25 2,18.25 L5,18.25 C5.41,18.25 5.75,18.59 5.75,19 C5.75,19.41 5.41,19.75 5,19.75 Z"/>
  <path fill="#292D32" d="M3,12.75 L2,12.75 C1.59,12.75 1.25,12.41 1.25,12 C1.25,11.59 1.59,11.25 2,11.25 L3,11.25 C3.41,11.25 3.75,11.59 3.75,12 C3.75,12.41 3.41,12.75 3,12.75 Z"/>
</svg>

