<svg xmlns="http://www.w3.org/2000/svg" width="24" height="24" viewBox="0 0 24 24">
  <defs/>
  <path fill="#292D32" d="M20.789,11.38 Q21.343,10.826 21.235,10.49 Q21.127,10.152 20.352,10.019 L17.807,9.6 Q16.642,9.41 16.125,8.348 L14.718,5.535 Q14.354,4.802 14.004,4.802 Q13.654,4.802 13.291,5.534 L11.88,8.355 Q11.381,9.381 10.216,9.597 L7.651,10.02 Q6.881,10.148 6.773,10.482 Q6.665,10.821 7.222,11.382 L9.21,13.37 Q10.112,14.272 9.819,15.521 L9.25,17.979 Q9.024,18.952 9.301,19.154 Q9.579,19.357 10.435,18.846 L12.826,17.425 Q13.999,16.716 15.177,17.428 L17.562,18.845 Q18.42,19.352 18.698,19.15 Q18.974,18.949 18.749,17.979 L18.179,15.519 Q18.108,15.217 18.273,14.953 Q18.437,14.689 18.74,14.619 Q19.043,14.549 19.306,14.714 Q19.57,14.878 19.64,15.181 L20.21,17.641 Q20.659,19.578 19.58,20.363 Q18.506,21.145 16.796,20.135 L14.401,18.712 Q13.999,18.469 13.592,18.715 L11.203,20.134 Q9.495,21.153 8.417,20.366 Q7.339,19.578 7.789,17.641 L8.359,15.179 Q8.461,14.743 8.149,14.43 L6.157,12.438 Q4.959,11.23 5.345,10.025 Q5.732,8.818 7.407,8.54 L9.942,8.123 Q10.363,8.044 10.538,7.685 L11.948,4.866 Q12.724,3.302 14.004,3.302 Q15.284,3.302 16.06,4.865 L17.473,7.692 Q17.65,8.055 18.051,8.12 L20.606,8.541 Q22.278,8.828 22.663,10.033 Q23.05,11.24 21.85,12.44 Q21.63,12.66 21.319,12.66 Q21.009,12.66 20.789,12.44 Q20.569,12.221 20.569,11.91 Q20.569,11.599 20.789,11.38 Z"/>
  <path fill="#292D32" d="M8,5.75 L2,5.75 Q1.689,5.75 1.47,5.53 Q1.25,5.311 1.25,5 Q1.25,4.689 1.47,4.47 Q1.689,4.25 2,4.25 L8,4.25 Q8.311,4.25 8.53,4.47 Q8.75,4.689 8.75,5 Q8.75,5.311 8.53,5.53 Q8.311,5.75 8,5.75 Z"/>
  <path fill="#292D32" d="M5,19.75 L2,19.75 Q1.689,19.75 1.47,19.53 Q1.25,19.311 1.25,19 Q1.25,18.689 1.47,18.47 Q1.689,18.25 2,18.25 L5,18.25 Q5.311,18.25 5.53,18.47 Q5.75,18.689 5.75,19 Q5.75,19.311 5.53,19.53 Q5.311,19.75 5,19.75 Z"/>
  <path fill="#292D32" d="M3,12.75 L2,12.75 Q1.689,12.75 1.47,12.53 Q1.25,12.311 1.25,12 Q1.25,11.689 1.47,11.47 Q1.689,11.25 2,11.25 L3,11.25 Q3.311,11.25 3.53,11.47 Q3.75,11.689 3.75,12 Q3.75,12.311 3.53,12.53 Q3.311,12.75 3,12.75 Z"/>
</svg>

