<svg xmlns="http://www.w3.org/2000/svg" width="24" height="24" viewBox="0 0 24 24">
  <defs/>
  <path fill="#292D32" d="M15.6,8.27 Q15.073,7.874 14.824,7.354 L13.069,3.845 Q12.563,2.828 12.009,2.828 Q11.453,2.828 10.94,3.847 L9.17,7.367 Q8.931,7.867 8.364,8.297 Q8.117,8.485 7.809,8.443 Q7.501,8.401 7.313,8.154 Q7.125,7.906 7.167,7.599 Q7.209,7.291 7.456,7.103 Q7.735,6.891 7.83,6.693 L9.6,3.173 Q10.528,1.328 12.009,1.328 Q13.492,1.328 14.411,3.175 L16.177,6.706 Q16.267,6.895 16.5,7.07 Q16.749,7.256 16.793,7.564 Q16.837,7.871 16.65,8.12 Q16.464,8.369 16.156,8.412 Q15.849,8.456 15.6,8.27 Z"/>
  <path fill="#292D32" d="M4.55,18.481 L5.12,16.011 Q5.265,15.365 4.801,14.9 L2.321,12.42 Q0.902,11.002 1.349,9.602 Q1.796,8.2 3.778,7.87 Q4.084,7.819 4.337,8 Q4.59,8.18 4.641,8.487 Q4.692,8.793 4.511,9.046 Q4.331,9.299 4.024,9.35 Q2.947,9.529 2.778,10.058 Q2.609,10.587 3.381,11.36 L5.861,13.84 Q6.909,14.888 6.582,16.349 L6.012,18.819 Q5.942,19.121 5.678,19.286 Q5.415,19.451 5.112,19.381 Q4.81,19.311 4.645,19.047 Q4.48,18.784 4.55,18.481 Z"/>
  <path fill="#292D32" d="M20.223,7.87 Q22.205,8.201 22.655,9.6 Q23.106,11.004 21.678,12.422 L19.2,14.9 Q18.735,15.365 18.881,16.016 L19.59,19.081 Q20.122,21.387 18.878,22.294 Q17.635,23.199 15.598,21.996 L12.607,20.225 Q12.005,19.868 11.387,20.228 L8.402,21.995 Q8.134,22.154 7.833,22.077 Q7.532,21.999 7.374,21.732 Q7.216,21.465 7.293,21.164 Q7.37,20.863 7.637,20.705 L10.632,18.932 Q12.012,18.129 13.372,18.935 L16.361,20.704 Q17.549,21.406 17.994,21.081 Q18.437,20.758 18.129,19.419 L17.418,16.344 Q17.091,14.888 18.139,13.84 L20.621,11.358 Q21.396,10.588 21.227,10.06 Q21.056,9.53 19.976,9.35 Q19.67,9.299 19.489,9.046 Q19.309,8.793 19.36,8.487 Q19.411,8.18 19.664,8 Q19.916,7.819 20.223,7.87 Z"/>
  <path fill="#292D32" d="M22.53,2.53 L2.53,22.53 Q2.311,22.75 2,22.75 Q1.689,22.75 1.47,22.53 Q1.25,22.311 1.25,22 Q1.25,21.689 1.47,21.47 L21.47,1.47 Q21.689,1.25 22,1.25 Q22.311,1.25 22.53,1.47 Q22.75,1.689 22.75,2 Q22.75,2.311 22.53,2.53 Z"/>
</svg>

