<svg xmlns="http://www.w3.org/2000/svg" width="24" height="24" viewBox="0 0 24 24">
  <defs/>
  <path fill="#292D32" d="M18.699,14.459 C18.349,14.809 18.149,15.509 18.259,15.989 L18.949,19.009 C19.239,20.259 19.059,21.199 18.439,21.649 C18.189,21.829 17.889,21.919 17.539,21.919 C17.029,21.919 16.429,21.729 15.769,21.339 L12.839,19.599 C12.379,19.329 11.619,19.329 11.159,19.599 L8.229,21.339 C7.119,21.989 6.169,22.099 5.559,21.649 C5.519,21.619 5.479,21.589 5.449,21.549 L18.069,8.929 C18.529,8.469 19.179,8.259 19.819,8.369 L19.969,8.399 C21.029,8.579 21.739,9.059 21.969,9.759 C22.189,10.459 21.889,11.269 21.129,12.029 L18.699,14.459 Z"/>
  <path fill="#292D32" d="M5.739,16 C5.849,15.52 5.649,14.81 5.299,14.46 L2.869,12.03 C2.109,11.27 1.809,10.46 2.029,9.76 C2.259,9.06 2.969,8.58 4.029,8.4 L7.149,7.88 C7.599,7.8 8.149,7.4 8.359,6.99 L10.079,3.54 C10.579,2.55 11.259,2 11.999,2 C12.739,2 13.419,2.55 13.919,3.54 L15.639,6.99 C15.769,7.25 16.039,7.5 16.329,7.67 L5.069,18.93 L5.739,16 Z"/>
  <path fill="#292D32" d="M21.771,2.229 C21.471,1.929 20.981,1.929 20.681,2.229 L2.231,20.689 C1.931,20.989 1.931,21.479 2.231,21.779 C2.381,21.919 2.571,21.999 2.771,21.999 C2.971,21.999 3.161,21.919 3.311,21.769 L21.771,3.309 C22.081,3.009 22.081,2.529 21.771,2.229 Z"/>
</svg>

