<svg xmlns="http://www.w3.org/2000/svg" width="24" height="24" viewBox="0 0 24 24">
  <defs/>
  <path fill="#292D32" d="M14.402,3.175 L16.162,6.695 Q16.429,7.239 17.034,7.34 L20.224,7.87 Q22.206,8.201 22.656,9.601 Q23.107,11.004 21.679,12.422 L19.201,14.9 Q18.737,15.365 18.883,16.016 L19.592,19.081 Q20.123,21.387 18.879,22.294 Q17.637,23.199 15.599,21.996 L12.609,20.225 Q12.006,19.869 11.388,20.228 L8.403,21.995 Q6.374,23.2 5.126,22.29 Q3.878,21.379 4.41,19.081 L5.12,16.011 Q5.265,15.365 4.801,14.9 L2.321,12.42 Q0.902,11.002 1.349,9.602 Q1.796,8.201 3.778,7.87 L6.968,7.34 Q7.563,7.239 7.827,6.7 L9.59,3.175 Q10.518,1.328 12,1.328 Q13.482,1.328 14.402,3.175 Z M13.059,3.844 Q12.554,2.828 12,2.828 Q11.443,2.828 10.932,3.846 L9.174,7.36 Q8.572,8.589 7.214,8.82 L4.024,9.35 Q2.947,9.53 2.778,10.058 Q2.609,10.587 3.381,11.36 L5.861,13.84 Q6.909,14.888 6.582,16.349 L5.872,19.419 Q5.563,20.752 6.01,21.078 Q6.459,21.405 7.639,20.705 L10.634,18.932 Q12.013,18.129 13.373,18.935 L16.362,20.704 Q17.55,21.406 17.995,21.082 Q18.439,20.758 18.13,19.419 L17.419,16.344 Q17.093,14.888 18.141,13.84 L20.622,11.358 Q21.398,10.588 21.228,10.06 Q21.058,9.53 19.978,9.35 L16.788,8.82 Q15.421,8.592 14.82,7.366 L13.06,3.846 Z"/>
</svg>

