<svg xmlns="http://www.w3.org/2000/svg" width="24" height="24" viewBox="0 0 24 24">
  <defs/>
  <path fill="#292D32" d="M4.549,18.481 L5.119,16.011 Q5.264,15.365 4.8,14.9 L2.32,12.42 Q0.901,11.002 1.348,9.602 Q1.796,8.2 3.777,7.87 L6.967,7.34 Q7.562,7.239 7.826,6.7 L9.589,3.175 Q10.508,1.328 11.991,1.328 Q13.472,1.328 14.4,3.173 L16.161,6.695 Q16.242,6.864 16.518,7.092 Q16.757,7.29 16.787,7.599 Q16.816,7.908 16.618,8.148 Q16.42,8.387 16.111,8.417 Q15.802,8.446 15.562,8.248 Q15.032,7.81 14.819,7.365 L13.06,3.847 Q12.548,2.828 11.991,2.828 Q11.437,2.828 10.931,3.845 L9.174,7.36 Q8.571,8.589 7.213,8.82 L4.023,9.35 Q2.946,9.529 2.777,10.058 Q2.608,10.587 3.38,11.36 L5.86,13.84 Q6.908,14.888 6.581,16.349 L6.011,18.819 Q5.941,19.121 5.677,19.286 Q5.414,19.451 5.111,19.381 Q4.809,19.311 4.644,19.047 Q4.479,18.784 4.549,18.481 Z"/>
  <path fill="#292D32" d="M20.223,7.87 Q22.205,8.201 22.655,9.6 Q23.106,11.004 21.679,12.422 L19.2,14.9 Q18.736,15.365 18.882,16.016 L19.591,19.081 Q20.122,21.387 18.878,22.294 Q17.636,23.199 15.599,21.996 L12.608,20.225 Q12.006,19.868 11.387,20.228 L8.402,21.995 Q8.135,22.154 7.834,22.077 Q7.533,21.999 7.375,21.732 Q7.216,21.465 7.294,21.164 Q7.371,20.863 7.638,20.705 L10.633,18.932 Q12.013,18.129 13.372,18.935 L16.361,20.704 Q17.549,21.406 17.994,21.081 Q18.438,20.758 18.129,19.419 L17.418,16.344 Q17.092,14.888 18.14,13.84 L20.621,11.358 Q21.397,10.588 21.227,10.06 Q21.057,9.53 19.977,9.35 Q19.67,9.299 19.49,9.046 Q19.309,8.793 19.36,8.487 Q19.411,8.18 19.664,8 Q19.917,7.819 20.223,7.87 Z"/>
  <path fill="#292D32" d="M22.53,2.53 L2.53,22.53 Q2.311,22.75 2,22.75 Q1.689,22.75 1.47,22.53 Q1.25,22.311 1.25,22 Q1.25,21.689 1.47,21.47 L21.47,1.47 Q21.689,1.25 22,1.25 Q22.311,1.25 22.53,1.47 Q22.75,1.689 22.75,2 Q22.75,2.311 22.53,2.53 Z"/>
</svg>

