<svg xmlns="http://www.w3.org/2000/svg" width="24" height="24" viewBox="0 0 24 24">
  <defs/>
  <path fill="#292D32" d="M16.061,4.875 L17.471,7.695 Q17.646,8.054 18.067,8.133 L20.602,8.55 Q22.278,8.828 22.664,10.035 Q23.05,11.24 21.853,12.448 L19.86,14.44 Q19.548,14.752 19.65,15.189 L20.221,17.651 Q20.67,19.588 19.592,20.376 Q18.514,21.163 16.806,20.144 L14.417,18.725 Q14.01,18.479 13.608,18.722 L11.213,20.145 Q9.503,21.155 8.429,20.373 Q7.35,19.588 7.799,17.651 L8.369,15.191 Q8.472,14.762 8.152,14.432 L6.17,12.45 Q4.969,11.25 5.356,10.043 Q5.741,8.838 7.413,8.551 L9.968,8.13 Q10.369,8.065 10.546,7.702 L11.959,4.875 Q12.725,3.313 14.003,3.312 Q15.275,3.312 16.06,4.873 Z M14.72,5.547 L14.719,5.545 Q14.35,4.812 14.003,4.812 Q13.66,4.812 13.301,5.545 L11.894,8.358 Q11.377,9.42 10.212,9.61 L7.667,10.029 Q6.892,10.162 6.784,10.5 Q6.677,10.836 7.23,11.39 L9.228,13.388 Q10.122,14.309 9.831,15.529 L9.261,17.989 Q9.036,18.959 9.311,19.16 Q9.589,19.362 10.447,18.855 L12.832,17.438 Q14.01,16.726 15.183,17.435 L17.574,18.856 Q18.431,19.367 18.708,19.164 Q18.985,18.962 18.759,17.989 L18.19,15.531 Q17.897,14.282 18.8,13.38 L20.787,11.392 Q21.344,10.831 21.236,10.492 Q21.129,10.158 20.358,10.03 L17.793,9.607 Q16.629,9.391 16.129,8.365 Z"/>
  <path fill="#292D32" d="M8,5.75 L2,5.75 Q1.689,5.75 1.47,5.53 Q1.25,5.311 1.25,5 Q1.25,4.689 1.47,4.47 Q1.689,4.25 2,4.25 L8,4.25 Q8.311,4.25 8.53,4.47 Q8.75,4.689 8.75,5 Q8.75,5.311 8.53,5.53 Q8.311,5.75 8,5.75 Z"/>
  <path fill="#292D32" d="M5,19.75 L2,19.75 Q1.689,19.75 1.47,19.53 Q1.25,19.311 1.25,19 Q1.25,18.689 1.47,18.47 Q1.689,18.25 2,18.25 L5,18.25 Q5.311,18.25 5.53,18.47 Q5.75,18.689 5.75,19 Q5.75,19.311 5.53,19.53 Q5.311,19.75 5,19.75 Z"/>
  <path fill="#292D32" d="M3,12.75 L2,12.75 Q1.689,12.75 1.47,12.53 Q1.25,12.311 1.25,12 Q1.25,11.689 1.47,11.47 Q1.689,11.25 2,11.25 L3,11.25 Q3.311,11.25 3.53,11.47 Q3.75,11.689 3.75,12 Q3.75,12.311 3.53,12.53 Q3.311,12.75 3,12.75 Z"/>
</svg>

