<svg xmlns="http://www.w3.org/2000/svg" width="24" height="24" viewBox="0 0 24 24">
  <defs/>
  <path fill="#292D32" opacity="0.4" d="M5.739,16 C5.849,15.51 5.649,14.81 5.299,14.46 L2.869,12.03 C2.109,11.27 1.809,10.46 2.029,9.76 C2.259,9.06 2.969,8.58 4.029,8.4 L7.149,7.88 C7.599,7.8 8.149,7.4 8.359,6.99 L10.079,3.54 C10.579,2.55 11.259,2 11.999,2 C12.739,2 13.419,2.55 13.919,3.54 L15.639,6.99 C15.769,7.25 16.039,7.5 16.329,7.67 L5.559,18.44 C5.419,18.58 5.179,18.45 5.219,18.25 L5.739,16 Z"/>
  <path fill="#292D32" d="M18.701,14.46 C18.341,14.82 18.141,15.51 18.261,16 L18.951,19.01 C19.241,20.26 19.061,21.2 18.441,21.65 C18.191,21.83 17.891,21.92 17.541,21.92 C17.031,21.92 16.431,21.73 15.771,21.34 L12.841,19.6 C12.381,19.33 11.621,19.33 11.161,19.6 L8.231,21.34 C7.121,21.99 6.171,22.1 5.561,21.65 C5.331,21.48 5.161,21.25 5.051,20.95 L17.211,8.79 C17.671,8.33 18.321,8.12 18.951,8.23 L19.961,8.4 C21.021,8.58 21.731,9.06 21.961,9.76 C22.181,10.46 21.881,11.27 21.121,12.03 L18.701,14.46 Z"/>
</svg>

