<svg xmlns="http://www.w3.org/2000/svg" width="24" height="24" viewBox="0 0 24 24">
  <defs/>
  <path fill="#292D32" d="M17.66,22.67 C17.13,22.67 16.45,22.5 15.6,22 L12.61,20.23 C12.3,20.05 11.7,20.05 11.4,20.23 L8.4,22 C6.63,23.05 5.59,22.63 5.12,22.29 C4.66,21.95 3.94,21.08 4.41,19.08 L5.12,16.01 C5.2,15.69 5.04,15.14 4.8,14.9 L2.32,12.42 C1.08,11.18 1.18,10.12 1.35,9.6 C1.52,9.08 2.06,8.16 3.78,7.87 L6.97,7.34 C7.27,7.29 7.7,6.97 7.83,6.7 L9.6,3.17 C10.4,1.56 11.45,1.32 12,1.32 C12.55,1.32 13.6,1.56 14.4,3.17 L16.16,6.69 C16.3,6.96 16.73,7.28 17.03,7.33 L20.22,7.86 C21.95,8.15 22.49,9.07 22.65,9.59 C22.81,10.11 22.91,11.17 21.68,12.41 L19.2,14.9 C18.96,15.14 18.81,15.68 18.88,16.01 L19.59,19.08 C20.05,21.08 19.34,21.95 18.88,22.29 C18.63,22.47 18.23,22.67 17.66,22.67 Z M12,18.59 C12.49,18.59 12.98,18.71 13.37,18.94 L16.36,20.71 C17.23,21.23 17.78,21.23 17.99,21.08 C18.2,20.93 18.35,20.4 18.13,19.42 L17.42,16.35 C17.23,15.52 17.54,14.45 18.14,13.84 L20.62,11.36 C21.11,10.87 21.33,10.39 21.23,10.06 C21.12,9.73 20.66,9.46 19.98,9.35 L16.79,8.82 C16.02,8.69 15.18,8.07 14.83,7.37 L13.07,3.85 C12.75,3.21 12.35,2.83 12,2.83 C11.65,2.83 11.25,3.21 10.94,3.85 L9.17,7.37 C8.82,8.07 7.98,8.69 7.21,8.82 L4.03,9.35 C3.35,9.46 2.89,9.73 2.78,10.06 C2.67,10.39 2.9,10.88 3.39,11.36 L5.87,13.84 C6.47,14.44 6.78,15.52 6.59,16.35 L5.88,19.42 C5.65,20.41 5.81,20.93 6.02,21.08 C6.23,21.23 6.77,21.22 7.65,20.71 L10.64,18.94 C11.02,18.71 11.51,18.59 12,18.59 Z"/>
</svg>

