<svg xmlns="http://www.w3.org/2000/svg" width="24" height="24" viewBox="0 0 24 24">
  <defs/>
  <path fill="#292D32" opacity="0.4" d="M18.699,14.46 C18.349,14.81 18.149,15.52 18.259,16 L18.949,19.01 C19.239,20.26 19.059,21.2 18.439,21.65 C18.189,21.83 17.889,21.92 17.539,21.92 C17.029,21.92 16.429,21.73 15.769,21.34 L12.839,19.6 C12.389,19.33 11.609,19.33 11.159,19.6 L8.229,21.34 C7.119,21.99 6.169,22.1 5.559,21.65 C5.519,21.62 5.479,21.59 5.449,21.55 L18.799,8.2 L19.969,8.4 C21.029,8.58 21.739,9.06 21.969,9.76 C22.189,10.46 21.889,11.27 21.129,12.03 L18.699,14.46 Z"/>
  <path fill="#292D32" opacity="0.4" d="M5.739,16 C5.849,15.52 5.649,14.81 5.299,14.46 L2.869,12.03 C2.109,11.27 1.809,10.46 2.029,9.76 C2.259,9.06 2.969,8.58 4.029,8.4 L7.149,7.88 C7.599,7.8 8.149,7.4 8.359,6.99 L10.079,3.54 C10.579,2.55 11.259,2 11.999,2 C12.739,2 13.419,2.55 13.919,3.54 L15.639,6.99 C15.769,7.25 16.039,7.5 16.329,7.67 L5.069,18.93 L5.739,16 Z"/>
  <path fill="#292D32" d="M21.771,2.23 C21.471,1.93 20.981,1.93 20.681,2.23 L2.231,20.69 C1.931,20.99 1.931,21.48 2.231,21.78 C2.381,21.92 2.571,22 2.771,22 C2.971,22 3.161,21.92 3.311,21.77 L21.771,3.31 C22.081,3.01 22.081,2.53 21.771,2.23 Z"/>
</svg>

