<svg xmlns="http://www.w3.org/2000/svg" width="24" height="24" viewBox="0 0 24 24">
  <defs/>
  <path fill="#292D32" d="M5.28,19.4 C5.22,19.4 5.17,19.39 5.11,19.38 C4.71,19.29 4.45,18.88 4.55,18.48 L5.12,16.02 C5.2,15.7 5.04,15.15 4.8,14.91 L2.32,12.43 C1.08,11.19 1.18,10.13 1.35,9.61 C1.52,9.09 2.06,8.17 3.78,7.88 L6.97,7.35 C7.27,7.29 7.7,6.97 7.83,6.7 L9.6,3.17 C10.4,1.56 11.45,1.33 12,1.33 C12.55,1.33 13.6,1.57 14.4,3.17 L16.16,6.69 C16.22,6.81 16.35,6.95 16.5,7.07 C16.83,7.32 16.89,7.8 16.63,8.12 C16.38,8.45 15.91,8.51 15.58,8.25 C15.34,8.07 15.02,7.76 14.82,7.36 L13.06,3.84 C12.75,3.21 12.35,2.83 12,2.83 C11.65,2.83 11.25,3.21 10.94,3.85 L9.17,7.37 C8.82,8.07 7.98,8.69 7.21,8.82 L4.03,9.35 C3.35,9.46 2.89,9.73 2.78,10.06 C2.67,10.39 2.9,10.88 3.39,11.36 L5.87,13.84 C6.47,14.44 6.78,15.52 6.59,16.35 L6.02,18.81 C5.93,19.16 5.63,19.4 5.28,19.4 Z"/>
  <path fill="#292D32" d="M17.659,22.67 C17.129,22.67 16.449,22.5 15.599,22 L12.609,20.23 C12.299,20.05 11.699,20.05 11.399,20.23 L8.399,22 C8.049,22.21 7.579,22.09 7.369,21.74 C7.159,21.38 7.279,20.92 7.629,20.71 L10.619,18.94 C11.399,18.48 12.579,18.48 13.359,18.94 L16.349,20.71 C17.219,21.23 17.769,21.23 17.979,21.08 C18.189,20.93 18.339,20.4 18.119,19.42 L17.409,16.35 C17.219,15.52 17.529,14.45 18.129,13.84 L20.609,11.36 C21.099,10.87 21.319,10.39 21.219,10.06 C21.109,9.73 20.649,9.46 19.969,9.35 C19.559,9.28 19.289,8.9 19.349,8.49 C19.419,8.08 19.799,7.81 20.209,7.87 C21.939,8.16 22.479,9.08 22.639,9.6 C22.799,10.12 22.899,11.18 21.669,12.42 L19.199,14.9 C18.959,15.14 18.809,15.68 18.879,16.01 L19.589,19.08 C20.049,21.08 19.339,21.95 18.879,22.29 C18.629,22.47 18.229,22.67 17.659,22.67 Z"/>
  <path fill="#292D32" d="M1.999,22.75 C1.809,22.75 1.619,22.68 1.469,22.53 C1.179,22.24 1.179,21.76 1.469,21.47 L21.47,1.47 C21.759,1.18 22.239,1.18 22.529,1.47 C22.82,1.76 22.82,2.24 22.529,2.53 L2.529,22.53 C2.379,22.68 2.189,22.75 1.999,22.75 Z"/>
</svg>

