<svg xmlns="http://www.w3.org/2000/svg" width="24" height="24" viewBox="0 0 24 24">
  <defs/>
  <path fill="#292D32" d="M15.391,5.21 L16.801,8.03 C16.991,8.42 17.501,8.79 17.931,8.87 L20.481,9.29 C22.111,9.56 22.491,10.74 21.321,11.92 L19.331,13.91 C19.001,14.24 18.811,14.89 18.921,15.36 L19.491,17.82 C19.941,19.76 18.901,20.52 17.191,19.5 L14.801,18.08 C14.371,17.82 13.651,17.82 13.221,18.08 L10.831,19.5 C9.121,20.51 8.081,19.76 8.531,17.82 L9.101,15.36 C9.211,14.9 9.021,14.25 8.691,13.91 L6.701,11.92 C5.531,10.75 5.911,9.57 7.541,9.29 L10.091,8.87 C10.521,8.8 11.031,8.42 11.221,8.03 L12.631,5.21 C13.381,3.68 14.621,3.68 15.391,5.21 Z"/>
  <path fill="#292D32" opacity="0.4" d="M8,5.75 L2,5.75 C1.59,5.75 1.25,5.41 1.25,5 C1.25,4.59 1.59,4.25 2,4.25 L8,4.25 C8.41,4.25 8.75,4.59 8.75,5 C8.75,5.41 8.41,5.75 8,5.75 Z"/>
  <path fill="#292D32" opacity="0.4" d="M5,19.75 L2,19.75 C1.59,19.75 1.25,19.41 1.25,19 C1.25,18.59 1.59,18.25 2,18.25 L5,18.25 C5.41,18.25 5.75,18.59 5.75,19 C5.75,19.41 5.41,19.75 5,19.75 Z"/>
  <path fill="#292D32" opacity="0.4" d="M3,12.75 L2,12.75 C1.59,12.75 1.25,12.41 1.25,12 C1.25,11.59 1.59,11.25 2,11.25 L3,11.25 C3.41,11.25 3.75,11.59 3.75,12 C3.75,12.41 3.41,12.75 3,12.75 Z"/>
</svg>

