<svg xmlns="http://www.w3.org/2000/svg" width="24" height="24" viewBox="0 0 24 24">
  <defs/>
  <path fill="#292D32" d="M15.389,5.211 L16.799,8.031 C16.989,8.421 17.5,8.791 17.93,8.871 L20.48,9.291 C22.11,9.561 22.489,10.741 21.32,11.921 L19.329,13.911 C19,14.241 18.809,14.891 18.919,15.361 L19.489,17.821 C19.939,19.761 18.899,20.521 17.189,19.501 L14.8,18.081 C14.37,17.821 13.649,17.821 13.22,18.081 L10.829,19.501 C9.119,20.511 8.079,19.761 8.529,17.821 L9.099,15.361 C9.189,14.881 8.999,14.231 8.669,13.901 L6.679,11.911 C5.509,10.741 5.889,9.561 7.519,9.281 L10.069,8.861 C10.499,8.791 11.009,8.411 11.2,8.021 L12.61,5.201 C13.38,3.681 14.62,3.681 15.389,5.211 Z"/>
  <path fill="#292D32" d="M8,5.75 L2,5.75 C1.59,5.75 1.25,5.41 1.25,5 C1.25,4.59 1.59,4.25 2,4.25 L8,4.25 C8.41,4.25 8.75,4.59 8.75,5 C8.75,5.41 8.41,5.75 8,5.75 Z"/>
  <path fill="#292D32" d="M5,19.75 L2,19.75 C1.59,19.75 1.25,19.41 1.25,19 C1.25,18.59 1.59,18.25 2,18.25 L5,18.25 C5.41,18.25 5.75,18.59 5.75,19 C5.75,19.41 5.41,19.75 5,19.75 Z"/>
  <path fill="#292D32" d="M3,12.75 L2,12.75 C1.59,12.75 1.25,12.41 1.25,12 C1.25,11.59 1.59,11.25 2,11.25 L3,11.25 C3.41,11.25 3.75,11.59 3.75,12 C3.75,12.41 3.41,12.75 3,12.75 Z"/>
</svg>

