<svg xmlns="http://www.w3.org/2000/svg" width="24" height="24" viewBox="0 0 24 24">
  <defs/>
  <path fill="#292D32" opacity="0.4" d="M6.13,18.15 L6.13,16.08 Q6.13,15.769 6.35,15.55 Q6.569,15.33 6.88,15.33 Q7.191,15.33 7.41,15.55 Q7.63,15.769 7.63,16.08 L7.63,18.15 Q7.63,18.461 7.41,18.68 Q7.191,18.9 6.88,18.9 Q6.569,18.9 6.35,18.68 Q6.13,18.461 6.13,18.15 Z"/>
  <path fill="#292D32" opacity="0.4" d="M11.25,18.15 L11.25,14.01 Q11.25,13.699 11.47,13.479 Q11.689,13.26 12,13.26 Q12.311,13.26 12.53,13.479 Q12.75,13.699 12.75,14.01 L12.75,18.15 Q12.75,18.46 12.53,18.68 Q12.311,18.9 12,18.9 Q11.689,18.9 11.47,18.68 Q11.25,18.46 11.25,18.15 Z"/>
  <path fill="#292D32" opacity="0.4" d="M16.37,18.15 L16.37,11.93 Q16.37,11.62 16.59,11.4 Q16.809,11.18 17.12,11.18 Q17.431,11.18 17.65,11.4 Q17.87,11.62 17.87,11.93 L17.87,18.15 Q17.87,18.461 17.65,18.681 Q17.431,18.9 17.12,18.9 Q16.809,18.9 16.59,18.681 Q16.37,18.461 16.37,18.15 Z"/>
  <g opacity="0.4">
    <path fill="#292D32" d="M17.691,6.336 L17.231,6.876 Q13.156,11.638 7.061,13.157 Q6.76,13.232 6.494,13.072 Q6.227,12.912 6.152,12.611 Q6.077,12.31 6.237,12.043 Q6.397,11.777 6.698,11.702 Q12.328,10.298 16.089,5.903 L16.549,5.363 Q16.75,5.127 17.06,5.102 Q17.37,5.077 17.606,5.279 Q17.843,5.48 17.868,5.79 Q17.892,6.099 17.691,6.336 Z"/>
    <path fill="#292D32" d="M14.19,5.1 L17.12,5.1 Q17.431,5.1 17.651,5.319 Q17.87,5.539 17.87,5.85 L17.87,8.77 Q17.87,9.08 17.651,9.3 Q17.431,9.52 17.12,9.52 Q16.81,9.52 16.59,9.3 Q16.37,9.08 16.37,8.77 L16.37,6.6 L14.19,6.6 Q13.88,6.6 13.66,6.38 Q13.44,6.16 13.44,5.85 Q13.44,5.539 13.66,5.319 Q13.88,5.1 14.19,5.1 Z"/>
  </g>
  <path fill="#292D32" d="M9,22.75 Q1.25,22.75 1.25,15 L1.25,9 Q1.25,1.25 9,1.25 L15,1.25 Q22.75,1.25 22.75,9 L22.75,15 Q22.75,22.75 15,22.75 Z M9,21.25 L15,21.25 Q18.439,21.25 19.845,19.845 Q21.25,18.439 21.25,15 L21.25,9 Q21.25,2.75 15,2.75 L9,2.75 Q2.75,2.75 2.75,9 L2.75,15 Q2.75,18.439 4.155,19.845 Q5.561,21.25 9,21.25 Z"/>
</svg>

