<svg xmlns="http://www.w3.org/2000/svg" width="24" height="24" viewBox="0 0 24 24">
  <defs/>
  <path fill="#292D32" opacity="0.4" d="M10.241,14.74 C9.911,14.41 9.471,14.22 9.001,14.22 L3.921,14.22 C3.311,14.22 2.751,14.53 2.431,15.05 C2.111,15.56 2.081,16.17 2.341,16.71 C3.571,19.23 5.791,21.21 8.431,22.14 C8.611,22.2 8.811,22.24 9.001,22.24 C9.351,22.24 9.701,22.13 10.001,21.92 C10.471,21.59 10.751,21.05 10.751,20.48 L10.761,15.98 C10.751,15.51 10.571,15.07 10.241,14.74 Z"/>
  <path fill="#292D32" d="M22.48,9.6 C21.36,4.68 17.05,1.25 12,1.25 C6.95,1.25 2.64,4.68 1.52,9.6 C1.4,10.12 1.52,10.65 1.86,11.07 C2.2,11.49 2.7,11.73 3.24,11.73 L20.77,11.73 C21.31,11.73 21.81,11.49 22.15,11.07 C22.48,10.65 22.6,10.11 22.48,9.6 Z"/>
  <path fill="#292D32" opacity="0.4" d="M21.56,15.1 C21.24,14.58 20.68,14.26 20.06,14.26 L15,14.25 C14.53,14.25 14.09,14.43 13.76,14.76 C13.43,15.09 13.25,15.53 13.25,16 L13.26,20.48 C13.26,21.05 13.54,21.59 14.01,21.92 C14.31,22.13 14.66,22.24 15.01,22.24 C15.2,22.24 15.39,22.21 15.57,22.14 C18.19,21.22 20.41,19.25 21.64,16.76 C21.9,16.23 21.87,15.61 21.56,15.1 Z"/>
</svg>

