<svg xmlns="http://www.w3.org/2000/svg" width="24" height="24" viewBox="0 0 24 24">
  <defs/>
  <path fill="#292D32" d="M6.88,18.9 C6.47,18.9 6.13,18.56 6.13,18.15 L6.13,16.08 C6.13,15.67 6.47,15.33 6.88,15.33 C7.29,15.33 7.63,15.67 7.63,16.08 L7.63,18.15 C7.63,18.57 7.29,18.9 6.88,18.9 Z"/>
  <path fill="#292D32" d="M12,18.9 C11.59,18.9 11.25,18.56 11.25,18.15 L11.25,14 C11.25,13.59 11.59,13.25 12,13.25 C12.41,13.25 12.75,13.59 12.75,14 L12.75,18.15 C12.75,18.57 12.41,18.9 12,18.9 Z"/>
  <path fill="#292D32" d="M17.12,18.9 C16.71,18.9 16.37,18.56 16.37,18.15 L16.37,11.93 C16.37,11.52 16.71,11.18 17.12,11.18 C17.53,11.18 17.87,11.52 17.87,11.93 L17.87,18.15 C17.87,18.57 17.54,18.9 17.12,18.9 Z"/>
  <path fill="#292D32" d="M6.88,13.18 C6.54,13.18 6.24,12.95 6.15,12.61 C6.05,12.21 6.29,11.8 6.7,11.7 C10.38,10.78 13.62,8.77 16.09,5.9 L16.55,5.36 C16.82,5.05 17.29,5.01 17.61,5.28 C17.92,5.55 17.96,6.02 17.69,6.34 L17.23,6.88 C14.56,10 11.04,12.17 7.06,13.16 C7,13.18 6.94,13.18 6.88,13.18 Z"/>
  <path fill="#292D32" d="M17.12,9.52 C16.71,9.52 16.37,9.18 16.37,8.77 L16.37,6.6 L14.19,6.6 C13.78,6.6 13.44,6.26 13.44,5.85 C13.44,5.44 13.78,5.1 14.19,5.1 L17.12,5.1 C17.53,5.1 17.87,5.44 17.87,5.85 L17.87,8.78 C17.87,9.19 17.54,9.52 17.12,9.52 Z"/>
  <path fill="#292D32" d="M15,22.75 L9,22.75 C3.57,22.75 1.25,20.43 1.25,15 L1.25,9 C1.25,3.57 3.57,1.25 9,1.25 L15,1.25 C20.43,1.25 22.75,3.57 22.75,9 L22.75,15 C22.75,20.43 20.43,22.75 15,22.75 Z M9,2.75 C4.39,2.75 2.75,4.39 2.75,9 L2.75,15 C2.75,19.61 4.39,21.25 9,21.25 L15,21.25 C19.61,21.25 21.25,19.61 21.25,15 L21.25,9 C21.25,4.39 19.61,2.75 15,2.75 L9,2.75 Z"/>
</svg>

