<svg xmlns="http://www.w3.org/2000/svg" width="24" height="24" viewBox="0 0 24 24">
  <defs/>
  <path fill="#292D32" d="M9.001,14.219 L3.921,14.219 C3.311,14.219 2.751,14.529 2.431,15.049 C2.111,15.559 2.081,16.169 2.341,16.709 C3.571,19.229 5.791,21.209 8.431,22.139 C8.611,22.199 8.811,22.239 9.001,22.239 C9.351,22.239 9.701,22.129 10.001,21.919 C10.471,21.589 10.751,21.049 10.751,20.479 L10.761,15.979 C10.761,15.509 10.581,15.069 10.251,14.739 C9.911,14.409 9.471,14.219 9.001,14.219 Z"/>
  <path fill="#292D32" d="M22.48,9.6 C21.36,4.68 17.05,1.25 12,1.25 C6.95,1.25 2.64,4.68 1.52,9.6 C1.4,10.12 1.52,10.65 1.86,11.07 C2.2,11.49 2.7,11.73 3.24,11.73 L20.77,11.73 C21.31,11.73 21.81,11.49 22.15,11.07 C22.48,10.65 22.6,10.11 22.48,9.6 Z"/>
  <path fill="#292D32" d="M20.06,14.272 L15,14.262 C14.53,14.262 14.09,14.442 13.76,14.772 C13.43,15.102 13.25,15.542 13.25,16.012 L13.26,20.492 C13.26,21.062 13.54,21.602 14.01,21.932 C14.31,22.142 14.66,22.252 15.01,22.252 C15.2,22.252 15.39,22.222 15.57,22.152 C18.19,21.232 20.41,19.262 21.64,16.772 C21.9,16.242 21.87,15.622 21.56,15.122 C21.23,14.582 20.67,14.272 20.06,14.272 Z"/>
</svg>

