<svg xmlns="http://www.w3.org/2000/svg" width="24" height="24" viewBox="0 0 24 24">
  <defs/>
  <path fill="#292D32" d="M16.19,2 L7.81,2 C4.17,2 2,4.17 2,7.81 L2,16.18 C2,19.83 4.17,22 7.81,22 L16.18,22 C19.82,22 21.99,19.83 21.99,16.19 L21.99,7.81 C22,4.17 19.83,2 16.19,2 Z M7.63,18.15 C7.63,18.56 7.29,18.9 6.88,18.9 C6.47,18.9 6.13,18.56 6.13,18.15 L6.13,16.08 C6.13,15.67 6.47,15.33 6.88,15.33 C7.29,15.33 7.63,15.67 7.63,16.08 L7.63,18.15 Z M12.75,18.15 C12.75,18.56 12.41,18.9 12,18.9 C11.59,18.9 11.25,18.56 11.25,18.15 L11.25,14 C11.25,13.59 11.59,13.25 12,13.25 C12.41,13.25 12.75,13.59 12.75,14 L12.75,18.15 Z M17.87,18.15 C17.87,18.56 17.53,18.9 17.12,18.9 C16.71,18.9 16.37,18.56 16.37,18.15 L16.37,11.93 C16.37,11.52 16.71,11.18 17.12,11.18 C17.53,11.18 17.87,11.52 17.87,11.93 L17.87,18.15 Z M17.87,8.77 C17.87,9.18 17.53,9.52 17.12,9.52 C16.71,9.52 16.37,9.18 16.37,8.77 L16.37,7.8 C13.82,10.42 10.63,12.27 7.06,13.16 C7,13.18 6.94,13.18 6.88,13.18 C6.54,13.18 6.24,12.95 6.15,12.61 C6.05,12.21 6.29,11.8 6.7,11.7 C10.07,10.86 13.07,9.09 15.45,6.59 L14.2,6.59 C13.79,6.59 13.45,6.25 13.45,5.84 C13.45,5.43 13.79,5.09 14.2,5.09 L17.13,5.09 C17.17,5.09 17.2,5.11 17.24,5.11 C17.29,5.12 17.34,5.12 17.39,5.14 C17.44,5.16 17.48,5.19 17.53,5.22 C17.56,5.24 17.59,5.25 17.62,5.27 C17.63,5.28 17.63,5.29 17.64,5.29 C17.68,5.33 17.71,5.37 17.74,5.41 C17.77,5.45 17.8,5.48 17.81,5.52 C17.83,5.56 17.83,5.6 17.84,5.65 C17.85,5.7 17.87,5.75 17.87,5.81 C17.87,5.82 17.88,5.83 17.88,5.84 L17.88,8.77 L17.87,8.77 Z"/>
</svg>

