<svg xmlns="http://www.w3.org/2000/svg" width="24" height="24" viewBox="0 0 24 24">
  <defs/>
  <path fill="#292D32" opacity="0.4" d="M16.19,2 L7.81,2 C4.17,2 2,4.17 2,7.81 L2,16.18 C2,19.83 4.17,22 7.81,22 L16.18,22 C19.82,22 21.99,19.83 21.99,16.19 L21.99,7.81 C22,4.17 19.83,2 16.19,2 Z"/>
  <path fill="#292D32" d="M6.881,18.9 C6.471,18.9 6.131,18.56 6.131,18.15 L6.131,16.08 C6.131,15.67 6.471,15.33 6.881,15.33 C7.291,15.33 7.631,15.67 7.631,16.08 L7.631,18.15 C7.631,18.57 7.291,18.9 6.881,18.9 Z"/>
  <path fill="#292D32" d="M12,18.9 C11.59,18.9 11.25,18.56 11.25,18.15 L11.25,14 C11.25,13.59 11.59,13.25 12,13.25 C12.41,13.25 12.75,13.59 12.75,14 L12.75,18.15 C12.75,18.57 12.41,18.9 12,18.9 Z"/>
  <path fill="#292D32" d="M17.119,18.9 C16.709,18.9 16.369,18.56 16.369,18.15 L16.369,11.93 C16.369,11.52 16.709,11.18 17.119,11.18 C17.529,11.18 17.869,11.52 17.869,11.93 L17.869,18.15 C17.869,18.57 17.539,18.9 17.119,18.9 Z"/>
  <path fill="#292D32" d="M17.871,5.82 C17.871,5.77 17.851,5.71 17.841,5.66 C17.831,5.62 17.821,5.57 17.811,5.53 C17.791,5.49 17.761,5.46 17.741,5.42 C17.711,5.38 17.681,5.33 17.641,5.3 C17.631,5.29 17.631,5.28 17.621,5.28 C17.591,5.26 17.561,5.25 17.531,5.23 C17.491,5.2 17.441,5.17 17.391,5.15 C17.341,5.13 17.291,5.13 17.241,5.12 C17.201,5.11 17.171,5.1 17.131,5.1 L14.201,5.1 C13.791,5.1 13.451,5.44 13.451,5.85 C13.451,6.26 13.791,6.6 14.201,6.6 L15.451,6.6 C13.071,9.1 10.071,10.86 6.701,11.71 C6.301,11.81 6.051,12.22 6.151,12.62 C6.231,12.96 6.541,13.19 6.881,13.19 C6.941,13.19 7.001,13.18 7.061,13.17 C10.631,12.28 13.821,10.43 16.371,7.81 L16.371,8.78 C16.371,9.19 16.711,9.53 17.121,9.53 C17.531,9.53 17.871,9.19 17.871,8.78 L17.871,5.85 C17.871,5.84 17.871,5.83 17.871,5.82 Z"/>
</svg>

