<svg xmlns="http://www.w3.org/2000/svg" width="24" height="24" viewBox="0 0 24 24">
  <defs/>
  <path fill="#292D32" d="M6.131,18.15 L6.131,16.08 Q6.131,15.769 6.351,15.55 Q6.57,15.33 6.881,15.33 Q7.192,15.33 7.411,15.55 Q7.631,15.769 7.631,16.08 L7.631,18.15 Q7.631,18.461 7.411,18.68 Q7.192,18.9 6.881,18.9 Q6.57,18.9 6.351,18.68 Q6.131,18.461 6.131,18.15 Z"/>
  <path fill="#292D32" d="M11.25,18.15 L11.25,14.01 Q11.25,13.699 11.47,13.48 Q11.689,13.26 12,13.26 Q12.311,13.26 12.53,13.48 Q12.75,13.699 12.75,14.01 L12.75,18.15 Q12.75,18.461 12.53,18.68 Q12.311,18.9 12,18.9 Q11.689,18.9 11.47,18.68 Q11.25,18.461 11.25,18.15 Z"/>
  <path fill="#292D32" d="M16.369,18.15 L16.369,11.93 Q16.369,11.619 16.589,11.4 Q16.808,11.18 17.119,11.18 Q17.43,11.18 17.649,11.4 Q17.869,11.619 17.869,11.93 L17.869,18.15 Q17.869,18.461 17.649,18.68 Q17.43,18.9 17.119,18.9 Q16.808,18.9 16.589,18.68 Q16.369,18.461 16.369,18.15 Z"/>
  <path fill="#292D32" d="M17.692,6.336 L17.232,6.876 Q13.157,11.638 7.062,13.158 Q6.761,13.233 6.495,13.073 Q6.228,12.913 6.153,12.612 Q6.078,12.31 6.238,12.044 Q6.398,11.778 6.699,11.702 Q12.329,10.299 16.09,5.904 L16.55,5.364 Q16.751,5.127 17.061,5.102 Q17.371,5.078 17.607,5.279 Q17.844,5.481 17.869,5.79 Q17.893,6.1 17.692,6.336 Z"/>
  <path fill="#292D32" d="M14.189,5.1 L17.119,5.1 Q17.43,5.1 17.65,5.32 Q17.869,5.539 17.869,5.85 L17.869,8.77 Q17.869,9.081 17.65,9.3 Q17.43,9.52 17.119,9.52 Q16.809,9.52 16.589,9.3 Q16.369,9.081 16.369,8.77 L16.369,6.6 L14.189,6.6 Q13.879,6.6 13.659,6.38 Q13.439,6.161 13.439,5.85 Q13.439,5.539 13.659,5.32 Q13.879,5.1 14.189,5.1 Z"/>
  <path fill="#292D32" d="M2.75,12.97 L2.75,15 Q2.75,18.439 4.155,19.845 Q5.561,21.25 9,21.25 L15,21.25 Q18.439,21.25 19.845,19.845 Q21.25,18.439 21.25,15 L21.25,9 Q21.25,2.75 15,2.75 L9,2.75 Q2.75,2.75 2.75,9 Q2.75,9.311 2.53,9.53 Q2.311,9.75 2,9.75 Q1.689,9.75 1.47,9.53 Q1.25,9.311 1.25,9 Q1.25,1.25 9,1.25 L15,1.25 Q22.75,1.25 22.75,9 L22.75,15 Q22.75,22.75 15,22.75 L9,22.75 Q1.25,22.75 1.25,15 L1.25,12.97 Q1.25,12.659 1.47,12.44 Q1.689,12.22 2,12.22 Q2.311,12.22 2.53,12.44 Q2.75,12.659 2.75,12.97 Z"/>
</svg>

