<svg xmlns="http://www.w3.org/2000/svg" width="24" height="24" viewBox="0 0 24 24">
  <defs/>
  <path fill="#292D32" d="M3.166,14.747 Q4.789,19.966 10.13,21.055 Q10.434,21.117 10.606,21.376 Q10.777,21.635 10.715,21.94 Q10.653,22.244 10.394,22.416 Q10.135,22.587 9.83,22.525 Q3.621,21.259 1.734,15.193 Q1.642,14.896 1.786,14.621 Q1.931,14.346 2.227,14.254 Q2.524,14.162 2.799,14.306 Q3.074,14.451 3.166,14.747 Z"/>
  <path fill="#292D32" d="M1.304,10.905 Q1.717,6.814 4.769,4.041 Q7.842,1.25 12,1.25 Q16.157,1.25 19.231,4.045 Q22.283,6.82 22.696,10.904 Q22.727,11.214 22.531,11.454 Q22.335,11.695 22.026,11.726 Q21.716,11.757 21.476,11.561 Q21.235,11.365 21.204,11.056 Q20.848,7.543 18.222,5.155 Q15.577,2.75 12,2.75 Q8.421,2.75 5.778,5.151 Q3.151,7.538 2.796,11.055 Q2.765,11.364 2.524,11.561 Q2.284,11.757 1.975,11.726 Q1.666,11.695 1.469,11.454 Q1.273,11.214 1.304,10.905 Z"/>
  <path fill="#292D32" d="M13.86,21.065 Q19.178,19.978 20.825,14.793 Q20.919,14.497 21.195,14.354 Q21.471,14.211 21.767,14.305 Q22.063,14.399 22.206,14.675 Q22.349,14.951 22.255,15.247 Q20.34,21.271 14.16,22.535 Q13.856,22.597 13.597,22.426 Q13.337,22.255 13.275,21.95 Q13.213,21.646 13.384,21.387 Q13.555,21.127 13.86,21.065 Z"/>
</svg>

