<svg xmlns="http://www.w3.org/2000/svg" width="24" height="24" viewBox="0 0 24 24">
  <defs/>
  <path fill="#292D32" d="M9.99,22.55 C9.94,22.55 9.89,22.55 9.84,22.53 C6.01,21.75 2.9,18.93 1.74,15.19 C1.62,14.79 1.84,14.37 2.23,14.25 C2.63,14.13 3.05,14.35 3.17,14.74 C4.17,17.96 6.84,20.38 10.14,21.05 C10.55,21.13 10.81,21.53 10.72,21.94 C10.65,22.3 10.33,22.55 9.99,22.55 Z"/>
  <path fill="#292D32" d="M21.95,11.73 C21.57,11.73 21.24,11.44 21.2,11.06 C20.72,6.32 16.76,2.75 12,2.75 C7.23,2.75 3.28,6.32 2.8,11.05 C2.76,11.46 2.4,11.77 1.98,11.72 C1.57,11.68 1.27,11.31 1.31,10.9 C1.87,5.4 6.47,1.25 12,1.25 C17.54,1.25 22.14,5.4 22.69,10.9 C22.73,11.31 22.43,11.68 22.02,11.72 C22,11.73 21.97,11.73 21.95,11.73 Z"/>
  <path fill="#292D32" d="M14.01,22.55 C13.66,22.55 13.35,22.31 13.28,21.95 C13.2,21.54 13.46,21.15 13.86,21.07 C17.14,20.4 19.81,18 20.82,14.8 C20.94,14.4 21.37,14.18 21.76,14.31 C22.16,14.43 22.37,14.86 22.25,15.25 C21.07,18.97 17.97,21.76 14.16,22.54 C14.11,22.54 14.06,22.55 14.01,22.55 Z"/>
</svg>

