<svg xmlns="http://www.w3.org/2000/svg" width="24" height="24" viewBox="0 0 24 24">
  <defs/>
  <path d="M15.962,5.625 Q14.167,4.5 12,4.5 Q8.891,4.5 6.695,6.695 Q4.5,8.891 4.5,12 Q4.5,13.022 4.764,13.994 Q4.845,14.293 4.691,14.563 Q4.536,14.832 4.236,14.914 Q3.937,14.995 3.667,14.841 Q3.398,14.686 3.316,14.386 Q3,13.222 3,12 Q3,8.269 5.635,5.635 Q8.269,3 12,3 Q14.598,3 16.758,4.355 Q17.022,4.52 17.091,4.822 Q17.16,5.125 16.995,5.388 Q16.83,5.652 16.528,5.721 Q16.225,5.79 15.962,5.625 Z"/>
  <path d="M1.639,15.343 L21.639,4.343 Q21.911,4.193 22.209,4.28 Q22.507,4.366 22.657,4.639 Q22.807,4.911 22.72,5.209 Q22.634,5.507 22.361,5.657 L2.361,16.657 Q2.089,16.807 1.791,16.72 Q1.493,16.634 1.343,16.361 Q1.193,16.089 1.28,15.791 Q1.366,15.493 1.639,15.343 Z"/>
  <g opacity="0.4">
    <path d="M8.02,18.356 Q9.837,19.5 12,19.5 Q15.109,19.5 17.305,17.305 Q19.5,15.109 19.5,12 Q19.5,10.893 19.191,9.854 Q19.103,9.556 19.251,9.283 Q19.399,9.01 19.696,8.921 Q19.994,8.833 20.267,8.981 Q20.54,9.129 20.629,9.426 Q21,10.675 21,12 Q21,15.731 18.365,18.365 Q15.731,21 12,21 Q9.404,21 7.22,19.625 Q6.958,19.459 6.889,19.156 Q6.82,18.853 6.986,18.59 Q7.151,18.328 7.454,18.259 Q7.757,18.19 8.02,18.356 Z"/>
    <path d="M22.361,9.157 L2.361,20.157 Q2.089,20.307 1.791,20.22 Q1.493,20.134 1.343,19.861 Q1.193,19.589 1.28,19.291 Q1.366,18.993 1.639,18.843 L21.639,7.843 Q21.911,7.693 22.209,7.78 Q22.507,7.866 22.657,8.139 Q22.807,8.411 22.72,8.709 Q22.634,9.007 22.361,9.157 Z"/>
  </g>
</svg>

