<svg xmlns="http://www.w3.org/2000/svg" width="24" height="24" viewBox="0 0 24 24">
  <defs/>
  <path d="M15.962,5.625 Q14.167,4.5 12,4.5 Q8.891,4.5 6.695,6.695 Q4.5,8.891 4.5,12 Q4.5,13.022 4.764,13.994 Q4.845,14.293 4.691,14.563 Q4.536,14.832 4.236,14.914 Q3.937,14.995 3.667,14.841 Q3.398,14.686 3.316,14.386 Q3,13.222 3,12 Q3,8.269 5.635,5.635 Q8.269,3 12,3 Q14.598,3 16.758,4.355 Q17.022,4.52 17.091,4.822 Q17.16,5.125 16.995,5.388 Q16.83,5.652 16.528,5.721 Q16.225,5.79 15.962,5.625 Z"/>
  <path d="M8.019,18.355 Q9.836,19.5 11.999,19.5 Q15.108,19.5 17.304,17.305 Q19.499,15.109 19.499,12 Q19.499,10.893 19.19,9.854 Q19.102,9.556 19.25,9.283 Q19.398,9.01 19.695,8.921 Q19.993,8.832 20.266,8.98 Q20.539,9.128 20.628,9.426 Q20.999,10.674 20.999,12 Q20.999,15.731 18.364,18.365 Q15.73,21 11.999,21 Q9.403,21 7.219,19.624 Q6.957,19.459 6.888,19.156 Q6.819,18.853 6.985,18.59 Q7.15,18.327 7.453,18.259 Q7.756,18.19 8.019,18.355 Z"/>
  <path d="M13.568,8.783 L21.638,4.343 Q21.91,4.193 22.209,4.28 Q22.507,4.366 22.657,4.638 Q22.807,4.911 22.72,5.209 Q22.633,5.507 22.361,5.657 L14.291,10.097 Q14.019,10.247 13.721,10.16 Q13.422,10.074 13.273,9.802 Q13.123,9.529 13.209,9.231 Q13.296,8.933 13.568,8.783 Z"/>
  <path d="M1.638,15.343 L9.688,10.913 Q9.961,10.763 10.259,10.85 Q10.557,10.936 10.707,11.209 Q10.857,11.481 10.77,11.779 Q10.684,12.077 10.412,12.227 L2.362,16.657 Q2.089,16.807 1.791,16.72 Q1.493,16.634 1.343,16.362 Q1.193,16.09 1.28,15.791 Q1.366,15.493 1.638,15.343 Z"/>
  <path d="M22.361,9.157 L2.361,20.157 Q2.089,20.307 1.791,20.22 Q1.493,20.134 1.343,19.861 Q1.193,19.589 1.28,19.291 Q1.366,18.993 1.639,18.843 L21.639,7.843 Q21.911,7.693 22.209,7.78 Q22.507,7.866 22.657,8.139 Q22.807,8.411 22.72,8.709 Q22.634,9.007 22.361,9.157 Z"/>
</svg>

