<svg xmlns="http://www.w3.org/2000/svg" width="24" height="24" viewBox="0 0 24 24">
  <defs/>
  <path d="M4.04,14.94 C3.71,14.94 3.41,14.72 3.32,14.39 C3.11,13.61 3,12.81 3,12 C3,7.04 7.04,3 12,3 C13.69,3 15.33,3.47 16.75,4.36 C17.1,4.58 17.21,5.04 16.99,5.39 C16.77,5.74 16.31,5.85 15.96,5.63 C14.77,4.89 13.4,4.5 12,4.5 C7.86,4.5 4.5,7.86 4.5,12 C4.5,12.68 4.59,13.35 4.77,13.99 C4.88,14.39 4.64,14.8 4.24,14.91 C4.18,14.93 4.11,14.94 4.04,14.94 Z"/>
  <path d="M12,21 C10.3,21 8.65,20.52 7.22,19.63 C6.87,19.41 6.76,18.95 6.98,18.6 C7.2,18.25 7.66,18.14 8.01,18.36 C9.2,19.11 10.58,19.5 11.99,19.5 C16.13,19.5 19.49,16.14 19.49,12 C19.49,11.27 19.38,10.54 19.18,9.85 C19.06,9.45 19.29,9.04 19.68,8.92 C20.08,8.8 20.49,9.03 20.61,9.42 C20.86,10.25 20.99,11.12 20.99,12 C21,16.96 16.96,21 12,21 Z"/>
  <path d="M2,16.75 C1.74,16.75 1.48,16.61 1.34,16.36 C1.14,16 1.27,15.54 1.64,15.34 L21.64,4.34 C22,4.14 22.46,4.27 22.66,4.64 C22.86,5 22.73,5.46 22.36,5.66 L2.36,16.66 C2.25,16.72 2.12,16.75 2,16.75 Z"/>
  <path d="M2,20.25 C1.74,20.25 1.48,20.11 1.34,19.86 C1.14,19.5 1.27,19.04 1.64,18.84 L21.64,7.84 C22,7.64 22.46,7.77 22.66,8.14 C22.86,8.5 22.73,8.96 22.36,9.16 L2.36,20.16 C2.25,20.22 2.12,20.25 2,20.25 Z"/>
</svg>

