<svg xmlns="http://www.w3.org/2000/svg" width="24" height="24" viewBox="0 0 24 24">
  <defs/>
  <path d="M22.66,4.64 C22.459,4.28 22,4.14 21.64,4.34 L4.7,13.66 C4.58,13.12 4.5,12.56 4.5,12 C4.5,7.86 7.86,4.5 12,4.5 C13.41,4.5 14.78,4.89 15.96,5.63 C16.31,5.85 16.77,5.74 16.99,5.39 C17.21,5.04 17.1,4.58 16.75,4.36 C15.33,3.47 13.69,3 12,3 C7.04,3 3,7.04 3,12 C3,12.81 3.11,13.61 3.32,14.39 C3.32,14.4 3.33,14.4 3.33,14.41 L1.64,15.34 C1.28,15.54 1.14,16 1.34,16.36 C1.48,16.61 1.73,16.75 2,16.75 C2.12,16.75 2.25,16.72 2.36,16.66 L22.36,5.66 C22.72,5.46 22.86,5 22.66,4.64 Z"/>
  <path d="M22.66,8.142 C22.459,7.782 22,7.642 21.64,7.842 L19.53,9.002 C19.5,9.022 19.46,9.032 19.43,9.062 L1.64,18.842 C1.28,19.042 1.14,19.502 1.34,19.862 C1.48,20.112 1.73,20.252 2,20.252 C2.12,20.252 2.25,20.222 2.36,20.162 L19.39,10.792 C19.45,11.192 19.5,11.592 19.5,12.002 C19.5,16.142 16.14,19.502 12,19.502 C10.58,19.502 9.21,19.102 8.02,18.362 C7.67,18.142 7.21,18.252 6.99,18.602 C6.77,18.952 6.87,19.412 7.23,19.632 C8.66,20.532 10.31,21.002 12.01,21.002 C16.97,21.002 21.01,16.962 21.01,12.002 C21.01,11.332 20.91,10.682 20.77,10.042 L22.37,9.162 C22.72,8.962 22.86,8.502 22.66,8.142 Z"/>
</svg>

