<svg xmlns="http://www.w3.org/2000/svg" width="24" height="24" viewBox="0 0 24 24">
  <defs/>
  <path fill="#17191C" d="M16.007,5.639 Q14.238,4.55 12,4.55 Q8.88,4.55 6.707,6.741 Q4.55,8.916 4.55,12 Q4.55,13.045 4.821,13.994 Q4.906,14.293 4.755,14.564 Q4.605,14.836 4.306,14.921 Q4.007,15.006 3.736,14.856 Q3.464,14.705 3.379,14.406 Q3.05,13.255 3.05,12 Q3.05,8.299 5.642,5.684 Q8.255,3.05 12,3.05 Q14.662,3.05 16.793,4.361 Q17.057,4.524 17.129,4.826 Q17.201,5.129 17.039,5.393 Q16.876,5.658 16.574,5.73 Q16.271,5.802 16.007,5.639 Z"/>
  <path fill="#17191C" d="M7.993,18.361 Q9.925,19.55 12,19.55 Q15.12,19.55 17.293,17.359 Q19.45,15.184 19.45,12.1 Q19.45,10.992 19.172,9.882 Q19.097,9.58 19.257,9.314 Q19.417,9.048 19.718,8.972 Q20.02,8.897 20.286,9.057 Q20.552,9.217 20.628,9.518 Q20.95,10.808 20.95,12.1 Q20.95,15.801 18.358,18.416 Q15.745,21.05 12,21.05 Q9.5,21.05 7.207,19.639 Q6.942,19.476 6.87,19.174 Q6.799,18.872 6.961,18.607 Q7.124,18.342 7.426,18.27 Q7.729,18.198 7.993,18.361 Z"/>
  <path fill="#17191C" d="M1.639,15.343 L21.639,4.343 Q21.911,4.193 22.209,4.28 Q22.507,4.366 22.657,4.639 Q22.807,4.911 22.72,5.209 Q22.634,5.507 22.361,5.657 L2.361,16.657 Q2.089,16.807 1.791,16.72 Q1.493,16.634 1.343,16.361 Q1.193,16.089 1.28,15.791 Q1.366,15.493 1.639,15.343 Z"/>
  <path fill="#17191C" d="M22.361,9.157 L2.361,20.157 Q2.089,20.307 1.791,20.22 Q1.493,20.134 1.343,19.861 Q1.193,19.589 1.28,19.291 Q1.366,18.993 1.639,18.843 L21.639,7.843 Q21.911,7.693 22.209,7.78 Q22.507,7.866 22.657,8.139 Q22.807,8.411 22.72,8.709 Q22.634,9.007 22.361,9.157 Z"/>
</svg>

