<svg xmlns="http://www.w3.org/2000/svg" width="24" height="24" viewBox="0 0 24 24">
  <defs/>
  <path fill="#292D32" opacity="0.4" d="M21.5,8.37 L21.5,15.82 C21.5,15.97 21.45,16.12 21.32,16.25 C19.87,17.71 17.29,20.31 15.81,21.8 C15.68,21.94 15.51,22 15.34,22 L7.37,22 C4.68,22 2.5,19.82 2.5,17.13 L2.5,8.37 C2.5,5.68 4.68,3.5 7.37,3.5 L16.63,3.5 C19.32,3.5 21.5,5.68 21.5,8.37 Z"/>
  <path fill="#292D32" d="M8.289,6.29 C7.869,6.29 7.539,5.95 7.539,5.54 L7.539,2.75 C7.539,2.34 7.869,2 8.289,2 C8.709,2 9.039,2.34 9.039,2.75 L9.039,5.53 C9.039,5.95 8.709,6.29 8.289,6.29 Z"/>
  <path fill="#292D32" d="M15.711,6.29 C15.291,6.29 14.961,5.95 14.961,5.54 L14.961,2.75 C14.961,2.33 15.301,2 15.711,2 C16.131,2 16.461,2.34 16.461,2.75 L16.461,5.53 C16.461,5.95 16.131,6.29 15.711,6.29 Z"/>
  <path fill="#292D32" d="M14.779,12.71 L7.359,12.71 C6.939,12.71 6.609,12.37 6.609,11.96 C6.609,11.55 6.949,11.21 7.359,11.21 L14.779,11.21 C15.199,11.21 15.529,11.55 15.529,11.96 C15.529,12.37 15.199,12.71 14.779,12.71 Z"/>
  <path fill="#292D32" d="M11.999,16.42 L7.359,16.42 C6.939,16.42 6.609,16.08 6.609,15.67 C6.609,15.25 6.949,14.92 7.359,14.92 L11.999,14.92 C12.419,14.92 12.749,15.26 12.749,15.67 C12.749,16.08 12.419,16.42 11.999,16.42 Z"/>
  <path fill="#292D32" d="M21.5,15.82 C21.5,15.97 21.45,16.12 21.32,16.25 C19.869,17.71 17.29,20.31 15.809,21.8 C15.68,21.94 15.509,22 15.339,22 C15.009,22 14.69,21.74 14.69,21.36 L14.69,17.86 C14.69,16.4 15.93,15.19 17.45,15.19 C18.399,15.18 19.72,15.18 20.849,15.18 C21.239,15.18 21.5,15.49 21.5,15.82 Z"/>
</svg>

