<svg xmlns="http://www.w3.org/2000/svg" width="24" height="24" viewBox="0 0 24 24">
  <defs/>
  <path fill="#292D32" d="M22.676,12.939 Q22.637,13.307 22.553,13.611 Q22.469,13.91 22.199,14.063 Q21.929,14.216 21.629,14.133 Q21.471,14.089 21.346,13.983 Q19.889,12.75 17.97,12.75 Q15.798,12.75 14.259,14.289 Q12.72,15.828 12.72,18 Q12.72,19.919 13.953,21.376 Q14.153,21.613 14.127,21.922 Q14.102,22.232 13.864,22.433 Q13.739,22.539 13.581,22.583 Q13.277,22.667 12.909,22.706 Q11.55,22.834 10.087,22.59 Q2.607,21.316 1.37,13.822 Q0.46,8.305 4.367,4.397 Q8.275,0.49 13.792,1.4 Q21.286,2.637 22.559,10.114 Q22.804,11.58 22.677,12.93 Z M21.22,12.074 Q21.228,11.247 21.081,10.366 Q19.987,3.943 13.548,2.88 Q8.79,2.095 5.428,5.458 Q2.065,8.82 2.85,13.578 Q3.913,20.017 10.333,21.11 Q11.219,21.258 12.044,21.25 Q11.22,19.779 11.22,18 Q11.22,15.207 13.198,13.228 Q15.177,11.25 17.97,11.25 Q19.749,11.25 21.22,12.074 Z"/>
  <path fill="#292D32" d="M22.551,13.616 Q22.286,14.545 21.59,15.24 L15.21,21.62 Q14.515,22.316 13.586,22.581 Q13.12,22.714 12.807,22.344 Q11.22,20.468 11.22,18 Q11.22,15.207 13.198,13.228 Q15.177,11.25 17.97,11.25 Q20.438,11.25 22.314,12.837 Q22.684,13.15 22.551,13.616 Z M20.923,13.658 Q19.617,12.75 17.97,12.75 Q15.798,12.75 14.259,14.289 Q12.72,15.828 12.72,18 Q12.72,19.647 13.628,20.953 Q13.911,20.799 14.15,20.56 L20.53,14.18 Q20.769,13.941 20.923,13.658 Z"/>
</svg>

