<svg xmlns="http://www.w3.org/2000/svg" width="24" height="24" viewBox="0 0 24 24">
  <defs/>
  <path fill="#292D32" d="M11.969,22.75 C11.359,22.75 10.729,22.7 10.089,22.59 C5.689,21.84 2.099,18.24 1.369,13.82 C0.789,10.31 1.879,6.88 4.369,4.39 C6.859,1.9 10.289,0.82 13.789,1.39 C18.199,2.12 21.809,5.7 22.559,10.1 C22.719,11.07 22.759,12.02 22.679,12.92 L22.679,12.93 C22.659,13.16 22.619,13.38 22.559,13.6 C22.489,13.85 22.299,14.04 22.059,14.12 C21.819,14.2 21.549,14.14 21.349,13.98 C20.409,13.19 19.209,12.75 17.969,12.75 C15.069,12.75 12.719,15.11 12.719,18 C12.719,19.24 13.159,20.44 13.949,21.38 C14.119,21.58 14.169,21.84 14.089,22.09 C14.009,22.34 13.819,22.52 13.569,22.59 C13.349,22.65 13.129,22.69 12.899,22.71 C12.599,22.74 12.289,22.75 11.969,22.75 Z M11.969,2.75 C9.519,2.75 7.199,3.7 5.439,5.46 C3.299,7.6 2.359,10.56 2.859,13.58 C3.489,17.37 6.559,20.47 10.349,21.11 C10.949,21.21 11.519,21.27 12.069,21.25 C11.529,20.26 11.239,19.14 11.239,18 C11.239,14.28 14.269,11.25 17.989,11.25 C19.129,11.25 20.249,11.54 21.239,12.08 C21.249,11.53 21.199,10.96 21.099,10.36 C20.459,6.58 17.359,3.5 13.569,2.88 C13.019,2.79 12.489,2.75 11.969,2.75 Z"/>
  <path fill="#292D32" d="M13.381,22.61 C13.161,22.61 12.951,22.52 12.811,22.34 C11.791,21.13 11.221,19.59 11.221,18 C11.221,14.28 14.251,11.25 17.971,11.25 C19.561,11.25 21.101,11.81 22.311,12.84 C22.541,13.03 22.631,13.34 22.551,13.62 C22.371,14.24 22.051,14.78 21.591,15.24 L15.211,21.62 C14.751,22.08 14.201,22.4 13.591,22.58 C13.521,22.6 13.451,22.61 13.381,22.61 Z M17.971,12.75 C15.071,12.75 12.721,15.11 12.721,18 C12.721,19.06 13.041,20.09 13.631,20.95 C13.821,20.85 13.991,20.72 14.151,20.56 L20.531,14.18 C20.691,14.02 20.821,13.85 20.921,13.66 C20.061,13.07 19.031,12.75 17.971,12.75 Z"/>
</svg>

