<svg xmlns="http://www.w3.org/2000/svg" width="24" height="24" viewBox="0 0 24 24">
  <defs/>
  <path fill="#292D32" opacity="0.4" d="M22.675,12.938 Q22.637,13.306 22.552,13.611 Q22.469,13.91 22.199,14.063 Q21.928,14.216 21.629,14.132 Q21.47,14.088 21.345,13.982 Q19.888,12.75 17.969,12.75 Q15.798,12.75 14.259,14.289 Q12.72,15.828 12.719,18 Q12.719,19.919 13.952,21.375 Q14.153,21.612 14.127,21.922 Q14.101,22.232 13.864,22.432 Q13.739,22.538 13.58,22.582 Q13.276,22.667 12.908,22.706 Q11.55,22.834 10.086,22.59 Q2.606,21.316 1.37,13.822 Q0.459,8.304 4.367,4.397 Q8.274,0.49 13.792,1.4 Q21.285,2.637 22.559,10.114 Q22.803,11.58 22.676,12.93 Z M21.219,12.074 Q21.227,11.247 21.08,10.366 Q19.986,3.942 13.547,2.88 Q8.79,2.095 5.427,5.458 Q2.065,8.82 2.849,13.578 Q3.912,20.016 10.333,21.11 Q11.218,21.258 12.044,21.25 Q11.219,19.779 11.219,18 Q11.22,15.207 13.198,13.228 Q15.176,11.25 17.969,11.25 Q19.748,11.25 21.219,12.074 Z"/>
  <path fill="#292D32" d="M22.552,13.616 Q22.286,14.545 21.591,15.24 L15.211,21.62 Q14.516,22.316 13.587,22.581 Q13.121,22.714 12.808,22.344 Q11.221,20.468 11.221,18 Q11.221,15.207 13.199,13.228 Q15.178,11.25 17.971,11.25 Q20.439,11.25 22.315,12.837 Q22.685,13.15 22.552,13.616 Z M20.924,13.658 Q19.618,12.75 17.971,12.75 Q15.799,12.75 14.26,14.289 Q12.721,15.828 12.721,18 Q12.721,19.647 13.629,20.953 Q13.911,20.799 14.15,20.56 L20.53,14.18 Q20.77,13.941 20.924,13.658 Z"/>
</svg>

