<svg xmlns="http://www.w3.org/2000/svg" width="24" height="24" viewBox="0 0 24 24">
  <defs/>
  <path fill="#292D32" d="M8,5.75 C7.59,5.75 7.25,5.41 7.25,5 L7.25,2 C7.25,1.59 7.59,1.25 8,1.25 C8.41,1.25 8.75,1.59 8.75,2 L8.75,5 C8.75,5.41 8.41,5.75 8,5.75 Z"/>
  <path fill="#292D32" d="M16,5.75 C15.59,5.75 15.25,5.41 15.25,5 L15.25,2 C15.25,1.59 15.59,1.25 16,1.25 C16.41,1.25 16.75,1.59 16.75,2 L16.75,5 C16.75,5.41 16.41,5.75 16,5.75 Z"/>
  <path fill="#292D32" d="M15,11.75 L7,11.75 C6.59,11.75 6.25,11.41 6.25,11 C6.25,10.59 6.59,10.25 7,10.25 L15,10.25 C15.41,10.25 15.75,10.59 15.75,11 C15.75,11.41 15.41,11.75 15,11.75 Z"/>
  <path fill="#292D32" d="M12,15.75 L7,15.75 C6.59,15.75 6.25,15.41 6.25,15 C6.25,14.59 6.59,14.25 7,14.25 L12,14.25 C12.41,14.25 12.75,14.59 12.75,15 C12.75,15.41 12.41,15.75 12,15.75 Z"/>
  <path fill="#292D32" d="M15,22.75 L9,22.75 C3.38,22.75 2.25,20.1 2.25,15.82 L2.25,9.65 C2.25,4.91 3.85,2.98 7.96,2.75 L16,2.75 C20.15,2.98 21.75,4.91 21.75,9.65 L21.75,16 C21.75,16.41 21.41,16.75 21,16.75 C20.59,16.75 20.25,16.41 20.25,16 L20.25,9.65 C20.25,5.29 18.8,4.41 15.96,4.25 L8,4.25 C5.2,4.41 3.75,5.29 3.75,9.65 L3.75,15.82 C3.75,19.65 4.48,21.25 9,21.25 L15,21.25 C15.41,21.25 15.75,21.59 15.75,22 C15.75,22.41 15.41,22.75 15,22.75 Z"/>
  <path fill="#292D32" d="M15,22.75 C14.9,22.75 14.81,22.73 14.71,22.69 C14.43,22.57 14.25,22.3 14.25,22 L14.25,19 C14.25,16.58 15.58,15.25 18,15.25 L21,15.25 C21.3,15.25 21.58,15.43 21.69,15.71 C21.81,15.99 21.74,16.31 21.53,16.53 L15.53,22.53 C15.39,22.67 15.2,22.75 15,22.75 Z M18,16.75 C16.42,16.75 15.75,17.42 15.75,19 L15.75,20.19 L19.19,16.75 L18,16.75 Z"/>
</svg>

