<svg xmlns="http://www.w3.org/2000/svg" width="24" height="24" viewBox="0 0 24 24">
  <defs/>
  <path fill="#292D32" d="M8.75,2 L8.75,5 Q8.75,5.311 8.53,5.53 Q8.311,5.75 8,5.75 Q7.689,5.75 7.47,5.53 Q7.25,5.311 7.25,5 L7.25,2 Q7.25,1.689 7.47,1.47 Q7.689,1.25 8,1.25 Q8.311,1.25 8.53,1.47 Q8.75,1.689 8.75,2 Z"/>
  <path fill="#292D32" d="M16.75,2 L16.75,5 Q16.75,5.311 16.53,5.53 Q16.311,5.75 16,5.75 Q15.689,5.75 15.47,5.53 Q15.25,5.311 15.25,5 L15.25,2 Q15.25,1.689 15.47,1.47 Q15.689,1.25 16,1.25 Q16.311,1.25 16.53,1.47 Q16.75,1.689 16.75,2 Z"/>
  <path fill="#292D32" d="M7,10.25 L15,10.25 Q15.311,10.25 15.53,10.47 Q15.75,10.689 15.75,11 Q15.75,11.311 15.53,11.53 Q15.311,11.75 15,11.75 L7,11.75 Q6.689,11.75 6.47,11.53 Q6.25,11.311 6.25,11 Q6.25,10.689 6.47,10.47 Q6.689,10.25 7,10.25 Z"/>
  <path fill="#292D32" d="M7,14.25 L12,14.25 Q12.311,14.25 12.53,14.47 Q12.75,14.689 12.75,15 Q12.75,15.311 12.53,15.53 Q12.311,15.75 12,15.75 L7,15.75 Q6.689,15.75 6.47,15.53 Q6.25,15.311 6.25,15 Q6.25,14.689 6.47,14.47 Q6.689,14.25 7,14.25 Z"/>
  <path fill="#292D32" d="M2.25,9.65 Q2.25,3.077 7.957,2.751 Q7.979,2.75 8,2.75 L16,2.75 Q16.02,2.75 16.04,2.751 Q21.75,3.06 21.75,9.65 L21.75,16 Q21.75,16.311 21.53,16.53 Q21.311,16.75 21,16.75 Q20.689,16.75 20.47,16.53 Q20.25,16.311 20.25,16 L20.25,9.65 Q20.25,4.493 15.979,4.25 L8.022,4.25 Q3.75,4.506 3.75,9.65 Q3.75,9.961 3.53,10.18 Q3.311,10.4 3,10.4 Q2.689,10.4 2.47,10.18 Q2.25,9.961 2.25,9.65 Z"/>
  <path fill="#292D32" d="M15,22.75 L9,22.75 Q2.25,22.75 2.25,15.82 L2.25,13.73 Q2.25,13.419 2.47,13.2 Q2.689,12.98 3,12.98 Q3.311,12.98 3.53,13.2 Q3.75,13.419 3.75,13.73 L3.75,15.82 Q3.75,18.855 4.697,19.969 Q5.784,21.25 9,21.25 L15,21.25 Q15.311,21.25 15.53,21.47 Q15.75,21.689 15.75,22 Q15.75,22.311 15.53,22.53 Q15.311,22.75 15,22.75 Z"/>
  <path fill="#292D32" d="M21.53,16.53 L15.53,22.53 Q15.311,22.75 15,22.75 Q14.689,22.75 14.47,22.53 Q14.25,22.311 14.25,22 L14.25,19 Q14.25,15.25 18,15.25 L21,15.25 Q21.311,15.25 21.53,15.47 Q21.75,15.689 21.75,16 Q21.75,16.311 21.53,16.53 Z M19.189,16.75 L18,16.75 Q15.75,16.75 15.75,19 L15.75,20.189 L19.189,16.75 Z"/>
</svg>

