<svg xmlns="http://www.w3.org/2000/svg" width="24" height="24" viewBox="0 0 24 24">
  <defs/>
  <path fill="#292D32" d="M21.959,11.661 C20.77,10.911 19.39,10.501 17.97,10.501 C13.829,10.501 10.47,13.861 10.47,18.001 C10.47,19.421 10.87,20.791 11.62,21.981 C11.159,21.971 10.69,21.921 10.21,21.851 C6.099,21.151 2.789,17.821 2.11,13.701 C0.98,6.851 6.819,1.011 13.669,2.141 C17.79,2.821 21.119,6.131 21.82,10.241 C21.899,10.721 21.95,11.201 21.959,11.661 Z"/>
  <path fill="#292D32" d="M13.381,21.86 C12.501,20.82 11.971,19.47 11.971,18 C11.971,14.69 14.661,12 17.971,12 C19.441,12 20.791,12.53 21.831,13.41"/>
</svg>

