<svg xmlns="http://www.w3.org/2000/svg" width="24" height="24" viewBox="0 0 24 24">
  <defs/>
  <path fill="#292D32" d="M8.289,6.29 C7.869,6.29 7.539,5.95 7.539,5.54 L7.539,2.75 C7.539,2.34 7.869,2 8.289,2 C8.709,2 9.039,2.34 9.039,2.75 L9.039,5.53 C9.039,5.95 8.709,6.29 8.289,6.29 Z"/>
  <path fill="#292D32" d="M15.711,6.29 C15.291,6.29 14.961,5.95 14.961,5.54 L14.961,2.75 C14.961,2.33 15.301,2 15.711,2 C16.131,2 16.461,2.34 16.461,2.75 L16.461,5.53 C16.461,5.95 16.131,6.29 15.711,6.29 Z"/>
  <path fill="#292D32" d="M21.5,15.82 C21.5,15.97 21.45,16.12 21.32,16.25 C19.869,17.71 17.29,20.31 15.809,21.8 C15.68,21.94 15.509,22 15.339,22 C15.009,22 14.69,21.74 14.69,21.36 L14.69,17.86 C14.69,16.4 15.93,15.19 17.45,15.19 C18.399,15.18 19.72,15.18 20.849,15.18 C21.239,15.18 21.5,15.49 21.5,15.82 Z"/>
  <path fill="#292D32" d="M21.5,15.82 C21.5,15.97 21.45,16.12 21.32,16.25 C19.869,17.71 17.29,20.31 15.809,21.8 C15.68,21.94 15.509,22 15.339,22 C15.009,22 14.69,21.74 14.69,21.36 L14.69,17.86 C14.69,16.4 15.93,15.19 17.45,15.19 C18.399,15.18 19.72,15.18 20.849,15.18 C21.239,15.18 21.5,15.49 21.5,15.82 Z"/>
  <path fill="#292D32" d="M19.57,4.5 C18.91,4.01 17.96,4.48 17.96,5.31 L17.96,5.41 C17.96,6.58 17.12,7.66 15.95,7.78 C14.6,7.92 13.46,6.86 13.46,5.54 L13.46,4.5 C13.46,3.95 13.01,3.5 12.46,3.5 L11.54,3.5 C10.99,3.5 10.54,3.95 10.54,4.5 L10.54,5.41 C10.54,6.29 10.07,7.11 9.34,7.51 C9.3,7.54 9.26,7.56 9.22,7.58 C9.21,7.58 9.21,7.59 9.2,7.59 C9.13,7.62 9.06,7.65 8.98,7.68 C8.96,7.69 8.94,7.69 8.92,7.7 C8.8,7.74 8.67,7.77 8.53,7.78 L8.52,7.78 C8.37,7.8 8.21,7.8 8.06,7.78 L8.05,7.78 C7.91,7.77 7.78,7.74 7.66,7.7 C7.56,7.67 7.46,7.63 7.36,7.58 C6.58,7.23 6.04,6.45 6.04,5.54 L6.04,5.31 C6.04,4.54 5.22,4.08 4.57,4.41 C4.56,4.42 4.55,4.42 4.54,4.43 L4.53,4.43 C4.46,4.48 4.4,4.53 4.33,4.58 C4.22,4.67 4.11,4.76 4.01,4.86 C3.94,4.93 3.87,5 3.81,5.07 C3.73,5.15 3.66,5.23 3.59,5.32 C3.54,5.38 3.48,5.44 3.44,5.51 C3.39,5.57 3.35,5.64 3.31,5.7 C3.3,5.71 3.29,5.72 3.28,5.74 C3.19,5.87 3.11,6.02 3.04,6.16 C3.02,6.18 3.01,6.19 3.01,6.21 C2.95,6.33 2.89,6.45 2.85,6.58 C2.82,6.63 2.81,6.67 2.79,6.72 C2.77,6.76 2.76,6.81 2.74,6.85 C2.71,6.95 2.68,7.06 2.65,7.17 C2.61,7.31 2.58,7.46 2.56,7.61 C2.54,7.72 2.53,7.83 2.52,7.95 C2.51,8.09 2.5,8.23 2.5,8.37 L2.5,17.13 C2.5,19.82 4.68,22 7.37,22 L12.19,22 C12.74,22 13.19,21.55 13.19,21 L13.19,17.86 C13.19,15.56 15.1,13.69 17.45,13.69 C17.98,13.68 19.27,13.68 20.5,13.68 C21.05,13.68 21.5,13.23 21.5,12.68 L21.5,8.37 C21.5,6.78 20.74,5.39 19.57,4.5 Z M11.13,15.91 C11.04,16.21 10.76,16.42 10.43,16.42 L6.79,16.42 C6.74,16.42 6.7,16.42 6.66,16.4 C6.3,16.35 6.04,16.04 6.04,15.67 C6.04,15.25 6.37,14.91 6.79,14.91 L10.43,14.91 C10.84,14.91 11.18,15.25 11.18,15.67 C11.18,15.75 11.17,15.84 11.13,15.91 Z M13.91,12.2 C13.82,12.5 13.54,12.71 13.21,12.71 L6.79,12.71 C6.74,12.71 6.7,12.71 6.66,12.69 C6.3,12.64 6.04,12.33 6.04,11.96 C6.04,11.54 6.37,11.2 6.79,11.2 L13.21,11.2 C13.63,11.2 13.96,11.54 13.96,11.96 C13.96,12.04 13.95,12.13 13.91,12.2 Z"/>
</svg>

