<svg xmlns="http://www.w3.org/2000/svg" width="24" height="24" viewBox="0 0 24 24">
  <defs/>
  <path fill="#292D32" opacity="0.4" d="M21.93,12.86 C21.91,13.05 21.88,13.23 21.829,13.41 C20.79,12.53 19.439,12 17.97,12 C14.659,12 11.97,14.69 11.97,18 C11.97,19.47 12.499,20.82 13.38,21.86 C13.2,21.91 13.02,21.94 12.829,21.96 C11.979,22.04 11.11,22 10.21,21.85 C6.099,21.15 2.789,17.82 2.11,13.7 C0.98,6.85 6.819,1.01 13.669,2.14 C17.79,2.82 21.119,6.13 21.82,10.24 C21.97,11.14 22.009,12.01 21.93,12.86 Z"/>
  <path fill="#292D32" d="M21.831,13.41 C21.691,13.9 21.431,14.34 21.061,14.71 L14.681,21.09 C14.311,21.46 13.871,21.72 13.381,21.86 C12.501,20.82 11.971,19.47 11.971,18 C11.971,14.69 14.661,12 17.971,12 C19.441,12 20.791,12.53 21.831,13.41 Z"/>
</svg>

