<svg xmlns="http://www.w3.org/2000/svg" width="24" height="24" viewBox="0 0 24 24">
  <defs/>
  <path fill="#292D32" d="M15.479,13.27 L15.479,10.73 Q15.479,9.453 15.011,8.986 Q14.544,8.52 13.27,8.52 L10.729,8.52 Q8.52,8.52 8.52,10.73 L8.52,13.27 Q8.52,15.48 10.729,15.48 L12.509,15.48 Q12.82,15.48 13.04,15.7 Q13.259,15.919 13.259,16.23 Q13.259,16.541 13.04,16.76 Q12.82,16.98 12.509,16.98 L10.729,16.98 Q8.835,16.98 7.929,16.076 Q7.02,15.169 7.02,13.27 L7.02,10.73 Q7.02,8.835 7.923,7.929 Q8.83,7.02 10.729,7.02 L13.27,7.02 Q16.979,7.02 16.979,10.73 L16.979,13.27 Q16.979,13.581 16.76,13.8 Q16.54,14.02 16.229,14.02 Q15.919,14.02 15.699,13.8 Q15.479,13.581 15.479,13.27 Z"/>
  <path fill="#292D32" d="M4.6,6.449 Q2.75,8.922 2.75,12 Q2.75,15.829 5.46,18.54 Q8.171,21.25 12,21.25 Q15.829,21.25 18.54,18.54 Q21.25,15.829 21.25,12 Q21.25,8.171 18.54,5.46 Q15.829,2.75 12,2.75 Q10.031,2.75 8.276,3.535 Q7.993,3.661 7.702,3.551 Q7.412,3.44 7.285,3.156 Q7.159,2.873 7.269,2.582 Q7.38,2.292 7.664,2.165 Q9.711,1.25 12,1.25 Q16.451,1.25 19.6,4.4 Q22.75,7.549 22.75,12 Q22.75,16.451 19.6,19.6 Q16.451,22.75 12,22.75 Q7.549,22.75 4.4,19.6 Q1.25,16.451 1.25,12 Q1.25,8.422 3.4,5.551 Q3.586,5.302 3.893,5.258 Q4.201,5.213 4.449,5.4 Q4.698,5.586 4.742,5.893 Q4.787,6.201 4.6,6.449 Z"/>
</svg>

