<svg xmlns="http://www.w3.org/2000/svg" width="24" height="24" viewBox="0 0 24 24">
  <defs/>
  <path fill="#292D32" d="M2.25,9.3 Q2.25,2.25 9.3,2.25 L14.7,2.25 Q18.386,2.25 20.068,3.932 Q21.75,5.614 21.75,9.3 L21.75,14.7 Q21.75,18.386 20.068,20.068 Q18.386,21.75 14.7,21.75 L9.3,21.75 Q2.25,21.75 2.25,14.7 L2.25,13.99 Q2.25,13.679 2.47,13.46 Q2.689,13.24 3,13.24 Q3.311,13.24 3.53,13.46 Q3.75,13.679 3.75,13.99 L3.75,14.7 Q3.75,20.25 9.3,20.25 L14.7,20.25 Q20.25,20.25 20.25,14.7 L20.25,9.3 Q20.25,3.75 14.7,3.75 L9.3,3.75 Q3.75,3.75 3.75,9.3 Q3.75,9.611 3.53,9.83 Q3.311,10.05 3,10.05 Q2.689,10.05 2.47,9.83 Q2.25,9.611 2.25,9.3 Z"/>
</svg>

