<svg xmlns="http://www.w3.org/2000/svg" width="24" height="24" viewBox="0 0 24 24">
  <defs/>
  <path fill="#292D32" d="M14.7,21.75 L9.3,21.75 C4.36,21.75 2.25,19.64 2.25,14.7 L2.25,9.3 C2.25,4.36 4.36,2.25 9.3,2.25 L14.7,2.25 C19.64,2.25 21.75,4.36 21.75,9.3 L21.75,14.7 C21.75,19.64 19.64,21.75 14.7,21.75 Z M9.3,3.75 C5.2,3.75 3.75,5.2 3.75,9.3 L3.75,14.7 C3.75,18.8 5.2,20.25 9.3,20.25 L14.7,20.25 C18.8,20.25 20.25,18.8 20.25,14.7 L20.25,9.3 C20.25,5.2 18.8,3.75 14.7,3.75 L9.3,3.75 Z"/>
</svg>

