<svg xmlns="http://www.w3.org/2000/svg" width="24" height="24" viewBox="0 0 24 24">
  <defs/>
  <path fill="#292D32" d="M20.9,7.66 L20.12,8.13 L19.63,8.43 L18.7,8.98 L4.76,17.34 L4.67,17.39 L4.14,17.71 L3.53,18.08 C3.17,17.19 3,16.07 3,14.7 L3,9.3 C3,4.8 4.8,3 9.3,3 L14.7,3 C18.61,3 20.48,4.36 20.9,7.66 Z"/>
  <path fill="#292D32" opacity="0.4" d="M21,9.2 L21,14.7 C21,19.2 19.201,21 14.7,21 L9.3,21 C6.86,21 5.21,20.47 4.23,19.26 L4.53,19.08 L5.14,18.71 L5.67,18.39 L5.76,18.34 L19.701,9.98 L20.631,9.43 L21,9.2 Z"/>
</svg>

