<svg xmlns="http://www.w3.org/2000/svg" width="24" height="24" viewBox="0 0 24 24">
  <defs/>
  <path fill="#292D32" opacity="0.4" d="M11.971,22 C17.494,22 21.971,17.523 21.971,12 C21.971,6.477 17.494,2 11.971,2 C6.448,2 1.971,6.477 1.971,12 C1.971,17.523 6.448,22 11.971,22 Z"/>
  <path fill="#292D32" d="M10.77,16.23 L13.229,16.23 C14.889,16.23 16.23,14.89 16.23,13.23 L16.23,10.77 C16.23,9.11 14.889,7.77 13.229,7.77 L10.77,7.77 C9.11,7.77 7.77,9.11 7.77,10.77 L7.77,13.23 C7.77,14.89 9.11,16.23 10.77,16.23 Z"/>
</svg>

