<svg xmlns="http://www.w3.org/2000/svg" width="24" height="24" viewBox="0 0 24 24">
  <defs/>
  <path fill="#292D32" d="M20.36,7.78 L4.54,17.28 C3.93,17.65 3.11,17.28 3.03,16.57 C3.01,16.38 3,16.19 3,16 L3,8 C3,5 5,3 8,3 L16,3 C19,3 20.23,4.54 20.81,6.65 C20.93,7.09 20.74,7.55 20.36,7.78 Z"/>
  <path fill="#292D32" d="M20.999,11.09 L20.999,16 C20.999,19 18.999,21 15.999,21 L7.999,21 C7.079,21 6.209,20.75 5.469,20.31 C4.829,19.94 4.869,19 5.499,18.62 L19.479,10.23 C20.149,9.83 20.999,10.31 20.999,11.09 Z"/>
</svg>

