<svg xmlns="http://www.w3.org/2000/svg" width="24" height="24" viewBox="0 0 24 24">
  <defs/>
  <path fill="#292D32" d="M11.971,22.75 C6.051,22.75 1.221,17.93 1.221,12 C1.221,6.07 6.051,1.25 11.971,1.25 C17.891,1.25 22.721,6.07 22.721,12 C22.721,17.93 17.901,22.75 11.971,22.75 Z M11.971,2.75 C6.871,2.75 2.721,6.9 2.721,12 C2.721,17.1 6.871,21.25 11.971,21.25 C17.071,21.25 21.221,17.1 21.221,12 C21.221,6.9 17.071,2.75 11.971,2.75 Z"/>
  <path fill="#292D32" d="M13.27,16.98 L10.729,16.98 C8.2,16.98 7.02,15.8 7.02,13.27 L7.02,10.73 C7.02,8.2 8.2,7.02 10.729,7.02 L13.27,7.02 C15.8,7.02 16.98,8.2 16.98,10.73 L16.98,13.27 C16.98,15.8 15.8,16.98 13.27,16.98 Z M10.729,8.52 C9.04,8.52 8.52,9.04 8.52,10.73 L8.52,13.27 C8.52,14.96 9.04,15.48 10.729,15.48 L13.27,15.48 C14.96,15.48 15.479,14.96 15.479,13.27 L15.479,10.73 C15.479,9.04 14.96,8.52 13.27,8.52 L10.729,8.52 Z"/>
</svg>

