<svg xmlns="http://www.w3.org/2000/svg" width="24" height="24" viewBox="0 0 24 24">
  <defs/>
  <path fill="#292D32" d="M16.95,7.42 Q19,9.469 19,12.37 Q19,15.271 16.95,17.32 Q14.901,19.37 12,19.37 Q9.099,19.37 7.05,17.32 Q5,15.271 5,12.37 Q5,9.469 7.05,7.42 Q9.379,5.091 12.671,5.403 Q12.98,5.433 13.178,5.672 Q13.376,5.912 13.347,6.221 Q13.317,6.53 13.078,6.728 Q12.838,6.926 12.529,6.897 Q9.94,6.651 8.11,8.48 Q6.5,10.091 6.5,12.37 Q6.5,14.649 8.11,16.26 Q9.721,17.87 12,17.87 Q14.279,17.87 15.89,16.26 Q17.5,14.649 17.5,12.37 Q17.5,10.091 15.89,8.48 Q15.67,8.261 15.67,7.95 Q15.67,7.639 15.89,7.42 Q16.109,7.2 16.42,7.2 Q16.731,7.2 16.95,7.42 Z"/>
  <path fill="#292D32" d="M7.972,22.336 Q4.544,20.965 2.691,17.755 Q0.883,14.629 1.347,11.034 Q1.387,10.726 1.633,10.536 Q1.879,10.346 2.187,10.386 Q2.495,10.426 2.685,10.672 Q2.875,10.918 2.835,11.226 Q2.435,14.318 3.991,17.005 Q5.583,19.765 8.53,20.944 Q8.818,21.059 8.94,21.344 Q9.063,21.63 8.947,21.918 Q8.832,22.207 8.546,22.329 Q8.261,22.452 7.972,22.336 Z"/>
  <path fill="#292D32" d="M5.387,3.889 Q8.301,1.61 12,1.61 Q15.602,1.61 18.494,3.813 Q18.741,4.002 18.783,4.309 Q18.824,4.617 18.636,4.864 Q18.448,5.111 18.14,5.153 Q17.832,5.195 17.585,5.006 Q15.096,3.11 12,3.11 Q8.818,3.11 6.312,5.071 Q6.067,5.262 5.759,5.224 Q5.45,5.187 5.259,4.942 Q5.067,4.697 5.105,4.389 Q5.143,4.081 5.387,3.889 Z"/>
  <path fill="#292D32" d="M15.471,20.944 Q18.418,19.765 20.01,17.005 Q21.566,14.318 21.166,11.226 Q21.126,10.918 21.316,10.672 Q21.506,10.426 21.814,10.386 Q22.122,10.346 22.368,10.536 Q22.614,10.726 22.654,11.034 Q23.118,14.629 21.31,17.755 Q19.457,20.965 16.029,22.336 Q15.74,22.452 15.455,22.329 Q15.169,22.207 15.054,21.918 Q14.938,21.63 15.061,21.344 Q15.183,21.059 15.471,20.944 Z"/>
</svg>

