<svg xmlns="http://www.w3.org/2000/svg" width="24" height="24" viewBox="0 0 24 24">
  <defs/>
  <path fill="#292D32" d="M16.42,7.95 C18.86,10.39 18.86,14.35 16.42,16.79 C13.98,19.23 10.02,19.23 7.58,16.79 C5.14,14.35 5.14,10.39 7.58,7.95 C10.02,5.51 13.98,5.51 16.42,7.95 Z"/>
  <path fill="#292D32" opacity="0.4" d="M8.249,22.39 C8.159,22.39 8.059,22.37 7.969,22.34 C5.719,21.44 3.899,19.85 2.679,17.75 C1.499,15.7 1.029,13.38 1.339,11.02 C1.389,10.61 1.779,10.32 2.179,10.37 C2.589,10.42 2.879,10.8 2.829,11.21 C2.569,13.23 2.969,15.23 3.979,16.99 C5.019,18.79 6.589,20.16 8.519,20.93 C8.899,21.09 9.089,21.52 8.939,21.91 C8.829,22.21 8.539,22.39 8.249,22.39 Z"/>
  <path fill="#292D32" opacity="0.4" d="M5.85,5.23 C5.63,5.23 5.41,5.13 5.26,4.94 C5,4.61 5.06,4.14 5.39,3.89 C7.3,2.4 9.58,1.61 12,1.61 C14.36,1.61 16.61,2.37 18.5,3.81 C18.83,4.06 18.89,4.53 18.64,4.86 C18.39,5.19 17.92,5.25 17.59,5 C15.97,3.76 14.04,3.11 12,3.11 C9.92,3.11 7.95,3.79 6.31,5.07 C6.17,5.18 6.01,5.23 5.85,5.23 Z"/>
  <path fill="#292D32" opacity="0.4" d="M15.751,22.39 C15.451,22.39 15.171,22.21 15.051,21.92 C14.901,21.54 15.081,21.1 15.471,20.94 C17.401,20.16 18.971,18.8 20.011,17 C21.031,15.24 21.431,13.24 21.161,11.22 C21.111,10.81 21.401,10.43 21.811,10.38 C22.211,10.33 22.601,10.62 22.651,11.03 C22.951,13.38 22.491,15.71 21.311,17.76 C20.101,19.86 18.271,21.44 16.021,22.35 C15.941,22.37 15.851,22.39 15.751,22.39 Z"/>
</svg>

