<svg xmlns="http://www.w3.org/2000/svg" width="24" height="24" viewBox="0 0 24 24">
  <defs/>
  <path fill="#292D32" d="M16.19,2 L7.81,2 C4.17,2 2,4.17 2,7.81 L2,16.18 C2,19.83 4.17,22 7.81,22 L16.18,22 C19.82,22 21.99,19.83 21.99,16.19 L21.99,7.81 C22,4.17 19.83,2 16.19,2 Z M19,8.24 C19,8.79 18.55,9.24 18,9.24 L16,9.24 C15.59,9.24 15.25,9.58 15.25,9.99 C15.25,10.41 15.59,10.74 16,10.74 L18,10.74 C18.55,10.74 19,11.19 19,11.74 L19,12.25 C19,12.8 18.55,13.25 18,13.25 L16,13.25 C15.59,13.25 15.25,13.59 15.25,14 C15.25,14.41 15.59,14.75 16,14.75 L18,14.75 C18.55,14.75 19,15.2 19,15.75 L19,16 C19,17.66 17.66,19 16,19 L8,19 C6.34,19 5,17.66 5,16 L5,15.5 C5,14.95 5.45,14.5 6,14.5 L7.48,14.5 C8.95,14.5 10.12,13.24 9.97,11.74 C9.84,10.44 8.65,9.5 7.34,9.5 L6,9.5 C5.45,9.5 5,9.05 5,8.5 L5,8 C5,6.34 6.34,5 8,5 L16,5 C17.66,5 19,6.34 19,8 L19,8.24 Z M5,12 C5,11.45 5.45,11 6,11 L7,11 C7.55,11 8,11.45 8,12 C8,12.55 7.55,13 7,13 L6,13 C5.45,13 5,12.55 5,12 Z"/>
</svg>

