<svg xmlns="http://www.w3.org/2000/svg" width="24" height="24" viewBox="0 0 24 24">
  <defs/>
  <path fill="#292D32" d="M15,22.75 L9,22.75 C3.57,22.75 1.25,20.43 1.25,15 L1.25,9 C1.25,3.57 3.57,1.25 9,1.25 L15,1.25 C20.43,1.25 22.75,3.57 22.75,9 L22.75,15 C22.75,20.43 20.43,22.75 15,22.75 Z M9,2.75 C4.39,2.75 2.75,4.39 2.75,9 L2.75,15 C2.75,19.61 4.39,21.25 9,21.25 L15,21.25 C19.61,21.25 21.25,19.61 21.25,15 L21.25,9 C21.25,4.39 19.61,2.75 15,2.75 L9,2.75 Z"/>
  <path fill="#292D32" d="M16,19.75 L8,19.75 C5.58,19.75 4.25,18.42 4.25,16 L4.25,8 C4.25,5.58 5.58,4.25 8,4.25 L16,4.25 C18.42,4.25 19.75,5.58 19.75,8 L19.75,16 C19.75,18.42 18.42,19.75 16,19.75 Z M8,5.75 C6.42,5.75 5.75,6.42 5.75,8 L5.75,16 C5.75,17.58 6.42,18.25 8,18.25 L16,18.25 C17.58,18.25 18.25,17.58 18.25,16 L18.25,8 C18.25,6.42 17.58,5.75 16,5.75 L8,5.75 Z"/>
  <path fill="#292D32" d="M7.48,15.25 L5,15.25 C4.59,15.25 4.25,14.91 4.25,14.5 C4.25,14.09 4.59,13.75 5,13.75 L7.48,13.75 C8.45,13.75 9.23,12.96 9.23,12 C9.23,11.04 8.44,10.25 7.48,10.25 L5,10.25 C4.59,10.25 4.25,9.91 4.25,9.5 C4.25,9.09 4.59,8.75 5,8.75 L7.48,8.75 C9.27,8.75 10.73,10.21 10.73,12 C10.73,13.79 9.28,15.25 7.48,15.25 Z"/>
  <path fill="#292D32" d="M19,10.74 L16,10.74 C15.59,10.74 15.25,10.4 15.25,9.99 C15.25,9.58 15.59,9.24 16,9.24 L19,9.24 C19.41,9.24 19.75,9.58 19.75,9.99 C19.75,10.4 19.41,10.74 19,10.74 Z"/>
  <path fill="#292D32" d="M19,14.75 L16,14.75 C15.59,14.75 15.25,14.41 15.25,14 C15.25,13.59 15.59,13.25 16,13.25 L19,13.25 C19.41,13.25 19.75,13.59 19.75,14 C19.75,14.41 19.41,14.75 19,14.75 Z"/>
  <path fill="#292D32" d="M7.25,13 C7.12,13 6.99,12.97 6.87,12.92 C6.75,12.87 6.64,12.8 6.54,12.71 C6.35,12.52 6.25,12.27 6.25,12 C6.25,11.74 6.36,11.48 6.54,11.29 C6.82,11.02 7.26,10.92 7.63,11.08 C7.76,11.13 7.87,11.2 7.96,11.29 C8.14,11.48 8.25,11.74 8.25,12 C8.25,12.27 8.15,12.52 7.96,12.71 C7.86,12.8 7.75,12.87 7.63,12.92 C7.51,12.97 7.38,13 7.25,13 Z"/>
</svg>

