<svg xmlns="http://www.w3.org/2000/svg" width="24" height="24" viewBox="0 0 24 24">
  <defs/>
  <path fill="#292D32" d="M13.25,12.58 L13.25,14.56 C13.25,15.25 12.69,15.81 12,15.81 C11.31,15.81 10.75,15.25 10.75,14.56 L10.75,12.58 C10.39,12.36 10.11,12.04 9.91,11.66 L3,11.66 C2.45,11.66 2,12.11 2,12.66 L2,16.19 C2,19.4 4.6,22 7.81,22 L16.18,22 C19.4,22 22,19.4 22,16.19 L22,12.66 C22,12.11 21.55,11.66 21,11.66 L14.09,11.66 C13.89,12.04 13.61,12.36 13.25,12.58 Z"/>
  <path fill="#292D32" d="M16.19,2 L7.81,2 C4.6,2 2,4.6 2,7.81 L2,9.16 C2,9.71 2.45,10.16 3,10.16 L9.67,10.16 C9.9,8.84 11.21,7.9 12.64,8.28 C13.44,8.49 14.09,9.14 14.3,9.94 C14.32,10.01 14.32,10.09 14.33,10.16 L21,10.16 C21.55,10.16 22,9.71 22,9.16 L22,7.81 C22,4.6 19.4,2 16.19,2 Z"/>
</svg>

