<svg xmlns="http://www.w3.org/2000/svg" width="24" height="24" viewBox="0 0 24 24">
  <defs/>
  <path fill="#292D32" opacity="0.4" d="M16.19,2 L7.82,2 C4.18,2 2.01,4.17 2.01,7.81 L2.01,16.18 C2.01,19.82 4.18,21.99 7.82,21.99 L16.19,21.99 C19.83,21.99 22,19.82 22,16.18 L22,7.81 C22,4.17 19.83,2 16.19,2 Z"/>
  <path fill="#292D32" d="M16,9.24 L18,9.24 C18.55,9.24 19,8.79 19,8.24 L19,8 C19,6.34 17.66,5 16,5 L8,5 C6.34,5 5,6.34 5,8 L5,8.5 C5,9.05 5.45,9.5 6,9.5 L7.34,9.5 C8.65,9.5 9.84,10.44 9.97,11.75 C10.12,13.25 8.95,14.51 7.48,14.51 L6,14.51 C5.45,14.51 5,14.96 5,15.51 L5,16.01 C5,17.67 6.34,19.01 8,19.01 L16,19.01 C17.66,19.01 19,17.67 19,16.01 L19,15.76 C19,15.21 18.55,14.76 18,14.76 L16,14.76 C15.59,14.76 15.25,14.42 15.25,14.01 C15.25,13.6 15.59,13.26 16,13.26 L18,13.26 C18.55,13.26 19,12.81 19,12.26 L19,11.75 C19,11.2 18.55,10.75 18,10.75 L16,10.75 C15.59,10.75 15.25,10.42 15.25,10 C15.25,9.58 15.59,9.24 16,9.24 Z"/>
  <path fill="#292D32" d="M7,13 L6,13 C5.45,13 5,12.55 5,12 C5,11.45 5.45,11 6,11 L7,11 C7.55,11 8,11.45 8,12 C8,12.55 7.55,13 7,13 Z"/>
</svg>

