<svg xmlns="http://www.w3.org/2000/svg" width="24" height="24" viewBox="0 0 24 24">
  <defs/>
  <path fill="#292D32" d="M9,22.75 Q1.25,22.75 1.25,15 L1.25,9 Q1.25,1.25 9,1.25 L15,1.25 Q22.75,1.25 22.75,9 L22.75,15 Q22.75,22.75 15,22.75 Z M9,21.25 L15,21.25 Q18.439,21.25 19.845,19.845 Q21.25,18.439 21.25,15 L21.25,9 Q21.25,2.75 15,2.75 L9,2.75 Q2.75,2.75 2.75,9 L2.75,15 Q2.75,18.439 4.155,19.845 Q5.561,21.25 9,21.25 Z"/>
  <g opacity="0.4">
    <path fill="#292D32" d="M8,19.75 Q4.25,19.75 4.25,16 L4.25,8 Q4.25,4.25 8,4.25 L16,4.25 Q19.75,4.25 19.75,8 L19.75,16 Q19.75,19.75 16,19.75 Z M8,18.25 L16,18.25 Q18.25,18.25 18.25,16 L18.25,8 Q18.25,5.75 16,5.75 L8,5.75 Q5.75,5.75 5.75,8 L5.75,16 Q5.75,18.25 8,18.25 Z"/>
    <path fill="#292D32" d="M5,8.75 L7.48,8.75 Q8.826,8.75 9.778,9.702 Q10.73,10.654 10.73,12 Q10.73,13.346 9.778,14.298 Q8.826,15.25 7.48,15.25 L5,15.25 Q4.689,15.25 4.47,15.03 Q4.25,14.811 4.25,14.5 Q4.25,14.189 4.47,13.97 Q4.689,13.75 5,13.75 L7.48,13.75 Q9.23,13.75 9.23,12 Q9.23,10.25 7.48,10.25 L5,10.25 Q4.689,10.25 4.47,10.03 Q4.25,9.811 4.25,9.5 Q4.25,9.189 4.47,8.97 Q4.689,8.75 5,8.75 Z"/>
    <path fill="#292D32" d="M19,10.74 L16,10.74 Q15.689,10.74 15.47,10.521 Q15.25,10.301 15.25,9.99 Q15.25,9.68 15.47,9.46 Q15.689,9.24 16,9.24 L19,9.24 Q19.311,9.24 19.53,9.46 Q19.75,9.68 19.75,9.99 Q19.75,10.301 19.53,10.521 Q19.311,10.74 19,10.74 Z"/>
    <path fill="#292D32" d="M19,14.75 L16,14.75 Q15.689,14.75 15.47,14.53 Q15.25,14.311 15.25,14 Q15.25,13.689 15.47,13.47 Q15.689,13.25 16,13.25 L19,13.25 Q19.311,13.25 19.53,13.47 Q19.75,13.689 19.75,14 Q19.75,14.311 19.53,14.53 Q19.311,14.75 19,14.75 Z"/>
  </g>
  <path fill="#292D32" opacity="0.4" d="M7.199,11 L7.299,11 Q7.713,11 8.006,11.293 Q8.299,11.586 8.299,12 Q8.299,12.414 8.006,12.707 Q7.713,13 7.299,13 L7.199,13 Q6.785,13 6.492,12.707 Q6.199,12.414 6.199,12 Q6.199,11.586 6.492,11.293 Q6.785,11 7.199,11 Z"/>
</svg>

