<svg xmlns="http://www.w3.org/2000/svg" width="24" height="24" viewBox="0 0 24 24">
  <defs/>
  <path fill="#292D32" d="M9,22.75 Q1.25,22.75 1.25,15 L1.25,9 Q1.25,1.25 9,1.25 L15,1.25 Q22.75,1.25 22.75,9 L22.75,15 Q22.75,22.75 15,22.75 Z M9,21.25 L15,21.25 Q18.439,21.25 19.845,19.845 Q21.25,18.439 21.25,15 L21.25,9 Q21.25,2.75 15,2.75 L9,2.75 Q2.75,2.75 2.75,9 L2.75,15 Q2.75,18.439 4.155,19.845 Q5.561,21.25 9,21.25 Z"/>
  <path fill="#292D32" d="M15.093,11.022 Q14.92,12.229 14.001,12.967 L14.001,14.56 Q14.001,16.56 12.001,16.56 Q11.173,16.56 10.587,15.974 Q10.001,15.388 10.001,14.56 L10.001,12.967 Q9.085,12.231 8.91,11.029 Q8.871,10.804 8.871,10.56 Q8.871,9.037 10.079,8.1 Q11.305,7.149 12.834,7.555 Q14.57,8.011 15.027,9.75 Q15.196,10.371 15.093,11.022 Z M13.611,10.791 Q13.665,10.457 13.576,10.131 Q13.342,9.239 12.448,9.005 Q11.637,8.789 10.998,9.285 Q10.371,9.772 10.371,10.56 Q10.371,10.677 10.389,10.776 L10.392,10.791 L10.394,10.805 Q10.497,11.54 11.147,11.943 L11.501,12.163 L11.501,14.56 Q11.501,15.06 12.001,15.06 Q12.208,15.06 12.355,14.914 Q12.501,14.767 12.501,14.56 L12.501,12.163 L12.856,11.943 Q13.505,11.54 13.608,10.805 Z"/>
  <path fill="#292D32" d="M22.002,11.66 L14.352,11.66 L14.352,10.16 L22.002,10.16 L22.002,11.66 Z"/>
  <path fill="#292D32" d="M9.65,11.66 L2,11.66 L2,10.16 L9.65,10.16 L9.65,11.66 Z"/>
</svg>

