<svg xmlns="http://www.w3.org/2000/svg" width="24" height="24" viewBox="0 0 24 24">
  <defs/>
  <path fill="#292D32" d="M15,22.75 L9,22.75 C3.57,22.75 1.25,20.43 1.25,15 L1.25,9 C1.25,3.57 3.57,1.25 9,1.25 L15,1.25 C20.43,1.25 22.75,3.57 22.75,9 L22.75,15 C22.75,20.43 20.43,22.75 15,22.75 Z M9,2.75 C4.39,2.75 2.75,4.39 2.75,9 L2.75,15 C2.75,19.61 4.39,21.25 9,21.25 L15,21.25 C19.61,21.25 21.25,19.61 21.25,15 L21.25,9 C21.25,4.39 19.61,2.75 15,2.75 L9,2.75 Z"/>
  <path fill="#292D32" d="M12.001,16.56 C10.901,16.56 10.001,15.66 10.001,14.56 L10.001,12.96 C9.411,12.47 9.011,11.78 8.911,11.01 C8.891,10.89 8.871,10.72 8.871,10.56 C8.871,9.59 9.311,8.69 10.091,8.09 C10.871,7.49 11.871,7.3 12.831,7.55 C13.881,7.83 14.751,8.69 15.021,9.74 C15.131,10.15 15.161,10.58 15.091,11.01 C14.981,11.77 14.591,12.46 14.001,12.95 L14.001,14.55 C14.001,15.66 13.101,16.56 12.001,16.56 Z M11.991,8.94 C11.631,8.94 11.291,9.05 11.001,9.28 C10.601,9.59 10.371,10.06 10.371,10.56 C10.371,10.63 10.371,10.71 10.391,10.77 C10.461,11.27 10.731,11.68 11.151,11.94 L11.501,12.16 L11.501,14.56 C11.501,14.84 11.721,15.06 12.001,15.06 C12.281,15.06 12.501,14.84 12.501,14.56 L12.501,12.16 L12.851,11.94 C13.261,11.68 13.541,11.27 13.601,10.8 L13.601,10.78 C13.641,10.56 13.631,10.34 13.571,10.13 C13.431,9.58 12.981,9.14 12.441,9 C12.291,8.96 12.141,8.94 11.991,8.94 Z"/>
  <path fill="#292D32" d="M22,10.16 L14.35,10.16 L14.35,11.66 L22,11.66 L22,10.16 Z"/>
  <path fill="#292D32" d="M9.65,10.16 L2,10.16 L2,11.66 L9.65,11.66 L9.65,10.16 Z"/>
</svg>

