<svg xmlns="http://www.w3.org/2000/svg" width="24" height="24" viewBox="0 0 24 24">
  <defs/>
  <path fill="#292D32" opacity="0.4" d="M16.19,2 L7.82,2 C4.18,2 2.01,4.17 2.01,7.81 L2.01,16.18 C2.01,19.82 4.18,21.99 7.82,21.99 L16.19,21.99 C19.83,21.99 22,19.82 22,16.18 L22,7.81 C22,4.17 19.83,2 16.19,2 Z"/>
  <path fill="#292D32" d="M22,10.16 L14.33,10.16 C14.32,10.09 14.32,10.01 14.3,9.94 C14.09,9.14 13.44,8.49 12.64,8.28 C11.2,7.9 9.89,8.84 9.67,10.16 L2,10.16 L2,11.66 L9.91,11.66 C10.11,12.04 10.39,12.36 10.75,12.58 L10.75,14.56 C10.75,15.25 11.31,15.81 12,15.81 C12.69,15.81 13.25,15.25 13.25,14.56 L13.25,12.58 C13.61,12.36 13.89,12.04 14.09,11.66 L22,11.66 L22,10.16 Z"/>
</svg>

