<svg xmlns="http://www.w3.org/2000/svg" width="24" height="24" viewBox="0 0 24 24">
  <defs/>
  <path fill="#292D32" d="M2.75,15 Q2.75,18.439 4.155,19.845 Q5.561,21.25 9,21.25 L15,21.25 Q18.439,21.25 19.845,19.845 Q21.25,18.439 21.25,15 L21.25,9 Q21.25,2.75 15,2.75 L9,2.75 Q2.75,2.75 2.75,9 L2.75,10.16 L9.65,10.16 Q9.961,10.16 10.18,10.38 Q10.4,10.599 10.4,10.91 Q10.4,11.221 10.18,11.44 Q9.961,11.66 9.65,11.66 L2,11.66 Q1.689,11.66 1.47,11.44 Q1.25,11.221 1.25,10.91 L1.25,9 Q1.25,1.25 9,1.25 L15,1.25 Q22.75,1.25 22.75,9 L22.75,15 Q22.75,22.75 15,22.75 L9,22.75 Q1.25,22.75 1.25,15 Q1.25,14.689 1.47,14.47 Q1.689,14.25 2,14.25 Q2.311,14.25 2.53,14.47 Q2.75,14.689 2.75,15 Z"/>
  <path fill="#292D32" d="M15.091,11.022 Q14.918,12.229 13.999,12.967 L13.999,14.56 Q13.999,15.388 13.413,15.974 Q12.827,16.56 11.999,16.56 Q11.171,16.56 10.585,15.974 Q9.999,15.388 9.999,14.56 L9.999,12.967 Q9.083,12.231 8.909,11.029 Q8.869,10.804 8.869,10.56 Q8.869,9.037 10.077,8.1 Q11.303,7.149 12.832,7.555 Q14.568,8.011 15.025,9.75 Q15.194,10.372 15.091,11.022 Z M13.609,10.791 Q13.663,10.457 13.574,10.131 Q13.34,9.239 12.447,9.005 Q11.636,8.789 10.996,9.285 Q10.369,9.772 10.369,10.56 Q10.369,10.677 10.387,10.776 L10.39,10.791 L10.392,10.805 Q10.495,11.54 11.145,11.943 L11.499,12.163 L11.499,14.56 Q11.499,15.06 11.999,15.06 Q12.206,15.06 12.353,14.914 Q12.499,14.767 12.499,14.56 L12.499,12.163 L12.854,11.943 Q13.503,11.54 13.607,10.805 Z"/>
  <path fill="#292D32" d="M18,11.66 L14.35,11.66 Q14.039,11.66 13.819,11.44 Q13.6,11.221 13.6,10.91 Q13.6,10.599 13.819,10.38 Q14.039,10.16 14.35,10.16 L18,10.16 Q18.31,10.16 18.53,10.38 Q18.75,10.599 18.75,10.91 Q18.75,11.221 18.53,11.44 Q18.31,11.66 18,11.66 Z"/>
</svg>

