<svg xmlns="http://www.w3.org/2000/svg" width="24" height="24" viewBox="0 0 24 24">
  <defs/>
  <path fill="#292D32" d="M15,22.75 L9,22.75 C3.57,22.75 1.25,20.43 1.25,15 L1.25,9 C1.25,3.57 3.57,1.25 9,1.25 L15,1.25 C20.43,1.25 22.75,3.57 22.75,9 L22.75,15 C22.75,20.43 20.43,22.75 15,22.75 Z M9,2.75 C4.39,2.75 2.75,4.39 2.75,9 L2.75,15 C2.75,19.61 4.39,21.25 9,21.25 L15,21.25 C19.61,21.25 21.25,19.61 21.25,15 L21.25,9 C21.25,4.39 19.61,2.75 15,2.75 L9,2.75 Z"/>
  <path fill="#292D32" d="M17.5,17.83 L15.65,17.83 C15.24,17.83 14.9,17.49 14.9,17.08 C14.9,16.67 15.24,16.33 15.65,16.33 L17.5,16.33 C17.91,16.33 18.25,16.67 18.25,17.08 C18.25,17.49 17.91,17.83 17.5,17.83 Z"/>
  <path fill="#292D32" d="M12.97,17.83 L6.5,17.83 C6.09,17.83 5.75,17.49 5.75,17.08 C5.75,16.67 6.09,16.33 6.5,16.33 L12.97,16.33 C13.38,16.33 13.72,16.67 13.72,17.08 C13.72,17.49 13.39,17.83 12.97,17.83 Z"/>
  <path fill="#292D32" d="M17.501,14.07 L11.971,14.07 C11.561,14.07 11.221,13.73 11.221,13.32 C11.221,12.91 11.561,12.57 11.971,12.57 L17.501,12.57 C17.911,12.57 18.251,12.91 18.251,13.32 C18.251,13.73 17.911,14.07 17.501,14.07 Z"/>
  <path fill="#292D32" d="M9.27,14.07 L6.5,14.07 C6.09,14.07 5.75,13.73 5.75,13.32 C5.75,12.91 6.09,12.57 6.5,12.57 L9.27,12.57 C9.68,12.57 10.02,12.91 10.02,13.32 C10.02,13.73 9.68,14.07 9.27,14.07 Z"/>
</svg>

