<svg xmlns="http://www.w3.org/2000/svg" width="24" height="24" viewBox="0 0 24 24">
  <defs/>
  <path fill="#292D32" d="M9,22.75 Q1.25,22.75 1.25,15 L1.25,9 Q1.25,1.25 9,1.25 L15,1.25 Q22.75,1.25 22.75,9 L22.75,15 Q22.75,22.75 15,22.75 Z M9,21.25 L15,21.25 Q18.439,21.25 19.845,19.845 Q21.25,18.439 21.25,15 L21.25,9 Q21.25,2.75 15,2.75 L9,2.75 Q2.75,2.75 2.75,9 L2.75,15 Q2.75,18.439 4.155,19.845 Q5.561,21.25 9,21.25 Z"/>
  <path fill="#292D32" d="M17.5,17.83 L15.65,17.83 Q15.339,17.83 15.12,17.61 Q14.9,17.391 14.9,17.08 Q14.9,16.769 15.12,16.55 Q15.339,16.33 15.65,16.33 L17.5,16.33 Q17.811,16.33 18.03,16.55 Q18.25,16.769 18.25,17.08 Q18.25,17.391 18.03,17.61 Q17.811,17.83 17.5,17.83 Z"/>
  <path fill="#292D32" d="M12.97,17.83 L6.5,17.83 Q6.189,17.83 5.97,17.61 Q5.75,17.391 5.75,17.08 Q5.75,16.769 5.97,16.55 Q6.189,16.33 6.5,16.33 L12.97,16.33 Q13.281,16.33 13.5,16.55 Q13.72,16.769 13.72,17.08 Q13.72,17.391 13.5,17.61 Q13.281,17.83 12.97,17.83 Z"/>
  <path fill="#292D32" d="M17.5,14.07 L11.97,14.07 Q11.659,14.07 11.44,13.85 Q11.22,13.631 11.22,13.32 Q11.22,13.009 11.44,12.79 Q11.659,12.57 11.97,12.57 L17.5,12.57 Q17.811,12.57 18.03,12.79 Q18.25,13.009 18.25,13.32 Q18.25,13.631 18.03,13.85 Q17.811,14.07 17.5,14.07 Z"/>
  <path fill="#292D32" d="M9.27,14.07 L6.5,14.07 Q6.189,14.07 5.97,13.85 Q5.75,13.631 5.75,13.32 Q5.75,13.009 5.97,12.79 Q6.189,12.57 6.5,12.57 L9.27,12.57 Q9.581,12.57 9.8,12.79 Q10.02,13.009 10.02,13.32 Q10.02,13.631 9.8,13.85 Q9.581,14.07 9.27,14.07 Z"/>
</svg>

