<svg xmlns="http://www.w3.org/2000/svg" width="24" height="24" viewBox="0 0 24 24">
  <defs/>
  <path fill="#292D32" d="M16.19,2 L7.81,2 C4.17,2 2,4.17 2,7.81 L2,16.18 C2,19.83 4.17,22 7.81,22 L16.18,22 C19.82,22 21.99,19.83 21.99,16.19 L21.99,7.81 C22,4.17 19.83,2 16.19,2 Z M6.5,12.57 L9.27,12.57 C9.68,12.57 10.02,12.91 10.02,13.32 C10.02,13.73 9.68,14.07 9.27,14.07 L6.5,14.07 C6.09,14.07 5.75,13.73 5.75,13.32 C5.75,12.91 6.09,12.57 6.5,12.57 Z M12.97,17.83 L6.5,17.83 C6.09,17.83 5.75,17.49 5.75,17.08 C5.75,16.67 6.09,16.33 6.5,16.33 L12.97,16.33 C13.38,16.33 13.72,16.67 13.72,17.08 C13.72,17.49 13.39,17.83 12.97,17.83 Z M17.5,17.83 L15.65,17.83 C15.24,17.83 14.9,17.49 14.9,17.08 C14.9,16.67 15.24,16.33 15.65,16.33 L17.5,16.33 C17.91,16.33 18.25,16.67 18.25,17.08 C18.25,17.49 17.91,17.83 17.5,17.83 Z M17.5,14.07 L11.97,14.07 C11.56,14.07 11.22,13.73 11.22,13.32 C11.22,12.91 11.56,12.57 11.97,12.57 L17.5,12.57 C17.91,12.57 18.25,12.91 18.25,13.32 C18.25,13.73 17.91,14.07 17.5,14.07 Z"/>
</svg>

