<svg xmlns="http://www.w3.org/2000/svg" width="24" height="24" viewBox="0 0 24 24">
  <defs/>
  <path fill="#292D32" d="M17.75,12 Q17.75,9.618 16.066,7.934 Q14.382,6.25 12,6.25 Q9.618,6.25 7.934,7.934 Q6.25,9.618 6.25,12 Q6.25,12.311 6.03,12.53 Q5.811,12.75 5.5,12.75 Q5.189,12.75 4.97,12.53 Q4.75,12.311 4.75,12 Q4.75,8.997 6.873,6.873 Q8.997,4.75 12,4.75 Q15.003,4.75 17.127,6.873 Q19.25,8.997 19.25,12 Q19.25,12.311 19.03,12.53 Q18.811,12.75 18.5,12.75 Q18.189,12.75 17.97,12.53 Q17.75,12.311 17.75,12 Z"/>
  <path fill="#292D32" d="M18.303,4.283 L18.433,4.153 Q18.726,3.86 19.14,3.86 Q19.554,3.86 19.847,4.153 Q20.14,4.446 20.14,4.86 Q20.14,5.274 19.847,5.567 L19.717,5.697 Q19.424,5.99 19.01,5.99 Q18.596,5.99 18.303,5.697 Q18.01,5.404 18.01,4.99 Q18.01,4.576 18.303,4.283 Z M4.283,5.697 L4.153,5.567 Q3.86,5.274 3.86,4.86 Q3.86,4.446 4.153,4.153 Q4.446,3.86 4.86,3.86 Q5.274,3.86 5.567,4.153 L5.697,4.283 Q5.99,4.576 5.99,4.99 Q5.99,5.404 5.697,5.697 Q5.404,5.99 4.99,5.99 Q4.576,5.99 4.283,5.697 Z M2.08,13 L2,13 Q1.586,13 1.293,12.707 Q1,12.414 1,12 Q1,11.586 1.293,11.293 Q1.586,11 2,11 L2.08,11 Q2.494,11 2.787,11.293 Q3.08,11.586 3.08,12 Q3.08,12.414 2.787,12.707 Q2.494,13 2.08,13 Z M22,13 L21.92,13 Q21.506,13 21.213,12.707 Q20.92,12.414 20.92,12 Q20.92,11.586 21.213,11.293 Q21.506,11 21.92,11 L22,11 Q22.414,11 22.707,11.293 Q23,11.586 23,12 Q23,12.414 22.707,12.707 Q22.414,13 22,13 Z M11,2.08 L11,2 Q11,1.586 11.293,1.293 Q11.586,1 12,1 Q12.414,1 12.707,1.293 Q13,1.586 13,2 L13,2.08 Q13,2.494 12.707,2.787 Q12.414,3.08 12,3.08 Q11.586,3.08 11.293,2.787 Q11,2.494 11,2.08 Z"/>
  <path fill="#292D32" d="M4,14.25 L20,14.25 Q20.311,14.25 20.53,14.47 Q20.75,14.689 20.75,15 Q20.75,15.311 20.53,15.53 Q20.311,15.75 20,15.75 L4,15.75 Q3.689,15.75 3.47,15.53 Q3.25,15.311 3.25,15 Q3.25,14.689 3.47,14.47 Q3.689,14.25 4,14.25 Z"/>
  <path fill="#292D32" d="M6,17.25 L18,17.25 Q18.311,17.25 18.53,17.47 Q18.75,17.689 18.75,18 Q18.75,18.311 18.53,18.53 Q18.311,18.75 18,18.75 L6,18.75 Q5.689,18.75 5.47,18.53 Q5.25,18.311 5.25,18 Q5.25,17.689 5.47,17.47 Q5.689,17.25 6,17.25 Z"/>
  <path fill="#292D32" d="M9,20.25 L15,20.25 Q15.311,20.25 15.53,20.47 Q15.75,20.689 15.75,21 Q15.75,21.311 15.53,21.53 Q15.311,21.75 15,21.75 L9,21.75 Q8.689,21.75 8.47,21.53 Q8.25,21.311 8.25,21 Q8.25,20.689 8.47,20.47 Q8.689,20.25 9,20.25 Z"/>
</svg>

