<svg xmlns="http://www.w3.org/2000/svg" width="24" height="24" viewBox="0 0 24 24">
  <defs/>
  <path fill="#292D32" d="M11.25,8 L11.25,6.5 Q11.25,6.189 11.47,5.97 Q11.689,5.75 12,5.75 Q12.311,5.75 12.53,5.97 Q12.75,6.189 12.75,6.5 L12.75,8 Q12.75,8.311 12.53,8.53 Q12.311,8.75 12,8.75 Q11.689,8.75 11.47,8.53 Q11.25,8.311 11.25,8 Z"/>
  <path fill="#292D32" d="M11.25,4 L11.25,3 Q11.25,2.689 11.47,2.47 Q11.689,2.25 12,2.25 Q12.311,2.25 12.53,2.47 Q12.75,2.689 12.75,3 L12.75,4 Q12.75,4.311 12.53,4.53 Q12.311,4.75 12,4.75 Q11.689,4.75 11.47,4.53 Q11.25,4.311 11.25,4 Z"/>
  <path fill="#292D32" d="M11.25,21 L11.25,15.5 Q11.25,15.189 11.47,14.97 Q11.689,14.75 12,14.75 Q12.311,14.75 12.53,14.97 Q12.75,15.189 12.75,15.5 L12.75,21 Q12.75,21.311 12.53,21.53 Q12.311,21.75 12,21.75 Q11.689,21.75 11.47,21.53 Q11.25,21.311 11.25,21 Z"/>
  <path fill="#292D32" d="M10,2.25 L14,2.25 Q14.311,2.25 14.53,2.47 Q14.75,2.689 14.75,3 Q14.75,3.311 14.53,3.53 Q14.311,3.75 14,3.75 L10,3.75 Q9.689,3.75 9.47,3.53 Q9.25,3.311 9.25,3 Q9.25,2.689 9.47,2.47 Q9.689,2.25 10,2.25 Z"/>
  <path fill="#292D32" d="M10,20.25 L14,20.25 Q14.311,20.25 14.53,20.47 Q14.75,20.689 14.75,21 Q14.75,21.311 14.53,21.53 Q14.311,21.75 14,21.75 L10,21.75 Q9.689,21.75 9.47,21.53 Q9.25,21.311 9.25,21 Q9.25,20.689 9.47,20.47 Q9.689,20.25 10,20.25 Z"/>
  <path fill="#292D32" d="M8.596,10.899 L3.836,8.149 Q3.567,7.994 3.486,7.694 Q3.406,7.394 3.562,7.125 Q3.717,6.856 4.017,6.775 Q4.317,6.695 4.586,6.851 L9.346,9.601 Q9.615,9.756 9.695,10.056 Q9.776,10.356 9.62,10.625 Q9.465,10.894 9.165,10.974 Q8.865,11.055 8.596,10.899 Z"/>
  <path fill="#292D32" d="M19.414,17.149 L14.654,14.399 Q14.385,14.244 14.305,13.944 Q14.224,13.644 14.38,13.375 Q14.535,13.106 14.835,13.025 Q15.135,12.945 15.404,13.101 L20.164,15.851 Q20.433,16.006 20.514,16.306 Q20.594,16.606 20.439,16.875 Q20.283,17.144 19.983,17.224 Q19.683,17.305 19.414,17.149 Z"/>
  <path fill="#292D32" d="M2.562,8.854 L4.562,5.394 Q4.717,5.125 5.017,5.045 Q5.317,4.965 5.586,5.12 Q5.855,5.276 5.935,5.576 Q6.016,5.876 5.86,6.145 L3.86,9.605 Q3.705,9.874 3.405,9.954 Q3.105,10.034 2.836,9.879 Q2.567,9.723 2.486,9.423 Q2.406,9.123 2.562,8.854 Z"/>
  <path fill="#292D32" d="M18.14,17.854 L20.14,14.394 Q20.295,14.125 20.595,14.045 Q20.895,13.965 21.164,14.12 Q21.433,14.276 21.514,14.576 Q21.594,14.876 21.438,15.145 L19.438,18.605 Q19.283,18.874 18.983,18.954 Q18.683,19.034 18.414,18.879 Q18.145,18.723 18.065,18.423 Q17.984,18.123 18.14,17.854 Z"/>
  <path fill="#292D32" d="M8.32,14.125 Q7.75,13.136 7.75,12 Q7.75,10.864 8.32,9.875 Q9.555,7.75 12,7.75 Q14.445,7.75 15.679,9.873 Q16.25,10.864 16.25,12 Q16.25,13.136 15.68,14.125 Q14.445,16.25 12,16.25 Q11.689,16.25 11.47,16.03 Q11.25,15.811 11.25,15.5 Q11.25,15.189 11.47,14.97 Q11.689,14.75 12,14.75 Q13.582,14.75 14.38,13.375 Q14.75,12.734 14.75,12 Q14.75,11.266 14.381,10.627 Q13.582,9.25 12,9.25 Q10.418,9.25 9.62,10.625 Q9.25,11.266 9.25,12 Q9.25,12.734 9.62,13.375 Q9.775,13.644 9.694,13.944 Q9.614,14.244 9.345,14.4 Q9.076,14.555 8.776,14.474 Q8.476,14.394 8.32,14.125 Z"/>
  <path fill="#292D32" d="M20.164,8.15 L17.424,9.73 L15.405,10.899 Q15.136,11.055 14.836,10.975 Q14.536,10.895 14.38,10.626 Q14.225,10.357 14.305,10.057 Q14.385,9.757 14.653,9.601 L16.675,8.43 L19.415,6.85 Q19.684,6.695 19.984,6.776 Q20.284,6.856 20.439,7.125 Q20.594,7.394 20.514,7.694 Q20.433,7.995 20.164,8.15 Z"/>
  <path fill="#292D32" d="M9.346,14.399 L4.586,17.149 Q4.317,17.305 4.017,17.224 Q3.717,17.144 3.562,16.875 Q3.406,16.606 3.486,16.306 Q3.567,16.006 3.836,15.851 L8.596,13.101 Q8.865,12.945 9.165,13.025 Q9.465,13.106 9.62,13.375 Q9.776,13.644 9.695,13.944 Q9.615,14.244 9.346,14.399 Z"/>
  <path fill="#292D32" d="M20.14,9.605 L18.14,6.145 Q17.984,5.876 18.065,5.576 Q18.145,5.276 18.414,5.12 Q18.683,4.965 18.983,5.045 Q19.283,5.125 19.438,5.394 L21.438,8.854 Q21.594,9.123 21.514,9.423 Q21.433,9.723 21.164,9.879 Q20.895,10.034 20.595,9.954 Q20.295,9.874 20.14,9.605 Z"/>
  <path fill="#292D32" d="M4.562,18.605 L2.562,15.145 Q2.406,14.876 2.486,14.576 Q2.567,14.276 2.836,14.12 Q3.105,13.965 3.405,14.045 Q3.705,14.125 3.86,14.394 L5.86,17.854 Q6.016,18.123 5.935,18.423 Q5.855,18.723 5.586,18.879 Q5.317,19.034 5.017,18.954 Q4.717,18.874 4.562,18.605 Z"/>
</svg>

