<svg xmlns="http://www.w3.org/2000/svg" width="24" height="24" viewBox="0 0 24 24">
  <defs/>
  <path fill="#292D32" d="M18.481,12.25 C18.761,12.25 19.001,12.01 18.981,11.73 C18.711,8.11 15.691,5.25 12.001,5.25 C8.311,5.25 5.291,8.1 5.021,11.73 C5.001,12.01 5.241,12.25 5.521,12.25 L18.481,12.25 Z"/>
  <path fill="#292D32" d="M22,13 L21.92,13 C21.37,13 20.92,12.55 20.92,12 C20.92,11.45 21.37,11 21.92,11 C22.47,11 22.96,11.45 22.96,12 C22.96,12.55 22.55,13 22,13 Z M2.08,13 L2,13 C1.45,13 1,12.55 1,12 C1,11.45 1.45,11 2,11 C2.55,11 3.04,11.45 3.04,12 C3.04,12.55 2.63,13 2.08,13 Z M19.01,5.99 C18.75,5.99 18.5,5.89 18.3,5.7 C17.91,5.31 17.91,4.68 18.3,4.29 L18.43,4.16 C18.82,3.77 19.45,3.77 19.84,4.16 C20.23,4.55 20.23,5.18 19.84,5.57 L19.71,5.7 C19.52,5.89 19.27,5.99 19.01,5.99 Z M4.99,5.99 C4.73,5.99 4.48,5.89 4.28,5.7 L4.15,5.57 C3.76,5.18 3.76,4.55 4.15,4.16 C4.54,3.77 5.17,3.77 5.56,4.16 L5.69,4.29 C6.08,4.68 6.08,5.31 5.69,5.7 C5.5,5.89 5.24,5.99 4.99,5.99 Z M12,3.04 C11.45,3.04 11,2.63 11,2.08 L11,2 C11,1.45 11.45,1 12,1 C12.55,1 13,1.45 13,2 C13,2.55 12.55,3.04 12,3.04 Z"/>
  <path fill="#292D32" opacity="0.4" d="M20,15.75 L4,15.75 C3.59,15.75 3.25,15.41 3.25,15 C3.25,14.59 3.59,14.25 4,14.25 L20,14.25 C20.41,14.25 20.75,14.59 20.75,15 C20.75,15.41 20.41,15.75 20,15.75 Z"/>
  <path fill="#292D32" opacity="0.4" d="M18,18.75 L6,18.75 C5.59,18.75 5.25,18.41 5.25,18 C5.25,17.59 5.59,17.25 6,17.25 L18,17.25 C18.41,17.25 18.75,17.59 18.75,18 C18.75,18.41 18.41,18.75 18,18.75 Z"/>
  <path fill="#292D32" opacity="0.4" d="M15,21.75 L9,21.75 C8.59,21.75 8.25,21.41 8.25,21 C8.25,20.59 8.59,20.25 9,20.25 L15,20.25 C15.41,20.25 15.75,20.59 15.75,21 C15.75,21.41 15.41,21.75 15,21.75 Z"/>
</svg>

