<svg xmlns="http://www.w3.org/2000/svg" width="24" height="24" viewBox="0 0 24 24">
  <defs/>
  <path fill="#292D32" d="M7.577,8.33 Q6.25,9.924 6.25,12 Q6.25,14.382 7.934,16.066 Q9.618,17.75 12,17.75 Q14.382,17.75 16.066,16.066 Q17.75,14.382 17.75,12 Q17.75,9.618 16.066,7.934 Q14.382,6.25 12,6.25 Q11.689,6.25 11.47,6.03 Q11.25,5.811 11.25,5.5 Q11.25,5.189 11.47,4.97 Q11.689,4.75 12,4.75 Q15.003,4.75 17.127,6.873 Q19.25,8.997 19.25,12 Q19.25,15.003 17.127,17.127 Q15.003,19.25 12,19.25 Q8.997,19.25 6.873,17.127 Q4.75,15.003 4.75,12 Q4.75,9.382 6.423,7.37 Q6.622,7.132 6.931,7.103 Q7.241,7.075 7.48,7.273 Q7.718,7.472 7.747,7.781 Q7.775,8.091 7.577,8.33 Z"/>
  <path fill="#292D32" d="M18.433,19.847 L18.303,19.717 Q18.01,19.424 18.01,19.01 Q18.01,18.596 18.303,18.303 Q18.596,18.01 19.01,18.01 Q19.424,18.01 19.717,18.303 L19.847,18.433 Q20.14,18.726 20.14,19.14 Q20.14,19.554 19.847,19.847 Q19.554,20.14 19.14,20.14 Q18.726,20.14 18.433,19.847 Z M4.153,18.433 L4.283,18.303 Q4.576,18.01 4.99,18.01 Q5.404,18.01 5.697,18.303 Q5.99,18.596 5.99,19.01 Q5.99,19.424 5.697,19.717 L5.567,19.847 Q5.274,20.14 4.86,20.14 Q4.446,20.14 4.153,19.847 Q3.86,19.554 3.86,19.14 Q3.86,18.726 4.153,18.433 Z M18.303,4.283 L18.433,4.153 Q18.726,3.86 19.14,3.86 Q19.554,3.86 19.847,4.153 Q20.14,4.446 20.14,4.86 Q20.14,5.274 19.847,5.567 L19.717,5.697 Q19.424,5.99 19.01,5.99 Q18.596,5.99 18.303,5.697 Q18.01,5.404 18.01,4.99 Q18.01,4.576 18.303,4.283 Z M4.283,5.697 L4.153,5.567 Q3.86,5.274 3.86,4.86 Q3.86,4.446 4.153,4.153 Q4.446,3.86 4.86,3.86 Q5.274,3.86 5.567,4.153 L5.697,4.283 Q5.99,4.576 5.99,4.99 Q5.99,5.404 5.697,5.697 Q5.404,5.99 4.99,5.99 Q4.576,5.99 4.283,5.697 Z M11,22 L11,21.92 Q11,21.506 11.293,21.213 Q11.586,20.92 12,20.92 Q12.414,20.92 12.707,21.213 Q13,21.506 13,21.92 L13,22 Q13,22.414 12.707,22.707 Q12.414,23 12,23 Q11.586,23 11.293,22.707 Q11,22.414 11,22 Z M22,13 L21.92,13 Q21.506,13 21.213,12.707 Q20.92,12.414 20.92,12 Q20.92,11.586 21.213,11.293 Q21.506,11 21.92,11 L22,11 Q22.414,11 22.707,11.293 Q23,11.586 23,12 Q23,12.414 22.707,12.707 Q22.414,13 22,13 Z M2.08,13 L2,13 Q1.586,13 1.293,12.707 Q1,12.414 1,12 Q1,11.586 1.293,11.293 Q1.586,11 2,11 L2.08,11 Q2.494,11 2.787,11.293 Q3.08,11.586 3.08,12 Q3.08,12.414 2.787,12.707 Q2.494,13 2.08,13 Z M11,2.08 L11,2 Q11,1.586 11.293,1.293 Q11.586,1 12,1 Q12.414,1 12.707,1.293 Q13,1.586 13,2 L13,2.08 Q13,2.494 12.707,2.787 Q12.414,3.08 12,3.08 Q11.586,3.08 11.293,2.787 Q11,2.494 11,2.08 Z"/>
</svg>

