<svg xmlns="http://www.w3.org/2000/svg" width="24" height="24" viewBox="0 0 24 24">
  <defs/>
  <path fill="#292D32" d="M12,19 C15.866,19 19,15.866 19,12 C19,8.134 15.866,5 12,5 C8.134,5 5,8.134 5,12 C5,15.866 8.134,19 12,19 Z"/>
  <path fill="#292D32" d="M12,22.96 C11.45,22.96 11,22.55 11,22 L11,21.92 C11,21.37 11.45,20.92 12,20.92 C12.55,20.92 13,21.37 13,21.92 C13,22.47 12.55,22.96 12,22.96 Z M19.14,20.14 C18.88,20.14 18.63,20.04 18.43,19.85 L18.3,19.72 C17.91,19.33 17.91,18.7 18.3,18.31 C18.69,17.92 19.32,17.92 19.71,18.31 L19.84,18.44 C20.23,18.83 20.23,19.46 19.84,19.85 C19.65,20.04 19.4,20.14 19.14,20.14 Z M4.86,20.14 C4.6,20.14 4.35,20.04 4.15,19.85 C3.76,19.46 3.76,18.83 4.15,18.44 L4.28,18.31 C4.67,17.92 5.3,17.92 5.69,18.31 C6.08,18.7 6.08,19.33 5.69,19.72 L5.56,19.85 C5.37,20.04 5.11,20.14 4.86,20.14 Z M22,13 L21.92,13 C21.37,13 20.92,12.55 20.92,12 C20.92,11.45 21.37,11 21.92,11 C22.47,11 22.96,11.45 22.96,12 C22.96,12.55 22.55,13 22,13 Z M2.08,13 L2,13 C1.45,13 1,12.55 1,12 C1,11.45 1.45,11 2,11 C2.55,11 3.04,11.45 3.04,12 C3.04,12.55 2.63,13 2.08,13 Z M19.01,5.99 C18.75,5.99 18.5,5.89 18.3,5.7 C17.91,5.31 17.91,4.68 18.3,4.29 L18.43,4.16 C18.82,3.77 19.45,3.77 19.84,4.16 C20.23,4.55 20.23,5.18 19.84,5.57 L19.71,5.7 C19.52,5.89 19.27,5.99 19.01,5.99 Z M4.99,5.99 C4.73,5.99 4.48,5.89 4.28,5.7 L4.15,5.56 C3.76,5.17 3.76,4.54 4.15,4.15 C4.54,3.76 5.17,3.76 5.56,4.15 L5.69,4.28 C6.08,4.67 6.08,5.3 5.69,5.69 C5.5,5.89 5.24,5.99 4.99,5.99 Z M12,3.04 C11.45,3.04 11,2.63 11,2.08 L11,2 C11,1.45 11.45,1 12,1 C12.55,1 13,1.45 13,2 C13,2.55 12.55,3.04 12,3.04 Z"/>
</svg>

