<svg xmlns="http://www.w3.org/2000/svg" width="24" height="24" viewBox="0 0 24 24">
  <defs/>
  <path fill="#292D32" d="M16.25,12 Q16.25,13.136 15.68,14.125 Q14.445,16.25 12,16.25 Q9.555,16.25 8.321,14.127 Q7.75,13.136 7.75,12 Q7.75,10.864 8.32,9.875 Q9.555,7.75 12,7.75 Q14.445,7.75 15.679,9.873 Q16.25,10.864 16.25,12 Z M14.75,12 Q14.75,11.266 14.381,10.627 Q13.582,9.25 12,9.25 Q10.418,9.25 9.62,10.625 Q9.25,11.266 9.25,12 Q9.25,12.734 9.619,13.373 Q10.418,14.75 12,14.75 Q13.582,14.75 14.38,13.375 Q14.75,12.734 14.75,12 Z"/>
  <g opacity="0.4">
    <path fill="#292D32" d="M11.25,8.5 L11.25,3 Q11.25,2.689 11.47,2.47 Q11.689,2.25 12,2.25 Q12.311,2.25 12.53,2.47 Q12.75,2.689 12.75,3 L12.75,8.5 Q12.75,8.811 12.53,9.03 Q12.311,9.25 12,9.25 Q11.689,9.25 11.47,9.03 Q11.25,8.811 11.25,8.5 Z"/>
    <path fill="#292D32" d="M11.25,21 L11.25,15.5 Q11.25,15.189 11.47,14.97 Q11.689,14.75 12,14.75 Q12.311,14.75 12.53,14.97 Q12.75,15.189 12.75,15.5 L12.75,21 Q12.75,21.311 12.53,21.53 Q12.311,21.75 12,21.75 Q11.689,21.75 11.47,21.53 Q11.25,21.311 11.25,21 Z"/>
    <path fill="#292D32" d="M10,2.25 L14,2.25 Q14.311,2.25 14.53,2.47 Q14.75,2.689 14.75,3 Q14.75,3.311 14.53,3.53 Q14.311,3.75 14,3.75 L10,3.75 Q9.689,3.75 9.47,3.53 Q9.25,3.311 9.25,3 Q9.25,2.689 9.47,2.47 Q9.689,2.25 10,2.25 Z"/>
    <path fill="#292D32" d="M10,20.25 L14,20.25 Q14.311,20.25 14.53,20.47 Q14.75,20.689 14.75,21 Q14.75,21.311 14.53,21.53 Q14.311,21.75 14,21.75 L10,21.75 Q9.689,21.75 9.47,21.53 Q9.25,21.311 9.25,21 Q9.25,20.689 9.47,20.47 Q9.689,20.25 10,20.25 Z"/>
    <path fill="#292D32" d="M8.596,10.899 L3.836,8.149 Q3.567,7.994 3.486,7.694 Q3.406,7.394 3.562,7.125 Q3.717,6.856 4.017,6.775 Q4.317,6.695 4.586,6.851 L9.346,9.601 Q9.615,9.756 9.695,10.056 Q9.776,10.356 9.62,10.625 Q9.465,10.894 9.165,10.974 Q8.865,11.055 8.596,10.899 Z"/>
    <path fill="#292D32" d="M19.416,17.149 L14.656,14.399 Q14.387,14.244 14.307,13.944 Q14.226,13.644 14.382,13.375 Q14.537,13.106 14.837,13.026 Q15.137,12.945 15.406,13.101 L20.166,15.851 Q20.435,16.006 20.516,16.306 Q20.596,16.606 20.441,16.875 Q20.285,17.144 19.985,17.224 Q19.685,17.305 19.416,17.149 Z"/>
    <path fill="#292D32" d="M2.562,8.855 L4.562,5.395 Q4.717,5.126 5.017,5.045 Q5.317,4.965 5.586,5.121 Q5.855,5.276 5.935,5.576 Q6.016,5.876 5.86,6.145 L3.86,9.605 Q3.705,9.874 3.405,9.955 Q3.105,10.035 2.836,9.879 Q2.567,9.724 2.486,9.424 Q2.406,9.124 2.562,8.855 Z"/>
    <path fill="#292D32" d="M18.142,17.855 L20.142,14.395 Q20.297,14.126 20.597,14.045 Q20.897,13.965 21.166,14.121 Q21.435,14.276 21.516,14.576 Q21.596,14.876 21.44,15.145 L19.44,18.605 Q19.285,18.874 18.985,18.955 Q18.685,19.035 18.416,18.879 Q18.147,18.724 18.066,18.424 Q17.986,18.124 18.142,17.855 Z"/>
    <path fill="#292D32" d="M20.166,8.149 L15.406,10.899 Q15.137,11.055 14.837,10.974 Q14.537,10.894 14.382,10.625 Q14.226,10.356 14.307,10.056 Q14.387,9.756 14.656,9.601 L19.416,6.851 Q19.685,6.695 19.985,6.776 Q20.285,6.856 20.441,7.125 Q20.596,7.394 20.516,7.694 Q20.435,7.994 20.166,8.149 Z"/>
    <path fill="#292D32" d="M9.346,14.399 L4.586,17.149 Q4.317,17.305 4.017,17.224 Q3.717,17.144 3.562,16.875 Q3.406,16.606 3.486,16.306 Q3.567,16.006 3.836,15.851 L8.596,13.101 Q8.865,12.945 9.165,13.025 Q9.465,13.106 9.62,13.375 Q9.776,13.644 9.695,13.944 Q9.615,14.244 9.346,14.399 Z"/>
    <path fill="#292D32" d="M20.142,9.605 L18.142,6.145 Q17.986,5.876 18.066,5.576 Q18.147,5.276 18.416,5.121 Q18.685,4.965 18.985,5.045 Q19.285,5.126 19.44,5.395 L21.44,8.855 Q21.596,9.124 21.516,9.424 Q21.435,9.724 21.166,9.879 Q20.897,10.035 20.597,9.955 Q20.297,9.874 20.142,9.605 Z"/>
    <path fill="#292D32" d="M4.562,18.605 L2.562,15.145 Q2.406,14.876 2.486,14.576 Q2.567,14.276 2.836,14.121 Q3.105,13.965 3.405,14.045 Q3.705,14.126 3.86,14.395 L5.86,17.855 Q6.016,18.124 5.935,18.424 Q5.855,18.724 5.586,18.879 Q5.317,19.035 5.017,18.955 Q4.717,18.874 4.562,18.605 Z"/>
  </g>
</svg>

