<svg xmlns="http://www.w3.org/2000/svg" width="24" height="24" viewBox="0 0 24 24">
  <defs/>
  <path fill="#292D32" d="M12,9.25 C11.59,9.25 11.25,8.91 11.25,8.5 L11.25,3 C11.25,2.59 11.59,2.25 12,2.25 C12.41,2.25 12.75,2.59 12.75,3 L12.75,8.5 C12.75,8.91 12.41,9.25 12,9.25 Z"/>
  <path fill="#292D32" d="M12,21.75 C11.59,21.75 11.25,21.41 11.25,21 L11.25,15.5 C11.25,15.09 11.59,14.75 12,14.75 C12.41,14.75 12.75,15.09 12.75,15.5 L12.75,21 C12.75,21.41 12.41,21.75 12,21.75 Z"/>
  <path fill="#292D32" d="M14,3.75 L10,3.75 C9.59,3.75 9.25,3.41 9.25,3 C9.25,2.59 9.59,2.25 10,2.25 L14,2.25 C14.41,2.25 14.75,2.59 14.75,3 C14.75,3.41 14.41,3.75 14,3.75 Z"/>
  <path fill="#292D32" d="M14,21.75 L10,21.75 C9.59,21.75 9.25,21.41 9.25,21 C9.25,20.59 9.59,20.25 10,20.25 L14,20.25 C14.41,20.25 14.75,20.59 14.75,21 C14.75,21.41 14.41,21.75 14,21.75 Z"/>
  <path fill="#292D32" d="M8.97,11 C8.84,11 8.71,10.97 8.6,10.9 L3.84,8.15 C3.48,7.94 3.36,7.48 3.57,7.13 C3.78,6.77 4.24,6.65 4.59,6.86 L9.35,9.61 C9.71,9.82 9.83,10.28 9.62,10.63 C9.48,10.87 9.23,11 8.97,11 Z"/>
  <path fill="#292D32" d="M19.79,17.25 C19.66,17.25 19.53,17.22 19.42,17.15 L14.66,14.4 C14.3,14.19 14.18,13.73 14.39,13.38 C14.6,13.02 15.06,12.9 15.41,13.11 L20.17,15.86 C20.53,16.07 20.65,16.53 20.44,16.88 C20.3,17.12 20.05,17.25 19.79,17.25 Z"/>
  <path fill="#292D32" d="M3.21,9.98 C3.08,9.98 2.95,9.95 2.84,9.88 C2.48,9.67 2.36,9.21 2.57,8.86 L4.57,5.4 C4.78,5.04 5.24,4.92 5.59,5.13 C5.95,5.34 6.07,5.8 5.86,6.15 L3.86,9.61 C3.72,9.85 3.46,9.98 3.21,9.98 Z"/>
  <path fill="#292D32" d="M18.79,18.98 C18.66,18.98 18.53,18.95 18.42,18.88 C18.06,18.67 17.94,18.21 18.15,17.86 L20.15,14.4 C20.36,14.04 20.82,13.92 21.17,14.13 C21.53,14.34 21.65,14.8 21.44,15.15 L19.44,18.61 C19.31,18.85 19.05,18.98 18.79,18.98 Z"/>
  <path fill="#292D32" d="M12,16.25 C10.49,16.25 9.08,15.44 8.32,14.13 C7.94,13.47 7.75,12.76 7.75,12 C7.75,11.24 7.94,10.53 8.32,9.88 C9.08,8.57 10.49,7.76 12,7.76 C13.51,7.76 14.92,8.57 15.68,9.88 C16.06,10.54 16.25,11.25 16.25,12.01 C16.25,12.77 16.06,13.48 15.68,14.13 C14.92,15.44 13.51,16.25 12,16.25 Z M12,9.25 C11.02,9.25 10.11,9.78 9.62,10.63 C9.38,11.05 9.25,11.52 9.25,12 C9.25,12.48 9.37,12.95 9.62,13.38 C10.11,14.23 11.02,14.76 12,14.76 C12.98,14.76 13.89,14.23 14.38,13.38 C14.62,12.96 14.75,12.49 14.75,12.01 C14.75,11.53 14.63,11.06 14.38,10.63 C13.89,9.78 12.98,9.25 12,9.25 Z"/>
  <path fill="#292D32" d="M15.03,11 C14.77,11 14.52,10.87 14.38,10.62 C14.17,10.26 14.3,9.8 14.65,9.6 L19.41,6.85 C19.77,6.64 20.23,6.77 20.43,7.12 C20.64,7.48 20.51,7.94 20.16,8.14 L15.4,10.89 C15.29,10.97 15.16,11 15.03,11 Z"/>
  <path fill="#292D32" d="M4.21,17.25 C3.95,17.25 3.7,17.12 3.56,16.87 C3.35,16.51 3.48,16.05 3.83,15.85 L8.59,13.1 C8.95,12.89 9.41,13.02 9.61,13.37 C9.82,13.73 9.69,14.19 9.34,14.39 L4.58,17.14 C4.47,17.22 4.34,17.25 4.21,17.25 Z"/>
  <path fill="#292D32" d="M20.79,9.98 C20.53,9.98 20.28,9.85 20.14,9.6 L18.14,6.14 C17.93,5.78 18.06,5.32 18.41,5.12 C18.77,4.91 19.23,5.04 19.43,5.39 L21.43,8.85 C21.64,9.21 21.51,9.67 21.16,9.87 C21.05,9.95 20.92,9.98 20.79,9.98 Z"/>
  <path fill="#292D32" d="M5.21,18.98 C4.95,18.98 4.7,18.85 4.56,18.6 L2.56,15.14 C2.35,14.78 2.48,14.32 2.83,14.12 C3.19,13.91 3.65,14.04 3.85,14.39 L5.85,17.85 C6.06,18.21 5.93,18.67 5.58,18.87 C5.46,18.95 5.33,18.98 5.21,18.98 Z"/>
</svg>

