<svg xmlns="http://www.w3.org/2000/svg" width="24" height="24" viewBox="0 0 24 24">
  <defs/>
  <path fill="#292D32" d="M10,3.75 L11.25,3.75 L11.25,8.5 C11.25,8.91 11.59,9.25 12,9.25 C12.41,9.25 12.75,8.91 12.75,8.5 L12.75,3.75 L14,3.75 C14.41,3.75 14.75,3.41 14.75,3 C14.75,2.59 14.41,2.25 14,2.25 L10,2.25 C9.59,2.25 9.25,2.59 9.25,3 C9.25,3.41 9.59,3.75 10,3.75 Z"/>
  <path fill="#292D32" d="M14,20.25 L12.75,20.25 L12.75,15.5 C12.75,15.09 12.41,14.75 12,14.75 C11.59,14.75 11.25,15.09 11.25,15.5 L11.25,20.25 L10,20.25 C9.59,20.25 9.25,20.59 9.25,21 C9.25,21.41 9.59,21.75 10,21.75 L14,21.75 C14.41,21.75 14.75,21.41 14.75,21 C14.75,20.59 14.41,20.25 14,20.25 Z"/>
  <path fill="#292D32" d="M2.83,9.879 C2.95,9.949 3.08,9.979 3.2,9.979 C3.46,9.979 3.71,9.849 3.85,9.599 L4.48,8.519 L8.6,10.899 C8.71,10.969 8.84,10.999 8.97,10.999 C9.23,10.999 9.48,10.869 9.62,10.619 C9.83,10.269 9.7,9.809 9.35,9.599 L5.23,7.219 L5.85,6.139 C6.06,5.779 5.93,5.319 5.58,5.119 C5.22,4.909 4.76,5.029 4.56,5.389 L2.56,8.849 C2.35,9.219 2.47,9.669 2.83,9.879 Z"/>
  <path fill="#292D32" d="M21.169,14.121 C20.808,13.911 20.349,14.031 20.148,14.391 L19.518,15.471 L15.399,13.101 C15.039,12.891 14.579,13.021 14.379,13.371 C14.168,13.731 14.299,14.191 14.649,14.391 L18.759,16.771 L18.139,17.851 C17.928,18.211 18.058,18.671 18.409,18.871 C18.529,18.941 18.659,18.971 18.779,18.971 C19.038,18.971 19.288,18.841 19.428,18.591 L21.428,15.131 C21.648,14.781 21.529,14.331 21.169,14.121 Z"/>
  <path fill="#292D32" d="M18.771,7.221 L14.651,9.601 C14.291,9.811 14.171,10.271 14.381,10.621 C14.521,10.861 14.771,11.001 15.031,11.001 C15.161,11.001 15.291,10.971 15.401,10.901 L19.511,8.521 L20.141,9.601 C20.281,9.841 20.531,9.981 20.791,9.981 C20.921,9.981 21.051,9.951 21.161,9.881 C21.521,9.671 21.641,9.211 21.431,8.861 L19.431,5.401 C19.221,5.041 18.761,4.921 18.411,5.131 C18.051,5.341 17.931,5.801 18.141,6.151 L18.771,7.221 Z"/>
  <path fill="#292D32" d="M5.23,16.781 L9.34,14.401 C9.7,14.191 9.82,13.731 9.61,13.381 C9.4,13.021 8.94,12.901 8.59,13.111 L4.48,15.491 L3.85,14.411 C3.64,14.051 3.18,13.931 2.83,14.141 C2.47,14.351 2.35,14.811 2.56,15.161 L4.56,18.621 C4.7,18.861 4.95,19.001 5.21,19.001 C5.34,19.001 5.47,18.971 5.58,18.901 C5.94,18.691 6.06,18.231 5.85,17.881 L5.23,16.781 Z"/>
  <path fill="#292D32" d="M15.5,12 C15.5,12.64 15.33,13.23 15.03,13.75 C14.42,14.8 13.29,15.5 12,15.5 C10.71,15.5 9.58,14.8 8.97,13.75 C8.67,13.23 8.5,12.64 8.5,12 C8.5,11.36 8.67,10.77 8.97,10.25 C9.58,9.2 10.71,8.5 12,8.5 C13.29,8.5 14.42,9.2 15.03,10.25 C15.33,10.77 15.5,11.36 15.5,12 Z"/>
</svg>

