<svg xmlns="http://www.w3.org/2000/svg" width="24" height="24" viewBox="0 0 24 24">
  <defs/>
  <path fill="#292D32" opacity="0.4" d="M10,3.75 L11.25,3.75 L11.25,8.5 C11.25,8.91 11.59,9.25 12,9.25 C12.41,9.25 12.75,8.91 12.75,8.5 L12.75,3.75 L14,3.75 C14.41,3.75 14.75,3.41 14.75,3 C14.75,2.59 14.41,2.25 14,2.25 L10,2.25 C9.59,2.25 9.25,2.59 9.25,3 C9.25,3.41 9.59,3.75 10,3.75 Z"/>
  <path fill="#292D32" opacity="0.4" d="M14,20.25 L12.75,20.25 L12.75,15.5 C12.75,15.09 12.41,14.75 12,14.75 C11.59,14.75 11.25,15.09 11.25,15.5 L11.25,20.25 L10,20.25 C9.59,20.25 9.25,20.59 9.25,21 C9.25,21.41 9.59,21.75 10,21.75 L14,21.75 C14.41,21.75 14.75,21.41 14.75,21 C14.75,20.59 14.41,20.25 14,20.25 Z"/>
  <path fill="#292D32" opacity="0.4" d="M2.829,9.88 C2.949,9.95 3.079,9.98 3.199,9.98 C3.459,9.98 3.709,9.85 3.849,9.6 L4.479,8.52 L8.599,10.9 C8.709,10.97 8.839,11 8.969,11 C9.229,11 9.479,10.87 9.619,10.62 C9.829,10.26 9.699,9.8 9.349,9.6 L5.239,7.22 L5.859,6.14 C6.069,5.78 5.939,5.32 5.589,5.12 C5.229,4.91 4.769,5.03 4.569,5.39 L2.569,8.85 C2.349,9.22 2.469,9.67 2.829,9.88 Z"/>
  <path fill="#292D32" opacity="0.4" d="M21.17,14.12 C20.81,13.91 20.35,14.03 20.15,14.39 L19.52,15.47 L15.4,13.1 C15.04,12.89 14.58,13.02 14.38,13.37 C14.17,13.73 14.3,14.19 14.65,14.39 L18.76,16.77 L18.14,17.85 C17.93,18.21 18.06,18.67 18.41,18.87 C18.53,18.94 18.66,18.97 18.78,18.97 C19.04,18.97 19.29,18.84 19.43,18.59 L21.43,15.13 C21.65,14.78 21.53,14.33 21.17,14.12 Z"/>
  <path fill="#292D32" opacity="0.4" d="M18.77,7.22 L14.66,9.6 C14.3,9.81 14.18,10.27 14.39,10.62 C14.53,10.86 14.78,11 15.04,11 C15.17,11 15.3,10.97 15.41,10.9 L19.52,8.52 L20.15,9.6 C20.29,9.84 20.54,9.98 20.8,9.98 C20.93,9.98 21.06,9.95 21.17,9.88 C21.53,9.67 21.65,9.21 21.44,8.86 L19.44,5.4 C19.23,5.04 18.77,4.92 18.42,5.13 C18.06,5.34 17.94,5.8 18.15,6.15 L18.77,7.22 Z"/>
  <path fill="#292D32" opacity="0.4" d="M5.23,16.78 L9.34,14.4 C9.7,14.19 9.82,13.73 9.61,13.38 C9.4,13.02 8.94,12.9 8.59,13.11 L4.48,15.49 L3.85,14.41 C3.64,14.05 3.18,13.93 2.83,14.14 C2.47,14.35 2.35,14.81 2.56,15.16 L4.56,18.62 C4.7,18.86 4.95,19 5.21,19 C5.34,19 5.47,18.97 5.58,18.9 C5.94,18.69 6.06,18.23 5.85,17.88 L5.23,16.78 Z"/>
  <path fill="#292D32" d="M15.5,12 C15.5,12.64 15.33,13.23 15.03,13.75 C14.42,14.8 13.29,15.5 12,15.5 C10.71,15.5 9.58,14.8 8.97,13.75 C8.67,13.23 8.5,12.64 8.5,12 C8.5,11.36 8.67,10.77 8.97,10.25 C9.58,9.2 10.71,8.5 12,8.5 C13.29,8.5 14.42,9.2 15.03,10.25 C15.33,10.77 15.5,11.36 15.5,12 Z"/>
</svg>

