<svg xmlns="http://www.w3.org/2000/svg" width="24" height="24" viewBox="0 0 24 24">
  <defs/>
  <path fill="#292D32" d="M11.25,8.5 L11.25,3 Q11.25,2.689 11.47,2.47 Q11.689,2.25 12,2.25 Q12.311,2.25 12.53,2.47 Q12.75,2.689 12.75,3 L12.75,8.5 Q12.75,8.811 12.53,9.03 Q12.311,9.25 12,9.25 Q11.689,9.25 11.47,9.03 Q11.25,8.811 11.25,8.5 Z"/>
  <path fill="#292D32" d="M11.25,21 L11.25,15.5 Q11.25,15.189 11.47,14.97 Q11.689,14.75 12,14.75 Q12.311,14.75 12.53,14.97 Q12.75,15.189 12.75,15.5 L12.75,21 Q12.75,21.311 12.53,21.53 Q12.311,21.75 12,21.75 Q11.689,21.75 11.47,21.53 Q11.25,21.311 11.25,21 Z"/>
  <path fill="#292D32" d="M10,2.25 L14,2.25 Q14.311,2.25 14.53,2.47 Q14.75,2.689 14.75,3 Q14.75,3.311 14.53,3.53 Q14.311,3.75 14,3.75 L10,3.75 Q9.689,3.75 9.47,3.53 Q9.25,3.311 9.25,3 Q9.25,2.689 9.47,2.47 Q9.689,2.25 10,2.25 Z"/>
  <path fill="#292D32" d="M10,20.25 L14,20.25 Q14.311,20.25 14.53,20.47 Q14.75,20.689 14.75,21 Q14.75,21.311 14.53,21.53 Q14.311,21.75 14,21.75 L10,21.75 Q9.689,21.75 9.47,21.53 Q9.25,21.311 9.25,21 Q9.25,20.689 9.47,20.47 Q9.689,20.25 10,20.25 Z"/>
  <path fill="#292D32" d="M8.595,10.899 L3.835,8.149 Q3.566,7.994 3.485,7.694 Q3.405,7.394 3.561,7.125 Q3.716,6.856 4.016,6.775 Q4.316,6.695 4.585,6.851 L9.345,9.601 Q9.614,9.756 9.694,10.056 Q9.775,10.356 9.619,10.625 Q9.464,10.894 9.164,10.974 Q8.864,11.055 8.595,10.899 Z"/>
  <path fill="#292D32" d="M19.415,17.149 L14.655,14.399 Q14.386,14.244 14.305,13.944 Q14.225,13.644 14.381,13.375 Q14.536,13.106 14.836,13.025 Q15.136,12.945 15.405,13.101 L20.165,15.851 Q20.434,16.006 20.514,16.306 Q20.595,16.606 20.439,16.875 Q20.284,17.144 19.984,17.224 Q19.684,17.305 19.415,17.149 Z"/>
  <path fill="#292D32" d="M2.561,8.855 L4.561,5.395 Q4.716,5.126 5.016,5.045 Q5.316,4.965 5.585,5.121 Q5.854,5.276 5.935,5.576 Q6.015,5.876 5.859,6.145 L3.859,9.605 Q3.704,9.874 3.404,9.955 Q3.104,10.035 2.835,9.879 Q2.566,9.724 2.485,9.424 Q2.405,9.124 2.561,8.855 Z"/>
  <path fill="#292D32" d="M18.141,17.855 L20.141,14.395 Q20.296,14.126 20.596,14.045 Q20.896,13.965 21.165,14.121 Q21.434,14.276 21.515,14.576 Q21.595,14.876 21.439,15.145 L19.439,18.605 Q19.284,18.874 18.984,18.955 Q18.684,19.035 18.415,18.879 Q18.146,18.724 18.065,18.424 Q17.985,18.124 18.141,17.855 Z"/>
  <path fill="#292D32" d="M16.25,12 Q16.25,13.136 15.68,14.125 Q14.445,16.25 12,16.25 Q9.555,16.25 8.321,14.127 Q7.75,13.136 7.75,12 Q7.75,10.864 8.32,9.875 Q9.555,7.75 12,7.75 Q14.445,7.75 15.679,9.873 Q16.25,10.864 16.25,12 Z M14.75,12 Q14.75,11.266 14.381,10.627 Q13.582,9.25 12,9.25 Q10.418,9.25 9.62,10.625 Q9.25,11.266 9.25,12 Q9.25,12.734 9.619,13.373 Q10.418,14.75 12,14.75 Q13.582,14.75 14.38,13.375 Q14.75,12.734 14.75,12 Z"/>
  <path fill="#292D32" d="M20.165,8.149 L15.405,10.899 Q15.136,11.055 14.836,10.974 Q14.536,10.894 14.381,10.625 Q14.225,10.356 14.305,10.056 Q14.386,9.756 14.655,9.601 L19.415,6.851 Q19.684,6.695 19.984,6.775 Q20.284,6.856 20.439,7.125 Q20.595,7.394 20.514,7.694 Q20.434,7.994 20.165,8.149 Z"/>
  <path fill="#292D32" d="M9.345,14.399 L4.585,17.149 Q4.316,17.305 4.016,17.224 Q3.716,17.144 3.561,16.875 Q3.405,16.606 3.485,16.306 Q3.566,16.006 3.835,15.851 L8.595,13.101 Q8.864,12.945 9.164,13.025 Q9.464,13.106 9.619,13.375 Q9.775,13.644 9.694,13.944 Q9.614,14.244 9.345,14.399 Z"/>
  <path fill="#292D32" d="M20.141,9.605 L18.141,6.145 Q17.985,5.876 18.065,5.576 Q18.146,5.276 18.415,5.121 Q18.684,4.965 18.984,5.045 Q19.284,5.126 19.439,5.395 L21.439,8.855 Q21.595,9.124 21.515,9.424 Q21.434,9.724 21.165,9.879 Q20.896,10.035 20.596,9.955 Q20.296,9.874 20.141,9.605 Z"/>
  <path fill="#292D32" d="M4.561,18.605 L2.561,15.145 Q2.405,14.876 2.485,14.576 Q2.566,14.276 2.835,14.121 Q3.104,13.965 3.404,14.045 Q3.704,14.126 3.859,14.395 L5.859,17.855 Q6.015,18.124 5.935,18.424 Q5.854,18.724 5.585,18.879 Q5.316,19.035 5.016,18.955 Q4.716,18.874 4.561,18.605 Z"/>
</svg>

