<svg xmlns="http://www.w3.org/2000/svg" width="24" height="24" viewBox="0 0 24 24">
  <defs/>
  <path fill="#292D32" opacity="0.4" d="M4.17,15.3 L8.7,19.83 C10.56,21.69 13.58,21.69 15.45,19.83 L19.84,15.44 C21.7,13.58 21.7,10.56 19.84,8.69 L15.3,4.17 C14.35,3.22 13.04,2.71 11.7,2.78 L6.7,3.02 C4.7,3.11 3.11,4.7 3.01,6.69 L2.77,11.69 C2.71,13.04 3.22,14.35 4.17,15.3 Z"/>
  <path fill="#292D32" d="M9.499,12.38 C11.09,12.38 12.379,11.091 12.379,9.5 C12.379,7.91 11.09,6.62 9.499,6.62 C7.909,6.62 6.619,7.91 6.619,9.5 C6.619,11.091 7.909,12.38 9.499,12.38 Z"/>
  <path fill="#292D32" d="M12.999,17.75 C12.809,17.75 12.62,17.68 12.47,17.53 C12.18,17.24 12.18,16.76 12.47,16.47 L16.47,12.47 C16.759,12.18 17.239,12.18 17.529,12.47 C17.82,12.76 17.82,13.24 17.529,13.53 L13.53,17.53 C13.38,17.68 13.19,17.75 12.999,17.75 Z"/>
</svg>

