<svg xmlns="http://www.w3.org/2000/svg" width="24" height="24" viewBox="0 0 24 24">
  <defs/>
  <path fill="#292D32" d="M19.831,8.7 L15.3,4.17 C14.351,3.22 13.04,2.71 11.7,2.78 L6.7,3.02 C4.7,3.11 3.11,4.7 3.01,6.69 L2.77,11.69 C2.71,13.03 3.21,14.34 4.16,15.29 L8.69,19.82 C10.55,21.68 13.57,21.68 15.441,19.82 L19.831,15.43 C21.701,13.58 21.701,10.56 19.831,8.7 Z M9.5,12.38 C7.91,12.38 6.62,11.09 6.62,9.5 C6.62,7.91 7.91,6.62 9.5,6.62 C11.091,6.62 12.38,7.91 12.38,9.5 C12.38,11.09 11.091,12.38 9.5,12.38 Z"/>
</svg>

