<svg xmlns="http://www.w3.org/2000/svg" width="24" height="24" viewBox="0 0 24 24">
  <defs/>
  <path fill="#292D32" d="M14.77,4.7 Q13.507,3.437 11.74,3.529 L6.736,3.769 Q3.902,3.897 3.76,6.728 L3.52,11.726 Q3.44,13.509 4.691,14.76 L9.221,19.29 Q12.058,22.127 14.912,19.288 L19.3,14.9 Q22.137,12.063 19.299,9.209 L18.17,8.08 Q17.95,7.861 17.95,7.55 Q17.95,7.239 18.17,7.02 Q18.39,6.8 18.701,6.8 Q19.011,6.8 19.231,7.02 L20.362,8.151 Q21.976,9.773 21.976,12.059 Q21.976,14.346 20.361,15.96 L15.969,20.352 Q14.347,21.965 12.062,21.965 Q9.775,21.965 8.16,20.35 L3.63,15.82 Q1.912,14.102 2.021,11.654 L2.261,6.652 Q2.472,2.46 6.665,2.271 L11.661,2.031 Q14.095,1.904 15.831,3.64 Q16.05,3.859 16.05,4.17 Q16.05,4.481 15.831,4.7 Q15.611,4.92 15.3,4.92 Q14.99,4.92 14.77,4.7 Z"/>
  <path fill="#292D32" d="M8.808,11.112 Q9.127,11.25 9.5,11.25 Q10.224,11.25 10.737,10.737 Q11.25,10.224 11.25,9.5 Q11.25,8.776 10.737,8.263 Q10.224,7.75 9.5,7.75 Q8.776,7.75 8.263,8.263 Q7.75,8.776 7.75,9.5 Q7.75,9.811 7.53,10.03 Q7.311,10.25 7,10.25 Q6.689,10.25 6.47,10.03 Q6.25,9.811 6.25,9.5 Q6.25,6.25 9.5,6.25 Q12.75,6.25 12.75,9.5 Q12.75,12.75 9.5,12.75 Q8.816,12.75 8.212,12.488 Q7.927,12.365 7.813,12.076 Q7.698,11.787 7.822,11.502 Q7.945,11.217 8.234,11.103 Q8.523,10.988 8.808,11.112 Z"/>
  <path fill="#292D32" d="M12.47,16.47 L16.47,12.47 Q16.689,12.25 17,12.25 Q17.311,12.25 17.53,12.47 Q17.75,12.689 17.75,13 Q17.75,13.311 17.53,13.53 L13.53,17.53 Q13.311,17.75 13,17.75 Q12.689,17.75 12.47,17.53 Q12.25,17.311 12.25,17 Q12.25,16.689 12.47,16.47 Z"/>
</svg>

