<svg xmlns="http://www.w3.org/2000/svg" width="24" height="24" viewBox="0 0 24 24">
  <defs/>
  <path fill="#292D32" d="M12.069,8.95 C12.029,8.95 11.969,8.95 11.919,8.95 C10.869,8.91 10.039,8.06 10.039,7 C10.039,5.92 10.909,5.05 11.989,5.05 C13.069,5.05 13.939,5.93 13.939,7 C13.949,8.06 13.119,8.92 12.069,8.95 Z"/>
  <path fill="#292D32" d="M9.249,11.96 C7.919,12.85 7.919,14.3 9.249,15.19 C10.759,16.2 13.239,16.2 14.749,15.19 C16.079,14.3 16.079,12.85 14.749,11.96 C13.239,10.96 10.77,10.96 9.249,11.96 Z"/>
  <path fill="#292D32" opacity="0.4" d="M18,2 L6,2 C4.34,2 3,3.33 3,4.97 L3,15.88 C3,17.52 4.34,18.85 6,18.85 L6.76,18.85 C7.56,18.85 8.32,19.16 8.88,19.72 L10.59,21.41 C11.37,22.18 12.64,22.18 13.42,21.41 L15.13,19.72 C15.69,19.16 16.46,18.85 17.25,18.85 L18,18.85 C19.66,18.85 21,17.52 21,15.88 L21,4.97 C21,3.33 19.66,2 18,2 Z M12,5.05 C13.08,5.05 13.95,5.93 13.95,7 C13.95,8.06 13.11,8.91 12.07,8.95 C12.03,8.95 11.97,8.95 11.92,8.95 C10.87,8.91 10.04,8.06 10.04,7 C10.05,5.93 10.92,5.05 12,5.05 Z M14.75,15.19 C13.24,16.2 10.76,16.2 9.25,15.19 C7.92,14.31 7.92,12.85 9.25,11.96 C10.77,10.95 13.25,10.95 14.75,11.96 C16.08,12.85 16.08,14.3 14.75,15.19 Z"/>
</svg>

