<svg xmlns="http://www.w3.org/2000/svg" width="24" height="24" viewBox="0 0 24 24">
  <defs/>
  <path fill="#292D32" opacity="0.4" d="M10.28,20.25 L17,20.25 C19.76,20.25 22,18.01 22,15.25 L22,8.75 C22,5.99 19.76,3.75 17,3.75 L10.28,3.75 C8.87,3.75 7.53,4.34 6.58,5.39 L3.05,9.27 C1.64,10.82 1.64,13.18 3.05,14.73 L6.58,18.61 C7.53,19.66 8.87,20.25 10.28,20.25 Z"/>
  <path fill="#292D32" d="M14.59,12 L16.53,10.06 C16.82,9.77 16.82,9.29 16.53,9 C16.24,8.71 15.76,8.71 15.47,9 L13.53,10.94 L11.59,9 C11.3,8.71 10.82,8.71 10.53,9 C10.24,9.29 10.24,9.77 10.53,10.06 L12.47,12 L10.53,13.94 C10.24,14.23 10.24,14.71 10.53,15 C10.68,15.15 10.87,15.22 11.06,15.22 C11.25,15.22 11.44,15.15 11.59,15 L13.53,13.06 L15.47,15 C15.62,15.15 15.81,15.22 16,15.22 C16.19,15.22 16.38,15.15 16.53,15 C16.82,14.71 16.82,14.23 16.53,13.94 L14.59,12 Z"/>
</svg>

