<svg xmlns="http://www.w3.org/2000/svg" width="24" height="24" viewBox="0 0 24 24">
  <defs/>
  <path fill="#292D32" d="M14.669,21.65 L4.219,21.65 C3.119,21.65 2.149,21.08 1.619,20.12 C1.089,19.16 1.119,18.03 1.699,17.1 L4.469,12.67 C4.689,12.32 4.689,11.67 4.469,11.33 L1.699,6.9 C1.119,5.97 1.089,4.84 1.619,3.88 C2.149,2.92 3.129,2.35 4.219,2.35 L15.659,2.35 C16.599,2.35 17.689,2.95 18.179,3.75 L22.359,10.43 C22.919,11.33 22.869,12.71 22.229,13.56 L17.049,20.46 C16.539,21.14 15.519,21.65 14.669,21.65 Z M4.219,3.85 C3.679,3.85 3.189,4.13 2.929,4.61 C2.669,5.09 2.679,5.65 2.969,6.11 L5.739,10.54 C6.259,11.38 6.259,12.64 5.739,13.48 L2.969,17.91 C2.679,18.37 2.669,18.93 2.929,19.41 C3.189,19.89 3.679,20.17 4.219,20.17 L14.669,20.17 C15.049,20.17 15.619,19.88 15.849,19.58 L21.029,12.68 C21.299,12.32 21.329,11.63 21.09,11.25 L16.909,4.57 C16.689,4.21 16.079,3.88 15.659,3.88 L4.219,3.88 L4.219,3.85 Z"/>
</svg>

