<svg xmlns="http://www.w3.org/2000/svg" width="24" height="24" viewBox="0 0 24 24">
  <defs/>
  <path fill="#292D32" d="M18,19.61 L17.24,19.61 Q16.301,19.61 15.65,20.26 L13.937,21.953 Q11.995,23.871 10.053,21.954 L8.343,20.263 Q7.689,19.61 6.75,19.61 L6,19.61 Q2.25,19.61 2.25,15.89 L2.25,4.97 Q2.25,1.25 6,1.25 L18,1.25 Q21.75,1.25 21.75,4.97 L21.75,15.88 Q21.75,19.61 18,19.61 Z M18,18.11 Q20.25,18.11 20.25,15.88 L20.25,4.97 Q20.25,2.75 18,2.75 L6,2.75 Q3.75,2.75 3.75,4.97 L3.75,15.89 Q3.75,18.11 6,18.11 L6.75,18.11 Q8.311,18.11 9.397,19.197 L11.107,20.886 Q11.995,21.763 12.883,20.887 L14.59,19.2 Q15.679,18.11 17.24,18.11 Z"/>
  <path fill="#292D32" opacity="0.4" d="M12.069,9.7 L11.919,9.7 Q11.905,9.7 11.891,9.699 Q9.289,9.6 9.289,7 Q9.289,5.879 10.079,5.089 Q10.868,4.3 11.989,4.3 Q14.689,4.3 14.689,7 Q14.714,9.625 12.091,9.699 Q12.08,9.7 12.069,9.7 Z M12.058,8.2 Q13.2,8.162 13.189,7 Q13.189,6.505 12.838,6.153 Q12.486,5.8 11.989,5.8 Q11.49,5.8 11.139,6.15 Q10.789,6.5 10.789,7 Q10.789,8.15 11.934,8.2 L12.058,8.2 Z"/>
  <path fill="#292D32" opacity="0.4" d="M8.837,11.333 Q12.01,9.246 15.167,11.337 Q16.497,12.227 16.497,13.575 Q16.497,14.923 15.166,15.813 Q12,17.932 8.832,15.813 Q7.502,14.923 7.502,13.575 Q7.502,12.227 8.832,11.337 Z M9.002,13.575 Q9.002,14.122 9.667,14.567 Q12,16.127 14.333,14.567 Q14.997,14.122 14.997,13.575 Q14.997,13.028 14.332,12.583 Q12.008,11.044 9.664,12.585 Q9.002,13.029 9.002,13.575 Z"/>
</svg>

