<svg xmlns="http://www.w3.org/2000/svg" width="24" height="24" viewBox="0 0 24 24">
  <defs/>
  <path fill="#292D32" d="M3.874,16.057 Q2.147,14.329 2.256,11.88 L2.496,6.879 Q2.706,2.686 6.899,2.497 L11.896,2.257 Q14.329,2.13 16.064,3.865 L20.607,8.387 Q22.22,10.009 22.22,12.295 Q22.22,14.582 20.605,16.197 L16.214,20.588 Q14.592,22.201 12.306,22.201 Q10.019,22.201 8.404,20.587 Z M4.935,14.996 L9.465,19.526 Q12.302,22.363 15.156,19.525 L19.544,15.136 Q22.382,12.299 19.543,9.445 L15.006,4.928 Q13.741,3.663 11.974,3.755 L6.971,3.996 Q4.136,4.123 3.994,6.954 L3.754,11.952 Q3.675,13.736 4.935,14.996 Z"/>
  <path fill="#292D32" d="M9.735,12.976 Q6.485,12.976 6.485,9.726 Q6.485,8.38 7.437,7.428 Q8.389,6.476 9.735,6.476 Q12.985,6.476 12.985,9.726 Q12.985,12.976 9.735,12.976 Z M9.735,11.476 Q11.485,11.476 11.485,9.726 Q11.485,9.001 10.972,8.489 Q10.46,7.976 9.735,7.976 Q9.01,7.976 8.497,8.489 Q7.985,9.001 7.985,9.726 Q7.985,10.451 8.497,10.964 Q9.01,11.476 9.735,11.476 Z"/>
  <path fill="#292D32" d="M12.705,16.696 L16.705,12.696 Q16.924,12.476 17.235,12.476 Q17.546,12.476 17.765,12.696 Q17.985,12.916 17.985,13.226 Q17.985,13.537 17.765,13.757 L13.765,17.757 Q13.546,17.976 13.235,17.976 Q12.924,17.976 12.705,17.757 Q12.485,17.537 12.485,17.226 Q12.485,16.916 12.705,16.696 Z"/>
</svg>

