<svg xmlns="http://www.w3.org/2000/svg" width="24" height="24" viewBox="0 0 24 24">
  <defs/>
  <path fill="#292D32" d="M18,2 L6,2 C4.34,2 3,3.33 3,4.97 L3,15.88 C3,17.52 4.34,18.86 6,18.86 L6.76,18.86 C7.55,18.86 8.32,19.17 8.88,19.73 L10.59,21.42 C11.37,22.19 12.63,22.19 13.41,21.42 L15.12,19.73 C15.68,19.17 16.45,18.86 17.24,18.86 L18,18.86 C19.66,18.86 21,17.52 21,15.88 L21,4.97 C21,3.33 19.66,2 18,2 Z M12,5.55 C13.08,5.55 13.95,6.43 13.95,7.5 C13.95,8.56 13.11,9.41 12.07,9.45 C12.03,9.45 11.97,9.45 11.92,9.45 C10.87,9.41 10.04,8.56 10.04,7.5 C10.05,6.43 10.92,5.55 12,5.55 Z M14.75,14.69 C13.24,15.7 10.76,15.7 9.25,14.69 C7.92,13.81 7.92,12.35 9.25,11.46 C10.77,10.45 13.25,10.45 14.75,11.46 C16.08,12.35 16.08,13.8 14.75,14.69 Z"/>
</svg>

