<svg xmlns="http://www.w3.org/2000/svg" width="24" height="24" viewBox="0 0 24 24">
  <defs/>
  <path fill="#292D32" d="M12.069,21.98 C10.659,21.98 9.239,21.44 8.169,20.37 L3.639,15.84 C2.539,14.74 1.959,13.22 2.029,11.67 L2.269,6.66 C2.379,4.27 4.269,2.38 6.669,2.26 L11.669,2.02 C13.229,1.95 14.739,2.53 15.839,3.63 L20.369,8.16 C22.519,10.31 22.519,13.82 20.369,15.97 L15.979,20.36 C14.899,21.44 13.489,21.98 12.069,21.98 Z M4.699,14.77 L9.229,19.3 C10.799,20.87 13.349,20.87 14.919,19.3 L19.309,14.91 C20.879,13.34 20.879,10.79 19.309,9.22 L14.769,4.7 C13.969,3.9 12.879,3.48 11.729,3.53 L6.729,3.77 C5.109,3.84 3.839,5.11 3.759,6.73 L3.519,11.74 C3.469,12.86 3.899,13.97 4.699,14.77 Z"/>
  <path fill="#292D32" d="M9.5,12.75 C7.71,12.75 6.25,11.29 6.25,9.5 C6.25,7.71 7.71,6.25 9.5,6.25 C11.29,6.25 12.75,7.71 12.75,9.5 C12.75,11.29 11.29,12.75 9.5,12.75 Z M9.5,7.75 C8.54,7.75 7.75,8.54 7.75,9.5 C7.75,10.46 8.54,11.25 9.5,11.25 C10.46,11.25 11.25,10.46 11.25,9.5 C11.25,8.54 10.46,7.75 9.5,7.75 Z"/>
  <path fill="#292D32" d="M12.999,17.75 C12.809,17.75 12.62,17.68 12.47,17.53 C12.18,17.24 12.18,16.76 12.47,16.47 L16.47,12.47 C16.759,12.18 17.239,12.18 17.529,12.47 C17.82,12.76 17.82,13.24 17.529,13.53 L13.53,17.53 C13.38,17.68 13.19,17.75 12.999,17.75 Z"/>
</svg>

