<svg xmlns="http://www.w3.org/2000/svg" width="24" height="24" viewBox="0 0 24 24">
  <defs/>
  <path fill="#292D32" d="M12.069,21.98 C10.659,21.98 9.239,21.44 8.169,20.37 L3.639,15.84 C2.539,14.74 1.959,13.22 2.029,11.67 L2.269,6.67 C2.379,4.28 4.269,2.39 6.669,2.27 L11.669,2.03 C13.219,1.97 14.739,2.54 15.839,3.64 L20.369,8.17 C22.519,10.32 22.519,13.83 20.369,15.98 L15.979,20.37 C14.899,21.44 13.489,21.98 12.069,21.98 Z M4.699,14.77 L9.229,19.3 C9.989,20.06 10.999,20.48 12.069,20.48 C13.139,20.48 14.149,20.06 14.909,19.3 L19.299,14.91 C20.059,14.15 20.479,13.14 20.479,12.07 C20.479,11 20.059,9.99 19.299,9.23 L14.769,4.7 C13.969,3.9 12.859,3.47 11.739,3.53 L6.739,3.77 C5.109,3.84 3.839,5.11 3.759,6.73 L3.519,11.73 C3.469,12.86 3.899,13.97 4.699,14.77 Z"/>
  <path fill="#292D32" d="M9.5,12.75 C7.71,12.75 6.25,11.29 6.25,9.5 C6.25,7.71 7.71,6.25 9.5,6.25 C11.29,6.25 12.75,7.71 12.75,9.5 C12.75,11.29 11.29,12.75 9.5,12.75 Z M9.5,7.75 C8.54,7.75 7.75,8.54 7.75,9.5 C7.75,10.46 8.54,11.25 9.5,11.25 C10.46,11.25 11.25,10.46 11.25,9.5 C11.25,8.54 10.46,7.75 9.5,7.75 Z"/>
</svg>

