<svg xmlns="http://www.w3.org/2000/svg" width="24" height="24" viewBox="0 0 24 24">
  <defs/>
  <path fill="#292D32" d="M10.28,21 Q7.731,21 6.025,19.115 L2.495,15.235 Q-0.448,12 2.495,8.765 L6.024,4.887 Q7.731,3 10.28,3 L17,3 Q19.38,3 21.065,4.685 Q22.75,6.369 22.75,8.75 L22.75,15.25 Q22.75,17.631 21.065,19.315 Q19.38,21 17,21 Z M10.28,19.5 L17,19.5 Q18.759,19.5 20.004,18.255 Q21.25,17.009 21.25,15.25 L21.25,8.75 Q21.25,6.991 20.004,5.745 Q18.759,4.5 17,4.5 L10.28,4.5 Q8.396,4.5 7.136,5.893 L3.604,9.775 Q1.58,12 3.604,14.225 L7.134,18.105 Q8.396,19.5 10.28,19.5 Z"/>
  <g opacity="0.4">
    <path fill="#292D32" d="M15.47,15.001 L10.53,10.061 Q10.31,9.841 10.31,9.53 Q10.311,9.22 10.53,9 Q10.75,8.78 11.061,8.78 Q11.371,8.78 11.591,9 L16.531,13.94 Q16.75,14.16 16.75,14.47 Q16.75,14.781 16.531,15.001 Q16.311,15.22 16,15.22 Q15.69,15.22 15.47,15.001 Z"/>
    <path fill="#292D32" d="M10.53,13.94 L15.47,9 Q15.69,8.78 16,8.78 Q16.311,8.78 16.531,9 Q16.75,9.22 16.75,9.53 Q16.75,9.841 16.531,10.061 L11.591,15.001 Q11.371,15.22 11.061,15.22 Q10.75,15.22 10.53,15.001 Q10.311,14.781 10.31,14.47 Q10.31,14.16 10.53,13.94 Z"/>
  </g>
</svg>

