<svg xmlns="http://www.w3.org/2000/svg" width="24" height="24" viewBox="0 0 24 24">
  <defs/>
  <path fill="#292D32" d="M4.219,3.85 Q3.35,3.85 2.929,4.61 Q2.508,5.371 2.968,6.116 L5.735,10.542 Q6.656,12.01 5.735,13.479 L2.965,17.908 Q2.503,18.644 2.925,19.407 Q3.349,20.17 4.219,20.17 L14.67,20.17 Q15.404,20.17 15.851,19.578 L21.03,12.68 Q21.554,11.984 21.094,11.248 L16.914,4.568 Q16.481,3.87 15.66,3.87 L8.659,3.87 Q8.349,3.87 8.129,3.65 Q7.909,3.431 7.909,3.12 Q7.909,2.809 8.129,2.59 Q8.349,2.37 8.659,2.37 L15.66,2.37 Q17.315,2.37 18.185,3.772 L22.365,10.453 Q23.373,12.064 22.229,13.58 L17.048,20.482 Q16.151,21.67 14.67,21.67 L4.219,21.67 Q2.465,21.67 1.614,20.134 Q0.761,18.596 1.694,17.112 L4.464,12.682 Q4.885,12.01 4.464,11.338 L1.691,6.904 Q0.771,5.413 1.617,3.883 Q2.466,2.35 4.219,2.35 Q4.53,2.35 4.75,2.57 Q4.969,2.789 4.969,3.1 Q4.969,3.411 4.75,3.63 Q4.53,3.85 4.219,3.85 Z"/>
</svg>

