<svg xmlns="http://www.w3.org/2000/svg" width="24" height="24" viewBox="0 0 24 24">
  <defs/>
  <path fill="#292D32" d="M4.219,2.35 L15.659,2.35 Q17.315,2.35 18.186,3.755 L22.365,10.432 Q23.364,12.055 22.228,13.562 L17.049,20.46 Q16.151,21.65 14.669,21.65 L4.219,21.65 Q2.465,21.65 1.617,20.117 Q0.77,18.587 1.691,17.096 L4.463,12.662 Q4.885,11.99 4.464,11.319 L1.693,6.888 Q0.768,5.41 1.622,3.879 Q2.474,2.35 4.219,2.35 Z M4.219,3.85 Q3.355,3.85 2.932,4.609 Q2.51,5.365 2.965,6.092 L5.735,10.522 Q6.655,11.99 5.735,13.458 L2.967,17.884 Q2.508,18.629 2.929,19.391 Q3.349,20.15 4.219,20.15 L14.669,20.15 Q15.404,20.15 15.849,19.56 L21.03,12.659 Q21.55,11.97 21.093,11.228 L16.912,4.546 Q16.48,3.85 15.659,3.85 Z"/>
</svg>

