<svg xmlns="http://www.w3.org/2000/svg" width="24" height="24" viewBox="0 0 24 24">
  <defs/>
  <path fill="#292D32" d="M19.3,14.92 Q22.137,12.083 19.299,9.229 L14.77,4.7 Q13.507,3.437 11.74,3.529 L6.736,3.769 Q3.902,3.897 3.76,6.728 L3.52,11.726 Q3.44,13.509 4.691,14.76 L9.221,19.29 Q12.058,22.127 14.912,19.288 L16.43,17.77 Q16.65,17.55 16.96,17.55 Q17.271,17.55 17.491,17.77 Q17.711,17.989 17.711,18.3 Q17.711,18.611 17.491,18.83 L15.969,20.352 Q14.347,21.965 12.062,21.965 Q9.775,21.965 8.16,20.35 L3.63,15.82 Q1.912,14.102 2.021,11.654 L2.261,6.652 Q2.472,2.46 6.665,2.271 L11.661,2.031 Q14.095,1.904 15.831,3.64 L20.362,8.171 Q21.976,9.793 21.976,12.079 Q21.976,14.366 20.361,15.98 Q20.141,16.2 19.83,16.2 Q19.52,16.2 19.3,15.98 Q19.08,15.761 19.08,15.45 Q19.08,15.139 19.3,14.92 Z"/>
  <path fill="#292D32" d="M7.75,9.5 Q7.75,10.224 8.263,10.737 Q8.776,11.25 9.5,11.25 Q10.224,11.25 10.737,10.737 Q11.25,10.224 11.25,9.5 Q11.25,8.776 10.737,8.263 Q10.224,7.75 9.5,7.75 Q9.189,7.75 8.97,7.53 Q8.75,7.311 8.75,7 Q8.75,6.689 8.97,6.47 Q9.189,6.25 9.5,6.25 Q12.75,6.25 12.75,9.5 Q12.75,12.75 9.5,12.75 Q6.25,12.75 6.25,9.5 Q6.25,9.189 6.47,8.97 Q6.689,8.75 7,8.75 Q7.311,8.75 7.53,8.97 Q7.75,9.189 7.75,9.5 Z"/>
</svg>

