<svg xmlns="http://www.w3.org/2000/svg" width="24" height="24" viewBox="0 0 24 24">
  <defs/>
  <path fill="#292D32" d="M18,19.61 L17.24,19.61 Q16.301,19.61 15.65,20.26 L13.937,21.953 Q11.995,23.871 10.053,21.954 L8.343,20.263 Q7.689,19.61 6.75,19.61 L6,19.61 Q2.25,19.61 2.25,15.89 L2.25,4.97 Q2.25,1.25 6,1.25 L18,1.25 Q21.75,1.25 21.75,4.97 L21.75,15.88 Q21.75,19.61 18,19.61 Z M18,18.11 Q20.25,18.11 20.25,15.88 L20.25,4.97 Q20.25,2.75 18,2.75 L6,2.75 Q3.75,2.75 3.75,4.97 L3.75,15.89 Q3.75,18.11 6,18.11 L6.75,18.11 Q8.311,18.11 9.397,19.197 L11.107,20.886 Q11.995,21.763 12.883,20.887 L14.59,19.2 Q15.679,18.11 17.24,18.11 Z"/>
  <path fill="#292D32" d="M12.07,9.7 L11.92,9.7 Q11.906,9.7 11.891,9.7 Q9.29,9.6 9.29,7 Q9.29,4.3 11.99,4.3 Q14.69,4.3 14.69,7 Q14.715,9.625 12.091,9.7 Q12.081,9.7 12.07,9.7 Z M12.058,8.2 Q13.201,8.162 13.19,7 Q13.19,5.8 11.99,5.8 Q10.79,5.8 10.79,7 Q10.79,8.15 11.935,8.2 L12.058,8.2 Z"/>
  <path fill="#292D32" d="M8.838,11.334 Q12.01,9.246 15.167,11.337 Q16.497,12.227 16.497,13.575 Q16.497,14.923 15.167,15.814 Q12,17.932 8.833,15.813 Q7.502,14.923 7.502,13.575 Q7.502,12.227 8.833,11.337 Z M9.002,13.575 Q9.002,14.122 9.667,14.567 Q12,16.127 14.333,14.567 Q14.997,14.122 14.997,13.575 Q14.997,13.028 14.333,12.583 Q12.009,11.044 9.665,12.585 Q9.002,13.029 9.002,13.575 Z"/>
</svg>

