<svg xmlns="http://www.w3.org/2000/svg" width="24" height="24" viewBox="0 0 24 24">
  <defs/>
  <path fill="#292D32" d="M17,21 L10.28,21 C8.66,21 7.11,20.31 6.03,19.12 L2.5,15.24 C0.82,13.4 0.82,10.62 2.5,8.77 L6.03,4.89 C7.11,3.69 8.66,3 10.28,3 L17,3 C20.17,3 22.75,5.58 22.75,8.75 L22.75,15.25 C22.75,18.42 20.17,21 17,21 Z M10.28,4.5 C9.09,4.5 7.94,5.01 7.14,5.89 L3.6,9.78 C2.45,11.05 2.45,12.96 3.6,14.23 L7.13,18.11 C7.93,18.99 9.08,19.5 10.27,19.5 L17,19.5 C19.34,19.5 21.25,17.59 21.25,15.25 L21.25,8.75 C21.25,6.41 19.34,4.5 17,4.5 L10.28,4.5 Z"/>
  <path fill="#292D32" d="M16,15.22 C15.81,15.22 15.62,15.15 15.47,15 L10.53,10.05 C10.24,9.76 10.24,9.28 10.53,8.99 C10.82,8.7 11.3,8.7 11.59,8.99 L16.53,13.94 C16.82,14.23 16.82,14.71 16.53,15 C16.38,15.15 16.19,15.22 16,15.22 Z"/>
  <path fill="#292D32" d="M11.06,15.22 C10.87,15.22 10.68,15.15 10.53,15 C10.24,14.71 10.24,14.23 10.53,13.94 L15.47,9 C15.76,8.71 16.24,8.71 16.53,9 C16.82,9.29 16.82,9.77 16.53,10.06 L11.59,15 C11.44,15.15 11.25,15.22 11.06,15.22 Z"/>
</svg>

