<svg xmlns="http://www.w3.org/2000/svg" width="24" height="24" viewBox="0 0 24 24">
  <defs/>
  <path fill="#292D32" d="M17.88,6.122 L3.92,20.082 C3.49,20.512 2.77,20.472 2.42,19.982 C1.92,19.292 1.82,18.332 2.34,17.502 L5.1,13.072 C5.47,12.482 5.47,11.522 5.1,10.932 L2.34,6.502 C1.41,5.022 2.48,3.102 4.22,3.102 L15.67,3.102 C16.35,3.102 17.19,3.572 17.55,4.142 L18.02,4.882 C18.26,5.282 18.21,5.792 17.88,6.122 Z"/>
  <path fill="#292D32" d="M21.63,13.112 L16.45,20.012 C16.09,20.502 15.29,20.902 14.67,20.902 L7.51,20.902 C6.62,20.902 6.17,19.822 6.8,19.192 L18.32,7.682 C18.77,7.232 19.54,7.312 19.88,7.862 L21.73,10.832 C22.13,11.472 22.09,12.502 21.63,13.112 Z"/>
</svg>

