<svg xmlns="http://www.w3.org/2000/svg" width="24" height="24" viewBox="0 0 24 24">
  <defs/>
  <path fill="#292D32" d="M17.879,6.12 L3.929,20.07 C3.499,20.5 2.779,20.46 2.429,19.97 C1.929,19.28 1.829,18.32 2.349,17.49 L5.109,13.06 C5.479,12.47 5.479,11.51 5.109,10.92 L2.349,6.49 C1.419,5.01 2.489,3.09 4.229,3.09 L15.679,3.09 C16.359,3.09 17.199,3.56 17.559,4.13 L18.029,4.87 C18.259,5.28 18.209,5.79 17.879,6.12 Z"/>
  <path fill="#292D32" opacity="0.4" d="M21.63,13.11 L16.45,20.01 C16.09,20.5 15.29,20.9 14.67,20.9 L7.51,20.9 C6.62,20.9 6.17,19.82 6.8,19.19 L18.31,7.68 C18.76,7.23 19.53,7.31 19.87,7.86 L21.72,10.83 C22.13,11.47 22.09,12.5 21.63,13.11 Z"/>
</svg>

