<svg xmlns="http://www.w3.org/2000/svg" width="24" height="24" viewBox="0 0 24 24">
  <defs/>
  <path fill="#292D32" d="M4.22,2.35 L15.66,2.35 Q17.315,2.35 18.187,3.754 L22.366,10.432 Q23.365,12.055 22.229,13.562 L17.05,20.46 Q16.151,21.65 14.67,21.65 L4.22,21.65 Q2.466,21.65 1.618,20.117 Q0.771,18.587 1.692,17.096 L4.464,12.662 Q4.886,11.99 4.465,11.318 L1.694,6.888 Q0.769,5.409 1.622,3.879 Q2.474,2.35 4.22,2.35 Z M4.22,3.85 Q3.356,3.85 2.933,4.609 Q2.511,5.365 2.966,6.092 L5.735,10.522 Q6.656,11.99 5.736,13.458 L2.968,17.884 Q2.508,18.629 2.93,19.391 Q3.35,20.15 4.22,20.15 L14.67,20.15 Q15.404,20.15 15.85,19.56 L21.031,12.658 Q21.551,11.97 21.094,11.228 L16.913,4.546 Q16.481,3.85 15.66,3.85 Z"/>
</svg>

