<svg xmlns="http://www.w3.org/2000/svg" width="24" height="24" viewBox="0 0 24 24">
  <defs/>
  <path fill="#292D32" d="M12,22.75 C11.3,22.75 10.59,22.48 10.06,21.95 L8.35,20.26 C7.93,19.84 7.35,19.61 6.76,19.61 L6,19.61 C3.93,19.61 2.25,17.94 2.25,15.89 L2.25,4.97 C2.25,2.92 3.93,1.25 6,1.25 L18,1.25 C20.07,1.25 21.75,2.92 21.75,4.97 L21.75,15.88 C21.75,17.93 20.07,19.6 18,19.6 L17.24,19.6 C16.65,19.6 16.07,19.84 15.65,20.25 L13.94,21.94 C13.41,22.48 12.7,22.75 12,22.75 Z M6,2.75 C4.76,2.75 3.75,3.75 3.75,4.97 L3.75,15.88 C3.75,17.11 4.76,18.1 6,18.1 L6.76,18.1 C7.75,18.1 8.71,18.5 9.41,19.19 L11.12,20.88 C11.61,21.36 12.4,21.36 12.89,20.88 L14.6,19.19 C15.3,18.5 16.26,18.1 17.25,18.1 L18,18.1 C19.24,18.1 20.25,17.1 20.25,15.88 L20.25,4.97 C20.25,3.74 19.24,2.75 18,2.75 L6,2.75 Z"/>
  <path fill="#292D32" d="M12.071,9.7 C12.051,9.7 12.021,9.7 12.001,9.7 C11.971,9.7 11.931,9.7 11.901,9.7 C10.441,9.65 9.301,8.47 9.301,7 C9.301,5.51 10.511,4.3 12.001,4.3 C13.491,4.3 14.701,5.51 14.701,7 C14.691,8.47 13.551,9.65 12.091,9.7 C12.091,9.7 12.081,9.7 12.071,9.7 Z M12.001,5.8 C11.341,5.8 10.801,6.34 10.801,7 C10.801,7.65 11.311,8.18 11.951,8.2 C11.951,8.19 12.011,8.19 12.081,8.2 C12.711,8.16 13.201,7.64 13.201,7 C13.201,6.34 12.661,5.8 12.001,5.8 Z"/>
  <path fill="#292D32" d="M12,16.7 C10.86,16.7 9.72,16.4 8.83,15.81 C7.99,15.25 7.5,14.44 7.5,13.58 C7.5,12.72 7.98,11.9 8.83,11.34 C10.61,10.16 13.39,10.16 15.16,11.34 C16,11.9 16.49,12.72 16.49,13.57 C16.49,14.43 16.01,15.24 15.16,15.81 C14.28,16.41 13.14,16.7 12,16.7 Z M9.66,12.59 C9.23,12.88 9,13.23 9,13.58 C9,13.93 9.24,14.28 9.66,14.57 C10.93,15.42 13.06,15.42 14.33,14.57 C14.76,14.28 15,13.93 14.99,13.58 C14.99,13.23 14.75,12.88 14.33,12.59 C13.07,11.74 10.93,11.74 9.66,12.59 Z"/>
</svg>

