<svg xmlns="http://www.w3.org/2000/svg" width="24" height="24" viewBox="0 0 24 24">
  <defs/>
  <path fill="#292D32" d="M12.92,4.5 L10.28,4.5 Q8.396,4.5 7.136,5.893 L3.604,9.775 Q1.58,12 3.604,14.225 L7.134,18.105 Q8.408,19.5 10.28,19.5 L17,19.5 Q18.759,19.5 20.004,18.255 Q21.25,17.009 21.25,15.25 L21.25,8.75 Q21.25,6.991 20.004,5.745 Q18.759,4.5 17,4.5 Q16.689,4.5 16.469,4.28 Q16.25,4.061 16.25,3.75 Q16.25,3.439 16.469,3.22 Q16.689,3 17,3 Q19.38,3 21.065,4.685 Q22.75,6.369 22.75,8.75 L22.75,15.25 Q22.75,17.631 21.065,19.315 Q19.38,21 17,21 L10.28,21 Q7.747,21 6.025,19.115 L2.495,15.235 Q-0.448,12 2.495,8.765 L6.024,4.887 Q7.731,3 10.28,3 L12.92,3 Q13.23,3 13.45,3.22 Q13.67,3.439 13.67,3.75 Q13.67,4.061 13.45,4.28 Q13.23,4.5 12.92,4.5 Z"/>
  <path fill="#292D32" d="M15.47,15 L10.53,10.06 Q10.311,9.841 10.31,9.53 Q10.31,9.219 10.53,9 Q10.75,8.78 11.06,8.78 Q11.371,8.78 11.591,9 L16.531,13.94 Q16.75,14.159 16.75,14.47 Q16.75,14.781 16.531,15 Q16.311,15.22 16,15.22 Q15.69,15.22 15.47,15 Z"/>
  <path fill="#292D32" d="M14.681,9.79 L15.471,9 Q15.69,8.78 16.001,8.78 Q16.312,8.78 16.531,9 Q16.751,9.219 16.751,9.53 Q16.751,9.841 16.531,10.06 L15.741,10.85 Q15.522,11.07 15.211,11.07 Q14.9,11.07 14.681,10.85 Q14.461,10.631 14.461,10.32 Q14.461,10.009 14.681,9.79 Z"/>
  <path fill="#292D32" d="M10.529,13.941 L12.809,11.651 Q13.028,11.431 13.339,11.43 Q13.65,11.429 13.87,11.648 Q14.09,11.868 14.09,12.178 Q14.091,12.489 13.872,12.709 L11.592,14.999 Q11.373,15.219 11.062,15.22 Q10.751,15.221 10.531,15.001 Q10.311,14.782 10.311,14.472 Q10.31,14.161 10.529,13.941 Z"/>
</svg>

