<svg xmlns="http://www.w3.org/2000/svg" width="24" height="24" viewBox="0 0 24 24">
  <defs/>
  <path fill="#292D32" d="M19.999,19.26 L10.929,19.26 C10.479,19.26 10.109,18.89 10.109,18.44 C10.109,17.99 10.479,17.62 10.929,17.62 L19.999,17.62 C20.449,17.62 20.819,17.99 20.819,18.44 C20.819,18.9 20.449,19.26 19.999,19.26 Z"/>
  <path fill="#292D32" d="M19.999,12.97 L10.929,12.97 C10.479,12.97 10.109,12.6 10.109,12.15 C10.109,11.7 10.479,11.33 10.929,11.33 L19.999,11.33 C20.449,11.33 20.819,11.7 20.819,12.15 C20.819,12.6 20.449,12.97 19.999,12.97 Z"/>
  <path fill="#292D32" d="M19.999,6.67 L10.929,6.67 C10.479,6.67 10.109,6.3 10.109,5.85 C10.109,5.4 10.479,5.03 10.929,5.03 L19.999,5.03 C20.449,5.03 20.819,5.4 20.819,5.85 C20.819,6.3 20.449,6.67 19.999,6.67 Z"/>
  <path fill="#292D32" opacity="0.4" d="M4.91,8.03 C4.69,8.03 4.48,7.94 4.33,7.79 L3.42,6.88 C3.1,6.56 3.1,6.04 3.42,5.72 C3.74,5.4 4.26,5.4 4.58,5.72 L4.91,6.05 L7.05,3.91 C7.37,3.59 7.89,3.59 8.21,3.91 C8.53,4.23 8.53,4.75 8.21,5.07 L5.49,7.79 C5.33,7.94 5.13,8.03 4.91,8.03 Z"/>
  <path fill="#292D32" opacity="0.4" d="M4.91,14.33 C4.7,14.33 4.49,14.25 4.33,14.09 L3.42,13.18 C3.1,12.86 3.1,12.34 3.42,12.02 C3.74,11.7 4.26,11.7 4.58,12.02 L4.91,12.35 L7.05,10.21 C7.37,9.89 7.89,9.89 8.21,10.21 C8.53,10.53 8.53,11.05 8.21,11.37 L5.49,14.09 C5.33,14.25 5.12,14.33 4.91,14.33 Z"/>
  <path fill="#292D32" opacity="0.4" d="M4.91,20.33 C4.7,20.33 4.49,20.25 4.33,20.09 L3.42,19.18 C3.1,18.86 3.1,18.34 3.42,18.02 C3.74,17.7 4.26,17.7 4.58,18.02 L4.91,18.35 L7.05,16.21 C7.37,15.89 7.89,15.89 8.21,16.21 C8.53,16.53 8.53,17.05 8.21,17.37 L5.49,20.09 C5.33,20.25 5.12,20.33 4.91,20.33 Z"/>
</svg>

