<svg xmlns="http://www.w3.org/2000/svg" width="24" height="24" viewBox="0 0 24 24">
  <defs/>
  <path fill="#292D32" d="M19.999,19.261 L10.929,19.261 C10.479,19.261 10.109,18.891 10.109,18.441 C10.109,17.991 10.479,17.621 10.929,17.621 L19.999,17.621 C20.449,17.621 20.819,17.991 20.819,18.441 C20.819,18.901 20.449,19.261 19.999,19.261 Z"/>
  <path fill="#292D32" d="M19.999,12.968 L10.929,12.968 C10.479,12.968 10.109,12.598 10.109,12.148 C10.109,11.698 10.479,11.328 10.929,11.328 L19.999,11.328 C20.449,11.328 20.819,11.698 20.819,12.148 C20.819,12.598 20.449,12.968 19.999,12.968 Z"/>
  <path fill="#292D32" d="M19.999,6.671 L10.929,6.671 C10.479,6.671 10.109,6.301 10.109,5.851 C10.109,5.401 10.479,5.031 10.929,5.031 L19.999,5.031 C20.449,5.031 20.819,5.401 20.819,5.851 C20.819,6.301 20.449,6.671 19.999,6.671 Z"/>
  <path fill="#292D32" d="M4.91,8.032 C4.69,8.032 4.48,7.942 4.33,7.792 L3.42,6.882 C3.1,6.562 3.1,6.042 3.42,5.722 C3.74,5.402 4.26,5.402 4.58,5.722 L4.91,6.052 L7.05,3.912 C7.37,3.592 7.89,3.592 8.21,3.912 C8.53,4.232 8.53,4.752 8.21,5.072 L5.49,7.792 C5.33,7.942 5.13,8.032 4.91,8.032 Z"/>
  <path fill="#292D32" d="M4.91,14.329 C4.7,14.329 4.49,14.249 4.33,14.089 L3.42,13.179 C3.1,12.859 3.1,12.339 3.42,12.019 C3.74,11.699 4.26,11.699 4.58,12.019 L4.91,12.349 L7.05,10.209 C7.37,9.889 7.89,9.889 8.21,10.209 C8.53,10.529 8.53,11.049 8.21,11.369 L5.49,14.089 C5.33,14.249 5.12,14.329 4.91,14.329 Z"/>
  <path fill="#292D32" d="M4.91,20.329 C4.7,20.329 4.49,20.249 4.33,20.089 L3.42,19.179 C3.1,18.859 3.1,18.339 3.42,18.019 C3.74,17.699 4.26,17.699 4.58,18.019 L4.91,18.349 L7.05,16.209 C7.37,15.889 7.89,15.889 8.21,16.209 C8.53,16.529 8.53,17.049 8.21,17.369 L5.49,20.089 C5.33,20.249 5.12,20.329 4.91,20.329 Z"/>
</svg>

