<svg xmlns="http://www.w3.org/2000/svg" width="24" height="24" viewBox="0 0 24 24">
  <defs/>
  <path fill="#292D32" d="M12.369,8.13 L17.619,8.13 Q17.93,8.13 18.149,8.35 Q18.369,8.569 18.369,8.88 Q18.369,9.191 18.149,9.41 Q17.93,9.63 17.619,9.63 L12.369,9.63 Q12.058,9.63 11.839,9.41 Q11.619,9.191 11.619,8.88 Q11.619,8.569 11.839,8.35 Q12.058,8.13 12.369,8.13 Z"/>
  <path fill="#292D32" d="M6.911,8.35 L7.131,8.569 L8.851,6.85 Q9.07,6.63 9.381,6.63 Q9.692,6.63 9.911,6.85 Q10.131,7.069 10.131,7.38 Q10.131,7.691 9.911,7.91 L7.661,10.16 Q7.442,10.38 7.131,10.38 Q6.82,10.38 6.601,10.16 L5.851,9.41 Q5.631,9.191 5.631,8.88 Q5.631,8.569 5.851,8.35 Q6.07,8.13 6.381,8.13 Q6.692,8.13 6.911,8.35 Z"/>
  <path fill="#292D32" d="M12.369,15.13 L17.619,15.13 Q17.93,15.13 18.149,15.35 Q18.369,15.569 18.369,15.88 Q18.369,16.191 18.149,16.41 Q17.93,16.63 17.619,16.63 L12.369,16.63 Q12.058,16.63 11.839,16.41 Q11.619,16.191 11.619,15.88 Q11.619,15.569 11.839,15.35 Q12.058,15.13 12.369,15.13 Z"/>
  <path fill="#292D32" d="M6.911,15.35 L7.131,15.569 L8.851,13.85 Q9.07,13.63 9.381,13.63 Q9.692,13.63 9.911,13.85 Q10.131,14.069 10.131,14.38 Q10.131,14.691 9.911,14.91 L7.661,17.16 Q7.442,17.38 7.131,17.38 Q6.82,17.38 6.601,17.16 L5.851,16.41 Q5.631,16.191 5.631,15.88 Q5.631,15.569 5.851,15.35 Q6.07,15.13 6.381,15.13 Q6.692,15.13 6.911,15.35 Z"/>
  <path fill="#292D32" d="M2.75,12.95 L2.75,15 Q2.75,18.439 4.155,19.845 Q5.561,21.25 9,21.25 L15,21.25 Q18.439,21.25 19.845,19.845 Q21.25,18.439 21.25,15 L21.25,9 Q21.25,2.75 15,2.75 L9,2.75 Q2.75,2.75 2.75,9 Q2.75,9.311 2.53,9.53 Q2.311,9.75 2,9.75 Q1.689,9.75 1.47,9.53 Q1.25,9.311 1.25,9 Q1.25,1.25 9,1.25 L15,1.25 Q22.75,1.25 22.75,9 L22.75,15 Q22.75,22.75 15,22.75 L9,22.75 Q1.25,22.75 1.25,15 L1.25,12.95 Q1.25,12.639 1.47,12.42 Q1.689,12.2 2,12.2 Q2.311,12.2 2.53,12.42 Q2.75,12.639 2.75,12.95 Z"/>
</svg>

