<svg xmlns="http://www.w3.org/2000/svg" width="24" height="24" viewBox="0 0 24 24">
  <defs/>
  <path fill="#292D32" d="M16.19,2 L7.81,2 C4.17,2 2,4.17 2,7.81 L2,16.19 C2,19.83 4.17,22 7.81,22 L16.19,22 C19.83,22 22,19.83 22,16.19 L22,7.81 C22,4.17 19.83,2 16.19,2 Z M9.97,14.9 L7.72,17.15 C7.57,17.3 7.38,17.37 7.19,17.37 C7,17.37 6.8,17.3 6.66,17.15 L5.91,16.4 C5.61,16.11 5.61,15.63 5.91,15.34 C6.2,15.05 6.67,15.05 6.97,15.34 L7.19,15.56 L8.91,13.84 C9.2,13.55 9.67,13.55 9.97,13.84 C10.26,14.13 10.26,14.61 9.97,14.9 Z M9.97,7.9 L7.72,10.15 C7.57,10.3 7.38,10.37 7.19,10.37 C7,10.37 6.8,10.3 6.66,10.15 L5.91,9.4 C5.61,9.11 5.61,8.63 5.91,8.34 C6.2,8.05 6.67,8.05 6.97,8.34 L7.19,8.56 L8.91,6.84 C9.2,6.55 9.67,6.55 9.97,6.84 C10.26,7.13 10.26,7.61 9.97,7.9 Z M17.56,16.62 L12.31,16.62 C11.9,16.62 11.56,16.28 11.56,15.87 C11.56,15.46 11.9,15.12 12.31,15.12 L17.56,15.12 C17.98,15.12 18.31,15.46 18.31,15.87 C18.31,16.28 17.98,16.62 17.56,16.62 Z M17.56,9.62 L12.31,9.62 C11.9,9.62 11.56,9.28 11.56,8.87 C11.56,8.46 11.9,8.12 12.31,8.12 L17.56,8.12 C17.98,8.12 18.31,8.46 18.31,8.87 C18.31,9.28 17.98,9.62 17.56,9.62 Z"/>
</svg>

