<svg xmlns="http://www.w3.org/2000/svg" width="24" height="24" viewBox="0 0 24 24">
  <defs/>
  <path fill="#292D32" d="M21,20.25 L11,20.25 C10.59,20.25 10.25,19.91 10.25,19.5 C10.25,19.09 10.59,18.75 11,18.75 L21,18.75 C21.41,18.75 21.75,19.09 21.75,19.5 C21.75,19.91 21.41,20.25 21,20.25 Z"/>
  <path fill="#292D32" d="M21,13.25 L11,13.25 C10.59,13.25 10.25,12.91 10.25,12.5 C10.25,12.09 10.59,11.75 11,11.75 L21,11.75 C21.41,11.75 21.75,12.09 21.75,12.5 C21.75,12.91 21.41,13.25 21,13.25 Z"/>
  <path fill="#292D32" d="M21,6.25 L11,6.25 C10.59,6.25 10.25,5.91 10.25,5.5 C10.25,5.09 10.59,4.75 11,4.75 L21,4.75 C21.41,4.75 21.75,5.09 21.75,5.5 C21.75,5.91 21.41,6.25 21,6.25 Z"/>
  <path fill="#292D32" d="M3.999,7.25 C3.809,7.25 3.619,7.18 3.469,7.03 L2.469,6.03 C2.179,5.74 2.179,5.26 2.469,4.97 C2.759,4.68 3.239,4.68 3.529,4.97 L3.999,5.44 L6.469,2.97 C6.759,2.68 7.239,2.68 7.529,2.97 C7.819,3.26 7.819,3.74 7.529,4.03 L4.529,7.03 C4.379,7.18 4.189,7.25 3.999,7.25 Z"/>
  <path fill="#292D32" d="M3.999,14.25 C3.809,14.25 3.619,14.18 3.469,14.03 L2.469,13.03 C2.179,12.74 2.179,12.26 2.469,11.97 C2.759,11.68 3.239,11.68 3.529,11.97 L3.999,12.44 L6.469,9.97 C6.759,9.68 7.239,9.68 7.529,9.97 C7.819,10.26 7.819,10.74 7.529,11.03 L4.529,14.03 C4.379,14.18 4.189,14.25 3.999,14.25 Z"/>
  <path fill="#292D32" d="M3.999,21.25 C3.809,21.25 3.619,21.18 3.469,21.03 L2.469,20.03 C2.179,19.74 2.179,19.26 2.469,18.97 C2.759,18.68 3.239,18.68 3.529,18.97 L3.999,19.44 L6.469,16.97 C6.759,16.68 7.239,16.68 7.529,16.97 C7.819,17.26 7.819,17.74 7.529,18.03 L4.529,21.03 C4.379,21.18 4.189,21.25 3.999,21.25 Z"/>
</svg>

