<svg xmlns="http://www.w3.org/2000/svg" width="20" height="21" viewBox="0 0 20 21">
  <defs/>
  <path fill="#292D32" opacity="0.4" d="M14.19,0.97 L5.81,0.97 C2.17,0.97 0,3.14 0,6.78 L0,15.16 C0,18.8 2.17,20.97 5.81,20.97 L14.19,20.97 C17.83,20.97 20,18.8 20,15.16 L20,6.78 C20,3.14 17.83,0.97 14.19,0.97 Z"/>
  <path fill="#292D32" d="M16.311,7.84 C16.311,8.25 15.98,8.59 15.56,8.59 L10.31,8.59 C9.901,8.59 9.561,8.25 9.561,7.84 C9.561,7.43 9.901,7.09 10.31,7.09 L15.56,7.09 C15.98,7.09 16.311,7.43 16.311,7.84 Z"/>
  <path fill="#292D32" d="M7.971,6.87 L5.721,9.12 C5.571,9.27 5.381,9.34 5.191,9.34 C5.001,9.34 4.801,9.27 4.661,9.12 L3.911,8.37 C3.611,8.08 3.611,7.6 3.911,7.31 C4.201,7.02 4.671,7.02 4.971,7.31 L5.191,7.53 L6.911,5.81 C7.201,5.52 7.671,5.52 7.971,5.81 C8.261,6.1 8.261,6.58 7.971,6.87 Z"/>
  <path fill="#292D32" d="M16.311,14.84 C16.311,15.25 15.98,15.59 15.56,15.59 L10.31,15.59 C9.901,15.59 9.561,15.25 9.561,14.84 C9.561,14.43 9.901,14.09 10.31,14.09 L15.56,14.09 C15.98,14.09 16.311,14.43 16.311,14.84 Z"/>
  <path fill="#292D32" d="M7.971,13.87 L5.721,16.12 C5.571,16.27 5.381,16.34 5.191,16.34 C5.001,16.34 4.801,16.27 4.661,16.12 L3.911,15.37 C3.611,15.08 3.611,14.6 3.911,14.31 C4.201,14.02 4.671,14.02 4.971,14.31 L5.191,14.53 L6.911,12.81 C7.201,12.52 7.671,12.52 7.971,12.81 C8.261,13.1 8.261,13.58 7.971,13.87 Z"/>
</svg>

