<svg xmlns="http://www.w3.org/2000/svg" width="24" height="24" viewBox="0 0 24 24">
  <defs/>
  <path fill="#292D32" opacity="0.4" d="M11,18.75 L21,18.75 Q21.311,18.75 21.53,18.97 Q21.75,19.189 21.75,19.5 Q21.75,19.811 21.53,20.03 Q21.311,20.25 21,20.25 L11,20.25 Q10.689,20.25 10.47,20.03 Q10.25,19.811 10.25,19.5 Q10.25,19.189 10.47,18.97 Q10.689,18.75 11,18.75 Z"/>
  <path fill="#292D32" opacity="0.4" d="M11,11.75 L21,11.75 Q21.311,11.75 21.53,11.97 Q21.75,12.189 21.75,12.5 Q21.75,12.811 21.53,13.03 Q21.311,13.25 21,13.25 L11,13.25 Q10.689,13.25 10.47,13.03 Q10.25,12.811 10.25,12.5 Q10.25,12.189 10.47,11.97 Q10.689,11.75 11,11.75 Z"/>
  <path fill="#292D32" opacity="0.4" d="M11,4.75 L21,4.75 Q21.311,4.75 21.53,4.97 Q21.75,5.189 21.75,5.5 Q21.75,5.811 21.53,6.03 Q21.311,6.25 21,6.25 L11,6.25 Q10.689,6.25 10.47,6.03 Q10.25,5.811 10.25,5.5 Q10.25,5.189 10.47,4.97 Q10.689,4.75 11,4.75 Z"/>
  <path fill="#292D32" d="M3.53,4.97 L4,5.439 L6.47,2.97 Q6.689,2.75 7,2.75 Q7.311,2.75 7.53,2.97 Q7.75,3.189 7.75,3.5 Q7.75,3.811 7.53,4.03 L4.53,7.03 Q4.311,7.25 4,7.25 Q3.689,7.25 3.47,7.03 L2.47,6.03 Q2.25,5.811 2.25,5.5 Q2.25,5.189 2.47,4.97 Q2.689,4.75 3,4.75 Q3.311,4.75 3.53,4.97 Z"/>
  <path fill="#292D32" d="M3.53,11.97 L4,12.439 L6.47,9.97 Q6.689,9.75 7,9.75 Q7.311,9.75 7.53,9.97 Q7.75,10.189 7.75,10.5 Q7.75,10.811 7.53,11.03 L4.53,14.03 Q4.311,14.25 4,14.25 Q3.689,14.25 3.47,14.03 L2.47,13.03 Q2.25,12.811 2.25,12.5 Q2.25,12.189 2.47,11.97 Q2.689,11.75 3,11.75 Q3.311,11.75 3.53,11.97 Z"/>
  <path fill="#292D32" d="M3.53,18.97 L4,19.439 L6.47,16.97 Q6.689,16.75 7,16.75 Q7.311,16.75 7.53,16.97 Q7.75,17.189 7.75,17.5 Q7.75,17.811 7.53,18.03 L4.53,21.03 Q4.311,21.25 4,21.25 Q3.689,21.25 3.47,21.03 L2.47,20.03 Q2.25,19.811 2.25,19.5 Q2.25,19.189 2.47,18.97 Q2.689,18.75 3,18.75 Q3.311,18.75 3.53,18.97 Z"/>
</svg>

