<svg xmlns="http://www.w3.org/2000/svg" width="24" height="24" viewBox="0 0 24 24">
  <defs/>
  <path fill="#292D32" d="M12.37,8.13 L17.62,8.13 Q17.931,8.13 18.15,8.35 Q18.37,8.569 18.37,8.88 Q18.37,9.191 18.15,9.41 Q17.931,9.63 17.62,9.63 L12.37,9.63 Q12.059,9.63 11.84,9.41 Q11.62,9.191 11.62,8.88 Q11.62,8.569 11.84,8.35 Q12.059,8.13 12.37,8.13 Z"/>
  <path fill="#292D32" d="M6.91,8.35 L7.13,8.569 L8.85,6.85 Q9.069,6.63 9.38,6.63 Q9.691,6.63 9.91,6.85 Q10.13,7.069 10.13,7.38 Q10.13,7.691 9.91,7.91 L7.66,10.16 Q7.441,10.38 7.13,10.38 Q6.819,10.38 6.6,10.16 L5.85,9.41 Q5.63,9.191 5.63,8.88 Q5.63,8.569 5.85,8.35 Q6.069,8.13 6.38,8.13 Q6.691,8.13 6.91,8.35 Z"/>
  <path fill="#292D32" d="M12.37,15.13 L17.62,15.13 Q17.931,15.13 18.15,15.35 Q18.37,15.569 18.37,15.88 Q18.37,16.191 18.15,16.41 Q17.931,16.63 17.62,16.63 L12.37,16.63 Q12.059,16.63 11.84,16.41 Q11.62,16.191 11.62,15.88 Q11.62,15.569 11.84,15.35 Q12.059,15.13 12.37,15.13 Z"/>
  <path fill="#292D32" d="M6.91,15.35 L7.13,15.569 L8.85,13.85 Q9.069,13.63 9.38,13.63 Q9.691,13.63 9.91,13.85 Q10.13,14.069 10.13,14.38 Q10.13,14.691 9.91,14.91 L7.66,17.16 Q7.441,17.38 7.13,17.38 Q6.819,17.38 6.6,17.16 L5.85,16.41 Q5.63,16.191 5.63,15.88 Q5.63,15.569 5.85,15.35 Q6.069,15.13 6.38,15.13 Q6.691,15.13 6.91,15.35 Z"/>
  <path fill="#292D32" d="M9,22.75 Q1.25,22.75 1.25,15 L1.25,9 Q1.25,1.25 9,1.25 L15,1.25 Q22.75,1.25 22.75,9 L22.75,15 Q22.75,22.75 15,22.75 Z M9,21.25 L15,21.25 Q18.439,21.25 19.845,19.845 Q21.25,18.439 21.25,15 L21.25,9 Q21.25,2.75 15,2.75 L9,2.75 Q2.75,2.75 2.75,9 L2.75,15 Q2.75,18.439 4.155,19.845 Q5.561,21.25 9,21.25 Z"/>
</svg>

