<svg xmlns="http://www.w3.org/2000/svg" width="24" height="24" viewBox="0 0 24 24">
  <defs/>
  <path fill="#292D32" d="M17.619,9.62 L12.369,9.62 C11.959,9.62 11.619,9.28 11.619,8.87 C11.619,8.46 11.959,8.12 12.369,8.12 L17.619,8.12 C18.029,8.12 18.369,8.46 18.369,8.87 C18.369,9.28 18.039,9.62 17.619,9.62 Z"/>
  <path fill="#292D32" d="M7.121,10.38 C6.931,10.38 6.741,10.31 6.591,10.16 L5.841,9.41 C5.551,9.12 5.551,8.64 5.841,8.35 C6.131,8.06 6.611,8.06 6.901,8.35 L7.121,8.57 L8.841,6.85 C9.131,6.56 9.611,6.56 9.901,6.85 C10.191,7.14 10.191,7.62 9.901,7.91 L7.651,10.16 C7.511,10.3 7.321,10.38 7.121,10.38 Z"/>
  <path fill="#292D32" d="M17.619,16.62 L12.369,16.62 C11.959,16.62 11.619,16.28 11.619,15.87 C11.619,15.46 11.959,15.12 12.369,15.12 L17.619,15.12 C18.029,15.12 18.369,15.46 18.369,15.87 C18.369,16.28 18.039,16.62 17.619,16.62 Z"/>
  <path fill="#292D32" d="M7.121,17.38 C6.931,17.38 6.741,17.31 6.591,17.16 L5.841,16.41 C5.551,16.12 5.551,15.64 5.841,15.35 C6.131,15.06 6.611,15.06 6.901,15.35 L7.121,15.57 L8.841,13.85 C9.131,13.56 9.611,13.56 9.901,13.85 C10.191,14.14 10.191,14.62 9.901,14.91 L7.651,17.16 C7.511,17.3 7.321,17.38 7.121,17.38 Z"/>
  <path fill="#292D32" d="M15,22.75 L9,22.75 C3.57,22.75 1.25,20.43 1.25,15 L1.25,9 C1.25,3.57 3.57,1.25 9,1.25 L15,1.25 C20.43,1.25 22.75,3.57 22.75,9 L22.75,15 C22.75,20.43 20.43,22.75 15,22.75 Z M9,2.75 C4.39,2.75 2.75,4.39 2.75,9 L2.75,15 C2.75,19.61 4.39,21.25 9,21.25 L15,21.25 C19.61,21.25 21.25,19.61 21.25,15 L21.25,9 C21.25,4.39 19.61,2.75 15,2.75 L9,2.75 Z"/>
</svg>

