<svg xmlns="http://www.w3.org/2000/svg" width="24" height="24" viewBox="0 0 24 24">
  <defs/>
  <path fill="#292D32" d="M9.638,1.903 Q9.639,1.902 9.64,1.902 Q12.03,0.332 14.401,1.913 L20.391,5.843 Q22.17,7.01 22.17,9.135 Q22.169,11.26 20.391,12.427 L14.401,16.357 Q12.02,17.922 9.64,16.358 L3.62,12.428 Q1.832,11.261 1.832,9.13 Q1.832,6.999 3.62,5.832 Z M10.459,3.158 L4.44,7.088 Q3.332,7.811 3.332,9.13 Q3.332,10.449 4.44,11.172 L10.459,15.102 Q12.019,16.127 13.578,15.103 L19.568,11.173 Q20.67,10.45 20.67,9.135 Q20.67,7.82 19.568,7.097 L13.578,3.167 Q12.023,2.13 10.461,3.156 Z"/>
  <path fill="#292D32" opacity="0.4" d="M6.379,13.082 L6.369,17.772 Q6.369,19.533 8.036,20.089 L11.226,21.148 Q11.992,21.399 12.78,21.146 L15.963,20.088 Q17.629,19.533 17.629,17.77 L17.629,13.13 Q17.629,12.819 17.849,12.6 Q18.068,12.38 18.379,12.38 Q18.69,12.38 18.909,12.6 Q19.129,12.819 19.129,13.13 L19.129,17.77 Q19.129,20.614 16.436,21.512 L13.239,22.574 Q11.988,22.976 10.753,22.572 L7.562,21.512 Q4.869,20.614 4.869,17.769 L4.879,13.079 Q4.88,12.768 5.1,12.549 Q5.32,12.329 5.631,12.33 Q5.941,12.331 6.161,12.551 Q6.38,12.771 6.379,13.082 Z"/>
  <path fill="#292D32" opacity="0.4" d="M20.65,15 L20.65,9 Q20.65,8.689 20.87,8.47 Q21.09,8.25 21.4,8.25 Q21.711,8.25 21.931,8.47 Q22.15,8.689 22.15,9 L22.15,15 Q22.15,15.311 21.931,15.53 Q21.711,15.75 21.4,15.75 Q21.09,15.75 20.87,15.53 Q20.65,15.311 20.65,15 Z"/>
</svg>

