<svg xmlns="http://www.w3.org/2000/svg" width="24" height="24" viewBox="0 0 24 24">
  <defs/>
  <path fill="#292D32" d="M16.831,15.64 C17.501,15.2 18.381,15.68 18.381,16.48 L18.381,17.77 C18.381,19.04 17.391,20.4 16.201,20.8 L13.011,21.86 C12.451,22.05 11.541,22.05 10.991,21.86 L7.801,20.8 C6.601,20.4 5.621,19.04 5.621,17.77 L5.621,16.47 C5.621,15.68 6.501,15.2 7.161,15.63 L9.221,16.97 C10.011,17.5 11.011,17.76 12.011,17.76 C13.011,17.76 14.011,17.5 14.801,16.97 L16.831,15.64 Z"/>
  <path fill="#292D32" d="M19.98,6.459 L13.989,2.529 C12.909,1.819 11.13,1.819 10.05,2.529 L4.03,6.459 C2.1,7.709 2.1,10.539 4.03,11.799 L5.63,12.839 L10.05,15.719 C11.13,16.429 12.909,16.429 13.989,15.719 L18.38,12.839 L19.75,11.939 L19.75,14.999 C19.75,15.409 20.09,15.749 20.5,15.749 C20.91,15.749 21.25,15.409 21.25,14.999 L21.25,10.079 C21.649,8.789 21.239,7.289 19.98,6.459 Z"/>
</svg>

