<svg xmlns="http://www.w3.org/2000/svg" width="24" height="24" viewBox="0 0 24 24">
  <defs/>
  <path fill="#292D32" d="M12.01,17 C11.16,17 10.3,16.78 9.63,16.35 L3.61,12.42 C2.49,11.69 1.82,10.46 1.82,9.12 C1.82,7.78 2.49,6.55 3.61,5.82 L9.64,1.9 C10.98,1.03 13.07,1.03 14.4,1.91 L20.39,5.84 C21.5,6.57 22.17,7.8 22.17,9.13 C22.17,10.46 21.5,11.69 20.39,12.42 L14.4,16.35 C13.73,16.79 12.87,17 12.01,17 Z M12.01,2.75 C11.44,2.75 10.87,2.88 10.46,3.16 L4.44,7.08 C3.74,7.54 3.33,8.28 3.33,9.12 C3.33,9.96 3.73,10.7 4.44,11.16 L10.46,15.09 C11.29,15.63 12.75,15.63 13.58,15.09 L19.57,11.16 C20.27,10.7 20.67,9.96 20.67,9.12 C20.67,8.28 20.27,7.54 19.57,7.08 L13.58,3.15 C13.16,2.89 12.59,2.75 12.01,2.75 Z"/>
  <path fill="#292D32" d="M11.999,22.75 C11.559,22.75 11.109,22.69 10.749,22.57 L7.559,21.51 C6.049,21.01 4.859,19.36 4.869,17.77 L4.879,13.08 C4.879,12.67 5.219,12.33 5.629,12.33 C6.039,12.33 6.379,12.67 6.379,13.08 L6.369,17.77 C6.369,18.71 7.149,19.79 8.039,20.09 L11.229,21.15 C11.629,21.28 12.369,21.28 12.769,21.15 L15.959,20.09 C16.849,19.79 17.629,18.71 17.629,17.78 L17.629,13.14 C17.629,12.73 17.969,12.39 18.379,12.39 C18.789,12.39 19.129,12.73 19.129,13.14 L19.129,17.78 C19.129,19.37 17.949,21.01 16.439,21.52 L13.249,22.58 C12.889,22.69 12.439,22.75 11.999,22.75 Z"/>
  <path fill="#292D32" d="M21.4,15.75 C20.99,15.75 20.65,15.41 20.65,15 L20.65,9 C20.65,8.59 20.99,8.25 21.4,8.25 C21.81,8.25 22.15,8.59 22.15,9 L22.15,15 C22.15,15.41 21.81,15.75 21.4,15.75 Z"/>
</svg>

