<svg xmlns="http://www.w3.org/2000/svg" width="24" height="24" viewBox="0 0 24 24">
  <defs/>
  <path fill="#292D32" opacity="0.4" d="M18.379,12.84 L18.379,17.77 C18.379,19.04 17.389,20.4 16.199,20.8 L13.009,21.86 C12.449,22.05 11.539,22.05 10.989,21.86 L7.799,20.8 C6.599,20.4 5.619,19.04 5.619,17.77 L5.629,12.84 L10.049,15.72 C11.129,16.43 12.909,16.43 13.989,15.72 L18.379,12.84 Z"/>
  <path fill="#292D32" d="M19.98,6.46 L13.989,2.53 C12.909,1.82 11.13,1.82 10.05,2.53 L4.03,6.46 C2.1,7.71 2.1,10.54 4.03,11.8 L5.63,12.84 L10.05,15.72 C11.13,16.43 12.909,16.43 13.989,15.72 L18.38,12.84 L19.75,11.94 L19.75,15 C19.75,15.41 20.09,15.75 20.5,15.75 C20.91,15.75 21.25,15.41 21.25,15 L21.25,10.08 C21.649,8.79 21.239,7.29 19.98,6.46 Z"/>
</svg>

