<svg xmlns="http://www.w3.org/2000/svg" width="24" height="24" viewBox="0 0 24 24">
  <defs/>
  <path d="M12,2 C6.48,2 2,6.48 2,12 C2,17.52 6.48,22 12,22 C17.52,22 22,17.52 22,12 C22,6.48 17.52,2 12,2 Z M17.79,12.71 L15.95,14.55 C15.56,14.94 14.93,14.94 14.54,14.55 L12,12 L9.46,14.54 C9.07,14.93 8.44,14.93 8.05,14.54 L6.21,12.7 C5.82,12.31 5.82,11.68 6.21,11.29 L8.05,9.45 C8.44,9.06 9.07,9.06 9.46,9.45 L12,12 L14.54,9.46 C14.93,9.07 15.56,9.07 15.95,9.46 L17.79,11.3 C18.18,11.68 18.18,12.32 17.79,12.71 Z"/>
</svg>

