<svg xmlns="http://www.w3.org/2000/svg" width="24" height="24" viewBox="0 0 24 24">
  <defs/>
  <path d="M12,10.939 L14.72,8.22 Q14.939,8 15.25,8 Q15.561,8 15.78,8.22 L19.03,11.47 Q19.25,11.689 19.25,12 Q19.25,12.311 19.03,12.53 L15.78,15.78 Q15.561,16 15.25,16 Q14.939,16 14.72,15.78 L12,13.061 L9.28,15.78 Q9.061,16 8.75,16 Q8.439,16 8.22,15.78 L4.97,12.53 Q4.75,12.311 4.75,12 Q4.75,11.689 4.97,11.47 L8.22,8.22 Q8.439,8 8.75,8 Q9.061,8 9.28,8.22 L12,10.939 Z M10.939,12 L8.75,9.811 L6.561,12 L8.75,14.189 L10.939,12 Z M13.061,12 L15.25,14.189 L17.439,12 L15.25,9.811 L13.061,12 Z"/>
  <path fill="#17191C" d="M4.6,6.449 Q2.75,8.922 2.75,12 Q2.75,15.829 5.46,18.54 Q8.171,21.25 12,21.25 Q15.829,21.25 18.54,18.54 Q21.25,15.829 21.25,12 Q21.25,8.171 18.54,5.46 Q15.829,2.75 12,2.75 Q10.031,2.75 8.276,3.535 Q7.993,3.661 7.702,3.551 Q7.412,3.44 7.285,3.156 Q7.159,2.873 7.269,2.582 Q7.38,2.292 7.664,2.165 Q9.711,1.25 12,1.25 Q16.451,1.25 19.6,4.4 Q22.75,7.549 22.75,12 Q22.75,16.451 19.6,19.6 Q16.451,22.75 12,22.75 Q7.549,22.75 4.4,19.6 Q1.25,16.451 1.25,12 Q1.25,8.422 3.4,5.551 Q3.586,5.302 3.893,5.258 Q4.201,5.213 4.449,5.4 Q4.698,5.586 4.742,5.893 Q4.787,6.201 4.6,6.449 Z"/>
</svg>

