<svg xmlns="http://www.w3.org/2000/svg" width="24" height="24" viewBox="0 0 24 24">
  <defs/>
  <path fill="white" opacity="0.58" d="M24,0 L0,0 L0,24 L24,24 L24,0 Z"/>
  <path fill="#292D32" opacity="0.4" d="M12,22 C17.523,22 22,17.523 22,12 C22,6.477 17.523,2 12,2 C6.477,2 2,6.477 2,12 C2,17.523 6.477,22 12,22 Z"/>
  <path fill="#292D32" d="M12.001,12 L9.46,9.46 C9.07,9.07 8.44,9.07 8.05,9.46 L6.21,11.3 C5.82,11.69 5.82,12.32 6.21,12.71 L8.05,14.55 C8.44,14.94 9.07,14.94 9.46,14.55 L14.55,9.46 C14.941,9.07 15.57,9.07 15.96,9.46 L17.8,11.3 C18.191,11.69 18.191,12.32 17.8,12.71 L15.96,14.55 C15.57,14.94 14.941,14.94 14.55,14.55 L12.001,12 Z"/>
</svg>

