<svg xmlns="http://www.w3.org/2000/svg" width="24" height="24" viewBox="0 0 24 24">
  <defs/>
  <path d="M18.605,16.775 L14.585,20.425 Q11.995,22.767 9.407,20.426 L2.476,14.135 Q0.314,12.176 1.62,9.565 L4.019,4.746 Q5.076,2.61 7.47,2.61 L16.53,2.61 Q18.925,2.61 19.983,4.748 L22.382,9.566 Q23.68,12.162 21.527,14.133 Q21.298,14.343 20.987,14.329 Q20.677,14.316 20.467,14.087 Q20.257,13.858 20.271,13.547 Q20.285,13.237 20.514,13.027 Q21.832,11.82 21.039,10.234 L18.638,5.413 Q17.994,4.11 16.53,4.11 L7.47,4.11 Q6.007,4.11 5.362,5.414 L2.961,10.236 Q2.165,11.829 3.485,13.025 L10.414,19.314 Q11.995,20.744 13.576,19.315 L17.596,15.665 Q17.826,15.456 18.137,15.471 Q18.447,15.486 18.656,15.716 Q18.864,15.946 18.85,16.256 Q18.835,16.567 18.605,16.775 Z"/>
  <path d="M11.25,14.5 L11.25,8.5 Q11.25,8.189 11.47,7.97 Q11.689,7.75 12,7.75 Q12.311,7.75 12.53,7.97 Q12.75,8.189 12.75,8.5 L12.75,14.5 Q12.75,14.811 12.53,15.03 Q12.311,15.25 12,15.25 Q11.689,15.25 11.47,15.03 Q11.25,14.811 11.25,14.5 Z"/>
  <path d="M8,7.75 L16,7.75 Q16.311,7.75 16.53,7.97 Q16.75,8.189 16.75,8.5 Q16.75,8.811 16.53,9.03 Q16.311,9.25 16,9.25 L8,9.25 Q7.689,9.25 7.47,9.03 Q7.25,8.811 7.25,8.5 Q7.25,8.189 7.47,7.97 Q7.689,7.75 8,7.75 Z"/>
</svg>

