<svg xmlns="http://www.w3.org/2000/svg" width="24" height="24" viewBox="0 0 24 24">
  <defs/>
  <path d="M7.47,2.6 L16.53,2.6 Q18.925,2.6 19.982,4.738 L22.382,9.556 Q23.68,12.152 21.527,14.123 L14.594,20.415 Q12.005,22.757 9.417,20.416 L2.486,14.125 Q0.324,12.166 1.629,9.555 L4.029,4.736 Q5.063,2.6 7.47,2.6 Z M7.47,4.1 Q6.003,4.1 5.372,5.404 L2.971,10.226 Q2.174,11.819 3.494,13.015 L10.423,19.304 Q12.005,20.734 13.586,19.305 L20.514,13.017 Q21.832,11.81 21.039,10.224 L18.638,5.403 Q17.994,4.1 16.53,4.1 Z"/>
  <g opacity="0.4">
    <path d="M11.25,14.5 L11.25,8.5 Q11.25,8.189 11.47,7.97 Q11.689,7.75 12,7.75 Q12.311,7.75 12.53,7.97 Q12.75,8.189 12.75,8.5 L12.75,14.5 Q12.75,14.811 12.53,15.03 Q12.311,15.25 12,15.25 Q11.689,15.25 11.47,15.03 Q11.25,14.811 11.25,14.5 Z"/>
    <path d="M8,7.75 L16,7.75 Q16.311,7.75 16.53,7.97 Q16.75,8.189 16.75,8.5 Q16.75,8.811 16.53,9.03 Q16.311,9.25 16,9.25 L8,9.25 Q7.689,9.25 7.47,9.03 Q7.25,8.811 7.25,8.5 Q7.25,8.189 7.47,7.97 Q7.689,7.75 8,7.75 Z"/>
  </g>
</svg>

