<svg xmlns="http://www.w3.org/2000/svg" width="24" height="24" viewBox="0 0 24 24">
  <defs/>
  <path d="M21.71,9.899 L19.31,5.079 C18.84,4.129 17.59,3.359 16.53,3.359 L7.47,3.359 C6.41,3.359 5.16,4.129 4.69,5.079 L2.29,9.899 C1.71,11.059 2.03,12.709 2.98,13.579 L9.91,19.869 C11.06,20.909 12.93,20.909 14.08,19.869 L21.01,13.579 C21.97,12.709 22.29,11.049 21.71,9.899 Z M16,9.249 L12.75,9.249 L12.75,14.499 C12.75,14.909 12.41,15.249 12,15.249 C11.59,15.249 11.25,14.909 11.25,14.499 L11.25,9.249 L8,9.249 C7.59,9.249 7.25,8.909 7.25,8.499 C7.25,8.089 7.59,7.749 8,7.749 L16,7.749 C16.41,7.749 16.75,8.089 16.75,8.499 C16.75,8.909 16.41,9.249 16,9.249 Z"/>
</svg>

