<svg xmlns="http://www.w3.org/2000/svg" width="24" height="24" viewBox="0 0 24 24">
  <defs/>
  <path d="M12,21.4 C11.06,21.4 10.12,21.08 9.41,20.43 L2.48,14.14 C1.27,13.04 0.89,11.03 1.62,9.57 L4.02,4.75 C4.62,3.55 6.13,2.61 7.47,2.61 L16.53,2.61 C17.87,2.61 19.38,3.55 19.98,4.75 L22.38,9.57 C23.11,11.03 22.73,13.04 21.52,14.14 L14.59,20.43 C13.88,21.07 12.94,21.4 12,21.4 Z M7.47,4.1 C6.69,4.1 5.71,4.71 5.36,5.41 L2.96,10.23 C2.54,11.08 2.78,12.38 3.49,13.02 L10.42,19.31 C11.28,20.09 12.73,20.09 13.58,19.31 L20.51,13.02 C21.21,12.38 21.46,11.08 21.04,10.23 L18.64,5.41 C18.29,4.72 17.31,4.11 16.53,4.11 L7.47,4.11 L7.47,4.1 Z"/>
  <path d="M12,15.25 C11.59,15.25 11.25,14.91 11.25,14.5 L11.25,8.5 C11.25,8.09 11.59,7.75 12,7.75 C12.41,7.75 12.75,8.09 12.75,8.5 L12.75,14.5 C12.75,14.91 12.41,15.25 12,15.25 Z"/>
  <path d="M16,9.25 L8,9.25 C7.59,9.25 7.25,8.91 7.25,8.5 C7.25,8.09 7.59,7.75 8,7.75 L16,7.75 C16.41,7.75 16.75,8.09 16.75,8.5 C16.75,8.91 16.41,9.25 16,9.25 Z"/>
</svg>

