<svg xmlns="http://www.w3.org/2000/svg" width="24" height="24" viewBox="0 0 24 24">
  <defs/>
  <path fill="white" d="M24,0 L0,0 L0,24 L24,24 L24,0 Z"/>
  <path fill="#292D32" opacity="0.4" d="M7.47,3.35 L16.53,3.35 C17.59,3.35 18.84,4.12 19.31,5.07 L21.71,9.89 C22.29,11.05 21.97,12.7 21.02,13.57 L14.09,19.86 C12.94,20.9 11.07,20.9 9.92,19.86 L2.99,13.57 C2.03,12.7 1.72,11.05 2.3,9.89 L4.7,5.07 C5.16,4.12 6.41,3.35 7.47,3.35 Z"/>
  <path fill="#292D32" d="M16,7.75 L8,7.75 C7.59,7.75 7.25,8.09 7.25,8.5 C7.25,8.91 7.59,9.25 8,9.25 L11.25,9.25 L11.25,14.5 C11.25,14.91 11.59,15.25 12,15.25 C12.41,15.25 12.75,14.91 12.75,14.5 L12.75,9.25 L16,9.25 C16.41,9.25 16.75,8.91 16.75,8.5 C16.75,8.09 16.41,7.75 16,7.75 Z"/>
</svg>

