<svg xmlns="http://www.w3.org/2000/svg" width="24" height="24" viewBox="0 0 24 24">
  <defs/>
  <path fill="#292D32" d="M21,5.25 L3,5.25 C2.59,5.25 2.25,4.91 2.25,4.5 C2.25,4.09 2.59,3.75 3,3.75 L21,3.75 C21.41,3.75 21.75,4.09 21.75,4.5 C21.75,4.91 21.41,5.25 21,5.25 Z"/>
  <path fill="#292D32" d="M16.742,10.25 L7.262,10.25 C6.852,10.25 6.512,9.91 6.512,9.5 C6.512,9.09 6.852,8.75 7.262,8.75 L16.732,8.75 C17.142,8.75 17.482,9.09 17.482,9.5 C17.482,9.91 17.152,10.25 16.742,10.25 Z"/>
  <path fill="#292D32" d="M21,15.25 L3,15.25 C2.59,15.25 2.25,14.91 2.25,14.5 C2.25,14.09 2.59,13.75 3,13.75 L21,13.75 C21.41,13.75 21.75,14.09 21.75,14.5 C21.75,14.91 21.41,15.25 21,15.25 Z"/>
  <path fill="#292D32" d="M16.742,20.25 L7.262,20.25 C6.852,20.25 6.512,19.91 6.512,19.5 C6.512,19.09 6.852,18.75 7.262,18.75 L16.732,18.75 C17.142,18.75 17.482,19.09 17.482,19.5 C17.482,19.91 17.152,20.25 16.742,20.25 Z"/>
</svg>

