<svg xmlns="http://www.w3.org/2000/svg" width="24" height="24" viewBox="0 0 24 24">
  <defs/>
  <path fill="#292D32" d="M9,22.75 Q1.25,22.75 1.25,15 L1.25,9 Q1.25,1.25 9,1.25 L15,1.25 Q22.75,1.25 22.75,9 L22.75,15 Q22.75,22.75 15,22.75 Z M9,21.25 L15,21.25 Q18.439,21.25 19.845,19.845 Q21.25,18.439 21.25,15 L21.25,9 Q21.25,2.75 15,2.75 L9,2.75 Q2.75,2.75 2.75,9 L2.75,15 Q2.75,18.439 4.155,19.845 Q5.561,21.25 9,21.25 Z"/>
  <path fill="#292D32" d="M6.665,8.219 Q12,5.56 17.335,8.219 Q17.613,8.357 17.711,8.652 Q17.81,8.946 17.671,9.224 Q17.533,9.502 17.238,9.601 Q16.943,9.7 16.665,9.561 Q12,7.236 7.335,9.561 Q7.057,9.7 6.762,9.601 Q6.467,9.502 6.329,9.224 Q6.19,8.946 6.289,8.652 Q6.387,8.357 6.665,8.219 Z"/>
  <path fill="#292D32" d="M11.25,16.3 L11.25,7.93 Q11.25,7.619 11.47,7.4 Q11.689,7.18 12,7.18 Q12.311,7.18 12.53,7.4 Q12.75,7.619 12.75,7.93 L12.75,16.3 Q12.75,16.611 12.53,16.83 Q12.311,17.05 12,17.05 Q11.689,17.05 11.47,16.83 Q11.25,16.611 11.25,16.3 Z"/>
</svg>

