<svg xmlns="http://www.w3.org/2000/svg" width="24" height="24" viewBox="0 0 24 24">
  <defs/>
  <path fill="#292D32" opacity="0.4" d="M22,7.81 L22,16.19 C22,19.83 19.83,22 16.19,22 L7.81,22 C7.61,22 7.41,21.99 7.22,21.98 C5.99,21.9 4.95,21.55 4.13,20.95 C3.71,20.66 3.34,20.29 3.05,19.87 C2.36,18.92 2,17.68 2,16.19 L2,7.81 C2,4.37 3.94,2.24 7.22,2.03 C7.41,2.01 7.61,2 7.81,2 L16.19,2 C17.68,2 18.92,2.36 19.87,3.05 C20.29,3.34 20.66,3.71 20.95,4.13 C21.64,5.08 22,6.32 22,7.81 Z"/>
  <path fill="#292D32" d="M16.67,5.64 L7.33,5.64 C6.18,5.64 5.25,6.57 5.25,7.72 L5.25,8.9 C5.25,9.31 5.59,9.65 6,9.65 C6.41,9.65 6.75,9.31 6.75,8.9 L6.75,7.72 C6.75,7.4 7.01,7.14 7.33,7.14 L11.25,7.14 L11.25,16.86 L9.47,16.86 C9.06,16.86 8.72,17.2 8.72,17.61 C8.72,18.02 9.06,18.36 9.47,18.36 L14.54,18.36 C14.95,18.36 15.29,18.02 15.29,17.61 C15.29,17.2 14.95,16.86 14.54,16.86 L12.76,16.86 L12.76,7.14 L16.68,7.14 C17,7.14 17.26,7.4 17.26,7.72 L17.26,8.9 C17.26,9.31 17.6,9.65 18.01,9.65 C18.42,9.65 18.76,9.31 18.76,8.9 L18.76,7.72 C18.75,6.58 17.82,5.64 16.67,5.64 Z"/>
</svg>

