<svg xmlns="http://www.w3.org/2000/svg" width="24" height="24" viewBox="0 0 24 24">
  <defs/>
  <path fill="#292D32" d="M10.051,3.75 L21.001,3.75 Q21.311,3.75 21.531,3.97 Q21.751,4.189 21.751,4.5 Q21.751,4.811 21.531,5.03 Q21.311,5.25 21.001,5.25 L10.051,5.25 Q9.74,5.25 9.52,5.03 Q9.301,4.811 9.301,4.5 Q9.301,4.189 9.52,3.97 Q9.74,3.75 10.051,3.75 Z"/>
  <path fill="#292D32" d="M3,3.75 L5.98,3.75 Q6.291,3.75 6.51,3.97 Q6.73,4.189 6.73,4.5 Q6.73,4.811 6.51,5.03 Q6.291,5.25 5.98,5.25 L3,5.25 Q2.689,5.25 2.47,5.03 Q2.25,4.811 2.25,4.5 Q2.25,4.189 2.47,3.97 Q2.689,3.75 3,3.75 Z"/>
  <path fill="#292D32" d="M3,8.75 L12.47,8.75 Q12.781,8.75 13,8.97 Q13.22,9.189 13.22,9.5 Q13.22,9.811 13,10.03 Q12.781,10.25 12.47,10.25 L3,10.25 Q2.689,10.25 2.47,10.03 Q2.25,9.811 2.25,9.5 Q2.25,9.189 2.47,8.97 Q2.689,8.75 3,8.75 Z"/>
  <path fill="#292D32" d="M3,13.75 L21,13.75 Q21.311,13.75 21.53,13.97 Q21.75,14.189 21.75,14.5 Q21.75,14.811 21.53,15.03 Q21.311,15.25 21,15.25 L3,15.25 Q2.689,15.25 2.47,15.03 Q2.25,14.811 2.25,14.5 Q2.25,14.189 2.47,13.97 Q2.689,13.75 3,13.75 Z"/>
  <path fill="#292D32" d="M3,18.75 L12.47,18.75 Q12.781,18.75 13,18.97 Q13.22,19.189 13.22,19.5 Q13.22,19.811 13,20.03 Q12.781,20.25 12.47,20.25 L3,20.25 Q2.689,20.25 2.47,20.03 Q2.25,19.811 2.25,19.5 Q2.25,19.189 2.47,18.97 Q2.689,18.75 3,18.75 Z"/>
</svg>

