<svg xmlns="http://www.w3.org/2000/svg" width="24" height="24" viewBox="0 0 24 24">
  <defs/>
  <path fill="#292D32" opacity="0.4" d="M16.19,2 L7.81,2 C4.17,2 2,4.17 2,7.81 L2,16.18 C2,19.83 4.17,22 7.81,22 L16.18,22 C19.82,22 21.99,19.83 21.99,16.19 L21.99,7.81 C22,4.17 19.83,2 16.19,2 Z"/>
  <path fill="#292D32" d="M17.34,8.21 C14,6.54 10.01,6.54 6.67,8.21 C6.29,8.4 6.14,8.85 6.33,9.22 C6.46,9.48 6.73,9.63 7,9.63 C7.11,9.63 7.23,9.6 7.34,9.55 C8.57,8.94 9.9,8.6 11.25,8.5 L11.25,16.29 C11.25,16.7 11.59,17.04 12,17.04 C12.41,17.04 12.75,16.7 12.75,16.29 L12.75,8.5 C14.1,8.6 15.43,8.94 16.66,9.55 C17.03,9.73 17.48,9.59 17.67,9.21 C17.86,8.85 17.71,8.4 17.34,8.21 Z"/>
</svg>

