<svg xmlns="http://www.w3.org/2000/svg" width="24" height="24" viewBox="0 0 24 24">
  <defs/>
  <path fill="#292D32" d="M1.92,7.17 L1.92,5.35 Q1.92,2.53 4.74,2.53 L19.26,2.53 Q20.432,2.53 21.257,3.358 Q22.08,4.183 22.08,5.35 L22.08,7.17 Q22.08,7.48 21.86,7.7 Q21.641,7.92 21.33,7.92 Q21.019,7.92 20.8,7.7 Q20.58,7.48 20.58,7.17 L20.58,5.35 Q20.58,4.03 19.26,4.03 L4.74,4.03 Q3.42,4.03 3.42,5.35 L3.42,7.17 Q3.42,7.48 3.2,7.7 Q2.981,7.92 2.67,7.92 Q2.359,7.92 2.14,7.7 Q1.92,7.48 1.92,7.17 Z"/>
  <path fill="#292D32" opacity="0.4" d="M11.25,20.72 L11.25,4.11 Q11.25,3.799 11.47,3.58 Q11.689,3.36 12,3.36 Q12.311,3.36 12.53,3.58 Q12.75,3.799 12.75,4.11 L12.75,20.72 Q12.75,21.031 12.53,21.25 Q12.311,21.47 12,21.47 Q11.689,21.47 11.47,21.25 Q11.25,21.031 11.25,20.72 Z"/>
  <path fill="#292D32" d="M8.061,19.97 L15.941,19.97 Q16.251,19.97 16.471,20.19 Q16.69,20.41 16.69,20.72 Q16.69,21.031 16.471,21.251 Q16.251,21.47 15.941,21.47 L8.061,21.47 Q7.75,21.47 7.53,21.251 Q7.311,21.031 7.311,20.72 Q7.311,20.41 7.53,20.19 Q7.75,19.97 8.061,19.97 Z"/>
</svg>

