<svg xmlns="http://www.w3.org/2000/svg" width="24" height="24" viewBox="0 0 24 24">
  <defs/>
  <path fill="#292D32" d="M9.62,2.25 L18.87,2.25 Q19.181,2.25 19.4,2.47 Q19.62,2.689 19.62,3 Q19.62,3.311 19.4,3.53 Q19.181,3.75 18.87,3.75 L9.62,3.75 Q9.309,3.75 9.09,3.53 Q8.87,3.311 8.87,3 Q8.87,2.689 9.09,2.47 Q9.309,2.25 9.62,2.25 Z"/>
  <path fill="#292D32" d="M5.12,20.25 L14.37,20.25 Q14.681,20.25 14.9,20.47 Q15.12,20.689 15.12,21 Q15.12,21.311 14.9,21.53 Q14.681,21.75 14.37,21.75 L5.12,21.75 Q4.809,21.75 4.59,21.53 Q4.37,21.311 4.37,21 Q4.37,20.689 4.59,20.47 Q4.809,20.25 5.12,20.25 Z"/>
  <path fill="#292D32" d="M14.978,3.182 L10.478,21.182 Q10.402,21.483 10.136,21.643 Q9.869,21.803 9.568,21.728 Q9.267,21.652 9.107,21.386 Q8.947,21.119 9.022,20.818 L13.522,2.818 Q13.598,2.517 13.864,2.357 Q14.131,2.197 14.432,2.272 Q14.733,2.348 14.893,2.614 Q15.053,2.881 14.978,3.182 Z"/>
</svg>

