<svg xmlns="http://www.w3.org/2000/svg" width="24" height="24" viewBox="0 0 24 24">
  <defs/>
  <path fill="#292D32" d="M5,20.25 L19,20.25 Q19.311,20.25 19.53,20.47 Q19.75,20.689 19.75,21 Q19.75,21.311 19.53,21.53 Q19.311,21.75 19,21.75 L5,21.75 Q4.689,21.75 4.47,21.53 Q4.25,21.311 4.25,21 Q4.25,20.689 4.47,20.47 Q4.689,20.25 5,20.25 Z"/>
  <path fill="#292D32" d="M5.75,3 L5.75,10 Q5.75,12.592 7.579,14.421 Q9.408,16.25 12,16.25 Q14.592,16.25 16.421,14.421 Q18.25,12.592 18.25,10 L18.25,3 Q18.25,2.689 18.47,2.47 Q18.689,2.25 19,2.25 Q19.311,2.25 19.53,2.47 Q19.75,2.689 19.75,3 L19.75,10 Q19.75,13.213 17.482,15.482 Q15.213,17.75 12,17.75 Q8.787,17.75 6.518,15.482 Q4.25,13.213 4.25,10 L4.25,3 Q4.25,2.689 4.47,2.47 Q4.689,2.25 5,2.25 Q5.311,2.25 5.53,2.47 Q5.75,2.689 5.75,3 Z"/>
</svg>

