<svg xmlns="http://www.w3.org/2000/svg" width="24" height="24" viewBox="0 0 24 24">
  <defs/>
  <path fill="#292D32" d="M18.881,3.75 L9.621,3.75 C9.211,3.75 8.881,3.41 8.881,3 C8.881,2.59 9.221,2.25 9.631,2.25 L18.881,2.25 C19.291,2.25 19.631,2.59 19.631,3 C19.631,3.41 19.291,3.75 18.881,3.75 Z"/>
  <path fill="#292D32" d="M14.379,21.75 L5.119,21.75 C4.709,21.75 4.369,21.41 4.369,21 C4.369,20.59 4.709,20.25 5.119,20.25 L14.369,20.25 C14.779,20.25 15.119,20.59 15.119,21 C15.119,21.41 14.789,21.75 14.379,21.75 Z"/>
  <path fill="#292D32" d="M9.75,21.75 C9.69,21.75 9.63,21.74 9.57,21.73 C9.17,21.63 8.92,21.22 9.02,20.82 L13.52,2.82 C13.62,2.42 14.02,2.17 14.43,2.27 C14.83,2.37 15.08,2.78 14.98,3.18 L10.48,21.18 C10.39,21.52 10.09,21.75 9.75,21.75 Z"/>
</svg>

