<svg xmlns="http://www.w3.org/2000/svg" width="24" height="24" viewBox="0 0 24 24">
  <defs/>
  <path fill="#292D32" d="M12.001,12.75 L4.881,12.75 C4.471,12.75 4.131,12.41 4.131,12 L4.131,4.5 C4.131,2.98 5.361,1.75 6.881,1.75 L12.001,1.75 C15.031,1.75 17.501,4.22 17.501,7.25 C17.501,10.28 15.031,12.75 12.001,12.75 Z M5.621,11.25 L12.001,11.25 C14.211,11.25 16.001,9.46 16.001,7.25 C16.001,5.04 14.211,3.25 12.001,3.25 L6.881,3.25 C6.191,3.25 5.631,3.81 5.631,4.5 L5.631,11.25 L5.621,11.25 Z"/>
  <path fill="#292D32" d="M14.381,22.25 L6.881,22.25 C5.361,22.25 4.131,21.02 4.131,19.5 L4.131,12 C4.131,11.59 4.471,11.25 4.881,11.25 L14.381,11.25 C17.411,11.25 19.881,13.72 19.881,16.75 C19.881,19.78 17.411,22.25 14.381,22.25 Z M5.621,12.75 L5.621,19.5 C5.621,20.19 6.181,20.75 6.871,20.75 L14.371,20.75 C16.581,20.75 18.371,18.96 18.371,16.75 C18.371,14.54 16.581,12.75 14.371,12.75 L5.621,12.75 Z"/>
</svg>

