<svg xmlns="http://www.w3.org/2000/svg" width="24" height="24" viewBox="0 0 24 24">
  <defs/>
  <path fill="#292D32" d="M21.33,7.92 C20.92,7.92 20.58,7.58 20.58,7.17 L20.58,5.35 C20.58,4.62 19.99,4.03 19.26,4.03 L4.74,4.03 C4.01,4.03 3.42,4.62 3.42,5.35 L3.42,7.18 C3.42,7.59 3.08,7.93 2.67,7.93 C2.26,7.93 1.92,7.59 1.92,7.17 L1.92,5.35 C1.92,3.79 3.19,2.53 4.74,2.53 L19.26,2.53 C20.82,2.53 22.08,3.8 22.08,5.35 L22.08,7.18 C22.08,7.59 21.75,7.92 21.33,7.92 Z"/>
  <path fill="#292D32" d="M12,21.47 C11.59,21.47 11.25,21.13 11.25,20.72 L11.25,4.11 C11.25,3.7 11.59,3.36 12,3.36 C12.41,3.36 12.75,3.7 12.75,4.11 L12.75,20.72 C12.75,21.14 12.41,21.47 12,21.47 Z"/>
  <path fill="#292D32" d="M15.941,21.47 L8.061,21.47 C7.651,21.47 7.311,21.13 7.311,20.72 C7.311,20.31 7.651,19.97 8.061,19.97 L15.941,19.97 C16.351,19.97 16.691,20.31 16.691,20.72 C16.691,21.13 16.351,21.47 15.941,21.47 Z"/>
</svg>

