<svg xmlns="http://www.w3.org/2000/svg" width="24" height="24" viewBox="0 0 24 24">
  <defs/>
  <path fill="#292D32" d="M13.75,12.75 L12.25,12.75 L8.5,12.75 L8.5,16.74 C8.5,17.02 8.73,17.25 9.01,17.25 L13.75,17.25 C14.99,17.25 16,16.24 16,15 C16,13.76 14.99,12.75 13.75,12.75 Z"/>
  <path fill="#292D32" d="M14.5,9 C14.5,7.76 13.49,6.75 12.25,6.75 L9.01,6.75 C8.73,6.75 8.5,6.98 8.5,7.26 L8.5,11.25 L12.25,11.25 C13.49,11.25 14.5,10.24 14.5,9 Z"/>
  <path fill="#292D32" d="M20.95,4.13 C20.66,3.71 20.29,3.34 19.87,3.05 C18.92,2.36 17.68,2 16.19,2 L7.81,2 C7.61,2 7.41,2.01 7.22,2.03 C3.94,2.24 2,4.37 2,7.81 L2,16.19 C2,17.68 2.36,18.92 3.05,19.87 C3.34,20.29 3.71,20.66 4.13,20.95 C4.95,21.55 5.99,21.9 7.22,21.98 C7.41,21.99 7.61,22 7.81,22 L16.19,22 C19.83,22 22,19.83 22,16.19 L22,7.81 C22,6.32 21.64,5.08 20.95,4.13 Z M13.75,18.75 L9.01,18.75 C7.9,18.75 7,17.85 7,16.74 L7,12 L7,7.26 C7,6.15 7.9,5.25 9.01,5.25 L12.25,5.25 C14.32,5.25 16,6.93 16,9 C16,9.96 15.63,10.83 15.03,11.49 C16.46,12.02 17.5,13.38 17.5,15 C17.5,17.07 15.82,18.75 13.75,18.75 Z"/>
</svg>

