<svg xmlns="http://www.w3.org/2000/svg" width="24" height="24" viewBox="0 0 24 24">
  <defs/>
  <path fill="#292D32" opacity="0.4" d="M22,7.81 L22,16.19 C22,19.83 19.83,22 16.19,22 L7.81,22 C7.61,22 7.41,21.99 7.22,21.98 C5.99,21.9 4.95,21.55 4.13,20.95 C3.71,20.66 3.34,20.29 3.05,19.87 C2.36,18.92 2,17.68 2,16.19 L2,7.81 C2,4.37 3.94,2.24 7.22,2.03 C7.41,2.01 7.61,2 7.81,2 L16.19,2 C17.68,2 18.92,2.36 19.87,3.05 C20.29,3.34 20.66,3.71 20.95,4.13 C21.64,5.08 22,6.32 22,7.81 Z"/>
  <path fill="#292D32" d="M15.871,6.01 L10.491,6.01 C10.081,6.01 9.741,6.35 9.741,6.76 C9.741,7.17 10.081,7.51 10.491,7.51 L12.381,7.51 L10.141,16.48 L8.141,16.48 C7.731,16.48 7.391,16.82 7.391,17.23 C7.391,17.64 7.731,17.98 8.141,17.98 L13.521,17.98 C13.931,17.98 14.271,17.64 14.271,17.23 C14.271,16.82 13.931,16.48 13.521,16.48 L11.681,16.48 L13.921,7.51 L15.871,7.51 C16.281,7.51 16.621,7.17 16.621,6.76 C16.621,6.35 16.281,6.01 15.871,6.01 Z"/>
</svg>

