<svg xmlns="http://www.w3.org/2000/svg" width="24" height="24" viewBox="0 0 24 24">
  <defs/>
  <path fill="#292D32" opacity="0.4" d="M4.131,4.5 Q4.131,3.364 4.938,2.557 Q5.745,1.75 6.881,1.75 L12.001,1.75 Q14.277,1.75 15.889,3.362 Q17.501,4.974 17.501,7.25 Q17.501,9.526 15.889,11.138 Q14.277,12.75 12.001,12.75 L4.881,12.75 Q4.57,12.75 4.351,12.53 Q4.131,12.311 4.131,12 Z M5.631,4.5 L5.631,11.25 L12.001,11.25 Q16.001,11.25 16.001,7.25 Q16.001,5.596 14.828,4.423 Q13.655,3.25 12.001,3.25 L6.881,3.25 Q5.631,3.25 5.631,4.5 Z"/>
  <path fill="#292D32" d="M4.881,11.25 L14.381,11.25 Q16.657,11.25 18.269,12.862 Q19.881,14.474 19.881,16.75 Q19.881,19.026 18.269,20.638 Q16.657,22.25 14.381,22.25 L6.881,22.25 Q5.745,22.25 4.938,21.443 Q4.131,20.636 4.131,19.5 L4.131,12 Q4.131,11.689 4.351,11.47 Q4.57,11.25 4.881,11.25 Z M5.631,12.75 L5.631,19.5 Q5.631,20.75 6.881,20.75 L14.381,20.75 Q18.381,20.75 18.381,16.75 Q18.381,12.75 14.381,12.75 L5.631,12.75 Z"/>
</svg>

