<svg xmlns="http://www.w3.org/2000/svg" width="24" height="24" viewBox="0 0 24 24">
  <defs/>
  <path fill="#292D32" d="M20.95,4.13 C20.66,3.71 20.29,3.34 19.87,3.05 C18.92,2.36 17.68,2 16.19,2 L7.81,2 C7.61,2 7.41,2.01 7.22,2.03 C3.94,2.24 2,4.37 2,7.81 L2,16.19 C2,17.68 2.36,18.92 3.05,19.87 C3.34,20.29 3.71,20.66 4.13,20.95 C4.95,21.55 5.99,21.9 7.22,21.98 C7.41,21.99 7.61,22 7.81,22 L16.19,22 C19.83,22 22,19.83 22,16.19 L22,7.81 C22,6.32 21.64,5.08 20.95,4.13 Z M18.75,8.9 C18.75,9.31 18.41,9.65 18,9.65 C17.59,9.65 17.25,9.31 17.25,8.9 L17.25,7.72 C17.25,7.4 16.99,7.14 16.67,7.14 L12.75,7.14 L12.75,16.86 L14.53,16.86 C14.94,16.86 15.28,17.2 15.28,17.61 C15.28,18.02 14.94,18.36 14.53,18.36 L9.47,18.36 C9.06,18.36 8.72,18.02 8.72,17.61 C8.72,17.2 9.06,16.86 9.47,16.86 L11.25,16.86 L11.25,7.14 L7.33,7.14 C7.01,7.14 6.75,7.4 6.75,7.72 L6.75,8.9 C6.75,9.31 6.41,9.65 6,9.65 C5.59,9.65 5.25,9.31 5.25,8.9 L5.25,7.72 C5.25,6.57 6.18,5.64 7.33,5.64 L16.66,5.64 C17.81,5.64 18.74,6.57 18.74,7.72 L18.74,8.9 L18.75,8.9 Z"/>
</svg>

