<svg xmlns="http://www.w3.org/2000/svg" width="24" height="24" viewBox="0 0 24 24">
  <defs/>
  <path fill="#292D32" d="M21,5.25 L3,5.25 C2.59,5.25 2.25,4.91 2.25,4.5 C2.25,4.09 2.59,3.75 3,3.75 L21,3.75 C21.41,3.75 21.75,4.09 21.75,4.5 C21.75,4.91 21.41,5.25 21,5.25 Z"/>
  <path fill="#292D32" opacity="0.4" d="M20.999,10.25 L11.529,10.25 C11.119,10.25 10.779,9.91 10.779,9.5 C10.779,9.09 11.119,8.75 11.529,8.75 L20.999,8.75 C21.409,8.75 21.749,9.09 21.749,9.5 C21.749,9.91 21.409,10.25 20.999,10.25 Z"/>
  <path fill="#292D32" d="M21,15.25 L3,15.25 C2.59,15.25 2.25,14.91 2.25,14.5 C2.25,14.09 2.59,13.75 3,13.75 L21,13.75 C21.41,13.75 21.75,14.09 21.75,14.5 C21.75,14.91 21.41,15.25 21,15.25 Z"/>
  <path fill="#292D32" opacity="0.4" d="M20.999,20.25 L11.529,20.25 C11.119,20.25 10.779,19.91 10.779,19.5 C10.779,19.09 11.119,18.75 11.529,18.75 L20.999,18.75 C21.409,18.75 21.749,19.09 21.749,19.5 C21.749,19.91 21.409,20.25 20.999,20.25 Z"/>
</svg>

