<svg xmlns="http://www.w3.org/2000/svg" width="24" height="24" viewBox="0 0 24 24">
  <defs/>
  <path fill="#292D32" d="M12,5.25 L3,5.25 Q2.689,5.25 2.47,5.03 Q2.25,4.811 2.25,4.5 Q2.25,4.189 2.47,3.97 Q2.689,3.75 3,3.75 L12,3.75 Q12.311,3.75 12.53,3.97 Q12.75,4.189 12.75,4.5 Q12.75,4.811 12.53,5.03 Q12.311,5.25 12,5.25 Z"/>
  <path fill="#292D32" d="M12,10.25 L3,10.25 Q2.689,10.25 2.47,10.03 Q2.25,9.811 2.25,9.5 Q2.25,9.189 2.47,8.97 Q2.689,8.75 3,8.75 L12,8.75 Q12.311,8.75 12.53,8.97 Q12.75,9.189 12.75,9.5 Q12.75,9.811 12.53,10.03 Q12.311,10.25 12,10.25 Z"/>
  <path fill="#292D32" d="M21,15.25 L3,15.25 Q2.689,15.25 2.47,15.03 Q2.25,14.811 2.25,14.5 Q2.25,14.189 2.47,13.97 Q2.689,13.75 3,13.75 L21,13.75 Q21.311,13.75 21.53,13.97 Q21.75,14.189 21.75,14.5 Q21.75,14.811 21.53,15.03 Q21.311,15.25 21,15.25 Z"/>
  <path fill="#292D32" d="M10.051,18.75 L21.001,18.75 Q21.311,18.75 21.531,18.97 Q21.751,19.189 21.751,19.5 Q21.751,19.811 21.531,20.03 Q21.311,20.25 21.001,20.25 L10.051,20.25 Q9.74,20.25 9.52,20.03 Q9.301,19.811 9.301,19.5 Q9.301,19.189 9.52,18.97 Q9.74,18.75 10.051,18.75 Z"/>
  <path fill="#292D32" d="M3,18.75 L5.98,18.75 Q6.291,18.75 6.51,18.97 Q6.73,19.189 6.73,19.5 Q6.73,19.811 6.51,20.03 Q6.291,20.25 5.98,20.25 L3,20.25 Q2.689,20.25 2.47,20.03 Q2.25,19.811 2.25,19.5 Q2.25,19.189 2.47,18.97 Q2.689,18.75 3,18.75 Z"/>
</svg>

