<svg xmlns="http://www.w3.org/2000/svg" width="24" height="24" viewBox="0 0 24 24">
  <defs/>
  <path fill="#292D32" d="M19,21.75 L5,21.75 C4.59,21.75 4.25,21.41 4.25,21 C4.25,20.59 4.59,20.25 5,20.25 L19,20.25 C19.41,20.25 19.75,20.59 19.75,21 C19.75,21.41 19.41,21.75 19,21.75 Z"/>
  <path fill="#292D32" d="M12,17.75 C7.73,17.75 4.25,14.27 4.25,10 L4.25,3 C4.25,2.59 4.59,2.25 5,2.25 C5.41,2.25 5.75,2.59 5.75,3 L5.75,10 C5.75,13.45 8.55,16.25 12,16.25 C15.45,16.25 18.25,13.45 18.25,10 L18.25,3 C18.25,2.59 18.59,2.25 19,2.25 C19.41,2.25 19.75,2.59 19.75,3 L19.75,10 C19.75,14.27 16.27,17.75 12,17.75 Z"/>
</svg>

