<svg xmlns="http://www.w3.org/2000/svg" width="24" height="24" viewBox="0 0 24 24">
  <defs/>
  <path fill="#292D32" d="M4.13,4.5 Q4.13,1.75 6.88,1.75 L12,1.75 Q14.276,1.75 15.888,3.362 Q17.5,4.974 17.5,7.25 Q17.5,9.526 15.888,11.138 Q14.276,12.75 12,12.75 L4.88,12.75 Q4.569,12.75 4.35,12.53 Q4.13,12.311 4.13,12 Z M5.63,4.5 L5.63,11.25 L12,11.25 Q16,11.25 16,7.25 Q16,3.25 12,3.25 L6.88,3.25 Q5.63,3.25 5.63,4.5 Z"/>
  <path fill="#292D32" d="M4.88,11.25 L14.38,11.25 Q16.656,11.25 18.268,12.862 Q19.88,14.474 19.88,16.75 Q19.88,19.026 18.268,20.638 Q16.656,22.25 14.38,22.25 L6.88,22.25 Q5.744,22.25 4.937,21.443 Q4.13,20.636 4.13,19.5 L4.13,12 Q4.13,11.689 4.35,11.47 Q4.569,11.25 4.88,11.25 Z M5.63,12.75 L5.63,19.5 Q5.63,20.014 5.998,20.382 Q6.366,20.75 6.88,20.75 L14.38,20.75 Q16.034,20.75 17.207,19.577 Q18.38,18.404 18.38,16.75 Q18.38,15.096 17.207,13.923 Q16.034,12.75 14.38,12.75 L5.63,12.75 Z"/>
</svg>

