<svg xmlns="http://www.w3.org/2000/svg" width="24" height="24" viewBox="0 0 24 24">
  <defs/>
  <path fill="#292D32" d="M15,22.75 L9,22.75 C3.57,22.75 1.25,20.43 1.25,15 L1.25,9 C1.25,3.57 3.57,1.25 9,1.25 L15,1.25 C20.43,1.25 22.75,3.57 22.75,9 L22.75,15 C22.75,20.43 20.43,22.75 15,22.75 Z M9,2.75 C4.39,2.75 2.75,4.39 2.75,9 L2.75,15 C2.75,19.61 4.39,21.25 9,21.25 L15,21.25 C19.61,21.25 21.25,19.61 21.25,15 L21.25,9 C21.25,4.39 19.61,2.75 15,2.75 L9,2.75 Z"/>
  <path fill="#292D32" d="M7.001,9.63 C6.731,9.63 6.461,9.48 6.331,9.22 C6.141,8.85 6.291,8.4 6.661,8.21 C10.001,6.54 13.991,6.54 17.331,8.21 C17.701,8.4 17.851,8.85 17.671,9.22 C17.48,9.59 17.041,9.74 16.66,9.56 C13.741,8.1 10.251,8.1 7.331,9.56 C7.231,9.61 7.111,9.63 7.001,9.63 Z"/>
  <path fill="#292D32" d="M12,17.04 C11.59,17.04 11.25,16.7 11.25,16.29 L11.25,7.93 C11.25,7.52 11.59,7.18 12,7.18 C12.41,7.18 12.75,7.52 12.75,7.93 L12.75,16.3 C12.75,16.71 12.41,17.04 12,17.04 Z"/>
</svg>

