<svg xmlns="http://www.w3.org/2000/svg" width="24" height="24" viewBox="0 0 24 24">
  <defs/>
  <path fill="#292D32" d="M9.619,2.25 L18.869,2.25 Q19.18,2.25 19.399,2.47 Q19.619,2.689 19.619,3 Q19.619,3.311 19.399,3.53 Q19.18,3.75 18.869,3.75 L9.619,3.75 Q9.308,3.75 9.089,3.53 Q8.869,3.311 8.869,3 Q8.869,2.689 9.089,2.47 Q9.308,2.25 9.619,2.25 Z"/>
  <path fill="#292D32" d="M5.119,20.25 L14.369,20.25 Q14.68,20.25 14.899,20.47 Q15.119,20.689 15.119,21 Q15.119,21.311 14.899,21.53 Q14.68,21.75 14.369,21.75 L5.119,21.75 Q4.808,21.75 4.589,21.53 Q4.369,21.311 4.369,21 Q4.369,20.689 4.589,20.47 Q4.808,20.25 5.119,20.25 Z"/>
  <path fill="#292D32" opacity="0.4" d="M14.978,3.182 L10.478,21.182 Q10.402,21.483 10.136,21.643 Q9.869,21.803 9.568,21.728 Q9.267,21.652 9.107,21.386 Q8.947,21.119 9.022,20.818 L13.522,2.818 Q13.598,2.517 13.864,2.357 Q14.131,2.197 14.432,2.272 Q14.733,2.348 14.893,2.614 Q15.053,2.881 14.978,3.182 Z"/>
</svg>

