<svg xmlns="http://www.w3.org/2000/svg" width="24" height="24" viewBox="0 0 24 24">
  <defs/>
  <path fill="#292D32" d="M20.95,4.13 C20.66,3.71 20.29,3.34 19.87,3.05 C18.92,2.36 17.68,2 16.19,2 L7.81,2 C7.61,2 7.41,2.01 7.22,2.03 C3.94,2.24 2,4.37 2,7.81 L2,16.19 C2,17.68 2.36,18.92 3.05,19.87 C3.34,20.29 3.71,20.66 4.13,20.95 C4.95,21.55 5.99,21.9 7.22,21.98 C7.41,21.99 7.61,22 7.81,22 L16.19,22 C19.83,22 22,19.83 22,16.19 L22,7.81 C22,6.32 21.64,5.08 20.95,4.13 Z M15.87,7.51 L13.92,7.51 L11.68,16.48 L13.52,16.48 C13.93,16.48 14.27,16.82 14.27,17.23 C14.27,17.64 13.93,17.98 13.52,17.98 L8.13,17.98 C7.72,17.98 7.38,17.64 7.38,17.23 C7.38,16.82 7.72,16.48 8.13,16.48 L10.13,16.48 L12.37,7.51 L10.48,7.51 C10.07,7.51 9.73,7.17 9.73,6.76 C9.73,6.35 10.07,6.01 10.48,6.01 L15.86,6.01 C16.27,6.01 16.61,6.35 16.61,6.76 C16.61,7.17 16.28,7.51 15.87,7.51 Z"/>
</svg>

