<svg xmlns="http://www.w3.org/2000/svg" width="24" height="24" viewBox="0 0 24 24">
  <defs/>
  <path fill="#292D32" d="M20.95,4.13 C20.66,3.71 20.29,3.34 19.87,3.05 C18.92,2.36 17.68,2 16.19,2 L7.81,2 C7.61,2 7.41,2.01 7.22,2.03 C3.94,2.24 2,4.37 2,7.81 L2,16.19 C2,17.68 2.36,18.92 3.05,19.87 C3.34,20.29 3.71,20.66 4.13,20.95 C4.95,21.55 5.99,21.9 7.22,21.98 C7.41,21.99 7.61,22 7.81,22 L16.19,22 C19.83,22 22,19.83 22,16.19 L22,7.81 C22,6.32 21.64,5.08 20.95,4.13 Z M16.83,18.96 L7.17,18.96 C6.76,18.96 6.42,18.62 6.42,18.21 C6.42,17.8 6.76,17.46 7.17,17.46 L16.84,17.46 C17.25,17.46 17.59,17.8 17.59,18.21 C17.59,18.62 17.25,18.96 16.83,18.96 Z M17.58,10.62 C17.58,13.7 15.08,16.2 12,16.2 C8.92,16.2 6.42,13.7 6.42,10.62 L6.42,5.79 C6.42,5.38 6.76,5.04 7.17,5.04 C7.58,5.04 7.92,5.38 7.92,5.79 L7.92,10.62 C7.92,12.87 9.75,14.7 12,14.7 C14.25,14.7 16.08,12.87 16.08,10.62 L16.08,5.79 C16.08,5.38 16.42,5.04 16.83,5.04 C17.24,5.04 17.58,5.38 17.58,5.79 L17.58,10.62 Z"/>
</svg>

