<svg xmlns="http://www.w3.org/2000/svg" width="24" height="24" viewBox="0 0 24 24">
  <defs/>
  <path fill="#292D32" opacity="0.4" d="M3,3.75 L21,3.75 Q21.311,3.75 21.53,3.97 Q21.75,4.189 21.75,4.5 Q21.75,4.811 21.53,5.03 Q21.311,5.25 21,5.25 L3,5.25 Q2.689,5.25 2.47,5.03 Q2.25,4.811 2.25,4.5 Q2.25,4.189 2.47,3.97 Q2.689,3.75 3,3.75 Z"/>
  <path fill="#292D32" d="M7.26,8.75 L16.74,8.75 Q17.05,8.75 17.27,8.97 Q17.49,9.189 17.49,9.5 Q17.49,9.811 17.27,10.03 Q17.05,10.25 16.74,10.25 L7.26,10.25 Q6.949,10.25 6.729,10.03 Q6.51,9.811 6.51,9.5 Q6.51,9.189 6.729,8.97 Q6.949,8.75 7.26,8.75 Z"/>
  <path fill="#292D32" opacity="0.4" d="M3,13.75 L21,13.75 Q21.311,13.75 21.53,13.97 Q21.75,14.189 21.75,14.5 Q21.75,14.811 21.53,15.03 Q21.311,15.25 21,15.25 L3,15.25 Q2.689,15.25 2.47,15.03 Q2.25,14.811 2.25,14.5 Q2.25,14.189 2.47,13.97 Q2.689,13.75 3,13.75 Z"/>
  <path fill="#292D32" d="M7.26,18.75 L16.74,18.75 Q17.05,18.75 17.27,18.97 Q17.49,19.189 17.49,19.5 Q17.49,19.811 17.27,20.03 Q17.05,20.25 16.74,20.25 L7.26,20.25 Q6.949,20.25 6.729,20.03 Q6.51,19.811 6.51,19.5 Q6.51,19.189 6.729,18.97 Q6.949,18.75 7.26,18.75 Z"/>
</svg>

