<svg xmlns="http://www.w3.org/2000/svg" width="24" height="24" viewBox="0 0 24 24">
  <defs/>
  <path fill="#292D32" opacity="0.4" d="M3,3.75 L21,3.75 Q21.311,3.75 21.53,3.97 Q21.75,4.189 21.75,4.5 Q21.75,4.811 21.53,5.03 Q21.311,5.25 21,5.25 L3,5.25 Q2.689,5.25 2.47,5.03 Q2.25,4.811 2.25,4.5 Q2.25,4.189 2.47,3.97 Q2.689,3.75 3,3.75 Z"/>
  <path fill="#292D32" d="M11.529,8.75 L20.999,8.75 Q21.31,8.75 21.53,8.97 Q21.749,9.189 21.749,9.5 Q21.749,9.811 21.53,10.03 Q21.31,10.25 20.999,10.25 L11.529,10.25 Q11.219,10.25 10.999,10.03 Q10.779,9.811 10.779,9.5 Q10.779,9.189 10.999,8.97 Q11.219,8.75 11.529,8.75 Z"/>
  <path fill="#292D32" opacity="0.4" d="M3,13.75 L21,13.75 Q21.311,13.75 21.53,13.97 Q21.75,14.189 21.75,14.5 Q21.75,14.811 21.53,15.03 Q21.311,15.25 21,15.25 L3,15.25 Q2.689,15.25 2.47,15.03 Q2.25,14.811 2.25,14.5 Q2.25,14.189 2.47,13.97 Q2.689,13.75 3,13.75 Z"/>
  <path fill="#292D32" d="M11.529,18.75 L20.999,18.75 Q21.31,18.75 21.53,18.97 Q21.749,19.189 21.749,19.5 Q21.749,19.811 21.53,20.03 Q21.31,20.25 20.999,20.25 L11.529,20.25 Q11.219,20.25 10.999,20.03 Q10.779,19.811 10.779,19.5 Q10.779,19.189 10.999,18.97 Q11.219,18.75 11.529,18.75 Z"/>
</svg>

