<svg xmlns="http://www.w3.org/2000/svg" width="24" height="24" viewBox="0 0 24 24">
  <defs/>
  <path fill="#292D32" d="M12,3.75 L21,3.75 Q21.311,3.75 21.53,3.97 Q21.75,4.189 21.75,4.5 Q21.75,4.811 21.53,5.03 Q21.311,5.25 21,5.25 L12,5.25 Q11.689,5.25 11.47,5.03 Q11.25,4.811 11.25,4.5 Q11.25,4.189 11.47,3.97 Q11.689,3.75 12,3.75 Z"/>
  <path fill="#292D32" d="M12,8.75 L21,8.75 Q21.311,8.75 21.53,8.97 Q21.75,9.189 21.75,9.5 Q21.75,9.811 21.53,10.03 Q21.311,10.25 21,10.25 L12,10.25 Q11.689,10.25 11.47,10.03 Q11.25,9.811 11.25,9.5 Q11.25,9.189 11.47,8.97 Q11.689,8.75 12,8.75 Z"/>
  <path fill="#292D32" d="M3,13.75 L21,13.75 Q21.311,13.75 21.53,13.97 Q21.75,14.189 21.75,14.5 Q21.75,14.811 21.53,15.03 Q21.311,15.25 21,15.25 L3,15.25 Q2.689,15.25 2.47,15.03 Q2.25,14.811 2.25,14.5 Q2.25,14.189 2.47,13.97 Q2.689,13.75 3,13.75 Z"/>
  <path fill="#292D32" d="M3,18.75 L21,18.75 Q21.311,18.75 21.53,18.97 Q21.75,19.189 21.75,19.5 Q21.75,19.811 21.53,20.03 Q21.311,20.25 21,20.25 L3,20.25 Q2.689,20.25 2.47,20.03 Q2.25,19.811 2.25,19.5 Q2.25,19.189 2.47,18.97 Q2.689,18.75 3,18.75 Z"/>
</svg>

