<svg xmlns="http://www.w3.org/2000/svg" width="24" height="24" viewBox="0 0 24 24">
  <defs/>
  <path d="M11.31,14.69 C9.04,14.69 7.19,12.84 7.19,10.57 C7.19,8.3 9.04,6.45 11.31,6.45 C13.58,6.45 15.43,8.3 15.43,10.57 C15.43,12.84 13.59,14.69 11.31,14.69 Z M11.31,7.94 C9.86,7.94 8.69,9.12 8.69,10.56 C8.69,12 9.87,13.18 11.31,13.18 C12.75,13.18 13.93,12 13.93,10.56 C13.93,9.12 12.76,7.94 11.31,7.94 Z"/>
  <path d="M16.51,8.31 C15.96,8.31 15.51,7.86 15.51,7.31 C15.51,6.76 15.95,6.31 16.51,6.31 L16.52,6.31 C17.07,6.31 17.52,6.76 17.52,7.31 C17.52,7.86 17.06,8.31 16.51,8.31 Z"/>
  <path d="M12.06,18.56 C11.87,18.56 11.68,18.49 11.53,18.34 C11.24,18.05 11.24,17.57 11.53,17.28 L14.53,14.28 C14.82,13.99 15.3,13.99 15.59,14.28 C15.88,14.57 15.88,15.05 15.59,15.34 L12.59,18.34 C12.45,18.49 12.25,18.56 12.06,18.56 Z"/>
  <path d="M12,22.75 C6.07,22.75 1.25,17.93 1.25,12 C1.25,6.07 6.07,1.25 12,1.25 C17.93,1.25 22.75,6.07 22.75,12 C22.75,17.93 17.93,22.75 12,22.75 Z M12,2.75 C6.9,2.75 2.75,6.9 2.75,12 C2.75,17.1 6.9,21.25 12,21.25 C17.1,21.25 21.25,17.1 21.25,12 C21.25,6.9 17.1,2.75 12,2.75 Z"/>
</svg>

