<svg xmlns="http://www.w3.org/2000/svg" width="24" height="24" viewBox="0 0 24 24">
  <defs/>
  <path fill="white" d="M24,0 L0,0 L0,24 L24,24 L24,0 Z"/>
  <path fill="#292D32" opacity="0.4" d="M12,22 C17.523,22 22,17.523 22,12 C22,6.477 17.523,2 12,2 C6.477,2 2,6.477 2,12 C2,17.523 6.477,22 12,22 Z"/>
  <path fill="#292D32" d="M11.31,13.94 C13.176,13.94 14.69,12.427 14.69,10.56 C14.69,8.693 13.176,7.18 11.31,7.18 C9.443,7.18 7.93,8.693 7.93,10.56 C7.93,12.427 9.443,13.94 11.31,13.94 Z"/>
  <path fill="#292D32" d="M16.51,8.31 C15.96,8.31 15.51,7.86 15.51,7.31 C15.51,6.76 15.95,6.31 16.51,6.31 L16.52,6.31 C17.07,6.31 17.52,6.76 17.52,7.31 C17.51,7.86 17.06,8.31 16.51,8.31 Z"/>
  <path fill="#292D32" d="M12.06,18.56 C11.87,18.56 11.68,18.49 11.53,18.34 C11.24,18.05 11.24,17.57 11.53,17.28 L14.53,14.28 C14.82,13.99 15.3,13.99 15.59,14.28 C15.88,14.57 15.88,15.05 15.59,15.34 L12.59,18.34 C12.45,18.49 12.25,18.56 12.06,18.56 Z"/>
</svg>

