<svg xmlns="http://www.w3.org/2000/svg" width="24" height="24" viewBox="0 0 24 24">
  <defs/>
  <path d="M12,2 C6.48,2 2,6.48 2,12 C2,17.52 6.48,22 12,22 C17.52,22 22,17.52 22,12 C22,6.48 17.52,2 12,2 Z M7.94,10.56 C7.94,8.7 9.45,7.18 11.32,7.18 C13.19,7.18 14.7,8.69 14.7,10.56 C14.7,12.43 13.19,13.94 11.32,13.94 C9.45,13.94 7.94,12.43 7.94,10.56 Z M15.59,15.34 L12.59,18.34 C12.44,18.49 12.25,18.56 12.06,18.56 C11.87,18.56 11.68,18.49 11.53,18.34 C11.24,18.05 11.24,17.57 11.53,17.28 L14.53,14.28 C14.82,13.99 15.3,13.99 15.59,14.28 C15.88,14.57 15.89,15.05 15.59,15.34 Z M16.51,8.31 C15.96,8.31 15.51,7.86 15.51,7.31 C15.51,6.76 15.95,6.31 16.51,6.31 L16.52,6.31 C17.07,6.31 17.52,6.76 17.52,7.31 C17.52,7.86 17.06,8.31 16.51,8.31 Z"/>
</svg>

