<svg xmlns="http://www.w3.org/2000/svg" width="24" height="24" viewBox="0 0 24 24">
  <defs/>
  <path fill="white" d="M24,0 L0,0 L0,24 L24,24 L24,0 Z"/>
  <path fill="#292D32" opacity="0.4" d="M16.19,2 L7.82,2 C4.17,2 2,4.17 2,7.81 L2,16.18 C2,19.82 4.17,21.99 7.81,21.99 L16.18,21.99 C19.82,21.99 21.99,19.82 21.99,16.18 L21.99,7.81 C22,4.17 19.83,2 16.19,2 Z"/>
  <path fill="#292D32" d="M15.15,6 L8.85,6 C7.83,6 7,6.83 7,7.85 L7,16.15 C7,17.17 7.83,18 8.85,18 L15.15,18 C16.17,18 17,17.17 17,16.15 L17,7.85 C17,6.83 16.17,6 15.15,6 Z M14,14.25 L12.75,14.25 L12.75,15.5 C12.75,15.91 12.41,16.25 12,16.25 C11.59,16.25 11.25,15.91 11.25,15.5 L11.25,14.25 L10,14.25 C9.59,14.25 9.25,13.91 9.25,13.5 C9.25,13.09 9.59,12.75 10,12.75 L14,12.75 C14.41,12.75 14.75,13.09 14.75,13.5 C14.75,13.91 14.41,14.25 14,14.25 Z M14,11.25 L10,11.25 C9.59,11.25 9.25,10.91 9.25,10.5 C9.25,10.09 9.59,9.75 10,9.75 L11.25,9.75 L11.25,8.5 C11.25,8.09 11.59,7.75 12,7.75 C12.41,7.75 12.75,8.09 12.75,8.5 L12.75,9.75 L14,9.75 C14.41,9.75 14.75,10.09 14.75,10.5 C14.75,10.91 14.41,11.25 14,11.25 Z"/>
</svg>

