<svg xmlns="http://www.w3.org/2000/svg" width="24" height="24" viewBox="0 0 24 24">
  <defs/>
  <path d="M15.15,18.75 L8.85,18.75 C7.42,18.75 6.25,17.58 6.25,16.15 L6.25,7.85 C6.25,6.42 7.42,5.25 8.85,5.25 L15.15,5.25 C16.58,5.25 17.75,6.42 17.75,7.85 L17.75,16.15 C17.75,17.58 16.58,18.75 15.15,18.75 Z M8.85,6.75 C8.24,6.75 7.75,7.24 7.75,7.85 L7.75,16.15 C7.75,16.76 8.24,17.25 8.85,17.25 L15.15,17.25 C15.76,17.25 16.25,16.76 16.25,16.15 L16.25,7.85 C16.25,7.24 15.76,6.75 15.15,6.75 L8.85,6.75 Z"/>
  <path d="M12,11.25 C11.59,11.25 11.25,10.91 11.25,10.5 L11.25,8.5 C11.25,8.09 11.59,7.75 12,7.75 C12.41,7.75 12.75,8.09 12.75,8.5 L12.75,10.5 C12.75,10.91 12.41,11.25 12,11.25 Z"/>
  <path d="M14,11.25 L10,11.25 C9.59,11.25 9.25,10.91 9.25,10.5 C9.25,10.09 9.59,9.75 10,9.75 L14,9.75 C14.41,9.75 14.75,10.09 14.75,10.5 C14.75,10.91 14.41,11.25 14,11.25 Z"/>
  <path d="M12,16.25 C11.59,16.25 11.25,15.91 11.25,15.5 L11.25,13.5 C11.25,13.09 11.59,12.75 12,12.75 C12.41,12.75 12.75,13.09 12.75,13.5 L12.75,15.5 C12.75,15.91 12.41,16.25 12,16.25 Z"/>
  <path d="M14,14.25 L10,14.25 C9.59,14.25 9.25,13.91 9.25,13.5 C9.25,13.09 9.59,12.75 10,12.75 L14,12.75 C14.41,12.75 14.75,13.09 14.75,13.5 C14.75,13.91 14.41,14.25 14,14.25 Z"/>
  <path d="M15,22.75 L9,22.75 C3.57,22.75 1.25,20.43 1.25,15 L1.25,9 C1.25,3.57 3.57,1.25 9,1.25 L15,1.25 C20.43,1.25 22.75,3.57 22.75,9 L22.75,15 C22.75,20.43 20.43,22.75 15,22.75 Z M9,2.75 C4.39,2.75 2.75,4.39 2.75,9 L2.75,15 C2.75,19.61 4.39,21.25 9,21.25 L15,21.25 C19.61,21.25 21.25,19.61 21.25,15 L21.25,9 C21.25,4.39 19.61,2.75 15,2.75 L9,2.75 Z"/>
</svg>

