<svg xmlns="http://www.w3.org/2000/svg" width="24" height="24" viewBox="0 0 24 24">
  <defs/>
  <path d="M14,9.75 L12.75,9.75 L12.75,8.5 C12.75,8.09 12.41,7.75 12,7.75 C11.59,7.75 11.25,8.09 11.25,8.5 L11.25,9.75 L10,9.75 C9.59,9.75 9.25,10.09 9.25,10.5 C9.25,10.91 9.59,11.25 10,11.25 L14,11.25 C14.41,11.25 14.75,10.91 14.75,10.5 C14.75,10.09 14.41,9.75 14,9.75 Z"/>
  <path d="M14,12.75 L10,12.75 C9.59,12.75 9.25,13.09 9.25,13.5 C9.25,13.91 9.59,14.25 10,14.25 L11.25,14.25 L11.25,15.5 C11.25,15.91 11.59,16.25 12,16.25 C12.41,16.25 12.75,15.91 12.75,15.5 L12.75,14.25 L14,14.25 C14.41,14.25 14.75,13.91 14.75,13.5 C14.75,13.09 14.41,12.75 14,12.75 Z"/>
  <path d="M16.19,2 L7.82,2 C4.18,2 2.01,4.17 2.01,7.81 L2.01,16.18 C2.01,19.82 4.18,21.99 7.82,21.99 L16.19,21.99 C19.83,21.99 22,19.82 22,16.18 L22,7.81 C22,4.17 19.83,2 16.19,2 Z M17,16.15 C17,17.17 16.17,18 15.15,18 L8.85,18 C7.83,18 7,17.17 7,16.15 L7,7.85 C7,6.83 7.83,6 8.85,6 L15.15,6 C16.17,6 17,6.83 17,7.85 L17,16.15 Z"/>
</svg>

