<svg xmlns="http://www.w3.org/2000/svg" width="24" height="24" viewBox="0 0 24 24">
  <defs/>
  <path fill="#17191C" d="M15.1,18.75 L8.9,18.75 Q7.83,18.75 7.054,18.002 Q6.25,17.227 6.25,16.1 L6.25,7.9 Q6.25,6.764 7.007,6.007 Q7.764,5.25 8.9,5.25 L15.2,5.25 Q16.27,5.25 17.046,5.998 Q17.85,6.773 17.85,7.9 L17.85,16.2 Q17.85,16.237 17.846,16.275 Q17.599,18.75 15.1,18.75 Z M15.1,17.25 Q16.224,17.25 16.35,16.16 L16.35,7.9 Q16.35,6.75 15.2,6.75 L8.9,6.75 Q7.75,6.75 7.75,7.9 L7.75,16.1 Q7.75,16.589 8.096,16.923 Q8.435,17.25 8.9,17.25 Z"/>
  <path fill="#17191C" d="M12.75,8.5 L12.75,10.5 Q12.75,10.811 12.53,11.03 Q12.311,11.25 12,11.25 Q11.689,11.25 11.47,11.03 Q11.25,10.811 11.25,10.5 L11.25,8.5 Q11.25,8.189 11.47,7.97 Q11.689,7.75 12,7.75 Q12.311,7.75 12.53,7.97 Q12.75,8.189 12.75,8.5 Z"/>
  <path fill="#17191C" d="M10,9.75 L14,9.75 Q14.311,9.75 14.53,9.97 Q14.75,10.189 14.75,10.5 Q14.75,10.811 14.53,11.03 Q14.311,11.25 14,11.25 L10,11.25 Q9.689,11.25 9.47,11.03 Q9.25,10.811 9.25,10.5 Q9.25,10.189 9.47,9.97 Q9.689,9.75 10,9.75 Z"/>
  <path fill="#17191C" d="M11.25,15.5 L11.25,13.5 Q11.25,13.189 11.47,12.97 Q11.689,12.75 12,12.75 Q12.311,12.75 12.53,12.97 Q12.75,13.189 12.75,13.5 L12.75,15.5 Q12.75,15.811 12.53,16.03 Q12.311,16.25 12,16.25 Q11.689,16.25 11.47,16.03 Q11.25,15.811 11.25,15.5 Z"/>
  <path fill="#17191C" d="M10,12.75 L14,12.75 Q14.311,12.75 14.53,12.97 Q14.75,13.189 14.75,13.5 Q14.75,13.811 14.53,14.03 Q14.311,14.25 14,14.25 L10,14.25 Q9.689,14.25 9.47,14.03 Q9.25,13.811 9.25,13.5 Q9.25,13.189 9.47,12.97 Q9.689,12.75 10,12.75 Z"/>
  <path fill="#17191C" d="M15,22.75 L9,22.75 Q1.25,22.75 1.25,15 L1.25,9 Q1.25,1.25 9,1.25 L15,1.25 Q22.75,1.25 22.75,9 L22.75,15 Q22.75,22.75 15,22.75 Z M15,21.25 Q18.439,21.25 19.845,19.845 Q21.25,18.439 21.25,15 L21.25,9 Q21.25,5.561 19.845,4.155 Q18.439,2.75 15,2.75 L9,2.75 Q2.75,2.75 2.75,9 L2.75,15 Q2.75,21.25 9,21.25 Z"/>
</svg>

