<svg xmlns="http://www.w3.org/2000/svg" width="24" height="24" viewBox="0 0 24 24">
  <defs/>
  <path d="M6.37,22.602 Q5.012,23.173 4.162,21.964 Q3.313,20.756 4.308,19.672 L11.638,11.713 L8.096,8.127 L8.094,8.126 Q7.414,7.432 7.598,6.48 Q7.785,5.519 8.679,5.149 L17.617,1.399 Q18.938,0.841 19.796,1.99 Q20.654,3.137 19.75,4.245 L13.683,11.659 L17.265,15.285 Q17.947,15.98 17.759,16.93 Q17.57,17.881 16.671,18.261 L6.371,22.601 Z M12.689,12.787 L5.411,20.688 Q5.234,20.881 5.389,21.102 Q5.544,21.322 5.788,21.219 L5.789,21.219 L16.088,16.879 Q16.254,16.809 16.288,16.638 Q16.322,16.466 16.194,16.336 L12.689,12.787 Z M12.627,10.58 L18.589,3.295 Q18.751,3.097 18.595,2.888 Q18.44,2.68 18.202,2.781 L9.26,6.532 Q9.104,6.596 9.071,6.765 Q9.036,6.943 9.163,7.073 L9.165,7.075 L12.627,10.58 Z"/>
</svg>

