<svg xmlns="http://www.w3.org/2000/svg" width="24" height="24" viewBox="0 0 24 24">
  <defs/>
  <path fill="#17191C" d="M13.712,11.651 L17.354,15.294 L17.376,15.32 Q17.987,16.053 17.782,16.975 Q17.574,17.913 16.695,18.289 L6.399,22.588 Q5.015,23.21 4.167,21.958 Q3.329,20.722 4.358,19.682 L11.662,11.722 L8.07,8.13 Q7.403,7.464 7.617,6.468 Q7.827,5.487 8.705,5.111 L17.628,1.401 L17.644,1.395 Q18.986,0.907 19.823,2.009 Q20.672,3.129 19.792,4.26 L19.786,4.269 L13.712,11.651 Z M12.723,12.784 L5.442,20.719 L5.43,20.73 Q5.261,20.899 5.408,21.117 Q5.55,21.326 5.79,21.217 L5.8,21.212 L16.105,16.911 Q16.276,16.837 16.318,16.65 Q16.36,16.46 16.241,16.301 L12.754,12.815 L12.723,12.784 Z M12.646,10.585 L18.613,3.333 Q18.778,3.115 18.627,2.916 Q18.463,2.699 18.17,2.8 L9.295,6.489 Q9.131,6.56 9.083,6.782 Q9.041,6.98 9.13,7.07 L12.646,10.585 Z"/>
</svg>

