<svg xmlns="http://www.w3.org/2000/svg" width="24" height="24" viewBox="0 0 24 24">
  <defs/>
  <path d="M6.37,22.601 Q5.012,23.173 4.162,21.964 Q3.313,20.756 4.308,19.672 L12.118,11.192 Q12.13,11.179 12.142,11.166 Q12.153,11.156 12.163,11.146 L18.589,3.295 Q18.751,3.096 18.595,2.888 Q18.44,2.68 18.202,2.781 L9.26,6.532 Q9.095,6.601 9.061,6.772 Q9.027,6.945 9.155,7.074 L10.434,8.374 Q10.652,8.595 10.65,8.906 Q10.647,9.216 10.426,9.434 Q10.204,9.652 9.894,9.65 Q9.583,9.647 9.365,9.426 L8.084,8.125 Q7.402,7.43 7.59,6.48 Q7.779,5.529 8.679,5.148 L17.617,1.399 Q18.938,0.841 19.796,1.99 Q20.654,3.137 19.75,4.245 L13.683,11.658 L17.265,15.284 Q17.947,15.98 17.759,16.93 Q17.57,17.881 16.671,18.261 L6.371,22.601 Z M12.689,12.786 L5.411,20.688 Q5.234,20.881 5.389,21.101 Q5.544,21.321 5.788,21.219 L5.789,21.219 L16.088,16.879 Q16.254,16.809 16.288,16.638 Q16.322,16.465 16.194,16.335 L12.689,12.786 Z"/>
</svg>

