<svg xmlns="http://www.w3.org/2000/svg" width="24" height="24" viewBox="0 0 24 24">
  <defs/>
  <path fill="#292D32" d="M16.995,3.25 Q20.306,3.25 21.525,4.47 Q22.745,5.689 22.745,9 L22.745,15 Q22.745,18.311 21.525,19.53 Q20.306,20.75 16.995,20.75 L6.995,20.75 Q3.826,20.75 2.597,19.652 Q1.331,18.518 1.255,15.519 Q1.255,15.511 1.255,15.504 Q1.253,15.193 1.472,14.972 Q1.69,14.752 2.001,14.75 Q4.745,14.736 4.745,12 Q4.745,9.25 2.005,9.25 Q1.995,9.25 1.986,9.25 Q1.675,9.242 1.461,9.017 Q1.247,8.792 1.255,8.481 Q1.331,5.482 2.597,4.348 Q3.826,3.25 6.995,3.25 Z M16.995,4.75 L6.995,4.75 Q4.399,4.75 3.597,5.467 Q2.938,6.057 2.791,7.817 Q4.051,8.039 5.005,8.997 Q6.245,10.242 6.245,12 Q6.245,13.757 5.004,15 Q4.051,15.955 2.791,16.18 Q2.937,17.943 3.597,18.533 Q4.399,19.25 6.995,19.25 L16.995,19.25 Q19.684,19.25 20.465,18.47 Q21.245,17.689 21.245,15 L21.245,9 Q21.245,6.311 20.465,5.53 Q19.684,4.75 16.995,4.75 Z"/>
  <path fill="#292D32" d="M9.743,4 L9.743,7.5 Q9.743,7.811 9.523,8.03 Q9.304,8.25 8.993,8.25 Q8.682,8.25 8.463,8.03 Q8.243,7.811 8.243,7.5 L8.243,4 Q8.243,3.689 8.463,3.47 Q8.682,3.25 8.993,3.25 Q9.304,3.25 9.523,3.47 Q9.743,3.689 9.743,4 Z"/>
  <path fill="#292D32" d="M9.743,16.5 L9.743,20 Q9.743,20.311 9.523,20.53 Q9.304,20.75 8.993,20.75 Q8.682,20.75 8.463,20.53 Q8.243,20.311 8.243,20 L8.243,16.5 Q8.243,16.189 8.463,15.97 Q8.682,15.75 8.993,15.75 Q9.304,15.75 9.523,15.97 Q9.743,16.189 9.743,16.5 Z"/>
  <path fill="#292D32" d="M16.241,10.094 L17.443,10.268 Q18.159,10.373 18.384,11.06 Q18.611,11.755 18.084,12.261 L17.214,13.105 L17.424,14.3 Q17.55,15.015 16.962,15.443 Q16.372,15.873 15.732,15.532 L14.66,14.965 L13.585,15.533 Q12.933,15.87 12.351,15.441 Q11.77,15.013 11.896,14.3 L12.106,13.104 L11.24,12.256 Q10.719,11.755 10.946,11.06 Q11.171,10.373 11.886,10.268 L13.088,10.094 L13.617,9.01 Q13.922,8.347 14.656,8.347 Q15.381,8.347 15.698,9 L16.241,10.094 Z M14.662,10.287 L14.366,10.894 Q14.103,11.463 13.483,11.552 L12.771,11.655 L13.285,12.16 Q13.702,12.576 13.617,13.166 Q13.616,13.178 13.614,13.189 L13.492,13.886 L14.115,13.557 Q14.122,13.553 14.13,13.549 Q14.66,13.284 15.19,13.549 Q15.198,13.553 15.205,13.557 L15.828,13.886 L15.706,13.189 Q15.704,13.178 15.703,13.166 Q15.614,12.547 16.051,12.144 L16.555,11.655 L15.841,11.551 Q15.246,11.46 14.973,10.913 L14.662,10.287 Z M13.012,10.248 Q13.008,10.257 13.004,10.266 L13.012,10.248 Z"/>
</svg>

