<svg xmlns="http://www.w3.org/2000/svg" width="24" height="24" viewBox="0 0 24 24">
  <defs/>
  <path fill="#292D32" d="M17.38,20.75 L10.91,20.75 C10.5,20.75 10.16,20.41 10.16,20 C10.16,19.59 10.5,19.25 10.91,19.25 L17.38,19.25 C20.44,19.25 21.16,18.75 21.24,16.03 C19.92,15.69 18.94,14.49 18.94,13.07 C18.94,11.64 19.92,10.43 21.25,10.09 L21.25,9.83 C21.25,6.54 20.67,5.96 17.38,5.96 L11.75,5.96 L11.75,12 C11.75,12.41 11.41,12.75 11,12.75 C10.59,12.75 10.25,12.41 10.25,12 L10.25,5.21 C10.25,4.8 10.59,4.46 11,4.46 L17.38,4.46 C21.5,4.46 22.75,5.71 22.75,9.83 L22.75,10.75 C22.75,11.16 22.41,11.5 22,11.5 C21.14,11.5 20.44,12.2 20.44,13.07 C20.44,13.93 21.14,14.63 22,14.63 C22.41,14.63 22.75,14.97 22.75,15.38 C22.75,19.5 21.5,20.75 17.38,20.75 Z"/>
  <path fill="#292D32" d="M11,20.75 L8.23,20.75 C6.21,20.75 5.17,19.23 4.22,16.95 L4.03,16.49 C3.96,16.31 3.96,16.1 4.04,15.92 C4.12,15.74 4.27,15.59 4.45,15.52 C4.85,15.36 5.16,15.05 5.33,14.66 C5.5,14.26 5.5,13.82 5.33,13.42 C5,12.58 4.05,12.19 3.21,12.52 C3.02,12.6 2.82,12.59 2.63,12.51 C2.45,12.43 2.3,12.28 2.23,12.1 L2.06,11.67 C0.46,7.78 1.16,6.11 5.05,4.5 L7.69,3.42 C8.07,3.26 8.51,3.45 8.67,3.83 L11.7,11.17 C11.74,11.26 11.76,11.36 11.76,11.46 L11.76,14 C11.76,14.41 11.42,14.75 11.01,14.75 C10.6,14.75 10.26,14.41 10.26,14 L10.26,11.6 L7.56,5.09 L5.62,5.89 C2.54,7.16 2.17,7.94 3.38,10.94 C4.77,10.74 6.17,11.49 6.72,12.84 C7.04,13.61 7.04,14.46 6.71,15.23 C6.49,15.76 6.13,16.21 5.67,16.54 C6.63,18.8 7.33,19.25 8.22,19.25 L10.24,19.25 L10.24,17 C10.24,16.59 10.58,16.25 10.99,16.25 C11.4,16.25 11.74,16.59 11.74,17 L11.74,20 C11.75,20.41 11.41,20.75 11,20.75 Z"/>
  <path fill="#292D32" d="M8.17,20.75 L8,20.75 C7.59,20.75 7.25,20.41 7.25,20 C7.25,19.59 7.59,19.25 8,19.25 L8.17,19.25 C8.58,19.25 8.92,19.59 8.92,20 C8.92,20.41 8.58,20.75 8.17,20.75 Z"/>
</svg>

