<svg xmlns="http://www.w3.org/2000/svg" width="24" height="24" viewBox="0 0 24 24">
  <defs/>
  <path fill="#292D32" d="M4.6,6.449 Q2.75,8.922 2.75,12 Q2.75,15.829 5.46,18.54 Q8.171,21.25 12,21.25 Q15.829,21.25 18.54,18.54 Q21.25,15.829 21.25,12 Q21.25,8.171 18.54,5.46 Q15.829,2.75 12,2.75 Q10.031,2.75 8.276,3.535 Q7.993,3.661 7.702,3.551 Q7.412,3.44 7.285,3.156 Q7.159,2.873 7.269,2.582 Q7.38,2.292 7.664,2.165 Q9.711,1.25 12,1.25 Q16.451,1.25 19.6,4.4 Q22.75,7.549 22.75,12 Q22.75,16.451 19.6,19.6 Q16.451,22.75 12,22.75 Q7.549,22.75 4.4,19.6 Q1.25,16.451 1.25,12 Q1.25,8.422 3.4,5.551 Q3.586,5.302 3.893,5.258 Q4.201,5.213 4.449,5.4 Q4.698,5.586 4.742,5.893 Q4.787,6.201 4.6,6.449 Z"/>
  <path fill="#292D32" d="M14.467,9.852 L15.587,8.722 Q15.806,8.501 16.117,8.5 Q16.427,8.499 16.648,8.717 Q16.869,8.936 16.87,9.247 Q16.871,9.557 16.653,9.778 L15.533,10.908 Q15.314,11.129 15.003,11.13 Q14.693,11.131 14.472,10.913 Q14.251,10.694 14.25,10.383 Q14.249,10.073 14.467,9.852 Z"/>
  <path fill="#292D32" d="M8.412,11.471 L10.623,13.689 L12.642,11.679 Q12.862,11.459 13.172,11.46 Q13.483,11.461 13.702,11.681 Q13.922,11.901 13.921,12.211 Q13.92,12.522 13.7,12.741 L11.15,15.281 Q10.93,15.501 10.619,15.5 Q10.309,15.499 10.09,15.279 L7.35,12.529 Q7.13,12.309 7.131,11.999 Q7.131,11.688 7.351,11.469 Q7.572,11.249 7.882,11.25 Q8.193,11.251 8.412,11.471 Z"/>
</svg>

