<svg xmlns="http://www.w3.org/2000/svg" width="24" height="24" viewBox="0 0 24 24">
  <defs/>
  <path fill="#292D32" d="M17,20.75 L7,20.75 C2.59,20.75 1.25,19.41 1.25,15 L1.25,14.5 C1.25,14.09 1.59,13.75 2,13.75 C2.96,13.75 3.75,12.96 3.75,12 C3.75,11.04 2.96,10.25 2,10.25 C1.59,10.25 1.25,9.91 1.25,9.5 L1.25,9 C1.25,4.59 2.59,3.25 7,3.25 L17,3.25 C21.41,3.25 22.75,4.59 22.75,9 L22.75,10 C22.75,10.41 22.41,10.75 22,10.75 C21.04,10.75 20.25,11.54 20.25,12.5 C20.25,13.46 21.04,14.25 22,14.25 C22.41,14.25 22.75,14.59 22.75,15 C22.75,19.41 21.41,20.75 17,20.75 Z M2.75,15.16 C2.77,18.6 3.48,19.25 7,19.25 L17,19.25 C20.34,19.25 21.15,18.66 21.24,15.66 C19.81,15.32 18.75,14.03 18.75,12.5 C18.75,10.97 19.82,9.68 21.25,9.34 L21.25,9 C21.25,5.43 20.58,4.75 17,4.75 L7,4.75 C3.48,4.75 2.77,5.4 2.75,8.84 C4.18,9.18 5.25,10.47 5.25,12 C5.25,13.53 4.18,14.82 2.75,15.16 Z"/>
  <path fill="#292D32" d="M10,7.25 C9.59,7.25 9.25,6.91 9.25,6.5 L9.25,4 C9.25,3.59 9.59,3.25 10,3.25 C10.41,3.25 10.75,3.59 10.75,4 L10.75,6.5 C10.75,6.91 10.41,7.25 10,7.25 Z"/>
  <path fill="#292D32" d="M10,14.58 C9.59,14.58 9.25,14.24 9.25,13.83 L9.25,10.16 C9.25,9.75 9.59,9.41 10,9.41 C10.41,9.41 10.75,9.75 10.75,10.16 L10.75,13.83 C10.75,14.25 10.41,14.58 10,14.58 Z"/>
  <path fill="#292D32" d="M10,20.75 C9.59,20.75 9.25,20.41 9.25,20 L9.25,17.5 C9.25,17.09 9.59,16.75 10,16.75 C10.41,16.75 10.75,17.09 10.75,17.5 L10.75,20 C10.75,20.41 10.41,20.75 10,20.75 Z"/>
</svg>

