<svg xmlns="http://www.w3.org/2000/svg" width="24" height="24" viewBox="0 0 24 24">
  <defs/>
  <path fill="#292D32" d="M2.75,12.96 L2.75,15 Q2.75,18.439 4.155,19.845 Q5.561,21.25 9,21.25 L15,21.25 Q18.439,21.25 19.845,19.845 Q21.25,18.439 21.25,15 L21.25,9 Q21.25,2.75 15,2.75 L9,2.75 Q2.75,2.75 2.75,9 Q2.75,9.311 2.53,9.53 Q2.311,9.75 2,9.75 Q1.689,9.75 1.47,9.53 Q1.25,9.311 1.25,9 Q1.25,1.25 9,1.25 L15,1.25 Q22.75,1.25 22.75,9 L22.75,15 Q22.75,22.75 15,22.75 L9,22.75 Q1.25,22.75 1.25,15 L1.25,12.96 Q1.25,12.649 1.47,12.43 Q1.689,12.21 2,12.21 Q2.311,12.21 2.53,12.43 Q2.75,12.649 2.75,12.96 Z"/>
  <path fill="#292D32" d="M14.467,9.852 L15.587,8.722 Q15.806,8.501 16.117,8.5 Q16.427,8.499 16.648,8.717 Q16.869,8.936 16.87,9.247 Q16.871,9.557 16.653,9.778 L15.533,10.908 Q15.314,11.129 15.003,11.13 Q14.693,11.131 14.472,10.913 Q14.251,10.694 14.25,10.383 Q14.249,10.073 14.467,9.852 Z"/>
  <path fill="#292D32" d="M8.412,11.471 L10.623,13.689 L12.642,11.679 Q12.862,11.459 13.172,11.46 Q13.483,11.461 13.702,11.681 Q13.922,11.901 13.921,12.211 Q13.92,12.522 13.7,12.741 L11.15,15.281 Q10.93,15.501 10.619,15.5 Q10.309,15.499 10.09,15.279 L7.35,12.529 Q7.13,12.309 7.131,11.999 Q7.131,11.688 7.351,11.469 Q7.572,11.249 7.882,11.25 Q8.193,11.251 8.412,11.471 Z"/>
</svg>

