<svg xmlns="http://www.w3.org/2000/svg" width="24" height="24" viewBox="0 0 24 24">
  <defs/>
  <path fill="#292D32" opacity="0.4" d="M19.85,12.94 C19.85,13.74 20.5,14.4 21.3,14.4 C21.68,14.4 22,14.71 22,15.09 C22,18.93 20.84,20.09 17,20.09 L11.75,20.09 L11.75,18.5 C11.75,18.11 11.45,17.79 11.07,17.76 L11.07,14.91 C11.45,14.88 11.75,14.56 11.75,14.17 L11.75,9.83 C11.75,9.44 11.45,9.12 11.07,9.09 L11.07,4.93 L17,4.93 C20.84,4.93 22,6.09 22,9.93 L22,10.78 C22,11.17 21.68,11.48 21.3,11.48 C20.5,11.48 19.85,12.13 19.85,12.94 Z"/>
  <path fill="#292D32" d="M11.07,9.09 C10.66,9.09 10.25,9.42 10.25,9.83 L10.25,14.17 C10.25,14.58 10.59,14.92 11,14.92 C11.02,14.92 11.05,14.92 11.07,14.91 L11.07,17.76 C11.05,17.75 11.02,17.75 11,17.75 C10.59,17.75 10.25,18.09 10.25,18.5 L10.25,20.09 L8.49,20.09 C6.61,20.09 5.64,18.68 4.76,16.55 L4.59,16.13 C4.45,15.77 4.62,15.36 4.98,15.22 C5.35,15.08 5.64,14.79 5.79,14.41 C5.95,14.04 5.95,13.63 5.8,13.26 C5.48,12.49 4.6,12.12 3.82,12.43 C3.65,12.51 3.45,12.51 3.28,12.43 C3.11,12.36 2.98,12.22 2.9,12.04 L2.75,11.64 C1.26,8.02 1.91,6.47 5.53,4.97 L7.98,3.96 C8.34,3.81 8.75,3.98 8.89,4.34 L11.07,9.09 Z"/>
</svg>

