<svg xmlns="http://www.w3.org/2000/svg" width="24" height="24" viewBox="0 0 24 24">
  <defs/>
  <path fill="#292D32" d="M16.19,2 L7.81,2 C4.17,2 2,4.17 2,7.81 L2,16.18 C2,19.83 4.17,22 7.81,22 L16.18,22 C19.82,22 21.99,19.83 21.99,16.19 L21.99,7.81 C22,4.17 19.83,2 16.19,2 Z M16.78,9.7 L11.11,15.37 C10.97,15.51 10.78,15.59 10.58,15.59 C10.38,15.59 10.19,15.51 10.05,15.37 L7.22,12.54 C6.93,12.25 6.93,11.77 7.22,11.48 C7.51,11.19 7.99,11.19 8.28,11.48 L10.58,13.78 L15.72,8.64 C16.01,8.35 16.49,8.35 16.78,8.64 C17.07,8.93 17.07,9.4 16.78,9.7 Z"/>
</svg>

