<svg xmlns="http://www.w3.org/2000/svg" width="24" height="24" viewBox="0 0 24 24">
  <defs/>
  <path fill="#292D32" opacity="0.4" d="M20.839,13.17 C21.229,13.17 21.539,12.85 21.539,12.45 L21.539,11.57 C21.539,7.64 20.339,6.45 16.419,6.45 L10.119,6.45 L10.119,8.88 C10.509,8.88 10.829,9.2 10.829,9.59 L10.829,12.27 C10.829,12.66 10.509,12.98 10.119,12.98 L10.119,15.49 C10.509,15.49 10.829,15.81 10.829,16.2 L10.829,18.88 C10.829,19.27 10.509,19.59 10.119,19.59 L10.119,22 L16.419,22 C20.339,22 21.539,20.8 21.539,16.88 C21.539,16.49 21.229,16.17 20.839,16.17 C19.999,16.17 19.329,15.5 19.329,14.67 C19.329,13.84 19.999,13.17 20.839,13.17 Z"/>
  <path fill="#292D32" d="M7.571,6.46 C7.581,6.46 7.581,6.46 7.571,6.46 L7.581,6.46 L16.411,6.46 C16.481,6.46 16.551,6.46 16.611,6.46 C16.601,6.44 16.601,6.43 16.601,6.41 C16.571,6.06 16.711,5.72 16.971,5.46 C17.101,5.33 17.181,5.15 17.181,4.96 C17.181,4.77 17.101,4.59 16.971,4.46 L16.421,3.9 C15.441,2.91 14.361,2 13.101,2 C11.851,2 10.761,2.91 9.781,3.9 L7.221,6.46 C7.331,6.46 7.451,6.46 7.571,6.46 Z"/>
  <path fill="#292D32" d="M9.411,9.59 L9.411,12.27 C9.411,12.66 9.731,12.98 10.121,12.98 L10.121,15.49 C9.731,15.49 9.411,15.81 9.411,16.2 L9.411,18.88 C9.411,19.27 9.731,19.59 10.121,19.59 L10.121,22 L7.581,22 C3.661,22 2.461,20.8 2.461,16.88 L2.461,16.45 C2.461,16.05 2.771,15.74 3.161,15.74 C4.001,15.74 4.671,15.06 4.671,14.23 C4.671,13.4 4.001,12.72 3.161,12.72 C2.771,12.72 2.461,12.41 2.461,12.01 L2.461,11.58 C2.461,7.65 3.661,6.46 7.581,6.46 L10.111,6.46 L10.111,8.89 C9.731,8.89 9.411,9.21 9.411,9.59 Z"/>
</svg>

