<svg xmlns="http://www.w3.org/2000/svg" width="24" height="24" viewBox="0 0 24 24">
  <defs/>
  <path fill="#292D32" d="M17.189,4.96 C17.189,4.97 17.189,4.97 17.189,4.98 C16.939,4.97 16.689,4.96 16.419,4.96 L8.719,4.96 L9.789,3.9 C10.769,2.91 11.849,2 13.099,2 C14.359,2 15.439,2.91 16.419,3.9 L16.979,4.46 C17.119,4.59 17.189,4.77 17.189,4.96 Z"/>
  <path fill="#292D32" d="M20.841,13.169 C21.231,13.169 21.541,12.849 21.541,12.449 L21.541,11.569 C21.541,7.639 20.341,6.449 16.421,6.449 L10.121,6.449 L7.581,6.449 C3.661,6.449 2.461,7.649 2.461,11.569 L2.461,11.999 C2.461,12.399 2.771,12.709 3.161,12.709 C4.001,12.709 4.671,13.389 4.671,14.219 C4.671,15.049 4.001,15.739 3.161,15.739 C2.771,15.739 2.461,16.049 2.461,16.449 L2.461,16.879 C2.461,20.809 3.661,21.999 7.581,21.999 L10.111,21.999 L16.411,21.999 C20.331,21.999 21.531,20.799 21.531,16.879 C21.531,16.489 21.221,16.169 20.831,16.169 C19.991,16.169 19.321,15.499 19.321,14.669 C19.331,13.839 20.001,13.169 20.841,13.169 Z M10.821,18.859 C10.821,19.249 10.501,19.569 10.111,19.569 C9.721,19.569 9.401,19.249 9.401,18.859 L9.401,16.179 C9.401,15.789 9.721,15.469 10.111,15.469 C10.501,15.469 10.821,15.789 10.821,16.179 L10.821,18.859 Z M10.821,12.269 C10.821,12.659 10.501,12.979 10.111,12.979 C9.721,12.979 9.401,12.659 9.401,12.269 L9.401,9.589 C9.401,9.199 9.721,8.879 10.111,8.879 C10.501,8.879 10.821,9.199 10.821,9.589 L10.821,12.269 Z"/>
</svg>

