<svg xmlns="http://www.w3.org/2000/svg" width="24" height="24" viewBox="0 0 24 24">
  <defs/>
  <path fill="#292D32" d="M19.66,14.693 Q19.66,16.283 21.26,16.283 Q21.571,16.283 21.79,16.502 Q22.01,16.722 22.01,17.033 Q22.01,20.156 20.852,21.314 Q19.693,22.473 16.57,22.473 L7.19,22.473 Q4.067,22.473 2.908,21.314 Q1.75,20.156 1.75,17.033 L1.75,16.573 Q1.75,16.262 1.97,16.042 Q2.189,15.823 2.5,15.823 Q4.1,15.823 4.1,14.223 Q4.1,12.623 2.5,12.623 Q2.189,12.623 1.97,12.403 Q1.75,12.183 1.75,11.873 L1.75,11.413 Q1.758,8.287 2.912,7.132 Q4.069,5.973 7.19,5.973 L16.56,5.973 Q19.683,5.973 20.842,7.131 Q22,8.29 22,11.413 L22,12.353 Q22,12.663 21.78,12.883 Q21.561,13.103 21.25,13.103 Q20.591,13.103 20.126,13.566 Q19.66,14.031 19.66,14.693 Z M18.16,14.693 Q18.16,13.408 19.067,12.504 Q19.693,11.879 20.5,11.688 L20.5,11.413 Q20.5,8.911 19.781,8.192 Q19.062,7.473 16.56,7.473 L7.19,7.473 Q4.691,7.473 3.973,8.191 Q3.291,8.874 3.252,11.175 Q5.6,11.525 5.6,14.223 Q5.6,16.921 3.252,17.271 Q3.285,19.569 3.969,20.254 Q4.688,20.973 7.19,20.973 L16.57,20.973 Q19.072,20.973 19.791,20.254 Q20.404,19.64 20.495,17.729 Q18.16,17.374 18.16,14.693 Z"/>
  <path fill="#292D32" opacity="0.4" d="M16.211,7.472 L7.121,7.472 Q6.81,7.472 6.591,7.253 Q6.371,7.033 6.371,6.722 Q6.371,6.412 6.591,6.192 L9.521,3.262 Q11.533,1.25 13.041,1.25 Q14.549,1.25 16.561,3.262 L17.161,3.862 Q17.381,4.082 17.381,4.392 Q17.381,4.703 17.161,4.923 Q16.505,5.58 16.891,6.405 Q17.022,6.686 16.916,6.978 Q16.81,7.27 16.529,7.402 Q16.378,7.472 16.211,7.472 Z M15.231,5.972 Q15.163,5.165 15.624,4.446 L15.501,4.323 Q13.928,2.75 13.041,2.75 Q12.154,2.75 10.581,4.323 L8.932,5.972 L15.231,5.972 Z"/>
  <path fill="#292D32" opacity="0.4" d="M10.629,6.723 L10.629,11.723 Q10.629,12.033 10.409,12.253 Q10.19,12.473 9.879,12.473 Q9.568,12.473 9.349,12.253 Q9.129,12.033 9.129,11.723 L9.129,6.723 Q9.129,6.412 9.349,6.192 Q9.568,5.973 9.879,5.973 Q10.19,5.973 10.409,6.192 Q10.629,6.412 10.629,6.723 Z M10.629,16.723 L10.629,21.723 Q10.629,22.033 10.409,22.253 Q10.19,22.473 9.879,22.473 Q9.568,22.473 9.349,22.253 Q9.129,22.033 9.129,21.723 L9.129,16.723 Q9.129,16.412 9.349,16.192 Q9.568,15.973 9.879,15.973 Q10.19,15.973 10.409,16.192 Q10.629,16.412 10.629,16.723 Z"/>
</svg>

