<svg xmlns="http://www.w3.org/2000/svg" width="24" height="24" viewBox="0 0 24 24">
  <defs/>
  <path fill="#292D32" d="M12,22.75 C6.07,22.75 1.25,17.93 1.25,12 C1.25,6.07 6.07,1.25 12,1.25 C17.93,1.25 22.75,6.07 22.75,12 C22.75,17.93 17.93,22.75 12,22.75 Z M12,2.75 C6.9,2.75 2.75,6.9 2.75,12 C2.75,17.1 6.9,21.25 12,21.25 C17.1,21.25 21.25,17.1 21.25,12 C21.25,6.9 17.1,2.75 12,2.75 Z"/>
  <path fill="#292D32" d="M10.579,15.58 C10.38,15.58 10.19,15.5 10.05,15.36 L7.219,12.53 C6.929,12.24 6.929,11.76 7.219,11.47 C7.509,11.18 7.989,11.18 8.279,11.47 L10.579,13.77 L15.72,8.63 C16.009,8.34 16.489,8.34 16.779,8.63 C17.07,8.92 17.07,9.4 16.779,9.69 L11.11,15.36 C10.97,15.5 10.78,15.58 10.579,15.58 Z"/>
</svg>

