<svg xmlns="http://www.w3.org/2000/svg" width="24" height="24" viewBox="0 0 24 24">
  <defs/>
  <path fill="#292D32" opacity="0.4" d="M21.3,10.84 C21.69,10.84 22,10.53 22,10.14 L22,9.21 C22,5.11 20.75,3.86 16.65,3.86 L7.35,3.86 C3.25,3.86 2,5.11 2,9.21 L2,9.68 C2,10.07 2.31,10.38 2.7,10.38 C3.6,10.38 4.33,11.11 4.33,12.01 C4.33,12.91 3.6,13.63 2.7,13.63 C2.31,13.63 2,13.94 2,14.33 L2,14.8 C2,18.9 3.25,20.15 7.35,20.15 L16.65,20.15 C20.75,20.15 22,18.9 22,14.8 C22,14.41 21.69,14.1 21.3,14.1 C20.4,14.1 19.67,13.37 19.67,12.47 C19.67,11.57 20.4,10.84 21.3,10.84 Z"/>
  <path fill="#292D32" d="M15,15.88 C14.44,15.88 13.99,15.43 13.99,14.88 C13.99,14.33 14.44,13.88 14.99,13.88 C15.54,13.88 15.99,14.33 15.99,14.88 C15.99,15.43 15.56,15.88 15,15.88 Z"/>
  <path fill="#292D32" d="M9,10.88 C8.44,10.88 7.99,10.43 7.99,9.88 C7.99,9.33 8.44,8.88 8.99,8.88 C9.54,8.88 9.99,9.33 9.99,9.88 C9.99,10.43 9.56,10.88 9,10.88 Z"/>
  <path fill="#292D32" d="M8.63,16.43 C8.44,16.43 8.25,16.36 8.1,16.21 C7.81,15.92 7.81,15.44 8.1,15.15 L14.83,8.42 C15.12,8.13 15.6,8.13 15.89,8.42 C16.18,8.71 16.18,9.19 15.89,9.48 L9.16,16.21 C9.02,16.36 8.82,16.43 8.63,16.43 Z"/>
</svg>

