<svg xmlns="http://www.w3.org/2000/svg" width="24" height="24" viewBox="0 0 24 24">
  <defs/>
  <path fill="#292D32" d="M16.689,22.75 L7.309,22.75 C3.139,22.75 1.869,21.48 1.869,17.31 L1.869,16.85 C1.869,16.44 2.209,16.1 2.619,16.1 C3.499,16.1 4.219,15.38 4.219,14.5 C4.219,13.62 3.499,12.9 2.619,12.9 C2.209,12.9 1.869,12.56 1.869,12.15 L1.869,11.69 C1.869,7.52 3.139,6.25 7.309,6.25 L16.689,6.25 C20.859,6.25 22.129,7.52 22.129,11.69 L22.129,12.63 C22.129,13.04 21.789,13.38 21.379,13.38 C20.499,13.38 19.779,14.1 19.779,14.98 C19.779,15.86 20.499,16.57 21.379,16.57 C21.789,16.57 22.129,16.91 22.129,17.32 C22.119,21.48 20.849,22.75 16.689,22.75 Z M3.379,17.51 C3.399,20.69 4.029,21.25 7.319,21.25 L16.699,21.25 C19.819,21.25 20.539,20.74 20.629,17.97 C19.289,17.63 18.289,16.42 18.289,14.97 C18.289,13.52 19.289,12.3 20.639,11.96 L20.639,11.68 C20.639,8.33 20.049,7.74 16.699,7.74 L7.309,7.74 C4.029,7.74 3.399,8.31 3.369,11.48 C4.719,11.82 5.719,13.04 5.719,14.49 C5.719,15.94 4.719,17.17 3.379,17.51 Z"/>
  <path fill="#292D32" d="M10,10.25 C9.59,10.25 9.25,9.91 9.25,9.5 L9.25,7 C9.25,6.59 9.59,6.25 10,6.25 C10.41,6.25 10.75,6.59 10.75,7 L10.75,9.5 C10.75,9.91 10.41,10.25 10,10.25 Z"/>
  <path fill="#292D32" d="M10,16.92 C9.59,16.92 9.25,16.58 9.25,16.17 L9.25,12.84 C9.25,12.43 9.59,12.09 10,12.09 C10.41,12.09 10.75,12.43 10.75,12.84 L10.75,16.17 C10.75,16.58 10.41,16.92 10,16.92 Z"/>
  <path fill="#292D32" d="M10,22.75 C9.59,22.75 9.25,22.41 9.25,22 L9.25,19.5 C9.25,19.09 9.59,18.75 10,18.75 C10.41,18.75 10.75,19.09 10.75,19.5 L10.75,22 C10.75,22.41 10.41,22.75 10,22.75 Z"/>
  <path fill="#292D32" d="M16.33,7.75 L7.24,7.75 C6.94,7.75 6.66,7.57 6.55,7.29 C6.44,7.01 6.5,6.68 6.71,6.47 L9.64,3.54 C12.34,0.84 13.99,0.84 16.68,3.54 L17.28,4.14 C17.42,4.28 17.5,4.47 17.5,4.67 C17.5,4.87 17.42,5.06 17.28,5.2 C16.88,5.6 16.77,6.19 17,6.7 C17.11,6.93 17.09,7.2 16.95,7.42 C16.82,7.62 16.58,7.75 16.33,7.75 Z M9.05,6.25 L15.38,6.25 C15.36,5.72 15.49,5.19 15.76,4.73 L15.63,4.6 C13.54,2.51 12.8,2.51 10.71,4.6 L9.05,6.25 Z"/>
</svg>

