<svg xmlns="http://www.w3.org/2000/svg" width="24" height="24" viewBox="0 0 24 24">
  <defs/>
  <path fill="#292D32" d="M20.25,12.5 Q20.25,13.224 20.763,13.737 Q21.276,14.25 22,14.25 Q22.311,14.25 22.53,14.47 Q22.75,14.689 22.75,15 Q22.75,18.311 21.53,19.53 Q20.311,20.75 17,20.75 L7,20.75 Q3.689,20.75 2.47,19.53 Q1.25,18.311 1.25,15 L1.25,14.5 Q1.25,14.189 1.47,13.97 Q1.689,13.75 2,13.75 Q3.75,13.75 3.75,12 Q3.75,10.25 2,10.25 Q1.689,10.25 1.47,10.03 Q1.25,9.811 1.25,9.5 L1.25,9 Q1.25,5.689 2.47,4.47 Q3.689,3.25 7,3.25 L17,3.25 Q20.311,3.25 21.53,4.47 Q22.75,5.689 22.75,9 L22.75,10 Q22.75,10.311 22.53,10.53 Q22.311,10.75 22,10.75 Q20.25,10.75 20.25,12.5 Z M18.75,12.5 Q18.75,11.154 19.702,10.202 Q20.377,9.527 21.25,9.331 L21.25,9 Q21.25,6.311 20.47,5.53 Q19.689,4.75 17,4.75 L7,4.75 Q4.311,4.75 3.53,5.53 Q2.78,6.281 2.751,8.799 Q5.25,9.15 5.25,12 Q5.25,13.346 4.298,14.298 Q3.623,14.973 2.751,15.169 Q2.775,17.714 3.53,18.47 Q4.311,19.25 7,19.25 L17,19.25 Q19.689,19.25 20.47,18.47 Q21.143,17.796 21.235,15.699 Q18.75,15.342 18.75,12.5 Z"/>
  <path fill="#292D32" opacity="0.4" d="M10.75,4 L10.75,9 Q10.75,9.311 10.53,9.53 Q10.311,9.75 10,9.75 Q9.689,9.75 9.47,9.53 Q9.25,9.311 9.25,9 L9.25,4 Q9.25,3.689 9.47,3.47 Q9.689,3.25 10,3.25 Q10.311,3.25 10.53,3.47 Q10.75,3.689 10.75,4 Z M10.75,14 L10.75,19 Q10.75,19.311 10.53,19.53 Q10.311,19.75 10,19.75 Q9.689,19.75 9.47,19.53 Q9.25,19.311 9.25,19 L9.25,14 Q9.25,13.689 9.47,13.47 Q9.689,13.25 10,13.25 Q10.311,13.25 10.53,13.47 Q10.75,13.689 10.75,14 Z"/>
</svg>

