<svg xmlns="http://www.w3.org/2000/svg" width="24" height="24" viewBox="0 0 24 24">
  <defs/>
  <path fill="#292D32" d="M15,22.75 L9,22.75 C3.57,22.75 1.25,20.43 1.25,15 L1.25,9 C1.25,3.57 3.57,1.25 9,1.25 L15,1.25 C20.43,1.25 22.75,3.57 22.75,9 L22.75,15 C22.75,20.43 20.43,22.75 15,22.75 Z M9,2.75 C4.39,2.75 2.75,4.39 2.75,9 L2.75,15 C2.75,19.61 4.39,21.25 9,21.25 L15,21.25 C19.61,21.25 21.25,19.61 21.25,15 L21.25,9 C21.25,4.39 19.61,2.75 15,2.75 L9,2.75 Z"/>
  <path fill="#292D32" d="M10.579,15.58 C10.38,15.58 10.19,15.5 10.05,15.36 L7.219,12.53 C6.929,12.24 6.929,11.76 7.219,11.47 C7.509,11.18 7.989,11.18 8.279,11.47 L10.579,13.77 L15.72,8.63 C16.009,8.34 16.489,8.34 16.779,8.63 C17.07,8.92 17.07,9.4 16.779,9.69 L11.11,15.36 C10.97,15.5 10.78,15.58 10.579,15.58 Z"/>
</svg>

