<svg xmlns="http://www.w3.org/2000/svg" width="24" height="24" viewBox="0 0 24 24">
  <defs/>
  <path fill="#292D32" d="M19.85,12.941 C19.85,13.741 20.5,14.401 21.3,14.401 C21.68,14.401 22,14.711 22,15.091 C22,18.931 20.84,20.091 17,20.091 L11.75,20.091 L11.75,18.501 C11.75,18.111 11.45,17.791 11.07,17.761 C11.05,17.751 11.02,17.751 11,17.751 C10.59,17.751 10.25,18.091 10.25,18.501 L10.25,20.091 L8.49,20.091 C6.61,20.091 5.64,18.681 4.76,16.551 L4.59,16.131 C4.45,15.771 4.62,15.361 4.98,15.221 C5.35,15.081 5.64,14.791 5.79,14.411 C5.95,14.041 5.95,13.631 5.8,13.261 C5.48,12.491 4.6,12.121 3.82,12.431 C3.65,12.511 3.45,12.511 3.28,12.431 C3.11,12.361 2.98,12.221 2.9,12.041 L2.75,11.641 C1.26,8.021 1.91,6.471 5.53,4.971 L7.98,3.961 C8.34,3.811 8.75,3.981 8.89,4.341 L11.07,9.091 C10.66,9.091 10.25,9.421 10.25,9.831 L10.25,14.171 C10.25,14.581 10.59,14.921 11,14.921 C11.02,14.921 11.05,14.921 11.07,14.911 C11.45,14.881 11.75,14.561 11.75,14.171 L11.75,9.831 C11.75,9.441 11.45,9.121 11.07,9.091 L11.07,4.931 L17,4.931 C20.84,4.931 22,6.091 22,9.931 L22,10.781 C22,11.171 21.68,11.481 21.3,11.481 C20.5,11.481 19.85,12.131 19.85,12.941 Z"/>
</svg>

