<svg xmlns="http://www.w3.org/2000/svg" width="24" height="24" viewBox="0 0 24 24">
  <defs/>
  <path fill="#292D32" d="M17,20.75 L7,20.75 C2.59,20.75 1.25,19.41 1.25,15 L1.25,14.5 C1.25,14.09 1.59,13.75 2,13.75 C2.96,13.75 3.75,12.96 3.75,12 C3.75,11.04 2.96,10.25 2,10.25 C1.59,10.25 1.25,9.91 1.25,9.5 L1.25,9 C1.25,4.59 2.59,3.25 7,3.25 L17,3.25 C21.41,3.25 22.75,4.59 22.75,9 L22.75,10 C22.75,10.41 22.41,10.75 22,10.75 C21.04,10.75 20.25,11.54 20.25,12.5 C20.25,13.46 21.04,14.25 22,14.25 C22.41,14.25 22.75,14.59 22.75,15 C22.75,19.41 21.41,20.75 17,20.75 Z M2.75,15.16 C2.77,18.6 3.48,19.25 7,19.25 L17,19.25 C20.34,19.25 21.15,18.66 21.24,15.66 C19.81,15.32 18.75,14.03 18.75,12.5 C18.75,10.97 19.82,9.68 21.25,9.34 L21.25,9 C21.25,5.43 20.57,4.75 17,4.75 L7,4.75 C3.48,4.75 2.77,5.4 2.75,8.84 C4.18,9.18 5.25,10.47 5.25,12 C5.25,13.53 4.18,14.82 2.75,15.16 Z"/>
  <path fill="#292D32" d="M15,15.88 C14.44,15.88 13.99,15.43 13.99,14.88 C13.99,14.33 14.44,13.88 14.99,13.88 C15.54,13.88 15.99,14.33 15.99,14.88 C15.99,15.43 15.56,15.88 15,15.88 Z"/>
  <path fill="#292D32" d="M9,10.88 C8.44,10.88 7.99,10.43 7.99,9.88 C7.99,9.33 8.44,8.88 8.99,8.88 C9.54,8.88 9.99,9.33 9.99,9.88 C9.99,10.43 9.56,10.88 9,10.88 Z"/>
  <path fill="#292D32" d="M8.63,16.43 C8.44,16.43 8.25,16.36 8.1,16.21 C7.81,15.92 7.81,15.44 8.1,15.15 L14.83,8.42 C15.12,8.13 15.6,8.13 15.89,8.42 C16.18,8.71 16.18,9.19 15.89,9.48 L9.16,16.21 C9.02,16.36 8.82,16.43 8.63,16.43 Z"/>
</svg>

