<svg xmlns="http://www.w3.org/2000/svg" width="24" height="24" viewBox="0 0 24 24">
  <defs/>
  <path fill="#292D32" d="M20.25,12.5 Q20.25,13.224 20.763,13.737 Q21.276,14.25 22,14.25 Q22.311,14.25 22.53,14.47 Q22.75,14.689 22.75,15 Q22.75,18.311 21.53,19.53 Q20.311,20.75 17,20.75 L7,20.75 Q3.689,20.75 2.47,19.53 Q1.25,18.311 1.25,15 L1.25,14.5 Q1.25,14.189 1.47,13.97 Q1.689,13.75 2,13.75 Q3.75,13.75 3.75,12 Q3.75,10.25 2,10.25 Q1.689,10.25 1.47,10.03 Q1.25,9.811 1.25,9.5 L1.25,9 Q1.25,5.689 2.47,4.47 Q3.689,3.25 7,3.25 L17,3.25 Q20.311,3.25 21.53,4.47 Q22.75,5.689 22.75,9 L22.75,10 Q22.75,10.311 22.53,10.53 Q22.311,10.75 22,10.75 Q20.25,10.75 20.25,12.5 Z M18.75,12.5 Q18.75,11.154 19.702,10.202 Q20.377,9.527 21.25,9.331 L21.25,9 Q21.25,6.311 20.47,5.53 Q19.689,4.75 17,4.75 L7,4.75 Q4.311,4.75 3.53,5.53 Q2.78,6.281 2.751,8.799 Q5.25,9.15 5.25,12 Q5.25,13.346 4.298,14.298 Q3.623,14.973 2.751,15.169 Q2.775,17.714 3.53,18.47 Q4.311,19.25 7,19.25 L17,19.25 Q19.689,19.25 20.47,18.47 Q21.143,17.796 21.235,15.699 Q18.75,15.342 18.75,12.5 Z"/>
  <path fill="#292D32" d="M8.47,14.22 L14.47,8.22 Q14.689,8 15,8 Q15.311,8 15.53,8.22 Q15.75,8.439 15.75,8.75 Q15.75,9.061 15.53,9.28 L9.53,15.28 Q9.311,15.5 9,15.5 Q8.689,15.5 8.47,15.28 Q8.25,15.061 8.25,14.75 Q8.25,14.439 8.47,14.22 Z"/>
  <path fill="#292D32" d="M14.995,13.75 L15.003,13.75 Q15.418,13.75 15.711,14.043 Q16.003,14.336 16.003,14.75 Q16.003,15.164 15.711,15.457 Q15.418,15.75 15.003,15.75 L14.995,15.75 Q14.58,15.75 14.287,15.457 Q13.994,15.164 13.994,14.75 Q13.994,14.336 14.287,14.043 Q14.58,13.75 14.995,13.75 Z"/>
  <path fill="#292D32" d="M8.995,8.25 L9.003,8.25 Q9.418,8.25 9.711,8.543 Q10.003,8.836 10.003,9.25 Q10.003,9.664 9.711,9.957 Q9.418,10.25 9.003,10.25 L8.995,10.25 Q8.58,10.25 8.287,9.957 Q7.995,9.664 7.995,9.25 Q7.995,8.836 8.287,8.543 Q8.58,8.25 8.995,8.25 Z"/>
</svg>

