<svg xmlns="http://www.w3.org/2000/svg" width="24" height="24" viewBox="0 0 24 24">
  <defs/>
  <path fill="#292D32" opacity="0.4" d="M16.19,2 L7.81,2 C4.17,2 2,4.17 2,7.81 L2,16.18 C2,19.83 4.17,22 7.81,22 L16.18,22 C19.82,22 21.99,19.83 21.99,16.19 L21.99,7.81 C22,4.17 19.83,2 16.19,2 Z"/>
  <path fill="#292D32" d="M10.579,15.58 C10.38,15.58 10.19,15.5 10.05,15.36 L7.219,12.53 C6.929,12.24 6.929,11.76 7.219,11.47 C7.509,11.18 7.989,11.18 8.279,11.47 L10.579,13.77 L15.72,8.63 C16.009,8.34 16.489,8.34 16.779,8.63 C17.07,8.92 17.07,9.4 16.779,9.69 L11.11,15.36 C10.97,15.5 10.78,15.58 10.579,15.58 Z"/>
</svg>

