<svg xmlns="http://www.w3.org/2000/svg" width="24" height="24" viewBox="0 0 24 24">
  <defs/>
  <path fill="#292D32" d="M21.25,10.75 L21.25,9.83 Q21.25,7.366 20.547,6.663 Q19.844,5.96 17.38,5.96 L11.75,5.96 L11.75,12 Q11.75,12.311 11.53,12.53 Q11.311,12.75 11,12.75 Q10.689,12.75 10.47,12.53 Q10.25,12.311 10.25,12 L10.25,5.21 Q10.25,4.899 10.47,4.68 Q10.689,4.46 11,4.46 L17.38,4.46 Q20.466,4.46 21.608,5.602 Q22.75,6.744 22.75,9.83 L22.75,10.75 Q22.75,11.061 22.53,11.28 Q22.311,11.5 22,11.5 Q21.689,11.5 21.47,11.28 Q21.25,11.061 21.25,10.75 Z"/>
  <path fill="#292D32" d="M10.91,19.25 L17.38,19.25 Q19.845,19.25 20.547,18.547 Q21.146,17.949 21.235,16.075 Q18.94,15.72 18.94,13.07 Q18.94,12.759 19.16,12.54 Q19.38,12.32 19.69,12.32 Q20.001,12.32 20.221,12.54 Q20.44,12.759 20.44,13.07 Q20.44,14.63 22,14.63 Q22.311,14.63 22.531,14.85 Q22.75,15.069 22.75,15.38 Q22.75,18.466 21.608,19.608 Q20.466,20.75 17.38,20.75 L10.91,20.75 Q10.6,20.75 10.38,20.53 Q10.16,20.311 10.16,20 Q10.16,19.689 10.38,19.47 Q10.6,19.25 10.91,19.25 Z"/>
  <path fill="#292D32" d="M11.749,17 L11.749,20 Q11.749,20.311 11.53,20.53 Q11.31,20.75 10.999,20.75 L8.229,20.75 Q5.796,20.75 4.226,16.957 L4.043,16.498 Q3.928,16.21 4.05,15.924 Q4.172,15.639 4.461,15.524 L4.463,15.523 Q5.078,15.279 5.338,14.659 Q5.598,14.037 5.338,13.421 Q5.084,12.794 4.465,12.536 Q3.842,12.277 3.214,12.534 Q2.926,12.652 2.64,12.532 Q2.353,12.412 2.235,12.124 Q2.234,12.12 2.232,12.116 L2.062,11.686 Q0.867,8.765 1.497,7.246 Q2.129,5.721 5.054,4.516 L7.695,3.436 Q7.982,3.318 8.268,3.438 Q8.555,3.557 8.673,3.844 L11.693,11.164 Q11.749,11.301 11.749,11.45 L11.749,14 Q11.749,14.311 11.53,14.53 Q11.31,14.75 10.999,14.75 Q10.689,14.75 10.469,14.53 Q10.249,14.311 10.249,14 L10.249,11.599 L7.571,5.107 L5.625,5.903 Q3.276,6.871 2.882,7.821 Q2.506,8.729 3.378,10.938 Q4.211,10.805 5.042,11.151 Q6.239,11.65 6.721,12.839 Q7.225,14.035 6.721,15.238 Q6.372,16.073 5.686,16.557 Q6.843,19.25 8.229,19.25 L10.249,19.25 L10.249,17 Q10.249,16.689 10.469,16.47 Q10.689,16.25 10.999,16.25 Q11.31,16.25 11.53,16.47 Q11.749,16.689 11.749,17 Z"/>
  <path fill="#292D32" d="M8.17,20.75 L8,20.75 Q7.689,20.75 7.47,20.53 Q7.25,20.311 7.25,20 Q7.25,19.689 7.47,19.47 Q7.689,19.25 8,19.25 L8.17,19.25 Q8.481,19.25 8.7,19.47 Q8.92,19.689 8.92,20 Q8.92,20.311 8.7,20.53 Q8.481,20.75 8.17,20.75 Z"/>
</svg>

