<svg xmlns="http://www.w3.org/2000/svg" width="24" height="24" viewBox="0 0 24 24">
  <defs/>
  <path fill="#292D32" d="M3.499,15.974 Q3.152,16.101 2.796,16.168 Q2.941,17.94 3.603,18.533 Q4.403,19.25 7,19.25 L17,19.25 Q19.689,19.25 20.469,18.47 Q21.25,17.689 21.25,15 L21.25,9 Q21.25,6.311 20.469,5.53 Q19.689,4.75 17,4.75 L7,4.75 Q4.403,4.75 3.602,5.467 Q2.942,6.057 2.796,7.817 Q4.055,8.039 5.01,8.997 Q6.25,10.242 6.25,12 Q6.25,12.311 6.03,12.53 Q5.81,12.75 5.5,12.75 Q5.189,12.75 4.969,12.53 Q4.75,12.311 4.75,12 Q4.75,10.861 3.947,10.056 Q3.145,9.25 2.01,9.25 Q2,9.25 1.991,9.25 Q1.68,9.242 1.466,9.017 Q1.252,8.792 1.26,8.481 Q1.335,5.482 2.602,4.348 Q3.83,3.25 7,3.25 L17,3.25 Q20.31,3.25 21.53,4.47 Q22.75,5.689 22.75,9 L22.75,15 Q22.75,18.311 21.53,19.53 Q20.31,20.75 17,20.75 L7,20.75 Q3.83,20.75 2.602,19.65 Q1.335,18.515 1.26,15.509 Q1.26,15.499 1.26,15.49 Q1.26,15.179 1.479,14.96 Q1.699,14.74 2.01,14.74 Q2.509,14.74 2.98,14.566 Q3.272,14.459 3.554,14.589 Q3.836,14.719 3.944,15.011 Q4.051,15.302 3.921,15.584 Q3.791,15.866 3.499,15.974 Z"/>
  <path fill="#292D32" d="M9.75,4 L9.75,7.5 Q9.75,7.811 9.53,8.03 Q9.311,8.25 9,8.25 Q8.689,8.25 8.47,8.03 Q8.25,7.811 8.25,7.5 L8.25,4 Q8.25,3.689 8.47,3.47 Q8.689,3.25 9,3.25 Q9.311,3.25 9.53,3.47 Q9.75,3.689 9.75,4 Z"/>
  <path fill="#292D32" d="M9.75,16.5 L9.75,20 Q9.75,20.311 9.53,20.53 Q9.311,20.75 9,20.75 Q8.689,20.75 8.47,20.53 Q8.25,20.311 8.25,20 L8.25,16.5 Q8.25,16.189 8.47,15.97 Q8.689,15.75 9,15.75 Q9.311,15.75 9.53,15.97 Q9.75,16.189 9.75,16.5 Z"/>
  <path fill="#292D32" d="M14.69,14.942 L13.59,15.523 Q12.938,15.86 12.356,15.431 Q11.775,15.003 11.901,14.29 L12.111,13.094 L11.245,12.246 Q10.723,11.745 10.951,11.05 Q11.176,10.363 11.891,10.258 L13.093,10.084 L13.626,8.991 Q13.942,8.337 14.67,8.337 Q15.398,8.337 15.715,8.993 L16.256,10.084 L17.457,10.258 Q18.174,10.363 18.399,11.05 Q18.626,11.745 18.099,12.251 L17.209,13.115 Q17.193,13.322 17.06,13.5 Q16.874,13.748 16.566,13.792 Q16.258,13.836 16.01,13.65 Q15.761,13.464 15.717,13.156 Q15.629,12.537 16.066,12.134 L16.57,11.645 L15.856,11.541 Q15.261,11.45 14.988,10.903 L14.672,10.267 L14.371,10.884 Q14.108,11.453 13.487,11.542 L12.776,11.645 L13.29,12.15 Q13.707,12.566 13.622,13.156 Q13.621,13.168 13.619,13.179 L13.497,13.876 L14.119,13.547 Q14.127,13.543 14.134,13.539 Q14.665,13.274 15.195,13.539 Q15.473,13.678 15.571,13.973 Q15.67,14.267 15.531,14.545 Q15.392,14.823 15.097,14.921 Q14.889,14.991 14.69,14.942 Z M13.017,10.238 Q13.013,10.247 13.009,10.256 L13.017,10.238 Z M12.301,11.18 Q12.298,11.177 12.295,11.174 L12.301,11.18 Z M14.365,9.647 Q14.367,9.651 14.369,9.655 L14.365,9.647 Z"/>
</svg>

