<svg xmlns="http://www.w3.org/2000/svg" width="24" height="24" viewBox="0 0 24 24">
  <defs/>
  <path fill="#292D32" opacity="0.4" d="M22.001,9.21 L22.001,14.79 C22.001,18.89 20.751,20.14 16.651,20.14 L9.911,20.14 L9.911,17.12 C9.911,16.74 9.591,16.42 9.211,16.42 L9.211,7.58 C9.591,7.58 9.911,7.26 9.911,6.88 L9.911,3.86 L16.651,3.86 C20.751,3.86 22.001,5.11 22.001,9.21 Z"/>
  <path fill="#292D32" d="M18.469,11.9 C18.639,11.74 18.699,11.49 18.629,11.27 C18.559,11.04 18.369,10.88 18.129,10.85 L16.849,10.66 C16.799,10.65 16.759,10.62 16.739,10.58 L16.169,9.42 C16.069,9.21 15.849,9.08 15.619,9.08 C15.379,9.08 15.169,9.21 15.059,9.42 L14.489,10.58 C14.469,10.63 14.419,10.66 14.369,10.66 L13.089,10.85 C12.859,10.88 12.659,11.05 12.589,11.27 C12.519,11.5 12.579,11.74 12.749,11.9 L13.679,12.8 C13.719,12.83 13.729,12.89 13.719,12.94 L13.499,14.21 C13.459,14.44 13.549,14.68 13.749,14.81 C13.859,14.89 13.979,14.93 14.109,14.93 C14.209,14.93 14.309,14.91 14.399,14.86 L15.549,14.26 C15.589,14.24 15.649,14.24 15.689,14.26 L16.839,14.86 C17.049,14.97 17.299,14.95 17.489,14.81 C17.679,14.67 17.779,14.44 17.739,14.2 L17.519,12.93 C17.509,12.88 17.529,12.83 17.559,12.79 L18.469,11.9 Z"/>
  <path fill="#292D32" d="M9.211,7.58 L9.211,16.42 C8.831,16.42 8.511,16.74 8.511,17.12 L8.511,20.14 L7.351,20.14 C3.401,20.14 2.101,18.96 2.011,15.28 C2.001,15.09 2.081,14.91 2.211,14.78 C2.341,14.64 2.531,14.57 2.711,14.57 C4.111,14.57 5.261,13.42 5.261,12.01 C5.261,10.6 4.111,9.44 2.711,9.44 C2.511,9.44 2.341,9.37 2.211,9.23 C2.081,9.1 2.001,8.91 2.011,8.73 C2.101,5.04 3.401,3.86 7.351,3.86 L8.511,3.86 L8.511,6.88 C8.511,7.27 8.831,7.58 9.211,7.58 Z"/>
</svg>

