<svg xmlns="http://www.w3.org/2000/svg" width="24" height="24" viewBox="0 0 24 24">
  <defs/>
  <path fill="#292D32" d="M22,10.75 C22.41,10.75 22.75,10.41 22.75,10 L22.75,9 C22.75,4.59 21.41,3.25 17,3.25 L10.75,3.25 L10.75,5.5 C10.75,5.91 10.41,6.25 10,6.25 C9.59,6.25 9.25,5.91 9.25,5.5 L9.25,3.25 L7,3.25 C2.59,3.25 1.25,4.59 1.25,9 L1.25,9.5 C1.25,9.91 1.59,10.25 2,10.25 C2.96,10.25 3.75,11.04 3.75,12 C3.75,12.96 2.96,13.75 2,13.75 C1.59,13.75 1.25,14.09 1.25,14.5 L1.25,15 C1.25,19.41 2.59,20.75 7,20.75 L9.25,20.75 L9.25,18.5 C9.25,18.09 9.59,17.75 10,17.75 C10.41,17.75 10.75,18.09 10.75,18.5 L10.75,20.75 L17,20.75 C21.41,20.75 22.75,19.41 22.75,15 C22.75,14.59 22.41,14.25 22,14.25 C21.04,14.25 20.25,13.46 20.25,12.5 C20.25,11.54 21.04,10.75 22,10.75 Z M10.75,14.17 C10.75,14.58 10.41,14.92 10,14.92 C9.59,14.92 9.25,14.58 9.25,14.17 L9.25,9.83 C9.25,9.42 9.59,9.08 10,9.08 C10.41,9.08 10.75,9.42 10.75,9.83 L10.75,14.17 Z"/>
</svg>

