<svg xmlns="http://www.w3.org/2000/svg" width="24" height="24" viewBox="0 0 24 24">
  <defs/>
  <path fill="#292D32" d="M19.779,14.97 Q19.779,15.625 20.249,16.092 Q20.72,16.56 21.379,16.56 Q21.69,16.56 21.909,16.78 Q22.129,16.999 22.129,17.31 Q22.129,20.433 20.971,21.592 Q19.812,22.75 16.689,22.75 L7.309,22.75 Q4.186,22.75 3.028,21.592 Q1.869,20.433 1.869,17.31 L1.869,16.85 Q1.869,16.539 2.089,16.32 Q2.308,16.1 2.619,16.1 Q4.219,16.1 4.219,14.5 Q4.219,12.9 2.619,12.9 Q2.308,12.9 2.089,12.68 Q1.869,12.461 1.869,12.15 L1.869,11.69 Q1.877,8.564 3.031,7.409 Q4.188,6.25 7.309,6.25 L16.679,6.25 Q19.802,6.25 20.961,7.408 Q22.119,8.567 22.119,11.69 L22.119,12.63 Q22.119,12.941 21.899,13.16 Q21.68,13.38 21.369,13.38 Q21.058,13.38 20.839,13.16 Q20.619,12.941 20.619,12.63 L20.619,11.69 Q20.619,9.188 19.9,8.469 Q19.181,7.75 16.679,7.75 L7.309,7.75 Q4.81,7.75 4.092,8.469 Q3.41,9.152 3.371,11.452 Q5.719,11.802 5.719,14.5 Q5.719,17.198 3.371,17.548 Q3.404,19.847 4.088,20.531 Q4.807,21.25 7.309,21.25 L16.689,21.25 Q19.191,21.25 19.91,20.531 Q20.524,19.917 20.614,18.006 Q18.279,17.651 18.279,14.97 Q18.279,14.659 18.499,14.44 Q18.718,14.22 19.029,14.22 Q19.34,14.22 19.559,14.44 Q19.779,14.659 19.779,14.97 Z"/>
  <path fill="#292D32" d="M16.33,7.75 L7.24,7.75 Q6.93,7.75 6.71,7.53 Q6.49,7.311 6.49,7 Q6.49,6.689 6.71,6.47 L9.64,3.54 Q11.652,1.528 13.16,1.528 Q14.668,1.528 16.681,3.54 L17.281,4.14 Q17.5,4.359 17.5,4.67 Q17.5,4.981 17.281,5.2 Q16.624,5.857 17.01,6.682 Q17.141,6.964 17.035,7.256 Q16.929,7.548 16.648,7.68 Q16.497,7.75 16.33,7.75 Z M15.35,6.25 Q15.283,5.442 15.743,4.724 L15.62,4.6 Q14.047,3.028 13.16,3.028 Q12.273,3.028 10.701,4.6 L9.051,6.25 L15.35,6.25 Z"/>
  <path fill="#292D32" d="M10.75,7 L10.75,12 Q10.75,12.311 10.53,12.53 Q10.311,12.75 10,12.75 Q9.689,12.75 9.47,12.53 Q9.25,12.311 9.25,12 L9.25,7 Q9.25,6.689 9.47,6.47 Q9.689,6.25 10,6.25 Q10.311,6.25 10.53,6.47 Q10.75,6.689 10.75,7 Z M10.75,17 L10.75,22 Q10.75,22.311 10.53,22.53 Q10.311,22.75 10,22.75 Q9.689,22.75 9.47,22.53 Q9.25,22.311 9.25,22 L9.25,17 Q9.25,16.689 9.47,16.47 Q9.689,16.25 10,16.25 Q10.311,16.25 10.53,16.47 Q10.75,16.689 10.75,17 Z"/>
</svg>

