<svg xmlns="http://www.w3.org/2000/svg" width="24" height="24" viewBox="0 0 24 24">
  <defs/>
  <path fill="#292D32" d="M16.649,3.859 L9.909,3.859 L9.909,6.879 C9.909,7.269 9.589,7.579 9.209,7.579 C8.829,7.579 8.509,7.269 8.509,6.879 L8.509,3.859 L7.349,3.859 C3.399,3.859 2.099,5.039 2.009,8.729 C1.999,8.909 2.079,9.099 2.209,9.229 C2.339,9.369 2.509,9.439 2.709,9.439 C4.109,9.439 5.259,10.599 5.259,11.999 C5.259,13.399 4.109,14.559 2.709,14.559 C2.519,14.559 2.339,14.629 2.209,14.769 C2.079,14.899 1.999,15.089 2.009,15.269 C2.099,18.959 3.399,20.139 7.349,20.139 L8.509,20.139 L8.509,17.119 C8.509,16.729 8.829,16.419 9.209,16.419 C9.589,16.419 9.909,16.729 9.909,17.119 L9.909,20.139 L16.649,20.139 C20.749,20.139 21.999,18.889 21.999,14.789 L21.999,9.209 C21.999,5.109 20.749,3.859 16.649,3.859 Z M18.469,11.899 L17.539,12.799 C17.499,12.829 17.489,12.889 17.499,12.939 L17.719,14.209 C17.759,14.439 17.669,14.679 17.469,14.819 C17.279,14.959 17.029,14.979 16.819,14.869 L15.669,14.269 C15.629,14.249 15.569,14.249 15.529,14.269 L14.379,14.869 C14.289,14.919 14.189,14.939 14.089,14.939 C13.959,14.939 13.839,14.899 13.729,14.819 C13.539,14.679 13.439,14.449 13.479,14.209 L13.699,12.939 C13.709,12.889 13.689,12.839 13.659,12.799 L12.729,11.899 C12.559,11.739 12.499,11.489 12.569,11.269 C12.639,11.039 12.829,10.879 13.069,10.849 L14.349,10.659 C14.399,10.649 14.439,10.619 14.469,10.579 L15.039,9.419 C15.149,9.209 15.359,9.079 15.599,9.079 C15.839,9.079 16.049,9.209 16.149,9.419 L16.719,10.579 C16.739,10.629 16.779,10.659 16.829,10.659 L18.109,10.849 C18.349,10.879 18.539,11.049 18.609,11.269 C18.699,11.489 18.639,11.729 18.469,11.899 Z"/>
</svg>

