<svg xmlns="http://www.w3.org/2000/svg" width="24" height="24" viewBox="0 0 24 24">
  <defs/>
  <path fill="#292D32" d="M21.3,10.839 C21.69,10.839 22,10.529 22,10.139 L22,9.209 C22,5.109 20.75,3.859 16.65,3.859 L7.35,3.859 C3.25,3.859 2,5.109 2,9.209 L2,9.679 C2,10.069 2.31,10.379 2.7,10.379 C3.6,10.379 4.33,11.109 4.33,12.009 C4.33,12.909 3.6,13.629 2.7,13.629 C2.31,13.629 2,13.939 2,14.329 L2,14.799 C2,18.899 3.25,20.149 7.35,20.149 L16.65,20.149 C20.75,20.149 22,18.899 22,14.799 C22,14.409 21.69,14.099 21.3,14.099 C20.4,14.099 19.67,13.369 19.67,12.469 C19.67,11.569 20.4,10.839 21.3,10.839 Z M9,8.879 C9.55,8.879 10,9.329 10,9.879 C10,10.429 9.56,10.879 9,10.879 C8.45,10.879 8,10.429 8,9.879 C8,9.329 8.44,8.879 9,8.879 Z M15,15.879 C14.44,15.879 13.99,15.429 13.99,14.879 C13.99,14.329 14.44,13.879 14.99,13.879 C15.54,13.879 15.99,14.329 15.99,14.879 C15.99,15.429 15.56,15.879 15,15.879 Z M15.9,9.479 L9.17,16.209 C9.02,16.359 8.83,16.429 8.64,16.429 C8.45,16.429 8.26,16.359 8.11,16.209 C7.82,15.919 7.82,15.439 8.11,15.149 L14.84,8.419 C15.13,8.129 15.61,8.129 15.9,8.419 C16.19,8.709 16.19,9.189 15.9,9.479 Z"/>
</svg>

