<svg xmlns="http://www.w3.org/2000/svg" width="24" height="24" viewBox="0 0 24 24">
  <defs/>
  <path fill="#292D32" d="M17.001,20.75 L7.001,20.75 C2.751,20.75 1.361,19.48 1.261,15.52 C1.261,15.32 1.331,15.12 1.471,14.98 C1.611,14.84 1.801,14.75 2.011,14.75 C3.521,14.75 4.751,13.51 4.751,12 C4.751,10.49 3.521,9.25 2.011,9.25 C1.811,9.25 1.621,9.17 1.471,9.02 C1.321,8.87 1.251,8.68 1.261,8.48 C1.361,4.52 2.751,3.25 7.001,3.25 L17.001,3.25 C21.411,3.25 22.751,4.59 22.751,9 L22.751,15 C22.751,19.41 21.411,20.75 17.001,20.75 Z M2.791,16.18 C2.961,18.72 3.821,19.25 7.001,19.25 L17.001,19.25 C20.581,19.25 21.251,18.57 21.251,15 L21.251,9 C21.251,5.43 20.581,4.75 17.001,4.75 L7.001,4.75 C3.821,4.75 2.961,5.29 2.791,7.82 C4.761,8.2 6.251,9.93 6.251,12 C6.251,14.07 4.761,15.8 2.791,16.18 Z"/>
  <path fill="#292D32" d="M9,8.25 C8.59,8.25 8.25,7.91 8.25,7.5 L8.25,4 C8.25,3.59 8.59,3.25 9,3.25 C9.41,3.25 9.75,3.59 9.75,4 L9.75,7.5 C9.75,7.91 9.41,8.25 9,8.25 Z"/>
  <path fill="#292D32" d="M9,20.75 C8.59,20.75 8.25,20.41 8.25,20 L8.25,16.5 C8.25,16.09 8.59,15.75 9,15.75 C9.41,15.75 9.75,16.09 9.75,16.5 L9.75,20 C9.75,20.41 9.41,20.75 9,20.75 Z"/>
  <path fill="#292D32" d="M13.04,15.65 C12.8,15.65 12.56,15.57 12.36,15.43 C12,15.17 11.82,14.73 11.9,14.29 L12.11,13.1 L11.24,12.25 C10.92,11.94 10.81,11.48 10.94,11.06 C11.08,10.64 11.44,10.33 11.88,10.27 L13.08,10.09 L13.62,9 C13.82,8.6 14.22,8.35 14.66,8.35 C15.11,8.35 15.51,8.6 15.7,9 L16.24,10.09 L17.44,10.27 C17.88,10.33 18.24,10.64 18.38,11.06 C18.52,11.48 18.4,11.94 18.08,12.25 L17.21,13.1 L17.42,14.29 C17.5,14.73 17.32,15.17 16.96,15.43 C16.6,15.69 16.13,15.72 15.74,15.52 L14.67,14.96 L13.59,15.52 C13.42,15.61 13.23,15.65 13.04,15.65 Z M12.77,11.65 L13.28,12.15 C13.56,12.42 13.68,12.8 13.62,13.18 L13.5,13.88 L14.13,13.55 C14.47,13.37 14.87,13.37 15.21,13.55 L15.84,13.88 L15.72,13.18 C15.66,12.79 15.78,12.41 16.06,12.15 L16.57,11.65 L15.87,11.55 C15.49,11.49 15.16,11.25 14.99,10.91 L14.68,10.27 L14.37,10.91 C14.2,11.25 13.87,11.49 13.49,11.55 L12.77,11.65 Z"/>
</svg>

