<svg xmlns="http://www.w3.org/2000/svg" width="24" height="24" viewBox="0 0 24 24">
  <defs/>
  <path fill="#292D32" d="M16.996,3.25 Q20.307,3.25 21.526,4.47 Q22.746,5.689 22.746,9 L22.746,15 Q22.746,18.311 21.526,19.53 Q20.307,20.75 16.996,20.75 L6.996,20.75 Q3.827,20.75 2.598,19.652 Q1.332,18.518 1.256,15.519 Q1.256,15.511 1.256,15.504 Q1.254,15.193 1.473,14.972 Q1.691,14.752 2.002,14.75 Q4.746,14.736 4.746,12 Q4.746,10.861 3.943,10.056 Q3.141,9.25 2.006,9.25 Q1.996,9.25 1.987,9.25 Q1.676,9.242 1.462,9.017 Q1.248,8.792 1.256,8.481 Q1.332,5.482 2.598,4.348 Q3.827,3.25 6.996,3.25 Z M16.996,4.75 L6.996,4.75 Q4.399,4.75 3.598,5.467 Q2.939,6.057 2.792,7.817 Q4.052,8.039 5.006,8.997 Q6.246,10.242 6.246,12 Q6.246,13.757 5.005,15 Q4.052,15.955 2.792,16.18 Q2.938,17.943 3.598,18.533 Q4.399,19.25 6.996,19.25 L16.996,19.25 Q19.685,19.25 20.466,18.47 Q21.246,17.689 21.246,15 L21.246,9 Q21.246,6.311 20.466,5.53 Q19.685,4.75 16.996,4.75 Z"/>
  <path fill="#292D32" opacity="0.4" d="M9.744,4 L9.744,7.5 Q9.744,7.811 9.524,8.03 Q9.305,8.25 8.994,8.25 Q8.683,8.25 8.464,8.03 Q8.244,7.811 8.244,7.5 L8.244,4 Q8.244,3.689 8.464,3.47 Q8.683,3.25 8.994,3.25 Q9.305,3.25 9.524,3.47 Q9.744,3.689 9.744,4 Z"/>
  <path fill="#292D32" opacity="0.4" d="M9.744,16.5 L9.744,20 Q9.744,20.311 9.524,20.53 Q9.305,20.75 8.994,20.75 Q8.683,20.75 8.464,20.53 Q8.244,20.311 8.244,20 L8.244,16.5 Q8.244,16.189 8.464,15.97 Q8.683,15.75 8.994,15.75 Q9.305,15.75 9.524,15.97 Q9.744,16.189 9.744,16.5 Z"/>
  <path fill="#292D32" opacity="0.4" d="M16.24,10.094 L17.442,10.268 Q18.158,10.373 18.383,11.061 Q18.61,11.755 18.083,12.261 L17.213,13.105 L17.423,14.301 Q17.549,15.015 16.961,15.444 Q16.371,15.874 15.731,15.532 L14.659,14.965 L13.584,15.533 Q12.932,15.87 12.35,15.441 Q11.769,15.013 11.895,14.3 L12.105,13.104 L11.239,12.256 Q10.718,11.755 10.945,11.061 Q11.17,10.373 11.885,10.268 L13.087,10.094 L13.616,9.01 Q13.921,8.348 14.655,8.348 Q15.38,8.348 15.697,9 L16.24,10.094 Z M14.661,10.287 L14.365,10.894 Q14.102,11.464 13.482,11.552 L12.77,11.656 L13.284,12.16 Q13.701,12.576 13.616,13.166 Q13.615,13.178 13.613,13.19 L13.491,13.886 L14.114,13.557 Q14.121,13.553 14.129,13.549 Q14.659,13.284 15.189,13.549 Q15.197,13.553 15.204,13.557 L15.827,13.886 L15.705,13.19 Q15.703,13.178 15.702,13.166 Q15.613,12.547 16.05,12.144 L16.554,11.655 L15.84,11.551 Q15.245,11.46 14.972,10.913 L14.661,10.287 Z M13.011,10.249 Q13.007,10.257 13.003,10.266 L13.011,10.249 Z M12.295,11.191 Q12.292,11.188 12.289,11.184 L12.295,11.191 Z"/>
</svg>

