<svg xmlns="http://www.w3.org/2000/svg" width="24" height="24" viewBox="0 0 24 24">
  <defs/>
  <path fill="#292D32" d="M9,22.75 Q1.25,22.75 1.25,15 L1.25,9 Q1.25,1.25 9,1.25 L15,1.25 Q22.75,1.25 22.75,9 L22.75,15 Q22.75,22.75 15,22.75 Z M9,21.25 L15,21.25 Q18.439,21.25 19.845,19.845 Q21.25,18.439 21.25,15 L21.25,9 Q21.25,2.75 15,2.75 L9,2.75 Q2.75,2.75 2.75,9 L2.75,15 Q2.75,18.439 4.155,19.845 Q5.561,21.25 9,21.25 Z"/>
  <path fill="#292D32" d="M8.28,11.47 L10.58,13.77 L15.72,8.639 Q15.94,8.42 16.251,8.42 Q16.561,8.42 16.781,8.64 Q17,8.86 17,9.171 Q17,9.481 16.78,9.701 L11.11,15.361 Q10.89,15.58 10.58,15.58 Q10.269,15.58 10.05,15.36 L7.22,12.53 Q7,12.311 7,12 Q7,11.689 7.22,11.47 Q7.439,11.25 7.75,11.25 Q8.061,11.25 8.28,11.47 Z"/>
</svg>

