<svg xmlns="http://www.w3.org/2000/svg" width="24" height="24" viewBox="0 0 24 24">
  <defs/>
  <path fill="#292D32" d="M10.902,19.12 L17.372,19.12 Q19.837,19.12 20.539,18.417 Q21.143,17.814 21.228,15.911 Q20.44,15.716 19.826,15.101 Q18.932,14.204 18.932,12.94 Q18.932,10.273 21.242,9.923 L21.242,9.7 Q21.242,7.236 20.539,6.533 Q19.837,5.83 17.372,5.83 L11.742,5.83 L11.742,11.87 Q11.742,12.181 11.523,12.4 Q11.303,12.62 10.992,12.62 Q10.682,12.62 10.462,12.4 Q10.242,12.181 10.242,11.87 L10.242,5.08 Q10.242,4.769 10.462,4.55 Q10.682,4.33 10.992,4.33 L17.372,4.33 Q20.458,4.33 21.6,5.472 Q22.742,6.614 22.742,9.7 L22.742,10.62 Q22.742,10.931 22.523,11.15 Q22.303,11.37 21.992,11.37 Q20.432,11.37 20.432,12.94 Q20.432,14.5 21.992,14.5 Q22.303,14.5 22.523,14.72 Q22.742,14.939 22.742,15.25 Q22.742,18.336 21.6,19.478 Q20.458,20.62 17.372,20.62 L10.902,20.62 Q10.592,20.62 10.372,20.4 Q10.152,20.181 10.152,19.87 Q10.152,19.559 10.372,19.34 Q10.592,19.12 10.902,19.12 Z"/>
  <path fill="#292D32" opacity="0.4" d="M11.744,16.87 L11.744,19.87 Q11.744,20.181 11.524,20.4 Q11.304,20.62 10.994,20.62 L8.224,20.62 Q5.79,20.62 4.221,16.827 L4.037,16.369 Q3.922,16.08 4.044,15.795 Q4.167,15.509 4.455,15.394 L4.457,15.393 Q5.072,15.149 5.332,14.529 Q5.592,13.907 5.332,13.291 Q5.078,12.664 4.459,12.406 Q3.836,12.147 3.208,12.404 Q2.921,12.522 2.634,12.402 Q2.347,12.282 2.23,11.994 Q2.228,11.99 2.226,11.986 L2.056,11.556 Q0.861,8.635 1.491,7.117 Q2.123,5.591 5.048,4.387 L7.69,3.306 Q7.977,3.188 8.263,3.308 Q8.549,3.427 8.667,3.714 L11.687,11.034 Q11.744,11.171 11.744,11.32 L11.744,13.87 Q11.744,14.181 11.524,14.4 Q11.304,14.62 10.994,14.62 Q10.683,14.62 10.463,14.4 Q10.244,14.181 10.244,13.87 L10.244,11.469 L7.565,4.977 L5.619,5.773 Q3.27,6.741 2.876,7.691 Q2.5,8.599 3.372,10.808 Q4.205,10.676 5.036,11.021 Q6.234,11.52 6.715,12.709 Q7.219,13.905 6.715,15.108 Q6.366,15.943 5.68,16.428 Q6.837,19.12 8.224,19.12 L10.244,19.12 L10.244,16.87 Q10.244,16.559 10.463,16.34 Q10.683,16.12 10.994,16.12 Q11.304,16.12 11.524,16.34 Q11.744,16.559 11.744,16.87 Z"/>
  <path fill="#292D32" d="M8.162,20.62 L7.992,20.62 Q7.682,20.62 7.462,20.4 Q7.242,20.181 7.242,19.87 Q7.242,19.559 7.462,19.34 Q7.682,19.12 7.992,19.12 L8.162,19.12 Q8.473,19.12 8.693,19.34 Q8.912,19.559 8.912,19.87 Q8.912,20.181 8.693,20.4 Q8.473,20.62 8.162,20.62 Z"/>
</svg>

