<svg xmlns="http://www.w3.org/2000/svg" width="24" height="24" viewBox="0 0 24 24">
  <defs/>
  <path fill="#292D32" d="M12.75,8 L12.75,13 Q12.75,13.311 12.53,13.53 Q12.311,13.75 12,13.75 Q11.689,13.75 11.47,13.53 Q11.25,13.311 11.25,13 L11.25,8 Q11.25,7.689 11.47,7.47 Q11.689,7.25 12,7.25 Q12.311,7.25 12.53,7.47 Q12.75,7.689 12.75,8 Z"/>
  <path fill="#292D32" d="M9,1.25 L15,1.25 Q15.311,1.25 15.53,1.47 Q15.75,1.689 15.75,2 Q15.75,2.311 15.53,2.53 Q15.311,2.75 15,2.75 L9,2.75 Q8.689,2.75 8.47,2.53 Q8.25,2.311 8.25,2 Q8.25,1.689 8.47,1.47 Q8.689,1.25 9,1.25 Z"/>
  <path fill="#292D32" d="M5.599,8.451 Q4,10.574 4,13.25 Q4,16.562 6.344,18.906 Q8.688,21.25 12,21.25 Q15.312,21.25 17.656,18.906 Q20,16.562 20,13.25 Q20,9.938 17.656,7.594 Q15.312,5.25 12,5.25 Q10.294,5.25 8.775,5.925 Q8.491,6.052 8.201,5.94 Q7.911,5.828 7.785,5.545 Q7.658,5.261 7.77,4.971 Q7.882,4.681 8.165,4.555 Q9.976,3.75 12,3.75 Q15.933,3.75 18.717,6.533 Q21.5,9.317 21.5,13.25 Q21.5,17.183 18.717,19.967 Q15.933,22.75 12,22.75 Q8.067,22.75 5.283,19.967 Q2.5,17.183 2.5,13.25 Q2.5,10.072 4.401,7.549 Q4.588,7.301 4.896,7.257 Q5.203,7.214 5.451,7.401 Q5.699,7.588 5.743,7.896 Q5.786,8.203 5.599,8.451 Z"/>
</svg>

