<svg xmlns="http://www.w3.org/2000/svg" width="24" height="24" viewBox="0 0 24 24">
  <defs/>
  <path fill="#292D32" d="M10.113,9.275 L11.998,10.987 L16.755,6.665 Q18.063,5.479 17.696,4.115 Q17.329,2.75 15.239,2.75 L8.759,2.75 Q6.669,2.75 6.302,4.115 Q5.936,5.479 7.243,6.664 Q7.473,6.873 7.488,7.183 Q7.503,7.494 7.295,7.724 Q7.086,7.954 6.776,7.969 Q6.466,7.984 6.235,7.776 Q4.249,5.975 4.853,3.725 Q5.518,1.25 8.759,1.25 L15.239,1.25 Q18.48,1.25 19.145,3.725 Q19.749,5.975 17.763,7.775 L13.114,12.001 L17.763,16.225 Q19.749,18.025 19.145,20.275 Q18.48,22.75 15.239,22.75 L8.759,22.75 Q5.518,22.75 4.853,20.275 Q4.249,18.025 6.235,16.224 L10.883,12.001 L9.105,10.385 Q8.875,10.176 8.86,9.866 Q8.845,9.556 9.054,9.326 Q9.263,9.096 9.573,9.081 Q9.883,9.066 10.113,9.275 Z M11.998,13.014 L7.243,17.336 Q5.936,18.521 6.302,19.885 Q6.669,21.25 8.759,21.25 L15.239,21.25 Q17.329,21.25 17.696,19.885 Q18.063,18.521 16.755,17.335 L11.998,13.014 Z"/>
</svg>

