<svg xmlns="http://www.w3.org/2000/svg" width="24" height="24" viewBox="0 0 24 24">
  <defs/>
  <path fill="#292D32" d="M15.24,1.25 Q18.481,1.25 19.146,3.725 Q19.75,5.975 17.764,7.775 L13.115,12 L17.764,16.225 Q19.75,18.025 19.146,20.275 Q18.481,22.75 15.24,22.75 L8.76,22.75 Q5.519,22.75 4.854,20.275 Q4.25,18.025 6.236,16.224 L10.885,12 L6.236,7.776 Q4.25,5.975 4.854,3.725 Q5.519,1.25 8.76,1.25 Z M12,13.013 L7.244,17.336 Q5.937,18.521 6.303,19.885 Q6.67,21.25 8.76,21.25 L15.24,21.25 Q17.33,21.25 17.697,19.885 Q18.064,18.521 16.756,17.335 L12,13.013 Z M15.24,2.75 L8.76,2.75 Q6.67,2.75 6.303,4.115 Q5.937,5.479 7.244,6.664 L12,10.987 L16.756,6.665 Q18.064,5.479 17.697,4.115 Q17.33,2.75 15.24,2.75 Z"/>
</svg>

