<svg xmlns="http://www.w3.org/2000/svg" width="24" height="24" viewBox="0 0 24 24">
  <defs/>
  <path fill="#292D32" d="M12,4.648 C7.22,4.648 3.33,8.538 3.33,13.318 C3.33,18.098 7.22,21.998 12,21.998 C16.78,21.998 20.67,18.108 20.67,13.328 C20.67,8.548 16.78,4.648 12,4.648 Z M12.75,12.998 C12.75,13.408 12.41,13.748 12,13.748 C11.59,13.748 11.25,13.408 11.25,12.998 L11.25,7.998 C11.25,7.588 11.59,7.248 12,7.248 C12.41,7.248 12.75,7.588 12.75,7.998 L12.75,12.998 Z"/>
  <path fill="#292D32" d="M14.891,3.45 L9.111,3.45 C8.711,3.45 8.391,3.13 8.391,2.73 C8.391,2.33 8.711,2 9.111,2 L14.891,2 C15.291,2 15.611,2.32 15.611,2.72 C15.611,3.12 15.291,3.45 14.891,3.45 Z"/>
</svg>

