<svg xmlns="http://www.w3.org/2000/svg" width="24" height="24" viewBox="0 0 24 24">
  <defs/>
  <path fill="#292D32" opacity="0.4" d="M18.349,19.68 C17.799,21.09 16.459,22 14.95,22 L9.049,22 C7.529,22 6.199,21.09 5.649,19.68 C5.099,18.26 5.479,16.69 6.599,15.67 L10.649,12 L13.36,12 L17.399,15.67 C18.52,16.69 18.89,18.26 18.349,19.68 Z"/>
  <path fill="#292D32" d="M13.82,18.14 L10.18,18.14 C9.8,18.14 9.5,17.83 9.5,17.46 C9.5,17.08 9.81,16.78 10.18,16.78 L13.82,16.78 C14.2,16.78 14.5,17.09 14.5,17.46 C14.5,17.83 14.19,18.14 13.82,18.14 Z"/>
  <path fill="#292D32" d="M18.351,4.32 C17.801,2.91 16.461,2 14.951,2 L9.051,2 C7.541,2 6.201,2.91 5.651,4.32 C5.111,5.74 5.481,7.31 6.611,8.33 L10.651,12 L13.361,12 L17.401,8.33 C18.521,7.31 18.891,5.74 18.351,4.32 Z M13.821,7.23 L10.181,7.23 C9.801,7.23 9.501,6.92 9.501,6.55 C9.501,6.18 9.811,5.87 10.181,5.87 L13.821,5.87 C14.201,5.87 14.501,6.18 14.501,6.55 C14.501,6.92 14.191,7.23 13.821,7.23 Z"/>
</svg>

