<svg xmlns="http://www.w3.org/2000/svg" width="24" height="24" viewBox="0 0 24 24">
  <defs/>
  <path fill="#292D32" d="M12.75,8 L12.75,13 Q12.75,13.311 12.53,13.53 Q12.311,13.75 12,13.75 Q11.689,13.75 11.47,13.53 Q11.25,13.311 11.25,13 L11.25,8 Q11.25,7.689 11.47,7.47 Q11.689,7.25 12,7.25 Q12.311,7.25 12.53,7.47 Q12.75,7.689 12.75,8 Z"/>
  <path fill="#292D32" d="M12,22.75 Q8.067,22.75 5.283,19.967 Q2.5,17.183 2.5,13.25 Q2.5,9.317 5.283,6.533 Q8.067,3.75 12,3.75 Q15.933,3.75 18.717,6.533 Q21.5,9.317 21.5,13.25 Q21.5,13.561 21.28,13.78 Q21.061,14 20.75,14 Q20.439,14 20.22,13.78 Q20,13.561 20,13.25 Q20,9.938 17.656,7.594 Q15.312,5.25 12,5.25 Q8.688,5.25 6.344,7.594 Q4,9.938 4,13.25 Q4,16.562 6.344,18.906 Q8.688,21.25 12,21.25 Q12.311,21.25 12.53,21.47 Q12.75,21.689 12.75,22 Q12.75,22.311 12.53,22.53 Q12.311,22.75 12,22.75 Z"/>
  <path fill="#292D32" d="M9,1.25 L15,1.25 Q15.311,1.25 15.53,1.47 Q15.75,1.689 15.75,2 Q15.75,2.311 15.53,2.53 Q15.311,2.75 15,2.75 L9,2.75 Q8.689,2.75 8.47,2.53 Q8.25,2.311 8.25,2 Q8.25,1.689 8.47,1.47 Q8.689,1.25 9,1.25 Z"/>
  <path fill="#292D32" d="M14.15,17.34 Q14.15,15.833 15.191,15.234 Q16.232,14.634 17.537,15.391 L18.536,15.971 L19.536,16.551 Q20.84,17.308 20.84,18.505 Q20.84,19.702 19.537,20.459 L18.536,21.039 L17.536,21.619 Q16.232,22.376 15.191,21.776 Q14.15,21.177 14.15,19.67 L14.15,17.34 Z M15.65,19.67 Q15.65,20.31 15.94,20.476 Q16.229,20.643 16.784,20.321 L17.784,19.741 L18.783,19.161 Q19.34,18.838 19.34,18.505 Q19.34,18.172 18.784,17.849 L17.784,17.269 L16.783,16.689 Q16.229,16.367 15.94,16.534 Q15.65,16.7 15.65,17.34 L15.65,19.67 Z"/>
</svg>

