<svg xmlns="http://www.w3.org/2000/svg" width="24" height="24" viewBox="0 0 24 24">
  <defs/>
  <path fill="#292D32" d="M15.24,22.75 L8.76,22.75 C6.87,22.75 5.49,21.96 4.96,20.6 C4.41,19.18 4.92,17.42 6.24,16.23 L10.88,12 L6.24,7.77 C4.92,6.58 4.41,4.82 4.96,3.4 C5.49,2.03 6.87,1.25 8.76,1.25 L15.24,1.25 C17.13,1.25 18.51,2.04 19.04,3.4 C19.59,4.82 19.08,6.58 17.76,7.77 L13.12,12 L17.77,16.23 C19.08,17.42 19.6,19.18 19.05,20.6 C18.51,21.96 17.13,22.75 15.24,22.75 Z M12,13.01 L7.25,17.33 C6.41,18.1 6.04,19.22 6.36,20.05 C6.66,20.82 7.51,21.25 8.76,21.25 L15.24,21.25 C16.49,21.25 17.34,20.83 17.64,20.05 C17.96,19.22 17.6,18.1 16.75,17.33 L12,13.01 Z M8.76,2.75 C7.51,2.75 6.66,3.17 6.36,3.95 C6.04,4.78 6.4,5.9 7.25,6.67 L12,10.99 L16.75,6.67 C17.59,5.9 17.96,4.78 17.64,3.95 C17.34,3.18 16.49,2.75 15.24,2.75 L8.76,2.75 Z"/>
</svg>

