<svg xmlns="http://www.w3.org/2000/svg" width="24" height="24" viewBox="0 0 24 24">
  <defs/>
  <path fill="#292D32" d="M12,13.75 C11.59,13.75 11.25,13.41 11.25,13 L11.25,8 C11.25,7.59 11.59,7.25 12,7.25 C12.41,7.25 12.75,7.59 12.75,8 L12.75,13 C12.75,13.41 12.41,13.75 12,13.75 Z"/>
  <path fill="#292D32" d="M14.891,3.45 L9.111,3.45 C8.711,3.45 8.391,3.13 8.391,2.73 C8.391,2.33 8.711,2 9.111,2 L14.891,2 C15.291,2 15.611,2.32 15.611,2.72 C15.611,3.12 15.291,3.45 14.891,3.45 Z"/>
  <path fill="#292D32" opacity="0.4" d="M15,19.97 L15,17.03 C15,15.76 15.76,15 17.03,15 L19.97,15 C20.16,15 20.33,15.02 20.5,15.06 C20.61,14.5 20.67,13.92 20.67,13.33 C20.67,8.55 16.78,4.66 12,4.66 C7.22,4.66 3.33,8.55 3.33,13.33 C3.33,18.11 7.22,22 12,22 C13.21,22 14.36,21.75 15.41,21.3 C15.15,20.96 15,20.52 15,19.97 Z"/>
  <path fill="#292D32" d="M19.97,15 L17.03,15 C15.76,15 15,15.76 15,17.03 L15,19.97 C15,21.24 15.76,22 17.03,22 L19.97,22 C21.24,22 22,21.24 22,19.97 L22,17.03 C22,15.76 21.24,15 19.97,15 Z M19.69,19.46 L18.51,20.14 C18.27,20.28 18.03,20.35 17.81,20.35 C17.64,20.35 17.49,20.31 17.35,20.23 C17.03,20.04 16.85,19.67 16.85,19.18 L16.85,17.82 C16.85,17.33 17.03,16.96 17.35,16.77 C17.67,16.58 18.08,16.62 18.51,16.86 L19.69,17.54 C20.11,17.79 20.35,18.13 20.35,18.5 C20.35,18.87 20.12,19.21 19.69,19.46 Z"/>
</svg>

