<svg xmlns="http://www.w3.org/2000/svg" width="24" height="24" viewBox="0 0 24 24">
  <defs/>
  <path fill="#292D32" d="M12,22.75 C6.76,22.75 2.5,18.49 2.5,13.25 C2.5,8.01 6.76,3.75 12,3.75 C17.24,3.75 21.5,8.01 21.5,13.25 C21.5,13.66 21.16,14 20.75,14 C20.34,14 20,13.66 20,13.25 C20,8.84 16.41,5.25 12,5.25 C7.59,5.25 4,8.84 4,13.25 C4,17.66 7.59,21.25 12,21.25 C12.41,21.25 12.75,21.59 12.75,22 C12.75,22.41 12.41,22.75 12,22.75 Z"/>
  <path fill="#292D32" d="M12,13.75 C11.59,13.75 11.25,13.41 11.25,13 L11.25,8 C11.25,7.59 11.59,7.25 12,7.25 C12.41,7.25 12.75,7.59 12.75,8 L12.75,13 C12.75,13.41 12.41,13.75 12,13.75 Z"/>
  <path fill="#292D32" d="M15,2.75 L9,2.75 C8.59,2.75 8.25,2.41 8.25,2 C8.25,1.59 8.59,1.25 9,1.25 L15,1.25 C15.41,1.25 15.75,1.59 15.75,2 C15.75,2.41 15.41,2.75 15,2.75 Z"/>
  <path fill="#292D32" d="M19,21.75 C18.59,21.75 18.25,21.41 18.25,21 L18.25,17 C18.25,16.59 18.59,16.25 19,16.25 C19.41,16.25 19.75,16.59 19.75,17 L19.75,21 C19.75,21.41 19.41,21.75 19,21.75 Z"/>
  <path fill="#292D32" d="M16,21.75 C15.59,21.75 15.25,21.41 15.25,21 L15.25,17 C15.25,16.59 15.59,16.25 16,16.25 C16.41,16.25 16.75,16.59 16.75,17 L16.75,21 C16.75,21.41 16.41,21.75 16,21.75 Z"/>
</svg>

