<svg xmlns="http://www.w3.org/2000/svg" width="24" height="24" viewBox="0 0 24 24">
  <defs/>
  <path fill="#292D32" d="M17.39,15.67 L13.35,12 L10.639,12 L6.599,15.67 C5.469,16.69 5.099,18.26 5.649,19.68 C6.199,21.09 7.539,22 9.049,22 L14.94,22 C16.459,22 17.79,21.09 18.34,19.68 C18.89,18.26 18.52,16.69 17.39,15.67 Z M13.819,18.14 L10.18,18.14 C9.799,18.14 9.499,17.83 9.499,17.46 C9.499,17.09 9.809,16.78 10.18,16.78 L13.819,16.78 C14.2,16.78 14.499,17.09 14.499,17.46 C14.499,17.83 14.19,18.14 13.819,18.14 Z"/>
  <path fill="#292D32" d="M18.351,4.32 C17.801,2.91 16.461,2 14.951,2 L9.051,2 C7.541,2 6.201,2.91 5.651,4.32 C5.111,5.74 5.481,7.31 6.611,8.33 L10.651,12 L13.361,12 L17.401,8.33 C18.521,7.31 18.891,5.74 18.351,4.32 Z M13.821,7.23 L10.181,7.23 C9.801,7.23 9.501,6.92 9.501,6.55 C9.501,6.18 9.811,5.87 10.181,5.87 L13.821,5.87 C14.201,5.87 14.501,6.18 14.501,6.55 C14.501,6.92 14.191,7.23 13.821,7.23 Z"/>
</svg>

