<svg xmlns="http://www.w3.org/2000/svg" width="24" height="24" viewBox="0 0 24 24">
  <defs/>
  <path fill="#292D32" d="M12,22.75 Q8.067,22.75 5.283,19.967 Q2.5,17.183 2.5,13.25 Q2.5,9.317 5.283,6.533 Q8.067,3.75 12,3.75 Q15.933,3.75 18.717,6.533 Q21.5,9.317 21.5,13.25 Q21.5,13.561 21.28,13.78 Q21.061,14 20.75,14 Q20.439,14 20.22,13.78 Q20,13.561 20,13.25 Q20,9.938 17.656,7.594 Q15.312,5.25 12,5.25 Q8.688,5.25 6.344,7.594 Q4,9.938 4,13.25 Q4,16.562 6.344,18.906 Q8.688,21.25 12,21.25 Q12.311,21.25 12.53,21.47 Q12.75,21.689 12.75,22 Q12.75,22.311 12.53,22.53 Q12.311,22.75 12,22.75 Z"/>
  <path fill="#292D32" opacity="0.4" d="M12.75,8 L12.75,13 Q12.75,13.311 12.53,13.53 Q12.311,13.75 12,13.75 Q11.689,13.75 11.47,13.53 Q11.25,13.311 11.25,13 L11.25,8 Q11.25,7.689 11.47,7.47 Q11.689,7.25 12,7.25 Q12.311,7.25 12.53,7.47 Q12.75,7.689 12.75,8 Z"/>
  <path fill="#292D32" opacity="0.4" d="M9,1.25 L15,1.25 Q15.311,1.25 15.53,1.47 Q15.75,1.689 15.75,2 Q15.75,2.311 15.53,2.53 Q15.311,2.75 15,2.75 L9,2.75 Q8.689,2.75 8.47,2.53 Q8.25,2.311 8.25,2 Q8.25,1.689 8.47,1.47 Q8.689,1.25 9,1.25 Z"/>
  <path fill="#292D32" opacity="0.4" d="M19.75,17 L19.75,21 Q19.75,21.311 19.53,21.53 Q19.311,21.75 19,21.75 Q18.689,21.75 18.47,21.53 Q18.25,21.311 18.25,21 L18.25,17 Q18.25,16.689 18.47,16.47 Q18.689,16.25 19,16.25 Q19.311,16.25 19.53,16.47 Q19.75,16.689 19.75,17 Z"/>
  <path fill="#292D32" opacity="0.4" d="M16.75,17 L16.75,21 Q16.75,21.311 16.53,21.53 Q16.311,21.75 16,21.75 Q15.689,21.75 15.47,21.53 Q15.25,21.311 15.25,21 L15.25,17 Q15.25,16.689 15.47,16.47 Q15.689,16.25 16,16.25 Q16.311,16.25 16.53,16.47 Q16.75,16.689 16.75,17 Z"/>
</svg>

