<svg xmlns="http://www.w3.org/2000/svg" width="24" height="24" viewBox="0 0 24 24">
  <defs/>
  <path fill="#292D32" opacity="0.4" d="M12,22 C16.788,22 20.67,18.118 20.67,13.33 C20.67,8.542 16.788,4.66 12,4.66 C7.212,4.66 3.33,8.542 3.33,13.33 C3.33,18.118 7.212,22 12,22 Z"/>
  <path fill="#292D32" d="M12,13.75 C11.59,13.75 11.25,13.41 11.25,13 L11.25,8 C11.25,7.59 11.59,7.25 12,7.25 C12.41,7.25 12.75,7.59 12.75,8 L12.75,13 C12.75,13.41 12.41,13.75 12,13.75 Z"/>
  <path fill="#292D32" d="M14.891,3.45 L9.111,3.45 C8.711,3.45 8.391,3.13 8.391,2.73 C8.391,2.33 8.711,2 9.111,2 L14.891,2 C15.291,2 15.611,2.32 15.611,2.72 C15.611,3.12 15.291,3.45 14.891,3.45 Z"/>
</svg>

