<svg xmlns="http://www.w3.org/2000/svg" width="24" height="24" viewBox="0 0 24 24">
  <defs/>
  <path fill="#292D32" d="M12,13.75 C11.59,13.75 11.25,13.41 11.25,13 L11.25,8 C11.25,7.59 11.59,7.25 12,7.25 C12.41,7.25 12.75,7.59 12.75,8 L12.75,13 C12.75,13.41 12.41,13.75 12,13.75 Z"/>
  <path fill="#292D32" d="M14.891,3.45 L9.111,3.45 C8.711,3.45 8.391,3.13 8.391,2.73 C8.391,2.33 8.711,2 9.111,2 L14.891,2 C15.291,2 15.611,2.32 15.611,2.72 C15.611,3.12 15.291,3.45 14.891,3.45 Z"/>
  <path fill="#292D32" opacity="0.4" d="M15,19.97 L15,17.03 C15,15.76 15.76,15 17.03,15 L19.97,15 C20.16,15 20.33,15.02 20.5,15.06 C20.61,14.5 20.67,13.92 20.67,13.33 C20.67,8.55 16.78,4.66 12,4.66 C7.22,4.66 3.33,8.55 3.33,13.33 C3.33,18.11 7.22,22 12,22 C13.21,22 14.36,21.75 15.41,21.3 C15.15,20.96 15,20.52 15,19.97 Z"/>
  <path fill="#292D32" d="M19.97,15 L17.04,15 C15.76,15 15,15.76 15,17.03 L15,19.96 C15,21.23 15.76,21.99 17.03,21.99 L19.96,21.99 C21.23,21.99 21.99,21.23 21.99,19.96 L21.99,17.03 C22,15.76 21.24,15 19.97,15 Z M17.92,20.06 C17.92,20.38 17.66,20.64 17.34,20.64 C17.02,20.64 16.76,20.38 16.76,20.06 L16.76,16.95 C16.76,16.63 17.02,16.37 17.34,16.37 C17.66,16.37 17.92,16.63 17.92,16.95 L17.92,20.06 Z M20.25,20.06 C20.25,20.38 19.99,20.64 19.67,20.64 C19.35,20.64 19.09,20.38 19.09,20.06 L19.09,16.95 C19.09,16.63 19.35,16.37 19.67,16.37 C19.99,16.37 20.25,16.63 20.25,16.95 L20.25,20.06 Z"/>
</svg>

