<svg xmlns="http://www.w3.org/2000/svg" width="24" height="24" viewBox="0 0 24 24">
  <defs/>
  <path fill="#292D32" d="M10,20.75 Q6.374,20.75 3.812,18.188 Q1.25,15.626 1.25,12 Q1.25,8.374 3.812,5.812 Q6.374,3.25 10,3.25 L14,3.25 Q17.626,3.25 20.188,5.812 Q22.75,8.374 22.75,12 Q22.75,15.327 20.543,17.811 Q18.357,20.271 15.104,20.684 Q14.796,20.723 14.551,20.533 Q14.305,20.343 14.266,20.034 Q14.227,19.726 14.417,19.481 Q14.607,19.235 14.916,19.196 Q17.61,18.854 19.422,16.814 Q21.25,14.757 21.25,12 Q21.25,8.996 19.127,6.873 Q17.004,4.75 14,4.75 L10,4.75 Q6.996,4.75 4.873,6.873 Q2.75,8.996 2.75,12 Q2.75,15.004 4.873,17.127 Q6.996,19.25 10,19.25 Q10.311,19.25 10.53,19.47 Q10.75,19.689 10.75,20 Q10.75,20.311 10.53,20.53 Q10.311,20.75 10,20.75 Z"/>
  <path fill="#292D32" d="M10,7.25 Q11.968,7.25 13.359,8.641 Q14.75,10.032 14.75,12 Q14.75,13.968 13.359,15.359 Q11.968,16.75 10,16.75 Q8.032,16.75 6.641,15.359 Q5.25,13.968 5.25,12 Q5.25,11.181 5.532,10.373 Q5.634,10.08 5.914,9.945 Q6.194,9.81 6.487,9.912 Q6.78,10.014 6.915,10.294 Q7.05,10.574 6.948,10.867 Q6.75,11.435 6.75,12 Q6.75,15.25 10,15.25 Q11.347,15.25 12.298,14.298 Q13.25,13.347 13.25,12 Q13.25,8.75 10,8.75 Q9.689,8.75 9.47,8.53 Q9.25,8.311 9.25,8 Q9.25,7.689 9.47,7.47 Q9.689,7.25 10,7.25 Z"/>
</svg>

