<svg xmlns="http://www.w3.org/2000/svg" width="24" height="24" viewBox="0 0 24 24">
  <defs/>
  <path fill="#292D32" d="M16.65,3.859 L7.35,3.859 C3.25,3.859 2,5.109 2,9.209 L2,14.789 C2,18.889 3.25,20.139 7.35,20.139 L16.65,20.139 C20.75,20.139 22,18.889 22,14.789 L22,9.209 C22,5.109 20.75,3.859 16.65,3.859 Z M14.09,13.119 C14.09,15.369 13.04,16.419 10.79,16.419 L8.56,16.419 C6.31,16.419 5.26,15.369 5.26,13.119 L5.26,10.889 C5.26,8.639 6.31,7.589 8.56,7.589 L10.79,7.589 C13.04,7.589 14.09,8.639 14.09,10.889 L14.09,13.119 Z"/>
</svg>

