<svg xmlns="http://www.w3.org/2000/svg" width="24" height="24" viewBox="0 0 24 24">
  <defs/>
  <path fill="#292D32" d="M14,20.75 L10,20.75 C5.17,20.75 1.25,16.82 1.25,12 C1.25,7.18 5.17,3.25 10,3.25 L14,3.25 C18.83,3.25 22.75,7.18 22.75,12 C22.75,16.82 18.83,20.75 14,20.75 Z M10,4.75 C6,4.75 2.75,8 2.75,12 C2.75,16 6,19.25 10,19.25 L14,19.25 C18,19.25 21.25,16 21.25,12 C21.25,8 18,4.75 14,4.75 L10,4.75 Z"/>
  <path fill="#292D32" d="M14,16.75 C11.38,16.75 9.25,14.62 9.25,12 C9.25,9.38 11.38,7.25 14,7.25 C16.62,7.25 18.75,9.38 18.75,12 C18.75,14.62 16.62,16.75 14,16.75 Z M14,8.75 C12.21,8.75 10.75,10.21 10.75,12 C10.75,13.79 12.21,15.25 14,15.25 C15.79,15.25 17.25,13.79 17.25,12 C17.25,10.21 15.79,8.75 14,8.75 Z"/>
</svg>

