<svg xmlns="http://www.w3.org/2000/svg" width="24" height="24" viewBox="0 0 24 24">
  <defs/>
  <path fill="#292D32" opacity="0.4" d="M7.35,3.86 L16.65,3.86 C20.75,3.86 22,5.11 22,9.21 L22,14.79 C22,18.89 20.75,20.14 16.65,20.14 L7.35,20.14 C3.25,20.14 2,18.89 2,14.79 L2,9.21 C2,5.11 3.25,3.86 7.35,3.86 Z"/>
  <path fill="#292D32" d="M13.21,7.58 L15.44,7.58 C17.69,7.58 18.74,8.63 18.74,10.88 L18.74,13.11 C18.74,15.36 17.69,16.41 15.44,16.41 L13.21,16.41 C10.96,16.41 9.91,15.36 9.91,13.11 L9.91,10.88 C9.91,8.63 10.96,7.58 13.21,7.58 Z"/>
</svg>

