<svg xmlns="http://www.w3.org/2000/svg" width="24" height="24" viewBox="0 0 24 24">
  <defs/>
  <path fill="#292D32" d="M16.65,3.859 L7.35,3.859 C3.25,3.859 2,5.109 2,9.209 L2,14.789 C2,18.889 3.25,20.139 7.35,20.139 L16.65,20.139 C20.75,20.139 22,18.889 22,14.789 L22,9.209 C22,5.109 20.75,3.859 16.65,3.859 Z M18.74,13.119 C18.74,15.369 17.69,16.419 15.44,16.419 L13.21,16.419 C10.96,16.419 9.91,15.369 9.91,13.119 L9.91,10.889 C9.91,8.639 10.96,7.589 13.21,7.589 L15.44,7.589 C17.69,7.589 18.74,8.639 18.74,10.889 L18.74,13.119 Z"/>
</svg>

