<svg xmlns="http://www.w3.org/2000/svg" width="24" height="24" viewBox="0 0 24 24">
  <defs/>
  <path fill="#292D32" d="M19.25,10.8 L19.25,13.2 Q19.25,15.011 18.38,15.88 Q17.511,16.75 15.7,16.75 L13.3,16.75 Q11.489,16.75 10.62,15.88 Q9.75,15.011 9.75,13.2 L9.75,10.8 Q9.75,7.25 13.3,7.25 L15.7,7.25 Q16.011,7.25 16.23,7.47 Q16.45,7.689 16.45,8 Q16.45,8.311 16.23,8.53 Q16.011,8.75 15.7,8.75 L13.3,8.75 Q11.25,8.75 11.25,10.8 L11.25,13.2 Q11.25,15.25 13.3,15.25 L15.7,15.25 Q16.889,15.25 17.32,14.82 Q17.75,14.389 17.75,13.2 L17.75,10.8 Q17.75,10.489 17.97,10.27 Q18.189,10.05 18.5,10.05 Q18.811,10.05 19.03,10.27 Q19.25,10.489 19.25,10.8 Z"/>
  <path fill="#292D32" d="M12,19.25 L17,19.25 Q19.689,19.25 20.47,18.47 Q21.25,17.689 21.25,15 L21.25,9 Q21.25,6.311 20.47,5.53 Q19.689,4.75 17,4.75 L7,4.75 Q4.311,4.75 3.53,5.53 Q2.75,6.311 2.75,9 L2.75,15 Q2.75,17.689 3.53,18.47 Q4.311,19.25 7,19.25 Q7.311,19.25 7.53,19.47 Q7.75,19.689 7.75,20 Q7.75,20.311 7.53,20.53 Q7.311,20.75 7,20.75 Q3.689,20.75 2.47,19.53 Q1.25,18.311 1.25,15 L1.25,9 Q1.25,5.689 2.47,4.47 Q3.689,3.25 7,3.25 L17,3.25 Q20.311,3.25 21.53,4.47 Q22.75,5.689 22.75,9 L22.75,15 Q22.75,18.311 21.53,19.53 Q20.311,20.75 17,20.75 L12,20.75 Q11.689,20.75 11.47,20.53 Q11.25,20.311 11.25,20 Q11.25,19.689 11.47,19.47 Q11.689,19.25 12,19.25 Z"/>
</svg>

