<svg xmlns="http://www.w3.org/2000/svg" width="24" height="24" viewBox="0 0 24 24">
  <defs/>
  <path fill="#292D32" d="M10.7,16.75 L8.3,16.75 C5.88,16.75 4.75,15.62 4.75,13.2 L4.75,10.8 C4.75,8.38 5.88,7.25 8.3,7.25 L10.7,7.25 C13.12,7.25 14.25,8.38 14.25,10.8 L14.25,13.2 C14.25,15.62 13.12,16.75 10.7,16.75 Z M8.3,8.75 C6.71,8.75 6.25,9.21 6.25,10.8 L6.25,13.2 C6.25,14.79 6.71,15.25 8.3,15.25 L10.7,15.25 C12.29,15.25 12.75,14.79 12.75,13.2 L12.75,10.8 C12.75,9.21 12.29,8.75 10.7,8.75 L8.3,8.75 Z"/>
  <path fill="#292D32" d="M17,20.75 L7,20.75 C2.59,20.75 1.25,19.41 1.25,15 L1.25,9 C1.25,4.59 2.59,3.25 7,3.25 L17,3.25 C21.41,3.25 22.75,4.59 22.75,9 L22.75,15 C22.75,19.41 21.41,20.75 17,20.75 Z M7,4.75 C3.42,4.75 2.75,5.43 2.75,9 L2.75,15 C2.75,18.57 3.42,19.25 7,19.25 L17,19.25 C20.58,19.25 21.25,18.57 21.25,15 L21.25,9 C21.25,5.43 20.58,4.75 17,4.75 L7,4.75 Z"/>
</svg>

