<svg xmlns="http://www.w3.org/2000/svg" width="24" height="24" viewBox="0 0 24 24">
  <defs/>
  <path fill="#292D32" opacity="0.4" d="M16.65,3.86 L7.35,3.86 C3.25,3.86 2,5.11 2,9.21 L2,14.79 C2,18.89 3.25,20.14 7.35,20.14 L16.65,20.14 C20.75,20.14 22,18.89 22,14.79 L22,9.21 C22,5.11 20.75,3.86 16.65,3.86 Z"/>
  <path fill="#292D32" d="M10.79,7.58 L8.56,7.58 C6.31,7.58 5.26,8.63 5.26,10.88 L5.26,13.11 C5.26,15.36 6.31,16.41 8.56,16.41 L10.79,16.41 C13.04,16.41 14.09,15.36 14.09,13.11 L14.09,10.88 C14.09,8.63 13.04,7.58 10.79,7.58 Z"/>
</svg>

