<svg xmlns="http://www.w3.org/2000/svg" width="24" height="24" viewBox="0 0 24 24">
  <defs/>
  <path fill="#292D32" d="M6.25,10.8 L6.25,13.2 Q6.25,14.389 6.68,14.82 Q7.111,15.25 8.3,15.25 L10.7,15.25 Q12.75,15.25 12.75,13.2 L12.75,10.8 Q12.75,8.75 10.7,8.75 L8.3,8.75 Q7.989,8.75 7.77,8.53 Q7.55,8.311 7.55,8 Q7.55,7.689 7.77,7.47 Q7.989,7.25 8.3,7.25 L10.7,7.25 Q14.25,7.25 14.25,10.8 L14.25,13.2 Q14.25,15.011 13.38,15.88 Q12.511,16.75 10.7,16.75 L8.3,16.75 Q6.489,16.75 5.62,15.88 Q4.75,15.011 4.75,13.2 L4.75,10.8 Q4.75,10.489 4.97,10.27 Q5.189,10.05 5.5,10.05 Q5.811,10.05 6.03,10.27 Q6.25,10.489 6.25,10.8 Z"/>
  <path fill="#292D32" d="M12,20.75 L7,20.75 Q3.689,20.75 2.47,19.53 Q1.25,18.311 1.25,15 L1.25,9 Q1.25,5.689 2.47,4.47 Q3.689,3.25 7,3.25 L17,3.25 Q20.311,3.25 21.53,4.47 Q22.75,5.689 22.75,9 L22.75,15 Q22.75,18.311 21.53,19.53 Q20.311,20.75 17,20.75 Q16.689,20.75 16.47,20.53 Q16.25,20.311 16.25,20 Q16.25,19.689 16.47,19.47 Q16.689,19.25 17,19.25 Q19.689,19.25 20.47,18.47 Q21.25,17.689 21.25,15 L21.25,9 Q21.25,6.311 20.47,5.53 Q19.689,4.75 17,4.75 L7,4.75 Q4.311,4.75 3.53,5.53 Q2.75,6.311 2.75,9 L2.75,15 Q2.75,17.689 3.53,18.47 Q4.311,19.25 7,19.25 L12,19.25 Q12.311,19.25 12.53,19.47 Q12.75,19.689 12.75,20 Q12.75,20.311 12.53,20.53 Q12.311,20.75 12,20.75 Z"/>
</svg>

