<svg xmlns="http://www.w3.org/2000/svg" width="24" height="24" viewBox="0 0 24 24">
  <defs/>
  <path fill="#292D32" d="M14,20.75 L10,20.75 C5.17,20.75 1.25,16.82 1.25,12 C1.25,7.18 5.17,3.25 10,3.25 L14,3.25 C18.83,3.25 22.75,7.18 22.75,12 C22.75,16.82 18.83,20.75 14,20.75 Z M10,4.75 C6,4.75 2.75,8 2.75,12 C2.75,16 6,19.25 10,19.25 L14,19.25 C18,19.25 21.25,16 21.25,12 C21.25,8 18,4.75 14,4.75 L10,4.75 Z"/>
  <path fill="#292D32" d="M10,16.75 C7.38,16.75 5.25,14.62 5.25,12 C5.25,9.38 7.38,7.25 10,7.25 C12.62,7.25 14.75,9.38 14.75,12 C14.75,14.62 12.62,16.75 10,16.75 Z M10,8.75 C8.21,8.75 6.75,10.21 6.75,12 C6.75,13.79 8.21,15.25 10,15.25 C11.79,15.25 13.25,13.79 13.25,12 C13.25,10.21 11.79,8.75 10,8.75 Z"/>
</svg>

