<svg xmlns="http://www.w3.org/2000/svg" width="24" height="24" viewBox="0 0 24 24">
  <defs/>
  <path fill="#292D32" d="M14,19.25 Q17.004,19.25 19.127,17.127 Q21.25,15.004 21.25,12 Q21.25,8.996 19.127,6.873 Q17.004,4.75 14,4.75 L10,4.75 Q6.996,4.75 4.873,6.873 Q2.75,8.996 2.75,12 Q2.75,14.757 4.578,16.814 Q6.39,18.854 9.084,19.196 Q9.393,19.235 9.583,19.481 Q9.773,19.726 9.734,20.034 Q9.695,20.343 9.449,20.533 Q9.204,20.723 8.896,20.684 Q5.643,20.271 3.457,17.811 Q1.25,15.327 1.25,12 Q1.25,8.374 3.812,5.812 Q6.374,3.25 10,3.25 L14,3.25 Q17.626,3.25 20.188,5.812 Q22.75,8.374 22.75,12 Q22.75,15.626 20.188,18.188 Q17.626,20.75 14,20.75 Q13.689,20.75 13.47,20.53 Q13.25,20.311 13.25,20 Q13.25,19.689 13.47,19.47 Q13.689,19.25 14,19.25 Z"/>
  <path fill="#292D32" d="M14,8.75 Q10.75,8.75 10.75,12 Q10.75,13.347 11.702,14.298 Q12.653,15.25 14,15.25 Q17.25,15.25 17.25,12 Q17.25,11.435 17.052,10.867 Q16.95,10.574 17.085,10.294 Q17.22,10.014 17.513,9.912 Q17.806,9.81 18.086,9.945 Q18.366,10.08 18.468,10.373 Q18.75,11.181 18.75,12 Q18.75,13.968 17.359,15.359 Q15.968,16.75 14,16.75 Q12.032,16.75 10.641,15.359 Q9.25,13.968 9.25,12 Q9.25,10.032 10.641,8.641 Q12.032,7.25 14,7.25 Q14.311,7.25 14.53,7.47 Q14.75,7.689 14.75,8 Q14.75,8.311 14.53,8.53 Q14.311,8.75 14,8.75 Z"/>
</svg>

