<svg xmlns="http://www.w3.org/2000/svg" width="24" height="24" viewBox="0 0 24 24">
  <defs/>
  <path fill="#292D32" opacity="0.4" d="M8.3,16.75 Q6.489,16.75 5.62,15.88 Q4.75,15.011 4.75,13.2 L4.75,10.8 Q4.75,8.989 5.62,8.12 Q6.489,7.25 8.3,7.25 L10.7,7.25 Q14.25,7.25 14.25,10.8 L14.25,13.2 Q14.25,15.011 13.38,15.88 Q12.511,16.75 10.7,16.75 Z M8.3,15.25 L10.7,15.25 Q12.75,15.25 12.75,13.2 L12.75,10.8 Q12.75,8.75 10.7,8.75 L8.3,8.75 Q7.111,8.75 6.68,9.18 Q6.25,9.611 6.25,10.8 L6.25,13.2 Q6.25,14.389 6.68,14.82 Q7.111,15.25 8.3,15.25 Z"/>
  <path fill="#292D32" d="M17,20.75 L7,20.75 Q3.689,20.75 2.47,19.53 Q1.25,18.311 1.25,15 L1.25,9 Q1.25,5.689 2.47,4.47 Q3.689,3.25 7,3.25 L17,3.25 Q20.311,3.25 21.53,4.47 Q22.75,5.689 22.75,9 L22.75,15 Q22.75,18.311 21.53,19.53 Q20.311,20.75 17,20.75 Z M17,19.25 Q19.689,19.25 20.47,18.47 Q21.25,17.689 21.25,15 L21.25,9 Q21.25,6.311 20.47,5.53 Q19.689,4.75 17,4.75 L7,4.75 Q4.311,4.75 3.53,5.53 Q2.75,6.311 2.75,9 L2.75,15 Q2.75,17.689 3.53,18.47 Q4.311,19.25 7,19.25 Z"/>
</svg>

