<svg xmlns="http://www.w3.org/2000/svg" width="24" height="24" viewBox="0 0 24 24">
  <defs/>
  <path fill="#292D32" d="M15.5,15.75 C15.32,15.75 15.12,15.74 14.93,15.73 C14.56,15.71 14.26,15.41 14.23,15.04 C14.01,12.25 11.74,9.99 8.96,9.77 C8.59,9.74 8.29,9.44 8.27,9.07 C8.26,8.88 8.25,8.69 8.25,8.5 C8.25,4.5 11.5,1.25 15.5,1.25 C19.5,1.25 22.75,4.5 22.75,8.5 C22.75,12.5 19.5,15.75 15.5,15.75 Z M9.75,8.36 C12.73,8.88 15.12,11.27 15.64,14.25 C18.75,14.17 21.25,11.63 21.25,8.5 C21.25,5.33 18.67,2.75 15.5,2.75 C12.38,2.75 9.83,5.25 9.75,8.36 Z"/>
  <path fill="#292D32" d="M8.5,22.75 C4.5,22.75 1.25,19.5 1.25,15.5 C1.25,11.5 4.5,8.25 8.5,8.25 C8.68,8.25 8.88,8.26 9.07,8.27 C12.6,8.55 15.46,11.41 15.73,14.92 C15.74,15.12 15.75,15.31 15.75,15.5 C15.75,19.5 12.5,22.75 8.5,22.75 Z M8.5,9.75 C5.33,9.75 2.75,12.33 2.75,15.5 C2.75,18.67 5.33,21.25 8.5,21.25 C11.67,21.25 14.25,18.67 14.25,15.5 C14.25,15.34 14.24,15.18 14.23,15.03 C14.01,12.26 11.75,9.99 8.96,9.77 C8.82,9.76 8.66,9.75 8.5,9.75 Z"/>
  <path fill="#292D32" d="M3,7.34 C2.77,7.34 2.55,7.3 2.33,7.21 C1.67,6.94 1.25,6.3 1.25,5.59 L1.25,3 C1.25,2.04 2.04,1.25 3,1.25 L5.59,1.25 C6.3,1.25 6.93,1.67 7.21,2.33 C7.48,2.99 7.33,3.74 6.83,4.24 L4.24,6.83 C3.9,7.16 3.46,7.34 3,7.34 Z M3,2.75 C2.86,2.75 2.75,2.86 2.75,3 L2.75,5.59 C2.75,5.74 2.85,5.8 2.9,5.82 C2.96,5.84 3.07,5.87 3.17,5.77 L5.76,3.18 C5.86,3.08 5.84,2.97 5.81,2.91 C5.78,2.85 5.72,2.76 5.58,2.76 L3,2.76 L3,2.75 Z"/>
  <path fill="#292D32" d="M20.999,22.75 L18.409,22.75 C17.699,22.75 17.069,22.33 16.789,21.67 C16.519,21.01 16.669,20.26 17.169,19.76 L19.759,17.17 C20.259,16.67 21.009,16.52 21.669,16.79 C22.329,17.06 22.749,17.7 22.749,18.41 L22.749,21 C22.749,21.96 21.959,22.75 20.999,22.75 Z M20.989,18.16 C20.939,18.16 20.879,18.18 20.819,18.24 L18.229,20.83 C18.129,20.93 18.149,21.04 18.179,21.1 C18.209,21.16 18.269,21.25 18.409,21.25 L20.999,21.25 C21.139,21.25 21.249,21.14 21.249,21 L21.249,18.41 C21.249,18.26 21.149,18.2 21.099,18.18 C21.069,18.17 21.029,18.16 20.989,18.16 Z"/>
</svg>

