<svg xmlns="http://www.w3.org/2000/svg" width="24" height="24" viewBox="0 0 24 24">
  <defs/>
  <path fill="#292D32" d="M22.75,8.5 Q22.75,11.503 20.627,13.627 Q18.503,15.75 15.5,15.75 Q15.298,15.75 14.936,15.729 Q14.656,15.712 14.455,15.516 Q14.254,15.319 14.232,15.039 Q13.847,10.153 8.961,9.768 Q8.681,9.746 8.484,9.545 Q8.288,9.344 8.271,9.064 Q8.25,8.702 8.25,8.5 Q8.25,5.497 10.373,3.373 Q12.497,1.25 15.5,1.25 Q18.503,1.25 20.627,3.373 Q22.75,5.497 22.75,8.5 Z M21.25,8.5 Q21.25,6.118 19.566,4.434 Q17.882,2.75 15.5,2.75 Q13.118,2.75 11.434,4.434 Q9.802,6.066 9.752,8.354 Q11.977,8.726 13.625,10.375 Q15.274,12.023 15.646,14.248 Q17.934,14.198 19.566,12.566 Q21.25,10.882 21.25,8.5 Z"/>
  <path fill="#292D32" d="M15.75,15.5 Q15.75,18.503 13.627,20.627 Q11.503,22.75 8.5,22.75 Q5.497,22.75 3.373,20.627 Q1.25,18.503 1.25,15.5 Q1.25,12.497 3.373,10.373 Q5.497,8.25 8.5,8.25 Q8.702,8.25 9.064,8.271 Q11.732,8.482 13.625,10.375 Q15.518,12.268 15.728,14.921 Q15.75,15.298 15.75,15.5 Z M14.25,15.5 Q14.25,15.342 14.232,15.039 Q13.847,10.153 8.976,9.769 Q8.658,9.75 8.5,9.75 Q6.118,9.75 4.434,11.434 Q2.75,13.118 2.75,15.5 Q2.75,17.882 4.434,19.566 Q6.118,21.25 8.5,21.25 Q10.882,21.25 12.566,19.566 Q14.25,17.882 14.25,15.5 Z"/>
  <path fill="#292D32" opacity="0.4" d="M5.59,1.25 Q6.758,1.25 7.205,2.333 Q7.648,3.409 6.83,4.24 L4.24,6.83 Q3.413,7.658 2.331,7.208 Q1.25,6.758 1.25,5.59 L1.25,3 Q1.25,1.25 3,1.25 Z M5.59,2.75 L3,2.75 Q2.75,2.75 2.75,3 L2.75,5.59 Q2.75,5.757 2.907,5.822 Q3.062,5.887 3.18,5.77 L5.77,3.18 Q5.884,3.064 5.818,2.905 Q5.754,2.75 5.59,2.75 Z"/>
  <path fill="#292D32" opacity="0.4" d="M18.41,22.75 Q17.241,22.75 16.795,21.667 Q16.351,20.591 17.169,19.76 L19.759,17.17 Q20.587,16.343 21.669,16.793 Q22.75,17.242 22.75,18.41 L22.75,21 Q22.75,22.75 21,22.75 Z M18.41,21.25 L21,21.25 Q21.25,21.25 21.25,21 L21.25,18.41 Q21.25,18.243 21.093,18.178 Q20.937,18.113 20.82,18.231 L18.23,20.821 Q18.116,20.936 18.182,21.096 Q18.246,21.25 18.41,21.25 Z"/>
</svg>

