<svg xmlns="http://www.w3.org/2000/svg" width="24" height="24" viewBox="0 0 24 24">
  <defs/>
  <path fill="#292D32" d="M15,15.5 C15,19.09 12.09,22 8.5,22 C4.91,22 2,19.09 2,15.5 C2,11.91 4.91,9 8.5,9 C8.67,9 8.85,9.01 9.02,9.02 C12.19,9.27 14.73,11.81 14.98,14.98 C14.99,15.15 15,15.33 15,15.5 Z"/>
  <path fill="#292D32" d="M22,8.5 C22,11.76 19.6,14.45 16.48,14.92 L16.48,14.86 C16.17,10.98 13.02,7.83 9.11,7.52 L9.08,7.52 C9.55,4.4 12.24,2 15.5,2 C19.09,2 22,4.91 22,8.5 Z"/>
  <path fill="#292D32" d="M5.59,2 L3,2 C2.45,2 2,2.45 2,3 L2,5.59 C2,6.48 3.08,6.93 3.71,6.3 L6.3,3.71 C6.92,3.08 6.48,2 5.59,2 Z"/>
  <path fill="#292D32" d="M18.41,22 L21,22 C21.55,22 22,21.55 22,21 L22,18.41 C22,17.52 20.92,17.07 20.29,17.7 L17.7,20.29 C17.08,20.92 17.52,22 18.41,22 Z"/>
</svg>

