<svg xmlns="http://www.w3.org/2000/svg" width="24" height="24" viewBox="0 0 24 24">
  <defs/>
  <path fill="#292D32" d="M18.389,19.006 L16.92,16.074 L15.451,19.006 Q15.311,19.284 15.017,19.382 Q14.722,19.48 14.444,19.34 Q14.166,19.201 14.068,18.906 Q13.97,18.612 14.109,18.334 L16.249,14.064 Q16.361,13.841 16.584,13.729 Q16.862,13.59 17.157,13.688 Q17.451,13.786 17.591,14.064 L19.731,18.334 Q19.87,18.612 19.772,18.906 Q19.674,19.201 19.396,19.34 Q19.118,19.48 18.823,19.382 Q18.529,19.284 18.389,19.006 Z"/>
  <path fill="#292D32" d="M15.17,17.16 L18.69,17.16 Q19.001,17.16 19.22,17.38 Q19.44,17.599 19.44,17.91 Q19.44,18.221 19.22,18.44 Q19.001,18.66 18.69,18.66 L15.17,18.66 Q14.859,18.66 14.64,18.44 Q14.42,18.221 14.42,17.91 Q14.42,17.599 14.64,17.38 Q14.859,17.16 15.17,17.16 Z"/>
  <path fill="#292D32" d="M16.92,22.75 Q14.508,22.75 12.8,21.044 Q11.09,19.337 11.09,16.92 Q11.09,14.508 12.796,12.8 Q14.503,11.09 16.92,11.09 Q19.332,11.09 21.04,12.796 Q22.75,14.503 22.75,16.92 Q22.75,19.338 21.044,21.044 Q19.338,22.75 16.92,22.75 Z M16.92,21.25 Q18.717,21.25 19.984,19.983 Q21.25,18.717 21.25,16.92 Q21.25,15.125 19.98,13.857 Q18.711,12.59 16.92,12.59 Q15.125,12.59 13.857,13.86 Q12.59,15.129 12.59,16.92 Q12.59,18.715 13.86,19.983 Q15.129,21.25 16.92,21.25 Z"/>
  <path fill="#292D32" d="M5.02,1.25 L8.94,1.25 Q10.803,1.25 11.775,2.222 Q12.753,3.2 12.71,5.029 L12.71,8.931 Q12.753,10.798 11.775,11.775 Q10.798,12.753 8.931,12.71 L5.02,12.71 Q3.199,12.746 2.222,11.766 Q1.25,10.792 1.25,8.93 L1.25,5.01 Q1.25,1.25 5.02,1.25 Z M5.02,2.75 Q2.75,2.75 2.75,5.01 L2.75,8.93 Q2.75,10.172 3.283,10.707 Q3.809,11.234 5.02,11.21 L8.94,11.21 Q8.949,11.21 8.958,11.21 Q10.189,11.24 10.715,10.715 Q11.24,10.189 11.21,8.958 Q11.21,8.949 11.21,8.94 L11.21,5.02 Q11.21,5.011 11.21,5.001 Q11.24,3.808 10.715,3.283 Q10.182,2.75 8.94,2.75 Z"/>
  <path fill="#292D32" d="M9.01,6.6 L4.95,6.6 Q4.639,6.6 4.42,6.38 Q4.2,6.161 4.2,5.85 Q4.2,5.539 4.42,5.32 Q4.639,5.1 4.95,5.1 L9.01,5.1 Q9.321,5.1 9.54,5.32 Q9.76,5.539 9.76,5.85 Q9.76,6.161 9.54,6.38 Q9.321,6.6 9.01,6.6 Z"/>
  <path fill="#292D32" d="M7.72,5.17 L7.72,5.85 Q7.72,6.161 7.5,6.38 Q7.281,6.6 6.97,6.6 Q6.659,6.6 6.44,6.38 Q6.22,6.161 6.22,5.85 L6.22,5.17 Q6.22,4.859 6.44,4.64 Q6.659,4.42 6.97,4.42 Q7.281,4.42 7.5,4.64 Q7.72,4.859 7.72,5.17 Z"/>
  <path fill="#292D32" d="M8.74,5.84 Q8.74,9.76 4.94,9.76 Q4.629,9.76 4.41,9.54 Q4.19,9.32 4.19,9.01 Q4.19,8.699 4.41,8.479 Q4.629,8.26 4.94,8.26 Q5.882,8.26 6.555,7.561 Q7.24,6.849 7.24,5.84 Q7.24,5.529 7.46,5.31 Q7.679,5.09 7.99,5.09 Q8.301,5.09 8.52,5.31 Q8.74,5.529 8.74,5.84 Z"/>
  <path fill="#292D32" d="M9.01,9.76 Q7.532,9.76 6.558,8.447 Q6.372,8.197 6.418,7.89 Q6.464,7.583 6.713,7.398 Q6.963,7.213 7.27,7.258 Q7.577,7.304 7.762,7.553 Q8.287,8.26 9.01,8.26 Q9.321,8.26 9.54,8.48 Q9.76,8.699 9.76,9.01 Q9.76,9.321 9.54,9.54 Q9.321,9.76 9.01,9.76 Z"/>
  <path fill="#292D32" d="M2.75,15 Q2.75,17.592 4.579,19.421 Q5.888,20.729 7.586,21.102 L7.307,20.636 Q7.147,20.369 7.222,20.068 Q7.298,19.767 7.564,19.607 Q7.831,19.447 8.132,19.522 Q8.433,19.598 8.593,19.864 L9.643,21.614 Q9.75,21.792 9.75,22 Q9.75,22.311 9.53,22.53 Q9.311,22.75 9,22.75 Q5.787,22.75 3.518,20.482 Q1.25,18.213 1.25,15 Q1.25,14.689 1.47,14.47 Q1.689,14.25 2,14.25 Q2.311,14.25 2.53,14.47 Q2.75,14.689 2.75,15 Z"/>
  <path fill="#292D32" d="M21.25,9 Q21.25,6.408 19.421,4.579 Q18.112,3.271 16.414,2.898 L16.693,3.364 Q16.853,3.631 16.778,3.932 Q16.702,4.233 16.436,4.393 Q16.169,4.553 15.868,4.478 Q15.567,4.402 15.407,4.136 L14.357,2.386 Q14.25,2.208 14.25,2 Q14.25,1.689 14.47,1.47 Q14.689,1.25 15,1.25 Q18.213,1.25 20.482,3.518 Q22.75,5.787 22.75,9 Q22.75,9.311 22.53,9.53 Q22.311,9.75 22,9.75 Q21.689,9.75 21.47,9.53 Q21.25,9.311 21.25,9 Z"/>
</svg>

