<svg xmlns="http://www.w3.org/2000/svg" width="24" height="24" viewBox="0 0 24 24">
  <defs/>
  <path fill="#292D32" opacity="0.4" d="M6.73,19.7 C7.55,18.82 8.8,18.89 9.52,19.85 L10.53,21.2 C11.34,22.27 12.65,22.27 13.46,21.2 L14.47,19.85 C15.19,18.89 16.44,18.82 17.26,19.7 C19.04,21.6 20.49,20.97 20.49,18.31 L20.49,7.04 C20.49,3.01 19.55,2 15.77,2 L8.21,2 C4.43,2 3.49,3.01 3.49,7.04 L3.49,18.3 C3.5,20.97 4.96,21.59 6.73,19.7 Z"/>
  <path fill="#292D32" d="M14.75,10.75 L9.25,10.75 C8.84,10.75 8.5,10.41 8.5,10 C8.5,9.59 8.84,9.25 9.25,9.25 L14.75,9.25 C15.16,9.25 15.5,9.59 15.5,10 C15.5,10.41 15.16,10.75 14.75,10.75 Z"/>
</svg>

