<svg xmlns="http://www.w3.org/2000/svg" width="24" height="24" viewBox="0 0 24 24">
  <defs/>
  <path fill="#292D32" d="M14.16,9.25 L14.75,9.25 Q15.061,9.25 15.281,9.47 Q15.5,9.689 15.5,10 Q15.5,10.311 15.281,10.53 Q15.061,10.75 14.75,10.75 L14.16,10.75 Q13.85,10.75 13.63,10.53 Q13.41,10.311 13.41,10 Q13.41,9.689 13.63,9.47 Q13.85,9.25 14.16,9.25 Z"/>
  <path fill="#292D32" d="M9.25,9.25 L11.65,9.25 Q11.961,9.25 12.18,9.47 Q12.4,9.689 12.4,10 Q12.4,10.311 12.18,10.53 Q11.961,10.75 11.65,10.75 L9.25,10.75 Q8.939,10.75 8.72,10.53 Q8.5,10.311 8.5,10 Q8.5,9.689 8.72,9.47 Q8.939,9.25 9.25,9.25 Z"/>
  <path fill="#292D32" d="M4.25,11 L4.25,18.3 Q4.25,19.802 4.748,20.016 Q5.214,20.217 6.181,19.179 Q6.191,19.169 6.2,19.159 L6.203,19.157 Q7.054,18.26 8.212,18.324 Q9.378,18.387 10.121,19.381 L11.131,20.731 Q11.511,21.233 11.995,21.233 Q12.48,21.233 12.862,20.727 L13.87,19.381 Q14.62,18.38 15.787,18.316 Q16.955,18.252 17.809,19.169 Q18.781,20.207 19.245,20.006 Q19.74,19.793 19.74,18.29 L19.74,7.04 Q19.74,4.312 19,3.521 Q18.279,2.75 15.77,2.75 L8.21,2.75 Q5.702,2.75 4.98,3.521 Q4.24,4.312 4.24,7.04 Q4.24,7.351 4.021,7.57 Q3.801,7.79 3.49,7.79 Q3.18,7.79 2.96,7.57 Q2.74,7.351 2.74,7.04 Q2.74,3.72 3.885,2.496 Q5.051,1.25 8.21,1.25 L15.77,1.25 Q18.929,1.25 20.095,2.496 Q21.24,3.72 21.24,7.04 L21.24,18.29 Q21.24,20.779 19.84,21.384 Q18.408,22.002 16.711,20.191 Q16.336,19.788 15.868,19.814 Q15.401,19.839 15.071,20.279 L14.058,21.633 Q13.226,22.733 11.995,22.733 Q10.765,22.733 9.93,21.629 L8.919,20.279 Q8.596,19.847 8.131,19.821 Q7.662,19.796 7.286,20.194 Q7.278,20.203 7.27,20.211 L7.27,20.211 Q5.588,22.011 4.155,21.394 Q2.75,20.789 2.75,18.3 L2.75,11 Q2.75,10.689 2.97,10.47 Q3.19,10.25 3.5,10.25 Q3.811,10.25 4.031,10.47 Q4.25,10.689 4.25,11 Z"/>
</svg>

