<svg xmlns="http://www.w3.org/2000/svg" width="24" height="24" viewBox="0 0 24 24">
  <defs/>
  <path fill="#292D32" d="M14.789,19.42 C14.679,19.42 14.559,19.39 14.459,19.34 C14.089,19.15 13.939,18.7 14.119,18.33 L16.259,14.06 C16.389,13.81 16.649,13.65 16.929,13.65 C17.209,13.65 17.469,13.81 17.599,14.07 L19.739,18.34 C19.929,18.71 19.779,19.16 19.399,19.35 C19.029,19.54 18.579,19.39 18.389,19.01 L16.929,16.08 L15.469,19.01 C15.329,19.27 15.059,19.42 14.789,19.42 Z"/>
  <path fill="#292D32" d="M18.68,18.66 L15.16,18.66 C14.75,18.66 14.41,18.32 14.41,17.91 C14.41,17.5 14.75,17.16 15.16,17.16 L18.68,17.16 C19.09,17.16 19.43,17.5 19.43,17.91 C19.43,18.32 19.1,18.66 18.68,18.66 Z"/>
  <path fill="#292D32" d="M16.92,22.75 C13.71,22.75 11.09,20.14 11.09,16.92 C11.09,13.7 13.7,11.09 16.92,11.09 C20.13,11.09 22.75,13.7 22.75,16.92 C22.75,20.14 20.14,22.75 16.92,22.75 Z M16.92,12.6 C14.53,12.6 12.59,14.54 12.59,16.93 C12.59,19.32 14.53,21.26 16.92,21.26 C19.3,21.26 21.25,19.32 21.25,16.93 C21.25,14.54 19.31,12.6 16.92,12.6 Z"/>
  <path fill="#292D32" d="M4.86,12.7 C3.75,12.7 2.87,12.39 2.25,11.79 C1.59,11.15 1.25,10.18 1.25,8.93 L1.25,5.01 C1.25,2.58 2.59,1.24 5.02,1.24 L8.94,1.24 C10.19,1.24 11.15,1.57 11.8,2.24 C12.43,2.89 12.74,3.83 12.71,5.03 L12.71,8.93 C12.74,10.15 12.43,11.11 11.78,11.76 C11.13,12.41 10.17,12.71 8.93,12.69 L5.03,12.69 C4.96,12.7 4.91,12.7 4.86,12.7 Z M5.02,2.75 C3.41,2.75 2.75,3.41 2.75,5.02 L2.75,8.94 C2.75,9.77 2.93,10.37 3.29,10.72 C3.64,11.06 4.2,11.21 4.99,11.2 L8.93,11.2 C9.77,11.22 10.35,11.05 10.7,10.7 C11.05,10.35 11.21,9.76 11.19,8.95 L11.19,5.01 C11.21,4.21 11.05,3.64 10.71,3.29 C10.36,2.93 9.76,2.75 8.93,2.75 L5.02,2.75 Z"/>
  <path fill="#292D32" d="M8.999,6.6 L4.939,6.6 C4.529,6.6 4.189,6.26 4.189,5.85 C4.189,5.44 4.529,5.1 4.939,5.1 L8.999,5.1 C9.409,5.1 9.749,5.44 9.749,5.85 C9.749,6.26 9.419,6.6 8.999,6.6 Z"/>
  <path fill="#292D32" d="M6.98,6.6 C6.57,6.6 6.23,6.26 6.23,5.85 L6.23,5.17 C6.23,4.76 6.57,4.42 6.98,4.42 C7.39,4.42 7.73,4.76 7.73,5.17 L7.73,5.85 C7.73,6.26 7.39,6.6 6.98,6.6 Z"/>
  <path fill="#292D32" d="M4.939,9.76 C4.529,9.76 4.189,9.42 4.189,9.01 C4.189,8.6 4.529,8.26 4.939,8.26 C6.209,8.26 7.239,7.18 7.239,5.84 C7.239,5.43 7.579,5.09 7.989,5.09 C8.399,5.09 8.739,5.43 8.739,5.84 C8.739,8 7.039,9.76 4.939,9.76 Z"/>
  <path fill="#292D32" d="M9.01,9.76 C8.08,9.76 7.19,9.29 6.56,8.46 C6.31,8.13 6.38,7.66 6.71,7.41 C7.04,7.16 7.51,7.23 7.76,7.56 C8.1,8.02 8.55,8.27 9.01,8.27 C9.42,8.27 9.76,8.61 9.76,9.02 C9.76,9.43 9.42,9.76 9.01,9.76 Z"/>
  <path fill="#292D32" d="M9,22.75 C4.73,22.75 1.25,19.27 1.25,15 C1.25,14.59 1.59,14.25 2,14.25 C2.41,14.25 2.75,14.59 2.75,15 C2.75,17.96 4.81,20.44 7.58,21.09 L7.31,20.64 C7.1,20.28 7.21,19.82 7.57,19.61 C7.92,19.4 8.39,19.51 8.6,19.87 L9.65,21.62 C9.79,21.85 9.79,22.14 9.66,22.37 C9.52,22.6 9.27,22.75 9,22.75 Z"/>
  <path fill="#292D32" d="M22,9.75 C21.59,9.75 21.25,9.41 21.25,9 C21.25,6.04 19.19,3.56 16.42,2.91 L16.69,3.36 C16.9,3.72 16.79,4.18 16.43,4.39 C16.08,4.6 15.61,4.49 15.4,4.13 L14.35,2.38 C14.21,2.15 14.21,1.86 14.34,1.63 C14.47,1.39 14.72,1.25 14.99,1.25 C19.26,1.25 22.74,4.73 22.74,9 C22.75,9.41 22.41,9.75 22,9.75 Z"/>
</svg>

