<svg xmlns="http://www.w3.org/2000/svg" width="24" height="24" viewBox="0 0 24 24">
  <defs/>
  <path fill="#292D32" d="M15.78,2 L8.22,2 C4.44,2 3.5,3.01 3.5,7.04 L3.5,18.3 C3.5,20.96 4.96,21.59 6.73,19.69 L6.74,19.68 C7.56,18.81 8.81,18.88 9.52,19.83 L10.53,21.18 C11.34,22.25 12.65,22.25 13.46,21.18 L14.47,19.83 C15.19,18.87 16.44,18.8 17.26,19.68 C19.04,21.58 20.49,20.95 20.49,18.29 L20.49,7.04 C20.5,3.01 19.56,2 15.78,2 Z M14.75,10.75 L9.25,10.75 C8.84,10.75 8.5,10.41 8.5,10 C8.5,9.59 8.84,9.25 9.25,9.25 L14.75,9.25 C15.16,9.25 15.5,9.59 15.5,10 C15.5,10.41 15.16,10.75 14.75,10.75 Z"/>
</svg>

