<svg xmlns="http://www.w3.org/2000/svg" width="24" height="24" viewBox="0 0 24 24">
  <defs/>
  <path fill="#292D32" d="M11.999,22.75 C11.22,22.75 10.46,22.35 9.94,21.65 L8.93,20.3 C8.72,20.02 8.44,19.86 8.14,19.84 C7.84,19.83 7.54,19.96 7.3,20.21 L6.75,19.7 L7.3,20.21 C5.86,21.75 4.75,21.63 4.22,21.42 C3.68,21.21 2.77,20.52 2.77,18.3 L2.77,7.04 C2.77,2.6 4.05,1.25 8.24,1.25 L15.8,1.25 C19.989,1.25 21.27,2.6 21.27,7.04 L21.27,18.3 C21.27,20.51 20.36,21.2 19.82,21.42 C19.29,21.63 18.189,21.75 16.739,20.21 C16.5,19.95 16.2,19.82 15.889,19.84 C15.589,19.86 15.3,20.02 15.089,20.3 L14.079,21.65 C13.54,22.35 12.78,22.75 11.999,22.75 Z M8.08,18.33 C8.12,18.33 8.17,18.33 8.21,18.33 C8.95,18.37 9.65,18.76 10.12,19.39 L11.13,20.74 C11.62,21.39 12.37,21.39 12.86,20.74 L13.87,19.39 C14.35,18.76 15.04,18.37 15.79,18.33 C16.54,18.29 17.27,18.6 17.809,19.18 C18.57,19.99 19.059,20.09 19.239,20.02 C19.48,19.92 19.739,19.34 19.739,18.3 L19.739,7.04 C19.739,3.43 19.11,2.75 15.77,2.75 L8.21,2.75 C4.87,2.75 4.24,3.43 4.24,7.04 L4.24,18.3 C4.24,19.35 4.5,19.93 4.74,20.02 C4.91,20.09 5.41,19.99 6.17,19.18 C6.72,18.63 7.39,18.33 8.08,18.33 Z"/>
  <path fill="#292D32" d="M14.75,10.75 L9.25,10.75 C8.84,10.75 8.5,10.41 8.5,10 C8.5,9.59 8.84,9.25 9.25,9.25 L14.75,9.25 C15.16,9.25 15.5,9.59 15.5,10 C15.5,10.41 15.16,10.75 14.75,10.75 Z"/>
</svg>

