<svg xmlns="http://www.w3.org/2000/svg" width="24" height="24" viewBox="0 0 24 24">
  <defs/>
  <path fill="#292D32" opacity="0.4" d="M16.92,22 C14.12,22 11.84,19.73 11.84,16.92 C11.84,14.12 14.11,11.84 16.92,11.84 C19.72,11.84 22,14.11 22,16.92 C22,19.73 19.73,22 16.92,22 Z"/>
  <path fill="#292D32" opacity="0.4" d="M5.02,2 L8.94,2 C11.01,2 12.01,3 11.96,5.02 L11.96,8.94 C12.01,11.01 11.01,12.01 8.94,11.96 L5.02,11.96 C3,12 2,11 2,8.93 L2,5.01 C2,3 3,2 5.02,2 Z"/>
  <path fill="#292D32" d="M9.01,8.26 C8.7,8.26 8.41,8.14 8.14,7.94 C8.39,7.54 8.57,7.09 8.66,6.6 L9,6.6 C9.41,6.6 9.75,6.26 9.75,5.85 C9.75,5.44 9.41,5.1 9,5.1 L8.01,5.1 C8,5.1 7.99,5.1 7.99,5.1 L7.97,5.1 L7.71,5.1 C7.67,4.72 7.36,4.42 6.97,4.42 C6.58,4.42 6.27,4.72 6.23,5.1 L4.94,5.1 C4.53,5.1 4.19,5.44 4.19,5.85 C4.19,6.26 4.53,6.6 4.94,6.6 L7.11,6.6 C6.81,7.56 5.95,8.26 4.93,8.26 C4.52,8.26 4.18,8.6 4.18,9.01 C4.18,9.42 4.52,9.76 4.93,9.76 C5.74,9.76 6.49,9.49 7.11,9.04 C7.66,9.5 8.32,9.76 9,9.76 C9.41,9.76 9.75,9.42 9.75,9.01 C9.75,8.6 9.42,8.26 9.01,8.26 Z"/>
  <path fill="#292D32" d="M9,22.75 C4.73,22.75 1.25,19.27 1.25,15 C1.25,14.59 1.59,14.25 2,14.25 C2.41,14.25 2.75,14.59 2.75,15 C2.75,17.96 4.81,20.44 7.58,21.09 L7.31,20.64 C7.1,20.28 7.21,19.82 7.57,19.61 C7.92,19.4 8.39,19.51 8.6,19.87 L9.65,21.62 C9.79,21.85 9.79,22.14 9.66,22.37 C9.52,22.6 9.27,22.75 9,22.75 Z"/>
  <path fill="#292D32" d="M22,9.75 C21.59,9.75 21.25,9.41 21.25,9 C21.25,6.04 19.19,3.56 16.42,2.91 L16.69,3.36 C16.9,3.72 16.79,4.18 16.43,4.39 C16.08,4.6 15.61,4.49 15.4,4.13 L14.35,2.38 C14.21,2.15 14.21,1.86 14.34,1.63 C14.47,1.39 14.72,1.25 14.99,1.25 C19.26,1.25 22.74,4.73 22.74,9 C22.75,9.41 22.41,9.75 22,9.75 Z"/>
  <path fill="#292D32" d="M19.73,18.33 L17.59,14.06 C17.46,13.81 17.2,13.64 16.92,13.64 C16.64,13.64 16.38,13.8 16.25,14.05 L14.11,18.32 C13.92,18.69 14.07,19.14 14.45,19.33 C14.56,19.38 14.67,19.41 14.78,19.41 C15.05,19.41 15.32,19.26 15.45,19 L15.62,18.66 L18.21,18.66 L18.38,19 C18.57,19.37 19.02,19.52 19.39,19.34 C19.77,19.15 19.92,18.7 19.73,18.33 Z M16.38,17.16 L16.93,16.07 L17.48,17.16 L16.38,17.16 Z"/>
</svg>

