<svg xmlns="http://www.w3.org/2000/svg" width="24" height="24" viewBox="0 0 24 24">
  <defs/>
  <path fill="#292D32" d="M8.93,2 L5.02,2 C3,2 2,3 2,5.02 L2,8.94 C2,11 3,12 5.02,11.95 L8.94,11.95 C11,12 12,11 11.95,8.93 L11.95,5.02 C12,3 11,2 8.93,2 Z M9.01,9.76 C8.33,9.76 7.67,9.5 7.12,9.04 C6.5,9.49 5.75,9.76 4.94,9.76 C4.53,9.76 4.19,9.42 4.19,9.01 C4.19,8.6 4.53,8.26 4.94,8.26 C5.96,8.26 6.81,7.56 7.12,6.6 L4.94,6.6 C4.53,6.6 4.19,6.26 4.19,5.85 C4.19,5.44 4.53,5.1 4.94,5.1 L6.23,5.1 C6.27,4.72 6.58,4.42 6.97,4.42 C7.36,4.42 7.67,4.72 7.71,5.1 L7.97,5.1 C7.98,5.1 7.99,5.1 7.99,5.1 L8.01,5.1 L9,5.1 C9.41,5.1 9.75,5.44 9.75,5.85 C9.75,6.26 9.42,6.6 9,6.6 L8.67,6.6 C8.58,7.08 8.39,7.53 8.14,7.94 C8.41,8.14 8.7,8.26 9.01,8.26 C9.42,8.26 9.76,8.6 9.76,9.01 C9.76,9.42 9.42,9.76 9.01,9.76 Z"/>
  <path fill="#292D32" d="M9,22.75 C4.73,22.75 1.25,19.27 1.25,15 C1.25,14.59 1.59,14.25 2,14.25 C2.41,14.25 2.75,14.59 2.75,15 C2.75,17.96 4.81,20.44 7.58,21.09 L7.31,20.64 C7.1,20.28 7.21,19.82 7.57,19.61 C7.92,19.4 8.39,19.51 8.6,19.87 L9.65,21.62 C9.79,21.85 9.79,22.14 9.66,22.37 C9.52,22.6 9.27,22.75 9,22.75 Z"/>
  <path fill="#292D32" d="M21.998,9.75 C21.588,9.75 21.248,9.41 21.248,9 C21.248,6.04 19.189,3.56 16.419,2.91 L16.689,3.36 C16.898,3.72 16.788,4.18 16.428,4.39 C16.078,4.6 15.608,4.49 15.399,4.13 L14.348,2.38 C14.209,2.15 14.209,1.86 14.338,1.63 C14.479,1.4 14.729,1.25 14.998,1.25 C19.268,1.25 22.748,4.73 22.748,9 C22.748,9.41 22.409,9.75 21.998,9.75 Z"/>
  <path fill="#292D32" d="M16.92,11.852 C14.12,11.852 11.84,14.122 11.84,16.932 C11.84,19.732 14.11,22.012 16.92,22.012 C19.72,22.012 22,19.742 22,16.932 C22,14.122 19.73,11.852 16.92,11.852 Z M19.4,19.342 C19.03,19.522 18.58,19.382 18.39,19.002 L18.22,18.662 L15.63,18.662 L15.46,19.002 C15.33,19.262 15.06,19.412 14.79,19.412 C14.68,19.412 14.56,19.382 14.46,19.332 C14.09,19.142 13.94,18.692 14.12,18.322 L16.26,14.052 C16.39,13.802 16.65,13.642 16.93,13.642 C17.21,13.642 17.47,13.802 17.6,14.062 L19.74,18.332 C19.92,18.702 19.77,19.152 19.4,19.342 Z"/>
  <path fill="#292D32" d="M16.379,17.16 L17.469,17.16 L16.919,16.07 L16.379,17.16 Z"/>
</svg>

