<svg xmlns="http://www.w3.org/2000/svg" width="24" height="24" viewBox="0 0 24 24">
  <defs/>
  <path fill="#292D32" d="M18.389,19.006 L16.919,16.074 L15.45,19.006 Q15.311,19.284 15.016,19.382 Q14.721,19.48 14.443,19.34 Q14.166,19.201 14.068,18.906 Q13.97,18.612 14.109,18.334 L16.249,14.064 Q16.36,13.841 16.583,13.729 Q16.861,13.59 17.156,13.688 Q17.451,13.786 17.59,14.064 L19.73,18.334 Q19.869,18.612 19.771,18.906 Q19.673,19.201 19.395,19.34 Q19.118,19.48 18.823,19.382 Q18.528,19.284 18.389,19.006 Z"/>
  <path fill="#292D32" d="M15.17,17.16 L18.69,17.16 Q19.001,17.16 19.22,17.38 Q19.44,17.599 19.44,17.91 Q19.44,18.221 19.22,18.44 Q19.001,18.66 18.69,18.66 L15.17,18.66 Q14.859,18.66 14.64,18.44 Q14.42,18.221 14.42,17.91 Q14.42,17.599 14.64,17.38 Q14.859,17.16 15.17,17.16 Z"/>
  <path fill="#292D32" d="M20.36,21.627 Q18.814,22.75 16.93,22.75 Q14.518,22.75 12.81,21.044 Q11.1,19.337 11.1,16.92 Q11.1,14.508 12.805,12.8 Q14.513,11.09 16.93,11.09 Q19.342,11.09 21.05,12.796 Q22.76,14.503 22.76,16.92 Q22.76,17.231 22.54,17.45 Q22.32,17.67 22.01,17.67 Q21.699,17.67 21.479,17.45 Q21.26,17.231 21.26,16.92 Q21.26,15.125 19.99,13.857 Q18.721,12.59 16.93,12.59 Q15.135,12.59 13.867,13.86 Q12.6,15.129 12.6,16.92 Q12.6,18.715 13.87,19.983 Q15.138,21.25 16.93,21.25 Q18.326,21.25 19.479,20.413 Q19.73,20.231 20.037,20.279 Q20.344,20.328 20.526,20.579 Q20.709,20.831 20.66,21.138 Q20.612,21.444 20.36,21.627 Z"/>
  <path fill="#292D32" d="M12.7,8.912 Q12.745,10.786 11.765,11.765 Q10.788,12.743 8.921,12.7 L5.019,12.7 Q3.196,12.743 2.22,11.765 Q1.25,10.792 1.25,8.93 L1.25,5.01 Q1.25,1.24 5.02,1.24 L8.94,1.24 Q10.803,1.24 11.775,2.212 Q12.755,3.192 12.71,5.029 Q12.702,5.339 12.477,5.553 Q12.252,5.767 11.941,5.76 Q11.631,5.752 11.417,5.527 Q11.203,5.302 11.21,4.991 Q11.24,3.798 10.715,3.273 Q10.182,2.74 8.94,2.74 L5.02,2.74 Q2.75,2.74 2.75,5.01 L2.75,8.93 Q2.75,10.172 3.282,10.705 Q3.805,11.23 4.991,11.2 Q5.001,11.2 5.01,11.2 L8.93,11.2 Q8.939,11.2 8.948,11.2 Q10.179,11.23 10.705,10.705 Q11.23,10.179 11.2,8.948 Q11.193,8.638 11.407,8.413 Q11.621,8.188 11.932,8.18 Q12.242,8.173 12.467,8.387 Q12.692,8.601 12.7,8.912 Z"/>
  <path fill="#292D32" d="M9.009,6.6 L4.949,6.6 Q4.639,6.6 4.419,6.38 Q4.199,6.161 4.199,5.85 Q4.199,5.539 4.419,5.32 Q4.639,5.1 4.949,5.1 L9.009,5.1 Q9.32,5.1 9.54,5.32 Q9.759,5.539 9.759,5.85 Q9.759,6.161 9.54,6.38 Q9.32,6.6 9.009,6.6 Z"/>
  <path fill="#292D32" d="M7.719,5.17 L7.719,5.85 Q7.719,6.161 7.499,6.38 Q7.279,6.6 6.969,6.6 Q6.658,6.6 6.438,6.38 Q6.219,6.161 6.219,5.85 L6.219,5.17 Q6.219,4.859 6.438,4.64 Q6.658,4.42 6.969,4.42 Q7.279,4.42 7.499,4.64 Q7.719,4.859 7.719,5.17 Z"/>
  <path fill="#292D32" d="M8.739,5.84 Q8.739,9.76 4.939,9.76 Q4.629,9.76 4.409,9.54 Q4.189,9.32 4.189,9.01 Q4.189,8.699 4.409,8.479 Q4.629,8.26 4.939,8.26 Q7.239,8.26 7.239,5.84 Q7.239,5.529 7.459,5.31 Q7.679,5.09 7.989,5.09 Q8.3,5.09 8.52,5.31 Q8.739,5.529 8.739,5.84 Z"/>
  <path fill="#292D32" d="M9.01,9.76 Q7.532,9.76 6.558,8.447 Q6.373,8.197 6.418,7.89 Q6.464,7.583 6.713,7.398 Q6.963,7.213 7.27,7.258 Q7.577,7.304 7.762,7.553 Q8.287,8.26 9.01,8.26 Q9.321,8.26 9.54,8.48 Q9.76,8.699 9.76,9.01 Q9.76,9.321 9.54,9.54 Q9.321,9.76 9.01,9.76 Z"/>
  <path fill="#292D32" d="M2.75,15 Q2.75,17.592 4.579,19.421 Q5.888,20.729 7.586,21.102 L7.307,20.636 Q7.147,20.369 7.222,20.068 Q7.298,19.767 7.564,19.607 Q7.831,19.447 8.132,19.522 Q8.433,19.598 8.593,19.864 L9.643,21.614 Q9.75,21.792 9.75,22 Q9.75,22.311 9.53,22.53 Q9.311,22.75 9,22.75 Q5.787,22.75 3.518,20.482 Q1.25,18.213 1.25,15 Q1.25,14.689 1.47,14.47 Q1.689,14.25 2,14.25 Q2.311,14.25 2.53,14.47 Q2.75,14.689 2.75,15 Z"/>
  <path fill="#292D32" d="M21.25,9 Q21.25,6.408 19.421,4.579 Q18.112,3.271 16.414,2.898 L16.693,3.364 Q16.853,3.631 16.778,3.932 Q16.702,4.233 16.436,4.393 Q16.169,4.553 15.868,4.478 Q15.567,4.402 15.407,4.136 L14.357,2.386 Q14.25,2.208 14.25,2 Q14.25,1.689 14.47,1.47 Q14.689,1.25 15,1.25 Q18.213,1.25 20.482,3.518 Q22.75,5.787 22.75,9 Q22.75,9.311 22.53,9.53 Q22.311,9.75 22,9.75 Q21.689,9.75 21.47,9.53 Q21.25,9.311 21.25,9 Z"/>
</svg>

