<svg xmlns="http://www.w3.org/2000/svg" width="24" height="24" viewBox="0 0 24 24">
  <defs/>
  <path fill="#292D32" d="M21,6.73 C20.98,6.73 20.95,6.73 20.92,6.73 C15.63,6.2 10.35,6 5.12,6.53 L3.08,6.73 C2.66,6.77 2.29,6.47 2.25,6.05 C2.21,5.63 2.51,5.27 2.92,5.23 L4.96,5.03 C10.28,4.49 15.67,4.7 21.07,5.23 C21.48,5.27 21.78,5.64 21.74,6.05 C21.71,6.44 21.38,6.73 21,6.73 Z"/>
  <path fill="#292D32" d="M8.501,5.72 C8.461,5.72 8.421,5.72 8.371,5.71 C7.971,5.64 7.691,5.25 7.761,4.85 L7.981,3.54 C8.141,2.58 8.361,1.25 10.691,1.25 L13.311,1.25 C15.651,1.25 15.871,2.63 16.021,3.55 L16.241,4.85 C16.311,5.26 16.031,5.65 15.631,5.71 C15.221,5.78 14.831,5.5 14.771,5.1 L14.551,3.8 C14.411,2.93 14.381,2.76 13.321,2.76 L10.701,2.76 C9.641,2.76 9.621,2.9 9.471,3.79 L9.241,5.09 C9.181,5.46 8.861,5.72 8.501,5.72 Z"/>
  <path fill="#292D32" d="M15.21,22.75 L8.79,22.75 C5.3,22.75 5.16,20.82 5.05,19.26 L4.4,9.19 C4.37,8.78 4.69,8.42 5.1,8.39 C5.52,8.37 5.87,8.68 5.9,9.09 L6.55,19.16 C6.66,20.68 6.7,21.25 8.79,21.25 L15.21,21.25 C17.31,21.25 17.35,20.68 17.45,19.16 L18.1,9.09 C18.13,8.68 18.49,8.37 18.9,8.39 C19.31,8.42 19.63,8.77 19.6,9.19 L18.95,19.26 C18.84,20.82 18.7,22.75 15.21,22.75 Z"/>
  <path fill="#292D32" d="M13.66,17.25 L10.33,17.25 C9.92,17.25 9.58,16.91 9.58,16.5 C9.58,16.09 9.92,15.75 10.33,15.75 L13.66,15.75 C14.07,15.75 14.41,16.09 14.41,16.5 C14.41,16.91 14.07,17.25 13.66,17.25 Z"/>
  <path fill="#292D32" d="M14.5,13.25 L9.5,13.25 C9.09,13.25 8.75,12.91 8.75,12.5 C8.75,12.09 9.09,11.75 9.5,11.75 L14.5,11.75 C14.91,11.75 15.25,12.09 15.25,12.5 C15.25,12.91 14.91,13.25 14.5,13.25 Z"/>
</svg>

