<svg xmlns="http://www.w3.org/2000/svg" width="24" height="24" viewBox="0 0 24 24">
  <defs/>
  <path fill="#292D32" d="M20.926,6.726 Q15.917,6.23 10.98,6.23 Q8.048,6.23 5.115,6.526 L3.073,6.726 Q2.764,6.757 2.524,6.56 Q2.284,6.362 2.254,6.053 Q2.223,5.744 2.42,5.504 Q2.618,5.264 2.927,5.234 L4.965,5.034 Q7.972,4.73 10.98,4.73 Q15.992,4.73 21.074,5.234 Q21.383,5.264 21.58,5.505 Q21.777,5.745 21.746,6.054 Q21.716,6.363 21.475,6.56 Q21.235,6.757 20.926,6.726 Z"/>
  <path fill="#292D32" d="M7.76,4.846 L7.98,3.536 Q8.365,1.25 10.69,1.25 L13.31,1.25 Q15.645,1.25 16.02,3.549 L16.239,4.845 Q16.291,5.151 16.111,5.404 Q15.931,5.658 15.625,5.709 Q15.319,5.761 15.066,5.581 Q14.812,5.401 14.761,5.095 L14.54,3.791 Q14.37,2.75 13.31,2.75 L10.69,2.75 Q9.634,2.75 9.46,3.784 L9.24,5.094 Q9.188,5.401 8.935,5.581 Q8.682,5.761 8.376,5.71 Q8.069,5.658 7.889,5.405 Q7.709,5.152 7.76,4.846 Z"/>
  <path fill="#292D32" d="M19.598,9.188 L18.948,19.258 Q18.704,22.75 15.21,22.75 L8.79,22.75 Q5.296,22.75 5.052,19.262 L4.402,9.188 Q4.382,8.878 4.587,8.645 Q4.792,8.412 5.102,8.392 Q5.412,8.372 5.645,8.577 Q5.878,8.782 5.898,9.092 L6.548,19.158 Q6.636,20.413 6.885,20.737 Q7.279,21.25 8.79,21.25 L15.21,21.25 Q16.721,21.25 17.115,20.737 Q17.364,20.413 17.452,19.162 L18.102,9.092 Q18.122,8.782 18.355,8.577 Q18.588,8.372 18.898,8.392 Q19.208,8.412 19.413,8.645 Q19.618,8.878 19.598,9.188 Z"/>
  <path fill="#292D32" d="M10.33,15.75 L13.66,15.75 Q13.971,15.75 14.19,15.97 Q14.41,16.189 14.41,16.5 Q14.41,16.811 14.19,17.03 Q13.971,17.25 13.66,17.25 L10.33,17.25 Q10.019,17.25 9.8,17.03 Q9.58,16.811 9.58,16.5 Q9.58,16.189 9.8,15.97 Q10.019,15.75 10.33,15.75 Z"/>
  <path fill="#292D32" d="M9.5,11.75 L14.5,11.75 Q14.811,11.75 15.03,11.97 Q15.25,12.189 15.25,12.5 Q15.25,12.811 15.03,13.03 Q14.811,13.25 14.5,13.25 L9.5,13.25 Q9.189,13.25 8.97,13.03 Q8.75,12.811 8.75,12.5 Q8.75,12.189 8.97,11.97 Q9.189,11.75 9.5,11.75 Z"/>
</svg>

