<svg xmlns="http://www.w3.org/2000/svg" width="24" height="24" viewBox="0 0 24 24">
  <defs/>
  <path fill="#292D32" d="M21.07,5.23 C19.46,5.07 17.85,4.95 16.23,4.86 L16.23,4.85 L16.01,3.55 C15.86,2.63 15.64,1.25 13.3,1.25 L10.68,1.25 C8.35,1.25 8.13,2.57 7.97,3.54 L7.76,4.82 C6.83,4.88 5.9,4.94 4.97,5.03 L2.93,5.23 C2.51,5.27 2.21,5.64 2.25,6.05 C2.29,6.46 2.65,6.76 3.07,6.72 L5.11,6.52 C10.35,6 15.63,6.2 20.93,6.73 C20.96,6.73 20.98,6.73 21.01,6.73 C21.39,6.73 21.72,6.44 21.76,6.05 C21.79,5.64 21.49,5.27 21.07,5.23 Z"/>
  <path fill="#292D32" d="M19.23,8.14 C18.99,7.89 18.66,7.75 18.32,7.75 L5.68,7.75 C5.34,7.75 5,7.89 4.77,8.14 C4.54,8.39 4.41,8.73 4.43,9.08 L5.05,19.34 C5.16,20.86 5.3,22.76 8.79,22.76 L15.21,22.76 C18.7,22.76 18.84,20.87 18.95,19.34 L19.57,9.09 C19.59,8.73 19.46,8.39 19.23,8.14 Z M13.66,17.75 L10.33,17.75 C9.92,17.75 9.58,17.41 9.58,17 C9.58,16.59 9.92,16.25 10.33,16.25 L13.66,16.25 C14.07,16.25 14.41,16.59 14.41,17 C14.41,17.41 14.07,17.75 13.66,17.75 Z M14.5,13.75 L9.5,13.75 C9.09,13.75 8.75,13.41 8.75,13 C8.75,12.59 9.09,12.25 9.5,12.25 L14.5,12.25 C14.91,12.25 15.25,12.59 15.25,13 C15.25,13.41 14.91,13.75 14.5,13.75 Z"/>
</svg>

