<svg xmlns="http://www.w3.org/2000/svg" width="24" height="24" viewBox="0 0 24 24">
  <defs/>
  <path fill="#292D32" d="M16.17,10.81 L7.83,10.81 C6.97,10.81 6.31,10.47 6.01,9.89 C5.71,9.3 5.83,8.57 6.33,7.88 L10.5,2.04 C11.24,0.98 12.77,0.98 13.52,2.05 L17.69,7.88 C18.19,8.57 18.31,9.3 18.01,9.89 C17.69,10.47 17.03,10.81 16.17,10.81 Z M12,2.7 C11.91,2.7 11.81,2.78 11.72,2.9 L7.55,8.75 C7.35,9.02 7.34,9.18 7.35,9.21 C7.36,9.23 7.5,9.31 7.84,9.31 L16.18,9.31 C16.51,9.31 16.65,9.22 16.67,9.2 C16.67,9.18 16.66,9.02 16.47,8.75 L12.3,2.91 C12.19,2.77 12.09,2.7 12,2.7 Z"/>
  <path fill="#292D32" d="M17.59,18.75 L6.42,18.75 C4.99,18.75 4.42,18.06 4.21,17.65 C4,17.24 3.78,16.38 4.62,15.22 L8.61,9.62 C8.75,9.42 8.98,9.31 9.22,9.31 L14.79,9.31 C15.03,9.31 15.26,9.43 15.4,9.62 L19.39,15.23 C20.23,16.38 20,17.24 19.79,17.65 C19.58,18.06 19.02,18.75 17.59,18.75 Z M9.6,10.81 L5.83,16.1 C5.51,16.54 5.48,16.84 5.54,16.97 C5.61,17.1 5.87,17.25 6.41,17.25 L17.58,17.25 C18.12,17.25 18.39,17.1 18.45,16.97 C18.52,16.84 18.48,16.54 18.16,16.1 L14.39,10.8 L9.6,10.8 L9.6,10.81 Z"/>
  <path fill="#292D32" d="M12,22.75 C11.59,22.75 11.25,22.41 11.25,22 L11.25,18 C11.25,17.59 11.59,17.25 12,17.25 C12.41,17.25 12.75,17.59 12.75,18 L12.75,22 C12.75,22.41 12.41,22.75 12,22.75 Z"/>
</svg>

