<svg xmlns="http://www.w3.org/2000/svg" width="24" height="24" viewBox="0 0 24 24">
  <defs/>
  <path fill="#292D32" d="M16.169,10.81 L7.829,10.81 Q6.487,10.81 6.012,9.889 Q5.535,8.965 6.32,7.872 L10.489,2.034 Q11.076,1.195 11.998,1.195 Q12.925,1.195 13.508,2.046 L17.67,7.874 Q18.461,8.96 17.987,9.886 Q17.515,10.81 16.169,10.81 Z M16.169,9.31 Q16.597,9.31 16.652,9.203 Q16.706,9.098 16.449,8.746 L12.271,2.894 Q12.134,2.695 11.998,2.695 Q11.857,2.695 11.71,2.906 L7.538,8.748 Q7.289,9.094 7.345,9.201 Q7.401,9.31 7.829,9.31 Z"/>
  <path fill="#292D32" d="M17.589,18.75 L6.419,18.75 Q4.775,18.75 4.215,17.657 Q3.655,16.561 4.623,15.229 L8.608,9.625 Q8.832,9.31 9.219,9.31 L14.789,9.31 Q15.176,9.31 15.401,9.625 L19.391,15.235 Q20.354,16.561 19.793,17.657 Q19.234,18.75 17.589,18.75 Z M17.589,17.25 Q18.316,17.25 18.458,16.973 Q18.599,16.698 18.168,16.105 L14.402,10.81 L9.606,10.81 L5.836,16.111 Q5.41,16.698 5.551,16.973 Q5.692,17.25 6.419,17.25 Z"/>
  <path fill="#292D32" opacity="0.4" d="M11.25,22 L11.25,18 Q11.25,17.689 11.47,17.47 Q11.689,17.25 12,17.25 Q12.311,17.25 12.53,17.47 Q12.75,17.689 12.75,18 L12.75,22 Q12.75,22.311 12.53,22.53 Q12.311,22.75 12,22.75 Q11.689,22.75 11.47,22.53 Q11.25,22.311 11.25,22 Z"/>
</svg>

