<svg xmlns="http://www.w3.org/2000/svg" width="24" height="24" viewBox="0 0 24 24">
  <defs/>
  <path fill="#292D32" opacity="0.4" d="M16.169,10.06 L7.829,10.06 C6.649,10.06 6.239,9.27 6.929,8.31 L11.099,2.47 C11.589,1.77 12.409,1.77 12.899,2.47 L17.069,8.31 C17.759,9.27 17.349,10.06 16.169,10.06 Z"/>
  <path fill="#292D32" d="M17.59,18 L6.41,18 C4.83,18 4.29,16.95 5.22,15.67 L9.21,10.06 L14.79,10.06 L18.78,15.67 C19.71,16.95 19.17,18 17.59,18 Z"/>
  <path fill="#292D32" d="M12.75,18 L12.75,22 C12.75,22.41 12.41,22.75 12,22.75 C11.59,22.75 11.25,22.41 11.25,22 L11.25,18 L12.75,18 Z"/>
</svg>

