<svg xmlns="http://www.w3.org/2000/svg" width="24" height="24" viewBox="0 0 24 24">
  <defs/>
  <path d="M9.551,18.47 L7.101,18.47 Q6.288,18.47 5.709,17.892 Q5.131,17.313 5.131,16.5 L5.131,7.52 Q5.131,6.707 5.709,6.128 Q6.288,5.55 7.101,5.55 L9.551,5.55 Q10.364,5.55 10.942,6.128 Q11.521,6.707 11.521,7.52 L11.521,16.5 Q11.521,17.313 10.942,17.892 Q10.364,18.47 9.551,18.47 Z M9.551,16.97 Q10.021,16.97 10.021,16.5 L10.021,7.52 Q10.021,7.05 9.551,7.05 L7.101,7.05 Q6.631,7.05 6.631,7.52 L6.631,16.5 Q6.631,16.97 7.101,16.97 Z"/>
  <path d="M17.141,14.38 L14.201,14.38 Q13.485,14.38 12.978,13.873 Q12.471,13.366 12.471,12.65 L12.471,7.26 Q12.471,5.53 14.201,5.53 L17.141,5.53 Q17.856,5.53 18.364,6.037 Q18.871,6.544 18.871,7.26 L18.871,12.65 Q18.871,13.366 18.364,13.873 Q17.856,14.38 17.141,14.38 Z M17.141,12.88 Q17.235,12.88 17.303,12.812 Q17.371,12.744 17.371,12.65 L17.371,7.26 Q17.371,7.03 17.141,7.03 L14.201,7.03 Q14.106,7.03 14.039,7.098 Q13.971,7.166 13.971,7.26 L13.971,12.65 Q13.971,12.88 14.201,12.88 Z"/>
  <path d="M2.75,12.83 L2.75,15 Q2.75,18.439 4.155,19.845 Q5.561,21.25 9,21.25 L15,21.25 Q18.439,21.25 19.845,19.845 Q21.25,18.439 21.25,15 L21.25,9 Q21.25,2.75 15,2.75 L9,2.75 Q2.75,2.75 2.75,9 Q2.75,9.311 2.53,9.53 Q2.311,9.75 2,9.75 Q1.689,9.75 1.47,9.53 Q1.25,9.311 1.25,9 Q1.25,1.25 9,1.25 L15,1.25 Q22.75,1.25 22.75,9 L22.75,15 Q22.75,22.75 15,22.75 L9,22.75 Q1.25,22.75 1.25,15 L1.25,12.83 Q1.25,12.519 1.47,12.3 Q1.689,12.08 2,12.08 Q2.311,12.08 2.53,12.3 Q2.75,12.519 2.75,12.83 Z"/>
</svg>

