<svg xmlns="http://www.w3.org/2000/svg" width="24" height="24" viewBox="0 0 24 24">
  <defs/>
  <path d="M15,22.75 L9,22.75 Q1.25,22.75 1.25,15 L1.25,9 Q1.25,1.25 9,1.25 L15,1.25 Q22.75,1.25 22.75,9 L22.75,15 Q22.75,22.75 15,22.75 Z M15,21.25 Q18.439,21.25 19.845,19.845 Q21.25,18.439 21.25,15 L21.25,9 Q21.25,5.561 19.845,4.155 Q18.439,2.75 15,2.75 L9,2.75 Q2.75,2.75 2.75,9 L2.75,15 Q2.75,21.25 9,21.25 Z"/>
  <path opacity="0.4" d="M9.55,18.47 L7.1,18.47 Q6.287,18.47 5.708,17.891 Q5.13,17.313 5.13,16.5 L5.13,7.52 Q5.13,5.55 7.1,5.55 L9.55,5.55 Q11.52,5.55 11.52,7.52 L11.52,16.5 Q11.52,17.313 10.941,17.891 Q10.363,18.47 9.55,18.47 Z M9.55,16.97 Q10.02,16.97 10.02,16.5 L10.02,7.52 Q10.02,7.05 9.55,7.05 L7.1,7.05 Q6.63,7.05 6.63,7.52 L6.63,16.5 Q6.63,16.97 7.1,16.97 Z"/>
  <path opacity="0.4" d="M17.14,14.38 L14.2,14.38 Q13.484,14.38 12.977,13.873 Q12.47,13.365 12.47,12.65 L12.47,7.26 Q12.47,5.53 14.2,5.53 L17.14,5.53 Q18.87,5.53 18.87,7.26 L18.87,12.65 Q18.87,14.38 17.14,14.38 Z M17.14,12.88 Q17.234,12.88 17.302,12.812 Q17.37,12.744 17.37,12.65 L17.37,7.26 Q17.37,7.03 17.14,7.03 L14.2,7.03 Q14.105,7.03 14.038,7.098 Q13.97,7.165 13.97,7.26 L13.97,12.65 Q13.97,12.744 14.038,12.812 Q14.105,12.88 14.2,12.88 Z"/>
</svg>

