<svg xmlns="http://www.w3.org/2000/svg" width="24" height="24" viewBox="0 0 24 24">
  <defs/>
  <path fill="white" opacity="0.58" d="M24,0 L0,0 L0,24 L24,24 L24,0 Z"/>
  <path fill="#292D32" opacity="0.4" d="M16.19,2 L7.82,2 C4.18,2 2.01,4.17 2.01,7.81 L2.01,16.18 C2.01,19.82 4.18,21.99 7.82,21.99 L16.19,21.99 C19.83,21.99 22,19.82 22,16.18 L22,7.81 C22,4.17 19.83,2 16.19,2 Z"/>
  <path fill="#292D32" d="M9.55,17.72 L7.1,17.72 C6.43,17.72 5.88,17.17 5.88,16.5 L5.88,7.52 C5.88,6.85 6.43,6.3 7.1,6.3 L9.55,6.3 C10.22,6.3 10.77,6.85 10.77,7.52 L10.77,16.5 C10.77,17.17 10.22,17.72 9.55,17.72 Z"/>
  <path fill="#292D32" d="M17.14,13.63 L14.2,13.63 C13.66,13.63 13.22,13.19 13.22,12.65 L13.22,7.26 C13.22,6.72 13.66,6.28 14.2,6.28 L17.14,6.28 C17.68,6.28 18.12,6.72 18.12,7.26 L18.12,12.65 C18.12,13.19 17.68,13.63 17.14,13.63 Z"/>
</svg>

