<svg xmlns="http://www.w3.org/2000/svg" width="24" height="24" viewBox="0 0 24 24">
  <defs/>
  <path d="M15,22.75 L9,22.75 Q1.25,22.75 1.25,15 L1.25,9 Q1.25,1.25 9,1.25 L15,1.25 Q22.75,1.25 22.75,9 L22.75,15 Q22.75,22.75 15,22.75 Z M15,21.25 Q18.439,21.25 19.845,19.845 Q21.25,18.439 21.25,15 L21.25,9 Q21.25,5.561 19.845,4.155 Q18.439,2.75 15,2.75 L9,2.75 Q2.75,2.75 2.75,9 L2.75,15 Q2.75,21.25 9,21.25 Z"/>
  <path d="M9.55,18.47 L7.1,18.47 Q5.13,18.47 5.13,16.5 L5.13,7.51 Q5.13,5.54 7.1,5.54 L9.55,5.54 Q11.52,5.54 11.52,7.51 L11.52,16.49 Q11.52,18.47 9.55,18.47 Z M9.55,16.97 Q10.02,16.97 10.02,16.49 L10.02,7.51 Q10.02,7.04 9.55,7.04 L7.1,7.04 Q6.63,7.04 6.63,7.51 L6.63,16.5 Q6.63,16.97 7.1,16.97 Z"/>
  <path d="M17.14,14.38 L14.2,14.38 Q12.47,14.38 12.47,12.65 L12.47,7.27 Q12.47,5.54 14.2,5.54 L17.14,5.54 Q18.87,5.54 18.87,7.27 L18.87,12.66 Q18.883,13.364 18.363,13.878 Q17.853,14.38 17.14,14.38 Z M17.14,12.88 Q17.238,12.88 17.309,12.81 Q17.371,12.749 17.37,12.66 L17.37,7.27 Q17.37,7.04 17.14,7.04 L14.2,7.04 Q13.97,7.04 13.97,7.27 L13.97,12.65 Q13.97,12.88 14.2,12.88 Z"/>
</svg>

