<svg xmlns="http://www.w3.org/2000/svg" width="24" height="24" viewBox="0 0 24 24">
  <defs/>
  <path d="M15,22.75 L9,22.75 C3.57,22.75 1.25,20.43 1.25,15 L1.25,9 C1.25,3.57 3.57,1.25 9,1.25 L15,1.25 C20.43,1.25 22.75,3.57 22.75,9 L22.75,15 C22.75,20.43 20.43,22.75 15,22.75 Z M9,2.75 C4.39,2.75 2.75,4.39 2.75,9 L2.75,15 C2.75,19.61 4.39,21.25 9,21.25 L15,21.25 C19.61,21.25 21.25,19.61 21.25,15 L21.25,9 C21.25,4.39 19.61,2.75 15,2.75 L9,2.75 Z"/>
  <path d="M9.55,18.47 L7.1,18.47 C6.01,18.47 5.13,17.58 5.13,16.49 L5.13,7.51 C5.13,6.42 6.02,5.53 7.1,5.53 L9.55,5.53 C10.64,5.53 11.53,6.42 11.53,7.51 L11.53,16.49 C11.53,17.58 10.64,18.47 9.55,18.47 Z M7.1,7.03 C6.84,7.03 6.63,7.25 6.63,7.51 L6.63,16.49 C6.63,16.75 6.85,16.97 7.1,16.97 L9.55,16.97 C9.81,16.97 10.03,16.75 10.03,16.49 L10.03,7.51 C10.03,7.25 9.81,7.03 9.55,7.03 L7.1,7.03 Z"/>
  <path d="M17.14,14.38 L14.2,14.38 C13.24,14.38 12.47,13.6 12.47,12.65 L12.47,7.26 C12.47,6.3 13.25,5.53 14.2,5.53 L17.14,5.53 C18.1,5.53 18.87,6.31 18.87,7.26 L18.87,12.65 C18.88,13.61 18.1,14.38 17.14,14.38 Z M14.21,7.03 C14.08,7.03 13.98,7.14 13.98,7.26 L13.98,12.65 C13.98,12.78 14.09,12.88 14.21,12.88 L17.15,12.88 C17.28,12.88 17.38,12.77 17.38,12.65 L17.38,7.26 C17.38,7.13 17.27,7.03 17.15,7.03 L14.21,7.03 Z"/>
</svg>

