<svg xmlns="http://www.w3.org/2000/svg" width="24" height="24" viewBox="0 0 24 24">
  <defs/>
  <path fill="#292D32" d="M15.97,15.03 L12.417,11.477 L11.324,13.116 Q11.152,13.375 10.847,13.435 Q10.542,13.496 10.284,13.324 Q10.222,13.283 10.17,13.23 L6.97,10.03 Q6.75,9.811 6.75,9.5 Q6.75,9.189 6.97,8.97 Q7.189,8.75 7.5,8.75 Q7.811,8.75 8.03,8.97 L10.583,11.523 L11.676,9.884 Q11.717,9.822 11.77,9.77 Q11.989,9.55 12.3,9.55 Q12.611,9.55 12.83,9.77 L17.03,13.97 Q17.25,14.189 17.25,14.5 Q17.25,14.811 17.03,15.03 Q16.811,15.25 16.5,15.25 Q16.189,15.25 15.97,15.03 Z"/>
  <path fill="#292D32" d="M14.5,13.75 L15.75,13.75 L15.75,12.5 Q15.75,12.189 15.97,11.97 Q16.189,11.75 16.5,11.75 Q16.811,11.75 17.03,11.97 Q17.25,12.189 17.25,12.5 L17.25,14.5 Q17.25,14.811 17.03,15.03 Q16.811,15.25 16.5,15.25 L14.5,15.25 Q14.189,15.25 13.97,15.03 Q13.75,14.811 13.75,14.5 Q13.75,14.189 13.97,13.97 Q14.189,13.75 14.5,13.75 Z"/>
  <path fill="#292D32" d="M9,22.75 Q1.25,22.75 1.25,15 L1.25,9 Q1.25,1.25 9,1.25 L15,1.25 Q22.75,1.25 22.75,9 L22.75,15 Q22.75,22.75 15,22.75 Z M9,21.25 L15,21.25 Q18.439,21.25 19.845,19.845 Q21.25,18.439 21.25,15 L21.25,9 Q21.25,2.75 15,2.75 L9,2.75 Q2.75,2.75 2.75,9 L2.75,15 Q2.75,18.439 4.155,19.845 Q5.561,21.25 9,21.25 Z"/>
</svg>

