<svg xmlns="http://www.w3.org/2000/svg" width="24" height="24" viewBox="0 0 24 24">
  <defs/>
  <path fill="#292D32" opacity="0.4" d="M16.19,2 L7.81,2 C4.17,2 2,4.17 2,7.81 L2,16.18 C2,19.83 4.17,22 7.81,22 L16.18,22 C19.82,22 21.99,19.83 21.99,16.19 L21.99,7.81 C22,4.17 19.83,2 16.19,2 Z"/>
  <path fill="#292D32" d="M16.88,12.47 C16.88,12.08 16.57,11.77 16.18,11.77 C15.79,11.77 15.48,12.08 15.48,12.47 L15.48,12.65 L12.76,9.93 C12.61,9.78 12.41,9.71 12.2,9.73 C11.99,9.75 11.8,9.86 11.69,10.04 L10.67,11.56 L8.31,9.18 C8.04,8.91 7.6,8.91 7.32,9.18 C7.05,9.45 7.05,9.89 7.32,10.17 L10.3,13.15 C10.45,13.3 10.65,13.37 10.86,13.35 C11.07,13.33 11.26,13.22 11.37,13.04 L12.39,11.52 L14.5,13.63 L14.32,13.63 C13.93,13.63 13.62,13.94 13.62,14.33 C13.62,14.72 13.93,15.03 14.32,15.03 L16.18,15.03 C16.27,15.03 16.36,15.01 16.45,14.98 C16.62,14.91 16.76,14.77 16.83,14.6 C16.87,14.51 16.88,14.42 16.88,14.33 L16.88,12.47 Z"/>
</svg>

