<svg xmlns="http://www.w3.org/2000/svg" width="24" height="24" viewBox="0 0 24 24">
  <defs/>
  <g opacity="0.4">
    <path fill="#292D32" d="M17.03,10.03 L12.83,14.23 Q12.611,14.45 12.3,14.45 Q11.989,14.45 11.77,14.23 Q11.717,14.178 11.676,14.116 L10.583,12.477 L8.03,15.03 Q7.811,15.25 7.5,15.25 Q7.189,15.25 6.97,15.03 Q6.75,14.811 6.75,14.5 Q6.75,14.189 6.97,13.97 L10.17,10.77 Q10.222,10.717 10.284,10.676 Q10.542,10.504 10.847,10.565 Q11.152,10.625 11.324,10.884 L12.417,12.523 L15.97,8.97 Q16.189,8.75 16.5,8.75 Q16.811,8.75 17.03,8.97 Q17.25,9.189 17.25,9.5 Q17.25,9.811 17.03,10.03 Z"/>
    <path fill="#292D32" d="M14.5,8.75 L16.5,8.75 Q16.811,8.75 17.03,8.97 Q17.25,9.189 17.25,9.5 L17.25,11.5 Q17.25,11.811 17.03,12.03 Q16.811,12.25 16.5,12.25 Q16.189,12.25 15.97,12.03 Q15.75,11.811 15.75,11.5 L15.75,10.25 L14.5,10.25 Q14.189,10.25 13.97,10.03 Q13.75,9.811 13.75,9.5 Q13.75,9.189 13.97,8.97 Q14.189,8.75 14.5,8.75 Z"/>
  </g>
  <path fill="#292D32" d="M9,22.75 Q1.25,22.75 1.25,15 L1.25,9 Q1.25,1.25 9,1.25 L15,1.25 Q22.75,1.25 22.75,9 L22.75,15 Q22.75,22.75 15,22.75 Z M9,21.25 L15,21.25 Q18.439,21.25 19.845,19.845 Q21.25,18.439 21.25,15 L21.25,9 Q21.25,2.75 15,2.75 L9,2.75 Q2.75,2.75 2.75,9 L2.75,15 Q2.75,18.439 4.155,19.845 Q5.561,21.25 9,21.25 Z"/>
</svg>

