<svg xmlns="http://www.w3.org/2000/svg" width="24" height="24" viewBox="0 0 24 24">
  <defs/>
  <path fill="#292D32" opacity="0.4" d="M16.19,2 L7.81,2 C4.17,2 2,4.17 2,7.81 L2,16.18 C2,19.83 4.17,22 7.81,22 L16.18,22 C19.82,22 21.99,19.83 21.99,16.19 L21.99,7.81 C22,4.17 19.83,2 16.19,2 Z"/>
  <path fill="#292D32" d="M16.829,9.41 C16.759,9.24 16.619,9.1 16.45,9.03 C16.369,9 16.279,8.98 16.189,8.98 L14.329,8.98 C13.94,8.98 13.63,9.29 13.63,9.68 C13.63,10.07 13.94,10.38 14.329,10.38 L14.509,10.38 L12.399,12.49 L11.38,10.97 C11.259,10.8 11.079,10.68 10.87,10.66 C10.649,10.64 10.46,10.71 10.309,10.86 L7.329,13.84 C7.059,14.11 7.059,14.55 7.329,14.83 C7.469,14.97 7.639,15.03 7.819,15.03 C7.999,15.03 8.179,14.96 8.309,14.83 L10.69,12.45 L11.71,13.97 C11.829,14.14 12.009,14.26 12.22,14.28 C12.44,14.3 12.63,14.23 12.78,14.08 L15.499,11.36 L15.499,11.54 C15.499,11.93 15.809,12.24 16.2,12.24 C16.59,12.24 16.899,11.93 16.899,11.54 L16.899,9.67 C16.88,9.58 16.869,9.49 16.829,9.41 Z"/>
</svg>

