<svg xmlns="http://www.w3.org/2000/svg" width="24" height="24" viewBox="0 0 24 24">
  <defs/>
  <path fill="#292D32" d="M2.75,12.98 L2.75,15 Q2.75,18.439 4.155,19.845 Q5.561,21.25 9,21.25 L15,21.25 Q18.439,21.25 19.845,19.845 Q21.25,18.439 21.25,15 L21.25,9 Q21.25,2.75 15,2.75 L9,2.75 Q2.75,2.75 2.75,9 Q2.75,9.311 2.53,9.53 Q2.311,9.75 2,9.75 Q1.689,9.75 1.47,9.53 Q1.25,9.311 1.25,9 Q1.25,1.25 9,1.25 L15,1.25 Q22.75,1.25 22.75,9 L22.75,15 Q22.75,22.75 15,22.75 L9,22.75 Q1.25,22.75 1.25,15 L1.25,12.98 Q1.25,12.669 1.47,12.45 Q1.689,12.23 2,12.23 Q2.311,12.23 2.53,12.45 Q2.75,12.669 2.75,12.98 Z"/>
  <path fill="#292D32" d="M10.588,12.473 L8.03,15.03 Q7.811,15.25 7.5,15.25 Q7.189,15.25 6.97,15.03 Q6.75,14.811 6.75,14.5 Q6.75,14.189 6.97,13.97 L10.17,10.77 Q10.221,10.718 10.282,10.677 Q10.54,10.504 10.845,10.564 Q11.149,10.624 11.323,10.882 L11.793,11.582 Q11.966,11.84 11.906,12.145 Q11.846,12.449 11.588,12.623 Q11.33,12.796 11.025,12.736 Q10.754,12.683 10.588,12.473 Z"/>
  <path fill="#292D32" d="M17.03,10.03 L14.53,12.53 Q14.311,12.75 14,12.75 Q13.689,12.75 13.47,12.53 Q13.25,12.311 13.25,12 Q13.25,11.689 13.47,11.47 L15.97,8.97 Q16.189,8.75 16.5,8.75 Q16.811,8.75 17.03,8.97 Q17.25,9.189 17.25,9.5 Q17.25,9.811 17.03,10.03 Z"/>
  <path fill="#292D32" d="M14.5,8.75 L16.5,8.75 Q16.811,8.75 17.03,8.97 Q17.25,9.189 17.25,9.5 L17.25,11.5 Q17.25,11.811 17.03,12.03 Q16.811,12.25 16.5,12.25 Q16.189,12.25 15.97,12.03 Q15.75,11.811 15.75,11.5 L15.75,10.25 L14.5,10.25 Q14.189,10.25 13.97,10.03 Q13.75,9.811 13.75,9.5 Q13.75,9.189 13.97,8.97 Q14.189,8.75 14.5,8.75 Z"/>
</svg>

