<svg xmlns="http://www.w3.org/2000/svg" width="24" height="24" viewBox="0 0 24 24">
  <defs/>
  <path fill="#292D32" d="M16.19,2 L7.81,2 C4.17,2 2,4.17 2,7.81 L2,16.18 C2,19.83 4.17,22 7.81,22 L16.18,22 C19.82,22 21.99,19.83 21.99,16.19 L21.99,7.81 C22,4.17 19.83,2 16.19,2 Z M16.88,14.33 C16.88,14.42 16.86,14.51 16.83,14.6 C16.76,14.77 16.62,14.91 16.45,14.98 C16.36,15.02 16.27,15.03 16.18,15.03 L14.32,15.03 C13.93,15.03 13.62,14.72 13.62,14.33 C13.62,13.94 13.93,13.63 14.32,13.63 L14.5,13.63 L12.39,11.52 L11.37,13.04 C11.25,13.21 11.07,13.33 10.86,13.35 C10.65,13.37 10.45,13.3 10.3,13.15 L7.32,10.17 C7.05,9.9 7.05,9.46 7.32,9.18 C7.59,8.9 8.03,8.91 8.31,9.18 L10.69,11.56 L11.71,10.04 C11.83,9.87 12.01,9.75 12.22,9.73 C12.44,9.71 12.63,9.78 12.78,9.93 L15.5,12.65 L15.5,12.47 C15.5,12.08 15.81,11.77 16.2,11.77 C16.59,11.77 16.9,12.08 16.9,12.47 L16.9,14.33 L16.88,14.33 Z"/>
</svg>

