<svg xmlns="http://www.w3.org/2000/svg" width="24" height="24" viewBox="0 0 24 24">
  <defs/>
  <path fill="#292D32" d="M16.19,2 L7.81,2 C4.17,2 2,4.17 2,7.81 L2,16.18 C2,19.83 4.17,22 7.81,22 L16.18,22 C19.82,22 21.99,19.83 21.99,16.19 L21.99,7.81 C22,4.17 19.83,2 16.19,2 Z M16.88,11.53 C16.88,11.92 16.57,12.23 16.18,12.23 C15.79,12.23 15.48,11.92 15.48,11.53 L15.48,11.35 L12.76,14.07 C12.61,14.22 12.41,14.29 12.2,14.27 C11.99,14.25 11.8,14.14 11.69,13.96 L10.67,12.44 L8.29,14.82 C8.15,14.96 7.98,15.02 7.8,15.02 C7.62,15.02 7.44,14.95 7.31,14.82 C7.04,14.55 7.04,14.11 7.31,13.83 L10.29,10.85 C10.44,10.7 10.64,10.63 10.85,10.65 C11.06,10.67 11.25,10.78 11.36,10.96 L12.38,12.48 L14.49,10.37 L14.31,10.37 C13.92,10.37 13.61,10.06 13.61,9.67 C13.61,9.28 13.92,8.97 14.31,8.97 L16.17,8.97 C16.26,8.97 16.35,8.99 16.44,9.02 C16.61,9.09 16.75,9.23 16.82,9.4 C16.86,9.49 16.87,9.58 16.87,9.67 L16.87,11.53 L16.88,11.53 Z"/>
</svg>

