<svg xmlns="http://www.w3.org/2000/svg" width="24" height="24" viewBox="0 0 24 24">
  <defs/>
  <path fill="#292D32" d="M7.5,15.25 C7.31,15.25 7.12,15.18 6.97,15.03 C6.68,14.74 6.68,14.26 6.97,13.97 L10.17,10.77 C10.33,10.61 10.54,10.53 10.77,10.55 C10.99,10.57 11.19,10.69 11.32,10.88 L12.41,12.52 L15.96,8.97 C16.25,8.68 16.73,8.68 17.02,8.97 C17.31,9.26 17.31,9.74 17.02,10.03 L12.82,14.23 C12.66,14.39 12.45,14.47 12.22,14.45 C12,14.43 11.8,14.31 11.67,14.12 L10.58,12.48 L8.03,15.03 C7.88,15.18 7.69,15.25 7.5,15.25 Z"/>
  <path fill="#292D32" d="M16.5,12.25 C16.09,12.25 15.75,11.91 15.75,11.5 L15.75,10.25 L14.5,10.25 C14.09,10.25 13.75,9.91 13.75,9.5 C13.75,9.09 14.09,8.75 14.5,8.75 L16.5,8.75 C16.91,8.75 17.25,9.09 17.25,9.5 L17.25,11.5 C17.25,11.91 16.91,12.25 16.5,12.25 Z"/>
  <path fill="#292D32" d="M15,22.75 L9,22.75 C3.57,22.75 1.25,20.43 1.25,15 L1.25,9 C1.25,3.57 3.57,1.25 9,1.25 L15,1.25 C20.43,1.25 22.75,3.57 22.75,9 L22.75,15 C22.75,20.43 20.43,22.75 15,22.75 Z M9,2.75 C4.39,2.75 2.75,4.39 2.75,9 L2.75,15 C2.75,19.61 4.39,21.25 9,21.25 L15,21.25 C19.61,21.25 21.25,19.61 21.25,15 L21.25,9 C21.25,4.39 19.61,2.75 15,2.75 L9,2.75 Z"/>
</svg>

