<svg xmlns="http://www.w3.org/2000/svg" width="24" height="24" viewBox="0 0 24 24">
  <defs/>
  <path fill="#292D32" d="M16.5,15.25 C16.31,15.25 16.12,15.18 15.97,15.03 L12.42,11.48 L11.33,13.12 C11.21,13.31 11,13.43 10.78,13.45 C10.55,13.47 10.33,13.39 10.18,13.23 L6.98,10.03 C6.69,9.74 6.69,9.26 6.98,8.97 C7.27,8.68 7.75,8.68 8.04,8.97 L10.59,11.52 L11.68,9.88 C11.8,9.7 12,9.58 12.23,9.55 C12.46,9.53 12.68,9.61 12.83,9.77 L17.03,13.97 C17.32,14.26 17.32,14.74 17.03,15.03 C16.88,15.18 16.69,15.25 16.5,15.25 Z"/>
  <path fill="#292D32" d="M16.5,15.25 L14.5,15.25 C14.09,15.25 13.75,14.91 13.75,14.5 C13.75,14.09 14.09,13.75 14.5,13.75 L15.75,13.75 L15.75,12.5 C15.75,12.09 16.09,11.75 16.5,11.75 C16.91,11.75 17.25,12.09 17.25,12.5 L17.25,14.5 C17.25,14.91 16.91,15.25 16.5,15.25 Z"/>
  <path fill="#292D32" d="M15,22.75 L9,22.75 C3.57,22.75 1.25,20.43 1.25,15 L1.25,9 C1.25,3.57 3.57,1.25 9,1.25 L15,1.25 C20.43,1.25 22.75,3.57 22.75,9 L22.75,15 C22.75,20.43 20.43,22.75 15,22.75 Z M9,2.75 C4.39,2.75 2.75,4.39 2.75,9 L2.75,15 C2.75,19.61 4.39,21.25 9,21.25 L15,21.25 C19.61,21.25 21.25,19.61 21.25,15 L21.25,9 C21.25,4.39 19.61,2.75 15,2.75 L9,2.75 Z"/>
</svg>

