<svg xmlns="http://www.w3.org/2000/svg" width="24" height="24" viewBox="0 0 24 24">
  <defs/>
  <path fill="#292D32" d="M2.75,12.98 L2.75,15 Q2.75,18.439 4.155,19.845 Q5.561,21.25 9,21.25 L15,21.25 Q18.439,21.25 19.845,19.845 Q21.25,18.439 21.25,15 L21.25,9 Q21.25,2.75 15,2.75 L9,2.75 Q2.75,2.75 2.75,9 Q2.75,9.311 2.53,9.53 Q2.311,9.75 2,9.75 Q1.689,9.75 1.47,9.53 Q1.25,9.311 1.25,9 Q1.25,1.25 9,1.25 L15,1.25 Q22.75,1.25 22.75,9 L22.75,15 Q22.75,22.75 15,22.75 L9,22.75 Q1.25,22.75 1.25,15 L1.25,12.98 Q1.25,12.669 1.47,12.45 Q1.689,12.23 2,12.23 Q2.311,12.23 2.53,12.45 Q2.75,12.669 2.75,12.98 Z"/>
  <path fill="#292D32" d="M11.793,12.418 L11.323,13.118 Q11.149,13.376 10.845,13.436 Q10.54,13.496 10.282,13.323 Q10.221,13.282 10.17,13.23 L6.97,10.03 Q6.75,9.811 6.75,9.5 Q6.75,9.189 6.97,8.97 Q7.189,8.75 7.5,8.75 Q7.811,8.75 8.03,8.97 L10.588,11.527 Q10.754,11.317 11.025,11.264 Q11.33,11.204 11.588,11.377 Q11.846,11.551 11.906,11.855 Q11.966,12.16 11.793,12.418 Z"/>
  <path fill="#292D32" d="M15.97,15.03 L13.47,12.53 Q13.25,12.311 13.25,12 Q13.25,11.689 13.47,11.47 Q13.689,11.25 14,11.25 Q14.311,11.25 14.53,11.47 L15.52,12.46 L17.03,13.97 Q17.25,14.189 17.25,14.5 Q17.25,14.811 17.03,15.03 Q16.811,15.25 16.5,15.25 Q16.189,15.25 15.97,15.03 Z"/>
  <path fill="#292D32" d="M14.5,13.75 L15.75,13.75 L15.75,12.5 Q15.75,12.189 15.97,11.97 Q16.189,11.75 16.5,11.75 Q16.811,11.75 17.03,11.97 Q17.25,12.189 17.25,12.5 L17.25,14.5 Q17.25,14.811 17.03,15.03 Q16.811,15.25 16.5,15.25 L14.5,15.25 Q14.189,15.25 13.97,15.03 Q13.75,14.811 13.75,14.5 Q13.75,14.189 13.97,13.97 Q14.189,13.75 14.5,13.75 Z"/>
</svg>

