<svg xmlns="http://www.w3.org/2000/svg" width="24" height="24" viewBox="0 0 24 24">
  <defs/>
  <path fill="#292D32" d="M18.061,22.16 L5.94,22.16 C3.99,22.16 2.5,21.45 1.74,20.17 C0.99,18.89 1.09,17.24 2.04,15.54 L8.1,4.63 C9.1,2.83 10.48,1.84 12.001,1.84 C13.521,1.84 14.9,2.83 15.9,4.63 L21.96,15.54 C22.91,17.25 23.02,18.89 22.261,20.17 C21.5,21.45 20.011,22.16 18.061,22.16 Z M12.001,3.34 C11.06,3.34 10.14,4.06 9.41,5.36 L3.36,16.27 C2.68,17.49 2.57,18.61 3.04,19.42 C3.51,20.22 4.55,20.67 5.95,20.67 L18.07,20.67 C19.471,20.67 20.5,20.23 20.98,19.42 C21.451,18.61 21.34,17.5 20.66,16.27 L14.591,5.36 C13.861,4.06 12.941,3.34 12.001,3.34 Z"/>
  <path fill="#292D32" d="M21.441,20.75 C21.291,20.75 21.141,20.71 21.011,20.61 L12.001,14.3 L2.991,20.61 C2.651,20.85 2.181,20.77 1.951,20.43 C1.711,20.09 1.791,19.62 2.131,19.39 L11.571,12.78 C11.831,12.6 12.171,12.6 12.431,12.78 L21.871,19.39 C22.211,19.63 22.291,20.1 22.051,20.43 C21.911,20.64 21.681,20.75 21.441,20.75 Z"/>
  <path fill="#292D32" d="M12,14.14 C11.59,14.14 11.25,13.8 11.25,13.39 L11.25,3 C11.25,2.59 11.59,2.25 12,2.25 C12.41,2.25 12.75,2.59 12.75,3 L12.75,13.39 C12.75,13.8 12.41,14.14 12,14.14 Z"/>
</svg>

