<svg xmlns="http://www.w3.org/2000/svg" width="24" height="24" viewBox="0 0 24 24">
  <defs/>
  <path fill="#292D32" d="M5.939,22.16 Q2.909,22.16 1.741,20.171 Q0.575,18.184 2.044,15.536 L5.164,9.916 L8.104,4.635 Q9.653,1.842 11.999,1.842 Q14.346,1.842 15.895,4.636 L18.835,9.925 L21.955,15.546 Q23.423,18.193 22.253,20.181 Q21.084,22.17 18.059,22.17 L11.999,22.17 Q11.933,22.17 11.871,22.16 L5.939,22.16 Z M11.999,20.66 Q12.066,20.66 12.128,20.67 L18.059,20.67 Q20.226,20.67 20.96,19.421 Q21.696,18.171 20.644,16.274 L17.524,10.654 L14.583,5.364 Q13.463,3.342 11.999,3.342 Q10.536,3.342 9.415,5.365 L6.475,10.644 L3.355,16.263 Q2.302,18.163 3.035,19.411 Q3.768,20.66 5.939,20.66 Z"/>
  <g opacity="0.4">
    <path fill="#292D32" d="M21.01,20.614 L12.001,14.305 L2.991,20.614 Q2.736,20.792 2.43,20.738 Q2.124,20.684 1.946,20.43 Q1.768,20.175 1.822,19.869 Q1.876,19.563 2.13,19.385 L11.57,12.775 Q12,12.474 12.431,12.775 L21.871,19.385 Q22.125,19.563 22.179,19.869 Q22.233,20.175 22.055,20.43 Q21.877,20.684 21.571,20.738 Q21.265,20.792 21.01,20.614 Z"/>
    <path fill="#292D32" d="M12.75,3 L12.75,13.39 Q12.75,13.701 12.53,13.92 Q12.311,14.14 12,14.14 Q11.689,14.14 11.47,13.92 Q11.25,13.701 11.25,13.39 L11.25,3 Q11.25,2.689 11.47,2.47 Q11.689,2.25 12,2.25 Q12.311,2.25 12.53,2.47 Q12.75,2.689 12.75,3 Z"/>
  </g>
</svg>

