<svg xmlns="http://www.w3.org/2000/svg" width="24" height="24" viewBox="0 0 24 24">
  <defs/>
  <path fill="#292D32" d="M5.94,22.16 Q2.909,22.16 1.742,20.171 Q0.576,18.184 2.044,15.536 L5.164,9.916 L8.105,4.635 Q9.653,1.843 12,1.843 Q14.347,1.843 15.896,4.636 L18.836,9.926 L21.956,15.546 Q23.424,18.193 22.254,20.182 Q21.084,22.17 18.06,22.17 L12,22.17 Q11.934,22.17 11.872,22.16 L5.94,22.16 Z M12,20.66 Q12.066,20.66 12.128,20.67 L18.06,20.67 Q20.226,20.67 20.961,19.421 Q21.696,18.171 20.644,16.274 L17.524,10.654 L14.584,5.364 Q13.463,3.343 12,3.343 Q10.537,3.343 9.415,5.365 L6.476,10.644 L3.356,16.264 Q2.303,18.163 3.036,19.412 Q3.768,20.66 5.94,20.66 Z"/>
  <path fill="#292D32" d="M21.01,20.614 L12,14.306 L2.99,20.614 Q2.736,20.793 2.43,20.739 Q2.124,20.685 1.946,20.43 Q1.767,20.176 1.821,19.87 Q1.875,19.564 2.13,19.386 L11.57,12.776 Q12,12.474 12.43,12.776 L21.87,19.386 Q22.125,19.564 22.179,19.87 Q22.233,20.176 22.054,20.43 Q21.876,20.685 21.57,20.739 Q21.264,20.793 21.01,20.614 Z"/>
  <path fill="#292D32" d="M12.75,3 L12.75,13.39 Q12.75,13.701 12.53,13.92 Q12.311,14.14 12,14.14 Q11.689,14.14 11.47,13.92 Q11.25,13.701 11.25,13.39 L11.25,3 Q11.25,2.689 11.47,2.47 Q11.689,2.25 12,2.25 Q12.311,2.25 12.53,2.47 Q12.75,2.689 12.75,3 Z"/>
</svg>

