<svg xmlns="http://www.w3.org/2000/svg" width="24" height="24" viewBox="0 0 24 24">
  <defs/>
  <path fill="#292D32" d="M11.25,3.899 L11.25,12.919 C11.25,13.249 11.09,13.549 10.82,13.739 L3.61,18.789 C3.02,19.199 2.18,18.879 2.05,18.169 C1.9,17.309 2.1,16.299 2.7,15.209 L5.82,9.599 L8.76,4.309 C8.99,3.899 9.24,3.539 9.5,3.229 C10.1,2.529 11.25,2.979 11.25,3.899 Z"/>
  <path fill="#292D32" d="M20.39,18.789 L13.18,13.739 C12.91,13.549 12.75,13.249 12.75,12.919 L12.75,3.899 C12.75,2.979 13.9,2.529 14.5,3.229 C14.76,3.539 15.01,3.899 15.24,4.309 L18.18,9.599 L21.3,15.209 C21.9,16.299 22.1,17.309 21.95,18.169 C21.82,18.879 20.98,19.199 20.39,18.789 Z"/>
  <path fill="#292D32" d="M5.26,19.14 L11.41,15.04 C11.74,14.82 12.28,14.82 12.61,15.04 L18.76,19.14 C20.39,20.23 20.12,21.12 18.16,21.12 L5.85,21.12 C3.9,21.11 3.63,20.22 5.26,19.14 Z"/>
</svg>

