<svg xmlns="http://www.w3.org/2000/svg" width="24" height="24" viewBox="0 0 24 24">
  <defs/>
  <path fill="#292D32" d="M8.104,4.636 Q9.653,1.843 11.999,1.843 Q14.346,1.843 15.895,4.636 L18.835,9.926 L21.955,15.546 Q23.423,18.193 22.253,20.182 Q21.084,22.17 18.059,22.17 L5.939,22.17 Q2.909,22.17 1.741,20.181 Q0.575,18.194 2.044,15.546 L5.164,9.926 L5.756,8.873 Q5.908,8.602 6.207,8.518 Q6.506,8.434 6.777,8.586 Q7.048,8.738 7.132,9.037 Q7.215,9.337 7.063,9.607 L6.475,10.654 L3.355,16.274 Q2.302,18.173 3.035,19.422 Q3.768,20.67 5.939,20.67 L18.059,20.67 Q20.226,20.67 20.96,19.421 Q21.696,18.171 20.644,16.274 L17.524,10.654 L14.583,5.364 Q13.463,3.343 11.999,3.343 Q10.536,3.343 9.415,5.364 Q9.265,5.635 8.966,5.721 Q8.667,5.807 8.396,5.656 Q8.124,5.505 8.038,5.207 Q7.953,4.908 8.104,4.636 Z"/>
  <path fill="#292D32" d="M21.01,20.614 L12.001,14.305 L2.991,20.614 Q2.736,20.792 2.43,20.739 Q2.124,20.685 1.946,20.43 Q1.768,20.176 1.822,19.87 Q1.876,19.564 2.13,19.386 L11.57,12.776 Q12,12.474 12.431,12.776 L21.871,19.386 Q22.125,19.564 22.179,19.87 Q22.233,20.176 22.055,20.43 Q21.877,20.685 21.571,20.739 Q21.265,20.792 21.01,20.614 Z"/>
  <path fill="#292D32" d="M12.75,3 L12.75,13.39 Q12.75,13.701 12.53,13.92 Q12.311,14.14 12,14.14 Q11.689,14.14 11.47,13.92 Q11.25,13.701 11.25,13.39 L11.25,3 Q11.25,2.689 11.47,2.47 Q11.689,2.25 12,2.25 Q12.311,2.25 12.53,2.47 Q12.75,2.689 12.75,3 Z"/>
</svg>

