<svg xmlns="http://www.w3.org/2000/svg" width="24" height="24" viewBox="0 0 24 24">
  <defs/>
  <path d="M10.23,21.88 C10.16,21.88 10.09,21.88 10.02,21.86 C9.43,21.78 8.93,21.34 8.66,20.66 L1.94,3.86 C1.67,3.19 1.73,2.54 2.09,2.07 C2.46,1.6 3.07,1.38 3.79,1.48 L16.76,3.21 C17.11,3.26 17.52,3.46 17.77,3.71 L20.9,6.84 C21.51,7.46 21.58,8.47 21.04,9.16 L11.66,21.1 C11.26,21.61 10.75,21.88 10.23,21.88 Z M3.46,2.96 C3.34,2.96 3.28,2.99 3.27,3 C3.27,3.01 3.25,3.12 3.33,3.31 L10.05,20.11 C10.13,20.31 10.22,20.38 10.23,20.38 C10.24,20.38 10.34,20.34 10.47,20.17 L19.85,8.23 C19.92,8.15 19.91,7.97 19.83,7.9 L16.7,4.77 C16.68,4.75 16.59,4.71 16.55,4.7 L3.6,2.97 C3.55,2.96 3.5,2.96 3.46,2.96 Z"/>
  <path d="M10,21.75 C9.98,21.75 9.95,21.75 9.93,21.75 C9.52,21.71 9.21,21.35 9.25,20.94 L10.22,10.32 L2.51,3.47 C2.2,3.19 2.17,2.72 2.45,2.41 C2.73,2.1 3.2,2.07 3.51,2.35 L11.5,9.45 C11.68,9.61 11.77,9.84 11.75,10.08 L10.75,21.08 C10.71,21.46 10.38,21.75 10,21.75 Z"/>
  <path d="M11,10.75 C10.73,10.75 10.47,10.6 10.34,10.35 C10.18,10.06 10.24,9.7 10.47,9.47 L16.47,3.47 C16.76,3.18 17.24,3.18 17.53,3.47 C17.82,3.76 17.82,4.24 17.53,4.53 L13.28,8.78 L19.89,7.46 C20.3,7.38 20.69,7.64 20.77,8.05 C20.85,8.46 20.59,8.85 20.18,8.93 L11.14,10.74 C11.1,10.75 11.05,10.75 11,10.75 Z"/>
</svg>

