<svg xmlns="http://www.w3.org/2000/svg" width="24" height="24" viewBox="0 0 24 24">
  <defs/>
  <path d="M1.943,3.867 Q1.522,2.808 2.094,2.071 Q2.669,1.33 3.8,1.487 L16.762,3.226 Q17.344,3.293 17.77,3.72 L20.893,6.842 Q22.013,7.93 21.04,9.163 L11.663,21.099 Q10.96,22.008 10.022,21.872 Q9.084,21.737 8.664,20.668 L1.944,3.868 Z M3.336,3.311 L10.056,20.111 Q10.161,20.377 10.236,20.388 Q10.309,20.398 10.477,20.181 L19.86,8.237 Q19.997,8.063 19.848,7.918 L16.71,4.78 Q16.652,4.722 16.587,4.715 Q16.579,4.714 16.57,4.713 L3.6,2.973 Q3.322,2.935 3.279,2.991 Q3.233,3.05 3.336,3.311 Z"/>
  <g opacity="0.4">
    <path d="M9.253,20.932 L10.219,10.309 L2.512,3.461 Q2.279,3.254 2.261,2.944 Q2.243,2.634 2.449,2.402 Q2.655,2.169 2.966,2.151 Q3.276,2.133 3.508,2.339 L11.498,9.439 Q11.781,9.691 11.747,10.068 L10.747,21.068 Q10.719,21.377 10.48,21.576 Q10.241,21.775 9.932,21.747 Q9.622,21.719 9.424,21.48 Q9.225,21.241 9.253,20.932 Z"/>
    <path d="M17.53,4.53 L13.283,8.778 L19.893,7.455 Q20.197,7.394 20.456,7.566 Q20.714,7.738 20.775,8.043 Q20.836,8.347 20.664,8.606 Q20.492,8.864 20.187,8.925 L11.147,10.735 Q10.754,10.814 10.47,10.53 Q10.25,10.311 10.25,10 Q10.25,9.689 10.47,9.47 L16.47,3.47 Q16.689,3.25 17,3.25 Q17.311,3.25 17.53,3.47 Q17.75,3.689 17.75,4 Q17.75,4.311 17.53,4.53 Z"/>
  </g>
</svg>

