<svg xmlns="http://www.w3.org/2000/svg" width="24" height="24" viewBox="0 0 24 24">
  <defs/>
  <path fill="white" d="M24,0 L0,0 L0,24 L24,24 L24,0 Z"/>
  <path fill="#292D32" d="M20.66,8.04 C20.66,8.27 20.6,8.51 20.45,8.7 L11.07,20.64 C10.73,21.07 10.33,21.22 9.99,21.1 L10,21 L11,10 L20.04,8.19 L20.66,8.04 Z"/>
  <path fill="#292D32" opacity="0.4" d="M20.66,8.04 L20.04,8.19 L11,10 L16.95,4.05 C17.07,4.1 17.17,4.17 17.24,4.24 L20.37,7.37 C20.55,7.55 20.65,7.79 20.66,8.04 Z"/>
  <path fill="#292D32" d="M16.95,4.05 L11,10 L3.01,2.9 L2.66,2.56 L2.66,2.55 C2.86,2.29 3.22,2.16 3.7,2.23 L16.66,3.96 C16.75,3.97 16.85,4 16.95,4.05 Z"/>
  <path fill="#292D32" opacity="0.4" d="M10.999,10 L9.999,21 L9.989,21.1 C9.739,21.01 9.509,20.77 9.359,20.39 L2.639,3.59 C2.469,3.17 2.489,2.81 2.659,2.56 L3.009,2.9 L10.999,10 Z"/>
</svg>

