<svg xmlns="http://www.w3.org/2000/svg" width="24" height="24" viewBox="0 0 24 24">
  <defs/>
  <path d="M19.402,10.531 C19.922,10.431 20.282,11.021 19.962,11.441 L13.012,20.291 C12.662,20.741 11.942,20.451 12.002,19.891 L12.702,12.291 C12.722,12.041 12.912,11.831 13.162,11.781 L19.402,10.531 Z"/>
  <path d="M21.641,7.691 C21.861,7.931 21.741,8.321 21.431,8.391 L12.991,10.081 C12.441,10.191 12.081,9.521 12.481,9.121 L17.501,4.101 C17.731,3.871 18.101,3.881 18.321,4.111 L21.641,7.691 Z"/>
  <path d="M14.691,3.191 C15.161,3.251 15.351,3.821 15.021,4.161 L11.461,7.721 C11.251,7.931 10.911,7.941 10.681,7.741 L5.341,2.991 C4.921,2.621 5.241,1.931 5.791,2.001 L14.691,3.191 Z"/>
  <path d="M10.721,10.073 C10.991,10.313 11.121,10.663 11.101,11.013 L10.241,21.473 C10.191,22.073 9.361,22.193 9.141,21.633 L2.291,3.963 C2.071,3.403 2.751,2.933 3.201,3.333 L10.721,10.073 Z"/>
</svg>

