<svg xmlns="http://www.w3.org/2000/svg" width="24" height="24" viewBox="0 0 24 24">
  <defs/>
  <path d="M6.886,12.202 L10.046,20.112 Q10.151,20.377 10.226,20.388 Q10.299,20.398 10.467,20.181 L19.85,8.237 Q19.987,8.063 19.837,7.918 L16.7,4.78 Q16.642,4.723 16.577,4.715 Q16.569,4.714 16.56,4.713 L3.6,2.973 Q3.329,2.938 3.281,3.001 Q3.235,3.059 3.336,3.31 L5.097,7.722 Q5.212,8.01 5.089,8.296 Q4.966,8.581 4.678,8.696 Q4.389,8.812 4.104,8.689 Q3.819,8.566 3.703,8.278 L1.944,3.87 Q1.521,2.817 2.099,2.077 Q2.674,1.341 3.8,1.487 L16.752,3.226 Q17.334,3.293 17.76,3.72 L20.882,6.842 Q22.003,7.93 21.03,9.163 L11.653,21.099 Q10.95,22.008 10.011,21.872 Q9.074,21.737 8.653,20.668 L5.493,12.758 Q5.378,12.47 5.501,12.184 Q5.623,11.899 5.912,11.783 Q6.2,11.668 6.486,11.791 Q6.771,11.913 6.886,12.202 Z"/>
  <path d="M9.253,20.932 L10.219,10.309 L2.512,3.461 Q2.279,3.254 2.261,2.944 Q2.243,2.634 2.449,2.402 Q2.655,2.169 2.966,2.151 Q3.276,2.133 3.508,2.339 L11.498,9.439 Q11.781,9.691 11.747,10.068 L10.747,21.068 Q10.719,21.377 10.48,21.576 Q10.241,21.775 9.932,21.747 Q9.622,21.719 9.424,21.48 Q9.225,21.241 9.253,20.932 Z"/>
  <path d="M17.53,4.53 L13.283,8.778 L19.893,7.455 Q20.197,7.394 20.456,7.566 Q20.714,7.738 20.775,8.043 Q20.836,8.347 20.664,8.606 Q20.492,8.864 20.187,8.925 L11.147,10.735 Q10.754,10.814 10.47,10.53 Q10.25,10.311 10.25,10 Q10.25,9.689 10.47,9.47 L16.47,3.47 Q16.689,3.25 17,3.25 Q17.311,3.25 17.53,3.47 Q17.75,3.689 17.75,4 Q17.75,4.311 17.53,4.53 Z"/>
</svg>

