<svg xmlns="http://www.w3.org/2000/svg" width="24" height="24" viewBox="0 0 24 24">
  <defs/>
  <path fill="#17191C" d="M1.903,3.878 Q1.895,3.858 1.888,3.837 Q1.53,2.762 2.126,2.054 Q2.735,1.331 3.828,1.56 L16.755,3.251 Q17.454,3.272 17.803,3.843 L20.798,6.837 Q21.324,7.261 21.361,7.973 Q21.396,8.622 21,9.15 Q20.994,9.158 20.988,9.165 L11.594,21.058 Q10.887,21.995 9.982,21.882 Q9.088,21.77 8.615,20.705 Q8.609,20.691 8.603,20.678 Z M3.305,3.344 L9.991,20.108 Q10.116,20.387 10.168,20.393 Q10.213,20.399 10.4,20.15 Q10.406,20.142 10.411,20.135 L19.805,8.244 Q19.936,8.065 19.85,8 Q19.807,7.968 19.77,7.93 L16.67,4.83 Q16.628,4.789 16.594,4.743 L3.603,3.044 Q3.57,3.039 3.537,3.032 Q3.307,2.981 3.274,3.021 Q3.221,3.083 3.305,3.344 Z"/>
  <path fill="#17191C" d="M9.253,20.932 L10.219,10.309 L2.502,3.461 Q2.27,3.255 2.251,2.945 Q2.233,2.634 2.439,2.402 Q2.645,2.17 2.955,2.151 Q3.265,2.133 3.498,2.339 L11.498,9.439 Q11.781,9.69 11.747,10.068 L10.747,21.068 Q10.719,21.377 10.48,21.576 Q10.241,21.775 9.932,21.747 Q9.623,21.719 9.424,21.48 Q9.225,21.241 9.253,20.932 Z"/>
  <path fill="#17191C" d="M17.53,4.53 L13.282,8.779 L19.853,7.465 Q20.158,7.404 20.416,7.576 Q20.675,7.748 20.735,8.053 Q20.796,8.358 20.624,8.616 Q20.452,8.875 20.147,8.935 L11.147,10.735 Q10.753,10.814 10.47,10.53 Q10.25,10.311 10.25,10 Q10.25,9.689 10.47,9.47 L16.47,3.47 Q16.689,3.25 17,3.25 Q17.311,3.25 17.53,3.47 Q17.75,3.689 17.75,4 Q17.75,4.311 17.53,4.53 Z"/>
</svg>

