<svg xmlns="http://www.w3.org/2000/svg" width="24" height="24" viewBox="0 0 24 24">
  <defs/>
  <path fill="#292D32" opacity="0.4" d="M15.75,2 L15.75,12 Q15.75,14.75 13,14.75 L2,14.75 Q1.689,14.75 1.47,14.53 Q1.25,14.311 1.25,14 L1.25,7.62 Q1.25,7.309 1.47,7.09 Q1.689,6.87 2,6.87 Q2.35,6.87 2.575,7.138 Q3.539,8.287 5.072,8.25 Q6.306,8.226 7.172,7.398 Q7.189,7.381 7.208,7.365 Q7.555,7.074 7.804,6.626 Q7.809,6.617 7.814,6.609 Q8.274,5.829 8.25,4.93 Q8.214,3.5 7.146,2.564 Q6.912,2.359 6.892,2.049 Q6.871,1.739 7.076,1.506 Q7.3,1.25 7.64,1.25 L15,1.25 Q15.311,1.25 15.53,1.47 Q15.75,1.689 15.75,2 Z M14.25,2.75 L9.201,2.75 Q9.719,3.704 9.75,4.89 Q9.785,6.215 9.111,7.363 Q8.735,8.036 8.191,8.499 Q6.907,9.714 5.108,9.75 Q3.787,9.782 2.75,9.211 L2.75,13.25 L13,13.25 Q13.514,13.25 13.882,12.882 Q14.25,12.514 14.25,12 L14.25,2.75 Z"/>
  <path fill="#292D32" d="M22.75,14 L22.75,17 Q22.75,20.75 19,20.75 L18,20.75 Q17.689,20.75 17.47,20.53 Q17.25,20.311 17.25,20 Q17.25,18.75 16,18.75 Q14.75,18.75 14.75,20 Q14.75,20.311 14.53,20.53 Q14.311,20.75 14,20.75 L10,20.75 Q9.689,20.75 9.47,20.53 Q9.25,20.311 9.25,20 Q9.25,18.75 8,18.75 Q7.486,18.75 7.118,19.118 Q6.75,19.486 6.75,20 Q6.75,20.311 6.53,20.53 Q6.311,20.75 6,20.75 L5,20.75 Q1.25,20.75 1.25,17 L1.25,14 Q1.25,13.689 1.47,13.47 Q1.689,13.25 2,13.25 L13,13.25 Q14.25,13.25 14.25,12 L14.25,5 Q14.25,4.689 14.47,4.47 Q14.689,4.25 15,4.25 L16.84,4.25 Q18.425,4.25 19.229,5.633 L20.941,8.628 Q21.095,8.897 21.014,9.197 Q20.932,9.497 20.662,9.651 Q20.489,9.75 20.29,9.75 L19,9.75 Q18.75,9.75 18.75,10 L18.75,13 Q18.75,13.25 19,13.25 L22,13.25 Q22.311,13.25 22.53,13.47 Q22.75,13.689 22.75,14 Z M21.25,14.75 L19,14.75 Q17.25,14.75 17.25,13 L17.25,10 Q17.25,8.251 18.997,8.25 L17.931,6.387 Q17.562,5.75 16.84,5.75 L15.75,5.75 L15.75,12 Q15.75,14.75 13,14.75 L2.75,14.75 L2.75,17 Q2.75,17.934 3.408,18.592 Q4.066,19.25 5,19.25 L5.348,19.25 Q5.531,18.584 6.057,18.057 Q6.864,17.25 8,17.25 Q10.345,17.25 10.69,19.25 L13.31,19.25 Q13.655,17.25 16,17.25 Q18.345,17.25 18.69,19.25 L19,19.25 Q21.25,19.25 21.25,17 L21.25,14.75 Z"/>
  <path fill="#292D32" d="M8,22.75 Q6.625,22.75 5.938,22.062 Q5.25,21.375 5.25,20 Q5.25,18.861 6.055,18.055 Q6.861,17.25 8,17.25 Q10.75,17.25 10.75,20 Q10.75,21.139 9.945,21.945 Q9.139,22.75 8,22.75 Z M8,21.25 Q9.25,21.25 9.25,20 Q9.25,18.75 8,18.75 Q7.482,18.75 7.116,19.116 Q6.75,19.482 6.75,20 Q6.75,21.25 8,21.25 Z"/>
  <path fill="#292D32" d="M16,22.75 Q13.25,22.75 13.25,20 Q13.25,17.25 16,17.25 Q18.75,17.25 18.75,20 Q18.75,21.139 17.945,21.945 Q17.139,22.75 16,22.75 Z M16,21.25 Q17.25,21.25 17.25,20 Q17.25,18.75 16,18.75 Q14.75,18.75 14.75,20 Q14.75,20.518 15.116,20.884 Q15.482,21.25 16,21.25 Z"/>
  <path fill="#292D32" d="M22.75,12 L22.75,14 Q22.75,14.311 22.53,14.53 Q22.311,14.75 22,14.75 L19,14.75 Q17.25,14.75 17.25,13 L17.25,10 Q17.25,8.25 19,8.25 L20.29,8.25 Q20.726,8.25 20.942,8.629 L22.652,11.629 Q22.75,11.801 22.75,12 Z M21.25,12.199 L19.854,9.75 L19,9.75 Q18.75,9.75 18.75,10 L18.75,13 Q18.75,13.25 19,13.25 L21.25,13.25 L21.25,12.199 Z"/>
  <path fill="#292D32" d="M9.749,4.89 L9.749,4.891 Q9.784,6.215 9.11,7.363 Q8.734,8.036 8.19,8.498 Q6.907,9.714 5.104,9.75 Q2.863,9.804 1.437,8.116 Q1.225,7.886 1,7.537 Q0.285,6.457 0.249,5.11 Q0.195,2.815 1.949,1.354 Q3.247,0.285 4.893,0.25 Q6.76,0.214 8.137,1.439 Q9.695,2.805 9.749,4.89 Z M8.249,4.929 Q8.213,3.5 7.141,2.56 Q6.202,1.725 4.925,1.75 Q3.799,1.774 2.909,2.506 Q1.712,3.504 1.749,5.07 Q1.773,5.988 2.259,6.722 Q2.42,6.972 2.547,7.108 Q2.561,7.123 2.574,7.138 Q3.538,8.287 5.074,8.25 Q6.305,8.226 7.171,7.398 Q7.189,7.381 7.207,7.365 Q7.555,7.074 7.804,6.626 Q7.808,6.617 7.813,6.609 Q8.273,5.829 8.249,4.93 Z"/>
  <path fill="#292D32" opacity="0.4" d="M3.956,4.486 L4.445,4.951 L6.018,3.43 Q6.242,3.215 6.552,3.22 Q6.863,3.225 7.079,3.449 Q7.295,3.672 7.289,3.982 Q7.284,4.293 7.061,4.509 L4.971,6.529 Q4.754,6.738 4.453,6.74 Q4.151,6.741 3.933,6.533 L2.923,5.573 Q2.698,5.359 2.69,5.049 Q2.682,4.738 2.896,4.513 Q3.11,4.288 3.42,4.28 Q3.731,4.272 3.956,4.486 Z"/>
</svg>

