<svg xmlns="http://www.w3.org/2000/svg" width="24" height="24" viewBox="0 0 24 24">
  <defs/>
  <path fill="#292D32" d="M21.5,15.5 C21.78,15.5 22,15.72 22,16 L22,17 C22,18.66 20.66,20 19,20 C19,18.35 17.65,17 16,17 C14.35,17 13,18.35 13,20 L11,20 C11,18.35 9.65,17 8,17 C6.35,17 5,18.35 5,20 C3.34,20 2,18.66 2,17 L2,15 C2,14.45 2.45,14 3,14 L12.5,14 C13.88,14 15,12.88 15,11.5 L15,6 C15,5.45 15.45,5 16,5 L16.84,5 C17.56,5 18.22,5.39 18.58,6.01 L19.22,7.13 C19.31,7.29 19.19,7.5 19,7.5 C17.62,7.5 16.5,8.62 16.5,10 L16.5,13 C16.5,14.38 17.62,15.5 19,15.5 L21.5,15.5 Z"/>
  <path fill="#292D32" d="M8,22 C9.105,22 10,21.105 10,20 C10,18.895 9.105,18 8,18 C6.895,18 6,18.895 6,20 C6,21.105 6.895,22 8,22 Z"/>
  <path fill="#292D32" d="M16,22 C17.105,22 18,21.105 18,20 C18,18.895 17.105,18 16,18 C14.895,18 14,18.895 14,20 C14,21.105 14.895,22 16,22 Z"/>
  <path fill="#292D32" d="M22,12.53 L22,14 L19,14 C18.45,14 18,13.55 18,13 L18,10 C18,9.45 18.45,9 19,9 L20.29,9 L21.74,11.54 C21.91,11.84 22,12.18 22,12.53 Z"/>
  <path fill="#292D32" d="M13.08,2 L5.69,2 C3.9,2 2.4,3.28 2.07,4.98 L6.44,4.98 C6.82,4.98 7.12,5.29 7.12,5.67 C7.12,6.05 6.82,6.35 6.44,6.35 L2,6.35 L2,7.73 L4.6,7.73 C4.98,7.73 5.29,8.04 5.29,8.42 C5.29,8.8 4.98,9.1 4.6,9.1 L2,9.1 L2,10.48 L2.77,10.48 C3.15,10.48 3.46,10.79 3.46,11.17 C3.46,11.55 3.15,11.85 2.77,11.85 L2,11.85 L2,12.08 C2,12.63 2.45,13.08 3,13.08 L12.15,13.08 C13.17,13.08 14,12.25 14,11.23 L14,2.92 C14,2.41 13.59,2 13.08,2 Z"/>
  <path fill="#292D32" d="M2.07,4.98 L1.92,4.98 L0.94,4.98 C0.56,4.98 0.25,5.29 0.25,5.67 C0.25,6.05 0.56,6.35 0.94,6.35 L1.85,6.35 L2,6.35 L2,5.69 C2,5.45 2.03,5.21 2.07,4.98 Z"/>
  <path fill="#292D32" d="M1.85,7.73 L0.94,7.73 C0.56,7.73 0.25,8.04 0.25,8.42 C0.25,8.8 0.56,9.1 0.94,9.1 L1.85,9.1 L2,9.1 L2,7.73 L1.85,7.73 Z"/>
  <path fill="#292D32" d="M1.85,10.48 L0.94,10.48 C0.56,10.48 0.25,10.79 0.25,11.171 C0.25,11.55 0.56,11.851 0.94,11.851 L1.85,11.851 L2,11.851 L2,10.48 L1.85,10.48 Z"/>
</svg>

