<svg xmlns="http://www.w3.org/2000/svg" width="24" height="24" viewBox="0 0 24 24">
  <defs/>
  <path fill="#292D32" d="M5,1 C4.06,1 3.19,1.33 2.5,1.88 C1.58,2.61 1,3.74 1,5 C1,7.21 2.79,9 5,9 C6.01,9 6.93,8.62 7.64,8 C8.47,7.27 9,6.2 9,5 C9,2.79 7.21,1 5,1 Z M6,5.25 C6,5.51 5.86,5.76 5.64,5.89 L4.39,6.64 C4.27,6.71 4.14,6.75 4.01,6.75 C3.76,6.75 3.51,6.62 3.37,6.39 C3.16,6.03 3.27,5.57 3.63,5.36 L4.52,4.83 L4.52,3.75 C4.52,3.34 4.86,3 5.27,3 C5.68,3 6.02,3.34 6.02,3.75 L6.02,5.25 L6,5.25 Z"/>
  <path fill="#292D32" opacity="0.4" d="M15,3 L15,12 C15,13.1 14.1,14 13,14 L2,14 L2,7.62 C2.73,8.49 3.85,9.03 5.09,9 C6.1,8.98 7.01,8.59 7.69,7.94 C8,7.68 8.26,7.35 8.46,6.99 C8.82,6.38 9.02,5.66 9,4.91 C8.97,3.74 8.45,2.71 7.64,2 L14,2 C14.55,2 15,2.45 15,3 Z"/>
  <path fill="#292D32" d="M22,14 L22,17 C22,18.66 20.66,20 19,20 L18,20 C18,18.9 17.1,18 16,18 C14.9,18 14,18.9 14,20 L10,20 C10,18.9 9.1,18 8,18 C6.9,18 6,18.9 6,20 L5,20 C3.34,20 2,18.66 2,17 L2,14 L13,14 C14.1,14 15,13.1 15,12 L15,5 L16.84,5 C17.56,5 18.22,5.39 18.58,6.01 L20.29,9 L19,9 C18.45,9 18,9.45 18,10 L18,13 C18,13.55 18.45,14 19,14 L22,14 Z"/>
  <path fill="#292D32" opacity="0.4" d="M8,22 C9.105,22 10,21.105 10,20 C10,18.895 9.105,18 8,18 C6.895,18 6,18.895 6,20 C6,21.105 6.895,22 8,22 Z"/>
  <path fill="#292D32" opacity="0.4" d="M16,22 C17.105,22 18,21.105 18,20 C18,18.895 17.105,18 16,18 C14.895,18 14,18.895 14,20 C14,21.105 14.895,22 16,22 Z"/>
  <path fill="#292D32" opacity="0.4" d="M22,12.53 L22,14 L19,14 C18.45,14 18,13.55 18,13 L18,10 C18,9.45 18.45,9 19,9 L20.29,9 L21.74,11.54 C21.91,11.84 22,12.18 22,12.53 Z"/>
</svg>

