<svg xmlns="http://www.w3.org/2000/svg" width="24" height="24" viewBox="0 0 24 24">
  <defs/>
  <path fill="#292D32" d="M13,14.75 L12,14.75 C11.59,14.75 11.25,14.41 11.25,14 C11.25,13.59 11.59,13.25 12,13.25 L13,13.25 C13.69,13.25 14.25,12.69 14.25,12 L14.25,2.75 L6,2.75 C4.82,2.75 3.74,3.39 3.16,4.42 C2.96,4.78 2.5,4.91 2.14,4.71 C1.78,4.51 1.65,4.05 1.85,3.69 C2.69,2.19 4.28,1.25 6,1.25 L15,1.25 C15.41,1.25 15.75,1.59 15.75,2 L15.75,12 C15.75,13.52 14.52,14.75 13,14.75 Z"/>
  <path fill="#292D32" d="M19,20.75 L18,20.75 C17.59,20.75 17.25,20.41 17.25,20 C17.25,19.31 16.69,18.75 16,18.75 C15.31,18.75 14.75,19.31 14.75,20 C14.75,20.41 14.41,20.75 14,20.75 L10,20.75 C9.59,20.75 9.25,20.41 9.25,20 C9.25,19.31 8.69,18.75 8,18.75 C7.31,18.75 6.75,19.31 6.75,20 C6.75,20.41 6.41,20.75 6,20.75 L5,20.75 C2.93,20.75 1.25,19.07 1.25,17 C1.25,16.59 1.59,16.25 2,16.25 C2.41,16.25 2.75,16.59 2.75,17 C2.75,18.24 3.76,19.25 5,19.25 L5.35,19.25 C5.68,18.1 6.74,17.25 8,17.25 C9.26,17.25 10.32,18.1 10.65,19.25 L13.36,19.25 C13.69,18.1 14.75,17.25 16.01,17.25 C17.27,17.25 18.33,18.1 18.66,19.25 L19,19.25 C20.24,19.25 21.25,18.24 21.25,17 L21.25,14.75 L19,14.75 C18.04,14.75 17.25,13.96 17.25,13 L17.25,10 C17.25,9.04 18.03,8.25 19,8.25 L17.93,6.38 C17.71,5.99 17.29,5.75 16.84,5.75 L15.75,5.75 L15.75,12 C15.75,13.52 14.52,14.75 13,14.75 L12,14.75 C11.59,14.75 11.25,14.41 11.25,14 C11.25,13.59 11.59,13.25 12,13.25 L13,13.25 C13.69,13.25 14.25,12.69 14.25,12 L14.25,5 C14.25,4.59 14.59,4.25 15,4.25 L16.84,4.25 C17.83,4.25 18.74,4.78 19.23,5.64 L20.94,8.63 C21.07,8.86 21.07,9.15 20.94,9.38 C20.81,9.61 20.56,9.75 20.29,9.75 L19,9.75 C18.86,9.75 18.75,9.86 18.75,10 L18.75,13 C18.75,13.14 18.86,13.25 19,13.25 L22,13.25 C22.41,13.25 22.75,13.59 22.75,14 L22.75,17 C22.75,19.07 21.07,20.75 19,20.75 Z"/>
  <path fill="#292D32" d="M8,22.75 C6.48,22.75 5.25,21.52 5.25,20 C5.25,18.48 6.48,17.25 8,17.25 C9.52,17.25 10.75,18.48 10.75,20 C10.75,21.52 9.52,22.75 8,22.75 Z M8,18.75 C7.31,18.75 6.75,19.31 6.75,20 C6.75,20.69 7.31,21.25 8,21.25 C8.69,21.25 9.25,20.69 9.25,20 C9.25,19.31 8.69,18.75 8,18.75 Z"/>
  <path fill="#292D32" d="M16,22.75 C14.48,22.75 13.25,21.52 13.25,20 C13.25,18.48 14.48,17.25 16,17.25 C17.52,17.25 18.75,18.48 18.75,20 C18.75,21.52 17.52,22.75 16,22.75 Z M16,18.75 C15.31,18.75 14.75,19.31 14.75,20 C14.75,20.69 15.31,21.25 16,21.25 C16.69,21.25 17.25,20.69 17.25,20 C17.25,19.31 16.69,18.75 16,18.75 Z"/>
  <path fill="#292D32" d="M22,14.75 L19,14.75 C18.04,14.75 17.25,13.96 17.25,13 L17.25,10 C17.25,9.04 18.04,8.25 19,8.25 L20.29,8.25 C20.56,8.25 20.81,8.39 20.94,8.63 L22.65,11.63 C22.71,11.74 22.75,11.87 22.75,12 L22.75,14 C22.75,14.41 22.41,14.75 22,14.75 Z M19,9.75 C18.86,9.75 18.75,9.86 18.75,10 L18.75,13 C18.75,13.14 18.86,13.25 19,13.25 L21.25,13.25 L21.25,12.2 L19.85,9.75 L19,9.75 Z"/>
  <path fill="#292D32" d="M8,8.75 L2,8.75 C1.59,8.75 1.25,8.41 1.25,8 C1.25,7.59 1.59,7.25 2,7.25 L8,7.25 C8.41,7.25 8.75,7.59 8.75,8 C8.75,8.41 8.41,8.75 8,8.75 Z"/>
  <path fill="#292D32" d="M6,11.75 L2,11.75 C1.59,11.75 1.25,11.41 1.25,11 C1.25,10.59 1.59,10.25 2,10.25 L6,10.25 C6.41,10.25 6.75,10.59 6.75,11 C6.75,11.41 6.41,11.75 6,11.75 Z"/>
  <path fill="#292D32" d="M4,14.75 L2,14.75 C1.59,14.75 1.25,14.41 1.25,14 C1.25,13.59 1.59,13.25 2,13.25 L4,13.25 C4.41,13.25 4.75,13.59 4.75,14 C4.75,14.41 4.41,14.75 4,14.75 Z"/>
</svg>

