<svg xmlns="http://www.w3.org/2000/svg" width="24" height="24" viewBox="0 0 24 24">
  <defs/>
  <path fill="#292D32" opacity="0.4" d="M15,3 L15,12 C15,13.1 14.1,14 13,14 L2,14 L2,7.62 C2.73,8.49 3.85,9.03 5.09,9 C6.1,8.98 7.01,8.59 7.69,7.94 C8,7.68 8.26,7.35 8.46,6.99 C8.82,6.38 9.02,5.66 9,4.91 C8.97,3.74 8.45,2.71 7.64,2 L14,2 C14.55,2 15,2.45 15,3 Z"/>
  <path fill="#292D32" d="M22,14 L22,17 C22,18.66 20.66,20 19,20 L18,20 C18,18.9 17.1,18 16,18 C14.9,18 14,18.9 14,20 L10,20 C10,18.9 9.1,18 8,18 C6.9,18 6,18.9 6,20 L5,20 C3.34,20 2,18.66 2,17 L2,14 L13,14 C14.1,14 15,13.1 15,12 L15,5 L16.84,5 C17.56,5 18.22,5.39 18.58,6.01 L20.29,9 L19,9 C18.45,9 18,9.45 18,10 L18,13 C18,13.55 18.45,14 19,14 L22,14 Z"/>
  <path fill="#292D32" opacity="0.4" d="M8,22 C9.105,22 10,21.105 10,20 C10,18.895 9.105,18 8,18 C6.895,18 6,18.895 6,20 C6,21.105 6.895,22 8,22 Z"/>
  <path fill="#292D32" opacity="0.4" d="M16,22 C17.105,22 18,21.105 18,20 C18,18.895 17.105,18 16,18 C14.895,18 14,18.895 14,20 C14,21.105 14.895,22 16,22 Z"/>
  <path fill="#292D32" opacity="0.4" d="M22,12.53 L22,14 L19,14 C18.45,14 18,13.55 18,13 L18,10 C18,9.45 18.45,9 19,9 L20.29,9 L21.74,11.54 C21.91,11.84 22,12.18 22,12.53 Z"/>
  <path fill="#292D32" d="M7.639,2 C6.919,1.36 5.959,0.98 4.909,1 C3.969,1.02 3.109,1.37 2.429,1.93 C1.529,2.68 0.969,3.83 0.999,5.09 C1.019,5.84 1.239,6.54 1.629,7.13 C1.739,7.3 1.859,7.47 1.999,7.62 C2.729,8.49 3.849,9.03 5.089,9 C6.099,8.98 7.009,8.59 7.689,7.94 C7.999,7.68 8.259,7.35 8.459,6.99 C8.819,6.38 9.019,5.66 8.999,4.91 C8.969,3.74 8.449,2.71 7.639,2 Z M7.059,4.52 L4.969,6.54 C4.819,6.68 4.639,6.75 4.449,6.75 C4.259,6.75 4.079,6.68 3.929,6.54 L2.919,5.58 C2.619,5.29 2.609,4.82 2.899,4.52 C3.189,4.22 3.659,4.21 3.959,4.5 L4.449,4.97 L6.019,3.45 C6.319,3.16 6.789,3.17 7.079,3.47 C7.369,3.76 7.359,4.23 7.059,4.52 Z"/>
</svg>

