<svg xmlns="http://www.w3.org/2000/svg" width="24" height="24" viewBox="0 0 24 24">
  <defs/>
  <path fill="#292D32" d="M13,14.75 L2,14.75 C1.59,14.75 1.25,14.41 1.25,14 L1.25,7.62 C1.25,7.3 1.45,7.02 1.74,6.91 C2.04,6.8 2.37,6.89 2.57,7.13 C3.17,7.84 4.04,8.24 4.99,8.24 C5.02,8.24 5.04,8.24 5.07,8.24 C5.87,8.22 6.61,7.92 7.17,7.39 C7.43,7.17 7.64,6.91 7.8,6.62 C8.11,6.09 8.26,5.51 8.25,4.92 C8.23,4 7.83,3.16 7.15,2.55 C6.91,2.34 6.83,2.01 6.94,1.72 C7.05,1.43 7.33,1.23 7.64,1.23 L15,1.23 C15.41,1.23 15.75,1.57 15.75,1.98 L15.75,11.98 C15.75,13.52 14.52,14.75 13,14.75 Z M2.75,13.25 L13,13.25 C13.69,13.25 14.25,12.69 14.25,12 L14.25,2.75 L9.19,2.75 C9.54,3.4 9.73,4.13 9.75,4.89 C9.77,5.76 9.55,6.62 9.11,7.37 C8.87,7.8 8.54,8.21 8.18,8.51 C7.38,9.27 6.28,9.72 5.11,9.75 C4.28,9.78 3.46,9.57 2.76,9.19 L2.76,13.25 L2.75,13.25 Z"/>
  <path fill="#292D32" d="M19,20.75 L18,20.75 C17.59,20.75 17.25,20.41 17.25,20 C17.25,19.31 16.69,18.75 16,18.75 C15.31,18.75 14.75,19.31 14.75,20 C14.75,20.41 14.41,20.75 14,20.75 L10,20.75 C9.59,20.75 9.25,20.41 9.25,20 C9.25,19.31 8.69,18.75 8,18.75 C7.31,18.75 6.75,19.31 6.75,20 C6.75,20.41 6.41,20.75 6,20.75 L5,20.75 C2.93,20.75 1.25,19.07 1.25,17 L1.25,14 C1.25,13.59 1.59,13.25 2,13.25 L13,13.25 C13.69,13.25 14.25,12.69 14.25,12 L14.25,5 C14.25,4.59 14.59,4.25 15,4.25 L16.84,4.25 C17.83,4.25 18.74,4.78 19.23,5.64 L20.94,8.63 C21.07,8.86 21.07,9.15 20.94,9.38 C20.81,9.61 20.56,9.75 20.29,9.75 L19,9.75 C18.86,9.75 18.75,9.86 18.75,10 L18.75,13 C18.75,13.14 18.86,13.25 19,13.25 L22,13.25 C22.41,13.25 22.75,13.59 22.75,14 L22.75,17 C22.75,19.07 21.07,20.75 19,20.75 Z M18.65,19.25 L19,19.25 C20.24,19.25 21.25,18.24 21.25,17 L21.25,14.75 L19,14.75 C18.04,14.75 17.25,13.96 17.25,13 L17.25,10 C17.25,9.04 18.03,8.25 19,8.25 L17.93,6.38 C17.71,5.99 17.29,5.75 16.84,5.75 L15.75,5.75 L15.75,12 C15.75,13.52 14.52,14.75 13,14.75 L2.75,14.75 L2.75,17 C2.75,18.24 3.76,19.25 5,19.25 L5.35,19.25 C5.68,18.1 6.74,17.25 8,17.25 C9.26,17.25 10.32,18.1 10.65,19.25 L13.36,19.25 C13.69,18.1 14.75,17.25 16.01,17.25 C17.27,17.25 18.32,18.1 18.65,19.25 Z"/>
  <path fill="#292D32" d="M8,22.75 C6.48,22.75 5.25,21.52 5.25,20 C5.25,18.48 6.48,17.25 8,17.25 C9.52,17.25 10.75,18.48 10.75,20 C10.75,21.52 9.52,22.75 8,22.75 Z M8,18.75 C7.31,18.75 6.75,19.31 6.75,20 C6.75,20.69 7.31,21.25 8,21.25 C8.69,21.25 9.25,20.69 9.25,20 C9.25,19.31 8.69,18.75 8,18.75 Z"/>
  <path fill="#292D32" d="M16,22.75 C14.48,22.75 13.25,21.52 13.25,20 C13.25,18.48 14.48,17.25 16,17.25 C17.52,17.25 18.75,18.48 18.75,20 C18.75,21.52 17.52,22.75 16,22.75 Z M16,18.75 C15.31,18.75 14.75,19.31 14.75,20 C14.75,20.69 15.31,21.25 16,21.25 C16.69,21.25 17.25,20.69 17.25,20 C17.25,19.31 16.69,18.75 16,18.75 Z"/>
  <path fill="#292D32" d="M22,14.75 L19,14.75 C18.04,14.75 17.25,13.96 17.25,13 L17.25,10 C17.25,9.04 18.04,8.25 19,8.25 L20.29,8.25 C20.56,8.25 20.81,8.39 20.94,8.63 L22.65,11.63 C22.71,11.74 22.75,11.87 22.75,12 L22.75,14 C22.75,14.41 22.41,14.75 22,14.75 Z M19,9.75 C18.86,9.75 18.75,9.86 18.75,10 L18.75,13 C18.75,13.14 18.86,13.25 19,13.25 L21.25,13.25 L21.25,12.2 L19.85,9.75 L19,9.75 Z"/>
  <path fill="#292D32" d="M5,9.75 C3.34,9.75 1.78,8.87 0.94,7.44 C0.49,6.72 0.25,5.87 0.25,5 C0.25,3.54 0.9,2.19 2.03,1.29 C2.87,0.62 3.93,0.25 5,0.25 C7.62,0.25 9.75,2.38 9.75,5 C9.75,5.87 9.51,6.72 9.06,7.45 C8.81,7.87 8.49,8.25 8.11,8.57 C7.28,9.33 6.17,9.75 5,9.75 Z M5,1.75 C4.26,1.75 3.56,2 2.97,2.47 C2.2,3.08 1.75,4.01 1.75,5 C1.75,5.59 1.91,6.17 2.22,6.67 C2.8,7.65 3.87,8.25 5,8.25 C5.79,8.25 6.55,7.96 7.13,7.44 C7.39,7.22 7.61,6.96 7.77,6.68 C8.09,6.17 8.25,5.59 8.25,5 C8.25,3.21 6.79,1.75 5,1.75 Z"/>
  <path fill="#292D32" d="M6.07,6.79 C5.88,6.79 5.69,6.72 5.54,6.57 L3.43,4.46 C3.14,4.17 3.14,3.69 3.43,3.4 C3.72,3.11 4.2,3.11 4.49,3.4 L6.6,5.51 C6.89,5.8 6.89,6.28 6.6,6.57 C6.45,6.72 6.26,6.79 6.07,6.79 Z"/>
  <path fill="#292D32" d="M3.931,6.82 C3.741,6.82 3.551,6.75 3.401,6.6 C3.111,6.31 3.111,5.83 3.401,5.54 L5.511,3.43 C5.801,3.14 6.281,3.14 6.571,3.43 C6.861,3.72 6.861,4.2 6.571,4.49 L4.461,6.6 C4.311,6.75 4.121,6.82 3.931,6.82 Z"/>
</svg>

