<svg xmlns="http://www.w3.org/2000/svg" width="24" height="24" viewBox="0 0 24 24">
  <defs/>
  <path fill="#292D32" d="M14,2.92 L14,11.23 C14,12.25 13.17,13.08 12.15,13.08 L3,13.08 C2.45,13.08 2,12.63 2,12.08 L2,5.69 C2,3.65 3.65,2 5.69,2 L13.07,2 C13.59,2 14,2.41 14,2.92 Z"/>
  <path fill="#292D32" d="M21.5,15.5 C21.78,15.5 22,15.72 22,16 L22,17 C22,18.66 20.66,20 19,20 C19,18.35 17.65,17 16,17 C14.35,17 13,18.35 13,20 L11,20 C11,18.35 9.65,17 8,17 C6.35,17 5,18.35 5,20 C3.34,20 2,18.66 2,17 L2,15 C2,14.45 2.45,14 3,14 L12.5,14 C13.88,14 15,12.88 15,11.5 L15,6 C15,5.45 15.45,5 16,5 L16.84,5 C17.56,5 18.22,5.39 18.58,6.01 L19.22,7.13 C19.31,7.29 19.19,7.5 19,7.5 C17.62,7.5 16.5,8.62 16.5,10 L16.5,13 C16.5,14.38 17.62,15.5 19,15.5 L21.5,15.5 Z"/>
  <path fill="#292D32" d="M8,22 C9.105,22 10,21.105 10,20 C10,18.895 9.105,18 8,18 C6.895,18 6,18.895 6,20 C6,21.105 6.895,22 8,22 Z"/>
  <path fill="#292D32" d="M16,22 C17.105,22 18,21.105 18,20 C18,18.895 17.105,18 16,18 C14.895,18 14,18.895 14,20 C14,21.105 14.895,22 16,22 Z"/>
  <path fill="#292D32" d="M22,12.53 L22,14 L19,14 C18.45,14 18,13.55 18,13 L18,10 C18,9.45 18.45,9 19,9 L20.29,9 L21.74,11.54 C21.91,11.84 22,12.18 22,12.53 Z"/>
</svg>

