<svg xmlns="http://www.w3.org/2000/svg" width="24" height="24" viewBox="0 0 24 24">
  <defs/>
  <path fill="#292D32" d="M13,14.75 L2,14.75 C1.59,14.75 1.25,14.41 1.25,14 L1.25,7.62 C1.25,7.3 1.45,7.02 1.74,6.91 C2.04,6.8 2.37,6.89 2.57,7.13 C3.18,7.86 4.13,8.27 5.07,8.24 C5.87,8.22 6.61,7.92 7.17,7.39 C7.43,7.17 7.64,6.91 7.8,6.62 C8.11,6.09 8.26,5.51 8.25,4.92 C8.23,4 7.83,3.16 7.15,2.55 C6.91,2.34 6.83,2.01 6.94,1.72 C7.05,1.43 7.33,1.23 7.64,1.23 L15,1.23 C15.41,1.23 15.75,1.57 15.75,1.98 L15.75,11.98 C15.75,13.52 14.52,14.75 13,14.75 Z M2.75,13.25 L13,13.25 C13.69,13.25 14.25,12.69 14.25,12 L14.25,2.75 L9.19,2.75 C9.54,3.4 9.73,4.13 9.75,4.89 C9.77,5.76 9.55,6.62 9.11,7.37 C8.87,7.8 8.54,8.21 8.18,8.51 C7.38,9.27 6.28,9.72 5.11,9.75 C4.27,9.78 3.46,9.57 2.76,9.19 L2.76,13.25 L2.75,13.25 Z"/>
  <path fill="#292D32" d="M19,20.75 L18,20.75 C17.59,20.75 17.25,20.41 17.25,20 C17.25,19.31 16.69,18.75 16,18.75 C15.31,18.75 14.75,19.31 14.75,20 C14.75,20.41 14.41,20.75 14,20.75 L10,20.75 C9.59,20.75 9.25,20.41 9.25,20 C9.25,19.31 8.69,18.75 8,18.75 C7.31,18.75 6.75,19.31 6.75,20 C6.75,20.41 6.41,20.75 6,20.75 L5,20.75 C2.93,20.75 1.25,19.07 1.25,17 L1.25,14 C1.25,13.59 1.59,13.25 2,13.25 L13,13.25 C13.69,13.25 14.25,12.69 14.25,12 L14.25,5 C14.25,4.59 14.59,4.25 15,4.25 L16.84,4.25 C17.83,4.25 18.74,4.78 19.23,5.64 L20.94,8.63 C21.07,8.86 21.07,9.15 20.94,9.38 C20.81,9.61 20.56,9.75 20.29,9.75 L19,9.75 C18.86,9.75 18.75,9.86 18.75,10 L18.75,13 C18.75,13.14 18.86,13.25 19,13.25 L22,13.25 C22.41,13.25 22.75,13.59 22.75,14 L22.75,17 C22.75,19.07 21.07,20.75 19,20.75 Z M18.65,19.25 L19,19.25 C20.24,19.25 21.25,18.24 21.25,17 L21.25,14.75 L19,14.75 C18.04,14.75 17.25,13.96 17.25,13 L17.25,10 C17.25,9.04 18.03,8.25 19,8.25 L17.93,6.38 C17.71,5.99 17.29,5.75 16.84,5.75 L15.75,5.75 L15.75,12 C15.75,13.52 14.52,14.75 13,14.75 L2.75,14.75 L2.75,17 C2.75,18.24 3.76,19.25 5,19.25 L5.35,19.25 C5.68,18.1 6.74,17.25 8,17.25 C9.26,17.25 10.32,18.1 10.65,19.25 L13.36,19.25 C13.69,18.1 14.75,17.25 16.01,17.25 C17.27,17.25 18.32,18.1 18.65,19.25 Z"/>
  <path fill="#292D32" d="M8,22.75 C6.48,22.75 5.25,21.52 5.25,20 C5.25,18.48 6.48,17.25 8,17.25 C9.52,17.25 10.75,18.48 10.75,20 C10.75,21.52 9.52,22.75 8,22.75 Z M8,18.75 C7.31,18.75 6.75,19.31 6.75,20 C6.75,20.69 7.31,21.25 8,21.25 C8.69,21.25 9.25,20.69 9.25,20 C9.25,19.31 8.69,18.75 8,18.75 Z"/>
  <path fill="#292D32" d="M16,22.75 C14.48,22.75 13.25,21.52 13.25,20 C13.25,18.48 14.48,17.25 16,17.25 C17.52,17.25 18.75,18.48 18.75,20 C18.75,21.52 17.52,22.75 16,22.75 Z M16,18.75 C15.31,18.75 14.75,19.31 14.75,20 C14.75,20.69 15.31,21.25 16,21.25 C16.69,21.25 17.25,20.69 17.25,20 C17.25,19.31 16.69,18.75 16,18.75 Z"/>
  <path fill="#292D32" d="M22,14.75 L19,14.75 C18.04,14.75 17.25,13.96 17.25,13 L17.25,10 C17.25,9.04 18.04,8.25 19,8.25 L20.29,8.25 C20.56,8.25 20.81,8.39 20.94,8.63 L22.65,11.63 C22.71,11.74 22.75,11.87 22.75,12 L22.75,14 C22.75,14.41 22.41,14.75 22,14.75 Z M19,9.75 C18.86,9.75 18.75,9.86 18.75,10 L18.75,13 C18.75,13.14 18.86,13.25 19,13.25 L21.25,13.25 L21.25,12.2 L19.85,9.75 L19,9.75 Z"/>
  <path fill="#292D32" d="M4.99,9.75 C3.61,9.75 2.31,9.15 1.43,8.1 C1.29,7.95 1.14,7.74 1.01,7.54 C0.54,6.83 0.28,5.99 0.26,5.11 C0.22,3.65 0.84,2.28 1.96,1.35 C2.81,0.65 3.83,0.27 4.91,0.25 C6.09,0.26 7.27,0.65 8.15,1.44 C9.15,2.32 9.73,3.55 9.76,4.89 C9.78,5.76 9.56,6.62 9.12,7.37 C8.88,7.8 8.55,8.21 8.19,8.51 C7.39,9.27 6.29,9.72 5.12,9.75 C5.07,9.75 5.03,9.75 4.99,9.75 Z M4.99,1.75 C4.97,1.75 4.95,1.75 4.93,1.75 C4.2,1.76 3.5,2.03 2.91,2.51 C2.15,3.14 1.73,4.08 1.75,5.07 C1.77,5.67 1.94,6.24 2.26,6.71 C2.35,6.85 2.44,6.98 2.55,7.1 C3.19,7.86 4.14,8.26 5.07,8.24 C5.87,8.22 6.61,7.92 7.17,7.39 C7.43,7.17 7.64,6.91 7.8,6.62 C8.11,6.09 8.26,5.51 8.25,4.92 C8.23,4 7.83,3.16 7.15,2.55 C6.55,2.04 5.79,1.75 4.99,1.75 Z"/>
  <path fill="#292D32" d="M4.449,6.75 C4.259,6.75 4.079,6.68 3.929,6.54 L2.919,5.58 C2.619,5.29 2.609,4.82 2.899,4.52 C3.189,4.22 3.659,4.21 3.959,4.5 L4.449,4.97 L6.019,3.45 C6.319,3.16 6.789,3.17 7.079,3.47 C7.369,3.77 7.359,4.24 7.059,4.53 L4.969,6.55 C4.819,6.68 4.629,6.75 4.449,6.75 Z"/>
</svg>

