<svg xmlns="http://www.w3.org/2000/svg" width="24" height="24" viewBox="0 0 24 24">
  <defs/>
  <path fill="#292D32" d="M16.19,2 L7.81,2 C4.17,2 2,4.17 2,7.81 L2,16.18 C2,19.83 4.17,22 7.81,22 L16.18,22 C19.82,22 21.99,19.83 21.99,16.19 L21.99,7.81 C22,4.17 19.83,2 16.19,2 Z M15.76,15.76 C15.7,16.61 15.63,17.67 13.71,17.67 L10.29,17.67 C8.38,17.67 8.3,16.61 8.24,15.76 L7.93,11.8 C7.91,11.54 8,11.29 8.17,11.1 C8.34,10.91 8.59,10.81 8.84,10.81 L15.16,10.81 C15.41,10.81 15.66,10.92 15.83,11.1 C16,11.29 16.09,11.54 16.07,11.79 L15.76,15.76 Z M16.8,9.82 C16.78,9.82 16.76,9.82 16.74,9.82 C15.7,9.72 14.75,9.65 13.84,9.61 C12.62,9.55 11.4,9.53 10.17,9.58 C9.57,9.61 8.96,9.65 8.36,9.71 L7.27,9.82 C7.25,9.82 7.22,9.82 7.2,9.82 C6.85,9.82 6.55,9.56 6.52,9.2 C6.48,8.83 6.76,8.49 7.13,8.46 L8.22,8.35 C8.65,8.31 9.07,8.28 9.5,8.26 L9.58,7.79 C9.66,7.29 9.81,6.33 11.31,6.33 L12.7,6.33 C14.21,6.33 14.36,7.32 14.43,7.8 L14.51,8.28 C15.26,8.32 16.03,8.38 16.87,8.46 C17.25,8.5 17.52,8.83 17.49,9.21 C17.45,9.56 17.15,9.82 16.8,9.82 Z"/>
</svg>

