<svg xmlns="http://www.w3.org/2000/svg" width="24" height="24" viewBox="0 0 24 24">
  <defs/>
  <path fill="#292D32" d="M15,22.75 L9,22.75 C3.57,22.75 1.25,20.43 1.25,15 L1.25,9 C1.25,3.57 3.57,1.25 9,1.25 L15,1.25 C20.43,1.25 22.75,3.57 22.75,9 L22.75,15 C22.75,20.43 20.43,22.75 15,22.75 Z M9,2.75 C4.39,2.75 2.75,4.39 2.75,9 L2.75,15 C2.75,19.61 4.39,21.25 9,21.25 L15,21.25 C19.61,21.25 21.25,19.61 21.25,15 L21.25,9 C21.25,4.39 19.61,2.75 15,2.75 L9,2.75 Z"/>
  <path fill="#292D32" d="M17.899,9.8 C17.879,9.8 17.849,9.8 17.829,9.8 C14.369,9.46 10.929,9.32 7.519,9.67 L6.179,9.8 C5.759,9.84 5.399,9.54 5.359,9.13 C5.319,8.72 5.619,8.35 6.029,8.31 L7.369,8.18 C10.879,7.83 14.419,7.96 17.979,8.31 C18.389,8.35 18.689,8.72 18.649,9.13 C18.609,9.51 18.279,9.8 17.899,9.8 Z"/>
  <path fill="#292D32" d="M14.29,9.14 C13.93,9.14 13.61,8.88 13.55,8.52 L13.409,7.67 C13.389,7.53 13.35,7.31 13.309,7.26 C13.309,7.26 13.21,7.2 12.85,7.2 L11.13,7.2 C10.759,7.2 10.659,7.26 10.659,7.26 C10.639,7.3 10.6,7.52 10.579,7.66 L10.44,8.52 C10.37,8.93 9.979,9.2 9.579,9.14 C9.169,9.07 8.899,8.68 8.96,8.28 L9.1,7.42 C9.21,6.78 9.389,5.71 11.13,5.71 L12.85,5.71 C14.6,5.71 14.78,6.83 14.88,7.43 L15.02,8.28 C15.089,8.69 14.809,9.08 14.409,9.14 C14.38,9.14 14.329,9.14 14.29,9.14 Z"/>
  <path fill="#292D32" d="M14.1,18.31 L9.89,18.31 C7.36,18.31 7.25,16.79 7.18,15.78 L6.75,9.17 C6.72,8.76 7.04,8.4 7.45,8.37 C7.87,8.34 8.22,8.66 8.25,9.07 L8.68,15.67 C8.75,16.65 8.76,16.8 9.89,16.8 L14.1,16.8 C15.23,16.8 15.24,16.65 15.31,15.67 L15.74,9.07 C15.77,8.66 16.11,8.34 16.54,8.37 C16.95,8.4 17.27,8.75 17.24,9.17 L16.81,15.77 C16.74,16.79 16.64,18.31 14.1,18.31 Z"/>
</svg>

