<svg xmlns="http://www.w3.org/2000/svg" width="24" height="24" viewBox="0 0 24 24">
  <defs/>
  <path fill="#292D32" d="M9,22.75 Q1.25,22.75 1.25,15 L1.25,9 Q1.25,1.25 9,1.25 L15,1.25 Q22.75,1.25 22.75,9 L22.75,15 Q22.75,22.75 15,22.75 Z M9,21.25 L15,21.25 Q18.439,21.25 19.845,19.845 Q21.25,18.439 21.25,15 L21.25,9 Q21.25,2.75 15,2.75 L9,2.75 Q2.75,2.75 2.75,9 L2.75,15 Q2.75,18.439 4.155,19.845 Q5.561,21.25 9,21.25 Z"/>
  <path fill="#292D32" d="M17.825,9.796 Q14.592,9.47 11.33,9.47 Q9.462,9.47 7.515,9.666 L6.172,9.796 Q5.863,9.826 5.623,9.629 Q5.383,9.432 5.353,9.122 Q5.323,8.813 5.521,8.573 Q5.718,8.333 6.028,8.303 L7.365,8.174 Q9.387,7.97 11.33,7.97 Q14.668,7.97 17.975,8.304 Q18.284,8.335 18.481,8.576 Q18.677,8.816 18.646,9.125 Q18.615,9.434 18.374,9.631 Q18.134,9.827 17.825,9.796 Z"/>
  <path fill="#292D32" d="M8.97,8.269 L9.11,7.409 Q9.387,5.69 11.14,5.69 L12.86,5.69 Q14.604,5.69 14.889,7.404 L14.89,7.407 L15.03,8.258 Q15.08,8.565 14.899,8.817 Q14.718,9.069 14.412,9.12 Q14.105,9.17 13.853,8.989 Q13.6,8.808 13.55,8.502 L13.41,7.653 L13.41,7.65 Q13.333,7.19 12.86,7.19 L11.14,7.19 Q10.664,7.19 10.59,7.65 L10.45,8.51 Q10.4,8.817 10.148,8.999 Q9.896,9.18 9.589,9.13 Q9.283,9.08 9.101,8.828 Q8.92,8.576 8.97,8.269 Z"/>
  <path fill="#292D32" d="M17.238,9.179 L16.808,15.779 Q16.636,18.31 14.1,18.31 L9.89,18.31 Q7.354,18.31 7.182,15.781 L6.752,9.179 Q6.731,8.869 6.936,8.635 Q7.141,8.402 7.451,8.381 Q7.761,8.361 7.995,8.566 Q8.228,8.771 8.248,9.081 L8.678,15.679 Q8.755,16.81 9.89,16.81 L14.1,16.81 Q15.235,16.81 15.312,15.681 L15.742,9.081 Q15.762,8.771 15.995,8.566 Q16.229,8.361 16.539,8.381 Q16.849,8.402 17.054,8.635 Q17.259,8.869 17.238,9.179 Z"/>
</svg>

