<svg xmlns="http://www.w3.org/2000/svg" width="24" height="24" viewBox="0 0 24 24">
  <defs/>
  <path fill="#292D32" opacity="0.4" d="M16.19,2 L7.82,2 C4.18,2 2.01,4.17 2.01,7.81 L2.01,16.18 C2.01,19.82 4.18,21.99 7.82,21.99 L16.19,21.99 C19.83,21.99 22,19.82 22,16.18 L22,7.81 C22,4.17 19.83,2 16.19,2 Z"/>
  <path fill="#292D32" d="M16.86,8.46 C16.02,8.38 15.25,8.33 14.5,8.28 L14.42,7.8 C14.35,7.32 14.2,6.33 12.69,6.33 L11.3,6.33 C9.81,6.33 9.65,7.28 9.57,7.79 L9.49,8.26 C9.06,8.29 8.64,8.31 8.21,8.35 L7.12,8.46 C6.74,8.5 6.47,8.83 6.51,9.21 C6.55,9.56 6.84,9.83 7.19,9.83 C7.21,9.83 7.24,9.83 7.26,9.83 L8.34,9.72 C8.94,9.67 9.55,9.62 10.15,9.59 C11.37,9.54 12.59,9.56 13.82,9.62 C14.73,9.66 15.68,9.73 16.72,9.83 C16.74,9.83 16.76,9.83 16.78,9.83 C17.13,9.83 17.43,9.56 17.46,9.21 C17.51,8.83 17.24,8.49 16.86,8.46 Z"/>
  <path fill="#292D32" d="M15.831,11.1 C15.661,10.91 15.411,10.81 15.161,10.81 L8.84,10.81 C8.59,10.81 8.34,10.92 8.17,11.1 C8,11.29 7.91,11.54 7.93,11.79 L8.241,15.75 C8.3,16.6 8.37,17.66 10.29,17.66 L13.71,17.66 C15.63,17.66 15.7,16.6 15.761,15.75 L16.07,11.79 C16.09,11.54 16,11.29 15.831,11.1 Z"/>
</svg>

