<svg xmlns="http://www.w3.org/2000/svg" width="24" height="24" viewBox="0 0 24 24">
  <defs/>
  <path d="M9.5,22.75 L6.5,22.75 C6.09,22.75 5.75,22.41 5.75,22 L5.75,19.75 L2.5,19.75 C2.09,19.75 1.75,19.41 1.75,19 L1.75,5 C1.75,4.85 1.79,4.71 1.88,4.58 L3.88,1.58 C4.02,1.37 4.25,1.25 4.5,1.25 L21.5,1.25 C21.91,1.25 22.25,1.59 22.25,2 L22.25,14 C22.25,14.2 22.17,14.39 22.03,14.53 L17.03,19.53 C16.89,19.67 16.7,19.75 16.5,19.75 L11.9,19.75 L10.12,22.42 C9.98,22.62 9.75,22.75 9.5,22.75 Z M7.25,21.25 L9.1,21.25 L10.88,18.58 C11.02,18.37 11.25,18.25 11.5,18.25 L16.19,18.25 L20.75,13.69 L20.75,2.75 L4.9,2.75 L3.25,5.23 L3.25,18.25 L6.5,18.25 C6.91,18.25 7.25,18.59 7.25,19 L7.25,21.25 Z"/>
  <path d="M11,13.75 L9,13.75 C8.59,13.75 8.25,13.41 8.25,13 L8.25,7 C8.25,6.59 8.59,6.25 9,6.25 L11,6.25 C11.41,6.25 11.75,6.59 11.75,7 L11.75,13 C11.75,13.41 11.41,13.75 11,13.75 Z M9.75,12.25 L10.25,12.25 L10.25,7.75 L9.75,7.75 L9.75,12.25 Z"/>
  <path d="M16,13.75 L14,13.75 C13.59,13.75 13.25,13.41 13.25,13 L13.25,7 C13.25,6.59 13.59,6.25 14,6.25 L16,6.25 C16.41,6.25 16.75,6.59 16.75,7 L16.75,13 C16.75,13.41 16.41,13.75 16,13.75 Z M14.75,12.25 L15.25,12.25 L15.25,7.75 L14.75,7.75 L14.75,12.25 Z"/>
</svg>

