<svg xmlns="http://www.w3.org/2000/svg" width="24" height="24" viewBox="0 0 24 24">
  <defs/>
  <path d="M1.75,7 L1.75,5 Q1.75,4.773 1.876,4.584 L3.876,1.584 Q4.099,1.25 4.5,1.25 L21.5,1.25 Q21.811,1.25 22.03,1.47 Q22.25,1.689 22.25,2 L22.25,14 Q22.25,14.311 22.03,14.53 L17.03,19.53 Q16.811,19.75 16.5,19.75 L11.901,19.75 L10.124,22.416 Q9.901,22.75 9.5,22.75 L6.5,22.75 Q6.189,22.75 5.97,22.53 Q5.75,22.311 5.75,22 L5.75,19.75 L2.5,19.75 Q2.189,19.75 1.97,19.53 Q1.75,19.311 1.75,19 L1.75,11.61 Q1.75,11.299 1.97,11.08 Q2.189,10.86 2.5,10.86 Q2.811,10.86 3.03,11.08 Q3.25,11.299 3.25,11.61 L3.25,18.25 L6.5,18.25 Q6.811,18.25 7.03,18.47 Q7.25,18.689 7.25,19 L7.25,21.25 L9.099,21.25 L10.876,18.584 Q11.099,18.25 11.5,18.25 L16.189,18.25 L20.75,13.689 L20.75,2.75 L4.901,2.75 L3.25,5.227 L3.25,7 Q3.25,7.311 3.03,7.53 Q2.811,7.75 2.5,7.75 Q2.189,7.75 1.97,7.53 Q1.75,7.311 1.75,7 Z"/>
  <path d="M8.25,7 Q8.25,6.689 8.47,6.47 Q8.689,6.25 9,6.25 L11,6.25 Q11.311,6.25 11.53,6.47 Q11.75,6.689 11.75,7 L11.75,13 Q11.75,13.311 11.53,13.53 Q11.311,13.75 11,13.75 L9,13.75 Q8.689,13.75 8.47,13.53 Q8.25,13.311 8.25,13 Z M9.75,7.75 L9.75,12.25 L10.25,12.25 L10.25,7.75 Z"/>
  <path d="M13.25,7 Q13.25,6.689 13.47,6.47 Q13.689,6.25 14,6.25 L16,6.25 Q16.311,6.25 16.53,6.47 Q16.75,6.689 16.75,7 L16.75,13 Q16.75,13.311 16.53,13.53 Q16.311,13.75 16,13.75 L14,13.75 Q13.689,13.75 13.47,13.53 Q13.25,13.311 13.25,13 Z M14.75,7.75 L14.75,12.25 L15.25,12.25 L15.25,7.75 Z"/>
</svg>

