<svg xmlns="http://www.w3.org/2000/svg" width="24" height="24" viewBox="0 0 24 24">
  <defs/>
  <path fill="white" opacity="0.58" d="M24,0 L0,0 L0,24 L24,24 L24,0 Z"/>
  <path fill="#292D32" opacity="0.4" d="M5.04,2 L20.5,2 C21.05,2 21.5,2.45 21.5,3 L21.5,13.59 C21.5,13.86 21.39,14.11 21.21,14.3 L16.8,18.71 C16.61,18.9 16.36,19 16.09,19 L12.04,19 C11.71,19 11.39,19.17 11.21,19.45 L9.8,21.56 C9.61,21.84 9.3,22.01 8.97,22.01 L7.51,22.01 C6.96,22.01 6.51,21.56 6.51,21.01 L6.51,20.01 C6.51,19.46 6.06,19.01 5.51,19.01 L3.51,19.01 C2.96,19.01 2.51,18.56 2.51,18.01 L2.51,5.31 C2.51,5.11 2.57,4.92 2.68,4.76 L4.22,2.46 C4.39,2.17 4.7,2 5.04,2 Z"/>
  <path fill="#292D32" d="M8.5,7.14 C8.5,6.83 8.76,6.57 9.07,6.57 L10.21,6.57 C10.52,6.57 10.78,6.82 10.78,7.14 L10.78,12.85 C10.78,13.16 10.53,13.42 10.21,13.42 L9.07,13.42 C8.76,13.42 8.5,13.17 8.5,12.85 L8.5,7.14 Z"/>
  <path fill="#292D32" d="M14.211,7.14 C14.211,6.83 14.471,6.57 14.781,6.57 L15.921,6.57 C16.231,6.57 16.491,6.82 16.491,7.14 L16.491,12.85 C16.491,13.16 16.241,13.42 15.921,13.42 L14.781,13.42 C14.471,13.42 14.211,13.17 14.211,12.85 L14.211,7.14 Z"/>
</svg>

