<svg xmlns="http://www.w3.org/2000/svg" width="24" height="24" viewBox="0 0 24 24">
  <defs/>
  <path d="M20.5,2 C21.05,2 21.5,2.45 21.49,3 L21.49,13.58 C21.49,13.85 21.39,14.1 21.2,14.29 L16.79,18.7 C16.6,18.88 16.35,18.99 16.08,18.99 L12.03,18.99 C11.7,18.99 11.39,19.16 11.2,19.44 L9.79,21.55 C9.61,21.83 9.29,22 8.96,22 L7.5,22 C6.95,22 6.5,21.55 6.5,21 L6.5,20 C6.5,19.45 6.05,19 5.5,19 L3.5,19 C2.95,19 2.5,18.55 2.5,18 L2.5,5.3 C2.5,5.11 2.56,4.91 2.67,4.75 L4.21,2.45 C4.39,2.17 4.71,2 5.04,2 Z M10.79,12.86 L10.79,7.15 C10.79,6.84 10.54,6.58 10.22,6.58 L9.08,6.58 C8.77,6.58 8.51,6.83 8.51,7.15 L8.51,12.86 C8.51,13.17 8.76,13.43 9.08,13.43 L10.22,13.43 C10.53,13.43 10.79,13.18 10.79,12.86 Z M16.5,12.86 L16.5,7.15 C16.5,6.84 16.25,6.58 15.93,6.58 L14.79,6.58 C14.48,6.58 14.22,6.83 14.22,7.15 L14.22,12.86 C14.22,13.17 14.47,13.43 14.79,13.43 L15.93,13.43 C16.24,13.43 16.5,13.18 16.5,12.86 Z"/>
</svg>

