<svg xmlns="http://www.w3.org/2000/svg" width="24" height="24" viewBox="0 0 24 24">
  <defs/>
  <path d="M10.5,22.54 C10.1,22.54 9.71,22.45 9.34,22.28 L2.84,19.22 C1.88,18.77 1.26,17.79 1.26,16.73 L1.26,9.27 C1.26,8.21 1.88,7.23 2.84,6.78 L9.34,3.72 C10.08,3.37 10.93,3.38 11.67,3.72 L14.34,4.98 C14.65,5.13 14.82,5.46 14.76,5.79 C14.75,5.86 14.75,5.93 14.75,6 C14.75,7.79 16.21,9.25 18,9.25 C18.29,9.25 18.55,9.22 18.8,9.15 C19.02,9.08 19.27,9.13 19.46,9.27 C19.65,9.41 19.76,9.63 19.76,9.87 L19.76,16.73 C19.76,17.79 19.14,18.77 18.18,19.22 L11.68,22.28 C11.3,22.45 10.9,22.54 10.5,22.54 Z M10.5,4.96 C10.32,4.96 10.13,5 9.96,5.08 L3.46,8.14 C3.02,8.35 2.74,8.78 2.74,9.27 L2.74,16.73 C2.74,17.22 3.02,17.65 3.46,17.86 L9.96,20.92 C10.3,21.07 10.69,21.08 11.03,20.92 L17.53,17.86 C17.97,17.65 18.25,17.22 18.25,16.73 L18.25,10.74 C18.17,10.74 18.08,10.75 18,10.75 C15.42,10.75 13.32,8.69 13.25,6.13 L11.03,5.08 C10.86,5 10.68,4.96 10.5,4.96 Z"/>
  <path d="M9,16.25 C7.48,16.25 6.25,15.02 6.25,13.5 L6.25,10.5 C6.25,10.09 6.59,9.75 7,9.75 C7.41,9.75 7.75,10.09 7.75,10.5 L7.75,13.5 C7.75,14.19 8.31,14.75 9,14.75 C9.69,14.75 10.25,14.19 10.25,13.5 L10.25,10.5 C10.25,10.09 10.59,9.75 11,9.75 C11.41,9.75 11.75,10.09 11.75,10.5 L11.75,13.5 C11.75,15.02 10.52,16.25 9,16.25 Z"/>
  <path d="M14,16.19 C13.59,16.19 13.25,15.85 13.25,15.44 L13.25,10.5 C13.25,10.09 13.59,9.75 14,9.75 C14.41,9.75 14.75,10.09 14.75,10.5 L14.75,15.44 C14.75,15.86 14.41,16.19 14,16.19 Z"/>
  <path d="M18,10.75 C15.38,10.75 13.25,8.62 13.25,6 C13.25,5.85 13.25,5.68 13.28,5.53 C13.48,3.12 15.51,1.25 18,1.25 C20.62,1.25 22.75,3.38 22.75,6 C22.75,8.17 21.28,10.06 19.19,10.6 C18.82,10.7 18.43,10.75 18,10.75 Z M18,2.75 C16.3,2.75 14.91,4.03 14.77,5.72 C14.75,5.86 14.75,5.93 14.75,6 C14.75,7.79 16.21,9.25 18,9.25 C18.29,9.25 18.55,9.22 18.8,9.15 C20.25,8.78 21.25,7.49 21.25,6 C21.25,4.21 19.79,2.75 18,2.75 Z"/>
  <path d="M19.09,5.91 C19.33,5.7 19.46,5.42 19.46,5.08 C19.46,4.31 18.88,3.8 18,3.8 C17.12,3.8 16.54,4.32 16.54,5.08 C16.54,5.41 16.67,5.7 16.91,5.91 C16.59,6.15 16.41,6.5 16.41,6.89 C16.41,7.7 17.02,8.2 18.01,8.2 C19,8.2 19.61,7.7 19.61,6.89 C19.6,6.49 19.42,6.14 19.09,5.91 Z M18,5.51 C17.73,5.51 17.56,5.36 17.56,5.13 C17.56,4.85 17.79,4.76 18,4.76 C18.21,4.76 18.44,4.86 18.44,5.13 C18.44,5.36 18.27,5.51 18,5.51 Z M18,6.34 C18.28,6.34 18.58,6.46 18.58,6.79 C18.58,7.08 18.36,7.25 18,7.25 C17.64,7.25 17.42,7.08 17.42,6.79 C17.42,6.38 17.86,6.34 18,6.34 Z"/>
</svg>

