<svg xmlns="http://www.w3.org/2000/svg" width="24" height="24" viewBox="0 0 24 24">
  <defs/>
  <path d="M19.75,9.87 L19.75,16.73 Q19.75,18.473 18.17,19.218 L11.669,22.278 Q10.5,22.82 9.335,22.281 L2.831,19.218 Q1.25,18.473 1.25,16.73 L1.25,9.27 Q1.25,7.526 2.83,6.782 L9.331,3.721 Q10.5,3.18 11.665,3.719 L14.34,4.982 Q14.861,5.227 14.758,5.794 Q14.75,5.838 14.75,6 Q14.75,9.25 18,9.25 Q18.434,9.25 18.797,9.148 Q19.096,9.064 19.367,9.216 Q19.638,9.368 19.722,9.667 Q19.75,9.766 19.75,9.87 Z M18.25,10.744 Q18.127,10.75 18,10.75 Q16.032,10.75 14.641,9.359 Q13.295,8.013 13.251,6.127 L11.035,5.081 Q10.5,4.833 9.969,5.078 L3.47,8.138 Q2.75,8.478 2.75,9.27 L2.75,16.73 Q2.75,17.522 3.469,17.861 L9.965,20.919 Q10.5,21.167 11.031,20.921 L17.53,17.862 Q18.25,17.522 18.25,16.73 L18.25,10.744 Z"/>
  <path opacity="0.4" d="M7.75,10.5 L7.75,13.5 Q7.75,14.014 8.118,14.382 Q8.486,14.75 9,14.75 Q10.25,14.75 10.25,13.5 L10.25,10.5 Q10.25,10.189 10.47,9.97 Q10.689,9.75 11,9.75 Q11.311,9.75 11.53,9.97 Q11.75,10.189 11.75,10.5 L11.75,13.5 Q11.75,16.25 9,16.25 Q6.25,16.25 6.25,13.5 L6.25,10.5 Q6.25,10.189 6.47,9.97 Q6.689,9.75 7,9.75 Q7.311,9.75 7.53,9.97 Q7.75,10.189 7.75,10.5 Z"/>
  <path opacity="0.4" d="M14.75,10.5 L14.75,15.44 Q14.75,15.751 14.53,15.97 Q14.311,16.19 14,16.19 Q13.689,16.19 13.47,15.97 Q13.25,15.751 13.25,15.44 L13.25,10.5 Q13.25,10.189 13.47,9.97 Q13.689,9.75 14,9.75 Q14.311,9.75 14.53,9.97 Q14.75,10.189 14.75,10.5 Z"/>
  <path d="M22.75,6 Q22.75,9.686 19.194,10.595 Q18.636,10.75 18,10.75 Q16.032,10.75 14.641,9.359 Q13.25,7.968 13.25,6 Q13.25,5.737 13.275,5.569 Q13.648,1.25 18,1.25 Q19.968,1.25 21.359,2.641 Q22.75,4.032 22.75,6 Z M21.25,6 Q21.25,2.75 18,2.75 Q15.014,2.75 14.767,5.722 L14.764,5.758 L14.758,5.794 Q14.75,5.838 14.75,6 Q14.75,9.25 18,9.25 Q18.434,9.25 18.797,9.148 L18.806,9.145 L18.815,9.143 Q21.25,8.524 21.25,6 Z"/>
  <path d="M19.09,5.91 C19.33,5.7 19.46,5.42 19.46,5.08 C19.46,4.31 18.88,3.8 18,3.8 C17.12,3.8 16.54,4.32 16.54,5.08 C16.54,5.41 16.67,5.7 16.91,5.91 C16.59,6.15 16.41,6.5 16.41,6.89 C16.41,7.7 17.02,8.2 18.01,8.2 C19,8.2 19.61,7.7 19.61,6.89 C19.6,6.49 19.42,6.14 19.09,5.91 Z M18,5.51 C17.73,5.51 17.56,5.36 17.56,5.13 C17.56,4.85 17.79,4.76 18,4.76 C18.21,4.76 18.44,4.86 18.44,5.13 C18.44,5.36 18.27,5.51 18,5.51 Z M18,6.34 C18.28,6.34 18.58,6.46 18.58,6.79 C18.58,7.08 18.36,7.25 18,7.25 C17.64,7.25 17.42,7.08 17.42,6.79 C17.42,6.38 17.86,6.34 18,6.34 Z"/>
</svg>

