<svg xmlns="http://www.w3.org/2000/svg" width="24" height="24" viewBox="0 0 24 24">
  <defs/>
  <path d="M18,6.34 C17.86,6.34 17.42,6.37 17.42,6.79 C17.42,7.08 17.64,7.25 18,7.25 C18.36,7.25 18.58,7.08 18.58,6.79 C18.58,6.46 18.28,6.34 18,6.34 Z"/>
  <path d="M18,5.512 C18.27,5.512 18.441,5.362 18.441,5.132 C18.441,4.852 18.21,4.762 18,4.762 C17.791,4.762 17.561,4.862 17.561,5.132 C17.561,5.362 17.73,5.512 18,5.512 Z"/>
  <path d="M18,2 C15.9,2 14.19,3.61 14.02,5.66 C14,5.77 14,5.89 14,6 C14,8.21 15.79,10 18,10 C18.35,10 18.68,9.96 19,9.87 C20.73,9.43 22,7.86 22,6 C22,3.79 20.21,2 18,2 Z M18,8.2 C17.01,8.2 16.4,7.7 16.4,6.89 C16.4,6.5 16.58,6.15 16.9,5.91 C16.66,5.7 16.53,5.41 16.53,5.08 C16.53,4.31 17.12,3.8 17.99,3.8 C18.86,3.8 19.45,4.32 19.45,5.08 C19.45,5.41 19.33,5.7 19.08,5.91 C19.41,6.14 19.59,6.49 19.59,6.89 C19.6,7.7 18.99,8.2 18,8.2 Z"/>
  <path d="M18,11.498 C16.85,11.498 15.78,11.149 14.9,10.539 C14.83,10.489 14.74,10.538 14.74,10.618 L14.75,15.438 C14.75,15.858 14.41,16.188 14,16.188 C13.59,16.188 13.25,15.858 13.25,15.438 L13.25,10.498 C13.25,10.168 13.47,9.888 13.77,9.788 C13.85,9.758 13.9,9.648 13.84,9.588 C13.01,8.628 12.5,7.378 12.5,6.008 C12.5,5.838 12.51,5.658 12.53,5.488 C12.53,5.448 12.54,5.418 12.54,5.378 C12.57,5.148 12.45,4.928 12.25,4.828 L11.35,4.398 C10.81,4.148 10.19,4.148 9.65,4.398 L3.15,7.458 C2.45,7.788 2,8.488 2,9.268 L2,16.729 C2,17.509 2.45,18.209 3.15,18.538 L9.65,21.598 C10.19,21.848 10.81,21.848 11.35,21.598 L17.85,18.538 C18.55,18.209 19,17.509 19,16.729 L19,12.018 C19,11.708 18.71,11.468 18.4,11.488 C18.27,11.498 18.14,11.498 18,11.498 Z M11.75,13.498 C11.75,15.018 10.52,16.248 9,16.248 C7.48,16.248 6.25,15.018 6.25,13.498 L6.25,10.498 C6.25,10.088 6.59,9.748 7,9.748 C7.41,9.748 7.75,10.088 7.75,10.498 L7.75,13.498 C7.75,14.188 8.31,14.748 9,14.748 C9.69,14.748 10.25,14.188 10.25,13.498 L10.25,10.498 C10.25,10.088 10.59,9.748 11,9.748 C11.41,9.748 11.75,10.088 11.75,10.498 L11.75,13.498 Z"/>
</svg>

