<svg xmlns="http://www.w3.org/2000/svg" width="24" height="24" viewBox="0 0 24 24">
  <defs/>
  <path fill="#17191C" d="M19.75,9.9 L19.75,16.8 Q19.75,18.614 18.21,19.283 L11.723,22.377 Q11.701,22.387 11.679,22.396 Q10.55,22.848 9.422,22.396 Q9.399,22.387 9.377,22.377 L2.89,19.283 Q1.35,18.614 1.35,16.8 L1.35,9.3 Q1.35,7.486 2.89,6.817 L9.377,3.723 Q9.399,3.713 9.422,3.704 Q10.55,3.252 11.679,3.704 Q11.708,3.715 11.736,3.729 L14.336,5.029 Q14.75,5.236 14.75,5.7 L14.75,6 Q14.75,7.339 15.705,8.295 Q16.661,9.25 18,9.25 Q18.578,9.25 18.763,9.188 Q19.058,9.09 19.336,9.229 Q19.613,9.368 19.712,9.663 Q19.75,9.778 19.75,9.9 Z M18.25,10.747 Q18.13,10.75 18,10.75 Q16.039,10.75 14.645,9.355 Q13.309,8.02 13.253,6.165 L11.095,5.086 Q10.547,4.877 9.999,5.088 L3.523,8.177 Q3.509,8.183 3.496,8.189 Q2.85,8.466 2.85,9.3 L2.85,16.8 Q2.85,17.634 3.496,17.911 Q3.509,17.917 3.523,17.923 L9.999,21.012 Q10.55,21.224 11.101,21.012 L17.577,17.923 Q17.591,17.917 17.605,17.911 Q18.25,17.634 18.25,16.8 L18.25,10.747 Z"/>
  <path fill="#17191C" d="M7.75,10.5 L7.75,13.5 Q7.75,14.014 8.118,14.382 Q8.486,14.75 9,14.75 Q10.25,14.75 10.25,13.5 L10.25,10.5 Q10.25,10.189 10.47,9.97 Q10.689,9.75 11,9.75 Q11.311,9.75 11.53,9.97 Q11.75,10.189 11.75,10.5 L11.75,13.5 Q11.75,16.25 9,16.25 Q6.25,16.25 6.25,13.5 L6.25,10.5 Q6.25,10.189 6.47,9.97 Q6.689,9.75 7,9.75 Q7.311,9.75 7.53,9.97 Q7.75,10.189 7.75,10.5 Z"/>
  <path fill="#17191C" d="M14.75,10.5 L14.75,15.4 Q14.75,15.711 14.53,15.93 Q14.311,16.15 14,16.15 Q13.689,16.15 13.47,15.93 Q13.25,15.711 13.25,15.4 L13.25,10.5 Q13.25,10.189 13.47,9.97 Q13.689,9.75 14,9.75 Q14.311,9.75 14.53,9.97 Q14.75,10.189 14.75,10.5 Z"/>
  <path fill="#17191C" d="M22.75,6 Q22.75,9.573 19.223,10.616 Q18.807,10.75 18,10.75 Q16.039,10.75 14.645,9.355 Q13.25,7.961 13.25,6 L13.25,5.663 L13.254,5.625 Q13.691,1.25 18,1.25 Q19.961,1.25 21.355,2.645 Q22.75,4.039 22.75,6 Z M21.25,6 Q21.25,2.75 18,2.75 Q15.066,2.75 14.75,5.738 L14.75,6 Q14.75,7.339 15.705,8.295 Q16.661,9.25 18,9.25 Q18.578,9.25 18.763,9.188 L18.776,9.184 L18.788,9.18 Q21.25,8.456 21.25,6 Z"/>
  <path fill="#17191C" d="M19.1,5.9 C19.3,5.7 19.5,5.4 19.5,5.1 C19.5,4.3 18.9,3.8 18,3.8 C17.1,3.8 16.5,4.3 16.5,5.1 C16.5,5.4 16.6,5.7 16.9,5.9 C16.6,6.1 16.4,6.5 16.4,6.9 C16.4,7.7 17,8.2 18,8.2 C19,8.2 19.6,7.7 19.6,6.9 C19.6,6.5 19.4,6.1 19.1,5.9 Z M18,5.5 C17.7,5.5 17.6,5.4 17.6,5.1 C17.6,4.8 17.8,4.7 18,4.7 C18.2,4.7 18.4,4.8 18.4,5.1 C18.4,5.4 18.3,5.5 18,5.5 Z M18,6.3 C18.3,6.3 18.6,6.4 18.6,6.8 C18.6,7.1 18.4,7.3 18,7.3 C17.6,7.3 17.4,7.1 17.4,6.8 C17.4,6.4 17.9,6.3 18,6.3 Z"/>
</svg>

