<svg xmlns="http://www.w3.org/2000/svg" width="24" height="24" viewBox="0 0 24 24">
  <defs/>
  <path fill="white" opacity="0.58" d="M24,0 L0,0 L0,24 L24,24 L24,0 Z"/>
  <path fill="#292D32" opacity="0.4" d="M19,9.87 L19,16.73 C19,17.51 18.55,18.21 17.85,18.54 L11.35,21.6 C10.81,21.85 10.19,21.85 9.65,21.6 L3.15,18.54 C2.45,18.21 2,17.51 2,16.73 L2,9.27 C2,8.49 2.45,7.79 3.15,7.46 L9.65,4.4 C10.19,4.15 10.81,4.15 11.35,4.4 L14.02,5.66 C14,5.77 14,5.89 14,6 C14,8.21 15.79,10 18,10 C18.35,10 18.68,9.96 19,9.87 Z"/>
  <path fill="#292D32" d="M9,16.25 C7.48,16.25 6.25,15.02 6.25,13.5 L6.25,10.5 C6.25,10.09 6.59,9.75 7,9.75 C7.41,9.75 7.75,10.09 7.75,10.5 L7.75,13.5 C7.75,14.19 8.31,14.75 9,14.75 C9.69,14.75 10.25,14.19 10.25,13.5 L10.25,10.5 C10.25,10.09 10.59,9.75 11,9.75 C11.41,9.75 11.75,10.09 11.75,10.5 L11.75,13.5 C11.75,15.02 10.52,16.25 9,16.25 Z"/>
  <path fill="#292D32" d="M14,16.19 C13.59,16.19 13.25,15.85 13.25,15.44 L13.25,10.5 C13.25,10.09 13.59,9.75 14,9.75 C14.41,9.75 14.75,10.09 14.75,10.5 L14.75,15.44 C14.75,15.86 14.41,16.19 14,16.19 Z"/>
  <path fill="#292D32" d="M18,6.34 C17.86,6.34 17.42,6.37 17.42,6.79 C17.42,7.08 17.64,7.25 18,7.25 C18.36,7.25 18.58,7.08 18.58,6.79 C18.58,6.46 18.28,6.34 18,6.34 Z"/>
  <path fill="#292D32" d="M18,5.51 C18.27,5.51 18.441,5.36 18.441,5.13 C18.441,4.85 18.21,4.76 18,4.76 C17.791,4.76 17.561,4.86 17.561,5.13 C17.561,5.36 17.73,5.51 18,5.51 Z"/>
  <path fill="#292D32" d="M18,2 C15.9,2 14.19,3.61 14.02,5.66 C14,5.77 14,5.89 14,6 C14,8.21 15.79,10 18,10 C18.35,10 18.68,9.96 19,9.87 C20.73,9.43 22,7.86 22,6 C22,3.79 20.21,2 18,2 Z M18,8.2 C17.01,8.2 16.4,7.7 16.4,6.89 C16.4,6.5 16.58,6.15 16.9,5.91 C16.66,5.7 16.53,5.41 16.53,5.08 C16.53,4.31 17.12,3.8 17.99,3.8 C18.86,3.8 19.45,4.32 19.45,5.08 C19.45,5.41 19.33,5.7 19.08,5.91 C19.41,6.14 19.59,6.49 19.59,6.89 C19.6,7.7 18.99,8.2 18,8.2 Z"/>
</svg>

