<svg xmlns="http://www.w3.org/2000/svg" width="24" height="24" viewBox="0 0 24 24">
  <defs/>
  <path fill="#292D32" d="M7.13,17.56 L15.13,17.56 Q16.889,17.56 18.135,16.315 Q19.38,15.069 19.38,13.31 Q19.38,11.551 18.135,10.305 Q16.889,9.06 15.13,9.06 L4.13,9.06 Q3.819,9.06 3.6,8.84 Q3.38,8.621 3.38,8.31 Q3.38,7.999 3.6,7.78 Q3.819,7.56 4.13,7.56 L15.13,7.56 Q17.511,7.56 19.195,9.245 Q20.88,10.929 20.88,13.31 Q20.88,15.691 19.195,17.375 Q17.511,19.06 15.13,19.06 L7.13,19.06 Q6.819,19.06 6.6,18.84 Q6.38,18.621 6.38,18.31 Q6.38,17.999 6.6,17.78 Q6.819,17.56 7.13,17.56 Z"/>
  <path fill="#292D32" d="M5.9,11.34 L3.34,8.78 Q3.12,8.561 3.12,8.25 Q3.12,7.939 3.34,7.72 L5.9,5.16 Q6.119,4.94 6.43,4.94 Q6.741,4.94 6.96,5.16 Q7.18,5.379 7.18,5.69 Q7.18,6.001 6.96,6.22 L4.931,8.25 L6.96,10.28 Q7.18,10.499 7.18,10.81 Q7.18,11.121 6.96,11.34 Q6.741,11.56 6.43,11.56 Q6.119,11.56 5.9,11.34 Z"/>
</svg>

