<svg xmlns="http://www.w3.org/2000/svg" width="24" height="24" viewBox="0 0 24 24">
  <defs/>
  <path fill="#292D32" d="M16.19,2 L7.81,2 C4.17,2 2,4.17 2,7.81 L2,16.18 C2,19.83 4.17,22 7.81,22 L16.18,22 C19.82,22 21.99,19.83 21.99,16.19 L21.99,7.81 C22,4.17 19.83,2 16.19,2 Z M13.92,16.63 L9,16.63 C8.59,16.63 8.25,16.29 8.25,15.88 C8.25,15.47 8.59,15.13 9,15.13 L13.92,15.13 C15.2,15.13 16.25,14.09 16.25,12.8 C16.25,11.51 15.21,10.47 13.92,10.47 L8.85,10.47 L9.11,10.73 C9.4,11.02 9.4,11.5 9.11,11.79 C8.96,11.94 8.77,12.01 8.58,12.01 C8.39,12.01 8.2,11.94 8.05,11.79 L6.48,10.22 C6.19,9.93 6.19,9.45 6.48,9.16 L8.05,7.59 C8.34,7.3 8.82,7.3 9.11,7.59 C9.4,7.88 9.4,8.36 9.11,8.65 L8.77,8.98 L13.92,8.98 C16.03,8.98 17.75,10.7 17.75,12.81 C17.75,14.92 16.03,16.63 13.92,16.63 Z"/>
</svg>

