<svg xmlns="http://www.w3.org/2000/svg" width="24" height="24" viewBox="0 0 24 24">
  <defs/>
  <path fill="#292D32" d="M15.131,19.06 L7.131,19.06 C6.721,19.06 6.381,18.72 6.381,18.31 C6.381,17.9 6.721,17.56 7.131,17.56 L15.131,17.56 C17.471,17.56 19.381,15.65 19.381,13.31 C19.381,10.97 17.471,9.06 15.131,9.06 L4.131,9.06 C3.721,9.06 3.381,8.72 3.381,8.31 C3.381,7.9 3.721,7.56 4.131,7.56 L15.131,7.56 C18.301,7.56 20.881,10.14 20.881,13.31 C20.881,16.48 18.301,19.06 15.131,19.06 Z"/>
  <path fill="#292D32" d="M6.431,11.56 C6.241,11.56 6.051,11.49 5.901,11.34 L3.341,8.78 C3.051,8.49 3.051,8.01 3.341,7.72 L5.901,5.16 C6.191,4.87 6.671,4.87 6.961,5.16 C7.251,5.45 7.251,5.93 6.961,6.22 L4.931,8.25 L6.961,10.28 C7.251,10.57 7.251,11.05 6.961,11.34 C6.821,11.49 6.621,11.56 6.431,11.56 Z"/>
</svg>

