<svg xmlns="http://www.w3.org/2000/svg" width="24" height="24" viewBox="0 0 24 24">
  <defs/>
  <path fill="#292D32" opacity="0.4" d="M7.81,2 L16.18,2 C19.83,2 22,4.17 22,7.81 L22,16.18 C22,19.82 19.83,21.99 16.19,21.99 L7.81,21.99 C4.17,22 2,19.83 2,16.19 L2,7.81 C2,4.17 4.17,2 7.81,2 Z"/>
  <path fill="#292D32" d="M13.919,8.98 L8.769,8.98 L9.099,8.65 C9.389,8.36 9.389,7.88 9.099,7.59 C8.809,7.3 8.329,7.3 8.039,7.59 L6.469,9.16 C6.179,9.45 6.179,9.93 6.469,10.22 L8.039,11.79 C8.189,11.94 8.379,12.01 8.569,12.01 C8.759,12.01 8.949,11.94 9.099,11.79 C9.389,11.5 9.389,11.02 9.099,10.73 L8.839,10.47 L13.919,10.47 C15.2,10.47 16.25,11.51 16.25,12.8 C16.25,14.09 15.21,15.13 13.919,15.13 L8.999,15.13 C8.589,15.13 8.249,15.47 8.249,15.88 C8.249,16.29 8.589,16.63 8.999,16.63 L13.919,16.63 C16.029,16.63 17.75,14.91 17.75,12.8 C17.75,10.69 16.029,8.98 13.919,8.98 Z"/>
</svg>

