<svg xmlns="http://www.w3.org/2000/svg" width="24" height="24" viewBox="0 0 24 24">
  <defs/>
  <path fill="#292D32" opacity="0.4" d="M7.131,17.56 L15.131,17.56 Q16.89,17.56 18.136,16.315 Q19.381,15.069 19.381,13.31 Q19.381,11.551 18.136,10.305 Q16.89,9.06 15.131,9.06 L4.131,9.06 Q3.82,9.06 3.601,8.84 Q3.381,8.621 3.381,8.31 Q3.381,7.999 3.601,7.78 Q3.82,7.56 4.131,7.56 L15.131,7.56 Q17.512,7.56 19.196,9.245 Q20.881,10.929 20.881,13.31 Q20.881,15.691 19.196,17.375 Q17.512,19.06 15.131,19.06 L7.131,19.06 Q6.82,19.06 6.601,18.84 Q6.381,18.621 6.381,18.31 Q6.381,17.999 6.601,17.78 Q6.82,17.56 7.131,17.56 Z"/>
  <path fill="#292D32" d="M5.899,11.34 L3.339,8.78 Q3.119,8.561 3.119,8.25 Q3.119,7.939 3.339,7.72 L5.899,5.16 Q6.118,4.94 6.429,4.94 Q6.74,4.94 6.959,5.16 Q7.179,5.379 7.179,5.69 Q7.179,6.001 6.959,6.22 L4.93,8.25 L6.959,10.28 Q7.179,10.499 7.179,10.81 Q7.179,11.121 6.959,11.34 Q6.74,11.56 6.429,11.56 Q6.118,11.56 5.899,11.34 Z"/>
</svg>

