<svg xmlns="http://www.w3.org/2000/svg" width="24" height="24" viewBox="0 0 24 24">
  <defs/>
  <path fill="#292D32" d="M9.573,9.761 Q8.441,8.2 6.54,8.2 Q2.74,8.2 2.74,12 Q2.74,15.8 6.54,15.8 Q8.842,15.8 10.027,13.824 L11.358,11.613 L12.676,9.406 Q14.3,6.7 17.45,6.7 Q19.643,6.7 21.197,8.254 Q22.75,9.807 22.75,12 Q22.75,14.193 21.197,15.747 Q19.643,17.3 17.45,17.3 Q14.804,17.3 13.206,15.124 Q13.022,14.874 13.069,14.567 Q13.116,14.26 13.366,14.076 Q13.617,13.892 13.924,13.939 Q14.231,13.986 14.415,14.236 Q15.563,15.8 17.45,15.8 Q21.25,15.8 21.25,12 Q21.25,8.2 17.45,8.2 Q15.149,8.2 13.964,10.175 L12.643,12.387 L11.313,14.596 Q9.691,17.3 6.54,17.3 Q4.347,17.3 2.794,15.747 Q1.24,14.193 1.24,12 Q1.24,9.807 2.794,8.254 Q4.347,6.7 6.54,6.7 Q9.206,6.7 10.787,8.88 Q10.97,9.131 10.921,9.438 Q10.872,9.745 10.621,9.927 Q10.369,10.11 10.062,10.061 Q9.756,10.012 9.573,9.761 Z"/>
</svg>

