<svg xmlns="http://www.w3.org/2000/svg" width="24" height="24" viewBox="0 0 24 24">
  <defs/>
  <path fill="#292D32" d="M9.573,9.761 Q8.441,8.2 6.54,8.2 Q4.968,8.2 3.854,9.314 Q2.74,10.428 2.74,12 Q2.74,13.572 3.854,14.686 Q4.968,15.8 6.54,15.8 Q8.841,15.8 10.027,13.824 L11.357,11.613 L12.676,9.405 Q14.299,6.7 17.45,6.7 Q19.643,6.7 21.197,8.253 Q22.75,9.807 22.75,12 Q22.75,14.193 21.197,15.747 Q19.643,17.3 17.45,17.3 Q14.804,17.3 13.206,15.124 Q13.022,14.874 13.069,14.567 Q13.116,14.259 13.366,14.076 Q13.616,13.892 13.923,13.939 Q14.231,13.986 14.414,14.236 Q15.563,15.8 17.45,15.8 Q19.022,15.8 20.136,14.686 Q21.25,13.572 21.25,12 Q21.25,8.2 17.45,8.2 Q15.149,8.2 13.964,10.175 L12.643,12.387 L11.313,14.596 Q9.691,17.3 6.54,17.3 Q4.347,17.3 2.793,15.747 Q1.24,14.193 1.24,12 Q1.24,9.807 2.793,8.253 Q4.347,6.7 6.54,6.7 Q9.205,6.7 10.787,8.88 Q10.969,9.131 10.921,9.438 Q10.872,9.745 10.62,9.927 Q10.369,10.109 10.062,10.061 Q9.755,10.012 9.573,9.761 Z"/>
</svg>

