<svg xmlns="http://www.w3.org/2000/svg" width="24" height="24" viewBox="0 0 24 24">
  <defs/>
  <path fill="#292D32" d="M17.45,17.302 C15.77,17.302 14.22,16.512 13.21,15.122 C12.97,14.792 13.04,14.322 13.37,14.072 C13.7,13.822 14.17,13.902 14.42,14.232 C15.15,15.222 16.25,15.792 17.45,15.792 C19.54,15.792 21.25,14.092 21.25,11.992 C21.25,9.892 19.55,8.192 17.45,8.192 C16.03,8.192 14.69,8.952 13.96,10.162 L11.31,14.572 C10.31,16.242 8.48,17.272 6.54,17.272 C3.62,17.272 1.24,14.892 1.24,11.972 C1.24,9.052 3.62,6.672 6.54,6.672 C8.22,6.672 9.77,7.462 10.78,8.852 C11.02,9.182 10.95,9.652 10.62,9.902 C10.28,10.152 9.82,10.072 9.57,9.742 C8.85,8.772 7.75,8.202 6.55,8.202 C4.46,8.202 2.75,9.902 2.75,12.002 C2.75,14.102 4.45,15.802 6.55,15.802 C7.97,15.802 9.31,15.042 10.04,13.832 L12.69,9.422 C13.69,7.752 15.52,6.722 17.46,6.722 C20.38,6.722 22.76,9.102 22.76,12.022 C22.76,14.942 20.37,17.302 17.45,17.302 Z"/>
  <path fill="#292D32" d="M6.5,14 C7.605,14 8.5,13.105 8.5,12 C8.5,10.895 7.605,10 6.5,10 C5.395,10 4.5,10.895 4.5,12 C4.5,13.105 5.395,14 6.5,14 Z"/>
  <path fill="#292D32" d="M17.5,14 C18.605,14 19.5,13.105 19.5,12 C19.5,10.895 18.605,10 17.5,10 C16.395,10 15.5,10.895 15.5,12 C15.5,13.105 16.395,14 17.5,14 Z"/>
</svg>

