<svg xmlns="http://www.w3.org/2000/svg" width="24" height="24" viewBox="0 0 24 24">
  <defs/>
  <path fill="#292D32" d="M20.418,16.393 Q19.067,17.3 17.46,17.3 Q14.814,17.3 13.216,15.124 Q13.032,14.874 13.079,14.566 Q13.126,14.259 13.376,14.075 Q13.627,13.892 13.934,13.939 Q14.241,13.986 14.425,14.236 Q15.574,15.8 17.46,15.8 Q18.61,15.8 19.582,15.147 Q19.84,14.974 20.145,15.034 Q20.45,15.094 20.623,15.352 Q20.796,15.61 20.736,15.915 Q20.676,16.22 20.418,16.393 Z"/>
  <path fill="#292D32" d="M9.573,9.76 Q8.441,8.2 6.54,8.2 Q4.968,8.2 3.854,9.314 Q2.74,10.428 2.74,12 Q2.74,15.8 6.54,15.8 Q8.842,15.8 10.027,13.824 L11.358,11.613 L12.676,9.405 Q14.3,6.7 17.45,6.7 Q19.643,6.7 21.197,8.253 Q22.75,9.807 22.75,12 Q22.75,12.311 22.531,12.53 Q22.311,12.75 22,12.75 Q21.69,12.75 21.47,12.53 Q21.25,12.311 21.25,12 Q21.25,8.2 17.45,8.2 Q15.149,8.2 13.964,10.175 L12.643,12.387 L11.313,14.596 Q9.691,17.3 6.54,17.3 Q4.347,17.3 2.794,15.746 Q1.24,14.193 1.24,12 Q1.24,9.807 2.794,8.253 Q4.347,6.7 6.54,6.7 Q9.206,6.7 10.787,8.879 Q10.97,9.131 10.921,9.438 Q10.872,9.745 10.621,9.927 Q10.369,10.109 10.062,10.061 Q9.756,10.012 9.573,9.76 Z"/>
</svg>

