<svg xmlns="http://www.w3.org/2000/svg" width="24" height="24" viewBox="0 0 24 24">
  <defs/>
  <path fill="#292D32" opacity="0.4" d="M17.45,17.3 C15.77,17.3 14.22,16.51 13.21,15.12 C12.97,14.79 13.04,14.32 13.37,14.07 C13.7,13.82 14.17,13.9 14.42,14.23 C15.15,15.22 16.25,15.79 17.45,15.79 C19.54,15.79 21.25,14.09 21.25,11.99 C21.25,9.89 19.55,8.19 17.45,8.19 C16.03,8.19 14.69,8.95 13.96,10.16 L11.31,14.57 C10.31,16.24 8.48,17.27 6.54,17.27 C3.62,17.27 1.24,14.89 1.24,11.97 C1.24,9.05 3.62,6.67 6.54,6.67 C8.22,6.67 9.77,7.46 10.78,8.85 C11.02,9.18 10.95,9.65 10.62,9.9 C10.28,10.15 9.82,10.07 9.57,9.74 C8.84,8.75 7.74,8.18 6.54,8.18 C4.45,8.18 2.74,9.88 2.74,11.98 C2.74,14.08 4.44,15.78 6.54,15.78 C7.96,15.78 9.3,15.02 10.03,13.81 L12.68,9.4 C13.68,7.73 15.51,6.7 17.45,6.7 C20.37,6.7 22.75,9.08 22.75,12 C22.75,14.92 20.37,17.3 17.45,17.3 Z"/>
  <path fill="#292D32" d="M6.5,14 C7.605,14 8.5,13.105 8.5,12 C8.5,10.895 7.605,10 6.5,10 C5.395,10 4.5,10.895 4.5,12 C4.5,13.105 5.395,14 6.5,14 Z"/>
  <path fill="#292D32" d="M17.5,14 C18.605,14 19.5,13.105 19.5,12 C19.5,10.895 18.605,10 17.5,10 C16.395,10 15.5,10.895 15.5,12 C15.5,13.105 16.395,14 17.5,14 Z"/>
</svg>

