<svg xmlns="http://www.w3.org/2000/svg" width="24" height="24" viewBox="0 0 24 24">
  <defs/>
  <path fill="#292D32" d="M17,22.75 L7,22.75 C2.59,22.75 1.25,21.41 1.25,17 L1.25,15 C1.25,10.59 2.59,9.25 7,9.25 L17,9.25 C21.41,9.25 22.75,10.59 22.75,15 L22.75,17 C22.75,21.41 21.41,22.75 17,22.75 Z M7,10.75 C3.42,10.75 2.75,11.43 2.75,15 L2.75,17 C2.75,20.57 3.42,21.25 7,21.25 L17,21.25 C20.58,21.25 21.25,20.57 21.25,17 L21.25,15 C21.25,11.43 20.58,10.75 17,10.75 L7,10.75 Z"/>
  <path fill="#292D32" d="M6,10.75 C5.59,10.75 5.25,10.41 5.25,10 L5.25,8 C5.25,5.1 5.95,1.25 12,1.25 C16.48,1.25 18.75,3.18 18.75,7 C18.75,7.41 18.41,7.75 18,7.75 C17.59,7.75 17.25,7.41 17.25,7 C17.25,5.02 16.65,2.75 12,2.75 C7.64,2.75 6.75,4.85 6.75,8 L6.75,10 C6.75,10.41 6.41,10.75 6,10.75 Z"/>
  <path fill="#292D32" d="M12,19.25 C10.21,19.25 8.75,17.79 8.75,16 C8.75,14.21 10.21,12.75 12,12.75 C13.79,12.75 15.25,14.21 15.25,16 C15.25,17.79 13.79,19.25 12,19.25 Z M12,14.25 C11.04,14.25 10.25,15.04 10.25,16 C10.25,16.96 11.04,17.75 12,17.75 C12.96,17.75 13.75,16.96 13.75,16 C13.75,15.04 12.96,14.25 12,14.25 Z"/>
</svg>

