<svg xmlns="http://www.w3.org/2000/svg" width="24" height="24" viewBox="0 0 24 24">
  <defs/>
  <path fill="#292D32" d="M12.001,17.35 C12.901,17.35 13.631,16.62 13.631,15.72 C13.631,14.82 12.901,14.09 12.001,14.09 C11.101,14.09 10.371,14.82 10.371,15.72 C10.371,16.62 11.101,17.35 12.001,17.35 Z"/>
  <path fill="#292D32" d="M16.65,9.44 L7.35,9.44 C7.27,9.44 7.2,9.44 7.12,9.44 L7.12,8.28 C7.12,5.35 7.95,3.4 12,3.4 C16.33,3.4 16.88,5.51 16.88,7.35 C16.88,7.74 17.19,8.05 17.58,8.05 C17.97,8.05 18.28,7.74 18.28,7.35 C18.28,3.8 16.17,2 12,2 C6.37,2 5.72,5.58 5.72,8.28 L5.72,9.53 C2.92,9.88 2,11.3 2,14.79 L2,16.65 C2,20.75 3.25,22 7.35,22 L16.65,22 C20.75,22 22,20.75 22,16.65 L22,14.79 C22,10.69 20.75,9.44 16.65,9.44 Z M12,18.74 C10.33,18.74 8.98,17.38 8.98,15.72 C8.98,14.05 10.34,12.7 12,12.7 C13.66,12.7 15.02,14.06 15.02,15.72 C15.02,17.39 13.67,18.74 12,18.74 Z"/>
</svg>

