<svg xmlns="http://www.w3.org/2000/svg" width="24" height="24" viewBox="0 0 24 24">
  <defs/>
  <path fill="#292D32" opacity="0.4" d="M11.999,17.35 C12.899,17.35 13.629,16.62 13.629,15.72 C13.629,14.82 12.899,14.09 11.999,14.09 C11.099,14.09 10.369,14.82 10.369,15.72 C10.369,16.62 11.099,17.35 11.999,17.35 Z"/>
  <path fill="#292D32" d="M16.65,9.44 L7.35,9.44 C3.25,9.44 2,10.69 2,14.79 L2,16.65 C2,20.75 3.25,22 7.35,22 L16.65,22 C20.75,22 22,20.75 22,16.65 L22,14.79 C22,10.69 20.75,9.44 16.65,9.44 Z M12,18.74 C10.33,18.74 8.98,17.38 8.98,15.72 C8.98,14.06 10.33,12.7 12,12.7 C13.67,12.7 15.02,14.06 15.02,15.72 C15.02,17.38 13.67,18.74 12,18.74 Z"/>
  <path fill="#292D32" opacity="0.4" d="M7.121,9.45 L7.121,8.28 C7.121,5.35 7.951,3.4 12.001,3.4 C16.331,3.4 16.881,5.51 16.881,7.35 C16.881,7.74 17.191,8.05 17.581,8.05 C17.971,8.05 18.281,7.74 18.281,7.35 C18.281,3.8 16.171,2 12.001,2 C6.371,2 5.721,5.58 5.721,8.28 L5.721,9.53 C6.141,9.48 6.611,9.45 7.121,9.45 Z"/>
</svg>

