<svg xmlns="http://www.w3.org/2000/svg" width="24" height="24" viewBox="0 0 24 24">
  <defs/>
  <path d="M16.419,16.42 Q18.247,14.592 18.247,12 Q18.247,9.408 16.419,7.58 Q16.199,7.361 16.199,7.05 Q16.199,6.739 16.419,6.52 Q16.639,6.3 16.949,6.3 Q17.26,6.3 17.48,6.52 Q19.747,8.787 19.747,12 Q19.747,15.213 17.48,17.48 Q17.26,17.7 16.949,17.7 Q16.639,17.7 16.419,17.48 Q16.199,17.261 16.199,16.95 Q16.199,16.639 16.419,16.42 Z"/>
  <path d="M7.58,7.58 Q5.752,9.408 5.752,12 Q5.752,14.592 7.58,16.42 Q7.799,16.639 7.799,16.95 Q7.799,17.261 7.58,17.48 Q7.36,17.7 7.049,17.7 Q6.739,17.7 6.519,17.48 Q4.252,15.213 4.252,12 Q4.252,8.787 6.519,6.52 Q6.739,6.3 7.049,6.3 Q7.36,6.3 7.58,6.52 Q7.799,6.739 7.799,7.05 Q7.799,7.361 7.58,7.58 Z"/>
  <path d="M10.42,13.63 Q10.42,14.51 11.23,14.51 L12.99,14.51 Q13.6,14.51 13.6,13.84 Q13.6,13.343 13.179,13.2 L10.363,12.218 Q8.93,11.723 8.93,10.16 Q8.93,7.99 11.04,7.99 L12.8,7.99 Q15.11,7.99 15.11,10.37 Q15.11,10.681 14.89,10.9 Q14.671,11.12 14.36,11.12 Q14.049,11.12 13.83,10.9 Q13.61,10.681 13.61,10.37 Q13.61,9.49 12.8,9.49 L11.04,9.49 Q10.43,9.49 10.43,10.16 Q10.43,10.654 10.857,10.802 L13.661,11.78 Q15.1,12.268 15.1,13.84 Q15.1,14.726 14.493,15.361 Q13.872,16.01 12.99,16.01 L11.23,16.01 Q8.92,16.01 8.92,13.63 Q8.92,13.319 9.14,13.1 Q9.359,12.88 9.67,12.88 Q9.981,12.88 10.2,13.1 Q10.42,13.319 10.42,13.63 Z"/>
  <path d="M12.75,7.8 L12.75,16.2 Q12.75,16.511 12.53,16.73 Q12.311,16.95 12,16.95 Q11.689,16.95 11.47,16.73 Q11.25,16.511 11.25,16.2 L11.25,7.8 Q11.25,7.489 11.47,7.27 Q11.689,7.05 12,7.05 Q12.311,7.05 12.53,7.27 Q12.75,7.489 12.75,7.8 Z"/>
  <path fill="#17191C" d="M4.6,6.449 Q2.75,8.922 2.75,12 Q2.75,15.829 5.46,18.54 Q8.171,21.25 12,21.25 Q15.829,21.25 18.54,18.54 Q21.25,15.829 21.25,12 Q21.25,8.171 18.54,5.46 Q15.829,2.75 12,2.75 Q10.031,2.75 8.276,3.535 Q7.993,3.661 7.702,3.551 Q7.412,3.44 7.285,3.156 Q7.159,2.873 7.269,2.582 Q7.38,2.292 7.664,2.165 Q9.711,1.25 12,1.25 Q16.451,1.25 19.6,4.4 Q22.75,7.549 22.75,12 Q22.75,16.451 19.6,19.6 Q16.451,22.75 12,22.75 Q7.549,22.75 4.4,19.6 Q1.25,16.451 1.25,12 Q1.25,8.422 3.4,5.551 Q3.586,5.302 3.893,5.258 Q4.201,5.213 4.449,5.4 Q4.698,5.586 4.742,5.893 Q4.787,6.201 4.6,6.449 Z"/>
</svg>

