<svg xmlns="http://www.w3.org/2000/svg" width="24" height="24" viewBox="0 0 24 24">
  <defs/>
  <path d="M12.75,14.52 L12.98,14.52 C13.31,14.52 13.59,14.22 13.59,13.85 C13.59,13.38 13.48,13.32 13.16,13.21 L12.75,13.07 L12.75,14.52 Z"/>
  <path d="M12,2 C6.48,2 2,6.48 2,12 C2,17.52 6.48,22 12,22 C17.52,22 22,17.52 22,12 C22,6.48 17.52,2 12,2 Z M7.58,16.42 C7.87,16.71 7.87,17.19 7.58,17.48 C7.43,17.63 7.24,17.7 7.05,17.7 C6.86,17.7 6.67,17.63 6.52,17.48 C5.06,16.02 4.25,14.07 4.25,12 C4.25,9.93 5.06,7.98 6.52,6.52 C6.81,6.23 7.29,6.23 7.58,6.52 C7.87,6.81 7.87,7.29 7.58,7.58 C6.4,8.76 5.75,10.33 5.75,12 C5.75,13.67 6.4,15.24 7.58,16.42 Z M13.65,11.78 C14.61,12.12 15.08,12.79 15.08,13.84 C15.08,15.04 14.14,16.01 12.97,16.01 L12.74,16.01 L12.74,16.19 C12.74,16.6 12.4,16.94 11.99,16.94 C11.58,16.94 11.24,16.6 11.24,16.19 L11.24,16.01 L11.21,16.01 C9.94,16.01 8.9,14.94 8.9,13.63 C8.9,13.22 9.24,12.88 9.65,12.88 C10.06,12.88 10.4,13.22 10.4,13.63 C10.4,14.12 10.76,14.51 11.21,14.51 L11.24,14.51 L11.24,12.53 L10.34,12.21 C9.38,11.87 8.91,11.2 8.91,10.15 C8.91,8.95 9.85,7.98 11.02,7.98 L11.25,7.98 L11.25,7.8 C11.25,7.39 11.59,7.05 12,7.05 C12.41,7.05 12.75,7.39 12.75,7.8 L12.75,7.98 L12.78,7.98 C14.05,7.98 15.09,9.05 15.09,10.36 C15.09,10.77 14.75,11.11 14.34,11.11 C13.93,11.11 13.59,10.77 13.59,10.36 C13.59,9.87 13.23,9.48 12.78,9.48 L12.75,9.48 L12.75,11.46 L13.65,11.78 Z M17.48,17.48 C17.33,17.63 17.14,17.7 16.95,17.7 C16.76,17.7 16.57,17.63 16.42,17.48 C16.13,17.19 16.13,16.71 16.42,16.42 C17.6,15.24 18.25,13.67 18.25,12 C18.25,10.33 17.6,8.76 16.42,7.58 C16.13,7.29 16.13,6.81 16.42,6.52 C16.71,6.23 17.19,6.23 17.48,6.52 C18.94,7.98 19.75,9.93 19.75,12 C19.75,14.07 18.94,16.02 17.48,17.48 Z"/>
  <path d="M10.42,10.161 C10.42,10.63 10.53,10.691 10.85,10.8 L11.26,10.941 L11.26,9.48 L11.03,9.48 C10.69,9.48 10.42,9.79 10.42,10.161 Z"/>
</svg>

