<svg xmlns="http://www.w3.org/2000/svg" width="24" height="24" viewBox="0 0 24 24">
  <defs/>
  <path fill="white" d="M24,0 L0,0 L0,24 L24,24 L24,0 Z"/>
  <path fill="#292D32" opacity="0.4" d="M12,22 C17.523,22 22,17.523 22,12 C22,6.477 17.523,2 12,2 C6.477,2 2,6.477 2,12 C2,17.523 6.477,22 12,22 Z"/>
  <path fill="#292D32" d="M16.951,17.7 C16.761,17.7 16.571,17.63 16.421,17.48 C16.131,17.19 16.131,16.71 16.421,16.42 C17.601,15.24 18.251,13.67 18.251,12 C18.251,10.33 17.601,8.76 16.421,7.58 C16.131,7.29 16.131,6.81 16.421,6.52 C16.711,6.23 17.191,6.23 17.481,6.52 C18.941,7.98 19.751,9.93 19.751,12 C19.751,14.07 18.941,16.02 17.481,17.48 C17.331,17.63 17.141,17.7 16.951,17.7 Z"/>
  <path fill="#292D32" d="M7.05,17.7 C6.86,17.7 6.67,17.63 6.52,17.48 C5.06,16.02 4.25,14.07 4.25,12 C4.25,9.93 5.06,7.98 6.52,6.52 C6.81,6.23 7.29,6.23 7.58,6.52 C7.87,6.81 7.87,7.29 7.58,7.58 C6.4,8.76 5.75,10.33 5.75,12 C5.75,13.67 6.4,15.24 7.58,16.42 C7.87,16.71 7.87,17.19 7.58,17.48 C7.43,17.63 7.24,17.7 7.05,17.7 Z"/>
  <path fill="#292D32" d="M13.65,11.78 L12.75,11.46 L12.75,9.48 L12.78,9.48 C13.22,9.48 13.59,9.88 13.59,10.36 C13.59,10.77 13.93,11.11 14.34,11.11 C14.75,11.11 15.09,10.77 15.09,10.36 C15.09,9.05 14.06,7.98 12.78,7.98 L12.75,7.98 L12.75,7.8 C12.75,7.39 12.41,7.05 12,7.05 C11.59,7.05 11.25,7.39 11.25,7.8 L11.25,7.98 L11.02,7.98 C9.86,7.98 8.91,8.96 8.91,10.15 C8.91,11.2 9.38,11.87 10.34,12.21 L11.24,12.53 L11.24,14.51 L11.21,14.51 C10.77,14.51 10.4,14.11 10.4,13.63 C10.4,13.22 10.06,12.88 9.65,12.88 C9.24,12.88 8.9,13.22 8.9,13.63 C8.9,14.94 9.93,16.01 11.21,16.01 L11.24,16.01 L11.24,16.19 C11.24,16.6 11.58,16.94 11.99,16.94 C12.4,16.94 12.74,16.6 12.74,16.19 L12.74,16.01 L12.97,16.01 C14.13,16.01 15.08,15.03 15.08,13.84 C15.08,12.79 14.62,12.12 13.65,11.78 Z M10.84,10.8 C10.52,10.69 10.41,10.63 10.41,10.16 C10.41,9.79 10.68,9.49 11.02,9.49 L11.25,9.49 L11.25,10.95 L10.84,10.8 Z M12.98,14.52 L12.75,14.52 L12.75,13.06 L13.16,13.2 C13.48,13.31 13.59,13.37 13.59,13.84 C13.58,14.21 13.31,14.52 12.98,14.52 Z"/>
</svg>

