<svg xmlns="http://www.w3.org/2000/svg" width="24" height="24" viewBox="0 0 24 24">
  <defs/>
  <path d="M16.95,17.7 C16.76,17.7 16.57,17.63 16.42,17.48 C16.13,17.19 16.13,16.71 16.42,16.42 C17.6,15.24 18.25,13.67 18.25,12 C18.25,10.33 17.6,8.76 16.42,7.58 C16.13,7.29 16.13,6.81 16.42,6.52 C16.71,6.23 17.19,6.23 17.48,6.52 C18.94,7.98 19.75,9.93 19.75,12 C19.75,14.07 18.94,16.02 17.48,17.48 C17.33,17.63 17.14,17.7 16.95,17.7 Z"/>
  <path d="M7.05,17.7 C6.86,17.7 6.67,17.63 6.52,17.48 C5.06,16.02 4.25,14.07 4.25,12 C4.25,9.93 5.06,7.98 6.52,6.52 C6.81,6.23 7.29,6.23 7.58,6.52 C7.87,6.81 7.87,7.29 7.58,7.58 C6.4,8.76 5.75,10.33 5.75,12 C5.75,13.67 6.4,15.24 7.58,16.42 C7.87,16.71 7.87,17.19 7.58,17.48 C7.43,17.63 7.24,17.7 7.05,17.7 Z"/>
  <path d="M12.98,16.02 L11.22,16.02 C9.95,16.02 8.91,14.95 8.91,13.64 C8.91,13.23 9.25,12.89 9.66,12.89 C10.07,12.89 10.41,13.23 10.41,13.64 C10.41,14.13 10.77,14.52 11.22,14.52 L12.98,14.52 C13.31,14.52 13.59,14.22 13.59,13.85 C13.59,13.38 13.48,13.32 13.16,13.21 L10.35,12.23 C9.39,11.89 8.92,11.22 8.92,10.17 C8.92,8.97 9.86,8 11.03,8 L12.79,8 C14.06,8 15.1,9.07 15.1,10.38 C15.1,10.79 14.76,11.13 14.35,11.13 C13.94,11.13 13.6,10.79 13.6,10.38 C13.6,9.89 13.24,9.5 12.79,9.5 L11.03,9.5 C10.7,9.5 10.42,9.8 10.42,10.17 C10.42,10.64 10.53,10.7 10.85,10.81 L13.66,11.79 C14.62,12.13 15.09,12.8 15.09,13.85 C15.08,15.04 14.14,16.02 12.98,16.02 Z"/>
  <path d="M12,16.95 C11.59,16.95 11.25,16.61 11.25,16.2 L11.25,7.8 C11.25,7.39 11.59,7.05 12,7.05 C12.41,7.05 12.75,7.39 12.75,7.8 L12.75,16.2 C12.75,16.61 12.41,16.95 12,16.95 Z"/>
  <path d="M12,22.75 C6.07,22.75 1.25,17.93 1.25,12 C1.25,6.07 6.07,1.25 12,1.25 C17.93,1.25 22.75,6.07 22.75,12 C22.75,17.93 17.93,22.75 12,22.75 Z M12,2.75 C6.9,2.75 2.75,6.9 2.75,12 C2.75,17.1 6.9,21.25 12,21.25 C17.1,21.25 21.25,17.1 21.25,12 C21.25,6.9 17.1,2.75 12,2.75 Z"/>
</svg>

