<svg xmlns="http://www.w3.org/2000/svg" width="24" height="24" viewBox="0 0 24 24">
  <defs/>
  <path fill="#292D32" d="M12,14 C6.99,14 2.91,17.36 2.91,21.5 C2.91,21.78 3.13,22 3.41,22 L20.59,22 C20.87,22 21.09,21.78 21.09,21.5 C21.09,17.36 17.01,14 12,14 Z"/>
  <path fill="#292D32" d="M16.851,5.798 C16.731,5.308 16.531,4.828 16.251,4.388 C16.061,4.068 15.811,3.748 15.541,3.468 C14.641,2.568 13.471,2.078 12.271,2.018 C10.911,1.928 9.521,2.428 8.471,3.468 C7.481,4.448 6.981,5.758 7.001,7.078 C7.011,8.328 7.511,9.578 8.461,10.538 C9.121,11.198 9.931,11.638 10.801,11.838 C11.271,11.958 11.771,12.018 12.271,11.978 C13.461,11.928 14.621,11.458 15.531,10.538 C16.821,9.248 17.261,7.438 16.851,5.798 Z M14.001,8.998 C13.641,9.358 13.041,9.358 12.681,8.998 L11.991,8.308 L11.331,8.968 C10.971,9.328 10.371,9.328 10.011,8.968 C9.641,8.598 9.641,8.008 10.001,7.648 L10.661,6.988 L10.021,6.368 C9.661,5.998 9.661,5.408 10.021,5.028 C10.391,4.668 10.981,4.668 11.361,5.028 L11.981,5.668 L12.651,4.998 C13.011,4.638 13.601,4.638 13.971,4.998 C14.331,5.358 14.331,5.958 13.971,6.318 L13.311,6.978 L14.001,7.678 C14.361,8.038 14.361,8.638 14.001,8.998 Z"/>
</svg>

