<svg xmlns="http://www.w3.org/2000/svg" width="24" height="24" viewBox="0 0 24 24">
  <defs/>
  <path fill="#292D32" d="M19.512,5.85 L13.572,2.42 C12.602,1.86 11.402,1.86 10.422,2.42 L4.492,5.85 C3.522,6.41 2.922,7.45 2.922,8.58 L2.922,15.42 C2.922,16.54 3.522,17.58 4.492,18.15 L10.432,21.58 C11.402,22.14 12.602,22.14 13.582,21.58 L19.522,18.15 C20.492,17.59 21.092,16.55 21.092,15.42 L21.092,8.58 C21.082,7.45 20.482,6.42 19.512,5.85 Z M12.002,7.34 C13.292,7.34 14.332,8.38 14.332,9.67 C14.332,10.96 13.292,12 12.002,12 C10.712,12 9.672,10.96 9.672,9.67 C9.672,8.39 10.712,7.34 12.002,7.34 Z M14.682,16.66 L9.322,16.66 C8.512,16.66 8.042,15.76 8.492,15.09 C9.172,14.08 10.492,13.4 12.002,13.4 C13.512,13.4 14.832,14.08 15.512,15.09 C15.962,15.75 15.482,16.66 14.682,16.66 Z"/>
</svg>

