<svg xmlns="http://www.w3.org/2000/svg" width="24" height="24" viewBox="0 0 24 24">
  <defs/>
  <path fill="#292D32" d="M12,12 C14.761,12 17,9.761 17,7 C17,4.239 14.761,2 12,2 C9.239,2 7,4.239 7,7 C7,9.761 9.239,12 12,12 Z"/>
  <path fill="#292D32" opacity="0.4" d="M12,14.5 C6.99,14.5 2.91,17.86 2.91,22 C2.91,22.28 3.13,22.5 3.41,22.5 L20.59,22.5 C20.87,22.5 21.09,22.28 21.09,22 C21.09,17.86 17.01,14.5 12,14.5 Z"/>
  <path fill="#292D32" d="M21.429,14.74 C20.529,13.84 19.819,14.13 19.209,14.74 L15.669,18.28 C15.529,18.42 15.399,18.68 15.369,18.87 L15.179,20.22 C15.109,20.71 15.449,21.05 15.939,20.98 L17.289,20.79 C17.479,20.76 17.749,20.63 17.879,20.49 L21.419,16.95 C22.039,16.35 22.329,15.64 21.429,14.74 Z"/>
</svg>

