<svg xmlns="http://www.w3.org/2000/svg" width="24" height="24" viewBox="0 0 24 24">
  <defs/>
  <path fill="#292D32" d="M12,12.75 C8.83,12.75 6.25,10.17 6.25,7 C6.25,3.83 8.83,1.25 12,1.25 C15.17,1.25 17.75,3.83 17.75,7 C17.75,10.17 15.17,12.75 12,12.75 Z M12,2.75 C9.66,2.75 7.75,4.66 7.75,7 C7.75,9.34 9.66,11.25 12,11.25 C14.34,11.25 16.25,9.34 16.25,7 C16.25,4.66 14.34,2.75 12,2.75 Z"/>
  <path fill="#292D32" d="M3.41,22.75 C3,22.75 2.66,22.41 2.66,22 C2.66,17.73 6.85,14.25 12,14.25 C13.01,14.25 14,14.38 14.96,14.65 C15.36,14.76 15.59,15.17 15.48,15.57 C15.37,15.97 14.96,16.2 14.56,16.09 C13.74,15.86 12.88,15.75 12,15.75 C7.68,15.75 4.16,18.55 4.16,22 C4.16,22.41 3.82,22.75 3.41,22.75 Z"/>
  <path fill="#292D32" d="M18,22.75 C16.82,22.75 15.7,22.31 14.83,21.52 C14.48,21.22 14.17,20.85 13.93,20.44 C13.49,19.72 13.25,18.87 13.25,18 C13.25,16.75 13.73,15.58 14.59,14.69 C15.49,13.76 16.7,13.25 18,13.25 C19.36,13.25 20.65,13.83 21.53,14.83 C22.31,15.7 22.75,16.82 22.75,18 C22.75,18.38 22.7,18.76 22.6,19.12 C22.5,19.57 22.31,20.04 22.05,20.45 C21.22,21.87 19.66,22.75 18,22.75 Z M18,14.75 C17.11,14.75 16.29,15.1 15.67,15.73 C15.08,16.34 14.75,17.14 14.75,18 C14.75,18.59 14.91,19.17 15.22,19.67 C15.38,19.95 15.59,20.2 15.83,20.41 C16.43,20.96 17.2,21.26 18,21.26 C19.13,21.26 20.2,20.66 20.78,19.69 C20.95,19.41 21.08,19.09 21.15,18.78 C21.22,18.52 21.25,18.27 21.25,18.01 C21.25,17.21 20.95,16.44 20.41,15.84 C19.81,15.14 18.93,14.75 18,14.75 Z"/>
  <path fill="#292D32" d="M19.5,18.73 L16.51,18.73 C16.1,18.73 15.76,18.39 15.76,17.98 C15.76,17.57 16.1,17.23 16.51,17.23 L19.5,17.23 C19.91,17.23 20.25,17.57 20.25,17.98 C20.25,18.39 19.91,18.73 19.5,18.73 Z"/>
  <path fill="#292D32" d="M18,20.26 C17.59,20.26 17.25,19.92 17.25,19.51 L17.25,16.52 C17.25,16.11 17.59,15.77 18,15.77 C18.41,15.77 18.75,16.11 18.75,16.52 L18.75,19.51 C18.75,19.93 18.41,20.26 18,20.26 Z"/>
</svg>

