<svg xmlns="http://www.w3.org/2000/svg" width="24" height="24" viewBox="0 0 24 24">
  <defs/>
  <path fill="#292D32" d="M12,22.75 C11.33,22.75 10.65,22.58 10.05,22.23 L4.11,18.8 C2.91,18.1 2.16,16.81 2.16,15.42 L2.16,8.58 C2.16,7.19 2.91,5.9 4.11,5.2 L10.05,1.77 C11.25,1.07 12.74,1.07 13.95,1.77 L19.89,5.2 C21.09,5.9 21.84,7.19 21.84,8.58 L21.84,15.42 C21.84,16.81 21.09,18.1 19.89,18.8 L13.95,22.23 C13.35,22.58 12.67,22.75 12,22.75 Z M12,2.75 C11.59,2.75 11.17,2.86 10.8,3.07 L4.86,6.5 C4.12,6.93 3.66,7.72 3.66,8.58 L3.66,15.42 C3.66,16.27 4.12,17.07 4.86,17.5 L10.8,20.93 C11.54,21.36 12.46,21.36 13.2,20.93 L19.14,17.5 C19.88,17.07 20.34,16.28 20.34,15.42 L20.34,8.58 C20.34,7.73 19.88,6.93 19.14,6.5 L13.2,3.07 C12.83,2.86 12.41,2.75 12,2.75 Z"/>
  <path fill="#292D32" d="M12,11.75 C10.3,11.75 8.92,10.37 8.92,8.67 C8.92,6.97 10.3,5.59 12,5.59 C13.7,5.59 15.08,6.97 15.08,8.67 C15.08,10.37 13.7,11.75 12,11.75 Z M12,7.09 C11.13,7.09 10.42,7.8 10.42,8.67 C10.42,9.54 11.13,10.25 12,10.25 C12.87,10.25 13.58,9.54 13.58,8.67 C13.58,7.8 12.87,7.09 12,7.09 Z"/>
  <path fill="#292D32" d="M16,17.41 C15.59,17.41 15.25,17.07 15.25,16.66 C15.25,15.28 13.79,14.15 12,14.15 C10.21,14.15 8.75,15.28 8.75,16.66 C8.75,17.07 8.41,17.41 8,17.41 C7.59,17.41 7.25,17.07 7.25,16.66 C7.25,14.45 9.38,12.65 12,12.65 C14.62,12.65 16.75,14.45 16.75,16.66 C16.75,17.07 16.41,17.41 16,17.41 Z"/>
</svg>

