<svg xmlns="http://www.w3.org/2000/svg" width="24" height="24" viewBox="0 0 24 24">
  <defs/>
  <path fill="#292D32" opacity="0.4" d="M22,7.81 L22,16.19 C22,19 20.71,20.93 18.44,21.66 C17.78,21.89 17.02,22 16.19,22 L7.81,22 C6.98,22 6.22,21.89 5.56,21.66 C3.29,20.93 2,19 2,16.19 L2,7.81 C2,4.17 4.17,2 7.81,2 L16.19,2 C19.83,2 22,4.17 22,7.81 Z"/>
  <path fill="#292D32" d="M18.441,21.66 C17.781,21.89 17.021,22 16.191,22 L7.811,22 C6.981,22 6.221,21.89 5.561,21.66 C5.911,19.02 8.671,16.97 12.001,16.97 C15.331,16.97 18.091,19.02 18.441,21.66 Z"/>
  <path fill="#292D32" d="M15.58,11.58 C15.58,13.56 13.98,15.17 12,15.17 C10.02,15.17 8.42,13.56 8.42,11.58 C8.42,9.6 10.02,8 12,8 C13.98,8 15.58,9.6 15.58,11.58 Z"/>
</svg>

