<svg xmlns="http://www.w3.org/2000/svg" width="24" height="24" viewBox="0 0 24 24">
  <defs/>
  <path fill="#292D32" d="M12,14 C6.99,14 2.91,17.36 2.91,21.5 C2.91,21.78 3.13,22 3.41,22 L20.59,22 C20.87,22 21.09,21.78 21.09,21.5 C21.09,17.36 17.01,14 12,14 Z"/>
  <path fill="#292D32" d="M12,2 C10.82,2 9.74,2.41 8.88,3.1 C7.73,4.01 7,5.42 7,7 C7,7.94 7.26,8.82 7.73,9.57 C8.59,11.02 10.17,12 12,12 C13.26,12 14.41,11.54 15.29,10.75 C15.68,10.42 16.02,10.02 16.28,9.57 C16.74,8.82 17,7.94 17,7 C17,4.24 14.76,2 12,2 Z M14.59,6.46 L11.92,8.92 C11.74,9.09 11.51,9.17 11.28,9.17 C11.04,9.17 10.8,9.08 10.62,8.9 L9.39,7.66 C9.02,7.29 9.02,6.7 9.39,6.33 C9.76,5.96 10.35,5.96 10.72,6.33 L11.31,6.92 L13.32,5.07 C13.7,4.72 14.29,4.74 14.64,5.12 C14.99,5.51 14.97,6.11 14.59,6.46 Z"/>
</svg>

