<svg xmlns="http://www.w3.org/2000/svg" width="24" height="24" viewBox="0 0 24 24">
  <defs/>
  <path fill="#292D32" d="M12,12.75 C8.83,12.75 6.25,10.17 6.25,7 C6.25,3.83 8.83,1.25 12,1.25 C15.17,1.25 17.75,3.83 17.75,7 C17.75,10.17 15.17,12.75 12,12.75 Z M12,2.75 C9.66,2.75 7.75,4.66 7.75,7 C7.75,9.34 9.66,11.25 12,11.25 C14.34,11.25 16.25,9.34 16.25,7 C16.25,4.66 14.34,2.75 12,2.75 Z"/>
  <path fill="#292D32" d="M15.82,22.75 C15.44,22.75 15.08,22.61 14.82,22.35 C14.51,22.04 14.37,21.59 14.44,21.12 L14.63,19.77 C14.68,19.42 14.89,19.01 15.14,18.75 L18.68,15.21 C20.1,13.79 21.35,14.6 21.96,15.21 C22.48,15.73 22.75,16.29 22.75,16.85 C22.75,17.42 22.49,17.95 21.96,18.48 L18.419,22.02 C18.169,22.27 17.75,22.48 17.4,22.53 L16.049,22.72 C15.97,22.74 15.9,22.75 15.82,22.75 Z M20.31,15.92 C20.13,15.92 19.97,16.04 19.74,16.27 L16.2,19.81 C16.17,19.84 16.12,19.94 16.12,19.98 L15.94,21.23 L17.19,21.05 C17.23,21.04 17.329,20.99 17.36,20.96 L20.9,17.42 C21.06,17.26 21.25,17.03 21.25,16.85 C21.25,16.7 21.13,16.49 20.9,16.27 C20.66,16.03 20.48,15.92 20.31,15.92 Z"/>
  <path fill="#292D32" d="M20.921,19.22 C20.851,19.22 20.781,19.21 20.721,19.19 C19.401,18.82 18.351,17.77 17.981,16.45 C17.871,16.05 18.101,15.64 18.501,15.53 C18.901,15.42 19.311,15.65 19.421,16.05 C19.651,16.87 20.301,17.52 21.121,17.75 C21.521,17.86 21.751,18.28 21.641,18.67 C21.551,19 21.251,19.22 20.921,19.22 Z"/>
  <path fill="#292D32" d="M3.41,22.75 C3,22.75 2.66,22.41 2.66,22 C2.66,17.73 6.85,14.25 12,14.25 C13.09,14.25 14.17,14.41 15.18,14.71 C15.58,14.83 15.8,15.25 15.68,15.64 C15.56,16.04 15.14,16.26 14.75,16.14 C13.87,15.88 12.95,15.74 12,15.74 C7.68,15.74 4.16,18.54 4.16,21.99 C4.16,22.41 3.82,22.75 3.41,22.75 Z"/>
</svg>

