<svg xmlns="http://www.w3.org/2000/svg" width="24" height="24" viewBox="0 0 24 24">
  <defs/>
  <path fill="#292D32" d="M12,12.75 C8.83,12.75 6.25,10.17 6.25,7 C6.25,3.83 8.83,1.25 12,1.25 C15.17,1.25 17.75,3.83 17.75,7 C17.75,10.17 15.17,12.75 12,12.75 Z M12,2.75 C9.66,2.75 7.75,4.66 7.75,7 C7.75,9.34 9.66,11.25 12,11.25 C14.34,11.25 16.25,9.34 16.25,7 C16.25,4.66 14.34,2.75 12,2.75 Z"/>
  <path fill="#292D32" d="M3.41,22.75 C3,22.75 2.66,22.41 2.66,22 C2.66,17.73 6.85,14.25 12,14.25 C13.01,14.25 14,14.38 14.96,14.65 C15.36,14.76 15.59,15.17 15.48,15.57 C15.37,15.97 14.96,16.2 14.56,16.09 C13.74,15.86 12.88,15.75 12,15.75 C7.68,15.75 4.16,18.55 4.16,22 C4.16,22.41 3.82,22.75 3.41,22.75 Z"/>
  <path fill="#292D32" d="M18,22.75 C16.34,22.75 14.78,21.87 13.94,20.44 C13.49,19.72 13.25,18.87 13.25,18 C13.25,16.54 13.9,15.19 15.03,14.29 C15.87,13.62 16.93,13.25 18,13.25 C20.62,13.25 22.75,15.38 22.75,18 C22.75,18.87 22.51,19.72 22.06,20.45 C21.81,20.87 21.49,21.25 21.11,21.57 C20.28,22.33 19.17,22.75 18,22.75 Z M18,14.75 C17.26,14.75 16.56,15 15.97,15.47 C15.2,16.08 14.75,17.01 14.75,18 C14.75,18.59 14.91,19.17 15.22,19.67 C15.8,20.65 16.87,21.25 18,21.25 C18.79,21.25 19.55,20.96 20.13,20.44 C20.39,20.22 20.61,19.96 20.77,19.68 C21.09,19.17 21.25,18.59 21.25,18 C21.25,16.21 19.79,14.75 18,14.75 Z"/>
  <path fill="#292D32" d="M17.429,19.74 C17.239,19.74 17.049,19.67 16.899,19.52 L15.909,18.53 C15.619,18.24 15.619,17.76 15.909,17.47 C16.199,17.18 16.679,17.18 16.969,17.47 L17.449,17.95 L19.049,16.47 C19.349,16.19 19.829,16.21 20.109,16.51 C20.389,16.81 20.369,17.29 20.069,17.57 L17.939,19.54 C17.789,19.67 17.609,19.74 17.429,19.74 Z"/>
</svg>

