<svg xmlns="http://www.w3.org/2000/svg" width="24" height="24" viewBox="0 0 24 24">
  <defs/>
  <path fill="#292D32" d="M14.565,3.607 Q13.441,2.75 12,2.75 Q10.241,2.75 8.995,3.995 Q7.75,5.241 7.75,7 Q7.75,8.759 8.995,10.005 Q10.241,11.25 12,11.25 Q13.759,11.25 15.005,10.005 Q16.25,8.759 16.25,7 Q16.25,6.689 16.47,6.47 Q16.689,6.25 17,6.25 Q17.311,6.25 17.53,6.47 Q17.75,6.689 17.75,7 Q17.75,9.381 16.065,11.065 Q14.381,12.75 12,12.75 Q9.619,12.75 7.935,11.065 Q6.25,9.381 6.25,7 Q6.25,4.619 7.935,2.935 Q9.619,1.25 12,1.25 Q13.948,1.25 15.475,2.413 Q15.722,2.602 15.763,2.91 Q15.805,3.217 15.617,3.465 Q15.428,3.712 15.12,3.753 Q14.813,3.795 14.565,3.607 Z"/>
  <path fill="#292D32" d="M19.84,22 Q19.84,19.455 17.599,17.63 Q15.29,15.75 12,15.75 Q8.71,15.75 6.401,17.63 Q4.16,19.455 4.16,22 Q4.16,22.311 3.94,22.53 Q3.721,22.75 3.41,22.75 Q3.099,22.75 2.88,22.53 Q2.66,22.311 2.66,22 Q2.66,18.742 5.454,16.467 Q8.177,14.25 12,14.25 Q15.824,14.25 18.546,16.467 Q21.34,18.742 21.34,22 Q21.34,22.311 21.12,22.53 Q20.901,22.75 20.59,22.75 Q20.279,22.75 20.06,22.53 Q19.84,22.311 19.84,22 Z"/>
</svg>

