<svg xmlns="http://www.w3.org/2000/svg" width="24" height="24" viewBox="0 0 24 24">
  <defs/>
  <path fill="#292D32" d="M16.19,2 L7.81,2 C4.17,2 2,4.17 2,7.81 L2,16.19 C2,19 3.29,20.93 5.56,21.66 C6.22,21.89 6.98,22 7.81,22 L16.19,22 C17.02,22 17.78,21.89 18.44,21.66 C20.71,20.93 22,19 22,16.19 L22,7.81 C22,4.17 19.83,2 16.19,2 Z M20.5,16.19 C20.5,18.33 19.66,19.68 17.97,20.24 C17,18.33 14.7,16.97 12,16.97 C9.3,16.97 7.01,18.32 6.03,20.24 L6.02,20.24 C4.35,19.7 3.5,18.34 3.5,16.2 L3.5,7.81 C3.5,4.99 4.99,3.5 7.81,3.5 L16.19,3.5 C19.01,3.5 20.5,4.99 20.5,7.81 L20.5,16.19 Z"/>
  <path fill="#292D32" d="M12.002,8 C10.022,8 8.422,9.6 8.422,11.58 C8.422,13.56 10.022,15.17 12.002,15.17 C13.982,15.17 15.582,13.56 15.582,11.58 C15.582,9.6 13.982,8 12.002,8 Z"/>
</svg>

