<svg xmlns="http://www.w3.org/2000/svg" width="24" height="24" viewBox="0 0 24 24">
  <defs/>
  <path fill="#292D32" d="M18,19.61 L17.24,19.61 Q16.301,19.61 15.65,20.26 L13.937,21.953 Q11.995,23.87 10.053,21.953 L8.343,20.263 Q7.689,19.61 6.75,19.61 L6,19.61 Q2.25,19.61 2.25,15.89 L2.25,4.98 Q2.25,3.436 3.35,2.347 Q4.447,1.26 6,1.26 L18,1.26 Q21.75,1.26 21.75,4.98 L21.75,15.89 Q21.75,19.61 18,19.61 Z M18,18.11 Q20.25,18.11 20.25,15.89 L20.25,4.98 Q20.25,2.76 18,2.76 L6,2.76 Q5.064,2.76 4.405,3.413 Q3.75,4.062 3.75,4.98 L3.75,15.89 Q3.75,18.11 6,18.11 L6.75,18.11 Q8.311,18.11 9.397,19.196 L11.107,20.886 Q11.995,21.763 12.883,20.886 L14.59,19.199 Q15.679,18.11 17.24,18.11 Z"/>
  <path fill="#292D32" opacity="0.4" d="M12,10.75 Q8.92,10.75 8.92,7.67 Q8.92,4.59 12,4.59 Q15.08,4.59 15.08,7.67 Q15.08,8.946 14.178,9.848 Q13.276,10.75 12,10.75 Z M12,9.25 Q13.58,9.25 13.58,7.67 Q13.58,7.015 13.117,6.553 Q12.654,6.09 12,6.09 Q10.42,6.09 10.42,7.67 Q10.42,8.324 10.883,8.787 Q11.345,9.25 12,9.25 Z"/>
  <path fill="#292D32" opacity="0.4" d="M15.25,15.66 Q15.25,13.15 12,13.15 Q10.61,13.15 9.645,13.936 Q8.75,14.666 8.75,15.66 Q8.75,15.971 8.53,16.19 Q8.311,16.41 8,16.41 Q7.689,16.41 7.47,16.19 Q7.25,15.971 7.25,15.66 Q7.25,13.953 8.697,12.774 Q10.076,11.65 12,11.65 Q13.924,11.65 15.303,12.774 Q16.75,13.953 16.75,15.66 Q16.75,15.971 16.53,16.19 Q16.311,16.41 16,16.41 Q15.689,16.41 15.47,16.19 Q15.25,15.971 15.25,15.66 Z"/>
</svg>

