<svg xmlns="http://www.w3.org/2000/svg" width="24" height="24" viewBox="0 0 24 24">
  <defs/>
  <path fill="#292D32" d="M14.565,3.607 Q13.441,2.75 12,2.75 Q10.241,2.75 8.995,3.995 Q7.75,5.241 7.75,7 Q7.75,8.759 8.995,10.005 Q10.241,11.25 12,11.25 Q13.759,11.25 15.005,10.005 Q16.25,8.759 16.25,7 Q16.25,6.689 16.47,6.47 Q16.689,6.25 17,6.25 Q17.311,6.25 17.53,6.47 Q17.75,6.689 17.75,7 Q17.75,9.381 16.065,11.065 Q14.381,12.75 12,12.75 Q9.619,12.75 7.935,11.065 Q6.25,9.381 6.25,7 Q6.25,4.619 7.935,2.935 Q9.619,1.25 12,1.25 Q13.948,1.25 15.475,2.413 Q15.722,2.602 15.763,2.91 Q15.805,3.217 15.617,3.465 Q15.428,3.712 15.12,3.753 Q14.813,3.795 14.565,3.607 Z"/>
  <path fill="#292D32" d="M2.66,22 Q2.66,18.742 5.454,16.467 Q8.177,14.25 12,14.25 Q13.521,14.25 14.96,14.647 Q15.259,14.73 15.412,15 Q15.566,15.27 15.483,15.569 Q15.401,15.869 15.13,16.022 Q14.86,16.176 14.561,16.093 Q13.317,15.75 12,15.75 Q8.71,15.75 6.401,17.63 Q4.16,19.455 4.16,22 Q4.16,22.311 3.94,22.53 Q3.721,22.75 3.41,22.75 Q3.099,22.75 2.88,22.53 Q2.66,22.311 2.66,22 Z"/>
  <path fill="#292D32" d="M22.75,18 Q22.75,18.571 22.608,19.109 Q22.444,19.829 22.058,20.454 Q20.693,22.75 18,22.75 Q16.18,22.75 14.841,21.53 Q14.295,21.055 13.934,20.44 Q13.25,19.332 13.25,18 Q13.25,16.068 14.592,14.687 Q15.991,13.25 18,13.25 Q20.142,13.25 21.534,14.835 Q22.75,16.185 22.75,18 Z M21.25,18 Q21.25,16.761 20.406,15.825 Q19.463,14.75 18,14.75 Q16.624,14.75 15.668,15.733 Q14.75,16.677 14.75,18 Q14.75,18.907 15.226,19.68 Q15.466,20.086 15.831,20.403 Q15.839,20.41 15.846,20.416 Q16.758,21.25 18,21.25 Q19.84,21.25 20.782,19.666 Q21.04,19.249 21.148,18.765 Q21.152,18.751 21.155,18.737 Q21.25,18.382 21.25,18 Z"/>
  <path fill="#292D32" d="M19.56,17.47 L17.45,19.58 Q17.231,19.8 16.92,19.8 Q16.609,19.8 16.39,19.58 Q16.17,19.361 16.17,19.05 Q16.17,18.739 16.39,18.52 L18.5,16.41 Q18.719,16.19 19.03,16.19 Q19.341,16.19 19.56,16.41 Q19.78,16.629 19.78,16.94 Q19.78,17.251 19.56,17.47 Z"/>
  <path fill="#292D32" d="M17.469,16.428 L19.588,18.538 Q19.809,18.757 19.809,19.068 Q19.81,19.379 19.591,19.599 Q19.372,19.819 19.061,19.82 Q18.751,19.821 18.53,19.601 L16.41,17.492 Q16.19,17.272 16.19,16.962 Q16.189,16.651 16.408,16.431 Q16.627,16.211 16.938,16.21 Q17.248,16.209 17.469,16.428 Z"/>
</svg>

