<svg xmlns="http://www.w3.org/2000/svg" width="24" height="24" viewBox="0 0 24 24">
  <defs/>
  <path fill="#292D32" d="M14.565,3.607 Q13.441,2.75 12,2.75 Q10.241,2.75 8.995,3.995 Q7.75,5.241 7.75,7 Q7.75,8.759 8.995,10.005 Q10.241,11.25 12,11.25 Q13.759,11.25 15.005,10.005 Q16.25,8.759 16.25,7 Q16.25,6.689 16.47,6.47 Q16.689,6.25 17,6.25 Q17.311,6.25 17.53,6.47 Q17.75,6.689 17.75,7 Q17.75,9.381 16.065,11.065 Q14.381,12.75 12,12.75 Q9.619,12.75 7.935,11.065 Q6.25,9.381 6.25,7 Q6.25,4.619 7.935,2.935 Q9.619,1.25 12,1.25 Q13.948,1.25 15.475,2.413 Q15.722,2.602 15.763,2.91 Q15.805,3.217 15.617,3.465 Q15.428,3.712 15.12,3.753 Q14.813,3.795 14.565,3.607 Z"/>
  <path fill="#292D32" d="M18.679,15.21 Q19.385,14.503 20.132,14.426 Q21.079,14.329 21.949,15.2 Q23.59,16.84 21.949,18.48 L18.418,22.012 Q18.019,22.434 17.394,22.533 L16.045,22.722 Q15.306,22.828 14.819,22.34 Q14.331,21.853 14.436,21.115 L14.628,19.753 Q14.721,19.168 15.139,18.75 Z M19.739,16.27 L16.199,19.81 Q16.126,19.884 16.11,19.987 L15.936,21.223 L17.184,21.047 Q17.281,21.032 17.33,20.98 Q17.339,20.969 17.349,20.96 L20.889,17.42 Q21.218,17.091 21.239,16.875 Q21.263,16.634 20.889,16.26 Q20.609,15.98 20.327,15.978 Q20.034,15.975 19.739,16.27 Z"/>
  <path fill="#292D32" d="M19.422,16.049 Q19.791,17.378 21.12,17.747 Q21.419,17.831 21.572,18.101 Q21.725,18.371 21.642,18.671 Q21.559,18.97 21.288,19.123 Q21.018,19.276 20.718,19.193 Q18.573,18.597 17.977,16.451 Q17.893,16.151 18.046,15.881 Q18.199,15.611 18.498,15.527 Q18.798,15.444 19.068,15.597 Q19.339,15.75 19.422,16.049 Z"/>
  <path fill="#292D32" d="M2.66,22 Q2.66,18.742 5.454,16.467 Q8.177,14.25 12,14.25 Q13.652,14.25 15.186,14.712 Q15.484,14.801 15.631,15.075 Q15.778,15.349 15.688,15.646 Q15.599,15.944 15.325,16.091 Q15.051,16.238 14.754,16.148 Q13.432,15.75 12,15.75 Q8.71,15.75 6.401,17.63 Q4.16,19.455 4.16,22 Q4.16,22.311 3.94,22.53 Q3.721,22.75 3.41,22.75 Q3.099,22.75 2.88,22.53 Q2.66,22.311 2.66,22 Z"/>
</svg>

