<svg xmlns="http://www.w3.org/2000/svg" width="24" height="24" viewBox="0 0 24 24">
  <defs/>
  <path fill="#292D32" d="M12,22.75 C11.3,22.75 10.59,22.48 10.06,21.95 L8.35,20.26 C7.93,19.84 7.35,19.61 6.76,19.61 L6,19.61 C3.93,19.61 2.25,17.94 2.25,15.89 L2.25,4.98 C2.25,2.93 3.93,1.26 6,1.26 L18,1.26 C20.07,1.26 21.75,2.93 21.75,4.98 L21.75,15.89 C21.75,17.94 20.07,19.61 18,19.61 L17.24,19.61 C16.65,19.61 16.07,19.85 15.65,20.26 L13.94,21.95 C13.41,22.48 12.7,22.75 12,22.75 Z M6,2.75 C4.76,2.75 3.75,3.75 3.75,4.97 L3.75,15.88 C3.75,17.11 4.76,18.1 6,18.1 L6.76,18.1 C7.75,18.1 8.71,18.5 9.41,19.19 L11.12,20.88 C11.61,21.36 12.4,21.36 12.89,20.88 L14.6,19.19 C15.3,18.5 16.26,18.1 17.25,18.1 L18,18.1 C19.24,18.1 20.25,17.1 20.25,15.88 L20.25,4.97 C20.25,3.74 19.24,2.75 18,2.75 L6,2.75 Z"/>
  <path fill="#292D32" d="M12,10.75 C10.3,10.75 8.92,9.37 8.92,7.67 C8.92,5.97 10.3,4.59 12,4.59 C13.7,4.59 15.08,5.97 15.08,7.67 C15.08,9.37 13.7,10.75 12,10.75 Z M12,6.09 C11.13,6.09 10.42,6.8 10.42,7.67 C10.42,8.54 11.13,9.25 12,9.25 C12.87,9.25 13.58,8.54 13.58,7.67 C13.58,6.8 12.87,6.09 12,6.09 Z"/>
  <path fill="#292D32" d="M16,16.41 C15.59,16.41 15.25,16.07 15.25,15.66 C15.25,14.28 13.79,13.15 12,13.15 C10.21,13.15 8.75,14.28 8.75,15.66 C8.75,16.07 8.41,16.41 8,16.41 C7.59,16.41 7.25,16.07 7.25,15.66 C7.25,13.45 9.38,11.65 12,11.65 C14.62,11.65 16.75,13.45 16.75,15.66 C16.75,16.07 16.41,16.41 16,16.41 Z"/>
</svg>

