<svg xmlns="http://www.w3.org/2000/svg" width="24" height="24" viewBox="0 0 24 24">
  <defs/>
  <path fill="#292D32" d="M11.46,14.48 C9.5,14.48 7.9,12.88 7.9,10.92 C7.9,8.96 9.5,7.36 11.46,7.36 C13.42,7.36 15.02,8.96 15.02,10.92 C15.02,12.88 13.42,14.48 11.46,14.48 Z M11.46,8.87 C10.33,8.87 9.4,9.79 9.4,10.93 C9.4,12.07 10.32,12.99 11.46,12.99 C12.6,12.99 13.52,12.07 13.52,10.93 C13.52,9.79 12.6,8.87 11.46,8.87 Z"/>
  <path fill="#292D32" d="M16.649,20.95 C16.239,20.95 15.899,20.61 15.899,20.2 C15.899,18.28 13.909,16.72 11.46,16.72 C9.01,16.72 7.02,18.28 7.02,20.2 C7.02,20.61 6.68,20.95 6.27,20.95 C5.86,20.95 5.52,20.61 5.52,20.2 C5.52,17.46 8.18,15.22 11.46,15.22 C14.739,15.22 17.399,17.45 17.399,20.2 C17.399,20.61 17.059,20.95 16.649,20.95 Z"/>
  <path fill="#292D32" d="M11.5,22.75 C5.85,22.75 1.25,18.15 1.25,12.5 C1.25,6.85 5.85,2.25 11.5,2.25 C12.89,2.25 14.23,2.52 15.49,3.05 C15.85,3.2 16.03,3.6 15.91,3.97 C15.8,4.3 15.75,4.65 15.75,5 C15.75,5.59 15.91,6.17 16.22,6.67 C16.38,6.95 16.59,7.2 16.83,7.41 C17.7,8.2 18.99,8.45 20,8.09 C20.37,7.95 20.79,8.14 20.94,8.51 C21.48,9.78 21.75,11.13 21.75,12.51 C21.75,18.15 17.15,22.75 11.5,22.75 Z M11.5,3.75 C6.68,3.75 2.75,7.67 2.75,12.5 C2.75,17.33 6.68,21.25 11.5,21.25 C16.32,21.25 20.25,17.33 20.25,12.5 C20.25,11.54 20.09,10.59 19.79,9.68 C18.41,9.92 16.9,9.49 15.84,8.52 C15.49,8.22 15.18,7.85 14.94,7.44 C14.5,6.72 14.26,5.87 14.26,5 C14.26,4.73 14.28,4.47 14.33,4.21 C13.42,3.9 12.47,3.75 11.5,3.75 Z"/>
  <path fill="#292D32" d="M19,9.75 C17.82,9.75 16.7,9.31 15.83,8.52 C15.48,8.22 15.17,7.85 14.93,7.44 C14.49,6.72 14.25,5.87 14.25,5 C14.25,4.49 14.33,3.99 14.49,3.51 C14.71,2.83 15.09,2.2 15.6,1.69 C16.5,0.77 17.71,0.25 19.01,0.25 C20.37,0.25 21.66,0.83 22.54,1.83 C23.32,2.7 23.76,3.82 23.76,5 C23.76,5.38 23.71,5.76 23.61,6.12 C23.51,6.57 23.32,7.04 23.06,7.45 C22.48,8.43 21.56,9.16 20.48,9.5 C20.03,9.67 19.53,9.75 19,9.75 Z M19,1.75 C18.11,1.75 17.28,2.1 16.67,2.73 C16.32,3.09 16.07,3.5 15.92,3.97 C15.81,4.3 15.76,4.65 15.76,5 C15.76,5.59 15.92,6.17 16.23,6.67 C16.39,6.95 16.6,7.2 16.84,7.41 C17.71,8.2 19,8.45 20.01,8.09 C20.77,7.85 21.39,7.35 21.79,6.68 C21.97,6.39 22.09,6.08 22.16,5.77 C22.23,5.51 22.26,5.26 22.26,5 C22.26,4.2 21.96,3.43 21.42,2.83 C20.81,2.14 19.93,1.75 19,1.75 Z"/>
  <path fill="#292D32" d="M20.49,5.73 L17.5,5.73 C17.09,5.73 16.75,5.39 16.75,4.98 C16.75,4.57 17.09,4.23 17.5,4.23 L20.49,4.23 C20.9,4.23 21.24,4.57 21.24,4.98 C21.24,5.39 20.91,5.73 20.49,5.73 Z"/>
  <path fill="#292D32" d="M19,7.26 C18.59,7.26 18.25,6.92 18.25,6.51 L18.25,3.52 C18.25,3.11 18.59,2.77 19,2.77 C19.41,2.77 19.75,3.11 19.75,3.52 L19.75,6.51 C19.75,6.93 19.41,7.26 19,7.26 Z"/>
</svg>

