<svg xmlns="http://www.w3.org/2000/svg" width="24" height="24" viewBox="0 0 24 24">
  <defs/>
  <path fill="#292D32" d="M11.46,14.48 Q9.985,14.48 8.943,13.437 Q7.9,12.395 7.9,10.92 Q7.9,7.36 11.46,7.36 Q12.935,7.36 13.977,8.403 Q15.02,9.445 15.02,10.92 Q15.02,14.48 11.46,14.48 Z M11.46,12.98 Q13.52,12.98 13.52,10.92 Q13.52,10.067 12.917,9.463 Q12.313,8.86 11.46,8.86 Q10.607,8.86 10.003,9.463 Q9.4,10.067 9.4,10.92 Q9.4,12.98 11.46,12.98 Z"/>
  <path fill="#292D32" d="M15.9,20.2 Q15.9,16.72 11.46,16.72 Q8.71,16.72 7.663,18.055 Q7.02,18.876 7.02,20.2 Q7.02,20.511 6.8,20.73 Q6.581,20.95 6.27,20.95 Q5.959,20.95 5.74,20.73 Q5.52,20.511 5.52,20.2 Q5.52,18.089 7.315,16.626 Q9.04,15.22 11.46,15.22 Q13.878,15.22 15.606,16.63 Q17.4,18.095 17.4,20.2 Q17.4,20.511 17.18,20.73 Q16.961,20.95 16.65,20.95 Q16.339,20.95 16.12,20.73 Q15.9,20.511 15.9,20.2 Z"/>
  <path fill="#292D32" d="M21.75,12.5 Q21.75,16.748 18.749,19.749 Q15.748,22.75 11.5,22.75 Q7.252,22.75 4.251,19.749 Q1.25,16.748 1.25,12.5 Q1.25,8.252 4.251,5.251 Q7.252,2.25 11.5,2.25 Q13.594,2.25 15.491,3.049 Q15.76,3.162 15.882,3.428 Q16.004,3.694 15.913,3.972 Q15.75,4.474 15.75,5 Q15.75,5.907 16.218,6.666 Q16.466,7.086 16.831,7.403 Q16.839,7.41 16.846,7.416 Q17.758,8.25 19,8.25 Q19.534,8.25 19.997,8.084 Q20.278,7.983 20.552,8.103 Q20.825,8.223 20.941,8.499 Q21.75,10.42 21.75,12.5 Z M20.25,12.5 Q20.25,11.047 19.788,9.684 Q19.405,9.75 19,9.75 Q17.18,9.75 15.841,8.53 Q15.295,8.055 14.942,7.454 Q14.25,6.332 14.25,5 Q14.25,4.598 14.316,4.206 Q12.966,3.75 11.5,3.75 Q7.873,3.75 5.312,6.312 Q2.75,8.873 2.75,12.5 Q2.75,16.127 5.312,18.688 Q7.873,21.25 11.5,21.25 Q15.127,21.25 17.688,18.688 Q20.25,16.127 20.25,12.5 Z"/>
  <path fill="#292D32" d="M23.75,5 Q23.75,5.571 23.608,6.109 Q23.444,6.829 23.058,7.454 Q22.161,8.969 20.489,9.501 Q19.788,9.75 19,9.75 Q17.18,9.75 15.841,8.53 Q15.295,8.055 14.934,7.44 Q14.25,6.332 14.25,5 Q14.25,4.237 14.487,3.508 Q14.826,2.471 15.593,1.686 Q16.991,0.25 19,0.25 Q21.142,0.25 22.534,1.835 Q23.75,3.185 23.75,5 Z M22.25,5 Q22.25,3.761 21.406,2.825 Q20.463,1.75 19,1.75 Q17.624,1.75 16.667,2.734 Q16.143,3.27 15.913,3.972 Q15.75,4.474 15.75,5 Q15.75,5.907 16.226,6.68 Q16.466,7.086 16.831,7.403 Q16.839,7.41 16.846,7.416 Q17.758,8.25 19,8.25 Q19.534,8.25 19.997,8.084 Q20.01,8.079 20.025,8.075 Q21.159,7.717 21.782,6.666 Q22.04,6.249 22.148,5.765 Q22.152,5.751 22.155,5.737 Q22.25,5.382 22.25,5 Z"/>
  <path fill="#292D32" d="M20.49,5.73 L17.51,5.73 Q17.199,5.73 16.98,5.51 Q16.76,5.291 16.76,4.98 Q16.76,4.669 16.98,4.45 Q17.199,4.23 17.51,4.23 L20.49,4.23 Q20.801,4.23 21.02,4.45 Q21.24,4.669 21.24,4.98 Q21.24,5.291 21.02,5.51 Q20.801,5.73 20.49,5.73 Z"/>
  <path fill="#292D32" d="M19.75,3.52 L19.75,6.51 Q19.75,6.821 19.53,7.04 Q19.311,7.26 19,7.26 Q18.689,7.26 18.47,7.04 Q18.25,6.821 18.25,6.51 L18.25,3.52 Q18.25,3.209 18.47,2.99 Q18.689,2.77 19,2.77 Q19.311,2.77 19.53,2.99 Q19.75,3.209 19.75,3.52 Z"/>
</svg>

