<svg xmlns="http://www.w3.org/2000/svg" width="24" height="24" viewBox="0 0 24 24">
  <defs/>
  <path fill="#292D32" d="M14.565,3.607 Q13.441,2.75 12,2.75 Q10.241,2.75 8.995,3.995 Q7.75,5.241 7.75,7 Q7.75,8.759 8.995,10.005 Q10.241,11.25 12,11.25 Q13.759,11.25 15.005,10.005 Q16.25,8.759 16.25,7 Q16.25,6.689 16.47,6.47 Q16.689,6.25 17,6.25 Q17.311,6.25 17.53,6.47 Q17.75,6.689 17.75,7 Q17.75,9.381 16.065,11.065 Q14.381,12.75 12,12.75 Q9.619,12.75 7.935,11.065 Q6.25,9.381 6.25,7 Q6.25,4.619 7.935,2.935 Q9.619,1.25 12,1.25 Q13.948,1.25 15.475,2.413 Q15.722,2.602 15.763,2.91 Q15.805,3.217 15.617,3.465 Q15.428,3.712 15.12,3.753 Q14.813,3.795 14.565,3.607 Z"/>
  <path fill="#292D32" d="M2.66,22 Q2.66,18.742 5.454,16.467 Q8.177,14.25 12,14.25 Q12.311,14.25 12.531,14.47 Q12.75,14.689 12.75,15 Q12.75,15.311 12.531,15.53 Q12.311,15.75 12,15.75 Q8.71,15.75 6.401,17.63 Q4.16,19.455 4.16,22 Q4.16,22.311 3.94,22.53 Q3.721,22.75 3.41,22.75 Q3.099,22.75 2.88,22.53 Q2.66,22.311 2.66,22 Z"/>
  <path fill="#292D32" d="M18.2,22.15 Q16.564,22.15 15.407,20.993 Q14.25,19.836 14.25,18.2 Q14.25,14.25 18.2,14.25 Q19.836,14.25 20.993,15.407 Q22.15,16.564 22.15,18.2 Q22.15,22.15 18.2,22.15 Z M18.2,20.65 Q19.215,20.65 19.932,19.932 Q20.65,19.215 20.65,18.2 Q20.65,17.185 19.932,16.468 Q19.215,15.75 18.2,15.75 Q15.75,15.75 15.75,18.2 Q15.75,19.215 16.468,19.932 Q17.185,20.65 18.2,20.65 Z"/>
  <path fill="#292D32" d="M21.47,22.53 L20.47,21.53 Q20.25,21.311 20.25,21 Q20.25,20.689 20.47,20.47 Q20.689,20.25 21,20.25 Q21.311,20.25 21.53,20.47 L22.53,21.47 Q22.75,21.689 22.75,22 Q22.75,22.311 22.53,22.53 Q22.311,22.75 22,22.75 Q21.689,22.75 21.47,22.53 Z"/>
</svg>

