<svg xmlns="http://www.w3.org/2000/svg" width="24" height="24" viewBox="0 0 24 24">
  <defs/>
  <path fill="#292D32" d="M15.001,22.75 L9.001,22.75 C7.681,22.75 6.581,22.62 5.651,22.34 C5.311,22.24 5.091,21.91 5.111,21.56 C5.361,18.57 8.391,16.22 12.001,16.22 C15.611,16.22 18.631,18.56 18.891,21.56 C18.921,21.92 18.701,22.24 18.351,22.34 C17.421,22.62 16.321,22.75 15.001,22.75 Z M6.721,21.06 C7.381,21.19 8.131,21.25 9.001,21.25 L15.001,21.25 C15.871,21.25 16.621,21.19 17.281,21.06 C16.751,19.14 14.561,17.72 12.001,17.72 C9.441,17.72 7.251,19.14 6.721,21.06 Z"/>
  <path fill="#292D32" d="M15,1.25 Q22.75,1.25 22.75,9 L22.75,15 Q22.75,21.094 18.344,22.342 Q18.275,22.361 18.203,22.367 Q17.894,22.394 17.656,22.193 Q17.419,21.993 17.393,21.683 Q17.057,17.72 12,17.72 Q6.943,17.72 6.607,21.683 Q6.601,21.755 6.582,21.824 Q6.497,22.123 6.226,22.275 Q5.955,22.426 5.656,22.342 Q1.25,21.094 1.25,15 L1.25,9 Q1.25,1.25 9,1.25 Z M15,2.75 L9,2.75 Q2.75,2.75 2.75,9 L2.75,15 Q2.75,19.337 5.283,20.599 Q5.748,18.934 7.34,17.723 Q9.316,16.22 12,16.22 Q14.684,16.22 16.66,17.723 Q18.252,18.934 18.717,20.599 Q21.25,19.337 21.25,15 L21.25,9 Q21.25,2.75 15,2.75 Z M12,14.92 Q10.204,14.92 8.936,13.647 Q7.67,12.376 7.67,10.58 Q7.67,8.784 8.937,7.517 Q10.204,6.25 12,6.25 Q13.796,6.25 15.063,7.517 Q16.33,8.784 16.33,10.58 Q16.33,12.376 15.064,13.647 Q13.796,14.92 12,14.92 Z M12,13.42 Q14.83,13.42 14.83,10.58 Q14.83,9.406 14.002,8.578 Q13.174,7.75 12,7.75 Q9.17,7.75 9.17,10.58 Q9.17,11.756 9.999,12.588 Q10.827,13.42 12,13.42 Z"/>
  <path fill="#292D32" d="M12,14.92 C9.61,14.92 7.67,12.97 7.67,10.58 C7.67,8.19 9.61,6.25 12,6.25 C14.39,6.25 16.33,8.19 16.33,10.58 C16.33,12.97 14.39,14.92 12,14.92 Z M12,7.75 C10.44,7.75 9.17,9.02 9.17,10.58 C9.17,12.15 10.44,13.42 12,13.42 C13.56,13.42 14.83,12.15 14.83,10.58 C14.83,9.02 13.56,7.75 12,7.75 Z"/>
</svg>

