<svg xmlns="http://www.w3.org/2000/svg" width="24" height="24" viewBox="0 0 24 24">
  <defs/>
  <path fill="#292D32" opacity="0.4" d="M21.08,8.58 L21.08,15.42 C21.08,16.54 20.48,17.58 19.51,18.15 L13.57,21.58 C12.6,22.14 11.4,22.14 10.42,21.58 L4.48,18.15 C3.51,17.59 2.91,16.55 2.91,15.42 L2.91,8.58 C2.91,7.46 3.51,6.42 4.48,5.85 L10.42,2.42 C11.39,1.86 12.59,1.86 13.57,2.42 L19.51,5.85 C20.48,6.42 21.08,7.45 21.08,8.58 Z"/>
  <path fill="#292D32" d="M12,12 C13.287,12 14.33,10.957 14.33,9.67 C14.33,8.383 13.287,7.34 12,7.34 C10.713,7.34 9.67,8.383 9.67,9.67 C9.67,10.957 10.713,12 12,12 Z"/>
  <path fill="#292D32" d="M14.679,16.66 C15.489,16.66 15.959,15.76 15.509,15.09 C14.829,14.08 13.509,13.4 11.999,13.4 C10.489,13.4 9.169,14.08 8.489,15.09 C8.039,15.76 8.509,16.66 9.319,16.66 L14.679,16.66 Z"/>
</svg>

