<svg xmlns="http://www.w3.org/2000/svg" width="24" height="24" viewBox="0 0 24 24">
  <defs/>
  <path fill="#292D32" d="M12,15 C6.99,15 2.91,18.36 2.91,22.5 C2.91,22.78 3.13,23 3.41,23 L20.59,23 C20.87,23 21.09,22.78 21.09,22.5 C21.09,18.36 17.01,15 12,15 Z"/>
  <path fill="#292D32" d="M15.71,3.66 C14.81,2.64 13.47,2 12,2 C10.6,2 9.32,2.57 8.41,3.51 C7.54,4.41 7,5.65 7,7 C7,7.94 7.26,8.82 7.73,9.57 C7.98,10 8.3,10.39 8.68,10.71 C9.55,11.51 10.71,12 12,12 C13.83,12 15.41,11.02 16.28,9.57 C16.54,9.14 16.74,8.66 16.85,8.16 C16.95,7.79 17,7.4 17,7 C17,5.72 16.51,4.55 15.71,3.66 Z M13.87,7.92 L12.94,7.92 L12.94,8.89 C12.94,9.41 12.52,9.83 12,9.83 C11.48,9.83 11.06,9.41 11.06,8.89 L11.06,7.92 L10.13,7.92 C9.61,7.92 9.19,7.5 9.19,6.98 C9.19,6.46 9.61,6.04 10.13,6.04 L11.06,6.04 L11.06,5.15 C11.06,4.63 11.48,4.21 12,4.21 C12.52,4.21 12.94,4.63 12.94,5.15 L12.94,6.04 L13.87,6.04 C14.39,6.04 14.81,6.46 14.81,6.98 C14.81,7.5 14.39,7.92 13.87,7.92 Z"/>
</svg>

