<svg xmlns="http://www.w3.org/2000/svg" width="24" height="24" viewBox="0 0 24 24">
  <defs/>
  <path fill="#292D32" d="M18.352,22.339 Q16.962,22.75 14.999,22.75 L8.999,22.75 Q7.037,22.75 5.647,22.339 Q5.391,22.264 5.24,22.043 Q5.09,21.823 5.112,21.557 Q5.306,19.27 7.339,17.723 Q9.315,16.22 11.999,16.22 Q14.683,16.22 16.66,17.723 Q18.693,19.27 18.887,21.557 Q18.909,21.823 18.759,22.043 Q18.608,22.264 18.352,22.339 Z M17.304,21.053 Q16.637,17.72 11.999,17.72 Q7.362,17.72 6.695,21.053 Q7.688,21.25 8.999,21.25 L14.999,21.25 Q16.311,21.25 17.304,21.053 Z"/>
  <path fill="#292D32" d="M1.25,9 Q1.25,1.25 9,1.25 L15,1.25 Q22.75,1.25 22.75,9 L22.75,15 Q22.75,21.094 18.344,22.342 Q18.275,22.361 18.203,22.367 Q17.894,22.394 17.656,22.193 Q17.419,21.993 17.393,21.683 Q17.057,17.72 12,17.72 Q6.943,17.72 6.607,21.683 Q6.601,21.755 6.582,21.824 Q6.497,22.123 6.226,22.275 Q5.955,22.426 5.656,22.342 Q1.25,21.094 1.25,15 L1.25,9 Z M2.75,15 Q2.75,19.337 5.283,20.599 Q5.748,18.934 7.34,17.723 Q9.316,16.22 12,16.22 Q14.684,16.22 16.66,17.723 Q18.252,18.934 18.717,20.599 Q21.25,19.337 21.25,15 L21.25,9 Q21.25,2.75 15,2.75 L9,2.75 Q2.75,2.75 2.75,9 L2.75,15 Z M12,14.92 Q10.204,14.92 8.936,13.647 Q7.67,12.376 7.67,10.58 Q7.67,8.784 8.937,7.517 Q10.204,6.25 12,6.25 Q13.796,6.25 15.063,7.517 Q16.33,8.784 16.33,10.58 Q16.33,12.376 15.064,13.647 Q13.796,14.92 12,14.92 Z M12,13.42 Q14.83,13.42 14.83,10.58 Q14.83,9.406 14.002,8.578 Q13.174,7.75 12,7.75 Q9.17,7.75 9.17,10.58 Q9.17,11.756 9.999,12.588 Q10.827,13.42 12,13.42 Z"/>
  <path fill="#292D32" d="M16.33,10.58 Q16.33,12.376 15.064,13.647 Q13.795,14.92 12,14.92 Q10.204,14.92 8.936,13.647 Q7.67,12.376 7.67,10.58 Q7.67,8.784 8.937,7.517 Q10.204,6.25 12,6.25 Q13.796,6.25 15.063,7.517 Q16.33,8.784 16.33,10.58 Z M14.83,10.58 Q14.83,9.406 14.002,8.578 Q13.174,7.75 12,7.75 Q9.17,7.75 9.17,10.58 Q9.17,11.756 9.999,12.588 Q10.827,13.42 12,13.42 Q13.172,13.42 14.001,12.588 Q14.83,11.756 14.83,10.58 Z"/>
</svg>

