<svg xmlns="http://www.w3.org/2000/svg" width="24" height="24" viewBox="0 0 24 24">
  <defs/>
  <path fill="#292D32" d="M12,12.75 C8.83,12.75 6.25,10.17 6.25,7 C6.25,3.83 8.83,1.25 12,1.25 C15.17,1.25 17.75,3.83 17.75,7 C17.75,10.17 15.17,12.75 12,12.75 Z M12,2.75 C9.66,2.75 7.75,4.66 7.75,7 C7.75,9.34 9.66,11.25 12,11.25 C14.34,11.25 16.25,9.34 16.25,7 C16.25,4.66 14.34,2.75 12,2.75 Z"/>
  <path fill="#292D32" d="M20.59,22.75 C20.18,22.75 19.84,22.41 19.84,22 C19.84,18.55 16.32,15.75 12,15.75 C7.68,15.75 4.16,18.55 4.16,22 C4.16,22.41 3.82,22.75 3.41,22.75 C3,22.75 2.66,22.41 2.66,22 C2.66,17.73 6.85,14.25 12,14.25 C17.15,14.25 21.34,17.73 21.34,22 C21.34,22.41 21,22.75 20.59,22.75 Z"/>
</svg>

