<svg xmlns="http://www.w3.org/2000/svg" width="24" height="24" viewBox="0 0 24 24">
  <defs/>
  <path fill="#292D32" opacity="0.4" d="M21.09,21.5 C21.09,21.78 20.87,22 20.59,22 L3.41,22 C3.13,22 2.91,21.78 2.91,21.5 C2.91,17.36 6.99,14 12,14 C13.03,14 14.03,14.14 14.95,14.41 C14.36,15.11 14,16.02 14,17 C14,17.75 14.21,18.46 14.58,19.06 C14.78,19.4 15.04,19.71 15.34,19.97 C16.04,20.61 16.97,21 18,21 C19.12,21 20.13,20.54 20.85,19.8 C21.01,20.34 21.09,20.91 21.09,21.5 Z"/>
  <path fill="#292D32" d="M21.881,16.04 C21.781,15.65 21.621,15.26 21.401,14.91 C21.251,14.65 21.051,14.4 20.831,14.17 C20.111,13.45 19.171,13.06 18.211,13.01 C17.121,12.94 16.011,13.34 15.171,14.17 C14.381,14.96 13.981,16.01 14.001,17.06 C14.011,18.06 14.411,19.06 15.171,19.83 C15.701,20.36 16.351,20.71 17.041,20.87 C17.421,20.97 17.821,21.01 18.221,20.98 C19.171,20.94 20.101,20.56 20.831,19.83 C21.861,18.8 22.211,17.35 21.881,16.04 Z M19.601,18.6 C19.311,18.89 18.831,18.89 18.541,18.6 L17.991,18.05 L17.461,18.58 C17.171,18.87 16.691,18.87 16.401,18.58 C16.111,18.28 16.111,17.81 16.401,17.52 L16.931,16.99 L16.421,16.49 C16.131,16.19 16.131,15.72 16.421,15.42 C16.721,15.13 17.191,15.13 17.491,15.42 L17.991,15.93 L18.521,15.4 C18.811,15.11 19.281,15.11 19.581,15.4 C19.871,15.69 19.871,16.17 19.581,16.46 L19.051,16.99 L19.601,17.54 C19.891,17.83 19.891,18.31 19.601,18.6 Z"/>
  <path fill="#292D32" d="M12,12 C14.761,12 17,9.761 17,7 C17,4.239 14.761,2 12,2 C9.239,2 7,4.239 7,7 C7,9.761 9.239,12 12,12 Z"/>
</svg>

