<svg xmlns="http://www.w3.org/2000/svg" width="24" height="24" viewBox="0 0 24 24">
  <defs/>
  <path fill="#292D32" d="M18,13 C17.06,13 16.19,13.33 15.5,13.88 C14.58,14.61 14,15.74 14,17 C14,17.75 14.21,18.46 14.58,19.06 C15.27,20.22 16.54,21 18,21 C19.01,21 19.93,20.63 20.63,20 C20.94,19.74 21.21,19.42 21.42,19.06 C21.79,18.46 22,17.75 22,17 C22,14.79 20.21,13 18,13 Z M20.07,16.57 L17.94,18.54 C17.8,18.67 17.61,18.74 17.43,18.74 C17.24,18.74 17.05,18.67 16.9,18.52 L15.91,17.53 C15.62,17.24 15.62,16.76 15.91,16.47 C16.2,16.18 16.68,16.18 16.97,16.47 L17.45,16.95 L19.05,15.47 C19.35,15.19 19.83,15.21 20.11,15.51 C20.39,15.81 20.37,16.28 20.07,16.57 Z"/>
  <path fill="#292D32" opacity="0.4" d="M21.09,21.5 C21.09,21.78 20.87,22 20.59,22 L3.41,22 C3.13,22 2.91,21.78 2.91,21.5 C2.91,17.36 6.99,14 12,14 C13.03,14 14.03,14.14 14.95,14.41 C14.36,15.11 14,16.02 14,17 C14,17.75 14.21,18.46 14.58,19.06 C14.78,19.4 15.04,19.71 15.34,19.97 C16.04,20.61 16.97,21 18,21 C19.12,21 20.13,20.54 20.85,19.8 C21.01,20.34 21.09,20.91 21.09,21.5 Z"/>
  <path fill="#292D32" d="M12,12 C14.761,12 17,9.761 17,7 C17,4.239 14.761,2 12,2 C9.239,2 7,4.239 7,7 C7,9.761 9.239,12 12,12 Z"/>
</svg>

