<svg xmlns="http://www.w3.org/2000/svg" width="24" height="24" viewBox="0 0 24 24">
  <defs/>
  <path fill="#292D32" d="M12,2 C9.24,2 7,4.24 7,7 C7,9.76 9.24,12 12,12 C14.76,12 17,9.76 17,7 C17,4.24 14.76,2 12,2 Z M14.17,6.51 L11.47,9.21 C11.37,9.31 11.16,9.41 11.02,9.44 L9.99,9.58 C9.61,9.63 9.35,9.37 9.41,9 L9.56,7.97 C9.58,7.83 9.68,7.62 9.79,7.52 L12.49,4.82 C12.95,4.36 13.5,4.14 14.18,4.82 C14.85,5.51 14.63,6.05 14.17,6.51 Z"/>
  <path fill="#292D32" d="M12,14 C6.99,14 2.91,17.36 2.91,21.5 C2.91,21.78 3.13,22 3.41,22 L20.59,22 C20.87,22 21.09,21.78 21.09,21.5 C21.09,17.36 17.01,14 12,14 Z"/>
</svg>

