<svg xmlns="http://www.w3.org/2000/svg" width="24" height="24" viewBox="0 0 24 24">
  <defs/>
  <path fill="#292D32" d="M18,2 L6,2 C4.34,2 3,3.33 3,4.97 L3,15.88 C3,17.52 4.34,18.85 6,18.85 L6.76,18.85 C7.56,18.85 8.32,19.16 8.88,19.72 L10.59,21.41 C11.37,22.18 12.64,22.18 13.42,21.41 L15.13,19.72 C15.69,19.16 16.46,18.85 17.25,18.85 L18,18.85 C19.66,18.85 21,17.52 21,15.88 L21,4.97 C21,3.33 19.66,2 18,2 Z M12,5.75 C13.29,5.75 14.33,6.79 14.33,8.08 C14.33,9.37 13.29,10.41 12,10.41 C10.71,10.41 9.67,9.36 9.67,8.08 C9.67,6.79 10.71,5.75 12,5.75 Z M14.68,15.06 L9.32,15.06 C8.51,15.06 8.04,14.16 8.49,13.49 C9.17,12.48 10.49,11.8 12,11.8 C13.51,11.8 14.83,12.48 15.51,13.49 C15.96,14.16 15.48,15.06 14.68,15.06 Z"/>
</svg>

