<svg xmlns="http://www.w3.org/2000/svg" width="24" height="24" viewBox="0 0 24 24">
  <defs/>
  <path fill="#292D32" d="M10.055,1.77 Q11.995,0.65 13.952,1.769 L19.895,5.2 Q21.84,6.323 21.84,8.58 L21.84,15.42 Q21.84,17.657 19.9,18.797 L13.955,22.229 Q12.015,23.35 10.058,22.231 L4.115,18.799 Q2.17,17.677 2.17,15.42 L2.17,8.58 Q2.17,6.343 4.11,5.203 L6.014,4.101 Q6.283,3.945 6.583,4.025 Q6.883,4.105 7.039,4.374 Q7.195,4.643 7.115,4.943 Q7.035,5.243 6.766,5.399 L4.87,6.497 Q3.67,7.202 3.67,8.58 L3.67,15.42 Q3.67,16.811 4.865,17.501 L10.802,20.929 Q12.011,21.62 13.205,20.931 L19.14,17.503 Q20.34,16.798 20.34,15.42 L20.34,8.58 Q20.34,7.189 19.145,6.499 L13.208,3.071 Q11.999,2.38 10.805,3.07 Q10.536,3.225 10.236,3.144 Q9.936,3.064 9.78,2.795 Q9.625,2.526 9.705,2.226 Q9.786,1.926 10.055,1.77 Z"/>
  <path fill="#292D32" d="M12,11.75 Q10.724,11.75 9.822,10.848 Q8.92,9.946 8.92,8.67 Q8.92,5.59 12,5.59 Q15.08,5.59 15.08,8.67 Q15.08,9.946 14.178,10.848 Q13.276,11.75 12,11.75 Z M12,10.25 Q12.654,10.25 13.117,9.787 Q13.58,9.325 13.58,8.67 Q13.58,7.09 12,7.09 Q10.42,7.09 10.42,8.67 Q10.42,10.25 12,10.25 Z"/>
  <path fill="#292D32" d="M15.25,16.66 Q15.25,15.666 14.355,14.936 Q13.39,14.15 12,14.15 Q9.964,14.15 9.204,15.135 Q8.75,15.722 8.75,16.66 Q8.75,16.971 8.53,17.19 Q8.311,17.41 8,17.41 Q7.689,17.41 7.47,17.19 Q7.25,16.971 7.25,16.66 Q7.25,14.954 8.697,13.774 Q10.076,12.65 12,12.65 Q13.924,12.65 15.303,13.774 Q16.75,14.954 16.75,16.66 Q16.75,16.971 16.53,17.19 Q16.311,17.41 16,17.41 Q15.689,17.41 15.47,17.19 Q15.25,16.971 15.25,16.66 Z"/>
</svg>

