<svg xmlns="http://www.w3.org/2000/svg" width="24" height="24" viewBox="0 0 24 24">
  <defs/>
  <path fill="#292D32" d="M12,12 C14.761,12 17,9.761 17,7 C17,4.239 14.761,2 12,2 C9.239,2 7,4.239 7,7 C7,9.761 9.239,12 12,12 Z"/>
  <path fill="#292D32" opacity="0.4" d="M12,14.5 C6.99,14.5 2.91,17.86 2.91,22 C2.91,22.28 3.13,22.5 3.41,22.5 L20.59,22.5 C20.87,22.5 21.09,22.28 21.09,22 C21.09,17.86 17.01,14.5 12,14.5 Z"/>
  <path fill="#292D32" d="M22.77,20.68 L22.01,19.92 C22.41,19.32 22.64,18.6 22.64,17.83 C22.64,15.72 20.93,14.01 18.82,14.01 C16.71,14.01 15,15.72 15,17.83 C15,19.94 16.71,21.65 18.82,21.65 C19.59,21.65 20.31,21.42 20.91,21.02 L21.67,21.78 C21.82,21.93 22.02,22.01 22.22,22.01 C22.42,22.01 22.62,21.93 22.77,21.78 C23.08,21.47 23.08,20.98 22.77,20.68 Z"/>
</svg>

