<svg xmlns="http://www.w3.org/2000/svg" width="24" height="24" viewBox="0 0 24 24">
  <defs/>
  <path fill="#292D32" d="M20.97,14.33 C20.25,13.51 19.18,13 18,13 C16.88,13 15.86,13.46 15.13,14.21 C14.43,14.93 14,15.92 14,17 C14,17.75 14.21,18.46 14.58,19.06 C14.78,19.4 15.04,19.71 15.34,19.97 C16.04,20.61 16.97,21 18,21 C19.46,21 20.73,20.22 21.42,19.06 C21.63,18.72 21.79,18.33 21.88,17.93 C21.96,17.63 22,17.32 22,17 C22,15.98 21.61,15.04 20.97,14.33 Z M19.5,17.73 L16.51,17.73 C16.1,17.73 15.76,17.39 15.76,16.98 C15.76,16.57 16.1,16.23 16.51,16.23 L19.5,16.23 C19.91,16.23 20.25,16.57 20.25,16.98 C20.25,17.39 19.91,17.73 19.5,17.73 Z"/>
  <path fill="#292D32" opacity="0.4" d="M21.09,21.5 C21.09,21.78 20.87,22 20.59,22 L3.41,22 C3.13,22 2.91,21.78 2.91,21.5 C2.91,17.36 6.99,14 12,14 C13.03,14 14.03,14.14 14.95,14.41 C14.36,15.11 14,16.02 14,17 C14,17.75 14.21,18.46 14.58,19.06 C14.78,19.4 15.04,19.71 15.34,19.97 C16.04,20.61 16.97,21 18,21 C19.12,21 20.13,20.54 20.85,19.8 C21.01,20.34 21.09,20.91 21.09,21.5 Z"/>
  <path fill="#292D32" d="M12,12 C14.761,12 17,9.761 17,7 C17,4.239 14.761,2 12,2 C9.239,2 7,4.239 7,7 C7,9.761 9.239,12 12,12 Z"/>
</svg>

