<svg xmlns="http://www.w3.org/2000/svg" width="24" height="24" viewBox="0 0 24 24">
  <defs/>
  <path fill="#292D32" d="M12,14 C6.99,14 2.91,17.36 2.91,21.5 C2.91,21.78 3.13,22 3.41,22 L20.59,22 C20.87,22 21.09,21.78 21.09,21.5 C21.09,17.36 17.01,14 12,14 Z"/>
  <path fill="#292D32" d="M16.72,10.35 L15.76,9.39 C16.26,8.64 16.55,7.74 16.55,6.77 C16.55,4.13 14.41,2 11.78,2 C9.15,2 7,4.14 7,6.77 C7,9.4 9.14,11.54 11.77,11.54 C12.74,11.54 13.64,11.25 14.39,10.75 L15.35,11.71 C15.54,11.9 15.79,11.99 16.03,11.99 C16.28,11.99 16.53,11.9 16.71,11.71 C17.09,11.34 17.09,10.73 16.72,10.35 Z"/>
</svg>

