<svg xmlns="http://www.w3.org/2000/svg" width="24" height="24" viewBox="0 0 24 24">
  <defs/>
  <path fill="#292D32" d="M2.25,4.97 Q2.25,1.25 6,1.25 L18,1.25 Q21.75,1.25 21.75,4.97 L21.75,15.88 Q21.75,17.423 20.65,18.513 Q19.553,19.6 18,19.6 L17.24,19.6 Q16.301,19.6 15.65,20.25 L13.937,21.943 Q11.995,23.861 10.053,21.944 L8.343,20.253 Q7.689,19.6 6.75,19.6 L6,19.6 Q2.25,19.6 2.25,15.88 L2.25,9.03 Q2.25,8.719 2.47,8.5 Q2.689,8.28 3,8.28 Q3.311,8.28 3.53,8.5 Q3.75,8.719 3.75,9.03 L3.75,15.88 Q3.75,16.798 4.405,17.447 Q5.064,18.1 6,18.1 L6.75,18.1 Q8.311,18.1 9.397,19.187 L11.107,20.876 Q11.995,21.753 12.883,20.877 L14.59,19.19 Q15.679,18.1 17.24,18.1 L18,18.1 Q20.25,18.1 20.25,15.88 L20.25,4.97 Q20.25,2.75 18,2.75 L6,2.75 Q3.75,2.75 3.75,4.97 Q3.75,5.281 3.53,5.5 Q3.311,5.72 3,5.72 Q2.689,5.72 2.47,5.5 Q2.25,5.281 2.25,4.97 Z"/>
  <path fill="#292D32" d="M12,10.75 Q10.724,10.75 9.822,9.848 Q8.92,8.946 8.92,7.67 Q8.92,4.59 12,4.59 Q15.08,4.59 15.08,7.67 Q15.08,8.946 14.178,9.848 Q13.276,10.75 12,10.75 Z M12,9.25 Q13.58,9.25 13.58,7.67 Q13.58,7.016 13.117,6.553 Q12.654,6.09 12,6.09 Q10.42,6.09 10.42,7.67 Q10.42,9.25 12,9.25 Z"/>
  <path fill="#292D32" d="M15.25,15.66 Q15.25,14.666 14.355,13.936 Q13.39,13.15 12,13.15 Q8.75,13.15 8.75,15.66 Q8.75,15.971 8.53,16.19 Q8.311,16.41 8,16.41 Q7.689,16.41 7.47,16.19 Q7.25,15.971 7.25,15.66 Q7.25,13.954 8.697,12.774 Q10.076,11.65 12,11.65 Q13.924,11.65 15.303,12.774 Q16.75,13.954 16.75,15.66 Q16.75,15.971 16.53,16.19 Q16.311,16.41 16,16.41 Q15.689,16.41 15.47,16.19 Q15.25,15.971 15.25,15.66 Z"/>
</svg>

