<svg xmlns="http://www.w3.org/2000/svg" width="24" height="24" viewBox="0 0 24 24">
  <defs/>
  <path fill="#292D32" d="M21.83,8.58 L21.83,15.42 Q21.83,17.657 19.89,18.797 L13.945,22.229 Q12.005,23.35 10.048,22.231 L4.105,18.799 Q2.16,17.677 2.16,15.42 L2.16,8.58 Q2.16,6.343 4.1,5.203 L10.045,1.771 Q11.985,0.65 13.942,1.769 L19.885,5.2 Q21.83,6.343 21.83,8.58 Z M20.33,8.58 Q20.33,7.202 19.135,6.499 L13.198,3.071 Q11.989,2.38 10.795,3.069 L4.86,6.497 Q3.66,7.202 3.66,8.58 L3.66,15.42 Q3.66,16.811 4.855,17.501 L10.792,20.929 Q12.001,21.62 13.195,20.931 L19.13,17.503 Q20.33,16.798 20.33,15.42 Z"/>
  <path fill="#292D32" d="M12,11.75 Q10.724,11.75 9.822,10.848 Q8.92,9.946 8.92,8.67 Q8.92,5.59 12,5.59 Q15.08,5.59 15.08,8.67 Q15.08,9.946 14.178,10.848 Q13.276,11.75 12,11.75 Z M12,10.25 Q12.654,10.25 13.117,9.787 Q13.58,9.325 13.58,8.67 Q13.58,8.016 13.117,7.553 Q12.655,7.09 12,7.09 Q11.346,7.09 10.883,7.553 Q10.42,8.016 10.42,8.67 Q10.42,10.25 12,10.25 Z"/>
  <path fill="#292D32" d="M15.25,16.66 Q15.25,15.666 14.355,14.936 Q13.39,14.15 12,14.15 Q9.964,14.15 9.204,15.135 Q8.75,15.722 8.75,16.66 Q8.75,16.971 8.53,17.19 Q8.311,17.41 8,17.41 Q7.689,17.41 7.47,17.19 Q7.25,16.971 7.25,16.66 Q7.25,14.954 8.697,13.774 Q10.076,12.65 12,12.65 Q13.924,12.65 15.303,13.774 Q16.75,14.954 16.75,16.66 Q16.75,16.971 16.53,17.19 Q16.311,17.41 16,17.41 Q15.689,17.41 15.47,17.19 Q15.25,16.971 15.25,16.66 Z"/>
</svg>

