<svg xmlns="http://www.w3.org/2000/svg" width="24" height="24" viewBox="0 0 24 24">
  <defs/>
  <path fill="#292D32" d="M14.565,3.607 Q13.441,2.75 12,2.75 Q10.241,2.75 8.995,3.995 Q7.75,5.241 7.75,7 Q7.75,8.759 8.995,10.005 Q10.241,11.25 12,11.25 Q13.759,11.25 15.005,10.005 Q16.25,8.759 16.25,7 Q16.25,6.689 16.47,6.47 Q16.689,6.25 17,6.25 Q17.311,6.25 17.53,6.47 Q17.75,6.689 17.75,7 Q17.75,9.381 16.065,11.065 Q14.381,12.75 12,12.75 Q9.619,12.75 7.935,11.065 Q6.25,9.381 6.25,7 Q6.25,4.619 7.935,2.935 Q9.619,1.25 12,1.25 Q13.948,1.25 15.475,2.413 Q15.722,2.602 15.763,2.91 Q15.805,3.217 15.617,3.465 Q15.428,3.712 15.12,3.753 Q14.813,3.795 14.565,3.607 Z"/>
  <path fill="#292D32" d="M2.66,22 Q2.66,18.742 5.454,16.467 Q8.177,14.25 12,14.25 Q13.521,14.25 14.96,14.647 Q15.259,14.73 15.412,15 Q15.566,15.27 15.483,15.569 Q15.401,15.869 15.13,16.022 Q14.86,16.176 14.561,16.093 Q13.317,15.75 12,15.75 Q8.71,15.75 6.401,17.63 Q4.16,19.455 4.16,22 Q4.16,22.311 3.94,22.53 Q3.721,22.75 3.41,22.75 Q3.099,22.75 2.88,22.53 Q2.66,22.311 2.66,22 Z"/>
  <path fill="#292D32" d="M22.75,18 Q22.75,18.571 22.608,19.109 Q22.444,19.829 22.058,20.454 Q20.693,22.75 18,22.75 Q16.18,22.75 14.841,21.53 Q14.295,21.055 13.934,20.44 Q13.25,19.332 13.25,18 Q13.25,16.068 14.592,14.687 Q15.991,13.25 18,13.25 Q20.142,13.25 21.534,14.835 Q22.75,16.185 22.75,18 Z M21.25,18 Q21.25,16.761 20.406,15.825 Q19.463,14.75 18,14.75 Q16.624,14.75 15.668,15.733 Q14.75,16.677 14.75,18 Q14.75,18.907 15.226,19.68 Q15.466,20.086 15.831,20.403 Q15.839,20.41 15.846,20.416 Q16.758,21.25 18,21.25 Q19.84,21.25 20.782,19.666 Q21.04,19.249 21.148,18.765 Q21.152,18.751 21.155,18.737 Q21.25,18.382 21.25,18 Z"/>
  <path fill="#292D32" d="M19.49,18.73 L16.51,18.73 Q16.199,18.73 15.979,18.51 Q15.76,18.291 15.76,17.98 Q15.76,17.669 15.979,17.45 Q16.199,17.23 16.51,17.23 L19.49,17.23 Q19.8,17.23 20.02,17.45 Q20.24,17.669 20.24,17.98 Q20.24,18.291 20.02,18.51 Q19.8,18.73 19.49,18.73 Z"/>
</svg>

