<svg xmlns="http://www.w3.org/2000/svg" width="24" height="24" viewBox="0 0 24 24">
  <defs/>
  <path fill="#292D32" d="M16.649,20.2 L16.649,20.49 C15.169,21.44 13.399,22 11.499,22 C9.57,22 7.77,21.42 6.27,20.43 L6.27,20.2 C6.27,17.87 8.6,15.97 11.46,15.97 C14.329,15.97 16.649,17.87 16.649,20.2 Z"/>
  <path fill="#292D32" opacity="0.4" d="M21,12.5 C21,15.85 19.27,18.79 16.65,20.49 L16.65,20.2 C16.65,17.87 14.33,15.97 11.46,15.97 C8.6,15.97 6.27,17.87 6.27,20.2 L6.27,20.43 C3.7,18.73 2,15.82 2,12.5 C2,7.25 6.25,3 11.5,3 C12.81,3 14.06,3.26 15.2,3.74 C15.07,4.14 15,4.56 15,5 C15,5.75 15.21,6.46 15.58,7.06 C15.78,7.4 16.04,7.71 16.34,7.97 C17.04,8.61 17.97,9 19,9 C19.44,9 19.86,8.93 20.25,8.79 C20.73,9.93 21,11.19 21,12.5 Z"/>
  <path fill="#292D32" d="M21.97,2.33 C21.25,1.51 20.18,1 19,1 C17.88,1 16.86,1.46 16.13,2.21 C15.71,2.64 15.39,3.16 15.2,3.74 C15.07,4.14 15,4.56 15,5 C15,5.75 15.21,6.46 15.58,7.06 C15.78,7.4 16.04,7.71 16.34,7.97 C17.04,8.61 17.97,9 19,9 C19.44,9 19.86,8.93 20.25,8.79 C21.17,8.5 21.94,7.87 22.42,7.06 C22.63,6.72 22.79,6.33 22.88,5.93 C22.96,5.63 23,5.32 23,5 C23,3.98 22.61,3.04 21.97,2.33 Z M20.49,5.73 L19.75,5.73 L19.75,6.51 C19.75,6.92 19.41,7.26 19,7.26 C18.59,7.26 18.25,6.92 18.25,6.51 L18.25,5.73 L17.51,5.73 C17.1,5.73 16.76,5.39 16.76,4.98 C16.76,4.57 17.1,4.23 17.51,4.23 L18.25,4.23 L18.25,3.52 C18.25,3.11 18.59,2.77 19,2.77 C19.41,2.77 19.75,3.11 19.75,3.52 L19.75,4.23 L20.49,4.23 C20.9,4.23 21.24,4.57 21.24,4.98 C21.24,5.39 20.91,5.73 20.49,5.73 Z"/>
  <path fill="#292D32" d="M11.46,14.73 C13.012,14.73 14.27,13.472 14.27,11.92 C14.27,10.368 13.012,9.11 11.46,9.11 C9.908,9.11 8.65,10.368 8.65,11.92 C8.65,13.472 9.908,14.73 11.46,14.73 Z"/>
</svg>

