<svg xmlns="http://www.w3.org/2000/svg" width="24" height="24" viewBox="0 0 24 24">
  <defs/>
  <path fill="#292D32" d="M12,12.75 C8.83,12.75 6.25,10.17 6.25,7 C6.25,3.83 8.83,1.25 12,1.25 C15.17,1.25 17.75,3.83 17.75,7 C17.75,10.17 15.17,12.75 12,12.75 Z M12,2.75 C9.66,2.75 7.75,4.66 7.75,7 C7.75,9.34 9.66,11.25 12,11.25 C14.34,11.25 16.25,9.34 16.25,7 C16.25,4.66 14.34,2.75 12,2.75 Z"/>
  <path fill="#292D32" d="M3.41,22.75 C3,22.75 2.66,22.41 2.66,22 C2.66,17.73 6.85,14.25 12,14.25 C13.01,14.25 14,14.38 14.96,14.65 C15.36,14.76 15.59,15.17 15.48,15.57 C15.37,15.97 14.96,16.2 14.56,16.09 C13.74,15.86 12.88,15.75 12,15.75 C7.68,15.75 4.16,18.55 4.16,22 C4.16,22.41 3.82,22.75 3.41,22.75 Z"/>
  <path fill="#292D32" d="M18,22.75 C16.82,22.75 15.7,22.31 14.83,21.52 C14.48,21.22 14.17,20.85 13.93,20.44 C13.49,19.72 13.25,18.87 13.25,18 C13.25,16.75 13.73,15.58 14.59,14.69 C15.49,13.76 16.7,13.25 18,13.25 C19.36,13.25 20.65,13.83 21.53,14.83 C22.31,15.7 22.75,16.82 22.75,18 C22.75,18.38 22.7,18.76 22.6,19.12 C22.5,19.57 22.31,20.04 22.05,20.45 C21.22,21.87 19.66,22.75 18,22.75 Z M18,14.75 C17.11,14.75 16.29,15.1 15.67,15.73 C15.08,16.34 14.75,17.14 14.75,18 C14.75,18.59 14.91,19.17 15.22,19.67 C15.38,19.95 15.59,20.2 15.83,20.41 C16.43,20.96 17.2,21.26 18,21.26 C19.13,21.26 20.2,20.66 20.78,19.69 C20.95,19.41 21.08,19.09 21.15,18.78 C21.22,18.52 21.25,18.27 21.25,18.01 C21.25,17.21 20.95,16.44 20.41,15.84 C19.81,15.14 18.93,14.75 18,14.75 Z"/>
  <path fill="#292D32" d="M16.919,19.8 C16.729,19.8 16.539,19.73 16.389,19.58 C16.099,19.29 16.099,18.81 16.389,18.52 L18.499,16.41 C18.789,16.12 19.269,16.12 19.559,16.41 C19.849,16.7 19.849,17.18 19.559,17.47 L17.449,19.58 C17.299,19.73 17.109,19.8 16.919,19.8 Z"/>
  <path fill="#292D32" d="M19.061,19.82 C18.871,19.82 18.681,19.75 18.531,19.6 L16.421,17.49 C16.131,17.2 16.131,16.72 16.421,16.43 C16.711,16.14 17.191,16.14 17.481,16.43 L19.591,18.54 C19.881,18.83 19.881,19.31 19.591,19.6 C19.441,19.75 19.251,19.82 19.061,19.82 Z"/>
</svg>

