<svg xmlns="http://www.w3.org/2000/svg" width="24" height="24" viewBox="0 0 24 24">
  <defs/>
  <path fill="#292D32" d="M14.565,3.607 Q13.441,2.75 12,2.75 Q10.241,2.75 8.995,3.995 Q7.75,5.241 7.75,7 Q7.75,8.759 8.995,10.005 Q10.241,11.25 12,11.25 Q13.759,11.25 15.005,10.005 Q16.25,8.759 16.25,7 Q16.25,6.689 16.47,6.47 Q16.689,6.25 17,6.25 Q17.311,6.25 17.53,6.47 Q17.75,6.689 17.75,7 Q17.75,9.381 16.065,11.065 Q14.381,12.75 12,12.75 Q9.619,12.75 7.935,11.065 Q6.25,9.381 6.25,7 Q6.25,4.619 7.935,2.935 Q9.619,1.25 12,1.25 Q13.948,1.25 15.475,2.413 Q15.722,2.602 15.763,2.91 Q15.805,3.217 15.617,3.465 Q15.428,3.712 15.12,3.753 Q14.813,3.795 14.565,3.607 Z"/>
  <path fill="#292D32" d="M2.66,22 Q2.66,18.742 5.454,16.467 Q8.177,14.25 12,14.25 Q13.521,14.25 14.96,14.647 Q15.259,14.73 15.412,15 Q15.566,15.27 15.483,15.569 Q15.401,15.869 15.13,16.022 Q14.86,16.176 14.561,16.093 Q13.317,15.75 12,15.75 Q8.71,15.75 6.401,17.63 Q4.16,19.455 4.16,22 Q4.16,22.311 3.94,22.53 Q3.721,22.75 3.41,22.75 Q3.099,22.75 2.88,22.53 Q2.66,22.311 2.66,22 Z"/>
  <path fill="#292D32" d="M22.75,18 Q22.75,19.328 22.063,20.446 Q21.685,21.091 21.122,21.566 Q19.8,22.75 18,22.75 Q15.307,22.75 13.935,20.443 Q13.25,19.332 13.25,18 Q13.25,15.708 15.034,14.292 Q16.342,13.25 18,13.25 Q19.968,13.25 21.359,14.641 Q22.75,16.032 22.75,18 Z M21.25,18 Q21.25,14.75 18,14.75 Q16.866,14.75 15.966,15.468 Q14.75,16.433 14.75,18 Q14.75,18.907 15.225,19.677 Q16.16,21.25 18,21.25 Q19.231,21.25 20.128,20.443 Q20.138,20.434 20.148,20.425 Q20.521,20.112 20.772,19.682 Q20.777,19.674 20.782,19.666 Q21.25,18.907 21.25,18 Z"/>
  <path fill="#292D32" d="M16.97,17.47 L17.45,17.95 L19.05,16.469 Q19.278,16.258 19.589,16.271 Q19.899,16.283 20.11,16.511 Q20.321,16.739 20.309,17.049 Q20.297,17.36 20.069,17.571 L17.939,19.541 Q17.717,19.746 17.415,19.74 Q17.113,19.734 16.899,19.52 L15.909,18.53 Q15.689,18.311 15.689,18 Q15.69,17.689 15.909,17.47 Q16.129,17.25 16.44,17.25 Q16.75,17.25 16.97,17.47 Z"/>
</svg>

