<svg xmlns="http://www.w3.org/2000/svg" width="24" height="24" viewBox="0 0 24 24">
  <defs/>
  <path fill="#292D32" opacity="0.4" d="M18,18.86 L17.24,18.86 C16.44,18.86 15.68,19.17 15.12,19.73 L13.41,21.42 C12.63,22.19 11.36,22.19 10.58,21.42 L8.87,19.73 C8.31,19.17 7.54,18.86 6.75,18.86 L6,18.86 C4.34,18.86 3,17.53 3,15.89 L3,4.98 C3,3.34 4.34,2.01 6,2.01 L18,2.01 C19.66,2.01 21,3.34 21,4.98 L21,15.89 C21,17.52 19.66,18.86 18,18.86 Z"/>
  <path fill="#292D32" d="M12,10.41 C13.287,10.41 14.33,9.367 14.33,8.08 C14.33,6.793 13.287,5.75 12,5.75 C10.713,5.75 9.67,6.793 9.67,8.08 C9.67,9.367 10.713,10.41 12,10.41 Z"/>
  <path fill="#292D32" d="M14.679,15.06 C15.489,15.06 15.959,14.16 15.509,13.49 C14.829,12.48 13.509,11.8 11.999,11.8 C10.489,11.8 9.169,12.48 8.489,13.49 C8.039,14.16 8.509,15.06 9.319,15.06 L14.679,15.06 Z"/>
</svg>

