<svg xmlns="http://www.w3.org/2000/svg" width="24" height="24" viewBox="0 0 24 24">
  <defs/>
  <path d="M2,2.28 L22,2.28 Q22.311,2.28 22.53,2.5 Q22.75,2.719 22.75,3.03 Q22.75,3.341 22.53,3.56 Q22.311,3.78 22,3.78 L2,3.78 Q1.689,3.78 1.47,3.56 Q1.25,3.341 1.25,3.03 Q1.25,2.719 1.47,2.5 Q1.689,2.28 2,2.28 Z"/>
  <path d="M3.066,9.402 L2.476,8.472 Q1.877,7.549 2.411,6.577 Q2.941,5.61 4.039,5.61 L19.969,5.61 Q21.075,5.61 21.603,6.579 Q22.131,7.549 21.529,8.478 L13.57,20.865 Q13.017,21.72 12.004,21.72 Q10.991,21.72 10.44,20.868 L5.179,12.686 Q5.011,12.424 5.076,12.121 Q5.142,11.817 5.404,11.649 Q5.665,11.481 5.969,11.547 Q6.272,11.613 6.44,11.874 L11.699,20.053 Q11.807,20.22 12.004,20.22 Q12.201,20.22 12.308,20.055 L20.27,7.662 Q20.387,7.482 20.286,7.296 Q20.184,7.11 19.969,7.11 L4.039,7.11 Q3.829,7.11 3.726,7.298 Q3.624,7.485 3.743,7.668 L4.333,8.598 Q4.499,8.861 4.431,9.164 Q4.363,9.467 4.101,9.633 Q3.839,9.8 3.536,9.732 Q3.233,9.664 3.066,9.402 Z"/>
</svg>

