<svg xmlns="http://www.w3.org/2000/svg" width="24" height="24" viewBox="0 0 24 24">
  <defs/>
  <path fill="#17191C" d="M2,2.25 L22,2.25 Q22.311,2.25 22.53,2.47 Q22.75,2.689 22.75,3 Q22.75,3.311 22.53,3.53 Q22.311,3.75 22,3.75 L2,3.75 Q1.689,3.75 1.47,3.53 Q1.25,3.311 1.25,3 Q1.25,2.689 1.47,2.47 Q1.689,2.25 2,2.25 Z"/>
  <path fill="#17191C" d="M4,5.65 L20,5.65 Q21.126,5.65 21.641,6.642 Q22.15,7.625 21.521,8.52 L13.54,20.891 Q13.024,21.775 11.987,21.775 Q10.989,21.775 10.39,20.936 Q10.379,20.921 10.37,20.906 L2.37,8.506 Q2.347,8.472 2.329,8.435 Q1.848,7.472 2.411,6.557 Q2.969,5.65 4,5.65 Z M4,7.15 Q3.807,7.15 3.689,7.343 Q3.571,7.534 3.657,7.735 L11.619,20.076 Q11.767,20.275 11.987,20.275 Q12.165,20.275 12.249,20.128 Q12.259,20.11 12.27,20.093 L20.27,7.693 Q20.279,7.678 20.29,7.664 Q20.4,7.509 20.309,7.333 Q20.214,7.15 20,7.15 Z"/>
</svg>

