<svg xmlns="http://www.w3.org/2000/svg" width="24" height="24" viewBox="0 0 24 24">
  <defs/>
  <path fill="white" d="M24,0 L0,0 L0,24 L24,24 L24,0 Z"/>
  <path fill="#292D32" d="M21,3.15 L3,3.15 C2.59,3.15 2.25,3.49 2.25,3.9 C2.25,4.31 2.59,4.65 3,4.65 L21,4.65 C21.41,4.65 21.75,4.31 21.75,3.9 C21.75,3.49 21.41,3.15 21,3.15 Z"/>
  <path fill="#292D32" d="M4.039,6.24 L19.969,6.24 C20.849,6.24 21.379,7.21 20.899,7.95 L12.939,20.34 C12.499,21.02 11.509,21.02 11.069,20.34 L3.099,7.95 C2.629,7.21 3.159,6.24 4.039,6.24 Z"/>
</svg>

