<svg xmlns="http://www.w3.org/2000/svg" width="24" height="24" viewBox="0 0 24 24">
  <defs/>
  <path d="M22,3.78 L2,3.78 C1.59,3.78 1.25,3.44 1.25,3.03 C1.25,2.62 1.59,2.28 2,2.28 L22,2.28 C22.41,2.28 22.75,2.62 22.75,3.03 C22.75,3.44 22.41,3.78 22,3.78 Z"/>
  <path d="M12,21.72 C11.36,21.72 10.78,21.4 10.43,20.87 L2.47,8.48 C2.1,7.91 2.08,7.18 2.4,6.58 C2.73,5.98 3.35,5.61 4.03,5.61 L19.96,5.61 C20.64,5.61 21.27,5.98 21.59,6.58 C21.92,7.18 21.89,7.91 21.52,8.48 L13.56,20.87 C13.22,21.4 12.64,21.72 12,21.72 Z M4.04,7.11 C3.85,7.11 3.75,7.24 3.72,7.3 C3.69,7.36 3.63,7.51 3.73,7.67 L11.69,20.06 C11.78,20.2 11.92,20.23 11.99,20.23 C12.06,20.23 12.2,20.21 12.29,20.06 L20.25,7.67 C20.35,7.51 20.29,7.36 20.26,7.3 C20.23,7.24 20.14,7.11 19.94,7.11 L4.04,7.11 Z"/>
</svg>

