<svg xmlns="http://www.w3.org/2000/svg" width="24" height="24" viewBox="0 0 24 24">
  <defs/>
  <path d="M2,2.28 L22,2.28 Q22.311,2.28 22.53,2.499 Q22.75,2.719 22.75,3.03 Q22.75,3.34 22.53,3.56 Q22.311,3.78 22,3.78 L2,3.78 Q1.689,3.78 1.47,3.56 Q1.25,3.34 1.25,3.03 Q1.25,2.719 1.47,2.499 Q1.689,2.28 2,2.28 Z"/>
  <path opacity="0.4" d="M4.04,5.61 L19.97,5.61 Q21.076,5.61 21.604,6.579 Q22.132,7.549 21.529,8.478 L13.571,20.865 Q13.018,21.72 12.005,21.72 Q10.992,21.72 10.44,20.867 L2.479,8.475 Q1.878,7.549 2.406,6.579 Q2.934,5.61 4.04,5.61 Z M4.04,7.11 Q3.825,7.11 3.723,7.296 Q3.622,7.482 3.741,7.664 L11.7,20.052 Q11.808,20.22 12.005,20.22 Q12.202,20.22 12.309,20.055 L20.271,7.662 Q20.387,7.482 20.286,7.296 Q20.185,7.11 19.97,7.11 Z"/>
</svg>

