<svg xmlns="http://www.w3.org/2000/svg" width="24" height="24" viewBox="0 0 24 24">
  <defs/>
  <path fill="#292D32" opacity="0.4" d="M10.751,2.45 C11.441,1.86 12.571,1.86 13.271,2.45 L14.851,3.81 C15.151,4.07 15.711,4.28 16.111,4.28 L17.811,4.28 C18.871,4.28 19.741,5.15 19.741,6.21 L19.741,7.91 C19.741,8.3 19.951,8.87 20.211,9.17 L21.571,10.75 C22.161,11.44 22.161,12.57 21.571,13.27 L20.211,14.85 C19.951,15.15 19.741,15.71 19.741,16.11 L19.741,17.81 C19.741,18.87 18.871,19.74 17.811,19.74 L16.111,19.74 C15.721,19.74 15.151,19.95 14.851,20.21 L13.271,21.57 C12.581,22.16 11.451,22.16 10.751,21.57 L9.171,20.21 C8.871,19.95 8.311,19.74 7.911,19.74 L6.181,19.74 C5.121,19.74 4.251,18.87 4.251,17.81 L4.251,16.1 C4.251,15.71 4.041,15.15 3.791,14.85 L2.441,13.26 C1.861,12.57 1.861,11.45 2.441,10.76 L3.791,9.17 C4.041,8.87 4.251,8.31 4.251,7.92 L4.251,6.2 C4.251,5.14 5.121,4.27 6.181,4.27 L7.911,4.27 C8.301,4.27 8.871,4.06 9.171,3.8 L10.751,2.45 Z"/>
  <path fill="#292D32" d="M10.79,15.17 C10.591,15.17 10.4,15.09 10.261,14.95 L7.841,12.53 C7.551,12.24 7.551,11.76 7.841,11.47 C8.131,11.18 8.611,11.18 8.901,11.47 L10.79,13.36 L15.091,9.06 C15.38,8.77 15.861,8.77 16.151,9.06 C16.441,9.35 16.441,9.83 16.151,10.12 L11.32,14.95 C11.181,15.09 10.991,15.17 10.79,15.17 Z"/>
</svg>

