<svg xmlns="http://www.w3.org/2000/svg" width="24" height="24" viewBox="0 0 24 24">
  <defs/>
  <path fill="#292D32" opacity="0.34" d="M8.912,11.471 L10.791,13.358 L15.09,9.05 Q15.309,8.83 15.62,8.83 Q15.931,8.83 16.151,9.049 Q16.371,9.269 16.371,9.579 Q16.371,9.89 16.152,10.11 L11.322,14.95 Q11.321,14.951 11.32,14.952 Q11.1,15.171 10.789,15.17 Q10.479,15.169 10.259,14.949 L7.849,12.529 Q7.63,12.309 7.631,11.999 Q7.632,11.688 7.852,11.469 Q8.072,11.249 8.382,11.25 Q8.693,11.251 8.912,11.471 Z"/>
  <path fill="#292D32" d="M10.263,1.88 L10.264,1.88 Q11.998,0.396 13.754,1.876 L15.34,3.241 Q15.673,3.53 16.111,3.53 L17.811,3.53 Q20.491,3.53 20.491,6.21 L20.491,7.91 Q20.491,8.348 20.778,8.679 L22.139,10.261 Q23.624,11.997 22.144,13.753 L20.779,15.339 Q20.491,15.672 20.491,16.11 L20.491,17.81 Q20.491,18.915 19.704,19.703 Q18.917,20.49 17.811,20.49 L16.111,20.49 Q15.673,20.49 15.342,20.777 L13.76,22.138 Q12.023,23.623 10.268,22.143 L8.682,20.778 Q8.349,20.49 7.911,20.49 L6.181,20.49 Q3.501,20.49 3.501,17.81 L3.501,16.1 Q3.501,15.673 3.215,15.33 L1.869,13.745 Q0.41,12.01 1.867,10.277 L3.219,8.684 Q3.501,8.346 3.501,7.92 L3.501,6.2 Q3.501,3.52 6.181,3.52 L7.911,3.52 Q8.349,3.52 8.68,3.233 Z M11.238,3.02 L9.662,4.367 Q8.908,5.02 7.911,5.02 L6.181,5.02 Q5.001,5.02 5.001,6.2 L5.001,7.92 Q5.001,8.889 4.363,9.655 L3.015,11.242 Q2.37,12.01 3.013,12.774 L4.367,14.37 Q5.001,15.13 5.001,16.1 L5.001,17.81 Q5.001,18.99 6.181,18.99 L7.911,18.99 Q8.908,18.99 9.66,19.641 L11.234,20.996 Q12.016,21.656 12.782,21.001 L14.36,19.643 Q15.113,18.99 16.111,18.99 L17.811,18.99 Q18.295,18.99 18.643,18.642 Q18.991,18.294 18.991,17.81 L18.991,16.11 Q18.991,15.112 19.642,14.361 L20.997,12.786 Q21.657,12.004 21.002,11.239 L19.644,9.661 Q18.991,8.907 18.991,7.91 L18.991,6.21 Q18.991,5.03 17.811,5.03 L16.111,5.03 Q15.113,5.03 14.362,4.378 L12.788,3.023 Q12.005,2.364 11.238,3.02 Z"/>
</svg>

