<svg xmlns="http://www.w3.org/2000/svg" width="24" height="24" viewBox="0 0 24 24">
  <defs/>
  <path fill="#292D32" d="M10.79,15.17 C10.591,15.17 10.4,15.09 10.261,14.95 L7.841,12.53 C7.551,12.24 7.551,11.76 7.841,11.47 C8.131,11.18 8.611,11.18 8.901,11.47 L10.79,13.36 L15.091,9.06 C15.38,8.77 15.861,8.77 16.151,9.06 C16.441,9.35 16.441,9.83 16.151,10.12 L11.32,14.95 C11.181,15.09 10.991,15.17 10.79,15.17 Z"/>
  <path fill="#292D32" d="M12.001,22.75 C11.371,22.75 10.741,22.54 10.251,22.12 L8.671,20.76 C8.511,20.62 8.111,20.48 7.901,20.48 L6.181,20.48 C4.701,20.48 3.501,19.28 3.501,17.8 L3.501,16.09 C3.501,15.88 3.361,15.49 3.221,15.33 L1.871,13.74 C1.051,12.77 1.051,11.24 1.871,10.27 L3.221,8.68 C3.361,8.52 3.501,8.13 3.501,7.92 L3.501,6.2 C3.501,4.72 4.701,3.52 6.181,3.52 L7.911,3.52 C8.121,3.52 8.521,3.37 8.681,3.24 L10.261,1.88 C11.241,1.04 12.771,1.04 13.751,1.88 L15.331,3.24 C15.491,3.38 15.891,3.52 16.101,3.52 L17.801,3.52 C19.281,3.52 20.481,4.72 20.481,6.2 L20.481,7.9 C20.481,8.11 20.631,8.51 20.771,8.67 L22.131,10.25 C22.971,11.23 22.971,12.76 22.131,13.74 L20.771,15.32 C20.631,15.48 20.481,15.88 20.481,16.09 L20.481,17.79 C20.481,19.27 19.281,20.47 17.801,20.47 L16.101,20.47 C15.891,20.47 15.491,20.62 15.331,20.75 L13.751,22.11 C13.261,22.54 12.631,22.75 12.001,22.75 Z M6.181,5.02 C5.531,5.02 5.001,5.55 5.001,6.2 L5.001,7.91 C5.001,8.48 4.731,9.21 4.361,9.64 L3.011,11.23 C2.661,11.64 2.661,12.35 3.011,12.76 L4.361,14.35 C4.731,14.79 5.001,15.51 5.001,16.08 L5.001,17.79 C5.001,18.44 5.531,18.97 6.181,18.97 L7.911,18.97 C8.491,18.97 9.221,19.24 9.661,19.62 L11.241,20.98 C11.651,21.33 12.371,21.33 12.781,20.98 L14.361,19.62 C14.801,19.25 15.531,18.97 16.111,18.97 L17.811,18.97 C18.461,18.97 18.991,18.44 18.991,17.79 L18.991,16.09 C18.991,15.51 19.261,14.78 19.641,14.34 L21.001,12.76 C21.351,12.35 21.351,11.63 21.001,11.22 L19.641,9.64 C19.261,9.2 18.991,8.47 18.991,7.89 L18.991,6.2 C18.991,5.55 18.461,5.02 17.811,5.02 L16.111,5.02 C15.531,5.02 14.801,4.75 14.361,4.37 L12.781,3.01 C12.371,2.66 11.651,2.66 11.241,3.01 L9.661,4.38 C9.221,4.75 8.481,5.02 7.911,5.02 L6.181,5.02 Z"/>
</svg>

