<svg xmlns="http://www.w3.org/2000/svg" width="24" height="24" viewBox="0 0 24 24">
  <defs/>
  <path fill="#292D32" d="M21.561,10.739 L20.201,9.159 C19.941,8.859 19.731,8.299 19.731,7.899 L19.731,6.199 C19.731,5.139 18.861,4.269 17.801,4.269 L16.101,4.269 C15.711,4.269 15.141,4.059 14.841,3.799 L13.261,2.439 C12.571,1.849 11.441,1.849 10.741,2.439 L9.171,3.809 C8.871,4.059 8.301,4.269 7.911,4.269 L6.181,4.269 C5.121,4.269 4.251,5.139 4.251,6.199 L4.251,7.909 C4.251,8.299 4.041,8.859 3.791,9.159 L2.441,10.749 C1.861,11.439 1.861,12.559 2.441,13.249 L3.791,14.839 C4.041,15.139 4.251,15.699 4.251,16.089 L4.251,17.799 C4.251,18.859 5.121,19.729 6.181,19.729 L7.911,19.729 C8.301,19.729 8.871,19.939 9.171,20.199 L10.751,21.559 C11.441,22.149 12.571,22.149 13.271,21.559 L14.851,20.199 C15.151,19.939 15.711,19.729 16.111,19.729 L17.811,19.729 C18.871,19.729 19.741,18.859 19.741,17.799 L19.741,16.099 C19.741,15.709 19.951,15.139 20.211,14.839 L21.571,13.259 C22.151,12.569 22.151,11.429 21.561,10.739 Z M16.161,10.109 L11.331,14.939 C11.191,15.079 11.001,15.159 10.801,15.159 C10.601,15.159 10.411,15.079 10.271,14.939 L7.851,12.519 C7.561,12.229 7.561,11.749 7.851,11.459 C8.141,11.169 8.621,11.169 8.911,11.459 L10.801,13.349 L15.101,9.049 C15.391,8.759 15.871,8.759 16.161,9.049 C16.451,9.339 16.451,9.819 16.161,10.109 Z"/>
</svg>

