<svg xmlns="http://www.w3.org/2000/svg" width="24" height="24" viewBox="0 0 24 24">
  <defs/>
  <path fill="#292D32" d="M8.912,11.471 L10.791,13.358 L15.09,9.05 Q15.309,8.83 15.62,8.83 Q15.931,8.83 16.151,9.049 Q16.371,9.269 16.371,9.579 Q16.371,9.89 16.152,10.11 L11.322,14.95 Q11.321,14.951 11.32,14.952 Q11.1,15.171 10.789,15.17 Q10.479,15.169 10.259,14.949 L7.849,12.529 Q7.63,12.309 7.631,11.999 Q7.632,11.688 7.852,11.469 Q8.072,11.249 8.382,11.25 Q8.693,11.251 8.912,11.471 Z"/>
  <path fill="#292D32" d="M3.491,6.2 Q3.491,5.094 4.278,4.307 Q5.065,3.52 6.171,3.52 L7.901,3.52 Q8.337,3.52 8.681,3.234 L10.254,1.89 Q12.021,0.4 13.742,1.894 L15.318,3.24 Q15.654,3.52 16.101,3.52 L17.801,3.52 Q20.481,3.52 20.481,6.2 L20.481,7.9 Q20.481,8.337 20.767,8.68 L22.111,10.253 Q23.601,12.02 22.107,13.742 L20.761,15.317 Q20.481,15.654 20.481,16.09 L20.481,17.79 Q20.481,20.47 17.801,20.47 L16.101,20.47 Q15.664,20.47 15.321,20.756 L13.748,22.1 Q11.981,23.59 10.259,22.097 L8.684,20.75 Q8.347,20.47 7.911,20.47 L6.171,20.47 Q5.065,20.47 4.278,19.683 Q3.491,18.896 3.491,17.79 L3.491,16.08 Q3.491,15.631 3.223,15.32 L1.869,13.726 Q0.41,11.99 1.867,10.258 L2.429,9.595 Q2.63,9.358 2.94,9.333 Q3.249,9.307 3.486,9.508 Q3.723,9.709 3.748,10.019 Q3.774,10.328 3.573,10.565 L3.015,11.223 Q2.37,11.99 3.013,12.755 L4.359,14.34 Q4.991,15.073 4.991,16.08 L4.991,17.79 Q4.991,18.97 6.171,18.97 L7.911,18.97 Q8.89,18.97 9.658,19.61 L11.242,20.964 Q11.995,21.616 12.774,20.96 L14.361,19.604 Q15.121,18.97 16.101,18.97 L17.801,18.97 Q18.981,18.97 18.981,17.79 L18.981,16.09 Q18.981,15.111 19.621,14.343 L20.974,12.759 Q21.627,12.006 20.971,11.227 L19.615,9.64 Q18.981,8.88 18.981,7.9 L18.981,6.2 Q18.981,5.02 17.801,5.02 L16.101,5.02 Q15.111,5.02 14.344,4.38 L12.759,3.027 Q12.007,2.374 11.228,3.03 L9.641,4.386 Q8.88,5.02 7.901,5.02 L6.171,5.02 Q5.687,5.02 5.339,5.368 Q4.991,5.716 4.991,6.2 Q4.991,6.511 4.771,6.73 Q4.552,6.95 4.241,6.95 Q3.93,6.95 3.711,6.73 Q3.491,6.511 3.491,6.2 Z"/>
</svg>

