<svg xmlns="http://www.w3.org/2000/svg" width="24" height="24" viewBox="0 0 24 24">
  <defs/>
  <path fill="#292D32" d="M8.911,11.471 L10.791,13.358 L15.089,9.05 Q15.309,8.83 15.619,8.83 Q15.93,8.83 16.15,9.049 Q16.37,9.269 16.37,9.579 Q16.37,9.89 16.151,10.11 L11.321,14.95 L11.319,14.951 Q11.099,15.171 10.788,15.17 Q10.478,15.169 10.259,14.949 L7.849,12.529 Q7.629,12.309 7.63,11.998 Q7.631,11.688 7.851,11.469 Q8.071,11.249 8.382,11.25 Q8.692,11.251 8.911,11.471 Z"/>
  <path fill="#292D32" d="M10.263,1.88 L10.263,1.88 Q11.998,0.397 13.753,1.876 L15.339,3.242 Q15.672,3.53 16.11,3.53 L17.81,3.53 Q18.916,3.53 19.703,4.317 Q20.49,5.104 20.49,6.21 L20.49,7.91 Q20.49,8.348 20.777,8.679 L22.138,10.261 Q23.623,11.997 22.143,13.753 L20.778,15.339 Q20.49,15.672 20.49,16.11 L20.49,17.81 Q20.49,20.49 17.81,20.49 L16.11,20.49 Q15.672,20.49 15.341,20.777 L13.759,22.138 Q12.023,23.623 10.267,22.143 L8.681,20.778 Q8.348,20.49 7.91,20.49 L6.18,20.49 Q3.5,20.49 3.5,17.81 L3.5,16.1 Q3.5,15.673 3.214,15.33 L1.868,13.745 Q0.41,12.01 1.866,10.277 L3.218,8.685 Q3.5,8.346 3.5,7.92 L3.5,6.2 Q3.5,3.52 6.18,3.52 L7.91,3.52 Q8.348,3.52 8.679,3.233 Z M11.237,3.02 L9.661,4.367 Q8.907,5.02 7.91,5.02 L6.18,5.02 Q5,5.02 5,6.2 L5,7.92 Q5,8.889 4.362,9.655 L3.014,11.242 Q2.369,12.01 3.012,12.774 L4.366,14.37 Q5,15.13 5,16.1 L5,17.81 Q5,18.99 6.18,18.99 L7.91,18.99 Q8.907,18.99 9.659,19.641 L11.233,20.996 Q12.016,21.656 12.781,21.001 L14.359,19.643 Q15.113,18.99 16.11,18.99 L17.81,18.99 Q18.294,18.99 18.642,18.642 Q18.99,18.294 18.99,17.81 L18.99,16.11 Q18.99,15.112 19.642,14.361 L20.997,12.787 Q21.656,12.004 21.002,11.239 L19.643,9.661 Q18.99,8.907 18.99,7.91 L18.99,6.21 Q18.99,5.03 17.81,5.03 L16.11,5.03 Q15.113,5.03 14.361,4.378 L12.787,3.023 Q12.004,2.364 11.237,3.02 Z"/>
</svg>

