<svg xmlns="http://www.w3.org/2000/svg" width="24" height="24" viewBox="0 0 24 24">
  <defs/>
  <path d="M12,2 C6.48,2 2,6.48 2,12 C2,17.52 6.48,22 12,22 C17.52,22 22,17.52 22,12 C22,6.48 17.52,2 12,2 Z M9.05,8.29 C9.13,8.12 9.31,8.01 9.5,8.01 L14.5,8.01 C14.69,8.01 14.86,8.12 14.95,8.29 C15.04,8.46 15.02,8.66 14.9,8.81 L12.4,12.14 C12.31,12.27 12.16,12.34 12,12.34 C11.84,12.34 11.69,12.27 11.6,12.14 L9.1,8.81 C8.99,8.67 8.97,8.46 9.05,8.29 Z M17.61,10.44 L12.61,17.44 C12.47,17.64 12.24,17.75 12,17.75 C11.76,17.75 11.53,17.63 11.39,17.44 L6.39,10.44 C6.15,10.1 6.23,9.63 6.56,9.39 C6.9,9.15 7.37,9.23 7.61,9.56 L12,15.71 L16.39,9.56 C16.63,9.22 17.1,9.14 17.44,9.39 C17.77,9.63 17.85,10.1 17.61,10.44 Z"/>
</svg>

