<svg xmlns="http://www.w3.org/2000/svg" width="24" height="24" viewBox="0 0 24 24">
  <defs/>
  <path d="M12,12.6 C11.76,12.6 11.54,12.49 11.4,12.3 L8.9,8.97 C8.73,8.74 8.7,8.44 8.83,8.18 C8.96,7.92 9.22,7.77 9.5,7.77 L14.5,7.77 C14.78,7.77 15.04,7.93 15.17,8.18 C15.3,8.43 15.27,8.74 15.1,8.97 L12.6,12.3 C12.46,12.49 12.24,12.6 12,12.6 Z M11,9.27 L12,10.6 L13,9.27 L11,9.27 Z"/>
  <path d="M12,22.75 C6.07,22.75 1.25,17.93 1.25,12 C1.25,6.07 6.07,1.25 12,1.25 C17.93,1.25 22.75,6.07 22.75,12 C22.75,17.93 17.93,22.75 12,22.75 Z M12,2.75 C6.9,2.75 2.75,6.9 2.75,12 C2.75,17.1 6.9,21.25 12,21.25 C17.1,21.25 21.25,17.1 21.25,12 C21.25,6.9 17.1,2.75 12,2.75 Z"/>
  <path d="M12,17.75 C11.76,17.75 11.53,17.63 11.39,17.44 L6.39,10.44 C6.15,10.1 6.23,9.63 6.56,9.39 C6.9,9.15 7.37,9.23 7.61,9.56 L12,15.71 L16.39,9.56 C16.63,9.22 17.1,9.14 17.44,9.39 C17.78,9.63 17.86,10.1 17.61,10.44 L12.61,17.44 C12.47,17.63 12.24,17.75 12,17.75 Z"/>
</svg>

