<svg xmlns="http://www.w3.org/2000/svg" width="24" height="24" viewBox="0 0 24 24">
  <defs/>
  <path d="M8.9,8.97 Q8.75,8.77 8.75,8.52 Q8.75,8.209 8.97,7.99 Q9.189,7.77 9.5,7.77 L14.5,7.77 Q14.75,7.77 14.95,7.92 Q15.199,8.107 15.243,8.414 Q15.286,8.722 15.1,8.97 L12.6,12.3 Q12.536,12.386 12.45,12.45 Q12.202,12.636 11.894,12.593 Q11.587,12.549 11.4,12.3 Z M11.001,9.27 L12,10.601 L12.999,9.27 L11.001,9.27 Z"/>
  <path d="M17.61,10.436 L12.61,17.436 Q12.43,17.689 12.123,17.74 Q11.817,17.791 11.564,17.61 Q11.462,17.538 11.39,17.436 L6.39,10.436 Q6.209,10.183 6.26,9.877 Q6.311,9.57 6.564,9.39 Q6.817,9.209 7.123,9.26 Q7.43,9.311 7.61,9.564 L12,15.71 L16.39,9.564 Q16.57,9.311 16.877,9.26 Q17.183,9.209 17.436,9.39 Q17.689,9.57 17.74,9.877 Q17.791,10.183 17.61,10.436 Z"/>
  <path fill="#17191C" d="M4.6,6.449 Q2.75,8.922 2.75,12 Q2.75,15.829 5.46,18.54 Q8.171,21.25 12,21.25 Q15.829,21.25 18.54,18.54 Q21.25,15.829 21.25,12 Q21.25,8.171 18.54,5.46 Q15.829,2.75 12,2.75 Q10.031,2.75 8.276,3.535 Q7.993,3.661 7.702,3.551 Q7.412,3.44 7.285,3.156 Q7.158,2.873 7.269,2.582 Q7.38,2.292 7.664,2.165 Q9.711,1.25 12,1.25 Q16.451,1.25 19.6,4.4 Q22.75,7.549 22.75,12 Q22.75,16.451 19.6,19.6 Q16.451,22.75 12,22.75 Q7.549,22.75 4.4,19.6 Q1.25,16.451 1.25,12 Q1.25,8.422 3.4,5.551 Q3.586,5.302 3.893,5.258 Q4.201,5.213 4.449,5.4 Q4.698,5.586 4.742,5.893 Q4.787,6.201 4.6,6.449 Z"/>
</svg>

