<svg xmlns="http://www.w3.org/2000/svg" width="24" height="24" viewBox="0 0 24 24">
  <defs/>
  <path fill="white" opacity="0.58" d="M24,0 L0,0 L0,24 L24,24 L24,0 Z"/>
  <path fill="#292D32" d="M14.95,8.29 C14.87,8.12 14.69,8.01 14.5,8.01 L9.5,8.01 C9.31,8.01 9.14,8.12 9.05,8.29 C8.96,8.46 8.98,8.66 9.1,8.81 L11.6,12.14 C11.69,12.27 11.84,12.34 12,12.34 C12.16,12.34 12.31,12.27 12.4,12.14 L14.9,8.81 C15.01,8.67 15.03,8.46 14.95,8.29 Z"/>
  <path fill="#292D32" opacity="0.4" d="M12,22 C17.523,22 22,17.523 22,12 C22,6.477 17.523,2 12,2 C6.477,2 2,6.477 2,12 C2,17.523 6.477,22 12,22 Z"/>
  <path fill="#292D32" d="M12.001,17.75 C11.761,17.75 11.531,17.63 11.391,17.44 L6.391,10.44 C6.151,10.1 6.231,9.63 6.561,9.39 C6.901,9.15 7.371,9.23 7.611,9.56 L12.001,15.71 L16.391,9.56 C16.631,9.22 17.101,9.14 17.441,9.39 C17.781,9.63 17.861,10.1 17.611,10.44 L12.611,17.44 C12.471,17.63 12.241,17.75 12.001,17.75 Z"/>
</svg>

