<svg xmlns="http://www.w3.org/2000/svg" width="24" height="24" viewBox="0 0 24 24">
  <defs/>
  <path fill="#292D32" d="M21.98,15.65 C21.16,14.64 19.91,14 18.5,14 C17.44,14 16.46,14.37 15.69,14.99 C14.65,15.81 14,17.08 14,18.5 C14,19.91 14.64,21.16 15.65,21.98 C16.42,22.62 17.42,23 18.5,23 C19.64,23 20.67,22.57 21.47,21.88 C22.4,21.05 23,19.85 23,18.5 C23,17.42 22.62,16.42 21.98,15.65 Z M19.53,18.78 C19.53,19.04 19.39,19.29 19.17,19.42 L17.76,20.26 C17.64,20.33 17.51,20.37 17.37,20.37 C17.12,20.37 16.87,20.24 16.73,20.01 C16.52,19.65 16.63,19.19 16.99,18.98 L18.03,18.36 L18.03,17.1 C18.03,16.69 18.37,16.35 18.78,16.35 C19.19,16.35 19.53,16.69 19.53,17.1 L19.53,18.78 Z"/>
  <path fill="#292D32" opacity="0.4" d="M22,7.81 L22,15.7 C22,15.69 21.99,15.68 21.98,15.67 C21.94,15.61 21.89,15.55 21.84,15.5 C21.83,15.49 21.82,15.47 21.81,15.46 C21,14.56 19.81,14 18.5,14 C17.24,14 16.09,14.52 15.27,15.36 C14.48,16.17 14,17.28 14,18.5 C14,19.34 14.24,20.14 14.65,20.82 C14.87,21.19 15.15,21.53 15.47,21.81 C15.49,21.82 15.5,21.83 15.51,21.84 C15.56,21.89 15.61,21.93 15.67,21.98 C15.67,21.98 15.67,21.98 15.68,21.98 C15.69,21.99 15.7,22 15.71,22 L7.81,22 C4.17,22 2,19.83 2,16.19 L2,7.81 C2,7.3 2.04,6.81 2.13,6.36 C2.64,3.61 4.67,2.01 7.77,2 L16.23,2 C19.33,2.01 21.36,3.61 21.87,6.36 C21.96,6.81 22,7.3 22,7.81 Z"/>
  <path fill="#292D32" d="M22,7.81 L22,7.86 L2,7.86 L2,7.81 C2,7.3 2.04,6.81 2.13,6.36 L7.77,6.36 L7.77,2 L9.27,2 L9.27,6.36 L14.73,6.36 L14.73,2 L16.23,2 L16.23,6.36 L21.87,6.36 C21.96,6.81 22,7.3 22,7.81 Z"/>
</svg>

