<svg xmlns="http://www.w3.org/2000/svg" width="24" height="24" viewBox="0 0 24 24">
  <defs/>
  <path fill="#292D32" d="M1.25,9 Q1.25,1.25 9,1.25 L15,1.25 Q22.75,1.25 22.75,9 L22.75,15 Q22.75,15.484 22.727,15.738 Q22.699,16.047 22.46,16.246 Q22.221,16.445 21.912,16.417 Q21.555,16.384 21.356,16.086 Q21.337,16.058 21.31,16.03 Q21.267,15.988 21.228,15.935 Q20.144,14.75 18.5,14.75 Q16.914,14.75 15.807,15.884 Q14.75,16.967 14.75,18.5 Q14.75,19.533 15.292,20.433 Q15.558,20.88 15.927,21.213 Q15.987,21.256 16.04,21.31 Q16.058,21.328 16.123,21.381 Q16.14,21.396 16.15,21.404 Q16.389,21.603 16.417,21.912 Q16.445,22.221 16.246,22.46 Q16.048,22.697 15.741,22.727 Q15.496,22.75 15,22.75 L9,22.75 Q1.25,22.75 1.25,15 L1.25,13.03 Q1.25,12.719 1.47,12.5 Q1.689,12.28 2,12.28 Q2.311,12.28 2.53,12.5 Q2.75,12.719 2.75,13.03 L2.75,15 Q2.75,21.25 9,21.25 L14.033,21.25 Q14.02,21.229 14.008,21.207 Q13.25,19.951 13.25,18.5 Q13.25,16.357 14.733,14.836 Q16.282,13.25 18.5,13.25 Q20.05,13.25 21.25,14.006 L21.25,9 Q21.25,5.561 19.845,4.155 Q18.439,2.75 15,2.75 L9,2.75 Q2.75,2.75 2.75,9 Q2.75,9.311 2.53,9.53 Q2.311,9.75 2,9.75 Q1.689,9.75 1.47,9.53 Q1.25,9.311 1.25,9 Z M21.248,15.957 Q21.263,15.974 21.28,15.99 Q21.266,15.976 21.253,15.962 Q21.25,15.959 21.248,15.957 Z"/>
  <path fill="#292D32" d="M2.52,6.36 L21.479,6.36 Q21.79,6.36 22.01,6.58 Q22.229,6.799 22.229,7.11 Q22.229,7.421 22.01,7.64 Q21.79,7.86 21.479,7.86 L2.52,7.86 Q2.209,7.86 1.989,7.64 Q1.77,7.421 1.77,7.11 Q1.77,6.799 1.989,6.58 Q2.209,6.36 2.52,6.36 Z"/>
  <path fill="#292D32" d="M9.27,2.11 L9.27,6.97 Q9.27,7.281 9.05,7.5 Q8.83,7.72 8.52,7.72 Q8.209,7.72 7.989,7.5 Q7.77,7.281 7.77,6.97 L7.77,2.11 Q7.77,1.799 7.989,1.58 Q8.209,1.36 8.52,1.36 Q8.83,1.36 9.05,1.58 Q9.27,1.799 9.27,2.11 Z"/>
  <path fill="#292D32" d="M16.23,2.11 L16.23,6.52 Q16.23,6.831 16.011,7.05 Q15.791,7.27 15.48,7.27 Q15.17,7.27 14.95,7.05 Q14.731,6.831 14.731,6.52 L14.731,2.11 Q14.731,1.799 14.95,1.58 Q15.17,1.36 15.48,1.36 Q15.791,1.36 16.011,1.58 Q16.23,1.799 16.23,2.11 Z"/>
  <path fill="#292D32" d="M23.75,18.5 Q23.75,19.156 23.595,19.742 Q23.41,20.499 22.996,21.201 Q21.467,23.75 18.5,23.75 Q16.669,23.75 15.275,22.618 Q15.231,22.591 15.19,22.556 Q15.182,22.549 15.166,22.536 Q15.067,22.454 15.004,22.394 Q14.423,21.893 14.008,21.208 Q13.25,19.951 13.25,18.5 Q13.25,16.357 14.733,14.836 Q16.282,13.25 18.5,13.25 Q20.863,13.25 22.39,14.99 Q22.495,15.098 22.58,15.218 Q23.75,16.644 23.75,18.5 Z M22.25,18.5 Q22.25,17.168 21.403,16.149 Q21.378,16.119 21.356,16.086 Q21.337,16.058 21.31,16.03 Q21.291,16.012 21.274,15.993 Q20.192,14.75 18.5,14.75 Q16.914,14.75 15.807,15.884 Q14.75,16.967 14.75,18.5 Q14.75,19.533 15.292,20.432 Q15.587,20.92 15.997,21.269 Q16.019,21.289 16.04,21.31 Q16.051,21.32 16.079,21.344 Q16.122,21.372 16.163,21.406 Q17.165,22.25 18.5,22.25 Q20.617,22.25 21.704,20.439 Q22.006,19.927 22.145,19.358 Q22.25,18.961 22.25,18.5 Z"/>
  <path fill="#292D32" d="M19.17,20.21 L16.79,17.83 Q16.57,17.611 16.57,17.3 Q16.57,16.989 16.79,16.77 Q17.01,16.55 17.32,16.55 Q17.631,16.55 17.851,16.77 L20.231,19.15 Q20.45,19.369 20.45,19.68 Q20.45,19.991 20.231,20.21 Q20.011,20.43 19.7,20.43 Q19.39,20.43 19.17,20.21 Z"/>
  <path fill="#292D32" d="M20.211,17.85 L17.831,20.23 Q17.611,20.45 17.301,20.45 Q16.99,20.45 16.77,20.23 Q16.551,20.011 16.551,19.7 Q16.551,19.389 16.77,19.17 L19.15,16.79 Q19.37,16.57 19.681,16.57 Q19.991,16.57 20.211,16.79 Q20.431,17.009 20.431,17.32 Q20.431,17.631 20.211,17.85 Z"/>
</svg>

