<svg xmlns="http://www.w3.org/2000/svg" width="24" height="24" viewBox="0 0 24 24">
  <defs/>
  <path fill="#292D32" opacity="0.4" d="M17.65,6.56 L4.2,20.01 C2.8,19.12 2.25,17.53 2.25,16 L2.25,8 C2.25,4.58 3.58,3.25 7,3.25 L13,3.25 C15.89,3.25 17.29,4.2 17.65,6.56 Z"/>
  <path fill="#292D32" opacity="0.4" d="M17.749,9.25 L17.749,16 C17.749,16.08 17.739,16.14 17.739,16.21 C17.739,16.28 17.729,16.35 17.729,16.42 L17.739,16.42 C17.629,19.53 16.279,20.75 12.999,20.75 L6.999,20.75 C6.749,20.75 6.519,20.74 6.289,20.71 L17.749,9.25 Z"/>
  <path fill="#292D32" opacity="0.4" d="M17.73,16.42 C17.73,16.35 17.741,16.28 17.741,16.21 C17.75,16.28 17.75,16.35 17.741,16.42 L17.73,16.42 Z"/>
  <path fill="#292D32" opacity="0.4" d="M17.741,7.57 C17.75,7.64 17.75,7.72 17.741,7.79 C17.741,7.72 17.73,7.65 17.73,7.58 L17.741,7.57 Z"/>
  <path fill="#292D32" d="M22.75,8.38 L22.75,15.62 C22.75,17.05 22.061,17.62 21.651,17.83 C21.46,17.93 21.171,18.04 20.8,18.04 C20.37,18.04 19.831,17.9 19.21,17.46 L17.741,16.42 L17.73,16.42 C17.73,16.35 17.741,16.28 17.741,16.21 C17.741,16.14 17.75,16.08 17.75,16 L17.75,9.25 L21.02,5.98 C21.291,6 21.5,6.08 21.651,6.17 C22.061,6.38 22.75,6.95 22.75,8.38 Z"/>
  <path fill="#292D32" d="M21.771,2.23 C21.471,1.93 20.981,1.93 20.681,2.23 L2.231,20.69 C1.931,20.99 1.931,21.48 2.231,21.78 C2.381,21.92 2.571,22 2.771,22 C2.971,22 3.161,21.92 3.311,21.77 L21.771,3.31 C22.081,3.01 22.081,2.53 21.771,2.23 Z"/>
</svg>

