<svg xmlns="http://www.w3.org/2000/svg" width="24" height="24" viewBox="0 0 24 24">
  <defs/>
  <path fill="#292D32" d="M19.512,5.85 L13.572,2.42 C12.602,1.86 11.402,1.86 10.422,2.42 L4.492,5.85 C3.522,6.41 2.922,7.45 2.922,8.58 L2.922,15.42 C2.922,16.54 3.522,17.58 4.492,18.15 L10.432,21.58 C11.402,22.14 12.602,22.14 13.582,21.58 L19.522,18.15 C20.492,17.59 21.092,16.55 21.092,15.42 L21.092,8.58 C21.082,7.45 20.482,6.42 19.512,5.85 Z M14.252,13.4 L13.212,14 L12.172,14.6 C10.842,15.37 9.752,14.74 9.752,13.2 L9.752,12 L9.752,10.8 C9.752,9.26 10.842,8.63 12.172,9.4 L13.212,10 L14.252,10.6 C15.582,11.37 15.582,12.63 14.252,13.4 Z"/>
</svg>

