<svg xmlns="http://www.w3.org/2000/svg" width="24" height="24" viewBox="0 0 24 24">
  <defs/>
  <path fill="#292D32" d="M15,22.75 L9,22.75 C3.57,22.75 1.25,20.43 1.25,15 L1.25,9 C1.25,3.57 3.57,1.25 9,1.25 L15,1.25 C20.43,1.25 22.75,3.57 22.75,9 L22.75,15 C22.75,20.43 20.43,22.75 15,22.75 Z M9,2.75 C4.39,2.75 2.75,4.39 2.75,9 L2.75,15 C2.75,19.61 4.39,21.25 9,21.25 L15,21.25 C19.61,21.25 21.25,19.61 21.25,15 L21.25,9 C21.25,4.39 19.61,2.75 15,2.75 L9,2.75 Z"/>
  <path fill="#292D32" d="M21.48,17.86 L2.52,17.86 C2.11,17.86 1.77,17.52 1.77,17.11 C1.77,16.7 2.11,16.36 2.52,16.36 L21.48,16.36 C21.89,16.36 22.23,16.7 22.23,17.11 C22.23,17.52 21.899,17.86 21.48,17.86 Z"/>
  <path fill="#292D32" d="M21.48,7.86 L2.52,7.86 C2.11,7.86 1.77,7.52 1.77,7.11 C1.77,6.7 2.1,6.36 2.52,6.36 L21.48,6.36 C21.89,6.36 22.23,6.7 22.23,7.11 C22.23,7.52 21.899,7.86 21.48,7.86 Z"/>
  <path fill="#292D32" d="M6.971,22.21 C6.561,22.21 6.221,21.87 6.221,21.46 L6.221,17.11 C6.221,16.7 6.561,16.36 6.971,16.36 C7.381,16.36 7.721,16.7 7.721,17.11 L7.721,21.46 C7.721,21.88 7.381,22.21 6.971,22.21 Z"/>
  <path fill="#292D32" d="M12,22.72 C11.59,22.72 11.25,22.38 11.25,21.97 L11.25,17.11 C11.25,16.7 11.59,16.36 12,16.36 C12.41,16.36 12.75,16.7 12.75,17.11 L12.75,21.97 C12.75,22.38 12.41,22.72 12,22.72 Z"/>
  <path fill="#292D32" d="M16.971,22.27 C16.561,22.27 16.221,21.93 16.221,21.52 L16.221,17.11 C16.221,16.7 16.561,16.36 16.971,16.36 C17.381,16.36 17.721,16.7 17.721,17.11 L17.721,21.52 C17.721,21.94 17.381,22.27 16.971,22.27 Z"/>
  <path fill="#292D32" d="M6.971,7.21 C6.561,7.21 6.221,6.87 6.221,6.46 L6.221,2.11 C6.221,1.7 6.561,1.36 6.971,1.36 C7.381,1.36 7.721,1.7 7.721,2.11 L7.721,6.46 C7.721,6.88 7.381,7.21 6.971,7.21 Z"/>
  <path fill="#292D32" d="M12,7.72 C11.59,7.72 11.25,7.38 11.25,6.97 L11.25,2.11 C11.25,1.7 11.59,1.36 12,1.36 C12.41,1.36 12.75,1.7 12.75,2.11 L12.75,6.97 C12.75,7.38 12.41,7.72 12,7.72 Z"/>
  <path fill="#292D32" d="M12,18.78 C11.59,18.78 11.25,18.44 11.25,18.03 L11.25,7.03 C11.25,6.62 11.59,6.28 12,6.28 C12.41,6.28 12.75,6.62 12.75,7.03 L12.75,18.03 C12.75,18.44 12.41,18.78 12,18.78 Z"/>
  <path fill="#292D32" d="M16.971,7.27 C16.561,7.27 16.221,6.93 16.221,6.52 L16.221,2.11 C16.221,1.7 16.561,1.36 16.971,1.36 C17.381,1.36 17.721,1.7 17.721,2.11 L17.721,6.52 C17.721,6.94 17.381,7.27 16.971,7.27 Z"/>
</svg>

