<svg xmlns="http://www.w3.org/2000/svg" width="24" height="24" viewBox="0 0 24 24">
  <defs/>
  <path fill="#292D32" opacity="0.4" d="M22,7.81 L22,16.19 C22,19.83 19.83,22 16.19,22 L7.81,22 C4.17,22 2,19.83 2,16.19 L2,7.81 C2,7.3 2.04,6.81 2.13,6.36 C2.64,3.61 4.67,2.01 7.77,2 L16.23,2 C19.33,2.01 21.36,3.61 21.87,6.36 C21.96,6.81 22,7.3 22,7.81 Z"/>
  <path fill="#292D32" d="M22,7.81 L22,7.86 L2,7.86 L2,7.81 C2,7.3 2.04,6.81 2.13,6.36 L7.77,6.36 L7.77,2 L9.27,2 L9.27,6.36 L14.73,6.36 L14.73,2 L16.23,2 L16.23,6.36 L21.87,6.36 C21.96,6.81 22,7.3 22,7.81 Z"/>
  <path fill="#292D32" d="M14.439,12.72 L12.359,11.52 C11.589,11.08 10.849,11.02 10.269,11.35 C9.689,11.68 9.369,12.36 9.369,13.24 L9.369,15.64 C9.369,16.52 9.689,17.2 10.269,17.53 C10.519,17.67 10.799,17.74 11.089,17.74 C11.489,17.74 11.919,17.61 12.359,17.36 L14.439,16.16 C15.209,15.72 15.629,15.1 15.629,14.43 C15.629,13.76 15.199,13.17 14.439,12.72 Z"/>
</svg>

