<svg xmlns="http://www.w3.org/2000/svg" width="24" height="24" viewBox="0 0 24 24">
  <defs/>
  <path fill="#292D32" d="M22.75,15 Q22.75,22.75 15,22.75 L9,22.75 Q1.25,22.75 1.25,15 L1.25,9 Q1.25,1.25 9,1.25 L15,1.25 Q22.75,1.25 22.75,9 Z M21.25,15 L21.25,9 Q21.25,2.75 15,2.75 L9,2.75 Q2.75,2.75 2.75,9 L2.75,15 Q2.75,18.439 4.155,19.845 Q5.561,21.25 9,21.25 L15,21.25 Q18.439,21.25 19.845,19.845 Q21.25,18.439 21.25,15 Z"/>
  <path fill="#292D32" d="M2.52,6.36 L21.48,6.36 Q21.791,6.36 22.01,6.58 Q22.23,6.799 22.23,7.11 Q22.23,7.421 22.01,7.64 Q21.791,7.86 21.48,7.86 L2.52,7.86 Q2.209,7.86 1.99,7.64 Q1.77,7.421 1.77,7.11 Q1.77,6.799 1.99,6.58 Q2.209,6.36 2.52,6.36 Z"/>
  <path fill="#292D32" d="M9.27,2.11 L9.27,6.97 Q9.27,7.281 9.05,7.5 Q8.831,7.72 8.52,7.72 Q8.209,7.72 7.99,7.5 Q7.77,7.281 7.77,6.97 L7.77,2.11 Q7.77,1.799 7.99,1.58 Q8.209,1.36 8.52,1.36 Q8.831,1.36 9.05,1.58 Q9.27,1.799 9.27,2.11 Z"/>
  <path fill="#292D32" d="M16.23,2.11 L16.23,6.52 Q16.23,6.831 16.01,7.05 Q15.791,7.27 15.48,7.27 Q15.169,7.27 14.95,7.05 Q14.73,6.831 14.73,6.52 L14.73,2.11 Q14.73,1.799 14.95,1.58 Q15.169,1.36 15.48,1.36 Q15.791,1.36 16.01,1.58 Q16.23,1.799 16.23,2.11 Z"/>
  <path fill="#292D32" d="M9,13.25 Q9,11.663 10.086,11.035 Q11.173,10.406 12.546,11.201 L13.585,11.8 L14.625,12.4 Q15.998,13.195 15.997,14.45 Q15.997,15.705 14.626,16.499 L13.585,17.1 L12.545,17.7 Q11.173,18.494 10.086,17.866 Q9,17.238 9,15.65 L9,13.25 Z M10.5,15.65 Q10.5,16.372 10.837,16.567 Q11.172,16.761 11.795,16.4 L12.835,15.8 L13.874,15.201 Q14.497,14.84 14.497,14.45 Q14.497,14.06 13.875,13.7 L12.835,13.1 L11.794,12.499 Q11.172,12.139 10.837,12.333 Q10.5,12.528 10.5,13.25 L10.5,15.65 Z"/>
</svg>

