<svg xmlns="http://www.w3.org/2000/svg" width="24" height="24" viewBox="0 0 24 24">
  <defs/>
  <path fill="#292D32" opacity="0.4" d="M22,7.81 L22,16.19 C22,16.25 22,16.31 21.99,16.36 C21.99,16.9 21.93,17.4 21.82,17.86 C21.35,20.02 19.91,21.42 17.72,21.85 C17.25,21.95 16.75,22 16.22,22 L7.72,22 C7.19,21.99 6.69,21.94 6.22,21.84 C4.07,21.4 2.65,20 2.18,17.86 C2.07,17.4 2.01,16.9 2.01,16.36 C2,16.31 2,16.25 2,16.19 L2,7.81 C2,7.3 2.04,6.81 2.13,6.36 C2.55,4.1 4,2.62 6.22,2.16 C6.69,2.05 7.19,2 7.72,2 L16.23,2 C16.76,2 17.26,2.05 17.72,2.15 C19.98,2.59 21.45,4.08 21.87,6.36 C21.96,6.81 22,7.3 22,7.81 Z"/>
  <path fill="#292D32" d="M12.75,7.86 L12.75,16.36 L21.99,16.36 C21.99,16.9 21.93,17.4 21.82,17.86 L17.72,17.86 L17.72,21.85 C17.25,21.95 16.75,22 16.22,22 L16.22,17.86 L12.75,17.86 L12.75,22 L11.25,22 L11.25,17.86 L7.72,17.86 L7.72,22 C7.19,21.99 6.69,21.94 6.22,21.84 L6.22,17.86 L2.18,17.86 C2.07,17.4 2.01,16.9 2.01,16.36 L11.25,16.36 L11.25,7.86 L2,7.86 L2,7.81 C2,7.3 2.04,6.81 2.13,6.36 L6.24,6.36 C6.23,6.32 6.22,6.28 6.22,6.24 L6.22,2.16 C6.69,2.05 7.19,2 7.72,2 L7.72,6.24 C7.72,6.28 7.7,6.32 7.69,6.36 L11.25,6.36 L11.25,2 L12.75,2 L12.75,6.36 L16.22,6.36 L16.22,2 L16.23,2 C16.76,2 17.26,2.05 17.72,2.15 L17.72,6.33 C17.72,6.34 17.71,6.35 17.71,6.36 L21.87,6.36 C21.96,6.81 22,7.3 22,7.81 L22,7.86 L12.75,7.86 Z"/>
</svg>

