<svg xmlns="http://www.w3.org/2000/svg" width="24" height="24" viewBox="0 0 24 24">
  <defs/>
  <path fill="#292D32" d="M9,22.75 Q1.25,22.75 1.25,15 L1.25,9 Q1.25,1.25 9,1.25 L15,1.25 Q22.75,1.25 22.75,9 L22.75,15 Q22.75,22.75 15,22.75 Z M9,21.25 L15,21.25 Q18.439,21.25 19.845,19.845 Q21.25,18.439 21.25,15 L21.25,9 Q21.25,2.75 15,2.75 L9,2.75 Q2.75,2.75 2.75,9 L2.75,15 Q2.75,18.439 4.155,19.845 Q5.561,21.25 9,21.25 Z"/>
  <g opacity="0.4">
    <path fill="#292D32" d="M7.641,2.52 L7.641,21.479 Q7.641,21.79 7.421,22.01 Q7.201,22.229 6.891,22.229 Q6.58,22.229 6.36,22.01 Q6.141,21.79 6.141,21.479 L6.141,2.52 Q6.141,2.209 6.36,1.989 Q6.58,1.77 6.891,1.77 Q7.201,1.77 7.421,1.989 Q7.641,2.209 7.641,2.52 Z"/>
    <path fill="#292D32" d="M17.641,2.52 L17.641,21.479 Q17.641,21.79 17.421,22.01 Q17.201,22.229 16.891,22.229 Q16.58,22.229 16.36,22.01 Q16.141,21.79 16.141,21.479 L16.141,2.52 Q16.141,2.209 16.36,1.989 Q16.58,1.77 16.891,1.77 Q17.201,1.77 17.421,1.989 Q17.641,2.209 17.641,2.52 Z"/>
    <path fill="#292D32" d="M6.889,7.72 L2.539,7.72 Q2.228,7.72 2.009,7.5 Q1.789,7.28 1.789,6.97 Q1.789,6.659 2.009,6.439 Q2.228,6.22 2.539,6.22 L6.889,6.22 Q7.2,6.22 7.419,6.439 Q7.639,6.659 7.639,6.97 Q7.639,7.28 7.419,7.5 Q7.2,7.72 6.889,7.72 Z"/>
    <path fill="#292D32" d="M6.889,12.75 L2.029,12.75 Q1.719,12.75 1.499,12.53 Q1.279,12.311 1.279,12 Q1.279,11.689 1.499,11.47 Q1.719,11.25 2.029,11.25 L6.889,11.25 Q7.2,11.25 7.42,11.47 Q7.639,11.689 7.639,12 Q7.639,12.311 7.42,12.53 Q7.2,12.75 6.889,12.75 Z"/>
    <path fill="#292D32" d="M6.89,17.72 L2.48,17.72 Q2.17,17.72 1.95,17.5 Q1.73,17.28 1.73,16.97 Q1.73,16.659 1.95,16.439 Q2.17,16.22 2.48,16.22 L6.89,16.22 Q7.201,16.22 7.421,16.439 Q7.64,16.659 7.64,16.97 Q7.64,17.28 7.421,17.5 Q7.201,17.72 6.89,17.72 Z"/>
    <path fill="#292D32" d="M21.889,7.72 L17.539,7.72 Q17.228,7.72 17.009,7.5 Q16.789,7.28 16.789,6.97 Q16.789,6.659 17.009,6.439 Q17.228,6.22 17.539,6.22 L21.889,6.22 Q22.2,6.22 22.419,6.439 Q22.639,6.659 22.639,6.97 Q22.639,7.28 22.419,7.5 Q22.2,7.72 21.889,7.72 Z"/>
    <path fill="#292D32" d="M21.889,12.75 L17.029,12.75 Q16.719,12.75 16.499,12.53 Q16.279,12.311 16.279,12 Q16.279,11.689 16.499,11.47 Q16.719,11.25 17.029,11.25 L21.889,11.25 Q22.2,11.25 22.42,11.47 Q22.639,11.689 22.639,12 Q22.639,12.311 22.42,12.53 Q22.2,12.75 21.889,12.75 Z"/>
    <path fill="#292D32" d="M16.971,12.75 L5.971,12.75 Q5.66,12.75 5.44,12.53 Q5.221,12.311 5.221,12 Q5.221,11.689 5.44,11.47 Q5.66,11.25 5.971,11.25 L16.971,11.25 Q17.281,11.25 17.501,11.47 Q17.721,11.689 17.721,12 Q17.721,12.311 17.501,12.53 Q17.281,12.75 16.971,12.75 Z"/>
    <path fill="#292D32" d="M21.89,17.72 L17.48,17.72 Q17.17,17.72 16.95,17.5 Q16.73,17.28 16.73,16.97 Q16.73,16.659 16.95,16.439 Q17.17,16.22 17.48,16.22 L21.89,16.22 Q22.201,16.22 22.421,16.439 Q22.64,16.659 22.64,16.97 Q22.64,17.28 22.421,17.5 Q22.201,17.72 21.89,17.72 Z"/>
  </g>
</svg>

