<svg xmlns="http://www.w3.org/2000/svg" width="24" height="24" viewBox="0 0 24 24">
  <defs/>
  <path fill="#292D32" d="M21.83,8.58 L21.83,15.42 Q21.83,17.657 19.89,18.797 L13.945,22.229 Q12.005,23.35 10.048,22.231 L4.105,18.799 Q2.16,17.677 2.16,15.42 L2.16,8.58 Q2.16,6.343 4.1,5.203 L10.045,1.771 Q11.985,0.65 13.942,1.769 L19.885,5.2 Q21.83,6.343 21.83,8.58 Z M20.33,8.58 Q20.33,7.202 19.135,6.499 L13.198,3.071 Q11.989,2.38 10.795,3.069 L4.86,6.497 Q3.66,7.202 3.66,8.58 L3.66,15.42 Q3.66,16.811 4.855,17.501 L10.792,20.929 Q12.001,21.62 13.195,20.931 L19.13,17.503 Q20.33,16.798 20.33,15.42 Z"/>
  <path fill="#292D32" d="M9,10.8 Q9,9.212 10.086,8.584 Q11.173,7.956 12.546,8.751 L13.585,9.35 L14.625,9.95 Q15.998,10.745 15.997,12 Q15.997,13.255 14.626,14.049 L13.585,14.65 L12.545,15.25 Q11.173,16.044 10.086,15.415 Q9,14.787 9,13.2 L9,10.8 Z M10.5,13.2 Q10.5,13.922 10.837,14.117 Q11.172,14.311 11.795,13.95 L12.835,13.35 L13.874,12.751 Q14.497,12.39 14.497,12 Q14.497,11.61 13.875,11.25 L12.835,10.65 L11.794,10.049 Q11.172,9.689 10.837,9.883 Q10.5,10.078 10.5,10.8 L10.5,13.2 Z"/>
</svg>

