<svg xmlns="http://www.w3.org/2000/svg" width="24" height="24" viewBox="0 0 24 24">
  <defs/>
  <path fill="#292D32" d="M1.25,7.79 Q1.25,2.83 6.21,2.83 L12.53,2.83 Q15.211,2.83 16.35,3.97 Q17.49,5.109 17.49,7.79 L17.49,16.21 Q17.49,18.891 16.35,20.03 Q15.211,21.17 12.53,21.17 L6.21,21.17 Q3.664,21.17 2.344,19.587 Q1.25,18.274 1.25,16.21 L1.25,12.12 Q1.25,11.809 1.47,11.59 Q1.689,11.37 2,11.37 Q2.311,11.37 2.53,11.59 Q2.75,11.809 2.75,12.12 L2.75,16.21 Q2.75,19.67 6.21,19.67 L12.53,19.67 Q15.99,19.67 15.99,16.21 L15.99,7.79 Q15.99,5.731 15.29,5.03 Q14.589,4.33 12.53,4.33 L6.21,4.33 Q2.75,4.33 2.75,7.79 Q2.75,8.101 2.53,8.32 Q2.311,8.54 2,8.54 Q1.689,8.54 1.47,8.32 Q1.25,8.101 1.25,7.79 Z"/>
  <path fill="#292D32" d="M19.09,17.714 L16.31,15.764 Q15.99,15.54 15.99,15.15 L15.99,8.84 Q15.99,8.45 16.31,8.226 L19.09,6.276 Q20.485,5.301 21.618,5.893 Q22.75,6.484 22.75,8.19 L22.75,15.81 Q22.75,17.518 21.616,18.107 Q20.482,18.696 19.09,17.714 Z M19.953,16.487 Q20.6,16.944 20.924,16.776 Q21.25,16.606 21.25,15.81 L21.25,8.19 Q21.25,7.393 20.923,7.222 Q20.598,7.052 19.951,7.504 L17.49,9.23 L17.49,14.76 L19.951,16.486 Z"/>
  <path fill="#292D32" d="M12.25,9.5 Q12.25,8.75 11.5,8.75 Q10.75,8.75 10.75,9.5 Q10.75,10.25 11.5,10.25 Q11.811,10.25 12.03,10.47 Q12.25,10.689 12.25,11 Q12.25,11.311 12.03,11.53 Q11.811,11.75 11.5,11.75 Q9.25,11.75 9.25,9.5 Q9.25,7.25 11.5,7.25 Q13.75,7.25 13.75,9.5 Q13.75,9.811 13.53,10.03 Q13.311,10.25 13,10.25 Q12.689,10.25 12.47,10.03 Q12.25,9.811 12.25,9.5 Z"/>
</svg>

