<svg xmlns="http://www.w3.org/2000/svg" width="24" height="24" viewBox="0 0 24 24">
  <defs/>
  <path fill="#292D32" d="M12.88,20.86 L6.81,20.86 C3.26,20.86 2,18.37 2,16.05 L2,7.95 C2,4.49 3.35,3.14 6.81,3.14 L12.88,3.14 C16.34,3.14 17.69,4.49 17.69,7.95 L17.69,16.05 C17.69,19.51 16.34,20.86 12.88,20.86 Z M6.81,4.66 C4.2,4.66 3.52,5.34 3.52,7.95 L3.52,16.05 C3.52,17.28 3.95,19.34 6.81,19.34 L12.88,19.34 C15.49,19.34 16.17,18.66 16.17,16.05 L16.17,7.95 C16.17,5.34 15.49,4.66 12.88,4.66 L6.81,4.66 Z"/>
  <path fill="#292D32" d="M20.78,18.11 C20.35,18.11 19.8,17.97 19.17,17.53 L16.5,15.66 C16.3,15.52 16.18,15.29 16.18,15.04 L16.18,8.96 C16.18,8.71 16.3,8.48 16.5,8.34 L19.17,6.47 C20.36,5.64 21.23,5.88 21.64,6.09 C22.05,6.31 22.75,6.88 22.75,8.33 L22.75,15.66 C22.75,17.11 22.05,17.69 21.64,17.9 C21.45,18.01 21.15,18.11 20.78,18.11 Z M17.69,14.64 L20.04,16.28 C20.49,16.59 20.81,16.62 20.94,16.55 C21.08,16.48 21.23,16.2 21.23,15.66 L21.23,8.34 C21.23,7.79 21.07,7.52 20.94,7.45 C20.81,7.38 20.49,7.41 20.04,7.72 L17.69,9.36 L17.69,14.64 Z"/>
  <path fill="#292D32" d="M11.5,11.75 C10.26,11.75 9.25,10.74 9.25,9.5 C9.25,8.26 10.26,7.25 11.5,7.25 C12.74,7.25 13.75,8.26 13.75,9.5 C13.75,10.74 12.74,11.75 11.5,11.75 Z M11.5,8.75 C11.09,8.75 10.75,9.09 10.75,9.5 C10.75,9.91 11.09,10.25 11.5,10.25 C11.91,10.25 12.25,9.91 12.25,9.5 C12.25,9.09 11.91,8.75 11.5,8.75 Z"/>
</svg>

