<svg xmlns="http://www.w3.org/2000/svg" width="24" height="24" viewBox="0 0 24 24">
  <defs/>
  <path fill="#292D32" opacity="0.4" d="M7.81,2 L16.19,2 C16.25,2 16.31,2 16.36,2.01 C16.9,2.01 17.4,2.07 17.86,2.18 C20.02,2.65 21.42,4.09 21.85,6.28 C21.95,6.75 22,7.25 22,7.78 L22,16.28 C21.99,16.81 21.94,17.31 21.84,17.78 C21.4,19.93 20,21.35 17.86,21.82 C17.4,21.93 16.9,21.99 16.36,21.99 C16.31,22 16.25,22 16.19,22 L7.81,22 C7.3,22 6.81,21.96 6.36,21.87 C4.1,21.45 2.62,20 2.16,17.78 C2.05,17.31 2,16.81 2,16.28 L2,7.77 C2,7.24 2.05,6.74 2.15,6.28 C2.59,4.02 4.08,2.55 6.36,2.13 C6.81,2.04 7.3,2 7.81,2 Z"/>
  <path fill="#292D32" d="M7.86,11.25 L16.36,11.25 L16.36,2.01 C16.9,2.01 17.4,2.07 17.86,2.18 L17.86,6.28 L21.85,6.28 C21.95,6.75 22,7.25 22,7.78 L17.86,7.78 L17.86,11.25 L22,11.25 L22,12.75 L17.86,12.75 L17.86,16.28 L22,16.28 C21.99,16.81 21.94,17.31 21.84,17.78 L17.86,17.78 L17.86,21.82 C17.4,21.93 16.9,21.99 16.36,21.99 L16.36,12.75 L7.86,12.75 L7.86,22 L7.81,22 C7.3,22 6.81,21.96 6.36,21.87 L6.36,17.76 C6.32,17.77 6.28,17.78 6.24,17.78 L2.16,17.78 C2.05,17.31 2,16.81 2,16.28 L6.24,16.28 C6.28,16.28 6.32,16.3 6.36,16.31 L6.36,12.75 L2,12.75 L2,11.25 L6.36,11.25 L6.36,7.78 L2,7.78 L2,7.77 C2,7.24 2.05,6.74 2.15,6.28 L6.33,6.28 C6.34,6.28 6.35,6.29 6.36,6.29 L6.36,2.13 C6.81,2.04 7.3,2 7.81,2 L7.86,2 L7.86,11.25 Z"/>
</svg>

