<svg xmlns="http://www.w3.org/2000/svg" width="24" height="24" viewBox="0 0 24 24">
  <defs/>
  <path fill="#292D32" d="M2.75,12.95 L2.75,15 Q2.75,18.439 4.155,19.845 Q5.561,21.25 9,21.25 L15,21.25 Q18.439,21.25 19.845,19.845 Q21.25,18.439 21.25,15 L21.25,9 Q21.25,2.75 15,2.75 L9,2.75 Q2.75,2.75 2.75,9 Q2.75,9.311 2.53,9.53 Q2.311,9.75 2,9.75 Q1.689,9.75 1.47,9.53 Q1.25,9.311 1.25,9 Q1.25,1.25 9,1.25 L15,1.25 Q22.75,1.25 22.75,9 L22.75,15 Q22.75,22.75 15,22.75 L9,22.75 Q1.25,22.75 1.25,15 L1.25,12.95 Q1.25,12.639 1.47,12.42 Q1.689,12.2 2,12.2 Q2.311,12.2 2.53,12.42 Q2.75,12.639 2.75,12.95 Z"/>
  <path fill="#292D32" d="M12.474,15.86 Q10.862,16.788 9.606,16.063 Q8.35,15.338 8.35,13.48 L8.35,10.52 Q8.35,8.655 9.607,7.932 Q10.861,7.212 12.474,8.14 L13.755,8.881 L15.035,9.621 Q16.647,10.549 16.647,12 Q16.647,13.451 15.034,14.38 Q14.765,14.535 14.465,14.454 Q14.165,14.373 14.01,14.104 Q13.855,13.835 13.935,13.535 Q14.016,13.235 14.285,13.08 Q15.147,12.584 15.147,12 Q15.147,11.416 14.284,10.919 L13.004,10.179 L11.725,9.44 Q10.86,8.942 10.355,9.233 Q9.85,9.523 9.85,10.52 L9.85,13.48 Q9.85,14.472 10.356,14.764 Q10.863,15.057 11.725,14.56 Q11.995,14.405 12.295,14.486 Q12.595,14.567 12.75,14.836 Q12.905,15.105 12.824,15.405 Q12.743,15.705 12.474,15.86 Z"/>
</svg>

