<svg xmlns="http://www.w3.org/2000/svg" width="24" height="24" viewBox="0 0 24 24">
  <defs/>
  <path fill="#292D32" d="M11.25,7.859 L2,7.859 L2,16.189 C2,16.249 2,16.309 2.01,16.359 L11.25,16.359 L11.25,7.859 Z"/>
  <path fill="#292D32" d="M7.691,6.36 L11.251,6.36 L11.251,2 L7.721,2 L7.721,6.24 C7.721,6.28 7.701,6.32 7.691,6.36 Z"/>
  <path fill="#292D32" d="M6.219,6.24 L6.219,2.16 C3.999,2.62 2.549,4.1 2.129,6.36 L6.239,6.36 C6.229,6.32 6.219,6.28 6.219,6.24 Z"/>
  <path fill="#292D32" d="M16.22,2 L12.75,2 L12.75,6.36 L16.22,6.36 L16.22,2 Z"/>
  <path fill="#292D32" d="M17.711,6.358 L21.871,6.358 C21.451,4.078 19.981,2.588 17.721,2.148 L17.721,6.328 C17.721,6.338 17.711,6.348 17.711,6.358 Z"/>
  <path fill="#292D32" d="M17.719,21.849 C19.909,21.419 21.349,20.019 21.819,17.859 L17.719,17.859 L17.719,21.849 Z"/>
  <path fill="#292D32" d="M16.22,17.859 L12.75,17.859 L12.75,21.999 L16.22,21.999 L16.22,17.859 Z"/>
  <path fill="#292D32" d="M12.75,16.359 L21.99,16.359 C22,16.309 22,16.249 22,16.189 L22,7.859 L12.75,7.859 L12.75,16.359 Z"/>
  <path fill="#292D32" d="M11.249,17.859 L7.719,17.859 L7.719,21.999 L11.249,21.999 L11.249,17.859 Z"/>
  <path fill="#292D32" d="M2.18,17.859 C2.65,19.999 4.07,21.399 6.22,21.839 L6.22,17.859 L2.18,17.859 Z"/>
</svg>

