<svg xmlns="http://www.w3.org/2000/svg" width="24" height="24" viewBox="0 0 24 24">
  <defs/>
  <path fill="#292D32" d="M9,22.75 Q1.25,22.75 1.25,15 L1.25,9 Q1.25,1.25 9,1.25 L15,1.25 Q22.75,1.25 22.75,9 L22.75,15 Q22.75,22.75 15,22.75 Z M9,21.25 L15,21.25 Q18.439,21.25 19.845,19.845 Q21.25,18.439 21.25,15 L21.25,9 Q21.25,2.75 15,2.75 L9,2.75 Q2.75,2.75 2.75,9 L2.75,15 Q2.75,18.439 4.155,19.845 Q5.561,21.25 9,21.25 Z"/>
  <path fill="#292D32" d="M7.64,2.52 L7.64,21.48 Q7.64,21.791 7.42,22.01 Q7.201,22.23 6.89,22.23 Q6.579,22.23 6.36,22.01 Q6.14,21.791 6.14,21.48 L6.14,2.52 Q6.14,2.209 6.36,1.99 Q6.579,1.77 6.89,1.77 Q7.201,1.77 7.42,1.99 Q7.64,2.209 7.64,2.52 Z"/>
  <path fill="#292D32" d="M17.64,2.52 L17.64,21.48 Q17.64,21.791 17.42,22.01 Q17.201,22.23 16.89,22.23 Q16.579,22.23 16.36,22.01 Q16.14,21.791 16.14,21.48 L16.14,2.52 Q16.14,2.209 16.36,1.99 Q16.579,1.77 16.89,1.77 Q17.201,1.77 17.42,1.99 Q17.64,2.209 17.64,2.52 Z"/>
  <path fill="#292D32" d="M6.89,7.72 L2.54,7.72 Q2.229,7.72 2.01,7.5 Q1.79,7.281 1.79,6.97 Q1.79,6.659 2.01,6.44 Q2.229,6.22 2.54,6.22 L6.89,6.22 Q7.201,6.22 7.42,6.44 Q7.64,6.659 7.64,6.97 Q7.64,7.281 7.42,7.5 Q7.201,7.72 6.89,7.72 Z"/>
  <path fill="#292D32" d="M6.89,12.75 L2.03,12.75 Q1.719,12.75 1.5,12.53 Q1.28,12.311 1.28,12 Q1.28,11.689 1.5,11.47 Q1.719,11.25 2.03,11.25 L6.89,11.25 Q7.201,11.25 7.42,11.47 Q7.64,11.689 7.64,12 Q7.64,12.311 7.42,12.53 Q7.201,12.75 6.89,12.75 Z"/>
  <path fill="#292D32" d="M6.89,17.72 L2.48,17.72 Q2.169,17.72 1.95,17.5 Q1.73,17.281 1.73,16.97 Q1.73,16.659 1.95,16.44 Q2.169,16.22 2.48,16.22 L6.89,16.22 Q7.201,16.22 7.42,16.44 Q7.64,16.659 7.64,16.97 Q7.64,17.281 7.42,17.5 Q7.201,17.72 6.89,17.72 Z"/>
  <path fill="#292D32" d="M21.89,7.72 L17.54,7.72 Q17.229,7.72 17.01,7.5 Q16.79,7.281 16.79,6.97 Q16.79,6.659 17.01,6.44 Q17.229,6.22 17.54,6.22 L21.89,6.22 Q22.201,6.22 22.42,6.44 Q22.64,6.659 22.64,6.97 Q22.64,7.281 22.42,7.5 Q22.201,7.72 21.89,7.72 Z"/>
  <path fill="#292D32" d="M21.89,12.75 L17.03,12.75 Q16.719,12.75 16.5,12.53 Q16.28,12.311 16.28,12 Q16.28,11.689 16.5,11.47 Q16.719,11.25 17.03,11.25 L21.89,11.25 Q22.201,11.25 22.42,11.47 Q22.64,11.689 22.64,12 Q22.64,12.311 22.42,12.53 Q22.201,12.75 21.89,12.75 Z"/>
  <path fill="#292D32" d="M16.97,12.75 L5.97,12.75 Q5.659,12.75 5.44,12.53 Q5.22,12.311 5.22,12 Q5.22,11.689 5.44,11.47 Q5.659,11.25 5.97,11.25 L16.97,11.25 Q17.281,11.25 17.5,11.47 Q17.72,11.689 17.72,12 Q17.72,12.311 17.5,12.53 Q17.281,12.75 16.97,12.75 Z"/>
  <path fill="#292D32" d="M21.89,17.72 L17.48,17.72 Q17.169,17.72 16.95,17.5 Q16.73,17.281 16.73,16.97 Q16.73,16.659 16.95,16.44 Q17.169,16.22 17.48,16.22 L21.89,16.22 Q22.201,16.22 22.42,16.44 Q22.64,16.659 22.64,16.97 Q22.64,17.281 22.42,17.5 Q22.201,17.72 21.89,17.72 Z"/>
</svg>

