<svg xmlns="http://www.w3.org/2000/svg" width="24" height="24" viewBox="0 0 24 24">
  <defs/>
  <path fill="#292D32" d="M12.474,15.86 Q10.862,16.788 9.606,16.063 Q8.35,15.338 8.35,13.48 L8.35,10.52 Q8.35,8.655 9.607,7.932 Q10.861,7.212 12.474,8.14 L13.755,8.881 L15.035,9.621 Q16.647,10.549 16.647,12 Q16.647,13.451 15.034,14.38 Q14.765,14.535 14.465,14.454 Q14.165,14.373 14.01,14.104 Q13.855,13.835 13.935,13.535 Q14.016,13.235 14.285,13.08 Q15.147,12.584 15.147,12 Q15.147,11.416 14.284,10.919 L13.004,10.179 L11.725,9.44 Q10.86,8.942 10.355,9.233 Q9.85,9.523 9.85,10.52 L9.85,13.48 Q9.85,14.472 10.356,14.764 Q10.863,15.057 11.725,14.56 Q11.995,14.405 12.295,14.486 Q12.595,14.567 12.75,14.836 Q12.905,15.105 12.824,15.405 Q12.743,15.705 12.474,15.86 Z"/>
  <path fill="#292D32" d="M4.6,6.449 Q2.75,8.922 2.75,12 Q2.75,15.829 5.46,18.54 Q8.171,21.25 12,21.25 Q15.829,21.25 18.54,18.54 Q21.25,15.829 21.25,12 Q21.25,8.171 18.54,5.46 Q15.829,2.75 12,2.75 Q10.031,2.75 8.276,3.535 Q7.993,3.661 7.702,3.551 Q7.412,3.44 7.285,3.156 Q7.159,2.873 7.269,2.582 Q7.38,2.292 7.664,2.165 Q9.711,1.25 12,1.25 Q16.451,1.25 19.6,4.4 Q22.75,7.549 22.75,12 Q22.75,16.451 19.6,19.6 Q16.451,22.75 12,22.75 Q7.549,22.75 4.4,19.6 Q1.25,16.451 1.25,12 Q1.25,8.422 3.4,5.551 Q3.586,5.302 3.893,5.258 Q4.201,5.213 4.449,5.4 Q4.698,5.586 4.742,5.893 Q4.787,6.201 4.6,6.449 Z"/>
</svg>

