<svg xmlns="http://www.w3.org/2000/svg" width="24" height="24" viewBox="0 0 24 24">
  <defs/>
  <path fill="#292D32" d="M1.25,9 Q1.25,1.25 9,1.25 L15,1.25 Q22.75,1.25 22.75,9 L22.75,15 Q22.75,15.484 22.727,15.738 Q22.699,16.047 22.46,16.246 Q22.221,16.445 21.912,16.417 Q21.555,16.384 21.356,16.086 Q21.337,16.058 21.31,16.03 Q21.267,15.988 21.228,15.935 Q20.144,14.75 18.5,14.75 Q16.914,14.75 15.807,15.884 Q14.75,16.967 14.75,18.5 Q14.75,19.533 15.292,20.433 Q15.558,20.88 15.927,21.213 Q15.987,21.256 16.04,21.31 Q16.058,21.328 16.123,21.381 Q16.14,21.396 16.15,21.404 Q16.389,21.603 16.417,21.912 Q16.445,22.221 16.246,22.46 Q16.048,22.697 15.741,22.727 Q15.496,22.75 15,22.75 L9,22.75 Q1.25,22.75 1.25,15 L1.25,13.03 Q1.25,12.719 1.47,12.5 Q1.689,12.28 2,12.28 Q2.311,12.28 2.53,12.5 Q2.75,12.719 2.75,13.03 L2.75,15 Q2.75,21.25 9,21.25 L14.033,21.25 Q14.02,21.229 14.008,21.207 Q13.25,19.951 13.25,18.5 Q13.25,16.357 14.733,14.836 Q16.282,13.25 18.5,13.25 Q20.05,13.25 21.25,14.006 L21.25,9 Q21.25,5.561 19.845,4.155 Q18.439,2.75 15,2.75 L9,2.75 Q2.75,2.75 2.75,9 Q2.75,9.311 2.53,9.53 Q2.311,9.75 2,9.75 Q1.689,9.75 1.47,9.53 Q1.25,9.311 1.25,9 Z M21.248,15.957 Q21.263,15.974 21.28,15.99 Q21.266,15.976 21.253,15.962 Q21.25,15.959 21.248,15.957 Z"/>
  <path fill="#292D32" d="M2.52,6.36 L21.48,6.36 Q21.79,6.36 22.01,6.58 Q22.23,6.799 22.23,7.11 Q22.23,7.421 22.01,7.64 Q21.79,7.86 21.48,7.86 L2.52,7.86 Q2.209,7.86 1.989,7.64 Q1.77,7.421 1.77,7.11 Q1.77,6.799 1.989,6.58 Q2.209,6.36 2.52,6.36 Z"/>
  <path fill="#292D32" d="M9.27,2.11 L9.27,6.97 Q9.27,7.281 9.05,7.5 Q8.83,7.72 8.52,7.72 Q8.209,7.72 7.989,7.5 Q7.77,7.281 7.77,6.97 L7.77,2.11 Q7.77,1.799 7.989,1.58 Q8.209,1.36 8.52,1.36 Q8.83,1.36 9.05,1.58 Q9.27,1.799 9.27,2.11 Z"/>
  <path fill="#292D32" d="M16.23,2.11 L16.23,6.52 Q16.23,6.831 16.011,7.05 Q15.791,7.27 15.48,7.27 Q15.17,7.27 14.95,7.05 Q14.731,6.831 14.731,6.52 L14.731,2.11 Q14.731,1.799 14.95,1.58 Q15.17,1.36 15.48,1.36 Q15.791,1.36 16.011,1.58 Q16.23,1.799 16.23,2.11 Z"/>
  <path fill="#292D32" d="M23.75,18.5 Q23.75,20.85 21.969,22.44 Q20.45,23.75 18.5,23.75 Q16.606,23.75 15.171,22.557 Q13.25,20.998 13.25,18.5 Q13.25,15.959 15.226,14.401 Q16.655,13.25 18.5,13.25 Q20.998,13.25 22.562,15.177 Q23.75,16.606 23.75,18.5 Z M22.25,18.5 Q22.25,17.148 21.398,16.123 Q20.283,14.75 18.5,14.75 Q17.184,14.75 16.154,15.579 Q14.75,16.686 14.75,18.5 Q14.75,20.283 16.129,21.403 Q17.148,22.25 18.5,22.25 Q19.893,22.25 20.971,21.32 Q22.25,20.179 22.25,18.5 Z"/>
  <path fill="#292D32" d="M19.531,17.09 L19.531,18.78 Q19.531,19.205 19.167,19.423 L17.767,20.263 Q17.5,20.423 17.199,20.348 Q16.898,20.272 16.738,20.006 Q16.578,19.74 16.653,19.438 Q16.729,19.137 16.995,18.977 L18.031,18.355 L18.031,17.09 Q18.031,16.779 18.251,16.56 Q18.47,16.34 18.781,16.34 Q19.092,16.34 19.311,16.56 Q19.531,16.779 19.531,17.09 Z"/>
</svg>

