<svg xmlns="http://www.w3.org/2000/svg" width="24" height="24" viewBox="0 0 24 24">
  <defs/>
  <path fill="#292D32" opacity="0.4" d="M22,7.81 L22,15.7 C22,15.69 21.99,15.68 21.98,15.67 C21.94,15.61 21.89,15.55 21.84,15.5 C21.83,15.49 21.82,15.47 21.81,15.46 C21,14.56 19.81,14 18.5,14 C17.24,14 16.09,14.52 15.27,15.36 C14.48,16.17 14,17.28 14,18.5 C14,19.34 14.24,20.14 14.65,20.82 C14.87,21.19 15.15,21.53 15.47,21.81 C15.49,21.82 15.5,21.83 15.51,21.84 C15.56,21.89 15.61,21.93 15.67,21.98 C15.67,21.98 15.67,21.98 15.68,21.98 C15.69,21.99 15.7,22 15.71,22 L7.81,22 C4.17,22 2,19.83 2,16.19 L2,7.81 C2,7.3 2.04,6.81 2.13,6.36 C2.64,3.61 4.67,2.01 7.77,2 L16.23,2 C19.33,2.01 21.36,3.61 21.87,6.36 C21.96,6.81 22,7.3 22,7.81 Z"/>
  <path fill="#292D32" d="M22,7.81 L22,7.86 L2,7.86 L2,7.81 C2,7.3 2.04,6.81 2.13,6.36 L7.77,6.36 L7.77,2 L9.27,2 L9.27,6.36 L14.73,6.36 L14.73,2 L16.23,2 L16.23,6.36 L21.87,6.36 C21.96,6.81 22,7.3 22,7.81 Z"/>
  <path fill="#292D32" d="M22,15.7 C22,15.69 21.99,15.68 21.98,15.67 C21.94,15.61 21.89,15.55 21.84,15.5 C21.83,15.49 21.82,15.47 21.81,15.46 C21,14.56 19.81,14 18.5,14 C17.24,14 16.09,14.52 15.27,15.36 C14.48,16.17 14,17.28 14,18.5 C14,19.34 14.24,20.14 14.65,20.82 C14.87,21.19 15.15,21.53 15.47,21.81 C15.49,21.82 15.5,21.83 15.51,21.84 C15.56,21.89 15.61,21.93 15.67,21.98 C15.67,21.98 15.67,21.98 15.68,21.98 C15.69,21.99 15.7,22 15.71,22 C16.46,22.63 17.43,23 18.5,23 C20.14,23 21.57,22.12 22.35,20.82 C22.58,20.43 22.76,20 22.87,19.55 C22.96,19.21 23,18.86 23,18.5 C23,17.44 22.63,16.46 22,15.7 Z M20.18,19.23 L19.25,19.23 L19.25,20.2 C19.25,20.61 18.91,20.95 18.5,20.95 C18.09,20.95 17.75,20.61 17.75,20.2 L17.75,19.23 L16.82,19.23 C16.41,19.23 16.07,18.89 16.07,18.48 C16.07,18.07 16.41,17.73 16.82,17.73 L17.75,17.73 L17.75,16.84 C17.75,16.43 18.09,16.09 18.5,16.09 C18.91,16.09 19.25,16.43 19.25,16.84 L19.25,17.73 L20.18,17.73 C20.59,17.73 20.93,18.07 20.93,18.48 C20.93,18.89 20.6,19.23 20.18,19.23 Z"/>
</svg>

