<svg xmlns="http://www.w3.org/2000/svg" width="24" height="24" viewBox="0 0 24 24">
  <defs/>
  <path fill="#292D32" d="M2.75,12.15 L2.75,16.21 Q2.75,18.058 3.827,18.955 L4.436,19.39 Q4.689,19.57 4.74,19.877 Q4.791,20.183 4.61,20.436 Q4.43,20.689 4.123,20.74 Q3.817,20.791 3.564,20.61 L2.934,20.16 Q2.914,20.146 2.895,20.13 Q1.25,18.784 1.25,16.21 L1.25,12.15 Q1.25,11.839 1.47,11.62 Q1.689,11.4 2,11.4 Q2.311,11.4 2.53,11.62 Q2.75,11.839 2.75,12.15 Z"/>
  <path fill="#292D32" d="M15.88,7.556 Q15.909,6.654 15.883,6.392 Q15.712,4.33 12.52,4.33 L6.21,4.33 Q2.75,4.33 2.75,7.79 Q2.75,8.101 2.53,8.32 Q2.311,8.54 2,8.54 Q1.689,8.54 1.47,8.32 Q1.25,8.101 1.25,7.79 Q1.25,5.109 2.39,3.97 Q3.529,2.83 6.21,2.83 L12.52,2.83 Q17.092,2.83 17.377,6.248 Q17.411,6.606 17.38,7.604 Q17.37,7.914 17.143,8.127 Q16.917,8.34 16.606,8.33 Q16.296,8.32 16.083,8.093 Q15.871,7.867 15.88,7.556 Z"/>
  <path fill="#292D32" d="M17.49,10.95 L17.49,16.21 Q17.49,21.17 12.53,21.17 L7.26,21.17 Q6.949,21.17 6.729,20.95 Q6.51,20.731 6.51,20.42 Q6.51,20.109 6.729,19.89 Q6.949,19.67 7.26,19.67 L12.53,19.67 Q15.99,19.67 15.99,16.21 L15.99,10.95 Q15.99,10.639 16.209,10.42 Q16.429,10.2 16.74,10.2 Q17.05,10.2 17.27,10.42 Q17.49,10.639 17.49,10.95 Z"/>
  <path fill="#292D32" d="M22.75,6.74 L22.75,15.81 Q22.75,17.518 21.616,18.107 Q20.481,18.696 19.088,17.713 L16.31,15.764 Q16.055,15.586 16.001,15.28 Q15.948,14.974 16.126,14.719 Q16.305,14.465 16.611,14.411 Q16.917,14.358 17.171,14.536 L19.953,16.487 Q20.6,16.944 20.924,16.776 Q21.25,16.606 21.25,15.81 L21.25,6.74 Q21.25,6.429 21.47,6.21 Q21.69,5.99 22,5.99 Q22.311,5.99 22.531,6.21 Q22.75,6.429 22.75,6.74 Z"/>
  <path fill="#292D32" d="M22.55,2.72 L2.55,22.72 Q2.33,22.94 2.02,22.94 Q1.709,22.94 1.489,22.72 Q1.27,22.501 1.27,22.19 Q1.27,21.879 1.489,21.66 L21.489,1.66 Q21.709,1.44 22.019,1.44 Q22.33,1.44 22.55,1.66 Q22.77,1.879 22.77,2.19 Q22.77,2.501 22.55,2.72 Z"/>
</svg>

