<svg xmlns="http://www.w3.org/2000/svg" width="24" height="24" viewBox="0 0 24 24">
  <defs/>
  <path fill="#292D32" d="M2.17,8.58 Q2.17,6.343 4.11,5.203 L10.055,1.771 Q11.995,0.65 13.952,1.769 L19.895,5.2 Q21.84,6.323 21.84,8.58 L21.84,15.42 Q21.84,17.657 19.9,18.797 L13.955,22.229 Q12.015,23.35 10.058,22.231 L4.115,18.799 Q2.17,17.677 2.17,15.42 L2.17,12.66 Q2.17,12.349 2.39,12.13 Q2.609,11.91 2.92,11.91 Q3.231,11.91 3.45,12.13 Q3.67,12.349 3.67,12.66 L3.67,15.42 Q3.67,16.811 4.865,17.501 L10.802,20.929 Q12.011,21.62 13.205,20.931 L19.14,17.503 Q20.34,16.798 20.34,15.42 L20.34,8.58 Q20.34,7.189 19.145,6.499 L13.208,3.071 Q11.999,2.38 10.805,3.069 L4.87,6.497 Q3.67,7.202 3.67,8.58 Q3.67,8.891 3.45,9.11 Q3.231,9.33 2.92,9.33 Q2.609,9.33 2.39,9.11 Q2.17,8.891 2.17,8.58 Z"/>
  <path fill="#292D32" d="M9,10.8 Q9,9.212 10.086,8.584 Q11.173,7.956 12.546,8.751 L13.585,9.35 L14.625,9.95 Q15.998,10.745 15.997,12 Q15.997,13.255 14.626,14.049 L13.585,14.65 L12.545,15.25 Q11.173,16.044 10.086,15.415 Q9,14.787 9,13.2 L9,10.8 Z M10.5,13.2 Q10.5,13.922 10.837,14.117 Q11.172,14.311 11.795,13.95 L12.835,13.35 L13.874,12.751 Q14.497,12.39 14.497,12 Q14.497,11.61 13.875,11.25 L12.835,10.65 L11.794,10.049 Q11.172,9.689 10.837,9.883 Q10.5,10.078 10.5,10.8 L10.5,13.2 Z"/>
</svg>

