<svg xmlns="http://www.w3.org/2000/svg" width="24" height="24" viewBox="0 0 24 24">
  <defs/>
  <path fill="#292D32" d="M21.15,6.17 C20.74,5.95 19.88,5.72 18.71,6.54 L17.24,7.58 C17.13,4.47 15.78,3.25 12.5,3.25 L6.5,3.25 C3.08,3.25 1.75,4.58 1.75,8 L1.75,16 C1.75,18.3 3,20.75 6.5,20.75 L12.5,20.75 C15.78,20.75 17.13,19.53 17.24,16.42 L18.71,17.46 C19.33,17.9 19.87,18.04 20.3,18.04 C20.67,18.04 20.96,17.93 21.15,17.83 C21.56,17.62 22.25,17.05 22.25,15.62 L22.25,8.38 C22.25,6.95 21.56,6.38 21.15,6.17 Z M11,11.38 C9.97,11.38 9.12,10.54 9.12,9.5 C9.12,8.46 9.97,7.62 11,7.62 C12.03,7.62 12.88,8.46 12.88,9.5 C12.88,10.54 12.03,11.38 11,11.38 Z"/>
</svg>

