<svg xmlns="http://www.w3.org/2000/svg" width="24" height="24" viewBox="0 0 24 24">
  <defs/>
  <path fill="#292D32" d="M14.729,2 L9.27,2 L9.27,6.36 L14.729,6.36 L14.729,2 Z"/>
  <path fill="#292D32" d="M16.23,2 L16.23,6.36 L21.87,6.36 C21.36,3.61 19.331,2.01 16.23,2 Z"/>
  <path fill="#292D32" d="M2,7.859 L2,16.189 C2,19.829 4.17,21.999 7.81,21.999 L16.19,21.999 C19.83,21.999 22,19.829 22,16.189 L22,7.859 L2,7.859 Z M14.44,16.179 L12.36,17.379 C11.92,17.629 11.49,17.759 11.09,17.759 C10.79,17.759 10.52,17.689 10.27,17.549 C9.69,17.219 9.37,16.539 9.37,15.659 L9.37,13.259 C9.37,12.379 9.69,11.699 10.27,11.369 C10.85,11.029 11.59,11.089 12.36,11.539 L14.44,12.739 C15.21,13.179 15.63,13.799 15.63,14.469 C15.63,15.139 15.2,15.729 14.44,16.179 Z"/>
  <path fill="#292D32" d="M7.769,2 C4.669,2.01 2.639,3.61 2.129,6.36 L7.769,6.36 L7.769,2 Z"/>
</svg>

