<svg xmlns="http://www.w3.org/2000/svg" width="24" height="24" viewBox="0 0 24 24">
  <defs/>
  <path fill="#292D32" d="M15,22.75 L9,22.75 C3.57,22.75 1.25,20.43 1.25,15 L1.25,9 C1.25,3.57 3.57,1.25 9,1.25 L15,1.25 C20.43,1.25 22.75,3.57 22.75,9 L22.75,15 C22.75,15.25 22.75,15.5 22.73,15.74 C22.7,16.06 22.48,16.32 22.17,16.4 C21.86,16.48 21.54,16.36 21.36,16.09 C21.33,16.06 21.27,15.99 21.23,15.94 C20.51,15.17 19.53,14.75 18.5,14.75 C17.48,14.75 16.52,15.15 15.81,15.88 C15.13,16.58 14.75,17.51 14.75,18.5 C14.75,19.17 14.94,19.84 15.29,20.43 C15.47,20.73 15.69,21.01 15.94,21.23 C15.98,21.26 16.01,21.29 16.03,21.31 L16.11,21.38 C16.34,21.57 16.45,21.9 16.36,22.19 C16.27,22.48 16.03,22.7 15.73,22.73 C15.51,22.75 15.25,22.75 15,22.75 Z M9,2.75 C4.39,2.75 2.75,4.39 2.75,9 L2.75,15 C2.75,19.61 4.39,21.25 9,21.25 L14.03,21.25 C14.02,21.23 14.01,21.22 14,21.2 C13.51,20.38 13.24,19.44 13.24,18.5 C13.24,17.12 13.77,15.82 14.72,14.84 C15.7,13.83 17.08,13.25 18.49,13.25 C19.47,13.25 20.43,13.52 21.24,14.03 L21.24,9 C21.24,4.39 19.6,2.75 14.99,2.75 L9,2.75 Z"/>
  <path fill="#292D32" d="M21.48,7.86 L2.52,7.86 C2.11,7.86 1.77,7.52 1.77,7.11 C1.77,6.7 2.11,6.36 2.52,6.36 L21.48,6.36 C21.89,6.36 22.23,6.7 22.23,7.11 C22.23,7.52 21.899,7.86 21.48,7.86 Z"/>
  <path fill="#292D32" d="M8.52,7.72 C8.11,7.72 7.77,7.38 7.77,6.97 L7.77,2.11 C7.77,1.7 8.11,1.36 8.52,1.36 C8.93,1.36 9.27,1.7 9.27,2.11 L9.27,6.97 C9.27,7.38 8.93,7.72 8.52,7.72 Z"/>
  <path fill="#292D32" d="M15.48,7.27 C15.07,7.27 14.73,6.93 14.73,6.52 L14.73,2.11 C14.73,1.7 15.07,1.36 15.48,1.36 C15.89,1.36 16.23,1.7 16.23,2.11 L16.23,6.52 C16.23,6.94 15.9,7.27 15.48,7.27 Z"/>
  <path fill="#292D32" d="M18.5,23.75 C17.32,23.75 16.17,23.35 15.27,22.61 C15.24,22.59 15.21,22.57 15.19,22.55 C15.12,22.49 15.07,22.45 15.03,22.41 C15.01,22.4 15,22.39 14.99,22.37 C14.62,22.04 14.28,21.64 14.02,21.2 C13.53,20.38 13.26,19.44 13.26,18.5 C13.26,17.12 13.79,15.82 14.74,14.84 C15.72,13.83 17.1,13.25 18.51,13.25 C19.99,13.25 21.4,13.87 22.38,14.96 C22.39,14.97 22.41,14.99 22.42,15.01 C22.49,15.08 22.56,15.17 22.61,15.25 C23.33,16.12 23.76,17.29 23.76,18.5 C23.76,18.94 23.71,19.35 23.61,19.74 C23.49,20.24 23.29,20.73 23.01,21.2 C22.05,22.78 20.33,23.75 18.5,23.75 Z M16.09,21.35 C16.12,21.37 16.14,21.38 16.16,21.4 C16.82,21.95 17.62,22.24 18.5,22.24 C19.81,22.24 21.03,21.54 21.71,20.42 C21.91,20.09 22.05,19.73 22.14,19.36 C22.21,19.08 22.25,18.8 22.25,18.49 C22.25,17.63 21.95,16.8 21.4,16.14 L21.31,16.02 C21.28,15.99 21.25,15.96 21.23,15.92 C20.51,15.16 19.53,14.74 18.5,14.74 C17.48,14.74 16.52,15.14 15.81,15.87 C15.13,16.57 14.75,17.5 14.75,18.49 C14.75,19.16 14.94,19.83 15.29,20.42 C15.47,20.72 15.69,21 15.94,21.22 C15.98,21.25 16.01,21.28 16.03,21.3 L16.09,21.35 Z"/>
  <path fill="#292D32" d="M20.18,19.23 L16.82,19.23 C16.41,19.23 16.07,18.89 16.07,18.48 C16.07,18.07 16.41,17.73 16.82,17.73 L20.18,17.73 C20.59,17.73 20.93,18.07 20.93,18.48 C20.93,18.89 20.6,19.23 20.18,19.23 Z"/>
  <path fill="#292D32" d="M18.5,20.95 C18.09,20.95 17.75,20.61 17.75,20.2 L17.75,16.84 C17.75,16.43 18.09,16.09 18.5,16.09 C18.91,16.09 19.25,16.43 19.25,16.84 L19.25,20.2 C19.25,20.62 18.91,20.95 18.5,20.95 Z"/>
</svg>

