<svg xmlns="http://www.w3.org/2000/svg" width="24" height="24" viewBox="0 0 24 24">
  <defs/>
  <path fill="#292D32" d="M22.75,9 L22.75,15 Q22.75,15.476 22.727,15.721 Q22.697,16.03 22.458,16.228 Q22.218,16.426 21.909,16.397 Q21.596,16.367 21.398,16.123 Q20.283,14.75 18.5,14.75 Q17.184,14.75 16.16,15.574 Q14.75,16.686 14.75,18.5 Q14.75,20.283 16.123,21.398 Q16.364,21.594 16.396,21.903 Q16.428,22.212 16.232,22.453 Q16.034,22.697 15.721,22.727 Q15.476,22.75 15,22.75 L9,22.75 Q1.25,22.75 1.25,15 L1.25,9 Q1.25,1.25 9,1.25 L15,1.25 Q22.75,1.25 22.75,9 Z M21.25,9 Q21.25,5.561 19.845,4.155 Q18.439,2.75 15,2.75 L9,2.75 Q2.75,2.75 2.75,9 L2.75,15 Q2.75,21.25 9,21.25 L13.998,21.25 Q13.25,20.056 13.25,18.5 Q13.25,15.959 15.22,14.406 Q16.655,13.25 18.5,13.25 Q20.056,13.25 21.25,13.998 Z"/>
  <g opacity="0.4">
    <path fill="#292D32" d="M2.52,6.36 L21.48,6.36 Q21.79,6.36 22.01,6.58 Q22.23,6.799 22.23,7.11 Q22.23,7.421 22.01,7.64 Q21.79,7.86 21.48,7.86 L2.52,7.86 Q2.209,7.86 1.989,7.64 Q1.77,7.421 1.77,7.11 Q1.77,6.799 1.989,6.58 Q2.209,6.36 2.52,6.36 Z"/>
    <path fill="#292D32" d="M9.27,2.11 L9.27,6.97 Q9.27,7.281 9.05,7.5 Q8.83,7.72 8.52,7.72 Q8.209,7.72 7.989,7.5 Q7.77,7.281 7.77,6.97 L7.77,2.11 Q7.77,1.799 7.989,1.58 Q8.209,1.36 8.52,1.36 Q8.83,1.36 9.05,1.58 Q9.27,1.799 9.27,2.11 Z"/>
    <path fill="#292D32" d="M16.23,2.11 L16.23,6.52 Q16.23,6.831 16.011,7.05 Q15.791,7.27 15.48,7.27 Q15.17,7.27 14.95,7.05 Q14.731,6.831 14.731,6.52 L14.731,2.11 Q14.731,1.799 14.95,1.58 Q15.17,1.36 15.48,1.36 Q15.791,1.36 16.011,1.58 Q16.23,1.799 16.23,2.11 Z"/>
  </g>
  <path fill="#292D32" d="M23.75,18.5 Q23.75,20.85 21.969,22.44 Q20.45,23.75 18.5,23.75 Q16.606,23.75 15.171,22.557 Q13.25,20.998 13.25,18.5 Q13.25,15.959 15.226,14.401 Q16.655,13.25 18.5,13.25 Q20.998,13.25 22.562,15.177 Q23.75,16.606 23.75,18.5 Z M22.25,18.5 Q22.25,17.148 21.398,16.123 Q20.283,14.75 18.5,14.75 Q17.184,14.75 16.154,15.579 Q14.75,16.686 14.75,18.5 Q14.75,20.283 16.129,21.403 Q17.148,22.25 18.5,22.25 Q19.893,22.25 20.971,21.32 Q22.25,20.179 22.25,18.5 Z"/>
  <path fill="#292D32" opacity="0.4" d="M19.531,17.09 L19.531,18.78 Q19.531,19.204 19.167,19.423 L17.767,20.263 Q17.5,20.423 17.199,20.347 Q16.898,20.272 16.738,20.006 Q16.578,19.739 16.653,19.438 Q16.729,19.137 16.995,18.977 L18.031,18.355 L18.031,17.09 Q18.031,16.779 18.251,16.559 Q18.47,16.34 18.781,16.34 Q19.092,16.34 19.311,16.559 Q19.531,16.779 19.531,17.09 Z"/>
</svg>

