<svg xmlns="http://www.w3.org/2000/svg" width="24" height="24" viewBox="0 0 24 24">
  <defs/>
  <path fill="#292D32" opacity="0.4" d="M13,3.25 L7,3.25 C3.58,3.25 2.25,4.58 2.25,8 L2.25,16 C2.25,18.3 3.5,20.75 7,20.75 L13,20.75 C16.42,20.75 17.75,19.42 17.75,16 L17.75,8 C17.75,4.58 16.42,3.25 13,3.25 Z"/>
  <path fill="#292D32" d="M11.499,11.38 C12.537,11.38 13.379,10.538 13.379,9.5 C13.379,8.462 12.537,7.62 11.499,7.62 C10.461,7.62 9.619,8.462 9.619,9.5 C9.619,10.538 10.461,11.38 11.499,11.38 Z"/>
  <path fill="#292D32" d="M21.651,6.17 C21.241,5.96 20.381,5.72 19.21,6.54 L17.73,7.58 C17.741,7.72 17.75,7.85 17.75,8 L17.75,16 C17.75,16.15 17.73,16.28 17.73,16.42 L19.21,17.46 C19.831,17.9 20.37,18.04 20.8,18.04 C21.171,18.04 21.46,17.94 21.651,17.84 C22.061,17.63 22.75,17.06 22.75,15.63 L22.75,8.38 C22.75,6.95 22.061,6.38 21.651,6.17 Z"/>
</svg>

