<svg xmlns="http://www.w3.org/2000/svg" width="24" height="24" viewBox="0 0 24 24">
  <defs/>
  <path fill="#292D32" d="M21.98,15.67 C21.94,15.61 21.89,15.55 21.84,15.5 C21.03,14.57 19.83,14 18.5,14 C17.24,14 16.09,14.52 15.27,15.36 C14.48,16.17 14,17.28 14,18.5 C14,19.34 14.24,20.14 14.65,20.82 C14.88,21.2 15.17,21.55 15.51,21.84 C15.56,21.89 15.61,21.93 15.67,21.98 C15.67,21.98 15.67,21.98 15.68,21.98 C16.44,22.62 17.42,23 18.5,23 C20.14,23 21.57,22.12 22.35,20.82 C22.58,20.43 22.76,20 22.87,19.55 C22.96,19.21 23,18.86 23,18.5 C23,17.43 22.62,16.44 21.98,15.67 Z M20.23,20.21 C20.08,20.36 19.89,20.43 19.7,20.43 C19.51,20.43 19.32,20.36 19.17,20.21 L18.51,19.55 L17.82,20.24 C17.67,20.39 17.48,20.46 17.29,20.46 C17.1,20.46 16.91,20.39 16.76,20.24 C16.47,19.95 16.47,19.47 16.76,19.18 L17.45,18.49 L16.79,17.83 C16.5,17.54 16.5,17.06 16.79,16.77 C17.08,16.48 17.56,16.48 17.85,16.77 L18.51,17.43 L19.14,16.8 C19.43,16.51 19.91,16.51 20.2,16.8 C20.49,17.09 20.49,17.57 20.2,17.86 L19.57,18.49 L20.23,19.15 C20.53,19.44 20.53,19.91 20.23,20.21 Z"/>
  <path fill="#292D32" opacity="0.4" d="M22,7.81 L22,15.7 C22,15.69 21.99,15.68 21.98,15.67 C21.94,15.61 21.89,15.55 21.84,15.5 C21.83,15.49 21.82,15.47 21.81,15.46 C21,14.56 19.81,14 18.5,14 C17.24,14 16.09,14.52 15.27,15.36 C14.48,16.17 14,17.28 14,18.5 C14,19.34 14.24,20.14 14.65,20.82 C14.87,21.19 15.15,21.53 15.47,21.81 C15.49,21.82 15.5,21.83 15.51,21.84 C15.56,21.89 15.61,21.93 15.67,21.98 C15.67,21.98 15.67,21.98 15.68,21.98 C15.69,21.99 15.7,22 15.71,22 L7.81,22 C4.17,22 2,19.83 2,16.19 L2,7.81 C2,7.3 2.04,6.81 2.13,6.36 C2.64,3.61 4.67,2.01 7.77,2 L16.23,2 C19.33,2.01 21.36,3.61 21.87,6.36 C21.96,6.81 22,7.3 22,7.81 Z"/>
  <path fill="#292D32" d="M22,7.81 L22,7.86 L2,7.86 L2,7.81 C2,7.3 2.04,6.81 2.13,6.36 L7.77,6.36 L7.77,2 L9.27,2 L9.27,6.36 L14.73,6.36 L14.73,2 L16.23,2 L16.23,6.36 L21.87,6.36 C21.96,6.81 22,7.3 22,7.81 Z"/>
</svg>

