<svg xmlns="http://www.w3.org/2000/svg" width="24" height="24" viewBox="0 0 24 24">
  <defs/>
  <path fill="#292D32" opacity="0.4" d="M17.741,7.57 C17.75,7.64 17.75,7.72 17.741,7.79 C17.741,7.72 17.73,7.65 17.73,7.58 L17.741,7.57 Z"/>
  <path fill="#292D32" d="M17.279,6.56 L3.829,20.01 C2.429,19.12 1.879,17.53 1.879,16 L1.879,8 C1.879,4.58 3.209,3.25 6.629,3.25 L12.629,3.25 C15.519,3.25 16.909,4.2 17.279,6.56 Z"/>
  <path fill="#292D32" d="M21.4,2.229 C21.1,1.929 20.61,1.929 20.31,2.229 L1.85,20.689 C1.55,20.989 1.55,21.479 1.85,21.779 C2,21.919 2.2,21.999 2.39,21.999 C2.59,21.999 2.78,21.919 2.93,21.769 L21.4,3.309 C21.7,3.009 21.7,2.529 21.4,2.229 Z"/>
  <path fill="#292D32" d="M22.38,8.38 L22.38,15.62 C22.38,17.05 21.68,17.62 21.28,17.831 C21.09,17.93 20.79,18.041 20.42,18.041 C19.99,18.041 19.46,17.901 18.84,17.46 L17.36,16.421 C17.29,18.631 16.59,19.89 15,20.421 C14.36,20.651 13.57,20.75 12.62,20.75 L6.62,20.75 C6.38,20.75 6.15,20.741 5.91,20.71 L15,11.63 L20.65,5.98 C20.91,6 21.12,6.08 21.28,6.17 C21.68,6.38 22.38,6.95 22.38,8.38 Z"/>
</svg>

