<svg xmlns="http://www.w3.org/2000/svg" width="24" height="24" viewBox="0 0 24 24">
  <defs/>
  <path fill="#292D32" d="M15,22.75 L9,22.75 C3.57,22.75 1.25,20.43 1.25,15 L1.25,9 C1.25,3.57 3.57,1.25 9,1.25 L15,1.25 C20.43,1.25 22.75,3.57 22.75,9 L22.75,15 C22.75,20.43 20.43,22.75 15,22.75 Z M9,2.75 C4.39,2.75 2.75,4.39 2.75,9 L2.75,15 C2.75,19.61 4.39,21.25 9,21.25 L15,21.25 C19.61,21.25 21.25,19.61 21.25,15 L21.25,9 C21.25,4.39 19.61,2.75 15,2.75 L9,2.75 Z"/>
  <path fill="#292D32" d="M10.76,16.37 C10.34,16.37 9.95,16.27 9.6,16.07 C8.8,15.61 8.34,14.67 8.34,13.48 L8.34,10.52 C8.34,9.34 8.8,8.39 9.6,7.93 C10.4,7.47 11.44,7.54 12.47,8.14 L15.04,9.62 C16.06,10.21 16.65,11.08 16.65,12 C16.65,12.92 16.06,13.79 15.04,14.38 L12.47,15.86 C11.89,16.2 11.3,16.37 10.76,16.37 Z M10.77,9.13 C10.61,9.13 10.47,9.16 10.36,9.23 C10.04,9.42 9.85,9.89 9.85,10.52 L9.85,13.48 C9.85,14.11 10.03,14.58 10.36,14.77 C10.68,14.96 11.18,14.88 11.73,14.56 L14.3,13.08 C14.85,12.76 15.16,12.37 15.16,12 C15.16,11.63 14.85,11.23 14.3,10.92 L11.73,9.44 C11.37,9.23 11.04,9.13 10.77,9.13 Z"/>
</svg>

