<svg xmlns="http://www.w3.org/2000/svg" width="24" height="24" viewBox="0 0 24 24">
  <defs/>
  <path fill="#292D32" d="M4.3,19.92 C4.13,19.92 3.96,19.86 3.82,19.75 C2.81,18.92 2.25,17.59 2.25,16 L2.25,8 C2.25,4.58 3.58,3.25 7,3.25 L13,3.25 C15.04,3.25 17.18,3.63 17.64,6.48 C17.71,6.89 17.43,7.27 17.02,7.34 C16.61,7.41 16.23,7.13 16.16,6.72 C15.95,5.42 15.4,4.75 13,4.75 L7,4.75 C4.42,4.75 3.75,5.42 3.75,8 L3.75,16 C3.75,16.65 3.88,17.86 4.77,18.59 C5.09,18.85 5.14,19.33 4.87,19.65 C4.73,19.83 4.51,19.92 4.3,19.92 Z"/>
  <path fill="#292D32" d="M13,20.75 L8,20.75 C7.59,20.75 7.25,20.41 7.25,20 C7.25,19.59 7.59,19.25 8,19.25 L13,19.25 C15.58,19.25 16.25,18.58 16.25,16 L16.25,11 C16.25,10.59 16.59,10.25 17,10.25 C17.41,10.25 17.75,10.59 17.75,11 L17.75,16 C17.75,19.42 16.42,20.75 13,20.75 Z"/>
  <path fill="#292D32" d="M20.8,18.04 C20.37,18.04 19.84,17.9 19.21,17.46 L16.57,15.61 C16.23,15.37 16.15,14.9 16.39,14.57 C16.63,14.23 17.09,14.15 17.43,14.39 L20.07,16.24 C20.51,16.55 20.83,16.58 20.96,16.51 C21.09,16.44 21.25,16.17 21.25,15.63 L21.25,7 C21.25,6.59 21.59,6.25 22,6.25 C22.41,6.25 22.75,6.59 22.75,7 L22.75,15.62 C22.75,17.05 22.06,17.62 21.65,17.83 C21.46,17.93 21.17,18.04 20.8,18.04 Z"/>
  <path fill="#292D32" d="M2.021,22.94 C1.831,22.94 1.641,22.87 1.491,22.72 C1.201,22.43 1.201,21.95 1.491,21.66 L21.491,1.66 C21.781,1.37 22.261,1.37 22.551,1.66 C22.841,1.95 22.841,2.43 22.551,2.72 L2.551,22.72 C2.411,22.87 2.211,22.94 2.021,22.94 Z"/>
</svg>

