<svg xmlns="http://www.w3.org/2000/svg" width="24" height="24" viewBox="0 0 24 24">
  <defs/>
  <path fill="#292D32" d="M9,22.75 Q1.25,22.75 1.25,15 L1.25,9 Q1.25,1.25 9,1.25 L15,1.25 Q22.75,1.25 22.75,9 L22.75,15 Q22.75,22.75 15,22.75 Z M9,21.25 L15,21.25 Q18.439,21.25 19.845,19.845 Q21.25,18.439 21.25,15 L21.25,9 Q21.25,2.75 15,2.75 L9,2.75 Q2.75,2.75 2.75,9 L2.75,15 Q2.75,18.439 4.155,19.845 Q5.561,21.25 9,21.25 Z"/>
  <path fill="#292D32" d="M8.35,10.52 Q8.35,8.655 9.608,7.932 Q10.862,7.212 12.474,8.14 L13.755,8.881 L15.035,9.621 Q16.648,10.549 16.648,12 Q16.648,13.451 15.034,14.38 L13.755,15.119 L12.475,15.859 Q10.862,16.788 9.607,16.063 Q8.35,15.338 8.35,13.48 L8.35,10.52 Z M9.85,13.48 Q9.85,14.472 10.356,14.764 Q10.863,15.057 11.725,14.561 L13.005,13.821 L14.286,13.08 Q15.148,12.584 15.148,12 Q15.148,11.416 14.285,10.919 L13.005,10.179 L11.726,9.44 Q10.861,8.942 10.355,9.233 Q9.85,9.523 9.85,10.52 L9.85,13.48 Z"/>
</svg>

