<svg xmlns="http://www.w3.org/2000/svg" width="24" height="24" viewBox="0 0 24 24">
  <defs/>
  <path fill="#292D32" d="M6.36,7.781 L2,7.781 L2,11.251 L6.36,11.251 L6.36,7.781 Z"/>
  <path fill="#292D32" d="M6.358,6.289 L6.358,2.129 C4.078,2.549 2.588,4.019 2.148,6.279 L6.328,6.279 C6.338,6.279 6.348,6.289 6.358,6.289 Z"/>
  <path fill="#292D32" d="M6.36,16.31 L6.36,12.75 L2,12.75 L2,16.28 L6.24,16.28 C6.28,16.28 6.32,16.3 6.36,16.31 Z"/>
  <path fill="#292D32" d="M21.849,6.28 C21.419,4.09 20.019,2.65 17.859,2.18 L17.859,6.28 L21.849,6.28 Z"/>
  <path fill="#292D32" d="M16.359,11.25 L16.359,2.01 C16.309,2 16.249,2 16.189,2 L7.859,2 L7.859,11.25 L16.359,11.25 Z"/>
  <path fill="#292D32" d="M21.999,12.75 L17.859,12.75 L17.859,16.28 L21.999,16.28 L21.999,12.75 Z"/>
  <path fill="#292D32" d="M17.859,21.821 C19.999,21.351 21.399,19.931 21.839,17.781 L17.859,17.781 L17.859,21.821 Z"/>
  <path fill="#292D32" d="M6.24,17.782 L2.16,17.782 C2.62,20.002 4.1,21.452 6.36,21.872 L6.36,17.762 C6.32,17.772 6.28,17.782 6.24,17.782 Z"/>
  <path fill="#292D32" d="M21.999,7.781 L17.859,7.781 L17.859,11.251 L21.999,11.251 L21.999,7.781 Z"/>
  <path fill="#292D32" d="M7.859,12.75 L7.859,22 L16.189,22 C16.249,22 16.309,22 16.359,21.99 L16.359,12.75 L7.859,12.75 Z"/>
</svg>

