<svg xmlns="http://www.w3.org/2000/svg" width="24" height="24" viewBox="0 0 24 24">
  <defs/>
  <path fill="#292D32" d="M22.75,15 Q22.75,22.75 15,22.75 L9,22.75 Q1.25,22.75 1.25,15 L1.25,9 Q1.25,1.25 9,1.25 L15,1.25 Q22.75,1.25 22.75,9 Z M21.25,15 L21.25,9 Q21.25,2.75 15,2.75 L9,2.75 Q2.75,2.75 2.75,9 L2.75,15 Q2.75,18.439 4.155,19.845 Q5.561,21.25 9,21.25 L15,21.25 Q18.439,21.25 19.845,19.845 Q21.25,18.439 21.25,15 Z"/>
  <g opacity="0.4">
    <path fill="#292D32" d="M2.52,16.36 L21.479,16.36 Q21.79,16.36 22.01,16.58 Q22.229,16.8 22.229,17.11 Q22.229,17.421 22.01,17.641 Q21.79,17.86 21.479,17.86 L2.52,17.86 Q2.209,17.86 1.989,17.641 Q1.77,17.421 1.77,17.11 Q1.77,16.8 1.989,16.58 Q2.209,16.36 2.52,16.36 Z"/>
    <path fill="#292D32" d="M2.52,6.36 L21.479,6.36 Q21.79,6.36 22.01,6.58 Q22.229,6.8 22.229,7.11 Q22.229,7.421 22.01,7.641 Q21.79,7.86 21.479,7.86 L2.52,7.86 Q2.209,7.86 1.989,7.641 Q1.77,7.421 1.77,7.11 Q1.77,6.8 1.989,6.58 Q2.209,6.36 2.52,6.36 Z"/>
    <path fill="#292D32" d="M7.721,17.11 L7.721,21.46 Q7.721,21.771 7.501,21.991 Q7.281,22.21 6.971,22.21 Q6.66,22.21 6.44,21.991 Q6.221,21.771 6.221,21.46 L6.221,17.11 Q6.221,16.8 6.44,16.58 Q6.66,16.36 6.971,16.36 Q7.281,16.36 7.501,16.58 Q7.721,16.8 7.721,17.11 Z"/>
    <path fill="#292D32" d="M12.75,17.11 L12.75,21.97 Q12.75,22.281 12.53,22.501 Q12.311,22.72 12,22.72 Q11.689,22.72 11.47,22.501 Q11.25,22.281 11.25,21.97 L11.25,17.11 Q11.25,16.8 11.47,16.58 Q11.689,16.36 12,16.36 Q12.311,16.36 12.53,16.58 Q12.75,16.8 12.75,17.11 Z"/>
    <path fill="#292D32" d="M17.721,17.11 L17.721,21.52 Q17.721,21.831 17.501,22.051 Q17.281,22.27 16.971,22.27 Q16.66,22.27 16.44,22.051 Q16.221,21.831 16.221,21.52 L16.221,17.11 Q16.221,16.8 16.44,16.58 Q16.66,16.36 16.971,16.36 Q17.281,16.36 17.501,16.58 Q17.721,16.8 17.721,17.11 Z"/>
    <path fill="#292D32" d="M7.721,2.11 L7.721,6.46 Q7.721,6.771 7.501,6.991 Q7.281,7.21 6.971,7.21 Q6.66,7.21 6.44,6.991 Q6.221,6.771 6.221,6.46 L6.221,2.11 Q6.221,1.8 6.44,1.58 Q6.66,1.36 6.971,1.36 Q7.281,1.36 7.501,1.58 Q7.721,1.8 7.721,2.11 Z"/>
    <path fill="#292D32" d="M12.75,2.11 L12.75,6.97 Q12.75,7.281 12.53,7.501 Q12.311,7.72 12,7.72 Q11.689,7.72 11.47,7.501 Q11.25,7.281 11.25,6.97 L11.25,2.11 Q11.25,1.8 11.47,1.58 Q11.689,1.36 12,1.36 Q12.311,1.36 12.53,1.58 Q12.75,1.8 12.75,2.11 Z"/>
    <path fill="#292D32" d="M12.75,7.03 L12.75,18.03 Q12.75,18.341 12.53,18.561 Q12.311,18.78 12,18.78 Q11.689,18.78 11.47,18.561 Q11.25,18.341 11.25,18.03 L11.25,7.03 Q11.25,6.72 11.47,6.5 Q11.689,6.28 12,6.28 Q12.311,6.28 12.53,6.5 Q12.75,6.72 12.75,7.03 Z"/>
    <path fill="#292D32" d="M17.721,2.11 L17.721,6.52 Q17.721,6.831 17.501,7.051 Q17.281,7.27 16.971,7.27 Q16.66,7.27 16.44,7.051 Q16.221,6.831 16.221,6.52 L16.221,2.11 Q16.221,1.8 16.44,1.58 Q16.66,1.36 16.971,1.36 Q17.281,1.36 17.501,1.58 Q17.721,1.8 17.721,2.11 Z"/>
  </g>
</svg>

