<svg xmlns="http://www.w3.org/2000/svg" width="24" height="24" viewBox="0 0 24 24">
  <defs/>
  <path fill="#292D32" d="M12,22.75 C11.33,22.75 10.65,22.58 10.05,22.23 L4.11,18.8 C2.91,18.1 2.16,16.81 2.16,15.42 L2.16,8.58 C2.16,7.19 2.91,5.9 4.11,5.2 L10.05,1.77 C11.25,1.07 12.74,1.07 13.95,1.77 L19.89,5.2 C21.09,5.9 21.84,7.19 21.84,8.58 L21.84,15.42 C21.84,16.81 21.09,18.1 19.89,18.8 L13.95,22.23 C13.35,22.58 12.67,22.75 12,22.75 Z M12,2.75 C11.59,2.75 11.17,2.86 10.8,3.07 L4.86,6.5 C4.12,6.93 3.66,7.72 3.66,8.58 L3.66,15.42 C3.66,16.27 4.12,17.07 4.86,17.5 L10.8,20.93 C11.54,21.36 12.46,21.36 13.2,20.93 L19.14,17.5 C19.88,17.07 20.34,16.28 20.34,15.42 L20.34,8.58 C20.34,7.73 19.88,6.93 19.14,6.5 L13.2,3.07 C12.83,2.86 12.41,2.75 12,2.75 Z"/>
  <path fill="#292D32" d="M11.09,15.67 C10.73,15.67 10.39,15.58 10.08,15.41 C9.39,15.01 8.99,14.2 8.99,13.19 L8.99,10.79 C8.99,9.78 9.39,8.97 10.08,8.57 C10.77,8.17 11.67,8.23 12.54,8.74 L14.62,9.94 C15.49,10.44 16,11.19 16,11.99 C16,12.79 15.5,13.53 14.62,14.04 L12.54,15.24 C12.06,15.53 11.56,15.67 11.09,15.67 Z M11.1,9.82 C11,9.82 10.91,9.84 10.84,9.88 C10.63,10 10.5,10.34 10.5,10.8 L10.5,13.2 C10.5,13.65 10.63,13.99 10.84,14.12 C11.05,14.24 11.41,14.18 11.8,13.95 L13.88,12.75 C14.27,12.52 14.5,12.24 14.5,12 C14.5,11.76 14.27,11.48 13.88,11.25 L11.8,10.05 C11.54,9.9 11.29,9.82 11.1,9.82 Z"/>
</svg>

