<svg xmlns="http://www.w3.org/2000/svg" width="24" height="24" viewBox="0 0 24 24">
  <defs/>
  <path fill="#292D32" d="M22.75,15 Q22.75,22.75 15,22.75 L9,22.75 Q1.25,22.75 1.25,15 L1.25,9 Q1.25,1.25 9,1.25 L15,1.25 Q22.75,1.25 22.75,9 Z M21.25,15 L21.25,9 Q21.25,2.75 15,2.75 L9,2.75 Q2.75,2.75 2.75,9 L2.75,15 Q2.75,18.439 4.155,19.845 Q5.561,21.25 9,21.25 L15,21.25 Q18.439,21.25 19.845,19.845 Q21.25,18.439 21.25,15 Z"/>
  <path fill="#292D32" d="M2.52,16.36 L21.48,16.36 Q21.791,16.36 22.01,16.58 Q22.23,16.799 22.23,17.11 Q22.23,17.421 22.01,17.64 Q21.791,17.86 21.48,17.86 L2.52,17.86 Q2.209,17.86 1.99,17.64 Q1.77,17.421 1.77,17.11 Q1.77,16.799 1.99,16.58 Q2.209,16.36 2.52,16.36 Z"/>
  <path fill="#292D32" d="M2.52,6.36 L21.48,6.36 Q21.791,6.36 22.01,6.58 Q22.23,6.799 22.23,7.11 Q22.23,7.421 22.01,7.64 Q21.791,7.86 21.48,7.86 L2.52,7.86 Q2.209,7.86 1.99,7.64 Q1.77,7.421 1.77,7.11 Q1.77,6.799 1.99,6.58 Q2.209,6.36 2.52,6.36 Z"/>
  <path fill="#292D32" d="M7.72,17.11 L7.72,21.46 Q7.72,21.771 7.5,21.99 Q7.281,22.21 6.97,22.21 Q6.659,22.21 6.44,21.99 Q6.22,21.771 6.22,21.46 L6.22,17.11 Q6.22,16.799 6.44,16.58 Q6.659,16.36 6.97,16.36 Q7.281,16.36 7.5,16.58 Q7.72,16.799 7.72,17.11 Z"/>
  <path fill="#292D32" d="M12.75,17.11 L12.75,21.97 Q12.75,22.281 12.53,22.5 Q12.311,22.72 12,22.72 Q11.689,22.72 11.47,22.5 Q11.25,22.281 11.25,21.97 L11.25,17.11 Q11.25,16.799 11.47,16.58 Q11.689,16.36 12,16.36 Q12.311,16.36 12.53,16.58 Q12.75,16.799 12.75,17.11 Z"/>
  <path fill="#292D32" d="M17.72,17.11 L17.72,21.52 Q17.72,21.831 17.5,22.05 Q17.281,22.27 16.97,22.27 Q16.659,22.27 16.44,22.05 Q16.22,21.831 16.22,21.52 L16.22,17.11 Q16.22,16.799 16.44,16.58 Q16.659,16.36 16.97,16.36 Q17.281,16.36 17.5,16.58 Q17.72,16.799 17.72,17.11 Z"/>
  <path fill="#292D32" d="M7.72,2.11 L7.72,6.46 Q7.72,6.771 7.5,6.99 Q7.281,7.21 6.97,7.21 Q6.659,7.21 6.44,6.99 Q6.22,6.771 6.22,6.46 L6.22,2.11 Q6.22,1.799 6.44,1.58 Q6.659,1.36 6.97,1.36 Q7.281,1.36 7.5,1.58 Q7.72,1.799 7.72,2.11 Z"/>
  <path fill="#292D32" d="M12.75,2.11 L12.75,6.97 Q12.75,7.281 12.53,7.5 Q12.311,7.72 12,7.72 Q11.689,7.72 11.47,7.5 Q11.25,7.281 11.25,6.97 L11.25,2.11 Q11.25,1.799 11.47,1.58 Q11.689,1.36 12,1.36 Q12.311,1.36 12.53,1.58 Q12.75,1.799 12.75,2.11 Z"/>
  <path fill="#292D32" d="M12.75,7.03 L12.75,18.03 Q12.75,18.341 12.53,18.56 Q12.311,18.78 12,18.78 Q11.689,18.78 11.47,18.56 Q11.25,18.341 11.25,18.03 L11.25,7.03 Q11.25,6.719 11.47,6.5 Q11.689,6.28 12,6.28 Q12.311,6.28 12.53,6.5 Q12.75,6.719 12.75,7.03 Z"/>
  <path fill="#292D32" d="M17.72,2.11 L17.72,6.52 Q17.72,6.831 17.5,7.05 Q17.281,7.27 16.97,7.27 Q16.659,7.27 16.44,7.05 Q16.22,6.831 16.22,6.52 L16.22,2.11 Q16.22,1.799 16.44,1.58 Q16.659,1.36 16.97,1.36 Q17.281,1.36 17.5,1.58 Q17.72,1.799 17.72,2.11 Z"/>
</svg>

