<svg xmlns="http://www.w3.org/2000/svg" width="24" height="24" viewBox="0 0 24 24">
  <defs/>
  <path fill="#292D32" d="M1.25,9 Q1.25,1.25 9,1.25 L15,1.25 Q22.75,1.25 22.75,9 L22.75,15 Q22.75,15.484 22.727,15.738 Q22.699,16.047 22.46,16.246 Q22.221,16.445 21.912,16.417 Q21.555,16.384 21.356,16.086 Q21.337,16.058 21.31,16.03 Q21.267,15.988 21.228,15.935 Q20.144,14.75 18.5,14.75 Q16.914,14.75 15.807,15.884 Q14.75,16.967 14.75,18.5 Q14.75,19.533 15.292,20.433 Q15.558,20.88 15.927,21.213 Q15.987,21.256 16.04,21.31 Q16.058,21.328 16.123,21.381 Q16.14,21.396 16.15,21.404 Q16.389,21.603 16.417,21.912 Q16.445,22.221 16.246,22.46 Q16.048,22.697 15.741,22.727 Q15.496,22.75 15,22.75 L9,22.75 Q1.25,22.75 1.25,15 L1.25,13.03 Q1.25,12.719 1.47,12.5 Q1.689,12.28 2,12.28 Q2.311,12.28 2.53,12.5 Q2.75,12.719 2.75,13.03 L2.75,15 Q2.75,21.25 9,21.25 L14.033,21.25 Q14.02,21.229 14.008,21.207 Q13.25,19.951 13.25,18.5 Q13.25,16.357 14.733,14.836 Q16.282,13.25 18.5,13.25 Q20.05,13.25 21.25,14.006 L21.25,9 Q21.25,5.561 19.845,4.155 Q18.439,2.75 15,2.75 L9,2.75 Q2.75,2.75 2.75,9 Q2.75,9.311 2.53,9.53 Q2.311,9.75 2,9.75 Q1.689,9.75 1.47,9.53 Q1.25,9.311 1.25,9 Z M21.248,15.957 Q21.263,15.974 21.28,15.99 Q21.266,15.976 21.253,15.962 Q21.25,15.959 21.248,15.957 Z"/>
  <path fill="#292D32" d="M2.52,6.36 L21.479,6.36 Q21.79,6.36 22.01,6.58 Q22.229,6.799 22.229,7.11 Q22.229,7.421 22.01,7.64 Q21.79,7.86 21.479,7.86 L2.52,7.86 Q2.209,7.86 1.989,7.64 Q1.77,7.421 1.77,7.11 Q1.77,6.799 1.989,6.58 Q2.209,6.36 2.52,6.36 Z"/>
  <path fill="#292D32" d="M9.27,2.11 L9.27,6.97 Q9.27,7.281 9.05,7.5 Q8.83,7.72 8.52,7.72 Q8.209,7.72 7.989,7.5 Q7.77,7.281 7.77,6.97 L7.77,2.11 Q7.77,1.799 7.989,1.58 Q8.209,1.36 8.52,1.36 Q8.83,1.36 9.05,1.58 Q9.27,1.799 9.27,2.11 Z"/>
  <path fill="#292D32" d="M16.23,2.11 L16.23,6.52 Q16.23,6.831 16.011,7.05 Q15.791,7.27 15.48,7.27 Q15.17,7.27 14.95,7.05 Q14.731,6.831 14.731,6.52 L14.731,2.11 Q14.731,1.799 14.95,1.58 Q15.17,1.36 15.48,1.36 Q15.791,1.36 16.011,1.58 Q16.23,1.799 16.23,2.11 Z"/>
  <path fill="#292D32" d="M23.75,18.5 Q23.75,19.951 22.992,21.207 Q22.563,21.922 21.948,22.449 Q20.48,23.75 18.5,23.75 Q16.676,23.75 15.268,22.62 Q15.229,22.595 15.191,22.566 Q14.482,21.998 14.007,21.206 Q13.25,19.951 13.25,18.5 Q13.25,15.959 15.226,14.401 Q16.655,13.25 18.5,13.25 Q20.998,13.25 22.562,15.177 Q23.75,16.606 23.75,18.5 Z M22.25,18.5 Q22.25,17.148 21.398,16.123 Q20.283,14.75 18.5,14.75 Q17.184,14.75 16.154,15.579 Q14.75,16.686 14.75,18.5 Q14.75,19.533 15.293,20.434 Q15.607,20.958 16.062,21.34 Q16.107,21.368 16.149,21.403 Q17.168,22.25 18.5,22.25 Q19.912,22.25 20.972,21.311 Q21.402,20.942 21.708,20.433 Q22.25,19.533 22.25,18.5 Z"/>
  <path fill="#292D32" d="M17.28,17.97 L17.88,18.57 L19.751,16.84 Q19.979,16.629 20.289,16.641 Q20.6,16.653 20.811,16.881 Q21.022,17.109 21.009,17.419 Q20.997,17.73 20.769,17.941 L18.369,20.161 Q18.147,20.366 17.845,20.36 Q17.543,20.354 17.33,20.14 L16.22,19.03 Q16,18.811 16,18.5 Q16,18.189 16.22,17.97 Q16.439,17.75 16.75,17.75 Q17.061,17.75 17.28,17.97 Z"/>
</svg>

