<svg xmlns="http://www.w3.org/2000/svg" width="24" height="24" viewBox="0 0 24 24">
  <defs/>
  <path fill="#292D32" d="M6.75,9.86 L6.75,14.15 Q6.75,14.461 6.53,14.68 Q6.311,14.9 6,14.9 Q5.689,14.9 5.47,14.68 Q5.25,14.461 5.25,14.15 L5.25,9.86 Q5.25,9.549 5.47,9.33 Q5.689,9.11 6,9.11 Q6.311,9.11 6.53,9.33 Q6.75,9.549 6.75,9.86 Z"/>
  <path fill="#292D32" d="M9.75,8.43 L9.75,15.57 Q9.75,15.881 9.53,16.1 Q9.311,16.32 9,16.32 Q8.689,16.32 8.47,16.1 Q8.25,15.881 8.25,15.57 L8.25,8.43 Q8.25,8.119 8.47,7.9 Q8.689,7.68 9,7.68 Q9.311,7.68 9.53,7.9 Q9.75,8.119 9.75,8.43 Z"/>
  <path fill="#292D32" d="M12.75,14.99 L12.75,17 Q12.75,17.311 12.53,17.53 Q12.311,17.75 12,17.75 Q11.689,17.75 11.47,17.53 Q11.25,17.311 11.25,17 L11.25,14.99 Q11.25,14.679 11.47,14.46 Q11.689,14.24 12,14.24 Q12.311,14.24 12.53,14.46 Q12.75,14.679 12.75,14.99 Z"/>
  <path fill="#292D32" d="M12.75,7 L12.75,11.95 Q12.75,12.261 12.53,12.48 Q12.311,12.7 12,12.7 Q11.689,12.7 11.47,12.48 Q11.25,12.261 11.25,11.95 L11.25,7 Q11.25,6.689 11.47,6.47 Q11.689,6.25 12,6.25 Q12.311,6.25 12.53,6.47 Q12.75,6.689 12.75,7 Z"/>
  <path fill="#292D32" d="M15.75,8.43 L15.75,15.57 Q15.75,15.881 15.53,16.1 Q15.311,16.32 15,16.32 Q14.689,16.32 14.47,16.1 Q14.25,15.881 14.25,15.57 L14.25,8.43 Q14.25,8.119 14.47,7.9 Q14.689,7.68 15,7.68 Q15.311,7.68 15.53,7.9 Q15.75,8.119 15.75,8.43 Z"/>
  <path fill="#292D32" d="M18.75,9.86 L18.75,14.15 Q18.75,14.461 18.53,14.68 Q18.311,14.9 18,14.9 Q17.689,14.9 17.47,14.68 Q17.25,14.461 17.25,14.15 L17.25,9.86 Q17.25,9.549 17.47,9.33 Q17.689,9.11 18,9.11 Q18.311,9.11 18.53,9.33 Q18.75,9.549 18.75,9.86 Z"/>
  <path fill="#292D32" d="M2.75,12.99 L2.75,15 Q2.75,18.439 4.155,19.845 Q5.561,21.25 9,21.25 L15,21.25 Q18.439,21.25 19.845,19.845 Q21.25,18.439 21.25,15 L21.25,9 Q21.25,2.75 15,2.75 L9,2.75 Q2.75,2.75 2.75,9 Q2.75,9.311 2.53,9.53 Q2.311,9.75 2,9.75 Q1.689,9.75 1.47,9.53 Q1.25,9.311 1.25,9 Q1.25,1.25 9,1.25 L15,1.25 Q22.75,1.25 22.75,9 L22.75,15 Q22.75,22.75 15,22.75 L9,22.75 Q1.25,22.75 1.25,15 L1.25,12.99 Q1.25,12.679 1.47,12.46 Q1.689,12.24 2,12.24 Q2.311,12.24 2.53,12.46 Q2.75,12.679 2.75,12.99 Z"/>
</svg>

