<svg xmlns="http://www.w3.org/2000/svg" width="24" height="24" viewBox="0 0 24 24">
  <defs/>
  <path fill="#292D32" d="M12,2 C6.48,2 2,6.48 2,12 C2,17.52 6.48,22 12,22 C17.52,22 22,17.52 22,12 C22,6.48 17.52,2 12,2 Z M6.75,14.14 C6.75,14.55 6.41,14.89 6,14.89 C5.59,14.89 5.25,14.55 5.25,14.14 L5.25,9.86 C5.25,9.45 5.59,9.11 6,9.11 C6.41,9.11 6.75,9.45 6.75,9.86 L6.75,14.14 Z M9.75,15.57 C9.75,15.98 9.41,16.32 9,16.32 C8.59,16.32 8.25,15.98 8.25,15.57 L8.25,8.43 C8.25,8.02 8.59,7.68 9,7.68 C9.41,7.68 9.75,8.02 9.75,8.43 L9.75,15.57 Z M12.75,17 C12.75,17.41 12.41,17.75 12,17.75 C11.59,17.75 11.25,17.41 11.25,17 L11.25,7 C11.25,6.59 11.59,6.25 12,6.25 C12.41,6.25 12.75,6.59 12.75,7 L12.75,17 Z M15.75,15.57 C15.75,15.98 15.41,16.32 15,16.32 C14.59,16.32 14.25,15.98 14.25,15.57 L14.25,8.43 C14.25,8.02 14.59,7.68 15,7.68 C15.41,7.68 15.75,8.02 15.75,8.43 L15.75,15.57 Z M18.75,14.14 C18.75,14.55 18.41,14.89 18,14.89 C17.59,14.89 17.25,14.55 17.25,14.14 L17.25,9.86 C17.25,9.45 17.59,9.11 18,9.11 C18.41,9.11 18.75,9.45 18.75,9.86 L18.75,14.14 Z"/>
</svg>

