<svg xmlns="http://www.w3.org/2000/svg" width="24" height="24" viewBox="0 0 24 24">
  <defs/>
  <path fill="#292D32" d="M2.75,14.04 Q2.75,16.35 5.06,16.35 L6.52,16.35 Q7.319,16.35 7.998,16.774 L10.977,18.634 Q12.536,19.607 13.523,19.058 Q14.51,18.51 14.51,16.67 L14.51,7.32 Q14.51,5.482 13.52,4.932 Q12.531,4.383 10.978,5.356 L7.999,7.225 Q7.298,7.65 6.52,7.65 L5.06,7.65 Q2.75,7.65 2.75,9.96 Q2.75,10.271 2.53,10.491 Q2.311,10.71 2,10.71 Q1.689,10.71 1.47,10.491 Q1.25,10.271 1.25,9.96 Q1.25,6.15 5.06,6.15 L6.52,6.15 Q6.879,6.15 7.201,5.955 L10.182,4.085 Q12.485,2.642 14.248,3.621 Q16.01,4.599 16.01,7.32 L16.01,16.67 Q16.01,19.392 14.252,20.369 Q12.493,21.348 10.183,19.906 L7.202,18.046 Q6.889,17.85 6.52,17.85 L5.06,17.85 Q1.25,17.85 1.25,14.04 Q1.25,13.73 1.47,13.51 Q1.689,13.29 2,13.29 Q2.311,13.29 2.53,13.51 Q2.75,13.73 2.75,14.04 Z"/>
  <path fill="#292D32" d="M21.999,12.75 L21.859,12.75 Q21.549,12.75 21.329,12.53 Q21.109,12.311 21.109,12 Q21.109,11.689 21.329,11.47 Q21.549,11.25 21.859,11.25 L21.999,11.25 Q22.31,11.25 22.53,11.47 Q22.749,11.689 22.749,12 Q22.749,12.311 22.53,12.53 Q22.31,12.75 21.999,12.75 Z"/>
  <path fill="#292D32" d="M18,11.25 L19.8,11.25 Q20.111,11.25 20.33,11.47 Q20.55,11.689 20.55,12 Q20.55,12.311 20.33,12.53 Q20.111,12.75 19.8,12.75 L18,12.75 Q17.689,12.75 17.47,12.53 Q17.25,12.311 17.25,12 Q17.25,11.689 17.47,11.47 Q17.689,11.25 18,11.25 Z"/>
  <path fill="#292D32" d="M19.25,14 L19.25,10 Q19.25,9.689 19.47,9.47 Q19.689,9.25 20,9.25 Q20.311,9.25 20.53,9.47 Q20.75,9.689 20.75,10 L20.75,14 Q20.75,14.311 20.53,14.53 Q20.311,14.75 20,14.75 Q19.689,14.75 19.47,14.53 Q19.25,14.311 19.25,14 Z"/>
</svg>

