<svg xmlns="http://www.w3.org/2000/svg" width="22" height="18" viewBox="0 0 22 18">
  <defs/>
  <path fill="#292D32" d="M0.25,7.001 Q0.25,3.251 4,3.251 L5.43,3.251 Q5.775,3.251 6.1,3.06 L9.012,1.235 Q11.277,-0.185 13.013,0.774 Q14.75,1.734 14.75,4.411 L14.75,13.591 Q14.75,16.261 13.013,17.223 Q11.276,18.186 9.012,16.766 L6.1,14.942 Q5.775,14.751 5.43,14.751 L4,14.751 Q2.189,14.751 1.22,13.781 Q0.25,12.811 0.25,11.001 Z M1.75,7.001 L1.75,11.001 Q1.75,13.251 4,13.251 L5.43,13.251 Q6.191,13.251 6.873,13.656 L6.881,13.661 L9.808,15.495 Q11.323,16.445 12.286,15.911 Q13.25,15.377 13.25,13.591 L13.25,4.411 Q13.25,2.619 12.287,2.087 Q11.325,1.555 9.808,2.506 L6.881,4.341 L6.873,4.346 Q6.191,4.751 5.43,4.751 L4,4.751 Q2.811,4.751 2.28,5.281 Q1.75,5.811 1.75,7.001 Z"/>
  <g opacity="0.4">
    <path fill="#292D32" d="M20.469,11.491 L16.509,7.531 Q16.289,7.312 16.289,7.001 Q16.289,6.69 16.509,6.471 Q16.728,6.251 17.039,6.251 Q17.35,6.251 17.569,6.471 L21.529,10.431 Q21.749,10.65 21.749,10.961 Q21.749,11.272 21.529,11.491 Q21.31,11.711 20.999,11.711 Q20.688,11.711 20.469,11.491 Z"/>
    <path fill="#292D32" d="M21.49,7.571 L17.53,11.531 Q17.311,11.751 17,11.751 Q16.689,11.751 16.47,11.531 Q16.25,11.312 16.25,11.001 Q16.25,10.69 16.47,10.471 L20.43,6.511 Q20.649,6.291 20.96,6.291 Q21.271,6.291 21.49,6.511 Q21.71,6.73 21.71,7.041 Q21.71,7.352 21.49,7.571 Z"/>
  </g>
</svg>

