<svg xmlns="http://www.w3.org/2000/svg" width="24" height="24" viewBox="0 0 24 24">
  <defs/>
  <path fill="#292D32" d="M12.55,20.59 C11.76,20.59 10.89,20.31 10.02,19.76 L7.1,17.93 C6.9,17.81 6.67,17.74 6.44,17.74 L5,17.74 C2.58,17.74 1.25,16.41 1.25,13.99 L1.25,9.99 C1.25,7.57 2.58,6.24 5,6.24 L6.43,6.24 C6.66,6.24 6.89,6.17 7.09,6.05 L10.01,4.22 C11.47,3.31 12.89,3.14 14.01,3.76 C15.13,4.38 15.74,5.67 15.74,7.4 L15.74,16.57 C15.74,18.29 15.12,19.59 14.01,20.21 C13.57,20.47 13.07,20.59 12.55,20.59 Z M5,7.75 C3.42,7.75 2.75,8.42 2.75,10 L2.75,14 C2.75,15.58 3.42,16.25 5,16.25 L6.43,16.25 C6.95,16.25 7.45,16.39 7.89,16.67 L10.81,18.5 C11.77,19.1 12.68,19.26 13.29,18.92 C13.9,18.58 14.25,17.73 14.25,16.6 L14.25,7.41 C14.25,6.27 13.9,5.42 13.29,5.09 C12.68,4.75 11.77,4.9 10.81,5.51 L7.88,7.33 C7.45,7.61 6.94,7.75 6.43,7.75 L5,7.75 Z"/>
  <path fill="#292D32" d="M18,16.75 C17.84,16.75 17.69,16.7 17.55,16.6 C17.22,16.35 17.15,15.88 17.4,15.55 C18.97,13.46 18.97,10.54 17.4,8.45 C17.15,8.12 17.22,7.65 17.55,7.4 C17.88,7.15 18.35,7.22 18.6,7.55 C20.56,10.17 20.56,13.83 18.6,16.45 C18.45,16.65 18.23,16.75 18,16.75 Z"/>
  <path fill="#292D32" d="M19.83,19.25 C19.67,19.25 19.52,19.2 19.38,19.1 C19.05,18.85 18.98,18.38 19.23,18.05 C21.9,14.49 21.9,9.51 19.23,5.95 C18.98,5.62 19.05,5.15 19.38,4.9 C19.71,4.65 20.18,4.72 20.43,5.05 C23.5,9.14 23.5,14.86 20.43,18.95 C20.29,19.15 20.06,19.25 19.83,19.25 Z"/>
</svg>

