<svg xmlns="http://www.w3.org/2000/svg" width="24" height="24" viewBox="0 0 24 24">
  <defs/>
  <path fill="#292D32" d="M17.75,7.41 Q17.75,5.618 16.787,5.086 Q15.825,4.554 14.308,5.505 L11.388,7.335 Q11.381,7.34 11.373,7.345 Q10.691,7.75 9.93,7.75 L8.5,7.75 Q6.25,7.75 6.25,10 L6.25,14 Q6.25,16.25 8.5,16.25 L9.93,16.25 Q10.691,16.25 11.373,16.655 Q11.381,16.66 11.388,16.664 L14.308,18.494 Q15.823,19.444 16.786,18.91 Q17.75,18.376 17.75,16.59 L17.75,11.69 Q17.75,11.379 17.97,11.159 Q18.189,10.94 18.5,10.94 Q18.811,10.94 19.03,11.159 Q19.25,11.379 19.25,11.69 L19.25,16.59 Q19.25,19.26 17.513,20.222 Q15.776,21.185 13.512,19.765 L10.6,17.941 Q10.275,17.75 9.93,17.75 L8.5,17.75 Q6.689,17.75 5.72,16.78 Q4.75,15.81 4.75,14 L4.75,10 Q4.75,6.25 8.5,6.25 L9.93,6.25 Q10.275,6.25 10.6,6.059 L13.512,4.234 Q15.777,2.814 17.513,3.773 Q19.25,4.733 19.25,7.41 Q19.25,7.72 19.03,7.94 Q18.811,8.16 18.5,8.16 Q18.189,8.16 17.97,7.94 Q17.75,7.72 17.75,7.41 Z"/>
</svg>

