<svg xmlns="http://www.w3.org/2000/svg" width="24" height="24" viewBox="0 0 24 24">
  <defs/>
  <path fill="#292D32" d="M18,16.75 C17.84,16.75 17.69,16.7 17.55,16.6 C17.22,16.35 17.15,15.88 17.4,15.55 C18.66,13.87 18.93,11.64 18.12,9.71 C17.96,9.33 18.14,8.89 18.52,8.73 C18.9,8.57 19.34,8.75 19.5,9.13 C20.52,11.55 20.17,14.36 18.6,16.46 C18.45,16.65 18.23,16.75 18,16.75 Z"/>
  <path fill="#292D32" d="M19.828,19.249 C19.668,19.249 19.518,19.199 19.378,19.099 C19.048,18.849 18.978,18.379 19.228,18.049 C21.368,15.199 21.838,11.379 20.458,8.089 C20.298,7.709 20.478,7.269 20.858,7.109 C21.238,6.949 21.678,7.129 21.838,7.509 C23.428,11.289 22.888,15.669 20.428,18.949 C20.288,19.149 20.058,19.249 19.828,19.249 Z"/>
  <path fill="#292D32" d="M14.04,12.958 C14.671,12.328 15.751,12.778 15.751,13.668 L15.751,16.598 C15.751,18.318 15.13,19.608 14.021,20.228 C13.57,20.478 13.07,20.598 12.55,20.598 C11.751,20.598 10.89,20.328 10.011,19.778 L9.37,19.378 C8.83,19.038 8.74,18.278 9.19,17.828 L14.04,12.958 Z"/>
  <path fill="#292D32" d="M21.77,2.229 C21.47,1.929 20.98,1.929 20.68,2.229 L15.73,7.179 C15.67,5.579 15.07,4.379 14.01,3.789 C12.89,3.169 11.46,3.329 10,4.239 L7.09,6.059 C6.89,6.179 6.66,6.249 6.43,6.249 L5.5,6.249 L5,6.249 C2.58,6.249 1.25,7.579 1.25,9.999 L1.25,13.999 C1.25,16.419 2.58,17.749 5,17.749 L5.16,17.749 L2.22,20.689 C1.92,20.989 1.92,21.479 2.22,21.779 C2.38,21.919 2.57,21.999 2.77,21.999 C2.97,21.999 3.16,21.919 3.31,21.769 L21.77,3.309 C22.08,3.009 22.08,2.529 21.77,2.229 Z"/>
</svg>

