<svg xmlns="http://www.w3.org/2000/svg" width="24" height="24" viewBox="0 0 24 24">
  <defs/>
  <path fill="#292D32" d="M19.328,16.75 C19.168,16.75 19.018,16.7 18.878,16.6 C18.548,16.35 18.478,15.88 18.728,15.55 C20.298,13.46 20.298,10.54 18.728,8.45 C18.478,8.12 18.548,7.65 18.878,7.4 C19.208,7.15 19.678,7.22 19.928,7.55 C21.898,10.17 21.898,13.83 19.928,16.45 C19.788,16.65 19.558,16.75 19.328,16.75 Z"/>
  <path fill="#292D32" d="M15.348,3.782 C14.228,3.162 12.798,3.322 11.338,4.232 L8.418,6.062 C8.218,6.182 7.988,6.252 7.758,6.252 L6.828,6.252 L6.328,6.252 C3.908,6.252 2.578,7.582 2.578,10.002 L2.578,14.002 C2.578,16.422 3.908,17.752 6.328,17.752 L6.828,17.752 L7.758,17.752 C7.988,17.752 8.218,17.822 8.418,17.942 L11.338,19.772 C12.218,20.322 13.078,20.592 13.878,20.592 C14.398,20.592 14.898,20.472 15.348,20.222 C16.458,19.602 17.078,18.312 17.078,16.592 L17.078,7.412 C17.078,5.692 16.458,4.402 15.348,3.782 Z"/>
</svg>

