<svg xmlns="http://www.w3.org/2000/svg" width="24" height="24" viewBox="0 0 24 24">
  <defs/>
  <path fill="#292D32" d="M4.75,10 Q4.75,6.25 8.5,6.25 L9.93,6.25 Q10.275,6.25 10.6,6.059 L13.512,4.235 Q15.777,2.814 17.513,3.774 Q19.25,4.734 19.25,7.41 L19.25,16.59 Q19.25,19.26 17.513,20.222 Q15.776,21.185 13.512,19.766 L10.6,17.941 Q10.275,17.75 9.93,17.75 L8.5,17.75 Q4.75,17.75 4.75,14 Z M6.25,10 L6.25,14 Q6.25,16.25 8.5,16.25 L9.93,16.25 Q10.691,16.25 11.373,16.655 L11.381,16.66 L14.308,18.494 Q15.823,19.444 16.786,18.91 Q17.75,18.376 17.75,16.59 L17.75,7.41 Q17.75,5.618 16.787,5.087 Q15.825,4.555 14.308,5.505 L11.381,7.34 L11.373,7.345 Q10.691,7.75 9.93,7.75 L8.5,7.75 Q7.311,7.75 6.78,8.28 Q6.25,8.811 6.25,10 Z"/>
</svg>

