<svg xmlns="http://www.w3.org/2000/svg" width="24" height="24" viewBox="0 0 24 24">
  <defs/>
  <path fill="#292D32" d="M13.88,20.59 C13.09,20.59 12.22,20.31 11.35,19.76 L8.43,17.93 C8.23,17.81 8,17.74 7.77,17.74 L6.33,17.74 C3.91,17.74 2.58,16.41 2.58,13.99 L2.58,9.99 C2.58,7.57 3.91,6.24 6.33,6.24 L7.76,6.24 C7.99,6.24 8.22,6.17 8.42,6.05 L11.34,4.22 C12.8,3.31 14.22,3.14 15.34,3.76 C16.46,4.38 17.07,5.67 17.07,7.4 L17.07,16.57 C17.07,18.29 16.45,19.59 15.34,20.21 C14.9,20.47 14.41,20.59 13.88,20.59 Z M6.33,7.75 C4.75,7.75 4.08,8.42 4.08,10 L4.08,14 C4.08,15.58 4.75,16.25 6.33,16.25 L7.76,16.25 C8.28,16.25 8.78,16.39 9.22,16.67 L12.14,18.5 C13.11,19.1 14.01,19.26 14.62,18.92 C15.23,18.58 15.58,17.73 15.58,16.6 L15.58,7.41 C15.58,6.27 15.23,5.42 14.62,5.09 C14.01,4.75 13.11,4.9 12.14,5.51 L9.22,7.33 C8.78,7.61 8.28,7.75 7.76,7.75 L6.33,7.75 Z"/>
  <path fill="#292D32" d="M19.33,16.75 C19.17,16.75 19.02,16.7 18.88,16.6 C18.55,16.35 18.48,15.88 18.73,15.55 C20.3,13.46 20.3,10.54 18.73,8.45 C18.48,8.12 18.55,7.65 18.88,7.4 C19.21,7.15 19.68,7.22 19.93,7.55 C21.9,10.17 21.9,13.83 19.93,16.45 C19.79,16.65 19.56,16.75 19.33,16.75 Z"/>
</svg>

