<svg xmlns="http://www.w3.org/2000/svg" width="24" height="24" viewBox="0 0 24 24">
  <defs/>
  <path fill="#292D32" d="M18,16.75 C17.84,16.75 17.69,16.7 17.55,16.6 C17.22,16.35 17.15,15.88 17.4,15.55 C18.97,13.46 18.97,10.54 17.4,8.45 C17.15,8.12 17.22,7.65 17.55,7.4 C17.88,7.15 18.35,7.22 18.6,7.55 C20.56,10.17 20.56,13.83 18.6,16.45 C18.45,16.65 18.23,16.75 18,16.75 Z"/>
  <path fill="#292D32" d="M19.83,19.25 C19.67,19.25 19.52,19.2 19.38,19.1 C19.05,18.85 18.98,18.38 19.23,18.05 C21.9,14.49 21.9,9.51 19.23,5.95 C18.98,5.62 19.05,5.15 19.38,4.9 C19.71,4.65 20.18,4.72 20.43,5.05 C23.5,9.14 23.5,14.86 20.43,18.95 C20.29,19.15 20.06,19.25 19.83,19.25 Z"/>
  <path fill="#292D32" opacity="0.4" d="M15.75,7.41 L15.75,16.59 C15.75,18.31 15.13,19.6 14.02,20.22 C13.57,20.47 13.07,20.59 12.55,20.59 C11.75,20.59 10.89,20.32 10.01,19.77 L7.09,17.94 C6.89,17.82 6.66,17.75 6.43,17.75 L5.5,17.75 L5.5,6.25 L6.43,6.25 C6.66,6.25 6.89,6.18 7.09,6.06 L10.01,4.23 C11.47,3.32 12.9,3.16 14.02,3.78 C15.13,4.4 15.75,5.69 15.75,7.41 Z"/>
  <path fill="#292D32" d="M5.5,6.25 L5.5,17.75 L5,17.75 C2.58,17.75 1.25,16.42 1.25,14 L1.25,10 C1.25,7.58 2.58,6.25 5,6.25 L5.5,6.25 Z"/>
</svg>

