<svg xmlns="http://www.w3.org/2000/svg" width="24" height="24" viewBox="0 0 24 24">
  <defs/>
  <path fill="#292D32" d="M2.75,14 Q2.75,16.25 5,16.25 L6.43,16.25 Q7.191,16.25 7.873,16.655 Q7.881,16.66 7.888,16.664 L10.808,18.494 Q12.323,19.444 13.286,18.91 Q14.25,18.376 14.25,16.59 L14.25,7.41 Q14.25,5.618 13.287,5.086 Q12.325,4.554 10.808,5.505 L7.888,7.335 Q7.881,7.34 7.873,7.345 Q7.191,7.75 6.43,7.75 L5,7.75 Q2.75,7.75 2.75,10 Q2.75,10.31 2.53,10.53 Q2.311,10.75 2,10.75 Q1.689,10.75 1.47,10.53 Q1.25,10.31 1.25,10 Q1.25,6.25 5,6.25 L6.43,6.25 Q6.775,6.25 7.1,6.059 L10.012,4.234 Q12.277,2.814 14.013,3.773 Q15.75,4.733 15.75,7.41 L15.75,16.59 Q15.75,19.26 14.013,20.222 Q12.276,21.185 10.012,19.765 L7.1,17.941 Q6.775,17.75 6.43,17.75 L5,17.75 Q3.189,17.75 2.22,16.78 Q1.25,15.81 1.25,14 Q1.25,13.689 1.47,13.469 Q1.689,13.25 2,13.25 Q2.311,13.25 2.53,13.469 Q2.75,13.689 2.75,14 Z"/>
  <path fill="#292D32" d="M21.469,14.49 L17.509,10.53 Q17.289,10.311 17.289,10 Q17.289,9.689 17.509,9.47 Q17.728,9.25 18.039,9.25 Q18.35,9.25 18.569,9.47 L22.529,13.43 Q22.749,13.649 22.749,13.96 Q22.749,14.271 22.529,14.49 Q22.31,14.71 21.999,14.71 Q21.688,14.71 21.469,14.49 Z"/>
  <path fill="#292D32" d="M20.42,12.64 L18.53,14.53 Q18.311,14.75 18,14.75 Q17.689,14.75 17.47,14.53 Q17.25,14.311 17.25,14 Q17.25,13.689 17.47,13.47 L19.36,11.58 Q19.579,11.36 19.89,11.36 Q20.201,11.36 20.42,11.58 Q20.64,11.799 20.64,12.11 Q20.64,12.421 20.42,12.64 Z"/>
  <path fill="#292D32" d="M22.49,10.57 L21.95,11.11 Q21.731,11.33 21.42,11.33 Q21.109,11.33 20.89,11.11 Q20.67,10.891 20.67,10.58 Q20.67,10.269 20.89,10.05 L21.43,9.51 Q21.649,9.29 21.96,9.29 Q22.271,9.29 22.49,9.51 Q22.71,9.729 22.71,10.04 Q22.71,10.351 22.49,10.57 Z"/>
</svg>

