<svg xmlns="http://www.w3.org/2000/svg" width="24" height="24" viewBox="0 0 24 24">
  <defs/>
  <path fill="#292D32" d="M22,12.75 L18,12.75 C17.59,12.75 17.25,12.41 17.25,12 C17.25,11.59 17.59,11.25 18,11.25 L22,11.25 C22.41,11.25 22.75,11.59 22.75,12 C22.75,12.41 22.41,12.75 22,12.75 Z"/>
  <path fill="#292D32" opacity="0.4" d="M15.75,7.41 L15.75,16.59 C15.75,18.31 15.13,19.6 14.02,20.22 C13.57,20.47 13.07,20.59 12.55,20.59 C11.75,20.59 10.89,20.32 10.01,19.77 L7.09,17.94 C6.89,17.82 6.66,17.75 6.43,17.75 L5.5,17.75 L5.5,6.25 L6.43,6.25 C6.66,6.25 6.89,6.18 7.09,6.06 L10.01,4.23 C11.47,3.32 12.9,3.16 14.02,3.78 C15.13,4.4 15.75,5.69 15.75,7.41 Z"/>
  <path fill="#292D32" d="M5.5,6.25 L5.5,17.75 L5,17.75 C2.58,17.75 1.25,16.42 1.25,14 L1.25,10 C1.25,7.58 2.58,6.25 5,6.25 L5.5,6.25 Z"/>
</svg>

