<svg xmlns="http://www.w3.org/2000/svg" width="24" height="24" viewBox="0 0 24 24">
  <defs/>
  <path fill="#292D32" d="M12.76,20.75 C11.95,20.75 11.08,20.47 10.18,19.91 L7.2,18.05 C6.99,17.92 6.76,17.85 6.52,17.85 L5.06,17.85 C2.6,17.85 1.25,16.5 1.25,14.04 L1.25,9.96 C1.25,7.5 2.6,6.15 5.06,6.15 L6.52,6.15 C6.76,6.15 7,6.08 7.2,5.95 L10.18,4.09 C11.67,3.16 13.11,2.99 14.25,3.63 C15.39,4.26 16.01,5.57 16.01,7.33 L16.01,16.69 C16.01,18.44 15.38,19.76 14.25,20.39 C13.8,20.63 13.3,20.75 12.76,20.75 Z M5.06,7.65 C3.44,7.65 2.75,8.34 2.75,9.96 L2.75,14.04 C2.75,15.66 3.44,16.35 5.06,16.35 L6.52,16.35 C7.04,16.35 7.55,16.5 8,16.77 L10.98,18.63 C11.97,19.25 12.9,19.4 13.53,19.06 C14.16,18.71 14.52,17.84 14.52,16.68 L14.52,7.32 C14.52,6.15 14.16,5.28 13.53,4.94 C12.9,4.59 11.97,4.75 10.98,5.37 L8,7.22 C7.55,7.5 7.04,7.65 6.52,7.65 L5.06,7.65 Z"/>
  <path fill="#292D32" d="M22,12.75 L18,12.75 C17.59,12.75 17.25,12.41 17.25,12 C17.25,11.59 17.59,11.25 18,11.25 L22,11.25 C22.41,11.25 22.75,11.59 22.75,12 C22.75,12.41 22.41,12.75 22,12.75 Z"/>
  <path fill="#292D32" d="M20,14.75 C19.59,14.75 19.25,14.41 19.25,14 L19.25,10 C19.25,9.59 19.59,9.25 20,9.25 C20.41,9.25 20.75,9.59 20.75,10 L20.75,14 C20.75,14.41 20.41,14.75 20,14.75 Z"/>
</svg>

