<svg xmlns="http://www.w3.org/2000/svg" width="24" height="24" viewBox="0 0 24 24">
  <defs/>
  <path fill="#292D32" d="M16.05,20.59 C15.26,20.59 14.39,20.31 13.52,19.76 L10.6,17.93 C10.4,17.81 10.17,17.74 9.94,17.74 L8.5,17.74 C6.08,17.74 4.75,16.41 4.75,13.99 L4.75,9.99 C4.75,7.57 6.08,6.24 8.5,6.24 L9.93,6.24 C10.16,6.24 10.39,6.17 10.59,6.05 L13.51,4.22 C14.97,3.31 16.39,3.14 17.51,3.76 C18.63,4.38 19.24,5.67 19.24,7.4 L19.24,16.57 C19.24,18.29 18.62,19.59 17.51,20.21 C17.07,20.47 16.57,20.59 16.05,20.59 Z M8.5,7.75 C6.92,7.75 6.25,8.42 6.25,10 L6.25,14 C6.25,15.58 6.92,16.25 8.5,16.25 L9.93,16.25 C10.45,16.25 10.95,16.39 11.39,16.67 L14.31,18.5 C15.28,19.1 16.18,19.26 16.79,18.92 C17.4,18.58 17.75,17.73 17.75,16.6 L17.75,7.41 C17.75,6.27 17.4,5.42 16.79,5.09 C16.18,4.75 15.28,4.9 14.31,5.51 L11.39,7.34 C10.95,7.61 10.45,7.76 9.93,7.76 L8.5,7.76 L8.5,7.75 Z"/>
</svg>

