<svg xmlns="http://www.w3.org/2000/svg" width="24" height="24" viewBox="0 0 24 24">
  <defs/>
  <path fill="#292D32" d="M15.58,7.41 Q15.58,5.618 14.618,5.086 Q13.655,4.554 12.139,5.505 L9.218,7.335 Q9.211,7.34 9.203,7.345 Q8.521,7.75 7.76,7.75 L6.33,7.75 Q4.08,7.75 4.08,10 L4.08,14 Q4.08,16.25 6.33,16.25 L7.76,16.25 Q8.521,16.25 9.203,16.655 Q9.211,16.66 9.218,16.664 L12.138,18.494 Q13.653,19.444 14.617,18.91 Q15.58,18.376 15.58,16.59 L15.58,11.65 Q15.58,11.339 15.8,11.119 Q16.019,10.9 16.33,10.9 Q16.641,10.9 16.86,11.119 Q17.08,11.339 17.08,11.65 L17.08,16.59 Q17.08,19.26 15.344,20.222 Q13.606,21.185 11.342,19.765 L8.43,17.941 Q8.105,17.75 7.76,17.75 L6.33,17.75 Q4.519,17.75 3.55,16.78 Q2.58,15.81 2.58,14 L2.58,10 Q2.58,6.25 6.33,6.25 L7.76,6.25 Q8.105,6.25 8.43,6.059 L11.342,4.234 Q13.607,2.814 15.343,3.773 Q17.08,4.733 17.08,7.41 Q17.08,7.72 16.86,7.94 Q16.641,8.16 16.33,8.16 Q16.019,8.16 15.8,7.94 Q15.58,7.72 15.58,7.41 Z"/>
  <path fill="#292D32" d="M19.93,7.55 Q23.272,12 19.93,16.45 Q19.743,16.699 19.436,16.743 Q19.128,16.786 18.88,16.6 Q18.631,16.413 18.588,16.106 Q18.544,15.798 18.73,15.55 Q21.396,12 18.73,8.45 Q18.544,8.202 18.588,7.894 Q18.631,7.587 18.88,7.4 Q19.128,7.214 19.436,7.257 Q19.743,7.301 19.93,7.55 Z"/>
</svg>

