<svg xmlns="http://www.w3.org/2000/svg" width="24" height="24" viewBox="0 0 24 24">
  <defs/>
  <path fill="#292D32" opacity="0.4" d="M19.25,7.41 L19.25,16.59 C19.25,18.31 18.63,19.6 17.52,20.22 C17.07,20.47 16.57,20.59 16.05,20.59 C15.25,20.59 14.39,20.32 13.51,19.77 L10.59,17.94 C10.39,17.82 10.16,17.75 9.93,17.75 L9,17.75 L9,6.25 L9.93,6.25 C10.16,6.25 10.39,6.18 10.59,6.06 L13.51,4.23 C14.97,3.32 16.4,3.16 17.52,3.78 C18.63,4.4 19.25,5.69 19.25,7.41 Z"/>
  <path fill="#292D32" d="M9,6.25 L9,17.75 L8.5,17.75 C6.08,17.75 4.75,16.42 4.75,14 L4.75,10 C4.75,7.58 6.08,6.25 8.5,6.25 L9,6.25 Z"/>
</svg>

