<svg xmlns="http://www.w3.org/2000/svg" width="24" height="24" viewBox="0 0 24 24">
  <defs/>
  <path fill="#292D32" d="M1.25,10 Q1.25,6.25 5,6.25 L6.43,6.25 Q6.775,6.25 7.1,6.059 L10.012,4.235 Q12.277,2.814 14.013,3.774 Q15.75,4.734 15.75,7.41 L15.75,16.59 Q15.75,19.26 14.013,20.222 Q12.276,21.185 10.012,19.766 L7.1,17.941 Q6.775,17.75 6.43,17.75 L5,17.75 Q1.25,17.75 1.25,14 Z M2.75,10 L2.75,14 Q2.75,16.25 5,16.25 L6.43,16.25 Q7.191,16.25 7.873,16.655 L7.881,16.66 L10.808,18.494 Q12.323,19.444 13.286,18.91 Q14.25,18.376 14.25,16.59 L14.25,7.41 Q14.25,5.618 13.287,5.087 Q12.325,4.555 10.808,5.505 L7.881,7.34 L7.873,7.345 Q7.191,7.75 6.43,7.75 L5,7.75 Q3.811,7.75 3.28,8.28 Q2.75,8.811 2.75,10 Z"/>
  <path fill="#292D32" d="M18.6,7.55 Q21.942,12 18.6,16.45 Q18.413,16.699 18.106,16.743 Q17.798,16.786 17.55,16.6 Q17.301,16.413 17.257,16.106 Q17.214,15.798 17.4,15.55 Q20.066,12 17.4,8.45 Q17.214,8.202 17.257,7.894 Q17.301,7.587 17.55,7.4 Q17.798,7.214 18.106,7.257 Q18.413,7.301 18.6,7.55 Z"/>
  <path fill="#292D32" d="M20.43,5.05 Q22.747,8.137 22.747,12 Q22.747,15.863 20.43,18.95 Q20.243,19.199 19.936,19.243 Q19.628,19.286 19.38,19.1 Q19.131,18.913 19.087,18.606 Q19.044,18.298 19.23,18.05 Q21.248,15.362 21.248,12 Q21.247,8.638 19.23,5.95 Q19.044,5.702 19.087,5.394 Q19.131,5.087 19.38,4.9 Q19.628,4.714 19.936,4.757 Q20.243,4.801 20.43,5.05 Z"/>
</svg>

