<svg xmlns="http://www.w3.org/2000/svg" width="24" height="24" viewBox="0 0 24 24">
  <defs/>
  <path fill="#292D32" d="M17.52,3.782 C16.4,3.162 14.97,3.322 13.51,4.232 L10.59,6.062 C10.39,6.182 10.16,6.252 9.93,6.252 L9,6.252 L8.5,6.252 C6.08,6.252 4.75,7.582 4.75,10.002 L4.75,14.002 C4.75,16.422 6.08,17.752 8.5,17.752 L9,17.752 L9.93,17.752 C10.16,17.752 10.39,17.822 10.59,17.942 L13.51,19.772 C14.39,20.322 15.25,20.592 16.05,20.592 C16.57,20.592 17.07,20.472 17.52,20.222 C18.63,19.602 19.25,18.312 19.25,16.592 L19.25,7.412 C19.25,5.692 18.63,4.402 17.52,3.782 Z"/>
</svg>

