<svg xmlns="http://www.w3.org/2000/svg" width="24" height="24" viewBox="0 0 24 24">
  <defs/>
  <path fill="#292D32" d="M2.75,14 Q2.75,16.25 5,16.25 L7,16.25 Q7.311,16.25 7.53,16.47 Q7.75,16.689 7.75,17 Q7.75,17.311 7.53,17.53 Q7.311,17.75 7,17.75 L5,17.75 Q1.25,17.75 1.25,14 Q1.25,13.689 1.47,13.47 Q1.689,13.25 2,13.25 Q2.311,13.25 2.53,13.47 Q2.75,13.689 2.75,14 Z"/>
  <path fill="#292D32" d="M14.25,8.37 L14.25,7.41 Q14.25,5.618 13.287,5.086 Q12.325,4.554 10.808,5.505 L7.888,7.335 Q7.881,7.34 7.873,7.345 Q7.191,7.75 6.43,7.75 L5,7.75 Q2.75,7.75 2.75,10 Q2.75,10.31 2.53,10.53 Q2.311,10.75 2,10.75 Q1.689,10.75 1.47,10.53 Q1.25,10.31 1.25,10 Q1.25,6.25 5,6.25 L6.43,6.25 Q6.775,6.25 7.1,6.059 L10.012,4.234 Q12.277,2.814 14.013,3.773 Q15.75,4.733 15.75,7.41 L15.75,8.37 Q15.75,8.68 15.53,8.9 Q15.311,9.12 15,9.12 Q14.689,9.12 14.47,8.9 Q14.25,8.68 14.25,8.37 Z"/>
  <path fill="#292D32" d="M10.809,18.495 Q12.323,19.444 13.287,18.91 Q14.25,18.377 14.25,16.59 L14.25,12.95 Q14.25,12.64 14.47,12.42 Q14.69,12.2 15,12.2 Q15.311,12.2 15.531,12.42 Q15.75,12.64 15.75,12.95 L15.75,16.59 Q15.75,19.26 14.014,20.222 Q12.276,21.185 10.012,19.766 Q9.749,19.601 9.679,19.298 Q9.61,18.995 9.775,18.732 Q9.94,18.469 10.243,18.399 Q10.545,18.33 10.809,18.495 Z"/>
  <path fill="#292D32" d="M19.502,9.13 Q21.145,13.056 18.6,16.45 Q18.414,16.698 18.106,16.742 Q17.799,16.786 17.55,16.6 Q17.301,16.414 17.258,16.106 Q17.214,15.798 17.4,15.55 Q19.43,12.843 18.118,9.71 Q17.998,9.423 18.116,9.136 Q18.234,8.848 18.52,8.728 Q18.807,8.608 19.094,8.726 Q19.382,8.844 19.502,9.13 Z"/>
  <path fill="#292D32" d="M21.445,17.346 Q21.001,18.202 20.44,18.95 Q20.253,19.199 19.946,19.242 Q19.638,19.286 19.39,19.1 Q19.141,18.914 19.097,18.606 Q19.053,18.299 19.24,18.05 Q19.726,17.401 20.114,16.654 Q20.257,16.379 20.554,16.285 Q20.85,16.191 21.125,16.334 Q21.401,16.478 21.495,16.774 Q21.589,17.07 21.445,17.346 Z"/>
  <path fill="#292D32" d="M21.842,7.509 Q23.192,10.715 22.547,14.139 Q22.49,14.444 22.233,14.619 Q21.977,14.794 21.672,14.737 Q21.366,14.679 21.191,14.423 Q21.016,14.166 21.073,13.861 Q21.635,10.881 20.459,8.091 Q20.339,7.805 20.456,7.517 Q20.573,7.229 20.859,7.109 Q21.145,6.988 21.433,7.105 Q21.721,7.222 21.842,7.509 Z"/>
  <path fill="#292D32" d="M22.53,2.53 L2.53,22.53 Q2.311,22.75 2,22.75 Q1.689,22.75 1.47,22.53 Q1.25,22.311 1.25,22 Q1.25,21.689 1.47,21.47 L21.47,1.47 Q21.689,1.25 22,1.25 Q22.311,1.25 22.53,1.47 Q22.75,1.689 22.75,2 Q22.75,2.311 22.53,2.53 Z"/>
</svg>

