<svg xmlns="http://www.w3.org/2000/svg" width="24" height="24" viewBox="0 0 24 24">
  <defs/>
  <path fill="#292D32" d="M19.33,16.75 C19.17,16.75 19.02,16.7 18.88,16.6 C18.55,16.35 18.48,15.88 18.73,15.55 C20.3,13.46 20.3,10.54 18.73,8.45 C18.48,8.12 18.55,7.65 18.88,7.4 C19.21,7.15 19.68,7.22 19.93,7.55 C21.9,10.17 21.9,13.83 19.93,16.45 C19.79,16.65 19.56,16.75 19.33,16.75 Z"/>
  <path fill="#292D32" opacity="0.4" d="M17.08,7.41 L17.08,16.59 C17.08,18.31 16.46,19.6 15.35,20.22 C14.9,20.47 14.4,20.59 13.88,20.59 C13.08,20.59 12.22,20.32 11.34,19.77 L8.42,17.94 C8.22,17.82 7.99,17.75 7.76,17.75 L6.83,17.75 L6.83,6.25 L7.76,6.25 C7.99,6.25 8.22,6.18 8.42,6.06 L11.34,4.23 C12.8,3.32 14.23,3.16 15.35,3.78 C16.46,4.4 17.08,5.69 17.08,7.41 Z"/>
  <path fill="#292D32" d="M6.83,6.25 L6.83,17.75 L6.33,17.75 C3.91,17.75 2.58,16.42 2.58,14 L2.58,10 C2.58,7.58 3.91,6.25 6.33,6.25 L6.83,6.25 Z"/>
</svg>

