<svg xmlns="http://www.w3.org/2000/svg" width="24" height="24" viewBox="0 0 24 24">
  <defs/>
  <path fill="#292D32" d="M7,17.75 L5,17.75 C2.58,17.75 1.25,16.42 1.25,14 L1.25,10 C1.25,7.58 2.58,6.25 5,6.25 L6.43,6.25 C6.66,6.25 6.89,6.18 7.09,6.06 L10.01,4.23 C11.47,3.32 12.89,3.15 14.01,3.77 C15.13,4.39 15.74,5.68 15.74,7.41 L15.74,8.37 C15.74,8.78 15.4,9.12 14.99,9.12 C14.58,9.12 14.24,8.78 14.24,8.37 L14.24,7.41 C14.24,6.27 13.89,5.42 13.28,5.09 C12.67,4.75 11.77,4.9 10.8,5.51 L7.88,7.33 C7.45,7.61 6.94,7.75 6.43,7.75 L5,7.75 C3.42,7.75 2.75,8.42 2.75,10 L2.75,14 C2.75,15.58 3.42,16.25 5,16.25 L7,16.25 C7.41,16.25 7.75,16.59 7.75,17 C7.75,17.41 7.41,17.75 7,17.75 Z"/>
  <path fill="#292D32" d="M12.55,20.59 C11.76,20.59 10.89,20.31 10.02,19.76 C9.67,19.54 9.56,19.08 9.78,18.73 C10,18.38 10.46,18.27 10.81,18.49 C11.78,19.09 12.68,19.25 13.29,18.91 C13.9,18.57 14.25,17.72 14.25,16.59 L14.25,12.95 C14.25,12.54 14.59,12.2 15,12.2 C15.41,12.2 15.75,12.54 15.75,12.95 L15.75,16.59 C15.75,18.31 15.13,19.61 14.02,20.23 C13.57,20.47 13.07,20.59 12.55,20.59 Z"/>
  <path fill="#292D32" d="M18,16.75 C17.84,16.75 17.69,16.7 17.55,16.6 C17.22,16.35 17.15,15.88 17.4,15.55 C18.66,13.87 18.93,11.64 18.12,9.71 C17.96,9.33 18.14,8.89 18.52,8.73 C18.9,8.57 19.34,8.75 19.5,9.13 C20.52,11.55 20.17,14.36 18.6,16.46 C18.45,16.65 18.23,16.75 18,16.75 Z"/>
  <path fill="#292D32" d="M19.83,19.25 C19.67,19.25 19.52,19.2 19.38,19.1 C19.05,18.85 18.98,18.38 19.23,18.05 C21.37,15.2 21.84,11.38 20.46,8.09 C20.3,7.71 20.48,7.27 20.86,7.11 C21.25,6.95 21.68,7.13 21.84,7.51 C23.43,11.29 22.89,15.67 20.43,18.95 C20.29,19.15 20.06,19.25 19.83,19.25 Z"/>
  <path fill="#292D32" d="M1.999,22.75 C1.809,22.75 1.619,22.68 1.469,22.53 C1.179,22.24 1.179,21.76 1.469,21.47 L21.47,1.47 C21.759,1.18 22.239,1.18 22.529,1.47 C22.82,1.76 22.82,2.24 22.529,2.53 L2.529,22.53 C2.379,22.68 2.189,22.75 1.999,22.75 Z"/>
</svg>

