<svg xmlns="http://www.w3.org/2000/svg" width="24" height="24" viewBox="0 0 24 24">
  <defs/>
  <path fill="#292D32" d="M1.25,10.16 Q1.25,6.409 5,6.409 L6.43,6.409 Q6.775,6.409 7.1,6.219 L10.012,4.394 Q12.277,2.974 14.013,3.933 Q15.75,4.893 15.75,7.569 L15.75,16.75 Q15.75,19.42 14.013,20.382 Q12.276,21.345 10.012,19.925 L7.1,18.1 Q6.775,17.91 6.43,17.91 L5,17.91 Q1.25,17.91 1.25,14.16 Z M2.75,10.16 L2.75,14.16 Q2.75,16.41 5,16.41 L6.43,16.41 Q7.191,16.41 7.873,16.815 L7.881,16.819 L10.808,18.654 Q12.323,19.604 13.286,19.07 Q14.25,18.536 14.25,16.75 L14.25,7.569 Q14.25,5.778 13.287,5.246 Q12.325,4.714 10.808,5.665 L7.881,7.5 L7.873,7.504 Q7.191,7.909 6.43,7.909 L5,7.909 Q2.75,7.909 2.75,10.16 Z"/>
  <path fill="#292D32" d="M21.47,14.65 L17.51,10.69 Q17.29,10.47 17.29,10.159 Q17.29,9.849 17.51,9.629 Q17.729,9.409 18.04,9.409 Q18.351,9.409 18.57,9.629 L22.53,13.589 Q22.75,13.809 22.75,14.119 Q22.75,14.43 22.53,14.65 Q22.311,14.869 22,14.869 Q21.689,14.869 21.47,14.65 Z"/>
  <path fill="#292D32" d="M22.49,10.73 L18.53,14.69 Q18.311,14.909 18,14.91 Q17.689,14.91 17.47,14.69 Q17.25,14.47 17.25,14.16 Q17.25,13.849 17.47,13.629 L21.43,9.669 Q21.649,9.449 21.96,9.449 Q22.271,9.449 22.49,9.669 Q22.71,9.889 22.71,10.199 Q22.71,10.51 22.49,10.73 Z"/>
</svg>

