<svg xmlns="http://www.w3.org/2000/svg" width="24" height="24" viewBox="0 0 24 24">
  <defs/>
  <path fill="#292D32" d="M14.25,7.41 Q14.25,5.618 13.287,5.086 Q12.325,4.554 10.808,5.505 L7.888,7.335 Q7.881,7.34 7.873,7.345 Q7.191,7.75 6.43,7.75 L5,7.75 Q2.75,7.75 2.75,10 L2.75,14 Q2.75,16.25 5,16.25 L6.43,16.25 Q7.191,16.25 7.873,16.655 Q7.881,16.66 7.888,16.664 L10.808,18.494 Q12.323,19.444 13.286,18.91 Q14.25,18.376 14.25,16.59 L14.25,11.47 Q14.25,11.159 14.47,10.939 Q14.689,10.72 15,10.72 Q15.311,10.72 15.53,10.939 Q15.75,11.159 15.75,11.47 L15.75,16.59 Q15.75,19.26 14.013,20.222 Q12.276,21.185 10.012,19.765 L7.1,17.941 Q6.775,17.75 6.43,17.75 L5,17.75 Q3.189,17.75 2.22,16.78 Q1.25,15.81 1.25,14 L1.25,10 Q1.25,6.25 5,6.25 L6.43,6.25 Q6.775,6.25 7.1,6.059 L10.012,4.234 Q12.277,2.814 14.013,3.773 Q15.75,4.733 15.75,7.41 Q15.75,7.72 15.53,7.94 Q15.311,8.16 15,8.16 Q14.689,8.16 14.47,7.94 Q14.25,7.72 14.25,7.41 Z"/>
  <path fill="#292D32" d="M18.6,7.55 Q21.942,12 18.6,16.45 Q18.413,16.699 18.106,16.743 Q17.798,16.786 17.55,16.6 Q17.301,16.413 17.257,16.106 Q17.214,15.798 17.4,15.55 Q20.066,12 17.4,8.45 Q17.214,8.202 17.257,7.894 Q17.301,7.587 17.55,7.4 Q17.798,7.214 18.106,7.257 Q18.413,7.301 18.6,7.55 Z"/>
  <path fill="#292D32" d="M19.23,18.05 Q21.25,15.361 21.25,12 Q21.25,11.689 21.47,11.47 Q21.689,11.25 22,11.25 Q22.311,11.25 22.53,11.47 Q22.75,11.689 22.75,12 Q22.75,15.862 20.43,18.95 Q20.243,19.199 19.936,19.243 Q19.628,19.286 19.38,19.1 Q19.131,18.913 19.088,18.605 Q19.044,18.298 19.23,18.05 Z"/>
  <path fill="#292D32" d="M20.428,5.048 Q21.345,6.26 21.927,7.723 Q22.042,8.011 21.919,8.297 Q21.796,8.582 21.507,8.697 Q21.219,8.812 20.933,8.689 Q20.648,8.566 20.533,8.277 Q20.026,7.003 19.232,5.952 Q19.045,5.705 19.087,5.397 Q19.13,5.089 19.378,4.902 Q19.625,4.714 19.933,4.757 Q20.241,4.8 20.428,5.048 Z"/>
</svg>

