<svg xmlns="http://www.w3.org/2000/svg" width="24" height="24" viewBox="0 0 24 24">
  <defs/>
  <path fill="#292D32" d="M1.25,9.96 Q1.25,6.15 5.06,6.15 L6.52,6.15 Q6.879,6.15 7.201,5.955 L10.182,4.084 Q12.485,2.642 14.248,3.621 Q16.01,4.599 16.01,7.32 L16.01,16.67 Q16.01,19.392 14.252,20.369 Q12.493,21.348 10.183,19.906 L7.202,18.046 Q6.889,17.85 6.52,17.85 L5.06,17.85 Q3.219,17.85 2.235,16.865 Q1.25,15.881 1.25,14.04 Z M2.75,9.96 L2.75,14.04 Q2.75,15.259 3.295,15.805 Q3.841,16.35 5.06,16.35 L6.52,16.35 Q7.319,16.35 7.998,16.774 L10.977,18.634 Q12.536,19.607 13.523,19.058 Q14.51,18.509 14.51,16.67 L14.51,7.32 Q14.51,5.482 13.52,4.932 Q12.531,4.383 10.978,5.356 L7.999,7.225 Q7.298,7.65 6.52,7.65 L5.06,7.65 Q2.75,7.65 2.75,9.96 Z"/>
  <path fill="#292D32" d="M18,11.25 L22,11.25 Q22.311,11.25 22.53,11.47 Q22.75,11.689 22.75,12 Q22.75,12.311 22.53,12.53 Q22.311,12.75 22,12.75 L18,12.75 Q17.689,12.75 17.47,12.53 Q17.25,12.311 17.25,12 Q17.25,11.689 17.47,11.47 Q17.689,11.25 18,11.25 Z"/>
</svg>

