<svg xmlns="http://www.w3.org/2000/svg" width="22" height="22" viewBox="0 0 22 22">
  <defs/>
  <path fill="#292D32" d="M13.25,7.37 L13.25,6.41 Q13.25,4.618 12.287,4.086 Q11.325,3.554 9.808,4.505 L6.888,6.335 Q6.881,6.34 6.873,6.345 Q6.191,6.75 5.43,6.75 L4,6.75 Q1.75,6.75 1.75,9 L1.75,13 Q1.75,15.25 4,15.25 L6,15.25 Q6.311,15.25 6.53,15.469 Q6.75,15.689 6.75,16 Q6.75,16.31 6.53,16.53 Q6.311,16.75 6,16.75 L4,16.75 Q2.189,16.75 1.22,15.78 Q0.25,14.81 0.25,13 L0.25,9 Q0.25,5.25 4,5.25 L5.43,5.25 Q5.775,5.25 6.1,5.059 L9.012,3.234 Q11.277,1.814 13.013,2.773 Q14.75,3.733 14.75,6.41 L14.75,7.37 Q14.75,7.68 14.53,7.9 Q14.311,8.12 14,8.12 Q13.689,8.12 13.47,7.9 Q13.25,7.68 13.25,7.37 Z"/>
  <path fill="#292D32" opacity="0.4" d="M9.809,17.495 Q11.323,18.444 12.287,17.91 Q13.25,17.377 13.25,15.59 L13.25,11.95 Q13.25,11.64 13.47,11.42 Q13.69,11.2 14,11.2 Q14.311,11.2 14.531,11.42 Q14.75,11.64 14.75,11.95 L14.75,15.59 Q14.75,18.26 13.014,19.222 Q11.276,20.185 9.012,18.766 Q8.749,18.601 8.679,18.298 Q8.61,17.995 8.775,17.732 Q8.94,17.469 9.243,17.399 Q9.545,17.33 9.809,17.495 Z"/>
  <path fill="#292D32" opacity="0.4" d="M18.502,8.13 Q20.145,12.056 17.6,15.45 Q17.414,15.698 17.106,15.742 Q16.799,15.786 16.55,15.6 Q16.301,15.414 16.258,15.106 Q16.214,14.798 16.4,14.55 Q18.43,11.843 17.118,8.71 Q16.998,8.423 17.116,8.136 Q17.234,7.848 17.52,7.728 Q17.807,7.608 18.094,7.726 Q18.382,7.844 18.502,8.13 Z"/>
  <path fill="#292D32" opacity="0.4" d="M20.841,6.509 Q23.421,12.634 19.43,17.95 Q19.243,18.199 18.936,18.242 Q18.628,18.286 18.38,18.1 Q18.131,17.913 18.088,17.605 Q18.044,17.298 18.23,17.049 Q21.704,12.422 19.459,7.091 Q19.338,6.805 19.455,6.517 Q19.573,6.229 19.859,6.109 Q20.145,5.988 20.433,6.105 Q20.721,6.222 20.841,6.509 Z"/>
  <path fill="#292D32" d="M21.53,1.53 L1.53,21.53 Q1.311,21.75 1,21.75 Q0.689,21.75 0.47,21.53 Q0.25,21.311 0.25,21 Q0.25,20.689 0.47,20.47 L20.47,0.47 Q20.689,0.25 21,0.25 Q21.311,0.25 21.53,0.47 Q21.75,0.689 21.75,1 Q21.75,1.311 21.53,1.53 Z"/>
</svg>

