<svg xmlns="http://www.w3.org/2000/svg" width="24" height="24" viewBox="0 0 24 24">
  <defs/>
  <path fill="#292D32" d="M18,16.75 C17.84,16.75 17.69,16.7 17.55,16.6 C17.22,16.35 17.15,15.88 17.4,15.55 C18.97,13.46 18.97,10.54 17.4,8.45 C17.15,8.12 17.22,7.65 17.55,7.4 C17.88,7.15 18.35,7.22 18.6,7.55 C20.56,10.17 20.56,13.83 18.6,16.45 C18.45,16.65 18.23,16.75 18,16.75 Z"/>
  <path fill="#292D32" d="M19.828,19.25 C19.668,19.25 19.518,19.2 19.378,19.1 C19.048,18.85 18.978,18.38 19.228,18.05 C21.898,14.49 21.898,9.51 19.228,5.95 C18.978,5.62 19.048,5.15 19.378,4.9 C19.708,4.65 20.178,4.72 20.428,5.05 C23.498,9.14 23.498,14.86 20.428,18.95 C20.288,19.15 20.058,19.25 19.828,19.25 Z"/>
  <path fill="#292D32" d="M14.02,3.782 C12.9,3.162 11.47,3.322 10.01,4.232 L7.09,6.062 C6.89,6.182 6.66,6.252 6.43,6.252 L5.5,6.252 L5,6.252 C2.58,6.252 1.25,7.582 1.25,10.002 L1.25,14.002 C1.25,16.422 2.58,17.752 5,17.752 L5.5,17.752 L6.43,17.752 C6.66,17.752 6.89,17.822 7.09,17.942 L10.01,19.772 C10.89,20.322 11.75,20.592 12.55,20.592 C13.07,20.592 13.57,20.472 14.02,20.222 C15.13,19.602 15.75,18.312 15.75,16.592 L15.75,7.412 C15.75,5.692 15.13,4.402 14.02,3.782 Z"/>
</svg>

