<svg xmlns="http://www.w3.org/2000/svg" width="24" height="24" viewBox="0 0 24 24">
  <defs/>
  <path fill="#292D32" d="M16.253,9.156 L16.254,9.158 Q18.019,10.923 18.019,13.414 Q18.019,15.906 16.252,17.665 Q14.487,19.43 11.996,19.43 Q9.503,19.43 7.744,17.662 Q5.98,15.898 5.98,13.406 Q5.98,10.914 7.747,9.155 Q9.503,7.39 11.999,7.39 Q14.495,7.39 16.253,9.156 Z M15.184,10.222 Q13.868,8.9 11.999,8.9 Q10.131,8.9 8.812,10.225 Q7.489,11.541 7.489,13.406 Q7.489,15.272 8.814,16.598 Q10.131,17.92 11.996,17.92 Q13.862,17.92 15.187,16.595 Q16.51,15.279 16.51,13.414 Q16.51,11.548 15.186,10.224 Z"/>
  <path fill="#292D32" opacity="0.4" d="M12.534,13.944 L10.944,15.534 Q10.723,15.755 10.41,15.755 Q10.098,15.755 9.877,15.534 Q9.656,15.313 9.656,15 Q9.656,14.688 9.877,14.467 L11.467,12.877 Q11.688,12.656 12,12.656 Q12.313,12.656 12.534,12.877 Q12.755,13.098 12.755,13.41 Q12.755,13.723 12.534,13.944 Z"/>
  <path fill="#292D32" opacity="0.4" d="M19.609,5.818 Q20.382,6.598 19.618,7.413 Q19.61,7.422 19.601,7.431 Q18.817,8.215 17.998,7.447 Q17.171,6.672 17.964,5.827 Q18.298,5.47 18.791,5.47 Q19.277,5.47 19.609,5.818 Z M19.041,6.87 Q19.05,6.862 19.058,6.853 Q19.291,6.604 19.024,6.353 Q18.783,6.127 18.54,6.37 L19.041,6.87 Z M18.791,6.97 Q18.936,6.97 19.04,6.871 L18.524,6.387 Q18.304,6.622 18.528,6.858 Q18.636,6.97 18.791,6.97 Z"/>
  <path fill="#292D32" opacity="0.4" d="M6.029,19.397 Q6.802,20.178 6.038,20.993 Q5.701,21.352 5.205,21.346 Q4.752,21.34 4.418,21.027 Q4.409,21.019 4.401,21.01 Q3.616,20.226 4.384,19.407 Q4.718,19.05 5.211,19.05 Q5.697,19.05 6.029,19.397 Z M4.961,20.45 Q5.065,20.55 5.211,20.55 Q5.368,20.55 5.478,20.433 Q5.704,20.192 5.461,19.949 L4.961,20.45 Z M4.96,20.449 L5.444,19.933 Q5.353,19.848 5.224,19.846 Q5.059,19.844 4.944,19.967 Q4.724,20.201 4.948,20.437 Q4.954,20.443 4.96,20.449 Z"/>
  <path fill="#292D32" opacity="0.4" d="M22.417,12.607 Q23.19,13.388 22.427,14.203 Q22.418,14.212 22.41,14.22 Q21.625,15.005 20.806,14.237 Q20.447,13.9 20.453,13.404 Q20.459,12.951 20.772,12.617 Q21.107,12.26 21.599,12.26 Q22.085,12.26 22.417,12.607 Z M21.85,13.66 Q21.858,13.652 21.867,13.643 Q22.1,13.394 21.832,13.143 Q21.592,12.917 21.349,13.159 L21.85,13.66 Z M21.599,13.76 Q21.744,13.76 21.849,13.661 L21.332,13.177 Q21.113,13.411 21.336,13.647 Q21.445,13.76 21.599,13.76 Z"/>
  <path fill="#292D32" opacity="0.4" d="M3.209,12.607 Q3.982,13.388 3.218,14.203 Q2.443,15.029 1.598,14.237 Q1.589,14.229 1.58,14.22 Q0.796,13.436 1.563,12.617 Q1.572,12.608 1.58,12.599 Q1.92,12.26 2.394,12.26 Q2.876,12.26 3.209,12.607 Z M2.139,13.659 L2.382,13.401 L2.14,13.16 Q2.132,13.168 2.123,13.177 Q1.904,13.411 2.128,13.647 Q2.133,13.653 2.139,13.659 Z M2.4,13.401 L2.658,13.643 Q2.883,13.402 2.641,13.159 L2.4,13.401 Z M2.14,13.66 Q2.245,13.76 2.394,13.76 Q2.541,13.76 2.641,13.66 L2.391,13.41 L2.14,13.66 Z M2.39,13.392 L2.624,13.143 Q2.533,13.058 2.404,13.056 Q2.251,13.054 2.141,13.159 L2.39,13.392 Z"/>
  <path fill="#292D32" opacity="0.4" d="M19.609,19.397 Q20.382,20.178 19.618,20.993 Q19.61,21.002 19.601,21.01 Q18.817,21.795 17.998,21.027 Q17.638,20.69 17.645,20.194 Q17.65,19.741 17.964,19.407 Q17.972,19.398 17.98,19.389 Q18.32,19.05 18.795,19.05 Q19.277,19.05 19.609,19.397 Z M18.541,19.949 L19.058,20.433 Q19.291,20.184 19.024,19.933 Q18.783,19.707 18.541,19.949 Z M18.795,20.55 Q18.941,20.55 19.04,20.451 L18.524,19.967 Q18.304,20.201 18.528,20.437 Q18.636,20.55 18.795,20.55 Z"/>
  <path fill="#292D32" opacity="0.4" d="M6.029,5.818 Q6.802,6.598 6.038,7.413 Q5.701,7.773 5.205,7.766 Q4.752,7.761 4.418,7.447 Q4.409,7.439 4.401,7.431 Q3.616,6.646 4.384,5.827 Q4.718,5.47 5.211,5.47 Q5.697,5.47 6.029,5.818 Z M4.961,6.87 Q5.065,6.97 5.211,6.97 Q5.368,6.97 5.478,6.853 Q5.704,6.612 5.461,6.37 L4.961,6.87 Z M4.96,6.869 L5.444,6.353 Q5.195,6.12 4.944,6.387 Q4.724,6.622 4.948,6.858 Q4.954,6.864 4.96,6.869 Z"/>
  <path fill="#292D32" opacity="0.4" d="M12.81,2.99 Q13.595,3.774 12.827,4.593 Q12.052,5.42 11.207,4.627 Q10.38,3.852 11.173,3.007 Q11.51,2.648 12.009,2.654 Q12.48,2.66 12.81,2.99 Z M11.749,4.05 Q11.851,4.152 11.991,4.154 Q12.152,4.156 12.267,4.033 Q12.5,3.784 12.233,3.533 Q11.984,3.299 11.733,3.567 Q11.507,3.808 11.749,4.05 Z"/>
</svg>

