<svg xmlns="http://www.w3.org/2000/svg" width="24" height="24" viewBox="0 0 24 24">
  <defs/>
  <path fill="#292D32" d="M22.529,13.42 L21.079,11.97 L22.48,10.57 C22.77,10.28 22.77,9.8 22.48,9.51 C22.189,9.22 21.709,9.22 21.419,9.51 L20.02,10.91 L18.57,9.46 C18.279,9.17 17.799,9.17 17.509,9.46 C17.22,9.75 17.22,10.23 17.509,10.52 L18.959,11.97 L17.47,13.46 C17.18,13.75 17.18,14.23 17.47,14.52 C17.619,14.67 17.809,14.74 18,14.74 C18.189,14.74 18.38,14.67 18.529,14.52 L20.02,13.03 L21.47,14.48 C21.619,14.63 21.809,14.7 22,14.7 C22.189,14.7 22.38,14.63 22.529,14.48 C22.82,14.19 22.82,13.72 22.529,13.42 Z"/>
  <path fill="#292D32" opacity="0.4" d="M15.75,7.41 L15.75,16.59 C15.75,18.31 15.13,19.6 14.02,20.22 C13.57,20.47 13.07,20.59 12.55,20.59 C11.75,20.59 10.89,20.32 10.01,19.77 L7.09,17.94 C6.89,17.82 6.66,17.75 6.43,17.75 L5.5,17.75 L5.5,6.25 L6.43,6.25 C6.66,6.25 6.89,6.18 7.09,6.06 L10.01,4.23 C11.47,3.32 12.9,3.16 14.02,3.78 C15.13,4.4 15.75,5.69 15.75,7.41 Z"/>
  <path fill="#292D32" d="M5.5,6.25 L5.5,17.75 L5,17.75 C2.58,17.75 1.25,16.42 1.25,14 L1.25,10 C1.25,7.58 2.58,6.25 5,6.25 L5.5,6.25 Z"/>
</svg>

