<svg xmlns="http://www.w3.org/2000/svg" width="24" height="24" viewBox="0 0 24 24">
  <defs/>
  <path fill="#292D32" d="M18,16.75 C17.84,16.75 17.69,16.7 17.55,16.6 C17.22,16.35 17.15,15.88 17.4,15.55 C18.66,13.87 18.93,11.64 18.12,9.71 C17.96,9.33 18.14,8.89 18.52,8.73 C18.9,8.57 19.34,8.75 19.5,9.13 C20.52,11.55 20.17,14.36 18.6,16.46 C18.45,16.65 18.23,16.75 18,16.75 Z"/>
  <path fill="#292D32" d="M19.83,19.25 C19.67,19.25 19.52,19.2 19.38,19.1 C19.05,18.85 18.98,18.38 19.23,18.05 C21.37,15.2 21.84,11.38 20.46,8.09 C20.3,7.71 20.48,7.27 20.86,7.11 C21.24,6.95 21.68,7.13 21.84,7.51 C23.43,11.29 22.89,15.67 20.43,18.95 C20.29,19.15 20.06,19.25 19.83,19.25 Z"/>
  <path fill="#292D32" opacity="0.4" d="M14.04,12.96 C14.671,12.33 15.751,12.78 15.751,13.67 L15.751,16.6 C15.751,18.32 15.13,19.61 14.021,20.23 C13.57,20.48 13.07,20.6 12.55,20.6 C11.751,20.6 10.89,20.33 10.011,19.78 L9.37,19.38 C8.83,19.04 8.74,18.28 9.19,17.83 L14.04,12.96 Z"/>
  <path fill="#292D32" opacity="0.4" d="M14.02,3.78 C12.9,3.16 11.47,3.32 10.01,4.23 L7.09,6.06 C6.89,6.18 6.66,6.25 6.43,6.25 L5.5,6.25 L5,6.25 C2.58,6.25 1.25,7.58 1.25,10 L1.25,14 C1.25,16.42 2.58,17.75 5,17.75 L5.5,17.75 L6.25,17.75 L15.75,8.25 L15.75,7.41 C15.75,5.69 15.13,4.4 14.02,3.78 Z"/>
  <path fill="#292D32" d="M21.771,2.23 C21.471,1.93 20.981,1.93 20.681,2.23 L2.231,20.69 C1.931,20.99 1.931,21.48 2.231,21.78 C2.381,21.92 2.571,22 2.771,22 C2.971,22 3.161,21.92 3.311,21.77 L21.771,3.31 C22.081,3.01 22.081,2.53 21.771,2.23 Z"/>
</svg>

