<svg xmlns="http://www.w3.org/2000/svg" width="24" height="24" viewBox="0 0 24 24">
  <defs/>
  <path d="M12,22.749 C11.75,22.749 11.51,22.619 11.37,22.409 L2.33,8.409 C2.11,8.059 2.21,7.599 2.55,7.369 C2.9,7.149 3.36,7.239 3.59,7.589 L11.99,20.609 L20.36,7.589 C20.58,7.239 21.05,7.139 21.4,7.359 C21.75,7.579 21.85,8.049 21.63,8.399 L12.63,22.399 C12.49,22.619 12.26,22.749 12,22.749 Z"/>
  <path d="M3.92,4 L5.74,4 C5.91,4 6.06,4.08 6.16,4.22 L11.6,12.37 C11.8,12.67 12.23,12.67 12.43,12.37 L17.87,4.22 C17.96,4.08 18.12,4 18.29,4 L20.11,4 C20.51,4 20.74,4.44 20.53,4.77 L12.45,17.35 C12.25,17.66 11.81,17.66 11.61,17.35 L3.53,4.77 C3.28,4.44 3.52,4 3.92,4 Z"/>
  <path d="M9.42,3.5 C8.97,3.34 8.57,3.85 8.84,4.25 L11.589,8.38 C11.79,8.68 12.22,8.68 12.419,8.38 L15.169,4.26 C15.44,3.86 15.04,3.35 14.589,3.51 L13.21,4 L13.21,2.5 C13.21,2.22 12.989,2 12.71,2 L11.309,2 C11.03,2 10.809,2.22 10.809,2.5 L10.809,4 L9.42,3.5 Z"/>
</svg>

