<svg xmlns="http://www.w3.org/2000/svg" width="24" height="24" viewBox="0 0 24 24">
  <defs/>
  <path d="M12,22.75 C11.75,22.75 11.51,22.62 11.37,22.41 L2.33,8.41 C2.11,8.06 2.21,7.6 2.55,7.37 C2.9,7.15 3.36,7.24 3.59,7.59 L11.99,20.61 L20.36,7.59 C20.58,7.24 21.05,7.14 21.4,7.36 C21.75,7.58 21.85,8.05 21.63,8.4 L12.63,22.4 C12.49,22.62 12.26,22.75 12,22.75 Z"/>
  <path d="M12,18.75 C11.74,18.75 11.51,18.62 11.37,18.41 L2.37,4.41 C2.22,4.18 2.21,3.89 2.34,3.65 C2.47,3.41 2.72,3.26 3,3.26 L6,3.26 C6.25,3.26 6.48,3.38 6.62,3.59 L12,11.65 L17.38,3.59 C17.52,3.38 17.75,3.26 18,3.26 L21,3.26 C21.27,3.26 21.53,3.41 21.66,3.65 C21.79,3.89 21.78,4.18 21.63,4.41 L12.63,18.41 C12.49,18.62 12.26,18.75 12,18.75 Z M4.37,4.75 L12,16.61 L19.63,4.75 L18.4,4.75 L12.62,13.42 C12.34,13.84 11.65,13.84 11.37,13.42 L5.59,4.75 L4.37,4.75 Z"/>
  <path d="M12,9.75 C11.75,9.75 11.52,9.63 11.38,9.42 L7.38,3.42 C7.2,3.15 7.21,2.8 7.41,2.54 C7.61,2.29 7.95,2.19 8.25,2.3 L10.05,2.94 L10.05,2 C10.05,1.59 10.39,1.25 10.8,1.25 L13.2,1.25 C13.61,1.25 13.95,1.59 13.95,2 L13.95,2.94 L15.75,2.3 C16.05,2.19 16.39,2.29 16.59,2.54 C16.79,2.79 16.8,3.15 16.62,3.42 L12.62,9.42 C12.48,9.62 12.25,9.75 12,9.75 Z M9.88,4.47 L12,7.65 L14.12,4.47 L13.45,4.71 C13.22,4.79 12.97,4.76 12.77,4.62 C12.57,4.48 12.45,4.25 12.45,4.01 L12.45,2.76 L11.55,2.76 L11.55,4 C11.55,4.24 11.43,4.47 11.23,4.61 C11.03,4.75 10.77,4.78 10.55,4.7 L9.88,4.47 Z"/>
</svg>

