<svg xmlns="http://www.w3.org/2000/svg" width="24" height="24" viewBox="0 0 24 24">
  <defs/>
  <path fill="white" opacity="0.58" d="M24,0 L0,0 L0,24 L24,24 L24,0 Z"/>
  <path fill="#292D32" d="M12,22.75 C11.75,22.75 11.51,22.62 11.37,22.41 L2.33,8.41 C2.11,8.06 2.21,7.6 2.55,7.37 C2.9,7.15 3.36,7.24 3.59,7.59 L11.99,20.61 L20.36,7.59 C20.58,7.24 21.05,7.14 21.4,7.36 C21.75,7.58 21.85,8.05 21.63,8.4 L12.63,22.4 C12.49,22.62 12.26,22.75 12,22.75 Z"/>
  <path fill="#292D32" opacity="0.4" d="M3.92,4 L5.74,4 C5.91,4 6.06,4.08 6.16,4.22 L11.6,12.37 C11.8,12.67 12.23,12.67 12.43,12.37 L17.87,4.22 C17.96,4.08 18.12,4 18.29,4 L20.11,4 C20.51,4 20.74,4.44 20.53,4.77 L12.45,17.35 C12.25,17.66 11.81,17.66 11.61,17.35 L3.53,4.77 C3.28,4.44 3.52,4 3.92,4 Z"/>
  <path fill="#292D32" d="M8,3 L11.58,8.38 C11.78,8.68 12.21,8.68 12.41,8.38 L16,3 L13.2,4 L13.2,2 L10.8,2 L10.8,4 L8,3 Z"/>
</svg>

