<svg xmlns="http://www.w3.org/2000/svg" width="24" height="24" viewBox="0 0 24 24">
  <defs/>
  <path d="M21.631,8.406 L12.631,22.406 Q12.463,22.667 12.159,22.733 Q11.856,22.799 11.594,22.631 Q11.458,22.543 11.37,22.407 L2.33,8.407 Q2.161,8.146 2.227,7.842 Q2.292,7.538 2.553,7.37 Q2.814,7.201 3.118,7.267 Q3.422,7.332 3.59,7.593 L11.999,20.615 L20.369,7.594 Q20.537,7.333 20.841,7.267 Q21.144,7.201 21.406,7.369 Q21.667,7.537 21.733,7.841 Q21.799,8.144 21.631,8.406 Z"/>
  <path d="M3,3.25 L6,3.25 Q6.401,3.25 6.624,3.584 L12,11.648 L17.376,3.584 Q17.599,3.25 18,3.25 L21,3.25 Q21.311,3.25 21.53,3.47 Q21.75,3.689 21.75,4 Q21.75,4.22 21.631,4.406 L12.631,18.406 Q12.463,18.667 12.159,18.733 Q11.856,18.799 11.594,18.631 Q11.457,18.543 11.369,18.406 L2.369,4.406 Q2.201,4.144 2.267,3.841 Q2.333,3.537 2.594,3.369 Q2.78,3.25 3,3.25 Z M4.374,4.75 L12,16.613 L19.626,4.75 L18.401,4.75 L12.624,13.416 Q12.541,13.541 12.416,13.624 Q12.158,13.796 11.853,13.735 Q11.548,13.675 11.376,13.416 L5.599,4.75 L4.374,4.75 Z"/>
  <path d="M7.376,3.416 Q7.167,3.103 7.294,2.748 Q7.398,2.455 7.679,2.322 Q7.96,2.189 8.252,2.294 L10.05,2.936 L10.05,2 Q10.05,1.689 10.27,1.47 Q10.489,1.25 10.8,1.25 L13.2,1.25 Q13.511,1.25 13.73,1.47 Q13.95,1.689 13.95,2 L13.95,2.936 L15.748,2.294 Q16.103,2.167 16.416,2.376 Q16.675,2.548 16.735,2.853 Q16.796,3.158 16.624,3.416 L12.624,9.416 Q12.541,9.541 12.416,9.624 Q12.158,9.796 11.853,9.735 Q11.548,9.675 11.376,9.416 Z M9.88,4.468 L12,7.648 L14.12,4.468 L13.452,4.706 Q13.16,4.811 12.879,4.678 Q12.598,4.545 12.494,4.252 Q12.45,4.13 12.45,4 L12.45,2.75 L11.55,2.75 L11.55,4 Q11.55,4.311 11.33,4.53 Q11.111,4.75 10.8,4.75 Q10.67,4.75 10.548,4.706 L9.88,4.468 Z"/>
</svg>

