<svg xmlns="http://www.w3.org/2000/svg" width="24" height="24" viewBox="0 0 24 24">
  <defs/>
  <path fill="#292D32" d="M21.45,13.641 L21.45,14.641 C21.45,14.911 21.24,15.131 20.96,15.141 L19.5,15.141 C18.97,15.141 18.49,14.751 18.45,14.231 C18.42,13.921 18.54,13.631 18.74,13.431 C18.92,13.241 19.17,13.141 19.44,13.141 L20.95,13.141 C21.24,13.151 21.45,13.371 21.45,13.641 Z"/>
  <path fill="#292D32" d="M17.989,12.691 C17.489,13.181 17.249,13.911 17.449,14.671 C17.709,15.601 18.619,16.191 19.579,16.191 L20.449,16.191 C20.999,16.191 21.449,16.641 21.449,17.191 L21.449,17.381 C21.449,19.451 19.759,21.141 17.689,21.141 L6.209,21.141 C4.139,21.141 2.449,19.451 2.449,17.381 L2.449,10.651 C2.449,9.421 3.039,8.331 3.949,7.651 C4.579,7.171 5.359,6.891 6.209,6.891 L17.689,6.891 C19.759,6.891 21.449,8.581 21.449,10.651 L21.449,11.091 C21.449,11.641 20.999,12.091 20.449,12.091 L19.429,12.091 C18.869,12.091 18.359,12.311 17.989,12.691 Z"/>
  <path fill="#292D32" d="M16.199,4.82 C16.469,5.09 16.239,5.51 15.859,5.51 L8.179,5.5 C7.739,5.5 7.509,4.96 7.829,4.65 L9.449,3.02 C10.819,1.66 13.039,1.66 14.409,3.02 L16.159,4.79 C16.169,4.8 16.189,4.81 16.199,4.82 Z"/>
</svg>

