<svg xmlns="http://www.w3.org/2000/svg" width="24" height="24" viewBox="0 0 24 24">
  <defs/>
  <path fill="#292D32" d="M11.939,2.212 L9.529,7.822 L7.119,7.822 C6.719,7.822 6.329,7.852 5.949,7.932 L6.949,5.532 L6.989,5.442 L7.049,5.282 C7.079,5.212 7.099,5.152 7.129,5.102 C8.289,2.412 9.589,1.572 11.939,2.212 Z"/>
  <path fill="#292D32" d="M18.731,8.09 L18.711,8.08 C18.111,7.91 17.501,7.82 16.881,7.82 L10.621,7.82 L12.871,2.59 L12.901,2.52 C13.041,2.57 13.191,2.64 13.341,2.69 L15.551,3.62 C16.781,4.13 17.641,4.66 18.171,5.3 C18.261,5.42 18.341,5.53 18.421,5.66 C18.511,5.8 18.581,5.94 18.621,6.09 C18.661,6.18 18.691,6.26 18.711,6.35 C18.861,6.86 18.871,7.44 18.731,8.09 Z"/>
  <path fill="#292D32" d="M12.52,17.658 L12.77,17.658 C13.069,17.658 13.319,17.388 13.319,17.058 C13.319,16.638 13.2,16.578 12.94,16.478 L12.52,16.328 L12.52,17.658 Z"/>
  <path fill="#292D32" d="M18.288,9.52 C17.838,9.39 17.368,9.32 16.878,9.32 L7.118,9.32 C6.438,9.32 5.798,9.45 5.198,9.71 C3.458,10.46 2.238,12.19 2.238,14.2 L2.238,16.15 C2.238,16.39 2.258,16.62 2.288,16.86 C2.508,20.04 4.208,21.74 7.388,21.95 C7.618,21.98 7.848,22 8.098,22 L15.898,22 C19.598,22 21.548,20.24 21.738,16.74 C21.748,16.55 21.758,16.35 21.758,16.15 L21.758,14.2 C21.758,11.99 20.288,10.13 18.288,9.52 Z M13.278,15.5 C13.738,15.66 14.358,16 14.358,17.06 C14.358,17.97 13.648,18.7 12.768,18.7 L12.518,18.7 L12.518,18.92 C12.518,19.21 12.288,19.44 11.998,19.44 C11.708,19.44 11.478,19.21 11.478,18.92 L11.478,18.7 L11.388,18.7 C10.428,18.7 9.638,17.89 9.638,16.89 C9.638,16.6 9.868,16.37 10.158,16.37 C10.448,16.37 10.678,16.6 10.678,16.89 C10.678,17.31 10.998,17.66 11.388,17.66 L11.478,17.66 L11.478,15.97 L10.718,15.7 C10.258,15.54 9.638,15.2 9.638,14.14 C9.638,13.23 10.348,12.5 11.228,12.5 L11.478,12.5 L11.478,12.28 C11.478,11.99 11.708,11.76 11.998,11.76 C12.288,11.76 12.518,11.99 12.518,12.28 L12.518,12.5 L12.608,12.5 C13.568,12.5 14.358,13.31 14.358,14.31 C14.358,14.6 14.128,14.83 13.838,14.83 C13.548,14.83 13.318,14.6 13.318,14.31 C13.318,13.89 12.998,13.54 12.608,13.54 L12.518,13.54 L12.518,15.23 L13.278,15.5 Z"/>
  <path fill="#292D32" d="M10.68,14.139 C10.68,14.559 10.8,14.619 11.06,14.719 L11.48,14.869 L11.48,13.539 L11.23,13.539 C10.92,13.539 10.68,13.809 10.68,14.139 Z"/>
</svg>

