<svg xmlns="http://www.w3.org/2000/svg" width="24" height="24" viewBox="0 0 24 24">
  <defs/>
  <path fill="#292D32" d="M5,15 C2.79,15 1,16.79 1,19 C1,19.75 1.21,20.46 1.58,21.06 C2.27,22.22 3.54,23 5,23 C6.46,23 7.73,22.22 8.42,21.06 C8.79,20.46 9,19.75 9,19 C9,16.79 7.21,15 5,15 Z M6.97,18.67 L4.84,20.64 C4.7,20.77 4.51,20.84 4.33,20.84 C4.14,20.84 3.95,20.77 3.8,20.62 L2.81,19.63 C2.52,19.34 2.52,18.86 2.81,18.57 C3.1,18.28 3.58,18.28 3.87,18.57 L4.35,19.05 L5.95,17.57 C6.25,17.29 6.73,17.31 7.01,17.61 C7.29,17.91 7.27,18.39 6.97,18.67 Z"/>
  <path fill="#292D32" d="M17.75,7.05 C17.509,7.01 17.259,7 17,7 L6.999,7 C6.719,7 6.449,7.02 6.189,7.06 C6.329,6.78 6.529,6.52 6.769,6.28 L10.02,3.02 C11.389,1.66 13.61,1.66 14.979,3.02 L16.73,4.79 C17.369,5.42 17.709,6.22 17.75,7.05 Z"/>
  <path fill="#292D32" opacity="0.4" d="M22,12 L22,17 C22,20 20,22 17,22 L7.63,22 C7.94,21.74 8.21,21.42 8.42,21.06 C8.79,20.46 9,19.75 9,19 C9,16.79 7.21,15 5,15 C3.8,15 2.73,15.53 2,16.36 L2,12 C2,9.28 3.64,7.38 6.19,7.06 C6.45,7.02 6.72,7 7,7 L17,7 C17.26,7 17.51,7.01 17.75,7.05 C20.33,7.35 22,9.26 22,12 Z"/>
  <path fill="#292D32" d="M22,12.5 L19,12.5 C17.9,12.5 17,13.4 17,14.5 C17,15.6 17.9,16.5 19,16.5 L22,16.5"/>
</svg>

