<svg xmlns="http://www.w3.org/2000/svg" width="24" height="24" viewBox="0 0 24 24">
  <defs/>
  <path fill="#292D32" opacity="0.4" d="M22,12 L22,17 C22,20 20,22 17,22 L7.63,22 C7.94,21.74 8.21,21.42 8.42,21.06 C8.79,20.46 9,19.75 9,19 C9,16.79 7.21,15 5,15 C3.8,15 2.73,15.53 2,16.36 L2,12 C2,9.28 3.64,7.38 6.19,7.06 C6.45,7.02 6.72,7 7,7 L17,7 C17.26,7 17.51,7.01 17.75,7.05 C20.33,7.35 22,9.26 22,12 Z"/>
  <path fill="#292D32" d="M17.75,7.05 C17.509,7.01 17.259,7 17,7 L6.999,7 C6.719,7 6.449,7.02 6.189,7.06 C6.329,6.78 6.529,6.52 6.769,6.28 L10.02,3.02 C11.389,1.66 13.609,1.66 14.979,3.02 L16.729,4.79 C17.369,5.42 17.709,6.22 17.75,7.05 Z"/>
  <path fill="#292D32" d="M22,12.5 L19,12.5 C17.9,12.5 17,13.4 17,14.5 C17,15.6 17.9,16.5 19,16.5 L22,16.5"/>
  <path fill="#292D32" d="M5,15 C3.8,15 2.73,15.53 2,16.36 C1.38,17.07 1,17.99 1,19 C1,19.75 1.21,20.46 1.58,21.06 C2.27,22.22 3.54,23 5,23 C6.01,23 6.93,22.63 7.63,22 C7.94,21.74 8.21,21.42 8.42,21.06 C8.79,20.46 9,19.75 9,19 C9,16.79 7.21,15 5,15 Z M6.6,20.58 C6.45,20.73 6.26,20.8 6.07,20.8 C5.88,20.8 5.69,20.73 5.54,20.58 L5.01,20.05 L4.46,20.6 C4.31,20.75 4.12,20.82 3.93,20.82 C3.74,20.82 3.55,20.75 3.4,20.6 C3.11,20.31 3.11,19.83 3.4,19.54 L3.95,18.99 L3.42,18.46 C3.13,18.17 3.13,17.69 3.42,17.4 C3.71,17.11 4.19,17.11 4.48,17.4 L5.01,17.93 L5.51,17.43 C5.8,17.14 6.28,17.14 6.57,17.43 C6.86,17.72 6.86,18.2 6.57,18.49 L6.07,18.99 L6.6,19.52 C6.89,19.81 6.89,20.28 6.6,20.58 Z"/>
</svg>

