<svg xmlns="http://www.w3.org/2000/svg" width="24" height="24" viewBox="0 0 24 24">
  <defs/>
  <path fill="#292D32" d="M5,23.75 C3.34,23.75 1.78,22.87 0.94,21.44 C0.49,20.72 0.25,19.87 0.25,19 C0.25,16.38 2.38,14.25 5,14.25 C7.62,14.25 9.75,16.38 9.75,19 C9.75,19.87 9.51,20.72 9.06,21.45 C8.22,22.87 6.66,23.75 5,23.75 Z M5,15.75 C3.21,15.75 1.75,17.21 1.75,19 C1.75,19.59 1.91,20.17 2.22,20.67 C2.81,21.67 3.85,22.25 5,22.25 C6.15,22.25 7.19,21.66 7.78,20.68 C8.09,20.17 8.25,19.6 8.25,19 C8.25,17.21 6.79,15.75 5,15.75 Z"/>
  <path fill="#292D32" d="M4.429,20.74 C4.239,20.74 4.049,20.67 3.899,20.52 L2.909,19.53 C2.619,19.24 2.619,18.76 2.909,18.47 C3.199,18.18 3.679,18.18 3.969,18.47 L4.449,18.95 L6.049,17.47 C6.349,17.19 6.829,17.21 7.109,17.51 C7.389,17.81 7.369,18.29 7.069,18.57 L4.939,20.54 C4.789,20.67 4.609,20.74 4.429,20.74 Z"/>
  <path fill="#292D32" d="M6.19,7.81 C5.95,7.81 5.73,7.7 5.58,7.5 C5.41,7.27 5.39,6.97 5.52,6.72 C5.69,6.38 5.93,6.05 6.24,5.75 L9.49,2.49 C11.15,0.84 13.85,0.84 15.51,2.49 L17.26,4.27 C18,5 18.45,5.98 18.5,7.02 C18.51,7.25 18.42,7.47 18.25,7.62 C18.08,7.77 17.85,7.84 17.63,7.8 C17.43,7.77 17.22,7.76 17,7.76 L7,7.76 C6.76,7.76 6.53,7.78 6.3,7.81 C6.27,7.81 6.23,7.81 6.19,7.81 Z M7.86,6.25 L16.82,6.25 C16.69,5.91 16.48,5.6 16.2,5.32 L14.44,3.54 C13.37,2.48 11.62,2.48 10.54,3.54 L7.86,6.25 Z"/>
  <path fill="#292D32" d="M17,22.75 L7.63,22.75 C7.31,22.75 7.03,22.55 6.92,22.26 C6.81,21.96 6.9,21.63 7.14,21.43 C7.38,21.23 7.6,20.97 7.76,20.69 C8.08,20.18 8.24,19.6 8.24,19.01 C8.24,17.22 6.78,15.76 4.99,15.76 C4.06,15.76 3.17,16.16 2.55,16.87 C2.34,17.1 2.01,17.19 1.72,17.08 C1.43,16.97 1.23,16.69 1.23,16.38 L1.23,12 C1.23,8.92 3.13,6.69 6.08,6.32 C6.35,6.28 6.66,6.25 6.98,6.25 L16.98,6.25 C17.221,6.25 17.53,6.26 17.851,6.31 C20.8,6.65 22.73,8.89 22.73,12 L22.73,17 C22.75,20.44 20.441,22.75 17,22.75 Z M9.18,21.25 L17,21.25 C19.581,21.25 21.25,19.58 21.25,17 L21.25,12 C21.25,9.66 19.881,8.05 17.66,7.79 C17.421,7.75 17.21,7.75 17,7.75 L7,7.75 C6.76,7.75 6.53,7.77 6.3,7.8 C4.1,8.08 2.75,9.68 2.75,12 L2.75,14.82 C3.43,14.45 4.21,14.25 5,14.25 C7.62,14.25 9.75,16.38 9.75,19 C9.75,19.79 9.55,20.57 9.18,21.25 Z"/>
  <path fill="#292D32" d="M22,17.25 L19,17.25 C17.48,17.25 16.25,16.02 16.25,14.5 C16.25,12.98 17.48,11.75 19,11.75 L22,11.75 C22.41,11.75 22.75,12.09 22.75,12.5 C22.75,12.91 22.41,13.25 22,13.25 L19,13.25 C18.31,13.25 17.75,13.81 17.75,14.5 C17.75,15.19 18.31,15.75 19,15.75 L22,15.75 C22.41,15.75 22.75,16.09 22.75,16.5 C22.75,16.91 22.41,17.25 22,17.25 Z"/>
</svg>

