<svg xmlns="http://www.w3.org/2000/svg" width="24" height="24" viewBox="0 0 24 24">
  <defs/>
  <path fill="#292D32" d="M5,15 C2.79,15 1,16.79 1,19 C1,19.75 1.21,20.46 1.58,21.06 C2.27,22.22 3.54,23 5,23 C6.46,23 7.73,22.22 8.42,21.06 C8.79,20.46 9,19.75 9,19 C9,16.79 7.21,15 5,15 Z M6.97,18.67 L4.84,20.64 C4.7,20.77 4.51,20.84 4.33,20.84 C4.14,20.84 3.95,20.77 3.8,20.62 L2.81,19.63 C2.52,19.34 2.52,18.86 2.81,18.57 C3.1,18.28 3.58,18.28 3.87,18.57 L4.35,19.05 L5.95,17.57 C6.25,17.29 6.73,17.31 7.01,17.61 C7.29,17.91 7.27,18.39 6.97,18.67 Z"/>
  <path fill="#292D32" d="M21.5,12.5 L19,12.5 C17.9,12.5 17,13.4 17,14.5 C17,15.6 17.9,16.5 19,16.5 L21.5,16.5 C21.78,16.5 22,16.28 22,16 L22,13 C22,12.72 21.78,12.5 21.5,12.5 Z"/>
  <path fill="#292D32" d="M16.529,5.4 C16.829,5.69 16.579,6.14 16.159,6.14 L7.879,6.13 C7.399,6.13 7.159,5.55 7.499,5.21 L9.249,3.45 C10.729,1.98 13.119,1.98 14.599,3.45 L16.489,5.36 C16.499,5.37 16.519,5.39 16.529,5.4 Z"/>
  <path fill="#292D32" d="M21.869,18.66 C21.259,20.72 19.499,22 17.099,22 L10.599,22 C10.209,22 9.959,21.57 10.119,21.21 C10.419,20.51 10.609,19.72 10.609,19 C10.609,15.97 8.139,13.5 5.109,13.5 C4.349,13.5 3.609,13.66 2.929,13.96 C2.559,14.12 2.109,13.87 2.109,13.47 L2.109,12 C2.109,9.28 3.749,7.38 6.299,7.06 C6.549,7.02 6.819,7 7.099,7 L17.099,7 C17.359,7 17.609,7.01 17.849,7.05 C19.869,7.28 21.329,8.51 21.869,10.34 C21.969,10.67 21.729,11 21.389,11 L19.099,11 C16.929,11 15.209,12.98 15.679,15.23 C16.009,16.87 17.529,18 19.199,18 L21.389,18 C21.739,18 21.969,18.34 21.869,18.66 Z"/>
</svg>

