<svg xmlns="http://www.w3.org/2000/svg" width="24" height="24" viewBox="0 0 24 24">
  <defs/>
  <path fill="#292D32" d="M1.23,21.682 L1.99,20.922 C1.59,20.322 1.36,19.602 1.36,18.832 C1.36,16.722 3.07,15.012 5.18,15.012 C7.29,15.012 9,16.712 9,18.822 C9,20.932 7.29,22.642 5.18,22.642 C4.41,22.642 3.69,22.412 3.09,22.012 L2.33,22.772 C2.17,22.922 1.97,23.002 1.77,23.002 C1.57,23.002 1.37,22.922 1.22,22.772 C0.92,22.472 0.92,21.982 1.23,21.682 Z"/>
  <path fill="#292D32" d="M21.5,12.5 L19,12.5 C17.9,12.5 17,13.4 17,14.5 C17,15.6 17.9,16.5 19,16.5 L21.5,16.5 C21.78,16.5 22,16.28 22,16 L22,13 C22,12.72 21.78,12.5 21.5,12.5 Z"/>
  <path fill="#292D32" d="M16.529,5.4 C16.829,5.69 16.579,6.14 16.159,6.14 L7.879,6.13 C7.399,6.13 7.159,5.55 7.499,5.21 L9.249,3.45 C10.729,1.98 13.119,1.98 14.599,3.45 L16.489,5.36 C16.499,5.37 16.519,5.39 16.529,5.4 Z"/>
  <path fill="#292D32" d="M21.869,18.66 C21.259,20.72 19.499,22 17.099,22 L10.599,22 C10.209,22 9.959,21.57 10.119,21.21 C10.419,20.51 10.609,19.72 10.609,19 C10.609,15.97 8.139,13.5 5.109,13.5 C4.349,13.5 3.609,13.66 2.929,13.96 C2.559,14.12 2.109,13.87 2.109,13.47 L2.109,12 C2.109,9.28 3.749,7.38 6.299,7.06 C6.549,7.02 6.819,7 7.099,7 L17.099,7 C17.359,7 17.609,7.01 17.849,7.05 C19.869,7.28 21.329,8.51 21.869,10.34 C21.969,10.67 21.729,11 21.389,11 L19.099,11 C16.929,11 15.209,12.98 15.679,15.23 C16.009,16.87 17.529,18 19.199,18 L21.389,18 C21.739,18 21.969,18.34 21.869,18.66 Z"/>
</svg>

