<svg xmlns="http://www.w3.org/2000/svg" width="24" height="24" viewBox="0 0 24 24">
  <defs/>
  <path fill="#292D32" d="M14.262,16.188 L9.262,16.188 Q8.951,16.188 8.731,15.969 Q8.512,15.749 8.512,15.438 Q8.512,15.128 8.731,14.908 Q8.951,14.689 9.262,14.689 L14.262,14.689 Q14.572,14.689 14.792,14.908 Q15.012,15.128 15.012,15.438 Q15.012,15.749 14.792,15.969 Q14.572,16.188 14.262,16.188 Z"/>
  <path fill="#292D32" d="M12.512,12.998 L12.512,17.998 Q12.512,18.309 12.292,18.528 Q12.072,18.748 11.762,18.748 Q11.451,18.748 11.231,18.528 Q11.012,18.309 11.012,17.998 L11.012,12.998 Q11.012,12.687 11.231,12.468 Q11.451,12.248 11.762,12.248 Q12.072,12.248 12.292,12.468 Q12.512,12.687 12.512,12.998 Z"/>
  <path fill="#292D32" d="M13.349,2.814 L13.319,2.884 L10.419,9.615 Q10.223,10.068 9.73,10.068 L6.88,10.068 Q6.033,10.068 5.253,10.399 Q4.967,10.52 4.679,10.403 Q4.391,10.287 4.269,10.001 Q4.146,9.71 4.268,9.419 L6.018,5.239 L6.054,5.15 Q6.058,5.138 6.063,5.128 L6.12,4.996 Q6.166,4.865 6.215,4.771 Q8.277,0.039 12.928,1.818 Q13.218,1.929 13.345,2.212 Q13.471,2.496 13.36,2.786 Q13.355,2.8 13.349,2.814 Z M11.642,2.986 Q8.895,2.35 7.578,5.396 Q7.559,5.441 7.533,5.484 L7.531,5.505 Q7.521,5.538 7.507,5.569 L7.442,5.718 L7.402,5.818 L6.235,8.604 Q6.554,8.568 6.88,8.568 L9.236,8.568 L11.642,2.986 Z"/>
  <path fill="#292D32" d="M17.827,10.234 Q17.293,10.068 16.64,10.068 L9.73,10.068 Q9.419,10.068 9.2,9.848 Q8.98,9.629 8.98,9.318 Q8.98,9.163 9.041,9.021 L11.941,2.291 L11.971,2.223 Q12.086,1.954 12.353,1.834 Q12.62,1.714 12.897,1.807 Q13.023,1.849 13.236,1.941 Q13.333,1.984 13.379,2.002 L15.601,2.937 Q17.65,3.786 18.502,4.835 Q18.692,5.063 18.816,5.286 Q18.994,5.569 19.078,5.846 Q19.141,5.996 19.181,6.151 Q19.633,7.597 18.746,9.798 Q18.636,10.07 18.371,10.196 Q18.107,10.321 17.827,10.234 Z M17.573,8.639 Q17.992,7.352 17.746,6.588 Q17.738,6.564 17.732,6.54 Q17.715,6.472 17.685,6.403 Q17.661,6.349 17.645,6.291 Q17.621,6.202 17.539,6.074 Q17.523,6.049 17.51,6.024 Q17.454,5.921 17.338,5.781 Q16.725,5.027 15.019,4.319 L13.057,3.493 L10.87,8.568 L16.64,8.568 Q17.126,8.568 17.573,8.639 Z"/>
  <path fill="#292D32" d="M22.272,14.198 L22.272,16.148 Q22.272,16.367 22.251,16.786 Q21.926,22.748 15.662,22.748 L7.862,22.748 Q7.497,22.748 7.079,22.695 Q1.683,22.327 1.315,16.932 Q1.262,16.513 1.262,16.148 L1.262,14.198 Q1.262,10.491 4.675,9.02 Q5.758,8.568 6.892,8.568 L16.652,8.568 Q17.493,8.568 18.274,8.799 Q22.272,10.024 22.272,14.198 Z M20.772,14.198 Q20.772,11.134 17.849,10.238 Q17.276,10.068 16.652,10.068 L6.892,10.068 Q6.058,10.068 5.269,10.397 Q2.762,11.478 2.762,14.198 L2.762,16.148 Q2.762,16.426 2.805,16.761 Q2.809,16.785 2.81,16.809 Q3.082,20.928 7.201,21.2 Q7.225,21.202 7.249,21.205 Q7.584,21.248 7.862,21.248 L15.662,21.248 Q20.506,21.248 20.753,16.711 Q20.772,16.33 20.772,16.148 Z"/>
  <path fill="#292D32" d="M7.402,5.818 L5.652,9.998 Q5.535,10.277 5.257,10.397 Q2.751,11.477 2.75,14.196 L2.75,14.198 Q2.75,14.509 2.53,14.728 Q2.311,14.948 2,14.948 Q1.689,14.948 1.47,14.728 Q1.25,14.509 1.25,14.198 L1.25,11.268 Q1.25,5.839 6.565,4.792 Q6.87,4.732 7.128,4.905 Q7.386,5.078 7.446,5.383 Q7.49,5.607 7.402,5.818 Z M2.825,10.192 Q3.471,9.583 4.382,9.147 L5.401,6.712 Q3.197,7.697 2.825,10.192 Z"/>
  <path fill="#292D32" d="M22.269,11.268 L22.269,14.198 Q22.269,14.508 22.049,14.728 Q21.829,14.948 21.519,14.948 Q21.208,14.948 20.988,14.728 Q20.769,14.508 20.769,14.198 Q20.769,11.124 17.843,10.246 Q17.546,10.157 17.398,9.883 Q17.251,9.61 17.34,9.312 Q17.35,9.28 17.362,9.249 Q18.045,7.542 17.759,6.569 Q17.752,6.545 17.746,6.52 Q17.734,6.466 17.718,6.433 Q17.579,6.155 17.677,5.86 Q17.775,5.566 18.053,5.427 Q18.394,5.256 18.733,5.431 Q22.269,7.256 22.269,11.268 Z M19.319,7.649 Q19.257,8.312 19.018,9.073 Q19.98,9.471 20.657,10.082 Q20.366,8.631 19.319,7.649 Z"/>
</svg>

