<svg xmlns="http://www.w3.org/2000/svg" width="24" height="24" viewBox="0 0 24 24">
  <defs/>
  <path fill="#292D32" d="M22,10.969 L22,13.029 C22,13.579 21.56,14.029 21,14.049 L19.04,14.049 C17.96,14.049 16.97,13.259 16.88,12.179 C16.82,11.549 17.06,10.959 17.48,10.549 C17.85,10.169 18.36,9.949 18.92,9.949 L21,9.949 C21.56,9.969 22,10.419 22,10.969 Z"/>
  <path fill="#292D32" d="M20.47,15.55 L19.04,15.55 C17.14,15.55 15.54,14.12 15.38,12.3 C15.29,11.26 15.67,10.22 16.43,9.48 C17.07,8.82 17.96,8.45 18.92,8.45 L20.47,8.45 C20.76,8.45 21,8.21 20.97,7.92 C20.75,5.49 19.14,3.83 16.75,3.55 C16.51,3.51 16.26,3.5 16,3.5 L7,3.5 C6.72,3.5 6.45,3.52 6.19,3.56 C3.64,3.88 2,5.78 2,8.5 L2,15.5 C2,18.26 4.24,20.5 7,20.5 L16,20.5 C18.8,20.5 20.73,18.75 20.97,16.08 C21,15.79 20.76,15.55 20.47,15.55 Z M13,9.75 L7,9.75 C6.59,9.75 6.25,9.41 6.25,9 C6.25,8.59 6.59,8.25 7,8.25 L13,8.25 C13.41,8.25 13.75,8.59 13.75,9 C13.75,9.41 13.41,9.75 13,9.75 Z"/>
</svg>

