<svg xmlns="http://www.w3.org/2000/svg" width="24" height="24" viewBox="0 0 24 24">
  <defs/>
  <g opacity="0.4">
    <path fill="#292D32" d="M11.5,16.86 L11.5,18.89 Q11.5,20.521 10.196,21.656 Q8.939,22.75 7.18,22.75 Q5.421,22.75 4.16,21.657 Q2.85,20.521 2.85,18.89 L2.85,16.86 Q2.85,16.549 3.069,16.33 Q3.289,16.11 3.6,16.11 Q3.91,16.11 4.13,16.33 Q4.35,16.549 4.35,16.86 Q4.35,19.05 7.18,19.05 Q8.411,19.05 9.233,18.387 Q10,17.769 10,16.86 Q10,16.549 10.219,16.33 Q10.439,16.11 10.75,16.11 Q11.06,16.11 11.28,16.33 Q11.5,16.549 11.5,16.86 Z M9.573,20.143 Q8.615,20.55 7.18,20.55 Q5.619,20.55 4.475,19.779 Q4.945,21.25 7.18,21.25 Q8.377,21.25 9.211,20.524 Q9.42,20.343 9.573,20.143 Z"/>
    <path fill="#292D32" d="M11.5,14.11 Q11.5,15.044 11.013,15.856 Q9.83,17.8 7.17,17.8 Q4.521,17.8 3.331,15.862 Q2.84,15.044 2.84,14.11 Q2.84,12.489 4.136,11.355 Q5.385,10.26 7.16,10.26 Q8.912,10.26 10.179,11.351 Q11.5,12.452 11.5,14.11 Z M10,14.11 Q10,13.154 9.2,12.488 Q8.355,11.76 7.16,11.76 Q5.95,11.76 5.124,12.484 Q4.34,13.17 4.34,14.11 Q4.34,14.629 4.609,15.077 Q5.36,16.3 7.17,16.3 Q8.987,16.3 9.727,15.084 Q10,14.629 10,14.11 Z"/>
    <path fill="#292D32" d="M11.5,14.11 L11.5,16.86 Q11.5,18.492 10.174,19.559 Q8.942,20.55 7.18,20.55 Q2.85,20.55 2.85,16.86 L2.85,14.11 Q2.85,12.478 4.155,11.344 Q5.414,10.25 7.18,10.25 Q8.932,10.25 10.199,11.342 Q11.5,12.48 11.5,14.11 Z M10,14.11 Q10,13.16 9.22,12.478 Q8.375,11.75 7.18,11.75 Q5.975,11.75 5.139,12.476 Q4.35,13.162 4.35,14.11 L4.35,16.86 Q4.35,17.767 5.121,18.387 Q5.946,19.05 7.18,19.05 Q10,19.05 10,16.86 Z"/>
  </g>
  <path fill="#292D32" d="M22.75,10.97 L22.75,13.03 Q22.75,14.738 21.027,14.8 Q21.014,14.8 21,14.8 L19.04,14.8 Q16.346,14.8 16.133,12.242 Q16.009,10.943 16.95,10.02 Q17.753,9.2 18.92,9.2 L21,9.2 Q21.014,9.2 21.027,9.201 Q22.75,9.262 22.75,10.97 Z M21.25,10.97 Q21.25,10.715 20.984,10.7 L18.92,10.7 Q18.381,10.7 18.018,11.073 Q18.011,11.08 18.004,11.087 Q17.57,11.511 17.628,12.118 Q17.726,13.3 19.04,13.3 L20.984,13.3 Q21.25,13.286 21.25,13.03 Z"/>
  <path fill="#292D32" d="M1.25,10.5 L1.25,8.5 Q1.25,3.429 6.086,2.817 Q6.528,2.75 7,2.75 L16,2.75 Q16.499,2.75 16.854,2.807 Q21.75,3.385 21.75,8.5 L21.75,9.95 Q21.75,10.261 21.53,10.48 Q21.311,10.7 21,10.7 L18.92,10.7 Q18.381,10.7 18.017,11.073 Q18.011,11.08 18.004,11.087 Q17.57,11.511 17.627,12.109 Q17.726,13.3 19.04,13.3 L21,13.3 Q21.311,13.3 21.53,13.52 Q21.75,13.739 21.75,14.05 L21.75,15.5 Q21.75,21.25 16,21.25 L13.5,21.25 Q13.189,21.25 12.97,21.03 Q12.75,20.811 12.75,20.5 Q12.75,20.189 12.97,19.97 Q13.189,19.75 13.5,19.75 L16,19.75 Q20.25,19.75 20.25,15.5 L20.25,14.8 L19.04,14.8 Q16.346,14.8 16.133,12.251 Q16.009,10.943 16.949,10.02 Q17.753,9.2 18.92,9.2 L20.25,9.2 L20.25,8.5 Q20.25,4.712 16.663,4.295 Q16.645,4.293 16.627,4.29 Q16.388,4.25 16,4.25 L7,4.25 Q6.637,4.25 6.304,4.301 Q6.294,4.303 6.283,4.304 Q2.75,4.748 2.75,8.5 L2.75,10.5 Q2.75,10.811 2.53,11.03 Q2.311,11.25 2,11.25 Q1.689,11.25 1.47,11.03 Q1.25,10.811 1.25,10.5 Z"/>
</svg>

