<svg xmlns="http://www.w3.org/2000/svg" width="24" height="24" viewBox="0 0 24 24">
  <defs/>
  <path fill="#292D32" d="M17,22.75 L7.63,22.75 C7.31,22.75 7.03,22.55 6.92,22.26 C6.81,21.97 6.901,21.63 7.141,21.43 C7.38,21.23 7.601,20.97 7.761,20.69 C8.081,20.18 8.24,19.6 8.24,19.01 C8.24,17.22 6.78,15.76 4.99,15.76 C4.06,15.76 3.17,16.16 2.55,16.87 C2.34,17.1 2.01,17.19 1.72,17.08 C1.43,16.97 1.23,16.69 1.23,16.38 L1.23,12 C1.23,8.92 3.131,6.69 6.081,6.32 C6.351,6.28 6.66,6.25 6.98,6.25 L16.98,6.25 C17.221,6.25 17.53,6.26 17.851,6.31 C20.8,6.65 22.73,8.89 22.73,12 L22.73,17 C22.75,20.44 20.441,22.75 17,22.75 Z M9.18,21.25 L17,21.25 C19.581,21.25 21.25,19.58 21.25,17 L21.25,12 C21.25,9.66 19.881,8.05 17.66,7.79 C17.421,7.75 17.21,7.75 17,7.75 L7,7.75 C6.76,7.75 6.53,7.77 6.3,7.8 C4.1,8.08 2.75,9.68 2.75,12 L2.75,14.82 C3.43,14.45 4.21,14.25 5,14.25 C7.62,14.25 9.75,16.38 9.75,19 C9.75,19.79 9.55,20.57 9.18,21.25 Z"/>
  <path fill="#292D32" d="M6.19,7.81 C5.95,7.81 5.73,7.7 5.58,7.5 C5.41,7.27 5.39,6.97 5.52,6.72 C5.69,6.38 5.93,6.05 6.24,5.75 L9.49,2.49 C11.15,0.84 13.85,0.84 15.51,2.49 L17.26,4.27 C18,5 18.45,5.98 18.5,7.02 C18.51,7.25 18.42,7.47 18.25,7.62 C18.08,7.77 17.85,7.84 17.63,7.8 C17.43,7.77 17.22,7.76 17,7.76 L7,7.76 C6.76,7.76 6.53,7.78 6.3,7.81 C6.27,7.81 6.23,7.81 6.19,7.81 Z M7.86,6.25 L16.82,6.25 C16.69,5.91 16.48,5.6 16.2,5.32 L14.44,3.54 C13.37,2.48 11.62,2.48 10.54,3.54 L7.86,6.25 Z"/>
  <path fill="#292D32" d="M22,17.25 L19,17.25 C17.48,17.25 16.25,16.02 16.25,14.5 C16.25,12.98 17.48,11.75 19,11.75 L22,11.75 C22.41,11.75 22.75,12.09 22.75,12.5 C22.75,12.91 22.41,13.25 22,13.25 L19,13.25 C18.31,13.25 17.75,13.81 17.75,14.5 C17.75,15.19 18.31,15.75 19,15.75 L22,15.75 C22.41,15.75 22.75,16.09 22.75,16.5 C22.75,16.91 22.41,17.25 22,17.25 Z"/>
  <path fill="#292D32" d="M5,23.75 C3.34,23.75 1.78,22.87 0.94,21.44 C0.49,20.72 0.25,19.87 0.25,19 C0.25,17.85 0.67,16.74 1.44,15.87 C2.34,14.84 3.64,14.25 5,14.25 C7.62,14.25 9.75,16.38 9.75,19 C9.75,19.87 9.51,20.72 9.06,21.45 C8.81,21.87 8.49,22.25 8.11,22.57 C7.28,23.33 6.17,23.75 5,23.75 Z M5,15.75 C4.07,15.75 3.18,16.15 2.56,16.86 C2.04,17.46 1.75,18.22 1.75,19 C1.75,19.59 1.91,20.17 2.22,20.67 C2.8,21.65 3.87,22.25 5,22.25 C5.79,22.25 6.55,21.96 7.13,21.44 C7.39,21.22 7.61,20.96 7.77,20.68 C8.09,20.17 8.25,19.59 8.25,19 C8.25,17.21 6.79,15.75 5,15.75 Z"/>
  <path fill="#292D32" d="M6.07,20.79 C5.88,20.79 5.69,20.72 5.54,20.57 L3.43,18.46 C3.14,18.17 3.14,17.69 3.43,17.4 C3.72,17.11 4.2,17.11 4.49,17.4 L6.6,19.51 C6.89,19.8 6.89,20.28 6.6,20.57 C6.45,20.72 6.26,20.79 6.07,20.79 Z"/>
  <path fill="#292D32" d="M3.931,20.82 C3.741,20.82 3.551,20.75 3.401,20.6 C3.111,20.31 3.111,19.83 3.401,19.54 L5.511,17.43 C5.801,17.14 6.281,17.14 6.571,17.43 C6.861,17.72 6.861,18.2 6.571,18.49 L4.461,20.6 C4.311,20.75 4.121,20.82 3.931,20.82 Z"/>
</svg>

