<svg xmlns="http://www.w3.org/2000/svg" width="24" height="24" viewBox="0 0 24 24">
  <defs/>
  <path fill="#292D32" d="M15,6.15 L6,6.15 C3.79,6.15 2,7.94 2,10.15 L2,6.54 C2,4.5 3.65,2.85 5.69,2.85 L11.31,2.85 C13.35,2.85 15,4.11 15,6.15 Z"/>
  <path fill="#292D32" opacity="0.4" d="M17.48,12.2 C16.98,12.69 16.74,13.43 16.94,14.18 C17.19,15.11 18.11,15.7 19.07,15.7 L20,15.7 L20,17.15 C20,19.36 18.21,21.15 16,21.15 L6,21.15 C3.79,21.15 2,19.36 2,17.15 L2,10.15 C2,7.94 3.79,6.15 6,6.15 L16,6.15 C18.2,6.15 20,7.95 20,10.15 L20,11.6 L18.92,11.6 C18.36,11.6 17.85,11.82 17.48,12.2 Z"/>
  <path fill="#292D32" d="M22,12.62 L22,14.68 C22,15.24 21.54,15.7 20.97,15.7 L19.04,15.7 C17.96,15.7 16.97,14.91 16.88,13.83 C16.82,13.2 17.06,12.61 17.48,12.2 C17.85,11.82 18.36,11.6 18.92,11.6 L20.97,11.6 C21.54,11.6 22,12.06 22,12.62 Z"/>
  <path fill="#292D32" d="M13,11.9 L7,11.9 C6.59,11.9 6.25,11.56 6.25,11.15 C6.25,10.74 6.59,10.4 7,10.4 L13,10.4 C13.41,10.4 13.75,10.74 13.75,11.15 C13.75,11.56 13.41,11.9 13,11.9 Z"/>
</svg>

