<svg xmlns="http://www.w3.org/2000/svg" width="24" height="24" viewBox="0 0 24 24">
  <defs/>
  <path fill="#292D32" d="M11.939,2.212 L9.529,7.822 L7.119,7.822 C6.719,7.822 6.329,7.852 5.949,7.932 L6.949,5.532 L6.989,5.442 L7.049,5.282 C7.079,5.212 7.099,5.152 7.129,5.102 C8.289,2.412 9.589,1.572 11.939,2.212 Z"/>
  <path fill="#292D32" d="M18.731,8.09 L18.711,8.08 C18.111,7.91 17.501,7.82 16.881,7.82 L10.621,7.82 L12.871,2.59 L12.901,2.52 C13.041,2.57 13.191,2.64 13.341,2.69 L15.551,3.62 C16.781,4.13 17.641,4.66 18.171,5.3 C18.261,5.42 18.341,5.53 18.421,5.66 C18.511,5.8 18.581,5.94 18.621,6.09 C18.661,6.18 18.691,6.26 18.711,6.35 C18.861,6.86 18.871,7.44 18.731,8.09 Z"/>
  <path fill="#292D32" d="M18.288,9.52 C17.838,9.39 17.368,9.32 16.878,9.32 L7.118,9.32 C6.438,9.32 5.798,9.45 5.198,9.71 C3.458,10.46 2.238,12.19 2.238,14.2 L2.238,16.15 C2.238,16.39 2.258,16.62 2.288,16.86 C2.508,20.04 4.208,21.74 7.388,21.95 C7.618,21.98 7.848,22 8.098,22 L15.898,22 C19.598,22 21.548,20.24 21.738,16.74 C21.748,16.55 21.758,16.35 21.758,16.15 L21.758,14.2 C21.758,11.99 20.288,10.13 18.288,9.52 Z M14.498,16.19 L12.748,16.19 L12.748,18 C12.748,18.41 12.408,18.75 11.998,18.75 C11.588,18.75 11.248,18.41 11.248,18 L11.248,16.19 L9.498,16.19 C9.088,16.19 8.748,15.86 8.748,15.44 C8.748,15.03 9.088,14.69 9.498,14.69 L11.248,14.69 L11.248,13 C11.248,12.59 11.588,12.25 11.998,12.25 C12.408,12.25 12.748,12.59 12.748,13 L12.748,14.69 L14.498,14.69 C14.908,14.69 15.248,15.03 15.248,15.44 C15.248,15.86 14.908,16.19 14.498,16.19 Z"/>
</svg>

