<svg xmlns="http://www.w3.org/2000/svg" width="24" height="24" viewBox="0 0 24 24">
  <defs/>
  <path fill="#292D32" d="M17,22.75 L12,22.75 C11.59,22.75 11.25,22.41 11.25,22 C11.25,21.59 11.59,21.25 12,21.25 L17,21.25 C19.58,21.25 21.25,19.58 21.25,17 L21.25,12 C21.25,9.71 19.83,8 17.71,7.75 L17,7.75 L7,7.75 C6.72,7.75 6.62,7.75 6.44,7.81 C6.39,7.83 6.34,7.84 6.29,7.84 C4.08,8.1 2.75,9.65 2.75,12 L2.75,13 C2.75,13.41 2.41,13.75 2,13.75 C1.59,13.75 1.25,13.41 1.25,13 L1.25,12 C1.25,8.94 3.13,6.73 6.04,6.36 C6.42,6.25 6.7,6.25 7,6.25 L17.8,6.25 C20.8,6.6 22.75,8.91 22.75,12 L22.75,17 C22.75,20.44 20.44,22.75 17,22.75 Z"/>
  <path fill="#292D32" d="M6.2,7.85 C6,7.85 5.81,7.77 5.67,7.63 C5.47,7.43 5.4,7.13 5.49,6.86 C5.65,6.39 5.94,6.1 6.27,5.77 L9.46,2.48 C11.11,0.83 13.89,0.83 15.53,2.47 L17.33,4.27 C17.99,4.93 18.41,5.84 18.54,6.91 C18.57,7.12 18.5,7.34 18.36,7.5 C18.22,7.66 18.01,7.75 17.8,7.75 L7,7.75 C6.72,7.75 6.62,7.75 6.44,7.81 C6.36,7.84 6.28,7.85 6.2,7.85 Z M7.89,6.25 L16.85,6.25 C16.73,5.93 16.54,5.61 16.27,5.33 L14.47,3.53 C13.4,2.46 11.6,2.46 10.53,3.53 L7.89,6.25 Z"/>
  <path fill="#292D32" d="M22,17.25 L19,17.25 C17.48,17.25 16.25,16.02 16.25,14.5 C16.25,12.98 17.48,11.75 19,11.75 L22,11.75 C22.41,11.75 22.75,12.09 22.75,12.5 C22.75,12.91 22.41,13.25 22,13.25 L19,13.25 C18.31,13.25 17.75,13.81 17.75,14.5 C17.75,15.19 18.31,15.75 19,15.75 L22,15.75 C22.41,15.75 22.75,16.09 22.75,16.5 C22.75,16.91 22.41,17.25 22,17.25 Z"/>
  <path fill="#292D32" d="M5.8,22.15 C3.62,22.15 1.85,20.38 1.85,18.2 C1.85,16.02 3.62,14.25 5.8,14.25 C7.98,14.25 9.75,16.02 9.75,18.2 C9.75,20.38 7.98,22.15 5.8,22.15 Z M5.8,15.75 C4.45,15.75 3.35,16.85 3.35,18.2 C3.35,19.55 4.45,20.65 5.8,20.65 C7.15,20.65 8.25,19.55 8.25,18.2 C8.25,16.85 7.15,15.75 5.8,15.75 Z"/>
  <path fill="#292D32" d="M1.999,22.75 C1.809,22.75 1.619,22.68 1.469,22.53 C1.179,22.24 1.179,21.76 1.469,21.47 L2.469,20.47 C2.759,20.18 3.239,20.18 3.529,20.47 C3.819,20.76 3.819,21.24 3.529,21.53 L2.529,22.53 C2.379,22.68 2.189,22.75 1.999,22.75 Z"/>
</svg>

