<svg xmlns="http://www.w3.org/2000/svg" width="24" height="24" viewBox="0 0 24 24">
  <defs/>
  <path fill="#292D32" d="M21.5,12.5 L19,12.5 C17.9,12.5 17,13.4 17,14.5 C17,15.6 17.9,16.5 19,16.5 L21.5,16.5 C21.78,16.5 22,16.28 22,16 L22,13 C22,12.72 21.78,12.5 21.5,12.5 Z"/>
  <path fill="#292D32" d="M5,15 C3.8,15 2.73,15.53 2,16.36 C1.38,17.07 1,17.99 1,19 C1,19.75 1.21,20.46 1.58,21.06 C2.27,22.22 3.54,23 5,23 C6.01,23 6.93,22.63 7.63,22 C7.94,21.74 8.21,21.42 8.42,21.06 C8.79,20.46 9,19.75 9,19 C9,16.79 7.21,15 5,15 Z M6.6,20.58 C6.45,20.73 6.26,20.8 6.07,20.8 C5.88,20.8 5.69,20.73 5.54,20.58 L5.01,20.05 L4.46,20.6 C4.31,20.75 4.12,20.82 3.93,20.82 C3.74,20.82 3.55,20.75 3.4,20.6 C3.11,20.31 3.11,19.83 3.4,19.54 L3.95,18.99 L3.42,18.46 C3.13,18.17 3.13,17.69 3.42,17.4 C3.71,17.11 4.19,17.11 4.48,17.4 L5.01,17.93 L5.51,17.43 C5.8,17.14 6.28,17.14 6.57,17.43 C6.86,17.72 6.86,18.2 6.57,18.49 L6.07,18.99 L6.6,19.52 C6.89,19.81 6.89,20.28 6.6,20.58 Z"/>
  <path fill="#292D32" d="M16.529,5.4 C16.829,5.69 16.579,6.14 16.159,6.14 L7.879,6.13 C7.399,6.13 7.159,5.55 7.499,5.21 L9.249,3.45 C10.729,1.98 13.119,1.98 14.599,3.45 L16.489,5.36 C16.499,5.37 16.519,5.39 16.529,5.4 Z"/>
  <path fill="#292D32" d="M21.869,18.66 C21.259,20.72 19.499,22 17.099,22 L10.599,22 C10.209,22 9.959,21.57 10.119,21.21 C10.419,20.51 10.609,19.72 10.609,19 C10.609,15.97 8.139,13.5 5.109,13.5 C4.349,13.5 3.609,13.66 2.929,13.96 C2.559,14.12 2.109,13.87 2.109,13.47 L2.109,12 C2.109,9.28 3.749,7.38 6.299,7.06 C6.549,7.02 6.819,7 7.099,7 L17.099,7 C17.359,7 17.609,7.01 17.849,7.05 C19.869,7.28 21.329,8.51 21.869,10.34 C21.969,10.67 21.729,11 21.389,11 L19.099,11 C16.929,11 15.209,12.98 15.679,15.23 C16.009,16.87 17.529,18 19.199,18 L21.389,18 C21.739,18 21.969,18.34 21.869,18.66 Z"/>
</svg>

