<svg xmlns="http://www.w3.org/2000/svg" width="24" height="24" viewBox="0 0 24 24">
  <defs/>
  <path fill="#292D32" d="M17.75,7.05 C17.509,7.01 17.259,7 17,7 L6.999,7 C6.719,7 6.449,7.02 6.189,7.06 C6.329,6.78 6.529,6.52 6.769,6.28 L10.019,3.02 C11.389,1.66 13.61,1.66 14.979,3.02 L16.73,4.79 C17.369,5.42 17.709,6.22 17.75,7.05 Z"/>
  <path fill="#292D32" opacity="0.4" d="M2,16.36 L2,12 C2,9.28 3.64,7.38 6.19,7.06 C6.45,7.02 6.72,7 7,7 L17,7 C17.26,7 17.51,7.01 17.75,7.05 C20.33,7.35 22,9.26 22,12 L22,17 C22,19.76 19.76,22 17,22 L7.63,22 L7,22 C4.24,22 2,19.76 2,17 L2,16.36 Z"/>
  <path fill="#292D32" d="M22,12.5 L19,12.5 C17.9,12.5 17,13.4 17,14.5 C17,15.6 17.9,16.5 19,16.5 L22,16.5"/>
  <path fill="#292D32" d="M1.231,21.68 L1.991,20.92 C1.591,20.32 1.361,19.6 1.361,18.83 C1.361,16.72 3.071,15.01 5.181,15.01 C7.291,15.01 9.001,16.72 9.001,18.83 C9.001,20.94 7.291,22.65 5.181,22.65 C4.411,22.65 3.691,22.42 3.091,22.02 L2.331,22.78 C2.181,22.93 1.981,23.01 1.781,23.01 C1.581,23.01 1.381,22.93 1.231,22.78 C0.921,22.47 0.921,21.98 1.231,21.68 Z"/>
</svg>

