<svg xmlns="http://www.w3.org/2000/svg" width="24" height="24" viewBox="0 0 24 24">
  <defs/>
  <path fill="#292D32" d="M17.75,7.05 C17.509,7.01 17.259,7 17,7 L6.999,7 C6.719,7 6.449,7.02 6.189,7.06 C6.329,6.78 6.529,6.52 6.769,6.28 L10.02,3.02 C11.389,1.66 13.61,1.66 14.979,3.02 L16.73,4.79 C17.369,5.42 17.709,6.22 17.75,7.05 Z"/>
  <path fill="#292D32" d="M5,15 C2.79,15 1,16.79 1,19 C1,19.75 1.21,20.46 1.58,21.06 C2.27,22.22 3.54,23 5,23 C6.46,23 7.73,22.22 8.42,21.06 C8.79,20.46 9,19.75 9,19 C9,16.79 7.21,15 5,15 Z M6.49,19.73 L5.75,19.73 L5.75,20.51 C5.75,20.92 5.41,21.26 5,21.26 C4.59,21.26 4.25,20.92 4.25,20.51 L4.25,19.73 L3.51,19.73 C3.1,19.73 2.76,19.39 2.76,18.98 C2.76,18.57 3.1,18.23 3.51,18.23 L4.25,18.23 L4.25,17.52 C4.25,17.11 4.59,16.77 5,16.77 C5.41,16.77 5.75,17.11 5.75,17.52 L5.75,18.23 L6.49,18.23 C6.9,18.23 7.24,18.57 7.24,18.98 C7.24,19.39 6.91,19.73 6.49,19.73 Z"/>
  <path fill="#292D32" opacity="0.4" d="M22,12 L22,17 C22,20 20,22 17,22 L7.63,22 C7.94,21.74 8.21,21.42 8.42,21.06 C8.79,20.46 9,19.75 9,19 C9,16.79 7.21,15 5,15 C3.8,15 2.73,15.53 2,16.36 L2,12 C2,9.28 3.64,7.38 6.19,7.06 C6.45,7.02 6.72,7 7,7 L17,7 C17.26,7 17.51,7.01 17.75,7.05 C20.33,7.35 22,9.26 22,12 Z"/>
  <path fill="#292D32" d="M22,12.5 L19,12.5 C17.9,12.5 17,13.4 17,14.5 C17,15.6 17.9,16.5 19,16.5 L22,16.5"/>
</svg>

