<svg xmlns="http://www.w3.org/2000/svg" width="24" height="24" viewBox="0 0 24 24">
  <defs/>
  <path fill="#292D32" opacity="0.4" d="M13,11.9 L7,11.9 Q6.689,11.9 6.47,11.68 Q6.25,11.461 6.25,11.15 Q6.25,10.839 6.47,10.62 Q6.689,10.4 7,10.4 L13,10.4 Q13.311,10.4 13.53,10.62 Q13.75,10.839 13.75,11.15 Q13.75,11.461 13.53,11.68 Q13.311,11.9 13,11.9 Z"/>
  <path fill="#292D32" opacity="0.4" d="M1.25,11.15 L1.25,6.53 Q1.25,4.689 2.55,3.39 Q3.849,2.09 5.69,2.09 L11.31,2.09 Q15.75,2.09 15.75,6.15 Q15.75,6.46 15.53,6.68 Q15.311,6.9 15,6.9 Q14.689,6.9 14.47,6.68 Q14.25,6.46 14.25,6.15 Q14.25,3.59 11.31,3.59 L5.69,3.59 Q2.75,3.59 2.75,6.53 L2.75,11.15 Q2.75,11.46 2.53,11.68 Q2.311,11.9 2,11.9 Q1.689,11.9 1.47,11.68 Q1.25,11.46 1.25,11.15 Z"/>
  <path fill="#292D32" d="M17.999,12.741 Q17.47,13.249 17.665,13.989 Q17.924,14.95 19.07,14.95 L20,14.95 Q20.311,14.95 20.53,15.17 Q20.75,15.389 20.75,15.7 L20.75,17.15 Q20.75,19.118 19.359,20.509 Q17.968,21.9 16,21.9 L6,21.9 Q4.032,21.9 2.641,20.509 Q1.25,19.118 1.25,17.15 L1.25,10.15 Q1.25,8.182 2.641,6.791 Q4.032,5.4 6,5.4 L16,5.4 Q17.961,5.4 19.355,6.795 Q20.75,8.189 20.75,10.15 L20.75,11.6 Q20.75,11.911 20.53,12.13 Q20.311,12.35 20,12.35 L18.92,12.35 Q18.381,12.35 18.017,12.723 Q18.009,12.732 17.999,12.741 Z M16.952,11.668 Q17.754,10.85 18.92,10.85 L19.25,10.85 L19.25,10.15 Q19.25,8.811 18.295,7.855 Q17.339,6.9 16,6.9 L6,6.9 Q2.75,6.9 2.75,10.15 L2.75,17.15 Q2.75,18.497 3.702,19.448 Q4.653,20.4 6,20.4 L16,20.4 Q17.347,20.4 18.298,19.448 Q19.25,18.497 19.25,17.15 L19.25,16.45 L19.07,16.45 Q16.774,16.45 16.215,14.371 Q15.797,12.784 16.952,11.668 Z"/>
  <path fill="#292D32" d="M22.75,12.62 L22.75,14.68 Q22.75,16.45 20.97,16.45 L19.04,16.45 Q16.346,16.45 16.133,13.892 Q16.009,12.593 16.95,11.67 Q17.753,10.85 18.92,10.85 L20.97,10.85 Q21.706,10.85 22.227,11.368 Q22.75,11.887 22.75,12.62 Z M21.25,12.62 Q21.25,12.35 20.97,12.35 L18.92,12.35 Q18.381,12.35 18.018,12.723 Q18.011,12.73 18.004,12.737 Q17.57,13.161 17.628,13.768 Q17.726,14.95 19.04,14.95 L20.97,14.95 Q21.088,14.95 21.17,14.868 Q21.25,14.789 21.25,14.68 Z"/>
</svg>

