<svg xmlns="http://www.w3.org/2000/svg" width="24" height="24" viewBox="0 0 24 24">
  <defs/>
  <path fill="#292D32" d="M11.502,16.86 L11.502,18.89 Q11.502,20.521 10.198,21.656 Q8.941,22.75 7.182,22.75 Q5.422,22.75 4.161,21.657 Q2.852,20.521 2.852,18.89 L2.852,16.86 Q2.852,16.55 3.071,16.33 Q3.291,16.11 3.602,16.11 Q3.912,16.11 4.132,16.33 Q4.352,16.55 4.352,16.86 Q4.352,19.05 7.182,19.05 Q10.002,19.05 10.002,16.86 Q10.002,16.55 10.221,16.33 Q10.441,16.11 10.752,16.11 Q11.062,16.11 11.282,16.33 Q11.502,16.55 11.502,16.86 Z M9.878,19.776 Q8.735,20.55 7.182,20.55 Q5.592,20.55 4.586,20.053 Q5.166,21.25 7.182,21.25 Q9.41,21.25 9.878,19.776 Z"/>
  <path fill="#292D32" d="M11.5,14.11 Q11.5,15.044 11.013,15.856 Q9.831,17.8 7.17,17.8 Q4.522,17.8 3.331,15.863 Q2.84,15.045 2.84,14.11 Q2.84,12.49 4.136,11.356 Q5.386,10.26 7.16,10.26 Q8.912,10.26 10.18,11.352 Q11.5,12.452 11.5,14.11 Z M10,14.11 Q10,13.155 9.201,12.488 Q8.355,11.76 7.16,11.76 Q5.95,11.76 5.124,12.484 Q4.34,13.17 4.34,14.11 Q4.34,14.629 4.609,15.077 Q5.36,16.3 7.17,16.3 Q8.987,16.3 9.727,15.084 Q10,14.629 10,14.11 Z"/>
  <path fill="#292D32" d="M11.502,14.11 L11.502,16.86 Q11.502,18.492 10.176,19.559 Q8.944,20.55 7.182,20.55 Q5.42,20.55 4.183,19.556 Q2.852,18.486 2.852,16.86 L2.852,14.11 Q2.852,12.478 4.157,11.344 Q5.416,10.25 7.182,10.25 Q8.934,10.25 10.201,11.342 Q11.502,12.48 11.502,14.11 Z M10.002,14.11 Q10.002,13.16 9.222,12.478 Q8.377,11.75 7.182,11.75 Q5.977,11.75 5.141,12.476 Q4.352,13.162 4.352,14.11 L4.352,16.86 Q4.352,17.767 5.123,18.387 Q5.948,19.05 7.182,19.05 Q10.002,19.05 10.002,16.86 Z"/>
  <path fill="#292D32" d="M22.75,10.97 L22.75,13.03 Q22.75,14.738 21.027,14.799 Q21.013,14.8 21,14.8 L19.04,14.8 Q16.346,14.8 16.133,12.242 Q16.009,10.943 16.949,10.02 Q17.752,9.2 18.92,9.2 L21,9.2 Q21.013,9.2 21.027,9.2 Q22.75,9.262 22.75,10.97 Z M21.25,10.97 Q21.25,10.714 20.984,10.7 L18.92,10.7 Q18.381,10.7 18.017,11.073 Q18.011,11.08 18.004,11.087 Q17.57,11.51 17.627,12.118 Q17.726,13.3 19.04,13.3 L20.984,13.3 Q21.25,13.285 21.25,13.03 Z"/>
  <path fill="#292D32" d="M1.25,10.5 L1.25,8.5 Q1.25,3.429 6.086,2.817 Q6.528,2.75 7,2.75 L16,2.75 Q16.499,2.75 16.854,2.807 Q21.75,3.385 21.75,8.5 L21.75,9.95 Q21.75,10.261 21.53,10.48 Q21.311,10.7 21,10.7 L18.92,10.7 Q18.381,10.7 18.017,11.073 Q18.011,11.08 18.004,11.087 Q17.57,11.511 17.627,12.109 Q17.726,13.3 19.04,13.3 L21,13.3 Q21.311,13.3 21.53,13.52 Q21.75,13.739 21.75,14.05 L21.75,15.5 Q21.75,21.25 16,21.25 L13.5,21.25 Q13.189,21.25 12.97,21.03 Q12.75,20.811 12.75,20.5 Q12.75,20.189 12.97,19.97 Q13.189,19.75 13.5,19.75 L16,19.75 Q20.25,19.75 20.25,15.5 L20.25,14.8 L19.04,14.8 Q16.346,14.8 16.133,12.251 Q16.009,10.943 16.949,10.02 Q17.753,9.2 18.92,9.2 L20.25,9.2 L20.25,8.5 Q20.25,4.712 16.663,4.295 Q16.645,4.293 16.627,4.29 Q16.388,4.25 16,4.25 L7,4.25 Q6.637,4.25 6.304,4.301 Q6.294,4.303 6.283,4.304 Q2.75,4.748 2.75,8.5 L2.75,10.5 Q2.75,10.811 2.53,11.03 Q2.311,11.25 2,11.25 Q1.689,11.25 1.47,11.03 Q1.25,10.811 1.25,10.5 Z"/>
</svg>

