<svg xmlns="http://www.w3.org/2000/svg" width="24" height="24" viewBox="0 0 24 24">
  <defs/>
  <path fill="#292D32" d="M17,22.75 L7,22.75 C3.56,22.75 1.25,20.44 1.25,17 L1.25,12 C1.25,8.92 3.15,6.69 6.1,6.32 C6.38,6.28 6.69,6.25 7,6.25 L17,6.25 C17.24,6.25 17.55,6.26 17.87,6.31 C20.82,6.65 22.75,8.89 22.75,12 L22.75,17 C22.75,20.44 20.44,22.75 17,22.75 Z M7,7.75 C6.76,7.75 6.53,7.77 6.3,7.8 C4.1,8.08 2.75,9.68 2.75,12 L2.75,17 C2.75,19.58 4.42,21.25 7,21.25 L17,21.25 C19.58,21.25 21.25,19.58 21.25,17 L21.25,12 C21.25,9.66 19.88,8.05 17.66,7.79 C17.42,7.75 17.21,7.75 17,7.75 L7,7.75 Z"/>
  <path fill="#292D32" d="M6.19,7.81 C5.95,7.81 5.73,7.7 5.58,7.5 C5.41,7.27 5.39,6.97 5.52,6.72 C5.69,6.38 5.93,6.05 6.24,5.75 L9.49,2.49 C11.15,0.84 13.85,0.84 15.51,2.49 L17.26,4.26 C18,4.99 18.45,5.97 18.5,7.01 C18.51,7.24 18.42,7.46 18.25,7.61 C18.08,7.76 17.85,7.83 17.63,7.79 C17.43,7.76 17.22,7.75 17,7.75 L7,7.75 C6.76,7.75 6.53,7.77 6.3,7.8 C6.27,7.81 6.23,7.81 6.19,7.81 Z M7.86,6.25 L16.82,6.25 C16.69,5.91 16.48,5.6 16.2,5.32 L14.44,3.54 C13.37,2.48 11.62,2.48 10.54,3.54 L7.86,6.25 Z"/>
  <path fill="#292D32" d="M22,17.25 L19,17.25 C17.48,17.25 16.25,16.02 16.25,14.5 C16.25,12.98 17.48,11.75 19,11.75 L22,11.75 C22.41,11.75 22.75,12.09 22.75,12.5 C22.75,12.91 22.41,13.25 22,13.25 L19,13.25 C18.31,13.25 17.75,13.81 17.75,14.5 C17.75,15.19 18.31,15.75 19,15.75 L22,15.75 C22.41,15.75 22.75,16.09 22.75,16.5 C22.75,16.91 22.41,17.25 22,17.25 Z"/>
</svg>

