<svg xmlns="http://www.w3.org/2000/svg" width="24" height="24" viewBox="0 0 24 24">
  <defs/>
  <path fill="#292D32" d="M13,11.9 L7,11.9 C6.59,11.9 6.25,11.56 6.25,11.15 C6.25,10.74 6.59,10.4 7,10.4 L13,10.4 C13.41,10.4 13.75,10.74 13.75,11.15 C13.75,11.56 13.41,11.9 13,11.9 Z"/>
  <path fill="#292D32" d="M2,11.9 C1.59,11.9 1.25,11.56 1.25,11.15 L1.25,6.53 C1.25,4.08 3.24,2.09 5.69,2.09 L11.31,2.09 C13.88,2.09 15.75,3.8 15.75,6.15 C15.75,6.56 15.41,6.9 15,6.9 C14.59,6.9 14.25,6.56 14.25,6.15 C14.25,4.39 12.72,3.59 11.31,3.59 L5.69,3.59 C4.07,3.59 2.75,4.91 2.75,6.53 L2.75,11.15 C2.75,11.57 2.41,11.9 2,11.9 Z"/>
  <path fill="#292D32" d="M16,21.9 L6,21.9 C3.38,21.9 1.25,19.77 1.25,17.15 L1.25,10.15 C1.25,7.53 3.38,5.4 6,5.4 L16,5.4 C18.62,5.4 20.75,7.53 20.75,10.15 L20.75,11.6 C20.75,12.01 20.41,12.35 20,12.35 L18.92,12.35 C18.57,12.35 18.25,12.48 18.02,12.72 L18.01,12.73 C17.68,13.06 17.55,13.52 17.67,13.97 C17.82,14.53 18.41,14.94 19.07,14.94 L20,14.94 C20.41,14.94 20.75,15.28 20.75,15.69 L20.75,17.14 C20.75,19.77 18.62,21.9 16,21.9 Z M6,6.9 C4.21,6.9 2.75,8.36 2.75,10.15 L2.75,17.15 C2.75,18.94 4.21,20.4 6,20.4 L16,20.4 C17.79,20.4 19.25,18.94 19.25,17.15 L19.25,16.45 L19.07,16.45 C17.72,16.45 16.55,15.6 16.22,14.37 C15.96,13.4 16.24,12.37 16.95,11.67 C17.47,11.14 18.17,10.85 18.92,10.85 L19.25,10.85 L19.25,10.15 C19.25,8.36 17.79,6.9 16,6.9 L6,6.9 Z"/>
  <path fill="#292D32" d="M20.97,16.45 L19.04,16.45 C17.53,16.45 16.25,15.33 16.13,13.89 C16.05,13.06 16.35,12.25 16.95,11.66 C17.45,11.14 18.16,10.85 18.91,10.85 L20.96,10.85 C21.94,10.85 22.74,11.64 22.74,12.62 L22.74,14.68 C22.75,15.66 21.95,16.45 20.97,16.45 Z M18.92,12.35 C18.57,12.35 18.25,12.48 18.02,12.72 C17.73,13 17.59,13.38 17.63,13.76 C17.68,14.42 18.32,14.95 19.04,14.95 L20.97,14.95 C21.12,14.95 21.25,14.83 21.25,14.68 L21.25,12.62 C21.25,12.47 21.12,12.35 20.97,12.35 L18.92,12.35 Z"/>
</svg>

