<svg xmlns="http://www.w3.org/2000/svg" width="24" height="24" viewBox="0 0 24 24">
  <defs/>
  <path fill="#292D32" opacity="0.8" d="M12.899,2.52 L12.869,2.59 L9.969,9.32 L7.119,9.32 C6.439,9.32 5.799,9.45 5.199,9.71 L6.949,5.53 L6.989,5.44 L7.049,5.28 C7.079,5.21 7.099,5.15 7.129,5.1 C8.439,2.07 9.919,1.38 12.899,2.52 Z"/>
  <path fill="#292D32" d="M18.291,9.52 C17.841,9.39 17.371,9.32 16.881,9.32 L9.971,9.32 L12.871,2.59 L12.901,2.52 C13.041,2.57 13.191,2.64 13.341,2.69 L15.551,3.62 C16.781,4.13 17.641,4.66 18.171,5.3 C18.261,5.42 18.341,5.53 18.421,5.66 C18.511,5.8 18.581,5.94 18.621,6.09 C18.661,6.18 18.691,6.26 18.711,6.35 C18.971,7.2 18.811,8.23 18.291,9.52 Z"/>
  <path fill="#292D32" opacity="0.4" d="M21.76,14.2 L21.76,16.15 C21.76,16.35 21.75,16.55 21.74,16.74 C21.55,20.24 19.6,22 15.9,22 L8.1,22 C7.85,22 7.62,21.98 7.39,21.95 C4.21,21.74 2.51,20.04 2.29,16.86 C2.26,16.62 2.24,16.39 2.24,16.15 L2.24,14.2 C2.24,12.19 3.46,10.46 5.2,9.71 C5.8,9.45 6.44,9.32 7.12,9.32 L16.88,9.32 C17.37,9.32 17.84,9.39 18.29,9.52 C20.29,10.13 21.76,11.99 21.76,14.2 Z"/>
  <path fill="#292D32" opacity="0.6" d="M6.95,5.53 L5.2,9.71 C3.46,10.46 2.24,12.19 2.24,14.2 L2.24,11.27 C2.24,8.43 4.26,6.06 6.95,5.53 Z"/>
  <path fill="#292D32" opacity="0.6" d="M21.759,11.27 L21.759,14.2 C21.759,11.99 20.289,10.13 18.289,9.52 C18.809,8.23 18.969,7.2 18.709,6.35 C18.689,6.26 18.659,6.18 18.619,6.09 C20.489,7.06 21.759,9.03 21.759,11.27 Z"/>
  <path fill="#292D32" d="M14.5,16.75 L9.5,16.75 C9.09,16.75 8.75,16.41 8.75,16 C8.75,15.59 9.09,15.25 9.5,15.25 L14.5,15.25 C14.91,15.25 15.25,15.59 15.25,16 C15.25,16.41 14.91,16.75 14.5,16.75 Z"/>
</svg>

