<svg xmlns="http://www.w3.org/2000/svg" width="24" height="24" viewBox="0 0 24 24">
  <defs/>
  <path fill="#292D32" opacity="0.4" d="M22,12 L22,17 C22,20 20,22 17,22 L7,22 C4,22 2,20 2,17 L2,12 C2,9.28 3.64,7.38 6.19,7.06 C6.45,7.02 6.72,7 7,7 L17,7 C17.26,7 17.51,7.01 17.75,7.05 C20.33,7.35 22,9.26 22,12 Z"/>
  <path fill="#292D32" d="M17.75,7.05 C17.509,7.01 17.259,7 17,7 L6.999,7 C6.719,7 6.449,7.02 6.189,7.06 C6.329,6.78 6.529,6.52 6.769,6.28 L10.02,3.02 C11.389,1.66 13.61,1.66 14.979,3.02 L16.73,4.79 C17.369,5.42 17.709,6.22 17.75,7.05 Z"/>
  <path fill="#292D32" d="M22,12.5 L19,12.5 C17.9,12.5 17,13.4 17,14.5 C17,15.6 17.9,16.5 19,16.5 L22,16.5"/>
</svg>

