<svg xmlns="http://www.w3.org/2000/svg" width="24" height="24" viewBox="0 0 24 24">
  <defs/>
  <path fill="#292D32" d="M22.75,12 L22.75,17 Q22.75,22.75 17,22.75 L7,22.75 Q1.25,22.75 1.25,17 L1.25,12 Q1.25,6.929 6.086,6.317 Q6.528,6.25 7,6.25 L17,6.25 Q17.499,6.25 17.854,6.307 Q22.75,6.885 22.75,12 Z M21.25,12 Q21.25,8.212 17.663,7.795 Q17.645,7.793 17.627,7.79 Q17.388,7.75 17,7.75 L7,7.75 Q6.637,7.75 6.304,7.801 Q6.294,7.803 6.283,7.804 Q2.75,8.248 2.75,12 L2.75,17 Q2.75,21.25 7,21.25 L17,21.25 Q21.25,21.25 21.25,17 Z"/>
  <path fill="#292D32" opacity="0.4" d="M17.626,7.79 Q17.387,7.75 17,7.75 L6.999,7.75 Q6.637,7.75 6.303,7.801 Q5.996,7.849 5.746,7.665 Q5.495,7.481 5.448,7.174 Q5.412,6.938 5.519,6.725 Q5.773,6.216 6.239,5.75 L9.488,2.49 Q10.738,1.25 12.5,1.25 Q14.261,1.25 15.508,2.488 L17.263,4.263 Q18.421,5.403 18.499,7.014 Q18.514,7.324 18.305,7.554 Q18.096,7.784 17.786,7.799 Q17.705,7.803 17.626,7.79 Z M16.825,6.25 Q16.624,5.738 16.196,5.317 L14.451,3.552 Q12.5,1.615 10.551,3.55 L7.858,6.25 L16.825,6.25 Z"/>
  <path fill="#292D32" opacity="0.4" d="M22,13.25 L19,13.25 Q18.486,13.25 18.118,13.618 Q17.75,13.986 17.75,14.5 Q17.75,15.75 19,15.75 L22,15.75 Q22.311,15.75 22.53,15.97 Q22.75,16.189 22.75,16.5 Q22.75,16.811 22.53,17.03 Q22.311,17.25 22,17.25 L19,17.25 Q16.25,17.25 16.25,14.5 Q16.25,11.75 19,11.75 L22,11.75 Q22.311,11.75 22.53,11.97 Q22.75,12.189 22.75,12.5 Q22.75,12.811 22.53,13.03 Q22.311,13.25 22,13.25 Z"/>
</svg>

