<svg xmlns="http://www.w3.org/2000/svg" width="24" height="24" viewBox="0 0 24 24">
  <defs/>
  <path fill="#292D32" d="M20.97,16.08 C20.73,18.75 18.8,20.5 16,20.5 L7,20.5 C4.24,20.5 2,18.26 2,15.5 L2,8.5 C2,5.78 3.64,3.88 6.19,3.56 C6.45,3.52 6.72,3.5 7,3.5 L16,3.5 C16.26,3.5 16.51,3.51 16.75,3.55 C19.14,3.83 20.76,5.5 20.97,7.92 C21,8.21 20.76,8.45 20.47,8.45 L18.92,8.45 C17.96,8.45 17.07,8.82 16.43,9.48 C15.67,10.22 15.29,11.26 15.38,12.3 C15.54,14.12 17.14,15.55 19.04,15.55 L20.47,15.55 C20.76,15.55 21,15.79 20.97,16.08 Z"/>
  <path fill="#292D32" d="M22,10.969 L22,13.029 C22,13.579 21.56,14.029 21,14.049 L19.04,14.049 C17.96,14.049 16.97,13.259 16.88,12.179 C16.82,11.549 17.06,10.959 17.48,10.549 C17.85,10.169 18.36,9.949 18.92,9.949 L21,9.949 C21.56,9.969 22,10.419 22,10.969 Z"/>
</svg>

