<svg xmlns="http://www.w3.org/2000/svg" width="24" height="24" viewBox="0 0 24 24">
  <defs/>
  <path fill="#292D32" opacity="0.4" d="M13,9.75 L7,9.75 Q6.689,9.75 6.47,9.53 Q6.25,9.311 6.25,9 Q6.25,8.689 6.47,8.47 Q6.689,8.25 7,8.25 L13,8.25 Q13.311,8.25 13.53,8.47 Q13.75,8.689 13.75,9 Q13.75,9.311 13.53,9.53 Q13.311,9.75 13,9.75 Z"/>
  <path fill="#292D32" d="M22.75,10.97 L22.75,13.03 Q22.75,14.738 21.027,14.8 Q21.014,14.8 21,14.8 L19.04,14.8 Q16.346,14.8 16.133,12.242 Q16.009,10.943 16.95,10.02 Q17.753,9.2 18.92,9.2 L21,9.2 Q21.014,9.2 21.027,9.201 Q22.75,9.262 22.75,10.97 Z M21.25,10.97 Q21.25,10.715 20.984,10.7 L18.92,10.7 Q18.381,10.7 18.018,11.073 Q18.011,11.08 18.004,11.087 Q17.57,11.511 17.628,12.118 Q17.726,13.3 19.04,13.3 L20.984,13.3 Q21.25,13.286 21.25,13.03 Z"/>
  <path fill="#292D32" d="M18.004,11.087 Q17.57,11.511 17.627,12.109 Q17.726,13.3 19.04,13.3 L21,13.3 Q21.311,13.3 21.53,13.52 Q21.75,13.739 21.75,14.05 L21.75,15.5 Q21.75,21.25 16,21.25 L7,21.25 Q1.25,21.25 1.25,15.5 L1.25,8.5 Q1.25,3.429 6.086,2.817 Q6.528,2.75 7,2.75 L16,2.75 Q16.499,2.75 16.854,2.807 Q21.75,3.385 21.75,8.5 L21.75,9.95 Q21.75,10.261 21.53,10.48 Q21.311,10.7 21,10.7 L18.92,10.7 Q18.381,10.7 18.017,11.073 Q18.011,11.08 18.004,11.087 Z M16.949,10.02 Q17.753,9.2 18.92,9.2 L20.25,9.2 L20.25,8.5 Q20.25,4.712 16.663,4.295 Q16.645,4.293 16.627,4.29 Q16.388,4.25 16,4.25 L7,4.25 Q6.637,4.25 6.304,4.301 Q6.294,4.303 6.283,4.304 Q2.75,4.748 2.75,8.5 L2.75,15.5 Q2.75,19.75 7,19.75 L16,19.75 Q20.25,19.75 20.25,15.5 L20.25,14.8 L19.04,14.8 Q16.346,14.8 16.133,12.251 Q16.009,10.943 16.949,10.02 Z"/>
</svg>

