<svg xmlns="http://www.w3.org/2000/svg" width="24" height="24" viewBox="0 0 24 24">
  <defs/>
  <path fill="#292D32" d="M5.2,10.46 C5.01,10.46 4.81,10.38 4.67,10.24 C4.46,10.02 4.39,9.7 4.51,9.42 L6.37,4.98 C6.41,4.89 6.43,4.83 6.46,4.78 C7.94,1.37 9.83,0.54 13.17,1.82 C13.36,1.89 13.51,2.04 13.59,2.23 C13.67,2.42 13.67,2.63 13.59,2.82 L10.66,9.62 C10.54,9.9 10.27,10.07 9.97,10.07 L7.12,10.07 C6.55,10.07 6.01,10.18 5.49,10.4 C5.4,10.44 5.3,10.46 5.2,10.46 Z M10.61,2.75 C9.37,2.75 8.61,3.56 7.82,5.4 C7.81,5.43 7.79,5.46 7.78,5.49 L6.47,8.6 C6.69,8.58 6.9,8.57 7.12,8.57 L9.47,8.57 L11.88,2.97 C11.41,2.82 10.99,2.75 10.61,2.75 Z"/>
  <path fill="#292D32" d="M18.29,10.27 C18.22,10.27 18.14,10.26 18.07,10.24 C17.69,10.13 17.29,10.07 16.87,10.07 L9.97,10.07 C9.72,10.07 9.48,9.94 9.34,9.73 C9.21,9.52 9.18,9.25 9.28,9.02 L12.18,2.29 C12.33,1.93 12.77,1.68 13.14,1.81 C13.26,1.85 13.37,1.9 13.49,1.95 L15.85,2.94 C17.23,3.51 18.15,4.11 18.75,4.83 C18.87,4.97 18.97,5.12 19.07,5.28 C19.18,5.45 19.28,5.65 19.35,5.86 C19.38,5.93 19.43,6.06 19.46,6.2 C19.74,7.15 19.6,8.31 19,9.81 C18.87,10.09 18.59,10.27 18.29,10.27 Z M11.11,8.57 L16.88,8.57 C17.2,8.57 17.51,8.6 17.82,8.65 C18.1,7.78 18.16,7.11 18,6.57 C17.98,6.48 17.96,6.44 17.95,6.4 C17.89,6.24 17.85,6.15 17.8,6.07 C17.73,5.96 17.68,5.87 17.6,5.78 C17.17,5.26 16.41,4.78 15.27,4.31 L13.3,3.49 L11.11,8.57 Z"/>
  <path fill="#292D32" d="M15.9,22.75 L8.1,22.75 C7.82,22.75 7.56,22.73 7.3,22.7 C3.79,22.47 1.79,20.46 1.55,16.91 C1.52,16.69 1.5,16.42 1.5,16.15 L1.5,14.2 C1.5,11.95 2.84,9.92 4.91,9.02 C5.62,8.72 6.36,8.57 7.13,8.57 L16.89,8.57 C17.46,8.57 18.01,8.65 18.52,8.81 C20.87,9.52 22.52,11.74 22.52,14.2 L22.52,16.15 C22.52,16.37 22.51,16.58 22.5,16.78 C22.28,20.69 20,22.75 15.9,22.75 Z M7.12,10.07 C6.55,10.07 6.01,10.18 5.49,10.4 C3.97,11.06 2.99,12.55 2.99,14.2 L2.99,16.15 C2.99,16.36 3.01,16.57 3.03,16.77 C3.22,19.62 4.62,21.02 7.43,21.21 C7.68,21.24 7.88,21.26 8.09,21.26 L15.89,21.26 C19.19,21.26 20.81,19.81 20.97,16.71 C20.98,16.53 20.99,16.35 20.99,16.15 L20.99,14.2 C20.99,12.39 19.78,10.77 18.06,10.24 C17.68,10.13 17.28,10.07 16.86,10.07 L7.12,10.07 Z"/>
  <path fill="#292D32" d="M2.24,14.95 C1.83,14.95 1.49,14.61 1.49,14.2 L1.49,11.27 C1.49,8.12 3.72,5.4 6.8,4.8 C7.07,4.75 7.35,4.85 7.53,5.06 C7.7,5.27 7.75,5.57 7.64,5.82 L5.89,10 C5.81,10.18 5.67,10.32 5.5,10.4 C3.98,11.06 3,12.55 3,14.2 C2.99,14.61 2.66,14.95 2.24,14.95 Z M5.6,6.82 C4.32,7.54 3.39,8.8 3.1,10.27 C3.54,9.82 4.05,9.44 4.63,9.16 L5.6,6.82 Z"/>
  <path fill="#292D32" d="M21.759,14.95 C21.349,14.95 21.009,14.61 21.009,14.2 C21.009,12.39 19.799,10.77 18.079,10.24 C17.879,10.18 17.709,10.04 17.619,9.85 C17.529,9.66 17.519,9.44 17.599,9.25 C18.069,8.08 18.189,7.23 17.999,6.57 C17.979,6.48 17.959,6.44 17.949,6.4 C17.819,6.11 17.889,5.77 18.119,5.55 C18.349,5.33 18.699,5.28 18.979,5.43 C21.159,6.57 22.509,8.81 22.509,11.27 L22.509,14.2 C22.509,14.61 22.169,14.95 21.759,14.95 Z M19.249,9.09 C19.879,9.38 20.439,9.79 20.909,10.28 C20.719,9.3 20.249,8.41 19.559,7.71 C19.509,8.13 19.409,8.59 19.249,9.09 Z"/>
</svg>

