<svg xmlns="http://www.w3.org/2000/svg" width="24" height="24" viewBox="0 0 24 24">
  <defs/>
  <path fill="#292D32" d="M12,21.25 L17,21.25 Q21.25,21.25 21.25,17 L21.25,12 Q21.25,8.193 17.754,7.75 L7,7.75 Q6.622,7.75 6.437,7.811 Q6.363,7.836 6.286,7.845 Q2.75,8.253 2.75,12 L2.75,13 Q2.75,13.311 2.53,13.53 Q2.311,13.75 2,13.75 Q1.689,13.75 1.47,13.53 Q1.25,13.311 1.25,13 L1.25,12 Q1.25,6.953 6.044,6.363 Q6.438,6.25 7,6.25 L17.8,6.25 Q17.845,6.25 17.889,6.255 Q22.75,6.839 22.75,12 L22.75,17 Q22.75,22.75 17,22.75 L12,22.75 Q11.689,22.75 11.47,22.53 Q11.25,22.311 11.25,22 Q11.25,21.689 11.47,21.47 Q11.689,21.25 12,21.25 Z"/>
  <path fill="#292D32" d="M17.8,7.75 L7,7.75 Q6.622,7.75 6.437,7.811 Q6.142,7.91 5.865,7.771 Q5.587,7.632 5.488,7.337 Q5.409,7.1 5.488,6.863 Q5.644,6.395 6.27,5.77 L6.27,5.77 L9.462,2.478 Q10.985,0.954 12.506,0.957 Q14.019,0.959 15.53,2.47 L17.33,4.27 Q18.341,5.28 18.544,6.907 Q18.583,7.215 18.392,7.46 Q18.201,7.706 17.893,7.744 Q17.847,7.75 17.8,7.75 Z M16.854,6.25 Q16.649,5.709 16.27,5.33 L14.47,3.53 Q12.5,1.561 10.538,3.522 L7.893,6.25 L16.854,6.25 Z"/>
  <path fill="#292D32" d="M22,13.25 L19,13.25 Q18.486,13.25 18.118,13.618 Q17.75,13.986 17.75,14.5 Q17.75,15.75 19,15.75 L22,15.75 Q22.311,15.75 22.53,15.97 Q22.75,16.189 22.75,16.5 Q22.75,16.811 22.53,17.03 Q22.311,17.25 22,17.25 L19,17.25 Q16.25,17.25 16.25,14.5 Q16.25,11.75 19,11.75 L22,11.75 Q22.311,11.75 22.53,11.97 Q22.75,12.189 22.75,12.5 Q22.75,12.811 22.53,13.03 Q22.311,13.25 22,13.25 Z"/>
  <path fill="#292D32" d="M5.802,22.15 Q4.163,22.15 3.007,20.994 Q1.852,19.838 1.852,18.2 Q1.852,14.25 5.802,14.25 Q9.752,14.25 9.752,18.2 Q9.752,19.838 8.596,20.994 Q7.44,22.15 5.802,22.15 Z M5.802,20.65 Q8.252,20.65 8.252,18.2 Q8.252,15.75 5.802,15.75 Q3.352,15.75 3.352,18.2 Q3.352,19.217 4.068,19.933 Q4.785,20.65 5.802,20.65 Z"/>
  <path fill="#292D32" d="M1.47,21.47 L2.47,20.47 Q2.689,20.25 3,20.25 Q3.311,20.25 3.53,20.47 Q3.75,20.689 3.75,21 Q3.75,21.311 3.53,21.53 L2.53,22.53 Q2.311,22.75 2,22.75 Q1.689,22.75 1.47,22.53 Q1.25,22.311 1.25,22 Q1.25,21.689 1.47,21.47 Z"/>
</svg>

