<svg xmlns="http://www.w3.org/2000/svg" width="24" height="24" viewBox="0 0 24 24">
  <defs/>
  <path fill="#292D32" d="M22,12.622 L22,14.682 C22,15.242 21.54,15.702 20.97,15.702 L19.04,15.702 C17.96,15.702 16.97,14.912 16.88,13.832 C16.82,13.202 17.06,12.612 17.48,12.202 C17.85,11.822 18.36,11.602 18.92,11.602 L20.97,11.602 C21.54,11.602 22,12.062 22,12.622 Z"/>
  <path fill="#292D32" d="M15.38,13.958 C15.29,12.908 15.67,11.878 16.43,11.128 C17.07,10.478 17.96,10.098 18.92,10.098 L19.49,10.098 C19.77,10.098 20,9.868 19.96,9.588 C19.69,7.648 18.01,6.148 16,6.148 L6,6.148 C3.79,6.148 2,7.938 2,10.148 L2,17.148 C2,19.358 3.79,21.148 6,21.148 L16,21.148 C18.02,21.148 19.69,19.648 19.96,17.708 C20,17.428 19.77,17.198 19.49,17.198 L19.04,17.198 C17.14,17.198 15.54,15.778 15.38,13.958 Z M13,11.898 L7,11.898 C6.59,11.898 6.25,11.568 6.25,11.148 C6.25,10.728 6.59,10.398 7,10.398 L13,10.398 C13.41,10.398 13.75,10.738 13.75,11.148 C13.75,11.558 13.41,11.898 13,11.898 Z"/>
  <path fill="#292D32" d="M14.211,3.982 C14.471,4.252 14.241,4.652 13.861,4.652 L6.031,4.652 C4.941,4.652 3.921,4.972 3.071,5.522 C2.681,5.772 2.151,5.502 2.341,5.072 C2.901,3.762 4.211,2.852 5.721,2.852 L11.341,2.852 C12.501,2.852 13.531,3.262 14.211,3.982 Z"/>
</svg>

