<svg xmlns="http://www.w3.org/2000/svg" width="24" height="24" viewBox="0 0 24 24">
  <defs/>
  <path fill="#292D32" d="M6.076,6.319 Q6.523,6.25 7,6.25 L17,6.25 Q17.499,6.25 17.854,6.307 Q22.75,6.885 22.75,12 L22.75,17 Q22.75,22.75 17,22.75 L7.63,22.75 Q7.319,22.75 7.1,22.53 Q6.88,22.311 6.88,22 Q6.88,21.65 7.148,21.425 Q7.521,21.112 7.772,20.682 Q7.777,20.674 7.782,20.666 Q8.25,19.907 8.25,19 Q8.25,15.75 5,15.75 Q3.535,15.75 2.563,16.855 Q2.358,17.089 2.048,17.108 Q1.738,17.128 1.505,16.923 Q1.25,16.699 1.25,16.36 L1.25,12 Q1.25,10.542 1.799,9.355 Q1.93,9.073 2.221,8.966 Q2.513,8.859 2.795,8.989 Q3.077,9.12 3.184,9.411 Q3.291,9.703 3.161,9.985 Q2.75,10.873 2.75,12 L2.75,14.797 Q3.753,14.25 5,14.25 Q6.968,14.25 8.359,15.641 Q9.75,17.032 9.75,19 Q9.75,20.212 9.177,21.25 L17,21.25 Q21.25,21.25 21.25,17 L21.25,12 Q21.25,8.212 17.663,7.795 Q17.645,7.793 17.627,7.79 Q17.388,7.75 17,7.75 L7,7.75 Q6.637,7.75 6.304,7.801 Q5.997,7.849 5.746,7.665 Q5.496,7.481 5.449,7.174 Q5.401,6.867 5.585,6.616 Q5.769,6.366 6.076,6.319 Z"/>
  <path fill="#292D32" d="M17.626,7.79 Q17.387,7.75 17,7.75 L6.999,7.75 Q6.637,7.75 6.303,7.801 Q5.996,7.848 5.746,7.665 Q5.495,7.481 5.448,7.174 Q5.412,6.938 5.519,6.725 Q5.773,6.216 6.239,5.75 L9.488,2.49 Q10.738,1.25 12.5,1.25 Q14.261,1.25 15.508,2.488 L17.263,4.263 Q18.421,5.403 18.499,7.014 Q18.514,7.324 18.305,7.554 Q18.096,7.784 17.786,7.799 Q17.705,7.803 17.626,7.79 Z M16.825,6.25 Q16.624,5.738 16.196,5.317 L14.451,3.552 Q12.5,1.615 10.551,3.55 L7.858,6.25 L16.825,6.25 Z"/>
  <path fill="#292D32" d="M9.75,19 Q9.75,20.332 9.058,21.454 Q7.693,23.75 5,23.75 Q2.307,23.75 0.935,21.443 Q0.25,20.332 0.25,19 Q0.25,17.032 1.641,15.641 Q3.032,14.25 5,14.25 Q6.968,14.25 8.359,15.641 Q9.75,17.032 9.75,19 Z M8.25,19 Q8.25,17.653 7.298,16.702 Q6.347,15.75 5,15.75 Q1.75,15.75 1.75,19 Q1.75,19.907 2.225,20.677 Q3.16,22.25 5,22.25 Q6.84,22.25 7.782,20.666 Q8.25,19.907 8.25,19 Z"/>
  <path fill="#292D32" d="M6.49,19.73 L3.51,19.73 Q3.199,19.73 2.979,19.51 Q2.76,19.291 2.76,18.98 Q2.76,18.669 2.979,18.45 Q3.199,18.23 3.51,18.23 L6.49,18.23 Q6.8,18.23 7.02,18.45 Q7.24,18.669 7.24,18.98 Q7.24,19.291 7.02,19.51 Q6.8,19.73 6.49,19.73 Z"/>
  <path fill="#292D32" d="M5.75,17.52 L5.75,20.51 Q5.75,20.821 5.53,21.04 Q5.311,21.26 5,21.26 Q4.689,21.26 4.47,21.04 Q4.25,20.821 4.25,20.51 L4.25,17.52 Q4.25,17.209 4.47,16.99 Q4.689,16.77 5,16.77 Q5.311,16.77 5.53,16.99 Q5.75,17.209 5.75,17.52 Z"/>
  <path fill="#292D32" d="M22,13.25 L19,13.25 Q18.486,13.25 18.118,13.618 Q17.75,13.986 17.75,14.5 Q17.75,15.75 19,15.75 L22,15.75 Q22.311,15.75 22.53,15.97 Q22.75,16.189 22.75,16.5 Q22.75,16.811 22.53,17.03 Q22.311,17.25 22,17.25 L19,17.25 Q16.25,17.25 16.25,14.5 Q16.25,11.75 19,11.75 L22,11.75 Q22.311,11.75 22.53,11.97 Q22.75,12.189 22.75,12.5 Q22.75,12.811 22.53,13.03 Q22.311,13.25 22,13.25 Z"/>
</svg>

