<svg xmlns="http://www.w3.org/2000/svg" width="24" height="24" viewBox="0 0 24 24">
  <defs/>
  <path fill="#292D32" opacity="0.4" d="M17.48,10.55 C17.06,10.96 16.82,11.55 16.88,12.18 C16.97,13.26 17.96,14.05 19.04,14.05 L21,14.05 L21,15.5 C21,18.5 19,20.5 16,20.5 L7,20.5 C4,20.5 2,18.5 2,15.5 L2,8.5 C2,5.78 3.64,3.88 6.19,3.56 C6.45,3.52 6.72,3.5 7,3.5 L16,3.5 C16.26,3.5 16.51,3.51 16.75,3.55 C19.33,3.85 21,5.76 21,8.5 L21,9.95 L18.92,9.95 C18.36,9.95 17.85,10.17 17.48,10.55 Z"/>
  <path fill="#292D32" d="M22,10.97 L22,13.03 C22,13.58 21.56,14.03 21,14.05 L19.04,14.05 C17.96,14.05 16.97,13.26 16.88,12.18 C16.82,11.55 17.06,10.96 17.48,10.55 C17.85,10.17 18.36,9.95 18.92,9.95 L21,9.95 C21.56,9.97 22,10.42 22,10.97 Z"/>
</svg>

