<svg xmlns="http://www.w3.org/2000/svg" width="24" height="24" viewBox="0 0 24 24">
  <defs/>
  <path fill="#292D32" d="M22.75,12 L22.75,17 Q22.75,22.75 17,22.75 L7,22.75 Q1.25,22.75 1.25,17 L1.25,12 Q1.25,6.929 6.086,6.317 Q6.528,6.25 7,6.25 L17,6.25 Q17.499,6.25 17.854,6.307 Q22.75,6.885 22.75,12 Z M21.25,12 Q21.25,8.212 17.663,7.795 Q17.645,7.793 17.627,7.79 Q17.388,7.75 17,7.75 L7,7.75 Q6.637,7.75 6.304,7.801 Q6.294,7.803 6.283,7.804 Q2.75,8.248 2.75,12 L2.75,17 Q2.75,21.25 7,21.25 L17,21.25 Q21.25,21.25 21.25,17 Z"/>
  <path fill="#292D32" d="M17.628,7.79 Q17.389,7.75 17.001,7.75 L7.001,7.75 Q6.639,7.75 6.305,7.801 Q5.998,7.849 5.748,7.665 Q5.497,7.481 5.45,7.174 Q5.414,6.938 5.521,6.725 Q5.775,6.216 6.241,5.75 L9.49,2.49 Q10.74,1.25 12.501,1.25 Q14.263,1.25 15.51,2.488 L17.265,4.263 Q18.423,5.403 18.501,7.014 Q18.515,7.324 18.307,7.554 Q18.098,7.784 17.788,7.799 Q17.707,7.803 17.628,7.79 Z M16.827,6.25 Q16.626,5.738 16.198,5.317 L14.453,3.552 Q12.501,1.615 10.553,3.55 L7.86,6.25 L16.827,6.25 Z"/>
  <path fill="#292D32" d="M22,13.25 L19,13.25 Q18.486,13.25 18.118,13.618 Q17.75,13.986 17.75,14.5 Q17.75,15.75 19,15.75 L22,15.75 Q22.311,15.75 22.53,15.97 Q22.75,16.189 22.75,16.5 Q22.75,16.811 22.53,17.03 Q22.311,17.25 22,17.25 L19,17.25 Q16.25,17.25 16.25,14.5 Q16.25,11.75 19,11.75 L22,11.75 Q22.311,11.75 22.53,11.97 Q22.75,12.189 22.75,12.5 Q22.75,12.811 22.53,13.03 Q22.311,13.25 22,13.25 Z"/>
</svg>

