<svg xmlns="http://www.w3.org/2000/svg" width="24" height="24" viewBox="0 0 24 24">
  <defs/>
  <path fill="#292D32" d="M13.589,2.816 L13.559,2.886 L10.658,9.617 Q10.463,10.07 9.969,10.07 L7.119,10.07 Q6.272,10.07 5.492,10.401 Q5.206,10.522 4.918,10.405 Q4.63,10.289 4.509,10.003 Q4.385,9.712 4.507,9.42 L6.257,5.24 L6.293,5.152 Q6.297,5.14 6.302,5.129 L6.36,4.998 Q6.405,4.867 6.454,4.773 Q8.517,0.041 13.167,1.82 Q13.457,1.931 13.584,2.214 Q13.711,2.498 13.6,2.788 Q13.594,2.802 13.589,2.816 Z M11.881,2.988 Q9.135,2.352 7.818,5.398 Q7.798,5.443 7.772,5.486 L7.771,5.507 Q7.76,5.54 7.746,5.571 L7.681,5.72 L7.641,5.82 L6.474,8.606 Q6.793,8.57 7.119,8.57 L9.476,8.57 L11.881,2.988 Z"/>
  <path fill="#292D32" d="M18.068,10.236 Q17.534,10.07 16.881,10.07 L9.971,10.07 Q9.66,10.07 9.44,9.85 Q9.221,9.631 9.221,9.32 Q9.221,9.165 9.282,9.023 L12.182,2.293 L12.211,2.225 Q12.327,1.956 12.593,1.836 Q12.86,1.716 13.138,1.809 Q13.264,1.851 13.476,1.943 Q13.574,1.986 13.619,2.004 L15.842,2.939 Q17.891,3.788 18.743,4.837 Q18.933,5.065 19.057,5.288 Q19.235,5.571 19.319,5.848 Q19.381,5.998 19.422,6.153 Q19.874,7.599 18.986,9.8 Q18.877,10.072 18.612,10.198 Q18.348,10.323 18.068,10.236 Z M17.814,8.641 Q18.232,7.354 17.987,6.59 Q17.979,6.566 17.973,6.542 Q17.956,6.474 17.925,6.405 Q17.901,6.35 17.886,6.293 Q17.862,6.204 17.78,6.076 Q17.764,6.051 17.75,6.026 Q17.695,5.923 17.579,5.783 Q16.966,5.029 15.26,4.321 L13.297,3.495 L11.111,8.57 L16.881,8.57 Q17.367,8.57 17.814,8.641 Z"/>
  <path fill="#292D32" d="M12,22.75 L8.1,22.75 Q7.735,22.75 7.317,22.697 Q1.921,22.329 1.553,16.933 Q1.5,16.515 1.5,16.15 L1.5,14.2 Q1.5,10.493 4.913,9.021 Q5.996,8.57 7.13,8.57 L16.89,8.57 Q17.732,8.57 18.513,8.801 Q22.51,10 22.51,14.19 L22.51,16.14 Q22.51,16.359 22.489,16.778 Q22.165,22.75 15.9,22.75 Q15.589,22.75 15.37,22.53 Q15.15,22.311 15.15,22 Q15.15,21.689 15.37,21.47 Q15.589,21.25 15.9,21.25 Q20.744,21.25 20.991,16.703 Q21.01,16.321 21.01,16.14 L21.01,14.19 Q21.01,11.116 18.087,10.239 Q17.515,10.07 16.89,10.07 L7.13,10.07 Q6.296,10.07 5.507,10.399 Q3,11.479 3,14.2 L3,16.15 Q3,16.428 3.044,16.763 Q3.047,16.787 3.048,16.811 Q3.32,20.93 7.439,21.202 Q7.463,21.203 7.487,21.206 Q7.822,21.25 8.1,21.25 L12,21.25 Q12.311,21.25 12.53,21.47 Q12.75,21.689 12.75,22 Q12.75,22.311 12.53,22.53 Q12.311,22.75 12,22.75 Z"/>
  <path fill="#292D32" d="M7.642,5.82 L5.892,10 Q5.775,10.279 5.497,10.399 Q2.99,11.479 2.99,14.2 Q2.99,14.511 2.771,14.73 Q2.551,14.95 2.24,14.95 Q1.93,14.95 1.71,14.73 Q1.49,14.511 1.49,14.2 L1.49,11.27 Q1.49,5.841 6.805,4.794 Q7.11,4.734 7.368,4.907 Q7.626,5.08 7.686,5.385 Q7.73,5.609 7.642,5.82 Z M3.066,10.194 Q3.712,9.585 4.622,9.149 L5.641,6.714 Q3.438,7.699 3.066,10.194 Z"/>
  <path fill="#292D32" d="M22.511,11.27 L22.511,14.2 Q22.511,14.511 22.291,14.73 Q22.071,14.95 21.761,14.95 Q21.45,14.95 21.23,14.73 Q21.011,14.511 21.011,14.2 Q21.011,11.126 18.085,10.248 Q17.788,10.159 17.64,9.886 Q17.493,9.612 17.582,9.315 Q17.592,9.283 17.604,9.252 Q18.287,7.544 18.001,6.572 Q17.994,6.547 17.989,6.523 Q17.977,6.469 17.96,6.436 Q17.821,6.158 17.919,5.863 Q18.018,5.568 18.295,5.429 Q18.636,5.259 18.975,5.434 Q22.511,7.259 22.511,11.27 Z M19.562,7.651 Q19.5,8.315 19.26,9.075 Q20.222,9.473 20.899,10.084 Q20.608,8.633 19.562,7.651 Z"/>
</svg>

