<svg xmlns="http://www.w3.org/2000/svg" width="24" height="24" viewBox="0 0 24 24">
  <defs/>
  <path fill="#292D32" d="M13,9.75 L7,9.75 C6.59,9.75 6.25,9.41 6.25,9 C6.25,8.59 6.59,8.25 7,8.25 L13,8.25 C13.41,8.25 13.75,8.59 13.75,9 C13.75,9.41 13.41,9.75 13,9.75 Z"/>
  <path fill="#292D32" d="M19.04,14.8 C17.53,14.8 16.25,13.68 16.13,12.24 C16.05,11.41 16.35,10.6 16.95,10.01 C17.45,9.49 18.16,9.2 18.91,9.2 L21,9.2 C21.99,9.23 22.75,10.01 22.75,10.97 L22.75,13.03 C22.75,13.99 21.99,14.77 21.03,14.8 L19.04,14.8 Z M20.97,10.7 L18.92,10.7 C18.57,10.7 18.25,10.83 18.02,11.07 C17.73,11.35 17.59,11.73 17.63,12.11 C17.68,12.77 18.32,13.3 19.04,13.3 L21,13.3 C21.13,13.3 21.25,13.18 21.25,13.03 L21.25,10.97 C21.25,10.82 21.13,10.71 20.97,10.7 Z"/>
  <path fill="#292D32" d="M16,21.25 L7,21.25 C3.56,21.25 1.25,18.94 1.25,15.5 L1.25,8.5 C1.25,5.42 3.15,3.19 6.1,2.82 C6.37,2.78 6.68,2.75 7,2.75 L16,2.75 C16.24,2.75 16.55,2.76 16.87,2.81 C19.82,3.15 21.75,5.39 21.75,8.5 L21.75,9.95 C21.75,10.36 21.41,10.7 21,10.7 L18.92,10.7 C18.57,10.7 18.25,10.83 18.02,11.07 L18.01,11.08 C17.73,11.35 17.6,11.72 17.63,12.1 C17.68,12.76 18.32,13.29 19.04,13.29 L21,13.29 C21.41,13.29 21.75,13.63 21.75,14.04 L21.75,15.49 C21.75,18.94 19.44,21.25 16,21.25 Z M7,4.25 C6.76,4.25 6.53,4.27 6.3,4.3 C4.1,4.58 2.75,6.18 2.75,8.5 L2.75,15.5 C2.75,18.08 4.42,19.75 7,19.75 L16,19.75 C18.58,19.75 20.25,18.08 20.25,15.5 L20.25,14.8 L19.04,14.8 C17.53,14.8 16.25,13.68 16.13,12.24 C16.05,11.42 16.35,10.6 16.95,10.02 C17.47,9.49 18.17,9.2 18.92,9.2 L20.25,9.2 L20.25,8.5 C20.25,6.16 18.88,4.55 16.66,4.29 C16.42,4.25 16.21,4.25 16,4.25 L7,4.25 Z"/>
</svg>

