<svg xmlns="http://www.w3.org/2000/svg" width="24" height="24" viewBox="0 0 24 24">
  <defs/>
  <path fill="#292D32" d="M7.17,22.75 C4.79,22.75 2.84,21.02 2.84,18.89 L2.84,16.85 C2.84,16.44 3.18,16.1 3.59,16.1 C4,16.1 4.34,16.44 4.34,16.85 C4.34,18.1 5.55,19.04 7.17,19.04 C8.79,19.04 10,18.1 10,16.85 C10,16.44 10.34,16.1 10.75,16.1 C11.16,16.1 11.5,16.44 11.5,16.85 L11.5,18.89 C11.5,21.02 9.56,22.75 7.17,22.75 Z M4.6,19.87 C5.04,20.69 6.03,21.25 7.17,21.25 C8.31,21.25 9.3,20.68 9.74,19.87 C9.03,20.3 8.15,20.55 7.17,20.55 C6.19,20.55 5.31,20.3 4.6,19.87 Z"/>
  <path fill="#292D32" d="M7.17,17.8 C5.53,17.8 4.06,17.05 3.33,15.86 C3.01,15.34 2.84,14.73 2.84,14.11 C2.84,13.06 3.3,12.08 4.14,11.35 C5.76,9.93 8.55,9.93 10.18,11.34 C11.02,12.08 11.49,13.06 11.49,14.11 C11.49,14.73 11.32,15.34 11,15.86 C10.28,17.05 8.81,17.8 7.17,17.8 Z M7.17,11.75 C6.39,11.75 5.67,12.01 5.13,12.48 C4.62,12.92 4.34,13.5 4.34,14.11 C4.34,14.46 4.43,14.78 4.61,15.08 C5.07,15.84 6.05,16.31 7.17,16.31 C8.29,16.31 9.27,15.84 9.72,15.09 C9.9,14.8 9.99,14.47 9.99,14.12 C9.99,13.51 9.71,12.93 9.2,12.48 C8.67,12.01 7.95,11.75 7.17,11.75 Z"/>
  <path fill="#292D32" d="M7.17,20.55 C4.7,20.55 2.84,18.96 2.84,16.86 L2.84,14.11 C2.84,11.98 4.78,10.25 7.17,10.25 C8.3,10.25 9.38,10.64 10.19,11.34 C11.03,12.08 11.5,13.06 11.5,14.11 L11.5,16.86 C11.5,18.96 9.64,20.55 7.17,20.55 Z M7.17,11.75 C5.61,11.75 4.34,12.81 4.34,14.11 L4.34,16.86 C4.34,18.11 5.55,19.05 7.17,19.05 C8.79,19.05 10,18.11 10,16.86 L10,14.11 C10,13.5 9.72,12.92 9.21,12.47 C8.67,12.01 7.95,11.75 7.17,11.75 Z"/>
  <path fill="#292D32" d="M19.04,14.8 C17.53,14.8 16.25,13.68 16.13,12.24 C16.05,11.41 16.35,10.6 16.95,10.01 C17.45,9.49 18.16,9.2 18.91,9.2 L21,9.2 C21.99,9.23 22.75,10.01 22.75,10.97 L22.75,13.03 C22.75,13.99 21.99,14.77 21.03,14.8 L19.04,14.8 Z M20.97,10.7 L18.92,10.7 C18.57,10.7 18.25,10.83 18.02,11.07 C17.73,11.35 17.59,11.73 17.63,12.11 C17.68,12.77 18.32,13.3 19.04,13.3 L21,13.3 C21.13,13.3 21.25,13.18 21.25,13.03 L21.25,10.97 C21.25,10.82 21.13,10.71 20.97,10.7 Z"/>
  <path fill="#292D32" d="M16,21.25 L13.5,21.25 C13.09,21.25 12.75,20.91 12.75,20.5 C12.75,20.09 13.09,19.75 13.5,19.75 L16,19.75 C18.58,19.75 20.25,18.08 20.25,15.5 L20.25,14.8 L19.04,14.8 C17.53,14.8 16.25,13.68 16.13,12.24 C16.05,11.41 16.35,10.6 16.95,10.01 C17.45,9.49 18.16,9.2 18.91,9.2 L20.24,9.2 L20.24,8.5 C20.24,6.16 18.87,4.55 16.65,4.29 C16.41,4.25 16.2,4.25 15.99,4.25 L6.99,4.25 C6.75,4.25 6.52,4.27 6.29,4.3 C4.09,4.58 2.74,6.18 2.74,8.5 L2.74,10.5 C2.74,10.91 2.4,11.25 1.99,11.25 C1.58,11.25 1.24,10.91 1.24,10.5 L1.24,8.5 C1.24,5.42 3.14,3.19 6.09,2.82 C6.36,2.78 6.67,2.75 6.99,2.75 L15.99,2.75 C16.23,2.75 16.54,2.76 16.86,2.81 C19.81,3.15 21.74,5.39 21.74,8.5 L21.74,9.95 C21.74,10.36 21.4,10.7 20.99,10.7 L18.91,10.7 C18.56,10.7 18.24,10.83 18.01,11.07 C17.72,11.35 17.58,11.73 17.62,12.11 C17.67,12.77 18.31,13.3 19.03,13.3 L21,13.3 C21.41,13.3 21.75,13.64 21.75,14.05 L21.75,15.5 C21.75,18.94 19.44,21.25 16,21.25 Z"/>
</svg>

