<svg xmlns="http://www.w3.org/2000/svg" width="24" height="24" viewBox="0 0 24 24">
  <defs/>
  <path fill="white" opacity="0.58" d="M24,0 L0,0 L0,24 L24,24 L24,0 Z"/>
  <path fill="#292D32" opacity="0.4" d="M11.75,9.43 L8.5,15 L7.87,16.09 L5.4,20.31 C5.22,20.63 4.76,20.64 4.56,20.33 L1.18,15.28 C1.07,15.11 1.07,14.89 1.18,14.72 L4.85,9.22 C4.94,9.08 5.1,9 5.27,9 L11.5,9 L11.75,9.43 Z"/>
  <path fill="#292D32" d="M22.839,14.73 L16.139,3.25 C16.059,3.09 15.889,3 15.709,3 L8.869,3 C8.479,3 8.239,3.42 8.439,3.75 L11.499,9 L11.749,9.43 L14.559,14.25 C14.759,14.58 14.519,15 14.129,15 L8.499,15 L7.869,16.09 C8.049,15.77 8.509,15.76 8.709,16.07 L11.849,20.78 C11.939,20.92 12.099,21 12.269,21 L18.729,21 C18.899,21 19.059,20.92 19.149,20.78 L22.829,15.26 C22.929,15.1 22.939,14.9 22.839,14.73 Z"/>
</svg>

