<svg xmlns="http://www.w3.org/2000/svg" width="24" height="24" viewBox="0 0 24 24">
  <defs/>
  <path d="M12,2 C6.48,2 2,6.48 2,12 C2,17.52 6.48,22 12,22 C17.52,22 22,17.52 22,12 C22,6.48 17.52,2 12,2 Z M14.67,16.43 L12.42,17.93 C12.29,18.01 12.15,18.06 12,18.06 C11.85,18.06 11.71,18.02 11.58,17.93 L9.33,16.43 C8.99,16.2 8.89,15.73 9.12,15.39 C9.35,15.04 9.82,14.95 10.16,15.18 L11.99,16.4 L13.82,15.18 C14.16,14.95 14.63,15.04 14.86,15.39 C15.1,15.74 15.01,16.2 14.67,16.43 Z M16.5,12.99 C16.5,13.77 15.65,14.25 14.99,13.85 L12.52,12.37 C12.2,12.18 11.81,12.18 11.49,12.37 L9.02,13.85 C8.35,14.25 7.51,13.77 7.51,12.99 L7.51,9.16 C7.51,8.82 7.69,8.5 7.97,8.32 L11.47,6.1 C11.8,5.89 12.21,5.89 12.54,6.1 L16.04,8.32 C16.33,8.5 16.5,8.82 16.5,9.16 L16.5,12.99 Z"/>
</svg>

