<svg xmlns="http://www.w3.org/2000/svg" width="24" height="24" viewBox="0 0 24 24">
  <defs/>
  <path fill="#17191C" d="M15.7,2.25 Q16.698,2.25 16.83,2.965 L23.411,14.459 Q23.847,14.983 23.471,15.735 L23.449,15.779 L19.682,21.379 L19.63,21.43 Q19.211,21.85 18.7,21.85 L12.2,21.85 Q11.689,21.85 11.27,21.43 L11.216,21.376 L8.312,16.974 L6.079,20.726 Q5.814,21.375 5.038,21.375 Q4.349,21.375 3.976,20.816 L0.55,15.677 L0.529,15.635 Q0.211,15 0.529,14.365 L0.551,14.321 L4.177,8.931 Q4.326,8.25 5.3,8.25 L10.18,8.25 L7.742,4.16 L7.729,4.135 Q7.388,3.453 7.801,2.834 Q8.19,2.25 8.9,2.25 Z M9.301,15.75 Q9.313,15.767 9.324,15.784 L12.336,20.35 L18.566,20.35 L22.072,15.138 L15.551,3.75 L9.243,3.75 L12.82,9.75 L12.772,9.75 L15.138,13.806 Q15.506,14.377 15.206,15.027 Q14.872,15.75 14.1,15.75 L9.301,15.75 Z M7.849,14.628 L10.636,9.75 L5.434,9.75 L1.902,15.001 L4.987,19.628 L7.265,15.8 L7.276,15.784 Q7.287,15.767 7.299,15.75 L7.208,15.75 Z M11.707,10.9 L9.792,14.25 L13.661,14.25 L11.707,10.9 Z M15.523,3.701 L15.371,3.436 Q15.41,3.627 15.523,3.701 Z M5.459,9.712 Q5.575,9.648 5.621,9.472 L5.459,9.712 Z M22.13,15.239 Q22.148,15.281 22.18,15.327 L22.13,15.239 Z"/>
</svg>

