<svg xmlns="http://www.w3.org/2000/svg" width="24" height="24" viewBox="0 0 24 24">
  <defs/>
  <path d="M16.5,9.6 C16.37,9.6 16.24,9.57 16.11,9.49 L12,7.02 L7.89,9.49 C7.54,9.7 7.07,9.59 6.86,9.23 C6.65,8.88 6.76,8.41 7.12,8.2 L11.62,5.5 C11.86,5.36 12.15,5.36 12.39,5.5 L16.89,8.2 C17.25,8.41 17.36,8.87 17.15,9.23 C17,9.47 16.75,9.6 16.5,9.6 Z"/>
  <path d="M16.5,15.9 C16.37,15.9 16.23,15.86 16.11,15.79 L12,13.32 L7.89,15.79 C7.66,15.93 7.37,15.93 7.13,15.8 C6.9,15.67 6.75,15.42 6.75,15.15 L6.75,9 C6.75,8.59 7.09,8.25 7.5,8.25 C7.91,8.25 8.25,8.59 8.25,9 L8.25,13.83 L11.61,11.81 C11.85,11.67 12.14,11.67 12.38,11.81 L15.74,13.83 L15.74,9 C15.74,8.59 16.08,8.25 16.49,8.25 C16.9,8.25 17.24,8.59 17.24,9 L17.24,15.15 C17.24,15.42 17.09,15.67 16.86,15.8 C16.75,15.87 16.63,15.9 16.5,15.9 Z"/>
  <path d="M12,18.45 C11.85,18.45 11.71,18.41 11.58,18.32 L9.33,16.82 C8.99,16.59 8.89,16.12 9.12,15.78 C9.35,15.43 9.82,15.34 10.16,15.57 L11.99,16.79 L13.82,15.57 C14.16,15.34 14.63,15.43 14.86,15.78 C15.09,16.12 15,16.59 14.65,16.82 L12.4,18.32 C12.29,18.41 12.15,18.45 12,18.45 Z"/>
  <path d="M12,22.75 C6.07,22.75 1.25,17.93 1.25,12 C1.25,6.07 6.07,1.25 12,1.25 C17.93,1.25 22.75,6.07 22.75,12 C22.75,17.93 17.93,22.75 12,22.75 Z M12,2.75 C6.9,2.75 2.75,6.9 2.75,12 C2.75,17.1 6.9,21.25 12,21.25 C17.1,21.25 21.25,17.1 21.25,12 C21.25,6.9 17.1,2.75 12,2.75 Z"/>
</svg>

