<svg xmlns="http://www.w3.org/2000/svg" width="24" height="24" viewBox="0 0 24 24">
  <defs/>
  <path d="M17.417,3.94 L19.918,8.192 L23.506,14.346 L23.513,14.359 Q23.875,15.044 23.454,15.656 L19.768,21.186 L19.76,21.196 Q19.379,21.73 18.73,21.73 L12.27,21.73 Q11.582,21.73 11.226,21.176 L8.309,16.8 L6.045,20.683 Q5.694,21.274 5.011,21.301 Q4.32,21.327 3.926,20.746 L0.562,15.695 Q0.095,15.016 0.556,14.304 L4.233,8.794 L4.24,8.784 Q4.621,8.25 5.27,8.25 L10.195,8.25 L7.799,4.139 Q7.42,3.513 7.783,2.879 Q8.143,2.25 8.87,2.25 L15.71,2.25 Q16.415,2.25 16.786,2.869 L17.416,3.939 Z M9.412,15.75 L12.398,20.23 L18.602,20.23 L22.122,14.95 L18.622,8.948 L16.124,4.701 L16.124,4.7 L15.564,3.75 L9.308,3.75 L12.805,9.75 L12.805,9.75 L15.208,13.872 Q15.568,14.497 15.21,15.121 Q14.85,15.75 14.13,15.75 L9.412,15.75 Z M7.852,14.622 L10.695,9.75 L5.398,9.75 L1.898,14.995 L4.952,19.58 L7.212,15.702 Q7.252,15.635 7.296,15.575 Z M11.75,10.919 L9.806,14.25 L13.692,14.25 L11.75,10.919 Z M9.087,3.371 Q9.085,3.366 9.082,3.361 L9.087,3.371 Z M12.468,20.335 L12.474,20.344 Q12.471,20.339 12.468,20.335 Z M1.804,14.854 Q1.801,14.85 1.798,14.845 L1.804,14.854 Z M22.201,14.832 L22.206,14.824 Q22.203,14.828 22.201,14.832 Z"/>
</svg>

