<svg xmlns="http://www.w3.org/2000/svg" width="24" height="24" viewBox="0 0 24 24">
  <defs/>
  <path d="M18.73,21.75 L12.27,21.75 C11.85,21.75 11.46,21.54 11.23,21.19 L8.31,16.81 L6.05,20.68 C5.83,21.06 5.44,21.29 5.01,21.3 C4.59,21.34 4.17,21.11 3.93,20.74 L0.56,15.68 C0.28,15.26 0.28,14.71 0.56,14.29 L4.23,8.79 C4.46,8.44 4.85,8.23 5.27,8.23 L10.2,8.23 L7.8,4.11 C7.58,3.72 7.57,3.24 7.8,2.86 C8.02,2.47 8.44,2.23 8.88,2.23 L15.72,2.23 C16.16,2.23 16.58,2.47 16.8,2.85 L23.5,14.33 C23.74,14.75 23.73,15.25 23.46,15.65 L19.78,21.17 C19.54,21.54 19.15,21.75 18.73,21.75 Z M12.4,20.25 L18.6,20.25 L22.12,14.97 L15.57,3.75 L9.31,3.75 L12.81,9.75 L15.21,13.87 C15.43,14.25 15.44,14.73 15.21,15.12 C14.99,15.51 14.57,15.75 14.13,15.75 L9.4,15.75 L12.4,20.25 Z M1.9,15 L4.96,19.58 L7.2,15.75 L10.7,9.75 L5.41,9.75 L1.9,15 Z M9.81,14.25 L13.7,14.25 L11.76,10.92 L9.81,14.25 Z"/>
</svg>

