<svg xmlns="http://www.w3.org/2000/svg" width="24" height="24" viewBox="0 0 24 24">
  <defs/>
  <path d="M16.114,9.493 L12,7.025 L7.886,9.493 Q7.619,9.653 7.318,9.578 Q7.017,9.502 6.857,9.236 Q6.697,8.969 6.772,8.668 Q6.848,8.367 7.114,8.207 L11.614,5.507 Q12,5.275 12.386,5.507 L16.886,8.207 Q17.152,8.367 17.228,8.668 Q17.303,8.969 17.143,9.236 Q16.983,9.502 16.682,9.578 Q16.381,9.653 16.114,9.493 Z"/>
  <path d="M15.75,11.19 L15.75,9 Q15.75,8.689 15.97,8.47 Q16.189,8.25 16.5,8.25 Q16.811,8.25 17.03,8.47 Q17.25,8.689 17.25,9 L17.25,11.19 Q17.25,11.501 17.03,11.72 Q16.811,11.94 16.5,11.94 Q16.189,11.94 15.97,11.72 Q15.75,11.501 15.75,11.19 Z"/>
  <path d="M8.25,9 L8.25,13.825 L11.614,11.807 Q12,11.575 12.386,11.807 L16.886,14.507 Q17.152,14.667 17.228,14.968 Q17.303,15.269 17.143,15.536 Q16.983,15.802 16.682,15.878 Q16.381,15.953 16.114,15.793 L12,13.325 L7.886,15.793 Q7.708,15.9 7.5,15.9 Q7.189,15.9 6.97,15.68 Q6.75,15.461 6.75,15.15 L6.75,9 Q6.75,8.689 6.97,8.47 Q7.189,8.25 7.5,8.25 Q7.811,8.25 8.03,8.47 Q8.25,8.689 8.25,9 Z"/>
  <path d="M14.666,16.824 L12.416,18.324 Q12,18.601 11.584,18.324 L9.334,16.824 Q9.075,16.652 9.015,16.347 Q8.954,16.042 9.126,15.784 Q9.298,15.525 9.603,15.465 Q9.908,15.404 10.166,15.576 L12,16.799 L13.834,15.576 Q14.092,15.404 14.397,15.465 Q14.702,15.525 14.874,15.784 Q15.046,16.042 14.985,16.347 Q14.925,16.652 14.666,16.824 Z"/>
  <path fill="#17191C" d="M4.6,6.449 Q2.75,8.922 2.75,12 Q2.75,15.829 5.46,18.54 Q8.171,21.25 12,21.25 Q15.829,21.25 18.54,18.54 Q21.25,15.829 21.25,12 Q21.25,8.171 18.54,5.46 Q15.829,2.75 12,2.75 Q10.031,2.75 8.276,3.535 Q7.993,3.661 7.702,3.551 Q7.412,3.44 7.285,3.156 Q7.159,2.873 7.269,2.582 Q7.38,2.292 7.664,2.165 Q9.711,1.25 12,1.25 Q16.451,1.25 19.6,4.4 Q22.75,7.549 22.75,12 Q22.75,16.451 19.6,19.6 Q16.451,22.75 12,22.75 Q7.549,22.75 4.4,19.6 Q1.25,16.451 1.25,12 Q1.25,8.422 3.4,5.551 Q3.586,5.302 3.893,5.258 Q4.201,5.213 4.449,5.4 Q4.698,5.586 4.742,5.893 Q4.787,6.201 4.6,6.449 Z"/>
</svg>

