<svg xmlns="http://www.w3.org/2000/svg" width="24" height="24" viewBox="0 0 24 24">
  <defs/>
  <path d="M12.398,9.808 L9.148,15.378 L8.52,16.465 L6.047,20.689 Q5.71,21.29 5.005,21.306 Q4.308,21.322 3.93,20.737 L0.557,15.697 Q0.106,15 0.55,14.313 L4.226,8.804 Q4.582,8.25 5.27,8.25 L11.5,8.25 Q11.932,8.25 12.149,8.623 L12.399,9.053 Q12.618,9.431 12.398,9.808 Z M10.695,9.75 L5.398,9.75 L1.895,15 L4.959,19.578 L7.221,15.715 L7.852,14.622 L10.695,9.75 Z M5.468,9.646 Q5.471,9.641 5.474,9.636 L5.468,9.646 Z M5.184,19.914 L5.19,19.923 Q5.187,19.919 5.184,19.914 Z M4.758,19.922 Q4.756,19.926 4.753,19.931 L4.758,19.922 Z"/>
  <path opacity="0.4" d="M13.691,14.25 L11.102,9.808 L10.851,9.377 L7.792,4.128 Q7.419,3.513 7.782,2.879 Q8.142,2.25 8.87,2.25 L15.71,2.25 Q16.464,2.25 16.798,2.89 L23.487,14.352 Q23.872,15.007 23.465,15.658 L23.46,15.667 L19.774,21.196 Q19.418,21.75 18.73,21.75 L12.269,21.75 Q11.581,21.75 11.219,21.186 L8.085,16.486 L7.389,15.426 L8.066,14.25 L13.691,14.25 Z M9.398,15.75 L12.397,20.25 L18.601,20.25 L22.116,14.978 L15.563,3.75 L9.308,3.75 L12.148,8.623 L12.397,9.052 L15.201,13.861 Q15.58,14.487 15.217,15.121 Q14.857,15.75 14.13,15.75 L9.398,15.75 Z M12.473,20.364 L12.48,20.374 Q12.477,20.369 12.473,20.364 Z M18.532,20.355 Q18.529,20.359 18.525,20.364 L18.532,20.355 Z M9.093,3.381 Q9.09,3.377 9.088,3.372 L9.093,3.381 Z"/>
</svg>

