<svg xmlns="http://www.w3.org/2000/svg" width="24" height="24" viewBox="0 0 24 24">
  <defs/>
  <path fill="#292D32" d="M12.75,7.75 L12.75,13 Q12.75,13.311 12.53,13.53 Q12.311,13.75 12,13.75 Q11.689,13.75 11.47,13.53 Q11.25,13.311 11.25,13 L11.25,7.75 Q11.25,7.439 11.47,7.22 Q11.689,7 12,7 Q12.311,7 12.53,7.22 Q12.75,7.439 12.75,7.75 Z"/>
  <path fill="#292D32" d="M21.83,8.58 L21.83,15.42 Q21.83,17.657 19.89,18.797 L13.945,22.229 Q12.005,23.35 10.048,22.231 L4.105,18.799 Q2.16,17.677 2.16,15.42 L2.16,8.58 Q2.16,6.343 4.1,5.203 L10.045,1.771 Q11.985,0.65 13.942,1.769 L19.885,5.2 Q21.83,6.343 21.83,8.58 Z M20.33,8.58 Q20.33,7.202 19.135,6.499 L13.198,3.071 Q11.989,2.38 10.795,3.069 L4.86,6.497 Q3.66,7.202 3.66,8.58 L3.66,15.42 Q3.66,16.811 4.855,17.501 L10.792,20.929 Q12.001,21.62 13.195,20.931 L19.13,17.503 Q20.33,16.798 20.33,15.42 Z"/>
  <path fill="#292D32" d="M13,16.2 L13,16.3 Q13,16.714 12.707,17.007 Q12.414,17.3 12,17.3 Q11.586,17.3 11.293,17.007 Q11,16.714 11,16.3 L11,16.2 Q11,15.786 11.293,15.493 Q11.586,15.2 12,15.2 Q12.414,15.2 12.707,15.493 Q13,15.786 13,16.2 Z"/>
</svg>

