<svg xmlns="http://www.w3.org/2000/svg" width="24" height="24" viewBox="0 0 24 24">
  <defs/>
  <path fill="#292D32" d="M12.75,7.75 L12.75,13 Q12.75,13.311 12.53,13.53 Q12.311,13.75 12,13.75 Q11.689,13.75 11.47,13.53 Q11.25,13.311 11.25,13 L11.25,7.75 Q11.25,7.439 11.47,7.22 Q11.689,7 12,7 Q12.311,7 12.53,7.22 Q12.75,7.439 12.75,7.75 Z"/>
  <path fill="#292D32" d="M2.17,8.58 Q2.17,6.343 4.11,5.203 L10.055,1.771 Q11.995,0.65 13.952,1.769 L19.895,5.2 Q21.84,6.323 21.84,8.58 L21.84,15.42 Q21.84,17.657 19.9,18.797 L13.955,22.229 Q12.015,23.35 10.058,22.231 L4.115,18.799 Q2.17,17.677 2.17,15.42 L2.17,12.66 Q2.17,12.349 2.39,12.13 Q2.609,11.91 2.92,11.91 Q3.231,11.91 3.45,12.13 Q3.67,12.349 3.67,12.66 L3.67,15.42 Q3.67,16.811 4.865,17.501 L10.802,20.929 Q12.011,21.62 13.205,20.931 L19.14,17.503 Q20.34,16.798 20.34,15.42 L20.34,8.58 Q20.34,7.189 19.145,6.499 L13.208,3.071 Q11.999,2.38 10.805,3.069 L4.87,6.497 Q3.67,7.202 3.67,8.58 Q3.67,8.891 3.45,9.11 Q3.231,9.33 2.92,9.33 Q2.609,9.33 2.39,9.11 Q2.17,8.891 2.17,8.58 Z"/>
  <path fill="#292D32" d="M13,16.2 L13,16.3 Q13,16.714 12.707,17.007 Q12.414,17.3 12,17.3 Q11.586,17.3 11.293,17.007 Q11,16.714 11,16.3 L11,16.2 Q11,15.786 11.293,15.493 Q11.586,15.2 12,15.2 Q12.414,15.2 12.707,15.493 Q13,15.786 13,16.2 Z"/>
</svg>

