<svg xmlns="http://www.w3.org/2000/svg" width="24" height="24" viewBox="0 0 24 24">
  <defs/>
  <path fill="#292D32" d="M12,13.75 C11.59,13.75 11.25,13.41 11.25,13 L11.25,7.75 C11.25,7.34 11.59,7 12,7 C12.41,7 12.75,7.34 12.75,7.75 L12.75,13 C12.75,13.41 12.41,13.75 12,13.75 Z"/>
  <path fill="#292D32" d="M12,17.25 C11.73,17.25 11.48,17.15 11.29,16.96 C11.2,16.86 11.13,16.75 11.07,16.63 C11.02,16.51 11,16.38 11,16.25 C11,15.99 11.11,15.73 11.29,15.54 C11.66,15.17 12.34,15.17 12.71,15.54 C12.89,15.73 13,15.99 13,16.25 C13,16.38 12.97,16.51 12.92,16.63 C12.87,16.75 12.8,16.86 12.71,16.96 C12.52,17.15 12.27,17.25 12,17.25 Z"/>
  <path fill="#292D32" d="M12,22.75 C11.33,22.75 10.65,22.58 10.05,22.23 L4.11,18.8 C2.91,18.1 2.16,16.81 2.16,15.42 L2.16,8.58 C2.16,7.19 2.91,5.9 4.11,5.2 L10.05,1.77 C11.25,1.07 12.74,1.07 13.95,1.77 L19.89,5.2 C21.09,5.9 21.84,7.19 21.84,8.58 L21.84,15.42 C21.84,16.81 21.09,18.1 19.89,18.8 L13.95,22.23 C13.35,22.58 12.67,22.75 12,22.75 Z M12,2.75 C11.59,2.75 11.17,2.86 10.8,3.07 L4.86,6.5 C4.12,6.93 3.66,7.72 3.66,8.58 L3.66,15.42 C3.66,16.27 4.12,17.07 4.86,17.5 L10.8,20.93 C11.54,21.36 12.46,21.36 13.19,20.93 L19.13,17.5 C19.87,17.07 20.33,16.28 20.33,15.42 L20.33,8.58 C20.33,7.73 19.87,6.93 19.13,6.5 L13.19,3.07 C12.83,2.86 12.41,2.75 12,2.75 Z"/>
</svg>

