<svg xmlns="http://www.w3.org/2000/svg" width="24" height="24" viewBox="0 0 24 24">
  <defs/>
  <path fill="#292D32" opacity="0.4" d="M21.08,8.58 L21.08,15.42 C21.08,16.54 20.48,17.58 19.51,18.15 L13.57,21.58 C12.6,22.14 11.4,22.14 10.42,21.58 L4.48,18.15 C3.51,17.59 2.91,16.55 2.91,15.42 L2.91,8.58 C2.91,7.46 3.51,6.42 4.48,5.85 L10.42,2.42 C11.39,1.86 12.59,1.86 13.57,2.42 L19.51,5.85 C20.48,6.42 21.08,7.45 21.08,8.58 Z"/>
  <path fill="#292D32" d="M12,13.75 C11.59,13.75 11.25,13.41 11.25,13 L11.25,7.75 C11.25,7.34 11.59,7 12,7 C12.41,7 12.75,7.34 12.75,7.75 L12.75,13 C12.75,13.41 12.41,13.75 12,13.75 Z"/>
  <path fill="#292D32" d="M12,17.25 C11.87,17.25 11.74,17.22 11.62,17.17 C11.49,17.12 11.39,17.05 11.29,16.96 C11.2,16.86 11.13,16.75 11.07,16.63 C11.02,16.51 11,16.38 11,16.25 C11,15.99 11.1,15.73 11.29,15.54 C11.39,15.45 11.49,15.38 11.62,15.33 C11.99,15.17 12.43,15.26 12.71,15.54 C12.8,15.64 12.87,15.74 12.92,15.87 C12.97,15.99 13,16.12 13,16.25 C13,16.38 12.97,16.51 12.92,16.63 C12.87,16.75 12.8,16.86 12.71,16.96 C12.52,17.15 12.27,17.25 12,17.25 Z"/>
</svg>

