<svg xmlns="http://www.w3.org/2000/svg" width="24" height="24" viewBox="0 0 24 24">
  <defs/>
  <path fill="#292D32" d="M15.5,19.75 L8.5,19.75 C5.76,19.75 4.25,18.24 4.25,15.5 L4.25,8.5 C4.25,5.76 5.76,4.25 8.5,4.25 L15.5,4.25 C18.24,4.25 19.75,5.76 19.75,8.5 L19.75,15.5 C19.75,18.24 18.24,19.75 15.5,19.75 Z M8.5,5.75 C6.57,5.75 5.75,6.57 5.75,8.5 L5.75,15.5 C5.75,17.43 6.57,18.25 8.5,18.25 L15.5,18.25 C17.43,18.25 18.25,17.43 18.25,15.5 L18.25,8.5 C18.25,6.57 17.43,5.75 15.5,5.75 L8.5,5.75 Z"/>
  <path fill="#292D32" d="M16,2.75 L8,2.75 C7.59,2.75 7.25,2.41 7.25,2 C7.25,1.59 7.59,1.25 8,1.25 L16,1.25 C16.41,1.25 16.75,1.59 16.75,2 C16.75,2.41 16.41,2.75 16,2.75 Z"/>
  <path fill="#292D32" d="M16,22.75 L8,22.75 C7.59,22.75 7.25,22.41 7.25,22 C7.25,21.59 7.59,21.25 8,21.25 L16,21.25 C16.41,21.25 16.75,21.59 16.75,22 C16.75,22.41 16.41,22.75 16,22.75 Z"/>
  <path fill="#292D32" d="M14.5,13.25 L11.5,13.25 C11.09,13.25 10.75,12.91 10.75,12.5 L10.75,9.5 C10.75,9.09 11.09,8.75 11.5,8.75 C11.91,8.75 12.25,9.09 12.25,9.5 L12.25,11.75 L14.5,11.75 C14.91,11.75 15.25,12.09 15.25,12.5 C15.25,12.91 14.91,13.25 14.5,13.25 Z"/>
</svg>

