<svg xmlns="http://www.w3.org/2000/svg" width="24" height="24" viewBox="0 0 24 24">
  <defs/>
  <path fill="#292D32" d="M8.5,19.75 Q4.25,19.75 4.25,15.5 L4.25,8.5 Q4.25,4.25 8.5,4.25 L15.5,4.25 Q19.75,4.25 19.75,8.5 L19.75,15.5 Q19.75,19.75 15.5,19.75 Z M8.5,18.25 L15.5,18.25 Q16.937,18.25 17.593,17.593 Q18.25,16.937 18.25,15.5 L18.25,8.5 Q18.25,7.063 17.593,6.407 Q16.937,5.75 15.5,5.75 L8.5,5.75 Q5.75,5.75 5.75,8.5 L5.75,15.5 Q5.75,18.25 8.5,18.25 Z"/>
  <path fill="#292D32" d="M16,2.75 L8,2.75 Q7.689,2.75 7.47,2.53 Q7.25,2.311 7.25,2 Q7.25,1.689 7.47,1.47 Q7.689,1.25 8,1.25 L16,1.25 Q16.311,1.25 16.53,1.47 Q16.75,1.689 16.75,2 Q16.75,2.311 16.53,2.53 Q16.311,2.75 16,2.75 Z"/>
  <path fill="#292D32" d="M16,22.75 L8,22.75 Q7.689,22.75 7.47,22.53 Q7.25,22.311 7.25,22 Q7.25,21.689 7.47,21.47 Q7.689,21.25 8,21.25 L16,21.25 Q16.311,21.25 16.53,21.47 Q16.75,21.689 16.75,22 Q16.75,22.311 16.53,22.53 Q16.311,22.75 16,22.75 Z"/>
  <path fill="#292D32" d="M11.25,14 L11.25,10 Q11.25,9.689 11.47,9.47 Q11.689,9.25 12,9.25 Q12.311,9.25 12.53,9.47 Q12.75,9.689 12.75,10 L12.75,14 Q12.75,14.311 12.53,14.53 Q12.311,14.75 12,14.75 Q11.689,14.75 11.47,14.53 Q11.25,14.311 11.25,14 Z"/>
  <path fill="#292D32" d="M14.25,14 L14.25,12 Q14.25,11.689 14.47,11.47 Q14.689,11.25 15,11.25 Q15.311,11.25 15.53,11.47 Q15.75,11.689 15.75,12 L15.75,14 Q15.75,14.311 15.53,14.53 Q15.311,14.75 15,14.75 Q14.689,14.75 14.47,14.53 Q14.25,14.311 14.25,14 Z"/>
  <path fill="#292D32" d="M8.25,14 L8.25,13 Q8.25,12.689 8.47,12.47 Q8.689,12.25 9,12.25 Q9.311,12.25 9.53,12.47 Q9.75,12.689 9.75,13 L9.75,14 Q9.75,14.311 9.53,14.53 Q9.311,14.75 9,14.75 Q8.689,14.75 8.47,14.53 Q8.25,14.311 8.25,14 Z"/>
</svg>

