<svg xmlns="http://www.w3.org/2000/svg" width="24" height="24" viewBox="0 0 24 24">
  <defs/>
  <path fill="#292D32" d="M15.5,19.75 L8.5,19.75 C5.76,19.75 4.25,18.24 4.25,15.5 L4.25,8.5 C4.25,5.76 5.76,4.25 8.5,4.25 L15.5,4.25 C18.24,4.25 19.75,5.76 19.75,8.5 L19.75,15.5 C19.75,18.24 18.24,19.75 15.5,19.75 Z M8.5,5.75 C6.57,5.75 5.75,6.57 5.75,8.5 L5.75,15.5 C5.75,17.43 6.57,18.25 8.5,18.25 L15.5,18.25 C17.43,18.25 18.25,17.43 18.25,15.5 L18.25,8.5 C18.25,6.57 17.43,5.75 15.5,5.75 L8.5,5.75 Z"/>
  <path fill="#292D32" d="M16,2.75 L8,2.75 C7.59,2.75 7.25,2.41 7.25,2 C7.25,1.59 7.59,1.25 8,1.25 L16,1.25 C16.41,1.25 16.75,1.59 16.75,2 C16.75,2.41 16.41,2.75 16,2.75 Z"/>
  <path fill="#292D32" d="M16,22.75 L8,22.75 C7.59,22.75 7.25,22.41 7.25,22 C7.25,21.59 7.59,21.25 8,21.25 L16,21.25 C16.41,21.25 16.75,21.59 16.75,22 C16.75,22.41 16.41,22.75 16,22.75 Z"/>
  <path fill="#292D32" d="M12,14.75 C11.59,14.75 11.25,14.41 11.25,14 L11.25,10 C11.25,9.59 11.59,9.25 12,9.25 C12.41,9.25 12.75,9.59 12.75,10 L12.75,14 C12.75,14.42 12.41,14.75 12,14.75 Z"/>
  <path fill="#292D32" d="M15,14.75 C14.59,14.75 14.25,14.41 14.25,14 L14.25,12 C14.25,11.59 14.59,11.25 15,11.25 C15.41,11.25 15.75,11.59 15.75,12 L15.75,14 C15.75,14.42 15.42,14.75 15,14.75 Z"/>
  <path fill="#292D32" d="M9,14.75 C8.59,14.75 8.25,14.41 8.25,14 L8.25,13 C8.25,12.59 8.59,12.25 9,12.25 C9.41,12.25 9.75,12.59 9.75,13 L9.75,14 C9.75,14.42 9.41,14.75 9,14.75 Z"/>
</svg>

