<svg xmlns="http://www.w3.org/2000/svg" width="24" height="24" viewBox="0 0 24 24">
  <defs/>
  <path fill="#292D32" d="M16,3.75 L8,3.75 C7.59,3.75 7.25,3.41 7.25,3 C7.25,2.59 7.59,2.25 8,2.25 L16,2.25 C16.41,2.25 16.75,2.59 16.75,3 C16.75,3.41 16.41,3.75 16,3.75 Z"/>
  <path fill="#292D32" d="M16,21.75 L8,21.75 C7.59,21.75 7.25,21.41 7.25,21 C7.25,20.59 7.59,20.25 8,20.25 L16,20.25 C16.41,20.25 16.75,20.59 16.75,21 C16.75,21.41 16.41,21.75 16,21.75 Z"/>
  <path fill="#292D32" d="M15.5,5 L8.5,5 C6.17,5 5,6.17 5,8.5 L5,15.5 C5,17.83 6.17,19 8.5,19 L15.5,19 C17.83,19 19,17.83 19,15.5 L19,8.5 C19,6.17 17.83,5 15.5,5 Z M14.5,13.25 L11.5,13.25 C11.09,13.25 10.75,12.91 10.75,12.5 L10.75,9.5 C10.75,9.09 11.09,8.75 11.5,8.75 C11.91,8.75 12.25,9.09 12.25,9.5 L12.25,11.75 L14.5,11.75 C14.91,11.75 15.25,12.09 15.25,12.5 C15.25,12.91 14.91,13.25 14.5,13.25 Z"/>
</svg>

