<svg xmlns="http://www.w3.org/2000/svg" width="24" height="24" viewBox="0 0 24 24">
  <defs/>
  <path fill="#292D32" d="M8.5,19.75 Q4.25,19.75 4.25,15.5 L4.25,8.5 Q4.25,4.25 8.5,4.25 L15.5,4.25 Q19.75,4.25 19.75,8.5 L19.75,15.5 Q19.75,19.75 15.5,19.75 Z M8.5,18.25 L15.5,18.25 Q16.937,18.25 17.593,17.593 Q18.25,16.937 18.25,15.5 L18.25,8.5 Q18.25,7.063 17.593,6.407 Q16.937,5.75 15.5,5.75 L8.5,5.75 Q5.75,5.75 5.75,8.5 L5.75,15.5 Q5.75,18.25 8.5,18.25 Z"/>
  <path fill="#292D32" opacity="0.4" d="M16,2.75 L8,2.75 Q7.689,2.75 7.47,2.53 Q7.25,2.311 7.25,2 Q7.25,1.689 7.47,1.47 Q7.689,1.25 8,1.25 L16,1.25 Q16.311,1.25 16.53,1.47 Q16.75,1.689 16.75,2 Q16.75,2.311 16.53,2.53 Q16.311,2.75 16,2.75 Z"/>
  <path fill="#292D32" opacity="0.4" d="M16,22.75 L8,22.75 Q7.689,22.75 7.47,22.53 Q7.25,22.311 7.25,22 Q7.25,21.689 7.47,21.47 Q7.689,21.25 8,21.25 L16,21.25 Q16.311,21.25 16.53,21.47 Q16.75,21.689 16.75,22 Q16.75,22.311 16.53,22.53 Q16.311,22.75 16,22.75 Z"/>
  <path fill="#292D32" opacity="0.4" d="M12.25,9.5 L12.25,11.75 L14.5,11.75 Q14.811,11.75 15.03,11.97 Q15.25,12.189 15.25,12.5 Q15.25,12.811 15.03,13.03 Q14.811,13.25 14.5,13.25 L11.5,13.25 Q11.189,13.25 10.97,13.03 Q10.75,12.811 10.75,12.5 L10.75,9.5 Q10.75,9.189 10.97,8.97 Q11.189,8.75 11.5,8.75 Q11.811,8.75 12.03,8.97 Q12.25,9.189 12.25,9.5 Z"/>
</svg>

