<svg xmlns="http://www.w3.org/2000/svg" width="24" height="24" viewBox="0 0 24 24">
  <defs/>
  <path fill="#292D32" d="M16,3.75 L8,3.75 C7.59,3.75 7.25,3.41 7.25,3 C7.25,2.59 7.59,2.25 8,2.25 L16,2.25 C16.41,2.25 16.75,2.59 16.75,3 C16.75,3.41 16.41,3.75 16,3.75 Z"/>
  <path fill="#292D32" d="M16,21.75 L8,21.75 C7.59,21.75 7.25,21.41 7.25,21 C7.25,20.59 7.59,20.25 8,20.25 L16,20.25 C16.41,20.25 16.75,20.59 16.75,21 C16.75,21.41 16.41,21.75 16,21.75 Z"/>
  <path fill="#292D32" d="M15.5,5 L8.5,5 C6.17,5 5,6.17 5,8.5 L5,15.5 C5,17.83 6.17,19 8.5,19 L15.5,19 C17.83,19 19,17.83 19,15.5 L19,8.5 C19,6.17 17.83,5 15.5,5 Z M9.75,14 C9.75,14.41 9.41,14.75 9,14.75 C8.59,14.75 8.25,14.42 8.25,14 L8.25,13 C8.25,12.59 8.59,12.25 9,12.25 C9.41,12.25 9.75,12.59 9.75,13 L9.75,14 Z M12.75,14 C12.75,14.41 12.41,14.75 12,14.75 C11.59,14.75 11.25,14.41 11.25,14 L11.25,10 C11.25,9.59 11.59,9.25 12,9.25 C12.41,9.25 12.75,9.59 12.75,10 L12.75,14 Z M15.75,14 C15.75,14.41 15.41,14.75 15,14.75 C14.59,14.75 14.25,14.41 14.25,14 L14.25,12 C14.25,11.59 14.59,11.25 15,11.25 C15.41,11.25 15.75,11.59 15.75,12 L15.75,14 Z"/>
</svg>

