<svg xmlns="http://www.w3.org/2000/svg" width="24" height="24" viewBox="0 0 24 24">
  <defs/>
  <path fill="#292D32" d="M10,22.75 Q2.25,22.75 2.25,15 L2.25,9 Q2.25,1.25 10,1.25 L14,1.25 Q21.75,1.25 21.75,9 L21.75,15 Q21.75,22.75 14,22.75 Z M10,21.25 L14,21.25 Q20.25,21.25 20.25,15 L20.25,9 Q20.25,2.75 14,2.75 L10,2.75 Q3.75,2.75 3.75,9 L3.75,15 Q3.75,18.439 5.155,19.845 Q6.561,21.25 10,21.25 Z"/>
  <path fill="#292D32" opacity="0.4" d="M17.749,7.73 Q17.953,7.912 17.992,8.183 Q18.031,8.454 17.887,8.686 L15.707,12.186 Q15.673,12.241 15.63,12.289 Q15.423,12.521 15.113,12.539 Q14.803,12.556 14.571,12.35 Q12,10.058 9.429,12.35 Q9.381,12.393 9.327,12.427 Q9.063,12.591 8.76,12.52 Q8.458,12.45 8.293,12.186 L6.113,8.686 Q5.969,8.454 6.008,8.183 Q6.047,7.912 6.251,7.73 Q8.707,5.545 12,5.545 Q15.293,5.545 17.749,7.73 Z M16.266,8.451 Q14.403,7.045 12,7.045 Q9.597,7.045 7.734,8.451 L9.119,10.675 Q12,8.603 14.881,10.675 L16.266,8.451 Z"/>
</svg>

