<svg xmlns="http://www.w3.org/2000/svg" width="24" height="24" viewBox="0 0 24 24">
  <defs/>
  <path fill="#292D32" d="M17.18,18.75 Q15.156,18.75 14.202,17.597 Q13.43,16.664 13.43,15 L13.43,9 Q13.43,5.25 17.18,5.25 Q20.93,5.25 20.93,9 L20.93,15 Q20.93,16.664 20.157,17.597 Q19.203,18.75 17.18,18.75 Z M17.18,17.25 Q19.43,17.25 19.43,15 L19.43,9 Q19.43,6.75 17.18,6.75 Q14.93,6.75 14.93,9 L14.93,15 Q14.93,17.25 17.18,17.25 Z"/>
  <path fill="#292D32" d="M3.07,11.3 L3.07,9 Q3.07,5.25 6.82,5.25 Q10.57,5.25 10.57,9 L10.57,15 Q10.57,18.75 6.82,18.75 Q3.07,18.75 3.07,15 Q3.07,14.689 3.29,14.47 Q3.51,14.25 3.82,14.25 Q4.131,14.25 4.351,14.47 Q4.57,14.689 4.57,15 Q4.57,16.124 4.998,16.641 Q5.502,17.25 6.82,17.25 Q8.138,17.25 8.643,16.641 Q9.07,16.124 9.07,15 L9.07,9 Q9.07,7.876 8.643,7.359 Q8.138,6.75 6.82,6.75 Q4.57,6.75 4.57,9 L4.57,11.3 Q4.57,11.611 4.351,11.83 Q4.131,12.05 3.82,12.05 Q3.51,12.05 3.29,11.83 Q3.07,11.611 3.07,11.3 Z"/>
  <path fill="#292D32" d="M9.82,11.25 L14.18,11.25 Q14.491,11.25 14.711,11.47 Q14.93,11.689 14.93,12 Q14.93,12.311 14.711,12.53 Q14.491,12.75 14.18,12.75 L9.82,12.75 Q9.51,12.75 9.29,12.53 Q9.07,12.311 9.07,12 Q9.07,11.689 9.29,11.47 Q9.51,11.25 9.82,11.25 Z"/>
  <path fill="#292D32" d="M21.75,14.5 L21.75,9.5 Q21.75,9.189 21.97,8.97 Q22.189,8.75 22.5,8.75 Q22.811,8.75 23.03,8.97 Q23.25,9.189 23.25,9.5 L23.25,14.5 Q23.25,14.811 23.03,15.03 Q22.811,15.25 22.5,15.25 Q22.189,15.25 21.97,15.03 Q21.75,14.811 21.75,14.5 Z"/>
  <path fill="#292D32" d="M0.75,14.5 L0.75,9.5 Q0.75,9.189 0.97,8.97 Q1.189,8.75 1.5,8.75 Q1.811,8.75 2.03,8.97 Q2.25,9.189 2.25,9.5 L2.25,14.5 Q2.25,14.811 2.03,15.03 Q1.811,15.25 1.5,15.25 Q1.189,15.25 0.97,15.03 Q0.75,14.811 0.75,14.5 Z"/>
</svg>

