<svg xmlns="http://www.w3.org/2000/svg" width="24" height="24" viewBox="0 0 24 24">
  <defs/>
  <path fill="#292D32" d="M17.18,18.75 Q13.43,18.75 13.43,15 L13.43,9 Q13.43,7.336 14.202,6.403 Q15.157,5.25 17.18,5.25 Q20.93,5.25 20.93,9 L20.93,15 Q20.93,18.75 17.18,18.75 Z M17.18,17.25 Q19.43,17.25 19.43,15 L19.43,9 Q19.43,6.75 17.18,6.75 Q15.862,6.75 15.358,7.359 Q14.93,7.876 14.93,9 L14.93,15 Q14.93,17.25 17.18,17.25 Z"/>
  <path fill="#292D32" d="M6.82,18.75 Q3.07,18.75 3.07,15 L3.07,9 Q3.07,5.25 6.82,5.25 Q10.57,5.25 10.57,9 L10.57,15 Q10.57,18.75 6.82,18.75 Z M6.82,17.25 Q9.07,17.25 9.07,15 L9.07,9 Q9.07,6.75 6.82,6.75 Q4.57,6.75 4.57,9 L4.57,15 Q4.57,17.25 6.82,17.25 Z"/>
  <path fill="#292D32" d="M9.82,11.25 L14.18,11.25 Q14.491,11.25 14.71,11.47 Q14.93,11.689 14.93,12 Q14.93,12.311 14.71,12.53 Q14.491,12.75 14.18,12.75 L9.82,12.75 Q9.509,12.75 9.29,12.53 Q9.07,12.311 9.07,12 Q9.07,11.689 9.29,11.47 Q9.509,11.25 9.82,11.25 Z"/>
  <path fill="#292D32" d="M21.75,14.5 L21.75,9.5 Q21.75,9.189 21.97,8.97 Q22.189,8.75 22.5,8.75 Q22.811,8.75 23.03,8.97 Q23.25,9.189 23.25,9.5 L23.25,14.5 Q23.25,14.811 23.03,15.03 Q22.811,15.25 22.5,15.25 Q22.189,15.25 21.97,15.03 Q21.75,14.811 21.75,14.5 Z"/>
  <path fill="#292D32" d="M0.75,14.5 L0.75,9.5 Q0.75,9.189 0.97,8.97 Q1.189,8.75 1.5,8.75 Q1.811,8.75 2.03,8.97 Q2.25,9.189 2.25,9.5 L2.25,14.5 Q2.25,14.811 2.03,15.03 Q1.811,15.25 1.5,15.25 Q1.189,15.25 0.97,15.03 Q0.75,14.811 0.75,14.5 Z"/>
</svg>

