<svg xmlns="http://www.w3.org/2000/svg" width="24" height="24" viewBox="0 0 24 24">
  <defs/>
  <path fill="#292D32" opacity="0.4" d="M8,22 L16,22 C19,22 21,20 21,17 L21,7 C21,4 19,2 16,2 L8,2 C5,2 3,4 3,7 L3,17 C3,20 5,22 8,22 Z"/>
  <path fill="#292D32" d="M17.5,8 C14.37,5.21 9.64,5.21 6.5,8 C6.36,8.13 6.33,8.33 6.43,8.48 L8.61,11.98 C8.67,12.07 8.77,12.14 8.87,12.15 C8.98,12.17 9.09,12.13 9.17,12.06 C10.78,10.63 13.2,10.63 14.81,12.06 C14.88,12.12 14.97,12.15 15.06,12.15 C15.08,12.15 15.1,12.15 15.11,12.15 C15.22,12.13 15.32,12.07 15.37,11.98 L17.55,8.48 C17.67,8.33 17.64,8.13 17.5,8 Z"/>
</svg>

