<svg xmlns="http://www.w3.org/2000/svg" width="24" height="24" viewBox="0 0 24 24">
  <defs/>
  <path fill="#292D32" d="M17.18,18.75 C15.47,18.75 13.43,18.1 13.43,15 L13.43,9 C13.43,5.9 15.47,5.25 17.18,5.25 C18.89,5.25 20.93,5.9 20.93,9 L20.93,15 C20.93,18.1 18.89,18.75 17.18,18.75 Z M17.18,6.75 C15.56,6.75 14.93,7.38 14.93,9 L14.93,15 C14.93,16.62 15.56,17.25 17.18,17.25 C18.8,17.25 19.43,16.62 19.43,15 L19.43,9 C19.43,7.38 18.8,6.75 17.18,6.75 Z"/>
  <path fill="#292D32" d="M6.82,18.75 C5.11,18.75 3.07,18.1 3.07,15 L3.07,9 C3.07,5.9 5.11,5.25 6.82,5.25 C8.53,5.25 10.57,5.9 10.57,9 L10.57,15 C10.57,18.1 8.53,18.75 6.82,18.75 Z M6.82,6.75 C5.2,6.75 4.57,7.38 4.57,9 L4.57,15 C4.57,16.62 5.2,17.25 6.82,17.25 C8.44,17.25 9.07,16.62 9.07,15 L9.07,9 C9.07,7.38 8.44,6.75 6.82,6.75 Z"/>
  <path fill="#292D32" d="M14.18,12.75 L9.82,12.75 C9.41,12.75 9.07,12.41 9.07,12 C9.07,11.59 9.41,11.25 9.82,11.25 L14.18,11.25 C14.59,11.25 14.93,11.59 14.93,12 C14.93,12.41 14.6,12.75 14.18,12.75 Z"/>
  <path fill="#292D32" d="M22.5,15.25 C22.09,15.25 21.75,14.91 21.75,14.5 L21.75,9.5 C21.75,9.09 22.09,8.75 22.5,8.75 C22.91,8.75 23.25,9.09 23.25,9.5 L23.25,14.5 C23.25,14.91 22.91,15.25 22.5,15.25 Z"/>
  <path fill="#292D32" d="M1.5,15.25 C1.09,15.25 0.75,14.91 0.75,14.5 L0.75,9.5 C0.75,9.09 1.09,8.75 1.5,8.75 C1.91,8.75 2.25,9.09 2.25,9.5 L2.25,14.5 C2.25,14.91 1.91,15.25 1.5,15.25 Z"/>
</svg>

