<svg xmlns="http://www.w3.org/2000/svg" width="24" height="24" viewBox="0 0 24 24">
  <defs/>
  <path fill="#292D32" d="M14,22.75 L10,22.75 C4.57,22.75 2.25,20.43 2.25,15 L2.25,9 C2.25,3.57 4.57,1.25 10,1.25 L14,1.25 C19.43,1.25 21.75,3.57 21.75,9 L21.75,15 C21.75,20.43 19.43,22.75 14,22.75 Z M10,2.75 C5.39,2.75 3.75,4.39 3.75,9 L3.75,15 C3.75,19.61 5.39,21.25 10,21.25 L14,21.25 C18.61,21.25 20.25,19.61 20.25,15 L20.25,9 C20.25,4.39 18.61,2.75 14,2.75 L10,2.75 Z"/>
  <path fill="#292D32" d="M15.07,12.54 C14.89,12.54 14.71,12.47 14.57,12.35 C13.11,11.05 10.89,11.05 9.43,12.35 C9.27,12.5 9.05,12.56 8.82,12.53 C8.6,12.5 8.41,12.37 8.29,12.18 L6.11,8.68 C5.92,8.37 5.98,7.97 6.25,7.72 C9.53,4.81 14.47,4.81 17.75,7.72 C18.02,7.96 18.08,8.37 17.89,8.68 L15.71,12.18 C15.59,12.37 15.4,12.49 15.18,12.53 C15.14,12.53 15.1,12.54 15.07,12.54 Z M12,9.87 C13,9.87 13.99,10.15 14.86,10.7 L16.26,8.45 C13.73,6.57 10.26,6.57 7.73,8.45 L9.13,10.7 C10.01,10.14 11,9.87 12,9.87 Z"/>
</svg>

