<svg xmlns="http://www.w3.org/2000/svg" width="24" height="24" viewBox="0 0 24 24">
  <defs/>
  <path fill="#292D32" d="M3.75,12.98 L3.75,15 Q3.75,18.439 5.155,19.845 Q6.561,21.25 10,21.25 L14,21.25 Q20.25,21.25 20.25,15 L20.25,9 Q20.25,2.75 14,2.75 L10,2.75 Q3.75,2.75 3.75,9 Q3.75,9.311 3.53,9.53 Q3.311,9.75 3,9.75 Q2.689,9.75 2.47,9.53 Q2.25,9.311 2.25,9 Q2.25,1.25 10,1.25 L14,1.25 Q21.75,1.25 21.75,9 L21.75,15 Q21.75,22.75 14,22.75 L10,22.75 Q2.25,22.75 2.25,15 L2.25,12.98 Q2.25,12.669 2.47,12.45 Q2.689,12.23 3,12.23 Q3.311,12.23 3.53,12.45 Q3.75,12.669 3.75,12.98 Z"/>
  <path fill="#292D32" d="M16.751,8.85 Q14.722,7.045 12,7.045 Q9.597,7.045 7.734,8.451 L9.119,10.675 Q12.344,8.355 15.569,11.23 Q15.801,11.437 15.819,11.747 Q15.837,12.057 15.63,12.289 Q15.423,12.521 15.113,12.539 Q14.803,12.556 14.571,12.35 Q12,10.058 9.429,12.35 Q9.381,12.393 9.327,12.427 Q9.063,12.591 8.76,12.52 Q8.458,12.45 8.293,12.186 L6.113,8.686 Q5.969,8.454 6.008,8.183 Q6.047,7.912 6.251,7.73 Q8.707,5.545 12,5.545 Q15.293,5.545 17.749,7.73 Q17.981,7.936 17.999,8.246 Q18.017,8.556 17.81,8.788 Q17.604,9.021 17.294,9.039 Q16.984,9.057 16.751,8.85 Z"/>
</svg>

