<svg xmlns="http://www.w3.org/2000/svg" width="24" height="24" viewBox="0 0 24 24">
  <defs/>
  <path fill="#292D32" d="M17.18,5.25 C15.47,5.25 13.43,5.9 13.43,9 L13.43,15 C13.43,18.1 15.47,18.75 17.18,18.75 C18.89,18.75 20.93,18.1 20.93,15 L20.93,9 C20.93,5.9 18.89,5.25 17.18,5.25 Z"/>
  <path fill="#292D32" d="M6.82,5.25 C5.11,5.25 3.07,5.9 3.07,9 L3.07,15 C3.07,18.1 5.11,18.75 6.82,18.75 C8.53,18.75 10.57,18.1 10.57,15 L10.57,9 C10.57,5.9 8.53,5.25 6.82,5.25 Z"/>
  <path fill="#292D32" d="M13.43,11.25 L10.57,11.25 L10.57,12.75 L13.43,12.75 L13.43,11.25 Z"/>
  <path fill="#292D32" d="M22.5,15.25 C22.09,15.25 21.75,14.91 21.75,14.5 L21.75,9.5 C21.75,9.09 22.09,8.75 22.5,8.75 C22.91,8.75 23.25,9.09 23.25,9.5 L23.25,14.5 C23.25,14.91 22.91,15.25 22.5,15.25 Z"/>
  <path fill="#292D32" d="M1.5,15.25 C1.09,15.25 0.75,14.91 0.75,14.5 L0.75,9.5 C0.75,9.09 1.09,8.75 1.5,8.75 C1.91,8.75 2.25,9.09 2.25,9.5 L2.25,14.5 C2.25,14.91 1.91,15.25 1.5,15.25 Z"/>
</svg>

