<svg xmlns="http://www.w3.org/2000/svg" width="24" height="24" viewBox="0 0 24 24">
  <defs/>
  <path fill="#17191C" d="M6.8,21.409 L3.889,22.24 Q2.912,22.519 2.186,21.81 Q1.459,21.1 1.715,20.117 L2.502,17.09 Q1.25,14.611 1.25,12 Q1.25,7.564 4.407,4.407 Q7.564,1.25 12,1.25 Q16.436,1.25 19.593,4.407 Q22.75,7.564 22.75,12 Q22.75,16.436 19.593,19.593 Q16.436,22.75 12,22.75 Q9.194,22.75 6.8,21.409 Z M7.286,19.957 Q9.441,21.25 12,21.25 Q15.814,21.25 18.532,18.532 Q21.25,15.814 21.25,12 Q21.25,8.186 18.532,5.468 Q15.814,2.75 12,2.75 Q8.186,2.75 5.468,5.468 Q2.75,8.186 2.75,12 Q2.75,14.375 3.962,16.647 Q4.1,16.905 4.026,17.189 L3.166,20.495 Q3.13,20.635 3.234,20.736 Q3.337,20.838 3.477,20.798 L6.694,19.879 Q7.007,19.789 7.286,19.957 Z"/>
  <path fill="#17191C" d="M17.25,14.849 Q17.25,15.269 17.065,15.66 Q16.898,16.014 16.636,16.302 Q16.191,16.792 15.626,17.023 Q15.081,17.25 14.463,17.25 Q13.613,17.25 12.7,16.862 Q11.839,16.495 11.002,15.887 Q10.179,15.286 9.438,14.554 Q8.696,13.806 8.102,12.991 Q7.487,12.138 7.134,11.308 Q6.75,10.397 6.75,9.543 Q6.75,8.935 6.966,8.396 Q7.191,7.825 7.666,7.377 Q8.304,6.75 9.118,6.75 Q9.484,6.75 9.807,6.905 Q10.17,7.072 10.401,7.406 L11.442,8.87 Q11.609,9.102 11.705,9.335 Q11.824,9.613 11.824,9.894 Q11.824,10.263 11.626,10.593 Q11.488,10.832 11.257,11.064 L11.182,11.142 Q11.255,11.237 11.353,11.353 Q11.67,11.719 11.969,12.023 Q12.349,12.395 12.636,12.638 Q12.751,12.736 12.848,12.808 L12.927,12.73 Q13.168,12.49 13.409,12.359 Q13.735,12.168 14.098,12.168 Q14.377,12.168 14.657,12.282 Q14.872,12.37 15.11,12.531 L16.614,13.598 Q16.955,13.833 17.114,14.195 L17.119,14.207 L17.124,14.218 Q17.25,14.533 17.25,14.849 Z M15.75,14.849 Q15.75,14.837 15.746,14.821 L15.746,14.821 L14.267,13.773 Q14.179,13.713 14.116,13.683 Q14.067,13.711 13.98,13.799 L13.641,14.133 Q13.344,14.428 12.926,14.429 Q12.725,14.429 12.55,14.363 L12.534,14.357 L12.519,14.35 Q12.496,14.34 12.461,14.324 L12.455,14.321 L12.417,14.306 L12.382,14.288 Q12.066,14.121 11.666,13.783 Q11.338,13.504 10.899,13.075 Q10.567,12.737 10.209,12.323 Q9.865,11.918 9.704,11.621 L9.671,11.563 L9.65,11.499 L9.653,11.509 Q9.636,11.468 9.624,11.437 L9.609,11.396 L9.598,11.354 Q9.562,11.21 9.562,11.068 Q9.562,10.65 9.844,10.368 L10.197,10.002 Q10.267,9.933 10.305,9.878 Q10.276,9.818 10.219,9.739 L9.169,8.26 L9.159,8.257 Q9.144,8.25 9.118,8.25 Q8.918,8.25 8.695,8.469 Q8.464,8.687 8.358,8.953 Q8.25,9.224 8.25,9.543 Q8.25,10.093 8.515,10.721 Q8.802,11.397 9.314,12.107 Q9.841,12.831 10.493,13.487 Q11.153,14.141 11.884,14.674 Q12.583,15.182 13.287,15.481 Q13.919,15.75 14.463,15.75 Q14.781,15.75 15.058,15.635 Q15.309,15.532 15.526,15.294 Q15.637,15.171 15.709,15.018 Q15.75,14.932 15.75,14.849 Z M10.939,11.394 L10.924,11.409 Q10.932,11.402 10.939,11.394 Z"/>
</svg>

