<svg xmlns="http://www.w3.org/2000/svg" width="24" height="24" viewBox="0 0 24 24">
  <defs/>
  <path fill="white" opacity="0.58" d="M24,0 L0,0 L0,24 L24,24 L24,0 Z"/>
  <path fill="#292D32" opacity="0.4" d="M6.94,20.63 C8.43,21.5 10.16,22 12,22 C17.63,22 22.31,17.03 21.98,11.41 C21.64,5.61 16.37,1.14 10.3,2.14 C6.12,2.83 2.77,6.22 2.12,10.4 C1.74,12.82 2.24,15.11 3.33,17 L2.44,20.31 C2.24,21.06 2.93,21.74 3.67,21.53 L6.94,20.63 Z"/>
  <path fill="#292D32" d="M17,15.17 C17,15.35 16.96,15.54 16.87,15.72 C16.78,15.9 16.67,16.07 16.53,16.23 C16.28,16.5 16.01,16.7 15.71,16.82 C15.41,16.95 15.08,17.01 14.73,17.01 C14.22,17.01 13.67,16.89 13.1,16.64 C12.52,16.39 11.95,16.06 11.38,15.65 C10.8,15.23 10.26,14.76 9.74,14.25 C9.22,13.73 8.76,13.18 8.34,12.61 C7.93,12.04 7.6,11.47 7.36,10.9 C7.12,10.33 7,9.78 7,9.26 C7,8.92 7.06,8.59 7.18,8.29 C7.3,7.98 7.49,7.7 7.76,7.45 C8.08,7.13 8.43,6.98 8.8,6.98 C8.94,6.98 9.08,7.01 9.21,7.07 C9.34,7.13 9.46,7.22 9.55,7.35 L10.7,9 C10.79,9.13 10.86,9.24 10.9,9.35 C10.95,9.46 10.97,9.56 10.97,9.66 C10.97,9.78 10.93,9.9 10.86,10.02 C10.79,10.14 10.7,10.26 10.58,10.38 L10.2,10.78 C10.14,10.84 10.12,10.9 10.12,10.98 C10.12,11.02 10.13,11.06 10.14,11.1 C10.16,11.14 10.17,11.17 10.18,11.2 C10.27,11.37 10.43,11.58 10.65,11.84 C10.88,12.1 11.12,12.37 11.38,12.63 C11.65,12.9 11.91,13.14 12.18,13.37 C12.44,13.59 12.66,13.74 12.83,13.83 C12.86,13.84 12.89,13.86 12.92,13.87 C12.96,13.89 13,13.89 13.05,13.89 C13.14,13.89 13.2,13.86 13.26,13.8 L13.64,13.42 C13.77,13.29 13.89,13.2 14,13.14 C14.12,13.07 14.23,13.03 14.36,13.03 C14.46,13.03 14.56,13.05 14.67,13.1 C14.78,13.15 14.9,13.21 15.02,13.3 L16.68,14.48 C16.81,14.57 16.9,14.68 16.96,14.8 C16.97,14.91 17,15.03 17,15.17 Z"/>
</svg>

