<svg xmlns="http://www.w3.org/2000/svg" width="24" height="24" viewBox="0 0 24 24">
  <defs/>
  <path d="M21.98,11.41 C21.64,5.61 16.37,1.14 10.3,2.14 C6.12,2.83 2.77,6.22 2.12,10.4 C1.74,12.82 2.24,15.11 3.33,17 L2.44,20.31 C2.24,21.06 2.93,21.74 3.67,21.53 L6.93,20.63 C8.41,21.5 10.14,22 11.99,22 C17.63,22 22.31,17.03 21.98,11.41 Z M16.88,15.72 C16.79,15.9 16.68,16.07 16.54,16.23 C16.29,16.5 16.02,16.7 15.72,16.82 C15.42,16.95 15.09,17.01 14.74,17.01 C14.23,17.01 13.68,16.89 13.11,16.64 C12.53,16.39 11.96,16.06 11.39,15.65 C10.81,15.23 10.27,14.76 9.75,14.25 C9.23,13.73 8.77,13.18 8.35,12.61 C7.94,12.04 7.61,11.47 7.37,10.9 C7.13,10.33 7.01,9.78 7.01,9.26 C7.01,8.92 7.07,8.59 7.19,8.29 C7.31,7.98 7.5,7.7 7.77,7.45 C8.09,7.13 8.44,6.98 8.81,6.98 C8.95,6.98 9.09,7.01 9.22,7.07 C9.35,7.13 9.47,7.22 9.56,7.35 L10.72,8.99 C10.81,9.12 10.88,9.23 10.92,9.34 C10.97,9.45 10.99,9.55 10.99,9.65 C10.99,9.77 10.95,9.89 10.88,10.01 C10.81,10.13 10.72,10.25 10.6,10.37 L10.22,10.77 C10.16,10.83 10.14,10.89 10.14,10.97 C10.14,11.01 10.15,11.05 10.16,11.09 C10.18,11.13 10.19,11.16 10.2,11.19 C10.29,11.36 10.45,11.57 10.67,11.83 C10.9,12.09 11.14,12.36 11.4,12.62 C11.67,12.89 11.93,13.13 12.2,13.36 C12.46,13.58 12.68,13.73 12.85,13.82 C12.88,13.83 12.91,13.85 12.94,13.86 C12.98,13.88 13.02,13.88 13.07,13.88 C13.16,13.88 13.22,13.85 13.28,13.79 L13.66,13.41 C13.79,13.28 13.91,13.19 14.02,13.13 C14.14,13.06 14.25,13.02 14.38,13.02 C14.48,13.02 14.58,13.04 14.69,13.09 C14.8,13.14 14.92,13.2 15.04,13.29 L16.7,14.47 C16.83,14.56 16.92,14.67 16.98,14.79 C17.03,14.92 17.06,15.04 17.06,15.18 C17,15.35 16.96,15.54 16.88,15.72 Z"/>
</svg>

