<svg xmlns="http://www.w3.org/2000/svg" width="24" height="24" viewBox="0 0 24 24">
  <defs/>
  <path d="M2,22.75 C1.8,22.75 1.61,22.67 1.47,22.53 C1.28,22.34 1.2,22.06 1.27,21.8 L2.53,17.09 C1.69,15.53 1.25,13.77 1.25,11.99 C1.25,6.06 6.07,1.24 12,1.24 C17.93,1.24 22.75,6.06 22.75,11.99 C22.75,17.92 17.93,22.74 12,22.74 C10.19,22.74 8.42,22.29 6.84,21.43 L2.2,22.72 C2.13,22.74 2.07,22.75 2,22.75 Z M6.94,19.88 C7.07,19.88 7.2,19.92 7.32,19.98 C8.73,20.81 10.35,21.25 12,21.25 C17.1,21.25 21.25,17.1 21.25,12 C21.25,6.9 17.1,2.75 12,2.75 C6.9,2.75 2.75,6.9 2.75,12 C2.75,13.63 3.18,15.22 3.99,16.62 C4.09,16.79 4.12,17 4.07,17.19 L3.07,20.93 L6.75,19.91 C6.81,19.89 6.88,19.88 6.94,19.88 Z"/>
  <path d="M14.74,17.76 C14.12,17.76 13.48,17.62 12.81,17.33 C12.18,17.06 11.55,16.7 10.94,16.25 C10.34,15.81 9.75,15.31 9.21,14.77 C8.67,14.22 8.17,13.64 7.73,13.04 C7.28,12.41 6.92,11.79 6.66,11.18 C6.38,10.52 6.24,9.87 6.24,9.25 C6.24,8.81 6.32,8.39 6.47,8 C6.63,7.59 6.89,7.22 7.23,6.9 C7.87,6.27 8.79,6.04 9.52,6.39 C9.77,6.5 9.98,6.68 10.14,6.92 L11.3,8.55 C11.42,8.71 11.51,8.88 11.58,9.05 C11.66,9.25 11.71,9.45 11.71,9.64 C11.71,9.9 11.64,10.16 11.5,10.39 C11.41,10.54 11.28,10.72 11.11,10.89 L10.98,11.03 C11.04,11.11 11.11,11.21 11.22,11.33 C11.43,11.57 11.66,11.83 11.91,12.08 C12.16,12.32 12.41,12.56 12.66,12.77 C12.78,12.87 12.88,12.95 12.96,13 L13.1,12.86 C13.28,12.68 13.46,12.54 13.64,12.45 C13.97,12.24 14.48,12.19 14.93,12.38 C15.09,12.44 15.25,12.53 15.42,12.65 L17.09,13.83 C17.32,13.99 17.5,14.21 17.62,14.46 C17.72,14.71 17.76,14.93 17.76,15.16 C17.76,15.46 17.69,15.75 17.56,16.03 C17.43,16.29 17.28,16.52 17.1,16.73 C16.78,17.08 16.41,17.34 16.01,17.51 C15.61,17.68 15.18,17.76 14.74,17.76 Z M8.79,7.74 C8.73,7.74 8.53,7.74 8.28,7.99 C8.09,8.17 7.96,8.36 7.87,8.57 C7.78,8.78 7.74,9.02 7.74,9.26 C7.74,9.68 7.84,10.13 8.04,10.61 C8.25,11.11 8.56,11.64 8.94,12.17 C9.33,12.7 9.77,13.23 10.26,13.72 C10.75,14.2 11.27,14.65 11.81,15.05 C12.33,15.43 12.86,15.73 13.39,15.96 C14.15,16.29 14.85,16.37 15.42,16.13 C15.62,16.05 15.8,15.91 15.98,15.73 C16.07,15.63 16.14,15.53 16.2,15.4 C16.23,15.33 16.25,15.25 16.25,15.18 C16.25,15.16 16.25,15.13 16.22,15.07 L14.55,13.91 C14.48,13.86 14.41,13.82 14.35,13.8 C14.31,13.82 14.25,13.85 14.14,13.96 L13.76,14.34 C13.47,14.63 13.01,14.71 12.64,14.58 L12.46,14.5 C12.23,14.38 11.97,14.2 11.68,13.95 C11.4,13.71 11.13,13.46 10.84,13.18 C10.56,12.89 10.31,12.62 10.07,12.34 C9.81,12.03 9.63,11.78 9.51,11.57 L9.4,11.31 C9.37,11.21 9.36,11.1 9.36,11 C9.36,10.72 9.46,10.47 9.65,10.27 L10.03,9.88 C10.14,9.77 10.18,9.71 10.2,9.67 C10.17,9.6 10.13,9.54 10.08,9.47 L8.91,7.82 L8.79,7.74 Z"/>
</svg>

