<svg xmlns="http://www.w3.org/2000/svg" width="24" height="24" viewBox="0 0 24 24">
  <defs/>
  <path d="M6.84,21.436 L2.2,22.723 Q2.003,22.777 1.806,22.724 Q1.506,22.644 1.35,22.375 Q1.195,22.106 1.276,21.806 L2.537,17.1 Q1.25,14.725 1.25,12 Q1.25,7.549 4.4,4.4 Q7.549,1.25 12,1.25 Q16.451,1.25 19.6,4.4 Q22.75,7.549 22.75,12 Q22.75,16.451 19.6,19.6 Q16.451,22.75 12,22.75 Q9.23,22.75 6.84,21.436 Z M7.32,19.983 Q9.475,21.25 12,21.25 Q15.829,21.25 18.54,18.54 Q21.25,15.829 21.25,12 Q21.25,8.171 18.54,5.46 Q15.829,2.75 12,2.75 Q8.171,2.75 5.46,5.46 Q2.75,8.171 2.75,12 Q2.75,14.481 3.989,16.625 Q4.145,16.894 4.064,17.194 L3.064,20.927 L6.74,19.907 Q7.046,19.822 7.32,19.983 Z"/>
  <path opacity="0.4" d="M17.75,15.17 Q17.75,15.637 17.541,16.055 Q17.356,16.425 17.094,16.724 L17.087,16.732 L17.08,16.74 Q16.584,17.275 15.999,17.512 Q15.421,17.76 14.73,17.76 Q13.786,17.76 12.799,17.327 Q11.871,16.927 10.942,16.259 Q10.083,15.636 9.215,14.785 Q8.442,14.013 7.736,13.055 Q7.055,12.107 6.669,11.191 Q6.25,10.196 6.25,9.26 Q6.25,8.596 6.484,8.011 Q6.724,7.392 7.24,6.909 Q7.926,6.23 8.8,6.23 Q9.18,6.23 9.524,6.389 Q9.925,6.574 10.167,6.923 L11.322,8.557 Q11.521,8.843 11.603,9.054 Q11.73,9.344 11.73,9.65 Q11.73,10.024 11.518,10.388 Q11.359,10.659 11.128,10.893 L10.987,11.041 Q11.082,11.168 11.233,11.346 Q11.667,11.836 11.92,12.09 Q12.294,12.463 12.676,12.789 Q12.839,12.927 12.976,13.023 L13.12,12.88 Q13.375,12.624 13.641,12.477 Q14.001,12.27 14.37,12.27 Q14.688,12.27 14.99,12.407 Q15.27,12.534 15.471,12.684 L17.125,13.859 Q17.458,14.09 17.641,14.455 L17.72,14.613 L17.72,14.79 Q17.72,14.803 17.729,14.876 Q17.75,15.052 17.75,15.17 Z M16.25,15.17 Q16.25,15.145 16.241,15.071 L14.588,13.896 L14.58,13.89 Q14.511,13.838 14.385,13.78 L14.379,13.783 L14.369,13.788 Q14.288,13.833 14.18,13.94 L13.8,14.32 Q13.491,14.63 13.06,14.63 Q12.826,14.63 12.645,14.554 Q12.608,14.539 12.568,14.52 L12.544,14.512 L12.489,14.483 Q12.133,14.294 11.704,13.931 Q11.276,13.567 10.86,13.15 Q10.573,12.864 10.087,12.314 Q9.685,11.838 9.527,11.541 L9.498,11.486 L9.478,11.427 L9.479,11.425 L9.442,11.352 L9.422,11.272 Q9.38,11.102 9.38,10.97 Q9.38,10.545 9.671,10.248 L10.053,9.846 L10.06,9.84 Q10.158,9.742 10.22,9.635 L10.215,9.624 L10.205,9.596 Q10.191,9.559 10.098,9.423 L8.933,7.777 Q8.925,7.764 8.896,7.751 Q8.85,7.73 8.8,7.73 Q8.541,7.73 8.29,7.98 L8.28,7.991 L8.27,8 Q8,8.25 7.876,8.569 Q7.75,8.884 7.75,9.26 Q7.75,9.894 8.051,10.609 Q8.371,11.369 8.944,12.165 Q9.582,13.032 10.265,13.715 Q11.053,14.487 11.818,15.041 Q12.614,15.614 13.401,15.953 Q14.101,16.26 14.73,16.26 Q15.116,16.26 15.412,16.132 L15.422,16.128 L15.431,16.124 Q15.705,16.014 15.972,15.728 Q16.103,15.577 16.199,15.385 Q16.25,15.283 16.25,15.17 Z"/>
</svg>

