<svg xmlns="http://www.w3.org/2000/svg" width="24" height="24" viewBox="0 0 24 24">
  <defs/>
  <path fill="#292D32" d="M16.596,9.517 Q18.155,10.159 19.549,11.237 Q19.795,11.426 19.834,11.735 Q19.874,12.043 19.684,12.289 Q19.494,12.534 19.186,12.574 Q18.878,12.613 18.632,12.423 Q17.397,11.469 16.025,10.903 Q15.737,10.785 15.618,10.498 Q15.499,10.211 15.617,9.924 Q15.736,9.637 16.022,9.518 Q16.309,9.398 16.596,9.517 Z"/>
  <path fill="#292D32" d="M4.451,11.247 Q8.365,8.215 13.079,8.653 Q13.389,8.682 13.587,8.921 Q13.786,9.16 13.757,9.469 Q13.728,9.779 13.489,9.977 Q13.25,10.175 12.941,10.147 Q8.815,9.764 5.369,12.433 Q5.124,12.623 4.816,12.584 Q4.507,12.545 4.317,12.299 Q4.127,12.054 4.166,11.745 Q4.205,11.437 4.451,11.247 Z"/>
  <path fill="#292D32" d="M8.186,4.55 Q15.918,2.713 22.458,7.767 Q22.704,7.956 22.743,8.265 Q22.783,8.573 22.593,8.819 Q22.403,9.064 22.095,9.104 Q21.787,9.143 21.541,8.953 Q15.567,4.338 8.533,6.01 Q8.23,6.082 7.966,5.919 Q7.701,5.756 7.63,5.453 Q7.558,5.151 7.721,4.887 Q7.884,4.622 8.186,4.55 Z"/>
  <path fill="#292D32" d="M1.544,7.765 Q3.04,6.619 4.597,5.848 Q4.876,5.71 5.17,5.809 Q5.464,5.909 5.602,6.187 Q5.74,6.466 5.641,6.76 Q5.541,7.054 5.263,7.192 Q3.836,7.899 2.456,8.955 Q2.209,9.144 1.901,9.104 Q1.593,9.063 1.405,8.816 Q1.216,8.569 1.257,8.261 Q1.297,7.954 1.544,7.765 Z"/>
  <path fill="#292D32" d="M6.33,14.897 Q11.994,10.51 17.658,14.897 Q17.904,15.088 17.943,15.396 Q17.982,15.704 17.792,15.949 Q17.602,16.195 17.294,16.234 Q16.985,16.273 16.74,16.083 Q11.994,12.407 7.248,16.083 Q7.003,16.273 6.695,16.234 Q6.386,16.195 6.196,15.949 Q6.006,15.704 6.045,15.396 Q6.084,15.088 6.33,14.897 Z"/>
  <path fill="#292D32" d="M8.942,18.556 Q12.005,16.191 15.069,18.556 Q15.315,18.746 15.354,19.054 Q15.394,19.363 15.204,19.608 Q15.014,19.854 14.706,19.894 Q14.398,19.934 14.152,19.744 Q12.005,18.086 9.859,19.744 Q9.613,19.934 9.305,19.894 Q8.997,19.854 8.807,19.608 Q8.617,19.363 8.657,19.054 Q8.696,18.746 8.942,18.556 Z"/>
</svg>

