<svg xmlns="http://www.w3.org/2000/svg" width="24" height="24" viewBox="0 0 24 24">
  <defs/>
  <path fill="#292D32" d="M16.19,2 L7.81,2 C4.17,2 2,4.17 2,7.81 L2,16.18 C2,19.83 4.17,22 7.81,22 L16.18,22 C19.82,22 21.99,19.83 21.99,16.19 L21.99,7.81 C22,4.17 19.83,2 16.19,2 Z M14.79,16.6 C14.64,16.79 14.42,16.89 14.2,16.89 C14.04,16.89 13.88,16.84 13.74,16.73 C12.68,15.91 11.31,15.91 10.25,16.73 C9.92,16.98 9.45,16.92 9.2,16.6 C8.95,16.27 9.01,15.8 9.33,15.55 C10.92,14.32 13.06,14.32 14.65,15.55 C14.99,15.8 15.05,16.27 14.79,16.6 Z M17,13.51 C16.85,13.7 16.63,13.8 16.41,13.8 C16.25,13.8 16.09,13.75 15.95,13.64 C13.55,11.79 10.46,11.79 8.06,13.64 C7.73,13.9 7.26,13.84 7,13.51 C6.74,13.18 6.81,12.71 7.13,12.46 C10.08,10.18 13.9,10.18 16.85,12.46 C17.19,12.71 17.25,13.18 17,13.51 Z M18.59,10.42 C18.44,10.61 18.22,10.71 18,10.71 C17.84,10.71 17.68,10.66 17.54,10.55 C14.17,7.95 9.82,7.95 6.46,10.55 C6.13,10.8 5.66,10.74 5.41,10.42 C5.16,10.09 5.22,9.62 5.54,9.37 C9.46,6.34 14.53,6.34 18.46,9.37 C18.79,9.62 18.85,10.09 18.59,10.42 Z"/>
</svg>

