<svg xmlns="http://www.w3.org/2000/svg" width="24" height="24" viewBox="0 0 24 24">
  <defs/>
  <path fill="#292D32" d="M19.091,12.59 C18.931,12.59 18.771,12.54 18.631,12.43 C14.601,9.32 9.391,9.32 5.361,12.43 C5.031,12.68 4.561,12.62 4.311,12.3 C4.061,11.97 4.121,11.5 4.441,11.25 C9.031,7.7 14.961,7.7 19.541,11.25 C19.871,11.5 19.931,11.97 19.671,12.3 C19.541,12.49 19.321,12.59 19.091,12.59 Z"/>
  <path fill="#292D32" d="M22,9.11 C21.84,9.11 21.68,9.06 21.541,8.95 C15.741,4.47 8.251,4.47 2.461,8.95 C2.131,9.2 1.661,9.14 1.411,8.82 C1.161,8.49 1.221,8.02 1.541,7.77 C7.891,2.86 16.101,2.86 22.46,7.77 C22.791,8.02 22.851,8.49 22.59,8.82 C22.451,9.01 22.221,9.11 22,9.11 Z"/>
  <path fill="#292D32" d="M17.21,16.24 C17.05,16.24 16.89,16.19 16.75,16.08 C13.87,13.85 10.14,13.85 7.25,16.08 C6.92,16.33 6.45,16.27 6.2,15.95 C5.95,15.62 6.01,15.15 6.33,14.9 C9.77,12.24 14.22,12.24 17.66,14.9 C17.99,15.15 18.05,15.62 17.79,15.95 C17.65,16.14 17.43,16.24 17.21,16.24 Z"/>
  <path fill="#292D32" d="M14.599,19.9 C14.439,19.9 14.279,19.85 14.139,19.74 C12.839,18.73 11.149,18.73 9.849,19.74 C9.519,19.99 9.049,19.93 8.799,19.61 C8.549,19.28 8.609,18.81 8.929,18.56 C10.789,17.12 13.189,17.12 15.049,18.56 C15.379,18.81 15.439,19.28 15.179,19.61 C15.049,19.79 14.829,19.9 14.599,19.9 Z"/>
</svg>

