<svg xmlns="http://www.w3.org/2000/svg" width="24" height="24" viewBox="0 0 24 24">
  <defs/>
  <path fill="#292D32" d="M4.452,11.246 Q7.879,8.6 12.005,8.6 Q16.131,8.6 19.558,11.246 Q19.804,11.436 19.844,11.744 Q19.884,12.052 19.694,12.298 Q19.504,12.544 19.196,12.584 Q18.888,12.623 18.642,12.434 Q12.005,7.31 5.368,12.434 Q5.122,12.623 4.814,12.584 Q4.506,12.544 4.316,12.298 Q4.127,12.052 4.166,11.744 Q4.206,11.436 4.452,11.246 Z"/>
  <path fill="#292D32" d="M1.542,7.766 Q6.289,4.1 12,4.1 Q17.711,4.1 22.458,7.766 Q22.704,7.956 22.744,8.264 Q22.783,8.573 22.594,8.818 Q22.404,9.064 22.096,9.104 Q21.787,9.143 21.542,8.954 Q17.199,5.6 12,5.6 Q6.801,5.6 2.458,8.954 Q2.213,9.143 1.904,9.104 Q1.596,9.064 1.406,8.818 Q1.217,8.573 1.256,8.264 Q1.296,7.956 1.542,7.766 Z"/>
  <path fill="#292D32" d="M6.331,14.897 Q11.995,10.51 17.659,14.897 Q17.905,15.087 17.944,15.395 Q17.983,15.704 17.793,15.949 Q17.603,16.195 17.294,16.234 Q16.986,16.273 16.741,16.083 Q11.995,12.407 7.249,16.083 Q7.004,16.273 6.696,16.234 Q6.387,16.195 6.197,15.949 Q6.007,15.704 6.046,15.395 Q6.085,15.087 6.331,14.897 Z"/>
  <path fill="#292D32" d="M8.942,18.556 Q12.005,16.191 15.068,18.556 Q15.314,18.746 15.354,19.054 Q15.393,19.362 15.204,19.608 Q15.014,19.854 14.706,19.894 Q14.398,19.933 14.152,19.744 Q12.005,18.086 9.858,19.744 Q9.613,19.933 9.304,19.894 Q8.996,19.854 8.806,19.608 Q8.617,19.362 8.656,19.054 Q8.696,18.746 8.942,18.556 Z"/>
</svg>

