<svg xmlns="http://www.w3.org/2000/svg" width="24" height="24" viewBox="0 0 24 24">
  <defs/>
  <path fill="#292D32" d="M5.541,9.367 Q12,4.367 18.459,9.367 Q18.705,9.557 18.744,9.865 Q18.783,10.173 18.593,10.419 Q18.403,10.665 18.095,10.704 Q17.787,10.743 17.541,10.553 Q12,6.264 6.459,10.553 Q6.213,10.743 5.905,10.704 Q5.597,10.665 5.407,10.419 Q5.217,10.173 5.256,9.865 Q5.295,9.557 5.541,9.367 Z"/>
  <path fill="#292D32" d="M7.141,12.456 Q12.005,8.704 16.868,12.456 Q17.114,12.646 17.153,12.954 Q17.193,13.262 17.003,13.508 Q16.814,13.754 16.506,13.794 Q16.197,13.834 15.951,13.644 Q12.005,10.599 8.058,13.644 Q7.812,13.834 7.504,13.794 Q7.196,13.754 7.006,13.508 Q6.816,13.262 6.856,12.954 Q6.896,12.646 7.141,12.456 Z"/>
  <path fill="#292D32" d="M9.342,15.547 Q12.001,13.488 14.66,15.547 Q14.906,15.737 14.945,16.045 Q14.984,16.354 14.794,16.599 Q14.604,16.845 14.295,16.884 Q13.987,16.923 13.742,16.733 Q12.001,15.385 10.26,16.733 Q10.014,16.923 9.706,16.884 Q9.398,16.845 9.208,16.599 Q9.018,16.353 9.057,16.045 Q9.096,15.737 9.342,15.547 Z"/>
  <path fill="#292D32" d="M2.75,13.05 L2.75,15 Q2.75,18.439 4.155,19.845 Q5.561,21.25 9,21.25 L15,21.25 Q18.439,21.25 19.845,19.845 Q21.25,18.439 21.25,15 L21.25,9 Q21.25,2.75 15,2.75 L9,2.75 Q2.75,2.75 2.75,9 Q2.75,9.311 2.53,9.53 Q2.311,9.75 2,9.75 Q1.689,9.75 1.47,9.53 Q1.25,9.311 1.25,9 Q1.25,1.25 9,1.25 L15,1.25 Q22.75,1.25 22.75,9 L22.75,15 Q22.75,22.75 15,22.75 L9,22.75 Q1.25,22.75 1.25,15 L1.25,13.05 Q1.25,12.739 1.47,12.52 Q1.689,12.3 2,12.3 Q2.311,12.3 2.53,12.52 Q2.75,12.739 2.75,13.05 Z"/>
</svg>

