<svg xmlns="http://www.w3.org/2000/svg" width="24" height="24" viewBox="0 0 24 24">
  <defs/>
  <path fill="#292D32" opacity="0.4" d="M16.19,2 L7.82,2 C4.17,2 2,4.17 2,7.81 L2,16.18 C2,19.82 4.17,21.99 7.81,21.99 L16.18,21.99 C19.82,21.99 21.99,19.82 21.99,16.18 L21.99,7.81 C22,4.17 19.83,2 16.19,2 Z"/>
  <path fill="#292D32" d="M18,10.71 C17.84,10.71 17.68,10.66 17.541,10.55 C14.171,7.95 9.821,7.95 6.461,10.55 C6.131,10.8 5.661,10.74 5.411,10.42 C5.161,10.09 5.221,9.62 5.541,9.37 C9.461,6.34 14.53,6.34 18.46,9.37 C18.791,9.62 18.851,10.09 18.59,10.42 C18.451,10.61 18.221,10.71 18,10.71 Z"/>
  <path fill="#292D32" d="M16.4,13.8 C16.24,13.8 16.08,13.75 15.94,13.64 C13.54,11.79 10.45,11.79 8.05,13.64 C7.72,13.89 7.25,13.83 7,13.51 C6.75,13.19 6.81,12.71 7.13,12.46 C10.08,10.18 13.9,10.18 16.85,12.46 C17.18,12.71 17.24,13.18 16.98,13.51 C16.85,13.7 16.63,13.8 16.4,13.8 Z"/>
  <path fill="#292D32" d="M14.2,16.89 C14.04,16.89 13.88,16.84 13.74,16.73 C12.68,15.91 11.31,15.91 10.25,16.73 C9.92,16.98 9.45,16.92 9.2,16.6 C8.95,16.27 9.01,15.8 9.33,15.55 C10.92,14.32 13.06,14.32 14.65,15.55 C14.98,15.8 15.04,16.27 14.78,16.6 C14.65,16.79 14.43,16.89 14.2,16.89 Z"/>
</svg>

