<svg xmlns="http://www.w3.org/2000/svg" width="24" height="24" viewBox="0 0 24 24">
  <defs/>
  <path d="M21.25,6.03 L21.25,2.915 L12.75,4.615 L12.75,10.25 L22,10.25 Q22.311,10.25 22.53,10.47 Q22.75,10.689 22.75,11 Q22.75,11.311 22.53,11.53 Q22.311,11.75 22,11.75 L12,11.75 Q11.689,11.75 11.47,11.53 Q11.25,11.311 11.25,11 L11.25,4 Q11.25,3.732 11.42,3.525 Q11.59,3.317 11.853,3.265 L21.853,1.265 Q21.926,1.25 22,1.25 Q22.311,1.25 22.53,1.47 Q22.75,1.689 22.75,2 L22.75,6.03 Q22.75,6.341 22.53,6.56 Q22.311,6.78 22,6.78 Q21.689,6.78 21.47,6.56 Q21.25,6.341 21.25,6.03 Z"/>
  <path d="M21.853,22.735 L11.853,20.735 Q11.59,20.683 11.42,20.475 Q11.25,20.268 11.25,20 L11.25,13 Q11.25,12.689 11.47,12.47 Q11.689,12.25 12,12.25 L22,12.25 Q22.311,12.25 22.53,12.47 Q22.75,12.689 22.75,13 L22.75,22 Q22.75,22.311 22.53,22.53 Q22.311,22.75 22,22.75 Q21.926,22.75 21.853,22.735 Z M21.25,21.085 L21.25,13.75 L12.75,13.75 L12.75,19.385 L21.25,21.085 Z"/>
  <path d="M9.844,3.566 Q9.921,3.55 10,3.55 Q10.311,3.55 10.53,3.77 Q10.75,3.989 10.75,4.3 L10.75,11 Q10.75,11.311 10.53,11.53 Q10.311,11.75 10,11.75 L2,11.75 Q1.689,11.75 1.47,11.53 Q1.25,11.311 1.25,11 L1.25,6 Q1.25,5.393 1.844,5.266 Z M9.25,5.226 L2.75,6.607 L2.75,10.25 L9.25,10.25 L9.25,5.226 Z"/>
  <path d="M9.844,20.434 L1.844,18.734 Q1.25,18.607 1.25,18 L1.25,13 Q1.25,12.689 1.47,12.47 Q1.689,12.25 2,12.25 L10,12.25 Q10.311,12.25 10.53,12.47 Q10.75,12.689 10.75,13 L10.75,19.7 Q10.75,20.011 10.53,20.23 Q10.311,20.45 10,20.45 Q9.921,20.45 9.844,20.434 Z M9.25,18.774 L9.25,13.75 L2.75,13.75 L2.75,17.393 L9.25,18.774 Z"/>
</svg>

