<svg xmlns="http://www.w3.org/2000/svg" width="24" height="24" viewBox="0 0 24 24">
  <defs/>
  <path fill="#292D32" d="M9.885,10.956 Q12,12.22 14.115,10.956 Q17,9.233 19.885,10.956 L22.386,12.457 Q22.652,12.617 22.728,12.918 Q22.803,13.219 22.643,13.486 Q22.483,13.752 22.182,13.828 Q21.881,13.903 21.614,13.743 L19.115,12.244 Q17,10.98 14.885,12.244 Q12,13.967 9.115,12.244 Q8.849,12.084 8.773,11.783 Q8.697,11.482 8.856,11.215 Q9.015,10.949 9.317,10.873 Q9.618,10.797 9.885,10.956 Z"/>
  <path fill="#292D32" d="M1.614,12.457 L4.114,10.957 Q4.887,10.486 5.812,10.287 Q6.116,10.221 6.377,10.39 Q6.638,10.558 6.703,10.862 Q6.769,11.166 6.6,11.427 Q6.432,11.688 6.128,11.753 Q5.451,11.899 4.886,12.243 L2.386,13.743 Q2.119,13.903 1.818,13.828 Q1.517,13.752 1.357,13.486 Q1.197,13.219 1.272,12.918 Q1.348,12.617 1.614,12.457 Z"/>
  <path fill="#292D32" d="M2.386,3.257 L4.886,4.757 Q7,6.02 9.115,4.756 Q12,3.033 14.885,4.756 Q17,6.02 19.115,4.756 L21.614,3.257 Q21.881,3.097 22.182,3.172 Q22.483,3.248 22.643,3.514 Q22.803,3.78 22.728,4.082 Q22.652,4.383 22.386,4.543 L19.885,6.044 Q17,7.767 14.115,6.044 Q12,4.78 9.885,6.044 Q7,7.767 4.114,6.043 L1.614,4.543 Q1.348,4.383 1.272,4.082 Q1.197,3.78 1.357,3.514 Q1.517,3.248 1.818,3.172 Q2.119,3.097 2.386,3.257 Z"/>
  <path fill="#292D32" d="M1.614,19.457 L4.114,17.957 Q7,16.233 9.885,17.956 Q12,19.22 14.115,17.956 Q17,16.233 19.885,17.956 L22.386,19.457 Q22.652,19.617 22.728,19.918 Q22.803,20.219 22.643,20.486 Q22.483,20.752 22.182,20.828 Q21.881,20.903 21.614,20.743 L19.115,19.244 Q17,17.98 14.885,19.244 Q12,20.967 9.115,19.244 Q7,17.98 4.886,19.243 L2.386,20.743 Q2.119,20.903 1.818,20.828 Q1.517,20.752 1.357,20.486 Q1.197,20.219 1.272,19.918 Q1.348,19.617 1.614,19.457 Z"/>
</svg>

