<svg xmlns="http://www.w3.org/2000/svg" width="24" height="24" viewBox="0 0 24 24">
  <defs/>
  <path fill="#292D32" d="M18.5,22.75 C16.16,22.75 14.25,20.84 14.25,18.5 L14.25,18 C14.25,17.59 14.59,17.25 15,17.25 C15.41,17.25 15.75,17.59 15.75,18 L15.75,18.5 C15.75,20.02 16.98,21.25 18.5,21.25 C20.02,21.25 21.25,20.02 21.25,18.5 C21.25,16.98 20.02,15.75 18.5,15.75 L2,15.75 C1.59,15.75 1.25,15.41 1.25,15 C1.25,14.59 1.59,14.25 2,14.25 L18.5,14.25 C20.84,14.25 22.75,16.16 22.75,18.5 C22.75,20.84 20.84,22.75 18.5,22.75 Z"/>
  <path fill="#292D32" opacity="0.4" d="M18.5,12.75 L2,12.75 C1.59,12.75 1.25,12.41 1.25,12 C1.25,11.59 1.59,11.25 2,11.25 L18.5,11.25 C20.02,11.25 21.25,10.02 21.25,8.5 C21.25,6.98 20.02,5.75 18.5,5.75 C16.98,5.75 15.75,6.98 15.75,8.5 L15.75,9 C15.75,9.41 15.41,9.75 15,9.75 C14.59,9.75 14.25,9.41 14.25,9 L14.25,8.5 C14.25,6.16 16.16,4.25 18.5,4.25 C20.84,4.25 22.75,6.16 22.75,8.5 C22.75,10.84 20.84,12.75 18.5,12.75 Z"/>
  <path fill="#292D32" d="M9.31,9.75 L2,9.75 C1.59,9.75 1.25,9.41 1.25,9 C1.25,8.59 1.59,8.25 2,8.25 L9.31,8.25 C10.38,8.25 11.25,7.38 11.25,6.31 C11.25,5.24 10.38,4.37 9.31,4.37 C8.24,4.37 7.37,5.24 7.37,6.31 L7.37,6.69 C7.37,7.1 7.03,7.44 6.62,7.44 C6.21,7.44 5.87,7.11 5.87,6.69 L5.87,6.31 C5.87,4.41 7.41,2.87 9.31,2.87 C11.21,2.87 12.75,4.41 12.75,6.31 C12.75,8.21 11.21,9.75 9.31,9.75 Z"/>
</svg>

