<svg xmlns="http://www.w3.org/2000/svg" width="24" height="24" viewBox="0 0 24 24">
  <defs/>
  <path fill="white" opacity="0.58" d="M24,0 L0,0 L0,24 L24,24 L24,0 Z"/>
  <path fill="#292D32" opacity="0.4" d="M20.8,2.24 C21.42,2.12 22,2.59 22,3.22 L22,10 C22,10.55 21.55,11 21,11 L13,11 C12.45,11 12,10.55 12,10 L12,4.82 C12,4.34 12.33,3.93 12.8,3.84 Z"/>
  <path fill="#292D32" d="M20.8,21.76 L12.8,20.16 C12.33,20.07 12,19.66 12,19.18 L12,14 C12,13.45 12.45,13 13,13 L21,13 C21.55,13 22,13.45 22,14 L22,20.78 C22,21.41 21.42,21.88 20.8,21.76 Z"/>
  <path fill="#292D32" d="M8.79,4.56 C9.41,4.42 10,4.9 10,5.53 L10,10 C10,10.55 9.55,11 9,11 L3,11 C2.45,11 2,10.55 2,10 L2,6.82 C2,6.35 2.33,5.94 2.79,5.84 Z"/>
  <path fill="#292D32" opacity="0.4" d="M8.79,19.44 L2.79,18.16 C2.33,18.06 2,17.65 2,17.18 L2,14 C2,13.45 2.45,13 3,13 L9,13 C9.55,13 10,13.45 10,14 L10,18.47 C10,19.1 9.41,19.58 8.79,19.44 Z"/>
</svg>

