<svg xmlns="http://www.w3.org/2000/svg" width="24" height="24" viewBox="0 0 24 24">
  <defs/>
  <path fill="#292D32" d="M2,14.25 L18.5,14.25 Q20.258,14.25 21.504,15.496 Q22.75,16.742 22.75,18.5 Q22.75,20.258 21.504,21.504 Q20.258,22.75 18.5,22.75 Q16.742,22.75 15.496,21.504 Q14.25,20.258 14.25,18.5 L14.25,18 Q14.25,17.689 14.47,17.47 Q14.689,17.25 15,17.25 Q15.311,17.25 15.53,17.47 Q15.75,17.689 15.75,18 L15.75,18.5 Q15.75,19.637 16.557,20.443 Q17.363,21.25 18.5,21.25 Q19.637,21.25 20.443,20.443 Q21.25,19.637 21.25,18.5 Q21.25,15.75 18.5,15.75 L2,15.75 Q1.689,15.75 1.47,15.53 Q1.25,15.311 1.25,15 Q1.25,14.689 1.47,14.47 Q1.689,14.25 2,14.25 Z"/>
  <path fill="#292D32" opacity="0.4" d="M2,11.25 L18.5,11.25 Q21.25,11.25 21.25,8.5 Q21.25,7.371 20.44,6.56 Q19.629,5.75 18.5,5.75 Q15.75,5.75 15.75,8.5 L15.75,9 Q15.75,9.311 15.53,9.53 Q15.311,9.75 15,9.75 Q14.689,9.75 14.47,9.53 Q14.25,9.311 14.25,9 L14.25,8.5 Q14.25,6.743 15.5,5.495 Q16.748,4.25 18.5,4.25 Q20.251,4.25 21.5,5.5 Q22.75,6.749 22.75,8.5 Q22.75,10.257 21.5,11.505 Q20.252,12.75 18.5,12.75 L2,12.75 Q1.689,12.75 1.47,12.53 Q1.25,12.311 1.25,12 Q1.25,11.689 1.47,11.47 Q1.689,11.25 2,11.25 Z"/>
  <path fill="#292D32" d="M2,8.25 L9.31,8.25 Q11.25,8.25 11.25,6.31 Q11.25,4.37 9.31,4.37 Q8.505,4.37 7.937,4.94 Q7.37,5.508 7.37,6.31 L7.37,6.69 Q7.37,7.001 7.15,7.22 Q6.931,7.44 6.62,7.44 Q6.309,7.44 6.09,7.22 Q5.87,7.001 5.87,6.69 L5.87,6.31 Q5.87,4.888 6.875,3.88 Q7.883,2.87 9.31,2.87 Q10.732,2.87 11.74,3.875 Q12.75,4.883 12.75,6.31 Q12.75,7.732 11.745,8.74 Q10.737,9.75 9.31,9.75 L2,9.75 Q1.689,9.75 1.47,9.53 Q1.25,9.311 1.25,9 Q1.25,8.689 1.47,8.47 Q1.689,8.25 2,8.25 Z"/>
</svg>

