<svg xmlns="http://www.w3.org/2000/svg" width="24" height="24" viewBox="0 0 24 24">
  <defs/>
  <path d="M22,11.75 L12,11.75 C11.59,11.75 11.25,11.41 11.25,11 L11.25,4 C11.25,3.64 11.5,3.33 11.85,3.26 L21.85,1.26 C22.07,1.22 22.3,1.27 22.47,1.42 C22.64,1.56 22.74,1.78 22.74,2 L22.74,11 C22.75,11.41 22.41,11.75 22,11.75 Z M12.75,10.25 L21.25,10.25 L21.25,2.92 L12.75,4.62 L12.75,10.25 Z"/>
  <path d="M22,22.75 C21.95,22.75 21.9,22.75 21.85,22.74 L11.85,20.74 C11.5,20.67 11.25,20.36 11.25,20 L11.25,13 C11.25,12.59 11.59,12.25 12,12.25 L22,12.25 C22.41,12.25 22.75,12.59 22.75,13 L22.75,22 C22.75,22.22 22.65,22.44 22.48,22.58 C22.34,22.69 22.17,22.75 22,22.75 Z M12.75,19.38 L21.25,21.08 L21.25,13.75 L12.75,13.75 L12.75,19.38 Z"/>
  <path d="M10,11.75 L2,11.75 C1.59,11.75 1.25,11.41 1.25,11 L1.25,6 C1.25,5.65 1.5,5.34 1.84,5.27 L9.84,3.57 C10.06,3.52 10.29,3.58 10.47,3.72 C10.65,3.86 10.75,4.08 10.75,4.3 L10.75,11 C10.75,11.41 10.41,11.75 10,11.75 Z M2.75,10.25 L9.25,10.25 L9.25,5.23 L2.75,6.61 L2.75,10.25 Z"/>
  <path d="M10,20.45 C9.95,20.45 9.9,20.44 9.84,20.43 L1.84,18.73 C1.49,18.66 1.25,18.35 1.25,18 L1.25,13 C1.25,12.59 1.59,12.25 2,12.25 L10,12.25 C10.41,12.25 10.75,12.59 10.75,13 L10.75,19.7 C10.75,19.93 10.65,20.14 10.47,20.28 C10.34,20.39 10.17,20.45 10,20.45 Z M2.75,17.39 L9.25,18.77 L9.25,13.75 L2.75,13.75 L2.75,17.39 Z"/>
</svg>

