<svg xmlns="http://www.w3.org/2000/svg" width="24" height="24" viewBox="0 0 24 24">
  <defs/>
  <path fill="#292D32" d="M22,13.851 C21.87,13.851 21.74,13.821 21.62,13.741 L19.12,12.241 C17.82,11.461 16.2,11.461 14.89,12.241 C13.11,13.311 10.9,13.311 9.12,12.241 C7.82,11.461 6.2,11.461 4.89,12.241 L2.39,13.741 C2.03,13.951 1.57,13.841 1.36,13.481 C1.15,13.131 1.26,12.661 1.62,12.451 L4.12,10.951 C5.9,9.881 8.11,9.881 9.89,10.951 C11.19,11.731 12.81,11.731 14.12,10.951 C15.9,9.881 18.11,9.881 19.89,10.951 L22.39,12.451 C22.75,12.661 22.86,13.121 22.65,13.481 C22.5,13.721 22.25,13.851 22,13.851 Z"/>
  <path fill="#292D32" d="M7.001,6.848 C6.001,6.848 5.001,6.578 4.111,6.048 L1.611,4.548 C1.261,4.328 1.141,3.868 1.361,3.518 C1.571,3.158 2.031,3.048 2.391,3.258 L4.891,4.758 C6.191,5.538 7.811,5.538 9.121,4.758 C10.901,3.688 13.111,3.688 14.891,4.758 C16.191,5.538 17.811,5.538 19.121,4.758 L21.621,3.258 C21.981,3.048 22.441,3.158 22.651,3.518 C22.861,3.868 22.751,4.338 22.391,4.548 L19.891,6.048 C18.111,7.118 15.901,7.118 14.121,6.048 C12.821,5.268 11.201,5.268 9.891,6.048 C9.001,6.578 8.001,6.848 7.001,6.848 Z"/>
  <path fill="#292D32" d="M22,20.851 C21.87,20.851 21.74,20.821 21.62,20.741 L19.12,19.241 C17.82,18.461 16.2,18.461 14.89,19.241 C13.11,20.311 10.9,20.311 9.12,19.241 C7.82,18.461 6.2,18.461 4.89,19.241 L2.39,20.741 C2.03,20.951 1.57,20.841 1.36,20.481 C1.15,20.131 1.26,19.661 1.62,19.451 L4.12,17.951 C5.9,16.881 8.11,16.881 9.89,17.951 C11.19,18.731 12.81,18.731 14.12,17.951 C15.9,16.881 18.11,16.881 19.89,17.951 L22.39,19.451 C22.75,19.661 22.86,20.121 22.65,20.481 C22.5,20.721 22.25,20.851 22,20.851 Z"/>
</svg>

