<svg xmlns="http://www.w3.org/2000/svg" width="24" height="24" viewBox="0 0 24 24">
  <defs/>
  <path d="M16,4.25 L19.5,4.25 Q19.934,4.25 20.151,4.626 L22.851,9.326 Q23.062,9.695 22.855,10.066 L17.655,19.366 Q17.503,19.637 17.204,19.722 Q16.906,19.806 16.634,19.655 Q16.459,19.557 16.356,19.384 L14.506,16.284 Q14.282,15.908 14.5,15.527 L17.836,9.701 L15.35,5.374 Q15.195,5.104 15.276,4.804 Q15.357,4.504 15.627,4.35 Q15.8,4.25 16,4.25 Z M17.296,5.75 L19.351,9.326 Q19.565,9.699 19.351,10.073 L16.019,15.892 L16.979,17.501 L21.338,9.705 L19.066,5.75 L17.296,5.75 Z"/>
  <path d="M11.496,17.855 L10.656,19.365 Q10.505,19.636 10.206,19.721 Q9.907,19.806 9.636,19.655 Q9.46,19.557 9.356,19.384 L7.506,16.284 Q7.282,15.908 7.5,15.527 L10.836,9.701 L8.35,5.374 Q8.195,5.104 8.276,4.804 Q8.357,4.504 8.627,4.35 Q8.8,4.25 9,4.25 L12.5,4.25 Q12.934,4.25 13.151,4.626 L15.851,9.326 Q16.062,9.695 15.855,10.065 L13.585,14.135 Q13.434,14.407 13.135,14.491 Q12.836,14.576 12.565,14.425 Q12.294,14.274 12.209,13.975 Q12.124,13.676 12.275,13.405 L14.339,9.705 L12.066,5.75 L10.296,5.75 L12.351,9.326 Q12.565,9.699 12.351,10.073 L9.019,15.892 L9.978,17.498 L10.185,17.125 Q10.336,16.854 10.635,16.769 Q10.934,16.684 11.205,16.835 Q11.476,16.986 11.562,17.284 Q11.647,17.583 11.496,17.855 Z"/>
  <path d="M1.801,4.25 L5.301,4.25 Q5.739,4.25 5.954,4.632 L8.654,9.432 Q8.866,9.808 8.648,10.179 L6.948,13.079 Q6.791,13.347 6.49,13.426 Q6.189,13.504 5.921,13.347 Q5.752,13.248 5.653,13.078 L1.153,5.378 Q0.997,5.11 1.075,4.81 Q1.154,4.509 1.422,4.352 Q1.598,4.25 1.801,4.25 Z M3.108,5.75 L6.302,11.215 L7.136,9.792 L4.862,5.75 L3.108,5.75 Z"/>
</svg>

