<svg xmlns="http://www.w3.org/2000/svg" width="24" height="24" viewBox="0 0 24 24">
  <defs/>
  <path fill="white" opacity="0.58" d="M24,0 L0,0 L0,24 L24,24 L24,0 Z"/>
  <path fill="#292D32" d="M16.86,5 L19.21,5 C19.39,5 19.55,5.1 19.64,5.25 L22.05,9.45 C22.14,9.6 22.14,9.79 22.05,9.94 L17.41,18.24 C17.22,18.58 16.74,18.58 16.54,18.25 L15.28,16.14 C15.19,15.98 15.19,15.79 15.28,15.64 L18.54,9.94 C18.63,9.79 18.63,9.6 18.54,9.44 L16.41,5.74 C16.24,5.42 16.48,5 16.86,5 Z"/>
  <path fill="#292D32" opacity="0.4" d="M9.86,5 L12.21,5 C12.39,5 12.55,5.1 12.64,5.25 L15.05,9.45 C15.14,9.6 15.14,9.79 15.05,9.94 L10.41,18.24 C10.22,18.58 9.74,18.58 9.54,18.25 L8.28,16.14 C8.19,15.98 8.19,15.79 8.28,15.64 L11.54,9.94 C11.63,9.79 11.63,9.6 11.54,9.44 L9.41,5.74 C9.24,5.42 9.48,5 9.86,5 Z"/>
  <path fill="#292D32" d="M1.801,5 L5.011,5 C5.191,5 5.361,5.1 5.451,5.25 L7.871,9.54 C7.961,9.69 7.961,9.88 7.871,10.04 L6.751,11.96 C6.561,12.29 6.081,12.29 5.891,11.96 L1.801,5 Z"/>
</svg>

