<svg xmlns="http://www.w3.org/2000/svg" width="24" height="24" viewBox="0 0 24 24">
  <defs/>
  <path d="M17,19.75 C16.74,19.75 16.49,19.61 16.36,19.38 L14.51,16.28 C14.37,16.05 14.37,15.76 14.5,15.52 L17.84,9.69 L15.35,5.36 C15.22,5.13 15.22,4.84 15.35,4.61 C15.48,4.38 15.73,4.24 16,4.24 L19.5,4.24 C19.77,4.24 20.02,4.38 20.15,4.62 L22.85,9.32 C22.98,9.55 22.98,9.83 22.85,10.06 L17.65,19.36 C17.52,19.59 17.27,19.74 17.01,19.74 C17.01,19.75 17,19.75 17,19.75 Z M16.02,15.89 L16.98,17.5 L21.34,9.7 L19.07,5.74 L17.3,5.74 L19.35,9.32 C19.48,9.55 19.48,9.84 19.35,10.07 L16.02,15.89 Z"/>
  <path d="M10,19.75 C9.74,19.75 9.49,19.61 9.36,19.38 L7.51,16.28 C7.37,16.05 7.37,15.76 7.5,15.52 L10.84,9.69 L8.35,5.36 C8.22,5.13 8.22,4.84 8.35,4.61 C8.48,4.38 8.73,4.24 9,4.24 L12.5,4.24 C12.77,4.24 13.02,4.38 13.15,4.62 L15.85,9.32 C15.98,9.55 15.98,9.83 15.85,10.06 L10.65,19.36 C10.52,19.59 10.27,19.74 10.01,19.74 C10.01,19.75 10,19.75 10,19.75 Z M9.02,15.89 L9.98,17.5 L14.34,9.7 L12.07,5.74 L10.3,5.74 L12.35,9.32 C12.48,9.55 12.48,9.84 12.35,10.07 L9.02,15.89 Z"/>
  <path d="M6.3,13.45 C6.03,13.45 5.79,13.31 5.65,13.08 L1.15,5.38 C1.01,5.15 1.01,4.86 1.15,4.63 C1.28,4.4 1.53,4.25 1.8,4.25 L5.3,4.25 C5.57,4.25 5.82,4.4 5.95,4.63 L8.65,9.43 C8.78,9.66 8.78,9.95 8.64,10.18 L6.94,13.08 C6.81,13.31 6.57,13.45 6.3,13.45 Z M3.11,5.75 L6.3,11.22 L7.13,9.8 L4.86,5.76 L3.11,5.76 L3.11,5.75 Z"/>
</svg>

