<svg xmlns="http://www.w3.org/2000/svg" width="24" height="24" viewBox="0 0 24 24">
  <defs/>
  <path fill="#17191C" d="M16,4.25 L19.5,4.25 Q19.934,4.25 20.15,4.626 L22.85,9.326 Q23.062,9.695 22.855,10.066 L17.655,19.366 Q17.503,19.637 17.204,19.722 Q16.905,19.806 16.634,19.655 Q16.463,19.559 16.361,19.392 L14.461,16.292 Q14.227,15.91 14.452,15.523 L17.834,9.698 L15.35,5.374 Q15.195,5.104 15.276,4.804 Q15.357,4.504 15.627,4.35 Q15.8,4.25 16,4.25 Z M17.296,5.75 L19.35,9.326 Q19.566,9.702 19.349,10.077 L15.973,15.89 L16.97,17.516 L21.338,9.705 L19.066,5.75 L17.296,5.75 Z"/>
  <path fill="#17191C" d="M9,4.25 L12.5,4.25 Q12.934,4.25 13.15,4.626 L15.85,9.326 Q16.062,9.695 15.855,10.066 L10.655,19.366 Q10.503,19.637 10.204,19.722 Q9.905,19.806 9.634,19.655 Q9.463,19.559 9.361,19.392 L7.461,16.292 Q7.227,15.91 7.452,15.523 L10.834,9.698 L8.35,5.374 Q8.195,5.104 8.276,4.804 Q8.357,4.504 8.627,4.35 Q8.8,4.25 9,4.25 Z M10.296,5.75 L12.35,9.326 Q12.566,9.702 12.349,10.077 L8.973,15.89 L9.97,17.516 L14.338,9.705 L12.066,5.75 L10.296,5.75 Z"/>
  <path fill="#17191C" d="M1.8,4.25 L5.3,4.25 Q5.739,4.25 5.954,4.632 L8.654,9.432 Q8.865,9.808 8.647,10.179 L6.947,13.079 Q6.79,13.347 6.489,13.426 Q6.189,13.504 5.921,13.347 Q5.752,13.248 5.653,13.078 L1.153,5.378 Q0.996,5.11 1.075,4.81 Q1.153,4.509 1.422,4.352 Q1.597,4.25 1.8,4.25 Z M3.107,5.75 L6.301,11.215 L7.135,9.792 L4.861,5.75 L3.107,5.75 Z"/>
</svg>

