<svg xmlns="http://www.w3.org/2000/svg" width="24" height="24" viewBox="0 0 24 24">
  <defs/>
  <path fill="#292D32" opacity="0.4" d="M19,9 C19,12.62 16.26,15.59 12.75,15.96 C12.5,15.99 12.25,16 12,16 C11.75,16 11.5,15.99 11.25,15.96 C7.74,15.59 5,12.62 5,9 C5,5.13 8.13,2 12,2 C15.87,2 19,5.13 19,9 Z"/>
  <path fill="#292D32" d="M15.75,19 C15.75,19.41 15.41,19.75 15,19.75 L12.75,19.75 L12.75,22 C12.75,22.41 12.41,22.75 12,22.75 C11.59,22.75 11.25,22.41 11.25,22 L11.25,19.75 L9,19.75 C8.59,19.75 8.25,19.41 8.25,19 C8.25,18.59 8.59,18.25 9,18.25 L11.25,18.25 L11.25,15.96 C11.5,15.99 11.75,16 12,16 C12.25,16 12.5,15.99 12.75,15.96 L12.75,18.25 L15,18.25 C15.41,18.25 15.75,18.59 15.75,19 Z"/>
</svg>

