<svg xmlns="http://www.w3.org/2000/svg" width="24" height="24" viewBox="0 0 24 24">
  <defs/>
  <path fill="#292D32" d="M19,9 C19,5.13 15.87,2 12,2 C8.13,2 5,5.13 5,9 C5,12.62 7.74,15.59 11.25,15.96 L11.25,18.25 L9,18.25 C8.59,18.25 8.25,18.59 8.25,19 C8.25,19.41 8.59,19.75 9,19.75 L11.25,19.75 L11.25,22 C11.25,22.41 11.59,22.75 12,22.75 C12.41,22.75 12.75,22.41 12.75,22 L12.75,19.75 L15,19.75 C15.41,19.75 15.75,19.41 15.75,19 C15.75,18.59 15.41,18.25 15,18.25 L12.75,18.25 L12.75,15.96 C16.26,15.59 19,12.62 19,9 Z"/>
</svg>

