<svg xmlns="http://www.w3.org/2000/svg" width="24" height="24" viewBox="0 0 24 24">
  <defs/>
  <path fill="#292D32" d="M5.75,9 Q5.75,11.592 7.579,13.421 Q9.408,15.25 12,15.25 Q14.592,15.25 16.421,13.421 Q18.25,11.592 18.25,9 Q18.25,6.408 16.421,4.579 Q14.592,2.75 12,2.75 Q9.411,2.75 7.58,4.58 Q7.361,4.8 7.05,4.8 Q6.739,4.8 6.52,4.58 Q6.3,4.361 6.3,4.05 Q6.3,3.739 6.52,3.52 Q8.789,1.25 12,1.25 Q15.213,1.25 17.482,3.518 Q19.75,5.787 19.75,9 Q19.75,12.213 17.482,14.482 Q15.213,16.75 12,16.75 Q8.787,16.75 6.518,14.482 Q4.25,12.213 4.25,9 Q4.25,8.689 4.47,8.47 Q4.689,8.25 5,8.25 Q5.311,8.25 5.53,8.47 Q5.75,8.689 5.75,9 Z"/>
  <path fill="#292D32" d="M12.75,16 L12.75,22 Q12.75,22.311 12.53,22.53 Q12.311,22.75 12,22.75 Q11.689,22.75 11.47,22.53 Q11.25,22.311 11.25,22 L11.25,16 Q11.25,15.689 11.47,15.47 Q11.689,15.25 12,15.25 Q12.311,15.25 12.53,15.47 Q12.75,15.689 12.75,16 Z"/>
  <path fill="#292D32" d="M15,19.75 L9,19.75 Q8.689,19.75 8.47,19.53 Q8.25,19.311 8.25,19 Q8.25,18.689 8.47,18.47 Q8.689,18.25 9,18.25 L15,18.25 Q15.311,18.25 15.53,18.47 Q15.75,18.689 15.75,19 Q15.75,19.311 15.53,19.53 Q15.311,19.75 15,19.75 Z"/>
</svg>

