<svg xmlns="http://www.w3.org/2000/svg" width="24" height="24" viewBox="0 0 24 24">
  <defs/>
  <path d="M18.71,8.47 L18.71,15.53 Q18.71,15.841 18.49,16.06 Q18.271,16.28 17.96,16.28 L16.19,16.28 Q15.144,16.28 14.407,15.543 Q13.67,14.806 13.67,13.76 Q13.67,11.24 16.19,11.24 L17.21,11.24 L17.21,8.47 Q17.21,8.159 17.43,7.94 Q17.649,7.72 17.96,7.72 Q18.271,7.72 18.49,7.94 Q18.71,8.159 18.71,8.47 Z M17.21,12.74 L16.19,12.74 Q15.766,12.74 15.468,13.038 Q15.17,13.336 15.17,13.76 Q15.17,14.184 15.468,14.482 Q15.766,14.78 16.19,14.78 L17.21,14.78 L17.21,12.74 Z"/>
  <path d="M6.625,8.001 L12.275,15.061 Q12.469,15.304 12.435,15.613 Q12.4,15.921 12.158,16.116 Q11.915,16.31 11.606,16.275 Q11.298,16.241 11.104,15.999 L5.453,8.939 Q5.259,8.696 5.294,8.387 Q5.328,8.079 5.57,7.884 Q5.813,7.69 6.122,7.725 Q6.431,7.759 6.625,8.001 Z"/>
  <path d="M12.275,8.939 L6.625,15.999 Q6.431,16.241 6.122,16.275 Q5.813,16.31 5.57,16.116 Q5.328,15.921 5.294,15.613 Q5.259,15.304 5.453,15.061 L11.104,8.001 Q11.298,7.759 11.606,7.725 Q11.915,7.69 12.158,7.884 Q12.4,8.079 12.435,8.387 Q12.469,8.696 12.275,8.939 Z"/>
  <path d="M2.75,12.83 L2.75,15 Q2.75,18.439 4.155,19.845 Q5.561,21.25 9,21.25 L15,21.25 Q18.439,21.25 19.845,19.845 Q21.25,18.439 21.25,15 L21.25,9 Q21.25,2.75 15,2.75 L9,2.75 Q2.75,2.75 2.75,9 Q2.75,9.311 2.53,9.53 Q2.311,9.75 2,9.75 Q1.689,9.75 1.47,9.53 Q1.25,9.311 1.25,9 Q1.25,1.25 9,1.25 L15,1.25 Q22.75,1.25 22.75,9 L22.75,15 Q22.75,22.75 15,22.75 L9,22.75 Q1.25,22.75 1.25,15 L1.25,12.83 Q1.25,12.519 1.47,12.3 Q1.689,12.08 2,12.08 Q2.311,12.08 2.53,12.3 Q2.75,12.519 2.75,12.83 Z"/>
</svg>

