<svg xmlns="http://www.w3.org/2000/svg" width="24" height="24" viewBox="0 0 24 24">
  <defs/>
  <path fill="white" opacity="0.58" d="M24,0 L0,0 L0,24 L24,24 L24,0 Z"/>
  <path fill="#292D32" opacity="0.4" d="M16.19,2 L7.82,2 C4.18,2 2.01,4.17 2.01,7.81 L2.01,16.18 C2.01,19.82 4.18,21.99 7.82,21.99 L16.19,21.99 C19.83,21.99 22,19.82 22,16.18 L22,7.81 C22,4.17 19.83,2 16.19,2 Z"/>
  <path fill="#292D32" d="M17.96,7.72 C17.55,7.72 17.21,8.06 17.21,8.47 L17.21,11.25 L16.19,11.25 C14.8,11.25 13.67,12.38 13.67,13.77 C13.67,15.16 14.8,16.29 16.19,16.29 L17.96,16.29 C18.37,16.29 18.71,15.95 18.71,15.54 L18.71,8.48 C18.71,8.05 18.37,7.72 17.96,7.72 Z M17.21,14.78 L16.19,14.78 C15.63,14.78 15.17,14.32 15.17,13.76 C15.17,13.2 15.63,12.74 16.19,12.74 L17.21,12.74 L17.21,14.78 Z"/>
  <path fill="#292D32" d="M12.161,7.88 C11.841,7.62 11.361,7.67 11.111,8 L8.871,10.8 L6.631,8 C6.371,7.68 5.901,7.62 5.581,7.88 C5.261,8.14 5.201,8.61 5.461,8.93 L7.911,11.99 L5.461,15.05 C5.201,15.37 5.251,15.85 5.581,16.1 C5.721,16.21 5.881,16.26 6.051,16.26 C6.271,16.26 6.491,16.16 6.641,15.98 L8.881,13.18 L11.121,15.98 C11.271,16.16 11.491,16.26 11.711,16.26 C11.871,16.26 12.041,16.21 12.181,16.1 C12.501,15.84 12.561,15.37 12.301,15.05 L9.851,11.99 L12.301,8.93 C12.541,8.61 12.491,8.14 12.161,7.88 Z"/>
</svg>

