<svg xmlns="http://www.w3.org/2000/svg" width="24" height="24" viewBox="0 0 24 24">
  <defs/>
  <path d="M15.17,13.772 C15.17,14.332 15.63,14.792 16.19,14.792 L17.21,14.792 L17.21,12.762 L16.19,12.762 C15.63,12.752 15.17,13.212 15.17,13.772 Z"/>
  <path d="M16.19,2 L7.82,2 C4.18,2 2.01,4.17 2.01,7.81 L2.01,16.18 C2.01,19.82 4.18,21.99 7.82,21.99 L16.19,21.99 C19.83,21.99 22,19.82 22,16.18 L22,7.81 C22,4.17 19.83,2 16.19,2 Z M12.28,15.06 C12.54,15.38 12.49,15.86 12.16,16.11 C12.02,16.22 11.86,16.27 11.69,16.27 C11.47,16.27 11.25,16.17 11.1,15.99 L8.86,13.19 L6.62,15.99 C6.47,16.17 6.25,16.27 6.03,16.27 C5.87,16.27 5.7,16.22 5.56,16.11 C5.24,15.85 5.18,15.38 5.44,15.06 L7.89,12 L5.44,8.94 C5.18,8.62 5.23,8.14 5.56,7.89 C5.88,7.63 6.36,7.68 6.61,8.01 L8.85,10.81 L11.09,8.01 C11.35,7.69 11.82,7.63 12.14,7.89 C12.46,8.15 12.52,8.62 12.26,8.94 L9.81,12 L12.28,15.06 Z M18.71,15.53 C18.71,15.94 18.37,16.28 17.96,16.28 L16.19,16.28 C14.8,16.28 13.67,15.15 13.67,13.76 C13.67,12.37 14.8,11.24 16.19,11.24 L17.21,11.24 L17.21,8.46 C17.21,8.05 17.55,7.71 17.96,7.71 C18.37,7.71 18.71,8.05 18.71,8.46 L18.71,15.53 Z"/>
</svg>

