<svg xmlns="http://www.w3.org/2000/svg" width="24" height="24" viewBox="0 0 24 24">
  <defs/>
  <path fill="#17191C" d="M15,22.75 L9,22.75 Q1.25,22.75 1.25,15 L1.25,9 Q1.25,1.25 9,1.25 L15,1.25 Q22.75,1.25 22.75,9 L22.75,15 Q22.75,22.75 15,22.75 Z M15,21.25 Q18.439,21.25 19.845,19.845 Q21.25,18.439 21.25,15 L21.25,9 Q21.25,5.561 19.845,4.155 Q18.439,2.75 15,2.75 L9,2.75 Q2.75,2.75 2.75,9 L2.75,15 Q2.75,21.25 9,21.25 Z"/>
  <path fill="#17191C" d="M18.75,8.5 L18.75,15.6 Q18.75,15.911 18.53,16.13 Q18.311,16.35 18,16.35 L16.2,16.35 Q15.139,16.35 14.395,15.605 Q13.65,14.861 13.65,13.8 Q13.65,12.739 14.395,11.995 Q15.139,11.25 16.2,11.25 L17.25,11.25 L17.25,8.5 Q17.25,8.189 17.47,7.97 Q17.689,7.75 18,7.75 Q18.311,7.75 18.53,7.97 Q18.75,8.189 18.75,8.5 Z M17.25,12.75 L16.2,12.75 Q15.15,12.75 15.15,13.8 Q15.15,14.85 16.2,14.85 L17.25,14.85 L17.25,12.75 Z"/>
  <path fill="#17191C" d="M6.582,8.026 L12.282,15.026 Q12.478,15.267 12.446,15.576 Q12.414,15.885 12.174,16.082 Q11.933,16.278 11.624,16.246 Q11.315,16.214 11.118,15.974 L5.418,8.974 Q5.222,8.733 5.254,8.424 Q5.286,8.115 5.526,7.918 Q5.767,7.722 6.076,7.754 Q6.385,7.786 6.582,8.026 Z"/>
  <path fill="#17191C" d="M12.282,8.974 L6.582,15.974 Q6.385,16.214 6.076,16.246 Q5.767,16.278 5.526,16.082 Q5.286,15.885 5.254,15.576 Q5.222,15.267 5.418,15.026 L11.118,8.026 Q11.315,7.786 11.624,7.754 Q11.933,7.722 12.174,7.918 Q12.414,8.115 12.446,8.424 Q12.478,8.733 12.282,8.974 Z"/>
</svg>

