<svg xmlns="http://www.w3.org/2000/svg" width="24" height="24" viewBox="0 0 24 24">
  <defs/>
  <path d="M15,22.75 L9,22.75 C3.57,22.75 1.25,20.43 1.25,15 L1.25,9 C1.25,3.57 3.57,1.25 9,1.25 L15,1.25 C20.43,1.25 22.75,3.57 22.75,9 L22.75,15 C22.75,20.43 20.43,22.75 15,22.75 Z M9,2.75 C4.39,2.75 2.75,4.39 2.75,9 L2.75,15 C2.75,19.61 4.39,21.25 9,21.25 L15,21.25 C19.61,21.25 21.25,19.61 21.25,15 L21.25,9 C21.25,4.39 19.61,2.75 15,2.75 L9,2.75 Z"/>
  <path d="M17.96,16.28 L16.19,16.28 C14.8,16.28 13.67,15.15 13.67,13.76 C13.67,12.37 14.8,11.24 16.19,11.24 L17.21,11.24 L17.21,8.46 C17.21,8.05 17.55,7.71 17.96,7.71 C18.37,7.71 18.71,8.05 18.71,8.46 L18.71,15.52 C18.71,15.95 18.37,16.28 17.96,16.28 Z M16.19,12.75 C15.63,12.75 15.17,13.21 15.17,13.77 C15.17,14.33 15.63,14.79 16.19,14.79 L17.21,14.79 L17.21,12.76 L16.19,12.76 L16.19,12.75 Z"/>
  <path d="M11.69,16.28 C11.47,16.28 11.25,16.18 11.1,16 L5.45,8.94 C5.19,8.62 5.24,8.14 5.57,7.89 C5.89,7.63 6.37,7.68 6.62,8.01 L12.27,15.07 C12.53,15.39 12.48,15.87 12.15,16.12 C12.02,16.23 11.86,16.28 11.69,16.28 Z"/>
  <path d="M6.04,16.28 C5.88,16.28 5.71,16.23 5.57,16.12 C5.25,15.86 5.19,15.39 5.45,15.07 L11.1,8.01 C11.36,7.69 11.83,7.63 12.15,7.89 C12.47,8.15 12.53,8.62 12.27,8.94 L6.62,16 C6.48,16.18 6.26,16.28 6.04,16.28 Z"/>
</svg>

