<svg xmlns="http://www.w3.org/2000/svg" width="24" height="24" viewBox="0 0 24 24">
  <defs/>
  <path d="M15,22.75 L9,22.75 Q1.25,22.75 1.25,15 L1.25,9 Q1.25,1.25 9,1.25 L15,1.25 Q22.75,1.25 22.75,9 L22.75,15 Q22.75,22.75 15,22.75 Z M15,21.25 Q18.439,21.25 19.845,19.845 Q21.25,18.439 21.25,15 L21.25,9 Q21.25,5.561 19.845,4.155 Q18.439,2.75 15,2.75 L9,2.75 Q2.75,2.75 2.75,9 L2.75,15 Q2.75,21.25 9,21.25 Z"/>
  <path opacity="0.4" d="M18.71,8.47 L18.71,15.53 Q18.71,15.841 18.49,16.061 Q18.271,16.28 17.96,16.28 L16.19,16.28 Q15.144,16.28 14.407,15.543 Q13.67,14.806 13.67,13.76 Q13.67,12.715 14.407,11.977 Q15.144,11.24 16.19,11.24 L17.21,11.24 L17.21,8.47 Q17.21,8.16 17.43,7.94 Q17.649,7.72 17.96,7.72 Q18.271,7.72 18.49,7.94 Q18.71,8.16 18.71,8.47 Z M17.21,12.74 L16.19,12.74 Q15.17,12.74 15.17,13.76 Q15.17,14.78 16.19,14.78 L17.21,14.78 L17.21,12.74 Z"/>
  <g opacity="0.4">
    <path d="M6.626,8.001 L12.276,15.061 Q12.47,15.304 12.435,15.612 Q12.401,15.921 12.159,16.115 Q11.916,16.309 11.607,16.275 Q11.299,16.241 11.104,15.998 L5.454,8.938 Q5.26,8.696 5.295,8.387 Q5.329,8.078 5.571,7.884 Q5.814,7.69 6.123,7.724 Q6.432,7.759 6.626,8.001 Z"/>
    <path d="M12.276,8.938 L6.626,15.998 Q6.432,16.241 6.123,16.275 Q5.814,16.309 5.571,16.115 Q5.329,15.921 5.295,15.612 Q5.26,15.304 5.454,15.061 L11.104,8.001 Q11.299,7.759 11.607,7.724 Q11.916,7.69 12.159,7.884 Q12.401,8.078 12.435,8.387 Q12.47,8.696 12.276,8.938 Z"/>
  </g>
</svg>

