<svg xmlns="http://www.w3.org/2000/svg" width="24" height="24" viewBox="0 0 24 24">
  <defs/>
  <path d="M6.75,15 L6.75,9 Q6.75,8.689 6.97,8.47 Q7.189,8.25 7.5,8.25 L11.5,8.25 Q14.25,8.25 14.25,11 L14.25,15 Q14.25,15.311 14.03,15.53 Q13.811,15.75 13.5,15.75 Q13.189,15.75 12.97,15.53 Q12.75,15.311 12.75,15 L12.75,11 Q12.75,9.75 11.5,9.75 L8.25,9.75 L8.25,15 Q8.25,15.311 8.03,15.53 Q7.811,15.75 7.5,15.75 Q7.189,15.75 6.97,15.53 Q6.75,15.311 6.75,15 Z"/>
  <path d="M9.75,15 L9.75,12 Q9.75,11.689 9.97,11.47 Q10.189,11.25 10.5,11.25 Q10.811,11.25 11.03,11.47 Q11.25,11.689 11.25,12 L11.25,15 Q11.25,15.311 11.03,15.53 Q10.811,15.75 10.5,15.75 Q10.189,15.75 9.97,15.53 Q9.75,15.311 9.75,15 Z"/>
  <path d="M15.75,15 L15.75,9 Q15.75,8.689 15.97,8.47 Q16.189,8.25 16.5,8.25 Q16.811,8.25 17.03,8.47 Q17.25,8.689 17.25,9 L17.25,15 Q17.25,15.311 17.03,15.53 Q16.811,15.75 16.5,15.75 Q16.189,15.75 15.97,15.53 Q15.75,15.311 15.75,15 Z"/>
  <path fill="#17191C" d="M4.6,6.449 Q2.75,8.922 2.75,12 Q2.75,15.829 5.46,18.54 Q8.171,21.25 12,21.25 Q15.829,21.25 18.54,18.54 Q21.25,15.829 21.25,12 Q21.25,8.171 18.54,5.46 Q15.829,2.75 12,2.75 Q10.031,2.75 8.276,3.535 Q7.993,3.661 7.702,3.551 Q7.412,3.44 7.285,3.156 Q7.158,2.873 7.269,2.582 Q7.38,2.292 7.664,2.165 Q9.711,1.25 12,1.25 Q16.451,1.25 19.6,4.4 Q22.75,7.549 22.75,12 Q22.75,16.451 19.6,19.6 Q16.451,22.75 12,22.75 Q7.549,22.75 4.4,19.6 Q1.25,16.451 1.25,12 Q1.25,8.422 3.4,5.551 Q3.586,5.302 3.893,5.258 Q4.201,5.213 4.449,5.4 Q4.698,5.586 4.742,5.893 Q4.787,6.201 4.6,6.449 Z"/>
</svg>

