<svg xmlns="http://www.w3.org/2000/svg" width="24" height="24" viewBox="0 0 24 24">
  <defs/>
  <path fill="white" opacity="0.58" d="M24,0 L0,0 L0,24 L24,24 L24,0 Z"/>
  <path fill="#292D32" opacity="0.4" d="M12,22 C17.523,22 22,17.523 22,12 C22,6.477 17.523,2 12,2 C6.477,2 2,6.477 2,12 C2,17.523 6.477,22 12,22 Z"/>
  <path fill="#292D32" d="M13.5,15.75 C13.09,15.75 12.75,15.41 12.75,15 L12.75,11 C12.75,10.31 12.19,9.75 11.5,9.75 L8.25,9.75 L8.25,15 C8.25,15.41 7.91,15.75 7.5,15.75 C7.09,15.75 6.75,15.41 6.75,15 L6.75,9 C6.75,8.59 7.09,8.25 7.5,8.25 L11.5,8.25 C13.02,8.25 14.25,9.48 14.25,11 L14.25,15 C14.25,15.41 13.91,15.75 13.5,15.75 Z"/>
  <path fill="#292D32" d="M10.5,15.75 C10.09,15.75 9.75,15.41 9.75,15 L9.75,12 C9.75,11.59 10.09,11.25 10.5,11.25 C10.91,11.25 11.25,11.59 11.25,12 L11.25,15 C11.25,15.41 10.91,15.75 10.5,15.75 Z"/>
  <path fill="#292D32" d="M16.5,15.75 C16.09,15.75 15.75,15.41 15.75,15 L15.75,9 C15.75,8.59 16.09,8.25 16.5,8.25 C16.91,8.25 17.25,8.59 17.25,9 L17.25,15 C17.25,15.41 16.91,15.75 16.5,15.75 Z"/>
</svg>

