<svg xmlns="http://www.w3.org/2000/svg" width="24" height="24" viewBox="0 0 24 24">
  <defs/>
  <path d="M5.46,1.25 Q7.062,1.25 8.221,2.39 L11.801,5.97 Q11.889,6.057 12.01,6.057 Q12.132,6.057 12.22,5.97 L15.8,2.39 Q16.94,1.25 18.55,1.25 L19.96,1.25 Q21.159,1.25 21.62,2.36 Q22.08,3.471 21.231,4.32 L15.501,10.05 Q14.051,11.5 12.005,11.5 Q9.96,11.5 8.51,10.05 L2.78,4.32 Q1.931,3.471 2.391,2.361 Q2.851,1.25 4.05,1.25 Z M5.46,2.75 L4.05,2.75 Q3.854,2.75 3.777,2.935 Q3.7,3.119 3.841,3.26 L9.571,8.99 Q12.005,11.424 14.44,8.99 L20.17,3.26 Q20.31,3.119 20.234,2.935 Q20.157,2.75 19.96,2.75 L18.55,2.75 Q17.561,2.75 16.861,3.45 L13.281,7.03 Q12.754,7.557 12.01,7.557 Q11.267,7.557 10.74,7.03 L7.16,3.45 Q6.448,2.75 5.46,2.75 Z"/>
  <path opacity="0.4" d="M5.46,22.72 L4.05,22.72 Q2.851,22.72 2.391,21.61 Q1.931,20.499 2.78,19.65 L8.51,13.92 Q9.96,12.47 12.005,12.47 Q14.051,12.47 15.501,13.92 L21.231,19.65 Q22.08,20.499 21.62,21.61 Q21.159,22.72 19.96,22.72 L18.55,22.72 Q16.94,22.72 15.8,21.581 L12.22,18.001 Q12.132,17.913 12.01,17.913 Q11.889,17.913 11.801,18.001 L8.221,21.581 Q7.062,22.72 5.46,22.72 Z M5.46,21.22 Q6.448,21.22 7.16,20.52 L10.74,16.94 Q11.267,16.413 12.01,16.413 Q12.754,16.413 13.281,16.94 L16.861,20.52 Q17.561,21.22 18.55,21.22 L19.96,21.22 Q20.157,21.22 20.234,21.036 Q20.31,20.851 20.17,20.711 L14.44,14.981 Q12.005,12.546 9.571,14.981 L3.841,20.711 Q3.7,20.851 3.777,21.036 Q3.854,21.22 4.05,21.22 Z"/>
</svg>

