<svg xmlns="http://www.w3.org/2000/svg" width="24" height="24" viewBox="0 0 24 24">
  <defs/>
  <path d="M12,11.49 C10.68,11.49 9.44,10.98 8.51,10.04 L2.78,4.31 C2.26,3.79 2.11,3.02 2.39,2.35 C2.67,1.68 3.32,1.24 4.05,1.24 L5.46,1.24 C6.5,1.24 7.48,1.65 8.21,2.38 L11.79,5.96 C11.94,6.11 12.06,6.11 12.21,5.96 L15.79,2.38 C16.53,1.64 17.5,1.24 18.54,1.24 L19.95,1.24 C20.68,1.24 21.33,1.68 21.61,2.35 C21.89,3.02 21.74,3.79 21.22,4.31 L15.49,10.04 C14.56,10.98 13.32,11.49 12,11.49 Z M4.05,2.75 C3.88,2.75 3.8,2.87 3.77,2.93 C3.74,2.99 3.71,3.13 3.83,3.25 L9.56,8.98 C10.86,10.28 13.13,10.28 14.43,8.98 L20.16,3.25 C20.28,3.13 20.25,2.99 20.22,2.93 C20.19,2.87 20.12,2.75 19.94,2.75 L18.53,2.75 C17.89,2.75 17.29,3 16.84,3.45 L13.26,7.03 C12.56,7.73 11.42,7.73 10.72,7.03 L7.14,3.45 C6.69,3 6.09,2.75 5.45,2.75 L4.05,2.75 Z"/>
  <path d="M19.95,22.72 L18.54,22.72 C17.5,22.72 16.52,22.31 15.79,21.58 L12.21,18 C12.06,17.85 11.94,17.85 11.79,18 L8.21,21.58 C7.47,22.32 6.5,22.72 5.46,22.72 L4.05,22.72 C3.32,22.72 2.67,22.28 2.39,21.61 C2.11,20.94 2.26,20.17 2.78,19.65 L8.51,13.92 C9.44,12.99 10.68,12.47 12,12.47 C13.32,12.47 14.56,12.98 15.49,13.92 L21.22,19.65 C21.74,20.17 21.89,20.94 21.61,21.61 C21.33,22.28 20.68,22.72 19.95,22.72 Z M12,16.42 C12.46,16.42 12.92,16.6 13.27,16.95 L16.85,20.53 C17.3,20.98 17.9,21.23 18.54,21.23 L19.95,21.23 C20.12,21.23 20.2,21.11 20.23,21.05 C20.26,20.99 20.29,20.85 20.17,20.73 L14.44,15 C13.14,13.7 10.87,13.7 9.57,15 L3.84,20.73 C3.72,20.85 3.75,20.99 3.78,21.05 C3.81,21.11 3.88,21.23 4.06,21.23 L5.47,21.23 C6.11,21.23 6.71,20.98 7.16,20.53 L10.74,16.95 C11.08,16.59 11.54,16.42 12,16.42 Z"/>
</svg>

