<svg xmlns="http://www.w3.org/2000/svg" width="24" height="24" viewBox="0 0 24 24">
  <defs/>
  <path d="M5.46,2 L4.05,2 C3.12,2 2.65,3.13 3.31,3.79 L9.04,9.52 C10.68,11.16 13.33,11.16 14.97,9.52 L20.7,3.79 C21.36,3.13 20.89,2 19.96,2 L18.55,2 C17.72,2 16.92,2.33 16.33,2.92 L12.75,6.5 C12.34,6.91 11.68,6.91 11.27,6.5 L7.69,2.92 C7.09,2.33 6.29,2 5.46,2 Z"/>
  <path d="M5.46,21.969 L4.05,21.969 C3.12,21.969 2.65,20.839 3.31,20.179 L9.04,14.449 C10.68,12.809 13.33,12.809 14.97,14.449 L20.7,20.179 C21.36,20.839 20.89,21.969 19.96,21.969 L18.55,21.969 C17.72,21.969 16.92,21.639 16.33,21.049 L12.75,17.469 C12.34,17.059 11.68,17.059 11.27,17.469 L7.69,21.049 C7.09,21.639 6.29,21.969 5.46,21.969 Z"/>
</svg>

