<svg xmlns="http://www.w3.org/2000/svg" width="24" height="24" viewBox="0 0 24 24">
  <defs/>
  <path fill="white" d="M24,0 L0,0 L0,24 L24,24 L24,0 Z"/>
  <path fill="#292D32" d="M5.46,2 L4.05,2 C3.12,2 2.65,3.13 3.31,3.79 L9.04,9.52 C10.68,11.16 13.33,11.16 14.97,9.52 L20.7,3.79 C21.35,3.13 20.88,2 19.95,2 L18.54,2 C17.71,2 16.91,2.33 16.32,2.92 L12.74,6.5 C12.33,6.91 11.67,6.91 11.26,6.5 L7.68,2.92 C7.09,2.33 6.29,2 5.46,2 Z"/>
  <path fill="#292D32" opacity="0.4" d="M5.46,21.97 L4.05,21.97 C3.12,21.97 2.65,20.84 3.31,20.18 L9.04,14.45 C10.68,12.81 13.33,12.81 14.97,14.45 L20.7,20.18 C21.36,20.84 20.89,21.97 19.96,21.97 L18.55,21.97 C17.72,21.97 16.92,21.64 16.33,21.05 L12.75,17.47 C12.34,17.06 11.68,17.06 11.27,17.47 L7.69,21.05 C7.09,21.64 6.29,21.97 5.46,21.97 Z"/>
</svg>

