<svg xmlns="http://www.w3.org/2000/svg" width="24" height="24" viewBox="0 0 24 24">
  <defs/>
  <path d="M17.8,5.62 L20.16,3.26 Q20.3,3.119 20.224,2.935 Q20.147,2.75 19.95,2.75 L18.54,2.75 Q17.551,2.75 16.851,3.45 L13.271,7.03 Q12.744,7.557 12,7.557 Q11.257,7.557 10.73,7.03 L7.15,3.45 Q6.45,2.75 5.46,2.75 L4.05,2.75 Q3.854,2.75 3.777,2.935 Q3.7,3.119 3.841,3.26 L9.571,8.99 Q12.005,11.424 14.44,8.99 L15,8.43 Q15.22,8.21 15.53,8.21 Q15.841,8.21 16.061,8.43 Q16.28,8.649 16.28,8.96 Q16.28,9.271 16.061,9.49 L15.501,10.05 Q14.051,11.5 12.005,11.5 Q9.96,11.5 8.51,10.05 L2.78,4.32 Q1.931,3.471 2.391,2.361 Q2.851,1.25 4.05,1.25 L5.46,1.25 Q7.071,1.25 8.211,2.39 L11.791,5.97 Q12,6.179 12.21,5.97 L15.79,2.39 Q16.93,1.25 18.54,1.25 L19.95,1.25 Q21.149,1.25 21.61,2.36 Q22.07,3.471 21.221,4.32 L18.861,6.68 Q18.641,6.9 18.33,6.9 Q18.02,6.9 17.8,6.68 Q17.58,6.461 17.58,6.15 Q17.58,5.839 17.8,5.62 Z"/>
  <path d="M5.46,22.72 L4.05,22.72 Q2.851,22.72 2.391,21.609 Q1.931,20.499 2.78,19.65 L8.51,13.92 Q9.96,12.47 12.005,12.47 Q14.051,12.47 15.501,13.92 L21.231,19.65 Q22.08,20.499 21.62,21.61 Q21.159,22.72 19.96,22.72 L18.55,22.72 Q16.94,22.72 15.8,21.58 L12.22,18 Q12.132,17.912 12.01,17.912 Q11.889,17.912 11.801,18 L8.221,21.58 Q7.062,22.72 5.46,22.72 Z M5.46,21.22 Q6.448,21.22 7.16,20.52 L10.74,16.94 Q11.267,16.412 12.01,16.412 Q12.754,16.412 13.281,16.94 L16.861,20.52 Q17.561,21.22 18.55,21.22 L19.96,21.22 Q20.157,21.22 20.234,21.035 Q20.31,20.851 20.17,20.71 L14.44,14.98 Q12.005,12.546 9.571,14.98 L3.841,20.71 Q3.7,20.851 3.777,21.035 Q3.854,21.22 4.05,21.22 Z"/>
</svg>

