<svg xmlns="http://www.w3.org/2000/svg" width="24" height="24" viewBox="0 0 24 24">
  <defs/>
  <path fill="#17191C" d="M5.5,1.25 Q7.111,1.25 8.238,2.377 L11.73,5.97 Q11.95,6.189 12.17,5.97 L15.77,2.37 Q16.889,1.25 18.5,1.25 L19.9,1.25 Q21.162,1.25 21.618,2.351 Q22.086,3.481 21.114,4.347 L15.43,10.03 Q14.011,11.45 11.95,11.45 Q9.889,11.45 8.47,10.03 L2.77,4.33 Q1.88,3.441 2.378,2.331 Q2.863,1.25 4.1,1.25 Z M5.5,2.75 L4.1,2.75 Q3.834,2.75 3.747,2.944 Q3.672,3.111 3.83,3.27 L9.53,8.97 Q10.511,9.95 11.95,9.95 Q13.389,9.95 14.37,8.97 L20.07,3.27 Q20.087,3.252 20.106,3.236 Q20.293,3.072 20.232,2.924 Q20.16,2.75 19.9,2.75 L18.5,2.75 Q17.511,2.75 16.83,3.43 L13.23,7.03 Q12.59,7.67 11.95,7.67 Q11.31,7.67 10.67,7.03 L7.162,3.423 Q6.489,2.75 5.5,2.75 Z"/>
  <path fill="#17191C" d="M5.5,22.75 L4.1,22.75 Q2.913,22.75 2.457,21.649 Q1.998,20.541 2.87,19.67 L8.465,13.974 Q9.889,12.55 11.95,12.55 Q14.011,12.55 15.43,13.97 L21.13,19.67 Q22.002,20.541 21.543,21.649 Q21.088,22.75 19.9,22.75 L18.5,22.75 Q16.889,22.75 15.77,21.63 L12.17,18.03 Q11.95,17.811 11.73,18.03 L8.13,21.63 Q7.011,22.75 5.5,22.75 Z M5.5,21.25 Q6.389,21.25 7.07,20.57 L10.67,16.97 Q11.189,16.45 11.95,16.45 Q12.711,16.45 13.23,16.97 L16.83,20.57 Q17.511,21.25 18.5,21.25 L19.9,21.25 Q20.085,21.25 20.157,21.076 Q20.233,20.893 20.07,20.73 L14.37,15.03 Q13.389,14.05 11.95,14.05 Q10.511,14.05 9.535,15.026 L3.93,20.73 Q3.768,20.893 3.843,21.076 Q3.915,21.25 4.1,21.25 Z"/>
</svg>

