<svg xmlns="http://www.w3.org/2000/svg" width="24" height="24" viewBox="0 0 24 24">
  <defs/>
  <path d="M17,20.75 L7,20.75 C3.56,20.75 1.25,18.44 1.25,15 L1.25,9 C1.25,5.56 3.56,3.25 7,3.25 L17,3.25 C20.44,3.25 22.75,5.56 22.75,9 L22.75,15 C22.75,18.44 20.44,20.75 17,20.75 Z M7,4.75 C4.42,4.75 2.75,6.42 2.75,9 L2.75,15 C2.75,17.58 4.42,19.25 7,19.25 L17,19.25 C19.58,19.25 21.25,17.58 21.25,15 L21.25,9 C21.25,6.42 19.58,4.75 17,4.75 L7,4.75 Z"/>
  <path d="M10.59,15.53 C10.3,15.53 10.02,15.46 9.77,15.32 C9.19,14.99 8.85,14.32 8.85,13.49 L8.85,10.53 C8.85,9.7 9.18,9.03 9.77,8.7 C10.35,8.37 11.1,8.43 11.81,8.86 L14.28,10.34 C14.96,10.75 15.35,11.36 15.35,12.01 C15.35,12.66 14.96,13.27 14.28,13.68 L11.81,15.16 C11.4,15.4 10.98,15.53 10.59,15.53 Z M10.59,9.97 C10.55,9.97 10.52,9.98 10.5,9.99 C10.43,10.03 10.35,10.21 10.35,10.52 L10.35,13.48 C10.35,13.78 10.43,13.96 10.5,14.01 C10.58,14.05 10.77,14.03 11.03,13.87 L13.5,12.39 C13.75,12.24 13.84,12.09 13.84,12 C13.84,11.91 13.75,11.77 13.5,11.61 L11.03,10.13 C10.85,10.02 10.69,9.97 10.59,9.97 Z"/>
</svg>

