<svg xmlns="http://www.w3.org/2000/svg" width="24" height="24" viewBox="0 0 24 24">
  <defs/>
  <path fill="#17191C" d="M17,20.75 L7,20.75 Q1.25,20.75 1.25,15 L1.25,9 Q1.25,3.25 7,3.25 L17,3.25 Q22.75,3.25 22.75,9 L22.75,15 Q22.75,20.75 17,20.75 Z M17,19.25 Q21.25,19.25 21.25,15 L21.25,9 Q21.25,4.75 17,4.75 L7,4.75 Q2.75,4.75 2.75,9 L2.75,15 Q2.75,19.25 7,19.25 Z"/>
  <path fill="#17191C" d="M11.786,8.857 L14.286,10.357 Q14.301,10.366 14.316,10.376 Q15.325,11.049 15.325,12.05 Q15.325,13.051 14.316,13.724 Q14.301,13.734 14.286,13.743 L11.786,15.243 Q10.666,15.915 9.75,15.387 Q8.85,14.868 8.85,13.6 L8.85,10.6 Q8.85,9.207 9.75,8.688 Q10.644,8.172 11.786,8.857 Z M11.014,10.143 Q10.63,9.912 10.5,9.987 Q10.35,10.074 10.35,10.6 L10.35,13.6 Q10.35,14.002 10.5,14.088 Q10.651,14.175 11.014,13.957 L13.498,12.467 Q13.825,12.245 13.825,12.05 Q13.825,11.855 13.498,11.633 Z"/>
</svg>

