<svg xmlns="http://www.w3.org/2000/svg" width="24" height="24" viewBox="0 0 24 24">
  <defs/>
  <path d="M1.25,9 Q1.25,3.25 7,3.25 L17,3.25 Q22.75,3.25 22.75,9 L22.75,15 Q22.75,20.75 17,20.75 L7,20.75 Q1.25,20.75 1.25,15 L1.25,13.59 Q1.25,13.279 1.47,13.06 Q1.689,12.84 2,12.84 Q2.311,12.84 2.53,13.06 Q2.75,13.279 2.75,13.59 L2.75,15 Q2.75,19.25 7,19.25 L17,19.25 Q21.25,19.25 21.25,15 L21.25,9 Q21.25,4.75 17,4.75 L7,4.75 Q2.75,4.75 2.75,9 Q2.75,9.311 2.53,9.53 Q2.311,9.75 2,9.75 Q1.689,9.75 1.47,9.53 Q1.25,9.311 1.25,9 Z"/>
  <path d="M11.805,8.847 L14.275,10.327 Q15.345,10.975 15.345,12 Q15.345,13.025 14.278,13.671 L11.805,15.153 Q10.681,15.828 9.766,15.312 Q8.85,14.795 8.85,13.48 L8.85,10.51 Q8.85,9.201 9.768,8.686 Q10.682,8.173 11.805,8.847 Z M11.034,10.133 Q10.657,9.907 10.501,9.994 Q10.35,10.079 10.35,10.51 L10.35,13.48 Q10.35,13.919 10.503,14.006 Q10.657,14.093 11.034,13.867 L13.501,12.389 Q13.845,12.18 13.845,12 Q13.845,11.82 13.504,11.613 L11.034,10.133 Z"/>
</svg>

