<svg xmlns="http://www.w3.org/2000/svg" width="24" height="24" viewBox="0 0 24 24">
  <defs/>
  <path d="M12,2 C6.48,2 2,6.48 2,12 C2,17.52 6.48,22 12,22 C17.52,22 22,17.52 22,12 C22,6.48 17.52,2 12,2 Z M18.5,14.02 C18.5,14.2 18.4,14.36 18.25,14.45 L16.25,15.6 C16.1,15.69 15.91,15.69 15.75,15.6 L13.75,14.45 C13.59,14.36 13.5,14.2 13.5,14.02 L13.5,13.19 L12.25,13.91 C12.1,14 11.91,14 11.75,13.91 L10.5,13.19 L10.5,14.02 C10.5,14.2 10.4,14.36 10.25,14.45 L8.25,15.6 C8.1,15.69 7.91,15.69 7.75,15.6 L5.75,14.45 C5.59,14.36 5.5,14.2 5.5,14.02 L5.5,11.74 C5.5,11.56 5.6,11.4 5.75,11.31 L7.75,10.16 C7.9,10.07 8.1,10.07 8.25,10.16 L9.25,10.74 L9.25,9.61 C9.25,9.43 9.35,9.27 9.5,9.18 L11.75,7.89 C11.9,7.8 12.09,7.8 12.25,7.89 L14.5,9.18 C14.66,9.27 14.75,9.43 14.75,9.61 L14.75,10.74 L15.75,10.16 C15.9,10.07 16.09,10.07 16.25,10.16 L18.25,11.31 C18.41,11.4 18.5,11.56 18.5,11.74 L18.5,14.02 Z"/>
</svg>

