<svg xmlns="http://www.w3.org/2000/svg" width="24" height="24" viewBox="0 0 24 24">
  <defs/>
  <path fill="white" opacity="0.58" d="M24,0 L0,0 L0,24 L24,24 L24,0 Z"/>
  <path fill="#292D32" opacity="0.4" d="M12,22 C17.523,22 22,17.523 22,12 C22,6.477 17.523,2 12,2 C6.477,2 2,6.477 2,12 C2,17.523 6.477,22 12,22 Z"/>
  <path fill="#292D32" d="M10.5,11.46 L10.5,14.03 C10.5,14.21 10.4,14.37 10.25,14.46 L8.25,15.61 C8.1,15.7 7.91,15.7 7.75,15.61 L5.75,14.46 C5.59,14.37 5.5,14.21 5.5,14.03 L5.5,11.75 C5.5,11.57 5.6,11.41 5.75,11.32 L7.75,10.17 C7.9,10.08 8.1,10.08 8.25,10.17 L9.25,10.75 L10.5,11.46 Z"/>
  <path fill="#292D32" d="M18.5,11.75 L18.5,14.03 C18.5,14.21 18.4,14.37 18.25,14.46 L16.25,15.61 C16.1,15.7 15.91,15.7 15.75,15.61 L13.75,14.46 C13.59,14.37 13.5,14.21 13.5,14.03 L13.5,11.46 L14.75,10.75 L15.75,10.17 C15.9,10.08 16.09,10.08 16.25,10.17 L18.25,11.32 C18.4,11.4 18.5,11.57 18.5,11.75 Z"/>
  <path fill="#292D32" d="M14.75,9.62 L14.75,10.75 L13.5,11.46 L13.5,13.19 L12.25,13.91 C12.1,14 11.91,14 11.75,13.91 L10.5,13.19 L10.5,11.46 L9.25,10.75 L9.25,9.62 C9.25,9.44 9.35,9.28 9.5,9.19 L11.75,7.9 C11.9,7.81 12.09,7.81 12.25,7.9 L14.5,9.19 C14.65,9.27 14.75,9.44 14.75,9.62 Z"/>
</svg>

