<svg xmlns="http://www.w3.org/2000/svg" width="24" height="24" viewBox="0 0 24 24">
  <defs/>
  <path d="M8,16.5 C7.87,16.5 7.74,16.47 7.63,16.4 L5.13,14.96 C4.9,14.83 4.75,14.58 4.75,14.31 L4.75,11.46 C4.75,11.19 4.89,10.94 5.13,10.81 L7.63,9.37 C7.86,9.24 8.15,9.24 8.38,9.37 L10.88,10.81 C11.11,10.94 11.26,11.19 11.26,11.46 L11.26,14.31 C11.26,14.58 11.12,14.83 10.88,14.96 L8.38,16.4 C8.26,16.47 8.13,16.5 8,16.5 Z M6.25,13.88 L8,14.89 L9.75,13.88 L9.75,11.89 L8,10.88 L6.25,11.89 L6.25,13.88 Z"/>
  <path d="M16,16.5 C15.87,16.5 15.74,16.47 15.63,16.4 L13.13,14.96 C12.9,14.83 12.75,14.58 12.75,14.31 L12.75,11.46 C12.75,11.19 12.89,10.94 13.13,10.81 L15.63,9.37 C15.86,9.24 16.15,9.24 16.38,9.37 L18.88,10.81 C19.11,10.94 19.26,11.19 19.26,11.46 L19.26,14.31 C19.26,14.58 19.12,14.83 18.88,14.96 L16.38,16.4 C16.26,16.47 16.13,16.5 16,16.5 Z M14.25,13.88 L16,14.89 L17.75,13.88 L17.75,11.89 L16,10.88 L14.25,11.89 L14.25,13.88 Z"/>
  <path d="M12,14.8 C11.87,14.8 11.74,14.77 11.63,14.7 L10.13,13.84 C9.9,13.71 9.75,13.46 9.75,13.19 L9.75,11.89 L8.88,11.39 C8.65,11.26 8.5,11.01 8.5,10.74 L8.5,9.32 C8.5,9.05 8.64,8.8 8.88,8.67 L11.63,7.09 C11.86,6.96 12.15,6.96 12.38,7.09 L15.13,8.67 C15.36,8.8 15.51,9.05 15.51,9.32 L15.51,10.74 C15.51,11.01 15.37,11.26 15.13,11.39 L14.26,11.89 L14.26,13.19 C14.26,13.46 14.12,13.71 13.88,13.84 L12.38,14.7 C12.26,14.77 12.13,14.8 12,14.8 Z M11.25,12.76 L12,13.19 L12.75,12.76 L12.75,11.46 C12.75,11.19 12.89,10.94 13.13,10.81 L14,10.31 L14,9.76 L12,8.61 L10,9.76 L10,10.31 L10.87,10.81 C11.1,10.94 11.25,11.19 11.25,11.46 L11.25,12.76 Z"/>
  <path d="M12,22.75 C6.07,22.75 1.25,17.93 1.25,12 C1.25,6.07 6.07,1.25 12,1.25 C17.93,1.25 22.75,6.07 22.75,12 C22.75,17.93 17.93,22.75 12,22.75 Z M12,2.75 C6.9,2.75 2.75,6.9 2.75,12 C2.75,17.1 6.9,21.25 12,21.25 C17.1,21.25 21.25,17.1 21.25,12 C21.25,6.9 17.1,2.75 12,2.75 Z"/>
</svg>

