<svg xmlns="http://www.w3.org/2000/svg" width="24" height="24" viewBox="0 0 24 24">
  <defs/>
  <path d="M11.25,11.46 L11.25,14.31 Q11.25,14.744 10.874,14.96 L8.374,16.4 Q8,16.616 7.626,16.4 L5.126,14.96 Q4.75,14.744 4.75,14.31 L4.75,11.46 Q4.75,11.026 5.126,10.81 L7.626,9.37 Q8,9.154 8.374,9.37 L9.624,10.09 L10.874,10.81 Q11.25,11.026 11.25,11.46 Z M9.75,11.894 L8.876,11.39 L8,10.886 L6.25,11.894 L6.25,13.876 L8,14.884 L9.75,13.876 L9.75,11.894 Z"/>
  <path d="M19.25,11.46 L19.25,14.31 Q19.25,14.744 18.874,14.96 L16.374,16.4 Q16,16.616 15.626,16.4 L13.126,14.96 Q12.75,14.744 12.75,14.31 L12.75,11.46 Q12.75,11.026 13.126,10.81 L14.376,10.09 L15.626,9.37 Q16,9.154 16.374,9.37 L18.874,10.81 Q19.25,11.026 19.25,11.46 Z M17.75,11.894 L16,10.886 L15.124,11.39 L14.25,11.894 L14.25,13.876 L16,14.884 L17.75,13.876 L17.75,11.894 Z"/>
  <path d="M15.5,9.33 L15.5,10.74 Q15.5,11.174 15.124,11.39 L14.25,11.894 L14.25,13.19 Q14.25,13.625 13.873,13.841 L12.373,14.701 Q12,14.915 11.627,14.701 L10.127,13.841 Q9.75,13.625 9.75,13.19 L9.75,11.894 L8.876,11.39 Q8.5,11.174 8.5,10.74 L8.5,9.33 Q8.5,8.896 8.876,8.68 L11.626,7.1 Q12,6.885 12.374,7.1 L15.124,8.68 Q15.5,8.896 15.5,9.33 Z M14,9.764 L12,8.615 L10,9.764 L10,10.306 L10.874,10.81 Q11.25,11.026 11.25,11.46 L11.25,12.755 L12,13.185 L12.75,12.755 L12.75,11.46 Q12.75,11.026 13.126,10.81 L14,10.306 L14,9.764 Z"/>
  <path fill="#17191C" d="M4.6,6.449 Q2.75,8.922 2.75,12 Q2.75,15.829 5.46,18.54 Q8.171,21.25 12,21.25 Q15.829,21.25 18.54,18.54 Q21.25,15.829 21.25,12 Q21.25,8.171 18.54,5.46 Q15.829,2.75 12,2.75 Q10.031,2.75 8.276,3.535 Q7.993,3.661 7.702,3.551 Q7.412,3.44 7.285,3.156 Q7.158,2.873 7.269,2.582 Q7.38,2.292 7.664,2.165 Q9.711,1.25 12,1.25 Q16.451,1.25 19.6,4.4 Q22.75,7.549 22.75,12 Q22.75,16.451 19.6,19.6 Q16.451,22.75 12,22.75 Q7.549,22.75 4.4,19.6 Q1.25,16.451 1.25,12 Q1.25,8.422 3.4,5.551 Q3.586,5.302 3.893,5.258 Q4.201,5.213 4.449,5.4 Q4.698,5.586 4.742,5.893 Q4.787,6.201 4.6,6.449 Z"/>
</svg>

