<svg xmlns="http://www.w3.org/2000/svg" width="24" height="24" viewBox="0 0 24 24">
  <defs/>
  <path d="M8.77,15.99 C7.84,15.99 6.96,15.63 6.29,14.97 C5.62,14.3 5.25,13.42 5.25,12.47 L5.25,9.67 C5.25,8.75 6,8 6.92,8 L10.61,8 C12.55,8 14.13,9.58 14.13,11.52 L14.13,14.29 C14.13,15.21 13.38,15.96 12.47,15.96 L8.79,15.99 C8.79,15.99 8.78,15.99 8.77,15.99 Z M6.92,9.51 C6.82,9.51 6.75,9.59 6.75,9.68 L6.75,12.48 C6.75,13.02 6.96,13.53 7.35,13.91 C7.73,14.29 8.25,14.53 8.79,14.5 L12.47,14.47 C12.56,14.47 12.64,14.39 12.64,14.3 L12.64,11.53 C12.64,10.42 11.73,9.51 10.62,9.51 L6.92,9.51 Z"/>
  <path d="M18,15.53 C17.851,15.53 17.71,15.49 17.58,15.4 L14.81,13.55 C14.601,13.41 14.48,13.18 14.48,12.93 L14.48,11.08 C14.48,10.83 14.611,10.59 14.81,10.46 L17.58,8.61 C17.81,8.46 18.11,8.44 18.351,8.57 C18.59,8.7 18.75,8.95 18.75,9.23 L18.75,14.77 C18.75,15.05 18.601,15.3 18.351,15.43 C18.241,15.5 18.12,15.53 18,15.53 Z M15.98,12.53 L17.25,13.38 L17.25,10.64 L15.98,11.49 L15.98,12.53 Z"/>
  <path d="M12,22.75 C6.07,22.75 1.25,17.93 1.25,12 C1.25,6.07 6.07,1.25 12,1.25 C17.93,1.25 22.75,6.07 22.75,12 C22.75,17.93 17.93,22.75 12,22.75 Z M12,2.75 C6.9,2.75 2.75,6.9 2.75,12 C2.75,17.1 6.9,21.25 12,21.25 C17.1,21.25 21.25,17.1 21.25,12 C21.25,6.9 17.1,2.75 12,2.75 Z"/>
</svg>

