<svg xmlns="http://www.w3.org/2000/svg" width="24" height="24" viewBox="0 0 24 24">
  <defs/>
  <path fill="white" opacity="0.58" d="M24,0 L0,0 L0,24 L24,24 L24,0 Z"/>
  <path fill="#292D32" opacity="0.4" d="M12,22 C17.523,22 22,17.523 22,12 C22,6.477 17.523,2 12,2 C6.477,2 2,6.477 2,12 C2,17.523 6.477,22 12,22 Z"/>
  <path fill="#292D32" d="M6.25,9.68 C6.25,9.17 6.66,8.76 7.18,8.76 L10.87,8.76 C12.4,8.76 13.64,10 13.64,11.53 L13.64,14.3 C13.64,14.8 13.23,15.22 12.72,15.22 L9.04,15.25 C7.5,15.26 6.25,14.02 6.25,12.48 Z"/>
  <path fill="#292D32" d="M17.75,10.02 L17.75,14 C17.75,14.43 17.27,14.69 16.91,14.45 L14.99,13.17 C14.84,13.07 14.75,12.9 14.75,12.72 L14.75,11.3 C14.75,11.12 14.84,10.95 14.99,10.85 L16.91,9.57 C17.27,9.33 17.75,9.59 17.75,10.02 Z"/>
</svg>

