<svg xmlns="http://www.w3.org/2000/svg" width="24" height="24" viewBox="0 0 24 24">
  <defs/>
  <path d="M12,2 C6.48,2 2,6.48 2,12 C2,17.52 6.48,22 12,22 C17.52,22 22,17.52 22,12 C22,6.48 17.52,2 12,2 Z M13.63,14.29 C13.63,14.8 13.22,15.21 12.71,15.21 L9.03,15.24 C7.49,15.25 6.24,14.01 6.24,12.47 L6.24,9.67 C6.24,9.16 6.65,8.75 7.16,8.75 L10.85,8.75 C12.38,8.75 13.62,9.99 13.62,11.52 L13.62,14.29 L13.63,14.29 Z M17.75,14 C17.75,14.43 17.27,14.69 16.91,14.45 L14.99,13.17 C14.84,13.07 14.75,12.9 14.75,12.72 L14.75,11.3 C14.75,11.12 14.84,10.95 14.99,10.85 L16.91,9.57 C17.27,9.33 17.75,9.59 17.75,10.02 L17.75,14 Z"/>
</svg>

