<svg xmlns="http://www.w3.org/2000/svg" width="24" height="24" viewBox="0 0 24 24">
  <defs/>
  <path d="M5.25,9.68 Q5.25,8.984 5.742,8.496 Q6.232,8.01 6.93,8.01 L10.62,8.01 Q14.14,8.01 14.14,11.53 L14.14,14.3 Q14.14,14.986 13.654,15.476 Q13.163,15.97 12.476,15.97 L8.795,16 Q7.328,16.01 6.289,14.979 Q5.25,13.947 5.25,12.48 Z M6.75,9.68 L6.75,12.48 Q6.75,13.323 7.346,13.914 Q7.942,14.505 8.785,14.5 L12.464,14.47 Q12.64,14.47 12.64,14.3 L12.64,11.53 Q12.64,10.693 12.048,10.102 Q11.457,9.51 10.62,9.51 L6.93,9.51 Q6.75,9.51 6.75,9.68 Z"/>
  <path d="M18.75,9.24 L18.75,14.78 Q18.75,15.091 18.531,15.31 Q18.311,15.53 18,15.53 Q17.773,15.53 17.584,15.404 L14.814,13.554 Q14.481,13.331 14.481,12.93 L14.481,11.09 Q14.481,10.689 14.814,10.466 L17.584,8.616 Q17.842,8.444 18.147,8.504 Q18.452,8.565 18.624,8.823 Q18.75,9.013 18.75,9.24 Z M17.25,10.643 L15.981,11.491 L15.981,12.529 L17.25,13.377 L17.25,10.643 Z"/>
  <path fill="#17191C" d="M4.6,6.449 Q2.75,8.922 2.75,12 Q2.75,15.829 5.46,18.54 Q8.171,21.25 12,21.25 Q15.829,21.25 18.54,18.54 Q21.25,15.829 21.25,12 Q21.25,8.171 18.54,5.46 Q15.829,2.75 12,2.75 Q10.031,2.75 8.276,3.535 Q7.993,3.661 7.702,3.551 Q7.412,3.44 7.285,3.156 Q7.159,2.873 7.269,2.582 Q7.38,2.292 7.664,2.165 Q9.711,1.25 12,1.25 Q16.451,1.25 19.6,4.4 Q22.75,7.549 22.75,12 Q22.75,16.451 19.6,19.6 Q16.451,22.75 12,22.75 Q7.549,22.75 4.4,19.6 Q1.25,16.451 1.25,12 Q1.25,8.422 3.4,5.551 Q3.586,5.302 3.893,5.258 Q4.201,5.213 4.449,5.4 Q4.698,5.586 4.742,5.893 Q4.787,6.201 4.6,6.449 Z"/>
</svg>

